<svg xmlns="http://www.w3.org/2000/svg" viewBox="0 0 1199.9 177.4"><path fill="#FFF" d="M0 .4h1200v177H0z"/><path fill="#E85016" d="M301 20.4h2v136h-2z"/><g fill="#E85016"><path d="M344.1 131.7l-6.7 8.2 7.2 8.8h-2.9l-5.8-7-5.8 7h-3l7.3-8.8-6.8-8.2h3l5.3 6.5 5.3-6.5h2.9zM361.7 131.7l-6.7 8.2 7.2 8.8h-2.9l-5.8-7-5.8 7h-3l7.3-8.8-6.8-8.2h3l5.3 6.5 5.3-6.5h2.9zM364.1 131.7h2.4v16.9h-2.4v-16.9zM370.3 131.7h2.4v16.9h-2.4v-16.9zM395 131.7v16.9h-2.4v-7.1c-.2.1-.4.2-.7.3l-.9.3c-.3.1-.7.2-1 .2-.4.1-.7.1-1 .1-1.2 0-2.3-.1-3.1-.4-.8-.3-1.5-.7-2-1.2s-.8-1.2-1.1-2c-.2-.8-.3-1.8-.3-2.9v-4.2h2.4v4.5c0 .9.1 1.5.2 2.1.2.5.4.9.7 1.2.3.3.7.5 1.2.6.5.1 1.1.2 1.7.2.7 0 1.3-.1 2-.2.6-.1 1.2-.3 1.7-.5v-7.8h2.6zM408.3 131.7v2.2h-7.2v5.1h6.9v2.2h-6.9v5.3h7.4v2.2h-9.8v-16.9h9.6zM426.9 131.7v16.9h-2.4v-13.2l-5.2 6.5h-.4l-5.2-6.5v13.2h-2.4v-16.9h2.3l5.6 7 5.6-7h2.1zM444.8 131.7v16.9h-2.4v-14.7h-9.5v14.7h-2.4v-16.9h14.3zM460.5 136.2l-10.7 12.6h-1.2v-17.1h2.4v12.9l10.7-12.9h1.2v16.9h-2.4v-12.4zM465.9 140.2c0-1.2.2-2.3.6-3.3s1-2 1.8-2.8c.8-.8 1.7-1.4 2.9-1.9 1.1-.5 2.4-.7 3.7-.7 1.4 0 2.7.2 3.8.7 1.1.5 2.1 1.1 2.9 1.9.8.8 1.4 1.7 1.8 2.8.4 1 .6 2.2.6 3.3 0 1.1-.2 2.2-.6 3.3s-1 2-1.8 2.8c-.8.8-1.7 1.4-2.9 1.9-1.1.5-2.4.7-3.8.7-.9 0-1.8-.1-2.6-.3-.8-.2-1.5-.5-2.2-.9-.7-.4-1.3-.8-1.8-1.4-.5-.5-1-1.1-1.3-1.8-.4-.6-.6-1.3-.8-2.1s-.3-1.5-.3-2.2zm2.5 0c0 .9.2 1.8.5 2.6s.8 1.5 1.4 2 1.3 1 2.1 1.3c.8.3 1.7.5 2.6.5.9 0 1.8-.2 2.6-.5s1.5-.8 2.1-1.3 1-1.3 1.4-2 .5-1.6.5-2.6c0-.9-.2-1.8-.5-2.6s-.8-1.5-1.4-2-1.3-1-2.1-1.3-1.7-.5-2.6-.5c-.9 0-1.8.2-2.6.5s-1.5.8-2.1 1.3-1 1.3-1.4 2-.5 1.6-.5 2.6zM501.4 131.7v16.9H499v-7.4h-9.5v7.4h-2.4v-16.9h2.4v7.4h9.5v-7.4h2.4zM512.3 131.6l7.6 17h-2.5l-2.3-5h-7.2l-2.1 5h-2.5l7.3-17h1.7zm-.9 3.7l-2.5 6.1h5.3l-2.8-6.1zM534.4 131.7v2.2h-5.8v14.7h-2.4v-14.7h-5.8v-2.2h14zM559.3 131.7v16.9h-2.4v-13.2l-5.2 6.5h-.4l-5.2-6.5v13.2h-2.4v-16.9h2.3l5.6 7 5.6-7h2.1zM574.8 136.2l-10.7 12.6h-1.2v-17.1h2.4v12.9l10.7-12.9h1.2v16.9h-2.4v-12.4zM580.9 131.7h5.3c.9 0 1.7.1 2.4.4.7.3 1.2.6 1.7 1 .4.4.8 1 1 1.6.2.6.3 1.2.3 1.9s-.1 1.3-.3 1.9c-.2.6-.6 1.1-1 1.5-.5.4-1.1.8-1.8 1-.7.2-1.6.4-2.5.4h-2.5v7.3h-2.4v-17zm2.4 2.2v5.2h2.7c.5 0 .9-.1 1.2-.2.4-.1.7-.3.9-.5.3-.2.5-.5.6-.8.1-.3.2-.7.2-1.1 0-.3 0-.6-.1-.9s-.2-.6-.5-.8c-.2-.2-.5-.4-.9-.6s-.8-.2-1.4-.2h-2.7zM600.8 131.6l7.6 17h-2.5l-2.3-5h-7.2l-2.1 5h-2.5l7.3-17h1.7zm-.9 3.7l-2.5 6.1h5.3l-2.8-6.1zM631.4 131.7v16.9H629v-14.7h-9.5v14.7h-2.4v-16.9h14.3zM634.4 140.2c0-1.2.2-2.3.6-3.3s1-2 1.8-2.8c.8-.8 1.7-1.4 2.9-1.9 1.1-.5 2.4-.7 3.7-.7 1.4 0 2.7.2 3.8.7 1.1.5 2.1 1.1 2.9 1.9.8.8 1.4 1.7 1.8 2.8.4 1 .6 2.2.6 3.3 0 1.1-.2 2.2-.6 3.3s-1 2-1.8 2.8c-.8.8-1.7 1.4-2.9 1.9-1.1.5-2.4.7-3.8.7-.9 0-1.8-.1-2.6-.3-.8-.2-1.5-.5-2.2-.9-.7-.4-1.3-.8-1.8-1.4-.5-.5-1-1.1-1.3-1.8-.4-.6-.6-1.3-.8-2.1s-.3-1.5-.3-2.2zm2.5 0c0 .9.2 1.8.5 2.6s.8 1.5 1.4 2 1.3 1 2.1 1.3c.8.3 1.7.5 2.6.5.9 0 1.8-.2 2.6-.5s1.5-.8 2.1-1.3 1-1.3 1.4-2 .5-1.6.5-2.6c0-.9-.2-1.8-.5-2.6s-.8-1.5-1.4-2-1.3-1-2.1-1.3-1.7-.5-2.6-.5c-.9 0-1.8.2-2.6.5s-1.5.8-2.1 1.3-1 1.3-1.4 2-.5 1.6-.5 2.6zM669.6 131.6l7.6 17h-2.5l-6-13.7-5.6 13.7h-2.5l7.3-17h1.7zM684.2 138.8c1 0 1.8.1 2.6.4.7.3 1.3.6 1.8 1.1s.8 1 1.1 1.6.4 1.2.4 1.9-.1 1.3-.4 1.9c-.3.6-.6 1.1-1.1 1.5-.5.4-1.1.8-1.8 1-.7.3-1.5.4-2.5.4H679v-16.9h2.4v7.1h2.8zm-2.8 2.2v5.4h3.1c.6 0 1-.1 1.4-.2.4-.2.7-.4.9-.6.2-.2.4-.5.5-.8.1-.3.1-.6.1-.9 0-.4-.1-.8-.2-1.2-.1-.4-.3-.7-.6-.9l-.9-.6c-.4-.1-.8-.2-1.2-.2h-3.1zm14-9.3v16.9H693v-16.9h2.4zM699.1 131.7c.6 0 1.1.1 1.6.2s.9.3 1.3.6.7.7 1.1 1.2c.3.5.6 1.1.9 1.9.2.6.5 1.1.7 1.5.2.4.5.7.8.9.3.2.5.4.8.4.3.1.6.1.9.1v-6.9h2.4v6.9c.3 0 .6 0 .9-.1.3-.1.5-.2.8-.4.3-.2.5-.5.8-.9.2-.4.5-.9.7-1.5.3-.8.6-1.4.9-1.9.3-.5.7-.9 1.1-1.2.4-.3.8-.5 1.3-.6.5-.1 1-.2 1.6-.2h.4v2.2c-.5 0-1 .1-1.3.2-.4.1-.6.3-.9.5-.2.2-.4.5-.6.9-.2.3-.3.8-.5 1.3-.1.3-.2.6-.4.9l-.6.9c-.2.3-.5.5-.7.7-.3.2-.5.4-.8.5.3.1.6.3.9.4s.5.3.7.6.4.5.7.8.5.7.7 1.1l3.8 6.2h-2.8l-3.1-5.2c-.3-.5-.6-.9-.8-1.3s-.6-.7-.8-.9c-.3-.2-.6-.4-.9-.5-.3-.1-.6-.2-1-.2v8.1h-2.4v-8.1c-.4 0-.7.1-1 .2-.3.1-.6.3-.9.5-.3.2-.6.5-.8.9s-.5.8-.8 1.3l-3.1 5.2h-2.8l3.8-6.2c.5-.7.9-1.3 1.4-1.8s1-.8 1.6-1c-.3-.1-.5-.3-.8-.5-.3-.2-.5-.5-.7-.7l-.6-.9c-.2-.3-.3-.6-.4-.9-.2-.5-.3-.9-.5-1.3l-.6-.9c-.2-.2-.5-.4-.9-.5-.4-.1-.8-.2-1.3-.2v-2.2h.2zM735.7 131.7v16.9h-2.4v-7.4h-9.5v7.4h-2.4v-16.9h2.4v7.4h9.5v-7.4h2.4zM738.7 140.2c0-1.2.2-2.3.6-3.3s1-2 1.8-2.8c.8-.8 1.7-1.4 2.9-1.9 1.1-.5 2.4-.7 3.7-.7 1.4 0 2.7.2 3.8.7 1.1.5 2.1 1.1 2.9 1.9.8.8 1.4 1.7 1.8 2.8.4 1 .6 2.2.6 3.3 0 1.1-.2 2.2-.6 3.3s-1 2-1.8 2.8c-.8.8-1.7 1.4-2.9 1.9-1.1.5-2.4.7-3.8.7-.9 0-1.8-.1-2.6-.3-.8-.2-1.5-.5-2.2-.9-.7-.4-1.3-.8-1.8-1.4-.5-.5-1-1.1-1.3-1.8-.4-.6-.6-1.3-.8-2.1s-.3-1.5-.3-2.2zm2.5 0c0 .9.2 1.8.5 2.6s.8 1.5 1.4 2 1.3 1 2.1 1.3c.8.3 1.7.5 2.6.5.9 0 1.8-.2 2.6-.5s1.5-.8 2.1-1.3 1-1.3 1.4-2 .5-1.6.5-2.6c0-.9-.2-1.8-.5-2.6s-.8-1.5-1.4-2-1.3-1-2.1-1.3-1.7-.5-2.6-.5c-.9 0-1.8.2-2.6.5s-1.5.8-2.1 1.3-1 1.3-1.4 2-.5 1.6-.5 2.6zM775.6 131.7v16.9h-2.4v-13.2l-5.2 6.5h-.4l-5.2-6.5v13.2H760v-16.9h2.3l5.6 7 5.6-7h2.1zM780 131.7l6.1 14.1 5-14.1h2.4l-6.3 16.9c-.3.7-.5 1.3-.8 1.7-.3.5-.6.9-.9 1.2-.3.3-.7.5-1.1.7-.4.1-.9.2-1.3.2s-.8-.1-1.2-.2-.7-.3-.9-.4v-2.2c.3.3.6.5.9.6.4.1.8.2 1.3.2.2 0 .4 0 .6-.1s.4-.2.6-.4c.2-.2.4-.4.5-.6.1-.2.2-.5.3-.8l-7.4-16.9h2.2zM801.7 140.2c0-1.2.2-2.3.6-3.3s1-2 1.8-2.8c.8-.8 1.7-1.4 2.9-1.9 1.1-.5 2.4-.7 3.7-.7 1.4 0 2.7.2 3.8.7 1.1.5 2.1 1.1 2.9 1.9.8.8 1.4 1.7 1.8 2.8.4 1 .6 2.2.6 3.3 0 1.1-.2 2.2-.6 3.3s-1 2-1.8 2.8c-.8.8-1.7 1.4-2.9 1.9-1.1.5-2.4.7-3.8.7-.9 0-1.8-.1-2.6-.3-.8-.2-1.5-.5-2.2-.9-.7-.4-1.3-.8-1.8-1.4-.5-.5-1-1.1-1.3-1.8-.4-.6-.6-1.3-.8-2.1s-.3-1.5-.3-2.2zm2.5 0c0 .9.2 1.8.5 2.6s.8 1.5 1.4 2 1.3 1 2.1 1.3c.8.3 1.7.5 2.6.5.9 0 1.8-.2 2.6-.5s1.5-.8 2.1-1.3 1-1.3 1.4-2 .5-1.6.5-2.6c0-.9-.2-1.8-.5-2.6s-.8-1.5-1.4-2-1.3-1-2.1-1.3-1.7-.5-2.6-.5c-.9 0-1.8.2-2.6.5s-1.5.8-2.1 1.3-1 1.3-1.4 2-.5 1.6-.5 2.6zM822.7 131.7h5.3c.9 0 1.7.1 2.4.4.7.3 1.2.6 1.7 1 .4.4.8 1 1 1.6.2.6.3 1.2.3 1.9s-.1 1.3-.3 1.9c-.2.6-.6 1.1-1 1.5-.5.4-1.1.8-1.8 1-.7.2-1.6.4-2.5.4h-2.5v7.3h-2.4v-17zm2.5 2.2v5.2h2.7c.5 0 .9-.1 1.2-.2.4-.1.7-.3.9-.5.3-.2.5-.5.6-.8.1-.3.2-.7.2-1.1 0-.3 0-.6-.1-.9s-.2-.6-.5-.8c-.2-.2-.5-.4-.9-.6s-.8-.2-1.4-.2h-2.7zM847.4 136.2l-10.7 12.6h-1.2v-17.1h2.4v12.9l10.7-12.9h1.2v16.9h-2.4v-12.4zM863.2 131.7v2.2H856v5.1h6.9v2.2H856v5.3h7.4v2.2h-9.8v-16.9h9.6zM880.3 131.7v16.9h-2.4v-7.4h-9.5v7.4H866v-16.9h2.4v7.4h9.5v-7.4h2.4zM896.8 131.7v2.2H891v14.7h-2.4v-14.7h-5.8v-2.2h14zM911 136.2l-10.7 12.6h-1.2v-17.1h2.4v12.9l10.7-12.9h1.2v16.9H911v-12.4zM917 131.7h5.3c.9 0 1.7.1 2.4.4.7.3 1.2.6 1.7 1 .4.4.8 1 1 1.6.2.6.3 1.2.3 1.9s-.1 1.3-.3 1.9c-.2.6-.6 1.1-1 1.5-.5.4-1.1.8-1.8 1-.7.2-1.6.4-2.5.4h-2.5v7.3H917v-17zm2.4 2.2v5.2h2.7c.5 0 .9-.1 1.2-.2.4-.1.7-.3.9-.5.3-.2.5-.5.6-.8.1-.3.2-.7.2-1.1 0-.3 0-.6-.1-.9s-.2-.6-.5-.8c-.2-.2-.5-.4-.9-.6s-.8-.2-1.4-.2h-2.7zM929 140.2c0-1.2.2-2.3.6-3.3s1-2 1.8-2.8c.8-.8 1.7-1.4 2.9-1.9 1.1-.5 2.4-.7 3.7-.7 1.4 0 2.7.2 3.8.7 1.1.5 2.1 1.1 2.9 1.9.8.8 1.4 1.7 1.8 2.8.4 1 .6 2.2.6 3.3 0 1.1-.2 2.2-.6 3.3s-1 2-1.8 2.8c-.8.8-1.7 1.4-2.9 1.9-1.1.5-2.4.7-3.8.7-.9 0-1.8-.1-2.6-.3-.8-.2-1.5-.5-2.2-.9-.7-.4-1.3-.8-1.8-1.4-.5-.5-1-1.1-1.3-1.8-.4-.6-.6-1.3-.8-2.1s-.3-1.5-.3-2.2zm2.5 0c0 .9.2 1.8.5 2.6s.8 1.5 1.4 2 1.3 1 2.1 1.3c.8.3 1.7.5 2.6.5.9 0 1.8-.2 2.6-.5s1.5-.8 2.1-1.3 1-1.3 1.4-2 .5-1.6.5-2.6c0-.9-.2-1.8-.5-2.6s-.8-1.5-1.4-2-1.3-1-2.1-1.3-1.7-.5-2.6-.5c-.9 0-1.8.2-2.6.5s-1.5.8-2.1 1.3-1 1.3-1.4 2-.5 1.6-.5 2.6zM950.2 148.6v-16.9h4.9c.9 0 1.7.1 2.3.4.7.2 1.2.6 1.6 1 .4.4.7.9.9 1.4s.3 1 .3 1.6c0 .9-.2 1.6-.6 2.2-.4.6-1.1 1.1-2 1.4.6.1 1.2.3 1.7.6s.9.6 1.3 1 .6.8.8 1.3.3 1 .3 1.6c0 .5-.1 1-.3 1.6s-.5 1-1 1.5-1.1.8-1.8 1.1c-.7.3-1.6.4-2.7.4h-5.7zm2.4-14.7v5.1h1.6c1.2 0 2.1-.2 2.7-.7.6-.4.9-1.1.9-2 0-.3 0-.6-.1-.9-.1-.3-.3-.5-.5-.8-.2-.2-.5-.4-.9-.5-.4-.1-.8-.2-1.4-.2h-2.3zm0 7.2v5.3h3.1c.7 0 1.3-.1 1.8-.2.5-.2.8-.4 1.1-.6.3-.3.5-.5.6-.9.1-.3.2-.6.2-1s-.1-.7-.2-1.1c-.1-.3-.4-.6-.7-.8-.3-.2-.7-.4-1.2-.5-.5-.1-1-.2-1.7-.2h-3zM971.3 131.6l7.6 17h-2.5l-2.3-5h-7.2l-2.1 5h-2.5l7.3-17h1.7zm-.9 3.7l-2.5 6.1h5.3l-2.8-6.1zM995 131.7v16.9h-2.4v-7.4h-9.5v7.4h-2.4v-16.9h2.4v7.4h9.5v-7.4h2.4zM1010.7 136.2l-10.7 12.6h-1.2v-17.1h2.4v12.9l10.7-12.9h1.2v16.9h-2.4v-12.4zM1019.3 148.6h-2.4v-16.9h2.4v7.4h2.6c.1-1.1.4-2.1.9-3 .5-.9 1.1-1.7 1.9-2.4s1.7-1.2 2.7-1.6c1.1-.4 2.2-.6 3.5-.6 1.4 0 2.7.2 3.8.7 1.1.5 2.1 1.1 2.9 1.9.8.8 1.4 1.7 1.8 2.8.4 1 .6 2.2.6 3.3 0 1.1-.2 2.2-.6 3.3s-1 2-1.8 2.8c-.8.8-1.7 1.4-2.9 1.9-1.1.5-2.4.7-3.8.7-1.3 0-2.4-.2-3.5-.6-1-.4-1.9-.9-2.7-1.6-.8-.7-1.4-1.5-1.9-2.4-.5-.9-.8-1.9-.9-2.9h-2.7v7.2zm5-8.4c0 .9.2 1.8.5 2.6s.8 1.5 1.4 2c.6.6 1.3 1 2.1 1.3.8.3 1.7.5 2.6.5.9 0 1.8-.2 2.6-.5s1.5-.8 2.1-1.3c.6-.6 1-1.3 1.4-2s.5-1.6.5-2.6c0-.9-.2-1.8-.5-2.6s-.8-1.5-1.4-2c-.6-.6-1.3-1-2.1-1.3s-1.7-.5-2.6-.5c-.9 0-1.8.2-2.6.5s-1.5.8-2.1 1.3c-.6.6-1 1.3-1.4 2s-.5 1.6-.5 2.6z"/></g><path fill="#0980C4" d="M368.4 27.4h4.5l-12.7 31.5h-1L349 33.4l-10.4 25.5h-1L325 27.4h4.5l8.6 21.6 8.7-21.6h4.2l8.7 21.6 8.7-21.6zM389.9 26.9c4.8 0 8.9 1.5 12.1 4.6 3.2 3.1 4.8 6.9 4.8 11.5s-1.6 8.5-4.9 11.5c-3.3 3-7.4 4.5-12.3 4.5-4.7 0-8.7-1.5-11.8-4.5-3.1-3-4.7-6.8-4.7-11.4 0-4.7 1.6-8.6 4.8-11.6s7.2-4.6 12-4.6zm.2 4.3c-3.6 0-6.5 1.1-8.8 3.4-2.3 2.2-3.5 5.1-3.5 8.6 0 3.4 1.2 6.2 3.5 8.4s5.2 3.4 8.7 3.4c3.5 0 6.4-1.1 8.8-3.4 2.3-2.3 3.5-5.1 3.5-8.6 0-3.3-1.2-6.1-3.5-8.4-2.4-2.3-5.3-3.4-8.7-3.4zM412.5 58.7V27.4h7.9c3.2 0 5.7.8 7.6 2.4s2.8 3.7 2.8 6.4c0 1.8-.5 3.4-1.4 4.7-.9 1.3-2.2 2.3-3.9 3 1 .7 2 1.6 2.9 2.7 1 1.1 2.3 3.1 4 5.9 1.1 1.8 2 3.1 2.6 4l1.7 2.2h-5.3l-1.4-2.1c0-.1-.1-.2-.3-.4l-.9-1.2-1.4-2.3-1.5-2.4c-.9-1.3-1.8-2.3-2.5-3.1s-1.5-1.3-2.1-1.6c-.6-.3-1.7-.5-3.1-.5H417v13.7h-4.5zm5.9-27.5H417v9.9h1.7c2.3 0 3.8-.2 4.7-.6.8-.4 1.5-1 2-1.8s.7-1.7.7-2.7c0-1-.3-1.9-.8-2.7-.5-.8-1.3-1.4-2.2-1.7-1-.3-2.5-.4-4.7-.4zM440.2 27.4h4.5v27.3h14.1v4.1h-18.6V27.4zM462.8 58.7V27.4h10.6c4.3 0 7.6.6 10.1 1.9 2.5 1.3 4.5 3.2 5.9 5.6 1.5 2.5 2.2 5.2 2.2 8.1 0 2.1-.4 4.1-1.2 6-.8 1.9-2 3.6-3.5 5.1-1.5 1.5-3.3 2.6-5.3 3.4-1.2.5-2.3.8-3.3.9-1 .2-2.9.2-5.7.2h-9.8zm10.1-27.3h-5.6v23.3h5.7c2.2 0 4-.2 5.2-.5 1.2-.3 2.3-.7 3.1-1.2.8-.5 1.6-1.1 2.3-1.7 2.2-2.2 3.3-5.1 3.3-8.5 0-3.4-1.1-6.1-3.4-8.2-.8-.8-1.8-1.4-2.9-2-1.1-.5-2.1-.8-3.1-1s-2.5-.2-4.6-.2zM556.1 45.6l-3.4-2.1c-2.1-1.3-3.7-2.6-4.6-3.9-.9-1.3-1.4-2.7-1.4-4.4 0-2.5.9-4.5 2.6-6 1.7-1.5 3.9-2.3 6.7-2.3 2.6 0 5 .7 7.2 2.2v5.1c-2.3-2.2-4.7-3.3-7.3-3.3-1.5 0-2.7.3-3.6 1-.9.7-1.4 1.5-1.4 2.6 0 .9.3 1.8 1 2.6s1.8 1.7 3.4 2.6l3.4 2c3.8 2.3 5.7 5.2 5.7 8.7 0 2.5-.8 4.6-2.5 6.1-1.7 1.6-3.9 2.4-6.6 2.4-3.1 0-5.9-1-8.5-2.9v-5.7c2.4 3.1 5.2 4.6 8.4 4.6 1.4 0 2.6-.4 3.5-1.2.9-.8 1.4-1.8 1.4-2.9.1-1.7-1.3-3.5-4-5.2zM587.1 27.4h5.6l-13.6 14.9L596 58.7h-6.1l-16-15.5v15.5h-4.5V27.4h4.5v14.3l13.2-14.3zM599.5 27.4h4.5v31.4h-4.5V27.4zM639.2 26.9c4.8 0 8.9 1.5 12.1 4.6 3.2 3.1 4.8 6.9 4.8 11.5s-1.6 8.5-4.9 11.5c-3.3 3-7.4 4.5-12.3 4.5-4.7 0-8.7-1.5-11.8-4.5-3.1-3-4.7-6.8-4.7-11.4 0-4.7 1.6-8.6 4.8-11.6s7.1-4.6 12-4.6zm.1 4.3c-3.6 0-6.5 1.1-8.8 3.4-2.3 2.2-3.5 5.1-3.5 8.6 0 3.4 1.2 6.2 3.5 8.4s5.2 3.4 8.7 3.4c3.5 0 6.4-1.1 8.8-3.4 2.3-2.3 3.5-5.1 3.5-8.6 0-3.3-1.2-6.1-3.5-8.4-2.4-2.3-5.3-3.4-8.7-3.4zM661.8 58.7V27.4h7.9c3.2 0 5.7.8 7.6 2.4s2.8 3.7 2.8 6.4c0 1.8-.5 3.4-1.4 4.7-.9 1.3-2.2 2.3-3.9 3 1 .7 2 1.6 2.9 2.7 1 1.1 2.3 3.1 4 5.9 1.1 1.8 2 3.1 2.6 4l1.7 2.2h-5.3l-1.4-2.1c0-.1-.1-.2-.3-.4l-.9-1.2-1.4-2.3-1.5-2.4c-.9-1.3-1.8-2.3-2.5-3.1s-1.5-1.3-2.1-1.6c-.6-.3-1.7-.5-3.1-.5h-1.2v13.7h-4.5zm5.8-27.5h-1.3v9.9h1.7c2.3 0 3.8-.2 4.7-.6.8-.4 1.5-1 2-1.8s.7-1.7.7-2.7c0-1-.3-1.9-.8-2.7-.5-.8-1.3-1.4-2.2-1.7-1-.3-2.6-.4-4.8-.4zM689.4 27.4h4.5v31.4h-4.5V27.4zM700.9 27.4h17.8v4h-13.3V41h12.8v4h-12.8v9.7h13.7v4h-18.2V27.4zM748.8 27.4h4.3v31.4h-3.9l-21-24.2v24.2H724V27.4h3.6l21.1 24.4V27.4zM757.1 27.3h26.2v4h-10.9v27.4h-4.5V31.3h-10.8v-4zM787.5 27.4h17.8v4H792V41h12.8v4H792v9.7h13.7v4h-18.2V27.4zM810.5 27.4h17.8v4H815V41h12.8v4H815v9.7h13.7v4h-18.2V27.4zM833.7 58.7V27.4h7.9c3.2 0 5.7.8 7.6 2.4s2.8 3.7 2.8 6.4c0 1.8-.5 3.4-1.4 4.7-.9 1.3-2.2 2.3-3.9 3 1 .7 2 1.6 2.9 2.7 1 1.1 2.3 3.1 4 5.9 1.1 1.8 2 3.1 2.6 4l1.7 2.2h-5.3l-1.4-2.1c0-.1-.1-.2-.3-.4L850 55l-1.4-2.3-1.5-2.4c-.9-1.3-1.8-2.3-2.5-3.1s-1.5-1.3-2.1-1.6c-.6-.3-1.7-.5-3.1-.5h-1.2v13.7h-4.5zm5.8-27.5h-1.3v9.9h1.7c2.3 0 3.8-.2 4.7-.6.8-.4 1.5-1 2-1.8s.7-1.7.7-2.7c0-1-.3-1.9-.8-2.7-.5-.8-1.3-1.4-2.2-1.7-1-.3-2.6-.4-4.8-.4zM861.3 27.4h4.5v31.4h-4.5V27.4zM897.7 27.4h4.3v31.4h-3.9l-21-24.2v24.2h-4.2V27.4h3.6l21.1 24.4V27.4zM925.6 43.3h10.5v13.3c-3.9 1.7-7.7 2.5-11.5 2.5-5.2 0-9.3-1.5-12.4-4.5-3.1-3-4.7-6.8-4.7-11.2 0-4.7 1.6-8.6 4.8-11.7 3.2-3.1 7.3-4.7 12.1-4.7 1.8 0 3.4.2 5 .6 1.6.4 3.6 1.1 6 2.1v4.6c-3.7-2.2-7.5-3.3-11.1-3.3-3.4 0-6.3 1.2-8.7 3.5-2.3 2.3-3.5 5.2-3.5 8.6 0 3.6 1.2 6.5 3.5 8.7s5.4 3.4 9.1 3.4c1.8 0 3.9-.4 6.4-1.2l.4-.1v-6.5h-6v-4.1zM355.5 103.3v4.9c-3.3 1.8-7.1 2.7-11.4 2.7-3.5 0-6.5-.7-8.9-2.1-2.4-1.4-4.4-3.3-5.8-5.8-1.4-2.5-2.1-5.1-2.1-8 0-4.6 1.6-8.4 4.9-11.5s7.3-4.7 12-4.7c3.3 0 7 .9 11 2.6v4.8c-3.7-2.1-7.3-3.1-10.8-3.1-3.6 0-6.6 1.1-8.9 3.4s-3.6 5.1-3.6 8.5c0 3.4 1.2 6.3 3.5 8.5s5.3 3.3 9 3.3c3.8 0 7.5-1.2 11.1-3.5zM383.1 79.2h4.5v31.4h-4.5V96.9h-17.6v13.7H361V79.2h4.5v13.6h17.6V79.2zM404.6 79h3.2l14.1 31.5h-4.6l-4.2-9.3h-13.4l-3.9 9.3h-4.6L404.6 79zm6.6 18.3l-5.1-11.4-4.7 11.4h9.8zM450.2 79.2h4.2v31.4h-4.5V86.2l-9.6 12.1h-.8l-9.8-12.1v24.4h-4.5V79.2h4.3l10.4 12.9 10.3-12.9zM460.9 110.6V79.2h9.9c3 0 5.4.8 7.2 2.4s2.7 3.8 2.7 6.5c0 1.8-.5 3.4-1.4 4.8-.9 1.4-2.2 2.4-3.7 3.1-1.6.6-3.9 1-6.8 1h-3.3v13.6h-4.6zm9.1-27.4h-4.6V93h4.9c1.8 0 3.2-.4 4.2-1.3s1.5-2.1 1.5-3.7c0-3.2-2-4.8-6-4.8zM484.6 79.2h4.5v31.4h-4.5V79.2zM511.4 78.8c4.8 0 8.9 1.5 12.1 4.6 3.2 3.1 4.8 6.9 4.8 11.5s-1.6 8.5-4.9 11.5c-3.3 3-7.4 4.5-12.3 4.5-4.7 0-8.7-1.5-11.8-4.5-3.1-3-4.7-6.8-4.7-11.4 0-4.7 1.6-8.6 4.8-11.6s7.2-4.6 12-4.6zm.2 4.2c-3.6 0-6.5 1.1-8.8 3.4-2.3 2.2-3.5 5.1-3.5 8.6 0 3.4 1.2 6.2 3.5 8.4s5.2 3.4 8.7 3.4c3.5 0 6.4-1.1 8.8-3.4 2.3-2.3 3.5-5.1 3.5-8.6 0-3.3-1.2-6.1-3.5-8.4-2.4-2.2-5.3-3.4-8.7-3.4zM558.8 79.2h4.3v31.4h-3.9l-21-24.2v24.2H534V79.2h3.6l21.1 24.4V79.2zM577.6 97.4l-3.4-2.1c-2.1-1.3-3.7-2.6-4.6-3.9-.9-1.3-1.4-2.7-1.4-4.4 0-2.5.9-4.5 2.6-6 1.7-1.5 3.9-2.3 6.7-2.3 2.6 0 5 .7 7.2 2.2V86c-2.3-2.2-4.7-3.3-7.3-3.3-1.5 0-2.7.3-3.6 1-.9.7-1.4 1.5-1.4 2.6 0 .9.3 1.8 1 2.6s1.8 1.7 3.4 2.6l3.4 2c3.8 2.3 5.7 5.2 5.7 8.7 0 2.5-.8 4.6-2.5 6.1-1.7 1.6-3.9 2.4-6.6 2.4-3.1 0-5.9-1-8.5-2.9v-5.7c2.4 3.1 5.2 4.6 8.4 4.6 1.4 0 2.6-.4 3.5-1.2.9-.8 1.4-1.8 1.4-2.9.1-1.6-1.3-3.5-4-5.2zM613 79.2h4.5v31.4H613V96.9h-17.6v13.7h-4.5V79.2h4.5v13.6H613V79.2zM624.4 79.2h4.5v31.4h-4.5V79.2zM635.6 110.6V79.2h9.9c3 0 5.4.8 7.2 2.4s2.7 3.8 2.7 6.5c0 1.8-.5 3.4-1.4 4.8-.9 1.4-2.2 2.4-3.7 3.1-1.6.6-3.9 1-6.8 1h-3.3v13.6h-4.6zm9.2-27.4h-4.6V93h4.9c1.8 0 3.2-.4 4.2-1.3s1.5-2.1 1.5-3.7c0-3.2-2-4.8-6-4.8zM667.1 97.4l-3.4-2.1c-2.1-1.3-3.7-2.6-4.6-3.9-.9-1.3-1.4-2.7-1.4-4.4 0-2.5.9-4.5 2.6-6 1.7-1.5 3.9-2.3 6.7-2.3 2.6 0 5 .7 7.2 2.2V86c-2.3-2.2-4.7-3.3-7.3-3.3-1.5 0-2.7.3-3.6 1-.9.7-1.4 1.5-1.4 2.6 0 .9.3 1.8 1 2.6s1.8 1.7 3.4 2.6l3.4 2c3.8 2.3 5.7 5.2 5.7 8.7 0 2.5-.8 4.6-2.5 6.1-1.7 1.6-3.9 2.4-6.6 2.4-3.1 0-5.9-1-8.5-2.9v-5.7c2.4 3.1 5.2 4.6 8.4 4.6 1.4 0 2.6-.4 3.5-1.2.9-.8 1.4-1.8 1.4-2.9.1-1.6-1.3-3.5-4-5.2z"/><path fill="#E85016" d="M710.9 79.2h5.6l-13.6 14.9 16.9 16.5h-6.1l-16-15.5v15.5h-4.5V79.2h4.5v14.3l13.2-14.3zM723.4 110.6V79.2h7.9c3.2 0 5.7.8 7.6 2.4s2.8 3.7 2.8 6.4c0 1.8-.5 3.4-1.4 4.7-.9 1.3-2.2 2.3-3.9 3 1 .7 2 1.6 2.9 2.7 1 1.1 2.3 3.1 4 5.9 1.1 1.8 2 3.1 2.6 4l1.7 2.2h-5.3l-1.4-2.1c0-.1-.1-.2-.3-.4l-.9-1.2-1.4-2.3-1.5-2.4c-.9-1.3-1.8-2.3-2.5-3.1s-1.5-1.3-2.1-1.6c-.6-.3-1.7-.5-3.1-.5h-1.2v13.7h-4.5zm5.9-27.6H728v9.9h1.7c2.3 0 3.8-.2 4.7-.6.8-.4 1.5-1 2-1.8s.7-1.7.7-2.7c0-1-.3-1.9-.8-2.7-.5-.8-1.3-1.4-2.2-1.7-1.1-.2-2.6-.4-4.8-.4zM761.1 79h3.2l14.1 31.5h-4.6l-4.2-9.3h-13.4l-3.9 9.3h-4.6L761.1 79zm6.6 18.3l-5.1-11.4-4.7 11.4h9.8zM789.5 97.4l-3.4-2.1c-2.1-1.3-3.7-2.6-4.6-3.9-.9-1.3-1.4-2.7-1.4-4.4 0-2.5.9-4.5 2.6-6 1.7-1.5 3.9-2.3 6.7-2.3 2.6 0 5 .7 7.2 2.2V86c-2.3-2.2-4.7-3.3-7.3-3.3-1.5 0-2.7.3-3.6 1-.9.7-1.4 1.5-1.4 2.6 0 .9.3 1.8 1 2.6s1.8 1.7 3.4 2.6l3.4 2c3.8 2.3 5.7 5.2 5.7 8.7 0 2.5-.8 4.6-2.5 6.1-1.7 1.6-3.9 2.4-6.6 2.4-3.1 0-5.9-1-8.5-2.9v-5.7c2.4 3.1 5.2 4.6 8.4 4.6 1.4 0 2.6-.4 3.5-1.2.9-.8 1.4-1.8 1.4-2.9.1-1.6-1.3-3.5-4-5.2zM827.7 79.2h4.3v31.4h-3.9l-21-24.2v24.2h-4.2V79.2h3.6l21.1 24.4V79.2zM854.1 78.8c4.8 0 8.9 1.5 12.1 4.6 3.2 3.1 4.8 6.9 4.8 11.5s-1.6 8.5-4.9 11.5c-3.3 3-7.4 4.5-12.3 4.5-4.7 0-8.7-1.5-11.8-4.5-3.1-3-4.7-6.8-4.7-11.4 0-4.7 1.6-8.6 4.8-11.6s7.1-4.6 12-4.6zm.2 4.2c-3.6 0-6.5 1.1-8.8 3.4-2.3 2.2-3.5 5.1-3.5 8.6 0 3.4 1.2 6.2 3.5 8.4s5.2 3.4 8.7 3.4c3.5 0 6.4-1.1 8.8-3.4 2.3-2.3 3.5-5.1 3.5-8.6 0-3.3-1.2-6.1-3.5-8.4-2.5-2.2-5.3-3.4-8.7-3.4zM891.7 79.2h5.5L885.6 94v16.6H881V94l-11.6-14.8h5.4l8.4 10.8 8.5-10.8zM905.6 79h3.2l14.1 31.5h-4.6l-4.2-9.3h-13.4l-3.9 9.3h-4.6L905.6 79zm6.6 18.3l-5.1-11.4-4.7 11.4h9.8zM926.4 110.6V79.2h7.9c3.2 0 5.7.8 7.6 2.4s2.8 3.7 2.8 6.4c0 1.8-.5 3.4-1.4 4.7-.9 1.3-2.2 2.3-3.9 3 1 .7 2 1.6 2.9 2.7 1 1.1 2.3 3.1 4 5.9 1.1 1.8 2 3.1 2.6 4l1.7 2.2h-5.3l-1.4-2.1c0-.1-.1-.2-.3-.4l-.9-1.2-1.4-2.3-1.5-2.4c-.9-1.3-1.8-2.3-2.5-3.1s-1.5-1.3-2.1-1.6c-.6-.3-1.7-.5-3.1-.5h-1.2v13.7h-4.5zm5.8-27.6h-1.3v9.9h1.7c2.3 0 3.8-.2 4.7-.6.8-.4 1.5-1 2-1.8s.7-1.7.7-2.7c0-1-.3-1.9-.8-2.7-.5-.8-1.3-1.4-2.2-1.7-1-.2-2.6-.4-4.8-.4zM961.8 97.4l-3.4-2.1c-2.1-1.3-3.7-2.6-4.6-3.9-.9-1.3-1.4-2.7-1.4-4.4 0-2.5.9-4.5 2.6-6 1.7-1.5 3.9-2.3 6.7-2.3 2.6 0 5 .7 7.2 2.2V86c-2.3-2.2-4.7-3.3-7.3-3.3-1.5 0-2.7.3-3.6 1-.9.7-1.4 1.5-1.4 2.6 0 .9.3 1.8 1 2.6s1.8 1.7 3.4 2.6l3.4 2c3.8 2.3 5.7 5.2 5.7 8.7 0 2.5-.8 4.6-2.5 6.1-1.7 1.6-3.9 2.4-6.6 2.4-3.1 0-5.9-1-8.5-2.9v-5.7c2.4 3.1 5.2 4.6 8.4 4.6 1.4 0 2.6-.4 3.5-1.2.9-.8 1.4-1.8 1.4-2.9.1-1.6-1.3-3.5-4-5.2zM992.8 79.2h5.6l-13.6 14.9 16.9 16.5h-6.1l-16-15.5v15.5h-4.5V79.2h4.5v14.3l13.2-14.3zM1024 106.2h11.9v4.3h-19.8v-.3l1.9-2.2c2.9-3.7 5.3-6.8 7-9.3 1.7-2.5 2.9-4.5 3.4-5.8.5-1.3.8-2.6.8-3.9 0-1.8-.5-3.2-1.5-4.3-1-1.1-2.3-1.6-4-1.6-1.3 0-2.5.4-3.7 1.1s-2.3 1.8-3.3 3.1v-5.7c2.4-2 5-3 7.5-3 2.7 0 5 .9 6.8 2.7 1.8 1.8 2.7 4.1 2.7 7 0 1.3-.2 2.6-.7 4s-1.2 3.1-2.3 4.9-3 4.4-5.7 7.6l-1 1.4zM1049.2 78.8c2.9 0 5.2 1.5 7.1 4.5 1.9 3 2.8 6.8 2.8 11.5 0 4.8-.9 8.6-2.8 11.6s-4.3 4.5-7.3 4.5-5.5-1.5-7.3-4.4c-1.8-2.9-2.8-6.8-2.8-11.6s1-8.6 2.9-11.6 4.4-4.5 7.4-4.5zm0 4.3h-.2c-1.7 0-3.1 1.1-4.1 3.2-1 2.1-1.5 5-1.5 8.6 0 3.7.5 6.6 1.5 8.7 1 2.1 2.3 3.2 4.1 3.2s3.1-1.1 4.1-3.2 1.5-5 1.5-8.6c0-3.6-.5-6.5-1.4-8.7-1-2.2-2.3-3.2-4-3.2zM1069.8 79.2h4.5v31.4h-4.5V79.2zM1085.7 79.2h20.3l-14.2 31.7-4-1.7 11.5-25.8h-13.6v-4.2z"/><path fill-rule="evenodd" clip-rule="evenodd" fill="#E85016" d="M521.8 33L505 23.4V62l16.8-9.6 16.7-9.6-16.7-9.8zM509 56.1V29.3l23.2 13.4L509 56.1z"/><g><path fill="#E85016" d="M173.6 75.1L149 92l4.7 14.7 33.2-2.8.5-.5z"/><path fill="#F08507" d="M166.2 59.8l-22.6 14.3 3.5 11.8 23.8-16.5zM161 131.1l19.3-20.2-24.9 2.1z"/><path fill="#00ADE9" d="M192 98.6l10.8-11.3-13-23.4-11 7.6z"/><path fill="#E85016" d="M217.1 64.2l-21.5-3 9.1 16.4z"/><path fill="#00ADE9" d="M163.5 54.3l-20.9-3.5 4.5 13.9zM199.4 100.5l-19.8 20.7 28.4-2.8z"/><path fill="#F08507" d="M133.3 62.3l-18.5 8.8 7.1 9.6 14.3-8.8z"/><path fill="#188FCF" d="M176 65.8l10.4-7.1-4.9-8.6-9.9 6.3zM158.3 144.3l4 14.6-15.2-2.5z"/><path fill="#00ADE9" d="M185.5 34l-7.4-13.1 21 4.4z"/><path fill="#E85016" d="M103.3 110.9l19.4-1.5-11.8 14.2z"/><path fill="#188FCF" d="M121.2 23.3l4.6 12.1-14.8-2.1zM125.9 85.6l12.2-7.8 3.6 11.8-8.2 5.7zM137.3 100.2l12.7 15.5-6.3-19.9zM258 55.8l-6.6-10.3-10.2 9.4z"/><path fill="#00ADE9" d="M234.2 131.9l7 10.5 8.5-10.6z"/><path fill="#38BCEE" d="M97.4 37v-.3c.1-.2.2-.4.4-.5L258 61l.2.5.2.5-161-25z"/><path fill="#38BCEE" d="M97.9 36.2c-.2.2-.3.5-.5.7l160.8 25c-.1-.3-.2-.5-.2-.8L97.9 36.2zM88.3 134.4l164.9-8.5c0 .4-.1.7-.3.9l-164.1 8.4-.5-.8z"/><path fill="#38BCEE" d="M88.8 135l164-8.3c.1-.2.3-.5.4-.8l-164.8 8.3.4.8zM81.1 113.3l148.3-94.6c.3.1.4.2.6.4l.2.1-148.8 95-.3-.9z"/><path fill="#38BCEE" d="M229.4 18.8L81.2 113.3l.2.7L230 19.3c-.2-.2-.4-.4-.6-.5zM127.4 165.1l120.1-125 .7.5L128 165.7z"/><path fill="#38BCEE" d="M127.5 165l.5.5L248.1 40.7l-.5-.5z"/><path fill="#38BCEE" d="M123.5 12l.4-.3.3-.2 51 165.2c-.3.1-.4.1-.6.1h-.4L123.5 12z"/><path fill="#38BCEE" d="M123.6 12l50.7 164.8h.8L124.3 11.6c-.3.1-.5.2-.7.4zM153.3.1c.3-.2.6-.3.9-.3l83.4 148.8-.2.3-.4.4-.1.1L153.3.1z"/><path fill="#38BCEE" d="M153.4 0L237 149.2c.2-.2.3-.4.5-.6L154.2-.1c-.3 0-.5.1-.8.1z"/></g></svg>