<svg id="Layer_1" data-name="Layer 1" xmlns="http://www.w3.org/2000/svg" viewBox="0 0 1200 719.29"><defs><style>.cls-1{fill:none}.cls-2{fill:#0e7dc2}.cls-3{clip-path:url(#clip-path)}.cls-4{fill:#6ec4e9}.cls-5{clip-path:url(#clip-path-2)}.cls-6{fill:#fff}.cls-7{clip-path:url(#clip-path-3)}.cls-8{clip-path:url(#clip-path-4)}.cls-9{fill:#e6007c}</style><clipPath id="clip-path"><path class="cls-1" d="M563.01 166.33L1200 194.15V0L563.01 166.33z"/></clipPath><clipPath id="clip-path-2"><path class="cls-1" d="M0 313.39l563.01-147.06L0 141.74v171.65z"/></clipPath><clipPath id="clip-path-3"><path class="cls-1" d="M542.4 640.9l657.32 77.97V596.36L542.4 640.9z"/></clipPath><clipPath id="clip-path-4"><path class="cls-1" d="M1200 719.29L-.28 576.53v142.76H1200z"/></clipPath></defs><title>big-banner</title><path class="cls-2" d="M0 141.74l1200 52.41v524.72L0 576.53V141.74z"/><g class="cls-3"><path class="cls-4" d="M384 261.94l523.81-566.09 2.34 2-523.78 566.06zm9.48 7.94L917.29-296.2l-2.34-2-523.78 566.12zm7.14 6l523.82-566.1-2.35-2L398.3 273.91zm7.14 6l523.81-566.12-2.34-2-523.79 566.12zm7.14 6l523.81-566.14-2.34-2-523.79 566.13zm7.14 6l523.81-566.16-2.35-2-523.79 566.13zm7.14 6L953-266.3l-2.34-2-523.81 566.13zm7.14 6l523.81-566.2-2.35-2L434 303.81zm7.13 6l523.81-566.22-2.34-2-523.79 566.13zm7.14 6L974.4-248.36l-2.34-2-523.79 566.13zm7.13 6l523.82-566.26-2.34-2-523.79 566.13zm7.14 6L988.68-236.4l-2.34-2-523.79 566.13zm7.14 6l523.82-566.3-2.34-2-523.79 566.13zm7.13 6L1003-224.43l-2.35-2-523.82 566.12zm7.14 6l523.79-566.09-2.35-2L484 345.67zm7.14 6l523.78-566.09-2.34-2L491.1 351.66zm7.14 6l523.78-566.09-2.34-2-523.75 565.85zm7.14 6l523.78-566.09-2.34-2-523.75 565.83zm7.14 6l523.79-566.09-2.35-2L512.52 369.6zm7.14 6l523.79-566.09-2.34-2-523.76 565.79zm7.14 6l523.78-566.09-2.34-2L526.8 381.56zm7.14 6l523.79-566.09-2.34-2-523.76 565.75zm7.13 6l523.82-566.49-2.35-2-523.77 566.13zm7.14 6l523.79-566.09-2.34-2-523.76 565.72zm7.14 6l523.79-566.09-2.34-2-523.76 565.69zm7.14 6l523.79-566.09-2.35-2-523.75 565.68zm7.14 6l523.79-566.09-2.35-2-523.75 565.66zm7.14 6L1102.9-140.7l-2.35-2-523.78 566.13zm7.14 6L1110-134.72l-2.34-2-523.75 566.13zm7.14 6l523.79-566.09-2.34-2L591 435.39zm7.14 6l523.79-566.09-2.35-2-523.76 565.58zm7.14 6l523.79-566.09-2.35-2-523.76 565.56zm7.14 6l523.79-566.09-2.35-2-523.76 565.54zm7.14 6l523.79-566.09-2.34-2L619.6 459.32zm7.14 6l523.78-566.1-2.34-2-523.76 565.51zm7.14 6L1160-92.85l-2.35-2-523.77 566.12zm7.14 6l523.81-566.75-2.34-2L641 477.26zm7.14 6l523.8-566.77-2.34-2-523.79 566.13zm7.13 6l523.81-566.79-2.34-2-523.79 566.13zm7.14 6l523.81-566.81-2.34-2L662.43 495.2zm7.14 6L1195.7-62.95l-2.34-2-523.79 566.13zm7.14 6L1202.84-57l-2.34-2-523.79 566.16zm7.13 6L1210-51l-2.34-2-523.81 566.14zm7.14 6L1217.11-45l-2.34-2L691 519.12zm7.14 6L1224.25-39l-2.34-2-523.79 566.1zm7.14 6L1231.39-33l-2.39-2-523.74 566.09zm7.13 6l523.82-566.94-2.35-2L712.4 537.07zm7.14 6l523.82-566.96-2.34-2L719.54 543zm7.15 6L1252.8-15.1l-2.34-2L726.68 549zm7.14 6l523.8-567-2.34-2L733.82 555zm7.14 6L1267.09-3.14l-2.34-2L741 561zm7.14 6L1274.23 2.84l-2.35-2L748.09 567zm7.14 6L1281.37 8.83l-2.35-2L755.24 573zm7.14 6L1288.5 14.8l-2.34-2-523.79 566.13zm7.14 6l523.8-567.09-2.35-2-523.78 566.12zm7.15 6l523.8-567.1-2.34-2-523.78 566.13zm7.14 6l523.8-567.12-2.34-2L783.8 596.89zm7.14 6l523.8-567.14-2.34-2-523.79 566.13zm7.14 6l523.8-567.16-2.34-2-523.79 566.13zm7.14 6l523.8-567.18-2.35-2-523.78 566.13zm7.14 6l523.8-567.2-2.34-2-523.79 566.14zm7.14 6l523.8-567.21-2.35-2L819.5 626.8zm7.14 6l523.79-567.23-2.34-2-523.79 566.12zm7.14 6l523.8-567.25-2.35-2-523.79 566.12zm7.14 6L1367 80.61l-2.34-2-523.75 566.13zm7.14 6l523.79-567.29-2.34-2L848 650.72zm7.14 6l523.79-567.31-2.34-2L855.19 656.7zm7.14 6l523.78-566.1-2.34-2-523.79 564.9zm7.14 6l523.79-566.09-2.35-2-523.79 564.87zm7.14 6l523.79-566.09-2.34-2-523.79 564.85zm7.14 6l523.78-566.09-2.34-2-523.79 564.83zm7.14 6L1417 122.47l-2.34-2L890.88 686.6zm7.14 6l523.78-566.09-2.34-2L898 692.58zm7.13 6l523.79-566.09-2.34-2-523.79 564.77zm7.14 6l523.79-566.09-2.34-2L912.3 704.55zm7.14 6l523.78-567.48-2.34-2-523.79 566.13zm7.14 6l523.78-567.5-2.34-2-523.79 566.13zm7.14 6l523.79-566.09-2.34-2-523.8 564.7zm7.14 6L1467 164.34l-2.34-2-523.81 566.13zm7.14 6l523.79-566.09-2.35-2L948 734.45zm7.14 6l523.78-567.58-2.35-2-523.78 566.13zm7.14 6l523.78-567.6-2.34-2-523.79 566.14zm7.13 6l523.79-566.09-2.34-2L969.41 752.4zm7.14 6l523.79-566.09-2.34-2-523.79 564.59zm7.14 6l523.79-566.09-2.34-2-523.8 564.56zm7.14 6l523.79-566.09-2.34-2-523.8 564.55zm7.14 6l523.79-566.09-2.34-2L998 776.32zm7.14 6l523.79-566.09-2.34-2-523.8 564.51zm7.14 6l523.79-566.09-2.35-2-523.79 564.49zm7.13 6l523.78-567.75-2.34-2-523.79 566.13zm7.14 6l523.79-566.09-2.35-2-523.79 564.45zm7.14 6l523.78-566.09-2.34-2-523.79 564.43zm7.14 6l523.79-566.09-2.34-2-523.8 564.41zm7.14 6l523.79-566.09-2.34-2-523.79 564.4zm7.14 6L1581.2 260l-2.34-2-523.79 566.17zm7.14 6L1588.33 266l-2.34-2-523.79 566.15zm7.14 6L1595.47 272l-2.34-2-523.78 566.1zm7.14 6L1602.61 278l-2.34-2-523.79 566.11zm7.14 6L1609.75 284l-2.34-2-523.79 566.09zm7.14 6l523.78-566.09-2.34-2-523.8 564.28zm7.13 6L1624 295.92l-2.35-2-523.75 566.13zm7.14 6l523.78-567.98-2.35-2L1105 866zm7.14 6l523.79-566.09-2.34-2L1112.18 872zm7.14 6l523.78-566.1-2.34-2L1119.32 878zm7.14 6l523.79-566.09-2.35-2L1126.45 884zm7.14 6l523.79-566.09-2.35-2L1133.6 890zm7.14 6l523.79-566.09-2.34-2-523.81 564.15zm7.14 6L1674 337.79l-2.34-2-523.79 566.13zm7.14 6l523.78-566.09-2.34-2L1155 907.9z"/></g><g class="cls-5"><path class="cls-6" d="M-297.88 358.83l523.12-568.35 2.34 2-523.12 568.32zm9.47 8L234.7-201.54l-2.34-2-523.11 568.37zm7.13 6l523.12-568.37-2.35-2-523.11 568.38zm7.13 6L249-189.54l-2.34-2-523.15 568.38zm7.13 6l523.11-568.36-2.34-2-523.11 568.38zm7.13 6l523.11-568.36-2.34-2-523.12 568.38zm7.13 6l523.11-568.35-2.34-2-523.12 568.37zm7.13 6l523.11-568.34-2.34-2L-248 400.86zm7.12 6l523.12-568.34-2.34-2-523.12 568.38zm7.13 6l523.12-568.34-2.33-2-523.12 568.38zm7.13 6L298.87-147.5l-2.34-2-523.11 568.38zm7.13 6L306-141.5l-2.34-2-523.12 568.38zm7.13 6l523.12-568.32-2.34-2-523.12 568.37zm7.13 6l523.12-568.32-2.35-2-523.11 568.38zm7.13 6l523.12-568.31-2.34-2-523.12 568.37zm7.13 6l523.12-568.31-2.34-2-523.12 568.38zm7.13 6l523.11-568.31-2.34-2-523.11 568.38zm7.13 6l523.11-568.3-2.34-2-523.11 568.38zm7.13 6L355.91-99.46l-2.34-2-523.12 568.38zm7.13 6L363-93.46l-2.34-2-523.08 568.38zm7.13 6L370.16-87.46l-2.33-2-523.12 568.38zm7.13 6L377.29-81.45l-2.34-2-523.11 568.38zm7.13 6L384.42-75.45l-2.34-2L-141 490.93zm7.13 6L391.55-69.44l-2.34-2-523.11 568.38zm7.13 6L398.68-63.44l-2.34-2-523.11 568.38zm7.13 6L405.81-57.43l-2.34-2-523.11 568.38zm7.13 6L412.94-51.43l-2.34-2L-112.51 515zm7.13 6L420.07-45.42l-2.34-2L-105.38 521zm7.13 6L427.2-39.42l-2.34-2L-98.25 527zm7.13 6L434.33-33.42l-2.34-2L-91.12 533zm7.13 6L441.46-27.4l-2.35-2L-84 539zm7.13 6L448.59-21.4l-2.35-2L-76.87 545zm7.13 6L455.72-15.4l-2.34-2L-69.74 551zm7.13 6L462.85-9.39l-2.34-2L-62.61 557zm7.13 6L470-3.39l-2.33-2L-55.48 563zm7.13 6L477.1 2.61l-2.34-2L-48.35 569zm7.13 6L484.24 8.62l-2.34-2L-41.22 575zm7.14 6l523.1-568.2-2.34-2L-34.09 581zm7.13 6l523.09-568.2-2.34-2L-27 587zm7.13 6l523.1-568.19-2.34-2L-19.83 593zm7.13 6L512.75 32.64l-2.34-2L-12.7 599zm7.13 6L519.88 38.65l-2.34-2L-5.57 605zm7.12 6L527 44.65l-2.34-2L1.56 611zM11 619L534.14 50.66l-2.34-2L8.69 617zm7.13 6L541.27 56.66l-2.34-2L15.81 623zm7.13 6L548.4 62.67l-2.34-2L22.95 629zm7.13 6L555.53 68.67l-2.34-2L30.07 635zm7.13 6L562.66 74.67l-2.34-2L37.2 641zm7.14 6L569.79 80.68l-2.34-2L44.34 647.06zm7.13 6L576.92 86.68l-2.34-2L51.46 653.06zm7.13 6L584 92.69l-2.34-2L58.6 659.07zm7.13 6L591.18 98.69l-2.34-2L65.72 665.07zm7.13 6l523.13-568.3-2.34-2L72.86 671.08zm7.13 6l523.12-568.3-2.33-2L80 677.08zm7.13 6l523.13-568.29-2.34-2L87.11 683.08zm7.14 6l523.13-568.27-2.34-2L94.26 689.1zm7.13 6l523.13-568.27-2.34-2-523.11 568.38zm7.13 6L634 134.74l-2.34-2-523.15 568.37zm7.13 6L641.1 140.74l-2.34-2-523.12 568.37zm7.13 6l523.13-568.25-2.34-2-523.11 568.37zm7.13 6l523.13-568.25-2.34-2L129.9 719.13zm7.13 6l523.13-568.24-2.34-2L137 725.13zm7.14 6l523.12-568.24-2.34-2-523.12 568.38zm7.13 6l523.12-568.24-2.34-2-523.12 568.38zm7.13 6l523.12-568.23-2.34-2-523.12 568.38zm7.13 6L691 182.77l-2.34-2-523.11 568.38zm7.13 6l523.12-568.22-2.34-2-523.12 568.38zm7.13 6l523.11-568.22-2.34-2L179.8 761.16zm7.13 6l523.11-568.21-2.34-2-523.12 568.37zm7.13 6l523.11-568.21-2.34-2-523.11 568.38zm7.13 6l523.11-568.2-2.34-2L201.2 779.17zm7.13 6l523.11-568.2-2.34-2-523.11 568.38zm7.13 6l523.11-568.19-2.34-2-523.12 568.37zm7.12 6L748 230.81l-2.34-2-523.08 568.38zm7.13 6l523.12-568.18-2.34-2-523.11 568.37zm7.13 6L762.3 242.82l-2.34-2L236.84 809.2zm7.13 6l523.11-568.18-2.34-2L244 815.2zm7.13 6l523.12-568.17-2.34-2L251.1 821.2zm7.13 6l523.12-568.17-2.34-2-523.12 568.38zm7.13 6l523.12-568.16-2.34-2-523.12 568.38zm7.13 6l523.12-568.16-2.34-2-523.12 568.38zm7.13 6l523.12-568.15-2.34-2-523.12 568.38zm7.12 6l523.13-568.14-2.34-2-523.12 568.37zm7.13 6l523.12-568.14-2.34-2-523.11 568.38zm7.13 6l523.12-568.14-2.34-2L301 863.24zm7.13 6l523.12-568.13-2.34-2-523.11 568.38zm7.13 6l523.12-568.13-2.34-2-523.11 568.38zm7.13 6l523.12-568.12-2.34-2L322.4 881.25zm7.13 6L855 320.88l-2.34-2-523.13 568.38zm7.13 6l523.12-568.11-2.34-2-523.11 568.37zm7.13 6l523.12-568.11-2.34-2-523.11 568.38zm7.13 6l523.12-568.1-2.34-2-523.12 568.37zm7.13 6L883.5 344.9l-2.34-2L358 911.28zm7.13 6l523.12-568.09-2.34-2-523.11 568.38zm7.13 6l523.12-568.09-2.34-2L372.3 923.29zm7.13 6l523.12-568.08-2.34-2-523.12 568.37zm7.13 6L912 368.92l-2.34-2L386.57 935.3zm7.13 6l523.12-568.07-2.34-2L393.69 941.3zm7.13 6l523.12-568.07-2.34-2-523.12 568.38zm7.13 6L933.4 386.94l-2.34-2L408 953.31zm7.12 6l523.13-568.06-2.34-2-523.12 568.38zm7.13 6l523.13-568.05-2.34-2-523.12 568.37zm7.13 6L954.8 405l-2.34-2-523.12 568.33zm7.13 6l523.12-568-2.34-2-523.11 568.33zm7.13 6l523.13-568-2.34-2-523.13 568.34zm7.13 6l523.13-568-2.34-2-523.12 568.34zm7.13 6l523.12-568-2.31-2-523.14 568.35zm7.13 6l523.13-568-2.34-2L465 1001.35zm7.13 6l523.12-568-2.34-2-523.11 568.35z"/></g><g class="cls-7"><path class="cls-4" d="M128.49 741.64l582.75-600.81 2.49 2.19L131 743.83zm10.08 8.86l582.76-600.81-2.49-2.19-582.76 600.82zm7.59 6.67l582.76-600.81-2.5-2.19L143.67 755zm7.59 6.67L736.51 163l-2.51-2.16-582.74 600.82zm7.59 6.67L744.11 169.7l-2.49-2.19-582.76 600.82zm7.59 6.67l582.77-600.8-2.49-2.19L166.44 775zm7.59 6.67L759.29 183l-2.5-2.19L174 781.67zm7.6 6.67l582.76-600.8-2.5-2.19-582.75 600.82zm7.59 6.67l582.77-600.8-2.48-2.19L189.22 795zm7.6 6.68l582.76-600.81-2.49-2.19-582.76 600.82zm7.59 6.67l582.76-600.81-2.49-2.19-582.76 600.82zm7.59 6.67L797.25 216.4l-2.49-2.19L212 815zm7.59 6.67l582.76-600.8-2.49-2.19L219.6 821.7zm7.59 6.67l582.77-600.8-2.5-2.19-582.75 600.81zm7.59 6.67L820 236.42l-2.5-2.19L234.77 835zm7.6 6.67l582.76-600.8-2.49-2.19-582.76 600.82zm7.59 6.67l582.76-600.8-2.49-2.19L250 848.39zm7.59 6.67l582.76-600.8-2.49-2.19-582.75 600.82zm7.59 6.67L850.4 263.11l-2.5-2.19-582.75 600.81zm7.59 6.67L858 269.78l-2.49-2.19L272.74 868.4zm7.59 6.67l582.77-600.79-2.49-2.19-582.76 600.81zm7.59 6.67l582.77-600.79-2.49-2.19-582.75 600.82zm7.6 6.69l582.77-600.81-2.49-2.19-582.76 600.82zm7.6 6.67l582.76-600.81-2.49-2.19-582.76 600.82zm7.59 6.67L896 303.13l-2.49-2.19L310.7 901.76zm7.59 6.67l582.77-600.8-2.5-2.19L318.3 908.43zm7.59 6.67l582.77-600.8-2.49-2.19L325.89 915.1zM336 924l582.73-600.85-2.5-2.19-582.75 600.81zm7.6 6.67l582.72-600.85-2.49-2.19-582.75 600.82zm7.59 6.67l582.73-600.85-2.49-2.19-582.76 600.82zm7.59 6.67l582.73-600.84L939 341 356.25 941.79zm7.59 6.67L949.1 349.84l-2.5-2.2-582.75 600.82zm7.59 6.67l582.73-600.84-2.49-2.19-582.75 600.81zm7.59 6.67l582.74-600.84-2.5-2.18L379 961.8zm7.59 6.67l582.73-600.84-2.48-2.19-582.76 600.81zm7.59 6.67l582.74-600.84-2.5-2.19-582.75 600.81zm7.57 6.64l582.76-600.81-2.49-2.19-582.76 600.82zm7.6 6.68l582.76-600.81-2.49-2.19L409.4 988.49zm7.59 6.67l582.76-600.82-2.49-2.19L417 995.16zm7.59 6.67l582.76-600.81-2.49-2.19-582.76 600.82zm7.6 6.67l582.76-600.82-2.49-2.19-582.77 600.83zm7.59 6.67L1025 416.55l-2.49-2.19-582.73 600.82zm7.58 6.67l582.76-600.81-2.49-2.19-582.75 600.82zm7.59 6.67l582.77-600.8-2.49-2.19L455 1028.52zm7.6 6.67l582.76-600.81-2.49-2.19-582.76 600.82zm7.59 6.67l582.77-600.8-2.5-2.2-582.76 600.82zm7.59 6.67L1063 449.91l-2.49-2.19-582.77 600.82zm7.59 6.67l582.76-600.81-2.49-2.19-582.75 600.83zm7.6 6.68l582.75-600.82-2.49-2.19-582.75 600.83zm7.59 6.67l582.76-600.81-2.49-2.19-582.76 600.82zm7.59 6.67l582.77-600.8-2.49-2.19-582.76 600.81zm7.59 6.67L1101 483.27l-2.5-2.19-582.8 600.81zm7.59 6.67l582.76-600.81-2.49-2.19-582.74 600.83zm7.6 6.67l582.75-600.82-.47-2.81-582.75 600.84zm7.59 6.67l582.76-600.82-2.5-2.19-582.74 600.84zm7.6 6.68L1131.34 510l-2.49-2.19-582.76 600.78zm7.59 6.67l582.76-600.81-2.49-2.19-582.74 600.84zm7.59 6.67l582.76-600.82-2.49-2.19-582.74 600.85zm7.59 6.67L1154.11 530l-2.49-2.19-582.76 600.8zm7.59 6.67l582.76-600.82-2.5-2.19-582.72 600.85zm7.59 6.67l582.79-600.78-2.49-2.19L584 1142zm7.59 6.67L1176.89 550l-2.5-2.19-582.75 600.81zm7.6 6.67l582.76-600.81-2.49-2.19-582.74 600.84zm7.59 6.67l582.76-600.81-2.5-2.19L606.82 1162zm7.59 6.67L1199.67 570l-2.49-2.19-582.76 600.83zm7.59 6.67l582.76-600.82-2.49-2.19L622 1175.31zm7.59 6.67l582.76-600.81-2.49-2.19L629.6 1182zm7.59 6.67L1222.44 590l-2.49-2.19-582.76 600.84zm7.59 6.67L1230 596.7l-2.5-2.19-582.72 600.81zm7.59 6.67l582.76-600.81-2.49-2.19L652.38 1202zm7.6 6.67L1245.22 610l-2.49-2.19L660 1208.66zm7.59 6.67l582.76-600.81-2.49-2.19-582.72 600.86zm7.59 6.67l582.79-600.77-2.49-2.19L675.15 1222zm7.59 6.67L1268 630.06l-2.49-2.19-582.76 600.81zm7.6 6.67l582.76-600.82-2.49-2.19-582.73 600.87zm7.59 6.67l582.79-600.76-2.49-2.19L697.93 1242zm7.59 6.67l582.76-600.82-2.49-2.19-582.73 600.87zm7.59 6.67l582.76-600.82-2.49-2.19-582.72 600.88zm7.59 6.67L1306 663.41l-2.49-2.19L720.71 1262zm7.59 6.67l582.76-600.81-2.5-2.19-582.71 600.87zm7.59 6.67l582.76-600.82-2.5-2.19-582.7 600.88zm7.6 6.67l582.76-600.82-2.49-2.19-582.72 600.89zm7.59 6.67l582.8-600.75-2.49-2.19-582.76 600.82zm7.59 6.67l582.76-600.81-2.49-2.19-582.72 600.88zm7.59 6.67l582.76-600.82-2.49-2.19-582.72 600.89zm7.59 6.67l582.76-600.82-2.49-2.19-582.71 600.89zm7.59 6.67l582.81-600.74-2.49-2.19-582.76 600.81zm7.6 6.68l582.76-600.82-2.49-2.19L789 1322.08zm7.59 6.67l582.76-600.82-2.5-2.19-582.71 600.88zm7.59 6.67l582.81-600.75-2.49-2.19-582.76 600.81zm7.6 6.67l582.76-600.82-2.5-2.19-582.71 600.89zm7.59 6.67l582.76-600.82-2.49-2.19-582.72 600.89zm7.59 6.67l582.76-600.82-2.49-2.19L827 1355.44zm7.59 6.67l582.76-600.81-2.49-2.19-582.71 600.89zm7.59 6.67l582.76-600.82-2.49-2.19-582.71 600.9zm7.59 6.67L1435 776.83l-2.49-2.19-582.73 600.82zm7.59 6.67l582.81-600.74-2.49-2.19-582.75 600.82zm7.6 6.67l582.75-600.82-2.49-2.19L865 1388.8zm7.59 6.67l582.76-600.82-2.49-2.19-582.71 600.9zm7.6 6.67l582.8-600.73-2.49-2.19-582.76 600.81zm7.59 6.67L1473 810.19l-2.5-2.19-582.75 600.82zm7.6 6.67l582.76-600.81-2.5-2.19-582.71 600.9zm7.59 6.68l582.76-600.82-2.49-2.19-582.72 600.9zM913 1431l582.77-600.8-2.49-2.19-582.76 600.82zm7.59 6.67l582.76-600.82-2.5-2.19-582.74 600.84zm7.59 6.67L1511 843.55l-2.5-2.19-582.79 600.81zm7.59 6.67l582.76-600.81-2.49-2.19-582.74 600.84zm7.59 6.67l582.76-600.81-2.49-2.19-582.74 600.84zm7.6 6.67l582.75-600.82-2.49-2.19-582.73 600.84z"/></g><g class="cls-8"><path class="cls-9" d="M-182.26 642.32L386.19 58.46l2.54 2-568.45 583.89zm10.29 8.19L396.48 66.65l-2.54-2-568.45 583.84zm7.75 6.17L404.23 72.82l-2.55-2-568.45 583.84zm7.75 6.17L412 79l-2.54-2L-159 660.83zm7.75 6.17L419.72 85.15l-2.54-2L-151.27 667zm7.75 6.17L427.47 91.32l-2.55-2-568.45 583.85zm7.75 6.17L435.22 97.49l-2.54-2-568.46 583.84zm7.75 6.17L443 103.66l-2.55-2L-128 685.51zm7.74 6.17l568.44-583.87-2.54-2-568.46 583.84zm7.75 6.17L458.46 116l-2.54-2-568.46 583.84zm7.74 6.17l568.45-583.87-2.54-2L-104.79 704zm7.75 6.17L474 128.33l-2.54-2L-97 710.18zm7.75 6.17L481.7 134.5l-2.54-2-568.45 583.85zm7.74 6.17l568.45-583.88-2.55-2-568.45 583.84zm7.75 6.17L497.2 146.84l-2.55-2-568.46 583.84zm7.75 6.17L504.94 153l-2.54-2-568.45 583.85zm7.75 6.17l568.44-583.88-2.54-2L-58.31 741zm7.75 6.17l568.43-583.88-2.54-2-568.45 583.84zm7.75 6.17l568.44-583.88-2.55-2-568.45 583.84zm7.75 6.17l568.43-583.88-2.54-2-568.46 583.84zm7.75 6.17l568.43-583.89-2.54-2L-27.32 765.7zm7.75 6.17L551.43 190l-2.54-2-568.46 583.87zm7.74 6.17l568.43-583.89-2.54-2L-11.82 778zm7.75 6.17l568.43-583.89-2.54-2L-4.08 784.21zm7.75 6.17l568.43-583.89-2.54-2L3.67 790.37zm7.76 6.15L582.42 214.7l-2.55-2L11.42 796.54zm7.75 6.17l568.42-583.87-2.54-2L19.17 802.71zm7.75 6.17L597.91 227l-2.55-2L26.92 808.88zm7.75 6.17l568.41-583.87-2.54-2L34.66 815.05zm7.75 6.16l568.41-583.87-2.54-2L42.41 821.21zm7.75 6.17l568.41-583.86-2.55-2L50.16 827.39zm7.75 6.17l568.4-583.87-2.55-2L57.9 833.55zm7.74 6.17l568.41-583.87-2.55-2L65.65 839.72zm7.75 6.17L644.4 264l-2.54-2L73.4 845.89zm7.75 6.17l568.4-583.88-2.54-2L81.14 852.06zm7.75 6.17l568.4-583.88-2.55-2L88.9 858.23zm7.75 6.17l568.4-583.87-2.54-2L96.64 864.4zm7.75 6.17l568.4-583.87-2.54-2-568.46 583.84zm7.74 6.17l568.4-583.88-2.54-2-568.45 583.85zm7.74 6.17l568.41-583.88-2.54-2-568.46 583.85zm7.75 6.17l568.41-583.88-2.54-2-568.46 583.84zm7.75 6.17L706.38 313.4l-2.54-2-568.46 583.84zm7.74 6.17l568.41-583.88-2.54-2-568.45 583.84zm7.75 6.17l568.41-583.88-2.54-2-568.46 583.84zm7.75 6.17l568.4-583.89-2.54-2-568.45 583.85zm7.75 6.17l568.41-583.88-2.55-2-568.45 583.84zm7.74 6.17l568.41-583.89-2.55-2-568.45 583.85zm7.74 6.17l568.42-583.89-2.54-2-568.46 583.84zm7.75 6.17L760.6 356.58l-2.54-2-568.45 583.84zm7.75 6.17l568.41-583.89-2.54-2-568.45 583.84zm7.75 6.17L776.1 368.92l-2.54-2-568.45 583.84zm7.71 6.19l568.45-583.91-2.55-2-568.45 583.84zm7.75 6.17L791.6 381.26l-2.55-2L220.6 963.1zm7.75 6.17l568.44-583.92-2.54-2-568.45 583.85zm7.75 6.17l568.44-583.92-2.55-2-568.45 583.85zm7.76 6.18l568.45-583.92-2.54-2-568.46 583.85zm7.75 6.17L822.6 405.94l-2.54-2-568.45 583.85zm7.74 6.14l568.45-583.89-2.54-2L259.35 994zm7.75 6.17L838.1 418.28l-2.54-2-568.46 583.84zm7.75 6.17l568.45-583.89-2.55-2-568.45 583.84zm7.74 6.17l568.45-583.89-2.54-2-568.45 583.84zm7.74 6.17l568.46-583.89-2.55-2-568.45 583.84zm7.75 6.17L869.09 443l-2.54-2-568.46 583.8zm7.75 6.17l568.46-583.89-2.55-2L305.84 1031zm7.75 6.17l568.45-583.9-2.54-2-568.46 583.85zm7.75 6.17l568.45-583.9-2.54-2-568.46 583.84zm7.75 6.17l568.45-583.9-2.54-2-568.46 583.84zm7.75 6.17l568.44-583.91-2.54-2-568.46 583.85zm7.75 6.17L915.57 480l-2.55-2-568.45 583.81zm7.75 6.17l568.44-583.9-2.54-2L352.32 1068zm7.75 6.17L931.06 492.3l-2.54-2-568.45 583.85zm7.75 6.17l568.43-583.91-2.54-2-568.45 583.85zm7.75 6.17l568.43-583.91-2.54-2-568.46 583.84zm7.74 6.16l568.44-583.9-2.54-2-568.46 583.84zm7.75 6.17L962.05 517l-2.54-2-568.45 583.82zm7.75 6.17l568.43-583.9-2.54-2L398.8 1105zm7.75 6.17l568.42-583.9-2.54-2-568.45 583.84zm7.75 6.17l568.43-583.9-2.54-2-568.46 583.84zm7.75 6.17L993 541.65l-2.54-2L422 1123.5zm7.75 6.17l568.46-583.86-2.55-2-568.49 583.8zm7.75 6.17L1008.54 554l-2.55-2-568.45 583.84zm7.75 6.17l568.45-583.87-2.54-2L445.29 1142zm7.74 6.17L1024 566.33l-2.54-2L453 1148.18zm7.75 6.17l568.42-583.91-2.54-2-568.45 583.84zm7.75 6.17l568.45-583.87-2.54-2-568.49 583.8zm7.75 6.17l568.45-583.87-2.54-2-568.49 583.8zm7.75 6.17L1055 591l-2.54-2L484 1172.85zm7.75 6.17l568.45-583.87-2.54-2L491.77 1179zm7.75 6.17l568.45-583.87-2.55-2-568.49 583.79zm7.74 6.17l568.46-583.87-2.54-2-568.5 583.79zm7.75 6.17L1086 615.68l-2.55-2L515 1197.52zm7.75 6.17L1093.8 621.9l-2.54-2-568.5 583.79zm7.74 6.17L1101.51 628l-2.54-2-568.46 583.86zm7.75 6.17l568.46-583.87-2.54-2L538.26 1216zm7.75 6.17L1117 640.36l-2.54-2L546 1222.2zm7.75 6.17l568.45-583.87-2.54-2-568.5 583.79zm7.75 6.17l568.41-583.93-2.54-2-568.46 583.85zm7.75 6.17l568.45-583.87-2.54-2-568.5 583.79zm7.75 6.17L1148 665l-2.54-2L577 1246.88zm7.75 6.17l568.4-583.93-2.54-2L584.74 1253zm7.74 6.17l568.46-583.87-2.55-2-568.5 583.78zm7.75 6.17l568.45-583.87-2.55-2-568.49 583.78zm7.75 6.17L1179 689.71l-2.54-2L608 1271.55zm7.75 6.17l568.45-583.87-2.54-2-568.51 583.78zm7.74 6.17L1194.48 702l-2.55-2-568.45 583.89zm7.75 6.17l568.46-583.87-2.55-2-568.5 583.78zm7.75 6.17L1210 714.38l-2.54-2L639 1296.23zm7.75 6.17l568.46-583.87-2.54-2-568.52 583.77zm7.75 6.17l568.45-583.87-2.54-2-568.51 583.77z"/></g><path class="cls-9" d="M-.28 576.53L542.4 640.9-.28 677.65V576.53z"/></svg>