<svg id="дизайн-макет_копия_" data-name="дизайн-макет (копия)" xmlns="http://www.w3.org/2000/svg" viewBox="0 0 1200 177"><defs><style>.cls-1{fill:#fff}.cls-16,.cls-2,.cls-3{fill:#e85016}.cls-13,.cls-14,.cls-16,.cls-3{isolation:isolate}.cls-3{font-size:24.8px;font-family:MyriadPro-Regular,Myriad Pro}.cls-14,.cls-16,.cls-4,.cls-7{font-family:GillSans,GillSans}.cls-5{letter-spacing:-.04em}.cls-6,.cls-7{letter-spacing:0}.cls-8{letter-spacing:-.08em}.cls-10,.cls-11,.cls-9{letter-spacing:0}.cls-12{letter-spacing:-.01em}.cls-14,.cls-16{font-size:45.98px}.cls-14{fill:#0980c4}.cls-15{letter-spacing:-.04em}.cls-17{letter-spacing:-.08em}.cls-18{letter-spacing:-.11em}.cls-19{fill:#f08507}.cls-20{fill:#00ade9}.cls-21{fill:#188fcf}.cls-22{fill:#38bcee}</style></defs><title>big-banner-text</title><path class="cls-1" d="M0 0h1200v177H0z"/><path class="cls-2" d="M301 20h2v136h-2z"/><text class="cls-3" transform="translate(327.12 148.16)">ХХ<tspan class="cls-4" x="28.32" y="0">II </tspan><tspan x="47.61" y="0">ЧЕМПИОН</tspan><tspan class="cls-5" x="159.98" y="0">А</tspan><tspan class="cls-6" x="174.06" y="0">Т</tspan><tspan class="cls-7" x="186.39" y="0"> </tspan><tspan x="193.28" y="0">МИ</tspan><tspan class="cls-8" x="229.54" y="0">Р</tspan><tspan x="240.65" y="0">А</tspan><tspan class="cls-4" x="255.83" y="0"> </tspan><tspan class="cls-6" x="262.72" y="0">ПО</tspan><tspan class="cls-4" x="295.65" y="0"> </tspan><tspan class="cls-9" x="302.55" y="0">ЛЫЖН</tspan><tspan class="cls-10" x="371.81" y="0">О</tspan><tspan class="cls-11" x="388.82" y="0">М</tspan><tspan x="408.66" y="0">У</tspan><tspan class="cls-4" x="421.58" y="0"> </tspan><tspan x="428.48" y="0">ОРИЕНТИ</tspan><tspan class="cls-12" x="532.09" y="0">Р</tspan><tspan x="545.08" y="0">ОВАНИЮ</tspan></text><g class="cls-13"><text class="cls-14" transform="translate(325.07 58.28)"><tspan class="cls-15">W</tspan><tspan x="46.07" y="0">ORLD SKI ORIENTEERING</tspan></text><text class="cls-14" transform="translate(325.07 110.08)">CHAMPIONSHIPS</text><text class="cls-16" transform="translate(689.77 110.08)">KRASN<tspan class="cls-17" x="145.56" y="0">O</tspan><tspan class="cls-18" x="179.73" y="0">Y</tspan><tspan x="202.44" y="0">ARSK 2017</tspan></text></g><path class="cls-2" d="M521.8 32.6L505 22.9v38.6l16.8-9.6 16.7-9.6zM509 55.7V28.8l23.2 13.4zM173.7 74.6l-24.6 17 4.6 14.6 33.3-2.8.4-.5-13.7-28.3z"/><path class="cls-19" d="M166.3 59.3l-22.7 14.4 3.6 11.7L170.9 69l-4.6-9.7zM161 130.6l19.3-20.1-24.8 2 5.5 18.1z"/><path class="cls-20" d="M192 98.1l10.9-11.3-13.1-23.3-10.9 7.5L192 98.1z"/><path class="cls-2" d="M217.2 63.8l-21.6-3.1 9.1 16.4 12.5-13.3z"/><path class="cls-20" d="M163.5 53.9l-20.8-3.6 4.4 14 16.4-10.4zM199.4 100.1l-19.8 20.6L208 118l-8.6-17.9z"/><path class="cls-19" d="M133.4 61.8l-18.6 8.9 7.2 9.6 14.2-8.8-2.8-9.7z"/><path class="cls-21" d="M176.1 65.3l10.3-7-4.9-8.7-9.9 6.3 4.5 9.4zM158.3 143.9l4.1 14.6-15.3-2.5 11.2-12.1z"/><path class="cls-20" d="M185.6 33.5l-7.4-13 21 4.3-13.6 8.7z"/><path class="cls-2" d="M103.3 110.5l19.5-1.6-11.9 14.2-7.6-12.6z"/><path class="cls-21" d="M121.2 22.9l4.6 12-14.7-2 10.1-10zM126 85.1l12.1-7.7 3.7 11.8-8.2 5.6-7.6-9.7zM137.4 99.7l12.6 15.5-6.3-19.8-6.3 4.3zM258 55.4L251.5 45l-10.2 9.5 16.7.9z"/><path class="cls-20" d="M234.2 131.5l7.1 10.5 8.4-10.7-15.5.2z"/><path class="cls-22" d="M97.5 36.6v-.3a1 1 0 0 1 .4-.5l160.2 24.8.2.5.2.5z"/><path class="cls-22" d="M98 35.8c-.2.2-.3.5-.5.7l160.8 25a2.35 2.35 0 0 1-.2-.8zM88.4 133.9l164.9-8.5a1.22 1.22 0 0 1-.3.9l-164.1 8.4z"/><path class="cls-22" d="M88.9 134.6l164-8.3a5.94 5.94 0 0 0 .4-.8l-164.8 8.3zM81.2 112.8l148.3-94.6a1.28 1.28 0 0 1 .6.4l.2.1-148.8 95z"/><path class="cls-22" d="M229.5 18.3L81.2 112.8l.2.7L230 18.8zM127.4 164.6L247.6 39.7l.7.5-120.2 125-.7-.6z"/><path class="cls-22" d="M127.5 164.5l.5.6L248.2 40.3l-.6-.5-120.1 124.7z"/><path class="cls-22" d="M123.5 11.6l.4-.3.3-.2 51 165.2a1.49 1.49 0 0 1-.6.1h-.4z"/><path class="cls-22" d="M123.7 11.5l50.7 164.8h.8L124.3 11.1a2.09 2.09 0 0 1-.6.4zM153.4-.4a1.61 1.61 0 0 1 .9-.3l83.4 148.8-.2.3-.4.4-.1.1z"/><path class="cls-22" d="M153.5-.4L237 148.8c.2-.2.3-.4.5-.6L154.3-.6c-.3.1-.6.1-.8.2z"/></svg>