<svg id="Layer_1" data-name="Layer 1" xmlns="http://www.w3.org/2000/svg" viewBox="0 0 1200 719.29"><defs><style>.cls-1{fill:none}.cls-2{fill:#0e7dc2}.cls-3{clip-path:url(#clip-path)}.cls-4{fill:#6ec4e9}.cls-5{clip-path:url(#clip-path-2)}.cls-6{fill:#fff}.cls-7{clip-path:url(#clip-path-3)}.cls-8{clip-path:url(#clip-path-4)}.cls-9{fill:#e6007c}.cls-10,.cls-12,.cls-13,.cls-14,.cls-15,.cls-16,.cls-20,.cls-21,.cls-22{fill:#ff4f05}.cls-11,.cls-12,.cls-13,.cls-14,.cls-15,.cls-16,.cls-18,.cls-19,.cls-20,.cls-21,.cls-22{isolation:isolate}.cls-12,.cls-13,.cls-14,.cls-15,.cls-16{font-size:24.8px}.cls-12,.cls-14,.cls-15,.cls-16{font-family:ArialMT,Arial}.cls-13,.cls-18,.cls-19,.cls-20,.cls-21,.cls-22{font-family:GillSans,GillSans}.cls-14{letter-spacing:-.04em}.cls-15{letter-spacing:-.08em}.cls-16{letter-spacing:-.01em}.cls-17{letter-spacing:-.03em}.cls-18,.cls-19,.cls-20,.cls-21,.cls-22{font-size:45.98px}.cls-18,.cls-19{fill:#0080c7}.cls-18{letter-spacing:-.04em}.cls-21{letter-spacing:-.08em}.cls-22{letter-spacing:-.11em}.cls-23{fill:#ff8500}.cls-24{fill:#00aeeb}.cls-25{fill:#008fd1}.cls-26{fill:#00bcef}.cls-27{fill:#e85016}.cls-28{fill:#0980c4}.cls-29{fill:#f08507}.cls-30{fill:#00ade9}.cls-31{fill:#188fcf}.cls-32{fill:#38bcee}</style><clipPath id="clip-path"><path class="cls-1" d="M563.01 166.33L1200 194.15V0L563.01 166.33z"/></clipPath><clipPath id="clip-path-2"><path class="cls-1" d="M0 313.39l563.01-147.06L0 141.74v171.65z"/></clipPath><clipPath id="clip-path-3"><path class="cls-1" d="M542.4 640.9l657.32 77.97V596.36L542.4 640.9z"/></clipPath><clipPath id="clip-path-4"><path class="cls-1" d="M1200 719.29L-.28 576.53v142.76H1200z"/></clipPath></defs><title>big-banner-new1</title><path class="cls-2" d="M0 141.74l1200 52.41v524.72L0 576.53V141.74z"/><g class="cls-3"><path class="cls-4" d="M384 261.94l523.81-566.09 2.34 2-523.78 566.06zm9.48 7.94L917.29-296.2l-2.34-2-523.78 566.12zm7.14 6l523.82-566.1-2.35-2L398.3 273.91zm7.14 6l523.81-566.12-2.34-2-523.79 566.12zm7.14 6l523.81-566.14-2.34-2-523.79 566.13zm7.14 6l523.81-566.16-2.35-2-523.79 566.13zm7.14 6L953-266.3l-2.34-2-523.81 566.13zm7.14 6l523.81-566.2-2.35-2L434 303.81zm7.13 6l523.81-566.22-2.34-2-523.79 566.13zm7.14 6L974.4-248.36l-2.34-2-523.79 566.13zm7.13 6l523.82-566.26-2.34-2-523.79 566.13zm7.14 6L988.68-236.4l-2.34-2-523.79 566.13zm7.14 6l523.82-566.3-2.34-2-523.79 566.13zm7.13 6L1003-224.43l-2.35-2-523.82 566.12zm7.14 6l523.79-566.09-2.35-2L484 345.67zm7.14 6l523.78-566.09-2.34-2L491.1 351.66zm7.14 6l523.78-566.09-2.34-2-523.75 565.85zm7.14 6l523.78-566.09-2.34-2-523.75 565.83zm7.14 6l523.79-566.09-2.35-2L512.52 369.6zm7.14 6l523.79-566.09-2.34-2-523.76 565.79zm7.14 6l523.78-566.09-2.34-2L526.8 381.56zm7.14 6L1060-176.21l-2.34-2-523.72 565.75zm7.13 6l523.82-566.49-2.35-2-523.77 566.13zm7.14 6l523.79-566.09-2.34-2-523.76 565.72zm7.14 6l523.79-566.09-2.34-2-523.76 565.69zm7.14 6l523.79-566.09-2.35-2-523.75 565.68zm7.14 6l523.79-566.09-2.35-2-523.75 565.66zm7.14 6L1102.9-140.7l-2.35-2-523.78 566.13zm7.14 6L1110-134.72l-2.34-2-523.75 566.13zm7.14 6l523.79-566.09-2.34-2L591 435.39zm7.14 6l523.79-566.09-2.35-2-523.76 565.58zm7.14 6l523.79-566.09-2.35-2-523.76 565.56zm7.14 6l523.79-566.09-2.35-2-523.76 565.54zm7.14 6l523.79-566.09-2.34-2L619.6 459.32zm7.14 6l523.78-566.1-2.34-2-523.76 565.51zm7.14 6L1160-92.85l-2.35-2-523.77 566.12zm7.14 6l523.81-566.75-2.34-2L641 477.26zm7.14 6l523.8-566.77-2.34-2-523.79 566.13zm7.13 6l523.81-566.79-2.34-2-523.79 566.13zm7.14 6l523.81-566.81-2.34-2L662.43 495.2zm7.14 6L1195.7-63l-2.34-2-523.79 566.18zm7.14 6L1202.84-57l-2.34-2-523.79 566.16zm7.13 6L1210-51l-2.34-2-523.81 566.14zm7.14 6L1217.11-45l-2.34-2L691 519.12zm7.14 6L1224.25-39l-2.34-2-523.79 566.1zm7.14 6L1231.39-33l-2.39-2-523.74 566.09zm7.13 6l523.82-566.94-2.35-2L712.4 537.07zm7.14 6l523.82-567-2.34-2L719.54 543zm7.15 6l523.8-567-2.34-2L726.68 549zm7.14 6l523.8-567-2.34-2L733.82 555zm7.14 6l523.81-567-2.34-2L741 561zm7.14 6l523.81-567-2.35-2L748.09 567zm7.14 6L1281.37 8.83l-2.35-2L755.24 573zm7.14 6L1288.5 14.8l-2.34-2-523.79 566.13zm7.14 6l523.8-567.09-2.35-2-523.78 566.12zm7.15 6l523.8-567.1-2.34-2-523.78 566.13zm7.14 6l523.8-567.12-2.34-2L783.8 596.89zm7.14 6l523.8-567.14-2.34-2-523.79 566.13zm7.14 6l523.8-567.16-2.34-2-523.79 566.13zm7.14 6l523.8-567.18-2.35-2-523.78 566.13zm7.14 6l523.8-567.2-2.34-2-523.79 566.14zm7.14 6l523.8-567.21-2.35-2L819.5 626.8zm7.14 6l523.79-567.23-2.34-2-523.79 566.12zm7.14 6l523.8-567.25-2.35-2-523.79 566.12zm7.14 6L1367 80.61l-2.34-2-523.75 566.13zm7.14 6l523.79-567.29-2.34-2L848 650.72zm7.14 6l523.79-567.31-2.34-2L855.19 656.7zm7.14 6l523.78-566.1-2.34-2-523.79 564.9zm7.14 6l523.79-566.09-2.35-2-523.79 564.87zm7.14 6l523.79-566.09-2.34-2-523.79 564.85zm7.14 6l523.78-566.09-2.34-2-523.79 564.83zm7.14 6L1417 122.47l-2.34-2L890.88 686.6zm7.14 6l523.78-566.09-2.34-2L898 692.58zm7.13 6l523.79-566.09-2.34-2-523.79 564.77zm7.14 6l523.79-566.09-2.34-2L912.3 704.55zm7.14 6l523.78-567.48-2.34-2-523.79 566.13zm7.14 6l523.78-567.5-2.34-2-523.79 566.13zm7.14 6l523.79-566.09-2.34-2-523.8 564.7zm7.14 6L1467 164.34l-2.34-2-523.81 566.13zm7.14 6l523.79-566.09-2.35-2L948 734.45zm7.14 6l523.78-567.58-2.35-2-523.78 566.13zm7.14 6l523.78-567.6-2.34-2-523.79 566.14zm7.13 6l523.79-566.09-2.34-2L969.41 752.4zm7.14 6l523.79-566.09-2.34-2-523.79 564.59zm7.14 6l523.79-566.09-2.34-2-523.8 564.56zm7.14 6L1517 207.79l-2.34-2-523.84 564.55zm7.14 6l523.79-566.09-2.34-2L998 776.32zm7.14 6l523.79-566.09-2.34-2-523.8 564.51zm7.14 6l523.79-566.09-2.35-2-523.79 564.49zm7.13 6l523.78-567.75-2.34-2-523.79 566.13zm7.14 6l523.79-566.09-2.35-2-523.79 564.45zm7.14 6l523.78-566.09-2.34-2-523.79 564.43zm7.14 6l523.79-566.09-2.34-2-523.8 564.41zm7.14 6l523.79-566.09-2.34-2-523.79 564.4zm7.14 6L1581.2 260l-2.34-2-523.79 566.17zm7.14 6L1588.33 266l-2.34-2-523.79 566.15zm7.14 6L1595.47 272l-2.34-2-523.78 566.1zm7.14 6L1602.61 278l-2.34-2-523.79 566.11zm7.14 6L1609.75 284l-2.34-2-523.79 566.09zm7.14 6l523.78-566.09-2.34-2-523.8 564.28zm7.13 6l523.75-568-2.35-2L1097.9 860zm7.14 6l523.78-568-2.35-2L1105 866zm7.14 6l523.79-566.09-2.34-2L1112.18 872zm7.14 6l523.78-566.1-2.34-2L1119.32 878zm7.14 6l523.79-566.09-2.35-2L1126.45 884zm7.14 6l523.79-566.09-2.35-2L1133.6 890zm7.14 6l523.79-566.09-2.34-2-523.81 564.15zm7.14 6L1674 337.79l-2.34-2-523.79 566.13zm7.14 6l523.78-566.09-2.34-2L1155 907.9z"/></g><g class="cls-5"><path class="cls-6" d="M-297.88 358.83l523.12-568.35 2.34 2-523.12 568.32zm9.47 8L234.7-201.54l-2.34-2-523.11 568.37zm7.13 6l523.12-568.37-2.35-2-523.11 568.38zm7.13 6L249-189.54l-2.34-2-523.15 568.38zm7.13 6l523.11-568.36-2.34-2-523.11 568.38zm7.13 6l523.11-568.36-2.34-2-523.12 568.38zm7.13 6l523.11-568.35-2.34-2-523.12 568.37zm7.13 6l523.11-568.34-2.34-2L-248 400.86zm7.12 6l523.12-568.34-2.34-2-523.12 568.38zm7.13 6l523.12-568.34-2.33-2-523.12 568.38zm7.13 6L298.87-147.5l-2.34-2-523.11 568.38zm7.13 6L306-141.5l-2.34-2-523.12 568.38zm7.13 6l523.12-568.32-2.34-2-523.12 568.37zm7.13 6l523.12-568.32-2.35-2-523.11 568.38zm7.13 6l523.12-568.31-2.34-2-523.12 568.37zm7.13 6l523.12-568.31-2.34-2-523.12 568.38zm7.13 6l523.11-568.31-2.34-2-523.11 568.38zm7.13 6l523.11-568.3-2.34-2-523.11 568.38zm7.13 6L355.91-99.46l-2.34-2-523.12 568.38zm7.13 6L363-93.46l-2.34-2-523.08 568.38zm7.13 6L370.16-87.46l-2.33-2-523.12 568.38zm7.13 6L377.29-81.45l-2.34-2-523.11 568.38zm7.13 6L384.42-75.45l-2.34-2L-141 490.93zm7.13 6L391.55-69.44l-2.34-2-523.11 568.38zm7.13 6L398.68-63.44l-2.34-2-523.11 568.38zm7.13 6L405.81-57.43l-2.34-2L-119.64 509zm7.13 6L412.94-51.43l-2.34-2L-112.51 515zm7.13 6L420.07-45.42l-2.34-2L-105.38 521zm7.13 6L427.2-39.42l-2.34-2L-98.25 527zm7.13 6L434.33-33.42l-2.34-2L-91.12 533zm7.13 6L441.46-27.4l-2.35-2L-84 539zm7.13 6L448.59-21.4l-2.35-2L-76.87 545zm7.13 6L455.72-15.4l-2.34-2L-69.74 551zm7.13 6L462.85-9.39l-2.34-2L-62.61 557zm7.13 6L470-3.39l-2.33-2L-55.48 563zm7.13 6L477.1 2.61l-2.34-2L-48.35 569zm7.13 6L484.24 8.62l-2.34-2L-41.22 575zm7.14 6l523.1-568.2-2.34-2L-34.09 581zm7.13 6l523.09-568.2-2.34-2L-27 587zm7.13 6l523.1-568.19-2.34-2L-19.83 593zm7.13 6L512.75 32.64l-2.34-2L-12.7 599zm7.13 6L519.88 38.65l-2.34-2L-5.57 605zm7.12 6L527 44.65l-2.34-2L1.56 611zM11 619L534.14 50.66l-2.34-2L8.69 617zm7.13 6L541.27 56.66l-2.34-2L15.81 623zm7.13 6L548.4 62.67l-2.34-2L23 629zm7.13 6L555.53 68.67l-2.34-2L30.07 635zm7.13 6L562.66 74.67l-2.34-2L37.2 641zm7.14 6L569.79 80.68l-2.34-2L44.34 647.06zm7.13 6L576.92 86.68l-2.34-2L51.46 653.06zm7.13 6L584 92.69l-2.34-2L58.6 659.07zm7.13 6L591.18 98.69l-2.34-2L65.72 665.07zm7.13 6l523.13-568.3-2.34-2L72.86 671.08zm7.13 6l523.12-568.3-2.33-2L80 677.08zm7.13 6l523.13-568.29-2.34-2L87.11 683.08zm7.14 6l523.13-568.27-2.34-2L94.26 689.1zm7.13 6l523.13-568.27-2.34-2-523.11 568.38zm7.13 6L634 134.74l-2.34-2-523.15 568.37zm7.13 6L641.1 140.74l-2.34-2-523.12 568.37zm7.13 6l523.13-568.25-2.34-2-523.11 568.37zm7.13 6l523.13-568.25-2.34-2L129.9 719.13zm7.13 6l523.13-568.24-2.34-2L137 725.13zm7.14 6l523.12-568.24-2.34-2-523.12 568.38zm7.13 6l523.12-568.24-2.34-2-523.12 568.38zm7.13 6l523.12-568.23-2.34-2-523.12 568.38zm7.13 6L691 182.77l-2.34-2-523.11 568.38zm7.13 6l523.12-568.22-2.34-2-523.12 568.38zm7.13 6l523.11-568.22-2.34-2L179.8 761.16zm7.13 6l523.11-568.21-2.34-2-523.12 568.37zm7.13 6l523.11-568.21-2.34-2-523.11 568.38zm7.13 6l523.11-568.2-2.34-2L201.2 779.17zm7.13 6l523.11-568.2-2.34-2-523.11 568.38zm7.13 6l523.11-568.19-2.34-2-523.12 568.37zm7.12 6L748 230.81l-2.34-2-523.08 568.38zm7.13 6l523.12-568.18-2.34-2-523.11 568.37zm7.13 6L762.3 242.82l-2.34-2L236.84 809.2zm7.13 6l523.11-568.18-2.34-2L244 815.2zm7.13 6l523.12-568.17-2.34-2L251.1 821.2zm7.13 6l523.12-568.17-2.34-2-523.12 568.38zm7.13 6l523.12-568.16-2.34-2-523.12 568.38zm7.13 6L798 272.84l-2.34-2-523.17 568.38zm7.13 6l523.12-568.15-2.34-2-523.12 568.38zm7.12 6l523.13-568.14-2.34-2-523.12 568.37zm7.13 6l523.12-568.14-2.34-2-523.11 568.38zm7.13 6l523.12-568.14-2.34-2L301 863.24zm7.13 6l523.12-568.13-2.34-2-523.11 568.38zm7.13 6l523.12-568.13-2.34-2-523.11 568.38zm7.13 6l523.12-568.12-2.34-2L322.4 881.25zm7.13 6L855 320.88l-2.34-2-523.13 568.38zm7.13 6l523.12-568.11-2.34-2-523.11 568.37zm7.13 6l523.12-568.11-2.34-2-523.11 568.38zm7.13 6l523.12-568.1-2.34-2-523.12 568.37zm7.13 6L883.5 344.9l-2.34-2L358 911.28zm7.13 6l523.12-568.09-2.34-2-523.11 568.38zm7.13 6l523.12-568.09-2.34-2L372.3 923.29zm7.13 6l523.12-568.08-2.34-2-523.12 568.37zm7.13 6L912 368.92l-2.34-2L386.57 935.3zm7.13 6l523.12-568.07-2.34-2L393.69 941.3zm7.13 6l523.12-568.07-2.34-2-523.12 568.38zm7.13 6L933.4 386.94l-2.34-2L408 953.31zm7.12 6l523.13-568.06-2.34-2-523.12 568.38zm7.13 6l523.13-568-2.34-2-523.12 568.32zm7.13 6L954.8 405l-2.34-2-523.12 568.33zm7.13 6l523.12-568-2.34-2-523.11 568.33zm7.13 6l523.13-568-2.34-2-523.13 568.34zm7.13 6l523.13-568-2.34-2-523.12 568.34zm7.13 6l523.12-568-2.31-2-523.14 568.35zm7.13 6l523.13-568-2.34-2L465 1001.35zm7.13 6l523.12-568-2.34-2-523.11 568.35z"/></g><g class="cls-7"><path class="cls-4" d="M128.49 741.64l582.75-600.81 2.49 2.19L131 743.83zm10.08 8.86l582.76-600.81-2.49-2.19-582.76 600.82zm7.59 6.67l582.76-600.81-2.5-2.19L143.67 755zm7.59 6.67L736.51 163l-2.51-2.16-582.74 600.82zm7.59 6.67L744.11 169.7l-2.49-2.19-582.76 600.82zm7.59 6.67l582.77-600.8-2.49-2.19L166.44 775zm7.59 6.67L759.29 183l-2.5-2.19L174 781.67zm7.6 6.67l582.76-600.8-2.5-2.19-582.75 600.82zm7.59 6.67l582.77-600.8-2.48-2.19L189.22 795zm7.6 6.68l582.76-600.81-2.49-2.19-582.76 600.82zm7.59 6.67l582.76-600.81-2.49-2.19-582.76 600.82zm7.59 6.67L797.25 216.4l-2.49-2.19L212 815zm7.59 6.67l582.76-600.8-2.49-2.19L219.6 821.7zm7.59 6.67l582.77-600.8-2.5-2.19-582.75 600.81zm7.59 6.67L820 236.42l-2.5-2.19L234.77 835zm7.6 6.67l582.76-600.8-2.49-2.19-582.76 600.82zm7.59 6.67l582.76-600.8-2.49-2.19L250 848.39zm7.59 6.67l582.76-600.8-2.49-2.19-582.75 600.82zm7.59 6.67L850.4 263.11l-2.5-2.19-582.75 600.81zm7.59 6.67L858 269.78l-2.49-2.19L272.74 868.4zm7.59 6.67l582.77-600.79-2.49-2.19-582.76 600.81zm7.59 6.67l582.77-600.79-2.49-2.19-582.75 600.82zm7.6 6.69l582.77-600.81-2.49-2.19-582.76 600.82zm7.6 6.67l582.76-600.81-2.49-2.19-582.76 600.82zm7.59 6.67L896 303.13l-2.49-2.19L310.7 901.76zm7.59 6.67l582.77-600.8-2.5-2.19L318.3 908.43zm7.59 6.67l582.77-600.8-2.49-2.19L325.89 915.1zM336 924l582.73-600.85-2.5-2.19-582.75 600.81zm7.6 6.67l582.72-600.85-2.49-2.19-582.75 600.82zm7.59 6.67l582.73-600.85-2.49-2.19-582.76 600.82zm7.59 6.67l582.73-600.84L939 341 356.25 941.79zm7.59 6.67L949.1 349.84l-2.5-2.2-582.75 600.82zm7.59 6.67l582.73-600.84-2.49-2.19-582.75 600.81zm7.59 6.67l582.74-600.84-2.5-2.18L379 961.8zm7.59 6.67l582.73-600.84-2.48-2.19-582.76 600.81zm7.59 6.67l582.74-600.84-2.5-2.19-582.75 600.81zm7.57 6.64l582.76-600.81-2.49-2.19-582.76 600.82zm7.6 6.68l582.76-600.81-2.49-2.19L409.4 988.49zm7.59 6.67l582.76-600.82-2.49-2.19L417 995.16zm7.59 6.67l582.76-600.81-2.49-2.19-582.76 600.82zm7.6 6.67l582.76-600.82-2.49-2.19-582.77 600.83zm7.59 6.67L1025 416.55l-2.49-2.19-582.73 600.82zm7.58 6.67l582.76-600.81-2.49-2.19-582.75 600.82zm7.59 6.67l582.77-600.8-2.49-2.19L455 1028.52zm7.6 6.67l582.76-600.81-2.49-2.19-582.76 600.82zm7.59 6.67l582.77-600.8-2.5-2.2-582.76 600.82zm7.59 6.67L1063 449.91l-2.49-2.19-582.77 600.82zm7.59 6.67l582.76-600.81-2.49-2.19-582.75 600.83zm7.6 6.68l582.75-600.82-2.49-2.19-582.75 600.83zm7.59 6.67l582.76-600.81-2.49-2.19-582.76 600.82zm7.59 6.67l582.77-600.8-2.49-2.19-582.76 600.81zm7.59 6.67L1101 483.27l-2.5-2.19-582.8 600.81zm7.59 6.67l582.76-600.81-2.49-2.19-582.74 600.83zm7.6 6.67l582.75-600.82-.47-2.81-582.75 600.84zm7.59 6.67l582.76-600.82-2.5-2.19-582.74 600.84zm7.6 6.68L1131.34 510l-2.49-2.19-582.76 600.78zm7.59 6.67l582.76-600.81-2.49-2.19-582.74 600.84zm7.59 6.67l582.76-600.82-2.49-2.19-582.74 600.85zm7.59 6.67L1154.11 530l-2.49-2.19-582.76 600.8zm7.59 6.67l582.76-600.82-2.5-2.19-582.72 600.85zm7.59 6.67l582.79-600.78-2.49-2.19L584 1142zm7.59 6.67L1176.89 550l-2.5-2.19-582.75 600.81zm7.6 6.67l582.76-600.81-2.49-2.19-582.74 600.84zm7.59 6.67l582.76-600.81-2.5-2.19L606.82 1162zm7.59 6.67L1199.67 570l-2.49-2.19-582.76 600.83zm7.59 6.67l582.76-600.82-2.49-2.19L622 1175.31zm7.59 6.67l582.76-600.81-2.49-2.19L629.6 1182zm7.59 6.67L1222.44 590l-2.49-2.19-582.76 600.84zm7.59 6.67L1230 596.7l-2.5-2.19-582.72 600.81zm7.59 6.67l582.76-600.81-2.49-2.19L652.38 1202zm7.6 6.67L1245.22 610l-2.49-2.19L660 1208.66zm7.59 6.67l582.76-600.81-2.49-2.19-582.72 600.86zm7.59 6.67l582.79-600.77-2.49-2.19L675.15 1222zm7.59 6.67L1268 630.06l-2.49-2.19-582.76 600.81zm7.6 6.67l582.76-600.82-2.49-2.19-582.73 600.87zm7.59 6.67l582.79-600.76-2.49-2.19L697.93 1242zm7.59 6.67L1290.74 650l-2.49-2.19-582.73 600.88zm7.59 6.67l582.76-600.82-2.49-2.19-582.72 600.88zm7.59 6.67L1306 663.41l-2.49-2.19L720.71 1262zm7.59 6.67L1313.51 670l-2.5-2.19-582.71 600.9zm7.59 6.67l582.76-600.82-2.5-2.19-582.7 600.88zm7.6 6.67l582.76-600.82-2.49-2.19-582.72 600.89zm7.59 6.67l582.8-600.75-2.49-2.19-582.76 600.82zm7.59 6.67l582.76-600.81-2.49-2.19-582.72 600.88zm7.59 6.67l582.76-600.82-2.49-2.19-582.72 600.89zm7.59 6.67L1359.06 710l-2.49-2.19-582.71 600.93zm7.59 6.67l582.81-600.74-2.49-2.19-582.76 600.81zm7.6 6.68l582.76-600.82-2.49-2.19L789 1322.08zm7.59 6.67l582.76-600.82-2.5-2.19-582.71 600.88zm7.59 6.67l582.81-600.75-2.49-2.19-582.76 600.81zm7.6 6.67L1397 743.4l-2.5-2.19-582.68 600.89zm7.59 6.67l582.76-600.82-2.49-2.19-582.72 600.89zm7.59 6.67l582.76-600.82-2.49-2.19L827 1355.44zm7.59 6.67l582.76-600.81-2.49-2.19-582.71 600.89zm7.59 6.67l582.76-600.82-2.49-2.19-582.71 600.9zm7.59 6.67L1435 776.83l-2.49-2.19-582.73 600.82zm7.59 6.67l582.81-600.74-2.49-2.19-582.75 600.82zm7.6 6.67l582.75-600.82-2.49-2.19L865 1388.8zm7.59 6.67l582.76-600.82-2.49-2.19-582.71 600.9zm7.6 6.67l582.8-600.73-2.49-2.19-582.76 600.81zm7.59 6.67L1473 810.19l-2.5-2.19-582.75 600.82zm7.6 6.67l582.76-600.81-2.5-2.19-582.71 600.9zm7.59 6.68l582.76-600.82-2.49-2.19-582.72 600.9zM913 1431l582.77-600.8-2.49-2.19-582.76 600.82zm7.59 6.67l582.76-600.82-2.5-2.19-582.74 600.84zm7.59 6.67L1511 843.55l-2.5-2.19-582.79 600.81zm7.59 6.67l582.76-600.81-2.53-2.2-582.7 600.85zm7.59 6.67l582.76-600.81-2.49-2.19-582.74 600.84zm7.6 6.67l582.75-600.82-2.49-2.19-582.73 600.84z"/></g><g class="cls-8"><path class="cls-9" d="M-182.26 642.32L386.19 58.46l2.54 2-568.45 583.89zm10.29 8.19L396.48 66.65l-2.54-2-568.45 583.84zm7.75 6.17L404.23 72.82l-2.55-2-568.45 583.84zm7.75 6.17L412 79l-2.54-2L-159 660.83zm7.75 6.17L419.72 85.15l-2.54-2L-151.27 667zm7.75 6.17L427.47 91.32l-2.55-2-568.45 583.85zm7.75 6.17L435.22 97.49l-2.54-2-568.46 583.84zm7.75 6.17L443 103.66l-2.55-2L-128 685.51zm7.74 6.17l568.44-583.87-2.54-2-568.46 583.84zm7.75 6.17L458.46 116l-2.54-2-568.46 583.84zm7.74 6.17l568.45-583.87-2.54-2L-104.79 704zm7.75 6.17L474 128.33l-2.54-2L-97 710.18zm7.75 6.17L481.7 134.5l-2.54-2-568.45 583.85zm7.74 6.17l568.45-583.88-2.55-2-568.45 583.84zm7.75 6.17L497.2 146.84l-2.55-2-568.46 583.84zm7.75 6.17L504.94 153l-2.54-2-568.45 583.85zm7.75 6.17l568.44-583.88-2.54-2L-58.31 741zm7.75 6.17l568.43-583.88-2.54-2-568.45 583.84zm7.75 6.17l568.44-583.88-2.55-2-568.45 583.84zm7.75 6.17l568.43-583.88-2.54-2-568.46 583.84zm7.75 6.17l568.43-583.89-2.54-2L-27.32 765.7zm7.75 6.17L551.43 190l-2.54-2-568.46 583.87zm7.74 6.17l568.43-583.89-2.54-2L-11.82 778zm7.75 6.17l568.43-583.89-2.54-2L-4.08 784.21zm7.75 6.17l568.43-583.89-2.54-2L3.67 790.37zm7.76 6.15L582.42 214.7l-2.55-2L11.42 796.54zm7.75 6.17l568.42-583.87-2.54-2L19.17 802.71zm7.75 6.17L597.91 227l-2.55-2L26.92 808.88zm7.75 6.17l568.41-583.87-2.54-2L34.66 815zm7.75 6.16l568.41-583.87-2.54-2L42.41 821.21zm7.75 6.17l568.41-583.86-2.55-2L50.16 827.39zm7.75 6.17l568.4-583.87-2.55-2L57.9 833.55zm7.74 6.17l568.41-583.87-2.55-2L65.65 839.72zm7.76 6.17L644.4 264l-2.54-2L73.4 845.89zm7.75 6.17l568.4-583.88-2.54-2L81.14 852.06zm7.75 6.17l568.4-583.88-2.55-2L88.9 858.23zm7.75 6.17l568.4-583.87-2.54-2L96.64 864.4zm7.75 6.17l568.4-583.87-2.54-2-568.47 583.84zm7.74 6.17l568.4-583.88-2.54-2-568.46 583.85zm7.74 6.17l568.4-583.88-2.54-2-568.46 583.85zm7.75 6.17l568.4-583.88-2.54-2-568.46 583.84zm7.75 6.17l568.4-583.88-2.54-2-568.46 583.84zm7.74 6.17l568.4-583.88-2.54-2-568.45 583.84zm7.75 6.17l568.4-583.88-2.54-2-568.46 583.84zm7.75 6.17L729.61 331.9l-2.54-2-568.45 583.85zM169 922l568.37-583.92-2.55-2-568.45 583.84zm7.74 6.17l568.37-583.93-2.55-2-568.45 583.85zm7.74 6.17l568.38-583.93-2.54-2-568.46 583.84zm7.75 6.17L760.6 356.58l-2.54-2-568.45 583.84zm7.75 6.17l568.37-583.93-2.54-2-568.45 583.84zm7.75 6.17L776.1 368.92l-2.54-2-568.45 583.84zm7.67 6.15l568.45-583.91-2.55-2-568.45 583.84zm7.75 6.17L791.6 381.26l-2.55-2L220.6 963.1zm7.75 6.17l568.44-583.92-2.54-2-568.45 583.85zm7.75 6.17l568.44-583.92-2.55-2-568.45 583.85zm7.76 6.18l568.45-583.92-2.54-2-568.46 583.85zm7.75 6.17L822.6 405.94l-2.54-2-568.45 583.85zm7.74 6.14l568.45-583.89-2.54-2L259.35 994zm7.75 6.17L838.1 418.28l-2.54-2-568.46 583.84zm7.75 6.17l568.45-583.89-2.55-2-568.45 583.84zm7.74 6.17l568.45-583.89-2.54-2-568.45 583.84zm7.74 6.17l568.46-583.89-2.55-2-568.45 583.84zm7.75 6.17L869.09 443l-2.54-2-568.46 583.8zm7.75 6.17l568.46-583.89-2.55-2L305.84 1031zm7.75 6.17l568.45-583.9-2.54-2-568.46 583.85zm7.75 6.17l568.45-583.9-2.54-2-568.46 583.84zm7.75 6.17l568.45-583.9-2.54-2-568.46 583.84zm7.75 6.17l568.44-583.91-2.54-2-568.46 583.85zm7.75 6.17L915.57 480l-2.57-2-568.43 583.81zm7.75 6.17l568.44-583.9-2.54-2L352.32 1068zm7.75 6.17L931.06 492.3l-2.54-2-568.45 583.85zm7.75 6.17l568.43-583.91-2.54-2-568.45 583.85zm7.75 6.17l568.43-583.91-2.54-2-568.46 583.84zm7.74 6.16l568.44-583.9-2.54-2-568.46 583.84zm7.75 6.17L962 517l-2.54-2-568.4 583.82zm7.75 6.17l568.43-583.9-2.54-2L398.8 1105zm7.75 6.17l568.42-583.9-2.54-2-568.45 583.84zm7.75 6.17l568.43-583.9-2.54-2-568.46 583.84zm7.75 6.17L993 541.65l-2.54-2L422 1123.5zm7.75 6.17l568.46-583.86-2.55-2-568.49 583.8zm7.75 6.17L1008.54 554l-2.55-2-568.45 583.84zm7.75 6.17l568.45-583.87-2.54-2L445.29 1142zm7.74 6.17L1024 566.33l-2.54-2L453 1148.18zm7.75 6.17l568.42-583.91-2.54-2-568.45 583.84zm7.75 6.17l568.45-583.87-2.54-2-568.49 583.8zm7.75 6.17l568.45-583.87-2.54-2-568.49 583.8zm7.75 6.17L1055 591l-2.54-2L484 1172.85zm7.75 6.17l568.45-583.87-2.54-2L491.77 1179zm7.75 6.17l568.45-583.87-2.55-2-568.49 583.79zm7.74 6.17l568.46-583.87-2.54-2-568.5 583.79zm7.75 6.17L1086 615.68l-2.55-2L515 1197.52zm7.75 6.17L1093.8 621.9l-2.54-2-568.5 583.79zm7.74 6.17L1101.51 628l-2.54-2-568.46 583.86zm7.75 6.17l568.46-583.87-2.54-2L538.26 1216zm7.75 6.17L1117 640.36l-2.54-2L546 1222.2zm7.75 6.17l568.45-583.87-2.54-2-568.5 583.79zm7.75 6.17l568.41-583.93-2.54-2-568.46 583.85zm7.75 6.17l568.45-583.87-2.54-2-568.5 583.79zm7.75 6.17L1148 665l-2.54-2L577 1246.88zm7.75 6.17l568.4-583.93-2.54-2L584.74 1253zm7.74 6.17l568.46-583.87-2.55-2-568.5 583.78zm7.75 6.17l568.45-583.87-2.55-2-568.49 583.78zm7.75 6.17L1179 689.71l-2.54-2L608 1271.55zm7.75 6.17l568.45-583.87-2.54-2-568.51 583.78zm7.74 6.17l568.41-584-2.55-2-568.45 583.91zm7.75 6.17l568.46-583.87-2.55-2-568.5 583.78zm7.75 6.17L1210 714.38l-2.54-2L639 1296.23zm7.75 6.17l568.46-583.87-2.54-2-568.52 583.77zm7.75 6.17l568.45-583.87-2.54-2-568.51 583.77z"/></g><path class="cls-9" d="M-.28 576.53L542.4 640.9-.28 677.65V576.53z"/><path class="cls-10" d="M301 352.59h2v136h-2z"/><g class="cls-11"><text class="cls-12" transform="translate(327.12 480.75)">ХХ</text><text class="cls-13" transform="translate(355.44 480.75)">II</text><text class="cls-12" transform="translate(374.73 480.75)">ЧЕМПИОН</text><text class="cls-14" transform="translate(487.1 480.75)">А</text><text class="cls-12" transform="translate(501.18 480.75)">Т</text><text class="cls-13" transform="translate(513.51 480.75)"></text><text class="cls-12" transform="translate(520.4 480.75)">МИ</text><text class="cls-15" transform="translate(556.66 480.75)">Р</text><text class="cls-12" transform="translate(567.77 480.75)">А</text><text class="cls-13" transform="translate(582.95 480.75)"></text><text class="cls-12" transform="translate(589.84 480.75)">ПО</text><text class="cls-13" transform="translate(622.77 480.75)"></text><text class="cls-12" transform="translate(629.67 480.75)">ЛЫЖН</text><text class="cls-12" transform="translate(698.93 480.75)">О</text><text class="cls-12" transform="translate(715.94 480.75)">М</text><text class="cls-12" transform="translate(735.78 480.75)">У</text><text class="cls-13" transform="translate(748.7 480.75)"></text><text class="cls-12" transform="translate(755.6 480.75)">ОРИЕНТИ</text><text class="cls-16" transform="translate(859.21 480.75)">Р</text><text class="cls-12" transform="translate(872.2 480.75)">О<tspan class="cls-17" x="19.29" y="0">В</tspan><tspan x="35.01" y="0">АНИЮ</tspan></text></g><g class="cls-11"><text class="cls-18" transform="translate(325.07 390.87)">W</text><text class="cls-19" transform="translate(371.14 390.87)"><tspan>ORLD SKI ORIENTEERING</tspan></text></g><text class="cls-19" transform="translate(325.07 442.67)">CHAMPIONSHIPS</text><g class="cls-11"><text class="cls-20" transform="translate(689.77 442.67)">KRASN</text><text class="cls-21" transform="translate(835.33 442.67)">O</text><text class="cls-22" transform="translate(869.5 442.67)">Y</text><text class="cls-20" transform="translate(892.21 442.67)">ARSK 2017</text></g><path class="cls-10" d="M521.8 365.19l-16.8-9.7v38.6l16.8-9.6 16.7-9.6zm-12.8 23.1v-26.9l23.2 13.4zM173.7 407.19l-24.6 17 4.6 14.6 33.3-2.8.4-.5-13.7-28.3z"/><path class="cls-23" d="M166.3 391.89l-22.7 14.4 3.6 11.7 23.7-16.4-4.6-9.7zM161 463.19l19.3-20.1-24.8 2 5.5 18.1z"/><path class="cls-24" d="M192 430.69l10.9-11.3-13.1-23.3-10.9 7.5 13.1 27.1z"/><path class="cls-10" d="M217.2 396.39l-21.6-3.1 9.1 16.4 12.5-13.3z"/><path class="cls-24" d="M163.5 386.49l-20.8-3.6 4.4 14 16.4-10.4zM199.4 432.69l-19.8 20.6 28.4-2.7-8.6-17.9z"/><path class="cls-23" d="M133.4 394.39l-18.6 8.9 7.2 9.6 14.2-8.8-2.8-9.7z"/><path class="cls-25" d="M176.1 397.89l10.3-7-4.9-8.7-9.9 6.3 4.5 9.4zM158.3 476.49l4.1 14.6-15.3-2.5 11.2-12.1z"/><path class="cls-24" d="M185.6 366.09l-7.4-13 21 4.3-13.6 8.7z"/><path class="cls-10" d="M103.3 443.09l19.5-1.6-11.9 14.2-7.6-12.6z"/><path class="cls-25" d="M121.2 355.49l4.6 12-14.7-2 10.1-10zM126 417.69l12.1-7.7 3.7 11.8-8.2 5.6-7.6-9.7zM137.4 432.29l12.6 15.5-6.3-19.8-6.3 4.3zM258 387.99l-6.5-10.4-10.2 9.5 16.7.9z"/><path class="cls-24" d="M234.2 464.09l7.1 10.5 8.4-10.7-15.5.2z"/><path class="cls-26" d="M97.5 369.19v-.3a1 1 0 0 1 .4-.5l160.2 24.8.2.5.2.5z"/><path class="cls-26" d="M98 368.39c-.2.2-.3.5-.5.7l160.8 25a2.35 2.35 0 0 1-.2-.8zM88.4 466.49L253.3 458a1.22 1.22 0 0 1-.3.9l-164.1 8.4z"/><path class="cls-26" d="M88.9 467.19l164-8.3a5.94 5.94 0 0 0 .4-.8l-164.8 8.3zM81.2 445.39l148.3-94.6a1.28 1.28 0 0 1 .6.4l.2.1-148.8 95z"/><path class="cls-26" d="M229.5 350.89l-148.3 94.5.2.7 148.6-94.7zM127.4 497.19l120.2-124.9.7.5-120.2 125-.7-.6z"/><path class="cls-26" d="M127.5 497.09l.5.6 120.2-124.8-.6-.5-120.1 124.7z"/><path class="cls-26" d="M123.5 344.19l.4-.3.3-.2 51 165.2a1.49 1.49 0 0 1-.6.1h-.4z"/><path class="cls-26" d="M123.7 344.09l50.7 164.8h.8l-50.9-165.2a2.09 2.09 0 0 1-.6.4zM153.4 332.19a1.61 1.61 0 0 1 .9-.3l83.4 148.8-.2.3-.4.4-.1.1z"/><path class="cls-26" d="M153.5 332.19l83.5 149.2c.2-.2.3-.4.5-.6L154.3 332a6.82 6.82 0 0 0-.8.19z"/><path class="cls-6" d="M-.39 333.39h1201.24v177H-.39z"/><path class="cls-27" d="M300.92 353.39h2v136h-2zM344.07 464.69l-6.71 8.2 7.21 8.8h-2.9l-5.81-7-5.81 7h-3l7.31-8.8-6.81-8.2h3l5.31 6.5 5.31-6.5zM361.68 464.69l-6.71 8.2 7.21 8.8h-2.9l-5.81-7-5.81 7h-3l7.31-8.8-6.81-8.2h3l5.31 6.5 5.31-6.5zM364.09 464.69h2.4v16.9h-2.4zM370.29 464.69h2.4v16.9h-2.4zM395 464.69v16.9h-2.4v-7.1a4.88 4.88 0 0 1-.7.3l-.9.3a3.56 3.56 0 0 1-1 .2 3.76 3.76 0 0 1-1 .1 9.36 9.36 0 0 1-3.1-.4 5.62 5.62 0 0 1-2-1.2 5.47 5.47 0 0 1-1.1-2 12.3 12.3 0 0 1-.3-2.9v-4.2h2.4v4.5a11.48 11.48 0 0 0 .2 2.1 3.46 3.46 0 0 0 .7 1.2 2.28 2.28 0 0 0 1.2.6 8.82 8.82 0 0 0 1.7.2 13.58 13.58 0 0 0 2-.2 8.46 8.46 0 0 0 1.7-.5v-7.8h2.6zM408.33 464.69v2.2h-7.21V472H408v2.2h-6.91v5.3h7.41v2.2h-9.81v-16.9h9.61zM427 464.69v16.9h-2.4v-13.2l-5.21 6.5h-.4l-5.21-6.5v13.2h-2.4v-16.9h2.3l5.61 7 5.61-7zM444.87 464.69v16.9h-2.4v-14.7H433v14.7h-2.4v-16.9zM460.59 469.19l-10.71 12.6h-1.2v-17.1h2.4v12.9l10.71-12.9H463v16.9h-2.4zM466 473.19a8.8 8.8 0 0 1 .6-3.3 8.39 8.39 0 0 1 1.8-2.8 8.61 8.61 0 0 1 2.9-1.9 9.06 9.06 0 0 1 3.7-.7 9.22 9.22 0 0 1 3.8.7 9.73 9.73 0 0 1 2.9 1.9 7.5 7.5 0 0 1 1.8 2.8 9.18 9.18 0 0 1 .6 3.3 9.59 9.59 0 0 1-.6 3.3 7.5 7.5 0 0 1-1.8 2.8 8.61 8.61 0 0 1-2.9 1.9 9.22 9.22 0 0 1-3.8.7 10.92 10.92 0 0 1-2.6-.3 8.5 8.5 0 0 1-2.2-.9 6.23 6.23 0 0 1-1.8-1.4 5.94 5.94 0 0 1-1.3-1.8 6.56 6.56 0 0 1-.8-2.1 8.91 8.91 0 0 1-.3-2.2zm2.5 0a7.51 7.51 0 0 0 .5 2.6 4.83 4.83 0 0 0 1.4 2 7.44 7.44 0 0 0 2.1 1.3 7 7 0 0 0 5.21 0 7.44 7.44 0 0 0 2.1-1.3 7.18 7.18 0 0 0 1.4-2 5.26 5.26 0 0 0 .5-2.6 7.51 7.51 0 0 0-.5-2.6 4.83 4.83 0 0 0-1.4-2 7.44 7.44 0 0 0-2.1-1.3 7 7 0 0 0-5.21 0 7.44 7.44 0 0 0-2.1 1.3 7.18 7.18 0 0 0-1.4 2 5.26 5.26 0 0 0-.51 2.6zM501.53 464.69v16.9h-2.4v-7.4h-9.51v7.4h-2.4v-16.9h2.4v7.4h9.51v-7.4zM512.44 464.59l7.61 17h-2.5l-2.3-5H508l-2.1 5h-2.5l7.31-17zm-.9 3.7l-2.5 6.1h5.31zM534.56 464.69v2.2h-5.81v14.7h-2.4v-14.7h-5.81v-2.2zM559.49 464.69v16.9h-2.4v-13.2l-5.21 6.5h-.4l-5.21-6.5v13.2h-2.4v-16.9h2.3l5.61 7 5.61-7zM575 469.19l-10.71 12.6h-1.2v-17.1h2.4v12.9l10.71-12.9h1.2v16.9H575zM581.11 464.69h5.31a6.06 6.06 0 0 1 2.4.4 6.94 6.94 0 0 1 1.7 1 4.35 4.35 0 0 1 1 1.6 6.16 6.16 0 0 1 0 3.8 4 4 0 0 1-1 1.5 5.25 5.25 0 0 1-1.8 1 9.37 9.37 0 0 1-2.5.4h-2.5v7.3h-2.4v-17zm2.4 2.2v5.2h2.7a3.74 3.74 0 0 0 1.2-.2 1.94 1.94 0 0 0 .9-.5 1.56 1.56 0 0 0 .6-.8 3.59 3.59 0 0 0 .2-1.1 2.77 2.77 0 0 0-.1-.9 1.37 1.37 0 0 0-.5-.8 3.49 3.49 0 0 0-.9-.6 3 3 0 0 0-1.4-.2h-2.7zM601 464.59l7.61 17h-2.5l-2.3-5h-7.21l-2.1 5H592l7.31-17zm-.9 3.7l-2.5 6.1h5.31zM631.66 464.69v16.9h-2.4v-14.7h-9.51v14.7h-2.4v-16.9zM634.67 473.19a8.8 8.8 0 0 1 .6-3.3 8.39 8.39 0 0 1 1.8-2.8 8.61 8.61 0 0 1 2.9-1.9 9.06 9.06 0 0 1 3.7-.7 9.22 9.22 0 0 1 3.8.7 9.73 9.73 0 0 1 2.9 1.9 7.5 7.5 0 0 1 1.8 2.8 9.18 9.18 0 0 1 .6 3.3 9.59 9.59 0 0 1-.6 3.3 7.5 7.5 0 0 1-1.8 2.8 8.61 8.61 0 0 1-2.9 1.9 9.22 9.22 0 0 1-3.8.7 10.92 10.92 0 0 1-2.6-.3 8.5 8.5 0 0 1-2.2-.9 6.23 6.23 0 0 1-1.8-1.4 5.94 5.94 0 0 1-1.3-1.8 6.56 6.56 0 0 1-.8-2.1 8.91 8.91 0 0 1-.3-2.2zm2.5 0a7.51 7.51 0 0 0 .5 2.6 4.83 4.83 0 0 0 1.4 2 7.44 7.44 0 0 0 2.1 1.3 7 7 0 0 0 5.21 0 7.44 7.44 0 0 0 2.1-1.3 7.18 7.18 0 0 0 1.4-2 5.26 5.26 0 0 0 .5-2.6 7.51 7.51 0 0 0-.5-2.6 4.83 4.83 0 0 0-1.4-2 7.44 7.44 0 0 0-2.1-1.3 7 7 0 0 0-5.21 0 7.44 7.44 0 0 0-2.1 1.3 7.18 7.18 0 0 0-1.4 2 5.26 5.26 0 0 0-.5 2.6zM669.9 464.59l7.61 17H675l-6-13.7-5.61 13.7h-2.5l7.31-17zM684.52 471.79a7.12 7.12 0 0 1 2.6.4 5.45 5.45 0 0 1 1.8 1.1 5.71 5.71 0 0 1 1.1 1.6 4.71 4.71 0 0 1 0 3.8 4.18 4.18 0 0 1-1.1 1.5 5.25 5.25 0 0 1-1.8 1 6.26 6.26 0 0 1-2.5.4h-5.31v-16.9h2.4v7.1zm-2.8 2.2v5.4h3.1a5.22 5.22 0 0 0 1.4-.2 3.49 3.49 0 0 0 .9-.6 2.18 2.18 0 0 0 .5-.8 2.77 2.77 0 0 0 .1-.9 5 5 0 0 0-.2-1.2 1.46 1.46 0 0 0-.6-.9l-.9-.6a5 5 0 0 0-1.2-.2zm14-9.3v16.9h-2.4v-16.9zM699.43 464.69a7.79 7.79 0 0 1 1.6.2 3.1 3.1 0 0 1 1.3.6 6.53 6.53 0 0 1 1.1 1.2 11.39 11.39 0 0 1 .9 1.9 10.74 10.74 0 0 0 .7 1.5 2.36 2.36 0 0 0 .8.9c.3.2.5.4.8.4a2.77 2.77 0 0 0 .9.1v-6.9h2.4v6.9a2.77 2.77 0 0 0 .9-.1 3 3 0 0 0 .8-.4 3.63 3.63 0 0 0 .8-.9 10.74 10.74 0 0 0 .7-1.5 11.38 11.38 0 0 1 .9-1.9 4.26 4.26 0 0 1 1.1-1.2 3.1 3.1 0 0 1 1.3-.6 7.79 7.79 0 0 1 1.6-.2h.4v2.2a4.45 4.45 0 0 0-1.3.2 2.63 2.63 0 0 0-.9.5 3.49 3.49 0 0 0-.6.9 8.92 8.92 0 0 0-.5 1.3 3.55 3.55 0 0 1-.4.9l-.6.9a4.62 4.62 0 0 1-.7.7 3.51 3.51 0 0 1-.8.5c.3.1.6.3.9.4a1.35 1.35 0 0 1 .7.6 5 5 0 0 0 .7.8 4.13 4.13 0 0 1 .7 1.1l3.8 6.2h-2.8l-3.1-5.2c-.3-.5-.6-.9-.8-1.3a3.63 3.63 0 0 0-.8-.9 4.06 4.06 0 0 0-.9-.5 3 3 0 0 0-1-.2v8.1h-2.4v-8.1a3 3 0 0 0-1 .2 4.06 4.06 0 0 0-.9.5 2.36 2.36 0 0 0-.8.9c-.2.4-.5.8-.8 1.3l-3.1 5.2h-2.8l3.8-6.2a14.1 14.1 0 0 1 1.4-1.8 3.92 3.92 0 0 1 1.6-1 3.51 3.51 0 0 1-.8-.5 4.62 4.62 0 0 1-.7-.7l-.6-.9a3.55 3.55 0 0 1-.4-.9c-.2-.5-.3-.9-.5-1.3l-.6-.9a1.94 1.94 0 0 0-.9-.5 5.08 5.08 0 0 0-1.3-.2v-2.2h.2zM736.07 464.69v16.9h-2.4v-7.4h-9.51v7.4h-2.4v-16.9h2.4v7.4h9.51v-7.4zM739.07 473.19a8.8 8.8 0 0 1 .6-3.3 8.39 8.39 0 0 1 1.8-2.8 8.61 8.61 0 0 1 2.9-1.9 9.06 9.06 0 0 1 3.7-.7 9.22 9.22 0 0 1 3.8.7 9.73 9.73 0 0 1 2.9 1.9 7.5 7.5 0 0 1 1.8 2.8 9.18 9.18 0 0 1 .6 3.3 9.59 9.59 0 0 1-.6 3.3 7.5 7.5 0 0 1-1.8 2.8 8.61 8.61 0 0 1-2.9 1.9 9.22 9.22 0 0 1-3.8.7 10.92 10.92 0 0 1-2.6-.3 8.5 8.5 0 0 1-2.2-.9 6.23 6.23 0 0 1-1.8-1.4 5.94 5.94 0 0 1-1.3-1.8 6.56 6.56 0 0 1-.8-2.1 8.91 8.91 0 0 1-.3-2.2zm2.5 0a7.51 7.51 0 0 0 .5 2.6 4.83 4.83 0 0 0 1.4 2 7.44 7.44 0 0 0 2.1 1.3 7 7 0 0 0 5.21 0 7.44 7.44 0 0 0 2.1-1.3 7.18 7.18 0 0 0 1.4-2 5.26 5.26 0 0 0 .5-2.6 7.51 7.51 0 0 0-.5-2.6 4.83 4.83 0 0 0-1.4-2 7.44 7.44 0 0 0-2.1-1.3 7 7 0 0 0-5.21 0 7.44 7.44 0 0 0-2.1 1.3 7.18 7.18 0 0 0-1.4 2 5.26 5.26 0 0 0-.49 2.6zM776 464.69v16.9h-2.4v-13.2l-5.21 6.5H768l-5.21-6.5v13.2h-2.4v-16.9h2.3l5.61 7 5.61-7zM780.42 464.69l6.11 14.1 5-14.1h2.4l-6.31 16.9a9.12 9.12 0 0 1-.8 1.7 6.23 6.23 0 0 1-.9 1.2 4.13 4.13 0 0 1-1.1.7 5.86 5.86 0 0 1-1.3.2 5 5 0 0 1-1.2-.2 3.93 3.93 0 0 1-.9-.4v-2.2a2.36 2.36 0 0 0 .9.6 5.08 5.08 0 0 0 1.3.2 1.27 1.27 0 0 0 .6-.1 2.09 2.09 0 0 0 .6-.4 2.65 2.65 0 0 0 .5-.6 6.89 6.89 0 0 0 .3-.8l-7.41-16.9h2.2zM802.14 473.19a8.8 8.8 0 0 1 .6-3.3 8.39 8.39 0 0 1 1.8-2.8 8.61 8.61 0 0 1 2.9-1.9 9.06 9.06 0 0 1 3.7-.7 9.22 9.22 0 0 1 3.8.7 9.73 9.73 0 0 1 2.9 1.9 7.5 7.5 0 0 1 1.8 2.8 9.18 9.18 0 0 1 .6 3.3 9.59 9.59 0 0 1-.6 3.3 7.5 7.5 0 0 1-1.8 2.8 8.61 8.61 0 0 1-2.9 1.9 9.22 9.22 0 0 1-3.8.7 10.92 10.92 0 0 1-2.6-.3 8.5 8.5 0 0 1-2.2-.9 6.23 6.23 0 0 1-1.8-1.4 5.94 5.94 0 0 1-1.3-1.8 6.56 6.56 0 0 1-.8-2.1 8.91 8.91 0 0 1-.3-2.2zm2.5 0a7.51 7.51 0 0 0 .5 2.6 4.83 4.83 0 0 0 1.4 2 7.44 7.44 0 0 0 2.1 1.3 7 7 0 0 0 5.21 0 7.44 7.44 0 0 0 2.1-1.3 7.18 7.18 0 0 0 1.4-2 5.26 5.26 0 0 0 .5-2.6 7.51 7.51 0 0 0-.5-2.6 4.83 4.83 0 0 0-1.4-2 7.44 7.44 0 0 0-2.1-1.3 7 7 0 0 0-5.21 0 7.44 7.44 0 0 0-2.1 1.3 7.18 7.18 0 0 0-1.4 2 5.26 5.26 0 0 0-.5 2.6zM823.16 464.69h5.31a6.06 6.06 0 0 1 2.4.4 6.94 6.94 0 0 1 1.7 1 4.35 4.35 0 0 1 1 1.6 6.16 6.16 0 0 1 0 3.8 4 4 0 0 1-1 1.5 5.25 5.25 0 0 1-1.8 1 9.37 9.37 0 0 1-2.5.4h-2.5v7.3h-2.4v-17zm2.5 2.2v5.2h2.7a3.74 3.74 0 0 0 1.2-.2 1.94 1.94 0 0 0 .9-.5 1.56 1.56 0 0 0 .6-.8 3.59 3.59 0 0 0 .2-1.1 2.77 2.77 0 0 0-.1-.9 1.37 1.37 0 0 0-.5-.8 3.49 3.49 0 0 0-.9-.6 3 3 0 0 0-1.4-.2h-2.7zM847.89 469.19l-10.71 12.6H836v-17.1h2.4v12.9l10.71-12.9h1.2v16.9h-2.4zM863.7 464.69v2.2h-7.21V472h6.91v2.2h-6.91v5.3h7.41v2.2h-9.81v-16.9h9.61zM880.82 464.69v16.9h-2.4v-7.4h-9.51v7.4h-2.4v-16.9h2.4v7.4h9.51v-7.4zM897.34 464.69v2.2h-5.81v14.7h-2.4v-14.7h-5.81v-2.2zM911.55 469.19l-10.71 12.6h-1.2v-17.1H902v12.9l10.71-12.9H914v16.9h-2.4zM917.56 464.69h5.31a6.06 6.06 0 0 1 2.4.4 6.94 6.94 0 0 1 1.7 1 4.35 4.35 0 0 1 1 1.6 6.16 6.16 0 0 1 0 3.8 4 4 0 0 1-1 1.5 5.25 5.25 0 0 1-1.8 1 9.37 9.37 0 0 1-2.5.4h-2.5v7.3h-2.6zm2.4 2.2v5.2h2.7a3.74 3.74 0 0 0 1.2-.2 1.94 1.94 0 0 0 .9-.5 1.56 1.56 0 0 0 .6-.8 3.59 3.59 0 0 0 .2-1.1 2.77 2.77 0 0 0-.1-.9 1.37 1.37 0 0 0-.5-.8 3.49 3.49 0 0 0-.9-.6 3 3 0 0 0-1.4-.2H920zM929.57 473.19a8.8 8.8 0 0 1 .6-3.3 8.39 8.39 0 0 1 1.8-2.8 8.61 8.61 0 0 1 2.9-1.9 9.06 9.06 0 0 1 3.7-.7 9.22 9.22 0 0 1 3.8.7 9.73 9.73 0 0 1 2.9 1.9 7.5 7.5 0 0 1 1.8 2.8 9.18 9.18 0 0 1 .6 3.3 9.59 9.59 0 0 1-.6 3.3 7.5 7.5 0 0 1-1.8 2.8 8.61 8.61 0 0 1-2.9 1.9 9.22 9.22 0 0 1-3.8.7 10.92 10.92 0 0 1-2.6-.3 8.5 8.5 0 0 1-2.2-.9 6.23 6.23 0 0 1-1.8-1.4 5.94 5.94 0 0 1-1.3-1.8 6.56 6.56 0 0 1-.8-2.1 8.91 8.91 0 0 1-.3-2.2zm2.5 0a7.51 7.51 0 0 0 .5 2.6 4.83 4.83 0 0 0 1.4 2 7.44 7.44 0 0 0 2.1 1.3 7 7 0 0 0 5.21 0 7.44 7.44 0 0 0 2.1-1.3 7.18 7.18 0 0 0 1.4-2 5.26 5.26 0 0 0 .5-2.6 7.51 7.51 0 0 0-.5-2.6 4.83 4.83 0 0 0-1.4-2 7.44 7.44 0 0 0-2.1-1.3 7 7 0 0 0-5.21 0 7.44 7.44 0 0 0-2.1 1.3 7.18 7.18 0 0 0-1.4 2 5.26 5.26 0 0 0-.5 2.6zM950.79 481.59v-16.9h4.91a5.28 5.28 0 0 1 2.3.4 3.66 3.66 0 0 1 1.6 1 4.19 4.19 0 0 1 .9 1.4 4.14 4.14 0 0 1 .3 1.6 3.47 3.47 0 0 1-2.6 3.6 4.93 4.93 0 0 1 1.7.6 6.43 6.43 0 0 1 1.3 1 3.53 3.53 0 0 1 .8 1.3 4.14 4.14 0 0 1 .3 1.6 5 5 0 0 1-.3 1.6 3.6 3.6 0 0 1-1 1.5 5.45 5.45 0 0 1-1.8 1.1 7 7 0 0 1-2.7.4h-5.71zm2.4-14.7V472h1.6a4.16 4.16 0 0 0 2.7-.7 2.26 2.26 0 0 0 .9-2 2.77 2.77 0 0 0-.1-.9 3.51 3.51 0 0 0-.5-.8 1.94 1.94 0 0 0-.9-.5 5.22 5.22 0 0 0-1.4-.2h-2.3zm0 7.2v5.3h3.1a9 9 0 0 0 1.8-.2 5.43 5.43 0 0 0 1.1-.6 1.8 1.8 0 0 0 .6-.9 3 3 0 0 0 .2-1 4.25 4.25 0 0 0-.2-1.1 1.78 1.78 0 0 0-.7-.8 3.34 3.34 0 0 0-1.2-.5 8 8 0 0 0-1.7-.2zM971.91 464.59l7.61 17H977l-2.3-5h-7.21l-2.1 5h-2.5l7.31-17zm-.9 3.7l-2.5 6.1h5.31zM995.64 464.69v16.9h-2.4v-7.4h-9.51v7.4h-2.4v-16.9h2.4v7.4h9.51v-7.4zM1011.35 469.19l-10.71 12.6h-1.2v-17.1h2.4v12.9l10.71-12.9h1.2v16.9h-2.4zM1020 481.59h-2.4v-16.9h2.4v7.4h2.6a7.5 7.5 0 0 1 .9-3 8.76 8.76 0 0 1 1.9-2.4 9.2 9.2 0 0 1 2.7-1.6 9.91 9.91 0 0 1 3.5-.6 9.22 9.22 0 0 1 3.8.7 9.73 9.73 0 0 1 2.9 1.9 7.5 7.5 0 0 1 1.8 2.8 9.18 9.18 0 0 1 .6 3.3 9.59 9.59 0 0 1-.6 3.3 7.5 7.5 0 0 1-1.8 2.8 8.61 8.61 0 0 1-2.9 1.9 9.22 9.22 0 0 1-3.8.7 9.91 9.91 0 0 1-3.5-.6 9.2 9.2 0 0 1-2.7-1.6 8.76 8.76 0 0 1-1.9-2.4 7.54 7.54 0 0 1-.9-2.9h-2.7v7.2zm5-8.4a7.5 7.5 0 0 0 .5 2.6 4.83 4.83 0 0 0 1.4 2 5.72 5.72 0 0 0 2.1 1.3 7 7 0 0 0 5.21 0 7.44 7.44 0 0 0 2.1-1.3 9 9 0 0 0 1.4-2 5.26 5.26 0 0 0 .5-2.6 7.5 7.5 0 0 0-.5-2.6 4.83 4.83 0 0 0-1.4-2 5.72 5.72 0 0 0-2.1-1.3 7 7 0 0 0-5.21 0 7.44 7.44 0 0 0-2.1 1.3 9 9 0 0 0-1.4 2 5.26 5.26 0 0 0-.5 2.6z"/><path class="cls-28" d="M368.39 360.39h4.5l-12.71 31.5h-1L349 366.39l-10.41 25.5h-1l-12.61-31.5h4.5l8.61 21.6 8.71-21.6h4.2l8.71 21.6zM389.91 359.89a16.78 16.78 0 0 1 12.11 4.6 15.31 15.31 0 0 1 4.8 11.5 14.9 14.9 0 0 1-4.91 11.5 17.63 17.63 0 0 1-12.31 4.5 16.41 16.41 0 0 1-11.81-4.5 16.28 16.28 0 0 1 .1-23 17 17 0 0 1 12.02-4.6zm.2 4.3a11.85 11.85 0 0 0-8.81 3.4 11.44 11.44 0 0 0-3.5 8.6 11.16 11.16 0 0 0 3.5 8.4 13 13 0 0 0 17.52 0 11.6 11.6 0 0 0 3.5-8.6 11.47 11.47 0 0 0-3.5-8.4 12.09 12.09 0 0 0-8.71-3.4zM412.54 391.69v-31.3h7.91a11.37 11.37 0 0 1 7.61 2.4 7.86 7.86 0 0 1 2.8 6.4 8.15 8.15 0 0 1-1.4 4.7 8.55 8.55 0 0 1-3.9 3 14.56 14.56 0 0 1 2.9 2.7 43.67 43.67 0 0 1 4 5.9c1.1 1.8 2 3.1 2.6 4l1.7 2.2h-5.31l-1.4-2.1c0-.1-.1-.2-.3-.4l-.9-1.2-1.4-2.3-1.5-2.4a33.14 33.14 0 0 0-2.5-3.1 6.88 6.88 0 0 0-2.1-1.6 7.62 7.62 0 0 0-3.1-.5H417v13.7h-4.5zm5.91-27.5H417v9.9h1.7a12.59 12.59 0 0 0 4.7-.6 4.76 4.76 0 0 0 2.7-4.5 5 5 0 0 0-.8-2.7 4.15 4.15 0 0 0-2.2-1.7 18 18 0 0 0-4.66-.4zM440.27 360.39h4.5v27.3h14.11v4.1h-18.61zM462.89 391.69v-31.3h10.61c4.3 0 7.61.6 10.11 1.9a14.48 14.48 0 0 1 5.91 5.6 15.82 15.82 0 0 1 1 14.1 16 16 0 0 1-3.5 5.1 15.56 15.56 0 0 1-5.31 3.4 11.74 11.74 0 0 1-3.3.9 39.08 39.08 0 0 1-5.71.2h-9.81zm10.11-27.3h-5.61v23.3h5.71a22.75 22.75 0 0 0 5.21-.5 11.16 11.16 0 0 0 3.1-1.2 19.54 19.54 0 0 0 2.3-1.7 11.6 11.6 0 0 0 3.3-8.5 10.5 10.5 0 0 0-3.4-8.2 12.42 12.42 0 0 0-2.9-2 13.93 13.93 0 0 0-3.1-1 27.75 27.75 0 0 0-4.61-.2zM556.29 378.59l-3.4-2.1a15.58 15.58 0 0 1-4.6-3.9 7.44 7.44 0 0 1-1.4-4.4 7.64 7.64 0 0 1 2.6-6 9.74 9.74 0 0 1 6.71-2.3 12.49 12.49 0 0 1 7.21 2.2v5.1a10.43 10.43 0 0 0-7.31-3.3 5.71 5.71 0 0 0-3.6 1 3.14 3.14 0 0 0-1.4 2.6 3.87 3.87 0 0 0 1 2.6 12.93 12.93 0 0 0 3.4 2.6l3.4 2q5.71 3.45 5.71 8.7a7.78 7.78 0 0 1-2.5 6.1 9.26 9.26 0 0 1-6.61 2.4A14.11 14.11 0 0 1 547 389v-5.7c2.4 3.1 5.21 4.6 8.41 4.6a5.14 5.14 0 0 0 3.5-1.2 3.85 3.85 0 0 0 1.4-2.9c.08-1.71-1.31-3.51-4.02-5.21zM587.32 360.39h5.61l-13.61 14.9 16.92 16.4h-6.11l-16-15.5v15.5h-4.5v-31.3h4.5v14.3zM599.73 360.39h4.5v31.4h-4.5zM639.47 359.89a16.78 16.78 0 0 1 12.11 4.6 15.31 15.31 0 0 1 4.8 11.5 14.9 14.9 0 0 1-4.91 11.5 17.63 17.63 0 0 1-12.31 4.5 16.41 16.41 0 0 1-11.81-4.5 16.28 16.28 0 0 1 .1-23 16.8 16.8 0 0 1 12.02-4.6zm.1 4.3a11.85 11.85 0 0 0-8.81 3.4 11.44 11.44 0 0 0-3.5 8.6 11.16 11.16 0 0 0 3.5 8.4 13 13 0 0 0 17.52 0 11.6 11.6 0 0 0 3.5-8.6 11.47 11.47 0 0 0-3.5-8.4 12.09 12.09 0 0 0-8.71-3.4zM662.09 391.69v-31.3H670a11.37 11.37 0 0 1 7.61 2.4 7.86 7.86 0 0 1 2.8 6.4 8.15 8.15 0 0 1-1.4 4.7 8.55 8.55 0 0 1-3.9 3 14.56 14.56 0 0 1 2.9 2.7 43.67 43.67 0 0 1 4 5.9c1.1 1.8 2 3.1 2.6 4l1.7 2.2H681l-1.4-2.1c0-.1-.1-.2-.3-.4l-.9-1.2-1.4-2.3-1.5-2.4a33.14 33.14 0 0 0-2.5-3.1 6.88 6.88 0 0 0-2.1-1.6 7.62 7.62 0 0 0-3.1-.5h-1.2v13.7h-4.5zm5.81-27.5h-1.3v9.9h1.7a12.59 12.59 0 0 0 4.7-.6 4.76 4.76 0 0 0 2.7-4.5 5 5 0 0 0-.8-2.7 4.15 4.15 0 0 0-2.2-1.7 18.87 18.87 0 0 0-4.8-.4zM689.72 360.39h4.5v31.4h-4.5zM701.23 360.39h17.82v4h-13.31V374h12.81v4h-12.81v9.7h13.71v4h-18.22zM749.18 360.39h4.3v31.4h-3.9l-21-24.2v24.2h-4.2v-31.4H728l21.12 24.4v-24.4zM757.49 360.29h26.23v4h-10.91v27.4h-4.5v-27.4h-10.82zM787.92 360.39h17.82v4h-13.31V374h12.81v4h-12.81v9.7h13.71v4h-18.22zM810.95 360.39h17.82v4h-13.32V374h12.81v4h-12.81v9.7h13.71v4h-18.21zM834.17 391.69v-31.3h7.91a11.37 11.37 0 0 1 7.61 2.4 7.86 7.86 0 0 1 2.8 6.4 8.15 8.15 0 0 1-1.4 4.7 8.55 8.55 0 0 1-3.9 3 14.56 14.56 0 0 1 2.9 2.7 43.67 43.67 0 0 1 4 5.9c1.1 1.8 2 3.1 2.6 4l1.7 2.2h-5.31l-1.4-2.1c0-.1-.1-.2-.3-.4l-.9-1.2-1.4-2.3-1.5-2.4a33.14 33.14 0 0 0-2.5-3.1 6.88 6.88 0 0 0-2.1-1.6 7.62 7.62 0 0 0-3.1-.5h-1.2v13.7h-4.5zm5.81-27.5h-1.3v9.9h1.7a12.59 12.59 0 0 0 4.7-.6 4.76 4.76 0 0 0 2.7-4.5 5 5 0 0 0-.8-2.7 4.15 4.15 0 0 0-2.2-1.7 18.87 18.87 0 0 0-4.78-.4zM861.8 360.39h4.5v31.4h-4.5zM898.24 360.39h4.3v31.4h-3.9l-21-24.2v24.2h-4.2v-31.4H877l21.12 24.4v-24.4zM926.17 376.29h10.51v13.3a28.49 28.49 0 0 1-11.51 2.5c-5.21 0-9.31-1.5-12.41-4.5a15.09 15.09 0 0 1-4.7-11.2 15.6 15.6 0 0 1 4.8-11.7A16.86 16.86 0 0 1 925 360a20.19 20.19 0 0 1 5 .6 44.17 44.17 0 0 1 6 2.1v4.6a21.87 21.87 0 0 0-11.11-3.3 12.18 12.18 0 0 0-8.71 3.5 11.76 11.76 0 0 0-3.5 8.6 11.51 11.51 0 0 0 3.5 8.7 12.81 12.81 0 0 0 9.11 3.4 21.47 21.47 0 0 0 6.41-1.2l.4-.1v-6.5h-6v-4.1zM355.48 436.29v4.9a23.47 23.47 0 0 1-11.41 2.7 17.53 17.53 0 0 1-8.91-2.1 15.39 15.39 0 0 1-5.81-5.8 15.93 15.93 0 0 1-2.1-8 15 15 0 0 1 4.91-11.5 17 17 0 0 1 12-4.7 28.71 28.71 0 0 1 11 2.6v4.8a21.79 21.79 0 0 0-10.81-3.1 12.08 12.08 0 0 0-8.91 3.4 11.62 11.62 0 0 0-3.6 8.5 11.38 11.38 0 0 0 3.5 8.5 12.5 12.5 0 0 0 9 3.3 20.47 20.47 0 0 0 11.14-3.5zM383.11 412.19h4.5v31.4h-4.5v-13.7h-17.62v13.7H361v-31.4h4.5v13.6h17.62zM404.63 412h3.2l14.11 31.5h-4.6l-4.2-9.3h-13.42l-3.9 9.3h-4.6zm6.61 18.3l-5.11-11.4-4.7 11.4zM450.28 412.19h4.2v31.4H450v-24.4l-9.61 12.1h-.8l-9.81-12.1v24.4h-4.5v-31.4h4.3l10.42 12.9zM461 443.59v-31.4h9.91a10.46 10.46 0 0 1 7.21 2.4 8.3 8.3 0 0 1 2.7 6.5 8.71 8.71 0 0 1-1.4 4.8 8.6 8.6 0 0 1-3.7 3.1 20 20 0 0 1-6.81 1h-3.3v13.6zm9.11-27.4h-4.6V426h4.91a6.05 6.05 0 0 0 4.2-1.3 4.68 4.68 0 0 0 1.5-3.7q-.02-4.81-6.02-4.81zM484.71 412.19h4.5v31.4h-4.5zM511.54 411.79a16.78 16.78 0 0 1 12.11 4.6 15.31 15.31 0 0 1 4.8 11.5 14.9 14.9 0 0 1-4.91 11.5 17.63 17.63 0 0 1-12.31 4.5 16.41 16.41 0 0 1-11.81-4.5 16.28 16.28 0 0 1 .1-23 17 17 0 0 1 12.02-4.6zm.2 4.2a11.85 11.85 0 0 0-8.81 3.4 11.44 11.44 0 0 0-3.5 8.6 11.16 11.16 0 0 0 3.5 8.4 13 13 0 0 0 17.52 0 11.6 11.6 0 0 0 3.5-8.6 11.47 11.47 0 0 0-3.5-8.4 12.52 12.52 0 0 0-8.71-3.39zM559 412.19h4.3v31.4h-3.9l-21-24.2v24.2h-4.2v-31.4h3.6l21.12 24.4v-24.4zM577.81 430.39l-3.4-2.1a15.58 15.58 0 0 1-4.6-3.9 7.44 7.44 0 0 1-1.4-4.4 7.64 7.64 0 0 1 2.6-6 9.74 9.74 0 0 1 6.71-2.3 12.49 12.49 0 0 1 7.21 2.2V419a10.43 10.43 0 0 0-7.31-3.3 5.71 5.71 0 0 0-3.6 1 3.14 3.14 0 0 0-1.4 2.6 3.87 3.87 0 0 0 1 2.6 12.93 12.93 0 0 0 3.4 2.6l3.4 2q5.71 3.45 5.71 8.7a7.78 7.78 0 0 1-2.5 6.1 9.26 9.26 0 0 1-6.61 2.4 14.11 14.11 0 0 1-8.51-2.9v-5.7c2.4 3.1 5.21 4.6 8.41 4.6a5.14 5.14 0 0 0 3.5-1.2 3.85 3.85 0 0 0 1.4-2.9c.09-1.6-1.31-3.51-4.01-5.21zM613.24 412.19h4.5v31.4h-4.5v-13.7h-17.61v13.7h-4.5v-31.4h4.5v13.6h17.62zM624.66 412.19h4.5v31.4h-4.5zM635.87 443.59v-31.4h9.91a10.46 10.46 0 0 1 7.21 2.4 8.3 8.3 0 0 1 2.7 6.5 8.71 8.71 0 0 1-1.4 4.8 8.6 8.6 0 0 1-3.7 3.1 20 20 0 0 1-6.81 1h-3.3v13.6zm9.21-27.4h-4.6V426h4.91a6.05 6.05 0 0 0 4.2-1.3 4.68 4.68 0 0 0 1.5-3.7q-.01-4.81-6.01-4.81zM667.4 430.39l-3.4-2.1a15.58 15.58 0 0 1-4.6-3.9A7.44 7.44 0 0 1 658 420a7.64 7.64 0 0 1 2.6-6 9.74 9.74 0 0 1 6.71-2.3 12.49 12.49 0 0 1 7.21 2.2v5.1a10.43 10.43 0 0 0-7.31-3.3 5.71 5.71 0 0 0-3.6 1 3.14 3.14 0 0 0-1.4 2.6 3.87 3.87 0 0 0 1 2.6 12.93 12.93 0 0 0 3.4 2.6l3.4 2q5.71 3.45 5.71 8.7a7.78 7.78 0 0 1-2.5 6.1 9.26 9.26 0 0 1-6.61 2.4 14.11 14.11 0 0 1-8.51-2.9v-5.7c2.4 3.1 5.21 4.6 8.41 4.6a5.14 5.14 0 0 0 3.5-1.2 3.85 3.85 0 0 0 1.4-2.9c.09-1.6-1.31-3.51-4.01-5.21z"/><path class="cls-27" d="M711.25 412.19h5.61l-13.61 14.9 16.92 16.5H714l-16-15.5v15.5h-4.5v-31.4h4.5v14.3zM723.76 443.59v-31.4h7.91a11.37 11.37 0 0 1 7.61 2.4 7.86 7.86 0 0 1 2.8 6.4 8.15 8.15 0 0 1-1.4 4.7 8.55 8.55 0 0 1-3.9 3 14.56 14.56 0 0 1 2.9 2.7 43.67 43.67 0 0 1 4 5.9c1.1 1.8 2 3.1 2.6 4l1.7 2.2h-5.31l-1.4-2.1c0-.1-.1-.2-.3-.4l-.9-1.2-1.4-2.3-1.5-2.4a33.14 33.14 0 0 0-2.5-3.1 6.88 6.88 0 0 0-2.1-1.6 7.62 7.62 0 0 0-3.1-.5h-1.2v13.7zm5.91-27.6h-1.3v9.9h1.7a12.59 12.59 0 0 0 4.7-.6 4.76 4.76 0 0 0 2.7-4.5 5 5 0 0 0-.8-2.7 4.15 4.15 0 0 0-2.2-1.7 26 26 0 0 0-4.81-.39zM761.5 412h3.2l14.11 31.5h-4.6l-4.2-9.3h-13.42l-3.9 9.3h-4.6zm6.61 18.3L763 418.89l-4.7 11.4zM789.93 430.39l-3.4-2.1a15.58 15.58 0 0 1-4.6-3.9 7.44 7.44 0 0 1-1.4-4.4 7.64 7.64 0 0 1 2.6-6 9.74 9.74 0 0 1 6.71-2.3 12.49 12.49 0 0 1 7.21 2.2V419a10.43 10.43 0 0 0-7.31-3.3 5.71 5.71 0 0 0-3.6 1 3.14 3.14 0 0 0-1.4 2.6 3.87 3.87 0 0 0 1 2.6 12.93 12.93 0 0 0 3.4 2.6l3.4 2q5.71 3.45 5.71 8.7a7.78 7.78 0 0 1-2.5 6.1 9.26 9.26 0 0 1-6.61 2.4 14.11 14.11 0 0 1-8.51-2.9v-5.7c2.4 3.1 5.21 4.6 8.41 4.6a5.14 5.14 0 0 0 3.5-1.2 3.85 3.85 0 0 0 1.4-2.9c.06-1.6-1.31-3.51-4.01-5.21zM828.17 412.19h4.3v31.4h-3.9l-21-24.2v24.2h-4.2v-31.4h3.6l21.12 24.4v-24.4zM854.59 411.79a16.78 16.78 0 0 1 12.11 4.6 15.31 15.31 0 0 1 4.8 11.5 14.9 14.9 0 0 1-4.91 11.5 17.63 17.63 0 0 1-12.31 4.5 16.41 16.41 0 0 1-11.81-4.5 16.28 16.28 0 0 1 .1-23 16.8 16.8 0 0 1 12.02-4.6zm.2 4.2a11.85 11.85 0 0 0-8.81 3.4 11.44 11.44 0 0 0-3.5 8.6 11.16 11.16 0 0 0 3.5 8.4 13 13 0 0 0 17.52 0 11.6 11.6 0 0 0 3.5-8.6 11.47 11.47 0 0 0-3.5-8.4 12.7 12.7 0 0 0-8.71-3.39zM892.23 412.19h5.51L886.13 427v16.6h-4.6V427l-11.61-14.8h5.41l8.41 10.8zM906.15 412h3.2l14.11 31.5h-4.6l-4.2-9.3h-13.42l-3.9 9.3h-4.6zm6.61 18.3l-5.11-11.4-4.7 11.4zM927 443.59v-31.4h7.91a11.37 11.37 0 0 1 7.61 2.4 7.86 7.86 0 0 1 2.8 6.4 8.15 8.15 0 0 1-1.4 4.7 8.55 8.55 0 0 1-3.9 3 14.56 14.56 0 0 1 2.9 2.7 43.67 43.67 0 0 1 4 5.9c1.1 1.8 2 3.1 2.6 4l1.7 2.2h-5.31l-1.4-2.1c0-.1-.1-.2-.3-.4l-.9-1.2-1.4-2.3-1.5-2.4a33.14 33.14 0 0 0-2.5-3.1 6.88 6.88 0 0 0-2.1-1.6 7.62 7.62 0 0 0-3.1-.5h-1.2v13.7zm5.81-27.6h-1.3v9.9h1.7a12.59 12.59 0 0 0 4.7-.6 4.76 4.76 0 0 0 2.7-4.5 5 5 0 0 0-.8-2.7 4.15 4.15 0 0 0-2.2-1.7 25.11 25.11 0 0 0-4.84-.39zM962.4 430.39l-3.4-2.1a15.58 15.58 0 0 1-4.6-3.9A7.44 7.44 0 0 1 953 420a7.64 7.64 0 0 1 2.6-6 9.74 9.74 0 0 1 6.71-2.3 12.49 12.49 0 0 1 7.21 2.2v5.1a10.43 10.43 0 0 0-7.31-3.3 5.71 5.71 0 0 0-3.6 1 3.14 3.14 0 0 0-1.4 2.6 3.87 3.87 0 0 0 1 2.6 12.93 12.93 0 0 0 3.4 2.6l3.4 2q5.71 3.45 5.71 8.7a7.78 7.78 0 0 1-2.5 6.1 9.26 9.26 0 0 1-6.61 2.4 14.11 14.11 0 0 1-8.51-2.9v-5.7c2.4 3.1 5.21 4.6 8.41 4.6a5.14 5.14 0 0 0 3.5-1.2 3.85 3.85 0 0 0 1.4-2.9c.1-1.6-1.3-3.51-4.01-5.21zM993.44 412.19H999l-13.61 14.9 16.92 16.5h-6.11l-16-15.5v15.5h-4.5v-31.4h4.5v14.3zM1024.67 439.19h11.91v4.3h-19.82v-.3l1.9-2.2c2.9-3.7 5.31-6.8 7-9.3a34.07 34.07 0 0 0 3.4-5.8 10.87 10.87 0 0 0 .8-3.9 6.09 6.09 0 0 0-1.5-4.3 5.07 5.07 0 0 0-4-1.6 7.24 7.24 0 0 0-3.7 1.1 12 12 0 0 0-3.3 3.1v-5.7a11.82 11.82 0 0 1 7.51-3 9.29 9.29 0 0 1 6.81 2.7 9.41 9.41 0 0 1 2.7 7 11.63 11.63 0 0 1-.7 4 26 26 0 0 1-2.3 4.9 66.64 66.64 0 0 1-5.71 7.6zM1049.89 411.79c2.9 0 5.21 1.5 7.11 4.5s2.8 6.8 2.8 11.5-.9 8.6-2.8 11.6-4.3 4.5-7.31 4.5a8.38 8.38 0 0 1-7.31-4.4c-1.8-2.9-2.8-6.8-2.8-11.6s1-8.6 2.9-11.6 4.41-4.5 7.41-4.5zm0 4.3h-.2c-1.7 0-3.1 1.1-4.1 3.2a25.67 25.67 0 0 0 0 17.3c1 2.1 2.3 3.2 4.1 3.2s3.1-1.1 4.1-3.2a20.4 20.4 0 0 0 1.5-8.6 23.23 23.23 0 0 0-1.4-8.7c-.99-2.2-2.29-3.2-4-3.2zM1070.52 412.19h4.5v31.4h-4.5zM1086.43 412.19h20.32l-14.21 31.7-4-1.7 11.51-25.8h-13.61v-4.2zM521.95 366l-16.82-9.6V395l16.82-9.6 16.72-9.6zm-12.81 23.1v-26.8l23.22 13.4zM173.39 408.09l-24.63 16.9 4.71 14.7 33.23-2.8.51-.5-13.82-28.3z"/><path class="cls-29" d="M165.98 392.79l-22.62 14.3 3.5 11.8 23.83-16.5-4.71-9.6zM160.78 464.09l19.32-20.2-24.93 2.1 5.61 18.1z"/><path class="cls-30" d="M191.81 431.59l10.81-11.3-13.01-23.4-11.01 7.6 13.21 27.1z"/><path class="cls-27" d="M216.94 397.19l-21.53-3 9.11 16.4 12.42-13.4z"/><path class="cls-30" d="M163.28 387.29l-20.92-3.5 4.5 13.9 16.42-10.4zM199.22 433.49l-19.82 20.7 28.43-2.8-8.61-17.9z"/><path class="cls-29" d="M133.05 395.29l-18.52 8.8 7.11 9.6 14.31-8.8-2.9-9.6z"/><path class="cls-31" d="M175.79 398.79l10.41-7.1-4.9-8.6-9.91 6.3 4.4 9.4zM158.07 477.29l4.01 14.6-15.22-2.5 11.21-12.1z"/><path class="cls-30" d="M185.3 366.99l-7.4-13.1 21.02 4.4-13.62 8.7z"/><path class="cls-27" d="M103.02 443.89l19.42-1.5-11.81 14.2-7.61-12.7z"/><path class="cls-31" d="M120.94 356.29l4.6 12.1-14.81-2.1 10.21-10zM125.64 418.59l12.21-7.8 3.61 11.8-8.21 5.7-7.61-9.7zM137.05 433.19l12.72 15.5-6.31-19.9-6.41 4.4zM257.88 388.79l-6.61-10.3-10.21 9.4 16.82.9z"/><path class="cls-30" d="M234.05 464.89l7.01 10.5 8.51-10.6-15.52.1z"/><path class="cls-32" d="M97.11 370v-.3a1 1 0 0 1 .4-.5L257.88 394l.2.5.2.5z"/><path class="cls-32" d="M97.61 369.19c-.2.2-.3.5-.5.7l161 25a2.35 2.35 0 0 1-.2-.8zM88 467.39l165.07-8.5a1.22 1.22 0 0 1-.3.9l-164.27 8.4z"/><path class="cls-32" d="M88.5 468l164.17-8.3a5.93 5.93 0 0 0 .4-.8l-165 8.3zM80.8 446.29l148.45-94.6a1.28 1.28 0 0 1 .6.4l.2.1-149 95z"/><path class="cls-32" d="M229.25 351.79L80.9 446.29l.2.7 148.75-94.7a2.65 2.65 0 0 0-.6-.5zM127.14 498.09l120.23-125 .7.5-120.33 125.1-.6-.6z"/><path class="cls-32" d="M127.24 497.99l.5.5 120.23-124.8-.5-.5-120.23 124.8z"/><path class="cls-32" d="M123.24 345l.4-.3.3-.2L175 509.69a1.49 1.49 0 0 1-.6.1h-.4z"/><path class="cls-32" d="M123.34 345l50.75 164.8h.8L124 344.59a1.61 1.61 0 0 0-.66.41zM153.07 333.09a1.62 1.62 0 0 1 .9-.3l83.49 148.8-.2.3-.4.4-.1.1z"/><path class="cls-32" d="M153.17 333l83.69 149.2c.2-.2.3-.4.5-.6L154 332.89c-.33 0-.53.11-.83.11z"/></svg>