<svg id="дизайн-макет_копия_" data-name="дизайн-макет (копия)" xmlns="http://www.w3.org/2000/svg" viewBox="0 0 1200 152"><defs><style>.cls-1{fill:none}.cls-2{fill:#0075c9}.cls-3{clip-path:url(#clip-path)}.cls-4{fill:#36b8eb}.cls-5{clip-path:url(#clip-path-2)}.cls-13,.cls-6{fill:#d7006d}.cls-7{fill:#38bcee}.cls-8{fill:#ceeafa}.cls-9{font-size:42.29px;letter-spacing:-.01em}.cls-10,.cls-9{fill:#fff}.cls-13,.cls-14,.cls-9{font-family:PFAgoraSansPro-Medium,PF Agora Sans Pro}.cls-11{clip-path:url(#clip-path-3)}.cls-12{clip-path:url(#clip-path-4)}.cls-13{font-size:28.02px}.cls-14{font-size:27.36px;fill:#00a8e1;letter-spacing:-.01em}.cls-15{fill:#0080c7}.cls-16{fill:#1d1d1b}.cls-17{fill:#008ed2}.cls-18{fill:#fabd00}.cls-19{fill:#00151d}.cls-20{fill:#00904c}.cls-21{fill:#e20521}.cls-22{fill:#e4007e}</style><clipPath id="clip-path"><path class="cls-1" d="M600.04 0H297.62l301.12 70.65L600.04 0z"/></clipPath><clipPath id="clip-path-2"><path class="cls-1" d="M.23 0h600v152H.23z"/></clipPath><clipPath id="clip-path-3"><path class="cls-1" d="M1200.23-1.22l-299.5 1.1 299.5 69.84V-1.22z"/></clipPath><clipPath id="clip-path-4"><path class="cls-1" d="M735.46 64.72h341.57v87.62H735.46z"/></clipPath></defs><title>double-banner</title><path class="cls-2" d="M.23 0h600v152H.23z"/><g class="cls-3"><path class="cls-4" d="M245.4-31.38l1-1L849.8 84.69l-1 1zM846.77 87.7l1-1L244.39-30.37l-1 1zm-2 2l1-1L242.36-28.37l-1 1zm-2 2l1-1L240.34-26.37l-1 1zm-2 2l1-1L238.31-24.36l-1 1zm-2 2l1-1L236.29-22.35l-1 1zm-2 2l1-1-603.5-117.05-1 1zm-2 2l1-1L232.25-18.34l-1 1zm-2 2l1-1L230.22-16.34l-1 1zm-2 2l1-1L228.2-14.33l-1 1zm-2 2l1-1L226.18-12.33l-1 1zm-2 2l1-1L224.16-10.32l-1 1zm-2 2l1-1L222.14-8.31l-1 1zm-2 2l1-1L220.12-6.32l-1 1zm-2 2l1-1-603.68-117-1 1zm-2 2l1-1-603.71-117-1 1zm-2 2l1-1L214-.29l-1 1zm-2 2l1-1L212 1.71l-1 1zm-2 2l1-1L210 3.72l-1 1zm-2 2l1-1L208 5.72l-1 1zm-2 2l1-1L205.95 7.73l-1 1zm-2 2l1-1L203.94 9.73l-1 1zm-2 2l1-1L201.91 11.74l-1 1zm-2 2l1-1L199.88 13.75l-1 1zm-2 2l1-1L197.86 15.75l-1 1zm-2 2l1-1L195.84 17.75l-1 1zm-2 2l1-1L193.82 19.77l-1 1zm-2 2l1-1L191.8 21.76l-1 1zm-2 2l1-1L189.78 23.77l-1 1zm-2 2l1-1L187.75 25.78l-1 1zm-2 2l1-1L185.73 27.78l-1 1zm-2 2l1-1L183.7 29.79l-1 1zm-2 2l1-1L181.68 31.79l-1 1zm-2 2l1-1L179.66 33.79l-1 1zm-2 2l1-1L177.64 35.8l-1 1zm-2 2l1-1L175.61 37.81l-1 1zm-2 2l1-1L173.59 39.81l-1 1zm-2 2l1-1L171.58 41.82l-1 1zm-2 2l1-1L169.55 43.83l-1 1zm-2 2l1-1L167.53 45.83l-1 1zm-2 2l1-1L165.5 47.83l-1 1zm-2 2l1-1L163.48 49.84l-1 1zm-2 2l1-1L161.46 51.84l-1 1zm-2 2l1-1L159.43 53.85l-1 1zm-2 2l1-1L157.4 55.86l-1 1zm-2 2l1-1L155.39 57.86l-1 1zm-2 2l1-1-604.4-116.83-1 1zm-2 2l1-1L151.34 61.87l-1 1zm-2 2l1-1L149.32 63.87l-1 1zm-2 2l1-1L147.29 65.88l-1 1zm-2 2l1-1L145.26 67.89l-1 1zm-2 2l1-1L143.25 69.89l-1 1zm-2 2l1-1L141.23 71.9l-1 1zm-2 2l1-1L139.21 73.9l-1 1zm-2 2l1-1L137.19 75.9l-1 1zm-2 2l1-1-604.6-116.78-1 1zm-2 2l1-1L133.14 79.92l-1 1zm-2 2l1-1L131.12 81.92l-1 1zm-2 2l1-1L129.09 83.93l-1 1zm-2 2l1-1-604.7-116.76-1 1zm-2 2l1-1L125.06 87.94l-1 1zm-2 2l1-1L123 89.94l-1 1zm-2 2l1-1L121 92l-1 1zm-2 2l1-1L119 94l-1 1zm-2 2l1-1L117 96l-1 1zm-2 2l1-1L114.93 98l-1 1zm-2 2l1-1L112.92 100l-1 1zm-2 2l1-1L110.89 102l-1 1zm-2 2l1-1L108.86 104l-1 1zM383-167.79l1-1L987.41-51.73l-1 1zM984.37-48.72l1-1L382-166.79l-1 1zm-2 2l1-1L380-164.78l-1 1zm-2 2l1-1-603.43-117.07-1 1zm-2 2l1-1-603.45-117.06-1 1zm-2 2l1-1-603.48-117.05-1 1zm-2 2l1-1-603.49-117.05-1 1zm-2 2l1-1-603.52-117.04-1 1zm-2 2l1-1-603.55-117.03-1 1zm-2 2l1-1-603.56-117.03-1 1zm-2 2l1-1-603.58-117.03-1 1zm-2 2l1-1-603.61-117.02-1 1zm-2 2l1-1-603.63-117.01-1 1zm-2 2l1-1-603.65-117.01-1 1zm-2 2l1-1-603.68-117-1 1zm-2 2l1-1-603.7-117-1 1zm-2 2l1-1-603.72-116.99-1 1zm-2 2l1-1-603.74-116.99-1 1zm-2 2l1-1-603.76-116.99-1 1zm-2 2l1-1-603.79-116.97-1 1zm-2 2l1-1-603.82-116.97-1 1zm-2 2l1-1-603.83-116.97-1 1zm-2 2l1-1-603.86-116.96-1 1zm-2 2l1-1-603.88-116.95-1 1zm-2 2l1-1-603.91-116.95-1 1zm-2 2l1-1-603.93-116.94-1 1zm-2 2l1-1-603.94-116.93-1 1zm-2 2l1-1L329.4-114.65l-1 1zm-2 2l1-1-603.99-116.93-1 1zm-2 2l1-1-604.02-116.92-1 1zm-2 2l1-1-604.04-116.92-1 1zm-2 2l1-1L321.3-106.64l-1 1zm-2 2l1-1-604.08-116.91-1 1zm-2 2l1-1-604.1-116.9-1 1zm-2 2l1-1-604.12-116.9-1 1zm-2 2l1-1L313.21-98.61l-1 1zm-2 2l1-1L311.19-96.61l-1 1zm-2 2l1-1L309.17-94.6l-1 1zm-2 2l1-1L307.15-92.59l-1 1zm-2 2l1-1L305.13-90.59l-1 1zm-2 2l1-1L303.11-88.58l-1 1zm-2 2l1-1L301.08-86.58l-1 1zm-2 2l1-1-604.3-116.85-1 1zm-2 2l1-1L297-82.57l-1 1zm-2 2l1-1L295-80.56l-1 1zm-2 2l1-1L293-78.56l-1 1zm-2 2l1-1L291-76.55l-1 1zm-2 2l1-1L288.94-74.55l-1 1zm-2 2l1-1L286.92-72.54l-1 1zm-2 2l1-1L284.89-70.54l-1 1zm-2 2l1-1L282.88-68.53l-1 1zm-2 2l1-1L280.85-66.53l-1 1zm-2 2l1-1-604.53-116.8-1 1zm-2 2l1-1-604.56-116.8-1 1zm-2 2l1-1-604.58-116.8-1 1zm-2 2l1-1L272.77-58.5l-1 1zm-2 2l1-1L270.74-56.5l-1 1zm-2 2l1-1L268.72-54.49l-1 1zm-2 2l1-1L266.7-52.49l-1 1zm-2 2l1-1L264.68-50.48l-1 1zm-2 2l1-1L262.66-48.48l-1 1zm-2 2l1-1L260.62-46.47l-1 1zm-2 2l1-1L258.6-44.47l-1 1zm-2 2l1-1L256.59-42.46l-1 1zm-2 2l1-1L254.56-40.46l-1 1zm-2 2l1-1L252.54-38.45l-1 1zm-2 2l1-1L250.52-36.45l-1 1zm-2 2l1-1L248.5-34.44l-1 1z"/></g><g class="cls-5"><path class="cls-6" d="M-.09 151.32l.15-59.29 136.46 26.4L-.09 151.32z"/><path class="cls-7" d="M523.62 195.38l-.92.62h2.52l.35-.24zm-5.84-1.17l-2.62 1.79h2.51l2.05-1.41zm-5.85-1.21l-4.32 3h2.51l3.76-2.57zm-5.85-1.17l-6 4.12h2.52l5.46-3.74zm-5.84-1.16L492.5 196h2.5l7.16-4.9zm-5.85-1.17L485 196h2.52l8.87-6.07zm-5.85-1.17L477.4 196h2.52l10.57-7.24zm-5.84-1.17L469.86 196h2.52l12.27-8.4zm-5.84-1.17L462.32 196h2.51l14-9.56zm-5.86-1.1L454.76 196h2.5L473 185.27zm-5.86-1.17l-18 12.28h2.52l17.38-11.9zm-5.84-1.17L439.66 196h2.52l19.09-13.06zm-5.84-1.17L432.11 196h2.51l20.79-14.23zm-5.85-1.17L424.56 196h2.53l22.49-15.39zm-5.84-1.16L417 196h2.52l24.19-16.56zm-5.85-1.16L409.47 196H412l25.9-17.72zm-5.85-1.17L401.91 196h2.52L432 177.11zm-5.83-1.17L394.37 196h2.52l29.3-20.05zm-5.85-1.17L386.82 196h2.52l31-21.22zm-5.85-1.17L379.27 196h2.51l32.71-22.39zm-5.84-1.16l-35 23.94h2.51l34.42-23.55zm-5.85-1.17L364.17 196h2.52l36.11-24.72zm-5.85-1.15L356.63 196h2.5L397 170.11zm-5.84-1.16L349.09 196h2.52l39.52-27zm-5.86-1.17L341.52 196H344l41.22-28.22zm-5.84-1.17L334 196h2.51l42.93-29.38zm-5.85-1.16L326.43 196h2.51l44.63-30.55zm-5.85-1.17l-46.9 32.1h2.53l46.34-31.71zm-5.84-1.16L311.33 196h2.52l48-32.88zm-5.85-1.17L303.78 196h2.51L356 162zm-5.84-1.16l-52 35.59h2.49l51.45-35.21zm-5.84-1.16L288.69 196h2.51l53.15-36.37zm-5.85-1.17L281.14 196h2.51l54.85-37.54zm-5.84-1.16L273.6 196h2.5l56.56-38.7zm-5.86-1.17L266 196h2.51l58.26-39.87zm-5.84-1.17L258.51 196H261l60-41zm-5.87-1.17L250.93 196h2.53l61.66-42.2zm-5.84-1.16L243.39 196h2.51l63.36-43.36zm-5.84-1.16L235.84 196h2.53l65.07-44.53zM2.25 151l-1.2.29v.53zm293.39-1.11L228.29 196h2.53l66.77-45.69zm-5.84-1.17l-69 47.25h2.52l68.47-46.86zM14 148.18l-3.87 1-9 6.16V157zm269.9-.6L213.21 196h2.51l70.18-48zm-5.86-1.16L205.63 196h2.53L280 146.81zm-252.3-1.08l-3.83.94-20.68 14.19v1.71zm246.51-.08L198.11 196h2.52l73.58-50.36zm-5.86-1.17L190.55 196h2.51l75.29-51.52zm-5.73-1.14L183.14 196h2.51l77-52.67zm-223.18-.46l-3.85.95-32.4 22.19v1.72zm217.34-.71L175.59 196h2.52l78.66-53.83zm-5.82-1.17L168 196h2.53l80.37-55zm-199.79-1l-3.86 1-44.12 30.18v1.72zm194-.19L160.5 196h2.5l82.07-56.16zm-5.86-1.17L152.94 196h2.52l83.77-57.33zm-5.85-1.16L145.4 196h2.52l85.47-58.5zm-170.52-.34l-3.85.95L1.23 176v1.72zm164.61-.75l-87.75 60h2.53l87.17-59.66zm-5.84-1.16L130.31 196h2.52l88.88-60.83zm-147.13-.86l-3.87 1-67.52 46.15v1.73zm141.28-.31L122.74 196h2.52l90.59-62zm-5.84-1.16L115.2 196h2.53L210 132.84zm-5.84-1.17L107.66 196h2.51l94-64.33zm-117.89-.2l-3.88 1-79.22 54.15V188zm112-1L100.11 196h2.49l95.7-65.49zm-5.81-1.14l-98 67h2.52l97.39-66.66zM96 128.24l-3.86.95-91 62.28v1.72zm88.63-.44L85 196h2.52l99.09-67.82zm-5.85-1.17L77.46 196H80l100.79-69zm-5.78-1.17L69.9 196h2.52l102.51-70.15zm-65.34-.06l-3.88.94L2 196h2.5zm59.51-1.1L62.37 196h2.51l104.21-71.32zm-5.86-1.17L54.81 196h2.52l105.92-72.48zm-41.9-.6l-3.91 1L9.51 196H12zm36.08-.57L47.26 196h2.51l107.61-73.65zm-5.86-1.17L39.72 196h2.5l109.32-74.82zm-18.52-1.11l-3.89.94L17.08 196h2.5zm12.67-.06L32.17 196h2.5l111-76zm-5.85-1.17L24.61 196h2.53l112.72-77.15z"/><path class="cls-8" d="M605.23 191.21l-7.29 4.79h2.52l4.77-3.06zm0-5.16l-14.79 10.09H593l12.25-8.37zm0-5.17l-22.32 15.25h2.53l19.79-13.54zm0-5.17l-29.87 20.41h2.53l27.34-18.69zm0-5.16l-37.39 25.56h2.53l34.86-23.84zm-.09-5.17l-44.88 30.72h2.52l42.38-29zm.09-5.17l-52.47 35.89h2.53l49.94-34.17zm0-5.16l-60 41h2.53l57.47-39.31zm0-5.17l-67.55 46.2h2.54l65-44.48zm0-5.16L530.11 196h2.5l72.62-49.56zm0-5.16l-82 56.1 2 .39 80.05-54.78zm0-5.18l-87.88 60.12 2 .39 85.9-58.77zm0-5.16l-93.72 64.11 2 .39 91.75-62.78zm0-5.17l-99.56 68.11 2 .39 97.59-66.78zm0-5.18L499.81 191l2 .39 103.42-70.79zm-462.43-2.08l-3.91 1-1.35.92 1.94.39zm11.79-2.89l-3.91 1-7.29 5 2 .38zm450.64-.18L494 189.83l2 .39 109.27-74.77zM166.33 111l-3.92 1-13.19 9 1.95.39zm438.9-2.47l-117.1 80.11 2 .39 115.13-78.77zm-427.13-.42l-3.91 1-19.12 13.09 1.94.39zm11.79-2.89l-3.92 1-25 17.14 2 .39zm415.35-1.85L482.29 187.5l2 .39 121-82.78zm-403.58-1l-3.92 1-31 21.19 1.95.39zm11.75-2.88l-3.9 1-36.89 25.25 1.93.39zm391.83-1.23l-128.78 88.07 2 .39L605.23 100zm-380-1.66l-3.93 1-42.81 29.3 2 .39zm11.75-2.88l-3.92 1L184.29 128l1.95.39zm368.29-.63l-134.62 92.1 2 .39 132.57-90.8zm-356.57-2.28l-3.92 1-54.66 37.41 1.95.39zm11.77-2.89l-3.91 1L196 130.35l1.94.38zm344.75 0L464.77 184l2 .39 138.5-94.78zM272.26 85l-3.93 1-66.5 45.51 2 .39zm333-2.31L458.92 182.83l2 .39 144.31-98.77zM284 82.14l-3.93 1-72.43 49.57 1.95.39zm11.75-2.89l-3.89 1-78.36 53.63 1.93.39zm309.36-1.69L453 181.66l1.94.39 150.2-102.76zm-297.56-1.2l-3.92 1L219.37 135l1.94.39zm11.76-2.89l-3.93 1-90.21 61.73 2 .39zm285.9-1.09l-158 108.11 2 .39 156-106.77zm-274.1-1.79l-3.91 1-96.14 65.8 1.94.39zm11.77-2.89l-3.94 1-102 69.84 2 .39zm262.35-.48L441.38 179.33l2 .39L605.23 68.95zm-250.6-2.4l-3.94 1-108 73.89 2 .39zm250.6-2.75L435.55 178.16l2 .39L605.23 63.79zm-238.82-.14l-3.93 1-113.9 78 1.95.39zM378.15 59l-3.9 1-119.82 82 1.93.39zm227.08-2.1L429.69 177l2 .39L605.23 58.62zM390 56.15l-3.93 1-125.8 86.03 2 .39zm11.75-2.88l-3.91 1-131.72 90.08 1.94.39zm203.53-1.53L423.85 175.83l2 .39L605.23 53.45zm-191.79-1.36l-3.95 1L272 145.51l2 .39zm11.74-2.88l-3.9 1-143.52 98.18 1.93.39zm180-.93L418 174.66l2 .39L605.23 48.29zM437 44.6l-3.91 1-149.44 102.25 1.94.39zm11.76-2.88l-3.9 1L289.5 149l1.94.39zm156.46-.33l-193.06 132.1 2 .39L605.23 43.12zm-144.67-2.56l-3.92 1-161.3 110.35 1.95.39zm144.68-2.6l-198.9 136.1 2 .39L605.23 38zm-132.9-.29l-3.92 1-167.22 114.41 1.94.39zm11.75-2.89l-3.94 1L307 152.51l2 .39zm121.15-2L400.48 171.16l2 .39L605.23 32.79zm-109.41-.89l-3.89 1-179.06 122.52 1.94.38zm11.81-2.89l-3.92 1-185 126.61 1.94.39zm97.6-1.27L394.75 170l2 .39L605.23 27.71zm-85.85-1.6l-3.92 1L324.56 156l1.95.39zm11.75-2.88l-3.88 1-196.84 134.66 1.94.39zm74.1-.69l-216.33 148 2 .39L605.23 22.55zm-62.31-2.2l-3.9 1-202.77 138.72 1.94.39zm11.78-2.89l-3.93 1-208.68 142.78 2 .39zm50.53-.07L383 167.68l2 .39L605.23 17.39zm-38.76-2.82l-3.94 1-214.6 146.83 1.94.39zm38.76-2.34l-228 156 2 .39 226-154.69zm-27-.55l-3.92 1-220.52 150.89 1.94.39zM590 7.07l-3.94 1L359.62 163l2 .39zm15.23-1.74l-233.87 160 2 .39L605.23 7zm-3.47-1.14l-3.93 1-232.37 159 2 .39z"/></g><text class="cls-9" transform="translate(90.04 83.46)">СТАНЬ ПАРТНЕРОМ!</text><path class="cls-6" d="M518.75 77.56l6.41 27.71 75.07-16.95V58.74l-81.48 18.82z"/><path class="cls-10" d="M538.56 99.22c-.4.09-.66.06-.85-.35 0 .44-.2.58-.6.67l-.89.19a.66.66 0 0 1-.83-.25l-.57-.62a.78.78 0 0 1-.31-.56l-1.56-6.78a.52.52 0 0 1 .45-.72.52.52 0 0 1 .72.45l1.57 6.75.44.49.51-.12.19-.63-.83-3.64c-.08-.37 0-.73.44-.82s.66.2.75.56l.85 3.68.45.49.5-.12.19-.63-1.56-6.78a.52.52 0 0 1 .46-.71.53.53 0 0 1 .73.44l1.54 6.79a.84.84 0 0 1 0 .64l-.26.8c-.12.39-.21.49-.62.58zM546.67 96.16l1.74-.39a.57.57 0 0 1 .73.46.55.55 0 0 1-.46.72L544 98a.55.55 0 0 1-.72-.46.54.54 0 0 1 .45-.71l1.74-.39-1.55-6.75-1.75.39a.56.56 0 0 1-.73-.45.56.56 0 0 1 .46-.71l4.66-1a.6.6 0 1 1 .28 1.17l-1.75.39zM554.68 86.66a.52.52 0 0 1 .46-.72.53.53 0 0 1 .73.45l2 8.51-1.56.35-4.76-6.25 1.45 6.39c.09.38 0 .61-.46.7a.53.53 0 0 1-.73-.45l-2-8.51 1.57-.45 4.76 6.32v.08zM559.84 86.11l.1.42a.54.54 0 0 1-.46.73.53.53 0 0 1-.73-.46l-.37-1.59 5.84-1.31.37 1.59a.61.61 0 0 1-1.19.26l-.1-.42-1.15.26 1.7 7.34a.61.61 0 0 1-1.19.27L561 85.84zM574 90a.56.56 0 0 1 .73.45.54.54 0 0 1-.46.71L569 92.38l-2.09-9.09 5.26-1.18a.56.56 0 0 1 .73.45.54.54 0 0 1-.46.71l-4.07.92L569 87l1.74-.4a.57.57 0 0 1 .73.45.56.56 0 0 1-.46.72l-1.74.4.64 2.79zM578.58 89.62a.52.52 0 0 1-.45.72.53.53 0 0 1-.73-.45l-2-8.51 4-.89a1.84 1.84 0 0 1 2.26 1.27l.18.81a1.73 1.73 0 0 1-1.49 2.07l-1.09.25 3.54 3.16a1.23 1.23 0 0 1 .43.55.58.58 0 0 1-.47.68.63.63 0 0 1-.6-.21l-4.33-3.87-.28.06zm-1.26-5.51l2.63-.59c.33-.07.84-.21.73-.69l-.18-.8c-.11-.47-.61-.42-1-.34l-2.64.6zM546.51 83.34l-.61-2.65a.59.59 0 0 1 .51-.8.6.6 0 0 1 .82.5l.77 3.31a.62.62 0 0 1-.51.8l-5.25 1.18a.62.62 0 0 1-.81-.51.61.61 0 0 1 .51-.8l2-.44-1.75-7.6-2 .44a.63.63 0 0 1-.81-.51.62.62 0 0 1 .52-.8l3.29-.74 2.06 8.91zM554.05 72.28a1.37 1.37 0 0 1 1.63 1l1.75 7.6a1.33 1.33 0 0 1-1 1.61l-3.92.88a1.35 1.35 0 0 1-1.63-1l-1.75-7.59a1.35 1.35 0 0 1 1-1.62zm2.05 8.9l-1.75-7.59-3.92.88 1.75 7.6zM563.63 70.13a1.38 1.38 0 0 1 1.63 1l1.74 7.61a1.33 1.33 0 0 1-1 1.61l-3.91.88a1.35 1.35 0 0 1-1.64-1l-1.74-7.6a1.35 1.35 0 0 1 1-1.62zm2.05 8.87l-1.75-7.6-3.92.88 1.76 7.6zM569.37 71.38a.72.72 0 0 1-.75-.09.85.85 0 0 1-.28-.56l-.17-.73a.79.79 0 0 1 0-.62c.12-.3.33-.34.63-.41l1-.21a.73.73 0 0 1 .75.1.86.86 0 0 1 .28.56l.17.74a.81.81 0 0 1 0 .62c-.13.29-.34.34-.63.4zm1.8 6.52a.74.74 0 0 1-1 .21.77.77 0 0 1-.21-.93l3.72-8a.71.71 0 0 1 .94-.21.75.75 0 0 1 .21.93zm3.94.4c-.29.07-.51.12-.75-.09a.88.88 0 0 1-.28-.56l-.17-.74a.89.89 0 0 1 0-.62c.13-.29.34-.34.64-.4l1-.22a.76.76 0 0 1 .75.1.94.94 0 0 1 .28.56l.17.73a.83.83 0 0 1 0 .63c-.12.29-.34.34-.63.41zM600.23 0h598v152.34h-598z"/><g class="cls-11"><path class="cls-4" d="M845.14-32.41l1-1L1450 83.77l-1 1zM1447 86.78l1-1L844.12-31.4l-1 1zm-2 2l1-1L842.09-29.39l-1 1zm-2 2l1-1L840.08-27.39l-1 1zm-2 2l1-1L838-25.38l-1 1zm-2 2l1-1L836-23.37l-1 1zm-2 2l1-1L834-21.37l-1 1zm-2 2l1-1L832-19.36l-1 1zm-2 2l1-1L829.95-17.35l-1 1zm-2 2l1-1L827.93-15.35l-1 1zm-2 2l1-1L825.91-13.34l-1 1zm-2 2l1-1L823.88-11.33l-1 1zm-2 2l1-1L821.86-9.32l-1 1zm-2 2l1-1L819.84-7.32l-1 1zm-2 2l1-1L817.8-5.31l-1 1zm-2 2l1-1L815.78-3.3l-1 1zm-2 2l1-1L813.76-1.29l-1 1zm-2 2l1-1L811.73.72l-1 1zm-2 2l1-1L809.71 2.72l-1 1zm-2 2l1-1L807.69 4.73l-1 1zm-2 2l1-1L805.66 6.74l-1 1zm-2 2l1-1L803.64 8.74l-1 1zm-2 2l1-1L801.61 10.75l-1 1zm-2 2l1-1L799.58 12.76l-1 1zm-2 2l1-1L797.56 14.76l-1 1zm-2 2l1-1L795.54 16.77l-1 1zm-2 2l1-1L793.52 18.79l-1 1zm-2 2l1-1-604.5-117-1 1zm-2 2l1-1L789.47 22.79l-1 1zm-2 2l1-1L787.44 24.8l-1 1zm-2 2l1-1L785.42 26.8l-1 1zm-2 2l1-1L783.4 28.81l-1 1zm-2 2l1-1L781.37 30.82l-1 1zm-2 2l1-1L779.35 32.83l-1 1zm-2 2l1-1L777.33 34.84l-1 1zm-2 2l1-1L775.29 36.85l-1 1zm-2 2l1-1L773.27 38.85l-1 1zm-2 2l1-1L771.26 40.86l-1 1zm-2 2l1-1L769.23 42.87l-1 1zm-2 2l1-1-604.79-116.9-1 1zm-2 2l1-1-604.82-116.9-1 1zm-2 2l1-1L763.15 48.89l-1 1zm-2 2l1-1L761.14 50.9l-1 1zm-2 2l1-1L759.11 52.9l-1 1zm-2 2l1-1L757.08 54.91l-1 1zm-2 2l1-1L755.06 56.92l-1 1zm-2 2l1-1L753 58.93l-1 1zm-2 2l1-1L751 60.93l-1 1zm-2 2l1-1L749 62.94l-1 1zm-2 2l1-1L747 64.95l-1 1zm-2 2l1-1L744.93 67l-1 1zm-2 2l1-1L742.91 69l-1 1zm-2 2l1-1L740.89 71l-1 1zm-2 2l1-1L738.87 73l-1 1zm-2 2l1-1L736.85 75l-1 1zm-2 2l1-1L734.82 77l-1 1zm-2 2l1-1L732.79 79l-1 1zm-2 2l1-1L730.77 81l-1 1zm-2 2l1-1L728.74 83l-1 1zm-2 2l1-1L726.72 85l-1 1zm-2 2l1-1L724.71 87l-1 1zm-2 2l1-1L722.67 89l-1 1zm-2 2l1-1L720.64 91l-1 1zm-2 2l1-1L718.63 93.05l-1 1zm-2 2l1-1L716.6 95.06l-1 1zm-2 2l1-1L714.57 97.07l-1 1zm-2 2l1-1L712.55 99.07l-1 1zm-2 2l1-1-605.48-116.7-1 1zm-2 2l1-1-605.5-116.7-1 1zM982.84-169l1-1L1587.7-52.78l-1 1zm601.82 119.23l1-1L981.83-168l-1 1zm-2 2l1-1L979.8-165.94l-1 1zm-2 2l1-1-603.88-117.18-1 1zm-2 2l1-1-603.91-117.17-1 1zm-2 2l1-1-603.93-117.16-1 1zm-2 2l1-1-603.95-117.15-1 1zm-2 2l1-1-603.98-117.14-1 1zm-2 2l1-1L967.65-153.9l-1 1zm-2 2l1-1L965.63-151.9l-1 1zm-2 2l1-1-604.04-117.12-1 1zm-2 2l1-1-604.08-117.11-1 1zm-2 2l1-1-604.09-117.1-1 1zm-2 2l1-1-604.12-117.1-1 1zm-2 2l1-1-604.15-117.09-1 1zm-2 2l1-1-604.18-117.08-1 1zm-2 2l1-1-604.19-117.08-1 1zm-2 2l1-1-604.22-117.07-1 1zm-2 2l1-1-604.24-117.06-1 1zm-2 2l1-1-604.27-117.05-1 1zm-2 2l1-1-604.3-117.05-1 1zm-2 2l1-1-604.31-117.04-1 1zm-2 2l1-1L939.32-125.8l-1 1zm-2 2l1-1-604.37-117.02-1 1zm-2 2l1-1-604.39-117.02-1 1zm-2 2l1-1-604.41-117.01-1 1zm-2 2l1-1-604.43-117-1 1zm-2 2l1-1L929.2-115.76l-1 1zm-2 2l1-1-604.48-116.99-1 1zm-2 2l1-1-604.51-116.98-1 1zm-2 2l1-1-604.53-116.98-1 1zm-2 2l1-1L921.1-107.74l-1 1zm-2 2l1-1-604.58-116.96-1 1zm-2 2l1-1-604.6-116.95-1 1zm-2 2l1-1L915-101.72l-1 1zm-2 2l1-1L913-99.71l-1 1zm-2 2l1-1L911-97.7l-1 1zm-2 2l1-1L909-95.69l-1 1zm-2 2l1-1L906.93-93.68l-1 1zm-2 2l1-1L904.91-91.68l-1 1zm-2 2l1-1-604.77-116.9-1 1zm-2 2l1-1-604.8-116.89-1 1zm-2 2l1-1L898.85-85.66l-1 1zm-2 2l1-1L896.81-83.65l-1 1zm-2 2l1-1L894.79-81.64l-1 1zm-2 2l1-1L892.77-79.64l-1 1zm-2 2l1-1L890.75-77.62l-1 1zm-2 2l1-1L888.71-75.62l-1 1zm-2 2l1-1L886.69-73.61l-1 1zm-2 2l1-1-605-116.84-1 1zm-2 2l1-1L882.64-69.6l-1 1zm-2 2l1-1L880.62-67.59l-1 1zm-2 2l1-1L878.6-65.58l-1 1zm-2 2l1-1L876.57-63.58l-1 1zm-2 2l1-1-605.11-116.8-1 1zm-2 2l1-1L872.53-59.56l-1 1zm-2 2l1-1L870.5-57.55l-1 1zm-2 2l1-1L868.47-55.55l-1 1zm-2 2l1-1L866.45-53.54l-1 1zm-2 2l1-1L864.43-51.53l-1 1zm-2 2l1-1L862.41-49.53l-1 1zm-2 2l1-1L860.37-47.52l-1 1zm-2 2l1-1L858.35-45.51l-1 1zm-2 2l1-1L856.34-43.5l-1 1zm-2 2l1-1L854.3-41.5l-1 1zm-2 2l1-1L852.28-39.49l-1 1zm-2 2l1-1-605.4-116.71-1 1zm-2 2l1-1L848.24-35.48l-1 1z"/></g><g class="cls-12"><path class="cls-6" d="M735.31 152l.08-34.01 77.41 15.14L735.31 152z"/><path class="cls-6" d="M1034.24 177.27l-.53.36h1.44l.2-.14zm-3.34-.87l-1.5.83h1.43l1.17-.71zm-3.35-.67l-2.47 1.5h1.44l2.15-1.38zm-3.35-.67l-3.45 2.17h1.44l3.13-2zm-3.34-.67l-4.42 2.83h1.44l4.1-2.71zm-3.34-.67l-5.4 3.5h1.44l5.07-3.38zm-3.35-.67l-6.37 4.17h1.44l6-4.05zm-3.34-.67l-7.35 4.84h1.44l7-4.72zm-3.34-.67l-8.32 5.51h1.44l8-5.39zm-3.34-.67l-9.3 6.18h1.43l9-6.06zm-3.35-.67l-10.27 6.85H992l9.94-6.73zm-3.34-.67l-11.24 7.51h1.44l10.92-7.39zm-3.34-.67l-12.22 8.18h1.44l11.89-8.06zm-3.34-.67l-13.19 8.85H979l12.87-8.73zm-3.34-.67l-14.16 9.52h1.44l13.84-9.4zm-3.34-.67l-15.14 10.19h1.44l14.82-10.07zm-3.35-.67l-16.11 10.86h1.44l15.79-10.74zm-3.34-.67l-17.11 11.55h1.44l16.76-11.4zM974 165l-18 12.23h1.44l17.74-12.07zm-3.35-.67l-19 12.86h1.44l18.71-12.74zm-3.34-.67l-20 13.53h1.44l19.69-13.41zM964 163l-21 14.2h1.44l20.66-14.08zm-3.34-.67l-22 14.87h1.43l21.64-14.75zm-3.34-.67l-22.92 15.57h1.44l22.6-15.41zM954 161l-23.91 16.21h1.44l23.58-16.08zm-3.34-.67l-24.88 16.88h1.43l24.56-16.75zm-3.35-.67l-25.86 17.54h1.44l25.53-17.42zm-3.35-.67l-26.84 18.21h1.45l26.51-18.09zm-3.34-.67l-27.82 18.91h1.44l27.48-18.76zm-3.35-.67l-28.78 19.55h1.44l28.45-19.43zm-3.34-.67l-29.75 20.22h1.43L935 157.13zm-3.34-.66l-30.73 20.88h1.44l30.4-20.76zm-3.35-.67l-31.7 21.56H897l31.37-21.43zm-3.34-.67l-32.68 22.22h1.43L925 155.13zm-3.35-.67L886.9 177.2h1.44l33.33-22.77zm-3.34-.67l-34.62 23.56H884l34.3-23.43zm-3.36-.67l-35.6 24.23h1.44L915 153.13zm-3.34-.66l-36.57 24.9h1.44l36.25-24.77zm-3.34-.67l-37.54 25.57h1.45l37.22-25.44zm-171.17.19l-.69.17v.31zm167.82-.83l-38.52 26.23h1.44l38.19-26.11zm-3.34-.67L861 177.23h1.44l39.17-26.78zm-157.71-.13l-2.2.55-5.11 3.53v1zm154.37-.54l-40.47 27.57h1.44l40.14-27.45zm-3.35-.67l-41.45 28.24h1.45l41.12-28.11zm-144.33-.43l-2.18.54-11.82 8.14v1zm141-.24L848 177.23h1.44l42.09-28.78zm-3.35-.67l-43.38 29.58h1.44l43.07-29.45zm-3.28-.65l-44.34 30.23h1.44l44-30.11zm-127.65-.07l-2.19.54-18.52 12.73v1zm124.3-.6l-45.32 30.9h1.44l45-30.78zm-3.35-.66l-46.3 31.57h1.45l46-31.45zm-114.26-.37l-2.2.55-25.21 17.33v1zm110.93-.3l-47.27 32.24H828l46.95-32.12zm-3.35-.67l-48.25 32.9h1.44l47.92-32.78zm-3.35-.67l-49.22 33.57h1.44l48.89-33.45zm-97.52 0l-2.19.54-31.93 21.94v1zm94.18-.67l-50.19 34.25H815l49.87-34.12zm-3.34-.67l-51.16 34.91h1.44l50.84-34.79zm-84.15-.32l-2.2.55-38.61 26.52v1zm80.79-.38l-52.14 35.58h1.44l51.82-35.46zm-3.34-.67L800.6 177.2h1.44l52.79-36.13zm-3.34-.67l-54.09 36.92h1.44l53.76-36.8zm-67.42.08l-2.21.55-45.3 31.12v1zm64.07-.75L792 177.23h1.43l54.74-37.47zm-3.35-.67l-56 38.26h1.44l55.71-38.13zm-54-.22l-2.2.54-52 35.72v1zm50.68-.45l-57 38.92h1.44l56.69-38.8zm-3.35-.67l-58 39.59h1.44l57.66-39.47zm-3.35-.67l-59 40.26h1.44l58.64-40.14zm-37.37 0l-2.22.44-58.23 39.86h1.43zm34-.63l-59.93 40.93h1.44l59.61-40.81zm-3.35-.67l-60.91 41.6h1.44l60.59-41.48zm-24-.34l-2.24.45-60.61 41.49h1.44zm20.64-.33l-61.89 42.27h1.44l61.56-42.15zm-3.35-.67l-62.86 42.94h1.43l62.54-42.81zm-10.59-.63l-2.22.44-63 43.13h1.43zm7.25 0l-63.83 43.61h1.43L818 133.79zm-3.35-.67l-64.81 44.27h1.45l64.48-44.15z"/><path class="cls-8" d="M1081 174.88l-4.21 2.83h1.48l2.72-1.84zm0-3l-8.51 5.79h1.51l7-4.8zm0-3l-12.82 8.75h1.47l11.35-7.76zm0-3l-17.14 11.71h1.48L1081 167zm0-3l-21.45 14.66h1.48L1081 164zm-.16-3l-25.68 17.62h1.44l24.24-16.64zm.16-3l-30.15 20.13h1.44l28.71-18.93zm0-3l-34.38 23.53h1.47l32.9-22.55zm0-3l-38.7 26.5h1.48l37.22-25.22zm0-3l-43.08 29h1.43l41.65-28zm0-3l-47 32.18 1.15.22 45.85-31.04zm0-3l-50.33 34.48 1.16.22 49.17-33.31zm0-3l-53.67 36.77 1.15.22 52.51-36zm0-3l-57 39.06 1.15.22 55.86-38.3zm0-3l-60.36 41.36 1.16.22 59.2-40.6zm-264.61-.68l-2.23.55-.77.53 1.11.22zm6.75-1.66l-2.24.55-4.17 2.86 1.12.22zm257.89-.1l-63.69 43.65 1.16.22 62.5-42.89zm-251.18-1.55l-2.24.55-7.54 5.18 1.11.22zm251.15-1.42l-67 45.95 1.15.22 65.85-45.18zm-244.45-.24l-2.24.55-10.93 7.5 1.11.22zm6.74-1.66l-2.24.55-14.29 9.88 1.12.22zm237.71-1.06l-70.38 48.24 1.15.22 69.23-47.48zm-231-.6l-2.24.55-17.66 12.16 1.11.22zm6.71-1.65l-2.23.55-21.1 14.48 1.11.22zm224.25-.71l-73.71 50.53 1.15.22 72.6-49.77zm-217.5-1l-2.25.55-24.42 16.9 1.12.22zm6.72-1.65l-2.24.55-27.88 19.13 1.11.23zm210.78-.36L1004 171.41l1.15.22 75.85-52.06zM877 117.29l-2.24.55-31.29 21.46 1.11.22zm6.73-1.66l-2.24.55L846.82 140l1.11.22zm197.32 0l-80.4 55.12 1.15.22 79.2-54.37zM890.45 114l-2.25.55-38 26.11 1.12.22zm190.55-1.35l-83.75 57.42 1.15.22 82.6-56.65zm-183.85-.33l-2.25.55-41.4 28.43 1.11.22zm6.72-1.66l-2.22.55-44.8 30.79 1.11.22zm177.13-1l-87.09 59.7 1.15.22 85.94-58.9zM910.65 109l-2.24.55-48.22 33.08 1.11.22zm6.73-1.66l-2.25.56-51.6 35.41 1.12.22zm163.66-.63l-90.44 62 1.16.22 89.24-61.21zm-156.92-1l-2.24.55-55 37.74 1.11.22zm6.73-1.66l-2.25.55-58.38 40.06 1.12.22zm150.19-.28l-93.78 64.3 1.16.22 92.58-63.54zm-143.46-1.38l-2.25.55-61.76 42.38 1.12.23zm143.42-1.58l-97.12 66.59 1.16.22 96-65.82zm-136.72-.08l-2.25.55L876.91 146l1.12.22zm6.72-1.66l-2.23.55-68.54 47 1.11.22zm130-1.23l-100.44 68.88 1.16.22L1081 98.83zm-123.26-.42l-2.25.55-71.93 49.36 1.12.22zm6.72-1.65l-2.24.55L886.94 148l1.11.22zm116.54-.89l-103.78 71.17 1.16.22L1081 95.86zm-109.76-.78l-2.26.56-78.71 54 1.12.22zm6.76-1.65l-2.23.55-82.1 56.34 1.11.22zm103-.53l-107.11 73.47 1.15.22L1081 92.9zm-96.3-1.13l-2.24.55L897 150l1.11.22zm6.73-1.65l-2.23.55-88.88 61 1.11.22zm89.61-.19l-110.5 75.77 1.16.22 109.34-75zm-82.87-1.47l-2.24.55-92.27 63.31 1.12.22zM1081 86l-113.8 78 1.16.22L1081 87zm-76.13-.17l-2.24.55L907 152l1.11.22zm6.72-1.66l-2.25.55-99 68 1.12.22zM1081 83l-117.15 80.38 1.16.22L1081 84zm-62.69-.51l-2.22.55-102.41 70.31 1.11.22zm6.75-1.66l-2.24.55L917 154l1.11.22zm55.94-.74l-120.46 82.6 1.16.22L1081 81.1zm-49.22-.92l-2.24.55-109.2 74.94 1.11.22zm6.72-1.65l-2.22.55-112.6 77.27 1.1.22zm42.5-.39l-123.81 84.9 1.16.22L1081 78.14zm-35.76-1.26l-2.23.55L927.06 156l1.11.22zm6.74-1.66l-2.25.55L930.4 156.7l1.12.22zm29 0l-127.1 87.17 1.16.22 126-86.42zm-22.28-1.62l-2.25.56-122.71 84.21 1.11.22zm22.3-1.36l-130.46 89.48 1.15.22L1081 72.21zm-15.55-.31l-2.24.55L937.09 158l1.11.22zm6.73-1.66l-2.25.56-129.51 88.89 1.12.22zm8.82-1L947.19 160l1.16.23 132.68-91zm-2.1-.66l-2.25.55-132.88 91.22 1.12.22z"/></g><text class="cls-13" transform="translate(733.15 52.48)">ПРИСОЕДИНЯЙСЯ!</text><text class="cls-14" transform="translate(733.07 79.42)">СТАНЬ <tspan x="0" y="27.85">ВОЛОНТЕРОМ!</tspan></text><path class="cls-6" d="M1118.69 76.64l6.42 27.74 75.12-16.97V57.8l-81.54 18.84z"/><path class="cls-10" d="M1138.52 98.32c-.41.09-.66.06-.85-.35 0 .44-.2.58-.61.67l-.89.19a.66.66 0 0 1-.83-.25l-.57-.62a.79.79 0 0 1-.31-.56l-1.56-6.78a.6.6 0 0 1 1.18-.27l1.57 6.78.44.49.52-.12.19-.63-.86-3.69c-.08-.37 0-.73.44-.82s.66.2.75.56l.85 3.68.45.49.51-.12.19-.63-1.56-6.79a.52.52 0 0 1 .46-.71.53.53 0 0 1 .73.45l1.56 6.79a.83.83 0 0 1 0 .64l-.26.81c-.12.39-.21.49-.62.58zM1146.63 95.26l1.74-.39a.56.56 0 0 1 .73.46.56.56 0 0 1-.46.72l-4.66 1a.55.55 0 0 1-.72-.46.54.54 0 0 1 .46-.71l1.74-.39-1.55-6.76-1.75.39a.57.57 0 0 1-.73-.45.55.55 0 0 1 .46-.71l4.66-1.05a.57.57 0 0 1 .73.44.56.56 0 0 1-.45.73l-1.75.39zM1154.64 85.75a.52.52 0 0 1 .46-.72.53.53 0 0 1 .73.45l2 8.52-1.56.35-4.76-6.35 1.49 6.44a.61.61 0 0 1-1.19.28l-2-8.51 1.57-.49 4.72 6.29v.12zM1159.81 85.19l.1.42a.54.54 0 0 1-.46.73.53.53 0 0 1-.73-.46l-.37-1.59 5.85-1.31.37 1.59a.61.61 0 0 1-1.19.26l-.1-.42-1.15.26 1.69 7.35a.61.61 0 0 1-1.19.27l-1.63-7.36zM1174 89.12a.56.56 0 0 1 .73.45.54.54 0 0 1-.46.71l-5.27 1.2-2.09-9.1 5.26-1.18a.56.56 0 0 1 .73.45.54.54 0 0 1-.46.71l-4.07.92.64 2.8 1.74-.4a.57.57 0 0 1 .73.45.56.56 0 0 1-.46.72l-1.74.4.64 2.79zM1178.57 88.7a.52.52 0 0 1-.46.72.53.53 0 0 1-.73-.45l-2-8.52 4-.89a1.85 1.85 0 0 1 2.27 1.27l.18.81a1.73 1.73 0 0 1-1.49 2.08l-1.09.25 3.54 3.16a1.2 1.2 0 0 1 .43.55.58.58 0 0 1-.47.69.63.63 0 0 1-.6-.21l-4.33-3.88-.28.06zm-1.27-5.52l2.63-.59c.33-.07.84-.22.73-.69l-.18-.81c-.11-.47-.61-.42-1-.34l-2.64.6zM1146.47 82.42l-.6-2.65a.59.59 0 0 1 .51-.81.6.6 0 0 1 .82.5l.76 3.31a.62.62 0 0 1-.52.81l-5.25 1.18a.62.62 0 0 1-.81-.51.61.61 0 0 1 .51-.8l2-.44-1.75-7.6-2 .44a.63.63 0 0 1-.82-.51.62.62 0 0 1 .52-.8l3.29-.74 2.06 8.92zM1154 71.35a1.37 1.37 0 0 1 1.64 1l1.75 7.6a1.33 1.33 0 0 1-1 1.62l-3.92.88a1.35 1.35 0 0 1-1.64-1l-1.75-7.6a1.35 1.35 0 0 1 1-1.62zm2.06 8.91l-1.75-7.6-3.93.88 1.75 7.6zM1163.61 69.19a1.38 1.38 0 0 1 1.63 1l1.76 7.6a1.33 1.33 0 0 1-1 1.61l-3.91.88a1.35 1.35 0 0 1-1.64-1l-1.75-7.6a1.35 1.35 0 0 1 1-1.62zm2.05 8.92l-1.75-7.61-3.92.88 1.76 7.6zM1169.34 70.46a.72.72 0 0 1-.75-.09.86.86 0 0 1-.28-.56l-.17-.74a.8.8 0 0 1 0-.62c.12-.3.34-.34.63-.41l1-.21a.74.74 0 0 1 .75.09.87.87 0 0 1 .28.56l.18.74a.82.82 0 0 1 0 .62c-.13.29-.34.34-.63.4zm1.8 6.53a.74.74 0 0 1-1 .21.77.77 0 0 1-.21-.94l3.72-8a.71.71 0 0 1 .94-.21.76.76 0 0 1 .21.93zm3.95.4c-.29.07-.51.12-.75-.09a.9.9 0 0 1-.28-.56l-.17-.74a.9.9 0 0 1 0-.63c.13-.29.34-.34.64-.4l1-.22a.76.76 0 0 1 .75.1 1 1 0 0 1 .28.56l.17.74a.84.84 0 0 1 0 .63c-.12.29-.34.35-.63.41z"/><path class="cls-15" d="M622.93 87.93l.45-.52 2.16-2.41h1.82l-2.79 2.91 2.95 4.51h-1.85l-1.08-1.73L623.5 89l-.65.67v2.79h-1.55V85h1.55v2.9zM633.94 87.17a2.47 2.47 0 0 1-.07.6 1.77 1.77 0 0 1-.23.55 1.86 1.86 0 0 1-.39.46 1.64 1.64 0 0 1-.55.31 1.12 1.12 0 0 1 .65.51 3.25 3.25 0 0 1 .32.79l.58 2.07h-1.55c-.1-.32-.19-.64-.28-1s-.18-.64-.27-1a1.44 1.44 0 0 0-.48-.83 1.24 1.24 0 0 0-.75-.22h-.79v3h-1.56V85h3a3.15 3.15 0 0 1 1.08.17 2 2 0 0 1 .75.46 1.84 1.84 0 0 1 .43.68 2.4 2.4 0 0 1 .11.86zm-2.69 1.21a1.48 1.48 0 0 0 .38-.05 1.14 1.14 0 0 0 .35-.18.89.89 0 0 0 .26-.35 1.2 1.2 0 0 0 .1-.54 1 1 0 0 0-.31-.82 1.18 1.18 0 0 0-.8-.26h-1.1v2.2zM640.22 92.46l-.51-1.69H637l-.53 1.69H635l2.44-7.46h2l2.42 7.42zm-1.37-4.73l-.43-1.61h-.05l-.45 1.67-.54 1.9h2zM645.27 84.89a6.43 6.43 0 0 1 1.16.11 3.8 3.8 0 0 1 1.16.42l-.4 1.08a4.3 4.3 0 0 0-1.06-.3 7.48 7.48 0 0 0-.91-.07 1.21 1.21 0 0 0-.79.23.87.87 0 0 0-.29.72.56.56 0 0 0 .13.36 1 1 0 0 0 .32.25 2.66 2.66 0 0 0 .46.19l.55.14.8.22a3.28 3.28 0 0 1 .8.38 2 2 0 0 1 .61.67 2.05 2.05 0 0 1 .24 1.07 1.91 1.91 0 0 1-.77 1.63 3.79 3.79 0 0 1-2.31.58h-.61c-.22 0-.45-.06-.69-.11a5.48 5.48 0 0 1-1.38-.46l.41-1.13a6.18 6.18 0 0 0 1.39.4 7.18 7.18 0 0 0 1 .08 1.76 1.76 0 0 0 1-.22 1 1 0 0 0 .25-1.15.91.91 0 0 0-.25-.27 1.35 1.35 0 0 0-.38-.19l-.49-.16-1-.28a3.41 3.41 0 0 1-.87-.38 1.83 1.83 0 0 1-.59-.6 1.8 1.8 0 0 1-.22-.93 2.09 2.09 0 0 1 .7-1.64 3.06 3.06 0 0 1 2.03-.64zM654.12 90.15V85h1.52v7.42h-1.58l-2.48-4c-.12-.21-.24-.41-.36-.62l-.37-.61h-.06v5.22h-1.52V85h1.59l1.14 1.8c.37.58.74 1.19 1.12 1.8l.92 1.51zM663.73 88.74a5.09 5.09 0 0 1-.21 1.52 3.38 3.38 0 0 1-.65 1.21 2.89 2.89 0 0 1-1.05.81 3.58 3.58 0 0 1-1.47.29 4 4 0 0 1-1.55-.27 2.81 2.81 0 0 1-1.07-.78 3.25 3.25 0 0 1-.62-1.2 5.94 5.94 0 0 1 0-3 3.51 3.51 0 0 1 .61-1.23 2.92 2.92 0 0 1 1.06-.83 3.72 3.72 0 0 1 1.57-.3 3.59 3.59 0 0 1 1.56.3 2.87 2.87 0 0 1 1 .83 3.47 3.47 0 0 1 .59 1.22 5.87 5.87 0 0 1 .23 1.43zm-1.67 0a7.08 7.08 0 0 0-.07-1 3.06 3.06 0 0 0-.25-.88 1.73 1.73 0 0 0-.52-.62 1.51 1.51 0 0 0-.87-.23 1.57 1.57 0 0 0-.89.23 1.71 1.71 0 0 0-.55.61 2.8 2.8 0 0 0-.28.88 6.87 6.87 0 0 0-.07 1 4 4 0 0 0 .39 1.95 1.47 1.47 0 0 0 1.39.69 1.53 1.53 0 0 0 .79-.2 1.51 1.51 0 0 0 .53-.56 2.57 2.57 0 0 0 .3-.83 5.28 5.28 0 0 0 .1-1.02zM666.3 89.79L663.91 85h1.64c.15.33.3.64.46 1s.3.63.45 1l.64 1.48h.07a7.28 7.28 0 0 0 .35-.77 8 8 0 0 1 .35-.77l.92-1.85h1.6c-.4.75-.81 1.51-1.21 2.29s-.79 1.53-1.2 2.29v2.85h-1.68zM675.34 92.46l-.51-1.69h-2.67l-.52 1.69h-1.57l2.5-7.42h2l2.43 7.42zM674 87.72l-.42-1.61h-.06l-.52 1.67-.54 1.9h2zM683.31 87.17a2.47 2.47 0 0 1-.08.6 1.89 1.89 0 0 1-.23.55 2 2 0 0 1-.39.46 1.71 1.71 0 0 1-.55.31 1.14 1.14 0 0 1 .66.51 3.34 3.34 0 0 1 .32.79l.59 2.07h-1.56l-.28-1c-.09-.32-.19-.64-.27-1a1.48 1.48 0 0 0-.48-.83 1.24 1.24 0 0 0-.75-.22h-.79v3h-1.55V85h3a3.18 3.18 0 0 1 1.08.17 2.1 2.1 0 0 1 .75.46 1.87 1.87 0 0 1 .43.68 2.51 2.51 0 0 1 .1.86zm-2.7 1.21a1.47 1.47 0 0 0 .38-.05 1.09 1.09 0 0 0 .35-.18.93.93 0 0 0 .26-.35 1.34 1.34 0 0 0 .1-.54 1 1 0 0 0-.31-.82 1.19 1.19 0 0 0-.8-.26h-1.11v2.2zM687.38 84.89a6.43 6.43 0 0 1 1.16.11 3.84 3.84 0 0 1 1.16.42l-.4 1.08a4.3 4.3 0 0 0-1.06-.3 7.61 7.61 0 0 0-.91-.07 1.22 1.22 0 0 0-.79.23.88.88 0 0 0-.29.72.52.52 0 0 0 .12.36 1.05 1.05 0 0 0 .32.25 2.56 2.56 0 0 0 .46.19l.55.14.8.22a3.25 3.25 0 0 1 .8.38 2 2 0 0 1 .61.67 2 2 0 0 1 .24 1.07 1.92 1.92 0 0 1-.77 1.63 3.83 3.83 0 0 1-2.31.58h-.62c-.22 0-.45-.06-.69-.11a5 5 0 0 1-.71-.18 5.19 5.19 0 0 1-.67-.27l.4-1.13a6.1 6.1 0 0 0 1.4.4 7.17 7.17 0 0 0 1 .08 1.76 1.76 0 0 0 1-.22.85.85 0 0 0 .33-.76.76.76 0 0 0-.33-.66 1.43 1.43 0 0 0-.38-.19l-.49-.16-1-.28a3.49 3.49 0 0 1-.87-.38 1.74 1.74 0 0 1-.59-.6 1.79 1.79 0 0 1-.23-.93 2.08 2.08 0 0 1 .7-1.64 3.07 3.07 0 0 1 2.06-.65zM692.92 87.93l.45-.52 2.16-2.41h1.82l-2.79 2.91 3 4.51h-1.86l-1.08-1.73L693.5 89l-.65.67v2.79h-1.56V85h1.56v2.9zM702.27 91.38h3v1.08h-5.14v-1l.67-.59.73-.67c.24-.23.48-.47.71-.71a6.76 6.76 0 0 0 .61-.73 4.46 4.46 0 0 0 .42-.72 1.67 1.67 0 0 0 .16-.7.93.93 0 0 0-.3-.75 1.25 1.25 0 0 0-.84-.26 4.21 4.21 0 0 0-.76.1 3.43 3.43 0 0 0-1.05.42L700 86a4.34 4.34 0 0 1 1.35-.65 4.81 4.81 0 0 1 1.19-.18 2.59 2.59 0 0 1 1.75.55 2 2 0 0 1 .71 1.58 2.63 2.63 0 0 1-.27 1.15 5.28 5.28 0 0 1-.69 1.08 9.29 9.29 0 0 1-.89 1l-.88.82zM711.66 88.87a6.36 6.36 0 0 1-.15 1.37 3.37 3.37 0 0 1-.47 1.17 2.61 2.61 0 0 1-.88.82 2.7 2.7 0 0 1-1.35.31 2.94 2.94 0 0 1-1.4-.3 2.41 2.41 0 0 1-.89-.8 3.34 3.34 0 0 1-.46-1.16 7.29 7.29 0 0 1-.13-1.39 6.75 6.75 0 0 1 .14-1.35 3.67 3.67 0 0 1 .46-1.2 2.51 2.51 0 0 1 .88-.86 2.75 2.75 0 0 1 1.41-.34 2.65 2.65 0 0 1 1.41.34 2.51 2.51 0 0 1 .87.87 3.48 3.48 0 0 1 .44 1.19 7.4 7.4 0 0 1 .12 1.33zm-1.52 0a8.3 8.3 0 0 0 0-.87 3.24 3.24 0 0 0-.17-.83 1.6 1.6 0 0 0-.4-.63 1 1 0 0 0-.71-.25 1 1 0 0 0-.71.24 1.54 1.54 0 0 0-.41.62 3.32 3.32 0 0 0-.19.84 8.69 8.69 0 0 0-.05.88 7.65 7.65 0 0 0 .06 1 2.52 2.52 0 0 0 .2.79 1.35 1.35 0 0 0 .42.53 1.1 1.1 0 0 0 .69.19 1 1 0 0 0 .66-.21 1.44 1.44 0 0 0 .4-.56 3.13 3.13 0 0 0 .2-.81 6.44 6.44 0 0 0 .01-.9zM713.67 86.62l-1.49.14v-1l1.63-.49h1.35v7.2h-1.49zM720.27 89.41a3.09 3.09 0 0 1-1.59.44 2.82 2.82 0 0 1-.85-.13 2 2 0 0 1-.68-.41 1.86 1.86 0 0 1-.47-.7 2.72 2.72 0 0 1-.17-1 2.62 2.62 0 0 1 .19-1 2.12 2.12 0 0 1 1.36-1.23 3.08 3.08 0 0 1 1-.16 2.94 2.94 0 0 1 1.29.26 2.25 2.25 0 0 1 .85.71 3.06 3.06 0 0 1 .46 1.06 6.12 6.12 0 0 1 .14 1.32 7.1 7.1 0 0 1-.17 1.59 3.62 3.62 0 0 1-.55 1.27 2.74 2.74 0 0 1-1 .85 3.12 3.12 0 0 1-1.43.31 4.79 4.79 0 0 1-1-.09 4 4 0 0 1-.67-.18l.27-1.08a3.13 3.13 0 0 0 .72.17h.59a1.38 1.38 0 0 0 .78-.21 1.77 1.77 0 0 0 .51-.5 2.16 2.16 0 0 0 .29-.64 3.75 3.75 0 0 0 .13-.59zm-2.33-1.84a2.19 2.19 0 0 0 .06.43 1 1 0 0 0 .18.37.78.78 0 0 0 .33.25 1.28 1.28 0 0 0 .53.09 1.94 1.94 0 0 0 .49-.06 3.2 3.2 0 0 0 .38-.13l.27-.15.14-.09v-.21a5.1 5.1 0 0 0 0-.57 1.81 1.81 0 0 0-.17-.58 1.2 1.2 0 0 0-.37-.44 1.1 1.1 0 0 0-.64-.17 1.12 1.12 0 0 0-.86.32 1.25 1.25 0 0 0-.34.94z"/><path class="cls-16" d="M628.87 101.19h-3.43v-.55a3.25 3.25 0 0 1 .68-1 9.59 9.59 0 0 1 1-.82l.5-.38a2.17 2.17 0 0 0 .34-.33 1.44 1.44 0 0 0 .25-.4 1.28 1.28 0 0 0 .09-.49.89.89 0 0 0-.28-.71 1.14 1.14 0 0 0-.79-.26 1.16 1.16 0 0 0-.49.1 1.19 1.19 0 0 0-.38.27 1.42 1.42 0 0 0-.25.37 2 2 0 0 0-.13.41l-.52-.12a3.49 3.49 0 0 1 .19-.56 1.69 1.69 0 0 1 .33-.46 1.55 1.55 0 0 1 .52-.33 1.94 1.94 0 0 1 .73-.12 1.76 1.76 0 0 1 1.13.36 1.32 1.32 0 0 1 .36.46 1.41 1.41 0 0 1 .12.59 1.47 1.47 0 0 1-.12.59 1.93 1.93 0 0 1-.31.5 3.46 3.46 0 0 1-.43.42c-.15.13-.35.28-.58.47a9.66 9.66 0 0 0-.93.76 2.08 2.08 0 0 0-.51.76h2.88zM630.37 100.51a1.4 1.4 0 0 0 .4.23 1.57 1.57 0 0 0 .5.07 1.39 1.39 0 0 0 1.12-.58 2.78 2.78 0 0 0 .5-1.63 2.38 2.38 0 0 1-.62.46 1.78 1.78 0 0 1-.83.17 1.62 1.62 0 0 1-.6-.11 1.47 1.47 0 0 1-.5-.32 1.5 1.5 0 0 1-.36-.54 1.9 1.9 0 0 1-.14-.73 1.8 1.8 0 0 1 .14-.73 1.48 1.48 0 0 1 .38-.53 1.72 1.72 0 0 1 .54-.33 2 2 0 0 1 .64-.11 2.15 2.15 0 0 1 .77.13 1.47 1.47 0 0 1 .59.42 1.9 1.9 0 0 1 .39.77 4 4 0 0 1 .14 1.13 4.73 4.73 0 0 1-.14 1.17 3 3 0 0 1-.42 1 2 2 0 0 1-.69.64 1.85 1.85 0 0 1-.92.22 2.49 2.49 0 0 1-.7-.09 1.14 1.14 0 0 1-.44-.21zm.37-2.07a1 1 0 0 0 .77.34 1.33 1.33 0 0 0 .83-.27 1.55 1.55 0 0 0 .52-.71 1.71 1.71 0 0 0-.35-1.1 1.25 1.25 0 0 0-1.78-.07 1.42 1.42 0 0 0 0 1.81zM635.24 96.49v2.77h-.34v-2.77h-.9v-.29h2.17v.29zM638.84 96.21v3.06h-.34v-1.46H637v1.46h-.34v-3.06h.34v1.32h1.47v-1.32zM641.82 95.91h.56l1 4.22 1-4.22h.52l1.05 4.22 1-4.22h.55l-1.25 5.28h-.52l-1.08-4.27-1 4.27h-.52zM649.21 95.91v5.28h-.59v-5.28zM650.93 101.19v-5.28h.84l2.3 4.07v-4.07h.53v5.28h-.48l-2.68-4.71v4.71zM657.75 96.41v4.78h-.59v-4.78h-1.58v-.5h3.74v.5zM663.44 95.91v.5h-2.58v1.77h1.84v.5h-1.84v2h2.73v.49h-3.31v-5.26zM664.69 101.19v-5.28h1.69a2.08 2.08 0 0 1 1.31.36 1.26 1.26 0 0 1 .45 1 1.37 1.37 0 0 1-.27.88 1.63 1.63 0 0 1-.78.5l1.12 2.51h-.63l-1.07-2.39h-1.24v2.39zm.58-2.89h1.06a1.47 1.47 0 0 0 .92-.24.87.87 0 0 0 .31-.73.8.8 0 0 0-.32-.71 1.67 1.67 0 0 0-.92-.21h-1.06zM672.44 95.91v3.73a1.06 1.06 0 0 0 .33.8 1.28 1.28 0 0 0 .93.33 1.3 1.3 0 0 0 .94-.33 1.06 1.06 0 0 0 .33-.8v-3.73h.59v3.69a1.52 1.52 0 0 1-.51 1.22 2.25 2.25 0 0 1-2.68 0 1.55 1.55 0 0 1-.51-1.22v-3.69zM677.14 101.19v-5.28h.86l2.31 4.07v-4.07h.53v5.28h-.48l-2.67-4.71v4.71zM683.13 95.91v5.28h-.58v-5.28zM684.19 95.91h.59l1.3 4.34 1.31-4.34h.61l-1.64 5.28h-.54zM692.09 95.91v.5h-2.59v1.77h1.84v.5h-1.84v2h2.72v.49h-3.31v-5.26zM693.32 101.19v-5.28H695a2.05 2.05 0 0 1 1.31.36 1.24 1.24 0 0 1 .46 1 1.37 1.37 0 0 1-.27.88 1.63 1.63 0 0 1-.78.5l1.12 2.51h-.64l-1.06-2.39h-1.24v2.39zm.59-2.89H695a1.5 1.5 0 0 0 .93-.24.87.87 0 0 0 .31-.73.8.8 0 0 0-.31-.71 1.73 1.73 0 0 0-.93-.21h-1.05zM700.75 97.25a1.21 1.21 0 0 0-1.23-.92 1.12 1.12 0 0 0-.72.21.75.75 0 0 0-.26.61.55.55 0 0 0 .1.33.83.83 0 0 0 .27.26 3.8 3.8 0 0 0 .37.2l.53.2.67.27a3 3 0 0 1 .51.3 1.39 1.39 0 0 1 .38.42 1.13 1.13 0 0 1 .14.58 1.85 1.85 0 0 1-.09.59 1.38 1.38 0 0 1-.85.84 2.35 2.35 0 0 1-.83.13 2 2 0 0 1-.72-.12 1.53 1.53 0 0 1-.53-.32 2.38 2.38 0 0 1-.37-.43 3.83 3.83 0 0 1-.27-.51l.54-.19a2 2 0 0 0 .51.77 1.28 1.28 0 0 0 .87.3 1.25 1.25 0 0 0 .86-.26.87.87 0 0 0 .3-.69.74.74 0 0 0-.11-.4 1.09 1.09 0 0 0-.3-.3 2.45 2.45 0 0 0-.4-.22l-.56-.21-.64-.26a2.6 2.6 0 0 1-.48-.27 1.27 1.27 0 0 1-.35-.39 1.09 1.09 0 0 1-.14-.55 1.24 1.24 0 0 1 .11-.53 1.21 1.21 0 0 1 .33-.44 1.44 1.44 0 0 1 .5-.29 1.91 1.91 0 0 1 .64-.1 1.77 1.77 0 0 1 1.08.33 1.79 1.79 0 0 1 .66 1zM703.45 95.91v5.28h-.59v-5.28zM704.55 101.19l1.63-5.28h.82l1.62 5.28h-.61l-.5-1.65h-1.89l-.5 1.65zm1.26-2.19h1.6l-.76-2.72h-.08zM709.58 95.91H711a2.27 2.27 0 0 1 1.74.69 2.74 2.74 0 0 1 .65 2 2.81 2.81 0 0 1-.63 1.92 2.22 2.22 0 0 1-1.78.72h-1.39zm.59 4.79h.83c1.23 0 1.84-.72 1.84-2.14a2.31 2.31 0 0 0-.48-1.63 1.74 1.74 0 0 0-1.33-.52h-.82zM717.68 95.91v.5h-2.58v1.77h1.84v.5h-1.84v2h2.72v.49h-3.31v-5.26z"/><path class="cls-17" d="M652.16 106.35l1.61 3.28s.07.12 0 .16-.24.05-.24.05l-1.72.18s-.17 0-.16.09.18.11.41.13l1.9.19a.33.33 0 0 1 .26.17c.08.15.19.34.19.34s.1.14 0 .18a3.35 3.35 0 0 1-.57.06l-3.09.36s-.12 0-.12.07 0 .1.17.12l2.11.22a.57.57 0 0 1 .33.13c.1.11.33.34.33.34s.12.1 0 .13-.71.09-.71.09l-3.16.26s-.11 0-.11.08.08.1.18.11l4.64.33a.5.5 0 0 1 .19 0c.05 0 .05.06.05.06l.39.4s.1.08.08.11-.09 0-.09 0l-3.84.35s-.12 0-.14.09.13.1.13.1l4.8.39a.35.35 0 0 1 .26.11 4.74 4.74 0 0 0 .36.37s.07.09 0 .11-.28 0-.28 0l-3.71.3s-.1 0-.1.07 0 .11.14.11l4 .37s.17 0 .12.15-.1.4-.1.4 0 .11-.23.14l-2.21.27s-.12 0-.12.07 0 .09.15.11l2.09.23s.17 0 .14.19l-.45 2.51v.11a1.35 1.35 0 0 1-.26-.15L651.9 118l-4.5 2.69s-.18.12-.31 0 0-.47 0-.47l.82-4.84-3.74-3.38s-.16-.25.07-.37 5.12-.75 5.12-.75l2.29-4.56s.07-.21.26-.19.25.27.25.27"/><path class="cls-18" d="M662 106.38l1.61 3.27s.07.12 0 .17-.24.05-.24.05l-1.73.18s-.17 0-.16.09.18.11.42.12l1.9.19a.32.32 0 0 1 .26.16c.07.15.18.34.18.34s.11.14 0 .18a3.53 3.53 0 0 1-.57.06l-3.09.37s-.12 0-.12.06 0 .1.17.11l2.11.23a.55.55 0 0 1 .32.13c.1.11.33.34.33.34s.12.1 0 .13-.7.09-.7.09l-3.16.26s-.11 0-.11.08.08.11.18.12l4.63.33a.45.45 0 0 1 .2 0c.06 0 .06.07.06.07l.39.39s.1.08.08.12a.12.12 0 0 1-.1 0l-3.84.34s-.12 0-.14.09.13.09.13.09l4.79.39a.36.36 0 0 1 .27.12c.1.12.36.36.36.36s.07.09 0 .12-.28 0-.28 0l-3.71.29s-.09 0-.09.08.05.11.13.11l4 .37s.16 0 .12.14-.1.41-.1.41 0 .11-.22.14l-2.21.27s-.11 0-.12.07 0 .1.15.12l2.1.23s.16 0 .13.19-.46 2.51-.46 2.51v.11a1.5 1.5 0 0 1-.26-.14l-3.88-2.39-4.51 2.68s-.18.13-.31 0 0-.47 0-.47l.83-4.84L654 112s-.17-.24.07-.37 5.11-.76 5.11-.76l2.29-4.56s.07-.21.26-.19.26.28.26.28"/><path class="cls-19" d="M671.85 106.38l1.61 3.27s.07.12 0 .17-.24.05-.24.05l-1.73.18s-.16 0-.16.09.19.11.41.12l1.9.19a.32.32 0 0 1 .26.16c.07.15.19.34.19.34s.1.14 0 .18a3.61 3.61 0 0 1-.57.06l-3.09.37s-.12 0-.12.06 0 .1.17.11l2.11.23a.56.56 0 0 1 .32.13c.1.11.33.34.33.34s.12.1 0 .13-.7.09-.7.09l-3.16.26s-.11 0-.11.08.07.11.17.12l4.64.33a.42.42 0 0 1 .19 0c.06 0 .06.07.06.07l.39.39s.1.08.08.12a.12.12 0 0 1-.1 0l-3.84.34s-.13 0-.14.09.13.09.13.09l4.8.39a.36.36 0 0 1 .26.12 4.86 4.86 0 0 0 .36.36s.07.09 0 .12-.28 0-.28 0l-3.71.29s-.1 0-.1.08.05.11.13.11l4 .37s.16 0 .12.14-.1.41-.1.41 0 .11-.23.14l-2.21.27s-.11 0-.11.07 0 .1.15.12l2.09.23s.16 0 .13.19l-.46 2.51v.11a1.43 1.43 0 0 1-.26-.14l-3.88-2.39-4.5 2.68s-.18.13-.31 0 0-.47 0-.47l.83-4.84-3.68-3.6s-.17-.24.07-.37 5.12-.76 5.12-.76l2.29-4.56s.07-.21.26-.19.25.28.25.28"/><path class="cls-20" d="M681.67 106.35l1.61 3.28s.06.12 0 .16-.24.05-.24.05l-1.72.18s-.17 0-.16.09.18.11.41.13l1.9.19a.31.31 0 0 1 .25.17c.08.15.19.34.19.34s.11.14 0 .18a3.3 3.3 0 0 1-.57.06l-3.09.36s-.12 0-.12.07.06.1.17.12l2.12.22a.56.56 0 0 1 .32.13c.1.11.33.34.33.34s.12.1 0 .13-.7.09-.7.09l-3.16.26s-.11 0-.11.08.08.1.18.11l4.63.33a.5.5 0 0 1 .2 0c.06 0 .06.06.06.06l.38.4s.11.08.09.11a.12.12 0 0 1-.1 0l-3.84.35s-.12 0-.14.09.12.1.12.1l4.8.39a.36.36 0 0 1 .26.11 5 5 0 0 0 .36.37s.07.09 0 .11-.29 0-.29 0l-3.71.3s-.1 0-.1.07.06.11.14.11l4 .37s.17 0 .12.15-.1.4-.1.4 0 .11-.23.14l-2.21.27s-.12 0-.12.07 0 .09.15.11l2.1.23s.16 0 .13.19-.46 2.52-.46 2.52v.11a1.31 1.31 0 0 1-.27-.15l-3.88-2.39-4.51 2.69s-.18.12-.31 0 0-.47 0-.47l.83-4.84-3.69-3.39s-.17-.25.07-.37 5.11-.75 5.11-.75l2.29-4.56s.06-.21.26-.19.25.27.25.27"/><path class="cls-21" d="M691.5 106.35l1.61 3.28s.06.12 0 .17-.24 0-.24 0l-1.73.18s-.17 0-.16.09.18.11.41.13l1.85.15a.41.41 0 0 1 .29.15l.17.24s.14.17 0 .22a4.46 4.46 0 0 1-.66.09l-3 .33s-.12 0-.12.07.05.1.17.11l7.72.22h1.06a.18.18 0 0 1 .13.06l-.27.31a1.46 1.46 0 0 1-.31.27 4.38 4.38 0 0 1-.62.05l-8.77.36s-.11 0-.11.08.07.1.17.11l8.07.38a.49.49 0 0 1 .2 0c.05 0 0 .11 0 .11l-.2.21-.11.11a.78.78 0 0 1-.24.09l-6.26.43s-.12 0-.14.09.13.1.13.1l5.09.33s.22 0 .21.07-.26.35-.26.35l-.23.21c0 .06-.28.07-.28.07l-3.07.29s-.1 0-.1.07.06.11.14.11l2.43.19.6.05c.24 0 .28.06.29.12s.08.57.08.57 0 .12-.24.17-1.61.21-1.61.21-.13 0-.13.08 0 .1.15.11-.16 0 1.85.21a.2.2 0 0 1 .2.19c0 .21.42 2.44.42 2.44a.41.41 0 0 1-.07.38c-.11.11-.45-.13-.45-.13l-4.35-2.62-4.5 2.73s-.18.12-.31 0 0-.47 0-.47l.83-4.84-3.71-3.43s-.17-.25.07-.37 5.11-.75 5.11-.75l2.29-4.56s.07-.21.26-.19.25.27.25.27"/><path class="cls-15" d="M702.16 38.7l-6.84 3.45-.06.45 7.14-3.6-.24-.3zM700.18 36.24l-4.45 2.24-.05.45 4.74-2.39-.24-.3zM697.21 32.54l-.85.43-.05.46 1.15-.58-.25-.31zM699.19 35l-3.25 1.64-.05.46 3.55-1.79-.25-.31zM701.17 37.46l-5.65 2.85-.05.46 5.95-3-.25-.31zM703.15 39.93l-8.05 4.05-.05.46 8.35-4.21-.25-.3zM698.2 33.77l-2.04 1.04-.06.46 2.35-1.19-.25-.31zM695.04 63.02l-2.28 1.16-.05.46 2.14-1.08.19-.54zM695.84 60.9l-2.87 1.44-.05.46 2.71-1.37.21-.53zM696.62 58.77l-3.44 1.73-.05.47 3.3-1.67.19-.53zM694.25 65.16l-1.7.86-.06.45 1.56-.78.2-.53zM693.45 67.29l-1.12.56-.05.46.98-.49.19-.53zM697.42 56.64l-4.02 2.02-.05.46 3.88-1.95.19-.53zM699.8 50.26l-5.5 2.76v.44l5.3-2.68.2-.52zM701.38 46l-6.91 3.48-.05.47 6.77-3.42.19-.53zM702.18 43.87l-7.5 3.78-.05.46 7.35-3.71.2-.53zM698.22 54.51l-4.6 2.32-.06.46 4.46-2.25.2-.53zM700.6 48.13l-6.34 3.19-.04.3.03.14 6.14-3.1.21-.53zM699.01 52.38L693.83 55l-.06.45 5.04-2.53.2-.54zM702.97 41.74l-8.08 4.07-.05.46 7.94-4 .19-.53zM664.38 44.58l10.77-2.43.07-.42-10.84 2.45v.4zM664.4 49.32l9.84-2.22.08-.41-9.92 2.23v.4zM664.39 47.74l10.15-2.29.08-.41-10.23 2.3v.4zM664.4 50.9l9.54-2.15.07-.41-9.61 2.17v.39zM664.39 46.16l10.46-2.36.07-.41-10.53 2.37v.4zM664.37 38.25l9.63-2.18-.25-.33-9.39 2.11.01.4zM664.33 28.76l3.61-.81-.25-.34-3.36.75v.4zM664.34 30.34l4.61-1.04-.26-.34-4.36.99.01.39zM664.35 31.92l5.61-1.27-.26-.33-5.35 1.21v.39zM664.38 42.99l11.06-2.49.08-.41-11.14 2.51v.39zM664.32 25.59l1.6-.35-.25-.35-1.35.31v.39zM664.91 23.88l-.26-.34-.33.08v.4l.59-.14zM664.33 27.18l2.6-.59-.25-.34-2.35.53v.4zM664.38 41.41l11.36-2.57.07-.34-.04-.05-11.39 2.56v.4zM664.37 39.83l10.64-2.4-.26-.34-10.38 2.35v.39zM664.35 33.5l6.62-1.48-.25-.35-6.37 1.44v.39zM664.36 35.09l7.62-1.72-.25-.34-7.38 1.66.01.4zM664.36 36.67l8.63-1.95-.25-.34-8.38 1.89v.4zM645.83 42.17l-3.44 2.6-.1.56 3.56-2.7-.02-.46zM645.73 40.31l-2.95 2.23-.1.56 3.07-2.32-.02-.47zM645.32 32.89l-.97.73-.1.56 1.09-.82-.02-.47zM645.62 38.46l-2.45 1.85-.09.56 2.57-1.95-.03-.46zM645.21 31.04l-.47.35-.09.56.59-.45-.03-.46zM645.52 36.6l-1.95 1.48-.1.56 2.08-1.58-.03-.46zM645.42 34.75l-1.46 1.1-.1.56 1.59-1.2-.03-.46zM646.98 57.26l-.08-.43-7.42 5.62.37.21 7.13-5.4zM648.61 67.62l.19-.14-.07-.43-.49.37.37.2zM645.69 65.96l2.51-1.89-.08-.43-2.79 2.12.36.2zM647.15 66.8l1.35-1.02-.08-.44-1.64 1.25.37.21zM644.22 65.14l3.67-2.77-.08-.43-3.95 3 .36.2zM642.76 64.32l4.83-3.66-.08-.43-5.1 3.88.35.21zM645.93 44.03L642 47.01l-.1.56 4.06-3.08-.03-.46zM641.31 63.48l5.97-4.52-.07-.43-6.27 4.75.37.2zM646.14 47.74l-4.93 3.73-.09.56 5.05-3.83-.03-.46zM646.04 45.88l-4.43 3.36-.1.55 4.56-3.45-.03-.46zM646.24 49.59l-5.42 4.11-.1.55 5.55-4.19-.03-.47zM646.6 55.13l-6.95 5.26-.1.56 7.12-5.39-.07-.43zM646.45 53.31l-6.41 4.85-.1.56 6.53-4.95-.02-.46zM646.34 51.45l-5.91 4.48-.1.56 6.04-4.58-.03-.46z"/><path class="cls-15" d="M679.45 74.96l14.88-21.52-2 14.85-12.88 6.67z"/><path class="cls-22" d="M679.92 54.59V23.71l-4.78 24.85 4.78 6.03z"/><path class="cls-15" d="M694.33 53.44l-3.9-29.73 6.09 7.97-2.19 21.76zM679.26 55.84l-4.87-6.01-9.96 2.26v.5l14.83 3.25zM648.01 54.33l2.02 12.19 10.16 2.59-12.18-14.78z"/><path class="cls-22" d="M679.02 75.15l-9.1 4.42-19.41-11.17 28.51 6.75zM647.7 53.58l7.14-29.86-8.07 6.25.93 23.61z"/></svg>