<svg id="дизайн-макет_копия_" data-name="дизайн-макет (копия)" xmlns="http://www.w3.org/2000/svg" viewBox="0 0 1200 153"><defs><style>.cls-1{fill:none}.cls-2{fill:#0075c9}.cls-3{clip-path:url(#clip-path)}.cls-4{fill:#36b8eb}.cls-5{clip-path:url(#clip-path-2)}.cls-6{fill:#d7006d}.cls-7{fill:#38bcee}.cls-8{fill:#ceeafa}.cls-9{font-size:42.29px;font-family:PFAgoraSansPro-Medium,PF Agora Sans Pro;letter-spacing:-.01em}.cls-10,.cls-9{fill:#fff}</style><clipPath id="clip-path"><path class="cls-1" d="M1200.04 1H897.62l301.12 70.65 1.3-70.65z"/></clipPath><clipPath id="clip-path-2"><path class="cls-1" d="M600 .78h600v152.31H600z"/></clipPath></defs><title>single-banner</title><path class="cls-2" d="M600 1h600v152H600z"/><g class="cls-3"><path class="cls-4" d="M845.4-30.38l1-1 603.4 117.07-1 1zM1446.77 88.7l1-1L844.39-29.37l-1 1zm-2 2l1-1L842.36-27.37l-1 1zm-2 2l1-1L840.34-25.37l-1 1zm-2 2l1-1L838.31-23.36l-1 1zm-2 2l1-1L836.29-21.35l-1 1zm-2 2l1-1-603.5-117.05-1 1zm-2 2l1-1L832.25-17.34l-1 1zm-2 2l1-1L830.22-15.34l-1 1zm-2 2l1-1L828.2-13.33l-1 1zm-2 2l1-1L826.18-11.33l-1 1zm-2 2l1-1L824.16-9.32l-1 1zm-2 2l1-1L822.14-7.31l-1 1zm-2 2l1-1L820.12-5.32l-1 1zm-2 2l1-1-603.68-117-1 1zm-2 2l1-1-603.71-117-1 1zm-2 2l1-1L814 .71l-1 1zm-2 2l1-1L812 2.71l-1 1zm-2 2l1-1L810 4.72l-1 1zm-2 2l1-1L808 6.72l-1 1zm-2 2l1-1L805.95 8.73l-1 1zm-2 2l1-1L803.94 10.73l-1 1zm-2 2l1-1L801.91 12.74l-1 1zm-2 2l1-1L799.88 14.75l-1 1zm-2 2l1-1L797.86 16.75l-1 1zm-2 2l1-1L795.84 18.75l-1 1zm-2 2l1-1L793.82 20.77l-1 1zm-2 2l1-1L791.8 22.76l-1 1zm-2 2l1-1L789.78 24.77l-1 1zm-2 2l1-1L787.75 26.78l-1 1zm-2 2l1-1L785.73 28.78l-1 1zm-2 2l1-1L783.7 30.79l-1 1zm-2 2l1-1L781.68 32.79l-1 1zm-2 2l1-1L779.66 34.79l-1 1zm-2 2l1-1L777.64 36.8l-1 1zm-2 2l1-1L775.61 38.81l-1 1zm-2 2l1-1L773.59 40.81l-1 1zm-2 2l1-1L771.58 42.82l-1 1zm-2 2l1-1L769.55 44.83l-1 1zm-2 2l1-1L767.53 46.83l-1 1zm-2 2l1-1L765.5 48.83l-1 1zm-2 2l1-1L763.48 50.84l-1 1zm-2 2l1-1L761.46 52.84l-1 1zm-2 2l1-1L759.43 54.85l-1 1zm-2 2l1-1L757.4 56.86l-1 1zm-2 2l1-1L755.39 58.86l-1 1zm-2 2l1-1-604.4-116.83-1 1zm-2 2l1-1L751.34 62.87l-1 1zm-2 2l1-1L749.32 64.87l-1 1zm-2 2l1-1L747.29 66.88l-1 1zm-2 2l1-1L745.26 68.89l-1 1zm-2 2l1-1L743.25 70.89l-1 1zm-2 2l1-1L741.23 72.9l-1 1zm-2 2l1-1L739.21 74.9l-1 1zm-2 2l1-1L737.19 76.9l-1 1zm-2 2l1-1-604.6-116.78-1 1zm-2 2l1-1L733.14 80.92l-1 1zm-2 2l1-1L731.12 82.92l-1 1zm-2 2l1-1L729.09 84.93l-1 1zm-2 2l1-1-604.7-116.76-1 1zm-2 2l1-1L725.06 88.94l-1 1zm-2 2l1-1L723 90.94l-1 1zm-2 2l1-1L721 93l-1 1zm-2 2l1-1L719 95l-1 1zm-2 2l1-1L717 97l-1 1zm-2 2l1-1L714.93 99l-1 1zm-2 2l1-1L712.92 101l-1 1zm-2 2l1-1L710.89 103l-1 1zm-2 2l1-1L708.86 105l-1 1zM983-166.79l1-1 603.4 117.07-1 1zm601.37 119.07l1-1L982-165.79l-1 1zm-2 2l1-1L980-163.78l-1 1zm-2 2l1-1-603.43-117.07-1 1zm-2 2l1-1-603.45-117.06-1 1zm-2 2l1-1-603.48-117.05-1 1zm-2 2l1-1-603.49-117.05-1 1zm-2 2l1-1-603.52-117.04-1 1zm-2 2l1-1-603.55-117.03-1 1zm-2 2l1-1-603.56-117.03-1 1zm-2 2l1-1-603.58-117.03-1 1zm-2 2l1-1-603.61-117.02-1 1zm-2 2l1-1-603.63-117.01-1 1zm-2 2l1-1-603.65-117.01-1 1zm-2 2l1-1-603.68-117-1 1zm-2 2l1-1-603.7-117-1 1zm-2 2l1-1-603.72-116.99-1 1zm-2 2l1-1-603.74-116.99-1 1zm-2 2l1-1-603.76-116.99-1 1zm-2 2l1-1-603.79-116.97-1 1zm-2 2l1-1-603.82-116.97-1 1zm-2 2l1-1-603.83-116.97-1 1zm-2 2l1-1-603.86-116.96-1 1zm-2 2l1-1-603.88-116.95-1 1zm-2 2l1-1-603.91-116.95-1 1zm-2 2l1-1-603.93-116.94-1 1zm-2 2l1-1-603.94-116.93-1 1zm-2 2l1-1L929.4-113.65l-1 1zm-2 2l1-1-603.99-116.93-1 1zm-2 2l1-1-604.02-116.92-1 1zm-2 2l1-1-604.04-116.92-1 1zm-2 2l1-1L921.3-105.64l-1 1zm-2 2l1-1-604.08-116.91-1 1zm-2 2l1-1-604.1-116.9-1 1zm-2 2l1-1-604.12-116.9-1 1zm-2 2l1-1L913.21-97.61l-1 1zm-2 2l1-1L911.19-95.61l-1 1zm-2 2l1-1L909.17-93.6l-1 1zm-2 2l1-1L907.15-91.59l-1 1zm-2 2l1-1L905.13-89.59l-1 1zm-2 2l1-1L903.11-87.58l-1 1zm-2 2l1-1L901.08-85.58l-1 1zm-2 2l1-1-604.3-116.85-1 1zm-2 2l1-1L897-81.57l-1 1zm-2 2l1-1L895-79.56l-1 1zm-2 2l1-1L893-77.56l-1 1zm-2 2l1-1L891-75.55l-1 1zm-2 2l1-1L888.94-73.55l-1 1zm-2 2l1-1L886.92-71.54l-1 1zm-2 2l1-1L884.89-69.54l-1 1zm-2 2l1-1L882.88-67.53l-1 1zm-2 2l1-1L880.85-65.53l-1 1zm-2 2l1-1-604.53-116.8-1 1zm-2 2l1-1-604.56-116.8-1 1zm-2 2l1-1-604.58-116.8-1 1zm-2 2l1-1L872.77-57.5l-1 1zm-2 2l1-1L870.74-55.5l-1 1zm-2 2l1-1L868.72-53.49l-1 1zm-2 2l1-1L866.7-51.49l-1 1zm-2 2l1-1L864.68-49.48l-1 1zm-2 2l1-1L862.66-47.48l-1 1zm-2 2l1-1L860.62-45.47l-1 1zm-2 2l1-1L858.6-43.47l-1 1zm-2 2l1-1L856.59-41.46l-1 1zm-2 2l1-1L854.56-39.46l-1 1zm-2 2l1-1L852.54-37.45l-1 1zm-2 2l1-1L850.52-35.45l-1 1zm-2 2l1-1L848.5-33.44l-1 1z"/></g><g class="cls-5"><path class="cls-6" d="M599.91 152.32l.15-59.29 136.46 26.4-136.61 32.89z"/><path class="cls-7" d="M1123.62 196.39l-.92.63h2.52l.35-.24zm-5.84-1.17l-2.63 1.8h2.51l2.05-1.41zm-5.85-1.17l-4.32 3h2.51l3.76-2.57zm-5.85-1.17l-6 4.13h2.52l5.46-3.74zm-5.84-1.16l-7.74 5.28h2.5l7.16-4.9zm-5.85-1.17L1085 197h2.52l8.87-6.07zm-5.85-1.17L1077.4 197h2.52l10.57-7.24zm-5.84-1.17l-12.84 8.79h2.52l12.27-8.4zm-5.84-1.17l-14.54 10h2.51l14-9.57zm-5.86-1.14l-16.24 11.1h2.5l15.74-10.72zm-5.86-1.17l-18 12.29h2.52l17.38-11.9zm-5.84-1.16L1039.66 197h2.52l19.09-13.06zm-5.84-1.17l-21.35 14.6h2.51l20.79-14.23zm-5.85-1.17L1024.56 197h2.53l22.49-15.4zm-5.84-1.16L1017 197h2.52l24.19-16.56zm-5.85-1.16L1009.47 197h2.53l25.9-17.73zm-5.85-1.17L1001.91 197h2.52l27.6-18.89zm-5.83-1.17L994.37 197h2.52l29.31-20zm-5.85-1.17L986.82 197h2.52l31-21.22zm-5.85-1.17L979.27 197h2.51l32.71-22.39zm-5.83-1.16l-35 23.94h2.51l34.42-23.55zm-5.85-1.17L964.17 197h2.52l36.11-24.72zm-5.86-1.16L956.63 197h2.5L997 171.12zm-5.84-1.16L949.09 197h2.52l39.52-27zm-5.86-1.17L941.52 197H944l41.22-28.22zm-5.84-1.17L934 197h2.51l42.93-29.38zm-5.85-1.16L926.43 197h2.51l44.63-30.55zm-5.85-1.17L918.86 197h2.53l46.34-31.71zm-5.83-1.16L911.33 197h2.52l48-32.88zm-5.85-1.17L903.78 197h2.51L956 163zm-5.84-1.16l-52 35.6h2.49l51.45-35.22zm-5.84-1.16L888.69 197h2.51l53.15-36.37zm-5.85-1.17L881.14 197h2.51l54.85-37.54zm-5.84-1.17L873.6 197h2.5l56.56-38.71zm-5.86-1.17L866 197h2.51l58.26-39.87zm-5.85-1.16L858.51 197H861l60-41zm-5.87-1.17L850.93 197h2.53l61.66-42.2zm-5.84-1.16L843.39 197h2.51l63.36-43.36zm-5.84-1.16L835.84 197h2.53l65.07-44.53zm-299.2-.1l-1.2.29v.53zm293.39-1.11L828.29 197h2.53l66.77-45.69zm-5.84-1.17l-69 47.26h2.52l68.47-46.87zm-275.8-.54l-3.91 1-9 6.16V158zm270-.6L813.21 197h2.51l70.18-48zm-5.86-1.16L805.63 197h2.53L880 147.81zm-252.43-1.09l-3.88.94-20.83 14.2v1.71zm246.61-.08L798.11 197h2.52l73.58-50.36zm-5.86-1.17L790.55 197h2.51l75.29-51.52zm-5.73-1.14L783.14 197h2.51l77-52.67zm-223.27-.46l-3.89.95-32.57 22.2v1.72zm217.43-.71L775.59 197h2.52l78.66-53.83zm-5.89-1.15L768 197h2.53l80.37-55zm-199.88-1l-3.91 1L601 171.79v1.72zm194-.18L760.5 197h2.5l82.07-56.16zm-5.86-1.17L752.94 197h2.52l83.77-57.33zm-5.85-1.16L745.4 197h2.52l85.47-58.5zm-170.62-.34l-3.89.95L601 177v1.72zm164.8-.77l-87.75 60h2.53l87.17-59.66zm-5.84-1.16L730.31 197h2.52l88.88-60.83zm-147.22-.86l-3.91 1L601 182.13v1.73zm141.37-.31L722.74 197h2.52l90.59-62zm-5.84-1.16L715.2 197h2.53L810 133.84zm-5.84-1.17L707.66 197h2.51l94-64.33zm-118-.21l-3.92 1-79.3 54.16V189zm112.13-1L700.11 197h2.49l95.7-65.49zm-5.83-1.13l-98 67h2.52l97.39-66.66zm-94.52-.76l-3.91.95-91 62.28v1.72zm88.72-.44L685 197h2.52l99.09-67.82zm-5.85-1.17L677.46 197H680l100.79-69zm-5.87-1.17L669.9 197h2.52l102.51-70.15zm-65.34-.07l-3.88.94L602 197h2.5zm59.51-1.1L662.37 197h2.51l104.21-71.32zm-5.86-1.17L654.81 197h2.52l105.92-72.48zm-41.9-.6l-3.91 1L609.51 197H612zm36.08-.57l-108.2 74h2.51l107.61-73.65zm-5.86-1.17L639.72 197h2.5l109.32-74.82zm-18.52-1.11l-3.89.94L617.08 197h2.5zm12.67-.06L632.17 197h2.5l111-76zm-5.85-1.17L624.61 197h2.53l112.72-77.15z"/><path class="cls-8" d="M1205.15 192.21l-7.21 4.94h2.52l4.69-3.21zm0-5.16l-14.75 10.09h2.51l12.23-8.37zm0-5.17l-22.29 15.25h2.51l19.77-13.54zm0-5.17l-29.83 20.41h2.51l27.32-18.69zm0-5.16l-37.35 25.56h2.51l34.84-23.84zm0-5.17l-44.89 30.72h2.52l42.38-29zm0-5.17l-52.43 35.88h2.51l49.92-34.17zm0-5.16l-60 41h2.51l57.45-39.31zm0-5.17l-67.5 46.2h2.52l65-44.48zm0-5.16l-75 51.35h2.5l72.53-49.63zm0-5.16l-82 56.1 1.94.39 80-54.78zm0-5.18l-87.84 60.12 2 .39 85.88-58.77zm0-5.16l-93.68 64.11 2 .39 91.72-62.78zm0-5.17l-99.51 68.11 1.94.39 97.57-66.78zm0-5.18L1099.76 192l2 .39 103.41-70.78zm-462.35-2.08l-3.91 1-1.35.92 1.94.39zm11.79-2.89l-3.92 1-7.29 5 2 .38zm450.55-.18l-111.2 76.1 2 .39 109.25-74.77zM766.33 112l-3.92 1-13.19 9 1.95.39zm438.81-2.47l-117.05 80.11 1.95.39 115.1-78.77zm-427-.42l-3.91 1-19.12 13.09 1.94.39zm11.79-2.89l-3.92 1-25 17.14 2 .39zm415.25-1.85l-122.93 84.13 1.94.39 121-82.78zm-403.48-1l-3.92 1-31 21.19 1.95.39zm11.75-2.88l-3.9 1-36.89 25.25 1.93.39zm391.74-1.23l-128.72 88.09 1.93.39L1205.14 101zm-380-1.68l-3.93 1-42.81 29.3 2 .39zm11.75-2.88l-3.92 1-48.73 33.3 1.95.39zm368.19-.63l-134.57 92.1 2 .39 132.62-90.77zm-356.42-2.26l-3.92 1-54.66 37.41 1.95.39zm11.77-2.89l-3.91 1L796 131.35l1.94.38zm344.66 0L1064.73 185l1.93.39 138.48-94.78zM872.26 86l-3.93 1-66.5 45.51 2 .39zm332.88-2.31l-146.26 100.14 1.94.39 144.32-98.77zM884 83.14l-3.93 1-72.43 49.57 1.95.39zm11.75-2.89l-3.89 1-78.36 53.63 1.93.39zm309.36-1.69L1053 182.66l1.94.39 150.2-102.76zm-297.56-1.2l-3.92 1L819.37 136l1.94.39zm11.76-2.89l-3.93 1-90.21 61.73 2 .39zm285.8-1.09l-158 108.11 2 .39 156-106.77zm-274-1.79l-3.91 1-96.14 65.8 1.94.39zm11.77-2.89l-3.94 1-102 69.84 2 .39zm262.26-.48l-163.8 112.1 1.95.39 161.84-110.76zm-250.5-2.4l-3.94 1-108 73.89 2 .39zm250.5-2.75L1035.5 179.16l2 .39 167.63-114.76zm-238.72-.14l-3.93 1-113.9 78 1.95.39zM978.15 60l-3.9 1-119.82 82 1.93.39zm227-2.15L1029.64 178l2 .39 173.49-118.77zM990 57.15l-3.93 1-125.8 86.03 2 .39zm11.75-2.88l-3.91 1-131.72 90.08 1.94.39zm203.43-1.53L1023.8 176.83l2 .39 179.33-122.77zm-191.64-1.36l-3.95 1L872 146.51l2 .39zm11.74-2.88l-3.9 1-143.57 98.18 1.93.39zm179.9-.93L1018 175.66l1.94.39 185.19-126.76zM1037 45.6l-3.91 1-149.44 102.25 1.94.39zm11.76-2.88l-3.9 1L889.5 150l1.94.39zm156.35-.33l-193 132.1 2 .39 191.02-130.76zm-144.58-2.56l-3.92 1-161.28 110.35 1.95.39zm144.58-2.6l-198.83 136.1 1.95.39L1205.13 39zm-132.8-.29l-3.92 1-167.2 114.41 1.94.39zm11.75-2.89l-3.94 1L907 153.51l2 .39zm121-2l-204.7 140.1 2 .39 202.77-138.75zm-109.3-.89l-3.89 1-179 122.52 1.94.38zm11.81-2.89l-3.92 1-185 126.61 1.94.39zm97.5-1.29L994.69 171l1.94.39 208.5-142.68zm-85.75-1.6l-3.92 1L924.56 157l1.95.39zm11.75-2.88l-3.88 1-196.78 134.68 1.94.39zm74-.69l-216.28 148 2 .39 214.34-146.65zm-62.21-2.2l-3.9 1-202.71 138.74 1.94.39zm11.78-2.89l-3.93 1-208.62 142.8 2 .39zm50.43-.07L983 168.68l2 .39 220.13-150.68zm-38.65-2.82l-3.94 1-214.55 146.85 1.94.39zm38.65-2.34l-228 156 1.95.39 226-154.69zm-26.83-.49l-3.92 1-220.53 150.85 1.94.39zM1190 8.07l-3.94 1L959.62 164l2 .39zm15.13-1.74l-233.82 160 2 .39L1205.13 8zm-3.37-1.14l-3.93 1-232.37 159 2 .39z"/></g><text class="cls-9" transform="translate(690.04 84.46)">СТАНЬ ПАРТНЕРОМ!</text><path class="cls-6" d="M1118.63 78.56l6.36 27.71L1200 89.32V59.74l-81.37 18.82z"/><path class="cls-10" d="M1138.56 100.22c-.4.09-.66.06-.85-.35 0 .44-.2.58-.6.67l-.89.19a.66.66 0 0 1-.83-.25l-.57-.62a.78.78 0 0 1-.31-.56l-1.56-6.78a.52.52 0 0 1 .45-.72.52.52 0 0 1 .72.45l1.57 6.78.44.49.51-.12.19-.63-.83-3.67c-.08-.37 0-.73.44-.82s.66.2.75.56l.85 3.68.45.49.5-.12.19-.63-1.56-6.78a.52.52 0 0 1 .46-.71.53.53 0 0 1 .73.44l1.56 6.78a.84.84 0 0 1 0 .64l-.26.8c-.12.39-.21.49-.62.58zM1146.67 97.16l1.74-.39a.57.57 0 0 1 .73.46.55.55 0 0 1-.46.72L1144 99a.55.55 0 0 1-.72-.46.54.54 0 0 1 .45-.71l1.74-.39-1.55-6.75-1.75.39a.56.56 0 0 1-.73-.45.56.56 0 0 1 .46-.71l4.66-1a.6.6 0 1 1 .28 1.17l-1.75.39zM1154.68 87.66a.52.52 0 0 1 .46-.72.53.53 0 0 1 .73.45l2 8.51-1.56.35-4.71-6.32 1.48 6.43a.61.61 0 0 1-1.19.27l-2-8.51 1.57-.36 4.72 6.41zM1159.84 87.11l.1.42a.54.54 0 0 1-.46.73.53.53 0 0 1-.73-.46l-.37-1.59 5.84-1.31.37 1.59a.61.61 0 0 1-1.19.26l-.1-.42-1.15.26 1.7 7.34a.61.61 0 0 1-1.19.27l-1.66-7.36zM1174 91a.56.56 0 0 1 .73.45.54.54 0 0 1-.46.71l-5.27 1.22-2.09-9.09 5.26-1.18a.56.56 0 0 1 .73.45.54.54 0 0 1-.46.71l-4.07.92.63 2.81 1.74-.4a.57.57 0 0 1 .73.45.56.56 0 0 1-.46.72l-1.74.4.64 2.79zM1178.58 90.62a.52.52 0 0 1-.45.72.53.53 0 0 1-.73-.45l-2-8.51 4-.89a1.84 1.84 0 0 1 2.26 1.27l.18.81a1.73 1.73 0 0 1-1.49 2.07l-1.09.25 3.54 3.16a1.23 1.23 0 0 1 .43.55.58.58 0 0 1-.47.68.63.63 0 0 1-.6-.21l-4.33-3.87-.28.06zm-1.26-5.51l2.63-.59c.33-.07.84-.21.73-.69l-.18-.8c-.11-.47-.61-.42-1-.34l-2.64.6zM1146.51 84.34l-.61-2.65a.59.59 0 0 1 .51-.8.6.6 0 0 1 .82.5l.76 3.31a.62.62 0 0 1-.51.8l-5.25 1.18a.62.62 0 0 1-.81-.51.61.61 0 0 1 .51-.8l2-.44-1.75-7.6-2 .44a.63.63 0 0 1-.81-.51.62.62 0 0 1 .52-.8l3.29-.74 2.06 8.91zM1154.05 73.28a1.37 1.37 0 0 1 1.63 1l1.75 7.6a1.33 1.33 0 0 1-1 1.61l-3.92.88a1.35 1.35 0 0 1-1.63-1l-1.75-7.59a1.35 1.35 0 0 1 1-1.62zm2.05 8.9l-1.75-7.59-3.92.88 1.75 7.6zM1163.63 71.13a1.38 1.38 0 0 1 1.63 1l1.76 7.59a1.33 1.33 0 0 1-1 1.61l-3.91.88a1.35 1.35 0 0 1-1.64-1l-1.74-7.6a1.35 1.35 0 0 1 1-1.62zm2.05 8.91l-1.75-7.6-3.91.88 1.76 7.6zM1169.37 72.38a.72.72 0 0 1-.75-.09.85.85 0 0 1-.28-.56l-.17-.73a.79.79 0 0 1 0-.62c.12-.3.33-.34.63-.41l1-.21a.73.73 0 0 1 .75.1.86.86 0 0 1 .28.56l.17.74a.81.81 0 0 1 0 .62c-.13.29-.34.34-.63.4zm1.8 6.52a.74.74 0 0 1-1 .21.77.77 0 0 1-.21-.93l3.72-8a.71.71 0 0 1 .94-.21.75.75 0 0 1 .21.93zm3.94.4c-.29.07-.51.12-.75-.09a.88.88 0 0 1-.28-.56l-.17-.74a.89.89 0 0 1 0-.62c.13-.29.34-.34.64-.4l1-.22a.76.76 0 0 1 .75.1.94.94 0 0 1 .28.56l.17.73a.83.83 0 0 1 0 .63c-.12.29-.34.34-.63.41z"/></svg>