<svg id="дизайн-макет_копия_" data-name="дизайн-макет (копия)" xmlns="http://www.w3.org/2000/svg" viewBox="0 0 1200 178"><defs><style>.cls-1{fill:none}.cls-2{fill:#fff}.cls-3{clip-path:url(#clip-path)}.cls-11,.cls-4{fill:#d7006d}.cls-5{fill:#b5d4e4}.cls-6{clip-path:url(#clip-path-2)}.cls-12,.cls-7{fill:#00a8e1}.cls-8{fill:#ceeafa}.cls-9{clip-path:url(#clip-path-3)}.cls-10{fill:#29aee0}.cls-11,.cls-12{font-size:41.78px;font-family:PFAgoraSansPro-Medium,PF Agora Sans Pro}.cls-12{font-size:36.07px;letter-spacing:0}</style><clipPath id="clip-path"><path class="cls-1" d="M.29 23.63H606.5v155.31H.29z"/></clipPath><clipPath id="clip-path-2"><path class="cls-1" d="M630.92 0H1200v177.86H630.92z"/></clipPath><clipPath id="clip-path-3"><path class="cls-1" d="M341.48 0H.55L0 62.56 341.48 0z"/></clipPath></defs><title>white-banner</title><path class="cls-2" d="M0 0h1198v178H0z"/><g class="cls-3"><path class="cls-4" d="M.39 178.15l.15-60.46 137.17 26.91L.39 178.15z"/><path class="cls-4" d="M530.1 223.07l-.94.64h2.55l.36-.25zm-5.92-1.19l-2.66 1.83h2.54l2.08-1.44zm-5.92-1.19l-4.39 3h2.55l3.81-2.62zm-5.93-1.19l-6.11 4.21h2.55l5.54-3.82zm-5.93-1.18l-7.84 5.4h2.56l7.26-5zm-5.92-1.19l-9.56 6.59h2.56l9-6.19zm-5.93-1.19l-11.29 7.78h2.55l10.72-7.38zm-5.92-1.19l-13 9h2.55l12.44-8.57zm-5.92-1.19L468 223.71h2.55l14.12-9.71zm-5.92-1.19l-16.47 11.34h2.54l15.9-10.95zm-5.94-1.19l-18.2 12.53h2.56l17.62-12.13zm-5.93-1.18L445 223.71h2.55l19.35-13.32zm-5.92-1.19l-21.65 14.9h2.55L461 209.2zm-5.92-1.19l-23.38 16.09h2.56l22.8-15.7zm-5.92-1.19L422 223.71h2.55l24.52-16.89zm-5.93-1.19l-26.83 18.47h2.55l26.25-18.07zm-5.93-1.19l-28.55 19.66h2.55l28-19.26zm-5.91-1.19l-30.28 20.85h2.56l29.7-20.45zm-5.93-1.19l-32 22H394l31.43-21.64zm-5.93-1.19l-33.73 23.23h2.55l33.16-22.83zm-5.91-1.19l-35.46 24.41h2.55l34.88-24zm-5.94-1.19l-37.18 25.6h2.5l36.61-25.2zm-5.92-1.19l-38.91 26.79h2.54l38.34-26.4zm-5.92-1.19l-40.64 28h2.55l40.06-27.58zm-5.94-1.19l-42.37 29.17h2.56l41.79-28.77zm-5.9-1.17l-44.09 30.36h2.54l43.52-30zm-6-1.19l-45.82 31.54h2.55L378 192.56zm-5.9-1.17l-47.55 32.74h2.57l47-32.34zm-5.91-1.19l-49.27 33.92h2.56l48.69-33.52zm-5.93-1.19l-51 35.11h2.55L360.23 189zm-5.92-1.19l-52.72 36.3h2.53l52.15-35.93zm-5.92-1.19L292 223.71h2.55l53.87-37.09zm-5.94-1.24l-56.17 38.67h2.55l55.6-38.28zm-5.92-1.19l-57.91 39.86h2.54l57.32-39.47zm-5.94-1.19L269 223.71h2.55l59.05-40.65zm-5.91-1.18l-61.35 42.24h2.55l60.78-41.84zm-6-1.19l-63.08 43.43h2.56l62.5-43zm-5.92-1.19L246 223.71h2.55l64.23-44.22zm-5.92-1.19l-66.53 45.8H241l66-45.41zM1.6 177.85l-1.22.3v.54zm297.4-1.13l-68.26 47h2.56l67.7-46.6zm-5.92-1.19l-70 48.18h2.55L295 175.92zm-279.61-.58l-4 1-9.08 6.24V184zm273.68-.6l-71.71 49.37H218l71.14-49zm-5.94-1.19l-73.44 50.55h2.56l72.86-50.16zM25.33 172l-3.93 1-21 14.47v1.74zm250-.08l-75.16 51.74h2.55l74.59-51.35zm-5.93-1.19l-76.88 52.93H195l76.32-52.54zm-5.82-1.16L185 223.71h2.54l78-53.7zm-226.33-.48l-3.95 1L.39 192.74v1.75zm220.4-.72l-80.31 55.29h2.55l79.74-54.89zm-5.93-1.18l-82 56.48h2.57l81.46-56.08zm-202.61-1l-4 1L.39 198v1.76zm196.7-.19L162 223.71h2.54l83.19-57.27zm-5.93-1.19l-85.49 58.85h2.56l84.91-58.46zm-5.92-1.19l-87.22 60h2.55l86.64-59.65zM61 163.32l-3.95 1-56.64 39V205zm167-.84l-88.95 61.23h2.56L230 162.87zm-5.91-1.19l-90.67 62.42H134l90.09-62zm-149.24-.87l-4 1L.39 208.54v1.76zm143.3-.32l-92.4 63.61h2.55l91.83-63.21zm-5.92-1.18l-94.13 64.79h2.56l93.55-64.4zm-5.92-1.19l-95.85 66H111l95.27-65.59zm-119.59-.21l-4 1L.39 213.8v1.76zm113.66-1l-97.57 67.18h2.53l97-66.78zm-5.93-1.19l-99.3 68.37h2.56l98.72-68zm-95.86-.74l-4 1-92.2 63.49v1.75zm89.94-.45L85.5 223.7H88l100.5-69.15zm-5.94-1.14L77.84 223.7h2.55l102.17-70.34zm-5.93-1.19L70.18 223.7h2.56l103.91-71.53zm-66.23-.07l-3.93 1L1.32 223.7h2.54zm60.32-1.12L62.55 223.7h2.54L170.72 151zm-5.93-1.19L54.88 223.7h2.55l107.36-73.91zm-42.48-.61l-4 1L9 223.7h2.56zm36.56-.58L47.23 223.7h2.54l109.08-75.1zM151 147L39.59 223.7h2.53l110.82-76.29zm-18.77-1.13l-3.94 1L16.64 223.7h2.53zm12.84-.06L31.93 223.7h2.53L147 146.22zm-5.93-1.19L24.27 223.7h2.57L141.1 145z"/><path class="cls-5" d="M612.75 218.82l-7.31 5H608l4.76-3.28zm0-5.26l-14.95 10.28h2.55l12.4-8.54zm0-5.27l-22.59 15.55h2.54l20-13.8zm0-5.27l-30.24 20.81h2.55l27.69-19.06zm0-5.26l-37.87 26.06h2.55l35.32-24.31zm0-5.27l-45.5 31.32h2.55l43-29.57zm0-5.27l-53.16 36.58h2.54l50.61-34.8zm0-5.27L552 223.79h2.54l58.23-40.09zm0-5.27l-68.43 47.1h2.55l65.88-45.35zm0-5.27l-76.06 52.36h2.54l73.52-50.61zm0-5.26l-83.1 57.21 2 .39 81.12-55.85zm0-5.28l-89 61.3 2 .39 87.05-59.93zm0-5.26l-95 65.37 2 .4 93-64zm0-5.26l-100.89 69.43 2 .4 98.91-68.09zm0-5.28L505.92 218.6l2 .4 104.83-72.17zm-468.66-2.13l-4 1-1.37.94 2 .4zM156 140l-4 1-7.38 5.08 2 .39zm456.71-.18L500 217.41l2 .4 110.74-76.24zm-444.8-2.76l-4 1-13.37 9.2 2 .39zm444.8-2.52l-118.63 81.68 2 .39 116.67-80.32zm-432.88-.43l-4 1-19.38 13.34 2 .4zm11.95-2.95l-4 1-25.39 17.47 2 .4zm420.93-1.89L488.16 215l2 .39L612.73 131zm-409-1.06l-4 1-31.39 21.61 2 .4zm11.9-2.94l-3.95 1L174.29 152l2 .4zM612.73 124l-130.48 89.84 2 .4 128.52-88.47zm-385.13-1.67l-4 1-43.4 29.88 2 .4zm11.91-2.94l-4 1-49.4 34 2 .4zm373.23-.65l-136.42 93.91 2 .4 134.44-92.55zm-361.3-2.3l-4 1-55.41 38.15 2 .39zm11.93-2.95l-4 1L198 156.76l2 .39zm349.36 0l-142.33 98 2 .4 140.37-96.64zm-337.43-2.94l-4 1-67.41 46.4 2 .4zm337.43-2.35L464.47 210.27l2 .4L612.73 110zm-325.5-.59l-4 1-73.42 50.54 2 .4zm11.91-2.94l-3.94 1-79.43 54.68 2 .4zm313.59-1.72L458.56 209.08l2 .4L612.73 104.7zm-301.63-1.23l-4 1-85.44 58.82 2 .4zm11.9-2.95l-4 1-91.4 62.94 2 .39zm289.71-1.12l-160.1 110.24 2 .4L612.73 99.42zM335 95.83l-4 1-97.46 67.07 2 .4zm11.94-2.95l-4 1-103.49 71.2 2 .4zm265.84-.49l-166 114.3 2 .4L612.73 94.15zM358.8 89.94l-4 1-109.43 75.33 2 .4zm253.92-2.81l-172 118.37 2 .4 170-117zm-242-.14l-4 1-115.41 79.47 2 .39zm11.9-2.94l-4 1-121.39 83.6 2 .39zm230.08-2.2L434.84 204.32l2 .4L612.73 83.63zm-218.12-.76l-4 1-127.43 87.75 2 .4zm11.91-2.94l-4 1L269.09 171l2 .39zm206.24-1.55L428.92 203.13l2 .4L612.73 78.35zm-194.26-1.38l-4 1-139.47 96 2 .4zm11.89-2.94l-3.95 1-145.49 100.13 2 .39zm182.36-.95L423 201.94l2 .4L612.73 73.09zm-170.41-2l-4 1L286.86 174.6l2 .4zm11.92-2.94l-4 1-157.45 108.4 2 .39zm158.49-.34l-195.66 134.7 2 .4L612.72 67.82zm-146.55-2.61l-4 1L298.69 177l2 .39zm146.55-2.65L411.16 199.56l2 .4 199.56-137.4zm-134.61-.3l-4 1-169.48 116.68 2 .4zM490 57.55l-4 1-175.45 120.81 2 .4zm122.7-2L405.23 198.38l2 .4 205.49-141.5zm-110.79-.9l-3.94 1-181.52 125 2 .39zm12-3l-4 1L322.4 181.74l2 .4zm98.83-1.31L399.41 197.2l2 .4L612.72 52.11zm-86.92-1.63l-4 1-193.5 133.22 2 .39zm11.91-2.94l-3.94 1-199.53 137.35 2 .39zm75-.7L393.48 196l2 .4L612.72 46.85zm-63.06-2.25l-4 1-205.5 141.49 2 .39zm11.95-2.95l-4 1L346.09 186.5l2 .4zm51.11-.07l-225.17 155 2 .4L612.72 41.58zm-39.18-2.87l-4 1L352 187.68l2 .4zm39.18-2.38L381.64 193.63l2 .4L612.72 36.3zM585.47 34l-4 1-223.52 153.88 2 .39zm11.92-2.95l-4 1-229.54 158 2 .4zm15.33-1.77l-237 163.16 2 .4L612.72 31zm-3.42-1.17l-4 1-235.51 162.14 2 .4z"/></g><g class="cls-6"><path class="cls-7" d="M1199.87-.77l-.18 75.17-170.56-33.46L1199.87-.77z"/><path class="cls-7" d="M541.25-56.63l1.16-.8h-3.17l-.45.31zm7.36 1.48l3.31-2.28h-3.16l-2.6 1.79zm7.39 1.48l5.46-3.76h-3.18l-4.74 3.26zm7.37 1.48l7.6-5.24h-3.17l-6.88 4.75zm7.37 1.47l9.74-6.71h-3.18l-9 6.22zm7.36 1.48l11.9-8.19h-3.18l-11.17 7.7zm7.37 1.48l14-9.67h-3.17L583-48.25zm7.36 1.47L609-57.43h-3.17l-15.47 10.66zm7.36 1.48l18.33-12.62h-3.17l-17.61 12.14zm7.36 1.47L628-57.43h-3.15L605.1-43.82zm7.39 1.48l22.63-15.58h-3.18l-21.9 15.09zm7.37 1.47l24.77-17.05h-3.18l-24.06 16.58zm7.36 1.48l26.92-18.53h-3.17l-26.2 18zm7.33 1.5l29.07-20h-3.18l-28.33 19.5zm7.37 1.47l31.2-21.49h-3.17l-30.49 21zm7.37 1.48l33.36-23H682L649.32-35zm7.4 1.46l35.5-24.44h-3.17l-34.79 24zm7.35 1.47l37.65-25.92H701L664-32zm7.38 1.53l39.8-27.4h-3.18L671.4-30.52zm7.37 1.48l41.94-28.88H720L678.78-29zm7.35 1.48l44.09-30.35h-3.17l-43.37 29.83zm7.41 1.45l46.23-31.83H739l-45.48 31.33zm7.36 1.48l48.39-33.31h-3.16l-47.7 32.82zm7.36 1.47l50.53-34.79H758l-49.76 34.3zm7.39 1.48l52.68-36.26h-3.18l-52 35.77zm7.35 1.48l54.82-37.75h-3.18L723-20.17zm7.37 1.48l57-39.22h-3.17L730.35-18.7zm7.38 1.48l59.12-40.7h-3.19l-58.42 40.21zm7.35 1.48l61.26-42.17h-3.18l-60.56 41.67zm7.38 1.48l63.4-43.65h-3.17l-62.71 43.15zm7.36 1.48l65.55-45.13h-3.15l-64.87 44.63zm7.36 1.47l67.7-46.6h-3.16l-67 46.11zM777-9.34l69.84-48.08h-3.17L774.56-9.83zm7.36 1.48l72-49.56h-3.15L781.94-8.35zm7.38 1.48l74.14-51h-3.17L789.3-6.87zm7.36 1.48l76.28-52.52h-3.17l-75.56 52zm7.4 1.48l78.43-54h-3.18L804-3.92zm7.35 1.47l80.58-55.47h-3.17l-79.86 55zm7.37 1.47l82.72-56.95h-3.19L818.75-1zm377.14.07l1.51-.37v-.67zM828.6 1l84.88-58.43h-3.19L826.13.51zm7.4 1.49l87-59.91h-3.2L833.51 2zm347.65.72l4.88-1.21 11.34-7.81V-8zM843.32 4l89.16-61.38h-3.16L840.87 3.47zm7.38 1.48L942-57.41h-3.18L848.24 5zm318.15 1.38l4.88-1.2 26.13-18v-2.17zm-310.8.1l93.46-64.33h-3.18L855.6 6.43zm7.38 1.48L961-57.41h-3.17L863 7.91zm7.23 1.45l97.71-67.26h-3.16l-97 66.77zm281.4.59l4.91-1.2 40.89-28.15v-2.18zm-274 .89l99.86-68.75h-3.17l-99.17 68.22zm7.37 1.47l102-70.22h-3.19l-101.3 69.69zm251.91 1.24l4.93-1.21 55.62-38.29v-2.19zm-244.56.23l104.15-71.7h-3.16L892.31 13.79zm7.38 1.48l106.3-73.18h-3.18l-105.6 72.66zm7.37 1.47l108.44-74.65h-3.18L907 16.75zm215 .43l4.91-1.2L1199.87-32v-2.17zm-207.66 1.03l110.59-76.13h-3.19L914.41 18.22zm7.35 1.47L1037-57.41h-3.17l-112 77.12zm185.55 1.09l4.94-1.2 85.16-58.63v-2.19zm-178.17.4l114.9-79.09h-3.18L929.15 21.18zm7.4 1.47l117-80.56h-3.19l-116.3 80.07zm7.36 1.48l119.18-82h-3.16L943.89 24.14zm148.7.26l4.94-1.21 99.91-68.78v-2.19zM953.7 26.11L1075-57.41h-3.14l-120.61 83zm7.37 1.48l123.46-85h-3.18L958.61 27.1zm119.18.92l4.92-1.2 114.7-79v-2.18zm-111.82.56L1094-57.41h-3.16L966 28.57zm7.38 1.48l127.76-88h-3.17l-127 87.46zm7.38 1.45l129.91-89.43h-3.18l-129.2 88.96zm82.35.08l4.89-1.19 128.29-88.32h-3.15zm-75 1.39l132.05-90.91h-3.16L988.09 33zm7.37 1.53l134.21-92.39H1129L995.46 34.48zm52.82.76l4.93-1.21 133.55-91.93H1186zm-45.46.72l136.36-93.86h-3.16L1002.83 36zm7.38 1.48l138.49-95.34H1148l-137.81 94.82zm23.35 1.38l4.9-1.2 138.79-95.55h-3.15zm-16 .07l140.64-96.82h-3.15l-139.92 96.33zm7.37 1.48l142.79-98.3H1167L1024.92 40.4z"/><path class="cls-8" d="M438.49-51.34l9.09-6.26h-3.17l-5.92 4.08zm0 6.54l18.58-12.79h-3.17L438.49-47zm0 6.55l28.09-19.33h-3.16l-24.93 17.16zm0 6.56l37.59-25.88h-3.16l-34.42 23.7zm0 6.54l47.08-32.41h-3.17l-43.9 30.23zm0 6.56l56.58-38.95h-3.17l-53.4 36.76zm0 6.55l66.08-45.49h-3.17l-62.9 43.31zm0 6.55l75.56-52h-3.15L438.5-7.68zm0 6.55l85.08-58.57h-3.17L438.5-1.13zm0 6.55l94.56-65.1h-3.15L438.5 5.43zm0 6.54L541.82-57l-2.45-.49L438.5 12zm0 6.57L549.2-55.5l-2.46-.5L438.5 18.52zm0 6.54L556.57-54l-2.46-.49L438.5 25.07zm0 6.55l125.44-86.35-2.45-.46-123 84.66zm0 6.56l132.8-91.42-2.47-.5-130.31 89.73zM1021.22 43l4.92-1.21 1.7-1.17-2.44-.5zm-14.86 3.67l4.94-1.22 9.18-6.32-2.46-.49zm-567.85.22l140.15-96.47-2.46-.49-137.69 94.78zm553 3.43l4.94-1.22 16.62-11.44-2.45-.49zm-553 3.13L586-48.11l-2.46-.48-145.03 99.86zm538.22.55l4.92-1.22 24.09-16.59-2.45-.49zm-14.85 3.66l4.94-1.22 31.57-21.73-2.46-.5zM438.51 60L593.39-46.63l-2.44-.49L438.51 57.83zM947 61.32l5-1.22 39-26.87-2.45-.49zM932.24 65l4.91-1.21 46.5-32-2.44-.49zm-493.73 1.53L600.74-45.15l-2.44-.49-159.79 110zm478.85 2.1l5-1.22 54-37.15-2.46-.49zm-14.8 3.66l4.94-1.22 61.42-42.28-2.45-.5zm-464.05.8L608.12-43.67l-2.46-.49L438.51 70.92zM887.73 76l4.94-1.22 68.89-47.48-2.45-.49zm-14.83 3.67l4.93-1.22 76.37-52.57-2.45-.49zm-434.38 0l177-121.83-2.52-.52L438.51 77.47zm419.54 3.63l4.94-1.25 83.82-57.7-2.46-.49zm-419.55 2.9L622.86-40.71l-2.46-.49L438.51 84zm404.71.73l4.95-1.22 91.29-62.84-2.46-.49zm-14.8 3.67l4.9-1.21 98.77-68-2.44-.49zm-389.9 2.14l191.69-132-2.45-.49-189.25 130.3zm375 1.53l4.96-1.27 106.23-73.09-2.45-.49zm-14.82 3.66l5-1.22 113.67-78.28-2.46-.49zm-360.18 1.38L637.59-37.75l-2.47-.49-196.6 135.36zm345.37 2.27l4.92-1.21L910 17l-2.45-.49zM769 105.24l5-1.22 128.63-88.54-2.47-.5zm-330.53.61L645-36.27l-2.45-.49-204 140.43zm315.72 3l5-1.22L895.27 14l-2.46-.5zm-315.72 3.49L652.32-34.79l-2.46-.49L438.52 110.2zm300.87.18l5-1.22 143.55-98.78-2.45-.52zm-14.79 3.65l4.92-1.21 151-104-2.43-.49zm-286.07 2.73L659.69-33.31l-2.46-.49-218.71 150.56zm271.2.94l5-1.22L873.17 9.56l-2.46-.5zm-14.81 3.66l4.93-1.21L865.79 8.08l-2.44-.49zm-256.39 1.94L667.05-31.84l-2.46-.49-226.07 155.65zM680 127.21l5-1.23L858.44 6.6 856 6.1zm-14.79 3.65l4.91-1.21L851.06 5.12l-2.43-.49zM438.52 132L674.41-30.35l-2.41-.5-233.48 160.71zm211.88 2.49l4.93-1.22L843.69 3.64l-2.44-.49zm-14.82 3.66l4.92-1.15L836.33 2.16l-2.45-.49zm-197.06.42L681.79-28.87l-2.47-.5-240.8 165.78zm182.22 3.24l4.95-1.22L829 .69l-2.48-.5zm-182.22 3.29L689.14-27.4l-2.45-.49L438.52 143zm167.37.37l4.95-1.22L821.59-.8l-2.45-.49zm-14.81 3.66l5-1.23L814.24-2.27l-2.46-.49zm-152.56 2.57l258-177.62-2.46-.49-255.54 175.92zm137.76 1.13l4.9-1.22L806.87-3.76l-2.45-.49zm-14.88 3.67l4.94-1.22L799.5-5.23l-2.5-.5zm-122.88 1.63L703.74-24.46l-2.45-.54-262.77 180.94zm108.07 2l4.94-1.22L792.13-6.71l-2.46-.49zm-14.8 3.66l4.89-1.21L784.76-8.19l-2.43-.49zm-93.26.87L711.11-23l-2.46-.49-270.14 186zm78.41 2.79l4.92-1.22L777.4-9.67l-2.4-.49zm-14.85 3.67l5-1.23L770-11.15l-2.46-.49zm-63.55.09l280-192.73L716-22 438.53 169zm48.71 3.58l5-1.23L762.67-12.63l-2.45-.5zm-48.71 3L725.84-20l-2.45-.5-284.86 196.09zm33.88.69l4.94-1.22 278-191.35-2.44-.49zm-14.82 3.66l5-1.23L748-15.59l-2.47-.5zm-19.06 2.2L733.21-18.54l-2.47-.5-292.21 201.18zm4.25 1.45l5-1.22L740.58-17.06l-2.46-.5z"/></g><g class="cls-9"><path class="cls-10" d="M-260.11-54.36l1.7-1.69L759 141.15l-1.69 1.7zm1014 200.59l1.7-1.69L-261.82-52.67l-1.7 1.69zm-3.42 3.39l1.71-1.69L-265.25-49.29l-1.69 1.69zM747 153l1.73-1.69L-268.64-45.93l-1.7 1.69zm-3.41 3.38l1.71-1.69L-272.06-42.55l-1.7 1.69zm-3.43 3.38l1.74-1.68L-275.47-39.16l-1.69 1.7zm-3.38 3.38l1.7-1.69L-278.87-35.79l-1.71 1.69zm-3.41 3.37l1.69-1.69L-282.29-32.41l-1.71 1.69zm-3.37 3.36l1.69-1.68L-285.71-29l-1.69 1.7zm-3.42 3.38l1.71-1.69-1017.4-197.22-1.69 1.66zm-3.4 3.38l1.71-1.7-1017.4-197.21-1.72 1.69zm-3.42 3.37l1.7-1.7L-295.93-18.89l-1.71 1.69zm-3.42 3.37l1.7-1.69-1017.38-197.2-1.7 1.68zm-3.4 3.38l1.69-1.69L-302.74-12.15l-1.72 1.7zm-3.44 3.38l1.72-1.68L-306.16-8.76l-1.71 1.69zm-3.38 3.38l1.7-1.69L-309.58-5.39l-1.7 1.7zm-3.42 3.38l1.7-1.69L-313-2l-1.7 1.69zm-3.41 3.38l1.68-1.69L-316.4 1.38l-1.69 1.69zm-3.41 3.37l1.72-1.64L-319.8 4.75l-1.69 1.69zm-3.41 3.36l1.71-1.68L-323.21 8.13l-1.72 1.68zm-3.41 3.38l1.71-1.69-1017.4-197.18-1.69 1.7zm-3.41 3.37l1.68-1.69L-330 14.88l-1.71 1.69zm-3.42 3.39l1.71-1.7L-333.45 18.27l-1.7 1.73zm-3.41 3.37l1.7-1.69L-336.87 21.65l-1.69 1.69zm-3.4 3.38l1.71-1.69L-340.26 25l-1.7 1.7zm-3.42 3.42l1.72-1.69L-343.67 28.4l-1.7 1.69zm-3.4 3.38l1.69-1.69L-347.08 31.79l-1.72 1.68zm-3.41 3.37l1.71-1.69L-350.49 35.15l-1.72 1.69zm-3.41 3.38l1.7-1.69L-353.9 38.54l-1.71 1.69zm-3.42 3.38l1.71-1.69L-357.32 41.91l-1.7 1.69zm-3.4 3.37l1.71-1.69L-360.72 45.29l-1.69 1.7zm-3.42 3.38l1.72-1.69-1017.4-197.21-1.7 1.69zm-3.42 3.43l1.71-1.7L-367.55 52l-1.72 1.7zm-3.39 3.37l1.7-1.69L-370.95 55.42l-1.71 1.69zm-3.43 3.38L643 256-374.36 58.8l-1.71 1.69zm-3.41 3.38l1.7-1.69L-377.79 62.18l-1.69 1.69zm-3.4 3.37l1.71-1.69L-381.19 65.56l-1.7 1.68zm-3.42 3.38l1.71-1.7L-384.58 68.94l-1.71 1.69zm-3.41 3.38l1.7-1.69L-388 72.32l-1.72 1.68zm-3.4 3.37l1.7-1.7L-391.41 75.7l-1.71 1.69zm-3.41 3.37l1.68-1.69L-394.83 79.07l-1.7 1.69zm-3.4 3.38l1.66-1.69L-398.25 82.46l-1.7 1.69zm-3.45 3.35l1.7-1.69L-401.64 85.83l-1.72 1.68zm-3.42 3.38l1.71-1.7-1017.35-197.2-1.69 1.69zm-3.41 3.38l1.7-1.69L-408.48 92.59l-1.71 1.69zm-3.4 3.37l1.7-1.69L-411.87 96l-1.72 1.69zm-3.42 3.38l1.7-1.7-1017.33-197.2L-417 101zm-3.35 3.39l1.71-1.69-1017.43-197.22-1.71 1.69zm-3.45 3.37l1.71-1.69-1017.37-197.22-1.71 1.69zm-3.4 3.38l1.71-1.69-1017.39-197.22-1.69 1.69zm-3.42 3.38l1.71-1.7-1017.39-197.21-1.68 1.7zm-3.41 3.37l1.7-1.7-1017.36-197.21-1.72 1.69zm-3.41 3.38l1.71-1.69-1017.38-197.21-1.71 1.69zm-3.41 3.38l1.71-1.69L-439.16 123l-1.71 1.69zm-3.4 3.37l1.69-1.69-1017.35-197.21-1.73 1.69zm-3.43 3.38l1.73-1.64L-446 129.75l-1.73 1.68zm-3.39 3.36l1.69-1.69L-449.4 133.13l-1.7 1.69zm-3.42 3.37l1.71-1.7L-452.81 136.5l-1.71 1.69zm-3.41 3.38l1.72-1.69-1017.39-197.18-1.7 1.7zm-3.45 3.42l1.73-1.7-1017.35-197.21-1.71 1.7zm-3.39 3.37l1.71-1.69L-463 146.64l-1.73 1.68zm-3.39 3.38l1.71-1.69L-466.45 150l-1.7 1.69zm-3.43 3.38l1.71-1.69L-469.88 153.4l-1.69 1.69zm-3.39 3.37l1.69-1.69-1017.34-197.21-1.72 1.68zm-3.4 3.39l1.7-1.7-1017.38-197.21-1.72 1.69zm-3.43 3.37l1.71-1.69L-480.1 163.53l-1.7 1.69zm-3.39 3.38l1.71-1.69L-483.49 166.9l-1.71 1.69zm-3.41 3.38l1.71-1.7-1017.4-197.21-1.71 1.7zm-3.42 3.38l1.72-1.68-1017.4-197.23-1.7 1.69zM-28.11-284.18l1.71-1.69L991-88.65 989.29-87zm1014 200.59l1.71-1.69L-29.81-282.49l-1.7 1.69zm-3.4 3.39l1.69-1.7L-33.23-279.1l-1.69 1.69zM979-76.83l1.71-1.69L-36.64-275.74l-1.69 1.74zm-3.4 3.38l1.7-1.68L-40-272.36l-1.71 1.69zm-3.43 3.38l1.74-1.68L-43.46-269l-1.69 1.7zm-3.38 3.38l1.69-1.69L-46.86-265.6l-1.71 1.69zm-3.42 3.38L967.1-65-50.27-262.22l-1.73 1.69zM962-59.94l1.69-1.69L-53.69-258.84l-1.7 1.7zm-3.4 3.38l1.7-1.69L-57.1-255.47l-1.7 1.68zm-3.41 3.38l1.7-1.7L-60.5-252.09l-1.72 1.69zm-3.4 3.38l1.7-1.69L-63.92-248.7l-1.7 1.69zm-3.41 3.38l1.7-1.7-1017.4-197.21-1.68 1.69zM944.95-43l1.69-1.7L-70.73-242l-1.72 1.69zm-3.43 3.38l1.72-1.68L-74.15-238.56l-1.7 1.68zm-3.39 3.38l1.69-1.76L-77.57-235.2l-1.69 1.69zm-3.41 3.38l1.69-1.7L-81-231.82l-1.71 1.69zm-3.43 3.38l1.71-1.74L-84.38-228.44l-1.7 1.7zm-3.4 3.37l1.71-1.69L-87.78-225.06l-1.7 1.69zm-3.41 3.38l1.71-1.68L-91.2-221.68l-1.71 1.68zm-3.42 3.38l1.71-1.69L-94.62-218.31l-1.69 1.7zM917.65-16l1.69-1.69L-98-214.93l-1.72 1.69zm-3.41 3.39l1.71-1.7-1017.38-197.23-1.71 1.69zm-3.41 3.38l1.7-1.7-1017.38-197.23-1.7 1.68zm-3.42 3.37l1.72-1.69-1017.38-197.24-1.7 1.69zM904-2.5l1.71-1.7-1017.37-197.21-1.7 1.7zM900.6.87l1.7-1.69L-115.06-198l-1.73 1.69zm-3.42 3.37l1.72-1.69-1017.38-197.2-1.71 1.68zm-3.4 3.38l1.7-1.69-1017.37-197.21-1.71 1.69zM890.37 11l1.7-1.69L-125.31-187.9l-1.71 1.7zM887 14.38l1.71-1.69-1017.42-197.21-1.7 1.69zm-3.42 3.38l1.71-1.69-1017.42-197.22-1.7 1.69zm-3.41 3.38l1.71-1.69-1017.41-197.22-1.72 1.7zm-3.39 3.38l1.7-1.69-1017.42-197.22-1.71 1.68zm-3.43 3.38l1.65-1.7L-142.34-171l-1.71 1.7zm-3.41 3.38l1.7-1.69-1017.42-197.22-1.68 1.7zm-3.41 3.37L868.2 33-149.18-164.25l-1.69 1.7zM863.07 38l1.71-1.7-1017.36-197.17-1.71 1.69zm-3.4 3.38l1.7-1.69L-156-157.49l-1.7 1.69zm-3.39 3.37l1.72-1.66-1017.4-197.21-1.71 1.69zm-3.43 3.39l1.7-1.7-1017.36-197.18-1.7 1.69zm-3.4 3.37l1.67-1.7-1017.35-197.17-1.69 1.69zM846 54.92l1.69-1.69L-169.62-144l-1.73 1.69zm-3.42 3.38l1.71-1.7-1017.35-197.2-1.68 1.7zm-3.41 3.38l1.7-1.69-1017.33-197.22-1.7 1.69zm-3.4 3.38l1.69-1.7-1017.33-197.21-1.72 1.69zm-3.43 3.38l1.7-1.7-1017.31-197.2-1.71 1.68zM829 71.82l1.71-1.69L-186.7-127.09l-1.69 1.7zm-3.42 3.37l1.71-1.69L-190.1-123.72l-1.7 1.69zm-3.41 3.38l1.7-1.69-1017.39-197.21-1.69 1.69zM818.75 82l1.7-1.69L-196.93-117l-1.7 1.69zm-3.41 3.37l1.7-1.7-1017.37-197.25-1.72 1.68zm-3.41 3.38l1.71-1.75-1017.37-197.2-1.71 1.69zm-3.41 3.39l1.71-1.7-1017.38-197.26-1.72 1.69zm-3.4 3.36l1.69-1.69-1017.37-197.26-1.72 1.69zm-3.42 3.39l1.71-1.69L-214-100.06l-1.71 1.69zm-3.41 3.38l1.7-1.69L-217.38-96.69l-1.71 1.69zm-3.42 3.37l1.7-1.69L-220.8-93.31l-1.7 1.69zm-3.42 3.36l1.72-1.69L-224.2-89.93l-1.71 1.7zm-3.45 3.35l1.72-1.7-1017.33-197.2-1.71 1.69zm-3.4 3.37l1.7-1.69L-231-83.18l-1.73 1.69zm-3.4 3.38l1.71-1.69-1017.36-197.2-1.7 1.69zm-3.43 3.38l1.7-1.69L-237.85-76.42l-1.71 1.69zm-3.38 3.38l1.69-1.69L-241.25-73l-1.75 1.64zm-3.39 3.38l1.7-1.7L-244.67-69.67l-1.72 1.7zm-3.43 3.37l1.72-1.68L-248.08-66.28l-1.71 1.69zm-3.4 3.38l1.72-1.69L-251.49-62.91l-1.71 1.69zm-3.41 3.38l1.71-1.7-1017.36-197.2-1.72 1.69z"/></g><text class="cls-11" transform="translate(62.51 103.31)">ПРИСОЕДИНЯЙСЯ!</text><text class="cls-12" transform="translate(752.1 101.98)">СТАНЬ ВОЛОНТЕРОМ!</text><path class="cls-4" d="M1068.16 120.53l10.29 44.85 121.52-27.44V90.07l-131.81 30.46z"/><path class="cls-2" d="M1100.44 155.59c-.65.14-1.07.09-1.37-.56 0 .71-.33.93-1 1.08l-1.43.31a1.08 1.08 0 0 1-1.34-.41l-.92-1a1.25 1.25 0 0 1-.5-.9l-2.52-11a.83.83 0 0 1 .73-1.16.85.85 0 0 1 1.17.73l2.55 11 .71.79.84-.19.31-1-1.38-6c-.13-.6 0-1.18.71-1.33s1.08.32 1.22.9l1.38 6 .73.79.81-.2.31-1-2.52-11a.84.84 0 0 1 .74-1.15.86.86 0 0 1 1.17.72l2.53 11a1.34 1.34 0 0 1 0 1l-.42 1.31c-.19.63-.35.79-1 .94zM1113.58 150.64l2.82-.63a.91.91 0 0 1 1.18.74.89.89 0 0 1-.75 1.16l-7.55 1.69a.9.9 0 0 1-1.17-.74.88.88 0 0 1 .73-1.15l2.82-.64-2.51-10.93-2.83.63a.92.92 0 0 1-1.18-.73.9.9 0 0 1 .75-1.15l7.55-1.7a.92.92 0 0 1 1.18.72.91.91 0 0 1-.73 1.17l-2.83.63zM1126.55 135.26a.84.84 0 0 1 .74-1.16.86.86 0 0 1 1.18.73l3.17 13.78-2.53.56-7.62-10.23 2.41 10.4a.84.84 0 0 1-.74 1.16.85.85 0 0 1-1.18-.72l-3.23-13.78 2.54-.58 7.64 10.37zM1134.92 134.36l.17.68a.87.87 0 0 1-.75 1.18.85.85 0 0 1-1.17-.75l-.59-2.57 9.46-2.13.6 2.58a1 1 0 0 1-1.93.42l-.16-.68-1.86.42 2.74 11.88a1 1 0 0 1-1.92.43l-2.74-11.89zM1157.85 140.71a.91.91 0 0 1 1.17.74.88.88 0 0 1-.74 1.15l-8.52 1.92-3.39-14.72 8.52-1.91a.92.92 0 0 1 1.18.73.88.88 0 0 1-.75 1.16l-6.59 1.49 1 4.53 2.82-.64a.92.92 0 0 1 1.18.73.9.9 0 0 1-.73 1.11l-2.82.64 1 4.52zM1165.28 140a.84.84 0 0 1-.74 1.16.86.86 0 0 1-1.18-.72l-3.18-13.77 6.46-1.44a3 3 0 0 1 3.67 2.06l.29 1.31a2.8 2.8 0 0 1-2.41 3.36l-1.76.41 5.72 5.12a2 2 0 0 1 .71.9.94.94 0 0 1-.76 1.11 1 1 0 0 1-1-.34l-7-6.27-.45.1zm-2-8.92l4.26-1c.53-.12 1.36-.35 1.18-1.11l-.29-1.3c-.17-.75-1-.67-1.56-.54l-4.28 1zM1113.32 129.88l-1-4.29a1 1 0 0 1 .83-1.3 1 1 0 0 1 1.33.82l1.23 5.36a1 1 0 0 1-.83 1.3l-8.5 1.9a1 1 0 0 1-1.31-.82 1 1 0 0 1 .83-1.3l3.17-.71-2.84-12.29-3.17.71a1 1 0 0 1-1.32-.83 1 1 0 0 1 .84-1.29l5.33-1.2 3.33 14.42zM1125.54 112a2.21 2.21 0 0 1 2.64 1.64l2.84 12.3a2.16 2.16 0 0 1-1.67 2.61L1123 130a2.19 2.19 0 0 1-2.65-1.65l-2.83-12.35a2.19 2.19 0 0 1 1.67-2.62zm3.33 14.41l-2.87-12.3-6.36 1.42 2.84 12.3zM1141.06 108.49a2.23 2.23 0 0 1 2.65 1.65l2.84 12.29a2.15 2.15 0 0 1-1.67 2.61l-6.34 1.42a2.18 2.18 0 0 1-2.65-1.64l-2.83-12.3a2.19 2.19 0 0 1 1.67-2.62zm3.32 14.43l-2.84-12.29-6.34 1.43 2.85 12.29zM1150.34 110.53a1.17 1.17 0 0 1-1.21-.15 1.38 1.38 0 0 1-.45-.91l-.27-1.19a1.28 1.28 0 0 1 0-1c.2-.49.54-.55 1-.66l1.55-.35a1.19 1.19 0 0 1 1.22.16 1.38 1.38 0 0 1 .45.91l.28 1.19a1.35 1.35 0 0 1 0 1c-.22.47-.54.54-1 .65zm2.92 10.55a1.19 1.19 0 0 1-1.54.34 1.25 1.25 0 0 1-.34-1.51l6-12.93a1.16 1.16 0 0 1 1.53-.35 1.22 1.22 0 0 1 .34 1.51zm6.39.64c-.47.11-.82.19-1.22-.15a1.45 1.45 0 0 1-.46-.9l-.28-1.2a1.43 1.43 0 0 1 0-1c.21-.47.55-.55 1-.65l1.55-.35a1.24 1.24 0 0 1 1.23.15 1.51 1.51 0 0 1 .45.9l.27 1.19a1.39 1.39 0 0 1 0 1c-.21.47-.55.56-1 .66z"/></svg>