<?xml version="1.0" encoding="utf-8"?>
<!-- Generator: Adobe Illustrator 19.1.0, SVG Export Plug-In . SVG Version: 6.00 Build 0)  -->
<svg version="1.1" id="Layer_1" xmlns="http://www.w3.org/2000/svg" xmlns:xlink="http://www.w3.org/1999/xlink" x="0px" y="0px"
	 viewBox="-671 370 22 29" style="enable-background:new -671 370 22 29;" xml:space="preserve">
<style type="text/css">
	.st0{fill:#F7A520;}
</style>
<g>
	<path class="st0" d="M-664.1,373.9c1.1,0,2-0.9,2-1.9c0-1.1-0.9-1.9-2-1.9c-1.1,0-2,0.9-2,1.9C-666,373-665.1,373.9-664.1,373.9"/>
	<path class="st0" d="M-662.9,388.3c2.6,5.4,8.3,8.8,13.9,10.1c-6.2-3.3-10.1-7.7-11.2-14.3c-0.3-1.5-0.3-3.5-0.4-4.4
		c-0.3-4.8,6.4-2.8,7.8,4.3c0-4.9-1.8-8.2-6.5-9c-1.9-0.3-4.3-0.3-6,0.7c-1.1,0.6-2,2.4-3.1,2c-1.6-0.5-1.3-2.5-0.1-4.3
		c-1.4,0.9-3.3,4-1.9,5.9c0.6,0.9,2.7,1.4,4.5,0.3c0-0.6,0.1-1.1,0.2-1.6c0.3,1.3,0.7,3.2,1.2,4.9c0.2,0.9,0.3,2.3-1.1,2.8
		c-2.2,0.8-4,2.3-4.7,4c-0.6,1.6-0.2,6.1,1.9,9.4c-0.3-2.5-1.6-6.1,0.9-8.5C-666.1,389-664.2,388.7-662.9,388.3"/>
</g>
</svg>
