<?xml version="1.0" encoding="utf-8"?>
<!-- Generator: Adobe Illustrator 19.1.0, SVG Export Plug-In . SVG Version: 6.00 Build 0)  -->
<svg version="1.1" id="Layer_1" xmlns="http://www.w3.org/2000/svg" xmlns:xlink="http://www.w3.org/1999/xlink" x="0px" y="0px"
	 viewBox="-669 371 27 28" style="enable-background:new -669 371 27 28;" xml:space="preserve">
<style type="text/css">
	.st0{fill:#F7A520;}
</style>
<g>
	<path class="st0" d="M-654.9,387.2c1.7,1.9,1.9,3.8,3.9,5.2c2.8,2,4.9,2.6,9,6.5c-2.6-5.4-5-7.5-6.9-8.3c-2.2-1-1.1-4.4-2.7-6.3
		c-1.1-1.2-1.4-2.5-1.2-3.8c3.4,2.2,6.6-1.5,9.7,0.1c-2-2.2-3.5-1-6.4-1.2c-1.7-0.1-2.7-2.2-4.4-3.1c-3.2-2-8.6-1.6-12,2.7
		c-1.5,1.9-1.4,4.1-3.1,6.2c2.2-1.6,2.5-2.3,4-4.7c1-1.5,2.7-2.1,4.3-2.2c1.2-0.1,1.4,2.5,2.2,6.3c1.1,4.9,1.3,10.5,9.4,12.8
		C-652.6,395.1-654.4,390-654.9,387.2z"/>
	<ellipse class="st0" cx="-644.5" cy="383.1" rx="2.2" ry="2.2"/>
	<ellipse class="st0" cx="-656.2" cy="372.9" rx="1.9" ry="1.9"/>
</g>
</svg>
