<?xml version="1.0" encoding="utf-8"?>
<!-- Generator: Adobe Illustrator 19.1.0, SVG Export Plug-In . SVG Version: 6.00 Build 0)  -->
<svg version="1.1" baseProfile="tiny" id="Layer_1" xmlns="http://www.w3.org/2000/svg" xmlns:xlink="http://www.w3.org/1999/xlink"
	 x="0px" y="0px" viewBox="-666 370 33 30" xml:space="preserve">
<g>
	<path fill="#F7A520" d="M-636.6,376.2c-0.1-1.6-0.1-4.6,1-5.3c0.5-0.3,1,0.2,1.3,0.5c1.3,1.7,0.9,3.7,0.3,4.9l0.3,0
		c0.9-2.1,1-3.7-0.3-5.6c-0.4-0.5-1.4-1-2-0.6c-0.8,0.5-0.9,4.2-0.9,6c-3.2-0.3-5.6-1.1-8.7-1.3c-5.3-0.3-12.6,5.1-17.4,0.6
		c2,4.1,6.9,2.8,10.8,2.9c5.1-0.1,2.4,3,0.9,4.9c-1.1,1.4-1.7,3.9-3.1,6.2c-4.2-1.3-7.5-4.7-11.5-8.6c0,0.2,0,0.3,0,0.5
		c3.9,3.8,7.2,7.1,11.3,8.6c-0.3,0.4-0.5,0.8-0.9,1.2c-3.2,3.7-7.2,6.1-7.3,7.3c2.4-2.5,6.2-2.7,10.9-7.8c1.5,0.2,3,0.2,4.7-0.1
		c0,0.1,0.1,0.2,0.1,0.3c0.7,2.5-1.7,6.6-1.7,9.2c0.7-2.9,4-6.3,4-9.3c0-0.2,0-0.4-0.1-0.7c0.7-0.2,1.4-0.4,2.1-0.7
		c5.6-2,6.5-6.9,6.3-12.2c0-0.1,0-0.2,0-0.3c0.9-0.1,1.9-0.3,2.9-0.6C-634.7,376.3-635.7,376.3-636.6,376.2z M-651.4,390
		c0.4-0.5,0.9-1,1.3-1.6c-0.8-0.8-1.1-1.9-1.1-3c0.7,1.6,2.6,2.9,3.6,4.4C-649,390-650.3,390.1-651.4,390z M-636.9,377.2
		c0.2,5.1-1,9.5-6.4,11.5c-0.7,0.2-1.3,0.4-1.9,0.6c-0.7-1.8-2.4-4.2-2.9-5.1c2.1-2.8,3.4-3.8,2.9-7.4c2.5-0.2,5.1,0.4,8.2,0.2
		C-636.9,377.1-636.9,377.2-636.9,377.2z"/>
	<path fill="#F7A520" d="M-648.6,374.2c0.9-0.2,1.4-1.1,1.3-2c-0.2-0.9-1-1.5-1.9-1.3c-0.9,0.2-1.4,1.1-1.3,2
		C-650.3,373.8-649.4,374.4-648.6,374.2z"/>
</g>
</svg>
