<?xml version="1.0" encoding="utf-8"?>
<!-- Generator: Adobe Illustrator 19.1.0, SVG Export Plug-In . SVG Version: 6.00 Build 0)  -->
<svg version="1.1" baseProfile="tiny" id="Layer_1" xmlns="http://www.w3.org/2000/svg" xmlns:xlink="http://www.w3.org/1999/xlink"
	 x="0px" y="0px" viewBox="-674 377 17 16" xml:space="preserve">
<g>
	<path fill="#ED6F26" d="M-665.5,382.2c-1.7,0-3,1.3-3,2.8c0,1.6,1.4,2.8,3,2.8s3-1.3,3-2.8C-662.5,383.4-663.8,382.2-665.5,382.2z"
		/>
	<path fill="#ED6F26" d="M-661.7,377h-7.5c-2.6,0-4.8,2-4.8,4.5v7.1c0,2.5,2.1,4.5,4.7,4.5h7.5c2.6,0,4.7-2,4.7-4.5v-7.1
		C-657,379-659.1,377-661.7,377z M-665.5,389.1c-2.4,0-4.4-1.9-4.4-4.1c0-2.3,2-4.1,4.4-4.1s4.4,1.9,4.4,4.1
		C-661.1,387.3-663.1,389.1-665.5,389.1z M-661,381.9c-0.6,0-1.1-0.5-1.1-1.1s0.5-1.1,1.1-1.1c0.6,0,1.1,0.5,1.1,1.1
		C-659.8,381.4-660.3,381.9-661,381.9z"/>
</g>
</svg>
