<?xml version="1.0" encoding="utf-8"?>
<!-- Generator: Adobe Illustrator 19.1.0, SVG Export Plug-In . SVG Version: 6.00 Build 0)  -->
<svg version="1.1" baseProfile="tiny" id="Layer_1" xmlns="http://www.w3.org/2000/svg" xmlns:xlink="http://www.w3.org/1999/xlink"
	 x="0px" y="0px" viewBox="-667 373 30 24" xml:space="preserve">
<g>
	<path fill="#F7A520" d="M-652.5,379.1c1.1,0,1.9-0.8,1.9-1.9c0-1-0.9-1.9-1.9-1.9c-1.1,0-1.9,0.8-1.9,1.9
		C-654.4,378.3-653.5,379.1-652.5,379.1z"/>
	<path fill="#F7A520" d="M-639.3,376.9c-1.1,0.2-2.8,1.9-3.9,1.9c-1.4,0.1-2.2-1.5-2.2-3.2c1.1,0.1,2.1,0.3,3.3,1
		c-3-3.9-6.7-4-10.5-2.5c2.9,1.2,4.8,1.3,6.5,1.4c-0.7,1.6-0.4,3.6,0.6,4.8c-6,1.6-11.7-1.4-9.3-5.3c-3.9,2.5-3.6,6.3-1.2,7.5
		c2.3,1.1,7,0.7,10.7-1.9c1.4,1.4,3.8,1.3,5.6,1c-0.9,0.6-2,0.7-3.2,0.9c-1.3,1.9-4.4,2.7-7.1,4.8c-0.1,0.1-0.3,0.2-0.4,0.4
		c-0.7-1.4-1.5-2.8-2.8-3.9c-4,0.8-6.3-1.4-5.7-4.1c-3.9,3.7-2.2,5.9-3.4,9.9c-0.7,2.3-1.8,4.3-4.5,7.2c4.2-1.9,6.9-4,7.7-6.1
		c2-5.2,3.7-4.7,6.6-0.8c-1.5,1.8-2.5,3.9-4,6.6c1.8-2,3.4-3.6,5.2-4.9c1,1.5,2.2,3.2,3.5,5.2c-0.5-2-0.9-4.2-1.5-6.5
		c0.1-0.1,0.3-0.2,0.4-0.2c2.3-1.2,6-1.9,8.5-3.9c1.5-1.3,2.9-3,3.5-6.9C-636.8,377.6-637.1,376.5-639.3,376.9z"/>
	<path fill="#F7A520" d="M-641.9,387.9c-4.7,2.1-3.7,7.1,1.8,9.1C-642.6,393.9-642.4,389.9-641.9,387.9z"/>
	<path fill="#F7A520" d="M-640.3,376.5c1,0,1.8-0.8,1.8-1.7c0-1-0.8-1.7-1.8-1.7c-1,0-1.8,0.8-1.8,1.7
		C-642.1,375.7-641.3,376.5-640.3,376.5z"/>
</g>
</svg>
