<?xml version="1.0" encoding="utf-8"?>
<!-- Generator: Adobe Illustrator 16.0.0, SVG Export Plug-In . SVG Version: 6.00 Build 0)  -->
<!DOCTYPE svg PUBLIC "-//W3C//DTD SVG 1.1 Tiny//EN" "http://www.w3.org/Graphics/SVG/1.1/DTD/svg11-tiny.dtd">
<svg version="1.1" baseProfile="tiny" id="Layer_1" xmlns="http://www.w3.org/2000/svg" xmlns:xlink="http://www.w3.org/1999/xlink"
	 x="0px" y="0px" width="59.966px" height="60px" viewBox="0 0 59.966 60" xml:space="preserve">
<g>
	<path fill="#FFFFFF" d="M30,0C13.467,0,0,13.467,0,30c0,16.533,13.467,30,30,30s30-13.467,30-30C60,13.467,46.533,0,30,0z M30,58.8
		C14.133,58.8,1.2,45.867,1.2,30C1.2,14.133,14.133,1.2,30,1.2S58.8,14.133,58.8,30C58.8,45.867,45.867,58.8,30,58.8z"/>
	<path fill="#FFFFFF" d="M39.572,28.284l-11.463-7.333c-0.65-0.418-1.485-0.418-2.182-0.046c-0.649,0.371-1.16,1.021-1.16,1.81
		v14.573c0,0.743,0.464,1.439,1.16,1.81c0.325,0.186,0.696,0.279,1.021,0.279c0.372,0,0.789-0.093,1.114-0.325l11.463-7.287
		c0.604-0.371,0.975-1.021,0.975-1.717C40.5,29.305,40.175,28.655,39.572,28.284z"/>
</g>
</svg>
