<?xml version="1.0" encoding="utf-8"?>
<!-- Generator: Adobe Illustrator 16.0.0, SVG Export Plug-In . SVG Version: 6.00 Build 0)  -->
<!DOCTYPE svg PUBLIC "-//W3C//DTD SVG 1.1//EN" "http://www.w3.org/Graphics/SVG/1.1/DTD/svg11.dtd">
<svg version="1.1" id="Layer_1" xmlns="http://www.w3.org/2000/svg" xmlns:xlink="http://www.w3.org/1999/xlink" x="0px" y="0px"
	 width="15px" height="12px" viewBox="0 0 15 12" enable-background="new 0 0 15 12" xml:space="preserve">
<path d="M15,1.421c-0.554,0.241-1.146,0.402-1.768,0.476c0.635-0.374,1.123-0.969,1.353-1.676c-0.595,0.347-1.253,0.599-1.954,0.736
	C12.069,0.369,11.269,0,10.385,0C8.685,0,7.307,1.356,7.307,3.03c0,0.236,0.027,0.469,0.08,0.69C4.83,3.593,2.562,2.387,1.045,0.555
	C0.779,1.002,0.628,1.522,0.628,2.077c0,1.053,0.543,1.978,1.369,2.521C1.493,4.585,1.018,4.447,0.602,4.22c0,0.013,0,0.025,0,0.038
	c0,1.468,1.061,2.693,2.468,2.97c-0.258,0.07-0.529,0.105-0.81,0.105c-0.198,0-0.391-0.018-0.58-0.054
	c0.392,1.204,1.528,2.08,2.875,2.103c-1.052,0.814-2.38,1.299-3.822,1.299c-0.248,0-0.493-0.015-0.734-0.044
	C1.361,11.498,2.979,12,4.716,12c5.662,0,8.755-4.615,8.755-8.62c0-0.13-0.003-0.262-0.007-0.391
	C14.065,2.562,14.587,2.028,15,1.421z"/>
</svg>
