<svg id="Слой_1" xmlns="http://www.w3.org/2000/svg" xmlns:xlink="http://www.w3.org/1999/xlink" viewBox="0 0 216 348"><style>.st0{clip-path:url(#SVGID_2_);fill:#f8cfa3}</style><defs><path id="SVGID_1_" d="M108 72c-19.9 0-36 16.1-36 36s16.1 36 36 36 36-16.1 36-36-16.1-36-36-36zm0 96c-33.1 0-60-26.9-60-60s26.9-60 60-60 60 26.9 60 60-26.9 60-60 60zm0-168C48.4 0 0 48 0 107.1c0 62.3 58 95.3 102.1 189.2 1.1 2.3 3.4 3.7 5.9 3.7s4.8-1.5 5.9-3.7C158 202.4 216 169.4 216 107.1 216 48 167.6 0 108 0zm96 300c0 26.5-43 48-96 48s-96-21.5-96-48c0-17.1 17.8-32 44.7-40.5 3.2 5.2 6.3 10.4 9.3 15.6C47.8 280 36 288 36 297c0 14.9 32.2 27 72 27s72-12.1 72-27c0-9-11.8-17-30-21.9 3-5.3 6.1-10.5 9.3-15.6C186.1 268 204 282.9 204 300z"/></defs><clipPath id="SVGID_2_"><use xlink:href="#SVGID_1_" overflow="visible"/></clipPath><path class="st0" d="M-5-5h221v353H-5z"/></svg>