<svg id="_x2014_лой_x5F_1" xmlns="http://www.w3.org/2000/svg" viewBox="0 0 110.6 110.6"><style>.st0{fill:#f8cfa3}</style><path class="st0" d="M62.8 61.4l-2.6 2.3c-.3.3-.7.2-1 0-1.8-1.9-3.8-4.2-5.7-7-1.7-2.4-3-4.8-4-6.9-.2-.3 0-.8.3-.9l3-1.7c.2-.1.4-.3.6-.6l1.1-2.1c.2-.3.2-.7 0-1L50 35.3c-.2-.3-.5-.5-.9-.6l-2.5-.2c-.3 0-.6 0-.8.2l-2.9 1.6-1 .5c-1.1.6-1.8 1.8-1.9 3.1 0 1.4.2 2.9.6 4.6 1.1 4.7 3.9 10.5 7.9 16.3 4 5.7 8.6 10.3 12.6 13 1.4 1 2.8 1.7 4.1 2.1 1.2.4 2.6.2 3.5-.7l.8-.7 2.5-2.2c.2-.2.4-.4.4-.7l.7-2.4c.1-.4 0-.7-.2-1l-6.2-7.1c-.2-.3-.6-.4-1-.4l-2.2.3c-.3.1-.5.2-.7.4z"/><path class="st0" d="M55.3 0C24.7 0 0 24.7 0 55.3s24.7 55.3 55.3 55.3 55.3-24.7 55.3-55.3S85.8 0 55.3 0zm0 102.9C29 102.9 7.7 81.5 7.7 55.3 7.7 29 29 7.7 55.3 7.7s47.6 21.4 47.6 47.6c0 26.2-21.4 47.6-47.6 47.6z"/></svg>