<svg id="Layer_1" data-name="Layer 1" xmlns="http://www.w3.org/2000/svg" viewBox="0 0 131.05 131.05"><defs><style>.cls-1{fill:#191a34;}.cls-2{fill:#e84734;}</style></defs><title>Artboard 2</title><path class="cls-1" d="M84.17,94.38c-1.38-.83-2.79-1.66-4.21-2.48a35.71,35.71,0,0,0,0-8.52c1.42-.82,2.84-1.65,4.21-2.48a5.53,5.53,0,0,0,2.24-6.81h0l-3-7.27A5.52,5.52,0,0,0,77,63.59c-1.56.38-3.15.79-4.72,1.22a36.27,36.27,0,0,0-6-6c.43-1.58.84-3.17,1.23-4.73a5.52,5.52,0,0,0-3.23-6.39l-7.28-3a5.53,5.53,0,0,0-6.81,2.24c-.83,1.38-1.66,2.79-2.47,4.21a36.33,36.33,0,0,0-8.53,0c-.82-1.42-1.66-2.83-2.48-4.2a5.53,5.53,0,0,0-6.81-2.24l-7.27,3a5.5,5.5,0,0,0-3.23,6.39c.38,1.56.79,3.15,1.22,4.73a36.21,36.21,0,0,0-6,6C13,64.38,11.37,64,9.82,63.59a5.5,5.5,0,0,0-6.39,3.23l-3,7.27A5.53,5.53,0,0,0,2.65,80.9c1.38.83,2.79,1.66,4.21,2.48a35.71,35.71,0,0,0,0,8.52c-1.42.82-2.83,1.65-4.21,2.48a5.53,5.53,0,0,0-2.24,6.81l3,7.27a5.52,5.52,0,0,0,6.39,3.24c1.56-.39,3.15-.8,4.73-1.23a36.21,36.21,0,0,0,6,6c-.43,1.59-.84,3.17-1.22,4.73a5.5,5.5,0,0,0,3.23,6.39l7.27,3a5.39,5.39,0,0,0,2.08.41,5.52,5.52,0,0,0,4.73-2.65c.82-1.37,1.66-2.78,2.48-4.21a36.33,36.33,0,0,0,8.53,0c.81,1.41,1.64,2.82,2.47,4.2A5.53,5.53,0,0,0,57,130.64l7.28-3a5.52,5.52,0,0,0,3.23-6.39c-.39-1.55-.8-3.13-1.22-4.73a36.15,36.15,0,0,0,6-6c1.58.43,3.17.84,4.73,1.23a5.53,5.53,0,0,0,6.4-3.24l3-7.27A5.53,5.53,0,0,0,84.17,94.38ZM78.1,105.92c-1.5-.37-3-.77-4.53-1.17a5.47,5.47,0,0,0-5.77,1.92A30.67,30.67,0,0,1,62.43,112a5.46,5.46,0,0,0-1.91,5.76c.41,1.52.8,3,1.18,4.53L55,125.1c-.8-1.33-1.59-2.69-2.37-4a5.49,5.49,0,0,0-5.43-2.72,30.6,30.6,0,0,1-7.59,0,5.48,5.48,0,0,0-5.44,2.72c-.78,1.37-1.58,2.72-2.37,4l-6.68-2.76c.37-1.5.77-3,1.17-4.53A5.48,5.48,0,0,0,24.39,112,30.67,30.67,0,0,1,19,106.67a5.45,5.45,0,0,0-5.76-1.92c-1.51.4-3,.8-4.52,1.17L6,99.24c1.33-.79,2.68-1.59,4-2.37a5.49,5.49,0,0,0,2.72-5.43,31.09,31.09,0,0,1,0-7.59A5.48,5.48,0,0,0,10,78.41Q8,77.24,6,76l2.78-6.68c1.48.37,3,.76,4.53,1.17A5.46,5.46,0,0,0,19,68.61a31,31,0,0,1,5.37-5.37,5.46,5.46,0,0,0,1.91-5.76c-.4-1.51-.8-3-1.17-4.53l6.68-2.77c.79,1.32,1.59,2.68,2.37,4a5.49,5.49,0,0,0,5.43,2.72,30.12,30.12,0,0,1,7.59,0,5.5,5.5,0,0,0,5.44-2.72c.78-1.36,1.58-2.71,2.37-4L61.69,53c-.37,1.5-.77,3-1.17,4.53a5.47,5.47,0,0,0,1.92,5.77,31,31,0,0,1,5.37,5.36,5.45,5.45,0,0,0,5.76,1.92c1.51-.41,3-.8,4.53-1.18L80.87,76c-1.32.79-2.68,1.59-4,2.37a5.49,5.49,0,0,0-2.72,5.43,31.09,31.09,0,0,1,0,7.59,5.5,5.5,0,0,0,2.72,5.44c1.35.78,2.71,1.57,4,2.37Z"/><path class="cls-2" d="M61.88,80h0a20,20,0,1,0-10.82,26.12A20,20,0,0,0,61.88,80Zm-13.06,20.7a14.13,14.13,0,1,1,7.64-18.46A14.07,14.07,0,0,1,48.82,100.69Z"/><path class="cls-1" d="M127.1,25.83,124,25.4a27.5,27.5,0,0,0-2.11-5.08c.65-.83,1.28-1.67,1.89-2.5a4.68,4.68,0,0,0-.46-6.05l-4-4a4.68,4.68,0,0,0-6-.46c-.83.62-1.67,1.25-2.5,1.89a27.5,27.5,0,0,0-5.08-2.11c-.14-1-.28-2.08-.43-3.1A4.68,4.68,0,0,0,100.62,0H94.9a4.67,4.67,0,0,0-4.6,4c-.15,1-.3,2.06-.44,3.1a27.13,27.13,0,0,0-5.07,2.11l-2.5-1.89a4.68,4.68,0,0,0-6.05.46l-4,4a4.68,4.68,0,0,0-.45,6.05c.61.83,1.24,1.67,1.88,2.5a26.79,26.79,0,0,0-2.1,5.08l-3.1.43a4.68,4.68,0,0,0-4,4.6v5.72a4.67,4.67,0,0,0,4,4.6l3.1.44a26.44,26.44,0,0,0,2.1,5.07l-1.89,2.51a4.68,4.68,0,0,0,.46,6l4,4a4.66,4.66,0,0,0,6,.45c.83-.61,1.67-1.24,2.51-1.88a26.44,26.44,0,0,0,5.07,2.1c.14,1,.29,2.09.44,3.1a4.67,4.67,0,0,0,4.6,4h5.72a4.68,4.68,0,0,0,4.6-4c.15-1,.29-2.05.43-3.1a26.79,26.79,0,0,0,5.08-2.1c.83.64,1.67,1.27,2.5,1.88a4.68,4.68,0,0,0,6-.45l4-4a4.67,4.67,0,0,0,.46-6c-.61-.83-1.25-1.67-1.89-2.51A27.13,27.13,0,0,0,124,41.19l3.1-.44a4.67,4.67,0,0,0,4-4.6V30.43A4.68,4.68,0,0,0,127.1,25.83Zm-1.62,9.53-2.8.38a4.64,4.64,0,0,0-3.88,3.37,22.29,22.29,0,0,1-2,5,4.6,4.6,0,0,0,.36,5.12c.58.75,1.15,1.51,1.71,2.26l-2.92,2.92-2.25-1.71a4.64,4.64,0,0,0-5.13-.37,21.67,21.67,0,0,1-5,2.06,4.63,4.63,0,0,0-3.37,3.88c-.12.94-.25,1.88-.38,2.8H95.69c-.13-.92-.26-1.86-.38-2.8a4.63,4.63,0,0,0-3.37-3.88,22.29,22.29,0,0,1-5-2.05,4.62,4.62,0,0,0-5.13.36l-2.25,1.71-2.92-2.92c.56-.75,1.13-1.51,1.71-2.26a4.62,4.62,0,0,0,.37-5.12,21.38,21.38,0,0,1-2-5,4.67,4.67,0,0,0-3.89-3.37L70,35.36V31.23l2.79-.39a4.64,4.64,0,0,0,3.89-3.36,21.2,21.2,0,0,1,2-4.95,4.64,4.64,0,0,0-.37-5.13q-.87-1.12-1.71-2.25l2.92-2.92c.75.56,1.51,1.13,2.25,1.71A4.62,4.62,0,0,0,87,14.3a22.29,22.29,0,0,1,5-2.05,4.64,4.64,0,0,0,3.37-3.88c.12-.94.25-1.88.38-2.8h4.13c.13.92.26,1.86.38,2.8a4.64,4.64,0,0,0,3.37,3.88,22.1,22.1,0,0,1,5,2.05,4.64,4.64,0,0,0,5.13-.36q1.13-.87,2.25-1.71l2.92,2.92q-.84,1.12-1.71,2.25a4.62,4.62,0,0,0-.36,5.13,22.29,22.29,0,0,1,2,4.95,4.62,4.62,0,0,0,3.88,3.36l2.8.39v4.13Z"/><path class="cls-2" d="M97.75,21.42a11.88,11.88,0,1,0,11.88,11.87A11.89,11.89,0,0,0,97.75,21.42Zm0,18.47a6.6,6.6,0,1,1,6.6-6.6A6.6,6.6,0,0,1,97.75,39.89Z"/><path class="cls-2" d="M105,81.33l2.76.35a8.74,8.74,0,0,1,1.79.41l2.61.88,1.7,2.19a9.25,9.25,0,0,1,1,1.56l1.23,2.48-.35,2.74a9,9,0,0,1-.41,1.8l-.88,2.62-2.19,1.69a10,10,0,0,1-1.56,1l-2.48,1.22-2.74-.34a9.07,9.07,0,0,1-1.8-.42l-2.62-.88-1.69-2.19a9,9,0,0,1-1-1.55l-1.22-2.49.34-2.74a9.13,9.13,0,0,1,.42-1.79l.89-2.63L101,83.53a10,10,0,0,1,1.56-1L105,81.33m.59-7.82a1.72,1.72,0,0,0-.39,0L102.3,74a2.41,2.41,0,0,0-2,2.41c0,.53,0,1.08,0,1.62a14.32,14.32,0,0,0-2.41,1.51c-.48-.25-1-.51-1.44-.75a2.4,2.4,0,0,0-1.07-.25,2.45,2.45,0,0,0-2,1L91.72,82A2.42,2.42,0,0,0,92,85.13l1.18,1.11A13.91,13.91,0,0,0,92.54,89L91,89.5a2.44,2.44,0,0,0-1.63,2.69l.49,2.92a2.43,2.43,0,0,0,2.37,2h0l1.62,0a14.32,14.32,0,0,0,1.51,2.41q-.39.72-.75,1.44a2.42,2.42,0,0,0,.75,3l2.42,1.72a2.34,2.34,0,0,0,1.39.44,2.38,2.38,0,0,0,1.73-.72l1.12-1.18a14.65,14.65,0,0,0,2.77.64c.16.52.32,1,.49,1.54a2.41,2.41,0,0,0,2.29,1.66,2.69,2.69,0,0,0,.4,0l2.92-.5a2.42,2.42,0,0,0,2-2.41c0-.53,0-1.08,0-1.62a14.32,14.32,0,0,0,2.41-1.51l1.44.75a2.45,2.45,0,0,0,3-.75l1.72-2.42a2.42,2.42,0,0,0-.29-3.12c-.38-.37-.77-.75-1.17-1.12a14.62,14.62,0,0,0,.63-2.77l1.55-.49a2.42,2.42,0,0,0,1.62-2.69l-.49-2.92a2.42,2.42,0,0,0-2.37-2h0l-1.62.05a13.93,13.93,0,0,0-1.51-2.41c.25-.49.51-1,.74-1.44a2.4,2.4,0,0,0-.75-3l-2.41-1.72a2.39,2.39,0,0,0-1.39-.44,2.43,2.43,0,0,0-1.74.73l-1.11,1.17a13.89,13.89,0,0,0-2.77-.63c-.16-.52-.33-1-.49-1.55a2.44,2.44,0,0,0-2.3-1.66Z"/></svg>