<svg id="Layer_1" data-name="Layer 1" xmlns="http://www.w3.org/2000/svg" viewBox="0 0 133.4 125.96"><defs><style>.cls-1{fill:#e84734;}.cls-2{fill:#191a34;}</style></defs><title>Artboard 3</title><path class="cls-1" d="M127.28,64a2.66,2.66,0,0,0-3.76,0l-2.1,2.1a2.66,2.66,0,1,0,3.76,3.76l2.1-2.1A2.66,2.66,0,0,0,127.28,64Z"/><path class="cls-2" d="M93.32,27.23,87.79,40.45l2.79,7.12,7.67-18.36a7,7,0,0,0,.79,0,9.14,9.14,0,0,0,8.82-6.79h16.73a2.66,2.66,0,0,0,0-5.32H107.67A9.13,9.13,0,1,0,93.32,27.23ZM99,16.31a3.82,3.82,0,1,1-3.81,3.81A3.82,3.82,0,0,1,99,16.31Z"/><path class="cls-1" d="M25.23,56.67a9.13,9.13,0,1,0,16.44-5.45l22-33.37a9,9,0,0,0,2.68.4,8.79,8.79,0,0,0,1.26-.09L80.43,50.78h0l7.22,18.45h0l5.62,14.33a9.12,9.12,0,1,0,14.88,7.07,9.19,9.19,0,0,0-.49-2.93l10.55-10.55a2.66,2.66,0,0,0-3.76-3.76l-10,10A9.07,9.07,0,0,0,99,81.51a7.56,7.56,0,0,0-.83,0L89.65,59.74h0L82.42,41.3h0l-10-25.39a9.12,9.12,0,1,0-13.18-1L37.39,48.07a9,9,0,0,0-3-.52,9.1,9.1,0,0,0-3.1.54L17.75,30.32v8.79L27,51.28A9.09,9.09,0,0,0,25.23,56.67ZM99,86.82a3.82,3.82,0,1,1-3.81,3.81A3.82,3.82,0,0,1,99,86.82ZM66.38,5.32a3.81,3.81,0,1,1-3.82,3.81A3.82,3.82,0,0,1,66.38,5.32Zm-32,47.54a3.81,3.81,0,1,1-3.81,3.81A3.82,3.82,0,0,1,34.35,52.86Z"/><path class="cls-2" d="M130.74,114.5H15.93L30.42,98.38A9.1,9.1,0,0,0,42.8,94.46L57.61,98.2a9.13,9.13,0,1,0,15-7.71l9.14-21.84L79,61.54,67.75,88.36a9.24,9.24,0,0,0-1-.06,9.15,9.15,0,0,0-8,4.7l-15-3.79a9.12,9.12,0,1,0-17.09,5.42L12.43,110.44V2.66a2.66,2.66,0,1,0-5.31,0V22.32H2.66a2.66,2.66,0,1,0,0,5.31H7.12V54.34H2.66a2.66,2.66,0,1,0,0,5.31H7.12V87H2.66a2.66,2.66,0,1,0,0,5.31H7.12v24.84a2.65,2.65,0,0,0,2.65,2.65h22.9v3.49a2.66,2.66,0,1,0,5.31,0v-3.49H64.69v3.49a2.66,2.66,0,1,0,5.31,0v-3.49H97.36v3.49a2.66,2.66,0,1,0,5.31,0v-3.49h28.07a2.66,2.66,0,1,0,0-5.31Zm-64-20.89a3.82,3.82,0,1,1-3.81,3.82A3.82,3.82,0,0,1,66.7,93.61Zm-32-7.11a3.81,3.81,0,1,1-3.81,3.81A3.82,3.82,0,0,1,34.68,86.5Z"/></svg>