<svg id="Layer_1" data-name="Layer 1" xmlns="http://www.w3.org/2000/svg" viewBox="0 0 124.75 83.58"><defs><style>.cls-1{fill:#e84734;}.cls-2{fill:#191a34;}</style></defs><title>Artboard 4</title><path class="cls-1" d="M103,11.68H21.72A2.68,2.68,0,0,0,19,14.36V54.91a2.69,2.69,0,0,0,5.37,0V17h75.93V54.91h0a2.69,2.69,0,0,0,5.37,0V14.36A2.68,2.68,0,0,0,103,11.68Z"/><path class="cls-2" d="M122.33,64.5h-4.94V8.11A8.12,8.12,0,0,0,109.27,0H15.48A8.12,8.12,0,0,0,7.36,8.11V64.5H2.42A2.41,2.41,0,0,0,0,66.91v4.75A11.94,11.94,0,0,0,11.92,83.58H112.83a11.94,11.94,0,0,0,11.92-11.92V66.91A2.41,2.41,0,0,0,122.33,64.5ZM12.73,8.11a2.75,2.75,0,0,1,2.75-2.74h93.79A2.75,2.75,0,0,1,112,8.11V64.5H75.66a2.32,2.32,0,0,0-.52,0,2.41,2.41,0,0,0-2,2.37,3.7,3.7,0,0,1-3.7,3.7H55.26a3.7,3.7,0,0,1-3.69-3.7,2.43,2.43,0,0,0-2.48-2.41H12.73ZM119.91,71.66h0a7.09,7.09,0,0,1-7.08,7.08H11.92a7.1,7.1,0,0,1-7.09-7.08V69.33H47.08a8.55,8.55,0,0,0,8.18,6.11H69.48a8.55,8.55,0,0,0,8.19-6.11h42.25v2.33Z"/><path class="cls-1" d="M66.35,27.28a2.69,2.69,0,0,0-3.8,0L45.67,44.17A2.68,2.68,0,1,0,49.47,48L66.35,31.08A2.69,2.69,0,0,0,66.35,27.28Z"/><path class="cls-1" d="M76.36,37.07a2.69,2.69,0,0,0-3.8,0l-6.72,6.72a2.69,2.69,0,0,0,1.9,4.59,2.72,2.72,0,0,0,1.9-.79l6.72-6.73A2.67,2.67,0,0,0,76.36,37.07Z"/></svg>