<?xml version="1.0" encoding="utf-8"?>
<!-- Generator: Adobe Illustrator 20.0.0, SVG Export Plug-In . SVG Version: 6.00 Build 0)  -->
<svg version="1.1" id="Слой_1" xmlns="http://www.w3.org/2000/svg" xmlns:xlink="http://www.w3.org/1999/xlink" x="0px" y="0px"
	 viewBox="0 0 494.8 206" style="enable-background:new 0 0 494.8 206;" xml:space="preserve">
<style type="text/css">
	.st0{fill:#E21409;}
	.st1{fill:#CDAF39;}
</style>
<g>
	<g>
		<path class="st0" d="M42.7,56.9c0-12.1-6.7-18.3-20.2-18.3c-7,0-13.5,1.7-19.4,5l4.1,8.2c3.6-1.9,8.2-3.5,13.2-3.5
			c5.8,0,9.7,2.5,9.7,8.4v1.6l-8.6,0.3c-5.1,0.2-9.4,1.1-12.9,2.9C3.3,64.1,0,68.4,0,75.2c0,9.7,7.1,16,16.7,16
			c6.3,0,10.8-2.5,14.4-5.8l1.9,4.8h10.6c-0.7-2.7-1-7-1-12.8V56.9z M30,77.5c-1.7,1.4-5.1,3.7-9.8,3.7c-4.6,0-7.4-2.5-7.4-6.9
			c0-2.5,1-4.6,3.1-5.7c1.7-1,4-1.5,7.3-1.6l6.8-0.2V77.5z"/>
		<path class="st0" d="M66.8,90.9c2.9,0,6.4-0.5,9.3-1.8l-2.4-9.8c-1.1,0.4-2.5,0.6-3.2,0.6c-2.3,0-3.7-1.1-3.7-4.6V15H54.2v63.8
			C54.2,86.7,58.4,90.9,66.8,90.9z"/>
		<rect x="84.2" y="39.9" class="st0" width="12.7" height="50.2"/>
		<path class="st0" d="M90.6,31.8c4.5,0,7.9-3.4,7.9-7.5c0-4.4-3.4-7.6-7.9-7.6c-4.5,0-7.7,3.4-7.7,7.6S86.1,31.8,90.6,31.8z"/>
		<path class="st0" d="M156.2,63.4c0-15.9-10.7-24.7-24.1-24.7c-3.9,0-6.9,0.6-9.8,1.5V15h-12.6v72.7c4.2,2.2,10,3.5,16.5,3.5
			C143.2,91.2,156.2,81,156.2,63.4z M122.3,50.8c1.6-0.6,3.8-1.6,7.6-1.6c8.3,0,13.2,6.2,13.2,15c0,9.9-5.8,16.6-15,16.6
			c-1.8,0-3.8-0.2-5.8-0.8V50.8z"/>
		<path class="st0" d="M182.8,58.6c-5.1,0.2-9.4,1.1-12.9,2.9c-5.2,2.7-8.5,6.9-8.5,13.7c0,9.7,7.1,16,16.7,16
			c6.3,0,10.8-2.5,14.4-5.8l1.9,4.8h10.6c-0.7-2.7-1-7-1-12.8V56.9c0-12.1-6.7-18.3-20.2-18.3c-7,0-13.5,1.7-19.4,5l4.1,8.2
			c3.6-1.9,8.2-3.5,13.2-3.5c5.8,0,9.7,2.5,9.7,8.4v1.6L182.8,58.6z M191.3,77.5c-1.7,1.4-5.1,3.7-9.8,3.7c-4.6,0-7.4-2.5-7.4-6.9
			c0-2.5,1-4.6,3.1-5.7c1.7-1,4-1.5,7.3-1.6l6.8-0.2V77.5z"/>
		<path class="st0" d="M264.3,63.4c0-15.9-10.7-24.7-24.1-24.7c-3.9,0-6.9,0.6-9.8,1.5V15h-12.6v72.7c4.2,2.2,10,3.5,16.5,3.5
			C251.4,91.2,264.3,81,264.3,63.4z M230.4,50.8c1.6-0.6,3.8-1.6,7.6-1.6c8.3,0,13.2,6.2,13.2,15c0,9.9-5.8,16.6-15,16.6
			c-1.8,0-3.8-0.2-5.8-0.8V50.8z"/>
		<path class="st0" d="M291.9,58.6c-5.1,0.2-9.4,1.1-12.9,2.9c-5.2,2.7-8.5,6.9-8.5,13.7c0,9.7,7.1,16,16.7,16
			c6.3,0,10.8-2.5,14.4-5.8l1.9,4.8H314c-0.7-2.7-1-7-1-12.8V56.9c0-12.1-6.7-18.3-20.2-18.3c-7,0-13.5,1.7-19.4,5l4.1,8.2
			c3.6-1.9,8.2-3.5,13.2-3.5c5.8,0,9.7,2.5,9.7,8.4v1.6L291.9,58.6z M300.5,77.5c-1.7,1.4-5.1,3.7-9.8,3.7c-4.6,0-7.4-2.5-7.4-6.9
			c0-2.5,1-4.6,3.1-5.7c1.7-1,4-1.5,7.3-1.6l6.8-0.2V77.5z"/>
		<path class="st1" d="M16,129.6c0-3.3,2.9-4.6,7.1-4.6c5.3,0,10,1.4,14.2,3.2v-10.7c-4.1-1.5-9.1-2.4-14.8-2.4
			c-11.8,0-19,6.3-19,15.2c0,16.8,23.6,13.6,23.6,22.1c0,3.8-3.7,5.3-8.8,5.3s-9.9-1.7-13.7-4.1l-3.9,9.2c4.1,2.5,10.6,4.9,18.5,4.9
			c10.8,0,20.4-4.6,20.4-15.6C39.6,134.5,16,137.5,16,129.6z"/>
		<path class="st1" d="M67.5,115c-14.3,0-22.6,11.4-22.6,26.4c0,13.6,7.4,26.1,25.7,26.1c6.2,0,12.4-1.4,17.7-4.7l-3.8-8.7
			c-3.6,2-7.6,3.4-12.6,3.4c-8.4,0-13.9-5-14.2-12.7h32.2v-3C89.8,125.2,81.6,115,67.5,115z M57.5,136.1c0.1-6,3.5-11.4,9.8-11.4
			c6.7,0,9.6,5.6,9.7,11.4H57.5z"/>
		<path class="st1" d="M109.3,121.9l-1.4-5.6H97.2v50.2h12.6v-35.5c4.1-3.6,6.9-5,10.2-5c1.5,0,3.5,0.3,5.7,1.7l4.5-10.7
			c-2-1.4-4.8-2-7.1-2C118.1,115,113.9,117.4,109.3,121.9z"/>
		<polygon class="st1" points="159.1,150.5 158.8,150.5 146.4,116.3 133.6,116.3 154.1,166.8 163.6,166.8 184,116.3 171.3,116.3 		
			"/>
		<path class="st1" d="M197.3,96c-4.5,0-7.7,3.4-7.7,7.6c0,4.2,3.3,7.5,7.7,7.5c4.5,0,7.9-3.4,7.9-7.5C205.1,99.3,201.7,96,197.3,96
			z"/>
		<rect x="190.9" y="116.3" class="st1" width="12.7" height="50.2"/>
		<path class="st1" d="M241.8,157.4c-8.6,0-14.2-5.6-14.2-15.9c0-9.2,5.5-16.2,14.9-16.2c4.9,0,8.7,1.4,12.2,3.9v-10.7
			c-2.7-1.7-7.2-3.4-13.5-3.4c-15,0-26.5,11.1-26.5,26.7c0,14.5,9,25.8,25.4,25.8c6.9,0,13.2-2.1,17.2-4.9l-3.7-8.7
			C250,155.9,246.5,157.4,241.8,157.4z"/>
		<path class="st1" d="M285.9,115c-14.3,0-22.6,11.4-22.6,26.4c0,13.6,7.4,26.1,25.7,26.1c6.2,0,12.4-1.4,17.7-4.7l-3.8-8.7
			c-3.6,2-7.6,3.4-12.6,3.4c-8.4,0-13.9-5-14.2-12.7h32.2v-3C308.2,125.2,300,115,285.9,115z M275.9,136.1c0.1-6,3.5-11.4,9.8-11.4
			c6.7,0,9.6,5.6,9.7,11.4H275.9z"/>
	</g>
	<polygon class="st1" points="397.8,106.6 424.9,86.7 391.3,86.7 380.9,54.8 370.7,86.7 336.9,86.7 364.3,106.6 354,138.6 
		381,118.8 408.2,138.6 	"/>
	<polygon class="st1" points="464.4,22.5 474.5,8.6 458.1,13.9 448,0 448.1,17.1 431.6,22.4 448.1,27.8 448.1,45 458.2,31.1 
		474.5,36.5 	"/>
	<polygon class="st1" points="464.4,183.5 474.5,169.6 458.1,174.8 448,161 448.1,178.1 431.6,183.4 448.1,188.8 448.1,206 
		458.2,192.1 474.5,197.5 	"/>
	<polygon class="st1" points="484.7,131.4 494.7,117.5 478.4,122.7 468.3,108.9 468.4,126 451.9,131.3 468.4,136.7 468.4,153.9 
		478.4,140 494.8,145.4 	"/>
	<polygon class="st1" points="484.7,74 494.7,60.1 478.4,65.4 468.3,51.5 468.4,68.6 451.9,73.9 468.4,79.3 468.4,96.5 478.4,82.6 
		494.8,88 	"/>
</g>
</svg>
