<svg id="Layer_1" xmlns="http://www.w3.org/2000/svg" viewBox="0 0 70 66"><style>.st0{fill:#e5007c}</style><path class="st0" d="M51.4 25.1V13.3c0-.1 0-.3-.1-.4v-.1c0-.1-.1-.2-.2-.3L38 .3c-.2-.2-.5-.3-.7-.3H1C.4 0 0 .4 0 1v58.3c0 .6.4 1 1 1h33.6c.2 0 .3 0 .4-.1 3.7 3.6 8.8 5.8 14.3 5.8C60.8 66 70 56.8 70 45.5c0-10.6-8.2-19.4-18.6-20.4zM38 3.1l9.8 9.2H38V3.1zM2 2h34v11.3c0 .6.4 1 1 1h12.3V25C38 25 28.8 34.2 28.8 45.5c0 4.9 1.7 9.3 4.6 12.8H2V2zm47.4 62c-10.3 0-18.6-8.3-18.6-18.5S39.1 27 49.4 27 68 35.3 68 45.5 59.6 64 49.4 64z"/><path class="st0" d="M6.4 20.6h12.4c.6 0 1-.4 1-1V7.2c0-.6-.4-1-1-1H6.4c-.6 0-1 .4-1 1v12.3c0 .6.4 1.1 1 1.1zm1-12.4h10.4v10.3H7.4V8.2zM23.8 9H31c.6 0 1-.4 1-1s-.4-1-1-1h-7.1c-.6 0-1 .4-1 1-.1.5.4 1 .9 1zM13.5 51.3H6.4c-.6 0-1 .4-1 1s.4 1 1 1h7.1c.6 0 1-.4 1-1s-.4-1-1-1zM23.8 13.7H31c.6 0 1-.4 1-1s-.4-1-1-1h-7.1c-.6 0-1 .4-1 1-.1.6.4 1 .9 1zM6.4 27.9h25.7c.6 0 1-.4 1-1s-.4-1-1-1H6.4c-.6 0-1 .4-1 1s.4 1 1 1zM27.4 32.5h-21c-.6 0-1 .4-1 1s.4 1 1 1h21c.6 0 1-.4 1-1 0-.5-.5-1-1-1zM25.7 39H6.4c-.6 0-1 .4-1 1s.4 1 1 1h19.3c.6 0 1-.4 1-1 0-.5-.5-1-1-1zM51.6 42.2c.4-.4.7-.1.8.2.1.1 0 .4-.1.5.1.1.1.3.1.3.3.1.5.1.8.2.4.1.4-.2.4-.5.3-.1.6-.2.8.2.1.2.2.5.4.8.1-.3.1-.4.1-.6v.1c.3-.1.5-.2.8-.3-.2-.4-.4-.7-.6-1.2.2.1.4.2.6.2.5 0 1.1.1 1.5 0 .3-.1.6-.5 1-.6.2 0 .6-.4.6-.7.2-1.1.9-1.7 1.8-2.1.2-.1.3-.1.5-.2 0-.5.1-.6.6-.7 0 .2 0 .3.1.5.1.1.3.1.4.2 0 .1.1.1.1.2-.3.2-.6.4-.8.5.1.4.2.6.3.9h.9c-.3.7-.3 1.3.1 1.9.1.1.1.2 0 .3-.2.4-.4.7-.6 1.1-.2.3 0 .8.4.9l.6.3c.1.4.2.7.3 1.1 0 0-.1 0-.1.1.5.4.6 1 .7 1.5.1.3-.1.4-.3.3-.5-.2-.9-.3-1.4-.6-.4-.2-.7-.6-.7-1.1-.1-.8-.1-1.7-.2-2.5 0-.3-.1-.5-.4-.6.1.4.2.8.3 1.1-.3 0-.6-.1-.7 0-.3.3-.3.6-.1 1 .1.1.2.2.3.4-.1.1-.2.4-.4.6h-.2c-.2 0-.4-.1-.4.2l-.1.1c-.5.2-.9.5-1 1-.2.7-.4 1.4-.6 2.2.4 0 .7-.4.8.1.1-.1.2-.3.3-.3.3 0 .6.2.9.2v.1c0-.2-.1-.5-.1-.7.6.5 1.2 1 1.8 1.6h-.5c-.2.7.6.7.8 1.2-.1 0-.2-.1-.3-.1v.4s-.1 0-.1.1c-.4-.8-.9-1.5-1.3-2.3 0 0-.1 0-.1.1.1.3.2.5.3.8.5 1.2.3 2.4-.3 3.5-.1.2-.4.3-.6.5l-.4.4c-.1-.4-.3-.7-.3-1.1 0-.1.3-.3.5-.4h.2c-.1-.5-.2-1.1-.2-1.6-.4.1-.6.1-.9.1 0 .1.1.2.1.3-.6 0-1.2-.1-1.6-.6-.2-.3-.5-.5-.8-.7-.2-.1-.5 0-.7.1-.2.1-.3.3-.1.6.3.7-.3 1.4-1 1.2-.3-.1-.6 0-.8.2-.2.1-.5.2-.7.3-.2 0-.4 0-.5-.1-.3-.3-.6-.4-1-.3-.3.1-.5-.1-.7-.3-.2-.2-.5-.4-.8-.7-.1.3-.2.4-.2.6-.1.4-.2.5-.6.3-.1 0-.2-.1-.2-.1-.5-.5-1.1-.4-1.7-.2-.5.2-.9 0-1.1-.5-.1-.3-.7-.7-1.1-.7 0-.4-.1-.8-.1-1.2-.1-.3-.1-.6-.6-.4-.2.1-.4.1-.4-.2 0-.2-.2-.3-.4-.5.1-.1.1-.2.2-.4-.2-.1-.3-.2-.4-.2-.6-.2-1.2-.3-1.8-.5-.2.2-.5.3-.7.5v.4c-.2 0-.4 0-.6-.1-.3-.2-.6-.5-.9-.8-.4.1-.5 0-.5-.1 0-.8-.3-1.1-1.1-1.1-.1 0-.3-.1-.5-.2-.1.1-.4.1-.6.3-.1.1-.1.3-.1.4.2.4-.1.6-.3.9 0 0-.2.1-.2 0-.2-.4-.5-.1-.8-.1-.2.4-.3.8-.5 1.1 0 .1-.2.2-.2.1-.1 0-.2-.1-.2-.2-.1-.1-.1-.3-.1-.4.1-.8-.3-1.4-.7-1.9-.3-.4-.2-.9-.2-1.3 0-.1.1-.2.1-.2h1.1v-.2c.2.1.4.2.6.2.1-.1.3-.2.6-.4-.1-.3-.2-.7-.2-1.1 0-.2 0-.5.1-.7.2-.3.4-.5-.1-.8 0 0 0-.1.1-.1.2 0 .4 0 .7-.1.1-.2.3-.3.4-.6.1-.2.2-.5.3-.7v-.1c.1-.5 1.4-.9 1.8-.5.1-.5.2-.5.6-.3.7.4.6.4 1.3-.1.3-.2.6-.3 1-.5.2-.1.5-.1.6-.4 0-.1.4-.1.6-.1.2.1.3.3.3.4 0 .3 0 .6-.1.8 0 .2 0 .4-.1.5-.1.2-.3.4-.5.4s-.4-.2-.5-.4c-.1-.2-.1-.5-.1-.9-.3.5-.8.8-.7 1.5.1-.2.2-.4.3-.5h.1c0 .2.1.4.1.6.2 0 .4-.1.6-.1.2 0 .3.2.6.4.2-.2.4-.4.7-.6 0 .2.1.3.1.5 0 .1-.3 0-.4.1-.1.1-.1.2-.2.3.5.1.9.2 1.3.3.1 0 .1.1.2.1.1.1.2.3.3.4.1.1.3.2.5.4 0-.2.1-.4.2-.8.2.6.4 1.1.6 1.6h.1v-.5c.4-.4.7-1 1.4-1.1v.5c.1 0 .2-.1.3-.1-.1.3-.1.5-.2.8h.1l.3-.6.3.3c.1-.6.1-.6.8-.4v-.3c.4-.2.8-.3 1.3-.4.3 0 .4-.1.5-.3l.3-.3.1.1c-.1.3-.1.4-.1.7zm-4.2.8c-.4.6-.9 1.2-1.3 1.9.6.5.7-.5 1.1-.6-.6-.6.2-.8.2-1.3z"/><path class="st0" d="M48.2 41.2c-.2 0-.4.1-.5 0-.9-.2-1.6 0-2 .9l-.1.1c-.4-.5-.3-1 .2-1.1.4-.1.7-.3 1.1-.3.5 0 .9.1 1.4.2-.1 0-.1.1-.1.2zM51.1 41.5c-.1-.2-.2-.3-.4-.5-.4-.4-.3-.6.1-.8.2.3.5.6.7.9.1.1-.2.3-.3.5l-.1-.1zM55.5 41.4c-.3.2-.4.4-.6.5l-.3-.3c.2-.2.3-.3.5-.4l.4.2zM36 38.8c.1.2.2.5.4.8h-.5c-.1-.2-.1-.5-.1-.7.1 0 .2-.1.2-.1z"/></svg>