<svg id="Layer_1" xmlns="http://www.w3.org/2000/svg" viewBox="0 0 70 66"><style>.st0{fill:#e5007c}</style><path class="st0" d="M51.4 25.1V13.3c0-.1 0-.3-.1-.4v-.1c0-.1-.1-.2-.2-.3L38 .3c-.2-.2-.5-.3-.7-.3H1C.4 0 0 .4 0 1v58.3c0 .6.4 1 1 1h33.6c.2 0 .3 0 .4-.1 3.7 3.6 8.8 5.8 14.3 5.8C60.8 66 70 56.8 70 45.5c0-10.6-8.2-19.4-18.6-20.4zM38 3.1l9.8 9.2H38V3.1zM2 2h34v11.3c0 .6.4 1 1 1h12.3V25C38 25 28.8 34.2 28.8 45.5c0 4.9 1.7 9.3 4.6 12.8H2V2zm47.4 62c-10.3 0-18.6-8.3-18.6-18.5S39.1 27 49.4 27 68 35.3 68 45.5 59.6 64 49.4 64z"/><path class="st0" d="M6.4 20.6h12.4c.6 0 1-.4 1-1V7.2c0-.6-.4-1-1-1H6.4c-.6 0-1 .4-1 1v12.3c0 .6.4 1.1 1 1.1zm1-12.4h10.4v10.3H7.4V8.2zM23.8 9H31c.6 0 1-.4 1-1s-.4-1-1-1h-7.1c-.6 0-1 .4-1 1-.1.5.4 1 .9 1zM13.5 51.3H6.4c-.6 0-1 .4-1 1s.4 1 1 1h7.1c.6 0 1-.4 1-1s-.4-1-1-1zM23.8 13.7H31c.6 0 1-.4 1-1s-.4-1-1-1h-7.1c-.6 0-1 .4-1 1-.1.6.4 1 .9 1zM6.4 27.9h25.7c.6 0 1-.4 1-1s-.4-1-1-1H6.4c-.6 0-1 .4-1 1s.4 1 1 1zM27.4 32.5h-21c-.6 0-1 .4-1 1s.4 1 1 1h21c.6 0 1-.4 1-1 0-.5-.5-1-1-1zM25.7 39H6.4c-.6 0-1 .4-1 1s.4 1 1 1h19.3c.6 0 1-.4 1-1 0-.5-.5-1-1-1zM54.6 35.1c-1.2 0-2.3.4-3.2 1.1-.1.1-.2.1-.2.2-.1.1-.2.1-.3.2l-5.1 5.1c-.1.1-.2.3-.3.5-.2 0-.4.1-.5.3l-3.2 3.2c-.2.2-.3.4-.3.7V52l-2.3 2.3c-.4.4-.4 1 0 1.4.2.2.5.3.7.3s.5-.1.7-.3l2.3-2.3h5.6c.3 0 .5-.1.7-.3l6.3-6.3c.1 0 .1-.1.1-.1l.1-.1c.2-.2.3-.4.3-.6.2 0 .4-.1.6-.3l1.7-1.7c1-1 1.5-2.3 1.5-3.7 0-1.4-.5-2.7-1.5-3.7-.9-1-2.3-1.5-3.7-1.5zm1.5 2.3L53 40.5v-3c.9-.5 2.1-.5 3.1-.1zm-8.5 5.3l3.3-3.3v3.2l-2.7 2.7-1.5 1.5v-2.5c.2 0 .5-.1.6-.3.2-.2.3-.5.3-.8v-.5zm-4.1 4.1l1.2-1.2v3.2L43.5 50v-3.2zm4.6 4.5h-3.2l1.5-1.5 2.9-2.9h3.2l-4.4 4.4zm8.8-8.7L55.5 44H55c-.3 0-.6.1-.8.3-.1.1-.2.4-.2.7h-2.6l1.3-1.3 4.9-4.8c.2.4.4.9.4 1.5-.1.7-.5 1.5-1.1 2.2z"/></svg>