<svg id="Layer_1" xmlns="http://www.w3.org/2000/svg" viewBox="0 0 51 61"><style>.st0{fill:#e5007c}</style><path class="st0" d="M50.9 13c-.1-.2-.1-.2-.2-.3L37.7.3c-.2-.2-.5-.3-.7-.3H1C.4 0 0 .5 0 1v59c0 .6.4 1 1 1h49c.5 0 1-.5 1-1V13.4c0-.1 0-.2-.1-.4zM37.8 3.1l9.7 9.3h-9.7V3.1zM2 59V2h33.8v11.4c0 .6.4 1 1 1H49V59H2z"/><path class="st0" d="M6.3 20.8h12.3c.5 0 1-.5 1-1V7.3c0-.6-.4-1-1-1H6.3c-.5 0-1 .5-1 1v12.5c0 .5.5 1 1 1zm1-12.5h10.3v10.5H7.3V8.3zM23.6 9.1h7.1c.5 0 1-.5 1-1s-.4-1-1-1h-7.1c-.5 0-1 .5-1 1s.5 1 1 1zM13.4 51.9H6.3c-.5 0-1 .5-1 1 0 .6.4 1 1 1h7.1c.5 0 1-.5 1-1s-.4-1-1-1zM23.6 13.9h7.1c.5 0 1-.5 1-1s-.4-1-1-1h-7.1c-.5 0-1 .5-1 1s.5 1 1 1zM44.8 26.2H6.3c-.5 0-1 .5-1 1 0 .6.4 1 1 1h38.4c.5 0 1-.5 1-1 .1-.5-.4-1-.9-1zM44.8 32.9H6.3c-.5 0-1 .5-1 1 0 .6.4 1 1 1h38.4c.5 0 1-.5 1-1 .1-.5-.4-1-.9-1zM44.8 39.5H6.3c-.5 0-1 .5-1 1 0 .6.4 1 1 1h38.4c.5 0 1-.5 1-1 .1-.6-.4-1-.9-1z"/></svg>