<svg id="Layer_1" xmlns="http://www.w3.org/2000/svg" viewBox="0 0 70 66"><style>.st0{fill:#e5007c}</style><path class="st0" d="M6.4 20.6h12.4c.6 0 1-.4 1-1V7.2c0-.6-.4-1-1-1H6.4c-.6 0-1 .4-1 1v12.3c0 .6.4 1.1 1 1.1zm1-12.4h10.4v10.3H7.4V8.2zM23.8 9H31c.6 0 1-.4 1-1s-.4-1-1-1h-7.1c-.6 0-1 .4-1 1-.1.5.4 1 .9 1zM13.5 51.3H6.4c-.6 0-1 .4-1 1s.4 1 1 1h7.1c.6 0 1-.4 1-1s-.4-1-1-1zM23.8 13.7H31c.6 0 1-.4 1-1s-.4-1-1-1h-7.1c-.6 0-1 .4-1 1-.1.6.4 1 .9 1zM6.4 27.9h25.7c.6 0 1-.4 1-1s-.4-1-1-1H6.4c-.6 0-1 .4-1 1s.4 1 1 1zM27.4 32.5h-21c-.6 0-1 .4-1 1s.4 1 1 1h21c.6 0 1-.4 1-1 0-.5-.5-1-1-1zM25.7 39H6.4c-.6 0-1 .4-1 1s.4 1 1 1h19.3c.6 0 1-.4 1-1 0-.5-.5-1-1-1z"/><path class="st0" d="M51.4 25.1V13.3c0-.1 0-.3-.1-.4v-.1c0-.1-.1-.2-.2-.3L38 .3c-.2-.2-.5-.3-.7-.3H1C.4 0 0 .4 0 1v58.3c0 .6.4 1 1 1h33.6c.2 0 .3 0 .4-.1 3.7 3.6 8.8 5.8 14.3 5.8C60.8 66 70 56.8 70 45.5c0-10.6-8.2-19.4-18.6-20.4zm14.4 29.2h-6.1c.9-2.5 1.3-5.1 1.4-7.7h6.8c-.1 2.7-.9 5.3-2.1 7.7zm-4.7-9.8c-.1-2.7-.6-5.3-1.5-7.7H65.8c1.3 2.3 2 5 2.2 7.8h-6.9zm3.4-9.7h-5.8c-1.2-2.6-2.9-5.1-4.9-7.2 4.4 1 8.2 3.6 10.7 7.2zM51 63.9h-.6v-7.7h6.3c-1.3 2.8-3.2 5.3-5.5 7.4-.1.1-.2.2-.2.3zm-3.5-.3c-2.3-2.1-4.2-4.6-5.5-7.4h6.3V64h-.6c0-.2-.1-.3-.2-.4zM33 54.3c-1.3-2.3-2-5-2.2-7.8h6.8c.1 2.6.6 5.3 1.4 7.7h-5.8s-.1.1-.2.1zm4.6-9.8h-6.8c.2-2.8.9-5.4 2.2-7.8.1 0 .2.1.3.1h5.9c-.9 2.4-1.5 5-1.6 7.7zm-3.4-9.7c2.5-3.5 6.3-6.1 10.6-7.2-2 2.1-3.7 4.6-4.9 7.2h-5.7zm16.6-7.4c2.4 2.1 4.3 4.6 5.7 7.4h-6.2V27h.2c.1.2.2.3.3.4zm6.6 9.4c1 2.5 1.5 5.1 1.7 7.7h-8.7v-7.7h7zm-15.2-2c1.4-2.8 3.3-5.3 5.7-7.4.1-.1.2-.2.2-.4h.2v7.7h-6.1zm6.2 2v7.7h-8.7c.1-2.7.7-5.3 1.7-7.7h7zm0 9.7v7.7h-7.2c-.9-2.5-1.5-5.1-1.6-7.7h8.8zm2 7.7v-7.7h8.7c-.1 2.7-.6 5.3-1.6 7.7h-7.1zM38 3.1l9.8 9.2H38V3.1zM2 58.3V2h34v11.3c0 .6.4 1 1 1h12.3V25C38 25 28.8 34.2 28.8 45.5c0 4.9 1.7 9.3 4.6 12.8H2zm32.2-2.1h5.6c1.1 2.6 2.7 5 4.6 7.1-4.1-1.1-7.7-3.7-10.2-7.1zm20.1 7.1c1.9-2.1 3.5-4.5 4.6-7.1h5.6c-2.4 3.5-6 6-10.2 7.1z"/></svg>