<svg id="Слой_1" data-name="Слой 1" xmlns="http://www.w3.org/2000/svg" viewBox="0 0 1289.75 1600.01"><defs><style>.cls-1{fill:#197dc1}</style></defs><title>Vector Smart Object</title><path class="cls-1" d="M3007 1600H1993c-76 0-137.89-61.84-137.89-137.89V137.89C1855.14 61.84 1917 0 1993 0h788.61a47.4 47.4 0 0 1 33.31 13.74l316.17 315.86a47 47 0 0 1 13.74 33.31v1099.2c0 75.95-61.83 137.89-137.83 137.89zM1993 94.11a43.8 43.8 0 0 0-43.76 43.76v1324.24a43.85 43.85 0 0 0 43.76 43.76h1013.94c23.71 0 43.76-20 43.76-43.76V382.4L2762.14 94.11z" transform="translate(-1855.12 .01)"/><path class="cls-1" d="M3097.76 410H2781.9a47.07 47.07 0 0 1-47.06-47.06V47.06a47.12 47.12 0 0 1 80.38-33.33l315.87 315.87a47.12 47.12 0 0 1-33.33 80.4zM2829 315.86h155.2L2829 160.66zM2840.54 1295h-681a47.06 47.06 0 0 1 0-94.11h681a47.06 47.06 0 1 1 0 94.11zM2840.54 1012.61h-681a47.06 47.06 0 1 1 0-94.11h681a47.06 47.06 0 1 1 0 94.11zM2840.54 730.26h-681a47.06 47.06 0 0 1 0-94.11h681a47.06 47.06 0 1 1 0 94.11z" transform="translate(-1855.12 .01)"/></svg>