<svg id="Layer_1" data-name="Layer 1" xmlns="http://www.w3.org/2000/svg" viewBox="0 0 24.91 21.9"><defs><style>.cls-1{fill:#197dc1}</style></defs><title>print</title><path class="cls-1" d="M22.95 5.5h-3.3V.8a.79.79 0 0 0-.8-.8H6.25a.86.86 0 0 0-.8.8v4.6h-3.3A2.18 2.18 0 0 0 0 7.5v9.9a.79.79 0 0 0 .8.8h4.7v2.9a.79.79 0 0 0 .8.8h12.3a.79.79 0 0 0 .8-.8v-2.9h4.7a.79.79 0 0 0 .8-.8V7.5a1.89 1.89 0 0 0-1.95-2zM6.85 1.4h11.4v4.1H6.85zm11.3 19.2H6.95v-6.1h11.2zm5.5-3.8h-4.1V14a.79.79 0 0 0-.8-.8H6.45a.79.79 0 0 0-.8.8v2.9h-4.2V7.5a.68.68 0 0 1 .7-.7h20.8a.68.68 0 0 1 .7.7z" transform="translate(-.05)"/><path class="cls-1" d="M8.65 16.9h7.8a.7.7 0 1 0 0-1.4h-7.8a.7.7 0 0 0 0 1.4zM8.65 19.7h7.8a.7.7 0 1 0 0-1.4h-7.8a.7.7 0 0 0 0 1.4z" transform="translate(-.05)"/></svg>