<svg xmlns="http://www.w3.org/2000/svg" xmlns:xlink="http://www.w3.org/1999/xlink" viewBox="0 0 67.96 90.89"><defs><style>.cls-1{fill:none}.cls-2{fill:#a75281}.cls-3{fill:#fff}.cls-4{fill:#e6e5e5}.cls-5{fill:#9b527d}.cls-6{clip-path:url(#clip-path)}.cls-7{fill:url(#linear-gradient)}.cls-8{fill:#979695}.cls-9{fill:#8b8988}.cls-10{clip-path:url(#clip-path-2)}.cls-11{clip-path:url(#clip-path-3)}.cls-12{fill:url(#radial-gradient)}.cls-13{fill:#454748}.cls-14{clip-path:url(#clip-path-4)}.cls-15{fill:url(#linear-gradient-2)}.cls-16{clip-path:url(#clip-path-5)}.cls-17{fill:url(#linear-gradient-3)}.cls-18{clip-path:url(#clip-path-6)}.cls-19{fill:url(#linear-gradient-4)}.cls-20{clip-path:url(#clip-path-7)}.cls-21{fill:url(#linear-gradient-5)}.cls-22{clip-path:url(#clip-path-8)}.cls-23{fill:url(#linear-gradient-6)}.cls-24{fill:#488dcd}.cls-25{fill:#d7569c}.cls-26{fill:#201600}.cls-27{fill:#ecb14b}.cls-28{fill:#629b69}.cls-29{fill:#d34d47}.cls-30{clip-path:url(#clip-path-9)}.cls-31{clip-path:url(#clip-path-10)}.cls-32{fill:url(#linear-gradient-7)}.cls-33{fill:#c9c8c8}.cls-34{clip-path:url(#clip-path-11)}.cls-35{fill:url(#linear-gradient-8)}.cls-36{clip-path:url(#clip-path-12)}.cls-37{fill:url(#linear-gradient-9)}.cls-38{clip-path:url(#clip-path-13)}.cls-39{fill:url(#linear-gradient-10)}.cls-40{fill:#312a20}.cls-41{clip-path:url(#clip-path-14)}.cls-42{fill:url(#linear-gradient-11)}.cls-43{clip-path:url(#clip-path-15)}.cls-44{fill:url(#radial-gradient-2)}.cls-45{clip-path:url(#clip-path-16)}.cls-46{fill:url(#linear-gradient-12)}.cls-47{clip-path:url(#clip-path-17)}.cls-48{fill:url(#radial-gradient-3)}.cls-49{clip-path:url(#clip-path-18)}.cls-50{fill:url(#linear-gradient-13)}.cls-51{clip-path:url(#clip-path-19)}.cls-52{fill:url(#linear-gradient-14)}.cls-53{clip-path:url(#clip-path-20)}.cls-54{fill:url(#linear-gradient-15)}.cls-55{clip-path:url(#clip-path-21)}.cls-56{fill:url(#linear-gradient-16)}.cls-57{clip-path:url(#clip-path-22)}.cls-58{fill:url(#linear-gradient-17)}.cls-59{clip-path:url(#clip-path-23)}.cls-60{fill:url(#linear-gradient-18)}.cls-61{clip-path:url(#clip-path-24)}.cls-62{fill:url(#linear-gradient-19)}.cls-63{clip-path:url(#clip-path-25)}.cls-64{fill:url(#radial-gradient-4)}.cls-65{clip-path:url(#clip-path-26)}.cls-66{fill:url(#linear-gradient-20)}.cls-67{fill:#c55694}.cls-68{fill:#7f7e7c}.cls-69{fill:#3f9cd5}.cls-70{fill:#eeb744}.cls-71{fill:#000010}.cls-72{fill:#4ea264}.cls-73{fill:#d24a48}</style><clipPath id="clip-path"><path class="cls-1" d="M59.17 70.85l-28 10.5-3.83 1.44c-3.62 1.37-8.53 1.21-11.07.76s-4.93.07-3.25 2.6 8.13 4 8.13 4c5.8.72 12.65-3 12.65-3l26.59-13.81S65 70.86 63.92 70a1.56 1.56 0 0 0-.92-.23 12.49 12.49 0 0 0-3.83 1"/></clipPath><linearGradient id="linear-gradient" x1="-711.04" y1="436.37" x2="-710.04" y2="436.37" gradientTransform="translate(36739.61 -22459.23) scale(51.65)" gradientUnits="userSpaceOnUse"><stop offset="0" stop-color="#a75281"/><stop offset=".47" stop-color="#d25a99"/><stop offset="1" stop-color="#d25a99"/></linearGradient><clipPath id="clip-path-2"><path class="cls-1" d="M13.32 40.56a20.49 20.49 0 0 1 2.57-.36 48.25 48.25 0 0 1 5.67-1.33v-.22a11.8 11.8 0 0 0-1.31-.06 39.82 39.82 0 0 0-6.92 2"/></clipPath><clipPath id="clip-path-3"><path class="cls-1" d="M19.28 27.73a5.74 5.74 0 0 0-.88.09 6.93 6.93 0 0 0-2.06.69 4.62 4.62 0 0 0-1.9 1.77 1.06 1.06 0 0 0-.08.16l.07.25a6.78 6.78 0 0 0 4.36 4.14l.38.12h.06l4.42-4.36a2.71 2.71 0 0 1 .19-.21 2.62 2.62 0 0 0 0-.72 6.74 6.74 0 0 0-4.4-1.95z"/></clipPath><radialGradient id="radial-gradient" cx="-711.04" cy="436.37" r="1" gradientTransform="matrix(7.07 0 0 7.07 5049.14 -3054.35)" gradientUnits="userSpaceOnUse"><stop offset="0" stop-color="#454748"/><stop offset=".41" stop-color="#303535"/><stop offset="1" stop-color="#0c1414"/></radialGradient><clipPath id="clip-path-4"><path class="cls-1" d="M29.86 7.71a19.63 19.63 0 0 0-9 4.11 10.64 10.64 0 0 0-4 10.45s-.64-6.18 4.05-6.88h.4c2.59 0 2.92 4.11 2.92 4.11.66-3.55 4.32-4.92 4.32-4.92a6.73 6.73 0 0 1 2.27-.37c5.27 0 11.94 5.41 13.09 15 0 .29.07.58.09.89l.1-.1a23 23 0 0 0 2.57-4.89s0-.13.09-.37A14.49 14.49 0 0 0 45 14.42c-.22-.36-.46-.72-.72-1.07a13.91 13.91 0 0 0-9.21-5.63H35a16.15 16.15 0 0 0-5.15 0"/></clipPath><linearGradient id="linear-gradient-2" x1="-711.04" y1="436.37" x2="-710.04" y2="436.37" gradientTransform="translate(21568.65 -13207.71) scale(30.31)" gradientUnits="userSpaceOnUse"><stop offset="0" stop-color="#cfcfd1"/><stop offset=".16" stop-color="#c0c0c2"/><stop offset=".46" stop-color="#98999b"/><stop offset=".88" stop-color="#595a5b"/><stop offset="1" stop-color="#454748"/></linearGradient><clipPath id="clip-path-5"><path class="cls-1" d="M37.33 1.54c-2 2.45-2.54 8.95-2.54 8.95a20.15 20.15 0 0 1 8.39 6.69l.94-2.07a17 17 0 0 0-.66-10.55C42.2 1.32 41 0 39.72 0a3.37 3.37 0 0 0-2.39 1.54"/></clipPath><linearGradient id="linear-gradient-3" x1="-711.04" y1="436.37" x2="-710.04" y2="436.37" gradientTransform="matrix(9.89 0 0 9.89 7064.92 -4305.82)" xlink:href="#linear-gradient-2"/><clipPath id="clip-path-6"><path class="cls-1" d="M42.45 60.08a4.64 4.64 0 0 0 2-.73 5.08 5.08 0 0 1-2 .73m-3.55-2a12.62 12.62 0 0 0 1.38 1.06 33.64 33.64 0 0 1-2.57-2.3l-.18-.17a14.23 14.23 0 0 0 1.37 1.41m-5.84-10.4a23.69 23.69 0 0 0 1.09 3.27 25.59 25.59 0 0 1-1.07-4.71zM32.69 46h.1v-.05zm8.45-4a18.87 18.87 0 0 1-7.3 3.74c1 8.12 6.13 12.87 8 13.45a2.88 2.88 0 0 0 .84.12 5.79 5.79 0 0 0 2.33-.6 9.15 9.15 0 0 0 .85-.44 22.81 22.81 0 0 0 2.4-2.27l3.39-4.27.17-.17a2.75 2.75 0 0 0 .24-.28c.43-.6.84-1.66-.68-2.67l-.29-.19-.66-.4-.36-.21c-2.55-1.5-6.7-3.72-8.62-6l-.34.27"/></clipPath><linearGradient id="linear-gradient-4" x1="-711.04" y1="436.37" x2="-710.04" y2="436.37" gradientTransform="translate(14296.06 -8702.73) scale(20.06)" gradientUnits="userSpaceOnUse"><stop offset="0" stop-color="#4a82c4"/><stop offset=".17" stop-color="#4a82c4"/><stop offset=".69" stop-color="#42a5e3"/><stop offset="1" stop-color="#3eb5f1"/></linearGradient><clipPath id="clip-path-7"><path class="cls-1" d="M29.78 45.62h-1.15l.61.12 3.36.26h.21c.07-.2.13-.35.18-.47v-.23a15.33 15.33 0 0 1-3.18.34m-7.32-7.87a8.12 8.12 0 0 0-.16 1 6 6 0 0 0 3.6 6.23h.17a10.69 10.69 0 0 0 2 .2 5.94 5.94 0 0 0 4.73-1.92V42.2a12.73 12.73 0 0 1 0-1.42 5.11 5.11 0 0 1-1.85.36 3.84 3.84 0 0 1-2-.52 4.77 4.77 0 0 1-1 .11 5.65 5.65 0 0 1-1.07-.11 1.08 1.08 0 0 1-.25-.06l-.48-.14A4.94 4.94 0 0 1 24 39.09a4.56 4.56 0 0 1-.87-1.46 4 4 0 0 1-.25-1 6.81 6.81 0 0 0-.37 1.17m22-8.09c-.77 3.21-3.89 6.53-4.9 7.55a32.68 32.68 0 0 0 1.93 4.46 17.62 17.62 0 0 1-3.34-4.92l-4.36 2.63-.15 2.33a23.25 23.25 0 0 0 .15 4A18.87 18.87 0 0 0 41.13 42l.34-.27c1.31-1.09 5.87-5.2 5.5-9.49a5 5 0 0 0-.1-.7s-.61-2.11-1.83-2.82a10.61 10.61 0 0 1-.59.91"/></clipPath><linearGradient id="linear-gradient-5" x1="-711.04" y1="436.37" x2="-710.04" y2="436.37" gradientTransform="translate(17611.24 -10757.03) scale(24.74)" xlink:href="#linear-gradient-4"/><clipPath id="clip-path-8"><path class="cls-1" d="M33.09 61l.32.09a12.45 12.45 0 0 0 1.59-.94 9.09 9.09 0 0 1-1.88.84m3.49-2.55a2.75 2.75 0 0 1-.53.85 2.59 2.59 0 0 0 .34-.38c.4-.58.19-.93 0-1.09.26.42.16.61.16.61M24.86 46.94c-.07.17-.14.35-.2.53l-.11.34a21.4 21.4 0 0 0-.77 7.06v.35c.07 1.69.26 3.11.34 3.89a4.52 4.52 0 0 0 .44 1.62 7.92 7.92 0 0 1 3.11-.54 21 21 0 0 1 4.61.6C30.2 54.41 32 48.17 32.79 46h-.2l-3.36-.31-.61-.12a10.44 10.44 0 0 1-2.7-.54h.17-.17a8.75 8.75 0 0 0-1.06 1.9"/></clipPath><linearGradient id="linear-gradient-6" x1="-711.04" y1="436.37" x2="-710.04" y2="436.37" gradientTransform="matrix(-7.49 0 0 -7.49 -5285.51 3320.55)" xlink:href="#linear-gradient-4"/><clipPath id="clip-path-9"><path class="cls-1" d="M44.41 29.63a18.56 18.56 0 0 1-2.31 2.71l-.66.6h.09a21.89 21.89 0 0 0 2.91-3.27v-.1z"/></clipPath><clipPath id="clip-path-10"><path class="cls-1" d="M44.02 30.08v.03l.08-.12-.08.09z"/></clipPath><linearGradient id="linear-gradient-7" x1="-711.04" y1="436.37" x2="-710.04" y2="436.37" gradientTransform="translate(22785.19 -13944.02) scale(32.02)" gradientUnits="userSpaceOnUse"><stop offset="0" stop-color="#bec0c1"/><stop offset=".18" stop-color="#afb0b1"/><stop offset=".52" stop-color="#868889"/><stop offset=".98" stop-color="#464748"/><stop offset="1" stop-color="#434445"/></linearGradient><clipPath id="clip-path-11"><path class="cls-1" d="M33.08 45.93v.31a25.59 25.59 0 0 0 1.07 4.71 21.42 21.42 0 0 0 3.37 5.72l.18.17a33.64 33.64 0 0 0 2.57 2.3 10.75 10.75 0 0 0 1.73.92 1 1 0 0 0 .29 0h.15a5.08 5.08 0 0 0 2-.73c.2-.12.42-.26.65-.42s.53-.39.81-.63a9.15 9.15 0 0 1-.85.44 5.79 5.79 0 0 1-2.33.6 2.88 2.88 0 0 1-.84-.12c-1.89-.58-7-5.33-8-13.45l-.75.15m3.57-9.6l-1.48.83-1.22.68a27.67 27.67 0 0 0 4.79-2.66z"/></clipPath><linearGradient id="linear-gradient-8" x1="-711.04" y1="436.37" x2="-710.04" y2="436.37" gradientTransform="translate(14287.99 -8701.05) scale(20.05)" gradientUnits="userSpaceOnUse"><stop offset="0" stop-color="#4b7eb6"/><stop offset=".17" stop-color="#4b7eb6"/><stop offset=".66" stop-color="#469bce"/><stop offset="1" stop-color="#43abdb"/></linearGradient><clipPath id="clip-path-12"><path class="cls-1" d="M41.54 32.93a25.85 25.85 0 0 1-2.77 2.22A27.67 27.67 0 0 1 34 37.81l-.93.38-1 .37-.06.1a5.06 5.06 0 0 1-3 2 3.84 3.84 0 0 0 2 .52 5.11 5.11 0 0 0 1.85-.36 12.73 12.73 0 0 0 0 1.42v1.08a5.94 5.94 0 0 1-4.73 1.92 10.69 10.69 0 0 1-2-.2l2.54.5h1.15a15.33 15.33 0 0 0 3.18-.26v.23l.1-.25v.68l.75-.15a23.25 23.25 0 0 1-.15-4l.15-2.33 4.35-2.66a17.62 17.62 0 0 0 3.28 4.87 32.68 32.68 0 0 1-1.93-4.46c1-1 4.13-4.34 4.9-7.55a21.89 21.89 0 0 1-2.91 3.27"/></clipPath><linearGradient id="linear-gradient-9" x1="-711.04" y1="436.37" x2="-710.04" y2="436.37" gradientTransform="translate(17602.85 -10751.51) scale(24.73)" xlink:href="#linear-gradient-8"/><clipPath id="clip-path-13"><path class="cls-1" d="M25.93 45a10.47 10.47 0 0 0 2.7.53l-2.54-.5h-.17z"/></clipPath><linearGradient id="linear-gradient-10" x1="-711.04" y1="436.37" x2="-710.04" y2="436.37" gradientTransform="matrix(-7.48 0 0 -7.48 -5285.31 3307.7)" xlink:href="#linear-gradient-8"/><clipPath id="clip-path-14"><path class="cls-1" d="M28.59 22.76a1.59 1.59 0 0 1-1.16-.67 2.59 2.59 0 0 1 .38-2.68 2.74 2.74 0 0 1 2.25-1.27 1.75 1.75 0 0 1 1.36.57 2 2 0 0 1 .13 2.84 3.79 3.79 0 0 1-2.69 1.24h-.27m.81-5.59a4.09 4.09 0 0 0-2 2 4.78 4.78 0 0 0-.36 2.56 3.15 3.15 0 0 0 2.61 1.5 4.8 4.8 0 0 0 4-2.83c.27-1.19-.88-3.57-2.9-3.57a3.15 3.15 0 0 0-1.41.36"/></clipPath><linearGradient id="linear-gradient-11" x1="-711.04" y1="436.37" x2="-710.04" y2="436.37" gradientTransform="matrix(6.73 0 0 6.73 4809.88 -2915.23)" gradientUnits="userSpaceOnUse"><stop offset="0" stop-color="#fff"/><stop offset=".37" stop-color="#f0f1f2"/><stop offset="1" stop-color="#ced0d2"/></linearGradient><clipPath id="clip-path-15"><path class="cls-1" d="M29.42 19.13a1.39 1.39 0 0 0 .39 2.73 1.42 1.42 0 0 0 .39-.05 1.39 1.39 0 0 0-.39-2.73 1.42 1.42 0 0 0-.39.06"/></clipPath><radialGradient id="radial-gradient-2" cx="-711.04" cy="436.37" r="1" gradientTransform="matrix(1.39 0 0 1.39 1020.02 -587.23)" gradientUnits="userSpaceOnUse"><stop offset="0" stop-color="#bee2fa"/><stop offset=".34" stop-color="#b0dcf9"/><stop offset=".98" stop-color="#8accf6"/><stop offset="1" stop-color="#89cbf6"/></radialGradient><clipPath id="clip-path-16"><path class="cls-1" d="M19 21.87a1.75 1.75 0 0 1 0-2.46 1.53 1.53 0 0 1 1.23-.54 2.39 2.39 0 0 1 1.91 1 2.25 2.25 0 0 1 .41 2.31 1.37 1.37 0 0 1-1 .62 1.55 1.55 0 0 1-.3 0 3.29 3.29 0 0 1-2.3-1m.47-3.57A2.65 2.65 0 0 0 19 23a3.29 3.29 0 0 0 2 .6 1.87 1.87 0 0 0 2-2.28s-1-3.19-2.76-3.19a1.69 1.69 0 0 0-.74.18"/></clipPath><linearGradient id="linear-gradient-12" x1="-711.04" y1="436.37" x2="-710.04" y2="436.37" gradientTransform="matrix(5.19 0 0 5.19 3707.53 -2243.5)" gradientUnits="userSpaceOnUse"><stop offset="0" stop-color="#ced0d2"/><stop offset=".63" stop-color="#f0f1f2"/><stop offset="1" stop-color="#fff"/></linearGradient><clipPath id="clip-path-17"><path class="cls-1" d="M20.47 19.67a1.21 1.21 0 0 0 .13 2.41h.14a1.21 1.21 0 0 0-.13-2.41z"/></clipPath><radialGradient id="radial-gradient-3" cx="-711.04" cy="436.37" r="1" gradientTransform="matrix(1.21 0 0 1.21 882.32 -507.96)" xlink:href="#radial-gradient-2"/><clipPath id="clip-path-18"><path class="cls-1" d="M32.81 46v.05h.05v.73c.07.3.14.6.22.91V46.25v-.29z"/></clipPath><linearGradient id="linear-gradient-13" x1="-711.04" y1="436.37" x2="-710.04" y2="436.37" gradientTransform="translate(14298.89 -8708.53) scale(20.06)" xlink:href="#linear-gradient-8"/><clipPath id="clip-path-19"><path class="cls-1" d="M32.81 46h.23v-.43c-.05.12-.11.28-.18.47"/></clipPath><linearGradient id="linear-gradient-14" x1="-711.04" y1="436.37" x2="-710.04" y2="436.37" gradientTransform="translate(18334.92 -11193.08) scale(25.76)" xlink:href="#linear-gradient-8"/><clipPath id="clip-path-20"><path class="cls-1" d="M32.3 60.79l.78.19a9.09 9.09 0 0 0 1.92-.83l.4-.29a8.43 8.43 0 0 0 .67-.57 2.75 2.75 0 0 0 .53-.85s.1-.19-.16-.61l-.12-.1s-1.35-.89-2.48-4.28a23.18 23.18 0 0 1-1-6.68v-.73h-.05c-.77 2.14-2.59 8.38-.49 14.77"/></clipPath><linearGradient id="linear-gradient-15" x1="-711.04" y1="436.37" x2="-710.04" y2="436.37" gradientTransform="matrix(-7.48 0 0 -7.48 -5280.82 3319.35)" xlink:href="#linear-gradient-8"/><clipPath id="clip-path-21"><path class="cls-1" d="M33 45.94v.3-.31z"/></clipPath><linearGradient id="linear-gradient-16" x1="-711.04" y1="436.37" x2="-710.04" y2="436.37" gradientTransform="translate(11316.03 -6878.63) scale(15.87)" gradientUnits="userSpaceOnUse"><stop offset="0" stop-color="#4c7bac"/><stop offset=".17" stop-color="#4c7bac"/><stop offset=".58" stop-color="#4991bd"/><stop offset="1" stop-color="#46a4cc"/></linearGradient><clipPath id="clip-path-22"><path class="cls-1" d="M33 45.51v.43-.68l-.1.25"/></clipPath><linearGradient id="linear-gradient-17" x1="-711.04" y1="436.37" x2="-710.04" y2="436.37" gradientTransform="translate(15487.95 -9444.95) scale(21.75)" xlink:href="#linear-gradient-16"/><clipPath id="clip-path-23"><path class="cls-1" d="M24.58 60.73c.37.7.81.76.81.76a8.49 8.49 0 0 0 3.45.73 10.34 10.34 0 0 0 4.56-1.14l-.31-.08c-.4.13-.66.18-.66.18s-.09-.25-.13-.38a21 21 0 0 0-4.61-.6 7.92 7.92 0 0 0-3.11.54"/></clipPath><linearGradient id="linear-gradient-18" x1="-711.04" y1="436.37" x2="-710.04" y2="436.37" gradientTransform="matrix(-7.49 0 0 -7.49 -5278.38 3328.31)" xlink:href="#linear-gradient-8"/><clipPath id="clip-path-24"><path class="cls-1" d="M32.43 61.17s.26-.06.66-.18l-.78-.19c0 .13.08.25.13.38"/></clipPath><linearGradient id="linear-gradient-19" x1="-711.04" y1="436.37" x2="-710.04" y2="436.37" gradientTransform="matrix(-7.52 0 0 -7.52 -5299.25 3342.18)" xlink:href="#linear-gradient-16"/><clipPath id="clip-path-25"><path class="cls-1" d="M23.65 30.6L19.23 35c3.61-1.5 4.43-3.51 4.61-4.57a2.71 2.71 0 0 0-.19.21"/></clipPath><radialGradient id="radial-gradient-4" cx="-711.04" cy="436.37" r="1" gradientTransform="matrix(7.07 0 0 7.07 5050.22 -3055.02)" gradientUnits="userSpaceOnUse"><stop offset="0" stop-color="#434445"/><stop offset=".4" stop-color="#2e3333"/><stop offset="1" stop-color="#081312"/></radialGradient><clipPath id="clip-path-26"><path class="cls-1" d="M26.65 40.64l.25.06z"/></clipPath><linearGradient id="linear-gradient-20" x1="-711.04" y1="436.37" x2="-710.04" y2="436.37" gradientTransform="translate(17695.83 -10805.67) scale(24.86)" xlink:href="#linear-gradient-8"/></defs><title>dog_sport_fristyle</title><g id="Слой_2" data-name="Слой 2"><g id="Layer_1" data-name="Layer 1"><path class="cls-2" d="M34.79 81.2s11.78-.84 13.27-2.46-12.42-1.16-12.42-1.16-21.15-1.52-27.43-3.74S.5 69.69.5 69.69s-2.5 3.15 3.85 7.7 25.09 4.09 30.45 3.81"/><path class="cls-3" d="M24.25 10.15s1.3-4.6.86-6.91-2.91.81-3.69 2.31a20.68 20.68 0 0 0-1.9 7.73s1.14-1.52 4.73-3.14"/><path class="cls-4" d="M23.42 10.56s.86-4 .24-5.36c0 0-2.83.28-3.89 7.85a13.49 13.49 0 0 1 3.65-2.48"/><path class="cls-3" d="M15.07 74.74l-1.07.35-.07 1.55s.28 1.16 2.12 1.75l2.05.3-2.63-1.77a2.35 2.35 0 0 1-.41-2.19"/><path class="cls-3" d="M15.81 73.73a8.38 8.38 0 0 0-.35 1.81c0 .54.7 1.58 2.42 2.33a5 5 0 0 1 .26-3.14v-.32zM39.34 77.5a4 4 0 0 0 .31 1.19l-1.2.13s-.57-.79.88-1.32"/><path class="cls-5" d="M21.27 79.26a10.82 10.82 0 0 0 2.06.19 12.12 12.12 0 0 0 1.35-.07c-1.19 0-2.34-.06-3.41-.11"/><g class="cls-6"><path class="cls-7" d="M11.32 69.82h53.71v21.07H11.32z"/></g><path class="cls-8" d="M59.87 24.5c-1 0-2.18 1.22-2.35 3.46 0 0-6.19.66-10.64 3.61a5.14 5.14 0 0 1 .1.7 18.6 18.6 0 0 1 10.81-3.75H58a11.37 11.37 0 0 1 .38-2.57 1.68 1.68 0 0 1 1.4-.95 1.22 1.22 0 0 1 .53.11c.82.44.19 3.13.19 3.13l.69-.36s1.74-1.57 2.85-1.57a.75.75 0 0 1 .67.33c.54.79-.69 2.75-.69 2.75a14.14 14.14 0 0 1 2-.19 2.15 2.15 0 0 1 1.09.19c.63.44.44 1.44 0 2.07s-3.7.88-3.7.88A6.33 6.33 0 0 1 65 34.92c.18.88-.56 1.7-1.76 1.76h-.1a6.19 6.19 0 0 1-2.73-1.07C50 36.43 47.32 41.2 47.32 41.2l1.17 2.73.05.11A30.48 30.48 0 0 1 50.45 48l.66.4c-1-2.47-2-4.26-3-6.61a1.37 1.37 0 0 1-.05-.3 19.15 19.15 0 0 1 12.64-5.34 3.26 3.26 0 0 0 1.77.94 5.09 5.09 0 0 0 .8.07 2.44 2.44 0 0 0 2.18-.91c.75-1.32-.86-3.4-1.28-3.63 0 0 3.06-.14 3.44-1s.57-2.45-.47-2.64a10.46 10.46 0 0 0-1.78-.13h-.59a3.57 3.57 0 0 0 .48-2.42c-.1-.44-.48-.64-1-.64A5.17 5.17 0 0 0 61 27.5a2.93 2.93 0 0 0-.52-2.78 1 1 0 0 0-.64-.22M23.12 37.62a4.56 4.56 0 0 0 .88 1.47 5.22 5.22 0 0 1-.84-1.47m-.66.13a45.27 45.27 0 0 0-5.26 1.09c.49-.09 1-.15 1.42-.19 1.72-.4 2.94-.58 3-.58v.26s-.55.08-1.39.25a11.8 11.8 0 0 1 1.31.06v.22l.7-.11a8.27 8.27 0 0 1 .16-1m9.4 1l-.16.07a4.53 4.53 0 0 1-3.24 1.82 6.23 6.23 0 0 1-1.14.11h-.41a5.68 5.68 0 0 0 1.11.05 4.78 4.78 0 0 0 1-.11l-.08-.05a4.58 4.58 0 0 0 2.92-1.92m-16 1.48a20.17 20.17 0 0 0-2.57.36 18 18 0 0 0-3.07 1.55h-1c-1.17 0-2.71.12-3.16.63a2 2 0 0 0-.58 1.46 1.42 1.42 0 0 0 .57 1L7 45l.29-.05v.14l1-.31H8c-.52 0-1.45-.05-1.76-.41s.06-1.19.06-1.19a5 5 0 0 1 2.78-.56c.76 0 1.37.06 1.37.06a19.13 19.13 0 0 1 5.43-2.45m-2.68 0q-.57.26-1.1.55l.73-.32.37-.22m13 .26l.48.14-.48-.09M8 41.84a3.15 3.15 0 0 0-2.13.63 4.67 4.67 0 0 1 2.49-.62H8m-2.21.71a2 2 0 0 0-.32.42 3.33 3.33 0 0 1 .32-.42m17 2.38a12.5 12.5 0 0 0-10.39 5.81c-1 1.75-1.93 3.18-2.87 3.18h-.21a1.69 1.69 0 0 0 1.63-.33 7.43 7.43 0 0 0 .68-1 12.35 12.35 0 0 0 .63-1.3c0-.07 3.2-6 10-6h1v.26h.22l-.3-.65h-.39m.69 0c.09.21.2.44.31.67v.12c.26.54.55 1.12.88 1.72.07-.18.13-.35.2-.52L23.7 45h-.28m-17.71.3s-2.23.37-2.49 1.58c.28-.74 1.47-1.26 2.49-1.58m.41.16c-1 .29-2.37.79-2.65 1.52a1.58 1.58 0 0 0 .05 1.41 2 2 0 0 0 1.48.86l.62.09-.62.17a3.83 3.83 0 0 0 1 .15 3.54 3.54 0 0 0 2.28-.83 8.7 8.7 0 0 1-1.89.22 4.26 4.26 0 0 1-1.59-.26c-1.38-.56-1-1.69-.56-2.39a4.63 4.63 0 0 1 1.82-1m15.75.08a10.66 10.66 0 0 0-6.61 2.62 11.47 11.47 0 0 1 6.61-2.62M3.22 46.88a1.51 1.51 0 0 0-.11.36 2.4 2.4 0 0 1 .11-.36m29.84.8c-.22 5.43 2 8.7 2.86 9.55a3.2 3.2 0 0 1 .5.61c.16.15.38.51 0 1.09a2.67 2.67 0 0 1-.34.38 4.31 4.31 0 0 1-.75.65c-.4.43-.79.91-1.14 1.36l.25.08-1.6 2.48h-.8c-1.55 0-4.89.32-6.07 3 0 0 2.07 6.88.28 12l-1.51.57h1.12a1.2 1.2 0 0 0 .61-.82A18.34 18.34 0 0 0 26.32 67s.72-2.79 5.24-2.79h1.06a15.88 15.88 0 0 0-1.17 3.48 24 24 0 0 0 13.3 4.7l-2.9 2.84-2.41.55a9.55 9.55 0 0 0-.13 1.28l-1.25.74s0 .48.08 1c1.18-.12 2.33-.28 3.43-.46l-1.46.17a5.32 5.32 0 0 1-.19-2.45l2.21-.66s2.92-2.39 3.42-2.89c.33-.33.05-.39-.17-.39h-.21c-7.1-.44-13.06-4.77-13.06-4.77.82-4.52 5.28-8.54 5.28-8.54l1.5-.84a14.24 14.24 0 0 1-1.37-1.41 14.22 14.22 0 0 1-3.37-5.72 23.66 23.66 0 0 1-1.09-3.28M4.97 49.54A1.39 1.39 0 0 0 4 50.67a1.14 1.14 0 0 0 .23.92 2.35 2.35 0 0 0 1.77.48 5.73 5.73 0 0 0 2.75-.69l.25-.16-.08.32a6.43 6.43 0 0 0-.13 1.83.61.61 0 0 0 .32.46c-.71-.52 0-3 0-3A5 5 0 0 1 5.8 52h-.14c-1.25 0-1.37-.82-1.37-.82-.4-.73.48-1.5.67-1.65m-.86.28a1.56 1.56 0 0 0-.4 1.46 1.14 1.14 0 0 0 .63.71 1.17 1.17 0 0 1-.28-.23 1.38 1.38 0 0 1-.3-1.13 1.43 1.43 0 0 1 .35-.82m48 1.4a2.65 2.65 0 0 1-.24.28 15.84 15.84 0 0 1 .29 2.79 12.8 12.8 0 0 1 0 2.93 7.23 7.23 0 0 1-.15.86 5.84 5.84 0 0 0 4.2 2.52h.2c2.54 0 2.63-1.75 2.08-2.89a2.87 2.87 0 0 0-2-1.26 2.08 2.08 0 0 1-.27.05l-.11.16h-.28c-2.44 0-1.69-2.76-1.69-2.76a5.22 5.22 0 0 1 3.77-1.58 7.92 7.92 0 0 1 4.08 1.3h-.26a4.6 4.6 0 0 1 .89.84 5.75 5.75 0 0 1 0 7 6.07 6.07 0 0 1-5.39 2.91 10.28 10.28 0 0 1-1.3-.09 6.33 6.33 0 0 1-5-3.25c.17-.39.34-.78.5-1.17a14.53 14.53 0 0 1-5.21 5.55 11.83 11.83 0 0 0 4.48-3.92 8.82 8.82 0 0 0 6.45 3.4h.62c4 0 5.85-3.22 6.27-6.33a5.61 5.61 0 0 0-5.9-6.47c-4.14 0-4.58 1.95-4.46 2.83a2 2 0 0 0 2.15 1.92h.56a1.82 1.82 0 0 1 1.94 2.43 2.46 2.46 0 0 1-2.14.88 4.22 4.22 0 0 1-1.76-.38 5.26 5.26 0 0 1-2.24-2.15 11.91 11.91 0 0 0 0-6.35m-43.44.53a6.18 6.18 0 0 1-2.74.56 4.94 4.94 0 0 1-1-.09 4.94 4.94 0 0 0 1.18.14 4.61 4.61 0 0 0 2.45-.64m0 0s-.77 1.48.23 2.21a.84.84 0 0 1-.31-.57 6.11 6.11 0 0 1 .08-1.64m.6 2.41a1.34 1.34 0 0 0 .5.1h.09a1.87 1.87 0 0 1-.59-.1m14.54.7a7.65 7.65 0 0 0-3.22 1.32s-2.07 1-2.36 4.33a26.8 26.8 0 0 0 1.22 9.14l1 3.3-2.29 1-2.59-.81L15 74.3l-1.34.53a6.51 6.51 0 0 0-.15 2.4c.23.84 1.55 1.4 2.11 1.59a3.73 3.73 0 0 0 .58.09c1.37.14 3.09.26 5 .35-1.4-.28-2.76-.94-3.06-2.43a2.46 2.46 0 0 1 .24-1.64h.71a11 11 0 0 0 2.67-.19c.63-.25-.31-.52-.31-.52l-3.31.26-.14-.24a6.84 6.84 0 0 1 3.34-.89s-3.21-11.3-2.27-14.38c.89-2.9 4.3-3.91 4.68-4v-.35M52.49 72l-.14 2.84a9.39 9.39 0 0 0 .31-2.54.79.79 0 0 0-.18-.31m-7.11 3.34l-3.25 1.09v1.89a31.74 31.74 0 0 0 4.3-1.05c-2.17.6-3.88.95-3.88.95a1.45 1.45 0 0 1 1.22-2z"/><path class="cls-3" d="M37.39 58.91s-4.46 4-5.28 8.54c0 0 6 4.33 13.06 4.77 0 0 .88-.13.38.38s-3.42 2.89-3.42 2.89l-2.21.66a5.32 5.32 0 0 0 .19 2.45l2.07-.24v-1.93l3.25-1.09-1.55.9a1.45 1.45 0 0 0-1.22 2 53.69 53.69 0 0 0 9.32-2.83 7.64 7.64 0 0 0 .24-3.06 27.28 27.28 0 0 0-8.71-5.61s-.85 0 .23-.52A16 16 0 0 0 52.09 56a17 17 0 0 0-.37-5.09z"/><path class="cls-9" d="M48.49 43.93c.55 1.3 1.19 2.79 1.61 3.82l.36.21A30.63 30.63 0 0 0 48.54 44z"/><path class="cls-4" d="M52 58.09c-.17.58-.37 1.15-.61 1.73a8.48 8.48 0 0 0 .61-1.73m-5.82 7.28a21.25 21.25 0 0 1-2.44 1.18c2.26.37 7.72 4.16 8.78 5.46v-.27s-4.86-4-8.46-5.18a17.16 17.16 0 0 0 2.11-1.19m6.21 9.48l-.11.45h.09z"/><path class="cls-9" d="M52.13 54.3a16.54 16.54 0 0 1 0 1.73 16 16 0 0 1-8.4 10.19c-1.08.52-.23.52-.23.52a27.28 27.28 0 0 1 8.71 5.61 7.66 7.66 0 0 1-.24 3.06l.34-.11.11-.45.07-2.85c-1.06-1.31-6.52-5.09-8.78-5.46a21.21 21.21 0 0 0 2.44-1.18 14.51 14.51 0 0 0 5.21-5.55c.23-.58.44-1.15.61-1.73a7.3 7.3 0 0 0 .15-.86 12.82 12.82 0 0 0 0-2.94"/><path class="cls-4" d="M51.67 51.67L48.26 56a22.64 22.64 0 0 1-2.39 2.34l.25-.15-.25.2c-.24.19-.52.39-.82.6a25.4 25.4 0 0 1-5.36 8.83s7.35 1.89 9 4.52l-2.45 4.9 1.38-.35c1.52-.54 2.93-1 4.25-1.45a7.66 7.66 0 0 0 .24-3.06 27.28 27.28 0 0 0-8.71-5.6s-.85 0 .23-.52A16 16 0 0 0 52.09 56a16.5 16.5 0 0 0 0-1.73 18.41 18.41 0 0 0-.46-2.62"/><path class="cls-3" d="M23.83 55.21s-3.77.94-4.71 4 2.27 14.38 2.27 14.38a6.9 6.9 0 0 0-3.39.91l.14.23 3.31-.26s.94.27.31.52a16.34 16.34 0 0 1-3.27.19 2.5 2.5 0 0 0 .07 2.45c.75 1.32 6.91 1.3 6.91 1.3s2.59-3.81.09-12.09a2.87 2.87 0 0 1 1.6-2.28c1.6-.94 5.57-1.25 5.57-1.25a22.06 22.06 0 0 1 3.66-4.4zM67.16 29.4c-.63-.44-3.14 0-3.14 0s1.24-2 .7-2.75c-.82-1.19-3.52 1.24-3.52 1.24l-.69.36s.63-2.68-.19-3.12c0 0-1.07-.57-1.95.82a11.32 11.32 0 0 0-.37 2.57 18.48 18.48 0 0 0-11.11 3.83l-1.7 3-.14-.35L40 42.21s11.11 8 10.42 6.28-3.08-7.29-3.08-7.29 2.7-4.77 13.13-5.59a6 6 0 0 0 2.82 1.07c1.2-.06 1.94-.87 1.76-1.76a6.36 6.36 0 0 0-1.57-2.58s3.26-.25 3.7-.88.63-1.63 0-2.07"/><path class="cls-8" d="M42.1 32.35a37 37 0 0 1-10.4 6.43 4.49 4.49 0 0 1-3.53 1.83 4.67 4.67 0 0 1-5.34-4c-6-.95-8.58-5.08-8.53-6a5 5 0 0 1 1.26-2.24c-.19-1.51 1.32-3.86 1.32-3.86-2-6.31 2.23-11.55 2.23-11.55C19.37 6 23.89-.43 25.65.32S28 8 28 8a22.82 22.82 0 0 1 7-.25s1-6.21 3.88-7.58 7 7.43 5.73 13.33c0 0 3 6.53 2 12.18a21.39 21.39 0 0 1-4.52 6.66"/><path class="cls-3" d="M16.1 27.89a9.38 9.38 0 0 1 1.29-3.16 12.27 12.27 0 0 1 .59-8.9s3.45-8.6 17-7.72c0 0 11.84 1.07 11.27 17 0 0-1.93 7.2-14.24 12.73a5.63 5.63 0 0 1-4.51 2.5c-2.89-.06-4-3-4.27-4 0 0-7.35-1.38-8.48-5.71 0 0-.19-1.19 1.32-2.7"/><path class="cls-8" d="M14.38 30.22s1.59-3.94 9.35-6.13c0 0 8.55.56 10 6.67a14.34 14.34 0 0 1-2.57 8.47 15.47 15.47 0 0 0 2-8.26s-1.14-5.51-9.62-6.62c0 0-7.78 3-8.85 6.24zM33.23 56.6c-7.51-3-11.16-14.29-11.2-14.4l.26-.08c0 .11 3.65 11.28 11 14.24z"/><path class="cls-8" d="M9.83 54.26a1.81 1.81 0 0 1-.6-.1.93.93 0 0 1-.68-.77 6.06 6.06 0 0 1 .08-1.64 6.18 6.18 0 0 1-2.63.59 2.55 2.55 0 0 1-1.95-.57 1.39 1.39 0 0 1-.3-1.13 1.56 1.56 0 0 1 .83-1.21 2.11 2.11 0 0 1-1.29-.92 1.83 1.83 0 0 1-.07-1.64c.28-.74 1.47-1.26 2.49-1.58a1.66 1.66 0 0 1-.58-1.09 2.23 2.23 0 0 1 .65-1.66c.78-.88 3.93-.71 4.37-.68 4.22-2.72 11.37-3.78 11.44-3.79v.27c-.07 0-7.21 1.07-11.37 3.77-1-.07-3.59-.09-4.2.59a2 2 0 0 0-.58 1.46 1.42 1.42 0 0 0 .57 1L7 45l.29-.06v.26h-.22c-.76.16-3.27.74-3.66 1.76a1.59 1.59 0 0 0 .05 1.41 2 2 0 0 0 1.54.88l.62.09-.62.17a1.44 1.44 0 0 0-1 1.15 1.15 1.15 0 0 0 .23.92 2.34 2.34 0 0 0 1.77.49 5.74 5.74 0 0 0 2.75-.69l.25-.16v.31a6.2 6.2 0 0 0-.13 1.83.68.68 0 0 0 .51.55 1.69 1.69 0 0 0 1.62-.34 9.11 9.11 0 0 0 1.32-2.27c0-.08 3.5-6.6 10.95-6v.26c-7.26-.59-10.65 5.78-10.68 5.85a8.88 8.88 0 0 1-1.37 2.35 1.89 1.89 0 0 1-1.31.49"/><path class="cls-8" d="M6.66 45.12l.05.26L8.43 45l-.06-.26-1.71.38zM6 49.57a7.72 7.72 0 0 1-1-.06v-.26a6.61 6.61 0 0 0 3.31-.41l.12.24a5.76 5.76 0 0 1-2.43.49M22.32 36.43c-.06 0-6.14-.72-7.49-5.38l.26-.07c1.29 4.49 7.2 5.19 7.26 5.19zM59.08 29.7a1.93 1.93 0 0 1 2.21-.12 3.41 3.41 0 0 1 .88 3.75 1.63 1.63 0 0 1-2.85-.22c-.42-1.17-.71-3.06-.24-3.41M62.57 35.36s.38-.69.95-.6a.68.68 0 0 1 .48 1.12c-.36.44-1.54.2-1.41-.52M65.87 30a.68.68 0 0 1 .51.07.91.91 0 0 1 0 1 .55.55 0 0 1-.92-.43c0-.6.39-.64.39-.64M64.52 27.16a.72.72 0 0 1-.27.47 1 1 0 0 1-1-.37.59.59 0 0 1 .79-.73c.58.25.47.64.47.64M60.12 25.93a.71.71 0 0 1-.1.53 1 1 0 0 1-1.06 0 .59.59 0 0 1 .5-1c.63 0 .65.44.65.44"/><g class="cls-10"><path class="cls-9" d="M13.31 38.58h8.24v1.98h-8.24z"/></g><path class="cls-4" d="M17.2 38.85a12.64 12.64 0 0 0-4 1.4 27.82 27.82 0 0 1 4-1.4"/><path class="cls-9" d="M18.61 38.65c-.45 0-.92.1-1.42.19a28.2 28.2 0 0 0-4 1.4l-.37.22a36.48 36.48 0 0 1 5.78-1.82"/><path class="cls-9" d="M20.2 38.58c-.45 0-1 0-1.58.07a36.29 36.29 0 0 0-5.78 1.82l-.46.31s.35-.1.94-.22a39.9 39.9 0 0 1 6.92-2"/><path class="cls-8" d="M24.08 36.56s.83 1.81 2.27 1.63 4-1.17 5-7c0 0-6.83 9.19-14.93 2l-2.1-2.59s.6 5.52 9.77 6"/><g class="cls-11"><path class="cls-12" d="M14.36 27.73h9.55v7.24h-9.55z"/></g><path class="cls-13" d="M17.68 29.08a5.27 5.27 0 0 1 3.86-.19c1.59.64 1.14 1.85.16 2.42a3.9 3.9 0 0 1-3.67 0c-.94-.45-1.71-1.25-.62-2.07a1.66 1.66 0 0 1 .27-.17"/><g class="cls-14"><path class="cls-15" d="M15.47 7.51h32.25v22.58H15.47z"/></g><g class="cls-16"><path class="cls-17" d="M34.79 0h10.93v17.18H34.79z"/></g><path class="cls-3" d="M38.27 12.38s-.1-6.59.56-9.14 3.11-.66 4.05 2.17 1.41 7.44-.75 10.65a13.87 13.87 0 0 0-3.86-3.68"/><path class="cls-4" d="M38.74 12.75s.19-6.5 2.26-7.54 2.73 6.79 1.14 10.84a11 11 0 0 0-3.39-3.3"/><path class="cls-3" d="M22.26 38.75s-8.07 1.16-11.81 3.9c0 0-3.2-.31-4.14.5 0 0-.5.69-.06 1.19s2.13.4 2.13.4-3.64 1-4.07 1.67-.82 1.82.56 2.39a6.79 6.79 0 0 0 3.48 0 3.57 3.57 0 0 1-3.35.71s-1.14.86-.7 1.67c0 0 .13.88 1.51.82a5 5 0 0 0 3.33-1.13s-.81 2.8.19 3 2-1.27 3.07-3.16A12.42 12.42 0 0 1 23.7 45l1.88 3.2 3-3.65z"/><g class="cls-18"><path class="cls-19" d="M32.69 41.76h20.23v18.33H32.69z"/></g><g class="cls-20"><path class="cls-21" d="M22.12 28.75h25.22v17.26H22.12z"/></g><g class="cls-22"><path class="cls-23" transform="rotate(-60.3 30.243 53.059)" d="M20.04 43.4h20.42v19.31H20.04z"/></g><path class="cls-3" d="M45.21 48.6a3.47 3.47 0 1 1-4.86.67 3.47 3.47 0 0 1 4.86-.67"/><path class="cls-24" d="M41.87 50.88l.25-.55zm-.07-.06l.26-.56zm-.08-.06l.28-.56zm-.08-.06l.27-.6zm-.08-.06l.28-.62zm-.08-.06l.29-.63zm-.07-.06l.29-.65zm-.08-.06l.28-.61zm-.08-.06l.25-.55zm-.08-.06l.22-.49zm-.08-.06l.2-.44zm-.09-.04l.17-.38zm-.08-.06l.15-.32zm-.08-.06l.12-.27zm-.08-.06l.09-.21zm-.05-.06l.07-.15zm-.08-.06v-.09zm-.08-.06zM43.76 50.16v-.07zm-.08-.08v-.11zm-.09-.08v-.14zm-.08-.08v-.18zm-.08-.08v-.22zm-.08-.08v-.26zm-.08-.08l.06-.3zm-.08-.08l.06-.34zm-.08-.1l.07-.36zm-.11-.05l.08-.42zm-.08-.08l.08-.46zm-.08-.08l.09-.5zm-.08-.08l.1-.54zm-.56-.6v.06-.08zm.09 0v.14-.16zm.1 0v.22-.24zm.1 0l-.06.3.06-.32zm.09 0l-.07.38.07-.4zm.1 0l-.09.46.09-.48zm.09 0l-.1.54.1-.56zM42.1 52.3zm-.1 0v-.1zm-.09 0v-.19zm-.1 0v-.28zm-.09 0v-.37zm-.1 0V52zm-.09 0V52zm-.1-.08v-.55zm-.09-.1v-.5zm-.1-.1v-.46zm-.09-.1v-.43zm-.09-.1v-.39zm-.1-.1v-.35zm-.09-.1v-.31zm-.09-.1v-.27zm-.1-.1v-.23zm-.09-.1v-.2zm-.1-.1v.08zm-.09-.1V51zm-.09-.1v-.09zm-.09-.1zM43.63 51.05l.15-.88-.65-.65.5 1.53z"/><path class="cls-25" d="M42.65 50.27l-1.51-1.14 1.03 1.15.48-.01z"/><path class="cls-24" d="M43.13 49.52l-1.57-.9.59-.01.98.91zM42.21 50.36l-.26.58.03.01.71-.6-.48.01zM41.45 51.82l.67.35.51-.4-1.18.05z"/><path class="cls-25" d="M43.62 51.08l-.12.61-1.27.53 1.39-1.14zM41.4 51.81l-1.19-1.46.01.63 1.18.83z"/><path class="cls-26" d="M44.37 53.08zm-.06 0zm0 0l.13.1h-.04zM44.39 52.92l.12.1.02-.01-.13-.1-.01.01zM44.56 52.94v-.08zm-.13-.08h.06v.11zM44.64 52.82v-.08h-.05zm-.13-.07h.06v.11zM44.61 52.63l.13.1.01-.02-.13-.1-.01.02zM44.71 52.5l.1.07-.14-.02-.02.03.13.09.01-.01-.12-.09.17.02.01-.01-.13-.09-.01.01zM44.77 52.41l-.01.05.04.05.06.02.05-.02.01-.03v-.02l.01.01.01-.01-.06-.05-.04.05.02.01.02-.03h.01l.02.03-.01.03-.02.01h-.04l-.03-.02-.02-.02-.01-.02v-.02l.01-.02.02-.01h.03l.01-.01-.05-.01-.03.03zM44.9 52.24l-.01.05.04.05.06.02.04-.02.02-.04-.02-.04-.01.01.01.02v.02l-.01.02-.03.01-.05-.02-.03-.04v-.03l.03-.02.03.01v-.02h-.04l-.03.02zM44.96 52.17l.13.09.01-.01-.13-.1-.01.02zM44.99 52.13l.01.01.03-.04.12.09.01-.02-.12-.09.03-.03-.01-.01-.07.09zM45.12 51.95l.04.08-.08-.02-.02.02.11.02.05.04.01-.02-.05-.04-.05-.09-.01.01zM43.32 53.76l-.04.03-.02.03v.02l.01.03.01.02.02-.02-.01-.01-.01-.02v-.02l.01-.02.03-.02.03.01.02.02.01.02v.1l.02.05.01.01.09-.12-.01-.01-.08.1-.01-.04v-.1l-.02-.03-.01-.02-.03-.01h-.02zM43.42 53.73v.07zm0-.11v.05h.08v.13h-.06zM43.47 53.57l.01.01.02-.03.09.07.01-.01-.09-.07.02-.03-.01-.01-.05.07zM43.58 53.42l.05.03-.04.05-.04-.03-.01.01.1.08.01-.01-.05-.04.04-.05.05.04.01-.02-.11-.07-.01.01zM43.79 53.12l.12.15-.17-.08-.01.02.11.14-.17-.07-.01.02.21.09.01-.02-.11-.14.17.07.01-.02-.14-.18-.02.02zM43.84 53.06l.18.14.01-.02-.18-.14-.01.02zM43.98 52.88l.14.1-.2-.02-.02.03.17.13.02-.02-.16-.12.23.03.01-.01-.18-.14-.01.02zM44.01 52.83l.02.01.04-.05.16.12.02-.02-.16-.12.04-.06-.02-.01-.1.13zM44.14 52.67l.18.13.08-.11-.01-.01-.08.09-.07-.05.05-.06-.01-.02-.05.07-.06-.05.07-.09-.02-.01-.08.11zM44.28 52.51zm0-.05v.06l.18.14-.08-.06h.11-.12zM44.51 52.17l.13.09.02.04-.01.04-.03.02-.04-.01-.13-.1-.01.02.12.1.06.01.05-.03.01-.06-.02-.05-.13-.09-.02.02zM44.66 51.98l.13.11-.2-.03-.02.03.18.14.02-.02-.17-.12.24.03.01-.02-.18-.13-.01.01zM44.71 51.91l.18.14.02-.03-.18-.13-.02.02zM44.84 51.74l.11.16-.18-.07-.01.02.22.08.01-.02-.14-.19-.01.02zM44.88 51.69l.18.14.08-.12-.01-.01-.07.09-.07-.05.04-.06-.01-.01-.05.06-.06-.05.07-.09-.02-.01-.08.11zM45 51.53zm0-.05v.06l.18.14-.08-.06h.11-.12zM45.15 51.33l-.02.02v.03l.01.02.01.02.03.01.02-.01.02-.01.03-.01.02-.01.02-.01h.03l.02.03-.02.04-.03.02h-.04l-.01.02h.05l.03-.01.02-.02.02-.03v-.03l-.01-.02-.02-.02-.02-.01h-.02l-.03.01-.03.02-.01.01-.02.01h-.03l-.02-.03.02-.03.02-.02h.04l.01-.02h-.05l-.04.03zM45.24 51.22l.18.13.01-.02-.18-.13-.01.02zM45.35 51.1h.11v.06zm0 0l.14.19v-.12h.07l-.22-.08zM45.59 51.09v-.12h-.07zm-.18-.1h.16V51.14zM45.54 50.82l.18.13.08-.11-.01-.01-.07.09-.07-.05.05-.06-.02-.01-.05.06-.06-.05.07-.09-.02-.01-.08.11z"/><path class="cls-24" d="M44.44 53.32v.01l.09.2-.1.19.01.01.21-.03.15.15.01.01.01-.01.02-.22.18-.07.01-.01-.07-.08h-.01l-.06.06-.01.01v-.01l.05-.08v-.01l-.01-.02h-.01l-.11.13h-.01v-.01l.08-.13.01-.01h-.03l-.01.01-.13.15h-.01v-.01l.09-.13v-.01h-.03l-.01.01-.13.15h-.01l.07-.12.02-.02-.01-.01-.02.01-.01.01-.06.06h-.01l.07-.12.01-.02-.02-.01-.02.01-.05.06-.01.01v-.01l.03-.06.01-.01h-.01l-.15-.03h-.01z"/><path class="cls-27" d="M44.69 52.99V53l.09.2-.1.19.01.01.22-.03.14.15.01.01.01-.01.02-.22.18-.07.02-.01-.08-.08h-.01l-.06.06h-.01l.05-.08v-.01l-.01-.02h-.01l-.11.13h-.01v-.01l.09-.13v-.01h-.02l-.02.01-.13.15h-.01l.09-.14v-.01h-.01l-.02.01H45l-.13.15.07-.12.01-.02v-.01l-.02.01h-.02l-.06.07h-.01l.07-.12.01-.02h-.03l-.05.06-.02.01v-.01l.04-.06v-.01l-.16-.03h-.01z"/><path class="cls-26" d="M44.94 52.66v.01l.1.19-.11.19.01.02.22-.04.14.16.02.01v-.01l.03-.22.17-.07.02-.01-.08-.08h-.01l-.06.06h-.01l.05-.08v-.01l-.01-.02h-.01l-.11.12-.01.01v-.01l.09-.13v-.01h-.02l-.01.01-.14.15h-.01l.01-.01.08-.13v-.01h-.03l-.01.01-.12.15h-.01l.07-.12.01-.03-.02.01h-.01l-.07.07h-.01v-.01l.07-.11.02-.02-.01-.01h-.02l-.01.01-.05.06-.02.01.01-.01.03-.06.01-.01-.01-.01-.15-.02h-.02z"/><path class="cls-28" d="M45.19 52.33v.01l.1.19-.11.19.01.01.22-.03.14.16.01.01.01-.01.03-.22.18-.08h.01l-.01-.01-.07-.07h-.01l-.06.06h-.01l.05-.09v-.01l-.01-.01-.12.12h-.01l.09-.13v-.01h-.03l-.14.16v-.01l.08-.14h-.03l-.01.01-.12.15h-.01v-.01l.07-.11.01-.03h-.02l-.01.01-.07.07v-.01l.06-.11.01-.02v-.01h-.02l-.01.01-.05.05-.02.02v-.01l.04-.06.01-.01-.01-.01-.15-.03-.02.01z"/><path class="cls-29" d="M45.46 51.99l.15.03v.01l-.03.07h-.01l.02-.01.05-.05.01-.01h.01l.01.01-.01.02-.07.11v.01l.01-.01.21-.25.03-.04v.03l-.01.03-.22.3v.01l.02-.01.21-.26h.01v.03l-.14.22v.01-.01l.14-.16h.01l.01.02v.01l-.01.01-.06.11v.01-.01l.07-.07.02-.02.01-.01.02.01v.02l-.03.05v.01l.06-.06h.01l.09.05.01.01-.01.01-.2.08-.02.22-.01.02-.02-.02-.14-.15-.22.03-.01-.01.11-.19-.1-.19v-.02h.02z"/><path class="cls-24" d="M42.3 54.2v-.04l-.04-.18.07-.08.03.23.31.02-.06.08-.12-.01-.11-.01v.06l.13.09-.06.07-.33-.26.05-.07.13.1zM42.48 53.81zm0-.15l-.1.14.34.26.05-.07-.13-.1H42.79l.06-.07H42.64v-.07zM42.82 53.5l-.06-.08h.2l-.07.09zm-.14-.07l.26.38.05-.07-.06-.08.09-.12h.1l.06-.07-.43-.15zM42.94 53.06l.05-.05.06-.03.04.05-.05.04-.04.04-.02.05.03.03.02.01h.02l.03-.02.02-.02.04-.03.05-.02.05-.01.06.03.04.09-.05.13-.02.02-.03.03-.03.03-.04.02-.04-.06.07-.05.04-.04.02-.06-.02-.04h-.04l-.03.01-.02.02-.05.03-.05.03h-.04l-.06-.02-.05-.09.04-.12zM43.5 52.84l-.23-.18.04-.07.35.26-.06.07-.27-.02-.04-.01h-.04l.24.18-.05.08-.35-.27.06-.07.12.01.12.01.11.01zM43.71 52.43h-.05v.05h.19zm.05-.08l.07.06V52.63l-.07.06H43.53l-.06-.06V52.4l.07-.06h.16zM43.91 52.27l-.3-.06.05-.07.06.01.06.01.1.02-.03-.04-.02-.05-.06-.1.06-.08.07.14.06.14.13.09-.06.08-.12-.09zM44 51.89v-.08h.2l-.07.09zm-.14-.07l.26.37.05-.07-.01-.12.1-.12h.09l.05-.07-.4-.09zM44.2 51.53v-.05V51.6zm0-.15l-.1.14.34.26.05-.07-.14-.11h.16l.05-.07H44.35v-.07zM44.42 51.12l.05-.04.06-.04.03.05-.05.04-.04.04-.01.04.02.04.02.01h.03l.02-.02.03-.02.03-.03.05-.02.05-.01.06.03.05.09-.05.13-.03.02-.03.03-.03.03-.04.02-.04-.06.07-.05.04-.04.02-.06-.02-.04h-.04l-.02.01-.03.01-.05.04-.04.03h-.05l-.05-.02-.05-.09.04-.12zM44.75 50.98l-.01-.04-.03-.19.06-.08.04.23.31.02-.06.09-.12-.01-.12-.01.01.05.13.1-.05.07-.35-.26.06-.07.13.1zM45.24 50.66l.11-.14.05.04-.18.24-.05-.03v-.05l-.01-.06-.01-.06-.01-.05-.02-.05-.02-.03-.05-.01-.04.03-.02.04-.02.06-.06-.01.02-.09.03-.06.09-.06.1.03.04.05.03.07.01.07v.07h.01zM45.35 50.37v-.08.07zm-.11-.28l-.06.06V50.36l.06.05H45.45l.06-.05v-.2l-.06-.05h-.13zM45.36 49.92l-.04.09.05.04.05-.08.27.21.05-.07-.33-.25-.05.06zM45.61 49.81h.07v-.07h-.06v.05zm.17 0v.09h-.05V49.75l.06-.05h.2l.07.06V49.98z"/><g class="cls-30"><path class="cls-4" d="M41.45 29.56h3.02v3.39h-3.02z"/></g><path class="cls-9" d="M41.54 32.93h-.09a31 31 0 0 1-4.75 3.37l2.07-1.15a25.57 25.57 0 0 0 2.77-2.22m-6.32 4.19c-.83.44-1.58.8-2.16 1.07l.93-.38zM32 38.66l-.14.06a4.58 4.58 0 0 1-2.92 1.92l.08.05a5.07 5.07 0 0 0 3-2"/><path class="cls-9" d="M44.41 29.63l-.31.37-.08.12c-1.43 1.59-6.15 6.41-12 8.29a2.54 2.54 0 0 1-.2.35l.14-.06.06-.09 1-.37c.59-.27 1.33-.63 2.16-1.07l1.48-.82A30.54 30.54 0 0 0 41.4 33l.66-.6a18.41 18.41 0 0 0 2.31-2.71"/><g class="cls-31"><path class="cls-32" d="M44.02 29.99h.08v.12h-.08z"/></g><path class="cls-9" d="M34.15 50.95a14.24 14.24 0 0 0 3.37 5.72 21.41 21.41 0 0 1-3.37-5.72"/><path class="cls-4" d="M45.06 58.93c-.23.16-.44.3-.65.42.22-.13.43-.26.64-.4"/><path class="cls-33" d="M46.12 58.15l-.26.15c-.28.24-.56.45-.81.63.3-.2.58-.41.82-.6l.26-.19"/><path class="cls-4" d="M40.27 59.14a6.42 6.42 0 0 0 1.33.86 1.71 1.71 0 0 0 .64.12h.06a1 1 0 0 1-.29 0 10.71 10.71 0 0 1-1.73-.92"/><g class="cls-34"><path class="cls-35" d="M33.08 35.15h12.79v24.94H33.08z"/></g><g class="cls-36"><path class="cls-37" d="M26.09 29.66h18.35v16.27H26.09z"/></g><g class="cls-38"><path class="cls-39" transform="rotate(-60.3 27.276 45.303)" d="M26.38 44h1.8v2.61h-1.8z"/></g><path class="cls-3" d="M21.62 29.76c0 .25-.48.45-1.07.45s-1.07-.2-1.07-.45.48-.45 1.07-.45 1.07.2 1.07.45"/><path class="cls-8" d="M33.77 30.76s.21 4.34-1.54 7.35l-.49.39a15.56 15.56 0 0 0 1.7-7.62z"/><path class="cls-40" d="M24.56 36.23s.61 1.46 1.68 1.59 2.55-.71 3.95-3.59l.68-1.91a11.14 11.14 0 0 1-4.63 3.43z"/><path class="cls-25" d="M25.76 37.59a5.82 5.82 0 0 1 4-2.46 6 6 0 0 1-2.53 2.59s-1 .39-1.45-.13"/><g class="cls-41"><path class="cls-42" d="M26.76 16.81h7.23v6.41h-7.23z"/></g><path class="cls-8" d="M27.43 22.1a2.59 2.59 0 0 1 .38-2.68c1-1.54 2.9-1.58 3.61-.71a2 2 0 0 1 .13 2.84 3.68 3.68 0 0 1-3 1.22 1.6 1.6 0 0 1-1.16-.67"/><path class="cls-3" d="M29.74 18.63a2.12 2.12 0 0 1 2.08 1.46c.41 1.5-1.63 2.5-3.15 2.52s-1.29-1.38-1.15-2a2.6 2.6 0 0 1 2.22-2"/><g class="cls-43"><path class="cls-44" d="M28.25 19.07h3.1v2.79h-3.1z"/></g><path class="cls-26" d="M29.78 21.42a.94.94 0 0 0 .92-.57 1 1 0 0 0-1-1.35c-.8 0-1.52 1.83.1 1.92"/><path class="cls-3" d="M29.18 20.51s-.1-.39.19-.49.39.19.36.41-.32.4-.54.08"/><g class="cls-45"><path class="cls-46" d="M17.28 18.12h5.98v5.47h-5.98z"/></g><path class="cls-8" d="M22.63 22.22a2.25 2.25 0 0 0-.41-2.31 2 2 0 0 0-3.14-.5 1.75 1.75 0 0 0 0 2.46 3.19 3.19 0 0 0 2.6 1 1.37 1.37 0 0 0 1-.62"/><path class="cls-3" d="M20.54 19.24a1.83 1.83 0 0 0-1.74 1.32c-.31 1.31 1.48 2.1 2.79 2.07s1.07-1.23.92-1.78a2.23 2.23 0 0 0-2-1.61"/><g class="cls-47"><path class="cls-48" d="M19.32 19.67h2.55v2.42h-2.55z"/></g><path class="cls-26" d="M20.37 21.73a.75.75 0 0 0 .81-.33.81.81 0 0 0-.62-1.21c-.64-.1-1.46 1.23-.19 1.53"/><path class="cls-3" d="M20.22 20.76s0-.32.21-.36.28.2.22.38-.32.27-.44 0"/><path class="cls-8" d="M23.63 24.07l.2.02.53-4.61-.2-.02-.53 4.61z"/><path class="cls-9" d="M32.84 46.76a23.13 23.13 0 0 0 1 6.68c1.13 3.39 2.48 4.29 2.48 4.29l.12.09a3.24 3.24 0 0 0-.5-.61c-.85-.85-3.08-4.11-2.86-9.54-.08-.31-.16-.61-.22-.91M36 59.29a8.08 8.08 0 0 1-.67.57l-.08.08a4.23 4.23 0 0 0 .75-.65"/><path class="cls-4" d="M35.37 59.86l-.4.3.33-.21.08-.08"/><g class="cls-49"><path class="cls-50" d="M32.79 45.94h.29v1.74h-.29z"/></g><g class="cls-51"><path class="cls-52" d="M32.81 45.51h.23v.47h-.23z"/></g><g class="cls-53"><path class="cls-54" transform="rotate(-60.3 33.435 53.509)" d="M25.34 46.99h16.2v13.03h-16.2z"/></g><g class="cls-55"><path class="cls-56" d="M33.04 45.93h.04v.31h-.04z"/></g><g class="cls-57"><path class="cls-58" d="M32.99 45.25h.1v.69h-.1z"/></g><path class="cls-9" d="M34.16 61.3c-.83 1.07-1.44 2-1.44 2s-4 .31-5.57 1.25a2.86 2.86 0 0 0-1.6 2.28c2.5 8.28-.1 12.09-.1 12.09-.28 0-6.16 0-6.9-1.3a2.62 2.62 0 0 1-.3-.81c.3 1.49 1.66 2.16 3.06 2.43 1.08 0 2.22.09 3.41.11l1.51-.57c1.79-5.09-.28-12-.28-12 1.18-2.69 4.52-3 6.07-3h.8l1.6-2.48-.25-.08"/><path class="cls-4" d="M24.58 60.73a3.37 3.37 0 0 0-2 2.35c-1.32 5.27.38 12.81.38 12.81l-4.67.93a2.64 2.64 0 0 0 .3.81c.74 1.29 6.62 1.3 6.9 1.3s2.6-3.81.1-12.09a2.86 2.86 0 0 1 1.6-2.28c1.6-.94 5.57-1.25 5.57-1.25s.61-.95 1.43-2l-.75-.22a10.33 10.33 0 0 1-4.56 1.14 8.49 8.49 0 0 1-3.45-.73s-.44-.06-.81-.76"/><g class="cls-59"><path class="cls-60" transform="rotate(-60.3 29 61.202)" d="M25.93 56.87h6.14v8.68h-6.14z"/></g><g class="cls-61"><path class="cls-62" transform="rotate(-60.3 32.694 60.987)" d="M32.34 60.55h.72v.87h-.72z"/></g><path class="cls-4" d="M58.16 52.58a7.07 7.07 0 0 0-3 .64 1.85 1.85 0 0 0-.66 2.92 1.62 1.62 0 0 0 1.2.41 3.66 3.66 0 0 0 .46 0c.43-.64 2.17-3 4.86-3a4.76 4.76 0 0 1 .65 0 5.92 5.92 0 0 0-3.48-1"/><path class="cls-9" d="M57.83 52.34a5.22 5.22 0 0 0-3.77 1.58s-.75 2.76 1.69 2.76H56l.11-.16a3.66 3.66 0 0 1-.46 0 1.61 1.61 0 0 1-1.2-.41 1.85 1.85 0 0 1 .66-2.92 7.06 7.06 0 0 1 3-.64 5.9 5.9 0 0 1 3.48 1h.26a7.9 7.9 0 0 0-4.07-1.3M26.65 40.6l.25.06h.41a6.24 6.24 0 0 0 1.14-.11h-1.01a5.6 5.6 0 0 1-.8-.06"/><path class="cls-9" d="M19.28 35a3.49 3.49 0 0 0 .37.24 8.45 8.45 0 0 0 1.34.44 18.36 18.36 0 0 1-1.71-.68m12.46 3.23a5.45 5.45 0 0 1-4.1 2.1h-.1a4 4 0 0 1-.94-.13l.05.4a5.63 5.63 0 0 0 .8.06 6.74 6.74 0 0 0 .72 0h.29a5.42 5.42 0 0 0 2.06-.81 4 4 0 0 0 .85-.84c.09-.17.23-.42.38-.73"/><path class="cls-4" d="M29.91 27.87a8.41 8.41 0 0 0-6.07 2.52c-.18 1.06-1 3.07-4.61 4.57a18.35 18.35 0 0 0 1.71.68 7.94 7.94 0 0 0 1.85.22c5 0 8.5-4.73 8.5-4.73-1 5.85-3.55 6.84-5 7l.25 2a4 4 0 0 0 .94.13h.1a5.44 5.44 0 0 0 4.1-2.1A15.7 15.7 0 0 0 33.25 31a7.08 7.08 0 0 0-1.69-3 9.72 9.72 0 0 0-1.65-.14m-5.84 8.69a2.27 2.27 0 0 0 .8 1.08 3.87 3.87 0 0 1-.8-1.08"/><path class="cls-9" d="M31.57 28a7.05 7.05 0 0 1 1.69 3 15.72 15.72 0 0 1-1.51 7.26c-.15.31-.28.56-.37.73a8.63 8.63 0 0 0 .67-1l.05-.12.75-1.91a14.88 14.88 0 0 0 .67-4.45 7.11 7.11 0 0 0-1.27-3.31l-.68-.2M31.34 31.16s-3.52 4.73-8.5 4.73a8 8 0 0 1-1.84-.21 8.49 8.49 0 0 1-1.34-.44 15.2 15.2 0 0 0 4.43 1.32 3.85 3.85 0 0 0 .8 1.08 3 3 0 0 0 1.47.55c1.43-.18 4-1.17 5-7m-.46 1.15l-.68 1.91c-.16.33-.32.63-.48.91a6 6 0 0 1-2.52 2.59 2.32 2.32 0 0 1-.75.14 1.09 1.09 0 0 1-.51-.11 3 3 0 0 1-1.4-1.52l1.68-.48a11.13 11.13 0 0 0 4.63-3.43"/><g class="cls-63"><path class="cls-64" d="M19.23 30.39h4.61v4.57h-4.61z"/></g><g class="cls-65"><path class="cls-66" d="M26.65 40.64h.25v.06h-.25z"/></g><path class="cls-9" d="M33.47 31.46a14.86 14.86 0 0 1-.68 4.45l.4-1a12.83 12.83 0 0 0 .3-1.83 7.45 7.45 0 0 0 0-1.6m-1.39 6.33l-.06.12.07-.13"/><path class="cls-40" d="M30.87 32.32a11.13 11.13 0 0 1-4.63 3.43l-1.68.48A3 3 0 0 0 26 37.75l-.2-.16a5.83 5.83 0 0 1 4-2.45c.16-.28.32-.58.48-.91z"/><path class="cls-67" d="M29.74 35.13a5.83 5.83 0 0 0-4 2.46l.2.16a1.09 1.09 0 0 0 .51.11 2.34 2.34 0 0 0 .75-.14 6 6 0 0 0 2.53-2.59"/><path class="cls-9" d="M43.79 29.37c-2 2.43-5.4 5.51-11.27 8.22l-.06.11c6.32-1.65 11.35-8.35 11.35-8.35"/><path class="cls-4" d="M43.77 29.39c-5 4.84-8.94 5.25-10.12 5.25h-.2a12.05 12.05 0 0 1-1 3c5.87-2.71 9.3-5.8 11.27-8.22"/><path class="cls-9" d="M33.3 34.61l-.11.28a12.52 12.52 0 0 1-1.1 2.92l.35-.08.06-.11a12 12 0 0 0 1-3h-.2"/><path class="cls-68" d="M32.79 35.91L32 37.82a16.6 16.6 0 0 0 .71-1.9"/><path class="cls-68" d="M33.19 34.89l-.4 1a16.46 16.46 0 0 1-.71 1.9 12.49 12.49 0 0 0 1.1-2.92"/><path class="cls-3" d="M42.49 48a3.47 3.47 0 1 0 4 2.78 3.47 3.47 0 0 0-4-2.78"/><path class="cls-24" d="M40.83 52.59l.01-.03.08-.14.1-.02-.11.18.18.19-.09.02-.07-.08-.07-.07-.02.04.02.14-.07.01-.07-.37.08-.02.02.15h.01zM41.25 52.53h-.1v.11zm.12-.09v.19H41.2v.15h-.08l-.07-.37h.2M41.57 52.44v-.09V52.52h-.1zm0-.13l-.06.4h.08v-.11h.14v.08h.08l-.19-.35zM41.92 52.23l.06-.01.06.01-.01.06h-.11l-.03.02-.01.04.01.02.02.01h.05l.04.01.05.01.04.03.01.05-.02.08-.11.06h-.1l-.04-.01.01-.06.08.01.05-.01.05-.02v-.06l-.02-.01h-.02l-.02-.01h-.06l-.05-.01-.03-.03-.02-.04.02-.09.1-.05zM42.41 52.41l-.05-.26.08-.01.07.37-.08.02-.16-.18-.03-.03-.02-.02.04.26-.07.01-.07-.37.08-.01.07.07.07.08.06.07h.01zM42.8 52.27v-.05.19h.08v-.1zm.08 0V52.42H42.67v-.33h.22v.13"/><path class="cls-24" d="M43.01 52.28l-.16-.22.08-.01.04.04.03.04.04.07h.01l.01-.04.01-.04.03-.1.08-.02-.04.13-.04.13.03.14-.09.01-.03-.13zM43.33 52.12V52 52.17h-.1zm0-.13l-.06.4h.08v-.09h.14v.08h.08l-.18-.38zM43.72 52.08h-.1v.11zm.13-.09v.19h-.16v.15h-.08l-.07-.37h.2M44.03 51.84l.06-.01.06.01-.01.06h-.1l-.04.02-.01.04.01.01.02.01.02.01h.08l.04.02.04.02.02.06-.03.08-.1.06H43.98l-.04-.01.01-.06.08.01.05-.01.05-.02v-.06l-.02-.01h-.01l-.03-.01h-.06l-.05-.01-.03-.03-.02-.04.02-.09.1-.05zM44.34 51.94l.01-.03.09-.14.09-.02-.11.17.18.2-.09.02-.07-.08-.06-.07-.03.04.03.14-.08.01-.07-.37.07-.02.03.15h.01zM44.84 52.02l.15-.02.01.05-.26.05-.01-.05.03-.04.03-.04.03-.04.02-.04.02-.04v-.04l-.02-.03-.05-.01-.03.01-.05.04-.04-.05.07-.04.05-.02.1.01.04.07v.06l-.02.07-.04.05-.04.05h.01zM45.21 51.83v.14-.12zm.08 0v.14h-.19L45 52v-.3h.19v.12M45.36 51.61l-.08.04.01.05.07-.02.06.29.07-.01-.07-.36-.06.01zM45.59 51.69h.11v-.05zm.13.07h-.08v-.05H45.76v.26H45.61v-.06h.07v-.07z"/><path class="cls-26" d="M41.25 53.2l-.18.03v-.03l.02-.05.05-.05.02-.03.01-.02.01-.02v-.02l-.02-.04h-.04l-.03.01-.01.01-.01.03v.02h-.03v-.03l.02-.03.02-.02.03-.02.06.01.03.02.01.03v.03l-.01.03-.02.03-.02.02-.04.05-.03.04.15-.02.01.02zM41.31 53v-.05zm0 .11h.05V53h-.06.07V53.17h-.06zM41.45 52.9l.01.02.05-.01.02.14.02-.01-.03-.13.05-.01-.01-.02-.11.02zM41.68 52.86l.01.06-.07.02-.01-.07-.02.01.03.15h.02l-.02-.08.08-.01.01.07h.02l-.03-.15h-.02zM42.1 52.77l-.01.22-.09-.2h-.02l-.02.22-.09-.2h-.03l.12.26.02-.01.02-.22.09.2h.03l.01-.28-.03.01zM42.19 52.75l.05.27.03-.01-.05-.27-.03.01zM42.46 52.7l.04.2-.16-.18-.04.01.05.26h.03l-.04-.24.17.21h.03l-.05-.26h-.03zM42.54 52.69v.02l.08-.01.04.24.03-.01-.04-.24.08-.02-.01-.02-.18.04zM42.77 52.64l.05.27.17-.03-.01-.03-.13.03-.02-.1.09-.02-.01-.03-.09.02-.02-.09.13-.02v-.03l-.16.03zM43 52.72h.05H43zm0 .15v-.26h.16l.08.12-.08-.11H43v.12zM43.38 52.53l.04.19.02.04h.05l.04-.03.01-.04-.03-.18.03-.01.03.19-.01.06-.07.04-.07-.01-.03-.06-.04-.19h.03zM43.78 52.46l.03.2-.15-.18-.04.01.04.26h.03l-.04-.24.18.21h.02l-.05-.27-.02.01zM43.89 52.44l.05.26.03-.01-.05-.26-.03.01zM44.13 52.39l-.02.23-.11-.21-.03.01.13.25.03-.01.03-.28-.03.01zM44.21 52.38l.05.26.16-.03v-.02l-.14.02-.02-.1.1-.02-.01-.02-.09.01-.02-.08.13-.03v-.02l-.16.03zM44.48 52.45h.05-.1zm0 .15l-.05-.26H44.58l.08.11-.07-.11h-.06v.12zM44.81 52.33l-.02-.02-.05-.01-.03.02-.01.03.01.01.02.01.01.01.03.01h.04l.03.01.02.02.01.03v.06l-.03.02-.04.02h-.04l-.03-.02-.02-.01-.02-.03.03-.01.03.03.05.01.04-.02.01-.04-.01-.02-.02-.01-.02-.01h-.03l-.04-.01-.02-.01-.03-.02-.01-.02v-.03l.01-.03.03-.01.03-.02.06.01.04.04-.03.01zM44.91 52.25l.05.26h.03l-.05-.27-.03.01zM45.1 52.23l.07.13h-.08zm0 0v.28-.11h.1v.08l-.13-.25zM45.32 52.42l.07-.13v-.08h-.11zm-.08-.23h.16l.05.09v.1l-.08.05h-.07zM45.49 52.14l.05.26.17-.03-.01-.02-.14.02-.01-.1.09-.01-.01-.03-.09.02-.02-.09.14-.03-.01-.02-.16.03z"/><path class="cls-69" d="M42.47 53.28l.11.15v.01h-.01l-.08.03-.01.01h.02l.1-.01.01.01.02.01v.01l-.03.01-.15.05h.13l.02.02-.04.01-.15.04-.01.01h.01l.24-.02h.01l.03.02-.2.06.01.01.24-.03h.02l.02.02-.01.01-.19.05.01.01.2-.02.01.01v.02l-.01.01-.11.03-.01.01h.01l.11-.01.01.01v.14l-.02-.01-.22-.08-.19.17-.02.01-.01-.03v-.25l-.22-.14v-.02l.25-.09.08-.25v-.01l.02.01z"/><path class="cls-70" d="M42.96 53.19l.11.15.01.01-.02.01-.08.02-.01.01h.02l.1-.01.02.01.01.01v.01l-.03.01-.15.05v.01l.11-.01h.02l.02.01v.01l-.03.01-.16.04v.01l.24-.02h.02l.02.02h.01-.01l-.19.06h-.01l.01.01.25-.03h.01l.02.02v.01h-.01l-.18.05h-.01l.01.01.2-.02.01.01v.02l-.01.01-.11.03h-.01v.01l.12-.01.01.01v.14l-.02-.01-.21-.08-.2.18h-.02v-.02l-.01-.26-.22-.14v-.02l.25-.09.08-.24v-.02l.02.01z"/><path class="cls-71" d="M43.46 53.1l.11.15v.01h-.01l-.09.03v.01h.02l.1-.01.01.01.01.01v.01l-.02.01-.15.05h-.01H43.57l.02.01v.01l-.04.01-.15.04-.01.01h.01l.24-.02h.01l.02.01.01.01h-.01l-.19.06h.01l.24-.02h.01l.03.02-.01.01-.19.05.01.01.2-.02v.02l-.01.01-.11.04v.01l.12-.01v.14h-.01l-.22-.08-.2.17-.01.01-.01-.03v-.25l-.22-.14v-.02l.25-.09.07-.25.01-.01.02.01z"/><path class="cls-72" d="M43.95 53.01l.11.15v.01h-.01l-.08.03h-.01.13l.02.02v.01l-.03.01-.15.04-.01.01.12-.01.01.01.03.01v.01l-.03.01-.16.04-.01.01h.01l.24-.03h.01v.01l.03.01v.01l-.19.05-.01.01h.01l.24-.02h.02l.02.01v.01l-.01.01-.19.05h.01l.2-.01h.01v.02l-.01.01-.11.04h-.01l.01.01.11-.01.01.01v.13h-.02l-.22-.09-.2.18h-.01l-.01-.02v-.25l-.22-.15v-.02l.25-.08.07-.25.01-.01.02.01z"/><path class="cls-73" d="M44.44 52.92l.11.15h-.08.1-.15l.39-.06h.06l-.44.1.41-.06-.31.08h.26-.15.17-.08.11v.12l-.24-.09-.2.18v-.27l-.22-.15.25-.08.07-.25"/><path class="cls-24" d="M44.03 49.62v.02l.33-.24-.02-.02-.31.24zM44.02 49.43v.03l.21-.17-.01-.01-.2.15zM43.99 49.15l.01.02.05-.04-.02-.01-.04.03zM44.01 49.34v.02l.16-.12-.01-.01-.15.11zM44.02 49.52v.03l.27-.21-.01-.01-.26.19zM44.03 49.71l.01.03.37-.29-.01-.01-.37.27zM44.01 49.24v.03l.1-.08-.01-.02-.09.07zM44.11 50.75v.02l.09-.07.01-.03-.1.08zM44.1 50.66v.02l.12-.09.01-.04-.13.11zM44.09 50.56v.02l.15-.11.01-.03-.16.12zM44.11 50.84l.01.03.06-.06.01-.03-.08.06zM44.12 50.94v.02l.04-.03.01-.03-.05.04zM44.09 50.47v.02l.18-.13v-.03l-.18.14zM44.08 50.18v.02l.24-.19.01-.02-.25.19zM44.05 50l.01.02.31-.23v-.03l-.32.24zM44.05 49.9v.02l.34-.25v-.03l-.34.26zM44.08 50.37v.03l.2-.16.01-.03-.21.16zM44.06 50.09v.02l.28-.21.01-.03-.29.22zM44.07 50.28l.01.02.22-.17.01-.03-.24.18zM44.04 49.81v.02l.37-.27v-.03l-.37.28zM42.49 50.01l.01.02.52-.22v-.02l-.53.22zM42.54 50.25l.01.02.47-.21v-.02l-.48.21zM42.53 50.17v.02l.49-.21v-.02l-.49.21zM42.56 50.33v.02l.46-.2v-.02l-.46.2zM42.51 50.09l.01.02.5-.22v-.02l-.51.22zM42.44 49.69v.02l.47-.2-.02-.01-.45.19zM42.35 49.22v.02l.17-.08-.01-.01-.16.07zM42.36 49.3v.02l.23-.1-.02-.01-.21.09zM42.38 49.38v.02l.27-.12-.01-.01-.26.11zM42.48 49.93v.02l.53-.23v-.02l-.53.23zM42.32 49.06v.02l.08-.03-.02-.02-.06.03zM42.3 48.98l.01.02.03-.01-.02-.02-.02.01zM42.33 49.14l.01.02.12-.06-.01-.01-.12.05zM42.47 49.85v.02l.55-.23v-.02h-.01l-.54.23zM42.45 49.77v.02l.52-.22-.02-.01-.5.21zM42.39 49.45v.03l.32-.14-.01-.02-.31.13zM42.41 49.53v.02l.37-.15-.02-.02-.35.15zM42.42 49.61l.01.02.41-.18-.01-.01-.41.17zM41.4 50.24v.03l.15-.17v-.02l-.15.16zM41.4 50.13v.03l.13-.15-.01-.02-.12.14zM41.4 49.67v.03l.04-.05v-.03l-.04.05zM41.4 50.01v.03l.11-.12-.01-.02-.1.11zM41.39 49.55l.01.03.02-.03-.01-.02-.02.02zM41.4 49.9v.03l.08-.1v-.03l-.08.1zM41.4 49.78v.03l.06-.07v-.03l-.06.07zM41.42 51.16h.02l.3-.33v-.02l-.32.35zM41.9 51.33h.02l.01-.01-.01-.02-.02.03zM41.74 51.27l.02.01.11-.12-.01-.02-.12.13zM41.82 51.3h.02l.06-.06-.01-.02-.07.08zM41.66 51.24l.02.01.16-.17-.01-.03-.17.19zM41.58 51.21l.02.01.21-.23-.01-.02-.22.24zM41.4 50.36v.03l.17-.19v-.03l-.17.19zM41.5 51.19h.02l.26-.28-.01-.02-.27.3zM41.4 50.59v.03l.22-.24-.01-.02-.21.23zM41.4 50.48v.03l.2-.22-.01-.02-.19.21zM41.4 50.71v.02l.24-.26v-.02l-.24.26zM41.41 51.05v.03l.3-.34v-.02l-.3.33zM41.41 50.94v.03l.28-.31-.01-.03-.27.31zM41.41 50.82v.03l.25-.29v-.02l-.25.28z"/><path class="cls-24" d="M43.54 51.41l.58-.45-.03-.76-.55 1.21z"/><path class="cls-25" d="M43.08 50.13l.29.26-.28-1.55-.01 1.29z"/><path class="cls-24" d="M44.09 50.2l-.1-1.11-.38-.35.48 1.46zM42.57 50.41l.01.02.77.03-.3-.26-.48.21zM41.98 51.26l.54.04-.75-.63.21.59z"/><path class="cls-25" d="M43.1 51.73l.42-.3-1.49-.08 1.07.38zM41.48 49.46l.26 1.18.09-1.57-.35.39z"/></g></g></svg>