<svg xmlns="http://www.w3.org/2000/svg" xmlns:xlink="http://www.w3.org/1999/xlink" viewBox="0 0 72.89 94.42"><defs><style>.cls-1{fill:none}.cls-2{fill:#979695}.cls-3{fill:#fff}.cls-4{fill:#8b8988}.cls-5{fill:#e6e5e5}.cls-6{fill:#a75281}.cls-7{fill:#d7569c}.cls-8{clip-path:url(#clip-path)}.cls-9{clip-path:url(#clip-path-2)}.cls-10{fill:url(#radial-gradient)}.cls-11{fill:#454748}.cls-12{clip-path:url(#clip-path-3)}.cls-13{fill:url(#linear-gradient)}.cls-14{clip-path:url(#clip-path-4)}.cls-15{fill:url(#linear-gradient-2)}.cls-16{clip-path:url(#clip-path-5)}.cls-17{fill:url(#linear-gradient-3)}.cls-18{clip-path:url(#clip-path-6)}.cls-19{fill:url(#linear-gradient-4)}.cls-20{clip-path:url(#clip-path-7)}.cls-21{fill:url(#linear-gradient-5)}.cls-22{fill:#488dcd}.cls-23{fill:#201600}.cls-24{fill:#ecb14b}.cls-25{fill:#629b69}.cls-26{fill:#d34d47}.cls-27{clip-path:url(#clip-path-8)}.cls-28{clip-path:url(#clip-path-9)}.cls-29{fill:url(#linear-gradient-6)}.cls-30{fill:#c9c8c8}.cls-31{clip-path:url(#clip-path-10)}.cls-32{fill:url(#linear-gradient-7)}.cls-33{clip-path:url(#clip-path-11)}.cls-34{fill:url(#linear-gradient-8)}.cls-35{clip-path:url(#clip-path-12)}.cls-36{fill:url(#linear-gradient-9)}.cls-37{fill:#312a20}.cls-38{clip-path:url(#clip-path-13)}.cls-39{fill:url(#linear-gradient-10)}.cls-40{clip-path:url(#clip-path-14)}.cls-41{fill:url(#radial-gradient-2)}.cls-42{clip-path:url(#clip-path-15)}.cls-43{fill:url(#linear-gradient-11)}.cls-44{clip-path:url(#clip-path-16)}.cls-45{fill:url(#radial-gradient-3)}.cls-46{fill:#9b527d}.cls-47{fill:#c55694}.cls-48{clip-path:url(#clip-path-17)}.cls-49{fill:url(#linear-gradient-12)}.cls-50{clip-path:url(#clip-path-18)}.cls-51{fill:url(#linear-gradient-13)}.cls-52{clip-path:url(#clip-path-19)}.cls-53{fill:url(#linear-gradient-14)}.cls-54{clip-path:url(#clip-path-20)}.cls-55{fill:url(#linear-gradient-15)}.cls-56{clip-path:url(#clip-path-21)}.cls-57{fill:url(#linear-gradient-16)}.cls-58{clip-path:url(#clip-path-22)}.cls-59{fill:url(#linear-gradient-17)}.cls-60{clip-path:url(#clip-path-23)}.cls-61{fill:url(#linear-gradient-18)}.cls-62{clip-path:url(#clip-path-24)}.cls-63{fill:url(#radial-gradient-4)}.cls-64{clip-path:url(#clip-path-25)}.cls-65{fill:url(#linear-gradient-19)}.cls-66{fill:#7f7e7c}.cls-67{fill:#3f9cd5}.cls-68{fill:#eeb744}.cls-69{fill:#000010}.cls-70{fill:#4ea264}.cls-71{fill:#d24a48}</style><clipPath id="clip-path"><path class="cls-1" d="M15.46 40.56A21 21 0 0 1 18 40.2a48.62 48.62 0 0 1 5.67-1.33v-.22a12.83 12.83 0 0 0-1.31-.06 39.75 39.75 0 0 0-6.91 2"/></clipPath><clipPath id="clip-path-2"><path class="cls-1" d="M20.55 27.81a6.86 6.86 0 0 0-2.06.68 4.65 4.65 0 0 0-1.9 1.77 1.63 1.63 0 0 0-.08.16l.07.25a6.8 6.8 0 0 0 4.36 4.14l.38.12h.06l4.42-4.36a2.77 2.77 0 0 1 .18-.21 2.58 2.58 0 0 0 0-.72 6.72 6.72 0 0 0-4.5-1.95 5.41 5.41 0 0 0-1 .09"/></clipPath><radialGradient id="radial-gradient" cx="-605.57" cy="438.45" r="1" gradientTransform="matrix(7.08 0 0 7.08 4308.98 -3071.56)" gradientUnits="userSpaceOnUse"><stop offset="0" stop-color="#454748"/><stop offset=".41" stop-color="#303535"/><stop offset="1" stop-color="#0c1414"/></radialGradient><clipPath id="clip-path-3"><path class="cls-1" d="M19 22.27zM32 7.7a19.63 19.63 0 0 0-9 4.11 10.65 10.65 0 0 0-4 10.45c0-.09-.61-6.18 4.05-6.87a2.45 2.45 0 0 1 .39 0c2.59 0 2.92 4.11 2.92 4.11.66-3.55 4.31-4.92 4.31-4.92a6.74 6.74 0 0 1 2.33-.41c5.27 0 11.94 5.41 13.09 15 0 .29.06.59.09.89l.08-.09a22.78 22.78 0 0 0 2.57-4.89s0-.13.09-.37a14.47 14.47 0 0 0-1.76-10.3c-.22-.36-.46-.72-.72-1.07a13.91 13.91 0 0 0-9.21-5.63h-.07A16.32 16.32 0 0 0 32 7.7"/></clipPath><linearGradient id="linear-gradient" x1="-605.57" y1="438.45" x2="-604.57" y2="438.45" gradientTransform="translate(18385.06 -13278.82) scale(30.33)" gradientUnits="userSpaceOnUse"><stop offset="0" stop-color="#cfcfd1"/><stop offset=".16" stop-color="#c0c0c2"/><stop offset=".46" stop-color="#98999b"/><stop offset=".88" stop-color="#595a5b"/><stop offset="1" stop-color="#454748"/></linearGradient><clipPath id="clip-path-4"><path class="cls-1" d="M39.48 1.54c-2 2.45-2.55 8.95-2.55 8.95a20.13 20.13 0 0 1 8.39 6.69l.94-2.07a17 17 0 0 0-.66-10.55C44.35 1.32 43.1 0 41.87 0a3.36 3.36 0 0 0-2.39 1.54"/></clipPath><linearGradient id="linear-gradient-2" x1="-605.57" y1="438.45" x2="-604.57" y2="438.45" gradientTransform="matrix(9.9 0 0 9.9 6034.74 -4333.99)" xlink:href="#linear-gradient"/><clipPath id="clip-path-5"><path class="cls-1" d="M44.6 60.08a4.64 4.64 0 0 0 2-.73 5.07 5.07 0 0 1-2 .73m-3.55-2a12.15 12.15 0 0 0 1.38 1.06 32.69 32.69 0 0 1-2.57-2.3l-.18-.17a14 14 0 0 0 1.32 1.4m-5.84-10.4a23.68 23.68 0 0 0 1.09 3.28 25.68 25.68 0 0 1-1.07-4.71zM34.83 46H35zm8.45-4A18.82 18.82 0 0 1 36 45.77c1 8.12 6.13 12.88 8 13.45a2.88 2.88 0 0 0 .84.12 5.88 5.88 0 0 0 2.33-.59 9.4 9.4 0 0 0 .83-.45 22.67 22.67 0 0 0 2.41-2.3l3.39-4.27.17-.17c.07-.08.15-.17.24-.29.43-.59.83-1.66-.68-2.67l-.29-.19-.64-.41-.35-.21c-2.56-1.5-6.69-3.72-8.62-6l-.35.28"/></clipPath><linearGradient id="linear-gradient-3" x1="-605.57" y1="438.45" x2="-604.57" y2="438.45" gradientTransform="translate(12182.39 -8744.45) scale(20.06)" gradientUnits="userSpaceOnUse"><stop offset="0" stop-color="#4a82c4"/><stop offset=".17" stop-color="#4a82c4"/><stop offset=".69" stop-color="#42a5e3"/><stop offset="1" stop-color="#3eb5f1"/></linearGradient><clipPath id="clip-path-6"><path class="cls-1" d="M31.93 45.62h-1.15l.61.12 3.36.31h.09L35 46c.07-.19.13-.35.18-.47v-.23a15.15 15.15 0 0 1-3.18.34m-7.32-7.86a7.87 7.87 0 0 0-.17 1A6 6 0 0 0 28.07 45h.17a10.47 10.47 0 0 0 2 .2A5.93 5.93 0 0 0 35 43.35v-1.09a12.79 12.79 0 0 1 0-1.42 5.06 5.06 0 0 1-1.84.37 3.85 3.85 0 0 1-2-.52 4.7 4.7 0 0 1-1 .11 5.57 5.57 0 0 1-1.07-.11l-.25-.05-.48-.14a4.92 4.92 0 0 1-2.22-1.41 4.58 4.58 0 0 1-.87-1.46 4 4 0 0 1-.27-1.05 6.45 6.45 0 0 0-.37 1.18m22-8.09c-.77 3.21-3.88 6.53-4.9 7.55a32.91 32.91 0 0 0 1.93 4.46 17.63 17.63 0 0 1-3.28-4.87L36 39.43l-.15 2.33a23.77 23.77 0 0 0 .14 4A18.82 18.82 0 0 0 43.28 42l.35-.28c1.31-1.08 5.87-5.2 5.5-9.49a5.89 5.89 0 0 0-.11-.7s-.6-2.11-1.83-2.82a10.59 10.59 0 0 1-.59.91"/></clipPath><linearGradient id="linear-gradient-4" x1="-605.57" y1="438.45" x2="-604.57" y2="438.45" gradientTransform="translate(14994.88 -10801.67) scale(24.72)" xlink:href="#linear-gradient-3"/><clipPath id="clip-path-7"><path class="cls-1" d="M35.24 61l.32.09a12.08 12.08 0 0 0 1.56-.92 9.22 9.22 0 0 1-1.88.84m3.48-2.55a2.67 2.67 0 0 1-.53.85 2.48 2.48 0 0 0 .34-.38c.4-.58.19-.93 0-1.08.26.42.16.61.16.61M27 46.94c-.07.17-.14.35-.2.53l-.12.34a21.23 21.23 0 0 0-.76 7.05v.36c.08 1.69.26 3.11.35 3.88a4.59 4.59 0 0 0 .44 1.63 7.93 7.93 0 0 1 3.12-.54 21.11 21.11 0 0 1 4.6.6c-2.1-6.39-.28-12.63.49-14.77h-.19l-3.36-.31-.61-.12a10.37 10.37 0 0 1-2.7-.54h.17-.17A8.88 8.88 0 0 0 27 46.94"/></clipPath><linearGradient id="linear-gradient-5" x1="-605.57" y1="438.45" x2="-604.57" y2="438.45" gradientTransform="matrix(-7.49 0 0 -7.49 -4493.59 3336.13)" xlink:href="#linear-gradient-3"/><clipPath id="clip-path-8"><path class="cls-1" d="M46.56 29.63a18.78 18.78 0 0 1-2.31 2.71l-.66.6h.09a21.55 21.55 0 0 0 2.91-3.27v-.09z"/></clipPath><clipPath id="clip-path-9"><path class="cls-1" d="M46.17 30.08v.03l.07-.12-.07.09z"/></clipPath><linearGradient id="linear-gradient-6" x1="-605.57" y1="438.45" x2="-604.57" y2="438.45" gradientTransform="translate(16182.5 -11670.53) scale(26.69)" gradientUnits="userSpaceOnUse"><stop offset="0" stop-color="#bec0c1"/><stop offset=".18" stop-color="#afb0b1"/><stop offset=".52" stop-color="#868889"/><stop offset=".98" stop-color="#464748"/><stop offset="1" stop-color="#434445"/></linearGradient><clipPath id="clip-path-10"><path class="cls-1" d="M35.23 45.93v.31a25.68 25.68 0 0 0 1.07 4.71 21.53 21.53 0 0 0 3.38 5.72l.18.17a32.69 32.69 0 0 0 2.57 2.3 10.5 10.5 0 0 0 1.73.92 1 1 0 0 0 .29 0h.15a5.07 5.07 0 0 0 2-.73c.2-.12.42-.26.65-.42s.52-.39.81-.62a9.4 9.4 0 0 1-.85.45 5.88 5.88 0 0 1-2.33.59 2.88 2.88 0 0 1-.84-.12c-1.89-.58-7-5.34-8-13.45l-.75.16m3.62-9.64l-1.48.83-1.23.69a27.43 27.43 0 0 0 4.78-2.66z"/></clipPath><linearGradient id="linear-gradient-7" x1="-605.57" y1="438.45" x2="-604.57" y2="438.45" gradientTransform="translate(12175.52 -8742.77) scale(20.05)" gradientUnits="userSpaceOnUse"><stop offset="0" stop-color="#4b7eb6"/><stop offset=".17" stop-color="#4b7eb6"/><stop offset=".66" stop-color="#469bce"/><stop offset="1" stop-color="#43abdb"/></linearGradient><clipPath id="clip-path-11"><path class="cls-1" d="M43.68 32.93a25 25 0 0 1-2.77 2.22 27.43 27.43 0 0 1-4.78 2.66l-.93.38-1 .38-.06.09a5.06 5.06 0 0 1-3 2 3.85 3.85 0 0 0 2 .52 5.06 5.06 0 0 0 1.86-.33 12.79 12.79 0 0 0 0 1.42v1.09a5.93 5.93 0 0 1-4.73 1.91 10.47 10.47 0 0 1-2-.2l2.54.51h1.15a15.15 15.15 0 0 0 3.18-.34v.23l.1-.25v.68l.75-.16a23.77 23.77 0 0 1-.14-4l.15-2.31 4.36-2.63a17.63 17.63 0 0 0 3.28 4.87 32.91 32.91 0 0 1-1.93-4.46c1-1 4.13-4.34 4.9-7.55a21.55 21.55 0 0 1-2.91 3.27"/></clipPath><linearGradient id="linear-gradient-8" x1="-605.57" y1="438.45" x2="-604.57" y2="438.45" gradientTransform="translate(14997.17 -10802.91) scale(24.73)" xlink:href="#linear-gradient-7"/><clipPath id="clip-path-12"><path class="cls-1" d="M28.08 45a10.41 10.41 0 0 0 2.7.54l-2.54-.51z"/></clipPath><linearGradient id="linear-gradient-9" x1="-605.57" y1="438.45" x2="-604.57" y2="438.45" gradientTransform="matrix(-7.49 0 0 -7.49 -4503.83 3329.88)" xlink:href="#linear-gradient-7"/><clipPath id="clip-path-13"><path class="cls-1" d="M30.74 22.76a1.6 1.6 0 0 1-1.16-.67 2.6 2.6 0 0 1 .42-2.68 2.74 2.74 0 0 1 2.25-1.28 1.74 1.74 0 0 1 1.36.57 2 2 0 0 1 .14 2.84A3.8 3.8 0 0 1 31 22.78h-.27m.81-5.59a4.07 4.07 0 0 0-2 2 4.76 4.76 0 0 0-.37 2.56 3.15 3.15 0 0 0 2.61 1.5 4.8 4.8 0 0 0 4-2.83c.27-1.19-.88-3.57-2.91-3.57a3.15 3.15 0 0 0-1.41.36"/></clipPath><linearGradient id="linear-gradient-10" x1="-605.57" y1="438.45" x2="-604.57" y2="438.45" gradientTransform="matrix(6.73 0 0 6.73 4102.57 -2929.22)" gradientUnits="userSpaceOnUse"><stop offset="0" stop-color="#fff"/><stop offset=".37" stop-color="#f0f1f2"/><stop offset="1" stop-color="#ced0d2"/></linearGradient><clipPath id="clip-path-14"><path class="cls-1" d="M31.57 19.12a1.39 1.39 0 1 0 .39-.05 1.46 1.46 0 0 0-.39.05"/></clipPath><radialGradient id="radial-gradient-2" cx="-605.57" cy="438.45" r="1" gradientTransform="matrix(1.39 0 0 1.39 875.45 -590.25)" gradientUnits="userSpaceOnUse"><stop offset="0" stop-color="#bee2fa"/><stop offset=".34" stop-color="#b0dcf9"/><stop offset=".98" stop-color="#8accf6"/><stop offset="1" stop-color="#89cbf6"/></radialGradient><clipPath id="clip-path-15"><path class="cls-1" d="M21.19 21.87a1.75 1.75 0 0 1 0-2.46 1.52 1.52 0 0 1 1.23-.54 2.39 2.39 0 0 1 1.91 1 2.25 2.25 0 0 1 .41 2.31 1.4 1.4 0 0 1-1 .61 1.46 1.46 0 0 1-.3 0 3.3 3.3 0 0 1-2.3-1m.47-3.57a2.64 2.64 0 0 0-.43 4.78 3.29 3.29 0 0 0 1.93.63 1.86 1.86 0 0 0 2-2.28s-1-3.19-2.76-3.19a1.69 1.69 0 0 0-.73.18"/></clipPath><linearGradient id="linear-gradient-11" x1="-605.57" y1="438.45" x2="-604.57" y2="438.45" gradientTransform="matrix(5.19 0 0 5.19 3165.89 -2256.86)" gradientUnits="userSpaceOnUse"><stop offset="0" stop-color="#ced0d2"/><stop offset=".63" stop-color="#f0f1f2"/><stop offset="1" stop-color="#fff"/></linearGradient><clipPath id="clip-path-16"><path class="cls-1" d="M22.62 19.67a1.21 1.21 0 0 0 .13 2.41h.14a1.21 1.21 0 0 0-.13-2.41z"/></clipPath><radialGradient id="radial-gradient-3" cx="-605.57" cy="438.45" r="1" gradientTransform="matrix(1.21 0 0 1.21 755.85 -509.92)" xlink:href="#radial-gradient-2"/><clipPath id="clip-path-17"><path class="cls-1" d="M35 46v.78c.06.3.14.6.22.91v-1.43-.3z"/></clipPath><linearGradient id="linear-gradient-12" x1="-605.57" y1="438.45" x2="-604.57" y2="438.45" gradientTransform="translate(12184.81 -8750.33) scale(20.06)" xlink:href="#linear-gradient-7"/><clipPath id="clip-path-18"><path class="cls-1" d="M35 46h.23v-.43c0 .12-.11.28-.18.47"/></clipPath><linearGradient id="linear-gradient-13" x1="-605.57" y1="438.45" x2="-604.57" y2="438.45" gradientTransform="translate(14581.56 -10493.83) scale(24.04)" xlink:href="#linear-gradient-7"/><clipPath id="clip-path-19"><path class="cls-1" d="M34.45 60.79l.79.19a9.22 9.22 0 0 0 1.88-.84l.4-.29a7.91 7.91 0 0 0 .67-.57 2.67 2.67 0 0 0 .53-.85s.1-.19-.16-.61l-.12-.1s-1.35-.89-2.48-4.28a23.06 23.06 0 0 1-1-6.69v-.73h-.05c-.77 2.14-2.59 8.38-.49 14.77"/></clipPath><linearGradient id="linear-gradient-14" x1="-605.57" y1="438.45" x2="-604.57" y2="438.45" gradientTransform="matrix(-7.48 0 0 -7.48 -4489.28 3334.93)" xlink:href="#linear-gradient-7"/><clipPath id="clip-path-20"><path class="cls-1" d="M35.19 45.94v.3-.31z"/></clipPath><linearGradient id="linear-gradient-15" x1="-605.57" y1="438.45" x2="-604.57" y2="438.45" gradientTransform="translate(9644.44 -6911.62) scale(15.87)" gradientUnits="userSpaceOnUse"><stop offset="0" stop-color="#4c7bac"/><stop offset=".17" stop-color="#4c7bac"/><stop offset=".58" stop-color="#4991bd"/><stop offset="1" stop-color="#46a4cc"/></linearGradient><clipPath id="clip-path-21"><path class="cls-1" d="M35.14 45.5v.43-.68l-.1.25"/></clipPath><linearGradient id="linear-gradient-16" x1="-605.57" y1="438.45" x2="-604.57" y2="438.45" gradientTransform="translate(17309 -12470.16) scale(28.55)" xlink:href="#linear-gradient-15"/><clipPath id="clip-path-22"><path class="cls-1" d="M26.73 60.73c.37.7.82.76.82.76a8.41 8.41 0 0 0 3.45.73 10.3 10.3 0 0 0 4.57-1.14l-.33-.08c-.4.13-.66.19-.66.19l-.13-.38a21.11 21.11 0 0 0-4.6-.6 7.93 7.93 0 0 0-3.12.54"/></clipPath><linearGradient id="linear-gradient-17" x1="-605.57" y1="438.45" x2="-604.57" y2="438.45" gradientTransform="matrix(-7.49 0 0 -7.49 -4486.6 3343.86)" xlink:href="#linear-gradient-7"/><clipPath id="clip-path-23"><path class="cls-1" d="M34.58 61.17s.26-.06.66-.19l-.79-.19.13.38"/></clipPath><linearGradient id="linear-gradient-18" x1="-605.57" y1="438.45" x2="-604.57" y2="438.45" gradientTransform="matrix(-7.47 0 0 -7.47 -4474.08 3335.46)" xlink:href="#linear-gradient-15"/><clipPath id="clip-path-24"><path class="cls-1" d="M25.81 30.6L21.38 35c3.61-1.5 4.43-3.51 4.61-4.57a2.77 2.77 0 0 0-.18.21"/></clipPath><radialGradient id="radial-gradient-4" cx="-605.57" cy="438.45" r="1" gradientTransform="matrix(7.06 0 0 7.06 4300.11 -3065.14)" gradientUnits="userSpaceOnUse"><stop offset="0" stop-color="#434445"/><stop offset=".4" stop-color="#2e3333"/><stop offset="1" stop-color="#081312"/></radialGradient><clipPath id="clip-path-25"><path class="cls-1" d="M28.8 40.64l.25.05z"/></clipPath><linearGradient id="linear-gradient-19" x1="-605.57" y1="438.45" x2="-604.57" y2="438.45" gradientTransform="translate(15076.36 -10857.35) scale(24.86)" xlink:href="#linear-gradient-7"/></defs><title>dog_sport_snowboard</title><g id="Слой_2" data-name="Слой 2"><g id="Layer_1" data-name="Layer 1"><path class="cls-2" d="M62 24.5c-1 0-2.18 1.22-2.35 3.46 0 0-6.19.66-10.64 3.61a5.87 5.87 0 0 1 .11.7 18.59 18.59 0 0 1 10.81-3.75h.2a11.25 11.25 0 0 1 .38-2.58 1.68 1.68 0 0 1 1.42-.94 1.25 1.25 0 0 1 .53.11c.82.44.19 3.12.19 3.12l.69-.36s1.75-1.57 2.85-1.57a.76.76 0 0 1 .67.33c.54.79-.7 2.75-.7 2.75a14 14 0 0 1 2-.2 2.15 2.15 0 0 1 1.09.2c.63.44.44 1.44 0 2.07s-3.71.88-3.71.88a6.38 6.38 0 0 1 1.57 2.57c.17.88-.57 1.7-1.76 1.76h-.1a6.18 6.18 0 0 1-2.73-1.07c-10.43.82-13.12 5.59-13.12 5.59l1.17 2.73.05.11A30.73 30.73 0 0 1 52.6 48l.66.4c-1-2.47-2-4.26-3-6.61a1.28 1.28 0 0 1-.05-.3 19.15 19.15 0 0 1 12.64-5.33 3.27 3.27 0 0 0 1.77.94 4.81 4.81 0 0 0 .8.07 2.44 2.44 0 0 0 2.18-.91c.75-1.32-.86-3.4-1.28-3.63 0 0 3.07-.14 3.44-1s.57-2.45-.47-2.64a10.58 10.58 0 0 0-1.78-.13H67a3.58 3.58 0 0 0 .48-2.42c-.1-.44-.48-.64-1-.64a5.17 5.17 0 0 0-3.29 1.73 2.93 2.93 0 0 0-.52-2.78 1 1 0 0 0-.67-.25M25.26 37.62a4.59 4.59 0 0 0 .87 1.46 5.2 5.2 0 0 1-.84-1.47m-.65.13a44.71 44.71 0 0 0-5.27 1.09c.5-.09 1-.15 1.42-.19 1.72-.4 2.94-.58 3-.58v.26s-.55.08-1.39.25a12.41 12.41 0 0 1 1.31.06v.22l.7-.11a8.13 8.13 0 0 1 .17-1m9.39 1l-.16.07a4.53 4.53 0 0 1-3.21 1.79 6.2 6.2 0 0 1-1.14.11h-.41a5.51 5.51 0 0 0 1.07.11 4.65 4.65 0 0 0 1-.11l-.08-.05A4.56 4.56 0 0 0 34 38.72M18 40.2a20.71 20.71 0 0 0-2.57.36 18 18 0 0 0-3.07 1.55h-1c-1.17 0-2.71.12-3.16.62a2 2 0 0 0-.58 1.46 1.42 1.42 0 0 0 .57 1l1-.2.29-.06v.14c.6-.19 1-.31 1-.31h-.37c-.52 0-1.45-.05-1.76-.41s.06-1.19.06-1.19a5 5 0 0 1 2.78-.56c.76 0 1.37.06 1.37.06A19 19 0 0 1 18 40.2m-2.68 0q-.57.26-1.1.55l.73-.32.38-.22m13 .25l.48.14-.48-.09m-18.2 1.33a3.15 3.15 0 0 0-2.13.62 4.65 4.65 0 0 1 2.49-.61h-.36m-2.22.7a2.21 2.21 0 0 0-.31.42 3.24 3.24 0 0 1 .31-.42m17 2.39a12.48 12.48 0 0 0-10.33 5.82c-1 1.76-1.93 3.18-2.87 3.18h-.2a1.7 1.7 0 0 0 1.63-.33 7.26 7.26 0 0 0 .68-1 13.6 13.6 0 0 0 .64-1.3c0-.07 3.2-6 10-6h1v.26h.22c-.11-.22-.2-.44-.3-.65h-.39m.69 0l.31.67v.12c.26.54.55 1.12.88 1.72.06-.18.13-.35.2-.52l-1.16-2h-.29m-17.71.35s-2.22.37-2.49 1.58c.28-.74 1.47-1.26 2.49-1.58m.41.16c-1 .29-2.37.79-2.65 1.52a1.58 1.58 0 0 0 .05 1.4 2 2 0 0 0 1.52.88l.62.09-.6.17a3.74 3.74 0 0 0 1 .15 3.53 3.53 0 0 0 2.28-.83 8.71 8.71 0 0 1-1.89.22A4.31 4.31 0 0 1 7 48.8c-1.38-.57-1-1.7-.57-2.39a4.63 4.63 0 0 1 1.82-1m15.75.12a10.67 10.67 0 0 0-6.61 2.62A11.48 11.48 0 0 1 24 45.53M5.36 46.88a1.55 1.55 0 0 0-.11.36 2.69 2.69 0 0 1 .11-.36m29.85.8c-.22 5.43 2 8.7 2.85 9.55a3.28 3.28 0 0 1 .5.61c.16.15.37.51 0 1.08a2.55 2.55 0 0 1-.34.38 4.39 4.39 0 0 1-.75.65c-.4.43-.79.9-1.14 1.36l.25.08L35 63.86h-.8c-1.55 0-4.89.32-6.07 3 0 0 2.07 6.88.28 12l-1.51.57h1.12a1.2 1.2 0 0 0 .61-.82A18.37 18.37 0 0 0 28.47 67s.72-2.79 5.24-2.79h1.06a15.82 15.82 0 0 0-1.17 3.48 24 24 0 0 0 13.3 4.7L44 75.31l-2.41.56a9.65 9.65 0 0 0-.13 1.27l-1.25.74s0 .48.08 1c1.18-.12 2.33-.28 3.43-.46l-1.47.17a5.33 5.33 0 0 1-.19-2.45l2.22-.66s2.92-2.39 3.42-2.89c.33-.33.06-.39-.17-.39h-.21c-7.1-.44-13.07-4.77-13.07-4.77.82-4.52 5.28-8.54 5.28-8.54l1.47-.82a13.91 13.91 0 0 1-1.37-1.41 14.19 14.19 0 0 1-3.37-5.72 23.52 23.52 0 0 1-1.09-3.28M7.11 49.54a1.4 1.4 0 0 0-.94 1.13 1.13 1.13 0 0 0 .23.92 2.35 2.35 0 0 0 1.75.48 5.76 5.76 0 0 0 2.75-.68l.27-.17-.07.31a6.22 6.22 0 0 0-.1 1.83.6.6 0 0 0 .32.47c-.71-.52 0-3 0-3A5 5 0 0 1 8 52h-.19c-1.25 0-1.37-.82-1.37-.82-.39-.73.48-1.5.66-1.65m-.86.28a1.58 1.58 0 0 0-.4 1.46 1.15 1.15 0 0 0 .63.71 1.34 1.34 0 0 1-.28-.23 1.39 1.39 0 0 1-.3-1.13 1.49 1.49 0 0 1 .35-.82m48 1.4a3.18 3.18 0 0 1-.23.29 16.21 16.21 0 0 1 .29 2.79 12.91 12.91 0 0 1 0 2.93 7.81 7.81 0 0 1-.15.86 5.83 5.83 0 0 0 4.2 2.52h.2c2.53 0 2.63-1.75 2.07-2.89a2.86 2.86 0 0 0-2-1.26h-.27l-.1.16h-.35c-2.44 0-1.69-2.76-1.69-2.76a5.22 5.22 0 0 1 3.79-1.5 7.9 7.9 0 0 1 4.08 1.3h-.26a4.69 4.69 0 0 1 .89.84 5.75 5.75 0 0 1 0 7 6.06 6.06 0 0 1-5.39 2.91 10.3 10.3 0 0 1-1.3-.09A6.33 6.33 0 0 1 53 61c.18-.39.34-.78.5-1.17a14.49 14.49 0 0 1-5.21 5.55 11.82 11.82 0 0 0 4.48-3.92 8.82 8.82 0 0 0 6.45 3.4h.62c4 0 5.85-3.23 6.27-6.34a5.61 5.61 0 0 0-5.9-6.47c-4.14 0-4.59 1.95-4.46 2.83a2 2 0 0 0 2.14 1.92h.56a1.83 1.83 0 0 1 1.95 2.43 2.47 2.47 0 0 1-2.14.88 4.26 4.26 0 0 1-1.76-.38 5.24 5.24 0 0 1-2.24-2.15 11.89 11.89 0 0 0 0-6.35m-43.44.53a6.15 6.15 0 0 1-2.64.59 4.84 4.84 0 0 1-1-.09 5 5 0 0 0 1.18.13 4.6 4.6 0 0 0 2.45-.64m0 0S10 53.23 11 54a.84.84 0 0 1-.32-.57 6 6 0 0 1 .08-1.64m.6 2.41a1.34 1.34 0 0 0 .5.1H12a1.8 1.8 0 0 1-.59-.1m14.55.7a7.63 7.63 0 0 0-3.22 1.32s-2.07 1-2.36 4.33a26.84 26.84 0 0 0 1.23 9.14l1 3.3-2.29 1-2.58-.81-.56 1.14-1.34.53a6.44 6.44 0 0 0-.15 2.4c.23.84 1.55 1.4 2.11 1.59a4.22 4.22 0 0 0 .58.09c1.37.13 3.09.26 5 .35-1.4-.28-2.76-.94-3.06-2.43a2.48 2.48 0 0 1 .24-1.64h.71a11 11 0 0 0 2.64-.21c.63-.25-.31-.52-.31-.52l-3.31.26-.14-.23a6.83 6.83 0 0 1 3.34-.9s-3.21-11.3-2.26-14.38c.89-2.91 4.29-3.91 4.67-4v-.35M54.64 72l-.14 2.85a9.32 9.32 0 0 0 .31-2.54.74.74 0 0 0-.17-.31m-7.11 3.34l-3.25 1.09v1.89a31.54 31.54 0 0 0 4.31-1.05c-2.17.6-3.88.95-3.88.95a1.45 1.45 0 0 1 1.23-2z"/><path class="cls-3" d="M39.54 58.91s-4.46 4-5.28 8.54c0 0 6 4.33 13.06 4.77 0 0 .88-.13.38.38s-3.42 2.89-3.42 2.89l-2.21.66a5.31 5.31 0 0 0 .19 2.45l2.07-.24v-1.93l3.25-1.08-1.55.9a1.45 1.45 0 0 0-1.23 2 53.93 53.93 0 0 0 9.33-2.83 7.6 7.6 0 0 0 .24-3.06 27.26 27.26 0 0 0-8.71-5.61s-.85 0 .23-.52A16 16 0 0 0 54.24 56a17 17 0 0 0-.38-5.09z"/><path class="cls-4" d="M50.64 43.93c.55 1.3 1.18 2.79 1.6 3.82l.36.21A30.5 30.5 0 0 0 50.69 44z"/><path class="cls-5" d="M54.12 58.09c-.17.58-.38 1.15-.61 1.73a8.3 8.3 0 0 0 .61-1.73m-5.82 7.28a21.42 21.42 0 0 1-2.44 1.18c2.26.37 7.72 4.16 8.78 5.46v-.27s-4.86-4-8.46-5.18a17.09 17.09 0 0 0 2.11-1.19m6.21 9.48c0 .19-.08.35-.1.45h.09z"/><path class="cls-4" d="M54.28 54.3a16.83 16.83 0 0 1 0 1.73 16 16 0 0 1-8.4 10.19c-1.08.52-.23.52-.23.52a27.33 27.33 0 0 1 8.71 5.6 7.63 7.63 0 0 1-.24 3.06l.34-.11c0-.1.06-.26.1-.45l.08-2.84c-1.06-1.31-6.52-5.09-8.78-5.46a21.12 21.12 0 0 0 2.44-1.18 14.48 14.48 0 0 0 5.22-5.55c.23-.58.44-1.15.61-1.73a7.68 7.68 0 0 0 .15-.85 13 13 0 0 0 0-2.94"/><path class="cls-5" d="M53.82 51.67L50.41 56A22.56 22.56 0 0 1 48 58.3l.25-.15-.24.19c-.24.19-.52.4-.82.6a25.36 25.36 0 0 1-5.36 8.83s7.35 1.89 9 4.52l-2.45 4.9 1.38-.34c1.51-.55 2.92-1 4.24-1.45a7.65 7.65 0 0 0 .24-3.06 27.34 27.34 0 0 0-8.71-5.61s-.85 0 .23-.52A16 16 0 0 0 54.24 56a16.84 16.84 0 0 0 0-1.73 19 19 0 0 0-.46-2.62"/><path class="cls-3" d="M26 55.21s-3.77.94-4.71 4 2.26 14.38 2.26 14.38a6.87 6.87 0 0 0-3.38.9l.14.23 3.31-.26s.94.27.31.52a16.49 16.49 0 0 1-3.27.19 2.51 2.51 0 0 0 .06 2.45c.76 1.32 6.91 1.3 6.91 1.3s2.6-3.81.1-12.09a2.88 2.88 0 0 1 1.6-2.28c1.6-.94 5.57-1.25 5.57-1.25a22.11 22.11 0 0 1 3.66-4.4zM69.31 29.39c-.63-.44-3.14 0-3.14 0s1.24-2 .7-2.74c-.82-1.19-3.52 1.24-3.52 1.24l-.69.36s.63-2.68-.19-3.12c0 0-1.07-.57-1.95.82a11.25 11.25 0 0 0-.38 2.58A18.49 18.49 0 0 0 49 32.35l-1.7 3-.1-.35-5.09 7.16s11.12 8 10.42 6.28-3.07-7.29-3.07-7.29 2.7-4.77 13.13-5.59a6 6 0 0 0 2.83 1.07c1.19-.06 1.93-.88 1.76-1.76a6.39 6.39 0 0 0-1.57-2.57s3.26-.25 3.71-.88.63-1.63 0-2.07"/><path class="cls-2" d="M44.25 32.35a37.08 37.08 0 0 1-10.41 6.43 4.5 4.5 0 0 1-3.53 1.83 4.67 4.67 0 0 1-5.34-4c-6-1-8.58-5.08-8.53-6a5 5 0 0 1 1.26-2.24c-.17-1.58 1.3-3.94 1.3-3.94-2-6.31 2.23-11.56 2.23-11.56C21.52 6 26-.43 27.8.32S30.18 8 30.18 8a22.83 22.83 0 0 1 7-.25s1-6.19 3.81-7.55 7 7.43 5.74 13.33c0 0 3 6.53 2 12.18a21.45 21.45 0 0 1-4.52 6.66"/><path class="cls-3" d="M18.25 27.89a9.37 9.37 0 0 1 1.29-3.16 12.28 12.28 0 0 1 .6-8.89s3.45-8.6 17-7.72c0 0 11.84 1.07 11.27 17 0 0-1.93 7.2-14.24 12.72a5.62 5.62 0 0 1-4.5 2.5c-2.89-.06-4-3-4.27-4 0 0-7.35-1.38-8.48-5.72 0 0-.19-1.19 1.32-2.7"/><path class="cls-2" d="M16.53 30.22s1.59-3.94 9.35-6.13c0 0 8.55.56 10 6.67a14.31 14.31 0 0 1-2.57 8.47 15.42 15.42 0 0 0 2-8.26s-1.14-5.51-9.62-6.62c0 0-7.78 3-8.85 6.24z"/><path class="cls-3" d="M26.4 10.15s1.3-4.6.86-6.91-2.91.81-3.69 2.31a20.65 20.65 0 0 0-1.9 7.74s1.14-1.52 4.73-3.14"/><path class="cls-5" d="M25.57 10.56s.86-4 .24-5.36c0 0-2.83.28-3.9 7.84a13.49 13.49 0 0 1 3.65-2.48"/><path class="cls-2" d="M35.38 56.6c-7.51-3-11.16-14.29-11.19-14.4l.25-.08c0 .11 3.65 11.28 11 14.23z"/><path class="cls-2" d="M12 54.26a1.79 1.79 0 0 1-.6-.1.93.93 0 0 1-.68-.77 6 6 0 0 1 .08-1.64 6.14 6.14 0 0 1-2.64.59 2.56 2.56 0 0 1-1.95-.57 1.41 1.41 0 0 1-.3-1.13 1.56 1.56 0 0 1 .83-1.21 2.12 2.12 0 0 1-1.29-.92 1.84 1.84 0 0 1-.07-1.64c.28-.74 1.47-1.26 2.49-1.58a1.66 1.66 0 0 1-.58-1.09 2.23 2.23 0 0 1 .65-1.66c.78-.88 3.94-.71 4.37-.68 4.21-2.72 11.37-3.78 11.44-3.79v.26c-.07 0-7.22 1.07-11.37 3.77-1-.07-3.59-.09-4.2.59a2 2 0 0 0-.58 1.46 1.41 1.41 0 0 0 .57 1l1-.2.29-.06v.26h-.22C8.51 45.36 6 46 5.61 47a1.57 1.57 0 0 0 0 1.4 2 2 0 0 0 1.52.88l.62.09-.6.17a1.44 1.44 0 0 0-1 1.16 1.15 1.15 0 0 0 .23.92 2.35 2.35 0 0 0 1.75.48 5.78 5.78 0 0 0 2.75-.68l.27-.17-.07.31a6.25 6.25 0 0 0-.08 1.8.68.68 0 0 0 .51.55 1.69 1.69 0 0 0 1.63-.33 8.88 8.88 0 0 0 1.32-2.27c0-.08 3.5-6.6 10.95-6v.27c-7.32-.58-10.71 5.77-10.75 5.83a9 9 0 0 1-1.37 2.35 1.9 1.9 0 0 1-1.31.49"/><path class="cls-6" d="M.06 82.43a4.85 4.85 0 0 1 2.21-4.12c3.46-2.69 9.19-.51 13.68.29s24 1.83 33.22-1.51 14.54-4.48 18.54-3.82c0 0 4.46 1 5 4.09L52 86.13z"/><path class="cls-7" d="M.25 81a6.38 6.38 0 0 1 5-3.08c3.47-.26 6.86 1.11 9.84 1.75s14.74 2.08 20.21 1.73a63.53 63.53 0 0 0 17.05-3.7c5.2-1.94 12.74-4 15.91-3.23s5.12 2.24 4.52 5c0 0-1.26 5.18-8.6 8.62s-24.11 7.17-37.73 6.18S-2.12 86.85.25 81"/><path class="cls-2" d="M8.81 45.12l.05.26 1.71-.38-.05-.26-1.71.38zM8.12 49.57a7.38 7.38 0 0 1-1-.06v-.26a6.61 6.61 0 0 0 3.31-.41l.12.24a5.79 5.79 0 0 1-2.49.49M24.47 36.43c-.06 0-6.14-.72-7.49-5.38l.25-.07c1.3 4.49 7.2 5.19 7.26 5.19zM61.23 29.7a1.92 1.92 0 0 1 2.21-.12 3.41 3.41 0 0 1 .88 3.75 1.63 1.63 0 0 1-2.85-.22c-.42-1.17-.7-3.06-.23-3.41M64.71 35.36s.38-.69 1-.6a.68.68 0 0 1 .46 1.11c-.36.44-1.54.2-1.41-.52M68 30a.69.69 0 0 1 .51.07.91.91 0 0 1 0 1 .56.56 0 0 1-.93-.43c0-.6.39-.63.39-.63M66.66 27.16a.71.71 0 0 1-.27.47 1 1 0 0 1-1-.37.59.59 0 0 1 .79-.73c.58.25.47.64.47.64M62.27 25.93a.73.73 0 0 1-.1.53 1 1 0 0 1-1.06 0 .59.59 0 0 1 .5-1c.63 0 .65.44.65.44"/><g class="cls-8"><path class="cls-4" d="M15.46 38.58h8.24v1.98h-8.24z"/></g><path class="cls-5" d="M19.34 38.85a12.68 12.68 0 0 0-4 1.4 27.66 27.66 0 0 1 4-1.4"/><path class="cls-4" d="M20.76 38.65c-.45 0-.92.1-1.42.19a27.72 27.72 0 0 0-4 1.4l-.37.22a36.71 36.71 0 0 1 5.78-1.81"/><path class="cls-4" d="M22.34 38.58c-.45 0-1 0-1.58.07A36.53 36.53 0 0 0 15 40.47l-.46.31s.35-.1.94-.22a39.65 39.65 0 0 1 6.91-2"/><path class="cls-2" d="M26.23 36.55s.83 1.81 2.27 1.63 4-1.17 5-7c0 0-6.83 9.18-14.93 2l-2.1-2.59s.6 5.52 9.77 6"/><g class="cls-9"><path class="cls-10" d="M16.51 27.73h9.55v7.24h-9.55z"/></g><path class="cls-11" d="M19.83 29.08a5.28 5.28 0 0 1 3.86-.19c1.59.64 1.14 1.85.15 2.42a3.9 3.9 0 0 1-3.67 0c-.94-.45-1.71-1.25-.62-2.07a1.91 1.91 0 0 1 .27-.17"/><g class="cls-12"><path class="cls-13" d="M17.62 7.51h32.25v22.57H17.62z"/></g><g class="cls-14"><path class="cls-15" d="M36.93 0h10.93v17.18H36.93z"/></g><path class="cls-3" d="M40.42 12.37s-.09-6.59.56-9.14 3.11-.65 4.02 2.18 1.41 7.44-.75 10.64a13.9 13.9 0 0 0-3.86-3.68"/><path class="cls-5" d="M40.89 12.75s.19-6.5 2.26-7.53S45.88 12 44.28 16a11.08 11.08 0 0 0-3.39-3.3"/><path class="cls-3" d="M24.41 38.75s-8.07 1.16-11.81 3.89c0 0-3.2-.32-4.14.5 0 0-.5.69-.06 1.19s2.13.4 2.13.4-3.63 1-4.08 1.68-.82 1.82.55 2.39a6.79 6.79 0 0 0 3.48 0 3.57 3.57 0 0 1-3.35.67s-1.14.86-.7 1.68c0 0 .13.88 1.51.82a5 5 0 0 0 3.33-1.13s-.81 2.8.19 3 2-1.27 3.07-3.16A12.42 12.42 0 0 1 25.85 45l1.88 3.2 3-3.64zM17.23 74.74l-1.06.35-.07 1.55s.28 1.17 2.12 1.75l2.05.3-2.63-1.77a2.35 2.35 0 0 1-.41-2.19"/><path class="cls-3" d="M18 73.72a8.44 8.44 0 0 0-.35 1.81c0 .54.7 1.58 2.42 2.33a5 5 0 0 1 .26-3.14v-.32zM41.49 77.5a4 4 0 0 0 .31 1.19l-1.19.13s-.61-.82.88-1.32"/><g class="cls-16"><path class="cls-17" d="M34.83 41.76h20.23v18.33H34.83z"/></g><g class="cls-18"><path class="cls-19" d="M24.27 28.75h25.22v17.26H24.27z"/></g><g class="cls-20"><path class="cls-21" transform="rotate(-60.3 32.397 53.056)" d="M22.19 43.4h20.42v19.32H22.19z"/></g><path class="cls-3" d="M47.36 48.6a3.47 3.47 0 1 1-4.86.67 3.46 3.46 0 0 1 4.86-.67"/><path class="cls-22" d="M44 50.88l.25-.55zm-.08-.06l.26-.56zm-.08-.06l.26-.58zm-.08-.06l.27-.6zm-.07-.06L44 50zm-.08-.06l.29-.63zm-.08-.06l.3-.65zm-.08-.06l.28-.61zm-.08-.06l.25-.55zm-.08-.06l.22-.49zm-.08-.06l.2-.44zm-.08-.06l.17-.38zm-.08-.06l.15-.32zm-.05-.04l.12-.27zm-.08-.06l.1-.21zm-.06-.06l.07-.15zm-.08-.06v-.09zm-.08-.06zM45.91 50.16v-.07zm-.08-.08v-.11zm-.09-.08v-.15zm-.08-.08v-.18zm-.08-.08v-.22zm-.08-.08v-.26zm-.08-.08l.06-.3zm-.08-.08l.06-.34zm-.08-.1l.07-.36zm-.08-.06l.08-.42zm-.08-.08l.08-.46zm-.1-.07l.09-.5zm-.08-.08l.1-.54zm-.56-.61v.06-.08zm.1 0v.13-.16zm.1 0v.22-.24zm.1 0l-.06.3.06-.32zm.09 0l-.07.38.07-.4zm.1 0l-.09.46.09-.48zm.1 0l-.1.55.1-.56zM44.25 52.29zm-.1 0v-.11zm-.09 0v-.19zm-.1 0v-.28zm-.09 0v-.37zm-.1 0V52zm-.09 0V52zm-.1-.08v-.55zm-.1-.1v-.5zm-.09-.1v-.46zm-.1-.1v-.43zm-.09-.1v-.39zm-.1-.1v-.35zm-.09-.1v-.31zm-.1-.1v-.28zm-.09-.1v-.24zm-.1-.1v-.2zm-.1-.1v.09zm-.09-.1v-.12zm-.1-.1v-.08zm-.09-.1zM45.78 51.05l.15-.88-.66-.65.51 1.53z"/><path class="cls-7" d="M44.8 50.27l-1.51-1.15 1.03 1.16.48-.01z"/><path class="cls-22" d="M45.28 49.52l-1.57-.9.58-.01.99.91zM44.36 50.36l-.26.58.02.01.71-.6-.47.01zM43.6 51.82l.67.35.5-.4-1.17.05z"/><path class="cls-7" d="M45.77 51.08l-.12.61-1.27.53 1.39-1.14zM43.55 51.81l-1.19-1.46v.63l1.19.83z"/><path class="cls-23" d="M46.52 53.08zm-.05 0zm0 0l.13.1h-.07zM46.53 52.92l.13.1.01-.01-.12-.1-.02.01z"/><path class="cls-23" d="M46.7 52.94v-.09zm-.13-.07h.06v.11zM46.79 52.82v-.08zm-.13-.07h.06v.11z"/><path class="cls-23" transform="rotate(-52.48 46.823 52.672)" d="M46.82 52.59h.02v.16h-.02z"/><path class="cls-23" d="M46.86 52.5l.1.07h-.01l-.14-.02-.01.02.13.1.01-.01-.12-.09.17.02v-.01l-.12-.1-.01.02zM46.92 52.41l-.01.05.04.05.06.02.05-.02.01-.03v-.02l.01.01.01-.01-.06-.05-.04.05h.02l.02-.03.01.01.02.03-.02.03-.01.01h-.04l-.03-.02-.02-.02-.01-.02v-.02l.01-.02.02-.01h.03v-.01l-.04-.01-.03.03zM47.05 52.24l-.01.05.04.05.06.02.04-.02.02-.04-.02-.04-.02.01.01.01.01.02v.01l-.01.02-.03.01-.05-.02-.03-.04v-.03l.03-.02.03.01v-.02h-.04l-.03.02zM47.11 52.16l.13.1.01-.01-.13-.1-.01.01zM47.14 52.12l.01.01.03-.03.12.08.01-.01-.12-.09.03-.04-.01-.01-.07.09z"/><path class="cls-23" d="M47.27 51.95l.04.08-.08-.02-.02.02.1.02.06.04.01-.02-.05-.04-.05-.09-.01.01zM45.47 53.76l-.04.03-.02.03v.02l.01.03.01.02.02-.02-.01-.01-.01-.02v-.02l.01-.02.03-.02.03.01.02.02v.02l.01.02v.08l.02.05.01.01.09-.12-.01-.01-.08.1-.01-.04v-.1l-.02-.03-.01-.02-.03-.01h-.02z"/><path class="cls-23" d="M45.57 53.73v.07zm0-.11v.08h.05v.12h-.07zM45.62 53.57v.01l.03-.03.09.07.01-.01-.09-.08.02-.03h-.01l-.05.07zM45.73 53.42l.05.03-.04.05-.05-.03v.01l.1.08.01-.01-.05-.04.03-.05.06.03v-.01l-.1-.08-.01.02zM45.94 53.12l.12.14-.17-.07-.01.02.11.14-.17-.07-.01.02.21.09.01-.02-.12-.14.18.07.01-.02-.15-.18-.01.02zM45.98 53.06l.18.14.02-.02-.18-.14-.02.02zM46.13 52.88l.14.1h-.01l-.2-.02-.02.02.18.14.02-.02-.16-.12.23.03.01-.01-.18-.14-.01.02zM46.16 52.83l.02.01.04-.06.17.13.01-.02-.16-.12.04-.06-.02-.01-.1.13zM46.29 52.67l.17.13.09-.11-.02-.01-.07.09-.06-.05.04-.06-.02-.02-.04.06-.07-.04.08-.09-.02-.01-.08.11zM46.43 52.51zm0-.05v.06l.18.14-.08-.06h.11-.11zM46.66 52.17l.13.09.02.03-.01.04-.03.03-.04-.01-.13-.1-.02.02.13.1.06.01.04-.03.03-.06-.03-.05-.13-.09-.02.02zM46.8 51.98l.14.11-.2-.03-.02.03.18.14.01-.02-.15-.12.22.03.01-.02-.17-.13-.02.01zM46.86 51.91l.18.13.02-.02-.18-.13-.02.02zM46.99 51.74l.11.16-.18-.07-.02.02.23.08.01-.02-.14-.19-.01.02zM47.02 51.69l.19.14.08-.12-.02-.01-.06.09-.08-.05.05-.06-.02-.01-.04.06-.06-.05.07-.09-.02-.01-.09.11zM47.17 51.53zm0-.05v.06l.18.14-.08-.06h.11-.12zM47.3 51.33l-.02.02v.03l.01.02.01.02h.05l.02-.01.03-.01.02-.02h.05l.01.03-.01.04-.03.02h-.04l-.01.02h.05l.02-.01.03-.02.02-.03v-.03l-.01-.02-.02-.02-.02-.01h-.02l-.03.01-.03.02-.02.01-.01.01h-.02l-.01-.01-.02-.02.01-.03.03-.02h.04l.01-.02h-.05l-.04.03zM47.39 51.22l.18.13.01-.02-.18-.14-.01.03zM47.5 51.1h.11v.05zm0 0l.14.19v-.06l.05-.06h.07l-.22-.08zM47.74 51.09v-.12H47.62zm-.18-.1H47.71V51.14zM47.69 50.82l.18.13.08-.11-.01-.01-.07.09-.07-.05.04-.07-.01-.01-.05.06-.06-.04.07-.09-.02-.01-.08.11z"/><path class="cls-22" d="M46.59 53.32v.01l.09.19-.1.2.01.01.21-.03.14.15.02.01.01-.01.02-.22.18-.07.01-.01-.07-.08h-.01l-.06.06h-.01l.05-.08v-.01l-.01-.02h-.01l-.12.13v-.01l.08-.13.01-.01H47l-.01.01-.14.15v-.01l.09-.13v-.01h-.03v.01h-.01l-.13.15h-.01l.08-.12.01-.02-.01-.01h-.02l-.01.01-.06.07h-.01l.07-.12.01-.02h-.01l-.01-.01-.01.01-.06.06-.01.01v-.01l.04-.06v-.02l-.16-.02h-.01z"/><path class="cls-24" d="M46.84 52.99V53l.1.2-.11.19.01.01.22-.03.14.15.01.01.01-.01.02-.22.18-.07.02-.01-.08-.08h-.01l-.06.06h-.01l.05-.08v-.01l-.01-.02h-.01l-.11.13h-.01v-.01l.08-.13.01-.01h-.02l-.02.01-.13.15h-.01v-.01l.09-.13v-.01h-.03v.01h-.01l-.13.15h-.01l.08-.12.01-.03h-.02l-.02.01-.06.07h-.01l.07-.12.01-.02-.02-.01-.01.01-.06.06-.01.01v-.01l.04-.06v-.01l-.16-.03h-.01z"/><path class="cls-23" d="M47.09 52.66v.01l.1.19-.11.19.01.02.22-.04.14.16.01.01.01-.01.03-.22.17-.07.02-.01-.08-.08-.01-.01-.06.07h-.01.01l.04-.08v-.02l-.01-.01-.12.12-.01.01v-.01l.09-.13v-.01h-.03l-.14.16h-.01v-.01l.09-.14h-.03l-.01.01-.13.15v-.01l.07-.11.01-.03h-.02l-.02.01-.06.07h-.01v-.01l.07-.11.02-.02-.01-.01h-.02l-.01.01-.06.06-.01.01v-.01l.04-.06.01-.01-.01-.01-.15-.03-.02.01z"/><path class="cls-25" d="M47.34 52.32v.02l.1.19-.11.19.01.01.21-.03.15.15.01.02.01-.02.03-.22.17-.07h.02v-.01l-.08-.07h-.01l-.06.06h-.01v-.01l.05-.08v-.01l-.01-.01h-.01l-.11.12h-.01l.09-.13v-.01h-.03l-.14.15-.01.01.01-.01.08-.14h-.03v.01l-.14.14v.01-.01l.07-.11.01-.03h-.02l-.01.01-.07.07h-.01l.01-.01.06-.11.02-.02-.01-.01h-.02l-.01.01-.05.05-.02.01.04-.06.01-.02h-.01l-.16-.03h-.01z"/><path class="cls-26" d="M47.61 51.99l.15.03v.01l-.04.07.02-.01.05-.06h.03l-.02.03-.06.11v.01l.01-.01.2-.25.03-.04h.01v.03l-.01.03-.22.3v.01l.01-.01.22-.26H48v.03l-.14.22v.01-.01l.14-.16.01-.01v.02l.01.02-.01.01-.07.11h.01l.07-.07.02-.02.01-.01.02.01v.01l-.03.06-.01.01h.01l.06-.06h.01l.09.05.01.01-.02.01-.19.08-.03.22v.01l-.02-.01-.15-.15-.21.03-.01-.01.11-.19-.1-.19v-.02h.02z"/><path class="cls-22" d="M44.45 54.2v-.04l-.04-.18.07-.09.03.24.31.02-.06.08-.12-.01-.12-.01.01.05.13.1-.06.07-.33-.26.05-.07.13.1zM44.62 53.81V53.93zm0-.15l-.11.14.34.26.06-.07-.14-.1h.16l.05-.07h-.21v-.07zM45 53.5l-.06-.08h.2l-.14.18zm-.14-.07l.26.37.05-.07-.06-.08.09-.12h.09l.06-.08-.42-.15z"/><path class="cls-22" d="M45.09 53.06l.05-.05.06-.03.04.05-.05.04-.04.04-.02.04.03.04.02.01.02-.01.03-.01.02-.02.04-.03.05-.03h.04l.07.03.04.09-.05.12-.03.03-.03.03-.03.03-.03.02-.04-.06.07-.05.03-.04.03-.06-.03-.04-.01-.01h-.03l-.02.02-.02.01-.05.04-.05.03h-.05l-.05-.02-.05-.09.04-.12zM45.65 52.84l-.24-.18.06-.07.34.26-.06.07-.27-.02-.04-.01h-.04l.24.18-.05.08-.35-.27.06-.07.12.01.12.01.1.01h.01zM45.86 52.43v.05h.18zm.06-.08l.06.06V52.64l-.07.06H45.68l-.06-.06V52.41l.07-.06h.16zM46.06 52.27l-.31-.06.06-.08.06.02.06.01.09.02-.02-.05-.02-.04-.06-.11.06-.07.06.14.07.13.13.1-.06.08-.12-.09zM46.2 51.88l-.06-.08h.2l-.07.09zm-.14-.07l.25.38.06-.07-.06-.12.1-.12h.09l.06-.07-.42-.15zM46.35 51.53v-.05h.05V51.6zm0-.15l-.1.14.34.26.06-.07-.14-.11h.16l.06-.07h-.21v-.07zM46.57 51.12l.04-.05.06-.04.04.06-.05.04-.04.04-.01.04.02.04.02.01.02-.01.03-.01.02-.02.04-.03.05-.03h.05l.06.03.04.09-.05.13-.02.02-.03.03-.03.03-.04.02-.04-.06.07-.05.04-.04.02-.06-.02-.04-.02-.01h-.03l-.02.02-.02.01-.05.04-.05.03h-.05l-.04-.02-.06-.09.05-.12zM46.9 50.97v-.03l-.04-.19.06-.08.04.23.31.02-.06.09-.12-.02-.12-.01.01.06.13.09-.06.08-.34-.26.06-.07.13.1v-.01zM47.39 50.66l.1-.14.05.04-.18.24-.04-.03-.01-.06v-.05l-.01-.06-.01-.05-.02-.05-.02-.03-.05-.01-.04.03-.02.03-.02.07-.06-.01.02-.09.03-.06.09-.06.1.03.04.05.02.07.02.07v.07h.01zM47.5 50.37v.08zm-.11-.28l-.06.05V50.35l.06.05H47.6l.06-.05V50.14l-.05-.05h-.14zM47.51 49.92l-.03.09.04.04.05-.08.26.21.06-.07-.34-.25-.04.06zM47.76 49.81h.07-.07v.05zm.17 0v.09h-.05v-.1l.06-.05h.2l.06.06V50.03v-.05z"/><g class="cls-27"><path class="cls-5" d="M43.59 29.57h3.02v3.38h-3.02z"/></g><path class="cls-4" d="M43.68 32.93h-.09a30.6 30.6 0 0 1-4.74 3.35l2.06-1.15a25.53 25.53 0 0 0 2.77-2.22m-6.32 4.19c-.83.44-1.58.8-2.16 1.07l.93-.38zm-3.23 1.54l-.14.06a4.56 4.56 0 0 1-2.92 1.92l.08.05a5 5 0 0 0 3-2"/><path class="cls-4" d="M46.56 29.63l-.32.36-.08.12c-1.44 1.59-6.14 6.41-12 8.29a2.88 2.88 0 0 1-.2.35l.14-.06.06-.1 1-.37c.59-.27 1.33-.63 2.16-1.07l1.48-.82a30.53 30.53 0 0 0 4.74-3.35q.34-.29.66-.6a18.51 18.51 0 0 0 2.31-2.71"/><g class="cls-28"><path class="cls-29" d="M46.17 29.99h.08v.12h-.08z"/></g><path class="cls-4" d="M36.3 50.95a14.26 14.26 0 0 0 3.38 5.72 21.51 21.51 0 0 1-3.37-5.72"/><path class="cls-5" d="M47.21 58.93q-.35.24-.65.42l.64-.4"/><path class="cls-30" d="M48.27 58.15l-.27.15c-.29.24-.56.45-.81.63.3-.2.58-.41.82-.6l.25-.19"/><path class="cls-5" d="M42.42 59.14a6.44 6.44 0 0 0 1.33.85 1.69 1.69 0 0 0 .64.11h.06a1 1 0 0 1-.29 0 10.52 10.52 0 0 1-1.73-.92"/><g class="cls-31"><path class="cls-32" d="M35.23 35.15h12.79V60.1H35.23z"/></g><g class="cls-33"><path class="cls-34" d="M28.24 29.66h18.35v16.27H28.24z"/></g><g class="cls-35"><path class="cls-36" transform="rotate(-60.3 29.426 45.309)" d="M28.52 44h1.8v2.61h-1.8z"/></g><path class="cls-3" d="M23.77 29.76c0 .25-.48.46-1.07.46s-1.07-.2-1.07-.46.48-.45 1.07-.45 1.07.2 1.07.45"/><path class="cls-2" d="M35.92 30.76s.21 4.34-1.54 7.35l-.49.39a15.59 15.59 0 0 0 1.7-7.62z"/><path class="cls-37" d="M26.71 36.23s.61 1.46 1.68 1.59 2.55-.71 3.95-3.59l.66-1.91a11.13 11.13 0 0 1-4.63 3.43z"/><path class="cls-7" d="M27.91 37.59a5.82 5.82 0 0 1 4-2.46 6 6 0 0 1-2.52 2.59s-1 .39-1.45-.13"/><g class="cls-38"><path class="cls-39" d="M28.92 16.81h7.23v6.4h-7.23z"/></g><path class="cls-2" d="M29.58 22.09a2.6 2.6 0 0 1 .42-2.68c1-1.54 2.9-1.58 3.61-.7a2 2 0 0 1 .14 2.84 3.68 3.68 0 0 1-3 1.22 1.6 1.6 0 0 1-1.16-.67"/><path class="cls-3" d="M31.89 18.63A2.12 2.12 0 0 1 34 20.09c.41 1.51-1.63 2.5-3.15 2.52s-1.29-1.38-1.15-2a2.59 2.59 0 0 1 2.22-2"/><g class="cls-40"><path class="cls-41" d="M30.4 19.07h3.11v2.78H30.4z"/></g><path class="cls-23" d="M31.93 21.42a.94.94 0 0 0 .92-.57 1 1 0 0 0-1-1.35c-.81 0-1.52 1.83.1 1.92"/><path class="cls-3" d="M31.33 20.51s-.1-.39.19-.49.39.19.36.41-.33.4-.54.08"/><g class="cls-42"><path class="cls-43" d="M19.43 18.12h5.98v5.47h-5.98z"/></g><path class="cls-2" d="M24.78 22.22a2.25 2.25 0 0 0-.41-2.31 2 2 0 0 0-3.15-.5 1.75 1.75 0 0 0 0 2.46 3.19 3.19 0 0 0 2.6 1 1.4 1.4 0 0 0 1-.62"/><path class="cls-3" d="M22.68 19.24a1.82 1.82 0 0 0-1.74 1.32c-.31 1.31 1.48 2.1 2.79 2.08s1.07-1.23.92-1.78a2.23 2.23 0 0 0-2-1.61"/><g class="cls-44"><path class="cls-45" d="M21.48 19.66h2.55v2.42h-2.55z"/></g><path class="cls-23" d="M22.51 21.73a.76.76 0 0 0 .81-.33.81.81 0 0 0-.62-1.21c-.64-.1-1.46 1.24-.19 1.53"/><path class="cls-3" d="M22.37 20.76s0-.32.22-.36.28.2.22.38-.31.27-.44 0"/><path class="cls-2" d="M25.78 24.07l.2.02.52-4.61-.19-.03-.53 4.62z"/><path class="cls-46" d="M71.32 75.72A3.74 3.74 0 0 1 72.53 77a1.25 1.25 0 0 0-.59-1 5.32 5.32 0 0 0-.62-.32m-13.38.14a34 34 0 0 0-5.59 1.84 76.46 76.46 0 0 1 5.59-1.84"/><path class="cls-47" d="M65.93 74.86a35.29 35.29 0 0 0-8 1c-2 .56-3.9 1.2-5.59 1.84-6.63 2.88-16.09 3.67-16.09 3.67h-1s.61 7.87 14 9.85a16.91 16.91 0 0 0 2.46.18c11.16 0 21.21-10.68 20.8-14.38a3.75 3.75 0 0 0-1.21-1.3 13.92 13.92 0 0 0-5.39-.87"/><path class="cls-4" d="M35 46.76a23 23 0 0 0 1 6.68c1.13 3.39 2.48 4.28 2.48 4.28l.12.1a3.4 3.4 0 0 0-.5-.61c-.85-.85-3.08-4.11-2.86-9.55a10.9 10.9 0 0 1-.22-.91m3.21 12.52a8.27 8.27 0 0 1-.67.57l-.08.08a4.42 4.42 0 0 0 .75-.65"/><path class="cls-5" d="M37.52 59.86l-.4.3.33-.21.08-.08"/><g class="cls-48"><path class="cls-49" d="M34.94 45.94h.29v1.73h-.29z"/></g><g class="cls-50"><path class="cls-51" d="M34.96 45.5h.23v.47h-.23z"/></g><g class="cls-52"><path class="cls-53" transform="rotate(-60.3 35.59 53.505)" d="M27.49 46.99h16.2v13.03h-16.2z"/></g><g class="cls-54"><path class="cls-55" d="M35.19 45.93h.04v.31h-.04z"/></g><g class="cls-56"><path class="cls-57" d="M35.14 45.25h.1v.69h-.1z"/></g><path class="cls-4" d="M36.31 61.3c-.83 1.07-1.44 2-1.44 2s-4 .31-5.57 1.25a2.87 2.87 0 0 0-1.6 2.28c2.5 8.28-.1 12.09-.1 12.09-.28 0-6.16 0-6.9-1.3a2.6 2.6 0 0 1-.3-.81c.3 1.49 1.66 2.15 3.06 2.43 1.08.05 2.22.09 3.41.12l1.51-.56c1.79-5.09-.28-12-.28-12 1.18-2.69 4.52-3 6.07-3h.8l1.61-2.48-.25-.08"/><path class="cls-5" d="M26.73 60.73a3.35 3.35 0 0 0-2 2.35c-1.32 5.27.38 12.81.38 12.81l-4.67.94a2.6 2.6 0 0 0 .3.81c.74 1.29 6.62 1.3 6.9 1.3s2.6-3.81.1-12.09a2.87 2.87 0 0 1 1.6-2.28c1.6-.94 5.57-1.25 5.57-1.25s.61-.95 1.43-2l-.75-.22A10.31 10.31 0 0 1 31 62.22a8.47 8.47 0 0 1-3.45-.73s-.45-.05-.82-.76"/><path class="cls-46" d="M23.42 79.26a10.53 10.53 0 0 0 2.05.19 12.07 12.07 0 0 0 1.36-.07c-1.19 0-2.34-.06-3.41-.12"/><g class="cls-58"><path class="cls-59" transform="rotate(-60.3 31.142 61.202)" d="M28.08 56.87h6.14v8.68h-6.14z"/></g><g class="cls-60"><path class="cls-61" transform="rotate(-60.3 34.849 60.984)" d="M34.48 60.55h.72v.87h-.72z"/></g><path class="cls-5" d="M60.31 52.57a7.06 7.06 0 0 0-3 .64 1.85 1.85 0 0 0-.66 2.92 1.62 1.62 0 0 0 1.2.41 3.5 3.5 0 0 0 .46 0c.43-.64 2.17-3 4.86-3a4.9 4.9 0 0 1 .65 0 5.91 5.91 0 0 0-3.48-1"/><path class="cls-4" d="M60 52.34a5.23 5.23 0 0 0-3.77 1.58s-.75 2.76 1.69 2.76h.28l.1-.16a3.67 3.67 0 0 1-.46 0 1.62 1.62 0 0 1-1.2-.41 1.85 1.85 0 0 1 .66-2.92 7.06 7.06 0 0 1 3-.64 5.91 5.91 0 0 1 3.48 1h.26A7.89 7.89 0 0 0 60 52.34M28.8 40.59l.25.05h.41a6.47 6.47 0 0 0 1.14-.11h-.29a7 7 0 0 1-.72 0 5.41 5.41 0 0 1-.8-.06"/><path class="cls-4" d="M21.43 35a3.71 3.71 0 0 0 .37.24 8.69 8.69 0 0 0 1.34.44 17.94 17.94 0 0 1-1.71-.68m12.46 3.23a5.45 5.45 0 0 1-4.1 2.1h-.11a4 4 0 0 1-.93-.13l.05.4a5.28 5.28 0 0 0 .8.06 7 7 0 0 0 .72 0h.29a5.43 5.43 0 0 0 2.06-.81 4.12 4.12 0 0 0 .85-.84c.09-.17.23-.42.38-.73"/><path class="cls-5" d="M32.06 27.87A8.42 8.42 0 0 0 26 30.39c-.17 1.06-1 3.07-4.61 4.57.59.27 1.18.5 1.71.68a8 8 0 0 0 1.85.22c5 0 8.5-4.73 8.5-4.73-1 5.85-3.55 6.84-5 7l.25 2a3.9 3.9 0 0 0 .93.13h.11a5.46 5.46 0 0 0 4.1-2.1A15.65 15.65 0 0 0 35.4 31a7 7 0 0 0-1.69-3 9.68 9.68 0 0 0-1.65-.15m-5.83 8.68a2.26 2.26 0 0 0 .77 1.11 3.91 3.91 0 0 1-.79-1.09"/><path class="cls-4" d="M33.71 28a7 7 0 0 1 1.69 3 15.67 15.67 0 0 1-1.51 7.26c-.15.31-.28.56-.37.73a8.62 8.62 0 0 0 .66-1l.05-.12.75-1.91a14.84 14.84 0 0 0 .67-4.45 7.09 7.09 0 0 0-1.26-3.32l-.68-.19M33.49 31.16S30 35.89 25 35.89a8 8 0 0 1-1.85-.22 8.73 8.73 0 0 1-1.34-.44 15.16 15.16 0 0 0 4.43 1.32 3.89 3.89 0 0 0 .8 1.08 3 3 0 0 0 1.47.54c1.44-.18 4-1.17 5-7M33 32.32l-.68 1.91c-.16.33-.32.63-.48.91a6 6 0 0 1-2.52 2.59 2.35 2.35 0 0 1-.75.14 1.09 1.09 0 0 1-.51-.11 3 3 0 0 1-1.4-1.52l1.68-.48A11.1 11.1 0 0 0 33 32.32"/><g class="cls-62"><path class="cls-63" d="M21.38 30.39h4.61v4.57h-4.61z"/></g><g class="cls-64"><path class="cls-65" d="M28.8 40.64h.25v.06h-.25z"/></g><path class="cls-4" d="M35.61 31.46a14.77 14.77 0 0 1-.67 4.45l.41-1a12.83 12.83 0 0 0 .3-1.83 7.7 7.7 0 0 0 0-1.6m-1.37 6.35l-.05.12.07-.12"/><path class="cls-37" d="M33 32.32a11.1 11.1 0 0 1-4.63 3.43l-1.68.48a3 3 0 0 0 1.4 1.52l-.2-.16a5.82 5.82 0 0 1 4-2.46c.16-.28.32-.58.48-.91z"/><path class="cls-47" d="M31.89 35.13a5.82 5.82 0 0 0-4 2.46l.2.16a1.09 1.09 0 0 0 .51.11 2.36 2.36 0 0 0 .75-.14 6 6 0 0 0 2.52-2.59"/><path class="cls-4" d="M45.94 29.37c-2 2.43-5.4 5.51-11.28 8.22l-.05.11c6.32-1.65 11.35-8.35 11.35-8.35"/><path class="cls-5" d="M45.92 29.38c-5 4.84-8.95 5.25-10.12 5.25h-.2a11.9 11.9 0 0 1-1 3c5.87-2.71 9.31-5.8 11.28-8.23"/><path class="cls-4" d="M35.45 34.61l-.11.27a12.69 12.69 0 0 1-1.1 2.92l.35-.08.05-.11a11.81 11.81 0 0 0 1-3h-.15"/><path class="cls-66" d="M34.94 35.91l-.76 1.91a16.29 16.29 0 0 0 .71-1.9"/><path class="cls-66" d="M35.34 34.89l-.4 1a17.17 17.17 0 0 1-.71 1.9 12.63 12.63 0 0 0 1.1-2.92"/><path class="cls-3" d="M44.63 48a3.46 3.46 0 1 0 4 2.77 3.46 3.46 0 0 0-4-2.77"/><path class="cls-22" d="M42.97 52.57l.02-.02.09-.14.09-.02-.12.17.19.2-.09.01-.07-.07-.07-.08-.03.04.03.14-.08.01-.06-.36.07-.02.03.15v-.01zM43.4 52.52h-.09v.11zm.12-.09v.19h-.1v.15h-.12l-.07-.37h.21M43.72 52.43v-.09.18h-.1zm-.05-.13l-.05.39h.08v-.09h.14v.08H44l-.19-.35zM44.06 52.22l.06-.01.06.01-.01.06-.05-.01-.05.01-.04.02v.05l.02.01.03.01h.07l.04.01.04.03.02.05-.02.09-.11.05-.04.01h-.03l-.04-.01h-.03l.01-.06.07.01.05-.01.05-.02.01-.04-.01-.02-.01-.01-.02-.01h-.03l-.06-.01-.04-.01-.04-.02-.02-.04.02-.09.1-.05zM44.55 52.4l-.05-.26.08-.01.07.37-.08.01-.16-.17-.03-.03-.02-.03.05.26-.08.02-.07-.37.08-.02.08.08.07.08.06.07zM44.93 52.25v-.05.19h.08v-.1zm.09 0V52.4h-.28v-.33h.22V52.19M45.16 52.27l-.17-.22.09-.02.03.05.03.04.05.07.01-.04.01-.04.02-.1.09-.02-.04.13-.04.12.02.14-.08.02-.02-.13zM45.48 52.1V52 52.17h-.1zm0-.13l-.06.39h.08v-.09h.13v.08h.08l-.19-.35zM45.86 52.06h-.1v.11zM46 52v.1h-.08v.15h-.08l-.07-.37h.2M46.16 51.83l.06-.01.07.01-.02.06-.05-.01-.05.01-.03.02-.01.04.01.01.02.01.02.01h.07l.04.01.04.03.02.05-.02.09-.11.05-.03.01h-.07l-.04-.01.01-.06H46.21l.05-.02.01-.04-.01-.02-.01-.01-.02-.01h-.03l-.05-.01-.05-.01-.04-.02-.01-.05.01-.08.1-.05zM46.47 51.93l.02-.03.08-.14.09-.02-.11.17.19.2-.09.02-.07-.08-.07-.07-.03.04.03.13-.08.02-.07-.37.08-.02.02.15h.01zM46.97 52.01l.15-.03.01.06-.26.05-.01-.05.03-.04.03-.04.03-.04.02-.04.02-.04v-.04l-.02-.03-.05-.01-.03.01-.05.03-.03-.04.06-.04.06-.02.09.01.04.07v.06l-.02.06-.04.06-.03.05zM47.34 51.82v.14-.12zm.08 0v.13h-.14v-.31h.19v.12"/><path class="cls-22" d="M47.49 51.6l-.08.04.01.05.07-.02.05.29.08-.01-.07-.36-.06.01z"/><path class="cls-22" d="M47.71 51.68h.11zm.14.07h-.16v-.05h.07v.27h-.16v-.06h.07v-.07z"/><path class="cls-23" d="M43.4 53.18l-.18.03v-.02l.02-.06.04-.05.03-.02.01-.02.01-.03v-.02l-.02-.03-.04-.01-.03.01-.01.02-.01.02-.01.02h-.02v-.03l.02-.03.02-.02.03-.01.06.01.03.01.01.03v.03l-.01.03-.02.03-.03.02-.04.05-.02.05.15-.03.01.02zM43.46 53v-.05zm0 .11V53h-.06v-.11h.07V53.06h-.06zM43.6 52.89v.01l.05-.01.02.14h.02l-.02-.14.04-.01v-.01l-.11.02zM43.83 52.84l.01.07-.07.01-.01-.06h-.02l.03.15h.01l-.01-.07.07-.02.02.08.01-.01-.03-.15h-.01zM44.25 52.75l-.02.22-.08-.2h-.03l-.01.22-.09-.2-.03.01.11.25h.03l.01-.23.09.21.03-.01.01-.27h-.02zM44.33 52.73l.05.27.03-.01-.05-.26h-.03zM44.6 52.68l.04.21-.15-.19-.04.01.04.27.03-.01-.04-.23.18.21.02-.01-.05-.26h-.03zM44.68 52.67v.03l.08-.02.04.24.03-.01-.04-.23.08-.02v-.03l-.19.04zM44.91 52.63l.05.26.17-.03-.01-.02-.14.02-.01-.1.09-.02-.01-.02-.09.01-.01-.08.13-.03-.01-.02-.16.03zM45.19 52.7h-.1zm0 .15v-.26H45.34l.08.11-.08-.11h-.06v.12zM45.52 52.52l.03.18.03.04h.05l.04-.02.01-.04-.03-.19.03-.01.03.19-.01.07-.07.03-.07-.01-.04-.06-.03-.18h.03zM45.91 52.44l.04.2v.01l-.15-.19-.05.01.05.26h.03l-.05-.24.18.21h.02l-.04-.26h-.03z"/><path class="cls-23" transform="rotate(-10.43 46.024 52.534)" d="M46.05 52.42h.03v.27h-.03z"/><path class="cls-23" d="M46.27 52.38l-.03.22-.11-.2-.02.01.13.24h.02l.04-.28-.03.01zM46.34 52.36l.05.27.17-.04-.01-.02-.14.02-.01-.1.09-.01-.01-.03-.08.02-.02-.09.13-.02-.01-.03-.16.03zM46.61 52.43h.05-.1zm0 .15v-.26H46.76l.08.11-.07-.11h-.06v.12z"/><path class="cls-23" d="M46.94 52.32l-.02-.03-.04-.01-.04.02v.05l.02.01.02.01h.03l.03.01.03.01.02.02.02.03v.03l-.02.02-.02.03-.04.01h-.03l-.03-.01-.03-.02-.02-.02.03-.02.03.04.05.01.04-.03.01-.03-.01-.02-.02-.02h-.02l-.03-.01-.04-.01h-.02l-.03-.02-.01-.03v-.03l.02-.02.02-.02.03-.01.06.01.04.04-.03.01zM47.04 52.23l.05.27.03-.01-.05-.26h-.03zM47.23 52.22l.07.13h-.08zm0 0v.28-.09h.1v.08l-.13-.25zM47.45 52.4l.07-.12v-.08h-.11zm-.08-.23h.17l.05.09v.1l-.08.05h-.07zM47.62 52.13l.05.26.16-.03v-.03l-.14.03-.02-.1.1-.02-.01-.02-.09.01-.01-.08.12-.03v-.02l-.16.03z"/><path class="cls-67" d="M44.61 53.26l.11.15.01.01-.01.01-.09.02-.01.01h.03l.09-.01.02.01.01.01v.01l-.03.01-.15.05h.13l.02.01v.01l-.03.01-.16.05.24-.02h.01l.03.02-.19.05-.01.01.01.01.24-.03h.02l.02.02-.01.01-.18.05h-.01l.01.01.2-.02h.01v.03l-.01.01-.11.03h-.01v.01l.12-.01.01.01v.13h-.02l-.21-.08-.2.17-.02.01v-.03l-.01-.25-.21-.14v-.02l.24-.09.08-.24.01-.02.01.01z"/><path class="cls-68" d="M45.1 53.18l.11.15-.01.01-.08.02-.01.01h.02l.1-.01.01.01.02.01v.01l-.03.01-.15.05v.01l.11-.01h.02l.02.02-.03.01-.16.05h.01l.23-.02h.02l.02.02-.19.06v.01l.25-.03.01.01.02.01v.01h-.01l-.18.05h-.01l.01.01.2-.02.01.01v.02l-.01.01-.11.03-.01.01h.01l.11-.01.01.01v.14l-.02-.01-.21-.08-.2.17-.02.01-.01-.03v-.25l-.21-.14v-.02l.24-.08.08-.25.01-.02.01.02z"/><path class="cls-69" d="M45.59 53.09l.11.14.01.01-.01.01-.09.02-.01.01h.03l.1-.01.01.01.01.01v.01l-.02.01-.16.05v.01l.12-.01h.01l.02.02h.01l-.04.01-.16.05.24-.02h.02l.02.02-.19.06v.01l.25-.03h.01l.02.02h.01l-.01.01-.19.05h-.01l.01.01.2-.02.01.01v.02l-.01.01-.11.03.01.01.1-.01.01.01v.13h-.01l-.22-.08-.2.17-.01.01-.01-.03v-.25l-.22-.14v-.02l.24-.09.08-.24.01-.02.01.02z"/><path class="cls-70" d="M46.09 52.99l.11.15v.01h-.01l-.09.03.02.01.09-.01h.02l.01.02v.01l-.03.01-.15.04v.01h.01l.11-.01.01.01.02.01.01.01-.04.01-.15.04-.01.01h.01l.24-.02.01-.01v.01l.02.01.01.01h-.01l-.19.05v.01l.25-.02h.01l.03.02-.02.01-.18.05.21-.01v.02l-.01.01-.11.04h.11l.01.01v.13h-.01l-.22-.09-.2.18h-.01l-.01-.02-.01-.25-.21-.14v-.02l.24-.09.08-.25.01-.01.02.01z"/><path class="cls-71" d="M46.58 52.9l.11.15h-.08.11-.15l.39-.06H47l-.44.1.41-.06-.31.08h.26-.15.17-.08.11v.12l-.24-.09-.2.18v.08l-.21-.15.25-.09.07-.25"/><path class="cls-22" d="M46.16 49.62v.02l.33-.24-.01-.02-.32.24zM46.15 49.43v.02l.22-.16-.02-.01-.2.15zM46.13 49.15l.01.02.05-.04-.02-.01-.04.03zM46.15 49.34v.02l.15-.12-.01-.01-.14.11zM46.16 49.52v.03l.27-.21-.02-.01-.25.19zM46.17 49.71v.03l.38-.29-.02-.01-.36.27zM46.14 49.24v.03l.1-.08-.01-.02-.09.07zM46.24 50.74v.03l.1-.08v-.03l-.1.08zM46.23 50.65l.01.02.12-.09v-.03l-.13.1zM46.23 50.55v.03l.15-.12v-.02l-.15.11zM46.24 50.84l.01.02.07-.06.01-.02-.09.06zM46.25 50.93l.01.02.04-.03v-.03l-.05.04zM46.22 50.46v.02l.18-.13v-.03l-.18.14zM46.22 50.17v.02l.24-.18v-.03l-.24.19zM46.19 49.99v.03l.31-.24v-.02l-.31.23zM46.18 49.9l.01.02.33-.25v-.03l-.34.26zM46.22 50.37v.02l.2-.15v-.03l-.2.16zM46.2 50.09v.02l.28-.21v-.03l-.28.22zM46.21 50.27v.03l.23-.18v-.03l-.23.18zM46.18 49.81v.02l.36-.27v-.03l-.36.28zM44.64 50.01l.01.02.51-.23v-.02l-.52.23zM44.68 50.24l.01.02.47-.2v-.02l-.48.2zM44.67 50.16v.03l.49-.21v-.03l-.49.21zM44.7 50.32v.02l.46-.19v-.02l-.46.19zM44.65 50.09l.01.02.5-.22v-.02l-.51.22zM44.58 49.69v.02l.46-.2-.01-.01-.45.19zM44.49 49.22v.02l.18-.08-.02-.01-.16.07zM44.51 49.3v.02l.22-.1-.02-.01-.2.09zM44.52 49.38v.02l.27-.12-.02-.01-.25.11zM44.62 49.93l.01.02.53-.23v-.02l-.54.23zM44.46 49.06v.02l.08-.03-.02-.02-.06.03zM44.45 48.98V49l.03-.01-.02-.02-.01.01zM44.48 49.14v.02l.12-.06-.01-.01-.11.05zM44.61 49.85v.02l.55-.24v-.01h-.01l-.54.23zM44.59 49.77l.01.02.51-.22-.02-.01-.5.21zM44.54 49.45v.02l.31-.13-.01-.02-.3.13zM44.55 49.53v.02l.37-.15-.02-.02-.35.15zM44.56 49.61l.01.02.41-.18-.01-.01-.41.17zM43.55 50.24v.03l.15-.17-.01-.02-.14.16zM43.55 50.13v.02l.13-.14-.01-.02-.12.14zM43.54 49.66v.03l.05-.05-.01-.02-.04.04zM43.55 50.01v.03l.11-.12-.01-.02-.1.11zM43.54 49.55v.03l.03-.03-.01-.02-.02.02zM43.54 49.89v.03l.09-.09v-.03l-.09.09zM43.54 49.78v.03l.07-.08-.01-.02-.06.07zM43.56 51.15l.03.01.3-.34-.01-.02-.32.35zM44.05 51.32h.02l.01-.01-.01-.02-.02.03zM43.89 51.26l.02.01.1-.12v-.02l-.12.13zM43.97 51.29l.02.01.06-.07-.01-.02-.07.08zM43.81 51.23l.02.01.16-.17-.01-.02-.17.18zM43.73 51.2l.01.01.21-.23v-.02l-.22.24zM43.55 50.35v.03l.17-.19v-.02l-.17.18zM43.65 51.18h.02l.25-.28-.01-.02-.26.3zM43.55 50.58v.03l.22-.23-.01-.03-.21.23zM43.55 50.47v.03l.19-.22v-.02l-.19.21zM43.55 50.7v.03l.24-.26-.01-.02-.23.25zM43.55 51.05v.02l.31-.33-.01-.02-.3.33zM43.55 50.93v.03l.28-.31v-.02l-.28.3zM43.55 50.81v.03l.26-.28-.01-.02-.25.27z"/><path class="cls-22" d="M45.68 51.4l.58-.45-.04-.76-.54 1.21z"/><path class="cls-7" d="M45.21 50.13l.3.25-.28-1.54-.02 1.29z"/><path class="cls-22" d="M46.22 50.19l-.09-1.11-.38-.34.47 1.45zM44.72 50.4v.02l.77.03-.3-.25-.47.2zM44.13 51.26l.53.03-.75-.62.22.59z"/><path class="cls-7" d="M45.24 51.72l.42-.3-1.49-.08 1.07.38zM43.63 49.46l.26 1.17.08-1.56-.34.39z"/></g></g></svg>