<svg xmlns="http://www.w3.org/2000/svg" xmlns:xlink="http://www.w3.org/1999/xlink" viewBox="0 0 333 356" enable-background="new 0 0 333 356"><defs><path id="a" d="M113.9 1.1c-5 0-9.6 1.5-12.7 3.1-3.7 2-8.2 6.3-9.4 12.5-1.3 6.6 1.2 13.7 7.3 21.1 26.6 32.3 35.1 43 37.7 46.4-1.8 2.3-2.4 4.8-2.6 7.9-.1 1.9.1 3 .7 3.6.2.2.3.3.5.4 1.1 5.7 6.5 13.1 9.3 16.5-1.4 1.4-1.6 2.6-1.6 3.3-.3.3-.6.6-.9 1-5.1 6.4-2.2 19.1-.4 26.7l.3 1.2c2.3 10 10.6 30.7 11.9 33.7-5.3 8.1-11.7 18.5-16.4 27.5-5.5 10.7-7 19.2-7.3 24.1-4.1 1.3-32.8 10.4-42.8 15.8-4.8 2.5-10.3 6.7-15.1 10.3-5.4 4.1-10.6 8-13.2 8.5-3.3.7-7.2 2.9-10.1 4.9L19 159.9c6.2-2.5 9.8-7.1 8.8-11.1-.9-3.4-4.9-5.4-10.1-5.4-1.1 0-2.2.1-3.3.3-2.9-8.3-4-9.4-4.8-9.4-.1 0-.2 0-.4.1-.8.2-1.9.5.2 10.7-3.7 1.4-6.6 3.7-8.1 6.3-.9 1.6-1.2 3.3-.8 4.9 1.1 3.9 6.5 6.1 13.1 5.2L43.2 274c-2 .8-3.8 1.9-5.2 3.1-4.4 3.9-4.5 14.6-4.5 15.7-1.1 5.5 3.2 11.8 4.2 13.3-.2 1.2-.2 2.3.3 3.3 4.5 9.8 9.9 11.9 13.9 11.8l1.3 7.4v.1s0 .1.1.1l.1.1.1.1s.1.1.2.1h.1c.2.1 4.1 1.4 7.8.4 3.9-1 6.5-4.1 6.6-4.3v-.1l.1-.1v-.1-.1-.2-.1l-1.8-4.8c2 0 3.6-.4 4.4-1.3 5.5-5.9 8.3-14.6 9.9-19.8.5-1.7 1-3.3 1.3-3.7 3.3-4.5 12.7-14.8 15.7-17.2 6.6-5.3 26.3-13.4 30.1-15 .8 2 1.5 3.5 1.9 4.2-4.5 9.1-5.5 17.5-5.6 18v.2c0 .1 2.2 10.5 7.2 19.7.1 1.6 1.3 14.2 6.8 26.4 4.6 10.1 9.1 16.8 14.2 21.3 3.7 3.3 8.3 3.6 10.4 2.1 1.9-1.4 4.4-4.2 4.4-12.6 0-5 .4-8.8.8-9.7.5-1.1 2.5-1.8 5.8-2.1 3.4-.3 5.4.1 6.1 1.2.5.8 1.5 4.6 2.3 9.5 1.3 8.3 4.3 10.7 6.4 11.8 2.3 1.2 6.7.1 9.9-3.7 4.1-4.9 7.3-11.8 10.2-21.5l17.1-3.7c1.2 2.2 2.4 4.5 3.6 6.8 2 3.8 5.6 6.3 9.1 6.3 4.7 0 11.3-4.7 17.2-8.8.9-.7 1.9-1.3 2.7-1.9 3.2-2.2 6.2-4.2 8.9-6 6.4-4.2 11-7.2 12.8-10.1 3.4-5.4 2.2-10.7-3.5-16.7-9.9-10.3-21.9-22-36.7-31.7 2.3.3 4.8.6 7.4 1 10.2 1.6 28.8 18.2 30.5 20.8 6.9 10.8 8.1 12.4 11.7 13.5 2.1.6 4.4.6 6.8.1l-1.1 6.2V303.6s0 .1.1.1l.1.1s0 .1.1.1c.1.1 3.4 2.7 7.2 3 4 .3 7.5-1.7 7.6-1.8l.1-.1.1-.1.1-.1s0-.1.1-.1v-.2-.1l-.1-7.1c4.7.7 8 .4 9.9-.9 2.5-1.8 6.3-10.2 4.5-14.6-.1-.3-.3-.6-.5-.9l.2-.2c.1-.3 3-6.1 1.7-11.6 0-.5-.9-12.6-5.5-16.6-.2-.2-.5-.4-.7-.6-.5-.7-3-4.1-8.8-7l9.2-114.5c6.6-.2 11.6-3.3 12-7.4.4-4.3-4.3-8.1-10.8-9.4.1-10.4-.8-10.4-1.7-10.5h-.2c-.8 0-1.9.7-3.2 10.1-4 .1-7.5 1.2-9.8 3.1-1.4 1.2-2.3 2.7-2.4 4.3-.3 4.1 4.1 7.9 10.6 9.3l-10 112.5c-2.9-.8-6.2-1.5-10.1-1.8-.8-.1-1.8-.1-2.8-.1-2.2 0-4.6 0-6.6-.7-4.4-1.5-7.9-3-11.3-4.5-7.2-3.1-14-6-27-8-1.1-.2-2.3-.3-3.5-.4 4.6-19.5 13.1-39.9 13.1-40.1l33.7-74.1c0-.1 4.3-8.7 29.6-56.4 3.6-6.8 4.3-13 2.1-18.4-2.6-6.5-8.6-10.1-11.5-11-1.9-.7-5.6-1.7-9.7-1.7-3.1 0-6.5.6-9.8 2.2-5 2.6-8.5 7.4-10.5 14.1-15.6 53.1-18.1 58.6-18.2 58.9l-2 5.2c-2.3 0-4.5.5-6.7 1.6-.6.3-3.9 2.2-4.3 3.6v.1c-2.8 2.2-4.4 5.8-5.1 7.9-2.9-3.8-6.7-7.2-10.1-8-.7-.2-1.4-.2-2.2-.2-7.5 0-16.9 7.7-23.4 13-1 .8-1.9 1.6-2.8 2.2-1.2.9-2.8 2.3-4.6 4L164 69.3c0-.1-4.5-8.1-30.4-56-5.3-9.3-12.9-12.2-19.7-12.2"/></defs><clipPath id="b"><use xlink:href="#a" overflow="visible"/></clipPath><radialGradient id="c" cx="-252.728" cy="476.565" r=".914" gradientTransform="scale(-307.4295 307.4295) rotate(-70.327 -464.313 59.739)" gradientUnits="userSpaceOnUse"><stop offset="0" stop-color="#fff"/><stop offset=".356" stop-color="#fff"/><stop offset=".544" stop-color="#f6f6f6"/><stop offset=".852" stop-color="#ddd"/><stop offset="1" stop-color="#cfcfcf"/></radialGradient><path clip-path="url(#b)" fill="url(#c)" d="M37.8 461.5L-112.5 41.3 295-104.3l150.2 420.2z"/><defs><path id="d" d="M135.6 237.1h79.2v46.5h-79.2z"/></defs><clipPath id="e"><use xlink:href="#d" overflow="visible"/></clipPath><g clip-path="url(#e)"><defs><path id="f" d="M211.9 283.6s-12.1-16.7-18.3-23.4c-8.1-8.8-15.1-8.9-15.1-8.9s-2.7-6.6-11.1-6.5c-7.3.1-10.2 6.2-10.2 6.2s-3.6-1.8-7.2-1.4c-6.6.7-14.3 8-14.3 8s7.2-7.5 9.9-9.5c13.6-10.2 20.4-11 20.4-11s5.2.4 12 3c6.7 2.6 12.4 6.1 16.4 8.8 5.2 3.5 10.6 9.5 12.8 12.6 4.6 6.5 7.6 15 7.6 15s-.9 2.7-1.3 3.6c-.3.7-1.6 3.5-1.6 3.5"/></defs><clipPath id="g"><use xlink:href="#f" overflow="visible"/></clipPath><linearGradient id="h" gradientUnits="userSpaceOnUse" x1="-250.751" y1="471.017" x2="-249.838" y2="471.017" gradientTransform="scale(-36.1286 36.1286) rotate(59.879 275.327 451.761)"><stop offset="0" stop-color="#fff"/><stop offset=".356" stop-color="#fff"/><stop offset=".629" stop-color="#f6f6f6"/><stop offset="1" stop-color="#e3e3e2"/></linearGradient><path clip-path="url(#g)" fill="url(#h)" d="M235 248.8L194.9 318l-79.4-46.1 40.1-69.2z"/></g><defs><path id="i" d="M170.8 287h6.9v7.1h-6.9z"/></defs><clipPath id="j"><use xlink:href="#i" overflow="visible"/></clipPath><path clip-path="url(#j)" fill="#EDEDED" d="M170.8 289.9s2.1-.4 3.4-1c1.4-.6 3.5-1.9 3.5-1.9l-5.6 7.1s-.4-2.6-.5-3.7c-.1-.5-.8-.5-.8-.5"/><defs><path id="k" d="M158.3 257.6h30.8v23.8h-30.8z"/></defs><clipPath id="l"><use xlink:href="#k" overflow="visible"/></clipPath><g clip-path="url(#l)"><defs><path id="m" d="M180.1 281.4s4-2 6.9-5.9c2.2-2.8 2.1-7.9 2.1-7.9s-.4-1.1-.9-1.2h-1.6s0-.5-2.3-4.3c-1-1.6-2.6-3.6-5.5-4.1-2.3-.4-4.3-.6-6.1-.3-2.9.4-4.8 1.4-4.8 1.4s-4.3-.5-5.7-.5c-1 0-3.9.9-3.9.9s3.6.6 4.6 3.2c.7 1.9-.8 5-.8 5s4.1-2.7 6.2-3.1c1.5-.3 6.4.8 8.5 2.5 3.2 2.7 5.4 4.2 6.1 6.8 1.2 4.9-2.8 7.5-2.8 7.5"/></defs><clipPath id="n"><use xlink:href="#m" overflow="visible"/></clipPath><linearGradient id="o" gradientUnits="userSpaceOnUse" x1="-248.803" y1="469.542" x2="-247.889" y2="469.542" gradientTransform="scale(-24.8522 24.8522) rotate(51.386 349.228 490.62)"><stop offset="0" stop-color="#fff"/><stop offset=".356" stop-color="#fff"/><stop offset=".629" stop-color="#f6f6f6"/><stop offset="1" stop-color="#e3e3e2"/></linearGradient><path clip-path="url(#n)" fill="url(#o)" d="M200.8 266.8l-23.7 29.7-30.5-24.4 23.7-29.7z"/></g><defs><path id="p" d="M215.1 277.1h-.2c-.1 0-.1.1-.2.1h-.1l-.1.1s0 .1-.1.1c0 0 0 .1-.1.1v.1c0 .1-.8 3.3-8.9 18.1-3.5 6.3-6.5 10.8-6.5 10.9-4.8 7.7-11.9 9.2-15.4 8.3-3.9-1-4.9-2.6-6.1-4.8-.1-.2-.3-.5-.4-.7-1.7-2.9-4.9-12.7-5.5-18.5v-.4c0-.4-.4-.7-.8-.7h-.1c-.4 0-.7.4-.7.8v.4c.3 5.8-1.3 16.1-2.5 19.2-.1.3-.2.5-.3.8-.9 2.3-1.6 4.1-5.3 5.6-3.4 1.4-10.6 1.1-16.5-5.8 0 0-3.7-4-8.1-9.7-10.3-13.3-11.5-16.3-11.6-16.4v-.1s0-.1-.1-.1l-.1-.1-.1-.1-.1-.1h-.5-.1s-.1 0-.1.1c0 0-.1 0-.1.1l-.1.1-.1.1s0 .1-.1.1v.4c0 .1 2.2 10.5 7.2 19.7.1 1.6 1.3 14.2 6.8 26.4 4.6 10.1 9.1 16.8 14.2 21.3 3.7 3.3 8.3 3.6 10.4 2.1 1.9-1.4 4.4-4.2 4.4-12.6 0-5 .4-8.8.8-9.7.5-1.1 2.5-1.8 5.8-2.1 3.4-.3 5.4.1 6.1 1.2.5.8 1.5 4.6 2.3 9.5 1.3 8.3 4.3 10.7 6.4 11.8 2.3 1.2 6.7.1 9.9-3.7 4.3-5.2 7.7-12.6 10.7-23.2 3.6-12.9 2.8-25.5 2.6-27.2 3.5-9.8 4.1-20.4 4.1-20.5v-.1-.2c0-.1 0-.1-.1-.1 0 0 0-.1-.1-.1l-.1-.1s-.1 0-.1-.1c-.1 0-.1-.1-.2-.1h-.1c.2-.2.2-.2 0-.2.1 0 .1 0 0 0 .1 0 .1 0 0 0 .1 0 .1 0 0 0"/></defs><clipPath id="q"><use xlink:href="#p" overflow="visible"/></clipPath><linearGradient id="r" gradientUnits="userSpaceOnUse" x1="-253.656" y1="476.975" x2="-252.742" y2="476.975" gradientTransform="scale(156.13 -156.13) rotate(47.986 412.028 523.206)"><stop offset="0" stop-color="#585857"/><stop offset=".317" stop-color="#878786"/><stop offset=".75" stop-color="#c2c2c2"/><stop offset=".957" stop-color="#d9d9d9"/><stop offset="1" stop-color="#d9d9d9"/></linearGradient><path clip-path="url(#q)" fill="url(#r)" d="M84.9 320.7l80.4-89.2 89.9 81-80.4 89.2z"/><g fill="#FFF"><path d="M143.9 332.3c1.4 4.3 4.5 9.8 6.8 13.1 2.4 3.4 6.1 6.5 8.9 5.2 2.5-1.2 2.9-5.7 2.5-8.2-.6-4.2-1.8-13.4-1.8-13.5v-.1-.1l-.1-.1-.1-.1-.1-.1h-.1c-.1 0-9-3.9-17.9-13-.2-.2-.4-.2-.6-.2-.2 0-.4.1-.5.2-.2.2-.3.5-.2.8-.1.2.1 6.4 3.2 16.1M187.2 326.6c0 .1-.1.1 0 0 0 .2.2 9.5.3 13.7 0 2.6 1.1 6.9 3.8 7.7 3 .9 6.1-2.8 8-6.5 1.8-3.6 4-9.5 4.7-14 1.5-9.9.8-16.1.7-16.5.1-.3 0-.6-.3-.8-.1-.1-.3-.1-.5-.1s-.5.1-.6.3c-7.4 10.4-15.6 15.6-15.7 15.6l-.1.1-.1.1-.1.1s0 .1-.1.1v.2"/></g><defs><path id="s" d="M221.6 170.5c-.1.1-.2.1-.2.2v.1c-2.1 3.9-4.3 8.1-6.3 12V183.4s0 .1.1.1c0 .1.1.1.1.1l.1.1.1.1H216.1s2.4-1 5 .2c2.2 1 4 3.2 5.2 6.7 1.9 5.2.1 12.1-3.8 14.5-1.1.7-2.1.9-3 .6-1.9-.6-3-3.1-3-3.1-.1-.3-.4-.5-.8-.5-.3 0-.6.2-.7.5-.1.3-2.6 8.4.8 11.6 1.6 1.6 4.3 1.7 7.8.5 6.6-2.4 11-7.1 12.3-13.3 1.1-5.4.6-11.2-1.7-16.3l4.8.5c.2 0 .5-.1.7-.3.2-.2.2-.4.2-.7-.1-.3-1.7-6.9-7.4-11.5-3.2-2.6-5.9-3.3-7.8-3.3-1.8-.2-2.9.5-3.1.6"/></defs><clipPath id="t"><use xlink:href="#s" overflow="visible"/></clipPath><linearGradient id="u" gradientUnits="userSpaceOnUse" x1="-254.416" y1="473.918" x2="-253.503" y2="473.918" gradientTransform="scale(76.8735 -76.8735) rotate(-59.63 -541.247 11.468)"><stop offset="0" stop-color="#585857"/><stop offset=".317" stop-color="#878786"/><stop offset=".75" stop-color="#c2c2c2"/><stop offset=".957" stop-color="#d9d9d9"/><stop offset="1" stop-color="#d9d9d9"/></linearGradient><path clip-path="url(#t)" fill="url(#u)" d="M232.9 157.7l27.2 46.5-40.6 23.8-27.2-46.4z"/><defs><path id="v" d="M52.1 272.6s0 .1 0 0c0 .1 0 .1 0 0l-.2.2v.7s0 .1.1.1v.1s.1 0 .1.1l.1.1s.1.1.2.1h.1c.2.1.5.2.6.3 3.9 2.2 2.5 6.7 2.4 6.9v.5c0 .1.1.1.1.1s0 .1.1.1c3.3 3.1 1.6 9.4 1.6 9.5v.4l.1.1.1.1.1.1s.1 0 .1.1c.6.2 1 .5 1.3.7-1.5 5.9-.1 9.2.3 10 0 .3.2.6.5.7 3.1 1 6.1 1.9 6.2 1.9h.6c2.7-1.4 7.3-5.3 5.2-10.8-.6-1.6-2.4-4.1-4.2-6.4-1.4-1.9-2.8-3.8-3.4-5-.4-.9-.8-2.4-1.2-4-.8-3.4-1.6-6.8-3.5-8-.7-.5-1.5-.7-2.3-.7-2.4.1-4.8 1.9-5.1 2"/></defs><clipPath id="w"><use xlink:href="#v" overflow="visible"/></clipPath><linearGradient id="x" gradientUnits="userSpaceOnUse" x1="-255.911" y1="479.914" x2="-254.998" y2="479.914" gradientTransform="scale(36.7727 -36.7727) rotate(45.734 451.479 540.701)"><stop offset="0" stop-color="#585857"/><stop offset=".317" stop-color="#878786"/><stop offset=".75" stop-color="#c2c2c2"/><stop offset=".957" stop-color="#d9d9d9"/><stop offset="1" stop-color="#d9d9d9"/></linearGradient><path clip-path="url(#w)" fill="url(#x)" d="M34.3 288.7l28.3-29 28.9 28.1-28.3 29z"/><defs><path id="y" d="M291.3 248.2c-3.5 3.1-3.7 7.8-3.8 10.9 0 .5 0 1-.1 1.4-.1 1.1-.3 2.7-.6 4.5-.6 4.5-1.4 10.1-.7 12.9.9 4.1 5.2 5.1 7.4 5h.2s.1 0 .1-.1c0 0 .1 0 .1-.1l.1-.1.1-.1c.8-1.6 2.1-3.7 3.7-4.9v-.1l.1-.1s0-.1.1-.1c0-.1 0-.1.1-.2v-.1-.1c0-.2-.5-4.6-2.1-8.3 0-.7.4-3.7 2.5-6.3.2-.1.3-.3.3-.6.1-2.6 1.1-9.8 4.2-11.6.1 0 .1-.1.2-.2 0-.1 0-.1.1-.2v-.1-.2-.1c0-.1 0-.1-.1-.2v-.1l-.2-.2c-.5-.3-3.7-2.3-7.1-2.3-1.5 0-3.2.4-4.6 1.7"/></defs><clipPath id="z"><use xlink:href="#y" overflow="visible"/></clipPath><linearGradient id="A" gradientUnits="userSpaceOnUse" x1="-250.255" y1="477.44" x2="-249.341" y2="477.44" gradientTransform="scale(-66.7498 66.7498) rotate(-34.008 -901.193 -160.328)"><stop offset="0" stop-color="#585857"/><stop offset=".317" stop-color="#878786"/><stop offset=".75" stop-color="#c2c2c2"/><stop offset=".957" stop-color="#d9d9d9"/><stop offset="1" stop-color="#d9d9d9"/></linearGradient><path clip-path="url(#z)" fill="url(#A)" d="M297.9 291.3l-29.3-19.7 22.5-33.4 29.3 19.7z"/><g opacity=".6"><defs><path id="B" d="M151.6 291.5h7.9v7.9h-7.9z"/></defs><clipPath id="C"><use xlink:href="#B" overflow="visible"/></clipPath><g clip-path="url(#C)"><defs><path id="D" d="M151.6 295.8c-.2-2.2 1.5-4.1 3.6-4.3 2.2-.2 4.1 1.5 4.3 3.6.2 2.2-1.5 4.1-3.6 4.3-2.2.2-4.1-1.5-4.3-3.6"/></defs><clipPath id="E"><use xlink:href="#D" overflow="visible"/></clipPath><radialGradient id="F" cx="-209.85" cy="467.03" r=".913" gradientTransform="scale(-4.33 4.33) rotate(4.502 4949.566 2479.883)" gradientUnits="userSpaceOnUse"><stop offset="0" stop-color="#81cff4"/><stop offset=".171" stop-color="#71c9f2"/><stop offset=".503" stop-color="#48b9ec"/><stop offset=".961" stop-color="#06a0e3"/><stop offset="1" stop-color="#009ee2"/></radialGradient><path clip-path="url(#E)" fill="url(#F)" d="M160.3 299.5l-8.8.7-.7-8.8 8.8-.7z"/></g></g><path fill="#B2B2B1" d="M148.7 300.2c1.7 2.4 3.6 3 6.3 2.3 1.5-.4 3.6-1.2 5.4-3.7 1.7-2.4 2.2-5.6 1.4-8-.7-1.9-7.6-4-12.5.7-2.4 2.3-2.3 6.3-.6 8.7m7.4-10.6c1.8-.1 5 .6 5.1 2.6.5 6.7-4.3 8.4-6.1 8.7-3 .5-4.8-.5-5.7-3.1-.8-2.2-.5-4.3.9-5.9 1.5-1.6 3.4-2.2 5.8-2.3"/><defs><path id="G" d="M152.9 294.4c-.6 1.8.8 3.8 3.1 3.6 2.3-.2 3.9-5.4-.6-5.4-.1.1-1.9.1-2.5 1.8"/></defs><clipPath id="H"><use xlink:href="#G" overflow="visible"/></clipPath><radialGradient id="I" cx="-190.185" cy="462.946" r=".914" gradientTransform="scale(-2.9745 2.9745) rotate(4.5 4505.988 2035.683)" gradientUnits="userSpaceOnUse"><stop offset="0" stop-color="#585857"/><stop offset=".39" stop-color="#444443"/><stop offset="1" stop-color="#1e1e1c"/></radialGradient><path clip-path="url(#H)" fill="url(#I)" d="M160.4 298.2l-8 .6-.5-6.1 8-.6z"/><path fill="#FFF" d="M154.2 295.9s.1.8.8.8c.6-.1.6-.7.3-1.1-.3-.4-1-.5-1.1.3"/><g opacity=".6"><defs><path id="J" d="M182.6 289.1h7.9v7.9h-7.9z"/></defs><clipPath id="K"><use xlink:href="#J" overflow="visible"/></clipPath><g clip-path="url(#K)"><defs><path id="L" d="M190.5 292.7c-.2-2.2-2.1-3.8-4.3-3.6-2.2.2-3.8 2.1-3.6 4.3.2 2.2 2.1 3.8 4.3 3.6 2.2-.2 3.8-2.1 3.6-4.3"/></defs><clipPath id="M"><use xlink:href="#L" overflow="visible"/></clipPath><radialGradient id="N" cx="-296.834" cy="467.029" r=".914" gradientTransform="matrix(4.3162 -.3399 .3399 4.3162 1309.042 -1823.647)" gradientUnits="userSpaceOnUse"><stop offset="0" stop-color="#81cff4"/><stop offset=".171" stop-color="#71c9f2"/><stop offset=".503" stop-color="#48b9ec"/><stop offset=".961" stop-color="#06a0e3"/><stop offset="1" stop-color="#009ee2"/></radialGradient><path clip-path="url(#M)" fill="url(#N)" d="M182.5 297.8l8.8-.7-.6-8.8-8.9.6z"/></g></g><path fill="#B2B2B1" d="M192.2 288.2c-5.5-3.8-12.1-.7-12.5 1.3-.5 2.5.5 5.5 2.6 7.6 2.1 2.2 4.4 2.7 5.9 2.8 2.8.2 4.5-.7 5.9-3.3 1.3-2.6.8-6.6-1.9-8.4m-.9.5c1.6 1.3 2.2 3.3 1.8 5.7-.5 2.7-2.1 3.9-5.2 3.9-1.8 0-6.8-1-7.4-7.7-.2-2 2.9-3.1 4.7-3.4 2.3-.1 4.3.1 6.1 1.5"/><defs><path id="O" d="M186.3 290.3c-4.5.7-2 5.6.2 5.4 2.3-.2 3.3-2.4 2.5-4-.6-1.2-1.7-1.4-2.3-1.4-.2-.1-.4 0-.4 0"/></defs><clipPath id="P"><use xlink:href="#O" overflow="visible"/></clipPath><radialGradient id="Q" cx="-316.808" cy="462.945" r=".914" gradientTransform="matrix(2.9651 -.2334 .2334 2.9651 1017.905 -1153.68)" gradientUnits="userSpaceOnUse"><stop offset="0" stop-color="#585857"/><stop offset=".39" stop-color="#444443"/><stop offset="1" stop-color="#1e1e1c"/></radialGradient><path clip-path="url(#P)" fill="url(#Q)" d="M181.9 296.4l8.4-.6-.5-6.2-8.4.7z"/><path fill="#FFF" d="M185.1 293.4s.1.8.8.8c.6 0 .6-.7.3-1.1-.2-.4-.9-.5-1.1.3"/><defs><path id="R" d="M167.7 251.4c-.1 0-4.2.3-7.3 3.5l-.1.1c.6.3 1.5.5 2.2.5 4.3 0 5.7-2 5.8-2.1.2-.2.4-.3.6-.3.1 0 .3 0 .4.1.4.2.5.7.2 1.1 0 0-.1.1-.1.2 1 .2 2.6.4 4.1-.1.7-.2 1.4-.5 1.8-.7-2.8-2.1-5.9-2.3-7.2-2.3h-.4"/></defs><clipPath id="S"><use xlink:href="#R" overflow="visible"/></clipPath><linearGradient id="T" gradientUnits="userSpaceOnUse" x1="-252.219" y1="474.72" x2="-251.305" y2="474.72" gradientTransform="scale(-130.5899 130.5899) rotate(54.42 333.323 481.77)"><stop offset="0" stop-color="#c20a6c"/><stop offset=".472" stop-color="#e3097e"/><stop offset="1" stop-color="#e3097e"/></linearGradient><path clip-path="url(#S)" fill="url(#T)" d="M177.4 252.8l-7.1 9.9-11.9-8.6 7.1-9.9z"/><defs><path id="U" d="M12.3 145.7c-4.4 1.2-8.1 3.6-9.7 6.4-.7 1.3-1 2.5-.7 3.7.8 3.1 5.6 4.8 11.2 4.1l-1.7-6.4v-.3c0-.1.2-1.4 2.3-1.9.5-.1.9-.2 1.2-.2 1.2 0 1.7.6 1.8.7 0 .1.1.1.1.2l1.8 6.5c5.2-2.2 8.5-6 7.7-9.1-.7-2.7-4.3-4.3-8.7-4.3-1.7-.2-3.5.1-5.3.6"/></defs><clipPath id="V"><use xlink:href="#U" overflow="visible"/></clipPath><linearGradient id="W" gradientUnits="userSpaceOnUse" x1="-249.219" y1="470.064" x2="-248.305" y2="470.064" gradientTransform="scale(-25.0803 25.0803) rotate(54.419 326.535 479.453)"><stop offset="0" stop-color="#c20a6c"/><stop offset=".472" stop-color="#e3097e"/><stop offset="1" stop-color="#e3097e"/></linearGradient><path clip-path="url(#V)" fill="url(#W)" d="M34.4 150.2l-15.9 22.3-24.1-17.3 15.9-22.3z"/><g><defs><path id="X" d="M54.6 327.7c1 .3 3.9.9 6.5.2 2.7-.7 4.8-2.7 5.5-3.4l-1.8-4.9c-3.8-.2-8.5-1.3-12-2.6l1.8 10.7z"/></defs><clipPath id="Y"><use xlink:href="#X" overflow="visible"/></clipPath><linearGradient id="Z" gradientUnits="userSpaceOnUse" x1="-247.314" y1="465.087" x2="-246.401" y2="465.087" gradientTransform="scale(-14.7335 14.7335) rotate(54.42 305.497 479.685)"><stop offset="0" stop-color="#c20a6c"/><stop offset=".472" stop-color="#e3097e"/><stop offset="1" stop-color="#e3097e"/></linearGradient><path clip-path="url(#Y)" fill="url(#Z)" d="M72.1 320.9L62 335.1l-14.7-10.4 10.2-14.2z"/></g><g><defs><path id="aa" d="M307.6 117.5c-1.1.9-1.8 2.1-1.9 3.2-.3 3.2 3.6 6.4 9.2 7.6l.6-6.6v-.1c0-.1 0-.2.1-.2.1-.1.6-1.1 2.4-1.1h.4c2 .2 2.5 1.2 2.6 1.5v.2l-.5 6.7c5.7-.3 10-2.8 10.3-6 .3-3.8-5.1-7.5-11.9-8.1-.6-.1-1.2-.1-1.8-.1-3.9.2-7.4 1.2-9.5 3"/></defs><clipPath id="ab"><use xlink:href="#aa" overflow="visible"/></clipPath><linearGradient id="ac" gradientUnits="userSpaceOnUse" x1="-247.488" y1="467.716" x2="-246.575" y2="467.716" gradientTransform="scale(-20.6298 20.6298) rotate(54.419 317.866 462.06)"><stop offset="0" stop-color="#c20a6c"/><stop offset=".472" stop-color="#e3097e"/><stop offset="1" stop-color="#e3097e"/></linearGradient><path clip-path="url(#ab)" fill="url(#ac)" d="M337.8 119.5L322.4 141l-23.6-16.9 15.3-21.5z"/></g><g><defs><path id="ad" d="M302.7 294.4c-1.6.9-3.3 1.6-4.9 2.1l-1.2 6.4c.9.6 3.3 2.2 6 2.4 2.8.2 5.4-.9 6.3-1.4l-.1-12.4c-.5-.3-1-.6-1.3-.8-1.2 1.4-3 2.7-4.8 3.7"/></defs><clipPath id="ae"><use xlink:href="#ad" overflow="visible"/></clipPath><linearGradient id="af" gradientUnits="userSpaceOnUse" x1="-247.848" y1="466.599" x2="-246.934" y2="466.599" gradientTransform="scale(-19.279 19.279) rotate(54.42 307.177 466.324)"><stop offset="0" stop-color="#c20a6c"/><stop offset=".472" stop-color="#e3097e"/><stop offset="1" stop-color="#e3097e"/></linearGradient><path clip-path="url(#ae)" fill="url(#af)" d="M316 295.9l-11.2 15.6-15.1-10.9 11.2-15.6z"/></g><g><defs><path id="ag" d="M14.2 152.6c-.7.2-1 .5-1.1.6l31.6 120.1c1.1-.4 2.3-.7 3.4-.8l-.4-1.3-32.3-118.7c-.1 0-.2-.1-.4-.1-.2.1-.5.1-.8.2m-3.3-8.1c.3-.1.6-.2 1-.3.3-.1.6-.1.9-.2-1.6-4.4-2.5-6.4-3-7.4 0 1.2.3 3.6 1.1 7.9"/></defs><clipPath id="ah"><use xlink:href="#ag" overflow="visible"/></clipPath><linearGradient id="ai" gradientUnits="userSpaceOnUse" x1="-252.628" y1="476.82" x2="-251.714" y2="476.82" gradientTransform="scale(-200.2937 200.2937) rotate(-73.508 -444.675 70.22)"><stop offset="0" stop-color="#585857"/><stop offset=".193" stop-color="#7a7877"/><stop offset="1" stop-color="#d9d9d9"/></linearGradient><path clip-path="url(#ah)" fill="url(#ai)" d="M12.9 283.7l-40.3-136.1L45 126.1l40.3 136.2z"/></g><g><defs><path id="aj" d="M317 122.1l-11.2 125.8h1.2c.7 0 1.5 0 2.3.1l.2-2.7 9.9-123.1c-.1-.1-.4-.3-1.2-.4h-.3c-.5.1-.8.3-.9.3m.9-8.9h1c.3 0 .6.1 1 .1 0-4.7-.2-6.9-.3-8-.4 1.2-1 3.6-1.7 7.9"/></defs><clipPath id="ak"><use xlink:href="#aj" overflow="visible"/></clipPath><linearGradient id="al" gradientUnits="userSpaceOnUse" x1="-252.989" y1="476.903" x2="-252.076" y2="476.903" gradientTransform="scale(227.795 -227.795) rotate(84.289 138.339 378.341)"><stop offset="0" stop-color="#585857"/><stop offset=".193" stop-color="#7a7877"/><stop offset="1" stop-color="#d9d9d9"/></linearGradient><path clip-path="url(#ak)" fill="url(#al)" d="M291.7 246.6L305.9 104l28.2 2.8-14.3 142.6z"/></g><g><defs><path id="am" d="M101.9 5.6c-3.4 1.8-7.5 5.8-8.6 11.4-1.2 6.1 1.1 12.7 7 19.8 26 31.6 34.7 42.6 37.5 46.2 1-1 2.3-2 4-3 2.6-1.6 5.9-2.4 9.5-2.4 2.1 0 4.4.3 6.6.8 1.9.5 3.6 1.6 4.1 2.5 0 .1.1.2.1.3 7.2 3.1 13.7 14 18.5 22 1 1.6 1.9 3.1 2.7 4.4.3.4.5.8.8 1.3 2.7 4.1 6.7 10.3 6.8 16.9.3.2.6.5.8 1 .9 2.4-.8 9-4 11.8-2 1.7-4.1 2.4-5.5 2.7 1.3 1.6 2.4 3.1 3.1 3.9 3.9-3.9 9.8-9.9 14.6-14.4L162.3 70c-.1-.1-4.5-8.1-30.4-56.1C127 5 120.1 2.6 114.1 2.6c-6.4 0-11.7 2.8-12.2 3"/></defs><clipPath id="an"><use xlink:href="#am" overflow="visible"/></clipPath><linearGradient id="ao" gradientUnits="userSpaceOnUse" x1="-252.398" y1="476.931" x2="-251.484" y2="476.931" gradientTransform="scale(-171.9951 171.9951) rotate(-60.255 -536.944 22.342)"><stop offset="0" stop-color="#c20a6c"/><stop offset=".472" stop-color="#e3097e"/><stop offset="1" stop-color="#e3097e"/></linearGradient><path clip-path="url(#an)" fill="url(#ao)" d="M118.7 191.8l-88-154.1 142.7-81.5 88 154z"/></g><g><defs><path id="ap" d="M291.6 28.9c-4.6 2.4-7.9 6.8-9.8 13.2-15.8 53.7-18.2 58.9-18.3 59.1l-1.8 4.7c2.1.2 4.3.8 6.6 1.8 6 2.7 9.9 8.8 10.6 13.4.2 1.5-.1 3.5-.8 4.4l-.3.3c0 3.2-1.1 6.2-2.2 9-.2.6-.4 1.1-.6 1.7-3.3 9.3-8.1 18.3-12.4 26.2-1.4 2.6-2.7 5.1-3.9 7.4.6 1.7-1 4.8-3.6 6.9-1.8 1.4-4.3 1.8-5.6 1.9.4 1.8.7 3.9.7 6.1.2 15.6-5.2 19.8-5.4 20-.2.1-.4.2-.7.1-.2-.1-.4-.2-.5-.4l-2.1-4.8c-.3 3.7-1.6 9.9-6 16.8-3.5 5.5-6.9 8.6-9.2 10.2 2.1-.1 4.2-.1 6.4-.1 3.1 0 6.3.1 9.1.3 4.6-19.7 13.2-40.4 13.3-40.6l33.7-74.2c.1-.1 4.3-8.7 29.6-56.5 3.4-6.3 4-12.1 2.1-17.1-2.4-6-7.9-9.3-10.5-10.1-1.8-.6-5.3-1.6-9.2-1.6-3-.2-6.2.3-9.2 1.9"/></defs><clipPath id="aq"><use xlink:href="#ap" overflow="visible"/></clipPath><linearGradient id="ar" gradientUnits="userSpaceOnUse" x1="-253.242" y1="476.808" x2="-252.329" y2="476.808" gradientTransform="scale(229.0313 -229.0313) rotate(68.663 223.686 424.07)"><stop offset="0" stop-color="#c20a6c"/><stop offset=".472" stop-color="#e3097e"/><stop offset="1" stop-color="#e3097e"/></linearGradient><path clip-path="url(#aq)" fill="url(#ar)" d="M158.5 200.4L239.1-5.8l151.2 59.1-80.6 206.2z"/></g><g><defs><path id="as" d="M249.1 177.3c1.1 0 3.4-.3 5.1-1.5 2.7-2.1 3.5-4.7 3.1-5.2-.2-.2-.9-.1-1.9 0-1.1.2-2.7.4-4.8.3-2.1 0-3.8-.2-5-.5 1.4 1.9 2.7 4.2 3.5 6.9"/></defs><clipPath id="at"><use xlink:href="#as" overflow="visible"/></clipPath><linearGradient id="au" gradientUnits="userSpaceOnUse" x1="-259.893" y1="480.278" x2="-258.979" y2="480.278" gradientTransform="scale(24.2756 -24.2756) rotate(28.402 838.585 769.508)"><stop offset="0" stop-color="#585857"/><stop offset=".193" stop-color="#7a7877"/><stop offset="1" stop-color="#d9d9d9"/></linearGradient><path clip-path="url(#at)" fill="url(#au)" d="M242.6 171.9l12.3-6.7 5.7 10.5-12.3 6.7z"/></g><g><defs><path id="av" d="M255.8 146.5c.7.3 2 .8 3.5 1.7 1.7 1 2.9 1.8 3.6 2.3l3.6-7.5c-.6-.7-2.3-2.5-5.8-4.6-2.2-1.4-4.4-2.1-5.7-2.5.7 3.2.9 7.1.8 10.6"/></defs><clipPath id="aw"><use xlink:href="#av" overflow="visible"/></clipPath><linearGradient id="ax" gradientUnits="userSpaceOnUse" x1="-258.906" y1="473.55" x2="-257.992" y2="473.55" gradientTransform="scale(30.8436 -30.8436) rotate(-25.259 -1191.91 -360.474)"><stop offset="0" stop-color="#585857"/><stop offset=".193" stop-color="#7a7877"/><stop offset="1" stop-color="#d9d9d9"/></linearGradient><path clip-path="url(#aw)" fill="url(#ax)" d="M257 131.4l15.1 7.1-7.8 16.4-15-7.1z"/></g><g><defs><path id="ay" d="M254.1 108.8c-.9.4-2.8 1.8-3.4 2.4.4.3 1.4.5 2.6.7 2.2.4 5.4 1 9.9 2.9 4.2 1.8 7.5 4.7 9.9 6.9 1.6 1.4 3.1 2.8 3.9 2.8.3-.4.7-1.9.5-3.2-.6-4.2-4.2-9.7-9.7-12.2-2.6-1.2-5-1.8-7.4-1.8-2.1 0-4.2.5-6.3 1.5"/></defs><clipPath id="az"><use xlink:href="#ay" overflow="visible"/></clipPath><linearGradient id="aA" gradientUnits="userSpaceOnUse" x1="-258.278" y1="476.663" x2="-257.364" y2="476.663" gradientTransform="scale(37.1173 -37.1173) rotate(4.921 5456.982 3316.936)"><stop offset="0" stop-color="#585857"/><stop offset=".193" stop-color="#7a7877"/><stop offset="1" stop-color="#d9d9d9"/></linearGradient><path clip-path="url(#az)" fill="url(#aA)" d="M249.3 107.4l28.3-2.4 1.6 19.4-28.2 2.4z"/></g><g><defs><path id="aB" d="M154.8 104.4c-6.3 2.9-8.6 5.9-9.3 6.9.1.1.2.2.3.4 1.2-.8 2.9-1.6 5.2-2.4 1.6-.5 3.4-.7 5.1-.7 3.6 0 7.2.9 10.1 2 .7-.4 2.2-1.3 3.8-2.2 1.9-1 3.9-2.5 4.8-3.2l-3.5-6.3c-2.2.5-10.6 2.8-16.5 5.5"/></defs><clipPath id="aC"><use xlink:href="#aB" overflow="visible"/></clipPath><linearGradient id="aD" gradientUnits="userSpaceOnUse" x1="-256.199" y1="478.075" x2="-255.286" y2="478.075" gradientTransform="scale(49.4318 -49.4318) rotate(30.077 767.518 719.602)"><stop offset="0" stop-color="#585857"/><stop offset=".193" stop-color="#7a7877"/><stop offset="1" stop-color="#d9d9d9"/></linearGradient><path clip-path="url(#aC)" fill="url(#aD)" d="M140 102.1l27.5-16 12.9 22.3-27.5 16z"/></g><g><defs><path id="aE" d="M186.6 131c-.7.9-1.4 1.7-2 2.2-2.4 2.5-4.4 3.6-5.6 4.2.6.8 1.4 1.7 2.1 2.6.9-.1 3.3-.6 5.5-2.5 2.4-2 3.8-6.6 3.7-9.1 0-.8-.2-1.1-.3-1.2-.5.3-2.4 2.6-3.4 3.8"/></defs><clipPath id="aF"><use xlink:href="#aE" overflow="visible"/></clipPath><linearGradient id="aG" gradientUnits="userSpaceOnUse" x1="-257.107" y1="481.454" x2="-256.193" y2="481.454" gradientTransform="scale(28.1506 -28.1506) rotate(49.804 398.709 521.68)"><stop offset="0" stop-color="#585857"/><stop offset=".193" stop-color="#7a7877"/><stop offset="1" stop-color="#d9d9d9"/></linearGradient><path clip-path="url(#aF)" fill="url(#aG)" d="M172.8 134.7l11-13 12.9 10.9-11 13.1z"/></g><g><defs><path id="aH" d="M151.3 79.2c-3.4 0-6.3.7-8.7 2.2-5.4 3.2-6.6 6.3-6.8 10.9-.1 1.8.1 2.3.2 2.4h.1c.2-.1.7-.6 1.2-1 1.4-1.2 3.9-3.2 8.3-5.7 3.1-1.7 6.5-2.9 9.3-3.8 2.6-.9 5-1.7 5.7-2.5-.3-.4-1.4-1.2-3-1.6-2.1-.6-4.3-.9-6.3-.9z"/></defs><clipPath id="aI"><use xlink:href="#aH" overflow="visible"/></clipPath><linearGradient id="aJ" gradientUnits="userSpaceOnUse" x1="-255.889" y1="477.72" x2="-254.975" y2="477.72" gradientTransform="scale(54.8283 -54.8283) rotate(29.799 774.426 722.887)"><stop offset="0" stop-color="#585857"/><stop offset=".193" stop-color="#7a7877"/><stop offset="1" stop-color="#d9d9d9"/></linearGradient><path clip-path="url(#aI)" fill="url(#aJ)" d="M129 83l25.4-14.5 12.8 22.3-25.4 14.6z"/></g><g><defs><path id="aK" d="M155.4 85.6c-2.8 1-6.1 2-9 3.7-4.3 2.4-6.7 4.4-8.1 5.6-.6.5-1 .8-1.3 1 .9 4.6 4.9 10.4 7.7 14.2 1.1-1.5 3.7-4.3 9.6-7 6.9-3.2 17.2-5.8 17.3-5.8h.2c.3 0 .5.1.7.4l4.2 7.4c.2.3.1.8-.2 1-.1.1-2.9 2.2-5.6 3.7-1 .5-2 1.1-2.7 1.5 2.9 1.2 4.9 2.3 5.1 2.4.4.2.5.7.3 1.1-.2.4-.7.5-1.1.3-.1-.1-12.1-7-20.8-4.2-2.2.7-3.7 1.4-4.7 2.1.1.1.2.2.2.3 2.3-1 4.8-1.4 7.3-1.4 6 0 11.6 2.3 12.6 2.7 5.6 2.4 9.3 5.8 10.9 10.2 2 5.1.5 9.8-.1 11.3l.3.3c.9-.4 2.9-1.4 5.5-4 .5-.5 1.2-1.3 1.9-2.1 1.7-2.1 3-3.5 4-4-.2-6.2-4-12.1-6.6-16.1-.3-.5-.6-.9-.8-1.3-.8-1.3-1.7-2.8-2.7-4.5-4.7-7.8-11-18.4-17.7-21.4-1.3.8-3.5 1.6-6.4 2.6"/></defs><clipPath id="aL"><use xlink:href="#aK" overflow="visible"/></clipPath><linearGradient id="aM" gradientUnits="userSpaceOnUse" x1="-250.335" y1="472.046" x2="-249.422" y2="472.046" gradientTransform="scale(-40.2773 40.2773) rotate(54.42 329.491 476.368)"><stop offset="0" stop-color="#0075be"/><stop offset=".393" stop-color="#0075be"/><stop offset=".63" stop-color="#008ed4"/><stop offset=".822" stop-color="#009ee2"/><stop offset="1" stop-color="#009ee2"/></linearGradient><path clip-path="url(#aL)" fill="url(#aM)" d="M214.7 100.8L171.6 161l-60-42.9 43.1-60.2z"/></g><g><defs><path id="aN" d="M245.2 120.4c1.3 1.9 2.2 3.8 2.7 5.5 1.2.5 4.4 2.3 6.5 7.9 0 .1 0 .1.1.2 1.1.3 3.9 1.1 7 3 4.9 3 6.5 5.3 6.6 5.4.1.2.2.5.1.8L264 152c-.1.2-.3.4-.5.4-.2.1-.5 0-.7-.1 0 0-1.4-1.1-4.2-2.8-1.1-.6-2.1-1.1-2.8-1.4-.2 3.9-.7 6.9-.7 7.2-.1.4-.5.7-.9.6-.4-.1-.7-.5-.6-.9 0-.1 2.1-13.3-.6-20.6-1.4-3.8-3.3-5.6-4.6-6.5 1 5.5.4 11.4-1.8 18.8-2.1 7.1-5.3 11.5-9.4 13-3.4 1.2-6.5.1-7.8-.6-.3.6-.6 1.2-.9 1.7 2.7.4 9.7 2 15.1 7.2h.1s2 1.2 7.1 1.3c2 0 3.5-.2 4.6-.3 1-.1 1.8-.2 2.5-.1 1.1-2.2 2.4-4.5 3.7-7 4.3-7.9 9.1-16.8 12.3-26 .2-.6.4-1.2.6-1.7 1-2.7 2-5.4 2.1-8.3-1.2-.3-2.6-1.5-4.4-3.1-2.4-2.2-5.5-4.9-9.4-6.6-4.3-1.8-7.5-2.4-9.6-2.8-1.5-.3-2.5-.5-3.2-1-3.1 2.5-4.5 6.9-4.8 8"/></defs><clipPath id="aO"><use xlink:href="#aN" overflow="visible"/></clipPath><linearGradient id="aP" gradientUnits="userSpaceOnUse" x1="-251.351" y1="473.493" x2="-250.438" y2="473.493" gradientTransform="scale(-66.9449 66.9449) rotate(54.42 331.064 478.17)"><stop offset="0" stop-color="#0075be"/><stop offset=".393" stop-color="#0075be"/><stop offset=".63" stop-color="#008ed4"/><stop offset=".822" stop-color="#009ee2"/><stop offset="1" stop-color="#009ee2"/></linearGradient><path clip-path="url(#aO)" fill="url(#aP)" d="M303.4 131.7l-43.3 60.4-58.7-42 43.2-60.4z"/></g><g><defs><path id="aQ" d="M159.5 219.7c-16.5.4-30.6 15-32.7 24.5-1.7 7.7 2.2 17.4 3.8 20.9 1.9-3.5 4.3-7.1 7.4-10.2 9.1-9.4 18.6-15.6 28.3-18.4H166.6c10 1.3 20.3 5.9 30.8 13.7 8.5 6.4 13.5 15.3 16.1 21.3 0 0 3.4-2.1 5.1-3.9 2.7-2.8.3-6.7-.4-7.9-1.6 0-6.8-.7-12.8-9-5.6-7.7-22.4-31-45.3-31h-.6"/></defs><clipPath id="aR"><use xlink:href="#aQ" overflow="visible"/></clipPath><linearGradient id="aS" gradientUnits="userSpaceOnUse" x1="-251.732" y1="477.802" x2="-250.819" y2="477.802" gradientTransform="matrix(-39 -76.0001 -76.0001 39.0001 26687.346 -37484.008)"><stop offset="0" stop-color="#0075be"/><stop offset=".393" stop-color="#0075be"/><stop offset=".63" stop-color="#008ed4"/><stop offset=".822" stop-color="#009ee2"/><stop offset="1" stop-color="#009ee2"/></linearGradient><path clip-path="url(#aR)" fill="url(#aS)" d="M145.2 310.6l-41.1-80.1 97.2-49.9 41.1 80.1z"/></g><g><defs><path id="aT" d="M219.9 268.6c-1.9 2-5.3 4-5.4 4.1-.1.1-.2.1-.3.1 1.1 2.7 1.6 4.6 1.7 4.8v.2c0 .1-.4 8.2-2.9 16.8 1.1 2.3 9.1 18.9 17.7 35 2.1 4 5.5 5.4 7.7 5.4 4.2 0 10.6-4.5 16.3-8.5.9-.7 1.9-1.3 2.8-1.9 3.2-2.3 6.2-4.2 8.9-6 6.2-4.1 10.7-7 12.3-9.6 3-4.7 1.9-9.3-3.3-14.8-10.4-10.8-23.2-23.3-39.2-33.2-8-.9-13.5-1.2-16-1.4 1.3 2.5 2.3 6.2-.3 9"/></defs><clipPath id="aU"><use xlink:href="#aT" overflow="visible"/></clipPath><linearGradient id="aV" gradientUnits="userSpaceOnUse" x1="-254.47" y1="473.858" x2="-253.556" y2="473.858" gradientTransform="scale(75.316 -75.316) rotate(-61.734 -524.984 19.855)"><stop offset="0" stop-color="#0075be"/><stop offset=".393" stop-color="#0075be"/><stop offset=".63" stop-color="#008ed4"/><stop offset=".822" stop-color="#009ee2"/><stop offset="1" stop-color="#009ee2"/></linearGradient><path clip-path="url(#aU)" fill="url(#aV)" d="M266.3 231.1l46.8 87.1-84.7 45.6-46.8-87.2z"/></g><g><defs><path id="aW" d="M211.9 298.5c.1 1.6 1 14.2-2.6 27.2l15.8-3.4c-5.8-11.2-10.7-21.3-12.7-25.3-.2.4-.4.9-.5 1.5"/></defs><clipPath id="aX"><use xlink:href="#aW" overflow="visible"/></clipPath><linearGradient id="aY" gradientUnits="userSpaceOnUse" x1="-249.855" y1="470.159" x2="-248.941" y2="470.159" gradientTransform="scale(-29.7684 29.7684) rotate(54.42 318.637 475.889)"><stop offset="0" stop-color="#0075be"/><stop offset=".393" stop-color="#0075be"/><stop offset=".63" stop-color="#008ed4"/><stop offset=".822" stop-color="#009ee2"/><stop offset="1" stop-color="#009ee2"/></linearGradient><path clip-path="url(#aX)" fill="url(#aY)" d="M238.7 306.6l-19 26.6-24.1-17.3 19-26.5z"/></g><g><path fill="#EDEDED" d="M197.8 340.8c1.7-3.5 3.9-9.2 4.5-13.5 1-6.8 1-11.8.8-14.3-4.4 5.7-8.7 9.7-11.6 12 1.1 6.5 2.7 12.6 4.6 18.5.7-.8 1.2-1.7 1.7-2.7M142.3 317.8c.3 2.5 1 7.5 3.1 14 1.3 4.1 4.3 9.5 6.6 12.6.1.2.3.4.4.6 2.3-4.8 4.1-10.2 5.5-16-2.7-1.3-8.9-4.8-15.6-11.2"/><defs><path id="aZ" d="M138.1 224.8h82.6v48h-82.6z"/></defs><clipPath id="ba"><use xlink:href="#aZ" overflow="visible"/></clipPath><g clip-path="url(#ba)"><defs><path id="bb" d="M138.1 255.5s3.5-10.6 6-13.2c10.7-11.2 27.2-4.9 33.6-11.1 3.9-3.8 2.5-6.4 2.5-6.4s13.1 7.3 20.5 18.4c2.4 3.5 9 11.6 12.4 14.1 1.5 1.1 6 1.6 6 1.6s2.2 5 1.5 7.1c-.7 2.1-7.1 6.9-7.1 6.9s-6.1-14.1-13.2-19.4c-6.7-5-12.9-9.6-20.6-12.8-1.1-.4-12.7-3.3-12.7-3.3s-11.6 3.9-17.1 8.3c-2.9 2.1-11.8 9.8-11.8 9.8"/></defs><clipPath id="bd"><use xlink:href="#bb" overflow="visible"/></clipPath><defs><filter id="bc" filterUnits="userSpaceOnUse" x="118.8" y="191.5" width="121.6" height="114.7"><feColorMatrix values="1 0 0 0 0 0 1 0 0 0 0 0 1 0 0 0 0 0 1 0"/></filter></defs><mask maskUnits="userSpaceOnUse" x="118.8" y="191.5" width="121.6" height="114.7" id="bf"><g filter="url(#bc)"><linearGradient id="be" gradientUnits="userSpaceOnUse" x1="-254.621" y1="475.388" x2="-253.707" y2="475.388" gradientTransform="scale(108.9912 -108.9912) rotate(-26.614 -1136.135 -304.51)"><stop offset="0" stop-color="#fff"/><stop offset=".245" stop-color="#ddd"/><stop offset=".783" stop-color="#888"/><stop offset="1" stop-color="#636363"/></linearGradient><path clip-path="url(#bd)" fill="url(#be)" d="M154.8 191.5l85.7 43-36 71.7-85.7-43z"/></g></mask><linearGradient id="bg" gradientUnits="userSpaceOnUse" x1="-254.621" y1="475.388" x2="-253.707" y2="475.388" gradientTransform="scale(108.9912 -108.9912) rotate(-26.614 -1136.135 -304.51)"><stop offset="0" stop-color="#0075be"/><stop offset=".833" stop-color="#0097dc"/><stop offset="1" stop-color="#009ee2"/></linearGradient><path clip-path="url(#bd)" mask="url(#bf)" fill="url(#bg)" d="M154.8 191.5l85.7 43-36 71.7-85.7-43z"/></g><defs><path id="bh" d="M212.2 258.9h48.9v62.7h-48.9z"/></defs><clipPath id="bi"><use xlink:href="#bh" overflow="visible"/></clipPath><g clip-path="url(#bi)"><defs><path id="bj" d="M237.4 260.3s10.1 7.1 13.2 9.6c2.8 2.3 10.6 9.4 10.6 9.4s-12.1 31.2-19.6 39.8c-6.6 7.6-19.3-4.6-19.3-4.6l-10-20.4s1.7-5.7 2-7.9c.4-2.2.9-9.3.9-9.3l-1.7-4.2s6.4-4.4 7.1-6.9c.5-2-1.5-7.1-1.5-7.1l18.3 1.6z"/></defs><clipPath id="bl"><use xlink:href="#bj" overflow="visible"/></clipPath><defs><filter id="bk" filterUnits="userSpaceOnUse" x="188.7" y="242" width="95.9" height="101.7"><feColorMatrix values="1 0 0 0 0 0 1 0 0 0 0 0 1 0 0 0 0 0 1 0"/></filter></defs><mask maskUnits="userSpaceOnUse" x="188.7" y="242" width="95.9" height="101.7" id="bn"><g filter="url(#bk)"><linearGradient id="bm" gradientUnits="userSpaceOnUse" x1="-255.965" y1="470.36" x2="-255.052" y2="470.36" gradientTransform="scale(31.2583 -31.2583) rotate(-68.085 -478.747 36.184)"><stop offset="0" stop-color="#fff"/><stop offset=".245" stop-color="#ddd"/><stop offset=".783" stop-color="#888"/><stop offset="1" stop-color="#636363"/></linearGradient><path clip-path="url(#bl)" fill="url(#bm)" d="M254.3 242l30.3 75.3-65.6 26.4-30.3-75.3z"/></g></mask><linearGradient id="bo" gradientUnits="userSpaceOnUse" x1="-255.965" y1="470.36" x2="-255.052" y2="470.36" gradientTransform="scale(31.2583 -31.2583) rotate(-68.085 -478.747 36.184)"><stop offset="0" stop-color="#0075be"/><stop offset=".833" stop-color="#0097dc"/><stop offset="1" stop-color="#009ee2"/></linearGradient><path clip-path="url(#bl)" mask="url(#bn)" fill="url(#bo)" d="M254.3 242l30.3 75.3-65.6 26.4-30.3-75.3z"/></g><defs><path id="bp" d="M210.1 294.2H224v27h-13.9z"/></defs><clipPath id="bq"><use xlink:href="#bp" overflow="visible"/></clipPath><g clip-path="url(#bq)"><defs><path id="br" d="M212.2 294.2l11.8 24.7s-4.7 1.3-9.1 2.2c-4.9 1-4.7-2.7-4.7-2.7s1.2-7 1.1-9.7c-.1-2.3 0-10.2 0-10.2l.9-4.3z"/></defs><clipPath id="bt"><use xlink:href="#br" overflow="visible"/></clipPath><defs><filter id="bs" filterUnits="userSpaceOnUse" x="197.5" y="287.9" width="39" height="40.4"><feColorMatrix values="1 0 0 0 0 0 1 0 0 0 0 0 1 0 0 0 0 0 1 0"/></filter></defs><mask maskUnits="userSpaceOnUse" x="197.5" y="287.9" width="39" height="40.4" id="bv"><g filter="url(#bs)"><linearGradient id="bu" gradientUnits="userSpaceOnUse" x1="-250.132" y1="469.795" x2="-249.219" y2="469.795" gradientTransform="scale(-28.8696 28.8696) rotate(58.124 284.482 458.127)"><stop offset="0" stop-color="#fff"/><stop offset=".245" stop-color="#ddd"/><stop offset=".783" stop-color="#888"/><stop offset="1" stop-color="#636363"/></linearGradient><path clip-path="url(#bt)" fill="url(#bu)" d="M236.4 302L220 328.3l-22.5-14 16.4-26.4z"/></g></mask><linearGradient id="bw" gradientUnits="userSpaceOnUse" x1="-250.132" y1="469.795" x2="-249.219" y2="469.795" gradientTransform="scale(-28.8696 28.8696) rotate(58.124 284.482 458.127)"><stop offset="0" stop-color="#0075be"/><stop offset=".833" stop-color="#0097dc"/><stop offset="1" stop-color="#009ee2"/></linearGradient><path clip-path="url(#bt)" mask="url(#bv)" fill="url(#bw)" d="M236.4 302L220 328.3l-22.5-14 16.4-26.4z"/></g><defs><path id="bx" d="M210.1 178.8h26.5v49.4h-26.5z"/></defs><clipPath id="by"><use xlink:href="#bx" overflow="visible"/></clipPath><path clip-path="url(#by)" fill="#EDEDED" d="M211.1 228.3s-1.5-28.9-.8-32.5c1-4.6 8.5-16.9 8.5-16.9s10.9 8.4 11 12.6c0 3.4-5.5 12.1-5.5 12.1s2-8.8-4.2-11.9c-3.5-1.8-4.8 7.8-5 11-.3 4.4.4 11.1 6.5 13.7 6.9 2.9 15.1-3.2 15.1-3.2s-5.1 7.6-6.7 9.3c-1.4 1.4-5.9 5-5.9 5l-13 .8z"/><defs><path id="bz" d="M221 161.1h28.5v42.4H221z"/></defs><clipPath id="bA"><use xlink:href="#bz" overflow="visible"/></clipPath><path clip-path="url(#bA)" fill="#EDEDED" d="M221 172.8s5.4 1 8.9 7.5c4.7 8.6 5.4 23.3 5.4 23.3l7.3-19 5.9 12.6s3.6-16.8-3.3-26.1c-6-8.2-18.9-10-18.9-10l-5.3 11.7z"/><defs><path id="bB" d="M141.2 112.4h44.1v49.7h-44.1z"/></defs><clipPath id="bC"><use xlink:href="#bB" overflow="visible"/></clipPath><path clip-path="url(#bC)" fill="#EDEDED" d="M185.3 146.7s-4.5 4.2-5.4 5.1c-3 3.1-14.4 10.2-14.4 10.2s9.3-12.9 9.3-16.7c0-6.1-8.3-19.5-19.9-26-6.1-3.4-13.7.7-13.7.7s-.1-3.8 6.9-6.8c4.7-2.1 15.5.1 19 2 17.1 9.3 9.4 20.6 9.4 20.6l8.8 10.9z"/><defs><path id="bD" d="M141.5 62.6h59.3v83.9h-59.3z"/></defs><clipPath id="bE"><use xlink:href="#bD" overflow="visible"/></clipPath><g clip-path="url(#bE)"><defs><path id="bF" d="M200.9 130.9s-11.7-19.3-15.5-25.6c-6.4-10.5-26.2-42.7-26.2-42.7s.4 5.5-.5 5.9c-4.6 1.6-11.7 2.8-14.3 5.6-2.3 2.4-2.8 7.1-2.8 7.1s7-4 14.3-2.4c3.6.8 5.7 3.1 5.7 3.1s2.9 1.3 5.5 3.9c2.8 2.7 6.4 7.9 11.4 15.4 11.9 17.6 11.9 25.1 11.9 25.1s3.2 7-4.3 12.8c-1.8 1.4-5.4 2-5.4 2l4.8 5.5 15.4-15.7z"/></defs><clipPath id="bH"><use xlink:href="#bF" overflow="visible"/></clipPath><defs><filter id="bG" filterUnits="userSpaceOnUse" x="141.5" y="62.6" width="59.3" height="83.9"><feColorMatrix values="1 0 0 0 0 0 1 0 0 0 0 0 1 0 0 0 0 0 1 0"/></filter></defs><mask maskUnits="userSpaceOnUse" x="141.5" y="62.6" width="59.3" height="83.9" id="bJ"><g filter="url(#bG)"><linearGradient id="bI" gradientUnits="userSpaceOnUse" x1="-250.019" y1="475.907" x2="-249.105" y2="475.907" gradientTransform="matrix(-64.9424 0 0 64.9424 -16035.953 -30802.03)"><stop offset="0"/><stop offset="1" stop-color="#fff"/></linearGradient><path clip-path="url(#bH)" fill="url(#bI)" d="M141.5 62.6h59.3v83.9h-59.3z"/></g></mask><linearGradient id="bK" gradientUnits="userSpaceOnUse" x1="-250.019" y1="475.907" x2="-249.105" y2="475.907" gradientTransform="matrix(-64.9424 0 0 64.9424 -16035.955 -30802.031)"><stop offset="0" stop-color="#b20a63"/><stop offset="1" stop-color="#c7006d"/></linearGradient><path clip-path="url(#bH)" mask="url(#bJ)" fill="url(#bK)" d="M141.5 62.6h59.3v83.9h-59.3z"/></g><defs><path id="bL" d="M224.1 113.2h65v114.3h-65z"/></defs><clipPath id="bM"><use xlink:href="#bL" overflow="visible"/></clipPath><g clip-path="url(#bM)"><defs><path id="bN" d="M224.1 227.5s6.7-4.5 11.7-12.9c4.9-8.4 5.3-18 5.3-18l3.3 7.5s4.1-4.6 5.1-15.5c.2-2.7-1-10.3-1-10.3s3.3.5 5.7-1.6c5.4-4.6 3.8-7 3.8-7s9.5-17.5 12.2-22.9c7.4-14.7 7.4-21.4 7.4-21.4s1.1-1.4.9-4.4c-.1-1.5-2.8-6.6-2.8-6.6s4.8 2.7 8.7 3.9c1.5.5 4.6-5.2 4.6-5.2s-26.8 57.6-34.2 75.6c-7.4 18-12.6 38.7-12.6 38.7l-18.1.1z"/></defs><clipPath id="bP"><use xlink:href="#bN" overflow="visible"/></clipPath><defs><filter id="bO" filterUnits="userSpaceOnUse" x="181.1" y="88.7" width="150.9" height="163.2"><feColorMatrix values="1 0 0 0 0 0 1 0 0 0 0 0 1 0 0 0 0 0 1 0"/></filter></defs><mask maskUnits="userSpaceOnUse" x="181.1" y="88.7" width="150.9" height="163.2" id="bR"><g filter="url(#bO)"><linearGradient id="bQ" gradientUnits="userSpaceOnUse" x1="-253.484" y1="477.403" x2="-252.57" y2="477.403" gradientTransform="scale(134.4866 -134.4866) rotate(65.627 245.626 435.757)"><stop offset="0"/><stop offset="1" stop-color="#fff"/></linearGradient><path clip-path="url(#bP)" fill="url(#bQ)" d="M181.1 208l54-119.3 96.9 43.9-54 119.3z"/></g></mask><linearGradient id="bS" gradientUnits="userSpaceOnUse" x1="-253.484" y1="477.403" x2="-252.57" y2="477.403" gradientTransform="scale(134.4866 -134.4866) rotate(65.627 245.626 435.757)"><stop offset="0" stop-color="#b20a63"/><stop offset="1" stop-color="#c7006d"/></linearGradient><path clip-path="url(#bP)" mask="url(#bR)" fill="url(#bS)" d="M181.1 208l54-119.3 96.9 43.9-54 119.3z"/></g><defs><path id="bT" d="M304.8 183.3h10.9v65.9h-10.9z"/></defs><clipPath id="bU"><use xlink:href="#bT" overflow="visible"/></clipPath><path clip-path="url(#bU)" fill="#EDEDED" d="M304.8 248.5l5.4.7 5.5-65.9-6.7 17.6z"/><g><defs><path id="bV" d="M316.6 108.5h4.5v5.9h-4.5z"/></defs><clipPath id="bW"><use xlink:href="#bV" overflow="visible"/></clipPath><path clip-path="url(#bW)" fill="#EDEDED" d="M316.6 113.6l4.5.8-.3-5.9z"/></g><g><defs><path id="bX" d="M319.6 121.8h10.6v8.2h-10.6z"/></defs><clipPath id="bY"><use xlink:href="#bX" overflow="visible"/></clipPath><g clip-path="url(#bY)"><defs><path id="bZ" d="M319.9 121.8l10.3 4s-2.2 2.2-4.9 3.1c-2.3.7-5.7 1.1-5.7 1.1l.3-8.2z"/></defs><clipPath id="cb"><use xlink:href="#bZ" overflow="visible"/></clipPath><defs><filter id="ca" filterUnits="userSpaceOnUse" x="315.8" y="116.8" width="18.3" height="18.1"><feColorMatrix values="1 0 0 0 0 0 1 0 0 0 0 0 1 0 0 0 0 0 1 0"/></filter></defs><mask maskUnits="userSpaceOnUse" x="315.8" y="116.8" width="18.3" height="18.1" id="cd"><g filter="url(#ca)"><linearGradient id="cc" gradientUnits="userSpaceOnUse" x1="-243.434" y1="468.863" x2="-242.52" y2="468.863" gradientTransform="scale(-17.1943 17.1943) rotate(35.019 600.627 593.012)"><stop offset="0"/><stop offset="1" stop-color="#fff"/></linearGradient><path clip-path="url(#cb)" fill="url(#cc)" d="M334.1 127.3l-11 7.7-7.3-10.5 11-7.7z"/></g></mask><linearGradient id="ce" gradientUnits="userSpaceOnUse" x1="-243.434" y1="468.863" x2="-242.52" y2="468.863" gradientTransform="scale(-17.1943 17.1943) rotate(35.019 600.627 593.012)"><stop offset="0" stop-color="#b20a63"/><stop offset="1" stop-color="#c7006d"/></linearGradient><path clip-path="url(#cb)" mask="url(#cd)" fill="url(#ce)" d="M334.1 127.3l-11 7.7-7.3-10.5 11-7.7z"/></g></g><g><defs><path id="cf" d="M217.2 111.3h31v48.2h-31z"/></defs><clipPath id="cg"><use xlink:href="#cf" overflow="visible"/></clipPath><path clip-path="url(#cg)" fill="#EDEDED" d="M217.2 117.4s12.3-9.3 18.8-5c16.4 10.6 12.5 26.9 9.3 35.5-1.3 3.5-2.7 10.4-9.5 11.4-4.5.7-7-1.2-7-1.2s13.3-22.5 6.4-33.6c-7.7-12.5-18-7.1-18-7.1"/></g><g><defs><path id="ch" d="M299.8 289.8h10v14.5h-10z"/></defs><clipPath id="ci"><use xlink:href="#ch" overflow="visible"/></clipPath><g clip-path="url(#ci)"><defs><path id="cj" d="M309.6 304.4s-.2-2.2-4.1-3.6c-2-.7-5.7-.6-5.7-.6l1.6-5.8 6.2-4.5 2.2 1.8-.2 12.7z"/></defs><clipPath id="cl"><use xlink:href="#cj" overflow="visible"/></clipPath><defs><filter id="ck" filterUnits="userSpaceOnUse" x="299.8" y="289.8" width="10" height="14.5"><feColorMatrix values="1 0 0 0 0 0 1 0 0 0 0 0 1 0 0 0 0 0 1 0"/></filter></defs><mask maskUnits="userSpaceOnUse" x="299.8" y="289.8" width="10" height="14.5" id="cn"><g filter="url(#ck)"><linearGradient id="cm" gradientUnits="userSpaceOnUse" x1="-234.459" y1="473.798" x2="-233.545" y2="473.798" gradientTransform="matrix(-10.9961 0 0 10.9961 -2268.268 -4912.806)"><stop offset="0"/><stop offset="1" stop-color="#fff"/></linearGradient><path clip-path="url(#cl)" fill="url(#cm)" d="M299.8 289.8h10v14.5h-10z"/></g></mask><linearGradient id="co" gradientUnits="userSpaceOnUse" x1="-234.459" y1="473.798" x2="-233.545" y2="473.798" gradientTransform="matrix(-10.9961 0 0 10.9961 -2268.268 -4912.806)"><stop offset="0" stop-color="#b20a63"/><stop offset="1" stop-color="#c7006d"/></linearGradient><path clip-path="url(#cl)" mask="url(#cn)" fill="url(#co)" d="M299.8 289.8h10v14.5h-10z"/></g></g><g><defs><path id="cp" d="M293.4 244.9h32.4v52.5h-32.4z"/></defs><clipPath id="cq"><use xlink:href="#cp" overflow="visible"/></clipPath><path clip-path="url(#cq)" fill="#EDEDED" d="M307.7 289.8s-.5-6.3-2.1-7.4c-7.4-5.2-12.2-.2-12.2-.2s2.6-6.7 7.2-6.5c3.2.1 6.3 2.6 7.8 4.9 1.8 2.9 1.5 5.8 1.5 5.8l4.9 3.8s5.2 2.7 6.8-3.3c.6-2.2-1.9-7.2-3.3-9-2.4-3.2-11.5-10.1-11.5-10.1l9.8 5.9s3.4 1.6 3.4-2.3c0-6.4-1.8-9.6-1.8-9.6s1.8-.8 1.8-3.9c0-10.6-9.8-8.7-9.8-8.7l.4-4.3s6.9 5 8.6 7.1c1.5 1.9 4.5 4.9 5.2 9.1.2 1.3.6 5.4.6 5.4s.8 2.2.8 7.4c0 3.2-2.5 6.6-2.5 6.6s2.2 2.1-.2 10.1c-2.8 9.3-13 6.3-13 6.3l-.2-5.2-2.2-1.9z"/></g><g><defs><path id="cr" d="M256.3 229.8h48.9v21.5h-48.9z"/></defs><clipPath id="cs"><use xlink:href="#cr" overflow="visible"/></clipPath><path clip-path="url(#cs)" fill="#EDEDED" d="M300.8 251.3s-3.5-3.7-11.4-5.8c-2.5-.7-7.5-.3-7.5-.3l-25.6-15.4 15.8 5.6 15 5.9s6 .4 9.2.5c2.3.1 9 1.6 9 1.6l-.4 5.1s-1.5.3-2 .7c-.6.3-2.1 2.1-2.1 2.1"/></g><g><defs><path id="ct" d="M227.5 116.8h50.1v53.5h-50.1z"/></defs><clipPath id="cu"><use xlink:href="#ct" overflow="visible"/></clipPath><g clip-path="url(#cu)"><defs><path id="cv" d="M244.1 151l6.6 12.7s1.8-2.6 3-6.1c.9-2.6 1.2-10.6 1.2-10.6l8.2 4.3 4.2-8.6-6.4-5s6.4-10.3 7-13.9c.7-3.8-2.1-6.9-2.1-6.9s5.2 3.5 6.9 5.6c1.2 1.4 4.8 3 4.8 3s-3.7 15.8-10.3 27.1c-2.4 4-9.3 17.3-9.3 17.3s-5.5.6-7.4.6c-1.6 0-6.4-.6-6.4-.6s-5.4-4.4-7.6-5.4c-2.4-1.2-9.2-3-9.2-3l1.4-3.2s5.1 1.7 7 1.2c6.5-1.7 8.4-8.5 8.4-8.5"/></defs><clipPath id="cx"><use xlink:href="#cv" overflow="visible"/></clipPath><defs><filter id="cw" filterUnits="userSpaceOnUse" x="201.2" y="92.2" width="102.7" height="102.7"><feColorMatrix values="1 0 0 0 0 0 1 0 0 0 0 0 1 0 0 0 0 0 1 0"/></filter></defs><mask maskUnits="userSpaceOnUse" x="201.2" y="92.2" width="102.7" height="102.7" id="cz"><g filter="url(#cw)"><linearGradient id="cy" gradientUnits="userSpaceOnUse" x1="-257.047" y1="472.974" x2="-256.133" y2="472.974" gradientTransform="scale(39.309 -39.309) rotate(-39.495 -789.133 -132.214)"><stop offset="0" stop-color="#fff"/><stop offset=".245" stop-color="#ddd"/><stop offset=".783" stop-color="#888"/><stop offset="1" stop-color="#636363"/></linearGradient><path clip-path="url(#cx)" fill="url(#cy)" d="M247.8 92.2l56.1 46.3-46.6 56.5-56.1-46.3z"/></g></mask><linearGradient id="cA" gradientUnits="userSpaceOnUse" x1="-257.047" y1="472.974" x2="-256.133" y2="472.974" gradientTransform="scale(39.309 -39.309) rotate(-39.495 -789.133 -132.214)"><stop offset="0" stop-color="#0075be"/><stop offset=".833" stop-color="#0097dc"/><stop offset="1" stop-color="#009ee2"/></linearGradient><path clip-path="url(#cx)" mask="url(#cz)" fill="url(#cA)" d="M247.8 92.2l56.1 46.3-46.6 56.5-56.1-46.3z"/></g></g><g><defs><path id="cB" d="M244.2 169.7H258v8.2h-13.8z"/></defs><clipPath id="cC"><use xlink:href="#cB" overflow="visible"/></clipPath><path clip-path="url(#cC)" fill="#EDEDED" d="M244.2 169.7s2.2 3 2.7 4.1c.5 1 1.4 3.9 1.4 3.9s3 1 6.3-1.4c4.1-3.1 3.3-6.6 3.3-6.6s-5.7.7-7.4.6c-1.2 0-6.3-.6-6.3-.6"/></g><g><defs><path id="cD" d="M258.3 109.5H278v16h-19.7z"/></defs><clipPath id="cE"><use xlink:href="#cD" overflow="visible"/></clipPath><path clip-path="url(#cE)" fill="#EDEDED" d="M258.3 113.6s8 3.4 9.8 5.1c4.8 4.4 9.5 6.7 9.5 6.7s1.2-3.5-.7-8.6c-1.6-4.4-6-7.3-6-7.3s.1 2.1-2.5 3.7c-2 1.2-10.1.4-10.1.4"/></g><g><defs><path id="cF" d="M177.6 126.2h13.5V141h-13.5z"/></defs><clipPath id="cG"><use xlink:href="#cF" overflow="visible"/></clipPath><path clip-path="url(#cG)" fill="#EDEDED" d="M177.6 137.2s3.1-1 5.5-3.5c3.4-3.5 7.3-7.5 7.3-7.5s3.3 6.3-4 12.5c-1.1.9-5.7 2.3-5.7 2.3l-3.1-3.8z"/></g><g><defs><path id="cH" d="M146.5 81.8h44v55.1h-44z"/></defs><clipPath id="cI"><use xlink:href="#cH" overflow="visible"/></clipPath><g clip-path="url(#cI)"><defs><path id="cJ" d="M177 136.9s1.8-8.1.6-11.1c-2.7-7-8.4-9.4-8.4-9.4l3-2.3-6-2.8 9.6-5.6-4.3-7.6-12 4.3s-.4-8.2-4.2-11.7c-2.8-2.6-8.9-2.2-8.9-2.2s6.1-2.8 7.9-3.5c1.7-.7 7.1-3.2 7.1-3.2s3.1.9 8.5 7.3c2.8 3.4 7 9.9 11 15.8 9.7 14.6 9.4 21.2 9.4 21.2s-4.1 4.3-6.6 6.8c-4.2 4.3-6.7 4-6.7 4"/></defs><clipPath id="cL"><use xlink:href="#cJ" overflow="visible"/></clipPath><defs><filter id="cK" filterUnits="userSpaceOnUse" x="120.8" y="61.3" width="95.6" height="96.4"><feColorMatrix values="1 0 0 0 0 0 1 0 0 0 0 0 1 0 0 0 0 0 1 0"/></filter></defs><mask maskUnits="userSpaceOnUse" x="120.8" y="61.3" width="95.6" height="96.4" id="cN"><g filter="url(#cK)"><linearGradient id="cM" gradientUnits="userSpaceOnUse" x1="-259.618" y1="480.762" x2="-258.705" y2="480.762" gradientTransform="scale(23.2974 -23.2974) rotate(33.917 669.871 675.36)"><stop offset="0" stop-color="#fff"/><stop offset=".245" stop-color="#ddd"/><stop offset=".783" stop-color="#888"/><stop offset="1" stop-color="#636363"/></linearGradient><path clip-path="url(#cL)" fill="url(#cM)" d="M120.8 99.1L177 61.3l39.4 58.7-56.1 37.7z"/></g></mask><linearGradient id="cO" gradientUnits="userSpaceOnUse" x1="-259.618" y1="480.762" x2="-258.705" y2="480.762" gradientTransform="scale(23.2974 -23.2974) rotate(33.917 669.871 675.36)"><stop offset="0" stop-color="#0075be"/><stop offset=".833" stop-color="#0097dc"/><stop offset="1" stop-color="#009ee2"/></linearGradient><path clip-path="url(#cL)" mask="url(#cN)" fill="url(#cO)" d="M120.8 99.1L177 61.3l39.4 58.7-56.1 37.7z"/></g></g><g><defs><path id="cP" d="M142 78.3h19.5v11.5H142z"/></defs><clipPath id="cQ"><use xlink:href="#cP" overflow="visible"/></clipPath><path clip-path="url(#cQ)" fill="#EDEDED" d="M143.6 89.8l17.9-8s-1-2.6-8.5-3.5c-3.1-.4-11 2.5-11 2.5s-.2 1.7.3 4.4c.5 2.5 1.3 4.6 1.3 4.6"/></g><g><defs><path id="cR" d="M170.1 219.7h79.2v42.5h-79.2z"/></defs><clipPath id="cS"><use xlink:href="#cR" overflow="visible"/></clipPath><path clip-path="url(#cS)" fill="#EDEDED" d="M249.2 262.2s-6.9-5.5-18.2-8.3c-5.5-1.3-10.4-1.5-13.4-2.7-8.9-3.6-9.8-10-17.6-18-6.8-7-10.8-9.8-30-13.6 0 0 20 8.7 26.2 18.2 16.3 24.7 22.2 21 22.2 21s7.8.4 12 .8c4.5.6 18.8 2.6 18.8 2.6"/></g><g><defs><path id="cT" d="M94.8 230.5h36.5v12.8H94.8z"/></defs><clipPath id="cU"><use xlink:href="#cT" overflow="visible"/></clipPath><path clip-path="url(#cU)" fill="#EDEDED" d="M94.8 243.3s13.5-3.4 21.8-3.1c6.3.2 9.9 2.1 9.9 2.1s1.1-3 1.6-3.9c1.1-2 3.3-3.6 3.3-3.6v-4.2s-13.1 4.1-16.9 5.6c-4.7 1.6-19.7 7.1-19.7 7.1"/></g><g><defs><path id="cV" d="M204.2 170.5h17.4v57.7h-17.4z"/></defs><clipPath id="cW"><use xlink:href="#cV" overflow="visible"/></clipPath><path clip-path="url(#cW)" fill="#EDEDED" d="M211.1 228.3s-1.4-26.7-.2-32.7c1.5-7.2 10.6-25.1 10.6-25.1s-15.8 17.5-16.9 23.7c-2.6 15 6.5 34.1 6.5 34.1"/></g><g><defs><path id="cX" d="M48.6 259.6H69v17.5H48.6z"/></defs><clipPath id="cY"><use xlink:href="#cX" overflow="visible"/></clipPath><path clip-path="url(#cY)" fill="#EDEDED" d="M56.5 277.1s-.2-2.9 2.1-6.4c1.8-2.7 10.5-11.1 10.5-11.1s-6.8 4.7-8.7 5.5c-1.6.7-4.5 1.7-6.1 2.3-1.6.6-5.6 3.2-5.6 3.2l.4 2.2s2.3-.3 4.8 1c.8.6 2.6 3.3 2.6 3.3"/></g></g><g><defs><path id="cZ" d="M53.9 328.2s.9-1.9 3.4-3.3c2.4-1.4 5.7-1.4 5.7-1.4l-4-5.6-7.2-1.7 2.1 12z"/></defs><clipPath id="db"><use xlink:href="#cZ" overflow="visible"/></clipPath><defs><filter id="da" filterUnits="userSpaceOnUse" x="51.8" y="316.3" width="11.2" height="11.9"><feColorMatrix values="1 0 0 0 0 0 1 0 0 0 0 0 1 0 0 0 0 0 1 0"/></filter></defs><mask maskUnits="userSpaceOnUse" x="51.8" y="316.3" width="11.2" height="11.9" id="dd"><g filter="url(#da)"><linearGradient id="dc" gradientUnits="userSpaceOnUse" x1="-238.238" y1="473.827" x2="-237.324" y2="473.827" gradientTransform="matrix(-12.2324 0 0 12.2324 -2851.216 -5473.798)"><stop offset="0"/><stop offset="1" stop-color="#fff"/></linearGradient><path clip-path="url(#db)" fill="url(#dc)" d="M51.8 316.3H63v11.9H51.8z"/></g></mask><linearGradient id="de" gradientUnits="userSpaceOnUse" x1="-238.238" y1="473.827" x2="-237.324" y2="473.827" gradientTransform="matrix(-12.2324 0 0 12.2324 -2851.216 -5473.798)"><stop offset="0" stop-color="#b20a63"/><stop offset="1" stop-color="#c7006d"/></linearGradient><path clip-path="url(#db)" mask="url(#dd)" fill="url(#de)" d="M51.8 316.3H63v11.9H51.8z"/></g><g><defs><path id="df" d="M34.8 226.2H49v48H34.8z"/></defs><clipPath id="dg"><use xlink:href="#df" overflow="visible"/></clipPath><path clip-path="url(#dg)" fill="#EDEDED" d="M44.2 274.2l4.8-.9-12.5-47.1-1.7 12.4z"/><defs><path id="dh" d="M34.3 275.2h24.6v45.1H34.3z"/></defs><clipPath id="di"><use xlink:href="#dh" overflow="visible"/></clipPath><path clip-path="url(#di)" fill="#EDEDED" d="M55.6 317.2s-8-3.3-4.5-8.8c1.2-1.9 7.8-5.9 7.8-5.9s-4-.9-5.3-1.3c-1.8-.5-5.7 2.3-8.4.1-2.2-1.8-2.4-2.8-2.4-2.8s-1.7 1.1-3.6-5c-.6-2 .6-7.3.6-7.3s-1.2-.2-1.1-2.7c.1-2.2 3.2-8.3 3.2-8.3s-2.9 2.1-5.3 5c-3 3.7-1.8 10.3-1.8 10.3s-.7 4.6-.5 6.1c.7 4.5 4.3 9.1 4.3 9.1s-.3 3.9 2.7 7.8c1.5 1.9 4.6 4.6 6.8 5.8 1 .5 4.4.9 4.4.9l-.7-4.4 3.8 1.4z"/><g><defs><path id="dj" d="M9.2 141.1h5v4.7h-5z"/></defs><clipPath id="dk"><use xlink:href="#dj" overflow="visible"/></clipPath><path clip-path="url(#dk)" fill="#EDEDED" d="M10.1 145.8s4.2-1 4-1.2c-.2-.3-1.5-3.1-1.5-3.1l-3.5-.4 1 4.7z"/></g><g><defs><path id="dl" d="M16 152.1h10.9v7.3H16z"/></defs><clipPath id="dm"><use xlink:href="#dl" overflow="visible"/></clipPath><g clip-path="url(#dm)"><defs><path id="dn" d="M16 152.1l2.3 7.3s3.6-1.5 5.4-3.2c2.3-2.2 3.1-4.1 3.1-4.1H16z"/></defs><clipPath id="dp"><use xlink:href="#dn" overflow="visible"/></clipPath><defs><filter id="do" filterUnits="userSpaceOnUse" x="12.4" y="146.7" width="18.1" height="18"><feColorMatrix values="1 0 0 0 0 0 1 0 0 0 0 0 1 0 0 0 0 0 1 0"/></filter></defs><mask maskUnits="userSpaceOnUse" x="12.4" y="146.7" width="18.1" height="18" id="dr"><g filter="url(#do)"><linearGradient id="dq" gradientUnits="userSpaceOnUse" x1="-247.363" y1="468.654" x2="-246.449" y2="468.654" gradientTransform="scale(-18.9917 18.9917) rotate(49.779 372.334 503.016)"><stop offset="0"/><stop offset="1" stop-color="#fff"/></linearGradient><path clip-path="url(#dp)" fill="url(#dq)" d="M30.4 155.1l-8.1 9.7-9.9-8.5 8.1-9.6z"/></g></mask><linearGradient id="ds" gradientUnits="userSpaceOnUse" x1="-247.363" y1="468.654" x2="-246.449" y2="468.654" gradientTransform="scale(-18.9917 18.9917) rotate(49.779 372.334 503.016)"><stop offset="0" stop-color="#b20a63"/><stop offset="1" stop-color="#c7006d"/></linearGradient><path clip-path="url(#dp)" mask="url(#dr)" fill="url(#ds)" d="M30.4 155.1l-8.1 9.7-9.9-8.5 8.1-9.6z"/></g></g></g><g><defs><path id="dt" d="M167.1 244.4c-.3 0-3.6.2-6.4 2.2-3.3 2.4-5.2 6.1-5.3 6.3-.2.4 0 .9.3 1 .4.2.8 0 1-.3 0 0 1.8-3.6 4.8-5.7 2.5-1.8 5.5-1.9 5.6-1.9 0 0 3.1-.4 5.8 1 3.3 1.6 5.6 4.9 5.7 4.9.3.3.7.4 1.1.2.3-.2.4-.7.2-1.1-.1-.1-2.6-3.6-6.2-5.4-2.1-1-4.2-1.2-5.5-1.2-.5-.1-1-.1-1.1 0"/></defs><clipPath id="du"><use xlink:href="#dt" overflow="visible"/></clipPath><linearGradient id="dv" gradientUnits="userSpaceOnUse" x1="-252.742" y1="475.639" x2="-251.828" y2="475.639" gradientTransform="scale(-466.5997 466.5997) rotate(54.419 335.774 482.961)"><stop offset="0" stop-color="#585857"/><stop offset=".012" stop-color="#585857"/><stop offset=".292" stop-color="#5d5c5c"/><stop offset=".603" stop-color="#6a6a69"/><stop offset=".928" stop-color="#807f7f"/><stop offset="1" stop-color="#868585"/></linearGradient><path clip-path="url(#du)" fill="url(#dv)" d="M184.9 247.6l-13.1 18.3-21.2-15.1 13.1-18.4z"/></g><g><defs><path id="dw" d="M167.7 251.4s4.2-.4 7.7 2.3c-.5.2-1.1.5-1.8.7-1.5.5-3.1.3-4.1.1.1-.1.1-.2.1-.2.2-.4.1-.8-.2-1.1-.1-.1-.3-.1-.4-.1-.2 0-.5.1-.6.3-.1.1-1.5 2.1-5.8 2.1-.7 0-1.6-.3-2.2-.5l.1-.1c3-3.2 7.1-3.5 7.2-3.5m-.1-1.5c-.3 0-4.8.3-8.3 4-2.3 2.3-4.6 6.6-4.9 7.3l-.7.7c-1.7 2.1-3 5.4-3.5 6.7-.2 0-.5 0-.8.1-.9.3-1.2 1.1-1.2 1.2-.1.4.1.8.5 1 .4.1.8-.1 1-.5 0 0 .1-.2.2-.2.4-.1.8-.1.8-.1.4.1.7-.2.8-.5 0 0 1.5-4.4 3.5-6.7 3.2-3.9 10.5-3.4 12.7-3.2l.4 4.9c-1.3.3-4.2 1.3-7.1 3.5-4 3-5.9 6.6-5.3 10.1.2 1.3 1.1 4.4 5.5 6 3.3 1.2 9 .7 9.3.7.2 0 5.9-.5 9-2.1 4.1-2.2 4.5-5.5 4.5-6.7 0-3.6-2.4-6.8-6.8-9.2-3.2-1.7-6.3-2.2-7.6-2.3l-.4-4.9c2-.6 9.3-2.2 13.1 1.2 2.3 2 4.4 6.1 4.5 6.1.2.3.6.5.9.4 0 0 .4-.1.8-.1.1 0 .2.2.3.2.2.4.7.5 1 .3.4-.2.5-.7.3-1.1 0-.1-.5-.8-1.4-1h-.8c-.7-1.2-2.5-4.2-4.5-6-.3-.2-.5-.4-.8-.6-.5-.7-3.4-4.4-6-6.4-3.1-2.4-6.6-2.7-8.1-2.7-.6-.2-.9-.1-.9-.1"/></defs><clipPath id="dx"><use xlink:href="#dw" overflow="visible"/></clipPath><linearGradient id="dy" gradientUnits="userSpaceOnUse" x1="-252.742" y1="475.639" x2="-251.828" y2="475.639" gradientTransform="scale(-466.6126 466.6126) rotate(54.419 335.748 482.948)"><stop offset="0" stop-color="#585857"/><stop offset=".012" stop-color="#585857"/><stop offset=".292" stop-color="#5d5c5c"/><stop offset=".603" stop-color="#6a6a69"/><stop offset=".928" stop-color="#807f7f"/><stop offset="1" stop-color="#868585"/></linearGradient><path clip-path="url(#dx)" fill="url(#dy)" d="M206.9 261.8l-31 43.5-44.7-32 31-43.4z"/></g><g><defs><path id="dz" d="M54.6 327.7L52.8 317c3.5 1.3 8.2 2.4 12 2.6l1.8 4.9c-.7.8-2.8 2.7-5.5 3.4-.9.2-1.8.3-2.6.3-1.7 0-3.2-.3-3.9-.5m154.6-2.1c3.6-12.9 2.8-25.5 2.6-27.2.2-.5.4-1 .5-1.6 1.9 4 6.9 14.2 12.7 25.3l-15.8 3.5M39.4 308.5c-1.7-3.7 5.3-11.7 8.8-14 4.7-3.1 7.9-2.8 9.5-2.1h.1c.5.2.9.5 1.2.7-1.1 4.2-.6 7.1-.2 8.7-1.2-.4-2.3-.8-3.3-1.2-1.4-.5-2.8-.3-4.2.6-2.8 1.9-5 6.6-5 10.6 0 1.6 1.6 3.1 4.8 4.5l.5 3.1c-4.7 0-8.9-3.8-12.2-10.9m263.3-3.1c-2.7-.2-5.1-1.8-6-2.4l1.2-6.4c1.6-.5 3.2-1.2 4.9-2.1 1.8-1.1 3.6-2.3 4.9-3.6.3.2.8.5 1.3.8V304c-.9.4-3.1 1.4-5.6 1.4h-.7M35.9 290.7c2-3.3 10.6-8.5 16.2-9.3 1.7-.2 2.9 0 3.5.6 2.6 2.4 2.1 6.8 1.8 8.6-.6-.2-1.3-.3-2.1-.3-2 0-4.7.7-8 2.8-2.1 1.4-7.2 6.2-9 10.7-1.7-2.5-5.1-8.8-2.4-13.1m13.4-16.8c1.6-.2 2.9 0 3.8.4 2.8 1.6 2.8 4.4 2.6 5.9-.7-.3-1.4-.5-2.4-.5-.4 0-.9 0-1.4.1-5.3.7-13.4 5.2-16.6 9.1.3-3.5 1.3-8.6 3.7-10.8 1.5-1.3 3.4-2.3 5.3-3.1h.1c1.7-.6 3.3-1 4.9-1.1-.1 0-.1 0 0 0-.1 0-.1 0 0 0-.1 0 0 0 0 0m248.3-.7c.1-.3 1.1-3.5 6.3-4.9 3.5-.9 17.9 10.2 19.5 14.1 1.5 3.6-1.9 11.3-4 12.8-1.5 1.1-4.6 1.3-9 .6v-3.2c.9.6 2.7 1.6 2.8 1.7.4.2.8.1 1.1-.3.2-.4.1-.8-.3-1.1 0 0-2.4-1.4-3.1-1.8-.6-.4-1.6-1-2.3-1.4.7-.7 1.1-1.4 1.2-2 0-.1.1-.2.1-.3.4-1.3 1.2-4.2-1.8-7.8-1-1.2-4.7-5.1-8.7-4.4-.5.1-1 .3-1.4.5 0-.6-.2-1.5-.4-2.5m-1.5-4.6c0-.7.4-3.7 2.5-6.3.1-.1.2-.1.2-.2.3-.4.7-.7 1.1-1.1 1.6-1.4 6.3-1.5 11.5-.3 6.4 1.5 11.6 4.3 12.8 7.1 2 4.5-.2 10.2-.9 11.7-4.1-4.7-14.5-12.9-19-12.9-.3 0-.5 0-.8.1-3.7 1-5.6 2.8-6.5 4.2-.3-.7-.6-1.5-.9-2.3m-57.6 66.5c-2.2 0-5.6-1.4-7.7-5.4-8.6-16.1-16.6-32.7-17.7-35 2.4-8.6 2.9-16.7 2.9-16.8v-.1-.1c-.1-.2-.6-2.1-1.7-4.8.1 0 .2 0 .3-.1.1-.1 3.6-2.2 5.4-4.1 2.7-2.8 1.6-6.5.3-8.9 2.5.1 8 .4 16 1.4 16 10 28.8 22.4 39.2 33.2 5.3 5.5 6.3 10.1 3.3 14.8-1.6 2.6-6.1 5.5-12.3 9.6-2.7 1.7-5.7 3.7-8.9 6-.9.6-1.8 1.3-2.8 1.9-5.7 3.9-12.1 8.5-16.3 8.4m65.4-85.3c5.4-1.4 12.9 1.3 15.8 3.9 2.6 2.2 3.9 7.7 4.5 11.5-2.8-2.9-8.1-5-12.5-6-2.2-.5-4.7-.9-6.9-.9-2.3 0-4.4.4-5.7 1.4.4-3.7 1.7-9.1 4.8-9.9m6.9-1.6l.1-1.6c1.9 1 3.4 2 4.6 2.9-1.4-.5-3-1-4.7-1.3M153.5 351.3c-4.9-4.3-9.3-10.9-13.8-20.8-5.8-12.8-6.7-25.9-6.7-26v-.1c0-.1 0-.1-.1-.2-4.7-8.4-6.9-18.1-7.1-19.3.2-1.5 2.6-17.8 13.4-29 8.9-9.2 18.1-15.2 27.5-17.9 9.7 1.3 19.7 5.8 29.9 13.4 12.5 9.3 17.3 25.1 17.8 26.5-.1 1.2-.7 11.1-4 20.1V298.3c0 .1 1.2 13.3-2.6 26.8-2.9 10.5-6.2 17.7-10.4 22.7-2.6 3.1-6.3 4.2-8 3.3-1.1-.6-4.2-2.2-5.5-10.6-.6-4.1-1.7-8.8-2.5-10.1-1.4-2.1-4.9-2.1-7.5-1.9-2.6.2-6.1.7-7.1 3-.6 1.4-.9 6.4-.9 10.3 0 8.6-2.8 10.6-3.8 11.4-.5.4-1.3.6-2.2.6-2 .1-4.4-.7-6.4-2.5m-104.1-80c2.8-2 6.7-4.4 10-5 3-.6 8-4.4 13.9-8.8 4.8-3.6 10.2-7.7 14.9-10.2 9.4-5 36.5-13.8 42-15.5 0 1.2 0 2 .1 2.5-2.4 3.2-4.1 6.5-4.8 9.7-1.3 5.9.4 12.6 2.1 17.3-3.8 1.5-23.6 9.7-30.5 15.2-3 2.4-12.6 12.9-16 17.5-.4.6-.8 1.8-1.6 4.2-1.6 5.1-4.3 13.6-9.6 19.2-.6.6-2.2.9-4.3.8h-.1c-3.5-.1-8.4-1.1-12.4-2.7-3.7-1.5-5-2.8-5-3.5 0-3.4 2-7.7 4.3-9.3 1-.6 1.9-.8 2.7-.4 3.9 1.6 10.8 3.6 11 3.7.4.1.8-.1 1-.5.1-.4-.1-.8-.5-1 0 0-2.8-.8-5.7-1.8-.1-.1-1.8-3.2-.1-9.4 1-3.8 7.3-10.9 7.3-11 .3-.3.3-.8-.1-1.1-.1-.1-.3-.2-.5-.2s-.4.1-.6.3c-.2.3-5.5 6.3-7.3 10.5l-.6-.3c.4-1.8 1-6.8-1.9-10 .5-2.2.5-6.2-3.2-8.3-.8-.5-2-.7-3.3-.7h-.8l-.4-1.2zm77.4-27.1c2.1-9.5 16.2-24.1 32.7-24.5 23.2-.5 40.4 23.2 46 31 6 8.3 11.2 9 12.8 9 .8 1.1 3.1 5.1.4 7.9-1.7 1.8-5.1 3.9-5.1 3.9-2.6-5.9-7.6-14.9-16.1-21.3-10.5-7.9-20.9-12.5-30.8-13.7H166.4c-9.6 2.8-19.2 9-28.3 18.4-3.1 3.2-5.5 6.7-7.4 10.2-1.7-3.5-5.6-13.2-3.9-20.9m118.7-73.8c1.2.3 2.9.5 5 .5s3.7-.2 4.8-.3c1-.1 1.8-.2 1.9 0 .4.6-.4 3.2-3.1 5.2-1.7 1.3-4 1.5-5.1 1.5-.7-2.7-2-5-3.5-6.9m-33.7 24c1.3-5.2 7.5-16.5 11.9-24.8 1.6-2.9 3-5.5 3.8-7.2 3.2.4 20.9 3.7 21.1 22.6.1 11.2-2.7 16.2-4.1 17.9l-3.1-7c-.2-.4-.5-.5-.9-.4-.4.1-.6.5-.6.8 0 .1.9 9-5.8 19.5-5.3 8.3-10.3 10.8-11.1 11.1-5.2.2-9.6.5-11.3.6-.2-4.5-1.5-26.9.1-33.1M13.1 153.2c.1-.1.4-.4 1.1-.6.7-.2 1.1-.1 1.2 0l32.3 118.6.4 1.3c-1.1.2-2.3.5-3.4.8L13.1 153.2zM2 155.7c-.3-1.1-.1-2.4.7-3.7 1.6-2.8 5.3-5.2 9.7-6.4 6.6-1.8 13-.1 14 3.5.8 3.1-2.4 7-7.7 9.1l-1.8-6.5c0-.1-.1-.1-.1-.2-.1-.1-.6-.7-1.8-.7-.3 0-.7.1-1.2.2-2 .5-2.3 1.8-2.3 1.9v.3l1.7 6.4c-.8.1-1.7.2-2.5.2-4.5.1-8-1.5-8.7-4.1m7.8-19.1c.5.9 1.5 3 3 7.4-.3.1-.6.1-.9.2-.3.1-.7.2-1 .3-.8-4.3-1.1-6.7-1.1-7.9m249.5 11.6c-1.5-.9-2.8-1.4-3.5-1.7.1-3.5 0-7.4-.9-10.7 1.3.4 3.5 1.2 5.7 2.5 3.5 2.1 5.2 3.9 5.8 4.6l-3.6 7.5c-.7-.4-1.9-1.2-3.5-2.2M179 137.4c1.2-.5 3.2-1.7 5.6-4.2.6-.6 1.2-1.4 2-2.2 1-1.2 3-3.5 3.6-3.7.1.1.2.4.3 1.2 0 2.4-1.4 7-3.7 9.1-2.3 1.9-4.7 2.4-5.5 2.5-.9-1-1.6-1.9-2.3-2.7m138-15.3c.1-.1.5-.3 1.2-.2.8.1 1.1.3 1.2.4l-9.9 123.1-.2 2.7c-.8-.1-1.5-.1-2.3-.1h-1.2L317 122.1zm-11.3-1.3c.1-1.2.7-2.3 1.9-3.2 2.4-2 6.7-3.1 11.2-2.7 6.8.6 12.2 4.3 11.9 8.1-.3 3.2-4.7 5.7-10.3 6l.5-6.7v-.1-.1c-.1-.3-.6-1.3-2.6-1.5h-.4c-1.7 0-2.3.9-2.4 1.1 0 .1-.1.1-.1.2v.1l-.6 6.6c-5.4-1.5-9.3-4.7-9.1-7.8m-42.4 31.6c.2-.1.4-.2.5-.4l4.2-8.8c.1-.2.1-.5-.1-.8-.1-.1-1.7-2.5-6.6-5.4-3.1-1.9-5.9-2.7-7-3 0-.1 0-.1-.1-.2-2.1-5.6-5.3-7.4-6.5-7.9-.5-1.7-1.4-3.6-2.7-5.5.3-1.2 1.7-5.5 4.7-8 .7.5 1.7.7 3.2 1 2.1.4 5.3 1 9.6 2.8 4 1.7 7 4.4 9.4 6.6 1.8 1.6 3.2 2.8 4.4 3.1-.1 2.8-1.1 5.6-2.1 8.3-.2.6-.4 1.2-.6 1.7-3.2 9.2-8.1 18.1-12.3 26-1.3 2.4-2.6 4.8-3.7 7-.6-.2-1.5-.1-2.5.1-1.1.1-2.6.3-4.6.3-5.1-.1-7-1.2-7.1-1.3h-.1c-5.4-5.1-12.4-6.7-15.1-7.2.3-.5.5-1.1.9-1.7 1.4.7 4.4 1.8 7.8.6 4.1-1.5 7.3-5.9 9.4-13 2.2-7.4 2.8-13.3 1.8-18.8 1.3.8 3.2 2.7 4.6 6.5 2.7 7.3.6 20.5.6 20.6-.1.4.2.8.6.9.4.1.8-.2.9-.6 0-.3.5-3.3.7-7.2.7.3 1.7.7 2.8 1.4 2.8 1.7 4.2 2.8 4.2 2.8.1.1.3.2.5.2s.2-.1.3-.1m-80.9-1.9c.2-.2 17.8-18.5 24.2-23.5.8-.7 1.8-1.4 2.8-2.2 6.9-5.6 17.3-14.1 24.3-12.4 5 1.2 11.7 9.4 12.8 14.4 1.3 5.7.8 11.7-1.5 19.6-2 6.6-4.8 10.7-8.4 12-2.8 1-5.4.1-6.6-.5 4.4-8.3 12.7-23.1 12.8-23.2.2-.4.1-.8-.3-1.1-.1-.1-.3-.1-.4-.1-.3 0-.5.1-.7.4-.1.2-12.2 21.6-15 27.3-.8 1.7-2.3 4.4-4 7.7-4.5 8.4-10.7 19.8-12.1 25.2-1.8 7.2-.1 33.3 0 34.4v.1c0 .1 0 .1.1.2 0 .1.1.1.2.2 0 0 .1 0 .1.1.1 0 .1.1.2.1H211.2c.2 0 24-1.8 35.5-.1 12.9 1.9 19.6 4.8 26.7 7.8 3.4 1.5 7 3 11.4 4.5 2.2.7 4.8.8 7.1.8 1 0 1.9 0 2.7.1 3.6.3 7 1 10.1 1.9l-.4 4c-.2 0-.5.1-.7.2-5.2 1.3-6 11.2-6.1 13.1-1.4 1.8-2.1 3.7-2.5 5.1-1.8-2.6-4.5-4.8-4.6-4.9-.1-.1-.3-.2-.5-.2s-.4.1-.6.3c-.3.3-.2.8.1 1.1 0 0 4 3.4 5.3 6.4 1.3 3 1.9 6.5 2 7.6-3.1 2.6-5 7.6-5.1 7.8-.2.4.1.9.5 1 .4.1.9-.1 1-.5.8-2.1 3.5-7.7 6.7-8.3 2.6-.4 5.4 1.7 7.3 3.9 2.5 2.9 1.9 5.1 1.5 6.3 0 .1-.1.3-.1.4-.2.8-2.7 3.5-6.5 5.7-2.5 1.5-7.5 3.7-12.1 2.3-3-.9-4-2.1-10.9-12.9-1.8-2.8-20.7-19.9-31.6-21.5-17.9-2.7-28.5-2.9-28.6-2.9h-.1c-.1 0-5.3.6-11.8-8.4-5.7-7.9-22.9-31.6-46.5-31.6h-.8c-10.7.2-21.3 6.6-27.8 14.2 0-3.9.9-13.4 7.2-25.6 9.3-18 25.6-41.4 25.8-41.6.2-.4.2-.8-.2-1.1-.1-.1-.3-.1-.4-.1-.2 0-.5.1-.6.3-.1.1-3.7 5.3-8.5 12.7-2.1-5.1-9.3-23.3-11.4-32.5l-.3-1.2c-1.7-7.3-4.5-19.6.1-25.3 7-8.6 21.3-2.8 22.9-2.1 5.2 2.2 8.6 5.4 10.1 9.3 1.5 3.8.7 7.5.2 9.4-3-3.6-9.3-11.1-9.4-11.2-.2-.2-.4-.3-.6-.3-.2 0-.4.1-.5.2-.3.3-.4.8-.1 1.1.1.1 7.8 9.4 10.3 12.2 1.7 2 6.5 8.1 8 10-1.6 1.7-2.7 2.8-2.9 3-.3.3-.3.8 0 1.1.2.1.3.2.5.2.1-.1.3-.2.4-.4m90.7-28.8c-2.4-2.1-5.7-5.1-9.9-6.9-4.4-1.9-7.7-2.5-9.9-2.9-1.2-.2-2.1-.4-2.6-.7.5-.6 2.4-2 3.4-2.4 2.1-1 4.2-1.5 6.3-1.5 2.4 0 4.8.6 7.4 1.8 5.5 2.5 9.1 8 9.7 12.2.2 1.4-.2 2.9-.5 3.2-.8 0-2.3-1.4-3.9-2.8m45.9-8.4h-1c.6-4.3 1.2-6.7 1.6-7.8.2 1.1.4 3.3.3 8-.3-.2-.6-.2-.9-.2m-173.4-2c.7-1 3-4 9.3-6.9 5.8-2.7 14.2-5 16.5-5.5l3.5 6.3c-.9.7-2.9 2.1-4.8 3.2-1.6.9-3.1 1.8-3.8 2.2-3-1-6.6-2-10.1-2-1.7 0-3.5.2-5.1.7-2.4.7-4 1.6-5.2 2.4-.1-.2-.2-.3-.3-.4m-8.7-15.4c.4-.2.8-.6 1.3-1 1.4-1.2 3.7-3.1 8.1-5.6 3-1.7 6.2-2.7 9-3.7 2.9-1 5.1-1.7 6.2-2.8 6.7 2.9 13 13.6 17.7 21.4 1 1.6 1.9 3.2 2.7 4.5.3.4.5.9.8 1.3 2.6 4 6.4 9.9 6.6 16.1-1 .5-2.3 1.9-4 4-.7.8-1.4 1.6-1.9 2.1-2.6 2.6-4.7 3.7-5.5 4l-.3-.3c.6-1.5 2-6.2.1-11.3-1.7-4.3-5.3-7.7-10.9-10.2-1-.4-6.6-2.7-12.6-2.7-2.5 0-5 .4-7.3 1.4-.1-.1-.1-.2-.2-.3 1-.7 2.5-1.4 4.7-2.1 8.8-2.8 20.7 4.1 20.8 4.2.4.2.8.1 1.1-.3.2-.4.1-.8-.3-1.1-.2-.1-2.2-1.2-5.1-2.4.7-.4 1.7-1 2.7-1.5 2.7-1.5 5.5-3.6 5.6-3.7.3-.2.4-.7.2-1l-4.2-7.4c-.1-.2-.4-.4-.7-.4h-.2c-.1 0-10.5 2.6-17.3 5.8-5.9 2.7-8.6 5.5-9.6 7-2.6-3.6-6.6-9.5-7.5-14m-1.2-3.7c.3-4.6 1.5-7.6 6.8-10.9 2.4-1.4 5.3-2.2 8.7-2.2 2 0 4.2.3 6.2.8 1.6.4 2.7 1.2 3 1.6-.6.8-3.1 1.6-5.7 2.5-2.8.9-6.2 2.1-9.3 3.8-4.5 2.5-6.9 4.5-8.3 5.7-.5.4-1 .9-1.2 1h-.1c.1 0-.2-.5-.1-2.3m109.1 112.7c.2-.2 5.6-4.4 5.4-20 0-2.2-.3-4.2-.7-6.1 1.4-.1 3.8-.4 5.6-1.9 2.6-2 4.2-5.1 3.6-6.9 1.2-2.3 2.5-4.8 3.9-7.4 4.3-7.9 9.1-16.9 12.4-26.2.2-.6.4-1.1.6-1.7 1.1-2.9 2.1-5.8 2.2-9l.3-.3c.7-.9 1-2.9.8-4.4-.7-4.6-4.6-10.7-10.6-13.4-2.3-1-4.5-1.6-6.6-1.8l1.8-4.7c.1-.2 2.5-5.3 18.3-59.1 1.9-6.4 5.2-10.8 9.8-13.2 7.1-3.7 15.2-1.6 18.3-.5 2.6.9 8.1 4.1 10.5 10.1 2 5 1.3 10.8-2.1 17.1-25.3 47.8-29.6 56.4-29.6 56.5L255 186.2c-.1.2-8.7 20.9-13.3 40.6-2.8-.2-6-.3-9.1-.3-2.1 0-4.3 0-6.4.1 2.3-1.6 5.7-4.6 9.2-10.2 4.4-6.9 5.7-13.1 6-16.8l2.1 4.8c.1.2.3.4.5.4h.2c.3.2.5.2.6.1M100.3 36.8c-5.8-7.1-8.2-13.7-7-19.8 1.1-5.6 5.2-9.6 8.6-11.4.8-.4 19.9-10.3 30 8.4 25.9 48 30.3 56 30.4 56.1l37.6 60.8c-4.8 4.5-10.7 10.5-14.6 14.4-.6-.8-1.8-2.3-3.1-3.9 1.3-.3 3.4-1 5.5-2.7 3.3-2.8 4.9-9.4 4-11.8-.2-.5-.5-.8-.8-1-.2-6.6-4.2-12.8-6.8-16.9-.3-.5-.6-.9-.8-1.3-.8-1.3-1.7-2.8-2.7-4.4-4.8-8-11.4-18.9-18.5-22 0-.1-.1-.2-.1-.3-.5-1-2.2-2.1-4.1-2.5-2.2-.5-4.5-.8-6.6-.8-3.7 0-6.9.8-9.5 2.4-1.7 1-2.9 2-4 3-2.8-3.7-11.5-14.7-37.5-46.3m13.6-35.7c-5 0-9.6 1.5-12.7 3.1-3.7 2-8.2 6.3-9.4 12.5-1.3 6.6 1.2 13.7 7.3 21.1 26.6 32.3 35.1 43 37.7 46.4-1.8 2.3-2.4 4.8-2.6 7.9-.1 1.9.1 3 .7 3.6.2.2.3.3.5.4 1.1 5.7 6.5 13.1 9.3 16.5-1.4 1.4-1.6 2.6-1.6 3.3-.3.3-.6.6-.9 1-5.1 6.4-2.2 19.1-.4 26.7l.3 1.2c2.3 10 10.6 30.7 11.9 33.7-5.3 8.1-11.7 18.5-16.4 27.5-5.5 10.7-7 19.2-7.3 24.1-4.1 1.3-32.8 10.4-42.8 15.8-4.8 2.5-10.3 6.7-15.1 10.3-5.4 4.1-10.6 8-13.2 8.5-3.3.7-7.2 2.9-10.1 4.9L19 159.9c6.2-2.5 9.8-7.1 8.8-11.1-.9-3.4-4.9-5.4-10.1-5.4-1.1 0-2.2.1-3.3.3-2.9-8.3-4-9.4-4.8-9.4-.1 0-.2 0-.4.1-.8.2-1.9.5.2 10.7-3.7 1.4-6.6 3.7-8.1 6.3-.9 1.6-1.2 3.3-.8 4.9 1.1 3.9 6.5 6.1 13.1 5.2L43.2 274c-2 .8-3.8 1.9-5.2 3.1-4.4 3.9-4.5 14.6-4.5 15.7-1.1 5.5 3.2 11.8 4.2 13.3-.2 1.2-.2 2.3.3 3.3 4.5 9.8 9.9 11.9 13.9 11.8l1.3 7.4v.1s0 .1.1.1l.1.1.1.1s.1.1.2.1h.1c.2.1 4.1 1.4 7.8.4 3.9-1 6.5-4.1 6.6-4.3v-.1l.1-.1v-.1-.1-.2-.1l-1.8-4.8c2 0 3.6-.4 4.4-1.3 5.5-5.9 8.3-14.6 9.9-19.8.5-1.7 1-3.3 1.3-3.7 3.3-4.5 12.7-14.8 15.7-17.2 6.6-5.3 26.3-13.4 30.1-15 .8 2 1.5 3.5 1.9 4.2-4.5 9.1-5.5 17.5-5.6 18v.2c0 .1 2.2 10.5 7.2 19.7.1 1.6 1.3 14.2 6.8 26.4 4.6 10.1 9.1 16.8 14.2 21.3 3.7 3.3 8.3 3.6 10.4 2.1 1.9-1.4 4.4-4.2 4.4-12.6 0-5 .4-8.8.8-9.7.5-1.1 2.5-1.8 5.8-2.1 3.4-.3 5.4.1 6.1 1.2.5.8 1.5 4.6 2.3 9.5 1.3 8.3 4.3 10.7 6.4 11.8 2.3 1.2 6.7.1 9.9-3.7 4.1-4.9 7.3-11.8 10.2-21.5l17.1-3.7c1.2 2.2 2.4 4.5 3.6 6.8 2 3.8 5.6 6.3 9.1 6.3 4.7 0 11.3-4.7 17.2-8.8.9-.7 1.9-1.3 2.7-1.9 3.2-2.2 6.2-4.2 8.9-6 6.4-4.2 11-7.2 12.8-10.1 3.4-5.4 2.2-10.7-3.5-16.7-9.9-10.3-21.9-22-36.7-31.7 2.3.3 4.8.6 7.4 1 10.2 1.6 28.8 18.2 30.5 20.8 6.9 10.8 8.1 12.4 11.7 13.5 2.1.6 4.4.6 6.8.1l-1.1 6.2V303.6s0 .1.1.1l.1.1s0 .1.1.1c.1.1 3.4 2.7 7.2 3 4 .3 7.5-1.7 7.6-1.8l.1-.1.1-.1.1-.1s0-.1.1-.1v-.2-.1l-.1-7.1c4.7.7 8 .4 9.9-.9 2.5-1.8 6.3-10.2 4.5-14.6-.1-.3-.3-.6-.5-.9l.2-.2c.1-.3 3-6.1 1.7-11.6 0-.5-.9-12.6-5.5-16.6-.2-.2-.5-.4-.8-.6-.5-.7-2.9-4-8.8-6.9l9.2-114.5c6.6-.2 11.6-3.3 12-7.4.4-4.3-4.3-8.1-10.8-9.4.1-10.4-.8-10.4-1.7-10.5h-.2c-.8 0-1.9.7-3.2 10.1-4 .1-7.5 1.2-9.8 3.1-1.4 1.2-2.3 2.7-2.4 4.3-.3 4.1 4.1 7.9 10.6 9.3l-10 112.6c-3.1-.9-6.5-1.5-10.1-1.8-.8-.1-1.8-.1-2.8-.1-2.2 0-4.6 0-6.6-.7-4.4-1.5-7.9-3-11.3-4.5-7.2-3.1-14-6-27-8-1.1-.2-2.3-.3-3.5-.4 4.6-19.5 13.1-39.9 13.1-40.1l33.7-74.1c0-.1 4.3-8.7 29.6-56.4 3.6-6.8 4.3-13 2.1-18.4-2.6-6.5-8.6-10.1-11.5-11-1.9-.7-5.6-1.7-9.7-1.7-3.1 0-6.5.6-9.8 2.2-5 2.6-8.5 7.4-10.5 14.1-15.6 53.1-18.1 58.6-18.2 58.9l-2 5.2c-2.3 0-4.5.5-6.7 1.6-.6.3-3.9 2.2-4.3 3.6v.1c-2.8 2.2-4.4 5.8-5.1 7.9-2.9-3.8-6.7-7.2-10.1-8-.7-.2-1.4-.2-2.2-.2-7.5 0-16.9 7.7-23.4 13-1 .8-1.9 1.6-2.8 2.2-1.2.9-2.8 2.3-4.6 4l-37.4-60.5c0-.1-4.5-8.1-30.4-56-5.2-9.5-12.8-12.4-19.6-12.4"/></defs><clipPath id="dA"><use xlink:href="#dz" overflow="visible"/></clipPath><linearGradient id="dB" gradientUnits="userSpaceOnUse" x1="-252.742" y1="475.604" x2="-251.828" y2="475.604" gradientTransform="scale(-466.5971 466.5971) rotate(54.419 335.83 482.99)"><stop offset="0" stop-color="#585857"/><stop offset=".012" stop-color="#585857"/><stop offset=".292" stop-color="#5d5c5c"/><stop offset=".603" stop-color="#6a6a69"/><stop offset=".928" stop-color="#807f7f"/><stop offset="1" stop-color="#868585"/></linearGradient><path clip-path="url(#dA)" fill="url(#dB)" d="M503.4 117.4L220.1 513.5-170.7 234l283.4-396.1z"/></g><g><defs><path id="dC" d="M160.3 218.1h-.8c-15.9.4-31.7 14.4-34.2 25.7-2 9.3 3.3 20.7 4.5 23 0 0 .3-.5.4-.8.3-.6.5-.9.5-.9-1.6-3.5-5.5-13.2-3.8-20.9 2.1-9.5 16.2-24.1 32.7-24.5 23.3-.5 40.4 23.2 46 31 6 8.3 11.2 9 12.8 9 .8 1.1 3.1 5.1.4 7.9-1.7 1.8-5.1 3.9-5.1 3.9h-.1s.1.3.3.8c.2.4.2.6.2.6.1 0 .2 0 .3-.1.1-.1 3.6-2.2 5.4-4.1 3.2-3.4 1.1-8.2-.5-10.2 0 0-.1 0-.1-.1l-.1-.1-.1-.1h-.2-.1-.1c-.1 0-5.3.6-11.8-8.4-5.7-7.9-22.8-31.7-46.5-31.7"/></defs><clipPath id="dD"><use xlink:href="#dC" overflow="visible"/></clipPath><linearGradient id="dE" gradientUnits="userSpaceOnUse" x1="-251.152" y1="475.817" x2="-250.238" y2="475.817" gradientTransform="matrix(-105.8223 0 0 105.8223 -26355.953 -50106.555)"><stop offset="0" stop-color="#0064a2"/><stop offset=".012" stop-color="#0064a2"/><stop offset=".529" stop-color="#0066a4"/><stop offset=".775" stop-color="#006bac"/><stop offset=".964" stop-color="#0075b9"/><stop offset="1" stop-color="#0077bc"/></linearGradient><path clip-path="url(#dD)" fill="url(#dE)" d="M123.3 218.1h99.8v54.7h-99.8z"/></g><g><defs><path id="dF" d="M236.2 261.1c16 10 28.8 22.4 39.2 33.2 5.3 5.5 6.3 10.1 3.3 14.8-1.6 2.6-6.1 5.5-12.3 9.6-2.7 1.7-5.7 3.7-8.9 6-.9.6-1.8 1.3-2.8 1.9-5.6 4-12 8.5-16.3 8.5-2.2 0-5.6-1.4-7.7-5.4-8.6-16.1-16.6-32.7-17.7-35 0 0-.1.5-.3 1.2-.1.4-.3 1-.3 1 1.9 4 6.9 14.2 12.7 25.3l-15.8 3.4s-.1.4-.2.9c-.2.6-.2.8-.2.8l17.1-3.7c1.2 2.2 2.4 4.5 3.6 6.8 2 3.8 5.6 6.3 9.1 6.3 4.7 0 11.3-4.7 17.2-8.8.9-.7 1.9-1.3 2.7-1.9 3.2-2.2 6.2-4.2 8.9-6 6.4-4.2 11-7.2 12.8-10.1 3.4-5.4 2.2-10.7-3.5-16.7-9.9-10.3-21.9-22-36.7-31.7 0 0-1.1-.1-1.6-.2-1 0-2.2-.2-2.3-.2"/></defs><clipPath id="dG"><use xlink:href="#dF" overflow="visible"/></clipPath><linearGradient id="dH" gradientUnits="userSpaceOnUse" x1="-250.487" y1="475.696" x2="-249.573" y2="475.696" gradientTransform="matrix(-80.082 0 0 80.082 -19777.613 -37795.777)"><stop offset="0" stop-color="#0064a2"/><stop offset=".012" stop-color="#0064a2"/><stop offset=".529" stop-color="#0066a4"/><stop offset=".775" stop-color="#006bac"/><stop offset=".964" stop-color="#0075b9"/><stop offset="1" stop-color="#0077bc"/></linearGradient><path clip-path="url(#dG)" fill="url(#dH)" d="M208.7 261.1h74.7v75.6h-74.7z"/></g><g><defs><path id="dI" d="M145.6 111.3c.7-1 3-4 9.3-6.9 5.8-2.7 14.2-5 16.5-5.5l3.5 6.3c-.9.7-2.9 2.1-4.8 3.2-1.6.9-3.1 1.8-3.8 2.2-3-1-6.6-2-10.1-2-1.7 0-3.5.2-5.1.7-2.4.7-4 1.6-5.2 2.4-.1-.2-.2-.3-.3-.4m-9.9-19.1c.3-4.6 1.5-7.6 6.8-10.9 2.4-1.4 5.3-2.2 8.7-2.2 2 0 4.2.3 6.2.8 1.6.4 2.7 1.2 3 1.6-.6.8-3.1 1.6-5.7 2.5-2.8.9-6.2 2.1-9.3 3.8-4.5 2.5-6.9 4.5-8.3 5.7-.5.4-1 .9-1.2 1h-.1c.1 0-.2-.5-.1-2.3m15.6-14.5c-3.7 0-6.9.8-9.5 2.4-5.9 3.5-7.3 7.1-7.6 12.1-.1 1.9.1 3 .7 3.6.2.2.3.3.5.4 1.1 5.7 6.5 13.1 9.3 16.5-1.4 1.4-1.6 2.6-1.6 3.3 0 0 .8-1 2.6-2.1.8-.5 1.4-.7 1.4-.7-.1-.1-.1-.2-.2-.3 1-.7 2.5-1.4 4.7-2.1 8.8-2.8 20.7 4.1 20.8 4.2.4.2.8.1 1.1-.3.2-.4.1-.8-.3-1.1-.2-.1-2.2-1.2-5.1-2.4.7-.4 1.7-1 2.7-1.5 2.7-1.5 5.5-3.6 5.6-3.7.3-.2.4-.7.2-1l-4.2-7.4c-.1-.2-.4-.4-.7-.4h-.2c-.1 0-10.5 2.6-17.3 5.8-5.9 2.7-8.6 5.5-9.6 7-2.8-3.7-6.7-9.6-7.7-14.2.4-.2.8-.6 1.3-1 1.4-1.2 3.7-3.1 8.1-5.6 3-1.7 6.2-2.7 9-3.7 2.9-1 5.1-1.7 6.2-2.8 6.7 2.9 13 13.6 17.7 21.4 1 1.6 1.9 3.2 2.7 4.5.3.4.5.9.8 1.3 2.6 4 6.4 9.9 6.6 16.1-1 .5-2.3 1.9-4 4-.7.8-1.4 1.6-1.9 2.1-2.6 2.6-4.6 3.7-5.5 4 0 0 .3.3.5.7.2.3.5.6.5.6 1.2-.5 3.2-1.7 5.6-4.2.6-.6 1.2-1.4 2-2.2 1-1.2 3-3.5 3.6-3.7.1.1.2.4.3 1.2 0 2.4-1.4 7-3.7 9.1-2.2 1.9-4.7 2.4-5.5 2.5 0 0 .3.4.6.7.3.5.5.7.5.7 1.3-.3 3.4-1 5.4-2.7 3.3-2.8 4.9-9.4 4-11.8-.2-.5-.5-.8-.8-1-.2-6.6-4.2-12.8-6.8-16.9-.3-.5-.6-.9-.8-1.3-.8-1.3-1.7-2.8-2.7-4.4-4.8-8-11.4-18.9-18.5-22 0-.1-.1-.2-.1-.3-.5-1-2.2-2.1-4.1-2.5-2.2-.7-4.4-.9-6.6-.9z"/></defs><clipPath id="dJ"><use xlink:href="#dI" overflow="visible"/></clipPath><linearGradient id="dK" gradientUnits="userSpaceOnUse" x1="-249.955" y1="475.897" x2="-249.041" y2="475.897" gradientTransform="matrix(-63.292 0 0 63.292 -15628.153 -30010.93)"><stop offset="0" stop-color="#0064a2"/><stop offset=".012" stop-color="#0064a2"/><stop offset=".529" stop-color="#0066a4"/><stop offset=".775" stop-color="#006bac"/><stop offset=".964" stop-color="#0075b9"/><stop offset="1" stop-color="#0077bc"/></linearGradient><path clip-path="url(#dJ)" fill="url(#dK)" d="M134.1 77.7h58.6v63.8h-58.6z"/></g><g><defs><path id="dL" d="M259.3 148.2c-1.5-.9-2.8-1.4-3.5-1.7.1-3.5 0-7.4-.9-10.7 1.3.4 3.5 1.2 5.7 2.5 3.5 2.1 5.2 3.9 5.8 4.6l-3.6 7.5c-.7-.4-1.9-1.2-3.5-2.2m-11.2-21.3c.1.6.2 1.1.2 1.1 1.3.8 3.2 2.7 4.6 6.5 2.7 7.3.6 20.5.6 20.6-.1.4.2.8.6.9.4.1.8-.2.9-.6 0-.3.5-3.3.7-7.2.7.3 1.7.7 2.8 1.4 2.8 1.7 4.2 2.8 4.2 2.8.2.1.4.2.7.1.2-.1.4-.2.5-.4l4.2-8.8c.1-.2.1-.5-.1-.8-.1-.1-1.7-2.5-6.6-5.4-3.1-1.9-5.9-2.7-7-3 0-.1 0-.1-.1-.2-2-5.6-5.3-7.4-6.5-7.9 0 0 .2.3.3.9"/></defs><clipPath id="dM"><use xlink:href="#dL" overflow="visible"/></clipPath><linearGradient id="dN" gradientUnits="userSpaceOnUse" x1="-243.974" y1="475.574" x2="-243.06" y2="475.574" gradientTransform="matrix(-22.1514 0 0 22.1514 -5136.271 -10393.62)"><stop offset="0" stop-color="#0064a2"/><stop offset=".012" stop-color="#0064a2"/><stop offset=".529" stop-color="#0066a4"/><stop offset=".775" stop-color="#006bac"/><stop offset=".964" stop-color="#0075b9"/><stop offset="1" stop-color="#0077bc"/></linearGradient><path clip-path="url(#dM)" fill="url(#dN)" d="M247.8 126h20.3v30.1h-20.3z"/></g><g><defs><path id="dO" d="M273.1 121.7c-2.4-2.1-5.7-5.1-9.9-6.9-4.4-1.9-7.7-2.5-9.9-2.9-1.2-.2-2.1-.4-2.6-.7.5-.6 2.4-2 3.4-2.4 2.1-1 4.2-1.5 6.3-1.5 2.4 0 4.8.6 7.4 1.8 5.5 2.5 9.1 8 9.7 12.2.2 1.4-.2 2.9-.5 3.2-.8 0-2.3-1.4-3.9-2.8m-19.6-14.4c-.6.3-3.9 2.2-4.3 3.6v.1c-2.8 2.2-4.4 5.8-5.1 7.9 0 0 .2.3.6.8.4.5.6.8.6.8.3-1.2 1.7-5.5 4.7-8 .7.5 1.7.7 3.2 1 2.1.4 5.3 1 9.6 2.8 4 1.7 7 4.4 9.4 6.6 1.8 1.6 3.2 2.8 4.4 3.1-.1 2.8-1.1 5.6-2.1 8.3-.2.6-.4 1.2-.6 1.7-3.2 9.2-8.1 18.1-12.3 26-1.3 2.4-2.6 4.8-3.7 7-.6-.2-1.5-.1-2.5.1-1.1.1-2.6.3-4.6.3-5.1-.1-7-1.2-7.1-1.3h-.1s.8.7 1.2 1.2c.3.4.9 1.1.9 1.1 1.2.3 2.9.5 5 .5s3.7-.2 4.8-.3c1-.1 1.8-.2 1.9 0 .4.6-.4 3.2-3.1 5.2-1.6 1.3-4 1.5-5.1 1.5 0 0 .1.3.2.7l.2.8c1.4-.1 3.8-.4 5.6-1.9 2.6-2 4.2-5.1 3.6-6.9 1.2-2.3 2.5-4.8 3.9-7.4 4.3-7.9 9.1-16.9 12.4-26.2.2-.6.4-1.1.6-1.7 1.1-2.9 2.1-5.8 2.2-9l.3-.3c.7-.9 1-2.9.8-4.4-.7-4.6-4.6-10.7-10.6-13.4-2.8-1.3-5.4-1.9-8-1.9-2.3 0-4.6.6-6.9 1.6"/></defs><clipPath id="dP"><use xlink:href="#dO" overflow="visible"/></clipPath><linearGradient id="dQ" gradientUnits="userSpaceOnUse" x1="-247.86" y1="475.755" x2="-246.946" y2="475.755" gradientTransform="matrix(-39.1025 0 0 39.1025 -9412.811 -18460.926)"><stop offset="0" stop-color="#0064a2"/><stop offset=".012" stop-color="#0064a2"/><stop offset=".529" stop-color="#0066a4"/><stop offset=".775" stop-color="#006bac"/><stop offset=".964" stop-color="#0075b9"/><stop offset="1" stop-color="#0077bc"/></linearGradient><path clip-path="url(#dP)" fill="url(#dQ)" d="M243.4 105.7h35.9v73.1h-35.9z"/></g><g><defs><path id="dR" d="M300.7 25.3c-3.1 0-6.5.6-9.8 2.2-5 2.6-8.5 7.4-10.5 14.1-15.6 53.1-18.1 58.6-18.2 58.9l-2 5.2h.8c.6 0 .9.1.9.1l1.8-4.7c.1-.2 2.5-5.3 18.3-59.1 1.9-6.4 5.2-10.8 9.8-13.2 7.1-3.7 15.2-1.6 18.3-.5 2.6.9 8.1 4.1 10.5 10.1 2 5 1.3 10.8-2.1 17.1-25.3 47.8-29.6 56.4-29.6 56.5l-33.7 74.2c-.1.2-8.7 20.9-13.3 40.6 0 0 .4 0 .8.1.4 0 .8.1.8.1 4.6-19.5 13.1-39.9 13.1-40.1l33.7-74.1c0-.1 4.3-8.7 29.6-56.4 3.6-6.8 4.3-13 2.1-18.4-2.6-6.5-8.6-10.1-11.5-11-2-.7-5.6-1.7-9.8-1.7"/></defs><clipPath id="dS"><use xlink:href="#dR" overflow="visible"/></clipPath><linearGradient id="dT" gradientUnits="userSpaceOnUse" x1="-250.696" y1="475.909" x2="-249.782" y2="475.909" gradientTransform="matrix(-89.0166 0 0 89.0166 -21992.941 -42237.668)"><stop offset="0" stop-color="#b20a63"/><stop offset="1" stop-color="#c7006d"/></linearGradient><path clip-path="url(#dS)" fill="url(#dT)" d="M241.8 25.2h82.3V227h-82.3z"/></g><g><defs><path id="dU" d="M113.9 1.1c-5 0-9.6 1.5-12.7 3.1-3.7 2-8.2 6.3-9.4 12.5-1.3 6.6 1.2 13.7 7.3 21.1 26.6 32.3 35.1 43 37.7 46.4 0 0 .2-.4.5-.6.4-.3.5-.5.5-.5-2.8-3.6-11.5-14.6-37.5-46.2-5.8-7.1-8.2-13.7-7-19.8 1.1-5.6 5.2-9.6 8.6-11.4.8-.4 19.9-10.3 30 8.4 25.9 48 30.3 56 30.4 56.1l37.6 60.8s.3-.2.6-.5l.6-.6-37.4-60.5c0-.1-4.5-8.1-30.4-56-5-9.4-12.6-12.3-19.4-12.3"/></defs><clipPath id="dV"><use xlink:href="#dU" overflow="visible"/></clipPath><linearGradient id="dW" gradientUnits="userSpaceOnUse" x1="-251.385" y1="475.956" x2="-250.472" y2="475.956" gradientTransform="matrix(-119.9053 0 0 119.9053 -29941.387 -57006.516)"><stop offset="0" stop-color="#b20a63"/><stop offset="1" stop-color="#c7006d"/></linearGradient><path clip-path="url(#dV)" fill="url(#dW)" d="M90.5-4.7H201v135.6H90.5z"/></g><g><defs><path id="dX" d="M17.7 143.4c-1.8 0-3.8.3-5.8.8-4.8 1.3-8.8 3.9-10.6 7.1-.9 1.6-1.2 3.3-.8 4.9 1.1 3.9 6.5 6.1 13.1 5.2l-.4-1.5c-5.6.7-10.4-1-11.2-4.1-.3-1.1-.1-2.4.7-3.7 1.6-2.8 5.3-5.2 9.7-6.4 6.6-1.8 13-.1 14 3.5.8 3.1-2.4 7-7.7 9.1l.4 1.5c6.2-2.5 9.8-7.1 8.8-11.1-1.1-3.3-5.1-5.3-10.2-5.3"/></defs><clipPath id="dY"><use xlink:href="#dX" overflow="visible"/></clipPath><linearGradient id="dZ" gradientUnits="userSpaceOnUse" x1="-247.141" y1="475.662" x2="-246.227" y2="475.662" gradientTransform="matrix(-30.2539 0 0 30.2539 -7449.019 -14237.88)"><stop offset="0" stop-color="#b20a63"/><stop offset="1" stop-color="#c7006d"/></linearGradient><path clip-path="url(#dY)" fill="url(#dZ)" d="M.1 143.4h28.8v18.8H.1z"/></g><g><defs><path id="ea" d="M53.2 328.4v.1s0 .1.1.1l.1.1.1.1s.1.1.2.1h.1c.2.1 4.1 1.4 7.8.4 3.9-1 6.5-4.1 6.6-4.3v-.1l.1-.1v-.1-.1-.2-.1l-1.8-4.8h-1.6l1.8 4.9c-.7.8-2.8 2.7-5.5 3.4-2.6.7-5.4.1-6.5-.2L52.8 317s-.3-.1-.8-.3c-.4-.2-.9-.4-.9-.4l2.1 12.1z"/></defs><clipPath id="eb"><use xlink:href="#ea" overflow="visible"/></clipPath><linearGradient id="ec" gradientUnits="userSpaceOnUse" x1="-243.346" y1="474.596" x2="-242.433" y2="474.596" gradientTransform="matrix(-18.7568 0 0 18.7568 -4496.122 -8578.563)"><stop offset="0" stop-color="#b20a63"/><stop offset="1" stop-color="#c7006d"/></linearGradient><path clip-path="url(#eb)" fill="url(#ec)" d="M51.1 316.3h17.1v14.1H51.1z"/></g><g><defs><path id="ed" d="M306.6 116.3c-1.4 1.2-2.3 2.7-2.4 4.3-.3 4.1 4.1 7.9 10.6 9.3l.1-1.6c-5.5-1.3-9.4-4.5-9.2-7.6.1-1.2.7-2.3 1.9-3.2 2.4-2 6.7-3.1 11.2-2.7 6.8.6 12.2 4.3 11.9 8.1-.3 3.2-4.7 5.8-10.3 6l-.1 1.6c6.6-.2 11.6-3.3 12-7.4.4-4.8-5.5-9.1-13.3-9.8-.7-.1-1.4-.1-2-.1-4.2 0-8 1.1-10.4 3.1"/></defs><clipPath id="ee"><use xlink:href="#ed" overflow="visible"/></clipPath><linearGradient id="ef" gradientUnits="userSpaceOnUse" x1="-246.318" y1="475.751" x2="-245.405" y2="475.751" gradientTransform="matrix(-30.8311 0 0 30.8311 -7261.924 -14546.103)"><stop offset="0" stop-color="#b20a63"/><stop offset="1" stop-color="#c7006d"/></linearGradient><path clip-path="url(#ee)" fill="url(#ef)" d="M303.8 113.2h28.9v17.3h-28.9z"/></g><g><defs><path id="eg" d="M309 304c-1 .5-3.5 1.6-6.3 1.4-2.7-.2-5.1-1.8-6-2.4l1.2-6.4s-.4.1-.9.2l-.8.2-1.1 6.2V303.5s0 .1.1.1l.1.1s0 .1.1.1c.1.1 3.4 2.7 7.2 3 4 .3 7.5-1.7 7.6-1.8l.1-.1.1-.1.1-.1s0-.1.1-.1v-.2-.1l-.1-11.9-1.6-1 .1 12.6z"/></defs><clipPath id="eh"><use xlink:href="#eg" overflow="visible"/></clipPath><linearGradient id="ei" gradientUnits="userSpaceOnUse" x1="-241.006" y1="474.573" x2="-240.093" y2="474.573" gradientTransform="matrix(-17.0049 0 0 17.0049 -3787.695 -7770.602)"><stop offset="0" stop-color="#b20a63"/><stop offset="1" stop-color="#c7006d"/></linearGradient><path clip-path="url(#eh)" fill="url(#ei)" d="M295.1 291.6h15.5v15.7h-15.5z"/></g><g><defs><path id="ej" d="M160.7 276.8c-1.3.7-2.2 2-2.1 3.1.1 1 .9 1.6 1.6 1.9.1 0 .2.1.3.1 3.2 1.2 15.9.1 18.9-1.5.1-.1.2-.1.3-.2.7-.5 1.4-1.2 1.3-2.2-.1-1.1-1.2-2.2-2.6-2.7-.7-.2-2.1-.4-3.9-.4-4.6.1-12 .9-13.8 1.9"/></defs><clipPath id="ek"><use xlink:href="#ej" overflow="visible"/></clipPath><linearGradient id="el" gradientUnits="userSpaceOnUse" x1="-245.333" y1="474.482" x2="-244.419" y2="474.482" gradientTransform="scale(-24.6885 24.6885) rotate(4.629 5604.187 3187.171)"><stop offset="0" stop-color="#7e7c7b"/><stop offset="1" stop-color="#b6b5b6"/></linearGradient><path clip-path="url(#ek)" fill="url(#el)" d="M181.8 283l-23.1 1.9-.8-9.9 23.1-1.9z"/></g><g><path fill="#FFF" d="M160.7 281.5c-.6-.3-.9-.5-.9-1-.1-.8.3-1.2 1-1.6 1-.5 7.1-.7 8.3-.2.7.3 1.2.8 1.2 1.4 0 .7-.7 1.2-.8 1.2-1.4.8-7.4 1-8.8.2M262.4 301.5c.5 8-5.5 14.8-13.5 15.4-8 .5-14.8-5.5-15.4-13.5-.5-8 5.5-14.8 13.5-15.4 8.1-.6 14.9 5.5 15.4 13.5"/><path fill="#C6C6C5" d="M246.9 285.7c-9.2.6-16.2 8.5-15.6 17.7.6 9.2 8.5 16.2 17.7 15.6 9.2-.6 16.2-8.5 15.6-17.7-.5-9.2-8.5-16.2-17.7-15.6m2.1 31.1c-8 .5-14.8-5.5-15.4-13.5-.5-8 5.5-14.8 13.5-15.4 8-.5 14.8 5.5 15.4 13.5.5 8-5.6 14.9-13.5 15.4"/><path fill="#0080C8" d="M245.7 298.2l2.4-1v.2l-2.4 1v-.2zm-.8-5.2l.6-.2-.1-.1-.5.2v.1zm0-.8l-.1-.1v.2l.1-.1zm.6 4.7l2.7-1.1v-.2l-2.7 1.1v.2zm-.4-2.3l1.6-.6-.2-.1-1.5.6.1.1zm.3 1.5l2.5-1-.1-.1-2.4 1v.1zm-.4-2.3l1.1-.4-.2-.1-1 .4.1.1zm.6 3.9l2.5-1v-.2l-2.6 1 .1.2zm-.3-2.4l2.1-.8-.2-.1-1.9.8v.1zM240.7 296.8l-.7.7v-.3l.6-.6.1.2zm-.4-2l-.1.1v.3l.2-.2-.1-.2zm.2.9l-.4.4v.3l.4-.4v-.3zm.6 2.7l-1.1 1.1v.3l1.1-1.2v-.2zm-.2 4.8l1.1-1.1-.1-.2-1.2 1.2.2.1zm.8-2l-.1-.2-1.7 1.8.2.1 1.6-1.7zm0 2.3l.6-.6-.1-.2-.7.7.2.1zm-.5-4.2l-1.3 1.4v.3l1.4-1.4-.1-.3zm-.3-1.8l-.8.9v.3l.9-.9-.1-.3zm1.6 6.3v-.3l-.2.2.2.1zm-1.1-3.6l-1.6 1.6v.3l1.6-1.7v-.2zM254.5 298.1l-1.1.8v-.2l1.2-.9-.1.3zm-1.2-5l-.2.2v.2l.4-.3-.2-.1zm1.2 1l-1.3 1v.2l1.5-1-.2-.2zm-.6-.5l-.8.6v.2l.9-.7-.1-.1zm-.1 7.6l-.4.3v.2l.3-.2.1-.3zm1.4-6.5l-1.9 1.3v.2l1.9-1.4v-.1zm-.5 2.1l-1.5 1v.2l1.4-1 .1-.2zm-.4 2.2l-.9.7v.2l.9-.6v-.3zm-.2 1.1l-.7.5v.2l.6-.4.1-.3zm.9-4.4l-1.7 1.2v.2l1.7-1.2v-.2z"/><path fill="#E5007E" d="M249.8 299.2l-1.2-7.7-.2 6.4zM250.3 304.5l-2.1 1.5-5.3-2z"/><path fill="#0080C8" d="M250.5 304.3l2.9-6 .1 3.9zM253.3 298.1l-2-6.9 1.8 1.6zM249.7 299.5l-1.5-1.4-2.4.9.1.3z"/><path fill="#E5007E" d="M241.7 300.3l.6-7.8-1.8 1.9z"/><path fill="#0080C8" d="M241.8 300.5l1 3 2.7.2z"/><path fill="#E30521" d="M254.8 306.6l.6.9h-.1l-.5.1s0 .1.1.1h.7v.1l-.2.1-.8.2.1.1 2.5-.4-.1.1-.1.1-2.7.5.1.1 2.3-.3v.1h-.1l-1.8.4.1.1 1.4-.2h.1l-.1.1s0 .1-.1.1h-.1l-.9.2.1.1H256.2l.1.2-.5.1s0 .1.1.1h.6c0 .1.2.6.2.6v.1h-.1l-1.4-.6-1.2 1h-.1v-1.5l-1.2-.9s-.1-.1 0-.1 1.4-.4 1.4-.4l.4-1.4c.2.2.2.2.3.2 0-.1 0 0 0 0"/><path fill="#008FD3" d="M243.2 308.4l.6.9-.5.2s0 .1.1.1h.6l.1.1-1 .3.1.1h.6l.1.1-1 .2.1.1c.1 0 1.1-.1 1.2-.1l.1.1-1 .3.1.1 1.3-.1.1.1-1 .3s0 .1.1.1l1.1-.1v.2l-.6.1s0 .1.1.1h.6v.7h-.1l-1.2-.5-1.2 1h-.1v-1.5l-1.2-.9s-.1-.1 0-.1 1.4-.4 1.4-.4l.4-1.4c-.1-.1 0-.1.1-.1"/><path fill="#FBBE00" d="M246.1 308l.6.9-.5.2s0 .1.1.1h.6l.1.1-1 .3.1.1h.6l.1.1-1 .2.1.1c.1 0 1.1-.1 1.2-.1l.1.1-1 .3.1.1 1.3-.1.1.1-1 .3s0 .1.1.1l1.1-.1v.2l-.6.1s0 .1.1.1h.6v.7h-.1l-1.2-.5-1.2 1h-.1v-1.5l-1.2-.9s-.1-.1 0-.1 1.4-.4 1.4-.4l.4-1.4c-.1-.1 0-.2.1-.1 0-.1 0 0 0 0"/><path fill="#00151D" d="M249 307.5l.6.9-.5.2s0 .1.1.1h.6l.1.1-1 .3.1.1h.6l.1.1-1 .2.1.1c.1 0 1.1-.1 1.2-.1l.1.1-1 .3.1.1 1.3-.1.1.1-1 .3s0 .1.1.1l1.1-.1v.2l-.6.1s0 .1.1.1h.6v.7h-.1l-1.2-.5-1.2 1h-.1v-1.5l-1.2-.9s-.1-.1 0-.1 1.4-.4 1.4-.4l.4-1.4c0-.1 0-.1.1-.1 0-.1 0 0 0 0"/><path fill="#00914C" d="M251.9 307.1l.6.9-.6.2s0 .1.1.1h.6l.1.1-1 .3.1.1h.6l.1.1-1 .2.1.1c.1 0 1.1-.1 1.2-.1l.1.1-1 .3.1.1 1.3-.1.1.1-1 .3s0 .1.1.1l1.1-.1v.2l-.6.1s0 .1.1.1h.6v.7h-.1l-1.2-.5-1.2 1h-.1V310l-1.2-.9s-.1-.1 0-.1 1.4-.4 1.4-.4l.4-1.4c.1-.1.1-.2.2-.1 0-.1 0 0 0 0"/></g></svg>