<svg xmlns="http://www.w3.org/2000/svg" xmlns:xlink="http://www.w3.org/1999/xlink" viewBox="0 0 263 292" enable-background="new 0 0 263 292"><defs><path id="a" d="M50 242.2l5.1-5.8c5.7 4.5 14.4 9.5 26.4 14.9 4.3 2 9.7 3.9 15.1 5.3l-3.4 5.4L50 242.2zm81.7-147c3 4 5.8 8 8.1 11.3-4.6 1.8-9.1 3.2-12.5 4.1 1.4-2.8 4.1-9 4.4-15.4m3.7-90.8c-1.6.5-3.3 1-5.1 1.5-1.3.4-2.6.7-3.8 1.1-11.2 3.1-19.2 5.4-20.1 14.7-.5 5.1 1.6 10.1 5.4 16.7-4-2.3-7.7-4.5-10.5-6.1-.3-2-1.7-10.4-6-14.5-3.7-3.6-7.6-4.4-8.6-4.6-1.3-1.8-2.6-3.3-3.6-4.1-5.3-4.3-11.3-.7-12.2-.1-2.1-1.8-4.2-3.5-5.9-4.4-2.5-1.5-6.5-.6-9.7 2-4 3.3-5.5 8.2-3.8 13 1.5 4.4 4.5 6.2 7.1 7.7 1.4.8 2.7 1.6 3.6 2.7 2.5 2.8 4.9 7.2 5.6 8.6-.6 1-2.5 3.5-5.5 4-7.3 1.2-11.7 3.5-13 7.1-1.1 3-.5 7.1 1.4 10 1.6 2.4 3.8 3.8 6.4 3.9 2 .1 4.2-.7 6.6-1.6 2.5-.9 5.1-1.8 7.5-1.8 1.3 0 4.3.7 6.1 1.1l.4.1c1.9.4 3.9.5 5.7.5 1.4 0 2.7 0 3.5.3 8.5 2.5 20.8 9.5 28 14.3-2-.3-4.1-.5-6.4-.5-13.7 0-27.3 9-32.8 13.2l2.6-6.7c.1-.3 0-.7-.2-.9-.2-.2-.6-.3-.9-.2-.9.3-21.9 8.7-23.7 27-1.3 12.7 6.7 22.2 13.6 27.9-4.9.9-13.8 2.4-15.8 2.2-1-.1-2.8-1.1-4.9-2.5 0-1.3-.7-4-6.4-7.3s-12.8-7-17.2-7c-3.8 0-6.6 2.5-8.4 5.1l-.1-12.9c0-.7-.1-6.8-3.6-8-3.5-1.2-7.1-2-7.1-2.1h-.1-.1H3.1c-.1 0-.1 0-.1.1l-.1.1-.1.1-.1.1c0 .1-.1.1-.1.2V104.7L1 224.5V224.8c0 .1 0 .1.1.2v.1c.1.2 2.9 4 8.3 4h.1c1.5 0 2.7-.5 3.6-1.5 2.4-2.6 2.1-7.5 2-7.7l-.2-21.3c3.4 2.1 7.2 3.3 10.9 3.3 1 0 2-.1 3-.3 4.3-.8 9.9-3.8 12.7-13.3 2.1-7.3-1-16.9-2.3-20.4h1.6c5.8 4.1 12.7 7.4 19.3 8 4.6.4 8.4.6 11.4.6 6.4 0 9.2-.7 9.4-.7.1 0 .1 0 .1-.1 1.6 3.3 3.1 5.8 4.3 7.7 1.2 1.9 2.1 3.4 2 4.1-.2 2.1-8.1 7.8-15.6 13-.8-.4-2.4-.8-4.6.7-6.3 4.2-17.2 12.7-20.4 17-1.1 1.5-2.1 4.2-1.2 7 .5 1.6 1.9 3.6 2.9 4.9l-7.3 8.3-12.9-5.9c-.6-.3-6.2-2.8-8.7-.2-2.6 2.7-4.9 5.5-4.9 5.6v.1l-.1.1V239s0 .1.1.1l.1.1v.1h.1l.1.1L122.5 292c.1 0 .2.1.3.1.1 0 .2 0 .3-.1h.1c.1 0 .2-.1.3-.2.1-.1 1.9-2.2 4.1-7 .6-1.3.7-2.6.1-3.9-1.3-3.3-5.9-5.1-6.1-5.1l-20.6-9.5 4.6-7.2c2.1.3 4.2.5 6 .5 3.3 0 6-.5 7.5-1.8 5.2-4.4 4.8-19.2 1.6-25-3.8-6.9-13.1-10.2-22.2-11.7.7-.4 1.3-.8 1.7-1.2.7-.6.8-1.4.8-2.1 6.8-3.5 15.7-8.1 19.1-10.5 6.7-4.6 6.2-11.4 5.5-21.8-.1-1-.2-2.1-.2-3.2-.2-2.6-.4-5.4-.7-8.2 3.3.7 13.1 2.4 27.6 2.4 3.3 0 6.9-.1 10.6-.3-.6 2.1-1.6 6.5-.5 9.5 1.4 3.7 4.9 8.5 8.5 13.6 4 5.5 8.1 11.3 9.3 15.3.2.6-.3 2.8-.7 4.3-.2.8-.4 1.5-.5 2.2-.4 2-.9 6.4-1 7.8-1.9 1.4-7.7 6-6.8 9.4.9 3.5 2.9 5.7 5 7h.1c1.6 1 3.1 1.5 4.4 1.8.9.2 1.8.3 2.7.3 3.7 0 7.2-1.9 10.3-5.7.6-.7 1.2-1.8 1.8-2.9.9-1.6 1.9-3.4 3.2-4.8 1 1.7 3.5 5.3 7.6 7.2 2 .9 4.1 1.2 5.6 1.2 1 0 1.8-.1 2.3-.2.7.4 1.4.8 2 1.1 3.6 1.5 14.1 2.2 14.6 2.3 6.6.7 9.6-1.6 12.4-5.6 1.6-2.2 1.8-7.3-.2-9.5-2-2.3-7.3-4.4-12.4-6.4-3.8-1.5-7.5-2.9-9.2-4.2-2.9-2.2-5-6.1-7.2-9.9-.9-1.6-1.8-3.2-2.6-4.5-.6-1-1.7-2.6-2.9-4.6v-.1c-4.6-7.4-11.9-19.6-13.5-22.3 1.7-1.8 3.3-3.8 4.7-5.5h.2c3.2 0 6.4-.6 9.5-1.7 5.1-1.9 7.2-6.6 7.9-8.5 1.3.4 2.6.6 3.9.6 2.5 0 4.9-.7 6.5-2.1 3.4-2.8 5.7-10.5 6.3-12.4 2.1-.2 3.6-.7 4.1-.8.4.1 1.2.2 2.2.2 1.8 0 4.2-.3 6.3-1.9 3.8-2.9 6.1-6.4 7.3-8.4 2.9-3 3.9-7.1 2.6-10.8-.3-.8-.7-1.6-1.1-2.3.8-1 2.7-3.4 4-5.7 2.1-3.6 2.8-7.1 2.8-7.2v-.1-.1c0-.1-2.5-14.8-4.3-23-.6-3-1.2-4.8-1.9-6.2-.2-.5-.5-1-.7-1.5-.5-1.1-1.1-2.3-1.7-3.5.4-1.9 2.6-13.1 3.2-18.6 1.6-15.2-.4-23.9-2.8-27-.6-.7-1.7-2.2-3.7-2.2-2.7 0-6.1 2.8-10.7 8.8-6.9 9.1-10.1 13.1-11.3 14.5-.9-.7-1.4-1.3-1.5-2.1-.1-1 .7-3.8 1.9-8l.8-2.9c3.7-13.1 3.7-16-.1-18.4-8.7-5.4-25.4 6.8-36.3 16.2 0-1.2.1-3 .1-5.2 0-7-5.2-8-10.8-8-6.2 0-13.8.8-16.3 1-.1-.9-.3-1.7-.4-2.5-1.4-9.5-2.2-14.8-6.5-18.7-2.4-2.2-5.3-3-8.6-3-3.9-.6-9.3 1-15.4 2.9"/></defs><clipPath id="b"><use xlink:href="#a" overflow="visible"/></clipPath><radialGradient id="c" cx="-288.792" cy="443.547" r="1" gradientTransform="scale(254.6359 -254.6359) rotate(4.054 6129.468 4310.753)" gradientUnits="userSpaceOnUse"><stop offset="0" stop-color="#fff"/><stop offset=".356" stop-color="#fff"/><stop offset=".544" stop-color="#f6f6f6"/><stop offset=".852" stop-color="#ddd"/><stop offset="1" stop-color="#cfcfcf"/></radialGradient><path clip-path="url(#b)" fill="url(#c)" d="M-19.5 2.3l281.2-19.9 21.8 307.9L2.4 310.2z"/><defs><path id="d" d="M211.9 143.9c1.4 7.2 4.8 11.6 9.3 11.9 1.2.1 2.3-.4 3.1-1.3.1-.6.2-2.6-.9-5.1-.6-1.4-2.7-4-3.2-4.5-3.6-2.6-6.5-6.8-9.4-11.6.3 3.4.7 8.2 1.1 10.6"/></defs><clipPath id="e"><use xlink:href="#d" overflow="visible"/></clipPath><linearGradient id="f" gradientUnits="userSpaceOnUse" x1="-291.302" y1="452.741" x2="-290.302" y2="452.741" gradientTransform="rotate(69.749 3682.496 9148.792) scale(20.5033)"><stop offset="0" stop-color="#c20a6c"/><stop offset=".472" stop-color="#e3097e"/><stop offset="1" stop-color="#e3097e"/></linearGradient><path clip-path="url(#e)" fill="url(#f)" d="M203.6 136.1l9 24.2 19.3-7.1-8.9-24.3z"/><defs><path id="g" d="M191.2 39.8c-4.5 4.1-9.3 9.9-13.3 15.3h-.1c-8.8 5.5-15.5 13.4-15.6 13.5l-.1.1c0 .1-.1.1-.1.2-.2.8-5.3 20.6 8.9 51.4 1.4 2.9 3 5.7 4.9 8.4.1.1.2.2.3.2h.1c.1 0 .2.1.3.1.1 0 .2 0 .3-.1h.1l.1-.1.1-.1.1-.1c0-.1 0-.1.1-.2v-.2-.2-.2-.1c0-.1-4.3-8.9-5.9-16.4-.9-4.6-1.1-9-1.1-10.2 1.4-1.2 8.4-7.4 22.4-14.8 18.1-9.6 32.5-12 40.6-6.8 3.9 2.5 4.6 5.8 4.9 9 .3 4.2-.4 15.1-1.8 22.3v.5c0 .1 0 .1.1.1l.1.1.1.1.1.1s.1 0 .1.1H237.6c.1 0 .1-.1.2-.1l.1-.1.1-.1s0-.1.1-.1c0 0 0-.1.1-.1 3.7-12.1 11.2-31.1 15.6-30.4.6.1 1.1.6 1.6 1.7 0 .1.1.2.2.2h.1c.1.1.1.1.2.1h.3c.1 0 .2 0 .2-.1h.1c.1 0 .1-.1.1-.1l.1-.1c0-.1.1-.1.1-.2 0 0 0-.1.1-.1v-.2-.1c0-.1 0-.1-.1-.2v-.1c-.2-.5-.5-1-.7-1.5-.5-1.1-1.1-2.3-1.7-3.5.4-1.9 2.6-13.1 3.2-18.6 1.6-15.2-.4-23.9-2.8-27-.6-.7-1.7-2.2-3.7-2.2-2.7 0-6.1 2.8-10.7 8.8-6.9 9.1-10.1 13.1-11.3 14.5-.9-.7-1.4-1.3-1.5-2.1-.1-1 .7-3.8 1.9-8l.8-2.9c3.7-13.1 3.7-16-.1-18.4-1.5-.9-3.2-1.3-5.1-1.3-10 .2-25 12.2-33.9 20.3"/></defs><clipPath id="h"><use xlink:href="#g" overflow="visible"/></clipPath><linearGradient id="i" gradientUnits="userSpaceOnUse" x1="-286.285" y1="443.016" x2="-285.285" y2="443.016" gradientTransform="scale(-113.1512) rotate(15.545 1481.442 1260.97)"><stop offset="0" stop-color="#585857"/><stop offset=".317" stop-color="#878786"/><stop offset=".75" stop-color="#c2c2c2"/><stop offset=".957" stop-color="#d9d9d9"/><stop offset="1" stop-color="#d9d9d9"/></linearGradient><path clip-path="url(#h)" fill="url(#i)" d="M287.5 27.5L164-6.8l-35.6 128.1 123.5 34.3z"/><path fill="#FFF" d="M186.9 67.5c.2.3.4.5.8.5.1 0 .3 0 .4-.1 13.5-7 29.5-11.1 29.6-11.1h.1c.1 0 .1 0 .2-.1l.1-.1.1-.1.1-.1c0-.1 4.9-11.8 7.4-19.6.3-.8.5-1.5.7-2.2 1.7-5.1 2.4-7.2-.3-8.8-2.9-1.6-8.8-1.5-25.7 18.7-7.8 9.3-13.3 21.9-13.3 22-.3.3-.4.6-.2 1M238.3 60.2v.2c0 .1 0 .1.1.2l.1.1c0 .1.1.1.1.1 2.6 2.1 4.9 4.2 6.9 6.4.8.9 1.5 1.8 2.2 2.6.1.1.1.1.2.1 0 0 .1 0 .1.1.1 0 .2.1.3.1h.4c.1 0 .1-.1.2-.1.1-.1.1-.1.1-.2 0 0 0-.1.1-.1v-.1c.1-.2 2-5.4 3.4-14.7 1-7.2 1.9-16.4 0-18.8-.4-.5-.9-.7-1.5-.6-1 .1-1.9 1.1-2.8 2.9-4.1 8.6-9.8 21.4-9.8 21.6V60.3c-.1-.3-.1-.2-.1-.1"/><defs><path id="j" d="M189.5 29.4h60.2v36.3h-60.2z"/></defs><clipPath id="k"><use xlink:href="#j" overflow="visible"/></clipPath><path clip-path="url(#k)" fill="#EDEDED" d="M189.5 65.2c1.9-3.9 6.4-12.7 12.2-19.6 7.3-8.7 12.5-13.6 16.2-16.2.5 8.4-.5 17.4-3.2 26.4-4.9 1.3-15.4 4.6-25.2 9.4M249.5 39.4c.6 8.4-.4 17.3-3.1 26.3-1.8-2-3.9-3.9-6.3-5.8 1.2-2.6 5.8-13 9.4-20.5"/><defs><path id="l" d="M229.3 32.8h16.9V59h-16.9z"/></defs><clipPath id="m"><use xlink:href="#l" overflow="visible"/></clipPath><path clip-path="url(#m)" fill="#EDEDED" d="M246.1 32.8L238.2 59l-9-5.5s4.6-5.6 5.9-7c1.8-1.9 11-13.7 11-13.7"/><g opacity=".6"><defs><path id="n" d="M209.9 99.1h9.4v9.4h-9.4z"/></defs><clipPath id="o"><use xlink:href="#n" overflow="visible"/></clipPath><g clip-path="url(#o)"><defs><path id="p" d="M210.1 102.5c-.7 2.5.8 5.1 3.3 5.8 2.5.7 5.1-.8 5.8-3.3.7-2.5-.8-5.1-3.3-5.8-2.6-.6-5.2.8-5.8 3.3"/></defs><clipPath id="q"><use xlink:href="#p" overflow="visible"/></clipPath><radialGradient id="r" cx="-246.501" cy="431.507" r="1" gradientTransform="rotate(-164.562 -599.122 968.55) scale(4.6783)" gradientUnits="userSpaceOnUse"><stop offset="0" stop-color="#81cff4"/><stop offset=".171" stop-color="#71c9f2"/><stop offset=".503" stop-color="#48b9ec"/><stop offset=".961" stop-color="#06a0e3"/><stop offset="1" stop-color="#009ee2"/></radialGradient><path clip-path="url(#q)" fill="url(#r)" d="M222.4 99.3l-12.3-3.4-3.4 12.3 12.3 3.4z"/></g></g><path fill="#B2B2B1" d="M207.9 107.9c5.2 6 13.6 4.4 14.6 2.3 1.3-2.7 1.4-6.9-.4-10-1.8-3.1-4.2-4.4-5.9-5-3.1-1.1-5.8-.4-8 2.2-2.3 2.6-2.8 7.6-.3 10.5m1.3-.3c-1.5-2-1.6-4.5-.3-7 1.4-2.9 3.6-3.9 7.1-3 2 .5 7.5 3.2 6.2 11-.4 2.3-4.3 2.7-6.3 2.4-2.9-.4-5.1-1.3-6.7-3.4"/><defs><path id="s" d="M211.3 103.9c.2 2.2 2.5 2.6 2.5 2.6 5.3 1 4.5-5.4 1.9-6.1-.4-.1-.7-.1-1.1-.1-2.1-.1-3.5 1.7-3.3 3.6"/></defs><clipPath id="t"><use xlink:href="#s" overflow="visible"/></clipPath><radialGradient id="u" cx="-227.597" cy="426.044" r="1" gradientTransform="scale(-3.2142) rotate(15.438 1543.074 790.298)" gradientUnits="userSpaceOnUse"><stop offset="0" stop-color="#585857"/><stop offset=".39" stop-color="#444443"/><stop offset="1" stop-color="#1e1e1c"/></radialGradient><path clip-path="url(#t)" fill="url(#u)" d="M220.9 100.8l-9.3-2.6-2.4 8.8 9.3 2.5z"/><path fill="#FFF" d="M213 102s.4-.9 1.1-.7c.7.2.5.9.1 1.3-.3.5-1.2.4-1.2-.6"/><g opacity=".6"><defs><path id="v" d="M244.3 99h6.3v8.9h-6.3z"/></defs><clipPath id="w"><use xlink:href="#v" overflow="visible"/></clipPath><g clip-path="url(#w)"><defs><path id="x" d="M246.4 100.2c-1.5 1.5-2.4 4.7-2 6.3.5 1.8 2.3 2 3.9.4s2.6-4.5 2.1-6.4c-.5-1.9-2.4-1.9-4-.3"/></defs><clipPath id="y"><use xlink:href="#x" overflow="visible"/></clipPath><radialGradient id="z" cx="-242.579" cy="390.714" r="1" gradientTransform="matrix(-.9966 -3.382 2.9707 -2.9556 -1154.98 437.837)" gradientUnits="userSpaceOnUse"><stop offset="0" stop-color="#81cff4"/><stop offset=".171" stop-color="#71c9f2"/><stop offset=".503" stop-color="#48b9ec"/><stop offset=".961" stop-color="#06a0e3"/><stop offset="1" stop-color="#009ee2"/></radialGradient><path clip-path="url(#y)" fill="url(#z)" d="M253.3 106.2l-3.9-13-7.7 7.6 3.9 13.1z"/></g></g><defs><path id="A" d="M245.8 101.7c-1.2 1.8-.7 3.3-.7 3.3 1.2 3.6 4.7-1.7 4.2-3.6-.2-.8-.7-1.2-1.4-1.2-.6 0-1.4.4-2.1 1.5"/></defs><clipPath id="B"><use xlink:href="#A" overflow="visible"/></clipPath><radialGradient id="C" cx="-224.142" cy="364.866" r="1" gradientTransform="matrix(-.576 -2.3232 2.1021 -1.9172 -648.812 281.836)" gradientUnits="userSpaceOnUse"><stop offset="0" stop-color="#585857"/><stop offset=".39" stop-color="#444443"/><stop offset="1" stop-color="#1e1e1c"/></radialGradient><path clip-path="url(#B)" fill="url(#C)" d="M251.6 107.1l-2.7-10.8-6 5.4 2.7 10.8z"/><g><path fill="#FFF" d="M246.1 102s.3-.9 1.1-.7c.7.2.5.9.1 1.3-.3.5-1.2.4-1.2-.6"/><path fill="#B2B2B1" d="M254.4 96.4c-.9-2.5-5-2.9-8.3 2.6-2.1 3.6-4.9 10.7-3.8 12.1 1.2 1.6 5.9 1.6 9.7-3.5 2.7-3.4 3.3-8.7 2.4-11.2m-10.9 14.1c-1.2-2.3 2.7-11 6.7-13.2 1.9-1.1 2.9.6 3.1 3 .3 3-.8 5.4-2.6 7.7-2.1 3-6.5 3.9-7.2 2.5"/><defs><path id="D" d="M208.6 126.5h33.5v21h-33.5z"/></defs><clipPath id="E"><use xlink:href="#D" overflow="visible"/></clipPath><g clip-path="url(#E)"><defs><path id="F" d="M229 126.5s-2.7 9.2-9.7 7.9c-2.8-.5-7.4-4.3-10.3-6.9-1.7-1.5 3.8 8.5 5.3 10.4 2.2 2.8 8 7.8 11.3 9 2.8 1.1 10.5.5 13.4-.6.9-.4 3.3-4.1 3.3-4.1s-11.1-4.3-12.8-7.6c-1.1-1.8-.5-8.1-.5-8.1"/></defs><clipPath id="G"><use xlink:href="#F" overflow="visible"/></clipPath><linearGradient id="H" gradientUnits="userSpaceOnUse" x1="-282.958" y1="439.925" x2="-281.958" y2="439.925" gradientTransform="rotate(-145.69 -6730.576 5825.69) scale(32.8351)"><stop offset="0" stop-color="#fff"/><stop offset=".356" stop-color="#fff"/><stop offset=".629" stop-color="#f6f6f6"/><stop offset="1" stop-color="#e3e3e2"/></linearGradient><path clip-path="url(#G)" fill="url(#H)" d="M252.4 133l-34.1-23.3-21.4 31.3 34.1 23.3z"/></g><defs><path id="I" d="M161.8 29.6h43.5v118.2h-43.5z"/></defs><clipPath id="J"><use xlink:href="#I" overflow="visible"/></clipPath><path clip-path="url(#J)" fill="#EDEDED" d="M163.4 67.9l13.4-10.5c2.6-3.6 5.2-7 6.9-9.1 4.3-5.2 21.6-18.8 21.6-18.8s-9.6 11.1-13.6 19.4c-2.1 4.3-10.1 31-10.1 31s-3.7-.5-6.5-1.4c-9.3 8.4-5 20.5-.3 31.9 3.9 9.5 17.4 25.9 20.3 28.8 1.5 1.5 7.5 4.9 7.5 4.9l1 3.6s-25.8-7.4-35.3-36.1c-2.5-7.5-6-22.6-6.5-30.4-.2-3.1 1.6-13.3 1.6-13.3"/><defs><path id="K" d="M229.3 32.8h16.9V59h-16.9z"/></defs><clipPath id="L"><use xlink:href="#K" overflow="visible"/></clipPath><path clip-path="url(#L)" fill="#EDEDED" d="M246.1 32.8L238.2 59l-9-5.5s4.6-5.6 5.9-7c1.8-1.9 11-13.7 11-13.7"/><g><defs><path id="M" d="M240.1 138.8h12.1v7.7h-12.1z"/></defs><clipPath id="N"><use xlink:href="#M" overflow="visible"/></clipPath><path clip-path="url(#N)" fill="#EDEDED" d="M243.5 142.1l8.7-3.3s-2.2 3.2-3.1 4.2c-1.1 1.3-2.9 3-6.1 3.5-.7.1-2.8 0-2.8 0l3.3-4.4z"/></g><g><defs><path id="O" d="M220.7 147.8h13.2v14.5h-13.2z"/></defs><clipPath id="P"><use xlink:href="#O" overflow="visible"/></clipPath><path clip-path="url(#P)" fill="#EDEDED" d="M228.5 148.4s-1.3 3.8-1.9 4.9c-1.7 3-5.3 3.2-5.3 3.2s.8 1.5.9 3c.1 1.2-1.4 2.7-1.4 2.7s5.4-1.1 6.7-1.9c3.1-2 4.8-6.7 5.5-10 .2-.9 1-2.6 1-2.6l-5.5.7z"/></g><g opacity=".6"><defs><path id="Q" d="M209.9 99.1h9.4v9.4h-9.4z"/></defs><clipPath id="R"><use xlink:href="#Q" overflow="visible"/></clipPath><g clip-path="url(#R)"><defs><path id="S" d="M210.1 102.5c-.7 2.5.8 5.1 3.3 5.8 2.5.7 5.1-.8 5.8-3.3.7-2.5-.8-5.1-3.3-5.8-2.6-.6-5.2.8-5.8 3.3"/></defs><clipPath id="T"><use xlink:href="#S" overflow="visible"/></clipPath><radialGradient id="U" cx="-246.502" cy="431.507" r="1" gradientTransform="rotate(-164.562 -599.123 968.549) scale(4.6783)" gradientUnits="userSpaceOnUse"><stop offset="0" stop-color="#81cff4"/><stop offset=".171" stop-color="#71c9f2"/><stop offset=".503" stop-color="#48b9ec"/><stop offset=".961" stop-color="#06a0e3"/><stop offset="1" stop-color="#009ee2"/></radialGradient><path clip-path="url(#T)" fill="url(#U)" d="M222.4 99.3l-12.3-3.4-3.4 12.3 12.3 3.4z"/></g></g><path fill="#B2B2B1" d="M207.9 107.9c5.2 6 13.6 4.4 14.6 2.3 1.3-2.7 1.4-6.9-.4-10-1.8-3.1-4.2-4.4-5.9-5-3.1-1.1-5.8-.4-8 2.2-2.3 2.6-2.8 7.6-.3 10.5m1.3-.3c-1.5-2-1.6-4.5-.3-7 1.4-2.9 3.6-3.9 7.1-3 2 .5 7.5 3.2 6.2 11-.4 2.3-4.3 2.7-6.3 2.4-2.9-.4-5.1-1.3-6.7-3.4"/></g><g><defs><path id="V" d="M211.3 103.9c.2 2.2 2.5 2.6 2.5 2.6 5.3 1 4.5-5.4 1.9-6.1-.4-.1-.7-.1-1.1-.1-2-.1-3.5 1.7-3.3 3.6"/></defs><clipPath id="W"><use xlink:href="#V" overflow="visible"/></clipPath><radialGradient id="X" cx="-227.597" cy="426.044" r="1" gradientTransform="matrix(-3.0982 -.8556 .8556 -3.0982 -855.13 1228.604)" gradientUnits="userSpaceOnUse"><stop offset="0" stop-color="#585857"/><stop offset=".39" stop-color="#444443"/><stop offset="1" stop-color="#1e1e1c"/></radialGradient><path clip-path="url(#W)" fill="url(#X)" d="M220.9 100.8l-9.3-2.6-2.4 8.8 9.3 2.5z"/></g><g><path fill="#FFF" d="M213 102s.4-.9 1.1-.7c.7.2.5.9.1 1.3-.3.5-1.2.4-1.2-.6"/><g opacity=".6"><defs><path id="Y" d="M244.3 99h6.3v8.9h-6.3z"/></defs><clipPath id="Z"><use xlink:href="#Y" overflow="visible"/></clipPath><g clip-path="url(#Z)"><defs><path id="aa" d="M246.4 100.2c-1.5 1.5-2.4 4.7-2 6.3.5 1.8 2.3 2 3.9.4s2.6-4.5 2.1-6.4c-.5-1.9-2.4-1.9-4-.3"/></defs><clipPath id="ab"><use xlink:href="#aa" overflow="visible"/></clipPath><radialGradient id="ac" cx="-242.574" cy="390.708" r="1" gradientTransform="matrix(-.9964 -3.3816 2.9703 -2.9552 -1154.8 437.797)" gradientUnits="userSpaceOnUse"><stop offset="0" stop-color="#81cff4"/><stop offset=".171" stop-color="#71c9f2"/><stop offset=".503" stop-color="#48b9ec"/><stop offset=".961" stop-color="#06a0e3"/><stop offset="1" stop-color="#009ee2"/></radialGradient><path clip-path="url(#ab)" fill="url(#ac)" d="M253.3 106.2l-3.9-13-7.7 7.6 3.9 13.1z"/></g></g></g><g><defs><path id="ad" d="M245.8 101.7c-1.2 1.8-.7 3.3-.7 3.3 1.2 3.6 4.7-1.7 4.2-3.6-.2-.8-.7-1.2-1.4-1.2-.6 0-1.4.4-2.1 1.5"/></defs><clipPath id="ae"><use xlink:href="#ad" overflow="visible"/></clipPath><radialGradient id="af" cx="-224.147" cy="364.872" r="1" gradientTransform="matrix(-.576 -2.3234 2.1022 -1.9173 -648.892 281.849)" gradientUnits="userSpaceOnUse"><stop offset="0" stop-color="#585857"/><stop offset=".39" stop-color="#444443"/><stop offset="1" stop-color="#1e1e1c"/></radialGradient><path clip-path="url(#ae)" fill="url(#af)" d="M251.6 107.1l-2.7-10.8-6 5.4 2.7 10.8z"/></g><g><path fill="#FFF" d="M246.1 102s.4-.9 1.1-.7c.7.2.5.9.1 1.3-.3.5-1.2.4-1.2-.6"/><path fill="#B2B2B1" d="M254.4 96.4c-.9-2.5-5-2.9-8.3 2.6-2.1 3.6-4.9 10.7-3.8 12.1 1.2 1.6 5.9 1.6 9.7-3.5 2.7-3.4 3.3-8.7 2.4-11.2m-10.9 14.1c-1.2-2.3 2.7-11 6.7-13.2 1.9-1.1 2.9.6 3.1 3 .3 3-.8 5.4-2.6 7.7-2.1 3-6.5 3.9-7.2 2.5"/></g><g><defs><path id="ag" d="M167.2 26.7c.3 2.2.7 4.5 1.2 7.1 1.7 9.5 3.2 21.2 3.8 25.3 1.7-1.4 3.6-2.8 5.6-4h.1c4-5.4 8.8-11.2 13.3-15.3.4-.3.7-.7 1.1-1 0-.9.1-3.2.1-6.8 0-5.3-3.4-6.3-9.1-6.3h-.5c-6 0-13.1.8-15.6 1"/></defs><clipPath id="ah"><use xlink:href="#ag" overflow="visible"/></clipPath><linearGradient id="ai" gradientUnits="userSpaceOnUse" x1="-288.699" y1="448.274" x2="-287.699" y2="448.274" gradientTransform="scale(41.6162 -41.6162) rotate(82.405 114.662 390.667)"><stop offset="0" stop-color="#0075be"/><stop offset=".393" stop-color="#0075be"/><stop offset=".63" stop-color="#008ed4"/><stop offset=".822" stop-color="#009ee2"/><stop offset="1" stop-color="#009ee2"/></linearGradient><path clip-path="url(#ah)" fill="url(#ai)" d="M162.8 58.6l4.8-36.2 29.2 3.9-4.8 36.2z"/></g><g><defs><path id="aj" d="M135.9 6c-1.6.5-3.3 1-5.1 1.5-1.3.4-2.6.7-3.8 1.1-10.9 3.1-18.1 5.1-18.8 13.3-.6 6.6 3.6 13.4 10.5 24.6 3.4 5.5 7.3 11.8 11.6 19.6 6.1 11.1 9.4 16.6 13.2 23 2.3 3.8 4.9 8.1 8.4 14.2 5.6 9.6 13.4 10.5 16.3 10.4-10.7-27-6.3-44.1-6.1-44.8 0-.1.1-.1.1-.2 0 0 0-.1.1-.1 0-.1 3.4-3.9 8.4-8.2-.3-2.6-2-15.8-3.9-26.3-.8-4.4-1.4-8.1-1.8-11.4-1.4-9.2-2.1-14.2-6-17.6-2.1-1.9-4.6-2.6-7.5-2.6-4.4.1-9.6 1.7-15.6 3.5"/></defs><clipPath id="ak"><use xlink:href="#aj" overflow="visible"/></clipPath><linearGradient id="al" gradientUnits="userSpaceOnUse" x1="-286.965" y1="445.513" x2="-285.965" y2="445.513" gradientTransform="scale(-95.5378 95.5378) rotate(-60.013 -529.077 -23.564)"><stop offset="0" stop-color="#0075be"/><stop offset=".393" stop-color="#0075be"/><stop offset=".63" stop-color="#008ed4"/><stop offset=".822" stop-color="#009ee2"/><stop offset="1" stop-color="#009ee2"/></linearGradient><path clip-path="url(#ak)" fill="url(#al)" d="M123.3 141.1L59.4 30.4l95.5-55.1L218.8 86z"/></g><g><defs><path id="am" d="M154.8 120.4c-1.2 18.3 12.7 32.4 18.8 37.6 13.2 11.4 25 15 36 11 4.4-1.6 6.3-5.8 6.9-7.5-4.3-2-9.3-8-12.3-12.2-11.4-3.8-26-13.4-33.2-29-.8-1.7-1.5-3.3-2.2-4.9h-.7c-2.3 0-6.9-.5-11.5-4.1-.9 3.3-1.6 6.4-1.8 9.1"/></defs><clipPath id="an"><use xlink:href="#am" overflow="visible"/></clipPath><linearGradient id="ao" gradientUnits="userSpaceOnUse" x1="-284.025" y1="440.926" x2="-283.025" y2="440.926" gradientTransform="scale(-42.3693 42.3693) rotate(34.236 566.435 675.348)"><stop offset="0" stop-color="#0075be"/><stop offset=".393" stop-color="#0075be"/><stop offset=".63" stop-color="#008ed4"/><stop offset=".822" stop-color="#009ee2"/><stop offset="1" stop-color="#009ee2"/></linearGradient><path clip-path="url(#an)" fill="url(#ao)" d="M245.2 153.6l-71.7 48.7-48.5-71.4 71.6-48.7z"/></g><g><defs><path id="ap" d="M18.8 161.1c-2.4.3-5.4 1.4-6.6 1.9l-.5 8.5c2.6-.4 9.4-1.3 16.3-1.3 5.1 0 8.9.7 10.8 1.1-.5-1.8-1-3.1-1.3-3.7-1.5-.3-3.3-.9-5.6-2.1-2.8-1.4-4.9-3.1-6.4-4.8-1 0-4.1.1-6.7.4"/></defs><clipPath id="aq"><use xlink:href="#ap" overflow="visible"/></clipPath><linearGradient id="ar" gradientUnits="userSpaceOnUse" x1="-284.192" y1="443.661" x2="-283.192" y2="443.661" gradientTransform="scale(-53.0253 53.0253) rotate(-1.801 -14152.066 -8776.246)"><stop offset="0" stop-color="#585857"/><stop offset=".193" stop-color="#7a7877"/><stop offset="1" stop-color="#d9d9d9"/></linearGradient><path clip-path="url(#aq)" fill="url(#ar)" d="M38.8 172.3l-27.4-.8.4-11.7 27.4.9z"/></g><g><defs><path id="as" d="M76.6 221.3c-.4.1-3.5 1-6.2 4.1-1.7 1.9-3.1 4.2-3.8 5.4l8.4 3.8c.8-1.4 2.6-4.6 4.2-7.4 1.9-3.2 5.2-4.9 8.3-5.9-1.8-.1-3.5-.1-5-.1-3.3-.1-5.6.1-5.9.1"/></defs><clipPath id="at"><use xlink:href="#as" overflow="visible"/></clipPath><linearGradient id="au" gradientUnits="userSpaceOnUse" x1="-285.057" y1="440.8" x2="-284.057" y2="440.8" gradientTransform="scale(-50.338 50.338) rotate(43.524 403.516 576.825)"><stop offset="0" stop-color="#585857"/><stop offset=".193" stop-color="#7a7877"/><stop offset="1" stop-color="#d9d9d9"/></linearGradient><path clip-path="url(#at)" fill="url(#au)" d="M94.2 228.2L76.5 245l-16.6-17.5 17.7-16.8z"/></g><g><defs><path id="av" d="M94.7 262.8l5.2 2.4 4.3-6.8c-1.9-.3-3.9-.8-6-1.3l-3.5 5.7zm-73.6-29.4c-1.7 1.8-3.3 3.6-4.1 4.6l106 51.8c.6-.9 2-2.8 3.5-6 .4-.9.4-1.7.1-2.6-.9-2.1-4-3.8-5.1-4.2l-93.6-43.1c-.9-.4-3-1.2-4.7-1.2-.9 0-1.6.2-2.1.7m22 5.7l5.3 2.4 5.4-6.1c-1.4-1.2-2.7-2.5-3.6-3.7 0 0-.1-.2-.3-.3l-6.8 7.7z"/></defs><clipPath id="aw"><use xlink:href="#av" overflow="visible"/></clipPath><linearGradient id="ax" gradientUnits="userSpaceOnUse" x1="-288.94" y1="443.016" x2="-287.94" y2="443.016" gradientTransform="scale(193.7098 -193.7098) rotate(-25.044 -1144.429 -429.403)"><stop offset="0" stop-color="#7d7b7a"/><stop offset=".638" stop-color="#b9b8b7"/><stop offset="1" stop-color="#8e8c8a"/></linearGradient><path clip-path="url(#aw)" fill="url(#ax)" d="M36.7 189.2l112.7 52.7-42.1 90.1-112.7-52.7z"/></g><g><defs><path id="ay" d="M2.7 224.2c.6.7 2.8 3.1 6.8 3.1h.1c1 0 1.8-.3 2.4-1 1.9-2 1.6-6.4 1.6-6.4l-.2-22.5c-1.4-1.1-2.7-2.3-3.8-3.8-5.9-7.5-6.1-24.5-.7-50.5 1-4.6 1.9-8.1 2.9-10.7.1-.2.4-1.3 1.1-2.7l-.1-15.7c0-1.4-.4-5.7-2.4-6.4-2.3-.8-4.6-1.4-5.9-1.7L2.7 224.2z"/></defs><clipPath id="az"><use xlink:href="#ay" overflow="visible"/></clipPath><linearGradient id="aA" gradientUnits="userSpaceOnUse" x1="-287.947" y1="442.141" x2="-286.947" y2="442.141" gradientTransform="matrix(-4 148.9972 148.9972 4 -67019.14 41222.29)"><stop offset="0" stop-color="#7d7b7a"/><stop offset=".638" stop-color="#b9b8b7"/><stop offset="1" stop-color="#8e8c8a"/></linearGradient><path clip-path="url(#az)" fill="url(#aA)" d="M17.1 105.9l-3.2 121.7-14.4-.3 3.3-121.8z"/></g><g><defs><path id="aB" d="M13.4 132.9s0 .1 0 0c-1 2.6-1.9 6-2.9 10.5-5.2 25.1-5.1 42.1.4 49.1 4.3 5.4 11.7 8.5 17.8 7.4 5.4-1 9.4-5.2 11.4-12.1 1.3-4.6.4-10.4-.8-14.7-1.3-.4-5.4-1.3-11.4-1.3-8.4 0-16.9 1.5-17 1.5h-.1-.1c-.1 0-.1 0-.2-.1 0 0-.1 0-.1-.1-.1 0-.1-.1-.1-.1l-.1-.1s-.1-.1-.1-.2v-.1-.1-.1-.1l.6-10.1v-.1-.2l.1-.1.1-.1s.1-.1.2-.1c0 0 .1 0 .1-.1.4-.2 4.3-1.7 7.5-2.2 2-.3 4.2-.4 5.7-.4-2.1-2.9-2.6-5.4-2.6-5.6-.1-.5.2-.9.7-1 .5-.1.9.2 1 .7 0 .1 1.3 6.6 9.4 10.8 2.6 1.3 4.6 1.9 6 2.1-5.6-4.3-10-9.1-12-12.4-4.2-7.1-1.6-16.2 3.2-20.6 4.6-4.1 8.9-2.6 9-2.5 0 0 .1 0 .1.1 0 0 .1 0 .1.1.7.5 1.4 1 2.1 1.6 1 .8 2 1.5 3 2.2-.6-1.1-2-2.5-5-4.3-3.2-1.8-11.8-6.8-16.4-6.8-6.6.1-9.6 9.5-9.6 9.6"/></defs><clipPath id="aC"><use xlink:href="#aB" overflow="visible"/></clipPath><linearGradient id="aD" gradientUnits="userSpaceOnUse" x1="-285.649" y1="441.94" x2="-284.649" y2="441.94" gradientTransform="scale(-71.6492 71.6492) rotate(34.236 571.099 684.334)"><stop offset="0" stop-color="#0075be"/><stop offset=".393" stop-color="#0075be"/><stop offset=".63" stop-color="#008ed4"/><stop offset=".822" stop-color="#009ee2"/><stop offset="1" stop-color="#009ee2"/></linearGradient><path clip-path="url(#aC)" fill="url(#aD)" d="M80.5 176.5l-62.9 42.8-48.4-71.3L32 105.3z"/></g><g><defs><path id="aE" d="M68.4 202.5c-6.1 4.1-16.9 12.6-20 16.6-.9 1.1-1.6 3.2-.9 5.5.8 2.5 3.9 6 3.9 6 4.6 5.6 14.7 11.9 30.8 19.2 4.9 2.2 10.5 4.1 15.9 5.5h.1c2.6.7 5.2 1.2 7.6 1.6h.2c5.9.9 10.7.7 12.7-.9 4.6-3.8 4.1-17.6 1.2-22.8-4.2-7.5-15.6-10.4-25.7-11.5-1.3.1-10.2.8-13.5 6.3-2.2 3.6-4.6 8-4.6 8s0 .1-.1.1c0 0 0 .1-.1.1l-.1.1-.1.1s-.1 0-.1.1H75.3c-.1 0-.2 0-.3-.1l-9.9-4.5-.1-.1-.1-.1-.1-.1-.1-.1v-.2-.2-.2-.1c.1-.1 1.9-3.7 4.5-6.6 3.3-3.7 7-4.6 7.1-4.6h.1c.7-.1 10-.7 20.1.6.7-.4 1.8-1 2.6-1.5-.3.2-.6.3-.9.5h-.1c-.3.1-1.1.3-2.5.3-2.9 0-8.4-.9-17.1-5.6-11-6-10.8-9.5-10.7-10.2 0 0 0-.1.1-.1 0-.1 0-.1.1-.2l.1-.1.1-.1.5-.3c.5-.3 1-.7 1.5-1-.5 0-1.1.2-1.8.6"/></defs><clipPath id="aF"><use xlink:href="#aE" overflow="visible"/></clipPath><linearGradient id="aG" gradientUnits="userSpaceOnUse" x1="-289.594" y1="443.144" x2="-288.594" y2="443.144" gradientTransform="matrix(121.3334 25 25 -121.3334 24087.133 61226.133)"><stop offset="0" stop-color="#0075be"/><stop offset=".393" stop-color="#0075be"/><stop offset=".63" stop-color="#008ed4"/><stop offset=".822" stop-color="#009ee2"/><stop offset="1" stop-color="#009ee2"/></linearGradient><path clip-path="url(#aF)" fill="url(#aG)" d="M49.9 186.7l84.4 17.4-14.2 68.9-84.4-17.4z"/></g><g><defs><path id="aH" d="M215.4 240c.2.1.4.3.7.4.4-.3 1.1-.7 1.8-1 .1-.1.3-.1.5-.1-1.4-.8-2.7-1.7-4-2.5-3.2-2-6.2-4-8.5-4.9 2.2 2.2 6.2 6 9.5 8.1m-14.7-7.7c.7 1.3 3 4.8 6.6 6.6.4-.3 1.2-.7 2.1-1 .1 0 .2-.1.3-.1-3.2-2.7-5.9-5.5-6.8-6.5-.8.2-1.6.5-2.2 1m-4.3-21.1c-4.5 1.4-8.1 1.8-10.8 1.8-1.4 0-2.5-.1-3.3-.2.1.3.2.6.3.8.3 1-.1 2.7-.6 5.1-.2.8-.3 1.5-.5 2.1-.4 2.3-1.1 8-1.1 8 0 .2-.2.5-.4.6-3 2.1-7 5.9-6.5 7.8.7 2.8 2.3 4.7 4 5.9 1-.3 4-1.3 7.7-3 3.3-1.5 5.9-1.9 7.7-1.2.3.1.5.2.7.4.3-.5.7-1.2 1.1-1.9 1.7-3.2 4.1-7.5 8.4-7.9h.1c2.7-.2 7 2.6 12 5.7 2 1.3 4.1 2.6 6.3 3.9 1.2.7 2.5 1.4 3.7 2 1-.7 3.9-2.3 10.1-3.3 3.6-.6 6.1-.6 7.5-.2.8-1.9.8-5.4-.4-6.7-1.8-2-7.1-4.1-11.8-5.9-4-1.6-7.7-3-9.6-4.5-3.1-2.4-5.5-6.7-7.6-10.5-.9-1.6-1.7-3.1-2.6-4.4-.5-.8-1.2-1.9-2.1-3.3-1.2 2.3-4.5 6.4-12.3 8.9"/></defs><clipPath id="aI"><use xlink:href="#aH" overflow="visible"/></clipPath><linearGradient id="aJ" gradientUnits="userSpaceOnUse" x1="-290.191" y1="444.046" x2="-289.191" y2="444.046" gradientTransform="scale(89.6645 -89.6645) rotate(14.229 1644.997 1390.922)"><stop offset="0" stop-color="#c20a6c"/><stop offset=".472" stop-color="#e3097e"/><stop offset="1" stop-color="#e3097e"/></linearGradient><path clip-path="url(#aI)" fill="url(#aJ)" d="M163.4 204.9l75.9-19.3 14 55.1-75.9 19.2z"/></g><g><defs><path id="aK" d="M218.5 241l-.6.3c1.4.5 3.8.9 6.1 1.2-1.1-.5-2.2-1.1-3.2-1.7h-.5c-.5-.1-1.2 0-1.8.2m-32.6.7c-2.6 1.2-4.9 2-6.3 2.6.7.3 1.5.5 2.1.7 3.9.9 7.6-.5 10.9-4.3-.3-.2-.8-.4-1.6-.4-1.1 0-2.7.3-5.1 1.4m24-2.2c-.2.1-.3.1-.5.2 1.1.3 2.2.4 3.1.4-.3-.2-.6-.5-.9-.7h-.5c-.3-.1-.7 0-1.2.1m25.6.1c-4.5.7-7.1 1.7-8.4 2.4 1.6.6 3.1 1.1 4.5 1.2 5.3.6 7.9-.9 10.2-4-.3 0-.8-.1-1.4-.1-1.1 0-2.6.1-4.9.5"/></defs><clipPath id="aL"><use xlink:href="#aK" overflow="visible"/></clipPath><linearGradient id="aM" gradientUnits="userSpaceOnUse" x1="-285.386" y1="441.771" x2="-284.386" y2="441.771" gradientTransform="scale(-64.4305 64.4305) rotate(34.236 567.051 679.85)"><stop offset="0" stop-color="#7d7b7a"/><stop offset=".638" stop-color="#b9b8b7"/><stop offset="1" stop-color="#8e8c8a"/></linearGradient><path clip-path="url(#aL)" fill="url(#aM)" d="M244.9 243.7l-45.6 31.1-22.8-33.5 45.6-31.1z"/></g><g><defs><path id="aN" d="M70.7 110.4l-3.8-4.5c-.2-.2-.5-.3-.8-.3-.3.1-.6.3-.6.6-.1.3-1.8 7.2.4 14.2 2.6 8.4 14.1 11.6 14.5 11.7h.2c.1 0 .3 0 .4-.1h.1l.3-.3c.7-1.1 1.4-2.1 2.2-2.9 1-1.1 2.2-2.1 3.5-3.1 0 0 0-.1.1-.1l.1-.1s0-.1.1-.2v-.1-.2-.2s0-.1-.1-.1c0-.1 0-.1-.1-.2 0 0-.1 0-.1-.1l-.1-.1c-.1 0-.1-.1-.2-.1h-.1c-.1 0-6.7-1.6-8.2-5.4-.9-2.2-.7-4.8.4-7.1 1.6-3.2 5.1-5.7 10-7.1 9.2-2.7 13.5 6.5 13.7 6.9.1.3.4.5.7.5.3 0 .6-.1.8-.4.2-.3 4.9-7.6 2.3-13.2-1.4-3.1-4.7-5-9.8-5.7-1.1-.1-2.2-.2-3.2-.2-13.3 0-20.7 11.7-22.7 17.9"/></defs><clipPath id="aO"><use xlink:href="#aN" overflow="visible"/></clipPath><linearGradient id="aP" gradientUnits="userSpaceOnUse" x1="-286.483" y1="441.964" x2="-285.483" y2="441.964" gradientTransform="scale(-92.4385 92.4385) rotate(46.753 366.374 551.29)"><stop offset="0" stop-color="#585857"/><stop offset=".317" stop-color="#878786"/><stop offset=".75" stop-color="#c2c2c2"/><stop offset=".957" stop-color="#d9d9d9"/><stop offset="1" stop-color="#d9d9d9"/></linearGradient><path clip-path="url(#aO)" fill="url(#aP)" d="M128.8 111.1l-41.1 43.7-43.9-41.2 41.1-43.7z"/></g><g><defs><path id="aQ" d="M71 10.2h19.7v17.4H71z"/></defs><clipPath id="aR"><use xlink:href="#aQ" overflow="visible"/></clipPath><path clip-path="url(#aR)" fill="#EDEDED" d="M71 10.2s6.7 0 12.5 5.4c2.1 1.9 7.2 12 7.2 12L82 24.7s-3.3-6.7-4.9-8.3C75 14.2 71 10.2 71 10.2"/><defs><path id="aS" d="M90.1 30h96.5v138.1H90.1z"/></defs><clipPath id="aT"><use xlink:href="#aS" overflow="visible"/></clipPath><path clip-path="url(#aT)" fill="#EDEDED" d="M93 33.2s16.7 13.7 21.2 19.3c5.6 6.8 16.3 21.6 18 30.3.4 2.1-1.2 8.6-1.2 8.6l10.3 15.7s-12 4.5-16.1 5.1c-25.7 4-35.2 10.9-35.2 10.9s9-6.9 37.9 2.7c10.9 3.6 20.7-2.8 20.7-2.8s-3.4 19.4 9.1 32.1c9.8 9.9 28.8 13.1 28.8 13.1s-22.8-11.8-31.1-34.4c-4.1-11 .7-23.1.7-23.1S135.8 78.8 130 67.9c-4.9-9.1-16.7-26.9-16.7-26.9L93.9 30l-.9 3.2z"/><defs><path id="aU" d="M87 14h13.6v18.6H87z"/></defs><clipPath id="aV"><use xlink:href="#aU" overflow="visible"/></clipPath><path clip-path="url(#aV)" fill="#EDEDED" d="M100.6 32.6s-1.5-6.1-2.3-8C94.2 15.2 87 14 87 14l8.1 15.2 5.5 3.4z"/><defs><path id="aW" d="M77.9 77h53.2v39.1H77.9z"/></defs><clipPath id="aX"><use xlink:href="#aW" overflow="visible"/></clipPath><path clip-path="url(#aX)" fill="#EDEDED" d="M77.9 88.7s19.6-7.7 31.2-5.6c21.6 4-1.6 33-1.6 33l19-4.7s5.3-14.2 4.5-17.8c-.9-3.9-8.9-12.9-12.2-15.2-1.9-1.3-9.7-1.5-12-1.5C93 77 77.9 88.7 77.9 88.7"/><defs><path id="aY" d="M58.7 90.6H100v51.2H58.7z"/></defs><clipPath id="aZ"><use xlink:href="#aY" overflow="visible"/></clipPath><path clip-path="url(#aZ)" fill="#EDEDED" d="M93.9 120.6s-7.9-1.2-10.3-6.8c-1.2-3-1.8-7.7 2.7-12.6 5.1-5.5 13.8-7.9 13.8-7.9s-7.5-5.1-19.1-1.7c-12.7 3.7-10.6 12.2-10.6 12.2l-4.8-5.7s-9.4 4.8-6.2 22.4c2.8 15.2 17.3 21.2 17.3 21.2s0-5.4 4.7-12.1c2-2.7 12.5-9 12.5-9"/><defs><path id="ba" d="M163.8 169.3h36.7v43h-36.7z"/></defs><clipPath id="bb"><use xlink:href="#ba" overflow="visible"/></clipPath><path clip-path="url(#bb)" fill="#EDEDED" d="M189.9 169.3s-.5 2.2-13.2 4.5c-4.8.8-12.2.9-12.2.9s-1.8 5.3.4 11.8c1 3.1 16.6 25.5 16.6 25.5s3.7.3 4.9.3c1.6 0 7.3-1.1 7.3-1.1s-14.2-14.2-12-19.5c.8-2 5.6-3 7.1-4.5 1.7-1.7 3.9-7.2 3.9-7.2s-6.5 3.2-9.1 3.3c-4.6.2-7.2.1-7.2.1s7.8-5.2 10.7-6.3c2-.7 8.6-.2 8.6-.2l4.8-5.4s-3.7-.7-5.1-.9c-1.1-.1-5.5-1.3-5.5-1.3"/><g><defs><path id="bc" d="M25.7 131h55.8v43.5H25.7z"/></defs><clipPath id="bd"><use xlink:href="#bc" overflow="visible"/></clipPath><path clip-path="url(#bd)" fill="#EDEDED" d="M76.7 141.8c-.3 1.7-.7 9.8-.4 12.4.3 2.9 5.2 20.2 5.2 20.2s-21.4-3.8-33.8-11.8c-17.3-11.2-22.1-20.8-22.1-20.8s1.3-3.8 4.9-8c2.5-2.8 7.7-2.8 7.7-2.8s8.8 7.1 12.2 8.1c4.6 1.3 18.1-2.7 18.1-2.7l8.2 5.4z"/></g><g><defs><path id="be" d="M68.9 132.2h33v80.1h-33z"/></defs><clipPath id="bf"><use xlink:href="#be" overflow="visible"/></clipPath><path clip-path="url(#bf)" fill="#EDEDED" d="M80.3 132.2s.4 23.1 3.1 30.1c6 15.2 18.8 22.4 18.4 31-.3 5.3-3.1 7.8-12.4 13.2-2.3 1.4-11.8 5.8-11.8 5.8s-4.5-2.6-5.9-3.8c-2.1-1.9-3-4.8-3-4.8s19.2-10.3 19.4-16.1c.1-1.9-5.7-11.6-7.5-16.2-9.5-23.9-.3-39.2-.3-39.2"/></g><g><defs><path id="bg" d="M49.4 7.2H74V63H49.4z"/></defs><clipPath id="bh"><use xlink:href="#bg" overflow="visible"/></clipPath><path clip-path="url(#bh)" fill="#EDEDED" d="M56.1 7.2s-4.2 5.7 1.9 13.3c2 2.5 8.8 4.6 10.8 7.1 2.1 2.5 6 8.9 5 12-.8 2.5-9.1 5.2-9.1 5.2s-5.2 4.4-7 5.8c-1.2 1-4.2 4-3.4 5.8 2.8 6.5 9.7 5.1 9.7 5.1s-5.7 1.9-7.6 1.4c-5.6-1.4-7.4-7.3-6.9-10.2 1.6-9.5 7.6-7.7 12.8-9.1 2.2-.6 5.9-2.8 6.1-5 .3-3.4-7-12.6-10.6-12.8-3.7-.2-7.8-9.5-6.3-12.9 1.8-4.3 4.6-5.7 4.6-5.7"/></g><g><defs><path id="bi" d="M46.4 200.9h75.7v57.3H46.4z"/></defs><clipPath id="bj"><use xlink:href="#bi" overflow="visible"/></clipPath><g clip-path="url(#bj)"><defs><path id="bk" d="M71 200.9s-5 2-8.6 5c-4.6 3.8-21.6 12.5-14.1 22.5 9.2 12.3 39.8 26.5 55 29.1 18.8 3.1 18.8-4.7 18.8-4.7s-13-.1-26.3-4.8c-9.7-3.4-35.4-13.1-39.1-22.8-1.3-3.4 21.1-13 21.1-13s-7.7-5.6-8.2-8c-.4-1.6 1.4-3.3 1.4-3.3"/></defs><clipPath id="bm"><use xlink:href="#bk" overflow="visible"/></clipPath><defs><filter id="bl" filterUnits="userSpaceOnUse" x="40.7" y="200.9" width="81.3" height="59.7"><feColorMatrix values="1 0 0 0 0 0 1 0 0 0 0 0 1 0 0 0 0 0 1 0"/></filter></defs><mask maskUnits="userSpaceOnUse" x="40.7" y="200.9" width="81.3" height="59.7" id="bo"><g filter="url(#bl)"><linearGradient id="bn" gradientUnits="userSpaceOnUse" x1="-290.669" y1="443.453" x2="-289.669" y2="443.453" gradientTransform="matrix(75.7129 0 0 -75.7129 22053.736 33805.848)"><stop offset="0" stop-color="#fff"/><stop offset=".313" stop-color="#fff"/><stop offset=".478" stop-color="#f8f8f8"/><stop offset=".72" stop-color="#e4e4e4"/><stop offset=".988" stop-color="#c7c7c7"/><stop offset="1" stop-color="#c7c7c7"/></linearGradient><path clip-path="url(#bm)" fill="url(#bn)" d="M40.7 200.9H122v59.7H40.7z"/></g></mask><linearGradient id="bp" gradientUnits="userSpaceOnUse" x1="-290.669" y1="443.453" x2="-289.669" y2="443.453" gradientTransform="matrix(75.7129 0 0 -75.7129 22053.736 33805.848)"><stop offset="0" stop-color="#0075be"/><stop offset=".313" stop-color="#0075be"/><stop offset=".517" stop-color="#007cc4"/><stop offset=".816" stop-color="#0090d5"/><stop offset=".988" stop-color="#009ee2"/><stop offset="1" stop-color="#009ee2"/></linearGradient><path clip-path="url(#bm)" mask="url(#bo)" fill="url(#bp)" d="M40.7 200.9H122v59.7H40.7z"/></g></g><g><defs><path id="bq" d="M5.3 122.8h40.2v78H5.3z"/></defs><clipPath id="br"><use xlink:href="#bq" overflow="visible"/></clipPath><g clip-path="url(#br)"><defs><path id="bs" d="M45.5 136.3s.9-2.1-3.4-5.3c-3.8-2.9-16.6-10.4-22.5-7.6-3.7 1.8-6.3 6.4-7.9 11.9-3.2 10.9-9.5 38-4.6 51.2 8.1 22.1 27.4 11.9 27.4 11.9s-14.1.1-17-12.2c-1.1-4.7-1.4-14.7-1.4-14.7l-5.5.9 1.1-10 3.6-1.6s1.4-25 4.1-27.4c1.5-1.3 3.7 3.5 6 1.4 6.3-5.7 10.2-4.5 12.8-3.8 2.5.6 7.3 5.3 7.3 5.3"/></defs><clipPath id="bu"><use xlink:href="#bs" overflow="visible"/></clipPath><defs><filter id="bt" filterUnits="userSpaceOnUse" x="2.3" y="120.6" width="44.1" height="88.1"><feColorMatrix values="1 0 0 0 0 0 1 0 0 0 0 0 1 0 0 0 0 0 1 0"/></filter></defs><mask maskUnits="userSpaceOnUse" x="2.3" y="120.6" width="44.1" height="88.1" id="bw"><g filter="url(#bt)"><linearGradient id="bv" gradientUnits="userSpaceOnUse" x1="-293.023" y1="443.37" x2="-292.023" y2="443.37" gradientTransform="matrix(40.2271 0 0 -40.2271 11792.809 18000.092)"><stop offset="0" stop-color="#fff"/><stop offset=".313" stop-color="#fff"/><stop offset=".478" stop-color="#f8f8f8"/><stop offset=".72" stop-color="#e4e4e4"/><stop offset=".988" stop-color="#c7c7c7"/><stop offset="1" stop-color="#c7c7c7"/></linearGradient><path clip-path="url(#bu)" fill="url(#bv)" d="M2.3 120.6h44.1v88.1H2.3z"/></g></mask><linearGradient id="bx" gradientUnits="userSpaceOnUse" x1="-293.023" y1="443.37" x2="-292.023" y2="443.37" gradientTransform="matrix(40.2271 0 0 -40.2271 11792.809 18000.092)"><stop offset="0" stop-color="#0075be"/><stop offset=".313" stop-color="#0075be"/><stop offset=".517" stop-color="#007cc4"/><stop offset=".816" stop-color="#0090d5"/><stop offset=".988" stop-color="#009ee2"/><stop offset="1" stop-color="#009ee2"/></linearGradient><path clip-path="url(#bu)" mask="url(#bw)" fill="url(#bx)" d="M2.3 120.6h44.1v88.1H2.3z"/></g></g><g><defs><path id="by" d="M41.5 230.3H55v9.4H41.5z"/></defs><clipPath id="bz"><use xlink:href="#by" overflow="visible"/></clipPath><path clip-path="url(#bz)" fill="#EDEDED" d="M55 235.2l-3.6 4.5h-9.9l8.3-9.4z"/></g><g><defs><path id="bA" d="M93.5 256.2H106v6.9H93.5z"/></defs><clipPath id="bB"><use xlink:href="#bA" overflow="visible"/></clipPath><path clip-path="url(#bB)" fill="#EDEDED" d="M106 258.1l-8.3-1.9-4.2 6.9 9-.5z"/></g><g><defs><path id="bC" d="M2.2 104.8h12.2v109.6H2.2z"/></defs><clipPath id="bD"><use xlink:href="#bC" overflow="visible"/></clipPath><path clip-path="url(#bD)" fill="#EDEDED" d="M13.6 129.1s.9-17-1.2-21.2c-.8-1.5-8.6-3.2-8.6-3.2l-1.5 84.1 12.2 25.5v-17s-6.1-2.5-7.9-14.6c-1.5-10.3.4-29.8 3-39.9.8-2.9 4-13.7 4-13.7"/></g><g><defs><path id="bE" d="M172.7 211.2h61.2v33h-61.2z"/></defs><clipPath id="bF"><use xlink:href="#bE" overflow="visible"/></clipPath><g clip-path="url(#bF)"><defs><path id="bG" d="M193.6 211.2l-12.2.8s.2 5.8-1.1 9.7c-.5 1.5-1.2 8-1.2 8s-6.5 3.6-6.5 6.5c0 5.5 5 8 5 8l10.5-4.2 11.5-8.5s-.4 2.1 2.2 4.9c.9 1 5.5 4.1 5.5 4.1l3.7-2 5.4 3 3.4-1.4 4.6 1.9 9.4-2.6s-16.7-5.8-27.6-14.1c-3.3-2.9-12.6-14.1-12.6-14.1"/></defs><clipPath id="bI"><use xlink:href="#bG" overflow="visible"/></clipPath><defs><filter id="bH" filterUnits="userSpaceOnUse" x="172.7" y="211.2" width="61.2" height="33"><feColorMatrix values="1 0 0 0 0 0 1 0 0 0 0 0 1 0 0 0 0 0 1 0"/></filter></defs><mask maskUnits="userSpaceOnUse" x="172.7" y="211.2" width="61.2" height="33" id="bK"><g filter="url(#bH)"><linearGradient id="bJ" gradientUnits="userSpaceOnUse" x1="-291.305" y1="443.461" x2="-290.305" y2="443.461" gradientTransform="matrix(61.1494 0 0 -61.1494 17985.834 27345.053)"><stop offset="0"/><stop offset="1" stop-color="#fff"/></linearGradient><path clip-path="url(#bI)" fill="url(#bJ)" d="M172.7 211.2h61.2v33h-61.2z"/></g></mask><linearGradient id="bL" gradientUnits="userSpaceOnUse" x1="-291.305" y1="443.461" x2="-290.305" y2="443.461" gradientTransform="matrix(61.1494 0 0 -61.1494 17985.834 27345.053)"><stop offset="0" stop-color="#b20a63"/><stop offset="1" stop-color="#c7006d"/></linearGradient><path clip-path="url(#bI)" mask="url(#bK)" fill="url(#bL)" d="M172.7 211.2h61.2v33h-61.2z"/></g></g><g><defs><path id="bM" d="M167.2 30.8h23.1v29.9h-23.1z"/></defs><clipPath id="bN"><use xlink:href="#bM" overflow="visible"/></clipPath><g clip-path="url(#bN)"><defs><path id="bO" d="M190.3 42s-4.7-6.3-6.7-8.1c-4.8-4.2-16.3-2.9-16.3-2.9l4.3 29.7 7.3-5.2s1.5-1.7 4.8-6.1c2.3-3.4 6.6-7.4 6.6-7.4"/></defs><clipPath id="bQ"><use xlink:href="#bO" overflow="visible"/></clipPath><defs><filter id="bP" filterUnits="userSpaceOnUse" x="163.9" y="27.2" width="29.7" height="36"><feColorMatrix values="1 0 0 0 0 0 1 0 0 0 0 0 1 0 0 0 0 0 1 0"/></filter></defs><mask maskUnits="userSpaceOnUse" x="163.9" y="27.2" width="29.7" height="36" id="bS"><g filter="url(#bP)"><linearGradient id="bR" gradientUnits="userSpaceOnUse" x1="-288.278" y1="445.783" x2="-287.278" y2="445.783" gradientTransform="scale(87.4665 -87.4665) rotate(83.781 106.084 384.012)"><stop offset="0" stop-color="#fff"/><stop offset=".313" stop-color="#fff"/><stop offset=".478" stop-color="#f8f8f8"/><stop offset=".72" stop-color="#e4e4e4"/><stop offset=".988" stop-color="#c7c7c7"/><stop offset="1" stop-color="#c7c7c7"/></linearGradient><path clip-path="url(#bQ)" fill="url(#bR)" d="M163.9 60.3l3.6-33.1 26.1 2.9-3.6 33.1z"/></g></mask><linearGradient id="bT" gradientUnits="userSpaceOnUse" x1="-288.278" y1="445.783" x2="-287.278" y2="445.783" gradientTransform="scale(87.4665 -87.4665) rotate(83.781 106.084 384.012)"><stop offset="0" stop-color="#0075be"/><stop offset=".313" stop-color="#0075be"/><stop offset=".517" stop-color="#007cc4"/><stop offset=".816" stop-color="#0090d5"/><stop offset=".988" stop-color="#009ee2"/><stop offset="1" stop-color="#009ee2"/></linearGradient><path clip-path="url(#bQ)" mask="url(#bS)" fill="url(#bT)" d="M163.9 60.3l3.6-33.1 26.1 2.9-3.6 33.1z"/></g></g><g><defs><path id="bU" d="M106.9 8h63.8v107.1h-63.8z"/></defs><clipPath id="bV"><use xlink:href="#bU" overflow="visible"/></clipPath><g clip-path="url(#bV)"><defs><path id="bW" d="M170.7 61.5s-19.7 2.9-32.8-5.7c-8.8-5.7-20.2-18.7-21.2-27.3C115 14 126.1 8 126.1 8s-14.7 3.3-18.1 9.7c-5.3 10.1 8 25 20 46.2 8.8 15.6 17.8 31 25.3 43.4 4.3 7.1 16.2 7.7 16.2 7.7s-6-14.6-7.3-25c-1.1-8.8.4-21 .4-21l8.1-7.5z"/></defs><clipPath id="bY"><use xlink:href="#bW" overflow="visible"/></clipPath><defs><filter id="bX" filterUnits="userSpaceOnUse" x="61.9" y="-18" width="149.7" height="159"><feColorMatrix values="1 0 0 0 0 0 1 0 0 0 0 0 1 0 0 0 0 0 1 0"/></filter></defs><mask maskUnits="userSpaceOnUse" x="61.9" y="-18" width="149.7" height="159" id="ca"><g filter="url(#bX)"><linearGradient id="bZ" gradientUnits="userSpaceOnUse" x1="-288.593" y1="442.116" x2="-287.593" y2="442.116" gradientTransform="scale(139.7758 -139.7758) rotate(-65.121 -490.027 -5.416)"><stop offset="0" stop-color="#fff"/><stop offset=".313" stop-color="#fff"/><stop offset=".478" stop-color="#f8f8f8"/><stop offset=".72" stop-color="#e4e4e4"/><stop offset=".988" stop-color="#c7c7c7"/><stop offset="1" stop-color="#c7c7c7"/></linearGradient><path clip-path="url(#bY)" fill="url(#bZ)" d="M158.7-18l52.9 114.1-96.8 44.9L61.9 26.9z"/></g></mask><linearGradient id="cb" gradientUnits="userSpaceOnUse" x1="-288.593" y1="442.116" x2="-287.593" y2="442.116" gradientTransform="scale(139.7758 -139.7758) rotate(-65.121 -490.027 -5.416)"><stop offset="0" stop-color="#0075be"/><stop offset=".313" stop-color="#0075be"/><stop offset=".517" stop-color="#007cc4"/><stop offset=".816" stop-color="#0090d5"/><stop offset=".988" stop-color="#009ee2"/><stop offset="1" stop-color="#009ee2"/></linearGradient><path clip-path="url(#bY)" mask="url(#ca)" fill="url(#cb)" d="M158.7-18l52.9 114.1-96.8 44.9L61.9 26.9z"/></g></g><g><defs><path id="cc" d="M153.6 110h61.3v50.7h-61.3z"/></defs><clipPath id="cd"><use xlink:href="#cc" overflow="visible"/></clipPath><g clip-path="url(#cd)"><defs><path id="ce" d="M214.9 159.1s-4-2.3-6.9-5.8c-1.7-2-4.2-5.1-4.2-5.1s-11.2-3.1-23.2-15.1c-5.4-5.4-11.3-18.6-11.3-18.6s-4.6.2-6.2-.4c-4-1.6-7.4-4.1-7.4-4.1s-5.5 11.2 1.5 28.8c4.6 11.6 17.5 22 17.5 22s-6.8-14.3-7.4-24.6c-.8-14.2 11.7 11.9 29.5 18.9 8.9 3.5 18.1 4 18.1 4"/></defs><clipPath id="cg"><use xlink:href="#ce" overflow="visible"/></clipPath><defs><filter id="cf" filterUnits="userSpaceOnUse" x="126.8" y="80.2" width="111.4" height="110.3"><feColorMatrix values="1 0 0 0 0 0 1 0 0 0 0 0 1 0 0 0 0 0 1 0"/></filter></defs><mask maskUnits="userSpaceOnUse" x="126.8" y="80.2" width="111.4" height="110.3" id="ci"><g filter="url(#cf)"><linearGradient id="ch" gradientUnits="userSpaceOnUse" x1="-286.727" y1="444.306" x2="-285.727" y2="444.306" gradientTransform="scale(-131.322 131.322) rotate(-33.488 -880.504 -250.692)"><stop offset="0" stop-color="#fff"/><stop offset=".313" stop-color="#fff"/><stop offset=".478" stop-color="#f8f8f8"/><stop offset=".72" stop-color="#e4e4e4"/><stop offset=".988" stop-color="#c7c7c7"/><stop offset="1" stop-color="#c7c7c7"/></linearGradient><path clip-path="url(#cg)" fill="url(#ch)" d="M195.2 190.5l-68.4-45.2 43.1-65.1 68.3 45.2z"/></g></mask><linearGradient id="cj" gradientUnits="userSpaceOnUse" x1="-286.727" y1="444.306" x2="-285.727" y2="444.306" gradientTransform="scale(-131.322 131.322) rotate(-33.488 -880.504 -250.692)"><stop offset="0" stop-color="#0075be"/><stop offset=".313" stop-color="#0075be"/><stop offset=".517" stop-color="#007cc4"/><stop offset=".816" stop-color="#0090d5"/><stop offset=".988" stop-color="#009ee2"/><stop offset="1" stop-color="#009ee2"/></linearGradient><path clip-path="url(#cg)" mask="url(#ci)" fill="url(#cj)" d="M195.2 190.5l-68.4-45.2 43.1-65.1 68.3 45.2z"/></g></g></g><g><defs><path id="ck" d="M94.7 262.8l3.6-5.7c2 .5 4 .9 6 1.3l-4.3 6.8-5.3-2.4zm123.2-21.6l.6-.3c.9-.3 2-.3 2.4-.3 1.1.6 2.2 1.2 3.2 1.7-2.4-.1-4.7-.5-6.2-1.1m-36.2 3.7c-.7-.2-1.4-.4-2.1-.7 1.5-.5 3.7-1.4 6.3-2.6 4.2-1.9 6-1.4 6.7-1-2.7 3-5.5 4.6-8.6 4.6-.7 0-1.5-.1-2.3-.3m27.7-5.2c.2-.1.3-.1.5-.2.8-.2 1.5-.2 1.7-.1.3.2.6.5.9.7-.9 0-1.9-.1-3.1-.4m22.2 3.5c-1.4-.2-2.9-.6-4.5-1.2 1.3-.7 3.9-1.7 8.4-2.4 3.6-.5 5.4-.5 6.2-.4-2 2.6-4.2 4.1-8.1 4.1-.6 0-1.3 0-2-.1m-181.6-1l5.1-5.8c5.7 4.5 14.4 9.5 26.4 14.9 4.3 2 9.7 3.9 15.1 5.3l-3.4 5.4L50 242.2zM17 238c.9-1 2.4-2.9 4.1-4.6 1.4-1.5 5.5-.1 6.8.5l93.6 43.1c1.1.4 4.3 2 5.1 4.2.3.8.3 1.7-.1 2.6-1.5 3.2-2.8 5.2-3.5 6L17 238zm198.5 2c-.1 0-.1 0 0 0-3.4-2.1-7.3-5.9-9.6-8.2 2.3.9 5.3 2.9 8.5 4.9 1.3.8 2.7 1.7 4 2.5-.2 0-.3.1-.5.1-.7.3-1.4.7-1.8 1l-.6-.3m-172.4-.9l6.8-7.7c.1.2.2.3.3.3 1 1.2 2.2 2.4 3.7 3.7l-5.4 6.1-5.4-2.4zm157.6-6.8c.7-.5 1.4-.8 2.2-1 .9.9 3.7 3.8 6.8 6.5-.1 0-.2.1-.3.1-.9.3-1.7.7-2.1 1-3.6-1.9-5.9-5.3-6.6-6.6m-134.1-1.5c.7-1.2 2.1-3.5 3.8-5.4 2.7-3 5.7-3.9 6.2-4.1.5 0 5-.3 10.9-.1-3.1 1-6.4 2.7-8.3 5.9-1.7 2.8-3.5 6-4.2 7.4l-8.4-3.7zm129.8-19.6c7.8-2.5 11.1-6.6 12.4-8.8.9 1.4 1.6 2.5 2.1 3.3.8 1.3 1.7 2.8 2.6 4.4 2.1 3.8 4.5 8 7.6 10.5 1.9 1.4 5.6 2.9 9.6 4.5 4.7 1.8 10 3.9 11.8 5.9 1.2 1.4 1.2 4.8.4 6.7-1.4-.4-3.8-.4-7.5.2-6.2.9-9 2.5-10.1 3.3-1.2-.6-2.5-1.3-3.7-2-2.1-1.2-4.2-2.6-6.3-3.9-5-3.2-9.3-5.9-12-5.7h-.1c-4.3.4-6.7 4.7-8.4 7.9-.4.7-.7 1.3-1.1 1.9-.2-.1-.4-.3-.7-.4-1.8-.7-4.3-.3-7.7 1.2-3.7 1.7-6.7 2.7-7.7 3-1.7-1.2-3.3-3-4-5.9-.5-1.9 3.5-5.7 6.5-7.8.2-.1.3-.4.4-.6 0-.1.7-5.8 1.1-8 .1-.6.3-1.3.5-2.1.6-2.5.9-4.2.6-5.1-.1-.3-.2-.6-.3-.8.8.1 1.9.2 3.3.2 2.5-.1 6.2-.5 10.7-1.9M106 257h-.2c-2.4-.4-5-.9-7.6-1.6h-.1c-5.4-1.4-11-3.3-15.9-5.5-16.1-7.3-26.1-13.6-30.8-19.2 0 0-3.2-3.6-3.9-6-.7-2.2 0-4.3.9-5.5 3.1-4 14-12.5 20-16.6.7-.5 1.2-.7 1.7-.7-.5.4-1 .7-1.5 1l-.5.3-.1.1-.1.1c0 .1-.1.1-.1.2 0 0 0 .1-.1.1-.2.6-.4 4.2 10.7 10.2 8.7 4.8 14.2 5.6 17.1 5.6 1.4 0 2.2-.2 2.4-.3h.1c.3-.2.6-.3.9-.5-.8.5-1.9 1.2-2.6 1.5-10.1-1.3-19.3-.7-20.1-.6h-.1c-.2 0-3.8.9-7.1 4.6-2.5 2.9-4.4 6.4-4.5 6.6v.7c0 .1.1.1.1.1s0 .1.1.1l.1.1.1.1 9.9 4.5c.1.1.2.1.3.1H75.4s.1 0 .1-.1l.1-.1.1-.1s0-.1.1-.1c0 0 0-.1.1-.1 0 0 2.4-4.4 4.6-8 3.3-5.5 12.1-6.2 13.5-6.3 10.1 1.1 21.6 4 25.7 11.5 2.9 5.2 3.4 19-1.2 22.8-1.2 1-3.5 1.5-6.4 1.5-1.7 0-3.8-.2-6.1-.5m75.5-46.1c-1.9-3.9-5.2-8.5-8.5-13.1-3.4-4.8-7-9.7-8.3-13.2-1.1-2.9.2-7.5.7-9l4.2-.3c7.8-.7 14.9-2.3 21.1-4.6 2.6.9 5.2 1.5 7.7 1.7-2.3 2.9-6.6 8-10.2 9.2-7.5 2.4-11.8 1.4-11.8 1.4-.5-.1-.9.2-1 .6-.1.5.2.9.6 1 .1 0 1.2.3 3.1.3 2.2 0 5.4-.3 9.6-1.7 1.9-.6 3.9-2.1 5.8-3.9 2 3.3 8.7 14.5 13.1 21.6-.6 1.3-3.2 6.1-11.8 8.9-4.3 1.4-7.8 1.7-10.2 1.7-2.1-.2-3.5-.5-4.1-.6M12.2 163c1.2-.5 4.2-1.6 6.6-1.9 2.6-.4 5.7-.4 6.8-.4 1.5 1.7 3.6 3.3 6.4 4.8 2.3 1.2 4.1 1.8 5.6 2.1.2.6.7 2 1.3 3.7-2-.5-5.7-1.1-10.8-1.1-6.9 0-13.7.9-16.3 1.3l.4-8.5zm228.4-17.2l2.4-2.7c.9-.2 4.3-1.2 7.4-2.8-1.1 1.4-2.5 2.7-4.1 4-1.7 1.3-3.8 1.5-5.3 1.5h-.4m-19.3 10c-4.6-.3-8-4.6-9.3-11.9-.5-2.4-.8-7.2-1-10.5 2.9 4.8 5.8 9 9.4 11.6.8.9 2.6 3.2 3.2 4.5 1.1 2.5 1 4.5.9 5.1-.8.8-1.7 1.2-2.9 1.2h-.3M60.6 174.1c-6.4-.6-13.1-3.8-18.7-7.8 0 0-.1 0-.1-.1-6.3-4.5-11.4-9.9-13.6-13.4-3.8-6.4-1.5-14.6 2.9-18.5 3.5-3.2 6.6-2.4 7.2-2.2.7.5 1.3 1 2 1.5 4.6 3.5 8.6 6.4 10.9 6.6h.4c3.5 0 15.2-2.2 17.3-2.6 3.2 2.4 5.9 4 7 4.5-.9 5.7-.7 12.3.7 19.1 1 5.1 2.5 9.3 4 12.7-.6.1-3.4.6-8.9.6-2.9.2-6.6.1-11.1-.4m-49.7 18.5c-5.5-7-5.6-24-.4-49.1 1-4.6 1.9-7.9 2.8-10.5 0-.1 3-9.5 9.6-9.5 4.5 0 13.1 4.9 16.4 6.8 3 1.7 4.4 3.2 5 4.3-1-.7-2-1.5-3-2.2-.7-.5-1.4-1-2.1-1.6 0 0-.1 0-.1-.1 0 0-.1 0-.1-.1-.2-.1-4.4-1.7-9 2.5-4.9 4.4-7.5 13.5-3.2 20.6 2 3.3 6.4 8.1 12 12.4-1.4-.2-3.4-.8-6-2.1-8.1-4.1-9.4-10.7-9.4-10.8-.1-.5-.5-.8-1-.7-.5.1-.8.5-.7 1 0 .2.5 2.6 2.6 5.6-1.5 0-3.7.2-5.7.4-3.1.4-7.1 2-7.5 2.2 0 0-.1 0-.1.1-.1 0-.1.1-.2.1l-.1.1-.1.1V162.4l-.6 10v.4c0 .1.1.1.1.2l.1.1.1.1s.1 0 .1.1c.1 0 .1 0 .2.1h.2c.1 0 8.6-1.5 17-1.5 6 0 10.1 1 11.4 1.3 1.1 4.3 2.1 10.1.8 14.7-2 6.9-6 11.1-11.4 12.1-.9.2-1.7.2-2.6.2-5.4 0-11.4-2.9-15.1-7.6m162.7-34.5c-6-5.2-19.9-19.4-18.8-37.6.2-2.7.9-5.8 1.7-9 4.6 3.5 9.2 4.1 11.5 4.1h.7c.7 1.6 1.4 3.2 2.2 4.9 7.2 15.6 21.8 25.2 33.2 29 3.1 4.2 8 10.2 12.3 12.2-.6 1.6-2.5 5.8-6.9 7.5-2.9 1.1-5.9 1.6-8.9 1.6-8.3-.2-17.3-4.3-27-12.7M2.7 224.2l1.7-118.4c1.3.3 3.6 1 5.9 1.7 2 .7 2.4 4.9 2.4 6.4l.1 15.7c-.7 1.4-1.1 2.5-1.1 2.7-1 2.7-1.9 6.1-2.9 10.7-5.4 26-5.2 43 .7 50.5 1.1 1.4 2.4 2.7 3.8 3.8l.2 22.5s.3 4.4-1.6 6.4c-.6.7-1.4 1-2.4 1-3.9.1-6.2-2.3-6.8-3m129-129c3 4 5.8 8 8.1 11.3-4.6 1.8-9.1 3.2-12.5 4.1 1.4-2.8 4.1-9 4.4-15.4m-57.3-2.8c.2-.1 17.2-14.6 33.7-14.6h.3c3.7 0 6.9.4 9.7 1.2 3.2 2.9 7.7 8.3 12 14.1.3 8-4.1 16.6-5 18.3-.6.2-1.1.3-1.5.4-.6.2-1.1.3-1.5.4-1.9.5-4.2 1-6.8 1.5-10.2 2-24.1 4.8-33 14.1-2.9 3.1-5 7.5-6 12.8-4.5-2.4-22.9-13.7-21.1-31.9C56.6 94.4 70.8 86.3 76 83.8l-3 7.7c-.1.4 0 .8.3 1 .1.1.3.2.5.2.2-.1.4-.1.6-.3M246.7 66c-6.5-7.3-14.7-11.8-15.2-12.1l-.9-.6c1.2-1.5 4.4-5.5 11.2-14.5 5.1-6.7 7.9-8.1 9.3-8.2.9 0 1.6.6 2.4 1.6 2.1 2.7 4 11.1 2.4 25.8-.5 4.4-2 12.6-2.8 16.5-1.3-2.3-3.3-5-6.4-8.5m-78.3-32.1c-.5-2.6-.9-5-1.2-7.1 2.5-.3 10-1.1 16-1 5.8 0 9.1 1.1 9.1 6.3 0 3.6-.1 5.9-.1 6.8-.4.3-.7.7-1.1 1-4.5 4.1-9.3 9.9-13.3 15.3h-.1c-2 1.3-3.9 2.6-5.6 4-.4-4.1-2-15.9-3.7-25.3m.9 36.9c.1-.2 12.2-19.9 23.1-29.7.5-.4.9-.8 1.4-1.2 16.4-14.6 29.7-21.1 35.7-17.3 2.6 1.6 3.1 3.2-.6 16.5l-.8 2.9c-1.4 4.8-2.1 7.2-1.9 8.6.2 2.1 1.9 3.2 3.6 4.3l.9.6c.1 0 8.4 4.6 14.8 11.8 5.6 6.3 7.3 10 9.1 13.9.2.5.5 1 .7 1.5.8 1.5 1.3 3.9 1.8 5.8 1.7 7.7 4 21.2 4.2 22.7-.1.6-.8 3.6-2.5 6.5-1.2 2-2.8 4.1-3.6 5.2-1.3-1.4-3.1-2.4-5-2.7-1.5-.4-3.4-.6-5.5-.6-4.9 0-11.8 1.1-14.7 4.4-.5.6-2.2 2.7-2.5 5.7-.2 2 .2 5 3.4 7.8 2.3 2.1 5.5 3.8 10.3 5.3l-2.7 3c-.9.3-4.8 1.4-9.5.7h-.1-.1c-1.5-.2-3-.6-4.5-1.2-5-2.1-8.5-7.3-12.2-13.4-1.9-3.2-3.6-7.1-3.6-7.2-.2-.4-.5-.6-.9-.5 0 0-.5.1-1-.1-.2-.1-.3-.3-.3-.3-.2-.4-.7-.6-1.1-.5-.4.2-.7.7-.5 1.1 0 .1.4 1 1.4 1.3.4.1.7.1 1 .1.4.8 1.1 2.4 2 4.2.1 1.4.5 10.4 1.2 14.2 1.5 8.1 5.5 12.9 10.9 13.3h.4c1.7 0 3.1-.8 4.2-1.9 2.2-2.2 3.2-5.8 3.6-7.4.9.1 1.7.1 2.5.1h1.1c-.8 2.5-2.8 8.7-5.6 11-2.1 1.8-6.2 2.2-9.6.9-6.3-2.2-15.1-16-15.2-16.1-.3-.4-.8-.5-1.2-.3-.4.3-.5.8-.3 1.2.1.1.5.8 1.2 1.8-10.6-4.2-23.4-13.2-29.9-27.2-13.3-28.8-9.4-48.1-8.9-50.1.8-.9 5.2-5.8 11.3-10.4-4.2 5.9-7 10.6-7.1 10.7-.2.4-.1.9.3 1.2.1.1.3.1.4.1.4.1.7 0 .9-.3M95.4 29.1c-.6-1.4-3.3-7.8-4.6-9.7l-2.7-3.9c1.5.5 3.8 1.6 5.9 3.7 3.2 3.1 4.7 9.2 5.3 12.2-2-1.2-3.4-2-3.9-2.3M57.1 62c-2.6-.1-4.2-1.8-5.1-3.1-1.6-2.5-2.1-6.1-1.2-8.5 1.1-2.9 5-5 11.7-6 4.5-.7 6.9-5 7-5.2.1-.2.1-.5 0-.8-.1-.2-2.9-5.9-6.1-9.4-1.2-1.3-2.6-2.1-4-3-2.5-1.5-5-3-6.3-6.8-1.5-4.2-.3-8.4 3.2-11.2 2.6-2.2 5.9-2.9 7.8-1.8 3.4 2 9.1 7.2 12 10.6 1.7 2 5.7 8.8 5.7 8.8.2.4.8.5 1.2.3.4-.2.5-.8.3-1.2-.2-.3-4.1-7-5.9-9.1-1.3-1.5-3.2-3.5-5.2-5.3 1.4-.8 5.9-2.9 9.8.2 2.1 1.7 5.8 7.3 7.4 9.8 1.3 2 4.5 9.6 4.5 9.7 0 .1.1.1.1.1v.1l.2.2c.1.1 9 5.1 19.2 11.1 1.1 1.8 2.3 3.8 3.6 5.9 3.4 5.5 7.2 11.7 11.6 19.6 6.2 11.2 9.4 16.7 13.3 23 2.3 3.8 4.8 8.1 8.4 14.2 1.5 2.5 3.1 4.5 4.7 6-.9 3.6-1.8 7-2 10.1-1.2 19 13.1 33.6 19.3 39 5.5 4.7 10.7 8.2 15.8 10.3-5.6 2-11.9 3.3-18.9 3.9-24.5 2.2-41-1.1-44.3-1.8-.9-8.6-2.1-16.6-2.1-16.8-.1-.5-.5-.8-1-.7-.5.1-.8.5-.7 1 0 .2 2.3 15.7 3 26.6.1 1.1.2 2.2.2 3.3.7 10.1 1.2 16.2-4.7 20.3-4 2.7-15.7 8.7-22.4 12.1-.3.1-5.5 1.7-18.2-5.2-8.2-4.5-9.5-7.2-9.8-8.1 12.1-8.4 19.4-13.7 19.8-16.7.1-1.3-.8-2.8-2.3-5.2-2.4-3.9-6.5-10.4-8.8-21.4-2.8-13.6-.8-25.9 5.2-32.2 8.5-8.9 22.1-11.7 32.1-13.6 2.7-.5 5-1 6.9-1.5.4-.1.8-.2 1.4-.4.5-.1 1.2-.3 1.9-.5 3.6-.9 9.2-2.5 14.9-4.9 2.3 3.4 3.8 5.7 3.9 5.7.2.2.4.4.7.4.2 0 .3 0 .5-.1.4-.3.5-.8.2-1.2-.8-1.2-18.2-27.5-27.1-35.3-.5-.5-1-.9-1.5-1.2-7-4.8-20.7-12.9-30.1-15.6-1-.3-2.3-.3-3.9-.3-1.7 0-3.7-.1-5.4-.5l-.4-.1c-2.1-.5-5-1.2-6.5-1.2-2.8 0-5.6 1-8.1 1.9-2.1.8-4.1 1.5-5.7 1.5.3.2.3.2.2.2m94.7 41.3c-3.5-6.1-6.1-10.4-8.4-14.2-3.8-6.3-7.1-11.8-13.2-23-4.3-7.9-8.2-14.1-11.6-19.6-6.9-11.2-11.1-18-10.5-24.6.7-8.2 7.9-10.2 18.8-13.3 1.2-.3 2.5-.7 3.8-1.1l5.1-1.5c10-3.1 17.9-5.5 23.1-.9 3.8 3.5 4.6 8.5 6 17.6.5 3.3 1 7 1.8 11.4 1.9 10.5 3.6 23.7 3.9 26.3-5 4.2-8.4 8.1-8.4 8.2l-.1.1c0 .1-.1.1-.1.2-.2.8-4.6 17.8 6.1 44.8h-.1c-3 .1-10.7-.9-16.2-10.4M135.4 4.4c-1.6.5-3.3 1-5.1 1.5-1.3.4-2.6.7-3.8 1.1-11.2 3.1-19.2 5.4-20.1 14.7-.5 5.1 1.6 10.1 5.4 16.7-4-2.3-7.7-4.5-10.5-6.1-.3-2-1.7-10.4-6-14.5-3.7-3.6-7.6-4.4-8.6-4.6-1.3-1.8-2.6-3.3-3.6-4.1-5.3-4.3-11.3-.7-12.2-.1-2.1-1.8-4.2-3.5-5.9-4.4-2.5-1.5-6.5-.6-9.7 2-4 3.3-5.5 8.2-3.8 13 1.5 4.4 4.5 6.2 7.1 7.7 1.4.8 2.7 1.6 3.6 2.7 2.5 2.8 4.9 7.2 5.6 8.6-.6 1-2.5 3.5-5.5 4-7.3 1.2-11.7 3.5-13 7.1-1.1 3-.5 7.1 1.4 10 1.6 2.4 3.8 3.8 6.4 3.9 2 .1 4.2-.7 6.6-1.6 2.5-.9 5.1-1.8 7.5-1.8 1.3 0 4.3.7 6.1 1.1l.4.1c1.9.4 3.9.5 5.7.5 1.4 0 2.7 0 3.5.3 8.5 2.5 20.8 9.5 28 14.3-2-.3-4.1-.5-6.4-.5-13.7 0-27.3 9-32.8 13.2l2.6-6.7c.1-.3 0-.7-.2-.9-.2-.2-.6-.3-.9-.2-.9.3-21.9 8.7-23.7 27-1.3 12.7 6.7 22.2 13.6 27.9-4.9.9-13.8 2.4-15.8 2.2-1-.1-2.8-1.1-4.9-2.5 0-1.3-.7-4-6.4-7.3s-12.8-7-17.2-7c-3.8 0-6.6 2.5-8.4 5.1l-.1-12.9c0-.7-.1-6.8-3.6-8-3.5-1.2-7.1-2-7.1-2.1h-.1-.1H3.1c-.1 0-.1 0-.1.1l-.1.1-.1.1-.1.1c0 .1-.1.1-.1.2V104.7L1 224.5V224.8c0 .1 0 .1.1.2v.1c.1.2 2.9 4 8.3 4h.1c1.5 0 2.7-.5 3.6-1.5 2.4-2.6 2.1-7.5 2-7.7l-.2-21.3c3.4 2.1 7.2 3.3 10.9 3.3 1 0 2-.1 3-.3 4.3-.8 9.9-3.8 12.7-13.3 2.1-7.3-1-16.9-2.3-20.4h1.6c5.8 4.1 12.7 7.4 19.3 8 4.6.4 8.4.6 11.4.6 6.4 0 9.2-.7 9.4-.7.1 0 .1 0 .1-.1 1.6 3.3 3.1 5.8 4.3 7.7 1.2 1.9 2.1 3.4 2 4.1-.2 2.1-8.1 7.8-15.6 13-.8-.4-2.4-.8-4.6.7-6.3 4.2-17.2 12.7-20.4 17-1.1 1.5-2.1 4.2-1.2 7 .5 1.6 1.9 3.6 2.9 4.9l-7.3 8.3-12.9-5.9c-.6-.3-6.2-2.8-8.7-.2-2.6 2.7-4.9 5.5-4.9 5.6v.1l-.1.1V239s0 .1.1.1l.1.1v.1h.1l.1.1L122.5 292c.1 0 .2.1.3.1.1 0 .2 0 .3-.1h.1c.1 0 .2-.1.3-.2.1-.1 1.9-2.2 4.1-7 .6-1.3.7-2.6.1-3.9-1.3-3.3-5.9-5.1-6.1-5.1l-20.6-9.5 4.6-7.2c2.1.3 4.2.5 6 .5 3.3 0 6-.5 7.5-1.8 5.2-4.4 4.8-19.2 1.6-25-3.8-6.9-13.1-10.2-22.2-11.7.7-.4 1.3-.8 1.7-1.2.7-.6.8-1.4.8-2.1 6.8-3.5 15.7-8.1 19.1-10.5 6.7-4.6 6.2-11.4 5.5-21.8-.1-1-.2-2.1-.2-3.2-.2-2.6-.4-5.4-.7-8.2 3.3.7 13.1 2.4 27.6 2.4 3.3 0 6.9-.1 10.6-.3-.6 2.1-1.6 6.5-.5 9.5 1.4 3.7 4.9 8.5 8.5 13.6 4 5.5 8.1 11.3 9.3 15.3.2.6-.3 2.8-.7 4.3-.2.8-.4 1.5-.5 2.2-.4 2-.9 6.4-1 7.8-1.9 1.4-7.7 6-6.8 9.4.9 3.5 2.9 5.7 5 7h.1c1.6 1 3.1 1.5 4.4 1.8.9.2 1.8.3 2.7.3 3.7 0 7.2-1.9 10.3-5.7.6-.7 1.2-1.8 1.8-2.9.9-1.6 1.9-3.4 3.2-4.8 1 1.7 3.5 5.3 7.6 7.2 2 .9 4.1 1.2 5.6 1.2 1 0 1.8-.1 2.3-.2.7.4 1.4.8 2 1.1 3.6 1.5 14.1 2.2 14.6 2.3 6.6.7 9.6-1.6 12.4-5.6 1.6-2.2 1.8-7.3-.2-9.5-2-2.3-7.3-4.4-12.4-6.4-3.8-1.5-7.5-2.9-9.2-4.2-2.9-2.2-5-6.1-7.2-9.9-.9-1.6-1.8-3.2-2.6-4.5-.6-1-1.7-2.6-2.9-4.6v-.1c-4.6-7.4-11.9-19.6-13.5-22.3 1.7-1.8 3.3-3.8 4.7-5.5h.2c3.2 0 6.4-.6 9.5-1.7 5.1-1.9 7.2-6.6 7.9-8.5 1.3.4 2.6.6 3.9.6 2.5 0 4.9-.7 6.5-2.1 3.4-2.8 5.7-10.5 6.3-12.4 2.1-.2 3.6-.7 4.1-.8.4.1 1.2.2 2.2.2 1.8 0 4.2-.3 6.3-1.9 3.8-2.9 6.1-6.4 7.3-8.4 2.9-3 3.9-7.1 2.6-10.8-.3-.8-.7-1.6-1.1-2.3.8-1 2.7-3.4 4-5.7 2.1-3.6 2.8-7.1 2.8-7.2v-.1-.1c0-.1-2.5-14.8-4.3-23-.6-3-1.2-4.8-1.9-6.2-.2-.5-.5-1-.7-1.5-.5-1.1-1.1-2.3-1.7-3.5.4-1.9 2.6-13.1 3.2-18.6 1.6-15.2-.4-23.9-2.8-27-.6-.7-1.7-2.2-3.7-2.2-2.7 0-6.1 2.8-10.7 8.8-6.9 9.1-10.1 13.1-11.3 14.5-.9-.7-1.4-1.3-1.5-2.1-.1-1 .7-3.8 1.9-8l.8-2.9c3.7-13.1 3.7-16-.1-18.4-8.7-5.4-25.4 6.8-36.3 16.2 0-1.2.1-3 .1-5.2 0-7-5.2-8-10.8-8-6.2 0-13.8.8-16.3 1-.1-.9-.3-1.7-.4-2.5-1.4-9.5-2.2-14.8-6.5-18.7-2.4-2.2-5.3-3-8.6-3-3.9-.6-9.3 1-15.4 2.9"/></defs><clipPath id="cl"><use xlink:href="#ck" overflow="visible"/></clipPath><linearGradient id="cm" gradientUnits="userSpaceOnUse" x1="-287.555" y1="443.228" x2="-286.555" y2="443.228" gradientTransform="scale(-378.601 378.601) rotate(34.236 575.283 687.135)"><stop offset="0" stop-color="#585857"/><stop offset=".012" stop-color="#585857"/><stop offset=".292" stop-color="#5d5c5c"/><stop offset=".603" stop-color="#6a6a69"/><stop offset=".928" stop-color="#807f7f"/><stop offset="1" stop-color="#868585"/></linearGradient><path clip-path="url(#cl)" fill="url(#cm)" d="M398.4 199.6L84 413.6-134.4 92.7l314.5-214z"/></g><g><defs><path id="cn" d="M217.9 241.2l.6-.3c.9-.3 2-.3 2.3-.3 1.1.6 2.2 1.2 3.2 1.7-2.3-.1-4.6-.5-6.1-1.1m-36.1 3.7c-.7-.2-1.4-.4-2.1-.7 1.5-.5 3.7-1.4 6.3-2.6 4.2-1.9 6-1.4 6.7-1-2.7 3-5.5 4.6-8.6 4.6-.8 0-1.6-.1-2.3-.3m27.6-5.2c.2-.1.3-.1.5-.2.8-.3 1.5-.2 1.7-.2.3.2.6.5.9.7-.8.1-1.9 0-3.1-.3m22.2 3.5c-1.4-.2-2.9-.6-4.5-1.2 1.3-.7 3.9-1.7 8.4-2.4 3.6-.5 5.4-.5 6.2-.4-2 2.6-4.2 4.1-8.1 4.1-.6 0-1.3 0-2-.1m-16.1-3.2c-3.4-2.1-7.3-5.8-9.6-8.2 2.3.9 5.3 2.9 8.5 4.9 1.3.8 2.7 1.7 4 2.5-.2 0-.3.1-.5.1-.7.3-1.4.7-1.8 1l-.6-.3m-14.8-7.7c.7-.5 1.4-.8 2.2-1 .9.9 3.7 3.8 6.8 6.5-.1 0-.2.1-.3.1-1 .3-1.7.7-2.1 1-3.6-1.9-5.9-5.3-6.6-6.6m-4.3-21.1c7.8-2.5 11.1-6.6 12.4-8.8.9 1.4 1.6 2.5 2.1 3.3.8 1.3 1.7 2.8 2.6 4.4 2.1 3.8 4.5 8.1 7.6 10.5 1.9 1.4 5.6 2.9 9.6 4.5 4.7 1.8 10 3.9 11.8 5.9 1.2 1.4 1.2 4.8.4 6.7-1.4-.4-3.8-.4-7.5.2-6.2.9-9 2.5-10.1 3.3-1.2-.6-2.5-1.3-3.7-2-2.1-1.2-4.2-2.6-6.3-3.9-5-3.2-9.3-5.9-12-5.7h-.1c-4.3.4-6.7 4.7-8.4 7.9-.4.7-.7 1.3-1.1 1.9-.2-.1-.4-.3-.7-.4-1.8-.7-4.3-.3-7.7 1.2-3.7 1.7-6.7 2.7-7.7 3-1.7-1.2-3.3-3-4-5.9-.5-1.9 3.5-5.7 6.5-7.8.2-.1.3-.4.4-.6 0-.1.7-5.8 1.1-8 .1-.6.3-1.3.5-2.1.6-2.5.9-4.2.6-5.1-.1-.3-.2-.6-.3-.8.8.1 1.9.2 3.3.2 2.5-.1 6.2-.5 10.7-1.9m12.1-11.4h-.1c-.1 0-.1 0-.2.1l-.1.1-.1.1c-.1.1-.1.1-.1.2v.1c0 .1-2 6-12 9.2-9.3 3-14.7 1.3-14.7 1.2h-.2-.1c-.3 0-.7.2-.8.6V211.7c0 .1 0 .2.1.3v.1c.4.8.6 1.5.8 2.1.2.6-.3 2.8-.7 4.3-.2.8-.4 1.5-.5 2.2-.4 2-.9 6.4-1 7.8-1.9 1.4-7.7 6-6.8 9.4.9 3.5 2.9 5.7 5 7h.1c1.6 1 3.2 1.5 4.4 1.8.9.2 1.8.3 2.7.3 3.7 0 7.2-1.9 10.3-5.7.6-.7 1.2-1.8 1.8-2.9.9-1.6 1.9-3.4 3.2-4.8 1 1.7 3.5 5.3 7.6 7.2 2 .9 4.1 1.2 5.6 1.2 1 0 1.8-.1 2.3-.2.7.4 1.4.8 2 1.1 3.6 1.5 14.1 2.2 14.6 2.3 6.6.7 9.6-1.6 12.4-5.6 1.6-2.2 1.8-7.3-.2-9.5-2-2.3-7.3-4.4-12.4-6.4-3.8-1.5-7.5-2.9-9.2-4.2-2.9-2.2-5-6.1-7.2-9.9-.9-1.6-1.8-3.2-2.6-4.5-.7-1-1.7-2.6-2.9-4.6v-.1c-.1-.1-.1-.2-.2-.2h-.1c-.1 0-.1-.1-.2-.1h-.1c-.2-.3-.3-.3-.4-.3.1 0 .1 0 0 0"/></defs><clipPath id="co"><use xlink:href="#cn" overflow="visible"/></clipPath><linearGradient id="cp" gradientUnits="userSpaceOnUse" x1="-286.234" y1="444.018" x2="-285.234" y2="444.018" gradientTransform="scale(-109.2559 109.2559) rotate(-16.666 -1652.575 -746.003)"><stop offset="0" stop-color="#950c57"/><stop offset="1" stop-color="#b30365"/></linearGradient><path clip-path="url(#co)" fill="url(#cp)" d="M239.4 267.4l-81.3-24.3 19.1-63.8 81.3 24.4z"/></g><g><defs><path id="cq" d="M234.5 123.9c-.1.1-.2.1-.3.2-.7.5-1.4 1.4-1.3 2.6 0 1.4.9 2.8 2.1 3.5 2.3 1.2 13.9.5 16.2-1 1.2-.8 2.1-2.4 2.1-3.7 0-1.2-.7-2-1.3-2.4-.1-.1-.2-.1-.3-.2-1.1-.6-3.4-.9-6-.9-4.3 0-9.4.7-11.2 1.9"/></defs><clipPath id="cr"><use xlink:href="#cq" overflow="visible"/></clipPath><linearGradient id="cs" gradientUnits="userSpaceOnUse" x1="-278.107" y1="443.975" x2="-277.106" y2="443.975" gradientTransform="matrix(-20.4248 1.2541 0 -20.4248 -5426.94 9542.978)"><stop offset="0" stop-color="#7e7c7b"/><stop offset="1" stop-color="#b6b5b6"/></linearGradient><path clip-path="url(#cr)" fill="url(#cs)" d="M253.3 120.8l-20.4 1.2v10.7l20.4-1.3z"/></g><g><path fill="#FFF" d="M242.7 123.3s.7.4.8 1.3c0 .7-.4 1.5-1 1.9-1.1.8-6.6 1.6-7.5 1.1-.6-.3-1-.8-1-1.8 0-.6.2-1 .8-1.4 1.1-1.1 6.5-1.9 7.9-1.1"/></g><g><defs><path id="ct" d="M135.4 4.4c-1.6.5-3.3 1-5.1 1.5-1.3.4-2.6.7-3.8 1.1-11.2 3.1-19.2 5.4-20.1 14.7-.7 7.2 3.6 14.2 10.8 25.7 3.4 5.5 7.2 11.7 11.6 19.6 6.2 11.2 9.4 16.7 13.3 23 2.3 3.8 4.8 8.1 8.4 14.2 1.5 2.5 3.1 4.5 4.7 6-.9 3.6-1.8 7-2 10.1-1.2 19 13.1 33.6 19.3 39 10 8.7 19.3 13 28.2 13 3.2 0 6.4-.6 9.5-1.7 5.1-1.9 7.2-6.6 7.9-8.5 0 0-.3-.1-.7-.2-.5-.1-.9-.4-.9-.4-.6 1.7-2.5 5.8-6.9 7.5-11 4.1-22.8.5-36-11-6-5.2-19.9-19.4-18.8-37.6.2-2.7.9-5.8 1.7-9 4.6 3.5 9.2 4.1 11.5 4.1h.7l-.4-.8c-.3-.7-.3-.9-.3-.9-2.9 0-10.7-.8-16.3-10.4-3.5-6.1-6.1-10.4-8.4-14.2-3.8-6.3-7.1-11.8-13.2-23-4.3-7.9-8.2-14.1-11.6-19.6-6.9-11.2-11.1-18-10.5-24.6.7-8.2 7.9-10.2 18.8-13.3 1.2-.3 2.5-.7 3.8-1.1l5.1-1.5c10-3.1 17.9-5.5 23.1-.9 3.8 3.5 4.6 8.5 6 17.6.5 3.3 1 7 1.8 11.4 1.9 10.5 3.6 23.7 3.9 26.3 0 0 .3-.3.9-.8.4-.3.6-.5.6-.5-.5-4.1-2-15.9-3.8-25.3-.5-2.6-.9-5-1.2-7.1 2.5-.3 10-1.1 16-1 5.8 0 9.1 1.1 9.1 6.3 0 3.6-.1 5.9-.1 6.8 0 0 .3-.3 1-.9.6-.6.8-.7.8-.7 0-1.2.1-3 .1-5.2 0-7-5.2-8-10.8-8-6.2 0-13.8.8-16.3 1-.1-.9-.3-1.7-.4-2.5-1.4-9.5-2.2-14.8-6.5-18.7-2.4-2.2-5.3-3-8.6-3-4.4 0-9.8 1.6-15.9 3.5"/></defs><clipPath id="cu"><use xlink:href="#ct" overflow="visible"/></clipPath><linearGradient id="cv" gradientUnits="userSpaceOnUse" x1="-286.995" y1="444.043" x2="-285.995" y2="444.043" gradientTransform="scale(-179.185 179.185) rotate(-26.279 -1093.79 -389.547)"><stop offset="0" stop-color="#0064a2"/><stop offset=".012" stop-color="#0064a2"/><stop offset=".529" stop-color="#0066a4"/><stop offset=".775" stop-color="#006bac"/><stop offset=".964" stop-color="#0075b9"/><stop offset="1" stop-color="#0077bc"/></linearGradient><path clip-path="url(#cu)" fill="url(#cv)" d="M196.1 217.7L37.3 139.3 127.8-44l158.8 78.4z"/></g><g><defs><path id="cw" d="M66.6 230.8c.7-1.2 2.1-3.5 3.8-5.4 2.7-3 5.7-3.9 6.2-4.1.5 0 5-.3 10.9-.1-3.1 1-6.4 2.7-8.3 5.9-1.7 2.8-3.5 6-4.2 7.4l-8.4-3.7zm15.6 19c-16.1-7.3-26.1-13.6-30.8-19.2 0 0-3.2-3.6-3.9-6-.7-2.2 0-4.3.9-5.5 3.1-4 14-12.5 20-16.6.7-.5 1.2-.7 1.7-.7l-1.9 1.4-.1.1-.1.1c0 .1-.1.1-.1.2 0 0 0 .1-.1.1-.2.6-.4 4.2 10.7 10.2 8.7 4.8 14.2 5.6 17.1 5.6 1.4 0 2.2-.2 2.4-.3h.1c.3-.2.6-.3.9-.5-.8.5-1.9 1.2-2.6 1.5-10.1-1.3-19.3-.7-20.1-.6h-.1c-.2 0-3.8.9-7.1 4.6-2.5 2.9-4.4 6.4-4.5 6.6v.7c0 .1.1.1.1.1s0 .1.1.1l.1.1.1.1 9.9 4.5c.1.1.2.1.3.1H75.5s.1 0 .1-.1l.1-.1.1-.1s0-.1.1-.1c0 0 0-.1.1-.1 0 0 2.4-4.4 4.6-8 3.3-5.5 12.1-6.2 13.5-6.3 10.1 1.1 21.6 4 25.7 11.5 2.9 5.2 3.4 19-1.2 22.8-1.2 1-3.5 1.5-6.4 1.5-7.8 0-20.4-3.3-30-7.7m-14.7-48.7c-6.3 4.2-17.2 12.7-20.4 17-1.1 1.5-2.1 4.2-1.2 7 .9 2.7 4 6.3 4.3 6.6 4.8 5.8 15 12.3 31.4 19.7 8.7 4 21.9 7.8 30.7 7.8 3.3 0 6-.5 7.5-1.8 5.2-4.4 4.8-19.2 1.6-25-3.8-6.9-13.1-10.2-22.2-11.7.7-.4 1.3-.8 1.7-1.2.9-.9.9-2.2.7-2.8v-.1-.1-.1l-.1-.1-.1-.1-.1-.1s-.1 0-.2-.1h-.4-.1-.1c-1 .5-2 1-2.9 1.5-.3.1-5.5 1.7-18.2-5.2-8.2-4.5-9.5-7.2-9.8-8.1l3-2.1h.1s0-.1.1-.1l.1-.1s0-.1.1-.1v-.2-.2-.2c0-.1 0-.1-.1-.2v-.1-.1c0-.1-.8-.8-2.2-.8-1 .1-2 .3-3.2 1.1"/></defs><clipPath id="cx"><use xlink:href="#cw" overflow="visible"/></clipPath><linearGradient id="cy" gradientUnits="userSpaceOnUse" x1="-290.583" y1="443.469" x2="-289.583" y2="443.469" gradientTransform="matrix(78.2217 0 0 -78.2217 22775.412 34918.531)"><stop offset="0" stop-color="#0064a2"/><stop offset=".012" stop-color="#0064a2"/><stop offset=".529" stop-color="#0066a4"/><stop offset=".775" stop-color="#006bac"/><stop offset=".964" stop-color="#0075b9"/><stop offset="1" stop-color="#0077bc"/></linearGradient><path clip-path="url(#cx)" fill="url(#cy)" d="M44.9 200.1h80v59.1h-80z"/></g><g><defs><path id="cz" d="M12.2 163c1.2-.5 4.2-1.6 6.6-1.9 2.6-.4 5.7-.4 6.8-.4 1.5 1.7 3.6 3.3 6.4 4.8 2.3 1.2 4.1 1.8 5.6 2.1.2.6.7 2 1.3 3.7-2-.5-5.7-1.1-10.8-1.1-6.9 0-13.7.9-16.3 1.3l.4-8.5zm-1.3 29.6c-5.5-7-5.6-24-.4-49.1 1-4.6 1.9-7.9 2.8-10.5 0-.1 3-9.5 9.6-9.5 4.5 0 13.1 4.9 16.4 6.8 3 1.7 4.4 3.2 5 4.3-1-.7-2-1.4-3-2.2-.7-.5-1.4-1-2.1-1.6 0 0-.1 0-.1-.1 0 0-.1 0-.1-.1-.2-.1-4.4-1.7-9 2.5-4.9 4.4-7.5 13.5-3.2 20.6 2.2 3.8 6.8 8.4 11.9 12.4-1.4-.2-3.4-.8-5.9-2.1-8.1-4.1-9.4-10.7-9.4-10.8-.1-.5-.5-.8-1-.7-.5.1-.8.5-.7 1 0 .2.5 2.6 2.6 5.6-1.5 0-3.7.2-5.7.4-3.2.4-7.3 2.1-7.5 2.2 0 0-.1 0-.1.1l-.1.1-.1.1-.1.1V162.4l-.7 10v.4c0 .1.1.1.1.2l.1.1.1.1s.1 0 .1.1c.1 0 .1 0 .2.1h.2c.1 0 8.6-1.5 17-1.5 6 0 10.1 1 11.4 1.3 1.1 4.3 2.1 10.1.8 14.7-2 6.9-6 11.1-11.4 12.1-.9.2-1.7.2-2.6.2-5.4 0-11.4-2.9-15.1-7.6m.9-60.2c-1 2.7-1.9 6.1-2.9 10.7-5.4 26-5.2 43 .7 50.5 4 5.1 10.4 8.3 16.4 8.3 1 0 2-.1 3-.3 4.3-.8 9.9-3.8 12.7-13.3 2.1-7.3-1-16.9-2.3-20.4h.8c.8 0 1.2-.1 1.2-.1h.1c.1 0 .1 0 .2-.1.1 0 .1-.1.2-.1 0 0 .1 0 .1-.1 0 0 0-.1.1-.1 0-.1.1-.1.1-.2v-.1-.2s0-.1-.1-.1c0-.1 0-.1-.1-.2 0-.1-.1-.1-.1-.2l-.1-.1c-5.8-4.1-11.2-9.4-13.6-13.5-3.8-6.4-1.5-14.6 2.9-18.5 3.5-3.2 6.6-2.4 7.2-2.2.7.5 1.3 1 2 1.5 1.7 1.3 3.3 2.5 4.8 3.5l.1.1h.3c.1 0 .2 0 .3-.1h.1c.1-.1.2-.1.3-.2v-.1l.1-.1c.1-.4 1.1-3.8-6.2-8-5.7-3.3-12.8-7-17.2-7-7.6 0-10.9 10-11.1 10.7"/></defs><clipPath id="cA"><use xlink:href="#cz" overflow="visible"/></clipPath><linearGradient id="cB" gradientUnits="userSpaceOnUse" x1="-292.867" y1="443.442" x2="-291.867" y2="443.442" gradientTransform="matrix(41.5215 0 0 -41.5215 12165.246 18574.195)"><stop offset="0" stop-color="#0064a2"/><stop offset=".012" stop-color="#0064a2"/><stop offset=".529" stop-color="#0066a4"/><stop offset=".775" stop-color="#006bac"/><stop offset=".964" stop-color="#0075b9"/><stop offset="1" stop-color="#0077bc"/></linearGradient><path clip-path="url(#cA)" fill="url(#cB)" d="M3.5 121.7h44v80.2h-44z"/></g><g><path fill="#FFF" d="M156.4 29.6c1.4 8.6-4.5 16.7-13.2 18.1-8.6 1.4-16.7-4.5-18.1-13.2-1.4-8.6 4.5-16.7 13.2-18.1 8.7-1.3 16.8 4.6 18.1 13.2"/><path fill="#C6C6C5" d="M137.9 14c-10 1.6-16.8 10.9-15.2 20.9 1.6 10 10.9 16.8 20.9 15.2 10-1.6 16.8-10.9 15.2-20.9-1.5-10-10.9-16.8-20.9-15.2m5.4 33.7c-8.6 1.4-16.7-4.5-18.1-13.2-1.4-8.6 4.5-16.7 13.2-18.1 8.6-1.4 16.7 4.5 18.1 13.2 1.3 8.6-4.6 16.7-13.2 18.1"/><path fill="#0080C8" d="M137.9 27.8l2.6-1.3v.2L138 28l-.1-.2zm-1.5-5.6l.7-.3-.2-.1-.5.3v.1zm0-.9l-.2-.1.1.2.1-.1zm1.1 5l2.8-1.4v-.2l-2.8 1.4v.2zm-.6-2.5l1.7-.8-.2-.1-1.5.8v.1zm.4 1.7l2.7-1.4-.2-.1-2.5 1.3v.2zm-.6-2.5l1.2-.6-.2-.1-1 .5v.2zm1 4.2l2.7-1.4v-.2l-2.7 1.4v.2zm-.6-2.5l2.2-1.1-.2-.1-2 1v.2zM132.3 26.7l-.7.8v-.3l.6-.7.1.2zm-.7-2.2l-.1.2v.3l.2-.2-.1-.3zm.3 1l-.4.5v.3l.4-.5v-.3zm.9 2.9l-1.1 1.3v.3l1.1-1.4v-.2zm.3 5.2l1.1-1.3-.1-.2-1.2 1.5h.2zm.7-2.1l-.1-.2-1.7 2.1.2.1 1.6-2zm.2 2.4l.6-.7-.1-.2-.7.9h.2zm-.9-4.5l-1.3 1.6v.3l1.4-1.7-.1-.2zm-.6-2l-.8 1v.3l.9-1.1-.1-.2zm2.4 6.8l.1-.1-.1-.2-.2.3h.2zm-1.5-3.9l-1.5 1.9v.3l1.6-2-.1-.2zM147.4 26.8l-1.2 1v-.2l1.2-1.1v.3zm-1.8-5.4l-.2.2v.3l.4-.3-.2-.2zm1.4 1l-1.3 1.2v.2l1.5-1.3-.2-.1zm-.7-.5l-.8.7v.2l.9-.8-.1-.1zm.7 8.3l-.4.4v.2l.4-.3v-.3zm.8-7.2l-.1-.1-1.9 1.6v.2l2-1.7zm-.3 2.3l-1.5 1.3v.2l1.4-1.2.1-.3zm-.2 2.4l-1 .8v.2l.9-.8.1-.2zm-.2 1.2l-.7.6v.2l.6-.5.1-.3zm.6-4.9l-1.8 1.5v.2l1.7-1.5.1-.2z"/><path fill="#E5007E" d="M142.5 28.4l-2.1-8.3.4 7zM143.5 34.2l-2.1 1.8-6-1.7z"/><path fill="#0080C8" d="M143.7 33.9l2.5-6.8.5 4.2zM146.2 26.9l-3-7.4 2.1 1.6zM142.4 28.8l-1.8-1.4-2.6 1.2.1.3z"/><path fill="#E5007E" d="M133.7 30.4l-.1-8.5-1.8 2.2z"/><path fill="#0080C8" d="M133.9 30.6l1.3 3.2h2.9z"/><path fill="#E30521" d="M148.6 36l.7.9h-.1l-.5.2s-.1 0 0 0c0 0 0 .1.1.1s.7-.1.7-.1h.1s.1 0 0 .1l-.2.1-.9.3.1.1 2.7-.7-.1.1s0 .1-.1.1l-2.8.9.1.1 2.5-.6v.1h-.1l-1.9.6.1.1 1.5-.4h.1l-.1.1s0 .1-.1.1h-.1l-.9.3.1.1.8-.1h.2l.1.2-.5.2.1.1s-.1 0 .6-.1h.1c0 .1.3.6.3.6v.1h-.1l-1.5-.5-1.2 1.2s0 .1-.1 0v-.1l-.1-1.5-1.4-.8s-.1-.1 0-.1 1.5-.6 1.5-.6l.3-1.6c-.1.4-.1.3 0 .4 0-.1 0 0 0 0"/><path fill="#008FD3" d="M136.1 39.1l.7.9-.6.2s-.1 0 0 0c0 0 0 .1.1.1s.7-.1.7-.1h.1l.1.1-1.1.4.1.1c.1 0 .6-.1.6-.1l.2.3-1.1.3.1.1c.1 0 1.2-.3 1.3-.3l.2.1-1 .4.1.1 1.4-.3.1.1-1.1.5.1.1 1.2-.2v.2l-.6.2s0 .1.1.1l.6-.1.1.7h-.1l-1.4-.4-1.2 1.2s0 .1-.1 0v-.1l-.1-1.5-1.4-.8s-.1-.1 0-.1 1.5-.6 1.5-.6l.3-1.6c0 .1 0 0 .1 0"/><path fill="#FBBE00" d="M139.2 38.4l.7.9-.6.2s-.1 0 0 0c0 0 0 .1.1.1s.7-.1.7-.1h.1l.1.1-1.1.4.1.1c.1 0 .6-.1.6-.1l.1.1-1.1.3.1.1c.1 0 1.2-.3 1.3-.3l.2.1-1 .4.1.1 1.4-.3.1.1-1.1.4.1.1 1.2-.2v.2l-.6.2s0 .1.1.1l.6-.1.1.7h-.1l-1.4-.4-1.2 1.2s0 .1-.1 0l-.1-.1-.1-1.5-1.4-.8s-.1-.1 0-.1 1.5-.6 1.5-.6l.3-1.6c.2.3.2.2.3.3 0-.1 0 0 0 0"/><path fill="#00151D" d="M142.4 37.6l.7.9-.6.2s-.1 0 0 0c0 0 0 .1.1.1s.7-.1.7-.1h.1l.1.1-1.1.4.1.1c.1 0 .6-.1.6-.1l.1.1-1.1.3.1.1c.1 0 1.2-.3 1.3-.3l.2.1-1 .4.1.1 1.4-.3.1.1-1.1.4.1.1 1.2-.2v.2l-.6.2s0 .1.1.1l.6-.1.1.7h-.1l-1.4-.4L142 42s0 .1-.1 0l-.1-.1-.1-1.5-1.4-.8s-.1-.1 0-.1 1.5-.6 1.5-.6l.3-1.6c.1.3.1.2.3.3 0-.1 0 0 0 0"/><path fill="#00914C" d="M145.5 36.8l.7.9v.1l-.6.2s-.1 0 0 0c0 0 0 .1.1.1s.7-.1.7-.1h.1l.1.1-1.1.4.1.1c.1 0 .6-.1.6-.1l.1.1-1.1.3.1.1c.1 0 1.2-.3 1.3-.3l.2.1-1 .4.1.1 1.4-.3.1.1-1.1.4.1.1 1.2-.2v.2l-.6.4s0 .1.1.1l.6-.1.1.7h-.1l-1.4-.4-1.2 1.2s0 .1-.1 0v-.1l-.1-1.5-1.4-.8s-.1-.1 0-.1 1.5-.6 1.5-.6l.3-1.6c.1 0 .1-.1.2 0 0-.1 0 0 0 0"/></g></svg>