<svg xmlns="http://www.w3.org/2000/svg" xmlns:xlink="http://www.w3.org/1999/xlink" viewBox="0 0 323 281" enable-background="new 0 0 323 281"><defs><path id="a" d="M187.9 1.3c-8.6 3.4-19.3 13.9-31.7 31.2-1.1.7-8.1 5.6-14.7 13.7-5.3 6.5-11 16.9-12.3 20.8-.8 2.3-.5 8.5 1.3 15.6-18.2-8.7-39.1-16.2-45.5-16.2-7.6 0-11.9 4.3-12.4 12.4-.3 4.6-.1 8.3.1 13.5 0 1.2.1 2.5.1 3.8-11 .8-17.2 2.4-20.2 5.2-6.7 6.1-4.9 15.2-2.4 27.7l.3 1.7c.4 1.8.7 3.5 1 5.1 2.4 12.8 3.8 20.5 14.9 21.6h.7c8.4 0 35.1-11.5 44.1-15.3l1.8-.8c6.2-2.6 12.7-5.5 18.8-8.2-.8 6.5-1.5 11.2-2.3 13.6-2 6.6-6.7 14.6-12.1 22.5-.2-2.9-1.2-5.3-2.9-7.1-2.9-3.1-8-4.6-15.6-4.6-10.3 0-19.8 4.8-24.5 7.6l2.4-4.1c.2-.3.2-.7-.1-1-.2-.3-.6-.4-.9-.3-.7.2-17 4.8-25.7 19.3-2.4 4-9.6 17.9-2 31.3 6.4 11.3 18 12.8 23.4 12.8h.8c-2.2 2.7-4.3 5.3-6.1 7.7-1.2-3-4.7-9.4-11.9-9.4-9.5 0-17.2 6.1-26.3 14.1-8 7.1-13.8 13-22.3 22.6-4.6 5.2-5.7 8.9-4.2 13.8 1.2 3.8 10.3 4.4 25.3 4.4H42.6c4.3 0 6.5-1.1 7.5-1.9 2.2 1.7 4.8 2.6 7.8 2.6 10.3 0 26-8 49.2-25 11.4-8.4 23.6-18.5 25.2-19.9 8.5-1.6 30.7-4.5 34.9.5.7.9.8 2 .3 3.4-2.4 6.3-7 14.6-10.8 21.4-3.6 6.4-5.4 9.8-5.5 11.2-.4 4 2.4 6.3 8.4 6.9 5.3.5 17 .8 29.7.8 16.5 0 34.7-.5 42.7-1.4.9-.1 2.4-.8 2.8-4.2 0-.2-.7-20.4-14.3-24-6.7-1.8-15.5-.6-23.1 1.3 1.9-2.2 5.2-6.3 9.8-12.4.4.5.8 1 1.1 1.3 3.6 4 6.4 6.1 9.5 6.8.8.2 1.6.3 2.2.3 2.9 0 4.6-1.4 5.3-2.1 1.7 1 3.4 1.7 4.9 1.9h.6c2.2 0 4.8-1.6 6.8-4.2 2.5-3.2 2.9-7.8 3-9.8.7.1 1.4.2 2.1.2.9 0 1.8-.2 2.5-.6 3.6-2.2 5.6-7.8 5.9-10.2.3-2.6.1-8.2-2.9-10.5-1.6-1.3-3.6-2-5.7-2.8-1.6-.6-3.2-1.2-4.7-2-.7-.4-1.8-1.1-3.1-1.9 2.2-1.5 6.7-5 8-8.3 2.1-5.3-.5-9.3-1.7-10.8-1.8-2.2-4.1-3.4-5.8-3.1-2.9.5-7.7 4.1-8.5 4.8-1.9.7-6.8 2.4-8 2.7-.5.1-1.1.3-1.9.6-1.4.5-3.2 1.2-4.4 1-.9-.2-7.2-2.7-13.8-5.9 2.8-4.1 5.1-8.3 6.7-12.4.1 0 .3 0 .4-.1 3.3-1 5.4-4.1 6.5-6.9 2.9 1.9 11.7 7.2 18.2 7.2 3.1 0 11.6-.9 18.1-3.7 5.7-2.4 13.2-4.9 16.8-5 10.2-.2 14.3-2.3 20.6-5.4l.6-.3c.3-.2 1.3-.4 2.4-.7 4.1-1.1 11-2.8 13.3-6.6.8-1.4 1.4-3.1 1.7-3.9.5-.3 1.1-.7 1.5-1.1 2.3-2 3.8-5.5 3.9-9.4.1-3-.7-5.6-2.1-6.9-2-1.9-8-1.1-11.4-.5-2.8.5-6.8.2-8.3 0-.1-.2-.1-.5-.2-.7 2.2-1.2 8.8-5 11.1-8.8 1.5-2.4 1.7-8.8-1.1-12.7-2.8-3.9-6.7-5.3-11.6-4-2.6.7-7.2 6.6-9.8 10.2-.1-2.5-.6-5.5-2.6-7-3.3-2.3-9.4-2.7-12.1.3-1.5 1.7-2 4.6-2.5 7.5-.3 1.7-.6 3.2-1 4.3-.4 1-1.5 2.2-2.6 3.5-.6.6-1.1 1.3-1.7 1.9-.3.4-.7.8-1 1.2-1.4 1.8-2.6 3.3-4.7 4.9-4.2 3-14.9 7.5-19.8 7.7-2.6.1-8-3-10.4-4.4.5-.5.9-1 1.3-1.7 1-1.9.5-7.3.1-10.1.6.2 1.2.3 1.8.5 1 .2 1.9.3 2.8.3 7.2 0 11.6-5.9 12.3-6.9.8-.5 4.2-3.2 6.9-9 1.9-4.1 1.3-7.6-1.9-10.5-2-1.8-4-2.7-7.6-4.3-1.1-.5-2.3-1-3.8-1.7l-6-4.1c.1-1.8.7-8.3 1.2-13.1.2-2.1 1.2-12.6-.8-16.2-2.6-4.7-9-10.7-14.6-14.8 1.8-4.3 9.6-23.6 9.4-27.7-.1-1.5-.8-2.1-1.4-2.4-3.6-1.7-12.8 4.8-13.8 5.6-4.4 3.2-7.8 6.3-9.8 8.2.6-4.9 1.3-10.4 1.8-15.1.5-4.2-.8-6.1-2-7-.6-.5-1.6-.9-2.9-.9-.5.3-1.5.5-2.6 1"/></defs><clipPath id="b"><use xlink:href="#a" overflow="visible"/></clipPath><radialGradient id="c" cx="-258.288" cy="438.942" r="1.046" gradientTransform="scale(-219.7076 219.7076) rotate(55.008 291.477 466.952)" gradientUnits="userSpaceOnUse"><stop offset="0" stop-color="#fff"/><stop offset=".356" stop-color="#fff"/><stop offset=".544" stop-color="#f6f6f6"/><stop offset=".852" stop-color="#ddd"/><stop offset="1" stop-color="#cfcfcf"/></radialGradient><path clip-path="url(#b)" fill="url(#c)" d="M439.4 91.6L207.7 422.5l-337.6-236.3 231.7-331z"/><defs><path id="d" d="M256.2 218c-2 0-3 2.9-3 5.8s1 5.8 3 5.8h27.1c1.1 0 3.1.3 3.9 1.6 1 1.5 1.9 4 2.6 6.2-1.4-.1-2.9-.1-4.3-.1H277c-12.5 0-25.8 2.3-26.7 6.5-7 3.3-10.7 9.2-10.7 16.9 0 12.7 10 20 27.3 20h28.6c17.4 0 27.3-7.3 27.3-20 0-7.7-3.7-13.5-10.7-16.9-.4-2-3.4-3.6-8.9-4.8-1-3-2.5-6.7-2.7-7.1-.2-.5-.5-1-.7-1.6-2.5-5.4-5.3-11.5-14.6-12.2h-29z"/></defs><clipPath id="e"><use xlink:href="#d" overflow="visible"/></clipPath><radialGradient id="f" cx="-258.288" cy="438.942" r="1.046" gradientTransform="scale(-219.7058 219.7058) rotate(55.008 291.477 466.952)" gradientUnits="userSpaceOnUse"><stop offset="0" stop-color="#fff"/><stop offset=".356" stop-color="#fff"/><stop offset=".544" stop-color="#f6f6f6"/><stop offset=".852" stop-color="#ddd"/><stop offset="1" stop-color="#cfcfcf"/></radialGradient><path clip-path="url(#e)" fill="url(#f)" d="M352.4 238.6l-56.8 81.1-85.3-59.7 56.8-81.1z"/><g opacity=".6"><defs><path id="g" d="M203.9 74.1h6.2v11.1h-6.2z"/></defs><clipPath id="h"><use xlink:href="#g" overflow="visible"/></clipPath><g clip-path="url(#h)"><defs><path id="i" d="M204.3 78.8c-.8 3-.2 5.9 1.4 6.4 1.5.5 3.4-1.6 4.2-4.6.8-3 .2-5.9-1.4-6.4-1.6-.5-3.5 1.6-4.2 4.6"/></defs><clipPath id="j"><use xlink:href="#i" overflow="visible"/></clipPath><radialGradient id="k" cx="-310.444" cy="437.936" r="1.046" gradientTransform="matrix(-3.9435 -1.2424 1.0703 -4.2148 -1485.924 1539.833)" gradientUnits="userSpaceOnUse"><stop offset="0" stop-color="#81cff4"/><stop offset=".171" stop-color="#71c9f2"/><stop offset=".503" stop-color="#48b9ec"/><stop offset=".961" stop-color="#06a0e3"/><stop offset="1" stop-color="#009ee2"/></radialGradient><path clip-path="url(#j)" fill="url(#k)" d="M213.4 74.6l-9.4-2.9-3.3 13.1 9.3 2.9z"/></g></g><path fill="#B2B2B1" d="M196.2 79.9c2.8 5.5 10.3 7 12.4 4.5 1.3-1.5 3.1-6 .9-10-1.3-2.5-3-3.6-4.4-4.2-3.1-1.4-7.3-.9-8.9 2.5-.9 2.2-1.2 4.9 0 7.2m2.2.7c-1.1-1.8-1.7-3.5-.6-6.3 1.1-2.9 4.5-3.4 6.9-2.5 1.6.6 7.4 2.7 4.3 10.4-1.1 2.8-3.1 2.8-4.7 2.4-2.4-.7-4.6-1.8-5.9-4"/><path fill="#1D1D1B" d="M207 83.3s-1.2-.1-1-2.5c.2-2.3 1.5-4.7 2.9-4.3 1.3.4.9 7.2-1.9 6.8"/><path fill="#FFF" d="M207.1 78.8s.4-1.2.8-1.1c.4.1.2 1.1-.1 1.6-.4.7-.9.7-.7-.5"/><defs><path id="l" d="M69.9 179.6l.1-2.7c0-.3-.1-.6-.4-.8-.3-.2-.6-.2-.9-.1-.4.2-8.9 4.1-10.9 14.7-1.4 7.6.4 14.6 5 18.7 4.9 4.4 17.3 5.8 17.8 5.9h.1c.1 0 .2 0 .3-.1 0 0 .1 0 .1-.1.1 0 .1-.1.2-.2 1.5-1.7 2.9-3.4 4.4-5.1l.1-.1.1-.1v-.2-.1-.2-.1l-.1-.1c0-.1-.1-.1-.1-.2l-.1-.1-.1-.1c-.1 0-5.9-2.2-8.3-5.6-2.8-4.1-2.7-7.5-2.1-9.6 1.2-4.5 6.9-8.9 11.2-9.8 1.4-.3 3.3-.3 4.4 1.1 1.2 1.5.3 6.1-.6 8.7-.1.3 0 .7.3.9.3.2.6.3 1 .1.1 0 10.8-5 8.7-14.6-1.2-5.4-6.1-7.9-8.6-8.5-1.3-.3-2.5-.4-3.8-.4-8 0-14.8 5.8-17.8 8.8"/></defs><clipPath id="m"><use xlink:href="#l" overflow="visible"/></clipPath><linearGradient id="n" gradientUnits="userSpaceOnUse" x1="-253.9" y1="440.09" x2="-252.854" y2="440.09" gradientTransform="scale(45.9759 -45.9759) rotate(-46.468 -643.273 -79.15)"><stop offset="0" stop-color="#d9d9d9"/><stop offset=".17" stop-color="#c9c9c9"/><stop offset=".5" stop-color="#a0a0a0"/><stop offset=".955" stop-color="#5f5f5e"/><stop offset="1" stop-color="#585857"/></linearGradient><path clip-path="url(#m)" fill="url(#n)" d="M80.4 148l44 46.3-46.4 44L34.1 192z"/><defs><path id="o" d="M187.9 1.3c-8.6 3.4-19.3 13.9-31.7 31.2-1.1.7-8.1 5.6-14.7 13.7-5.3 6.5-11 16.9-12.3 20.8-1 3-.2 12.9 3.3 22.3 1.7 4.5 4.2 8.9 4.3 9 .1.1.1.2.2.2 0 0 .1 0 .1.1h.1c.1 0 10.4 3.5 21.3 10.3l.8.5h.2c.1 0 .2.1.3.1.1 0 .3 0 .4-.1 0 0 .1 0 .1-.1 0 0 .1 0 .1-.1l.1-.1.1-.1v-.1c0-.1 0-.1.1-.2v-.2-.1-.2s0-.1-.1-.1c0-.1-.1-.1-.1-.2-.1-.1-5.7-6.3-8.4-13.8-1.5-4-1.7-8.9-1.7-10.2 1.3-1.3 7.7-7.4 22.3-17.2 6.9-4.6 30.4-19.3 41.4-12.1 9 5.9 7.9 29.5 7.9 29.7v.4c0 .1.1.1.1.1 0 .1 0 .1.1.1l.1.1.1.1H223.1c.1 0 .1-.1.2-.1 0 0 .1 0 .1-.1.1-.1.2-.2.2-.3 0-.1.1-.2.1-.3 0-.1.6-8 1.2-13.6.2-2.1 1.2-12.6-.8-16.2-2.6-4.7-9-10.7-14.6-14.8 1.8-4.3 9.6-23.6 9.4-27.7-.1-1.5-.8-2.1-1.4-2.4-3.6-1.7-12.8 4.8-13.8 5.6-4.4 3.2-7.8 6.3-9.8 8.2.6-4.9 1.3-10.4 1.8-15.1.5-4.2-.8-6.1-2-7-.6-.5-1.6-.9-2.9-.9-.8.2-1.8.4-2.9.9"/></defs><clipPath id="p"><use xlink:href="#o" overflow="visible"/></clipPath><linearGradient id="q" gradientUnits="userSpaceOnUse" x1="-256.375" y1="437.584" x2="-255.329" y2="437.584" gradientTransform="scale(126.8579 -126.8579) rotate(-3.163 -8059.343 -4441.221)"><stop offset="0" stop-color="#d9d9d9"/><stop offset=".17" stop-color="#c9c9c9"/><stop offset=".5" stop-color="#a0a0a0"/><stop offset=".955" stop-color="#5f5f5e"/><stop offset="1" stop-color="#585857"/></linearGradient><path clip-path="url(#p)" fill="url(#q)" d="M128.5-4.8L232.2 1l-6.3 114.1-103.7-5.7z"/><path fill="#FFF" d="M185.4 40.2c2.9-14.1 6.2-31.3 5.2-32.9-.2-.3-.7-.8-1.6-.7-3.8.3-15.3 13-22.2 28-3.9 8.6-5.7 19.1-5.7 19.6-.1.4.2.9.6 1 .2.1.3.2.5.2s.4-.1.6-.2c3.6-3 7.1-5.3 10.5-7.3l1.5-.9c2.6-1.6 6.9-4.3 10.2-6.1.1 0 .1-.1.1-.1l.1-.1s0-.1.1-.1c.1-.3.1-.3.1-.4"/><defs><path id="r" d="M163.3 15.8h18.5v36.8h-18.5z"/></defs><clipPath id="s"><use xlink:href="#r" overflow="visible"/></clipPath><path clip-path="url(#s)" fill="#EDEDED" d="M163.3 52.6c3.1-2.5 6.2-4.5 9.1-6.3l1.5-.9c2-1.2 5-3.1 7.8-4.8.1-2 .1-4.1.1-6.2 0-6.5-.3-12.7-.9-18.7-4 4.7-8.7 11.5-12.4 19.6-2.9 6.4-4.6 13.9-5.2 17.3"/><defs><path id="t" d="M277.1 239c-15.3 0-25 3-25 5.1 0 .5.7 1.1 1.8 1.7 3.7 1.9 11.9 1.9 21.4 1.9H286.9c9.9 0 18.5 0 22.1-2 1-.5 1.6-1.1 1.6-1.6 0-.6-1.4-2.1-6.6-3.3.1.5.2.9.2 1.2 0 1.7-5.2 1.9-6.9 1.9-2.6 0-4.5-.4-5.4-1.2-.4-.4-.7-1.2-1.5-3.6-1.6-.1-3.3-.1-4.9-.1h-8.4z"/></defs><clipPath id="u"><use xlink:href="#t" overflow="visible"/></clipPath><linearGradient id="v" gradientUnits="userSpaceOnUse" x1="-254.266" y1="436.7" x2="-253.22" y2="436.7" gradientTransform="matrix(55.9033 0 0 -55.9033 14466.397 24656.39)"><stop offset="0" stop-color="#c20a6c"/><stop offset=".472" stop-color="#e3097e"/><stop offset="1" stop-color="#e3097e"/></linearGradient><path clip-path="url(#u)" fill="url(#v)" d="M252.1 239h58.5v8.7h-58.5z"/><g><defs><path id="w" d="M256.2 219.8c-.3 0-1.2 1.4-1.2 4s.9 4 1.2 4h27.1c.7 0 3.9.1 5.4 2.3 1.4 2.1 2.6 5.7 3.4 8.4.4 1.2.8 2.7 1 3 .4.3 1.7.7 4.1.7 2.2 0 4.2-.3 5-.6-.4-1.9-2.7-8-3.2-9.1-.3-.5-.5-1.1-.7-1.6-2.4-5.2-4.9-10.6-13.1-11.2l-29 .1z"/></defs><clipPath id="x"><use xlink:href="#w" overflow="visible"/></clipPath><linearGradient id="y" gradientUnits="userSpaceOnUse" x1="-263.843" y1="430.365" x2="-262.796" y2="430.365" gradientTransform="matrix(-7.333 -22 -22 7.333 7817.072 -8713.9)"><stop offset="0" stop-color="#c20a6c"/><stop offset=".472" stop-color="#e3097e"/><stop offset="1" stop-color="#e3097e"/></linearGradient><path clip-path="url(#x)" fill="url(#y)" d="M259.7 256.4L248.2 222l49.4-16.4L309 240z"/></g><g><defs><path id="z" d="M309.8 247.3c-4 2.2-12.8 2.2-23 2.2h-13.4c-9 0-16.7-.1-20.4-2.1-1.1-.6-1.9-1.2-2.3-1.9-7.6 3.8-9.2 10.3-9.2 15.1 0 11.8 9.1 18.2 25.5 18.2h28.6c16.5 0 25.5-6.5 25.5-18.2 0-4.8-1.6-11.2-9.2-15.1-.4.7-1.1 1.3-2.1 1.8"/></defs><clipPath id="A"><use xlink:href="#z" overflow="visible"/></clipPath><linearGradient id="B" gradientUnits="userSpaceOnUse" x1="-255.266" y1="437.036" x2="-254.22" y2="437.036" gradientTransform="matrix(76.1885 0 0 -76.1885 19689.824 33559.262)"><stop offset="0" stop-color="#9b9999"/><stop offset=".294" stop-color="#72706f"/><stop offset="1" stop-color="#d9d9d9"/></linearGradient><path clip-path="url(#A)" fill="url(#B)" d="M241.5 245.5h79.7v33.3h-79.7z"/></g><g><defs><path id="C" d="M207.2 119.8c2.7 6.1 4 7.9 6 7.3-.1-.7-.5-3.5-2.2-6.6-1.7-3.1-4-4.5-5.6-5.2.7 1.8 1.3 3.4 1.8 4.5"/></defs><clipPath id="D"><use xlink:href="#C" overflow="visible"/></clipPath><linearGradient id="E" gradientUnits="userSpaceOnUse" x1="-230.146" y1="428.903" x2="-229.1" y2="428.903" gradientTransform="matrix(7.4199 0 0 -7.4199 1913.098 3303.953)"><stop offset="0" stop-color="#c20a6c"/><stop offset=".472" stop-color="#e3097e"/><stop offset="1" stop-color="#e3097e"/></linearGradient><path clip-path="url(#D)" fill="url(#E)" d="M205.4 115.3h7.8v12.4h-7.8z"/></g><g><defs><path id="F" d="M87.3 97.1c-3.2.2-6.6.4-10.1.5-13.1.7-20.3 2.2-23.4 5-6 5.4-4.3 14.1-1.9 26.1l.3 1.7c.4 1.8.7 3.5 1 5.1 2.3 12.4 3.6 19.2 13.3 20.1 4.7.5 19.4-4.6 43.9-15.1l1.9-.8c9.9-4.2 20.6-9 29.2-12.8.4-.2.9-.4 1.3-.6.4-.2.7-.3.9-.4 9.6-4.3 16.5-7.3 18.6-7.9 3.6-1 7.2-.9 10.1-.5-4.9-3-9.7-5.9-13.8-8.5-10.9-6.8-21.2-10.3-21.3-10.3-.1 0-7.1-2.5-14.2-2.8-1.6-.1-3.3-.1-5.2-.1-8 .1-18.3.6-30.6 1.3"/></defs><clipPath id="G"><use xlink:href="#F" overflow="visible"/></clipPath><linearGradient id="H" gradientUnits="userSpaceOnUse" x1="-259.556" y1="439.935" x2="-258.51" y2="439.935" gradientTransform="matrix(-77 46.7499 46.7499 77 -40401.734 -21639.598)"><stop offset="0" stop-color="#0075be"/><stop offset=".393" stop-color="#0075be"/><stop offset=".63" stop-color="#008ed4"/><stop offset=".822" stop-color="#009ee2"/><stop offset="1" stop-color="#009ee2"/></linearGradient><path clip-path="url(#G)" fill="url(#H)" d="M199.2 139.9L81.4 211.4l-60.3-99.3 117.8-71.5z"/></g><g><defs><path id="I" d="M162.8 119.7c-1.5.4-5.8 2.3-11.7 4.9 6.6.3 12.1 4.8 21.6 13.8 4.5 4.3 9.7 10.5 14.2 15.9 3.3 4 6.5 7.8 9 10.4 3.5 3.6 6.6 5 9.4 4.2 3.8-1.1 5.7-6 6.2-8.5.3-1.3.7-3 1.3-5 1.1-4 2.5-9 3.2-14.1.6-4.5-2.4-7.1-2.9-7.5-.5.1-1 .1-1.5.1-.7 0-1.5-.1-2.3-.2-.4-.1-.8-.2-1.3-.4-.2.4-.4.8-.6 1.3-.1.4-.2.9-.1 1.6v.4c2.5 1.5 4.1 2.5 4.2 2.5.4.3.6.8.3 1.2-.2.3-.5.4-.8.4-.2 0-.3 0-.5-.1s-16.8-10-33.2-20c-.5-.2-4.5-1.5-9.2-1.5-1.7-.1-3.5.1-5.3.6"/></defs><clipPath id="J"><use xlink:href="#I" overflow="visible"/></clipPath><linearGradient id="K" gradientUnits="userSpaceOnUse" x1="-256.024" y1="438.213" x2="-254.977" y2="438.213" gradientTransform="matrix(97 46.0001 46.0001 -97 4799.745 54399.379)"><stop offset="0" stop-color="#0075be"/><stop offset=".393" stop-color="#0075be"/><stop offset=".63" stop-color="#008ed4"/><stop offset=".822" stop-color="#009ee2"/><stop offset="1" stop-color="#009ee2"/></linearGradient><path clip-path="url(#J)" fill="url(#K)" d="M163.1 93.7l73.1 34.6-31.7 66.7-73-34.6z"/></g><g><defs><path id="L" d="M85 68.2c-6.6 0-10.2 3.6-10.6 10.7-.3 4.5-.1 8.2.1 13.3 0 1.2.1 2.4.1 3.8.8-.1 1.6-.1 2.4-.1 3.5-.2 6.9-.4 10.1-.5 15.2-.8 27.3-1.5 36-1.1 5 .2 9.9 1.4 12.6 2.2-.9-1.7-2.2-4.4-3.3-7.1-.6-1.5-1-3-1.5-4.4-18.1-9-39.6-16.8-45.9-16.8z"/></defs><clipPath id="M"><use xlink:href="#L" overflow="visible"/></clipPath><linearGradient id="N" gradientUnits="userSpaceOnUse" x1="-262.197" y1="435.236" x2="-261.151" y2="435.236" gradientTransform="matrix(-27.75 -33 -33 27.75 7201.376 -20636.621)"><stop offset="0" stop-color="#0075be"/><stop offset=".393" stop-color="#0075be"/><stop offset=".63" stop-color="#008ed4"/><stop offset=".822" stop-color="#009ee2"/><stop offset="1" stop-color="#009ee2"/></linearGradient><path clip-path="url(#M)" fill="url(#N)" d="M99.7 126.7L60.3 79.9l49.9-42.1 39.5 46.9z"/></g><g><defs><path id="O" d="M298.5 131.5c-3.5 3.1-2.6 7.5-.4 10.2 1.4 1.7 3.2 2.3 4.8 2.3 1.6 0 3.1-.6 4-1.1.1-.1.2-.1.2-.2 2.3-3.3 2.6-7.9 1.9-10.9v-.1c0-.1-.1-.1-.1-.2l-.1-.1-.2-.2c-.2-.1-2.5-1.4-5.3-1.4-1.5-.1-3.3.3-4.8 1.7"/></defs><clipPath id="P"><use xlink:href="#O" overflow="visible"/></clipPath><linearGradient id="Q" gradientUnits="userSpaceOnUse" x1="-259.769" y1="439.852" x2="-258.723" y2="439.852" gradientTransform="scale(-86.591 86.591) rotate(28.637 727.002 722.429)"><stop offset="0" stop-color="#d9d9d9"/><stop offset=".17" stop-color="#c9c9c9"/><stop offset=".5" stop-color="#a0a0a0"/><stop offset=".955" stop-color="#5f5f5e"/><stop offset="1" stop-color="#585857"/></linearGradient><path clip-path="url(#P)" fill="url(#Q)" d="M315.8 140.7l-17.4 9.5-9.5-17.2 17.5-9.6z"/></g><g><defs><path id="R" d="M302.8 144.1c-1.5.8-3.5 1.3-5.8 1.6-.1 0-.3.1-.4.1-.1.1-2.8 1.5-3 4.1-.2 2.3 1.6 3.6 1.7 3.7.1 0 .1.1.2.1h.4c.1 0 .2 0 .3-.1 3.1-1.3 5.1-2.7 6.1-4.4 1.1-1.7 1.7-4.1 1.8-4.2v-.3c0-.1 0-.2-.1-.3v-.1c0-.1-.1-.1-.1-.1-.2-.2-.4-.3-.7-.3-.1.1-.3.1-.4.2"/></defs><clipPath id="S"><use xlink:href="#R" overflow="visible"/></clipPath><linearGradient id="T" gradientUnits="userSpaceOnUse" x1="-259.769" y1="439.864" x2="-258.723" y2="439.864" gradientTransform="scale(-86.5888 86.5888) rotate(28.637 726.823 722.383)"><stop offset="0" stop-color="#d9d9d9"/><stop offset=".17" stop-color="#c9c9c9"/><stop offset=".5" stop-color="#a0a0a0"/><stop offset=".955" stop-color="#5f5f5e"/><stop offset="1" stop-color="#585857"/></linearGradient><path clip-path="url(#S)" fill="url(#T)" d="M308.2 151.5l-12.3 6.7-6.6-12 12.4-6.7z"/></g><g><defs><path id="U" d="M269.4 105.8c-1.5.5-2.6 1.6-3.3 3.4-1.3 3.3-.8 7.1 1.2 9.4 1.4 1.7 3.3 2.1 4.8 2.1 1.4 0 2.4-.4 2.5-.4.1 0 .2-.1.3-.2l.1-.1c.1-.1.1-.1.1-.2v-.1-.1c.4-1.6.7-3.3.8-4.9.1-1.4.4-5-.7-7.6 0 0 0-.1-.1-.1 0 0 0-.1-.1-.1 0-.1-.1-.1-.2-.2s-1.9-1.3-4.1-1.3c-.3.2-.8.2-1.3.4"/></defs><clipPath id="V"><use xlink:href="#U" overflow="visible"/></clipPath><linearGradient id="W" gradientUnits="userSpaceOnUse" x1="-259.769" y1="439.832" x2="-258.723" y2="439.832" gradientTransform="matrix(-75.9999 41.5 41.5 76 -37697.93 -22548.342)"><stop offset="0" stop-color="#d9d9d9"/><stop offset=".17" stop-color="#c9c9c9"/><stop offset=".5" stop-color="#a0a0a0"/><stop offset=".955" stop-color="#5f5f5e"/><stop offset="1" stop-color="#585857"/></linearGradient><path clip-path="url(#V)" fill="url(#W)" d="M282.7 117.3l-15.3 8.3-9-16.5 15.2-8.4z"/></g><g><defs><path id="X" d="M285.8 108c-.7 1.8-.6 4.1.4 6.2.8 1.8 2.1 3.1 3.5 3.6.9.3 1.7.4 2.4.4 3.8 0 6.4-3.4 7.4-5.5.1-.1.1-.3.1-.4-.1-2.7-.9-5.1-2.1-6.8-.8-1.2-1.8-2.1-2.8-2.8h-.1c-.1 0-.2-.1-.2-.1h-.6c-1.7-.1-6 .4-8 5.4"/></defs><clipPath id="Y"><use xlink:href="#X" overflow="visible"/></clipPath><linearGradient id="Z" gradientUnits="userSpaceOnUse" x1="-259.769" y1="439.84" x2="-258.723" y2="439.84" gradientTransform="matrix(-75.9999 41.5 41.5 76 -37694.457 -22541.982)"><stop offset="0" stop-color="#d9d9d9"/><stop offset=".17" stop-color="#c9c9c9"/><stop offset=".5" stop-color="#a0a0a0"/><stop offset=".955" stop-color="#5f5f5e"/><stop offset="1" stop-color="#585857"/></linearGradient><path clip-path="url(#Y)" fill="url(#Z)" d="M306.1 114.6l-17.7 9.7-10-18.1 17.8-9.7z"/></g><g><defs><path id="aa" d="M261.9 127.8c-.5 1.5-.1 3.4.4 5.6.4 2 .9 4.2.7 6.2-.1 1.4-.4 3-.6 4.5-.7 5.1-1.4 10 .4 12.1 1.2 1.4 3.4 2.3 6.1 2.3 3.3 0 6.6-1.2 8.6-3.2 8.7-8.4 5.7-22.6 2.3-28-1.8-2.8-6.3-5-10.3-5-3.7-.1-6.5 1.9-7.6 5.5"/></defs><clipPath id="ab"><use xlink:href="#aa" overflow="visible"/></clipPath><linearGradient id="ac" gradientUnits="userSpaceOnUse" x1="-259.769" y1="439.871" x2="-258.723" y2="439.871" gradientTransform="scale(-86.5933 86.5933) rotate(28.637 727.278 722.498)"><stop offset="0" stop-color="#d9d9d9"/><stop offset=".17" stop-color="#c9c9c9"/><stop offset=".5" stop-color="#a0a0a0"/><stop offset=".955" stop-color="#5f5f5e"/><stop offset="1" stop-color="#585857"/></linearGradient><path clip-path="url(#ab)" fill="url(#ac)" d="M301.5 150.2l-34.7 18.9-21-38.5 34.7-19z"/></g><g><defs><path id="ad" d="M104.5 95.1H175v31.4h-70.5z"/></defs><clipPath id="ae"><use xlink:href="#ad" overflow="visible"/></clipPath><g clip-path="url(#ae)"><defs><path id="af" d="M104.5 95.3s23 3.3 31.3 11.8c3.6 3.7 9.3 19.3 9.3 19.3s12.6-5.9 17-7c3.4-.8 13-.9 13-.9s-33.3-20.4-44.2-22.7c-6.9-1.3-26.4-.5-26.4-.5"/></defs><clipPath id="ah"><use xlink:href="#af" overflow="visible"/></clipPath><defs><filter id="ag" filterUnits="userSpaceOnUse" x="104.5" y="94.5" width="70.5" height="32"><feColorMatrix values="1 0 0 0 0 0 1 0 0 0 0 0 1 0 0 0 0 0 1 0"/></filter></defs><mask maskUnits="userSpaceOnUse" x="104.5" y="94.5" width="70.5" height="32" id="aj"><g filter="url(#ag)"><linearGradient id="ai" gradientUnits="userSpaceOnUse" x1="-255.001" y1="437.014" x2="-253.955" y2="437.014" gradientTransform="matrix(67.4331 0 0 -67.4331 17299.998 29579.646)"><stop offset="0" stop-color="#fff"/><stop offset=".245" stop-color="#ddd"/><stop offset=".783" stop-color="#888"/><stop offset="1" stop-color="#636363"/></linearGradient><path clip-path="url(#ah)" fill="url(#ai)" d="M104.5 94.5H175v32h-70.5z"/></g></mask><linearGradient id="ak" gradientUnits="userSpaceOnUse" x1="-255.001" y1="437.014" x2="-253.955" y2="437.014" gradientTransform="matrix(67.4331 0 0 -67.4331 17299.998 29579.646)"><stop offset="0" stop-color="#0075be"/><stop offset=".833" stop-color="#0097dc"/><stop offset="1" stop-color="#009ee2"/></linearGradient><path clip-path="url(#ah)" mask="url(#aj)" fill="url(#ak)" d="M104.5 94.5H175v32h-70.5z"/></g><defs><path id="al" d="M129.6 34.2h52.1v88h-52.1z"/></defs><clipPath id="am"><use xlink:href="#al" overflow="visible"/></clipPath><path clip-path="url(#am)" fill="#EDEDED" d="M145.6 69.5l-3.7 8.3s6.7 11.3 19.3 23.8c5 4.9 20.6 20.7 20.6 20.7s-22.4-13.5-29.9-17.7c-3.6-2-15-6.2-15-6.2s-4.7-14.3-6.1-19.1c-2-7.2-.9-11.6-.9-11.6s6.3-13 9.2-17c3.4-4.6 16.6-16.4 16.6-16.4s-6 9.7-7.8 16.1c-.7 2.5-2.3 19.1-2.3 19.1"/><defs><path id="an" d="M192.1 16.1h16.4V38h-16.4z"/></defs><clipPath id="ao"><use xlink:href="#an" overflow="visible"/></clipPath><path clip-path="url(#ao)" fill="#EDEDED" d="M192.8 26.1s8.2-8.3 11.2-9.7c1.3-.6 3.3-.5 3.8.3 1.7 2.4-.1 8.8-.7 11.7-.6 2.5-2 9.6-2 9.6s-7-3.4-8.5-4.5c-1-.7-4.4-2.4-4.4-2.4l.6-5z"/><defs><path id="ap" d="M89.9 79.7h47v18.7h-47z"/></defs><clipPath id="aq"><use xlink:href="#ap" overflow="visible"/></clipPath><g clip-path="url(#aq)"><defs><path id="ar" d="M132 84.2l-9.8-4.5s-4.9 5.2-6.9 6.4C102.4 93.8 90 96.2 90 96.2s24.9-1.6 33.2-1.1c3.2.2 13.7 3.4 13.7 3.4s-3.1-8-4.1-10c-.4-1.1-.8-4.3-.8-4.3"/></defs><clipPath id="at"><use xlink:href="#ar" overflow="visible"/></clipPath><defs><filter id="as" filterUnits="userSpaceOnUse" x="89.9" y="79.7" width="47" height="18.7"><feColorMatrix values="1 0 0 0 0 0 1 0 0 0 0 0 1 0 0 0 0 0 1 0"/></filter></defs><mask maskUnits="userSpaceOnUse" x="89.9" y="79.7" width="47" height="18.7" id="av"><g filter="url(#as)"><linearGradient id="au" gradientUnits="userSpaceOnUse" x1="-253.51" y1="436.534" x2="-252.464" y2="436.534" gradientTransform="matrix(44.897 0 0 -44.897 11471.774 19688.088)"><stop offset="0" stop-color="#fff"/><stop offset=".245" stop-color="#ddd"/><stop offset=".783" stop-color="#888"/><stop offset="1" stop-color="#636363"/></linearGradient><path clip-path="url(#at)" fill="url(#au)" d="M89.9 79.7h47v18.7h-47z"/></g></mask><linearGradient id="aw" gradientUnits="userSpaceOnUse" x1="-253.51" y1="436.534" x2="-252.464" y2="436.534" gradientTransform="matrix(44.897 0 0 -44.897 11471.776 19688.09)"><stop offset="0" stop-color="#0075be"/><stop offset=".833" stop-color="#0097dc"/><stop offset="1" stop-color="#009ee2"/></linearGradient><path clip-path="url(#at)" mask="url(#av)" fill="url(#aw)" d="M89.9 79.7h47v18.7h-47z"/></g><defs><path id="ax" d="M70.4 128.5h101.4v98.2H70.4z"/></defs><clipPath id="ay"><use xlink:href="#ax" overflow="visible"/></clipPath><path clip-path="url(#ay)" fill="#EDEDED" d="M132.9 132c-3 16.4-3.3 17.6-4.6 20.4-5.1 11.2-19.5 31.9-28 40.7-8.9 9.2-29.9 33.6-29.9 33.6s28.2-17.2 37.4-24.4c5.1-4 18.6-13.5 22.2-18.9 2.8-4.1 7.6-17.2 7.6-17.2s1.6 16.6 3.9 21.6c2.5 5.3 9.5 13.1 17.7 16.7 3.6 1.6 12.6 3.3 12.6 3.3s-15-14-18.7-20c-5-8.2-11.9-27.4-14.3-36.8-4.1-15.9 1.8-22.5 1.8-22.5l-7.7 3.5z"/><defs><path id="az" d="M214 116.6h5.2v16.1H214z"/></defs><clipPath id="aA"><use xlink:href="#az" overflow="visible"/></clipPath><path clip-path="url(#aA)" fill="#EDEDED" d="M214 128.7s1.2.8 1.1 1.5c-.1 1-.8 2.5-.8 2.5s3.3-1.2 4.1-3c1.1-2.3.8-9.8.8-9.8l-4.8-3.3s.3 4.8.1 6.3c-.2 1.2-.5 5.8-.5 5.8"/><defs><path id="aB" d="M193.1 126.4h14.7V137h-14.7z"/></defs><clipPath id="aC"><use xlink:href="#aB" overflow="visible"/></clipPath><path clip-path="url(#aC)" fill="#EDEDED" d="M207.8 132.4l-8.6-6-6.1 2.1 13.3 8.5z"/><g><defs><path id="aD" d="M177.4 120.6h39.1v49.9h-39.1z"/></defs><clipPath id="aE"><use xlink:href="#aD" overflow="visible"/></clipPath><g clip-path="url(#aE)"><defs><path id="aF" d="M177.4 120.6s17.2 14.1 22.4 21.8c2.9 4.4 5.1 15.8 3.3 20.7-1.6 4.4-5.5 4.5-5.5 4.5s3.8 4.3 8 2.4c7.2-3.2 8-13.8 9.4-18.8 1-3.4 2.4-11.5 1.1-14.9-.5-1.4-2.8-3.7-2.8-3.7l-5.5-.3-2.3 4.6s-12.3-8.7-16.7-10.6c-2.3-.9-11.4-5.7-11.4-5.7"/></defs><clipPath id="aH"><use xlink:href="#aF" overflow="visible"/></clipPath><defs><filter id="aG" filterUnits="userSpaceOnUse" x="177.4" y="120.6" width="39.9" height="51.3"><feColorMatrix values="1 0 0 0 0 0 1 0 0 0 0 0 1 0 0 0 0 0 1 0"/></filter></defs><mask maskUnits="userSpaceOnUse" x="177.4" y="120.6" width="39.9" height="51.3" id="aJ"><g filter="url(#aG)"><linearGradient id="aI" gradientUnits="userSpaceOnUse" x1="-252.51" y1="436.156" x2="-251.464" y2="436.156" gradientTransform="matrix(37.418 0 0 -37.418 9625.75 16466.283)"><stop offset="0" stop-color="#fff"/><stop offset=".245" stop-color="#ddd"/><stop offset=".783" stop-color="#888"/><stop offset="1" stop-color="#636363"/></linearGradient><path clip-path="url(#aH)" fill="url(#aI)" d="M177.4 120.6h39.9v51.3h-39.9z"/></g></mask><linearGradient id="aK" gradientUnits="userSpaceOnUse" x1="-252.51" y1="436.156" x2="-251.464" y2="436.156" gradientTransform="matrix(37.418 0 0 -37.418 9625.75 16466.283)"><stop offset="0" stop-color="#0075be"/><stop offset=".833" stop-color="#0097dc"/><stop offset="1" stop-color="#009ee2"/></linearGradient><path clip-path="url(#aH)" mask="url(#aJ)" fill="url(#aK)" d="M177.4 120.6h39.9v51.3h-39.9z"/></g></g><g><defs><path id="aL" d="M210.2 226.7h15.2v16.7h-15.2z"/></defs><clipPath id="aM"><use xlink:href="#aL" overflow="visible"/></clipPath><path clip-path="url(#aM)" fill="#EDEDED" d="M210.2 226.7s1.6 8.4 2.5 11c1.8 4.8 7.3 5.6 7.3 5.6l5.4-2.3s-6.3-4.7-8.2-6.8c-1.7-1.8-7-7.5-7-7.5"/></g><g><defs><path id="aN" d="M222.5 218h17.1v21.1h-17.1z"/></defs><clipPath id="aO"><use xlink:href="#aN" overflow="visible"/></clipPath><path clip-path="url(#aO)" fill="#EDEDED" d="M228.3 231c1.9 2.5 8.6 8.1 8.6 8.1s1.5-1.6 2-4.4c.2-1.3.8-5.4.8-5.4s-7.2-3.2-9.2-4.6c-2.5-1.7-7.9-6.7-7.9-6.7s3.8 10.4 5.7 13"/></g><g><defs><path id="aP" d="M227.9 189.2h14.8v13.1h-14.8z"/></defs><clipPath id="aQ"><use xlink:href="#aP" overflow="visible"/></clipPath><path clip-path="url(#aQ)" fill="#EDEDED" d="M242.6 189.2s-3.4 4.2-8.4 7.6c-1.6 1.1-6.4 2.3-6.4 2.3l5.9 3.2s3.8-3.2 5-4.3c3.9-3.8 3.9-8.8 3.9-8.8"/></g><g><defs><path id="aR" d="M266.5 238.6h30.8v6.9h-30.8z"/></defs><clipPath id="aS"><use xlink:href="#aR" overflow="visible"/></clipPath><g clip-path="url(#aS)"><defs><path id="aT" d="M297.3 244s-12 1.8-16 1.6c-3.5-.2-13-.2-14.5-3.3-1.6-3.2 3.9-3.6 3.9-3.6H291s.7 2.8 1.3 3.5c1.1 1 5 1.8 5 1.8"/></defs><clipPath id="aV"><use xlink:href="#aT" overflow="visible"/></clipPath><defs><filter id="aU" filterUnits="userSpaceOnUse" x="265.2" y="238.6" width="32.1" height="7.2"><feColorMatrix values="1 0 0 0 0 0 1 0 0 0 0 0 1 0 0 0 0 0 1 0"/></filter></defs><mask maskUnits="userSpaceOnUse" x="265.2" y="238.6" width="32.1" height="7.2" id="aX"><g filter="url(#aU)"><linearGradient id="aW" gradientUnits="userSpaceOnUse" x1="-250.885" y1="435.53" x2="-249.839" y2="435.53" gradientTransform="matrix(29.4268 0 0 -29.4268 7649.224 13058.42)"><stop offset="0"/><stop offset="1" stop-color="#fff"/></linearGradient><path clip-path="url(#aV)" fill="url(#aW)" d="M265.2 238.6h32.1v7.2h-32.1z"/></g></mask><linearGradient id="aY" gradientUnits="userSpaceOnUse" x1="-250.885" y1="435.53" x2="-249.839" y2="435.53" gradientTransform="matrix(29.4268 0 0 -29.4268 7649.224 13058.42)"><stop offset="0" stop-color="#c8007f"/><stop offset="1" stop-color="#b60065"/></linearGradient><path clip-path="url(#aV)" mask="url(#aX)" fill="url(#aY)" d="M265.2 238.6h32.1v7.2h-32.1z"/></g></g><g><defs><path id="aZ" d="M240.4 244.2H287v35.1h-46.6z"/></defs><clipPath id="ba"><use xlink:href="#aZ" overflow="visible"/></clipPath><path clip-path="url(#ba)" fill="#EDEDED" d="M286.9 248.6s-8.3 3.7-8.3 9.8c0 17.1 7.2 20.5 7.2 20.5s-21.2 1.1-28.1 0c-11-1.7-17.3-11.3-17.3-17.5-.1-11.8 9.9-17.2 9.9-17.2s4.1 2.9 6.1 3.5c6.8 2.1 30.5.9 30.5.9"/></g><g><defs><path id="bb" d="M131.9 207.8h81.3v67.4h-81.3z"/></defs><clipPath id="bc"><use xlink:href="#bb" overflow="visible"/></clipPath><path clip-path="url(#bc)" fill="#EDEDED" d="M198.2 222.1s2.7 7.3.2 12.5c-4.5 8.9-13.1 18.4-13.1 18.4s12-1.4 15.1.3c5.4 3 12.8 21 12.8 21s-40.3 1.6-53.3.5c-4.3-.4-7.3-2.7-7.7-5.1-1.1-5.6 8.3-15.8 10.3-21.1 1.4-3.8 7.8-13.3 5.4-16.6-5.2-7.2-36-.4-36-.4s17.9-9 23.1-11.9c4.8-2.8 17.6-12 17.6-12l25.6 14.4z"/></g><g><defs><path id="bd" d="M170.5 156.6h30.9v26.8h-30.9z"/></defs><clipPath id="be"><use xlink:href="#bd" overflow="visible"/></clipPath><path clip-path="url(#be)" fill="#EDEDED" d="M201.4 177.7s-7.7-.5-14.3-4.6c-3.9-2.4-16.6-16.5-16.6-16.5s6.8 13.1 13 19.2c3 2.9 13.9 7.6 13.9 7.6l4-5.7z"/></g><g><defs><path id="bf" d="M1.4 222.2h64.8v53.7H1.4z"/></defs><clipPath id="bg"><use xlink:href="#bf" overflow="visible"/></clipPath><path clip-path="url(#bg)" fill="#EDEDED" d="M57.3 243.9s1.6-10.7-.6-12.9c-2.1-2.1-7-3.1-9.2-1.2-3.8 3.3-4.6 15.7-4.2 20.7.3 4.1.8 12.2 2.4 16 .6 1.3 3.1 5.5 3.1 5.5s-20.1 4.4-27.2 3.9c-5.3-.4-18-.4-19.8-5.3-2.3-6.1 9.4-17.3 13.7-22.1 6-6.7 20.3-19.8 28.5-23.6 3.3-1.5 9.9-3.4 13.4-2.4 4.7 1.4 8.9 9.4 8.9 9.4l-9 12z"/></g><g><defs><path id="bh" d="M52 167.9h49.8V223H52z"/></defs><clipPath id="bi"><use xlink:href="#bh" overflow="visible"/></clipPath><path clip-path="url(#bi)" fill="#EDEDED" d="M58.3 219.3c-3.6-3.5-6.9-9.7-6.2-20.4 1.2-17.6 10.7-23.4 10.7-23.4l1.9 12.3s11.6-16.4 17.6-18.7c9.8-3.6 17.7 1.5 19.4 6.3 1.8 5-11.5 17.8-11.5 17.8s.4-7-2.6-7.7c-4.3-1-10.2 4-10.6 8.4-.8 9.7 7.3 16.9 7.3 16.9L73.6 223s-12.5-1.1-15.3-3.7"/></g><g><defs><path id="bj" d="M211.8 148.9h52.1v21.3h-52.1z"/></defs><clipPath id="bk"><use xlink:href="#bj" overflow="visible"/></clipPath><path clip-path="url(#bk)" fill="#EDEDED" d="M215.4 148.9s11 10.4 15.6 11.9c7.8 2.5 32.8.5 32.8.5s-10.8 3.1-14.4 4.9c-5.7 2.8-15.8 4.6-21 3.9-4.5-.6-16.7-7.4-16.7-7.4l3.7-13.8z"/></g><g><defs><path id="bl" d="M283.3 138.3h19.5v18.6h-19.5z"/></defs><clipPath id="bm"><use xlink:href="#bl" overflow="visible"/></clipPath><path clip-path="url(#bm)" fill="#EDEDED" d="M301.3 145.5c-2.5-.3-7.6-1.2-9.7-2.6-1.3-.8-3.9-4.7-3.9-4.7l-1.4 10.6-3.1 8s8.2-2 10.8-3.1c2-.9 5.9-3.2 7.3-4.9.6-.7 1.4-3.3 1.4-3.3s-1 .1-1.4 0"/></g><g><defs><path id="bn" d="M283.9 118.3h13.5v8.2h-13.5z"/></defs><clipPath id="bo"><use xlink:href="#bn" overflow="visible"/></clipPath><path clip-path="url(#bo)" fill="#EDEDED" d="M297.4 118.3s-5.3 2.2-7.1 2.5c-1.6.3-6.3 0-6.3 0l2.6 5.7s5-2.9 6.5-4.1c1.1-1 4.3-4.1 4.3-4.1"/></g></g><g><defs><path id="bp" d="M72.4 168.7c.1-.1 12.9-9.3 26.7-9.3 7 0 11.7 1.3 14.3 4.1 1.8 1.9 2.6 4.7 2.4 8.4-8.1 11.5-17.3 22.1-21.7 26.6-6.6 6.8-13.8 15.2-20.2 23-2.3.2-16.8 1.2-24.2-11.8-7.1-12.6-.3-25.8 2-29.6 6.5-10.8 17.7-16 22.5-17.8l-3 5.2c-.2.4-.1.8.2 1.1.2.2.4.2.6.2 0 .1.2 0 .4-.1m-14.3 75.6c.2-.3 20.7-27.7 37.2-44.6 4.4-4.6 13.9-15.5 22.1-27.2 6.1-8.7 11.6-17.9 13.8-25.2.8-2.6 1.6-7.7 2.5-14.9 1.6-.7 3.2-1.4 4.7-2.1-1.4 2.2-2.4 5.6-1.9 10.6 2.1 20.9 12.3 43.3 18.9 51.5 4.8 6 10.7 11.2 16.5 15.5-13.3 9.8-26.7 16.1-26.8 16.2-.4.2-.6.7-.4 1.2.2.3.5.5.8.5.1 0 .3 0 .4-.1.1-.1 14-6.6 27.6-16.7 11.8 8.5 23 13.3 24.7 14.1.9 1.2 5.1 7.3 8.2 11.3-6.8 9.1-10.8 13.6-11.7 14.6-7.5 2-13.4 4.5-13.8 4.7-.5.2-.7.7-.5 1.2.2.5.7.7 1.2.5.2-.1 24.9-10.3 38.9-6.6 12 3.2 13 21.9 13 22.1-.1.6-.3 2.5-1.2 2.6-2.7.3-6.4.6-10.9.8 0-1.9-.2-6.3-.8-9.7-1-5.3-4-9.4-4.1-9.6-.3-.4-.8-.5-1.2-.2-.4.3-.5.8-.2 1.2 0 0 2.9 3.9 3.8 8.8.6 3.2.8 7.6.8 9.4-19.4.8-49.8.7-59.3-.3-6.4-.6-7-3-6.8-5 .1-1 2.8-5.8 5.3-10.5 3.8-6.8 8.5-15.2 10.9-21.6.8-2 .6-3.8-.6-5.2-5.7-6.8-33.7-1.7-36.8-1.1-.1 0-.1 0-.2.1-.1 0-.1.1-.2.1-.1.1-13.2 11-25.3 20-22.6 16.6-38.3 24.7-48.1 24.7-3.4 0-6.2-1.2-8.3-3.7-7.8-8.9-5-30.8-5-31 .1-.5-.3-.9-.8-1-.5-.1-.9.3-1 .8-.1.4-.6 4.9-.5 10.6-.7-.4-1.6-.8-2.8-1.1-3.2-.9-5.9-.5-6-.5-.5.1-.8.5-.8 1 .1.5.5.8 1 .8 0 0 2.4-.3 5.3.5 1.7.4 2.8 1.1 3.3 1.5.3 6.9 1.6 14.9 5.9 19.8l.5.5c-.8.5-2.7 1.3-6.3 1.3H28.5c.2-2.3.8-8.2.4-11.8-.5-5.6-1.7-9.2-1.7-9.4-.1-.5-.6-.7-1.1-.6-.5.1-.7.6-.6 1.1 0 0 1.1 3.6 1.6 9 .3 3.4-.2 9.4-.4 11.6-11.1 0-22-.4-22.9-3.2-1.3-4.2-.3-7.3 3.8-12 8.4-9.5 14.2-15.4 22.2-22.4 8.8-7.8 16.2-13.7 25.1-13.7 6.9 0 9.9 7.4 10.6 9.3-4.9 6.2-8.1 10.6-8.2 10.7-.3.4-.2.9.2 1.2.2.1.3.2.5.2-.3-.2-.1-.3.1-.6m238.1-114.9c4.8-.9 8.9-.9 9.9 0s1.6 3.1 1.5 5.5c-.1 2.6-1 6.1-3.3 8-4.5 3.8-13.6 2.8-16.4 2.4.5-3.1 1-7.5.7-12.5-.1-1.1-.3-2.2-.6-3.4 1 .1 2.5.2 4.1.2 1.5.1 2.9 0 4.1-.2m-77.9 112.7c-2.7-.6-5.2-2.5-8.5-6.2-2.9-3.3-10.4-14.1-10.5-14.2l-.1-.1-.1-.1-.1-.1h-.1c-.3-.1-26.6-10.9-42.2-30.2-5.4-6.6-16.3-28.3-18.5-50.5-.8-8 2.6-11.2 4.5-12.3 1-.4 2-.9 2.9-1.3 9-2.4 14 1.4 25.8 12.7 4.5 4.3 9.5 10.4 14 15.8 3.4 4 6.5 7.9 9.1 10.5 3.1 3.2 6 4.8 8.8 4.9-1.6 3.8-3.7 7.7-6.3 11.5-5.6-2.7-11.2-5.7-13.6-7.8-5.1-4.3-16.7-26.7-16.8-26.9-.2-.4-.8-.6-1.2-.4-.4.2-.6.8-.4 1.2.5.9 11.9 22.9 17.2 27.4 5.7 4.9 27.5 14.4 29.9 14.8 1.7.3 3.7-.5 5.4-1.1.6-.2 1.2-.5 1.6-.5 1.6-.4 8-2.7 8.3-2.8.1 0 .2-.1.2-.1 1.4-1.1 5.7-4.1 7.9-4.5.9-.2 2.6.7 4.1 2.5 1 1.2 3.2 4.6 1.5 9-1.3 3.2-6.5 6.9-8 7.9-2.5-1.6-5-3.2-5.1-3.3-.4-.3-1-.2-1.2.3-.3.4-.2 1 .3 1.2.3.2 7.7 5 10 6.3 1.7.9 3.3 1.5 5 2.1 2 .7 3.8 1.4 5.2 2.5 2.2 1.7 2.5 6.4 2.2 8.9-.3 2.2-2.2 7.1-5 8.9-2 1.3-8-1.2-11.2-3-4.7-2.6-10.6-8.2-10.6-8.3-.4-.3-.9-.3-1.3 0-.3.4-.3.9 0 1.3.2.2 6.1 5.8 11 8.5.5.3 3.5 2 6.7 2.9 0 1.5-.2 6.1-2.6 9.1-1.8 2.3-4.2 3.8-5.7 3.5-2.7-.4-7-3-11-6.7-2.6-2.4-7.6-9.3-7.7-9.4-.3-.4-.8-.5-1.2-.2-.4.3-.5.8-.2 1.2.2.3 5.1 7.1 7.9 9.7 1.6 1.5 3.5 3 5.5 4.3-.6.5-1.9 1.3-3.8 1.3-.7 0-1.3 0-2-.2m-22.4-77.4c-2.5-2.6-5.7-6.4-9-10.4-4.5-5.4-9.6-11.6-14.2-15.9-9.5-9-15-13.5-21.6-13.8 5.9-2.6 10.2-4.4 11.7-4.9 6.6-1.9 13.9.6 14.6.8 16.4 10 32.9 19.9 33.2 20 .1.1.3.1.5.1.3 0 .6-.2.8-.4.3-.4.1-1-.3-1.2-.1 0-1.6-1-4.2-2.5-.1-.9-.1-1.6.1-2 .2-.5.4-.9.6-1.3.5.2.9.3 1.3.4.8.2 1.5.2 2.3.2.5 0 1-.1 1.5-.1.4.4 3.5 3 2.9 7.5-.7 5.1-2.1 10.1-3.2 14.1-.5 2-1 3.7-1.3 5-.5 2.5-2.5 7.4-6.2 8.5-.5.1-1 .2-1.5.2-2.5.1-5.2-1.3-8-4.3m11.3-44.9c-.5-1.2-1.1-2.7-1.8-4.5 1.5.7 3.9 2.1 5.6 5.2 1.7 3.1 2.1 5.9 2.2 6.6-.2.1-.5.1-.7.1-1.6 0-3-2-5.3-7.4m58.6 29.7c.1 0 9.3-2.8 9.3-13.9 0-4-1-10.7-1.2-12 .3-.9 1.5-4.3 2-8.6 2.9-4.4 8.2-11.3 10.3-11.8 4.2-1.1 7.4 0 9.7 3.3 2.2 3.1 2.2 8.7 1 10.7-2 3.3-7.9 6.8-10.2 8-1.1-3-2.3-5.4-2.4-5.6-.2-.4-.8-.6-1.2-.4-.4.2-.6.8-.4 1.2 0 .1 3.8 7.6 4.1 12.5.6 9.3-1.6 16.4-1.6 16.5-.1.5.1 1 .6 1.1h.3c.4 0 .7-.2.8-.6 0-.1.4-1.1.7-2.9 1.2.2 3.4.4 5.9.4 2.6 0 5.5-.3 8.1-1.2-.3.6-.6 1.3-.9 1.9-1.9 3.2-8.7 4.9-12.3 5.8-1.4.4-2.3.6-2.8.8l-.6.3c-6.3 3.1-10 5-19.8 5.2-4.1.1-12 2.8-17.4 5.1-6.2 2.6-14.6 3.5-17.4 3.5-6.3 0-15.3-5.6-17.6-7.1.1-.4.2-.9.3-1.2.3-1.3.7-2.9 1.3-4.9 1.1-4 2.5-9.1 3.2-14.3.6-4.1-1.3-6.9-2.6-8.2.4-.2.8-.3 1.2-.5l.1.1c.3.2 7.9 5.1 11.8 5 5.2-.2 16.3-4.8 20.8-8 2.3-1.7 3.6-3.3 5-5.2.3-.4.6-.8 1-1.2.5-.6 1.1-1.3 1.6-1.9 1.2-1.4 2.4-2.7 2.9-4 .5-1.2.8-2.9 1.1-4.7.4-2.5.9-5.3 2.1-6.6 2-2.2 7.1-1.9 9.7-.1 1.8 1.3 2.1 5.2 1.8 8.5-.5 4.8-2 8.5-2 8.5-.1.1-.1.3-.1.5 0 .1 1.1 7.7 1.2 12 .1 9.6-7.7 12-8 12.1-.5.1-.7.6-.6 1.1.1.4.5.6.9.6.2.3.2.3.3.2m-199.3 6.2c-9.7-1-11-7.8-13.3-20.1-.3-1.6-.6-3.3-1-5.1l-.3-1.7c-2.4-12-4.1-20.6 1.9-26 3.1-2.8 10.3-4.4 23.4-5 3.5-.2 6.9-.4 10.1-.5 15.2-.8 27.2-1.5 35.8-1.1 7.1.3 14.2 2.8 14.2 2.8.1 0 10.4 3.5 21.3 10.3 4.1 2.6 8.9 5.5 13.8 8.5-2.9-.4-6.6-.6-10.1.5-2.1.6-9 3.7-18.8 8-.2.1-.7.2-1.4.6l-.6.3c-8.6 3.8-19.3 8.6-29.2 12.8l-1.9.8c-23.5 10.1-38 15.2-43.3 15.2-.2-.3-.4-.3-.6-.3m8-63.5c-.2-5.1-.3-8.8-.1-13.3.4-7.1 4-10.7 10.6-10.7 6.3 0 27.7 7.8 46 16.7.4 1.5.9 3 1.5 4.4 1 2.7 2.3 5.3 3.3 7.1-2.7-.8-7.6-2-12.6-2.2-8.7-.3-20.8.3-36 1.1-3.2.2-6.6.4-10.1.5-.8 0-1.6.1-2.4.1-.1-1.3-.2-2.5-.2-3.7m131.7-54.4c-5.5-3.4-8.9-5.4-13.1-7 .2-1.3.3-2.7.5-4.2.9-1 5.2-5.3 11.2-9.6 3.7-2.7 10.1-6.3 12-5.4.1.1.4.2.4.9.2 3.2-6.1 19.4-9.1 26.6-.7-.5-1.3-.9-1.9-1.3m-59.9 33.1c.5-.1.7-.6.6-1.1-2.3-7.8 2.9-25.2 8.7-33.5 13.1-18.7 24.1-30 32.9-33.4 1.2-.5 3-.9 4.2.1 1.1.9 1.6 2.8 1.3 5.4-1.4 12.4-3.6 29.6-3.7 29.8-.1.5.3.9.8 1 .5.1.9-.3 1-.8 0-.1.3-2.3.7-5.8 3.9 1.5 7.2 3.4 12.4 6.7 6 3.7 14.3 11.1 17.3 16.5 1.5 2.6 1 11 .6 15.1-.6 5.7-1.2 13.6-1.2 13.7V84.9c0 .1 0 .1.1.2 0 .1 0 .1.1.1l.1.1s0 .1.1.1l5.6 3.8c-1.4 1.7-4.1 5.8-3 12 1.4 7.7 6.8 11.1 9.2 12.2-1.6 1.9-6 6.5-12.7 5.1-12-2.5-20-16.2-20.9-17.8v-.1c-.2-.4-.5-.6-.9-.5h-.2s-.5.1-1.6-.2c-.1 0-.3-.3-.4-.6-.2-.5-.7-.7-1.1-.5-.5.2-.7.7-.5 1.1.1.2.6 1.4 1.6 1.7.8.2 1.3.3 1.8.3.6 1.9 2.4 7.2 4.1 12 0 .1 0 .1.1.2.9 2.4 1.7 4.7 2.4 6.2 2.1 4.9 3.9 8.5 6.9 8.5.5 0 1-.1 1.6-.3.2-.1.6-.2.8-1 .1-.2.2-.3.1-.5.3-1.3.4-3.9.1-8.9.7.4 1.4.7 2.2 1 .5 3.3.9 8.6.2 10-1.2 2.3-4.5 3.5-7.8 2.8-3.1-.6-9.1-5.7-11.2-7.6-.4-.3-.9-.3-1.3.1-.3.4-.3.9.1 1.3.3.2 5.1 4.6 9.1 6.8-.2.4-.4.9-.6 1.4-.2.4-.2.9-.3 1.5-10.3-6.2-31.7-19.1-45.8-27.9-10-6.2-19.5-9.7-21.4-10.4-.6-1-2.7-4.8-4.1-8.5-3.6-9.6-4.1-18.8-3.3-21.1 1.2-3.7 6.9-14 12-20.2 3.6-4.4 7.3-7.8 10.1-10.2-5.6 9.2-10.1 25.3-7.7 33.1.1.4.5.6.9.6-.2.1-.2.1-.1.1m41.6-69.6c-8.6 3.4-19.3 13.9-31.7 31.2-1.1.7-8.1 5.6-14.7 13.7-5.3 6.5-11 16.9-12.3 20.8-.8 2.3-.5 8.5 1.3 15.6-18.2-8.7-39.1-16.2-45.5-16.2-7.6 0-11.9 4.3-12.4 12.4-.3 4.6-.1 8.3.1 13.5 0 1.2.1 2.5.1 3.8-11 .8-17.2 2.4-20.2 5.2-6.7 6.1-4.9 15.2-2.4 27.7l.3 1.7c.4 1.8.7 3.5 1 5.1 2.4 12.8 3.8 20.5 14.9 21.6h.7c8.4 0 35.1-11.5 44.1-15.3l1.8-.8c6.2-2.6 12.7-5.5 18.8-8.2-.8 6.5-1.5 11.2-2.3 13.6-2 6.6-6.7 14.6-12.1 22.5-.2-2.9-1.2-5.3-2.9-7.1-2.9-3.1-8-4.6-15.6-4.6-10.3 0-19.8 4.8-24.5 7.6l2.4-4.1c.2-.3.2-.7-.1-1-.2-.3-.6-.4-.9-.3-.7.2-17 4.8-25.7 19.3-2.4 4-9.6 17.9-2 31.3 6.4 11.3 18 12.8 23.4 12.8h.8c-2.2 2.7-4.3 5.3-6.1 7.7-1.2-3-4.7-9.4-11.9-9.4-9.5 0-17.2 6.1-26.3 14.1-8 7.1-13.8 13-22.3 22.6-4.6 5.2-5.7 8.9-4.2 13.8 1.2 3.8 10.3 4.4 25.3 4.4H42.6c4.3 0 6.5-1.1 7.5-1.9 2.2 1.7 4.8 2.6 7.8 2.6 10.3 0 26-7.9 49.2-25 11.4-8.4 23.6-18.5 25.2-19.9 8.5-1.6 30.7-4.5 34.9.5.7.9.8 2 .3 3.4-2.4 6.3-7 14.6-10.8 21.4-3.6 6.4-5.4 9.8-5.5 11.2-.4 4 2.4 6.3 8.4 6.9 5.3.5 17 .8 29.7.8 16.5 0 34.7-.5 42.7-1.4.9-.1 2.4-.8 2.8-4.2 0-.2-.7-20.4-14.3-24-6.7-1.8-15.5-.6-23.1 1.3 1.9-2.2 5.2-6.3 9.8-12.4.4.5.8 1 1.1 1.3 3.6 4 6.4 6.1 9.5 6.8.8.2 1.6.3 2.2.3 2.9 0 4.6-1.4 5.3-2.1 1.7 1 3.4 1.7 4.9 1.9h.6c2.2 0 4.8-1.6 6.8-4.2 2.5-3.2 2.9-7.8 3-9.8.7.1 1.4.2 2.1.2.9 0 1.8-.2 2.5-.6 3.6-2.2 5.6-7.8 5.9-10.2.3-2.6.1-8.2-2.9-10.5-1.6-1.3-3.6-2-5.7-2.8-1.6-.6-3.2-1.2-4.7-2-.7-.4-1.8-1.1-3.1-1.9 2.2-1.5 6.7-5 8-8.3 2.1-5.3-.5-9.3-1.7-10.8-1.8-2.2-4.1-3.4-5.8-3.1-2.9.5-7.7 4.1-8.5 4.8-1.9.7-6.8 2.4-8 2.7-.5.1-1.1.3-1.9.6-1.4.5-3.2 1.2-4.4 1-.9-.2-7.2-2.7-13.8-5.9 2.8-4.1 5.1-8.3 6.7-12.4.1 0 .3 0 .4-.1 3.3-1 5.4-4.1 6.5-6.9 2.9 1.9 11.7 7.2 18.2 7.2 3.1 0 11.6-.9 18.1-3.7 5.7-2.4 13.2-4.9 16.8-5 10.2-.2 14.3-2.3 20.6-5.4l.6-.3c.3-.2 1.3-.4 2.4-.7 4.1-1.1 11-2.8 13.3-6.6.8-1.4 1.4-3.1 1.7-3.9.5-.3 1.1-.7 1.5-1.1 2.3-2 3.8-5.5 3.9-9.4.1-3-.7-5.6-2.1-6.9-2-1.9-8-1.1-11.4-.5-2.8.5-6.8.2-8.3 0-.1-.2-.1-.5-.2-.7 2.2-1.2 8.8-5 11.1-8.8 1.5-2.4 1.7-8.8-1.1-12.7-2.8-3.9-6.7-5.3-11.6-4-2.6.7-7.2 6.6-9.8 10.2-.1-2.5-.6-5.5-2.6-7-3.3-2.3-9.4-2.7-12.1.3-1.5 1.7-2 4.6-2.5 7.5-.3 1.7-.6 3.2-1 4.3-.4 1-1.5 2.2-2.6 3.5-.6.6-1.1 1.3-1.7 1.9-.3.4-.7.8-1 1.2-1.4 1.8-2.6 3.3-4.7 4.9-4.2 3-14.9 7.5-19.8 7.7-2.6.1-8-3-10.4-4.4.5-.5.9-1 1.3-1.7 1-1.9.5-7.3.1-10.1.6.2 1.2.3 1.8.5 1 .2 1.9.3 2.8.3 7.2 0 11.6-5.9 12.3-6.9.8-.5 4.2-3.2 6.9-9 1.9-4.1 1.3-7.6-1.9-10.5-2-1.8-4-2.7-7.6-4.3-1.1-.5-2.3-1-3.8-1.7l-6-4.1c.1-1.8.7-8.3 1.2-13.1.2-2.1 1.2-12.6-.8-16.2-2.6-4.7-9-10.7-14.6-14.8 1.8-4.3 9.6-23.6 9.4-27.7-.1-1.5-.8-2.1-1.4-2.4-3.6-1.7-12.8 4.8-13.8 5.6-4.4 3.2-7.8 6.3-9.8 8.2.6-4.9 1.3-10.4 1.8-15.1.5-4.2-.8-6.1-2-7-.6-.5-1.6-.9-2.9-.9-.5.3-1.5.5-2.6 1"/></defs><clipPath id="bq"><use xlink:href="#bp" overflow="visible"/></clipPath><linearGradient id="br" gradientUnits="userSpaceOnUse" x1="-258.213" y1="438.502" x2="-257.167" y2="438.502" gradientTransform="scale(-368.4025 368.4025) rotate(52.943 310.896 477.688)"><stop offset="0" stop-color="#585857"/><stop offset=".012" stop-color="#585857"/><stop offset=".292" stop-color="#5d5c5c"/><stop offset=".603" stop-color="#6a6a69"/><stop offset=".928" stop-color="#807f7f"/><stop offset="1" stop-color="#868585"/></linearGradient><path clip-path="url(#bq)" fill="url(#br)" d="M442.5 101L197.1 426-133 176.7l245.4-324.9z"/></g><g><defs><path id="bs" d="M309.8 247.3c1-.5 1.7-1.1 2.1-1.8 7.6 3.8 9.2 10.3 9.2 15.1 0 11.8-9.1 18.2-25.5 18.2H267c-16.5 0-25.5-6.5-25.5-18.2 0-4.8 1.6-11.2 9.2-15.1.4.7 1.2 1.3 2.3 1.9 3.8 2 11.5 2.1 20.4 2.1h14.7c9.7 0 17.8-.1 21.7-2.2m-55.9-1.5c-1.1-.6-1.8-1.2-1.8-1.7 0-2.1 9.7-5.1 25-5.1h8.5c1.6 0 3.3 0 4.9.1.7 2.3 1 3.2 1.5 3.6.9.8 2.7 1.2 5.4 1.2 1.6 0 6.9-.1 6.9-1.9 0-.3-.1-.7-.2-1.2 5.2 1.3 6.6 2.7 6.6 3.3 0 .4-.6 1-1.6 1.6-3.6 2-12.2 2-22.1 2H273.5c-8.8 0-16.2-.1-19.6-1.9m1.1-22c0-2.6.9-4 1.2-4h29c8.2.6 10.7 6 13.1 11.2.2.5.5 1.1.7 1.6.5 1.1 2.8 7.1 3.2 9.1-.8.2-2.8.6-5 .6-2.4 0-3.8-.4-4.1-.7-.2-.3-.7-1.8-1-3-.8-2.7-2-6.3-3.4-8.4-1.5-2.2-4.7-2.3-5.4-2.3h-27.1c-.3-.1-1.2-1.5-1.2-4.1m1.2-5.8c-2 0-3 2.9-3 5.8s1 5.8 3 5.8h27.1c1.1 0 3.1.3 3.9 1.6 1 1.5 1.9 4 2.6 6.2-1.4-.1-2.9-.1-4.3-.1H277c-12.5 0-25.8 2.3-26.7 6.5-7 3.3-10.7 9.2-10.7 16.9 0 12.7 10 20 27.3 20h28.6c17.4 0 27.3-7.3 27.3-20 0-7.7-3.7-13.5-10.7-16.9-.4-2-3.4-3.6-8.9-4.8-1-2.9-2.5-6.7-2.7-7.1-.2-.5-.5-1-.7-1.6-2.5-5.4-5.3-11.5-14.6-12.2h-29z"/></defs><clipPath id="bt"><use xlink:href="#bs" overflow="visible"/></clipPath><linearGradient id="bu" gradientUnits="userSpaceOnUse" x1="-258.213" y1="438.569" x2="-257.167" y2="438.569" gradientTransform="scale(-368.4006 368.4006) rotate(52.943 310.506 477.494)"><stop offset="0" stop-color="#585857"/><stop offset=".012" stop-color="#585857"/><stop offset=".292" stop-color="#5d5c5c"/><stop offset=".603" stop-color="#6a6a69"/><stop offset=".928" stop-color="#807f7f"/><stop offset="1" stop-color="#868585"/></linearGradient><path clip-path="url(#bt)" fill="url(#bu)" d="M353.1 240.7l-60.4 79.9-83.1-62.7 60.3-80z"/></g><g><defs><path id="bv" d="M253.9 245.8c-1.1-.6-1.8-1.2-1.8-1.7 0-2.1 9.7-5.1 25-5.1h8.5c1.6 0 3.3 0 4.9.1.7 2.3 1 3.2 1.5 3.6.9.8 2.7 1.2 5.4 1.2 1.6 0 6.9-.1 6.9-1.9 0-.3-.1-.7-.2-1.2 5.2 1.3 6.6 2.7 6.6 3.3 0 .4-.6 1-1.6 1.6-3.6 2-12.2 2-22.1 2H273.4c-8.8 0-16.1-.1-19.5-1.9m1.1-22c0-2.6.9-4 1.2-4h29c8.2.6 10.7 6 13.1 11.2.2.5.5 1.1.7 1.6.5 1.1 2.8 7.1 3.2 9.1-.8.2-2.8.6-5 .6-2.4 0-3.8-.4-4.1-.7-.2-.3-.7-1.8-1-3-.1-.2-.1-.4-.2-.5-.8-2.6-1.9-5.9-3.2-7.8-1.5-2.2-4.7-2.3-5.4-2.3h-27.1c-.3-.2-1.2-1.6-1.2-4.2m1.2-5.8c-2 0-3 2.9-3 5.8s1 5.8 3 5.8h27.1c1.1 0 3.1.3 3.9 1.6 1 1.5 1.9 4 2.6 6.2-1.4-.1-2.9-.1-4.3-.1H277c-13 0-26.8 2.4-26.8 6.9 0 1.2.9 2.3 2.7 3.2 3.8 2 11.5 2.1 20.4 2.1h13.4c10.2 0 19 0 23-2.2 1.7-.9 2.5-2 2.5-3.1 0-2.2-3-4-9-5.3-1-2.9-2.5-6.7-2.7-7.1-.2-.5-.5-1-.7-1.6-2.5-5.4-5.3-11.5-14.6-12.2h-29z"/></defs><clipPath id="bw"><use xlink:href="#bv" overflow="visible"/></clipPath><linearGradient id="bx" gradientUnits="userSpaceOnUse" x1="-254.482" y1="436.782" x2="-253.436" y2="436.782" gradientTransform="matrix(59.3076 0 0 -59.3076 15343.004 26138.256)"><stop offset="0" stop-color="#b20a63"/><stop offset="1" stop-color="#c7006d"/></linearGradient><path clip-path="url(#bw)" fill="url(#bx)" d="M250.3 218h62v31.5h-62z"/></g><g><defs><path id="by" d="M66.5 155.7c-9.7-1-11-7.8-13.3-20.1-.3-1.6-.6-3.3-1-5.1l-.3-1.7c-2.4-12-4.1-20.6 1.9-26.1 3.1-2.8 10.3-4.4 23.4-5 3.5-.2 6.9-.4 10.1-.5 15.2-.8 27.2-1.5 35.8-1.1 7.1.3 14.2 2.8 14.2 2.8.1 0 10.4 3.5 21.3 10.3 4.1 2.6 8.9 5.5 13.8 8.5-2.9-.4-6.6-.6-10.1.5-2.2.6-10 4.1-20.8 8.9-8.6 3.8-19.3 8.6-29.2 12.8l-1.9.8c-23.5 10.1-38 15.2-43.3 15.2-.2-.2-.4-.2-.6-.2M85 66.4c-7.6 0-11.9 4.3-12.4 12.4-.3 4.6-.1 8.3.1 13.5 0 1.2.1 2.5.1 3.8-11 .8-17.2 2.4-20.2 5.2-6.7 6.1-4.9 15.2-2.4 27.7l.3 1.7c.4 1.8.7 3.5 1 5.1 2.4 12.8 3.8 20.5 14.9 21.6h.7c8.4 0 35.1-11.5 44.1-15.3l1.8-.8c10-4.2 20.7-9 29.3-12.8 1.2-.5 2.3-1 3.4-1.5 9-2.4 14 1.4 25.8 12.7 4.5 4.3 9.5 10.4 14 15.8 3.4 4 6.5 7.9 9.1 10.5 3.2 3.3 6.3 5 9.1 5 .7 0 1.4-.1 2-.3 4.6-1.3 6.9-7 7.5-9.9.3-1.3.7-2.9 1.3-4.9 1.1-4 2.5-9.1 3.2-14.3.6-4.1-1.3-6.9-2.6-8.2 0 0-.3.1-1.1.3-.7.2-1 .2-1 .2s3.6 2.7 2.9 7.5c-.7 5.1-2.1 10.1-3.2 14.1-.5 2-1 3.7-1.3 5-.5 2.5-2.5 7.4-6.2 8.5-2.7.8-5.9-.6-9.4-4.2-2.5-2.6-5.7-6.4-9-10.4-4.5-5.4-9.6-11.6-14.2-15.9-9.5-9-15-13.5-21.6-13.8 5.9-2.6 10.2-4.4 11.7-4.9 6.6-1.9 13.9.6 14.6.8 16.4 10 32.9 19.9 33.2 20 .1.1.3.1.5.1.3 0 .6-.2.8-.4.3-.4.1-1-.3-1.2-.3-.2-32.8-19.6-51.8-31.5-10.9-6.8-21.3-10.4-21.7-10.5-.3-.1-7.4-2.6-14.8-2.9-8.7-.3-20.8.3-36 1.1-3.2.2-6.6.4-10.1.5-.8 0-1.6.1-2.4.1 0-1.3-.1-2.6-.1-3.8-.2-5.1-.3-8.8-.1-13.3.4-7.1 4-10.7 10.6-10.7 6.3 0 27.7 7.8 46 16.7 0 0-.2-.4-.4-1.1-.1-.5-.3-1.1-.3-1.1-18.1-8.7-39-16.2-45.4-16.2z"/></defs><clipPath id="bz"><use xlink:href="#by" overflow="visible"/></clipPath><linearGradient id="bA" gradientUnits="userSpaceOnUse" x1="-256.77" y1="437.587" x2="-255.724" y2="437.587" gradientTransform="matrix(162.3813 0 0 -162.3813 41742.574 71174.563)"><stop offset="0" stop-color="#0064a2"/><stop offset=".012" stop-color="#0064a2"/><stop offset=".529" stop-color="#0066a4"/><stop offset=".775" stop-color="#006bac"/><stop offset=".964" stop-color="#0075b9"/><stop offset="1" stop-color="#0077bc"/></linearGradient><path clip-path="url(#bz)" fill="url(#bA)" d="M45.9 66.4h172.4v104.5H45.9z"/></g><g><defs><path id="bB" d="M229.9 91.2c-.1 0-.2 0-.3.1-.7.2-1.5.5-2 1.5-.6 1-.7 2.5-.2 3.5.9 1.8 8.5 5.6 10.7 5.3 1.2-.2 2.4-1 3-2.1.6-.9.5-1.8.3-2.4 0-.1-.1-.2-.1-.2-1-2.2-7.9-5.7-10.9-5.7h-.5"/></defs><clipPath id="bC"><use xlink:href="#bB" overflow="visible"/></clipPath><linearGradient id="bD" gradientUnits="userSpaceOnUse" x1="-272.796" y1="439.902" x2="-271.749" y2="439.902" gradientTransform="matrix(-12.9243 -6.4205 8.9175 -15.0303 -7207.634 4960.186)"><stop offset="0" stop-color="#585857"/><stop offset=".376" stop-color="#7c7b7b"/><stop offset=".692" stop-color="#939392"/><stop offset=".89" stop-color="#9c9b9b"/><stop offset="1" stop-color="#9c9b9b"/></linearGradient><path clip-path="url(#bC)" fill="url(#bD)" d="M246.5 93.6l-16.3-8.1-8.2 13.9 16.3 8.1z"/></g><g><path fill="#FFF" d="M235.3 93.8s.3.6-.1 1.3c-.3.5-.9 1-1.5 1.1-1 .2-4.9-1.3-5.3-2-.2-.5-.3-1 .2-1.7.3-.5.6-.6 1.1-.8 1.4-.5 5.1 1 5.6 2.1M95.7 122.2c.6 9.1-6.3 17-15.4 17.6-9.1.6-17-6.3-17.6-15.4-.6-9.1 6.3-17 15.5-17.6 9-.6 16.9 6.3 17.5 15.4"/><path fill="#C6C6C5" d="M78 104.2c-10.5.7-18.5 9.8-17.8 20.3.7 10.5 9.8 18.5 20.3 17.8 10.5-.7 18.5-9.8 17.8-20.3-.7-10.5-9.8-18.4-20.3-17.8m2.3 35.6c-9.1.6-17-6.3-17.6-15.5-.6-9.1 6.3-17 15.5-17.6 9.1-.6 17 6.3 17.6 15.5.5 9.2-6.4 17-15.5 17.6"/><path fill="#0080C8" d="M76.6 118.6l2.8-1.1v.2l-2.8 1.1v-.2zm-1-6l.7-.3-.2-.2-.6.2.1.3zm0-1l-.2-.2v.2h.2zm.7 5.4l3.1-1.2v-.2l-3.1 1.2v.2zm-.4-2.6l1.8-.7-.2-.2-1.7.7.1.2zm.3 1.7l2.9-1.2-.2-.2-2.8 1.1.1.3zm-.4-2.6l1.2-.5-.2-.2-1.1.5.1.2zm.7 4.4l2.9-1.2v-.2l-2.9 1.2v.2zm-.5-2.7l2.4-.9-.2-.2-2.2.9v.2zM70.8 116.9l-.8.8v-.3l.7-.7.1.2zm-.5-2.3l-.1.2v.3l.2-.2-.1-.3zm.2 1l-.4.4v.3l.5-.5-.1-.2zm.7 3.1L70 120v.3l1.3-1.4-.1-.2zm-.1 5.5l1.2-1.3-.1-.2-1.4 1.4.3.1zm.9-2.2l-.1-.2-1.9 2 .2.1L72 122zm0 2.6l.7-.7-.1-.2-.8.8.2.1zm-.6-4.8l-1.5 1.6v.3l1.6-1.6-.1-.3zm-.4-2.1l-1 1v.3l1-1.1v-.2zm1.8 7.2l.1-.1-.1-.2-.2.2.2.1zm-1.1-4.1l-1.8 1.8v.3l1.8-1.9v-.2zM86.6 118.4l-1.3.9v-.3l1.4-1-.1.4zm-1.3-5.8l-.3.2v.3l.4-.3-.1-.2zm1.3 1.2l-1.5 1.1v.3l1.7-1.2-.2-.2zm-.7-.6l-.9.6v.3l1-.8-.1-.1zm0 8.7l-.5.3v.3l.4-.3.1-.3zm1.5-7.4l-2.2 1.4v.3l2.2-1.6v-.1zm-.5 2.4l-1.7 1.2v.3l1.6-1.1.1-.4zm-.5 2.5l-1.1.8v.3l1-.7.1-.4zm-.3 1.3l-.8.6v.3l.7-.5.1-.4zm1-5.1l-2 1.4v.3l1.9-1.4.1-.3z"/><path fill="#E5007E" d="M81.3 119.6l-1.4-8.8-.3 7.3zM81.8 125.8l-2.4 1.6-6-2.3z"/><path fill="#0080C8" d="M82 125.5l3.3-6.8.1 4.4zM85.3 118.4l-2.3-7.9 2 1.9zM81.1 120l-1.7-1.6-2.7 1.1v.3z"/><path fill="#E5007E" d="M72 120.9l.7-8.9-2.1 2.2z"/><path fill="#0080C8" d="M72.1 121.2l1.1 3.3 3.1.3z"/><path fill="#E30521" d="M87 128.1l.7 1v.1h-.1l-.6.1s-.1 0 0 0c0 0 0 .1.1.1s.7-.1.7-.1h.1s.1.1 0 .1l-.2.1-1 .3.1.1 2.9-.5-.1.1-.1.1-3 .6.1.1 2.6-.4-.1.1H89l-2 .5.1.1 1.6-.2h.1l-.1.1-.1.1h-.1l-1 .3.1.1h1l.1.2-.5.1s0 .1.1.1h.6s.1 0 .1.1.2.7.2.7v.1H89l-1.6-.6-1.3 1.1s-.1.1-.1 0V131l-1.4-1s-.1-.1 0-.1 1.6-.5 1.6-.5l.5-1.6c.1.3.1.3.3.3-.1 0 0 0 0 0"/><path fill="#008FD3" d="M73.7 130.2l.7 1v.1l-.6.2s-.1 0 0 0c0 0 0 .1.1.1s.7-.1.7-.1h.1l.1.1-1.2.3.1.1h.7l.1.1-1.1.3.1.1c.1 0 1.3-.2 1.4-.2l.1.1-1.1.3.1.1 1.5-.1.1.1-1.1.3.1.1 1.3-.1v.2l-.7.2s0 .1.1.1h.7v.8h-.1l-1.4-.6-1.3 1.1s-.1.1-.1 0v-1.8l-1.4-1s-.1-.1 0-.1 1.6-.5 1.6-.5l.5-1.6c-.3.3-.3.3-.1.3-.1-.1 0 0 0 0"/><path fill="#FBBE00" d="M77 129.7l.7 1v.1l-.6.2s-.1 0 0 0c0 0 0 .1.1.1s.7-.1.7-.1h.1l.1.1-1.2.3.1.1h.7l.1.2-1.1.3.1.1c.1 0 1.3-.2 1.4-.2l.1.1-1.1.3.1.1 1.5-.1.1.1-1.1.3.1.1 1.3-.1v.2l-.7.2s0 .1.1.1h.7v.8h-.1l-1.4-.6-1.3 1.1s-.1.1-.1 0c-.1 0 0-.2 0-.2v-1.6l-1.4-1s-.1-.1 0-.1 1.6-.5 1.6-.5l.5-1.6c-.3.2-.3.1-.1.2-.1-.1 0 0 0 0"/><path fill="#00151D" d="M80.3 129.2l.7 1v.1l-.6.2s-.1 0 0 0c0 0 0 .1.1.1s.7-.1.7-.1h.1l.1.1-1.2.3.1.1h.7l.1.2-1.1.3.1.1c.1 0 1.3-.2 1.4-.2l.1.1-1.1.3.1.1 1.5-.1.1.1-1.1.3.1.1 1.3-.1v.2l-.7.2s0 .1.1.1h.7v.8h-.1l-1.4-.6-1.3 1.1h-.1c-.1 0 0-.2 0-.2v-1.6l-1.4-1s-.1-.1 0-.1 1.6-.5 1.6-.5l.5-1.6c-.2.2-.2.1-.1.2 0-.1 0 0 0 0"/><path fill="#00914C" d="M83.7 128.7l.7 1v.1l-.6.2s-.1 0 0 0c0 0 0 .1.1.1s.7-.1.7-.1h.1l.1.1-1.2.3.1.1h.7l.1.1-1.1.3.1.1c.1 0 1.3-.2 1.4-.2l.1.1-1.1.3.1.1 1.5-.1.1.1-1.1.3.1.1 1.3-.1v.2l-.7.2s0 .1.1.1h.7v.8h-.1l-1.4-.6-1.3 1.1s-.1.1-.1 0v-1.8l-1.4-1s-.1-.1 0-.1 1.6-.5 1.6-.5l.5-1.6c-.3.3-.3.2-.1.3-.1-.1 0 0 0 0"/></g></svg>