<svg xmlns="http://www.w3.org/2000/svg" xmlns:xlink="http://www.w3.org/1999/xlink" viewBox="0 0 347 296" enable-background="new 0 0 347 296"><defs><path id="a" d="M229.3 14.8h17.9v28.3h-17.9z"/></defs><clipPath id="b"><use xlink:href="#a" overflow="visible"/></clipPath><path clip-path="url(#b)" fill="#EDEDED" d="M247.1 14.8L239 43.1l-9.8-6.8s4.6-6.2 5.9-7.8c1.9-2 12-13.7 12-13.7"/><defs><path id="c" d="M159.6 276.4c1.2 2.7 2.6 7 1.5 8.7-.1.2-.5.8-1.8.8-4.4-.1-5-.2-8.4-.7-1-.2-2.2-.4-3.8-.6-.7-.1-1.2-.3-1.4-.7-.3-.4-.3-1.2 0-2.4.6-2.5 1-4.3 1.2-5.1 2.4.1 4.6.1 6.7.1 2.2 0 4.2-.1 6-.1m-29.7 6.6c-3.4-.5-7-.9-10.8-1.4-4.9-.6-9.9-1.2-14.6-1.9-2-.3-2.4-.8-2.5-1-.2-.3.1-.8.3-1.2 1.1-2.1 1.9-3.6 2.3-4.4 10.1 1.3 23.2 2.5 34.9 3-.8 2.1-2.1 5.1-3.2 5.9-1 .8-3.3 1.1-5 1.1-.6 0-1 0-1.4-.1M13.5 88.4c.2-.6.8-1 1.8-1.4 4.2-1.4 7.1-1.9 13.5-2.9.7-.1 1.3 0 1.6.2.4.3.6 1 .7 2.2l.1 1.5c-5.4 1.7-10.6 3.7-15 5.8-1.5-1.6-3.1-4-2.7-5.4m26.6-4.8c1-1.3 4.2-2.4 6-2.6 3.1-.4 5.7-.8 8.2-1.2 4.9-.7 9.1-1.4 14.9-2 2.1-.3 2.7.1 2.8.3.2.2.1.8 0 1.2-.2.6-.3 1.2-.4 1.7-7.6.7-21 2.1-30.9 4.5-.5.1-1 .3-1.5.4.1-.7.3-1.5.9-2.3m148.8-61.7c-4.8 4.4-9.9 10.6-14.2 16.3h-.1c-9.4 5.9-16.5 14.3-16.6 14.3 0 0-.1.1-.1.2s-.1.1-.1.2c-.1.4-1.4 5.3-1.1 13.8-.3.4-.8 1.1-1.4 1.9-.4-2.3-1.4-5.6-4.2-8.5-4.1-4.2-10.5-6.1-19.1-5.7-9.2.4-19.8 5.4-27.7 10-.8.1-3.6.4-7.7.8l1.1-3.6c.1-.3 0-.7-.3-.9-.3-.2-.6-.3-1-.2-.1 0-4.1 1.8-8.7 5.7C66 68.9 26.8 74.1 6.8 80.4c-3.2 1-5.1 2.7-5.8 5.1-1.3 4.8 3.4 11.1 6.1 14.1-1.7 2-2.8 4.7-2.4 7.3 1.4 8.7 7.6 15.5 12.7 17.4 3.2 1.2 6.5 1.6 9.7 1.6 4.8 0 9.1-.9 11.4-1.5-1.8 6.5-.8 12.4 3 16 3.4 3.2 7.7 6.3 12.8 9.4-1 .3-1.8.9-2.3 1.7-1.6 2.6-2 5.8-1.1 8.9.6 2.1 1.7 4 3.1 5.5l.1.1c.7.7 1.5 1.4 2.4 1.9.4.2.9.4 1.5.6-2.2 2.2-6.8 7-8.4 9.8-1.5 2.6-4.9 10.1-4.9 15.8 0 2.2 2.2 4.8 5.5 6.7 2 1.1 4.6 2 7.1 2 .5 0 1 0 1.4-.1.7 1.2 2.7 4.2 5.2 5.7 2.2 1.3 5.5 2.3 8.5 2.3 2.1 0 4-.5 5.3-1.6 1.3.4 4.5 1.3 8.1 1.3 2.6 0 5.4-.5 7.7-2 .6-.4 1.2-1.2 1.7-2.2.1-.1.1-.2.2-.3 2-3.9 3.6-10.9 4-13.1 1.2-1.1 6.7-6.2 9.1-9 .2-.3.5-.6.7-.9 6.1 13 9 22.3 8.3 26.4-.6 3.1-2.3 7.1-5.2 12.1-1 0-2.8.6-4.9 3.4-1.3 1.8-3.9 5.6-7.1 10.5-3.5 5.2-7.9 11.8-11.9 17.7-4.4 6.3-5.9 10.5-5 13.4.8 2.4 3.2 3.2 5 3.8l.5.2c1.5.5 3.7 1 6.5 1.5-1 1.9-2.8 4.8-4.4 5.4-3.8 1.4-9 .6-13.2-.1-1.5-.2-2.8-.5-4-.6-5.5-.4-7.5 3.5-7.8 5.7V282.6c0 .1 0 .1.1.1 0 .1 0 .1.1.2l.1.1s.1.1.2.1c0 0 .1 0 .1.1.1 0 .1.1.2.1.7.1 62.7 11.4 94 11.4 1.6 0 3.1 0 4.5-.1 3.3-.1 5.6-1.3 6.8-3.5 2.8-5-1.1-13.8-2.5-16.6 1.9-1 3.5-2.5 3.8-5.2.8-6.6.6-18.5-10.4-23.5-5.8-2.7-13.8-2.9-21.4-2.2 1.3-1.4 3.2-3.6 5.2-5.7 2.7-2.9 3.9-5.3 3.6-7.1-.1-.4-.2-.7-.4-1 6.6-8.2 10.5-14.2 11.8-17.9 1.2-3.4 1.5-8.4 1-14.7 6.7 2 12.7 3.6 20.2 5.1 1.6.3 3.2.5 4.6.5 5.6 0 9.7-2.5 12.2-7.5 1.2-2.3 3.7-12 5.2-18v.3c.6 5.6.9 8.5 1.2 11.1.2 2.5.4 4.6.9 8.4.5 3.9 1.1 9.1 5.3 12.1 2.1 1.5 4.9 2.3 8.3 2.3 2.2 0 4.8-.3 7.6-.9 3.6-.8 6.1-1.2 8.4-1.7 3.9-.7 7.6-1.4 15.4-3.4 6.5-1.7 14.8-5.2 13-16.3-1.6-9.6-6.8-23.8-9.7-31.4-1.6-4.1-7.4-18.3-8.9-21.9.7-.3 1.4-.7 2-1.1 4.1-3.1 6.5-6.8 7.8-8.9 2.2-2.3 3.3-5.2 3.3-8.1 2.2-.2 8.8-.6 18.9-.6 7.1 0 15.7.1 19.4.6 3 .4 5.5.6 7.7.6 5.4 0 9-1.1 13.8-2.6l.7-.2c.3-.1 1.4-.2 2.5-.3 4.3-.4 11.5-1 14.5-4.4 1.1-1.2 1.9-2.9 2.3-3.6.6-.2 1.2-.5 1.7-.8.7-.4 1.3-.9 1.9-1.6v-.1c1.7-1.8 2.9-4.3 3.5-7.1.2-1.2.3-2.4.2-3.5-.1-1.5-.5-2.9-1.2-3.8-1.7-2.2-7.9-2.4-11.4-2.4-2.8 0-6.9-1-8.4-1.4 0-.2-.1-.5-.1-.7 2.4-.8 9.7-3.5 12.6-7 .9-1.1 1.7-3.2 2-5.6.3-2.4.1-5.1-1-7.2-.6-1.3-1.4-2.4-2.3-3.2l-.1-.1c-2.1-2-5-2.9-8.5-2.6-2.7.2-8.3 5.4-11.5 8.6.3-2.5.3-5.7-1.5-7.5-2.9-2.9-8.9-4.3-12.2-1.7-1.8 1.4-2.8 4.3-3.8 7.1-.6 1.6-1.1 3.2-1.7 4.2-.6.9-1.8 2-3.2 3-.7.5-1.3 1.1-2 1.7-.4.4-.8.7-1.2 1.1-1.7 1.6-3.2 2.9-5.5 4.1-5.4 2.7-19.5 4.2-23.1 4.6-.8-4.2-1.6-8.7-2.4-12.1-.6-2.8-1.2-5.1-2.1-6.7-.2-.5-.5-1-.7-1.5-.6-1.2-1.1-2.4-1.8-3.7.4-2.1 2.8-13.9 3.4-19.8 1.7-16.1-.4-25.4-2.9-28.7-.6-.8-1.8-2.4-3.9-2.4-2.9 0-6.5 3-11.3 9.4-7.4 9.7-10.8 14-12 15.5-.9-.7-1.5-1.4-1.6-2.2-.1-1.1.7-4 2-8.5l.9-3.1c3.9-13.9 3.9-17-.1-19.5-1.6-1-3.4-1.4-5.4-1.4-10.4-.2-26.4 12.6-35.8 21.2"/></defs><clipPath id="d"><use xlink:href="#c" overflow="visible"/></clipPath><radialGradient id="e" cx="-245.58" cy="444.546" r="1.064" gradientTransform="matrix(-138.0718 159.1804 131.0532 113.6745 -91973.844 -11339.201)" gradientUnits="userSpaceOnUse"><stop offset="0" stop-color="#fff"/><stop offset=".356" stop-color="#fff"/><stop offset=".544" stop-color="#f6f6f6"/><stop offset=".852" stop-color="#ddd"/><stop offset="1" stop-color="#cfcfcf"/></radialGradient><path clip-path="url(#d)" fill="url(#e)" d="M492.6 126.8L197.9 466.5l-343.7-298.2 294.6-339.7z"/><defs><path id="f" d="M188.8 21.9c-4.8 4.4-9.9 10.6-14.2 16.3h-.1c-9.4 5.9-16.5 14.3-16.6 14.3l-.1.1c0 .1-.1.1-.1.2-.2.9-5.7 21.9 9.5 54.7 1.4 3.1 3.2 6.1 5.3 8.9.1.1.2.2.3.2h.1c.1.1.2.1.4.1.1 0 .2 0 .4-.1h.1s0-.1.1-.1l.1-.1.1-.1c0-.1 0-.1.1-.2v-.2-.2-.2-.1c0-.1-4.6-9.5-6.2-17.5-1-4.8-1.2-9.6-1.2-10.9 1.5-1.3 9-7.9 23.8-15.7 19.3-10.2 34.6-12.8 43.2-7.2 4.1 2.7 4.9 6.2 5.2 9.5.3 4.5-.5 16.1-1.9 23.7V97.6c0 .1 0 .1.1.2 0 .1 0 .1.1.2 0 .1.1.1.1.1l.1.1s.1.1.2.1l.1.1H238.5c.1 0 .1-.1.2-.1l.1-.1.1-.1s0-.1.1-.1c0 0 0-.1.1-.1C243 85 251 64.8 255.7 65.5c.6.1 1.1.6 1.6 1.5 0 .1.1.1.1.2.2.3.5.5.8.5.1 0 .3 0 .4-.1.5-.2.6-.8.4-1.2-.3-.5-.5-1.1-.8-1.6-.6-1.2-1.1-2.4-1.8-3.7.4-2.1 2.8-13.9 3.4-19.8 1.7-16.1-.4-25.4-2.9-28.7-.6-.8-1.8-2.4-3.9-2.4-2.9 0-6.5 3-11.3 9.4-7.4 9.7-10.8 14-12 15.5-.9-.7-1.5-1.4-1.6-2.2-.1-1.1.7-4 2-8.5l.9-3.1c3.9-13.9 3.9-17-.1-19.5-1.6-1-3.4-1.4-5.4-1.4-11.3.1-27.2 12.9-36.7 21.5"/></defs><clipPath id="g"><use xlink:href="#f" overflow="visible"/></clipPath><linearGradient id="h" gradientUnits="userSpaceOnUse" x1="-247.34" y1="445.616" x2="-246.276" y2="445.616" gradientTransform="scale(142.1965 -142.1965) rotate(-8.898 -2988.912 -1373.301)"><stop offset="0" stop-color="#d9d9d9"/><stop offset=".17" stop-color="#c9c9c9"/><stop offset=".5" stop-color="#a0a0a0"/><stop offset=".955" stop-color="#5f5f5e"/><stop offset="1" stop-color="#585857"/></linearGradient><path clip-path="url(#g)" fill="url(#h)" d="M154.7-16.2L279.1 3.3l-20.4 130.3-124.4-19.4z"/><defs><path id="i" d="M101.9 236.2c-3.5 5.2-7.9 11.8-12 17.7-3.9 5.6-5.5 9.6-4.8 11.8.5 1.5 2.2 2.1 3.9 2.7l.5.2c2.6.9 7.8 1.9 14.3 2.7 20.6 2.8 54.5 4.8 62.3 2.6 3.6-1 5.2-2.4 5.5-4.8.9-7.5.1-17.4-9.4-21.7-3.9-1.8-8.8-2.4-14-2.4-.1 0-.2.1-.3.1-1.2 0-8.1 1.3-12.4 7.5-3.4 4.9-4.4 8.9-4.4 9-.1.4-.5.7-.9.7l-10.5-.3c-.5 0-.9-.4-.9-.9 0-.2.1-4.9 4.5-10.5.8-.9 1.5-1.7 2.3-2.4-4.4 1-7.3 1.9-7.4 2-.5.2-1-.1-1.1-.6-.2-.5.1-1 .6-1.1.7-.2 10.2-3.2 21.1-4.5.4-.4 1.1-1.3 2.1-2.4h-1.6c-4.2 0-11.3-.2-18.1-1.4-9.4-1.6-14.9-6-16.8-7.9-.6 1-1.5 2.4-2.5 3.9m7.1-10.5c-.7 1-1.9 2.7-3.3 4.8 1.5 1.5 6.7 6.1 16.1 7.7 9.3 1.6 19.1 1.4 21.1 1.3.9-.9 1.8-2 2.7-3 2.5-2.7 3.1-4.3 3.2-5.1-.4.5-.9 1.1-1.3 1.6-.1.1-.2.2-.3.2h-.1c-.1 0-.1.1-.2.1 0 0-1 .1-2.6.1-3.3 0-9.5-.2-16.6-1.5-10.6-1.9-16.5-6.3-16.7-6.5l-.1-.1-.1-.1c0-.1-.1-.1-.1-.2s0-.1-.1-.2v-.2-.2c0-.1 0-.1.1-.2v-.1l.3-.6c-.6.6-1.2 1.2-2 2.2"/></defs><clipPath id="j"><use xlink:href="#i" overflow="visible"/></clipPath><linearGradient id="k" gradientUnits="userSpaceOnUse" x1="-248.332" y1="445.893" x2="-247.268" y2="445.893" gradientTransform="matrix(81.7441 0 0 -81.7441 20366.258 36698.941)"><stop offset="0" stop-color="#0075be"/><stop offset=".393" stop-color="#0075be"/><stop offset=".63" stop-color="#008ed4"/><stop offset=".822" stop-color="#009ee2"/><stop offset="1" stop-color="#009ee2"/></linearGradient><path clip-path="url(#j)" fill="url(#k)" d="M84.5 223.7h88.2V276H84.5z"/><defs><path id="l" d="M66.4 98.1c-9.4 0-15.9 5-16.7 5.6-1.3 1.8-2.5 3.4-3.2 4.4-.6.8-.8 1.6-.8 2.3l.1-.1c.4-.3 9.1-6 20-7 4.1-.4 8 .8 10.3 1.8-.6-1.6-1.2-3.4-1.6-5.3-.8-.5-3.3-1.7-8.1-1.7.1 0 .1 0 0 0m-25.2-11c-11.7 2.8-23 7.1-30.3 11.5-2.1 1.3-4.9 4.6-4.4 7.9 1.2 7.8 6.8 14.2 11.6 16 5.4 2 11.7 1.5 16.1.8-1.4-1.8-4-5.7-4.7-9.9-1.3-7.3-.2-11.7-.1-11.9.1-.3.3-.5.6-.6l9.2-3c.3-.1.6 0 .8.1.2.2.4.4.4.7 0 .1.4 6.1.8 8.8.5 3 1.6 5.2 2.4 6.4.3-.4.6-.9.9-1.4-.4-1-.9-3.2.7-5.5 2.2-3.1 9-12.5 9.1-12.6.3-.4.9-.5 1.3-.2s.5.9.2 1.3c0 0-1.4 1.9-3 4.2 3.1-1.6 8-3.5 13.9-3.5h.1c3.8 0 6.3.7 7.8 1.3-.3-2.8-.3-6 .3-9.6.4-2.1.9-4 1.6-5.8-5.6.5-23.1 2-35.3 5"/></defs><clipPath id="m"><use xlink:href="#l" overflow="visible"/></clipPath><linearGradient id="n" gradientUnits="userSpaceOnUse" x1="-248.512" y1="446.355" x2="-247.448" y2="446.355" gradientTransform="scale(75.1676 -75.1676) rotate(6.621 3746.467 2370.122)"><stop offset="0" stop-color="#0075be"/><stop offset=".393" stop-color="#0075be"/><stop offset=".63" stop-color="#008ed4"/><stop offset=".822" stop-color="#009ee2"/><stop offset="1" stop-color="#009ee2"/></linearGradient><path clip-path="url(#m)" fill="url(#n)" d="M1.1 82.8l74.2-8.6 5.8 49.7-74.2 8.6z"/><defs><path id="o" d="M31 102.4c-.2 1.3-.8 5.1.2 10.7.8 4.4 4 8.7 5 9.8 1.4-.3 2.4-.6 3-.7.4-1 .8-2.1 1.4-3.2.4-.9 1.1-2.1 2-3.5-.8-1.1-2.5-3.8-3.2-7.8-.3-2-.6-5.8-.8-7.8l-7.6 2.5z"/></defs><clipPath id="p"><use xlink:href="#o" overflow="visible"/></clipPath><linearGradient id="q" gradientUnits="userSpaceOnUse" x1="-249.747" y1="440.678" x2="-248.682" y2="440.678" gradientTransform="scale(32.4294 -32.4294) rotate(-64.423 -476.419 20.097)"><stop offset="0" stop-color="#585857"/><stop offset=".193" stop-color="#7a7877"/><stop offset="1" stop-color="#d9d9d9"/></linearGradient><path clip-path="url(#p)" fill="url(#q)" d="M40.2 95.2l11.2 23.4-18.9 9.1-11.2-23.5z"/><defs><path id="r" d="M130.4 247c-.6.3-3.2 1.8-5.4 4.5-3 3.8-3.8 7-4 8.5l8.8.2c.4-1.5 1.7-4.9 4.5-8.9 2-2.9 4.6-4.8 6.9-6.1-3.8.5-7.5 1.1-10.8 1.8"/></defs><clipPath id="s"><use xlink:href="#r" overflow="visible"/></clipPath><linearGradient id="t" gradientUnits="userSpaceOnUse" x1="-250.502" y1="451.155" x2="-249.438" y2="451.155" gradientTransform="scale(26.2897 -26.2897) rotate(41.921 479.023 553.295)"><stop offset="0" stop-color="#585857"/><stop offset=".193" stop-color="#7a7877"/><stop offset="1" stop-color="#d9d9d9"/></linearGradient><path clip-path="url(#s)" fill="url(#t)" d="M113.5 252l18.6-16.7 16.5 18.3-18.6 16.7z"/><defs><path id="u" d="M7.3 82.1c-2.6.8-4.1 2.1-4.6 3.8-1.1 4 3.4 9.8 5.6 12.3.5-.4 1-.8 1.6-1.2 1.3-.8 2.8-1.6 4.4-2.4-1.6-2.1-3.3-4.6-2.6-6.8.4-1.2 1.3-2 2.9-2.6 4.3-1.4 7.6-2 13.8-2.9 1.3-.2 2.3 0 3 .6 1.1.9 1.3 2.4 1.3 3.5v1.1c1.5-.5 3-.9 4.6-1.3 0-.9.2-2.4 1.3-3.8 1.5-1.8 5.1-3 7.1-3.3 3.1-.4 5.7-.8 8.2-1.2 4.9-.7 9.2-1.4 14.9-2.1 2.2-.3 3.6 0 4.4.9.6.7.7 1.6.4 2.8-.1.4-.2.7-.3 1.1 1.6-.1 2.7-.2 3.4-.3 2.2-5 5.3-8.9 8.4-12-21.8 2.8-58.6 7.8-77.8 13.8m88.6-14.9l-1 3.2c1.4-1 3.3-2.3 5.6-3.7-1.2.1-2.8.3-4.6.5"/></defs><clipPath id="v"><use xlink:href="#u" overflow="visible"/></clipPath><linearGradient id="w" gradientUnits="userSpaceOnUse" x1="-248.112" y1="445.965" x2="-247.048" y2="445.965" gradientTransform="matrix(92.0664 0 0 -92.0664 22845.396 41140.8)"><stop offset="0" stop-color="#7d7b7a"/><stop offset=".638" stop-color="#b9b8b7"/><stop offset="1" stop-color="#8e8c8a"/></linearGradient><path clip-path="url(#v)" fill="url(#w)" d="M1.7 66.7h98.9v31.5H1.7z"/><defs><path id="x" d="M210.9 132.7c1.5 7.7 5.1 12.3 9.9 12.6h.3c1.2 0 2.2-.5 3-1.3.1-.6.2-2.7-1-5.4-.6-1.4-2.6-3.8-3.4-4.8-3.9-2.8-6.9-7.3-10-12.4.4 3.7.8 8.8 1.2 11.3"/></defs><clipPath id="y"><use xlink:href="#x" overflow="visible"/></clipPath><linearGradient id="z" gradientUnits="userSpaceOnUse" x1="-259.449" y1="448.435" x2="-258.384" y2="448.435" gradientTransform="matrix(13.5303 0 0 -13.5303 3720.26 6200.882)"><stop offset="0" stop-color="#c20a6c"/><stop offset=".472" stop-color="#e3097e"/><stop offset="1" stop-color="#e3097e"/></linearGradient><path clip-path="url(#y)" fill="url(#z)" d="M209.9 121.5h14.6v23.9h-14.6z"/><g><defs><path id="A" d="M146.2 86.4c-1.6 5-1.3 7.2-1.1 8 2.3-.7 9.2-2.1 14.2 6.1 5.8 9.5 6.2 16.3 6.5 21.8.1 2.2.2 4.3.7 6.3 5.3 21.7 28.2 21.9 33.5 21.6-1-3-2.1-5.8-3.4-8.1-1.4-2.4-1.7-2.8-5.2-6.7-1-1.1-2.2-2.5-3.8-4.3-5.5-3.7-10.8-8.5-15.1-14.4l-.2-.2c-2-2.7-3.7-5.6-5.2-8.8-7.3-15.7-9.8-28.7-10.5-38-2.8 4.1-9.3 13.3-10.4 16.7"/></defs><clipPath id="B"><use xlink:href="#A" overflow="visible"/></clipPath><linearGradient id="C" gradientUnits="userSpaceOnUse" x1="-249.586" y1="446.291" x2="-248.522" y2="446.291" gradientTransform="matrix(51.8276 0 0 -51.8276 13080.464 23240.246)"><stop offset="0" stop-color="#0075be"/><stop offset=".393" stop-color="#0075be"/><stop offset=".63" stop-color="#008ed4"/><stop offset=".822" stop-color="#009ee2"/><stop offset="1" stop-color="#009ee2"/></linearGradient><path clip-path="url(#B)" fill="url(#C)" d="M144.7 69.6h55.5v80.8h-55.5z"/></g><g><defs><path id="D" d="M162 160.4c-.7 1.2-1.5 2.4-2.3 3.8-3.3 5.3-7.1 11.4-8 14.1-1.2 3.6-1.1 7 .4 9.8 1.4 2.7 3.8 4.8 6.7 5.7 8.6 2.8 15.6 4.6 24.7 6.5 7.2 1.5 12-.5 14.8-6.1 1.2-2.5 4.6-15.6 6.2-22.3-.9-6.7-2.1-13.9-3.8-20.1-.5 0-1.3.1-2.4.1-5.7 0-17.9-1.1-26.2-9.6-1.7 3.3-6.7 12.6-10.1 18.1"/></defs><clipPath id="E"><use xlink:href="#D" overflow="visible"/></clipPath><linearGradient id="F" gradientUnits="userSpaceOnUse" x1="-244.084" y1="443.624" x2="-243.02" y2="443.624" gradientTransform="scale(-69.9865 69.9865) rotate(32.157 642.193 641.341)"><stop offset="0" stop-color="#0075be"/><stop offset=".393" stop-color="#0075be"/><stop offset=".63" stop-color="#008ed4"/><stop offset=".822" stop-color="#009ee2"/><stop offset="1" stop-color="#009ee2"/></linearGradient><path clip-path="url(#E)" fill="url(#F)" d="M231.3 185l-65.5 41.1-42-66.9 65.4-41.1z"/></g><g><defs><path id="G" d="M198.3 141.2c4.3 7.6 6.6 19.7 8 30.7.2 1.8.4 3.6.6 5.3.6 5.6.9 8.6 1.2 11.2.2 2.5.4 4.6.9 8.4.4 3.7 1 8.3 4.5 10.9 3 2.1 7.9 2.5 14.5 1 3.6-.8 6.1-1.2 8.5-1.7 3.9-.7 7.5-1.4 15.3-3.4 9.4-2.5 12.9-6.7 11.6-14.2-1.6-9.5-6.7-23.5-9.6-31-1.6-4.1-7.6-18.6-9-22-1.1.2-2.1.3-2.9.3-1.1 0-1.9-.1-2.3-.2-.6.2-2.2.6-4.4.9-.6 2.1-3.1 10.2-6.7 13.2-1.7 1.4-4.3 2.2-7 2.2-1.7 0-3.4-.3-5-.9-4.8-1.7-10.5-8.6-13.9-13.3-3-1-6.3-2.4-9.6-4.2 3.5 3.8 3.9 4.2 5.3 6.8"/></defs><clipPath id="H"><use xlink:href="#G" overflow="visible"/></clipPath><linearGradient id="I" gradientUnits="userSpaceOnUse" x1="-247.577" y1="444.033" x2="-246.513" y2="444.033" gradientTransform="scale(86.9643 -86.9643) rotate(-55.305 -547.759 -17.1)"><stop offset="0" stop-color="#0075be"/><stop offset=".393" stop-color="#0075be"/><stop offset=".63" stop-color="#008ed4"/><stop offset=".822" stop-color="#009ee2"/><stop offset="1" stop-color="#009ee2"/></linearGradient><path clip-path="url(#H)" fill="url(#I)" d="M241.5 100.7l58.7 84.8-83.9 58.1-58.7-84.8z"/></g><g fill="#FFF"><path d="M226 7c-3.1-1.8-9.4-1.6-27.4 19.9-8.3 9.9-14.1 23.3-14.2 23.5-.2.3-.3.7-.1 1 .2.3.5.5.8.5.1 0 .3 0 .4-.1C199.9 44.3 216.9 40 217 40h.1c.1 0 .1 0 .2-.1.1 0 .1-.1.1-.1l.1-.1s.1-.1.1-.2v-.1c.1-.1 5.2-12.5 7.9-20.8.3-.8.5-1.6.8-2.3 1.8-5.5 2.6-7.7-.3-9.3M254.1 17.8c-.4-.5-1-.7-1.6-.7-1.1.1-2 1.1-3 3.1-4.4 9.2-10.4 22.8-10.4 22.9v.7c0 .1 0 .1.1.2l.1.1c0 .1.1.1.1.2 2.8 2.2 5.2 4.5 7.3 6.8.8.9 1.6 1.9 2.4 2.8l.2.2.1.1c.1 0 .2.1.3.1.1 0 .2 0 .3-.1.1 0 .2-.1.2-.1l.2-.2v-.1-.1c.1-.2 2.2-5.7 3.6-15.7 1.2-7.9 2.1-17.6.1-20.2"/></g><g><defs><path id="J" d="M91.8 91.1l-4.1-4.8c-.2-.2-.5-.4-.9-.3-.3.1-.6.3-.7.6-.1.3-2.6 7.9.4 15.2 2.5 5.9 6.8 9.7 7 9.9.1.1.2.1.3.2h.4c2.1-.3 4.1-.6 6.2-.9H100.7c.1 0 .1-.1.2-.1l.1-.1.1-.1c0-.1.1-.1.1-.2v-.2-.2-.1-.1-.1c-.2-.6-5.3-14.1 10.6-22.7 2.6-1.4 4.8-1.6 6.8-.8 4.3 2 5.9 8.8 5.9 8.9.1.4.4.6.7.7.4.1.7-.1.9-.4.3-.4 6.3-10.5 3-17.4-1.5-3.2-4.8-5.2-9.7-5.8-1.2-.2-2.3-.2-3.4-.2-14.2-.1-22 12.3-24.2 19"/></defs><clipPath id="K"><use xlink:href="#J" overflow="visible"/></clipPath><linearGradient id="L" gradientUnits="userSpaceOnUse" x1="-247.971" y1="441.716" x2="-246.907" y2="441.716" gradientTransform="scale(45.432 -45.432) rotate(-75.53 -408.885 58.665)"><stop offset="0" stop-color="#d9d9d9"/><stop offset=".17" stop-color="#c9c9c9"/><stop offset=".5" stop-color="#a0a0a0"/><stop offset=".955" stop-color="#5f5f5e"/><stop offset="1" stop-color="#585857"/></linearGradient><path clip-path="url(#K)" fill="url(#L)" d="M129.4 60.2l12.7 49.2-55.4 14.4-12.8-49.3z"/></g><g><defs><path id="M" d="M50.4 186.4c-1.3 2.3-1.7 5.1-1 7.5.6 1.9 1.7 3.3 3.4 4.1 1.4.7 2.7 1 4 1 4.3 0 6.3-4 7-5.8 2-5.4.8-9.5-3.5-11.3-.6-.3-1.4-.4-2.2-.4-3.1.1-5.9 1.9-7.7 4.9"/></defs><clipPath id="N"><use xlink:href="#M" overflow="visible"/></clipPath><linearGradient id="O" gradientUnits="userSpaceOnUse" x1="-244.518" y1="444.325" x2="-243.454" y2="444.325" gradientTransform="scale(-100.7677 100.7677) rotate(26.734 808.814 734.657)"><stop offset="0" stop-color="#585857"/><stop offset=".317" stop-color="#878786"/><stop offset=".75" stop-color="#c2c2c2"/><stop offset=".957" stop-color="#d9d9d9"/><stop offset="1" stop-color="#d9d9d9"/></linearGradient><path clip-path="url(#N)" fill="url(#O)" d="M72.8 195.5l-20.7 10.4-10.5-20.8 20.7-10.4z"/></g><g><defs><path id="P" d="M67.1 195.5c-1.3 2.3-1.7 5-1.1 7.2.5 1.8 1.7 3.2 3.4 4 1.3.7 2.6.9 3.8.9 2.9 0 5.3-1.6 6.8-3.6.1-.1.1-.2.1-.3v-.1c.2-1 .4-2.1.6-3.1.3-1.4.5-2.7.8-3.9v-.4c-.4-2.7-2.5-4.9-5.4-5.6-.3-.1-.9-.2-1.6-.2-1.8.2-4.9 1-7.4 5.1"/></defs><clipPath id="Q"><use xlink:href="#P" overflow="visible"/></clipPath><linearGradient id="R" gradientUnits="userSpaceOnUse" x1="-244.518" y1="444.333" x2="-243.454" y2="444.333" gradientTransform="scale(-100.7739 100.7739) rotate(26.734 808.511 734.584)"><stop offset="0" stop-color="#585857"/><stop offset=".317" stop-color="#878786"/><stop offset=".75" stop-color="#c2c2c2"/><stop offset=".957" stop-color="#d9d9d9"/><stop offset="1" stop-color="#d9d9d9"/></linearGradient><path clip-path="url(#Q)" fill="url(#R)" d="M88.5 204.2l-19.8 10-10.2-20.1 19.9-10z"/></g><g><defs><path id="S" d="M84.6 197.1c-2.2 3.7-1.5 8.2 1.5 10.1 1.5.9 2.9 1.3 4.2 1.3 2.1 0 3.8-1 5-2.4v-.1l.1-.1c.9-1.7 1.8-4.2 2.7-7.5v-.2-.1c-.4-2.5-2.6-4.8-5.4-5.5-.4-.1-.9-.2-1.4-.2-1.9 0-4.4.9-6.7 4.7"/></defs><clipPath id="T"><use xlink:href="#S" overflow="visible"/></clipPath><linearGradient id="U" gradientUnits="userSpaceOnUse" x1="-244.518" y1="444.337" x2="-243.454" y2="444.337" gradientTransform="scale(-100.7781 100.7781) rotate(26.734 808.34 734.544)"><stop offset="0" stop-color="#585857"/><stop offset=".317" stop-color="#878786"/><stop offset=".75" stop-color="#c2c2c2"/><stop offset=".957" stop-color="#d9d9d9"/><stop offset="1" stop-color="#d9d9d9"/></linearGradient><path clip-path="url(#T)" fill="url(#U)" d="M104.6 205.2l-19 9.6-9.7-19.1 19-9.6z"/></g><g><defs><path id="V" d="M57.3 155.2c-5.2 2.2-4.6 7.8-3.5 10.4v.1c0 .1.1.2.1.2.8.8 1.6 1.4 2.5 1.9 1.3.7 3.5 1.1 6.7 1.1.9 0 2 0 3.1-.1h.1c.1 0 .1 0 .2-.1.1 0 .1-.1.1-.1s.1 0 .1-.1c.1-.1 3.3-2.9 1-9.1-.6-1.6-2.1-3-4.2-3.9-1.3-.6-2.7-.9-3.9-.9-.9.1-1.6.3-2.3.6"/></defs><clipPath id="W"><use xlink:href="#V" overflow="visible"/></clipPath><linearGradient id="X" gradientUnits="userSpaceOnUse" x1="-244.518" y1="444.307" x2="-243.454" y2="444.307" gradientTransform="matrix(-90 45.333 45.333 90 -42026.93 -28771.463)"><stop offset="0" stop-color="#585857"/><stop offset=".317" stop-color="#878786"/><stop offset=".75" stop-color="#c2c2c2"/><stop offset=".957" stop-color="#d9d9d9"/><stop offset="1" stop-color="#d9d9d9"/></linearGradient><path clip-path="url(#W)" fill="url(#X)" d="M75.8 166l-20 10.1-9.3-18.5 20-10.1z"/></g><g><defs><path id="Y" d="M77.1 154.9c-2.9 3.3-3.9 8.7-3.5 12.2 1.6 12.1 16.2 17.1 22.6 17.6h.4c3.7 0 8.6-3.3 10.6-7.2 1.6-3.1 1.3-6.2-.6-9-.9-1.3-2.8-2.1-4.9-3-1.9-.8-4-1.8-5.5-3.1-1-.9-2.1-2-3.2-3-3.8-3.7-7.4-7.2-10.2-7.2-2.1 0-4.1.9-5.7 2.7"/></defs><clipPath id="Z"><use xlink:href="#Y" overflow="visible"/></clipPath><linearGradient id="aa" gradientUnits="userSpaceOnUse" x1="-244.518" y1="444.327" x2="-243.454" y2="444.327" gradientTransform="scale(-100.7732 100.7732) rotate(26.734 808.908 734.679)"><stop offset="0" stop-color="#585857"/><stop offset=".317" stop-color="#878786"/><stop offset=".75" stop-color="#c2c2c2"/><stop offset=".957" stop-color="#d9d9d9"/><stop offset="1" stop-color="#d9d9d9"/></linearGradient><path clip-path="url(#Z)" fill="url(#aa)" d="M121.9 178.2l-41.5 20.9L60 158.8l41.6-21z"/></g><g><defs><path id="ab" d="M300.2 82.4c-.7 1.4-.6 3.4-.5 5.7.1 2 .2 4.4-.3 6.3-.4 1.4-.9 2.9-1.3 4.4-1.6 5-3.1 9.8-1.7 12.2 1.2 2.1 4.4 3.5 8.1 3.5 2.6 0 5.1-.7 6.9-2 10.1-7 9.5-21.7 7-27.7-1.4-3.3-6.4-6.9-11.1-6.9-2.2.1-5.2.8-7.1 4.5"/></defs><clipPath id="ac"><use xlink:href="#ab" overflow="visible"/></clipPath><linearGradient id="ad" gradientUnits="userSpaceOnUse" x1="-247.375" y1="446.184" x2="-246.311" y2="446.184" gradientTransform="scale(119.336 -119.336) rotate(13.57 1756.214 1271.455)"><stop offset="0" stop-color="#585857"/><stop offset=".317" stop-color="#878786"/><stop offset=".75" stop-color="#c2c2c2"/><stop offset=".957" stop-color="#d9d9d9"/><stop offset="1" stop-color="#d9d9d9"/></linearGradient><path clip-path="url(#ac)" fill="url(#ad)" d="M286.6 80l33.4-8.1 9.8 40.6-33.4 8.1z"/></g><g><path fill="#FFF" d="M251.6 180.3c.6 9.3-6.4 17.3-15.7 17.9-9.3.6-17.3-6.4-17.9-15.7-.6-9.3 6.4-17.3 15.7-17.9 9.3-.6 17.3 6.4 17.9 15.7"/><path fill="#C6C6C5" d="M233.5 162c-10.7.7-18.8 9.9-18.1 20.7.7 10.7 9.9 18.8 20.7 18.1 10.7-.7 18.8-9.9 18.1-20.7-.7-10.7-10-18.8-20.7-18.1m2.3 36.2c-9.3.6-17.3-6.4-17.9-15.7-.6-9.3 6.4-17.3 15.7-17.9 9.3-.6 17.3 6.4 17.9 15.7.7 9.3-6.4 17.3-15.7 17.9"/><path fill="#0080C8" d="M232.1 176.5l2.8-1.1v.2l-2.8 1.1v-.2zm-1-6l.7-.3-.2-.2-.6.2.1.3zm.1-1l-.2-.2v.2h.2zm.7 5.5l3.1-1.2v-.2l-3.1 1.2v.2zm-.5-2.7l1.9-.7-.2-.2-1.7.7v.2zm.3 1.8l3-1.2-.2-.2-2.8 1.1v.3zm-.4-2.7l1.3-.5-.2-.2-1.2.5.1.2zm.7 4.5l3-1.2v-.2l-3 1.2v.2zm-.4-2.7l2.4-1-.2-.2-2.3.9.1.3zM226.2 174.9l-.8.8v-.3l.7-.7.1.2zm-.5-2.4l-.2.2v.3l.2-.2v-.3zm.3 1.1l-.4.4v.3l.5-.5-.1-.2zm.6 3.1l-1.3 1.3v.3l1.3-1.4v-.2zm-.1 5.6l1.2-1.3-.1-.2-1.4 1.4.3.1zm.9-2.3l-.1-.2-2 2 .2.1 1.9-1.9zm0 2.7l.7-.7-.1-.2-.8.8.2.1zm-.5-4.9l-1.5 1.6v.3l1.6-1.7-.1-.2zm-.5-2.1l-1 1v.3l1.1-1.1-.1-.2zm1.9 7.3l.1-.1-.1-.2-.2.3h.2zm-1.2-4.2l-1.8 1.9v.3l1.9-2-.1-.2zM242.3 176.4l-1.3.9v-.3l1.4-1-.1.4zm-1.3-5.9l-.3.2v.3l.4-.3-.1-.2zm1.3 1.2l-1.5 1.1v.3l1.7-1.2-.2-.2zm-.7-.6l-.9.7v.3l1.1-.8-.2-.2zm-.1 8.9l-.5.3v.3l.4-.3.1-.3zm1.6-7.6l-.1-.1-2.2 1.6v.3l2.2-1.6.1-.2zm-.5 2.4l-1.7 1.2v.3l1.6-1.2.1-.3zm-.5 2.6l-1.1.8v.3l1-.7.1-.4zm-.3 1.3l-.8.6v.3l.7-.5.1-.4zm1.1-5.2l-2 1.4v.3l1.9-1.4.1-.3z"/><path fill="#E5007E" d="M236.9 177.7l-1.4-9-.3 7.4zM237.4 183.9l-2.4 1.7-6.2-2.4z"/><path fill="#0080C8" d="M237.7 183.6l3.3-6.9.1 4.4zM241 176.4l-2.4-8.1 2.1 2zM236.8 178l-1.8-1.6-2.8 1.1.1.3z"/><path fill="#E5007E" d="M227.4 178.9l.7-9-2.1 2.2z"/><path fill="#0080C8" d="M227.6 179.2l1.1 3.4 3.1.3z"/><path fill="#E30521" d="M242.7 186.3l.7 1v.1h-.1l-.6.1s-.1 0 0 0c0 0 0 .1.1.1s.7-.1.7-.1h.1s.1.1 0 .1l-.2.1-1 .3.1.1 2.9-.5-.1.1-.1.1-3.1.6.1.1 2.7-.4-.1.1h-.1l-2.1.5.1.1 1.7-.2h.1l-.1.1-.1.1h-.1l-1 .3.1.1h1l.1.2-.6.1.1.1h.6s.1 0 .1.1.2.7.2.7v.1h-.2l-1.6-.6-1.3 1.1s-.1.1-.1 0v-1.8l-1.4-1s-.1-.1 0-.1 1.7-.5 1.7-.5l.5-1.6c.1.3.1.2.3.3-.1-.1 0 0 0 0"/><path fill="#008FD3" d="M229.1 188.4l.7 1v.1l-.6.2s-.1 0 0 0c0 0 0 .1.1.1s.7-.1.7-.1h.1l.1.1-1.2.3.1.1h.7l.1.2-1.2.3.1.1c.1 0 1.3-.2 1.5-.2l.1.1-1.1.3.1.1 1.5-.1.1.1-1.2.3.1.1 1.3-.1v.2l-.7.2s0 .1.1.1h.7v.8h-.1l-1.4-.6-1.4 1.1s-.1.1-.1 0v-1.8l-1.4-1s-.1-.1 0-.1 1.7-.5 1.7-.5l.5-1.6c-.1.2-.1.1 0 .2 0-.1 0 0 0 0"/><path fill="#FBBE00" d="M232.5 187.9l.7 1v.1l-.6.2s-.1 0 0 0c0 0 0 .1.1.1s.7-.1.7-.1h.1l.1.1-1.2.3.1.1h.7l.1.2-1.2.3.1.1c.1 0 1.3-.2 1.5-.2l.1.1-1.1.3.1.1 1.5-.1.1.1-1.2.3.1.1 1.3-.1v.2l-.7.2s0 .1.1.1h.7v.8h-.1l-1.4-.6-1.4 1.1s-.1.1-.1 0c-.1 0 0-.2 0-.2v-1.6l-1.4-1s-.1-.1 0-.1 1.7-.5 1.7-.5l.5-1.6c-.2.2-.1.1 0 .2 0-.1 0 0 0 0"/><path fill="#00151D" d="M235.9 187.3l.7 1v.1l-.6.2s-.1 0 0 0c0 0 0 .1.1.1s.7-.1.7-.1h.1l.1.1-1.2.3.1.1h.7l.1.2-1.2.3.1.1c.1 0 1.3-.2 1.5-.2l.2.1-1.1.3.1.1 1.5-.1.1.1-1.2.3.1.1 1.3-.1v.2l-.7.2s0 .1.1.1h.7v.8h-.1l-1.4-.6-1.4 1.1s-.1.1-.1 0c-.1 0 0-.2 0-.2v-1.6l-1.4-1s-.1-.1 0-.1 1.7-.5 1.7-.5l.5-1.6c-.2.2-.2.2-.1.2"/><path fill="#00914C" d="M239.3 186.8l.7 1v.1l-.6.2s-.1 0 0 0c0 0 0 .1.1.1s.7-.1.7-.1h.1l.1.1-1.2.3.1.1h.7l.1.2-1.2.3.1.1c.1 0 1.3-.2 1.5-.2l.2.1-1.1.3.1.1 1.5-.1.1.1-1.3.5.1.1 1.3-.1v.2l-.7.2s0 .1.1.1h.7v.8h-.1l-1.4-.6-1.4 1.1s-.1.1-.1 0V190l-1.4-1s-.1-.1 0-.1 1.7-.5 1.7-.5l.5-1.6c-.2 0-.1-.1 0 0 0-.1 0 0 0 0"/><defs><path id="ae" d="M187.1 11H217v38h-29.9z"/></defs><clipPath id="af"><use xlink:href="#ae" overflow="visible"/></clipPath><path clip-path="url(#af)" fill="#EDEDED" d="M187.1 48.9c10.6-5.2 22-8.7 27-10.1 1.9-9.7 2.8-19.1 2.9-27.9-3.9 2.8-9.4 8-17 17.1-6.2 7.4-11 16.8-12.9 20.9"/><defs><path id="ag" d="M241 25.4h8.5v25.2H241z"/></defs><clipPath id="ah"><use xlink:href="#ag" overflow="visible"/></clipPath><path clip-path="url(#ah)" fill="#EDEDED" d="M249 25.4c-3.4 7.3-7 15.5-8 17.8 2.6 2.1 5 4.3 7 6.6.2.3.5.5.7.8.9-9 1-17.4.3-25.2"/><defs><path id="ai" d="M207.7 113.2H245v22.7h-37.3z"/></defs><clipPath id="aj"><use xlink:href="#ai" overflow="visible"/></clipPath><g clip-path="url(#aj)"><defs><path id="ak" d="M231.2 114s-2.4 9.9-9.9 8.9c-4.7-.6-13.6-9.7-13.6-9.7l.9 2.9s4.7 9.6 6.4 11.5c2.4 2.9 7.1 7.3 13.5 8.2 3.2.4 10-.5 12.9-1.9 1-.4 3.6-5.4 3.6-5.4s-11-2.5-13-6c-1.1-1.8-.8-8.5-.8-8.5"/></defs><clipPath id="al"><use xlink:href="#ak" overflow="visible"/></clipPath><linearGradient id="am" gradientUnits="userSpaceOnUse" x1="-240.915" y1="443.694" x2="-239.851" y2="443.694" gradientTransform="rotate(-148.321 -6123.908 6445.78) scale(34.1674)"><stop offset="0" stop-color="#fff"/><stop offset=".356" stop-color="#fff"/><stop offset=".629" stop-color="#f6f6f6"/><stop offset="1" stop-color="#e3e3e2"/></linearGradient><path clip-path="url(#al)" fill="url(#am)" d="M255.3 119.6L218 96.5l-20.6 33.4 37.3 23z"/></g><defs><path id="an" d="M157.6 12.1h45.9v125.7h-45.9z"/></defs><clipPath id="ao"><use xlink:href="#an" overflow="visible"/></clipPath><path clip-path="url(#ao)" fill="#EDEDED" d="M158.3 53.5l15.5-13.8c2.6-4 3.8-4.4 5.5-6.6 4.3-5.7 22-21 22-21s-9.6 12.2-13.5 21.3c-2 4.7-9.2 33.4-9.2 33.4s-4-.3-7-1.2c-9.5 9.4-4.3 22.1 1.2 33.9 4.6 9.9 19.8 26.7 23 29.7 1.6 1.5 3.6 4.8 3.6 4.8l4 3.9s-21.9-1.9-37.4-36.7c-4.7-10.5-7.5-23.7-8.4-32-.3-3.5.7-15.7.7-15.7"/><defs><path id="ap" d="M239.6 127.2h13.8v9.2h-13.8z"/></defs><clipPath id="aq"><use xlink:href="#ap" overflow="visible"/></clipPath><path clip-path="url(#aq)" fill="#EDEDED" d="M244.3 131.2l9.1-4s-2.2 3.5-3.1 4.6c-1.2 1.5-3 3.3-6.4 4-.7.1-4.3.6-4.3.6l4.7-5.2z"/><defs><path id="ar" d="M221.3 135.9h13.3v16h-13.3z"/></defs><clipPath id="as"><use xlink:href="#ar" overflow="visible"/></clipPath><path clip-path="url(#as)" fill="#EDEDED" d="M228.9 136.9s-1.2 4.1-1.8 5.3c-1.6 3.3-5.2 4.2-5.2 4.2s.7 1 .9 2.6c.1 1.3-1.4 2.9-1.4 2.9s4.9-.9 7-2.4c3.2-2.2 4.8-7.4 5.4-10.9.2-1 .9-2.8.9-2.8l-5.8 1.1z"/><defs><path id="at" d="M78.1 66.1H134v46.8H78.1z"/></defs><clipPath id="au"><use xlink:href="#at" overflow="visible"/></clipPath><path clip-path="url(#au)" fill="#EDEDED" d="M81.7 113s-4.7-11.6-3.4-21.2c1.4-9.5 9.6-15.7 9.6-15.7l2.8 11.3s7.8-11.7 17.5-17.7c8.2-5 20.8-4.4 24.6.5 4.2 5.2-5.6 26.2-5.6 26.2s-1.8-11.1-4.5-13.3c-6.1-5-18.2-1.1-20.2 9.7-2 10.6 4.5 17.2 4.5 17.2l-25.3 3z"/><defs><path id="av" d="M21.5 81.5h55.9v28.4H21.5z"/></defs><clipPath id="aw"><use xlink:href="#av" overflow="visible"/></clipPath><g clip-path="url(#aw)"><defs><path id="ax" d="M77.4 106.6s-6.4-2.8-11.3-2.8c-7.9.1-17.9 6.1-17.9 6.1s12.3-10.4 12.5-15.4c.1-1.5-7.5 2.6-7.5 2.6s-9.7 1.1-18.4-.5c-9.5-1.7-13.3-4.2-13.3-4.2s18-5.4 23.6-6.9c7.8-2.1 32.3-4.1 32.3-4.1S75 90.8 75 94.1c0 3.2 2.4 12.5 2.4 12.5"/></defs><clipPath id="az"><use xlink:href="#ax" overflow="visible"/></clipPath><defs><filter id="ay" filterUnits="userSpaceOnUse" x="20.5" y="79.5" width="57.9" height="32.5"><feColorMatrix values="1 0 0 0 0 0 1 0 0 0 0 0 1 0 0 0 0 0 1 0"/></filter></defs><mask maskUnits="userSpaceOnUse" x="20.5" y="79.5" width="57.9" height="32.5" id="aB"><g filter="url(#ay)"><linearGradient id="aA" gradientUnits="userSpaceOnUse" x1="-243.146" y1="444.984" x2="-242.082" y2="444.984" gradientTransform="matrix(-66.9375 -2.4299 -2.4299 66.9376 -15114.282 -30280.174)"><stop offset="0" stop-color="#fff"/><stop offset=".245" stop-color="#ddd"/><stop offset=".783" stop-color="#888"/><stop offset="1" stop-color="#636363"/></linearGradient><path clip-path="url(#az)" fill="url(#aA)" d="M77.3 111.9l-56.8-2 1.1-30.4 56.8 2z"/></g></mask><linearGradient id="aC" gradientUnits="userSpaceOnUse" x1="-243.146" y1="444.984" x2="-242.082" y2="444.984" gradientTransform="matrix(-66.9375 -2.4299 -2.4299 66.9376 -15114.282 -30280.174)"><stop offset="0" stop-color="#0075be"/><stop offset=".833" stop-color="#0097dc"/><stop offset="1" stop-color="#009ee2"/></linearGradient><path clip-path="url(#az)" mask="url(#aB)" fill="url(#aC)" d="M77.3 111.9l-56.8-2 1.1-30.4 56.8 2z"/></g><g><defs><path id="aD" d="M38.9 100.8h96.8v50H38.9z"/></defs><clipPath id="aE"><use xlink:href="#aD" overflow="visible"/></clipPath><path clip-path="url(#aE)" fill="#EDEDED" d="M135.7 100.8s-18.4 6-24.6 7.3c-6 1.3-23.8 3.3-23.8 3.3s-14.6 9.7-17.5 14.6c-2.1 3.6.4 13.9-3 16.4-2.9 2.1-10.7-.7-14.2-1.6-3.6-.9-13.7-5.8-13.7-5.8s5.1 6.2 8.5 8.6c1.2.9 9.2 6.6 9.2 6.6l10.8.6s8.5-2.4 11.6-3.2c2.4-.6 10.1-3.8 10.1-3.8s17.6-18.6 24.1-24.7c5.2-5 22.5-18.3 22.5-18.3"/></g><g><defs><path id="aF" d="M69.9 106.6h11v6.9h-11z"/></defs><clipPath id="aG"><use xlink:href="#aF" overflow="visible"/></clipPath><path clip-path="url(#aG)" fill="#EDEDED" d="M80.9 111.9l-3.5-5.3-7.5 6.9z"/></g><g><defs><path id="aH" d="M38.8 103.9h28.3v28.6H38.8z"/></defs><clipPath id="aI"><use xlink:href="#aH" overflow="visible"/></clipPath><path clip-path="url(#aI)" fill="#EDEDED" d="M67.1 103.9c-.5.3-10.3 4.3-18.7 13.1-4.4 4.6-9.6 15.5-9.6 15.5s-.4-8.2 1.9-11.7c1.3-2.1 2.6-7.1 4.4-8.8 2.6-2.6 13.3-6.6 13.3-6.6l8.7-1.5z"/></g><g><defs><path id="aJ" d="M59.9 180.6h13.6v28.9H59.9z"/></defs><clipPath id="aK"><use xlink:href="#aJ" overflow="visible"/></clipPath><path clip-path="url(#aK)" fill="#EDEDED" d="M73.5 180.6s-3.4 7.8-3.6 10.5c-.3 2.9-1.3 5.3-1.3 10.2 0 1.7 1.9 8.1 1.9 8.1s-5.9-1.3-8.5-4.3c-.7-.8-2.1-3.6-2.1-3.6s4.3-3.5 4.8-5.2c2.4-9.1 8.8-15.7 8.8-15.7"/></g><g><defs><path id="aL" d="M78.1 189.1h10.3v20.3H78.1z"/></defs><clipPath id="aM"><use xlink:href="#aL" overflow="visible"/></clipPath><path clip-path="url(#aM)" fill="#EDEDED" d="M84 189.1s-3.1 6.6-3.9 8.9c-.7 2.3-2 9.6-2 9.6l10.3 1.8s-4.3-4.8-4.6-9c-.3-3.2.2-11.3.2-11.3"/></g><g><defs><path id="aN" d="M45.6 156.2h25.7v45.1H45.6z"/></defs><clipPath id="aO"><use xlink:href="#aN" overflow="visible"/></clipPath><path clip-path="url(#aO)" fill="#EDEDED" d="M71.3 167.7c-.2.9-9.9 4.9-12 7.4-2.9 3.4-5.6 12.3-5.9 16.8-.3 5.4 2.1 9.5 2.1 9.5s-8.5-3.1-9.5-5.6c-1.6-3.9 2.3-12.5 4.3-16.2 1.7-3.2 8.7-11.5 8.7-11.5s-4.2-2.5-6-5.9c-1.5-2.9-1.4-5.9-1.4-5.9s6.2 7 8.7 8.2c5.4 2.5 11 3.2 11 3.2"/></g><g><defs><path id="aP" d="M113.4 95.7H172v78.5h-58.6z"/></defs><clipPath id="aQ"><use xlink:href="#aP" overflow="visible"/></clipPath><path clip-path="url(#aQ)" fill="#EDEDED" d="M137.3 165.3c2.7 1.2 12.1 4 14.8 2.8 6.3-2.8 11.6-25 11.6-25s-1.6-10-1.8-13.3c-.4-4.8-.3-14.7-1.5-19.3-.9-3.5-6.4-14.7-6.4-14.7s8.1 10.7 9.4 14.4c1.5 4 1.3 14.9 2.5 19.1 1 3.6 6.2 11.3 6.2 11.3l-19.7 33.7s-12.5-1-16.6-1.3c-5.6-.4-22.3-3.3-22.3-3.3s.5-3.4 1.4-4.8c1.6-2.3 9-10 9-10s9.5 8.7 13.4 10.4"/></g><g><defs><path id="aR" d="M109.7 169.5h30.7v61.2h-30.7z"/></defs><clipPath id="aS"><use xlink:href="#aR" overflow="visible"/></clipPath><path clip-path="url(#aS)" fill="#EDEDED" d="M139 173.5s2.2 22.8 1 29.1c-1.5 7.5-14.4 28.1-14.4 28.1s-7.9-2.6-10.5-3.7c-.7-.3-3.3-2.7-3.3-2.7s6.9-12.2 7-16.7c.1-6.9-9-26.1-9-26.1l3.7-12s8.6 1.5 11.6 2.3c3.1.9 13.9 1.7 13.9 1.7"/></g><g><defs><path id="aT" d="M256.5 98.3H340v18.8h-83.5z"/></defs><clipPath id="aU"><use xlink:href="#aT" overflow="visible"/></clipPath><path clip-path="url(#aU)" fill="#EDEDED" d="M261.5 105.5s25.7 1.9 31 2.2c6.5.4 15.1 8.3 18.4 2.7 5.5-9.1 13.7-12.1 13.7-12.1s2.2 4.3 3.5 5.1c3.8 2.2 11.7 2.2 11.7 2.2s-2.4 2.9-3.1 3.9c-2.5 3.3-7.6 4.1-10.3 4.7-1.8.4-6.6.4-6.6.4s-8.5 2-11.1 2.4c-4.5.7-21.2-1.5-25.7-1.5-8 0-24.7 1.5-24.7 1.5l-1.9-5.3 5.1-6.2z"/></g><g><defs><path id="aV" d="M324.4 78.5h11.9v6.4h-11.9z"/></defs><clipPath id="aW"><use xlink:href="#aV" overflow="visible"/></clipPath><path clip-path="url(#aW)" fill="#EDEDED" d="M336.3 78.5l-11.8.7v5.7l10.2-4.5z"/></g><g><defs><path id="aX" d="M83.1 221.7H173V276H83.1z"/></defs><clipPath id="aY"><use xlink:href="#aX" overflow="visible"/></clipPath><g clip-path="url(#aY)"><defs><path id="aZ" d="M127 230.7l-9.6 13.3 10.7 2.8s-5.4 5.2-6.2 7.1c-.7 1.5-2.1 6.4-2.1 6.4H131l3.1-7.5s9.5 10.3 13.7 12.3c8.5 4.1 25.2 0 25.2 0s-.2 5.8-1.5 6.9c-9 7.4-40 2.4-51.6 1.6-10.5-.8-31.5-2.3-36.3-7.4-1.6-1.7 2.3-7.7 3.6-9.6 6.4-9 16.9-27.8 23.2-34.6.8-.8 2.2 1 2.2 1s-.9 1.7-.7 2.2c1.4 3.3 15.1 5.5 15.1 5.5"/></defs><clipPath id="bb"><use xlink:href="#aZ" overflow="visible"/></clipPath><defs><filter id="ba" filterUnits="userSpaceOnUse" x="76.6" y="212.9" width="101.6" height="74.7"><feColorMatrix values="1 0 0 0 0 0 1 0 0 0 0 0 1 0 0 0 0 0 1 0"/></filter></defs><mask maskUnits="userSpaceOnUse" x="76.6" y="212.9" width="101.6" height="74.7" id="bd"><g filter="url(#ba)"><linearGradient id="bc" gradientUnits="userSpaceOnUse" x1="-244.031" y1="445.349" x2="-242.966" y2="445.349" gradientTransform="scale(-94.6203 94.6203) rotate(-5.185 -5010.84 -2450.375)"><stop offset="0" stop-color="#fff"/><stop offset=".245" stop-color="#ddd"/><stop offset=".783" stop-color="#888"/><stop offset="1" stop-color="#636363"/></linearGradient><path clip-path="url(#bb)" fill="url(#bc)" d="M172.2 287.6l-95.6-8.7 6-66 95.6 8.7z"/></g></mask><linearGradient id="be" gradientUnits="userSpaceOnUse" x1="-244.031" y1="445.349" x2="-242.966" y2="445.349" gradientTransform="scale(-94.6203 94.6203) rotate(-5.185 -5010.839 -2450.375)"><stop offset="0" stop-color="#0075be"/><stop offset=".833" stop-color="#0097dc"/><stop offset="1" stop-color="#009ee2"/></linearGradient><path clip-path="url(#bb)" mask="url(#bd)" fill="url(#be)" d="M172.2 287.6l-95.6-8.7 6-66 95.6 8.7z"/></g></g><g><defs><path id="bf" d="M170.1 115.5h30.7v35.3h-30.7z"/></defs><clipPath id="bg"><use xlink:href="#bf" overflow="visible"/></clipPath><g clip-path="url(#bg)"><defs><path id="bh" d="M172 115.5c-1.9 4.9 12.6 15.8 10.2 20.9-1.5 3.1-12.1 2.7-12.1 2.7s9.8 9.1 13.9 10.7c3.9 1.5 16.8 1.1 16.8 1.1s-.7-5.9-3.3-10.6c-1.1-2-7.1-7.8-7.1-7.8s-7.3-5.6-9.3-7.9c-2.7-3.1-9.1-9.1-9.1-9.1"/></defs><clipPath id="bj"><use xlink:href="#bh" overflow="visible"/></clipPath><defs><filter id="bi" filterUnits="userSpaceOnUse" x="166.9" y="112.7" width="37.1" height="41.2"><feColorMatrix values="1 0 0 0 0 0 1 0 0 0 0 0 1 0 0 0 0 0 1 0"/></filter></defs><mask maskUnits="userSpaceOnUse" x="166.9" y="112.7" width="37.1" height="41.2" id="bl"><g filter="url(#bi)"><linearGradient id="bk" gradientUnits="userSpaceOnUse" x1="-240.514" y1="444.816" x2="-239.449" y2="444.816" gradientTransform="scale(-33.7686 33.7686) rotate(-5.185 -4990.877 -2365.32)"><stop offset="0" stop-color="#fff"/><stop offset=".245" stop-color="#ddd"/><stop offset=".783" stop-color="#888"/><stop offset="1" stop-color="#636363"/></linearGradient><path clip-path="url(#bj)" fill="url(#bk)" d="M200.6 154l-33.7-3.1 3.5-38.2 33.6 3.1z"/></g></mask><linearGradient id="bm" gradientUnits="userSpaceOnUse" x1="-240.514" y1="444.816" x2="-239.449" y2="444.816" gradientTransform="scale(-33.7686 33.7686) rotate(-5.185 -4990.878 -2365.32)"><stop offset="0" stop-color="#0075be"/><stop offset=".833" stop-color="#0097dc"/><stop offset="1" stop-color="#009ee2"/></linearGradient><path clip-path="url(#bj)" mask="url(#bl)" fill="url(#bm)" d="M200.6 154l-33.7-3.1 3.5-38.2 33.6 3.1z"/></g></g><g><defs><path id="bn" d="M163.7 141.6h42.2V195h-42.2z"/></defs><clipPath id="bo"><use xlink:href="#bn" overflow="visible"/></clipPath><g clip-path="url(#bo)"><defs><path id="bp" d="M163.7 154.7s15.8 9.1 20 13.5C195.2 180.5 200 195 200 195l5.9-24.2-5-20.1s-11.6 0-15.3-1c-5.9-1.6-14.2-8.2-14.2-8.2l-7.7 13.2z"/></defs><clipPath id="br"><use xlink:href="#bp" overflow="visible"/></clipPath><defs><filter id="bq" filterUnits="userSpaceOnUse" x="158.8" y="137.8" width="51.8" height="61"><feColorMatrix values="1 0 0 0 0 0 1 0 0 0 0 0 1 0 0 0 0 0 1 0"/></filter></defs><mask maskUnits="userSpaceOnUse" x="158.8" y="137.8" width="51.8" height="61" id="bt"><g filter="url(#bq)"><linearGradient id="bs" gradientUnits="userSpaceOnUse" x1="-241.974" y1="445.047" x2="-240.91" y2="445.047" gradientTransform="scale(-45.921 45.921) rotate(-5.185 -4996.563 -2398.11)"><stop offset="0" stop-color="#fff"/><stop offset=".245" stop-color="#ddd"/><stop offset=".783" stop-color="#888"/><stop offset="1" stop-color="#636363"/></linearGradient><path clip-path="url(#br)" fill="url(#bs)" d="M205.5 198.9l-46.7-4.3 5.2-56.8 46.6 4.3z"/></g></mask><linearGradient id="bu" gradientUnits="userSpaceOnUse" x1="-241.974" y1="445.047" x2="-240.91" y2="445.047" gradientTransform="scale(-45.921 45.921) rotate(-5.185 -4996.563 -2398.11)"><stop offset="0" stop-color="#0075be"/><stop offset=".833" stop-color="#0097dc"/><stop offset="1" stop-color="#009ee2"/></linearGradient><path clip-path="url(#br)" mask="url(#bt)" fill="url(#bu)" d="M205.5 198.9l-46.7-4.3 5.2-56.8 46.6 4.3z"/></g></g><g><defs><path id="bv" d="M190.4 132.4h60.4v62.9h-60.4z"/></defs><clipPath id="bw"><use xlink:href="#bv" overflow="visible"/></clipPath><g clip-path="url(#bw)"><defs><path id="bx" d="M202 136.4s7.6 10.2 11 12.4c2.5 1.6 7.7 3.8 10.6 3.2 8.3-1.8 11-16 11-16l11.2-1 5.1 14.4s-21 .3-33.8 19.3c-6.8 10.1-8.6 26.8-8.6 26.8s-2.4-22-3.9-29.8c-1.2-5.8-4.2-19.3-7.1-24.5-1.4-2.6-7-8.7-7-8.7l11.5 3.9z"/></defs><clipPath id="bz"><use xlink:href="#bx" overflow="visible"/></clipPath><defs><filter id="by" filterUnits="userSpaceOnUse" x="184.8" y="127" width="71.7" height="73.8"><feColorMatrix values="1 0 0 0 0 0 1 0 0 0 0 0 1 0 0 0 0 0 1 0"/></filter></defs><mask maskUnits="userSpaceOnUse" x="184.8" y="127" width="71.7" height="73.8" id="bB"><g filter="url(#by)"><linearGradient id="bA" gradientUnits="userSpaceOnUse" x1="-243.202" y1="445.163" x2="-242.137" y2="445.163" gradientTransform="scale(-65.1395 65.1395) rotate(-5.185 -5010.847 -2419.433)"><stop offset="0" stop-color="#fff"/><stop offset=".245" stop-color="#ddd"/><stop offset=".783" stop-color="#888"/><stop offset="1" stop-color="#636363"/></linearGradient><path clip-path="url(#bz)" fill="url(#bA)" d="M250.3 200.8l-65.5-5.9 6.1-67.9 65.6 5.9z"/></g></mask><linearGradient id="bC" gradientUnits="userSpaceOnUse" x1="-243.202" y1="445.163" x2="-242.137" y2="445.163" gradientTransform="scale(-65.1395 65.1395) rotate(-5.185 -5010.847 -2419.433)"><stop offset="0" stop-color="#0075be"/><stop offset=".833" stop-color="#0097dc"/><stop offset="1" stop-color="#009ee2"/></linearGradient><path clip-path="url(#bz)" mask="url(#bB)" fill="url(#bC)" d="M250.3 200.8l-65.5-5.9 6.1-67.9 65.6 5.9z"/></g></g><g opacity=".6"><defs><path id="bD" d="M208.7 85h10v10h-10z"/></defs><clipPath id="bE"><use xlink:href="#bD" overflow="visible"/></clipPath><g clip-path="url(#bE)"><defs><path id="bF" d="M208.9 88.7c-.7 2.7.8 5.4 3.5 6.1 2.6.7 5.4-.8 6.1-3.5.7-2.6-.8-5.4-3.5-6.1-2.6-.8-5.4.8-6.1 3.5"/></defs><clipPath id="bG"><use xlink:href="#bF" overflow="visible"/></clipPath><radialGradient id="bH" cx="-206.14" cy="443.879" r="1.064" gradientTransform="rotate(-164.56 -509.862 1003.254) scale(4.6774)" gradientUnits="userSpaceOnUse"><stop offset="0" stop-color="#81cff4"/><stop offset=".171" stop-color="#71c9f2"/><stop offset=".503" stop-color="#48b9ec"/><stop offset=".961" stop-color="#06a0e3"/><stop offset="1" stop-color="#009ee2"/></radialGradient><path clip-path="url(#bG)" fill="url(#bH)" d="M222.1 85.2L209 81.6l-3.7 13.1 13.2 3.6z"/></g></g><path fill="#B2B2B1" d="M206.7 94.4c5.5 6.4 14.5 4.7 15.6 2.4 1.3-2.9 1.4-7.4-.4-10.6-1.9-3.3-4.5-4.7-6.3-5.3-3.3-1.2-6.1-.5-8.6 2.3s-3 8.1-.3 11.2m1.3-.4c-1.6-2.1-1.7-4.8-.4-7.5 1.5-3.1 3.8-4.1 7.5-3.2 2.2.6 8 3.4 6.5 11.7-.4 2.5-4.5 2.9-6.7 2.6-2.9-.3-5.2-1.3-6.9-3.6"/></g><g><defs><path id="bI" d="M210.2 90.1c.3 2.3 2.6 2.8 2.6 2.8 5.6 1.1 4.8-5.7 2-6.5-.4-.1-.8-.2-1.1-.2-2.1 0-3.7 1.9-3.5 3.9"/></defs><clipPath id="bJ"><use xlink:href="#bI" overflow="visible"/></clipPath><radialGradient id="bK" cx="-187.984" cy="443.149" r="1.064" gradientTransform="matrix(-3.0977 -.8555 .8555 -3.0977 -747.75 1301.513)" gradientUnits="userSpaceOnUse"><stop offset="0" stop-color="#585857"/><stop offset=".39" stop-color="#444443"/><stop offset="1" stop-color="#1e1e1c"/></radialGradient><path clip-path="url(#bJ)" fill="url(#bK)" d="M220.4 86.8l-9.8-2.7-2.6 9.3 9.9 2.7z"/></g><g><path fill="#FFF" d="M212.1 88.1s.4-1 1.1-.8c.8.2.6 1 .2 1.4-.4.5-1.3.5-1.3-.6"/><g opacity=".6"><defs><path id="bL" d="M245.4 84.9h6.7v9.5h-6.7z"/></defs><clipPath id="bM"><use xlink:href="#bL" overflow="visible"/></clipPath><g clip-path="url(#bM)"><defs><path id="bN" d="M247.6 86.2c-1.6 1.6-2.6 5-2.1 6.7.6 2 2.4 2.2 4.2.4 1.7-1.7 2.8-4.8 2.2-6.8-.6-2-2.6-2.1-4.3-.3"/></defs><clipPath id="bO"><use xlink:href="#bN" overflow="visible"/></clipPath><radialGradient id="bP" cx="-195.451" cy="401.986" r="1.064" gradientTransform="matrix(-.9964 -3.3816 2.9703 -2.9552 -1140.082 616.672)" gradientUnits="userSpaceOnUse"><stop offset="0" stop-color="#81cff4"/><stop offset=".171" stop-color="#71c9f2"/><stop offset=".503" stop-color="#48b9ec"/><stop offset=".961" stop-color="#06a0e3"/><stop offset="1" stop-color="#009ee2"/></radialGradient><path clip-path="url(#bO)" fill="url(#bP)" d="M254.9 92.6l-4.1-13.9-8.2 8.1 4.1 13.9z"/></g></g></g><g><defs><path id="bQ" d="M247 87.8c-1.3 1.9-.7 3.5-.7 3.5 1.3 3.9 5-1.8 4.5-3.9-.2-.8-.8-1.3-1.5-1.3s-1.6.5-2.3 1.7"/></defs><clipPath id="bR"><use xlink:href="#bQ" overflow="visible"/></clipPath><radialGradient id="bS" cx="-173.622" cy="379.89" r="1.064" gradientTransform="matrix(-.5761 -2.3236 2.1024 -1.9175 -650.18 414.228)" gradientUnits="userSpaceOnUse"><stop offset="0" stop-color="#585857"/><stop offset=".39" stop-color="#444443"/><stop offset="1" stop-color="#1e1e1c"/></radialGradient><path clip-path="url(#bR)" fill="url(#bS)" d="M253.1 93.5L250.3 82l-6.4 5.8 2.9 11.5z"/></g><g><path fill="#FFF" d="M247.3 88.1s.4-1 1.1-.8c.8.2.6 1 .2 1.4-.4.5-1.3.5-1.3-.6"/><path fill="#B2B2B1" d="M256.1 82.2c-.9-2.6-5.3-3.1-8.9 2.8-2.3 3.8-5.2 11.3-4 12.9 1.3 1.7 6.3 1.7 10.4-3.7 2.9-3.8 3.5-9.4 2.5-12m-11.6 14.9c-1.2-2.5 2.8-11.7 7.1-14 2-1.1 3.1.7 3.3 3.1.3 3.2-.9 5.7-2.7 8.2-2.3 3.2-6.9 4.3-7.7 2.7"/></g><g><defs><path id="bT" d="M159.6 276.4c1.2 2.7 2.6 7 1.5 8.7-.1.2-.5.8-1.8.8-4.4-.1-5-.2-8.4-.7-1-.2-2.2-.4-3.8-.6-.7-.1-1.2-.3-1.4-.7-.3-.4-.3-1.2 0-2.4.6-2.5 1-4.3 1.2-5.1 2.4.1 4.6.1 6.7.1 2.2 0 4.2-.1 6-.1m-29.7 6.6c-3.4-.5-7-.9-10.8-1.4-4.9-.6-9.9-1.2-14.6-1.9-2-.3-2.4-.8-2.5-1-.2-.3.1-.8.3-1.2 1.1-2.1 1.9-3.6 2.3-4.4 10.2 1.3 23.2 2.5 34.9 3-.8 2.1-2.1 5.1-3.2 5.9-1 .8-3.3 1.1-5 1.1-.6 0-1 0-1.4-.1m-38.1-4.2c2.5-1 4.8-5.1 5.6-6.8 1.6.3 3.3.5 5.2.8-.4.8-1.1 2.1-2 3.8-.6 1.1-.7 2.1-.3 2.9.5 1 1.8 1.7 3.9 2 4.7.7 9.8 1.3 14.7 1.9 3.8.5 7.4.9 10.8 1.4.5.1 1 .1 1.6.1 2 0 4.5-.4 6-1.5 1.9-1.4 3.5-5.8 4-7.3 1.3.1 2.5.1 3.8.1-.2.9-.6 2.6-1.1 4.7-.3 1.1-.5 2.6.3 3.8.5.8 1.4 1.3 2.7 1.4 1.6.2 2.8.4 3.8.6 3.3.5 4.1.7 8.6.7h.1c1.9 0 2.8-.9 3.3-1.6 1.6-2.6-.2-7.4-1.1-9.7 2.3-.2 4.1-.4 5.3-.7.4-.1.8-.2 1.3-.4 1.2 2.4 5 10.7 2.6 15-.9 1.6-2.7 2.5-5.3 2.6-27.3 1.2-88.8-9.6-97.1-11.1.4-1.3 1.7-3.7 5.7-3.4 1 .1 2.3.3 3.8.5 2.6.4 5.6.9 8.5.9 1.6.2 3.6-.1 5.3-.7m29.1-18.7c.2-1.5 1.1-4.8 4-8.5 2.2-2.8 4.8-4.2 5.4-4.5 3.3-.7 7-1.3 10.7-1.7-2.4 1.3-4.9 3.2-6.9 6.1-2.8 4-4 7.5-4.5 8.9l-8.7-.3zM104 271.2c-6.5-.9-11.7-1.8-14.3-2.7l-.5-.2c-1.7-.6-3.4-1.1-3.9-2.7-.7-2.2.9-6.1 4.8-11.8 4.1-5.9 8.4-12.4 12-17.7 1-1.5 1.9-2.8 2.7-4.1 1.9 1.9 7.3 6.3 16.8 7.9 6.8 1.2 13.9 1.4 18.1 1.4h1.6c-1 1.1-1.8 2-2.1 2.4-10.9 1.3-20.4 4.3-21.1 4.5-.5.2-.7.7-.6 1.1.2.5.7.7 1.1.6.1 0 3-.9 7.4-2-.8.7-1.5 1.5-2.3 2.4-4.5 5.6-4.5 10.3-4.5 10.5 0 .5.4.9.9.9l10.5.3c.4 0 .8-.3.9-.7 0 0 .9-4.1 4.4-9 4.3-6.2 11.3-7.5 12.4-7.5.1 0 .2 0 .3-.1 5.2 0 10.1.6 14 2.4 9.4 4.3 10.3 14.2 9.4 21.7-.3 2.5-1.8 3.8-5.5 4.8-2.3.7-7 .9-12.9.9-14.1.2-35.1-1.4-49.6-3.3m17.8-33c-9.3-1.6-14.6-6.2-16.1-7.7 1.4-2.1 2.6-3.8 3.3-4.8.7-1 1.4-1.6 1.9-2l-.3.6v.1c0 .1-.1.1-.1.2v.4c0 .1 0 .1.1.2 0 .1 0 .1.1.2l.1.1.1.1c.2.2 6.1 4.6 16.7 6.5 7.1 1.3 13.3 1.5 16.6 1.5 1.6 0 2.6-.1 2.6-.1.1 0 .2 0 .2-.1h.1c.1-.1.2-.1.3-.2.5-.5.9-1.1 1.3-1.6-.1.9-.7 2.4-3.2 5.1-.9 1-1.9 2-2.7 3h-3.3c-4.1-.2-11-.4-17.7-1.5m-56.9-31.6c-1.9-1.1-3.5-3.4-4.3-4.7.4-.1.7-.3 1-.5 2.6-1.6 3.9-5.4 4.9-8.5.3-1.1.7-2.1 1-2.8 1.2-2.6 5.8-8.5 7.5-10.7 2.1 2.1 4.5 4.3 7.1 6 .6.4 1.3.8 2 1.2-.8 1.6-2.7 5.3-3.8 8.4-.5 1.4-.9 3.2-1.3 5.2-.5 2.8-1.1 5.9-2.1 7-.9 1-2.6 1.4-4.5 1.4-2.5.1-5.4-.7-7.5-2m63 23.5c-8.2-1.5-13.5-4.5-15.3-5.7 3.9-6.4 6.1-11.2 6.7-15 .8-4.7-2.2-14.3-8.9-28.5 1.6-2.9 2.5-6.5 3.3-10.1 12.9 2.6 25.3 4 35.5 4h2.1c-.6 1.1-1 2.1-1.3 2.9-1.4 4-1.2 7.9.5 11.2 1.6 3.1 4.4 5.5 7.8 6.7 1 .3 1.9.6 2.8.9.6 6.4.3 11.4-.8 14.7-1.2 3.5-5.3 9.7-12 17.9l-.1.1c-.6.8-1.3 1.5-1.9 2.3h-2.1c-3.3.1-9.4-.1-16.3-1.4m55.7-29.8c-7.9-1.6-14.2-3.2-21.3-5.4-1.1-.3-2.2-.7-3.4-1.1-2.9-1-5.4-3-6.7-5.7-1.4-2.8-1.6-6.2-.4-9.8.9-2.8 4.7-8.8 8-14.1.8-1.3 1.6-2.6 2.3-3.8 3.3-5.5 8.4-14.8 10.1-18 8.3 8.5 20.5 9.6 26.2 9.6 1 0 1.8 0 2.4-.1 1.8 6.2 3 13.3 3.8 20.1-1.6 6.7-4.9 19.8-6.2 22.3-2.2 4.4-5.7 6.5-10.6 6.5-1.3 0-2.7-.2-4.2-.5m29.9 7.3c-3.5-2.5-4.1-7.1-4.5-10.9-.4-3.8-.6-5.9-.9-8.4-.2-2.6-.5-5.5-1.2-11.2-.2-1.7-.4-3.5-.6-5.3-1.4-11-3.7-23.1-8-30.7-1.5-2.6-1.8-3-5.3-6.9 3.3 1.8 6.5 3.2 9.6 4.2 3.5 4.7 9.2 11.6 13.9 13.3 1.6.6 3.3.9 5 .9 2.7 0 5.3-.8 7-2.2 3.6-3 6.1-11.1 6.7-13.2 2.2-.3 3.8-.7 4.4-.9.4.1 1.2.2 2.3.2.9 0 1.9-.1 2.9-.3 1.4 3.4 7.4 17.9 9 22 2.9 7.5 8 21.6 9.6 31 1.3 7.5-2.2 11.8-11.6 14.2-7.7 2-11.4 2.7-15.3 3.4-2.4.4-4.9.9-8.5 1.7-2.7.6-5.1.9-7.2.9-3 .1-5.5-.6-7.3-1.8m27.9-72.9l2.6-2.9c1-.3 4.6-1.2 7.9-3-1.2 1.5-2.6 2.9-4.4 4.2-1.8 1.3-4 1.6-5.6 1.6-.2.1-.3.1-.5.1m-20.5 10.6c-4.9-.3-8.5-4.9-9.9-12.6-.5-2.5-.9-7.7-1.1-11.2 3.1 5.1 6.2 9.5 10 12.4.8 1 2.8 3.4 3.4 4.8 1.2 2.7 1 4.8 1 5.4-.8.8-1.8 1.3-3 1.3-.3 0-.3 0-.4-.1m-151-30.6c.3 0 27.3-2.2 42.9-6.2 7.7-1.9 14.5-4.2 19.4-6.1-2.6 1.9-5.3 3.9-7.7 5.9-3.2 2.7-14.1 12.1-20.3 18.1-.3.3-1.8 1.8-3.7 3.9-3.8 4-11.7 12.4-12.6 13-1.1.7-3 1.2-5 1.8-1.5.4-3.1.9-4.4 1.4-3.7 1.5-8.1 2.9-10.5 3.5-1 .2-2.9-.1-4.9-.3-2-.3-4.1-.6-6-.5-5.9-3.3-10.7-6.8-14.4-10.2-5.1-4.9-3.5-13.3-.7-19.1.9-1.7 2.5-4.5 5-8.1 1.1-.7 9.2-5.7 19-6.6 5.3-.5 10.2 1.9 11.3 2.6 1 1.9 2 3.3 2.7 4.2-6 .6-10.2 1-10.3 1-.5 0-.9.5-.8 1 .1.3.5.7 1 .7m-38.7-1.6c-1-5.6-.5-9.4-.2-10.7l7.6-2.4c.1 1.9.4 5.7.8 7.8.6 4 2.4 6.7 3.2 7.8-.9 1.4-1.5 2.6-2 3.5-.5 1.1-1 2.1-1.4 3.2-.5.2-1.6.4-3 .7-1-1.2-4.2-5.5-5-9.9m15.3-5c.7-1 1.9-2.7 3.2-4.4.8-.6 7.3-5.6 16.7-5.6h.1c4.8 0 7.3 1.2 8.1 1.7.4 2 .9 3.8 1.6 5.3-2.3-1-6.2-2.2-10.3-1.8-10.9 1-19.5 6.7-20 7-.1 0-.1.1-.1.1 0-.7.2-1.5.7-2.3m21.9 43.7c2.4-.5 6.8-2 10.7-3.5 1.3-.5 2.8-.9 4.3-1.4 2.1-.6 4.2-1.2 5.5-2 .9-.5 5.2-5.1 13-13.3 1.9-2 3.4-3.6 3.7-3.9 6.2-5.9 17-15.3 20.2-18 6.2-5.3 13.9-10.2 19.4-13.4.1 0 .1-.1.2-.1 1.1-.5 7.7-2.7 12.5 5.2 5.6 9.2 6 15.4 6.3 20.9.1 2.3.3 4.5.8 6.6 1.2 5 3.3 8.9 5.9 12-1.3 2.4-6.8 12.7-10.3 18.5-.7 1.2-1.5 2.4-2.3 3.7-2 3.3-4.2 6.8-5.9 9.8-10.5.3-24-1.1-38.2-3.9.1-.4.2-.8.2-1.2l.1-.3c.5-2.6 12.1-14.4 17.1-19.4l3-3c4.7-4.9 23.9-17.7 24.1-17.8.4-.3.5-.8.3-1.3-.3-.4-.8-.5-1.3-.3-.8.5-19.6 13-24.4 18.1-.7.7-1.7 1.8-3 3-8.6 8.7-17 17.4-17.6 20.3l-.1.3c-.1.7-.3 1.4-.4 2.1-1 4.8-2.2 9.8-4.9 12.9-2.5 3-9.1 8.9-9.1 9-.1.1-.2.3-.3.5-1 5.1-3.4 13.6-5.2 14.7-4.3 2.8-11 1.4-13.6.6.8-1.6 1.3-4.1 1.8-6.7.4-1.9.7-3.7 1.2-4.9 1.1-3 3-6.7 3.8-8.2 4.2 1.9 9.2 3.3 9.4 3.4h.2c.4 0 .8-.3.9-.7.1-.5-.1-1-.6-1.1-.1 0-8.5-2.4-12.5-5.1-6.6-4.4-12.5-12.4-12.6-12.5-.3-.4-.9-.5-1.3-.2s-.5.9-.2 1.3c.1.2 1.9 2.6 4.6 5.5-1.6 2-6.6 8.4-7.9 11.3-.4.8-.7 1.9-1.1 3-.9 2.8-2.1 6.3-4.1 7.6-2.8 1.7-6.8.6-9.6-.9-2.7-1.5-4.6-3.6-4.6-5.1 0-5.3 3.2-12.4 4.6-14.8 1.8-3 7.6-9 9-10.3 5 .5 12.3-.5 14.1-.8 1.2.6 6.2 3 12 3 4.7 0 9.4-.9 9.6-.9.5-.1.8-.6.7-1.1-.1-.5-.6-.8-1.1-.7 0 0-4.7.9-9.3.9-6.1 0-11.3-2.9-11.4-2.9-.2-.1-.4-.1-.6-.1-3.7.6-14.1 1.7-17 .1-2.2-1.2-4-3.6-4.7-6.4-.7-2.7-.4-5.3.9-7.5.5-.9 1.8-1.2 3.3-1.3 1.8-.1 4 .2 6 .5 1.6.2 3.1.4 4.2.4.8-.1 1.3-.1 1.6-.2m255.1-47.3c1-3 2.3-7.3 2.8-12.5.1-1.1.1-2.3 0-3.5 1.9.5 5.4 1.3 8.2 1.3 5-.1 9.1.6 9.9 1.7.8 1.1 1.1 3.4.6 5.8-.5 2.6-2 6-4.6 7.5-1.9 1.1-4.2 1.5-6.6 1.5-4.3-.1-8.5-1.3-10.3-1.8m-310-16.1c.2-.6.8-1 1.8-1.4 4.2-1.4 7.1-1.9 13.5-2.9.7-.1 1.3 0 1.6.2.4.3.6 1 .6 2.2l.1 1.5c-5.5 1.7-10.6 3.7-15 5.8-1.4-1.6-3.1-4-2.6-5.4m4.5 34.1c-4.7-1.7-10.3-8.2-11.6-16-.5-3.3 2.3-6.6 4.4-7.9 7.3-4.4 18.6-8.7 30.3-11.5 12.2-3 29.8-4.5 35-4.9-.6 1.9-1.1 3.8-1.5 5.8-.6 3.5-.6 6.7-.3 9.6-1.5-.6-4-1.3-7.8-1.3h-.1c-5.9 0-10.7 1.8-13.9 3.5 1.7-2.3 3-4.2 3-4.2.3-.4.2-1-.2-1.3-.4-.3-1-.2-1.3.2-.1.1-6.9 9.5-9.1 12.6-1.6 2.3-1.1 4.5-.7 5.5-.3.5-.6.9-.9 1.4-.8-1.2-1.9-3.4-2.4-6.4-.4-2.7-.8-8.7-.8-8.8 0-.3-.2-.5-.4-.7-.2-.2-.5-.2-.8-.1l-9.2 3c-.3.1-.5.3-.6.6-.1.2-1.2 4.6.1 11.9.8 4.2 3.4 8.1 4.7 9.9-2 .3-4.5.6-7.1.6-2.7-.1-5.9-.5-8.8-1.5m22.1-38.9c1-1.3 4.2-2.4 6-2.6 3.1-.4 5.7-.8 8.2-1.2 4.9-.7 9.1-1.4 14.9-2 2.1-.3 2.7.1 2.8.3.2.2.1.8 0 1.2-.2.6-.3 1.2-.4 1.7-7.6.7-21 2.1-30.9 4.5-.5.1-1 .3-1.5.4 0-.7.3-1.5.9-2.3m106.1 2.8c1.1-3.4 7.6-12.6 10.6-16.8.7 9.4 3.2 22.4 10.5 38 4.7 10.2 12.4 18 20.5 23.4 1.6 1.8 2.8 3.2 3.8 4.3 3.5 4 3.8 4.3 5.2 6.7 1.3 2.3 2.4 5 3.4 8.1-5.3.3-28.2.1-33.5-21.6-.5-2-.6-4.1-.7-6.3-.3-5.4-.7-12.2-6.5-21.8-5-8.2-11.9-6.8-14.2-6.1-.4-.7-.6-2.9.9-7.9M2.8 85.9c.5-1.7 2-3 4.6-3.8 19.1-6 56-11 78-13.7-3.1 3-6.3 7-8.4 12-.7 0-1.8.1-3.4.3.1-.3.2-.7.3-1.1.3-1.2.1-2.1-.4-2.8-.8-.9-2.2-1.1-4.4-.9-5.8.7-10 1.3-14.9 2.1-2.5.4-5.1.8-8.2 1.2-2 .3-5.7 1.5-7.1 3.3-1.2 1.4-1.4 2.9-1.3 3.8-1.5.4-3.1.8-4.6 1.3v-1.1c0-1.1-.2-2.6-1.3-3.5-.7-.6-1.8-.8-3-.6-6.2.9-9.4 1.5-13.8 2.9-1.6.5-2.6 1.4-2.9 2.6-.7 2.2 1 4.8 2.6 6.8-1.6.8-3 1.6-4.4 2.4-.5.3-1.1.7-1.6 1.2-2.4-2.6-6.9-8.4-5.8-12.4m93.1-18.7c1.8-.2 3.4-.4 4.7-.5-2.3 1.5-4.3 2.8-5.6 3.7l.9-3.2zm163.3 46.9c-.3-.9-.7-1.7-1.2-2.4.9-1.1 2.9-3.6 4.3-6.1 2.3-3.8 2.9-7.5 3-7.7v-.1-.2c0-.1-.8-4.9-1.9-10.6 3.9-.4 17.9-1.9 23.5-4.7 2.6-1.3 4.1-2.7 5.9-4.4.4-.3.8-.7 1.2-1.1.6-.6 1.3-1.1 1.9-1.6 1.5-1.2 2.8-2.3 3.6-3.5.7-1.2 1.3-2.8 1.9-4.5.9-2.4 1.8-5.2 3.2-6.3 2.3-1.9 7.5-.7 9.8 1.5 1.6 1.6 1.3 5.6.4 8.8-1.3 4.7-3.4 8.2-3.4 8.2-.1.1-.1.3-.1.5 0 .1-.1 7.9-.8 12.2-1.6 9.7-9.7 10.8-10 10.8-.5.1-.9.5-.8 1 .1.5.4.8.9.8h.1c.1 0 9.8-1.3 11.6-12.4.7-4.1.8-10.9.8-12.3.5-.8 2.2-4 3.4-8.3 3.7-3.9 10.2-10 12.3-10.2 4.4-.4 7.4 1.2 9.2 4.9 1.7 3.5.7 9.1-.8 10.9-2.5 3-9.1 5.5-11.6 6.3-.6-3.2-1.4-5.8-1.5-6-.1-.5-.7-.7-1.1-.6-.5.2-.7.7-.6 1.1 0 .1 2.6 8.2 2.1 13.3-.9 9.4-4.4 16.2-4.4 16.3-.2.4-.1 1 .4 1.2.1.1.3.1.4.1.3 0 .6-.2.8-.5.1-.1.6-1.1 1.2-2.8 1.8.6 6.3 1.9 10.9 1.9 1.1 0 2.3-.1 3.4-.3l-1.2 1.8c-2.5 2.8-9.5 3.4-13.3 3.8-1.4.1-2.4.2-2.9.4l-.7.2c-6.8 2.1-10.9 3.3-20.7 1.9-3.8-.6-12.5-.6-19.6-.6-10.2 0-16.8.4-19 .6-.3-.2-.4-.8-.6-1.3M93.9 73.4c.2-.2 21.9-16.4 38.1-17.1 8.1-.3 14.1 1.4 17.8 5.1 3.7 3.7 3.9 8.4 3.9 9.5-3.3 4.7-8.2 11.8-9.1 14.9-1.7 5.4-1.5 8-1 9.3-1.2.7-2.5 1.5-3.8 2.3-.9.4-12.4 5.5-27.3 9.3-8.7 2.2-21 3.8-30.1 4.9-1.5-1.7-8.2-10.2-5.9-23.3C79 73.7 90.6 65.8 95.2 63.2l-.9 2.8-1.9 6.3c-.1.4 0 .8.3 1 .2.1.3.2.5.2.3.1.5 0 .7-.1M248 49.8c-6.9-7.8-15.6-12.6-16.2-12.9-.3-.2-.6-.4-1-.6 1.3-1.6 4.7-5.9 12-15.4 5.4-7.2 8.4-8.7 9.9-8.7 1 0 1.7.6 2.5 1.7 2.2 2.9 4.2 11.8 2.6 27.4-.5 4.7-2.1 13.4-3 17.6-1.5-2.5-3.5-5.4-6.8-9.1m-82.5 5.1c.1-.2 13-21.2 24.6-31.6C208.2 6.8 223-.6 229.5 3.5c2.8 1.7 3.3 3.5-.7 17.5l-.8 3c-1.5 5.1-2.2 7.7-2 9.2.2 2.2 2.1 3.4 3.8 4.6.3.2.7.4 1 .7.1 0 9 4.9 15.8 12.5 6 6.7 7.8 10.6 9.7 14.8.2.5.5 1.1.8 1.6.8 1.6 1.4 4.2 1.9 6.2 1.8 8.2 4.2 22.5 4.5 24.2-.1.7-.9 3.8-2.7 6.9-1.2 2.1-2.9 4.3-3.9 5.5-1.4-1.5-3.3-2.6-5.3-2.9-1.5-.4-3.6-.6-5.8-.6-5.3 0-12.5 1.2-15.6 4.7-.6.6-2.4 2.9-2.7 6-.2 2.1.2 5.3 3.6 8.3 2.5 2.2 5.9 4 10.9 5.7l-2.9 3.2c-.9.3-5.1 1.4-10.1.8h-.1-.1-.1c-1.6-.2-3.2-.6-4.8-1.3-5.3-2.2-9-7.7-13-14.2-2.1-3.4-3.8-7.6-3.9-7.6-.2-.4-.6-.6-1-.5 0 0-.5.1-1-.1-.2-.1-.3-.3-.3-.3-.2-.5-.7-.7-1.2-.5-.5.2-.7.7-.5 1.2 0 .1.4 1.1 1.5 1.4.4.1.8.1 1.1.2.4.9 1.2 2.6 2.1 4.5.1 1.5.6 11.1 1.3 15.1 1.6 8.6 5.8 13.7 11.6 14.1h.4c1.8 0 3.3-.8 4.4-2 2.3-2.4 3.4-6.1 3.8-7.8.9.1 1.8.1 2.7.1h1.2c-.8 2.6-3 9.3-5.9 11.7-2.3 1.9-6.5 2.3-10.2 1-6.7-2.4-16.1-17-16.2-17.1-.3-.4-.8-.5-1.3-.3-.4.3-.5.8-.3 1.3.1.1.6.9 1.3 1.9-11.3-4.4-24.9-14-31.8-29-14.2-30.6-10-51.2-9.5-53.3.8-.9 5.6-6.2 12-11-4.5 6.3-7.5 11.2-7.6 11.3-.3.4-.1 1 .3 1.2.1.1.3.1.5.1.6-.2.9-.3 1.1-.6m23.3-33c-4.8 4.4-9.9 10.6-14.2 16.3h-.1c-9.4 5.9-16.5 14.3-16.6 14.3 0 0-.1.1-.1.2s-.1.1-.1.2c-.1.4-1.4 5.3-1.1 13.8-.3.4-.8 1.1-1.4 1.9-.4-2.3-1.4-5.6-4.2-8.5-4.1-4.2-10.5-6.1-19.1-5.7-9.2.4-19.8 5.4-27.7 10-.8.1-3.6.4-7.7.8l1.1-3.6c.1-.3 0-.7-.3-.9-.3-.2-.6-.3-1-.2-.1 0-4.1 1.8-8.7 5.7C66 68.9 26.8 74.1 6.8 80.4c-3.2 1-5.1 2.7-5.8 5.1-1.3 4.8 3.4 11.1 6.1 14.1-1.7 2-2.8 4.7-2.4 7.3 1.4 8.7 7.6 15.5 12.7 17.4 3.2 1.2 6.5 1.6 9.7 1.6 4.8 0 9.1-.9 11.4-1.5-1.8 6.5-.7 12.4 3 16 3.4 3.2 7.7 6.3 12.8 9.4-1 .3-1.8.9-2.3 1.8-1.6 2.6-2 5.8-1.1 8.9.9 3.2 3 6 5.6 7.5.4.2.9.4 1.5.6-2.2 2.2-6.8 7-8.4 9.8-1.5 2.6-4.9 10.1-4.9 15.8 0 2.2 2.2 4.8 5.5 6.7 2 1.1 4.6 2 7.1 2 .5 0 1 0 1.4-.1.7 1.2 2.7 4.2 5.2 5.7 2.2 1.3 5.5 2.3 8.5 2.3 2.1 0 4-.5 5.3-1.6 1.3.4 4.5 1.3 8.1 1.3 2.6 0 5.4-.5 7.7-2 2.8-1.8 5.3-12.7 5.9-15.6 1.2-1.1 6.7-6.2 9.1-9 .2-.3.5-.6.7-.9 6.1 13 9 22.3 8.3 26.4-.6 3.1-2.3 7.1-5.2 12.1-1 0-2.8.6-4.9 3.4-1.3 1.8-3.9 5.6-7.1 10.5-3.5 5.2-7.9 11.8-11.9 17.7-4.4 6.3-5.9 10.5-5 13.4.8 2.4 3.2 3.2 5 3.8l.5.2c1.4.5 3.7 1 6.5 1.5-1 1.9-2.8 4.8-4.4 5.4-3.8 1.4-9 .6-13.2-.1-1.5-.2-2.8-.5-3.9-.6-5.5-.4-7.5 3.5-7.8 5.7V282.7c0 .1 0 .1.1.1 0 .1 0 .1.1.2l.1.1.1.1s.1 0 .1.1c.1 0 .1.1.2.1.7.1 62.7 11.4 94 11.4 1.6 0 3.1 0 4.5-.1 3.3-.1 5.6-1.3 6.8-3.5 2.8-5-1.1-13.8-2.5-16.6 1.9-1 3.5-2.5 3.8-5.2.8-6.6.6-18.5-10.4-23.5-5.8-2.7-13.8-2.9-21.4-2.2 1.3-1.4 3.2-3.6 5.2-5.7 2.7-2.9 3.9-5.3 3.6-7.1-.1-.4-.2-.7-.4-1 6.6-8.2 10.5-14.2 11.8-17.9 1.2-3.4 1.5-8.4 1-14.7 6.7 2 12.7 3.6 20.2 5.1 1.6.3 3.2.5 4.6.5 5.6 0 9.7-2.5 12.2-7.5 1.2-2.3 3.7-12 5.2-18v.3c.6 5.6.9 8.5 1.2 11.1.2 2.5.4 4.6.9 8.4.5 3.9 1.1 9.1 5.3 12.1 2.1 1.5 4.9 2.3 8.3 2.3 2.2 0 4.8-.3 7.6-.9 3.6-.8 6.1-1.2 8.4-1.7 3.9-.7 7.6-1.4 15.4-3.4 6.5-1.7 14.8-5.2 13-16.3-1.6-9.6-6.8-23.8-9.7-31.4-1.6-4.1-7.4-18.3-8.9-21.9.7-.3 1.4-.7 2-1.1 4.1-3.1 6.5-6.8 7.8-8.9 2.2-2.3 3.3-5.2 3.3-8.1 2.2-.2 8.8-.6 18.9-.6 7.1 0 15.7.1 19.4.6 3 .4 5.5.6 7.7.6 5.3 0 9-1.1 13.8-2.6l.7-.2c.3-.1 1.4-.2 2.5-.3 4.3-.4 11.5-1 14.5-4.4 1.1-1.2 1.9-2.9 2.3-3.6.6-.2 1.2-.5 1.7-.8 2.7-1.6 4.7-4.8 5.5-8.7.6-3 .2-5.7-1-7.3-1.7-2.2-7.9-2.4-11.4-2.4-2.9 0-6.9-1-8.4-1.4 0-.2-.1-.5-.1-.7 2.4-.8 9.7-3.5 12.6-7 1.9-2.2 3.1-8.6 1.1-12.9-2.1-4.4-5.8-6.4-11-6-2.7.2-8.3 5.4-11.5 8.6.3-2.5.3-5.7-1.5-7.5-2.9-2.9-8.9-4.3-12.2-1.7-1.8 1.4-2.8 4.3-3.8 7.1-.6 1.6-1.1 3.2-1.7 4.2-.6.9-1.8 2-3.2 3-.7.5-1.3 1.1-2 1.7-.4.4-.8.7-1.2 1.1-1.7 1.6-3.2 2.9-5.5 4.1-5.4 2.7-19.5 4.2-23.1 4.6-.8-4.2-1.6-8.7-2.4-12.1-.7-3.2-1.3-5.2-2-6.6-.3-.5-.5-1.1-.7-1.6-.6-1.2-1.1-2.4-1.8-3.7.4-2.1 2.8-13.9 3.4-19.8 1.7-16.1-.4-25.4-2.9-28.7-.6-.8-1.8-2.4-3.9-2.4-2.9 0-6.5 3-11.3 9.4-7.4 9.7-10.8 14-12 15.5-.9-.7-1.5-1.4-1.6-2.2-.1-1.1.7-4 2-8.5l.9-3.1c3.9-13.9 3.9-17-.1-19.5-1.6-1-3.4-1.4-5.4-1.4-10.7-.2-26.6 12.6-36.1 21.2"/></defs><clipPath id="bU"><use xlink:href="#bT" overflow="visible"/></clipPath><linearGradient id="bV" gradientUnits="userSpaceOnUse" x1="-245.619" y1="445.158" x2="-244.555" y2="445.158" gradientTransform="scale(-342.9667 342.9667) rotate(29.331 726.902 690.105)"><stop offset="0" stop-color="#585857"/><stop offset=".012" stop-color="#585857"/><stop offset=".292" stop-color="#5d5c5c"/><stop offset=".603" stop-color="#6a6a69"/><stop offset=".928" stop-color="#807f7f"/><stop offset="1" stop-color="#868585"/></linearGradient><path clip-path="url(#bU)" fill="url(#bV)" d="M473.4 223.8L83.1 443-126.4 70.2l390.3-219.3z"/></g><g><defs><path id="bW" d="M183.6 200.3c-9.1-1.9-16.1-3.7-24.7-6.5-2.9-1-5.4-3-6.7-5.7-1.4-2.8-1.6-6.2-.4-9.8.9-2.8 4.7-8.8 8-14.1.8-1.3 1.6-2.6 2.3-3.8 3.3-5.5 8.4-14.8 10.1-18 8.3 8.5 20.5 9.6 26.2 9.6 1 0 1.8 0 2.4-.1 1.8 6.2 3 13.3 3.8 20.1-1.6 6.7-4.9 19.8-6.2 22.3-2.2 4.4-5.7 6.5-10.6 6.5-1.3 0-2.7-.2-4.2-.5M144.5 85.9c-2.5 8-.8 10-.2 10.4 0 0 .1 0 .1.1h.1c.1 0 .2.1.3.1.2 0 .3-.1.5-.2 1.1-.5 7.7-2.7 12.5 5.2 5.6 9.2 6 15.4 6.3 20.9.1 2.3.3 4.5.8 6.6 1.2 5 3.3 8.9 5.9 12-1.3 2.4-6.8 12.7-10.3 18.5-.7 1.2-1.5 2.4-2.3 3.7-3.4 5.4-7.2 11.5-8.2 14.5-1.4 4-1.2 7.9.5 11.2 1.6 3.1 4.4 5.5 7.8 6.7 8.7 2.8 15.7 4.7 24.9 6.6 1.6.3 3.2.5 4.6.5 5.6 0 9.7-2.5 12.2-7.5 1.2-2.3 3.7-12 5.2-18v.3c.6 5.6.9 8.5 1.2 11.1.2 2.5.4 4.6.9 8.4.5 3.9 1.1 9.1 5.3 12.1 2.1 1.5 4.9 2.3 8.3 2.3 2.2 0 4.8-.3 7.6-.9 3.6-.8 6.1-1.2 8.4-1.7 3.9-.7 7.6-1.4 15.4-3.4 6.5-1.7 14.8-5.2 13-16.3-1.6-9.6-6.8-23.8-9.7-31.4-1.6-4.1-7.4-18.3-8.9-21.9 0 0-.3.2-.8.3-.5.2-1 .2-1 .2 1.4 3.4 7.4 17.9 9 22 2.9 7.5 8 21.6 9.6 31 1.3 7.5-2.2 11.8-11.6 14.2-7.7 2-11.4 2.7-15.3 3.4-2.4.4-4.9.9-8.5 1.7-6.6 1.5-11.5 1.1-14.5-1-3.5-2.5-4.1-7.1-4.5-10.9-.4-3.8-.6-5.9-.9-8.4-.2-2.6-.5-5.5-1.2-11.2-.2-1.7-.4-3.5-.6-5.3-1.4-11-3.7-23.1-8-30.7-1.5-2.6-1.8-3-5.3-6.9 0 0-1.4-.8-2.4-1.3-1-.6-2.9-1.9-2.8-1.9 1.6 1.8 2.8 3.2 3.8 4.3 3.5 4 3.8 4.3 5.2 6.7 1.3 2.3 2.4 5 3.4 8.1-5.3.3-28.2.1-33.5-21.6-.5-2-.6-4.1-.7-6.3-.3-5.4-.7-12.2-6.5-21.8-5-8.2-11.9-6.8-14.2-6.1-.3-.8-.5-2.9 1.1-8 1.1-3.4 7.6-12.6 10.6-16.8 0 0-.1-.9-.1-1.4-.1-1.1-.1-1.5-.1-1.5-1.8 2.3-11 14.9-12.4 19.3"/></defs><clipPath id="bX"><use xlink:href="#bW" overflow="visible"/></clipPath><linearGradient id="bY" gradientUnits="userSpaceOnUse" x1="-247.618" y1="445.842" x2="-246.554" y2="445.842" gradientTransform="matrix(114.9688 0 0 -114.9688 28611.473 51396.984)"><stop offset="0" stop-color="#0064a2"/><stop offset=".012" stop-color="#0064a2"/><stop offset=".529" stop-color="#0066a4"/><stop offset=".775" stop-color="#006bac"/><stop offset=".964" stop-color="#0075b9"/><stop offset="1" stop-color="#0077bc"/></linearGradient><path clip-path="url(#bX)" fill="url(#bY)" d="M142 66.8h125.1v144.5H142z"/></g><g><defs><path id="bZ" d="M54.1 94.5c-.1.1-6.9 9.5-9.1 12.6-2.1 3-.5 5.9-.5 6v.1l.2.2s.1 0 .1.1h.4c.1 0 .3 0 .4-.1l.3-.3c.3-.5.6-.9.9-1.4 1.1-.7 9.2-5.7 19-6.6 5.2-.5 10.1 1.9 11.3 2.5 0 0-.4-.7-.7-1.4-.2-.5-.5-1.1-.5-1.1-2.3-1-6.2-2.2-10.3-1.8-10.9 1-19.6 6.7-20 7-.1 0-.1.1-.1.1 0-.7.2-1.5.8-2.3.7-1 1.9-2.7 3.2-4.4.8-.6 7.3-5.6 16.7-5.6h.1c4.8 0 7.3 1.2 8.1 1.7 0 0-.1-.6-.2-1.1-.1-.7-.2-1.1-.2-1.1-1.5-.6-4-1.3-7.8-1.3-6 0-10.8 1.8-14 3.5 1.7-2.3 3-4.2 3.1-4.2.3-.4.2-1-.2-1.3-.2-.1-.3-.2-.5-.2 0 0-.3.1-.5.4"/></defs><clipPath id="ca"><use xlink:href="#bZ" overflow="visible"/></clipPath><linearGradient id="cb" gradientUnits="userSpaceOnUse" x1="-252.117" y1="446.822" x2="-251.053" y2="446.822" gradientTransform="matrix(31.3833 0 0 -31.3833 7956.226 14126.542)"><stop offset="0" stop-color="#0064a2"/><stop offset=".012" stop-color="#0064a2"/><stop offset=".529" stop-color="#0066a4"/><stop offset=".775" stop-color="#006bac"/><stop offset=".964" stop-color="#0075b9"/><stop offset="1" stop-color="#0077bc"/></linearGradient><path clip-path="url(#ca)" fill="url(#cb)" d="M42.9 94.1h34.4v19.4H42.9z"/></g><g><defs><path id="cc" d="M40.7 85.4C28.9 88.2 17.4 92.6 10 97c-3 1.8-5.9 5.8-5.3 9.8 1.4 8.7 7.6 15.5 12.7 17.4 3.2 1.2 6.5 1.6 9.7 1.6 4.8 0 9.1-.9 11.4-1.5 0 0 .1-.3.3-1.1.2-.5.3-.9.3-.9-.6.2-1.6.4-3 .7-.9-1.1-4.1-5.4-5-9.8-1-5.6-.5-9.4-.2-10.7l7.6-2.4c.1 1.9.4 5.7.8 7.8.6 4 2.4 6.7 3.2 7.8 0 0 .2-.3.5-.9.3-.4.5-.8.5-.8-.8-1.2-1.9-3.4-2.4-6.4-.4-2.7-.8-8.7-.8-8.8 0-.3-.2-.5-.4-.7-.2-.2-.5-.2-.8-.1l-9.2 3c-.3.1-.5.3-.6.6-.1.2-1.2 4.6.1 11.9.8 4.2 3.4 8.1 4.7 9.9-4.4.7-10.7 1.2-16.1-.8-4.7-1.7-10.3-8.2-11.6-16-.5-3.3 2.3-6.6 4.4-7.9 7.3-4.4 18.6-8.7 30.3-11.5 12.2-3 29.8-4.5 35-4.9 0 0 .2-.4.4-1 .1-.3.3-.8.3-.8-3.7.2-22.9 1.7-36.1 4.9"/></defs><clipPath id="cd"><use xlink:href="#cc" overflow="visible"/></clipPath><linearGradient id="ce" gradientUnits="userSpaceOnUse" x1="-248.86" y1="446.111" x2="-247.796" y2="446.111" gradientTransform="matrix(67.9424 0 0 -67.9424 16912.771 30412.928)"><stop offset="0" stop-color="#0064a2"/><stop offset=".012" stop-color="#0064a2"/><stop offset=".529" stop-color="#0066a4"/><stop offset=".775" stop-color="#006bac"/><stop offset=".964" stop-color="#0075b9"/><stop offset="1" stop-color="#0077bc"/></linearGradient><path clip-path="url(#cd)" fill="url(#ce)" d="M4.1 80.4h72.8v45.4H4.1z"/></g><g><defs><path id="cf" d="M120.9 260.1c.2-1.5 1.1-4.8 4-8.5 2.2-2.8 4.8-4.2 5.4-4.5 3.3-.7 7-1.3 10.7-1.7-2.4 1.3-4.9 3.2-6.9 6.1-2.8 4-4 7.5-4.5 8.9l-8.7-.3zm-31.3 8.4l-.5-.2c-1.7-.6-3.4-1.1-3.9-2.7-.7-2.2.9-6.1 4.8-11.8 4.1-5.9 8.4-12.4 12-17.7 1-1.5 1.9-2.8 2.7-4.1 1.9 1.9 7.3 6.3 16.8 7.9 6.8 1.2 13.9 1.4 18.1 1.4h1.6c-1 1.1-1.8 2-2.1 2.4-10.9 1.3-20.4 4.3-21.1 4.5-.5.2-.7.7-.6 1.1.2.5.7.7 1.1.6.1 0 3-.9 7.4-2-.8.7-1.5 1.5-2.3 2.4-4.5 5.6-4.5 10.3-4.5 10.5 0 .5.4.9.9.9l10.5.3c.4 0 .8-.3.9-.7 0 0 .9-4.1 4.4-9 4.3-6.2 11.3-7.5 12.4-7.5.1 0 .2 0 .3-.1 5.2 0 10.1.6 14 2.4 9.4 4.3 10.3 14.2 9.4 21.7-.3 2.5-1.8 3.8-5.5 4.8-2.3.7-7 .9-12.9.9-20.3.2-55.4-3.1-63.9-6m32.2-30.3c-9.3-1.6-14.6-6.2-16.1-7.7 1.4-2.1 2.6-3.8 3.3-4.8.7-1 1.4-1.6 1.9-2l-.3.6v.1c0 .1-.1.1-.1.2v.4c0 .1 0 .1.1.2 0 .1 0 .1.1.2 0 .1.1.1.1.1l.1.1c.2.2 6.1 4.6 16.7 6.5 7.1 1.3 13.3 1.5 16.6 1.5 1.6 0 2.6-.1 2.6-.1.1 0 .2 0 .2-.1h.1c.1-.1.2-.1.3-.2.4-.5.9-1.1 1.3-1.6-.1.9-.7 2.4-3.2 5.1-.9 1-1.9 2-2.7 3h-3.3c-4.1-.2-11-.4-17.7-1.5m-14.3-13.5c-1.3 1.8-3.9 5.6-7.1 10.5-3.5 5.2-7.9 11.8-11.9 17.7-4.4 6.3-5.9 10.5-5 13.4.8 2.4 3.2 3.2 5 3.8l.5.2c8.6 3 44 6.3 64.6 6.3 6 0 10.8-.3 13.2-1 3.1-.9 6.3-2.3 6.8-6.3.8-6.6.6-18.5-10.4-23.5-5.8-2.7-13.8-2.9-21.4-2.2 1.3-1.4 3.2-3.6 5.2-5.7 2.7-2.9 3.9-5.3 3.6-7.1-.1-.9-.6-1.4-.9-1.6 0 0-.1 0-.1-.1-.1-.1-.2-.1-.3-.1H149c-.1 0-.1 0-.2.1h-.1c-.1.1-.3.2-.4.3-.6.8-1.3 1.6-1.9 2.3-1.8.1-9.3.2-18.4-1.4-8.2-1.5-13.5-4.5-15.3-5.7.4-.6.7-1.2 1.1-1.8v-.1-.1-.1-.2-.2-.2c0-.1 0-.1-.1-.2l-.1-.1-.1-.1-.1-.1h-.1-.1c-.1 0-.3-.1-.7-.1-.9-.1-2.8.4-5 3.4"/></defs><clipPath id="cg"><use xlink:href="#cf" overflow="visible"/></clipPath><linearGradient id="ch" gradientUnits="userSpaceOnUse" x1="-248.227" y1="445.885" x2="-247.163" y2="445.885" gradientTransform="matrix(85.1294 0 0 -85.1294 21214.664 38206.746)"><stop offset="0" stop-color="#0064a2"/><stop offset=".012" stop-color="#0064a2"/><stop offset=".529" stop-color="#0066a4"/><stop offset=".775" stop-color="#006bac"/><stop offset=".964" stop-color="#0075b9"/><stop offset="1" stop-color="#0077bc"/></linearGradient><path clip-path="url(#cg)" fill="url(#ch)" d="M82.6 221.2h91.8v55.2H82.6z"/></g><g><defs><path id="ci" d="M234.7 111.5c-.1.1-.2.2-.3.2-.7.6-1.4 1.5-1.4 2.8 0 1.4.9 3 2.3 3.7 2.5 1.3 14.8.6 17.2-1.1 1.3-.9 2.3-2.5 2.3-4 0-1.3-.7-2.1-1.4-2.6-.1-.1-.2-.1-.3-.2-1.1-.6-3.6-.9-6.4-.9-4.7 0-10.1.8-12 2.1"/></defs><clipPath id="cj"><use xlink:href="#ci" overflow="visible"/></clipPath><linearGradient id="ck" gradientUnits="userSpaceOnUse" x1="-237.224" y1="448.026" x2="-236.16" y2="448.026" gradientTransform="matrix(-20.4258 1.2542 0 -20.4258 -4590.773 9562.55)"><stop offset="0" stop-color="#7e7c7b"/><stop offset="1" stop-color="#b6b5b6"/></linearGradient><path clip-path="url(#cj)" fill="url(#ck)" d="M254.7 108.1l-21.7 1.3v11.4l21.7-1.4z"/></g><g><path fill="#FFF" d="M243.4 110.8c.1 0 .8.5.8 1.4 0 .7-.4 1.6-1.1 2-1.1.8-7 1.7-8 1.1-.6-.3-1.1-.8-1.1-1.9 0-.7.3-1 .8-1.5 1.4-1.1 7.1-2 8.6-1.1"/></g></svg>