<svg xmlns="http://www.w3.org/2000/svg" xmlns:xlink="http://www.w3.org/1999/xlink" viewBox="0 0 346 317" enable-background="new 0 0 346 317"><defs><path id="a" d="M156.5 276.4c-.2-2-1.7-2.9-3-3.1 0-4.7.2-9.2.6-13.4.2-1.9-1.1-3.1-2.2-3.7 4.5-8.9 26.7-15.9 31-17.2.8 2.5 1.5 4.9 2.3 7.1-.4.4-1 1.1-1.1 2.2-.3 1.7 1.9 7 2.8 9.1-2.9 1.6-5.3 3.5-6.8 5.4-6.9 8.7-6 16.7-5.4 19.3-5.7 1.5-11.6 2.9-17.5 4.3-.1-2-.4-6.7-.7-10M138.4 2c-3.8 2.5-3.8 5.4.2 18.7l.9 2.9c1.3 4.2 2.2 7 2.1 8.1-.1.8-.6 1.5-1.5 2.2-1.2-1.4-4.6-5.4-11.8-14.6-4.7-6-8.2-8.8-11-8.8h-.1c-2 0-3.1 1.5-3.7 2.4-2.4 3.2-4.2 12.1-2.3 27.5.7 5.6 3.2 16.9 3.6 18.9-.6 1.2-1.1 2.4-1.6 3.6-.2.5-.4 1-.7 1.5-.9 1.8-1.4 4.3-1.8 6.3-1.6 8.3-3.9 23.3-3.9 23.4V94.4c0 .1.7 3.6 3 7.3 1.4 2.3 3.4 4.7 4.2 5.7-.4.7-.8 1.5-1.1 2.3-1.2 3.9-.2 8 2.8 11 1.3 1.9 3.7 5.5 7.6 8.4.1.1.3.2.4.3-9.2 4.5-13.6 7.2-21.8 12.3-2.1 1.3-4.4 2.7-7 4.3-2.1 1.3-4.1 2.5-6 3.7-1.7-2-7.7-8.2-12.7-7.6-3.4.4-5.3 2.9-6.2 4.2-3-1.6-6.4-2.5-9.7-1.6-3.6.9-6.3 5.2-7.1 6.7-4.2-.2-8 2.8-9.8 7.6-1.4 3.5-.7 9.4 2.6 12.7 2 2 7.7 3.9 13.7 5.9 5.5 1.9 11.2 3.8 13.2 5.5 1.3 1.2.3 3.9-.9 6.8-.9 2.4-1.9 4.9-1.7 6.9.5 4.3 3.6 9.5 9.5 10.7 1 .2 2 .3 2.9.3 3.4 0 6.5-1.2 7.7-3.3.9-1.5 1.4-3.9 1.9-6.5.6-2.9 1.3-6.3 2.6-7.7.7-.9 1.7-2.3 2.9-4l.8-1.1c1-1.5 1.8-3.1 2.6-4.5.7-1.4 1.4-2.8 2-3.4 7.9-7.7 31.1-20.2 37.1-23.3-.6 5.2-1.3 11.3-2.2 16.4-.1.5-.2 1.1-.3 1.6-.7 4-1.4 7.8 1 11.2 2.1 3 5.8 3.8 9.7 4.6.7.1 1.4.3 2.1.4 8.5 1.9 17.4 3.1 20.7 3.4h1.3c1 0 2.3-.1 3.8-.4.2.7.4 1.5.6 2.2-3.2 1.6-17.7 9.2-23.2 12.5-1.9 1.1-4.1 2.4-6.4 3.7-11.8 6.7-28 16-30 27.2-2.1 11.5-1.3 21.6-.2 28.3-.4.4-1 1.1-1.3 2.1-.3 1.1 0 3.2.4 5 0 .1 0 .3.1.4.1.6.3 1.1.4 1.5-2.9-.4-7.1-.8-11.4-.9H105.1c-2.3 0-4.7 0-6.8.2-8.4.8-14.4 4.6-17.7 11.3-2.3 4.6-3.2 11.3-3.5 13.6-5.7.3-11.8.4-18 .4-11.6 0-22.4-.6-32.1-1.7-2.6-.3-5.3-.7-8-1.2-4.4-.7-8.6-1.4-11.7-1.4-2.3 0-3.8.4-4.7 1.2-1 .9-2 2.1-1.7 4.2.5 3.9 27.1 10.8 50.6 14.3 10.5 1.6 23.3 2.4 37.9 2.4 38.4 0 82.3-5.5 110.7-10.6 26.2-4.8 60.3-13.3 86.8-21.8 18.2-5.8 40.2-15.6 47.1-23 .3-.3.6-.7.8-1.1.8-1.4.8-2.9.8-3.6 0-1.7-.6-3.2-1.6-4.3-3.9-4.1-12.4-5.7-17-6.7l-.8-.2c-5.9-1.2-12.2-1.8-18.8-1.8-6.4 0-12.7.6-18.2 1.7-9.9 1.9-26 8.8-41.7 15.4l-5.1 2.1c-.3-1.4-1-4-1.6-6.9-.3-1.2-.8-2.1-1.6-2.5-.3-.2-.7-.3-.9-.3-.9-4.1-1.6-7.5-2-10.2-.3-1.7-1.6-2.8-2.3-3.2-.8-6-.9-10.3-.7-13.5 1.7-.5 6.3-2.5 10.9-8 1.9.6 8.2 2.4 16.1 2.4 4.7 0 10-.6 15.2-2.6 14.3-5.4 24.7-16.7 26.6-28.8 3.7-23.8-11.2-37.4-11.4-37.5-.2-.2-.5-.3-.8-.2-.3.1-.5.3-.6.5l-2.5 7c-1.4-2.5-4.6-6.7-10.2-8.8-6.1-2.3-11.5-2.1-13.4-1.9-1.4-5.3-5.6-7-10.7-9-1.3-6.3-3.6-15.8-7.3-25.9 11.3-1.9 24.1-3.7 35.5-5.4l3.9-.6c7.2-1 9.4-1.3 15.3-1.7.8 0 1.9.2 3.3.5 2.1.4 4.6.9 7.9 1 8.2.2 13.8-.6 15.2-.8.9.6 4.1 2.3 9.1 3.3h.1c1.2.2 2.9.6 4.6.6 1.8 0 3.7-.4 5-1.7 3.4-3.4 5-9.7 1.8-13.2-2.4-2.6-3.3-2.7-7-3.1l-.6-.1c-1.8-.2-3-.2-3.8-.1.1-.4.2-.9.2-1.4 1.5.3 4.7.9 8.9.9h.3c2.3 0 7.1 0 9.1-3.1 1.6-2.5 2-7 .9-10.4-.8-2.3-2.1-3.8-3.9-4.5-2.8-1.1-4.5-.6-6.7-.1-.6.1-1.2.3-1.9.5-3.6.7-5.6 1.2-6.7 1.5-.1-.6-.3-1.2-.4-1.7 1.8-.2 5.5-.6 7.9-1.1.6-.1 5.9-1.4 6.9-4.5s.1-8.1-1.8-11.1c-1.1-1.7-2.5-2.7-4.1-2.9-4.3-.6-11.7 2.2-13.2 2.7-3.4 1.3-8.3 3.2-11 4.3.2-.5.3-1 .4-1.4l.2-.8c.6-2.7 1.1-4.9-.1-7.3-1.1-2.2-3.5-3.8-6.7-4.6-3.1-.7-6.2-.4-7.7.8-1.5 1.1-1.8 3.9-2.2 6.7-.3 2.1-.6 4.6-1.4 5.3l-2.6 2.6c-1.2 1.2-2.4 2.4-3.5 3.4-.5.4-1 1-1.6 1.7-1.2 1.3-2.7 3-3.8 3.6-4.1 2.2-7.1 2.8-16.8 5.1-2.3.5-5.1 1.2-8.3 1.9-14.1 3.3-19 4.7-29 7.5l-1.4.4c-.2-1.7-1.6-5-7.2-9.7-2-1.7-7.4-5.2-9-6.2 1.4-12.7-.7-20.1-.8-20.6 0-.1 0-.1-.1-.1 0-.1-.1-.1-.1-.2-.1-.1-7.1-7.9-16.1-13.4h-.1c-4.2-5.4-9.1-11.2-13.8-15.3-9.1-8-24.4-19.8-34.7-19.8-1.8 0-3.6.4-5.2 1.4"/></defs><clipPath id="b"><use xlink:href="#a" overflow="visible"/></clipPath><radialGradient id="c" cx="-246.877" cy="455.455" r="1.017" gradientTransform="scale(235.2257 -235.2257) rotate(-59.01 -525.89 8.738)" gradientUnits="userSpaceOnUse"><stop offset="0" stop-color="#fff"/><stop offset=".356" stop-color="#fff"/><stop offset=".544" stop-color="#f6f6f6"/><stop offset=".852" stop-color="#ddd"/><stop offset="1" stop-color="#cfcfcf"/></radialGradient><path clip-path="url(#b)" fill="url(#c)" d="M254.8-152l231.1 384.8L92.4 469.1-138.7 84.4z"/><defs><path id="d" d="M304 68.2c-3.6 2.4-3.1 8.7-2.8 13.3.1 1 .2 2 .2 2.7 0 1.7-.3 3.8-.5 5.8-.6 4.6-1.2 8.9 1.1 10.9 1.4 1.2 4.4 1.9 7.7 1.9 3.4 0 6.2-.8 7.7-2.3 4.2-4.1 5.2-12.7 5.1-16.7-.1-4.5-1.7-11-4.2-13.5-2.3-2.4-6.4-3.2-9.3-3.2-2.1 0-3.9.4-5 1.1"/></defs><clipPath id="e"><use xlink:href="#d" overflow="visible"/></clipPath><linearGradient id="f" gradientUnits="userSpaceOnUse" x1="-247.921" y1="457.014" x2="-246.904" y2="457.014" gradientTransform="scale(88.051 -88.051) rotate(32.005 676.479 665.611)"><stop offset="0" stop-color="#585857"/><stop offset=".317" stop-color="#878786"/><stop offset=".75" stop-color="#c2c2c2"/><stop offset=".957" stop-color="#d9d9d9"/><stop offset="1" stop-color="#d9d9d9"/></linearGradient><path clip-path="url(#e)" fill="url(#f)" d="M283.5 77.1L316 56.8l22.5 36-32.5 20.3z"/><defs><path id="g" d="M307.5 48.7c-.2 0-4.1.1-4.6 7-.6 7.8 5 9.2 5.1 9.2h.6c.1 0 .1-.1.2-.1h.1c.1 0 .1-.1.1-.2v-.1-.1c1-2 1.6-3.5 1.8-4.5l.2-.8c.6-2.7 1.1-4.9-.1-7.3-.6-1.2-1.6-2.2-2.9-3h-.1c-.1 0-.1 0-.2-.1h-.2c.1 0 .1 0 0 0"/></defs><clipPath id="h"><use xlink:href="#g" overflow="visible"/></clipPath><linearGradient id="i" gradientUnits="userSpaceOnUse" x1="-247.921" y1="457.029" x2="-246.904" y2="457.029" gradientTransform="scale(88.0442 -88.0442) rotate(32.005 675.992 665.472)"><stop offset="0" stop-color="#585857"/><stop offset=".317" stop-color="#878786"/><stop offset=".75" stop-color="#c2c2c2"/><stop offset=".957" stop-color="#d9d9d9"/><stop offset="1" stop-color="#d9d9d9"/></linearGradient><path clip-path="url(#h)" fill="url(#i)" d="M295.1 53.3l14.2-9 10 16-14.2 9z"/><defs><path id="j" d="M332.9 56.5c-4.4 1-6.3 3.6-5.7 7.9.3 1.9 1.3 3.4 2.8 4.3 1 .6 2.3.9 3.6.9.9 0 1.9-.2 2.8-.5 2.8-1 4.3-3.2 4.3-3.3v-.1c0-.1.1-.1.1-.2v-.1-.1c0-3.2-1.1-6.6-2.7-8.7 0-.1-.1-.1-.1-.1l-.1-.1c-.1 0-.2-.1-.3-.1-.1 0-.8-.1-1.9-.1-.8 0-1.9.1-2.8.3"/></defs><clipPath id="k"><use xlink:href="#j" overflow="visible"/></clipPath><linearGradient id="l" gradientUnits="userSpaceOnUse" x1="-247.921" y1="457.024" x2="-246.904" y2="457.024" gradientTransform="scale(88.0507 -88.0507) rotate(32.005 676.365 665.578)"><stop offset="0" stop-color="#585857"/><stop offset=".317" stop-color="#878786"/><stop offset=".75" stop-color="#c2c2c2"/><stop offset=".957" stop-color="#d9d9d9"/><stop offset="1" stop-color="#d9d9d9"/></linearGradient><path clip-path="url(#k)" fill="url(#l)" d="M320.5 60l16.4-10.2 10 16L330.6 76z"/><defs><path id="m" d="M336.5 76.9c-1.5 1.3-2.3 3.3-2.2 5.8 0 2.1.6 3.6 1.7 4.6.9.8 2.1 1.2 3.6 1.2h.8c3.1-.3 4.8-2.2 4.9-2.3.1-.1.1-.1.1-.2v-.1-.1c.7-3.2.4-7.6-1.9-10.2l-.1-.1s-.1 0-.1-.1c-.1 0-.2-.1-.2-.1h-.1-.1c-.2 0-.8-.1-1.5-.1-1.1 0-3.2.3-4.9 1.7"/></defs><clipPath id="n"><use xlink:href="#m" overflow="visible"/></clipPath><linearGradient id="o" gradientUnits="userSpaceOnUse" x1="-247.921" y1="457.02" x2="-246.904" y2="457.02" gradientTransform="scale(88.0499 -88.0499) rotate(32.005 676.746 665.688)"><stop offset="0" stop-color="#585857"/><stop offset=".317" stop-color="#878786"/><stop offset=".75" stop-color="#c2c2c2"/><stop offset=".957" stop-color="#d9d9d9"/><stop offset="1" stop-color="#d9d9d9"/></linearGradient><path clip-path="url(#n)" fill="url(#o)" d="M328.3 79l14.7-9.2 9.3 15-14.6 9.2z"/><defs><path id="p" d="M330.5 96.4c-1.3.5-2.1 1.5-2.6 3-.8 2.6-.7 5.1.3 6.8.7 1.1 1.8 1.9 3.1 2.1.6.1 1.1.1 1.6.1 2 0 3.3-.7 3.5-.8.1-.1.2-.1.3-.2 2.2-3.2 2.8-7 1.6-9.7v-.1c0-.1-.1-.1-.1-.1s0-.1-.1-.1c-.1-.1-.1-.1-.2-.1l-.1-.1c-.3-.2-2.6-1.2-5-1.2-.7-.1-1.5 0-2.3.4"/></defs><clipPath id="q"><use xlink:href="#p" overflow="visible"/></clipPath><linearGradient id="r" gradientUnits="userSpaceOnUse" x1="-247.921" y1="457.015" x2="-246.904" y2="457.015" gradientTransform="scale(88.0461 -88.0461) rotate(32.005 677.005 665.763)"><stop offset="0" stop-color="#585857"/><stop offset=".317" stop-color="#878786"/><stop offset=".75" stop-color="#c2c2c2"/><stop offset=".957" stop-color="#d9d9d9"/><stop offset="1" stop-color="#d9d9d9"/></linearGradient><path clip-path="url(#q)" fill="url(#r)" d="M321.5 99.4l14.6-9.1 9.1 14.6-14.6 9.1z"/><defs><path id="s" d="M138.6 2.1c-3.8 2.5-3.8 5.4.2 18.7l.9 2.9c1.3 4.2 2.1 7 2 8.1-.1.8-.6 1.5-1.5 2.2-1.2-1.4-4.5-5.4-11.7-14.6-4.7-6-8.3-8.8-11-8.8-2 0-3.2 1.6-3.7 2.3-2.4 3.2-4.3 12.1-2.3 27.5.7 5.6 3.1 16.9 3.6 18.9-.6 1.2-1.1 2.4-1.6 3.5-.2.5-.4 1-.7 1.5v.1c0 .1-.1.2-.1.3V65s0 .1.1.1c0 .1.1.1.1.2l.1.1.1.1H113.7c.1 0 .2-.1.2-.1l.2-.2c.5-1 1-1.6 1.6-1.7 4.5-.8 12.5 18.4 16.4 30.7 0 0 0 .1.1.1 0 0 0 .1.1.1l.1.1s0 .1.1.1c0 0 .1.1.2.1H133.4s.1 0 .1-.1c.1 0 .1 0 .2-.1l.1-.1.1-.1s0-.1.1-.2v-.2-.2-.1c-1.5-7.3-2.5-18.3-2.2-22.7.2-3.2.9-6.6 4.8-9.2 8.1-5.5 22.8-3.3 41.4 6.2 14.3 7.3 21.6 13.4 23.1 14.6 0 1.3-.1 5.8-1 10.4-1.4 7.6-5.6 16.7-5.7 16.8v.7c0 .1 0 .1.1.2l.1.1.1.1s0 .1.1.1h.1c.1 0 .2.1.3.1.1 0 .2 0 .4-.1h.1c.1-.1.2-.1.3-.2 1.9-2.7 3.6-5.6 4.9-8.6 14-31.6 8.4-51.6 8.2-52.4 0-.1-.1-.1-.1-.2s0-.1-.1-.1c-.1-.1-7.1-7.9-16.1-13.4h-.1c-4.2-5.4-9.1-11.2-13.8-15.4-9.1-8-24.4-19.8-34.7-19.8-2.3-.2-4.1.2-5.6 1.3"/></defs><clipPath id="t"><use xlink:href="#s" overflow="visible"/></clipPath><linearGradient id="u" gradientUnits="userSpaceOnUse" x1="-247.883" y1="456.828" x2="-246.866" y2="456.828" gradientTransform="scale(97.8753 -97.8753) rotate(26.626 843.719 754.02)"><stop offset="0" stop-color="#585857"/><stop offset=".317" stop-color="#878786"/><stop offset=".75" stop-color="#c2c2c2"/><stop offset=".957" stop-color="#d9d9d9"/><stop offset="1" stop-color="#d9d9d9"/></linearGradient><path clip-path="url(#t)" fill="url(#u)" d="M65.3 22.8l128.3-64.3 65.3 130.3-128.3 64.3z"/><g fill="#FFF"><path d="M183.4 47.5c-.1-.1-5.9-12.9-14-22.2C151.8 5.1 145.9 5 142.9 6.8c-2.7 1.6-2 3.7-.1 8.9.2.7.5 1.4.8 2.2 2.7 7.9 7.9 19.6 7.9 19.7v.1c0 .1.1.1.1.1l.1.1.1.1c.1 0 .1.1.2.1h.1c.2 0 16.5 3.8 30.3 10.8.1.1.3.1.4.1.3 0 .6-.2.8-.5.1-.3 0-.7-.2-1M131.1 41.6v-.2-.1c-.1-.1-6-13.1-10.4-21.7-.9-1.9-1.9-2.8-2.9-2.9-.6-.1-1.1.2-1.5.7-1.9 2.5-.9 11.8.3 19.2 1.5 9.5 3.6 14.7 3.7 14.9v.1s0 .1.1.1c0 .1.1.1.1.2.1 0 .1.1.2.1h.4c.1 0 .2 0 .3-.1 0 0 .1 0 .1-.1.1 0 .1-.1.2-.2.7-.9 1.4-1.8 2.2-2.7 1.9-2.2 4.2-4.5 6.9-6.6l.1-.1.1-.1c0-.1 0-.1.1-.2v-.1-.2"/></g><defs><path id="v" d="M255 163.9c-6 4.4-6 15.2-6 15.6 0 .4.3.8.7.8.4.1.8-.1 1-.5.7-1.5 3-5.8 5.8-6.6 1-.3 2-.2 3.1.5 2.8 1.8 8.8 6.9 5.6 16.7-1.6 4.9-4.7 6.9-9.4 6-4.9-.9-11.8-4.8-12-4.9h-.1c-.1 0-.1-.1-.2-.1-.3 0-.7.1-.9.4-.1.1-.1.2-.1.3-.4 2.8-.8 5.4-1.3 7.7v.5c0 .1 0 .1.1.2 0 .1.1.1.1.1s0 .1.1.1c.3.3 6.6 5.8 15.9 5.8 1.2 0 2.4-.1 3.6-.3 8.1-1.3 14.2-5.8 18.3-13.5 3.9-7.4 1.2-16.9 1.1-17.3-.1-.3-.3-.5-.6-.6-.3-.1-.6 0-.8.2l-4.3 3.6c.4-2.3.6-5.7-.9-8.9-1.4-3.1-4.1-5.3-8-6.6-1.8-.6-3.4-.9-4.9-.9-2.4-.1-4.3.5-5.9 1.7"/></defs><clipPath id="w"><use xlink:href="#v" overflow="visible"/></clipPath><linearGradient id="x" gradientUnits="userSpaceOnUse" x1="-250.416" y1="456.22" x2="-249.399" y2="456.22" gradientTransform="matrix(39.4058 0 0 -39.4058 10108.952 18161.93)"><stop offset="0" stop-color="#585857"/><stop offset=".317" stop-color="#878786"/><stop offset=".75" stop-color="#c2c2c2"/><stop offset=".957" stop-color="#d9d9d9"/><stop offset="1" stop-color="#d9d9d9"/></linearGradient><path clip-path="url(#w)" fill="url(#x)" d="M241.1 162.1H283v44.2h-41.9z"/><defs><path id="y" d="M119.4 12.7h61.4v34.8h-61.4z"/></defs><clipPath id="z"><use xlink:href="#y" overflow="visible"/></clipPath><path clip-path="url(#z)" fill="#EDEDED" d="M168.1 26.5c-5.7-6.6-10.1-11-13.6-13.8-.6 3.1-1 6.3-1 9.6 0 5.3.9 10.4 2.4 15.1 5.2 1.4 15.4 4.4 24.9 8.9-1.9-4-6.6-12.9-12.7-19.8M123.3 47.4c1.7-1.9 3.7-3.9 5.9-5.7-1.1-2.5-5.6-12.2-9.3-19.6-.3 2.1-.4 4.3-.4 6.5-.1 6.7 1.3 13 3.8 18.8"/><g opacity=".6"><defs><path id="A" d="M151.4 81.1h9.5v9.5h-9.5z"/></defs><clipPath id="B"><use xlink:href="#A" overflow="visible"/></clipPath><g clip-path="url(#B)"><defs><path id="C" d="M160.7 84.5c.7 2.5-.7 5.2-3.2 5.9-2.5.7-5.2-.7-5.9-3.2-.7-2.5.7-5.2 3.2-5.9 2.5-.8 5.1.7 5.9 3.2"/></defs><clipPath id="D"><use xlink:href="#C" overflow="visible"/></clipPath><radialGradient id="E" cx="-277.803" cy="467.536" r="1.017" gradientTransform="scale(4.6782 -4.6782) rotate(16.447 1558.86 1301.182)" gradientUnits="userSpaceOnUse"><stop offset="0" stop-color="#81cff4"/><stop offset=".171" stop-color="#71c9f2"/><stop offset=".503" stop-color="#48b9ec"/><stop offset=".961" stop-color="#06a0e3"/><stop offset="1" stop-color="#009ee2"/></radialGradient><path clip-path="url(#D)" fill="url(#E)" d="M147.9 81.4l12.7-3.7 3.7 12.6-12.6 3.7z"/></g></g><path fill="#B2B2B1" d="M162.4 79.3c-2.4-2.6-5.1-3.2-8.2-2.1-1.7.6-4.2 2-5.9 5.2-1.7 3.1-1.5 7.4-.2 10.1 1.1 2.2 9.7 3.7 14.8-2.6 2.5-3 1.9-8-.5-10.6M155 93.2c-2.1.3-6 0-6.5-2.4-1.5-7.9 4-10.7 6.1-11.3 3.5-1 5.8 0 7.3 2.9 1.3 2.6 1.2 5.1-.2 7.1-1.7 2.3-3.9 3.3-6.7 3.7"/><g><defs><path id="F" d="M154.9 82.4c-2.6.8-3.3 7.3 2 6.2 0 0 2.3-.4 2.5-2.7.2-1.9-1.3-3.6-3.4-3.6-.3 0-.7 0-1.1.1"/></defs><clipPath id="G"><use xlink:href="#F" overflow="visible"/></clipPath><radialGradient id="H" cx="-292.072" cy="472.799" r="1.017" gradientTransform="scale(3.2133 -3.2133) rotate(16.449 1605.778 1401.494)" gradientUnits="userSpaceOnUse"><stop offset="0" stop-color="#585857"/><stop offset=".39" stop-color="#444443"/><stop offset="1" stop-color="#1e1e1c"/></radialGradient><path clip-path="url(#G)" fill="url(#H)" d="M149.6 82.9l9.4-2.8 2.7 9-9.4 2.8z"/></g><g><path fill="#FFF" d="M157.6 84.1s-.4-1-1.1-.7c-.7.2-.5 1-.1 1.4.4.3 1.2.2 1.2-.7"/><g opacity=".6"><defs><path id="I" d="M119.4 81.6h6.5v9h-6.5z"/></defs><clipPath id="J"><use xlink:href="#I" overflow="visible"/></clipPath><g clip-path="url(#J)"><defs><path id="K" d="M123.7 82.8c1.5 1.5 2.5 4.7 2.1 6.3-.5 1.9-2.3 2.1-4 .5-1.7-1.6-2.8-4.6-2.2-6.5.5-1.9 2.4-1.9 4.1-.3"/></defs><clipPath id="L"><use xlink:href="#K" overflow="visible"/></clipPath><radialGradient id="M" cx="-279.03" cy="497.635" r="1.017" gradientTransform="matrix(.9368 -3.398 -3.0218 -2.9023 1887.804 582.218)" gradientUnits="userSpaceOnUse"><stop offset="0" stop-color="#81cff4"/><stop offset=".171" stop-color="#71c9f2"/><stop offset=".503" stop-color="#48b9ec"/><stop offset=".961" stop-color="#06a0e3"/><stop offset="1" stop-color="#009ee2"/></radialGradient><path clip-path="url(#L)" fill="url(#M)" d="M116.9 89.1l3.6-13.4 7.9 7.6-3.7 13.4z"/></g></g></g><g><defs><path id="N" d="M120.7 84c-.5 2 3.2 7.3 4.3 3.6 0 0 .5-1.5-.7-3.4-.7-1-1.5-1.5-2.2-1.5-.7.1-1.3.5-1.4 1.3"/></defs><clipPath id="O"><use xlink:href="#N" overflow="visible"/></clipPath><radialGradient id="P" cx="-291.883" cy="517.799" r="1.017" gradientTransform="matrix(.5351 -2.3333 -2.1359 -1.8802 1385.02 378.23)" gradientUnits="userSpaceOnUse"><stop offset="0" stop-color="#585857"/><stop offset=".39" stop-color="#444443"/><stop offset="1" stop-color="#1e1e1c"/></radialGradient><path clip-path="url(#O)" fill="url(#P)" d="M118.6 89.9l2.5-11 6.1 5.3-2.6 11z"/></g><g><path fill="#FFF" d="M124 84.7s-.4-1-1.1-.7c-.7.2-.5 1-.1 1.4.4.3 1.2.2 1.2-.7"/><path fill="#B2B2B1" d="M118 90.6c4 5.1 8.7 5 10 3.3 1.1-1.5-1.8-8.7-4-12.2-3.5-5.5-7.7-5-8.5-2.5-.9 2.4-.2 7.8 2.5 11.4m1.4.2c-1.8-2.4-3-4.7-2.7-7.8.2-2.4 1.2-4.1 3.1-3.1 4.1 2.1 8.2 10.9 7 13.3-.7 1.5-5.1.6-7.4-2.4"/></g><g><defs><path id="Q" d="M121.1 282.5c1.1 3.5 1.1 8.9 1.1 11.1 4.2-.7 8.8-1.6 13.4-2.5.8-.5 4.7-3 8-5.7-1.6-1.3-5.7-4.4-10.3-6.2-5.4-2-12.5-2.9-12.6-3 0 0-1.5-.2-3.8-.5 1.6 1.5 3.2 3.5 4.2 6.8m27.4.8c-1.9 2.3-5.5 5-8.3 6.9 5-1 10.1-2.2 15.3-3.4-.1-1.9-.4-6.8-.7-10.3-.1-1.1-.9-1.4-1.4-1.5-.4 1.4-1.4 4.1-4.9 8.3m-49.8-8.1c-7.8.8-13.3 4.2-16.3 10.4-2.1 4.2-3 10.3-3.3 12.7 13.1-.7 24.1-1.9 30.6-2.7 1.2-.2 2.5-.3 3.8-.5 0-2 0-7.9-.8-11.3-1.8-7.2-6.4-8.6-7.2-8.8h-1.7c-1.8-.1-3.5 0-5.1.2m52.4-16.5c-.1.8-.2 1.5-.2 2.3V261.3c0 .1-.1.1-.1.1l-.1.1-.1.1-.1.1h-.2-.1-.1-.1-.1c-.1 0-5.7-1.8-16.6-.4-8.9 1.1-14.2 4.8-14.3 4.8 0 0-.7.5-1 1.5-.2.6 0 1.9.3 3.3 2.8-1 10.7-3.2 19.2.2 6.9 2.8 10.8 6.1 12.3 7.6 2-3.1 2.1-4.7 2.1-4.7 0-5 .2-9.8.6-14.3.1-1-.5-1.6-1.1-1.9-.2.3-.3.6-.3.9"/></defs><clipPath id="R"><use xlink:href="#Q" overflow="visible"/></clipPath><linearGradient id="S" gradientUnits="userSpaceOnUse" x1="-245.131" y1="454.303" x2="-244.114" y2="454.303" gradientTransform="scale(-73.8198 73.8198) rotate(46.907 396.119 509.153)"><stop offset="0" stop-color="#0075be"/><stop offset=".242" stop-color="#0086cd"/><stop offset=".578" stop-color="#0098dc"/><stop offset=".822" stop-color="#009ee2"/><stop offset="1" stop-color="#009ee2"/></linearGradient><path clip-path="url(#R)" fill="url(#S)" d="M175.6 276.7l-55.8 59.7-60.9-57 55.8-59.7z"/></g><g><defs><path id="T" d="M229.1 259.1c-.1 1-.4 2.1-.9 3.1s-1.2 2.2-1.8 3.2c1.5-.6 3.1-1.3 4.6-1.9-.3-1.3-1-4.1-1.7-7.2-.1-.4-.2-.7-.4-1 .3 1 .4 2.3.2 3.8m-10.5-1.2c1.8 3.2 3.4 7.3 4.1 9.1.3-.1.7-.3 1-.4.3-.5 1.2-1.8 1.9-3.2-.6-1.3-3-6.1-9.5-8.5.9.7 1.8 1.7 2.5 3m-37.2 6.1c-6.4 8-5.5 15.4-5 17.8 11.3-2.9 21.6-5.9 29.3-8.4 3.6-1.2 7.6-2.7 11.9-4.4-.8-2.1-3.2-7.8-5.4-10.7-2.4-3.2-7.3-4.5-8.2-4.8-8.6 1-18.7 5.6-22.6 10.5m23.4-24.7c-12.8 2.7-18 7.7-18.1 7.7l-.1.1s-.8.5-.9 1.4c-.1.7.6 2.9 1.5 5.4 3.4-2 15.8-8.5 27.8-5.7 6.8 1.6 10.4 4.8 12.2 7.2-.1-.7-.3-1.1-.3-1.2-1-4.4-1.7-8.1-2.2-11-.2-1.4-1.8-2.3-1.8-2.3s-3.9-2.4-10.9-2.4c-2.1.1-4.5.3-7.2.8"/></defs><clipPath id="U"><use xlink:href="#T" overflow="visible"/></clipPath><linearGradient id="V" gradientUnits="userSpaceOnUse" x1="-244.769" y1="453.939" x2="-243.752" y2="453.939" gradientTransform="scale(-57.7944 57.7944) rotate(46.907 394.054 506.744)"><stop offset="0" stop-color="#0075be"/><stop offset=".242" stop-color="#0086cd"/><stop offset=".578" stop-color="#0098dc"/><stop offset=".822" stop-color="#009ee2"/><stop offset="1" stop-color="#009ee2"/></linearGradient><path clip-path="url(#U)" fill="url(#V)" d="M252.6 258.7l-47.7 51.1-51.5-48.2 47.8-51z"/></g><g><defs><path id="W" d="M213.5 257.3c2.4 3.2 4.8 9 5.6 11.1.6-.3 1.3-.5 1.9-.8-.6-1.7-2.2-5.8-4-8.9-2.5-4.4-6.1-5.2-7.4-5.3-.4 0-.8-.1-1.3-.1 1.9.9 3.9 2.2 5.2 4m-25.6-1.7c.1.3.3.7.4 1 5.3-2.7 11.7-4.7 17.4-5 1.2-.1 2.3 0 3.4 0 .1 0 .3 0 .7.1 10.4.8 15.1 6.8 16.8 9.8.4-.8.6-1.6.7-2.4-.4-1.1-3-6.9-12.7-9.1-1.9-.4-3.8-.6-5.7-.6-9.6-.1-18.6 4.8-21 6.2"/></defs><clipPath id="X"><use xlink:href="#W" overflow="visible"/></clipPath><linearGradient id="Y" gradientUnits="userSpaceOnUse" x1="-244.002" y1="456.25" x2="-242.985" y2="456.25" gradientTransform="scale(-61.5263 61.5263) rotate(-8.066 -3329.038 -1471.5)"><stop offset="0" stop-color="#585857"/><stop offset=".193" stop-color="#7a7877"/><stop offset="1" stop-color="#d9d9d9"/></linearGradient><path clip-path="url(#X)" fill="url(#Y)" d="M226.6 273.9l-41.3-5.9 3.4-24.2 41.3 5.9z"/></g><g><defs><path id="Z" d="M114.3 283.3c.9 3.5.9 9.2.9 11.5 1.7-.3 3.5-.5 5.3-.8 0-2 0-7.5-1-10.9-2-6.4-6.4-7.6-7-7.7-1-.1-2-.2-3.1-.2 1.9 1.4 3.8 3.8 4.9 8.1m4.1-10.6c.1.6.3 1.1.4 1.6 1.2.2 2 .3 2.1.3.3 0 7.4 1 12.9 3 5.2 1.9 9.6 5.4 11.1 6.7.8-.7 1.6-1.5 2.1-2.2.6-.7 1.1-1.3 1.5-1.9-1.2-1.2-5-4.7-12-7.5-3.1-1.3-6.2-1.7-9-1.7-4.2.1-7.7 1.2-9.1 1.7"/></defs><clipPath id="aa"><use xlink:href="#Z" overflow="visible"/></clipPath><linearGradient id="ab" gradientUnits="userSpaceOnUse" x1="-243.559" y1="457.429" x2="-242.542" y2="457.429" gradientTransform="scale(-47.3958 47.3958) rotate(-29.083 -993.042 -231.282)"><stop offset="0" stop-color="#585857"/><stop offset=".193" stop-color="#7a7877"/><stop offset="1" stop-color="#d9d9d9"/></linearGradient><path clip-path="url(#aa)" fill="url(#ab)" d="M139.4 311.5l-40-22.3 19.3-34.7 40 22.2z"/></g><g><defs><path id="ac" d="M279.8 246.9c-9.7 1.9-25.8 8.7-41.3 15.3-5.3 2.3-10.8 4.6-16 6.7-1.2.5-2.3.9-3.5 1.4-4.6 1.8-8.9 3.4-12.7 4.7-7.9 2.6-18.5 5.6-30.1 8.6h-.1c-12.8 3.3-26.8 6.5-39.6 9.1-9.8 2-18.9 3.6-26.3 4.5-6.7.8-18 2.1-31.4 2.7-.1 0-.2.1-.3.1H78.2c-5.9.3-12.1.5-18.6.5-11.6 0-22.5-.6-32.3-1.8-2.6-.3-5.4-.8-8-1.2-4.4-.7-8.5-1.4-11.4-1.4-2.2 0-3.1.4-3.5.7-.9.9-1.4 1.5-1.2 2.7 1 2 21 8.6 49.1 12.8 10.5 1.6 23.1 2.4 37.6 2.4 38.3 0 82.1-5.5 110.3-10.6 26.1-4.7 60.1-13.3 86.6-21.7 17.5-5.6 39.7-15.4 46.4-22.6.1-.1.2-.3.3-.4-.1-.2-.2-.3-.3-.4-3.5-3.7-12-5.3-16.1-6.2l-.8-.1c-11.4-2.3-25-2.3-36.3-.1-.8.1-1.5.3-2.4.5-.5.1-.9-.2-1-.6-.1-.5.2-.9.6-1 .8-.2 1.7-.4 2.4-.5 11.5-2.3 25.3-2.2 36.9.1l.8.1c4.5.9 12.8 2.5 16.8 6.4.1-.4.1-.9.1-1.3 0-1.2-.4-2.3-1.1-3.1-3.5-3.7-12-5.3-16.1-6.2h-1c-5.7-1.2-11.9-1.7-18.4-1.7-6.2 0-12.4.5-17.8 1.6"/></defs><clipPath id="ad"><use xlink:href="#ac" overflow="visible"/></clipPath><linearGradient id="ae" gradientUnits="userSpaceOnUse" x1="-246.929" y1="456.127" x2="-245.912" y2="456.127" gradientTransform="scale(357.7404 -357.7404) rotate(11.938 2061.964 1408.471)"><stop offset="0" stop-color="#c20a6c"/><stop offset=".472" stop-color="#e3097e"/><stop offset="1" stop-color="#e3097e"/></linearGradient><path clip-path="url(#ad)" fill="url(#ae)" d="M-11.4 248.3l331.2-70.1 28.3 133.7-331.3 70z"/></g><g><defs><path id="af" d="M167.5 132.1c-3.2 4.6-8.6 11.3-13.1 13-1.6.6-3.4.9-5 .9-.8 0-1.6-.1-2.3-.2 1.8 2.1 5.3 5.2 11.1 6.4 6.2 1.3 12.4.1 14.9-.5-.8-1.2-1.5-2.3-2.2-3.5-3.2-5.5-1.3-13.7-.2-17.4-1.1.5-2.2.9-3.2 1.3"/></defs><clipPath id="ag"><use xlink:href="#af" overflow="visible"/></clipPath><linearGradient id="ah" gradientUnits="userSpaceOnUse" x1="-250.37" y1="460.12" x2="-249.354" y2="460.12" gradientTransform="scale(28.2238 -28.2238) rotate(42.195 480.688 558.794)"><stop offset="0" stop-color="#0075be"/><stop offset=".393" stop-color="#0075be"/><stop offset=".63" stop-color="#008ed4"/><stop offset=".822" stop-color="#009ee2"/><stop offset="1" stop-color="#009ee2"/></linearGradient><path clip-path="url(#ag)" fill="url(#ah)" d="M135.8 141l25.5-23.1 23 25.3-25.5 23.2z"/></g><g><defs><path id="ai" d="M140 170.6c-.1.5-.2 1.1-.3 1.6-.7 3.8-1.3 7.1.7 9.9 1.7 2.5 4.9 3.1 8.6 3.9.7.1 1.4.3 2.2.5 8.4 1.9 17.2 3.1 20.4 3.3 2.9.2 6.7-.3 9-2.3 1.2-1.1 1.9-2.6 2-4.4.3-7.9-1.4-19.3-1.6-20.7-2.5-3.1-4.8-6.1-6.9-9.2-1.4.4-5.3 1.3-9.9 1.3-2 0-4.2-.2-6.3-.6-8.9-1.9-12.8-7.7-13.6-9-.4-.2-.7-.4-1-.6-.5 4.4-1.8 16.9-3.3 26.3"/></defs><clipPath id="aj"><use xlink:href="#ai" overflow="visible"/></clipPath><linearGradient id="ak" gradientUnits="userSpaceOnUse" x1="-244.653" y1="453.265" x2="-243.636" y2="453.265" gradientTransform="scale(-47.2535 47.2535) rotate(52.524 331.927 472.45)"><stop offset="0" stop-color="#0075be"/><stop offset=".393" stop-color="#0075be"/><stop offset=".63" stop-color="#008ed4"/><stop offset=".822" stop-color="#009ee2"/><stop offset="1" stop-color="#009ee2"/></linearGradient><path clip-path="url(#aj)" fill="url(#ak)" d="M205 161.1l-38.6 50.4-50.1-38.5 38.6-50.3z"/></g><g><defs><path id="al" d="M200.7 102c-.2.3-.3.7-.5 1v.1c0 .1-.8 9 1.9 12.8 1.7 2.4 4.2 4.7 7.1 6.9.9-4.5 3.7-19.2 5.5-25.7 2.3-8.3 6.9-9.7 7.2-9.8l2.3-.6c-.1-1-.8-4.1-6.6-8.8-1.7-1.4-6-4.3-8.1-5.7-1.1 8.1-3.6 18.1-8.8 29.8"/></defs><clipPath id="am"><use xlink:href="#al" overflow="visible"/></clipPath><linearGradient id="an" gradientUnits="userSpaceOnUse" x1="-249.309" y1="458.85" x2="-248.292" y2="458.85" gradientTransform="scale(38.5382 -38.5382) rotate(42.195 476.28 557.7)"><stop offset="0" stop-color="#0075be"/><stop offset=".393" stop-color="#0075be"/><stop offset=".63" stop-color="#008ed4"/><stop offset=".822" stop-color="#009ee2"/><stop offset="1" stop-color="#009ee2"/></linearGradient><path clip-path="url(#am)" fill="url(#an)" d="M174.2 95L213 59.9l36.3 40-38.7 35.2z"/></g><g><defs><path id="ao" d="M172.8 129.8c-.7 1.9-3.9 11.6-.5 17.5 6.5 11.1 18 23.6 27.3 33.3 2.3 2.4 9.5 8.3 13.8 10.1 5.5 2.4 11.1-2.6 13.5-4.7l.3-.2c5.4-4.7 7.5-7.1 10.8-10.8 1.8-2.1 4.1-4.6 7.6-8.2 6.4-6.7 6.8-11.8 6.5-15.5-.6-6.5-4.3-7.9-10.5-10.3-.1 0-.1 0-.2-.1-1.6-.6-3.2-1.2-5-2l-1.3-.6c-7.7-3.3-18.1-7.9-25.9-13.3-3.6-2.5-6.6-5.2-8.6-8.1-1.9-2.7-2.3-7.2-2.3-10.3-6.3 11.1-16.3 18.8-25.5 23.2"/></defs><clipPath id="ap"><use xlink:href="#ao" overflow="visible"/></clipPath><linearGradient id="aq" gradientUnits="userSpaceOnUse" x1="-248.076" y1="455.406" x2="-247.059" y2="455.406" gradientTransform="scale(92.2997 -92.2997) rotate(-24.483 -1175.912 -348.998)"><stop offset="0" stop-color="#0075be"/><stop offset=".242" stop-color="#0086cd"/><stop offset=".578" stop-color="#0098dc"/><stop offset=".822" stop-color="#009ee2"/><stop offset="1" stop-color="#009ee2"/></linearGradient><path clip-path="url(#ap)" fill="url(#aq)" d="M183.3 75l101.8 46.4-47 103.2-101.8-46.4z"/></g><g><defs><path id="ar" d="M150.9 127.9c-.4.5-2.5 3.2-3.1 4.6-1.1 2.6-.9 4.7-.8 5.2.9.8 1.9 1.3 3.2 1.2 6.6-.5 8.7-8.7 9.3-12.2.4-2.4.7-7.3.8-10.7-2.9 4.8-5.7 9.2-9.4 11.9"/></defs><clipPath id="as"><use xlink:href="#ar" overflow="visible"/></clipPath><linearGradient id="at" gradientUnits="userSpaceOnUse" x1="-243.579" y1="450.487" x2="-242.562" y2="450.487" gradientTransform="scale(-25.2922 25.2922) rotate(58.134 276.12 440.975)"><stop offset="0" stop-color="#c20a6c"/><stop offset=".472" stop-color="#e3097e"/><stop offset="1" stop-color="#e3097e"/></linearGradient><path clip-path="url(#as)" fill="url(#at)" d="M170.6 122.4l-14.1 22.7-20.2-12.5 14.2-22.8z"/></g><g><defs><path id="au" d="M123.2 14.6h17.1v26.7h-17.1z"/></defs><clipPath id="av"><use xlink:href="#au" overflow="visible"/></clipPath><path clip-path="url(#av)" fill="#EDEDED" d="M123.2 14.6l8 26.7 9.1-5.6s-4.7-5.7-6-7.1c-1.7-2-11.1-14-11.1-14"/><g><defs><path id="aw" d="M118.9 121.8h12.3v7.8h-12.3z"/></defs><clipPath id="ax"><use xlink:href="#aw" overflow="visible"/></clipPath><path clip-path="url(#ax)" fill="#EDEDED" d="M127.7 125.2l-8.8-3.4s2.3 3.2 3.1 4.2c1.2 1.4 3 3.1 6.3 3.6.7.1 2.9 0 2.9 0l-3.5-4.4z"/></g><g><defs><path id="ay" d="M136.6 130.2H150v14.7h-13.4z"/></defs><clipPath id="az"><use xlink:href="#ay" overflow="visible"/></clipPath><path clip-path="url(#az)" fill="#EDEDED" d="M142.1 130.8s1.3 3.8 1.9 5c1.7 3.1 5.2 3.8 5.2 3.8s-.6 1-.7 2.6c-.1 1.2 1.4 2.7 1.4 2.7s-4.7-.7-6.8-1.9c-3.2-1.9-4.9-6.8-5.6-10.1-.2-.9-1-2.6-1-2.6l5.6.5z"/></g></g><g><defs><path id="aA" d="M167.4 132.1c-3.2 4.6-8.6 11.3-13.1 13-1.6.6-3.4.9-5 .9-.8 0-1.6-.1-2.3-.2 1.8 2.1 5.3 5.2 11.1 6.4 6.2 1.3 12.4.1 14.9-.5-.8-1.2-1.5-2.3-2.2-3.5-3.2-5.5-1.3-13.7-.2-17.4-1.1.5-2.2.9-3.2 1.3"/></defs><clipPath id="aB"><use xlink:href="#aA" overflow="visible"/></clipPath><linearGradient id="aC" gradientUnits="userSpaceOnUse" x1="-250.371" y1="460.12" x2="-249.354" y2="460.12" gradientTransform="scale(28.2235 -28.2235) rotate(42.195 480.688 558.79)"><stop offset="0" stop-color="#0075be"/><stop offset=".393" stop-color="#0075be"/><stop offset=".63" stop-color="#008ed4"/><stop offset=".822" stop-color="#009ee2"/><stop offset="1" stop-color="#009ee2"/></linearGradient><path clip-path="url(#aB)" fill="url(#aC)" d="M135.7 141l25.5-23.1 23 25.4-25.5 23.1z"/></g><g><defs><path id="aD" d="M128.1 108.1h35V131h-35z"/></defs><clipPath id="aE"><use xlink:href="#aD" overflow="visible"/></clipPath><g clip-path="url(#aE)"><defs><path id="aF" d="M140.6 109.9s2.8 9.3 9.9 8c4.5-.8 12.6-9.8 12.6-9.8l-.8 2.8s-5.1 8.6-6.6 10.5c-2.2 2.8-8.1 7.9-11.5 9.2-2.9 1.1-9.5-.1-12.4-1.2-1-.4-3.6-5-3.6-5s10.4-2.9 12.2-6.3c.8-1.8.2-8.2.2-8.2"/></defs><clipPath id="aG"><use xlink:href="#aF" overflow="visible"/></clipPath><linearGradient id="aH" gradientUnits="userSpaceOnUse" x1="-250.119" y1="458.768" x2="-249.102" y2="458.768" gradientTransform="scale(34.1689 -34.1689) rotate(34.31 626.169 638.626)"><stop offset="0" stop-color="#fff"/><stop offset=".356" stop-color="#fff"/><stop offset=".629" stop-color="#f6f6f6"/><stop offset="1" stop-color="#e3e3e2"/></linearGradient><path clip-path="url(#aG)" fill="url(#aH)" d="M117.1 115.6l34.8-23.7 22.1 32.3-34.8 23.8z"/></g><defs><path id="aI" d="M164.7 11.3H209v120.2h-44.3z"/></defs><clipPath id="aJ"><use xlink:href="#aI" overflow="visible"/></clipPath><path clip-path="url(#aJ)" fill="#EDEDED" d="M207.5 49l-15.4-12.5c-2.6-3.7-3.8-4-5.6-6.1-4.3-5.3-21.9-19.1-21.9-19.1s9.7 11.3 13.8 19.7c2.1 4.4 10.3 31.5 10.3 31.5s3.8-.5 6.6-1.4c9.5 8.6 5.1 20.9.3 32.4-3.9 9.6-17.7 26.4-20.7 29.3-1.5 1.5-5.3 4.6-5.3 4.6l-3.3 4.1s22.6-2.9 35.9-36.7c4-10.2 6.1-23 6.6-30.9.3-3.3-1.3-14.9-1.3-14.9"/><defs><path id="aK" d="M123.1 14.6h17.1v26.7h-17.1z"/></defs><clipPath id="aL"><use xlink:href="#aK" overflow="visible"/></clipPath><path clip-path="url(#aL)" fill="#EDEDED" d="M123.1 14.6l8 26.7 9.1-5.6s-4.7-5.7-6-7.1c-1.7-2-11.1-14-11.1-14"/><defs><path id="aM" d="M118.8 121.8h12.3v7.8h-12.3z"/></defs><clipPath id="aN"><use xlink:href="#aM" overflow="visible"/></clipPath><path clip-path="url(#aN)" fill="#EDEDED" d="M127.6 125.2l-8.8-3.4s2.3 3.2 3.1 4.2c1.2 1.4 3 3.1 6.3 3.6.7.1 2.9 0 2.9 0l-3.5-4.4z"/><defs><path id="aO" d="M136.5 130.2h13.4v14.7h-13.4z"/></defs><clipPath id="aP"><use xlink:href="#aO" overflow="visible"/></clipPath><path clip-path="url(#aP)" fill="#EDEDED" d="M142 130.8s1.3 3.8 1.9 5c1.7 3.1 5.2 3.8 5.2 3.8s-.6 1-.7 2.6c-.1 1.2 1.4 2.7 1.4 2.7s-4.7-.7-6.8-1.9c-3.2-1.9-4.9-6.8-5.6-10.1-.2-.9-1-2.6-1-2.6l5.6.5z"/><defs><path id="aQ" d="M199.1 80.8H219v43.1h-19.9z"/></defs><clipPath id="aR"><use xlink:href="#aQ" overflow="visible"/></clipPath><g clip-path="url(#aR)"><defs><path id="aS" d="M213.6 80.9c6.4 2 5.3 9.8 5.3 9.8s-3.3 4.3-4.3 10c-1.1 6.5-4.7 23.3-4.7 23.3s-7.6-4.9-9.8-9.8c-1.1-2.5-.9-10.3-.9-10.3l5.8-16.8c-.1-.1 5.8-7.1 8.6-6.2"/></defs><clipPath id="aU"><use xlink:href="#aS" overflow="visible"/></clipPath><defs><filter id="aT" filterUnits="userSpaceOnUse" x="178.5" y="70.2" width="61.9" height="63.5"><feColorMatrix values="1 0 0 0 0 0 1 0 0 0 0 0 1 0 0 0 0 0 1 0"/></filter></defs><mask maskUnits="userSpaceOnUse" x="178.5" y="70.2" width="61.9" height="63.5" id="aW"><g filter="url(#aT)"><linearGradient id="aV" gradientUnits="userSpaceOnUse" x1="-250.826" y1="459.414" x2="-249.81" y2="459.414" gradientTransform="scale(28.3268 -28.3268) rotate(34.31 628.586 645.096)"><stop offset="0" stop-color="#fff"/><stop offset=".245" stop-color="#ddd"/><stop offset=".783" stop-color="#888"/><stop offset="1" stop-color="#636363"/></linearGradient><path clip-path="url(#aU)" fill="url(#aV)" d="M178.5 94l34.8-23.8 27.1 39.8-34.8 23.7z"/></g></mask><linearGradient id="aX" gradientUnits="userSpaceOnUse" x1="-250.826" y1="459.414" x2="-249.81" y2="459.414" gradientTransform="scale(28.3268 -28.3268) rotate(34.31 628.586 645.096)"><stop offset="0" stop-color="#0075be"/><stop offset=".833" stop-color="#0097dc"/><stop offset="1" stop-color="#009ee2"/></linearGradient><path clip-path="url(#aU)" mask="url(#aW)" fill="url(#aX)" d="M178.5 94l34.8-23.8 27.1 39.8-34.8 23.7z"/></g><defs><path id="aY" d="M157.5 129.7h16.4v23.8h-16.4z"/></defs><clipPath id="aZ"><use xlink:href="#aY" overflow="visible"/></clipPath><g clip-path="url(#aZ)"><defs><path id="ba" d="M171.8 129.7s-4.6.9-5.5 1.8c-1.5 1.6-8.9 11.1-8.9 13.4 0 5.6 4.9 8.6 4.9 8.6s3.3.3 7-.2c1.2-.2 4.4-1.4 4.4-1.4s-4.1-7.3-4.3-10c-.1-3.8 2.4-12.2 2.4-12.2"/></defs><clipPath id="bc"><use xlink:href="#ba" overflow="visible"/></clipPath><defs><filter id="bb" filterUnits="userSpaceOnUse" x="146.3" y="122.1" width="38.7" height="39.3"><feColorMatrix values="1 0 0 0 0 0 1 0 0 0 0 0 1 0 0 0 0 0 1 0"/></filter></defs><mask maskUnits="userSpaceOnUse" x="146.3" y="122.1" width="38.7" height="39.3" id="be"><g filter="url(#bb)"><linearGradient id="bd" gradientUnits="userSpaceOnUse" x1="-252.755" y1="460.958" x2="-251.738" y2="460.958" gradientTransform="scale(19.7351 -19.7351) rotate(34.31 636.418 648.824)"><stop offset="0" stop-color="#fff"/><stop offset=".245" stop-color="#ddd"/><stop offset=".783" stop-color="#888"/><stop offset="1" stop-color="#636363"/></linearGradient><path clip-path="url(#bc)" fill="url(#bd)" d="M146.3 137.3l22.3-15.2 16.4 24-22.3 15.2z"/></g></mask><linearGradient id="bf" gradientUnits="userSpaceOnUse" x1="-252.755" y1="460.958" x2="-251.738" y2="460.958" gradientTransform="scale(19.7351 -19.7351) rotate(34.31 636.419 648.824)"><stop offset="0" stop-color="#0075be"/><stop offset=".833" stop-color="#0097dc"/><stop offset="1" stop-color="#009ee2"/></linearGradient><path clip-path="url(#bc)" mask="url(#be)" fill="url(#bf)" d="M146.3 137.3l22.3-15.2 16.4 24-22.3 15.2z"/></g><defs><path id="bg" d="M170.1 103.8H216v65.9h-45.9z"/></defs><clipPath id="bh"><use xlink:href="#bg" overflow="visible"/></clipPath><g clip-path="url(#bh)"><defs><path id="bi" d="M199.1 103.8s-10.6 15.1-13.5 17.1c-2.7 1.8-13.8 8.9-13.8 8.9s-2.9 10-1.1 15.9c1.8 5.8 17.2 24.1 17.2 24.1s5.7-24.8 9.7-30.7c6.2-9.4 18.4-10.9 18.4-10.9s-10.6-6.4-13.8-10.4c-4.5-5.7-3.1-14-3.1-14"/></defs><clipPath id="bk"><use xlink:href="#bi" overflow="visible"/></clipPath><defs><filter id="bj" filterUnits="userSpaceOnUse" x="146.8" y="88" width="91.3" height="97.5"><feColorMatrix values="1 0 0 0 0 0 1 0 0 0 0 0 1 0 0 0 0 0 1 0"/></filter></defs><mask maskUnits="userSpaceOnUse" x="146.8" y="88" width="91.3" height="97.5" id="bm"><g filter="url(#bj)"><linearGradient id="bl" gradientUnits="userSpaceOnUse" x1="-250.764" y1="454.644" x2="-249.747" y2="454.644" gradientTransform="matrix(32.498 12.4992 12.4992 -32.498 2643.029 18039.928)"><stop offset="0" stop-color="#fff"/><stop offset=".245" stop-color="#ddd"/><stop offset=".783" stop-color="#888"/><stop offset="1" stop-color="#636363"/></linearGradient><path clip-path="url(#bk)" fill="url(#bl)" d="M175 88l63.1 24.3-28.1 73.2-63.2-24.3z"/></g></mask><linearGradient id="bn" gradientUnits="userSpaceOnUse" x1="-250.764" y1="454.644" x2="-249.747" y2="454.644" gradientTransform="matrix(32.498 12.4992 12.4992 -32.498 2643.029 18039.928)"><stop offset="0" stop-color="#0075be"/><stop offset=".833" stop-color="#0097dc"/><stop offset="1" stop-color="#009ee2"/></linearGradient><path clip-path="url(#bk)" mask="url(#bm)" fill="url(#bn)" d="M175 88l63.1 24.3-28.1 73.2-63.2-24.3z"/></g><g><defs><path id="bo" d="M144.8 145.4h38.6v35.4h-38.6z"/></defs><clipPath id="bp"><use xlink:href="#bo" overflow="visible"/></clipPath><g clip-path="url(#bp)"><defs><path id="bq" d="M145.5 145.4s6.3 6.4 13.1 7.9c3 .6 15.3-.8 15.3-.8l8 9.8 1.5 16.1s-8.6 4.2-17.7 1.8c-5.8-1.5-17-7.8-20.1-12.8-1.7-2.8-.1-22-.1-22"/></defs><clipPath id="bs"><use xlink:href="#bq" overflow="visible"/></clipPath><defs><filter id="br" filterUnits="userSpaceOnUse" x="128" y="128.4" width="71.3" height="70.9"><feColorMatrix values="1 0 0 0 0 0 1 0 0 0 0 0 1 0 0 0 0 0 1 0"/></filter></defs><mask maskUnits="userSpaceOnUse" x="128" y="128.4" width="71.3" height="70.9" id="bu"><g filter="url(#br)"><linearGradient id="bt" gradientUnits="userSpaceOnUse" x1="-244.009" y1="450.949" x2="-242.992" y2="450.949" gradientTransform="scale(-27.5983 27.5983) rotate(60.416 257.472 432.457)"><stop offset="0" stop-color="#fff"/><stop offset=".245" stop-color="#ddd"/><stop offset=".783" stop-color="#888"/><stop offset="1" stop-color="#636363"/></linearGradient><path clip-path="url(#bs)" fill="url(#bt)" d="M199.3 154.4l-25.5 45-45.8-26 25.6-45z"/></g></mask><linearGradient id="bv" gradientUnits="userSpaceOnUse" x1="-244.009" y1="450.949" x2="-242.992" y2="450.949" gradientTransform="scale(-27.5983 27.5983) rotate(60.416 257.472 432.457)"><stop offset="0" stop-color="#0075be"/><stop offset=".833" stop-color="#0097dc"/><stop offset="1" stop-color="#009ee2"/></linearGradient><path clip-path="url(#bs)" mask="url(#bu)" fill="url(#bv)" d="M199.3 154.4l-25.5 45-45.8-26 25.6-45z"/></g></g><g><defs><path id="bw" d="M209.8 85.6H242v54.5h-32.2z"/></defs><clipPath id="bx"><use xlink:href="#bw" overflow="visible"/></clipPath><path clip-path="url(#bx)" fill="#EDEDED" d="M230.6 85.6s-8.9 2.7-9.3 13.5c-.2 4.4 3.2 16 5.8 25.2 2.1 7.3 14.8 15.8 14.8 15.8l-11.7-5.1s-10.2-4.4-13.5-6.1c-1.1-.6-7-5-7-5s4.3-28.6 9.1-34c2-2.1 11.8-4.3 11.8-4.3"/></g><g><defs><path id="by" d="M248.2 48.6h96.6v62.5h-96.6z"/></defs><clipPath id="bz"><use xlink:href="#by" overflow="visible"/></clipPath><path clip-path="url(#bz)" fill="#EDEDED" d="M296.3 62c.9-2.5.8-9.4 2.8-11.2 2.2-2.1 5.6-2.7 7.3-1.8 1.3.8 3.9 3.8 4 5.3.1 1.9-1.5 8.6-1.5 8.6s8.6-3.9 13.4-5.6c2.7-.9 9.3-3.2 12-2.2 1.6.7 4.8 3.9 5.2 5.6.3 1.4.6 7.3-1.1 8.8-3.1 2.6-13.2 3.9-13.2 3.9l.3 3.6s9.8-3.1 12.3-2.7c3 .4 6.1 1.3 6.9 6.5.8 5-.9 8.1-2.9 9.2-5.3 2.8-16-.6-16-.6l-.8 4.2s5.6-.7 7.6.1c4.7 2 5.9 5.2 5.6 7.7-.3 2.1-3 7.7-5 8.3-3.8 1.1-16.3-3.8-16.3-3.8s-11.5 1.3-16.7.6c-2.4-.3-9.2-1.4-9.2-1.4l-42.7 5.9s37.1-7.2 43.5-16.9c6.4-9.7-.4-23.8-.4-23.8s4.1-6 4.9-8.3"/></g><g><defs><path id="bA" d="M222.7 173h18.4v22.8h-18.4z"/></defs><clipPath id="bB"><use xlink:href="#bA" overflow="visible"/></clipPath><path clip-path="url(#bB)" fill="#EDEDED" d="M241 173l-18.4 17.8 8.2 5.1s2.5-7.5 3.3-9.3c1.1-2.7 6.9-13.6 6.9-13.6"/></g><g><defs><path id="bC" d="M234.2 161.5H288v57.8h-53.8z"/></defs><clipPath id="bD"><use xlink:href="#bC" overflow="visible"/></clipPath><path clip-path="url(#bD)" fill="#EDEDED" d="M244.3 169.4l4.1-4.7s-2.3 20.4.7 23.1c1.7 1.5 4.4 2.1 7.3 2.2 5 .1 7-5.1 6-8.3-3.7-11.4-11.8-1.7-11.8-1.7s2.6-9.1 4.1-11.9c2.3-4.3 6.5-8 14.2-5.8 5.5 1.5 7.6 11.6 7.6 11.6l6.2-6s6.6 8.9 5 21c-1.7 12.4-11.4 24.8-23.3 28.5-14.6 4.5-30.3 0-30.3 0s5.9-11 6.8-14.2c1.1-3.8 3.4-33.8 3.4-33.8"/></g><g><defs><path id="bE" d="M59.6 152.8h18.1v8.2H59.6z"/></defs><clipPath id="bF"><use xlink:href="#bE" overflow="visible"/></clipPath><path clip-path="url(#bF)" fill="#EDEDED" d="M77.6 158.1s-6.9-3.9-8.5-4.6c-4.1-1.7-9.5.6-9.5.6l14 6.9 4-2.9z"/></g><g><defs><path id="bG" d="M72.4 148.3h12.2v7.6H72.4z"/></defs><clipPath id="bH"><use xlink:href="#bG" overflow="visible"/></clipPath><path clip-path="url(#bH)" fill="#EDEDED" d="M72.4 148.7s5.2-1.6 9.2 1.2c.5.4 3.1 3.4 3.1 3.4l-4.7 2.6-7.6-7.2z"/></g><g><defs><path id="bI" d="M105.6 135.2h37.5v38.2h-37.5z"/></defs><clipPath id="bJ"><use xlink:href="#bI" overflow="visible"/></clipPath><path clip-path="url(#bJ)" fill="#EDEDED" d="M138.5 135.2s-4.8 11.9-10.7 17.4c-5.5 5.1-22.2 20.8-22.2 20.8l36-20.9 1.5-9.5s-1.7-1.4-2.1-1.9c-.4-.7-2.5-5.9-2.5-5.9"/></g><g><defs><path id="bK" d="M49.8 172.4h31.5V195H49.8z"/></defs><clipPath id="bL"><use xlink:href="#bK" overflow="visible"/></clipPath><path clip-path="url(#bL)" fill="#EDEDED" d="M49.8 173.4s25.2-2.8 28.7 1.2c1.1 1.3 3.4 4.6 2.7 8-.8 3.7-9.8 12.5-9.8 12.5s3.2-7.3 2.9-10.1c-.3-2.7-4.5-5.2-10.1-7-3.5-1.1-14.4-4.6-14.4-4.6"/></g><g><defs><path id="bM" d="M177.3 164.3h26v37.5h-26z"/></defs><clipPath id="bN"><use xlink:href="#bM" overflow="visible"/></clipPath><path clip-path="url(#bN)" fill="#EDEDED" d="M182.5 164.3s2.1 17.7.9 21c-.9 2.4-6.1 5.2-6.1 5.2l3.3 11.4s7.5-10.3 10.2-11.9c2.4-1.5 12.6-3.7 12.6-3.7s-6.4-6.9-7.8-8.2c-2.5-2.2-13.1-13.8-13.1-13.8"/></g><g><defs><path id="bO" d="M203.6 196.1h38.5v44.8h-38.5z"/></defs><clipPath id="bP"><use xlink:href="#bO" overflow="visible"/></clipPath><path clip-path="url(#bP)" fill="#EDEDED" d="M242.1 199.5s-7.1 10.5-10.3 10.6c-3.3.1-5.9-5.9-8.3-8.3-4.2-4.1-7.7-8.5-16.6-3.4-8.5 4.8 1.6 39.9 1.6 39.9s8.5.1 10.6.3c3.7.4 5 2.3 5 2.3l-.4-15.4s7.5-5 9.6-7.4c4.7-5.3 8.8-18.6 8.8-18.6"/></g><g><defs><path id="bQ" d="M138 211.7h45.4v48.7H138z"/></defs><clipPath id="bR"><use xlink:href="#bQ" overflow="visible"/></clipPath><path clip-path="url(#bR)" fill="#EDEDED" d="M178.4 211.7s-27.6 11.6-36.5 22.5c-4.6 5.6-3.9 26.2-3.9 26.2s3.7-.5 4.9-.2c1.5.4 7.2.2 7.2.2s-.6-5.2 3.7-8.6c10.3-8.3 29.6-13.5 29.6-13.5s-3.3-11-4.1-14.4c-.5-2.2-.9-12.2-.9-12.2"/></g><g><defs><path id="bS" d="M195.9 237.7h36.5v39.7h-36.5z"/></defs><clipPath id="bT"><use xlink:href="#bS" overflow="visible"/></clipPath><g clip-path="url(#bT)"><defs><path id="bU" d="M225.4 241.4s-4.9-3.4-9.8-3.7c-1.5-.1-7.1.5-7.1.5s.3 4.7 1.6 10c.2.6 15.2 3 17.2 9.3 1.3 3.9-.4 5.4-.5 5.2-5-8.1-15.5-10.9-15.3-10.3.2.5.3.8.3.8s3.6 2.7 5.6 4.3c2.3 1.9 4.7 10.2 4.7 10.2l-3.7 1.6s-2.5-7.5-3.5-9.2c-1-1.6-5.3-6.1-5.3-6.1s-9.4 1-11.9 8.9c-2.6 8.1-1.4 14.4-1.4 14.4s19.2-6.2 23.6-7.9c2.5-1 12.6-5.4 12.6-5.4s-.8-2.4-2.8-9.3c-.3-1.1-1.4-.6-1.7-1.3-.5-1.3-2.6-12-2.6-12"/></defs><clipPath id="bW"><use xlink:href="#bU" overflow="visible"/></clipPath><defs><filter id="bV" filterUnits="userSpaceOnUse" x="195" y="237.6" width="37.4" height="39.8"><feColorMatrix values="1 0 0 0 0 0 1 0 0 0 0 0 1 0 0 0 0 0 1 0"/></filter></defs><mask maskUnits="userSpaceOnUse" x="195" y="237.6" width="37.4" height="39.8" id="bY"><g filter="url(#bV)"><linearGradient id="bX" gradientUnits="userSpaceOnUse" x1="-250.822" y1="456.209" x2="-249.805" y2="456.209" gradientTransform="matrix(35.8789 0 0 -35.8789 9195.146 16625.793)"><stop offset="0" stop-color="#fff"/><stop offset=".245" stop-color="#ddd"/><stop offset=".783" stop-color="#888"/><stop offset="1" stop-color="#636363"/></linearGradient><path clip-path="url(#bW)" fill="url(#bX)" d="M195 237.6h37.4v39.8H195z"/></g></mask><linearGradient id="bZ" gradientUnits="userSpaceOnUse" x1="-250.822" y1="456.209" x2="-249.805" y2="456.209" gradientTransform="matrix(35.8789 0 0 -35.8789 9195.147 16625.795)"><stop offset="0" stop-color="#0075be"/><stop offset=".833" stop-color="#0097dc"/><stop offset="1" stop-color="#009ee2"/></linearGradient><path clip-path="url(#bW)" mask="url(#bY)" fill="url(#bZ)" d="M195 237.6h37.4v39.8H195z"/></g></g><g><defs><path id="ca" d="M87.9 257h68.5v41.2H87.9z"/></defs><clipPath id="cb"><use xlink:href="#ca" overflow="visible"/></clipPath><g clip-path="url(#cb)"><defs><path id="cc" d="M138 260.3l-.7 11.7s12.8 7 12.4 8c-.2.5-4.7 4.5-5.2 4.9-.3.3-9.7-7.6-16.3-8.3-2.3-.3-13.1-1.9-13.1-1.9s3.9 4.8 5.5 8.2c.7 1.6.8 11.4.8 11.4l-7.5 1.3s.3-12.1-.6-13.9c-.9-1.8-5.4-7.2-5.4-7.2l-2.6-.3s-10.1 2.8-14.5 9.3c-3.3 4.9-2.8 14.6-2.8 14.6s23.2-1.1 38.6-4.2c5.9-1.2 29.8-6.5 29.8-6.5s-.4-7.1-.8-11.7c-.2-2.3-3-.8-3-2.2 0-.9 1.6-13 .5-15.2-2.1-4.1-2.9 1.9-2.9 1.9H138z"/></defs><clipPath id="ce"><use xlink:href="#cc" overflow="visible"/></clipPath><defs><filter id="cd" filterUnits="userSpaceOnUse" x="87.4" y="254.4" width="68.9" height="43.9"><feColorMatrix values="1 0 0 0 0 0 1 0 0 0 0 0 1 0 0 0 0 0 1 0"/></filter></defs><mask maskUnits="userSpaceOnUse" x="87.4" y="254.4" width="68.9" height="43.9" id="cg"><g filter="url(#cd)"><linearGradient id="cf" gradientUnits="userSpaceOnUse" x1="-248.83" y1="456.125" x2="-247.814" y2="456.125" gradientTransform="matrix(67.311 0 0 -67.311 16836.922 30978.566)"><stop offset="0" stop-color="#fff"/><stop offset=".245" stop-color="#ddd"/><stop offset=".783" stop-color="#888"/><stop offset="1" stop-color="#636363"/></linearGradient><path clip-path="url(#ce)" fill="url(#cf)" d="M87.4 254.4h68.9v43.9H87.4z"/></g></mask><linearGradient id="ch" gradientUnits="userSpaceOnUse" x1="-248.83" y1="456.125" x2="-247.814" y2="456.125" gradientTransform="matrix(67.311 0 0 -67.311 16836.922 30978.566)"><stop offset="0" stop-color="#0075be"/><stop offset=".833" stop-color="#0097dc"/><stop offset="1" stop-color="#009ee2"/></linearGradient><path clip-path="url(#ce)" mask="url(#cg)" fill="url(#ch)" d="M87.4 254.4h68.9v43.9H87.4z"/></g></g><g><defs><path id="ci" d="M2.1 250.4H334v65.3H2.1z"/></defs><clipPath id="cj"><use xlink:href="#ci" overflow="visible"/></clipPath><g clip-path="url(#cj)"><defs><path id="ck" d="M317.6 270.9c-18.7 11.1-61 21.8-84.2 27.3-43.1 10.1-108.2 17.4-144.9 17.4-31.1 0-62.3-6.4-80.2-12.5-3.4-1.2-7.2-2-5.7-5.7 1-2.6 7.2-2.6 9.9-2.1 12.1 1.9 32.7 6.5 43.4 6.8 21 .5 51.3-1.8 68.6-4.5 29.4-4.6 84.8-19.1 115.2-30.6 8-3 23.9-11 32-13.3 8.9-2.5 29.2-4.2 37.9-2.8 5.6.9 24.4 4.4 24.4 8.8 0 2.5-13.6 9.5-16.4 11.2"/></defs><clipPath id="cm"><use xlink:href="#ck" overflow="visible"/></clipPath><defs><filter id="cl" filterUnits="userSpaceOnUse" x="1" y="249.5" width="333" height="66.2"><feColorMatrix values="1 0 0 0 0 0 1 0 0 0 0 0 1 0 0 0 0 0 1 0"/></filter></defs><mask maskUnits="userSpaceOnUse" x="1" y="249.5" width="333" height="66.2" id="co"><g filter="url(#cl)"><linearGradient id="cn" gradientUnits="userSpaceOnUse" x1="-246.985" y1="456.023" x2="-245.968" y2="456.023" gradientTransform="matrix(326.331 0 0 -326.331 80601.016 149096.969)"><stop offset="0"/><stop offset="1" stop-color="#fff"/></linearGradient><path clip-path="url(#cm)" fill="url(#cn)" d="M1 249.5h333v66.2H1z"/></g></mask><linearGradient id="cp" gradientUnits="userSpaceOnUse" x1="-246.985" y1="456.023" x2="-245.968" y2="456.023" gradientTransform="matrix(326.3311 0 0 -326.3311 80601.023 149096.984)"><stop offset="0" stop-color="#c8007f"/><stop offset="1" stop-color="#b60065"/></linearGradient><path clip-path="url(#cm)" mask="url(#co)" fill="url(#cp)" d="M1 249.5h333v66.2H1z"/></g></g></g><g><defs><path id="cq" d="M121.1 282.5c-1-3.3-2.7-5.4-4.2-6.7 2.3.3 3.7.5 3.8.5.1 0 7.2 1 12.6 3 4.7 1.7 8.7 4.8 10.3 6.2-3.3 2.7-7.2 5.2-8 5.7-4.7.9-9.2 1.8-13.4 2.5.1-2.3 0-7.7-1.1-11.2m-6.8.8c-1.1-4.3-3.1-6.8-4.9-8.2 1.1.1 2.1.1 3.1.2.5.1 5 1.3 7 7.7 1 3.4 1.1 9 1 10.9-1.8.3-3.6.6-5.3.8.1-2.2 0-7.8-.9-11.4m34.2 0c3.5-4.2 4.5-7 4.9-8.3.6.1 1.3.4 1.4 1.5.3 3.5.6 8.4.7 10.3-5.1 1.2-10.3 2.3-15.3 3.4 2.8-1.9 6.4-4.6 8.3-6.9m-66.1 2.2c3-6.1 8.5-9.6 16.3-10.4 2.1-.2 4.4-.2 6.7-.2.9.2 5.4 1.6 7.2 8.8.9 3.4.9 9.3.8 11.3-1.3.2-2.6.4-3.8.5-6.5.8-17.5 2-30.6 2.7.4-2.4 1.3-8.5 3.4-12.7m51.5-7.8c-5.5-2-12.6-3-12.9-3-.2 0-.9-.1-2.1-.3-.1-.5-.3-1.1-.4-1.6 2.3-.8 10.1-3.2 18.2.1 7 2.8 10.8 6.2 12 7.5-.4.6-.9 1.2-1.5 1.9s-1.3 1.4-2.1 2.2c-1.6-1.4-6-4.9-11.2-6.8m16.1-15.9H150.3s.1 0 .1-.1l.1-.1.1-.1.1-.1v-.1-.1-.1c.1-.8.1-1.5.2-2.3 0-.3.1-.5.2-.8.5.3 1.2.9 1.1 1.9-.4 4.5-.6 9.3-.6 14.3 0 0-.1 1.6-2.1 4.7-1.5-1.5-5.4-4.8-12.3-7.6-8.5-3.4-16.5-1.2-19.2-.2-.3-1.5-.4-2.8-.3-3.3.3-1 1-1.5 1-1.5.1 0 5.4-3.7 14.3-4.8 10.8-1.4 16.5.4 16.6.4h.2c.1-.1.2-.1.2-.1m78.2.4c.5-1 .8-2.1.9-3.1.2-1.4.1-2.8-.1-3.7.2.2.3.6.4 1 .7 3.1 1.4 5.9 1.7 7.2-1.5.7-3.1 1.3-4.6 1.9.6-1.1 1.2-2.3 1.7-3.3m-9.6-4.3c-.7-1.3-1.5-2.3-2.4-3.1 6.4 2.4 8.9 7.2 9.5 8.5-.8 1.4-1.6 2.7-1.9 3.2-.3.1-.7.3-1 .4-.8-1.7-2.4-5.8-4.2-9m-37.2 6.1c3.9-4.8 14-9.5 22.6-10.4.9.2 5.8 1.6 8.2 4.8 2.2 3 4.6 8.6 5.4 10.7-4.2 1.7-8.3 3.2-11.9 4.4-7.7 2.5-18 5.5-29.3 8.4-.5-2.5-1.4-9.9 5-17.9m32.1-6.7c-1.3-1.8-3.3-3-5.1-3.9.4 0 .8 0 1.3.1 1.3.1 4.9 1 7.4 5.3 1.8 3.1 3.4 7.2 4 8.9-.7.3-1.3.5-1.9.8-.9-2.3-3.3-8.1-5.7-11.2m-25.6-1.7c2.8-1.6 15.2-8.3 26.7-5.6 9.7 2.3 12.3 8.1 12.7 9.1-.1.8-.3 1.6-.7 2.4-1.7-2.9-6.4-8.9-16.8-9.8-.4 0-.6-.1-.7-.1-1.1-.1-2.2-.1-3.4 0-5.7.3-12.1 2.2-17.4 5-.1-.3-.2-.7-.4-1M78.4 300c13.4-.7 24.8-1.9 31.4-2.7 7.4-.9 16.5-2.5 26.3-4.5 12.8-2.6 26.8-5.8 39.6-9.1h.1c11.6-3 22.3-6 30.1-8.6 3.9-1.3 8.2-2.9 12.7-4.7 1.2-.5 2.3-.9 3.5-1.4 5.2-2.1 10.6-4.4 16-6.7 15.5-6.6 31.6-13.4 41.3-15.3 5.4-1.1 11.6-1.6 17.9-1.6 6.5 0 12.7.6 18.4 1.7l.8.2c4.1.8 12.6 2.5 16.1 6.2.7.7 1.1 1.9 1.1 3.1 0 .4 0 .9-.1 1.3-4-3.9-12.3-5.6-16.8-6.4l-.8-.1c-11.6-2.3-25.4-2.4-36.9-.1-.8.2-1.6.3-2.4.5-.5.1-.8.6-.6 1 .1.5.6.7 1 .6.8-.2 1.6-.4 2.4-.5 11.3-2.2 24.9-2.2 36.3.1l.8.1c4.1.8 12.6 2.5 16.1 6.2.1.1.2.3.3.4-.1.1-.2.3-.3.4-6.7 7.2-28.9 17-46.4 22.6-26.5 8.4-60.5 17-86.6 21.7-28.2 5.1-72.1 10.6-110.3 10.6-14.5 0-27.2-.8-37.6-2.4-28.2-4.2-48.1-10.8-49.1-12.8-.2-1.2.3-1.9 1.2-2.7.4-.3 1.2-.7 3.5-.7 2.9 0 7 .7 11.4 1.4 2.7.4 5.4.9 8 1.2 9.8 1.2 20.7 1.8 32.3 1.8 6.4 0 12.7-.2 18.6-.5H78c.2-.2.3-.2.4-.3m78.1-23.6c-.2-2-1.7-2.9-3-3.1 0-4.7.2-9.2.6-13.4.2-1.9-1.1-3.1-2.2-3.7 4.5-8.9 26.7-15.9 31-17.2.8 2.5 1.5 4.9 2.3 7.1-.4.4-1 1.1-1.1 2.2-.3 1.7 1.9 7 2.8 9.1-2.9 1.6-5.3 3.5-6.8 5.4-6.9 8.7-6 16.7-5.4 19.3-5.7 1.5-11.6 2.9-17.5 4.3-.1-2-.4-6.7-.7-10m29.2-27.8c.1-.9.9-1.4.9-1.4l.1-.1c.1 0 5.2-5 18.1-7.7 11.5-2.4 18 1.6 18.1 1.6 0 0 1.5.9 1.8 2.3.5 2.9 1.2 6.6 2.2 11 0 0 .1.5.3 1.2-1.9-2.5-5.5-5.7-12.2-7.2-12-2.8-24.4 3.7-27.8 5.7-.9-2.5-1.6-4.7-1.5-5.4m-66.4-11.5c1.9-10.4 17.6-19.4 29.1-26 2.3-1.3 4.6-2.6 6.5-3.8 5.3-3.2 19-10.4 22.8-12.3 1 3.7 1.7 6.9 1.9 7.7-2 5.4-2.1 10.8-1.8 15.1.2 4.2 2.3 11.9 4.6 19.5-4.8 1.4-28.5 8.8-32.5 19-.3.7-.4 1.3-.5 2 0 .4-.1.9-.1 1.3-2.1-.5-7.6-1.3-16.3-.2-7 .9-11.8 3.2-13.9 4.4-1.1-6.3-1.7-15.9.2-26.7m112.9-41c.3-.4.2-.9-.2-1.2-.1-.1-3.1-2.3-7.7-4.7 1.6-1.1 3-2.3 3.9-3.1l.3-.2c5.5-4.8 7.6-7.3 11-11 1.2-1.3 2.6-2.9 4.3-4.8-.2 16.2-1.9 29.4-4.8 36.3-4.9 11.7-12.3 15.7-15.2 16.8.7-5.1 2.3-6.2 2.4-6.2.4-.2.6-.7.4-1.1-.2-.4-.7-.6-1.2-.4-.6.3-5.4 3.1-3 22.2-2.7-1.2-8.8-3-17.9-1.1-10.3 2.2-15.8 5.7-17.9 7.3-3.1-9.7-6.8-21.8-7.1-27.2-.4-6.9.1-17.1 9-25 4.4-4 9.8-6 15.8-6.1 2.9 2.2 6.1 4.4 8.6 5.5 1.3.6 2.5.8 3.8.8 2.1 0 4.1-.7 5.9-1.7 5 2.4 8.4 4.9 8.4 5 .2.1.3.2.5.2s.5-.1.7-.3m-53.9-5.4c1.2-.4 2.5-1.1 3.5-2 1.6-1.4 2.5-3.3 2.6-5.6.2-6-.7-14-1.2-18.2 5 6 10.5 11.8 15.3 16.8.8.9 2.2 2.1 3.8 3.4-5.7.5-10.7 2.6-14.9 6.4-3 2.7-5.1 5.6-6.6 8.6-.6-2.5-1.6-6.2-2.5-9.4m57.3 26.1c1.7-2.3 3.4-5.2 4.9-8.7 4.3-10.1 5-28.5 5-38.9.5-.5.9-1 1.4-1.5 5.3-5.5 7.5-10.9 6.9-16.8 0-.3-.1-.6-.1-.8 1.9-.2 6.9-.3 12.5 1.8 7.2 2.8 10.1 9.7 10.1 9.7.1.3.5.5.8.5.4 0 .7-.2.8-.6l2.7-7.6c3.1 3.3 12.9 15.6 9.9 35-1.8 11.5-11.8 22.3-25.5 27.4-4.9 1.8-9.9 2.4-14.4 2.4-6.8.2-12.6-1.2-15-1.9M55.2 151.7c1-1.6 3.1-4.6 5.7-5.3 7.5-1.9 16.1 7.1 18.4 9.7-2.2 1.5-4.2 3-6.2 4.5-2.4-1.5-12.5-7.6-17.9-8.9m116.5 38c-3.3-.2-12-1.5-20.4-3.3-.7-.2-1.5-.3-2.2-.4-3.7-.7-6.9-1.4-8.6-3.8-2-2.8-1.4-6.1-.7-9.9.1-.5.2-1.1.3-1.6 1.6-9.4 2.8-21.9 3.2-26.4.3.2.7.5 1 .6.8 1.3 4.7 7.1 13.6 9 2.1.4 4.3.6 6.3.6 4.7 0 8.6-.9 10-1.3 2.1 3 4.4 6.1 6.9 9.2.2 1.4 1.9 12.8 1.6 20.7-.1 1.8-.7 3.3-2 4.4-2 1.8-5.1 2.4-7.8 2.4-.4-.1-.9-.1-1.2-.2m-100-42.5c.7-1.1 2.3-3 4.9-3.3 3.6-.5 8.7 4.2 11 6.8-2.4 1.5-4.7 3-6.8 4.5-1.3-1.6-4.8-5.4-9.1-8m82.7-2.2c4.5-1.7 9.8-8.4 13.1-13 1-.4 2.1-.8 3.2-1.3-1.1 3.7-3 11.9.2 17.4.7 1.1 1.4 2.3 2.2 3.5-2.5.6-8.7 1.8-14.9.5-5.8-1.2-9.3-4.3-11.1-6.4.7.1 1.5.2 2.3.2 1.6 0 3.4-.3 5-.9m-83 19.1c6.7-5.4 14.3-10.4 24.5-16.6 2.7-1.6 5-3.1 7-4.4 8.6-5.3 12.9-8 22.9-12.8 1.3.5 2.7.6 3.8.6 1.2 0 2.1-.1 2.5-.2.6.2 2.1.6 4.2.8.5 1.7 2.5 7.8 5.3 11.2-.1 1.1-.4 4.6-.9 9.2-3.7 1.9-29.7 15.7-38.5 24.2-.8.8-1.6 2.2-2.4 3.9-.7 1.4-1.5 2.9-2.4 4.3l-.8 1.1c-1.1 1.6-2.1 3-2.8 3.9-1.5 1.8-2.2 5.2-2.9 8.5-.5 2.4-1 4.8-1.7 6-1.2 2-5 3-8.8 2.2-5.3-1.1-7.8-6.1-8.1-9.2-.2-1.7.7-3.9 1.6-6.1 1.3-3.3 2.7-6.8.4-8.7-2.2-2-7.9-3.9-13.8-5.9-5.6-1.9-11.4-3.8-13.1-5.5-3-3-3.2-8.2-2.2-10.8 1.6-4.3 5-6.8 8.6-6.4 4.2.5 14.6 6.5 17.9 8.5-.5.4-.9.7-1.4 1.1-.4.3-.4.8-.1 1.2.2.2.4.3.7.3.2-.2.4-.3.5-.4m53.1-36.4c-1.7-1.3-3.1-2.6-4.3-4 3.2 1.6 6.7 2.5 7.6 2.7l2.5 2.7h-.7c-1.5 0-3.5-.2-5.1-1.4m22.5 10c-.1-.6-.3-2.6.8-5.2.6-1.5 2.7-4.1 3.1-4.6 3.7-2.8 6.5-7.1 9.4-12-.1 3.4-.4 8.3-.8 10.7-.6 3.5-2.7 11.8-9.2 12.3h-.3c-1.3 0-2.2-.5-3-1.2m66.6 52.9c-4.3-1.9-11.5-7.7-13.9-10.1-9.3-9.6-20.8-22.1-27.3-33.2-3.4-5.8-.2-15.6.4-17.5 9.2-4.4 19.2-12.2 25.5-23.3 0 3.2.5 7.7 2.3 10.3 2 2.9 5.1 5.6 8.6 8.1 7.8 5.5 18.2 10 25.9 13.3l1.3.5c1.8.8 3.4 1.4 5 2 6.3 2.4 10.1 3.8 10.7 10.3.3 3.7-.1 8.8-6.5 15.5-.6.6-1.1 1.2-1.7 1.8-2.5 2.7-4.4 4.8-5.9 6.5-3.3 3.7-5.4 6.1-10.8 10.8l-.3.2c-2 1.7-6 5.4-10.4 5.4-.9 0-1.9-.2-2.9-.6M326.4 89.1c.3-2.5.5-5.2.4-8 0-1.1-.2-2.5-.4-3.9 1-.2 3.1-.7 6.7-1.5.7-.2 1.4-.3 2-.5 2.1-.5 3.4-.9 5.7 0 1.6.6 2.4 2.2 2.9 3.4 1 2.9.7 6.8-.7 8.9-1.5 2.3-5.6 2.3-7.6 2.3h-.5c-4.1.2-7.2-.4-8.5-.7m-124.3 26.7c-2.7-3.8-1.9-12.7-1.9-12.8v-.1c.2-.3.3-.7.5-1 5.1-11.7 7.6-21.8 8.7-29.9 2.1 1.4 6.5 4.3 8.1 5.7 5.7 4.8 6.5 7.8 6.6 8.8l-2.3.6c-.2.1-4.9 1.4-7.2 9.8-1.8 6.5-4.6 21.3-5.5 25.8-2.8-2.2-5.3-4.5-7-6.9m35.1 21.4l-1.3-.5c-7.5-3.2-17.6-7.6-25.2-12.9.6-3.2 3.7-19.5 5.6-26.4 2-7.3 5.9-8.5 5.9-8.6l5.4-1.5c9.9-2.8 14.9-4.2 28.9-7.5 3.2-.8 5.9-1.4 8.3-1.9 9.6-2.2 12.9-3 17.2-5.2 1.5-.8 3-2.5 4.3-4 .6-.6 1.1-1.2 1.5-1.6 1.1-1.1 2.3-2.2 3.5-3.5.8-.9 1.7-1.7 2.6-2.6 1.2-1.2 1.5-3.7 1.9-6.3.3-2.2.6-4.9 1.5-5.6 1.1-.9 3.8-1.1 6.3-.5 2.7.6 4.7 1.9 5.5 3.6.9 1.8.5 3.6 0 6.1l-.2.8c-.4 2-2.7 6-2.7 6.1-.2.3-.1.7.1 1 0 0 3.8 4.6 3.9 8.8.1 5.7-2.8 10.7-2.9 10.8-.2.4-.1.9.3 1.2.4.2.9.1 1.2-.3.1-.2 3.3-5.5 3.1-11.7-.1-4-2.9-8-3.9-9.4.3-.5.8-1.4 1.2-2.4 1.5-.6 8.3-3.2 12.6-4.9 3.8-1.5 9.4-3 12.4-2.6 1.3.2 2.3 1.3 2.8 2.2 1.9 2.9 2.3 7.3 1.6 9.7-.4 1.5-3.2 2.8-5.6 3.3-2.3.5-6.3.9-7.9 1.1-.8-3.1-1.6-5.6-1.7-5.8-.1-.5-.6-.7-1.1-.6-.5.1-.7.6-.6 1.1 0 .1 3 9.4 3.2 14.3.2 8.7-2.4 17.3-2.4 17.4-.1.5.1.9.6 1.1h.2c.4 0 .7-.2.8-.6.1-.2.6-2.1 1.2-5.1.5-.1 1.7-.2 3.9.1l.6.1c3.4.4 4 .5 5.9 2.5 2.5 2.7 1.1 7.9-1.8 10.8-1.9 1.9-6.1 1.1-8.1.7h-.1c-5.5-1.1-8.7-3.2-8.8-3.2 0 0-.1 0-.1-.1-.1 0-.1-.1-.2-.1h-.2-.1c-.1 0-6 1.1-15.2.9-3.1-.1-5.6-.6-7.6-1-1.5-.3-2.7-.6-3.7-.5-6 .4-8.4.7-15.5 1.7l-3.9.6c-14 2-30.1 4.3-43 6.7-.5.1-.8.5-.7 1 .1.4.4.7.8.7h.2c1.8-.3 3.7-.7 5.7-1 3.5 9.5 5.7 18.5 7.1 24.8-.8-.3-2-.8-3.3-1.3M113 40.2c-1.9-14.9-.1-23.4 2-26.2.8-1 1.4-1.6 2.4-1.7 1.5 0 4.3 1.4 9.6 8.1 7.1 9 10.4 13 11.7 14.5l-.9.6c-.6.3-8.8 5.1-15.3 12.6-3.1 3.6-5 6.4-6.4 8.8-.8-4-2.5-12.2-3.1-16.7m-1.6 60.6c-1.8-3-2.6-5.9-2.7-6.6.2-1.6 2.3-15.3 3.8-23.2.4-1.9.9-4.3 1.7-5.9.2-.5.5-1.1.7-1.6 1.7-4 3.4-7.7 9-14.3 6.4-7.4 14.7-12.2 14.8-12.2.3-.2.6-.4.9-.7 1.7-1.1 3.4-2.3 3.6-4.4.1-1.4-.6-3.9-2.1-8.7l-.9-2.9c-4.1-13.4-3.6-15-1-16.7 6.2-4 20.4 2.8 38.1 18.2 11.2 9.8 23.9 29.6 24.1 29.8.2.3.4.4.7.4.2 0 .3 0 .5-.1.4-.3.5-.8.3-1.2-.1-.1-3.1-4.8-7.4-10.7 6.2 4.5 10.9 9.4 11.7 10.3.5 2 5 21.5-8.1 51.1-5.9 13.3-17.2 22.3-27.3 27.1-.9.4-1.7.8-2.6 1.1.7-1.1 1.1-1.8 1.2-1.9.3-.4.1-.9-.3-1.2-.4-.3-.9-.1-1.2.3-.1.1-8.8 14.3-15.2 16.7-3.5 1.3-7.6 1-9.8-.8-2.8-2.3-5-8.5-5.9-11.1h.7c1 0 2-.1 3.1-.2.5 2.4 2.5 9.3 7.9 9.3h.5c5.5-.4 9.4-5.4 10.8-13.7.6-3.8.9-12.9 1-14.4.9-1.8 1.6-3.5 2-4.3.3 0 .7-.1 1-.2 1-.3 1.4-1.3 1.4-1.4.2-.4-.1-.9-.5-1.1-.4-.2-.9.1-1.1.5 0 0-.1.2-.3.3-.5.1-1 .1-1 .1-.4-.1-.8.2-.9.5 0 0-1.6 4.1-3.5 7.4-3.7 6.3-7.1 11.6-12.1 13.8-6.5 2.9-13.2 1.1-14.4.8l-2.8-3c4.8-1.7 8-3.4 10.3-5.6 3.1-2.9 3.5-6 3.3-8-.4-3-2.2-5.1-2.7-5.7-2.9-3.1-9.3-4.2-14.3-4.2-2.4 0-4.6.2-6.1.7-2 .3-3.7 1.3-5.1 2.9-1-1.2-2.6-3.3-3.8-5.3m27-98.8c-3.8 2.5-3.8 5.4.2 18.7l.9 2.9c1.3 4.2 2.2 7 2.1 8.1-.1.8-.6 1.5-1.5 2.2-1.2-1.4-4.6-5.4-11.8-14.6-4.7-6-8.2-8.8-11-8.8h-.1c-2 0-3.1 1.5-3.7 2.4-2.4 3.2-4.2 12.1-2.3 27.5.7 5.6 3.2 16.9 3.6 18.9-.6 1.2-1.1 2.4-1.6 3.6-.2.5-.4 1-.7 1.5-.9 1.8-1.4 4.3-1.8 6.3-1.6 8.3-3.9 23.3-3.9 23.4V94.4c0 .1.7 3.6 3 7.3 1.4 2.3 3.4 4.7 4.2 5.7-.4.7-.8 1.5-1.1 2.3-1.2 3.9-.2 8 2.8 11 1.3 1.9 3.7 5.5 7.6 8.4.1.1.3.2.4.3-9.2 4.5-13.6 7.2-21.8 12.3-2.1 1.3-4.4 2.7-7 4.3-2.1 1.3-4.1 2.5-6 3.7-1.7-2-7.7-8.2-12.7-7.6-3.4.4-5.3 2.9-6.2 4.2-3-1.6-6.4-2.5-9.7-1.6-3.6.9-6.3 5.2-7.1 6.7-4.2-.2-8 2.8-9.8 7.6-1.4 3.5-.7 9.4 2.6 12.7 2 2 7.7 3.9 13.7 5.9 5.5 1.9 11.2 3.8 13.2 5.5 1.3 1.2.3 3.9-.9 6.8-.9 2.4-1.9 4.9-1.7 6.9.5 4.3 3.6 9.5 9.5 10.7 1 .2 2 .3 2.9.3 3.4 0 6.5-1.2 7.7-3.3.9-1.5 1.4-3.9 1.9-6.5.6-2.9 1.3-6.3 2.6-7.7.7-.9 1.7-2.3 2.9-4l.8-1.1c1-1.5 1.9-3.1 2.6-4.5.7-1.4 1.4-2.8 2-3.4 7.9-7.7 31.1-20.2 37.1-23.3-.6 5.2-1.3 11.3-2.2 16.4-.1.5-.2 1.1-.3 1.6-.7 4-1.4 7.8 1 11.2 2.1 3 5.8 3.8 9.7 4.6.7.1 1.4.3 2.1.4 8.5 1.9 17.4 3.1 20.7 3.4h1.3c1 0 2.3-.1 3.7-.4.2.7.4 1.5.6 2.2-3.2 1.6-17.7 9.2-23.2 12.5-1.9 1.1-4.1 2.4-6.4 3.7-11.8 6.7-28 16-30 27.2-2.1 11.5-1.3 21.6-.2 28.3-.4.4-1 1.1-1.3 2.1-.3 1.1 0 3.2.4 5 0 .1 0 .3.1.4.1.6.3 1.1.4 1.5-2.9-.4-7.1-.8-11.4-.9H105c-2.3 0-4.7 0-6.8.2-8.4.8-14.4 4.6-17.7 11.3-2.3 4.6-3.2 11.3-3.5 13.6-5.7.3-11.8.4-18 .4-11.6 0-22.4-.6-32.1-1.7-2.6-.3-5.3-.7-8-1.2-4.4-.7-8.6-1.4-11.7-1.4-2.3 0-3.8.4-4.7 1.2-1 .9-2 2.1-1.7 4.2.5 3.9 27.1 10.8 50.6 14.3 10.5 1.6 23.3 2.4 37.9 2.4 38.4 0 82.3-5.5 110.7-10.6 26.2-4.8 60.3-13.3 86.8-21.8 18.2-5.8 40.2-15.6 47.1-23 .3-.3.6-.7.8-1.1.8-1.4.8-2.9.8-3.6 0-1.7-.6-3.2-1.6-4.3-3.9-4.1-12.4-5.7-17-6.7l-.8-.2c-5.9-1.2-12.2-1.8-18.8-1.8-6.4 0-12.7.6-18.2 1.7-9.9 1.9-26 8.8-41.7 15.4l-5.1 2.1c-.3-1.4-1-4-1.6-6.9-.3-1.2-.8-2.1-1.6-2.5-.3-.2-.7-.3-.9-.3-.9-4.1-1.6-7.5-2-10.2-.3-1.7-1.6-2.8-2.3-3.2-.8-6-.9-10.3-.7-13.5 1.7-.5 6.3-2.5 10.9-8 1.9.6 8.2 2.4 16.1 2.4 4.7 0 10-.6 15.1-2.6 14.3-5.4 24.7-16.7 26.6-28.8 3.7-23.8-11.2-37.4-11.4-37.5-.2-.2-.5-.3-.8-.2-.3.1-.5.3-.6.5l-2.5 7c-1.4-2.5-4.6-6.7-10.2-8.8-6.1-2.3-11.5-2.1-13.4-1.9-1.4-5.3-5.6-7-10.7-9-1.3-6.3-3.7-15.8-7.3-25.9 11.3-1.9 24.1-3.7 35.5-5.4l3.9-.6c7.2-1 9.4-1.3 15.3-1.7.8 0 1.9.2 3.3.5 2.1.4 4.6.9 7.9 1 8.2.2 13.8-.6 15.2-.8.9.6 4.1 2.3 9.1 3.3h.1c1.2.2 2.9.6 4.6.6 1.8 0 3.7-.4 5-1.7 3.4-3.4 5-9.7 1.8-13.2-2.4-2.6-3.3-2.7-7-3.1l-.6-.1c-1.8-.2-3-.2-3.8-.1.1-.4.2-.9.2-1.4 1.5.3 4.7.9 8.9.9h.3c2.3 0 7.1 0 9.1-3.1 1.6-2.5 2-7 .9-10.4-.8-2.3-2.1-3.8-3.9-4.5-2.8-1.1-4.5-.6-6.7-.1-.6.1-1.2.3-1.9.5-3.6.7-5.6 1.2-6.7 1.5-.1-.6-.3-1.2-.4-1.7 1.8-.2 5.5-.6 7.9-1.1.6-.1 5.9-1.4 6.9-4.5s.1-8.1-1.8-11.1c-1.1-1.7-2.5-2.7-4.1-2.9-4.3-.6-11.7 2.2-13.2 2.7-3.4 1.3-8.3 3.2-11 4.3.2-.5.3-1 .4-1.4l.2-.8c.6-2.7 1.1-4.9-.1-7.3-1.1-2.2-3.5-3.8-6.7-4.6-3.1-.7-6.2-.4-7.7.8-1.5 1.1-1.8 3.9-2.2 6.7-.3 2.1-.6 4.6-1.4 5.3l-2.6 2.6c-1.2 1.2-2.4 2.4-3.5 3.4-.5.4-1 1-1.6 1.7-1.2 1.3-2.7 3-3.9 3.6-4.1 2.2-7.1 2.8-16.8 5.1-2.3.5-5.1 1.2-8.3 1.9-14.1 3.3-19 4.7-29 7.5l-1.4.4c-.2-1.7-1.6-5-7.2-9.7-2-1.7-7.4-5.2-9-6.2 1.4-12.7-.7-20.1-.8-20.6 0-.1 0-.1-.1-.1 0-.1-.1-.1-.1-.2-.1-.1-7.1-7.9-16.1-13.4h-.1c-4.2-5.4-9.1-11.2-13.8-15.3-9.1-8-24.4-19.8-34.7-19.8-1.5 0-3.4.4-4.9 1.4"/></defs><clipPath id="cr"><use xlink:href="#cq" overflow="visible"/></clipPath><linearGradient id="cs" gradientUnits="userSpaceOnUse" x1="-246.247" y1="455.63" x2="-245.231" y2="455.63" gradientTransform="scale(-382.5208 382.5208) rotate(46.907 401.51 510.764)"><stop offset="0" stop-color="#585857"/><stop offset=".012" stop-color="#585857"/><stop offset=".292" stop-color="#5d5c5c"/><stop offset=".603" stop-color="#6a6a69"/><stop offset=".928" stop-color="#807f7f"/><stop offset="1" stop-color="#868585"/></linearGradient><path clip-path="url(#cr)" fill="url(#cs)" d="M504.6 147.5L185.1 489l-342.5-320.4L162.1-173z"/></g><g><defs><path id="ct" d="M119.5 106c-.1.1-.2.1-.3.2-.7.5-1.4 1.2-1.4 2.5 0 1.4.9 2.9 2.2 3.8 2.3 1.6 14.1 2.3 16.4 1 1.3-.7 2.2-2.1 2.2-3.5 0-1.2-.7-2.1-1.4-2.6-.1-.1-.2-.1-.3-.2-1.8-1.2-7-1.9-11.3-1.9-2.7-.2-5 .1-6.1.7"/></defs><clipPath id="cu"><use xlink:href="#ct" overflow="visible"/></clipPath><linearGradient id="cv" gradientUnits="userSpaceOnUse" x1="-254.155" y1="456" x2="-253.137" y2="456" gradientTransform="matrix(20.4277 1.2543 0 -20.4277 5309.604 9743.099)"><stop offset="0" stop-color="#7e7c7b"/><stop offset="1" stop-color="#b6b5b6"/></linearGradient><path clip-path="url(#cu)" fill="url(#cv)" d="M117.8 103.8l20.8 1.3V116l-20.8-1.3z"/></g><g><path fill="#FFF" d="M136.8 107.5c.5.5.8.8.8 1.4 0 1-.4 1.5-1 1.8-1 .5-6.6-.3-7.7-1.1-.6-.4-1-1.2-1-1.9 0-.9.7-1.3.8-1.3 1.3-.8 6.8 0 8.1 1.1"/></g><g><defs><path id="cw" d="M209.6 71.2c0 .4-.1.9-.1.9 2.1 1.4 6.5 4.3 8.1 5.7 5.7 4.8 6.5 7.8 6.6 8.8l-2.3.6c-.3.1-4.9 1.4-7.2 9.8-1.8 6.5-4.6 21.2-5.5 25.7-2.9-2.2-5.4-4.5-7.1-6.9-2.7-3.8-1.9-12.8-1.9-12.8l-1 2c-.4.8-.9 1.5-.9 1.5 0 3.2.4 7.7 2.3 10.4 2 2.9 5 5.6 8.6 8.1 7.8 5.5 18.2 10 25.9 13.3l1.3.6c1.8.8 3.4 1.4 5 2 6.3 2.4 10.1 3.8 10.7 10.3.3 3.7-.1 8.8-6.5 15.5-3.4 3.6-5.7 6.2-7.6 8.2-3.3 3.7-5.4 6.1-10.8 10.8l-.2.3c-2.4 2.1-8 7.1-13.5 4.7-4.3-1.9-11.5-7.7-13.8-10.1-9.3-9.6-20.7-22.1-27.3-33.3-3.4-5.8-.2-15.7.5-17.5 0 0-.5.2-1.2.5l-1 .4c-1.1 3.7-3 11.9.2 17.4.7 1.1 1.4 2.3 2.2 3.5-2.5.6-8.7 1.8-14.9.5-5.8-1.2-9.3-4.4-11.1-6.4 0 0-.8-.1-1.5-.4-.8-.3-1.3-.5-1.3-.5.8 1.3 4.7 7.2 13.6 9 2.2.5 4.3.6 6.3.6 4.6 0 8.5-.9 10-1.3 2.1 3 4.4 6.1 6.9 9.2.2 1.4 1.9 12.8 1.6 20.7-.1 1.8-.7 3.3-2 4.4-2.3 2-6.1 2.5-9 2.3-3.3-.2-12-1.5-20.4-3.3-.7-.2-1.5-.3-2.2-.5-3.7-.7-6.9-1.4-8.6-3.9-1.9-2.8-1.4-6.1-.7-9.9.1-.5.2-1.1.3-1.6 1.6-9.4 2.8-21.9 3.3-26.4 0 0-.3-.1-.8-.6-.4-.3-.8-.9-.8-.9-.2 2.4-1.6 17-3.4 27.7-.1.5-.2 1.1-.3 1.6-.7 4-1.4 7.8 1 11.2 2.1 3 5.8 3.8 9.7 4.6.7.1 1.4.3 2.1.4 8.5 1.9 17.4 3.1 20.7 3.4h1.4c2.3 0 6.2-.4 8.9-2.8 1.6-1.4 2.5-3.3 2.6-5.6.2-6-.7-14-1.2-18.2 5 6 10.5 11.8 15.3 16.8 2.5 2.6 9.8 8.5 14.4 10.5 1.3.6 2.5.8 3.8.8 5 0 9.4-3.9 11.6-5.8l.3-.2c5.5-4.8 7.6-7.2 11-11 1.8-2.1 4.1-4.6 7.5-8.2 5.3-5.5 7.5-10.9 7-16.8-.7-7.6-5.6-9.4-11.8-11.8-1.6-.6-3.2-1.2-4.9-2l-1.3-.6c-7.5-3.3-17.6-7.6-25.2-12.9.6-3.2 3.7-19.5 5.6-26.4 2-7.3 5.9-8.5 5.9-8.5l2.9-.8c.1 0 .2-.1.3-.1l.1-.1c.1-.1.1-.1.1-.2v-.1-.1c.1-.4 1-4.3-7.1-11.1-2-1.6-7.3-5.2-9-6.2-.1.1-.2.8-.2 1.1"/></defs><clipPath id="cx"><use xlink:href="#cw" overflow="visible"/></clipPath><linearGradient id="cy" gradientUnits="userSpaceOnUse" x1="-247.097" y1="457.203" x2="-246.081" y2="457.203" gradientTransform="scale(123.6403 -123.6403) rotate(58.559 286.163 449.341)"><stop offset="0" stop-color="#0064a2"/><stop offset=".012" stop-color="#0064a2"/><stop offset=".529" stop-color="#0066a4"/><stop offset=".775" stop-color="#006bac"/><stop offset=".964" stop-color="#0075b9"/><stop offset="1" stop-color="#0077bc"/></linearGradient><path clip-path="url(#cx)" fill="url(#cy)" d="M81.9 159.7l86.7-141.9 140.5 85.9-86.8 141.8z"/></g><g><defs><path id="cz" d="M187.9 255.5c2.8-1.6 15.2-8.3 26.7-5.6 9.7 2.3 12.3 8.1 12.7 9.1-.1.8-.3 1.6-.7 2.4-1.7-2.9-6.3-8.9-16.7-9.8-.4-.1-.7-.1-.7-.1-1.1-.1-2.2-.1-3.4 0-5.7.3-12.1 2.2-17.4 5-.2-.3-.3-.6-.5-1m-2.1-6.9c.1-.9.9-1.4.9-1.4l.1-.1c.1 0 5.2-5 18.1-7.7 11.5-2.4 18 1.6 18.1 1.6 0 0 1.5.9 1.8 2.3.5 2.9 1.2 6.6 2.2 11 0 0 .1.5.3 1.2-1.9-2.5-5.5-5.7-12.2-7.2-12-2.8-24.4 3.7-27.8 5.7-1-2.6-1.7-4.8-1.5-5.4m18.7-11c-13.2 2.8-18.6 7.8-18.9 8.1-.4.3-1.3 1.1-1.5 2.5-.3 1.7 1.9 7 2.8 9.1-2.9 1.6-5.3 3.5-6.8 5.4-8.3 10.4-5.3 19.8-5.1 20.2.1.4.5.6.8.6h.3c.5-.2.7-.6.5-1.1 0-.1-2.9-8.9 4.8-18.6 3.9-4.8 14-9.4 22.6-10.4.9.2 5.8 1.6 8.2 4.8 2.8 3.7 5.7 11.4 5.7 11.5.1.3.5.6.8.6.1 0 .2 0 .3-.1.4-.2.7-.7.5-1.1-.1-.3-3-8.1-5.9-12-1.3-1.8-3.3-3-5.1-3.9.4 0 .8 0 1.2.1 1.2.1 4.9.9 7.5 5.3 2.2 3.9 4.3 9.6 4.3 9.7.1.4.5.6.8.6h.3c.5-.2.7-.7.5-1.1-.1-.2-2.1-5.9-4.4-9.9-.7-1.3-1.5-2.3-2.4-3.1 6.4 2.4 8.9 7.2 9.5 8.5-1 1.8-2.1 3.4-2.1 3.4-.3.4-.1.9.2 1.2.1.1.3.1.5.1.3 0 .6-.1.7-.4.1-.1 2.1-3.2 3.2-5.5.5-1 .8-2.1.9-3.1.2-1.4.1-2.8-.1-3.7.2.2.3.6.4 1 1 4.2 1.9 7.9 1.9 7.9.1.4.5.7.8.7h.2c.5-.1.7-.6.6-1 0 0-.9-3.7-1.9-7.9-.3-1.2-.8-2.1-1.6-2.5-.3-.2-.7-.3-.9-.3-.9-4.1-1.5-7.5-2-10.2-.4-2.2-2.4-3.4-2.6-3.5-.3-.2-4.4-2.7-11.8-2.7-2.3 0-4.9.2-7.7.8"/></defs><clipPath id="cA"><use xlink:href="#cz" overflow="visible"/></clipPath><linearGradient id="cB" gradientUnits="userSpaceOnUse" x1="-249.192" y1="456.128" x2="-248.175" y2="456.128" gradientTransform="matrix(57.7422 0 0 -57.7422 14563.111 26598.055)"><stop offset="0" stop-color="#0064a2"/><stop offset=".012" stop-color="#0064a2"/><stop offset=".529" stop-color="#0066a4"/><stop offset=".775" stop-color="#006bac"/><stop offset=".964" stop-color="#0075b9"/><stop offset="1" stop-color="#0077bc"/></linearGradient><path clip-path="url(#cA)" fill="url(#cB)" d="M171.7 236.8H233v46.8h-61.3z"/></g><g><defs><path id="cC" d="M133.9 277.7c-5.5-2-12.5-3-12.9-3.1-.1 0-.9-.1-2.1-.3-.1-.5-.3-1.1-.4-1.6 2.3-.8 10.1-3.2 18.2.1 7 2.8 10.7 6.3 12 7.5-.4.6-.9 1.2-1.5 1.9s-1.3 1.4-2.1 2.1c-1.6-1.2-6-4.7-11.2-6.6m16.1-15.9h.4l.1-.1.1-.1.1-.1.1-.1v-.1-.1-.1c.1-.8.1-1.5.2-2.3 0-.3.1-.5.1-.8.5.3 1.2.9 1.1 1.9-.4 4.5-.6 9.3-.6 14.3 0 0-.1 1.6-2.1 4.7-1.5-1.5-5.4-4.9-12.3-7.7-8.5-3.4-16.5-1.2-19.2-.2-.3-1.5-.4-2.8-.3-3.3.3-1 1-1.5 1-1.5.1 0 5.4-3.7 14.3-4.8 10.8-1.4 16.5.4 16.6.5h.2c.1-.1.2-.1.2-.1m.6-6c-.2 0-.2.1-.3.1h-.1c-.1 0-.1.1-.2.2v.1c0 .1-.1.1-.1.2-.3.7-.5 1.4-.5 2.1 0 .4-.1.9-.1 1.3-2.1-.5-7.6-1.4-16.3-.3-9.3 1.2-14.9 4.9-15.1 5.1-.2.1-1.3.9-1.7 2.5-.3 1.1 0 3.2.4 5 0 .1 0 .3.1.4.1.6.3 1.1.4 1.5-2.9-.4-7.1-.8-11.4-.9H105.4c-2.3 0-4.7 0-6.8.2-8.4.8-14.4 4.6-17.7 11.3-2.8 5.5-3.6 14-3.6 14.4 0 .5.3.9.8.9h.1c.4 0 .8-.3.9-.8 0-.1.8-8.5 3.4-13.8 3.1-6.1 8.6-9.6 16.3-10.3 2.1-.2 4.4-.2 6.7-.2.9.2 5.4 1.6 7.2 8.8 1.1 4.2.8 12 .8 12 0 .5.4.9.8.9.5 0 .8-.4.9-.8 0-.3.3-8.1-.9-12.5-1.1-4.3-3.1-6.8-4.9-8.2 1.1.1 2.1.2 3 .2.5.1 5 1.3 7 7.7 1.3 4.1 1 11.5 1 11.6 0 .5.4.9.8.9.5 0 .8-.4.9-.8 0-.3.3-7.8-1.1-12.2-1-3.3-2.6-5.4-4.2-6.7 2.3.3 3.7.5 3.8.5.1 0 7.2 1 12.6 3 4.7 1.7 8.7 4.8 10.3 6.2-3.6 2.9-8 5.7-8.1 5.7-.4.3-.5.8-.3 1.2.2.3.4.4.7.4.2 0 .3 0 .5-.1.4-.2 8.8-5.5 12-9.4 3.5-4.2 4.6-6.9 4.9-8.3.6.1 1.3.5 1.4 1.5.4 4.3.8 11 .8 11 0 .5.4.8.9.8h.1c.5 0 .8-.4.8-.9 0-.1-.4-6.8-.8-11.1-.2-2-1.7-2.9-3-3.1 0-4.7.2-9.2.6-13.4.2-2.4-1.8-3.7-3-4.1h-.1c-.1.2-.2.2-.3.2.1 0 0 0 0 0"/></defs><clipPath id="cD"><use xlink:href="#cC" overflow="visible"/></clipPath><linearGradient id="cE" gradientUnits="userSpaceOnUse" x1="-248.495" y1="456.09" x2="-247.477" y2="456.09" gradientTransform="matrix(78.7319 0 0 -78.7319 19641.643 36186.773)"><stop offset="0" stop-color="#0064a2"/><stop offset=".012" stop-color="#0064a2"/><stop offset=".529" stop-color="#0066a4"/><stop offset=".775" stop-color="#006bac"/><stop offset=".964" stop-color="#0075b9"/><stop offset="1" stop-color="#0077bc"/></linearGradient><path clip-path="url(#cD)" fill="url(#cE)" d="M77.1 255.8h80.1V300H77.1z"/></g><g><defs><path id="cF" d="M78.4 300c13.4-.7 24.8-1.9 31.4-2.7 7.4-.9 16.5-2.5 26.3-4.5 12.8-2.6 26.8-5.8 39.6-9.1h.1c11.6-3 22.3-6 30.1-8.6 3.9-1.3 8.2-2.9 12.7-4.7 1.2-.5 2.3-.9 3.5-1.4 5.2-2.1 10.6-4.4 16-6.7 15.5-6.6 31.6-13.4 41.3-15.3 5.4-1.1 11.6-1.6 17.9-1.6 6.5 0 12.7.6 18.4 1.7l.8.2c4.1.8 12.6 2.5 16.1 6.2.7.7 1.1 1.9 1.1 3.1 0 .4 0 .9-.1 1.3-4-3.9-12.3-5.6-16.8-6.4l-.8-.1c-11.6-2.3-25.4-2.4-36.9-.1-.8.2-1.6.3-2.4.5-.5.1-.8.6-.6 1 .1.5.6.7 1 .6.8-.2 1.6-.4 2.4-.5 11.3-2.2 24.9-2.2 36.3.1l.8.1c4.1.8 12.6 2.5 16.1 6.2.1.1.2.3.3.4-.1.1-.2.3-.3.4-6.7 7.2-28.9 17-46.4 22.6-26.5 8.4-60.5 17-86.6 21.7-28.2 5.1-72.1 10.6-110.3 10.6-14.5 0-27.2-.8-37.6-2.4-28.2-4.2-48.1-10.8-49.1-12.8-.2-1.2.3-1.9 1.2-2.7.4-.3 1.2-.7 3.5-.7 2.9 0 7 .7 11.4 1.4 2.7.4 5.4.9 8 1.2 9.8 1.2 20.7 1.8 32.3 1.8 6.4 0 12.7-.2 18.6-.5H78c.2-.2.3-.2.4-.3m201-54.8c-9.9 1.9-26 8.8-41.7 15.4l-5.1 2.1c-.8.3-.9.4-1.6.7-1.5.7-3.1 1.3-4.6 1.9-1 .4-1.4.5-2.7 1.1-.3.1-.7.3-1 .4-.7.3-1.1.4-1.6.7-.7.3-1.3.5-1.9.8-.6.2-.9.4-1.6.6-4.2 1.7-8.3 3.2-11.9 4.4-7.7 2.5-18 5.5-29.3 8.4-.8.2-.8.2-1.7.4-5.7 1.5-11.6 2.9-17.5 4.3-.9.2-.8.2-1.7.4-5.1 1.2-10.3 2.3-15.3 3.4-2.6.5-2.4.5-4.5.9-4.7.9-9.2 1.8-13.4 2.5-1 .2-1.2.2-1.7.3-1.8.3-3.6.6-5.3.8-.8.1-.9.1-1.7.3-1.3.2-2.6.4-3.8.5-6.5.8-17.5 2-30.6 2.7-.6 0-1.3.1-1.8.1-5.7.3-11.8.4-18 .4-11.6 0-22.4-.6-32.1-1.7-2.6-.3-5.3-.7-8-1.2-4.4-.7-8.6-1.4-11.7-1.4-2.3 0-3.8.4-4.7 1.2-1 .9-2 2.1-1.8 4.2.5 3.9 27.1 10.8 50.6 14.3 10.5 1.6 23.3 2.4 37.9 2.4 38.4 0 82.3-5.5 110.7-10.6 26.2-4.8 60.3-13.3 86.8-21.8 18.2-5.8 40.2-15.6 47.1-23 .3-.3.6-.7.8-1.1.8-1.4.8-2.9.8-3.6 0-1.7-.6-3.2-1.6-4.3-3.9-4.1-12.4-5.7-17-6.7l-.8-.2c-5.9-1.2-12.2-1.8-18.8-1.8-6.4.2-12.6.7-18.2 1.8"/></defs><clipPath id="cG"><use xlink:href="#cF" overflow="visible"/></clipPath><linearGradient id="cH" gradientUnits="userSpaceOnUse" x1="-246.052" y1="455.872" x2="-245.035" y2="455.872" gradientTransform="scale(-332.1936 332.1936) rotate(10.143 2440.67 1608.771)"><stop offset="0" stop-color="#b20a63"/><stop offset="1" stop-color="#c7006d"/></linearGradient><path clip-path="url(#cG)" fill="url(#cH)" d="M348.4 314.3L11.2 374.6l-23.1-128.8 337.2-60.3z"/></g><g><path fill="#FFF" d="M233.6 159.6c.6 8.9-6.2 16.5-15 17.1-8.9.6-16.5-6.2-17.1-15-.6-8.9 6.2-16.5 15-17.1 8.9-.6 16.5 6.1 17.1 15"/><path fill="#C6C6C5" d="M216.3 142c-10.2.7-18 9.5-17.3 19.7.7 10.2 9.5 18 19.7 17.3 10.2-.7 18-9.5 17.3-19.7-.6-10.2-9.4-17.9-19.7-17.3m2.3 34.6c-8.9.6-16.5-6.2-17.1-15-.6-8.9 6.2-16.5 15-17.1 8.9-.6 16.5 6.2 17.1 15 .5 8.9-6.2 16.6-15 17.1"/><path fill="#0080C8" d="M215 156l2.7-1.1v.2l-2.7 1.1v-.2zm-1-5.8l.7-.3-.2-.2-.5.3v.2zm.1-1l-.2-.2v.2h.2zm.6 5.3l3-1.2v-.2l-3 1.2v.2zm-.4-2.6l1.8-.7-.2-.2-1.6.6v.3zm.3 1.7l2.8-1.1-.2-.2-2.7 1.1.1.2zm-.4-2.6l1.2-.5-.2-.2-1.1.4.1.3zm.7 4.3l2.8-1.1v-.2l-2.9 1.1.1.2zm-.4-2.6l2.3-.9-.2-.2-2.2.9.1.2zM209.4 154.4l-.7.8v-.3l.7-.7v.2zm-.5-2.3l-.1.1v.3l.2-.2-.1-.2zm.2 1l-.4.4v.3l.5-.5-.1-.2zm.7 3l-1.2 1.3v.3l1.3-1.3-.1-.3zm-.2 5.4l1.2-1.2-.1-.2-1.3 1.4h.2zm.9-2.2l-.1-.2-1.9 1.9.2.1 1.8-1.8zm0 2.5l.6-.7-.1-.2-.8.8.3.1zm-.5-4.7l-1.5 1.5v.3l1.5-1.6v-.2zm-.5-2l-.9 1v.3l1-1-.1-.3zm1.8 7.1l.1-.1-.1-.2-.2.2.2.1zm-1.1-4.1l-1.7 1.8v.3l1.8-1.9-.1-.2zM224.7 155.9l-1.3.9v-.3l1.3-1v.4zm-1.3-5.7l-.3.2v.3l.4-.3-.1-.2zm1.3 1.2l-1.5 1.1v.3l1.6-1.2-.1-.2zm-.6-.6l-.9.6v.3l1-.7-.1-.2zm-.1 8.4l-.5.3v.3l.4-.3.1-.3zm1.5-7.1l-2.2 1.4v.3l2.1-1.5.1-.2zm-.5 2.2l-1.6 1.2v.3l1.6-1.1v-.4zm-.5 2.5l-1 .7v.3l1-.7v-.3zm-.2 1.2l-.7.5v.3l.7-.5v-.3zm1-4.9l-1.9 1.4v.3l1.8-1.3.1-.4z"/><path fill="#E5007E" d="M219.6 157l-1.4-8.5-.2 7.1zM220.1 163l-2.4 1.6-5.8-2.2z"/><path fill="#0080C8" d="M220.3 162.7l3.2-6.6.1 4.3zM223.4 155.8l-2.2-7.7 2 1.9zM219.4 157.4l-1.7-1.6-2.6 1v.4z"/><path fill="#E5007E" d="M210.5 158.2l.7-8.6-2 2.1z"/><path fill="#0080C8" d="M210.6 158.5l1.1 3.3 3 .3z"/><path fill="#E30521" d="M225.1 165.3l.7 1v.1h-.1l-.5.1s-.1 0 0 0c0 0 0 .1.1.1s.7-.1.7-.1h.1s.1 0 0 .1l-.2.1-.9.3.1.1s2.8-.5 2.8-.4l-.1.1-.1.1-3 .6.1.1s2.5-.4 2.6-.4l-.1.1h-.1l-2 .4.1.1 1.6-.2h.1l-.1.1-.1.1h-.1l-1 .2.1.1h1l.1.2-.5.1s0 .1.1.1h.7c0 .1.2.7.2.7v.1h-.1l-1.5-.6-1.3 1.1h-.1V168.1l-1.3-1s-.1-.1 0-.1 1.6-.5 1.6-.5l.5-1.6c-.3.4-.3.3-.1.4 0-.1 0 0 0 0"/><path fill="#008FD3" d="M212.1 167.3l.7 1v.1l-.6.2s-.1 0 0 0c0 0 0 .1.1.1s.7-.1.7-.1h.1l.1.1-1.2.3.1.1h.7l.1.1-1.1.2.1.1c.1 0 1.2-.2 1.4-.2l.1.1-1.1.3.1.1 1.5-.1.1.1-1.1.3s0 .1.1.1l1.2-.1v.2l-.7.2s0 .1.1.1h.7v.8h-.1l-1.3-.6-1.3 1.1h-.1V170.2l-1.3-1s-.1-.1 0-.1 1.6-.5 1.6-.5l.5-1.6c-.3.3-.3.2-.2.3 0-.1 0 0 0 0"/><path fill="#FBBE00" d="M215.4 166.8l.7 1v.1l-.6.2s-.1 0 0 0c0 0 0 .1.1.1s.7-.1.7-.1h.1l.1.1-1.1.3.1.1h.7l.1.1-1.1.2.1.1c.1 0 1.2-.2 1.4-.2l.1.1-1.1.3.1.1 1.5-.1.1.1-1.1.3s0 .1.1.1l1.2-.1v.2l-.7.2s0 .1.1.1h.7v.8h-.1l-1.3-.6-1.3 1.1h-.1V169.7l-1.3-1s-.1-.1 0-.1 1.6-.5 1.6-.5l.5-1.6c-.5.3-.5.2-.3.3-.1-.1 0 0 0 0"/><path fill="#00151D" d="M218.6 166.3l.7 1v.1l-.6.2s-.1 0 0 0c0 0 0 .1.1.1s.7-.1.7-.1h.1l.1.1-1.1.3.1.1h.7l.1.1-1.1.2.1.1c.1 0 1.2-.2 1.4-.2l.1.1-1.1.3.1.1 1.5-.1.1.1-1.1.3s0 .1.1.1l1.2-.1v.2l-.7.2s0 .1.1.1h.7v.8h-.1l-1.3-.6-1.3 1.1h-.1V169.2l-1.3-1s-.1-.1 0-.1 1.6-.5 1.6-.5l.5-1.6c-.4.3-.4.2-.3.3 0-.1 0 0 0 0"/><path fill="#00914C" d="M221.9 165.8l.7 1v.1l-.6.2s-.1 0 0 0c0 0 0 .1.1.1H222.9l.1.1-1.1.3.1.1h.7l.1.1-1.1.2.1.1c.1 0 1.2-.2 1.4-.2l.1.1-1.1.3.1.1 1.5-.1.1.1-1.1.3s0 .1.1.1l1.2-.1v.2l-.7.2s0 .1.1.1h.7v.8h-.1l-1.3-.6-1.3 1.1h-.1V168.8l-1.3-1s-.1-.1 0-.1 1.6-.5 1.6-.5l.5-1.6c-.5.2-.5.1-.3.2-.1-.1 0 0 0 0"/></g></svg>