<svg xmlns="http://www.w3.org/2000/svg" xmlns:xlink="http://www.w3.org/1999/xlink" viewBox="0 0 359 335" enable-background="new 0 0 359 335"><defs><path id="a" d="M187.4 319.7c-6-.4-11.7-.8-16.4-1l-2.5-.1c-.3-.8-1-2.5-2-3.8 25.3 1 58 2 88 2 9 0 17.8-.1 26.1-.3-1.7 1.3-4.3 2.3-11.2 3.7-7 1.5-16.8 2-27.7 2-17.5-.1-37.8-1.4-54.3-2.5m-60.7-29.4c.7-1.3.1-2.5-.3-3.2 4.9-8.3 6.7-11.6 9-15.7 1.3-2.3 2.7-4.8 4.8-8.7 3.4-6 7.3-16.8 9.9-24.7.5-1.5 1-2.9 1.4-4.3 3.6 3.7 16.9 17.8 16 27-.3 3.3-.8 7.3-1.2 11.5-1 .1-2.3.9-2.6 3.2-.6 4.7-1.1 9-1.5 12.8-.5 4.9-1 9.1-1.5 12.4-.1.6 0 1.1.1 1.6h-5.7c-.9-1.8-1.9-3.3-2.9-4.2-4.2-3.7-14.5-4.6-24.7-4.3-.8 0-1.6.1-2.4.1.4-1.1 1.2-2.8 1.6-3.5m89.1-139.6c.2-.4.5-.7.7-1 3.6-5.3 9.6-15.3 10.7-17.2.9-.2 1.9-.5 3-.7 4.9-1.1 10.5-2.3 13.6-5.9 3.1-3.6 4.7-8.5 5-13h.1c1-.1 1.8-.2 2.6-.3 1.3 3.4 7.4 21.8-6.9 31.1-7.3 4.7-15.8 7.1-25.2 7.1-1.2 0-2.4 0-3.6-.1m-21.5-39.5c-.1-.2-.3-.5-.4-.7h7.7c-.1 1.3-.5 3.8-1.6 5.6-.9 1.4-4.5 3-7.1 4 1.4-2.8 2.6-6.5 1.4-8.9M117.7 4.5c-4.8 5-8.9 12.3-12.8 23-2.4 6.5-3.6 14.6-4.2 21.4-6.6 11.9-9.2 26.9-9.2 27v.6c1.2 2.7 2.6 5.3 4.3 7.9-1.8.6-3.4 1.4-4.5 2.4-4.1 4-2.9 9.4-2.4 11-5.3 6.2-9.6 12-11.5 18-3.1 10.1 16.8 21.4 22.2 23.4.5.2 1 .4 1.5.5.6 2.6 3.9 16.4 5.8 31.4-3.3-.6-13-1.1-21.5 9.9-5.6 7.2-8.1 15.4-9 18.9l-5.4-7.3c-.2-.2-.5-.4-.8-.3-.3 0-.5.2-.6.5-.4 1.1-10.1 28.2 4.4 41.2 3.4 3.1 7.9 4.1 12.5 4.1 8.5 0 17.5-3.7 20.9-5.3-3.4 16.3-9.2 38.2-12.8 50.6-1.1.1-2.7.7-3.3 2.8-1.3 4.6-2.5 9.8-3.6 14.5-3.3-.1-5.4-.2-5.4-.2-.1 0-.2 0-.3.1l-10.7 4.1c-.2.1-1.8.7-1.8 2 0 .9.3 1.4.6 1.7.6.6 1.4.7 1.6.7.1 0 5.6.5 13.9 1.2-.3 1.3-.5 2.6-.7 3.6v.2c-9.9-.6-18.5-1-24.4-1.4-17.5-1-46.8-3.8-47.1-3.8h-.2-.1l-10.9 3.6c-.2.1-1.8.6-1.9 1.9-.1.9.2 1.4.5 1.7.6.7 1.4.8 1.6.8.4.1 26.4 3.7 53.2 6.4 21.3 2.1 113.4 11 168.7 11 12.5 0 23-.4 30.5-1.5 22.5-3.2 27.9-8.5 29.7-10.3.4-.4 3.1-3.5 4.1-6.3 15.9-.6 28-1.7 36-3.2 22.3-4.3 27.4-9.8 29.2-11.6.5-.6 4.7-5.7 4-8.7-.1-.3-.2-.6-.4-.9v-.1c-.2-.3-.5-.6-.9-.8-2-1-4.1 1-5 2.5l-.2.2c-2 2.4-3.1 3.7-12.9 6.2-17.9 4.6-54.9 3.9-81.9 3.4-4-.1-7.7-.2-11.2-.2-.4-1-1.5-3.3-3.9-5-2.7-1.9-5.9-2.3-7.2-2.4-.6-2-1.5-4.1-2.7-6.1-4.3-7-12.9-10.7-23-9.9-2.8.2-7.6.6-12.5 1.1.3-1.4.9-3.7.9-4.6 0-1.5-1-2.4-1.8-2.7 2.5-17.4 3.2-26.1 2.5-32.5-1-8.9-25-46-27.7-50.2.3-.8.6-1.7.9-2.4.8-2.3 1.5-4.6 2.2-6.9 4.3-.5 9.5-1 11.9-1.3 2.1-.2 5.3-1.5 7.3-4.1 1.2-1.6 1.8-3.4 1.8-5.4 3.8-1.6 10.5-5.5 17.9-14.6 4.2 1 9.8 2 16 2 8.7 0 18.7-2 27.3-8.5 15.1-11.4 7.3-37.8 6.1-41.3.5-.8.9-1.8 1.3-2.9.6-1.8 1.7-6.3 2.1-8.3h64c.4 0 .8-.3.8-.7.1-1 .7-10.2-1.8-12.9-.5-.6-1.2-.9-1.9-.9h-11.6c-.9 0-1.7.3-2.4 1-1.4 1.4-1.7 4-1.8 5.3h-85.5l-3-5.6c-.1-.2-.4-.4-.7-.4-.1 0-13.2-.8-17.4-4.4-1.9-1.6-1.9-4.6-2-7 0-1.3-.1-2.5-.3-3.3-.4-1.1-1.5-2.3-5.2-2.3-1.2 0-2.1.1-2.1.1-.4.1-.7.4-.7.8v26.9s0 .9-1.3 2c-.8.7-4.3 1.1-7.7 1.2 1.4-2.6 2.6-5.3 3-7.2v-.2c1-1.6 1.7-3.6 1.7-6 0-3.2-1.3-5.1-2.8-6.3-1.9-5.9-6.4-19.7-9.3-27-1.1-2.7-2.3-4.8-3.5-6.2 0-.1-.1-.1-.1-.1l-.8-.9c-.8-.9-1.5-1.7-2.4-2.5-.3-1.9-1.9-10.5-3.1-15.5-2.9-12.3-6.8-19.4-8.6-21.1-.6-.6-2.9-2.4-5.4-1.5-2.7.9-4.5 4.5-5.4 10.6-1.1 7.2-1.6 9.3-2.4 11.2-1 2.7-4.2 2.3-4.3 2.2-2.7-.6-5.5-1.5-6.1-3.5-.2-.7-.3-2.2-.4-4.3-.1-1.2-.2-2.7-.3-4.4-.7-8.6-3.5-11.3-5.6-12.6-.7-.4-1.6-.7-2.7-.7-2.4.1-5.4 1.2-7.9 3.7"/></defs><clipPath id="b"><use xlink:href="#a" overflow="visible"/></clipPath><radialGradient id="c" cx="-239.545" cy="466.082" r=".941" gradientTransform="matrix(82.0001 202.667 119.2979 -48.2685 -35806.707 71146.164)" gradientUnits="userSpaceOnUse"><stop offset="0" stop-color="#fff"/><stop offset=".356" stop-color="#fff"/><stop offset=".544" stop-color="#f6f6f6"/><stop offset=".852" stop-color="#ddd"/><stop offset="1" stop-color="#cfcfcf"/></radialGradient><path clip-path="url(#b)" fill="url(#c)" d="M308.2-123.7l166.3 411L50.7 458.8l-166.2-411z"/><defs><path id="d" d="M117.7 4.5c-4.8 5-8.9 12.3-12.8 23-2.4 6.5-3.6 14.6-4.2 21.4-6.6 11.9-9.2 26.9-9.2 27v.6c1.3 3 2.9 6 4.9 8.9.1.1.2.2.3.2h.1c.1 0 .2.1.3.1h.2c2.3-.6 5.2-.9 8.2-.8.3 0 .6-.2.7-.4.1-.2.2-.4.1-.6-.4-1.9-.6-3.4-.7-3.8.3-.9 2.6-6.5 13.4-18.2 13.2-14.2 24.3-20.2 33-17.8 4.8 1.3 7 4.9 7.9 6.9 1.3 2.9 3.9 9.3 6.4 19.6v.1c0 .1 0 .1.1.2 0 0 0 .1.1.1l.1.1s.1 0 .1.1c.1 0 .1.1.2.1H167.2s.1 0 .1-.1c.1 0 .1 0 .1-.1l.1-.1.1-.1s0-.1.1-.1c0 0 0-.1.1-.1v-.2-.1c-1.5-9.9-2.4-25.9 1.7-26.6.5-.1 1.3.4 2.1 1.3.3.3.8.4 1.1.1.1-.1.1-.1.1-.2.1-.3.1-.7-.1-.9l-.8-.9c-.8-.9-1.5-1.7-2.4-2.5-.3-1.8-1.9-10.5-3.1-15.5-2.9-12.3-6.8-19.4-8.6-21.1-.6-.6-2.9-2.4-5.4-1.5-2.7.9-4.5 4.5-5.4 10.6-1.1 7.2-1.6 9.3-2.4 11.2-1 2.7-4.2 2.3-4.3 2.2-2.7-.6-5.5-1.5-6.1-3.5-.2-.7-.3-2.2-.4-4.3-.1-1.2-.2-2.7-.3-4.4-.7-8.6-3.5-11.3-5.6-12.6-.7-.4-1.6-.7-2.7-.7-2-.2-5 .9-7.5 3.4"/></defs><clipPath id="e"><use xlink:href="#d" overflow="visible"/></clipPath><linearGradient id="f" gradientUnits="userSpaceOnUse" x1="-241.305" y1="465.252" x2="-240.365" y2="465.252" gradientTransform="scale(-126.7524 126.7524) rotate(-3.619 -7479.701 -3560.821)"><stop offset="0" stop-color="#585857"/><stop offset=".317" stop-color="#878786"/><stop offset=".75" stop-color="#c2c2c2"/><stop offset=".957" stop-color="#d9d9d9"/><stop offset="1" stop-color="#d9d9d9"/></linearGradient><path clip-path="url(#e)" fill="url(#f)" d="M172.9 90.7l-86.7-5.5 5.7-89.5 86.7 5.5z"/><path fill="#FFF" d="M125.7 5.8c-3.1-1.2-5.7 2.4-7.9 6-2.3 3.9-4.5 10-5.5 14.1-2.4 10.2-3.1 22.1-3.1 22.2v.4s0 .1.1.1l.1.1s.1 0 .1.1c0 0 .1 0 .1.1.1 0 .1 0 .2.1h.1c.1 0 .2 0 .3-.1h.1c.1 0 .1-.1.2-.1 8.5-10.2 18-18.5 18.1-18.5l.1-.1.1-.1V30v-.2-15.9c.2-4.6-.9-7.3-3.1-8.1M162.1 24.1c-1.1-6.8-3-15.2-5.4-16.9-.4-.3-1.1-.4-1.8-.1-.9.5-1.4 1.6-1.4 3.4v20.4c0 .1 0 .2.1.4s.2.4.4.5c2 .8 3.7 1.7 5.3 2.7 1 .6 1.9 1.2 2.7 1.7.1 0 .1.1.2.1h.2c.1 0 .3 0 .4-.1.1-.1.2-.1.2-.2 0 0 0-.1.1-.2v-.2c.2 0 .5-2.7-1-11.5"/><defs><path id="g" d="M111 10.1h48.7v35.7H111z"/></defs><clipPath id="h"><use xlink:href="#g" overflow="visible"/></clipPath><path clip-path="url(#h)" fill="#EDEDED" d="M120.9 10.1c-.5.7-1.1 1.6-1.7 2.6-2.3 3.7-4.4 9.7-5.3 13.6-1.7 7.3-2.6 15.5-2.9 19.5 5.6-6.5 11.4-12 14.4-14.8-.3-8.3-1.9-15.5-4.5-20.9M155.1 13.6v17c1.6.7 3.2 1.5 4.6 2.3-.6-7.6-2.1-14.3-4.6-19.3"/><defs><path id="i" d="M90.9 194.4c-6.9 6.2-7.2 12.6-6.7 16l-4-3.4c-.2-.2-.5-.2-.8-.1-.3.1-.5.3-.5.6-.1.6-2.2 15.2 5.3 18.5 2 .9 4.9 1.2 8 1.2 8 0 17.5-2.2 18.1-2.3.3-.1.6-.3.6-.6.5-3 .8-5.5 1-7.4.1-.9.1-2.1.1-3.8v-.2-.2s0-.1-.1-.1l-.1-.1-.1-.1-.1-.1h-.2-.5c-.1 0-6.8 3.6-10.6 3-2.8-.5-4.5-1.6-5.1-3.4-2.3-6.6 9.2-19.9 9.4-20 .2-.2.3-.5.1-.8-.1-.3-.4-.5-.7-.5-.1 0-.6-.1-1.3-.1-2.7 0-7.9.4-11.8 3.9"/></defs><clipPath id="j"><use xlink:href="#i" overflow="visible"/></clipPath><linearGradient id="k" gradientUnits="userSpaceOnUse" x1="-242.381" y1="463.892" x2="-241.44" y2="463.892" gradientTransform="matrix(-53 -38.25 -38.25 53 5014.398 -33632.246)"><stop offset="0" stop-color="#585857"/><stop offset=".317" stop-color="#878786"/><stop offset=".75" stop-color="#c2c2c2"/><stop offset=".957" stop-color="#d9d9d9"/><stop offset="1" stop-color="#d9d9d9"/></linearGradient><path clip-path="url(#j)" fill="url(#k)" d="M99.8 243.9l-40.6-29.3 29.5-40.9 40.6 29.4z"/><defs><path id="l" d="M253.1 112.4c.2.6.5 1.3.7 2.3l7.1-2.1c-.3-1.2-.5-2.2-.8-2.9-1.3 1.2-3.4 2.1-7 2.7"/></defs><clipPath id="m"><use xlink:href="#l" overflow="visible"/></clipPath><linearGradient id="n" gradientUnits="userSpaceOnUse" x1="-253.143" y1="473.529" x2="-252.202" y2="473.529" gradientTransform="matrix(-9.8972 3.439 3.439 9.8972 -3870.596 -3706.133)"><stop offset="0" stop-color="#585857"/><stop offset=".193" stop-color="#7a7877"/><stop offset="1" stop-color="#d9d9d9"/></linearGradient><path clip-path="url(#m)" fill="url(#n)" d="M262.4 114.1l-8.5 3-2.4-6.9 8.5-3z"/><defs><path id="o" d="M254.2 116.2c1.8 7.2 3.3 21-8.8 28.8-7.6 4.9-16.3 7.4-26.1 7.4-1.5 0-3-.1-4.6-.2-.6.8-1.1 1.5-1.7 2.3 9.9 2.3 27.3 4.1 41.2-6.4 10.7-8.1 8.9-25 7-34l-7 2.1z"/></defs><clipPath id="p"><use xlink:href="#o" overflow="visible"/></clipPath><linearGradient id="q" gradientUnits="userSpaceOnUse" x1="-238.608" y1="463.412" x2="-237.667" y2="463.412" gradientTransform="scale(76.6557 -76.6557) rotate(37.58 566.11 585.403)"><stop offset="0" stop-color="#0075be"/><stop offset=".393" stop-color="#0075be"/><stop offset=".63" stop-color="#008ed4"/><stop offset=".822" stop-color="#009ee2"/><stop offset="1" stop-color="#009ee2"/></linearGradient><path clip-path="url(#p)" fill="url(#q)" d="M191.5 130.7L245.6 89l40.9 53.1-54.2 41.6z"/><defs><path id="r" d="M194.7 67.2v25.3h60.1c.4 0 .7.3.8.7l.2 2H328c.2-3 .2-9.3-1.4-11-.3-.3-.5-.4-.7-.4h-11.6c-.5 0-.9.2-1.2.5-1.2 1.2-1.4 4-1.4 5 0 .2-.1.4-.2.6-.2.2-.4.2-.6.2h-86.7c-.3 0-.6-.2-.7-.4l-3-5.6c-2.4-.2-13.7-1.2-17.9-4.7-2.4-2-2.5-5.5-2.6-8.2 0-1.1 0-2.2-.3-2.8-.3-.8-1.6-1.2-3.7-1.2-.6-.1-1 0-1.3 0"/></defs><clipPath id="s"><use xlink:href="#r" overflow="visible"/></clipPath><linearGradient id="t" gradientUnits="userSpaceOnUse" x1="-240.699" y1="466.895" x2="-239.758" y2="466.895" gradientTransform="scale(-81.3058 81.3058) rotate(54.654 329.035 463.386)"><stop offset="0" stop-color="#7d7b7a"/><stop offset=".638" stop-color="#b9b8b7"/><stop offset="1" stop-color="#8e8c8a"/></linearGradient><path clip-path="url(#s)" fill="url(#t)" d="M341.4 76.5l-57.9 81.7-102.1-72.4 58-81.6z"/><defs><path id="u" d="M194.6 94.1c-.2.6-.6 1.5-1.8 2.5-2 1.7-10.6 1.6-12.2 1.6h-68s-1.1 0-1.7.6c-.3.3-.4.8-.4 1.3.2 2.5 1.3 4.7 1.8 5.5 9 .5 19.3 1.4 26.3 2 2.6.2 4.6.4 5.8.5 3.3.2 6.5-2 9.3-4.2 0 0 .1 0 .1-.1 2.4-1.4 8.7-4.6 14.7-3.8 5.1.7 9.6 7.2 10.7 9 3.9-.2 10.9-.2 11-.2h12.6l.1.1.1.1.1.1.1.1V109.5c0 .2-.1 4.4-1.9 7.3-1.6 2.5-8.3 4.8-9.8 5.3-1.1 1.5-2.5 2.6-4 3.3 0 .4-.1 1.3-.4 2.4.5.1 1.3.2 2.3.4.8-2.4 2.3-4.4 5.8-6.1 2.3-1.1 4.7-1.6 7.2-1.5 2-2.1 2.4-3.6 2.9-5.1.5-1.4.9-2.9 2.5-4.8 1.5-1.8 5.1-3.4 8.3-3.7 2.3-.2 4.2.3 5.6 1.3 1.7-1.3 7.1-5.2 11.4-2.9.4-.9 1.1-2 2.6-2.7 1.1-.5 4.7-2.1 7.9-1 1.6.5 2.7 1.6 3.5 3.2.8 1.7 1.3 3.9 1.3 6.3 9.8-.9 10.8-2.5 12.4-6.7.6-1.6 1.6-5.7 2-7.8h-8c-.4 0-.7-.3-.8-.7l-.2-2h-59.2z"/></defs><clipPath id="v"><use xlink:href="#u" overflow="visible"/></clipPath><linearGradient id="w" gradientUnits="userSpaceOnUse" x1="-240.647" y1="466.762" x2="-239.706" y2="466.762" gradientTransform="scale(-92.5185 92.5185) rotate(54.654 329.418 464.362)"><stop offset="0" stop-color="#c20a6c"/><stop offset=".472" stop-color="#e3097e"/><stop offset="1" stop-color="#e3097e"/></linearGradient><path clip-path="url(#v)" fill="url(#w)" d="M279.3 105.6L212 200.4 94.2 116.9l67.3-94.8z"/><defs><path id="x" d="M173.2 145.4c-1.1.4-4.7 1.3-9.1 1.8.4 4.6 2.6 26.9 2.8 33.1 3.1-.3 14.1-1.5 17.9-1.9 1.4-.2 4.4-1.1 6.2-3.5 1.3-1.6 1.7-3.7 1.4-6v-.1c0-2.8-4.4-14.2-8.1-23.2-1.1-2.6-2.1-5-2.9-6.9-1.5 3-4.3 5.4-8.2 6.7"/></defs><clipPath id="y"><use xlink:href="#x" overflow="visible"/></clipPath><linearGradient id="z" gradientUnits="userSpaceOnUse" x1="-236.462" y1="466.092" x2="-235.521" y2="466.092" gradientTransform="scale(46.1045 -46.1045) rotate(-28.974 -1024.72 -232.851)"><stop offset="0" stop-color="#0075be"/><stop offset=".393" stop-color="#0075be"/><stop offset=".63" stop-color="#008ed4"/><stop offset=".822" stop-color="#009ee2"/><stop offset="1" stop-color="#009ee2"/></linearGradient><path clip-path="url(#y)" fill="url(#z)" d="M170.8 126.5l39.6 21.9-24.4 44-39.5-21.9z"/><g><defs><path id="A" d="M92.5 87.9c-2.8 2.7-2.6 6.4-2.3 8.3.4-.4.7-.8 1.1-1.3 4.7-5.4 13.2-7.2 20.1-4.1 2.5 1.1 4.8 3.1 6.8 5.8h14.7c-5.8-5.7-10.2-8.1-19-10.6-2.8-.8-6.1-1.2-9.4-1.2-5 0-9.8 1-12 3.1"/></defs><clipPath id="B"><use xlink:href="#A" overflow="visible"/></clipPath><linearGradient id="C" gradientUnits="userSpaceOnUse" x1="-243.783" y1="465.09" x2="-242.842" y2="465.09" gradientTransform="matrix(-44.6669 -9 -9 44.6669 -6569.944 -22873.074)"><stop offset="0" stop-color="#0075be"/><stop offset=".393" stop-color="#0075be"/><stop offset=".63" stop-color="#008ed4"/><stop offset=".822" stop-color="#009ee2"/><stop offset="1" stop-color="#009ee2"/></linearGradient><path clip-path="url(#B)" fill="url(#C)" d="M131.3 105l-43.9-8.8 4-19.8 43.8 8.8z"/></g><g><defs><path id="D" d="M118.1 182.5c-.2 2.4 0 10.2 10.3 11.3 6.7.4 23.2-1.4 26.3-1.8 4.5-.6 10.7-1.4 10.7-10.8 0-4.4-2.3-29-2.8-33.8-1.4.1-2.8.2-4.2.2-3.7 0-7.4-.5-10.4-1.8-1.9-.8-7.5-1.4-15.7-1.6-3.5-.1-6.6-.2-9.4-.4-.8 5-4.5 35-4.8 38.7"/></defs><clipPath id="E"><use xlink:href="#D" overflow="visible"/></clipPath><linearGradient id="F" gradientUnits="userSpaceOnUse" x1="-238.095" y1="466.85" x2="-237.154" y2="466.85" gradientTransform="scale(64.9953 -64.9953) rotate(-56.717 -552.541 10.072)"><stop offset="0" stop-color="#0075be"/><stop offset=".393" stop-color="#0075be"/><stop offset=".63" stop-color="#008ed4"/><stop offset=".822" stop-color="#009ee2"/><stop offset="1" stop-color="#009ee2"/></linearGradient><path clip-path="url(#E)" fill="url(#F)" d="M151.1 122l37.3 57-56.2 36.9-37.3-57z"/></g><g><defs><path id="G" d="M145 321.5l13 3.2c-.4-1.4-1.2-3.8-3.1-5.9-1.4-1.6-7-2.5-9.9-2.8v5.5zm8.2-6.5c-.8.2-1.6.3-2.4.4 2.2.5 4.3 1.3 5.3 2.4 2.3 2.6 3.2 5.5 3.6 6.9 1.2-.5 3.5-1.4 5-2.7 1.7-1.4 2.2-2.4 2.4-2.7-.3-.8-1.3-3.4-2.7-4.5-2.1-1.7-5-2.7-6.5-3.1-.4 1-1.4 2.5-4.7 3.3"/></defs><clipPath id="H"><use xlink:href="#G" overflow="visible"/></clipPath><linearGradient id="I" gradientUnits="userSpaceOnUse" x1="-236.76" y1="463.286" x2="-235.819" y2="463.286" gradientTransform="scale(46.2294 -46.2294) rotate(19.48 1253.157 925.879)"><stop offset="0" stop-color="#585857"/><stop offset=".193" stop-color="#7a7877"/><stop offset="1" stop-color="#d9d9d9"/></linearGradient><path clip-path="url(#H)" fill="url(#I)" d="M140.9 313.1l23.7-8.3 6.5 18.5-23.6 8.3z"/></g><g><defs><path id="J" d="M123.8 295.5s-.1 0 0 0c-.1 0-.1 0 0 0-1.9.1-3.7.3-5.5.4-.6.5-3 2.8-4.6 6.3-1.1 2.5-2.3 6.7-2.8 8.6l7.5.4c.4-1.6 1.5-5.7 2.8-9 1.3-3.4 2.9-5.5 4.1-6.8-.4 0-1 0-1.5.1"/></defs><clipPath id="K"><use xlink:href="#J" overflow="visible"/></clipPath><linearGradient id="L" gradientUnits="userSpaceOnUse" x1="-237.78" y1="461.661" x2="-236.839" y2="461.661" gradientTransform="scale(42.7715 -42.7715) rotate(47.764 412.158 498.215)"><stop offset="0" stop-color="#585857"/><stop offset=".193" stop-color="#7a7877"/><stop offset="1" stop-color="#d9d9d9"/></linearGradient><path clip-path="url(#K)" fill="url(#L)" d="M103.1 304l14.4-15.9 15.8 14.4-14.4 15.9z"/></g><g><defs><path id="M" d="M221.6 306.5l13.4 3.1c-.5-1.2-1.5-3.2-3.4-5.1-1.5-1.5-7.2-2.2-10-2.3v4.3zm8.2-5.8c-.7.2-1.5.4-2.2.6 2.1.4 4.2 1.1 5.2 2.1 2.4 2.5 3.6 5 4 6.3 1.1-.3 3.3-1.1 4.7-2.4 1.8-1.6 2.4-3.1 2.5-3.5-.2-.7-1.2-2.9-3.5-4.5s-5.1-2-6.3-2.1c-.3.9-1.4 2.5-4.4 3.5"/></defs><clipPath id="N"><use xlink:href="#M" overflow="visible"/></clipPath><linearGradient id="O" gradientUnits="userSpaceOnUse" x1="-237.239" y1="462.918" x2="-236.299" y2="462.918" gradientTransform="scale(47.5878 -47.5878) rotate(28.046 823.621 711.884)"><stop offset="0" stop-color="#585857"/><stop offset=".193" stop-color="#7a7877"/><stop offset="1" stop-color="#d9d9d9"/></linearGradient><path clip-path="url(#N)" fill="url(#O)" d="M216.4 299.9l22.7-12 10.2 19-22.7 12.1z"/></g><g><defs><path id="P" d="M191.6 282.7c-.4.4-1.9 1.8-3.3 5-1.2 2.6-2.2 8.3-2.6 10.5l7.1.1c.1-1.5.6-4.8 1.9-8.7 1.2-3.7 2.8-6.1 4-7.5-2.4.2-4.9.4-7.1.6"/></defs><clipPath id="Q"><use xlink:href="#P" overflow="visible"/></clipPath><linearGradient id="R" gradientUnits="userSpaceOnUse" x1="-237.937" y1="460.114" x2="-236.996" y2="460.114" gradientTransform="scale(31.457 -31.457) rotate(57.826 309.283 445.793)"><stop offset="0" stop-color="#585857"/><stop offset=".193" stop-color="#7a7877"/><stop offset="1" stop-color="#d9d9d9"/></linearGradient><path clip-path="url(#Q)" fill="url(#R)" d="M178.4 293.7l10.9-17.5 16.6 10.5-10.9 17.4z"/></g><g><defs><path id="S" d="M93.1 286.5c-2.6 9.7-5.4 21.6-6.5 27.5-.1.3 0 .6.2.9 1.1 1.5 5.1 2.5 6.6 2.7l.3.1c5.2 1 21.4 2.2 31.3 2.7 1.3.1 3 .2 4.8.3 4 .3 8.9.6 13.5.6v-6.1-.2-.1c0-.1.1-.1.1-.2 0 0 0-.1.1-.1.1-.1.2-.1.2-.2H144c.2 0 4.6-.1 8.6-1 3.7-.8 3.5-2.5 3.5-2.6-1.1-5.1-3.3-9.8-5.2-11.6-3.8-3.3-13.4-4.2-23.2-3.9-.6.5-3.2 2.7-5.1 7.5-1.6 4-2.9 9.4-2.9 9.4-.1.4-.4.6-.8.6l-9.2-.5c-.2 0-.5-.1-.6-.3-.1-.2-.2-.4-.1-.7.1-.3 1.6-6.4 3.1-9.8 1.1-2.4 2.5-4.2 3.5-5.4-4.1.5-7.7 1-10.2 1.6-.4.1-.9-.2-1-.6-.1-.4.2-.9.6-1 3.8-.9 10.7-1.9 18-2.3.5-1 1.6-3.4 2-4.3.1-.3.1-.5.1-.8l-.6 1c-.1.1-.1.2-.2.2-.1.1-.2.1-.3.1h-.1c-.8.1-3.6.5-8.4.5-2.5 0-5.4-.1-8.9-.4-10.4-1-12.4-2.3-12.7-2.5-.3-.2-.3-.6-.2-.9.2-.6.4-1.3.5-1.9-.3.4-.9.8-1.1 1.7"/></defs><clipPath id="T"><use xlink:href="#S" overflow="visible"/></clipPath><linearGradient id="U" gradientUnits="userSpaceOnUse" x1="-238.249" y1="465.286" x2="-237.308" y2="465.286" gradientTransform="matrix(94.215 29.3656 29.3656 -94.215 8845.214 51117.785)"><stop offset="0" stop-color="#0075be"/><stop offset=".393" stop-color="#0075be"/><stop offset=".63" stop-color="#008ed4"/><stop offset=".822" stop-color="#009ee2"/><stop offset="1" stop-color="#009ee2"/></linearGradient><path clip-path="url(#T)" fill="url(#U)" d="M92.8 265.1l74.1 23.1-16.5 53-74.1-23.1z"/></g><g><defs><path id="V" d="M165.2 275.6c-.6 4.7-1.1 9-1.5 12.7-.5 4.9-1 9.1-1.5 12.5-.1.6 0 1 .4 1.5 1.5 1.9 6.6 2.2 9 2.4.3 0 .6 0 .9.1 1.3.1 2.5.2 3.7.3 4.8.4 9.3.8 17 1.2 8.9.4 18.8.5 26.8.1v-5c0-.1 0-.2.1-.3 0-.1.1-.2.2-.2 0 0 .1 0 .1-.1.1 0 .1-.1.2-.1H220.9c.2 0 4.6-.1 8.5-1.4 2.8-.9 3.4-2.4 3.5-2.8-.5-2-1.4-4.1-2.6-6-4-6.4-12-9.9-21.5-9.1-1.9.1-4.6.4-7.7.7-.7.6-3.2 3.1-4.9 8.2-1.6 4.9-1.9 9.1-1.9 9.1 0 .4-.4.8-.8.8l-8.8-.1c-.2 0-.5-.1-.6-.3-.2-.2-.2-.4-.2-.6.1-.3 1.3-8.4 2.8-11.8.8-1.9 1.7-3.2 2.4-4.1-4.7.5-8.4.8-8.5.8-.4 0-.8-.3-.9-.7 0-.4.3-.8.7-.9.1 0 6.8-.7 13.9-1.3.4-1.4 1-4 1-4.9 0-.5-.2-.8-.4-1-.1.7-.2 1.5-.3 2.2v.2c0 .1 0 .1-.1.2 0 0 0 .1-.1.1l-.1.1c-.3.2-2.2 1.1-10.5 1.1H181c-9.3-.2-14.4-2.5-14.6-2.6-.1 0-.1-.1-.1-.1l-.1-.1-.1-.1s0-.1-.1-.1v-.2-.1c.1-.5.1-1 .2-1.4-.5-.3-.9.2-1 1.1"/></defs><clipPath id="W"><use xlink:href="#V" overflow="visible"/></clipPath><linearGradient id="X" gradientUnits="userSpaceOnUse" x1="-238.021" y1="464.851" x2="-237.08" y2="464.851" gradientTransform="matrix(84.7501 7.5 7.5 -84.7501 16837.232 41467.664)"><stop offset="0" stop-color="#0075be"/><stop offset=".393" stop-color="#0075be"/><stop offset=".63" stop-color="#008ed4"/><stop offset=".822" stop-color="#009ee2"/><stop offset="1" stop-color="#009ee2"/></linearGradient><path clip-path="url(#W)" fill="url(#X)" d="M162.7 267.8l73 6.5-3.4 38.7-73-6.5z"/></g><g><defs><path id="Y" d="M2 314.5c0 .4.1.5.1.5.1.2.5.3.6.3.3 0 26.3 3.7 53.1 6.4 26.1 2.6 158.3 15.3 198.8 9.4 22-3.2 27.1-8.1 28.8-9.8 1.1-1.2 2.6-3.2 3.5-4.9-4.6 6.1-10 8.6-17.9 10.9-8.1 2.4-21.8 3.2-36.5 3.2-26.4 0-56.2-2.6-64.5-3.4-1.7-.2-4.8-.4-8.8-.6h-.2H158.7l-.2-.1c-5.5-.3-12.7-.7-20.9-1.2-27.7-1.5-65.7-3.6-88.1-5.9-22.3-2.3-44.7-5.2-47-5.5-.1.3-.4.6-.5.7m281.9.8s0 .1 0 0l-.3.3c-2.2 2.4-3.6 3.9-14 6.1-7.1 1.5-17 2-28 2-17.5 0-37.8-1.4-54.3-2.5-6-.4-11.7-.8-16.4-1l-2.4-.1c-.3.7-1 1.8-2.8 3.2-.9.7-2 1.4-3 1.9 2.4.2 4.3.3 5.6.4 7.9.7 77.4 7 100.3.2 8.3-2.4 13.7-5.1 18.4-12.3-.1-.1-.3-.1-.5-.1-1 0-2.3 1.4-2.6 1.9m-119.2-2.2c33.6 1.3 81.1 2.7 117.5 1.7.1-.1.1-.2.2-.2l.2-.2c.5-.6 1.2-1.4 2.1-1.9h-8c-17.7 0-33.3-.6-38.9-.9-.4 0-1 0-1.6-.1-5.1-.2-15.7-.2-28.7-.3-14-.1-31.2-.2-47.6-.5 1.4.4 3.2 1.2 4.8 2.4m-158.5-.3c7.4 1 25.6 3.2 43.6 5.1 22.3 2.3 60.3 4.3 88 5.9 4.5.2 8.6.5 12.4.7l-6-1.5h-.6c-4.7 0-9.7-.4-13.8-.7-1.8-.1-3.5-.2-4.8-.3-9.9-.5-26.2-1.7-31.5-2.7l-.3-.1c-.7-.1-6-1-7.6-3.4 0-.1-.1-.1-.1-.2-10.1-.6-18.9-1.1-24.9-1.4-16.9-1-44.6-3.6-47-3.8l-7.4 2.4zm65.1-6.2c0 .4.1.5.1.5.2.2.5.2.6.2.1 0 5.6.5 14.1 1.2.1-.4.2-.9.3-1.4-7.9-.6-13.4-1.1-14.5-1.2-.3.3-.6.6-.6.7m86.3 2.4c17 .3 35.2.4 49.8.5 8.2.1 15.5.1 21 .2l-7.6-1.7c-4 .2-8.5.3-13.1.3-4.8 0-9.8-.1-14.5-.3-7.7-.4-12.3-.8-17.1-1.2-1.2-.1-2.4-.2-3.7-.3-.2 0-.5 0-.8-.1-2.8-.2-7.4-.5-9.6-2.4l-6.1-.1c.6 1.6 1.2 3.4 1.7 5.1m-82.3-4.3c2.6.2 6.6.5 11.4.9.2-1.1.5-2.3.8-3.5-2.6-.1-4.4-.2-4.9-.2l-7.3 2.8zm263.3 2.3c-10.6 3.7-30.8 5-50.5 5.3l.6.6v.1c.2.3.3.6.3.9v.6c15.6-.6 27.5-1.6 35.3-3.1 21.8-4.2 26.7-9.4 28.3-11.1 1.1-1.3 2.5-3.3 3.2-5.1-4.3 6.3-9.5 9.1-17.2 11.8m14.2-12.8c0 .1 0 .1 0 0 0 .1 0 .1 0 0l-.3.3c-2.1 2.6-3.4 4.1-13.7 6.7-11.9 3.1-31.8 3.8-51.8 3.8-10.6 0-21.1-.2-30.5-.4-4-.1-7.7-.2-11.1-.2-.3.8-1.1 2.3-2.9 3.9-.7.6-1.5 1.1-2.3 1.5 14.8.6 76.7 2.7 97.8-4.6 8.1-2.8 13.4-5.8 17.8-13.2-.1-.1-.3-.1-.4-.1-1 .3-2.2 1.7-2.6 2.3"/></defs><clipPath id="Z"><use xlink:href="#Y" overflow="visible"/></clipPath><linearGradient id="aa" gradientUnits="userSpaceOnUse" x1="-239.529" y1="464.929" x2="-238.589" y2="464.929" gradientTransform="scale(373.9955 -373.9955) rotate(-2.401 -11233.444 -5484.652)"><stop offset="0" stop-color="#c20a6c"/><stop offset=".472" stop-color="#e3097e"/><stop offset="1" stop-color="#e3097e"/></linearGradient><path clip-path="url(#Z)" fill="url(#aa)" d="M2.6 277.4l355.2 14.9-2.5 59.5L.1 336.9z"/></g><g><defs><path id="ab" d="M92.2 51.1h34.1V90H92.2z"/></defs><clipPath id="ac"><use xlink:href="#ab" overflow="visible"/></clipPath><path clip-path="url(#ac)" fill="#EDEDED" d="M100.9 71c.2 2.2.7 6.2.7 6.2L126.3 90s-10.3-4.6-18.2-6.1c-5-1-10.8.8-10.8.8l-5.1-9.1s2.7-13 4.7-16.9c1.8-3.5 4.1-7.6 4.1-7.6s-.6 14.8-.1 19.9"/><defs><path id="ad" d="M149.3 91.8h36.3v5.9h-36.3z"/></defs><clipPath id="ae"><use xlink:href="#ad" overflow="visible"/></clipPath><path clip-path="url(#ae)" fill="#EDEDED" d="M169.5 91.8s-4.2 2.3-9.9 3.4c-2.6.5-10.4 1.9-10.4 1.9l33.7.6 2.6-5.9s-5.5 1.6-7.3 1.6c-4.4 0-8.7-1.6-8.7-1.6"/><defs><path id="af" d="M108.8 89.6h26.3v7.6h-26.3z"/></defs><clipPath id="ag"><use xlink:href="#af" overflow="visible"/></clipPath><g clip-path="url(#ag)"><defs><path id="ah" d="M117.4 97.2s-1.9-2.4-2.6-3.1c-2.1-2-6-3.4-6-3.4s5-1 10.2-1.1c4.1-.1 8.6 1.1 8.6 1.1l7.5 6.5h-17.7z"/></defs><clipPath id="aj"><use xlink:href="#ah" overflow="visible"/></clipPath><defs><filter id="ai" filterUnits="userSpaceOnUse" x="108.8" y="89.5" width="26.3" height="7.7"><feColorMatrix values="1 0 0 0 0 0 1 0 0 0 0 0 1 0 0 0 0 0 1 0"/></filter></defs><mask maskUnits="userSpaceOnUse" x="108.8" y="89.5" width="26.3" height="7.7" id="al"><g filter="url(#ai)"><linearGradient id="ak" gradientUnits="userSpaceOnUse" x1="-233.942" y1="463.554" x2="-233.002" y2="463.554" gradientTransform="matrix(27.9375 0 0 -27.9375 6644.6 13043.895)"><stop offset="0" stop-color="#fff"/><stop offset=".245" stop-color="#ddd"/><stop offset=".783" stop-color="#888"/><stop offset="1" stop-color="#636363"/></linearGradient><path clip-path="url(#aj)" fill="url(#ak)" d="M108.8 89.5h26.3v7.7h-26.3z"/></g></mask><linearGradient id="am" gradientUnits="userSpaceOnUse" x1="-233.942" y1="463.554" x2="-233.002" y2="463.554" gradientTransform="matrix(27.9375 0 0 -27.9375 6644.6 13043.895)"><stop offset="0" stop-color="#0075be"/><stop offset=".833" stop-color="#0097dc"/><stop offset="1" stop-color="#009ee2"/></linearGradient><path clip-path="url(#aj)" mask="url(#al)" fill="url(#am)" d="M108.8 89.5h26.3v7.7h-26.3z"/></g><defs><path id="an" d="M118.1 142.9h46v29.2h-46z"/></defs><clipPath id="ao"><use xlink:href="#an" overflow="visible"/></clipPath><g clip-path="url(#ao)"><defs><path id="ap" d="M121.7 143l-3.6 29s12.8 2.4 31.4-7.2c3.9-2 14.6-9.7 14.6-9.7l-.9-8.3s-8.9-.3-11.8-.8c-1.9-.3-5.4-1.8-7.3-2.1-5.5-1-22.4-.9-22.4-.9"/></defs><clipPath id="ar"><use xlink:href="#ap" overflow="visible"/></clipPath><defs><filter id="aq" filterUnits="userSpaceOnUse" x="114.9" y="138.3" width="52.4" height="40.7"><feColorMatrix values="1 0 0 0 0 0 1 0 0 0 0 0 1 0 0 0 0 0 1 0"/></filter></defs><mask maskUnits="userSpaceOnUse" x="114.9" y="138.3" width="52.4" height="40.7" id="at"><g filter="url(#aq)"><linearGradient id="as" gradientUnits="userSpaceOnUse" x1="-242.125" y1="465.24" x2="-241.185" y2="465.24" gradientTransform="matrix(-78.7499 -8 -8 78.7499 -15176.644 -38413.137)"><stop offset="0" stop-color="#fff"/><stop offset=".245" stop-color="#ddd"/><stop offset=".783" stop-color="#888"/><stop offset="1" stop-color="#636363"/></linearGradient><path clip-path="url(#ar)" fill="url(#as)" d="M163.7 179l-48.8-5 3.7-35.7 48.7 4.9z"/></g></mask><linearGradient id="au" gradientUnits="userSpaceOnUse" x1="-242.125" y1="465.24" x2="-241.185" y2="465.24" gradientTransform="matrix(-78.7499 -8 -8 78.7499 -15176.644 -38413.137)"><stop offset="0" stop-color="#0075be"/><stop offset=".833" stop-color="#0097dc"/><stop offset="1" stop-color="#009ee2"/></linearGradient><path clip-path="url(#ar)" mask="url(#at)" fill="url(#au)" d="M163.7 179l-48.8-5 3.7-35.7 48.7 4.9z"/></g><defs><path id="av" d="M164.1 136.4h24.1v34.7h-24.1z"/></defs><clipPath id="aw"><use xlink:href="#av" overflow="visible"/></clipPath><g clip-path="url(#aw)"><defs><path id="ax" d="M181.1 136.4s-1.3 4.2-4.6 6.6c-2.6 1.9-12.4 3.5-12.4 3.5l1.2 24.5s15.5-3.4 19.1-7c5.1-5.1 3.6-11.8 3.6-11.8l-6.9-15.8z"/></defs><clipPath id="az"><use xlink:href="#ax" overflow="visible"/></clipPath><defs><filter id="ay" filterUnits="userSpaceOnUse" x="164.1" y="136.4" width="25.4" height="34.7"><feColorMatrix values="1 0 0 0 0 0 1 0 0 0 0 0 1 0 0 0 0 0 1 0"/></filter></defs><mask maskUnits="userSpaceOnUse" x="164.1" y="136.4" width="25.4" height="34.7" id="aB"><g filter="url(#ay)"><linearGradient id="aA" gradientUnits="userSpaceOnUse" x1="-233.531" y1="463.571" x2="-232.591" y2="463.571" gradientTransform="matrix(25.6211 0 0 -25.6211 6147.451 12030.878)"><stop offset="0" stop-color="#fff"/><stop offset=".245" stop-color="#ddd"/><stop offset=".783" stop-color="#888"/><stop offset="1" stop-color="#636363"/></linearGradient><path clip-path="url(#az)" fill="url(#aA)" d="M164.1 136.4h25.4v34.7h-25.4z"/></g></mask><linearGradient id="aC" gradientUnits="userSpaceOnUse" x1="-233.531" y1="463.571" x2="-232.591" y2="463.571" gradientTransform="matrix(25.6211 0 0 -25.6211 6147.451 12030.878)"><stop offset="0" stop-color="#0075be"/><stop offset=".833" stop-color="#0097dc"/><stop offset="1" stop-color="#009ee2"/></linearGradient><path clip-path="url(#az)" mask="url(#aB)" fill="url(#aC)" d="M164.1 136.4h25.4v34.7h-25.4z"/></g><defs><path id="aD" d="M181.1 128.4h8.4v16.2h-8.4z"/></defs><clipPath id="aE"><use xlink:href="#aD" overflow="visible"/></clipPath><path clip-path="url(#aE)" fill="#EDEDED" d="M189.5 129.4l-2.9-1-4.5 4.9-1 3.1 4.5 8.2 3.4-9.4z"/><defs><path id="aF" d="M196.8 131.6h29.7v36.6h-29.7z"/></defs><clipPath id="aG"><use xlink:href="#aF" overflow="visible"/></clipPath><path clip-path="url(#aG)" fill="#EDEDED" d="M226.5 131.6s-9.4 2.2-12.4 2.7c-2.2.4-9.4 0-9.4 0s2 8.3.4 17.1c-.8 4.3-8.3 16.8-8.3 16.8s13.7-9.2 19-19.2c2.4-4.5 10.7-17.4 10.7-17.4"/><defs><path id="aH" d="M71.1 188.9h40.4v48.6H71.1z"/></defs><clipPath id="aI"><use xlink:href="#aH" overflow="visible"/></clipPath><path clip-path="url(#aI)" fill="#EDEDED" d="M110.5 220.3c-.3 2.8-1.8 11.1-1.8 11.1s-15.4 6.6-20.2 6c-4.5-.6-12.5-3.4-15-10.2-6.3-17.4 2-22 2-22l9.2 11.3s-5.8-10.8 2.1-19.4c13.3-14.5 19.6-5.4 19.6-5.4s-10.8 7.3-11.2 11.7c-.5 5.7 1.6 7.1 4.5 8.2 2.9 1.1 11.8-5.7 11.8-5.7s-.8 11.7-1 14.4"/><defs><path id="aJ" d="M211.6 143h49.1v14.1h-49.1z"/></defs><clipPath id="aK"><use xlink:href="#aJ" overflow="visible"/></clipPath><g clip-path="url(#aK)"><defs><path id="aL" d="M215.2 150.9c-.1 0 12.6.2 16.7-.9 3.3-.9 13.1-6 13.1-6s3.5 3.1 5.1 3.1c6.3.1 10.7-4.2 10.7-4.2s-6.3 8.5-20.5 12.8c-10.3 3.1-28.6-.1-28.6-.1l3.5-4.7z"/></defs><clipPath id="aN"><use xlink:href="#aL" overflow="visible"/></clipPath><defs><filter id="aM" filterUnits="userSpaceOnUse" x="208.5" y="133.4" width="55.3" height="35"><feColorMatrix values="1 0 0 0 0 0 1 0 0 0 0 0 1 0 0 0 0 0 1 0"/></filter></defs><mask maskUnits="userSpaceOnUse" x="208.5" y="133.4" width="55.3" height="35" id="aP"><g filter="url(#aM)"><linearGradient id="aO" gradientUnits="userSpaceOnUse" x1="-242.109" y1="465.956" x2="-241.169" y2="465.956" gradientTransform="scale(-70.8426 70.8426) rotate(11.459 2188.887 1422.621)"><stop offset="0" stop-color="#fff"/><stop offset=".245" stop-color="#ddd"/><stop offset=".783" stop-color="#888"/><stop offset="1" stop-color="#636363"/></linearGradient><path clip-path="url(#aN)" fill="url(#aO)" d="M263.9 158.2l-50.3 10.2-5.1-24.8 50.3-10.2z"/></g></mask><linearGradient id="aQ" gradientUnits="userSpaceOnUse" x1="-242.109" y1="465.956" x2="-241.169" y2="465.956" gradientTransform="scale(-70.8426 70.8426) rotate(11.459 2188.887 1422.622)"><stop offset="0" stop-color="#0075be"/><stop offset=".833" stop-color="#0097dc"/><stop offset="1" stop-color="#009ee2"/></linearGradient><path clip-path="url(#aN)" mask="url(#aP)" fill="url(#aQ)" d="M263.9 158.2l-50.3 10.2-5.1-24.8 50.3-10.2z"/></g><g><defs><path id="aR" d="M123.7 101.5h32.7v7.6h-32.7z"/></defs><clipPath id="aS"><use xlink:href="#aR" overflow="visible"/></clipPath><g clip-path="url(#aS)"><defs><path id="aT" d="M156.4 102.5s-17.8-2.2-25.5 0c-2.1.6-7.2 4.7-7.2 4.7s18.3 3 23.8 1.6c3-.8 8.9-6.3 8.9-6.3"/></defs><clipPath id="aV"><use xlink:href="#aT" overflow="visible"/></clipPath><defs><filter id="aU" filterUnits="userSpaceOnUse" x="123.7" y="100.3" width="32.7" height="9.8"><feColorMatrix values="1 0 0 0 0 0 1 0 0 0 0 0 1 0 0 0 0 0 1 0"/></filter></defs><mask maskUnits="userSpaceOnUse" x="123.7" y="100.3" width="32.7" height="9.8" id="aX"><g filter="url(#aU)"><linearGradient id="aW" gradientUnits="userSpaceOnUse" x1="-235.165" y1="463.863" x2="-234.224" y2="463.863" gradientTransform="matrix(34.8047 0 0 -34.8047 8308.487 16249.824)"><stop offset="0"/><stop offset="1" stop-color="#fff"/></linearGradient><path clip-path="url(#aV)" fill="url(#aW)" d="M123.7 100.3h32.7v9.8h-32.7z"/></g></mask><linearGradient id="aY" gradientUnits="userSpaceOnUse" x1="-235.165" y1="463.863" x2="-234.224" y2="463.863" gradientTransform="matrix(34.8047 0 0 -34.8047 8308.487 16249.824)"><stop offset="0" stop-color="#c8007f"/><stop offset="1" stop-color="#b60065"/></linearGradient><path clip-path="url(#aV)" mask="url(#aX)" fill="url(#aY)" d="M123.7 100.3h32.7v9.8h-32.7z"/></g></g><g><defs><path id="aZ" d="M186.6 100.4h52.2v28.5h-52.2z"/></defs><clipPath id="ba"><use xlink:href="#aZ" overflow="visible"/></clipPath><g clip-path="url(#ba)"><defs><path id="bb" d="M238.8 102.6s-.9-3.7-7.8-1.5c-2.2.7-7.9 4.5-7.9 4.5s-1.9-3-8.3-.8c-2.1.7-5 .8-8.1 4-.9.9-4.2.7-4.2.7s-.4 6-3.1 8.1c-1.5 1.2-5.3 2.3-7 3.3-1.4.8-5.3 4.1-5.3 4.1l-.5 3.2 2.9.6s2.4-4.2 3.7-5.1c2.2-1.4 10-2.3 10-2.3s2.7-5.9 3.7-7.4 2.3-3.7 3.9-4.5c1.9-1 6.4-2 8.5-1.6.8.1 2.7 1.6 2.7 1.6s3.3-3 4.7-3.6c1.6-.6 7.2.2 7.2.2l4.9-3.5z"/></defs><clipPath id="bd"><use xlink:href="#bb" overflow="visible"/></clipPath><defs><filter id="bc" filterUnits="userSpaceOnUse" x="186.6" y="98.9" width="52.2" height="30.1"><feColorMatrix values="1 0 0 0 0 0 1 0 0 0 0 0 1 0 0 0 0 0 1 0"/></filter></defs><mask maskUnits="userSpaceOnUse" x="186.6" y="98.9" width="52.2" height="30.1" id="bf"><g filter="url(#bc)"><linearGradient id="be" gradientUnits="userSpaceOnUse" x1="-237.041" y1="464.31" x2="-236.101" y2="464.31" gradientTransform="matrix(55.5381 0 0 -55.5381 13351.393 25900.834)"><stop offset="0"/><stop offset="1" stop-color="#fff"/></linearGradient><path clip-path="url(#bd)" fill="url(#be)" d="M186.6 98.9h52.2V129h-52.2z"/></g></mask><linearGradient id="bg" gradientUnits="userSpaceOnUse" x1="-237.041" y1="464.31" x2="-236.101" y2="464.31" gradientTransform="matrix(55.5381 0 0 -55.5381 13351.393 25900.834)"><stop offset="0" stop-color="#c8007f"/><stop offset="1" stop-color="#b60065"/></linearGradient><path clip-path="url(#bd)" mask="url(#bf)" fill="url(#bg)" d="M186.6 98.9h52.2V129h-52.2z"/></g></g><g><defs><path id="bh" d="M173.2 125.7h12.1v3.2h-12.1z"/></defs><clipPath id="bi"><use xlink:href="#bh" overflow="visible"/></clipPath><path clip-path="url(#bi)" fill="#EDEDED" d="M185.3 125.7s-2.4 3.2-7.9 3.2c-1.1 0-4.2-1-4.2-1l1.2-2.2s3.7.3 4.9.4c.8.1 6-.4 6-.4"/></g><g><defs><path id="bj" d="M171.8 134.3h8.8v6.2h-8.8z"/></defs><clipPath id="bk"><use xlink:href="#bj" overflow="visible"/></clipPath><path clip-path="url(#bk)" fill="#EDEDED" d="M180.6 134.3l-8.4 3.4-.5 2.7s3.4-1.3 4.5-1.9c3-1.5 4.4-4.2 4.4-4.2"/></g><g><defs><path id="bl" d="M165.3 105.7H178v5.5h-12.7z"/></defs><clipPath id="bm"><use xlink:href="#bl" overflow="visible"/></clipPath><path clip-path="url(#bm)" fill="#EDEDED" d="M175 105.7s-3.3 0-5.4 1.5c-1.2.9-4.3 4.1-4.3 4.1l12.7-1.6-3-4z"/></g><g><defs><path id="bn" d="M215.4 111.2h10.5v15.9h-10.5z"/></defs><clipPath id="bo"><use xlink:href="#bn" overflow="visible"/></clipPath><path clip-path="url(#bo)" fill="#EDEDED" d="M223.6 111.2s4 1.7 1.4 8c-.6 1.4-2.8 6-4 6.9-1.1.9-5.7 1-5.7 1s5-6.9 6.2-9.6c.8-1.4 2.1-6.3 2.1-6.3"/></g><g><defs><path id="bp" d="M229.4 109.6h10.9v17.6h-10.9z"/></defs><clipPath id="bq"><use xlink:href="#bp" overflow="visible"/></clipPath><path clip-path="url(#bq)" fill="#EDEDED" d="M236.9 109.6c.2.4 4.7 2.5 3 9.6-.5 2-2.9 5.8-4.7 6.9-1.2.8-5.8 1-5.8 1s6.8-6.7 7.8-9.8c.5-1.7-.3-7.7-.3-7.7"/></g><g><defs><path id="br" d="M99.8 100.3h12.3v6.4H99.8z"/></defs><clipPath id="bs"><use xlink:href="#br" overflow="visible"/></clipPath><path clip-path="url(#bs)" fill="#EDEDED" d="M112 106.7l-12.3-1s2.6-2.5 3.6-3.2c2.6-1.8 5.5-2.2 5.5-2.2l3.2 6.4z"/></g><g><defs><path id="bt" d="M102 139.6h70.9v61.5H102z"/></defs><clipPath id="bu"><use xlink:href="#bt" overflow="visible"/></clipPath><path clip-path="url(#bu)" fill="#EDEDED" d="M122.1 143l-20.1-3.4s4.8 25.3 6 33.8c.9 6.2 2.4 24.9 2.4 24.9s2.2-4.1 3.6-4.4c2.2-.4 1 4.9 6.9 6.2 20.8 4.7 44.9-7.8 45.9-9.5.7-1.2.6-6 .6-6s3.3.5 3.9 0c.7-.6 1.6-4.1 1.6-4.1l-6.3 1s-1.4 5.6-2.5 7c-1.9 2.5-4.5 3.6-6.4 4.1-6.7 1.6-24.9 3.4-31.4 1.4-2.8-.8-7.6-3-8.2-5.9-1.6-7.8 4-45.1 4-45.1"/></g><g><defs><path id="bv" d="M151.3 207.4h28.8v70.5h-28.8z"/></defs><clipPath id="bw"><use xlink:href="#bv" overflow="visible"/></clipPath><path clip-path="url(#bw)" fill="#EDEDED" d="M162.2 207.4s13.2 19.8 17 36.1c2.4 10.5-1.1 34.3-1.1 34.3s-4.7-.5-7.9-.7c-2.8-.2-3.6-2.2-3.6-2.2s2.1-13.9 1.1-18.2c-2.5-11.2-16.5-24.1-16.5-24.1s1.6-7.7 2.9-10.3c1.7-3.4 8.1-14.9 8.1-14.9"/></g><g><defs><path id="bx" d="M94 218.8h17v71.4H94z"/></defs><clipPath id="by"><use xlink:href="#bx" overflow="visible"/></clipPath><path clip-path="url(#by)" fill="#EDEDED" d="M110.9 218.8s.3 35 0 45.3c-.2 6.5-1.1 26.2-1.1 26.2L94 287.8s5.4-19.9 7.2-25.7c3.7-11.7 9.7-43.3 9.7-43.3"/></g><g><defs><path id="bz" d="M155 303.1h77.8v7.2H155z"/></defs><clipPath id="bA"><use xlink:href="#bz" overflow="visible"/></clipPath><g clip-path="url(#bA)"><defs><path id="bB" d="M232.9 310.2l-75.6-.5-2.2-6.6 6.4.3s2.9 1.4 3.9 1.6c10.8 1.8 56.3 2.4 56.3 2.4l11.2 2.8z"/></defs><clipPath id="bD"><use xlink:href="#bB" overflow="visible"/></clipPath><defs><filter id="bC" filterUnits="userSpaceOnUse" x="155" y="303.1" width="77.8" height="7.2"><feColorMatrix values="1 0 0 0 0 0 1 0 0 0 0 0 1 0 0 0 0 0 1 0"/></filter></defs><mask maskUnits="userSpaceOnUse" x="155" y="303.1" width="77.8" height="7.2" id="bF"><g filter="url(#bC)"><linearGradient id="bE" gradientUnits="userSpaceOnUse" x1="-237.991" y1="464.674" x2="-237.05" y2="464.674" gradientTransform="matrix(82.7686 0 0 -82.7686 19853.162 38767.074)"><stop offset="0"/><stop offset="1" stop-color="#fff"/></linearGradient><path clip-path="url(#bD)" fill="url(#bE)" d="M155 303.1h77.8v7.2H155z"/></g></mask><linearGradient id="bG" gradientUnits="userSpaceOnUse" x1="-237.991" y1="464.674" x2="-237.05" y2="464.674" gradientTransform="matrix(82.7686 0 0 -82.7686 19853.162 38767.074)"><stop offset="0" stop-color="#c8007f"/><stop offset="1" stop-color="#b60065"/></linearGradient><path clip-path="url(#bD)" mask="url(#bF)" fill="url(#bG)" d="M155 303.1h77.8v7.2H155z"/></g></g><g><defs><path id="bH" d="M58.9 313.2h99.5v12.5H58.9z"/></defs><clipPath id="bI"><use xlink:href="#bH" overflow="visible"/></clipPath><g clip-path="url(#bI)"><defs><path id="bJ" d="M158.4 325.7l-13.4-3.5s-28.9-.9-38.5-1.9c-4.3-.4-13.3-.8-17.2-2.7-1.3-.6-3.4-2.9-3.4-2.9l-27-1.5s1.3 2.7 1.6 3.1c4.2 5.1 26.1 5.1 26.1 5.1l71.8 4.3z"/></defs><clipPath id="bL"><use xlink:href="#bJ" overflow="visible"/></clipPath><defs><filter id="bK" filterUnits="userSpaceOnUse" x="58.9" y="313.2" width="99.5" height="12.5"><feColorMatrix values="1 0 0 0 0 0 1 0 0 0 0 0 1 0 0 0 0 0 1 0"/></filter></defs><mask maskUnits="userSpaceOnUse" x="58.9" y="313.2" width="99.5" height="12.5" id="bN"><g filter="url(#bK)"><linearGradient id="bM" gradientUnits="userSpaceOnUse" x1="-238.37" y1="464.753" x2="-237.43" y2="464.753" gradientTransform="matrix(105.7725 0 0 -105.7725 25271.941 49477.465)"><stop offset="0"/><stop offset="1" stop-color="#fff"/></linearGradient><path clip-path="url(#bL)" fill="url(#bM)" d="M58.9 313.2h99.5v12.5H58.9z"/></g></mask><linearGradient id="bO" gradientUnits="userSpaceOnUse" x1="-238.37" y1="464.753" x2="-237.43" y2="464.753" gradientTransform="matrix(105.7725 0 0 -105.7725 25271.941 49477.465)"><stop offset="0" stop-color="#c8007f"/><stop offset="1" stop-color="#b60065"/></linearGradient><path clip-path="url(#bL)" mask="url(#bN)" fill="url(#bO)" d="M58.9 313.2h99.5v12.5H58.9z"/></g></g><g><defs><path id="bP" d="M85.9 283.3h71v38.8h-71z"/></defs><clipPath id="bQ"><use xlink:href="#bP" overflow="visible"/></clipPath><g clip-path="url(#bQ)"><defs><path id="bR" d="M109.9 289.6l-1 5.9h7.6s-3 5.6-3.8 7.6c-.9 2.2-2.5 8.1-2.5 8.1l8.6.7 3.1-8.9s7.4 2.2 15.3 2.9c4.5.4 18.1-2.2 18.1-2.2l1.7 6.7s-.9 2.7-2.2 3.3c-1.7.8-10 1.9-10 1.9l-.7 6.3s-22.4-.7-29.8-1.3c-6.2-.4-18.9-1.6-24.8-3.2-2.7-.7-3.1-2.4-3.4-3.6-1-4.3 5.7-26.1 5.7-26.1s1.1-3.1 1.4-3.4c.6-.5 2.4-1.2 2.4-1.2s-1.3 3.1-.8 3.8c2 3.2 15.1 2.7 15.1 2.7"/></defs><clipPath id="bT"><use xlink:href="#bR" overflow="visible"/></clipPath><defs><filter id="bS" filterUnits="userSpaceOnUse" x="81.9" y="277.5" width="78.2" height="50.4"><feColorMatrix values="1 0 0 0 0 0 1 0 0 0 0 0 1 0 0 0 0 0 1 0"/></filter></defs><mask maskUnits="userSpaceOnUse" x="81.9" y="277.5" width="78.2" height="50.4" id="bV"><g filter="url(#bS)"><linearGradient id="bU" gradientUnits="userSpaceOnUse" x1="-241.696" y1="465.129" x2="-240.756" y2="465.129" gradientTransform="scale(-98.9066 98.9066) rotate(-4.639 -5824.76 -2729.587)"><stop offset="0" stop-color="#fff"/><stop offset=".245" stop-color="#ddd"/><stop offset=".783" stop-color="#888"/><stop offset="1" stop-color="#636363"/></linearGradient><path clip-path="url(#bT)" fill="url(#bU)" d="M156.5 327.9l-74.6-6.1 3.6-44.3 74.6 6z"/></g></mask><linearGradient id="bW" gradientUnits="userSpaceOnUse" x1="-241.696" y1="465.129" x2="-240.756" y2="465.129" gradientTransform="scale(-98.9066 98.9066) rotate(-4.639 -5824.76 -2729.587)"><stop offset="0" stop-color="#0075be"/><stop offset=".833" stop-color="#0097dc"/><stop offset="1" stop-color="#009ee2"/></linearGradient><path clip-path="url(#bT)" mask="url(#bV)" fill="url(#bW)" d="M156.5 327.9l-74.6-6.1 3.6-44.3 74.6 6z"/></g></g><g><defs><path id="bX" d="M161.4 273.6h72.5v33.6h-72.5z"/></defs><clipPath id="bY"><use xlink:href="#bX" overflow="visible"/></clipPath><g clip-path="url(#bY)"><defs><path id="bZ" d="M181.1 278.1s-8.2-.3-10.8-1c-4.1-1-3.3-3.1-3.3-3.1s-1.3-.8-1.7 0c-2.3 5.3-4 27.5-4 27.5s.6 2.4 3.9 3.4c5.5 1.7 23 2.1 30.2 2.3 6.5.2 25.2-.4 25.2-.4l.2-5.1s6.5-.7 8.1-1.2c3.5-1.1 4.8-4 4.8-4l-2.3-4.9s-18.3.7-22.5.7c-8.4 0-13.1-2.8-13.1-2.8s-1.4 2-1.9 4.7c-.2 1-.6 4.9-.6 4.9l-8.5-.2s1-6.6 1.4-8.6c.4-2 2.8-7.4 2.8-7.4l-7.4-.9-.5-3.9z"/></defs><clipPath id="cb"><use xlink:href="#bZ" overflow="visible"/></clipPath><defs><filter id="ca" filterUnits="userSpaceOnUse" x="158.3" y="266.7" width="78.6" height="47.1"><feColorMatrix values="1 0 0 0 0 0 1 0 0 0 0 0 1 0 0 0 0 0 1 0"/></filter></defs><mask maskUnits="userSpaceOnUse" x="158.3" y="266.7" width="78.6" height="47.1" id="cd"><g filter="url(#ca)"><linearGradient id="cc" gradientUnits="userSpaceOnUse" x1="-241.671" y1="465.112" x2="-240.73" y2="465.112" gradientTransform="scale(-97.662 97.662) rotate(-5.141 -5268.987 -2431.011)"><stop offset="0" stop-color="#fff"/><stop offset=".245" stop-color="#ddd"/><stop offset=".783" stop-color="#888"/><stop offset="1" stop-color="#636363"/></linearGradient><path clip-path="url(#cb)" fill="url(#cc)" d="M233.3 313.9l-75-6.8 3.7-40.4 74.9 6.8z"/></g></mask><linearGradient id="ce" gradientUnits="userSpaceOnUse" x1="-241.671" y1="465.112" x2="-240.73" y2="465.112" gradientTransform="scale(-97.662 97.662) rotate(-5.141 -5268.988 -2431.012)"><stop offset="0" stop-color="#0075be"/><stop offset=".833" stop-color="#0097dc"/><stop offset="1" stop-color="#009ee2"/></linearGradient><path clip-path="url(#cb)" mask="url(#cd)" fill="url(#ce)" d="M233.3 313.9l-75-6.8 3.7-40.4 74.9 6.8z"/></g></g><g><defs><path id="cf" d="M85.8 89.8h31.6V103H85.8z"/></defs><clipPath id="cg"><use xlink:href="#cf" overflow="visible"/></clipPath><path clip-path="url(#cg)" fill="#EDEDED" d="M109.7 99.5c-.1-.5-1.8-3.6-2.9-3.9-9-2.7-21 7.3-21 7.3s6.9-8.9 10.1-10.7c2.6-1.4 6.6-3.2 11.5-2.2 2.2.4 6.1 2.7 7.7 4.1.7.6 2.3 3.1 2.3 3.1s-5.1-.4-6.5.5c-.5.3-1.2 1.8-1.2 1.8"/></g><g><defs><path id="ch" d="M89.6 171.7h20.2v18.7H89.6z"/></defs><clipPath id="ci"><use xlink:href="#ch" overflow="visible"/></clipPath><path clip-path="url(#ci)" fill="#EDEDED" d="M100.3 179.7c8.2 4.7 9.5 10.7 9.5 10.7l-2-18.7s-6.5.1-8.7.7c-2.4.6-9.5 4.1-9.5 4.1s8.4 1.9 10.7 3.2"/></g><g opacity=".6"><defs><path id="cj" d="M143.4 63.8h8.1v8.1h-8.1z"/></defs><clipPath id="ck"><use xlink:href="#cj" overflow="visible"/></clipPath><g clip-path="url(#ck)"><defs><path id="cl" d="M143.4 67.9c0 2.2 1.8 4.1 4.1 4.1 2.2 0 4.1-1.8 4.1-4.1 0-2.2-1.8-4.1-4.1-4.1s-4.1 1.8-4.1 4.1"/></defs><clipPath id="cm"><use xlink:href="#cl" overflow="visible"/></clipPath><radialGradient id="cn" cx="-278.524" cy="455.289" r=".941" gradientTransform="rotate(180 -529.23 1019.538) scale(4.3296)" gradientUnits="userSpaceOnUse"><stop offset="0" stop-color="#81cff4"/><stop offset=".171" stop-color="#71c9f2"/><stop offset=".503" stop-color="#48b9ec"/><stop offset=".961" stop-color="#06a0e3"/><stop offset="1" stop-color="#009ee2"/></radialGradient><path clip-path="url(#cm)" fill="url(#cn)" d="M143.4 63.8h8.1v8.1h-8.1z"/></g></g></g><g><defs><path id="co" d="M145.1 69.3c.7 1.8 2.7 1.6 2.7 1.6 4.7-.4 2.5-5.5.2-5.5-2.4 0-3.7 2.1-2.9 3.9"/></defs><clipPath id="cp"><use xlink:href="#co" overflow="visible"/></clipPath><radialGradient id="cq" cx="-296.074" cy="450.869" r=".941" gradientTransform="rotate(180 -366.458 704.558) scale(2.9742)" gradientUnits="userSpaceOnUse"><stop offset="0" stop-color="#585857"/><stop offset=".39" stop-color="#444443"/><stop offset="1" stop-color="#1e1e1c"/></radialGradient><path clip-path="url(#cp)" fill="url(#cq)" d="M144.3 65.4h8v5.7h-8z"/></g><g><path fill="#FFF" d="M149.9 67.6s-.1-.9-.7-.9c-.7 0-.7.7-.4 1.1.2.4.9.6 1.1-.2"/><path fill="#B2B2B1" d="M138.7 70.6c5.4 4.4 12.4 1.7 12.9-.3.7-2.5-.1-5.7-2-8.1-2-2.4-4.3-3.1-5.9-3.4-2.8-.5-4.7.3-6.3 2.9-1.6 2.7-1.4 6.8 1.3 8.9m1-.5c-1.6-1.5-2-3.6-1.4-6 .8-2.7 2.5-3.9 5.6-3.6 1.8.1 6.9 1.6 7 8.5 0 2-3.2 3-5.1 3.1-2.4.1-4.4-.4-6.1-2"/><path fill="#1D1D1B" d="M178.2 64.4c-.1 3.1-4.6 6.8-7 4.6l7-4.6z"/></g><g><defs><path id="cr" d="M145 321.5v-5.4c2.9.3 8.4 1.2 9.9 2.8 1.9 2.1 2.7 4.5 3.1 5.9l-13-3.3zm42.4-1.8c-6-.4-11.7-.8-16.4-1l-2.5-.1c-.3-.8-1-2.5-2-3.8 25.3 1 58 2 88 2 9 0 17.8-.1 26.1-.3-1.7 1.3-4.3 2.3-11.2 3.7-7 1.5-16.8 2-27.7 2-17.5-.1-37.8-1.4-54.3-2.5M2.7 315.3c-.1 0-.4-.1-.6-.3 0 0-.1-.2-.1-.5 0-.1.3-.3.7-.5 2.3.3 24.7 3.2 47 5.5 22.4 2.3 60.4 4.3 88.1 5.9 8.2.4 15.4.8 20.9 1.2l.2.1h.5c4 .2 7.1.4 8.8.6 8.3.8 38.1 3.4 64.5 3.4 14.7 0 28.3-.8 36.5-3.2 7.8-2.3 13.2-4.9 17.9-10.9-.8 1.7-2.3 3.7-3.5 4.9-1.7 1.6-6.8 6.6-28.8 9.8-40.5 5.8-172.7-6.8-198.8-9.4-27-2.9-53-6.6-53.3-6.6m266.9 6.4c10.4-2.2 11.7-3.7 14-6.1l.2-.3c.4-.5 2-2.4 3.1-1.8-4.7 7.2-10.2 9.9-18.4 12.3-23 6.7-92.5.5-100.3-.2-1.2-.1-3.2-.3-5.6-.4 1-.5 2.1-1.1 3-1.9 1.7-1.4 2.4-2.5 2.8-3.2l2.4.1c4.7.3 10.4.6 16.4 1 16.6 1.1 36.9 2.5 54.3 2.5 11.1 0 21-.5 28.1-2m-113.5-3.9c-1-1.1-3.1-1.9-5.3-2.4.8-.1 1.6-.3 2.4-.4 3.3-.7 4.3-2.2 4.6-3.3 1.4.4 4.3 1.4 6.5 3.1 1.4 1.1 2.4 3.8 2.7 4.5-.1.3-.6 1.3-2.4 2.7-1.5 1.2-3.8 2.2-5 2.7-.3-1.5-1.2-4.4-3.5-6.9m8.6-4.7c-1.6-1.1-3.4-1.9-4.9-2.5 16.3.3 33.6.4 47.6.5 13 .1 23.6.2 28.7.3.6 0 1.1 0 1.6.1 5.6.3 21.2.9 38.9.9h8c-.9.5-1.6 1.3-2.1 1.9l-.2.2c-.1.1-.1.2-.2.2-8.7.2-18.1.3-27.8.3-30.5.1-64.1-.9-89.6-1.9m-26.8 10.7c-27.7-1.5-65.7-3.6-88-5.9-18.1-1.8-36.2-4.1-43.6-5.1l7.4-2.4c2.3.2 30.1 2.8 47 3.8 6 .4 14.8.9 24.9 1.4 0 .1.1.1.1.2 1.7 2.3 6.9 3.3 7.6 3.4l.3.1c5.3 1.1 21.6 2.2 31.5 2.7 1.3.1 3 .2 4.8.3 4.1.3 9.1.7 13.8.7h.6l6 1.5c-3.8-.3-8-.5-12.4-.7m-66-16.5c-.1 0-.4-.1-.6-.2 0 0-.2-.2-.1-.5 0-.1.3-.4.7-.5 1.1.1 6.6.6 14.5 1.2-.1.5-.2.9-.3 1.4-8.5-.8-14-1.3-14.2-1.4.1 0 .1.1 0 0 .1.1.1 0 0 0m135.5 2.2c-14.6-.1-32.8-.2-49.8-.5-.4-1.7-1-3.5-1.7-5.1l6.1.1c2.2 1.9 6.8 2.2 9.6 2.4.3 0 .6 0 .8.1 1.3.1 2.5.2 3.7.3 4.8.4 9.3.8 17.1 1.2 4.7.2 9.7.3 14.5.3 4.6 0 9.1-.1 13.1-.3l7.6 1.7c-5.5-.1-12.8-.1-21-.2m14.2-3v-4.3c2.9.2 8.5.8 10 2.3 1.9 1.9 2.9 3.8 3.4 5.1l-13.4-3.1zm-146.3-1.8l7.3-2.8c.5 0 2.3.1 4.9.2-.3 1.2-.5 2.3-.8 3.5-4.8-.3-8.7-.6-11.4-.9m157.5-1.3c-1-1-3.1-1.7-5.2-2.1.7-.2 1.5-.4 2.2-.6 3-1 4-2.6 4.4-3.5 1.2.1 4 .4 6.3 2.1 2.3 1.6 3.2 3.8 3.5 4.5-.2.5-.7 1.9-2.5 3.5-1.4 1.3-3.6 2.1-4.7 2.4-.4-1.3-1.5-3.8-4-6.3m-109-7.9c.6 0 1.1-.1 1.7-.1-1.2 1.3-2.8 3.5-4.1 6.8-1.3 3.3-2.4 7.4-2.8 9l-7.5-.4c.5-1.9 1.7-6.1 2.8-8.6 1.6-3.5 4-5.8 4.6-6.3 1.6-.2 3.4-.3 5.3-.4-.1 0-.1 0 0 0-.1 0 0 0 0 0m165.3 18.4l-.3-.9v-.1l-.6-.6c19.7-.3 39.9-1.7 50.5-5.3 7.7-2.7 13-5.5 17.3-11.8-.7 1.7-2.2 3.8-3.2 5.1-1.6 1.7-6.5 6.9-28.3 11.1-7.8 1.5-19.7 2.5-35.3 3.1-.1-.2-.1-.4-.1-.6m49.8-12.6c10.3-2.7 11.6-4.2 13.7-6.7l.2-.3c.4-.7 1.9-2.5 3-1.9-4.4 7.4-9.7 10.3-17.8 13.2-21.1 7.3-82.9 5.2-97.8 4.6.8-.4 1.6-.9 2.3-1.5 1.8-1.6 2.6-3.1 2.9-3.9 3.4.1 7.2.1 11.1.2 9.4.2 19.9.4 30.5.4 20.1-.3 40-1 51.9-4.1M93.5 317.6c-1.5-.2-5.5-1.2-6.6-2.7-.2-.3-.3-.6-.2-.9 1.1-5.9 3.8-17.8 6.5-27.5.2-.9.8-1.3 1.2-1.5-.2.6-.4 1.2-.5 1.9-.1.3 0 .7.2.9.3.3 2.4 1.6 12.7 2.5 3.4.3 6.4.4 8.9.4 4.8 0 7.6-.4 8.4-.5h.1c.1 0 .2 0 .3-.1.1-.1.2-.1.2-.2l.6-1c0 .3 0 .5-.1.8-.5.9-1.6 3.3-2 4.3-7.3.4-14.2 1.4-18 2.3-.4.1-.7.5-.6 1 .1.4.5.7 1 .6 2.5-.6 6.1-1.2 10.2-1.6-1.1 1.2-2.4 3-3.5 5.4-1.5 3.4-3.1 9.5-3.1 9.8-.1.2 0 .5.1.7.1.2.4.3.6.3l9.2.5c.4 0 .7-.2.8-.6 0-.1 1.3-5.4 2.9-9.4 1.9-4.8 4.4-7 5.1-7.5 9.8-.3 19.5.6 23.2 3.9 2 1.7 4.1 6.5 5.2 11.6 0 .1.2 1.8-3.5 2.6-4.1.9-8.5 1-8.6 1h-.2-.1c-.1 0-.2.1-.2.2 0 0 0 .1-.1.1 0 0-.1.1-.1.2V321.5c-4.6 0-9.5-.4-13.5-.6-1.8-.1-3.5-.2-4.8-.3-9.9-.5-26.1-1.7-31.3-2.7l-.4-.3m92.2-19.4c.4-2.2 1.4-7.9 2.6-10.5 1.4-3.2 2.9-4.6 3.3-5 2.3-.2 4.7-.4 7.1-.7-1.2 1.4-2.8 3.8-4 7.5-1.3 3.9-1.7 7.3-1.9 8.7h-7.1zm7.5 8.1c-7.7-.4-12.2-.8-17-1.2-1.2-.1-2.4-.2-3.7-.3-.2 0-.5 0-.9-.1-2.4-.2-7.5-.6-9-2.4-.3-.4-.5-.9-.4-1.5.5-3.4 1-7.6 1.5-12.5.4-3.8.9-8 1.5-12.7.1-1 .5-1.4.8-1.6-.1.5-.1.9-.2 1.4V275.7s0 .1.1.1c0 0 0 .1.1.1l.1.1.1.1c.2.1 5.3 2.4 14.6 2.6h2.8c8.3 0 10.2-.9 10.5-1.1l.1-.1.1-.1c0-.1.1-.1.1-.2v-.1-.1c.1-.8.2-1.5.3-2.2.2.2.5.5.4 1 0 .9-.6 3.4-1 4.9-7.1.7-13.8 1.3-13.9 1.3-.4 0-.8.4-.7.9 0 .4.4.8.9.7.1 0 3.7-.4 8.5-.8-.7.9-1.6 2.2-2.4 4.1-1.6 3.5-2.8 11.5-2.8 11.8 0 .2 0 .5.2.6.1.2.4.3.6.3l8.8.1c.4 0 .8-.3.8-.8 0 0 .2-4.2 1.9-9.1 1.7-5.1 4.2-7.6 4.9-8.2 3.1-.3 5.8-.5 7.7-.7 9.5-.7 17.5 2.7 21.5 9.1 1.2 1.9 2.1 4 2.6 6-.1.4-.8 1.9-3.5 2.8-3.9 1.3-8.3 1.4-8.5 1.4h-.2-.1c-.1 0-.1.1-.2.1 0 0-.1 0-.1.1-.1.1-.1.2-.2.2 0 .1-.1.2-.1.3v5c-3.8.2-8.1.3-12.5.3-4.5.5-9.4.4-14.1.1m-66.5-16c.7-1.3.1-2.5-.3-3.2 4.9-8.3 6.7-11.6 9-15.7 1.3-2.3 2.7-4.8 4.8-8.7 3.4-6 7.3-16.8 9.9-24.7.5-1.5 1-2.9 1.4-4.3 3.6 3.7 16.9 17.8 16 27-.3 3.3-.8 7.3-1.2 11.5-1 .1-2.3.9-2.6 3.2-.6 4.7-1.1 9-1.5 12.8-.5 4.9-1 9.1-1.5 12.4-.1.6 0 1.1.1 1.6h-5.7c-.9-1.8-1.9-3.3-2.9-4.2-4.2-3.7-14.5-4.6-24.7-4.3-.8 0-1.6.1-2.4.1.4-1.1 1.2-2.8 1.6-3.5m-49.6-87.8c.3-.1.6-.3.6-.6 0-.1 2.1-11 9-20 8.7-11.3 18.2-9.8 20.5-9.2 1.9 15.5 3.4 38.5 3 44.1-.2 3.4-1 8.3-2.2 14-2.7 1.3-22.9 10.6-32.8 1.9-11.8-10.5-6.3-32.1-4.5-37.9l5.5 7.5c.2.2.4.3.6.3.1-.1.2-.1.3-.1m51.3-8.7c-10.2-1.1-10.4-8.9-10.3-11.3.3-3.7 4-33.7 4.6-38.7 2.8.2 5.9.4 9.4.4 8.2.2 13.7.7 15.7 1.6 3 1.3 6.8 1.8 10.4 1.8 1.4 0 2.9-.1 4.2-.2.5 4.8 2.8 29.4 2.8 33.8 0 9.4-6.2 10.2-10.7 10.8-2.7.4-16.6 1.8-24.2 1.8h-1.9m-21.5 94.9c-7.5-.7-10.4-1.6-11.4-2 .1-.4.3-.9.4-1.3 4.9-16.6 15-55.1 15.9-68.6.4-5.6-1.1-29.3-3.1-44.9-1.8-14.1-4.8-27.5-5.8-31.7 5 1.6 10.5 2.8 18.3 3.4-.7 5.4-4.4 35-4.6 38.7-.1 1.9-.3 11.7 11.7 13h2.1c7.7 0 21.7-1.5 24.4-1.8 4.4-.6 11.7-1.5 12-11.7.9-.1 2.5-.3 4.5-.5-.6 2.1-1.3 4.2-2 6.2-3.2 9.5-13.6 28.5-13.7 28.7-.2.4-.1.9.3 1.1.1.1.3.1.4.1.3 0 .6-.2.7-.4.4-.7 8.1-14.7 12.2-24.7 4.5 7 26 40.6 26.9 48.6.7 6.7 0 16-3 35.6-.9.3-3.9.9-12.2.7-7.3-.2-12-1.7-13.5-2.2.6-5.3 1.1-10.1 1.5-14.1 1-10.6-14.4-26.3-17-28.9.7-2.1 1.2-3.9 1.6-5.3 1.6-5.2 1.6-5.2 1.1-5.6 0 0-.3-.2-.6-.1-.6.1-.7.6-.7.6-.2 1-8.4 29.3-14.7 40.4-2.2 3.8-3.6 6.4-4.8 8.7-2.3 4.2-4.1 7.4-9.2 16.1l-1.1 1.9c-.9.1-3.7.5-8 .5-2.3-.1-5.3-.2-8.6-.5m57.2-141.5c4.4-.5 8-1.4 9.1-1.8 3.9-1.3 6.7-3.7 8.1-6.8.8 1.9 1.8 4.3 2.9 6.9 3.7 9 8.1 20.4 8.1 23.2v.1c.4 2.3-.1 4.4-1.4 6-1.8 2.4-4.8 3.3-6.2 3.5-3.8.4-14.7 1.6-17.9 1.9-.1-6.1-2.2-28.4-2.7-33m18-10.8c.2-.7.3-1.5.3-2.3 2.2-1.4 3.5-3 4.2-4.6.5.1 1.4.3 2.5.4-.1.4-.1.8-.2 1.1-.3 2.5-1.5 5.8-2.6 8.3-.4 1.1-.9 2.3-1.4 3.6-1.4-3.2-2.5-5.7-2.8-6.5m63.3 8.6c12.1-7.9 10.6-21.6 8.8-28.8l7-2.1c1.9 9 3.7 25.9-7 34-13.9 10.5-31.3 8.7-41.2 6.4.6-.7 1.1-1.5 1.7-2.3 1.5.1 3.1.2 4.6.2 9.8 0 18.6-2.5 26.1-7.4m-29.6 5.7c.2-.4.5-.7.7-1 3.6-5.3 9.6-15.3 10.7-17.2.9-.2 1.9-.5 3-.7 4.9-1.1 10.5-2.3 13.6-5.9 3.1-3.6 4.7-8.5 5-13h.1c1-.1 1.8-.2 2.6-.3 1.3 3.4 7.4 21.8-6.9 31.1-7.3 4.7-15.8 7.1-25.2 7.1-1.2 0-2.4 0-3.6-.1m-21.5-39.5c-.1-.2-.3-.5-.4-.7h7.7c-.1 1.3-.5 3.8-1.6 5.6-.9 1.4-4.5 3-7.1 4 1.4-2.8 2.6-6.5 1.4-8.9m58.8 1.2c3.6-.6 5.7-1.4 7-2.8.2.7.5 1.7.8 2.9l-7.1 2.1c-.3-.9-.5-1.7-.7-2.2m-23.3 15.7c.2-.2 5.1-4.2 7.2-8.2 1.3-2.5 1.5-5.5.6-8.6-.6-1.9-1.6-3.7-2.9-4.8.2-.5.6-1.6 2-2.3 1.9-.9 4.6-1.7 6.7-1 1.2.4 2 1.2 2.6 2.4 2.3 4.6 1.3 13.8-3.5 19.2-2.8 3.2-8.1 4.4-12.7 5.4-1.2.3-2.3.5-3.3.8-7.5 1.9-18.5 4.2-28.1 1.7-.4-.1-.9.1-1 .6-.1.4.1.9.6 1 3.2.8 6.5 1.2 9.7 1.2 6.2 0 12.4-1.2 17.3-2.4-2 3.4-6.8 11.2-9.8 15.7-6.5 9.6-14.2 16.8-21.3 20-.1-3.2-4.7-15-8.1-23.5.7-2 1.4-3.7 2-5.2 1.1-2.6 2.4-6 2.7-8.8.4-3.3 1.4-5.5 5.5-7.5 2.2-1.1 4.4-1.5 6.8-1.4.2 0 .5-.1.6-.2 2.4-2.5 3-4.3 3.6-6 .4-1.3.9-2.6 2.2-4.3 1.1-1.3 4.1-2.9 7.2-3.1 1.5-.1 3.5 0 5 1.3 2.5 2.2-2.5 11-6.2 16-.3.4-.2.9.2 1.1.4.3.9.2 1.1-.2 1-1.4 9.4-12.9 6.6-17.4 1.6-1.3 6.2-4.4 9.6-2.6 1.4.7 2.8 2.6 3.4 4.8.5 1.5 1 4.5-.5 7.4-2 3.7-6.8 7.6-6.8 7.7-.3.3-.4.8-.1 1.1.2.2.4.3.6.3.1 0 .3-.1.5-.2m-37-31.4c1.1-1 1.6-1.9 1.8-2.5h59.5l.2 2c0 .4.4.7.8.7h8c-.4 2-1.4 6.2-2 7.8-1.6 4.2-2.6 5.7-12.4 6.7 0-2.4-.5-4.6-1.3-6.3-.8-1.6-2-2.7-3.5-3.2-3.2-1.1-6.9.5-7.9 1-1.5.8-2.3 1.9-2.6 2.7-4.4-2.3-9.8 1.6-11.4 2.9-1.5-1-3.4-1.5-5.6-1.3-3.2.3-6.8 1.9-8.3 3.7-1.6 1.9-2 3.4-2.5 4.8-.5 1.5-1 3-2.9 5.1-2.5-.1-4.9.4-7.2 1.5-3.5 1.7-5.1 3.6-5.8 6.1-1-.1-1.8-.3-2.3-.4.3-1.1.4-2 .4-2.4 1.5-.7 2.8-1.8 4-3.3 1.6-.5 8.2-2.7 9.8-5.3 1.8-2.8 1.9-7.1 1.9-7.3v-.1-.2l-.1-.1s0-.1-.1-.1l-.1-.1-.1-.1h-.2-12.4c-.1 0-7.2 0-11 .2-1.1-1.7-5.5-8.3-10.7-9-6-.8-12.2 2.4-14.7 3.8 0 0-.1 0-.1.1-2.7 2.2-6 4.5-9.3 4.2-1.2-.1-3.3-.3-5.8-.5-7-.6-17.3-1.5-26.3-2-.5-.8-1.6-3-1.8-5.5 0-.6.1-1 .4-1.3.6-.6 1.7-.6 1.7-.6h69.7c2.7-.1 8.6-.3 10.2-1.7m-15.2-.8c1.2-.4 4.2-1.4 6.8-3.6-.6 1.4-1.4 2.9-2.2 4.3h-4.9l.3-.7zm-29.1 48.4c-2.7-1.2-10.3-1.6-16.3-1.7-16.2-.3-24.1-2.1-32.1-5-5.8-2.1-23.8-13-21.2-21.4 2-6.6 7.3-13 13.5-20.2 4.2-4.9 11.9-6.5 18.3-3.7 2 .9 3.8 2.3 5.4 4.4h-3.8c-.2 0-1.8 0-2.8 1.1-.6.7-.9 1.5-.8 2.6.1 2.2.9 4.1 1.5 5.3-6.2-.3-11.5-.4-14.3-.1-.4 0-.8.4-.7.9 0 .4.5.8.9.7 6.9-.8 30.7 1.3 42.1 2.2 2.6.2 4.6.4 5.8.5 3.9.3 7.4-2.2 10.3-4.5 2.3-1.3 8.2-4.3 13.6-3.5 3.9.5 7.5 5.2 9 7.5-7 .4-13.6.9-14 1-.4 0-.8.4-.7.9 0 .4.4.8.9.7.2 0 18.8-1.7 27.3-1.1 1.1.1 1.8.5 2.2 1.3 1 2.1-.5 6.3-2.5 9.2-4.6 6.6-15.3 3.6-15.4 3.5-.4-.1-.9.1-1 .5-.1.4.1.9.5 1 .2.1 2.9.8 6.2.8 1.7 0 3.5-.2 5.2-.8-.2 1.5-1 4.5-4.7 6.7-3 1.7-9.3 3.3-9.3 3.3-.4.1-.7.5-.6 1 .1.4.4.6.8.6h.2c.2-.1 5.1-1.3 8.5-2.8-.5 4.2-3.3 7.4-8 8.9-1.4.5-7.9 2-14.5 2-3.2-.2-6.7-.6-9.5-1.8m-56-56.4C96.1 84.4 107 84 114 86c8.7 2.5 13.1 4.9 19 10.6h-14.7c-2-2.8-4.2-4.7-6.8-5.8-7-3-15.5-1.3-20.1 4.1-.4.4-.7.9-1.1 1.3-.5-2-.6-5.6 2.2-8.3m102.2-20.7c.3 0 .8-.1 1.2-.1 2.1 0 3.4.5 3.7 1.2.2.6.2 1.7.3 2.8.1 2.8.1 6.2 2.6 8.2 4.2 3.5 15.5 4.5 17.9 4.7l3 5.6c.1.3.4.4.7.4h86.7c.2 0 .4-.1.6-.2.1-.2.2-.4.2-.6 0-1 .2-3.8 1.4-5 .3-.4.7-.5 1.2-.5h11.6c.2 0 .4 0 .7.4 1.6 1.7 1.6 7.9 1.4 11h-72.2l-.2-2c0-.4-.4-.7-.8-.7h-60.1V67.2zm-34.6-34c-5.8-3.5-12.7-5.5-15.7-6.2.8-.5 1.5-1.3 2-2.4.8-2.1 1.4-4.3 2.5-11.6 1.1-6.9 3-8.9 4.4-9.4 1.7-.6 3.4.9 3.8 1.2 1.4 1.3 5.1 7.9 8.1 20.3.9 3.9 2.1 10 2.7 13.4-1.8-1.4-4.1-3.1-7.8-5.3m-59.3 30.4c.4 0 .8-.4.8-.8 0-.2-.1-21.1 4.8-34.7 3.8-10.5 7.8-17.6 12.5-22.4 2.9-2.9 6.8-3.8 8.5-2.7 1.1.7 4.1 2.6 4.8 11.4.1 1.7.2 3.1.3 4.3.1 2.3.2 3.8.5 4.6 1.1 3.6 6.1 4.4 9.7 5 .2 0 9.4 1.9 16.6 6.3 7 4.3 9 6.4 11.7 9.3l.7.7s0 .1.1.1c1.1 1.2 2.4 3.4 3.4 6 2.7 6.6 6.7 18.8 8.8 25.3-3.7-1.3-12.9-.8-16.1.6-3.7 1.6-5.8 4.7-6 6.8-.4 5.4 3.7 8 5.7 9.3 3.1 2 6.7 2.9 8.3 3.3l-.3.8h-25.3c-.7-.7-1.5-1.4-2.3-2.2-2.4-2.4-4.5-7.4-4.5-7.4-.2-.4-.6-.6-1-.4 0 0-.5.2-.9.1-.2 0-.3-.2-.4-.2-.2-.4-.7-.5-1.1-.2-.4.2-.5.7-.2 1.1.1.1.6.9 1.6.9.3 0 .6 0 .8-.1.7 1.5 2.5 5.1 4.5 7.3l1.1 1.1h-12.6c-6.6-6.7-11.3-9.4-20.8-12.2-4.5-1.3-11.5-1.8-16.9-.6-1.7-2.6-3.1-5.3-4.3-7.9.3-1.7 2.4-12.7 7.2-22.9-.4 5.6-.3 9.6-.3 9.7-.2.3.2.7.6.7zm16.9-59.1c-4.8 5-8.9 12.3-12.8 23-2.4 6.5-3.6 14.6-4.2 21.4-6.6 11.9-9.2 26.9-9.2 27v.6c1.2 2.7 2.6 5.3 4.3 7.9-1.8.6-3.4 1.4-4.5 2.4-4.1 4-2.9 9.4-2.4 11-5.3 6.2-9.6 12-11.5 18-3.1 10.1 16.8 21.4 22.2 23.4.5.2 1 .4 1.5.5.6 2.6 3.9 16.4 5.8 31.4-3.3-.6-13-1.1-21.5 9.9-5.6 7.2-8.1 15.4-9 18.9l-5.4-7.3c-.2-.2-.5-.4-.8-.3-.3 0-.5.2-.6.5-.4 1.1-10.1 28.2 4.4 41.2 3.4 3.1 7.9 4.1 12.5 4.1 8.5 0 17.5-3.7 20.9-5.3-3.4 16.3-9.2 38.2-12.8 50.6-1.1.1-2.7.7-3.3 2.8-1.3 4.6-2.5 9.8-3.6 14.5-3.3-.1-5.4-.2-5.4-.2-.1 0-.2 0-.3.1l-10.7 4.1c-.2.1-1.8.7-1.8 2 0 .9.3 1.4.6 1.7.6.6 1.4.7 1.6.7.1 0 5.6.5 13.9 1.2-.3 1.3-.5 2.6-.7 3.6v.2c-9.9-.6-18.5-1-24.4-1.4-17.5-1-46.8-3.8-47.1-3.8h-.2-.1l-10.9 3.6c-.2.1-1.8.6-1.9 1.9-.1.9.2 1.4.5 1.7.6.7 1.4.8 1.6.8.4.1 26.4 3.7 53.2 6.4 21.3 2.1 113.4 11 168.7 11 12.5 0 23-.4 30.5-1.5 22.5-3.2 27.9-8.5 29.7-10.3.4-.4 3.1-3.5 4.1-6.3 15.9-.6 28-1.7 36-3.2 22.3-4.3 27.4-9.8 29.2-11.6.5-.6 4.7-5.7 4-8.7-.1-.3-.2-.6-.4-.9v-.1c-.2-.3-.5-.6-.9-.8-2-1-4.1 1-5 2.5l-.2.2c-2 2.4-3.1 3.7-12.9 6.2-17.9 4.6-54.9 3.9-81.9 3.4-4-.1-7.7-.2-11.2-.2-.4-1-1.5-3.3-3.9-5-2.7-1.9-5.9-2.3-7.2-2.4-.6-2-1.5-4.1-2.7-6.1-4.3-7-12.9-10.7-23-9.9-2.8.2-7.6.6-12.5 1.1.3-1.4.9-3.7.9-4.6 0-1.5-1-2.4-1.8-2.7 2.5-17.4 3.2-26.1 2.5-32.5-1-8.9-25-46-27.7-50.2.3-.8.6-1.7.9-2.4.8-2.3 1.5-4.6 2.2-6.9 4.3-.5 9.5-1 11.9-1.3 2.1-.2 5.3-1.5 7.3-4.1 1.2-1.6 1.8-3.4 1.8-5.4 3.8-1.6 10.5-5.5 17.9-14.6 4.2 1 9.8 2 16 2 8.7 0 18.7-2 27.3-8.5 15.1-11.4 7.3-37.8 6.1-41.3.5-.8.9-1.8 1.3-2.9.6-1.8 1.7-6.3 2.1-8.3h64c.4 0 .8-.3.8-.7.1-1 .7-10.2-1.8-12.9-.5-.6-1.2-.9-1.9-.9h-11.6c-.9 0-1.7.3-2.4 1-1.4 1.4-1.7 4-1.8 5.3h-85.5l-3-5.6c-.1-.2-.4-.4-.7-.4-.1 0-13.2-.8-17.4-4.4-1.9-1.6-1.9-4.6-2-7 0-1.3-.1-2.5-.3-3.3-.4-1.1-1.5-2.3-5.2-2.3-1.2 0-2.1.1-2.1.1-.4.1-.7.4-.7.8v26.9s0 .9-1.3 2c-.8.7-4.3 1.1-7.7 1.2 1.4-2.6 2.6-5.3 3-7.2v-.2c1-1.6 1.7-3.6 1.7-6 0-3.2-1.3-5.1-2.8-6.3-1.9-5.9-6.4-19.7-9.3-27-1.1-2.7-2.3-4.8-3.5-6.2 0-.1-.1-.1-.1-.1l-.8-.9c-.8-.9-1.5-1.7-2.4-2.5-.3-1.9-1.9-10.5-3.1-15.5-2.9-12.3-6.8-19.4-8.6-21.1-.6-.6-2.9-2.4-5.4-1.5-2.7.9-4.5 4.5-5.4 10.6-1.1 7.2-1.6 9.3-2.4 11.2-1 2.7-4.2 2.3-4.3 2.2-2.7-.6-5.5-1.5-6.1-3.5-.2-.7-.3-2.2-.4-4.3-.1-1.2-.2-2.7-.3-4.4-.7-8.6-3.5-11.3-5.6-12.6-.7-.4-1.6-.7-2.7-.7-2.4.1-5.4 1.2-7.9 3.7"/></defs><clipPath id="cs"><use xlink:href="#cr" overflow="visible"/></clipPath><linearGradient id="ct" gradientUnits="userSpaceOnUse" x1="-240.156" y1="465.313" x2="-239.216" y2="465.313" gradientTransform="scale(-371.064 371.064) rotate(54.654 329.66 464.453)"><stop offset="0" stop-color="#585857"/><stop offset=".012" stop-color="#585857"/><stop offset=".292" stop-color="#5d5c5c"/><stop offset=".603" stop-color="#6a6a69"/><stop offset=".928" stop-color="#807f7f"/><stop offset="1" stop-color="#868585"/></linearGradient><path clip-path="url(#cs)" fill="url(#ct)" d="M517.1 113.4L238.7 506l-396.9-281.5 278.4-392.6z"/></g><g><defs><path id="cu" d="M167.9 78.9c-.1.1-.2.1-.3.2-.6.5-1.3 1.3-1.3 2.4 0 1.3.8 2.6 1.9 3.3 2.1 1.2 13 .7 15.2-.7 1.2-.8 2-2.2 2.1-3.5 0-1.1-.6-1.9-1.2-2.3-.1-.1-.2-.1-.3-.2-1.1-.6-3.5-.9-6.2-.9-3.9.1-8.3.7-9.9 1.7"/></defs><clipPath id="cv"><use xlink:href="#cu" overflow="visible"/></clipPath><linearGradient id="cw" gradientUnits="userSpaceOnUse" x1="-248.079" y1="463.099" x2="-247.138" y2="463.099" gradientTransform="rotate(-179.086 -2478.176 4749.725) scale(20.4263)"><stop offset="0" stop-color="#7e7c7b"/><stop offset="1" stop-color="#b6b5b6"/></linearGradient><path clip-path="url(#cv)" fill="url(#cw)" d="M185.7 77.3l-19.4-.3-.1 9 19.4.3z"/></g><g><path fill="#FFF" d="M175.5 78.4s.7.4.7 1.3c0 .6-.4 1.4-1 1.8-1 .7-6.2 1.4-7.1.9-.6-.3-.9-.8-.9-1.7 0-.6.2-.9.7-1.3 1.3-1.1 6.4-1.7 7.6-1"/></g><g><defs><path id="cx" d="M154.6 302.2c-.4 0-.8.4-.8.8s.3.8.8.8l7.6.1c.4 0 .8-.4.8-.8s-.4-.8-.8-.8l-7.6-.1z"/></defs><clipPath id="cy"><use xlink:href="#cx" overflow="visible"/></clipPath><linearGradient id="cz" gradientUnits="userSpaceOnUse" x1="-240.406" y1="465.088" x2="-239.465" y2="465.088" gradientTransform="scale(-375.5694 375.5694) rotate(2.035 12953.004 6975.376)"><stop offset="0" stop-color="#b20a63"/><stop offset="1" stop-color="#c7006d"/></linearGradient><path clip-path="url(#cy)" fill="url(#cz)" d="M163.1 303.9l-9.3.3v-2l9.2-.3z"/></g><g><defs><path id="cA" d="M2.7 315.3c-.1 0-.4-.1-.6-.3 0 0-.1-.2-.1-.5 0-.1.3-.3.7-.5 2.3.3 24.7 3.2 47 5.5 22.4 2.3 60.4 4.3 88.1 5.9 14.6.8 26.1 1.4 30.3 1.8 8.3.8 38.1 3.4 64.5 3.4 14.7 0 28.3-.8 36.5-3.2 7.8-2.3 13.2-4.9 17.9-10.9-.8 1.7-2.3 3.7-3.5 4.9-1.7 1.6-6.8 6.6-28.8 9.8-40.5 5.8-172.7-6.8-198.8-9.4C29 319 3 315.3 2.7 315.3m286.4-1.4l-.3-.9v-.1l-.6-.6c19.7-.3 39.9-1.7 50.5-5.3 7.7-2.7 13-5.5 17.3-11.8-.7 1.7-2.2 3.8-3.2 5.1-1.6 1.7-6.5 6.9-28.3 11.1-7.8 1.5-19.7 2.5-35.3 3.1-.1-.2-.1-.4-.1-.6m62.4-20.6l-.2.2c-2 2.4-3.1 3.7-12.9 6.2-17.9 4.6-54.9 3.9-81.9 3.4-4.2-.1-8.1-.2-11.7-.2-.4 0-.8.4-.8.8s.3.8.8.8c3.6.1 7.5.1 11.7.2 9.4.2 19.9.4 30.5.4 20 0 39.9-.7 51.8-3.8 10.3-2.7 11.6-4.2 13.7-6.7l.2-.3c.4-.7 1.9-2.5 3-1.9-4.4 7.4-9.7 10.3-17.8 13.2-22.6 7.8-92.4 4.8-100.2 4.5-4.2-.2-15.8-.3-30.4-.4-14.8-.1-33.3-.2-50.4-.6-.4 0-.8.3-.8.8 0 .4.3.8.8.8 17.2.3 35.6.4 50.4.6 14.6.1 26.2.2 30.4.4 5.6.3 21.2.9 38.9.9h8c-.8.5-1.6 1.3-2.1 1.9l-.2.2c-.1.1-.1.2-.2.2-36.5 1-84.2-.4-117.8-1.7-.4 0-.8.3-.8.8 0 .4.3.8.8.8 25.6 1 59.3 2.1 90 2.1 9 0 17.8-.1 26.1-.3-1.7 1.3-4.3 2.3-11.2 3.7-18.1 3.8-55 1.3-81.9-.5-6-.4-11.7-.8-16.4-1l-3-.2c-.5 0-.8.3-.8.8 0 .4.3.8.8.8l3 .2c4.7.3 10.4.6 16.4 1 16.6 1.1 36.9 2.5 54.3 2.5 11 0 20.9-.5 28-2 10.4-2.2 11.7-3.7 14-6.1l.2-.3c.4-.5 2-2.4 3.1-1.8-4.7 7.2-10.2 9.9-18.4 12.3-23 6.7-92.5.5-100.3-.2-4.2-.4-15.8-1-30.4-1.8-27.7-1.5-65.7-3.6-88-5.9-18.1-1.8-36.2-4.1-43.6-5.1l7.4-2.4c2.3.2 30.1 2.8 47 3.8 6.1.4 15 .9 25.3 1.4.4 0 .8-.3.8-.8 0-.4-.3-.8-.8-.8-10.3-.6-19.3-1.1-25.3-1.4-17.5-1-46.8-3.8-47.1-3.8H13.2l-10.9 3.6c-.2.1-1.8.6-1.9 1.9-.1.9.2 1.4.5 1.7.6.7 1.4.8 1.6.8.4.1 26.4 3.7 53.2 6.4 21.3 2.1 113.4 11 168.7 11 12.5 0 23-.4 30.5-1.5 22.5-3.2 27.9-8.5 29.7-10.3.4-.4 3.1-3.5 4.1-6.3 15.9-.6 28-1.7 36-3.2 22.3-4.3 27.4-9.8 29.2-11.6.5-.6 4.7-5.7 4-8.7-.1-.3-.2-.6-.4-.9v-.1c-.2-.3-.5-.6-.9-.8-.4-.2-.8-.3-1.1-.3-1.7-.1-3.2 1.5-4 2.6"/></defs><clipPath id="cB"><use xlink:href="#cA" overflow="visible"/></clipPath><linearGradient id="cC" gradientUnits="userSpaceOnUse" x1="-240.406" y1="465.078" x2="-239.465" y2="465.078" gradientTransform="scale(-375.5704 375.5704) rotate(2.035 12951.813 6975.343)"><stop offset="0" stop-color="#b20a63"/><stop offset="1" stop-color="#c7006d"/></linearGradient><path clip-path="url(#cB)" fill="url(#cC)" d="M360.2 336.9L.8 349.7l-2.1-59.1 359.4-12.7z"/></g><g><defs><path id="cD" d="M82.2 300.4l-10.7 4.1c-.2.1-1.8.7-1.8 2 0 .9.3 1.4.6 1.7.6.6 1.4.7 1.6.7.1 0 6 .6 14.8 1.3h.1c.4 0 .8-.3.8-.7 0-.4-.3-.8-.7-.9-8.9-.7-14.8-1.3-14.8-1.3-.1 0-.4-.1-.6-.2 0 0-.2-.2-.1-.5 0-.1.3-.4.7-.5 1.1.1 7.1.6 15.4 1.2h.1c.4 0 .8-.3.8-.7 0-.4-.3-.8-.7-.9-5.1-.4-9.3-.7-12.1-1l7.3-2.8c.6 0 2.7.1 5.9.3.4 0 .8-.3.8-.8 0-.4-.3-.8-.8-.8-3.7-.2-6-.3-6-.3-.4.1-.5.1-.6.1"/></defs><clipPath id="cE"><use xlink:href="#cD" overflow="visible"/></clipPath><linearGradient id="cF" gradientUnits="userSpaceOnUse" x1="-240.406" y1="465.088" x2="-239.465" y2="465.088" gradientTransform="scale(-375.5606 375.5606) rotate(2.035 12953.021 6975.37)"><stop offset="0" stop-color="#b20a63"/><stop offset="1" stop-color="#c7006d"/></linearGradient><path clip-path="url(#cE)" fill="url(#cF)" d="M89.7 310.2l-20.1.7-.3-10.5 20-.7z"/></g><g><defs><path id="cG" d="M92.5 318.2c-.1.4.2.9.6.9l.3.1c5.3 1.1 21.6 2.2 31.5 2.7 1.3.1 3 .2 4.8.3 4.1.3 9.1.7 13.8.7h.6c.4 0 .8-.4.8-.8s-.3-.8-.8-.8c-4.8 0-10.1-.3-14.3-.6-1.8-.1-3.5-.2-4.8-.3-9.9-.5-26.1-1.7-31.3-2.7l-.3-.1h-.2c-.3 0-.6.3-.7.6"/></defs><clipPath id="cH"><use xlink:href="#cG" overflow="visible"/></clipPath><linearGradient id="cI" gradientUnits="userSpaceOnUse" x1="-240.406" y1="465.085" x2="-239.465" y2="465.085" gradientTransform="scale(-375.5764 375.5764) rotate(2.035 12951.695 6975.325)"><stop offset="0" stop-color="#b20a63"/><stop offset="1" stop-color="#c7006d"/></linearGradient><path clip-path="url(#cH)" fill="url(#cI)" d="M145.2 322.9l-52.7 1.9-.2-7.2 52.7-1.9z"/></g><g><defs><path id="cJ" d="M221.6 306.5v-4.3c2.9.2 8.5.8 10 2.3 1.9 1.9 2.9 3.8 3.4 5.1l-13.4-3.1zm11.2-3.1c-1-1-3.1-1.7-5.2-2.1.7-.2 1.5-.4 2.2-.6 3-1 4-2.6 4.4-3.5 1.2.1 4 .4 6.3 2.1 2.3 1.6 3.2 3.8 3.5 4.5-.2.5-.7 1.9-2.5 3.5-1.4 1.3-3.6 2.1-4.7 2.4-.4-1.3-1.5-3.8-4-6.3m-47.1-5.2c.4-2.2 1.4-7.9 2.6-10.5 1.4-3.2 2.9-4.6 3.3-5 2.3-.2 4.7-.4 7.1-.7-1.2 1.4-2.8 3.8-4 7.5-1.3 3.9-1.7 7.3-1.9 8.7h-7.1zm7.5 8.1c-7.7-.4-12.2-.8-17-1.2-1.2-.1-2.4-.2-3.7-.3-.2 0-.5 0-.9-.1-2.4-.2-7.5-.6-9-2.4-.3-.4-.5-.9-.4-1.5.5-3.4 1-7.6 1.5-12.5.4-3.8.9-8 1.5-12.7.1-1 .5-1.4.8-1.6l-.2 1.5V275.8s0 .1.1.1c0 0 0 .1.1.1l.1.1.1.1c.2.1 5.3 2.4 14.6 2.6h2.8c8.3 0 10.2-.9 10.5-1.1l.1-.1.1-.1c0-.1.1-.1.1-.2v-.1-.1c.1-.8.2-1.5.3-2.2.2.2.5.5.4 1 0 .9-.6 3.4-1 4.9-7.1.7-13.8 1.3-13.9 1.3-.4 0-.8.4-.7.9 0 .4.4.8.9.7.1 0 3.7-.4 8.5-.8-.7.9-1.6 2.2-2.4 4.1-1.6 3.5-2.8 11.5-2.8 11.8 0 .2 0 .5.2.6.1.2.4.3.6.3l8.8.1c.4 0 .8-.3.8-.8 0 0 .2-4.2 1.9-9.1 1.7-5.1 4.2-7.6 4.9-8.2 3.1-.3 5.8-.5 7.7-.7 9.5-.7 17.5 2.7 21.5 9.1 1.2 1.9 2.1 4 2.6 6-.1.4-.8 1.9-3.5 2.8-3.9 1.3-8.3 1.4-8.5 1.4h-.2-.1c-.1 0-.1.1-.2.1 0 0-.1 0-.1.1-.1.1-.1.2-.2.2 0 .1-.1.2-.1.3v5c-3.8.2-8.1.3-12.5.3-4.5.4-9.4.3-14.1 0m-26.5-34c-.9-.1-2.8.5-3.1 3.2-.6 4.7-1.1 9-1.5 12.8-.5 4.9-1 9.1-1.5 12.4-.1 1 .1 1.9.7 2.7 1.9 2.4 7.1 2.8 10.1 3 .3 0 .6 0 .8.1 1.3.1 2.5.2 3.7.3 4.8.4 9.3.8 17.1 1.2 4.7.2 9.7.3 14.5.3 4.6 0 9.1-.1 13.1-.3l15.2 3.5H236.4c.2 0 3.9-.9 6.2-3 2.7-2.4 3.1-4.5 3.1-4.6v-.4c0-.1-1-3.3-4.1-5.6-2.7-1.9-5.9-2.3-7.2-2.4-.6-2-1.5-4.1-2.7-6.1-4.3-7-12.9-10.7-23-9.9-2.8.2-7.6.6-12.5 1.1.3-1.4.9-3.7.9-4.6.1-1.9-1.5-2.7-2.3-2.9-.1 0-.1-.1-.2-.1-.4-.1-.8.2-.9.7-.1.9-.3 1.8-.4 2.8-.9.3-3.9.9-12.2.7-7.3-.2-12-1.7-13.5-2.2l.2-1.9c0-.4-.3-.8-.7-.9h-.1c-.1 0-.2 0-.3.1"/></defs><clipPath id="cK"><use xlink:href="#cJ" overflow="visible"/></clipPath><linearGradient id="cL" gradientUnits="userSpaceOnUse" x1="-238.165" y1="464.692" x2="-237.225" y2="464.692" gradientTransform="matrix(90.4551 0 0 -90.4551 21703.877 42325.57)"><stop offset="0" stop-color="#0064a2"/><stop offset=".012" stop-color="#0064a2"/><stop offset=".529" stop-color="#0066a4"/><stop offset=".775" stop-color="#006bac"/><stop offset=".964" stop-color="#0075b9"/><stop offset="1" stop-color="#0077bc"/></linearGradient><path clip-path="url(#cK)" fill="url(#cL)" d="M160.5 272.2h85.2v39.3h-85.2z"/></g><g><defs><path id="cM" d="M145 321.5v-5.4c2.9.3 8.4 1.2 9.9 2.8 1.9 2.1 2.7 4.5 3.1 5.9l-13-3.3zm11.1-3.7c-1-1.1-3.1-1.9-5.3-2.4.8-.1 1.6-.3 2.4-.4 3.3-.7 4.3-2.2 4.6-3.3 1.4.4 4.3 1.4 6.5 3.1 1.4 1.1 2.4 3.8 2.7 4.5-.1.3-.6 1.3-2.4 2.7-1.5 1.2-3.8 2.2-5 2.7-.3-1.5-1.2-4.4-3.5-6.9m-32.3-22.3c.6 0 1.1-.1 1.7-.1-1.2 1.3-2.8 3.5-4.1 6.8-1.3 3.3-2.4 7.4-2.8 9l-7.5-.4c.5-1.9 1.7-6.1 2.8-8.6 1.6-3.5 4-5.8 4.6-6.3 1.6-.2 3.4-.3 5.3-.4-.1 0-.1 0 0 0-.1 0 0 0 0 0m-30.3 22.1c-1.5-.2-5.5-1.2-6.6-2.7-.2-.3-.3-.6-.2-.9 1.1-5.9 3.8-17.8 6.5-27.5.2-.9.8-1.3 1.2-1.5-.2.6-.4 1.2-.5 1.9-.1.3 0 .7.2.9.3.3 2.4 1.6 12.7 2.5 3.4.3 6.4.4 8.9.4 4.8 0 7.6-.4 8.4-.5h.1c.1 0 .2 0 .3-.1.1-.1.2-.1.2-.2l.6-1c0 .3 0 .5-.1.8-.5.9-1.6 3.3-2 4.3-7.3.4-14.2 1.4-18 2.3-.4.1-.7.5-.6 1 .1.4.5.7 1 .6 2.5-.6 6.1-1.2 10.2-1.6-1.1 1.2-2.4 3-3.5 5.4-1.5 3.4-3.1 9.5-3.1 9.8-.1.2 0 .5.1.7.1.2.4.3.6.3l9.2.5c.4 0 .7-.2.8-.6 0-.1 1.3-5.4 2.9-9.4 1.9-4.8 4.4-7 5.1-7.5 9.8-.3 19.5.6 23.2 3.9 2 1.7 4.1 6.5 5.2 11.6 0 .1.2 1.8-3.5 2.6-4.1.9-8.5 1-8.6 1h-.2-.1c-.1 0-.2.1-.2.2 0 0 0 .1-.1.1 0 0-.1.1-.1.2V321.5c-4.6 0-9.5-.4-13.5-.6-1.8-.1-3.5-.2-4.8-.3-9.9-.5-26.1-1.7-31.3-2.7l-.4-.3m-1.9-31.5c-2.7 9.8-5.4 21.7-6.5 27.6-.1.7 0 1.4.5 2.1 1.7 2.3 6.9 3.3 7.6 3.4l.3.1c5.3 1.1 21.6 2.2 31.5 2.7 1.3.1 3 .2 4.8.3 4.1.3 9.1.7 13.8.7h.6l14.6 3.6h.5c.2-.1 4-1.4 6.4-3.3 2.7-2.2 3-3.7 3-3.9v-.3c-.1-.2-1.3-3.9-3.3-5.5-2.6-2.2-6.2-3.2-7.5-3.6-1-4.5-3.1-9.8-5.6-12-4.2-3.7-14.5-4.6-24.7-4.3-.8 0-1.6.1-2.4.1.5-1.1 1.3-2.8 1.7-3.5.9-1.9-.6-3.6-.7-3.7 0 0-.1 0-.1-.1l-.1-.1s-.1 0-.2-.1h-.1H125.4s-.1 0-.1.1c-.1 0-.1.1-.2.1 0 0 0 .1-.1.1l-.1.1-1.1 1.9c-1.4.2-7.3.9-16.7.1-7.5-.7-10.4-1.6-11.4-2 .1-.4.3-.9.4-1.3l.3-1.1v-.1-.1-.1-.2-.1s0-.1-.1-.1l-.1-.1-.1-.1-.1-.1h-.1-.5c-1.4 0-3.2.5-3.8 2.8"/></defs><clipPath id="cN"><use xlink:href="#cM" overflow="visible"/></clipPath><linearGradient id="cO" gradientUnits="userSpaceOnUse" x1="-238.08" y1="464.696" x2="-237.14" y2="464.696" gradientTransform="matrix(88.9434 0 0 -88.9434 21260.688 41636.54)"><stop offset="0" stop-color="#0064a2"/><stop offset=".012" stop-color="#0064a2"/><stop offset=".529" stop-color="#0066a4"/><stop offset=".775" stop-color="#006bac"/><stop offset=".964" stop-color="#0075b9"/><stop offset="1" stop-color="#0077bc"/></linearGradient><path clip-path="url(#cN)" fill="url(#cO)" d="M84.9 283.3h83.7v43.3H84.9z"/></g><g><defs><path id="cP" d="M181.8 137.5c-.3.6-.5 1.1-.5 1.1 3.7 8.7 11 26.6 11 30.1v.1c.4 2.3-.1 4.4-1.4 6-1.8 2.4-4.8 3.3-6.2 3.5-3.8.4-14.7 1.6-17.9 1.9-.2-6.2-2.3-28.5-2.8-33.1 0 0-.4 0-.8.1-.4 0-.8.1-.8.1.5 4.8 2.8 29.4 2.8 33.8 0 9.4-6.2 10.2-10.7 10.8-3 .4-19.5 2.1-26.3 1.8-10.2-1.1-10.4-8.9-10.3-11.3.3-3.7 4-33.6 4.6-38.7 0 0-.3 0-.8-.1-.5 0-.8-.1-.8-.1-.7 5.5-4.4 35-4.6 38.7-.1 1.9-.3 11.7 11.7 13h2.1c7.7 0 21.7-1.5 24.4-1.8 4.4-.6 11.7-1.5 12-11.7 2.9-.3 14.2-1.5 18-2 2.1-.2 5.3-1.5 7.3-4.1 1.5-2 2.1-4.4 1.7-7.2-.1-4.9-10.6-29.5-11.9-32.3.5.3.4 1 .2 1.4"/></defs><clipPath id="cQ"><use xlink:href="#cP" overflow="visible"/></clipPath><linearGradient id="cR" gradientUnits="userSpaceOnUse" x1="-237.954" y1="464.565" x2="-237.013" y2="464.565" gradientTransform="matrix(82.4629 0 0 -82.4629 19738.848 38475.285)"><stop offset="0" stop-color="#0064a2"/><stop offset=".012" stop-color="#0064a2"/><stop offset=".529" stop-color="#0066a4"/><stop offset=".775" stop-color="#006bac"/><stop offset=".964" stop-color="#0075b9"/><stop offset="1" stop-color="#0077bc"/></linearGradient><path clip-path="url(#cQ)" fill="url(#cR)" d="M116.3 136.4h78.1v59.1h-78.1z"/></g><g><defs><path id="cS" d="M91.4 86.7c-4.1 4-2.9 9.4-2.4 11 0 0 .3-.4.7-.8.3-.3.6-.7.6-.7-.4-2-.6-5.6 2.3-8.3C96.1 84.4 107 84 114 86c9.4 2.7 13.8 5.3 20.3 12 .3.3.8.3 1.1 0 .3-.3.3-.8 0-1.1-6.7-6.9-11.4-9.6-21-12.4-2.7-.8-6.4-1.3-10.1-1.3-5.1 0-10.3.9-12.9 3.5"/></defs><clipPath id="cT"><use xlink:href="#cS" overflow="visible"/></clipPath><linearGradient id="cU" gradientUnits="userSpaceOnUse" x1="-236.607" y1="464.191" x2="-235.666" y2="464.191" gradientTransform="matrix(50.252 0 0 -50.252 11978.361 23417.256)"><stop offset="0" stop-color="#0064a2"/><stop offset=".012" stop-color="#0064a2"/><stop offset=".529" stop-color="#0066a4"/><stop offset=".775" stop-color="#006bac"/><stop offset=".964" stop-color="#0075b9"/><stop offset="1" stop-color="#0077bc"/></linearGradient><path clip-path="url(#cT)" fill="url(#cU)" d="M87.3 83.2h48.5v15.2H87.3z"/></g><g><defs><path id="cV" d="M260.2 107.2c-.4.1-.6.6-.5 1 0 .1.6 1.7 1.2 4.3l-7.1 2.1c-.6-2-1.1-3.2-1.1-3.2-.2-.4-.6-.6-1.1-.4-.4.2-.6.6-.4 1.1.1.2 9.1 21.4-6.7 31.6-8.2 5.3-17.9 7.7-28.7 7l-1.1 1.5c1.5.1 3.1.2 4.6.2 9.8 0 18.6-2.5 26.1-7.4 12.1-7.9 10.6-21.6 8.8-28.8l7-2.1c1.9 9 3.7 25.9-7 34-13.9 10.5-31.3 8.7-41.2 6.4l-1.1 1.4c4.2 1 9.8 2 16 2 8.7 0 18.7-2 27.3-8.5 15.8-12 6.4-40.5 6-41.7-.1-.3-.4-.5-.8-.5h-.2"/></defs><clipPath id="cW"><use xlink:href="#cV" overflow="visible"/></clipPath><linearGradient id="cX" gradientUnits="userSpaceOnUse" x1="-238.762" y1="463.366" x2="-237.822" y2="463.366" gradientTransform="matrix(58.973 -52.3469 -52.3469 -58.9729 38548.266 14986.673)"><stop offset="0" stop-color="#0064a2"/><stop offset=".012" stop-color="#0064a2"/><stop offset=".529" stop-color="#0066a4"/><stop offset=".775" stop-color="#006bac"/><stop offset=".964" stop-color="#0075b9"/><stop offset="1" stop-color="#0077bc"/></linearGradient><path clip-path="url(#cW)" fill="url(#cX)" d="M186.4 129.8l58.6-52 51.6 58.1L238 188z"/></g><g><defs><path id="cY" d="M186.9 128.7c-.2.5-.4.8-.4.8.5.1 1.4.3 2.5.4l.2-.8c.1-.5.2-.7.2-.7-1-.1-1.8-.3-2.3-.4.1 0 0 .3-.2.7"/></defs><clipPath id="cZ"><use xlink:href="#cY" overflow="visible"/></clipPath><linearGradient id="da" gradientUnits="userSpaceOnUse" x1="-241.439" y1="465.557" x2="-240.498" y2="465.557" gradientTransform="scale(-107.2183 107.2183) rotate(7.655 3348.964 2020.88)"><stop offset="0" stop-color="#b20a63"/><stop offset="1" stop-color="#c7006d"/></linearGradient><path clip-path="url(#cZ)" fill="url(#da)" d="M189.7 129.9l-3.1.4-.3-2.3 3.1-.4z"/></g><g><defs><path id="db" d="M261.2 104.6c-1.6 4.2-2.6 5.7-12.4 6.7V113h.1c10.4-1 12-2.8 13.8-7.7.6-1.7 1.7-6.2 2.1-8.3h-1.6c-.5 1.9-1.5 6-2 7.6"/></defs><clipPath id="dc"><use xlink:href="#db" overflow="visible"/></clipPath><linearGradient id="dd" gradientUnits="userSpaceOnUse" x1="-240.885" y1="465.354" x2="-239.944" y2="465.354" gradientTransform="scale(-171.602 171.602) rotate(7.655 3352.096 2021.083)"><stop offset="0" stop-color="#b20a63"/><stop offset="1" stop-color="#c7006d"/></linearGradient><path clip-path="url(#dc)" fill="url(#dd)" d="M266.9 112.6L249 115l-2.4-17.9 17.9-2.4z"/></g><g><defs><path id="de" d="M191.7 95.4c-1.1 1-7.2 1.3-11.2 1.2h-68.1c-.2 0-1.8 0-2.8 1.1-.6.7-.9 1.5-.8 2.6.1 2.2.9 4.1 1.5 5.3h1c.2 0 .9.1.9.1-.5-.8-1.6-3-1.8-5.5 0-.6.1-1 .4-1.3.6-.6 1.7-.6 1.7-.6h68.1c1.7 0 10.2.2 12.2-1.6 1.1-1 1.6-1.9 1.8-2.5 0 0-.3 0-.9-.1-.5-.1-.6-.6-.6-.6 0-.1 0 .8-1.4 1.9"/></defs><clipPath id="df"><use xlink:href="#de" overflow="visible"/></clipPath><linearGradient id="dg" gradientUnits="userSpaceOnUse" x1="-240.81" y1="465.344" x2="-239.87" y2="465.344" gradientTransform="scale(-187.1864 187.1864) rotate(7.655 3353.27 2021.521)"><stop offset="0" stop-color="#b20a63"/><stop offset="1" stop-color="#c7006d"/></linearGradient><path clip-path="url(#df)" fill="url(#dg)" d="M196.2 105.5L110.3 117l-3.2-23.4L193 82.1z"/></g><g><defs><path id="dh" d="M202.4 108.9h-12.1s1.5.2 2.2.6c.8.4 1.3 1 1.3 1h7.7c-.1 1.3-.5 3.8-1.6 5.6-.9 1.4-4.5 3-7.1 4 0 0-.2.6-.4.9-.5.8-.9 1.2-.9 1.2 1.6-.5 8.2-2.7 9.8-5.3 1.8-2.8 1.9-7.1 1.9-7.3v-.1-.2l-.1-.1s0-.1-.1-.1l-.1-.1-.1-.1h-.4c.1 0 0 0 0 0"/></defs><clipPath id="di"><use xlink:href="#dh" overflow="visible"/></clipPath><linearGradient id="dj" gradientUnits="userSpaceOnUse" x1="-240.883" y1="465.356" x2="-239.942" y2="465.356" gradientTransform="scale(-172.2966 172.2966) rotate(7.655 3352.007 2021.323)"><stop offset="0" stop-color="#b20a63"/><stop offset="1" stop-color="#c7006d"/></linearGradient><path clip-path="url(#di)" fill="url(#dj)" d="M205 122l-14.4 1.9-2-14.7 14.4-2z"/></g><g><path fill="#FFF" d="M157.3 168.9c.5 8.2-5.7 15.3-13.9 15.8s-15.3-5.7-15.8-13.9 5.7-15.3 13.9-15.8 15.3 5.7 15.8 13.9"/><path fill="#C6C6C5" d="M141.4 152.7c-9.5.6-16.6 8.8-16 18.3.6 9.5 8.8 16.7 18.3 16 9.5-.6 16.6-8.8 16-18.3-.7-9.4-8.9-16.6-18.3-16m2 32c-8.2.5-15.3-5.7-15.8-13.9s5.7-15.3 13.9-15.8 15.3 5.7 15.8 13.9c.6 8.2-5.7 15.3-13.9 15.8"/><path fill="#0080C8" d="M140.1 165.6l2.5-1v.2l-2.5 1v-.2zm-.8-5.4l.6-.3-.2-.1-.5.2.1.2zm0-.8l-.2-.2v.2h.2zm.6 4.8l2.7-1.1v-.2l-2.8 1.1.1.2zm-.4-2.4l1.6-.6-.1-.2-1.5.6v.2zm.3 1.6l2.6-1-.2-.1-2.5 1 .1.1zm-.4-2.4l1.1-.5-.2-.2-1 .4.1.3zm.6 4l2.6-1v-.2l-2.6 1.1v.1zm-.3-2.4l2.1-.8-.2-.2-2 .8.1.2zM135 164.1l-.7.7v-.3l.6-.6.1.2zm-.5-2l-.1.1v.3l.2-.2-.1-.2zm.2.9l-.4.4v.3l.4-.5v-.2zm.6 2.8l-1.1 1.2v.3l1.2-1.2-.1-.3zm-.1 4.9l1.1-1.1-.1-.2-1.2 1.3h.2zm.8-2l-.1-.2-1.7 1.8.2.1 1.6-1.7zm0 2.3l.6-.6-.1-.2-.7.8h.2zm-.5-4.3l-1.4 1.4v.3l1.4-1.5v-.2zm-.4-1.9l-.9.9v.3l.9-1v-.2zm1.7 6.5v-.3l-.2.2.2.1zm-1.1-3.7l-1.6 1.7v.3l1.7-1.7-.1-.3zM149.1 165.5l-1.2.8v-.2l1.2-.9v.3zm-1.1-5.2l-.2.2v.2l.4-.3-.2-.1zm1.1 1.1l-1.4 1v.2l1.5-1.1-.1-.1zm-.6-.6l-.8.6v.2l.9-.7-.1-.1zm0 7.8l-.4.3v.2l.4-.3v-.2zm1.3-6.6l-2 1.3v.2l2-1.4v-.1zm-.4 2.1l-1.5 1.1v.2l1.4-1 .1-.3zm-.5 2.3l-1 .7v.2l.9-.6.1-.3zm-.2 1.1l-.7.5v.2l.6-.5.1-.2zm.9-4.5l-1.8 1.3v.2l1.7-1.2.1-.3z"/><path fill="#E5007E" d="M144.4 166.6l-1.3-7.9-.2 6.5zM144.8 172.1l-2.1 1.5-5.4-2.1z"/><path fill="#0080C8" d="M145 171.8l3-6.1.1 4zM148 165.5l-2.1-7.1 1.8 1.7zM144.2 166.9l-1.5-1.4-2.5.9.1.3z"/><path fill="#E5007E" d="M136 167.7l.6-8-1.8 2z"/><path fill="#0080C8" d="M136.1 168l1 3 2.7.3z"/><path fill="#E30521" d="M149.5 174.2l.6.9h-.1l-.5.1s-.1 0 0 0c0 0 0 .1.1.1h.7v.1l-.2.1-.9.2.1.1 2.6-.4-.1.1-.1.1-2.7.6.1.1s2.4-.4 2.4-.3v.1h-.1l-1.8.4.1.1 1.5-.2h.1l-.1.1s0 .1-.1.1h-.1l-.9.2.1.1H151.1l.1.2-.5.1s0 .1.1.1h.7c0 .1.2.6.2.6v.1h-.1l-1.4-.6-1.2 1h-.1v-1.6l-1.2-.9s-.1-.1 0-.1 1.5-.5 1.5-.5l.5-1.4c-.4.3-.4.3-.2.3-.1 0 0 0 0 0"/><path fill="#008FD3" d="M137.5 176.1l.6.9-.6.2s-.1 0 0 0c0 0 0 .1.1.1h.6l.1.1-1.1.3.1.1h.6l.1.1-1 .2.1.1c.1 0 1.1-.1 1.3-.1l.1.1-1 .3.1.1 1.3-.1.1.1-1 .3s0 .1.1.1l1.1-.1v.2l-.6.1s0 .1.1.1h.6v.7h-.1l-1.2-.5-1.2 1h-.1v-1.6l-1.2-.9s-.1-.1 0-.1 1.5-.5 1.5-.5l.5-1.4c-.1.1-.1 0 0 .1 0-.1 0 0 0 0"/><path fill="#FBBE00" d="M140.5 175.6l.6.9-.6.2s0 .1.1.1h.6l.1.1-1.1.3.1.1h.6l.1.1-1 .2.1.1c.1 0 1.1-.1 1.3-.1l.1.1-1 .3.1.1 1.3-.1.1.1-1 .3s0 .1.1.1l1.1-.1v.2l-.6.1s0 .1.1.1h.6v.7h-.1l-1.2-.5-1.2 1h-.1v-1.6l-1.2-.9s-.1-.1 0-.1 1.5-.5 1.5-.5l.5-1.4c-.2.1-.1.1 0 .1"/><path fill="#00151D" d="M143.5 175.2l.6.9-.6.2s-.1 0 0 0c0 0 0 .1.1.1h.6l.1.1-1.1.3.1.1h.6l.1.1-1 .2.1.1c.1 0 1.1-.1 1.3-.1l.1.1-1 .3.1.1 1.3-.1.1.1-1 .3s0 .1.1.1l1.1-.1v.2l-.6.1s0 .1.1.1h.6v.7h-.1l-1.2-.5-1.2 1h-.1V178l-1.2-.9s-.1-.1 0-.1 1.5-.5 1.5-.5l.5-1.4c-.1.1-.1 0 0 .1 0-.1 0 0 0 0"/><path fill="#00914C" d="M146.5 174.7l.6.9-.6.2s0 .1.1.1h.7l.1.1-1.1.3.1.1h.6l.1.1-1 .2.1.1c.1 0 1.1-.1 1.3-.1l.1.1-1 .3.1.1 1.3-.1.1.1-1 .3s0 .1.1.1l1.1-.1v.2l-.6.1s0 .1.1.1h.6v.7h-.1l-1.2-.5-1.2 1h-.1v-1.6l-1.2-.9s-.1-.1 0-.1 1.5-.5 1.5-.5l.5-1.4c-.2.1-.2 0-.1.1 0-.1 0 0 0 0"/></g></svg>