<svg xmlns="http://www.w3.org/2000/svg" xmlns:xlink="http://www.w3.org/1999/xlink" viewBox="0 0 352 330" enable-background="new 0 0 352 330"><defs><path id="a" d="M174.8 220.7c1-4.8 6.2-9.3 11.2-13 8.2-6.1 14.8-9.4 17.3-8.6.5.3 1.7 2.5 2.7 4.5 2.5 4.7 6.3 11.9 11.9 17 4.5 4.1 15.2 13.5 20.2 17.9-.3.9-.6 2.8.8 4.6.8 1 1.9 2.3 2.7 3.3-8.5 2.2-21.2 6.5-25 12.3-6.1 1.2-13.6 2.5-22.9 4.1.8-3.7-1.8-9.2-4.7-14.7-2.9-5.6-4-7.4-5.1-9.2-.5-.9-1.1-1.8-1.8-3.1-1.7-3-3.6-3.4-4.6-3.3-1.3-3.8-3.1-9.8-2.7-11.8m72.7-17.6c-.9-1.7-1.7-4.1-2.4-6.8 2.3 1 6.6 2.3 11.5 2.3h1.4l36.3 49.6c-3.1 1.3-6.7 2.9-10.8 4.6 1.2-2 1.6-4 1.2-5.8-.8-4.3-13.9-20.6-17.3-24.3-1.6-1.8-3.7-1.7-5-1.4-4.3-4.7-12.8-14-14.9-18.2m-164-78.8c1.8.8 3.5 1.7 3.8 2.2.2.4.4.8.5 1.3-2.2-1.5-3.5-2.6-4.3-3.5M135.9 1.7c-3.8 1.7-4.2 4.5-2.4 17.1l.4 2.8c.6 4 1 6.7.7 7.7-.2.8-.8 1.3-1.7 1.8-.9-1.4-3.4-5.6-8.7-15-3.5-6.2-6.3-9.2-8.9-9.6-1.9-.3-3.1 1-3.8 1.6-2.6 2.6-5.6 10.5-6 24.9-.1 5.3.5 16 .6 17.8-.7 1-1.3 2-2 3-.3.4-.6.9-.9 1.3-.8 1.2-1.6 2.8-2.5 5.5-2.7 7.4-6.8 20.8-6.9 20.9v.2c0 .1.2 3.4 1.7 7.1 1 2.3 2.4 4.8 3.1 5.8-.5.6-.9 1.3-1.3 2-1.7 3.4-1.3 7.3 1.1 10.5.9 2 2.6 5.6 5.8 8.7.5.4.9.8 1.4 1.1.3 1.1 1.6 4.8 4.5 9.3 0 .7 0 2.5-.4 4.8-.4 2.4-1.8 5.1-2.4 6.3-2.3-1-5-2.1-7.8-3.4-.6-1.5-1.4-3.2-2.4-4.9-4.6-7.6-15.1-10.1-17.1-10.5-4.4-6.2-12.2-11.9-15.9-10.8-.7.2-1.5.5-2.4.9-.8-1.1-2.6-3.5-4.5-4.2-.4-.2-.9-.3-1.4-.3l-1.2-4.8c-.1-.3-.3-.5-.5-.6-.2 0-4.2-1.2-8.1.1-3.8 1.3-6.4 4.7-6.5 4.8-.2.2-.2.6-.1.8l2.9 6.6c-2.3 2.2-4 4.6-4.6 6.4-2.1 7.2 2.2 14.1 3 15.3.2 1.5 1.5 10.2 8.2 18.1 3.6 4.2 8.9 7.3 14.2 8.4L95 251l.3.8c5.6 15.1 7.5 16.8 8.4 16.8.1 0 .2 0 .3-.1.7-.2 1.9-.6-2.2-14.9.6.1 1.3.1 2 .1.5 0 1 0 1.4-.1 3.7-.4 6.6-1.8 7.9-3.8.9-1.4 1.1-3 .5-4.7-.5-1.6-1.6-2.7-3-3.2-2.3-.8-5.5-.1-9.2 2.1-1.2.7-1.6 1-2.3 1.6l-28.8-85.7c1.9-.1 3.7-.1 4.6.4.3.1 23.5 11.6 36.9 11.6 1.8 0 3.5-.2 4.9-.7 5.8-2.1 13.9-11.9 16.1-14.7 5 5.3 11.7 10.9 20.7 15.5 1.9 1 4 2.1 6.1 3.2-3 4.3-20.4 29.2-22.3 38.7-.9 4.8.9 9.4 4.3 15.8 1.7 3.2 5.3 8.1 7.5 11-.8.9-1.5 2.5-.3 4.4.7 1.2 1.2 2 1.5 2.7-9.4 0-21.7.8-25.9 5.2-2.7 2.8-5.2 8-6.5 13.2-1.2.4-4.5 1.7-6.4 4.5-1.7 2.5-2.3 4.5-2.6 5.5l-5.4 1C78.6 281.8 44.4 288 26 286c-15.1-1.6-18.5-6.2-18.5-6.2-.6-.7-2.7-2.9-4.3-2.9-.5 0-.9.2-1.2.6l-.6.9c-.1.1-.1.2-.1.3-.3.6-.4 1.4-.3 2.3.3 2.6 2 5.6 4.6 7.6l.1.1c4.3 3.5 9.2 7.4 30.3 9.1 3.1.2 6.4.4 10.1.4 42 0 120.6-15.2 167.4-26.4v.5c-.9.7-3.5 2.8-4.5 4.8-1.3 2.8-1.7 4.8-1.8 5.7-1 .4-1.9.7-2.7 1.1-5.7 2.3-12 5-18.7 8-21.6 9.4-46 20-63.3 21.7-20.6 2.1-26.6-1.8-26.7-1.8-1.2-.7-4.2-2.3-5.5-1.2 0 0-.1 0-.1.1-.9 1-1.3 2.2-1.2 3.5.4 4.2 5.7 8.5 6.8 9.3 3.7 2.8 10.7 5.8 24.1 5.8 3.4 0 7.2-.2 11.5-.6 39.8-4 154.4-62.2 170.2-70.3l8.4 11.5.5.7c9.1 11.8 11.7 13.6 12.7 13.6.3 0 .4-.1.5-.2.6-.4 1.6-1.2-6.4-13.6 1.1-.2 2.2-.5 3.3-1 3.4-1.4 5.8-3.6 6.4-6 .4-1.6.1-3.2-.9-4.7-1-1.3-2.3-2.1-3.8-2.2-2.4-.1-5.3 1.5-8.2 4.7-.9 1-1.3 1.5-1.7 2.2l-5.6-7.8c2.4-1.3 4.4-2.3 5.9-3.1 16.5-8.9 30.6-16.8 37.5-20.7.5-.2 1.8-.8 1.6-3.1-.1-2-1.4-2.6-2.2-2.6l-10.5-.5h-.4c-8.3 4.4-28.8 15.2-38.9 19.8l-.3.1-34.9-48.5c2.3-.8 4.5-2 6.6-3.5 6.8-5.1 9-13.2 9.1-13.6.1-.3 0-.6-.2-.8-.2-.2-.5-.3-.8-.2l-7 2.6c2.7-3.4 5.8-10.1 3.5-21.8-2.2-11.2-11.4-18.9-13.9-20.9 6.8-9.7 8.9-19.6 7.5-24.4-2.2-7.2-16.1-14.2-25.3-18.8l-.7-.4c-1.2-.6-2.9-1.3-4.9-2.1 1.1-.5 2.1-.9 3.2-1.5 7.9-3.7 18.3-12.2 24-18.2 3.4-3.6 2.8-9.3.9-13.2-5.7-11.3-13.2-19.5-22.6-28.2-2-1.9-7.1-6.2-10.7-6.4-6.2-.4-8.5 2.5-13.8 9.6-1.1 1.4-2.2 2.9-3.6 4.6C212.8 37.5 198.6 27 193 23c-2.2-1.6-4.9-2.2-7.5-1.8-3 .5-5.7 2.4-7.9 5.5-.7.9-1.9 2.5-2.7 3.4-1.5-2.3-3.1-4.5-4.7-6.3C162.4 15 149 1 139.3 1c-1.2 0-2.3.2-3.4.7"/></defs><clipPath id="b"><use xlink:href="#a" overflow="visible"/></clipPath><radialGradient id="c" cx="-242.84" cy="462.78" r=".943" gradientTransform="scale(220.384 -220.384) rotate(-31.454 -943.765 -201.18)" gradientUnits="userSpaceOnUse"><stop offset="0" stop-color="#fff"/><stop offset=".356" stop-color="#fff"/><stop offset=".544" stop-color="#f6f6f6"/><stop offset=".852" stop-color="#ddd"/><stop offset="1" stop-color="#cfcfcf"/></radialGradient><path clip-path="url(#b)" fill="url(#c)" d="M96.5-155.4L498.3 90.4 256.5 485.6l-401.7-245.7z"/><defs><path id="d" d="M250.4 149.4h-.1c-.1 0-.1 0-.1.1h-.1c-.8.7-1.7 1.3-2.5 1.9 0 0 0 .1-.1.1l-.1.1s0 .1-.1.1c0 0 0 .1-.1.1v.4c0 .1 0 .1.1.2v.1c.1.1 5.1 8.5 2.6 13.9-1 2.1-2.6 3.5-4.9 4.1 0 0-.1 0-.1.1 0 0-.1 0-.1.1-.1 0-.1.1-.1.2l-.1.1s0 .1-.1.1c0 0 0 .1-.1.1V171.5c0 .1.1.2.1.3l8.5 11.8.2.2h.1c.1 0 .2.1.3.1h.2c2.2-.5 4.1-1.5 5.8-2.9 6.9-5.9 2.8-13.3 2.8-13.4-.1-.2-.3-.3-.5-.4-.2-.1-.4 0-.6.1l-3.8 2.2c1.3-2.9 2.8-7.9.7-12.6-2.3-5.3-7.3-7.4-7.5-7.4H250.4c.1-.1.1-.1 0-.1"/></defs><clipPath id="e"><use xlink:href="#d" overflow="visible"/></clipPath><linearGradient id="f" gradientUnits="userSpaceOnUse" x1="-242.021" y1="460.354" x2="-241.078" y2="460.354" gradientTransform="scale(58.7704 -58.7704) rotate(47.989 401.778 504.82)"><stop offset="0" stop-color="#585857"/><stop offset=".317" stop-color="#878786"/><stop offset=".75" stop-color="#c2c2c2"/><stop offset=".957" stop-color="#d9d9d9"/><stop offset="1" stop-color="#d9d9d9"/></linearGradient><path clip-path="url(#e)" fill="url(#f)" d="M227.3 168.4l27.1-30 29.3 26.5-27 30z"/><defs><path id="g" d="M238.6 170.1c-.1 0-.1 0 0 0h-.1c-.1 0-.1.1-.2.1h-.1l-.2.2c0 .1-.1.1-.1.2v.4l.3 1.2c.6 2.5 1.3 5.8 2 9.3l.1.4v.2l.1.1.1.1s.1.1.2.1h.1c.1.1 3.1 1.3 7.1 1.7h.1c.1 0 .2 0 .3-.1h.1s.1 0 .1-.1l.1-.1.1-.1v-.1-.2-.1-.2c0-.1 0-.1-.1-.2v-.1l-9.2-12.6c0-.1-.1-.1-.2-.1l-.1-.1c-.1 0-.1-.1-.2-.1h-.1-.1c0 .2-.1.2-.1.2"/></defs><clipPath id="h"><use xlink:href="#g" overflow="visible"/></clipPath><linearGradient id="i" gradientUnits="userSpaceOnUse" x1="-242.021" y1="460.381" x2="-241.078" y2="460.381" gradientTransform="scale(58.7726 -58.7726) rotate(47.989 401.77 504.817)"><stop offset="0" stop-color="#585857"/><stop offset=".317" stop-color="#878786"/><stop offset=".75" stop-color="#c2c2c2"/><stop offset=".957" stop-color="#d9d9d9"/><stop offset="1" stop-color="#d9d9d9"/></linearGradient><path clip-path="url(#h)" fill="url(#i)" d="M230.8 177.9l11.9-13.2 13 11.8-11.9 13.2z"/><defs><path id="j" d="M70.4 138.8h-.1s-.1 0-.1.1c0 0-.1 0-.1.1l-.1.1s-.1 0-.1.1c0 0 0 .1-.1.2v.4c1.3 4.1 2.2 9 1.6 9.9-.3.4-1.3 1.2-4.6 1.9-.4.1-.7.5-.6.9 0 .1.1.2.1.3l.4 1.1v.1c0 .1.1.1.1.2l.1.1s.1.1.2.1h.1c.1 0 .1 0 .2.1h.8c4.1 0 6.7-.9 7.8-2.7 2-3.2.9-6.1.1-8.4-.2-.6-.5-1.2-.6-1.7 0-.1 0-.1-.1-.2 0 0 0-.1-.1-.1l-.1-.1-.1-.1H75c-1.5-.6-2.9-1.4-4.1-2.2-.1 0-.1-.1-.2-.1h-.1-.1c0-.1 0-.1-.1-.1"/></defs><clipPath id="k"><use xlink:href="#j" overflow="visible"/></clipPath><linearGradient id="l" gradientUnits="userSpaceOnUse" x1="-242.111" y1="459.95" x2="-241.168" y2="459.95" gradientTransform="scale(55.8755 -55.8755) rotate(54.224 331.54 465.968)"><stop offset="0" stop-color="#585857"/><stop offset=".317" stop-color="#878786"/><stop offset=".75" stop-color="#c2c2c2"/><stop offset=".957" stop-color="#d9d9d9"/><stop offset="1" stop-color="#d9d9d9"/></linearGradient><path clip-path="url(#k)" fill="url(#l)" d="M58.7 149.1l11.5-15.9 15.2 11L74 160.1z"/><defs><path id="m" d="M68.9 122.1c-.1 0-.1 0 0 0-.1.1-.2.1-.2.1l-.1.1-.1.1s-1.7 2.3-4.4 3.9c-.1 0-.1.1-.1.1s0 .1-.1.1c0 .1-.1.1-.1.2v.2c0 .1 0 1.5.2 3.4 0 .2.2.4.4.6l.1.1s4.8 2.6 10 4.4h.2c.1 0 .2 0 .3-.1h.1c.1 0 .1-.1.2-.1l.1-.1s.1-.1.1-.2v-.1-.1-.1c.1-2.7.1-5.5-.2-7.2-.4-2.4-1.3-4.1-2.8-4.9-.9-.5-1.8-.7-2.5-.7-.6.2-1.1.3-1.1.3"/></defs><clipPath id="n"><use xlink:href="#m" overflow="visible"/></clipPath><linearGradient id="o" gradientUnits="userSpaceOnUse" x1="-242.111" y1="459.958" x2="-241.168" y2="459.958" gradientTransform="scale(55.8774 -55.8774) rotate(54.223 331.33 465.86)"><stop offset="0" stop-color="#585857"/><stop offset=".317" stop-color="#878786"/><stop offset=".75" stop-color="#c2c2c2"/><stop offset=".957" stop-color="#d9d9d9"/><stop offset="1" stop-color="#d9d9d9"/></linearGradient><path clip-path="url(#n)" fill="url(#o)" d="M57.3 130.9l10.5-14.6 14.3 10.3-10.5 14.6z"/><defs><path id="p" d="M135.9 1.7c-3.8 1.7-4.2 4.5-2.4 17.1l.4 2.8c.6 4 1 6.7.7 7.7-.2.8-.8 1.3-1.7 1.8-.9-1.4-3.4-5.6-8.7-15-3.5-6.2-6.3-9.2-8.9-9.6-1.9-.3-3.1 1-3.8 1.6-2.6 2.6-5.6 10.5-6 24.9-.1 5.3.5 16 .6 17.8-.7 1-1.3 2-2 3-.3.4-.6.9-.8 1.3v.1c0 .1-.1.1-.1.2V55.7s0 .1.1.1c0 0 0 .1.1.1l.1.1.1.1c.1.1.2.1.3.1H104.2c.1 0 .2 0 .2-.1h.1c.1-.1.2-.1.3-.2.6-.9 1.2-1.3 1.7-1.3 4.2 0 8.8 18.6 10.8 30.4v.2c0 .1.1.1.1.1s0 .1.1.1c0 0 .1.1.2.1 0 0 .1 0 .1.1.1 0 .2.1.3.1h.2c.1 0 .1 0 .1-.1l.1-.1.1-.1.1-.1.1-.1V85v-.1c-.4-6.9.3-17.2 1.1-21.1.6-2.9 1.7-5.9 5.7-7.8 8.2-3.9 21.4.2 37.1 11.4 12.1 8.7 18 15.3 19.1 16.6-.2 1.2-.9 5.3-2.3 9.4-2.4 6.8-7.5 14.6-7.5 14.6v.1s0 .1-.1.2v.4c0 .1 0 .1.1.1l.1.1s0 .1.1.1H172.8c.1 0 .2 0 .3-.1 0 0 .1 0 .1-.1l.1-.1c2.1-2.2 4-4.7 5.7-7.2 17.2-27 14.9-46.1 14.8-46.9 0-.1 0-.1-.1-.2 0 0 0-.1-.1-.1-.1-.1-5.4-8.3-12.9-14.6h-.1c-3.1-5.6-6.8-11.6-10.5-16C162.4 15 149 1 139.3 1c-1.2 0-2.3.2-3.4.7"/></defs><clipPath id="q"><use xlink:href="#p" overflow="visible"/></clipPath><linearGradient id="r" gradientUnits="userSpaceOnUse" x1="-242.495" y1="462.024" x2="-241.552" y2="462.024" gradientTransform="scale(146.1632 -146.1632) rotate(16.699 1454.857 1058.257)"><stop offset="0" stop-color="#585857"/><stop offset=".317" stop-color="#878786"/><stop offset=".75" stop-color="#c2c2c2"/><stop offset=".957" stop-color="#d9d9d9"/><stop offset="1" stop-color="#d9d9d9"/></linearGradient><path clip-path="url(#q)" fill="url(#r)" d="M73.5 9.9l115-34.5L226 100.5 111 135z"/><path fill="#FFF" d="M123.5 37.3v-.2-.2-.1c0-.1-3.7-12.8-6.5-21.4-.6-1.8-1.3-2.8-2.3-3.1-.5-.1-1.1 0-1.5.4-2.1 2.1-2.5 10.7-2.4 17.6.1 8.9 1.3 14 1.3 14.2v.1c0 .1.1.1.1.2.1.1.1.1.2.1h.1c.1 0 .2.1.3.1H113.1s.1 0 .1-.1c0 0 .1 0 .1-.1.7-.7 1.5-1.4 2.4-2.1 2.1-1.8 4.5-3.5 7.2-5.1l.1-.1.1-.1s0-.1.1-.1h.3M170.6 49.6c0-.1-3.6-12.6-9.7-22.3-13.3-21-18.8-21.9-21.7-20.7-2.7 1.1-2.3 3.2-1.4 8.2.1.6.3 1.3.4 2.1 1.4 7.6 4.5 19.1 4.5 19.2 0 .1 0 .1.1.1 0 0 0 .1.1.1l.1.1.1.1c.1.1 14.6 5.8 26.3 14.1.1.1.3.1.5.1.3 0 .5-.1.7-.3.2-.1.2-.5 0-.8"/><path fill="#EDEDED" d="M159.6 28.2c-5.5-8.7-9.7-13.9-12.8-16.9-.9 7.7-1.3 16-.8 24.7 4.2 1.8 13.8 6.2 22.6 12.1-1.4-3.9-4.5-12.7-9-19.9M116 17.7c-1.5 7.6-2.2 16-2 24.7.3-.2.6-.5.8-.7 2-1.7 4.3-3.4 6.9-4.9-.6-2.5-3.3-11.8-5.7-19.1"/><defs><path id="s" d="M176.7 105.1c-8.9 11.6-22.2 17.9-32.5 19.8-3.6 3.7-9.4 9.1-13.8 10.1-.9.2-1.8.3-2.7.3-3.1 0-6-1-7.6-2.9-2.8-3.1-4-10.5-4.3-12.4-1.9-.5-3.3-1.1-3.7-1.3h-.4c-.8 0-2.3-.1-3.8-.6 1.5 4 6.5 14.4 19.1 22 8.8 5.3 25.5 7.6 37.1 2.2 14.3-6.7 25.4-34.1 27.8-40.3-7.5 1-13.9 2.7-15.2 3.1"/></defs><clipPath id="t"><use xlink:href="#s" overflow="visible"/></clipPath><linearGradient id="u" gradientUnits="userSpaceOnUse" x1="-242.866" y1="461.14" x2="-241.923" y2="461.14" gradientTransform="scale(109.6923 -109.6923) rotate(56.527 309.386 456.748)"><stop offset="0" stop-color="#0075be"/><stop offset=".393" stop-color="#0075be"/><stop offset=".63" stop-color="#008ed4"/><stop offset=".822" stop-color="#009ee2"/><stop offset="1" stop-color="#009ee2"/></linearGradient><path clip-path="url(#t)" fill="url(#u)" d="M86.8 133.7l46.6-70.5 79.5 52.6-46.6 70.5z"/><defs><path id="v" d="M220.7 36.6c-2.4 3.1-5.3 7-9.6 11.9-8.1 9.4-15.7 13.7-17.5 14.7-.8 8.2-4 21.9-14.7 38.8-.2.4-.5.7-.7 1 2.9-.8 8.6-2.1 14.8-2.9 3.3-.4 6.7-.7 9.9-.7 12.3 0 22.5-1.4 38.2-8.8 7.8-3.6 17.9-11.9 23.5-17.9 2.7-2.9 2.4-7.9.6-11.4-5.6-11.1-13-19.1-22.3-27.8-3.9-3.6-7.6-5.9-9.8-6h-1c-4.6.1-6.5 2.5-11.4 9.1"/></defs><clipPath id="w"><use xlink:href="#v" overflow="visible"/></clipPath><linearGradient id="x" gradientUnits="userSpaceOnUse" x1="-242.438" y1="461.716" x2="-241.495" y2="461.716" gradientTransform="scale(118.184 -118.184) rotate(27.44 826.701 729.931)"><stop offset="0" stop-color="#0075be"/><stop offset=".393" stop-color="#0075be"/><stop offset=".63" stop-color="#008ed4"/><stop offset=".822" stop-color="#009ee2"/><stop offset="1" stop-color="#009ee2"/></linearGradient><path clip-path="url(#w)" fill="url(#x)" d="M147.3 43.6L248.4-8.9 298.2 87l-101.1 52.5z"/><defs><path id="y" d="M185.7 23.2c-2.6.4-4.9 2.1-6.8 4.8-.8 1.2-2.4 3-3.1 3.9 1.7 2.7 3.4 5.5 4.9 8.3h.1c7.5 6.3 12.8 14.5 12.9 14.6 0 0 0 .1.1.1 0 .1 0 .1.1.2 0 .3.3 2.4.1 6.2 2.7-1.6 9.3-5.8 16.2-13.8 1.9-2.2 3.5-4.2 4.9-6-3.2-2.4-17.3-12.7-22.9-16.8-1.5-1.1-3.2-1.6-5-1.6-.6 0-1.1 0-1.5.1"/></defs><clipPath id="z"><use xlink:href="#y" overflow="visible"/></clipPath><linearGradient id="A" gradientUnits="userSpaceOnUse" x1="-244.387" y1="459.52" x2="-243.444" y2="459.52" gradientTransform="scale(-49.6584 49.6584) rotate(-83.448 -381.18 95.541)"><stop offset="0" stop-color="#0075be"/><stop offset=".393" stop-color="#0075be"/><stop offset=".63" stop-color="#008ed4"/><stop offset=".822" stop-color="#009ee2"/><stop offset="1" stop-color="#009ee2"/></linearGradient><path clip-path="url(#z)" fill="url(#A)" d="M176.2 65.7l-4.8-42.1 42.9-5 4.9 42.2z"/><defs><path id="B" d="M312.9 270.9c3.6 4.6 7.4 9.1 9.4 10.9-1-2.3-3.8-6.9-6.6-11.1-1 .2-2 .2-2.8.2m-83.1-113.4l9.5 12.9 72 98.4c.2 0 .6 0 1.2-.5s.8-.8.8-1l-50.3-70-29.6-41.1c-1 .4-2.2.8-3.6 1.3"/></defs><clipPath id="C"><use xlink:href="#B" overflow="visible"/></clipPath><linearGradient id="D" gradientUnits="userSpaceOnUse" x1="-242.966" y1="462.99" x2="-242.023" y2="462.99" gradientTransform="scale(211.6944 -211.6944) rotate(-51.425 -602.359 -22.052)"><stop offset="0" stop-color="#585857"/><stop offset=".193" stop-color="#7a7877"/><stop offset="1" stop-color="#d9d9d9"/></linearGradient><path clip-path="url(#C)" fill="url(#D)" d="M286.4 111.1L383.6 233l-117.8 93.9L168.6 205z"/><defs><path id="E" d="M103.1 266c-.3-2.5-1.6-7.7-3-12.6-1.1-.2-2-.4-2.7-.6 2 5.4 4.4 10.9 5.7 13.2M62.8 153.8l33.6 96.4h.4c.2 0 .5 0 .9-.2.7-.3 1-.5 1.1-.7l-32.3-96.1c-1.2.3-2.5.5-3.7.6"/></defs><clipPath id="F"><use xlink:href="#E" overflow="visible"/></clipPath><linearGradient id="G" gradientUnits="userSpaceOnUse" x1="-243.107" y1="463.263" x2="-242.164" y2="463.263" gradientTransform="matrix(60.6667 180.0002 180.0002 -60.6666 -68592.57 71965.133)"><stop offset="0" stop-color="#585857"/><stop offset=".193" stop-color="#7a7877"/><stop offset="1" stop-color="#d9d9d9"/></linearGradient><path clip-path="url(#F)" fill="url(#G)" d="M99 141.1l38.2 113.4-70.3 23.7-38.2-113.4z"/><defs><path id="H" d="M207.1 158.6c4.4 3.2 8.1 4.3 10.7 3.3 1.7-.6 2.6-2.1 3-3-.4-.2-.6-.4-.8-.5-1.9-.7-3.8-1.8-5.5-3-.5.4-1.3 1-2.3 1.1h-.6c-1.4 0-2.8-.6-4.3-1.9-1.7-1.4-3.3-4-3.9-5.1-.2 0-.5.1-.7.1-.4 0-.8-.1-1.2-.2-.3-.1-.6-.2-.9-.4.7 2.4 2.6 6.8 6.5 9.6"/></defs><clipPath id="I"><use xlink:href="#H" overflow="visible"/></clipPath><linearGradient id="J" gradientUnits="userSpaceOnUse" x1="-246.251" y1="478.589" x2="-245.308" y2="478.589" gradientTransform="scale(-9.4285 9.4285) rotate(72.321 182.024 400.458)"><stop offset="0" stop-color="#c20a6c"/><stop offset=".472" stop-color="#e3097e"/><stop offset="1" stop-color="#e3097e"/></linearGradient><path clip-path="url(#I)" fill="url(#J)" d="M224.8 150.3l-5.9 18.5-22.3-7.2 5.8-18.4z"/><g><defs><path id="K" d="M82.2 122.1c1.4.5 5.6 2.1 6.5 3.7 1.8 3.4 1.7 8.3-1.6 10.6-1 .7-2.4 1-3.9 1-5.7 0-14.1-3.9-17.4-5.6.3 1.5.7 2.9 1.3 3.6 3.8 4.8 11 6.8 11.1 6.8 4.9 1.9 18 5.6 20.3 0 1.3-3.2.5-7.2-2.5-12.2-3.5-5.8-11-8.4-14.5-9.3.3.5.5.9.7 1.4"/></defs><clipPath id="L"><use xlink:href="#K" overflow="visible"/></clipPath><linearGradient id="M" gradientUnits="userSpaceOnUse" x1="-244.637" y1="469.306" x2="-243.694" y2="469.306" gradientTransform="scale(-23.3007 23.3007) rotate(72.322 193.314 402.09)"><stop offset="0" stop-color="#c20a6c"/><stop offset=".472" stop-color="#e3097e"/><stop offset="1" stop-color="#e3097e"/></linearGradient><path clip-path="url(#L)" fill="url(#M)" d="M107.6 123.2l-10.9 34.5-38.8-12.4 11-34.5z"/></g><g><defs><path id="N" d="M315.5 262.4c-.9 1-1.2 1.4-1.7 2.1-.1.1-.2.2-.2.4l1.2 1.6v.1l.1.1v.1c.1.3.2 1.3-1.2 2.4 1.8-.1 4.3-.4 6.4-1.3 3-1.2 5-3 5.5-5 .3-1.1.1-2.2-.7-3.3-.7-1-1.6-1.5-2.6-1.5h-.2c-1.7.2-4.1 1.6-6.6 4.3"/></defs><clipPath id="O"><use xlink:href="#N" overflow="visible"/></clipPath><linearGradient id="P" gradientUnits="userSpaceOnUse" x1="-245.603" y1="472.515" x2="-244.66" y2="472.515" gradientTransform="scale(-14.2675 14.2675) rotate(72.321 176.837 397.892)"><stop offset="0" stop-color="#c20a6c"/><stop offset=".472" stop-color="#e3097e"/><stop offset="1" stop-color="#e3097e"/></linearGradient><path clip-path="url(#O)" fill="url(#P)" d="M329.2 259.3l-4.4 13.6-14.5-4.6 4.4-13.6z"/></g><g><defs><path id="Q" d="M102.3 245.4c-1.1.7-1.5 1-2.2 1.5l-.3.3.6 1.9V249.4c0 .1-.1 1.3-1.8 2 1.7.4 4.2.9 6.5.7 3.2-.3 5.6-1.4 6.7-3.1.6-1 .7-2.1.3-3.3-.4-1.1-1.1-1.9-2-2.2-.4-.2-1-.2-1.5-.2-1.7-.1-3.8.7-6.3 2.1"/></defs><clipPath id="R"><use xlink:href="#Q" overflow="visible"/></clipPath><linearGradient id="S" gradientUnits="userSpaceOnUse" x1="-246.26" y1="475.445" x2="-245.316" y2="475.445" gradientTransform="scale(-11.9774 11.9774) rotate(72.321 183.82 410.19)"><stop offset="0" stop-color="#c20a6c"/><stop offset=".472" stop-color="#e3097e"/><stop offset="1" stop-color="#e3097e"/></linearGradient><path clip-path="url(#R)" fill="url(#S)" d="M115.2 244.1l-3.9 12.3-15.3-4.9 3.9-12.3z"/></g><g><defs><path id="T" d="M205.2 285.4c-5.7 2.3-12 5-18.7 7.9-21.7 9.4-46.3 20.1-63.7 21.8-4.4.4-8.2.6-11.4.6-11.9 0-15.9-2.4-16.3-2.7-1.1-.7-2.4-1.2-3.1-1.3 1.1 2.4 5.9 10 23.3 11.9 25.2 2.7 71.8-18.2 89.3-26.1l2-.9c2.9-1.3 8.5-3.8 15.7-7.1-2.8-.3-6.8-.8-9.1-1.6-3.3-1.2-4.7-2.7-5.4-3.5-1 .4-1.8.7-2.6 1m2 12.7l-1.9.9c-16.6 7.5-58.9 26.5-85.2 26.5-1.7 0-3.4-.1-4.9-.3-17.1-1.9-22.6-8.9-24.3-12.2-.1.3-.1.6-.1 1 .2 2.6 3.3 6 6.2 8.2 3.6 2.7 12.9 7 34.5 4.8 39.3-4 152.8-61.5 169.4-70l-1.2-1.6c-28.8 13.9-80.9 37.6-92.5 42.7m74.5-42.9c-3.1 3.8-8.7 7.8-16.7 12.2-12.7 7-22.3 11.3-30 13.5l-5.6 5.3c20.9-9.5 50.1-23 69.1-32.2l-3.4-4.6c-3.6 1.7-8.1 3.6-13.4 5.8m23.3-2.4l-.2.1 1.1 1.5c2.5-1.3 4.6-2.4 6.1-3.2 16.6-8.9 30.7-16.8 37.6-20.8h.1s.1 0 .1-.1c.2-.1.5-.4.5-1.5 0-.7-.3-.9-.5-1-10.5 6.3-30.1 17.8-44.8 25m-4.3-5.8l3.2 4.5.4-.2c14-6.9 33.2-18 42.8-23.7l-7.6-.4c-8.5 4.5-28.8 15.2-38.8 19.8"/></defs><clipPath id="U"><use xlink:href="#T" overflow="visible"/></clipPath><linearGradient id="V" gradientUnits="userSpaceOnUse" x1="-243.653" y1="463.333" x2="-242.71" y2="463.333" gradientTransform="scale(-180.6042 180.6042) rotate(72.322 193.745 397.954)"><stop offset="0" stop-color="#c20a6c"/><stop offset=".472" stop-color="#e3097e"/><stop offset="1" stop-color="#e3097e"/></linearGradient><path clip-path="url(#U)" fill="url(#V)" d="M380 236.7l-53.5 167.7-265.3-84.5 53.5-167.8z"/></g><g><defs><path id="W" d="M104 278.8C81.2 283 53.5 288 34.4 288c-3 0-5.8-.1-8.4-.4-15.3-1.6-19.2-6.3-19.6-6.9-1.2-1.3-2.7-2.5-3.1-2.4-.1.1-.1.2-.2.3.8 1.5 4.8 8 16.4 11.5 27.1 8.3 94.2-5.2 97.1-5.8.3-.1.7-.1 1.1-.2-1.9-.6-4.1-1.6-5.7-2.9-1.8-1.5-2.5-2.6-2.8-3.4l-5.2 1zm34.2 3.2c-10.1 1.8-18.1 3.3-21.4 4-2.2.4-42.2 8.5-73.2 8.5-9.5 0-18.2-.8-24.7-2.7-9.7-3-14.3-7.8-16.3-10.6.3 2.1 1.8 4.6 4 6.3l.1.1c4.2 3.3 8.9 7.1 29.5 8.7 38.1 3 126.8-13.9 177.5-26.1.1-.9.2-1.7.3-2.6-22.7 4.7-54.6 10.5-75.8 14.4m54.8-17.5c-.4.6-1 1.2-1.7 1.6-4.9 2.8-14 5.7-24.9 7.9l-2.5.5c-9.1 1.8-20.3 4.1-29.3 4.7l-7.1 3.1c3.1-.6 6.6-1.2 10.3-1.9 21.4-3.9 53.6-9.8 76.4-14.6.4-1.9.9-3.8 1.5-5.3-6 1.2-13.5 2.5-22.7 4"/></defs><clipPath id="X"><use xlink:href="#W" overflow="visible"/></clipPath><linearGradient id="Y" gradientUnits="userSpaceOnUse" x1="-243.826" y1="464.1" x2="-242.883" y2="464.1" gradientTransform="scale(-98.2708 98.2708) rotate(72.322 193.36 399.162)"><stop offset="0" stop-color="#c20a6c"/><stop offset=".472" stop-color="#e3097e"/><stop offset="1" stop-color="#e3097e"/></linearGradient><path clip-path="url(#X)" fill="url(#Y)" d="M227 264.1l-30.9 96.8-204.7-65.2 30.9-96.8z"/></g><g><defs><path id="Z" d="M263.7 222.7c.6.7 1.1 1.1 1.2 1.2.3.3 1.5 1.3 1.5 3.2 0 2.8-2.4 6.1-7.4 9.6-12.8 9.2-17.7 4.8-18.2 4.2-.1-.1-.6-.5-1.2-1.1-.1.7 0 1.5.6 2.3 1 1.2 2.5 3 3.2 3.8 3.4-.8 5.8-1.3 6.1-1.4.2 0 4.5-.4 8.4 2.3 4.8 3.3 8.2 9.2 8.4 9.4.2.4.1.9-.3 1.1l-8.2 5.1c-.1.1-.3.1-.4.1h-.2c-.2-.1-.4-.2-.5-.4 0-.1-3.9-6.6-6.6-8.6-5.1-3.6-11.2-4.4-12.2-4.5-8.3 2.5-18.3 6.4-20.4 11.3-1.3 3.2-2.3 8.1-2.4 12 .3.3 1.5 1.2 5.3 2 3.9.8 11.8-.5 11.9-.5H232.6s.1 0 .1.1h.1v.1l.1.1.1.1v.2l1.8 4.8c7.5-2.2 16.8-6.5 29.2-13.3 13.4-7.4 19.7-13.7 18.8-18.8-.7-3.7-13.1-19.3-16.9-23.5-.8-.8-1.6-1-2.3-1 .2.1.2.1.1.1"/></defs><clipPath id="aa"><use xlink:href="#Z" overflow="visible"/></clipPath><linearGradient id="ab" gradientUnits="userSpaceOnUse" x1="-243.929" y1="464.646" x2="-242.986" y2="464.646" gradientTransform="scale(-67.6024 67.6024) rotate(72.322 191.775 398.207)"><stop offset="0" stop-color="#0075be"/><stop offset=".393" stop-color="#0075be"/><stop offset=".63" stop-color="#008ed4"/><stop offset=".822" stop-color="#009ee2"/><stop offset="1" stop-color="#009ee2"/></linearGradient><path clip-path="url(#aa)" fill="url(#ab)" d="M300.4 227.9l-22.7 71.3-78.9-25.1 22.7-71.4z"/></g><g><defs><path id="ac" d="M178.2 234.5c.1.3.4 1.1.1 2.2-.8 2.3-4 4.4-9.6 6.3-5.3 1.8-9 2.4-11.6 2.4-4.4 0-5.6-1.7-5.9-2.3-.1-.2-.4-.6-.9-1.1-.3.5-.6 1.2.1 2.3 1.1 1.8 1.7 2.9 2 3.5 5.3.1 9.2.4 9.7.5.1 0 3.1.6 6.2 3.8 4.4 4.5 4.5 10.4 4.5 10.6 0 .4-.3.7-.7.8l-9.5 1.7h-.1c-.4 0-.7-.2-.8-.6 0 0-1.2-4.7-4.1-9-2.6-4-8.9-6.1-9-6.1 0 0-.1 0-.1-.1-8.7.1-19.2 1-22.7 4.7-2.5 2.6-5 7.9-6.1 12.8.1.1.6.7 2.6 1.3 4.3 1.2 11.3 2.5 11.4 2.5h.2s.1 0 .1.1l.1.1.1.1v.2l.9 6.1c8.8-.6 19.7-2.8 28.5-4.6l2.5-.5c10.5-2.1 19.7-5 24.4-7.7 3.5-2 1.5-7.6-2.9-15.9-2.9-5.5-4-7.4-5.1-9.2-.5-.9-1.1-1.8-1.8-3.2-1-1.8-2-2.3-2.7-2.4.1.4.1.6.2.7"/></defs><clipPath id="ad"><use xlink:href="#ac" overflow="visible"/></clipPath><linearGradient id="ae" gradientUnits="userSpaceOnUse" x1="-244.033" y1="465.068" x2="-243.09" y2="465.068" gradientTransform="scale(-58.5815 58.5815) rotate(72.322 192.071 399.513)"><stop offset="0" stop-color="#0075be"/><stop offset=".393" stop-color="#0075be"/><stop offset=".63" stop-color="#008ed4"/><stop offset=".822" stop-color="#009ee2"/><stop offset="1" stop-color="#009ee2"/></linearGradient><path clip-path="url(#ad)" fill="url(#ae)" d="M206.6 238.1l-19.5 61-80.2-25.5 19.5-61.1z"/></g><g><defs><path id="af" d="M227.2 280.9c-.8 2.3-1 4.7-1.1 6.3l7.5-7.1-1.6-4.1c-1.3.9-4 2.9-4.8 4.9m-16.7-3c-1.4 2.8-1.6 4.8-1.7 5.4.3.5 1.5 1.9 4.8 3.2 2.8 1 8.7 1.6 10.9 1.7 0-1.5 0-4.7 1.2-7.8.6-1.7 2.2-3.2 3.6-4.4-1.6.2-3.6.3-5.5.3-1.3 0-2.6-.1-3.6-.3-3.5-.7-5.2-1.5-5.9-2.2-1 .8-3 2.6-3.8 4.1"/></defs><clipPath id="ag"><use xlink:href="#af" overflow="visible"/></clipPath><linearGradient id="ah" gradientUnits="userSpaceOnUse" x1="-247.626" y1="462.374" x2="-246.683" y2="462.374" gradientTransform="scale(-36.4977 36.4977) rotate(-6.687 -4017.99 -1827.869)"><stop offset="0" stop-color="#585857"/><stop offset=".193" stop-color="#7a7877"/><stop offset="1" stop-color="#d9d9d9"/></linearGradient><path clip-path="url(#ag)" fill="url(#ah)" d="M233.3 291l-26.1-3.1 2-16.9 26.1 3z"/></g><g><defs><path id="ai" d="M249.7 246.2c-.3.1-3.7.7-8.2 1.9 2.6.6 6.2 1.8 9.5 4.2 2.5 1.8 5.5 6.6 6.6 8.4l6.9-4.3c-1-1.6-3.9-5.8-7.5-8.2-2.7-1.8-5.6-2-6.8-2h-.5"/></defs><clipPath id="aj"><use xlink:href="#ai" overflow="visible"/></clipPath><linearGradient id="ak" gradientUnits="userSpaceOnUse" x1="-247.19" y1="460.088" x2="-246.247" y2="460.088" gradientTransform="scale(-33.5766 33.5766) rotate(-39.259 -761.457 -101.286)"><stop offset="0" stop-color="#585857"/><stop offset=".193" stop-color="#7a7877"/><stop offset="1" stop-color="#d9d9d9"/></linearGradient><path clip-path="url(#aj)" fill="url(#ak)" d="M255.3 272l-20.9-17.1 16.3-20 20.9 17.1z"/></g><g><defs><path id="al" d="M158.8 254.8c2.4 3.6 3.6 7.3 4.1 8.8l8.1-1.5c-.2-1.6-.8-5.7-4-8.8-2.6-2.6-5-3.2-5.3-3.3-.4 0-4.2-.3-9.3-.4 2.2 1 4.9 2.8 6.4 5.2"/></defs><clipPath id="am"><use xlink:href="#al" overflow="visible"/></clipPath><linearGradient id="an" gradientUnits="userSpaceOnUse" x1="-245.917" y1="460.205" x2="-244.974" y2="460.205" gradientTransform="scale(-46.0664 46.0664) rotate(-48.96 -623.704 -32.716)"><stop offset="0" stop-color="#585857"/><stop offset=".193" stop-color="#7a7877"/><stop offset="1" stop-color="#d9d9d9"/></linearGradient><path clip-path="url(#am)" fill="url(#an)" d="M160.4 272.8l-14.9-17.2 17.5-15.3 15 17.2z"/></g><g><defs><path id="ao" d="M125.4 276.3c-1.5 1.8-2.5 4.8-3.1 6.6l11.3-5-.8-5.4c-1.6.3-5.3 1.2-7.4 3.8m-12.4-4.7c-2.1 3-2.5 5.4-2.5 5.4v.1c0 .1.1 1 2.3 2.9 2.2 1.8 6 3 7.6 3.4.5-1.7 1.8-5.6 3.7-8.1 1.5-1.9 3.7-3 5.5-3.7-2.4-.5-5.5-1.2-7.9-1.8-1.9-.5-3-1.2-3.5-1.9-1.2.5-3.8 1.6-5.2 3.7"/></defs><clipPath id="ap"><use xlink:href="#ao" overflow="visible"/></clipPath><linearGradient id="aq" gradientUnits="userSpaceOnUse" x1="-246.113" y1="467.343" x2="-245.169" y2="467.343" gradientTransform="scale(-28.4976 28.4976) rotate(56.449 301.436 463.222)"><stop offset="0" stop-color="#585857"/><stop offset=".193" stop-color="#7a7877"/><stop offset="1" stop-color="#d9d9d9"/></linearGradient><path clip-path="url(#ap)" fill="url(#aq)" d="M140.7 272.6L126.5 294l-23.1-15.3 14.2-21.4z"/></g><g><defs><path id="ar" d="M196.2 108c-2.3 1.7-3.6 4.3-4 5.4l2.3 2.8c1.9-1.9 5.4-2.6 8.3-3.3.8-.2 1.5-.3 2.1-.5.4-.1 1-.2 1.6-.4l-3.9-6.2c-1.2.1-4.1.5-6.4 2.2"/></defs><clipPath id="as"><use xlink:href="#ar" overflow="visible"/></clipPath><linearGradient id="at" gradientUnits="userSpaceOnUse" x1="-245.275" y1="474.01" x2="-244.332" y2="474.01" gradientTransform="scale(-13.2037 13.2037) rotate(72.322 188.589 398.366)"><stop offset="0" stop-color="#c20a6c"/><stop offset=".472" stop-color="#e3097e"/><stop offset="1" stop-color="#e3097e"/></linearGradient><path clip-path="url(#as)" fill="url(#at)" d="M209.4 106.7l-4.3 13.5-15.9-5 4.3-13.5z"/></g><g><defs><path id="au" d="M46.6 100.7c-2.7.9-4.7 3.1-5.4 3.9l2.4 5.6c1.9-1.7 4.1-3.3 6.2-4.3 1.6-.8 3.1-1.3 4.5-1.5l-1-4c-.6-.1-1.7-.3-3.1-.3-1.1 0-2.4.2-3.6.6"/></defs><clipPath id="av"><use xlink:href="#au" overflow="visible"/></clipPath><linearGradient id="aw" gradientUnits="userSpaceOnUse" x1="-245.463" y1="474.761" x2="-244.52" y2="474.761" gradientTransform="scale(-13.178 13.178) rotate(72.322 195.045 406.496)"><stop offset="0" stop-color="#c20a6c"/><stop offset=".472" stop-color="#e3097e"/><stop offset="1" stop-color="#e3097e"/></linearGradient><path clip-path="url(#av)" fill="url(#aw)" d="M57.2 101.1L53.1 114l-14.9-4.7 4.2-13z"/></g><g><defs><path id="ax" d="M129.6 118.8c-.5.4-2.7 2.5-3.5 3.8-1.4 2.3-1.5 4.2-1.5 4.7.7.8 1.6 1.4 2.8 1.5 6.1.5 9.2-6.8 10.2-9.9.7-2.2 1.7-6.6 2.3-9.7-3.3 4-6.5 7.6-10.3 9.6"/></defs><clipPath id="ay"><use xlink:href="#ax" overflow="visible"/></clipPath><linearGradient id="az" gradientUnits="userSpaceOnUse" x1="-246.056" y1="468.07" x2="-245.113" y2="468.07" gradientTransform="scale(-25.6566 25.6566) rotate(56.929 301.939 458.238)"><stop offset="0" stop-color="#c20a6c"/><stop offset=".472" stop-color="#e3097e"/><stop offset="1" stop-color="#e3097e"/></linearGradient><path clip-path="url(#ay)" fill="url(#az)" d="M149.1 115.1l-13.7 21.1-20-12.9 13.8-21.1z"/></g><g><defs><path id="aA" d="M154.4 100.1H193v45.8h-38.6z"/></defs><clipPath id="aB"><use xlink:href="#aA" overflow="visible"/></clipPath><g clip-path="url(#aB)"><defs><path id="aC" d="M155.7 120.3s13.5-2.8 15.2 5.2c2.1 9.8-16.5 20.5-16.5 20.5s10.3-.8 20.4-11.1c8.9-9 18.2-34.8 18.2-34.8l-15.4 3.7s-9.4 8.8-12.8 11.3c-3.9 3-9.1 5.2-9.1 5.2"/></defs><clipPath id="aE"><use xlink:href="#aC" overflow="visible"/></clipPath><defs><filter id="aD" filterUnits="userSpaceOnUse" x="145.3" y="92.4" width="56.9" height="61.3"><feColorMatrix values="1 0 0 0 0 0 1 0 0 0 0 0 1 0 0 0 0 0 1 0"/></filter></defs><mask maskUnits="userSpaceOnUse" x="145.3" y="92.4" width="56.9" height="61.3" id="aG"><g filter="url(#aD)"><linearGradient id="aF" gradientUnits="userSpaceOnUse" x1="-249.933" y1="464.868" x2="-248.99" y2="464.868" gradientTransform="scale(-22.7296 22.7296) rotate(11.768 2100.26 1410.724)"><stop offset="0" stop-color="#fff"/><stop offset=".245" stop-color="#ddd"/><stop offset=".783" stop-color="#888"/><stop offset="1" stop-color="#636363"/></linearGradient><path clip-path="url(#aE)" fill="url(#aF)" d="M202.2 144l-46.2 9.7-10.7-51.7 46.1-9.6z"/></g></mask><linearGradient id="aH" gradientUnits="userSpaceOnUse" x1="-249.933" y1="464.868" x2="-248.99" y2="464.868" gradientTransform="scale(-22.7296 22.7296) rotate(11.768 2100.26 1410.724)"><stop offset="0" stop-color="#0075be"/><stop offset=".833" stop-color="#0097dc"/><stop offset="1" stop-color="#009ee2"/></linearGradient><path clip-path="url(#aE)" mask="url(#aG)" fill="url(#aH)" d="M202.2 144l-46.2 9.7-10.7-51.7 46.1-9.6z"/></g><defs><path id="aI" d="M175.9 28.6h36.3v34.6h-36.3z"/></defs><clipPath id="aJ"><use xlink:href="#aI" overflow="visible"/></clipPath><g clip-path="url(#aJ)"><defs><path id="aK" d="M180.8 41.4c1.7 1.8 12 12.3 11.9 14.4-.1 3.8 0 7.4 0 7.4s9.3-7.1 11.8-9.2c1.9-1.6 7.7-7.9 7.7-7.9s-2.1-3.4-6.5-7.2c-5.9-5.1-14.6-9.6-17.7-10.1-7.9-1.3-12.2 4.2-12.2 4.2l5 8.4z"/></defs><clipPath id="aM"><use xlink:href="#aK" overflow="visible"/></clipPath><defs><filter id="aL" filterUnits="userSpaceOnUse" x="175.9" y="27.5" width="36.3" height="35.7"><feColorMatrix values="1 0 0 0 0 0 1 0 0 0 0 0 1 0 0 0 0 0 1 0"/></filter></defs><mask maskUnits="userSpaceOnUse" x="175.9" y="27.5" width="36.3" height="35.7" id="aO"><g filter="url(#aL)"><linearGradient id="aN" gradientUnits="userSpaceOnUse" x1="-239.502" y1="461.799" x2="-238.559" y2="461.799" gradientTransform="matrix(38.5122 0 0 -38.5122 9399.606 17830.223)"><stop offset="0" stop-color="#fff"/><stop offset=".245" stop-color="#ddd"/><stop offset=".783" stop-color="#888"/><stop offset="1" stop-color="#636363"/></linearGradient><path clip-path="url(#aM)" fill="url(#aN)" d="M175.9 27.5h36.3v35.7h-36.3z"/></g></mask><linearGradient id="aP" gradientUnits="userSpaceOnUse" x1="-239.502" y1="461.799" x2="-238.559" y2="461.799" gradientTransform="matrix(38.5122 0 0 -38.5122 9399.606 17830.223)"><stop offset="0" stop-color="#0075be"/><stop offset=".833" stop-color="#0097dc"/><stop offset="1" stop-color="#009ee2"/></linearGradient><path clip-path="url(#aM)" mask="url(#aO)" fill="url(#aP)" d="M175.9 27.5h36.3v35.7h-36.3z"/></g><defs><path id="aQ" d="M176.5 53.1h75.3v51.1h-75.3z"/></defs><clipPath id="aR"><use xlink:href="#aQ" overflow="visible"/></clipPath><g clip-path="url(#aR)"><defs><path id="aS" d="M192.7 63.2s-1.9 12.6-3.9 17.1c-7.3 17-12.3 23.9-12.3 23.9s9.2-2 15.3-3.4c7.6-1.7 21-.7 30.3-2.6 14.1-2.8 29.6-12.8 29.6-12.8s-8.1-21.6-11.6-26.3c-11.8-15.6-47.4 4.1-47.4 4.1"/></defs><clipPath id="aU"><use xlink:href="#aS" overflow="visible"/></clipPath><defs><filter id="aT" filterUnits="userSpaceOnUse" x="176.5" y="43.5" width="75.3" height="60.7"><feColorMatrix values="1 0 0 0 0 0 1 0 0 0 0 0 1 0 0 0 0 0 1 0"/></filter></defs><mask maskUnits="userSpaceOnUse" x="176.5" y="43.5" width="75.3" height="60.7" id="aW"><g filter="url(#aT)"><linearGradient id="aV" gradientUnits="userSpaceOnUse" x1="-241.572" y1="462.24" x2="-240.629" y2="462.24" gradientTransform="matrix(79.8428 0 0 -79.8428 19464.27 36980.328)"><stop offset="0" stop-color="#fff"/><stop offset=".245" stop-color="#ddd"/><stop offset=".783" stop-color="#888"/><stop offset="1" stop-color="#636363"/></linearGradient><path clip-path="url(#aU)" fill="url(#aV)" d="M176.5 43.5h75.3v60.7h-75.3z"/></g></mask><linearGradient id="aX" gradientUnits="userSpaceOnUse" x1="-241.572" y1="462.24" x2="-240.629" y2="462.24" gradientTransform="matrix(79.8428 0 0 -79.8428 19464.27 36980.328)"><stop offset="0" stop-color="#0075be"/><stop offset=".833" stop-color="#0097dc"/><stop offset="1" stop-color="#009ee2"/></linearGradient><path clip-path="url(#aU)" mask="url(#aW)" fill="url(#aX)" d="M176.5 43.5h75.3v60.7h-75.3z"/></g><defs><path id="aY" d="M119.4 10.5h13.3V36h-13.3z"/></defs><clipPath id="aZ"><use xlink:href="#aY" overflow="visible"/></clipPath><path clip-path="url(#aZ)" fill="#EDEDED" d="M119.4 10.5l4.2 25.5 9-4.1s-3.6-5.8-4.7-7.3c-1.4-2-8.5-14.1-8.5-14.1"/><defs><path id="ba" d="M110 100.2h32.9v19.7H110z"/></defs><clipPath id="bb"><use xlink:href="#ba" overflow="visible"/></clipPath><g clip-path="url(#bb)"><defs><path id="bc" d="M124.1 100.2s1.4 8.9 8.1 8.6c2.6-.1 7.1-2.9 10.2-5 1.9-1.3-4.2 7.3-5.9 8.9-2.4 2.4-8.4 6.3-11.7 7.1-2.8.7-9.9-.8-12.4-2.2-.8-.5-2.6-4.2-2.6-4.2s10.9-2.7 12.9-5.6c1.2-1.6 1.4-7.6 1.4-7.6"/></defs><clipPath id="bd"><use xlink:href="#bc" overflow="visible"/></clipPath><linearGradient id="be" gradientUnits="userSpaceOnUse" x1="-239.495" y1="459.62" x2="-238.552" y2="459.62" gradientTransform="scale(32.5435 -32.5435) rotate(26.99 847.189 733.898)"><stop offset="0" stop-color="#fff"/><stop offset=".356" stop-color="#fff"/><stop offset=".629" stop-color="#f6f6f6"/><stop offset="1" stop-color="#e3e3e2"/></linearGradient><path clip-path="url(#bd)" fill="url(#be)" d="M101.8 104.3l35.5-18.1 15.3 30-35.5 18.1z"/></g><defs><path id="bf" d="M145.3 12.9h47.4v110.8h-47.4z"/></defs><clipPath id="bg"><use xlink:href="#bf" overflow="visible"/></clipPath><path clip-path="url(#bg)" fill="#EDEDED" d="M192.5 53.7l-11.3-11.5c-2-3.7-4-7.2-5.4-9.3-3.4-5.4-17.9-20.1-17.9-20.1s7.6 11.5 10.4 19.8c1.4 4.3 5.7 30.2 5.7 30.2s3.5 0 6.3-.5c7.7 9 2.2 19.8-3.5 29.8-4.8 8.4-19.4 22.2-22.5 24.5-2.9 2.3-7.6 3.7-7.6 3.7l-1.4 3.3s25-3.8 37.4-29.5c3.2-6.7 8.3-20.4 9.8-27.7.5-3 0-12.7 0-12.7"/><defs><path id="bh" d="M119.4 10.5h13.3V36h-13.3z"/></defs><clipPath id="bi"><use xlink:href="#bh" overflow="visible"/></clipPath><path clip-path="url(#bi)" fill="#EDEDED" d="M119.4 10.5l4.2 25.5 9-4.1s-3.6-5.8-4.7-7.3c-1.4-2-8.5-14.1-8.5-14.1"/><defs><path id="bj" d="M101 109.5h10.4v8.6H101z"/></defs><clipPath id="bk"><use xlink:href="#bj" overflow="visible"/></clipPath><path clip-path="url(#bk)" fill="#EDEDED" d="M108.7 113.6l-7.7-4.2s1.7 3.2 2.4 4.3c.9 1.4 2.4 3.2 5.3 4 .6.2 2.6.3 2.6.3l-2.6-4.4z"/><defs><path id="bl" d="M144.6 93.2h124.6v143.4H144.6z"/></defs><clipPath id="bm"><use xlink:href="#bl" overflow="visible"/></clipPath><path clip-path="url(#bm)" fill="#EDEDED" d="M144.6 146s19.1 4.9 33.5 4.2c6.8-.3 14.5-2.1 14.5-2.1s13 17.4 18.9 22c3.9 3 16.2 8.1 19.2 12 4.3 5.6 4 20.8 6.3 27.5 5.7 16.9 20.4 27 20.4 27s3.7-2.6 4.6-3.6c4-4.2 3.3-7.4 3.3-7.4s-15.6-15.5-18.8-22.3c-3.7-7.9-7.9-32.5-7.9-32.5l-7.9-10.7s-3.2.2-4.4.1c-2.9-.1-4.3-1.7-4.3-1.7s-4.3 4.6-6.4 4.6c-4.8-.1-10.7-4.5-13.4-8.5-1.2-1.7-2.7-6.6-2.7-6.6s-7.9-4.5-10-10.4c-1.8-4.9 3.3-8.9 3.3-8.9s-.4-5 0-6.5c.7-2.4 1.5-4.8 1.5-4.8L191 113s1.8-3.8 4.3-5.8c3.4-2.7 7.8-2.2 7.8-2.2l4.7 7.4s7.8-8.6 11.9-7.8c4.5.9 7.5 2 9.7 3.5 1.5 1 5.3 4.5 5.3 4.5l2.8-5.7s19.7-4.2 17.5 20.2c-.6 7.2 0 14.5-10.2 24.6-4.4 4.4-8.6 7-8.6 7s19.3-8 29.6-27.6c1.7-3.3 4.7-13.6 2.2-18-4-6.9-31.2-19.8-31.2-19.8s-13.4 6-17.9 6c-16.3.1-26.5 2.1-26.5 2.1s-1.6 5.3-4.5 11.1c-3.1 6.4-6.7 14.2-11.8 20.5-12.8 16.4-31.5 13-31.5 13"/><defs><path id="bn" d="M204.5 147h10.6v8.5h-10.6z"/></defs><clipPath id="bo"><use xlink:href="#bn" overflow="visible"/></clipPath><path clip-path="url(#bo)" fill="#EDEDED" d="M215 154.1s-3.6-2.5-4.6-3.4c-1-.9-3.4-3.7-3.4-3.7l-2.4 1.1s-1.2 4.7 5.2 7.1c3 1 5.2-1.1 5.2-1.1"/><defs><path id="bp" d="M223.5 157h7.3v3.3h-7.3z"/></defs><clipPath id="bq"><use xlink:href="#bp" overflow="visible"/></clipPath><path clip-path="url(#bq)" fill="#EDEDED" d="M228.7 157l-5.2 1.5s2.1 1.4 2.9 1.7c1.1.3 4.4-.1 4.4-.1l-2.1-3.1z"/><defs><path id="br" d="M193 116.6h42.1v41.2H193z"/></defs><clipPath id="bs"><use xlink:href="#br" overflow="visible"/></clipPath><path clip-path="url(#bs)" fill="#EDEDED" d="M195 116.6s-1.1 4.8 2.6 9.5c2.5 3.2 8.4 2.7 8.4 2.7s-4.3 2.3.5 9.4c1.3 1.9 8.1 4.6 8.1 4.6s-3.3 2 2.3 6.6c3.5 3 18.3 5.3 18.3 5.3s-7.5 3.6-12.9 3.1c-6.9-.7-9.6-4.9-13.4-8.7-.5-.5-1.9-2.1-1.9-2.1l-4.8 2.1s1.2-2.4-3.5-6.6c-1.1-.9-4.1-1.9-4.8-3.2-.5-1 0-4.6 0-4.6s-.8-4.8-.9-6.4c-.4-7.6 2-11.7 2-11.7"/><defs><path id="bt" d="M228.9 155.1h16.6v25.1h-16.6z"/></defs><clipPath id="bu"><use xlink:href="#bt" overflow="visible"/></clipPath><path clip-path="url(#bu)" fill="#EDEDED" d="M234.1 155.1l-5.2 1.8 16.6 23.3-1.5-10.7z"/><defs><path id="bv" d="M228.3 115.5h11.8v26.7h-11.8z"/></defs><clipPath id="bw"><use xlink:href="#bv" overflow="visible"/></clipPath><path clip-path="url(#bw)" fill="#EDEDED" d="M228.3 116.9s4.4 7 6.1 11.4c1.3 3.3 5.2 13.9 5.2 13.9s1.2-14.1-.4-18.6c-4.4-12.6-10.9-6.7-10.9-6.7"/><g><defs><path id="bx" d="M90.5 126.5h41.8v44.8H90.5z"/></defs><clipPath id="by"><use xlink:href="#bx" overflow="visible"/></clipPath><path clip-path="url(#by)" fill="#EDEDED" d="M119.6 143.8c1.9 2 3.3 6.3 2.6 9-1.3 4.8-5.9 11.1-14.4 13.8-3.8 1.2-17.3 0-17.3 0s19 6 24.7 4.3c4.6-1.4 8.4-5.8 11.2-8.7 1.6-1.6 5.9-7.2 5.9-7.2s-5.9-8.5-7.6-11.5c-.9-1.6-3.4-6.4-3.4-6.4s-4.7-4.2-6.1-5.7c-1.1-1.2-3.9-5-3.9-5s-.9 4.9-1.4 6.5c-.4 1.5-2.2 5.9-2.2 5.9s9.9 2.9 11.9 5"/></g><g><defs><path id="bz" d="M53 117.5h19.7v15.2H53z"/></defs><clipPath id="bA"><use xlink:href="#bz" overflow="visible"/></clipPath><path clip-path="url(#bA)" fill="#EDEDED" d="M53 126.5s4.6 0 7.1-.9c2.6-1 7.7-8.1 7.7-8.1s4.8 2.1 5 4.4c.1 2.1-2.1 5.3-3.1 7.3-.4.8-.6 3.5-.6 3.5l-4.8-2.6.3-2.2s-3.8.9-5.1.9c-4.5-.3-6.5-2.3-6.5-2.3"/></g><g><defs><path id="bB" d="M86.2 134.9h18.6V148H86.2z"/></defs><clipPath id="bC"><use xlink:href="#bB" overflow="visible"/></clipPath><path clip-path="url(#bC)" fill="#EDEDED" d="M104.7 138.1s-1.4 7.3-3.3 8.5c-6 3.7-15.3-1.3-15.3-1.3s10 1.3 12.1-.9c3.1-3.1.8-9.5.8-9.5l5.7 3.2z"/></g><g><defs><path id="bD" d="M67.1 139.4h11.2v19.9H67.1z"/></defs><clipPath id="bE"><use xlink:href="#bD" overflow="visible"/></clipPath><path clip-path="url(#bE)" fill="#EDEDED" d="M70.1 139.4l3.8 2.2s5.2 6.5 4.2 9.6c-1.6 5.2-6.5 8.1-6.5 8.1h-2l-2.6-7.1s4.1-.3 4.6-1.7c1.4-3.5-1.5-11.1-1.5-11.1"/></g><g><defs><path id="bF" d="M37.7 110.8h26.1v47.8H37.7z"/></defs><clipPath id="bG"><use xlink:href="#bF" overflow="visible"/></clipPath><path clip-path="url(#bG)" fill="#EDEDED" d="M44 110.8s-2.8 5.3-1.3 11.7c.4 1.6 4 4 4 4s-2.4 3.5-1.3 9.1c1.1 5.4 3.7 7.2 3.7 7.2s2 4.5 2.8 6.1c1.2 2.3 4.8 4.4 4.8 4.4l5.1-.5 2 5.9s-8.5-.3-15.3-9.4c-4.6-6.1-7.3-16.9-7.3-16.9s-3.5-7.4-3.5-12.5c0-3.3 6.3-9.1 6.3-9.1"/></g><g><defs><path id="bH" d="M239 172.4h19v25.5h-19z"/></defs><clipPath id="bI"><use xlink:href="#bH" overflow="visible"/></clipPath><path clip-path="url(#bI)" fill="#EDEDED" d="M239 172.4l4.8 22.5s5.6 1.7 7.5 2.3c3.9 1.3 6.6 0 6.6 0L239 172.4z"/></g><g><defs><path id="bJ" d="M243.3 148h31.6v48.9h-31.6z"/></defs><clipPath id="bK"><use xlink:href="#bJ" overflow="visible"/></clipPath><path clip-path="url(#bK)" fill="#EDEDED" d="M263.7 196.9s1.8-.4 5.5-2.8c3-1.9 5.7-5 5.7-5s-5.6 1.9-7.4 2c-3.8.1-5.9-.7-5.9-.7s5.7-5.6 6.6-13.2c1-8.1-1.6-14.4-1.6-14.4l-2.9 5.5s.7-10.6-2-15.5c-3.1-5.6-8.9-4.7-8.9-4.7s-1.9 1.9-3.3 3.1c-3.4 2.9-6.3 3.8-6.3 3.8s3.7 1 4.5 7.3c.7 5.7-3.7 7.2-3.7 7.2l19.7 27.4z"/></g><g><defs><path id="bL" d="M162.9 182.7H204v59.8h-41.1z"/></defs><clipPath id="bM"><use xlink:href="#bL" overflow="visible"/></clipPath><path clip-path="url(#bM)" fill="#EDEDED" d="M176.5 182.7s14.5 7.3 18.6 9.7c2.7 1.5 9 6.1 9 6.1s-4.8-1.7-17.3 7.8c-3.5 2.7-12.1 9.5-13 13.8-.8 3.8 3.8 15.3 3.8 15.3s-.4 3-5.3 5.4c-1.6.8-4.5 1.7-4.5 1.7s-5.9-10.9-4.6-18.7c3.5-20.7 13.3-41.1 13.3-41.1"/></g><g><defs><path id="bN" d="M311.6 269.9h7.6v4.8h-7.6z"/></defs><clipPath id="bO"><use xlink:href="#bN" overflow="visible"/></clipPath><path clip-path="url(#bO)" fill="#EDEDED" d="M311.6 270.3l4.9-.4 2.7 4.8-4.6-.2z"/></g><g><defs><path id="bP" d="M96.3 251.7h6v6.1h-6z"/></defs><clipPath id="bQ"><use xlink:href="#bP" overflow="visible"/></clipPath><path clip-path="url(#bQ)" fill="#EDEDED" d="M96.3 251.7l4.4 1.2 1.5 4.9-4.6-2z"/></g><g><defs><path id="bR" d="M61.9 152.8h13.5v39.1H61.9z"/></defs><clipPath id="bS"><use xlink:href="#bR" overflow="visible"/></clipPath><path clip-path="url(#bS)" fill="#EDEDED" d="M61.9 153.3l5.4-.5 7.1 21.6 1 17.5z"/></g><g><defs><path id="bT" d="M46 99.2h9.4v9H46z"/></defs><clipPath id="bU"><use xlink:href="#bT" overflow="visible"/></clipPath><g clip-path="url(#bU)"><defs><path id="bV" d="M46 100.1s1.6-.9 4.7-.9c2.3 0 3.6.4 3.6.4l1.1 5.5s-2.6.2-3.5.5c-2 .7-4.2 2.5-4.2 2.5l-1.7-8z"/></defs><clipPath id="bX"><use xlink:href="#bV" overflow="visible"/></clipPath><defs><filter id="bW" filterUnits="userSpaceOnUse" x="42.2" y="95.2" width="17.1" height="17.1"><feColorMatrix values="1 0 0 0 0 0 1 0 0 0 0 0 1 0 0 0 0 0 1 0"/></filter></defs><mask maskUnits="userSpaceOnUse" x="42.2" y="95.2" width="17.1" height="17.1" id="bZ"><g filter="url(#bW)"><linearGradient id="bY" gradientUnits="userSpaceOnUse" x1="-254.328" y1="471.042" x2="-253.385" y2="471.042" gradientTransform="scale(-11.866 11.866) rotate(29.447 750.564 714.755)"><stop offset="0"/><stop offset="1" stop-color="#fff"/></linearGradient><path clip-path="url(#bX)" fill="url(#bY)" d="M59.3 106l-11 6.2-6.1-10.8 10.9-6.2z"/></g></mask><linearGradient id="ca" gradientUnits="userSpaceOnUse" x1="-254.328" y1="471.042" x2="-253.385" y2="471.042" gradientTransform="scale(-11.866 11.866) rotate(29.447 750.564 714.755)"><stop offset="0" stop-color="#b20a63"/><stop offset="1" stop-color="#c7006d"/></linearGradient><path clip-path="url(#bX)" mask="url(#bZ)" fill="url(#ca)" d="M59.3 106l-11 6.2-6.1-10.8 10.9-6.2z"/></g></g><g><defs><path id="cb" d="M65.1 130.6h21.7v15.1H65.1z"/></defs><clipPath id="cc"><use xlink:href="#cb" overflow="visible"/></clipPath><g clip-path="url(#cc)"><defs><path id="cd" d="M65.1 130.6s3.2 2 6.5 3.2c2.2.8 6.2 1.7 6.2 1.7s1 2.8 4.3 5.9c2.3 2.2 4.7 4.2 4.7 4.2s-9.2-1.9-13.5-4.4c-1.8-1.1-5.7-3.3-6.9-5.1-.7-1.1-1.3-5.5-1.3-5.5"/></defs><clipPath id="cf"><use xlink:href="#cd" overflow="visible"/></clipPath><defs><filter id="ce" filterUnits="userSpaceOnUse" x="59.3" y="122.2" width="33.4" height="31.9"><feColorMatrix values="1 0 0 0 0 0 1 0 0 0 0 0 1 0 0 0 0 0 1 0"/></filter></defs><mask maskUnits="userSpaceOnUse" x="59.3" y="122.2" width="33.4" height="31.9" id="ch"><g filter="url(#ce)"><linearGradient id="cg" gradientUnits="userSpaceOnUse" x1="-236.641" y1="464.689" x2="-235.697" y2="464.689" gradientTransform="matrix(20.3335 9.6665 9.6665 -20.3335 388.54 11870.923)"><stop offset="0"/><stop offset="1" stop-color="#fff"/></linearGradient><path clip-path="url(#cf)" fill="url(#cg)" d="M69.2 122.2l23.5 11.2-9.8 20.7-23.6-11.2z"/></g></mask><linearGradient id="ci" gradientUnits="userSpaceOnUse" x1="-236.641" y1="464.689" x2="-235.697" y2="464.689" gradientTransform="matrix(20.3335 9.6665 9.6665 -20.3335 388.54 11870.92)"><stop offset="0" stop-color="#b20a63"/><stop offset="1" stop-color="#c7006d"/></linearGradient><path clip-path="url(#cf)" mask="url(#ch)" fill="url(#ci)" d="M69.2 122.2l23.5 11.2-9.8 20.7-23.6-11.2z"/></g></g><g><defs><path id="cj" d="M98.6 242.4h14.5v6.7H98.6z"/></defs><clipPath id="ck"><use xlink:href="#cj" overflow="visible"/></clipPath><g clip-path="url(#ck)"><defs><path id="cl" d="M98.6 246.6l1 2.5s3.2-2.1 7-2.7c4.6-.7 6.4.2 6.4.2s.6-2.9-3.2-4.1c-2.7-.9-11.2 4.1-11.2 4.1"/></defs><clipPath id="cn"><use xlink:href="#cl" overflow="visible"/></clipPath><defs><filter id="cm" filterUnits="userSpaceOnUse" x="95.7" y="235.8" width="20.9" height="19.2"><feColorMatrix values="1 0 0 0 0 0 1 0 0 0 0 0 1 0 0 0 0 0 1 0"/></filter></defs><mask maskUnits="userSpaceOnUse" x="95.7" y="235.8" width="20.9" height="19.2" id="cp"><g filter="url(#cm)"><linearGradient id="co" gradientUnits="userSpaceOnUse" x1="-230.182" y1="467.385" x2="-229.239" y2="467.385" gradientTransform="matrix(10.1553 4.8278 4.8278 -10.1553 183.841 6101.45)"><stop offset="0"/><stop offset="1" stop-color="#fff"/></linearGradient><path clip-path="url(#cn)" fill="url(#co)" d="M101.4 235.8l15.2 7.2-5.7 12-15.2-7.2z"/></g></mask><linearGradient id="cq" gradientUnits="userSpaceOnUse" x1="-230.182" y1="467.385" x2="-229.239" y2="467.385" gradientTransform="matrix(10.1553 4.8278 4.8278 -10.1553 183.84 6101.451)"><stop offset="0" stop-color="#b20a63"/><stop offset="1" stop-color="#c7006d"/></linearGradient><path clip-path="url(#cn)" mask="url(#cp)" fill="url(#cq)" d="M101.4 235.8l15.2 7.2-5.7 12-15.2-7.2z"/></g></g><g><defs><path id="cr" d="M312.4 257.4h13.5v9.7h-13.5z"/></defs><clipPath id="cs"><use xlink:href="#cr" overflow="visible"/></clipPath><g clip-path="url(#cs)"><defs><path id="ct" d="M312.4 265l1.7 2.1s4.9-4.1 6.6-5.2c2.8-1.7 5.1-1.3 5.1-1.3s-1.1-3.3-4.7-3.3c-2.9.1-8.7 7.7-8.7 7.7"/></defs><clipPath id="cv"><use xlink:href="#ct" overflow="visible"/></clipPath><defs><filter id="cu" filterUnits="userSpaceOnUse" x="308.6" y="252.2" width="21" height="20.2"><feColorMatrix values="1 0 0 0 0 0 1 0 0 0 0 0 1 0 0 0 0 0 1 0"/></filter></defs><mask maskUnits="userSpaceOnUse" x="308.6" y="252.2" width="21" height="20.2" id="cx"><g filter="url(#cu)"><linearGradient id="cw" gradientUnits="userSpaceOnUse" x1="-227.961" y1="468.112" x2="-227.018" y2="468.112" gradientTransform="matrix(8.0003 3.8033 3.8033 -8.0003 359.88 4873.023)"><stop offset="0"/><stop offset="1" stop-color="#fff"/></linearGradient><path clip-path="url(#cv)" fill="url(#cw)" d="M314.9 252.2l14.7 7-6.2 13.1-14.8-7z"/></g></mask><linearGradient id="cy" gradientUnits="userSpaceOnUse" x1="-227.961" y1="468.112" x2="-227.018" y2="468.112" gradientTransform="matrix(8.0003 3.8033 3.8033 -8.0003 359.88 4873.023)"><stop offset="0" stop-color="#b20a63"/><stop offset="1" stop-color="#c7006d"/></linearGradient><path clip-path="url(#cv)" mask="url(#cx)" fill="url(#cy)" d="M314.9 252.2l14.7 7-6.2 13.1-14.8-7z"/></g></g><g><defs><path id="cz" d="M195.6 105h12.2v9.7h-12.2z"/></defs><clipPath id="cA"><use xlink:href="#cz" overflow="visible"/></clipPath><g clip-path="url(#cA)"><defs><path id="cB" d="M199.3 114.7l-3.7-7.4s1.4-1.5 4.1-1.9c2-.3 3.2-.3 3.2-.3l4.9 7.8-8.5 1.8z"/></defs><clipPath id="cD"><use xlink:href="#cB" overflow="visible"/></clipPath><defs><filter id="cC" filterUnits="userSpaceOnUse" x="195.2" y="104.6" width="12.9" height="10.5"><feColorMatrix values="1 0 0 0 0 0 1 0 0 0 0 0 1 0 0 0 0 0 1 0"/></filter></defs><mask maskUnits="userSpaceOnUse" x="195.2" y="104.6" width="12.9" height="10.5" id="cF"><g filter="url(#cC)"><linearGradient id="cE" gradientUnits="userSpaceOnUse" x1="-260.133" y1="465.724" x2="-259.19" y2="465.724" gradientTransform="scale(-9.09 9.09) rotate(2.103 12219.434 6709.939)"><stop offset="0"/><stop offset="1" stop-color="#fff"/></linearGradient><path clip-path="url(#cD)" fill="url(#cE)" d="M208.1 114.7l-12.5.4-.4-10.1 12.5-.4z"/></g></mask><linearGradient id="cG" gradientUnits="userSpaceOnUse" x1="-260.133" y1="465.724" x2="-259.19" y2="465.724" gradientTransform="scale(-9.09 9.09) rotate(2.103 12219.434 6709.939)"><stop offset="0" stop-color="#b20a63"/><stop offset="1" stop-color="#c7006d"/></linearGradient><path clip-path="url(#cD)" mask="url(#cF)" fill="url(#cG)" d="M208.1 114.7l-12.5.4-.4-10.1 12.5-.4z"/></g></g><g><defs><path id="cH" d="M199.4 147.9h15.1V159h-15.1z"/></defs><clipPath id="cI"><use xlink:href="#cH" overflow="visible"/></clipPath><g clip-path="url(#cI)"><defs><path id="cJ" d="M199.4 147.9s2.3 1.2 3.2 1.2c.4 0 1.6-.4 1.6-.4s2.5 4.7 3.9 5.7c3.6 2.7 6.5.1 6.5.1s-2 3.8-3.2 4.2c-1.9.7-5.4.3-7.9-2.2-1.8-1.6-4.1-8.6-4.1-8.6"/></defs><clipPath id="cL"><use xlink:href="#cJ" overflow="visible"/></clipPath><defs><filter id="cK" filterUnits="userSpaceOnUse" x="194.3" y="141.2" width="25.3" height="24.9"><feColorMatrix values="1 0 0 0 0 0 1 0 0 0 0 0 1 0 0 0 0 0 1 0"/></filter></defs><mask maskUnits="userSpaceOnUse" x="194.3" y="141.2" width="25.3" height="24.9" id="cN"><g filter="url(#cK)"><linearGradient id="cM" gradientUnits="userSpaceOnUse" x1="-235.084" y1="466.219" x2="-234.141" y2="466.219" gradientTransform="scale(16.765 -16.765) rotate(-31.551 -952.483 -208.572)"><stop offset="0"/><stop offset="1" stop-color="#fff"/></linearGradient><path clip-path="url(#cL)" fill="url(#cM)" d="M203.5 141.2l16.1 9.8-9.2 15.1-16.1-9.9z"/></g></mask><linearGradient id="cO" gradientUnits="userSpaceOnUse" x1="-235.084" y1="466.219" x2="-234.141" y2="466.219" gradientTransform="scale(16.765 -16.765) rotate(-31.551 -952.483 -208.572)"><stop offset="0" stop-color="#b20a63"/><stop offset="1" stop-color="#c7006d"/></linearGradient><path clip-path="url(#cL)" mask="url(#cN)" fill="url(#cO)" d="M203.5 141.2l16.1 9.8-9.2 15.1-16.1-9.9z"/></g></g><g><defs><path id="cP" d="M124.2 233.2h69.2v45.4h-69.2z"/></defs><clipPath id="cQ"><use xlink:href="#cP" overflow="visible"/></clipPath><g clip-path="url(#cQ)"><defs><path id="cR" d="M157.8 244.7s8.9-1.6 11.7-2.8c2.3-1 7-3.4 7.8-5.8.3-.8-.6-2.9-.6-2.9s2.1-.2 2.8.3c2.1 1.5 6.1 10.6 10.1 17.4 1.6 2.7 4.9 9.4 3.4 12.2-2.9 5.4-19.6 8.3-26.5 10.1-7.8 2.1-31.8 5.3-31.8 5.3l-1.2-6.8-9.4-2.3s20.5 1 28.8-4.4c2.1-1.3 6.4-7.4 6.4-7.4l2.9 6.8 9.6-2.1s-1.5-7.7-5.6-10.8c-3.7-2.8-6.9-2.6-6.9-2.6l-1.5-4.2z"/></defs><clipPath id="cT"><use xlink:href="#cR" overflow="visible"/></clipPath><defs><filter id="cS" filterUnits="userSpaceOnUse" x="103.8" y="201.6" width="111" height="108.3"><feColorMatrix values="1 0 0 0 0 0 1 0 0 0 0 0 1 0 0 0 0 0 1 0"/></filter></defs><mask maskUnits="userSpaceOnUse" x="103.8" y="201.6" width="111" height="108.3" id="cV"><g filter="url(#cS)"><linearGradient id="cU" gradientUnits="userSpaceOnUse" x1="-241.01" y1="463.735" x2="-240.067" y2="463.735" gradientTransform="scale(56.5715 -56.5715) rotate(-31.551 -947.686 -201.402)"><stop offset="0" stop-color="#fff"/><stop offset=".245" stop-color="#ddd"/><stop offset=".783" stop-color="#888"/><stop offset="1" stop-color="#636363"/></linearGradient><path clip-path="url(#cT)" fill="url(#cU)" d="M143.4 201.6l71.4 43.9-39.5 64.4-71.5-43.8z"/></g></mask><linearGradient id="cW" gradientUnits="userSpaceOnUse" x1="-241.01" y1="463.735" x2="-240.067" y2="463.735" gradientTransform="scale(56.5715 -56.5715) rotate(-31.551 -947.686 -201.402)"><stop offset="0" stop-color="#0075be"/><stop offset=".833" stop-color="#0097dc"/><stop offset="1" stop-color="#009ee2"/></linearGradient><path clip-path="url(#cT)" mask="url(#cV)" fill="url(#cW)" d="M143.4 201.6l71.4 43.9-39.5 64.4-71.5-43.8z"/></g></g><g><defs><path id="cX" d="M1.6 259.1h216v38.2H1.6z"/></defs><clipPath id="cY"><use xlink:href="#cX" overflow="visible"/></clipPath><g clip-path="url(#cY)"><defs><path id="cZ" d="M3 278.7s-3.2 1.4 0 5.8c1.7 2.3 4.6 12.2 37.3 12.9 42.6.9 109.3-12.6 118.8-14.4 13.4-2.5 55.1-12 55.1-12s.3-5.4.8-7.1c.6-2.2 2.4-4.7 2.4-4.7l-24.9 4.5s-1.9 3.1-15.2 7c-10.5 3.1-42.7 8-42.7 8l-13.5 5.7s-56.6 12.3-92.8 9c-20-2-25.3-14.7-25.3-14.7"/></defs><clipPath id="db"><use xlink:href="#cZ" overflow="visible"/></clipPath><defs><filter id="da" filterUnits="userSpaceOnUse" x="-8.5" y="213.2" width="234.3" height="130.9"><feColorMatrix values="1 0 0 0 0 0 1 0 0 0 0 0 1 0 0 0 0 0 1 0"/></filter></defs><mask maskUnits="userSpaceOnUse" x="-8.5" y="213.2" width="234.3" height="130.9" id="dd"><g filter="url(#da)"><linearGradient id="dc" gradientUnits="userSpaceOnUse" x1="-244.055" y1="462.699" x2="-243.112" y2="462.699" gradientTransform="scale(-257.9826 257.9826) rotate(12.476 1989.577 1343.943)"><stop offset="0"/><stop offset="1" stop-color="#fff"/></linearGradient><path clip-path="url(#db)" fill="url(#dc)" d="M225.8 296.4L10 344.1l-18.5-83.2 215.9-47.7z"/></g></mask><linearGradient id="de" gradientUnits="userSpaceOnUse" x1="-244.055" y1="462.699" x2="-243.112" y2="462.699" gradientTransform="scale(-257.9826 257.9826) rotate(12.476 1989.577 1343.943)"><stop offset="0" stop-color="#b20a63"/><stop offset="1" stop-color="#c7006d"/></linearGradient><path clip-path="url(#db)" mask="url(#dd)" fill="url(#de)" d="M225.8 296.4L10 344.1l-18.5-83.2 215.9-47.7z"/></g></g><g><defs><path id="df" d="M90.8 248.2h210.9v81.4H90.8z"/></defs><clipPath id="dg"><use xlink:href="#df" overflow="visible"/></clipPath><g clip-path="url(#dg)"><defs><path id="dh" d="M282.7 254l12.5-5.8 6.5 9.2s-36.5 18.5-48.7 24.5c-2.4 1.2-82 39-112.8 45.3-47.1 9.7-49.4-14.2-49.4-14.2s11.4 13.9 34.2 11.4c37.8-4.1 99.5-34.8 99.5-34.8L235 281s16.4-7.4 26.5-12.7c14.9-8.1 21.2-14.3 21.2-14.3"/></defs><clipPath id="dj"><use xlink:href="#dh" overflow="visible"/></clipPath><defs><filter id="di" filterUnits="userSpaceOnUse" x="72.1" y="203.7" width="248.3" height="177.7"><feColorMatrix values="1 0 0 0 0 0 1 0 0 0 0 0 1 0 0 0 0 0 1 0"/></filter></defs><mask maskUnits="userSpaceOnUse" x="72.1" y="203.7" width="248.3" height="177.7" id="dl"><g filter="url(#di)"><linearGradient id="dk" gradientUnits="userSpaceOnUse" x1="-244.03" y1="462.674" x2="-243.087" y2="462.674" gradientTransform="scale(-260.713 260.713) rotate(12.476 1989.12 1342.343)"><stop offset="0"/><stop offset="1" stop-color="#fff"/></linearGradient><path clip-path="url(#dj)" fill="url(#dk)" d="M320.4 332.8l-219.7 48.6-28.6-129.1 219.7-48.6z"/></g></mask><linearGradient id="dm" gradientUnits="userSpaceOnUse" x1="-244.03" y1="462.674" x2="-243.087" y2="462.674" gradientTransform="scale(-260.713 260.713) rotate(12.476 1989.12 1342.343)"><stop offset="0" stop-color="#b20a63"/><stop offset="1" stop-color="#c7006d"/></linearGradient><path clip-path="url(#dj)" mask="url(#dl)" fill="url(#dm)" d="M320.4 332.8l-219.7 48.6-28.6-129.1 219.7-48.6z"/></g></g><g><defs><path id="dn" d="M299.2 226.3h52.3v29.1h-52.3z"/></defs><clipPath id="do"><use xlink:href="#dn" overflow="visible"/></clipPath><g clip-path="url(#do)"><defs><path id="dp" d="M299.2 246.6s16.5-8 21.9-10.8c4.6-2.3 18.2-9.5 18.2-9.5l11.1.4s1.1 1.4 1.1 2c0 .7-1.1 2.2-1.1 2.2l-44.6 24.4-6.6-8.7z"/></defs><clipPath id="dr"><use xlink:href="#dp" overflow="visible"/></clipPath><defs><filter id="dq" filterUnits="userSpaceOnUse" x="293.1" y="215.3" width="64.6" height="51.1"><feColorMatrix values="1 0 0 0 0 0 1 0 0 0 0 0 1 0 0 0 0 0 1 0"/></filter></defs><mask maskUnits="userSpaceOnUse" x="293.1" y="215.3" width="64.6" height="51.1" id="dt"><g filter="url(#dq)"><linearGradient id="ds" gradientUnits="userSpaceOnUse" x1="-245.572" y1="463.221" x2="-244.629" y2="463.221" gradientTransform="scale(-65.6627 65.6627) rotate(12.476 1977.102 1331.697)"><stop offset="0"/><stop offset="1" stop-color="#858585"/></linearGradient><path clip-path="url(#dr)" fill="url(#ds)" d="M357.6 254.1l-55.9 12.4-8.6-38.8 56-12.4z"/></g></mask><linearGradient id="du" gradientUnits="userSpaceOnUse" x1="-245.572" y1="463.221" x2="-244.629" y2="463.221" gradientTransform="scale(-65.6627 65.6627) rotate(12.476 1977.102 1331.697)"><stop offset="0" stop-color="#b20a63"/><stop offset="1" stop-color="#c7006d"/></linearGradient><path clip-path="url(#dr)" mask="url(#dt)" fill="url(#du)" d="M357.6 254.1l-55.9 12.4-8.6-38.8 56-12.4z"/></g></g><g><defs><path id="dv" d="M121.2 271.8h13.5v12.5h-13.5z"/></defs><clipPath id="dw"><use xlink:href="#dv" overflow="visible"/></clipPath><path clip-path="url(#dw)" fill="#EDEDED" d="M133.6 271.8s-6.4 1.2-7.7 2.8c-4 4.7-4.6 9.7-4.6 9.7l13.5-5.7-1.2-6.8z"/></g><g><defs><path id="dx" d="M225.6 274.7h9.3v14.2h-9.3z"/></defs><clipPath id="dy"><use xlink:href="#dx" overflow="visible"/></clipPath><path clip-path="url(#dy)" fill="#EDEDED" d="M232 274.7s-4.8 3.9-5.6 5.8c-.9 1.9-.8 8.4-.8 8.4l9.3-8.4-2.9-5.8z"/></g><g><defs><path id="dz" d="M223 221.7h60.9v58.8H223z"/></defs><clipPath id="dA"><use xlink:href="#dz" overflow="visible"/></clipPath><g clip-path="url(#dA)"><defs><path id="dB" d="M249.2 240.9s11-5.4 13.5-8.5c1.2-1.4 3.2-4.2 2.7-6.8-.2-1.2-3.4-3.4-3.4-3.4s2.1-1.2 3.8 0c2.2 1.5 7.5 9.2 11.3 13.7 2.3 2.8 7.3 9.4 6.7 13-1.2 6.6-10.4 13.4-19.9 18.2-7.1 3.6-29.1 13.3-29.1 13.3l-2.3-5.8-9.5.7s12.8-2.2 19.7-9c2.7-2.7 7.8-13 7.8-13l3.2 3.2c.8.9 3.7 5 3.7 5l7.9-5s-5-7.4-7.4-9.1c-3-2-6.5-2.2-6.5-2.2l-2.2-4.3z"/></defs><clipPath id="dD"><use xlink:href="#dB" overflow="visible"/></clipPath><defs><filter id="dC" filterUnits="userSpaceOnUse" x="223" y="221.1" width="61.5" height="59.4"><feColorMatrix values="1 0 0 0 0 0 1 0 0 0 0 0 1 0 0 0 0 0 1 0"/></filter></defs><mask maskUnits="userSpaceOnUse" x="223" y="221.1" width="61.5" height="59.4" id="dF"><g filter="url(#dC)"><linearGradient id="dE" gradientUnits="userSpaceOnUse" x1="-241.161" y1="462.27" x2="-240.218" y2="462.27" gradientTransform="matrix(64.6021 0 0 -64.6021 15802.496 30114.357)"><stop offset="0" stop-color="#fff"/><stop offset=".245" stop-color="#ddd"/><stop offset=".783" stop-color="#888"/><stop offset="1" stop-color="#636363"/></linearGradient><path clip-path="url(#dD)" fill="url(#dE)" d="M223 221.1h61.5v59.4H223z"/></g></mask><linearGradient id="dG" gradientUnits="userSpaceOnUse" x1="-241.161" y1="462.27" x2="-240.218" y2="462.27" gradientTransform="matrix(64.6021 0 0 -64.6021 15802.496 30114.357)"><stop offset="0" stop-color="#0075be"/><stop offset=".833" stop-color="#0097dc"/><stop offset="1" stop-color="#009ee2"/></linearGradient><path clip-path="url(#dD)" mask="url(#dF)" fill="url(#dG)" d="M223 221.1h61.5v59.4H223z"/></g></g><g opacity=".6"><defs><path id="dH" d="M135.8 76.6h8.8v8.8h-8.8z"/></defs><clipPath id="dI"><use xlink:href="#dH" overflow="visible"/></clipPath><g clip-path="url(#dI)"><defs><path id="dJ" d="M144.6 80.4c.3 2.4-1.4 4.6-3.8 5-2.4.3-4.6-1.4-5-3.8-.3-2.4 1.4-4.6 3.8-5 2.4-.3 4.7 1.4 5 3.8"/></defs><clipPath id="dK"><use xlink:href="#dJ" overflow="visible"/></clipPath><radialGradient id="dL" cx="-211.167" cy="452.582" r=".943" gradientTransform="matrix(4.634 -.6344 -.6344 -4.634 1405.893 2044.282)" gradientUnits="userSpaceOnUse"><stop offset="0" stop-color="#81cff4"/><stop offset=".171" stop-color="#71c9f2"/><stop offset=".503" stop-color="#48b9ec"/><stop offset=".961" stop-color="#06a0e3"/><stop offset="1" stop-color="#009ee2"/></radialGradient><path clip-path="url(#dK)" fill="url(#dL)" d="M134.3 76.5l10.5-1.5 1.4 10.5-10.5 1.5z"/></g></g><path fill="#B2B2B1" d="M147 75.8c-1.8-2.7-4.2-3.7-7.3-3-1.7.3-4.1 1.2-6.2 3.9-2 2.6-2.4 6.6-1.6 9.3.7 2.2 8.4 4.7 14-.3 2.7-2.4 2.9-7.1 1.1-9.9m-8.8 11.8c-2 0-5.5-.9-5.6-3.1-.3-7.4 5.2-9.2 7.1-9.5 3.4-.4 5.3.8 6.2 3.7.8 2.5.4 4.9-1.2 6.5-1.7 1.8-3.9 2.4-6.5 2.4"/></g><g><defs><path id="dM" d="M139.6 77.7c-2.5.3-4 6.2 1 5.9 0 0 2.1-.1 2.6-2.1.5-1.9-.9-3.8-3.1-3.8h-.5"/></defs><clipPath id="dN"><use xlink:href="#dM" overflow="visible"/></clipPath><radialGradient id="dO" cx="-196.437" cy="448.054" r=".943" gradientTransform="matrix(3.1834 -.436 -.436 -3.1834 960.98 1421.364)" gradientUnits="userSpaceOnUse"><stop offset="0" stop-color="#585857"/><stop offset=".39" stop-color="#444443"/><stop offset="1" stop-color="#1e1e1c"/></radialGradient><path clip-path="url(#dN)" fill="url(#dO)" d="M134.7 77.8l8.9-1.2 1 7.2-8.9 1.2z"/></g><g><path fill="#FFF" d="M141.9 79.6s-.2-.9-.9-.8c-.7.1-.6.8-.3 1.2.2.4 1 .5 1.2-.4"/><g opacity=".6"><defs><path id="dP" d="M106.8 72.3h5.5V81h-5.5z"/></defs><clipPath id="dQ"><use xlink:href="#dP" overflow="visible"/></clipPath><g clip-path="url(#dQ)"><defs><path id="dR" d="M110.9 73.7c1.2 1.6 1.7 4.7 1 6.1-.7 1.7-2.4 1.6-3.7-.1-1.3-1.7-1.9-4.6-1.2-6.2.8-1.7 2.6-1.6 3.9.2"/></defs><clipPath id="dS"><use xlink:href="#dR" overflow="visible"/></clipPath><radialGradient id="dT" cx="-208.125" cy="420.511" r=".943" gradientTransform="matrix(1.4377 -3.2193 -2.5512 -3.3246 1481.532 804.597)" gradientUnits="userSpaceOnUse"><stop offset="0" stop-color="#81cff4"/><stop offset=".171" stop-color="#71c9f2"/><stop offset=".503" stop-color="#48b9ec"/><stop offset=".961" stop-color="#06a0e3"/><stop offset="1" stop-color="#009ee2"/></radialGradient><path clip-path="url(#dS)" fill="url(#dT)" d="M103.6 77.9l5-11.3 6.7 8.7-5 11.2z"/></g></g></g><g><defs><path id="dU" d="M108 74.4c-.7 1.7 1.9 7.2 3.5 3.9 0 0 .7-1.3-.2-3.2-.6-1.2-1.3-1.7-2-1.7-.6 0-1.1.3-1.3 1"/></defs><clipPath id="dV"><use xlink:href="#dU" overflow="visible"/></clipPath><radialGradient id="dW" cx="-193.865" cy="400.015" r=".943" gradientTransform="matrix(.8801 -2.2264 -1.8289 -2.1804 1011.97 516.803)" gradientUnits="userSpaceOnUse"><stop offset="0" stop-color="#585857"/><stop offset=".39" stop-color="#444443"/><stop offset="1" stop-color="#1e1e1c"/></radialGradient><path clip-path="url(#dV)" fill="url(#dW)" d="M105.1 78.9l3.7-9.4 5.5 6.5-3.7 9.5z"/></g><g><path fill="#FFF" d="M111 75.4s-.2-.9-.9-.8c-.7.1-.6.8-.3 1.2.2.5 1 .5 1.2-.4"/><path fill="#B2B2B1" d="M104.7 80c2.9 5.2 7.3 5.8 8.7 4.4 1.2-1.2-.4-8.2-2-11.8-2.4-5.6-6.3-5.7-7.4-3.5-1.2 2.2-1.4 7.3.7 10.9m1.2.4c-1.3-2.4-2.1-4.7-1.4-7.6.5-2.2 1.6-3.6 3.3-2.4 3.5 2.5 6 11.1 4.6 13.2-.9 1.3-4.9-.1-6.5-3.2"/></g><g><defs><path id="dX" d="M122.8 315.2c17.5-1.8 42.1-12.4 63.7-21.8 6.7-2.9 13-5.7 18.7-7.9.8-.3 1.6-.6 2.5-1 .6.8 2.1 2.3 5.4 3.5 2.3.9 6.3 1.4 9.1 1.6-7.2 3.3-12.7 5.8-15.7 7.1l-2 .9c-17.5 7.9-64.2 28.9-89.3 26.1-17.4-1.9-22.2-9.4-23.3-11.9.7.1 2 .7 3.1 1.3.4.3 4.4 2.7 16.3 2.7 3.3 0 7.1-.1 11.5-.6M104 278.8l5.1-.9c.3.8 1 1.9 2.8 3.4 1.6 1.3 3.9 2.3 5.7 2.9-.4.1-.8.2-1.1.2-2.8.6-70 14.1-97.1 5.8-11.5-3.5-15.6-10-16.4-11.5.1-.1.1-.2.2-.3.4-.1 2 1.1 3.1 2.4.4.6 4.4 5.2 19.6 6.9 2.5.3 5.3.4 8.4.4 19.2-.1 46.9-5.2 69.7-9.3m123.2 2.1c.7-2 3.5-4 4.9-4.9l1.6 4.1-7.5 7.1c0-1.6.2-4 1-6.3m-13.5 5.5c-3.3-1.2-4.5-2.7-4.8-3.2 0-.6.3-2.6 1.7-5.4.7-1.5 2.7-3.2 3.7-4 .8.6 2.4 1.5 5.9 2.2 1 .2 2.3.3 3.6.3 1.9 0 3.9-.2 5.5-.3-1.4 1.1-3 2.7-3.6 4.4-1.1 3.1-1.2 6.3-1.2 7.8-2.2-.2-8-.7-10.8-1.8m-88.3-10.1c2.1-2.6 5.8-3.6 7.4-3.8l.8 5.4-11.3 5c.5-1.8 1.6-4.7 3.1-6.6m187.5-5.4c.8 0 1.7-.1 2.8-.2 2.7 4.2 5.5 8.8 6.6 11.1-2-1.7-5.8-6.3-9.4-10.9m-200 9.1c-2.2-1.8-2.3-2.7-2.3-2.9v-.1s.4-2.4 2.5-5.4c1.4-2.1 3.9-3.2 5.2-3.7.5.8 1.7 1.4 3.5 1.9 2.4.7 5.5 1.3 7.9 1.8-1.8.7-4 1.8-5.5 3.7-1.9 2.4-3.2 6.4-3.7 8.1-1.7-.4-5.4-1.6-7.6-3.4m3.9 6c3.3-.7 11.3-2.1 21.4-4 21.2-3.9 53.1-9.7 75.8-14.5-.1.9-.2 1.7-.3 2.6-50.7 12.2-139.4 29.2-177.5 26.1-20.6-1.6-25.3-5.4-29.5-8.7l-.1-.1c-2.2-1.7-3.7-4.2-4-6.3 2 2.8 6.6 7.7 16.3 10.6 6.5 2 15.1 2.7 24.7 2.7 31 .1 71-8 73.2-8.4m17.8-6.8c9-.6 20.2-2.9 29.3-4.7l2.5-.5c10.9-2.2 19.9-5.1 24.9-7.9.8-.4 1.3-1 1.7-1.6 9.2-1.5 16.7-2.8 22.8-4-.6 1.5-1.1 3.4-1.5 5.3-22.7 4.8-55 10.7-76.4 14.6-3.8.7-7.3 1.3-10.3 1.9l7-3.1zm180.3-12.3c0-.1 0-.1 0 0 0-.1-.1-.2-.1-.2v-.1l-1.2-1.6c.1-.1.2-.2.2-.4.5-.7.8-1.1 1.7-2.1 2.6-2.8 5.1-4.3 7-4.2 1 .1 1.9.6 2.6 1.5.8 1 1 2.1.7 3.3-.5 1.9-2.5 3.7-5.5 5-2.1.9-4.6 1.2-6.4 1.3 1.2-1.2 1.1-2.3 1-2.5M205.3 299l1.9-.9c11.5-5.2 63.6-28.9 92.3-42.7l1.2 1.6c-16.6 8.5-130.1 66-169.4 70-21.6 2.2-30.8-2.1-34.5-4.8-2.9-2.2-5.9-5.6-6.2-8.2 0-.4 0-.7.1-1 1.7 3.3 7.2 10.3 24.3 12.2 1.6.2 3.2.3 4.9.3 26.5 0 68.8-19 85.4-26.5M97.4 252.8c.7.2 1.7.4 2.7.6 1.4 4.8 2.7 10.1 3 12.6-1.3-2.3-3.7-7.8-5.7-13.2m61.4 2c-1.6-2.4-4.3-4.2-6.4-5.3 5.1.1 9 .4 9.3.4.3.1 2.8.7 5.3 3.3 3.1 3.2 3.8 7.3 4 8.8l-8.1 1.5c-.4-1.4-1.7-5.1-4.1-8.7M235 281c7.8-2.2 17.3-6.5 30-13.5 8-4.4 13.6-8.5 16.7-12.2 5.2-2.2 9.8-4.1 13.5-5.7l3.4 4.6c-19.1 9.2-48.3 22.6-69.1 32.2l5.5-5.4zm16-28.7c-3.3-2.4-6.9-3.6-9.5-4.2 4.5-1.2 7.9-1.9 8.2-1.9.3 0 4-.3 7.3 2 3.6 2.4 6.4 6.6 7.5 8.2l-6.9 4.3c-1.1-1.8-4.1-6.6-6.6-8.4m-152.4-.8c1.8-.8 1.8-1.9 1.8-2v-.2-.1l-.6-1.9.3-.3c.7-.5 1.1-.8 2.2-1.5 3.3-1.9 6.1-2.6 7.9-1.9 1 .4 1.6 1.1 2 2.2.4 1.2.3 2.3-.3 3.3-1.1 1.7-3.5 2.8-6.7 3.1-.4 0-.8.1-1.3.1-1.9-.1-3.9-.5-5.3-.8m70-8.4c5.6-1.9 8.8-4 9.6-6.3.4-1.1.1-1.9-.1-2.2-.1-.1-.1-.3-.2-.5.7.1 1.7.6 2.7 2.4.8 1.4 1.3 2.3 1.8 3.2 1.1 1.8 2.2 3.6 5.1 9.2 4.4 8.3 6.4 13.9 2.9 15.9-4.7 2.7-13.9 5.6-24.4 7.7l-2.5.5c-8.8 1.8-19.7 4-28.5 4.6l-.9-6.1v-.1-.1l-.1-.1s0-.1-.1-.1c0 0-.1 0-.1-.1h-.1-.1c-.1 0-7.1-1.3-11.4-2.5-2.1-.6-2.6-1.1-2.6-1.3 1.1-4.9 3.6-10.2 6.1-12.8 3.6-3.7 14-4.6 22.7-4.7l.1.1c.1 0 6.4 2.1 9 6.1 2.9 4.3 4 9 4.1 9 .1.4.4.6.8.6h.1l9.5-1.7c.4-.1.7-.4.7-.8 0-.2-.1-6.1-4.5-10.6-3.1-3.1-6.1-3.8-6.2-3.8-.4 0-4.4-.4-9.7-.5-.3-.6-.9-1.7-2-3.5-.7-1.1-.4-1.8-.1-2.3.4.6.8 1 .9 1.1.3.5 1.5 2.3 5.9 2.3 2.6-.2 6.3-.8 11.6-2.6m136.3 9.7l.2-.1c14.6-7.2 34.3-18.6 44.9-25 .2.1.4.3.5 1 .1 1-.3 1.4-.5 1.5-.1 0-.1 0-.1.1h-.1c-6.9 3.9-21 11.9-37.6 20.8-1.5.8-3.6 1.9-6.1 3.2l-1.2-1.5zm-4.2-5.8c10-4.6 30.3-15.3 38.8-19.8l7.6.4c-9.6 5.7-28.7 16.8-42.8 23.7l-.4.2-3.2-4.5zM259 236.7c4.9-3.6 7.4-6.8 7.4-9.6 0-1.9-1.2-2.9-1.5-3.2l-1.2-1.2c.7 0 1.6.2 2.5 1 3.8 4.1 16.2 19.8 16.9 23.5.9 5.1-5.4 11.4-18.8 18.8-12.3 6.8-21.6 11-29.2 13.3l-1.8-4.8v-.1-.1s0-.1-.1-.1l-.1-.1v-.1h-.1s-.1 0-.1-.1h-.1-.1-.1c-.1 0-8 1.2-11.9.5-3.8-.7-5-1.6-5.3-2 .1-4 1-8.9 2.4-12 2.1-4.9 12.1-8.8 20.4-11.3 1 .1 7.1.8 12.2 4.5 2.8 2 6.6 8.5 6.6 8.6.1.2.3.3.5.4h.2c.1 0 .3 0 .4-.1l8.2-5.1c.4-.2.5-.7.3-1.1-.1-.2-3.6-6.1-8.4-9.4-3.9-2.7-8.2-2.3-8.4-2.3-.3.1-2.7.5-6.1 1.4-.7-.8-2.2-2.6-3.2-3.8-.7-.8-.7-1.7-.6-2.3.7.6 1.1 1 1.2 1.1.3.3 1.7 1.6 4.6 1.6 2.6-.1 7-1.3 13.3-5.9m-84.2-16c1-4.8 6.2-9.3 11.2-13 8.2-6.1 14.8-9.4 17.3-8.6.5.3 1.7 2.5 2.7 4.5 2.5 4.7 6.3 11.9 11.9 17 4.5 4.1 15.2 13.5 20.2 17.9-.3.9-.6 2.8.8 4.6.8 1 1.9 2.3 2.7 3.3-8.5 2.2-21.2 6.5-25 12.3-6.1 1.2-13.6 2.5-22.9 4.1.8-3.7-1.8-9.2-4.7-14.7-2.9-5.6-4-7.4-5.1-9.2-.5-.9-1.1-1.8-1.8-3.1-1.7-3-3.6-3.4-4.6-3.3-1.3-3.8-3.1-9.8-2.7-11.8m72.7-17.6c-.9-1.7-1.7-4.1-2.4-6.8 2.3 1 6.6 2.3 11.5 2.3h1.4l36.3 49.6c-3.1 1.3-6.7 2.9-10.8 4.6 1.2-2 1.6-4 1.2-5.8-.8-4.3-13.9-20.6-17.3-24.3-1.6-1.8-3.7-1.7-5-1.4-4.3-4.7-12.8-14-14.9-18.2m-3-8.8c-1-4.1-1.9-8.7-2.8-13-.5-2.4-.9-4.7-1.4-6.8l16.4 22.4h-.2c-5.9.1-10.7-2-12-2.6m-19.7-35.5c1-.2 2.2-.5 3.4-.8l.9 1.3h-.5c-1.4 0-2.7-.2-3.8-.5m14.5 11.6l-9.5-12.9c1.3-.4 2.5-.9 3.5-1.3l29.6 41.1 50.3 70c0 .2-.2.5-.8 1-.6.4-1 .5-1.2.5l-71.9-98.4zM96.4 250.2l-33.6-96.4c1.2-.1 2.4-.3 3.6-.5l32.3 96.1c-.1.1-.4.4-1.1.7-.4.1-.7.2-.9.2-.1 0-.2 0-.3-.1m110.7-91.6c-3.8-2.8-5.7-7.2-6.5-9.6.3.1.6.3.9.4.4.1.8.2 1.2.2.2 0 .5 0 .7-.1.6 1.1 2.2 3.7 3.9 5.1 1.5 1.2 2.9 1.9 4.3 1.9h.6c1.1-.2 1.8-.7 2.3-1.1 1.7 1.3 3.6 2.4 5.5 3 .1.1.4.3.8.5-.4 1-1.4 2.4-3 3-.6.2-1.2.3-1.9.3-2.5.1-5.4-1.2-8.8-3.6m1.2-5.2c-1.4-1.1-2.7-3.2-3.3-4.3.6-.2 1.2-.5 1.6-.8.7.5 1.2.8 1.4.9.5.5 2.5 2.8 5.3 5.1-.3.2-.7.5-1.3.5h-.4c-1 .1-2.1-.4-3.3-1.4m29.2 5.7c5.2-2 10.8-5.6 16.5-10.9 2.7-2.5 5.1-5.1 7-7.8 2.4 1.9 11.2 9.5 13.3 19.9 3.4 16.9-5.3 22.7-5.7 22.9-.3.2-.5.7-.3 1 .2.4.6.5 1 .4l9-3.4c-1 2.5-3.3 7.6-8 11.1-2 1.5-4.2 2.7-6.6 3.4l-26.2-36.6zm-187.3-8.9c-1.4-1.6-2.5-3.2-3.5-4.9 1.5-1.1 6.1-4.6 10.2-6 6.1-2.1 11.3-.3 11.3-.3h.1c.5.4.9.7 1.4 1 1.2 4 2.2 8.8 1.6 9.6-1.5 2-10 2.8-15.1 2.8-.4 0-.8.4-.8.8s.4.8.8.8c.5 0 2.5 0 4.9-.2l1.4 3.9c-4.6-1-9.1-3.8-12.3-7.5m151.8-2.3c-4.6-1.6-11.5-7.4-11.5-12 0-1.9 1.1-3.8 2-5.1.4 3.4 1.3 6.4 2.6 8.1 1.1 1.4 4.9 2.7 6.3 3.1 1 2.4 2.5 4.1 3.8 5.3-.7.4-1.7.7-2.5.7-.3 0-.5 0-.7-.1m-87.6-6.2c.2-.1.4-.3.4-.6.1-.4-.1-.8-.5-.9-.2-.1-2.2-.8-5.2-2.1.7-1.3 2.1-4.1 2.5-6.7.2-1.1.3-2 .3-2.9 2.1 2.8 4.9 5.9 8.5 8.8.5 1.4 3.6 9.2 11.5 18-1.9 2.3-10.1 12.4-15.5 14.4-8.9 3.2-32.2-6.8-40.5-10.9-1.4-.7-3.5-.6-5.9-.5l-2-5.3c2.1-.5 3.9-1.2 4.6-2.3 1.1-1.5 0-6.3-.8-9.3 2.9 1.6 5.5 2.3 5.8 2.4.7.3 8 3 14.2 3 3.6 0 6.9-1 8.1-4 .8-2 .9-4.2.4-6.6 6.8 3.1 13.1 5.5 13.3 5.6.1 0 .2.1.3.1.2-.1.3-.1.5-.2m-72-8.7c.5-.8 2.4-4.1 5.8-6.8 1.3-1 2.3-1.4 2.8-1.5.3.4.5.8.9 1.3 2.1 2.9 6.3 4.2 9.9 3.1.7-.2 1.3-.5 1.9-.8.1 2.1.5 6.1 2 8 .1.2.3.3.4.5-2.3-.4-5.8-.5-9.7.9-4.2 1.5-8.7 4.8-10.5 6.1-2.6-5.1-3.4-9.7-3.5-10.8m41.1-8.7c1.8.8 3.5 1.7 3.8 2.2.2.4.4.8.5 1.3-2.2-1.5-3.5-2.6-4.3-3.5m-.4 13.1c1.6 0 2.9-.3 3.9-1 3.3-2.3 3.4-7.2 1.6-10.6-.9-1.6-5-3.2-6.5-3.7-.2-.5-.5-1-.7-1.4 3.5 1 11 3.6 14.5 9.3 3 5 3.8 9 2.5 12.2-2.3 5.6-15.4 1.9-20.3 0-.1 0-7.3-2-11.1-6.8-.6-.8-1-2.2-1.3-3.6 3.4 1.7 11.7 5.6 17.4 5.6m23.8-21.5c-.5-.3-1-.6-1.4-1.1-1.4-1.4-2.5-2.8-3.4-4.2 2.7 1.9 5.8 3.2 6.6 3.6l1.9 2.9c-1-.2-2.4-.4-3.7-1.2m-53.7 9.2c-3.8-5.3-2.7-7 .8-9.6 3.5-2.6 8.1-5.2 10.7-6 2.7-.8 10.2 4.2 14.3 10.4v.1c.8 1.2 1.5 2.4 2 3.6.7 1.8 3.1 3.9 7.1 6.4.1 2-.5 4-2.1 5.1-3.9 2.7-16-2.8-20.7-5.3-.1-.9-.1-1.7-.1-2.3 2.7-1.8 4.3-4 4.4-4.1.3-.4.2-.9-.2-1.1-.4-.3-.9-.2-1.1.2 0 0-3 3.9-7.1 5.2-.7.2-1.4.3-2.2.3-2.1-.1-4.5-1.1-5.8-2.9m74.2 3.7c-1.2-.1-2.1-.7-2.8-1.5 0-.5.1-2.4 1.5-4.7.8-1.2 3-3.4 3.5-3.8 3.7-2 6.9-5.6 10.3-9.7-.6 3.1-1.6 7.5-2.3 9.7-1 3-3.9 10-9.6 10h-.6m-88.1-10.5c.8-2.8 6-8.3 11.2-10.9 2.6-1.3 4.8-1.7 6.3-1.1 1.3.5 2.8 2.2 3.6 3.4-2.4 1.2-5.1 2.9-7.3 4.6-3.5 2.6-5 5-2.8 9.1-.7.2-1.8.7-3 1.7-2.9 2.2-4.7 4.8-5.7 6.3-1.3-2.4-3.8-7.8-2.3-13.1m152.9-5c.4-1 1.8-3.7 4-5.4 2.4-1.7 5.3-2.1 6.3-2.2l3.9 6.2c-.6.1-1.1.3-1.6.4-.6.2-1.3.3-2.1.5-2.9.6-6.5 1.3-8.3 3.3l-2.2-2.8zM130.4 135c4.4-.9 10.2-6.3 13.8-10.1 10.2-2 23.6-8.2 32.5-19.8 1.3-.4 7.7-2.1 15.1-3.2-2.3 6.2-13.4 33.6-27.8 40.3-11.6 5.4-28.3 3.1-37.1-2.2-12.6-7.5-17.6-18-19.1-22 1.6.5 3.1.6 3.8.6h.4c.5.2 1.8.8 3.7 1.3.3 1.9 1.5 9.3 4.3 12.4 1.7 1.8 4.6 2.9 7.6 2.9 1 .1 1.9 0 2.8-.2m-89.3-30.4c.7-.9 2.8-3 5.4-3.9 2.7-.9 5.6-.5 6.7-.2l1 4c-1.4.2-2.9.7-4.5 1.5-2.1 1.1-4.3 2.6-6.2 4.3l-2.4-5.7zm123.6 39.1c15.9-7.4 27.4-37.8 28.9-42 3.1-.4 6.2-.7 9.3-.7 11 0 20.4-1.2 33.5-6.6 2.7 1 4.9 1.9 6.3 2.6l.7.4c8.4 4.2 22.5 11.2 24.5 17.8 1.4 4.6-.8 14.2-7.6 23.6 0 0-.1 0-.1.1v.1c-2 2.8-4.4 5.5-7.3 8.1-5.8 5.2-11.3 8.8-16.4 10.7l-1.6-2.3c.4-.2.7-.3.8-.3.4-.2.6-.7.4-1.1-.2-.4-.7-.6-1.1-.4-.1 0-7.5 3.3-11.3 3.6-1 .1-2-.1-3.1-.4-2-.7-4-1.9-5.7-3.3-2.5-2-4.6-4.2-5.4-5.1.7-1.2 2.9-4.3 5.9-5.3 6.2-2.1 9.1-1.3 9.2-1.3.4.1.9-.1 1-.5.1-.4-.1-.9-.5-1-.1 0-3.3-1.1-10.2 1.3-3.4 1.1-5.7 4.3-6.6 5.8-1.2-.8-4-2.9-5.4-6.6-1.5-3.8-1.5-6.5.2-9 3-4.2 14-5.9 14.2-5.9.4-.1.7-.5.7-.9-.1-.4-.5-.7-.9-.7-.5.1-11.8 1.8-15.2 6.6-1.8 2.5-2.1 5.4-1 8.9-1.8-.7-3.8-1.5-4.3-2.2-1.4-1.7-2.2-5.4-2.4-9.2-.3-4.2.1-8.6 1.2-10.7 1.1-2 5.1-2.9 8-3.5.8-.2 1.5-.3 2.1-.5 5.4-1.4 14.6-2.5 18.4-.9 2.9 1.3 5.7 6.5 7.6 10 .3.5.5 1 .8 1.4 2.3 4.1 7.1 18.1 7.2 18.3.1.3.4.5.8.5h.3c.4-.1.6-.6.5-1-.2-.6-5-14.3-7.3-18.5-.2-.4-.5-.9-.8-1.4-.9-1.7-2-3.7-3.3-5.6 1.3-.6 3.9-1.9 6.6-4.3 2-1.7 2.4-5.5 2.4-5.7 0-.4-.3-.8-.7-.9-.4-.1-.8.3-.9.7-.1.9-.7 3.6-1.9 4.7-2.7 2.3-5.3 3.6-6.4 4.1-1.3-1.7-2.7-3.1-4.2-3.8-3.8-1.7-11.3-.8-16.2.1l-4.5-7.2c-.1-.2-.4-.4-.7-.4-.2 0-4.3.1-7.7 2.5-3.2 2.4-4.7 6.4-4.8 6.5-.1.2-.1.4 0 .6 0 .1.1.1.1.2l2.9 3.5c-1.1 2.4-1.5 6.6-1.3 10.9-.8.9-3.4 4.2-3.4 7.5 0 4.5 5.1 9.6 9.7 12.2.4 1.6 2.2 8 7.5 11.8 3.7 2.7 6.9 4 9.6 4 .9 0 1.7-.1 2.5-.4 2.2-.8 3.3-2.6 3.9-3.8 1.5.6 3.6 1.3 6.5 1.3.5 0 1.1 0 1.7-.1L238 171c.1.4.2.7.3 1.1.6 2.5 1.3 5.8 2 9.3 1.6 8.1 3.4 17.3 5.8 22.1 3 5.9 17.1 20.6 17.7 21.3l.1.1s.9.7.9 2c0 1.6-1.2 4.3-6.7 8.3-12.1 8.7-16.1 4.4-16.1 4.4l-.1-.1c-.2-.1-17-14.8-22.9-20.2-5.4-5-9.1-12-11.6-16.6-1.9-3.5-2.7-5-3.6-5.3-4.2-1.4-13.6 4.9-18.8 8.8-5.2 3.9-10.7 8.7-11.8 14-.7 3.2 3.1 13.6 3.5 14.7 0 0 0 .1.1.1 0 0 .2.4-.1 1-.4 1-2.1 3-8.6 5.3-13.5 4.6-15.6 1-15.6.9 0-.1-.1-.1-.1-.2-.1-.1-6.8-8.7-9.3-13.3-3.8-7-4.9-10.9-4.2-14.7 1.8-9.2 19.7-34.8 22.2-38.3 14.7 7.5 31.4 15.8 31.6 15.9.1.1.2.1.4.1.3 0 .6-.2.7-.4.2-.4 0-.9-.4-1.1-.2-.1-23.3-11.6-39.1-19.8-19.9-10.4-28.6-25.3-31.4-31.4 1 .7 2.1 1.4 3.2 2.1 5.6 3.3 13.9 5.5 22.3 5.5 5.7.4 11.4-.6 16.3-2.9m14.2-41.7c10.7-16.9 13.9-30.6 14.7-38.8 1.9-1 9.4-5.3 17.5-14.7 4.2-4.9 7.2-8.8 9.6-11.9 5.3-7 7.1-9.3 12.5-9 2.2.1 5.9 2.4 9.8 6 9.3 8.6 16.7 16.7 22.3 27.8 1.7 3.5 2.1 8.5-.6 11.4-5.6 6-15.7 14.2-23.5 17.9-15.8 7.4-26 8.8-38.2 8.8-3.2 0-6.6.3-9.9.7-6.2.8-11.8 2.2-14.8 2.9.1-.4.4-.7.6-1.1m14.8-46.9c0-.1 0-.1-.1-.2 0 0 0-.1-.1-.1-.1-.1-5.4-8.3-12.9-14.6h-.1c-1.5-2.7-3.2-5.6-4.9-8.3.7-.9 2.3-2.7 3.1-3.9 2-2.8 4.3-4.4 6.8-4.8 2.2-.4 4.5.2 6.3 1.5 5.6 4.1 19.7 14.4 22.9 16.8-1.4 1.8-3.1 3.8-4.9 6-6.9 8-13.5 12.2-16.2 13.8.4-3.8.1-6 .1-6.2M107.3 33c.4-13.9 3.2-21.5 5.5-23.8.8-.8 1.5-1.3 2.4-1.2 1.3.2 3.8 1.9 7.7 8.8 5.2 9.2 7.7 13.4 8.7 14.9-.3.1-.6.3-.9.5-.6.2-8.8 3.4-15.8 9.4-3.3 2.9-5.5 5.1-7.1 7.2-.2-3.7-.7-11.5-.5-15.8M97.2 88.4c-1.2-3-1.5-5.8-1.6-6.4.4-1.4 4.3-13.7 6.8-20.7.6-1.7 1.4-3.9 2.4-5.2.3-.5.6-.9.9-1.3 2.2-3.4 4.2-6.6 10.3-11.8 6.9-5.9 15.2-9.1 15.3-9.1.3-.2.6-.3 1-.5 1.7-.8 3.4-1.7 3.9-3.6.3-1.3 0-3.6-.7-8.3l-.4-2.8c-1.8-12.8-1.1-14.3 1.5-15.5 6.2-2.8 18.3 5.4 32.3 22 8.9 10.6 17.8 30.5 17.9 30.7.1.3.4.5.7.5.1 0 .2 0 .3-.1.4-.2.6-.7.4-1.1 0-.1-2.1-4.8-5.3-10.9 5.1 5 8.6 10.2 9.3 11.1.2 1.9 1.5 20.5-14.6 45.7-7.9 12.3-20.9 19.2-31.4 21.7.8-.9 1.3-1.4 1.4-1.5.3-.3.2-.8-.1-1.1-.3-.3-.8-.2-1.1.1-.1.1-10.1 11.8-16.2 13.1-3.4.7-7.1-.2-8.8-2.1-2.2-2.5-3.4-8.6-3.8-11 1.1.2 2.2.3 3.5.4.2 2.4 1.1 9.3 6.4 9.7h.7c4.8 0 8.8-4 11.2-11.1 1.1-3.4 2.7-11.7 2.9-13.1 1.1-1.5 2-2.9 2.4-3.7h1c1-.1 1.5-1 1.5-1.1.2-.4.1-.9-.3-1.1-.4-.2-.9-.1-1.1.3 0 0-.1.2-.3.2-.5.1-.9-.1-.9-.1-.4-.1-.7 0-.9.4 0 0-2.1 3.5-4.3 6.3-4.2 5.2-8.2 9.7-13.1 11-6.4 1.7-12.3-.8-13.3-1.3l-2.1-3.1c4.6-.9 7.8-2 10.3-3.7 3.3-2.3 4.1-5 4.1-6.9.1-2.8-1.3-5-1.7-5.6-2.9-4.2-11.6-6.2-16.6-6.2-.6 0-1.2 0-1.7.1-1.9 0-3.6.7-5.1 1.9-.9-1.1-2.2-3.2-3-5.2m38.7-86.7c-3.8 1.7-4.2 4.5-2.4 17.1l.4 2.8c.6 4 1 6.7.7 7.7-.2.8-.8 1.3-1.7 1.8-.9-1.4-3.4-5.6-8.7-15-3.5-6.2-6.3-9.2-8.9-9.6-1.9-.3-3.1 1-3.8 1.6-2.6 2.6-5.6 10.5-6 24.9-.1 5.3.5 16 .6 17.8-.7 1-1.3 2-2 3-.3.4-.6.9-.9 1.3-.8 1.2-1.6 2.8-2.5 5.5-2.7 7.4-6.8 20.8-6.9 20.9v.2c0 .1.2 3.4 1.7 7.1 1 2.3 2.4 4.8 3.1 5.8-.5.6-.9 1.3-1.3 2-1.7 3.4-1.3 7.3 1.1 10.5.9 2 2.6 5.6 5.8 8.7.5.4.9.8 1.4 1.1.3 1.1 1.6 4.8 4.5 9.3 0 .7 0 2.5-.4 4.8-.4 2.4-1.8 5.1-2.4 6.3-2.3-1-5-2.1-7.8-3.4-.6-1.5-1.4-3.2-2.4-4.9-4.6-7.6-15.1-10.1-17.1-10.5-4.4-6.2-12.2-11.9-15.9-10.8-.7.2-1.5.5-2.4.9-.8-1.1-2.6-3.5-4.5-4.2-.4-.2-.9-.3-1.4-.3l-1.2-4.8c-.1-.3-.3-.5-.5-.6-.2 0-4.2-1.2-8.1.1-3.8 1.3-6.4 4.7-6.5 4.8-.2.2-.2.6-.1.8l2.9 6.6c-2.3 2.2-4 4.6-4.6 6.4-2.1 7.2 2.2 14.1 3 15.3.2 1.5 1.5 10.2 8.2 18.1 3.6 4.2 8.9 7.3 14.2 8.4L95 251l.3.8c5.6 15.1 7.5 16.8 8.4 16.8.1 0 .2 0 .3-.1.7-.2 1.9-.6-2.2-14.9.6.1 1.3.1 2 .1.5 0 1 0 1.4-.1 3.7-.4 6.6-1.8 7.9-3.8.9-1.4 1.1-3 .5-4.7-.5-1.6-1.6-2.7-3-3.2-2.3-.8-5.5-.1-9.2 2.1-1.2.7-1.6 1-2.3 1.6l-28.8-85.7c1.9-.1 3.7-.1 4.6.4.3.1 23.5 11.6 36.9 11.6 1.8 0 3.5-.2 4.9-.7 5.8-2.1 13.9-11.9 16.1-14.7 5 5.3 11.7 10.9 20.7 15.5 1.9 1 4 2.1 6.1 3.2-3 4.3-20.4 29.2-22.3 38.7-.9 4.8.9 9.4 4.3 15.8 1.7 3.2 5.3 8.1 7.5 11-.8.9-1.5 2.5-.3 4.4.7 1.2 1.2 2 1.5 2.7-9.4 0-21.7.8-25.9 5.2-2.7 2.8-5.2 8-6.5 13.2-1.2.4-4.5 1.7-6.4 4.5-1.7 2.5-2.3 4.5-2.6 5.5l-5.4 1C78.6 281.8 44.4 288 26 286c-15.1-1.6-18.5-6.2-18.5-6.2-.6-.7-2.7-2.9-4.3-2.9-.5 0-.9.2-1.2.6l-.6.9c-.1.1-.1.2-.1.3-.3.6-.4 1.4-.3 2.3.3 2.6 2 5.6 4.6 7.6l.1.1c4.3 3.5 9.2 7.4 30.3 9.1 3.1.2 6.4.4 10.1.4 42 0 120.6-15.2 167.4-26.4v.5c-.9.7-3.5 2.8-4.5 4.8-1.3 2.8-1.7 4.8-1.8 5.7-1 .4-1.9.7-2.7 1.1-5.7 2.3-12 5-18.7 8-21.6 9.4-46 20-63.3 21.7-20.6 2.1-26.6-1.8-26.7-1.8-1.2-.7-4.2-2.3-5.5-1.2 0 0-.1 0-.1.1-.9 1-1.3 2.2-1.2 3.5.4 4.2 5.7 8.5 6.8 9.3 3.7 2.8 10.7 5.8 24.1 5.8 3.4 0 7.2-.2 11.5-.6 39.8-4 154.4-62.2 170.2-70.3l8.4 11.5.5.7c9.1 11.8 11.7 13.6 12.7 13.6.3 0 .4-.1.5-.2.6-.4 1.6-1.2-6.4-13.6 1.1-.2 2.2-.5 3.3-1 3.4-1.4 5.8-3.6 6.4-6 .5-1.6.1-3.2-.9-4.7-1-1.3-2.3-2.1-3.8-2.2-2.4-.1-5.3 1.5-8.2 4.7-.9 1-1.3 1.5-1.7 2.2l-5.6-7.8c2.4-1.3 4.4-2.3 5.9-3.1 16.5-8.9 30.6-16.8 37.5-20.7.5-.2 1.8-.8 1.6-3.1-.1-2-1.4-2.6-2.2-2.6l-10.5-.5h-.4c-8.3 4.4-28.8 15.2-38.9 19.8l-.3.1-34.9-48.5c2.3-.8 4.5-2 6.6-3.5 6.8-5.1 9-13.2 9.1-13.6.1-.3 0-.6-.2-.8-.2-.2-.5-.3-.8-.2l-7 2.6c2.7-3.4 5.8-10.1 3.5-21.8-2.2-11.2-11.4-18.9-13.9-20.9 6.8-9.7 8.9-19.6 7.5-24.4-2.2-7.2-16.1-14.2-25.3-18.8l-.7-.4c-1.2-.6-2.9-1.3-4.9-2.1 1.1-.5 2.1-.9 3.2-1.5 7.9-3.7 18.3-12.2 24-18.2 3.4-3.6 2.8-9.3.9-13.2-5.7-11.3-13.2-19.5-22.6-28.2-2-1.9-7.1-6.2-10.7-6.4-6.2-.4-8.5 2.5-13.8 9.6-1 1.4-2.2 2.9-3.6 4.6C212.8 37.5 198.6 27 193 23c-2.2-1.6-4.9-2.2-7.5-1.8-3 .5-5.7 2.4-7.9 5.5-.7.9-1.9 2.5-2.7 3.4-1.5-2.3-3.1-4.5-4.7-6.3C162.4 15 149 1 139.3 1c-1.2 0-2.3.2-3.4.7"/></defs><clipPath id="dY"><use xlink:href="#dX" overflow="visible"/></clipPath><linearGradient id="dZ" gradientUnits="userSpaceOnUse" x1="-243.208" y1="462.778" x2="-242.265" y2="462.778" gradientTransform="scale(474.2678 -474.2678) rotate(-45.683 -670.876 -57.24)"><stop offset="0" stop-color="#585857"/><stop offset=".012" stop-color="#585857"/><stop offset=".292" stop-color="#5d5c5c"/><stop offset=".603" stop-color="#6a6a69"/><stop offset=".928" stop-color="#807f7f"/><stop offset="1" stop-color="#868585"/></linearGradient><path clip-path="url(#dY)" fill="url(#dZ)" d="M180.7-175.2l335.9 343.9-344.3 336.2-335.8-344z"/></g><g><defs><path id="ea" d="M185.4 21.6c-3 .5-5.7 2.4-7.9 5.5-.7.9-1.9 2.5-2.7 3.4 0 0 .2.2.5.7.3.4.4.7.4.7.7-.9 2.3-2.7 3.1-3.9 2-2.8 4.3-4.4 6.8-4.8 2.2-.4 4.5.2 6.3 1.5 5.6 4.1 19.7 14.4 22.9 16.8-1.4 1.8-3.1 3.8-4.9 6-6.9 8-13.5 12.2-16.2 13.8 0 0 0 .4-.1.9 0 .4-.1 1-.1 1 1.9-1 9.5-5.3 17.5-14.7 4.2-4.9 7.2-8.8 9.6-11.9 5.3-7 7.1-9.3 12.5-9 2.2.1 5.9 2.4 9.8 6 9.3 8.6 16.7 16.7 22.3 27.8 1.7 3.5 2.1 8.5-.6 11.4-5.6 6-15.7 14.2-23.5 17.9-15.8 7.4-26 8.8-38.2 8.8-3.2 0-6.6.3-9.9.7-6.2.8-11.8 2.2-14.8 2.9 0 0-.3.5-.6.8-.5.8-.9 1.2-.9 1.2 1.3-.4 7.7-2.1 15.1-3.2-2.3 6.2-13.4 33.6-27.8 40.3-11.6 5.4-28.3 3.1-37.1-2.2-12.6-7.5-17.6-18-19.1-22l-1-.4c-.6-.2-1.1-.6-1.1-.6.7 2.2 5.1 15.2 20.3 24.3 5.6 3.3 13.9 5.5 22.3 5.5 5.7 0 11.4-1 16.3-3.3 15.9-7.4 27.4-37.8 28.9-42 3.1-.4 6.2-.7 9.3-.7 12.5 0 22.9-1.5 38.9-8.9 7.9-3.7 18.3-12.2 24-18.2 3.4-3.6 2.8-9.3.9-13.2-5.7-11.3-13.2-19.5-22.6-28.2-2-1.9-7.1-6.2-10.7-6.4-6.2-.4-8.5 2.5-13.8 9.6-1 1.4-2.2 2.9-3.6 4.6-3.1-2.3-17.3-12.8-22.9-16.8-1.7-1.3-3.8-1.9-5.9-1.9-.6.1-1.2.1-1.7.2"/></defs><clipPath id="eb"><use xlink:href="#ea" overflow="visible"/></clipPath><linearGradient id="ec" gradientUnits="userSpaceOnUse" x1="-242.582" y1="462.351" x2="-241.638" y2="462.351" gradientTransform="matrix(172.2407 0 0 -172.2407 41888.176 79720.297)"><stop offset="0" stop-color="#0064a2"/><stop offset=".012" stop-color="#0064a2"/><stop offset=".529" stop-color="#0066a4"/><stop offset=".775" stop-color="#006bac"/><stop offset=".964" stop-color="#0075b9"/><stop offset="1" stop-color="#0077bc"/></linearGradient><path clip-path="url(#eb)" fill="url(#ec)" d="M105.8 21.5h163.4v126.2H105.8z"/></g><g><defs><path id="ed" d="M101.5 244c-1.2.7-1.6 1-2.3 1.6l.5 1.6.3-.3c.7-.5 1.1-.8 2.2-1.5 3.3-1.9 6.1-2.6 7.9-1.9 1 .4 1.6 1.1 2 2.2.4 1.2.3 2.3-.3 3.3-1.1 1.7-3.5 2.8-6.7 3.1-4.1.4-8.8-1.3-8.8-1.4-.4-.2-.9.1-1 .5-.2.4.1.9.5 1 .2.1 4.1 1.5 8.1 1.5.5 0 1 0 1.4-.1 3.7-.4 6.6-1.8 7.9-3.8.9-1.4 1.1-3 .5-4.7-.5-1.6-1.6-2.7-3-3.2-.6-.2-1.3-.3-2.1-.3-2 0-4.4.8-7.1 2.4"/></defs><clipPath id="ee"><use xlink:href="#ed" overflow="visible"/></clipPath><linearGradient id="ef" gradientUnits="userSpaceOnUse" x1="-235.536" y1="461.729" x2="-234.593" y2="461.729" gradientTransform="matrix(19.9443 0 0 -19.9443 4792.823 9456.572)"><stop offset="0" stop-color="#b20a63"/><stop offset="1" stop-color="#c7006d"/></linearGradient><path clip-path="url(#ee)" fill="url(#ef)" d="M95.1 241.6h19.2v12.2H95.1z"/></g><g><defs><path id="eg" d="M46.1 99.2c-3.8 1.3-6.4 4.7-6.5 4.8-.2.2-.2.6-.1.8l2.9 6.6.6-.6.6-.6-2.4-5.6c.7-.9 2.8-3 5.4-3.9 2.7-.9 5.6-.5 6.7-.2l1 4s.4-.1.9-.1h.8l-1.2-4.8c-.1-.3-.3-.5-.5-.6-.1 0-1.8-.5-4-.5-1.4 0-2.8.2-4.2.7"/></defs><clipPath id="eh"><use xlink:href="#eg" overflow="visible"/></clipPath><linearGradient id="ei" gradientUnits="userSpaceOnUse" x1="-234.237" y1="461.129" x2="-233.294" y2="461.129" gradientTransform="matrix(17.5117 0 0 -17.5117 4141.308 8180.12)"><stop offset="0" stop-color="#b20a63"/><stop offset="1" stop-color="#c7006d"/></linearGradient><path clip-path="url(#eh)" fill="url(#ei)" d="M39.4 98.5H56v12.9H39.4z"/></g><g><defs><path id="ej" d="M314.3 261.3c-.9 1-1.3 1.5-1.7 2.2l1 1.4c.1-.1.2-.2.2-.4.5-.7.8-1.1 1.7-2.1 2.6-2.8 5-4.3 7-4.2 1 .1 1.9.6 2.6 1.5.8 1 1 2.2.7 3.3-.5 1.9-2.5 3.7-5.5 5-3.8 1.6-8.8 1.3-8.8 1.3-.4 0-.8.3-.8.8 0 .4.3.8.8.8h1.1c1.8 0 5.4-.2 8.4-1.4 3.4-1.4 5.8-3.6 6.4-6 .4-1.6.1-3.2-.9-4.7-1-1.3-2.3-2.1-3.8-2.2h-.3c-2.6 0-5.3 1.7-8.1 4.7"/></defs><clipPath id="ek"><use xlink:href="#ej" overflow="visible"/></clipPath><linearGradient id="el" gradientUnits="userSpaceOnUse" x1="-235.378" y1="461.697" x2="-234.435" y2="461.697" gradientTransform="matrix(17.9561 0 0 -17.9561 4536.93 8554.063)"><stop offset="0" stop-color="#b20a63"/><stop offset="1" stop-color="#c7006d"/></linearGradient><path clip-path="url(#ek)" fill="url(#el)" d="M310.4 256.6h17.2v14.3h-17.2z"/></g><g><defs><path id="em" d="M195.3 106.7c-3.2 2.4-4.7 6.4-4.8 6.5-.1.2-.1.4 0 .6 0 .1.1.1.1.2l2.9 3.5s.1-.4.4-.8c.3-.4.5-.6.5-.6l-2.3-2.8c.4-1 1.8-3.7 4-5.4 2.4-1.7 5.3-2.1 6.3-2.2l3.9 6.2s.3-.1.9-.2c.6-.1.8-.1.8-.1l-4.5-7.2c-.1-.2-.4-.4-.7-.4 0 .2-4.2.2-7.5 2.7"/></defs><clipPath id="en"><use xlink:href="#em" overflow="visible"/></clipPath><linearGradient id="eo" gradientUnits="userSpaceOnUse" x1="-235.334" y1="461.239" x2="-234.391" y2="461.239" gradientTransform="matrix(18.7476 0 0 -18.7476 4602.368 8757.934)"><stop offset="0" stop-color="#b20a63"/><stop offset="1" stop-color="#c7006d"/></linearGradient><path clip-path="url(#en)" fill="url(#eo)" d="M190.4 104.2h17.7v13.3h-17.7z"/></g><g><defs><path id="ep" d="M80.9 119.7c.2.4.6 1 .6 1 3.5 1 11 3.6 14.5 9.3 3 5 3.8 9 2.5 12.2-2.3 5.6-15.4 1.9-20.3 0-.1 0-7.3-2-11.1-6.8-.6-.8-1-2.2-1.3-3.6 3.3 1.7 11.7 5.6 17.4 5.6 1.6 0 2.9-.3 3.9-1 3.3-2.3 3.4-7.2 1.6-10.6-.9-1.6-5-3.2-6.5-3.7 0 0 .3.8.5 1.2.3.7.8 1 .8 1 1.8.8 3.5 1.7 3.8 2.2 1.5 2.8 1.5 6.7-1.1 8.5-3.8 2.7-16-2.8-20.7-5.3-.1-.9-.1-1.7-.1-2.4 0 0-.4.3-.7.5l-.8.4c.1 2.1.5 6.1 2 8 4 5.2 11.3 7.2 11.9 7.4.7.3 8 3 14.2 3 3.6 0 6.9-1 8.1-4 1.5-3.7.7-8.1-2.6-13.6-4.6-7.6-15.1-10.1-17.1-10.5-.2.2.3.8.5 1.2"/></defs><clipPath id="eq"><use xlink:href="#ep" overflow="visible"/></clipPath><linearGradient id="er" gradientUnits="userSpaceOnUse" x1="-239.395" y1="461.917" x2="-238.452" y2="461.917" gradientTransform="matrix(39.1597 0 0 -39.1597 9438.4 18221.777)"><stop offset="0" stop-color="#b20a63"/><stop offset="1" stop-color="#c7006d"/></linearGradient><path clip-path="url(#eq)" fill="url(#er)" d="M63.8 118.7h37.7v29.1H63.8z"/></g><g><defs><path id="es" d="M204.2 149.4c-.5.1-.8.2-.8.2.6 1.1 2.2 3.7 3.9 5.1 1.5 1.2 2.9 1.9 4.3 1.9h.6c1.1-.2 1.8-.7 2.3-1.1 0 0-.2-.1-.7-.5-.4-.3-.6-.5-.6-.5-.3.2-.7.5-1.3.5-1.1.2-2.3-.3-3.6-1.5-1.4-1.1-2.7-3.2-3.3-4.3 0-.1-.4 0-.8.2"/></defs><clipPath id="et"><use xlink:href="#es" overflow="visible"/></clipPath><linearGradient id="eu" gradientUnits="userSpaceOnUse" x1="-230.617" y1="460.714" x2="-229.673" y2="460.714" gradientTransform="matrix(11.8223 0 0 -11.8223 2929.783 5599.499)"><stop offset="0" stop-color="#b20a63"/><stop offset="1" stop-color="#c7006d"/></linearGradient><path clip-path="url(#et)" fill="url(#eu)" d="M203.4 149.1h11.1v7.4h-11.1z"/></g><g><defs><path id="ev" d="M206.1 159.9c3.7 2.7 6.9 4 9.6 4 .9 0 1.7-.1 2.5-.4 2.2-.8 3.3-2.6 3.9-3.8 0 0-.4-.1-.8-.3-.5-.3-.7-.4-.7-.4-.4 1-1.4 2.4-3 3-2.6 1-6.3-.2-10.7-3.3-3.8-2.8-5.7-7.2-6.5-9.6l-1-.4c-.6-.3-1-.6-1-.6.6 1.6 2.4 8 7.7 11.8"/></defs><clipPath id="ew"><use xlink:href="#ev" overflow="visible"/></clipPath><linearGradient id="ex" gradientUnits="userSpaceOnUse" x1="-237.393" y1="461.663" x2="-236.45" y2="461.663" gradientTransform="matrix(24.9878 0 0 -24.9878 6130.548 11691.92)"><stop offset="0" stop-color="#b20a63"/><stop offset="1" stop-color="#c7006d"/></linearGradient><path clip-path="url(#ew)" fill="url(#ex)" d="M198.6 148.1h23.6v15.8h-23.6z"/></g><g><defs><path id="ey" d="M283.4 252.7s-.5.7-.7 1.1c-.3.5-1 1.3-1 1.3 5.2-2.2 9.8-4.1 13.5-5.7l-1-1.3c-3 1.4-6.7 2.9-10.8 4.6"/></defs><clipPath id="ez"><use xlink:href="#ey" overflow="visible"/></clipPath><linearGradient id="eA" gradientUnits="userSpaceOnUse" x1="-233.161" y1="461.439" x2="-232.219" y2="461.439" gradientTransform="matrix(14.2749 0 0 -14.2749 3610.09 6838.672)"><stop offset="0" stop-color="#b20a63"/><stop offset="1" stop-color="#c7006d"/></linearGradient><path clip-path="url(#ez)" fill="url(#eA)" d="M281.7 248.2h13.5v7h-13.5z"/></g><g><defs><path id="eB" d="M206.6 296.7l-1.9.9c-17.5 7.9-64.2 28.9-89.3 26.1-17.4-1.9-22.2-9.4-23.3-11.9.7.1 2 .7 3.1 1.3.4.3 4.4 2.7 16.3 2.7 3.2 0 7-.2 11.4-.6 17.5-1.8 42.1-12.4 63.7-21.8 6.7-2.9 13-5.7 18.7-7.9.8-.3 1.6-.6 2.5-1l-.4-.6c-.2-.4-.1-.9-.1-.9-1 .4-1.9.7-2.7 1.1-5.7 2.3-12 5-18.7 8-21.6 9.4-46 20-63.3 21.7C102 315.9 96 312 95.9 312c-1.2-.7-4.2-2.3-5.5-1.2 0 0-.1 0-.1.1-.9 1-1.3 2.2-1.2 3.5.4 4.2 5.7 8.5 6.8 9.3 3.7 2.8 10.7 5.8 24.1 5.8 3.4 0 7.2-.2 11.5-.6 39.8-4 154.3-62.2 170.2-70.3l-1-1.3c-16.7 8.5-130.1 66-169.4 70-21.6 2.2-30.8-2.1-34.4-4.8-2.9-2.2-5.9-5.6-6.2-8.2 0-.4 0-.7.1-1 1.7 3.3 7.2 10.3 24.3 12.2 1.6.2 3.2.3 4.9.3 26.3 0 68.7-19.1 85.2-26.5l1.9-.9c11.5-5.2 63.6-28.9 92.3-42.7l-1-1.3c-28.6 13.6-80.3 37.1-91.8 42.3"/></defs><clipPath id="eC"><use xlink:href="#eB" overflow="visible"/></clipPath><linearGradient id="eD" gradientUnits="userSpaceOnUse" x1="-242.794" y1="462.443" x2="-241.851" y2="462.443" gradientTransform="matrix(225.4102 0 0 -225.4102 54817.281 104531.188)"><stop offset="0" stop-color="#b20a63"/><stop offset="1" stop-color="#c7006d"/></linearGradient><path clip-path="url(#eC)" fill="url(#eD)" d="M89 254.1h212.7v75.2H89z"/></g><g><defs><path id="eE" d="M339.3 225.6h-.4c-8.3 4.4-28.8 15.2-38.9 19.8l-.3.1 1 1.3c10-4.6 30.3-15.3 38.8-19.8l7.6.4c-10.9 6.5-29.1 17-42.8 23.7l-.4.2.9 1.3.2-.1c14.6-7.2 34.3-18.6 44.9-25 .2.1.4.3.5 1 .1 1-.3 1.4-.5 1.5-.1 0-.1 0-.1.1h-.1c-6.9 3.9-21 11.9-37.6 20.8-1.5.8-3.5 1.9-6.1 3.2l.9 1.3c2.4-1.3 4.4-2.3 5.9-3.1 16.5-8.9 30.6-16.8 37.5-20.7.5-.2 1.8-.8 1.6-3.1-.1-2-1.4-2.6-2.2-2.6l-10.4-.3"/></defs><clipPath id="eF"><use xlink:href="#eE" overflow="visible"/></clipPath><linearGradient id="eG" gradientUnits="userSpaceOnUse" x1="-240.856" y1="462.215" x2="-239.913" y2="462.215" gradientTransform="matrix(55.4116 0 0 -55.4116 13645.98 25852.719)"><stop offset="0" stop-color="#b20a63"/><stop offset="1" stop-color="#c7006d"/></linearGradient><path clip-path="url(#eF)" fill="url(#eG)" d="M299.7 225.6h52.4v30h-52.4z"/></g><g><defs><path id="eH" d="M137.9 280.4c-10.1 1.8-18.1 3.3-21.5 4-2.8.6-70 14.1-97.1 5.8-11.5-3.5-15.6-10-16.4-11.5.1-.1.1-.2.2-.3.4-.1 2 1.1 3.1 2.4.4.6 4.4 5.2 19.6 6.9 2.5.3 5.3.4 8.4.4 19.1 0 46.8-5.1 69.7-9.2l5.1-.9s-.1-.2-.1-.6c0-.4.2-1 .2-1l-5.4 1c-24.9 4.6-59.1 10.8-77.5 8.8-15.1-1.6-18.5-6.2-18.5-6.2-.6-.7-2.7-2.9-4.3-2.9-.5 0-.9.2-1.2.6l-.6.9c-.1.1-.1.2-.1.3-.5.4-.6 1.2-.5 2.1.3 2.6 2 5.6 4.6 7.6l.1.1c4.3 3.5 9.2 7.4 30.3 9.1 3.1.2 6.5.4 10.1.4 42 0 120.6-15.2 167.4-26.4v-.8c0-.6.1-.9.1-.9-50.6 12.2-139.3 29.2-177.4 26.1-20.6-1.6-25.3-5.4-29.5-8.7l-.1-.1c-2.2-1.7-3.7-4.2-4-6.3 2 2.8 6.6 7.7 16.3 10.6 6.5 2 15.1 2.7 24.7 2.7 31 0 71-8.1 73.2-8.5 3.3-.7 11.3-2.1 21.4-4 21.2-3.9 53.1-9.7 75.8-14.5 0 0 .1-.2.1-.8.1-.5.2-.9.2-.9-22.7 5-55 10.8-76.4 14.7"/></defs><clipPath id="eI"><use xlink:href="#eH" overflow="visible"/></clipPath><linearGradient id="eJ" gradientUnits="userSpaceOnUse" x1="-242.773" y1="462.439" x2="-241.83" y2="462.439" gradientTransform="matrix(226.2207 0 0 -226.2207 54921.184 104895.781)"><stop offset="0" stop-color="#b20a63"/><stop offset="1" stop-color="#c7006d"/></linearGradient><path clip-path="url(#eI)" fill="url(#eJ)" d="M.9 265.8h213.4v33.4H.9z"/></g><g><defs><path id="eK" d="M193.7 262.8s-.1.5-.2.9c-.2.6-.5.8-.5.8 9.2-1.5 16.7-2.8 22.8-4 0 0 .1-.3.3-.8l.5-1c-6 1.2-13.5 2.5-22.9 4.1"/></defs><clipPath id="eL"><use xlink:href="#eK" overflow="visible"/></clipPath><linearGradient id="eM" gradientUnits="userSpaceOnUse" x1="-237.403" y1="461.92" x2="-236.46" y2="461.92" gradientTransform="matrix(25.0845 0 0 -25.0845 6148.128 11848.67)"><stop offset="0" stop-color="#b20a63"/><stop offset="1" stop-color="#c7006d"/></linearGradient><path clip-path="url(#eL)" fill="url(#eM)" d="M193 258.7h23.7v5.8H193z"/></g><g><defs><path id="eN" d="M227.2 280.9c.7-2 3.5-4 4.9-4.9l1.6 4.1-7.5 7.1c0-1.6.2-4 1-6.3m-13.5 5.5c-3.3-1.2-4.5-2.7-4.8-3.2 0-.6.3-2.6 1.7-5.4.7-1.5 2.7-3.2 3.7-4 .8.6 2.4 1.5 5.9 2.2 1 .2 2.3.3 3.6.3 1.9 0 3.9-.2 5.5-.3-1.4 1.1-3 2.7-3.6 4.4-1.1 3.1-1.2 6.3-1.2 7.8-2.2-.2-8-.7-10.8-1.8m37.3-34.1c-3.3-2.4-6.9-3.6-9.5-4.2 4.5-1.2 7.9-1.9 8.2-1.9.3 0 4-.3 7.3 2 3.6 2.4 6.4 6.6 7.5 8.2l-6.9 4.3c-1.1-1.8-4.1-6.6-6.6-8.4m8-15.6c4.9-3.6 7.4-6.8 7.4-9.6 0-1.9-1.2-2.9-1.5-3.2l-1.2-1.2c.7 0 1.7.2 2.5 1 3.8 4.1 16.2 19.8 16.9 23.5.9 5.1-5.4 11.4-18.8 18.8-12.3 6.8-21.6 11-29.2 13.3l-1.8-4.8v-.1-.1s0-.1-.1-.1l-.1-.1h-.1s-.1 0-.1-.1h-.1-.2c-.1 0-8 1.2-11.9.5-3.8-.7-5-1.6-5.3-2 .1-4 1-8.9 2.4-12 2.1-4.9 12.1-8.8 20.4-11.3 1 .1 7.1.8 12.2 4.5 2.7 2 6.6 8.5 6.6 8.6.1.2.3.3.5.4h.2c.1 0 .3 0 .4-.1l8.2-5.1c.4-.2.5-.7.3-1.1-.1-.2-3.6-6.1-8.4-9.4-3.9-2.7-8.2-2.3-8.4-2.3-.3.1-2.7.5-6.1 1.4-.7-.8-2.2-2.6-3.2-3.8-.7-.8-.7-1.7-.6-2.3l1.3 1.1c.3.3 1.7 1.6 4.6 1.6 2.5-.2 6.9-1.4 13.2-6m2.8-15.2l-.1.1s-.1 0-.1.1c0 0-.1.1-.1.2 0 0 0 .1-.1.1V222.6s0 .1.1.1c0 0 0 .1.1.1 1.3 1.4 2.2 2.3 2.2 2.3l.1.1s.9.7.9 2c0 1.6-1.2 4.3-6.7 8.3-12.1 8.7-16.1 4.4-16.1 4.4l-.1-.1-2.2-1.9h-.1l-.1-.1h-.1H239.1 238.8s-.1 0-.1.1c-.1 0-.1.1-.2.1v.1l-.1.1c-.1.1-1.4 2.8.5 5.2.8 1 1.9 2.3 2.7 3.3-9 2.4-22.8 7-25.5 13.4-1.4 3.3-2.4 8.4-2.5 12.5-.9.7-3.5 2.8-4.5 4.8-1.8 3.8-1.8 6.2-1.8 6.3V284c.1.2 1.2 2.4 5.8 4.2 3.7 1.4 11.9 1.9 12.2 1.9H225.6s.1 0 .1-.1c0 0 .1 0 .1-.1l9.1-8.6c7.8-2.2 17.3-6.5 30-13.5 14.3-7.9 20.7-14.6 19.6-20.5-.8-4.3-13.9-20.6-17.3-24.3-1.1-1.2-2.4-1.6-3.5-1.6-.7-.3-1.4-.1-1.9.1"/></defs><clipPath id="eO"><use xlink:href="#eN" overflow="visible"/></clipPath><linearGradient id="eP" gradientUnits="userSpaceOnUse" x1="-241.65" y1="462.319" x2="-240.707" y2="462.319" gradientTransform="matrix(82.2109 0 0 -82.2109 20073.541 38263.07)"><stop offset="0" stop-color="#0064a2"/><stop offset=".012" stop-color="#0064a2"/><stop offset=".529" stop-color="#0066a4"/><stop offset=".775" stop-color="#006bac"/><stop offset=".964" stop-color="#0075b9"/><stop offset="1" stop-color="#0077bc"/></linearGradient><path clip-path="url(#eO)" fill="url(#eP)" d="M207.3 221.1h78.5v68.8h-78.5z"/></g><g><defs><path id="eQ" d="M125.4 276.3c2.1-2.6 5.8-3.6 7.4-3.8l.8 5.4-11.3 5c.5-1.8 1.6-4.7 3.1-6.6m-12.5 3.7c-2.2-1.8-2.3-2.7-2.3-2.9v-.1-.1s.4-2.4 2.5-5.4c1.4-2.1 3.9-3.2 5.2-3.7.5.8 1.7 1.4 3.5 1.9 2.4.7 5.5 1.3 7.9 1.8-1.8.7-4 1.8-5.5 3.7-1.9 2.4-3.2 6.4-3.7 8.1-1.7-.3-5.4-1.5-7.6-3.3m45.9-25.2c-1.6-2.4-4.3-4.2-6.4-5.3 5.1.1 9 .4 9.3.4.3.1 2.8.7 5.3 3.3 3.1 3.2 3.8 7.3 4 8.8l-8.1 1.5c-.4-1.4-1.7-5.1-4.1-8.7m9.8-11.7c5.6-1.9 8.8-4 9.6-6.3.4-1.1.1-1.9-.1-2.2 0-.1-.1-.2-.2-.5.7.1 1.7.6 2.7 2.4.8 1.4 1.3 2.3 1.8 3.2 1.1 1.8 2.2 3.6 5.1 9.2 4.4 8.3 6.4 13.9 2.9 15.9-4.7 2.7-13.9 5.6-24.4 7.7l-2.5.5c-8.8 1.8-19.7 4-28.5 4.6l-.9-6.1v-.1-.1l-.1-.1s0-.1-.1-.1h-.1-.1-.1c-.1 0-7.1-1.3-11.4-2.5-2.1-.6-2.6-1.1-2.6-1.3 1.1-4.9 3.6-10.2 6.1-12.8 3.6-3.7 14-4.6 22.7-4.7l.1.1c.1 0 6.4 2.1 9 6.1 2.9 4.3 4 9 4.1 9 .1.4.4.6.8.6h.1l9.5-1.7c.4-.1.7-.4.7-.8 0-.2-.1-6.1-4.5-10.6-3.1-3.1-6.1-3.8-6.2-3.8-.4 0-4.4-.4-9.7-.5-.3-.6-.9-1.7-2-3.5-.6-1.1-.4-1.8-.1-2.3.4.6.8 1 .9 1.1.3.5 1.5 2.3 5.9 2.3 2.6-.3 6.3-.9 11.6-2.7m8-10.4c-.1 0-.1 0 0 0-.1.1-.2.1-.2.2l-.1.1-.1.1V233.7l.5 1.5s0 .1.1.1c0 0 .2.4-.1 1-.4 1-2.1 3-8.6 5.3-13.5 4.6-15.6 1-15.6.9 0-.1-.1-.1-.1-.2 0 0-.6-.7-1.5-1.9 0 0-.1 0-.1-.1l-.1-.1s-.1 0-.1-.1c-.1 0-.1 0-.2-.1H150.1h-.1-.1c-1 .6-2.5 2.5-1 5 .7 1.2 1.2 2 1.5 2.7-9.4 0-21.7.8-25.9 5.2-2.7 2.8-5.2 8-6.5 13.2-1.2.4-4.5 1.7-6.4 4.5-2.1 3.1-2.6 5.5-2.7 6-.2.6-.2 2.1 2.8 4.6 3.1 2.5 8.6 3.8 8.9 3.9h.4l13.3-5.9c9-.6 20.2-2.9 29.3-4.7l2.5-.5c10.9-2.2 19.9-5.1 24.9-7.9 5.2-2.9 1.7-10.5-2.3-18-2.9-5.6-4-7.4-5.1-9.2-.5-.9-1.1-1.8-1.8-3.1-1.5-2.7-3.2-3.3-4.3-3.3-.4-.1-.9.2-.9.2"/></defs><clipPath id="eR"><use xlink:href="#eQ" overflow="visible"/></clipPath><linearGradient id="eS" gradientUnits="userSpaceOnUse" x1="-241.745" y1="462.337" x2="-240.802" y2="462.337" gradientTransform="matrix(90.0596 0 0 -90.0596 21880.426 41896.645)"><stop offset="0" stop-color="#0064a2"/><stop offset=".012" stop-color="#0064a2"/><stop offset=".529" stop-color="#0066a4"/><stop offset=".775" stop-color="#006bac"/><stop offset=".964" stop-color="#0075b9"/><stop offset="1" stop-color="#0077bc"/></linearGradient><path clip-path="url(#eR)" fill="url(#eS)" d="M108.8 232.4h87.6v52.7h-87.6z"/></g><g><defs><path id="eT" d="M103.3 94.1c-.1 0-.2.1-.3.1-.7.3-1.4 1-1.6 2.1-.2 1.3.5 2.8 1.5 3.7 2 1.7 12.7 3.8 15 2.9 1.2-.5 2.2-1.7 2.4-3 .2-1.1-.4-2-.9-2.6l-.2-.2c-1.9-1.7-9.2-3.4-13.5-3.4-1 0-1.8.1-2.4.4"/></defs><clipPath id="eU"><use xlink:href="#eT" overflow="visible"/></clipPath><linearGradient id="eV" gradientUnits="userSpaceOnUse" x1="-235.652" y1="462.283" x2="-234.709" y2="462.283" gradientTransform="scale(20.4258 -20.4258) rotate(-7.32 -3766.253 -1652.071)"><stop offset="0" stop-color="#7e7c7b"/><stop offset="1" stop-color="#b6b5b6"/></linearGradient><path clip-path="url(#eU)" fill="url(#eV)" d="M101.6 91.3l20.2 2.6-1.5 12.3-20.3-2.6z"/></g><g><path fill="#FFF" d="M119.1 97.5c.4.5.6.8.5 1.4-.1.9-.5 1.3-1.1 1.5-.9.4-6-1-6.9-1.9-.5-.5-.8-1.2-.7-1.9.1-.8.8-1.1.9-1.1 1.2-.5 6.2.8 7.3 2M245.7 61c.5 8.2-5.7 15.3-13.9 15.8s-15.3-5.7-15.9-13.9c-.5-8.2 5.7-15.3 13.9-15.9 8.3-.5 15.4 5.8 15.9 14"/><path fill="#C6C6C5" d="M229.7 44.8c-9.5.6-16.7 8.8-16.1 18.3.6 9.5 8.8 16.7 18.3 16.1 9.5-.6 16.7-8.8 16.1-18.3-.6-9.5-8.8-16.7-18.3-16.1m2.1 32.1c-8.2.5-15.3-5.7-15.9-13.9-.5-8.2 5.7-15.3 13.9-15.9 8.2-.5 15.3 5.7 15.9 13.9.5 8.2-5.7 15.3-13.9 15.9"/><path fill="#0080C8" d="M228.5 57.7l2.5-1v.2l-2.5 1v-.2zm-.9-5.4l.7-.3-.2-.1-.5.2v.2zm0-.9l-.2-.2v.2h.2zm.6 4.9l2.8-1.1V55l-2.8 1.1v.2zm-.4-2.4l1.6-.7-.2-.2-1.5.6.1.3zm.3 1.6l2.6-1-.2-.1-2.5 1 .1.1zm-.4-2.4l1.1-.5-.2-.2-1 .4.1.3zm.7 4l2.6-1v-.2l-2.7 1.1.1.1zm-.4-2.4l2.1-.8-.2-.2-2 .8.1.2zM223.3 56.2l-.7.7v-.3l.6-.6.1.2zm-.5-2.1l-.1.1v.3l.2-.2-.1-.2zm.2.9l-.4.4v.3l.4-.5V55zm.6 2.8l-1.1 1.2v.3l1.2-1.2-.1-.3zm-.1 5l1.1-1.1-.1-.2-1.2 1.3h.2zm.8-2l-.1-.2-1.7 1.8.2.1 1.6-1.7zm0 2.3l.6-.6-.1-.2-.7.8h.2zm-.5-4.3l-1.4 1.4v.3l1.4-1.5v-.2zm-.4-1.9l-.9.9v.3l.9-1v-.2zm1.7 6.5v-.3l-.2.2.2.1zm-1.1-3.7l-1.6 1.7v.3l1.7-1.7-.1-.3zM237.5 57.6l-1.2.8v-.2l1.2-.9v.3zm-1.2-5.3l-.2.2v.2l.4-.3-.2-.1zm1.2 1.1l-1.4 1v.2l1.5-1.1-.1-.1zm-.6-.5l-.8.6v.2l.9-.7-.1-.1zm-.1 7.8l-.4.3v.2l.4-.3v-.2zm1.4-6.6l-2 1.3v.2l2-1.4v-.1zm-.4 2.1l-1.5 1.1v.2l1.4-1 .1-.3zm-.5 2.2l-1 .7v.2l.9-.6.1-.3zm-.2 1.2l-.7.5v.2l.6-.5.1-.2zm.9-4.6l-1.8 1.3v.2l1.7-1.2.1-.3z"/><path fill="#E5007E" d="M232.7 58.7l-1.3-8-.2 6.6zM233.2 64.2l-2.2 1.5-5.4-2.1z"/><path fill="#0080C8" d="M233.4 63.9l3-6.1v3.9zM236.3 57.5l-2.1-7.1 1.8 1.7zM232.6 59l-1.6-1.5-2.5 1 .1.3z"/><path fill="#E5007E" d="M224.3 59.8l.6-8-1.8 1.9z"/><path fill="#0080C8" d="M224.4 60l1.1 3.1 2.7.2z"/><path fill="#E30521" d="M237.8 66.3l.6.9h-.1l-.5.1s-.1 0 0 0c0 0 0 .1.1.1h.7v.1l-.2.1-.9.2.1.1 2.6-.4-.1.1-.1.1-2.7.6.1.1s2.4-.4 2.4-.3l-.1.1h-.1l-1.8.4.1.1 1.5-.2h.1l-.1.1s0 .1-.1.1h-.1l-.9.2.1.1H239.3l.1.2-.5.1s0 .1.1.1h.7c0 .1.2.6.2.6v.1h-.1l-1.4-.6-1.2 1h-.1v-1.6l-1.2-.9s-.1-.1 0-.1 1.5-.5 1.5-.5l.5-1.4c-.2.3-.2.3-.1.3"/><path fill="#008FD3" d="M225.8 68.2l.6.9-.6.2s-.1 0 0 0c0 0 0 .1.1.1h.6l.1.1-1.1.3.1.1h.6l.1.1-1 .2.1.1c.1 0 1.2-.1 1.3-.1l.1.1-1 .3.1.1 1.3-.1.1.1-1 .3s0 .1.1.1l1.1-.1v.2l-.6.1s0 .1.1.1h.6v.7h-.1l-1.2-.5-1.2 1h-.1V71l-1.2-.9s-.1-.1 0-.1 1.5-.5 1.5-.5l.5-1.4c-.1.1-.1 0 0 .1 0-.1 0 0 0 0"/><path fill="#FBBE00" d="M228.8 67.7l.6.9-.6.2s0 .1.1.1h.6l.1.1-1.1.3.1.1h.6l.1.1-1 .2.1.1c.1 0 1.2-.1 1.3-.1l.1.1-1 .3.1.1 1.3-.1.1.1-1 .3s0 .1.1.1l1.1-.1v.2l-.6.1s0 .1.1.1h.6v.7h-.1l-1.2-.5-1.2 1h-.1v-1.6l-1.2-.9s-.1-.1 0-.1 1.5-.5 1.5-.5l.5-1.4c-.1.1-.1.1 0 .1"/><path fill="#00151D" d="M231.9 67.3l.6.9-.6.2s-.1 0 0 0c0 0 0 .1.1.1h.6l.1.1-1.1.3.1.1h.6l.1.1-1 .2.1.1c.1 0 1.2-.1 1.3-.1l.1.1-1 .3.1.1 1.3-.1.1.1-1 .3s0 .1.1.1l1.1-.1v.2l-.6.1s0 .1.1.1h.6v.7h-.1l-1.2-.5-1.2 1h-.1v-1.6l-1.2-.9s-.1-.1 0-.1 1.5-.5 1.5-.5l.5-1.4c-.2.1-.2 0 0 .1-.1-.1 0 0 0 0"/><path fill="#00914C" d="M234.8 66.8l.6.9-.6.2s0 .1.1.1h.7l.1.1-1.1.3.1.1h.6l.1.1-1 .2.1.1c.1 0 1.2-.1 1.3-.1l.1.1-1 .3.1.1 1.3-.1.1.1-1 .3s0 .1.1.1l1.1-.1v.2l-.6.2s0 .1.1.1h.6v.7h-.1l-1.2-.5-1.2 1h-.1v-1.6l-1.2-.9s-.1-.1 0-.1 1.5-.5 1.5-.5l.5-1.4c-.2 0-.2-.1-.1 0 0-.1 0 0 0 0"/></g></svg>