<svg xmlns="http://www.w3.org/2000/svg" xmlns:xlink="http://www.w3.org/1999/xlink" viewBox="0 0 344 314" enable-background="new 0 0 344 314"><defs><path id="a" d="M132.7 302c-.2-.3-.5-.7-.3-1.7.3-1.5 1.5-3.5 2.1-4.3 5.7-.3 12.4-.9 20.3-1.8 6.1-.7 11.5-1.4 16.1-2.3.5.3 2 1 2.7 2 .7.9.7 1.3.6 1.6-.2.5-1.1 1.6-6.2 2.7-10.8 2.3-20.9 4-27.8 4.7-1.1.1-2.1.2-3 .2-2.8-.1-4-.6-4.5-1.1m170.8-93.2c-4.9-2.9-8.9-5.2-12.3-7-.2-.7-.4-1.8 0-2.2.2-.2 1.2-.8 5.4 1.4 8.8 4.6 16.5 8.9 21.1 12 4 2.7 4.8 3.9 4.9 4.4 0 .1 0 .3-.5.8-.8.7-1.6 1-2 1.1-4.7-3.3-10.2-6.6-16.6-10.5m-159.3-35.7c0-.5.1-1.8.1-2.9 2.8 2.5 6.3 5.3 10.6 8.4-.3.5-.6.9-.9 1.4-.5-.7-1.3-1.5-2.4-2.2-2.7-1.7-4.9-1.9-6.4-1.7-.5-1.3-1-2.6-1-3M129.8 1.5c-4 2.5-4 5.5-.1 19.1l.9 3c1.2 4.3 2.1 7.2 1.9 8.3-.1.9-.6 1.5-1.5 2.2-1.2-1.4-4.6-5.7-11.8-15.1-4.8-6.3-8.3-9.2-11.1-9.2-2.1 0-3.3 1.6-3.9 2.3-2.5 3.2-4.6 12.3-2.9 28.1.6 5.8 2.9 17.4 3.3 19.4-.6 1.2-1.2 2.4-1.7 3.6-.2.5-.5 1-.7 1.6-.7 1.4-1.3 3.4-2 6.5-1.8 8.5-4.4 23.8-4.4 23.9V95.5c0 .2.7 3.7 2.9 7.5 1.4 2.4 3.4 4.9 4.2 5.9-.5.7-.9 1.5-1.1 2.4-1.3 3.9-.3 8.2 2.7 11.3 1.3 2 3.7 5.7 7.6 8.7 2.1 1.6 4.7 2 6.6 2 1 0 1.8-.1 2.2-.2 0 .8.1 2.3.4 4.2-.8 1.5-14.3 28.1-15.8 35.6-2.4 11.8 1.7 23 2.9 25.8-14.7 11.3-10.5 21-9.3 23.1-.4 1-1.5 3.6-2.2 7-.4 1.7-.6 3.1-.8 4.2l-30.8 46.6c0 .1-4.4 6.6-9.9 7.9-12.6 2.9-23.5-3.5-34.9-17.5-2.4-2.9-21.5 3.9-20.1 9.9.9 3.8 5.1 9.8 7.3 12.3 4.5 4.9 10 9.1 15.5 11.9 9.1 4.5 17.6 6.2 24.9 6.2 7.1 0 13.3-2 18.5-5.9 4.3-3.2 13.8-19.3 14.2-20l23.6-39.6c2.1.7 4.1 1.1 5.6 1.1h.1c1.5 0 3.8-.7 6.1-1.6h.1c.2.1 4.1 1.6 8.6 1.6 1.6 0 3.3-.2 4.9-.7 3-1 7.2-3.3 11.6-6.1.2 1.2.3 2.4.5 3.5-1.1.5-2.1 1.1-2.9 1.8-1.9 1.7-2.3 3.7-1 5.6 3.4 5.1 6.2 10.2 7.5 12.6-6.6-.6-13.4-1.1-17.4-.7-6.1.6-14.2 4.3-18.5 12.8-2.9 5.8-3.6 10.9-3.9 14.6-.2 2.8 2.1 5.4 4.2 5.8-1.2 1.7-3.2 5.2-4.1 8.4-.4 1.4 0 3.2 1.1 4.8 1.1 1.5 3.7 4.2 9.5 4.7 1.7.2 3.7.2 5.8.2 21.5 0 61.8-7.2 69-14.1 3.3-3.1-1-11.5-2.4-13.9 1.3-1.2 2.3-2.9 2.3-5 0-2.7-1.4-6.4-2.5-9-.3-.8-.6-1.4-.7-1.9-1.6-4.7-2.9-9.3-4-13.4-.5-1.7-.9-3.3-1.3-4.8 2.1-2.1 7.2-7.4 6.8-9.9-.2-.8-.6-1.4-1.3-1.9-1.6-1-4.3-.8-6.2-.5 4.4-7.5 16.1-17.8 26.4-23.9 5-3 8.1-4.8 9.5-5.5 7.1 17.4 18.2 36.9 25.6 39.3 2.1.7 4.2 1 6.4 1 2.9 0 5.8-.6 8.8-1.7.8.4 2.8 1.2 5.4 1.2 1.9 0 4-.4 6.3-1.6 5-2.7 6.6-7.8 7.2-11.2.7-.6 2.6-2.2 4.1-4 3.1 2.9 9.6 8.7 15.3 12.3 3.8 2.4 10.5 5.8 17.8 5.8 2 0 4-.2 6-.8 7.2-2.1 11.3-7.1 12.6-10.9.6-1.6.7-3.4.3-5 1.6-.3 4.9-1.1 7.3-2.9 1.1-.8 1.9-2.1 2-3.5.1-1.6-.4-4.1-3.8-7.4-12.2-11.9-48.7-33.5-57.6-32.7-3.9.3-4.6 6.8-4.7 9.2-1.9-.1-3.2.4-4.2 1.3-.5.4-1 .8-1.4 1.1-.7.6-1.3 1.1-2.1 1.6-.8 0-3.2 0-4.6-.3-1.5-.4-2.7-1.5-3.2-1.9-.5-3.2-1.1-6.3-1.8-9.4 3-.4 12.1-2.2 19.7-9.9 8.5-8.7 10.8-23.6 5.2-33.9-10.4-19.1-23.1-22.2-23.6-22.3-.3-.1-.6 0-.8.2-.2.2-.3.5-.3.8l1 4.8c-4.2-2.8-15.3-8.9-29.1-7.2-10.1 1.2-14.1 7.1-15.4 9.9-1.7-2.2-3.3-4.4-4.7-6.7 1.9-.6 3.8-1.1 5.8-1.7 5.7-1.7 11.6-3.4 18.1-5.5.8-.3 2.1-.7 3.8-1.2 18.6-5.6 38.2-12.1 41.9-17.2 7.7-10.8 1.3-20.3-5.5-30.4-1.3-1.9-2.5-3.8-3.6-5.7-4.8-7.8-9.4-15.1-17-15.1-6.9 0-14.6 4.9-20.7 9.7.5-1 1.1-2.2 1.7-3.6l.2-.4c1.5-3.5 3.2-7.4.5-11.4-2.3-3.3-5.7-4.9-10.9-7.3l-.4-.2c-2.5-1.1-4.6-2.1-6.5-3-4.7-2.2-8-3.7-12.4-5.2-4.6-1.6-8.7-1.5-11.7.2-2.3 1.3-3.8 3.5-4.5 6.6-.6 2.8-.8 5.4-.8 7-1.5-1.2-3.2-2.4-4.9-3.4h-.1c-4.2-5.6-9.1-11.7-13.9-16-9.3-8.4-24.9-21-35.5-21-1.9.3-3.7.7-5.3 1.7"/></defs><clipPath id="b"><use xlink:href="#a" overflow="visible"/></clipPath><radialGradient id="c" cx="-248.23" cy="454.269" r="1.042" gradientTransform="scale(284.4353 -284.4353) rotate(-34.406 -858.08 -174.614)" gradientUnits="userSpaceOnUse"><stop offset="0" stop-color="#fff"/><stop offset=".356" stop-color="#fff"/><stop offset=".544" stop-color="#f6f6f6"/><stop offset=".852" stop-color="#ddd"/><stop offset="1" stop-color="#cfcfcf"/></radialGradient><path clip-path="url(#b)" fill="url(#c)" d="M108.8-160.4l380.4 260.5-256 373.8-380.4-260.6z"/><defs><path id="d" d="M281.8 189.1c-2.2.2-2.9 5.2-3 7.7 2.5.5 5.8 1.7 10.4 4-.1-.9.1-1.9.8-2.5 1.3-1.2 3.7-.8 7.4 1.1 8.9 4.6 16.6 9 21.2 12.1 4 2.7 5.6 4.3 5.6 5.8.1 1.1-.6 1.8-1.1 2.2-.5.4-1 .8-1.5 1 4.1 2.9 7.3 5.8 9.8 8.7.8 1 1.4 2 1.8 3.1 1.4-.3 4.5-1 6.8-2.6.4-.3 1.1-1 1.2-2.2.1-1.2-.4-3.2-3.3-6-11.6-11.2-46.8-32.3-55.8-32.3 0-.1-.2-.1-.3-.1"/></defs><clipPath id="e"><use xlink:href="#d" overflow="visible"/></clipPath><linearGradient id="f" gradientUnits="userSpaceOnUse" x1="-250.257" y1="453.744" x2="-249.215" y2="453.744" gradientTransform="scale(73.7703 -73.7703) rotate(-31.526 -931.566 -224.395)"><stop offset="0" stop-color="#7d7b7a"/><stop offset=".638" stop-color="#b9b8b7"/><stop offset="1" stop-color="#8e8c8a"/></linearGradient><path clip-path="url(#e)" fill="url(#f)" d="M295.9 161.2l64.7 39.7-36.3 59.2-64.7-39.6z"/><defs><path id="g" d="M184.2 288.2c-2.6 1.2-6.2 2.3-10.7 3.3.5.4 1.1.9 1.5 1.4.4.4 1.4 1.8.9 3.3-.6 1.7-3 2.9-7.4 3.9-10.8 2.3-21 4-28 4.7-1.1.1-2.2.2-3.1.2-3 0-4.8-.5-5.9-1.6-.7-.8-1-1.9-.8-3.2.2-1.3 1-2.8 1.6-3.8-3 .1-5.7.2-8.3.2-4.8 0-8.7-.3-12.1-.8-.9 1.3-3.4 5.1-4.3 8.5-.2.7-.1 2 .9 3.3.9 1.3 3.1 3.5 8.2 3.9 19.8 1.7 66.5-6.7 73.4-13.4 1.9-1.8-.5-7.7-2.6-11.5-1.6.9-3 1.5-3.3 1.6"/></defs><clipPath id="h"><use xlink:href="#g" overflow="visible"/></clipPath><linearGradient id="i" gradientUnits="userSpaceOnUse" x1="-249.8" y1="453.522" x2="-248.757" y2="453.522" gradientTransform="scale(86.9406 -86.9406) rotate(-37.932 -788.532 -139.856)"><stop offset="0" stop-color="#7d7b7a"/><stop offset=".638" stop-color="#b9b8b7"/><stop offset="1" stop-color="#8e8c8a"/></linearGradient><path clip-path="url(#h)" fill="url(#i)" d="M139.3 245.5l65.5 51-44.8 57.6L94.5 303z"/><defs><path id="j" d="M276.3 216.7c-.4.3-1.1 1-.4 2.3 4.6 8.5 2.6 13.4 2 14.5v.5l1.3-1.3c.5-.9 4.9-8.8-1.5-16.2-.1-.1-.2-.1-.4-.1-.4 0-.7.1-1 .3"/></defs><clipPath id="k"><use xlink:href="#j" overflow="visible"/></clipPath><linearGradient id="l" gradientUnits="userSpaceOnUse" x1="-259.144" y1="449.902" x2="-258.102" y2="449.902" gradientTransform="scale(16.8017 -16.8017) rotate(-37.932 -794.903 -181.801)"><stop offset="0" stop-color="#585857"/><stop offset=".193" stop-color="#7a7877"/><stop offset="1" stop-color="#d9d9d9"/></linearGradient><path clip-path="url(#k)" fill="url(#l)" d="M278.6 212l14 11-11.9 15.3-14-11z"/><defs><path id="m" d="M153.5 255.8c-4.1.7-7.5 1.8-8.6 2.2 1.2 2.2 2.2 3.9 2.6 4.7 1.4-.4 4.9-1.2 9.1-1.7 3.2-.4 5.9-.1 8 .1 2.9.3 4.2.4 4.8-.8.6-1.2.4-3.3-.6-4-1.2-.7-4.5-1.1-8.1-1.1-2.3 0-4.9.2-7.2.6"/></defs><clipPath id="n"><use xlink:href="#m" overflow="visible"/></clipPath><linearGradient id="o" gradientUnits="userSpaceOnUse" x1="-251.316" y1="456.268" x2="-250.274" y2="456.268" gradientTransform="scale(51.404 -51.404) rotate(9.707 2592.565 1718.874)"><stop offset="0" stop-color="#585857"/><stop offset=".193" stop-color="#7a7877"/><stop offset="1" stop-color="#d9d9d9"/></linearGradient><path clip-path="url(#n)" fill="url(#o)" d="M143.7 255.4l25.7-4.4 1.9 11.4-25.7 4.4z"/><defs><path id="p" d="M269.7 241.7c-2.9 2.3-5.8 4.2-8.6 5.5 1.9.5 5.1.9 8.6-1 4.6-2.4 5.9-7.5 6.4-10.5-2.5 2.5-4.7 4.5-6.4 6m13.1-22.8c-.6.2-1 .4-1.2.6 1.5 3.4 1.4 6.7.8 9.2 1.6-1.9 3.6-4.3 3.7-4.5.3-.4.9-.4 1.2-.1.4.3.4.9.1 1.2 0 0-3.2 3.8-4.7 5.7 3 2.8 9.5 8.6 15.2 12.2.5.3 1 .6 1.6 1 1.2-.2 6.3-1.1 8.5-4.4 1.1-1.7 1.3-3.9.5-6.5-1-3.1-7.4-6.7-11.7-9.1-1.4-.8-2.5-1.4-3.4-2-4.6-2.9-7.6-3.7-9.4-3.7-.4.3-.8.3-1.2.4m-20.2-14.2c1.1-.5 2.7-1.4 4.2-2.3-.8-.1-1.7-.1-2.4-.3-.9-.2-1.7-.6-2.3-1 .1 1.1.3 2.4.5 3.6m11.3-5.5c-.5.4-.9.8-1.3 1.1-1.2 1-2.1 1.7-4.2 3.1-2 1.2-4.5 2.5-5.6 3.1.4 2.8.7 5.5 1 7.8 1.5.4 4.8 1.9 7.5 7.9 2.6 5.9 1.9 11.3.9 14.7 1.2-1.2 2.6-2.6 4-4.2.2-.4 2.4-4.7-2-12.9-1.1-2.1-.2-3.8.9-4.6 1.3-.9 2.9-.8 3.7.1.7.9 1.3 1.7 1.8 2.6.4-.3.8-.5 1.4-.7 2.8-.8 6.9.5 12.1 3.7.9.5 2 1.2 3.3 1.9 5.1 2.8 11.4 6.3 12.6 10.1 1 3.1.7 5.8-.7 8-1.8 2.8-5.1 4.1-7.5 4.7 4.9 2.4 11.6 4.4 18.3 2.5 7-2 10.5-7.1 11.4-9.7.9-2.7.3-5.7-1.7-8.1-5.2-6.3-14.3-12-27.5-20-5-3-9.1-5.3-12.5-7.1-7.2-3.8-11.1-4.9-13.3-4.9-1.2 0-1.9.4-2.6.9"/></defs><clipPath id="q"><use xlink:href="#p" overflow="visible"/></clipPath><linearGradient id="r" gradientUnits="userSpaceOnUse" x1="-249.328" y1="453.884" x2="-248.286" y2="453.884" gradientTransform="scale(108.1801 -108.1801) rotate(-37.932 -786.304 -139.77)"><stop offset="0" stop-color="#0075be"/><stop offset=".393" stop-color="#0075be"/><stop offset=".63" stop-color="#008ed4"/><stop offset=".822" stop-color="#009ee2"/><stop offset="1" stop-color="#009ee2"/></linearGradient><path clip-path="url(#q)" fill="url(#r)" d="M288.1 163.6l69.7 54.3-52.2 66.9-69.7-54.3z"/><defs><path id="s" d="M140.3 271.5c2.1 4 10.5 1.2 16.6-.8.9-.3 1.8-.6 2.6-.9 1.8-.6 2.4-2.3 2.6-3.3-3.8-.5-19.6-2.7-29.3-2.9 2.4 1.3 5.3 3.7 7.5 7.9m16.5-8.8c-1.6.2-3.2.4-4.5.7 4.4.5 8.1 1 9.9 1.3 0-.5-.1-1.3-.2-2.1-.7 0-1.4-.1-2.2-.1-.9.1-1.9.1-3 .2m6.4-12.6c-.3 0-.6.1-.9.1.2 1 .4 2.1.6 3.3 3 .1 5.6.5 7 1.3 1.9 1.2 2.3 4.3 1.2 6.3-1.2 2.3-3.6 2-6.6 1.7-.2 0-.4 0-.6-.1.1 1.8.2 2.9.2 2.9 0 .2-.1 4.6-4 5.8-.8.3-1.7.5-2.6.8-4 1.3-8.8 2.9-12.7 2.9-2.7 0-4.9-.8-6.1-3-3.8-7.3-9.7-8.5-10.6-8.6-5.7.6-13.1 4-17 11.8-2.7 5.5-3.4 10.4-3.7 14-.1 1.8 1.4 3.7 2.8 4 9 1.7 21.4 1.4 44.2-1 13.8-1.5 23.5-3.5 28.9-5.9.1 0 5.9-2 5.9-6.1 0-2.4-1.4-5.9-2.3-8.4-.3-.8-.6-1.5-.8-2-1.6-4.7-2.9-9.4-4-13.5-.5-1.9-1-3.7-1.5-5.3-.2-.5-1.1-.7-1.4-.7h-.1c-.1 0-4.2-.6-10.2-.6-1.5.1-3.6.1-5.7.3m-23-4.3c-1.6 1.4-1.2 2.6-.7 3.3 1.7 2.5 3.2 5.1 4.5 7.3.7-.3 4.5-1.6 9.3-2.4 2.1-.3 5-.6 7.8-.6-1.2-7.9-2.5-10-3.2-10.6-.7-.6-2.3-.9-4.3-.9-4.5.1-10.7 1.5-13.4 3.9M181 241c-.4.8-.6 1.6-.7 2.4-.2 1.4-.1 3.3.1 5.5.5.1 1 .4 1.4.7 3.1-3.1 6.1-6.9 5.9-7.9-.1-.3-.2-.5-.5-.7-.5-.3-1.4-.5-2.3-.5-1.3 0-2.8.2-3.9.5"/></defs><clipPath id="t"><use xlink:href="#s" overflow="visible"/></clipPath><linearGradient id="u" gradientUnits="userSpaceOnUse" x1="-249.707" y1="453.58" x2="-248.664" y2="453.58" gradientTransform="scale(90.8757 -90.8757) rotate(-37.932 -787.933 -139.454)"><stop offset="0" stop-color="#0075be"/><stop offset=".393" stop-color="#0075be"/><stop offset=".63" stop-color="#008ed4"/><stop offset=".822" stop-color="#009ee2"/><stop offset="1" stop-color="#009ee2"/></linearGradient><path clip-path="url(#t)" fill="url(#u)" d="M138.4 200.7l77.6 60.5-57.5 73.8-77.6-60.5z"/><defs><path id="v" d="M121.2 198.3c.7.2 1.3.3 2 .5 1.1.3 2.3.6 3.4.9.4-.6 1.2-1.8 1.8-3.3.2-.6.3-2.3.3-3.5-.7-.7-1.4-1.7-2-2.8l-5.5 8.2z"/></defs><clipPath id="w"><use xlink:href="#v" overflow="visible"/></clipPath><linearGradient id="x" gradientUnits="userSpaceOnUse" x1="-272.626" y1="444.343" x2="-271.584" y2="444.343" gradientTransform="scale(7.999 -7.999) rotate(-37.932 -810.158 -208.58)"><stop offset="0" stop-color="#c20a6c"/><stop offset=".472" stop-color="#e3097e"/><stop offset="1" stop-color="#e3097e"/></linearGradient><path clip-path="url(#w)" fill="url(#x)" d="M124 186.4l9.3 7.3-7.5 9.6-9.3-7.3z"/><defs><path id="y" d="M108.1 218l-41.6 62.4c-.2.3-4.7 7.7-10.9 8.8l-5.8.5s-8-.5-15.2-4.3c-9.7-5.1-11.7-13.4-16-14.6C14.1 269.5.1 276 1 279.3c2.9 9.7 6.3 15.3 22.8 23.2 17.3 8.4 31.6 8.1 41.6.6 4-3 13.6-19.3 13.7-19.5l35.3-59.1c-1.5-2.9-3.2-5.7-4.3-6.4-.3-.2-.6-.2-1-.2-.2-.1-.6 0-1 .1"/></defs><clipPath id="z"><use xlink:href="#y" overflow="visible"/></clipPath><linearGradient id="A" gradientUnits="userSpaceOnUse" x1="-249.733" y1="453.481" x2="-248.69" y2="453.481" gradientTransform="matrix(72.0664 56.1664 56.1664 -72.0663 -7469.121 46929.98)"><stop offset="0" stop-color="#c20a6c"/><stop offset=".472" stop-color="#e3097e"/><stop offset="1" stop-color="#e3097e"/></linearGradient><path clip-path="url(#z)" fill="url(#A)" d="M43.4 162.4L159.6 253 71.3 366.2l-116.2-90.5z"/><g><g opacity=".6"><defs><path id="B" d="M141.4 82.8h9.8v9.8h-9.8z"/></defs><clipPath id="C"><use xlink:href="#B" overflow="visible"/></clipPath><g clip-path="url(#C)"><defs><path id="D" d="M150.9 86.4c.7 2.6-.8 5.3-3.4 6-2.6.7-5.3-.8-6-3.4-.7-2.6.8-5.3 3.4-6 2.6-.7 5.3.8 6 3.4"/></defs><clipPath id="E"><use xlink:href="#D" overflow="visible"/></clipPath><radialGradient id="F" cx="-286.63" cy="479.423" r="1.042" gradientTransform="matrix(4.5095 -1.2454 -1.2454 -4.5095 2035.9 1892.72)" gradientUnits="userSpaceOnUse"><stop offset="0" stop-color="#81cff4"/><stop offset=".171" stop-color="#71c9f2"/><stop offset=".503" stop-color="#48b9ec"/><stop offset=".961" stop-color="#06a0e3"/><stop offset="1" stop-color="#009ee2"/></radialGradient><path clip-path="url(#E)" fill="url(#F)" d="M138 83.1l12.9-3.6 3.5 12.9-12.8 3.5z"/></g></g><path fill="#B2B2B1" d="M152.8 81.1c-2.4-2.7-5.1-3.4-8.4-2.3-1.8.6-4.3 1.9-6.2 5.2-1.8 3.2-1.7 7.5-.4 10.4 1.1 2.3 9.9 3.9 15.3-2.4 2.7-3 2.1-8.2-.3-10.9M145 95.3c-2.2.3-6.2-.1-6.6-2.5-1.4-8.1 4.3-10.9 6.4-11.4 3.6-.9 5.9.1 7.4 3.1 1.3 2.6 1.2 5.3-.4 7.3-1.6 2.1-3.9 3.1-6.8 3.5"/></g><g><defs><path id="G" d="M145.1 84.2c-2.7.7-3.5 7.4 2 6.3 0 0 2.3-.4 2.6-2.7.2-2-1.3-3.8-3.5-3.8-.4.1-.7.1-1.1.2"/></defs><clipPath id="H"><use xlink:href="#G" overflow="visible"/></clipPath><radialGradient id="I" cx="-304.467" cy="490.789" r="1.042" gradientTransform="matrix(3.0975 -.8555 -.8555 -3.0975 1509.194 1347.1)" gradientUnits="userSpaceOnUse"><stop offset="0" stop-color="#585857"/><stop offset=".39" stop-color="#444443"/><stop offset="1" stop-color="#1e1e1c"/></radialGradient><path clip-path="url(#H)" fill="url(#I)" d="M139.6 84.6l9.7-2.7 2.5 9.2-9.6 2.7z"/></g><g><path fill="#FFF" d="M147.8 85.9s-.4-1-1.1-.8c-.8.2-.5 1-.2 1.4.4.5 1.3.4 1.3-.6"/><g opacity=".6"><defs><path id="J" d="M108.7 82.8h6.5v9.3h-6.5z"/></defs><clipPath id="K"><use xlink:href="#J" overflow="visible"/></clipPath><g clip-path="url(#K)"><defs><path id="L" d="M113.1 84c1.5 1.5 2.5 4.9 2 6.5-.6 1.9-2.4 2.1-4.1.4-1.7-1.7-2.7-4.7-2.2-6.7.6-1.8 2.6-1.9 4.3-.2"/></defs><clipPath id="M"><use xlink:href="#L" overflow="visible"/></clipPath><radialGradient id="N" cx="-280.466" cy="513.767" r="1.042" gradientTransform="matrix(.9964 -3.3816 -2.9704 -2.9552 1917.498 657.285)" gradientUnits="userSpaceOnUse"><stop offset="0" stop-color="#81cff4"/><stop offset=".171" stop-color="#71c9f2"/><stop offset=".503" stop-color="#48b9ec"/><stop offset=".961" stop-color="#06a0e3"/><stop offset="1" stop-color="#009ee2"/></radialGradient><path clip-path="url(#M)" fill="url(#N)" d="M105.9 90.3l4-13.6 8 8-4 13.6z"/></g></g></g><g><defs><path id="O" d="M109.9 85.2c-.5 2 3.1 7.6 4.4 3.8 0 0 .6-1.6-.7-3.5-.7-1.1-1.6-1.6-2.3-1.6-.6.1-1.2.5-1.4 1.3"/></defs><clipPath id="P"><use xlink:href="#O" overflow="visible"/></clipPath><radialGradient id="Q" cx="-292.014" cy="541.655" r="1.042" gradientTransform="matrix(.5761 -2.3237 -2.1025 -1.9176 1419.196 447.093)" gradientUnits="userSpaceOnUse"><stop offset="0" stop-color="#585857"/><stop offset=".39" stop-color="#444443"/><stop offset="1" stop-color="#1e1e1c"/></radialGradient><path clip-path="url(#P)" fill="url(#Q)" d="M107.6 91.2l2.8-11.3 6.3 5.7-2.8 11.2z"/></g><g><path fill="#FFF" d="M113.3 85.9s-.4-1-1.1-.8c-.8.2-.6 1-.2 1.4.5.5 1.4.4 1.3-.6"/><path fill="#B2B2B1" d="M107.1 91.9c4 5.3 8.9 5.3 10.1 3.6 1.1-1.5-1.7-8.9-3.9-12.6-3.5-5.7-7.8-5.3-8.7-2.8-.8 2.6-.2 8.1 2.5 11.8m1.4.2c-1.8-2.5-3-4.9-2.7-8.1.3-2.4 1.3-4.2 3.3-3.1 4.2 2.3 8.2 11.3 7 13.7-.8 1.7-5.3.6-7.6-2.5"/></g><g><defs><path id="R" d="M255 49.8c-7.9 0-17.4 7.3-23.7 12.6-1.3 1.1-2.5 2.2-3.5 3-2.4 2.1-4.7 4.2-7.1 6.3-6.8 6-13.9 12.1-24.6 22.5-1.2 3.4-2.7 7-4.4 10.8-7.5 16.2-22.7 26.2-34.6 30.2-.8 1.1-1.7 2.2-2.6 3.4 1.4.7 8.1 3.1 17.8-1.4 5.6-2.6 10.8-4.7 15.7-6.6.1 0 .1-.1.1-.1 10.3-3.9 19.4-6.6 28.8-9.3 5.7-1.7 11.6-3.4 18-5.5.8-.3 2.2-.7 3.9-1.2 10.2-3.1 37.1-11.2 40.9-16.5 6.5-9.1 2.3-16.8-5.6-28.4-1.3-1.9-2.5-3.8-3.7-5.7-4.6-7.4-8.7-14.1-15.4-14.1z"/></defs><clipPath id="S"><use xlink:href="#R" overflow="visible"/></clipPath><linearGradient id="T" gradientUnits="userSpaceOnUse" x1="-248.136" y1="455.964" x2="-247.093" y2="455.964" gradientTransform="scale(141.6594 -141.6594) rotate(48.824 380.027 502.123)"><stop offset="0" stop-color="#0075be"/><stop offset=".393" stop-color="#0075be"/><stop offset=".63" stop-color="#008ed4"/><stop offset=".822" stop-color="#009ee2"/><stop offset="1" stop-color="#009ee2"/></linearGradient><path clip-path="url(#S)" fill="url(#T)" d="M108.9 101.9L211.6-15.5 331.9 89.7 229.2 207.2z"/></g><g><defs><path id="U" d="M195.6 28.5c-1.9 1.1-3.1 2.9-3.6 5.4-.8 3.7-.8 7-.8 8 5.7 4.7 9.5 9.1 9.6 9.2l.1.1c0 .1.1.1.1.2.2.7 4 15.4-3.6 39.1 9.4-9 15.9-14.6 22.2-20.2 2.4-2.1 4.7-4.1 7.1-6.2 1-.9 2.1-1.9 3.4-3 .2-.2 1.7-2 4.2-7.7l.2-.4c1.4-3.3 2.8-6.5.7-9.7-2-2.9-5.1-4.3-10.2-6.6l-.4-.2c-2.5-1.1-4.6-2.1-6.5-3-4.6-2.1-8-3.7-12.2-5.2-2-.7-3.9-1-5.7-1-1.7.1-3.3.5-4.6 1.2"/></defs><clipPath id="V"><use xlink:href="#U" overflow="visible"/></clipPath><linearGradient id="W" gradientUnits="userSpaceOnUse" x1="-248.877" y1="457.44" x2="-247.835" y2="457.44" gradientTransform="scale(63.4829 -63.4829) rotate(48.824 382.478 505.538)"><stop offset="0" stop-color="#0075be"/><stop offset=".393" stop-color="#0075be"/><stop offset=".63" stop-color="#008ed4"/><stop offset=".822" stop-color="#009ee2"/><stop offset="1" stop-color="#009ee2"/></linearGradient><path clip-path="url(#V)" fill="url(#W)" d="M159.9 63.2l51.3-58.6 57.4 50.2-51.3 58.6z"/></g><g><defs><path id="X" d="M137.9 156.1c6.3 2.5 13.6 2.8 18.8.7 5.1-2.1 10.7-6.9 16.4-13.9 2.4-3 4.8-5.3 6.9-7-2.2 1-4.6 2-7 3.1-4.7 2.2-8.7 2.8-11.9 2.8-4.8 0-7.6-1.5-7.9-1.7-3.1 3.6-6.7 7.1-9.9 8.2-1.6.6-3.3.8-4.9.8-2.7 0-5.2-.7-6.8-2.1-3.5-2.9-5.9-10.7-6.5-13-1-.1-1.9-.3-2.6-.4.2 3.9 1.5 16.8 15.4 22.5"/></defs><clipPath id="Y"><use xlink:href="#X" overflow="visible"/></clipPath><linearGradient id="Z" gradientUnits="userSpaceOnUse" x1="-249.465" y1="458.58" x2="-248.423" y2="458.58" gradientTransform="scale(46.347 -46.347) rotate(48.824 385.753 505.708)"><stop offset="0" stop-color="#0075be"/><stop offset=".393" stop-color="#0075be"/><stop offset=".63" stop-color="#008ed4"/><stop offset=".822" stop-color="#009ee2"/><stop offset="1" stop-color="#009ee2"/></linearGradient><path clip-path="url(#Y)" fill="url(#Z)" d="M110.1 147.9l37.4-42.7 45 39.4-37.4 42.7z"/></g><g><defs><path id="aa" d="M140.2 130.7c-.5.5-2.6 3.2-3.3 4.7-1.2 2.6-1 4.6-.9 5.3.9.9 2 1.4 3.3 1.3 4.8-.3 8.3-4.8 9.7-12.4.5-2.5.8-7.5 1.1-11-3.1 5-6.1 9.3-9.9 12.1"/></defs><clipPath id="ab"><use xlink:href="#aa" overflow="visible"/></clipPath><linearGradient id="ac" gradientUnits="userSpaceOnUse" x1="-246.845" y1="443.907" x2="-245.803" y2="443.907" gradientTransform="scale(-20.5021 20.5021) rotate(69.749 187.21 396.919)"><stop offset="0" stop-color="#c20a6c"/><stop offset=".472" stop-color="#e3097e"/><stop offset="1" stop-color="#e3097e"/></linearGradient><path clip-path="url(#ab)" fill="url(#ac)" d="M157.6 121.4l-9.3 25.3-20.2-7.5 9.4-25.2z"/></g><g><defs><path id="ad" d="M129.8 1.5c-3.9 2.5-4 5.5-.1 19.1l.9 3c1.2 4.3 2.1 7.2 1.9 8.3-.1.9-.6 1.5-1.5 2.2-1.2-1.4-4.6-5.7-11.8-15.1-4.8-6.3-8.3-9.2-11.1-9.2-2.1 0-3.3 1.6-3.9 2.3-2.5 3.2-4.6 12.3-2.9 28.1.6 5.8 2.9 17.4 3.3 19.4-.6 1.2-1.2 2.4-1.7 3.6-.2.5-.5 1-.7 1.5v.1c0 .1-.1.2-.1.2V65.3s0 .1.1.1c0 .1.1.1.1.2l.1.1.1.1h.1c.1 0 .2.1.3.1h.3c.1 0 .2-.1.2-.1h.1l.2-.2c.5-1.1 1.1-1.6 1.7-1.7 4.6-.7 12.5 19.1 16.3 31.7 0 0 0 .1.1.1 0 0 0 .1.1.1l.1.1s0 .1.1.1.1.1.2.1H123s.1 0 .1-.1c.1 0 .1 0 .2-.1l.1-.1.1-.1s0-.1.1-.2v-.2-.2-.1c-1.4-7.5-2.2-18.9-1.9-23.3.2-3.3 1-6.7 5.1-9.3 8.4-5.5 23.4-3 42.3 7.1 14.6 7.7 21.9 14.1 23.4 15.4 0 1.3-.2 5.9-1.2 10.7-1.6 7.8-6.1 17-6.1 17.1v.7c0 .1 0 .1.1.2 0 .1.1.1.1.1l.1.1s0 .1.1.1h.1c.1 0 .2.1.3.1.1 0 .2 0 .3-.1h.1c.1-.1.2-.1.3-.2 2-2.8 3.7-5.7 5.2-8.7 14.9-32.1 9.6-52.7 9.3-53.6 0-.1-.1-.1-.1-.2s0-.1-.1-.2-7.1-8.3-16.3-14h-.1c-4.2-5.6-9.1-11.7-13.9-16-9.3-8.4-24.9-21-35.5-21-2 .1-3.8.5-5.4 1.5"/></defs><clipPath id="ae"><use xlink:href="#ad" overflow="visible"/></clipPath><linearGradient id="af" gradientUnits="userSpaceOnUse" x1="-249.136" y1="455.558" x2="-248.093" y2="455.558" gradientTransform="scale(113.1506 -113.1506) rotate(15.545 1547.007 1142.831)"><stop offset="0" stop-color="#585857"/><stop offset=".317" stop-color="#878786"/><stop offset=".75" stop-color="#c2c2c2"/><stop offset=".957" stop-color="#d9d9d9"/><stop offset="1" stop-color="#d9d9d9"/></linearGradient><path clip-path="url(#ae)" fill="url(#af)" d="M70.2 8.3l128.7-35.8L236 106l-128.7 35.8z"/></g><g fill="#FFF"><path d="M174.9 48.9c-.1-.2-5.8-13.3-13.9-23-17.6-21.1-23.7-21.2-26.8-19.5-2.8 1.6-2.1 3.8-.3 9.1.2.7.5 1.4.7 2.2 2.7 8.1 7.7 20.3 7.8 20.4v.1c0 .1.1.1.1.2l.1.1.1.1c.1 0 .1.1.2.1h.1c.2 0 16.8 4.2 30.9 11.6.1.1.3.1.4.1.3 0 .6-.2.8-.5.1-.3.1-.7-.2-1M121.5 42.1v-.2-.1c-.1-.1-5.9-13.5-10.2-22.5-.9-1.9-1.9-2.9-2.9-3-.6-.1-1.2.2-1.5.6-2 2.6-1.1 12.1-.1 19.6 1.4 9.7 3.4 15.1 3.5 15.4v.1s0 .1.1.1c0 .1.1.1.1.2.1 0 .1.1.2.1h.4c.1 0 .2 0 .3-.1 0 0 .1 0 .1-.1.1 0 .1-.1.2-.2.7-.9 1.5-1.8 2.3-2.7 2-2.3 4.4-4.5 7.1-6.6.1 0 .1-.1.1-.1l.1-.1c0-.1 0-.1.1-.2v-.2c.1.1.1.1.1 0"/></g><g><defs><path id="ag" d="M237.2 131.8c-3.8 1.4-5.9 3.4-6.2 5.9-.7 5.8 8.6 12.1 9 12.3.3.2.7.2 1 0 .3-.2.4-.6.3-1-.3-.9-.9-3.5.2-4.9.5-.8 1.5-1.2 2.9-1.2h.1c5.6 0 9.4 5.3 10.6 10.7 1.5 6.4-6.6 8.7-7.1 8.8-.1 0-.2.1-.3.2-.2.1-.3.3-.3.6v.3c0 .1.1.2.2.3 1.8 2.3 3.3 4.9 4.7 7.8 0 .1.1.1.1.1v.1l.2.2h.1c.1 0 .2.1.2.1h.5c1.7 0 7.3-.5 13.1-5.9 5.2-4.9 5-11.3 5-11.6 0-.3-.2-.6-.4-.7-.2-.2-.6-.2-.8-.1l-3.4 1.5c2-5 2.6-12.8-5.3-18.4-3.7-2.6-10.1-6.3-17.4-6.3-2.2 0-4.6.3-7 1.2"/></defs><clipPath id="ah"><use xlink:href="#ag" overflow="visible"/></clipPath><linearGradient id="ai" gradientUnits="userSpaceOnUse" x1="-252.736" y1="456.067" x2="-251.694" y2="456.067" gradientTransform="matrix(38.9688 0 0 -38.9688 10079.815 17923.664)"><stop offset="0" stop-color="#585857"/><stop offset="1" stop-color="#d9d9d9"/></linearGradient><path clip-path="url(#ah)" fill="url(#ai)" d="M230.3 130.6h41.5v41.5h-41.5z"/></g><g><defs><path id="aj" d="M109.6 10.2h62.7v37.9h-62.7z"/></defs><clipPath id="ak"><use xlink:href="#aj" overflow="visible"/></clipPath><path clip-path="url(#ak)" fill="#EDEDED" d="M172.4 47.5c-1.9-4-6.6-13.2-12.7-20.5-7.6-9-13-14.2-16.9-16.9-.6 8.8.5 18.1 3.4 27.5 5 1.5 16 4.9 26.2 9.9M109.8 20.6c-.6 8.7.4 18 3.2 27.4 1.9-2.1 4.1-4.1 6.5-6.1-1.2-2.6-6-13.5-9.7-21.3"/><defs><path id="al" d="M113.3 13.7h17.6v27.4h-17.6z"/></defs><clipPath id="am"><use xlink:href="#al" overflow="visible"/></clipPath><path clip-path="url(#am)" fill="#EDEDED" d="M113.3 13.7l8.2 27.4 9.3-5.7s-4.8-5.9-6.1-7.3c-1.8-2.1-11.4-14.4-11.4-14.4"/><defs><path id="an" d="M162.3 196.1h55.5v54.8h-55.5z"/></defs><clipPath id="ao"><use xlink:href="#an" overflow="visible"/></clipPath><path clip-path="url(#ao)" fill="#EDEDED" d="M189.4 196.1s-9.4 13.4-14.8 18.8c-3.5 3.5-11 13.7-12.2 17.2-.7 2.1 1.8 9.1 5 16.8 0 0 5.8-.8 12.9 2 0 0-1.4-7.3-.8-8.6 2.9-6.1 16.6-19.5 21.9-23.6 3.5-2.7 16.4-9.2 16.4-9.2l-.5-6.1s-7.6-1.1-12.1-2.5c-2.9-.9-15.8-4.8-15.8-4.8"/><defs><path id="ap" d="M149.5 124.2h133.8v120.4H149.5z"/></defs><clipPath id="aq"><use xlink:href="#ap" overflow="visible"/></clipPath><path clip-path="url(#aq)" fill="#EDEDED" d="M181.4 142c1.2 7 4.3 13.7 2.1 28.3-1.9 12-19.6 42.5-20.7 44-5.2 6.8-13.3 19.4-13.3 19.4s24.1-18.4 33.2-37.3c4.2-8.9 6-16.8 6-16.8s6.2-6.1 9.5-14.5c.3-.7 2.4-9.3 2.4-9.3s4.2 7.2 10.2 14.5c1.7 2.1 9.1 9.9 9.1 9.9s5.2-7.8 13.7-7.1c5.7.5 7.7 3 9.7 8.3 3.1 8.4.2 23.4 3.3 31.8 1.7 4.6 5.1 14.9 9.5 17.1 2.3 1.1 10.2-1.5 10.2-1.5s4 2.2 1.7 8.7c-1.5 4.4-5.9 7.2-5.9 7.2 5.7-3 8.3-3.8 9.5-5.6 1.2-1.8.6-10-.8-12.9-2.3-5-2.3-7.5-7.8-11.3l-1-11.4-3-15.1s10.7-3.3 14.9-5.7c4.2-2.4 7.9-12.4 9-19.1 1.3-7.8-2.4-17-2.4-17l-5.9 4.8s1.7-4.8-2.2-12.5c-2.4-4.6-7.4-5.8-9.1-6.4-21.7-8.9-32.2 2.2-32.4 5.4-.2 3.8 8.8 11 8.8 11s-.5-7.5 4.3-6.7c1.6.3 12.9 12.3 3.6 16.2-1.9.8-7.7-3.2-7.7-3.2s-17.5-13.5-22.1-19.1c-2-2.4-7.4-11.7-7.4-11.7l-19.5 6.1c.1-.2-10.9 3.1-9.5 11.5"/><defs><path id="ar" d="M117.5 109.6h37.6v23.7h-37.6z"/></defs><clipPath id="as"><use xlink:href="#ar" overflow="visible"/></clipPath><g clip-path="url(#as)"><defs><path id="at" d="M131.2 111.4s2.8 9.6 10.1 8.2c4.6-.8 13.8-10.1 13.8-10.1l-2 .5s-5 11.2-6.5 13.2c-2.2 2.9-8.4 8.1-11.8 9.4-3 1.1-11 .5-13.9-.6-1-.4-3.4-4.2-3.4-4.2s11.6-4.4 13.3-7.9c1.1-1.9.4-8.5.4-8.5"/></defs><clipPath id="au"><use xlink:href="#at" overflow="visible"/></clipPath><linearGradient id="av" gradientUnits="userSpaceOnUse" x1="-251.312" y1="459.134" x2="-250.269" y2="459.134" gradientTransform="scale(36.1014 -36.1014) rotate(34.31 625.715 639.982)"><stop offset="0" stop-color="#fff"/><stop offset=".356" stop-color="#fff"/><stop offset=".629" stop-color="#f6f6f6"/><stop offset="1" stop-color="#e3e3e2"/></linearGradient><path clip-path="url(#au)" fill="url(#av)" d="M106.3 117.3l36.9-25.2 23.2 34-36.9 25.2z"/></g><defs><path id="aw" d="M155.9 10.4h45.4v123.2h-45.4z"/></defs><clipPath id="ax"><use xlink:href="#aw" overflow="visible"/></clipPath><path clip-path="url(#ax)" fill="#EDEDED" d="M199.6 50.4l-14-11c-2.7-3.8-5.4-7.3-7.2-9.4-4.4-5.4-22.5-19.5-22.5-19.5s10 11.6 14.2 20.2c2.2 4.5 10.5 32.3 10.5 32.3s3.9-.5 6.8-1.5c9.7 8.8 5.2 21.4.3 33.2-4 9.9-18.2 27-21.2 30.1-1.5 1.5-7.8 5.1-7.8 5.1l-1.1 3.8s26.9-7.7 36.8-37.7c2.6-7.8 6.3-23.5 6.8-31.7.3-3.4-1.6-13.9-1.6-13.9"/><g><defs><path id="ay" d="M113.3 13.7h17.6v27.4h-17.6z"/></defs><clipPath id="az"><use xlink:href="#ay" overflow="visible"/></clipPath><path clip-path="url(#az)" fill="#EDEDED" d="M113.3 13.7l8.2 27.4 9.3-5.7s-4.8-5.9-6.1-7.3c-1.8-2.1-11.4-14.4-11.4-14.4"/></g><g><defs><path id="aA" d="M103.8 230h45.7v15.2h-45.7z"/></defs><clipPath id="aB"><use xlink:href="#aA" overflow="visible"/></clipPath><path clip-path="url(#aB)" fill="#EDEDED" d="M149.5 233.6s-16.5 1.1-25.4.4c-2.9-.2-12.7-4-12.7-4l-7.6 13.6s4.7 1.8 6.6 1.6c1.6-.1 7.2-1.4 7.2-1.4s8.9 1.3 10.6 1.4c5.3.3 21.3-11.6 21.3-11.6"/></g><g><defs><path id="aC" d="M119.4 152.3h35.1v48.6h-35.1z"/></defs><clipPath id="aD"><use xlink:href="#aC" overflow="visible"/></clipPath><path clip-path="url(#aD)" fill="#EDEDED" d="M128.7 152.3l-7 11.5s11 4.4 12.4 6.4c7.3 10.2-2.8 14-4.4 14.4-1.8.5-10.3-2.2-10.3-2.2s2.6 6.6 2.3 8.5c-.4 2-1.8 7-1.8 7s5.2-4.7 7.1-3.9c1.4.6.7 6.8.7 6.8s3.4.2 4.1 0c4.1-1.1 11.1-5.5 14.2-8.3 2.3-2 8.5-11.5 8.5-11.5s-4.3-3.4-5.9-3.7c-1.1-.2-4.1-.1-4.1-.1s-1.3-2.7-1.5-4.2c-.1-.8.4-5 .4-5s-3.2-2.8-5.5-5.5c-1-1.1-4.9-7.8-4.9-7.8l-4.3-2.4z"/></g><g><defs><path id="aE" d="M142 133.6h39.6v25.7H142z"/></defs><clipPath id="aF"><use xlink:href="#aE" overflow="visible"/></clipPath><g clip-path="url(#aF)"><defs><path id="aG" d="M151 145.5c.9 3.2 6.8 4.1 6.8 4.1s1.9 4.5-9.4 7.8c-1 .3-6.4.8-6.4.8s10.2 3.7 19.1-2.5c4.4-3 20.5-22.1 20.5-22.1s-12.3 7.5-17.7 7.5c-5.2 0-10.7-2.9-10.7-2.9s-2.5 6-2.2 7.3"/></defs><clipPath id="aI"><use xlink:href="#aG" overflow="visible"/></clipPath><defs><filter id="aH" filterUnits="userSpaceOnUse" x="136.4" y="125.7" width="50.9" height="44.1"><feColorMatrix values="1 0 0 0 0 0 1 0 0 0 0 0 1 0 0 0 0 0 1 0"/></filter></defs><mask maskUnits="userSpaceOnUse" x="136.4" y="125.7" width="50.9" height="44.1" id="aK"><g filter="url(#aH)"><linearGradient id="aJ" gradientUnits="userSpaceOnUse" x1="-237.553" y1="449.201" x2="-236.51" y2="449.201" gradientTransform="scale(-19.1045 19.1045) rotate(11.768 2018.798 1339.905)"><stop offset="0" stop-color="#fff"/><stop offset=".245" stop-color="#ddd"/><stop offset=".783" stop-color="#888"/><stop offset="1" stop-color="#636363"/></linearGradient><path clip-path="url(#aI)" fill="url(#aJ)" d="M187.3 160.7l-43.7 9.1-7.2-35 43.6-9.1z"/></g></mask><linearGradient id="aL" gradientUnits="userSpaceOnUse" x1="-237.553" y1="449.201" x2="-236.51" y2="449.201" gradientTransform="scale(-19.1045 19.1045) rotate(11.768 2018.798 1339.904)"><stop offset="0" stop-color="#0075be"/><stop offset=".833" stop-color="#0097dc"/><stop offset="1" stop-color="#009ee2"/></linearGradient><path clip-path="url(#aI)" mask="url(#aK)" fill="url(#aL)" d="M187.3 160.7l-43.7 9.1-7.2-35 43.6-9.1z"/></g></g><g><defs><path id="aM" d="M107.1 124.2h12.6v8h-12.6z"/></defs><clipPath id="aN"><use xlink:href="#aM" overflow="visible"/></clipPath><path clip-path="url(#aN)" fill="#EDEDED" d="M116.1 127.7l-9-3.5s2.3 3.3 3.2 4.3c1.2 1.4 3.1 3.1 6.4 3.6.7.1 3 0 3 0l-3.6-4.4z"/></g><g><defs><path id="aO" d="M126.1 133.6h13.7v15.1h-13.7z"/></defs><clipPath id="aP"><use xlink:href="#aO" overflow="visible"/></clipPath><path clip-path="url(#aP)" fill="#EDEDED" d="M131.8 134.3s1.3 3.9 2 5.1c1.7 3.1 5.6 3.4 5.6 3.4s-.8 1.5-1 3.1c-.1 1.2 1.5 2.8 1.5 2.8s-5.6-1.1-6.9-2c-3.2-2-5-7-5.8-10.4-.2-.9-1-2.7-1-2.7l5.6.7z"/></g><g><defs><path id="aQ" d="M106.7 239.6h83.5v55.9h-83.5z"/></defs><clipPath id="aR"><use xlink:href="#aQ" overflow="visible"/></clipPath><g clip-path="url(#aR)"><defs><path id="aS" d="M180.5 240.1c-.3-.1-.7 9.3-1 9.2-4.5-1-6.4-.4-12.1-.4 3.6 5.5 3.9 6.2 6.2 11.9 1.6 3.9 5.6 17 3.5 20.7-1.7 3.1-22.3 6.1-29.8 7.1-15.7 2.1-40.3-2.6-40.3-2.6s-1 5.4 0 6.3c6.6 5.5 34.9 2.6 45.6 1.4 9.6-1 31.3-3.8 36.8-9.9 2.2-2.5-1.4-10.1-2.1-13.4-.6-2.7-3.7-11-5.6-18.3-.1-.5 6.9-9.9 6.8-10.4-.2-3.6-8-1.4-8-1.6"/></defs><clipPath id="aU"><use xlink:href="#aS" overflow="visible"/></clipPath><defs><filter id="aT" filterUnits="userSpaceOnUse" x="106.1" y="238.1" width="85.6" height="59.7"><feColorMatrix values="1 0 0 0 0 0 1 0 0 0 0 0 1 0 0 0 0 0 1 0"/></filter></defs><mask maskUnits="userSpaceOnUse" x="106.1" y="238.1" width="85.6" height="59.7" id="aW"><g filter="url(#aT)"><linearGradient id="aV" gradientUnits="userSpaceOnUse" x1="-250.11" y1="455.199" x2="-249.068" y2="455.199" gradientTransform="matrix(80.1104 0 0 -80.1104 20143.09 36734.082)"><stop offset="0" stop-color="#fff"/><stop offset=".313" stop-color="#fff"/><stop offset=".478" stop-color="#f8f8f8"/><stop offset=".72" stop-color="#e4e4e4"/><stop offset=".988" stop-color="#c7c7c7"/><stop offset="1" stop-color="#c7c7c7"/></linearGradient><path clip-path="url(#aU)" fill="url(#aV)" d="M106.1 238.1h85.6v59.7h-85.6z"/></g></mask><linearGradient id="aX" gradientUnits="userSpaceOnUse" x1="-250.11" y1="455.199" x2="-249.068" y2="455.199" gradientTransform="matrix(80.1104 0 0 -80.1104 20143.09 36734.082)"><stop offset="0" stop-color="#0075be"/><stop offset=".313" stop-color="#0075be"/><stop offset=".517" stop-color="#007cc4"/><stop offset=".816" stop-color="#0090d5"/><stop offset=".988" stop-color="#009ee2"/><stop offset="1" stop-color="#009ee2"/></linearGradient><path clip-path="url(#aU)" mask="url(#aW)" fill="url(#aX)" d="M106.1 238.1h85.6v59.7h-85.6z"/></g></g><g><defs><path id="aY" d="M261 197.2h72.3v52H261z"/></defs><clipPath id="aZ"><use xlink:href="#aY" overflow="visible"/></clipPath><g clip-path="url(#aZ)"><defs><path id="ba" d="M325.9 224.5c-7.8-7.8-27.8-17.8-37.6-22.7-2.7-1.3-9-4.9-12-4.6-1.6.2-5.1 4-8.6 4.4-2.5.3-5.1-3-6.6-1.7.3 3.4 2.1 14.9 2.1 14.9s2.8 1.3 6.6 6c2.7 3.4 1.9 18.2 1.9 18.2 1.3-.5 4.3-3.9 6.2-6.3 1-1.3-1.2-12.3-3-15.3-.3-.4 2.6-1.9 4-1.1 3.7 2.1 3.1 14.4 3.4 13.9 1.2-1.7 3.6-4.7 4.9-6 .6-.6 22 19.2 24 25 5.5.1 11.5-.5 14.6-2.3 2.8-1.6 7.6-8.1 7.6-11.3-.1-3.4-5.2-8.7-7.5-11.1"/></defs><clipPath id="bc"><use xlink:href="#ba" overflow="visible"/></clipPath><defs><filter id="bb" filterUnits="userSpaceOnUse" x="261" y="196.9" width="72.3" height="52.4"><feColorMatrix values="1 0 0 0 0 0 1 0 0 0 0 0 1 0 0 0 0 0 1 0"/></filter></defs><mask maskUnits="userSpaceOnUse" x="261" y="196.9" width="72.3" height="52.4" id="be"><g filter="url(#bb)"><linearGradient id="bd" gradientUnits="userSpaceOnUse" x1="-250.426" y1="455.34" x2="-249.383" y2="455.34" gradientTransform="matrix(69.3296 0 0 -69.3296 17622.918 31791.656)"><stop offset="0" stop-color="#fff"/><stop offset=".258" stop-color="#fff"/><stop offset=".44" stop-color="#ddd"/><stop offset=".839" stop-color="#888"/><stop offset="1" stop-color="#636363"/></linearGradient><path clip-path="url(#bc)" fill="url(#bd)" d="M261 196.9h72.3v52.4H261z"/></g></mask><linearGradient id="bf" gradientUnits="userSpaceOnUse" x1="-250.426" y1="455.34" x2="-249.383" y2="455.34" gradientTransform="matrix(69.3296 0 0 -69.3296 17622.918 31791.656)"><stop offset="0" stop-color="#0075be"/><stop offset=".258" stop-color="#0075be"/><stop offset=".876" stop-color="#0097dc"/><stop offset="1" stop-color="#009ee2"/></linearGradient><path clip-path="url(#bc)" mask="url(#be)" fill="url(#bf)" d="M261 196.9h72.3v52.4H261z"/></g></g><g><defs><path id="bg" d="M190.3 39.2h41.8v54.2h-41.8z"/></defs><clipPath id="bh"><use xlink:href="#bg" overflow="visible"/></clipPath><g clip-path="url(#bh)"><defs><path id="bi" d="M199.3 52.1c1.1 3.3 1.9 9.8 1.8 13.1-.2 6-4.7 28.1-4.7 28.1s15.1-15 19.1-18.3c3-2.5 13-11.1 13-11.1s4.5-11.2 3.4-14.1c-3.4-8.7-13.3-9.3-18.2-10.1-12.5-2.1-23.4 2.3-23.4 2.3"/></defs><clipPath id="bk"><use xlink:href="#bi" overflow="visible"/></clipPath><defs><filter id="bj" filterUnits="userSpaceOnUse" x="190.3" y="37.7" width="42.7" height="55.7"><feColorMatrix values="1 0 0 0 0 0 1 0 0 0 0 0 1 0 0 0 0 0 1 0"/></filter></defs><mask maskUnits="userSpaceOnUse" x="190.3" y="37.7" width="42.7" height="55.7" id="bm"><g filter="url(#bj)"><linearGradient id="bl" gradientUnits="userSpaceOnUse" x1="-252.633" y1="456.129" x2="-251.591" y2="456.129" gradientTransform="matrix(40.0742 0 0 -40.0742 10314.418 18344.545)"><stop offset="0" stop-color="#fff"/><stop offset=".245" stop-color="#ddd"/><stop offset=".783" stop-color="#888"/><stop offset="1" stop-color="#636363"/></linearGradient><path clip-path="url(#bk)" fill="url(#bl)" d="M190.3 37.7H233v55.7h-42.7z"/></g></mask><linearGradient id="bn" gradientUnits="userSpaceOnUse" x1="-252.633" y1="456.129" x2="-251.591" y2="456.129" gradientTransform="matrix(40.0742 0 0 -40.0742 10314.418 18344.545)"><stop offset="0" stop-color="#0075be"/><stop offset=".833" stop-color="#0097dc"/><stop offset="1" stop-color="#009ee2"/></linearGradient><path clip-path="url(#bk)" mask="url(#bm)" fill="url(#bn)" d="M190.3 37.7H233v55.7h-42.7z"/></g></g><g><defs><path id="bo" d="M153.2 89.8h81.6v51.8h-81.6z"/></defs><clipPath id="bp"><use xlink:href="#bo" overflow="visible"/></clipPath><g clip-path="url(#bp)"><defs><path id="bq" d="M194.8 94.9s-8 16.2-11.1 20.6c-9.7 13.6-26.1 18.1-26.1 18.1l-4.5 5.3s4 3.7 10.7 2.2c8.4-1.9 26.5-10.6 36.5-13.8 7.2-2.3 34.4-10.6 34.4-10.6s-5.9-23.2-11.6-26.3c-5.4-2.9-28.3 4.5-28.3 4.5"/></defs><clipPath id="bs"><use xlink:href="#bq" overflow="visible"/></clipPath><defs><filter id="br" filterUnits="userSpaceOnUse" x="153.2" y="87.5" width="81.6" height="55.2"><feColorMatrix values="1 0 0 0 0 0 1 0 0 0 0 0 1 0 0 0 0 0 1 0"/></filter></defs><mask maskUnits="userSpaceOnUse" x="153.2" y="87.5" width="81.6" height="55.2" id="bu"><g filter="url(#br)"><linearGradient id="bt" gradientUnits="userSpaceOnUse" x1="-250.146" y1="455.305" x2="-249.103" y2="455.305" gradientTransform="matrix(78.3271 0 0 -78.3271 19746.352 35777.855)"><stop offset="0" stop-color="#fff"/><stop offset=".245" stop-color="#ddd"/><stop offset=".783" stop-color="#888"/><stop offset="1" stop-color="#636363"/></linearGradient><path clip-path="url(#bs)" fill="url(#bt)" d="M153.2 87.5h81.6v55.2h-81.6z"/></g></mask><linearGradient id="bv" gradientUnits="userSpaceOnUse" x1="-250.146" y1="455.305" x2="-249.103" y2="455.305" gradientTransform="matrix(78.3271 0 0 -78.3271 19746.352 35777.855)"><stop offset="0" stop-color="#0075be"/><stop offset=".833" stop-color="#0097dc"/><stop offset="1" stop-color="#009ee2"/></linearGradient><path clip-path="url(#bs)" mask="url(#bu)" fill="url(#bv)" d="M153.2 87.5h81.6v55.2h-81.6z"/></g></g><g><defs><path id="bw" d="M29.6 216.9h85.6v91H29.6z"/></defs><clipPath id="bx"><use xlink:href="#bw" overflow="visible"/></clipPath><g clip-path="url(#bx)"><defs><path id="by" d="M108.6 216.9l-25.2 38.3-6.4 21.2s-7.4 17.1-12.5 20c-3 1.7-35 4.5-35 4.5s20.3 7 27.1 7c7.7.1 15.4-12.4 15.4-12.4l43.1-72s-2-3.5-3-4.5c-.9-.9-3.5-2.1-3.5-2.1"/></defs><clipPath id="bA"><use xlink:href="#by" overflow="visible"/></clipPath><defs><filter id="bz" filterUnits="userSpaceOnUse" x="29.6" y="216.9" width="85.6" height="91.1"><feColorMatrix values="1 0 0 0 0 0 1 0 0 0 0 0 1 0 0 0 0 0 1 0"/></filter></defs><mask maskUnits="userSpaceOnUse" x="29.6" y="216.9" width="85.6" height="91.1" id="bC"><g filter="url(#bz)"><linearGradient id="bB" gradientUnits="userSpaceOnUse" x1="-250.084" y1="455.188" x2="-249.042" y2="455.188" gradientTransform="matrix(82.1255 0 0 -82.1255 20567.87 37644.973)"><stop offset="0"/><stop offset="1" stop-color="#fff"/></linearGradient><path clip-path="url(#bA)" fill="url(#bB)" d="M29.6 216.9h85.6V308H29.6z"/></g></mask><linearGradient id="bD" gradientUnits="userSpaceOnUse" x1="-250.084" y1="455.188" x2="-249.042" y2="455.188" gradientTransform="matrix(82.1255 0 0 -82.1255 20567.867 37644.969)"><stop offset="0" stop-color="#b20a63"/><stop offset="1" stop-color="#c7006d"/></linearGradient><path clip-path="url(#bA)" mask="url(#bC)" fill="url(#bD)" d="M29.6 216.9h85.6V308H29.6z"/></g></g></g><g><defs><path id="bE" d="M196.10000000000002 94.19999999999999c0 .1 0 .1 0 0M194.8 26.9c-2.3 1.3-3.8 3.5-4.5 6.6-.6 2.9-.8 5.4-.8 7 .3.3.4.3.9.7.4.3.9.7.9.7 0-1.1 0-4.3.8-8 .5-2.5 1.7-4.4 3.6-5.4 2.5-1.4 6.2-1.4 10.3 0 4.2 1.5 7.6 3 12.2 5.2 1.9.9 4 1.9 6.5 3l.4.2c5.1 2.3 8.2 3.7 10.2 6.6 2.1 3.2.8 6.3-.7 9.7l-.2.4c-2.5 5.7-4 7.5-4.2 7.7-1.3 1.1-2.5 2.2-3.4 3-2.4 2.1-4.7 4.2-7.1 6.2-6.3 5.5-12.8 11.2-22.2 20.2 0 0-.2.7-.5 1.7l-.7 1.9c10.8-10.3 17.8-16.5 24.6-22.5 2.4-2.1 4.7-4.1 7.1-6.3 1-.9 2.2-1.9 3.5-3 6.3-5.4 15.7-12.6 23.7-12.6h.1c6.7 0 10.8 6.6 15.5 14.3 1.2 1.9 2.4 3.8 3.7 5.7 7.8 11.6 12.1 19.3 5.6 28.4-3.8 5.3-30.8 13.5-40.9 16.5-1.7.5-3 .9-3.9 1.2-6.4 2.1-12.3 3.8-18 5.5-9.4 2.7-18.5 5.4-28.8 9.3 0 0-.1 0-.1.1-4.9 1.9-10.1 4-15.7 6.6-9.8 4.5-16.4 2-17.8 1.4-.4.5-1.1 1.4-1.2 1.4.3.1 3.1 1.7 7.9 1.7 3.2 0 7.2-.7 11.9-2.8 2.4-1.1 4.7-2.1 7-3.1-2.1 1.8-4.5 4.1-6.9 7-5.7 7-11.3 11.8-16.4 13.9-5.1 2.1-12.5 1.8-18.8-.7-13.9-5.6-15.2-18.5-15.3-22.4-.6-.1-1.2-.2-1.8-.5 0 3.5 1.2 18.3 16.4 24.5 3.7 1.5 7.7 2.2 11.5 2.2 3.1 0 6.1-.5 8.6-1.5 5.4-2.2 11.2-7.1 17.1-14.4 6.7-8.2 13.3-11.2 14.2-11.6 10.3-3.9 19.4-6.6 28.8-9.3 5.7-1.7 11.6-3.4 18.1-5.5.8-.3 2.1-.7 3.8-1.2 18.6-5.6 38.2-12.1 41.9-17.2 7.7-10.8 1.3-20.3-5.5-30.4-1.3-1.9-2.5-3.8-3.6-5.7-4.8-7.8-9.4-15.1-17-15.1h-.6c-6.9 0-14.6 4.9-20.7 9.7.5-1 1.1-2.2 1.7-3.6l.2-.4c1.5-3.5 3.2-7.4.5-11.4-2.3-3.3-5.7-4.9-10.9-7.3l-.4-.2c-2.5-1.1-4.6-2.1-6.4-3-4.7-2.2-8-3.7-12.4-5.3-2.2-.8-4.3-1.2-6.3-1.2-2.1.1-4 .6-5.5 1.4"/></defs><clipPath id="bF"><use xlink:href="#bE" overflow="visible"/></clipPath><linearGradient id="bG" gradientUnits="userSpaceOnUse" x1="-248.826" y1="454.903" x2="-247.784" y2="454.903" gradientTransform="matrix(157.2827 0 0 -157.2827 39256.844 71641.227)"><stop offset="0" stop-color="#0064a2"/><stop offset=".012" stop-color="#0064a2"/><stop offset=".529" stop-color="#0066a4"/><stop offset=".775" stop-color="#006bac"/><stop offset=".964" stop-color="#0075b9"/><stop offset="1" stop-color="#0077bc"/></linearGradient><path clip-path="url(#bF)" fill="url(#bG)" d="M120.8 25.6H289v134.3H120.8z"/></g><g><defs><path id="bH" d="M107.5 107.7c-.1.1-.2.1-.3.2-.7.5-1.4 1.3-1.4 2.5 0 1.4.9 3 2.2 3.9 2.4 1.6 14.5 2.3 16.9 1 1.3-.7 2.2-2.2 2.2-3.6 0-1.3-.7-2.1-1.4-2.7-.1-.1-.2-.2-.3-.2-1.8-1.2-7.2-2-11.6-2-2.7 0-5.1.2-6.3.9"/></defs><clipPath id="bI"><use xlink:href="#bH" overflow="visible"/></clipPath><linearGradient id="bJ" gradientUnits="userSpaceOnUse" x1="-257.74" y1="456.926" x2="-256.697" y2="456.926" gradientTransform="matrix(20.4253 1.2541 0 -20.4253 5370.23 9767.106)"><stop offset="0" stop-color="#7e7c7b"/><stop offset="1" stop-color="#b6b5b6"/></linearGradient><path clip-path="url(#bI)" fill="url(#bJ)" d="M105.8 105.5l21.3 1.3v11.1l-21.3-1.3z"/></g><g><path fill="#FFF" d="M125.3 109.2c.5.5.8.8.8 1.5 0 1-.4 1.5-1 1.8-1 .5-6.7-.3-7.9-1.1-.6-.4-1.1-1.2-1-2 0-.9.7-1.3.8-1.4 1.3-.7 7 .1 8.3 1.2"/></g><g><defs><path id="bK" d="M261 247.2c2.9-1.3 5.7-3.2 8.6-5.5 1.8-1.4 3.9-3.4 6.3-6-.4 3-1.8 8-6.4 10.5-2 1.1-3.9 1.4-5.5 1.4-1.1 0-2.2-.2-3-.4m20.7-27.7c.2-.2.6-.4 1.2-.6 1.6-.4 4.8-.1 10.6 3.6.9.6 2.1 1.2 3.4 2 4.3 2.4 10.7 6 11.7 9.1.8 2.6.6 4.7-.5 6.5-2.2 3.3-7.2 4.2-8.5 4.4-.6-.3-1.1-.7-1.6-1-5.7-3.6-12.1-9.4-15.2-12.2 1.5-1.9 4.7-5.7 4.7-5.7.3-.4.3-.9-.1-1.2-.4-.3-.9-.3-1.2.1-.1.1-2.1 2.5-3.7 4.5.5-2.8.6-6.1-.8-9.5m-3.8 14c.6-1.1 2.6-6-2-14.5-.7-1.3-.1-2 .4-2.3.5-.4 1.2-.4 1.4-.2 6.4 7.4 2 15.3 1.5 16.2-.4.5-.9.9-1.3 1.3v-.5m-5.1-35.6c-.5.4-1 .8-1.4 1.1-.7.6-1.3 1.1-2.1 1.6-.8 0-3.2 0-4.6-.3-1.5-.4-2.7-1.5-3.2-1.9 0 0 .1.8.2 1.3.1.6.2 1.3.2 1.3.7.4 1.5.8 2.3 1 .7.2 1.6.3 2.4.3-1.5.9-3.1 1.8-4.2 2.3 0 0 0 .3.1.9.1.6.1 1 .1 1 1.1-.6 3.6-1.8 5.6-3.1 2.1-1.3 3-2.1 4.2-3.1.4-.3.8-.7 1.3-1.1 2.1-1.7 6.2-2.4 28.6 11.1 13.2 8 22.3 13.7 27.5 20 2 2.4 2.6 5.4 1.7 8.1-.9 2.7-4.3 7.8-11.4 9.7-6.7 1.9-13.5-.1-18.3-2.5 2.3-.6 5.6-1.9 7.5-4.7 1.5-2.2 1.7-4.9.7-8-1.2-3.8-7.5-7.3-12.6-10.1-1.3-.7-2.5-1.4-3.3-1.9-5.2-3.3-9.3-4.5-12.1-3.7-.6.2-1.1.4-1.4.7-.5-.9-1.1-1.7-1.8-2.6-.8-1-2.4-1-3.7-.1-1.1.8-2.1 2.5-.9 4.6 4.4 8.2 2.2 12.5 2 12.9-1.4 1.6-2.8 3-4 4.2 1-3.4 1.7-8.8-.9-14.7-2.7-6-5.9-7.5-7.4-7.9 0 0 0 .4.1 1s.1.9.1.9c1.3.6 3.6 2.2 5.6 6.7 3.7 8.2.1 15.7-.4 16.7-.3.2-.5.4-.7.6-3.5 2.8-6.8 4.8-10.2 6.1h-.1c-.1 0-.1.1-.2.1l-.1.1-.1.1v.1c0 .1 0 .1-.1.2V247.5c0 .1.1.1.1.2l.2.2c.1.1 2.5 1.4 5.8 1.4 1.9 0 4-.4 6.3-1.6 5-2.7 6.6-7.8 7.2-11.2.7-.6 2.6-2.2 4.1-4 3.1 2.9 9.6 8.7 15.3 12.3 3.8 2.4 10.5 5.8 17.8 5.8 2 0 4-.2 6-.8 7.2-2.1 11.3-7.1 12.6-10.9 1.1-3.3.4-6.9-2-9.8-5.4-6.5-14.6-12.3-28-20.4-15.1-9.1-22.6-12.2-26.8-12.2-1.4.1-2.6.6-3.6 1.4"/></defs><clipPath id="bL"><use xlink:href="#bK" overflow="visible"/></clipPath><linearGradient id="bM" gradientUnits="userSpaceOnUse" x1="-250.277" y1="455.295" x2="-249.235" y2="455.295" gradientTransform="matrix(73.0864 0 0 -73.0864 18549.668 33499.55)"><stop offset="0" stop-color="#0064a2"/><stop offset=".012" stop-color="#0064a2"/><stop offset=".529" stop-color="#0066a4"/><stop offset=".775" stop-color="#006bac"/><stop offset=".964" stop-color="#0075b9"/><stop offset="1" stop-color="#0077bc"/></linearGradient><path clip-path="url(#bL)" fill="url(#bM)" d="M257.8 196.6h76.8v54.1h-76.8z"/></g><g><defs><path id="bN" d="M140.3 271.5c-2.2-4.2-5.1-6.6-7.5-7.9 9.8.2 25.6 2.3 29.3 2.9-.2 1-.8 2.8-2.6 3.3-.8.3-1.7.5-2.6.9-3.9 1.3-8.6 2.8-12.1 2.8-2.1.1-3.7-.5-4.5-2m12-8.1c1.3-.3 2.9-.5 4.5-.7 1.9-.2 3.7-.2 5.2-.1.1.8.1 1.6.2 2.1-1.7-.2-5.4-.7-9.9-1.3m-7.4-5.4c1.1-.4 4.5-1.5 8.6-2.2 5.8-.9 13.4-.6 15.4.6 1 .6 1.2 2.8.6 4-.6 1.1-1.9 1.1-4.8.8-2.1-.2-4.8-.5-8-.1-4.2.5-7.7 1.3-9.1 1.7-.5-1-1.4-2.7-2.7-4.8m26.2 3.1c1-1.9.7-5.1-1.2-6.3-1.4-.8-4-1.2-7-1.3-.2-1.2-.4-2.3-.6-3.3.3 0 .6-.1.9-.1 9.2-.7 16.2.4 16.3.4h.1c.3 0 1.2.2 1.4.7.5 1.6.9 3.3 1.5 5.3 1.1 4.1 2.4 8.8 4 13.5.2.5.4 1.2.8 2 1 2.5 2.3 6 2.3 8.4 0 4.2-5.8 6.1-5.9 6.1-5.4 2.5-15.1 4.5-28.9 5.9-22.8 2.4-35.2 2.7-44.2 1-1.4-.3-3-2.1-2.8-4 .3-3.6.9-8.5 3.7-14 3.9-7.8 11.3-11.2 17-11.8.8.1 6.7 1.3 10.6 8.6 1.1 2.2 3.4 3 6.1 3 3.9 0 8.7-1.6 12.7-2.9.9-.3 1.8-.6 2.6-.8 3.9-1.2 4-5.6 4-5.8 0 0-.1-1.1-.2-2.9.2 0 .4 0 .6.1 1 .1 1.9.2 2.8.2 1.2-.1 2.6-.5 3.4-2m-31.6-12c-.5-.7-.9-1.9.7-3.3 3.9-3.5 15.2-5 17.6-2.9.7.6 2 2.8 3.2 10.6-2.8 0-5.6.2-7.8.6-4.8.8-8.5 2.1-9.3 2.4-1.2-2.3-2.7-4.8-4.4-7.4M182 239s-.4.5-.6 1c-.2.4-.4 1.1-.4 1.1 1.9-.5 5-.8 6.3-.1.3.2.4.4.5.7.2 1.1-2.8 4.8-5.9 7.9-.7-.6-1.5-.8-2.2-.8-.3-.1-7.3-1.1-16.7-.4-.4 0-.8.1-1.2.1-1.2-5.5-2.5-6.5-2.9-6.9-3.3-2.7-15.6-.9-19.9 3-1.9 1.7-2.3 3.7-1 5.6 3.4 5.2 6.2 10.2 7.5 12.6-6.6-.6-13.4-1.1-17.4-.7-6.1.6-14.2 4.3-18.5 12.8-2.9 5.8-3.6 10.9-3.9 14.6-.2 2.8 2.1 5.4 4.3 5.9 3.9.7 8.4 1.1 14 1.1 7.7 0 17.5-.7 30.8-2.1 13.9-1.5 23.8-3.5 29.4-6.1.6-.2 7.1-2.5 7.1-7.8 0-2.7-1.4-6.4-2.5-9-.3-.8-.6-1.4-.7-1.9-1.6-4.7-2.9-9.3-4-13.4-.5-1.7-.9-3.3-1.3-4.8 2.1-2.1 7.2-7.4 6.7-9.9-.2-.8-.6-1.4-1.3-1.9-.9-.5-2.1-.7-3.3-.7-1-.2-2.1-.1-2.9.1"/></defs><clipPath id="bO"><use xlink:href="#bN" overflow="visible"/></clipPath><linearGradient id="bP" gradientUnits="userSpaceOnUse" x1="-250.051" y1="455.187" x2="-249.008" y2="455.187" gradientTransform="matrix(81.9985 0 0 -81.9985 20609.533 37592.207)"><stop offset="0" stop-color="#0064a2"/><stop offset=".012" stop-color="#0064a2"/><stop offset=".529" stop-color="#0066a4"/><stop offset=".775" stop-color="#006bac"/><stop offset=".964" stop-color="#0075b9"/><stop offset="1" stop-color="#0077bc"/></linearGradient><path clip-path="url(#bO)" fill="url(#bP)" d="M105.5 238.7h85.7v57.6h-85.7z"/></g><g><defs><path id="bQ" d="M29.6 235.5c0 10 8.2 18.2 18.2 18.2S66 245.5 66 235.5s-8.2-18.2-18.2-18.2-18.2 8.1-18.2 18.2"/></defs><clipPath id="bR"><use xlink:href="#bQ" overflow="visible"/></clipPath><radialGradient id="bS" cx="-259.603" cy="457.799" r="1.042" gradientTransform="matrix(17.4756 0 0 -17.4756 4584.492 8235.78)" gradientUnits="userSpaceOnUse"><stop offset="0" stop-color="#fff"/><stop offset=".356" stop-color="#fff"/><stop offset=".544" stop-color="#f6f6f6"/><stop offset=".852" stop-color="#ddd"/><stop offset="1" stop-color="#cfcfcf"/></radialGradient><path clip-path="url(#bR)" fill="url(#bS)" d="M29.6 217.3H66v36.4H29.6z"/></g><g><defs><path id="bT" d="M31.3 235.5c0 9.1 7.4 16.4 16.4 16.4 9.1 0 16.4-7.4 16.4-16.4 0-9.1-7.4-16.4-16.4-16.4-9-.1-16.4 7.3-16.4 16.4"/></defs><clipPath id="bU"><use xlink:href="#bT" overflow="visible"/></clipPath><linearGradient id="bV" gradientUnits="userSpaceOnUse" x1="-240.443" y1="452.696" x2="-239.401" y2="452.696" gradientTransform="matrix(-30 -.5 -.5 30 -6921.849 -13465.336)"><stop offset="0" stop-color="#0075be"/><stop offset=".393" stop-color="#0075be"/><stop offset=".63" stop-color="#008ed4"/><stop offset=".822" stop-color="#009ee2"/><stop offset="1" stop-color="#009ee2"/></linearGradient><path clip-path="url(#bU)" fill="url(#bV)" d="M64.2 252.5l-33.4-.6.5-33.4 33.5.5z"/></g><g><defs><path id="bW" d="M34.8 222.7h30.1v30.2H34.8z"/></defs><clipPath id="bX"><use xlink:href="#bW" overflow="visible"/></clipPath><g clip-path="url(#bX)"><defs><path id="bY" d="M59.2 222.7s1 7.8-4.2 15.3c-6.9 9.8-20.2 7.8-20.2 7.8s4.9 9.9 18.3 6.3c4.6-1.2 11.1-10.2 11.6-14.9 1.1-8.9-5.5-14.5-5.5-14.5"/></defs><clipPath id="ca"><use xlink:href="#bY" overflow="visible"/></clipPath><defs><filter id="bZ" filterUnits="userSpaceOnUse" x="20.5" y="209.3" width="59.6" height="59.9"><feColorMatrix values="1 0 0 0 0 0 1 0 0 0 0 0 1 0 0 0 0 0 1 0"/></filter></defs><mask maskUnits="userSpaceOnUse" x="20.5" y="209.3" width="59.6" height="59.9" id="cc"><g filter="url(#bZ)"><linearGradient id="cb" gradientUnits="userSpaceOnUse" x1="-250.708" y1="453.623" x2="-249.665" y2="453.623" gradientTransform="scale(66.3225 -66.3225) rotate(-30.174 -972.834 -240.663)"><stop offset="0" stop-color="#fff"/><stop offset=".245" stop-color="#ddd"/><stop offset=".783" stop-color="#888"/><stop offset="1" stop-color="#636363"/></linearGradient><path clip-path="url(#ca)" fill="url(#cb)" d="M42.7 209.3L80.2 231 58 269.2l-37.5-21.8z"/></g></mask><linearGradient id="cd" gradientUnits="userSpaceOnUse" x1="-250.708" y1="453.623" x2="-249.665" y2="453.623" gradientTransform="scale(66.3225 -66.3225) rotate(-30.174 -972.834 -240.663)"><stop offset="0" stop-color="#0075be"/><stop offset=".833" stop-color="#0097dc"/><stop offset="1" stop-color="#009ee2"/></linearGradient><path clip-path="url(#ca)" mask="url(#cc)" fill="url(#cd)" d="M42.7 209.3L80.2 231 58 269.2l-37.5-21.8z"/></g></g><g><defs><path id="ce" d="M31.3 235.5c0-9.1 7.4-16.4 16.4-16.4 9.1 0 16.4 7.4 16.4 16.4 0 9.1-7.4 16.4-16.4 16.4-9 0-16.4-7.4-16.4-16.4m-1.7 0c0 10 8.2 18.2 18.2 18.2S66 245.5 66 235.5s-8.2-18.2-18.2-18.2-18.2 8.1-18.2 18.2"/></defs><clipPath id="cf"><use xlink:href="#ce" overflow="visible"/></clipPath><linearGradient id="cg" gradientUnits="userSpaceOnUse" x1="-253.572" y1="456.149" x2="-252.53" y2="456.149" gradientTransform="matrix(34.9512 0 0 -34.9512 8892.224 16178.434)"><stop offset="0" stop-color="#006db0"/><stop offset=".576" stop-color="#006fb2"/><stop offset=".851" stop-color="#0075ba"/><stop offset="1" stop-color="#007bc2"/></linearGradient><path clip-path="url(#cf)" fill="url(#cg)" d="M29.6 217.3H66v36.4H29.6z"/></g><g><path fill="#FFF" d="M261.6 83c.6 9.1-6.3 16.9-15.4 17.5-9.1.6-16.9-6.3-17.5-15.4-.6-9.1 6.3-16.9 15.4-17.5 9.1-.6 16.9 6.3 17.5 15.4"/><path fill="#C6C6C5" d="M243.9 65.1c-10.5.7-18.5 9.7-17.8 20.2.7 10.5 9.7 18.5 20.2 17.8 10.5-.7 18.5-9.7 17.8-20.2-.6-10.6-9.7-18.5-20.2-17.8m2.3 35.4c-9.1.6-16.9-6.3-17.5-15.4-.6-9.1 6.3-16.9 15.4-17.5 9.1-.6 16.9 6.3 17.5 15.4.6 9.1-6.3 16.9-15.4 17.5"/><path fill="#0080C8" d="M242.5 79.3l2.8-1.1v.2l-2.8 1.1v-.2zm-.9-5.9l.7-.3-.2-.2-.6.2.1.3zm0-1l-.2-.2v.2h.2zm.7 5.4l3-1.2v-.2l-3.1 1.2.1.2zm-.5-2.7l1.8-.7-.2-.2-1.7.7.1.2zm.3 1.8l2.9-1.2-.2-.2-2.8 1.1.1.3zm-.4-2.6l1.3-.5-.2-.2-1.1.5v.2zm.7 4.4l2.9-1.1v-.2l-2.9 1.2v.1zM242 76l2.4-.9-.2-.2-2.2.9v.2zM236.8 77.7l-.8.8v-.3l.7-.7.1.2zm-.5-2.3l-.1.2v.3l.2-.2-.1-.3zm.2 1l-.4.4v.3l.5-.5-.1-.2zm.7 3.1l-1.2 1.3v.3l1.3-1.3-.1-.3zM237 85l1.2-1.3-.1-.2-1.4 1.4.3.1zm1-2.2l-.1-.2-1.9 2 .2.1 1.8-1.9zm-.1 2.5l.7-.7-.1-.2-.8.8.2.1zm-.5-4.8l-1.5 1.6v.3l1.6-1.6-.1-.3zm-.4-2l-1 1v.3l1-1.1v-.2zm1.8 7.2l.1-.1-.1-.2-.2.2.2.1zm-1.2-4.2l-1.8 1.8v.3l1.8-1.9v-.2zM252.5 79.2l-1.3.9v-.3l1.4-1-.1.4zm-1.3-5.8l-.3.2v.3l.4-.3-.1-.2zm1.3 1.2l-1.5 1.1v.3l1.7-1.2-.2-.2zm-.6-.6l-.9.6v.3l1-.8-.1-.1zm-.1 8.7l-.5.3v.3l.4-.3.1-.3zm1.5-7.4l-2.2 1.4v.3l2.2-1.6v-.1zm-.5 2.3l-1.7 1.2v.3l1.6-1.1.1-.4zm-.5 2.6l-1.1.8v.3l1-.7.1-.4zm-.3 1.2l-.8.6v.3l.7-.5.1-.4zm1.1-5l-2 1.4v.3l1.9-1.4.1-.3z"/><path fill="#E5007E" d="M247.2 80.4l-1.4-8.8-.2 7.3zM247.7 86.5l-2.3 1.7-6.1-2.3z"/><path fill="#0080C8" d="M248 86.2l3.2-6.8.1 4.4zM251.2 79.2l-2.3-7.9 2 1.9zM247.1 80.8l-1.7-1.7-2.8 1.1.1.4z"/><path fill="#E5007E" d="M237.9 81.6l.7-8.8-2 2.1z"/><path fill="#0080C8" d="M238.1 81.9l1.1 3.4 3 .3z"/><path fill="#E30521" d="M252.9 88.9l.7 1v.1h-.1l-.6.1s-.1 0 0 0c0 0 0 .1.1.1s.7-.1.7-.1h.1s.1.1 0 .1l-.2.1-1 .3.1.1 2.8-.5-.1.1-.1.1-3 .6.1.1 2.6-.4-.1.1h-.1l-2 .5.1.1 1.6-.2h.1l-.1.1-.1.1h-.1l-1 .2.1.1h1l.1.2-.5.1s0 .1.1.1h.6s.1 0 .1.1.2.7.2.7v.1h-.2l-1.5-.6-1.3 1.1s-.1.1-.1 0v-1.8l-1.4-1s-.1-.1 0-.1 1.6-.5 1.6-.5l.5-1.6c.1.4.1.3.3.4-.1-.1 0 0 0 0"/><path fill="#008FD3" d="M239.6 91l.7 1v.1l-.6.2s-.1 0 0 0c0 0 0 .1.1.1s.7-.1.7-.1h.1l.1.1-1.2.3.1.1h.7l.1.1-1.1.3.1.1c.1 0 1.3-.2 1.4-.2l.1.1-1.1.3.1.1 1.5-.1.1.1-1.1.3.1.1 1.2-.1v.2l-.7.2s0 .1.1.1h.7v.8h-.1l-1.4-.6-1.3 1.1s-.1.1-.1 0v-1.8l-1.4-1s-.1-.1 0-.1 1.6-.5 1.6-.5l.5-1.6c-.1.3-.1.2 0 .3 0-.1 0 0 0 0"/><path fill="#FBBE00" d="M242.9 90.4l.7 1v.1l-.6.2s-.1 0 0 0c0 0 0 .1.1.1s.7-.1.7-.1h.1l.1.1-1.2.3.1.1h.7l.1.2-1.1.3.1.1c.1 0 1.3-.2 1.4-.2l.1.1-1.1.3.1.1 1.5-.1.1.1-1.1.3.1.1 1.2-.1v.2l-.7.2s0 .1.1.1h.7v.8h-.1l-1.4-.6-1.3 1.1s-.1.1-.1 0c-.1 0 0-.2 0-.2v-1.6l-1.4-1s-.1-.1 0-.1 1.6-.5 1.6-.5l.5-1.6c-.1.2-.1.2 0 .2"/><path fill="#00151D" d="M246.3 89.9l.7 1v.1l-.6.2s-.1 0 0 0c0 0 0 .1.1.1s.7-.1.7-.1h.1l.1.1-1.2.3.1.1h.7l.1.2-1.1.3.1.1c.1 0 1.3-.2 1.4-.2l.1.1-1.1.3.1.1 1.5-.1.1.1-1.1.3.1.1 1.2-.1v.2l-.7.2s0 .1.1.1h.7v.8h-.1l-1.4-.6-1.3 1.1h-.1c-.1 0 0-.2 0-.2v-1.6l-1.4-1s-.1-.1 0-.1 1.6-.5 1.6-.5l.5-1.6c-.2.2-.2.1 0 .2-.1-.1 0 0 0 0"/><path fill="#00914C" d="M249.6 89.4l.7 1v.1l-.6.2s-.1 0 0 0c0 0 0 .1.1.1s.7-.1.7-.1h.1l.1.1-1.2.3.1.1h.7l.1.1-1.1.3.1.1c.1 0 1.3-.2 1.4-.2l.1.1-1.1.3.1.1 1.5-.1.1.1-1.1.3.1.1 1.2-.1v.2l-.7.2s0 .1.1.1h.7v.8h-.1l-1.4-.6-1.3 1.1s-.1.1-.1 0v-1.8l-1.4-1s-.1-.1 0-.1 1.6-.5 1.6-.5l.5-1.6c-.2.3-.2.2 0 .3 0-.1 0 0 0 0"/></g><g><defs><path id="ch" d="M132.7 302c-.2-.3-.5-.7-.3-1.7.3-1.5 1.5-3.5 2.1-4.3 5.7-.3 12.4-.9 20.3-1.8 6.1-.7 11.5-1.4 16.1-2.3.5.3 2 1 2.7 2 .7.9.7 1.3.6 1.6-.2.5-1.1 1.6-6.2 2.7-10.8 2.3-20.9 4-27.8 4.7-1.1.1-2.1.2-3 .2-2.8-.1-4-.6-4.5-1.1m7.7 2.6c7-.6 17.2-2.4 28-4.7 4.5-1 6.9-2.2 7.4-3.9.5-1.5-.5-2.8-.9-3.3s-1-1-1.5-1.4c4.5-1 8.1-2.1 10.7-3.3.3-.1 1.8-.6 3.3-1.7 2.1 3.8 4.4 9.8 2.6 11.5-6.9 6.6-53.6 15.1-73.4 13.4-5.1-.4-7.3-2.7-8.2-3.9-.9-1.3-1.1-2.6-.9-3.3.9-3.4 3.4-7.3 4.3-8.5 3.4.5 7.4.8 12.1.8 2.5 0 5.2-.1 8.3-.2-.6 1.1-1.4 2.5-1.6 3.8-.2 1.3 0 2.4.8 3.2 1 1.1 2.9 1.6 5.9 1.6.9.1 1.9.1 3.1-.1m-.1-33.1c-2.2-4.2-5.1-6.6-7.5-7.9 9.8.2 25.6 2.3 29.3 2.9-.2 1-.8 2.8-2.6 3.3-.8.3-1.7.5-2.6.9-3.9 1.3-8.6 2.8-12.1 2.8-2.1.1-3.7-.5-4.5-2m12-8.1c1.3-.2 2.9-.5 4.5-.7 1.9-.2 3.7-.2 5.2-.1.1.8.1 1.6.2 2.1-1.7-.2-5.4-.7-9.9-1.3m-7.4-5.4c1.1-.4 4.5-1.5 8.6-2.2 5.8-.9 13.4-.6 15.4.6 1 .6 1.2 2.8.6 4-.6 1.1-1.9 1.1-4.8.8-2.1-.2-4.8-.5-8-.1-4.2.5-7.7 1.3-9.1 1.7-.5-1-1.4-2.7-2.7-4.8m26.2 3.1c1-1.9.7-5.1-1.2-6.3-1.4-.8-4-1.2-7-1.3-.2-1.2-.4-2.3-.6-3.3.3 0 .6-.1.9-.1 9.2-.7 16.2.4 16.3.4h.1c.3 0 1.2.2 1.4.7.5 1.6.9 3.3 1.5 5.3 1.1 4.1 2.4 8.8 4 13.5.2.5.4 1.2.8 2 1 2.5 2.3 6 2.3 8.4 0 4.2-5.8 6.1-5.9 6.1-5.4 2.5-15.1 4.5-28.9 5.9-22.8 2.4-35.2 2.7-44.2 1-1.4-.3-3-2.1-2.8-4 .3-3.6.9-8.5 3.7-14 3.9-7.8 11.3-11.2 17-11.8.8.1 6.7 1.3 10.6 8.6 1.1 2.2 3.4 3 6.1 3 3.9 0 8.7-1.6 12.7-2.9.9-.3 1.8-.6 2.6-.8 3.9-1.2 4-5.6 4-5.8 0 0-.1-1.1-.2-2.9.2 0 .4 0 .6.1 1 .1 1.9.2 2.8.2 1.2-.1 2.6-.5 3.4-2m-31.6-12c-.5-.7-.9-1.9.7-3.3 3.9-3.5 15.2-5 17.6-2.9.7.6 2 2.8 3.2 10.6-2.8 0-5.6.2-7.8.6-4.8.8-8.5 2.1-9.3 2.4-1.2-2.3-2.7-4.8-4.4-7.4m40.9-.3c-.3-2.2-.3-4.1-.1-5.5.1-.7.3-1.5.7-2.4 1.9-.5 5-.8 6.3-.1.3.2.4.4.5.7.2 1.1-2.8 4.8-5.9 7.9-.4-.2-1-.4-1.5-.6m80.6-1.6c2.9-1.3 5.7-3.2 8.6-5.5 1.8-1.4 3.9-3.4 6.3-6-.4 3-1.8 8-6.4 10.5-2 1.1-3.9 1.4-5.5 1.4-1.1 0-2.2-.2-3-.4m-162.4-18c.8-3.6 1.9-6.3 2.2-6.9 1.3-1.1 2.9-2.2 4.4-3.1l-6.6 10m183.1-9.7c.2-.2.6-.4 1.2-.6 1.6-.4 4.8-.1 10.6 3.6.9.6 2.1 1.2 3.4 2 4.3 2.4 10.7 6 11.7 9.1.8 2.6.6 4.7-.5 6.5-2.2 3.3-7.2 4.2-8.5 4.4-.6-.3-1.1-.7-1.6-1-5.7-3.6-12.1-9.4-15.2-12.2 1.5-1.9 4.7-5.7 4.7-5.7.3-.4.3-.9-.1-1.2-.4-.3-.9-.3-1.2.1-.1.1-2.1 2.5-3.7 4.5.5-2.8.6-6.1-.8-9.5M108.1 218c.8-.2 1.5-.2 2 .1 1.1.7 2.8 3.5 4.3 6.4l-35.2 59.1c-.1.2-9.7 16.5-13.7 19.5-14.6 10.9-33.9 3.2-41.6-.6-11.2-5.6-20-15.7-21.7-21.9-.4-1.3-.4-2.3 0-2.9.9-1.4 9.7-6.2 14.7-6.5.9-.1 2 0 2.5.6 8.3 10 18.7 20.4 36.2 17.6 6.3-1 10.8-8.3 11-8.6l28.5-43.1 13-19.7zm169.8 15.5c.6-1.1 2.6-6-2-14.5-.7-1.3-.1-2 .4-2.3.5-.4 1.2-.4 1.4-.2 6.4 7.4 2 15.3 1.5 16.2-.4.5-.9.9-1.3 1.3v-.5M262 201c.7.4 1.5.8 2.3 1 .7.2 1.6.3 2.4.3-1.5.9-3.1 1.8-4.2 2.3-.1-1.1-.3-2.4-.5-3.6m41.5 7.8c-4.9-2.9-8.9-5.2-12.3-7-.2-.7-.4-1.8 0-2.2.2-.2 1.2-.8 5.4 1.4 8.8 4.6 16.5 8.9 21.1 12 4 2.7 4.8 3.9 4.9 4.4 0 .1 0 .3-.5.8-.8.7-1.6 1-2 1.1-4.7-3.3-10.2-6.6-16.6-10.5m-32.2 13.4c-2.7-6-6-7.5-7.5-7.9-.3-2.3-.6-5-1-7.8 1.1-.6 3.6-1.8 5.6-3.1 2.1-1.3 3-2.1 4.2-3.1.4-.3.8-.7 1.3-1.1 1.6-1.3 4.5-2.1 16.1 4 3.4 1.7 7.5 4.1 12.5 7.1 13.2 8 22.3 13.7 27.5 20 2 2.4 2.6 5.4 1.7 8.1-.9 2.7-4.3 7.8-11.4 9.7-6.7 1.9-13.5-.1-18.3-2.5 2.3-.6 5.6-1.9 7.5-4.7 1.5-2.2 1.7-4.9.7-8-1.2-3.8-7.5-7.3-12.6-10.1-1.3-.7-2.5-1.4-3.3-1.9-5.2-3.3-9.3-4.5-12.1-3.7-.6.2-1.1.4-1.4.7-.5-.9-1.1-1.7-1.8-2.6-.8-1-2.4-1-3.7-.1-1.1.8-2.1 2.5-.9 4.6 4.4 8.2 2.2 12.5 2 12.9-1.4 1.6-2.8 3-4 4.2.9-3.4 1.5-8.8-1.1-14.7M143 238.1c7-4.6 14.4-10.3 18.6-13.8 6.2-5.3 18.3-19.2 22.3-28.1.2-.3.3-.7.5-1.1 15.6 6.4 28.9 9 31.6 9.5l1.2 3.3c-1.3.7-4.4 2.5-9.7 5.7-13 7.8-27.8 21.3-28.9 29.5-.2 1.5-.2 3.3.1 5.5-2.3-.3-8.2-.8-15.6-.3-.4 0-.8.1-1.2.1-1.2-5.5-2.5-6.5-2.9-6.9-2.4-2-9.9-1.5-15.3.5-.3-1.3-.5-2.6-.7-3.9m-19.8-39.3c-.7-.2-1.3-.4-2-.5l5.5-8.3c.6 1.1 1.3 2.1 2 2.8 0 1.2-.1 2.9-.3 3.5-.6 1.5-1.4 2.7-1.8 3.3-1.2-.2-2.3-.5-3.4-.8m14.7-5c1.3-.5 4-1.8 5.4-4 .2.3.4.7.5.9.3.9 0 1.9-.1 2.3-3.9 2.9-8.6 5.3-12.6 7-.6.2-1.6.2-2.7 0 .5-.8 1.1-1.8 1.6-3 .3-.7.4-2.1.4-3.1 1.1.4 2.3.6 3.5.6 1.4 0 2.9-.3 4-.7m140.9 3c.1-2.5.8-7.5 3-7.7 8.4-.6 44.5 20.9 56.2 32.3 2.9 2.8 3.3 4.8 3.3 6-.1 1.2-.8 1.9-1.2 2.2-2.2 1.6-5.4 2.4-6.8 2.6-.4-1.1-1-2.1-1.8-3.1-2.5-3-5.7-5.8-9.8-8.7.5-.2 1-.5 1.5-1 .5-.4 1.2-1.2 1.1-2.2-.1-1.5-1.7-3.1-5.6-5.8-4.6-3.1-12.3-7.5-21.2-12.1-3.8-1.9-6.1-2.3-7.4-1.1-.7.7-.9 1.6-.8 2.5-4.8-2.2-8.1-3.4-10.5-3.9m-133.3-6.7c-.3-.9-1.1-1.9-1.4-2.3 0-.2.1-.4.1-.6.1-2.4-.2-5.6-1-8.9.5-.1 1.2-.1 1.9.3 1.3.6 2.3 1.9 3 4 .6 1.8.9 4.1 1 4.9-.1.2-.3.4-.4.6-.8 1.1-1.8 2.2-2.9 3.2l-.3-1.2m4.3-8c-.6-1.8-1.5-3.2-2.6-4.2 1 .2 2.1.6 3.4 1.4 1.3.8 2 1.8 2.4 2.3-.8 1.3-1.6 2.5-2.5 3.8-.1-1-.3-2.2-.7-3.3m-5.6-9c0-.5.1-1.8.1-2.9 2.8 2.5 6.3 5.3 10.6 8.4-.3.5-.6.9-.9 1.4-.5-.7-1.3-1.5-2.4-2.2-2.7-1.7-4.9-1.9-6.4-1.7-.5-1.3-1-2.6-1-3m-37 .1c1.2-6.1 11.4-26.6 14.6-33.2 1.2 4.7 4.1 10.7 10.4 15 .4 1.2 2.3 6 10.4 13.6-.1 1-.2 3.6-.2 4.4 0 .8.6 2.3 1.1 3.5-.3 0-.6 0-.8.1-1.2-4.3-3.2-8.4-5.7-10.4-3.6-2.7-10.7-3-11-3-.5 0-.9.4-.9.8 0 .5.4.9.9.9.1 0 6.9.3 10 2.7 4.2 3.2 6.8 13.8 6.5 19.4-.2 2.8-3.9 4.5-5.1 5-2.1.8-5.6.8-7.2-.4-.9-.7-2-2.8-3-4.5-.5-1-1-1.9-1.5-2.6-1.3-1.9-4.8-2.7-5.2-2.8-.5-.1-1 .2-1.1.7-.1.5.2 1 .7 1.1.8.2 3.4 1 4.2 2.1.4.5.8 1.4 1.3 2.4 0 .1.1.2.1.3l-6.3 9.6c-3.6-.8-7.1-1.3-9.5-.2-1.3-3.1-4.9-13.7-2.7-24.5m30.7-17.1c-13.9-5.6-15.2-18.6-15.3-22.4.7.2 1.6.3 2.6.4.6 2 3 10 6.6 13 1.7 1.4 4.2 2.1 6.8 2.1 1.6 0 3.3-.3 4.9-.8 3.2-1.1 6.8-4.6 9.9-8.2.3.1 3.1 1.7 7.9 1.7 3.2 0 7.2-.7 11.9-2.8 2.4-1.1 4.7-2.1 7-3.1-2.1 1.8-4.5 4.1-6.9 7-5.7 7-11.3 11.8-16.4 13.9-2.3.9-5 1.4-7.9 1.4-3.8-.1-7.6-.8-11.1-2.2M113.1 130c-1.7-1.3-3.1-2.7-4.3-4.2 3.3 1.7 6.8 2.7 7.8 2.9l2.5 2.8h-.5c-1.6.1-3.7-.2-5.5-1.5m44.3 28.4c5.4-2.2 11.2-7.1 17.1-14.4 6.6-8.2 13.3-11.2 14.2-11.6 7.5-2.9 14.4-5.1 21.3-7.1 4.6 7.4 10.5 14.1 18.5 21.2 2.5 2.2 4.9 4.1 7.1 5.9 8.7 6.9 15.5 12.4 20.5 29 3.1 10.3 5 24.4 6.1 33.6v.1c0 .1 0 .2.1.3.6 5.2.9 8.8.9 8.9 0 .5.4.8.9.8h.1c.5 0 .9-.5.8-1 0-.1-.3-3.2-.8-7.9 1.3.6 3.6 2.1 5.6 6.7 3.7 8.3.1 15.7-.4 16.7-.3.2-.5.4-.7.6-8.7 6.9-17.2 9.3-24.6 6.9-7.1-2.3-19.7-24.6-26.6-43.5 0-.1 0-.1-.1-.2-1.3-3.6-2.4-7-3.2-10.1a.8.8 0 0 0-1.1-.6c-.5.1-.8.6-.6 1.1.7 2.7 1.6 5.7 2.8 8.9-4.1-.8-16.2-3.4-30.2-9.2 7.2-18.3 15.9-59 16-59.5.1-.5-.2-.9-.7-1.1-.5-.1-.9.2-1.1.7-.1.4-9 42.3-16.2 59.9-.3.6-.5 1.3-.8 1.8-3.9 8.7-15.7 22.3-21.8 27.5-6.8 5.8-23.4 18.1-31.2 20.7-3.8 1.2-8.1.4-10.5-.2 3.4-1.4 6.3-3 6.6-3.1.4-.2.6-.8.4-1.2-.2-.4-.8-.6-1.2-.4-2.9 1.5-11.2 5.5-14.5 5.5-1.3 0-3-.3-4.7-.9l10.1-16.9c.4.9.8 1.8 1.1 2.5.2.5.7.7 1.2.5.5-.2.7-.7.5-1.2-.4-1-4.3-9.9-7.1-11.6-1-.6-2.3-.6-3.6-.2-.1 0-.2 0-.3.1-2.7.8-5.5 2.9-7 4-1.2-2.6-3.6-10.8 9.7-20.7 2.5-1.9 8.2-.3 12.7.9 3.9 1 7.3 1.9 9.1 1.1 4.1-1.8 9-4.3 13.1-7.3.1 0 .1-.1.1-.1 2-1.5 3.8-3.2 5.1-5 2.4-3.4 4.7-6.9 6.7-10.3 6.1-10.2 10.2-19.3 10.2-19.4.2-.4 0-1-.5-1.2-.4-.2-1 0-1.2.5-.1.1-3.9 8.6-9.6 18.4-13.8-9.9-19-17.1-20.9-20.5.8.4 1.5.8 2.4 1.1 3.7 1.5 7.7 2.2 11.5 2.2 3.2-.2 6.2-.7 8.7-1.7m100.3 22.5c-5.1-17.2-12.1-22.8-21.1-29.9-2.3-1.8-4.6-3.7-7.1-5.8-4.6-4.1-8.5-8.1-11.9-12.2.7-1.8 4-8.4 14.4-9.7 16.7-2 29.5 8.1 29.6 8.2.3.2.7.3 1 .1.3-.2.5-.6.4-.9l-1.1-5.5c3.5 1.3 13.1 6.2 21.1 21 5.2 9.5 3 23.8-4.9 31.8-7.2 7.4-16.2 9.1-18.8 9.4-.4-2.4-1-4.5-1.6-6.5M136 140.6c-.1-.7-.2-2.7.9-5.3.7-1.5 2.8-4.1 3.3-4.7 3.8-2.8 6.8-7.1 9.8-12.1-.2 3.5-.6 8.5-1.1 11-1.4 7.5-5 12.1-9.7 12.4h-.3c-1.1.1-2.1-.5-2.9-1.3m18.5-1.9c1-1.2 1.9-2.4 2.6-3.4 11.8-4 27.1-14 34.6-30.2 1.7-3.8 3.2-7.4 4.4-10.8 10.8-10.3 17.8-16.5 24.6-22.5 2.4-2.1 4.7-4.1 7.1-6.3 1-.9 2.2-1.9 3.5-3 6.3-5.4 15.7-12.6 23.7-12.6h.1c6.7 0 10.8 6.6 15.5 14.3 1.2 1.9 2.4 3.8 3.7 5.7 7.8 11.6 12.1 19.3 5.6 28.4-3.8 5.3-30.8 13.5-40.9 16.5-1.7.5-3 .9-3.9 1.2-6.4 2.1-12.3 3.8-18 5.5-9.4 2.7-18.5 5.4-28.8 9.3 0 0-.1 0-.1.1-4.9 1.9-10.1 4-15.7 6.6-4.4 2-8.2 2.6-11.1 2.6-3.8-.2-6.1-1.1-6.9-1.4M201 51.5s0-.1 0 0c0-.1-.1-.1-.1-.2s-.1-.1-.1-.2c-.2-.2-4-4.6-9.6-9.2 0-1.1 0-4.3.8-8 .5-2.5 1.7-4.4 3.6-5.4 2.5-1.4 6.2-1.4 10.3 0 4.2 1.5 7.6 3 12.2 5.2 1.9.9 4 1.9 6.5 3l.4.2c5.1 2.3 8.2 3.7 10.2 6.6 2.1 3.2.8 6.3-.7 9.7l-.2.4c-2.5 5.8-4 7.5-4.2 7.7-1.3 1.1-2.5 2.2-3.4 3-2.4 2.1-4.7 4.2-7.1 6.2-6.3 5.5-12.8 11.2-22.2 20.2 7.6-23.8 3.8-38.5 3.6-39.2M103.1 40c-1.6-15.3.3-24 2.5-26.9.8-1 1.5-1.7 2.5-1.7 1.5 0 4.4 1.5 9.7 8.5 7.1 9.3 10.4 13.5 11.7 15.1l-.9.6c-.6.3-9.1 5-15.9 12.6-3.2 3.6-5.3 6.4-6.7 8.9-.8-3.9-2.4-12.4-2.9-17.1m-2.9 62.1c-1.8-3.1-2.5-6.1-2.7-6.8.3-1.6 2.7-15.7 4.4-23.7.4-2 1-4.4 1.8-6 .3-.5.5-1.1.7-1.6 1.9-4 3.6-7.9 9.5-14.4 6.7-7.5 15.3-12.2 15.4-12.3.3-.2.7-.4 1-.7 1.7-1.1 3.5-2.3 3.8-4.5.2-1.4-.6-4-2-9l-.9-3C127.1 5.8 128 4.5 130.5 3c6.4-4 20.9 3.2 38.6 19.4 11.3 10.3 23.9 30.8 24.1 31 .2.3.5.4.8.4.2 0 .3 0 .5-.1.4-.3.5-.8.3-1.2-.1-.1-3-4.9-7.4-11.1 6.3 4.7 11 9.9 11.8 10.8.5 2.1 4.7 22.2-9.3 52.2-6.8 14.7-20.1 24.1-31.2 28.4.7-1.1 1.2-1.8 1.3-1.9.3-.4.1-1-.3-1.2-.4-.3-1-.1-1.2.3-.1.1-9.3 14.5-15.9 16.8-3.6 1.3-7.8.9-10-1-2.8-2.4-5-8.9-5.8-11.4h1.2c.8 0 1.7 0 2.6-.1.4 1.7 1.5 5.4 3.7 7.7 1.1 1.2 2.5 2 4.3 2h.4c5.6-.4 9.8-5.4 11.4-13.8.7-3.9 1.2-13.3 1.3-14.8 1-1.8 1.7-3.5 2.1-4.4.3 0 .7 0 1.1-.2 1.1-.3 1.5-1.3 1.5-1.4.2-.5-.1-1-.5-1.1-.5-.2-1 .1-1.1.5 0 0-.1.2-.3.3-.5.1-1 .1-1 .1-.4-.1-.8.2-1 .5 0 0-1.8 4.2-3.8 7.5-3.9 6.3-7.5 11.8-12.7 13.9-1.6.7-3.2 1-4.7 1.3h-.1-.1c-4.9.7-9-.5-9.9-.8l-2.8-3.1c4.9-1.6 8.3-3.4 10.7-5.6 3.3-3 3.7-6.1 3.5-8.2-.3-3.1-2.1-5.3-2.7-5.9-3-3.4-10.1-4.6-15.3-4.6-2.2 0-4.2.2-5.6.6-2 .3-3.9 1.3-5.3 2.8-.6-1.2-2.3-3.4-3.5-5.5M129.8 1.5c-4 2.5-4 5.5-.1 19.1l.9 3c1.2 4.3 2.1 7.2 1.9 8.3-.1.9-.6 1.5-1.5 2.2-1.2-1.4-4.6-5.7-11.8-15.1-4.8-6.3-8.3-9.2-11.1-9.2-2.1 0-3.3 1.6-3.9 2.3-2.5 3.2-4.6 12.3-2.9 28.1.6 5.8 2.9 17.4 3.3 19.4-.6 1.2-1.2 2.4-1.7 3.6-.2.5-.5 1-.7 1.6-.7 1.4-1.3 3.4-2 6.5-1.8 8.5-4.4 23.8-4.4 23.9V95.5c0 .2.7 3.7 2.9 7.5 1.4 2.4 3.4 4.9 4.2 5.9-.5.7-.9 1.5-1.1 2.4-1.3 3.9-.3 8.2 2.7 11.3 1.3 2 3.7 5.7 7.6 8.7 2.1 1.6 4.7 2 6.6 2 1 0 1.8-.1 2.2-.2 0 .8.1 2.3.4 4.2-.8 1.5-14.3 28.1-15.8 35.6-2.4 11.8 1.8 23 2.9 25.8-14.7 11.3-10.5 21-9.3 23.1-.4 1-1.5 3.6-2.2 7-.4 1.7-.6 3-.8 4.2l-30.8 46.5c0 .1-4.3 6.9-9.8 7.8-16.6 2.7-26.6-7.4-34.6-17-.8-.9-2.1-1.3-3.9-1.2-5.2.3-14.8 5.2-16.1 7.4-.7 1-.7 2.5-.2 4.3 1.8 6.6 11 17.2 22.6 23.1 4.9 2.4 14.4 6.4 24.5 6.4 6.4 0 13-1.6 18.9-6 4.3-3.2 13.8-19.3 14.2-20l20.7-34.6 3-5c2.1.7 4.1 1.1 5.6 1.1h.1c1.5 0 3.8-.7 6.1-1.6h.1c.2.1 4.1 1.6 8.6 1.6 1.6 0 3.3-.2 4.9-.7 3-1 7.2-3.3 11.6-6.1.2 1.2.3 2.4.5 3.5-1.1.5-2.1 1.1-2.9 1.8-1.9 1.7-2.3 3.7-1 5.6 3.4 5.1 6.2 10.2 7.5 12.6-6.6-.6-13.4-1.1-17.4-.7-6.1.6-14.2 4.3-18.5 12.8-2.9 5.8-3.6 10.9-3.9 14.6-.2 2.8 2.1 5.4 4.2 5.8-1.2 1.7-3.2 5.2-4.1 8.4-.4 1.4 0 3.2 1.1 4.8 1.1 1.5 3.7 4.2 9.5 4.7 1.7.2 3.7.2 5.8.2 21.5 0 61.8-7.2 69-14.1 3.3-3.1-1-11.5-2.4-13.9 1.3-1.2 2.3-2.9 2.3-5 0-2.7-1.4-6.4-2.5-9-.3-.8-.6-1.4-.7-1.9-1.6-4.7-2.9-9.3-4-13.4-.5-1.7-.9-3.3-1.3-4.8 2.1-2.1 7.2-7.4 6.8-9.9-.2-.8-.6-1.4-1.3-1.9-1.6-1-4.3-.8-6.2-.5 4.4-7.5 16.1-17.8 26.4-23.9 5-3 8.1-4.8 9.5-5.5 7.1 17.4 18.2 36.9 25.6 39.3 2.1.7 4.2 1 6.4 1 2.9 0 5.8-.6 8.8-1.7.8.4 2.8 1.2 5.4 1.2 1.9 0 4-.4 6.3-1.6 5-2.7 6.6-7.8 7.2-11.2.7-.6 2.6-2.2 4.1-4 3.1 2.9 9.6 8.7 15.3 12.3 3.8 2.4 10.5 5.8 17.8 5.8 2 0 4-.2 6-.8 7.2-2.1 11.3-7.1 12.6-10.9.6-1.6.7-3.4.3-5 1.6-.3 4.9-1.1 7.3-2.9 1.1-.8 1.9-2.1 2-3.5.1-1.6-.4-4.1-3.8-7.4-12.2-11.9-48.7-33.5-57.6-32.7-3.9.3-4.6 6.8-4.7 9.2-1.9-.1-3.2.4-4.2 1.3-.5.4-1 .8-1.4 1.1-.7.6-1.3 1.1-2.1 1.6-.8 0-3.2 0-4.6-.3-1.5-.4-2.7-1.5-3.2-1.9-.5-3.2-1.1-6.3-1.8-9.4 3-.4 12.1-2.2 19.7-9.9 8.5-8.7 10.8-23.6 5.2-33.9-10.4-19.1-23.1-22.2-23.6-22.3-.3-.1-.6 0-.8.2-.2.2-.3.5-.3.8l1 4.8c-4.2-2.8-15.3-8.9-29.1-7.2-10.1 1.2-14.1 7.1-15.4 9.9-1.7-2.2-3.3-4.4-4.7-6.7 1.9-.6 3.8-1.1 5.8-1.7 5.7-1.7 11.6-3.4 18.1-5.5.8-.3 2.1-.7 3.8-1.2 18.6-5.6 38.2-12.1 41.9-17.2 7.7-10.8 1.3-20.3-5.5-30.4-1.3-1.9-2.5-3.8-3.6-5.7-4.8-7.8-9.4-15.1-17-15.1h-.2c-6.9 0-14.6 4.9-20.7 9.7.5-1 1.1-2.2 1.7-3.6l.2-.4c1.5-3.5 3.2-7.4.5-11.4-2.3-3.3-5.7-4.9-10.9-7.3l-.4-.2c-2.5-1.1-4.6-2.1-6.5-3-4.7-2.2-8-3.7-12.4-5.2-4.6-1.6-8.7-1.5-11.7.2-2.3 1.3-3.8 3.5-4.5 6.6-.6 2.8-.8 5.4-.8 7-1.5-1.2-3.2-2.4-4.9-3.4h-.1c-4.2-5.6-9.1-11.7-13.9-16-9.3-8.4-24.9-21-35.5-21-1.9.4-3.7.8-5.3 1.8"/></defs><clipPath id="ci"><use xlink:href="#ch" overflow="visible"/></clipPath><linearGradient id="cj" gradientUnits="userSpaceOnUse" x1="-248.149" y1="454.686" x2="-247.106" y2="454.686" gradientTransform="matrix(328.9473 0 0 -328.9473 81628.07 149724.094)"><stop offset="0" stop-color="#585857"/><stop offset=".012" stop-color="#585857"/><stop offset=".292" stop-color="#5d5c5c"/><stop offset=".603" stop-color="#6a6a69"/><stop offset=".928" stop-color="#807f7f"/><stop offset="1" stop-color="#868585"/></linearGradient><path clip-path="url(#ci)" fill="url(#cj)" d="M0-1h343.2v314.9H0z"/></g><g><defs><path id="ck" d="M119.3 197.8s.3.1.8.2c.4.1 1 .2 1 .2l5.5-8.3s-.2-.3-.5-.9c-.4-.6-.5-.9-.5-.9l-6.3 9.7z"/></defs><clipPath id="cl"><use xlink:href="#ck" overflow="visible"/></clipPath><linearGradient id="cm" gradientUnits="userSpaceOnUse" x1="-277.278" y1="462.975" x2="-276.236" y2="462.975" gradientTransform="matrix(7.0049 0 0 -7.0049 2061.647 3436.365)"><stop offset="0" stop-color="#b20a63"/><stop offset="1" stop-color="#c7006d"/></linearGradient><path clip-path="url(#cl)" fill="url(#cm)" d="M119.3 188.3h7.3v10h-7.3z"/></g><g><defs><path id="cn" d="M106.7 218.4c-.8.3-1.5.8-1.5.8l-40 60.4c0 .1-4.3 6.9-9.8 7.8-16.6 2.7-26.6-7.4-34.6-17-.8-.9-2.1-1.3-3.9-1.2-5.2.3-14.8 5.2-16.1 7.4-.7 1-.7 2.5-.2 4.3 1.8 6.6 11 17.2 22.6 23.1 4.9 2.4 14.4 6.4 24.5 6.4 6.4 0 13-1.6 18.9-6 4.3-3.2 13.8-19.3 14.2-20l34.7-58.1s-.2-.6-.5-1.1c-.2-.4-.5-.8-.5-.8l-35.2 59.1c-.1.2-9.7 16.5-13.7 19.5-14.6 10.9-33.9 3.2-41.6-.6-11.2-5.6-20-15.7-21.7-21.9-.4-1.3-.4-2.3 0-2.9.9-1.4 9.7-6.2 14.7-6.5.9-.1 2 0 2.5.6 8.3 10 18.7 20.4 36.2 17.6 6.3-1 10.8-8.3 11-8.6l41.5-62.6c-.1-.1-.8.1-1.5.3"/></defs><clipPath id="co"><use xlink:href="#cn" overflow="visible"/></clipPath><linearGradient id="cp" gradientUnits="userSpaceOnUse" x1="-249.431" y1="454.995" x2="-248.388" y2="454.995" gradientTransform="matrix(110.5479 0 0 -110.5479 27574.215 50564.652)"><stop offset="0" stop-color="#b20a63"/><stop offset="1" stop-color="#c7006d"/></linearGradient><path clip-path="url(#co)" fill="url(#cp)" d="M0 218h115.4v95.9H0z"/></g></svg>