<svg xmlns="http://www.w3.org/2000/svg" xmlns:xlink="http://www.w3.org/1999/xlink" viewBox="0 0 296 324" enable-background="new 0 0 296 324"><defs><path id="a" d="M67.9 287.6c.7.9 1.7 2.6 1.5 3.7-.1.3-.2.6-.9.9-2.6 1.1-16.4 3.2-24.7 3.7-1.2.1-2.4.2-3.5.2-9 .6-14.9 1.1-16.7-.9-.4-.5.6-3.2 2.1-5.7 2.9.2 6.4.2 10.2.2 10 .1 22.5-.5 32-2.1m63.5-4.5c2.2 2.9 4.9 5.1 8.4 6.1 0 .6-.1 1.4-.5 1.8-.1.1-.3.3-.8.3-2.6 0-5.1-3.8-7.1-8.2m22.3-100.8l-.2-.2c2.3-5 4.5-10.4 6.1-15.4 1-3.3 1.9-6.5 2.6-9.6 1.1 4.3 2.7 11.6 2.4 14.5-.5 4.3-2.6 13.4-5.2 20-3.1-5.4-5.6-9.3-5.7-9.3m-81.8-53c1.1-.4 2.4-.8 3.7-1.1 1.9-.5 7.8-.9 9.9-1 .3 1.7 1 6.2 1.8 11.2-3.9-1.8-11.3-6.4-15.4-9.1M143.3 1.4c-2.1 1.3-5 4-5.6 12.7-.4 5.2-1.1 9.1-1.6 10-.6 1.1-2.7 1.7-6.2 1.7s-5.6-.6-6.2-1.7c-.5-.9-1.2-4.9-1.6-10-.7-8.7-3.5-11.4-5.6-12.7-2.3-1.4-7-.7-10.6 3-4.9 5-9 12.4-13 23.3-4.8 13.2-5 26.3-5 28-4.4 9.9-5.9 20.9-5.9 21v.2c0 .2.2 1.2.7 2.8-1.1.6-3.7 2.1-5.3 3.5-3.3 2.8-4.8 8.2-5.2 9.8-2.4.7-13.2 4.1-20.6 8.9-11.2 7.3-17.2 13.9-17.7 19.7-1 10.3 11.8 24.8 19.7 33.3-.3.5-.5 1-.8 1.5-5.3 10.6-4.5 20.1-3.9 23.9l-6.5-3.7c-.2-.1-.5-.1-.7 0-.2.1-.4.3-.5.6-.1.5-2.4 11.9 8.6 26.2 5.6 7.3 12.5 9 17.8 9 1.2 0 2.3-.1 3.3-.2-1.7 3.6-3.9 9.1-6.4 16.2-3.5 0-7.1.7-8.9 1.5-3.6 1.6-5.6 6.1-4.6 10.8.8 4-1.3 15.4-1.9 18.6-5.8-1.6-13.3-3.3-19-3.7-6.6-.5-12.5 3-15.9 6.5-4.2 4.2-10.7 15.1-8.3 20.9.3.6.7 1.2 1.2 1.7C5.4 286.5.8 292 1 298.4c0 1.5.7 2.8 1.9 3.9 3.4 3.1 11.1 4.6 22.6 4.6 3.7 0 7.8-.2 12.2-.5 9.5-.7 40.5-3.5 43.1-10.5 1-2.7.1-10.2-.2-12.3 2.5-1.7 2.9-4 3.6-7.8.2-.9.3-1.9.6-3.1 1.7-8.3 3.9-15.8 6-20.6.3-.6.6-1.1.8-1.6.1-.2.3-.5.4-.7 2.2-.5 9.1-2.4 9.1-5.7 0-2.7-2.5-3.8-4.1-4.2 1.4-1.6 3-3.5 5-5.6 5.2-5.5 13.5-12.4 18.9-14.2 3-1 5.8.1 8.3 2-1.7.1-4.1.7-6.3 2.5-1.4-.6-3.9-.8-5.9 1.8-3.7 4.8-1 20.2 1.8 32.3 3.9 16.4 6.1 23.9 10.7 33.6 3.5 7.5 8.9 12 14.4 12 3.7 0 6.8-2.1 8.4-5.6 2.6-5.5 3.4-10.4 3.6-11.8 2.6-1.5 4.6-3.7 5.8-6.4 3-6.5.2-14.1-.9-16.7.1 0 .2-.1.3-.1 1.3-.5 1.7-1.7 1.7-2.8h1.3c3.6 0 7-1 9.7-3.3l42.1 54.4c.2.3 5.6 7.4 11.6 9.3 3.5 1.1 7.2 1.7 10.9 1.7 3.1 0 6.3-.4 9.3-1.2 11.2-3 25.7-8.5 42-15.8 2.9-1.3 4.7-3.2 5.5-5.7 1.1-3.6 0-8.2-3.4-13.9-4.8-7.9-7.8-7-11.4-5.1-16.1 9-23.2 12.8-38.5 19.8-3.7 1.7-8.9.8-11.3 0-4-1.3-9.6-8.3-9.6-8.4l-41.4-50.5c0-2.4-.2-5-.7-7.8.6-.8 1.2-1.5 1.7-2.2 7.3-10.7 13.6-47.8 13.5-61.5 0-8-4.9-19-8.5-27-.5-1.1-1-2.2-1.4-3.2-3.7-8.4-8.7-18.3-12.3-25.4.1-.2.1-.3.2-.5.7-2.4 1.1-5.1 1.2-8 12.2-2.5 20.3-2.7 32.4-2.7 2.1 0 5.1.1 8.6.2 12 .4 28.4 1 33.5-1.5 8.4-4 6.6-12.9 4.4-24.2l-.2-1.2c-.4-1.9-.7-3.9-1.1-5.8-1.9-11.1-3.7-21.5-12.4-21.5h-.1c-5.9 0-14.9 2.4-22.5 4.7 1-1.5 2.4-3.6 3.1-4.8 4.8-8.1-4.1-13.7-9.5-17-.7-.4-1.4-.8-1.9-1.2-4.7-3.2-7.4-4.7-10-6.1-1.6-.9-3.1-1.7-5-2.9-3.4-2.1-7.2-2.8-10.3-1.9-2.6.8-4.6 2.6-5.9 5.4-1.3 2.8-4.3 9.7-5.9 13.6-.7-3.9-1.8-8.2-3.4-12.5-3.9-10.9-8.1-18.2-13-23.3-2.5-2.6-5.5-3.7-7.9-3.7-1.2.5-2.2.8-2.9 1.2"/></defs><clipPath id="b"><use xlink:href="#a" overflow="visible"/></clipPath><radialGradient id="c" cx="-271.614" cy="460.302" r=".952" gradientTransform="scale(-260.992 260.992) rotate(67.709 206.743 432.422)" gradientUnits="userSpaceOnUse"><stop offset="0" stop-color="#fff"/><stop offset=".356" stop-color="#fff"/><stop offset=".544" stop-color="#f6f6f6"/><stop offset=".852" stop-color="#ddd"/><stop offset="1" stop-color="#cfcfcf"/></radialGradient><path clip-path="url(#b)" fill="url(#c)" d="M409.7 46.5l-156 380.6L-113 276.7 43-103.8z"/><g opacity=".6"><defs><path id="d" d="M141.9 59.3h8.2v8.2h-8.2z"/></defs><clipPath id="e"><use xlink:href="#d" overflow="visible"/></clipPath><g clip-path="url(#e)"><defs><path id="f" d="M150.2 63.4c0 2.3-1.8 4.1-4.1 4.1s-4.1-1.8-4.1-4.1 1.8-4.1 4.1-4.1c2.2 0 4.1 1.9 4.1 4.1"/></defs><clipPath id="g"><use xlink:href="#f" overflow="visible"/></clipPath><radialGradient id="h" cx="-224.366" cy="447.11" r=".953" gradientTransform="matrix(4.3301 0 0 -4.3301 1117.557 1999.461)" gradientUnits="userSpaceOnUse"><stop offset="0" stop-color="#81cff4"/><stop offset=".171" stop-color="#71c9f2"/><stop offset=".503" stop-color="#48b9ec"/><stop offset=".961" stop-color="#06a0e3"/><stop offset="1" stop-color="#009ee2"/></radialGradient><path clip-path="url(#g)" fill="url(#h)" d="M141.9 59.3h8.2v8.2h-8.2z"/></g></g><path fill="#B2B2B1" d="M153.6 59.1c-1.6-2.6-3.5-3.4-6.4-2.9-1.6.3-3.9 1-5.9 3.4-2 2.4-2.7 5.6-2.1 8.2.5 2 7.6 4.7 13.1.3 2.6-2.3 2.8-6.4 1.3-9M145 69.5c-1.9-.1-5.1-1-5.1-3.1.1-6.9 5.2-8.4 7-8.6 3.2-.2 4.9.9 5.7 3.7.7 2.4.2 4.6-1.4 6-1.7 1.6-3.7 2.1-6.2 2"/><defs><path id="i" d="M146 66.3s2 .2 2.7-1.6c.7-1.8-.5-4-2.9-4s-4.5 5.3.2 5.6"/></defs><clipPath id="j"><use xlink:href="#i" overflow="visible"/></clipPath><radialGradient id="k" cx="-202.879" cy="441.464" r=".952" gradientTransform="matrix(2.9742 0 0 -2.9742 749.437 1376.541)" gradientUnits="userSpaceOnUse"><stop offset="0" stop-color="#585857"/><stop offset=".39" stop-color="#444443"/><stop offset="1" stop-color="#1e1e1c"/></radialGradient><path clip-path="url(#j)" fill="url(#k)" d="M141.3 60.7h8.2v5.8h-8.2z"/><path fill="#FFF" d="M147.5 63.1s-.1-.9-.7-.9c-.7 0-.7.7-.4 1.1.1.5.9.6 1.1-.2"/><g opacity=".6"><defs><path id="l" d="M109.5 59.3h8.2v8.2h-8.2z"/></defs><clipPath id="m"><use xlink:href="#l" overflow="visible"/></clipPath><g clip-path="url(#m)"><defs><path id="n" d="M109.5 63.4c0 2.3 1.8 4.1 4.1 4.1s4.1-1.8 4.1-4.1-1.8-4.1-4.1-4.1-4.1 1.9-4.1 4.1"/></defs><clipPath id="o"><use xlink:href="#n" overflow="visible"/></clipPath><radialGradient id="p" cx="-319.015" cy="447.109" r=".952" gradientTransform="rotate(180 -633.793 999.59) scale(4.3295)" gradientUnits="userSpaceOnUse"><stop offset="0" stop-color="#81cff4"/><stop offset=".171" stop-color="#71c9f2"/><stop offset=".503" stop-color="#48b9ec"/><stop offset=".961" stop-color="#06a0e3"/><stop offset="1" stop-color="#009ee2"/></radialGradient><path clip-path="url(#o)" fill="url(#p)" d="M109.5 59.3h8.2v8.2h-8.2z"/></g></g><path fill="#B2B2B1" d="M107.4 68c5.4 4.4 12.5 1.7 13.1-.3.7-2.6-.1-5.8-2.1-8.2-2.1-2.5-4.3-3.2-5.9-3.4-2.9-.5-4.8.3-6.4 2.9-1.6 2.7-1.4 6.8 1.3 9m1-.5c-1.6-1.5-2.1-3.6-1.4-6 .8-2.7 2.5-3.9 5.7-3.7 1.9.1 7 1.6 7 8.6 0 2.1-3.3 3-5.1 3.1-2.5.1-4.5-.4-6.2-2"/><defs><path id="q" d="M110.9 64.7c.7 1.8 2.7 1.6 2.7 1.6 4.7-.4 2.5-5.6.2-5.6s-3.6 2.2-2.9 4"/></defs><clipPath id="r"><use xlink:href="#q" overflow="visible"/></clipPath><radialGradient id="s" cx="-340.663" cy="441.464" r=".952" gradientTransform="rotate(180 -449.83 688.295) scale(2.9743)" gradientUnits="userSpaceOnUse"><stop offset="0" stop-color="#585857"/><stop offset=".39" stop-color="#444443"/><stop offset="1" stop-color="#1e1e1c"/></radialGradient><path clip-path="url(#r)" fill="url(#s)" d="M110.2 60.7h8.2v5.8h-8.2z"/><path fill="#FFF" d="M115.1 63.1s-.1-.9-.7-.9c-.7 0-.7.7-.4 1.1.2.5.9.6 1.1-.2"/><defs><path id="t" d="M51.8 250.9c-.2 1.6-.4 3.1-.7 4.5 2.1-.1 8.3-.2 12.4.9 2.2.5 4.1 1.2 5.8 1.8 2.5.9 4.6 1.6 5.6 1.1.1-.1.5-.3.8-1.3.3-1.3.1-2.3-.5-3.3-2.2-3.1-9.1-3.9-11.7-4.2h-.1c-1.2-.1-2.5-.2-3.7-.2-3.5 0-6.8.5-7.9.7"/></defs><clipPath id="u"><use xlink:href="#t" overflow="visible"/></clipPath><linearGradient id="v" gradientUnits="userSpaceOnUse" x1="-276.342" y1="459.108" x2="-275.389" y2="459.108" gradientTransform="scale(-43.502 43.502) rotate(-16.699 -1682.66 -701.66)"><stop offset="0" stop-color="#585857"/><stop offset=".193" stop-color="#7a7877"/><stop offset="1" stop-color="#d9d9d9"/></linearGradient><path clip-path="url(#u)" fill="url(#v)" d="M74 266.6L48.5 259l4.7-15.6 25.5 7.6z"/><defs><path id="w" d="M127.9 239.3c-.5.9-.3 3.1.7 5.5.8 2.1 1.9 3.2 2.7 3.7.3-.9.6-1.7.9-2.5-.8-.9-2.5-3.5-2.5-7.2 0-.2-.2-.4-.4-.5h-.1c-.5 0-.9.3-1.3 1"/></defs><clipPath id="x"><use xlink:href="#w" overflow="visible"/></clipPath><linearGradient id="y" gradientUnits="userSpaceOnUse" x1="-264.578" y1="468.083" x2="-263.625" y2="468.083" gradientTransform="scale(19.0477 -19.0477) rotate(-63.563 -516.6 9.18)"><stop offset="0" stop-color="#585857"/><stop offset=".193" stop-color="#7a7877"/><stop offset="1" stop-color="#d9d9d9"/></linearGradient><path clip-path="url(#x)" fill="url(#y)" d="M131.2 236.4l5 10-7.8 3.9-5-10z"/><defs><path id="z" d="M78.6 284.6c-2.3 1.1-5.4 1.9-9 2.6.7 1.1 1.6 2.9 1.3 4.4-.2.6-.6 1.5-1.9 2.1-3 1.2-17.3 3.3-25.2 3.8-1.2.1-2.4.2-3.5.2-4.2.3-7.6.5-10.3.5-3.9 0-6.3-.5-7.7-2-1.3-1.4.2-4.7 1.5-6.9C18 289 11.6 288 8 285.7c-1.4 1.5-5.9 6.8-5.8 12.7 0 1 .5 1.9 1.4 2.7 2.3 2.1 9.8 5.4 33.7 3.7 19.5-1.4 40-4.9 41.7-9.4.7-1.9.2-7.7-.2-10.9-.1.1-.1.1-.2.1"/></defs><clipPath id="A"><use xlink:href="#z" overflow="visible"/></clipPath><linearGradient id="B" gradientUnits="userSpaceOnUse" x1="-272.421" y1="462.652" x2="-271.469" y2="462.652" gradientTransform="scale(-65.0083 65.0083) rotate(61.842 246.157 460.003)"><stop offset="0" stop-color="#7d7b7a"/><stop offset=".638" stop-color="#b9b8b7"/><stop offset="1" stop-color="#8e8c8a"/></linearGradient><path clip-path="url(#A)" fill="url(#B)" d="M88.9 289.5l-26.5 49.4-69.5-37.2 26.5-49.4z"/><defs><path id="C" d="M118 227.5c-2.6 3.3-1.8 14.3 2.1 31 3.9 16.3 6.1 23.7 10.6 33.3 3.2 6.9 8.1 11 12.9 11 3.1 0 5.6-1.7 7-4.6 2-4.2 2.9-8.1 3.3-10.1-2.7 1.2-5.8 1.8-9.5 1.8-1.1 0-2.1-.1-3-.2 0 .8-.2 1.8-.9 2.5-.5.6-1.2.9-2 .9-7.5 0-12.1-19.1-12.7-21.6-.2-.7-.4-1.3-.6-2-5.1-16.7-10.2-36.8-4.1-43.3h-.4c-.7-.2-1.7.1-2.7 1.3"/></defs><clipPath id="D"><use xlink:href="#C" overflow="visible"/></clipPath><linearGradient id="E" gradientUnits="userSpaceOnUse" x1="-272.248" y1="462.185" x2="-271.295" y2="462.185" gradientTransform="scale(-75.2168 75.2168) rotate(61.842 246.107 458.19)"><stop offset="0" stop-color="#7d7b7a"/><stop offset=".638" stop-color="#b9b8b7"/><stop offset="1" stop-color="#8e8c8a"/></linearGradient><path clip-path="url(#D)" fill="url(#E)" d="M185.9 243.1l-40.6 75.8-62.2-33.2 40.6-75.9z"/><defs><path id="F" d="M141.5 272.9c3 1.7 6.7 2 10.3.8 2.5-.8 4.5-2.3 5.2-3.9.9-2 .1-4.4-.3-5.3-.8 0-1.6.1-2.4.1-3.6 0-7.8-.3-10.6-.8-2.7-.5-5-1-6.9-1.7.1 2.6 1 8.8 4.7 10.8m-7.7-26.9c0 .1 0 .1 0 0-1.5 4.2-2.9 9.1-1.9 10.6 2.2 3.2 5.8 4.4 11.9 5.5 5.2.9 14.4 1.1 16.5.2.6-.3.7-.9.7-1.4-6.2-.8-12.6-3.7-16.8-6.7-4.6-3.2-7.8-6.4-9.8-9.6-.2.5-.4 1-.6 1.4m-11.5-18.8c-6.2 6.7 1.5 32.2 4.5 41.8 3.5 11.6 7.9 19.2 17.6 19.2 7.6 0 13.2-2.9 15.6-8.2 2.8-6.2-.2-13.7-1.1-15.7-.2 0-.5.1-.7.1.5 1.4 1.1 3.8.1 6.1-.9 2-3.2 3.8-6.2 4.8-1.6.5-3.2.8-4.8.8-2.4 0-4.7-.6-6.7-1.7-4.8-2.7-5.6-11-5.7-13.1-1.8-.9-3.2-2.1-4.3-3.7-1-1.5-.6-4.5.2-7.4-.9-.5-2.6-1.9-3.7-4.7-.4-1.1-1.7-4.8-.6-6.8 1.2-2.1 2.6-1.9 3.1-1.8.9.2 1.6 1.1 1.6 2 0 2.4.9 4.3 1.6 5.4.2-.6.4-1 .6-1.4-.8-1.7-1.2-3.3-1.3-5-.2-4.5 2.2-7.6 3.4-8.8-1.4-1.7-3-3.5-4.6-5.1-.2 0-.5-.1-1-.1-1.7-.1-4.9.4-7.6 3.3"/></defs><clipPath id="G"><use xlink:href="#F" overflow="visible"/></clipPath><linearGradient id="H" gradientUnits="userSpaceOnUse" x1="-270.307" y1="461.332" x2="-269.354" y2="461.332" gradientTransform="scale(95.741 -95.741) rotate(-69.641 -467.784 34.248)"><stop offset="0" stop-color="#0075be"/><stop offset=".393" stop-color="#0075be"/><stop offset=".63" stop-color="#008ed4"/><stop offset=".822" stop-color="#009ee2"/><stop offset="1" stop-color="#009ee2"/></linearGradient><path clip-path="url(#G)" fill="url(#H)" d="M157.2 208.5l26.7 71.9-62.1 23-26.7-71.8z"/><g><defs><path id="I" d="M50.9 257c-.2 1.2-.4 2.2-.5 2.8 3.9 1.1 6.7 2 7 2.1.4.1.7.6.5 1-.1.4-.6.7-1 .5-.2-.1-14.7-4.6-24.8-5.9 2.1 1.4 4 3.7 5 6.7.3.9 1.1 1.7 2.3 2.3 5.5 2.8 17.4 1.9 21.8.4 2.4-.8 4.6-5 6-8-1.2-.4-2.5-.8-3.9-1.2-2.9-.7-7-.8-9.7-.8-1.3.1-2.2.1-2.7.1m21.2-6.4c1.8.7 3.4 1.7 4.4 3.1.9 1.3 1.2 2.9.8 4.6-.3 1.2-.8 1.9-1.6 2.3-.5.3-1 .4-1.6.4-1.4 0-3.2-.6-5.3-1.4-.1 0-.1-.1-.2-.1-1.6 3.3-3.9 7.9-7 8.9-2.4.8-6.9 1.5-11.6 1.5-4.2 0-8.5-.5-11.4-2-1.7-.8-2.7-1.9-3.1-3.3-1.6-5.2-6.5-7.9-9.9-7.1h-.4c-4.2.9-7.8 3.3-10.2 5.7-3.9 4-9.9 14.3-8 19.1 1.2 2.9 8 5 18.1 5.5 13.3.8 42.3.1 52.8-4.7.4-.2.7-.4 1.1-.6h.1c2.2-1.4 2.5-3 3.2-7 .2-.9.3-2 .6-3.1 1.7-8.5 3.9-16.1 6.2-20.9.3-.7.6-1.2.9-1.7.3-.5.6-1.1.6-1.2-.2-.7-3.8-1.9-6.5-2.9-4.7-1.7-8.5-2.7-10.1-3-.5 2.7-1.1 5.4-1.9 7.9m19.2-3.5c.4.3.6.6.7.9v.1c3.2-.9 7.2-2.5 7.2-3.9 0-2-2.6-2.6-3.7-2.8-2.9 3.6-4.2 5.7-4.2 5.7M56 231.5c-2.9 1.3-4.5 5.1-3.7 9 .4 1.9.2 5.3-.2 8.8 2-.3 7-.9 11.6-.4h.1c1.6.2 4.3.5 6.8 1.3.8-2.7 1.5-5.7 1.8-8.5.5-4 .3-7.6-1.2-9.5-1.1-1.3-4-1.9-7.1-1.9-3.1-.1-6.4.4-8.1 1.2"/></defs><clipPath id="J"><use xlink:href="#I" overflow="visible"/></clipPath><linearGradient id="K" gradientUnits="userSpaceOnUse" x1="-272.06" y1="461.485" x2="-271.108" y2="461.485" gradientTransform="scale(-102.29 102.29) rotate(61.842 247.068 458.268)"><stop offset="0" stop-color="#0075be"/><stop offset=".393" stop-color="#0075be"/><stop offset=".63" stop-color="#008ed4"/><stop offset=".822" stop-color="#009ee2"/><stop offset="1" stop-color="#009ee2"/></linearGradient><path clip-path="url(#J)" fill="url(#K)" d="M123.5 243.2l-45.3 84.6-97.4-52.2L26 191z"/></g><g><defs><path id="L" d="M157.9 223.6c-.4.4-.7.9-.9 1.3 1.5.1 3.8.5 5.1 1.9.7.8 1 1.8.8 2.9-1.2 7.5-.2 11 0 11.6l54.1 69.9c.1.1 5.3 7 10.8 8.8 6.1 2 13 2.2 19.3.5 11.1-3 25.5-8.4 41.8-15.7 2.4-1.1 4-2.7 4.6-4.7 1-3.1-.1-7.3-3.3-12.5-4.3-7.2-6.4-6.1-9.2-4.5-16.2 9-23.2 12.8-38.6 19.9-4.2 1.9-9.8.9-12.5 0-4.5-1.5-10.1-8.6-10.4-8.9L160.4 222c-.9.3-1.8.9-2.5 1.6m-53.3-62.1c-.2.7-.1 3.1 0 4.6l35 45.2c1.4-2.6 4-5.4 6.2-7.1l-2.9-3.6-33-40.3-2.3-2.8c-1.3 1.1-2.5 2.5-3 4"/></defs><clipPath id="M"><use xlink:href="#L" overflow="visible"/></clipPath><linearGradient id="N" gradientUnits="userSpaceOnUse" x1="-270.532" y1="460.309" x2="-269.579" y2="460.309" gradientTransform="scale(163.5528 -163.5528) rotate(-54.707 -580.641 -32.592)"><stop offset="0" stop-color="#c20a6c"/><stop offset=".472" stop-color="#e3097e"/><stop offset="1" stop-color="#e3097e"/></linearGradient><path clip-path="url(#M)" fill="url(#N)" d="M231 67.8l141.2 199.4-204.4 144.6L26.7 212.5z"/></g><g><defs><path id="O" d="M182.6 22.8c-2.2.7-3.8 2.2-4.9 4.5-1.6 3.5-5.9 13.5-6.9 15.9 1 6.6 1.1 11.5 1.1 12.5 2.1 4.7 3.5 9.6 4.5 13.6 3.3-1.4 15.3-6.6 28.7-10.7 1-.3 2.2-.7 3.5-1.1 1.4-.5 3-1 4.7-1.5.6-.9 3.1-4.6 4.2-6.4 3.7-6.3-2.4-10.8-8.9-14.8-.7-.5-1.4-.9-1.9-1.2-4.7-3.2-7.3-4.6-9.9-6.1-1.6-.9-3.1-1.7-5-2.9-2.2-1.4-4.4-2.1-6.6-2.1-1-.1-1.9.1-2.6.3"/></defs><clipPath id="P"><use xlink:href="#O" overflow="visible"/></clipPath><linearGradient id="Q" gradientUnits="userSpaceOnUse" x1="-271.921" y1="456.984" x2="-270.968" y2="456.984" gradientTransform="scale(82.3271 -82.3271) rotate(84.889 115.582 377.951)"><stop offset="0" stop-color="#0075be"/><stop offset=".393" stop-color="#0075be"/><stop offset=".63" stop-color="#008ed4"/><stop offset=".822" stop-color="#009ee2"/><stop offset="1" stop-color="#009ee2"/></linearGradient><path clip-path="url(#P)" fill="url(#Q)" d="M166.6 68.9l4.6-50.9 54 4.8-4.6 50.9z"/></g><g><defs><path id="R" d="M238.1 52.1c-7.7 0-21.2 4.3-29.2 6.9-1.3.4-2.5.8-3.5 1.1-13.7 4.2-26 9.6-28.8 10.8.8 3.5 1.1 5.8 1.1 5.8v.2c-.1.7-3.7 18.4-16.9 30-.8.7-1.5 1.3-2.3 1.9 21.3-5.9 30.5-6.2 46.8-6.2 2.1 0 5.1.1 8.6.2 11.1.4 28 1 32.8-1.3 7.3-3.4 5.8-11 3.5-22.4l-.2-1.2c-.4-1.9-.7-3.9-1.1-5.8-1.7-10.7-3.4-20-10.8-20z"/></defs><clipPath id="S"><use xlink:href="#R" overflow="visible"/></clipPath><linearGradient id="T" gradientUnits="userSpaceOnUse" x1="-269.58" y1="458.327" x2="-268.627" y2="458.327" gradientTransform="scale(91.9186 -91.9186) rotate(18.829 1251.412 1046.287)"><stop offset="0" stop-color="#0075be"/><stop offset=".393" stop-color="#0075be"/><stop offset=".63" stop-color="#008ed4"/><stop offset=".822" stop-color="#009ee2"/><stop offset="1" stop-color="#009ee2"/></linearGradient><path clip-path="url(#S)" fill="url(#T)" d="M141.3 58l102.9-35.1 27.3 80.1-102.9 35.1z"/></g><g><defs><path id="U" d="M78.3 84.6c-2.5 2.1-3.9 6.2-4.5 8.2 3.1-.5 10.9-.3 16.8 10.5 8 14.6 22 32.3 43.3 33.5 16.1.9 33.1-11.4 36.3-22.2.7-2.2 1-4.6 1.1-7.1-4.6 1-9.9 2.4-16.1 4.2-8.4 6.4-16.9 10.5-25.3 12.3h-.4c-10.3-2.1-20.7-7.8-30.9-16.8-9.2-8.4-13.7-19.6-15.6-25.8-1.2.7-3.3 2-4.7 3.2"/></defs><clipPath id="V"><use xlink:href="#U" overflow="visible"/></clipPath><linearGradient id="W" gradientUnits="userSpaceOnUse" x1="-273.617" y1="462.263" x2="-272.665" y2="462.263" gradientTransform="scale(-61.6014 61.6014) rotate(37.304 544.578 633.543)"><stop offset="0" stop-color="#0075be"/><stop offset=".393" stop-color="#0075be"/><stop offset=".63" stop-color="#008ed4"/><stop offset=".822" stop-color="#009ee2"/><stop offset="1" stop-color="#009ee2"/></linearGradient><path clip-path="url(#V)" fill="url(#W)" d="M198.5 117l-88.8 67.7-63-82.6 88.9-67.7z"/></g><g><defs><path id="X" d="M63.9 164H63.6l-.1.1s-.1 0-.1.1c-4.8 6.1-4 12.5-2.2 17.9l-4-3.6c-.2-.2-.5-.2-.8-.2-.3.1-.5.3-.6.6 0 .2-4.7 16.9 6.8 22.8 2.3 1.2 4.7 1.6 6.9 1.6 4.9 0 8.8-2.1 9-2.3l.3-.3.1-.1c1.3-2.3 2.7-4.5 3.9-6.7v-.1-.2-.1-.2c0-.1 0-.1-.1-.1l-.1-.1-.1-.1s0-.1-.1-.1c0 0-.1 0-.2-.1h-.1c-.1 0-9.4-.2-11.5-10-.8-3.8-.1-7.6 1.9-10.1 0 0 .1-.1.1-.2 0 0 0-.1.1-.1v-.2-.1-.1c0-.1 0-.1-.1-.1l-.1-.1-.1-.1c-2.3-2-5-4.5-7.9-7.3 0 0-.1 0-.1-.1l-.1-.1h-.2c-.1-.2-.2-.2-.2-.2"/></defs><clipPath id="Y"><use xlink:href="#X" overflow="visible"/></clipPath><linearGradient id="Z" gradientUnits="userSpaceOnUse" x1="-264.434" y1="457.887" x2="-263.482" y2="457.887" gradientTransform="matrix(29.5288 0 0 -29.5288 7863.278 13704.603)"><stop offset="0" stop-color="#d9d9d9"/><stop offset=".17" stop-color="#c9c9c9"/><stop offset=".5" stop-color="#a0a0a0"/><stop offset=".955" stop-color="#5f5f5e"/><stop offset="1" stop-color="#585857"/></linearGradient><path clip-path="url(#Y)" fill="url(#Z)" d="M51.1 164H83v39.5H51.1z"/></g><g><defs><path id="aa" d="M105.7 4.4c-4.9 5-9 12.4-13 23.3-4.8 13.2-5 26.3-5 28-4.4 9.9-5.9 20.9-5.9 21V77c0 .1 0 .1.1.2 0 0 0 .1.1.1 0 .1.1.1.1.1l.1.1c.1 0 .1.1.2.1h.4c.2 0 .3-.1.4-.1h.1l.1-.1s0-.1.1-.1c0 0 0-.1.1-.1v-.1c0-.1 1.1-3.4 10.7-18 4.1-6.3 7.6-10.7 7.6-10.8 5.6-7.6 13.1-8.6 16.7-7.4 4 1.3 4.9 3.1 6 5.4.1.3.2.5.4.8 1.5 3.1 4.1 13.6 4.2 19.7v.4c0 .4.4.8.8.8s.8-.4.8-.8v-.4c.1-6.1 2.6-16.6 4.2-19.7.1-.3.2-.5.4-.8 1.1-2.3 1.9-4.1 6-5.4 3.6-1.2 11.1-.2 16.7 7.4 0 0 3.5 4.5 7.6 10.8 9.6 14.7 10.6 17.9 10.7 18v.1s0 .1.1.1l.1.1s0 .1.1.1l.1.1h.1c.1 0 .2 0 .3.1H177.5s.1 0 .1-.1l.1-.1.1-.1s0-.1.1-.1v-.1-.2-.1c0-.1-1.5-11.1-5.9-21 0-1.7-.2-14.8-5-28-3.9-10.9-8.1-18.2-13-23.3-3.6-3.7-8.3-4.5-10.6-3-2.1 1.3-5 4-5.6 12.7-.4 5.2-1.1 9.1-1.6 10-.6 1.1-2.7 1.7-6.2 1.7s-5.6-.6-6.2-1.7c-.5-.9-1.2-4.9-1.6-10-.7-8.7-3.5-11.4-5.6-12.7-.7-.4-1.7-.7-2.7-.7-2.7-.2-5.7 1-8.2 3.5"/></defs><clipPath id="ab"><use xlink:href="#aa" overflow="visible"/></clipPath><linearGradient id="ac" gradientUnits="userSpaceOnUse" x1="-269.515" y1="458.953" x2="-268.563" y2="458.953" gradientTransform="scale(104.0086 -104.0086) rotate(.734 35703.972 21321.09)"><stop offset="0" stop-color="#d9d9d9"/><stop offset=".17" stop-color="#c9c9c9"/><stop offset=".5" stop-color="#a0a0a0"/><stop offset=".955" stop-color="#5f5f5e"/><stop offset="1" stop-color="#585857"/></linearGradient><path clip-path="url(#ab)" fill="url(#ac)" d="M80.9 0l96.8-1.3 1 78.9-96.8 1.3z"/></g><g><defs><path id="ad" d="M129.3 106c-.2.2-.4.3-.6.3-.2 0-.4-.1-.5-.2-.3-.3-.4-.8-.1-1.1l.2-.2c-1.1-.3-2.7-.7-4.3-.3-.8.2-1.5.4-2 .6 3.5 3.1 7.8 3.1 7.8 3.1s4.4 0 7.8-3.1l.1-.1c-.6-.3-1.5-.7-2.3-.7h-1.1c-3.6 0-4.9 1.6-5 1.7"/></defs><clipPath id="ae"><use xlink:href="#ad" overflow="visible"/></clipPath><linearGradient id="af" gradientUnits="userSpaceOnUse" x1="-283.331" y1="467.359" x2="-282.378" y2="467.359" gradientTransform="scale(-14.8785 14.8785) rotate(19.299 1207.582 1043.44)"><stop offset="0" stop-color="#c20a6c"/><stop offset=".472" stop-color="#e3097e"/><stop offset="1" stop-color="#e3097e"/></linearGradient><path clip-path="url(#ae)" fill="url(#af)" d="M139 107.8l-15.3 5.4-3-8.6 15.3-5.4z"/></g><g><path fill="#FFF" d="M161.2 26.1c-1.1-4.6-3.8-10.6-6-14.1-2.3-3.7-5.8-7.3-8.8-6.1-2.7 1-3.5 5.6-3.3 8.3.3 4.4.8 14 .8 14.1V28.6c0 .1.1.1.1.2 0 0 0 .1.1.1.1.1.1.1.2.1s9 4.8 17.6 15c.2.2.4.3.6.3.2 0 .4-.1.5-.2.2-.2.3-.5.3-.8 0-.5.3-6.9-2.1-17.2M113.3 5.9c-3.1-1.2-6.6 2.4-8.8 6.1-2.2 3.6-4.9 9.6-6 14.1-2.4 10.2-2.1 16.6-2.1 17.1-.1.3 0 .6.3.8.2.1.3.2.5.2s.5-.1.6-.3c8.6-10.2 17.5-14.9 17.6-15 .1 0 .1-.1.2-.2 0 0 0-.1.1-.1 0-.1.1-.1.1-.2v-.1-.1c0-.1.5-9.8.8-14.1.1-2.5-.6-7.2-3.3-8.2"/><defs><path id="ag" d="M148.5 13.5h13.2v27.9h-13.2z"/></defs><clipPath id="ah"><use xlink:href="#ag" overflow="visible"/></clipPath><path clip-path="url(#ah)" fill="#EDEDED" d="M154.1 13.5c-2.5 3.5-4.5 9.2-5.7 16.3 3.2 2.1 8.1 5.9 13.2 11.6-.1-2.6-.4-7.9-2-14.8-1-4.2-3.4-9.6-5.5-13.1"/><defs><path id="ai" d="M98 10.6h14.3v30.7H98z"/></defs><clipPath id="aj"><use xlink:href="#ai" overflow="visible"/></clipPath><path clip-path="url(#aj)" fill="#EDEDED" d="M112.2 29c-.8-7.6-2.5-14-4.8-18.4-.5.7-1.1 1.4-1.6 2.3-2.1 3.5-4.8 9.3-5.8 13.7-1.6 6.9-2 12.2-2.1 14.8 5.8-6.5 11.3-10.5 14.3-12.4"/><defs><path id="ak" d="M82.9 71.1h80.7v52.2H82.9z"/></defs><clipPath id="al"><use xlink:href="#ak" overflow="visible"/></clipPath><g clip-path="url(#al)"><defs><path id="am" d="M86.6 71.1s11.1 18.4 17 25.9c7.7 9.8 15 10.5 15 10.5s2.3 7.1 11 7.7c7.6.5 11.2-5.5 11.2-5.5s3.5 2.2 7.4 2.1c6.9-.2 15.5-7.2 15.5-7.2s-8.1 7.1-11.1 9.1c-15 9.4-22.2 9.7-22.2 9.7s-5.3-.8-12.3-4.1c-6.8-3.2-12.4-7.4-16.4-10.5-5.1-4-10.2-10.8-12.2-14.2-4.2-7.1-6.6-16.2-6.6-16.2s1.1-2.8 1.6-3.7c.5-.9 2.1-3.6 2.1-3.6"/></defs><clipPath id="an"><use xlink:href="#am" overflow="visible"/></clipPath><linearGradient id="ao" gradientUnits="userSpaceOnUse" x1="-269.392" y1="453.901" x2="-268.44" y2="453.901" gradientTransform="scale(36.1279 -36.1279) rotate(55.25 303.745 485.259)"><stop offset="0" stop-color="#fff"/><stop offset=".356" stop-color="#fff"/><stop offset=".629" stop-color="#f6f6f6"/><stop offset="1" stop-color="#e3e3e2"/></linearGradient><path clip-path="url(#an)" fill="url(#ao)" d="M58.5 106.3l50.6-73L188 88l-50.6 73z"/></g><defs><path id="ap" d="M122.4 63.5h7.4v6.9h-7.4z"/></defs><clipPath id="aq"><use xlink:href="#ap" overflow="visible"/></clipPath><path clip-path="url(#aq)" fill="#EDEDED" d="M129.8 68s-2.2.3-3.6.8c-1.5.5-3.8 1.7-3.8 1.7l6.4-6.9s.2 2.7.2 3.8c.1.5.8.6.8.6"/><defs><path id="ar" d="M108.9 76h31.3v25.3h-31.3z"/></defs><clipPath id="as"><use xlink:href="#ar" overflow="visible"/></clipPath><g clip-path="url(#as)"><defs><path id="at" d="M119.4 76s-4.3 1.8-7.7 5.6c-2.5 2.8-2.8 8-2.8 8s.3 1.2.8 1.3c.4.1 1.7.1 1.7.1s0 .5 2 4.6c.9 1.8 2.4 4 5.4 4.8 2.4.6 4.4 1 6.3.9 3-.2 5.1-1 5.1-1s4.4.9 5.8 1c1 .1 4.1-.7 4.1-.7s-3.7-.9-4.5-3.7c-.6-2 1.3-5.1 1.3-5.1s-4.4 2.5-6.7 2.7c-1.6.2-6.6-1.4-8.6-3.3-3.1-3.1-5.2-4.8-5.7-7.6-.9-5.2 3.5-7.6 3.5-7.6"/></defs><clipPath id="au"><use xlink:href="#at" overflow="visible"/></clipPath><linearGradient id="av" gradientUnits="userSpaceOnUse" x1="-267.336" y1="452.155" x2="-266.384" y2="452.155" gradientTransform="scale(24.853 -24.853) rotate(46.757 396.375 538.29)"><stop offset="0" stop-color="#fff"/><stop offset=".356" stop-color="#fff"/><stop offset=".629" stop-color="#f6f6f6"/><stop offset="1" stop-color="#e3e3e2"/></linearGradient><path clip-path="url(#au)" fill="url(#av)" d="M96.3 89.5l27.3-29.1 29.3 27.5-27.3 29.1z"/></g><defs><path id="aw" d="M94.4 101.3h78.2V134H94.4z"/></defs><clipPath id="ax"><use xlink:href="#aw" overflow="visible"/></clipPath><g clip-path="url(#ax)"><defs><path id="ay" d="M172.5 106.3s.8 6.5-4.2 14.1c-6.2 9.4-17.4 13.7-17.4 13.7s5.8-9.9 3.6-12.2c-4-4.2-16.7 5.2-22.5 5.2-13.9.1-20-5.1-27-11.4-3.3-3-10.7-14.3-10.7-14.3s6.6 8.5 20.7 16.4c3.3 1.8 15.2 5.6 15.2 5.6s11.7-4.5 16.5-7.1c1.6-.9 9.6-6 9.6-6l16.2-4z"/></defs><clipPath id="aA"><use xlink:href="#ay" overflow="visible"/></clipPath><defs><filter id="az" filterUnits="userSpaceOnUse" x="79.3" y="65" width="109" height="105.3"><feColorMatrix values="1 0 0 0 0 0 1 0 0 0 0 0 1 0 0 0 0 0 1 0"/></filter></defs><mask maskUnits="userSpaceOnUse" x="79.3" y="65" width="109" height="105.3" id="aC"><g filter="url(#az)"><linearGradient id="aB" gradientUnits="userSpaceOnUse" x1="-273.007" y1="459.021" x2="-272.055" y2="459.021" gradientTransform="scale(-130.0728 130.0728) rotate(-33.488 -898.173 -221.333)"><stop offset="0" stop-color="#fff"/><stop offset=".242" stop-color="#f8f8f8"/><stop offset=".596" stop-color="#e4e4e4"/><stop offset=".988" stop-color="#c7c7c7"/><stop offset="1" stop-color="#c7c7c7"/></linearGradient><path clip-path="url(#aA)" fill="url(#aB)" d="M149.3 170.3l-70-46.3 39.1-59 70 46.2z"/></g></mask><linearGradient id="aD" gradientUnits="userSpaceOnUse" x1="-273.007" y1="459.021" x2="-272.055" y2="459.021" gradientTransform="scale(-130.0728 130.0728) rotate(-33.488 -898.173 -221.333)"><stop offset="0" stop-color="#0075be"/><stop offset=".299" stop-color="#007cc4"/><stop offset=".736" stop-color="#0090d5"/><stop offset=".988" stop-color="#009ee2"/><stop offset="1" stop-color="#009ee2"/></linearGradient><path clip-path="url(#aA)" mask="url(#aC)" fill="url(#aD)" d="M149.3 170.3l-70-46.3 39.1-59 70 46.2z"/></g><defs><path id="aE" d="M170.6 34.6H219v35.5h-48.4z"/></defs><clipPath id="aF"><use xlink:href="#aE" overflow="visible"/></clipPath><g clip-path="url(#aF)"><defs><path id="aG" d="M175.5 70.1s-1.9-9.7-4.1-13c-1.3-1.9-.6-10.3-.6-10.3s6.2-10.8 9.7-12C187.9 32.4 219 49 219 49l-4.6 7s-14.4 4.6-18.7 6.2c-5.4 2-20.2 7.9-20.2 7.9"/></defs><clipPath id="aI"><use xlink:href="#aG" overflow="visible"/></clipPath><defs><filter id="aH" filterUnits="userSpaceOnUse" x="157.5" y="16" width="74.2" height="70.5"><feColorMatrix values="1 0 0 0 0 0 1 0 0 0 0 0 1 0 0 0 0 0 1 0"/></filter></defs><mask maskUnits="userSpaceOnUse" x="157.5" y="16" width="74.2" height="70.5" id="aK"><g filter="url(#aH)"><linearGradient id="aJ" gradientUnits="userSpaceOnUse" x1="-267.45" y1="456.456" x2="-266.497" y2="456.456" gradientTransform="scale(41.9347 -41.9347) rotate(21.038 1101.292 958.888)"><stop offset="0" stop-color="#fff"/><stop offset=".161" stop-color="#f8f8f8"/><stop offset=".396" stop-color="#e4e4e4"/><stop offset=".656" stop-color="#c7c7c7"/><stop offset="1" stop-color="#c7c7c7"/></linearGradient><path clip-path="url(#aI)" fill="url(#aJ)" d="M157.5 37.3L212.7 16l19 49.3-55.3 21.2z"/></g></mask><linearGradient id="aL" gradientUnits="userSpaceOnUse" x1="-267.45" y1="456.456" x2="-266.497" y2="456.456" gradientTransform="scale(41.9347 -41.9347) rotate(21.038 1101.292 958.888)"><stop offset="0" stop-color="#0075be"/><stop offset=".199" stop-color="#007cc4"/><stop offset=".489" stop-color="#0090d5"/><stop offset=".656" stop-color="#009ee2"/><stop offset="1" stop-color="#009ee2"/></linearGradient><path clip-path="url(#aI)" mask="url(#aK)" fill="url(#aL)" d="M157.5 37.3L212.7 16l19 49.3-55.3 21.2z"/></g><defs><path id="aM" d="M155.7 54.3h65.6v56.4h-65.6z"/></defs><clipPath id="aN"><use xlink:href="#aM" overflow="visible"/></clipPath><g clip-path="url(#aN)"><defs><path id="aO" d="M221.3 54.3s-18.8 6.4-25 26.4c-1.6 5.3 1 23.1 1 23.1s-16.1.5-21 1.5c-5.2 1-20.6 5.4-20.6 5.4s10.5-7.7 15.1-17.6c1.9-4 6.2-16.2 6.2-16.2l-.9-6.9s12.4-5 20.6-8.1c5.8-2.2 24.6-7.6 24.6-7.6"/></defs><clipPath id="aQ"><use xlink:href="#aO" overflow="visible"/></clipPath><defs><filter id="aP" filterUnits="userSpaceOnUse" x="128.4" y="22.5" width="120.2" height="119.9"><feColorMatrix values="1 0 0 0 0 0 1 0 0 0 0 0 1 0 0 0 0 0 1 0"/></filter></defs><mask maskUnits="userSpaceOnUse" x="128.4" y="22.5" width="120.2" height="119.9" id="aS"><g filter="url(#aP)"><linearGradient id="aR" gradientUnits="userSpaceOnUse" x1="-270.159" y1="457.823" x2="-269.206" y2="457.823" gradientTransform="scale(97.107 -97.107) rotate(37.758 536.817 625.471)"><stop offset="0" stop-color="#fff"/><stop offset=".242" stop-color="#f8f8f8"/><stop offset=".596" stop-color="#e4e4e4"/><stop offset=".988" stop-color="#c7c7c7"/><stop offset="1" stop-color="#c7c7c7"/></linearGradient><path clip-path="url(#aQ)" fill="url(#aR)" d="M128.4 75.4l68.3-52.9 51.9 67-68.3 52.9z"/></g></mask><linearGradient id="aT" gradientUnits="userSpaceOnUse" x1="-270.159" y1="457.823" x2="-269.206" y2="457.823" gradientTransform="matrix(76.7729 -59.4617 -59.4617 -76.7728 48107.258 19201.633)"><stop offset="0" stop-color="#0075be"/><stop offset=".299" stop-color="#007cc4"/><stop offset=".736" stop-color="#0090d5"/><stop offset=".988" stop-color="#009ee2"/><stop offset="1" stop-color="#009ee2"/></linearGradient><path clip-path="url(#aQ)" mask="url(#aS)" fill="url(#aT)" d="M128.4 75.4l68.3-52.9 51.9 67-68.3 52.9z"/></g><defs><path id="aU" d="M162 116.2h23v65.9h-23z"/></defs><clipPath id="aV"><use xlink:href="#aU" overflow="visible"/></clipPath><path clip-path="url(#aV)" fill="#EDEDED" d="M171.4 116.2l13.7 29.2s-2-3.3-8 1.6c-8.4 6.8-13.5 35.2-13.5 35.2s1.9-11.9 1.7-14c-.4-4-3.2-13.6-3.2-13.6s1.7-11.9 1.9-17.7c.1-2.7 0-10.7 0-10.7s2.2-2.9 3.7-4.7c.7-1.1 3.7-5.3 3.7-5.3"/><defs><path id="aW" d="M107.5 148.8h9.1v11.3h-9.1z"/></defs><clipPath id="aX"><use xlink:href="#aW" overflow="visible"/></clipPath><path clip-path="url(#aX)" fill="#EDEDED" d="M114.9 159.1s1.5-1.9 1.6-2.7c.6-3.9-2.3-7.6-2.3-7.6s-.5 4.7-1.2 5.6c-.8 1-5.5 2-5.5 2l3.6 3.7 3.8-1z"/><g><defs><path id="aY" d="M47.2 162h41.1v49.6H47.2z"/></defs><clipPath id="aZ"><use xlink:href="#aY" overflow="visible"/></clipPath><path clip-path="url(#aZ)" fill="#EDEDED" d="M88.4 179.1s-1.4 7.5-4.5 11.6c-4.8 6.5-12 20.6-12 20.6s-10 1.7-16.4-3.2c-11.3-8.7-7.8-20-7.8-20l5.2 3.7s-2-12.3 1.2-20.2c2.5-6.3 6.3-9.6 6.3-9.6l11.5 10.6s-.5 13.3 2.8 14.2c2.8.7 4.3-10.9 4.3-10.9l4 .9 5.4 2.3z"/></g><g><defs><path id="ba" d="M44.2 93.7h46.2v14.5H44.2z"/></defs><clipPath id="bb"><use xlink:href="#ba" overflow="visible"/></clipPath><path clip-path="url(#bb)" fill="#EDEDED" d="M90.4 104.9s-7.6-5.5-10.2-5.8c-8.7-1.1-36 9.1-36 9.1s11.5-7.9 15.5-9.8c3.5-1.6 12.5-4.7 16.4-4.8 8.4 0 14.3 11.3 14.3 11.3"/></g><g><defs><path id="bc" d="M47.2 127.9h30.6v11.4H47.2z"/></defs><clipPath id="bd"><use xlink:href="#bc" overflow="visible"/></clipPath><path clip-path="url(#bd)" fill="#EDEDED" d="M47.2 127.9s5.5 11.4 20.8 11.4c2.4 0 9.8-5.2 9.8-5.2l-7.7-4.7s-7 2.6-9.5 2.8c-5.7.4-13.4-4.3-13.4-4.3"/></g><g><defs><path id="be" d="M86.9 126.3h8.8v14.4h-8.8z"/></defs><clipPath id="bf"><use xlink:href="#be" overflow="visible"/></clipPath><path clip-path="url(#bf)" fill="#EDEDED" d="M86.9 126.3s3.8 2.2 6.8 9c.4.9 2 4.7 2 4.7l-7.7.6-1.1-14.3z"/></g><g><defs><path id="bg" d="M69.8 170.4h44.4v12.8H69.8z"/></defs><clipPath id="bh"><use xlink:href="#bg" overflow="visible"/></clipPath><path clip-path="url(#bh)" fill="#EDEDED" d="M107.5 170.4s-1.5 5.6-3.1 6.3c-3 1.5-13-2.4-13-2.4s-3.4.7-4.5.5c-6.9-1.3-17.1-4.4-17.1-4.4s5.2 4.3 6.4 4.9c1.5.7 6.7.8 6.7.8s6.2 3.5 8.4 4.2c4.3 1.3 7.9 0 7.9 0s4.8 3.1 6.6 2.8c5.4-.8 8.3-2.8 8.3-2.8l-6.6-9.9z"/></g><g><defs><path id="bi" d="M110.6 159.1h7.6v10.2h-7.6z"/></defs><clipPath id="bj"><use xlink:href="#bi" overflow="visible"/></clipPath><path clip-path="url(#bj)" fill="#EDEDED" d="M118.2 169.2l-7.6-9.7 4.3-.4s1.7 2.1 2 2.9c.5 1.7 1.3 7.2 1.3 7.2"/></g><g><defs><path id="bk" d="M5.1 284.6h19.2V295H5.1z"/></defs><clipPath id="bl"><use xlink:href="#bk" overflow="visible"/></clipPath><path clip-path="url(#bl)" fill="#EDEDED" d="M5.1 288.2l17.7 6.8 1.5-5.7s-7-1.3-9.6-2c-1.8-.5-6.9-2.7-6.9-2.7l-2.7 3.6z"/></g><g><defs><path id="bm" d="M69.2 283.7H80V295H69.2z"/></defs><clipPath id="bn"><use xlink:href="#bm" overflow="visible"/></clipPath><path clip-path="url(#bn)" fill="#EDEDED" d="M69.2 286.8c0-1.1.6 4.5.6 4.5L80 295l-.2-11.3-10.6 3.1z"/></g><g><defs><path id="bo" d="M80.5 219.3h40.2v27.8H80.5z"/></defs><clipPath id="bp"><use xlink:href="#bo" overflow="visible"/></clipPath><path clip-path="url(#bp)" fill="#EDEDED" d="M120.8 219.3s-9.5 1.2-17.1 6.7c-5.9 4.2-23.1 17.4-23.1 17.4l9.7 3.8s9.6-11.6 13.4-15.4c7.2-7.4 17.1-12.5 17.1-12.5"/></g><g><defs><path id="bq" d="M160.4 220.6h14.2v17.3h-14.2z"/></defs><clipPath id="br"><use xlink:href="#bq" overflow="visible"/></clipPath><path clip-path="url(#br)" fill="#EDEDED" d="M174.6 237.9c0-3.5-9.2-17.3-9.2-17.3l-5 .9 14.2 16.4z"/></g><g><defs><path id="bs" d="M133 228.6h40.4v31.7H133z"/></defs><clipPath id="bt"><use xlink:href="#bs" overflow="visible"/></clipPath><path clip-path="url(#bt)" fill="#EDEDED" d="M136.2 228.6s-3.5 2.8-3.2 7c.5 8.4 4.6 11.8 7.7 14.6 4.4 4.2 14.5 9.7 20.6 10 7.1.4 12.1-3 12.1-3l-5.5-8.2s-7.3-.2-9-.5c-3.7-.6-10.4-7-12.3-10.3-.5-.8-.8-3.8-.8-3.8l-9.6-5.8z"/></g><g><defs><path id="bu" d="M143.2 184.4h13.2v19.3h-13.2z"/></defs><clipPath id="bv"><use xlink:href="#bu" overflow="visible"/></clipPath><path clip-path="url(#bv)" fill="#EDEDED" d="M151.8 184.4l-8.5 15.5 3.2 3.8s4.9-1.8 6.4-2.7c.8-.5 3.7-2.2 3.7-2.2l-4.8-14.4z"/></g><g><defs><path id="bw" d="M115.6 225.1h39.6v68.4h-39.6z"/></defs><clipPath id="bx"><use xlink:href="#bw" overflow="visible"/></clipPath><path clip-path="url(#bx)" fill="#EDEDED" d="M155.2 287.3l-1.3 4.6-23.6 1.6s-8.4-19-11.3-36c-1.4-8.2-5.5-23.6-2.1-30.5.4-.9 2.2-1.9 3.1-1.9 3-.1.4-.1 1.9.9 0 0-1.7 3-2 4.2-1.9 6.9.7 19.8 2.8 28.2 1.3 4.9 7.8 24.7 7.8 24.7s3.4 6.4 5.3 7.7c.8.5 2.9 1.3 3.7.9.8-.5 1-3.5 1-3.5s5.6.9 7.4.8c2-.2 7.3-1.7 7.3-1.7"/></g><g><defs><path id="by" d="M5.4 240.4h94.9v48.9H5.4z"/></defs><clipPath id="bz"><use xlink:href="#by" overflow="visible"/></clipPath><g clip-path="url(#bz)"><defs><path id="bA" d="M73.3 241.6l-2.2 9.4s5.4 2.1 6.1 3.8c.4 1.1-.3 3.9-1.2 4.6-1.6 1.2-7.9-.3-7.9-.3s-2.2 9.2-4.5 11.1c-6.5 5.3-24.6 6.9-32.9 6.3-5.8-.4-21.4-6.9-21.4-6.9s-5.7 9.3-3 13.4c2.8 4.4 13.8 5.1 18.9 5.7 10.7 1.3 32.9-.1 43.4-2.2 3.6-.7 10.6-1.7 12.5-4.8 3.5-5.7 2.2-12.5 8.7-29.8.3-.7 1.3-2.5 1.3-2.5s7.6-1.8 8.9-4c1.7-2.9-3.8-5.1-3.8-5.1l-5.9 6.8s-6.4-2.4-9-3.1c-3-.8-8-2.4-8-2.4"/></defs><clipPath id="bC"><use xlink:href="#bA" overflow="visible"/></clipPath><defs><filter id="bB" filterUnits="userSpaceOnUse" x="-19.4" y="195.2" width="143.9" height="140.1"><feColorMatrix values="1 0 0 0 0 0 1 0 0 0 0 0 1 0 0 0 0 0 1 0"/></filter></defs><mask maskUnits="userSpaceOnUse" x="-19.4" y="195.2" width="143.9" height="140.1" id="bE"><g filter="url(#bB)"><linearGradient id="bD" gradientUnits="userSpaceOnUse" x1="-273.127" y1="458.861" x2="-272.175" y2="458.861" gradientTransform="scale(-120.0384 120.0384) rotate(-33.488 -895.481 -221.874)"><stop offset="0" stop-color="#fff"/><stop offset=".313" stop-color="#fff"/><stop offset=".478" stop-color="#f8f8f8"/><stop offset=".72" stop-color="#e4e4e4"/><stop offset=".988" stop-color="#c7c7c7"/><stop offset="1" stop-color="#c7c7c7"/></linearGradient><path clip-path="url(#bC)" fill="url(#bD)" d="M71.7 335.3L-19.4 275l52.7-79.8 91.2 60.3z"/></g></mask><linearGradient id="bF" gradientUnits="userSpaceOnUse" x1="-273.127" y1="458.861" x2="-272.175" y2="458.861" gradientTransform="scale(-120.0384 120.0384) rotate(-33.488 -895.481 -221.874)"><stop offset="0" stop-color="#0075be"/><stop offset=".313" stop-color="#0075be"/><stop offset=".517" stop-color="#007cc4"/><stop offset=".816" stop-color="#0090d5"/><stop offset=".988" stop-color="#009ee2"/><stop offset="1" stop-color="#009ee2"/></linearGradient><path clip-path="url(#bC)" mask="url(#bE)" fill="url(#bF)" d="M71.7 335.3L-19.4 275l52.7-79.8 91.2 60.3z"/></g></g><g><defs><path id="bG" d="M119.3 222.2h38.6v67.2h-38.6z"/></defs><clipPath id="bH"><use xlink:href="#bG" overflow="visible"/></clipPath><g clip-path="url(#bH)"><defs><path id="bI" d="M136.6 229.2l-6.7-7s-5.2 1.2-7.9 3.7c-1.6 1.6-2.6 7.1-2.7 9.3-.4 8.8 3.8 26.1 6.5 33.8 2 5.7 4 16.9 14.8 19.5 12.4 3.1 17.3-4.1 17.3-4.1s-8.5 2.1-18.3-7.7c-2.4-2.4-9.2-8.3-7.5-11.1 1.5-2.5 5 2 11.6 1.6 5.8-.3 11.5-3.2 11.5-3.2s-9.3 1.3-20-3.9c-1.2-.6-4.1-3.1-4.6-4.3-.7-1.6 1.5-5.7 1.5-5.7s-4-4.2-4.5-5.5c-.6-1.5-1.3-5.1-.4-6.5.4-.6 2.4-1.4 2.6-.8.6 2.1 3.1 8.9 3.1 8.9l.9-2.6s-1.3-6.6-.9-9c.4-1.7 3.7-5.4 3.7-5.4"/></defs><clipPath id="bK"><use xlink:href="#bI" overflow="visible"/></clipPath><defs><filter id="bJ" filterUnits="userSpaceOnUse" x="87.4" y="204.5" width="102" height="104.8"><feColorMatrix values="1 0 0 0 0 0 1 0 0 0 0 0 1 0 0 0 0 0 1 0"/></filter></defs><mask maskUnits="userSpaceOnUse" x="87.4" y="204.5" width="102" height="104.8" id="bM"><g filter="url(#bJ)"><linearGradient id="bL" gradientUnits="userSpaceOnUse" x1="-270.336" y1="460.674" x2="-269.384" y2="460.674" gradientTransform="scale(129.3573 -129.3573) rotate(-57.421 -556.716 -17.931)"><stop offset="0" stop-color="#fff"/><stop offset=".313" stop-color="#fff"/><stop offset=".478" stop-color="#f8f8f8"/><stop offset=".72" stop-color="#e4e4e4"/><stop offset=".988" stop-color="#c7c7c7"/><stop offset="1" stop-color="#c7c7c7"/></linearGradient><path clip-path="url(#bK)" fill="url(#bL)" d="M146.6 204.5l42.8 67.1-59.2 37.8-42.8-67z"/></g></mask><linearGradient id="bN" gradientUnits="userSpaceOnUse" x1="-270.336" y1="460.674" x2="-269.384" y2="460.674" gradientTransform="scale(129.3573 -129.3573) rotate(-57.421 -556.716 -17.931)"><stop offset="0" stop-color="#0075be"/><stop offset=".313" stop-color="#0075be"/><stop offset=".517" stop-color="#007cc4"/><stop offset=".816" stop-color="#0090d5"/><stop offset=".988" stop-color="#009ee2"/><stop offset="1" stop-color="#009ee2"/></linearGradient><path clip-path="url(#bK)" mask="url(#bM)" fill="url(#bN)" d="M146.6 204.5l42.8 67.1-59.2 37.8-42.8-67z"/></g></g><g><defs><path id="bO" d="M103.7 156.4h29.8v46.9h-29.8z"/></defs><clipPath id="bP"><use xlink:href="#bO" overflow="visible"/></clipPath><g clip-path="url(#bP)"><defs><path id="bQ" d="M122 173.8s-2.6 1.9-2.4 4.9c.6 9.7 13.9 24.6 13.9 24.6L104 166.5s-1.1-4 .4-6.4c1.3-2.2 3.9-3.7 3.9-3.7l13.7 17.4z"/></defs><clipPath id="bS"><use xlink:href="#bQ" overflow="visible"/></clipPath><defs><filter id="bR" filterUnits="userSpaceOnUse" x="81.4" y="142.4" width="73.7" height="75"><feColorMatrix values="1 0 0 0 0 0 1 0 0 0 0 0 1 0 0 0 0 0 1 0"/></filter></defs><mask maskUnits="userSpaceOnUse" x="81.4" y="142.4" width="73.7" height="75" id="bU"><g filter="url(#bR)"><linearGradient id="bT" gradientUnits="userSpaceOnUse" x1="-273.76" y1="458.669" x2="-272.807" y2="458.669" gradientTransform="scale(-86.5681 86.5681) rotate(-33.488 -896.15 -221.508)"><stop offset="0"/><stop offset="1" stop-color="#fff"/></linearGradient><path clip-path="url(#bS)" fill="url(#bT)" d="M124.2 217.3L81.4 189l30.8-46.6 42.8 28.3z"/></g></mask><linearGradient id="bV" gradientUnits="userSpaceOnUse" x1="-273.76" y1="458.669" x2="-272.807" y2="458.669" gradientTransform="scale(-86.5681 86.5681) rotate(-33.488 -896.15 -221.508)"><stop offset="0" stop-color="#b20a63"/><stop offset="1" stop-color="#c7006d"/></linearGradient><path clip-path="url(#bS)" mask="url(#bU)" fill="url(#bV)" d="M124.2 217.3L81.4 189l30.8-46.6 42.8 28.3z"/></g></g><g><defs><path id="bW" d="M156 221.7h36.1v58.9H156z"/></defs><clipPath id="bX"><use xlink:href="#bW" overflow="visible"/></clipPath><g clip-path="url(#bX)"><defs><path id="bY" d="M190.7 257.8s-4.6.3-4.8 5.5c-.2 4.8 6.2 17.2 6.2 17.2L161.7 241v-7.7c0-1.2.5-4.9 0-5.9-.6-1.3-5.6-1.4-5.6-1.4s1.3-3.2 2-3.7 3.1-.5 3.1-.5l29.5 36z"/></defs><clipPath id="ca"><use xlink:href="#bY" overflow="visible"/></clipPath><defs><filter id="bZ" filterUnits="userSpaceOnUse" x="128.7" y="205" width="90.6" height="92.3"><feColorMatrix values="1 0 0 0 0 0 1 0 0 0 0 0 1 0 0 0 0 0 1 0"/></filter></defs><mask maskUnits="userSpaceOnUse" x="128.7" y="205" width="90.6" height="92.3" id="cc"><g filter="url(#bZ)"><linearGradient id="cb" gradientUnits="userSpaceOnUse" x1="-274.242" y1="456.915" x2="-273.29" y2="456.915" gradientTransform="scale(-54.3515 54.3515) rotate(-56.024 -563.655 -23.649)"><stop offset="0"/><stop offset="1" stop-color="#fff"/></linearGradient><path clip-path="url(#ca)" fill="url(#cb)" d="M167.3 297.3l-38.6-57.2 52.1-35.1 38.6 57.2z"/></g></mask><linearGradient id="cd" gradientUnits="userSpaceOnUse" x1="-274.242" y1="456.915" x2="-273.29" y2="456.915" gradientTransform="scale(-54.3515 54.3515) rotate(-56.024 -563.655 -23.649)"><stop offset="0" stop-color="#b20a63"/><stop offset="1" stop-color="#c7006d"/></linearGradient><path clip-path="url(#ca)" mask="url(#cc)" fill="url(#cd)" d="M167.3 297.3l-38.6-57.2 52.1-35.1 38.6 57.2z"/></g></g><g><defs><path id="ce" d="M135.8 207.4h28.6v37.3h-28.6z"/></defs><clipPath id="cf"><use xlink:href="#ce" overflow="visible"/></clipPath><path clip-path="url(#cf)" fill="#EDEDED" d="M156.1 223.8s-6.8-.7-8-2.3c-7-9.3-3.4-14.1-3.4-14.1l-5 5.1-1.7-2.1s-1.8 1.8-2 2.6c-.4 1.9 1.5 7.6 1.5 7.6s.4 3.5.9 4.6c1.3 2.7 7.4 9.4 7.4 9.4l.8 3.8s8.2 5 11.3 5.6c4.5.9 6.6.9 6.6.9l-2.7-5.2s-4 1.6-6.4-3.2c-.7-1.4-.2-7.3 0-8.8-.1-1.1.7-3.9.7-3.9"/></g></g><g><defs><path id="cg" d="M117.2 106.6c-.4.2-.5.7-.3 1.1.1.2 2.4 3.9 6 6.1 2.7 1.6 5.6 1.7 6.6 1.7h.5c.9 0 3.9-.1 6.6-1.7 3.6-2.2 5.9-5.9 6-6.1.2-.4.1-.9-.3-1.1-.4-.2-.9-.1-1.1.3 0 0-2.2 3.6-5.5 5.6-2.7 1.6-5.9 1.5-5.9 1.5s-3.2.1-5.9-1.5c-3.3-2-5.5-5.5-5.5-5.6-.2-.3-.4-.4-.7-.4-.2 0-.3.1-.5.1"/></defs><clipPath id="ch"><use xlink:href="#cg" overflow="visible"/></clipPath><linearGradient id="ci" gradientUnits="userSpaceOnUse" x1="-271.599" y1="459.976" x2="-270.647" y2="459.976" gradientTransform="scale(-434.386 434.386) rotate(61.842 247.992 456.258)"><stop offset="0" stop-color="#585857"/><stop offset=".012" stop-color="#585857"/><stop offset=".292" stop-color="#5d5c5c"/><stop offset=".603" stop-color="#6a6a69"/><stop offset=".928" stop-color="#807f7f"/><stop offset="1" stop-color="#868585"/></linearGradient><path clip-path="url(#ch)" fill="url(#ci)" d="M146.7 108.4l-9.6 18.1-24.2-13 9.6-18z"/></g><g><defs><path id="cj" d="M129.3 106c.1-.1 1.7-2 6.2-1.7.8.1 1.6.4 2.3.7l-.1.1c-3.5 3.1-7.8 3.1-7.8 3.1s-4.3.1-7.8-3.1c.5-.2 1.2-.4 2-.6 1.6-.4 3.2-.1 4.3.3l-.2.2c-.3.3-.2.8.1 1.1.1.1.3.2.5.2.1 0 .3-.1.5-.3m-9.1-31.2c-4.5 2-5.2 5.3-5.3 6.6-.3 3.8 1.9 7.3 6.4 10.1 3.2 2 6.3 2.8 7.7 3v5.2c-2.2.4-9.8 1.6-13.5-2.3-2.2-2.3-4.1-6.7-4.1-6.7-.2-.4-.5-.5-.9-.5 0 0-.4.1-.8 0-.2 0-.2-.2-.3-.2-.2-.4-.7-.6-1.1-.4-.4.2-.6.7-.4 1.1 0 .1.4.9 1.4 1.1.3.1.6.1.9.1.6 1.3 2.3 4.6 4.2 6.6.2.3.5.5.8.7.3.5 2.5 3.9 4.8 6.3l.9.9c3.8 3.3 8.2 3.5 8.9 3.5h.2c.6 0 5.1-.1 8.9-3.5 2.6-2.3 5.4-6.6 5.7-7.2.3-.2.5-.4.8-.7 1.9-2 3.6-5.3 4.2-6.6.3 0 .6 0 .9-.1.9-.2 1.3-1 1.4-1.1.2-.4 0-.9-.4-1.1-.4-.2-.9 0-1.1.4 0 0-.1.2-.2.2-.4.1-.8 0-.8 0-.4-.1-.8.1-.9.5 0 0-1.9 4.4-4.1 6.7-3.6 3.8-11.2 2.7-13.4 2.3v-5.2c1.4-.2 4.5-1 7.6-3 4.4-2.8 6.6-6.3 6.4-10.1-.1-1.3-.8-4.7-5.3-6.6-3.4-1.5-9.3-1.5-9.6-1.5h-.2c-1.3 0-6.6.1-9.7 1.5"/></defs><clipPath id="ck"><use xlink:href="#cj" overflow="visible"/></clipPath><linearGradient id="cl" gradientUnits="userSpaceOnUse" x1="-271.599" y1="459.974" x2="-270.647" y2="459.974" gradientTransform="scale(-434.3974 434.3974) rotate(61.842 248.008 456.268)"><stop offset="0" stop-color="#585857"/><stop offset=".012" stop-color="#585857"/><stop offset=".292" stop-color="#5d5c5c"/><stop offset=".603" stop-color="#6a6a69"/><stop offset=".928" stop-color="#807f7f"/><stop offset="1" stop-color="#868585"/></linearGradient><path clip-path="url(#ck)" fill="url(#cl)" d="M167.1 81.4L142 128.2l-49.5-26.5 25.1-46.8z"/></g><g><defs><path id="cm" d="M67.9 287.6c.7.9 1.7 2.6 1.5 3.7-.1.3-.2.6-.9.9-2.6 1.1-16.4 3.2-24.7 3.7-1.2.1-2.4.2-3.5.2-9 .6-14.9 1.1-16.7-.9-.4-.5.6-3.2 2.1-5.7 2.9.2 6.4.2 10.2.2 10 .1 22.5-.5 32-2.1m-27.6 10.2c1.1-.1 2.3-.2 3.5-.2 7.9-.5 22.3-2.6 25.2-3.8 1.3-.5 1.7-1.4 1.9-2.1.4-1.5-.5-3.3-1.3-4.4 3.6-.7 6.7-1.6 9-2.6.1 0 .1-.1.2-.1.4 3.2.9 9 .2 10.9-1.7 4.5-22.1 8-41.7 9.4-23.8 1.7-31.3-1.6-33.7-3.7-.9-.8-1.4-1.7-1.4-2.7-.2-5.8 4.3-11.1 5.8-12.7 3.6 2.3 10 3.3 15.7 3.7-1.2 2.2-2.8 5.5-1.5 6.9 1.4 1.5 3.9 2 7.7 2 2.8-.1 6.2-.3 10.4-.6m91.1-14.7c2.2 2.9 4.9 5.1 8.4 6.1 0 .6-.1 1.4-.5 1.8-.1.1-.3.3-.8.3-2.6 0-5.1-3.8-7.1-8.2m10.1-10.2c-3.6-2-4.6-8.3-4.8-11 1.9.7 4.2 1.2 6.9 1.7 2.8.5 7 .8 10.6.8.8 0 1.6 0 2.4-.1.4 1 1.2 3.3.3 5.3-.7 1.6-2.7 3.1-5.2 3.9-1.4.5-2.9.7-4.3.7-2.1.2-4.2-.3-5.9-1.3m-83.6-10c.1-.4-.1-.9-.5-1-.3-.1-3.1-1-7-2.1.1-.6.3-1.6.5-2.8 1.6-.1 8.2-.2 12.3.8 1.4.3 2.7.8 3.9 1.2-1.4 3-3.5 7.1-6 8-4.4 1.5-16.3 2.3-21.8-.4-1.3-.6-2-1.4-2.3-2.3-1-3-2.8-5.3-5-6.7 10.2 1.3 24.7 5.9 24.8 5.9h.2c.5 0 .8-.3.9-.6m-6.1-12c1.5-.2 6.8-1 11.6-.5h.1c2.6.3 9.5 1.1 11.7 4.2.7.9.8 2 .5 3.3-.2 1-.6 1.2-.8 1.3-1 .5-3.1-.2-5.6-1.1-1.7-.6-3.6-1.3-5.8-1.8-4.1-1-10.3-.9-12.4-.9.3-1.4.5-2.9.7-4.5m92 11.2c-6-1.1-9.7-2.3-11.9-5.5-1-1.5.3-6.4 1.8-10.5v-.1c.2-.5.4-1 .5-1.4 2 3.2 5.3 6.5 9.8 9.6 4.2 2.9 10.6 5.9 16.8 6.7 0 .5 0 1.2-.7 1.4-.9.4-3.3.6-6.1.6-3.2 0-7.3-.2-10.2-.8m-68-1.5c.8-.4 1.3-1.2 1.6-2.3.4-1.7.1-3.3-.8-4.6-1-1.4-2.6-2.4-4.4-3.1.7-2.5 1.4-5.3 1.7-7.9 1.6.4 5.5 1.4 10.1 3 2.6.9 6.2 2.2 6.5 2.9.1.2-.3.8-.6 1.2-.3.4-.6 1-.9 1.7-2.2 4.8-4.5 12.5-6.2 20.9-.2 1.2-.4 2.2-.6 3.1-.7 3.9-1 5.6-3.2 7h-.1c-.3.2-.7.4-1.1.6-10.4 4.9-39.5 5.5-52.8 4.7-10.2-.6-16.9-2.6-18.1-5.5-2-4.9 4-15.1 8-19.1 2.3-2.4 6-4.8 10.2-5.7h.4c3.4-.8 8.2 1.9 9.9 7.1.4 1.3 1.5 2.4 3.1 3.3 2.9 1.4 7.2 2 11.4 2 4.7 0 9.3-.7 11.6-1.5 3.1-1.1 5.4-5.6 7-8.9.1 0 .1.1.2.1 2.2.8 3.9 1.4 5.3 1.4.8 0 1.3-.1 1.8-.4M92 248.1c-.1-.3-.3-.6-.7-.9.1-.1 1.3-2.1 4.2-5.6 1 .2 3.7.8 3.7 2.8 0 1.4-4 3.1-7.2 3.9v-.2m36.6-3.4c-.9-2.3-1.2-4.5-.7-5.5.4-.7.9-1.1 1.2-1 .2.1.4.3.4.5 0 3.7 1.7 6.2 2.5 7.2-.3.8-.6 1.6-.9 2.5-.6-.5-1.7-1.5-2.5-3.7m47.1-6.6c.5-.6 1-1.1 1.5-1.7.2 1.4.4 2.8.4 4.1l-1.9-2.4zm-123.5 2.4c-.8-3.9.8-7.7 3.7-9 3.4-1.5 13.1-2.1 15.3.6 1.5 1.8 1.6 5.5 1.2 9.5-.3 2.8-1 5.8-1.8 8.5-2.6-.8-5.3-1.1-6.8-1.3h-.1c-4.7-.5-9.6.1-11.6.4.3-3.4.5-6.8.1-8.7m102.1-6.4c1.2-.2 1.6-.8 1.7-1.3.2-1.1.2-2.1.2-3 0-1.1 0-2.2.3-3.3 1.3 0 3.6.3 4.6 1.4.4.4.5.9.4 1.6-1.4 8.7 0 12.4.1 12.6 0 .1.1.1.1.2l1.5 1.9c-4.9-.7-14.6-4.7-15.5-6.3-.4-.8-.7-3.4-.8-5.4 2.2 1.1 4.8 1.7 6.5 1.7.2 0 .6-.1.9-.1m-23.6 57.7c-4.5-9.5-6.7-17-10.6-33.3-4-16.6-4.7-27.6-2.1-31 1.1-1.4 2.3-1.6 3.2-1.5-6.1 6.6-1 26.6 4.1 43.3.2.7.4 1.3.6 2 .6 2.5 5.2 21.6 12.7 21.6.8 0 1.5-.3 2-.9.6-.7.8-1.7.9-2.5.9.2 1.9.2 3 .2 3.6 0 6.8-.6 9.5-1.8-.4 2-1.3 5.9-3.3 10.1-1.4 2.9-3.9 4.6-7 4.6-4.9.2-9.7-3.9-13-10.8m-3.9-22.9c-2.9-9.6-10.7-35-4.5-41.8 3.4-3.7 7.5-3.4 8.5-3.3 1.7 1.6 3.2 3.4 4.6 5.1-1.1 1.2-3.6 4.3-3.4 8.8.1 1.7.5 3.3 1.3 5-.1.3-.3.8-.6 1.4-.7-1.1-1.6-2.9-1.6-5.4 0-.9-.7-1.8-1.6-2-.4-.1-1.9-.3-3.1 1.8-1.2 2.1.1 5.8.6 6.8 1.1 2.9 2.8 4.2 3.7 4.7-.8 3-1.2 6-.2 7.4 1.1 1.7 2.5 2.8 4.3 3.7.1 2.1.9 10.4 5.7 13.1 2 1.1 4.3 1.7 6.7 1.7 1.6 0 3.3-.3 4.8-.8 3-1 5.3-2.8 6.2-4.8 1-2.3.4-4.7-.1-6.1.2 0 .5-.1.7-.1.9 2 3.9 9.5 1.1 15.7-2.4 5.3-8 8.2-15.6 8.2-9.6.2-13.9-7.5-17.5-19.1m101 51.1c-5.5-1.8-10.7-8.7-10.8-8.8l-54.1-69.9c-.2-.6-1.2-4.2 0-11.6.2-1.1-.1-2.2-.8-2.9-1.3-1.4-3.6-1.8-5.1-1.9.2-.4.5-.8.9-1.3.7-.8 1.5-1.3 2.5-1.7l59.1 72.1c.2.3 5.9 7.4 10.4 8.9 2.7.9 8.3 1.9 12.5 0 15.4-7.1 22.4-10.9 38.6-19.9 2.8-1.6 4.9-2.7 9.2 4.5 3.1 5.2 4.2 9.4 3.3 12.5-.6 2-2.2 3.6-4.6 4.7-16.2 7.3-30.7 12.7-41.8 15.7-2.9.8-5.9 1.2-8.9 1.2-3.5 0-7.1-.5-10.4-1.6m-89.3-97c-.4-2.4.1-3.5.6-4.1.9 4 2.8 8.3 4.2 10.6.4.7 1.1 1.4 1.8 1.9v.2c0 .2 0 .6.1 1.3-2.3-2.4-6.2-7-6.7-9.9m-2-9.5c0-1 .7-1.6 1.3-1.9l1.1 1.4c0 .2-.1.3-.1.5-.2 1-.2 2.3 0 3.7-.4.2-.8.6-1.2 1.1-.5-1.3-1.1-3.1-1.1-4.8m8-13.5c1.9-3.4 5.1-9.4 8.3-16.2.9 1.4 3.2 5 5.9 9.6-1 2.3-2.1 4.1-3.1 4.9-1.6 1.3-3.3 2.2-5 3.1-1.1.6-2.3 1.1-3.4 1.9l-2.7-3.3zm-60 44.2c-4.9-1.8-8.9-2.8-10.5-3.1.4-4.2.1-8-1.6-10-1.2-1.5-3.7-2.2-6.5-2.4 2.5-7.1 4.7-12.5 6.4-16 1.5-3.1 4-7.4 6.6-11.8 3.9-6.7 8-13.6 9.2-17.5.3-1 .6-2.1.8-3.2 4.5 1.6 9.5 1.7 10.9 1.7h.1c1.4.8 2.7 1.4 3.7 1.7 1 .3 2 .4 3 .4 3.6 0 6.5-1.7 7.7-2.7l22.5 29.1c-.8.5-1.9 1.6-1.9 3.2 0 3 1.4 6.2 1.8 7-.1.7 0 1.6.2 2.7.8 4.3 7.3 11.1 8.5 12.3.2 1.2.4 2.4.7 3 1.5 2.8 13.7 7.3 18.2 7.3l8.3 10.7c-6.6 6.1-19.9 1.6-27.5-3.6-5-3.5-8.4-7-10.1-10.4v-.1c-.8-1.6-1.2-3.1-1.3-4.6-.2-3.7 1.8-6.4 2.8-7.5 5 6.1 10.1 15 10.1 15.1.2.4.7.5 1.1.3.4-.2.5-.7.3-1.1-.1-.1-5.6-9.8-10.9-16l-.5-.6c-4.1-4.8-9.6-11.5-16.6-9.2-5.6 1.9-14.2 8.9-19.6 14.6-7.6 8.1-10.5 12.8-10.6 13-1-.7-2.7-1.4-5.3-2.3m27.4-83.9c1.2-.2 2.6-.3 3.3.2.7.5 1.3 3.1 1.6 5.8l-4.9-6zm-7.3 5.8c-.1-1.5-.3-3.8 0-4.6.5-1.5 1.7-2.9 2.9-4l2.3 2.8 33 40.3 2.9 3.6c-2.1 1.7-4.8 4.6-6.2 7.1l-34.9-45.2zm49.1 16.2l-.2-.2c2.3-5 4.5-10.4 6.1-15.4 1-3.3 1.9-6.5 2.6-9.6 1.1 4.3 2.7 11.6 2.4 14.5-.5 4.3-2.6 13.4-5.2 20-3.1-5.4-5.6-9.3-5.7-9.3m-103.4.4c.3-.2.4-.5.3-.9 0-.1-3.1-11.5 3.4-24.6.2-.3.3-.6.5-.9l.1.1.5.6c4.5 4.9 13.2 13.3 18.4 17.5 2.9 2.4 9.3 3 10.5 3.1.6.4 1.3.8 1.8 1.1.5.3 1 .6 1.6.8-.3 1.2-.6 2.3-.9 3.3-1.1 3.7-5.1 10.6-9 17.2-2.3 3.9-4.4 7.5-6 10.5-5 .9-13.9.9-20.8-8-8.5-11.1-8.7-20.5-8.4-23.7l7 4c.1.1.3.1.4.1.3 0 .5-.1.6-.2m21.6-53.4c1.1-.4 2.4-.8 3.7-1.1 1.9-.5 7.8-.9 9.9-1 .3 1.7 1 6.2 1.8 11.2-3.9-1.8-11.3-6.4-15.4-9.1m2.7 44c-5.2-4.2-13.8-12.5-18.2-17.3l-.5-.6c-7.5-8.1-21.4-23.2-20.5-33.4.5-5.2 6.2-11.5 17-18.5 8.1-5.2 20.5-8.8 20.7-8.9.2-.1 9.4-3 16.2 9.4 8.2 15 22.6 33.1 44.6 34.3h1.7c15.1 0 30.4-10.6 35.3-20.9 3.5 6.9 8.2 16.2 11.6 24 .4 1 .9 2.1 1.4 3.2 3.5 7.9 8.3 18.6 8.4 26.3 0 13.2-6.2 50.4-13.2 60.6-1 1.5-2.6 3.4-4.3 5.2l-12.6-15.3c3.8-.6 8.1.7 8.2.7.4.1.9-.1 1-.5.1-.4-.1-.9-.5-1-.3-.1-5.8-1.8-10.3-.5-1.4.4-2.7 1.1-3.7 2.3-.8 1-1.4 1.9-1.7 2.8-.6 1.6-.5 3-.5 4.4 0 .9 0 1.7-.1 2.6-.2.1-1.1.3-2.6 0-2.6-.4-5.9-1.8-7.1-3.8-2.2-3.6-5-11.4-4.3-14.9.6-2.7 5-7.5 7.5-9.1 1.1-.7 2.3-1.3 3.4-1.9 1.8-.9 3.6-1.8 5.4-3.3 4.9-4.1 9-22.7 9.6-27.8.5-4.2-2.8-16.6-3.3-18.3 2.8-14.6 2-25.2 2-25.3 0-.4-.4-.8-.9-.7-.4 0-.8.4-.7.9 0 .2 1.2 17.3-5.3 37.9-3.9 12.1-11.2 26.1-14.7 32.5l-24.7-30.2c-.1-1.8-.5-8-2.5-9.4-.1-.1-.2-.1-.3-.1 1.2-1.8 2.5-5.2.5-8.1-6.3-9.6-11.8-11.5-13.9-11.9-3-.5-5.9-.1-8.5.2-1.9.3-3.6.5-4.7.2-.1 0-.2-.1-.3-.1-1-6.9-2.1-12.9-2.1-13v-.1c0-.1 0-.1-.1-.1l-.1-.1-.1-.1s-.1-.1-.2-.1c0 0-.1 0-.1-.1h-.2-.1c-.3 0-8.4.5-10.9 1.1-2.8.7-5.1 1.6-7.1 2.3-2.9 1.1-5.5 2.1-8.4 2.1-7.1 0-12.3-4.2-12.3-4.2-.3-.3-.9-.2-1.1.1-.3.3-.2.9.1 1.1.2.2 5.6 4.6 13.3 4.6 3.2 0 5.9-1 9-2.2.4-.2.9-.3 1.3-.5 2.2 1.4 13.6 8.8 18 10.6h.1l.9.3c1.5.4 3.3.1 5.3-.2 2.4-.3 5.2-.7 7.9-.2 1.9.3 6.9 2.1 12.8 11.2 2 3-.4 6.3-.8 6.8-1.3-.1-2.7.2-3.4.3l-2-2.4c.7-.6 1.2-.9 1.2-.9.4-.3.5-.8.2-1.1-.3-.4-.8-.5-1.1-.2-.2.1-4.8 3.3-5.9 6.8-.4 1.3-.1 4.8 0 5.5v.2c0 .1 0 .1.1.2v.1l10.1 13.1c-1.4 1-5 3.1-9.3 2-4.1-1.1-13.3-8.1-13.4-8.2-.4-.3-.9-.2-1.1.2-.3.4-.2.9.2 1.1.2.2 3.6 2.8 7.3 5.1-2.9-.2-7.2-.9-10.3-2.7-2.7-1.6-6.7-4.2-6.8-4.3-.4-.2-.9-.1-1.1.2-.2.4-.1.9.2 1.1 0 0 .7.5 1.7 1.1-2.3-.3-4.9-1-6.3-2.2m3.7-88.7c1.4-1.2 3.6-2.5 4.8-3.1 1.9 6.2 6.4 17.4 15.7 25.6 10.3 9 20.6 14.7 30.9 16.8h.4c8.4-1.7 16.9-5.9 25.3-12.3 6.2-1.8 11.4-3.1 16.1-4.2-.1 2.5-.5 4.9-1.1 7.1-3.3 10.8-20.2 23.1-36.3 22.2-21.3-1.2-35.3-18.9-43.3-33.5C84.9 92.4 77.1 92.3 74 92.7c.4-2 1.8-6 4.3-8.1m82.6 22.4c13.2-11.6 16.7-29.3 16.9-30v-.1-.1s-.3-2.4-1.1-5.8c2.8-1.2 15.1-6.6 28.8-10.8 1-.3 2.2-.7 3.5-1.1 8-2.6 21.5-6.9 29.2-6.9h.1c7.4 0 9 9.3 10.9 20.1.3 1.9.7 3.9 1.1 5.8l.2 1.2c2.3 11.4 3.8 19-3.5 22.4-4.8 2.3-21.7 1.7-32.8 1.3-3.5-.1-6.5-.2-8.6-.2-16.3 0-25.5.3-46.8 6.2.6-.7 1.3-1.3 2.1-2m10.9-51.3c0-1-.1-5.9-1.1-12.5 1-2.4 5.3-12.4 6.9-15.9 1.1-2.3 2.7-3.9 4.9-4.5 2.7-.8 6-.2 9 1.7 1.9 1.2 3.4 2 5 2.9 2.6 1.4 5.2 2.9 9.9 6.1.6.4 1.2.8 1.9 1.2 6.5 4.1 12.6 8.6 8.9 14.8-1 1.8-3.5 5.4-4.2 6.4-1.7.5-3.3 1-4.7 1.5-1.3.4-2.5.8-3.5 1.1-13.4 4.1-25.4 9.3-28.7 10.7-.7-3.8-2.1-8.8-4.3-13.5m-34.3-30.8c.8-1.4 1.5-6.5 1.8-10.7.7-8.9 3.7-10.8 4.9-11.5 1.7-1.1 5.7-.2 8.6 2.8 4.7 4.9 8.8 12.1 12.6 22.7 1.9 5.1 3 10.3 3.7 14.7 0 .3.1.5.2 1 1 6.9 1 11.8 1 11.9v.4c4.1 9.1 5.7 19.3 5.8 20.6-.3 1.5-4.1 18.3-16.3 29-10 8.8-20.1 14.3-30 16.4-9.9-2.1-20-7.6-30-16.4-12.2-10.7-16-27.4-16.3-29 .2-1.3 1.7-11.4 5.8-20.6V56v-.2c0-.1-.1-13.9 4.9-27.6 3.9-10.6 7.9-17.8 12.6-22.7 2.9-3 6.9-3.9 8.6-2.8 1.1.7 4.2 2.6 4.9 11.5.3 4.3 1 9.2 1.8 10.7 1.3 2.3 5 2.5 7.6 2.5 2.8.1 6.5-.2 7.8-2.5m5.8-23.5c-2.1 1.3-5 4-5.6 12.7-.4 5.2-1.1 9.1-1.6 10-.6 1.1-2.7 1.7-6.2 1.7s-5.6-.6-6.2-1.7c-.5-.9-1.2-4.9-1.6-10-.7-8.7-3.5-11.4-5.6-12.7-2.3-1.4-7-.7-10.6 3-4.9 5-9 12.4-13 23.3-4.8 13.2-5 26.3-5 28-4.4 9.9-5.9 20.9-5.9 21v.2c0 .2.2 1.2.7 2.8-1.1.6-3.7 2.1-5.3 3.5-3.3 2.8-4.8 8.2-5.2 9.8-2.4.7-13.2 4.1-20.6 8.9-11.2 7.3-17.2 13.9-17.7 19.7-1 10.3 11.8 24.8 19.7 33.3-.3.5-.5 1-.8 1.5-5.3 10.6-4.5 20.1-3.9 23.9l-6.5-3.7c-.2-.1-.5-.1-.7 0-.2.1-.4.3-.5.6-.1.5-2.4 11.9 8.6 26.2 5.6 7.3 12.5 9 17.8 9 1.2 0 2.3-.1 3.3-.2-1.7 3.6-3.9 9.1-6.4 16.2-3.5 0-7.1.7-8.9 1.5-3.6 1.6-5.6 6.1-4.6 10.8.8 4-1.3 15.4-1.9 18.6-5.8-1.6-13.3-3.3-19-3.7-6.6-.5-12.5 3-15.9 6.5-4.2 4.2-10.7 15.1-8.3 20.9.3.6.7 1.2 1.2 1.7C5.4 286.5.8 292 1 298.4c0 1.5.7 2.8 1.9 3.9 3.4 3.1 11.1 4.6 22.6 4.6 3.7 0 7.8-.2 12.2-.5 9.5-.7 40.5-3.5 43.1-10.5 1-2.7.1-10.2-.2-12.3 2.5-1.7 2.9-4 3.6-7.8.2-.9.3-1.9.6-3.1 1.7-8.3 3.9-15.8 6-20.6.3-.6.6-1.1.8-1.6.1-.2.3-.5.4-.7 2.2-.5 9.1-2.4 9.1-5.7 0-2.7-2.5-3.8-4.1-4.2 1.4-1.6 3-3.5 5-5.6 5.2-5.5 13.5-12.4 18.9-14.2 3-1 5.8.1 8.3 2-1.7.1-4.1.7-6.3 2.5-1.4-.6-3.9-.8-5.9 1.8-3.7 4.8-1 20.2 1.8 32.3 3.9 16.4 6.1 23.9 10.7 33.6 3.5 7.5 8.9 12 14.4 12 3.7 0 6.8-2.1 8.4-5.6 2.6-5.5 3.4-10.4 3.6-11.8 2.6-1.5 4.6-3.7 5.8-6.4 3-6.5.2-14.1-.9-16.7.1 0 .2-.1.3-.1 1.3-.5 1.7-1.7 1.7-2.8h1.3c3.6 0 7-1 9.7-3.3l42.1 54.4c.2.3 5.6 7.4 11.6 9.3 3.5 1.1 7.2 1.7 10.9 1.7 3.1 0 6.3-.4 9.3-1.2 11.2-3 25.7-8.5 42-15.8 2.9-1.3 4.7-3.2 5.5-5.7 1.1-3.6 0-8.2-3.4-13.9-4.8-7.9-7.8-7-11.4-5.1-16.1 9-23.2 12.8-38.5 19.8-3.7 1.7-8.9.8-11.3 0-4-1.3-9.6-8.3-9.6-8.4l-41.4-50.5c0-2.4-.2-5-.7-7.8.6-.8 1.2-1.5 1.7-2.2 7.3-10.7 13.6-47.8 13.5-61.5 0-8-4.9-19-8.5-27-.5-1.1-1-2.2-1.4-3.2-3.7-8.4-8.7-18.3-12.3-25.4.1-.2.1-.3.2-.5.7-2.4 1.1-5.1 1.2-8 12.2-2.5 20.3-2.7 32.4-2.7 2.1 0 5.1.1 8.6.2 12 .4 28.4 1 33.5-1.5 8.4-4 6.6-12.9 4.4-24.2l-.2-1.2c-.4-1.9-.7-3.9-1.1-5.8-1.9-11.1-3.7-21.5-12.4-21.5h-.1c-5.9 0-14.9 2.4-22.5 4.7 1-1.5 2.4-3.6 3.1-4.8 4.8-8.1-4.1-13.7-9.5-17-.7-.4-1.4-.8-1.9-1.2-4.7-3.2-7.4-4.7-10-6.1-1.6-.9-3.1-1.7-5-2.9-3.4-2.1-7.2-2.8-10.3-1.9-2.6.8-4.6 2.6-5.9 5.4-1.3 2.8-4.3 9.7-5.9 13.6-.7-3.9-1.8-8.2-3.4-12.5-3.9-10.9-8.1-18.2-13-23.3-2.5-2.6-5.5-3.7-7.9-3.7-1.2.5-2.2.8-2.9 1.2"/></defs><clipPath id="cn"><use xlink:href="#cm" overflow="visible"/></clipPath><linearGradient id="co" gradientUnits="userSpaceOnUse" x1="-271.599" y1="459.877" x2="-270.647" y2="459.877" gradientTransform="scale(-434.4122 434.4122) rotate(61.842 247.832 456.163)"><stop offset="0" stop-color="#585857"/><stop offset=".012" stop-color="#585857"/><stop offset=".292" stop-color="#5d5c5c"/><stop offset=".603" stop-color="#6a6a69"/><stop offset=".928" stop-color="#807f7f"/><stop offset="1" stop-color="#868585"/></linearGradient><path clip-path="url(#cn)" fill="url(#co)" d="M430.7 72L230.3 446.3l-364.3-195L66.3-123.1z"/></g><g><defs><path id="cp" d="M120 77.1c-.1.1-.2.1-.3.2-.8.4-1.6 1.1-1.6 2.1 0 1.2 1 2.4 2.4 3.1 2.7 1.2 16 1.2 18.6 0 1.4-.6 2.4-1.9 2.4-3.1 0-1-.8-1.7-1.6-2.1-.1-.1-.2-.1-.3-.2-1.6-.7-5.7-1.1-9.9-1.1-4 0-8.1.4-9.7 1.1"/></defs><clipPath id="cq"><use xlink:href="#cp" overflow="visible"/></clipPath><linearGradient id="cr" gradientUnits="userSpaceOnUse" x1="-263.178" y1="457.354" x2="-262.225" y2="457.354" gradientTransform="matrix(24.6904 0 0 -24.6904 6616.047 11372.095)"><stop offset="0" stop-color="#7e7c7b"/><stop offset="1" stop-color="#b6b5b6"/></linearGradient><path clip-path="url(#cq)" fill="url(#cr)" d="M118.1 76h23.5v7.6h-23.5z"/></g><g><path fill="#FFF" d="M139.6 77.5c.6.4.9.6.9 1.2 0 .8-.5 1.2-1.1 1.5-1.1.5-7.5.1-8.7-.5-.7-.3-1.2-1-1.1-1.5 0-.8.8-1.1.9-1.2 1.4-.7 7.6-.4 9.1.5"/></g><g><defs><path id="cs" d="M108.1 156.9l-.6.6 38.3 46.7s.4-.3.6-.5c.4-.3.7-.5.7-.5l-38.4-46.8s-.2.2-.6.5"/></defs><clipPath id="ct"><use xlink:href="#cs" overflow="visible"/></clipPath><linearGradient id="cu" gradientUnits="userSpaceOnUse" x1="-266.543" y1="458.35" x2="-265.591" y2="458.35" gradientTransform="matrix(41.5645 0 0 -41.5645 11186.24 19231.322)"><stop offset="0" stop-color="#b20a63"/><stop offset="1" stop-color="#c7006d"/></linearGradient><path clip-path="url(#ct)" fill="url(#cu)" d="M107.5 156.4h39.6v47.7h-39.6z"/></g><g><defs><path id="cv" d="M161.2 221.7c-.7.2-.8.3-.8.3l59.1 72.1c.2.3 5.9 7.4 10.4 8.9 2.7.9 8.3 1.9 12.5 0 15.4-7.1 22.4-10.9 38.6-19.9 2.8-1.6 4.9-2.7 9.2 4.5 3.1 5.2 4.2 9.4 3.3 12.5-.6 2-2.2 3.6-4.6 4.7-16.2 7.3-30.7 12.7-41.8 15.7-6.3 1.7-13.2 1.5-19.3-.5-5.5-1.8-10.7-8.7-10.8-8.8l-54.2-70c-.3-.4-.8-.4-1.1-.1-.4.3-.4.8-.1 1.1l54.2 70c.2.3 5.6 7.4 11.6 9.3 3.5 1.1 7.2 1.7 10.9 1.7 3.1 0 6.3-.4 9.3-1.2 11.2-3 25.7-8.5 42-15.8 2.9-1.3 4.7-3.2 5.5-5.7 1.1-3.6 0-8.2-3.4-13.9-4.8-7.9-7.8-7-11.4-5.1-16.1 9-23.2 12.8-38.5 19.8-3.7 1.7-8.9.8-11.3 0-4-1.3-9.6-8.3-9.6-8.4l-58.7-71.5c-.1.1-.6.2-1 .3"/></defs><clipPath id="cw"><use xlink:href="#cv" overflow="visible"/></clipPath><linearGradient id="cx" gradientUnits="userSpaceOnUse" x1="-270.066" y1="459.195" x2="-269.114" y2="459.195" gradientTransform="matrix(141.8477 0 0 -141.8477 38468.66 65408.18)"><stop offset="0" stop-color="#b20a63"/><stop offset="1" stop-color="#c7006d"/></linearGradient><path clip-path="url(#cw)" fill="url(#cx)" d="M160.4 221.5h135.8v101.7H160.4z"/></g><g><defs><path id="cy" d="M103.3 165.7c-.4.3-.4.8-.1 1.1l35.7 46.1s.1-.5.3-1c.2-.4.4-.7.4-.7l-35.1-45.4c-.2-.2-.4-.3-.6-.3-.2.1-.4.1-.6.2"/></defs><clipPath id="cz"><use xlink:href="#cy" overflow="visible"/></clipPath><linearGradient id="cA" gradientUnits="userSpaceOnUse" x1="-266.131" y1="458.267" x2="-265.178" y2="458.267" gradientTransform="matrix(38.4121 0 0 -38.4121 10325.661 17792.266)"><stop offset="0" stop-color="#b20a63"/><stop offset="1" stop-color="#c7006d"/></linearGradient><path clip-path="url(#cz)" fill="url(#cA)" d="M102.9 165.6h36.7V213h-36.7z"/></g><g><defs><path id="cB" d="M182.1 21.2c-2.6.8-4.6 2.6-5.9 5.4-1.3 2.8-4.3 9.7-5.9 13.6 0 0 .1.7.3 1.6.1.4.2 1.4.2 1.4 1-2.4 5.3-12.4 6.9-15.9 1.1-2.3 2.7-3.9 4.9-4.5 2.7-.8 6-.2 9 1.7 1.9 1.2 3.4 2 5 2.9 2.6 1.4 5.2 2.9 9.9 6.1.6.4 1.2.8 1.9 1.2 6.5 4.1 12.6 8.6 8.9 14.8-1 1.8-3.5 5.4-4.2 6.4-1.7.5-3.3 1-4.7 1.5-1.3.4-2.5.8-3.5 1.1-13.3 4.1-25.4 9.3-28.7 10.7 0 0 .1.3.1.7.1.4.2.9.2.9 2.8-1.2 15.1-6.6 28.8-10.8 1-.3 2.2-.7 3.5-1.1 8-2.6 21.5-6.9 29.2-6.9h.1c7.4 0 9 9.3 10.9 20.1.3 1.9.7 3.9 1.1 5.8l.2 1.2c2.3 11.4 3.8 19-3.5 22.4-4.8 2.3-21.7 1.7-32.8 1.3-3.5-.1-6.5-.2-8.6-.2-16.3 0-25.5.3-46.8 6.2 0 0-1.1 1-1.5 1.2-.7.6-1.9 1.4-1.8 1.4 6.2-1.8 11.4-3.1 16.1-4.2-.1 2.5-.5 4.9-1.1 7.1-3.3 10.8-20.2 23.1-36.3 22.2-21.3-1.2-35.3-18.9-43.3-33.5C84.8 92.2 77 92.1 73.9 92.5c.6-2 2-6.1 4.5-8.2 1.4-1.2 3.6-2.5 4.8-3.1l-.3-.9c-.2-.6-.2-.7-.2-.7-1.1.6-3.7 2.1-5.3 3.5-3.9 3.2-5.3 10-5.3 10.3v.6s0 .1.1.1c0 .1 0 .1.1.1l.1.1.1.1s.1 0 .2.1h.4c.2-.1 9.4-3 16.2 9.4 8.2 15 22.6 33.1 44.6 34.3h1.7c16.3 0 32.9-12.4 36.2-23.4.7-2.4 1.1-5.1 1.2-8 12.2-2.5 20.3-2.7 32.4-2.7 2.1 0 5.1.1 8.6.2 12 .4 28.4 1 33.5-1.5 8.4-4 6.6-12.9 4.4-24.2l-.2-1.2c-.4-1.9-.7-3.9-1.1-5.8-1.9-11.1-3.7-21.5-12.4-21.5h-.1c-5.9 0-14.9 2.4-22.5 4.7 1-1.5 2.4-3.6 3.1-4.8 4.8-8.1-4.1-13.7-9.5-17-.7-.4-1.4-.8-1.9-1.2-4.7-3.2-7.4-4.7-10-6.1-1.6-.9-3.1-1.7-5-2.9-2.4-1.5-5-2.3-7.4-2.3-.9.3-1.9.5-2.8.7"/></defs><clipPath id="cC"><use xlink:href="#cB" overflow="visible"/></clipPath><linearGradient id="cD" gradientUnits="userSpaceOnUse" x1="-270.412" y1="459.223" x2="-269.459" y2="459.223" gradientTransform="matrix(190.9531 0 0 -190.9531 51707.887 87769.727)"><stop offset="0" stop-color="#0064a2"/><stop offset=".012" stop-color="#0064a2"/><stop offset=".529" stop-color="#0066a4"/><stop offset=".775" stop-color="#006bac"/><stop offset=".964" stop-color="#0075b9"/><stop offset="1" stop-color="#0077bc"/></linearGradient><path clip-path="url(#cC)" fill="url(#cD)" d="M71.9 20.8h184v117.6h-184z"/></g><g><defs><path id="cE" d="M141.5 272.9c-3.6-2-4.6-8.3-4.8-11 1.9.7 4.2 1.2 6.9 1.7 2.8.5 7 .8 10.6.8.8 0 1.6 0 2.4-.1.4 1 1.2 3.3.3 5.3-.7 1.6-2.7 3.1-5.2 3.9-1.4.5-2.9.7-4.3.7-2.1.2-4.2-.3-5.9-1.3m-12.9-28.2c-.9-2.3-1.2-4.5-.7-5.5.4-.7.9-1.1 1.2-1 .2.1.4.3.4.5 0 3.7 1.7 6.2 2.5 7.2-.3.8-.6 1.6-.9 2.5-.6-.5-1.7-1.5-2.5-3.7m-7.4-18.6c-6.1 6.6-1 26.6 4.1 43.3 3.2 10.6 7.8 20.4 19.2 20.4 8.3 0 14.4-3.2 17.1-9.1 3-6.5.2-14.1-.9-16.7.1 0 .2-.1.3-.1 1.3-.5 1.7-1.7 1.7-2.8 0 0-.3 0-.8-.1-.6-.1-.9-.1-.9-.1 0 .5 0 1.2-.7 1.4-2.1.8-11.3.7-16.5-.2-6-1.1-9.7-2.3-11.9-5.5-1-1.5.3-6.4 1.8-10.5v-.1c.2-.5.4-1 .5-1.4 0 0-.2-.4-.5-.9s-.5-1-.5-1c-.1.3-.3.8-.6 1.4-.7-1.1-1.6-2.9-1.6-5.4 0-.9-.7-1.8-1.6-2-.4-.1-1.9-.3-3.1 1.8-1.2 2.1.1 5.8.6 6.8 1.1 2.9 2.8 4.2 3.7 4.7-.8 3-1.2 6-.2 7.4 1.1 1.7 2.5 2.8 4.3 3.7.1 2.1.9 10.4 5.7 13.1 2 1.1 4.3 1.7 6.7 1.7 1.6 0 3.3-.3 4.8-.8 3-1 5.3-2.8 6.2-4.8 1-2.3.4-4.7-.1-6.1.2 0 .5-.1.7-.1.9 2 3.9 9.5 1.1 15.7-2.4 5.3-8 8.2-15.6 8.2-9.8 0-14.1-7.7-17.6-19.2-2.9-9.6-10.7-35-4.5-41.8 3.4-3.6 7.5-3.4 8.5-3.3 0 0-.4-.4-.9-.8-.6-.5-1-.8-1-.8-1.8.3-4.9 1.1-7.5 4"/></defs><clipPath id="cF"><use xlink:href="#cE" overflow="visible"/></clipPath><linearGradient id="cG" gradientUnits="userSpaceOnUse" x1="-267.104" y1="458.558" x2="-266.151" y2="458.558" gradientTransform="matrix(46.7407 0 0 -46.7407 12603.004 21689.338)"><stop offset="0" stop-color="#0064a2"/><stop offset=".012" stop-color="#0064a2"/><stop offset=".529" stop-color="#0066a4"/><stop offset=".775" stop-color="#006bac"/><stop offset=".964" stop-color="#0075b9"/><stop offset="1" stop-color="#0077bc"/></linearGradient><path clip-path="url(#cF)" fill="url(#cG)" d="M115.1 222.2h49.5v67.5h-49.5z"/></g><g><defs><path id="cH" d="M57.9 262.9c.1-.4-.1-.9-.5-1-.3-.1-3.1-1-7-2.1.1-.6.3-1.6.5-2.8 1.6-.1 8.2-.2 12.3.8 1.4.3 2.7.8 3.9 1.2-1.4 3-3.5 7.1-6 8-4.4 1.5-16.3 2.3-21.8-.4-1.3-.6-2-1.4-2.3-2.3-1-3-2.8-5.3-5-6.7 10.2 1.3 24.7 5.9 24.8 5.9h.2c.5 0 .8-.3.9-.6m-6.1-12c1.5-.2 6.8-1 11.6-.5h.1c2.6.3 9.5 1.1 11.7 4.2.7.9.8 2 .5 3.3-.2 1-.6 1.2-.8 1.3-1 .5-3.1-.2-5.6-1.1-1.7-.6-3.6-1.3-5.8-1.8-4.1-1-10.3-.9-12.4-.9.3-1.4.5-2.9.7-4.5m24 9.7c.8-.4 1.3-1.2 1.6-2.3.4-1.7.1-3.3-.8-4.6-1-1.4-2.6-2.4-4.4-3.1.7-2.5 1.4-5.3 1.7-7.9 1.6.4 5.5 1.4 10.1 3 2.6.9 6.2 2.2 6.5 2.9.1.2-.3.8-.6 1.2-.3.4-.6 1-.9 1.7-2.2 4.8-4.5 12.5-6.2 20.9-.2 1.2-.4 2.2-.6 3.1-.8 4.5-1.1 6-4.3 7.6-10.4 4.9-39.5 5.5-52.8 4.7-10.2-.6-16.9-2.6-18.1-5.5-2-4.9 4-15.1 8-19.1 2.3-2.4 6-4.8 10.2-5.7h.4c3.4-.8 8.2 1.9 9.9 7.1.4 1.3 1.5 2.4 3.1 3.3 2.9 1.4 7.2 2 11.4 2 4.7 0 9.3-.7 11.6-1.5 3.1-1.1 5.4-5.6 7-8.9.1 0 .1.1.2.1 2.2.8 3.9 1.4 5.3 1.4.7 0 1.2-.1 1.7-.4m-23.6-20.1c-.8-3.9.8-7.7 3.7-9 3.4-1.5 13.1-2.1 15.3.6 1.5 1.8 1.6 5.5 1.2 9.5-.3 2.8-1 5.8-1.8 8.5-2.6-.8-5.3-1.1-6.8-1.3h-.1c-4.7-.5-9.6.1-11.6.4.3-3.4.5-6.8.1-8.7m3.1-10.5c-3.6 1.6-5.6 6.1-4.6 10.8.8 4-1.3 15.4-1.9 18.6-5.8-1.6-13.3-3.3-19-3.7-6.6-.5-12.5 3-15.9 6.5-4.2 4.2-10.7 15.1-8.3 20.9 1.9 4.6 11.7 6.1 19.5 6.5 2.9.2 6.6.3 10.7.3 14.7 0 34.5-1.3 42.8-5.2 4-1.9 4.4-4.2 5.2-8.7.2-.9.3-1.9.6-3.1 1.7-8.3 3.9-15.8 6-20.6.3-.6.6-1.1.8-1.6.1-.2.3-.5.4-.7 2.2-.5 9.1-2.4 9.1-5.7 0-2.7-2.5-3.8-4.1-4.2l-.6.6c-.5.6-.6.8-.6.8 1 .2 3.7.8 3.7 2.8 0 1.4-4 3.1-7.2 3.9v-.1c-.4-1.2-2-1.9-7.4-3.8-4.9-1.8-8.9-2.8-10.5-3.1.4-4.2.1-8-1.6-10-1.5-1.9-4.9-2.5-8.3-2.5-3.4-.1-7 .5-8.8 1.3"/></defs><clipPath id="cI"><use xlink:href="#cH" overflow="visible"/></clipPath><linearGradient id="cJ" gradientUnits="userSpaceOnUse" x1="-269.4" y1="459.064" x2="-268.447" y2="459.064" gradientTransform="matrix(100.5376 0 0 -100.5376 27089.89 46412.324)"><stop offset="0" stop-color="#0064a2"/><stop offset=".012" stop-color="#0064a2"/><stop offset=".529" stop-color="#0066a4"/><stop offset=".775" stop-color="#006bac"/><stop offset=".964" stop-color="#0075b9"/><stop offset="1" stop-color="#0077bc"/></linearGradient><path clip-path="url(#cI)" fill="url(#cJ)" d="M3.2 228.6h97.6v61.2H3.2z"/></g><g><path fill="#FFF" d="M237.6 77.7c.6 8.3-5.6 15.5-13.9 16.2-8.3.6-15.5-5.6-16.2-13.9-.6-8.3 5.6-15.5 13.9-16.2 8.3-.6 15.5 5.6 16.2 13.9"/><path fill="#C6C6C5" d="M221.2 61.5c-9.6.7-16.7 9.1-16 18.7.7 9.6 9.1 16.7 18.7 16 9.6-.7 16.7-9.1 16-18.7-.7-9.6-9.1-16.7-18.7-16m2.5 32.4c-8.3.6-15.5-5.6-16.2-13.9-.6-8.3 5.6-15.5 13.9-16.2 8.3-.6 15.5 5.6 16.2 13.9.6 8.3-5.6 15.5-13.9 16.2"/><path fill="#0080C8" d="M220.1 74.5l2.5-1v.2l-2.5 1v-.2zm-.9-5.4l.7-.3-.2-.1-.5.2v.2zm0-.8l-.2-.2v.2h.2zm.7 4.8l2.8-1.1v-.2l-2.8 1.2v.1zm-.4-2.4l1.6-.7-.2-.2-1.5.6.1.3zm.2 1.6l2.6-1.1-.2-.1-2.5 1 .1.2zm-.4-2.4l1.2-.5-.2-.1-1 .4v.2zm.7 4l2.6-1.1v-.2l-2.7 1.1.1.2zm-.4-2.4l2.1-.9-.2-.2-2 .8.1.3zM214.9 73.1l-.7.7v-.3l.6-.7.1.3zm-.5-2.1l-.1.1v.3l.2-.2-.1-.2zm.2 1l-.4.4v.3l.4-.5V72zm.6 2.8l-1.1 1.2v.3l1.2-1.2-.1-.3zm0 5l1.1-1.2-.1-.2-1.2 1.3.2.1zm.8-2.1l-.1-.2-1.7 1.8.2.1 1.6-1.7zm0 2.4l.6-.6-.1-.2-.7.8h.2zm-.6-4.4l-1.4 1.4v.3l1.4-1.5v-.2zm-.4-1.9l-.9.9v.3l.9-1v-.2zm1.8 6.6v-.3l-.2.2.2.1zm-1.1-3.8l-1.6 1.7v.3l1.7-1.8-.1-.2zM229.2 74.3l-1.2.9V75l1.2-.9v.2zm-1.2-5.2l-.2.2v.2l.4-.3-.2-.1zm1.2 1l-1.4 1v.2l1.5-1.1-.1-.1zm-.6-.5l-.8.6v.2l.9-.7-.1-.1zm0 7.9l-.4.3v.2l.4-.3v-.2zm1.3-6.7l-2 1.3v.2l2-1.5zm-.4 2.1L228 74v.2l1.4-1.1.1-.2zm-.5 2.3l-1 .7v.2l.9-.7.1-.2zm-.2 1.1l-.7.5v.2l.6-.5.1-.2zm.9-4.6l-1.8 1.3v.2l1.7-1.3.1-.2z"/><path fill="#E5007E" d="M224.4 75.5l-1.3-8-.2 6.6zM225 81.1l-2.2 1.5-5.5-2z"/><path fill="#0080C8" d="M225.2 80.8l2.9-6.2.1 4zM228 74.3l-2.2-7.2 1.9 1.7zM224.3 75.8l-1.6-1.4-2.5 1 .1.3z"/><path fill="#E5007E" d="M215.9 76.7l.6-8.1-1.9 2z"/><path fill="#0080C8" d="M216.1 77l1.1 3 2.7.3z"/><path fill="#E30521" d="M229.7 83.2l.6.9h-.1l-.5.1s-.1 0 0 0c0 0 0 .1.1.1s.6-.1.6-.1h.1v.1l-.2.1-.9.2.1.1 2.6-.5-.1.1-.1.1-2.8.6.1.1 2.4-.4v.1h-.1l-1.8.4.1.1 1.5-.2h.1l-.1.1s0 .1-.1.1h-.1l-.9.2.1.1.7-.1h.2l.1.2-.5.1s0 .1.1.1h.7c0 .1.2.6.2.6v.1h-.1l-1.4-.6-1.2 1h-.1v-1.6l-1.3-.9s-.1-.1 0-.1 1.5-.5 1.5-.5l.4-1.5c-.1.8-.1.7.1.8 0-.1 0 0 0 0"/><path fill="#008FD3" d="M217.6 85.2l.6.9-.6.2s-.1 0 0 0c0 0 0 .1.1.1s.6-.1.6-.1h.1l.1.1-1.1.3.1.1h.6l.1.1-1 .2.1.1c.1 0 1.2-.2 1.3-.2l.1.1-1 .3.1.1 1.4-.1.1.1-1 .3s0 .1.1.1l1.1-.1v.2l-.6.2s0 .1.1.1h.6v.7h-.1l-1.3-.5-1.2 1h-.1v-1.6l-1.3-.9s-.1-.1 0-.1 1.5-.5 1.5-.5l.4-1.5c-.1.3 0 .2.1.3 0-.1 0 0 0 0"/><path fill="#FBBE00" d="M220.6 84.7l.6.9-.6.2s0 .1.1.1.6-.1.6-.1h.1l.1.1-1.1.3.1.1h.6l.1.1-1 .2.1.1c.1 0 1.2-.2 1.3-.2l.1.1-1 .3.1.1 1.4-.1.1.1-1 .3s0 .1.1.1l1.1-.1v.2l-.6.2s0 .1.1.1h.6v.7h-.1l-1.3-.5-1.2 1h-.1v-1.6l-1.3-.9s-.1-.1 0-.1 1.5-.5 1.5-.5l.4-1.5c0 .3 0 .2.1.3 0-.1 0 0 0 0"/><path fill="#00151D" d="M223.7 84.2l.6.9-.6.2s-.1 0 0 0c0 0 0 .1.1.1s.6-.1.6-.1h.1l.1.1-1.1.3.1.1h.6l.1.1-1 .2.1.1c.1 0 1.2-.2 1.3-.2l.1.1-1 .3.1.1 1.4-.1.1.1-1 .3s0 .1.1.1l1.1-.1v.2l-.6.2s0 .1.1.1h.6v.7h-.1l-1.3-.5-1.2 1h-.1v-1.6l-1.3-.9s-.1-.1 0-.1 1.5-.5 1.5-.5l.4-1.5c-.1.3-.1.2.1.3-.1-.1 0 0 0 0"/><path fill="#00914C" d="M226.7 83.7l.6.9-.6.2s0 .1.1.1.6-.1.6-.1h.1l.1.1-1.1.3.1.1h.6l.1.1-1 .2.1.1c.1 0 1.2-.2 1.3-.2l.1.1-1 .3.1.1 1.4-.1.1.1-1 .3s0 .1.1.1l1.1-.1v.2l-.6.2s0 .1.1.1h.6v.7h-.1l-1.3-.5-1.2 1h-.1v-1.6l-1.3-.9s-.1-.1 0-.1 1.5-.5 1.5-.5l.4-1.5c-.1.3-.1.2.1.3 0-.1 0 0 0 0"/><path fill="#FFF" d="M243.5 237.2c-7.2 7.2-13.1 16.5-9.9 19.6l7.6 7.6c3.2 3.2 12.5-2.7 19.6-9.9 7.2-7.2 13.1-16.5 9.9-19.6l-7.6-7.6c-3.1-3.1-12.4 2.8-19.6 9.9"/></g><g><defs><path id="cK" d="M242.4 263.3l-5.7-5.7c4.3-.5 11-5.2 16.5-10.7 5.5-5.5 10.2-12.2 10.7-16.5l5.7 5.7c1.6 1.6-1.5 8.9-9.9 17.3-7 7-13.3 10.3-16.1 10.3-.5 0-.9-.1-1.2-.4m-7.6-7.6c-1.6-1.6 1.5-8.9 9.9-17.3s15.8-11.5 17.3-9.9c1.5 1.5-1.5 8.9-9.9 17.3-7 7-13.3 10.3-16.1 10.3-.6 0-1-.1-1.2-.4m8.7-18.5c-7.2 7.2-13.1 16.5-9.9 19.6l7.6 7.6c3.2 3.2 12.5-2.7 19.6-9.9 7.2-7.2 13.1-16.5 9.9-19.6l-7.6-7.6c-.6-.6-1.4-.9-2.4-.9-4.2.1-11.4 5-17.2 10.8"/></defs><clipPath id="cL"><use xlink:href="#cK" overflow="visible"/></clipPath><linearGradient id="cM" gradientUnits="userSpaceOnUse" x1="-268.988" y1="455.557" x2="-268.036" y2="455.557" gradientTransform="scale(43.8365 -43.8365) rotate(45 425.32 556.05)"><stop offset="0" stop-color="#006db0"/><stop offset=".576" stop-color="#006fb2"/><stop offset=".851" stop-color="#0075ba"/><stop offset="1" stop-color="#007bc2"/></linearGradient><path clip-path="url(#cL)" fill="url(#cM)" d="M209.9 247l42.3-42.3 42.3 42.3-42.3 42.4z"/></g><g><defs><path id="cN" d="M253.2 246.9c-5.5 5.5-12.2 10.2-16.5 10.7l5.7 5.7c1.5 1.5 8.9-1.5 17.3-9.9s11.5-15.8 9.9-17.3l-5.7-5.7c-.4 4.3-5.2 11.1-10.7 16.5"/></defs><clipPath id="cO"><use xlink:href="#cN" overflow="visible"/></clipPath><linearGradient id="cP" gradientUnits="userSpaceOnUse" x1="-268.779" y1="455.288" x2="-267.826" y2="455.288" gradientTransform="scale(40.4342 -40.4342) rotate(45 425.963 556.032)"><stop offset="0" stop-color="#009ee2"/><stop offset=".252" stop-color="#0096dc"/><stop offset=".779" stop-color="#006db0"/><stop offset=".856" stop-color="#0075ba"/><stop offset="1" stop-color="#0082ca"/></linearGradient><path clip-path="url(#cO)" fill="url(#cP)" d="M219.5 247.7l34.5-34.5 34.4 34.5-34.4 34.4z"/></g><g><defs><path id="cQ" d="M244.7 238.4c-8.4 8.4-11.5 15.8-9.9 17.3 1.5 1.5 8.9-1.5 17.3-9.9s11.5-15.8 9.9-17.3c-.3-.3-.7-.4-1.2-.4-2.8 0-9.1 3.2-16.1 10.3"/></defs><clipPath id="cR"><use xlink:href="#cQ" overflow="visible"/></clipPath><linearGradient id="cS" gradientUnits="userSpaceOnUse" x1="-268.779" y1="455.228" x2="-267.826" y2="455.228" gradientTransform="matrix(28.5903 -28.5903 -28.5903 -28.5902 20934.582 5586.614)"><stop offset="0" stop-color="#009ee2"/><stop offset="1" stop-color="#007ec6"/></linearGradient><path clip-path="url(#cR)" fill="url(#cS)" d="M218.6 242.7l29.8-29.8 29.7 29.8-29.7 29.7z"/></g></svg>