<svg id="Слой_1" data-name="Слой 1" xmlns="http://www.w3.org/2000/svg" viewBox="0 0 526.35 178.18"><defs><style>.cls-1,.cls-3{fill:#fff;}.cls-2{fill:#e94734;}.cls-3{fill-rule:evenodd;}</style></defs><title>logo_w</title><polygon class="cls-1" points="222.97 49.93 206.38 49.93 206.38 38.61 252.34 38.61 252.34 49.93 235.77 49.93 235.77 96.7 222.97 96.7 222.97 49.93"/><polygon class="cls-1" points="263.25 38.61 303.29 38.61 303.29 50.42 276.06 50.42 276.06 61.26 301.24 61.26 301.24 73.07 276.06 73.07 276.06 84.89 303.29 84.89 303.29 96.7 263.25 96.7 263.25 38.61"/><polygon class="cls-1" points="389.37 49.93 372.8 49.93 372.8 38.61 418.75 38.61 418.75 49.93 402.17 49.93 402.17 96.7 389.37 96.7 389.37 49.93"/><path class="cls-1" d="M478.35,74.3a28.1,28.1,0,0,1-1.56,9.53,21,21,0,0,1-4.63,7.54,21.25,21.25,0,0,1-7.68,5,28.87,28.87,0,0,1-10.59,1.8,29.24,29.24,0,0,1-10.67-1.8,20.56,20.56,0,0,1-12.3-12.55,28.1,28.1,0,0,1-1.56-9.53V38.61h12.81v35.2a14.47,14.47,0,0,0,.85,5,12.21,12.21,0,0,0,2.42,4,11.16,11.16,0,0,0,3.74,2.63,11.86,11.86,0,0,0,4.71.94,11.66,11.66,0,0,0,4.69-.94,11.12,11.12,0,0,0,3.68-2.63,11.9,11.9,0,0,0,2.43-4,14.24,14.24,0,0,0,.86-5V38.61h12.8Z"/><path class="cls-2" d="M223.13,108.29h10.55a30.09,30.09,0,0,1,7.29.85,16.73,16.73,0,0,1,6,2.79,13.53,13.53,0,0,1,4.08,5,16.67,16.67,0,0,1,1.51,7.44,15,15,0,0,1-1.47,6.84,14.49,14.49,0,0,1-3.94,4.95,17.33,17.33,0,0,1-5.73,3.05,22,22,0,0,1-6.81,1H223.13Zm7,25.45h3.65a19.74,19.74,0,0,0,4.54-.5,9.6,9.6,0,0,0,3.63-1.65,8,8,0,0,0,2.42-3,10.82,10.82,0,0,0,.87-4.58,9,9,0,0,0-.87-4.08A8.13,8.13,0,0,0,242,117a10.65,10.65,0,0,0-3.5-1.69,15.8,15.8,0,0,0-4.22-.56h-4.15Z"/><rect class="cls-2" x="260.71" y="108.29" width="7.04" height="31.94"/><path class="cls-2" d="M306.49,138a25,25,0,0,1-6.49,2.35,33,33,0,0,1-6.9.72,19.45,19.45,0,0,1-6.9-1.17,16,16,0,0,1-5.46-3.36,15.3,15.3,0,0,1-3.59-5.3,19.37,19.37,0,0,1,0-13.9,15.4,15.4,0,0,1,3.59-5.3,15.82,15.82,0,0,1,5.46-3.36,19.67,19.67,0,0,1,6.9-1.17,25.78,25.78,0,0,1,7.06.92,14,14,0,0,1,5.67,3.18l-5,5.41a9.78,9.78,0,0,0-3.24-2.24,11.52,11.52,0,0,0-4.52-.78,10.31,10.31,0,0,0-4.08.78,8.91,8.91,0,0,0-3.13,2.14,9.39,9.39,0,0,0-2,3.26,12.47,12.47,0,0,0,0,8.24,9.4,9.4,0,0,0,2,3.24,9.06,9.06,0,0,0,3.13,2.15,10.48,10.48,0,0,0,4.08.77,13.48,13.48,0,0,0,4-.52,15.24,15.24,0,0,0,2.65-1.06v-5.19H294v-6.5h12.49Z"/><rect class="cls-2" x="316.02" y="108.29" width="7.04" height="31.94"/><polygon class="cls-2" points="339.07 114.52 329.96 114.52 329.96 108.29 355.22 108.29 355.22 114.52 346.1 114.52 346.1 140.23 339.07 140.23 339.07 114.52"/><path class="cls-2" d="M368.57,108.29h5.81l13.9,31.94h-7.94l-2.75-6.77h-12.4l-2.67,6.77h-7.76Zm2.7,9.29-3.88,9.93h7.81Z"/><polygon class="cls-2" points="395.19 108.29 402.22 108.29 402.22 133.74 415.26 133.74 415.26 140.23 395.19 140.23 395.19 108.29"/><path class="cls-1" d="M512.33,53.15a8.4,8.4,0,0,0-6.42-3.76c-2.91,0-4.17,1.67-4.17,4.18,0,6.67,24.61,6.67,24.61,25.85,0,10-8.34,18.76-19.6,18.76-8.76,0-16.68-4.59-19.6-12.92l9.92-6.72.5.3c2.08,5.59,5.84,7.25,9.18,7.25,4.16,0,7.09-2.5,7.09-6.67,0-10-24.61-9.59-24.61-25.85,0-9.59,7.43-16.26,16.68-16.26,7.09,0,11.67,2.92,16.27,9.17l-9.32,6.92Z"/><path class="cls-3" d="M355.32,80.54a17.75,17.75,0,1,1,0-25.77l8.78-9.28a30.52,30.52,0,1,0,0,44.34Z"/><polygon class="cls-2" points="179 131.86 157.42 94.46 34.49 118.46 7.41 165.35 179 131.86"/><polygon class="cls-1" points="68.67 59.25 41.76 105.85 151.61 84.42 130.15 47.25 68.67 59.25"/><polygon class="cls-1" points="124.35 37.2 102.87 0 75.94 46.65 124.35 37.2"/><polygon class="cls-1" points="0.25 177.75 0 178.18 205.75 178.18 184.81 141.91 0.25 177.75"/></svg>