<svg xmlns="http://www.w3.org/2000/svg" viewBox="0 0 31 31"><path fill="#197DC1" d="M31 29c0 1.1-.9 2-2 2H2.1c-1.1 0-2-.9-2-2V2.1c0-1.1.9-2 2-2H29c1.1 0 2 .9 2 2V29z"/><path fill="none" d="M0 0h31v31H0z"/><path fill="#FFF" d="M26.2 11.9c0-.2-.1-.3-.2-.5l-7.3-7.3s-.2-.1-.4-.1H5.4c-.4 0-.7.3-.7.7v12.7c0 .4.3.7.7.7s.7-.3.7-.7v-12h11.4V12c0 .4.3.7.7.7h6.5v4.7c0 .4.3.7.7.7s.7-.3.7-.7l.1-5.5c.1 0 0 0 0 0zm-7.2-.7V6.5l2.4 2.4 2.4 2.4-4.8-.1z"/><path fill="#FFF" d="M9.1 9.3h5.3c.4 0 .8-.3.8-.8s-.3-.8-.8-.8H9.1c-.4 0-.8.3-.8.8s.4.8.8.8zM9.1 12.3h5.3c.4 0 .8-.3.8-.8 0-.4-.3-.8-.8-.8H9.1c-.4 0-.8.3-.8.8.1.5.4.8.8.8zM9.1 15.4h12.5c.4 0 .8-.3.8-.8 0-.4-.3-.8-.8-.8H9.1c-.4 0-.8.3-.8.8.1.5.4.8.8.8z"/><g fill="#FFF"><path d="M9.5 24.6H4v1.5c0 .5.4.9.9.9h4.6c.5 0 .9-.4.9-.9v-1.5h-.9zM25.5 24.6H20v1.5c0 .5.4.9.9.9h4.6c.5 0 .9-.4.9-.9v-1.5h-.9zM26.4 23.3c-.3-2.4-4-5-11.2-4.9C8 18.3 4.3 20.8 4 23.3v.2h6.4v-.2c0-1.2 3.6-1.2 4.8-1.2 1.1 0 4.8 0 4.8 1.2v.2h6.4v-.2z"/></g></svg>