<svg xmlns="http://www.w3.org/2000/svg" xmlns:xlink="http://www.w3.org/1999/xlink" viewBox="0 0 31 31"><path fill="#197DC1" d="M31 29c0 1.1-.9 2-2 2H2.1c-1.1 0-2-.9-2-2V2.1c0-1.1.9-2 2-2H29c1.1 0 2 .9 2 2V29z"/><path fill="none" d="M0 0h31v31H0z"/><g><defs><path id="a" d="M8.5 5h14.1v20.9H8.5z"/></defs><clipPath id="b"><use xlink:href="#a" overflow="visible"/></clipPath><path clip-path="url(#b)" fill="#FFF" d="M15.5 5c-3.9 0-7.1 3.2-7.1 7.1C8.5 16 15.5 26 15.5 26s7.1-10 7.1-13.9c0-3.9-3.2-7.1-7.1-7.1m0 10.3c-1.8 0-3.2-1.5-3.2-3.2 0-1.8 1.5-3.2 3.2-3.2 1.8 0 3.2 1.5 3.2 3.2.1 1.8-1.4 3.2-3.2 3.2"/></g></svg>