<svg xmlns="http://www.w3.org/2000/svg" viewBox="0 0 31 31"><path fill="#197DC1" d="M31 29c0 1.1-.9 2-2 2H2c-1.1 0-2-.9-2-2V2C0 .9.9 0 2 0h27c1.1 0 2 .9 2 2v27z"/><path fill="none" d="M0 0h31v31H0z"/><g fill="#FFF"><path d="M12.2 4.9S7.6 5 7.6 9.1c.1 4.2.9 7.9 2.3 9.9s4.9 7.4 8.9 6.9c0 0 2-.4 3.5-1.4l-4.8-3.8s-1.4.9-2.3-.3c-.9-1.2-3.7-6.8-3.7-6.8s-.8-1.8 1-2.6l-.3-6.1z"/><path d="M12.8 4.9s.4-.1 1 .2c.7.4.7.7.7.7l.1 4.2s-.2.2-.4.5c-.2.2-1 .6-1.1.4-.3-.3-.3-6-.3-6M17.9 20.3l1.3-.7s.3-.1.8.2c.5.3 3 2.3 3 2.3s.4.4.3.8c-.1.4-.4 1.3-.4 1.3l-5-3.9z"/></g></svg>