<svg xmlns="http://www.w3.org/2000/svg" viewBox="0 0 38 38"><path fill="#007ac2" d="M19 0C8.5 0 0 8.5 0 19s8.5 19 19 19 19-8.5 19-19S29.5 0 19 0zm10.2 12.5l-.1.1c-3.1 2.6-6.3 5.3-9.4 7.9-.4.3-.8.3-1.2 0-3.1-2.6-6.3-5.3-9.4-7.9l-.1-.1h20.2zm-21.1.7l7.2 6c-2.4 1.9-4.8 3.7-7.2 5.6V13.2zM9 25.5c2.4-1.9 4.7-3.8 7.1-5.6.4.3.8.7 1.2 1 .2.2.4.3.6.5.7.6 1.6.6 2.3 0 .3-.2.6-.5.9-.8.3-.2.6-.5.9-.8 2.4 1.9 4.7 3.7 7.2 5.6-6.8.1-13.5.1-20.2.1zm20.9-.7c-2.4-1.9-4.8-3.7-7.2-5.6 2.4-2 4.7-4 7.1-6 .1 3.9.1 7.7.1 11.6z"/></svg>