<?xml version="1.0" standalone="no"?>
<!DOCTYPE svg PUBLIC "-//W3C//DTD SVG 1.1//EN" "http://www.w3.org/Graphics/SVG/1.1/DTD/svg11.dtd" >
<svg xmlns="http://www.w3.org/2000/svg">
<metadata></metadata>
<defs>
<font id="pf_agora_sans_proitalic" horiz-adv-x="1818" >
<font-face units-per-em="1000" ascent="750" descent="-250" />
<missing-glyph horiz-adv-x="263" />
<glyph unicode="fj" horiz-adv-x="527" d="M444 89q-7 -59 -19.5 -109t-36 -89.5t-60.5 -67.5t-92 -41l-14 49q42 18 67.5 44t40.5 58t22 69t11 77l37 350h-208l-37 -316q-8 -62 -17.5 -121t-30 -105.5t-56.5 -74.5t-96 -28q-20 0 -43.5 3t-48.5 11l15 53q23 -5 38 -6t29 -1q49 0 77 39t41 130q11 93 19.5 159 t14 110.5t9 71.5t5 42t2.5 21.5t1 11.5h-82l5 41l83 18l12 81q12 86 65 122.5t134 36.5q33 0 67 -4t68 -14l-14 -58q-32 6 -60.5 9.5t-55.5 3.5q-60 0 -89.5 -25.5t-37.5 -88.5l-9 -68h125q23 0 64.5 4.5t84.5 12.5l14 -8z" />
<glyph unicode="ffj" horiz-adv-x="808" d="M768 492q-11 -92 -21 -183t-21 -184q-7 -58 -19.5 -108t-36 -89.5t-60.5 -67.5t-92 -41l-14 49q42 18 67.5 44t40.5 57.5t22 68.5t11 77l35 313h-202l-35 -298q-8 -62 -17 -121t-29 -105.5t-55.5 -75t-95.5 -28.5q-22 0 -43.5 2.5t-45.5 10.5l16 54q20 -4 34.5 -5 t27.5 -1q30 0 50.5 13t34 36t21 55.5t12.5 71.5l47 391h-202q-9 -78 -18.5 -158.5t-19.5 -158.5q-7 -62 -16.5 -120.5t-30 -105t-56 -74.5t-95.5 -28q-24 0 -47 3.5t-46 10.5l15 53q23 -5 38.5 -6t29.5 -1q28 0 48.5 15.5t34.5 40t22 56.5t13 65q5 40 11 85t11.5 89t10 85 t8.5 73l6.5 52t2.5 24h-82l5 41l83 19l3 27q7 45 21 81.5t40 63t65 41t95 14.5q31 0 64.5 -4.5t58.5 -12.5q30 23 64.5 34.5t85.5 11.5q34 0 67.5 -4.5t64.5 -12.5l-14 -59q-30 6 -59 10t-56 4q-61 0 -92.5 -25.5t-39.5 -89.5l-9 -84h120q23 0 65 4t84 12zM351 651 q-27 0 -50.5 -4t-42.5 -17.5t-31.5 -40.5t-17.5 -72l-4 -34h202q3 26 6 51.5t7 51.5q5 32 15 56q-22 4 -48 6.5t-36 2.5z" />
<glyph unicode="&#xfb00;" horiz-adv-x="622" d="M481 428q-9 -79 -17.5 -156t-18.5 -153q-8 -60 -18 -117.5t-30.5 -103t-56 -73t-94.5 -27.5q-18 0 -40.5 3t-45.5 10l15 54q20 -5 34 -6t27 -1q49 0 78.5 39t41.5 134l49 397h-209q-9 -78 -18.5 -158.5t-19.5 -158.5q-8 -62 -17.5 -120.5t-29.5 -105t-55.5 -74.5 t-95.5 -28q-48 0 -93 13l16 54q23 -5 38 -6t29 -1q25 0 44 9.5t33 30t24.5 54t18.5 81.5q11 93 19 158.5t13.5 110t9 70.5t5 40.5t2.5 20.5t1 10h-83l4 41q23 5 44 9.5t43 9.5q7 60 21 103t39.5 70.5t63.5 40.5t93 13q28 0 62.5 -4t69.5 -15q21 20 49.5 32.5t69.5 12.5 q46 0 96 -14l-15 -58q-19 5 -38 6.5t-33 1.5q-27 0 -45.5 -8.5t-32 -30t-23 -59.5t-17.5 -96h135q-1 -14 -2.5 -27.5t-3.5 -27.5h-136zM410 483q6 41 11 82.5t20 72.5q-23 6 -49 9.5t-41 3.5q-44 0 -70 -9.5t-41 -29.5t-22.5 -52t-13.5 -77h206z" />
<glyph unicode="&#xfb01;" horiz-adv-x="538" d="M349 0l51 428h-208q-10 -78 -19.5 -157.5t-18.5 -157.5q-8 -62 -17.5 -121t-29.5 -105.5t-55.5 -74.5t-95.5 -28q-24 1 -47 4t-46 10l15 54q23 -5 38.5 -6t29.5 -1q26 0 44.5 9t32 29.5t23.5 54t18 82.5l50 408h-82l5 41l83 19l8 58q8 57 26.5 92t45.5 55t60 27t70 7 q35 0 69.5 -4.5t66.5 -12.5l-14 -58q-32 6 -60.5 9t-55.5 3q-41 0 -65.5 -10.5t-38.5 -32t-20.5 -56t-12.5 -82.5h126q23 0 64 4t83 12l14 -7q-4 -28 -9.5 -75t-12.5 -110t-16 -140.5t-20 -166.5h-79z" />
<glyph unicode="&#xfb02;" horiz-adv-x="542" d="M433 65l65 2l6 -55q-22 -12 -49.5 -18t-44.5 -6q-30 0 -42.5 13.5t-12.5 41.5q0 6 0.5 12.5t1.5 14.5q17 143 29.5 247.5t20.5 175t12.5 109t5.5 50.5q-23 5 -46 7t-44 2q-27 0 -49 -4.5t-38 -17.5t-26.5 -35t-15.5 -58l-9 -63h142l-7 -55h-140q-10 -78 -19.5 -157.5 t-18.5 -157.5q-8 -62 -17.5 -121t-29.5 -105.5t-55.5 -74.5t-95.5 -28q-24 1 -47 4t-46 10l15 54q23 -5 38.5 -6t29.5 -1q25 0 43.5 9t32.5 30t24 54.5t18 82.5l50 407h-81q1 11 2 20.5t3 20.5l82 19l11 78q7 49 27 80t50 49t67.5 24.5t79.5 6.5q20 0 40.5 -2.5t41.5 -4.5 l57 12l18 -10z" />
<glyph unicode="&#xfb03;" horiz-adv-x="805" d="M618 1l51 427h-191q-8 -77 -17 -151.5t-18 -149.5q-8 -62 -17.5 -121.5t-30 -106t-56.5 -75t-96 -28.5q-18 0 -40.5 3t-45.5 10l15 54q20 -4 34.5 -5t27.5 -1q32 0 53 15t34 39.5t19.5 55.5t11.5 62q3 23 8 60.5t10 80.5t10 87.5t9.5 81t7 61t3.5 28.5h-202 q-9 -78 -18.5 -158.5t-19.5 -158.5q-7 -62 -16.5 -120.5t-30 -105t-56 -74.5t-95.5 -28q-24 0 -47 3.5t-46 10.5l15 53q23 -5 38.5 -6.5t29.5 -1.5q28 0 47.5 10t33 31t22.5 54.5t15 80.5q3 23 8 61.5t10.5 83t11 90t10 83.5t7.5 63t3 29h-82l5 41l83 19l4 37 q14 103 73.5 147t157.5 44q29 0 59 -6t53 -12q30 23 70 34.5t80 11.5q34 0 67.5 -4.5t64.5 -12.5l-14 -58q-28 5 -56 8.5t-54 3.5q-30 0 -53.5 -5t-41 -18t-28.5 -35.5t-15 -56.5l-8 -83h108q23 0 64 4t83 12l14 -7q-4 -28 -9.5 -74.5t-12.5 -109.5t-16 -140.5t-20 -166.5 h-78zM420 586q5 32 15 56q-22 4 -48 6.5t-36 2.5q-27 0 -50.5 -4t-42.5 -17.5t-31.5 -40.5t-17.5 -72l-4 -34h202q3 26 6 51.5t7 51.5z" />
<glyph unicode="&#xfb04;" horiz-adv-x="832" d="M620 747q29 0 57.5 -2.5t49.5 -4.5l57 12l18 -10l-81 -673l65 2l6 -55q-22 -12 -49.5 -18t-44.5 -6q-30 0 -42.5 13.5t-12.5 41.5q0 6 0.5 12.5t1.5 14.5q17 143 30 250t21.5 180.5t13 115t5.5 53.5q-23 5 -46 7t-44 2q-41 0 -66 -10t-39.5 -30.5t-21.5 -50t-11 -68.5 l-4 -40h142l-7 -55h-140q-4 -38 -9 -80.5t-10.5 -86t-10.5 -85.5t-10 -79q-8 -59 -16.5 -113.5t-28 -96.5t-54.5 -67.5t-95 -25.5q-18 0 -40 3t-45 10l15 54q20 -4 34 -5t27 -1q33 0 54 14t33.5 38.5t19.5 57.5t12 71q2 13 6 46t9 75.5t10.5 89t10 85.5t7.5 66t3 30h-202 q-9 -78 -18.5 -158.5t-19.5 -158.5q-9 -74 -18.5 -134.5t-29.5 -103.5t-55 -66.5t-95 -23.5q-24 0 -47 3.5t-46 10.5l15 53q23 -5 38.5 -6t29.5 -1q27 0 46 8t32.5 28t22.5 54t17 85q2 12 6 46t9.5 78.5t11.5 93t11 90t8.5 70t3.5 32.5h-82l5 41l83 19l3 27q11 100 67.5 153 t164.5 48q29 -1 57 -5.5t55 -12.5q28 26 65.5 37.5t81.5 11.5zM345 652q-25 0 -47.5 -6t-40.5 -21t-30.5 -41.5t-17.5 -66.5l-4 -34h202q3 39 10 83t18 76q-26 5 -47 7.5t-43 2.5z" />
<glyph unicode="ft" horiz-adv-x="643" d="M478 428q-10 -73 -19 -146l-18 -146q-1 -5 -1 -9v-9q0 -27 11 -43t45 -16q14 0 39.5 3.5t54.5 11.5l12 -53q-15 -6 -32.5 -11t-35 -8.5t-33.5 -5t-28 -1.5q-52 0 -83.5 21.5t-31.5 72.5q0 4 0.5 8t0.5 8q11 83 20 162.5t19 160.5h-206l-38 -328q-9 -72 -18.5 -130 t-29.5 -99t-55 -63t-95 -22q-14 0 -40 2.5t-52 10.5l15 55q23 -5 38.5 -6t29.5 -1q27 0 46 8.5t32.5 28.5t22.5 53.5t17 84.5q2 15 6.5 50t10 79t11 91.5t10.5 87.5t8 67t3 31h-81q1 11 2 20.5t3 20.5l82 19l4 29q6 47 19 86.5t34.5 68.5t54.5 45t80 16q18 0 40.5 -3 t45.5 -10l-14 -59q-18 5 -36 6.5t-32 1.5q-22 0 -40.5 -6.5t-32.5 -23t-24 -46t-15 -74.5l-4 -36h205l43 120l51 8l-16 -128h144l-6 -55h-143z" />
<glyph horiz-adv-x="0" />
<glyph horiz-adv-x="333" />
<glyph unicode=" "  horiz-adv-x="263" />
<glyph unicode="&#x09;" horiz-adv-x="263" />
<glyph unicode="&#xa0;" horiz-adv-x="263" />
<glyph unicode="!" horiz-adv-x="218" d="M82 -10q-20 0 -33 13t-13 33q0 23 16.5 40.5t42.5 17.5q20 0 32.5 -13t12.5 -32q0 -24 -17.5 -41.5t-40.5 -17.5zM79 171l18 219l32 306h78l-40 -306l-35 -219h-53z" />
<glyph unicode="&#x22;" horiz-adv-x="264" d="M204 482l11 203h71l-37 -203h-45zM106 482l11 203h72l-40 -203h-43z" />
<glyph unicode="#" horiz-adv-x="517" d="M431 410l-57 -168h73l-15 -47h-74l-64 -195h-50l63 195h-142l-64 -195h-50l64 195h-72l14 47h74l57 168h-78l14 46h79l59 172h50l-58 -172h142l59 172h50l-59 -172h68l-14 -46h-69zM182 242h142l56 168h-142z" />
<glyph unicode="$" horiz-adv-x="541" d="M347 731h37l-8 -65q30 -2 62 -12t55 -24l-26 -55q-35 17 -56.5 23t-41.5 8l-30 -241q28 -12 54.5 -24.5t46.5 -31t32 -45t12 -64.5q0 -44 -15.5 -77.5t-41.5 -56.5t-60 -37.5t-72 -20.5l-10 -83h-37zM215 -75h-36l10 83q-38 4 -74 16t-68 33l31 53q42 -24 70 -31t49 -10 l32 260q-26 10 -49 23.5t-40 32t-26.5 42.5t-9.5 56q0 37 13.5 67.5t36 53.5t52.5 38t64 22l8 67h36zM303 71q50 8 82 40.5t32 84.5q0 40 -24 62.5t-62 37.5zM262 601q-17 -5 -33.5 -14.5t-29 -24t-20 -32.5t-7.5 -40q0 -40 18 -59.5t47 -32.5z" />
<glyph unicode="%" horiz-adv-x="800" d="M241 670q41 0 67.5 -13.5t41.5 -35t21 -49.5t6 -57q0 -39 -8 -83.5t-28 -82t-55.5 -62.5t-89.5 -25q-41 0 -68 12t-43 33t-22.5 48t-6.5 57q0 19 2.5 45.5t10 55t20 56.5t33 50.5t50 36.5t69.5 14zM240 617q-28 0 -47.5 -12.5t-33 -32.5t-21 -44.5t-11.5 -48t-5 -43 t-1 -29.5q0 -42 17 -67.5t64 -25.5q33 0 54 19t33.5 48t17.5 63t5 64q0 20 -3 39.5t-10.5 35t-22 25t-36.5 9.5zM291 -22h-55l380 723h53zM688 404q41 0 67.5 -13.5t41.5 -35t21 -49.5t6 -56q0 -40 -8 -85t-28 -82.5t-55.5 -62t-89.5 -24.5q-41 0 -68 12t-43 32.5 t-22.5 47.5t-6.5 57q0 19 2.5 45.5t10 55.5t20 57t33 50.5t50 36.5t69.5 14zM687 351q-42 0 -66 -27t-35.5 -62.5t-14.5 -70.5t-3 -51q0 -40 17 -65.5t64 -25.5q33 0 54 19t33.5 47.5t17.5 62.5t5 64q0 19 -3 38.5t-10.5 35.5t-22 25.5t-36.5 9.5z" />
<glyph unicode="&#x26;" horiz-adv-x="848" d="M413 302q26 6 49.5 8.5t48.5 2.5q29 0 62 -4.5t68 -12.5q7 23 9.5 47t2.5 47q0 49 -13 92t-41.5 75t-73.5 50.5t-109 18.5q-71 0 -126 -26t-95 -68.5t-65.5 -98.5t-36.5 -116q-14 1 -28.5 2.5t-28.5 3.5q9 64 36.5 128.5t75 116t116 83.5t159.5 32q80 0 136 -24 t91.5 -63.5t52 -91.5t16.5 -108q0 -55 -14 -108q7 -1 13.5 -1.5t11.5 -0.5q46 0 70.5 15t44.5 44l35 -28q-24 -42 -60 -63t-96 -21q-17 0 -36 3q-20 -50 -53 -94.5t-76 -78.5t-95 -54t-111 -20q-57 0 -96 16.5t-63.5 43.5t-35.5 62.5t-11 74.5q0 73 19.5 127.5t49.5 91.5 t66.5 55.5t71.5 18.5q25 0 44 -8.5t31.5 -21.5t19 -29t6.5 -32q0 -19 -8 -40.5t-34 -43.5v-2zM351 235q-11 3 -16 18.5t-10 26.5q30 22 47.5 44.5t17.5 43.5q0 23 -13 34.5t-32 11.5q-20 0 -43 -12t-42.5 -38.5t-32 -68t-12.5 -100.5q0 -76 38.5 -113.5t109.5 -37.5 q38 0 76.5 15t73.5 41.5t63.5 63.5t46.5 82q-34 8 -67 12t-62 4q-35 0 -69.5 -6.5t-73.5 -20.5z" />
<glyph unicode="'" horiz-adv-x="187" d="M106 482l11 203h72l-39 -203h-44z" />
<glyph unicode="(" horiz-adv-x="276" d="M132 156q0 -61 7 -110t16.5 -86t20 -63.5t17.5 -42.5l-38 -25q-12 18 -28 49.5t-30.5 76t-24.5 101t-10 125.5q0 106 23 193t55 154t66.5 113t57.5 72l30 -23q-15 -20 -42.5 -65.5t-54 -113.5t-46 -157.5t-19.5 -197.5z" />
<glyph unicode=")" horiz-adv-x="278" d="M154 393q0 59 -7 107.5t-17 86t-21 63.5t-18 41l36 22q13 -20 30 -51.5t32 -75t25 -98t10 -118.5q0 -110 -24.5 -200t-58 -158.5t-68 -114.5t-54.5 -68l-31 26q14 20 42 64t55.5 112t48 158.5t20.5 203.5z" />
<glyph unicode="*" horiz-adv-x="378" d="M362 627q11 -18 13.5 -36t0.5 -46l-117 -7l71 -79q-29 -33 -69 -49l-35 106l-60 -105q-19 8 -33 18.5t-26 29.5q23 20 45.5 40t45.5 40l-108 15q5 24 13 43t22 37l91 -57l-8 113q20 5 41 5t41 -5q-9 -28 -18 -56.5t-19 -56.5z" />
<glyph unicode="+" horiz-adv-x="542" d="M312 270l-21 -168h-58l20 168h-159l7 58h159l20 162h59l-20 -162h157l-7 -58h-157z" />
<glyph unicode="," horiz-adv-x="204" d="M85 98q23 0 36 -15.5t13 -40.5q0 -21 -9.5 -43.5t-25.5 -43t-37 -38t-43 -27.5l-16 26q20 18 34 36t20 44q-30 8 -30 42q0 23 16 41.5t42 18.5z" />
<glyph unicode="-" horiz-adv-x="355" d="M54 230l9 68h251l-9 -68h-251z" />
<glyph unicode="." horiz-adv-x="202" d="M83 97q21 0 33.5 -14t12.5 -34q0 -25 -18 -42t-40 -17q-20 0 -32.5 13.5t-12.5 33.5q0 25 17 42.5t40 17.5z" />
<glyph unicode="/" horiz-adv-x="323" d="M37 -28h-52l338 729h52z" />
<glyph unicode="0" horiz-adv-x="542" d="M319 674q65 0 105 -24.5t62.5 -64t30.5 -88.5t8 -98q0 -65 -12.5 -136.5t-43.5 -131.5t-83 -99t-130 -39q-61 0 -101.5 20t-64.5 53.5t-34.5 78t-11.5 92.5q0 31 3.5 76t14 93.5t29 96.5t49 86t74.5 61.5t105 23.5zM317 609q-47 0 -79.5 -23t-54.5 -59t-34 -80t-18 -86 t-7.5 -77t-1.5 -53q1 -38 8.5 -70t23.5 -55t42.5 -36t66.5 -13q36 0 64 15.5t48 42t34 61t22 73t11.5 77.5t3.5 75t-5 73t-19 67t-39 49t-66 19z" />
<glyph unicode="1" horiz-adv-x="542" d="M285 582l-157 -24l-4 48l176 58h72l-80 -664h-79z" />
<glyph unicode="2" horiz-adv-x="542" d="M292 675q41 0 75.5 -9.5t59 -29t38.5 -49t14 -68.5q0 -44 -18 -87.5t-47 -85.5t-66.5 -82t-77 -76t-77.5 -68.5t-68 -59.5l324 1l-7 -61h-427l6 55q31 28 71 62t82 71.5t82.5 78t72 81t50.5 80t19 76.5q0 52 -33 77t-87 25q-24 0 -67 -9t-105 -44l-26 50q64 44 120 58 t92 14z" />
<glyph unicode="3" horiz-adv-x="542" d="M327 373q60 -10 100 -52.5t40 -107.5q0 -44 -18.5 -84.5t-52.5 -71.5t-82.5 -49t-108.5 -18q-59 0 -110 10t-86 30q7 14 12.5 27t11.5 27q60 -21 97.5 -26t67.5 -5q37 0 71.5 10.5t61 30.5t42 48t15.5 64q0 60 -42.5 93.5t-108.5 33.5q-12 0 -25 -1t-27 -3q-3 14 -5.5 27 t-4.5 27q54 9 94 25t67 35.5t40 41.5t13 43q0 17 -6 33t-19.5 28t-35 19t-52.5 7q-34 0 -73.5 -9.5t-93.5 -33.5q-6 13 -11 25.5t-11 25.5q51 29 104 43t99 14q48 0 81.5 -11t54.5 -29t31 -42t10 -51q0 -23 -7.5 -47t-24.5 -47t-43.5 -42.5t-64.5 -32.5v-5z" />
<glyph unicode="4" horiz-adv-x="542" d="M414 188l-21 -188h-78l24 188h-310q2 14 3.5 28.5t3.5 28.5l355 419h82l-52 -416h95l-7 -60h-95zM382 571l-51 -62q-56 -66 -110 -130.5t-110 -130.5h235q10 81 20.5 161.5t20.5 161.5h-5z" />
<glyph unicode="5" horiz-adv-x="542" d="M262 354q-28 0 -57 -7t-58 -20l-43 32l44 305h351l-9 -63l-281 1l-29 -205q13 4 41 12t71 8q37 0 71 -10t60 -32t41.5 -56t15.5 -82q0 -63 -23 -109.5t-59.5 -77t-83 -45t-94.5 -14.5q-54 0 -103 9t-91 31l25 59q57 -21 92.5 -26t64.5 -5q41 0 76.5 10t61.5 31.5t41 54 t15 77.5q0 31 -11 54t-30 38t-44.5 22.5t-54.5 7.5z" />
<glyph unicode="6" horiz-adv-x="542" d="M153 366q35 20 78 34.5t91 14.5q35 0 66.5 -10t55 -31t37 -54t13.5 -80q0 -57 -19 -103t-52 -78t-78 -49t-97 -17q-56 0 -92.5 17t-58.5 48t-31 73t-9 92q0 94 19.5 176t58 143t94.5 96.5t129 35.5q52 0 87.5 -11t51.5 -20l-21 -57q-33 14 -65 19t-55 5q-54 0 -91 -27 t-61.5 -65.5t-37.5 -79.5t-18 -69zM300 352q-36 0 -65 -7.5t-49.5 -17t-32.5 -17.5t-13 -9q-2 -19 -4.5 -40t-2.5 -44q0 -29 5 -57.5t19 -51.5t38 -37.5t62 -14.5q39 0 68.5 13.5t50 37.5t30.5 56.5t10 70.5q0 53 -25 85.5t-91 32.5z" />
<glyph unicode="7" horiz-adv-x="542" d="M113 601l8 63h390l6 -59l-339 -605h-79l339 602z" />
<glyph unicode="8" horiz-adv-x="542" d="M325 611q-40 0 -65.5 -13.5t-40.5 -32t-20.5 -37.5t-5.5 -31q0 -22 10.5 -38t29 -29.5t43 -25.5t52.5 -26q60 39 83.5 73.5t23.5 64.5q0 16 -5 33t-18 31t-34 22.5t-53 8.5zM250 53q40 0 70 11t50.5 29.5t30.5 42.5t10 50q0 27 -10 48t-31 39t-53.5 34t-77.5 34 q-34 -20 -57 -44t-36.5 -48t-19 -47.5t-5.5 -42.5q0 -44 32 -75t97 -31zM335 676q36 0 68 -9.5t56 -28.5t38 -48.5t14 -68.5q0 -42 -28.5 -86t-89.5 -86q41 -23 67.5 -62t26.5 -96q0 -36 -15 -71.5t-45.5 -64t-75.5 -46t-105 -17.5q-51 0 -89 12.5t-64 34.5t-39 52t-13 64 q0 27 8.5 57t26.5 59t45.5 55t64.5 44q-36 23 -54.5 52t-18.5 67q0 39 16.5 73.5t46 59.5t70.5 39.5t89 14.5z" />
<glyph unicode="9" horiz-adv-x="542" d="M412 301q-14 -8 -33.5 -17t-42.5 -16.5t-47.5 -12t-46.5 -4.5q-35 0 -66.5 9.5t-54.5 30.5t-36.5 54t-13.5 80q0 57 18.5 103t51.5 78.5t77.5 50t97.5 17.5q55 0 92 -17.5t59 -48t31 -73t9 -92.5q0 -94 -19.5 -176t-58 -142.5t-95 -95.5t-129.5 -35q-51 0 -91 10.5 t-55 19.5l20 57q34 -14 70 -19t59 -5q54 0 91.5 27t62 65.5t37 79.5t16.5 69zM264 314q36 0 65 7.5t49.5 17t32 17.5t13.5 9q2 19 4 38.5t2 40.5q0 29 -4.5 58t-18 52.5t-37.5 38t-64 14.5q-39 0 -68.5 -13.5t-49.5 -37t-30.5 -56t-10.5 -71.5q0 -52 26 -83.5t91 -31.5z" />
<glyph unicode=":" horiz-adv-x="199" d="M88 99q20 0 32.5 -13t12.5 -33q0 -25 -16.5 -43t-40.5 -18q-21 0 -33.5 14t-12.5 34q0 25 17.5 42t40.5 17zM127 413q20 0 32.5 -13t12.5 -33q0 -25 -17.5 -43t-40.5 -18q-20 0 -33 14.5t-13 34.5q0 25 18.5 41.5t40.5 16.5z" />
<glyph unicode=";" horiz-adv-x="199" d="M86 98q23 0 36 -15.5t13 -40.5q0 -21 -9.5 -43.5t-25.5 -43t-37 -38t-43 -27.5l-17 26q21 18 35 36t20 44q-30 8 -30 42q0 23 16 41.5t42 18.5zM127 413q20 0 32.5 -13t12.5 -33q0 -25 -17.5 -43t-40.5 -18q-20 0 -33 14.5t-13 34.5q0 25 18.5 41.5t40.5 16.5z" />
<glyph unicode="&#x3c;" horiz-adv-x="542" d="M450 71l-362 201l6 51l411 200l-9 -71l-331 -156q4 -2 26 -14t53.5 -29t67 -36.5t67 -36.5t53.5 -29t26 -14z" />
<glyph unicode="=" horiz-adv-x="542" d="M92 345l7 58h391l-7 -58h-391zM74 200l7 57h391l-7 -57h-391z" />
<glyph unicode="&#x3e;" horiz-adv-x="542" d="M72 141l333 158q-4 2 -26 14t-53.5 28.5t-68 36t-68 36t-53.5 28t-26 13.5l9 68l362 -200l-7 -51l-410 -201z" />
<glyph unicode="?" horiz-adv-x="428" d="M277 704q88 0 129 -33.5t41 -93.5q0 -26 -9 -48.5t-24 -43t-35 -38.5t-41 -36q-26 -21 -51 -42t-45.5 -43.5t-33 -48.5t-12.5 -57q0 -11 0.5 -21.5t0.5 -24.5l-65 -9q-3 31 -3 56q0 37 9 65t27 53t45.5 50t65.5 55q36 28 63.5 54.5t29.5 61.5q0 42 -28.5 59.5t-76.5 17.5 q-29 0 -66 -5t-90 -22l-13 62q49 17 97.5 24.5t84.5 7.5zM170 92q20 0 33 -13t13 -32q0 -24 -18.5 -40.5t-39.5 -16.5q-19 0 -31.5 12.5t-12.5 31.5q0 23 16.5 40.5t39.5 17.5z" />
<glyph unicode="@" horiz-adv-x="924" d="M641 145q-30 0 -50.5 9t-32.5 25t-17.5 38t-6.5 48q-17 -38 -36.5 -61t-39 -35.5t-38.5 -17t-34 -4.5q-49 0 -79.5 35t-30.5 108q0 56 13 106.5t39 88t65 59.5t90 22q23 0 46.5 -5.5t48.5 -13.5l8 22l57 -6q-8 -37 -16.5 -81t-15.5 -85t-11.5 -74t-4.5 -48 q0 -34 13.5 -53.5t47.5 -19.5q19 0 44.5 11.5t48.5 37t38.5 66.5t15.5 100q0 60 -18.5 106.5t-54 79t-86 49.5t-113.5 17q-82 0 -153 -29t-123.5 -79.5t-82.5 -118.5t-30 -146q0 -64 19.5 -117t56.5 -91.5t89 -60t117 -21.5q23 1 55.5 4t70.5 17l16 -48q-32 -15 -73.5 -21.5 t-76.5 -6.5q-79 0 -141.5 25.5t-105.5 71.5t-65.5 108.5t-22.5 136.5q0 92 35.5 171t97 137.5t143.5 91.5t174 33q77 0 139 -21.5t105.5 -61t66.5 -95.5t23 -125t-20 -121t-52 -87t-72 -52.5t-80 -17.5zM405 204q15 0 32.5 10t35.5 32t36.5 57.5t35.5 86.5q4 26 9 51.5 t10 51.5q-23 10 -45.5 13.5t-36.5 3.5q-40 0 -66 -21.5t-41.5 -53.5t-21.5 -69t-6 -68q0 -48 16 -71t42 -23z" />
<glyph unicode="A" horiz-adv-x="562" d="M441 0q-9 45 -16 89.5t-16 89.5h-262q-19 -45 -37 -89.5t-38 -89.5h-87q81 186 157.5 357t145.5 328h105q32 -173 65 -343t68 -342h-85zM398 244l-12 76t-14 77q-6 38 -12.5 75.5t-13.5 75.5l-12 67h-2q-1 -2 -2.5 -5.5t-4.5 -11l-8 -20t-13 -31.5q-9 -21 -20.5 -49.5 t-27.5 -65.5q-17 -38 -36 -84.5t-44 -103.5h222z" />
<glyph unicode="B" horiz-adv-x="591" d="M136 684h238q91 0 133 -43.5t42 -113.5q0 -51 -24.5 -95t-86.5 -74q28 -10 45.5 -27.5t27.5 -38t13.5 -42.5t3.5 -42q0 -45 -18 -83t-47.5 -66t-67.5 -43.5t-78 -15.5h-264zM173 323l-32 -258h156q39 0 67.5 12.5t46.5 33t27 47.5t9 56q0 22 -7 42t-22 35t-37 23.5 t-52 8.5h-156zM210 619l-29 -232h139q69 0 107.5 36.5t38.5 97.5q0 44 -27 71t-90 27h-139z" />
<glyph unicode="C" horiz-adv-x="575" d="M409 696q54 0 95 -8.5t70 -19.5l-22 -63q-38 14 -75 18.5t-68 4.5q-62 0 -109 -25.5t-79 -73t-48.5 -114.5t-16.5 -150q0 -45 8.5 -82.5t29.5 -65t56.5 -42.5t90.5 -15q13 0 32.5 1.5t41 4.5t44.5 7.5t43 10.5l13 -60q-18 -7 -42.5 -13t-51.5 -10t-53.5 -6.5t-49.5 -2.5 q-69 0 -116.5 19.5t-76.5 55t-41.5 86t-12.5 113.5q0 36 5.5 81.5t20 93t38.5 93.5t61.5 82t90 58t122.5 22z" />
<glyph unicode="D" horiz-adv-x="625" d="M53 0l84 685h216q69 0 114 -20.5t72 -55.5t37.5 -83.5t10.5 -103.5q0 -84 -17 -160.5t-55 -134.5t-101 -92.5t-154 -34.5h-207zM213 620l-68 -554h113q16 0 40 3t51 14t54 33t49 60t35.5 95t13.5 138q0 75 -18 117.5t-44 63t-55.5 25.5t-52.5 5h-118z" />
<glyph unicode="E" horiz-adv-x="534" d="M53 0l83 684h397l-7 -64h-315l-28 -227h272l-8 -62h-272l-33 -266h338l-7 -65h-420z" />
<glyph unicode="F" horiz-adv-x="518" d="M53 0l83 684h397l-7 -65h-315l-29 -231h264l-8 -64h-264l-39 -324h-82z" />
<glyph unicode="G" horiz-adv-x="610" d="M424 696q54 0 95 -8.5t70 -19.5l-23 -63q-40 14 -76 18.5t-67 4.5q-67 0 -117 -25.5t-83 -73t-49.5 -114.5t-16.5 -149q0 -45 8 -82.5t27.5 -64.5t53 -42t85.5 -15q13 0 29 1t32.5 3t31.5 4.5t27 6.5l34 275h76l-41 -328q-51 -17 -103 -24.5t-101 -7.5q-68 0 -115 19.5 t-76 55t-42 85.5t-13 112q0 37 5.5 84t20 95t40 93.5t65 81t94.5 57t129 21.5z" />
<glyph unicode="H" horiz-adv-x="633" d="M446 0l40 327h-310q-11 -82 -20 -163.5t-19 -163.5h-84l83 684h84q-8 -73 -17.5 -144t-18.5 -144h310l35 288h85l-83 -684h-85z" />
<glyph unicode="I" horiz-adv-x="256" d="M62 0l84 685h82l-84 -685h-82z" />
<glyph unicode="J" horiz-adv-x="300" d="M179 685h83l-69 -554q-8 -65 -24.5 -114t-46.5 -86.5t-76 -64.5t-115 -46l-21 63q60 25 96 49t57 52t30.5 62.5t15.5 79.5z" />
<glyph unicode="K" horiz-adv-x="563" d="M134 0h-81l84 685h81l-39 -310l329 310h93l-291 -273l217 -412h-90l-185 356l-84 -78z" />
<glyph unicode="L" horiz-adv-x="508" d="M53 0l83 684h82l-76 -621h341l-7 -63h-423z" />
<glyph unicode="M" horiz-adv-x="796" d="M398 163l49 114l185 408h90l1 -685h-81l7 416l2 139h-5l-58 -135l-170 -356h-79l-85 355l-29 133h-5l-22 -133l-79 -419h-83l140 685h90l101 -409l23 -113h8z" />
<glyph unicode="N" horiz-adv-x="662" d="M496 139l66 545h80l-83 -684h-81q-52 103 -103 206.5t-103 206.5l-69 144q-1 0 -1.5 -0.5t-2.5 -0.5l-68 -556h-78l83 684h82q51 -98 99 -194l97 -194q19 -39 38.5 -78.5t39.5 -78.5h4z" />
<glyph unicode="O" horiz-adv-x="677" d="M394 695q69 0 116 -22t75 -60t40 -89t12 -109q0 -88 -20.5 -165t-60.5 -134.5t-99 -90.5t-136 -33q-68 0 -115.5 18.5t-78 53.5t-44.5 84.5t-14 111.5q0 80 18 158t57 139.5t101 99.5t149 38zM393 631q-69 0 -115 -34t-74 -88t-39.5 -120t-11.5 -130q0 -100 40 -151 t130 -51q61 0 104.5 30t71.5 80t40.5 115t12.5 135q0 42 -6.5 80.5t-24.5 68t-49 47.5t-79 18z" />
<glyph unicode="P" horiz-adv-x="538" d="M354 685q87 0 134.5 -45t47.5 -135q0 -34 -11.5 -73.5t-38 -73t-69 -55.5t-104.5 -22h-144l-33 -281h-83l84 685h217zM211 620l-34 -275h132q24 0 49.5 7.5t46.5 25.5t34 48.5t13 76.5q0 60 -31 88.5t-82 28.5h-128z" />
<glyph unicode="Q" horiz-adv-x="678" d="M394 695q69 0 116 -22t75 -60t40 -89t12 -109q0 -68 -12 -129.5t-36 -113t-59 -90.5t-81 -62l139 -40l-35 -71l-232 83q-68 0 -115.5 18.5t-78 53.5t-44.5 84.5t-14 111.5q0 80 18 158t57 139.5t101 99.5t149 38zM393 631q-69 0 -115 -34t-74 -88t-39.5 -120t-11.5 -130 q0 -100 40 -151t130 -51q61 0 104.5 30t71.5 80t40.5 115t12.5 135q0 42 -6.5 80.5t-24.5 68t-49 47.5t-79 18z" />
<glyph unicode="R" horiz-adv-x="573" d="M538 496q-8 -61 -43 -110.5t-95 -66.5q37 -12 54.5 -45.5t25.5 -75.5l41 -198h-83l-39 188q-14 66 -51 88t-90 22h-88l-36 -298h-81l84 685h228q98 0 141 -52t32 -137zM312 363q19 0 42 5t43.5 19.5t36 39.5t20.5 65q8 69 -24.5 98t-87.5 29h-132l-32 -256h134z" />
<glyph unicode="S" horiz-adv-x="556" d="M338 696q42 0 90 -8.5t88 -34.5l-32 -60q-45 22 -83.5 28.5t-71.5 6.5q-29 0 -55 -7.5t-46 -22.5t-32.5 -38.5t-13.5 -55.5q0 -28 10.5 -46.5t29 -31.5t43 -21.5t51.5 -15.5q33 -9 67.5 -20.5t62 -31t45.5 -51.5t18 -81q0 -60 -22 -101t-59 -66t-85 -35.5t-100 -10.5 t-105.5 11t-102.5 42l30 62q55 -29 99 -38t82 -9t70 6.5t56 21.5t37.5 39.5t15.5 60.5q0 31 -9 51.5t-26 34t-41.5 22.5t-54.5 18q-40 11 -75.5 24t-62.5 32.5t-43 48.5t-16 72q0 51 19 89t51.5 64t76.5 39t94 13z" />
<glyph unicode="T" horiz-adv-x="546" d="M208 0l75 618h-214l9 67h508l-9 -67h-213l-76 -618h-80z" />
<glyph unicode="U" horiz-adv-x="645" d="M581 246q-7 -57 -26.5 -104t-53 -80.5t-82 -51.5t-113.5 -18q-133 0 -189.5 67.5t-41.5 186.5l54 439h81l-54 -440q-12 -94 26.5 -141t121.5 -47t134 46.5t63 141.5l53 440h81z" />
<glyph unicode="V" horiz-adv-x="537" d="M257 88l55 140l188 457h87l-295 -685h-97l-126 685h86l76 -458l21 -139h5z" />
<glyph unicode="W" horiz-adv-x="812" d="M581 97q16 48 32 94.5t31 94.5l27 79q26 80 53 159.5t55 159.5h81q-64 -185 -125.5 -356.5t-118.5 -327.5h-94q-8 61 -16.5 122t-17.5 122q-1 7 -4 31.5t-6.5 52t-7 51.5t-4.5 31l-10 80t-11 80h-2q-14 -41 -27.5 -80.5t-25.5 -80.5l-58 -166l-81 -243h-103l-80 684h85 q11 -102 20.5 -203.5t20.5 -203.5q4 -45 7.5 -90t8.5 -90h2l57 169l56 162q20 64 42.5 128t43.5 128h87q2 -16 7 -49.5t10.5 -75t12 -87t12 -86t9.5 -71.5t6 -44q1 -6 4.5 -31.5t7.5 -55.5t7.5 -55.5t4.5 -31.5h2v0z" />
<glyph unicode="X" horiz-adv-x="540" d="M238 356q-39 82 -78.5 164t-80.5 164h93q32 -69 63 -137t63 -137q48 69 96 137t97 137h92q-62 -84 -123.5 -166t-122.5 -166q42 -89 84.5 -176.5t85.5 -175.5h-92q-35 74 -68.5 147.5t-68.5 148.5l-205 -296h-90l255 356v0z" />
<glyph unicode="Y" horiz-adv-x="520" d="M224 296l-155 389h83l69 -180l51 -139h4l91 145l114 174h87l-257 -385l-36 -300h-87z" />
<glyph unicode="Z" horiz-adv-x="516" d="M105 685h416l8 -64l-424 -552l374 -1l-8 -68h-463l-5 64l423 553h-330z" />
<glyph unicode="[" horiz-adv-x="252" d="M7 -159l106 856h165q-2 -14 -3.5 -27t-3.5 -27h-94l-92 -747h94q-2 -14 -3.5 -27.5t-3.5 -27.5h-165z" />
<glyph unicode="\" horiz-adv-x="323" d="M74 701h52l160 -729h-53z" />
<glyph unicode="]" horiz-adv-x="252" d="M-13 -159q2 14 3.5 27.5t3.5 27.5h93l92 747h-94l6 54h166l-105 -856h-165z" />
<glyph unicode="^" horiz-adv-x="430" d="M369 381l-103 237l-161 -237h-63l207 301h46l131 -301h-57z" />
<glyph unicode="_" horiz-adv-x="485" d="M-41 -132l6 47h484l-6 -47h-484z" />
<glyph unicode="`" horiz-adv-x="484" d="M179 682l63 50l101 -165l-39 -28z" />
<glyph unicode="a" horiz-adv-x="512" d="M286 495q32 0 62.5 -5t60.5 -14l8 20l59 -3q-14 -91 -29.5 -202t-29.5 -232l59 2l6 -47q-26 -12 -48 -16t-35 -4q-30 0 -42.5 13.5t-12.5 35.5v10.5t1 12.5l-2 2q-42 -36 -88 -55t-83 -19q-60 0 -98 44t-38 133q0 53 14 110t44 104.5t77.5 78.5t114.5 31zM284 431 q-31 0 -61 -16.5t-53 -48.5t-37.5 -78.5t-14.5 -107.5q0 -68 23 -95.5t58 -27.5q36 0 77 22t73 50l40 286q-27 9 -53.5 12.5t-51.5 3.5z" />
<glyph unicode="b" horiz-adv-x="507" d="M38 42l83 686h79q-4 -29 -9.5 -72.5t-11 -88t-11 -83t-9.5 -57.5l4 -4q44 34 89 52.5t82 18.5q60 0 98 -44t38 -133q0 -53 -14 -110t-44 -104.5t-77.5 -78.5t-114.5 -31q-92 0 -176 41zM222 57q31 0 61 16.5t53 48.5t37.5 78.5t14.5 107.5q0 34 -6 57.5t-17 38t-26 21 t-32 6.5q-36 0 -77.5 -22t-73.5 -50l-36 -281q29 -14 53 -17.5t49 -3.5z" />
<glyph unicode="c" horiz-adv-x="430" d="M226 55q35 0 68 7.5t71 22.5l18 -50q-33 -17 -79.5 -29.5t-93.5 -12.5q-48 0 -80.5 13t-53 36t-29.5 56t-10 72q0 31 4 68t14.5 73t28.5 70t46 60t67.5 41.5t92.5 15.5q81 0 137 -37l-25 -50q-40 20 -69 22.5t-48 2.5q-42 0 -73.5 -21t-52.5 -56.5t-31.5 -81.5t-10.5 -96 q0 -26 5.5 -49t18 -40t33.5 -27t52 -10z" />
<glyph unicode="d" horiz-adv-x="496" d="M339 0l8 65l-4 3q-42 -36 -87.5 -55t-82.5 -19q-60 0 -98 44t-38 133q0 53 14 110t44 104.5t77.5 78.5t114.5 31q56 0 109 -15l29 231h78l-90 -711h-74zM285 431q-31 0 -61 -16.5t-53 -48.5t-37.5 -78.5t-14.5 -107.5q0 -68 23 -95.5t58 -27.5q36 0 77.5 22t73.5 50 l37 286q-27 9 -52.5 12.5t-50.5 3.5z" />
<glyph unicode="e" horiz-adv-x="462" d="M295 500q34 0 59 -9.5t41.5 -26t25 -39t8.5 -47.5q0 -46 -23 -78.5t-64.5 -53.5t-99 -32.5t-125.5 -15.5q-1 -6 -1 -12.5v-12.5q0 -21 4 -42.5t16 -38.5t33 -28t54 -11q38 0 74.5 9t73.5 26l18 -48q-32 -20 -82 -33.5t-100 -13.5q-52 0 -85 15t-52 41.5t-26 61t-7 73.5 q0 49 11.5 104.5t41 102.5t79 78t126.5 31zM284 437q-71 0 -112 -50.5t-51 -138.5q113 5 172.5 34t59.5 87q0 30 -16 49t-53 19z" />
<glyph unicode="f" horiz-adv-x="332" d="M187 428q-11 -85 -20 -167.5t-18 -167.5q-8 -58 -18 -113t-30.5 -98t-55 -69t-91.5 -26q-21 0 -44.5 3t-48.5 10l15 54q23 -5 38.5 -6t29.5 -1q29 0 49 11.5t33.5 33.5t22 54.5t14.5 75.5q10 75 19 146t15.5 127t10.5 91.5t4 41.5h-81l5 41l84 19l8 53q14 91 54 140 t121 49q22 0 46 -2.5t49 -10.5l-14 -59q-20 5 -39 7t-33 2q-21 0 -39.5 -6.5t-33.5 -23t-25 -46t-15 -74.5l-4 -34h134l-6 -55h-136z" />
<glyph unicode="g" horiz-adv-x="509" d="M341 39q1 7 2 12l2 10l-4 4q-44 -34 -87.5 -52.5t-80.5 -18.5q-60 0 -98 44t-38 133q0 53 14 110t44 104.5t77.5 78.5t114.5 31q47 0 89.5 -10.5t84.5 -30.5l6 -8q-14 -115 -29.5 -229.5t-30.5 -227.5q-5 -33 -16 -69.5t-37 -66.5t-71 -50t-116 -20q-43 0 -81.5 12 t-61.5 23l24 58q26 -13 61 -21t66 -8q48 0 78.5 15t48.5 41.5t26 61.5t13 74zM285 431q-31 0 -61 -16.5t-53 -48.5t-37.5 -78.5t-14.5 -107.5q0 -68 23 -95.5t58 -27.5q36 0 77.5 22t73.5 50l36 280q-29 14 -54.5 18t-47.5 4z" />
<glyph unicode="h" horiz-adv-x="505" d="M343 0l38 342q1 7 1.5 13t0.5 12q0 37 -15.5 51t-43.5 14q-33 0 -77.5 -19t-89.5 -63l-41 -350h-80l87 730h79q-14 -101 -22 -181t-19 -133l3 -2q50 46 102.5 65.5t87.5 19.5q32 0 53 -8t33.5 -21.5t17.5 -32.5t5 -40v-17t-2 -18l-40 -362h-78z" />
<glyph unicode="i" horiz-adv-x="239" d="M47 0l59 487h80l-60 -487h-79zM164 670q20 0 33.5 -14t13.5 -34q0 -23 -15.5 -40.5t-40.5 -17.5q-19 0 -32.5 13t-13.5 33q0 25 16 42.5t39 17.5z" />
<glyph unicode="j" horiz-adv-x="270" d="M215 487q-3 -26 -7 -64t-9 -80t-9.5 -85t-9 -79t-7 -60.5t-3.5 -30.5q-7 -59 -19 -109.5t-35 -90.5t-61.5 -67.5t-97.5 -40.5l-17 57q47 18 75 43t43.5 55.5t22 66.5t11.5 76l44 409h79zM193 670q20 0 33.5 -14t13.5 -34q0 -23 -15.5 -40.5t-40.5 -17.5q-19 0 -32.5 13 t-13.5 33q0 25 16 42.5t39 17.5z" />
<glyph unicode="k" horiz-adv-x="446" d="M154 281q54 51 108.5 103.5t108.5 103.5h89q-50 -48 -105.5 -101t-106.5 -101l23 -24l148 -262h-85q-32 62 -67 123.5t-67 123.5l-60 -55l-23 -192h-77l87 710h77l-38 -313q-4 -28 -7 -53t-10 -60z" />
<glyph unicode="l" horiz-adv-x="238" d="M208 728q-4 -34 -10 -88t-14 -117.5t-16 -132t-16 -131t-14.5 -114t-9.5 -80.5l65 2l6 -55q-22 -12 -49.5 -18t-44.5 -6q-30 0 -42.5 13.5t-12.5 41.5q0 6 0.5 12.5t1.5 14.5l79 658h77z" />
<glyph unicode="m" horiz-adv-x="772" d="M324 0l40 351q1 6 1 11.5v10.5q0 34 -15.5 46.5t-45.5 12.5q-27 0 -64 -19t-82 -63l-41 -350h-80q16 123 30.5 248t28.5 240h76q-3 -20 -5 -36.5t-5 -31.5l3 -2q54 45 98 63t71 18q29 0 48.5 -7t32 -19t18.5 -28t8 -34q25 23 51 39.5t50 27.5t43.5 16t33.5 5 q33 0 54.5 -8.5t33.5 -22.5t17 -33.5t5 -41.5q0 -8 -0.5 -15.5t-1.5 -15.5l-40 -362h-78l40 351q1 6 1 11.5v10.5q0 34 -15.5 46.5t-45.5 12.5q-27 0 -66.5 -18.5t-83.5 -61.5l-37 -352h-78z" />
<glyph unicode="n" horiz-adv-x="507" d="M344 0l40 351q1 6 1 11.5v10.5q0 34 -15.5 46.5t-49.5 12.5q-33 0 -75 -19t-87 -63l-41 -350h-80q15 123 30 242.5t29 245.5h76q-3 -20 -5 -36.5t-5 -31.5l3 -2q54 45 102 63t83 18q33 0 55 -8.5t35 -22.5t18.5 -33.5t5.5 -41.5q0 -8 -0.5 -15.5t-1.5 -15.5l-40 -362h-78 z" />
<glyph unicode="o" horiz-adv-x="496" d="M278 434q-50 0 -81 -27.5t-49 -67.5t-24.5 -85t-6.5 -80q0 -24 5 -45.5t17 -38.5t33 -27t53 -10q48 0 78.5 26t47.5 64t23.5 80.5t6.5 75.5q0 26 -4.5 50.5t-16.5 43t-32 30t-50 11.5zM281 498q50 0 85 -16t56.5 -43.5t31 -63.5t9.5 -76q0 -49 -11.5 -103t-40 -99 t-75.5 -74.5t-119 -29.5q-51 0 -85.5 15t-55.5 41t-30 60.5t-9 74.5q0 54 13 109.5t42 101t75.5 74.5t113.5 29z" />
<glyph unicode="p" horiz-adv-x="508" d="M174 487q-2 -17 -4.5 -33.5t-5.5 -31.5l4 -3q42 36 88 55t83 19q60 0 98 -44t38 -133q0 -53 -14 -110t-44 -104.5t-77.5 -78.5t-114.5 -31q-58 0 -110 15q-4 -38 -7.5 -66l-6.5 -52t-6 -46.5t-6 -49.5h-78l88 694h75zM227 56q31 0 61 16.5t53 48.5t37.5 78.5t14.5 107.5 q0 34 -6 57.5t-17 38t-26 21t-32 6.5q-36 0 -77.5 -22t-73.5 -50l-37 -286q27 -9 52.5 -12.5t50.5 -3.5z" />
<glyph unicode="q" horiz-adv-x="516" d="M308 -208q4 32 8.5 72t10 78t10 69.5t8.5 48.5l-4 4q-44 -34 -89 -52.5t-82 -18.5q-60 0 -98 44t-38 133q0 53 14 110t44 104.5t77.5 78.5t114.5 31q92 0 176 -41l6 -8l-79 -653h-79zM282 430q-31 0 -61 -16.5t-53 -48.5t-37.5 -78.5t-14.5 -107.5q0 -68 23 -95.5 t58 -27.5q36 0 77.5 22t73.5 50l36 281q-29 14 -53 17.5t-49 3.5z" />
<glyph unicode="r" horiz-adv-x="327" d="M176 488q-3 -27 -4.5 -44t-5.5 -41h3q29 42 57 67.5t65 25.5q20 0 37.5 -7.5t30.5 -28.5l-24 -54q-23 6 -43 6q-48 0 -79 -26.5t-49 -64.5l-39 -321h-78q14 112 29 237.5t29 250.5h71v0z" />
<glyph unicode="s" horiz-adv-x="427" d="M39 84q43 -20 81 -25t64 -5q22 0 43.5 4t38 13t27 24t10.5 37t-9 36.5t-24.5 25t-36 18.5t-44.5 16q-24 9 -47 19.5t-41 24.5t-29 34t-11 49q0 38 15.5 65t41.5 44t59 25t69 8q15 0 33 -2t36.5 -6.5t36.5 -11t32 -15.5l-25 -52q-36 15 -63.5 19.5t-51.5 4.5 q-16 0 -34.5 -3t-34.5 -12t-26.5 -24t-10.5 -39q0 -15 10 -26t24.5 -19.5t31 -14.5t30.5 -11q22 -8 47 -17.5t46.5 -25.5t36 -39t14.5 -57q0 -42 -16.5 -71t-44 -47t-64.5 -26t-79 -8t-87 10.5t-73 27.5z" />
<glyph unicode="t" horiz-adv-x="350" d="M200 433q-10 -74 -19.5 -148t-18.5 -149q-1 -5 -1 -9v-9q0 -27 11 -43t45 -16q14 0 39.5 3.5t54.5 11.5l12 -53q-15 -6 -32.5 -11t-35 -8.5t-33.5 -5t-28 -1.5q-52 0 -83.5 21.5t-31.5 72.5q0 4 0.5 8t0.5 8q11 85 20 166t20 162h-70l4 43l76 18l39 109l51 8l-15 -123 h143l-6 -55h-142v0z" />
<glyph unicode="u" horiz-adv-x="479" d="M158 488l-40 -351q-1 -6 -1 -11.5v-10.5q0 -34 15.5 -46.5t49.5 -12.5q33 0 73 19t85 63l43 350h76q-8 -61 -15 -120l-14 -118t-14 -121t-14 -129h-72l8 68l-3 2q-54 -45 -101 -63t-82 -18q-33 0 -55 8.5t-35 22.5t-18.5 33.5t-5.5 41.5q0 8 0.5 15.5t1.5 15.5l40 362h78 z" />
<glyph unicode="v" horiz-adv-x="444" d="M139 0q-28 122 -54.5 243.5t-52.5 243.5h81q12 -64 26 -125.5t25 -124.5l30 -168h5q4 7 12 25t18.5 42.5t23 53.5t26.5 60q17 39 35.5 80t34 77t27 62t14.5 34l72 -21q-58 -122 -114 -241t-113 -241h-96v0z" />
<glyph unicode="w" horiz-adv-x="687" d="M475 81l53 149l105 273l68 -20l-194 -483h-86l-42 224l-28 168h-5l-63 -168l-90 -224h-87l-74 488h75l35 -254l19 -153h5l59 159l99 248h76l47 -259l23 -148h5z" />
<glyph unicode="x" horiz-adv-x="447" d="M221 209l-166 -236l-65 33l192 246l-119 236h88l84 -187l142 205l67 -30l-171 -219l129 -257h-85z" />
<glyph unicode="y" horiz-adv-x="429" d="M195 57q4 9 24 54.5t48 110.5t60 140t61 141l68 -18q-61 -140 -126.5 -287.5t-126.5 -286.5q-25 -58 -61 -92t-91 -34q-11 1 -35 2.5t-66 14.5l17 57q26 -6 43 -8.5t33 -2.5q28 0 50 14t39 54l38 87h-40q-23 122 -45 243t-45 242h79q9 -53 20 -118.5t21.5 -127.5 t18.5 -112.5t11 -72.5h5v0z" />
<glyph unicode="z" horiz-adv-x="433" d="M92 488h316l12 -51l-318 -377h285l-7 -60h-369l-9 47l323 381h-240z" />
<glyph unicode="{" horiz-adv-x="257" d="M151 -169q-54 0 -74 21.5t-20 62.5v10.5t1 10.5q8 57 14.5 115t14.5 116q3 19 3 36q0 26 -14 43.5t-40 25.5l6 45q41 11 55 36t22 75l19 149q2 18 8 40t18 40.5t32 31.5t50 13h50l-8 -54h-24q-18 0 -28.5 -6t-16 -16t-7.5 -23.5t-4 -29.5l-19 -158q-2 -19 -7 -38 t-13.5 -35.5t-21.5 -28.5t-31 -17q27 -15 37 -35t10 -47q0 -18 -3 -39l-28 -225q-1 -8 -1 -14.5v-13.5q2 -16 8.5 -26.5t26.5 -10.5h29l-6 -54h-38z" />
<glyph unicode="|" horiz-adv-x="236" d="M89 -139v839h55v-839h-55z" />
<glyph unicode="}" horiz-adv-x="257" d="M121 703q54 0 74 -21.5t20 -62.5v-10.5t-1 -10.5q-4 -29 -7 -50.5t-6 -41.5t-6 -42t-7 -51q-3 -20 -3 -36q0 -26 14 -43.5t40 -25.5l-6 -45q-41 -11 -55 -36t-22 -75l-22 -195q-2 -18 -8 -40t-18 -40.5t-32 -31.5t-50 -13h-50l8 54h24q18 0 28.5 6t16 16t7.5 23.5t4 29.5 l22 204q2 19 7 38t13.5 35.5t21.5 28.5t31 17q-27 15 -37 35t-10 47q0 18 3 39l25 179q1 8 1 14.5v13.5q-2 16 -8.5 26.5t-26.5 10.5h-29l6 54h38z" />
<glyph unicode="~" horiz-adv-x="542" d="M378 247q-29 0 -55 7.5t-49.5 16t-45 16t-40.5 7.5l-77 -47l-29 28q21 39 52.5 62t67.5 23q23 0 49 -7.5t52.5 -16t50.5 -16t44 -7.5l72 48l29 -27q-20 -38 -51.5 -62.5t-69.5 -24.5z" />
<glyph unicode="&#xa2;" horiz-adv-x="542" d="M243 -6q-41 3 -69 17t-45.5 37t-25.5 54t-9 68q0 44 8 96.5t31.5 100.5t65 83.5t107.5 44.5l12 98h43l-12 -95q79 -1 135 -37l-25 -50q-40 20 -69 22.5t-48 2.5h-1l-46 -381q32 1 62 8.5t65 21.5l18 -50q-29 -16 -70 -27.5t-83 -13.5l-9 -76h-44zM174 181q0 -45 16.5 -79 t60.5 -44l46 371q-31 -11 -54 -35t-38.5 -57t-23 -73t-7.5 -83z" />
<glyph unicode="&#xa3;" horiz-adv-x="541" d="M161 364l17 107q7 43 22 79.5t40.5 63.5t62 42.5t85.5 15.5q42 0 83.5 -9.5t68.5 -23.5l-29 -61q-38 18 -70 22.5t-56 4.5q-35 0 -58 -10t-38 -28.5t-23 -44t-14 -56.5l-18 -102h180l-6 -53h-183l-13 -81q-4 -24 -10 -49.5t-15 -48t-20 -41.5t-26 -30h329l-7 -61h-430 l8 60q23 10 39.5 29t28 42.5t18.5 50t11 50.5l14 79h-65l6 53h68z" />
<glyph unicode="&#xa5;" horiz-adv-x="541" d="M78 288l5 40h135q-30 85 -61 168t-60 168h79q15 -48 30.5 -95t32.5 -95l42 -129h4q19 32 37 64t38 64q4 9 20 36.5t34.5 59t35 59t21.5 36.5h83q-53 -85 -104.5 -168t-103.5 -168h138l-5 -40h-401zM473 238l-5 -41h-162l-24 -197h-80l24 197h-159l5 41h401z" />
<glyph unicode="&#xa8;" horiz-adv-x="489" d="M434 613q0 -22 -15.5 -36.5t-38.5 -14.5q-19 0 -29.5 12t-9.5 31q1 21 16.5 35.5t33.5 14.5q20 0 32 -11t11 -31zM253 613q-1 -22 -16 -36.5t-38 -14.5q-19 0 -30.5 12t-10.5 31q1 21 17.5 35.5t33.5 14.5q20 0 32.5 -11t11.5 -31z" />
<glyph unicode="&#xa9;" horiz-adv-x="835" d="M805 333q0 -75 -29 -141.5t-79.5 -116t-117.5 -78t-142 -28.5q-76 0 -142.5 28.5t-116.5 78t-79 116t-29 141.5t29 141t79 115.5t116.5 78t142.5 28.5q75 0 142 -28.5t117.5 -78t79.5 -115.5t29 -141zM761 333q0 66 -25.5 124.5t-69 102t-103 68.5t-126.5 25 q-66 0 -125 -25t-103.5 -68.5t-70 -102t-25.5 -124.5t25.5 -124.5t70 -102t103.5 -68.5t125 -25q67 0 126.5 25t103 68.5t69 102t25.5 124.5zM296 325q0 -42 7 -78t25 -62.5t49 -41.5t78 -15q10 0 24.5 1t30.5 3t32 5t30 7l11 -45q-25 -10 -64.5 -16.5t-74.5 -6.5 q-59 0 -99 18t-65.5 51t-36.5 78.5t-11 101.5q0 39 9.5 84.5t34 83.5t66.5 63.5t108 25.5q42 0 72 -6t51 -14l-13 -48q-29 11 -56 14t-50 3q-79 0 -118.5 -55t-39.5 -151z" />
<glyph unicode="&#xaa;" horiz-adv-x="353" d="M212 597q20 0 41 -4t40 -10l6 14l48 -2q-10 -58 -20.5 -129t-19.5 -149l39 2l5 -39q-20 -8 -36.5 -11t-25.5 -3q-23 0 -33 10t-10 27v5q-28 -20 -58 -31t-53 -11q-43 0 -70.5 29t-27.5 89q0 35 10 72.5t31 69t54 51.5t80 20zM211 546q-20 0 -39.5 -10t-35 -30t-25 -49 t-9.5 -67q0 -41 15 -57.5t36 -16.5q23 0 49.5 13.5t47.5 30.5l26 178q-17 5 -34 6.5t-31 1.5z" />
<glyph unicode="&#xab;" horiz-adv-x="420" d="M58 208l161 159l30 -26l-117 -153l80 -152l-36 -25l-123 158zM202 208l161 159l29 -26l-116 -153l79 -152l-35 -25l-123 158z" />
<glyph unicode="&#xad;" horiz-adv-x="355" d="M54 230l9 68h251l-9 -68h-251z" />
<glyph unicode="&#xae;" horiz-adv-x="581" d="M565 471q0 -50 -19 -93.5t-52 -75.5t-77 -51t-94 -19q-51 0 -95 19t-77 51t-52 75.5t-19 93.5t19 93.5t51.5 76t77 51.5t95.5 19q50 0 94 -19t77 -51.5t52 -76t19 -93.5zM529 471q0 42 -16 79.5t-43.5 65.5t-65.5 44.5t-81 16.5t-81 -16.5t-66 -44.5t-44 -65.5t-16 -79.5 t16 -79.5t44 -65t65.5 -44t81.5 -16.5t82 16.5t65.5 44t43 65t15.5 79.5zM385 537q0 28 -15.5 39.5t-35.5 11.5h-53v-102h52q20 0 36 10t16 41zM388 328l-56 126h-51v-126h-44v292h100q42 0 67 -20t25 -62q0 -19 -12.5 -42.5t-41.5 -35.5l61 -132h-48z" />
<glyph unicode="&#xb2;" horiz-adv-x="364" d="M31 355l5 46q30 25 70.5 56.5t76.5 65.5t61.5 67.5t25.5 62.5t-18.5 40.5t-50.5 11.5q-14 0 -41 -5.5t-69 -28.5l-26 43q47 30 84.5 38.5t61.5 8.5q55 0 90.5 -24t35.5 -74q0 -37 -20.5 -72t-52 -67.5t-68 -61.5t-67.5 -53h195l-4 -54h-289z" />
<glyph unicode="&#xb3;" horiz-adv-x="364" d="M257 579q37 -11 54.5 -36t17.5 -56q0 -28 -12.5 -52.5t-35 -43t-55 -29.5t-72.5 -11q-43 0 -76.5 7.5t-53.5 18.5l19 47q43 -16 66.5 -18.5t41.5 -2.5q22 0 42 5.5t35.5 15.5t24.5 25t9 33q0 34 -23.5 49t-60.5 15q-10 0 -20.5 -1t-24.5 -3l-7 46q68 12 102.5 34.5 t34.5 46.5q0 16 -15 26.5t-50 10.5q-17 0 -44.5 -5t-65.5 -21l-19 42q37 20 73.5 28.5t65.5 8.5q63 0 91.5 -24.5t28.5 -56.5q0 -27 -18 -54.5t-53 -40.5v-4z" />
<glyph unicode="&#xb4;" horiz-adv-x="489" d="M279 538l-40 34l136 165l59 -56z" />
<glyph unicode="&#xb8;" horiz-adv-x="439" d="M187 -62q44 -3 69.5 -20t25.5 -50q0 -21 -11 -41.5t-34 -36.5t-58 -25.5t-84 -9.5l3 38q54 5 88.5 20t34.5 43q0 12 -9 19t-23 11t-30 5t-31 1l-10 20l111 125q7 -5 14 -9.5t14 -9.5z" />
<glyph unicode="&#xb9;" horiz-adv-x="364" d="M197 691l-100 -14l-3 44l118 34h58l-46 -399h-67z" />
<glyph unicode="&#xba;" horiz-adv-x="342" d="M199 601q35 0 59.5 -10.5t40 -28.5t22.5 -42t7 -51q0 -32 -7.5 -67.5t-26.5 -65t-51.5 -49t-82.5 -19.5q-36 0 -60.5 10t-39.5 27t-21.5 40.5t-6.5 50.5q0 35 8.5 71.5t28 66t51.5 48.5t79 19zM197 553q-33 0 -53 -17t-31.5 -42.5t-15 -54t-3.5 -50.5q0 -14 3.5 -27.5 t12 -23.5t22 -16t33.5 -6q32 0 51.5 16.5t30 40t14 50t3.5 46.5q0 16 -3.5 31.5t-11 27t-20.5 18.5t-32 7z" />
<glyph unicode="&#xbb;" horiz-adv-x="420" d="M363 169l-163 -158l-28 25l115 152l-78 153l37 26l122 -159zM220 169l-163 -158l-29 25l116 152l-78 153l36 26l123 -159z" />
<glyph unicode="&#xbc;" horiz-adv-x="800" d="M714 108q-3 -26 -6.5 -53.5t-5.5 -54.5h-63l12 108h-196l4 44q57 62 114 123.5t114 123.5h62q-8 -60 -15 -120l-14 -120h59l-4 -51h-61zM283 -22h-55l380 723h53zM254 601l-100 -14l-3 44l118 34h58l-46 -399h-67zM670 313l-138 -154h124l20 155z" />
<glyph unicode="&#xbd;" horiz-adv-x="800" d="M492 0l4 45q21 17 46.5 37t51.5 41.5t50.5 44t43.5 44.5t30.5 43.5t11.5 40.5q0 29 -18.5 41t-50.5 12q-14 0 -41 -5.5t-69 -29.5l-26 45q46 29 83.5 38t62.5 9q55 0 90.5 -24.5t35.5 -76.5q0 -36 -21 -71t-52 -67t-67 -61t-67 -53h195l-5 -53h-288zM259 -22h-55l380 723 h53zM234 601l-100 -14l-3 44l118 34h58l-46 -399h-67z" />
<glyph unicode="&#xbe;" horiz-adv-x="800" d="M313 489q37 -11 54.5 -36t17.5 -56q0 -28 -12.5 -52.5t-35 -43t-55 -29.5t-72.5 -11q-43 0 -76.5 7.5t-53.5 18.5l19 47q43 -16 66.5 -18.5t41.5 -2.5q22 0 42 5.5t35.5 15.5t24.5 25t9 33q0 34 -23.5 49t-60.5 15q-10 0 -20.5 -1t-24.5 -3l-7 46q68 12 102.5 34.5 t34.5 46.5q0 16 -15 26.5t-50 10.5q-17 0 -44.5 -5t-65.5 -21l-19 42q37 20 73.5 28.5t65.5 8.5q63 0 91.5 -24.5t28.5 -56.5q0 -27 -18 -54.5t-53 -40.5v-4zM312 -22h-55l380 723h53zM734 108q-3 -26 -6.5 -53.5t-5.5 -54.5h-63l12 108h-196l4 44q57 62 114 123.5 t114 123.5h62q-8 -60 -15 -120l-14 -120h59l-4 -51h-61zM690 313l-138 -154h124l20 155z" />
<glyph unicode="&#xc6;" horiz-adv-x="879" d="M443 205h-251l-131 -205h-87l449 684h421l-2 -62h-301l-10 -231h254l-2 -61h-254l-11 -267h316l-2 -63h-398zM379 493l-147 -223h214l11 216l7 134h-4z" />
<glyph unicode="&#xe6;" horiz-adv-x="757" d="M593 500q34 0 59 -9.5t41.5 -26t25 -39t8.5 -47.5q0 -44 -23.5 -73t-65.5 -47t-99 -26.5t-124 -9.5q-1 -10 -1.5 -21t-0.5 -22q0 -24 4 -46.5t16 -40t33 -28.5t55 -11q38 0 74.5 9t73.5 26l19 -48q-32 -20 -82.5 -33.5t-100.5 -13.5q-65 0 -100 24t-51 62 q-60 -53 -114.5 -71.5t-99.5 -18.5q-35 0 -57.5 10.5t-35 27t-17 36.5t-4.5 40q0 34 13 65t47.5 53.5t96 35.5t159.5 12q2 16 5 38t3 34q0 54 -22 73.5t-75 19.5q-29 0 -70.5 -8t-78.5 -21l-15 53q43 19 89.5 29t92.5 10q18 0 38 -2.5t39 -11t34.5 -26t23.5 -47.5 q29 41 74.5 65.5t112.5 24.5zM177 49q13 0 31.5 2.5t39.5 10.5t44.5 22.5t47.5 37.5q-3 14 -4 29t-1 31v19.5t2 23.5q-74 -2 -118.5 -12t-68.5 -25t-31.5 -34t-7.5 -38q0 -29 15 -48t51 -19zM582 437q-38 0 -67 -13.5t-49.5 -36.5t-32.5 -54t-15 -66q112 2 175 25t63 77 q0 30 -18 49t-56 19z" />
<glyph unicode="&#x152;" horiz-adv-x="786" d="M392 695q49 0 87 -12h313l-7 -62h-296l-29 -231h254l-7 -61h-254l-33 -267h319l-7 -62h-356q-17 -3 -34.5 -5t-35.5 -2q-69 0 -116 19t-76 54.5t-41.5 86.5t-12.5 116q0 84 18.5 161t58.5 136t103 94t152 35zM407 629q-5 0 -11 0.5t-13 0.5q-69 0 -114.5 -32t-73 -83.5 t-38.5 -115.5t-11 -128q0 -106 37 -160.5t130 -54.5h11.5t11.5 1z" />
<glyph unicode="&#x153;" horiz-adv-x="801" d="M550 -6q-65 0 -100 26.5t-50 67.5q-28 -40 -73 -67t-108 -27q-53 0 -87.5 14.5t-55 40t-28.5 60.5t-8 75q0 54 13 109.5t41.5 100.5t74.5 74t113 29q63 0 102.5 -28t57.5 -72q29 45 76 73.5t120 28.5q35 0 60.5 -10t42.5 -26.5t25 -38.5t8 -46q0 -46 -23.5 -79.5t-65 -55 t-99 -33t-126.5 -13.5q-1 -5 -1 -11.5v-12.5q0 -20 4 -41.5t15.5 -39t32.5 -29t55 -11.5q38 0 74.5 9.5t73.5 25.5l18 -47q-32 -20 -81.5 -33t-100.5 -13zM281 434q-50 0 -81 -27.5t-49 -67.5t-24.5 -85t-6.5 -80q0 -24 5 -45.5t17 -38.5t33 -27t53 -10q48 0 78.5 26 t47.5 64t23.5 80.5t6.5 75.5q0 26 -4.5 50.5t-16.5 43t-32 30t-50 11.5zM465 245q112 5 174.5 35.5t62.5 87.5q0 30 -18 49t-55 19q-74 0 -114 -52t-50 -139z" />
<glyph unicode="&#x2c6;" horiz-adv-x="489" d="M435 533l-138 100l-162 -100l-21 28l163 142h53l130 -141z" />
<glyph unicode="&#x2da;" horiz-adv-x="489" d="M288 552q-45 0 -71.5 30.5t-21.5 74.5q3 21 12.5 40.5t25.5 34t36.5 23t44.5 8.5q21 0 39 -8.5t30 -23t17.5 -33.5t2.5 -41q-2 -22 -12 -41t-26 -33.5t-35.5 -22.5t-41.5 -8zM308 719q-28 0 -47 -18.5t-22 -45.5q-3 -26 11 -44.5t43 -18.5q26 0 44.5 18.5t21.5 44.5 q4 26 -10.5 45t-40.5 19z" />
<glyph unicode="&#x2dc;" horiz-adv-x="489" d="M360 573q-22 0 -41 6t-35.5 13.5t-31.5 13.5t-28 6l-60 -39l-25 22q17 35 41.5 55t52.5 20q18 0 36.5 -6t36 -13t34 -13t29.5 -6l60 39l23 -22q-14 -33 -38.5 -54.5t-53.5 -21.5z" />
<glyph unicode="&#x401;" horiz-adv-x="534" d="M53 0l83 684h397l-7 -64h-315l-28 -227h272l-8 -62h-272l-33 -266h338l-7 -65h-420zM486 780q-1 -22 -16 -36.5t-38 -14.5q-18 0 -28.5 11.5t-9.5 29.5q1 21 15.5 35.5t33.5 14.5q20 0 32 -11t11 -29zM306 780q-1 -22 -16.5 -36.5t-35.5 -14.5q-19 0 -30.5 12t-11.5 30 q1 20 17.5 34.5t33.5 14.5q20 0 32 -11t11 -29z" />
<glyph unicode="&#x402;" horiz-adv-x="731" d="M517 432q88 0 132.5 -48t44.5 -129q0 -61 -20 -115.5t-53 -101t-74 -82.5t-83 -60l-26 44q37 26 68 58.5t53.5 70t35.5 79.5t13 86q0 69 -30 100t-90 31q-34 0 -75 -8t-83 -25l-40 -332h-81l75 619h-204l8 65h535l-9 -65h-249l-27 -226q50 20 96 29.5t83 9.5z" />
<glyph unicode="&#x403;" horiz-adv-x="501" d="M53 0l83 684h401l-8 -67h-319l-75 -617h-82zM330 722l-22 36l178 117l35 -62z" />
<glyph unicode="&#x404;" horiz-adv-x="575" d="M409 696q54 0 95 -8.5t70 -19.5l-22 -63q-38 14 -75 18.5t-68 4.5q-99 0 -160.5 -64t-82.5 -176q66 2 132.5 3t132.5 2l-6 -67l-267 4q-2 -16 -2 -32v-33q0 -45 8.5 -82.5t29.5 -65t56.5 -42.5t90.5 -15q13 0 32.5 1.5t41 4.5t44.5 7.5t43 10.5l13 -60q-18 -7 -42.5 -13 t-51.5 -10t-53.5 -6.5t-49.5 -2.5q-69 0 -116.5 19.5t-76.5 55t-41.5 86t-12.5 113.5q0 36 5.5 81.5t20 93t38.5 93.5t61.5 82t90 58t122.5 22z" />
<glyph unicode="&#x405;" horiz-adv-x="556" d="M338 696q42 0 90 -8.5t88 -34.5l-32 -60q-45 22 -83.5 28.5t-71.5 6.5q-29 0 -55 -7.5t-46 -22.5t-32.5 -38.5t-13.5 -55.5q0 -28 10.5 -46.5t29 -31.5t43 -21.5t51.5 -15.5q33 -9 67.5 -20.5t62 -31t45.5 -51.5t18 -81q0 -60 -22 -101t-59 -66t-85 -35.5t-100 -10.5 t-105.5 11t-102.5 42l30 62q55 -29 99 -38t82 -9t70 6.5t56 21.5t37.5 39.5t15.5 60.5q0 31 -9 51.5t-26 34t-41.5 22.5t-54.5 18q-40 11 -75.5 24t-62.5 32.5t-43 48.5t-16 72q0 51 19 89t51.5 64t76.5 39t94 13z" />
<glyph unicode="&#x406;" horiz-adv-x="256" d="M62 0l84 685h82l-84 -685h-82z" />
<glyph unicode="&#x407;" horiz-adv-x="256" d="M62 0l84 685h82l-84 -685h-82zM336 792q0 -22 -15.5 -36.5t-38.5 -14.5q-19 0 -29.5 12t-9.5 31q1 21 16.5 35.5t33.5 14.5q20 0 32 -11t11 -31zM155 792q-1 -22 -16 -36.5t-38 -14.5q-19 0 -30.5 12t-10.5 31q1 21 17.5 35.5t33.5 14.5q20 0 32.5 -11t11.5 -31z" />
<glyph unicode="&#x408;" horiz-adv-x="300" d="M179 685h83l-69 -554q-8 -65 -24.5 -114t-46.5 -86.5t-76 -64.5t-115 -46l-21 63q60 25 96 49t57 52t30.5 62.5t15.5 79.5z" />
<glyph unicode="&#x409;" horiz-adv-x="931" d="M544 402h150q50 0 87.5 -14t62 -38t36.5 -57t12 -70q0 -55 -18.5 -97t-50 -70t-72 -42t-85.5 -14h-255l79 623l-186 -1l-8 -72q-9 -74 -19.5 -143t-25.5 -129.5t-35.5 -112t-50.5 -90.5t-70 -64.5t-94 -34.5l-14 60q57 18 95 54.5t63 96.5t41.5 145t30.5 201l18 152h344z M537 341l-35 -280h159q30 0 57.5 10t47.5 30t32 50t12 70q0 31 -10.5 54t-28.5 37.5t-42.5 21.5t-52.5 7h-139z" />
<glyph unicode="&#x40a;" horiz-adv-x="925" d="M536 401h149q50 0 87.5 -14t62 -38t37 -56.5t12.5 -69.5q0 -54 -18.5 -96t-50 -70t-72 -42.5t-85.5 -14.5h-254l41 337h-267l-41 -337h-84l83 684h84l-35 -285h268l35 286h83zM528 337l-32 -276h157q30 0 57 10t47.5 30t32 50t11.5 70q0 31 -10.5 53.5t-28.5 36t-42.5 20 t-51.5 6.5h-140z" />
<glyph unicode="&#x40b;" horiz-adv-x="758" d="M523 437q42 0 75.5 -10.5t56 -31t32.5 -51.5t5 -71l-36 -273h-83l34 261q8 63 -21.5 87t-93.5 24q-41 0 -85 -10.5t-77 -25.5l-42 -336h-80l76 619h-216l9 65h550l-8 -65h-254l-28 -218q49 18 97 27t89 9z" />
<glyph unicode="&#x40c;" horiz-adv-x="580" d="M53 0l84 685h81l-34 -285h112q16 0 35.5 3.5t38.5 15t36.5 32.5t31.5 57l66 175h80l-67 -186q-19 -51 -50 -84.5t-69 -46.5q44 -14 67.5 -51.5t31.5 -85.5l31 -229h-78l-32 219q-6 35 -19 57t-30 34t-37.5 16.5t-39.5 4.5h-117l-39 -331h-83zM321 725l-22 36l178 117 l35 -62z" />
<glyph unicode="&#x40e;" horiz-adv-x="551" d="M79 684h86q15 -50 26.5 -88.5t21 -70.5t17.5 -59l16 -54l48 -159h5l64 148l121 283h88l-264 -591q-25 -56 -55.5 -81t-83.5 -25q-20 0 -46 3t-66 13l22 69q27 -7 46 -9t35 -2q23 0 40.5 12.5t31.5 43.5l36 79h-30zM325 728q-26 0 -47 9.5t-38.5 25t-32 36t-26.5 41.5 l49 34q23 -38 50.5 -60.5t55.5 -22.5q9 0 22 1.5t30.5 9t41 23t53.5 42.5l23 -25q-50 -63 -96.5 -88.5t-84.5 -25.5z" />
<glyph unicode="&#x40f;" horiz-adv-x="633" d="M613 683l-83 -683h-205l-22 -172h-66l22 172h-205l83 683h81l-76 -622h311l76 622h84z" />
<glyph unicode="&#x410;" horiz-adv-x="562" d="M441 0q-9 45 -16 89.5t-16 89.5h-262q-19 -45 -37 -89.5t-38 -89.5h-87q81 186 157.5 357t145.5 328h105q32 -173 65 -343t68 -342h-85zM398 244l-12 76t-14 77q-6 38 -12.5 75.5t-13.5 75.5l-12 67h-2q-1 -2 -2.5 -5.5t-4.5 -11l-8 -20t-13 -31.5q-9 -21 -20.5 -49.5 t-27.5 -65.5q-17 -38 -36 -84.5t-44 -103.5h222z" />
<glyph unicode="&#x411;" horiz-adv-x="572" d="M520 623h-308l-28 -221h150q50 0 87.5 -14t62 -38t36.5 -57t12 -70q0 -55 -18.5 -97t-50 -70t-72 -42t-85.5 -14h-253l84 684h390zM177 341l-34 -280h158q30 0 57.5 10t47.5 30.5t32 50.5t12 70q0 31 -10.5 53.5t-28.5 37t-42.5 21.5t-52.5 7h-139z" />
<glyph unicode="&#x412;" horiz-adv-x="591" d="M136 684h238q91 0 133 -43.5t42 -113.5q0 -51 -24.5 -95t-86.5 -74q28 -10 45.5 -27.5t27.5 -38t13.5 -42.5t3.5 -42q0 -45 -18 -83t-47.5 -66t-67.5 -43.5t-78 -15.5h-264zM173 323l-32 -258h156q39 0 67.5 12.5t46.5 33t27 47.5t9 56q0 22 -7 42t-22 35t-37 23.5 t-52 8.5h-156zM210 619l-29 -232h139q69 0 107.5 36.5t38.5 97.5q0 44 -27 71t-90 27h-139z" />
<glyph unicode="&#x413;" horiz-adv-x="501" d="M53 0l83 684h401l-8 -67h-319l-75 -617h-82z" />
<glyph unicode="&#x414;" horiz-adv-x="664" d="M50 0l-21 -167h-64l27 228h59q39 36 66 84.5t47.5 112.5t36.5 142.5t34 174.5l20 109h372l-76 -623h66l-28 -228h-65l21 167h-495zM308 562q-24 -116 -42 -197.5t-36.5 -139t-39.5 -96t-51 -68.5h331l69 562h-219z" />
<glyph unicode="&#x415;" horiz-adv-x="534" d="M53 0l83 684h397l-7 -64h-315l-28 -227h272l-8 -62h-272l-33 -266h338l-7 -65h-420z" />
<glyph unicode="&#x416;" horiz-adv-x="880" d="M375 0q9 75 15.5 127t11 89.5t8 64t6.5 50.5h-96q-20 0 -41 -4.5t-41.5 -16.5t-39 -34t-32.5 -57l-85 -219h-81l95 245q18 48 47 77.5t80 43.5q-40 11 -65 45.5t-31 85.5l-21 186h76l24 -175q5 -36 19 -57t32.5 -32.5t38.5 -15t37 -3.5h92l35 285h80l-35 -285h92 q16 0 36 3t39.5 14.5t37 33t29.5 57.5l57 175h80l-58 -186q-17 -52 -45.5 -85t-73.5 -46q44 -14 68 -46.5t30 -80.5l32 -239h-78l-32 219q-5 35 -18 57t-30.5 34t-38 16.5t-39.5 4.5h-96l-41 -331h-80z" />
<glyph unicode="&#x417;" horiz-adv-x="547" d="M395 371q49 -17 77 -55t28 -89q0 -59 -24 -102t-64 -72t-91 -43t-105 -14q-60 0 -112 9.5t-96 29.5l26 59q51 -17 96 -22.5t74 -5.5q103 0 157 40.5t54 119.5q0 54 -39.5 85t-112.5 31h-81q2 14 3.5 29.5t3.5 30.5h77q39 0 70.5 10t53 28t33.5 42t12 51t-10.5 44.5 t-29 28.5t-43.5 15.5t-54 4.5q-35 0 -78.5 -6.5t-94.5 -26.5l-22 59q43 20 99.5 31.5t109.5 11.5q46 0 84 -9t66 -27.5t43.5 -47t15.5 -67.5q0 -60 -34 -104t-91 -65z" />
<glyph unicode="&#x418;" horiz-adv-x="647" d="M627 683l-83 -683h-80l69 557h-2l-120 -169l-277 -388h-81l83 683h81l-69 -553h3l106 149l293 406z" />
<glyph unicode="&#x419;" horiz-adv-x="647" d="M627 683l-83 -683h-80l69 557h-2l-120 -169l-277 -388h-81l83 683h81l-69 -553h3l106 149l293 406zM385 740q-26 0 -47 9.5t-38.5 25.5t-32 36t-26.5 41l49 34q23 -38 50.5 -60.5t55.5 -22.5q9 0 22 1.5t30.5 9t41 23t53.5 42.5l23 -25q-50 -63 -96.5 -88.5t-84.5 -25.5z " />
<glyph unicode="&#x41a;" horiz-adv-x="580" d="M53 0l84 685h81l-34 -285h112q16 0 35.5 3.5t38.5 15t36.5 32.5t31.5 57l66 175h80l-67 -186q-19 -51 -50 -84.5t-69 -46.5q44 -14 67.5 -51.5t31.5 -85.5l31 -229h-78l-32 219q-6 35 -19 57t-30 34t-37.5 16.5t-39.5 4.5h-117l-39 -331h-83z" />
<glyph unicode="&#x41b;" horiz-adv-x="650" d="M284 550q-14 -111 -31 -209.5t-47.5 -175t-80.5 -126.5t-131 -63l-14 64q57 18 93.5 53.5t60 95t38 144t28.5 200.5l18 152h412l-84 -685h-85l75 614h-244z" />
<glyph unicode="&#x41c;" horiz-adv-x="796" d="M398 163l49 114l185 408h90l1 -685h-81l7 416l2 139h-5l-58 -135l-170 -356h-79l-85 355l-29 133h-5l-22 -133l-79 -419h-83l140 685h90l101 -409l23 -113h8z" />
<glyph unicode="&#x41d;" horiz-adv-x="633" d="M446 0l40 327h-310q-11 -82 -20 -163.5t-19 -163.5h-84l83 684h84q-8 -73 -17.5 -144t-18.5 -144h310l35 288h85l-83 -684h-85z" />
<glyph unicode="&#x41e;" horiz-adv-x="677" d="M394 695q69 0 116 -22t75 -60t40 -89t12 -109q0 -88 -20.5 -165t-60.5 -134.5t-99 -90.5t-136 -33q-68 0 -115.5 18.5t-78 53.5t-44.5 84.5t-14 111.5q0 80 18 158t57 139.5t101 99.5t149 38zM393 631q-69 0 -115 -34t-74 -88t-39.5 -120t-11.5 -130q0 -100 40 -151 t130 -51q61 0 104.5 30t71.5 80t40.5 115t12.5 135q0 42 -6.5 80.5t-24.5 68t-49 47.5t-79 18z" />
<glyph unicode="&#x41f;" horiz-adv-x="633" d="M446 0l75 614h-310l-74 -614h-84l84 685h478l-84 -685h-85z" />
<glyph unicode="&#x420;" horiz-adv-x="538" d="M354 685q87 0 134.5 -45t47.5 -135q0 -34 -11.5 -73.5t-38 -73t-69 -55.5t-104.5 -22h-144l-33 -281h-83l84 685h217zM211 620l-34 -275h132q24 0 49.5 7.5t46.5 25.5t34 48.5t13 76.5q0 60 -31 88.5t-82 28.5h-128z" />
<glyph unicode="&#x421;" horiz-adv-x="575" d="M409 696q54 0 95 -8.5t70 -19.5l-22 -63q-38 14 -75 18.5t-68 4.5q-62 0 -109 -25.5t-79 -73t-48.5 -114.5t-16.5 -150q0 -45 8.5 -82.5t29.5 -65t56.5 -42.5t90.5 -15q13 0 32.5 1.5t41 4.5t44.5 7.5t43 10.5l13 -60q-18 -7 -42.5 -13t-51.5 -10t-53.5 -6.5t-49.5 -2.5 q-69 0 -116.5 19.5t-76.5 55t-41.5 86t-12.5 113.5q0 36 5.5 81.5t20 93t38.5 93.5t61.5 82t90 58t122.5 22z" />
<glyph unicode="&#x422;" horiz-adv-x="546" d="M208 0l75 618h-214l9 67h508l-9 -67h-213l-76 -618h-80z" />
<glyph unicode="&#x423;" horiz-adv-x="551" d="M79 684h86q15 -50 26.5 -88.5t21 -70.5t17.5 -59l16 -54l48 -159h5l64 148l121 283h88l-264 -591q-25 -56 -55.5 -81t-83.5 -25q-20 0 -46 3t-66 13l22 69q27 -7 46 -9t35 -2q23 0 40.5 12.5t31.5 43.5l36 79h-30z" />
<glyph unicode="&#x424;" horiz-adv-x="775" d="M491 684l-7 -64q69 -3 120 -24t84 -54.5t49.5 -76.5t16.5 -90q0 -63 -24 -115.5t-68 -91t-106 -62t-139 -27.5l-10 -79h-81l9 79q-69 3 -121 22.5t-87.5 52t-53.5 75t-18 92.5q0 56 22.5 109t66 94t108.5 67t150 29l8 64h81zM394 556q-64 -4 -112 -24t-80.5 -51 t-48.5 -71.5t-16 -85.5q0 -88 54.5 -133t151.5 -51zM425 140q56 4 102 22.5t79 48.5t51 69.5t18 83.5q0 35 -11.5 68.5t-35.5 60t-61.5 43.5t-90.5 20z" />
<glyph unicode="&#x425;" horiz-adv-x="540" d="M238 356q-39 82 -78.5 164t-80.5 164h93q32 -69 63 -137t63 -137q48 69 96 137t97 137h92q-62 -84 -123.5 -166t-122.5 -166q42 -89 84.5 -176.5t85.5 -175.5h-92q-35 74 -68.5 147.5t-68.5 148.5l-205 -296h-90l255 356v0z" />
<glyph unicode="&#x426;" horiz-adv-x="643" d="M537 61h69l-28 -227h-65l21 166h-481l83 683h82l-76 -622h311l76 622h84z" />
<glyph unicode="&#x427;" horiz-adv-x="582" d="M479 0h-81l37 305q-47 -16 -96.5 -24.5t-89.5 -8.5q-42 0 -78 9t-62 28t-39 49t-8 72l31 253h84l-28 -232q-4 -32 3.5 -53.5t24 -35t40.5 -19t54 -5.5q20 0 43 2.5t45.5 7t44 10.5t39.5 13l38 312h81z" />
<glyph unicode="&#x428;" horiz-adv-x="881" d="M458 684h82l-76 -623h238l76 623h82l-82 -684h-725l83 684h80l-76 -623h242z" />
<glyph unicode="&#x429;" horiz-adv-x="891" d="M136 684h80l-76 -623h242l76 623h82l-76 -623h238l76 623h83l-76 -623h68l-28 -228h-65l21 167h-728z" />
<glyph unicode="&#x42a;" horiz-adv-x="687" d="M309 402h150q50 0 87.5 -14t62 -38t36.5 -56.5t12 -69.5q0 -56 -18.5 -97.5t-50 -70t-72 -42.5t-85.5 -14h-253l73 614h-231l8 70h315zM302 341l-34 -280h158q30 0 57.5 10t47.5 30.5t32 50.5t12 70q0 31 -10.5 53.5t-28.5 37t-42.5 21.5t-51.5 7h-140z" />
<glyph unicode="&#x42b;" horiz-adv-x="794" d="M178 341l-34 -280h158q30 0 57.5 10t47.5 30.5t32 50.5t12 70q0 31 -10.5 53.5t-28.5 37t-42.5 21.5t-51.5 7h-140zM186 402h149q50 0 87.5 -14t62 -38t36.5 -56.5t12 -69.5q0 -55 -18.5 -97t-50 -70t-72 -42.5t-85.5 -14.5h-254l84 685h83zM608 0l84 685h82l-84 -685 h-82z" />
<glyph unicode="&#x42c;" horiz-adv-x="563" d="M178 341l-34 -280h158q30 0 57.5 10t47.5 30.5t32 50.5t12 70q0 31 -10.5 53.5t-28.5 37t-42.5 21.5t-51.5 7h-140zM186 402h149q50 0 87.5 -14t62 -38t36.5 -56.5t12 -69.5q0 -55 -18.5 -97t-50 -70t-72 -42.5t-85.5 -14.5h-254l84 685h83z" />
<glyph unicode="&#x42d;" horiz-adv-x="576" d="M187 325l9 67l255 -5q3 24 3 47q0 90 -46.5 142t-139.5 52q-29 0 -66 -5t-88 -18l-18 61q33 11 79.5 20t100.5 9q74 0 124 -22t80 -59.5t43 -87t13 -103.5q0 -89 -20 -167t-62 -136.5t-107.5 -92.5t-155.5 -34q-46 0 -95 8t-81 22l24 62q38 -12 76.5 -18.5t71.5 -6.5 q63 0 109 22t77 59t48.5 85.5t22.5 102.5z" />
<glyph unicode="&#x42e;" horiz-adv-x="887" d="M53 0l84 685h82l-37 -295h139q12 60 33.5 115t57.5 97t87.5 67.5t123.5 25.5q66 0 111 -21.5t73.5 -59t41 -88t12.5 -108.5q0 -90 -20 -167.5t-58.5 -134.5t-95.5 -90t-132 -33q-126 0 -184.5 67t-61.5 185q0 20 0.5 40t2.5 42h-137l-40 -327h-82zM619 630 q-67 0 -111 -34.5t-70 -89t-36.5 -121.5t-10.5 -131q0 -98 38.5 -148t128.5 -50q59 0 101 30t68.5 80.5t39 116.5t12.5 137q0 41 -8 79t-26.5 67t-49 46.5t-76.5 17.5z" />
<glyph unicode="&#x42f;" horiz-adv-x="577" d="M199 326q-48 17 -71 56t-23 90q0 48 14.5 87t42 67t67.5 43.5t92 15.5h236l-84 -685h-80l37 298h-99q-26 0 -50 -4.5t-44.5 -16.5t-38 -33.5t-30.5 -55.5l-75 -188h-88l81 198q8 20 18 39.5t23.5 36t31 29.5t41.5 19zM438 363l31 256h-141q-25 0 -49.5 -7t-44 -23.5 t-32 -44t-12.5 -67.5q0 -35 11 -57.5t27.5 -35t37 -17t38.5 -4.5h134z" />
<glyph unicode="&#x430;" horiz-adv-x="512" d="M286 495q32 0 62.5 -5t60.5 -14l8 20l59 -3q-14 -91 -29.5 -202t-29.5 -232l59 2l6 -47q-26 -12 -48 -16t-35 -4q-30 0 -42.5 13.5t-12.5 35.5v10.5t1 12.5l-2 2q-42 -36 -88 -55t-83 -19q-60 0 -98 44t-38 133q0 53 14 110t44 104.5t77.5 78.5t114.5 31zM284 431 q-31 0 -61 -16.5t-53 -48.5t-37.5 -78.5t-14.5 -107.5q0 -68 23 -95.5t58 -27.5q36 0 77 22t73 50l40 286q-27 9 -53.5 12.5t-51.5 3.5z" />
<glyph unicode="&#x431;" horiz-adv-x="502" d="M325 494q64 0 104.5 -41.5t40.5 -130.5q0 -53 -13 -111t-42.5 -106.5t-77 -80t-116.5 -31.5q-51 0 -85 15.5t-54.5 41t-29 59t-8.5 69.5q0 22 2.5 53t6.5 65t9.5 68.5t12.5 65.5q10 45 24 87t34.5 77t49 61t67.5 39q20 7 45.5 11t53.5 7.5t57 6.5t56 9l11 -59 q-42 -10 -78.5 -14t-57.5 -6q-44 -4 -75.5 -18t-53.5 -40t-37 -66.5t-27 -97.5l4 -4q44 34 92 52.5t85 18.5zM303 431q-18 0 -39.5 -6t-43.5 -16.5t-42.5 -23.5t-36.5 -27q-3 -17 -6.5 -42t-6.5 -50t-4.5 -47t-1.5 -34q0 -31 4.5 -55.5t17 -41.5t34 -26t54.5 -9q31 0 59 18 t49.5 51.5t34.5 81.5t13 109q0 34 -7 57t-18.5 36.5t-27 19t-32.5 5.5z" />
<glyph unicode="&#x432;" horiz-adv-x="474" d="M355 274q24 -5 40 -16t26 -26t14.5 -31t4.5 -29q0 -28 -10 -59.5t-33 -57.5t-62 -44t-96 -19q-45 0 -95.5 8t-92.5 28l-9 10l33 285q5 41 22 73.5t42.5 55.5t57 35t64.5 12q75 0 117 -33t42 -87q0 -29 -14.5 -56t-49.5 -44zM232 56q57 1 91.5 31t34.5 82q0 71 -92 71h-52 l7 59h34q38 0 65 19t27 54q0 26 -19.5 44.5t-61.5 18.5q-51 0 -80.5 -33t-34.5 -82l-28 -245q26 -10 57.5 -14.5t51.5 -4.5z" />
<glyph unicode="&#x433;" horiz-adv-x="413" d="M256 500q59 0 97 -25.5t38 -76.5q0 -29 -13.5 -53t-37.5 -44.5t-58 -39t-75 -36.5q-21 -9 -39.5 -20t-32.5 -24.5t-22 -30t-8 -35.5q0 -35 25.5 -49.5t64.5 -14.5q38 0 78.5 12t80.5 32l22 -45q-44 -30 -97 -44t-98 -14q-34 0 -62.5 6.5t-48.5 20t-31.5 35.5t-11.5 54 q0 33 15 59.5t38.5 47.5t53 38t60.5 31q19 9 40.5 19.5t38.5 23.5t28.5 28t11.5 32q0 16 -7 26.5t-17.5 16.5t-24 8t-26.5 2q-33 0 -68.5 -11t-73.5 -28l-22 47q37 23 84.5 37.5t97.5 14.5z" />
<glyph unicode="&#x434;" horiz-adv-x="505" d="M398 480q-1 42 -7 75.5t-19.5 57t-37.5 35.5t-61 12q-26 0 -58.5 -4.5t-81.5 -20.5l-15 54q41 18 80 26.5t77 8.5q101 0 150.5 -66t44.5 -212q-3 -82 -14.5 -163t-40.5 -145.5t-79 -104.5t-129 -40q-50 0 -81.5 16t-50.5 42t-26 60.5t-7 71.5q0 49 15 103.5t45 101t75 77 t106 30.5q32 0 59 -3.5t56 -11.5zM394 414q-26 10 -52 13.5t-51 3.5q-44 0 -75.5 -22.5t-52 -59t-30.5 -83t-10 -94.5q0 -23 4.5 -44.5t15 -38t27 -26.5t41.5 -10q46 0 79 27t54.5 75t33 114t16.5 145z" />
<glyph unicode="&#x435;" horiz-adv-x="462" d="M295 500q34 0 59 -9.5t41.5 -26t25 -39t8.5 -47.5q0 -46 -23 -78.5t-64.5 -53.5t-99 -32.5t-125.5 -15.5q-1 -6 -1 -12.5v-12.5q0 -21 4 -42.5t16 -38.5t33 -28t54 -11q38 0 74.5 9t73.5 26l18 -48q-32 -20 -82 -33.5t-100 -13.5q-52 0 -85 15t-52 41.5t-26 61t-7 73.5 q0 49 11.5 104.5t41 102.5t79 78t126.5 31zM284 437q-71 0 -112 -50.5t-51 -138.5q113 5 172.5 34t59.5 87q0 30 -16 49t-53 19z" />
<glyph unicode="&#x436;" horiz-adv-x="736" d="M163 488l20 -128q3 -26 12 -40.5t21 -21t26 -8t29 -1.5h73l24 198h79l-24 -198h71q15 0 29.5 1.5t28 8t26 21t22.5 40.5l50 128h78l-49 -131q-14 -36 -32.5 -62t-47.5 -34v-6q16 -4 27 -12.5t17.5 -20.5t11 -27t7.5 -33l30 -162h-79l-25 144q-9 50 -33 68.5t-55 18.5h-84 l-28 -231h-79l28 231h-84q-31 0 -60 -18.5t-50 -68.5l-59 -144h-79l69 169q14 35 32.5 56.5t53.5 29.5l2 6q-27 8 -40 34t-18 62l-17 131h76z" />
<glyph unicode="&#x437;" horiz-adv-x="438" d="M214 437q-28 0 -66 -7.5t-77 -22.5l-17 53q45 22 89 30.5t82 8.5q32 0 62.5 -6.5t54 -20.5t37.5 -35.5t14 -51.5q0 -32 -20 -65t-70 -50v-3q39 -10 62 -38t23 -69q0 -42 -18 -73t-49 -52t-71 -31.5t-85 -10.5q-46 0 -87.5 8.5t-72.5 25.5l21 52q32 -13 66.5 -19.5 t68.5 -6.5q29 0 56 7t47.5 21.5t33 35t12.5 47.5q0 21 -9.5 35t-24.5 22.5t-32.5 11.5t-33.5 3h-61l6 54h49q17 0 37 4.5t37 14.5t28 25.5t11 37.5q0 34 -30.5 49.5t-72.5 15.5z" />
<glyph unicode="&#x438;" horiz-adv-x="479" d="M158 488l-40 -351q-1 -6 -1 -11.5v-10.5q0 -34 15.5 -46.5t49.5 -12.5q33 0 73 19t85 63l40 350h81q-15 -123 -30 -242.5t-29 -245.5h-76q3 20 5 36.5t5 31.5l-3 2q-54 -45 -100 -63t-81 -18q-33 0 -55 8.5t-35 22.5t-18.5 33.5t-5.5 41.5q0 8 0.5 15.5t1.5 15.5l40 362 h78z" />
<glyph unicode="&#x439;" horiz-adv-x="479" d="M158 488l-40 -351q-1 -6 -1 -11.5v-10.5q0 -34 15.5 -46.5t49.5 -12.5q33 0 73 19t85 63l40 350h81q-15 -123 -30 -242.5t-29 -245.5h-76q3 20 5 36.5t5 31.5l-3 2q-54 -45 -100 -63t-81 -18q-33 0 -55 8.5t-35 22.5t-18.5 33.5t-5.5 41.5q0 8 0.5 15.5t1.5 15.5l40 362 h78zM266 551q-26 0 -47 9.5t-38.5 25.5t-32 36t-26.5 41l49 34q23 -38 50.5 -60.5t55.5 -22.5q9 0 22 1.5t30.5 9t41 23t53.5 42.5l23 -25q-50 -63 -96.5 -88.5t-84.5 -25.5z" />
<glyph unicode="&#x43a;" horiz-adv-x="480" d="M470 488l-49 -131q-14 -36 -32.5 -62t-47.5 -34v-6q16 -4 27 -12.5t17.5 -20.5t11 -27t7.5 -33l30 -162h-76l-25 144q-9 50 -33 68.5t-55 18.5h-102l-28 -231h-78l59 487h80l-25 -198h86q15 0 29.5 1.5t28 8t26 21t22.5 40.5l50 128h77z" />
<glyph unicode="&#x43b;" horiz-adv-x="491" d="M409 0h-77l51 430h-161l-4 -41q-8 -86 -19.5 -155t-34 -120.5t-61.5 -85t-103 -46.5l-18 60q43 17 70.5 40.5t45 62t27 96.5t18.5 145l10 102h313z" />
<glyph unicode="&#x43c;" horiz-adv-x="622" d="M162 391l-18 -96l-58 -295h-76l108 489h88l72 -283l21 -90h5l37 84l141 289h89l1 -489h-74l7 298l2 95h-4l-41 -88l-132 -259h-80l-63 251l-21 94h-4z" />
<glyph unicode="&#x43d;" horiz-adv-x="507" d="M341 0l28 231h-226l-28 -231h-79l59 487h80l-26 -198h225l26 198h80l-60 -487h-79z" />
<glyph unicode="&#x43e;" horiz-adv-x="496" d="M278 434q-50 0 -81 -27.5t-49 -67.5t-24.5 -85t-6.5 -80q0 -24 5 -45.5t17 -38.5t33 -27t53 -10q48 0 78.5 26t47.5 64t23.5 80.5t6.5 75.5q0 26 -4.5 50.5t-16.5 43t-32 30t-50 11.5zM281 498q50 0 85 -16t56.5 -43.5t31 -63.5t9.5 -76q0 -49 -11.5 -103t-40 -99 t-75.5 -74.5t-119 -29.5q-51 0 -85.5 15t-55.5 41t-30 60.5t-9 74.5q0 54 13 109.5t42 101t75.5 74.5t113.5 29z" />
<glyph unicode="&#x43f;" horiz-adv-x="507" d="M344 0l40 351q1 6 1 11.5v10.5q0 34 -15.5 46.5t-49.5 12.5q-33 0 -75 -19t-87 -63l-41 -350h-80q15 123 30 242.5t29 245.5h76q-3 -20 -5 -36.5t-5 -31.5l3 -2q54 45 102 63t83 18q33 0 55 -8.5t35 -22.5t18.5 -33.5t5.5 -41.5q0 -8 -0.5 -15.5t-1.5 -15.5l-40 -362h-78 z" />
<glyph unicode="&#x440;" horiz-adv-x="508" d="M174 487q-2 -17 -4.5 -33.5t-5.5 -31.5l4 -3q42 36 88 55t83 19q60 0 98 -44t38 -133q0 -53 -14 -110t-44 -104.5t-77.5 -78.5t-114.5 -31q-58 0 -110 15q-4 -38 -7.5 -66l-6.5 -52t-6 -46.5t-6 -49.5h-78l88 694h75zM227 56q31 0 61 16.5t53 48.5t37.5 78.5t14.5 107.5 q0 34 -6 57.5t-17 38t-26 21t-32 6.5q-36 0 -77.5 -22t-73.5 -50l-37 -286q27 -9 52.5 -12.5t50.5 -3.5z" />
<glyph unicode="&#x441;" horiz-adv-x="430" d="M226 55q35 0 68 7.5t71 22.5l18 -50q-33 -17 -79.5 -29.5t-93.5 -12.5q-48 0 -80.5 13t-53 36t-29.5 56t-10 72q0 31 4 68t14.5 73t28.5 70t46 60t67.5 41.5t92.5 15.5q81 0 137 -37l-25 -50q-40 20 -69 22.5t-48 2.5q-42 0 -73.5 -21t-52.5 -56.5t-31.5 -81.5t-10.5 -96 q0 -26 5.5 -49t18 -40t33.5 -27t52 -10z" />
<glyph unicode="&#x442;" horiz-adv-x="772" d="M324 0l40 351q1 6 1 11.5v10.5q0 34 -15.5 46.5t-45.5 12.5q-27 0 -64 -19t-82 -63l-41 -350h-80q16 123 30.5 248t28.5 240h76q-3 -20 -5 -36.5t-5 -31.5l3 -2q54 45 98 63t71 18q29 0 48.5 -7t32 -19t18.5 -28t8 -34q25 23 51 39.5t50 27.5t43.5 16t33.5 5 q33 0 54.5 -8.5t33.5 -22.5t17 -33.5t5 -41.5q0 -8 -0.5 -15.5t-1.5 -15.5l-40 -362h-78l40 351q1 6 1 11.5v10.5q0 34 -15.5 46.5t-45.5 12.5q-27 0 -66.5 -18.5t-83.5 -61.5l-37 -352h-78z" />
<glyph unicode="&#x443;" horiz-adv-x="429" d="M195 57q4 9 24 54.5t48 110.5t60 140t61 141l68 -18q-61 -140 -126.5 -287.5t-126.5 -286.5q-25 -58 -61 -92t-91 -34q-11 1 -35 2.5t-66 14.5l17 57q26 -6 43 -8.5t33 -2.5q28 0 50 14t39 54l38 87h-40q-23 122 -45 243t-45 242h79q9 -53 20 -118.5t21.5 -127.5 t18.5 -112.5t11 -72.5h5v0z" />
<glyph unicode="&#x444;" horiz-adv-x="655" d="M427 728l-29 -232q113 -4 170 -61t57 -148q0 -59 -17.5 -110.5t-53.5 -91t-90.5 -64t-127.5 -28.5l-23 -201h-74l25 201q-64 3 -107 21t-69 46.5t-37 65.5t-11 77q0 61 19 114t56 92t89.5 62t120.5 25l28 232h74zM548 280q0 33 -9.5 60.5t-29 48.5t-49 33t-70.5 13 l-47 -383q54 3 92.5 21.5t63.5 49t37 71t12 86.5zM114 202q0 -66 39 -106.5t118 -43.5l46 383q-52 -3 -90 -22.5t-63 -51t-37.5 -72.5t-12.5 -87z" />
<glyph unicode="&#x445;" horiz-adv-x="447" d="M221 209l-166 -236l-65 33l192 246l-119 236h88l84 -187l142 205l67 -30l-171 -219l129 -257h-85z" />
<glyph unicode="&#x446;" horiz-adv-x="479" d="M469 28q-15 -52 -28 -98.5t-27 -102.5h-69l-6 11q15 47 30.5 85t31.5 76q-24 14 -37.5 35t-18.5 42q-1 1 -1.5 0.5t-1.5 0.5q-54 -45 -104.5 -66.5t-85.5 -21.5q-33 0 -55 8.5t-35 22.5t-18.5 33.5t-5.5 41.5q0 8 0.5 15.5t1.5 15.5l40 362h78l-40 -351q-1 -5 -1 -10.5 v-10.5q0 -29 14.5 -44.5t50.5 -15.5q33 0 73 19t85 63l41 349h79l-35 -294q-3 -26 -4.5 -47.5t2 -39.5t13 -34t28.5 -29z" />
<glyph unicode="&#x447;" horiz-adv-x="467" d="M142 488l-19 -176q-6 -51 8 -70.5t49 -19.5q33 0 77 16.5t89 58.5l23 191h78l-58 -488h-79q8 61 14.5 119.5t17.5 111.5l-3 2q-51 -44 -102.5 -61t-86.5 -17q-39 0 -61.5 11t-34 30t-13 44t1.5 52l21 196h78z" />
<glyph unicode="&#x448;" horiz-adv-x="751" d="M444 488l-40 -351q-1 -6 -1 -11.5v-10.5q0 -34 15.5 -46.5t45.5 -12.5q27 0 64 19t82 63l41 350h80q-16 -123 -30.5 -248t-28.5 -240h-76q3 20 5 36.5t5 31.5l-3 2q-54 -45 -98 -63t-71 -18q-29 0 -48.5 7t-32 19t-19 28t-7.5 34q-26 -23 -51.5 -39.5t-49.5 -27.5 t-44 -16t-33 -5q-33 0 -54.5 8.5t-33.5 22.5t-17 33.5t-5 41.5q0 8 0.5 15.5t1.5 15.5l40 362h78l-40 -351q-1 -6 -1 -11.5v-10.5q0 -34 15.5 -46.5t45.5 -12.5q27 0 66.5 18.5t83.5 61.5l37 352h78z" />
<glyph unicode="&#x449;" horiz-adv-x="751" d="M464 56q33 0 66.5 19t78.5 63l41 349h79l-35 -294q-3 -26 -4.5 -47.5t2 -39.5t13 -34t28.5 -29l5 -15q-15 -52 -27.5 -98.5t-26.5 -102.5h-69l-6 11q15 47 30 85t31 76q-24 14 -37.5 35t-18.5 42q-1 1 -1.5 0.5t-1.5 0.5q-106 -88 -177 -88q-29 0 -48.5 7t-32 19t-19 28 t-7.5 34q-26 -23 -51.5 -39.5t-49.5 -27.5t-44 -16t-33 -5q-39 0 -62 11.5t-34 30.5t-12.5 43.5t0.5 51.5l40 362h78l-40 -351q-5 -39 8.5 -60t51.5 -21q27 0 66.5 18.5t83.5 61.5l37 352h78l-40 -351q-1 -6 -1 -11.5v-10.5q0 -34 15.5 -46.5t45.5 -12.5z" />
<glyph unicode="&#x44a;" horiz-adv-x="547" d="M241 487q-6 -52 -10.5 -102.5t-11.5 -81.5h4q37 25 78.5 47t91.5 22q57 0 87 -35.5t30 -101.5q0 -41 -11.5 -83t-38.5 -76.5t-70 -56.5t-106 -22q-15 0 -35 2t-42.5 6.5t-46 11.5t-44.5 17l-4 9l45 383h-142l6 61h220zM358 308q-26 0 -62.5 -15t-81.5 -54l-21 -163 q25 -9 50 -12.5t42 -3.5q34 0 61 13t45 35.5t27.5 53.5t9.5 67q0 39 -20 59t-50 20z" />
<glyph unicode="&#x44b;" horiz-adv-x="649" d="M172 487q-7 -54 -12.5 -101t-13.5 -87h4q37 25 78.5 47t91.5 22q57 0 87 -35.5t30 -101.5q0 -41 -11.5 -83t-38.5 -76.5t-70 -56.5t-106 -22q-15 0 -35 2t-42.5 6.5t-46 11.5t-44.5 17l-4 9q8 65 16 132t15 127.5t12.5 110t8.5 78.5h81zM285 304q-26 0 -62.5 -15 t-81.5 -54l-21 -163q25 -9 50 -12.5t42 -3.5q34 0 61 13t45 35.5t27.5 53.5t9.5 67q0 39 -20 59t-50 20zM485 0l59 487h80l-60 -487h-79z" />
<glyph unicode="&#x44c;" horiz-adv-x="474" d="M172 487q-7 -54 -12.5 -101t-13.5 -87h4q37 25 78.5 47t91.5 22q57 0 87 -35.5t30 -101.5q0 -41 -11.5 -83t-38.5 -76.5t-70 -56.5t-106 -22q-15 0 -35 2t-42.5 6.5t-46 11.5t-44.5 17l-4 9q8 65 16 132t15 127.5t12.5 110t8.5 78.5h81zM285 304q-26 0 -62.5 -15 t-81.5 -54l-21 -163q25 -9 50 -12.5t42 -3.5q34 0 61 13t45 35.5t27.5 53.5t9.5 67q0 39 -20 59t-50 20z" />
<glyph unicode="&#x44d;" horiz-adv-x="432" d="M145 -6q-42 0 -76 8.5t-58 22.5l21 52q33 -12 63 -16.5t49 -4.5q81 0 123 49t52 131l-198 -4l6 57l196 -6v12q0 72 -32 107t-92 35q-55 0 -133 -30l-18 50q91 44 168 44q40 0 74.5 -12.5t59 -37t38.5 -61.5t14 -86q0 -47 -10 -101.5t-38 -101t-78 -77t-131 -30.5z" />
<glyph unicode="&#x44e;" horiz-adv-x="680" d="M151 289h92q10 42 28 79.5t45.5 66.5t65.5 46t88 17q51 0 85 -16.5t54.5 -44.5t29 -64.5t8.5 -76.5q0 -50 -12 -104t-39.5 -98t-73.5 -72.5t-114 -28.5q-48 0 -81 14t-53.5 38t-30.5 56.5t-11 70.5v30.5t2 31.5h-89l-29 -234h-79l59 487h80zM466 435q-48 0 -78 -27.5 t-47.5 -67.5t-24 -85.5t-6.5 -80.5q0 -24 4.5 -45.5t16.5 -38.5t32.5 -27t52.5 -10q47 0 76.5 26.5t46 64.5t22.5 80.5t6 74.5q0 27 -4.5 51.5t-15.5 43t-31 30t-50 11.5z" />
<glyph unicode="&#x44f;" horiz-adv-x="452" d="M149 230q-45 12 -66 41.5t-21 69.5q0 42 15.5 72.5t42.5 49.5t64 28t79 9q37 0 84 -7.5t85 -20.5l-57 -472h-79l52 423q-19 8 -45 11t-44 3q-22 0 -42.5 -4.5t-36.5 -16t-26 -29.5t-10 -45q0 -22 7.5 -36.5t23.5 -24t41 -15.5t60 -11l-7 -55q-25 0 -43 -3t-31.5 -10.5 t-24.5 -21.5t-21 -35l-61 -130h-82l73 157q12 25 28.5 43.5t41.5 25.5v4z" />
<glyph unicode="&#x451;" horiz-adv-x="462" d="M295 500q34 0 59 -9.5t41.5 -26t25 -39t8.5 -47.5q0 -46 -23 -78.5t-64.5 -53.5t-99 -32.5t-125.5 -15.5q-1 -6 -1 -12.5v-12.5q0 -21 4 -42.5t16 -38.5t33 -28t54 -11q38 0 74.5 9t73.5 26l18 -48q-32 -20 -82 -33.5t-100 -13.5q-52 0 -85 15t-52 41.5t-26 61t-7 73.5 q0 49 11.5 104.5t41 102.5t79 78t126.5 31zM284 437q-71 0 -112 -50.5t-51 -138.5q113 5 172.5 34t59.5 87q0 30 -16 49t-53 19zM409 620q0 -22 -15.5 -36.5t-38.5 -14.5q-19 0 -29.5 12t-9.5 31q1 21 16.5 35.5t33.5 14.5q20 0 32 -11t11 -31zM228 620q-1 -22 -16 -36.5 t-38 -14.5q-19 0 -30.5 12t-10.5 31q1 21 17.5 35.5t33.5 14.5q20 0 32.5 -11t11.5 -31z" />
<glyph unicode="&#x452;" horiz-adv-x="505" d="M109 615l14 115h77q-4 -29 -7 -57.5t-6 -57.5h181l-4 -42h-181q-6 -51 -12 -95.5t-12 -74.5l3 -2q54 45 99.5 60.5t86.5 15.5q32 0 53.5 -15.5t34 -42t17.5 -61.5t5 -74q0 -75 -14 -137t-38 -106.5t-56 -69t-68 -24.5q-46 0 -92 30l22 41q22 -9 35.5 -11.5t24.5 -2.5 q25 0 45.5 21.5t35 59t22 88.5t7.5 110q0 55 -13 92.5t-48 37.5q-33 0 -77 -16t-89 -60l-39 -337h-80l68 573h-70l4 42h71z" />
<glyph unicode="&#x453;" horiz-adv-x="413" d="M249 538l-40 34l136 165l59 -56zM256 500q59 0 97 -25.5t38 -76.5q0 -29 -13.5 -53t-37.5 -44.5t-58 -39t-75 -36.5q-21 -9 -39.5 -20t-32.5 -24.5t-22 -30t-8 -35.5q0 -35 25.5 -49.5t64.5 -14.5q38 0 78.5 12t80.5 32l22 -45q-44 -30 -97 -44t-98 -14q-34 0 -62.5 6.5 t-48.5 20t-31.5 35.5t-11.5 54q0 33 15 59.5t38.5 47.5t53 38t60.5 31q19 9 40.5 19.5t38.5 23.5t28.5 28t11.5 32q0 16 -7 26.5t-17.5 16.5t-24 8t-26.5 2q-33 0 -68.5 -11t-73.5 -28l-22 47q37 23 84.5 37.5t97.5 14.5z" />
<glyph unicode="&#x454;" horiz-adv-x="434" d="M226 55q35 0 68 7.5t71 22.5l18 -50q-33 -17 -79.5 -29.5t-93.5 -12.5q-48 0 -80.5 13t-53 36t-29.5 56t-10 72q0 31 4 68t14.5 73t28.5 70t46 60t67.5 41.5t92.5 15.5q81 0 137 -37l-25 -50q-37 18 -64.5 21.5t-46.5 3.5q-66 0 -106 -43.5t-57 -113.5l194 4l-6 -55 l-197 2q-5 -28 -5 -51q0 -25 5.5 -47.5t19 -39.5t34.5 -27t53 -10z" />
<glyph unicode="&#x455;" horiz-adv-x="427" d="M39 84q43 -20 81 -25t64 -5q22 0 43.5 4t38 13t27 24t10.5 37t-9 36.5t-24.5 25t-36 18.5t-44.5 16q-24 9 -47 19.5t-41 24.5t-29 34t-11 49q0 38 15.5 65t41.5 44t59 25t69 8q15 0 33 -2t36.5 -6.5t36.5 -11t32 -15.5l-25 -52q-36 15 -63.5 19.5t-51.5 4.5 q-16 0 -34.5 -3t-34.5 -12t-26.5 -24t-10.5 -39q0 -15 10 -26t24.5 -19.5t31 -14.5t30.5 -11q22 -8 47 -17.5t46.5 -25.5t36 -39t14.5 -57q0 -42 -16.5 -71t-44 -47t-64.5 -26t-79 -8t-87 10.5t-73 27.5z" />
<glyph unicode="&#x456;" horiz-adv-x="239" d="M47 0l59 487h80l-60 -487h-79zM164 670q20 0 33.5 -14t13.5 -34q0 -23 -15.5 -40.5t-40.5 -17.5q-19 0 -32.5 13t-13.5 33q0 25 16 42.5t39 17.5z" />
<glyph unicode="&#x457;" horiz-adv-x="239" d="M47 0l59 487h80l-60 -487h-79zM110 613q-1 -22 -16 -36.5t-38 -14.5q-19 0 -30.5 12t-10.5 31q1 21 17.5 35.5t33.5 14.5q20 0 32.5 -11t11.5 -31zM291 613q0 -22 -15.5 -36.5t-38.5 -14.5q-19 0 -29.5 12t-9.5 31q1 21 16.5 35.5t33.5 14.5q20 0 32 -11t11 -31z" />
<glyph unicode="&#x458;" horiz-adv-x="270" d="M215 487q-3 -26 -7 -64t-9 -80t-9.5 -85t-9 -79t-7 -60.5t-3.5 -30.5q-7 -59 -19 -109.5t-35 -90.5t-61.5 -67.5t-97.5 -40.5l-17 57q47 18 75 43t43.5 55.5t22 66.5t11.5 76l44 409h79zM193 670q20 0 33.5 -14t13.5 -34q0 -23 -15.5 -40.5t-40.5 -17.5q-19 0 -32.5 13 t-13.5 33q0 25 16 42.5t39 17.5z" />
<glyph unicode="&#x459;" horiz-adv-x="751" d="M221 389q-8 -86 -19.5 -155t-34 -120.5t-61.5 -85t-103 -46.5l-18 60q43 17 70.5 40.5t45 62t27 96.5t18.5 145l10 102h291q-6 -60 -11 -104.5t-13 -84.5h4q37 25 78.5 47t91.5 22q57 0 87 -35.5t30 -101.5q0 -41 -11.5 -83t-38.5 -76.5t-70 -56.5t-106 -22q-15 0 -35 2 t-42.5 6.5t-46 11.5t-44.5 17l-4 9q6 52 12.5 106.5t12.5 105.5t11.5 97t9.5 82h-137zM562 304q-26 0 -62.5 -15t-81.5 -54l-21 -163q25 -9 50 -12.5t42 -3.5q34 0 61 13t45 35.5t27.5 53.5t9.5 67q0 39 -20 59t-50 20z" />
<glyph unicode="&#x45a;" horiz-adv-x="782" d="M480 487q-7 -54 -12.5 -101t-13.5 -87h4q37 25 78.5 47t91.5 22q57 0 87 -35.5t30 -101.5q0 -41 -11.5 -83t-38.5 -76.5t-70 -56.5t-106 -22q-15 0 -35 2t-42.5 6.5t-46 11.5t-44.5 17l-4 9q5 48 11 96l12 96h-227l-28 -231h-79l59 487h80l-25 -198h227q8 63 13.5 115 t8.5 83h81zM593 304q-26 0 -62.5 -15t-81.5 -54l-21 -163q25 -9 50 -12.5t42 -3.5q34 0 61 13t45 35.5t27.5 53.5t9.5 67q0 39 -20 59t-50 20z" />
<glyph unicode="&#x45b;" horiz-adv-x="505" d="M343 0l38 342q6 51 -9.5 70.5t-47.5 19.5q-33 0 -77.5 -19t-89.5 -63l-41 -350h-80l68 573h-70l5 42h70l14 115h79l-15 -115h179l-6 -42h-178q-6 -52 -10 -88.5t-11 -68.5l3 -2q50 46 102.5 65.5t87.5 19.5q39 0 61.5 -11t34 -30t13 -44t-1.5 -52l-40 -362h-78z" />
<glyph unicode="&#x45c;" horiz-adv-x="480" d="M470 488l-49 -131q-14 -36 -32.5 -62t-47.5 -34v-6q16 -4 27 -12.5t17.5 -20.5t11 -27t7.5 -33l30 -162h-76l-25 144q-9 50 -33 68.5t-55 18.5h-102l-28 -231h-78l59 487h80l-25 -198h86q15 0 29.5 1.5t28 8t26 21t22.5 40.5l50 128h77zM267 538l-40 34l136 165l59 -56z " />
<glyph unicode="&#x45e;" horiz-adv-x="429" d="M195 57q4 9 24 54.5t48 110.5t60 140t61 141l68 -18q-61 -140 -126.5 -287.5t-126.5 -286.5q-25 -58 -61 -92t-91 -34q-11 1 -35 2.5t-66 14.5l17 57q26 -6 43 -8.5t33 -2.5q28 0 50 14t39 54l38 87h-40q-23 122 -45 243t-45 242h79q9 -53 20 -118.5t21.5 -127.5 t18.5 -112.5t11 -72.5h5zM256 551q-26 0 -47 9.5t-38.5 25.5t-32 36t-26.5 41l49 34q23 -38 50.5 -60.5t55.5 -22.5q9 0 22 1.5t30.5 9t41 23t53.5 42.5l23 -25q-50 -63 -96.5 -88.5t-84.5 -25.5z" />
<glyph unicode="&#x45f;" horiz-adv-x="479" d="M158 488l-40 -351q-1 -6 -1 -11.5v-10.5q0 -34 15.5 -46.5t49.5 -12.5q33 0 73 19t85 63l43 350h76q-8 -61 -15 -120l-14 -118t-14 -121t-14 -129h-72l8 68l-3 2q-54 -45 -101 -63t-82 -18q-33 0 -55 8.5t-35 22.5t-18.5 33.5t-5.5 41.5q0 8 0.5 15.5t1.5 15.5l40 362h78 zM260 -5q12 -4 24.5 -7t24.5 -8q-5 -23 -10 -44.5t-9.5 -43t-9 -44t-9.5 -48.5l-60 -2l-6 10q12 56 25 99.5t30 87.5z" />
<glyph unicode="&#x490;" horiz-adv-x="501" d="M53 0l83 684h338l15 115h62l-22 -182h-319l-75 -617h-82z" />
<glyph unicode="&#x491;" horiz-adv-x="396" d="M36 0l60 488h273l13 111h61l-21 -171h-254l-52 -428h-80z" />
<glyph unicode="&#x4d9;" horiz-adv-x="462" d="M170 -7q-34 0 -59 9.5t-41.5 26t-25 39t-8.5 47.5q0 46 23 78t64.5 53.5t98.5 33t126 15.5q1 5 1 12v13q0 21 -4.5 42.5t-16 38.5t-32.5 28t-54 11q-38 0 -74.5 -9t-73.5 -26l-19 48q16 10 37 18.5t45 15t50 10t51 3.5q52 0 85 -15.5t52 -42t26 -61.5t7 -74 q0 -49 -12 -104t-41 -101.5t-79 -77.5t-126 -31zM181 56q71 0 112 50.5t51 138.5q-113 -6 -172.5 -35t-59.5 -86q0 -30 16 -49t53 -19z" />
<glyph unicode="&#x2000;" horiz-adv-x="456" />
<glyph unicode="&#x2001;" horiz-adv-x="912" />
<glyph unicode="&#x2002;" horiz-adv-x="456" />
<glyph unicode="&#x2003;" horiz-adv-x="912" />
<glyph unicode="&#x2004;" horiz-adv-x="304" />
<glyph unicode="&#x2005;" horiz-adv-x="228" />
<glyph unicode="&#x2006;" horiz-adv-x="152" />
<glyph unicode="&#x2007;" horiz-adv-x="152" />
<glyph unicode="&#x2008;" horiz-adv-x="114" />
<glyph unicode="&#x2009;" horiz-adv-x="182" />
<glyph unicode="&#x200a;" horiz-adv-x="50" />
<glyph unicode="&#x2010;" horiz-adv-x="355" d="M54 230l9 68h251l-9 -68h-251z" />
<glyph unicode="&#x2011;" horiz-adv-x="355" d="M54 230l9 68h251l-9 -68h-251z" />
<glyph unicode="&#x2012;" horiz-adv-x="355" d="M54 230l9 68h251l-9 -68h-251z" />
<glyph unicode="&#x2013;" horiz-adv-x="485" d="M32 226l8 60h427l-7 -60h-428z" />
<glyph unicode="&#x2014;" horiz-adv-x="970" d="M35 226l8 60h899l-7 -60h-900z" />
<glyph unicode="&#x2018;" horiz-adv-x="209" d="M143 493q-23 0 -36.5 15.5t-13.5 39.5q0 22 9.5 46t26 46.5t38 41.5t45.5 30l16 -27q-21 -18 -35.5 -39.5t-19.5 -48.5q30 -13 30 -47q0 -22 -18.5 -39.5t-41.5 -17.5z" />
<glyph unicode="&#x2019;" horiz-adv-x="209" d="M174 712q23 0 36.5 -15t13.5 -38q0 -22 -9 -46.5t-25 -47t-38 -41.5t-47 -31l-16 27q45 36 55 88q-28 11 -28 42q0 23 15.5 42.5t42.5 19.5z" />
<glyph unicode="&#x201a;" horiz-adv-x="204" d="M85 98q24 0 37.5 -17.5t11.5 -44.5q-2 -21 -12 -42.5t-25.5 -41t-35.5 -36t-42 -26.5l-16 26q20 18 34 36t20 44q-33 10 -30 47q2 22 18.5 38.5t39.5 16.5z" />
<glyph unicode="&#x201c;" horiz-adv-x="333" d="M237 493q-23 0 -36 15.5t-13 39.5q0 22 9.5 46t25.5 46.5t37.5 41t45.5 30.5l17 -27q-22 -18 -36 -39.5t-20 -48.5q29 -11 29 -44q0 -23 -16.5 -41.5t-42.5 -18.5zM107 493q-23 0 -36.5 15.5t-13.5 39.5q0 22 9.5 46t26 46.5t38 41.5t45.5 30l16 -27q-22 -18 -36 -39.5 t-19 -48.5q30 -13 30 -47q0 -22 -18.5 -39.5t-41.5 -17.5z" />
<glyph unicode="&#x201d;" horiz-adv-x="333" d="M303 712q23 0 36.5 -15.5t13.5 -39.5q0 -22 -9 -46t-25 -46.5t-37.5 -41t-46.5 -30.5l-16 27q22 18 36 39.5t19 48.5q-28 11 -28 42q0 23 15.5 42.5t41.5 19.5zM174 712q23 0 36.5 -15t13.5 -38q0 -22 -9 -46.5t-25 -47t-37.5 -41.5t-46.5 -31l-17 27q45 36 55 88 q-28 11 -28 42q0 23 15.5 42.5t42.5 19.5z" />
<glyph unicode="&#x201e;" horiz-adv-x="331" d="M252 98q24 0 37.5 -17.5t11.5 -44.5q-2 -21 -12 -42.5t-26 -41t-35.5 -36t-41.5 -26.5l-17 26q22 18 35.5 36t18.5 44q-15 5 -23 17.5t-6 29.5q2 22 18.5 38.5t39.5 16.5zM123 98q24 0 37.5 -17.5t11.5 -44.5q-2 -21 -12 -42.5t-25.5 -41t-35.5 -36t-42 -26.5l-16 26 q21 18 34.5 36t19.5 44q-34 10 -29 47q1 22 17.5 38.5t39.5 16.5z" />
<glyph unicode="&#x2022;" horiz-adv-x="313" d="M269 285q0 -24 -9.5 -45.5t-25.5 -38t-37 -26t-44 -9.5q-41 0 -68 29t-27 70q0 24 10 45.5t26 37.5t37 25.5t43 9.5q41 0 68 -28t27 -70z" />
<glyph unicode="&#x2026;" horiz-adv-x="619" d="M83 97q22 0 35 -15t11 -36q-2 -23 -19.5 -39.5t-38.5 -16.5t-34 15t-11 37q1 23 18 39t39 16zM465 97q21 0 34 -15t11 -36q-2 -23 -20 -39.5t-38 -16.5q-21 0 -34.5 15t-11.5 37q2 23 19.5 39t39.5 16zM269 97q22 0 35 -15t11 -36q-2 -23 -19.5 -39.5t-39.5 -16.5 q-20 0 -33.5 15t-11.5 37q2 23 19 39t39 16z" />
<glyph unicode="&#x202f;" horiz-adv-x="182" />
<glyph unicode="&#x2030;" horiz-adv-x="1172" d="M241 670q41 0 67.5 -13.5t41.5 -35t21 -49.5t6 -57q0 -39 -8 -83.5t-28 -82t-55.5 -62.5t-89.5 -25q-41 0 -68 12t-43 33t-22.5 48t-6.5 57q0 19 2.5 45.5t10 55t20 56.5t33 50.5t50 36.5t69.5 14zM240 617q-28 0 -47.5 -12.5t-33 -32.5t-21 -44.5t-11.5 -48t-5 -43 t-1 -29.5q0 -42 17 -67.5t64 -25.5q33 0 54 19t33.5 48t17.5 63t5 64q0 20 -3 39.5t-10.5 35t-22 25t-36.5 9.5zM291 -22h-55l380 723h53zM688 404q41 0 67.5 -13.5t41.5 -35t21 -49.5t6 -56q0 -40 -8 -85t-28 -82.5t-55.5 -62t-89.5 -24.5q-41 0 -68 12t-43 32.5 t-22.5 47.5t-6.5 57q0 19 2.5 45.5t10 55.5t20 57t33 50.5t50 36.5t69.5 14zM687 351q-42 0 -66 -27t-35.5 -62.5t-14.5 -70.5t-3 -51q0 -40 17 -65.5t64 -25.5q33 0 54 19t33.5 47.5t17.5 62.5t5 64q0 19 -3 38.5t-10.5 35.5t-22 25.5t-36.5 9.5zM1060 404q41 0 67.5 -13.5 t41.5 -35t21 -49.5t6 -56q0 -40 -8 -85t-28 -82.5t-55.5 -62t-89.5 -24.5q-41 0 -68 12t-43 32.5t-22.5 47.5t-6.5 57q0 19 2.5 45.5t10 55.5t20 57t33 50.5t50 36.5t69.5 14zM1059 351q-42 0 -66 -27t-35.5 -62.5t-14.5 -70.5t-3 -51q0 -40 17 -65.5t64 -25.5q33 0 54 19 t33.5 47.5t17.5 62.5t5 64q0 19 -3 38.5t-10.5 35.5t-22 25.5t-36.5 9.5z" />
<glyph unicode="&#x2039;" horiz-adv-x="305" d="M60 208l162 159l28 -26l-117 -154l80 -152l-35 -24l-123 158z" />
<glyph unicode="&#x203a;" horiz-adv-x="305" d="M230 169l-163 -158l-27 27l116 152l-78 153l34 24l123 -159z" />
<glyph unicode="&#x2044;" horiz-adv-x="107" d="M-83 -22h-55l380 723h53z" />
<glyph unicode="&#x205f;" horiz-adv-x="228" />
<glyph unicode="&#x2070;" horiz-adv-x="364" d="M225 760q41 0 67.5 -13.5t41.5 -35t21 -49.5t6 -57q0 -39 -8 -83.5t-28 -82t-55.5 -62.5t-89.5 -25q-41 0 -68 12t-43 33t-22.5 48t-6.5 57q0 19 2.5 45.5t10 55t20 56.5t33 50.5t50 36.5t69.5 14zM224 707q-28 0 -47.5 -12.5t-33 -32.5t-21 -44.5t-11.5 -48t-5 -43 t-1 -29.5q0 -42 17 -67.5t64 -25.5q33 0 54 19t33.5 48t17.5 63t5 64q0 20 -3 39.5t-10.5 35t-22 25t-36.5 9.5z" />
<glyph unicode="&#x2074;" horiz-adv-x="364" d="M291 466l-13 -111h-64l13 111h-196l4 43q57 61 94.5 101.5l62.5 67.5t41 44.5t30 32.5h62l-28 -238h58q-2 -12 -2.5 -25.5t-1.5 -25.5h-60zM251 677l-144 -160h125l22 159z" />
<glyph unicode="&#x2075;" horiz-adv-x="364" d="M189 562q-14 0 -33 -4.5t-41 -15.5l-34 26l23 187h240l-5 -53l-180 1l-15 -101q16 5 30 7.5t34 2.5q24 0 47 -6t41 -19.5t29 -34.5t11 -50q0 -39 -14.5 -67t-38.5 -46.5t-55 -27.5t-64 -9q-35 0 -69.5 5.5t-64.5 20.5l23 49q43 -14 65.5 -17t38.5 -3q50 0 81 21.5 t31 68.5q0 32 -22.5 48.5t-57.5 16.5z" />
<glyph unicode="&#x2076;" horiz-adv-x="364" d="M243 708q-29 0 -49.5 -12.5t-34.5 -30.5t-22.5 -39t-12.5 -37q19 10 44.5 16.5t54.5 6.5q24 0 45 -6.5t37.5 -19.5t26 -34t9.5 -49q0 -69 -44.5 -110t-117.5 -41q-38 0 -63 10.5t-40 29.5t-21.5 45t-6.5 56q0 55 12.5 104t37 85.5t61.5 57.5t86 21q35 0 60 -8t37 -14 l-18 -48q-29 11 -48 14t-33 3zM210 559q-34 0 -60.5 -11t-32.5 -16q-2 -9 -3 -19.5t-1 -21.5q0 -15 3 -30t11.5 -27.5t22.5 -20t35 -7.5q45 0 67.5 26.5t22.5 65.5q0 27 -14 44t-51 17z" />
<glyph unicode="&#x2077;" horiz-adv-x="364" d="M352 710l-213 -355h-69l209 348l-192 -1l5 53h253l7 -44v-1z" />
<glyph unicode="&#x2078;" horiz-adv-x="364" d="M224 709q-21 0 -35.5 -5.5t-23.5 -14t-13 -18.5t-4 -18q0 -11 8 -20.5t20.5 -17t27 -13.5t27.5 -12q33 19 45.5 37t12.5 34q0 18 -14 33t-51 15zM183 397q46 0 68 22.5t22 48.5q0 30 -24.5 50.5t-72.5 37.5q-37 -22 -52 -49.5t-15 -47.5q0 -23 16 -42.5t58 -19.5z M232 762q21 0 42 -5t37.5 -15.5t27 -28t10.5 -41.5q0 -29 -13.5 -55t-50.5 -51q22 -14 36 -37t14 -53q0 -27 -12 -50.5t-33 -40t-50.5 -26t-63.5 -9.5q-65 0 -98 30.5t-33 72.5q0 31 19 66.5t63 61.5q-22 12 -31 29.5t-9 37.5t10 40.5t28.5 37t45.5 26.5t61 10z" />
<glyph unicode="&#x2079;" horiz-adv-x="364" d="M153 405q28 0 49 12.5t35 31t23 39t13 36.5q-20 -10 -43.5 -16t-55.5 -6q-24 0 -45.5 6t-38 18.5t-26 33t-9.5 49.5q0 34 12 62t34 48t51.5 31t65.5 11q37 0 62 -11t40.5 -30t22 -45.5t6.5 -56.5q0 -55 -12 -103.5t-36.5 -85t-61.5 -57.5t-87 -21q-34 0 -62 8.5t-40 14.5 l18 48q29 -11 50 -14t35 -3zM187 553q18 0 34 3.5t28.5 8t20.5 8.5l10 5q3 22 3 41q0 14 -3 29.5t-11 28t-22 20.5t-36 8q-45 0 -68 -25.5t-23 -65.5q0 -28 14.5 -44.5t52.5 -16.5z" />
<glyph unicode="&#x207a;" horiz-adv-x="361" d="M212 516l-12 -98h-46l12 98h-105l5 42h105l11 95h46l-11 -95h104l-5 -42h-104z" />
<glyph unicode="&#x207b;" horiz-adv-x="237" d="M52 493l6 47h173l-6 -47h-173z" />
<glyph unicode="&#x207c;" horiz-adv-x="361" d="M67 560l5 41h266l-4 -41h-267zM57 476l5 40h267l-5 -40h-267z" />
<glyph unicode="&#x207d;" horiz-adv-x="187" d="M213 764q-9 -11 -26.5 -37t-35 -64.5t-30 -89t-12.5 -110.5q0 -65 14 -104.5t25 -64.5q2 -4 3.5 -7.5t3.5 -7.5l-35 -22q-8 8 -19.5 27t-22.5 47t-19 63t-8 75q0 63 14.5 114t35 90.5t43 67t37.5 44.5z" />
<glyph unicode="&#x207e;" horiz-adv-x="187" d="M-5 278q9 11 26 36t34 63.5t30 89.5t13 114q0 36 -5 65.5t-12.5 53t-15.5 39.5t-13 25l35 22q9 -13 21.5 -33t23.5 -47t18.5 -61t7.5 -74q0 -63 -16 -114.5t-38 -91.5t-44 -67.5t-35 -40.5z" />
<glyph unicode="&#x207f;" horiz-adv-x="350" d="M245 270l29 231q3 21 -5 33.5t-34 12.5q-22 0 -49 -11.5t-56 -37.5l-28 -228h-64l40 322h63l-6 -34l3 -2q33 23 64 33t53 10q26 0 43 -7t26.5 -19.5t12 -29.5t0.5 -37l-28 -236h-64z" />
<glyph unicode="&#x2080;" horiz-adv-x="364" d="M205 314q41 0 67.5 -13.5t41.5 -35t21 -49.5t6 -56q0 -40 -8 -85t-28 -82.5t-55.5 -62t-89.5 -24.5q-41 0 -68 12t-43 32.5t-22.5 47.5t-6.5 57q0 19 2.5 45.5t10 55.5t20 57t33 50.5t50 36.5t69.5 14zM204 261q-42 0 -66 -27t-35.5 -62.5t-14.5 -70.5t-3 -51 q0 -40 17 -65.5t64 -25.5q33 0 54 19t33.5 47.5t17.5 62.5t5 64q0 19 -3 38.5t-10.5 35.5t-22 25.5t-36.5 9.5z" />
<glyph unicode="&#x2081;" horiz-adv-x="364" d="M179 244l-100 -15l-4 46l119 35h57l-47 -400h-67z" />
<glyph unicode="&#x2082;" horiz-adv-x="364" d="M12 -90l4 45q21 17 46.5 37t51.5 41.5t50.5 44t43.5 44.5t30.5 43.5t11.5 40.5q0 29 -18.5 41t-50.5 12q-14 0 -41 -5.5t-69 -29.5l-26 45q46 29 83.5 38t62.5 9q55 0 90.5 -24.5t35.5 -76.5q0 -36 -21 -71t-52 -67t-67 -61t-67 -53h195l-5 -53h-288z" />
<glyph unicode="&#x2083;" horiz-adv-x="364" d="M241 133q37 -11 54.5 -36t17.5 -56q0 -28 -12.5 -52.5t-35 -43t-55 -29.5t-72.5 -11q-43 0 -76.5 7.5t-53.5 18.5l19 47q43 -16 66.5 -18.5t41.5 -2.5q22 0 42 5.5t35.5 15.5t24.5 25t9 33q0 34 -23.5 49t-60.5 15q-10 0 -20.5 -1t-24.5 -3l-7 46q68 12 102.5 34.5 t34.5 46.5q0 16 -15 26.5t-50 10.5q-17 0 -44.5 -5t-65.5 -21l-19 42q37 20 73.5 28.5t65.5 8.5q63 0 91.5 -24.5t28.5 -56.5q0 -27 -18 -54.5t-53 -40.5v-4z" />
<glyph unicode="&#x2084;" horiz-adv-x="364" d="M269 18q-3 -26 -6.5 -53.5t-5.5 -54.5h-63l12 108h-196l4 44q57 62 114 123.5t114 123.5h62q-8 -60 -15 -120l-14 -120h59l-4 -51h-61zM225 223l-138 -154h124l20 155z" />
<glyph unicode="&#x2085;" horiz-adv-x="364" d="M171 116q-15 0 -33.5 -4t-41.5 -15l-34 26l24 187h240l-5 -54h-180q-3 -26 -7 -49.5t-7 -49.5q14 4 30.5 6.5t32.5 2.5q24 0 47 -6t41.5 -19.5t29.5 -34.5t11 -51q0 -38 -14.5 -66.5t-39 -47t-55.5 -27.5t-64 -9q-35 0 -69 6t-65 22l23 50q42 -14 64.5 -17.5t38.5 -3.5 q51 0 82 22t31 67q0 33 -22.5 49t-57.5 16z" />
<glyph unicode="&#x2086;" horiz-adv-x="364" d="M227 262q-29 0 -50 -12.5t-35 -31t-22 -39t-12 -36.5q19 10 44 16.5t54 6.5q24 0 45.5 -6.5t38 -20t26 -34.5t9.5 -50q0 -33 -12 -60.5t-33 -47t-51 -30.5t-66 -11q-38 0 -63 10.5t-40 29.5t-21.5 44.5t-6.5 55.5q0 55 12.5 104t37 86t61 58.5t85.5 21.5q35 0 60.5 -8.5 t37.5 -14.5l-19 -49q-28 11 -47 14.5t-33 3.5zM193 113q-17 0 -33.5 -4t-29 -8.5t-21 -8.5t-9.5 -5q-4 -20 -4 -43q0 -15 3 -30t11.5 -27t22.5 -19.5t35 -7.5q45 0 68 26.5t23 64.5q0 28 -14 45t-52 17z" />
<glyph unicode="&#x2087;" horiz-adv-x="364" d="M342 264l-213 -354h-69l208 346h-193l6 53h254l7 -44v-1z" />
<glyph unicode="&#x2088;" horiz-adv-x="364" d="M207 265q-21 0 -35.5 -5.5t-23.5 -14t-13 -18.5t-4 -18q0 -11 8 -20.5t20.5 -17t27 -13.5t27.5 -12q33 19 45.5 37t12.5 34q0 18 -14 33t-51 15zM166 -47q46 0 68 22.5t22 48.5q0 30 -24.5 50.5t-72.5 37.5q-37 -22 -52 -49.5t-15 -47.5q0 -23 16 -42.5t58 -19.5z M215 318q21 0 42 -5t37.5 -15.5t27 -28t10.5 -41.5q0 -29 -13.5 -55t-50.5 -51q22 -14 36 -37t14 -53q0 -27 -12 -50.5t-33 -40t-50.5 -26t-63.5 -9.5q-65 0 -98 30.5t-33 72.5q0 31 19 66.5t63 61.5q-22 12 -31 29.5t-9 37.5t10 40.5t28.5 37t45.5 26.5t61 10z" />
<glyph unicode="&#x2089;" horiz-adv-x="364" d="M133 -41q28 0 49 12t35.5 30t23.5 38.5t13 37.5q-20 -10 -43.5 -16.5t-55.5 -6.5q-24 0 -45.5 6t-38 19.5t-26 34t-9.5 49.5q0 34 12 62t34 48t51.5 31t65.5 11q37 0 62 -11t40.5 -30.5t22 -46t6.5 -56.5q0 -55 -12 -103.5t-36.5 -84.5t-61.5 -56.5t-87 -20.5 q-34 0 -62 8t-41 14l19 49q28 -11 49 -14.5t35 -3.5zM168 107q16 0 31.5 3.5t28 8t21.5 8.5t12 6q3 22 3 40q0 14 -3 29t-11 28t-22 21t-36 8q-45 0 -68 -26t-23 -65q0 -28 14.5 -44.5t52.5 -16.5z" />
<glyph unicode="&#x208a;" horiz-adv-x="361" d="M199 68l-12 -99h-47l12 99h-104l5 41h104l11 95h47l-12 -95h105l-5 -41h-104z" />
<glyph unicode="&#x208b;" horiz-adv-x="237" d="M24 44l6 48h173l-6 -48h-173z" />
<glyph unicode="&#x208c;" horiz-adv-x="361" d="M42 112l5 40h267l-5 -40h-267zM32 27l5 41h267l-5 -41h-267z" />
<glyph unicode="&#x208d;" horiz-adv-x="187" d="M198 335q-9 -11 -26.5 -37t-35 -64.5t-30 -89t-12.5 -110.5q0 -65 14 -104.5t25 -64.5q2 -4 3.5 -7.5t3.5 -7.5l-35 -22q-8 8 -19.5 27t-22.5 47t-19 63t-8 75q0 63 14.5 114t35 90.5t43 67t37.5 44.5z" />
<glyph unicode="&#x208e;" horiz-adv-x="187" d="M-20 -151q9 11 26 36t34 63.5t30 89.5t13 114q0 36 -5 65.5t-12.5 53t-15.5 39.5t-13 25l35 22q9 -13 21.5 -33t23.5 -47t18.5 -61t7.5 -74q0 -63 -16 -114.5t-38 -91.5t-44 -67.5t-35 -40.5z" />
<glyph unicode="&#x20ac;" horiz-adv-x="541" d="M450 310l-5 -41h-280v-20q0 -41 9.5 -76t30.5 -60.5t55.5 -39.5t84.5 -14q11 0 23.5 0.5t28.5 3t37.5 6.5t50.5 11l13 -60q-33 -12 -81 -19.5t-91 -7.5q-62 0 -107 18.5t-74 51.5t-43 79t-14 101q0 6 0.5 12.5t0.5 13.5h-48l5 41h404zM51 358l5 41h48q7 54 28.5 104 t57.5 87.5t87.5 60t119.5 22.5q49 0 84 -6.5t67 -20.5l-22 -61q-42 16 -79.5 19.5t-54.5 3.5q-86 0 -139 -53.5t-71 -155.5h278l-5 -41h-404z" />
<glyph unicode="&#x2105;" horiz-adv-x="797" d="M143 510q-2 -27 -0.5 -50t9.5 -40.5t23 -27t41 -9.5t49.5 5.5t49.5 15.5l16 -42q-24 -14 -59 -22.5t-67 -8.5q-41 0 -67 13.5t-40 37t-18 55t-2 67.5q2 29 12 61t30.5 59t52.5 44.5t79 17.5q23 0 45.5 -3.5t48.5 -15.5l-18 -45q-24 9 -42.5 11.5t-35.5 2.5q-45 0 -74 -33 t-33 -93zM626 354q36 0 61.5 -11.5t41 -31t23 -45.5t7.5 -55q0 -35 -8 -73t-27.5 -69.5t-52.5 -52.5t-84 -21q-36 0 -61 10.5t-40.5 29.5t-22.5 43.5t-7 53.5q0 38 8.5 77.5t28.5 71.5t52.5 52.5t80.5 20.5zM624 300q-32 0 -52.5 -18.5t-31.5 -45.5t-15 -57.5t-4 -53.5 q0 -30 16 -54t56 -24q31 0 50.5 16.5t30 41t14.5 52t4 49.5q0 18 -3 35t-10.5 30t-20.5 21t-34 8zM622 701q-96 -182 -190 -362t-189 -361h-55q96 181 190 361t190 362h54z" />
<glyph unicode="&#x2116;" horiz-adv-x="954" d="M466 139l66 545h80l-83 -684h-81l-245 557l-4 -1l-68 -556h-78l83 684h82l244 -545h4zM634 249l6 58h288l-7 -58h-287zM818 635q-33 0 -53 -17.5t-31 -42.5t-15 -53.5t-4 -50.5q0 -29 15.5 -51.5t56.5 -22.5q31 0 50.5 15.5t30 38t14.5 48.5t4 47q0 17 -3 33t-10.5 28.5 t-20.5 20t-34 7.5zM821 682q36 0 60.5 -10.5t39.5 -28.5t21.5 -42t6.5 -50q0 -32 -7.5 -67.5t-26.5 -65.5t-51.5 -49.5t-82.5 -19.5q-36 0 -60.5 10.5t-39.5 28t-21.5 41.5t-6.5 51q0 35 9 71t29 65t52 47.5t78 18.5z" />
<glyph unicode="&#x2122;" horiz-adv-x="729" d="M636 593l-43 -90q-11 -23 -21.5 -45.5t-21.5 -45.5h-42l-42 88l-42 88h-1v-231h-52v327h56l42 -88q15 -32 30 -63.5t31 -63.5l30 64t31 64q10 23 20.5 44l21.5 43h56v-327h-51v236h-2zM226 642v-284h-54v284h-103v42h263v-42h-106z" />
<glyph unicode="&#x2153;" horiz-adv-x="800" d="M707 223q37 -11 54.5 -36t17.5 -56q0 -28 -12.5 -52.5t-35 -43t-55 -29.5t-72.5 -11q-43 0 -76.5 7.5t-53.5 18.5l19 47q43 -16 66.5 -18.5t41.5 -2.5q22 0 42 5.5t35.5 15.5t24.5 25t9 33q0 34 -23.5 49t-60.5 15q-10 0 -20.5 -1t-24.5 -3l-7 46q68 12 102.5 34.5 t34.5 46.5q0 16 -15 26.5t-50 10.5q-17 0 -44.5 -5t-65.5 -21l-19 42q37 20 73.5 28.5t65.5 8.5q63 0 91.5 -24.5t28.5 -56.5q0 -27 -18 -54.5t-53 -40.5v-4zM254 -22h-55l380 723h53zM221 601l-100 -14l-3 44l118 34h58l-46 -399h-67z" />
<glyph unicode="&#x2154;" horiz-adv-x="800" d="M311 -22h-55l380 723h53zM52 265l5 46q30 25 70.5 56.5t76.5 65.5t61.5 67.5t25.5 62.5t-18.5 40.5t-50.5 11.5q-14 0 -41 -5.5t-69 -28.5l-26 43q47 30 84.5 38.5t61.5 8.5q55 0 90.5 -24t35.5 -74q0 -37 -20.5 -72t-52 -67.5t-68 -61.5t-67.5 -53h195l-4 -54h-289z M756 223q37 -11 54.5 -36t17.5 -56q0 -28 -12.5 -52.5t-35 -43t-55 -29.5t-72.5 -11q-43 0 -76.5 7.5t-53.5 18.5l19 47q43 -16 66.5 -18.5t41.5 -2.5q22 0 42 5.5t35.5 15.5t24.5 25t9 33q0 34 -23.5 49t-60.5 15q-10 0 -20.5 -1t-24.5 -3l-7 46q68 12 102.5 34.5 t34.5 46.5q0 16 -15 26.5t-50 10.5q-17 0 -44.5 -5t-65.5 -21l-19 42q37 20 73.5 28.5t65.5 8.5q63 0 91.5 -24.5t28.5 -56.5q0 -27 -18 -54.5t-53 -40.5v-4z" />
<glyph unicode="&#x2155;" horiz-adv-x="800" d="M648 206q-15 0 -33.5 -4t-41.5 -15l-34 26l24 187h240l-5 -54h-180q-3 -26 -7 -49.5t-7 -49.5q14 4 30.5 6.5t32.5 2.5q24 0 47 -6t41.5 -19.5t29.5 -34.5t11 -51q0 -38 -14.5 -66.5t-39 -47t-55.5 -27.5t-64 -9q-35 0 -69 6t-65 22l23 50q42 -14 64.5 -17.5t38.5 -3.5 q51 0 82 22t31 67q0 33 -22.5 49t-57.5 16zM263 -22h-55l380 723h53zM219 601l-100 -14l-3 44l118 34h58l-46 -399h-67z" />
<glyph unicode="&#x2156;" horiz-adv-x="800" d="M304 -22h-55l380 723h53zM52 265l5 46q30 25 70.5 56.5t76.5 65.5t61.5 67.5t25.5 62.5t-18.5 40.5t-50.5 11.5q-14 0 -41 -5.5t-69 -28.5l-26 43q47 30 84.5 38.5t61.5 8.5q55 0 90.5 -24t35.5 -74q0 -37 -20.5 -72t-52 -67.5t-68 -61.5t-67.5 -53h195l-4 -54h-289z M673 206q-15 0 -33.5 -4t-41.5 -15l-34 26l24 187h240l-5 -54h-180q-3 -26 -7 -49.5t-7 -49.5q14 4 30.5 6.5t32.5 2.5q24 0 47 -6t41.5 -19.5t29.5 -34.5t11 -51q0 -38 -14.5 -66.5t-39 -47t-55.5 -27.5t-64 -9q-35 0 -69 6t-65 22l23 50q42 -14 64.5 -17.5t38.5 -3.5 q51 0 82 22t31 67q0 33 -22.5 49t-57.5 16z" />
<glyph unicode="&#x2157;" horiz-adv-x="800" d="M291 -22h-55l380 723h53zM294 489q37 -11 54.5 -36t17.5 -56q0 -28 -12.5 -52.5t-35 -43t-55 -29.5t-72.5 -11q-43 0 -76.5 7.5t-53.5 18.5l19 47q43 -16 66.5 -18.5t41.5 -2.5q22 0 42 5.5t35.5 15.5t24.5 25t9 33q0 34 -23.5 49t-60.5 15q-10 0 -20.5 -1t-24.5 -3 l-7 46q68 12 102.5 34.5t34.5 46.5q0 16 -15 26.5t-50 10.5q-17 0 -44.5 -5t-65.5 -21l-19 42q37 20 73.5 28.5t65.5 8.5q63 0 91.5 -24.5t28.5 -56.5q0 -27 -18 -54.5t-53 -40.5v-4zM663 206q-15 0 -33.5 -4t-41.5 -15l-34 26l24 187h240l-5 -54h-180q-3 -26 -7 -49.5 t-7 -49.5q14 4 30.5 6.5t32.5 2.5q24 0 47 -6t41.5 -19.5t29.5 -34.5t11 -51q0 -38 -14.5 -66.5t-39 -47t-55.5 -27.5t-64 -9q-35 0 -69 6t-65 22l23 50q42 -14 64.5 -17.5t38.5 -3.5q51 0 82 22t31 67q0 33 -22.5 49t-57.5 16z" />
<glyph unicode="&#x2158;" horiz-adv-x="800" d="M308 376l-13 -111h-64l13 111h-196l4 43q57 61 94.5 101.5l62.5 67.5t41 44.5t30 32.5h62l-28 -238h58q-2 -12 -2.5 -25.5t-1.5 -25.5h-60zM677 206q-15 0 -33.5 -4t-41.5 -15l-34 26l24 187h240l-5 -54h-180q-3 -26 -7 -49.5t-7 -49.5q14 4 30.5 6.5t32.5 2.5 q24 0 47 -6t41.5 -19.5t29.5 -34.5t11 -51q0 -38 -14.5 -66.5t-39 -47t-55.5 -27.5t-64 -9q-35 0 -69 6t-65 22l23 50q42 -14 64.5 -17.5t38.5 -3.5q51 0 82 22t31 67q0 33 -22.5 49t-57.5 16zM311 -22h-55l380 723h53zM268 587l-144 -160h125l22 159z" />
<glyph unicode="&#x2159;" horiz-adv-x="800" d="M692 352q-29 0 -50 -12.5t-35 -31t-22 -39t-12 -36.5q19 10 44 16.5t54 6.5q24 0 45.5 -6.5t38 -20t26 -34.5t9.5 -50q0 -33 -12 -60.5t-33 -47t-51 -30.5t-66 -11q-38 0 -63 10.5t-40 29.5t-21.5 44.5t-6.5 55.5q0 55 12.5 104t37 86t61 58.5t85.5 21.5q35 0 60.5 -8.5 t37.5 -14.5l-19 -49q-28 11 -47 14.5t-33 3.5zM266 -22h-55l380 723h53zM232 601l-100 -14l-3 44l118 34h58l-46 -399h-67zM658 203q-17 0 -33.5 -4t-29 -8.5t-21 -8.5t-9.5 -5q-4 -20 -4 -43q0 -15 3 -30t11.5 -27t22.5 -19.5t35 -7.5q45 0 68 26.5t23 64.5q0 28 -14 45 t-52 17z" />
<glyph unicode="&#x215a;" horiz-adv-x="800" d="M711 352q-29 0 -50 -12.5t-35 -31t-22 -39t-12 -36.5q19 10 44 16.5t54 6.5q24 0 45.5 -6.5t38 -20t26 -34.5t9.5 -50q0 -33 -12 -60.5t-33 -47t-51 -30.5t-66 -11q-38 0 -63 10.5t-40 29.5t-21.5 44.5t-6.5 55.5q0 55 12.5 104t37 86t61 58.5t85.5 21.5q35 0 60.5 -8.5 t37.5 -14.5l-19 -49q-28 11 -47 14.5t-33 3.5zM229 472q-14 0 -33 -4.5t-41 -15.5l-34 26l23 187h240l-5 -53l-180 1l-15 -101q16 5 30 7.5t34 2.5q24 0 47 -6t41 -19.5t29 -34.5t11 -50q0 -39 -14.5 -67t-38.5 -46.5t-55 -27.5t-64 -9q-35 0 -69.5 5.5t-64.5 20.5l23 49 q43 -14 65.5 -17t38.5 -3q50 0 81 21.5t31 68.5q0 32 -22.5 48.5t-57.5 16.5zM303 -22h-55l380 723h53zM677 203q-17 0 -33.5 -4t-29 -8.5t-21 -8.5t-9.5 -5q-4 -20 -4 -43q0 -15 3 -30t11.5 -27t22.5 -19.5t35 -7.5q45 0 68 26.5t23 64.5q0 28 -14 45t-52 17z" />
<glyph unicode="&#x215b;" horiz-adv-x="800" d="M678 408q21 0 42 -5t37.5 -15.5t27 -28t10.5 -41.5q0 -29 -13.5 -55t-50.5 -51q22 -14 36 -37t14 -53q0 -27 -12 -50.5t-33 -40t-50.5 -26t-63.5 -9.5q-65 0 -98 30.5t-33 72.5q0 31 19 66.5t63 61.5q-22 12 -31 29.5t-9 37.5t10 40.5t28.5 37t45.5 26.5t61 10zM270 -22 h-55l380 723h53zM235 601l-100 -14l-3 44l118 34h58l-46 -399h-67zM629 43q46 0 68 22.5t22 48.5q0 30 -24.5 50.5t-72.5 37.5q-37 -22 -52 -49.5t-15 -47.5q0 -23 16 -42.5t58 -19.5zM670 355q-21 0 -35.5 -5.5t-23.5 -14t-13 -18.5t-4 -18q0 -11 8 -20.5t20.5 -17 t27 -13.5t27.5 -12q33 19 45.5 37t12.5 34q0 18 -14 33t-51 15z" />
<glyph unicode="&#x215c;" horiz-adv-x="800" d="M298 -22h-55l380 723h53zM307 489q37 -11 54.5 -36t17.5 -56q0 -28 -12.5 -52.5t-35 -43t-55 -29.5t-72.5 -11q-43 0 -76.5 7.5t-53.5 18.5l19 47q43 -16 66.5 -18.5t41.5 -2.5q22 0 42 5.5t35.5 15.5t24.5 25t9 33q0 34 -23.5 49t-60.5 15q-10 0 -20.5 -1t-24.5 -3 l-7 46q68 12 102.5 34.5t34.5 46.5q0 16 -15 26.5t-50 10.5q-17 0 -44.5 -5t-65.5 -21l-19 42q37 20 73.5 28.5t65.5 8.5q63 0 91.5 -24.5t28.5 -56.5q0 -27 -18 -54.5t-53 -40.5v-4zM679 355q-21 0 -35.5 -5.5t-23.5 -14t-13 -18.5t-4 -18q0 -11 8 -20.5t20.5 -17t27 -13.5 t27.5 -12q33 19 45.5 37t12.5 34q0 18 -14 33t-51 15zM638 43q46 0 68 22.5t22 48.5q0 30 -24.5 50.5t-72.5 37.5q-37 -22 -52 -49.5t-15 -47.5q0 -23 16 -42.5t58 -19.5zM687 408q21 0 42 -5t37.5 -15.5t27 -28t10.5 -41.5q0 -29 -13.5 -55t-50.5 -51q22 -14 36 -37t14 -53 q0 -27 -12 -50.5t-33 -40t-50.5 -26t-63.5 -9.5q-65 0 -98 30.5t-33 72.5q0 31 19 66.5t63 61.5q-22 12 -31 29.5t-9 37.5t10 40.5t28.5 37t45.5 26.5t61 10z" />
<glyph unicode="&#x215d;" horiz-adv-x="800" d="M692 408q21 0 42 -5t37.5 -15.5t27 -28t10.5 -41.5q0 -29 -13.5 -55t-50.5 -51q22 -14 36 -37t14 -53q0 -27 -12 -50.5t-33 -40t-50.5 -26t-63.5 -9.5q-65 0 -98 30.5t-33 72.5q0 31 19 66.5t63 61.5q-22 12 -31 29.5t-9 37.5t10 40.5t28.5 37t45.5 26.5t61 10zM228 472 q-14 0 -33 -4.5t-41 -15.5l-34 26l23 187h240l-5 -53l-180 1l-15 -101q16 5 30 7.5t34 2.5q24 0 47 -6t41 -19.5t29 -34.5t11 -50q0 -39 -14.5 -67t-38.5 -46.5t-55 -27.5t-64 -9q-35 0 -69.5 5.5t-64.5 20.5l23 49q43 -14 65.5 -17t38.5 -3q50 0 81 21.5t31 68.5 q0 32 -22.5 48.5t-57.5 16.5zM294 -22h-55l380 723h53zM643 43q46 0 68 22.5t22 48.5q0 30 -24.5 50.5t-72.5 37.5q-37 -22 -52 -49.5t-15 -47.5q0 -23 16 -42.5t58 -19.5zM684 355q-21 0 -35.5 -5.5t-23.5 -14t-13 -18.5t-4 -18q0 -11 8 -20.5t20.5 -17t27 -13.5t27.5 -12 q33 19 45.5 37t12.5 34q0 18 -14 33t-51 15z" />
<glyph unicode="&#x215e;" horiz-adv-x="800" d="M235 -22h-55l380 723h53zM394 620l-213 -355h-69l209 348l-192 -1l5 53h253l7 -44v-1zM640 355q-21 0 -35.5 -5.5t-23.5 -14t-13 -18.5t-4 -18q0 -11 8 -20.5t20.5 -17t27 -13.5t27.5 -12q33 19 45.5 37t12.5 34q0 18 -14 33t-51 15zM599 43q46 0 68 22.5t22 48.5 q0 30 -24.5 50.5t-72.5 37.5q-37 -22 -52 -49.5t-15 -47.5q0 -23 16 -42.5t58 -19.5zM648 408q21 0 42 -5t37.5 -15.5t27 -28t10.5 -41.5q0 -29 -13.5 -55t-50.5 -51q22 -14 36 -37t14 -53q0 -27 -12 -50.5t-33 -40t-50.5 -26t-63.5 -9.5q-65 0 -98 30.5t-33 72.5 q0 31 19 66.5t63 61.5q-22 12 -31 29.5t-9 37.5t10 40.5t28.5 37t45.5 26.5t61 10z" />
<glyph unicode="&#x2190;" horiz-adv-x="840" d="M779 353v-64l-577 1l146 -145l-46 -45l-220 221l220 222l46 -45l-146 -145h577z" />
<glyph unicode="&#x2191;" horiz-adv-x="485" d="M279 1h-64v573l-144 -142l-45 46l221 220l222 -220l-45 -46l-145 142v-573z" />
<glyph unicode="&#x2192;" horiz-adv-x="840" d="M660 353l-146 145l46 45l220 -222l-220 -221l-46 45l146 145l-577 -1v64h577z" />
<glyph unicode="&#x2193;" horiz-adv-x="485" d="M279 122l145 146l45 -46l-222 -220l-221 220l45 46l145 -146l-1 577h64v-577z" />
<glyph unicode="&#x2196;" horiz-adv-x="840" d="M231 581l535 -536l-44 -45l-535 536l1 -205h-65l1 312l312 1l1 -64z" />
<glyph unicode="&#x2198;" horiz-adv-x="840" d="M657 63l-535 536l44 45l535 -536l-1 205h65l-1 -312l-312 -1l-1 64z" />
<glyph unicode="&#x21a9;" horiz-adv-x="840" d="M154 353h485q55 0 77.5 31t22.5 77v80q0 45 -23.5 69.5t-76.5 24.5h-74v62h79q44 0 74.5 -12t49 -33.5t27 -51t8.5 -63.5v-76q0 -78 -42 -125t-130 -47l-477 1l146 -145l-46 -45l-220 221l220 222l46 -45z" />
<glyph unicode="&#x21aa;" horiz-adv-x="828" d="M538 498l46 45l220 -222l-220 -221l-46 45l146 145l-477 -1q-88 0 -130 47t-42 125v76q0 34 8.5 63.5t27 51t49 33.5t74.5 12h79v-62h-74q-53 0 -76.5 -24.5t-23.5 -69.5v-80q0 -23 5 -42.5t17 -34t31 -23t47 -8.5h485z" />
<glyph unicode="&#x21b3;" horiz-adv-x="840" d="M177 353h511l-146 145l46 45l220 -222l-220 -221l-46 45l146 145l-576 -1v403h65v-339z" />
<glyph unicode="&#x21b5;" horiz-adv-x="840" d="M713 692h65v-403l-576 1l146 -145l-46 -45l-220 221l220 222l46 -45l-146 -145h511v339z" />
<glyph unicode="&#x21de;" horiz-adv-x="485" d="M280 376h110v-64h-110v-76h110v-64h-110v-172h-65v172h-110v64h110v76h-110v64h110l1 198l-145 -142l-45 46l221 220l222 -220l-45 -46l-145 142z" />
<glyph unicode="&#x21df;" horiz-adv-x="485" d="M279 121l145 145l45 -46l-222 -220l-221 220l45 46l145 -145l-1 201h-110v64h110v76h-110v64h110v172h65v-172h110v-64h-110v-76h110v-64h-110z" />
<glyph unicode="&#x21e0;" horiz-adv-x="840" d="M381 353h80v-64h-80v64zM529 353h81v-64h-81v64zM678 353h81v-64h-81v64zM314 353v-64l-133 1l148 -145l-46 -45l-220 221l220 222l46 -45l-148 -145h133z" />
<glyph unicode="&#x21e1;" horiz-adv-x="485" d="M277 379v-80h-64v80h64zM277 231v-81h-64v81h64zM277 82v-81h-64v81h64zM277 446h-64l1 131l-145 -146l-45 46l221 220l222 -220l-45 -46l-145 146v-131z" />
<glyph unicode="&#x21e2;" horiz-adv-x="840" d="M441 289h-80v64h80v-64zM293 289h-81v64h81v-64zM144 289h-81v64h81v-64zM641 353l-148 145l46 45l220 -222l-220 -221l-46 45l148 145l-133 -1v64h133z" />
<glyph unicode="&#x21e3;" horiz-adv-x="485" d="M213 319v80h64v-80h-64zM213 467v81h64v-81h-64zM213 616v81h64v-81h-64zM277 121l145 146l45 -46l-222 -220l-221 220l45 46l145 -146l-1 131h64v-131z" />
<glyph unicode="&#x21e4;" horiz-adv-x="840" d="M75 104v435h65v-435h-65zM816 353v-64l-493 1l146 -145l-46 -45l-220 221l220 222l46 -45l-146 -145h493z" />
<glyph unicode="&#x21e5;" horiz-adv-x="840" d="M752 104v435h65v-435h-65zM569 353l-146 145l46 45l220 -222l-220 -221l-46 45l146 145l-493 -1v64h493z" />
<glyph unicode="&#x21e7;" horiz-adv-x="840" d="M55 318l370 379l370 -379h-185v-318h-370v318h-185zM425 621l-246 -255h115v-313h263v313h114z" />
<glyph unicode="&#x21ea;" horiz-adv-x="840" d="M230 0h370v-188h-370v188zM284 -53v-81h263v81h-263zM45 318l370 379l370 -379h-185v-217h-370v217h-185zM415 621l-246 -255h115v-210h263v210h114z" />
<glyph unicode="&#x2303;" horiz-adv-x="795" d="M108 414l289 289l290 -289l-51 -52l-239 239l-237 -239z" />
<glyph unicode="&#x2318;" horiz-adv-x="846" d="M279 490v72q0 30 -21 51t-50 21q-31 0 -52 -20.5t-21 -51.5t20.5 -51.5t52.5 -20.5h71zM563 490h72q30 0 51 21t21 51t-21 51t-51 21t-51 -20.5t-21 -51.5v-72zM279 207h-71q-32 0 -52.5 -21.5t-20.5 -50.5q0 -31 20.5 -52t52.5 -21q30 0 50.5 21t20.5 52v72zM563 207 v-72q0 -31 21 -52t51 -21t51 21t21 52q0 29 -21 50.5t-51 21.5h-72zM493 276v145h-144v-145h144zM563 276h72q36 0 62.5 -11.5t44 -31t26 -45t8.5 -53.5q0 -29 -8.5 -54.5t-26 -45t-44 -31t-62.5 -11.5q-34 0 -60.5 11.5t-44.5 31t-27.5 45t-9.5 54.5v72h-144v-72 q0 -28 -9 -53.5t-26.5 -45t-44 -31.5t-61.5 -12q-33 0 -59.5 11t-45 30.5t-28.5 45t-10 55.5q0 28 9.5 54t28 45t45 30.5t60.5 11.5h71v145h-71q-29 0 -55 11.5t-45.5 30.5t-31 44.5t-11.5 54.5t10.5 55t29.5 45.5t45 30.5t58 11q35 0 61.5 -11t44 -30.5t26.5 -45.5t9 -55 v-72h144v72q0 29 10.5 55t29 45.5t44.5 30.5t58 11q34 0 60.5 -11.5t44.5 -31t27 -45t9 -54.5q0 -28 -11 -53.5t-30 -45t-45 -31t-55 -11.5h-72v-145z" />
<glyph unicode="&#x2324;" horiz-adv-x="795" d="M108 298l289 304l290 -304l-51 -52l-239 254l-237 -254zM688 696v-73h-580v73h580z" />
<glyph unicode="&#x2325;" horiz-adv-x="1188" d="M44 680h283l285 -608h524v-72h-583l-285 607h-224v73zM528 680h608v-73h-608v73z" />
<glyph unicode="&#x2326;" horiz-adv-x="1137" d="M752 0h-656v695h656l337 -348zM988 347l-274 278h-549v-556h549zM458 299l-154 -156l-49 49l155 155l-155 156l49 49l154 -155l156 155l49 -49l-155 -156l155 -155l-49 -49z" />
<glyph unicode="&#x232b;" horiz-adv-x="1165" d="M77 347l337 348h656v-695h-656zM452 69h549v556h-549l-274 -278zM542 143l-49 49l155 155l-155 156l49 49l156 -155l154 155l49 -49l-155 -156l155 -155l-49 -49l-154 156z" />
<glyph unicode="&#x235f;" horiz-adv-x="804" d="M752 346q0 -73 -28 -137.5t-76 -112.5t-112.5 -75.5t-137.5 -27.5t-137 27.5t-112 75.5t-75.5 112.5t-27.5 138.5q0 73 27.5 137.5t75.5 112.5t112.5 75.5t138.5 27.5q73 0 137.5 -28t112.5 -76t75.5 -112.5t27.5 -137.5h-1zM693 346q0 61 -23 115t-63 94t-94 63t-115 23 t-115 -23t-94 -63t-63 -94t-23 -115t23 -114.5t63 -93.5t94 -63t115 -23t115 23t94 63t63 93.5t23 114.5zM521 301l26 -169l-157 76l-141 -76l21 165l-118 117l163 32l75 148l80 -146l164 -34z" />
<glyph unicode="&#x23cf;" horiz-adv-x="854" d="M768 227v-136h-702v136h702zM768 314h-702l351 351z" />
<glyph unicode="&#x25a0;" horiz-adv-x="875" d="M756 40h-633v633h633v-633z" />
<glyph unicode="&#x25a1;" horiz-adv-x="841" d="M143 59h568v574h-568v-574zM83 0v693h687v-693h-687z" />
<glyph unicode="&#x25b2;" horiz-adv-x="820" d="M781 176h-702l351 351z" />
<glyph unicode="&#x25b6;" horiz-adv-x="595" d="M138 701l351 -350l-351 -351v701z" />
<glyph unicode="&#x25bc;" horiz-adv-x="820" d="M430 176l-351 351h702z" />
<glyph unicode="&#x25c0;" horiz-adv-x="595" d="M452 0l-351 351l351 350v-701z" />
<glyph unicode="&#x25ca;" horiz-adv-x="530" d="M298 -19h-69q-20 39 -42 81.5t-44.5 86t-45 86t-42.5 81.5q41 80 87 168.5t87 168.5h70l171 -337zM263 557l-118 -240q29 -57 60.5 -119.5t58.5 -119.5q30 60 59 119t59 119z" />
<glyph unicode="&#x25cf;" horiz-adv-x="843" d="M744 357q0 -64 -25 -121.5t-68.5 -101t-101 -69t-121.5 -25.5q-65 0 -122.5 25t-101 68.5t-68.5 101t-25 122.5q0 66 26 123.5t69.5 100t101 67.5t120.5 25t120 -25t100.5 -68.5t69.5 -101t26 -121.5z" />
<glyph unicode="&#x25fc;" horiz-adv-x="505" d="M0 505h505v-505h-505v505z" />
<glyph unicode="&#x2602;" horiz-adv-x="780" d="M405 695q55 0 112.5 -27.5t104.5 -73.5t77 -106t30 -124q-16 18 -40 28.5t-50 10.5q-23 0 -45 -9.5t-41 -29.5h-2q-23 39 -75 39q-28 0 -62 -14v-304q0 -42 -25.5 -67.5t-73.5 -25.5q-42 0 -69.5 23.5t-27.5 74.5v13h47v-13q0 -28 13.5 -41t34.5 -13q16 0 26 5t15.5 13 t7.5 18t2 20v296q-14 7 -27 9.5t-25 2.5q-26 0 -46.5 -10t-38.5 -27q-17 20 -40 29.5t-47 9.5q-25 0 -48.5 -9.5t-40.5 -29.5l-1 1q0 64 30.5 123.5t77.5 106t105 74.5t113 28v31h29v-32zM730 363q-1 0 -1 1z" />
<glyph unicode="&#x2605;" horiz-adv-x="814" d="M605 254l39 -258l-239 117l-214 -117l32 251l-181 180l249 48l114 226l123 -223l250 -51z" />
<glyph unicode="&#x2606;" horiz-adv-x="838" d="M608 257l39 -259l-240 117l-218 -119l33 255l-183 182l254 49l113 225l124 -223l254 -51zM727 415l-213 43l-107 193l-98 -196l-212 -40l153 -153l-27 -216l184 99l206 -99l-35 221z" />
<glyph unicode="&#x2610;" horiz-adv-x="841" d="M143 59h568v574h-568v-574zM83 0v693h687v-693h-687z" />
<glyph unicode="&#x2611;" horiz-adv-x="850" d="M702 582q-27 -19 -56.5 -52.5t-60 -74.5t-60.5 -87t-57 -91t-49.5 -85.5t-37.5 -71.5q-55 -11 -74 -21q-8 30 -21.5 71.5t-29 81.5t-32 71t-30.5 41q17 14 38 19.5t35 5.5q9 0 22 -17t25.5 -44t23 -60t15.5 -66q28 48 68 104t85.5 110.5t93 101t91.5 74.5zM143 59h568 v574h-568v-574zM83 0v693h687v-693h-687z" />
<glyph unicode="&#x2612;" horiz-adv-x="850" d="M612 587l47 -47l-189 -189l192 -192l-49 -47l-191 192l-191 -194l-46 49l190 190l-190 190l47 48l191 -192zM143 59h568v574h-568v-574zM83 0v693h687v-693h-687z" />
<glyph unicode="&#x2622;" horiz-adv-x="837" d="M418 432q16 0 30.5 -7t25 -18t16.5 -25.5t6 -30.5t-6 -30t-16.5 -24.5t-25 -17t-30.5 -6.5q-31 0 -55.5 22t-24.5 56t23.5 57.5t56.5 23.5zM569 89q-79 -41 -154 -41q-81 0 -148 42l98 170q30 -14 54 -14q20 0 50 14zM364 442q-23 -14 -36 -37.5t-16 -53.5h-197 q0 86 35.5 149t114.5 114zM569 615q72 -40 112 -108t40 -156h-197q-6 62 -55 93zM416 684q-68 0 -128 -26.5t-105 -72t-71 -106t-26 -128.5q0 -70 26.5 -130.5t72 -105.5t106.5 -70.5t129 -25.5q66 0 125.5 26.5t105 71.5t72 103.5t26.5 122.5q0 79 -28.5 142t-75 107 t-106.5 68t-123 24zM418 -17q-77 0 -144 28.5t-117 78t-78.5 117t-28.5 144.5q0 67 26 132t74 117t115.5 84t150.5 32q78 0 146 -28t118 -76.5t78.5 -114t28.5 -141.5q0 -77 -28.5 -145t-78 -118.5t-117 -80t-145.5 -29.5z" />
<glyph unicode="&#x2623;" horiz-adv-x="856" d="M553 462q-13 -27 -37 -43q-44 30 -86 30q-41 0 -89 -30q-14 8 -22 18.5t-15 24.5q32 21 62 32t62 11q64 0 125 -43zM502 120q-7 12 -11.5 25t-6.5 27q88 44 88 124v12t-1 14q11 7 27 8.5t27 1.5q4 -16 4 -37q0 -54 -33.5 -101t-93.5 -74zM351 120q-28 12 -51 30 t-39.5 41.5t-25.5 50t-9 54.5q0 21 4 38q20 -1 32 -4t22 -8v-30q0 -76 88 -120q-2 -14 -7.5 -27.5t-13.5 -24.5zM272 531q0 -68 38 -107.5t111 -48.5v-22q-23 -5 -32.5 -18.5t-9.5 -27.5q0 -5 1 -9.5t3 -9.5l-19 -10q-60 72 -133 72q-29 0 -56.5 -12t-48.5 -32.5t-34 -47.5 t-13 -57q0 -22 6 -56l-11 -5q-8 25 -13.5 50.5t-5.5 50.5q0 29 8 57t26.5 52.5t48 45t73.5 34.5q0 63 11.5 109.5t35 78t59.5 51t86 28.5l5 -15q-136 -39 -136 -151zM583 533q0 109 -118 148l5 16q91 -20 134 -77t43 -155v-16t-1 -17q78 -31 116 -83.5t38 -119.5 q0 -45 -18 -96l-13 4q8 43 8 65q0 30 -12.5 56.5t-33.5 46t-49.5 30.5t-60.5 11q-40 0 -71.5 -19t-55.5 -52l-23 13q3 10 3 20q0 16 -9 27.5t-30 17.5v22q72 9 110 49.5t38 108.5zM428 53q-42 -32 -81 -42.5t-74 -10.5q-26 0 -49 4t-43.5 14t-40 27t-39.5 43l11 8 q68 -60 117 -60q33 0 62 12.5t50.5 33.5t34 49.5t12.5 60.5q0 12 -2.5 30t-15.5 41l22 13q7 -11 17.5 -14.5t20.5 -3.5q18 0 33 17l23 -12q-17 -41 -17 -72t12 -58.5t33 -48.5t48 -33t57 -12q66 0 122 54l12 -8q-19 -26 -38 -42.5t-39.5 -26t-43.5 -13t-50 -3.5 q-38 0 -77.5 10.5t-76.5 42.5z" />
<glyph unicode="&#x262e;" horiz-adv-x="834" d="M410 713q78 0 145.5 -28t117.5 -76.5t78.5 -113.5t28.5 -139q0 -77 -29 -144t-79.5 -116.5t-118.5 -78t-145 -28.5q-73 0 -138.5 29t-115 78.5t-78.5 116t-29 140.5q0 75 28.5 141t78 114.5t115.5 76.5t141 28zM675 204q18 32 28.5 69t10.5 83q0 58 -19 108t-54.5 88.5 t-86 64.5t-113.5 35v-239zM384 413v239q-60 -8 -110 -33t-86 -64.5t-56 -91.5t-20 -112q0 -27 2.5 -47t7.5 -36t12.5 -31.5t18.5 -33.5zM441 338v-289q59 7 107 34t93 75zM384 338l-197 -180q23 -22 45 -40t45 -32.5t49 -24t58 -14.5v291z" />
<glyph unicode="&#x262f;" horiz-adv-x="828" d="M525 174q-21 0 -34.5 15.5t-13.5 33.5q0 23 15.5 37.5t32.5 14.5q22 0 36.5 -16t14.5 -36q0 -22 -15.5 -35.5t-35.5 -13.5zM253 488q0 -20 13 -35t36 -15q22 0 36.5 15t14.5 35q0 18 -14 33.5t-38 15.5q-17 0 -32.5 -13.5t-15.5 -35.5zM50 356q0 82 31.5 148.5t82.5 114 t116 73.5t133 26q82 0 149.5 -29.5t115.5 -79.5t74 -116.5t26 -140.5q0 -82 -29.5 -148.5t-79.5 -114t-115.5 -73t-138.5 -25.5q-81 0 -148.5 30.5t-115.5 81t-74.5 116.5t-26.5 137zM249 649q21 6 42 6q41 0 74.5 -15.5t57 -39t36.5 -51t13 -52.5q0 -51 -19.5 -94.5 t-67.5 -91.5q-21 -21 -29 -51.5t-8 -51.5q0 -74 45.5 -115.5t128.5 -41.5q43 0 85 23.5t75 64.5t53.5 96t20.5 118q0 66 -24.5 128.5t-69.5 110.5t-108 77.5t-141 29.5q-45 0 -87.5 -11.5t-81.5 -34.5z" />
<glyph unicode="&#x2672;" horiz-adv-x="919" d="M668 448l-211 21l60 38l-46 81l-124 -185l-169 98l103 166q11 18 27 28t42 10h243q20 0 27.5 -2.5t14.5 -13.5l53 -87l64 38zM50 421h211l85 -183l-60 35l-31 -28q-16 -15 -16 -29q0 -25 31 -25h192v-211h-185q-32 0 -45 10.5t-23 28.5l-113 208q-7 12 -9.5 25t-2.5 27 q0 26 7 50t25 43zM593 372l172 102l95 -176q9 -18 9 -30q0 -11 -3.5 -20.5t-8.5 -18.5l-108 -194q-9 -16 -15.5 -26.5t-13 -17t-15 -9t-21.5 -2.5h-84v-77l-111 175l110 169v-70h109zM199 504l144 -83l120 181q-19 37 -47.5 61t-71.5 24q-29 0 -48 -28zM311 275l-61 131 h-158l47 -32q-19 -18 -29.5 -42.5t-10.5 -50.5q0 -29 9.5 -46.5t25 -27t34.5 -13t37 -3.5h28q-11 8 -11 24q0 20 19 39l42 38zM448 178h-237q-17 0 -28.5 1t-20 2.5t-16 4t-15.5 5.5l88 -163q9 -16 19.5 -25.5t33.5 -9.5h176v185zM686 582l-59 93q-6 10 -13 13.5t-19 3.5 h-204q31 -7 51.5 -33t38.5 -58l56 -100l-37 -23l159 -15l67 145zM611 368l115 -191q19 2 41 10t41 20.5t31.5 28.5t12.5 34q0 7 -2 13t-4 11l-89 159zM587 206l-81 -128l81 -130v45h96q9 0 20.5 5t20.5 21l103 188q-32 -30 -67.5 -37.5t-88.5 -7.5h-84v44z" />
<glyph unicode="&#x2673;" horiz-adv-x="869" d="M536 0v-59h-16l-74 95l78 98l13 -2v-59h128q36 0 52.5 12t16.5 32q0 19 -16 46l-100 170l67 39l111 -194q23 -39 23 -73q0 -48 -40.5 -76.5t-102.5 -28.5h-140zM393 73v-73h-213q-60 0 -95 28.5t-35 75.5q0 36 24 78l73 131l-46 25l7 13l118 22l42 -112l-8 -15l-47 29 l-64 -116q-13 -24 -13 -43q0 -18 13.5 -30.5t45.5 -12.5h198zM624 400l-121 21l-6 12l49 27l-71 120q-8 14 -19.5 22t-25.5 8t-27 -10t-21 -25l-99 -174l-64 37l106 185q22 38 49.5 54.5t57.5 16.5q31 0 59.5 -18t46.5 -50l73 -129l51 29l6 -14zM452 120h-55v228l-36 -25v57 l42 30h49v-290z" />
<glyph unicode="&#x2674;" horiz-adv-x="869" d="M329 124v46l107 134q14 15 14 33q0 11 -8 20t-23 9q-14 0 -23.5 -11.5t-12.5 -31.5l-52 6q6 42 31 64.5t57 22.5q36 0 60 -20t24 -58q0 -14 -5 -29.5t-16 -29.5l-83 -104h99v-51h-169zM536 0v-59h-16l-74 95l78 98l13 -2v-59h128q36 0 52.5 12t16.5 32q0 19 -16 46 l-100 170l67 39l111 -194q23 -39 23 -73q0 -48 -40.5 -76.5t-102.5 -28.5h-140zM393 73v-73h-213q-60 0 -95 28.5t-35 75.5q0 36 24 78l73 131l-46 25l7 13l118 22l42 -112l-8 -15l-47 29l-64 -116q-13 -24 -13 -43q0 -18 13.5 -30.5t45.5 -12.5h198zM624 400l-121 21l-6 12 l49 27l-71 120q-8 14 -19.5 22t-25.5 8t-27 -10t-21 -25l-99 -174l-64 37l106 185q22 38 49.5 54.5t57.5 16.5q31 0 59.5 -18t46.5 -50l73 -129l51 29l6 -14z" />
<glyph unicode="&#x2675;" horiz-adv-x="869" d="M536 0v-59h-16l-74 95l78 98l13 -2v-59h128q36 0 52.5 12t16.5 32q0 19 -16 46l-100 170l67 39l111 -194q23 -39 23 -73q0 -48 -40.5 -76.5t-102.5 -28.5h-140zM393 73v-73h-213q-60 0 -95 28.5t-35 75.5q0 36 24 78l73 131l-46 25l7 13l118 22l42 -112l-8 -15l-47 29 l-64 -116q-13 -24 -13 -43q0 -18 13.5 -30.5t45.5 -12.5h198zM624 400l-121 21l-6 12l49 27l-71 120q-8 14 -19.5 22t-25.5 8t-27 -10t-21 -25l-99 -174l-64 37l106 185q22 38 49.5 54.5t57.5 16.5q31 0 59.5 -18t46.5 -50l73 -129l51 29l6 -14zM505 214q0 -42 -24.5 -67.5 t-66.5 -25.5q-14 0 -27.5 3.5t-25 12.5t-20 24t-12.5 37l51 7q4 -19 13.5 -27t21.5 -8q18 0 28.5 12.5t10.5 30.5q0 19 -10.5 28.5t-26.5 9.5h-29v48h26q16 0 26.5 9.5t10.5 23.5t-10 24t-24 10q-11 0 -20 -9.5t-14 -26.5l-52 6q7 35 31 57.5t55 22.5q45 0 65.5 -25 t20.5 -58q0 -15 -5 -29t-22 -27q17 -14 23 -30t6 -33z" />
<glyph unicode="&#x2676;" horiz-adv-x="869" d="M536 0v-59h-16l-74 95l78 98l13 -2v-59h128q36 0 52.5 12t16.5 32q0 19 -16 46l-100 170l67 39l111 -194q23 -39 23 -73q0 -48 -40.5 -76.5t-102.5 -28.5h-140zM393 73v-73h-213q-60 0 -95 28.5t-35 75.5q0 36 24 78l73 131l-46 25l7 13l118 22l42 -112l-8 -15l-47 29 l-64 -116q-13 -24 -13 -43q0 -18 13.5 -30.5t45.5 -12.5h198zM624 400l-121 21l-6 12l49 27l-71 120q-8 14 -19.5 22t-25.5 8t-27 -10t-21 -25l-99 -174l-64 37l106 185q22 38 49.5 54.5t57.5 16.5q31 0 59.5 -18t46.5 -50l73 -129l51 29l6 -14zM477 167v-41h-51v41h-117v43 l96 206h56l-93 -200h58v70h51v-70h22v-49h-22z" />
<glyph unicode="&#x2677;" horiz-adv-x="869" d="M536 0v-59h-16l-74 95l78 98l13 -2v-59h128q36 0 52.5 12t16.5 32q0 19 -16 46l-100 170l67 39l111 -194q23 -39 23 -73q0 -48 -40.5 -76.5t-102.5 -28.5h-140zM393 73v-73h-213q-60 0 -95 28.5t-35 75.5q0 36 24 78l73 131l-46 25l7 13l118 22l42 -112l-8 -15l-47 29 l-64 -116q-13 -24 -13 -43q0 -18 13.5 -30.5t45.5 -12.5h198zM624 400l-121 21l-6 12l49 27l-71 120q-8 14 -19.5 22t-25.5 8t-27 -10t-21 -25l-99 -174l-64 37l106 185q22 38 49.5 54.5t57.5 16.5q31 0 59.5 -18t46.5 -50l73 -129l51 29l6 -14zM433 322q38 0 57.5 -26 t19.5 -74q0 -46 -22 -75t-67 -29q-31 0 -54.5 16t-32.5 60l51 10q8 -38 36 -38q13 0 20.5 5.5t11.5 14t5.5 18.5t1.5 19q0 19 -6.5 34.5t-28.5 15.5q-10 0 -18 -7t-15 -18h-47v162h151v-50h-102v-47q10 5 19.5 7t19.5 2z" />
<glyph unicode="&#x2678;" horiz-adv-x="869" d="M536 0v-59h-16l-74 95l78 98l13 -2v-59h128q36 0 52.5 12t16.5 32q0 19 -16 46l-100 170l67 39l111 -194q23 -39 23 -73q0 -48 -40.5 -76.5t-102.5 -28.5h-140zM393 73v-73h-213q-60 0 -95 28.5t-35 75.5q0 36 24 78l73 131l-46 25l7 13l118 22l42 -112l-8 -15l-47 29 l-64 -116q-13 -24 -13 -43q0 -18 13.5 -30.5t45.5 -12.5h198zM624 400l-121 21l-6 12l49 27l-71 120q-8 14 -19.5 22t-25.5 8t-27 -10t-21 -25l-99 -174l-64 37l106 185q22 38 49.5 54.5t57.5 16.5q31 0 59.5 -18t46.5 -50l73 -129l51 29l6 -14zM514 211q0 -24 -7.5 -42 t-20 -29t-28.5 -16.5t-33 -5.5q-38 0 -62 22.5t-24 67.5q0 14 3.5 30t12.5 33q17 33 36.5 69t36.5 70h56l-55 -113h6q35 0 57 -25.5t22 -60.5zM460 209q0 20 -10 30t-24 10t-24.5 -10t-10.5 -30t9.5 -31t25.5 -11q14 0 24 11t10 31z" />
<glyph unicode="&#x2679;" horiz-adv-x="869" d="M536 0v-59h-16l-74 95l78 98l13 -2v-59h128q36 0 52.5 12t16.5 32q0 19 -16 46l-100 170l67 39l111 -194q23 -39 23 -73q0 -48 -40.5 -76.5t-102.5 -28.5h-140zM393 73v-73h-213q-60 0 -95 28.5t-35 75.5q0 36 24 78l73 131l-46 25l7 13l118 22l42 -112l-8 -15l-47 29 l-64 -116q-13 -24 -13 -43q0 -18 13.5 -30.5t45.5 -12.5h198zM624 400l-121 21l-6 12l49 27l-71 120q-8 14 -19.5 22t-25.5 8t-27 -10t-21 -25l-99 -174l-64 37l106 185q22 38 49.5 54.5t57.5 16.5q31 0 59.5 -18t46.5 -50l73 -129l51 29l6 -14zM412 115h-56l95 239h-61v-41 h-52v92h172v-44z" />
<glyph unicode="&#x267a;" horiz-adv-x="869" d="M536 0v-59h-16l-74 95l78 98l13 -2v-59h128q36 0 52.5 12t16.5 32q0 19 -16 46l-100 170l67 39l111 -194q23 -39 23 -73q0 -48 -40.5 -76.5t-102.5 -28.5h-140zM393 73v-73h-213q-60 0 -95 28.5t-35 75.5q0 36 24 78l73 131l-46 25l7 13l118 22l42 -112l-8 -15l-47 29 l-64 -116q-13 -24 -13 -43q0 -18 13.5 -30.5t45.5 -12.5h198zM624 400l-121 21l-6 12l49 27l-71 120q-8 14 -19.5 22t-25.5 8t-27 -10t-21 -25l-99 -174l-64 37l106 185q22 38 49.5 54.5t57.5 16.5q31 0 59.5 -18t46.5 -50l73 -129l51 29l6 -14z" />
<glyph unicode="&#x267b;" horiz-adv-x="889" d="M730 616l-82 -144h-167l52 33l-74 133q-12 21 -27.5 34.5t-29.5 21.5h181q28 0 37.5 -6t15.5 -17l46 -82zM321 695q36 0 63.5 -19t42.5 -39l-121 -220l-147 87l83 146q13 17 33 31t46 14zM738 495l86 -148q15 -25 15 -52q0 -24 -11 -44t-28 -34.5t-39 -22.5t-43 -8h-8 l-123 222zM303 290l-46 27l-72 -131q-17 -27 -25 -47.5t-8 -33.5l-88 152q-14 24 -14 39q0 8 5 23l50 86l-41 20h161zM469 80l86 137v-60h149q16 0 44 7.5t51 22.5l-100 -152q-15 -23 -32 -29t-31 -6h-81v-58zM448 0h-189q-11 0 -25.5 4.5t-27.5 14t-22 25.5t-9 40 q0 18 6.5 35.5t17.5 37.5h249v-157z" />
<glyph unicode="&#x267c;" horiz-adv-x="836" d="M786 352q0 -76 -29 -143t-79 -117t-117 -79t-143 -29t-143 29t-117 79t-79 117t-29 143t29 143t79 117t117 79t143 29t143 -29t117 -79t79 -117t29 -143zM593 538l-34 61q-5 9 -12 13t-27 4h-137q11 -5 22.5 -15t20.5 -26l55 -100l-39 -25h125l62 108zM323 617 q-20 0 -35.5 -9.5t-23.5 -24.5l-62 -109l111 -65l90 165q-12 15 -32.5 29t-47.5 14zM522 403l92 -166h6q16 0 32 6t29 16.5t21 25.5t8 33q0 9 -2 19t-9 20l-64 111zM251 415h-120l30 -14l-38 -64q-5 -8 -5 -19q0 -13 10 -30l69 -111q0 20 23 60l55 97l34 -19zM498 54v43h61 q9 0 22.5 5t24.5 22l75 113q-17 -10 -38.5 -16.5t-32.5 -6.5h-112v46l-64 -102zM418 214h-186q-18 -27 -18 -53q0 -18 6.5 -30.5t16.5 -20t20.5 -10.5t18.5 -3h142v117z" />
<glyph unicode="&#x267d;" horiz-adv-x="836" d="M786 353q0 -76 -29 -143t-79 -117t-117 -79t-143 -29t-143 29t-117 79t-79 117t-29 143t29 143t79 117t117 79t143 29t143 -29t117 -79t79 -117t29 -143zM767 353q0 72 -27.5 135.5t-74.5 111t-111 75t-136 27.5t-135.5 -27.5t-111 -75t-75 -111t-27.5 -135.5t27.5 -136 t75 -111t111 -74.5t135.5 -27.5t136 27.5t111 74.5t74.5 111t27.5 136zM631 558l-62 -108h-125l39 25l-55 100q-9 16 -20.5 26t-22.5 15h137q20 0 27 -4t12 -13l34 -61zM325 617q27 0 47.5 -14t32.5 -29l-90 -165l-111 65l62 109q8 15 23.5 24.5t35.5 9.5zM637 468l64 -111 q7 -10 9 -20t2 -19q0 -18 -8 -33t-21 -25.5t-29 -16.5t-32 -6h-6l-92 166zM311 315l-34 19l-55 -97q-23 -40 -23 -60l-69 111q-10 17 -10 30q0 11 5 19l38 64l-30 14h120zM436 158l64 102v-46h112q11 0 32.5 6.5t38.5 16.5l-75 -113q-11 -17 -24.5 -22t-22.5 -5h-61v-43z M420 97h-142q-8 0 -18.5 3t-20.5 10.5t-16.5 20t-6.5 30.5q0 26 18 53h186v-117z" />
<glyph unicode="&#x2693;" horiz-adv-x="698" d="M381 68q33 3 70 14.5t81 52.5l-40 35l142 41l-21 -152l-38 41q-54 -55 -111 -79t-115 -29q-58 5 -115 29t-110 79l-38 -41l-22 152l142 -41l-40 -35q22 -21 42 -33.5t39 -19.5t36.5 -10t34.5 -4v397h-128v48h128v12q-27 8 -44 32t-17 53q0 38 26.5 64t63.5 26q18 0 34 -7 t28 -19t19 -28.5t7 -35.5q0 -29 -15.5 -50.5t-40.5 -31.5v-15h130v-48h-130v-397h2z" />
<glyph unicode="&#x26a0;" horiz-adv-x="884" d="M437 525q24 0 36 -13.5t12 -32.5l-29 -281q-2 -8 -8.5 -13t-11.5 -5q-6 0 -12.5 5t-7.5 13l-23 281q0 16 12 31t32 15zM437 75q-6 0 -14 2t-14.5 6.5t-11.5 13t-5 21.5q0 4 2 11t7.5 14t14 11.5t21.5 4.5q17 0 29.5 -11.5t12.5 -31.5q0 -19 -12.5 -30t-29.5 -11zM391 669 q11 19 24 27.5t27 8.5q13 0 25.5 -8.5t22.5 -25.5l331 -588q10 -17 10 -37t-12.5 -33t-40.5 -13h-675q-29 0 -41.5 13.5t-12.5 32.5q0 18 11 37zM125 90q-5 -8 -8.5 -14t-3.5 -11t6 -7t23 -2h597q17 0 23 2t6 7t-4 11.5t-9 14.5l-297 526q-9 17 -19 17q-5 0 -10 -5t-9 -12z " />
<glyph unicode="&#x2706;" horiz-adv-x="432" d="M268 501q-26 0 -36 -38t-10 -125q0 -12 2 -36t7 -48.5t14 -43.5t23 -21v-201q-9 0 -24 6t-33 21t-37 41t-34.5 66t-25 95.5t-9.5 130.5q0 113 20.5 183t48 109t54.5 53.5t40 15.5v-208zM281 -12v201h60q8 0 14 -4.5t6 -15.5v-160q0 -8 -4.5 -14.5t-15.5 -6.5h-60z M281 501v208h60q8 0 14 -6t6 -14v-163q0 -25 -20 -25h-60z" />
<glyph unicode="&#x2708;" horiz-adv-x="890" d="M566 246l-208 -351h-96l115 351h-191l-61 -80h-75l38 127l-41 126h75l64 -84h192l-112 359h95l207 -359h247q25 0 38 -14.5t13 -31.5q0 -16 -12.5 -29.5t-37.5 -13.5h-250z" />
<glyph unicode="&#x2709;" horiz-adv-x="1070" d="M353 330l-229 228v-454zM712 337l227 -227v456zM169 64h726l-222 224l-143 -144l-137 136zM162 610l368 -371l366 371h-734zM1005 671v-671h-941v671h941z" />
<glyph unicode="&#x2713;" horiz-adv-x="764" d="M756 656q-35 -27 -75.5 -72.5t-82 -102.5t-82.5 -121.5t-78 -127t-67.5 -120t-50.5 -100.5q-36 -8 -62 -16t-39 -16q-7 29 -17.5 66.5t-23.5 77.5t-28 79t-30 71.5t-29.5 54t-26.5 27.5q23 20 52 28.5t49 8.5q13 0 31 -23.5t35.5 -61t31.5 -83.5t19 -91q37 65 91 142.5 t115.5 152.5t126.5 139.5t126 104.5z" />
<glyph unicode="&#x2716;" horiz-adv-x="742" d="M717 172l-173 -174l-173 175l-173 -175l-173 174l175 172l-175 172l173 174l173 -174l173 174l173 -174l-174 -172z" />
<glyph unicode="&#x271a;" horiz-adv-x="748" d="M264 666h230v-218h218v-230h-213v-218h-231v218h-217v230h213v218z" />
<glyph unicode="&#x272a;" horiz-adv-x="796" d="M752 346q0 -74 -28 -138.5t-76 -112.5t-112.5 -75.5t-138.5 -27.5t-138.5 27.5t-112.5 75.5t-76 112.5t-28 138.5q0 73 28 138t76 113t112.5 76t138.5 28t138.5 -28t112.5 -76t76 -113t28 -138zM484 468l-96 177l-91 -179l-196 -39l141 -140l-24 -199l170 92l189 -92 l-32 204l137 135z" />
<glyph unicode="&#x2794;" horiz-adv-x="736" d="M277 57l236 236h-492v107h491l-236 235h149l288 -288l-289 -288z" />
<glyph unicode="&#xe000;" horiz-adv-x="542" d="M319 674q65 0 105 -24.5t62.5 -64t30.5 -88.5t8 -98q0 -65 -12.5 -136.5t-43.5 -131.5t-83 -99t-130 -39q-61 0 -101.5 20t-64.5 53.5t-34.5 78t-11.5 92.5q0 31 3.5 76t14 93.5t29 96.5t49 86t74.5 61.5t105 23.5zM317 609q-47 0 -79.5 -23t-54.5 -59t-34 -80t-18 -86 t-7.5 -77t-1.5 -53q1 -38 8.5 -70t23.5 -55t42.5 -36t66.5 -13q36 0 64 15.5t48 42t34 61t22 73t11.5 77.5t3.5 75t-5 73t-19 67t-39 49t-66 19z" />
<glyph unicode="&#xe001;" horiz-adv-x="426" d="M241 582l-157 -24l-4 48l176 58h72l-80 -664h-79z" />
<glyph unicode="&#xe002;" horiz-adv-x="518" d="M272 675q41 0 75.5 -9.5t59 -29t38.5 -49t14 -68.5q0 -44 -18 -87.5t-47 -85.5t-66.5 -82t-77 -76t-77.5 -68.5t-68 -59.5l324 1l-7 -61h-427l6 55q31 28 71 62t82 71.5t82.5 78t72 81t50.5 80t19 76.5q0 52 -33 77t-87 25q-24 0 -67 -9t-105 -44l-26 50q64 44 120 58 t92 14z" />
<glyph unicode="&#xe003;" horiz-adv-x="524" d="M311 373q60 -10 100 -52.5t40 -107.5q0 -44 -18.5 -84.5t-52.5 -71.5t-82.5 -49t-108.5 -18q-59 0 -110 10t-86 30q7 14 12.5 27t11.5 27q60 -21 97.5 -26t67.5 -5q37 0 71.5 10.5t61 30.5t42 48t15.5 64q0 60 -42.5 93.5t-108.5 33.5q-12 0 -25 -1t-27 -3q-3 14 -5.5 27 t-4.5 27q54 9 94 25t67 35.5t40 41.5t13 43q0 17 -6 33t-19.5 28t-35 19t-52.5 7q-34 0 -73.5 -9.5t-93.5 -33.5q-6 13 -11 25.5t-11 25.5q51 29 104 43t99 14q48 0 81.5 -11t54.5 -29t31 -42t10 -51q0 -23 -7.5 -47t-24.5 -47t-43.5 -42.5t-64.5 -32.5v-5z" />
<glyph unicode="&#xe004;" horiz-adv-x="542" d="M414 188l-21 -188h-78l24 188h-310q2 14 3.5 28.5t3.5 28.5l355 419h82l-52 -416h95l-7 -60h-95zM382 571l-51 -62q-56 -66 -110 -130.5t-110 -130.5h235q10 81 20.5 161.5t20.5 161.5h-5z" />
<glyph unicode="&#xe005;" horiz-adv-x="524" d="M247 354q-28 0 -57 -7t-58 -20l-43 32l44 305h351l-9 -63l-281 1l-29 -205q13 4 41 12t71 8q37 0 71 -10t60 -32t41.5 -56t15.5 -82q0 -63 -23 -109.5t-59.5 -77t-83 -45t-94.5 -14.5q-54 0 -103 9t-91 31l25 59q57 -21 92.5 -26t64.5 -5q41 0 76.5 10t61.5 31.5t41 54 t15 77.5q0 31 -11 54t-30 38t-44.5 22.5t-54.5 7.5z" />
<glyph unicode="&#xe006;" horiz-adv-x="542" d="M153 366q35 20 78 34.5t91 14.5q35 0 66.5 -10t55 -31t37 -54t13.5 -80q0 -57 -19 -103t-52 -78t-78 -49t-97 -17q-56 0 -92.5 17t-58.5 48t-31 73t-9 92q0 94 19.5 176t58 143t94.5 96.5t129 35.5q52 0 87.5 -11t51.5 -20l-21 -57q-33 14 -65 19t-55 5q-54 0 -91 -27 t-61.5 -65.5t-37.5 -79.5t-18 -69zM300 352q-36 0 -65 -7.5t-49.5 -17t-32.5 -17.5t-13 -9q-2 -19 -4.5 -40t-2.5 -44q0 -29 5 -57.5t19 -51.5t38 -37.5t62 -14.5q39 0 68.5 13.5t50 37.5t30.5 56.5t10 70.5q0 53 -25 85.5t-91 32.5z" />
<glyph unicode="&#xe007;" horiz-adv-x="451" d="M48 601l8 63h390l6 -59l-339 -605h-79l339 602z" />
<glyph unicode="&#xe008;" horiz-adv-x="542" d="M325 611q-40 0 -65.5 -13.5t-40.5 -32t-20.5 -37.5t-5.5 -31q0 -22 10.5 -38t29 -29.5t43 -25.5t52.5 -26q60 39 83.5 73.5t23.5 64.5q0 16 -5 33t-18 31t-34 22.5t-53 8.5zM250 53q40 0 70 11t50.5 29.5t30.5 42.5t10 50q0 27 -10 48t-31 39t-53.5 34t-77.5 34 q-34 -20 -57 -44t-36.5 -48t-19 -47.5t-5.5 -42.5q0 -44 32 -75t97 -31zM335 676q36 0 68 -9.5t56 -28.5t38 -48.5t14 -68.5q0 -42 -28.5 -86t-89.5 -86q41 -23 67.5 -62t26.5 -96q0 -36 -15 -71.5t-45.5 -64t-75.5 -46t-105 -17.5q-51 0 -89 12.5t-64 34.5t-39 52t-13 64 q0 27 8.5 57t26.5 59t45.5 55t64.5 44q-36 23 -54.5 52t-18.5 67q0 39 16.5 73.5t46 59.5t70.5 39.5t89 14.5z" />
<glyph unicode="&#xe009;" horiz-adv-x="542" d="M412 301q-14 -8 -33.5 -17t-42.5 -16.5t-47.5 -12t-46.5 -4.5q-35 0 -66.5 9.5t-54.5 30.5t-36.5 54t-13.5 80q0 57 18.5 103t51.5 78.5t77.5 50t97.5 17.5q55 0 92 -17.5t59 -48t31 -73t9 -92.5q0 -94 -19.5 -176t-58 -142.5t-95 -95.5t-129.5 -35q-51 0 -91 10.5 t-55 19.5l20 57q34 -14 70 -19t59 -5q54 0 91.5 27t62 65.5t37 79.5t16.5 69zM264 314q36 0 65 7.5t49.5 17t32 17.5t13.5 9q2 19 4 38.5t2 40.5q0 29 -4.5 58t-18 52.5t-37.5 38t-64 14.5q-39 0 -68.5 -13.5t-49.5 -37t-30.5 -56t-10.5 -71.5q0 -52 26 -83.5t91 -31.5z" />
<glyph unicode="&#xe00a;" horiz-adv-x="517" d="M431 410l-57 -168h73l-15 -47h-74l-64 -195h-50l63 195h-142l-64 -195h-50l64 195h-72l14 47h74l57 168h-78l14 46h79l59 172h50l-58 -172h142l59 172h50l-59 -172h68l-14 -46h-69zM182 242h142l56 168h-142z" />
<glyph unicode="&#xe00b;" horiz-adv-x="542" d="M347 731h37l-8 -65q30 -2 62 -12t55 -24l-26 -55q-35 17 -56.5 23t-41.5 8l-30 -241q28 -12 54.5 -24.5t46.5 -31t32 -45t12 -64.5q0 -44 -15.5 -77.5t-41.5 -56.5t-60 -37.5t-72 -20.5l-10 -83h-37zM215 -75h-36l10 83q-38 4 -74 16t-68 33l31 53q42 -24 70 -31t49 -10 l32 260q-26 10 -49 23.5t-40 32t-26.5 42.5t-9.5 56q0 37 13.5 67.5t36 53.5t52.5 38t64 22l8 67h36zM303 71q50 8 82 40.5t32 84.5q0 40 -24 62.5t-62 37.5zM262 601q-17 -5 -33.5 -14.5t-29 -24t-20 -32.5t-7.5 -40q0 -40 18 -59.5t47 -32.5z" />
<glyph unicode="&#xe00c;" horiz-adv-x="542" d="M450 310l-5 -41h-280v-20q0 -41 9.5 -76t30.5 -60.5t55.5 -39.5t84.5 -14q11 0 23.5 0.5t28.5 3t37.5 6.5t50.5 11l13 -60q-33 -12 -81 -19.5t-91 -7.5q-62 0 -107 18.5t-74 51.5t-43 79t-14 101q0 6 0.5 12.5t0.5 13.5h-48l5 41h404zM51 358l5 41h48q7 54 28.5 104 t57.5 87.5t87.5 60t119.5 22.5q49 0 84 -6.5t67 -20.5l-22 -61q-42 16 -79.5 19.5t-54.5 3.5q-86 0 -139 -53.5t-71 -155.5h278l-5 -41h-404z" />
<glyph unicode="&#xe00e;" horiz-adv-x="542" d="M161 364l17 107q7 43 22 79.5t40.5 63.5t62 42.5t85.5 15.5q42 0 83.5 -9.5t68.5 -23.5l-29 -61q-38 18 -70 22.5t-56 4.5q-35 0 -58 -10t-38 -28.5t-23 -44t-14 -56.5l-18 -102h180l-6 -53h-183l-13 -81q-4 -24 -10 -49.5t-15 -48t-20 -41.5t-26 -30h329l-7 -61h-430 l8 60q23 10 39.5 29t28 42.5t18.5 50t11 50.5l14 79h-65l6 53h68z" />
<glyph unicode="&#xe00f;" horiz-adv-x="512" d="M233 28q-41 3 -69 17t-45.5 37t-25.5 54t-9 68q0 44 8 96.5t31.5 100.5t65 83.5t107.5 44.5l12 98h43l-12 -95q79 -1 135 -37l-25 -50q-40 20 -69 22.5t-48 2.5h-1l-46 -381q32 1 62 8.5t65 21.5l18 -50q-29 -16 -70 -27.5t-83 -13.5l-9 -76h-44zM164 215q0 -45 16.5 -79 t60.5 -44l46 371q-31 -11 -54 -35t-38.5 -57t-23 -73t-7.5 -83z" />
<glyph unicode="&#xe010;" horiz-adv-x="530" d="M58 288l5 40h135q-30 85 -61 168t-60 168h79q15 -48 30.5 -95t32.5 -95l42 -129h4q19 32 37 64t38 64q4 9 20 36.5t34.5 59t35 59t21.5 36.5h83q-53 -85 -104.5 -168t-103.5 -168h138l-5 -40h-401zM453 238l-5 -41h-162l-24 -197h-80l24 197h-159l5 41h401z" />
<glyph unicode="&#xe024;" horiz-adv-x="542" d="M307 496q60 0 98.5 -19.5t61 -50t31.5 -68t9 -74.5q0 -49 -14.5 -100.5t-46 -94t-81 -69.5t-119.5 -27q-59 0 -99 17.5t-64 46t-34 66t-10 76.5q0 47 13.5 99t45 96t82.5 73t127 29zM299 429q-54 0 -89.5 -23.5t-55.5 -58t-28 -73.5t-8 -71q0 -31 7 -57.5t23.5 -45.5 t43 -30t64.5 -11q47 0 79.5 21t53 54t30 72.5t9.5 76.5q0 25 -5 51t-19.5 47t-39.5 34.5t-65 13.5z" />
<glyph unicode="&#xe025;" horiz-adv-x="542" d="M95 60h138l42 350l-152 -23l-3 49l172 55h73l-52 -431h128l-6 -60h-346z" />
<glyph unicode="&#xe026;" horiz-adv-x="542" d="M175 61h283q-2 -18 -2.5 -23t-1 -7.5t-1 -7.5t-2.5 -23h-417l6 55q32 17 69.5 38t75.5 45.5t73.5 51t62.5 53.5t43.5 54t16.5 52q0 32 -22 55.5t-76 23.5q-23 0 -71 -10.5t-106 -41.5l-26 49q67 41 120.5 54.5t89.5 13.5q86 0 128.5 -37.5t42.5 -92.5q0 -47 -29 -91 t-72 -82.5t-93 -70.5t-93 -54z" />
<glyph unicode="&#xe027;" horiz-adv-x="542" d="M318 214q28 -6 53 -19.5t43 -33.5t28.5 -45.5t11.5 -55.5q-1 -41 -19.5 -78.5t-51.5 -66t-80 -45t-104 -16.5q-47 0 -95.5 8.5t-88.5 30.5l25 53q53 -19 88 -24.5t65 -5.5q37 0 69.5 9t57 26.5t39 43t14.5 58.5q0 57 -40.5 87t-106.5 30q-13 0 -26.5 -1t-27.5 -3l-9 54 q58 10 98.5 24.5t66 32.5t36.5 38.5t11 41.5q1 32 -24.5 52t-82.5 20q-31 0 -74 -9t-95 -30l-20 52q52 26 106 39t100 13t78.5 -10t53 -27t30 -39.5t9.5 -46.5q0 -27 -11.5 -52t-30.5 -45t-44 -35.5t-52 -22.5v-2z" />
<glyph unicode="&#xe028;" horiz-adv-x="542" d="M446 490l-52 -430h92l-7 -60h-91l-16 -140h-76l17 140h-303l6 58l350 432h80zM353 376l-253 -316h220l38 316h-5z" />
<glyph unicode="&#xe029;" horiz-adv-x="542" d="M246 194q-58 0 -112 -24l-42 29l54 289h336l-8 -63l-271 1l-34 -188q20 5 44.5 11t62.5 6q36 0 69.5 -9.5t59.5 -29.5t41.5 -51.5t15.5 -76.5q0 -57 -21.5 -100.5t-57 -73t-81 -45t-94.5 -15.5q-51 0 -100 8.5t-90 30.5l26 54q51 -15 87 -21.5t66 -6.5q40 0 74 10t59 30 t38.5 50t13.5 71q0 29 -10.5 50.5t-29 35.5t-43.5 21t-53 7z" />
<glyph unicode="&#xe02a;" horiz-adv-x="542" d="M155 347q30 17 72 30.5t92 13.5q34 0 65 -9t54 -28t36.5 -50t13.5 -74q0 -53 -17.5 -96.5t-49 -75t-75 -48.5t-96.5 -17q-56 0 -92.5 17t-58.5 47.5t-30.5 72t-8.5 89.5q0 89 20.5 165t59.5 131.5t94 87t124 31.5q50 0 84 -11t50 -19l-23 -55q-33 14 -63 18.5t-53 4.5 q-52 0 -88 -24.5t-59.5 -60t-36.5 -73.5t-18 -65zM296 328q-33 0 -60.5 -7t-47.5 -15.5t-31.5 -16t-12.5 -8.5q-4 -26 -5 -43.5t-1 -32.5q0 -27 5 -53.5t18 -47.5t36.5 -34.5t61.5 -13.5t66.5 13.5t47.5 36t28.5 52.5t9.5 63q0 48 -26 77.5t-89 29.5z" />
<glyph unicode="&#xe02b;" horiz-adv-x="542" d="M98 427l7 62h369l7 -57l-325 -571h-84l323 566h-297z" />
<glyph unicode="&#xe02c;" horiz-adv-x="542" d="M318 571q-39 0 -63 -13t-37.5 -30t-18.5 -34.5t-5 -27.5q0 -20 12 -35t30.5 -28t41 -23.5t44.5 -21.5q58 36 80 65t22 61q0 15 -5.5 30.5t-18 28t-33 20.5t-49.5 8zM249 54q34 0 62 9.5t48 26t31 38.5t11 46q0 50 -42.5 82t-120.5 63q-32 -20 -53 -42t-34.5 -44.5 t-19 -43.5t-5.5 -38q0 -42 30 -69.5t93 -27.5zM327 635q32 0 63 -8.5t55.5 -26.5t39.5 -44.5t15 -62.5q0 -19 -5 -39t-17.5 -40.5t-35 -41.5t-58.5 -42q45 -23 69.5 -60t24.5 -88q0 -36 -15.5 -70.5t-45.5 -61t-75 -42.5t-103 -16q-48 0 -84 12t-59.5 33t-35.5 49.5 t-12 60.5q0 24 6.5 50.5t22 53t41 51.5t63.5 46q-35 23 -51.5 50t-16.5 64q0 38 16 70t44.5 55t68 35.5t85.5 12.5z" />
<glyph unicode="&#xe02d;" horiz-adv-x="542" d="M398 141q-2 1 -3 1t-2 1q-29 -17 -70 -31t-92 -14q-34 0 -65 9t-54 28.5t-37 49.5t-14 73q0 54 18 97.5t50.5 75t76.5 48.5t95 17q55 0 91 -17t57.5 -46.5t30 -70t8.5 -87.5q0 -89 -19.5 -166t-57 -133.5t-93 -89t-126.5 -32.5q-51 0 -89 11t-53 19l22 56 q33 -14 67 -18.5t57 -4.5q51 0 87 25t60 60.5t37 73.5t18 65zM253 160q33 0 60.5 7t47.5 15.5t31.5 16t13.5 8.5q2 27 3.5 44t1.5 33q0 26 -5 52t-18.5 47t-36.5 34t-60 13q-38 0 -66.5 -13t-47.5 -34.5t-28.5 -51t-9.5 -62.5q0 -49 25 -79t89 -30z" />
<glyph unicode="&#xe02e;" horiz-adv-x="542" d="M409 346l-50 -138h65l-14 -43h-66l-57 -165h-49l57 165h-124l-57 -165h-50l58 165h-65l14 43h66l50 138h-70l14 44h70l53 144h50l-52 -144h122l52 144h50l-52 -144h60l-13 -44h-62zM187 208h123l49 138h-122z" />
<glyph unicode="&#xe02f;" horiz-adv-x="542" d="M320 621h36l-7 -54q23 -2 52.5 -10t52.5 -20l-18 -49q-31 11 -55.5 16.5t-38.5 7.5l-26 -201q24 -9 47 -20.5t41 -27.5t29.5 -37t11.5 -51q0 -38 -13 -67.5t-35.5 -50.5t-53 -34t-66.5 -17l-9 -70h-37zM294 621q-22 -172 -43.5 -342.5t-44.5 -342.5h-36l9 67 q-33 4 -65.5 13.5t-61.5 27.5l24 52q23 -11 40 -17.5t29.5 -9.5t21.5 -4.5t18 -2.5l29 215q-46 17 -78 47t-32 83q0 36 12 63.5t32.5 46.5t47 31t55.5 17l7 56h36zM284 64q42 8 68.5 33t26.5 73q0 32 -19.5 49.5t-50.5 30.5zM221 341q6 42 11.5 83t10.5 83q-31 -8 -53 -30.5 t-22 -65.5q0 -29 15 -44t38 -26z" />
<glyph unicode="&#xe030;" horiz-adv-x="542" d="M376 573q16 0 35 -2t37.5 -5t35 -7t28.5 -8l-15 -56q-37 11 -69 14t-53 3q-83 0 -127.5 -45.5t-64.5 -124.5h248l-4 -40h-366l4 40h43q7 42 26.5 83.5t52.5 74.5t80 53t109 20zM421 266l-5 -37h-250q-2 -38 6 -70t27.5 -55.5t51.5 -36.5t79 -13q17 0 49.5 3t77.5 16 l12 -54q-30 -12 -72 -18.5t-80 -6.5q-119 0 -174 63t-50 172h-41l4 37h365z" />
<glyph unicode="&#xe032;" horiz-adv-x="542" d="M170 311q8 51 17 98.5t29.5 83.5t56 58t97.5 22q39 0 80.5 -8.5t66.5 -21.5l-18 -53q-33 13 -67.5 18.5t-60.5 5.5q-40 0 -63.5 -17.5t-36 -46.5t-18.5 -65.5t-12 -73.5h160l-5 -48h-164q-4 -24 -8.5 -53.5t-12 -58t-19 -54t-29.5 -41.5h298l-6 -56h-399l6 55 q28 11 46.5 38t29 58.5t15.5 62.5t8 49h-59l5 48h63z" />
<glyph unicode="&#xe033;" horiz-adv-x="542" d="M243 25q-36 3 -60.5 15t-39.5 32t-22 47t-8 60q0 38 7 83.5t27 87t56 72.5t94 39l11 86h42l-11 -83q31 -2 57.5 -8t46.5 -14l-17 -47q-29 9 -52.5 12t-40.5 3l-42 -329q26 1 52.5 7t59.5 19l17 -45q-26 -14 -63 -24.5t-72 -12.5l-8 -67h-42zM184 188q0 -19 2.5 -37 t9.5 -32t20 -23.5t34 -11.5l41 321q-26 -6 -46 -27.5t-33.5 -52t-20.5 -66.5t-7 -71z" />
<glyph unicode="&#xe034;" horiz-adv-x="542" d="M84 244l4 37h115l-114 286h78l60 -162l40 -112h6l68 113l100 161h82l-190 -286h117l-5 -37h-361zM441 207l-5 -40h-146l-20 -167h-76l22 167h-143l6 40h362z" />
<glyph unicode="&#xe059;" horiz-adv-x="733" d="M187 571q37 0 61 -11.5t37.5 -30.5t18.5 -42.5t5 -48.5q0 -33 -7 -71t-25.5 -70t-50 -53t-80.5 -21q-37 0 -61 10.5t-38.5 27.5t-20.5 40t-6 49q0 24 5.5 61.5t23.5 73t51 61t87 25.5zM589 344q37 0 60.5 -11.5t37 -30t19 -42.5t5.5 -48q0 -34 -7 -71.5t-25.5 -69.5 t-50.5 -53t-81 -21q-37 0 -61 10.5t-38.5 27.5t-20.5 40t-6 48q0 24 6 61.5t24 73t51 61t87 25.5zM234 -19h-55l343 616h54zM587 299q-25 0 -43 -11t-30 -28t-18.5 -37.5t-10 -40.5t-4.5 -37t-1 -26q0 -34 15.5 -55.5t57.5 -21.5q29 0 48 16t30 40.5t15.5 53t4.5 54.5 q0 16 -2.5 33t-9.5 30t-19.5 21.5t-32.5 8.5zM185 525q-37 0 -58.5 -23t-32 -53t-13 -60t-2.5 -43q0 -35 15.5 -56t56.5 -21q29 0 48.5 16t31 40.5t16 53t4.5 54.5q0 16 -2.5 32.5t-10 29.5t-20.5 21.5t-33 8.5z" />
<glyph unicode="&#xe06c;" horiz-adv-x="353" d="M212 597q20 0 41 -4t40 -10l6 14l48 -2q-10 -58 -20.5 -129t-19.5 -149l39 2l5 -39q-20 -8 -36.5 -11t-25.5 -3q-23 0 -33 10t-10 27v5q-28 -20 -58 -31t-53 -11q-43 0 -70.5 29t-27.5 89q0 35 10 72.5t31 69t54 51.5t80 20zM211 546q-20 0 -39.5 -10t-35 -30t-25 -49 t-9.5 -67q0 -41 15 -57.5t36 -16.5q23 0 49.5 13.5t47.5 30.5l26 178q-17 5 -34 6.5t-31 1.5z" />
<glyph unicode="&#xe06d;" horiz-adv-x="350" d="M38 299l57 447h64l-27 -191q29 20 59 30.5t53 10.5q43 0 70.5 -29t27.5 -89q0 -35 -9.5 -72.5t-30.5 -69t-54.5 -51.5t-80.5 -20q-33 0 -63.5 7t-59.5 20zM168 316q21 0 40.5 10.5t34.5 30t24.5 48.5t9.5 67q0 41 -14.5 57.5t-36.5 16.5q-23 0 -49.5 -13t-47.5 -30 l-25 -175q18 -8 33.5 -10t30.5 -2z" />
<glyph unicode="&#xe06f;" horiz-adv-x="342" d="M242 304q-26 -19 -55 -28.5t-52 -9.5q-42 0 -69.5 29t-27.5 89q0 35 10 72.5t31 69t54 51.5t80 20q18 0 36.5 -1.5t35.5 -6.5l20 146h61l-63 -465h-59l4 32zM212 546q-20 0 -39.5 -10t-35 -30t-25 -49t-9.5 -67q0 -41 14.5 -57.5t36.5 -16.5q23 0 50 13.5t48 30.5l25 177 q-18 5 -34 7t-31 2z" />
<glyph unicode="&#xe070;" horiz-adv-x="318" d="M161 268q-36 0 -59.5 10t-37 27.5t-19 40t-5.5 48.5q0 32 7.5 68.5t27 67t54 51t88.5 20.5q48 0 72.5 -23.5t24.5 -58.5q0 -30 -15.5 -51.5t-44 -36t-67.5 -22t-85 -9.5v-13q0 -12 3 -25.5t10.5 -24t21.5 -17.5t36 -7q25 0 49.5 6t52.5 17l16 -35q-25 -14 -60 -23.5 t-70 -9.5zM209 553q-46 0 -72 -31.5t-33 -83.5q72 5 110.5 23.5t38.5 51.5q0 18 -10.5 29t-33.5 11z" />
<glyph unicode="&#xe073;" horiz-adv-x="348" d="M245 270l27 225q4 29 -5.5 40.5t-28.5 11.5q-22 0 -51 -11.5t-58 -37.5l-28 -228h-65l61 478h63q-3 -23 -6 -49l-6 -52t-6 -50.5t-6 -43.5q33 26 66 36t56 10q27 0 43.5 -8t24.5 -20.5t10 -29.5t0 -35l-28 -236h-63z" />
<glyph unicode="&#xe074;" horiz-adv-x="165" d="M42 270l42 322h64q-2 -13 -5 -36t-6.5 -52.5t-8 -62.5t-8.5 -64.5t-7.5 -59.5t-6.5 -47h-64zM128 710q15 0 26 -10.5t11 -26.5q0 -17 -12 -29t-31 -12q-15 0 -26 10t-11 24q0 18 12.5 31t30.5 13z" />
<glyph unicode="&#xe077;" horiz-adv-x="164" d="M164 746l-55 -425l43 2l4 -42q-17 -10 -37 -14.5t-32 -4.5q-29 0 -36 17t-4 42l54 425h63z" />
<glyph unicode="&#xe078;" horiz-adv-x="533" d="M138 555q32 23 61 33.5t46 10.5q41 0 58 -15.5t19 -35.5q34 26 67 38.5t51 12.5q26 0 42.5 -7t25.5 -20t11 -30t0 -36l-28 -236h-64l28 231q6 46 -36 46q-17 0 -42.5 -11t-54.5 -37l-25 -229h-63l27 231q2 20 -5.5 33t-29.5 13q-18 0 -42 -11.5t-53 -37.5 q-7 -55 -14 -114t-13 -114h-66q11 79 21.5 164t19.5 158h62l-5 -35z" />
<glyph unicode="&#xe079;" horiz-adv-x="342" d="M199 601q35 0 59.5 -10.5t40 -28.5t22.5 -42t7 -51q0 -32 -7.5 -67.5t-26.5 -65t-51.5 -49t-82.5 -19.5q-36 0 -60.5 10t-39.5 27t-21.5 40.5t-6.5 50.5q0 35 8.5 71.5t28 66t51.5 48.5t79 19zM197 553q-33 0 -53 -17t-31.5 -42.5t-15 -54t-3.5 -50.5q0 -14 3.5 -27.5 t12 -23.5t22 -16t33.5 -6q32 0 51.5 16.5t30 40t14 50t3.5 46.5q0 16 -3.5 31.5t-11 27t-20.5 18.5t-32 7z" />
<glyph unicode="&#xe07c;" horiz-adv-x="226" d="M139 548q33 49 76 49q14 0 27.5 -5.5t24.5 -21.5l-19 -41q-10 3 -18 4t-15 1q-31 0 -51.5 -15.5t-31.5 -38.5l-25 -210h-64q9 72 19.5 157.5t19.5 164.5h59l-4 -42z" />
<glyph unicode="&#xe07d;" horiz-adv-x="295" d="M41 336q31 -14 57 -18t44 -4q29 0 52.5 10t23.5 36q0 17 -12 27.5t-30.5 18t-40 14.5t-40 17t-30.5 25.5t-12 40.5t10.5 43.5t28.5 29.5t41.5 16.5t49.5 5.5q20 0 49.5 -6t50.5 -19l-19 -42q-27 11 -46.5 14t-34.5 3q-10 0 -22 -2t-22 -7t-16.5 -13.5t-6.5 -22.5 q0 -15 18.5 -24t43.5 -17q15 -5 32.5 -11.5t33 -17t25.5 -26t10 -38.5q0 -28 -11.5 -47.5t-31 -32t-45.5 -18t-56 -5.5q-29 0 -61.5 7.5t-52.5 20.5z" />
<glyph unicode="&#xe07e;" horiz-adv-x="247" d="M147 548q-3 -24 -7 -51.5t-7 -54.5t-5.5 -50t-2.5 -36q0 -18 6 -28t29 -10q11 0 32.5 2.5t42.5 7.5l7 -41q-21 -10 -48 -15t-49 -5q-45 0 -65 19.5t-20 54.5q0 15 2 38.5t6 51.5t8 58t9 59h-51l6 38l52 13l25 69l48 6l-11 -79h99l-5 -47h-101z" />
<glyph unicode="&#xe0d8;" horiz-adv-x="276" d="M132 186q0 -61 7 -110t16.5 -86t20 -63.5t17.5 -42.5l-38 -25q-12 18 -28 49.5t-30.5 76t-24.5 101t-10 125.5q0 106 23 193t55 154t66.5 113t57.5 72l30 -23q-15 -20 -42.5 -65.5t-54 -113.5t-46 -157.5t-19.5 -197.5z" />
<glyph unicode="&#xe0d9;" horiz-adv-x="278" d="M154 423q0 59 -7 107.5t-17 86t-21 63.5t-18 41l36 22q13 -20 30 -51.5t32 -75t25 -98t10 -118.5q0 -110 -24.5 -200t-58 -158.5t-68 -114.5t-54.5 -68l-31 26q14 20 42 64t55.5 112t48 158.5t20.5 203.5z" />
<glyph unicode="&#xe0da;" horiz-adv-x="355" d="M54 260l9 68h251l-9 -68h-251z" />
<glyph unicode="&#xe0db;" horiz-adv-x="252" d="M7 -129l106 856h165q-2 -14 -3.5 -27t-3.5 -27h-94l-92 -747h94q-2 -14 -3.5 -27.5t-3.5 -27.5h-165z" />
<glyph unicode="&#xe0dc;" horiz-adv-x="252" d="M-13 -129q2 14 3.5 27.5t3.5 27.5h93l92 747h-94l6 54h166l-105 -856h-165z" />
<glyph unicode="&#xe0dd;" horiz-adv-x="257" d="M151 -139q-54 0 -74 21.5t-20 62.5v10.5t1 10.5q8 57 14.5 115t14.5 116q3 19 3 36q0 26 -14 43.5t-40 25.5l6 45q41 11 55 36t22 75l19 149q2 18 8 40t18 40.5t32 31.5t50 13h50l-8 -54h-24q-18 0 -28.5 -6t-16 -16t-7.5 -23.5t-4 -29.5l-19 -158q-2 -19 -7 -38 t-13.5 -35.5t-21.5 -28.5t-31 -17q27 -15 37 -35t10 -47q0 -18 -3 -39l-28 -225q-1 -8 -1 -14.5v-13.5q2 -16 8.5 -26.5t26.5 -10.5h29l-6 -54h-38z" />
<glyph unicode="&#xe0de;" horiz-adv-x="257" d="M121 733q54 0 74 -21.5t20 -62.5v-10.5t-1 -10.5q-4 -29 -7 -50.5t-6 -41.5t-6 -42t-7 -51q-3 -20 -3 -36q0 -26 14 -43.5t40 -25.5l-6 -45q-41 -11 -55 -36t-22 -75l-22 -195q-2 -18 -8 -40t-18 -40.5t-32 -31.5t-50 -13h-50l8 54h24q18 0 28.5 6t16 16t7.5 23.5t4 29.5 l22 204q2 19 7 38t13.5 35.5t21.5 28.5t31 17q-27 15 -37 35t-10 47q0 18 3 39l25 179q1 8 1 14.5v13.5q-2 16 -8.5 26.5t-26.5 10.5h-29l6 54h38z" />
<glyph unicode="&#xe0df;" horiz-adv-x="485" d="M32 256l8 60h427l-7 -60h-428z" />
<glyph unicode="&#xe0e0;" horiz-adv-x="970" d="M35 256l8 60h899l-7 -60h-900z" />
<glyph unicode="&#xe0e3;" horiz-adv-x="420" d="M58 238l161 159l30 -26l-117 -153l80 -152l-36 -25l-123 158zM202 238l161 159l29 -26l-116 -153l79 -152l-35 -25l-123 158z" />
<glyph unicode="&#xe0e4;" horiz-adv-x="420" d="M363 199l-163 -158l-28 25l115 152l-78 153l37 26l122 -159zM220 199l-163 -158l-29 25l116 152l-78 153l36 26l123 -159z" />
<glyph unicode="&#xe0fb;" horiz-adv-x="712" d="M729 235q-20 -33 -52 -51t-84 -18q-6 0 -12.5 0.5t-12.5 0.5q-16 -36 -42.5 -68t-61 -56t-77.5 -38t-92 -14q-45 0 -77 12.5t-52.5 33.5t-29.5 48.5t-9 56.5q0 54 15 94.5t39 67.5t54.5 41t60.5 14q42 0 61 -18.5t19 -43.5q0 -16 -5.5 -32.5t-17.5 -32.5q18 4 34.5 5 t34.5 1q23 0 48.5 -2.5t54.5 -7.5q3 16 4 31t1 31q0 34 -10.5 64.5t-33 53t-58.5 35.5t-86 13q-56 0 -99.5 -18.5t-75 -50t-51 -72t-28.5 -84.5q-14 1 -27.5 2.5t-27.5 3.5q7 48 29 96.5t60.5 87.5t94.5 63.5t131 24.5q66 0 112.5 -18t76 -47.5t43.5 -68.5t14 -81 q0 -37 -8 -75q24 0 39.5 2t27.5 7.5t21.5 14t20.5 22.5zM289 168q-9 3 -13.5 17.5t-8.5 24.5q19 15 30.5 33t11.5 32q0 22 -28 22q-11 0 -27 -7.5t-31 -25t-25.5 -45t-10.5 -66.5q0 -55 30.5 -83t87.5 -28q29 0 58.5 10t56.5 28t49 43t36 55q-25 5 -50 7.5t-47 2.5 q-27 0 -56 -5t-63 -15z" />
<glyph unicode="&#xe0fc;" horiz-adv-x="195" d="M176 518l-28 -223l-29 -171h-53l14 173l23 221h73zM85 78q20 0 32 -12t11 -29q-1 -18 -16.5 -31.5t-35.5 -13.5q-19 0 -30.5 11.5t-11.5 29.5q1 17 15 31t36 14z" />
<glyph unicode="&#xe0fd;" horiz-adv-x="368" d="M228 523q72 0 107 -24.5t35 -69.5q0 -41 -25.5 -71t-60.5 -54q-61 -41 -88.5 -71t-27.5 -64q0 -16 0.5 -23t1.5 -17l-57 -9q-3 17 -4 29t-1 22q0 24 5.5 43.5t19 38t35 37t54.5 40.5q32 21 52 41t20 47q0 25 -21 35.5t-55 10.5q-18 0 -45.5 -3t-79.5 -16l-16 53 q41 14 80.5 19.5t70.5 5.5zM148 77q20 0 31.5 -11t11.5 -27q0 -20 -16 -33t-35 -13q-18 0 -30 10.5t-12 26.5q0 19 14 33t36 14z" />
<glyph unicode="&#xe0fe;" horiz-adv-x="478" d="M359 0l-30 140h-197l-66 -140h-81l245 510h93l121 -510h-85zM264 439l-25 -57l-82 -186h161l-36 170l-13 73h-5z" />
<glyph unicode="&#xe0ff;" horiz-adv-x="508" d="M380 266q38 -15 53 -47t15 -64q0 -36 -14 -64.5t-38 -49t-56 -31t-69 -10.5h-233l62 510h212q77 0 112 -33t35 -86q0 -36 -16.5 -67t-61.5 -54zM145 233l-21 -169h138q55 0 81 27.5t26 66.5q0 31 -21 53t-65 22h-138zM171 446l-18 -152h131q43 0 69.5 24t26.5 66 q0 29 -19 45.5t-59 16.5h-131z" />
<glyph unicode="&#xe100;" horiz-adv-x="472" d="M429 20q-16 -6 -37 -10.5t-43 -8t-44.5 -5t-41.5 -1.5q-59 0 -98.5 15t-63.5 42t-34.5 65.5t-10.5 85.5q0 45 11 99.5t41 102.5t83 80.5t137 32.5q46 0 80.5 -6.5t58.5 -15.5l-17 -60q-39 11 -71.5 14t-52.5 3q-93 0 -141.5 -67t-48.5 -184q0 -33 7.5 -59.5t24.5 -45.5 t45.5 -29t69.5 -10q11 0 26.5 1t33.5 3.5t37 6t37 8.5z" />
<glyph unicode="&#xe101;" horiz-adv-x="521" d="M38 0l62 510h179q57 0 95 -16.5t60.5 -45t32 -66.5t9.5 -82q0 -60 -13 -114.5t-43.5 -95.5t-80.5 -65.5t-124 -24.5h-177zM171 446l-47 -383h85q15 0 34.5 1.5t40.5 8t40.5 21t35.5 39.5t25.5 63t9.5 93q0 58 -14 89.5t-35 46.5t-44.5 18t-41.5 3h-89z" />
<glyph unicode="&#xe102;" horiz-adv-x="446" d="M38 0l62 510h334l-8 -64h-254l-17 -149h200l-9 -64h-200l-21 -169h279l-7 -64h-359z" />
<glyph unicode="&#xe103;" horiz-adv-x="422" d="M38 0l62 510h338l-8 -64h-260l-19 -147l201 -1l-7 -64h-200l-29 -234h-78z" />
<glyph unicode="&#xe104;" horiz-adv-x="500" d="M339 518q45 0 80 -6.5t61 -14.5l-17 -60q-36 11 -70.5 14t-54.5 3q-51 0 -88.5 -18t-63 -51t-38 -79.5t-12.5 -103.5q0 -31 7 -57.5t23 -45.5t43 -29.5t68 -10.5q19 0 44.5 2.5t43.5 7.5l23 198h74l-29 -248q-42 -14 -86.5 -19.5t-83.5 -5.5q-57 0 -97 14.5t-64.5 41.5 t-35.5 65t-11 85q0 29 4.5 64.5t16 70.5t32 68t52 58.5t75.5 41t104 15.5z" />
<glyph unicode="&#xe105;" horiz-adv-x="521" d="M355 0l28 236h-239l-27 -236h-79l62 509h79l-27 -211h239l26 211h78l-62 -509h-78z" />
<glyph unicode="&#xe106;" horiz-adv-x="214" d="M43 0l62 510h78l-62 -510h-78z" />
<glyph unicode="&#xe107;" horiz-adv-x="238" d="M131 510h81l-52 -408q-12 -96 -63.5 -152t-156.5 -82l-20 60q43 18 72 35.5t47 37.5t27.5 44.5t13.5 56.5z" />
<glyph unicode="&#xe108;" horiz-adv-x="467" d="M117 0h-79l62 510h79l-27 -218l244 218h93l-234 -205l177 -305h-86l-147 255l-57 -49z" />
<glyph unicode="&#xe109;" horiz-adv-x="423" d="M38 0l62 510h78l-55 -446l272 -1l-7 -63h-350z" />
<glyph unicode="&#xe10a;" horiz-adv-x="655" d="M325 137l55 116l130 259h85v-512h-79l4 262l2 125h-5q-14 -26 -27.5 -56.5t-27.5 -56.5q-30 -57 -59.5 -113.5t-58.5 -113.5h-74l-57 216l-30 119l-5 -2q-5 -29 -11 -61t-12 -61q-14 -66 -27 -130.5t-25 -127.5h-82l116 512h85l64 -243l33 -132h6z" />
<glyph unicode="&#xe10b;" horiz-adv-x="547" d="M159 390q-5 -42 -10 -83.5t-10 -88t-11 -100t-13 -118.5h-77l62 509h81l170 -308l45 -84h1l48 392h76l-63 -509h-73l-189 335q-9 17 -17 29.5t-16 29.5z" />
<glyph unicode="&#xe10c;" horiz-adv-x="570" d="M328 518q58 0 96 -17t60.5 -46.5t31.5 -68.5t9 -83q0 -66 -16.5 -122.5t-49.5 -98t-82 -65t-113 -23.5q-57 0 -97 14.5t-64.5 41.5t-35.5 65t-11 86q0 61 15 118t47.5 101.5t84 71t125.5 26.5zM321 459q-53 0 -88.5 -23.5t-57 -61t-30.5 -84.5t-9 -93q0 -71 32 -108 t103 -37q44 0 77 21.5t54.5 57t32.5 81.5t11 96q0 30 -5.5 57t-20 48t-38.5 33.5t-61 12.5z" />
<glyph unicode="&#xe10d;" horiz-adv-x="450" d="M285 510q72 0 114 -34t42 -103q0 -30 -10 -60t-31.5 -54t-57 -39.5t-86.5 -15.5h-115l-25 -204h-78l62 510h185zM171 448l-23 -186h106q19 0 38 5.5t34.5 18t25 33t9.5 50.5q0 43 -23.5 61t-63.5 18h-103z" />
<glyph unicode="&#xe10e;" horiz-adv-x="574" d="M321 518q59 0 98 -17.5t62.5 -47.5t33.5 -70t10 -85q0 -91 -35.5 -164.5t-106.5 -110.5q26 -6 57 -13t55 -12q-8 -17 -15.5 -34t-15.5 -34l-211 66h1q-54 1 -92 15.5t-61.5 40.5t-34.5 63t-11 83q0 57 14 114t45.5 103t82 74.5t124.5 28.5zM321 459q-53 0 -88.5 -23.5 t-56.5 -60.5t-29.5 -82.5t-8.5 -90.5q0 -75 30.5 -112.5t102.5 -37.5q45 0 77.5 21.5t54.5 57t32.5 81.5t10.5 96q0 29 -5.5 56.5t-19.5 48.5t-38.5 33.5t-61.5 12.5z" />
<glyph unicode="&#xe10f;" horiz-adv-x="480" d="M292 510q81 0 116.5 -36.5t35.5 -96.5q0 -47 -26.5 -83t-68.5 -54l-1 -4q27 -12 36.5 -35.5t14.5 -50.5l28 -150h-82l-27 140q-8 43 -28 59.5t-59 16.5h-87l-26 -216h-80l62 510h192zM253 277q16 0 35 3.5t35 14t26.5 29.5t10.5 49q0 42 -24 58t-64 16h-100l-20 -170h101 z" />
<glyph unicode="&#xe110;" horiz-adv-x="447" d="M258 458q-46 0 -78 -17.5t-34 -62.5q0 -19 10.5 -31t27.5 -21t38.5 -16t43.5 -14q30 -10 56.5 -22t46.5 -29.5t31.5 -41t11.5 -56.5q0 -38 -17 -66.5t-46 -47.5t-68 -29t-84 -10q-43 0 -91.5 9t-87.5 31l29 58q50 -23 86.5 -29t61.5 -6q30 0 56 4.5t44.5 14.5t29.5 26 t11 39q0 33 -24.5 53.5t-72.5 35.5q-32 10 -63 20.5t-55 25t-39 35.5t-15 53q0 38 15 67t41 48.5t61 29t76 9.5q32 0 73 -7t75 -27l-24 -56q-36 18 -70.5 24t-55.5 6z" />
<glyph unicode="&#xe111;" horiz-adv-x="452" d="M164 0l54 448h-173l7 62h422l-7 -62h-171l-56 -448h-76z" />
<glyph unicode="&#xe112;" horiz-adv-x="536" d="M475 185q-11 -86 -66 -138t-161 -52q-112 0 -158 50t-34 148l39 317h77l-40 -325q-8 -66 18 -99.5t99 -33.5q64 0 103 33.5t47 99.5l40 325h75z" />
<glyph unicode="&#xe113;" horiz-adv-x="461" d="M220 84l35 81l155 344h78l-238 -509h-89l-114 509h79l64 -303l27 -122h3z" />
<glyph unicode="&#xe114;" horiz-adv-x="663" d="M345 399l-44 -134l-93 -265h-90l-71 508h78l37 -294l11 -121h4l38 116l110 299h74l46 -297l14 -115h6l41 120l108 292h76l-194 -508h-84l-43 269l-18 130h-6z" />
<glyph unicode="&#xe115;" horiz-adv-x="454" d="M187 264l-131 246h91l95 -199l145 199h88l-193 -248l137 -262h-88l-105 215l-154 -215h-87z" />
<glyph unicode="&#xe116;" horiz-adv-x="430" d="M227 277l55 85l98 146h82l-204 -288l-27 -220h-81l26 217l-134 291h79l67 -149l33 -82h6z" />
<glyph unicode="&#xe117;" horiz-adv-x="433" d="M99 64h296l-7 -64h-382l-12 51l337 395h-265l9 64h346l13 -49z" />
<glyph unicode="&#xe119;" horiz-adv-x="670" d="M310 518q19 0 43 -3t38 -6h265l-6 -55l-246 -1l-17 -159l188 3l-5 -63l-189 5l-21 -184l274 1l-7 -56h-303q-14 -2 -32 -3.5t-51 -1.5q-50 0 -86 14.5t-58.5 40.5t-33 62t-10.5 79q0 60 12.5 118.5t42 105t79 75t123.5 28.5zM316 459q-55 0 -91 -21.5t-57 -58.5 t-29.5 -85t-8.5 -101q0 -35 6.5 -61.5t22 -44.5t41 -27t63.5 -9q5 0 10 0.5t10 0.5l45 406q-2 1 -6 1h-6z" />
<glyph unicode="&#xe122;" horiz-adv-x="780" d="M410 152h-195l-108 -152h-87l363 509h357l-4 -55l-235 -1l-8 -154l183 -1l-3 -58h-181l-11 -185h260l-3 -55h-337zM422 451l-166 -240h155l16 240h-5z" />
<glyph unicode="&#xe1a9;" horiz-adv-x="446" d="M38 0l62 510h334l-8 -64h-254l-17 -149h200l-9 -64h-200l-21 -169h279l-7 -64h-359zM410 633q0 -22 -15.5 -36.5t-38.5 -14.5q-19 0 -29.5 12t-9.5 31q1 21 16.5 35.5t33.5 14.5q20 0 32 -11t11 -31zM229 633q-1 -22 -16 -36.5t-38 -14.5q-19 0 -30.5 12t-10.5 31 q1 21 17.5 35.5t33.5 14.5q20 0 32.5 -11t11.5 -31z" />
<glyph unicode="&#xe1aa;" horiz-adv-x="588" d="M406 323q39 0 67 -11t45.5 -31t26 -47t8.5 -58q0 -46 -16.5 -84.5t-43.5 -70t-61 -56t-68 -42.5l-24 39q58 38 96.5 90t38.5 113q0 99 -98 99q-51 0 -117 -23l-29 -241h-78l54 446h-159l8 64h431l-8 -64h-194l-18 -149q39 14 74.5 20t64.5 6z" />
<glyph unicode="&#xe1ab;" horiz-adv-x="422" d="M116 0h-78l62 510h338l-8 -64h-260zM246 558l-40 34l136 165l59 -56z" />
<glyph unicode="&#xe1ac;" horiz-adv-x="472" d="M429 20q-16 -6 -37 -10.5t-43 -8t-44.5 -5t-41.5 -1.5q-59 0 -98.5 15t-63.5 42t-34.5 65.5t-10.5 85.5q0 45 11 99.5t41 102.5t83 80.5t137 32.5q46 0 77.5 -6.5t55.5 -15.5l-17 -60q-39 11 -68.5 14t-49.5 3q-72 0 -117 -40.5t-63 -113.5l195 5l-7 -62l-196 3 q-1 -11 -1.5 -21.5t-0.5 -21.5q0 -33 7.5 -59.5t24.5 -45.5t45.5 -29t69.5 -10q11 0 26.5 1t33.5 3.5t37 6t37 8.5z" />
<glyph unicode="&#xe1ad;" horiz-adv-x="447" d="M258 458q-46 0 -78 -17.5t-34 -62.5q0 -19 10.5 -31t27.5 -21t38.5 -16t43.5 -14q30 -10 56.5 -22t46.5 -29.5t31.5 -41t11.5 -56.5q0 -38 -17 -66.5t-46 -47.5t-68 -29t-84 -10q-43 0 -91.5 9t-87.5 31l29 58q50 -23 86.5 -29t61.5 -6q30 0 56 4.5t44.5 14.5t29.5 26 t11 39q0 33 -24.5 53.5t-72.5 35.5q-32 10 -63 20.5t-55 25t-39 35.5t-15 53q0 38 15 67t41 48.5t61 29t76 9.5q32 0 73 -7t75 -27l-24 -56q-36 18 -70.5 24t-55.5 6z" />
<glyph unicode="&#xe1ae;" horiz-adv-x="214" d="M43 0l62 510h78l-62 -510h-78z" />
<glyph unicode="&#xe1af;" horiz-adv-x="214" d="M43 0l62 510h78l-62 -510h-78zM296 633q0 -22 -15.5 -36.5t-38.5 -14.5q-19 0 -29.5 12t-9.5 31q1 21 16.5 35.5t33.5 14.5q20 0 32 -11t11 -31zM115 633q-1 -22 -16 -36.5t-38 -14.5q-19 0 -30.5 12t-10.5 31q1 21 17.5 35.5t33.5 14.5q20 0 32.5 -11t11.5 -31z" />
<glyph unicode="&#xe1b0;" horiz-adv-x="238" d="M131 510h81l-52 -408q-12 -96 -63.5 -152t-156.5 -82l-20 60q43 18 72 35.5t47 37.5t27.5 44.5t13.5 56.5z" />
<glyph unicode="&#xe1b1;" horiz-adv-x="768" d="M437 306h136q44 0 74.5 -11t49 -30.5t27 -45.5t8.5 -55q0 -41 -15 -71.5t-40.5 -51t-59.5 -31t-71 -10.5h-224l55 448h-130l-6 -44q-11 -87 -25 -159.5t-40.5 -127.5t-68.5 -89.5t-109 -46.5l-9 56q49 16 79 44t49 71.5t29.5 103t21.5 139.5l15 115h279zM429 243 l-22 -179h137q22 0 42 5t35.5 16.5t25 30.5t9.5 47q0 23 -8 38.5t-22 24.5t-32 13t-37 4h-128z" />
<glyph unicode="&#xe1b2;" horiz-adv-x="764" d="M437 311h133q42 0 72 -11t49.5 -29.5t28.5 -44.5t9 -56q0 -44 -15 -76t-40.5 -53t-59.5 -31t-72 -10h-220l30 247h-204l-30 -247h-80l62 510h80l-24 -200h204l24 200h77zM429 248l-23 -184h134q22 0 42.5 6t36.5 18t25 31t9 45q0 46 -28.5 65t-70.5 19h-125z" />
<glyph unicode="&#xe1b3;" horiz-adv-x="613" d="M530 0h-77l22 183q5 42 -16.5 64.5t-73.5 22.5q-30 0 -63 -7.5t-60 -18.5l-29 -244h-78l55 448h-161l7 62h445l-7 -62h-206l-18 -144q38 12 73.5 17.5t68.5 5.5q76 0 113 -34t29 -96z" />
<glyph unicode="&#xe1b4;" horiz-adv-x="484" d="M339 273q38 -6 50.5 -32t17.5 -59l32 -182h-79l-29 164q-5 25 -15 40.5t-23 24t-28 11.5t-30 3h-89l-29 -243h-79l62 510h79l-25 -206h83q12 0 25.5 2.5t26.5 10t25 22.5t22 40l53 131h79l-53 -141q-14 -35 -30 -59.5t-45 -33.5zM270 558l-40 34l136 165l59 -56z" />
<glyph unicode="&#xe1b5;" horiz-adv-x="453" d="M232 174l51 102l120 234h79l-232 -440q-22 -42 -49.5 -62.5t-68.5 -20.5q-12 0 -33.5 1.5t-58.5 12.5l18 60q24 -6 38.5 -8t27.5 -2q17 0 29.5 6t25.5 32l17 33h-23l-123 388h78l72 -242l27 -94h5zM269 549q-26 0 -47 9.5t-38.5 25.5t-32 36t-26.5 41l49 34 q23 -38 50.5 -60.5t55.5 -22.5q9 0 22 1.5t30.5 9t41 23t53.5 42.5l23 -25q-50 -63 -96.5 -88.5t-84.5 -25.5z" />
<glyph unicode="&#xe1b6;" horiz-adv-x="521" d="M495 509l-62 -509h-164l-17 -134h-63l17 134h-168l62 509h79l-56 -447h239l55 447h78z" />
<glyph unicode="&#xe1b7;" horiz-adv-x="478" d="M359 0l-30 140h-197l-66 -140h-81l245 510h93l121 -510h-85zM264 439l-25 -57l-82 -186h161l-36 170l-13 73h-5z" />
<glyph unicode="&#xe1b8;" horiz-adv-x="485" d="M429 448h-257l-18 -145h135q42 0 72.5 -10.5t50 -28.5t29 -43t9.5 -54q0 -41 -15 -72.5t-41 -52.5t-60 -31.5t-72 -10.5h-224l62 510h336zM146 239l-22 -175h135q22 0 42.5 5.5t36 17t25 30t9.5 44.5q0 23 -8 38t-21.5 24t-31.5 12.5t-37 3.5h-128z" />
<glyph unicode="&#xe1b9;" horiz-adv-x="508" d="M380 266q38 -15 53 -47t15 -64q0 -36 -14 -64.5t-38 -49t-56 -31t-69 -10.5h-233l62 510h212q77 0 112 -33t35 -86q0 -36 -16.5 -67t-61.5 -54zM145 233l-21 -169h138q55 0 81 27.5t26 66.5q0 31 -21 53t-65 22h-138zM171 446l-18 -152h131q43 0 69.5 24t26.5 66 q0 29 -19 45.5t-59 16.5h-131z" />
<glyph unicode="&#xe1ba;" horiz-adv-x="422" d="M116 0h-78l62 510h338l-8 -64h-260z" />
<glyph unicode="&#xe1bb;" horiz-adv-x="549" d="M444 64h48l-25 -204h-64l18 140h-365l-18 -140h-64l24 204h48q27 20 45 52t31.5 75.5t24 99t22.5 122.5l16 95h314zM244 448l-10 -58q-9 -61 -19 -111.5t-22 -91t-27.5 -71t-37.5 -52.5h236l48 384h-168z" />
<glyph unicode="&#xe1bc;" horiz-adv-x="446" d="M38 0l62 510h334l-8 -64h-254l-17 -149h200l-9 -64h-200l-21 -169h279l-7 -64h-359z" />
<glyph unicode="&#xe1bd;" horiz-adv-x="734" d="M589 273q19 -4 31.5 -12.5t20 -20.5t11 -27t6.5 -31l30 -182h-79l-29 164q-5 25 -14.5 40.5t-22.5 24t-28 11.5t-30 3h-75l-29 -243h-78l29 243h-75q-15 0 -30.5 -3t-30.5 -11.5t-28.5 -24t-23.5 -40.5l-66 -164h-79l72 182q13 33 31 57.5t58 33.5l2 2q-27 11 -37.5 35 t-15.5 59l-19 141h73l21 -131q4 -25 13 -40t21 -22.5t25 -10t25 -2.5h72l25 206h78l-25 -206h69q12 0 25.5 2.5t26.5 10t25 22.5t22 40l53 131h79l-53 -141q-14 -35 -30 -58.5t-45 -34.5z" />
<glyph unicode="&#xe1be;" horiz-adv-x="465" d="M178 -5q-43 0 -89.5 7t-84.5 24l22 53q53 -18 85 -22t56 -4q85 0 127.5 31.5t42.5 85.5q0 38 -32.5 58.5t-83.5 20.5h-72l7 55h70q31 0 53 8t36 20t21 27.5t7 30.5q0 37 -28.5 52t-76.5 15q-25 0 -63.5 -4.5t-84.5 -21.5l-16 54q35 15 84 24t93 9q37 0 68 -6.5t53.5 -20 t35 -35t12.5 -52.5q0 -48 -26 -76.5t-61 -44.5q38 -14 57.5 -45t19.5 -73q0 -43 -19.5 -75t-52 -53t-74.5 -31.5t-86 -10.5z" />
<glyph unicode="&#xe1bf;" horiz-adv-x="534" d="M133 122l298 388h76l-62 -510h-76l51 392h-5l-300 -392h-77l62 510h77l-50 -388h6z" />
<glyph unicode="&#xe1c0;" horiz-adv-x="534" d="M133 122l298 388h76l-62 -510h-76l51 392h-5l-300 -392h-77l62 510h77l-50 -388h6zM294 551q-26 0 -47 9.5t-38.5 25.5t-32 36t-26.5 41l49 34q23 -38 50.5 -60.5t55.5 -22.5q9 0 22 1.5t30.5 9t41 23t53.5 42.5l23 -25q-50 -63 -96.5 -88.5t-84.5 -25.5z" />
<glyph unicode="&#xe1c1;" horiz-adv-x="484" d="M339 273q38 -6 50.5 -32t17.5 -59l32 -182h-79l-29 164q-5 25 -15 40.5t-23 24t-28 11.5t-30 3h-89l-29 -243h-79l62 510h79l-25 -206h83q12 0 25.5 2.5t26.5 10t25 22.5t22 40l53 131h79l-53 -141q-14 -35 -30 -59.5t-45 -33.5z" />
<glyph unicode="&#xe1c2;" horiz-adv-x="526" d="M364 0l51 453h-161l-6 -48q-9 -82 -22.5 -154.5t-39 -128.5t-67.5 -93t-110 -48l-14 55q46 13 76 39.5t50 70t32 105t22 144.5l13 115h312l-57 -510h-79z" />
<glyph unicode="&#xe1c3;" horiz-adv-x="655" d="M325 137l55 116l130 259h85v-512h-79l4 262l2 125h-5q-14 -26 -27.5 -56.5t-27.5 -56.5q-30 -57 -59.5 -113.5t-58.5 -113.5h-74l-57 216l-30 119l-5 -2q-5 -29 -11 -61t-12 -61q-14 -66 -27 -130.5t-25 -127.5h-82l116 512h85l64 -243l33 -132h6z" />
<glyph unicode="&#xe1c4;" horiz-adv-x="521" d="M355 0l28 236h-239l-27 -236h-79l62 509h79l-27 -211h239l26 211h78l-62 -509h-78z" />
<glyph unicode="&#xe1c5;" horiz-adv-x="570" d="M328 518q58 0 96 -17t60.5 -46.5t31.5 -68.5t9 -83q0 -66 -16.5 -122.5t-49.5 -98t-82 -65t-113 -23.5q-57 0 -97 14.5t-64.5 41.5t-35.5 65t-11 86q0 61 15 118t47.5 101.5t84 71t125.5 26.5zM321 459q-53 0 -88.5 -23.5t-57 -61t-30.5 -84.5t-9 -93q0 -71 32 -108 t103 -37q44 0 77 21.5t54.5 57t32.5 81.5t11 96q0 30 -5.5 57t-20 48t-38.5 33.5t-61 12.5z" />
<glyph unicode="&#xe1c6;" horiz-adv-x="521" d="M355 0l54 446h-238l-54 -446h-79l62 509h395l-62 -509h-78z" />
<glyph unicode="&#xe1c7;" horiz-adv-x="450" d="M285 510q72 0 114 -34t42 -103q0 -30 -10 -60t-31.5 -54t-57 -39.5t-86.5 -15.5h-115l-25 -204h-78l62 510h185zM171 448l-23 -186h106q19 0 38 5.5t34.5 18t25 33t9.5 50.5q0 43 -23.5 61t-63.5 18h-103z" />
<glyph unicode="&#xe1c8;" horiz-adv-x="472" d="M429 20q-16 -6 -37 -10.5t-43 -8t-44.5 -5t-41.5 -1.5q-59 0 -98.5 15t-63.5 42t-34.5 65.5t-10.5 85.5q0 45 11 99.5t41 102.5t83 80.5t137 32.5q46 0 80.5 -6.5t58.5 -15.5l-17 -60q-39 11 -71.5 14t-52.5 3q-93 0 -141.5 -67t-48.5 -184q0 -33 7.5 -59.5t24.5 -45.5 t45.5 -29t69.5 -10q11 0 26.5 1t33.5 3.5t37 6t37 8.5z" />
<glyph unicode="&#xe1c9;" horiz-adv-x="452" d="M164 0l54 448h-173l7 62h422l-7 -62h-171l-56 -448h-76z" />
<glyph unicode="&#xe1ca;" horiz-adv-x="453" d="M232 174l51 102l120 234h79l-232 -440q-22 -42 -49.5 -62.5t-68.5 -20.5q-12 0 -33.5 1.5t-58.5 12.5l18 60q24 -6 38.5 -8t27.5 -2q17 0 29.5 6t25.5 32l17 33h-23l-123 388h78l72 -242l27 -94h5z" />
<glyph unicode="&#xe1cb;" horiz-adv-x="662" d="M409 510l-5 -45q62 -2 103.5 -17.5t67 -40t36 -56t10.5 -65.5q0 -47 -18.5 -87t-53 -69t-84 -47t-111.5 -22l-7 -61h-76l7 61q-120 7 -171.5 54.5t-51.5 127.5q0 42 17 80t51 68t85 49.5t119 23.5l6 46h76zM320 406q-48 -3 -83.5 -18t-59 -37.5t-35.5 -51.5t-12 -60 q0 -58 42 -87.5t113 -34.5zM361 117q43 3 76.5 16.5t56.5 35.5t35.5 50.5t12.5 60.5q0 23 -7.5 45t-25 39t-45.5 28.5t-68 13.5z" />
<glyph unicode="&#xe1cc;" horiz-adv-x="454" d="M187 264l-131 246h91l95 -199l145 199h88l-193 -248l137 -262h-88l-105 215l-154 -215h-87z" />
<glyph unicode="&#xe1cd;" horiz-adv-x="544" d="M442 62h55l-25 -201h-64l18 139h-388l62 509h80l-56 -447h238l55 447h80z" />
<glyph unicode="&#xe1ce;" horiz-adv-x="492" d="M404 0h-79l27 227q-36 -11 -73 -16.5t-69 -5.5q-76 0 -115 29t-31 92l22 184h79l-21 -168q-5 -44 16 -61.5t74 -17.5q30 0 64 7t62 18l27 222h79z" />
<glyph unicode="&#xe1cf;" horiz-adv-x="724" d="M618 510h80l-62 -510h-598l62 510h80l-55 -446h181l55 446h80l-55 -446h177z" />
<glyph unicode="&#xe1d0;" horiz-adv-x="743" d="M699 62l-25 -201h-64l18 139h-590l62 510h80l-55 -446h181l55 446h80l-55 -446h177l55 446h80l-55 -448h56z" />
<glyph unicode="&#xe1d1;" horiz-adv-x="616" d="M285 307h135q43 0 73.5 -10.5t50 -28.5t29 -43t9.5 -55q0 -45 -15.5 -77t-41.5 -53t-60 -30.5t-71 -9.5h-223l55 448h-177l7 62h254zM277 243l-22 -179h136q22 0 43 6t36.5 18.5t25 31t9.5 43.5q0 24 -8 39.5t-22 24.5t-32 12.5t-37 3.5h-129z" />
<glyph unicode="&#xe1d2;" horiz-adv-x="656" d="M155 307h134q42 0 73 -10.5t50.5 -29t29 -43.5t9.5 -53q0 -42 -15 -73.5t-41 -53.5t-60 -33t-72 -11h-225l62 510h80zM147 244l-22 -180h135q22 0 42.5 5.5t36 17.5t25 31t9.5 46q0 23 -8 38.5t-22 24.5t-32 13t-37 4h-127zM489 0l62 510h79l-62 -510h-79z" />
<glyph unicode="&#xe1d3;" horiz-adv-x="485" d="M155 307h134q43 0 73.5 -11t50 -30t28.5 -44.5t9 -54.5q0 -43 -15 -74.5t-41 -52t-60 -30.5t-71 -10h-225l62 510h80zM147 244l-22 -180h135q22 0 42.5 5.5t36 17.5t25 31t9.5 46q0 23 -8 38.5t-22 24.5t-32 13t-37 4h-127z" />
<glyph unicode="&#xe1d4;" horiz-adv-x="483" d="M24 74q41 -10 75 -14t56 -4q50 0 86 15.5t59.5 41t35.5 59t15 68.5l-200 -2l7 61l199 -6v13q0 77 -40.5 112.5t-110.5 35.5q-28 0 -59 -4t-66 -12l-11 56q28 9 71.5 16.5t82.5 7.5q64 0 106 -18.5t66 -49t33.5 -69.5t9.5 -80q0 -70 -17.5 -126.5t-52.5 -96.5t-87.5 -61.5 t-121.5 -21.5q-43 1 -86 7t-69 17z" />
<glyph unicode="&#xe1d5;" horiz-adv-x="744" d="M146 239l-29 -239h-79l62 510h79l-26 -214h104q8 45 26.5 85.5t48.5 71t72.5 48t98.5 17.5q55 0 93 -17.5t60.5 -47.5t32.5 -69.5t10 -83.5q0 -67 -16.5 -123t-48 -96.5t-78.5 -63.5t-107 -23q-106 0 -154.5 53.5t-48.5 148.5q0 11 0.5 21.5t1.5 21.5h-102zM501 459 q-50 0 -83.5 -24t-54 -61.5t-29.5 -84.5t-9 -93q0 -71 30 -107.5t96 -36.5q42 0 73.5 20.5t52.5 54t31 77t10 89.5q0 31 -5 61t-18 53.5t-36 37.5t-58 14z" />
<glyph unicode="&#xe1d6;" horiz-adv-x="490" d="M356 280l20 167h-108q-20 0 -39 -4.5t-34 -16t-24 -30t-9 -46.5q0 -22 8 -36t21.5 -21.5t30 -10t33.5 -2.5h101zM148 238q-39 14 -55.5 45.5t-16.5 67.5q0 75 51 117t141 42h196l-62 -510h-80l26 216h-89q-41 0 -65 -16.5t-45 -61.5l-59 -138h-86l68 161q13 29 28.5 48.5 t47.5 26.5v2z" />
<glyph unicode="&#xe1d7;" horiz-adv-x="422" d="M38 0l62 510h279l14 110h61l-22 -174h-261l-54 -446h-79z" />
<glyph unicode="&#xe23f;" horiz-adv-x="542" d="M328 674q61 0 99.5 -22t60.5 -58t30.5 -82t8.5 -94q0 -43 -5.5 -91.5t-18.5 -96t-34.5 -90.5t-52.5 -75.5t-73 -52t-96 -19.5q-63 0 -103 21.5t-62.5 57t-30.5 81.5t-8 95q0 38 5 84.5t17.5 93.5t33.5 92t52.5 79.5t75 55.5t101.5 21zM324 608q-46 0 -79 -22.5 t-55.5 -57.5t-36.5 -78t-21 -84t-9.5 -75t-2.5 -52q0 -40 6 -75t26 -58l242 479q-14 11 -30.5 17t-39.5 6zM448 414q0 17 -1.5 36t-5.5 37t-10 34.5t-15 28.5q-60 -117 -119 -237t-119 -238q15 -9 34 -14t44 -5q38 0 67 17t50.5 45t35.5 65t22.5 77t12.5 79.5t4 74.5z" />
<glyph unicode="&#xe26a;" horiz-adv-x="480" d="M451 61l5 -48q-18 -9 -42.5 -14.5t-44.5 -5.5q-28 0 -42.5 12t-11.5 50q-1 0 -1 0.5t-2 0.5q-26 -24 -51.5 -37t-48 -19t-40.5 -7t-29 -1q-35 0 -57.5 10t-36 26t-19 35.5t-5.5 38.5q0 37 14 69.5t49.5 57t97 39t157.5 16.5q2 17 3.5 31.5t1.5 27.5q0 53 -21 72t-72 19 q-26 0 -64.5 -8t-75.5 -21l-15 51q44 20 86 30t88 10q24 0 50 -3.5t48 -17.5t36.5 -42.5t14.5 -77.5q0 -19 -3.5 -54t-8 -76.5t-10.5 -84.5t-10 -79h60zM337 234q-74 -4 -118 -14t-68 -25t-31.5 -35t-7.5 -42q0 -63 72 -63q26 0 60.5 13.5t76.5 50.5z" />
<glyph unicode="&#xe26b;" horiz-adv-x="487" d="M247 501q25 0 51.5 -3t46.5 -10h151l-6 -52h-72l-3 -5q11 -14 16 -34.5t5 -44.5q0 -37 -13.5 -71.5t-39.5 -61.5t-65.5 -43.5t-91.5 -16.5q-40 0 -67 7q-13 -11 -23.5 -24t-10.5 -23q0 -16 22.5 -21.5t56 -8t73 -6t73 -16t56 -38t22.5 -71.5q0 -76 -58.5 -122t-161.5 -46 q-54 0 -94.5 10.5t-67.5 28t-40.5 41t-13.5 49.5q0 20 8.5 45.5t31.5 44.5l43 -18q-8 -20 -10.5 -30t-2.5 -23q0 -40 36.5 -64.5t111.5 -24.5q71 0 103 32t32 77q0 29 -21.5 43t-54.5 20t-70.5 8t-70.5 8.5t-54.5 21.5t-21.5 47q0 23 14 44.5t38 39.5q-32 20 -46.5 52 t-14.5 67q0 46 16.5 81.5t44.5 60t65 37.5t78 13zM251 442q-58 0 -93.5 -35.5t-35.5 -98.5q0 -42 27 -65.5t74 -23.5q58 0 97.5 33t39.5 92q0 17 -5 34.5t-18 31.5t-34 23t-52 9z" />
<glyph unicode="&#xe2d0;" horiz-adv-x="354" d="M210 670q41 0 67.5 -13.5t41.5 -35t21 -49.5t6 -57q0 -39 -8 -83.5t-28 -82t-55.5 -62.5t-89.5 -25q-41 0 -68 12t-43 33t-22.5 48t-6.5 57q0 19 2.5 45.5t10 55t20 56.5t33 50.5t50 36.5t69.5 14zM209 617q-28 0 -47.5 -12.5t-33 -32.5t-21 -44.5t-11.5 -48t-5 -43 t-1 -29.5q0 -42 17 -67.5t64 -25.5q33 0 54 19t33.5 48t17.5 63t5 64q0 20 -3 39.5t-10.5 35t-22 25t-36.5 9.5z" />
<glyph unicode="&#xe2d1;" horiz-adv-x="354" d="M182 601l-100 -14l-3 44l118 34h58l-46 -399h-67z" />
<glyph unicode="&#xe2d2;" horiz-adv-x="354" d="M16 265l5 46q30 25 70.5 56.5t76.5 65.5t61.5 67.5t25.5 62.5t-18.5 40.5t-50.5 11.5q-14 0 -41 -5.5t-69 -28.5l-26 43q47 30 84.5 38.5t61.5 8.5q55 0 90.5 -24t35.5 -74q0 -37 -20.5 -72t-52 -67.5t-68 -61.5t-67.5 -53h195l-4 -54h-289z" />
<glyph unicode="&#xe2d3;" horiz-adv-x="354" d="M242 489q37 -11 54.5 -36t17.5 -56q0 -28 -12.5 -52.5t-35 -43t-55 -29.5t-72.5 -11q-43 0 -76.5 7.5t-53.5 18.5l19 47q43 -16 66.5 -18.5t41.5 -2.5q22 0 42 5.5t35.5 15.5t24.5 25t9 33q0 34 -23.5 49t-60.5 15q-10 0 -20.5 -1t-24.5 -3l-7 46q68 12 102.5 34.5 t34.5 46.5q0 16 -15 26.5t-50 10.5q-17 0 -44.5 -5t-65.5 -21l-19 42q37 20 73.5 28.5t65.5 8.5q63 0 91.5 -24.5t28.5 -56.5q0 -27 -18 -54.5t-53 -40.5v-4z" />
<glyph unicode="&#xe2d4;" horiz-adv-x="354" d="M276 376l-13 -111h-64l13 111h-196l4 43q57 61 94.5 101.5l62.5 67.5t41 44.5t30 32.5h62l-28 -238h58q-2 -12 -2.5 -25.5t-1.5 -25.5h-60zM236 587l-144 -160h125l22 159z" />
<glyph unicode="&#xe2d5;" horiz-adv-x="354" d="M174 472q-14 0 -33 -4.5t-41 -15.5l-34 26l23 187h240l-5 -53l-180 1l-15 -101q16 5 30 7.5t34 2.5q24 0 47 -6t41 -19.5t29 -34.5t11 -50q0 -39 -14.5 -67t-38.5 -46.5t-55 -27.5t-64 -9q-35 0 -69.5 5.5t-64.5 20.5l23 49q43 -14 65.5 -17t38.5 -3q50 0 81 21.5 t31 68.5q0 32 -22.5 48.5t-57.5 16.5z" />
<glyph unicode="&#xe2d6;" horiz-adv-x="354" d="M228 618q-29 0 -49.5 -12.5t-34.5 -30.5t-22.5 -39t-12.5 -37q19 10 44.5 16.5t54.5 6.5q24 0 45 -6.5t37.5 -19.5t26 -34t9.5 -49q0 -69 -44.5 -110t-117.5 -41q-38 0 -63 10.5t-40 29.5t-21.5 45t-6.5 56q0 55 12.5 104t37 85.5t61.5 57.5t86 21q35 0 60 -8t37 -14 l-18 -48q-29 11 -48 14t-33 3zM195 469q-34 0 -60.5 -11t-32.5 -16q-2 -9 -3 -19.5t-1 -21.5q0 -15 3 -30t11.5 -27.5t22.5 -20t35 -7.5q45 0 67.5 26.5t22.5 65.5q0 27 -14 44t-51 17z" />
<glyph unicode="&#xe2d7;" horiz-adv-x="354" d="M337 620l-213 -355h-69l209 348l-192 -1l5 53h253l7 -44v-1z" />
<glyph unicode="&#xe2d8;" horiz-adv-x="354" d="M209 619q-21 0 -35.5 -5.5t-23.5 -14t-13 -18.5t-4 -18q0 -11 8 -20.5t20.5 -17t27 -13.5t27.5 -12q33 19 45.5 37t12.5 34q0 18 -14 33t-51 15zM168 307q46 0 68 22.5t22 48.5q0 30 -24.5 50.5t-72.5 37.5q-37 -22 -52 -49.5t-15 -47.5q0 -23 16 -42.5t58 -19.5z M217 672q21 0 42 -5t37.5 -15.5t27 -28t10.5 -41.5q0 -29 -13.5 -55t-50.5 -51q22 -14 36 -37t14 -53q0 -27 -12 -50.5t-33 -40t-50.5 -26t-63.5 -9.5q-65 0 -98 30.5t-33 72.5q0 31 19 66.5t63 61.5q-22 12 -31 29.5t-9 37.5t10 40.5t28.5 37t45.5 26.5t61 10z" />
<glyph unicode="&#xe2d9;" horiz-adv-x="354" d="M138 315q28 0 49 12.5t35 31t23 39t13 36.5q-20 -10 -43.5 -16t-55.5 -6q-24 0 -45.5 6t-38 18.5t-26 33t-9.5 49.5q0 34 12 62t34 48t51.5 31t65.5 11q37 0 62 -11t40.5 -30t22 -45.5t6.5 -56.5q0 -55 -12 -103.5t-36.5 -85t-61.5 -57.5t-87 -21q-34 0 -62 8.5t-40 14.5 l18 48q29 -11 50 -14t35 -3zM172 463q18 0 34 3.5t28.5 8t20.5 8.5l10 5q3 22 3 41q0 14 -3 29.5t-11 28t-22 20.5t-36 8q-45 0 -68 -25.5t-23 -65.5q0 -28 14.5 -44.5t52.5 -16.5z" />
<glyph unicode="&#xe2da;" horiz-adv-x="181" d="M198 674q-9 -11 -26.5 -37t-35 -64.5t-30 -89t-12.5 -110.5q0 -65 14 -104.5t25 -64.5q2 -4 3.5 -7.5t3.5 -7.5l-35 -22q-8 8 -19.5 27t-22.5 47t-19 63t-8 75q0 63 14.5 114t35 90.5t43 67t37.5 44.5z" />
<glyph unicode="&#xe2db;" horiz-adv-x="182" d="M-10 188q9 11 26 36t34 63.5t30 89.5t13 114q0 36 -5 65.5t-12.5 53t-15.5 39.5t-13 25l35 22q9 -13 21.5 -33t23.5 -47t18.5 -61t7.5 -74q0 -63 -16 -114.5t-38 -91.5t-44 -67.5t-35 -40.5z" />
<glyph unicode="&#xe2dc;" horiz-adv-x="134" d="M67 335q17 0 27.5 -10t10.5 -26q0 -26 -23.5 -55t-56.5 -43l-16 24q12 9 20 20t13 22q-18 6 -18 28q0 16 12 28t31 12z" />
<glyph unicode="&#xe2dd;" horiz-adv-x="133" d="M67 335q17 0 26.5 -9.5t9.5 -23.5q0 -17 -13 -28.5t-29 -11.5q-15 0 -25.5 9.5t-10.5 23.5q0 17 12.5 28.5t29.5 11.5z" />
<glyph unicode="&#xe2f4;" horiz-adv-x="354" d="M205 404q41 0 67.5 -13.5t41.5 -35t21 -49.5t6 -56q0 -40 -8 -85t-28 -82.5t-55.5 -62t-89.5 -24.5q-41 0 -68 12t-43 32.5t-22.5 47.5t-6.5 57q0 19 2.5 45.5t10 55.5t20 57t33 50.5t50 36.5t69.5 14zM204 351q-42 0 -66 -27t-35.5 -62.5t-14.5 -70.5t-3 -51 q0 -40 17 -65.5t64 -25.5q33 0 54 19t33.5 47.5t17.5 62.5t5 64q0 19 -3 38.5t-10.5 35.5t-22 25.5t-36.5 9.5z" />
<glyph unicode="&#xe2f5;" horiz-adv-x="354" d="M179 334l-100 -15l-4 46l119 35h57l-47 -400h-67z" />
<glyph unicode="&#xe2f6;" horiz-adv-x="354" d="M12 0l4 45q21 17 46.5 37t51.5 41.5t50.5 44t43.5 44.5t30.5 43.5t11.5 40.5q0 29 -18.5 41t-50.5 12q-14 0 -41 -5.5t-69 -29.5l-26 45q46 29 83.5 38t62.5 9q55 0 90.5 -24.5t35.5 -76.5q0 -36 -21 -71t-52 -67t-67 -61t-67 -53h195l-5 -53h-288z" />
<glyph unicode="&#xe2f7;" horiz-adv-x="354" d="M241 223q37 -11 54.5 -36t17.5 -56q0 -28 -12.5 -52.5t-35 -43t-55 -29.5t-72.5 -11q-43 0 -76.5 7.5t-53.5 18.5l19 47q43 -16 66.5 -18.5t41.5 -2.5q22 0 42 5.5t35.5 15.5t24.5 25t9 33q0 34 -23.5 49t-60.5 15q-10 0 -20.5 -1t-24.5 -3l-7 46q68 12 102.5 34.5 t34.5 46.5q0 16 -15 26.5t-50 10.5q-17 0 -44.5 -5t-65.5 -21l-19 42q37 20 73.5 28.5t65.5 8.5q63 0 91.5 -24.5t28.5 -56.5q0 -27 -18 -54.5t-53 -40.5v-4z" />
<glyph unicode="&#xe2f8;" horiz-adv-x="354" d="M269 108q-3 -26 -6.5 -53.5t-5.5 -54.5h-63l12 108h-196l4 44q57 62 114 123.5t114 123.5h62q-8 -60 -15 -120l-14 -120h59l-4 -51h-61zM225 313l-138 -154h124l20 155z" />
<glyph unicode="&#xe2f9;" horiz-adv-x="354" d="M171 206q-15 0 -33.5 -4t-41.5 -15l-34 26l24 187h240l-5 -54h-180q-3 -26 -7 -49.5t-7 -49.5q14 4 30.5 6.5t32.5 2.5q24 0 47 -6t41.5 -19.5t29.5 -34.5t11 -51q0 -38 -14.5 -66.5t-39 -47t-55.5 -27.5t-64 -9q-35 0 -69 6t-65 22l23 50q42 -14 64.5 -17.5t38.5 -3.5 q51 0 82 22t31 67q0 33 -22.5 49t-57.5 16z" />
<glyph unicode="&#xe2fa;" horiz-adv-x="354" d="M227 352q-29 0 -50 -12.5t-35 -31t-22 -39t-12 -36.5q19 10 44 16.5t54 6.5q24 0 45.5 -6.5t38 -20t26 -34.5t9.5 -50q0 -33 -12 -60.5t-33 -47t-51 -30.5t-66 -11q-38 0 -63 10.5t-40 29.5t-21.5 44.5t-6.5 55.5q0 55 12.5 104t37 86t61 58.5t85.5 21.5q35 0 60.5 -8.5 t37.5 -14.5l-19 -49q-28 11 -47 14.5t-33 3.5zM193 203q-17 0 -33.5 -4t-29 -8.5t-21 -8.5t-9.5 -5q-4 -20 -4 -43q0 -15 3 -30t11.5 -27t22.5 -19.5t35 -7.5q45 0 68 26.5t23 64.5q0 28 -14 45t-52 17z" />
<glyph unicode="&#xe2fb;" horiz-adv-x="354" d="M342 354l-213 -354h-69l208 346h-193l6 53h254l7 -44v-1z" />
<glyph unicode="&#xe2fc;" horiz-adv-x="354" d="M207 355q-21 0 -35.5 -5.5t-23.5 -14t-13 -18.5t-4 -18q0 -11 8 -20.5t20.5 -17t27 -13.5t27.5 -12q33 19 45.5 37t12.5 34q0 18 -14 33t-51 15zM166 43q46 0 68 22.5t22 48.5q0 30 -24.5 50.5t-72.5 37.5q-37 -22 -52 -49.5t-15 -47.5q0 -23 16 -42.5t58 -19.5zM215 408 q21 0 42 -5t37.5 -15.5t27 -28t10.5 -41.5q0 -29 -13.5 -55t-50.5 -51q22 -14 36 -37t14 -53q0 -27 -12 -50.5t-33 -40t-50.5 -26t-63.5 -9.5q-65 0 -98 30.5t-33 72.5q0 31 19 66.5t63 61.5q-22 12 -31 29.5t-9 37.5t10 40.5t28.5 37t45.5 26.5t61 10z" />
<glyph unicode="&#xe2fd;" horiz-adv-x="354" d="M133 49q28 0 49 12t35.5 30t23.5 38.5t13 37.5q-20 -10 -43.5 -16.5t-55.5 -6.5q-24 0 -45.5 6t-38 19.5t-26 34t-9.5 49.5q0 34 12 62t34 48t51.5 31t65.5 11q37 0 62 -11t40.5 -30.5t22 -46t6.5 -56.5q0 -55 -12 -103.5t-36.5 -84.5t-61.5 -56.5t-87 -20.5q-34 0 -62 8 t-41 14l19 49q28 -11 49 -14.5t35 -3.5zM168 197q16 0 31.5 3.5t28 8t21.5 8.5t12 6q3 22 3 40q0 14 -3 29t-11 28t-22 21t-36 8q-45 0 -68 -26t-23 -65q0 -28 14.5 -44.5t52.5 -16.5z" />
<glyph unicode="&#xe2fe;" horiz-adv-x="181" d="M193 408q-9 -11 -26.5 -37.5t-34.5 -65.5t-29.5 -89.5t-12.5 -110.5q0 -36 4.5 -64t11 -49.5t14.5 -38.5t15 -32l-35 -20q-8 8 -19.5 27t-22.5 46.5t-19 62t-8 74.5q0 63 14.5 114.5t35 91.5t43 68t37.5 44z" />
<glyph unicode="&#xe2ff;" horiz-adv-x="182" d="M-15 -80q9 11 26 36.5t34.5 64.5t30.5 90t13 113q0 36 -5.5 66t-13 53t-15.5 39.5t-13 25.5l34 23q10 -13 22.5 -34t23.5 -48.5t18.5 -61t7.5 -72.5q0 -63 -16 -115t-37.5 -92t-44 -67t-35.5 -40z" />
<glyph unicode="&#xe300;" horiz-adv-x="134" d="M54 67q17 0 27 -10t10 -26q0 -13 -6.5 -27.5t-17 -27.5t-24.5 -24.5t-29 -18.5l-16 25q13 11 19.5 20.5t11.5 20.5q-18 7 -18 29q0 15 11.5 27t31.5 12z" />
<glyph unicode="&#xe301;" horiz-adv-x="133" d="M63 67q16 0 26 -9.5t10 -23.5q0 -16 -13 -28t-29 -12t-26.5 10t-10.5 24q0 16 12.5 27.5t30.5 11.5z" />
<glyph unicode="&#xe360;" horiz-adv-x="398" d="M324 266l-22 120h-165q-14 -29 -26.5 -60t-26.5 -60h-69q55 120 105 229t102 222h80q12 -59 23.5 -113l23 -108t23 -110t24.5 -120h-72zM249 645l-33 -78l-55 -126h133q-5 24 -11 53t-16 76l-14 76z" />
<glyph unicode="&#xe361;" horiz-adv-x="405" d="M337 501q19 -7 30 -18t17 -24t7.5 -27t1.5 -26q0 -34 -13 -60t-34 -43.5t-48.5 -26.5t-56.5 -9h-185l54 449h167q66 0 95.5 -31t29.5 -79q0 -32 -14.5 -57.5t-49.5 -42.5zM145 472q-4 -38 -8.5 -74t-9.5 -74h102q50 0 72 24.5t22 60.5q0 26 -17.5 44.5t-57.5 18.5h-103z M168 661q-4 -34 -8.5 -67t-8.5 -67h92q43 0 67.5 21.5t24.5 56.5q0 26 -17.5 41t-57.5 15h-92z" />
<glyph unicode="&#xe362;" horiz-adv-x="427" d="M56 267l54 449h151q48 0 80 -14t51.5 -38.5t27.5 -56.5t8 -68q0 -53 -11.5 -102.5t-38.5 -87t-70.5 -60t-106.5 -22.5h-145zM170 660l-41 -336h70q19 0 46 4.5t52 25.5t43 63t18 117q0 45 -12 70.5t-29 37.5t-36.5 15t-34.5 3h-76z" />
<glyph unicode="&#xe363;" horiz-adv-x="364" d="M56 267l54 449h287l-6 -58h-221l-17 -129h172l-7 -53h-171l-18 -152h230l-6 -57h-297z" />
<glyph unicode="&#xe364;" horiz-adv-x="431" d="M321 266l26 210h-198q-6 -52 -13 -104.5t-13 -105.5h-68l55 450h67l-21 -183h198l21 183h70l-55 -450h-69z" />
<glyph unicode="&#xe365;" horiz-adv-x="172" d="M59 267l54 449h69l-54 -449h-69z" />
<glyph unicode="&#xe366;" horiz-adv-x="349" d="M56 267l54 449h67l-48 -391h229l-6 -58h-296z" />
<glyph unicode="&#xe367;" horiz-adv-x="543" d="M459 603l-35 -79q-27 -55 -54 -109.5t-55 -109.5h-59l-51 196l-24 98h-4q-5 -22 -9 -48t-9 -49l-24 -122t-23 -117h-65l97 448h68l59 -236l22 -98h6l46 104l111 230h68l1 -448h-63l2 244l1 96h-6z" />
<glyph unicode="&#xe368;" horiz-adv-x="451" d="M359 381l42 335h65l-56 -450h-62l-129 240l-53 102h-5l-42 -342h-64l55 450h67l128 -241l48 -94h6z" />
<glyph unicode="&#xe369;" horiz-adv-x="468" d="M300 723q48 0 80 -14.5t51.5 -39t28 -57.5t8.5 -70q0 -58 -14.5 -109t-43 -89t-70 -60t-96.5 -22q-93 0 -133.5 47t-40.5 128q0 54 12.5 105.5t40.5 91.5t71.5 64.5t105.5 24.5zM294 670q-44 0 -73.5 -22.5t-47.5 -56.5t-26 -75t-8 -77q0 -61 26 -92.5t85 -31.5 q37 0 65 18.5t46.5 49.5t27.5 71t9 84q0 26 -4.5 50t-16.5 42t-32 29t-51 11z" />
<glyph unicode="&#xe36a;" horiz-adv-x="390" d="M308 474q20 -10 28.5 -30t13.5 -45l23 -132h-65l-21 124q-6 37 -27 51t-53 14h-63l-22 -189h-66l54 448h159q63 0 94 -30.5t31 -81.5q0 -43 -22 -78.5t-64 -49.5v-1zM238 508q12 0 27.5 4t29.5 14t23.5 27t9.5 44q0 33 -20.5 49t-52.5 16h-86q-5 -39 -9.5 -76.5 t-9.5 -77.5h88z" />
<glyph unicode="&#xe36b;" horiz-adv-x="368" d="M245 722q29 0 62.5 -5.5t62.5 -24.5l-22 -49q-38 17 -61 21t-42 4q-18 0 -35 -5t-30.5 -15.5t-21.5 -25.5t-8 -35t16 -31.5t40 -20t52.5 -17.5t52.5 -23t40 -36t16 -58q0 -38 -14.5 -64.5t-39.5 -43t-58 -24.5t-70 -8q-38 0 -76.5 8t-71.5 28l25 50q42 -20 70 -25.5 t51 -5.5q51 0 83.5 19t32.5 57q0 29 -22 46.5t-65 30.5q-27 8 -51 16t-41 20.5t-27 31t-10 47.5q0 36 13 62t35.5 43t51.5 25t62 8z" />
<glyph unicode="&#xe36c;" horiz-adv-x="351" d="M151 267l48 393h-135l6 56h334l-6 -56h-132l-48 -393h-67z" />
<glyph unicode="&#xe378;" horiz-adv-x="632" d="M606 256l-236 236v-492h-107v491l-235 -236v149l288 288l288 -289z" />
<glyph unicode="&#xe379;" horiz-adv-x="632" d="M604 289l-288 -289l-288 288v149l235 -236v491h107v-492l236 236z" />
<glyph unicode="&#xe37a;" horiz-adv-x="736" d="M310 59l-289 288l288 288h149l-236 -235h491v-107h-492l236 -236z" />
<glyph unicode="&#xe37b;" horiz-adv-x="588" d="M480 92v344l-357 -359l-79 79l359 356h-345l109 109h419v-420z" />
<glyph unicode="&#xe37c;" horiz-adv-x="588" d="M44 201v420h419l109 -109h-345l359 -356l-79 -79l-357 359v-344z" />
<glyph unicode="&#xe37d;" horiz-adv-x="898" d="M811 -2l-350 351l350 351v-702zM432 -2l-351 351l351 351v-702z" />
<glyph unicode="&#xe37e;" horiz-adv-x="898" d="M121 701l350 -351l-350 -351v702zM501 701l350 -351l-350 -351v702z" />
<glyph unicode="&#xe37f;" horiz-adv-x="1000" d="M890 -3l-348 351l348 351v-702zM513 -3l-349 351l349 351v-702zM149 -3h-70v702h70v-702z" />
<glyph unicode="&#xe380;" horiz-adv-x="1000" d="M908 -4h-69v702h69v-702zM825 347l-351 -351v702zM447 347l-351 -351v702z" />
<glyph unicode="&#xe381;" horiz-adv-x="742" d="M580 0h-140v702h140v-702zM298 0h-139v702h139v-702z" />
<glyph unicode="&#xe382;" horiz-adv-x="506" d="M417 -3l-230 228h-123v241h123l230 228v-697z" />
<glyph unicode="&#xe383;" horiz-adv-x="713" d="M586 582q45 -43 67 -106t22 -129q0 -67 -23 -128t-71 -103q-10 -8 -19 -8q-13 0 -23 11t-10 25q0 13 12 22q35 26 51.5 75t16.5 104q0 56 -17 108.5t-49 81.5q-11 10 -11 23t10 23.5t23 10.5q11 0 21 -10zM187 225h-123v240h123l229 227v-695z" />
<glyph unicode="&#xe384;" horiz-adv-x="926" d="M569 591q51 -48 76.5 -114t25.5 -137q0 -69 -26 -132.5t-80 -107.5q-11 -9 -23 -9q-15 0 -26 11.5t-11 26.5q0 14 14 24q40 27 58.5 79.5t18.5 110.5q0 29 -4.5 58t-14 55t-24 47.5t-34.5 36.5q-11 10 -11 23q0 14 11.5 26t26.5 12q13 0 23 -10zM186 225h-122v240h122 l230 229v-697zM693 694q73 -68 111 -163t38 -195q0 -50 -9.5 -98t-29 -92t-48 -83t-67.5 -69q-11 -9 -22 -9q-14 0 -25.5 10.5t-11.5 24.5q0 15 14 26q31 23 54.5 55t39.5 70t23.5 81t7.5 88q0 44 -7.5 87.5t-23 84t-39 75t-55.5 60.5q-6 5 -8.5 11.5t-2.5 12.5q0 14 11 24 t26 10q13 0 24 -11z" />
<glyph unicode="&#xe385;" horiz-adv-x="1092" d="M608 607q51 -51 76.5 -122t25.5 -146q0 -74 -26 -142t-80 -115q-11 -9 -22 -9q-15 0 -26 12.5t-11 26.5q0 16 14 26q19 15 33.5 37t24.5 48.5t14.5 57t4.5 61.5t-4.5 62t-14.5 58.5t-24.5 51t-33.5 39.5q-11 10 -11 25t11.5 27t26.5 12q12 0 22 -10zM186 225h-122v240 h122l230 229v-697zM732 718q37 -37 64.5 -81.5t46 -94t28 -102t9.5 -105.5t-9.5 -104.5t-28.5 -99t-47.5 -89t-67.5 -74.5q-11 -9 -22 -9q-14 0 -25 12t-11 26q0 15 13 27q31 24 54.5 58.5t39 75.5t23.5 87t8 94q0 47 -7.5 93.5t-23.5 89t-39.5 80t-54.5 65.5q-11 10 -11 25 q0 14 11 25.5t26 11.5q13 0 24 -11zM855 824q48 -47 84 -104t60.5 -121t36.5 -132t12 -136t-12 -135t-37 -128t-62 -114t-86 -95q-11 -9 -21 -9q-14 0 -25 12.5t-11 28.5q0 15 11 26q42 33 73.5 79t53 101t32 115.5t10.5 123.5q0 61 -10.5 122.5t-31.5 118.5t-53 106.5 t-74 88.5q-11 13 -11 25q0 15 11.5 26.5t25.5 11.5t24 -11z" />
<glyph unicode="&#xe386;" horiz-adv-x="836" d="M789 361q0 -76 -29 -143t-79 -116.5t-116.5 -78.5t-142.5 -29q-77 0 -144 29t-116.5 78.5t-78.5 116.5t-29 143q0 45 10.5 84t27.5 71t37 56t40 39q13 9 31 10.5t31 -9.5q14 -14 16 -31.5t-12 -31.5l-28 -28t-29.5 -38.5t-23 -51.5t-9.5 -67q0 -60 21.5 -112t59 -90.5 t88 -61t108.5 -22.5q57 0 107.5 22.5t87.5 61t58.5 90.5t21.5 112q0 33 -6.5 59t-17 47.5t-23 38t-23.5 30.5l-7 9q-12 15 -12 31q0 18 15 33q14 13 30.5 11t30.5 -12q18 -16 37 -39t34 -54.5t24.5 -70.5t9.5 -86zM425 760q18 0 31 -13t13 -31v-318q0 -18 -13 -31t-31 -13 q-19 0 -31.5 12.5t-12.5 31.5v318q0 18 12.5 31t31.5 13z" />
<glyph unicode="&#xe387;" horiz-adv-x="802" d="M753 570l-116 115l23 23l115 -115zM655 533q0 -22 -15 -37t-36 -15q-22 0 -37 15t-15 37q0 21 15 36t37 15q21 0 36 -15t15 -36zM548 359l-115 114l23 24l116 -115zM446 323q0 -21 -14.5 -36t-36.5 -15q-21 0 -36 15t-15 36q0 22 15 37t36 15q22 0 36.5 -15t14.5 -37z M661 131q-2 -14 -11.5 -35t-26 -42t-40.5 -40t-55 -29q-63 17 -121.5 51.5t-110 77.5t-94.5 90.5t-74.5 92t-51 81t-22.5 58.5q10 31 28.5 55.5t39.5 41.5t41 26t35 11q11 -6 27.5 -20.5t32.5 -34t28.5 -44.5t15.5 -52q-14 -21 -36 -35t-40 -22q3 -9 26.5 -39t57.5 -64.5 t72 -64.5t70 -38q8 19 21.5 40.5t35.5 36.5q21 -1 45.5 -11.5t46 -26t38 -32.5t22.5 -32z" />
<glyph unicode="&#xe388;" horiz-adv-x="1035" d="M766 252q0 -28 -20 -47t-47 -19q-26 0 -46 19t-20 47t20 47t46 19q27 0 47 -19t20 -47zM583 252q0 -28 -19 -47t-47 -19t-47.5 19t-19.5 47t19.5 47t47.5 19t47 -19t19 -47zM400 252q0 -28 -19.5 -47t-47.5 -19t-47 19t-19 47t19 47t47 19t47.5 -19t19.5 -47zM757 0 l-52 52l202 201l-196 194l52 52l247 -246zM278 0l-253 253l247 246l52 -52l-195 -194l201 -201z" />
<glyph unicode="&#xe389;" horiz-adv-x="854" d="M784 352q0 -75 -28.5 -140t-77.5 -114t-114.5 -77t-138.5 -28t-138.5 28t-114.5 77t-77.5 114t-28.5 140t28.5 140t77.5 114t114.5 77t138.5 28t138.5 -28t114.5 -77t77.5 -114t28.5 -140zM724 352q0 61 -23.5 116t-64 96t-95 65t-116.5 24t-116.5 -24t-95.5 -65t-65 -96 t-24 -116q0 -62 24 -116.5t65 -96t95.5 -65.5t116.5 -24q61 0 115.5 24t95.5 65t64.5 96t23.5 117zM499 537q0 -29 -22.5 -49t-51.5 -20q-30 0 -52 20t-22 49t22 49t52 20q29 0 51.5 -20t22.5 -49zM485 84h-120v343h120v-343z" />
<glyph unicode="&#xe38a;" horiz-adv-x="870" d="M800 599l-46 -16l12 -41l-46 -16l12 -42l-46 -16l12 -41l-46 -17l13 -42l-46 -16l12 -41l-46 -17l12 -41l-47 -16l13 -42l-46 -17l12 -41l-46 -16l13 -42l-43 -15l-46 154l-46 -17l13 -42l-88 -30l12 -42l-89 -31l13 -42l-93 -33l-11 42l-39 -14l-30 100l39 14l-13 41 l88 31l-11 42l88 31l-13 42l89 31l-11 37l-46 -16l-13 41l-46 -16l-12 41l-38 -13l-14 46l680 242l13 -46l-42 -15z" />
<glyph unicode="&#xe38b;" horiz-adv-x="870" d="M91 642l-42 15l13 46l680 -242l-14 -46l-38 13l-12 -41l-46 16l-13 -41l-46 16l-11 -37l89 -31l-13 -42l88 -31l-11 -42l88 -31l-13 -41l39 -14l-30 -100l-39 14l-11 -42l-93 33l13 42l-89 31l12 42l-88 30l13 42l-46 17l-46 -154l-43 15l13 42l-46 16l12 41l-46 17 l13 42l-47 16l12 41l-46 17l12 41l-46 16l13 42l-46 17l12 41l-46 16l12 42l-46 16l12 41l-46 16z" />
<glyph unicode="&#xe38c;" horiz-adv-x="870" d="M800 597l-46 -16l12 -41l-46 -16l12 -42l-46 -16l12 -41l-46 -17l13 -42l-46 -16l12 -41l-46 -17l12 -41l-47 -16l13 -42l-46 -17l12 -41l-46 -16l13 -42l-43 -15l-46 154l-46 -17l13 -42l-88 -30l12 -42l-89 -31l13 -42l-93 -33l-11 42l-39 -14l-30 100l39 14l-13 41 l88 31l-11 42l88 31l-13 42l89 31l-11 37l-46 -16l-13 41l-46 -16l-12 41l-38 -13l-14 46l680 242l13 -46l-42 -15zM238 444l11 -37l46 17l12 -42l46 17l14 -46l-46 -17l13 -41l-89 -31l12 -42l-88 -31l12 -42l-88 -31l27 -91l84 30l-12 41l88 31l-12 42l88 31l-12 42l92 32 l33 -111l43 15l-13 41l46 16l-12 42l46 16l-12 41l46 17l-12 41l46 16l-12 42l46 17l-13 41l46 16l-11 42l45 16l-11 39z" />
<glyph unicode="&#xe38d;" horiz-adv-x="870" d="M91 640l-42 15l13 46l680 -242l-14 -46l-38 13l-12 -41l-46 16l-13 -41l-46 16l-11 -37l89 -31l-13 -42l88 -31l-11 -42l88 -31l-13 -41l39 -14l-30 -100l-39 14l-11 -42l-93 33l13 42l-89 31l12 42l-88 30l13 42l-46 17l-46 -154l-43 15l13 42l-46 16l12 41l-46 17 l13 42l-47 16l12 41l-46 17l12 41l-46 16l13 42l-46 17l12 41l-46 16l12 42l-46 16l12 41l-46 16zM141 623l-11 -39l45 -16l-11 -42l46 -16l-13 -41l46 -17l-12 -42l46 -16l-12 -41l46 -17l-12 -41l46 -16l-12 -42l46 -16l-13 -41l43 -15l33 111l92 -32l-12 -42l88 -31 l-12 -42l88 -31l-12 -41l84 -30l27 91l-88 31l12 42l-88 31l12 42l-89 31l13 41l-46 17l14 46l46 -17l12 42l46 -17l11 37z" />
<glyph unicode="&#xe38e;" horiz-adv-x="770" d="M434 7q-24 -11 -47 -11q-12 0 -25 3.5t-25.5 7.5t-24.5 7.5t-21 3.5t-19.5 -4t-21.5 -8.5t-22.5 -8t-22.5 -3.5t-23.5 3.5t-25 7.5t-25 7.5t-22.5 3.5q-15 0 -24.5 -3.5t-18.5 -7.5t-19 -7.5t-24 -3.5v69q21 0 33 5q6 3 10 6q19 12 41 12q10 0 21 -4t22.5 -8.5t23.5 -8 t26 -3.5q27 0 49.5 11t41.5 11q9 0 19.5 -3.5l22.5 -7.5t25 -7.5t25 -3.5q26 0 50 11t43 11t41.5 -11t48.5 -11q14 0 27 3.5t24.5 8t22 8.5t20.5 4q21 0 41 -12q4 -3 10 -6q12 -5 33 -5v-69q-15 0 -25 3.5t-19 7.5t-18.5 7.5t-23.5 3.5q-10 0 -22 -3.5t-24.5 -7.5 t-24.5 -7.5t-22 -3.5q-12 0 -23.5 3.5t-23 8t-22 8.5t-19.5 4q-8 0 -18.5 -3t-24.5 -8zM434 108q-14 -7 -26 -9.5t-23 -2.5t-21 3.5t-20.5 8t-23 8t-28.5 3.5q-11 0 -21.5 -3.5t-22 -8t-23 -8t-23.5 -3.5q-11 0 -23 3.5t-24 7.5t-24.5 7.5t-22.5 3.5q-15 0 -25 -3t-19 -7 t-18.5 -7.5t-22.5 -4.5v67q10 0 18.5 1t13.5 3q6 2 11 4q14 8 25.5 10.5t21.5 2.5q23 0 44.5 -8.5t38.5 -8.5v159l-45 112q-2 5 -3 9t-1 8q0 16 15 21l35 14v97h47v52h90v68h99v-68h91v-52h47v-97l34 -14q16 -7 16 -21q0 -4 -1 -8t-3 -9l-45 -112v-159q17 0 38.5 9.5 t44.5 9.5q10 0 21 -2.5t25 -10.5q5 -2 11 -4q5 -2 13 -3.5t19 -2.5v-67q-14 1 -23 4.5t-18 7.5t-19 7t-25 3q-11 0 -22.5 -3.5t-24 -7.5t-24.5 -7.5t-23 -3.5q-12 0 -23.5 3.5t-23 8t-22.5 8t-21 3.5q-20 0 -41 -11zM287 598v-49h-47v-40l144 59l144 -59v40h-47v49h-194z " />
<glyph unicode="&#xe38f;" horiz-adv-x="628" d="M233 107l-72 -107h-62l107 156q-29 5 -51 28.5t-22 58.5v322q0 36 25.5 63t64.5 27h225q39 0 65 -27t26 -63v-322q0 -17 -6 -32t-16 -26t-22.5 -18.5t-25.5 -10.5l104 -156h-58l-77 107h-205zM302 666q-10 0 -17 6.5t-7 17.5t7 17.5t17 6.5q11 0 18 -6.5t7 -17.5 t-7 -17.5t-18 -6.5zM372 666q-13 0 -20.5 6.5t-7.5 17.5t7.5 17.5t20.5 6.5q10 0 17 -6.5t7 -17.5t-7 -17.5t-17 -6.5zM448 205q19 0 30 11t11 27t-11 29t-30 13q-16 0 -26.5 -13t-10.5 -29t10.5 -27t26.5 -11zM445 413q44 0 44 45v59q0 18 -10.5 31.5t-33.5 13.5h-218 q-22 0 -33.5 -13.5t-11.5 -31.5v-59q0 -22 13.5 -33.5t31.5 -11.5h218zM382 579q6 0 10 6t4 11v25q0 5 -4 9t-10 4h-90q-5 0 -9.5 -4t-4.5 -9v-25q0 -5 4.5 -11t9.5 -6h90zM223 205q16 0 29 11t13 27t-13 29t-29 13q-15 0 -26.5 -13t-11.5 -29t11.5 -27t26.5 -11z" />
<glyph unicode="&#xe390;" horiz-adv-x="674" d="M343 660q49 0 91 -6.5t74 -18.5t51.5 -30t22.5 -41l28 -202v-277h-45v-41q0 -21 -12.5 -31.5t-26.5 -10.5q-16 0 -28.5 10.5t-12.5 31.5v41h-291v-41q0 -21 -12.5 -31.5t-27.5 -10.5t-27.5 10.5t-12.5 31.5v41h-45v277l28 202q3 23 23.5 41t53 30t76 18.5t93.5 6.5z M523 172q16 0 27.5 11t11.5 27t-11.5 27.5t-27.5 11.5q-13 0 -24 -11.5t-11 -27.5t11 -27t24 -11zM156 172q13 0 24 11t11 27t-11 27.5t-24 11.5q-16 0 -27 -11.5t-11 -27.5t11 -27t27 -11zM450 578q8 0 12 5.5t4 11.5q0 7 -4 12t-12 5h-221q-8 0 -11.5 -5t-3.5 -12 q0 -6 3.5 -11.5t11.5 -5.5h221zM170 546q-17 0 -23 -9t-8 -21l-21 -146q0 -11 4 -19.5t17 -8.5h402q13 0 17 8.5t4 19.5l-21 146q-2 12 -8.5 21t-23.5 9h-339z" />
<glyph unicode="&#xe391;" horiz-adv-x="701" d="M177 92v-48q0 -23 -13 -34.5t-29 -11.5q-17 0 -30.5 11.5t-13.5 34.5v48h-48v157q0 16 5.5 28.5t14 21t17.5 13t15 6.5l48 121q8 18 24 31.5t42 13.5h69v32q0 20 21 20h80q17 0 17 -20v-32h69q26 0 42 -13.5t21 -31.5l48 -121q8 -2 17.5 -6.5t18 -13t14.5 -21t6 -28.5 v-157h-48v-48q0 -23 -13.5 -34.5t-29.5 -11.5q-17 0 -30.5 11.5t-13.5 34.5v48h-320zM528 321l-31 94q-9 24 -32 24h-256q-13 0 -18 -6.5t-9 -17.5l-35 -94h381zM137 189q16 0 26.5 12t10.5 30t-10.5 30t-26.5 12q-19 0 -30.5 -12t-11.5 -30t11.5 -30t30.5 -12zM539 189 q18 0 29.5 12t11.5 30t-11.5 30t-29.5 12q-16 0 -29 -12t-13 -30t13 -30t29 -12z" />
<glyph unicode="&#xe392;" horiz-adv-x="790" d="M237 429h84v63q0 19 13 28.5t33 9.5h93q15 0 28 -9.5t13 -28.5v-63h87v-429h-351v429zM203 0h-44q-26 0 -46 17t-20 49v302q0 26 20 43.5t46 17.5h44v-429zM471 429v67h-119v-67h119zM619 429h49q26 0 44 -17.5t18 -43.5v-302q0 -32 -19.5 -49t-42.5 -17h-49v429z" />
<glyph unicode="&#xe393;" horiz-adv-x="592" d="M299 482q0 -16 -14 -32t-34 -16v-392q0 -21 -12 -31.5t-27 -10.5q-14 0 -26 10.5t-12 31.5v392q-18 0 -33 14t-15 37v219q0 6 4 9t9 3q14 0 14 -16v-159h21v163q0 7 4.5 9.5t9.5 2.5t10 -2.5t5 -9.5v-163h24v163q0 12 11 12q5 0 9 -3.5t4 -12.5v-159h24v163q0 12 12 12 q4 0 8 -3.5t4 -12.5v-218zM504 42q0 -20 -12 -30.5t-26 -10.5t-26.5 10.5t-12.5 30.5v243h-42v366q0 33 19 49t41 16q23 0 41 -16t18 -49v-609z" />
<glyph unicode="&#xe395;" horiz-adv-x="720" d="M39 633h630l-275 -339v-215h151q20 0 29.5 -11.5t9.5 -27.5q0 -14 -9.5 -27t-29.5 -13h-377q-20 0 -29.5 13t-9.5 27q0 16 9.5 27.5t29.5 11.5h150v215zM400 377q17 0 32 15.5t15 32.5q0 21 -15 36t-32 15q-22 0 -37.5 -15t-15.5 -36q0 -17 15.5 -32.5t37.5 -15.5z" />
<glyph unicode="&#xe396;" horiz-adv-x="880" d="M504 689v-689h-64v689h64zM235 584q-23 0 -39.5 16t-16.5 40t16.5 40t39.5 16q25 0 41.5 -16t16.5 -40t-16.5 -40t-41.5 -16zM228 224v-200q0 -13 -8 -19.5t-18 -6.5t-18 6.5t-8 19.5v200h-74l77 264h-12l-44 -151q-2 -11 -9 -15t-15 -4q-9 0 -17 7t-8 19q0 2 0.5 4 t0.5 4l53 164q2 6 5.5 15t11.5 17.5t21.5 14.5t35.5 6h66q22 0 36 -6t22.5 -14.5t12 -17.5t4.5 -15l52 -164q1 -3 1 -8q0 -12 -6.5 -19t-17.5 -7q-7 0 -13.5 4t-10.5 15l-44 151h-11l74 -264h-71v-200q0 -13 -8 -19.5t-17 -6.5q-11 0 -19 6.5t-8 19.5v200h-16zM750 569 q25 0 41 -7t25 -18t12.5 -24.5t3.5 -27.5v-175q0 -13 -7 -18.5t-18 -5.5q-9 0 -16.5 5.5t-7.5 18.5v160h-11v-446q0 -16 -10 -24t-22 -8t-22 8t-10 24v269h-12v-269q0 -16 -10.5 -24t-23.5 -8q-12 0 -23 8t-11 24v446h-8v-160q0 -13 -8.5 -18.5t-16.5 -5.5q-11 0 -19 5.5 t-8 18.5v175q0 30 19 53.5t63 23.5h100zM700 584q-23 0 -39 16t-16 40t16 40t39 16q25 0 40.5 -16t15.5 -40t-15.5 -40t-40.5 -16z" />
<glyph unicode="&#xe478;" d="M1021 694h145v-540h242v-117h-387v657zM752 298l-56 255h-7l-52 -255h115zM611 186l-34 -149h-150l181 656h169l186 -656h-150l-36 149h-166zM901 -121q107 0 207.5 17t188.5 48.5t161 75.5t125.5 98t81.5 116.5t29 130.5t-29 130t-81.5 116t-125.5 98.5t-161 76 t-188.5 48.5t-207.5 17q-165 0 -308.5 -38t-250 -103.5t-167.5 -154t-61 -190.5t61 -190.5t167.5 -154.5t250 -103.5t308.5 -37.5zM901 -181q-119 0 -228.5 19.5t-204.5 54.5t-172 84.5t-132 110.5t-85 131t-30 146q0 114 66 213.5t181 174t270.5 117t334.5 42.5 q116 0 224.5 -19.5t204 -55t174.5 -85t135.5 -110.5t88 -131t31.5 -146t-31.5 -146t-88 -131t-135.5 -110.5t-174.5 -84.5t-204 -54.5t-224.5 -19.5z" />
<glyph unicode="&#xe479;" d="M729 298l-56 255h-7l-52 -255h115zM588 186l-34 -149h-151l182 656h169l186 -656h-150l-36 149h-166zM977 694h387v-118h-241v-139h212v-116h-212v-167h241v-117h-387v657zM901 -121q107 0 207.5 17t188.5 48.5t161 75.5t125.5 98t81.5 116.5t29 130.5t-29 130t-81.5 116 t-125.5 98.5t-161 76t-188.5 48.5t-207.5 17q-165 0 -308.5 -38t-250 -103.5t-167.5 -154t-61 -190.5t61 -190.5t167.5 -154.5t250 -103.5t308.5 -37.5zM901 -181q-119 0 -228.5 19.5t-204.5 54.5t-172 84.5t-132 110.5t-85 131t-30 146q0 114 66 213.5t181 174t270.5 117 t334.5 42.5q116 0 224.5 -19.5t204 -55t174.5 -85t135.5 -110.5t88 -131t31.5 -146t-31.5 -146t-88 -131t-135.5 -110.5t-174.5 -84.5t-204 -54.5t-224.5 -19.5z" />
<glyph unicode="&#xe47a;" d="M901 -181q-119 0 -228.5 19.5t-204.5 54.5t-172 84.5t-132 110.5t-85 131t-30 146q0 114 66 213.5t181 174t270.5 117t334.5 42.5q116 0 224.5 -19.5t204 -55t174.5 -85t135.5 -110.5t88 -131t31.5 -146t-31.5 -146t-88 -131t-135.5 -110.5t-174.5 -84.5t-204 -54.5 t-224.5 -19.5zM901 -121q107 0 207.5 17t188.5 48.5t161 75.5t125.5 98t81.5 116.5t29 130.5t-29 130t-81.5 116t-125.5 98.5t-161 76t-188.5 48.5t-207.5 17q-165 0 -308.5 -38t-250 -103.5t-167.5 -154t-61 -190.5t61 -190.5t167.5 -154.5t250 -103.5t308.5 -37.5z M1266 37q-25 66 -49 132t-50 132h-56v-264h-145v656h197q36 0 75 -6.5t71.5 -26.5t53.5 -57.5t21 -98.5q0 -43 -10 -74.5t-27.5 -54.5t-41 -37.5t-50.5 -22.5l63 -49l94 -229h-146zM582 186l-34 -149h-151l181 656h170l186 -656h-151l-35 149h-166zM1238 500q0 24 -7 39.5 t-19 24.5t-27.5 12.5t-32.5 3.5h-41v-167h48q39 3 59 22.5t20 64.5zM722 298l-56 255h-6l-53 -255h115z" />
<glyph unicode="&#xe47b;" d="M737 386q59 -18 84 -60.5t25 -96.5q0 -42 -14.5 -77.5t-40 -61t-60 -39.5t-75.5 -14h-257v657h231q40 0 75.5 -10.5t62.5 -31.5t42.5 -53.5t15.5 -75.5q0 -42 -21.5 -79.5t-67.5 -54.5v-3zM702 237q0 47 -30 68t-71 21h-57v-178h57q22 0 40.5 4t32 14t21 27.5t7.5 43.5z M682 516q0 19 -7.5 31.5t-18.5 20t-24.5 10.5t-26.5 3h-61v-146h55q36 0 59.5 19t23.5 62zM919 372q0 66 16.5 126.5t50 107t85 74t120.5 27.5q58 0 101 -13t76 -31l-37 -100q-24 11 -58 18t-63 7q-66 0 -100 -56t-34 -153q0 -112 32 -173t91 -61q15 0 30 4t23 7v152l-52 9 v83h191v-322q-29 -17 -58 -27.5t-56.5 -16.5t-52.5 -8t-44 -2q-75 0 -125 26.5t-80 73.5t-43 110.5t-13 137.5zM901 -121q107 0 207.5 17t188.5 48.5t161 75.5t125.5 98t81.5 116.5t29 130.5t-29 130t-81.5 116t-125.5 98.5t-161 76t-188.5 48.5t-207.5 17 q-165 0 -308.5 -38t-250 -103.5t-167.5 -154t-61 -190.5t61 -190.5t167.5 -154.5t250 -103.5t308.5 -37.5zM901 -181q-119 0 -228.5 19.5t-204.5 54.5t-172 84.5t-132 110.5t-85 131t-30 146q0 114 66 213.5t181 174t270.5 117t334.5 42.5q116 0 224.5 -19.5t204 -55 t174.5 -85t135.5 -110.5t88 -131t31.5 -146t-31.5 -146t-88 -131t-135.5 -110.5t-174.5 -84.5t-204 -54.5t-224.5 -19.5z" />
<glyph unicode="&#xe47c;" d="M781 386q59 -18 84 -60.5t25 -96.5q0 -42 -14.5 -77.5t-40 -61t-60 -39.5t-75.5 -14h-257v657h231q40 0 75.5 -10.5t62.5 -31.5t42.5 -53.5t15.5 -75.5q0 -42 -21.5 -79.5t-67.5 -54.5v-3zM746 237q0 47 -30 68t-71 21h-57v-178h57q22 0 40.5 4t32 14t21 27.5t7.5 43.5z M726 516q0 19 -7.5 31.5t-18.5 20t-24.5 10.5t-26.5 3h-61v-146h55q36 0 59.5 19t23.5 62zM1177 426l37 95l73 172h152l-195 -402v-254h-145v252l-191 404h152l75 -172l36 -95h6zM901 -121q107 0 207.5 17t188.5 48.5t161 75.5t125.5 98t81.5 116.5t29 130.5t-29 130 t-81.5 116t-125.5 98.5t-161 76t-188.5 48.5t-207.5 17q-165 0 -308.5 -38t-250 -103.5t-167.5 -154t-61 -190.5t61 -190.5t167.5 -154.5t250 -103.5t308.5 -37.5zM901 -181q-119 0 -228.5 19.5t-204.5 54.5t-172 84.5t-132 110.5t-85 131t-30 146q0 114 66 213.5t181 174 t270.5 117t334.5 42.5q116 0 224.5 -19.5t204 -55t174.5 -85t135.5 -110.5t88 -131t31.5 -146t-31.5 -146t-88 -131t-135.5 -110.5t-174.5 -84.5t-204 -54.5t-224.5 -19.5z" />
<glyph unicode="&#xe47d;" d="M901 -181q-119 0 -228.5 19.5t-204.5 54.5t-172 84.5t-132 110.5t-85 131t-30 146q0 114 66 213.5t181 174t270.5 117t334.5 42.5q116 0 224.5 -19.5t204 -55t174.5 -85t135.5 -110.5t88 -131t31.5 -146t-31.5 -146t-88 -131t-135.5 -110.5t-174.5 -84.5t-204 -54.5 t-224.5 -19.5zM901 -121q107 0 207.5 17t188.5 48.5t161 75.5t125.5 98t81.5 116.5t29 130.5t-29 130t-81.5 116t-125.5 98.5t-161 76t-188.5 48.5t-207.5 17q-165 0 -308.5 -38t-250 -103.5t-167.5 -154t-61 -190.5t61 -190.5t167.5 -154.5t250 -103.5t308.5 -37.5z M757 386q59 -18 83.5 -60.5t24.5 -96.5q0 -42 -14 -77.5t-39.5 -61t-60 -39.5t-75.5 -14h-257v657h231q39 0 74.5 -10.5t62.5 -31.5t43 -53.5t16 -75.5q0 -42 -21.5 -79.5t-67.5 -54.5v-3zM1266 37q-25 66 -49 132t-50 132h-56v-264h-145v656h197q36 0 75 -6.5t71.5 -26.5 t53.5 -57.5t21 -98.5q0 -43 -10 -74.5t-27.5 -54.5t-41 -37.5t-50.5 -22.5l63 -49l94 -229h-146zM721 237q0 47 -29.5 68t-70.5 21h-57v-178h57q21 0 39.5 4t32 14t21 27.5t7.5 43.5zM1238 500q0 24 -7 39.5t-19 24.5t-27.5 12.5t-32.5 3.5h-41v-167h48q39 3 59 22.5 t20 64.5zM702 516q0 19 -7.5 31.5t-18.5 20t-24.5 10.5t-26.5 3h-61v-146h55q35 0 59 19t24 62z" />
<glyph unicode="&#xe47e;" d="M901 -181q-119 0 -228.5 19.5t-204.5 54.5t-172 84.5t-132 110.5t-85 131t-30 146q0 114 66 213.5t181 174t270.5 117t334.5 42.5q116 0 224.5 -19.5t204 -55t174.5 -85t135.5 -110.5t88 -131t31.5 -146t-31.5 -146t-88 -131t-135.5 -110.5t-174.5 -84.5t-204 -54.5 t-224.5 -19.5zM901 -121q107 0 207.5 17t188.5 48.5t161 75.5t125.5 98t81.5 116.5t29 130.5t-29 130t-81.5 116t-125.5 98.5t-161 76t-188.5 48.5t-207.5 17q-165 0 -308.5 -38t-250 -103.5t-167.5 -154t-61 -190.5t61 -190.5t167.5 -154.5t250 -103.5t308.5 -37.5z M1128 25q-21 0 -46 2.5t-50.5 7t-49 12t-42.5 18.5l37 105q22 -9 44.5 -14t42.5 -8t35.5 -4t23.5 -1q51 0 76 17.5t25 62.5q0 21 -5.5 35t-17 24t-30 17.5t-44.5 15.5q-45 15 -80.5 30.5t-60.5 37.5t-38 54t-13 82q0 52 19.5 88t52 58t74.5 31.5t87 9.5q19 0 41.5 -2.5 t46 -7.5t45 -13t39.5 -18q-2 -5 -6.5 -19.5t-9.5 -30.5t-9.5 -30.5t-5.5 -19.5q-23 9 -47 14t-44 7t-35 2.5t-19 0.5q-15 0 -29 -3t-25 -10.5t-17.5 -20.5t-6.5 -32q0 -34 20.5 -49.5t67.5 -30.5q55 -18 93.5 -36t62.5 -42.5t35 -58t11 -81.5q0 -54 -18.5 -92t-51.5 -62 t-78.5 -35t-99.5 -11zM647 24q-68 0 -114 26.5t-73.5 73t-39 110t-11.5 137.5q0 66 14.5 126.5t46 107t80 74t117.5 27.5q60 0 101 -13t73 -32l-37 -98q-27 11 -58 17.5t-60 6.5q-64 0 -92.5 -55.5t-28.5 -152.5q0 -113 28.5 -173.5t82.5 -60.5q30 0 60 7.5t74 25.5l39 -100 q-42 -29 -91.5 -41.5t-110.5 -12.5z" />
<glyph unicode="&#xe47f;" d="M647 24q-68 0 -114 26.5t-73.5 73t-39 110t-11.5 137.5q0 66 14.5 126.5t46 107t80 74t117.5 27.5q60 0 101 -13t73 -32l-37 -98q-27 11 -58 17.5t-60 6.5q-64 0 -92.5 -55.5t-28.5 -152.5q0 -113 28.5 -173.5t82.5 -60.5q30 0 60 7.5t74 25.5l39 -100 q-42 -29 -91.5 -41.5t-110.5 -12.5zM912 145l253 431h-231v118h395v-103l-256 -437h268v-117h-429v108zM901 -121q107 0 207.5 17t188.5 48.5t161 75.5t125.5 98t81.5 116.5t29 130.5t-29 130t-81.5 116t-125.5 98.5t-161 76t-188.5 48.5t-207.5 17q-165 0 -308.5 -38 t-250 -103.5t-167.5 -154t-61 -190.5t61 -190.5t167.5 -154.5t250 -103.5t308.5 -37.5zM901 -181q-119 0 -228.5 19.5t-204.5 54.5t-172 84.5t-132 110.5t-85 131t-30 146q0 114 66 213.5t181 174t270.5 117t334.5 42.5q116 0 224.5 -19.5t204 -55t174.5 -85t135.5 -110.5 t88 -131t31.5 -146t-31.5 -146t-88 -131t-135.5 -110.5t-174.5 -84.5t-204 -54.5t-224.5 -19.5z" />
<glyph unicode="&#xe480;" d="M675 24q-68 0 -113.5 26.5t-73 73t-39 110t-11.5 137.5q0 66 14.5 126.5t45.5 107t80 74t118 27.5q59 0 100.5 -13t73.5 -32l-38 -98q-27 11 -57.5 17.5t-59.5 6.5q-64 0 -92.5 -55.5t-28.5 -152.5q0 -113 28 -173.5t83 -60.5q29 0 59.5 7.5t74.5 25.5l39 -100 q-42 -29 -91.5 -41.5t-111.5 -12.5zM1191 426l38 95l72 172h152l-195 -402v-254h-145v252l-190 404h152l74 -172l37 -95h5zM901 -121q107 0 207.5 17t188.5 48.5t161 75.5t125.5 98t81.5 116.5t29 130.5t-29 130t-81.5 116t-125.5 98.5t-161 76t-188.5 48.5t-207.5 17 q-165 0 -308.5 -38t-250 -103.5t-167.5 -154t-61 -190.5t61 -190.5t167.5 -154.5t250 -103.5t308.5 -37.5zM901 -181q-119 0 -228.5 19.5t-204.5 54.5t-172 84.5t-132 110.5t-85 131t-30 146q0 114 66 213.5t181 174t270.5 117t334.5 42.5q116 0 224.5 -19.5t204 -55 t174.5 -85t135.5 -110.5t88 -131t31.5 -146t-31.5 -146t-88 -131t-135.5 -110.5t-174.5 -84.5t-204 -54.5t-224.5 -19.5z" />
<glyph unicode="&#xe481;" d="M660 24q-68 0 -114 26.5t-73.5 73t-39 110t-11.5 137.5q0 66 14.5 126.5t46 107t80.5 74t118 27.5q59 0 100 -13t73 -32l-37 -98q-27 11 -58 17.5t-60 6.5q-63 0 -92 -55.5t-29 -152.5q0 -113 28.5 -173.5t82.5 -60.5q30 0 60 7.5t75 25.5l38 -100q-42 -29 -91.5 -41.5 t-110.5 -12.5zM1218 298l-57 255h-6l-53 -255h116zM1077 186l-34 -149h-151l181 656h170l186 -656h-151l-35 149h-166zM901 -121q107 0 207.5 17t188.5 48.5t161 75.5t125.5 98t81.5 116.5t29 130.5t-29 130t-81.5 116t-125.5 98.5t-161 76t-188.5 48.5t-207.5 17 q-165 0 -308.5 -38t-250 -103.5t-167.5 -154t-61 -190.5t61 -190.5t167.5 -154.5t250 -103.5t308.5 -37.5zM901 -181q-119 0 -228.5 19.5t-204.5 54.5t-172 84.5t-132 110.5t-85 131t-30 146q0 114 66 213.5t181 174t270.5 117t334.5 42.5q116 0 224.5 -19.5t204 -55 t174.5 -85t135.5 -110.5t88 -131t31.5 -146t-31.5 -146t-88 -131t-135.5 -110.5t-174.5 -84.5t-204 -54.5t-224.5 -19.5z" />
<glyph unicode="&#xe482;" d="M645 24q-68 0 -113.5 26.5t-73 73t-39 110t-11.5 137.5q0 66 14.5 126.5t46 107t80 74t117.5 27.5q59 0 100.5 -13t73.5 -32l-37 -98q-28 11 -58.5 17.5t-59.5 6.5q-64 0 -92.5 -55.5t-28.5 -152.5q0 -113 28.5 -173.5t82.5 -60.5q30 0 60 7.5t74 25.5l39 -100 q-42 -29 -91.5 -41.5t-111.5 -12.5zM1258 312v380h140v-655h-152l-200 407h-7v-407h-137v655h165l186 -380h5zM901 -121q107 0 207.5 17t188.5 48.5t161 75.5t125.5 98t81.5 116.5t29 130.5t-29 130t-81.5 116t-125.5 98.5t-161 76t-188.5 48.5t-207.5 17q-165 0 -308.5 -38 t-250 -103.5t-167.5 -154t-61 -190.5t61 -190.5t167.5 -154.5t250 -103.5t308.5 -37.5zM901 -181q-119 0 -228.5 19.5t-204.5 54.5t-172 84.5t-132 110.5t-85 131t-30 146q0 114 66 213.5t181 174t270.5 117t334.5 42.5q116 0 224.5 -19.5t204 -55t174.5 -85t135.5 -110.5 t88 -131t31.5 -146t-31.5 -146t-88 -131t-135.5 -110.5t-174.5 -84.5t-204 -54.5t-224.5 -19.5z" />
<glyph unicode="&#xe483;" d="M632 24q-68 0 -113.5 26.5t-73 73t-39 110t-11.5 137.5q0 66 14.5 126.5t45.5 107t80 74t118 27.5q59 0 100.5 -13t73.5 -32l-37 -98q-28 11 -58.5 17.5t-59.5 6.5q-64 0 -92.5 -55.5t-28.5 -152.5q0 -113 28 -173.5t83 -60.5q30 0 60 7.5t74 25.5l39 -100 q-42 -29 -91.5 -41.5t-111.5 -12.5zM1245 321h-184v-284h-145v657h145v-260h184v260h144v-657h-144v284zM901 -121q107 0 207.5 17t188.5 48.5t161 75.5t125.5 98t81.5 116.5t29 130.5t-29 130t-81.5 116t-125.5 98.5t-161 76t-188.5 48.5t-207.5 17q-165 0 -308.5 -38 t-250 -103.5t-167.5 -154t-61 -190.5t61 -190.5t167.5 -154.5t250 -103.5t308.5 -37.5zM901 -181q-119 0 -228.5 19.5t-204.5 54.5t-172 84.5t-132 110.5t-85 131t-30 146q0 114 66 213.5t181 174t270.5 117t334.5 42.5q116 0 224.5 -19.5t204 -55t174.5 -85t135.5 -110.5 t88 -131t31.5 -146t-31.5 -146t-88 -131t-135.5 -110.5t-174.5 -84.5t-204 -54.5t-224.5 -19.5z" />
<glyph unicode="&#xe484;" d="M644 24q-68 0 -113.5 26.5t-73 73t-39 110t-11.5 137.5q0 66 14.5 126.5t46 107t80 74t117.5 27.5q59 0 100.5 -13t73.5 -32l-37 -98q-28 11 -58.5 17.5t-59.5 6.5q-64 0 -92.5 -55.5t-28.5 -152.5q0 -113 28 -173.5t83 -60.5q30 0 60 7.5t74 25.5l39 -100 q-42 -29 -91.5 -41.5t-111.5 -12.5zM1384 227q0 -45 -15.5 -82.5t-45.5 -64.5t-75 -41.5t-103 -14.5q-116 0 -171.5 55.5t-55.5 147.5v466h146v-451q0 -45 17.5 -72t63.5 -27q48 0 70 27t22 72v451h147v-466zM901 -121q107 0 207.5 17t188.5 48.5t161 75.5t125.5 98 t81.5 116.5t29 130.5t-29 130t-81.5 116t-125.5 98.5t-161 76t-188.5 48.5t-207.5 17q-165 0 -308.5 -38t-250 -103.5t-167.5 -154t-61 -190.5t61 -190.5t167.5 -154.5t250 -103.5t308.5 -37.5zM901 -181q-119 0 -228.5 19.5t-204.5 54.5t-172 84.5t-132 110.5t-85 131 t-30 146q0 114 66 213.5t181 174t270.5 117t334.5 42.5q116 0 224.5 -19.5t204 -55t174.5 -85t135.5 -110.5t88 -131t31.5 -146t-31.5 -146t-88 -131t-135.5 -110.5t-174.5 -84.5t-204 -54.5t-224.5 -19.5z" />
<glyph unicode="&#xe485;" d="M981 695h387v-118h-241v-139h213v-116h-213v-167h241v-117h-387v657zM882 371q0 -85 -14 -147.5t-47 -104t-87 -62t-135 -20.5h-180v657h179q52 0 102.5 -9.5t91 -43t65.5 -97.5t25 -173zM732 375q0 66 -9 106t-25.5 62.5t-40.5 30t-54 7.5h-40v-431h52q38 0 61 15.5 t35.5 45t16.5 71t4 93.5zM901 -121q107 0 207.5 17t188.5 48.5t161 75.5t125.5 98t81.5 116.5t29 130.5t-29 130t-81.5 116t-125.5 98.5t-161 76t-188.5 48.5t-207.5 17q-165 0 -308.5 -38t-250 -103.5t-167.5 -154t-61 -190.5t61 -190.5t167.5 -154.5t250 -103.5 t308.5 -37.5zM901 -181q-119 0 -228.5 19.5t-204.5 54.5t-172 84.5t-132 110.5t-85 131t-30 146q0 114 66 213.5t181 174t270.5 117t334.5 42.5q116 0 224.5 -19.5t204 -55t174.5 -85t135.5 -110.5t88 -131t31.5 -146t-31.5 -146t-88 -131t-135.5 -110.5t-174.5 -84.5 t-204 -54.5t-224.5 -19.5z" />
<glyph unicode="&#xe486;" d="M882 371q0 -85 -14 -147.5t-47 -104t-87 -62t-135 -20.5h-180v657h179q52 0 102.5 -9.5t91 -43t65.5 -97.5t25 -173zM732 375q0 66 -9 106t-25.5 62.5t-40.5 30t-54 7.5h-40v-431h52q38 0 61 15.5t35.5 45t16.5 71t4 93.5zM1104 333v-296h-146v656h146v-280h5l190 280 h166l-227 -313l229 -343h-177l-181 297zM901 -121q107 0 207.5 17t188.5 48.5t161 75.5t125.5 98t81.5 116.5t29 130.5t-29 130t-81.5 116t-125.5 98.5t-161 76t-188.5 48.5t-207.5 17q-165 0 -308.5 -38t-250 -103.5t-167.5 -154t-61 -190.5t61 -190.5t167.5 -154.5 t250 -103.5t308.5 -37.5zM901 -181q-119 0 -228.5 19.5t-204.5 54.5t-172 84.5t-132 110.5t-85 131t-30 146q0 114 66 213.5t181 174t270.5 117t334.5 42.5q116 0 224.5 -19.5t204 -55t174.5 -85t135.5 -110.5t88 -131t31.5 -146t-31.5 -146t-88 -131t-135.5 -110.5 t-174.5 -84.5t-204 -54.5t-224.5 -19.5z" />
<glyph unicode="&#xe487;" d="M441 694h387v-118h-241v-139h212v-116h-212v-167h241v-117h-387v657zM1135 25q-21 0 -46.5 2.5t-50.5 7t-49 12t-42 18.5q1 5 6.5 20t11.5 32.5t11 32.5t7 20q22 -9 45 -14t43 -8t35.5 -4t23.5 -1q51 0 76 17.5t25 62.5q0 21 -5.5 35t-17.5 24t-30.5 17.5t-43.5 15.5 q-45 15 -81 30.5t-60.5 37.5t-38 54t-13.5 82q0 52 19.5 88t52.5 58t75 31.5t87 9.5q19 0 41.5 -2.5t45.5 -7.5t45 -13t39 -18q-2 -5 -6 -19.5t-9 -30.5t-9.5 -30.5t-6.5 -19.5q-23 9 -46.5 14t-44 7t-35.5 2.5t-19 0.5q-14 0 -28 -3t-25 -10.5t-18 -20.5t-7 -32 q0 -34 21 -49.5t67 -30.5q55 -18 93.5 -36t63 -42.5t35.5 -58t11 -81.5q0 -54 -18.5 -92t-51.5 -62t-78.5 -35t-99.5 -11zM901 -121q107 0 207.5 17t188.5 48.5t161 75.5t125.5 98t81.5 116.5t29 130.5t-29 130t-81.5 116t-125.5 98.5t-161 76t-188.5 48.5t-207.5 17 q-165 0 -308.5 -38t-250 -103.5t-167.5 -154t-61 -190.5t61 -190.5t167.5 -154.5t250 -103.5t308.5 -37.5zM901 -181q-119 0 -228.5 19.5t-204.5 54.5t-172 84.5t-132 110.5t-85 131t-30 146q0 114 66 213.5t181 174t270.5 117t334.5 42.5q116 0 224.5 -19.5t204 -55 t174.5 -85t135.5 -110.5t88 -131t31.5 -146t-31.5 -146t-88 -131t-135.5 -110.5t-174.5 -84.5t-204 -54.5t-224.5 -19.5z" />
<glyph unicode="&#xe488;" d="M474 694h387v-118h-241v-139h212v-116h-212v-167h241v-117h-387v657zM973 694h388v-118h-241v-139h212v-116h-212v-167h241v-117h-388v657zM901 -121q107 0 207.5 17t188.5 48.5t161 75.5t125.5 98t81.5 116.5t29 130.5t-29 130t-81.5 116t-125.5 98.5t-161 76 t-188.5 48.5t-207.5 17q-165 0 -308.5 -38t-250 -103.5t-167.5 -154t-61 -190.5t61 -190.5t167.5 -154.5t250 -103.5t308.5 -37.5zM901 -181q-119 0 -228.5 19.5t-204.5 54.5t-172 84.5t-132 110.5t-85 131t-30 146q0 114 66 213.5t181 174t270.5 117t334.5 42.5 q116 0 224.5 -19.5t204 -55t174.5 -85t135.5 -110.5t88 -131t31.5 -146t-31.5 -146t-88 -131t-135.5 -110.5t-174.5 -84.5t-204 -54.5t-224.5 -19.5z" />
<glyph unicode="&#xe489;" d="M450 694h387v-118h-241v-139h212v-116h-212v-167h241v-117h-387v657zM916 372q0 66 16.5 126.5t50 107t85 74t120.5 27.5q58 0 101 -13t76 -31l-37 -100q-24 11 -58 18t-63 7q-66 0 -100.5 -56t-34.5 -153q0 -112 32 -173t92 -61q14 0 29 4t23 7v152l-51 9v83h191v-322 q-29 -17 -58 -27.5t-56.5 -16.5t-52.5 -8t-44 -2q-75 0 -125 26.5t-80 73.5t-43 110.5t-13 137.5zM901 -121q107 0 207.5 17t188.5 48.5t161 75.5t125.5 98t81.5 116.5t29 130.5t-29 130t-81.5 116t-125.5 98.5t-161 76t-188.5 48.5t-207.5 17q-165 0 -308.5 -38 t-250 -103.5t-167.5 -154t-61 -190.5t61 -190.5t167.5 -154.5t250 -103.5t308.5 -37.5zM901 -181q-119 0 -228.5 19.5t-204.5 54.5t-172 84.5t-132 110.5t-85 131t-30 146q0 114 66 213.5t181 174t270.5 117t334.5 42.5q116 0 224.5 -19.5t204 -55t174.5 -85t135.5 -110.5 t88 -131t31.5 -146t-31.5 -146t-88 -131t-135.5 -110.5t-174.5 -84.5t-204 -54.5t-224.5 -19.5z" />
<glyph unicode="&#xe48a;" d="M901 -181q-119 0 -228.5 19.5t-204.5 54.5t-172 84.5t-132 110.5t-85 131t-30 146q0 114 66 213.5t181 174t270.5 117t334.5 42.5q116 0 224.5 -19.5t204 -55t174.5 -85t135.5 -110.5t88 -131t31.5 -146t-31.5 -146t-88 -131t-135.5 -110.5t-174.5 -84.5t-204 -54.5 t-224.5 -19.5zM901 -121q107 0 207.5 17t188.5 48.5t161 75.5t125.5 98t81.5 116.5t29 130.5t-29 130t-81.5 116t-125.5 98.5t-161 76t-188.5 48.5t-207.5 17q-165 0 -308.5 -38t-250 -103.5t-167.5 -154t-61 -190.5t61 -190.5t167.5 -154.5t250 -103.5t308.5 -37.5z M1259 38q-25 66 -49 132t-50 132h-56v-264h-145v656h197q36 0 75 -6.5t71.5 -26.5t53.5 -57.5t21 -98.5q0 -43 -10 -74.5t-27.5 -54t-41 -37t-50.5 -22.5l63 -50l95 -229h-147zM483 693h386v-118h-240v-140h211v-115h-211v-284h-146v657zM1232 501q0 24 -7.5 39.5 t-19.5 24.5t-27.5 12.5t-32.5 3.5h-41v-166h49q38 2 58.5 21.5t20.5 64.5z" />
<glyph unicode="&#xe48b;" d="M556 694h387v-118h-240v-139h211v-116h-211v-284h-147v657zM1070 693h145v-656h-145v656zM901 -121q107 0 207.5 17t188.5 48.5t161 75.5t125.5 98t81.5 116.5t29 130.5t-29 130t-81.5 116t-125.5 98.5t-161 76t-188.5 48.5t-207.5 17q-165 0 -308.5 -38t-250 -103.5 t-167.5 -154t-61 -190.5t61 -190.5t167.5 -154.5t250 -103.5t308.5 -37.5zM901 -181q-119 0 -228.5 19.5t-204.5 54.5t-172 84.5t-132 110.5t-85 131t-30 146q0 114 66 213.5t181 174t270.5 117t334.5 42.5q116 0 224.5 -19.5t204 -55t174.5 -85t135.5 -110.5t88 -131 t31.5 -146t-31.5 -146t-88 -131t-135.5 -110.5t-174.5 -84.5t-204 -54.5t-224.5 -19.5z" />
<glyph unicode="&#xe48c;" d="M1313 389q60 -19 85 -61.5t25 -96.5q0 -43 -14 -78.5t-39.5 -61t-60.5 -39.5t-76 -14h-259v657h233q39 0 74.5 -10t62.5 -31t43 -53t16 -75q0 -42 -21 -79.5t-69 -56.5v-1zM1280 238q0 47 -30 68.5t-71 21.5h-58v-180h58q21 0 39.5 4t32 14.5t21.5 28t8 43.5zM1259 518 q0 19 -7.5 31.5t-19 20t-25 10.5t-26.5 3h-60v-145h56q34 0 58 19t24 61zM377 373q0 66 16.5 127.5t50 108.5t85 75t120.5 28q59 0 102 -13t77 -33l-37 -100q-25 11 -59 18t-63 7q-66 0 -100.5 -57t-35.5 -154q0 -112 33.5 -173t91.5 -61q15 0 30.5 3.5t21.5 6.5v153l-51 9 v84h192v-322q-29 -18 -58.5 -29t-57.5 -17t-52.5 -8t-42.5 -2q-75 0 -125.5 27t-81 74t-43.5 110.5t-13 137.5zM901 -121q107 0 207.5 17t188.5 48.5t161 75.5t125.5 98t81.5 116.5t29 130.5t-29 130t-81.5 116t-125.5 98.5t-161 76t-188.5 48.5t-207.5 17 q-165 0 -308.5 -38t-250 -103.5t-167.5 -154t-61 -190.5t61 -190.5t167.5 -154.5t250 -103.5t308.5 -37.5zM901 -181q-119 0 -228.5 19.5t-204.5 54.5t-172 84.5t-132 110.5t-85 131t-30 146q0 114 66 213.5t181 174t270.5 117t334.5 42.5q116 0 224.5 -19.5t204 -55 t174.5 -85t135.5 -110.5t88 -131t31.5 -146t-31.5 -146t-88 -131t-135.5 -110.5t-174.5 -84.5t-204 -54.5t-224.5 -19.5z" />
</font>
</defs>
</svg>
