<?xml version="1.0" standalone="no"?>
<!DOCTYPE svg PUBLIC "-//W3C//DTD SVG 1.1//EN" "http://www.w3.org/Graphics/SVG/1.1/DTD/svg11.dtd" >
<svg>
<metadata>
Created by FontForge 20090914 at Fri Oct 14 11:51:36 2016
 By www-data
Copyright (c) 2006 Parachute&#194;&#168;, www.parachute.gr.  All rights reserved.
</metadata>
<defs>
<font id="PFAgoraSansPro-Bold" horiz-adv-x="1818" >
  <font-face 
    font-family="PF Agora Sans Pro"
    font-weight="700"
    font-stretch="normal"
    units-per-em="1000"
    panose-1="2 0 8 0 0 0 0 2 0 4"
    ascent="750"
    descent="-250"
    x-height="491"
    cap-height="688"
    bbox="-396.998 -272.003 1760 976.003"
    underline-thickness="50"
    underline-position="-50"
    unicode-range="U+0020-U+FB05"
  />
<missing-glyph horiz-adv-x="445" 
d="M0 687h445v-687h-445v687zM350 60l-128 228l-128 -228h256zM350 627h-257l129 -227zM61 119l126 226l-126 225v-451zM383 117v454l-126 -228z" />
    <glyph glyph-name="fj" unicode="fj" horiz-adv-x="634" 
d="M94 397l-70.001 -0.00488281v78l71 20v34c0 32 3.66699 60.833 11 86.5s19.666 47.667 36.999 66s40.333 32.333 69 42s64 14.5 106 14.5c23.333 0 51.833 -1.5 85.5 -4.5s66.5 -8.83301 98.5 -17.5l-18 -104c-27.333 4 -52 7.33301 -74 10s-42.333 4 -61 4
c-16.667 0 -32.167 -1.16699 -46.5 -3.5s-26.666 -6.66602 -36.999 -12.999s-18.333 -15.5 -24 -27.5s-8.5 -28 -8.5 -48v-43h327v-414c0 -41.333 -3 -77.666 -9 -108.999s-17.333 -59.166 -34 -83.499s-39.834 -45.333 -69.501 -63s-68.5 -33.167 -116.5 -46.5
c-1.33301 4.66699 -3.5 11 -6.5 19l-10 25.5l-10 25.5c-3 8 -5.5 14 -7.5 18c26 14.667 46.833 28 62.5 40s27.834 24.833 36.501 38.5s14.334 28.834 17.001 45.501s4 37.334 4 62.001v348h-184c0 -66 -0.166992 -132.167 -0.5 -198.5s-0.5 -132.5 -0.5 -198.5h-139z" />
    <glyph glyph-name="ffj" unicode="ffj" horiz-adv-x="951" 
d="M803 623c-26.667 4.66699 -50.5059 8.16699 -71.5059 10.5s-40.5 3.5 -58.5 3.5c-16 0 -31.167 -1 -45.5 -3s-26.833 -6.33301 -37.5 -13s-19.167 -16 -25.5 -28s-9.5 -28 -9.5 -48v-54h323v-421c0 -42.667 -4.16699 -80 -12.5 -112s-21.666 -59.667 -39.999 -83
s-42.166 -43 -71.499 -59s-64.666 -29.333 -105.999 -40c-6 14.667 -11.833 29.834 -17.5 45.501s-11.5 30.834 -17.5 45.501c26 14.667 47 27.834 63 39.501s28.333 24 37 37s14.334 27.667 17.001 44s4 36.833 4 61.5v348h-179c0 -66.667 0.166992 -132.834 0.5 -198.501
s0.5 -131.834 0.5 -198.501h-140v397h-180c0 -66 -0.166992 -132.167 -0.5 -198.5s-0.5 -132.5 -0.5 -198.5h-139v397h-69v77c11.333 4 22.833 7.5 34.5 10.5l35.5 9.5v25c0 61.333 17.833 110.333 53.5 147s90.5 55 164.5 55c24.667 0 49 -1.16699 73 -3.5
s50.333 -7.5 79 -15.5c8 10 19.167 18 33.5 24s29.833 10.667 46.5 14s33.834 5.66602 51.501 6.99902s33.834 2 48.501 2c25.333 -0.666992 53.333 -2.5 84 -5.5s61 -8.16699 91 -15.5zM416.994 557c0 9.33301 0.666992 17.667 2 25l4 21
c-15.333 3.33301 -29.833 5.83301 -43.5 7.5s-26.167 2.5 -37.5 2.5c-40 0 -67.667 -7 -83 -21s-23 -38 -23 -72v-29h181v66z" />
    <glyph glyph-name="ff" unicode="ff" horiz-adv-x="738" 
d="M317 722c21.333 0 43.834 -1.16895 67.501 -3.50195s49.5 -7.5 77.5 -15.5c7.33301 8 17.333 14.667 30 20s26.5 9.5 41.5 12.5s30.167 5.16699 45.5 6.5s29.666 2 42.999 2c16.667 -0.666992 34.834 -2 54.501 -4s39.167 -5.66699 58.5 -11
c-3.33301 -16.667 -6.33301 -33 -9 -49s-5.66699 -32 -9 -48c-14 2.66699 -28.667 4.5 -44 5.5s-28.333 1.5 -39 1.5c-25.333 0 -44.833 -5.16699 -58.5 -15.5s-20.5 -27.833 -20.5 -52.5v-80h141v-94h-141v-397h-140v397h-180c0 -66 -0.166992 -132.167 -0.5 -198.5
s-0.5 -132.5 -0.5 -198.5h-139c0 66.667 0.166992 132.834 0.5 198.501s0.5 131.834 0.5 198.501h-70v77c12 4 23.833 7.5 35.5 10.5l35.5 9.5v29c0 28 3.33301 54 10 78s18.167 45 34.5 63s38.666 32.167 66.999 42.5s64.5 15.5 108.5 15.5zM416.001 490.998
l-0.000976562 71c0 6 0.166992 12.833 0.5 20.5s1.16602 14.834 2.49902 21.501c-13.333 3.33301 -27.166 5.66602 -41.499 6.99902s-28.166 2 -41.499 2c-38 -0.666992 -64.333 -8.16699 -79 -22.5s-22 -37.833 -22 -70.5v-29h181z" />
    <glyph glyph-name="fi" unicode="fi" horiz-adv-x="628" 
d="M413 0l-1 397.001h-177c0 -66 -0.166992 -132.167 -0.5 -198.5s-0.5 -132.5 -0.5 -198.5h-138l1 397h-71v78l72 20v48c0 29.333 3.5 56 10.5 80s18.833 44.667 35.5 62s38.834 30.666 66.501 39.999s62.167 14 103.5 14c22.667 -0.666992 51.5 -2.66699 86.5 -6
s69.5 -9.33301 103.5 -18c-0.666992 -3.33301 -1.83398 -10 -3.50098 -20l-5.5 -32l-5.5 -32c-1.66699 -10 -2.83398 -16.333 -3.50098 -19c-30 4.66699 -56.667 8.16699 -80 10.5s-44.666 3.5 -63.999 3.5c-36 0 -62.833 -6.33301 -80.5 -19s-26.5 -37 -26.5 -73v-42h320
l1 -492h-143z" />
    <glyph glyph-name="fl" unicode="fl" horiz-adv-x="639" 
d="M363 397l-128.001 0.00292969c0 -66 -0.166992 -132.167 -0.5 -198.5s-0.5 -132.5 -0.5 -198.5h-139v397h-70v77c12.667 4 24.834 7.5 36.501 10.5s23.167 6.16699 34.5 9.5v42c0 66 19 115.167 57 147.5s91.333 48.5 160 48.5c22.667 0 45.5 -0.833008 68.5 -2.5
s46.167 -5.16699 69.5 -10.5l115 13c0 -122.667 -0.166992 -244.834 -0.5 -366.501s-0.5 -243.5 -0.5 -365.5h-142c0 103.333 0.166992 205.666 0.5 306.999s0.5 203.666 0.5 306.999c-14.667 2 -29 3.66699 -43 5s-27 2 -39 2c-36.667 0 -63.667 -6.5 -81 -19.5
s-26 -37.5 -26 -73.5v-37h128v-94z" />
    <glyph glyph-name="ffi" unicode="ffi" horiz-adv-x="951" 
d="M733 0l-0.00195312 397.001h-178c0 -66.667 0.166992 -132.834 0.5 -198.501s0.5 -131.834 0.5 -198.501h-140v397h-180c0 -66 -0.166992 -132.167 -0.5 -198.5s-0.5 -132.5 -0.5 -198.5h-139v397h-69v77c11.333 4 22.833 7.5 34.5 10.5l35.5 9.5v29
c0 29.333 3.66699 56.166 11 80.499s19.666 45.333 36.999 63s40.333 31.334 69 41.001s64.334 14.5 107.001 14.5c28 0 53.333 -1.5 76 -4.5s46 -8.16699 70 -15.5c7.33301 8 17.5 14.833 30.5 20.5s27 10.5 42 14.5s30.667 6.83301 47 8.5s31.5 2.5 45.5 2.5
c12.667 0 26.834 -0.333008 42.501 -1s32 -2 49 -4s34.167 -4.5 51.5 -7.5s34 -6.83301 50 -11.5l-19 -102c-27.333 5.33301 -54.166 9 -80.499 11s-49.5 3 -69.5 3c-14 0 -27.167 -1.16699 -39.5 -3.5s-23 -6.66602 -32 -12.999s-16.167 -15.5 -21.5 -27.5
s-8 -27.667 -8 -47v-53h321v-492h-143zM416.998 561.001c0 8 0.666992 15.333 2 22l4 20c-15.333 3.33301 -29.833 5.83301 -43.5 7.5s-26.167 2.5 -37.5 2.5c-40 0 -67.667 -7 -83 -21s-23 -38 -23 -72v-28h181v69z" />
    <glyph glyph-name="ffl" unicode="ffl" horiz-adv-x="962" 
d="M555 491l129.001 0.00390625v-94h-129c0 -66.667 0.166992 -132.834 0.5 -198.501s0.5 -131.834 0.5 -198.501h-140v397h-180v-397h-139v397h-70v77c11.333 4 23 7.5 35 10.5s24 6.16699 36 9.5v45c0 26.667 4 51.167 12 73.5s20.833 41.666 38.5 57.999s40.5 29 68.5 38
s61.667 13.5 101 13.5c22.667 0 46.167 -1.33301 70.5 -4s50.5 -8 78.5 -16c7.33301 7.33301 17.166 13.833 29.499 19.5s25.833 10.5 40.5 14.5s29.834 7 45.501 9s30.5 3 44.5 3c24 0 50.5 -1.33301 79.5 -4s56.833 -5.66699 83.5 -9c16 2 32.167 4.16699 48.5 6.5
s32.5 4.83301 48.5 7.5c0 -126 0.166992 -251 0.5 -375s0.5 -248.667 0.5 -374h-142c0 105.333 -0.166992 210.166 -0.5 314.499s-0.5 209.5 -0.5 315.5c-14.667 2 -29 3.66699 -43 5s-27 2 -39 2c-36.667 0 -63.834 -6.33301 -81.501 -19s-26.5 -37 -26.5 -73v-54z
M417.001 523.004c0 14 0.167969 28 0.500977 42s2.16602 26.667 5.49902 38c-15.333 3.33301 -29.833 5.83301 -43.5 7.5s-26.167 2.5 -37.5 2.5c-40 0 -67.667 -7 -83 -21s-23 -38 -23 -72v-29h181v32z" />
    <glyph glyph-name="ft" unicode="ft" horiz-adv-x="757" 
d="M97 398l-69.9971 0.00292969v78l71 20v70c0 23.333 2.83301 45.166 8.5 65.499s15.5 38.166 29.5 53.499s33 27.333 57 36s54 13 90 13c17.333 0 38.333 -1 63 -3s48.667 -6.33301 72 -13l-20 -99c-14 2.66699 -28.5 4.66699 -43.5 6s-27.833 2 -38.5 2
c-26 0 -45.667 -4.83301 -59 -14.5s-20 -26.834 -20 -51.501v-69h197c2 4 4.66699 12 8 24l10.5 38l10.5 38c3.33301 12 6 20.333 8 25l92 10v-135h143v-94h-143v-222c0 -26 4.66699 -45.167 14 -57.5s26.666 -18.5 51.999 -18.5c9.33301 0 21.666 1.16699 36.999 3.5
s31.666 5.5 48.999 9.5l17 -93c-21.333 -9.33301 -44.5 -16.333 -69.5 -21s-48.167 -7 -69.5 -7c-34 0 -62.167 4 -84.5 12s-39.833 18.667 -52.5 32s-21.5 28.833 -26.5 46.5s-7.5 36.167 -7.5 55.5v260h-186v-398h-139v398z" />
    <glyph glyph-name=".notdef" horiz-adv-x="445" 
d="M0 687h445v-687h-445v687zM350 60l-128 228l-128 -228h256zM350 627h-257l129 -227zM61 119l126 226l-126 225v-451zM383 117v454l-126 -228z" />
    <glyph glyph-name="space" unicode=" " horiz-adv-x="294" 
 />
    <glyph glyph-name="exclam" unicode="!" horiz-adv-x="283" 
d="M207 705l-1 -266l-13 -245h-104l-14 245l-2 266h134zM217 60c0 -19.333 -6.66699 -35.666 -20 -48.999s-32.333 -20 -57 -20s-43.334 6.66699 -56.001 20s-19 29.666 -19 48.999s6.33301 35.666 19 48.999s31.334 20 56.001 20c25.333 0 44.5 -6.66699 57.5 -20
s19.5 -29.666 19.5 -48.999z" />
    <glyph glyph-name="quotedbl" unicode="&#x22;" horiz-adv-x="364" 
d="M72 447l-18 242h115l-19 -242h-78zM216 447l-18 242h115l-18 -242h-79z" />
    <glyph glyph-name="numbersign" unicode="#" horiz-adv-x="575" 
d="M442 395l-30 -131h81l-4 -67h-91l-45 -197h-78l45 197h-113l-46 -197h-77l45 197h-74l5 67h84l31 131h-83l5 66h93l42 176h76l-40 -176h113l42 176h76l-41 -176h74l-5 -66h-85zM222 264h114l29 131h-113z" />
    <glyph glyph-name="dollar" unicode="$" horiz-adv-x="590" 
d="M306 738l47.0029 -0.00195312v-67c22.667 -2 46.167 -5.83301 70.5 -11.5s46.166 -13.834 65.499 -24.501l-25 -88c-26 10 -47 16.833 -63 20.5s-32 6.16699 -48 7.5v-190c22 -7.33301 44 -15.666 66 -24.999s41.833 -21.166 59.5 -35.499s32 -31.666 43 -51.999
s16.5 -44.833 16.5 -73.5c0 -28 -4.5 -52.667 -13.5 -74s-21.833 -39.833 -38.5 -55.5s-36.334 -28.5 -59.001 -38.5s-47.334 -17.333 -74.001 -22v-84h-47v813zM274.003 -75.002l-46.001 -0.000976562v81c-28 3.33301 -56.5 8.5 -85.5 15.5s-56.167 17.167 -81.5 30.5
l33 92c22 -8.66699 40.167 -15.167 54.5 -19.5s26.333 -7.66602 36 -9.99902s17.834 -3.83301 24.501 -4.5s13 -1.66699 19 -3v200c-22 7.33301 -43 16 -63 26s-37.667 22 -53 36s-27.5 30.5 -36.5 49.5s-13.5 41.167 -13.5 66.5c0 26 4.33301 49.5 13 70.5
s20.5 39.167 35.5 54.5s32.5 28 52.5 38s41.667 17 65 21v69h46v-813zM425.002 191.997c0 21.333 -6.66797 38.168 -20.001 50.501s-30.666 22.166 -51.999 29.499v-165c48 8.66699 72 37 72 85zM167.001 492.999c0 -21.333 5.33301 -37.499 16 -48.499
s25.667 -19.833 45 -26.5v152c-18 -4.66699 -32.667 -13.334 -44 -26.001s-17 -29.667 -17 -51z" />
    <glyph glyph-name="percent" unicode="%" horiz-adv-x="900" 
d="M388 465c0 -26 -3 -51.334 -9 -76.001s-15.833 -46.5 -29.5 -65.5s-31.834 -34.333 -54.501 -46s-50.667 -17.5 -84 -17.5c-35.333 0 -64.666 5.66699 -87.999 17s-41.833 26.333 -55.5 45s-23.167 40.334 -28.5 65.001s-8 50.334 -8 77.001c0 26 2.66699 51.333 8 76
s14.833 46.834 28.5 66.501s32.167 35.5 55.5 47.5s53 18 89 18s65.333 -6.16699 88 -18.5s40.5 -28.333 53.5 -48s22 -41.834 27 -66.501s7.5 -49.334 7.5 -74.001zM284 463.999c0 14 -0.665039 28.8311 -1.99805 44.498s-4.5 29.834 -9.5 42.501s-12.333 23.167 -22 31.5
s-22.5 12.5 -38.5 12.5c-16.667 0 -30 -4.16699 -40 -12.5s-17.833 -18.833 -23.5 -31.5s-9.33398 -26.667 -11.001 -42s-2.5 -30.333 -2.5 -45c0 -18 1 -34.833 3 -50.5s5.83301 -29.167 11.5 -40.5s13.5 -20.166 23.5 -26.499s23 -9.5 39 -9.5
c14.667 0 26.667 3.5 36 10.5s16.666 16.5 21.999 28.5s9 25.667 11 41s3 31 3 47zM334.002 -20.0029h-87l315 728h86zM868.002 198.997c0 -26.667 -3 -52.332 -9 -76.999s-15.833 -46.5 -29.5 -65.5s-31.834 -34.167 -54.501 -45.5s-50.667 -17 -84 -17
c-35.333 0 -64.666 5.5 -87.999 16.5s-41.833 26 -55.5 45s-23.167 40.833 -28.5 65.5s-8 50.667 -8 78c0 25.333 2.66699 50.333 8 75s14.833 46.834 28.5 66.501s32.167 35.5 55.5 47.5s53 18 89 18s65.333 -6.16699 88 -18.5s40.5 -28.333 53.5 -48
s22 -41.834 27 -66.501s7.5 -49.334 7.5 -74.001zM764.002 198.999c0 14 -0.665039 28.667 -1.99805 44s-4.5 29.333 -9.5 42s-12.333 23.167 -22 31.5s-22.5 12.5 -38.5 12.5c-16.667 0 -30 -4.16699 -40 -12.5s-17.833 -18.833 -23.5 -31.5s-9.33398 -26.667 -11.001 -42
s-2.5 -30.333 -2.5 -45c0 -18 1 -34.833 3 -50.5s5.83301 -29.334 11.5 -41.001s13.5 -20.667 23.5 -27s23 -9.5 39 -9.5c14.667 0 26.667 3.5 36 10.5s16.666 16.5 21.999 28.5s9 25.833 11 41.5s3 31.834 3 48.501z" />
    <glyph glyph-name="ampersand" unicode="&#x26;" horiz-adv-x="790" 
d="M288 -13c-34 0 -65.832 4.1709 -95.499 12.5039s-55.5 21 -77.5 38s-39.167 38.167 -51.5 63.5s-18.5 55 -18.5 89c0 41.333 12.667 80.166 38 116.499s65 69.166 119 98.499c-16 23.333 -27.833 46 -35.5 68s-11.5 42.667 -11.5 62c0 18 2.83301 36.5 8.5 55.5
s15 36.167 28 51.5s30.167 27.833 51.5 37.5s47.333 14.5 78 14.5c34 0 62.167 -4.83301 84.5 -14.5s40.166 -21.667 53.499 -36s22.666 -30 27.999 -47s8 -32.833 8 -47.5c0 -20 -3.83301 -38.333 -11.5 -55s-17.667 -32 -30 -46s-26.666 -26.833 -42.999 -38.5
s-33.166 -22.834 -50.499 -33.501c22 -31.333 46.5 -63.333 73.5 -96s54.5 -63.667 82.5 -93c12.667 12 24.167 25 34.5 39s19.5 30.167 27.5 48.5s14.833 39.166 20.5 62.499s10.5 50.333 14.5 81h107c-3.33301 -68 -15.333 -125.5 -36 -172.5
s-50.334 -90.167 -89.001 -129.5c22.667 -20 46.667 -38.667 72 -56s49 -30.666 71 -39.999l-25 -42l-25 -42c-13.333 5.33301 -27.666 12.166 -42.999 20.499s-31 17.5 -47 27.5s-31.833 20.667 -47.5 32s-29.834 22.666 -42.501 33.999
c-32 -21.333 -66.667 -37.166 -104 -47.499s-76 -15.5 -116 -15.5zM173.001 198.004c0 -18.667 3.33105 -34.999 9.99805 -48.999s15.834 -25.667 27.501 -35s25.167 -16.333 40.5 -21s32 -7 50 -7c19.333 0 39.333 3.16699 60 9.5s40.667 15.166 60 26.499
c-32 32 -60.833 65.833 -86.5 101.5l-71.5 97.5c-25.333 -15.333 -46.666 -33 -63.999 -53s-26 -43.333 -26 -70zM268.999 544.005c0 -12.667 3.33203 -26.667 9.99902 -42s15.667 -31.333 27 -48c21.333 11.333 40.5 24.5 57.5 39.5s25.5 33.167 25.5 54.5
c0 18 -5.83301 32.167 -17.5 42.5s-27.167 15.5 -46.5 15.5c-10 0 -18.5 -2 -25.5 -6s-12.667 -9 -17 -15s-7.66602 -12.667 -9.99902 -20s-3.5 -14.333 -3.5 -21z" />
    <glyph glyph-name="quotesingle" unicode="'" horiz-adv-x="239" 
d="M79 447l-17 242h115l-19 -242h-79z" />
    <glyph glyph-name="parenleft" unicode="(" horiz-adv-x="332" 
d="M62 280c0 48 5.16602 93.666 15.499 136.999s23.5 83.333 39.5 120s34 69.834 54 99.501s39.667 55.167 59 76.5l60 -38c-8 -12 -18.333 -29.5 -31 -52.5s-24.667 -50.833 -36 -83.5s-21.166 -70.5 -29.499 -113.5s-12.5 -90.5 -12.5 -142.5
c0 -58 4.16699 -109.667 12.5 -155s18.333 -85 30 -119s23.667 -62.333 36 -85s22.833 -40 31.5 -52l-61 -41c-19.333 20.667 -39 46 -59 76s-38 63.833 -54 101.5s-29.167 79.167 -39.5 124.5s-15.5 94.333 -15.5 147z" />
    <glyph glyph-name="parenright" unicode=")" horiz-adv-x="334" 
d="M267 280c0 -52 -5.16797 -100.668 -15.501 -146.001s-23.666 -86.833 -39.999 -124.5s-34.5 -71.5 -54.5 -101.5s-39.667 -55.333 -59 -76l-59 40c8 12.667 18.333 30.334 31 53.001s24.667 51 36 85s21.166 73.667 29.499 119s12.5 97 12.5 155
c0 52 -4.16699 99.5 -12.5 142.5s-18.166 80.833 -29.499 113.5s-23.333 60.334 -36 83.001s-23 40 -31 52l61 38c19.333 -21.333 38.833 -46.833 58.5 -76.5s37.5 -62.834 53.5 -99.501s29.167 -76.5 39.5 -119.5s15.5 -88.833 15.5 -137.5z" />
    <glyph glyph-name="asterisk" unicode="*" horiz-adv-x="422" 
d="M348 637c10 -16.667 17.332 -33.333 21.999 -50s8.66699 -34 12 -52l-61 -8c-20 -2.66699 -40.667 -5 -62 -7c15.333 -13.333 30.166 -27 44.499 -41l43.5 -41c-13.333 -12 -26.833 -23.167 -40.5 -33.5s-28.167 -19.833 -43.5 -28.5
c-9.33301 18 -18.166 36.333 -26.499 55l-24.5 54l-26 -53.5c-8.66699 -18.333 -17 -36.833 -25 -55.5c-16 8.66699 -30.833 17.834 -44.5 27.501s-27.5 21.167 -41.5 34.5l88 83l-119 15c4 19.333 8.5 37.166 13.5 53.499s11.5 32.833 19.5 49.5l105 -60l-12.5 58
c-4.33301 19.333 -8.16602 38.666 -11.499 57.999c9.33301 1.33301 18.5 2.33301 27.5 3s18.167 1 27.5 1s18.333 -0.333008 27 -1s17.667 -1.66699 27 -3l-12 -58c-4 -19.333 -8.33301 -38.666 -13 -57.999z" />
    <glyph glyph-name="plus" unicode="+" horiz-adv-x="590" 
d="M347 261v-170h-85v170h-165v83h165v166h85v-166h163v-83h-163z" />
    <glyph glyph-name="comma" unicode="," horiz-adv-x="263" 
d="M51 64c0 19.333 7.00098 35.999 21.001 49.999s32.667 21 56 21c28.667 0 49.667 -8.5 63 -25.5s20 -37.167 20 -60.5c0 -18.667 -3.33301 -37.667 -10 -57s-15.834 -38 -27.501 -56s-25.5 -34.5 -41.5 -49.5s-33.333 -27.167 -52 -36.5l-34 45
c33.333 30 52 64.667 56 104c-34 6.66699 -51 28.334 -51 65.001z" />
    <glyph glyph-name="hyphen" unicode="-" horiz-adv-x="393" 
d="M59 219v99h275v-99h-275z" />
    <glyph glyph-name="period" unicode="." horiz-adv-x="253" 
d="M202 64c0 -20.667 -6.66699 -37.834 -20 -51.501s-32.666 -20.5 -57.999 -20.5s-44.666 6.83301 -57.999 20.5s-20 30.834 -20 51.501c0 20 6.66699 36.833 20 50.5s32.666 20.5 57.999 20.5s44.666 -6.83301 57.999 -20.5s20 -30.5 20 -50.5z" />
    <glyph glyph-name="slash" unicode="/" horiz-adv-x="371" 
d="M105 -33h-97l259 739h98z" />
    <glyph glyph-name="zero" unicode="0" horiz-adv-x="590" 
d="M561 332c0 -44 -4.49805 -86.499 -13.498 -127.499s-24 -77.167 -45 -108.5s-48.5 -56.5 -82.5 -75.5s-76 -28.5 -126 -28.5c-53.333 0 -97.333 9.16699 -132 27.5s-62.334 43 -83.001 74s-35 67 -43 108s-12 83.833 -12 128.5c0 42 4.16699 83.667 12.5 125
s22.666 78.333 42.999 111s48 59.167 83 79.5s79.167 30.5 132.5 30.5c54 0 98.167 -10.333 132.5 -31s61.5 -47.5 81.5 -80.5s33.667 -69.833 41 -110.5s11 -81.334 11 -122.001zM419.002 330.001c0 25.333 -1.16992 52 -3.50293 80s-7.66602 53.667 -15.999 77
s-20.833 42.666 -37.5 57.999s-39 23 -67 23s-50.5 -7.5 -67.5 -22.5s-30 -34.167 -39 -57.5s-15 -49.166 -18 -77.499s-4.5 -55.5 -4.5 -81.5c0 -32.667 1.66699 -63 5 -91s9.83301 -52.333 19.5 -73s22.834 -37 39.501 -49s38.334 -18 65.001 -18
c24.667 0 45.167 6.5 61.5 19.5s29 30.333 38 52s15.333 46.5 19 74.5s5.5 56.667 5.5 86z" />
    <glyph glyph-name="one" unicode="1" horiz-adv-x="590" 
d="M236 540l-140 -13v95l153 45h127v-667h-140v540z" />
    <glyph glyph-name="two" unicode="2" horiz-adv-x="590" 
d="M245 100l286 0.000976562v-100h-484v88l63 55l68.5 62c23 21.333 45.333 43.166 67 65.499s40.667 44.833 57 67.5s29.5 45 39.5 67s15 43.333 15 64c0 30.667 -9.16699 53.834 -27.5 69.501s-44.833 23.5 -79.5 23.5c-17.333 0 -41 -3 -71 -9s-63 -19 -99 -39l-44 85
c42.667 29.333 85 49.5 127 60.5s79.333 16.5 112 16.5c70 0 125.167 -16.833 165.5 -50.5s60.5 -82.834 60.5 -147.501c0 -36 -8.66699 -71.5 -26 -106.5s-39 -68.333 -65 -100s-54 -61.5 -84 -89.5l-83 -76z" />
    <glyph glyph-name="three" unicode="3" horiz-adv-x="590" 
d="M345 413c22.667 -2.66699 45.3379 -8.16602 68.0049 -16.499s42.667 -20.166 60 -35.499s31.5 -34.833 42.5 -58.5s16.5 -52.167 16.5 -85.5c0 -38 -7 -71.167 -21 -99.5s-33.167 -52 -57.5 -71s-53 -33.167 -86 -42.5s-68.5 -14 -106.5 -14
c-32 1.33301 -67.833 5.16602 -107.5 11.499s-76.5 18.166 -110.5 35.499l35 98c39.333 -12.667 71.5 -21.167 96.5 -25.5s47.5 -6.5 67.5 -6.5c46 0 82 9.66699 108 29s39 48 39 86c0 31.333 -11.833 56.666 -35.5 75.999s-62.834 29 -117.501 29
c-8 0 -16 -0.333008 -24 -1s-16.667 -1.66699 -26 -3c-0.666992 4 -1.83398 9.33301 -3.50098 16s-3.33398 13.834 -5.00098 21.501s-3.33398 14.834 -5.00098 21.501s-2.83398 12 -3.50098 16l38 37.5l42.5 41.5l42.5 41.5l39 37.5l-2 4
c-0.666992 1.33301 -1 2.66602 -1 3.99902h-254v107h425c0.666992 -4 1.83398 -10.167 3.50098 -18.5s3.5 -16.833 5.5 -25.5s3.66699 -17 5 -25s2.66602 -14 3.99902 -18l-174 -161z" />
    <glyph glyph-name="four" unicode="4" horiz-adv-x="590" 
d="M467 667v-398h97v-99h-97v-170h-136v170h-303v86l39.5 54.5l50.5 71l56 79.5l56 79.5l50.5 71.5l39.5 55h147zM327 511l-39.5 -56.5l-43 -64.5l-43 -64.5c-14.333 -21 -27.833 -39.833 -40.5 -56.5h173v242h-7z" />
    <glyph glyph-name="five" unicode="5" horiz-adv-x="590" 
d="M260 331c-16 0 -32.5 -2.16699 -49.5 -6.5s-34.167 -10.166 -51.5 -17.499l-75 37l25 323h393v-106h-282l-10 -140c8 1.33301 19.167 3.66602 33.5 6.99902s32.166 5 53.499 5c32.667 0 63.5 -4.33301 92.5 -13s54.333 -22 76 -40s38.834 -40.5 51.501 -67.5
s19 -58.5 19 -94.5c0 -38 -7 -71.167 -21 -99.5s-33 -52 -57 -71s-52 -33.167 -84 -42.5s-66 -14 -102 -14c-15.333 0 -32.333 0.666992 -51 2s-38 3.83301 -58 7.5s-40.167 8.5 -60.5 14.5s-39.166 13.667 -56.499 23l33 97c40 -12 72.667 -20.333 98 -25
s48.666 -7 69.999 -7c46 0 82 9.66699 108 29s39 49 39 89c0 18.667 -3.66699 35 -11 49s-17 25.5 -29 34.5s-26.167 15.667 -42.5 20s-33.5 6.5 -51.5 6.5z" />
    <glyph glyph-name="six" unicode="6" horiz-adv-x="590" 
d="M191 384c24 13.333 48.168 23.501 72.501 30.501s49.833 10.5 76.5 10.5c28 0 54.333 -4.16699 79 -12.5s46.334 -21.166 65.001 -38.499s33.334 -39 44.001 -65s16 -57 16 -93s-6 -68 -18 -96s-28.833 -51.5 -50.5 -70.5s-47.334 -33.333 -77.001 -43
s-62.167 -14.5 -97.5 -14.5c-48 0 -88.333 8 -121 24s-59.167 37.833 -79.5 65.5s-34.833 60.334 -43.5 98.001s-13 78.167 -13 121.5c0 52.667 5.33301 101.667 16 147s27.667 84.833 51 118.5s53.5 60.167 90.5 79.5s82.167 29 135.5 29c35.333 0 65.666 -3 90.999 -9
s45.333 -11.667 60 -17c-1.33301 -4.66699 -3 -11.667 -5 -21l-6 -29l-6 -29c-2 -9.33301 -3.66699 -16.333 -5 -21c-24 8 -46.333 13.333 -67 16s-38.334 4 -53.001 4c-30 0 -55 -6.33301 -75 -19s-36 -28.334 -48 -47.001s-21 -38.334 -27 -59.001
s-10 -39.334 -12 -56.001zM409.001 213.001c0 16 -1.66797 30.665 -5.00098 43.998s-8.83301 25 -16.5 35s-18.167 17.833 -31.5 23.5s-30 8.5 -50 8.5c-17.333 0 -32.833 -1.83301 -46.5 -5.5s-25.667 -7.83398 -36 -12.501s-18.666 -9.16699 -24.999 -13.5
s-10.833 -7.16602 -13.5 -8.49902v-18c0 -17.333 1.33301 -35.666 4 -54.999s8.16699 -37.166 16.5 -53.499s20.166 -29.833 35.499 -40.5s35.333 -16 60 -16c34.667 0 61.334 10.167 80.001 30.5s28 47.5 28 81.5z" />
    <glyph glyph-name="seven" unicode="7" horiz-adv-x="590" 
d="M80 561v106h439v-91l-262 -576h-138l261 561h-300z" />
    <glyph glyph-name="eight" unicode="8" horiz-adv-x="590" 
d="M204 499c0 -13.333 3.33203 -24.668 9.99902 -34.001s15.834 -18 27.501 -26s25.167 -15.5 40.5 -22.5l50 -22.5c26 19.333 44 37.166 54 53.499s15 32.5 15 48.5c0 9.33301 -1.83301 19 -5.5 29s-9.66699 19 -18 27s-19 14.667 -32 20s-28.5 8 -46.5 8
c-17.333 0 -32 -2.83301 -44 -8.5s-21.667 -12.667 -29 -21s-12.833 -17.166 -16.5 -26.499s-5.5 -17.666 -5.5 -24.999zM292.999 93.998c18.667 0 35.167 2.66797 49.5 8.00098s26.5 12.5 36.5 21.5s17.5 19.5 22.5 31.5s7.5 24.333 7.5 37c0 14 -3.16699 26.5 -9.5 37.5
s-15.833 21.333 -28.5 31s-28.667 19.167 -48 28.5s-42 19.333 -68 30c-30 -20.667 -50.167 -42.334 -60.5 -65.001s-15.5 -44.667 -15.5 -66c0 -25.333 9.5 -47.333 28.5 -66s47.5 -28 85.5 -28zM527.999 505.999c0 -23.333 -5.99805 -48.334 -17.998 -75.001
s-36 -53.667 -72 -81c32 -16.667 58.167 -38.667 78.5 -66s30.5 -61 30.5 -101c0 -27.333 -6 -52.666 -18 -75.999s-29.167 -43.5 -51.5 -60.5s-49.333 -30.333 -81 -40s-66.834 -14.5 -105.501 -14.5c-80 0 -142 16.667 -186 50s-66 78 -66 134
c0 14.667 1.83301 30.5 5.5 47.5s10 34 19 51s21 33.5 36 49.5s33.5 30.667 55.5 44c-28 17.333 -48.833 36 -62.5 56s-20.5 45.667 -20.5 77c0 25.333 5.66699 48.833 17 70.5s27.166 40.5 47.499 56.5s44.5 28.5 72.5 37.5s58.667 13.5 92 13.5
c26 0 52.333 -3.16699 79 -9.5s51 -16.333 73 -30s40 -31.5 54 -53.5s21 -48.667 21 -80z" />
    <glyph glyph-name="nine" unicode="9" horiz-adv-x="590" 
d="M392 282c-48.667 -27.333 -98.3311 -41 -148.998 -41c-28.667 0 -55.334 4.16699 -80.001 12.5s-46.167 21 -64.5 38s-32.833 38.667 -43.5 65s-16 57.5 -16 93.5s6 68 18 96s28.667 51.5 50 70.5s47 33.5 77 43.5s62.667 15 98 15c48 0 88.333 -8 121 -24
s59 -37.833 79 -65.5s34.5 -60.334 43.5 -98.001s13.5 -78.5 13.5 -122.5c0 -52.667 -5.33301 -101.667 -16 -147s-27.834 -84.666 -51.501 -117.999s-54 -59.5 -91 -78.5s-81.833 -28.5 -134.5 -28.5c-36 0 -67.5 2.66699 -94.5 8s-47.833 11 -62.5 17l25 99
c23.333 -8 45.833 -13.167 67.5 -15.5s40.167 -3.5 55.5 -3.5c29.333 0 53.833 6.33301 73.5 19s35.667 28.167 48 46.5s21.5 38 27.5 59s10 39.5 12 55.5zM173.003 453c0 -16 1.66797 -30.667 5.00098 -44s9 -25 17 -35s18.5 -17.833 31.5 -23.5s29.5 -8.5 49.5 -8.5
c17.333 0 32.833 1.83301 46.5 5.5s25.667 7.83398 36 12.501s18.666 9.16699 24.999 13.5s10.833 7.16602 13.5 8.49902v19c0 16.667 -1.33301 34.5 -4 53.5s-8 36.667 -16 53s-19.667 29.833 -35 40.5s-35.333 16 -60 16c-35.333 0 -62.333 -10 -81 -30s-28 -47 -28 -81z
" />
    <glyph glyph-name="colon" unicode=":" horiz-adv-x="259" 
d="M209 64c0 -20 -6.66699 -37 -20 -51s-33 -21 -59 -21c-25.333 0 -44.5 7 -57.5 21s-19.5 31 -19.5 51c0 21.333 6.5 38.666 19.5 51.999s32.167 20 57.5 20s44.833 -6.66699 58.5 -20s20.5 -30.666 20.5 -51.999zM209 367c0 -20.667 -6.83301 -37.834 -20.5 -51.501
s-33.167 -20.5 -58.5 -20.5s-44.5 6.83301 -57.5 20.5s-19.5 30.834 -19.5 51.501s6.5 37.667 19.5 51s32.167 20 57.5 20s44.833 -6.66699 58.5 -20s20.5 -30.333 20.5 -51z" />
    <glyph glyph-name="semicolon" unicode=";" horiz-adv-x="259" 
d="M209 367c0 -20.667 -6.83301 -37.834 -20.5 -51.501s-33.167 -20.5 -58.5 -20.5s-44.5 6.83301 -57.5 20.5s-19.5 30.834 -19.5 51.501s6.5 37.667 19.5 51s32.167 20 57.5 20s44.833 -6.66699 58.5 -20s20.5 -30.333 20.5 -51zM50 64
c0 19.333 7.00098 35.999 21.001 49.999s32.667 21 56 21c28.667 0 49.667 -8.5 63 -25.5s20 -37.167 20 -60.5c0 -18.667 -3.33301 -37.667 -10 -57s-15.834 -38 -27.501 -56s-25.5 -34.5 -41.5 -49.5s-33 -27.167 -51 -36.5l-35 45c32 30 50.667 64.667 56 104
c-34 6.66699 -51 28.334 -51 65.001z" />
    <glyph glyph-name="less" unicode="&#x3c;" horiz-adv-x="598" 
d="M524 47l-444 217v69l444 216v-97l-332 -152l332 -157v-96z" />
    <glyph glyph-name="equal" unicode="=" horiz-adv-x="598" 
d="M86 340v81h425v-81h-425zM86 180v80h425v-80h-425z" />
    <glyph glyph-name="greater" unicode="&#x3e;" horiz-adv-x="598" 
d="M80 143l332 157l-332 152v97l444 -216v-69l-444 -217v96z" />
    <glyph glyph-name="question" unicode="?" horiz-adv-x="496" 
d="M253 435c20 17.333 34.8359 33.501 44.5029 48.501s14.5 32.5 14.5 52.5c0 21.333 -7.83301 37.5 -23.5 48.5s-36.834 16.5 -63.501 16.5c-21.333 0 -43.833 -1.66699 -67.5 -5s-51.167 -10.333 -82.5 -21l-30 97c40 14.667 77.333 24.667 112 30s66 8 94 8
c68 0 119.833 -13.5 155.5 -40.5s55.5 -63.5 59.5 -109.5c0 -26.667 -5 -50.667 -15 -72s-22.333 -41 -37 -59s-30.834 -34.667 -48.501 -50s-33.834 -30.333 -48.501 -45s-27 -29.667 -37 -45s-15 -32 -15 -50c0 -8 0.5 -16 1.5 -24l3.5 -28l-117 -6
c-2.66699 16 -4.66699 30.333 -6 43s-2 24 -2 34c0 19.333 2.66699 36.666 8 51.999s12.833 30 22.5 44s21 27.5 34 40.5s27.5 26.5 43.5 40.5zM297.003 55.001c0 -19.333 -6.50195 -35.166 -19.502 -47.499s-31.5 -18.5 -55.5 -18.5s-42.5 6.16699 -55.5 18.5
s-19.5 28.166 -19.5 47.499c0 20 6.33301 36.5 19 49.5s31.334 19.5 56.001 19.5s43.334 -6.5 56.001 -19.5s19 -29.5 19 -49.5z" />
    <glyph glyph-name="at" unicode="@" horiz-adv-x="970" 
d="M505 713c60 0 113.666 -8.5 160.999 -25.5s87.5 -41.167 120.5 -72.5s58.333 -68.833 76 -112.5s26.5 -92.5 26.5 -146.5c0 -36.667 -5.5 -69 -16.5 -97s-26 -51.5 -45 -70.5s-41.167 -33.5 -66.5 -43.5s-52 -15 -80 -15c-12 0 -24.333 1.16699 -37 3.5
s-24.834 6 -36.501 11s-22.167 11.667 -31.5 20s-16.666 18.166 -21.999 29.499c-17.333 -18.667 -38 -32.5 -62 -41.5s-47.333 -13.5 -70 -13.5c-25.333 0 -45.833 4 -61.5 12s-27.834 18 -36.501 30s-14.667 24.833 -18 38.5s-5 26.167 -5 37.5
c0 23.333 4.33301 42.166 13 56.499s22.5 25.833 41.5 34.5s43.333 15.334 73 20.001s65.5 9.33398 107.5 14.001v15c0 21.333 -3.83301 36.666 -11.5 45.999s-24.167 14 -49.5 14c-16.667 0 -35.167 -1.66699 -55.5 -5s-40.833 -8 -61.5 -14l-21 75
c24.667 9.33301 50.667 16.666 78 21.999s55 8 83 8c22 0 42.167 -2.16699 60.5 -6.5s34 -11.666 47 -21.999s23.167 -24 30.5 -41s11 -38.167 11 -63.5v-150c0 -14 4.16699 -25.333 12.5 -34s22.166 -13 41.499 -13c10.667 0 21.667 2.5 33 7.5s21.833 13 31.5 24
s17.667 25.167 24 42.5s9.5 38.333 9.5 63c0 42.667 -6.66699 81.167 -20 115.5s-32.666 63.5 -57.999 87.5s-56.166 42.5 -92.499 55.5s-77.5 19.5 -123.5 19.5c-46.667 0 -90.334 -7.83301 -131.001 -23.5s-76.167 -37.167 -106.5 -64.5s-54.166 -59.5 -71.499 -96.5
s-26 -77.167 -26 -120.5c0 -44 7.66699 -84.667 23 -122s36.666 -69.666 63.999 -96.999s59.833 -48.666 97.5 -63.999s78.834 -23 123.501 -23c18.667 0 39.5 1.5 62.5 4.5s50.167 9.83301 81.5 20.5l28 -73c-26 -12.667 -54.333 -21.834 -85 -27.501
s-59.334 -8.5 -86.001 -8.5c-62 0 -117.667 9.66699 -167 29s-91.166 46.333 -125.499 81s-60.666 75.667 -78.999 123s-27.5 99 -27.5 155s10.833 108 32.5 156s51.667 89.5 90 124.5s83.333 62.333 135 82s107.5 29.5 167.5 29.5zM535.999 320
c-11.333 -1.33301 -23.666 -2.66699 -36.999 -4s-25.833 -3.5 -37.5 -6.5s-21.334 -7.83301 -29.001 -14.5s-11.5 -16 -11.5 -28c0 -14.667 3.66699 -26.167 11 -34.5s19.333 -12.5 36 -12.5c22 0 44.667 9.66699 68 29v71z" />
    <glyph glyph-name="A" unicode="A" horiz-adv-x="664" 
d="M503 0l-48 157h-251l-49 -157h-147l234 687h186l227 -687h-152zM374 438l-40 149h-5l-42 -154l-51 -176h189z" />
    <glyph glyph-name="B" unicode="B" horiz-adv-x="658" 
d="M496 358c23.333 -8 42.001 -18.665 56.001 -31.998s24.667 -27.5 32 -42.5s12.166 -30 14.499 -45s3.5 -27.833 3.5 -38.5c0 -30 -5.33301 -57.333 -16 -82s-25.5 -45.834 -44.5 -63.501s-41.833 -31.167 -68.5 -40.5s-56 -14 -88 -14h-313v687h300
c71.333 0 124.5 -17 159.5 -51s52.5 -78.333 52.5 -133c0 -10.667 -1.33301 -22.5 -4 -35.5s-7.33398 -25.833 -14.001 -38.5s-15.667 -24.834 -27 -36.501s-25.666 -21.5 -42.999 -29.5v-5zM219.001 305.002v-201h125c38.667 0 66.334 9.83301 83.001 29.5
s25 43.834 25 72.501c0 27.333 -8.83301 50.666 -26.5 69.999s-44.834 29 -81.501 29h-125zM219.001 583.002v-178h111c34 0 59.667 7.33301 77 22s26 36 26 64s-8 50.333 -24 67s-42.333 25 -79 25h-111z" />
    <glyph glyph-name="C" unicode="C" horiz-adv-x="627" 
d="M385 701c35.333 0 68.3311 -2.66602 98.998 -7.99902s58.667 -12 84 -20l-21 -108c-26.667 7.33301 -52.167 12.5 -76.5 15.5s-46.5 4.5 -66.5 4.5c-64 0 -112.667 -19.833 -146 -59.5s-50 -99.834 -50 -180.501c0 -39.333 3.33301 -73.833 10 -103.5
s17.834 -54.5 33.501 -74.5s36.334 -35 62.001 -45s57.167 -15 94.5 -15c8 0 18.5 0.5 31.5 1.5s27 2.5 42 4.5s30 4.33301 45 7s29.167 5.66699 42.5 9l24 -102c-14.667 -6 -30.834 -11.167 -48.501 -15.5s-36 -8.16602 -55 -11.499s-38.167 -5.83301 -57.5 -7.5
s-37.666 -2.5 -54.999 -2.5c-63.333 0 -115.833 9 -157.5 27s-75 42.833 -100 74.5s-42.5 68.667 -52.5 111s-15 88.166 -15 137.499c0 40 5 81.333 15 124s27.5 81.5 52.5 116.5s59 63.833 102 86.5s97.5 34 163.5 34z" />
    <glyph glyph-name="D" unicode="D" horiz-adv-x="690" 
d="M73 0l-0.000976562 688.001h258c60.667 0 110.834 -9.16699 150.501 -27.5s71 -43 94 -74s39 -67.333 48 -109s13.5 -85.5 13.5 -131.5s-5.16699 -90 -15.5 -132s-27.5 -78.833 -51.5 -110.5s-56 -56.834 -96 -75.501s-89.667 -28 -149 -28h-252zM221.999 584.001
l-0.00195312 -478.002h91c17.333 0 36 2.83301 56 8.5s38.5 17 55.5 34s31.167 40.833 42.5 71.5s17 71 17 121c0 50.667 -5.33301 91.834 -16 123.501s-24.167 56.334 -40.5 74.001s-34.666 29.667 -54.999 36s-40.166 9.5 -59.499 9.5h-91z" />
    <glyph glyph-name="E" unicode="E" horiz-adv-x="606" 
d="M72 0v688h474v-104h-325v-175h273v-98h-273v-206h339v-105h-488z" />
    <glyph glyph-name="F" unicode="F" horiz-adv-x="574" 
d="M72 0v688h469v-105h-321v-186h251v-100h-251v-297h-148z" />
    <glyph glyph-name="G" unicode="G" horiz-adv-x="667" 
d="M399 701c34.667 0 68.334 -2.66699 101.001 -8s62 -12 88 -20l-21 -106c-28 7.33301 -54.833 12.5 -80.5 15.5s-49.167 4.5 -70.5 4.5c-70.667 0 -123 -20.833 -157 -62.5s-51 -105.167 -51 -190.5c0 -34.667 3 -66 9 -94s15.833 -51.833 29.5 -71.5
s31.667 -34.834 54 -45.501s49.833 -16 82.5 -16c13.333 0 28.5 1 45.5 3s32.167 4.66699 45.5 8v245h135v-335c-38.667 -13.333 -78.334 -23 -119.001 -29s-79 -9 -115 -9c-62.667 0 -114.667 9.33301 -156 28s-74.333 44 -99 76s-42.167 69.333 -52.5 112
s-15.5 88 -15.5 136c0 40 5 81.333 15 124s27.833 81.334 53.5 116.001s61 63.167 106 85.5s102.5 33.5 172.5 33.5z" />
    <glyph glyph-name="H" unicode="H" horiz-adv-x="710" 
d="M487 0v306h-267c0 -51.333 0.166992 -102.5 0.5 -153.5s0.5 -101.833 0.5 -152.5h-149v687h149c0 -46 -0.166992 -91.667 -0.5 -137s-0.5 -91 -0.5 -137h267v274h149v-687h-149z" />
    <glyph glyph-name="I" unicode="I" horiz-adv-x="308" 
d="M81 0v688h146v-688h-146z" />
    <glyph glyph-name="J" unicode="J" horiz-adv-x="365" 
d="M127 689l147.001 -0.00195312l-1 -538c0 -95.333 -24.333 -170.5 -73 -225.5s-120.667 -94.167 -216 -117.5l-35 102c35.333 18.667 64.333 36.334 87 53.001s40.667 34.334 54 53.001s22.666 39.167 27.999 61.5s8 48.5 8 78.5z" />
    <glyph glyph-name="K" unicode="K" horiz-adv-x="665" 
d="M225 419l42 48l203 220h171l-262 -269l277 -418h-174l-101.5 160l-101.5 160l-61 -62v-258h-146v687h146v-268h7z" />
    <glyph glyph-name="L" unicode="L" horiz-adv-x="579" 
d="M72 0v688h148v-585h349v-103h-497z" />
    <glyph glyph-name="M" unicode="M" horiz-adv-x="890" 
d="M670 464l-50 -127l-28.5 -65l-31 -72.5l-30.5 -72.5l-28 -65h-121l-28 67l-30.5 74.5l-31 74l-29.5 66.5l-44 115h-3v-107c0 -40 -0.166992 -80.833 -0.5 -122.5s-0.5 -82.5 -0.5 -122.5v-107h-142v687h182l90 -223l22.5 -57.5l25.5 -65l25 -65.5
c8 -21.333 15.667 -40.333 23 -57h8l49 121l49 122c6.66699 14 14.167 31 22.5 51l25 61.5l25 61.5c8.33301 20 15.833 37 22.5 51h176v-687h-144v464h-3z" />
    <glyph glyph-name="N" unicode="N" horiz-adv-x="742" 
d="M526 214l-0.00195312 473h143v-687h-148l-233 370l-34.5 57l-34.5 57c-1.33301 0 -2.16602 -0.166992 -2.49902 -0.5s-1.16602 -0.5 -2.49902 -0.5v-483h-142v687h149l106.5 -166l105.5 -167l87 -140h6z" />
    <glyph glyph-name="O" unicode="O" horiz-adv-x="746" 
d="M694 344c0 -50.667 -6.66309 -97.5 -19.9961 -140.5s-33.333 -80.333 -60 -112s-59.834 -56.5 -99.501 -74.5s-85.834 -27 -138.501 -27c-56 0 -104.333 8.5 -145 25.5s-74.167 41 -100.5 72s-45.833 68 -58.5 111s-19 90.833 -19 143.5
c0 49.333 6.16699 95.666 18.5 138.999s31.5 81.333 57.5 114s59.333 58.334 100 77.001s89.667 28 147 28s106.166 -9.5 146.499 -28.5s73.166 -44.667 98.499 -77s43.833 -70 55.5 -113s17.5 -88.833 17.5 -137.5zM537.004 342c0 31.333 -2.16699 62.166 -6.5 92.499
s-12.333 57.333 -24 81s-28 42.834 -49 57.501s-48.167 22 -81.5 22c-34 0 -61.833 -7.16699 -83.5 -21.5s-38.834 -33.166 -51.501 -56.499s-21.334 -50.333 -26.001 -81s-7 -62.334 -7 -95.001c0 -78 12.5 -138.167 37.5 -180.5s68.5 -63.5 130.5 -63.5
c28.667 0 53.334 6.16699 74.001 18.5s37.334 29.5 50.001 51.5s22 47.833 28 77.5s9 62.167 9 97.5z" />
    <glyph glyph-name="P" unicode="P" horiz-adv-x="597" 
d="M569 477c0 -24.667 -4 -49.668 -12 -75.001s-21 -48.166 -39 -68.499s-41.167 -37 -69.5 -50s-62.833 -19.5 -103.5 -19.5h-125l1 -264h-149v688h261c78.667 0 137.667 -19 177 -57s59 -89.333 59 -154zM220 583.999l0.00195312 -219.001h97
c13.333 0 26.166 1.83301 38.499 5.5s23.166 9.83398 32.499 18.501s16.833 20 22.5 34s8.5 31 8.5 51c0 39.333 -10.167 67.5 -30.5 84.5s-45.833 25.5 -76.5 25.5h-92z" />
    <glyph glyph-name="Q" unicode="Q" horiz-adv-x="751" 
d="M692 342c0 -68.667 -11.9971 -129.669 -35.9971 -183.002s-60 -94 -108 -122c24.667 -7.33301 49.667 -14.166 75 -20.499l75 -18.5l-21.5 -56l-21.5 -56l-156 53.5l-157 52.5c-50.667 4.66699 -94.167 16 -130.5 34s-66.333 41.833 -90 71.5
s-41.167 64.834 -52.5 105.501s-17 86.667 -17 138c0 49.333 6.16699 95.833 18.5 139.5s31.5 81.667 57.5 114s59.333 58 100 77s89.667 28.5 147 28.5s106.166 -9.5 146.499 -28.5s73.166 -44.833 98.499 -77.5s43.666 -70.667 54.999 -114s17 -89.333 17 -138z
M536.003 340.998c0 31.333 -2.16504 61.998 -6.49805 91.998s-12.333 56.833 -24 80.5s-28 42.834 -49 57.501s-48.167 22 -81.5 22s-60.833 -7 -82.5 -21s-38.834 -32.833 -51.501 -56.5s-21.5 -50.667 -26.5 -81s-7.5 -61.833 -7.5 -94.5c0 -39.333 3 -74.166 9 -104.499
s15.667 -55.833 29 -76.5s30.666 -36.5 51.999 -47.5s47.333 -16.5 78 -16.5c28.667 0 53.167 6.16699 73.5 18.5s37 29.5 50 51.5s22.5 48 28.5 78s9 62.667 9 98z" />
    <glyph glyph-name="R" unicode="R" horiz-adv-x="645" 
d="M576 490c0 -18.667 -2.33008 -37.167 -6.99707 -55.5s-11.834 -35.333 -21.501 -51s-21.834 -29.667 -36.501 -42s-32 -21.833 -52 -28.5v-1c28.667 -9.33301 49.334 -25 62.001 -47s22.667 -46.333 30 -73l55 -192h-147l-26 89.5l-26 90.5
c-10.667 38 -25.5 63.667 -44.5 77s-42.5 20 -70.5 20h-74v-277h-146v687h279c39.333 0 73.166 -5.16699 101.499 -15.5s51.666 -24.5 69.999 -42.5s31.833 -39 40.5 -63s13 -49.333 13 -76zM323.003 378c12 0 24 1.66699 36 5s23 9 33 17s18.167 18.667 24.5 32
s9.5 30 9.5 50c0 34.667 -9.66699 60.167 -29 76.5s-44.333 24.5 -75 24.5h-104v-205h105z" />
    <glyph glyph-name="S" unicode="S" horiz-adv-x="623" 
d="M320 701c34 0 70.3291 -3.50195 108.996 -10.502s75 -19.833 109 -38.5l-38 -100c-34 14 -67.167 23.167 -99.5 27.5s-60.833 6.5 -85.5 6.5c-31.333 0 -56 -7.33301 -74 -22s-27 -36.667 -27 -66c0 -13.333 3.83301 -24.5 11.5 -33.5s17.834 -16.833 30.501 -23.5
s27.167 -12.334 43.5 -17.001s33.5 -9 51.5 -13c23.333 -6 48.5 -13 75.5 -21s52 -19.667 75 -35s42 -35.666 57 -60.999s22.5 -58.333 22.5 -99c0 -65.333 -24 -115.833 -72 -151.5s-120.333 -53.5 -217 -53.5c-17.333 0 -36.5 1 -57.5 3s-42.5 5.16699 -64.5 9.5
s-44 10 -66 17s-43 15.5 -63 25.5l38 104c48.667 -19.333 92.334 -31.666 131.001 -36.999s69.667 -8 93 -8c40.667 0 71.334 6.83301 92.001 20.5s31 37.167 31 70.5c0 14.667 -2.66699 26.834 -8 36.501s-13 18 -23 25s-22 12.833 -36 17.5s-29.333 9.33398 -46 14.001
c-34 8.66699 -66.333 17.5 -97 26.5s-57.667 20.833 -81 35.5s-41.833 33.167 -55.5 55.5s-20.5 51.166 -20.5 86.499c0 62.667 21.833 113.167 65.5 151.5s108.834 57.5 195.501 57.5z" />
    <glyph glyph-name="T" unicode="T" horiz-adv-x="610" 
d="M232 0v581h-218v107h582v-107h-217l-1 -581h-146z" />
    <glyph glyph-name="U" unicode="U" horiz-adv-x="709" 
d="M641 253c0 -40.667 -5.66992 -77.334 -17.0029 -110.001s-28.666 -60.334 -51.999 -83.001s-53 -40 -89 -52s-78.667 -18 -128 -18c-51.333 0 -95.333 6 -132 18s-66.5 29.333 -89.5 52s-39.833 50.334 -50.5 83.001s-16 69.334 -16 110.001v435h146v-440
c0 -52 12.333 -90.167 37 -114.5s60.334 -36.5 107.001 -36.5c42.667 0 76.834 11.833 102.501 35.5s38.5 62.167 38.5 115.5l-1 440h145z" />
    <glyph glyph-name="V" unicode="V" horiz-adv-x="647" 
d="M326 134l16.501 60l16.5 63c19.333 74.667 39.166 146.667 59.499 216l62.5 215h157l-113 -344.5l-113 -343.5h-180l-112.5 343.5l-111.5 344.5h157l62.5 -216l60.5 -215c5.33301 -20 10.5 -40.333 15.5 -61l15.5 -62h7z" />
    <glyph glyph-name="W" unicode="W" horiz-adv-x="943" 
d="M462 499c-5.33301 -26.667 -10.6709 -55.666 -16.0039 -86.999s-10.666 -60 -15.999 -86l-71 -326h-185l-166 688h157l17 -79l20.5 -97.5l20.5 -97.5l17 -78c2.66699 -12.667 5.33398 -26.167 8.00098 -40.5s5.16699 -29 7.5 -44s4.83301 -29.833 7.5 -44.5
s5.33398 -28.334 8.00098 -41.001h7c5.33301 24.667 10.333 51.834 15 81.501s9.66699 56.834 15 81.501c4.66699 23.333 10.5 50.833 17.5 82.5l21.5 98l21.5 97.5l17.5 81h159c2 -6.66699 5.33301 -19.334 10 -38.001l16 -64.5l19 -77.5l18.5 -76.5
c5.66699 -23.667 10.834 -44.334 15.501 -62.001l9 -34.5c0.666992 -2.66699 2.66699 -11.834 6 -27.501l11 -52l11.5 -54.5c3.66699 -17.333 6.16699 -28.666 7.5 -33.999h8c5.33301 26.667 10.5 56 15.5 88s10.167 61 15.5 87c4.66699 20.667 10.167 46.5 16.5 77.5
l19.5 95.5l20 95.5l17 77.5h154l-22.5 -95l-29 -122.5l-32 -135.5l-32 -133.5l-28.5 -116.5l-21 -85h-182c-6 22 -12.5 47.167 -19.5 75.5l-21.5 87l-21.5 87.5c-7 28.667 -13.5 54 -19.5 76c-2 8 -4.66699 20 -8 36l-10.5 50l-10.5 50c-3.33301 16 -6 28 -8 36z" />
    <glyph glyph-name="X" unicode="X" horiz-adv-x="646" 
d="M234 357l-104.5 164.5l-105.5 165.5h168l67.5 -120.5l68.5 -120.5l69 120.5l69 120.5h167l-110.5 -166.5l-109.5 -166.5l225 -354h-166l-76 129l-76 130l-148 -259h-166l114 178z" />
    <glyph glyph-name="Y" unicode="Y" horiz-adv-x="626" 
d="M232 247l-223.998 440h154l43 -88.5c14.667 -29 28.667 -58.5 42 -88.5l61 -137h6c11.333 22 22.166 45.833 32.499 71.5s21.166 49.5 32.499 71.5l86 171h151l-113 -211.5l-113 -211.5v-264h-158v247z" />
    <glyph glyph-name="Z" unicode="Z" horiz-adv-x="594" 
d="M218 107l359 -1v-106h-559v98l340 477l-3 7h-311v106h515v-96l-344 -479z" />
    <glyph glyph-name="bracketleft" unicode="[" horiz-adv-x="313" 
d="M63 -160v859h215v-80h-96v-702h96v-77h-215z" />
    <glyph glyph-name="backslash" unicode="\" horiz-adv-x="371" 
d="M8 706h98l259 -739h-98z" />
    <glyph glyph-name="bracketright" unicode="]" horiz-adv-x="313" 
d="M39 -160v77h95v702h-95v80h214v-859h-214z" />
    <glyph glyph-name="asciicircum" unicode="^" horiz-adv-x="487" 
d="M364 355l-125 226l-126 -226h-94l186 324h68l185 -324h-94z" />
    <glyph glyph-name="underscore" unicode="_" horiz-adv-x="500" 
d="M0 -145v70h500v-70h-500z" />
    <glyph glyph-name="grave" unicode="`" horiz-adv-x="519" 
d="M149 668l17 19l22.5 25l22.5 25c7.33301 8 13.333 14.333 18 19c8 -10 18.667 -22.5 32 -37.5l42 -46l42 -46l33 -37.5l-53 -58z" />
    <glyph glyph-name="a" unicode="a" horiz-adv-x="579" 
d="M484 95l63.999 0.00292969l7 -80c-16 -7.33301 -34.667 -13.333 -56 -18s-42.666 -7 -63.999 -7s-39.166 3.66699 -53.499 11s-22.833 23.333 -25.5 48l-2 2c-17.333 -15.333 -34.666 -27 -51.999 -35s-33.5 -14 -48.5 -18s-28.667 -6.33301 -41 -7s-21.833 -1 -28.5 -1
c-30.667 0 -55.834 4.83301 -75.501 14.5s-35.167 21.667 -46.5 36s-19.166 29.833 -23.499 46.5s-6.5 32 -6.5 46c0 25.333 4.66699 47.5 14 66.5s22.166 35 38.499 48s35.5 23.167 57.5 30.5s46 11.666 72 12.999c19.333 1.33301 41.666 2.66602 66.999 3.99902
s47.666 2.66602 66.999 3.99902v12c0 28 -6 49.167 -18 63.5s-36.333 21.5 -73 21.5c-24 0 -50.167 -2.33301 -78.5 -7s-54.166 -10.667 -77.499 -18c-3.33301 15.333 -7 30.333 -11 45l-12 44c29.333 12.667 63.333 22.667 102 30s75.667 11 111 11c29.333 0 56 -3 80 -9
s44.333 -15.667 61 -29s29.5 -30.833 38.5 -52.5s13.5 -48.5 13.5 -80.5v-235zM248.999 212.003c-46 -4 -69 -26.332 -69 -66.999c0 -20.667 5.33301 -36.334 16 -47.001s27.667 -16 51 -16c15.333 0 32 3.83301 50 11.5s35 18.5 51 32.5v94z" />
    <glyph glyph-name="b" unicode="b" horiz-adv-x="574" 
d="M192 716v-144.998c0 -6.66699 -0.166992 -14.834 -0.5 -24.501l-1 -29.5l-1 -29c-0.333008 -9.33301 -0.5 -17.333 -0.5 -24l7 -4c28 17.333 54.5 29.166 79.5 35.499s46.167 9.5 63.5 9.5c36.667 0 67.5 -6.5 92.5 -19.5s45.167 -31 60.5 -54s26.166 -50.5 32.499 -82.5
s9.5 -66.667 9.5 -104c0 -34 -3.66699 -66.333 -11 -97s-20 -57.5 -38 -80.5s-42.5 -41.333 -73.5 -55s-70.167 -20.5 -117.5 -20.5c-16 0 -34.167 0.833008 -54.5 2.5s-41.166 4.33398 -62.499 8.00098s-42.833 8.66699 -64.5 15s-42.5 14.166 -62.5 23.499v675h142z
M296 398.002c-17.333 0 -35.001 -3.16602 -53.001 -9.49902s-34.333 -13.5 -49 -21.5v-256c16.667 -7.33301 33 -12.166 49 -14.499s30.667 -3.5 44 -3.5c14.667 0 28.334 2.16699 41.001 6.5s23.667 12.166 33 23.499s16.5 26.666 21.5 45.999s7.5 44 7.5 74
c0 32.667 -2.5 59.167 -7.5 79.5s-11.833 36 -20.5 47s-18.667 18.5 -30 22.5s-23.333 6 -36 6z" />
    <glyph glyph-name="c" unicode="c" horiz-adv-x="485" 
d="M184 246c0 -45.333 8.50195 -80.832 25.502 -106.499s47.833 -38.5 92.5 -38.5c23.333 0 45.666 2.33301 66.999 7s43 10.667 65 18l27 -95c-24.667 -12.667 -53.167 -22.334 -85.5 -29.001s-65.5 -10 -99.5 -10c-47.333 0 -86.166 6.5 -116.499 19.5
s-54.5 30.833 -72.5 53.5s-30.5 49 -37.5 79s-10.5 62 -10.5 96c0 28.667 3.33301 58.5 10 89.5s19 59.333 37 85s42.667 46.667 74 63s72 24.5 122 24.5c21.333 0 45.166 -1.5 71.499 -4.5s53.5 -9.5 81.5 -19.5c-3.33301 -16.667 -6.83301 -33.167 -10.5 -49.5
l-11.5 -50.5c-21.333 6 -40.833 9.83301 -58.5 11.5s-33.834 2.5 -48.501 2.5c-40 0 -70.333 -12.833 -91 -38.5s-31 -61.5 -31 -107.5z" />
    <glyph glyph-name="d" unicode="d" horiz-adv-x="575" 
d="M251 503c16 0 36.5 -2.16699 61.5 -6.5s47.833 -12.5 68.5 -24.5v243h143v-715h-133l-3 44c-1.33301 1.33301 -2.33301 2 -3 2c-24 -19.333 -49.833 -33 -77.5 -41s-52.167 -12 -73.5 -12c-38 0 -69.667 6.5 -95 19.5s-45.333 30.5 -60 52.5s-25 47.667 -31 77
s-9 60.333 -9 93c0 38 3.66699 73.333 11 106s19.5 61 36.5 85s38.833 42.833 65.5 56.5s59.667 20.5 99 20.5zM381 372c-11.333 7.33301 -26.6641 13.666 -45.9971 18.999s-37 8 -53 8c-12 0 -24 -2.16699 -36 -6.5s-22.667 -12.5 -32 -24.5s-16.833 -28.667 -22.5 -50
s-8.5 -48.666 -8.5 -81.999c0 -29.333 2.5 -53.166 7.5 -71.499s11.833 -32.833 20.5 -43.5s19 -18 31 -22s24.667 -6 38 -6c7.33301 0 15.666 1.16699 24.999 3.5s18.666 5.16602 27.999 8.49902s18.166 7.33301 26.499 12s15.5 9 21.5 13v242z" />
    <glyph glyph-name="e" unicode="e" horiz-adv-x="544" 
d="M280 504c52.667 0 93.999 -8.33105 123.999 -24.998s52.5 -37.334 67.5 -62.001s24.333 -50.834 28 -78.501s5.5 -52.5 5.5 -74.5v-51h-321c0 -38 9.5 -66.667 28.5 -86s50.5 -29 94.5 -29c26.667 0 53.334 2.83301 80.001 8.5s52.667 13.167 78 22.5l29 -88
c-32.667 -18 -67 -30.667 -103 -38s-71 -11 -105 -11c-49.333 0 -90 6.83301 -122 20.5s-57.167 32.167 -75.5 55.5s-31 50.166 -38 80.499s-10.5 62.5 -10.5 96.5c0 26.667 3.33301 55.334 10 86.001s19 58.667 37 84s42.5 46.5 73.5 63.5s70.833 25.5 119.5 25.5z
M285.999 413.002c-18 0 -33 -2.99902 -45 -8.99902s-21.833 -14.167 -29.5 -24.5s-13.5 -22.333 -17.5 -36s-6.66699 -27.834 -8 -42.501h189c-0.666992 32.667 -7.16699 59.5 -19.5 80.5s-35.5 31.5 -69.5 31.5z" />
    <glyph glyph-name="f" unicode="f" horiz-adv-x="412" 
d="M97 398l-69 0.000976562v78l70 20v61c0 23.333 2.83301 45.333 8.5 66s15.667 38.5 30 53.5s33.5 26.833 57.5 35.5s54 13 90 13c17.333 0 38.333 -1.16699 63 -3.5s48.667 -6.83301 72 -13.5l-17 -97c-14 3.33301 -29 5.66602 -45 6.99902s-29.333 2 -40 2
c-25.333 0 -45 -4.83301 -59 -14.5s-21 -26.5 -21 -50.5v-63h141v-94h-141v-41.5v-71c0 -27 -0.166992 -55.833 -0.5 -86.5s-0.5 -59.5 -0.5 -86.5v-71v-41.5h-139v398z" />
    <glyph glyph-name="g" unicode="g" horiz-adv-x="597" 
d="M120 195c-17.333 10 -31.9961 25.3281 -43.9961 45.9951s-18 47 -18 79c0 32.667 6.33301 60.5 19 83.5s29.5 42 50.5 57s45 26 72 33s54.833 10.5 83.5 10.5c19.333 0 38.166 -1 56.499 -3s34.166 -5 47.499 -9h176v-72h-70l-3 -5c9.33301 -12 16 -26.167 20 -42.5
s6 -32.166 6 -47.499c0 -28 -5.83301 -52.667 -17.5 -74s-27.834 -39.166 -48.501 -53.499s-44.667 -25.166 -72 -32.499s-56.666 -11 -87.999 -11l-57 -1c-18.667 0 -33.5 -2.33301 -44.5 -7s-16.5 -12.667 -16.5 -24c0 -7.33301 3.5 -13.166 10.5 -17.499
s16.5 -6.5 28.5 -6.5h144c62 0 110.333 -11.667 145 -35s52 -60.333 52 -111c0 -22.667 -5.33301 -44.167 -16 -64.5s-27.334 -38.333 -50.001 -54s-52.167 -28.167 -88.5 -37.5s-79.833 -14 -130.5 -14c-48.667 0 -88 4.16699 -118 12.5s-53.333 19.166 -70 32.499
s-27.834 28.333 -33.501 45s-8.5 33.334 -8.5 50.001c0 24.667 6.16699 46.334 18.5 65.001s26.833 32.667 43.5 42c-36 11.333 -54 35.333 -54 72c0 24.667 7.33301 44 22 58s31.667 24.667 51 32zM218.004 11.9951c-11.333 -4.66699 -21.332 -13.332 -29.999 -25.999
s-13 -25.334 -13 -38.001c0 -9.33301 1.5 -18.333 4.5 -27s8.5 -16.167 16.5 -22.5s19.333 -11.5 34 -15.5s33.667 -6 57 -6c40 0 70 6.5 90 19.5s30 30.167 30 51.5c0 8 -1 15.833 -3 23.5s-6 14.5 -12 20.5s-14.333 10.833 -25 14.5s-24.334 5.5 -41.001 5.5h-108z
M376.005 325.997c0 10.667 -1.49805 21.166 -4.49805 31.499s-8 19.5 -15 27.5s-16.333 14.5 -28 19.5s-25.834 7.5 -42.501 7.5c-30.667 0 -53 -8.16699 -67 -24.5s-21 -37.166 -21 -62.499c0 -26 7.16699 -46.333 21.5 -61s34.5 -22 60.5 -22
c27.333 0 50.166 6.5 68.499 19.5s27.5 34.5 27.5 64.5z" />
    <glyph glyph-name="h" unicode="h" horiz-adv-x="569" 
d="M195 447c28 16.667 57.335 30.167 88.002 40.5s57.667 15.5 81 15.5c33.333 0 60 -4.5 80 -13.5s35.5 -21.167 46.5 -36.5s18.333 -33.333 22 -54s5.5 -42.334 5.5 -65.001v-334h-143v304c0 12.667 -0.666992 24.334 -2 35.001s-4.33301 20 -9 28
s-11.667 14.167 -21 18.5s-22 6.5 -38 6.5c-16.667 0 -35.334 -3.66699 -56.001 -11s-39.334 -16 -56.001 -26v-355h-144v715h141v-159l-3 -105z" />
    <glyph glyph-name="i" unicode="i" horiz-adv-x="299" 
d="M77 0v491h143v-491h-143zM233 627c0 -21.333 -7.16699 -39.333 -21.5 -54s-35.5 -22 -63.5 -22c-26.667 0 -47 7.33301 -61 22s-21 32.667 -21 54c0 22 7.16699 40.333 21.5 55s34.5 22 60.5 22c28 0 49.167 -7.33301 63.5 -22s21.5 -33 21.5 -55z" />
    <glyph glyph-name="j" unicode="j" horiz-adv-x="307" 
d="M83 491l144.001 -0.000976562v-316.5c0 -77 -0.333008 -119.833 -1 -128.5c-0.666992 -39.333 -5.33398 -73.666 -14.001 -102.999s-22 -54.833 -40 -76.5s-41.167 -40.167 -69.5 -55.5s-62.833 -28.333 -103.5 -39c-1.33301 2.66699 -3.83301 8.83398 -7.5 18.501
l-11.5 30.5c-4 10.667 -8 20.667 -12 30s-6.66699 15.333 -8 18c26 14.667 47 28.167 63 40.5s28.5 25.166 37.5 38.499s15 28.5 18 45.5s4.5 37.833 4.5 62.5v435zM240.001 626.999c0 -21.333 -7.16699 -39.333 -21.5 -54s-35.166 -22 -62.499 -22
s-47.833 7.33301 -61.5 22s-20.5 32.667 -20.5 54c0 22 7 40.333 21 55s34.333 22 61 22c27.333 0 48.166 -7.33301 62.499 -22s21.5 -33 21.5 -55z" />
    <glyph glyph-name="k" unicode="k" horiz-adv-x="532" 
d="M189 323c1.33301 -0.666992 3.33203 -1 5.99902 -1l158 169h160l-185 -192l36 -42c4.66699 -8 11.334 -18.667 20.001 -32l28.5 -45l32.5 -51.5l32.5 -51.5l28.5 -45.5l20 -31.5h-158l-66 107.5l-65 108.5l-43 -44v-172h-145v714h145l-1 -249
c0 -21.333 -0.333008 -45 -1 -71s-1.66699 -49.667 -3 -71z" />
    <glyph glyph-name="l" unicode="l" horiz-adv-x="272" 
d="M206 0h-142v716h143z" />
    <glyph glyph-name="m" unicode="m" horiz-adv-x="864" 
d="M668 0v310.999c0 27.333 -4.5 47.5 -13.5 60.5s-26.167 19.5 -51.5 19.5c-15.333 0 -33.166 -3.33301 -53.499 -10s-37.5 -14.667 -51.5 -24c1.33301 -10.667 2.33301 -21.667 3 -33s1 -21.666 1 -30.999v-293h-141c0 54 -0.166992 107.5 -0.5 160.5
s-0.5 106.5 -0.5 160.5c0 46 -19.667 69 -59 69c-16.667 0 -34.5 -3.33301 -53.5 -10s-37.167 -15.334 -54.5 -26.001v-354h-143v491h134l3 -49l4 -2c28 21.333 57.5 37 88.5 47s58.167 15 81.5 15c55.333 0 95 -21.333 119 -64c12 9.33301 25.5 17.833 40.5 25.5
s30.5 14.334 46.5 20.001s31.667 10.167 47 13.5s29.666 5 42.999 5c32.667 0 59.167 -4.66699 79.5 -14s36 -22 47 -38s18.5 -34.5 22.5 -55.5s6 -42.833 6 -65.5v-329h-144z" />
    <glyph glyph-name="n" unicode="n" horiz-adv-x="569" 
d="M375 0v304c0 12.667 -0.666992 24.334 -2 35.001s-4.5 20 -9.5 28s-12.167 14.167 -21.5 18.5s-21.666 6.5 -36.999 6.5c-16.667 0 -35.334 -3.66699 -56.001 -11s-39.334 -16 -56.001 -26v-355h-144v491h136l2 -45l4 -2c28.667 19.333 58.834 34 90.501 44
s59.167 15 82.5 15c32.667 0 59 -4.5 79 -13.5s35.5 -21.167 46.5 -36.5s18.5 -33.333 22.5 -54s6 -42.334 6 -65.001v-334h-143z" />
    <glyph glyph-name="o" unicode="o" horiz-adv-x="577" 
d="M537 246c0 -34 -4.33398 -66.498 -13.001 -97.498s-23 -58.333 -43 -82s-46 -42.334 -78 -56.001s-71.333 -20.5 -118 -20.5c-45.333 0 -83.666 6.66699 -114.999 20s-56.666 31.5 -75.999 54.5s-33.166 50 -41.499 81s-12.5 64.167 -12.5 99.5
c0 34.667 4.66699 67.5 14 98.5s24 58.167 44 81.5s45.833 42 77.5 56s70.167 21 115.5 21c46 0 84.667 -6.83301 116 -20.5s56.666 -32.334 75.999 -56.001s33.166 -51 41.499 -82s12.5 -63.5 12.5 -97.5zM388.999 245.002c0 19.333 -1.33301 38.335 -4 57.002
s-7.5 35.334 -14.5 50.001s-16.833 26.5 -29.5 35.5s-29.334 13.5 -50.001 13.5s-37.667 -4.5 -51 -13.5s-24 -20.833 -32 -35.5s-13.5 -31.334 -16.5 -50.001s-4.5 -37.667 -4.5 -57c0 -22 1.33301 -42.333 4 -61s7.83398 -34.834 15.501 -48.501s18.167 -24.5 31.5 -32.5
s31 -12 53 -12c20 0 36.5 4.16699 49.5 12.5s23 19.666 30 33.999s11.833 30.833 14.5 49.5s4 38 4 58z" />
    <glyph glyph-name="p" unicode="p" horiz-adv-x="575" 
d="M192 444c24 19.333 49.002 33.333 75.002 42s50.333 13 73 13c38 0 69.5 -6.66699 94.5 -20s44.833 -31.333 59.5 -54s25 -49.167 31 -79.5s9 -62.833 9 -97.5c0 -36 -3.66699 -69.667 -11 -101s-19.333 -58.5 -36 -81.5s-38.334 -41.167 -65.001 -54.5
s-59.334 -20 -98.001 -20c-8 0 -17.5 0.5 -28.5 1.5s-22.5 2.5 -34.5 4.5s-24 4.83301 -36 8.5s-23 8.5 -33 14.5v-229h-142v701h134l3 -44zM291.002 92c12.667 0 24.9961 2.5 36.9961 7.5s22.667 13.5 32 25.5s16.833 28.5 22.5 49.5s8.5 47.5 8.5 79.5
c0 28.667 -2.5 52.167 -7.5 70.5s-11.833 32.666 -20.5 42.999s-19 17.5 -31 21.5s-24.667 6 -38 6c-8 0 -16.667 -1.16699 -26 -3.5s-18.666 -5.33301 -27.999 -9s-18.166 -7.66699 -26.499 -12s-15.166 -8.83301 -20.499 -13.5v-238
c11.333 -7.33301 26.333 -13.666 45 -18.999s36.334 -8 53.001 -8z" />
    <glyph glyph-name="q" unicode="q" horiz-adv-x="575" 
d="M384 17l-3.50098 3.50195c-1 1 -2.16699 1.83301 -3.5 2.5c-25.333 -12.667 -49.666 -21.5 -72.999 -26.5s-43.333 -7.5 -60 -7.5c-37.333 0 -68.833 5.66699 -94.5 17s-46.667 27.166 -63 47.499s-28.166 45 -35.499 74s-11 61.167 -11 96.5
c0 36.667 3.83301 71.667 11.5 105s21.167 62.666 40.5 87.999s45.5 45.5 78.5 60.5s74.5 22.5 124.5 22.5c14.667 0 31.5 -0.833008 50.5 -2.5s38.833 -4.33398 59.5 -8.00098s41.167 -8.16699 61.5 -13.5s39.166 -11.666 56.499 -18.999v-665h-140v126v48
c0 16.667 0.333008 33.667 1 51zM276.999 93.002c17.333 0 35.002 3 53.002 9s34.667 13 50 21v258c-14.667 6 -29.167 10.167 -43.5 12.5s-28.5 3.5 -42.5 3.5c-16 0 -30.667 -2.66699 -44 -8s-25 -14 -35 -26s-17.833 -27.833 -23.5 -47.5s-8.5 -43.5 -8.5 -71.5
c0 -31.333 2.5 -56.833 7.5 -76.5s11.667 -35 20 -46s18.166 -18.5 29.499 -22.5s23.666 -6 36.999 -6z" />
    <glyph glyph-name="r" unicode="r" horiz-adv-x="416" 
d="M201 404c13.333 13.333 27.9971 26.001 43.9971 38.001s32.333 22.667 49 32s33 16.666 49 21.999s31 8 45 8c18.667 0 28 -11 28 -33c0 -9.33301 -1.33301 -20.5 -4 -33.5s-6.16699 -26.333 -10.5 -40s-9.16602 -26.5 -14.499 -38.5s-10.666 -21.667 -15.999 -29l-167 2
v-332h-143v491h141c0 -11.333 -0.666992 -25.333 -2 -42s-2.66602 -30.667 -3.99902 -42z" />
    <glyph glyph-name="s" unicode="s" horiz-adv-x="491" 
d="M258 503c26 0 54.835 -2.83008 86.502 -8.49707s60.5 -15.5 86.5 -29.5c-1.33301 -2.66699 -3.5 -8.16699 -6.5 -16.5s-6 -17.333 -9 -27s-6 -18.834 -9 -27.501s-5.16699 -14.334 -6.5 -17.001c-26.667 10 -51.334 16.833 -74.001 20.5s-43.667 5.5 -63 5.5
c-18 0 -34.5 -2.83301 -49.5 -8.5s-22.5 -17.834 -22.5 -36.501c0 -6.66699 2.83301 -12.5 8.5 -17.5s12.667 -9.5 21 -13.5s17.666 -7.33301 27.999 -10s20.166 -5.33398 29.499 -8.00098c20.667 -6 41.667 -12.833 63 -20.5s40.833 -17.834 58.5 -30.501
s32.167 -28.5 43.5 -47.5s17 -42.833 17 -71.5c0 -47.333 -19 -83.666 -57 -108.999s-95.333 -38 -172 -38c-14 0 -29.5 0.666992 -46.5 2s-34.5 3.66602 -52.5 6.99902s-35.667 7.5 -53 12.5s-33.333 11.167 -48 18.5l31 89c40.667 -14.667 75.667 -23.834 105 -27.501
s52.333 -5.5 69 -5.5c23.333 0 43 3.83301 59 11.5s24 21.834 24 42.501c0 10 -2.66699 18.167 -8 24.5s-12.5 11.833 -21.5 16.5s-19 8.66699 -30 12l-32.5 10c-22.667 6.66699 -44.667 13.834 -66 21.501s-40.166 16.834 -56.499 27.501s-29.5 24 -39.5 40s-15 36 -15 60
c0 47.333 17.667 84 53 110s87 39 155 39z" />
    <glyph glyph-name="t" unicode="t" horiz-adv-x="405" 
d="M225 627l0.00195312 -135h143v-94h-143v-222c0 -26 4.66699 -45.167 14 -57.5s26.666 -18.5 51.999 -18.5c9.33301 0 21.333 1.16699 36 3.5s31 5.5 49 9.5l18 -93c-21.333 -9.33301 -44.666 -16.333 -69.999 -21s-48.666 -7 -69.999 -7c-34 0 -62 4 -84 12
s-39.333 18.667 -52 32s-21.5 28.833 -26.5 46.5s-7.5 36.167 -7.5 55.5v260h-69v78l78 23c2 4 4.66699 11.667 8 23s6.66602 23.333 9.99902 36s6.66602 24.667 9.99902 36s5.66602 19 6.99902 23z" />
    <glyph glyph-name="u" unicode="u" horiz-adv-x="558" 
d="M199 -11c-32.667 0 -58.832 4.33105 -78.499 12.998s-34.834 20.667 -45.501 36s-17.667 33 -21 53s-5 41.667 -5 65v335h143v-304c0 -12 0.666992 -23.333 2 -34s4.33301 -20 9 -28s11.334 -14.333 20.001 -19s20.667 -7 36 -7c14 0 30.5 3.66699 49.5 11
s37.5 19 55.5 35v346c24 0 47.833 0.166992 71.5 0.5s47.5 0.5 71.5 0.5v-492h-133c-1.33301 8.66699 -2 17.334 -2 26.001s-0.666992 17.667 -2 27l-4 2c-15.333 -13.333 -30.833 -24.166 -46.5 -32.499s-30.834 -15 -45.501 -20s-28.5 -8.5 -41.5 -10.5
s-24.167 -3 -33.5 -3z" />
    <glyph glyph-name="v" unicode="v" horiz-adv-x="551" 
d="M281 95c1.33301 3.33301 3.83301 12.001 7.5 26.001l12.5 48.5l14.5 56c5 19 9.5 34.833 13.5 47.5l19 59l21.5 68.5l18 59.5c5 17.333 8.16699 27.666 9.5 30.999h144l-22.5 -64.5l-29.5 -85.5l-32.5 -96l-32.5 -96l-29.5 -85l-22.5 -64h-195l-22.5 64l-29 85l-32.5 96
l-32.5 96l-29 85.5l-22.5 64.5h150l71 -228c2.66699 -8.66699 6 -20.667 10 -36l12.5 -48l12.5 -48c4 -15.333 7.66699 -27.333 11 -36h5z" />
    <glyph glyph-name="w" unicode="w" horiz-adv-x="820" 
d="M580 115l29 147l55 230h139l-133 -492h-167l-58 210l-36 159h-7l-33 -159l-53 -210h-167l-133 492h141l55 -227l30 -151h5l33 155l59 223h136l64 -230l34 -147h7z" />
    <glyph glyph-name="x" unicode="x" horiz-adv-x="520" 
d="M261 182l-104 -182h-153l169 256l-156 235h157l89 -166l90 166h153l-159 -234l167 -257h-156z" />
    <glyph glyph-name="y" unicode="y" horiz-adv-x="536" 
d="M268 89l10.501 43.5c5 20.333 10.833 41.833 17.5 64.5l20 68l22.5 78.5l23 79l20.5 68.5h144l-27.5 -82.5l-33.5 -100.5l-37 -109.5l-37 -109.5l-34 -100l-28 -82c-14 -42 -35.333 -73.167 -64 -93.5s-63.667 -30.5 -105 -30.5c-13.333 0 -29.333 1.16699 -48 3.5
s-43.334 7.5 -74.001 15.5l20 95l41.5 -6.5c10.333 -1.66699 20.166 -2.5 29.499 -2.5c22.667 0 40 4.33301 52 13s21.667 24.667 29 48l20 62h-64l-152 480h142c5.33301 -18 11.5 -40 18.5 -66l22 -80.5l22.5 -81.5l19 -69c5.33301 -19.333 9.83301 -38.833 13.5 -58.5
s6.83398 -35.167 9.50098 -46.5h7z" />
    <glyph glyph-name="z" unicode="z" horiz-adv-x="467" 
d="M197 96h261v-96h-448v78l250 311l-2 6h-223v97h410v-78l-251 -311z" />
    <glyph glyph-name="braceleft" unicode="{" horiz-adv-x="326" 
d="M221 -166c-27.333 0 -49 4.99902 -65 14.999s-28 22 -36 36s-13.167 28.5 -15.5 43.5s-3.5 27.5 -3.5 37.5v190c0 28 -5.33301 49.167 -16 63.5s-28.667 24.166 -54 29.499v73c26.667 5.33301 45 16.333 55 33s15 41 15 73v126c0 16.667 1.5 33.834 4.5 51.501
s8.83301 33.834 17.5 48.501s20.334 26.5 35.001 35.5s34 13.5 58 13.5h89v-79h-26c-22.667 0 -37.834 -6.5 -45.501 -19.5s-11.5 -28.5 -11.5 -46.5v-143c0 -16 -0.833008 -31 -2.5 -45s-5 -26.5 -10 -37.5s-12 -20.333 -21 -28s-21.167 -13.167 -36.5 -16.5v-1
c29.333 -11.333 48.333 -28 57 -50s13 -50.333 13 -85v-176c0 -8.66699 0.666992 -17 2 -25s4 -15 8 -21s9.5 -10.667 16.5 -14s16.167 -5 27.5 -5h29v-77h-84z" />
    <glyph glyph-name="bar" unicode="|" horiz-adv-x="312" 
d="M107 -146v853h95v-853h-95z" />
    <glyph glyph-name="braceright" unicode="}" horiz-adv-x="326" 
d="M22 -166v76.998h30c11.333 0 20.5 1.66699 27.5 5s12.5 8 16.5 14s6.66699 13 8 21s2 16.333 2 25v176c0 34.667 4.16699 63 12.5 85s27.166 38.667 56.499 50v1c-25.333 6.66699 -43.166 20.334 -53.499 41.001s-15.5 44.667 -15.5 72v157
c0 18 -3.83301 33.5 -11.5 46.5s-22.834 19.5 -45.501 19.5h-27v79h90c24 0 43.333 -3.66699 58 -11s26.334 -17 35.001 -29s14.5 -25.833 17.5 -41.5s4.5 -31.834 4.5 -48.501v-154c0 -30.667 5.66699 -53.167 17 -67.5s29 -24.166 53 -29.499v-73
c-25.333 -5.33301 -43.333 -16.166 -54 -32.499s-16 -36.5 -16 -60.5v-181c0 -10 -1.16699 -22.833 -3.5 -38.5s-7.5 -31.167 -15.5 -46.5s-20 -28.5 -36 -39.5s-37.667 -16.5 -65 -16.5h-85z" />
    <glyph glyph-name="asciitilde" unicode="~" horiz-adv-x="590" 
d="M410 231c-21.333 0 -42.332 2.33105 -62.999 6.99805s-40.667 9.83398 -60 15.501s-37.833 10.834 -55.5 15.501s-33.5 7 -47.5 7l-70 -46l-49 38c14.667 37.333 33.167 64.5 55.5 81.5s47.166 25.5 74.499 25.5c17.333 0 36 -2.33301 56 -7s40 -10 60 -16
s39.5 -11.333 58.5 -16s36.5 -7 52.5 -7l67 48l49 -37c-13.333 -35.333 -30.5 -62.333 -51.5 -81s-46.5 -28 -76.5 -28z" />
    <glyph glyph-name="exclamdown" unicode="&#xa1;" horiz-adv-x="283" 
d="M74 -214l3.00098 242.003c0.666992 14 1.5 33.167 2.5 57.5s2.33301 49.833 4 76.5s3 52.167 4 76.5s1.83301 43.5 2.5 57.5h104c0 -16.667 0.666992 -38.834 2 -66.501l4 -85.5l4 -85c1.33301 -27.333 2 -49 2 -65c0 -2.66699 0.166992 -9.33398 0.5 -20.001
s0.666016 -23.334 0.999023 -38.001s0.5 -30.167 0.5 -46.5s0.166992 -31.833 0.5 -46.5s0.5 -27.167 0.5 -37.5v-19.5h-135zM217.001 430.003c0 -19.333 -6.33301 -35.666 -19 -48.999s-31.667 -20 -57 -20c-24 0 -42.5 6.66699 -55.5 20s-19.5 29.666 -19.5 48.999
s6.33301 35.833 19 49.5s31.667 20.5 57 20.5c24 0 42.5 -6.83301 55.5 -20.5s19.5 -30.167 19.5 -49.5z" />
    <glyph glyph-name="cent" unicode="&#xa2;" horiz-adv-x="590" 
d="M293 -8c-44.667 1.33301 -81.667 8.66504 -111 21.998s-52.5 31.166 -69.5 53.499s-28.833 48.333 -35.5 78s-10 61.167 -10 94.5c0 28 3.16699 57 9.5 87s17.833 57.5 34.5 82.5s39.667 46 69 63s67 26.5 113 28.5v75h58v-75
c17.333 -1.33301 35.5 -3.66602 54.5 -6.99902s38.167 -8.66602 57.5 -15.999c-3.33301 -16.667 -6.83301 -33.167 -10.5 -49.5l-11.5 -50.5c-17.333 5.33301 -33.5 8.83301 -48.5 10.5s-28.833 2.83398 -41.5 3.50098v-291c19.333 1.33301 38 4.16602 56 8.49902
s36.333 9.83301 55 16.5l27 -95c-19.333 -9.33301 -40.833 -17.166 -64.5 -23.499s-48.167 -10.833 -73.5 -13.5v-76h-58v74zM212 245.999c0 -38 5.99902 -69.168 17.999 -93.501s33 -40.166 63 -47.499v281c-27.333 -8 -47.666 -24 -60.999 -48s-20 -54.667 -20 -92z" />
    <glyph glyph-name="sterling" unicode="&#xa3;" horiz-adv-x="590" 
d="M130 375c0 2 0.331055 7.33301 0.998047 16s1.16699 18.167 1.5 28.5s0.833008 20 1.5 29s1 14.5 1 16.5c2.66699 32.667 8.83398 62.167 18.501 88.5s23.334 49 41.001 68s39.834 33.667 66.501 44s58 15.5 94 15.5s70 -3.83301 102 -11.5s59 -16.5 81 -26.5l-35 -94
c-32 12 -59 19.167 -81 21.5s-39.667 3.5 -53 3.5c-37.333 0 -63.333 -10 -78 -30s-23.334 -49 -26.001 -87c0 -2 -0.333008 -7 -1 -15s-1.16699 -16.667 -1.5 -26s-0.833008 -18 -1.5 -26s-1 -13 -1 -15h156v-75h-161c0 -0.666992 -0.166992 -3.83398 -0.5 -9.50098
s-0.833008 -11.834 -1.5 -18.501s-1.16699 -13 -1.5 -19s-0.5 -9.33301 -0.5 -10c-1.33301 -29.333 -5.5 -57.666 -12.5 -84.999s-18.5 -48.666 -34.5 -63.999h328v-94h-483v93c13.333 8 24.5 17.667 33.5 29s16.167 23.666 21.5 36.999s9.33301 27.166 12 41.499
s4.33398 28.5 5.00098 42.5c0 0.666992 0.333008 4 1 10s1.16699 12.333 1.5 19s0.666016 12.834 0.999023 18.501s0.5 8.83398 0.5 9.50098h-62v75h67z" />
    <glyph glyph-name="currency" unicode="&#xa4;" horiz-adv-x="564" 
d="M164 306c0 -16 2.99902 -31.166 8.99902 -45.499s14.333 -26.666 25 -36.999s23.167 -18.5 37.5 -24.5s29.5 -9 45.5 -9s30.833 3 44.5 9s25.834 14.167 36.501 24.5s19 22.666 25 36.999s9 29.5 9 45.5s-3 31 -9 45s-14.167 26.167 -24.5 36.5
s-22.5 18.666 -36.5 24.999s-29 9.5 -45 9.5s-31.167 -3 -45.5 -9s-26.833 -14.333 -37.5 -25s-19 -23 -25 -37s-9 -29 -9 -45zM47.999 480.001l58.999 58.001l64 -64c16 10.667 33.333 19 52 25s38.334 9 59.001 9c40 0 76.667 -11.667 110 -35l64 65l59 -59l-66 -63
c22 -34 33 -70.667 33 -110c0 -19.333 -3 -38.333 -9 -57s-14 -36.334 -24 -53.001l66 -61l-59 -61l-65 65c-17.333 -12.667 -35 -21.334 -53 -26.001s-36.667 -7 -56 -7c-20 0 -39 2.33301 -57 7s-35.667 13.334 -53 26.001l-65 -65l-59 60l65 63
c-12.667 17.333 -21.5 35.333 -26.5 54s-7.5 36.667 -7.5 54c0 19.333 2.83301 38.5 8.5 57.5s14.167 36.5 25.5 52.5z" />
    <glyph glyph-name="yen" unicode="&#xa5;" horiz-adv-x="590" 
d="M295 365l11.002 27.001l14 35l13.5 34.5c4.33301 11 8.16602 19.833 11.499 26.5c2 4 6.66699 14.833 14 32.5l24 57.5l24 57.5c7.33301 17.667 11.666 28.5 12.999 32.5h140l-33 -68.5l-42 -88.5l-42 -88l-33 -68h116v-54h-467v54h112l-32.5 68l-40 88l-40 88.5
c-13 28.333 -23.833 51.166 -32.5 68.499h143c4.66699 -10 10.167 -23.167 16.5 -39.5l19.5 -50.5l19.5 -50.5c6.33301 -16.333 11.833 -29.5 16.5 -39.5l49 -123h5zM526.002 256.001v-55h-162v-201h-144v201h-161v55h467z" />
    <glyph glyph-name="brokenbar" unicode="&#xa6;" horiz-adv-x="312" 
d="M107 351v356h95v-356h-95zM202 239v-385h-95v385h95z" />
    <glyph glyph-name="section" unicode="&#xa7;" horiz-adv-x="518" 
d="M461 322c0 -25.333 -4.8291 -48.3311 -14.4961 -68.998s-26.5 -40.667 -50.5 -60c29.333 -19.333 49.166 -40 59.499 -62s15.5 -41.667 15.5 -59c0 -52.667 -20.667 -93.5 -62 -122.5s-97.333 -43.5 -168 -43.5c-35.333 0 -68 3 -98 9s-56 13 -78 21l12.5 40.5
c4.33301 13.667 8.83301 27.167 13.5 40.5c30 -9.33301 55.833 -15.666 77.5 -18.999s41.167 -5 58.5 -5s33.166 2 47.499 6s26.666 9.16699 36.999 15.5s18.333 13.666 24 21.999s8.5 16.833 8.5 25.5c0 17.333 -6.66699 31.666 -20 42.999s-35.666 23.333 -66.999 36
l-70.5 29.5c-23.667 9.66699 -45 21 -64 34s-34.5 28.333 -46.5 46s-18 39.5 -18 65.5c0 52.667 22.667 96 68 130c-19.333 14 -34.333 29.5 -45 46.5s-16 37.5 -16 61.5c0 27.333 5.5 51.166 16.5 71.499s26 37.166 45 50.499s41.333 23.333 67 30s53.5 10 83.5 10
c33.333 0 65 -3 95 -9s54.333 -13.333 73 -22l-27 -81c-27.333 8 -52.833 13.667 -76.5 17s-45.167 5 -64.5 5c-10.667 0 -21.334 -1.5 -32.001 -4.5s-20.334 -7.16699 -29.001 -12.5s-15.667 -12 -21 -20s-8 -17 -8 -27c0 -11.333 5 -21.666 15 -30.999s22.333 -18 37 -26
s30.334 -15.5 47.001 -22.5l45 -19.5l47.5 -22.5c15.667 -7.66699 29.667 -17 42 -28s22.166 -23.833 29.499 -38.5s11 -32 11 -52zM352.004 300.002c0 13.333 -3.99902 24.8359 -11.999 34.5029s-18.833 18.5 -32.5 26.5s-29 15.5 -46 22.5l-52.5 22.5
c-25.333 -22 -38 -45 -38 -69c0 -15.333 3.83301 -27.333 11.5 -36s18 -16.334 31 -23.001s28.333 -13.334 46 -20.001s36.5 -15.334 56.5 -26.001c11.333 10.667 20.166 22.5 26.499 35.5s9.5 23.833 9.5 32.5z" />
    <glyph glyph-name="dieresis" unicode="&#xa8;" horiz-adv-x="542" 
d="M233 623c0 -17.333 -6 -32 -18 -44s-29.667 -18 -53 -18c-22.667 0 -39.667 6 -51 18s-17 26.667 -17 44c0 18 5.83301 32.833 17.5 44.5s28.5 17.5 50.5 17.5c23.333 0 41 -5.66699 53 -17s18 -26.333 18 -45zM444 623c0 -17.333 -6 -32 -18 -44s-29.667 -18 -53 -18
c-22 0 -38.667 6 -50 18s-17 26.667 -17 44c0 18 5.83301 32.833 17.5 44.5s28.167 17.5 49.5 17.5c23.333 0 41 -5.66699 53 -17s18 -26.333 18 -45z" />
    <glyph glyph-name="copyright" unicode="&#xa9;" horiz-adv-x="851" 
d="M805 330c0 -52 -10.167 -101 -30.5 -147s-47.666 -86.167 -81.999 -120.5s-74.666 -61.333 -120.999 -81s-95.5 -29.5 -147.5 -29.5s-101.167 9.83301 -147.5 29.5s-86.833 46.667 -121.5 81s-62 74.5 -82 120.5s-30 95 -30 147s10 101 30 147s47.333 86.167 82 120.5
s75.167 61.333 121.5 81s95.5 29.5 147.5 29.5s101.167 -9.83301 147.5 -29.5s86.666 -46.667 120.999 -81s61.666 -74.5 81.999 -120.5s30.5 -95 30.5 -147zM745 330c0 44 -8.33301 85.333 -25 124s-39.5 72.5 -68.5 101.5s-63 51.833 -102 68.5s-80.833 25 -125.5 25
c-44 0 -85.333 -8.33301 -124 -25s-72.667 -39.5 -102 -68.5s-52.5 -62.833 -69.5 -101.5s-25.5 -80 -25.5 -124s8.5 -85.333 25.5 -124s40.167 -72.334 69.5 -101.001s63.333 -51.334 102 -68.001s80 -25 124 -25c44.667 0 86.5 8.33301 125.5 25s73 39.334 102 68.001
s51.833 62.334 68.5 101.001s25 80 25 124zM312 325c0 -55.333 10.999 -96.833 32.999 -124.5s59 -41.5 111 -41.5c6 0 13.667 0.333008 23 1s19 1.5 29 2.5s20.167 2.33301 30.5 4s19.5 3.5 27.5 5.5l15 -68c-19.333 -7.33301 -42.833 -13.166 -70.5 -17.499
s-53.834 -6.5 -78.501 -6.5c-43.333 0 -79.166 6.33301 -107.499 19s-51.166 29.834 -68.499 51.501s-29.5 47.167 -36.5 76.5s-10.5 61 -10.5 95c0 28 3.5 56.667 10.5 86s19.333 56.166 37 80.499s41.667 44.166 72 59.499s68.833 23 115.5 23c26 0 48.667 -1.66699 68 -5
s37.666 -8 54.999 -14l-14 -71c-18 5.33301 -35.167 9 -51.5 11s-32.166 3 -47.499 3c-44.667 0 -79.5 -14.167 -104.5 -42.5s-37.5 -70.833 -37.5 -127.5z" />
    <glyph glyph-name="ordfeminine" unicode="&#xaa;" horiz-adv-x="387" 
d="M328 340l41.0029 0.00195312l4 -63c-11.333 -5.33301 -25.166 -9.33301 -41.499 -12s-30.5 -4 -42.5 -4c-13.333 0 -25.5 2.66699 -36.5 8s-18.167 14.666 -21.5 27.999c-10.667 -9.33301 -21.334 -16.5 -32.001 -21.5s-20.5 -8.83301 -29.5 -11.5
s-17.167 -4.16699 -24.5 -4.5s-13.333 -0.5 -18 -0.5c-22 0 -40.167 3.33301 -54.5 10s-25.5 14.834 -33.5 24.501s-13.667 20.167 -17 31.5s-5 22 -5 32c0 21.333 6.16699 40.166 18.5 56.499s33.166 27.166 62.499 32.499c16 3.33301 35.333 6 58 8s45.667 3.66699 69 5
v13c0 17.333 -3.5 29.833 -10.5 37.5s-21.5 11.5 -43.5 11.5c-15.333 0 -32.333 -1.5 -51 -4.5s-36.667 -7.16699 -54 -12.5l-10 33l-10 34c22 9.33301 46.167 16.333 72.5 21s52.166 7 77.499 7c41.333 0 73.666 -8.5 96.999 -25.5s35 -47.167 35 -90.5v-143z
M166.003 328.002c8 0 17.667 2.33301 29 7s21.333 10 30 16v58c-11.333 0 -22.833 -0.5 -34.5 -1.5s-22.167 -2.83301 -31.5 -5.5c-22.667 -5.33301 -34 -17.333 -34 -36c0 -25.333 13.667 -38 41 -38z" />
    <glyph glyph-name="guillemotleft" unicode="&#xab;" horiz-adv-x="493" 
d="M49 216l166 179l56 -40l-103 -158l103 -156l-58 -42l-164 179v38zM234 216l166 179l57 -40l-103 -158l102 -156l-57 -42l-165 179v38z" />
    <glyph glyph-name="logicalnot" unicode="&#xac;" horiz-adv-x="590" 
d="M510 91h-86v170h-327v83h413v-253z" />
    <glyph glyph-name="sfthyphen" unicode="&#xad;" horiz-adv-x="393" 
d="M59 219v99h275v-99h-275z" />
    <glyph glyph-name="registered" unicode="&#xae;" horiz-adv-x="601" 
d="M555 466c0 -35.333 -6.49902 -68.5 -19.499 -99.5s-31 -58.167 -54 -81.5s-50.167 -41.666 -81.5 -54.999s-65.333 -20 -102 -20c-36 0 -69.833 6.66699 -101.5 20s-59 31.666 -82 54.999s-41.167 50.5 -54.5 81.5s-20 64.167 -20 99.5s6.5 68.666 19.5 99.999
s31 58.5 54 81.5s50.167 41.167 81.5 54.5s65.666 20 102.999 20c36.667 0 70.667 -6.66699 102 -20s58.5 -31.5 81.5 -54.5s41 -50.167 54 -81.5s19.5 -64.666 19.5 -99.999zM508.001 466c0 28.667 -5.33105 55.834 -15.998 81.501s-25.334 48 -44.001 67
s-40.834 34 -66.501 45s-53.5 16.5 -83.5 16.5s-57.833 -5.5 -83.5 -16.5s-48 -26 -67 -45s-33.833 -41.333 -44.5 -67s-16 -52.834 -16 -81.501s5.16699 -55.834 15.5 -81.501s24.833 -48 43.5 -67s41 -34 67 -45s54.333 -16.5 85 -16.5c32 0 60.833 5.5 86.5 16.5
s47.667 26 66 45s32.5 41.333 42.5 67s15 52.834 15 81.501zM348.003 532c0 15.333 -4.16895 26.167 -12.502 32.5s-18.166 9.5 -29.499 9.5h-40v-86h37c12.667 0 23.334 3 32.001 9s13 17.667 13 35zM361.001 326.001l-48 119h-48v-119h-65v291h118
c34 0 58.833 -8 74.5 -24s23.5 -36.667 23.5 -62c0 -12.667 -4 -26.5 -12 -41.5s-20.667 -26.167 -38 -33.5l59 -130h-64z" />
    <glyph glyph-name="macron" unicode="&#xaf;" horiz-adv-x="556" 
d="M96 674h363v-91h-363v91z" />
    <glyph glyph-name="degree" unicode="&#xb0;" horiz-adv-x="374" 
d="M337 538c0 -20.667 -4 -39.998 -12 -57.998s-18.667 -33.833 -32 -47.5s-29 -24.334 -47 -32.001s-37.333 -11.5 -58 -11.5c-22 0 -42 3.66699 -60 11s-33.667 17.666 -47 30.999s-23.666 29 -30.999 47s-11 38 -11 60c0 20 4 39.167 12 57.5s18.667 34.166 32 47.499
s29.166 24 47.499 32s37.5 12 57.5 12c20.667 0 40 -4 58 -12s33.667 -18.667 47 -32s24 -29.166 32 -47.499s12 -37.5 12 -57.5zM267 537.002c0 23.333 -7.83301 42.666 -23.5 57.999s-34.5 23 -56.5 23s-40.5 -7.66699 -55.5 -23s-22.5 -34.666 -22.5 -57.999
c0 -22.667 7.5 -41.5 22.5 -56.5s33.5 -22.5 55.5 -22.5s40.833 7.5 56.5 22.5s23.5 33.833 23.5 56.5z" />
    <glyph glyph-name="plusminus" unicode="&#xb1;" horiz-adv-x="590" 
d="M347 277v-151h-86v151h-164v83h164v151h86v-151h162v-83h-162zM509 80v-80h-412v80h412z" />
    <glyph glyph-name="twosuperior" unicode="&#xb2;" horiz-adv-x="392" 
d="M333 641c0 -20 -4.5 -39.3291 -13.5 -57.9961s-20.667 -36.834 -35 -54.501s-30.5 -34.667 -48.5 -51s-36 -31.833 -54 -46.5h168v-77h-325v67c20.667 15.333 42.5 32.666 65.5 51.999s44.333 38.666 64 57.999s35.834 38.166 48.501 56.499s19 34.166 19 47.499
c0 15.333 -5.33301 26.333 -16 33s-25.334 10 -44.001 10c-10 0 -24.333 -1.66699 -43 -5s-40 -11.666 -64 -24.999l-36 67c29.333 19.333 57.833 32.5 85.5 39.5s52.5 10.5 74.5 10.5c50 0 88.167 -10.667 114.5 -32s39.5 -52 39.5 -92z" />
    <glyph glyph-name="threesuperior" unicode="&#xb3;" horiz-adv-x="392" 
d="M44 759l286 0.00195312l7.5 -29c2.33301 -9.33301 4.5 -19 6.5 -29l-99 -91c34 -6 60.5 -19.333 79.5 -40s28.5 -47.334 28.5 -80.001c0 -22.667 -4.66699 -42.667 -14 -60s-22 -32 -38 -44s-34.833 -21 -56.5 -27s-44.5 -9 -68.5 -9
c-21.333 0 -46.166 1.83301 -74.499 5.5s-55.166 12.167 -80.499 25.5c4.66699 11.333 9 23.166 13 35.499s8.33301 24.833 13 37.5c28 -9.33301 51.667 -15 71 -17s35 -3 47 -3c28 0 48.167 5.5 60.5 16.5s18.5 24.167 18.5 39.5c0 10 -2.5 18.333 -7.5 25
s-11.833 12 -20.5 16s-18.5 6.83301 -29.5 8.5s-22.833 2.5 -35.5 2.5c-6.66699 0 -13.334 -0.166992 -20.001 -0.5s-13.334 -0.833008 -20.001 -1.5l-8 52l96 87l-2 4h-153v76z" />
    <glyph glyph-name="acute" unicode="&#xb4;" horiz-adv-x="522" 
d="M237 532l-50 52l148 170l76 -82z" />
    <glyph glyph-name="mu" unicode="&#xb5;" horiz-adv-x="558" 
d="M193 -2l-0.00195312 -206h-144v700h143v-312c0 -23.333 5.33301 -42.5 16 -57.5s30.334 -22.5 59.001 -22.5c13.333 0 28.5 3.66699 45.5 11s34.167 18.666 51.5 33.999v347h143v-492h-137c-0.666992 8 -1 14.5 -1 19.5s-0.666992 11.833 -2 20.5l-4 3
c-21.333 -19.333 -42.666 -32.166 -63.999 -38.499s-41.333 -9.5 -60 -9.5c-15.333 0 -29.333 2.66699 -42 8z" />
    <glyph glyph-name="mu" unicode="&#x3bc;" horiz-adv-x="558" 
d="M193 -2l-0.00195312 -206h-144v700h143v-312c0 -23.333 5.33301 -42.5 16 -57.5s30.334 -22.5 59.001 -22.5c13.333 0 28.5 3.66699 45.5 11s34.167 18.666 51.5 33.999v347h143v-492h-137c-0.666992 8 -1 14.5 -1 19.5s-0.666992 11.833 -2 20.5l-4 3
c-21.333 -19.333 -42.666 -32.166 -63.999 -38.499s-41.333 -9.5 -60 -9.5c-15.333 0 -29.333 2.66699 -42 8z" />
    <glyph glyph-name="paragraph" unicode="&#xb6;" horiz-adv-x="601" 
d="M245 295c-29.333 0 -56.334 4.83203 -81.001 14.499s-46 23.334 -64 41.001s-32.167 38.667 -42.5 63s-15.5 51.5 -15.5 81.5c0 28.667 4.83301 55.667 14.5 81s23.334 47.5 41.001 66.5s39 34 64 45s52.833 16.5 83.5 16.5h270v-911h-95v817h-61v-817h-96l1 502h-19z
" />
    <glyph glyph-name="periodcentered" unicode="&#xb7;" horiz-adv-x="259" 
d="M209 275c0 -20.667 -6.83301 -37.833 -20.5 -51.5s-33.167 -20.5 -58.5 -20.5s-44.5 7 -57.5 21s-19.5 31 -19.5 51c0 21.333 6.5 38.666 19.5 51.999s32.167 20 57.5 20s44.833 -6.66699 58.5 -20s20.5 -30.666 20.5 -51.999z" />
    <glyph glyph-name="cedilla" unicode="&#xb8;" horiz-adv-x="478" 
d="M315 17l-28.501 -36l-28.5 -39c32.667 -2.66699 58.5 -11 77.5 -25s28.5 -33.667 28.5 -59c0 -32 -15.667 -58.5 -47 -79.5s-80.333 -31.833 -147 -32.5v48c34 3.33301 60.667 9.66602 80 18.999s29 21.333 29 36c0 10 -3.16699 17.333 -9.5 22
s-14.166 7.83398 -23.499 9.50098s-19 2.5 -29 2.5h-27l-17 26l102 132l40 -24v0z" />
    <glyph glyph-name="onesuperior" unicode="&#xb9;" horiz-adv-x="379" 
d="M143 667c-4.66699 -0.666992 -11.1689 -1.5 -19.502 -2.5s-17.166 -2 -26.499 -3s-18.166 -2 -26.499 -3s-14.833 -1.83301 -19.5 -2.5l-14 66l122 37h93v-404h-109v312z" />
    <glyph glyph-name="ordmasculine" unicode="&#xba;" horiz-adv-x="399" 
d="M373 431c0 -22.667 -3.33008 -44.166 -9.99707 -64.499s-17 -38.333 -31 -54s-32.167 -28 -54.5 -37s-49.5 -13.5 -81.5 -13.5c-30.667 0 -56.834 4.33301 -78.501 13s-39.334 20.667 -53.001 36s-23.667 33.166 -30 53.499s-9.5 42.5 -9.5 66.5
c0 22.667 3.33301 44.167 10 64.5s17.167 38.333 31.5 54s32.666 28 54.999 37s48.833 13.5 79.5 13.5s57 -4.5 79 -13.5s39.833 -21.333 53.5 -37s23.667 -33.667 30 -54s9.5 -41.833 9.5 -64.5zM263.003 431.001c0 10.667 -0.835938 21.499 -2.50293 32.499
s-4.66699 21 -9 30s-10.666 16.333 -18.999 22s-18.833 8.5 -31.5 8.5c-13.333 0 -24.166 -2.83301 -32.499 -8.5s-15 -13 -20 -22s-8.5 -19 -10.5 -30s-3 -22.167 -3 -33.5c0 -12.667 0.833008 -24.667 2.5 -36s4.83398 -21.166 9.50098 -29.499s11.334 -15 20.001 -20
s20 -7.5 34 -7.5c12.667 0 23.167 2.66699 31.5 8s14.666 12.333 18.999 21s7.33301 18.667 9 30s2.5 23 2.5 35z" />
    <glyph glyph-name="guillemotright" unicode="&#xbb;" horiz-adv-x="493" 
d="M452 178l-165 -179l-57 42l102 156l-103 158l57 40l166 -179v-38zM266 178l-164 -179l-58 42l103 156l-104 158l57 40l166 -179v-38z" />
    <glyph glyph-name="onequarter" unicode="&#xbc;" horiz-adv-x="900" 
d="M186 577c-4.66699 -0.666992 -11.1689 -1.5 -19.502 -2.5s-17.166 -2 -26.499 -3s-18.166 -2 -26.499 -3s-14.833 -1.83301 -19.5 -2.5l-14 66l122 37h93v-404h-109v312zM322.998 -20h-87l315 728h86zM761.998 403v-226h58v-72h-58v-106h-105v106h-195v61l189 237h111z
M651.998 299l-94 -122h100v122h-6z" />
    <glyph glyph-name="onehalf" unicode="&#xbd;" horiz-adv-x="900" 
d="M814 285c0 -20 -4.66699 -39.668 -14 -59.001s-21.333 -38 -36 -56s-31 -35 -49 -51s-35.333 -30.667 -52 -44c28.667 0 57.167 -0.166992 85.5 -0.5s56.833 -0.5 85.5 -0.5v-75h-328v66c20.667 15.333 42.5 32.5 65.5 51.5s44.333 38.333 64 58s35.834 38.5 48.501 56.5
s19 33.667 19 47c0 15.333 -5.33301 26.5 -16 33.5s-25.334 10.5 -44.001 10.5c-10 0 -24.333 -1.66699 -43 -5s-40 -11.666 -64 -24.999l-36 67c29.333 19.333 57.833 32.5 85.5 39.5s52.5 10.5 74.5 10.5c50 0 88.167 -10.667 114.5 -32s39.5 -52 39.5 -92zM302 -20.001
h-87l315 728h86zM171 576.999c-4.66699 -0.666992 -11.1689 -1.5 -19.502 -2.5s-17.166 -2 -26.499 -3s-18.166 -2 -26.499 -3s-14.833 -1.83301 -19.5 -2.5l-14 66l122 37h93v-404h-109v312z" />
    <glyph glyph-name="threequarters" unicode="&#xbe;" horiz-adv-x="900" 
d="M794 403v-226h58v-72h-58v-106h-105v106h-195v61l189 237h111zM71 669l286 0.00195312l7.5 -29c2.33301 -9.33301 4.5 -19 6.5 -29l-99 -91c34 -6 60.5 -19.333 79.5 -40s28.5 -47.334 28.5 -80.001c0 -22.667 -4.66699 -42.667 -14 -60s-22 -32 -38 -44
s-34.833 -21 -56.5 -27s-44.5 -9 -68.5 -9c-21.333 0 -46.166 1.83301 -74.499 5.5s-55.166 12.167 -80.499 25.5c4.66699 11.333 9 23.166 13 35.499s8.33301 24.833 13 37.5c28 -9.33301 51.667 -15 71 -17s35 -3 47 -3c28 0 48.167 5.5 60.5 16.5s18.5 24.167 18.5 39.5
c0 10 -2.5 18.333 -7.5 25s-11.833 12 -20.5 16s-18.5 6.83301 -29.5 8.5s-22.833 2.5 -35.5 2.5c-6.66699 0 -13.334 -0.166992 -20.001 -0.5s-13.334 -0.833008 -20.001 -1.5l-8 52l96 87l-2 4h-153v76zM353 -19.998h-87l315 728h86zM684 299.002l-94 -122h100v122h-6z
" />
    <glyph glyph-name="questiondown" unicode="&#xbf;" horiz-adv-x="496" 
d="M259 46c-18.667 -16 -33.002 -30.4971 -43.002 -43.4971s-15 -30.167 -15 -51.5s8 -37.5 24 -48.5s37 -16.5 63 -16.5c21.333 0 44 1.83301 68 5.5s51.667 10.5 83 20.5l14.5 -48l15.5 -48c-40 -15.333 -77.5 -25.5 -112.5 -30.5s-66.5 -7.5 -94.5 -7.5
c-33.333 0 -63.166 3.66699 -89.499 11s-48.666 17.5 -66.999 30.5s-32.5 28.833 -42.5 47.5s-15 39 -15 61c0 32.667 5.83301 60.5 17.5 83.5s29.167 45.167 52.5 66.5l51 45c16 14 30 27.667 42 41s21.333 26.666 28 39.999s10 27.666 10 42.999c0 8 -0.666992 16 -2 24
s-2.66602 17.333 -3.99902 28c20 0.666992 39.667 1.5 59 2.5s38.666 1.83301 57.999 2.5c3.33301 -15.333 5.5 -29.5 6.5 -42.5s1.5 -24.167 1.5 -33.5c0 -19.333 -2.66699 -37 -8 -53s-12.833 -31 -22.5 -45s-21.167 -27.833 -34.5 -41.5s-28 -27.834 -44 -42.501z
M215.998 430.003c0 19.333 6.49902 35.666 19.499 48.999s31.5 20 55.5 20c24.667 0 43.5 -6.66699 56.5 -20s19.5 -29.666 19.5 -48.999s-6.66699 -35.666 -20 -48.999s-31.666 -20 -54.999 -20c-24.667 0 -43.5 6.66699 -56.5 20s-19.5 29.666 -19.5 48.999z" />
    <glyph glyph-name="Agrave" unicode="&#xc0;" horiz-adv-x="664" 
d="M503 0l-48 157h-251l-49 -157h-147l234 687h186l227 -687h-152zM374 438l-40 149h-5l-42 -154l-51 -176h189zM173 869l73 79l149 -168l-49 -50z" />
    <glyph glyph-name="Aacute" unicode="&#xc1;" horiz-adv-x="664" 
d="M503 0l-48 157h-251l-49 -157h-147l234 687h186l227 -687h-152zM374 438l-40 149h-5l-42 -154l-51 -176h189zM339 727l-47 49l147 169l76 -79z" />
    <glyph glyph-name="Acircumflex" unicode="&#xc2;" horiz-adv-x="664" 
d="M503 0l-48 157h-251l-49 -157h-147l234 687h186l227 -687h-152zM374 438l-40 149h-5l-42 -154l-51 -176h189zM500 725l-165 91l-163 -92l-34 41l154 147h88l155 -146z" />
    <glyph glyph-name="Atilde" unicode="&#xc3;" horiz-adv-x="664" 
d="M503 0l-48 157h-251l-49 -157h-147l234 687h186l227 -687h-152zM374 438l-40 149h-5l-42 -154l-51 -176h189zM416 758c-16.667 0 -33.168 2 -49.501 6s-32 8.5 -47 13.5l-42 13.5c-13 4 -24.5 6 -34.5 6l-56 -39l-41 32c11.333 32 25.833 55.333 43.5 70s37.5 22 59.5 22
c14 0 28.5 -2 43.5 -6s30 -8.33301 45 -13s29.667 -9 44 -13s27.5 -6 39.5 -6l56 41l41 -33c-10 -30 -23.667 -53.167 -41 -69.5s-37.666 -24.5 -60.999 -24.5z" />
    <glyph glyph-name="Adieresis" unicode="&#xc4;" horiz-adv-x="664" 
d="M503 0l-48 157h-251l-49 -157h-147l234 687h186l227 -687h-152zM374 438l-40 149h-5l-42 -154l-51 -176h189zM298 786c0 -17.333 -6 -32 -18 -44s-29.667 -18 -53 -18c-22.667 0 -39.667 6 -51 18s-17 26.667 -17 44c0 18 5.83301 32.833 17.5 44.5s28.5 17.5 50.5 17.5
c23.333 0 41 -5.66699 53 -17s18 -26.333 18 -45zM509 786c0 -17.333 -6 -32 -18 -44s-29.667 -18 -53 -18c-22 0 -38.667 6 -50 18s-17 26.667 -17 44c0 18 5.83301 32.833 17.5 44.5s28.167 17.5 49.5 17.5c23.333 0 41 -5.66699 53 -17s18 -26.333 18 -45z" />
    <glyph glyph-name="Aring" unicode="&#xc5;" horiz-adv-x="664" 
d="M503 0l-48 157h-251l-49 -157h-147l234 687h186l227 -687h-152zM374 438l-40 149h-5l-42 -154l-51 -176h189zM335 700c-17.333 0 -33.667 3.16895 -49 9.50195s-28.666 15 -39.999 26s-20.166 23.667 -26.499 38s-9.5 29.833 -9.5 46.5c0 16 3.16699 31.167 9.5 45.5
s15.166 27 26.499 38s24.666 19.833 39.999 26.5s31.666 10 48.999 10s33.333 -3.16699 48 -9.5s27.334 -15 38.001 -26s19 -23.833 25 -38.5s9 -30 9 -46c0 -16.667 -3.16699 -32.334 -9.5 -47.001s-15 -27.334 -26 -38.001s-23.667 -19.167 -38 -25.5
s-29.833 -9.5 -46.5 -9.5zM334.999 877.002c-17.333 0 -31.5 -5.83301 -42.5 -17.5s-16.5 -25.834 -16.5 -42.501c0 -15.333 5.16699 -28.666 15.5 -39.999s24.833 -17 43.5 -17c16.667 0 30 5.66699 40 17s15 24.666 15 39.999c0 16.667 -4.83301 30.834 -14.5 42.501
s-23.167 17.5 -40.5 17.5z" />
    <glyph glyph-name="AE" unicode="&#xc6;" horiz-adv-x="1039" 
d="M520 180h-244l-111 -180h-157l427 687h536v-102h-304v-178h253v-98h-253v-206h316v-103h-463v180zM514 581l-14.5 -25l-21.5 -36.5l-26.5 -44l-28.5 -47.5l-90 -148h187v301h-6z" />
    <glyph glyph-name="Ccedilla" unicode="&#xc7;" horiz-adv-x="627" 
d="M385 701c35.333 0 68.3291 -2.66504 98.9961 -7.99805s58.667 -12 84 -20l-21 -108c-26.667 7.33301 -52.167 12.5 -76.5 15.5s-46.5 4.5 -66.5 4.5c-64 0 -112.667 -19.833 -146 -59.5s-50 -99.834 -50 -180.501c0 -39.333 3.33301 -73.833 10 -103.5
s17.834 -54.5 33.501 -74.5s36.334 -35 62.001 -45s57.167 -15 94.5 -15c8 0 18.5 0.5 31.5 1.5s27 2.5 42 4.5s30 4.33301 45 7s29.167 5.66699 42.5 9l24 -102c-26 -10.667 -56.5 -19 -91.5 -25s-68.833 -9.66699 -101.5 -11l-24.5 -32.5l-24.5 -33.5
c32.667 -2.66699 58.5 -11 77.5 -25s28.5 -33.667 28.5 -59c0 -32 -15.667 -58.5 -47 -79.5s-80.333 -31.833 -147 -32.5v48c34 3.33301 60.667 9.66602 80 18.999s29 21.333 29 36c0 10 -3.16699 17.333 -9.5 22s-14.166 7.83398 -23.499 9.50098s-19 2.5 -29 2.5h-27
l-17 26l76 99c-56 3.33301 -102.667 14.666 -140 33.999s-67.166 44.5 -89.499 75.5s-38 67 -47 108s-13.5 84.833 -13.5 131.5c0 40 5 81.333 15 124s27.5 81.5 52.5 116.5s59 63.833 102 86.5s97.5 34 163.5 34z" />
    <glyph glyph-name="Egrave" unicode="&#xc8;" horiz-adv-x="606" 
d="M72 0v688h474v-104h-325v-175h273v-98h-273v-206h339v-105h-488zM185 869l73 79l149 -168l-49 -50z" />
    <glyph glyph-name="Eacute" unicode="&#xc9;" horiz-adv-x="606" 
d="M72 0v688h474v-104h-325v-175h273v-98h-273v-206h339v-105h-488zM311 729l-47 49l147 169l76 -79z" />
    <glyph glyph-name="Ecircumflex" unicode="&#xca;" horiz-adv-x="606" 
d="M72 0v688h474v-104h-325v-175h273v-98h-273v-206h339v-105h-488zM481 732l-165 91l-163 -92l-34 41l154 147h88l155 -146z" />
    <glyph glyph-name="Edieresis" unicode="&#xcb;" horiz-adv-x="606" 
d="M72 0v688h474v-104h-325v-175h273v-98h-273v-206h339v-105h-488zM274 786c0 -17.333 -6 -32 -18 -44s-29.667 -18 -53 -18c-22.667 0 -39.667 6 -51 18s-17 26.667 -17 44c0 18 5.83301 32.833 17.5 44.5s28.5 17.5 50.5 17.5c23.333 0 41 -5.66699 53 -17
s18 -26.333 18 -45zM485 786c0 -17.333 -6 -32 -18 -44s-29.667 -18 -53 -18c-22 0 -38.667 6 -50 18s-17 26.667 -17 44c0 18 5.83301 32.833 17.5 44.5s28.167 17.5 49.5 17.5c23.333 0 41 -5.66699 53 -17s18 -26.333 18 -45z" />
    <glyph glyph-name="Igrave" unicode="&#xcc;" horiz-adv-x="308" 
d="M81 0v688h146v-688h-146zM2 870l73 79l149 -168l-49 -50z" />
    <glyph glyph-name="Iacute" unicode="&#xcd;" horiz-adv-x="308" 
d="M81 0v688h146v-688h-146zM149 733l-47 49l147 169l76 -79z" />
    <glyph glyph-name="Icircumflex" unicode="&#xce;" horiz-adv-x="308" 
d="M81 0v688h146v-688h-146zM317 734l-165 91l-163 -92l-34 41l154 147h88l155 -146z" />
    <glyph glyph-name="Idieresis" unicode="&#xcf;" horiz-adv-x="308" 
d="M81 0v688h146v-688h-146zM121 793c0 -17.333 -6 -32 -18 -44s-29.667 -18 -53 -18c-22.667 0 -39.667 6 -51 18s-17 26.667 -17 44c0 18 5.83301 32.833 17.5 44.5s28.5 17.5 50.5 17.5c23.333 0 41 -5.66699 53 -17s18 -26.333 18 -45zM332 793
c0 -17.333 -6 -32 -18 -44s-29.667 -18 -53 -18c-22 0 -38.667 6 -50 18s-17 26.667 -17 44c0 18 5.83301 32.833 17.5 44.5s28.167 17.5 49.5 17.5c23.333 0 41 -5.66699 53 -17s18 -26.333 18 -45z" />
    <glyph glyph-name="Eth" unicode="&#xd0;" horiz-adv-x="690" 
d="M73 0l-0.000976562 321.001h-59v73h59v294h258c60.667 0 110.834 -9.16699 150.501 -27.5s71 -43 94 -74s39 -67.333 48 -109s13.5 -85.5 13.5 -131.5s-5.16699 -90 -15.5 -132s-27.5 -78.833 -51.5 -110.5s-56 -56.834 -96 -75.501s-89.667 -28 -149 -28h-252z
M221.999 584.001l-0.00195312 -190.002h123v-73h-123v-215h91c17.333 0 36 2.83301 56 8.5s38.5 17 55.5 34s31.167 40.833 42.5 71.5s17 71 17 121c0 50.667 -5.33301 91.834 -16 123.501s-24.167 56.334 -40.5 74.001s-34.666 29.667 -54.999 36s-40.166 9.5 -59.499 9.5
h-91z" />
    <glyph glyph-name="Ntilde" unicode="&#xd1;" horiz-adv-x="742" 
d="M526 214l-0.00195312 473h143v-687h-148l-233 370l-34.5 57l-34.5 57c-1.33301 0 -2.16602 -0.166992 -2.49902 -0.5s-1.16602 -0.5 -2.49902 -0.5v-483h-142v687h149l106.5 -166l105.5 -167l87 -140h6zM454.998 761c-16.667 0 -33.168 2 -49.501 6s-32 8.5 -47 13.5
l-42 13.5c-13 4 -24.5 6 -34.5 6l-56 -39l-41 32c11.333 32 25.833 55.333 43.5 70s37.5 22 59.5 22c14 0 28.5 -2 43.5 -6s30 -8.33301 45 -13s29.667 -9 44 -13s27.5 -6 39.5 -6l56 41l41 -33c-10 -30 -23.667 -53.167 -41 -69.5s-37.666 -24.5 -60.999 -24.5z" />
    <glyph glyph-name="Ograve" unicode="&#xd2;" horiz-adv-x="746" 
d="M694 344c0 -50.667 -6.66309 -97.5 -19.9961 -140.5s-33.333 -80.333 -60 -112s-59.834 -56.5 -99.501 -74.5s-85.834 -27 -138.501 -27c-56 0 -104.333 8.5 -145 25.5s-74.167 41 -100.5 72s-45.833 68 -58.5 111s-19 90.833 -19 143.5
c0 49.333 6.16699 95.666 18.5 138.999s31.5 81.333 57.5 114s59.333 58.334 100 77.001s89.667 28 147 28s106.166 -9.5 146.499 -28.5s73.166 -44.667 98.499 -77s43.833 -70 55.5 -113s17.5 -88.833 17.5 -137.5zM537.004 342c0 31.333 -2.16699 62.166 -6.5 92.499
s-12.333 57.333 -24 81s-28 42.834 -49 57.501s-48.167 22 -81.5 22c-34 0 -61.833 -7.16699 -83.5 -21.5s-38.834 -33.166 -51.501 -56.499s-21.334 -50.333 -26.001 -81s-7 -62.334 -7 -95.001c0 -78 12.5 -138.167 37.5 -180.5s68.5 -63.5 130.5 -63.5
c28.667 0 53.334 6.16699 74.001 18.5s37.334 29.5 50.001 51.5s22 47.833 28 77.5s9 62.167 9 97.5zM223.004 875l73 79l149 -168l-49 -50z" />
    <glyph glyph-name="Oacute" unicode="&#xd3;" horiz-adv-x="746" 
d="M694 344c0 -50.667 -6.66309 -97.5 -19.9961 -140.5s-33.333 -80.333 -60 -112s-59.834 -56.5 -99.501 -74.5s-85.834 -27 -138.501 -27c-56 0 -104.333 8.5 -145 25.5s-74.167 41 -100.5 72s-45.833 68 -58.5 111s-19 90.833 -19 143.5
c0 49.333 6.16699 95.666 18.5 138.999s31.5 81.333 57.5 114s59.333 58.334 100 77.001s89.667 28 147 28s106.166 -9.5 146.499 -28.5s73.166 -44.667 98.499 -77s43.833 -70 55.5 -113s17.5 -88.833 17.5 -137.5zM537.004 342c0 31.333 -2.16699 62.166 -6.5 92.499
s-12.333 57.333 -24 81s-28 42.834 -49 57.501s-48.167 22 -81.5 22c-34 0 -61.833 -7.16699 -83.5 -21.5s-38.834 -33.166 -51.501 -56.499s-21.334 -50.333 -26.001 -81s-7 -62.334 -7 -95.001c0 -78 12.5 -138.167 37.5 -180.5s68.5 -63.5 130.5 -63.5
c28.667 0 53.334 6.16699 74.001 18.5s37.334 29.5 50.001 51.5s22 47.833 28 77.5s9 62.167 9 97.5zM372.004 736l-47 49l147 169l76 -79z" />
    <glyph glyph-name="Ocircumflex" unicode="&#xd4;" horiz-adv-x="746" 
d="M694 344c0 -50.667 -6.66309 -97.5 -19.9961 -140.5s-33.333 -80.333 -60 -112s-59.834 -56.5 -99.501 -74.5s-85.834 -27 -138.501 -27c-56 0 -104.333 8.5 -145 25.5s-74.167 41 -100.5 72s-45.833 68 -58.5 111s-19 90.833 -19 143.5
c0 49.333 6.16699 95.666 18.5 138.999s31.5 81.333 57.5 114s59.333 58.334 100 77.001s89.667 28 147 28s106.166 -9.5 146.499 -28.5s73.166 -44.667 98.499 -77s43.833 -70 55.5 -113s17.5 -88.833 17.5 -137.5zM537.004 342c0 31.333 -2.16699 62.166 -6.5 92.499
s-12.333 57.333 -24 81s-28 42.834 -49 57.501s-48.167 22 -81.5 22c-34 0 -61.833 -7.16699 -83.5 -21.5s-38.834 -33.166 -51.501 -56.499s-21.334 -50.333 -26.001 -81s-7 -62.334 -7 -95.001c0 -78 12.5 -138.167 37.5 -180.5s68.5 -63.5 130.5 -63.5
c28.667 0 53.334 6.16699 74.001 18.5s37.334 29.5 50.001 51.5s22 47.833 28 77.5s9 62.167 9 97.5zM544.004 732l-165 91l-163 -92l-34 41l154 147h88l155 -146z" />
    <glyph glyph-name="Otilde" unicode="&#xd5;" horiz-adv-x="746" 
d="M694 344c0 -50.667 -6.66309 -97.5 -19.9961 -140.5s-33.333 -80.333 -60 -112s-59.834 -56.5 -99.501 -74.5s-85.834 -27 -138.501 -27c-56 0 -104.333 8.5 -145 25.5s-74.167 41 -100.5 72s-45.833 68 -58.5 111s-19 90.833 -19 143.5
c0 49.333 6.16699 95.666 18.5 138.999s31.5 81.333 57.5 114s59.333 58.334 100 77.001s89.667 28 147 28s106.166 -9.5 146.499 -28.5s73.166 -44.667 98.499 -77s43.833 -70 55.5 -113s17.5 -88.833 17.5 -137.5zM537.004 342c0 31.333 -2.16699 62.166 -6.5 92.499
s-12.333 57.333 -24 81s-28 42.834 -49 57.501s-48.167 22 -81.5 22c-34 0 -61.833 -7.16699 -83.5 -21.5s-38.834 -33.166 -51.501 -56.499s-21.334 -50.333 -26.001 -81s-7 -62.334 -7 -95.001c0 -78 12.5 -138.167 37.5 -180.5s68.5 -63.5 130.5 -63.5
c28.667 0 53.334 6.16699 74.001 18.5s37.334 29.5 50.001 51.5s22 47.833 28 77.5s9 62.167 9 97.5zM462.004 767c-16.667 0 -33.168 2 -49.501 6s-32 8.5 -47 13.5l-42 13.5c-13 4 -24.5 6 -34.5 6l-56 -39l-41 32c11.333 32 25.833 55.333 43.5 70s37.5 22 59.5 22
c14 0 28.5 -2 43.5 -6s30 -8.33301 45 -13s29.667 -9 44 -13s27.5 -6 39.5 -6l56 41l41 -33c-10 -30 -23.667 -53.167 -41 -69.5s-37.666 -24.5 -60.999 -24.5z" />
    <glyph glyph-name="Odieresis" unicode="&#xd6;" horiz-adv-x="746" 
d="M694 344c0 -50.667 -6.66309 -97.5 -19.9961 -140.5s-33.333 -80.333 -60 -112s-59.834 -56.5 -99.501 -74.5s-85.834 -27 -138.501 -27c-56 0 -104.333 8.5 -145 25.5s-74.167 41 -100.5 72s-45.833 68 -58.5 111s-19 90.833 -19 143.5
c0 49.333 6.16699 95.666 18.5 138.999s31.5 81.333 57.5 114s59.333 58.334 100 77.001s89.667 28 147 28s106.166 -9.5 146.499 -28.5s73.166 -44.667 98.499 -77s43.833 -70 55.5 -113s17.5 -88.833 17.5 -137.5zM537.004 342c0 31.333 -2.16699 62.166 -6.5 92.499
s-12.333 57.333 -24 81s-28 42.834 -49 57.501s-48.167 22 -81.5 22c-34 0 -61.833 -7.16699 -83.5 -21.5s-38.834 -33.166 -51.501 -56.499s-21.334 -50.333 -26.001 -81s-7 -62.334 -7 -95.001c0 -78 12.5 -138.167 37.5 -180.5s68.5 -63.5 130.5 -63.5
c28.667 0 53.334 6.16699 74.001 18.5s37.334 29.5 50.001 51.5s22 47.833 28 77.5s9 62.167 9 97.5zM339.004 801c0 -17.333 -6 -32 -18 -44s-29.667 -18 -53 -18c-22.667 0 -39.667 6 -51 18s-17 26.667 -17 44c0 18 5.83301 32.833 17.5 44.5s28.5 17.5 50.5 17.5
c23.333 0 41 -5.66699 53 -17s18 -26.333 18 -45zM550.004 801c0 -17.333 -6 -32 -18 -44s-29.667 -18 -53 -18c-22 0 -38.667 6 -50 18s-17 26.667 -17 44c0 18 5.83301 32.833 17.5 44.5s28.167 17.5 49.5 17.5c23.333 0 41 -5.66699 53 -17s18 -26.333 18 -45z" />
    <glyph glyph-name="multiply" unicode="&#xd7;" horiz-adv-x="598" 
d="M305 236l-128 -127l-61 60l128 128l-127 127l59 59l127 -127l124 125l61 -61l-124 -125l126 -125l-60 -60z" />
    <glyph glyph-name="Oslash" unicode="&#xd8;" horiz-adv-x="734" 
d="M688 344c0 -50.667 -6.66309 -97.499 -19.9961 -140.499s-33.333 -80.333 -60 -112s-59.834 -56.5 -99.501 -74.5s-85.834 -27 -138.501 -27c-46 0 -86.333 5.5 -121 16.5s-65 26.833 -91 47.5l-50 -62h-61l77 95c-26.667 31.333 -46.334 68.5 -59.001 111.5
s-19 90.833 -19 143.5c0 49.333 6.16699 95.666 18.5 138.999s31.5 81.333 57.5 114s59.5 58.334 100.5 77.001s90.167 28 147.5 28c44 0 82.5 -5.5 115.5 -16.5s62.167 -26.5 87.5 -46.5l52 65h68l-83 -100c27.333 -32.667 47.166 -71.334 59.499 -116.001
s18.5 -92 18.5 -142zM202.004 341.001c0 -28.667 1.66797 -54.5 5.00098 -77.5s9 -43.167 17 -60.5l263 334c-12 17.333 -27.667 31.333 -47 42s-42.666 16 -69.999 16c-34 0 -61.833 -7.16699 -83.5 -21.5s-38.834 -33.166 -51.501 -56.499s-21.334 -50.333 -26.001 -81
s-7 -62.334 -7 -95.001zM530.005 342.001c0 24 -1.5 48.5 -4.5 73.5s-9.16699 48.167 -18.5 69.5l-263 -333c26.667 -36.667 68.667 -55 126 -55c28.667 0 53.167 6.16699 73.5 18.5s36.833 29.5 49.5 51.5s22 47.833 28 77.5s9 62.167 9 97.5z" />
    <glyph glyph-name="Ugrave" unicode="&#xd9;" horiz-adv-x="709" 
d="M641 253c0 -40.667 -5.66992 -77.334 -17.0029 -110.001s-28.666 -60.334 -51.999 -83.001s-53 -40 -89 -52s-78.667 -18 -128 -18c-51.333 0 -95.333 6 -132 18s-66.5 29.333 -89.5 52s-39.833 50.334 -50.5 83.001s-16 69.334 -16 110.001v435h146v-440
c0 -52 12.333 -90.167 37 -114.5s60.334 -36.5 107.001 -36.5c42.667 0 76.834 11.833 102.501 35.5s38.5 62.167 38.5 115.5l-1 440h145zM205.997 875l73 79l149 -168l-49 -50z" />
    <glyph glyph-name="Uacute" unicode="&#xda;" horiz-adv-x="709" 
d="M641 253c0 -40.667 -5.66992 -77.334 -17.0029 -110.001s-28.666 -60.334 -51.999 -83.001s-53 -40 -89 -52s-78.667 -18 -128 -18c-51.333 0 -95.333 6 -132 18s-66.5 29.333 -89.5 52s-39.833 50.334 -50.5 83.001s-16 69.334 -16 110.001v435h146v-440
c0 -52 12.333 -90.167 37 -114.5s60.334 -36.5 107.001 -36.5c42.667 0 76.834 11.833 102.501 35.5s38.5 62.167 38.5 115.5l-1 440h145zM341.997 736l-47 49l147 169l76 -79z" />
    <glyph glyph-name="Ucircumflex" unicode="&#xdb;" horiz-adv-x="709" 
d="M641 253c0 -40.667 -5.66992 -77.334 -17.0029 -110.001s-28.666 -60.334 -51.999 -83.001s-53 -40 -89 -52s-78.667 -18 -128 -18c-51.333 0 -95.333 6 -132 18s-66.5 29.333 -89.5 52s-39.833 50.334 -50.5 83.001s-16 69.334 -16 110.001v435h146v-440
c0 -52 12.333 -90.167 37 -114.5s60.334 -36.5 107.001 -36.5c42.667 0 76.834 11.833 102.501 35.5s38.5 62.167 38.5 115.5l-1 440h145zM523.997 737l-172 89l-169 -90l-35 40l160 144h91l161 -143z" />
    <glyph glyph-name="Udieresis" unicode="&#xdc;" horiz-adv-x="709" 
d="M641 253c0 -40.667 -5.66992 -77.334 -17.0029 -110.001s-28.666 -60.334 -51.999 -83.001s-53 -40 -89 -52s-78.667 -18 -128 -18c-51.333 0 -95.333 6 -132 18s-66.5 29.333 -89.5 52s-39.833 50.334 -50.5 83.001s-16 69.334 -16 110.001v435h146v-440
c0 -52 12.333 -90.167 37 -114.5s60.334 -36.5 107.001 -36.5c42.667 0 76.834 11.833 102.501 35.5s38.5 62.167 38.5 115.5l-1 440h145zM320.997 793c0 -17.333 -6 -32 -18 -44s-29.667 -18 -53 -18c-22.667 0 -39.667 6 -51 18s-17 26.667 -17 44
c0 18 5.83301 32.833 17.5 44.5s28.5 17.5 50.5 17.5c23.333 0 41 -5.66699 53 -17s18 -26.333 18 -45zM531.997 793c0 -17.333 -6 -32 -18 -44s-29.667 -18 -53 -18c-22 0 -38.667 6 -50 18s-17 26.667 -17 44c0 18 5.83301 32.833 17.5 44.5s28.167 17.5 49.5 17.5
c23.333 0 41 -5.66699 53 -17s18 -26.333 18 -45z" />
    <glyph glyph-name="Yacute" unicode="&#xdd;" horiz-adv-x="626" 
d="M232 247l-223.998 440h154l43 -88.5c14.667 -29 28.667 -58.5 42 -88.5l61 -137h6c11.333 22 22.166 45.833 32.499 71.5s21.166 49.5 32.499 71.5l86 171h151l-113 -211.5l-113 -211.5v-264h-158v247zM308.002 721l-47 49l147 169l76 -79z" />
    <glyph glyph-name="Thorn" unicode="&#xde;" horiz-adv-x="597" 
d="M569 343c0 -24.667 -4 -49.667 -12 -75s-21 -48.333 -39 -69s-41.167 -37.5 -69.5 -50.5s-62.833 -19.5 -103.5 -19.5h-125v-129h-148v688h148v-134h113c78.667 0 137.667 -19 177 -57s59 -89.333 59 -154zM220 450l0.00195312 -219.001h97
c13.333 0 26.166 1.83301 38.499 5.5s23.166 9.83398 32.499 18.501s16.833 20 22.5 34s8.5 31 8.5 51c0 39.333 -10.167 67.5 -30.5 84.5s-45.833 25.5 -76.5 25.5h-92z" />
    <glyph glyph-name="germandbls" unicode="&#xdf;" horiz-adv-x="657" 
d="M484 134c0 12 -2.16406 22.833 -6.49707 32.5s-9.83301 18.667 -16.5 27s-14.334 16.333 -23.001 24l-26 23.5l-38 35c-13.333 12 -25.5 24.667 -36.5 38s-20.167 27.5 -27.5 42.5s-11 30.833 -11 47.5c0 20 5 37.667 15 53s21 29.166 33 41.499s23 24.333 33 36
s15 24.167 15 37.5c0 4.66699 -1 10.334 -3 17.001s-5.83301 13.167 -11.5 19.5s-13.667 11.833 -24 16.5s-23.833 7 -40.5 7c-31.333 0 -53.333 -9.66699 -66 -29s-19 -42.333 -19 -69v-534h-141v375h-66v80h66v92c0 16 3.33301 34.667 10 56s18.5 41.666 35.5 60.999
s40.167 35.666 69.5 48.999s66.666 20 111.999 20c41.333 0 75.5 -5 102.5 -15s48.5 -22.333 64.5 -37s27.167 -30.334 33.5 -47.001s9.5 -31.667 9.5 -45c0 -24 -5.16699 -45 -15.5 -63s-21.833 -33.833 -34.5 -47.5l-34.5 -37c-10.333 -11 -15.5 -21.833 -15.5 -32.5
c0 -11.333 5 -22.166 15 -32.499s22.333 -21.333 37 -33l48 -37.5c17.333 -13.333 33.333 -28.5 48 -45.5s27 -36.167 37 -57.5s15 -45.666 15 -72.999c0 -42 -16.667 -76.833 -50 -104.5s-81.666 -41.5 -144.999 -41.5c-25.333 0 -50 1.83301 -74 5.5
s-47.333 8.83398 -70 15.501l24 96c29.333 -9.33301 51.666 -15 66.999 -17s27.333 -3 36 -3c21.333 0 38.166 4.83301 50.499 14.5s18.5 22.5 18.5 38.5z" />
    <glyph glyph-name="agrave" unicode="&#xe0;" horiz-adv-x="579" 
d="M484 95l63.999 0.00292969l7 -80c-16 -7.33301 -34.667 -13.333 -56 -18s-42.666 -7 -63.999 -7s-39.166 3.66699 -53.499 11s-22.833 23.333 -25.5 48l-2 2c-17.333 -15.333 -34.666 -27 -51.999 -35s-33.5 -14 -48.5 -18s-28.667 -6.33301 -41 -7s-21.833 -1 -28.5 -1
c-30.667 0 -55.834 4.83301 -75.501 14.5s-35.167 21.667 -46.5 36s-19.166 29.833 -23.499 46.5s-6.5 32 -6.5 46c0 25.333 4.66699 47.5 14 66.5s22.166 35 38.499 48s35.5 23.167 57.5 30.5s46 11.666 72 12.999c19.333 1.33301 41.666 2.66602 66.999 3.99902
s47.666 2.66602 66.999 3.99902v12c0 28 -6 49.167 -18 63.5s-36.333 21.5 -73 21.5c-24 0 -50.167 -2.33301 -78.5 -7s-54.166 -10.667 -77.499 -18c-3.33301 15.333 -7 30.333 -11 45l-12 44c29.333 12.667 63.333 22.667 102 30s75.667 11 111 11c29.333 0 56 -3 80 -9
s44.333 -15.667 61 -29s29.5 -30.833 38.5 -52.5s13.5 -48.5 13.5 -80.5v-235zM139.999 668.003l17 19l22.5 25l22.5 25c7.33301 8 13.333 14.333 18 19c8 -10 18.667 -22.5 32 -37.5l42 -46l42 -46l33 -37.5l-53 -58zM248.999 212.003c-46 -4 -69 -26.332 -69 -66.999
c0 -20.667 5.33301 -36.334 16 -47.001s27.667 -16 51 -16c15.333 0 32 3.83301 50 11.5s35 18.5 51 32.5v94z" />
    <glyph glyph-name="aacute" unicode="&#xe1;" horiz-adv-x="579" 
d="M484 95l63.999 0.00292969l7 -80c-16 -7.33301 -34.667 -13.333 -56 -18s-42.666 -7 -63.999 -7s-39.166 3.66699 -53.499 11s-22.833 23.333 -25.5 48l-2 2c-17.333 -15.333 -34.666 -27 -51.999 -35s-33.5 -14 -48.5 -18s-28.667 -6.33301 -41 -7s-21.833 -1 -28.5 -1
c-30.667 0 -55.834 4.83301 -75.501 14.5s-35.167 21.667 -46.5 36s-19.166 29.833 -23.499 46.5s-6.5 32 -6.5 46c0 25.333 4.66699 47.5 14 66.5s22.166 35 38.499 48s35.5 23.167 57.5 30.5s46 11.666 72 12.999c19.333 1.33301 41.666 2.66602 66.999 3.99902
s47.666 2.66602 66.999 3.99902v12c0 28 -6 49.167 -18 63.5s-36.333 21.5 -73 21.5c-24 0 -50.167 -2.33301 -78.5 -7s-54.166 -10.667 -77.499 -18c-3.33301 15.333 -7 30.333 -11 45l-12 44c29.333 12.667 63.333 22.667 102 30s75.667 11 111 11c29.333 0 56 -3 80 -9
s44.333 -15.667 61 -29s29.5 -30.833 38.5 -52.5s13.5 -48.5 13.5 -80.5v-235zM260.999 532.003l-50 52l148 170l76 -82zM248.999 212.003c-46 -4 -69 -26.332 -69 -66.999c0 -20.667 5.33301 -36.334 16 -47.001s27.667 -16 51 -16c15.333 0 32 3.83301 50 11.5
s35 18.5 51 32.5v94z" />
    <glyph glyph-name="acircumflex" unicode="&#xe2;" horiz-adv-x="579" 
d="M484 95l63.999 0.00292969l7 -80c-16 -7.33301 -34.667 -13.333 -56 -18s-42.666 -7 -63.999 -7s-39.166 3.66699 -53.499 11s-22.833 23.333 -25.5 48l-2 2c-17.333 -15.333 -34.666 -27 -51.999 -35s-33.5 -14 -48.5 -18s-28.667 -6.33301 -41 -7s-21.833 -1 -28.5 -1
c-30.667 0 -55.834 4.83301 -75.501 14.5s-35.167 21.667 -46.5 36s-19.166 29.833 -23.499 46.5s-6.5 32 -6.5 46c0 25.333 4.66699 47.5 14 66.5s22.166 35 38.499 48s35.5 23.167 57.5 30.5s46 11.666 72 12.999c19.333 1.33301 41.666 2.66602 66.999 3.99902
s47.666 2.66602 66.999 3.99902v12c0 28 -6 49.167 -18 63.5s-36.333 21.5 -73 21.5c-24 0 -50.167 -2.33301 -78.5 -7s-54.166 -10.667 -77.499 -18c-3.33301 15.333 -7 30.333 -11 45l-12 44c29.333 12.667 63.333 22.667 102 30s75.667 11 111 11c29.333 0 56 -3 80 -9
s44.333 -15.667 61 -29s29.5 -30.833 38.5 -52.5s13.5 -48.5 13.5 -80.5v-235zM441.999 530.003l-165 95l-164 -96l-33 41l154 154h88l156 -152zM248.999 212.003c-46 -4 -69 -26.332 -69 -66.999c0 -20.667 5.33301 -36.334 16 -47.001s27.667 -16 51 -16
c15.333 0 32 3.83301 50 11.5s35 18.5 51 32.5v94z" />
    <glyph glyph-name="atilde" unicode="&#xe3;" horiz-adv-x="579" 
d="M484 95l63.999 0.00292969l7 -80c-16 -7.33301 -34.667 -13.333 -56 -18s-42.666 -7 -63.999 -7s-39.166 3.66699 -53.499 11s-22.833 23.333 -25.5 48l-2 2c-17.333 -15.333 -34.666 -27 -51.999 -35s-33.5 -14 -48.5 -18s-28.667 -6.33301 -41 -7s-21.833 -1 -28.5 -1
c-30.667 0 -55.834 4.83301 -75.501 14.5s-35.167 21.667 -46.5 36s-19.166 29.833 -23.499 46.5s-6.5 32 -6.5 46c0 25.333 4.66699 47.5 14 66.5s22.166 35 38.499 48s35.5 23.167 57.5 30.5s46 11.666 72 12.999c19.333 1.33301 41.666 2.66602 66.999 3.99902
s47.666 2.66602 66.999 3.99902v12c0 28 -6 49.167 -18 63.5s-36.333 21.5 -73 21.5c-24 0 -50.167 -2.33301 -78.5 -7s-54.166 -10.667 -77.499 -18c-3.33301 15.333 -7 30.333 -11 45l-12 44c29.333 12.667 63.333 22.667 102 30s75.667 11 111 11c29.333 0 56 -3 80 -9
s44.333 -15.667 61 -29s29.5 -30.833 38.5 -52.5s13.5 -48.5 13.5 -80.5v-235zM365.999 568.003c-16.667 0 -33.168 2 -49.501 6s-32 8.5 -47 13.5l-42 13.5c-13 4 -24.5 6 -34.5 6l-56 -39l-41 32c11.333 32 25.833 55.333 43.5 70s37.5 22 59.5 22c14 0 28.5 -2 43.5 -6
s30 -8.33301 45 -13s29.667 -9 44 -13s27.5 -6 39.5 -6l56 41l41 -33c-10 -30 -23.667 -53.167 -41 -69.5s-37.666 -24.5 -60.999 -24.5zM248.998 212.003c-46 -4 -69 -26.332 -69 -66.999c0 -20.667 5.33301 -36.334 16 -47.001s27.667 -16 51 -16
c15.333 0 32 3.83301 50 11.5s35 18.5 51 32.5v94z" />
    <glyph glyph-name="adieresis" unicode="&#xe4;" horiz-adv-x="579" 
d="M484 95l63.999 0.00292969l7 -80c-16 -7.33301 -34.667 -13.333 -56 -18s-42.666 -7 -63.999 -7s-39.166 3.66699 -53.499 11s-22.833 23.333 -25.5 48l-2 2c-17.333 -15.333 -34.666 -27 -51.999 -35s-33.5 -14 -48.5 -18s-28.667 -6.33301 -41 -7s-21.833 -1 -28.5 -1
c-30.667 0 -55.834 4.83301 -75.501 14.5s-35.167 21.667 -46.5 36s-19.166 29.833 -23.499 46.5s-6.5 32 -6.5 46c0 25.333 4.66699 47.5 14 66.5s22.166 35 38.499 48s35.5 23.167 57.5 30.5s46 11.666 72 12.999c19.333 1.33301 41.666 2.66602 66.999 3.99902
s47.666 2.66602 66.999 3.99902v12c0 28 -6 49.167 -18 63.5s-36.333 21.5 -73 21.5c-24 0 -50.167 -2.33301 -78.5 -7s-54.166 -10.667 -77.499 -18c-3.33301 15.333 -7 30.333 -11 45l-12 44c29.333 12.667 63.333 22.667 102 30s75.667 11 111 11c29.333 0 56 -3 80 -9
s44.333 -15.667 61 -29s29.5 -30.833 38.5 -52.5s13.5 -48.5 13.5 -80.5v-235zM248.999 212.003c-46 -4 -69 -26.332 -69 -66.999c0 -20.667 5.33301 -36.334 16 -47.001s27.667 -16 51 -16c15.333 0 32 3.83301 50 11.5s35 18.5 51 32.5v94zM242.999 623.004
c0 -17.333 -6 -32 -18 -44s-29.667 -18 -53 -18c-22.667 0 -39.667 6 -51 18s-17 26.667 -17 44c0 18 5.83301 32.833 17.5 44.5s28.5 17.5 50.5 17.5c23.333 0 41 -5.66699 53 -17s18 -26.333 18 -45zM453.999 623.004c0 -17.333 -6 -32 -18 -44s-29.667 -18 -53 -18
c-22 0 -38.667 6 -50 18s-17 26.667 -17 44c0 18 5.83301 32.833 17.5 44.5s28.167 17.5 49.5 17.5c23.333 0 41 -5.66699 53 -17s18 -26.333 18 -45z" />
    <glyph glyph-name="aring" unicode="&#xe5;" horiz-adv-x="579" 
d="M484 95l63.999 0.00292969l7 -80c-16 -7.33301 -34.667 -13.333 -56 -18s-42.666 -7 -63.999 -7s-39.166 3.66699 -53.499 11s-22.833 23.333 -25.5 48l-2 2c-17.333 -15.333 -34.666 -27 -51.999 -35s-33.5 -14 -48.5 -18s-28.667 -6.33301 -41 -7s-21.833 -1 -28.5 -1
c-30.667 0 -55.834 4.83301 -75.501 14.5s-35.167 21.667 -46.5 36s-19.166 29.833 -23.499 46.5s-6.5 32 -6.5 46c0 25.333 4.66699 47.5 14 66.5s22.166 35 38.499 48s35.5 23.167 57.5 30.5s46 11.666 72 12.999c19.333 1.33301 41.666 2.66602 66.999 3.99902
s47.666 2.66602 66.999 3.99902v12c0 28 -6 49.167 -18 63.5s-36.333 21.5 -73 21.5c-24 0 -50.167 -2.33301 -78.5 -7s-54.166 -10.667 -77.499 -18c-3.33301 15.333 -7 30.333 -11 45l-12 44c29.333 12.667 63.333 22.667 102 30s75.667 11 111 11c29.333 0 56 -3 80 -9
s44.333 -15.667 61 -29s29.5 -30.833 38.5 -52.5s13.5 -48.5 13.5 -80.5v-235zM290.999 548.003c-17.333 0 -33.667 3.16895 -49 9.50195s-28.666 15 -39.999 26s-20.166 23.667 -26.499 38s-9.5 29.833 -9.5 46.5c0 16 3.16699 31.167 9.5 45.5s15.166 27 26.499 38
s24.666 19.833 39.999 26.5s31.666 10 48.999 10s33.333 -3.16699 48 -9.5s27.334 -15 38.001 -26s19 -23.833 25 -38.5s9 -30 9 -46c0 -16.667 -3.16699 -32.334 -9.5 -47.001s-15 -27.334 -26 -38.001s-23.667 -19.167 -38 -25.5s-29.833 -9.5 -46.5 -9.5z
M248.998 212.005c-46 -4 -69 -26.332 -69 -66.999c0 -20.667 5.33301 -36.334 16 -47.001s27.667 -16 51 -16c15.333 0 32 3.83301 50 11.5s35 18.5 51 32.5v94zM290.998 725.006c-17.333 0 -31.5 -5.83301 -42.5 -17.5s-16.5 -25.834 -16.5 -42.501
c0 -15.333 5.16699 -28.666 15.5 -39.999s24.833 -17 43.5 -17c16.667 0 30 5.66699 40 17s15 24.666 15 39.999c0 16.667 -4.83301 30.834 -14.5 42.501s-23.167 17.5 -40.5 17.5z" />
    <glyph glyph-name="ae" unicode="&#xe6;" horiz-adv-x="832" 
d="M586 503c47.333 0 85.001 -8.33105 113.001 -24.998s49.5 -37.334 64.5 -62.001s24.667 -50.834 29 -78.501s6.5 -52.5 6.5 -74.5v-42h-309c0.666992 -38 9.66699 -68.5 27 -91.5s48 -34.5 92 -34.5c25.333 0 50.333 2.66699 75 8s49.667 12.666 75 21.999l14.5 -42.5
c5 -14.333 9.5 -28.833 13.5 -43.5c-32 -17.333 -65.167 -29.5 -99.5 -36.5s-67.833 -10.5 -100.5 -10.5c-49.333 0 -88.333 6 -117 18s-52 29.667 -70 53c-21.333 -16.667 -42 -29.834 -62 -39.501s-39 -17 -57 -22s-34.667 -8.16699 -50 -9.5s-29 -2 -41 -2
c-32.667 0 -59.334 4.83301 -80.001 14.5s-37 21.667 -49 36s-20.333 29.833 -25 46.5s-7 32 -7 46c0 16.667 2.83301 34.334 8.5 53.001s15.5 35.834 29.5 51.501s32.5 28.5 55.5 38.5s51.5 15 85.5 15h143v20c0 32 -7.5 54.333 -22.5 67s-40.5 19 -76.5 19
c-28 0 -55.667 -2.33301 -83 -7s-52 -10.667 -74 -18l-12 44c-4 14.667 -8.33301 29.667 -13 45c28 11.333 60 20.833 96 28.5s71 11.5 105 11.5c13.333 0 27.666 -1 42.999 -3s30.333 -5.66699 45 -11s28.167 -12.333 40.5 -21s22.5 -20 30.5 -34
c16.667 20 37.834 36.833 63.501 50.5s56.5 20.5 92.5 20.5zM247.001 81.002c6.66699 0 15.001 1.00195 25.001 3.00195s20.5 5 31.5 9s21.833 8.83301 32.5 14.5s20 12.167 28 19.5c-4.66699 14.667 -8 29.667 -10 45s-3.33301 31.666 -4 48.999h-50
c-15.333 0 -30.333 -0.5 -45 -1.5s-27.834 -3.66699 -39.501 -8s-21.167 -11.333 -28.5 -21s-11 -22.834 -11 -39.501c0 -46.667 23.667 -70 71 -70zM587.002 403.004c-18 0 -32.834 -3.33594 -44.501 -10.0029s-21 -15.167 -28 -25.5s-12.167 -22.166 -15.5 -35.499
s-5.66602 -26.666 -6.99902 -39.999h180c0 14.667 -1 28.834 -3 42.501s-6.16699 25.5 -12.5 35.5s-15 18 -26 24s-25.5 9 -43.5 9z" />
    <glyph glyph-name="ccedilla" unicode="&#xe7;" horiz-adv-x="485" 
d="M184 246c0 -45.333 8.50195 -80.8359 25.502 -106.503s47.833 -38.5 92.5 -38.5c23.333 0 45.666 2.33301 66.999 7s43 10.667 65 18l27 -95c-23.333 -12 -50.5 -21.167 -81.5 -27.5s-62.5 -10.166 -94.5 -11.499l-37 -50c32.667 -2.66699 58.5 -11 77.5 -25
s28.5 -33.667 28.5 -59c0 -32 -15.667 -58.5 -47 -79.5s-80.333 -31.833 -147 -32.5v48c34 3.33301 60.667 9.66602 80 18.999s29 21.333 29 36c0 10 -3.16699 17.333 -9.5 22s-14.166 7.83398 -23.499 9.50098s-19 2.5 -29 2.5h-27l-17 26l66 86
c-37.333 4 -68.333 13.333 -93 28s-44.167 32.834 -58.5 54.501s-24.333 46.334 -30 74.001s-8.5 57.167 -8.5 88.5c0 28.667 3.33301 58.5 10 89.5s19 59.333 37 85s42.667 46.667 74 63s72 24.5 122 24.5c21.333 0 45.166 -1.5 71.499 -4.5s53.5 -9.5 81.5 -19.5
c-3.33301 -16.667 -6.83301 -33.167 -10.5 -49.5l-11.5 -50.5c-21.333 6 -40.833 9.83301 -58.5 11.5s-33.834 2.5 -48.501 2.5c-40 0 -70.333 -12.833 -91 -38.5s-31 -61.5 -31 -107.5z" />
    <glyph glyph-name="egrave" unicode="&#xe8;" horiz-adv-x="544" 
d="M280 504c52.667 0 93.999 -8.33105 123.999 -24.998s52.5 -37.334 67.5 -62.001s24.333 -50.834 28 -78.501s5.5 -52.5 5.5 -74.5v-51h-321c0 -38 9.5 -66.667 28.5 -86s50.5 -29 94.5 -29c26.667 0 53.334 2.83301 80.001 8.5s52.667 13.167 78 22.5l29 -88
c-32.667 -18 -67 -30.667 -103 -38s-71 -11 -105 -11c-49.333 0 -90 6.83301 -122 20.5s-57.167 32.167 -75.5 55.5s-31 50.166 -38 80.499s-10.5 62.5 -10.5 96.5c0 26.667 3.33301 55.334 10 86.001s19 58.667 37 84s42.5 46.5 73.5 63.5s70.833 25.5 119.5 25.5z
M285.999 413.002c-18 0 -33 -2.99902 -45 -8.99902s-21.833 -14.167 -29.5 -24.5s-13.5 -22.333 -17.5 -36s-6.66699 -27.834 -8 -42.501h189c-0.666992 32.667 -7.16699 59.5 -19.5 80.5s-35.5 31.5 -69.5 31.5zM139.999 668.003l17 19l22.5 25l22.5 25
c7.33301 8 13.333 14.333 18 19c8 -10 18.667 -22.5 32 -37.5l42 -46l42 -46l33 -37.5l-53 -58z" />
    <glyph glyph-name="eacute" unicode="&#xe9;" horiz-adv-x="544" 
d="M280 504c52.667 0 93.999 -8.33105 123.999 -24.998s52.5 -37.334 67.5 -62.001s24.333 -50.834 28 -78.501s5.5 -52.5 5.5 -74.5v-51h-321c0 -38 9.5 -66.667 28.5 -86s50.5 -29 94.5 -29c26.667 0 53.334 2.83301 80.001 8.5s52.667 13.167 78 22.5l29 -88
c-32.667 -18 -67 -30.667 -103 -38s-71 -11 -105 -11c-49.333 0 -90 6.83301 -122 20.5s-57.167 32.167 -75.5 55.5s-31 50.166 -38 80.499s-10.5 62.5 -10.5 96.5c0 26.667 3.33301 55.334 10 86.001s19 58.667 37 84s42.5 46.5 73.5 63.5s70.833 25.5 119.5 25.5z
M285.999 413.002c-18 0 -33 -2.99902 -45 -8.99902s-21.833 -14.167 -29.5 -24.5s-13.5 -22.333 -17.5 -36s-6.66699 -27.834 -8 -42.501h189c-0.666992 32.667 -7.16699 59.5 -19.5 80.5s-35.5 31.5 -69.5 31.5zM262.999 532.003l-50 52l148 170l76 -82z" />
    <glyph glyph-name="ecircumflex" unicode="&#xea;" horiz-adv-x="544" 
d="M280 504c52.667 0 93.999 -8.33105 123.999 -24.998s52.5 -37.334 67.5 -62.001s24.333 -50.834 28 -78.501s5.5 -52.5 5.5 -74.5v-51h-321c0 -38 9.5 -66.667 28.5 -86s50.5 -29 94.5 -29c26.667 0 53.334 2.83301 80.001 8.5s52.667 13.167 78 22.5l29 -88
c-32.667 -18 -67 -30.667 -103 -38s-71 -11 -105 -11c-49.333 0 -90 6.83301 -122 20.5s-57.167 32.167 -75.5 55.5s-31 50.166 -38 80.499s-10.5 62.5 -10.5 96.5c0 26.667 3.33301 55.334 10 86.001s19 58.667 37 84s42.5 46.5 73.5 63.5s70.833 25.5 119.5 25.5z
M285.999 413.002c-18 0 -33 -2.99902 -45 -8.99902s-21.833 -14.167 -29.5 -24.5s-13.5 -22.333 -17.5 -36s-6.66699 -27.834 -8 -42.501h189c-0.666992 32.667 -7.16699 59.5 -19.5 80.5s-35.5 31.5 -69.5 31.5zM452.999 530.003l-165 95l-164 -96l-33 41l154 154h88
l156 -152z" />
    <glyph glyph-name="edieresis" unicode="&#xeb;" horiz-adv-x="544" 
d="M280 504c52.667 0 93.999 -8.33105 123.999 -24.998s52.5 -37.334 67.5 -62.001s24.333 -50.834 28 -78.501s5.5 -52.5 5.5 -74.5v-51h-321c0 -38 9.5 -66.667 28.5 -86s50.5 -29 94.5 -29c26.667 0 53.334 2.83301 80.001 8.5s52.667 13.167 78 22.5l29 -88
c-32.667 -18 -67 -30.667 -103 -38s-71 -11 -105 -11c-49.333 0 -90 6.83301 -122 20.5s-57.167 32.167 -75.5 55.5s-31 50.166 -38 80.499s-10.5 62.5 -10.5 96.5c0 26.667 3.33301 55.334 10 86.001s19 58.667 37 84s42.5 46.5 73.5 63.5s70.833 25.5 119.5 25.5z
M285.999 413.002c-18 0 -33 -2.99902 -45 -8.99902s-21.833 -14.167 -29.5 -24.5s-13.5 -22.333 -17.5 -36s-6.66699 -27.834 -8 -42.501h189c-0.666992 32.667 -7.16699 59.5 -19.5 80.5s-35.5 31.5 -69.5 31.5zM249.999 623.003c0 -17.333 -6 -32 -18 -44
s-29.667 -18 -53 -18c-22.667 0 -39.667 6 -51 18s-17 26.667 -17 44c0 18 5.83301 32.833 17.5 44.5s28.5 17.5 50.5 17.5c23.333 0 41 -5.66699 53 -17s18 -26.333 18 -45zM460.999 623.003c0 -17.333 -6 -32 -18 -44s-29.667 -18 -53 -18c-22 0 -38.667 6 -50 18
s-17 26.667 -17 44c0 18 5.83301 32.833 17.5 44.5s28.167 17.5 49.5 17.5c23.333 0 41 -5.66699 53 -17s18 -26.333 18 -45z" />
    <glyph glyph-name="igrave" unicode="&#xec;" horiz-adv-x="299" 
d="M77 0v491h143v-491h-143zM-3 668l17 19l22.5 25l22.5 25c7.33301 8 13.333 14.333 18 19c8 -10 18.667 -22.5 32 -37.5l42 -46l42 -46l33 -37.5l-53 -58z" />
    <glyph glyph-name="iacute" unicode="&#xed;" horiz-adv-x="299" 
d="M77 0v491h143v-491h-143zM145 532l-50 52l148 170l76 -82z" />
    <glyph glyph-name="icircumflex" unicode="&#xee;" horiz-adv-x="299" 
d="M77 0v491h143v-491h-143zM312 530l-165 95l-164 -96l-33 41l154 154h88l156 -152z" />
    <glyph glyph-name="idieresis" unicode="&#xef;" horiz-adv-x="299" 
d="M77 0v491h143v-491h-143zM115 625c0 -17.333 -6 -32 -18 -44s-29.667 -18 -53 -18c-22.667 0 -39.667 6 -51 18s-17 26.667 -17 44c0 18 5.83301 32.833 17.5 44.5s28.5 17.5 50.5 17.5c23.333 0 41 -5.66699 53 -17s18 -26.333 18 -45zM326 625
c0 -17.333 -6 -32 -18 -44s-29.667 -18 -53 -18c-22 0 -38.667 6 -50 18s-17 26.667 -17 44c0 18 5.83301 32.833 17.5 44.5s28.167 17.5 49.5 17.5c23.333 0 41 -5.66699 53 -17s18 -26.333 18 -45z" />
    <glyph glyph-name="eth" unicode="&#xf0;" horiz-adv-x="578" 
d="M445 717l29 -41l-75 -49c49.333 -46 85.5 -99.333 108.5 -160s32.5 -128.667 28.5 -204c-1.33301 -29.333 -5.83301 -60.166 -13.5 -92.499s-21 -61.833 -40 -88.5s-44.833 -48.667 -77.5 -66s-74 -26 -124 -26c-47.333 0 -86.333 7 -117 21s-55.167 32.167 -73.5 54.5
s-31.166 47.333 -38.499 75s-11 54.834 -11 81.501c0 31.333 5.16699 61.333 15.5 90s25.333 54 45 76s43.667 39.667 72 53s60.5 20 96.5 20c16 0 33.667 -1.66699 53 -5s38.333 -10 57 -20c-14.667 49.333 -38 92.666 -70 129.999l-89 -59l-28 41l81 53
c-13.333 13.333 -27.833 25.666 -43.5 36.999s-31.834 22.333 -48.501 33l38 70c50.667 -21.333 97 -49 139 -83zM290 366c-20.667 0 -37.833 -4.1709 -51.5 -12.5039s-24.667 -19.166 -33 -32.499s-14.333 -28.166 -18 -44.499s-5.5 -32.5 -5.5 -48.5
c0 -15.333 1.16699 -31.166 3.5 -47.499s7.16602 -31.333 14.499 -45s17.833 -25 31.5 -34s32.167 -13.5 55.5 -13.5c22.667 0 41.334 5.5 56.001 16.5s26 24.833 34 41.5s13.5 34.834 16.5 54.501s4.5 38.167 4.5 55.5c0 14 -0.666992 27.167 -2 39.5
s-3.33301 25.833 -6 40.5c-18.667 12 -36.5 20 -53.5 24s-32.5 6 -46.5 6z" />
    <glyph glyph-name="ntilde" unicode="&#xf1;" horiz-adv-x="569" 
d="M375 0v304c0 12.667 -0.666992 24.334 -2 35.001s-4.5 20 -9.5 28s-12.167 14.167 -21.5 18.5s-21.666 6.5 -36.999 6.5c-16.667 0 -35.334 -3.66699 -56.001 -11s-39.334 -16 -56.001 -26v-355h-144v491h136l2 -45l4 -2c28.667 19.333 58.834 34 90.501 44
s59.167 15 82.5 15c32.667 0 59 -4.5 79 -13.5s35.5 -21.167 46.5 -36.5s18.5 -33.333 22.5 -54s6 -42.334 6 -65.001v-334h-143zM357 576c-16.667 0 -33.168 2 -49.501 6s-32 8.5 -47 13.5l-42 13.5c-13 4 -24.5 6 -34.5 6l-56 -39l-41 32c11.333 32 25.833 55.333 43.5 70
s37.5 22 59.5 22c14 0 28.5 -2 43.5 -6s30 -8.33301 45 -13s29.667 -9 44 -13s27.5 -6 39.5 -6l56 41l41 -33c-10 -30 -23.667 -53.167 -41 -69.5s-37.666 -24.5 -60.999 -24.5z" />
    <glyph glyph-name="ograve" unicode="&#xf2;" horiz-adv-x="577" 
d="M537 246c0 -34 -4.33398 -66.498 -13.001 -97.498s-23 -58.333 -43 -82s-46 -42.334 -78 -56.001s-71.333 -20.5 -118 -20.5c-45.333 0 -83.666 6.66699 -114.999 20s-56.666 31.5 -75.999 54.5s-33.166 50 -41.499 81s-12.5 64.167 -12.5 99.5
c0 34.667 4.66699 67.5 14 98.5s24 58.167 44 81.5s45.833 42 77.5 56s70.167 21 115.5 21c46 0 84.667 -6.83301 116 -20.5s56.666 -32.334 75.999 -56.001s33.166 -51 41.499 -82s12.5 -63.5 12.5 -97.5zM388.999 245.002c0 19.333 -1.33301 38.335 -4 57.002
s-7.5 35.334 -14.5 50.001s-16.833 26.5 -29.5 35.5s-29.334 13.5 -50.001 13.5s-37.667 -4.5 -51 -13.5s-24 -20.833 -32 -35.5s-13.5 -31.334 -16.5 -50.001s-4.5 -37.667 -4.5 -57c0 -22 1.33301 -42.333 4 -61s7.83398 -34.834 15.501 -48.501s18.167 -24.5 31.5 -32.5
s31 -12 53 -12c20 0 36.5 4.16699 49.5 12.5s23 19.666 30 33.999s11.833 30.833 14.5 49.5s4 38 4 58zM140.999 668.004l17 19l22.5 25l22.5 25c7.33301 8 13.333 14.333 18 19c8 -10 18.667 -22.5 32 -37.5l42 -46l42 -46l33 -37.5l-53 -58z" />
    <glyph glyph-name="oacute" unicode="&#xf3;" horiz-adv-x="577" 
d="M537 246c0 -34 -4.33398 -66.498 -13.001 -97.498s-23 -58.333 -43 -82s-46 -42.334 -78 -56.001s-71.333 -20.5 -118 -20.5c-45.333 0 -83.666 6.66699 -114.999 20s-56.666 31.5 -75.999 54.5s-33.166 50 -41.499 81s-12.5 64.167 -12.5 99.5
c0 34.667 4.66699 67.5 14 98.5s24 58.167 44 81.5s45.833 42 77.5 56s70.167 21 115.5 21c46 0 84.667 -6.83301 116 -20.5s56.666 -32.334 75.999 -56.001s33.166 -51 41.499 -82s12.5 -63.5 12.5 -97.5zM388.999 245.002c0 19.333 -1.33301 38.335 -4 57.002
s-7.5 35.334 -14.5 50.001s-16.833 26.5 -29.5 35.5s-29.334 13.5 -50.001 13.5s-37.667 -4.5 -51 -13.5s-24 -20.833 -32 -35.5s-13.5 -31.334 -16.5 -50.001s-4.5 -37.667 -4.5 -57c0 -22 1.33301 -42.333 4 -61s7.83398 -34.834 15.501 -48.501s18.167 -24.5 31.5 -32.5
s31 -12 53 -12c20 0 36.5 4.16699 49.5 12.5s23 19.666 30 33.999s11.833 30.833 14.5 49.5s4 38 4 58zM286.999 532.004l-50 52l148 170l76 -82z" />
    <glyph glyph-name="ocircumflex" unicode="&#xf4;" horiz-adv-x="577" 
d="M537 246c0 -34 -4.33398 -66.498 -13.001 -97.498s-23 -58.333 -43 -82s-46 -42.334 -78 -56.001s-71.333 -20.5 -118 -20.5c-45.333 0 -83.666 6.66699 -114.999 20s-56.666 31.5 -75.999 54.5s-33.166 50 -41.499 81s-12.5 64.167 -12.5 99.5
c0 34.667 4.66699 67.5 14 98.5s24 58.167 44 81.5s45.833 42 77.5 56s70.167 21 115.5 21c46 0 84.667 -6.83301 116 -20.5s56.666 -32.334 75.999 -56.001s33.166 -51 41.499 -82s12.5 -63.5 12.5 -97.5zM388.999 245.002c0 19.333 -1.33301 38.335 -4 57.002
s-7.5 35.334 -14.5 50.001s-16.833 26.5 -29.5 35.5s-29.334 13.5 -50.001 13.5s-37.667 -4.5 -51 -13.5s-24 -20.833 -32 -35.5s-13.5 -31.334 -16.5 -50.001s-4.5 -37.667 -4.5 -57c0 -22 1.33301 -42.333 4 -61s7.83398 -34.834 15.501 -48.501s18.167 -24.5 31.5 -32.5
s31 -12 53 -12c20 0 36.5 4.16699 49.5 12.5s23 19.666 30 33.999s11.833 30.833 14.5 49.5s4 38 4 58zM455.999 530.004l-165 95l-164 -96l-33 41l154 154h88l156 -152z" />
    <glyph glyph-name="otilde" unicode="&#xf5;" horiz-adv-x="577" 
d="M537 246c0 -34 -4.33398 -66.498 -13.001 -97.498s-23 -58.333 -43 -82s-46 -42.334 -78 -56.001s-71.333 -20.5 -118 -20.5c-45.333 0 -83.666 6.66699 -114.999 20s-56.666 31.5 -75.999 54.5s-33.166 50 -41.499 81s-12.5 64.167 -12.5 99.5
c0 34.667 4.66699 67.5 14 98.5s24 58.167 44 81.5s45.833 42 77.5 56s70.167 21 115.5 21c46 0 84.667 -6.83301 116 -20.5s56.666 -32.334 75.999 -56.001s33.166 -51 41.499 -82s12.5 -63.5 12.5 -97.5zM388.999 245.002c0 19.333 -1.33301 38.335 -4 57.002
s-7.5 35.334 -14.5 50.001s-16.833 26.5 -29.5 35.5s-29.334 13.5 -50.001 13.5s-37.667 -4.5 -51 -13.5s-24 -20.833 -32 -35.5s-13.5 -31.334 -16.5 -50.001s-4.5 -37.667 -4.5 -57c0 -22 1.33301 -42.333 4 -61s7.83398 -34.834 15.501 -48.501s18.167 -24.5 31.5 -32.5
s31 -12 53 -12c20 0 36.5 4.16699 49.5 12.5s23 19.666 30 33.999s11.833 30.833 14.5 49.5s4 38 4 58zM374.999 563.004c-16.667 0 -33.168 2 -49.501 6s-32 8.5 -47 13.5l-42 13.5c-13 4 -24.5 6 -34.5 6l-56 -39l-41 32c11.333 32 25.833 55.333 43.5 70s37.5 22 59.5 22
c14 0 28.5 -2 43.5 -6s30 -8.33301 45 -13s29.667 -9 44 -13s27.5 -6 39.5 -6l56 41l41 -33c-10 -30 -23.667 -53.167 -41 -69.5s-37.666 -24.5 -60.999 -24.5z" />
    <glyph glyph-name="odieresis" unicode="&#xf6;" horiz-adv-x="577" 
d="M537 246c0 -34 -4.33398 -66.498 -13.001 -97.498s-23 -58.333 -43 -82s-46 -42.334 -78 -56.001s-71.333 -20.5 -118 -20.5c-45.333 0 -83.666 6.66699 -114.999 20s-56.666 31.5 -75.999 54.5s-33.166 50 -41.499 81s-12.5 64.167 -12.5 99.5
c0 34.667 4.66699 67.5 14 98.5s24 58.167 44 81.5s45.833 42 77.5 56s70.167 21 115.5 21c46 0 84.667 -6.83301 116 -20.5s56.666 -32.334 75.999 -56.001s33.166 -51 41.499 -82s12.5 -63.5 12.5 -97.5zM388.999 245.002c0 19.333 -1.33301 38.335 -4 57.002
s-7.5 35.334 -14.5 50.001s-16.833 26.5 -29.5 35.5s-29.334 13.5 -50.001 13.5s-37.667 -4.5 -51 -13.5s-24 -20.833 -32 -35.5s-13.5 -31.334 -16.5 -50.001s-4.5 -37.667 -4.5 -57c0 -22 1.33301 -42.333 4 -61s7.83398 -34.834 15.501 -48.501s18.167 -24.5 31.5 -32.5
s31 -12 53 -12c20 0 36.5 4.16699 49.5 12.5s23 19.666 30 33.999s11.833 30.833 14.5 49.5s4 38 4 58zM254.999 623.004c0 -17.333 -6 -32 -18 -44s-29.667 -18 -53 -18c-22.667 0 -39.667 6 -51 18s-17 26.667 -17 44c0 18 5.83301 32.833 17.5 44.5s28.5 17.5 50.5 17.5
c23.333 0 41 -5.66699 53 -17s18 -26.333 18 -45zM465.999 623.004c0 -17.333 -6 -32 -18 -44s-29.667 -18 -53 -18c-22 0 -38.667 6 -50 18s-17 26.667 -17 44c0 18 5.83301 32.833 17.5 44.5s28.167 17.5 49.5 17.5c23.333 0 41 -5.66699 53 -17s18 -26.333 18 -45z" />
    <glyph glyph-name="divide" unicode="&#xf7;" horiz-adv-x="590" 
d="M361 475c0 -18.667 -6.50098 -34.5 -19.501 -47.5s-28.167 -19.5 -45.5 -19.5c-18.667 0 -34.5 6.66699 -47.5 20s-19.5 29 -19.5 47s6.5 33.333 19.5 46s28.5 19 46.5 19c18.667 0 34.334 -6.33301 47.001 -19s19 -28 19 -46zM85.999 261v83h418v-83h-418zM360.999 131
c0 -18 -6.50098 -33.5 -19.501 -46.5s-28.167 -19.5 -45.5 -19.5c-18.667 0 -34.5 6.5 -47.5 19.5s-19.5 28.5 -19.5 46.5c0 18.667 6.5 34.167 19.5 46.5s28.5 18.5 46.5 18.5c18.667 0 34.334 -6.16699 47.001 -18.5s19 -27.833 19 -46.5z" />
    <glyph glyph-name="oslash" unicode="&#xf8;" horiz-adv-x="566" 
d="M531 246c0 -34 -4.33008 -66.5 -12.9971 -97.5s-22.834 -58.167 -42.501 -81.5s-45.667 -41.833 -78 -55.5s-71.833 -20.5 -118.5 -20.5c-34 0 -63.833 3.66699 -89.5 11s-47.834 17.666 -66.501 30.999l-33 -40h-55l58 65c-21.333 23.333 -36.333 51 -45 83
s-13 66.667 -13 104c0 34.667 4.5 67.5 13.5 98.5s23.5 58.167 43.5 81.5s45.833 42 77.5 56s70.167 21 115.5 21c34 0 63.833 -4 89.5 -12s48.167 -19 67.5 -33l19 21.5c8.66699 9.66699 14.667 17.167 18 22.5h52c-2.66699 -3.33301 -6.83398 -8.16602 -12.501 -14.499
l-17.5 -20l-17 -20l-12 -14.5c21.333 -24 36.5 -52 45.5 -84s13.5 -66 13.5 -102zM285.003 91c20.667 0 37.333 4.16797 50 12.501s22.667 19.666 30 33.999s12.333 30.833 15 49.5s4 38 4 58c0 12 -1 25.5 -3 40.5s-5.66699 28.167 -11 39.5l-37 -47.5l-43.5 -54l-43.5 -54
l-37 -47.5c8 -9.33301 18 -16.833 30 -22.5s27.333 -8.5 46 -8.5zM285.002 400.001c-20.667 0 -37.668 -4.33203 -51.001 -12.999s-23.833 -20.167 -31.5 -34.5s-13 -30.833 -16 -49.5s-4.5 -37.667 -4.5 -57c0 -12.667 0.833008 -26.834 2.5 -42.501
s4.83398 -28.5 9.50098 -38.5l37 47l43.5 53.5l43.5 53.5l37 47c-7.33301 10.667 -16.5 19 -27.5 25s-25.167 9 -42.5 9z" />
    <glyph glyph-name="ugrave" unicode="&#xf9;" horiz-adv-x="558" 
d="M199 -11c-32.667 0 -58.832 4.33105 -78.499 12.998s-34.834 20.667 -45.501 36s-17.667 33 -21 53s-5 41.667 -5 65v335h143v-304c0 -12 0.666992 -23.333 2 -34s4.33301 -20 9 -28s11.334 -14.333 20.001 -19s20.667 -7 36 -7c14 0 30.5 3.66699 49.5 11
s37.5 19 55.5 35v346c24 0 47.833 0.166992 71.5 0.5s47.5 0.5 71.5 0.5v-492h-133c-1.33301 8.66699 -2 17.334 -2 26.001s-0.666992 17.667 -2 27l-4 2c-15.333 -13.333 -30.833 -24.166 -46.5 -32.499s-30.834 -15 -45.501 -20s-28.5 -8.5 -41.5 -10.5
s-24.167 -3 -33.5 -3zM140.002 667.998l17 19l22.5 25l22.5 25c7.33301 8 13.333 14.333 18 19c8 -10 18.667 -22.5 32 -37.5l42 -46l42 -46l33 -37.5l-53 -58z" />
    <glyph glyph-name="uacute" unicode="&#xfa;" horiz-adv-x="558" 
d="M199 -11c-32.667 0 -58.832 4.33105 -78.499 12.998s-34.834 20.667 -45.501 36s-17.667 33 -21 53s-5 41.667 -5 65v335h143v-304c0 -12 0.666992 -23.333 2 -34s4.33301 -20 9 -28s11.334 -14.333 20.001 -19s20.667 -7 36 -7c14 0 30.5 3.66699 49.5 11
s37.5 19 55.5 35v346c24 0 47.833 0.166992 71.5 0.5s47.5 0.5 71.5 0.5v-492h-133c-1.33301 8.66699 -2 17.334 -2 26.001s-0.666992 17.667 -2 27l-4 2c-15.333 -13.333 -30.833 -24.166 -46.5 -32.499s-30.834 -15 -45.501 -20s-28.5 -8.5 -41.5 -10.5
s-24.167 -3 -33.5 -3zM273.002 531.998l-50 52l148 170l76 -82z" />
    <glyph glyph-name="ucircumflex" unicode="&#xfb;" horiz-adv-x="558" 
d="M199 -11c-32.667 0 -58.832 4.33105 -78.499 12.998s-34.834 20.667 -45.501 36s-17.667 33 -21 53s-5 41.667 -5 65v335h143v-304c0 -12 0.666992 -23.333 2 -34s4.33301 -20 9 -28s11.334 -14.333 20.001 -19s20.667 -7 36 -7c14 0 30.5 3.66699 49.5 11
s37.5 19 55.5 35v346c24 0 47.833 0.166992 71.5 0.5s47.5 0.5 71.5 0.5v-492h-133c-1.33301 8.66699 -2 17.334 -2 26.001s-0.666992 17.667 -2 27l-4 2c-15.333 -13.333 -30.833 -24.166 -46.5 -32.499s-30.834 -15 -45.501 -20s-28.5 -8.5 -41.5 -10.5
s-24.167 -3 -33.5 -3zM441.002 529.998l-165 95l-164 -96l-33 41l154 154h88l156 -152z" />
    <glyph glyph-name="udieresis" unicode="&#xfc;" horiz-adv-x="558" 
d="M199 -11c-32.667 0 -58.832 4.33105 -78.499 12.998s-34.834 20.667 -45.501 36s-17.667 33 -21 53s-5 41.667 -5 65v335h143v-304c0 -12 0.666992 -23.333 2 -34s4.33301 -20 9 -28s11.334 -14.333 20.001 -19s20.667 -7 36 -7c14 0 30.5 3.66699 49.5 11
s37.5 19 55.5 35v346c24 0 47.833 0.166992 71.5 0.5s47.5 0.5 71.5 0.5v-492h-133c-1.33301 8.66699 -2 17.334 -2 26.001s-0.666992 17.667 -2 27l-4 2c-15.333 -13.333 -30.833 -24.166 -46.5 -32.499s-30.834 -15 -45.501 -20s-28.5 -8.5 -41.5 -10.5
s-24.167 -3 -33.5 -3zM245.002 624.998c0 -17.333 -6 -32 -18 -44s-29.667 -18 -53 -18c-22.667 0 -39.667 6 -51 18s-17 26.667 -17 44c0 18 5.83301 32.833 17.5 44.5s28.5 17.5 50.5 17.5c23.333 0 41 -5.66699 53 -17s18 -26.333 18 -45zM456.002 624.998
c0 -17.333 -6 -32 -18 -44s-29.667 -18 -53 -18c-22 0 -38.667 6 -50 18s-17 26.667 -17 44c0 18 5.83301 32.833 17.5 44.5s28.167 17.5 49.5 17.5c23.333 0 41 -5.66699 53 -17s18 -26.333 18 -45z" />
    <glyph glyph-name="yacute" unicode="&#xfd;" horiz-adv-x="536" 
d="M268 89l10.501 43.5c5 20.333 10.833 41.833 17.5 64.5l20 68l22.5 78.5l23 79l20.5 68.5h144l-27.5 -82.5l-33.5 -100.5l-37 -109.5l-37 -109.5l-34 -100l-28 -82c-14 -42 -35.333 -73.167 -64 -93.5s-63.667 -30.5 -105 -30.5c-13.333 0 -29.333 1.16699 -48 3.5
s-43.334 7.5 -74.001 15.5l20 95l41.5 -6.5c10.333 -1.66699 20.166 -2.5 29.499 -2.5c22.667 0 40 4.33301 52 13s21.667 24.667 29 48l20 62h-64l-152 480h142c5.33301 -18 11.5 -40 18.5 -66l22 -80.5l22.5 -81.5l19 -69c5.33301 -19.333 9.83301 -38.833 13.5 -58.5
s6.83398 -35.167 9.50098 -46.5h7zM253.001 532l-50 52l148 170l76 -82z" />
    <glyph glyph-name="thorn" unicode="&#xfe;" horiz-adv-x="575" 
d="M49 687l137.004 0.00195312v-243c1.33301 0 2 -0.166992 2 -0.5s0.666992 -0.833008 2 -1.5c23.333 19.333 48.166 33.666 74.499 42.999s51.166 14 74.499 14c38 0 69.5 -6.66699 94.5 -20s45 -31.333 60 -54s25.5 -49.167 31.5 -79.5s9 -62.5 9 -96.5
c0 -37.333 -3.83301 -71.833 -11.5 -103.5s-20 -59 -37 -82s-38.833 -41 -65.5 -54s-59.334 -19.5 -98.001 -19.5c-8 0 -17.5 0.5 -28.5 1.5s-22.333 2.83301 -34 5.5s-23.334 5.66699 -35.001 9s-22.5 7.66602 -32.5 12.999c0 -37.333 -0.166992 -75 -0.5 -113
s-0.5 -76 -0.5 -114h-142v895zM192.004 120.002c11.333 -7.33301 26.3301 -13.6699 44.9971 -19.0029s36.667 -8 54 -8c12 0 24 2.33301 36 7s22.667 13.167 32 25.5s16.833 28.833 22.5 49.5s8.5 47 8.5 79c0 28.667 -2.5 52.334 -7.5 71.001s-11.833 33.167 -20.5 43.5
s-19 17.5 -31 21.5s-24.667 6 -38 6c-7.33301 0 -15.666 -1.16699 -24.999 -3.5s-18.666 -5.16602 -27.999 -8.49902s-18.166 -7.16602 -26.499 -11.499s-15.5 -8.83301 -21.5 -13.5v-239z" />
    <glyph glyph-name="ydieresis" unicode="&#xff;" horiz-adv-x="536" 
d="M268 89l10.501 43.5c5 20.333 10.833 41.833 17.5 64.5l20 68l22.5 78.5l23 79l20.5 68.5h144l-27.5 -82.5l-33.5 -100.5l-37 -109.5l-37 -109.5l-34 -100l-28 -82c-14 -42 -35.333 -73.167 -64 -93.5s-63.667 -30.5 -105 -30.5c-13.333 0 -29.333 1.16699 -48 3.5
s-43.334 7.5 -74.001 15.5l20 95l41.5 -6.5c10.333 -1.66699 20.166 -2.5 29.499 -2.5c22.667 0 40 4.33301 52 13s21.667 24.667 29 48l20 62h-64l-152 480h142c5.33301 -18 11.5 -40 18.5 -66l22 -80.5l22.5 -81.5l19 -69c5.33301 -19.333 9.83301 -38.833 13.5 -58.5
s6.83398 -35.167 9.50098 -46.5h7zM236.001 623c0 -17.333 -6 -32 -18 -44s-29.667 -18 -53 -18c-22.667 0 -39.667 6 -51 18s-17 26.667 -17 44c0 18 5.83301 32.833 17.5 44.5s28.5 17.5 50.5 17.5c23.333 0 41 -5.66699 53 -17s18 -26.333 18 -45zM447.001 623
c0 -17.333 -6 -32 -18 -44s-29.667 -18 -53 -18c-22 0 -38.667 6 -50 18s-17 26.667 -17 44c0 18 5.83301 32.833 17.5 44.5s28.167 17.5 49.5 17.5c23.333 0 41 -5.66699 53 -17s18 -26.333 18 -45z" />
    <glyph glyph-name="Amacron" unicode="&#x100;" horiz-adv-x="664" 
d="M503 0l-48 157h-251l-49 -157h-147l234 687h186l227 -687h-152zM374 438l-40 149h-5l-42 -154l-51 -176h189zM158 839h354v-91h-354v91z" />
    <glyph glyph-name="amacron" unicode="&#x101;" horiz-adv-x="579" 
d="M484 95l63.999 0.00292969l7 -80c-16 -7.33301 -34.667 -13.333 -56 -18s-42.666 -7 -63.999 -7s-39.166 3.66699 -53.499 11s-22.833 23.333 -25.5 48l-2 2c-17.333 -15.333 -34.666 -27 -51.999 -35s-33.5 -14 -48.5 -18s-28.667 -6.33301 -41 -7s-21.833 -1 -28.5 -1
c-30.667 0 -55.834 4.83301 -75.501 14.5s-35.167 21.667 -46.5 36s-19.166 29.833 -23.499 46.5s-6.5 32 -6.5 46c0 25.333 4.66699 47.5 14 66.5s22.166 35 38.499 48s35.5 23.167 57.5 30.5s46 11.666 72 12.999c19.333 1.33301 41.666 2.66602 66.999 3.99902
s47.666 2.66602 66.999 3.99902v12c0 28 -6 49.167 -18 63.5s-36.333 21.5 -73 21.5c-24 0 -50.167 -2.33301 -78.5 -7s-54.166 -10.667 -77.499 -18c-3.33301 15.333 -7 30.333 -11 45l-12 44c29.333 12.667 63.333 22.667 102 30s75.667 11 111 11c29.333 0 56 -3 80 -9
s44.333 -15.667 61 -29s29.5 -30.833 38.5 -52.5s13.5 -48.5 13.5 -80.5v-235zM98.999 674.003h363v-91h-363v91zM248.999 212.003c-46 -4 -69 -26.332 -69 -66.999c0 -20.667 5.33301 -36.334 16 -47.001s27.667 -16 51 -16c15.333 0 32 3.83301 50 11.5s35 18.5 51 32.5
v94z" />
    <glyph glyph-name="Abreve" unicode="&#x102;" horiz-adv-x="664" 
d="M503 0l-48 157h-251l-49 -157h-147l234 687h186l227 -687h-152zM374 438l-40 149h-5l-42 -154l-51 -176h189zM329 732c-20 0 -38.6709 3.50195 -56.0039 10.502s-33.5 16.333 -48.5 28s-29.167 25.334 -42.5 41.001s-25.666 32.167 -36.999 49.5l58 44
c20.667 -28 42.834 -49.167 66.501 -63.5s44.834 -21.5 63.501 -21.5c6 0 13.5 0.5 22.5 1.5s19.833 4.16699 32.5 9.5s26.834 13.166 42.501 23.499s33.5 25.166 53.5 44.499l38 -38c-31.333 -48.667 -63.833 -82.334 -97.5 -101.001s-65.5 -28 -95.5 -28z" />
    <glyph glyph-name="abreve" unicode="&#x103;" horiz-adv-x="579" 
d="M484 95l63.999 0.00292969l7 -80c-16 -7.33301 -34.667 -13.333 -56 -18s-42.666 -7 -63.999 -7s-39.166 3.66699 -53.499 11s-22.833 23.333 -25.5 48l-2 2c-17.333 -15.333 -34.666 -27 -51.999 -35s-33.5 -14 -48.5 -18s-28.667 -6.33301 -41 -7s-21.833 -1 -28.5 -1
c-30.667 0 -55.834 4.83301 -75.501 14.5s-35.167 21.667 -46.5 36s-19.166 29.833 -23.499 46.5s-6.5 32 -6.5 46c0 25.333 4.66699 47.5 14 66.5s22.166 35 38.499 48s35.5 23.167 57.5 30.5s46 11.666 72 12.999c19.333 1.33301 41.666 2.66602 66.999 3.99902
s47.666 2.66602 66.999 3.99902v12c0 28 -6 49.167 -18 63.5s-36.333 21.5 -73 21.5c-24 0 -50.167 -2.33301 -78.5 -7s-54.166 -10.667 -77.499 -18c-3.33301 15.333 -7 30.333 -11 45l-12 44c29.333 12.667 63.333 22.667 102 30s75.667 11 111 11c29.333 0 56 -3 80 -9
s44.333 -15.667 61 -29s29.5 -30.833 38.5 -52.5s13.5 -48.5 13.5 -80.5v-235zM276.999 547.003c-20 0 -38.833 3.66797 -56.5 11.001s-34.167 17.166 -49.5 29.499s-29.666 26.333 -42.999 42s-25.666 32.167 -36.999 49.5l60 45c21.333 -28.667 43.666 -50 66.999 -64
s44 -21 62 -21c6 0 13.5 0.333008 22.5 1s19.5 3.5 31.5 8.5s26 12.667 42 23s34.667 25.5 56 45.5l43 -39c-16 -24.667 -32.5 -45.334 -49.5 -62.001s-34 -30.167 -51 -40.5s-33.833 -17.666 -50.5 -21.999s-32.334 -6.5 -47.001 -6.5zM248.999 212.004
c-46 -4 -69 -26.332 -69 -66.999c0 -20.667 5.33301 -36.334 16 -47.001s27.667 -16 51 -16c15.333 0 32 3.83301 50 11.5s35 18.5 51 32.5v94z" />
    <glyph glyph-name="Aogonek" unicode="&#x104;" horiz-adv-x="664" 
d="M553 0c-13.333 -19.333 -23.3311 -39.332 -29.998 -59.999s-10 -38.667 -10 -54c0 -16.667 4.5 -28.5 13.5 -35.5s22.167 -10.5 39.5 -10.5c13.333 0 25.666 1.16699 36.999 3.5s22.666 4.83301 33.999 7.5l12 -46c-19.333 -10 -39.333 -17.5 -60 -22.5
s-41 -7.5 -61 -7.5c-35.333 0 -62 7.16699 -80 21.5s-27 34.166 -27 59.499c0 18.667 5.16699 41.667 15.5 69s31.5 55.333 63.5 84l-45 148h-251l-49 -157h-147l234 687h186l227 -687h-102zM374.002 438.001l-40 149h-5l-42 -154l-51 -176h189z" />
    <glyph glyph-name="aogonek" unicode="&#x105;" horiz-adv-x="579" 
d="M484 95l64.0029 0.00488281l7 -80c-13.333 -6 -28.333 -11.167 -45 -15.5s-33.667 -7.16602 -51 -8.49902c-10 -17.333 -17.5 -34.833 -22.5 -52.5s-7.5 -33.167 -7.5 -46.5c0 -16.667 4.5 -28.5 13.5 -35.5s22.167 -10.5 39.5 -10.5c13.333 0 25.666 1.16699 36.999 3.5
s22.666 4.83301 33.999 7.5l12 -46c-19.333 -10 -39.333 -17.5 -60 -22.5s-41 -7.5 -61 -7.5c-35.333 0 -62 7.16699 -80 21.5s-27 34.166 -27 59.499c0 16.667 3.83301 36.667 11.5 60s23.167 47.666 46.5 72.999c-10.667 3.33301 -19.5 9.16602 -26.5 17.499
s-11.167 20.5 -12.5 36.5l-2 2c-17.333 -15.333 -34.666 -27 -51.999 -35s-33.5 -14 -48.5 -18s-28.667 -6.33301 -41 -7s-21.833 -1 -28.5 -1c-30.667 0 -55.834 4.83301 -75.501 14.5s-35.167 21.667 -46.5 36s-19.166 29.833 -23.499 46.5s-6.5 32 -6.5 46
c0 25.333 4.66699 47.5 14 66.5s22.166 35 38.499 48s35.5 23.167 57.5 30.5s46 11.666 72 12.999c19.333 1.33301 41.666 2.66602 66.999 3.99902s47.666 2.66602 66.999 3.99902v12c0 28 -6 49.167 -18 63.5s-36.333 21.5 -73 21.5c-24 0 -50.167 -2.33301 -78.5 -7
s-54.166 -10.667 -77.499 -18c-3.33301 15.333 -7 30.333 -11 45l-12 44c29.333 12.667 63.333 22.667 102 30s75.667 11 111 11c29.333 0 56 -3 80 -9s44.333 -15.667 61 -29s29.5 -30.833 38.5 -52.5s13.5 -48.5 13.5 -80.5v-235zM249.003 212.005
c-46 -4 -69 -26.332 -69 -66.999c0 -20.667 5.33301 -36.334 16 -47.001s27.667 -16 51 -16c15.333 0 32 3.83301 50 11.5s35 18.5 51 32.5v94z" />
    <glyph glyph-name="Cacute" unicode="&#x106;" horiz-adv-x="627" 
d="M385 701c35.333 0 68.3311 -2.66602 98.998 -7.99902s58.667 -12 84 -20l-21 -108c-26.667 7.33301 -52.167 12.5 -76.5 15.5s-46.5 4.5 -66.5 4.5c-64 0 -112.667 -19.833 -146 -59.5s-50 -99.834 -50 -180.501c0 -39.333 3.33301 -73.833 10 -103.5
s17.834 -54.5 33.501 -74.5s36.334 -35 62.001 -45s57.167 -15 94.5 -15c8 0 18.5 0.5 31.5 1.5s27 2.5 42 4.5s30 4.33301 45 7s29.167 5.66699 42.5 9l24 -102c-14.667 -6 -30.834 -11.167 -48.501 -15.5s-36 -8.16602 -55 -11.499s-38.167 -5.83301 -57.5 -7.5
s-37.666 -2.5 -54.999 -2.5c-63.333 0 -115.833 9 -157.5 27s-75 42.833 -100 74.5s-42.5 68.667 -52.5 111s-15 88.166 -15 137.499c0 40 5 81.333 15 124s27.5 81.5 52.5 116.5s59 63.833 102 86.5s97.5 34 163.5 34zM356.998 736.001l-47 49l147 169l76 -79z" />
    <glyph glyph-name="cacute" unicode="&#x107;" horiz-adv-x="485" 
d="M184 246c0 -45.333 8.50195 -80.832 25.502 -106.499s47.833 -38.5 92.5 -38.5c23.333 0 45.666 2.33301 66.999 7s43 10.667 65 18l27 -95c-24.667 -12.667 -53.167 -22.334 -85.5 -29.001s-65.5 -10 -99.5 -10c-47.333 0 -86.166 6.5 -116.499 19.5
s-54.5 30.833 -72.5 53.5s-30.5 49 -37.5 79s-10.5 62 -10.5 96c0 28.667 3.33301 58.5 10 89.5s19 59.333 37 85s42.667 46.667 74 63s72 24.5 122 24.5c21.333 0 45.166 -1.5 71.499 -4.5s53.5 -9.5 81.5 -19.5c-3.33301 -16.667 -6.83301 -33.167 -10.5 -49.5
l-11.5 -50.5c-21.333 6 -40.833 9.83301 -58.5 11.5s-33.834 2.5 -48.501 2.5c-40 0 -70.333 -12.833 -91 -38.5s-31 -61.5 -31 -107.5zM231.002 532.001l-50 52l148 170l76 -82z" />
    <glyph glyph-name="Ccircumflex" unicode="&#x108;" horiz-adv-x="627" 
d="M385 701c35.333 0 68.3311 -2.66602 98.998 -7.99902s58.667 -12 84 -20l-21 -108c-26.667 7.33301 -52.167 12.5 -76.5 15.5s-46.5 4.5 -66.5 4.5c-64 0 -112.667 -19.833 -146 -59.5s-50 -99.834 -50 -180.501c0 -39.333 3.33301 -73.833 10 -103.5
s17.834 -54.5 33.501 -74.5s36.334 -35 62.001 -45s57.167 -15 94.5 -15c8 0 18.5 0.5 31.5 1.5s27 2.5 42 4.5s30 4.33301 45 7s29.167 5.66699 42.5 9l24 -102c-14.667 -6 -30.834 -11.167 -48.501 -15.5s-36 -8.16602 -55 -11.499s-38.167 -5.83301 -57.5 -7.5
s-37.666 -2.5 -54.999 -2.5c-63.333 0 -115.833 9 -157.5 27s-75 42.833 -100 74.5s-42.5 68.667 -52.5 111s-15 88.166 -15 137.499c0 40 5 81.333 15 124s27.5 81.5 52.5 116.5s59 63.833 102 86.5s97.5 34 163.5 34zM525.998 737.001l-165 91l-163 -92l-34 41l154 147h88
l155 -146z" />
    <glyph glyph-name="ccircumflex" unicode="&#x109;" horiz-adv-x="485" 
d="M184 246c0 -45.333 8.50195 -80.832 25.502 -106.499s47.833 -38.5 92.5 -38.5c23.333 0 45.666 2.33301 66.999 7s43 10.667 65 18l27 -95c-24.667 -12.667 -53.167 -22.334 -85.5 -29.001s-65.5 -10 -99.5 -10c-47.333 0 -86.166 6.5 -116.499 19.5
s-54.5 30.833 -72.5 53.5s-30.5 49 -37.5 79s-10.5 62 -10.5 96c0 28.667 3.33301 58.5 10 89.5s19 59.333 37 85s42.667 46.667 74 63s72 24.5 122 24.5c21.333 0 45.166 -1.5 71.499 -4.5s53.5 -9.5 81.5 -19.5c-3.33301 -16.667 -6.83301 -33.167 -10.5 -49.5
l-11.5 -50.5c-21.333 6 -40.833 9.83301 -58.5 11.5s-33.834 2.5 -48.501 2.5c-40 0 -70.333 -12.833 -91 -38.5s-31 -61.5 -31 -107.5zM435.002 530.001l-165 95l-164 -96l-33 41l154 154h88l156 -152z" />
    <glyph glyph-name="Cdotaccent" unicode="&#x10a;" horiz-adv-x="627" 
d="M385 701c35.333 0 68.3311 -2.66602 98.998 -7.99902s58.667 -12 84 -20l-21 -108c-26.667 7.33301 -52.167 12.5 -76.5 15.5s-46.5 4.5 -66.5 4.5c-64 0 -112.667 -19.833 -146 -59.5s-50 -99.834 -50 -180.501c0 -39.333 3.33301 -73.833 10 -103.5
s17.834 -54.5 33.501 -74.5s36.334 -35 62.001 -45s57.167 -15 94.5 -15c8 0 18.5 0.5 31.5 1.5s27 2.5 42 4.5s30 4.33301 45 7s29.167 5.66699 42.5 9l24 -102c-14.667 -6 -30.834 -11.167 -48.501 -15.5s-36 -8.16602 -55 -11.499s-38.167 -5.83301 -57.5 -7.5
s-37.666 -2.5 -54.999 -2.5c-63.333 0 -115.833 9 -157.5 27s-75 42.833 -100 74.5s-42.5 68.667 -52.5 111s-15 88.166 -15 137.499c0 40 5 81.333 15 124s27.5 81.5 52.5 116.5s59 63.833 102 86.5s97.5 34 163.5 34zM430.998 832.001
c0 -21.333 -7.16699 -39.333 -21.5 -54s-35.166 -22 -62.499 -22c-26.667 0 -46.667 7.33301 -60 22s-20 32.667 -20 54c0 22.667 6.66699 41.167 20 55.5s33.333 21.5 60 21.5c27.333 0 48.166 -7.16699 62.499 -21.5s21.5 -32.833 21.5 -55.5z" />
    <glyph glyph-name="cdotaccent" unicode="&#x10b;" horiz-adv-x="485" 
d="M184 246c0 -45.333 8.50195 -80.832 25.502 -106.499s47.833 -38.5 92.5 -38.5c23.333 0 45.666 2.33301 66.999 7s43 10.667 65 18l27 -95c-24.667 -12.667 -53.167 -22.334 -85.5 -29.001s-65.5 -10 -99.5 -10c-47.333 0 -86.166 6.5 -116.499 19.5
s-54.5 30.833 -72.5 53.5s-30.5 49 -37.5 79s-10.5 62 -10.5 96c0 28.667 3.33301 58.5 10 89.5s19 59.333 37 85s42.667 46.667 74 63s72 24.5 122 24.5c21.333 0 45.166 -1.5 71.499 -4.5s53.5 -9.5 81.5 -19.5c-3.33301 -16.667 -6.83301 -33.167 -10.5 -49.5
l-11.5 -50.5c-21.333 6 -40.833 9.83301 -58.5 11.5s-33.834 2.5 -48.501 2.5c-40 0 -70.333 -12.833 -91 -38.5s-31 -61.5 -31 -107.5zM335.002 641.001c0 -21.333 -6.5 -39 -19.5 -53s-31.5 -21 -55.5 -21c-23.333 0 -41.166 7 -53.499 21s-18.5 31.667 -18.5 53
s6.16699 39 18.5 53s30.166 21 53.499 21c24 0 42.5 -7 55.5 -21s19.5 -31.667 19.5 -53z" />
    <glyph glyph-name="Ccaron" unicode="&#x10c;" horiz-adv-x="627" 
d="M385 701c35.333 0 68.3311 -2.66602 98.998 -7.99902s58.667 -12 84 -20l-21 -108c-26.667 7.33301 -52.167 12.5 -76.5 15.5s-46.5 4.5 -66.5 4.5c-64 0 -112.667 -19.833 -146 -59.5s-50 -99.834 -50 -180.501c0 -39.333 3.33301 -73.833 10 -103.5
s17.834 -54.5 33.501 -74.5s36.334 -35 62.001 -45s57.167 -15 94.5 -15c8 0 18.5 0.5 31.5 1.5s27 2.5 42 4.5s30 4.33301 45 7s29.167 5.66699 42.5 9l24 -102c-14.667 -6 -30.834 -11.167 -48.501 -15.5s-36 -8.16602 -55 -11.499s-38.167 -5.83301 -57.5 -7.5
s-37.666 -2.5 -54.999 -2.5c-63.333 0 -115.833 9 -157.5 27s-75 42.833 -100 74.5s-42.5 68.667 -52.5 111s-15 88.166 -15 137.499c0 40 5 81.333 15 124s27.5 81.5 52.5 116.5s59 63.833 102 86.5s97.5 34 163.5 34zM546.998 881.001l-156 -145h-87l-154 147l34 39
l163 -92l165 93z" />
    <glyph glyph-name="ccaron" unicode="&#x10d;" horiz-adv-x="485" 
d="M184 246c0 -45.333 8.50195 -80.832 25.502 -106.499s47.833 -38.5 92.5 -38.5c23.333 0 45.666 2.33301 66.999 7s43 10.667 65 18l27 -95c-24.667 -12.667 -53.167 -22.334 -85.5 -29.001s-65.5 -10 -99.5 -10c-47.333 0 -86.166 6.5 -116.499 19.5
s-54.5 30.833 -72.5 53.5s-30.5 49 -37.5 79s-10.5 62 -10.5 96c0 28.667 3.33301 58.5 10 89.5s19 59.333 37 85s42.667 46.667 74 63s72 24.5 122 24.5c21.333 0 45.166 -1.5 71.499 -4.5s53.5 -9.5 81.5 -19.5c-3.33301 -16.667 -6.83301 -33.167 -10.5 -49.5
l-11.5 -50.5c-21.333 6 -40.833 9.83301 -58.5 11.5s-33.834 2.5 -48.501 2.5c-40 0 -70.333 -12.833 -91 -38.5s-31 -61.5 -31 -107.5zM469.002 697.001l-156 -154h-87l-155 155l33 40l165 -97l164 97z" />
    <glyph glyph-name="Dcaron" unicode="&#x10e;" horiz-adv-x="690" 
d="M73 0l-0.000976562 688.001h258c60.667 0 110.834 -9.16699 150.501 -27.5s71 -43 94 -74s39 -67.333 48 -109s13.5 -85.5 13.5 -131.5s-5.16699 -90 -15.5 -132s-27.5 -78.833 -51.5 -110.5s-56 -56.834 -96 -75.501s-89.667 -28 -149 -28h-252zM221.999 584.001
l-0.00195312 -478.002h91c17.333 0 36 2.83301 56 8.5s38.5 17 55.5 34s31.167 40.833 42.5 71.5s17 71 17 121c0 50.667 -5.33301 91.834 -16 123.501s-24.167 56.334 -40.5 74.001s-34.666 29.667 -54.999 36s-40.166 9.5 -59.499 9.5h-91zM509.997 880.999l-156 -145h-87
l-154 147l34 39l163 -92l165 93z" />
    <glyph glyph-name="dcaron" unicode="&#x10f;" horiz-adv-x="731" 
d="M251 503c16 0 36.5 -2.16699 61.5 -6.5s47.833 -12.5 68.5 -24.5v243h143v-715h-133l-3 44c-1.33301 1.33301 -2.33301 2 -3 2c-24 -19.333 -49.833 -33 -77.5 -41s-52.167 -12 -73.5 -12c-38 0 -69.667 6.5 -95 19.5s-45.333 30.5 -60 52.5s-25 47.667 -31 77
s-9 60.333 -9 93c0 38 3.66699 73.333 11 106s19.5 61 36.5 85s38.833 42.833 65.5 56.5s59.667 20.5 99 20.5zM381 372c-11.333 7.33301 -26.6641 13.666 -45.9971 18.999s-37 8 -53 8c-12 0 -24 -2.16699 -36 -6.5s-22.667 -12.5 -32 -24.5s-16.833 -28.667 -22.5 -50
s-8.5 -48.666 -8.5 -81.999c0 -29.333 2.5 -53.166 7.5 -71.499s11.833 -32.833 20.5 -43.5s19 -18 31 -22s24.667 -6 38 -6c7.33301 0 15.666 1.16699 24.999 3.5s18.666 5.16602 27.999 8.49902s18.166 7.33301 26.499 12s15.5 9 21.5 13v242zM587.002 682
c0 17.333 6.50098 32.168 19.501 44.501s30.167 18.5 51.5 18.5c24.667 0 43 -7.83301 55 -23.5s18 -33.5 18 -53.5c-1.33301 -31.333 -12.5 -60.833 -33.5 -88.5s-46.5 -48.834 -76.5 -63.501l-31 39c12.667 10.667 22.667 21.5 30 32.5s11.666 23.167 12.999 36.5
c-15.333 3.33301 -26.833 10 -34.5 20s-11.5 22.667 -11.5 38z" />
    <glyph glyph-name="Dcroat" unicode="&#x110;" horiz-adv-x="690" 
d="M73 0l-0.000976562 321.001h-59v73h59v294h258c60.667 0 110.834 -9.16699 150.501 -27.5s71 -43 94 -74s39 -67.333 48 -109s13.5 -85.5 13.5 -131.5s-5.16699 -90 -15.5 -132s-27.5 -78.833 -51.5 -110.5s-56 -56.834 -96 -75.501s-89.667 -28 -149 -28h-252z
M221.999 584.001l-0.00195312 -190.002h123v-73h-123v-215h91c17.333 0 36 2.83301 56 8.5s38.5 17 55.5 34s31.167 40.833 42.5 71.5s17 71 17 121c0 50.667 -5.33301 91.834 -16 123.501s-24.167 56.334 -40.5 74.001s-34.666 29.667 -54.999 36s-40.166 9.5 -59.499 9.5
h-91z" />
    <glyph glyph-name="dcroat" unicode="&#x111;" horiz-adv-x="575" 
d="M388 44c-1.33301 1.33301 -2.33203 2.00098 -2.99902 2.00098c-24 -19.333 -49.833 -33 -77.5 -41s-52.167 -12 -73.5 -12c-38 0 -69.667 6 -95 18s-45.333 28.5 -60 49.5s-25 45.667 -31 74s-9 58.5 -9 90.5c0 36 3.66699 69.667 11 101s19.166 58.5 35.499 81.5
s37.5 41.167 63.5 54.5s58 20 96 20c19.333 0 40 -1.66699 62 -5s46.667 -10.666 74 -21.999v89h-134v54h134v117h143v-117h61v-54h-61v-544h-133c-0.666992 7.33301 -1 14.666 -1 21.999s-0.666992 14.666 -2 21.999zM381.001 351.001
c-12 7.33301 -27.4971 13.667 -46.4971 19s-36.5 8 -52.5 8c-12 0 -24 -2.16699 -36 -6.5s-22.667 -12.166 -32 -23.499s-16.833 -26.833 -22.5 -46.5s-8.5 -44.834 -8.5 -75.501c0 -27.333 2.5 -49.666 7.5 -66.999s11.833 -30.833 20.5 -40.5s19 -16.334 31 -20.001
s24.667 -5.5 38 -5.5c7.33301 0 15.666 1 24.999 3s18.666 4.83301 27.999 8.5s18.166 7.66699 26.499 12s15.5 8.83301 21.5 13.5v221z" />
    <glyph glyph-name="Emacron" unicode="&#x112;" horiz-adv-x="606" 
d="M72 0v688h474v-104h-325v-175h273v-98h-273v-206h339v-105h-488zM139 839h354v-91h-354v91z" />
    <glyph glyph-name="emacron" unicode="&#x113;" horiz-adv-x="544" 
d="M280 504c52.667 0 93.999 -8.33105 123.999 -24.998s52.5 -37.334 67.5 -62.001s24.333 -50.834 28 -78.501s5.5 -52.5 5.5 -74.5v-51h-321c0 -38 9.5 -66.667 28.5 -86s50.5 -29 94.5 -29c26.667 0 53.334 2.83301 80.001 8.5s52.667 13.167 78 22.5l29 -88
c-32.667 -18 -67 -30.667 -103 -38s-71 -11 -105 -11c-49.333 0 -90 6.83301 -122 20.5s-57.167 32.167 -75.5 55.5s-31 50.166 -38 80.499s-10.5 62.5 -10.5 96.5c0 26.667 3.33301 55.334 10 86.001s19 58.667 37 84s42.5 46.5 73.5 63.5s70.833 25.5 119.5 25.5z
M285.999 413.002c-18 0 -33 -2.99902 -45 -8.99902s-21.833 -14.167 -29.5 -24.5s-13.5 -22.333 -17.5 -36s-6.66699 -27.834 -8 -42.501h189c-0.666992 32.667 -7.16699 59.5 -19.5 80.5s-35.5 31.5 -69.5 31.5zM101.999 674.003h363v-91h-363v91z" />
    <glyph glyph-name="Ebreve" unicode="&#x114;" horiz-adv-x="606" 
d="M72 0v688h474v-104h-325v-175h273v-98h-273v-206h339v-105h-488zM308 730c-20 0 -38.6709 3.50195 -56.0039 10.502s-33.5 16.333 -48.5 28s-29.167 25.334 -42.5 41.001s-25.666 32.167 -36.999 49.5l58 44c20.667 -28 42.834 -49.167 66.501 -63.5
s44.834 -21.5 63.501 -21.5c6 0 13.5 0.5 22.5 1.5s19.833 4.16699 32.5 9.5s26.834 13.166 42.501 23.499s33.5 25.166 53.5 44.499l38 -38c-31.333 -48.667 -63.833 -82.334 -97.5 -101.001s-65.5 -28 -95.5 -28z" />
    <glyph glyph-name="ebreve" unicode="&#x115;" horiz-adv-x="544" 
d="M280 504c52.667 0 93.999 -8.33105 123.999 -24.998s52.5 -37.334 67.5 -62.001s24.333 -50.834 28 -78.501s5.5 -52.5 5.5 -74.5v-51h-321c0 -38 9.5 -66.667 28.5 -86s50.5 -29 94.5 -29c26.667 0 53.334 2.83301 80.001 8.5s52.667 13.167 78 22.5l29 -88
c-32.667 -18 -67 -30.667 -103 -38s-71 -11 -105 -11c-49.333 0 -90 6.83301 -122 20.5s-57.167 32.167 -75.5 55.5s-31 50.166 -38 80.499s-10.5 62.5 -10.5 96.5c0 26.667 3.33301 55.334 10 86.001s19 58.667 37 84s42.5 46.5 73.5 63.5s70.833 25.5 119.5 25.5z
M285.999 413.002c-18 0 -33 -2.99902 -45 -8.99902s-21.833 -14.167 -29.5 -24.5s-13.5 -22.333 -17.5 -36s-6.66699 -27.834 -8 -42.501h189c-0.666992 32.667 -7.16699 59.5 -19.5 80.5s-35.5 31.5 -69.5 31.5zM278.999 547.003c-20 0 -38.833 3.66797 -56.5 11.001
s-34.167 17.166 -49.5 29.499s-29.666 26.333 -42.999 42s-25.666 32.167 -36.999 49.5l60 45c21.333 -28.667 43.666 -50 66.999 -64s44 -21 62 -21c6 0 13.5 0.333008 22.5 1s19.5 3.5 31.5 8.5s26 12.667 42 23s34.667 25.5 56 45.5l43 -39
c-16 -24.667 -32.5 -45.334 -49.5 -62.001s-34 -30.167 -51 -40.5s-33.833 -17.666 -50.5 -21.999s-32.334 -6.5 -47.001 -6.5z" />
    <glyph glyph-name="Edotaccent" unicode="&#x116;" horiz-adv-x="606" 
d="M72 0v688h474v-104h-325v-175h273v-98h-273v-206h339v-105h-488zM412 827c0 -21.333 -7.16699 -39.333 -21.5 -54s-35.166 -22 -62.499 -22c-26.667 0 -46.667 7.33301 -60 22s-20 32.667 -20 54c0 22.667 6.66699 41.167 20 55.5s33.333 21.5 60 21.5
c27.333 0 48.166 -7.16699 62.499 -21.5s21.5 -32.833 21.5 -55.5z" />
    <glyph glyph-name="edotaccent" unicode="&#x117;" horiz-adv-x="544" 
d="M280 504c52.667 0 93.999 -8.33105 123.999 -24.998s52.5 -37.334 67.5 -62.001s24.333 -50.834 28 -78.501s5.5 -52.5 5.5 -74.5v-51h-321c0 -38 9.5 -66.667 28.5 -86s50.5 -29 94.5 -29c26.667 0 53.334 2.83301 80.001 8.5s52.667 13.167 78 22.5l29 -88
c-32.667 -18 -67 -30.667 -103 -38s-71 -11 -105 -11c-49.333 0 -90 6.83301 -122 20.5s-57.167 32.167 -75.5 55.5s-31 50.166 -38 80.499s-10.5 62.5 -10.5 96.5c0 26.667 3.33301 55.334 10 86.001s19 58.667 37 84s42.5 46.5 73.5 63.5s70.833 25.5 119.5 25.5z
M285.999 413.002c-18 0 -33 -2.99902 -45 -8.99902s-21.833 -14.167 -29.5 -24.5s-13.5 -22.333 -17.5 -36s-6.66699 -27.834 -8 -42.501h189c-0.666992 32.667 -7.16699 59.5 -19.5 80.5s-35.5 31.5 -69.5 31.5zM363.999 641.003c0 -21.333 -7.16699 -39.333 -21.5 -54
s-35.166 -22 -62.499 -22c-26.667 0 -46.667 7.33301 -60 22s-20 32.667 -20 54c0 22.667 6.66699 41.167 20 55.5s33.333 21.5 60 21.5c27.333 0 48.166 -7.16699 62.499 -21.5s21.5 -32.833 21.5 -55.5z" />
    <glyph glyph-name="Eogonek" unicode="&#x118;" horiz-adv-x="606" 
d="M529 0c-12.667 -18.667 -22.166 -38.166 -28.499 -58.499s-9.5 -37.833 -9.5 -52.5c0 -16.667 4.5 -28.5 13.5 -35.5s22.167 -10.5 39.5 -10.5c13.333 0 25.666 1.16699 36.999 3.5s22.666 4.83301 33.999 7.5l12 -46c-19.333 -10 -39.333 -17.5 -60 -22.5
s-41 -7.5 -61 -7.5c-35.333 0 -62 7.16699 -80 21.5s-27 34.166 -27 59.499c0 17.333 4.33301 38.5 13 63.5s26.334 50.833 53.001 77.5h-393v688h474v-104h-325v-175h273v-98h-273v-206h339v-105h-31z" />
    <glyph glyph-name="eogonek" unicode="&#x119;" horiz-adv-x="544" 
d="M280 504c52.667 0 94 -8.32812 124 -24.9951s52.5 -37.334 67.5 -62.001s24.333 -50.834 28 -78.501s5.5 -52.5 5.5 -74.5v-51h-321c0 -38 9.5 -66.667 28.5 -86s50.5 -29 94.5 -29c26.667 0 53.334 2.83301 80.001 8.5s52.667 13.167 78 22.5l29 -88
c-11.333 -6.66699 -22.833 -12.334 -34.5 -17.001s-23.5 -9 -35.5 -13c-9.33301 -16 -16.166 -32.167 -20.499 -48.5s-6.5 -30.833 -6.5 -43.5c0 -16.667 4.5 -28.5 13.5 -35.5s22.167 -10.5 39.5 -10.5c13.333 0 25.666 1.16699 36.999 3.5s22.666 4.83301 33.999 7.5
l12 -46c-19.333 -10 -39.333 -17.5 -60 -22.5s-41 -7.5 -61 -7.5c-35.333 0 -62 7.16699 -80 21.5s-27 34.166 -27 59.499c0 13.333 2.5 29.166 7.5 47.499s14.833 37.833 29.5 58.5c-19.333 -2 -38 -3 -56 -3c-49.333 0 -90 6.83301 -122 20.5s-57.167 32.167 -75.5 55.5
s-31 50.166 -38 80.499s-10.5 62.5 -10.5 96.5c0 26.667 3.33301 55.334 10 86.001s19 58.667 37 84s42.5 46.5 73.5 63.5s70.833 25.5 119.5 25.5zM286 413.005c-18 0 -33 -2.99902 -45 -8.99902s-21.833 -14.167 -29.5 -24.5s-13.5 -22.333 -17.5 -36
s-6.66699 -27.834 -8 -42.501h189c-0.666992 32.667 -7.16699 59.5 -19.5 80.5s-35.5 31.5 -69.5 31.5z" />
    <glyph glyph-name="Ecaron" unicode="&#x11a;" horiz-adv-x="606" 
d="M72 0v688h474v-104h-325v-175h273v-98h-273v-206h339v-105h-488zM505 876l-156 -145h-87l-154 147l34 39l163 -92l165 93z" />
    <glyph glyph-name="ecaron" unicode="&#x11b;" horiz-adv-x="544" 
d="M280 504c52.667 0 93.999 -8.33105 123.999 -24.998s52.5 -37.334 67.5 -62.001s24.333 -50.834 28 -78.501s5.5 -52.5 5.5 -74.5v-51h-321c0 -38 9.5 -66.667 28.5 -86s50.5 -29 94.5 -29c26.667 0 53.334 2.83301 80.001 8.5s52.667 13.167 78 22.5l29 -88
c-32.667 -18 -67 -30.667 -103 -38s-71 -11 -105 -11c-49.333 0 -90 6.83301 -122 20.5s-57.167 32.167 -75.5 55.5s-31 50.166 -38 80.499s-10.5 62.5 -10.5 96.5c0 26.667 3.33301 55.334 10 86.001s19 58.667 37 84s42.5 46.5 73.5 63.5s70.833 25.5 119.5 25.5z
M285.999 413.002c-18 0 -33 -2.99902 -45 -8.99902s-21.833 -14.167 -29.5 -24.5s-13.5 -22.333 -17.5 -36s-6.66699 -27.834 -8 -42.501h189c-0.666992 32.667 -7.16699 59.5 -19.5 80.5s-35.5 31.5 -69.5 31.5zM475.999 697.003l-156 -154h-87l-155 155l33 40l165 -97
l164 97z" />
    <glyph glyph-name="Gcircumflex" unicode="&#x11c;" horiz-adv-x="667" 
d="M399 701c34.667 0 68.334 -2.66699 101.001 -8s62 -12 88 -20l-21 -106c-28 7.33301 -54.833 12.5 -80.5 15.5s-49.167 4.5 -70.5 4.5c-70.667 0 -123 -20.833 -157 -62.5s-51 -105.167 -51 -190.5c0 -34.667 3 -66 9 -94s15.833 -51.833 29.5 -71.5
s31.667 -34.834 54 -45.501s49.833 -16 82.5 -16c13.333 0 28.5 1 45.5 3s32.167 4.66699 45.5 8v245h135v-335c-38.667 -13.333 -78.334 -23 -119.001 -29s-79 -9 -115 -9c-62.667 0 -114.667 9.33301 -156 28s-74.333 44 -99 76s-42.167 69.333 -52.5 112
s-15.5 88 -15.5 136c0 40 5 81.333 15 124s27.833 81.334 53.5 116.001s61 63.167 106 85.5s102.5 33.5 172.5 33.5zM534 735l-165 91l-163 -92l-34 41l154 147h88l155 -146z" />
    <glyph glyph-name="gcircumflex" unicode="&#x11d;" horiz-adv-x="597" 
d="M120 195c-17.333 10 -31.9961 25.3281 -43.9961 45.9951s-18 47 -18 79c0 32.667 6.33301 60.5 19 83.5s29.5 42 50.5 57s45 26 72 33s54.833 10.5 83.5 10.5c19.333 0 38.166 -1 56.499 -3s34.166 -5 47.499 -9h176v-72h-70l-3 -5c9.33301 -12 16 -26.167 20 -42.5
s6 -32.166 6 -47.499c0 -28 -5.83301 -52.667 -17.5 -74s-27.834 -39.166 -48.501 -53.499s-44.667 -25.166 -72 -32.499s-56.666 -11 -87.999 -11l-57 -1c-18.667 0 -33.5 -2.33301 -44.5 -7s-16.5 -12.667 -16.5 -24c0 -7.33301 3.5 -13.166 10.5 -17.499
s16.5 -6.5 28.5 -6.5h144c62 0 110.333 -11.667 145 -35s52 -60.333 52 -111c0 -22.667 -5.33301 -44.167 -16 -64.5s-27.334 -38.333 -50.001 -54s-52.167 -28.167 -88.5 -37.5s-79.833 -14 -130.5 -14c-48.667 0 -88 4.16699 -118 12.5s-53.333 19.166 -70 32.499
s-27.834 28.333 -33.501 45s-8.5 33.334 -8.5 50.001c0 24.667 6.16699 46.334 18.5 65.001s26.833 32.667 43.5 42c-36 11.333 -54 35.333 -54 72c0 24.667 7.33301 44 22 58s31.667 24.667 51 32zM218.004 11.9951c-11.333 -4.66699 -21.332 -13.332 -29.999 -25.999
s-13 -25.334 -13 -38.001c0 -9.33301 1.5 -18.333 4.5 -27s8.5 -16.167 16.5 -22.5s19.333 -11.5 34 -15.5s33.667 -6 57 -6c40 0 70 6.5 90 19.5s30 30.167 30 51.5c0 8 -1 15.833 -3 23.5s-6 14.5 -12 20.5s-14.333 10.833 -25 14.5s-24.334 5.5 -41.001 5.5h-108z
M376.005 325.997c0 10.667 -1.49805 21.166 -4.49805 31.499s-8 19.5 -15 27.5s-16.333 14.5 -28 19.5s-25.834 7.5 -42.501 7.5c-30.667 0 -53 -8.16699 -67 -24.5s-21 -37.166 -21 -62.499c0 -26 7.16699 -46.333 21.5 -61s34.5 -22 60.5 -22
c27.333 0 50.166 6.5 68.499 19.5s27.5 34.5 27.5 64.5zM447.007 529.996l-165 95l-164 -96l-33 41l154 154h88l156 -152z" />
    <glyph glyph-name="Gbreve" unicode="&#x11e;" horiz-adv-x="667" 
d="M399 701c34.667 0 68.334 -2.66699 101.001 -8s62 -12 88 -20l-21 -106c-28 7.33301 -54.833 12.5 -80.5 15.5s-49.167 4.5 -70.5 4.5c-70.667 0 -123 -20.833 -157 -62.5s-51 -105.167 -51 -190.5c0 -34.667 3 -66 9 -94s15.833 -51.833 29.5 -71.5
s31.667 -34.834 54 -45.501s49.833 -16 82.5 -16c13.333 0 28.5 1 45.5 3s32.167 4.66699 45.5 8v245h135v-335c-38.667 -13.333 -78.334 -23 -119.001 -29s-79 -9 -115 -9c-62.667 0 -114.667 9.33301 -156 28s-74.333 44 -99 76s-42.167 69.333 -52.5 112
s-15.5 88 -15.5 136c0 40 5 81.333 15 124s27.833 81.334 53.5 116.001s61 63.167 106 85.5s102.5 33.5 172.5 33.5zM360 735c-20 0 -38.6709 3.50195 -56.0039 10.502s-33.5 16.333 -48.5 28s-29.167 25.334 -42.5 41.001s-25.666 32.167 -36.999 49.5l58 44
c20.667 -28 42.834 -49.167 66.501 -63.5s44.834 -21.5 63.501 -21.5c6 0 13.5 0.5 22.5 1.5s19.833 4.16699 32.5 9.5s26.834 13.166 42.501 23.499s33.5 25.166 53.5 44.499l38 -38c-31.333 -48.667 -63.833 -82.334 -97.5 -101.001s-65.5 -28 -95.5 -28z" />
    <glyph glyph-name="gbreve" unicode="&#x11f;" horiz-adv-x="597" 
d="M120 195c-17.333 10 -31.9961 25.3281 -43.9961 45.9951s-18 47 -18 79c0 32.667 6.33301 60.5 19 83.5s29.5 42 50.5 57s45 26 72 33s54.833 10.5 83.5 10.5c19.333 0 38.166 -1 56.499 -3s34.166 -5 47.499 -9h176v-72h-70l-3 -5c9.33301 -12 16 -26.167 20 -42.5
s6 -32.166 6 -47.499c0 -28 -5.83301 -52.667 -17.5 -74s-27.834 -39.166 -48.501 -53.499s-44.667 -25.166 -72 -32.499s-56.666 -11 -87.999 -11l-57 -1c-18.667 0 -33.5 -2.33301 -44.5 -7s-16.5 -12.667 -16.5 -24c0 -7.33301 3.5 -13.166 10.5 -17.499
s16.5 -6.5 28.5 -6.5h144c62 0 110.333 -11.667 145 -35s52 -60.333 52 -111c0 -22.667 -5.33301 -44.167 -16 -64.5s-27.334 -38.333 -50.001 -54s-52.167 -28.167 -88.5 -37.5s-79.833 -14 -130.5 -14c-48.667 0 -88 4.16699 -118 12.5s-53.333 19.166 -70 32.499
s-27.834 28.333 -33.501 45s-8.5 33.334 -8.5 50.001c0 24.667 6.16699 46.334 18.5 65.001s26.833 32.667 43.5 42c-36 11.333 -54 35.333 -54 72c0 24.667 7.33301 44 22 58s31.667 24.667 51 32zM218.004 11.9951c-11.333 -4.66699 -21.332 -13.332 -29.999 -25.999
s-13 -25.334 -13 -38.001c0 -9.33301 1.5 -18.333 4.5 -27s8.5 -16.167 16.5 -22.5s19.333 -11.5 34 -15.5s33.667 -6 57 -6c40 0 70 6.5 90 19.5s30 30.167 30 51.5c0 8 -1 15.833 -3 23.5s-6 14.5 -12 20.5s-14.333 10.833 -25 14.5s-24.334 5.5 -41.001 5.5h-108z
M376.005 325.997c0 10.667 -1.49805 21.166 -4.49805 31.499s-8 19.5 -15 27.5s-16.333 14.5 -28 19.5s-25.834 7.5 -42.501 7.5c-30.667 0 -53 -8.16699 -67 -24.5s-21 -37.166 -21 -62.499c0 -26 7.16699 -46.333 21.5 -61s34.5 -22 60.5 -22
c27.333 0 50.166 6.5 68.499 19.5s27.5 34.5 27.5 64.5zM283.007 546.996c-20 0 -38.833 3.66797 -56.5 11.001s-34.167 17.166 -49.5 29.499s-29.666 26.333 -42.999 42s-25.666 32.167 -36.999 49.5l60 45c21.333 -28.667 43.666 -50 66.999 -64s44 -21 62 -21
c6 0 13.5 0.333008 22.5 1s19.5 3.5 31.5 8.5s26 12.667 42 23s34.667 25.5 56 45.5l43 -39c-16 -24.667 -32.5 -45.334 -49.5 -62.001s-34 -30.167 -51 -40.5s-33.833 -17.666 -50.5 -21.999s-32.334 -6.5 -47.001 -6.5z" />
    <glyph glyph-name="Gdotaccent" unicode="&#x120;" horiz-adv-x="667" 
d="M399 701c34.667 0 68.334 -2.66699 101.001 -8s62 -12 88 -20l-21 -106c-28 7.33301 -54.833 12.5 -80.5 15.5s-49.167 4.5 -70.5 4.5c-70.667 0 -123 -20.833 -157 -62.5s-51 -105.167 -51 -190.5c0 -34.667 3 -66 9 -94s15.833 -51.833 29.5 -71.5
s31.667 -34.834 54 -45.501s49.833 -16 82.5 -16c13.333 0 28.5 1 45.5 3s32.167 4.66699 45.5 8v245h135v-335c-38.667 -13.333 -78.334 -23 -119.001 -29s-79 -9 -115 -9c-62.667 0 -114.667 9.33301 -156 28s-74.333 44 -99 76s-42.167 69.333 -52.5 112
s-15.5 88 -15.5 136c0 40 5 81.333 15 124s27.833 81.334 53.5 116.001s61 63.167 106 85.5s102.5 33.5 172.5 33.5zM457 830c0 -21.333 -7.16699 -39.333 -21.5 -54s-35.166 -22 -62.499 -22c-26.667 0 -46.667 7.33301 -60 22s-20 32.667 -20 54
c0 22.667 6.66699 41.167 20 55.5s33.333 21.5 60 21.5c27.333 0 48.166 -7.16699 62.499 -21.5s21.5 -32.833 21.5 -55.5z" />
    <glyph glyph-name="gdotaccent" unicode="&#x121;" horiz-adv-x="597" 
d="M120 195c-17.333 10 -31.9961 25.3281 -43.9961 45.9951s-18 47 -18 79c0 32.667 6.33301 60.5 19 83.5s29.5 42 50.5 57s45 26 72 33s54.833 10.5 83.5 10.5c19.333 0 38.166 -1 56.499 -3s34.166 -5 47.499 -9h176v-72h-70l-3 -5c9.33301 -12 16 -26.167 20 -42.5
s6 -32.166 6 -47.499c0 -28 -5.83301 -52.667 -17.5 -74s-27.834 -39.166 -48.501 -53.499s-44.667 -25.166 -72 -32.499s-56.666 -11 -87.999 -11l-57 -1c-18.667 0 -33.5 -2.33301 -44.5 -7s-16.5 -12.667 -16.5 -24c0 -7.33301 3.5 -13.166 10.5 -17.499
s16.5 -6.5 28.5 -6.5h144c62 0 110.333 -11.667 145 -35s52 -60.333 52 -111c0 -22.667 -5.33301 -44.167 -16 -64.5s-27.334 -38.333 -50.001 -54s-52.167 -28.167 -88.5 -37.5s-79.833 -14 -130.5 -14c-48.667 0 -88 4.16699 -118 12.5s-53.333 19.166 -70 32.499
s-27.834 28.333 -33.501 45s-8.5 33.334 -8.5 50.001c0 24.667 6.16699 46.334 18.5 65.001s26.833 32.667 43.5 42c-36 11.333 -54 35.333 -54 72c0 24.667 7.33301 44 22 58s31.667 24.667 51 32zM218.004 11.9951c-11.333 -4.66699 -21.332 -13.332 -29.999 -25.999
s-13 -25.334 -13 -38.001c0 -9.33301 1.5 -18.333 4.5 -27s8.5 -16.167 16.5 -22.5s19.333 -11.5 34 -15.5s33.667 -6 57 -6c40 0 70 6.5 90 19.5s30 30.167 30 51.5c0 8 -1 15.833 -3 23.5s-6 14.5 -12 20.5s-14.333 10.833 -25 14.5s-24.334 5.5 -41.001 5.5h-108z
M376.005 325.997c0 10.667 -1.49805 21.166 -4.49805 31.499s-8 19.5 -15 27.5s-16.333 14.5 -28 19.5s-25.834 7.5 -42.501 7.5c-30.667 0 -53 -8.16699 -67 -24.5s-21 -37.166 -21 -62.499c0 -26 7.16699 -46.333 21.5 -61s34.5 -22 60.5 -22
c27.333 0 50.166 6.5 68.499 19.5s27.5 34.5 27.5 64.5zM365.007 640.996c0 -21.333 -7.16699 -39.333 -21.5 -54s-35.166 -22 -62.499 -22c-26.667 0 -46.667 7.33301 -60 22s-20 32.667 -20 54c0 22.667 6.66699 41.167 20 55.5s33.333 21.5 60 21.5
c27.333 0 48.166 -7.16699 62.499 -21.5s21.5 -32.833 21.5 -55.5z" />
    <glyph glyph-name="Gcommaaccent" unicode="&#x122;" horiz-adv-x="667" 
d="M399 701c34.667 0 68.334 -2.66699 101.001 -8s62 -12 88 -20l-21 -106c-28 7.33301 -54.833 12.5 -80.5 15.5s-49.167 4.5 -70.5 4.5c-70.667 0 -123 -20.833 -157 -62.5s-51 -105.167 -51 -190.5c0 -34.667 3 -66 9 -94s15.833 -51.833 29.5 -71.5
s31.667 -34.834 54 -45.501s49.833 -16 82.5 -16c13.333 0 28.5 1 45.5 3s32.167 4.66699 45.5 8v245h135v-335c-38.667 -13.333 -78.334 -23 -119.001 -29s-79 -9 -115 -9c-62.667 0 -114.667 9.33301 -156 28s-74.333 44 -99 76s-42.167 69.333 -52.5 112
s-15.5 88 -15.5 136c0 40 5 81.333 15 124s27.833 81.334 53.5 116.001s61 63.167 106 85.5s102.5 33.5 172.5 33.5zM308 -104c0 17.333 6.50098 32.168 19.501 44.501s30.167 18.5 51.5 18.5c24.667 0 43 -7.83301 55 -23.5s18 -33.5 18 -53.5
c-1.33301 -31.333 -12.5 -60.833 -33.5 -88.5s-46.5 -48.834 -76.5 -63.501l-31 39c12.667 10.667 22.667 21.5 30 32.5s11.666 23.167 12.999 36.5c-15.333 3.33301 -26.833 10 -34.5 20s-11.5 22.667 -11.5 38z" />
    <glyph glyph-name="gcommaaccent" unicode="&#x123;" horiz-adv-x="597" 
d="M120 195c-17.333 10 -31.9961 25.3281 -43.9961 45.9951s-18 47 -18 79c0 32.667 6.33301 60.5 19 83.5s29.5 42 50.5 57s45 26 72 33s54.833 10.5 83.5 10.5c19.333 0 38.166 -1 56.499 -3s34.166 -5 47.499 -9h176v-72h-70l-3 -5c9.33301 -12 16 -26.167 20 -42.5
s6 -32.166 6 -47.499c0 -28 -5.83301 -52.667 -17.5 -74s-27.834 -39.166 -48.501 -53.499s-44.667 -25.166 -72 -32.499s-56.666 -11 -87.999 -11l-57 -1c-18.667 0 -33.5 -2.33301 -44.5 -7s-16.5 -12.667 -16.5 -24c0 -7.33301 3.5 -13.166 10.5 -17.499
s16.5 -6.5 28.5 -6.5h144c62 0 110.333 -11.667 145 -35s52 -60.333 52 -111c0 -22.667 -5.33301 -44.167 -16 -64.5s-27.334 -38.333 -50.001 -54s-52.167 -28.167 -88.5 -37.5s-79.833 -14 -130.5 -14c-48.667 0 -88 4.16699 -118 12.5s-53.333 19.166 -70 32.499
s-27.834 28.333 -33.501 45s-8.5 33.334 -8.5 50.001c0 24.667 6.16699 46.334 18.5 65.001s26.833 32.667 43.5 42c-36 11.333 -54 35.333 -54 72c0 24.667 7.33301 44 22 58s31.667 24.667 51 32zM218.004 11.9951c-11.333 -4.66699 -21.332 -13.332 -29.999 -25.999
s-13 -25.334 -13 -38.001c0 -9.33301 1.5 -18.333 4.5 -27s8.5 -16.167 16.5 -22.5s19.333 -11.5 34 -15.5s33.667 -6 57 -6c40 0 70 6.5 90 19.5s30 30.167 30 51.5c0 8 -1 15.833 -3 23.5s-6 14.5 -12 20.5s-14.333 10.833 -25 14.5s-24.334 5.5 -41.001 5.5h-108z
M376.005 325.997c0 10.667 -1.49805 21.166 -4.49805 31.499s-8 19.5 -15 27.5s-16.333 14.5 -28 19.5s-25.834 7.5 -42.501 7.5c-30.667 0 -53 -8.16699 -67 -24.5s-21 -37.166 -21 -62.499c0 -26 7.16699 -46.333 21.5 -61s34.5 -22 60.5 -22
c27.333 0 50.166 6.5 68.499 19.5s27.5 34.5 27.5 64.5zM365.007 611.996c0 -18 -7.16797 -33.5 -21.501 -46.5s-32.833 -19.5 -55.5 -19.5c-25.333 0 -44.333 8 -57 24s-19 35 -19 57c0.666992 33.333 12.167 63.833 34.5 91.5s49.5 49.167 81.5 64.5l33 -41
c-14 -11.333 -24.667 -22.333 -32 -33s-11.666 -23 -12.999 -37c15.333 -3.33301 27.333 -10.333 36 -21s13 -23.667 13 -39z" />
    <glyph glyph-name="Hcircumflex" unicode="&#x124;" horiz-adv-x="710" 
d="M487 0v306h-267c0 -51.333 0.166992 -102.5 0.5 -153.5s0.5 -101.833 0.5 -152.5h-149v687h149c0 -46 -0.166992 -91.667 -0.5 -137s-0.5 -91 -0.5 -137h267v274h149v-687h-149zM513 730l-165 91l-163 -92l-34 41l154 147h88l155 -146z" />
    <glyph glyph-name="hcircumflex" unicode="&#x125;" horiz-adv-x="569" 
d="M195 447c28 16.667 57.335 30.167 88.002 40.5s57.667 15.5 81 15.5c33.333 0 60 -4.5 80 -13.5s35.5 -21.167 46.5 -36.5s18.333 -33.333 22 -54s5.5 -42.334 5.5 -65.001v-334h-143v304c0 12.667 -0.666992 24.334 -2 35.001s-4.33301 20 -9 28
s-11.667 14.167 -21 18.5s-22 6.5 -38 6.5c-16.667 0 -35.334 -3.66699 -56.001 -11s-39.334 -16 -56.001 -26v-355h-144v715h141v-159l-3 -105zM287.002 742l-165 91l-163 -92l-34 41l154 147h88l155 -146z" />
    <glyph glyph-name="Hbar" unicode="&#x126;" horiz-adv-x="710" 
d="M488 0v307h-267v-307h-148v511h-64v57h64v120h148v-120h267v120h149v-120h61v-57h-61v-511h-149zM488 414v97h-267v-97h267z" />
    <glyph glyph-name="hbar" unicode="&#x127;" horiz-adv-x="587" 
d="M393 0l0.000976562 274c0 12.667 -0.666992 24.334 -2 35.001s-4.33301 20 -9 28s-11.667 14.167 -21 18.5s-21.666 6.5 -36.999 6.5c-16.667 0 -35.5 -3.66699 -56.5 -11s-39.833 -16 -56.5 -26v-325h-143v547h-63v61h63v107h141v-107h180v-61h-181
c0 -21.333 -0.166992 -42.333 -0.5 -63s-0.5 -41.667 -0.5 -63c18 9.33301 34.5 17.333 49.5 24s29.167 12 42.5 16s26.666 7 39.999 9s27.666 3 42.999 3c32.667 0 59.167 -4.5 79.5 -13.5s36 -21.167 47 -36.5s18.333 -33.333 22 -54s5.5 -42.334 5.5 -65.001v-304h-143z
" />
    <glyph glyph-name="Itilde" unicode="&#x128;" horiz-adv-x="308" 
d="M81 0v688h146v-688h-146zM240 750c-16.667 0 -33.168 2 -49.501 6s-32 8.5 -47 13.5l-42 13.5c-13 4 -24.5 6 -34.5 6l-56 -39l-41 32c11.333 32 25.833 55.333 43.5 70s37.5 22 59.5 22c14 0 28.5 -2 43.5 -6s30 -8.33301 45 -13s29.667 -9 44 -13s27.5 -6 39.5 -6
l56 41l41 -33c-10 -30 -23.667 -53.167 -41 -69.5s-37.666 -24.5 -60.999 -24.5z" />
    <glyph glyph-name="itilde" unicode="&#x129;" horiz-adv-x="342" 
d="M100 0v491h143v-491h-143zM260 572c-16.667 0 -33.168 2 -49.501 6s-32 8.5 -47 13.5l-42 13.5c-13 4 -24.5 6 -34.5 6l-56 -39l-41 32c11.333 32 25.833 55.333 43.5 70s37.5 22 59.5 22c14 0 28.5 -2 43.5 -6s30 -8.33301 45 -13s29.667 -9 44 -13s27.5 -6 39.5 -6
l56 41l41 -33c-10 -30 -23.667 -53.167 -41 -69.5s-37.666 -24.5 -60.999 -24.5z" />
    <glyph glyph-name="Imacron" unicode="&#x12a;" horiz-adv-x="308" 
d="M81 0v688h146v-688h-146zM-21 839h354v-91h-354v91z" />
    <glyph glyph-name="imacron" unicode="&#x12b;" horiz-adv-x="323" 
d="M89 0v491h143v-491h-143zM-20 674h363v-91h-363v91z" />
    <glyph glyph-name="Ibreve" unicode="&#x12c;" horiz-adv-x="308" 
d="M153 733c-20 0 -38.6709 3.50195 -56.0039 10.502s-33.5 16.333 -48.5 28s-29.167 25.334 -42.5 41.001s-25.666 32.167 -36.999 49.5l58 44c20.667 -28 42.834 -49.167 66.501 -63.5s44.834 -21.5 63.501 -21.5c6 0 13.5 0.5 22.5 1.5s19.833 4.16699 32.5 9.5
s26.834 13.166 42.501 23.499s33.5 25.166 53.5 44.499l38 -38c-31.333 -48.667 -63.833 -82.334 -97.5 -101.001s-65.5 -28 -95.5 -28zM80.9961 0.00195312v688h146v-688h-146z" />
    <glyph glyph-name="ibreve" unicode="&#x12d;" horiz-adv-x="344" 
d="M89 0v491h143v-491h-143zM166 547c-20 0 -38.833 3.66797 -56.5 11.001s-34.167 17.166 -49.5 29.499s-29.666 26.333 -42.999 42s-25.666 32.167 -36.999 49.5l60 45c21.333 -28.667 43.666 -50 66.999 -64s44 -21 62 -21c6 0 13.5 0.333008 22.5 1s19.5 3.5 31.5 8.5
s26 12.667 42 23s34.667 25.5 56 45.5l43 -39c-16 -24.667 -32.5 -45.334 -49.5 -62.001s-34 -30.167 -51 -40.5s-33.833 -17.666 -50.5 -21.999s-32.334 -6.5 -47.001 -6.5z" />
    <glyph glyph-name="Iogonek" unicode="&#x12e;" horiz-adv-x="308" 
d="M185 0c-12 -18.667 -21.165 -38 -27.498 -58s-9.5 -37.333 -9.5 -52c0 -16.667 4.5 -28.5 13.5 -35.5s22.167 -10.5 39.5 -10.5c13.333 0 25.666 1.16699 36.999 3.5s22.666 4.83301 33.999 7.5l12 -46c-19.333 -10 -39.333 -17.5 -60 -22.5s-41 -7.5 -61 -7.5
c-35.333 0 -62 7.16699 -80 21.5s-27 34.166 -27 59.499c0 17.333 4.33301 38.333 13 63s26 50.334 52 77.001h-40v688h146v-688h-42z" />
    <glyph glyph-name="iogonek" unicode="&#x12f;" horiz-adv-x="299" 
d="M173 0c-11.333 -18 -19.665 -36.3311 -24.998 -54.998s-8 -34.667 -8 -48c0 -16.667 4.5 -28.5 13.5 -35.5s22.167 -10.5 39.5 -10.5c13.333 0 25.666 1.16699 36.999 3.5s22.666 4.83301 33.999 7.5l12 -46c-19.333 -10 -39.333 -17.5 -60 -22.5s-41 -7.5 -61 -7.5
c-35.333 0 -62 7.16699 -80 21.5s-27 34.166 -27 59.499c0 16.667 4 36.667 12 60s23.667 47.666 47 72.999h-30v491h143v-491h-47zM233.001 627.002c0 -21.333 -7.16699 -39.333 -21.5 -54s-35.5 -22 -63.5 -22c-26.667 0 -47 7.33301 -61 22s-21 32.667 -21 54
c0 22 7.16699 40.333 21.5 55s34.5 22 60.5 22c28 0 49.167 -7.33301 63.5 -22s21.5 -33 21.5 -55z" />
    <glyph glyph-name="Idotaccent" unicode="&#x130;" horiz-adv-x="308" 
d="M81 0v688h146v-688h-146zM236 833c0 -21.333 -7.16699 -39.333 -21.5 -54s-35.166 -22 -62.499 -22c-26.667 0 -46.667 7.33301 -60 22s-20 32.667 -20 54c0 22.667 6.66699 41.167 20 55.5s33.333 21.5 60 21.5c27.333 0 48.166 -7.16699 62.499 -21.5
s21.5 -32.833 21.5 -55.5z" />
    <glyph glyph-name="dotlessi" unicode="&#x131;" horiz-adv-x="299" 
d="M77 0v491h143v-491h-143z" />
    <glyph glyph-name="IJ" unicode="&#x132;" horiz-adv-x="656" 
d="M81 0v688h146v-688h-146zM419 689l147.001 -0.00195312l-1 -538c0 -95.333 -24.333 -170.5 -73 -225.5s-120.667 -94.167 -216 -117.5l-35 102c35.333 18.667 64.333 36.334 87 53.001s40.667 34.334 54 53.001s22.666 39.167 27.999 61.5s8 48.5 8 78.5z" />
    <glyph glyph-name="ij" unicode="&#x133;" horiz-adv-x="583" 
d="M77 0v491h143v-491h-143zM233 627c0 -21.333 -7.16699 -39.333 -21.5 -54s-35.5 -22 -63.5 -22c-26.667 0 -47 7.33301 -61 22s-21 32.667 -21 54c0 22 7.16699 40.333 21.5 55s34.5 22 60.5 22c28 0 49.167 -7.33301 63.5 -22s21.5 -33 21.5 -55zM361 491
l144.001 -0.000976562v-316.5c0 -77 -0.333008 -119.833 -1 -128.5c-0.666992 -39.333 -5.33398 -73.666 -14.001 -102.999s-22 -54.833 -40 -76.5s-41.167 -40.167 -69.5 -55.5s-62.833 -28.333 -103.5 -39c-1.33301 2.66699 -3.83301 8.83398 -7.5 18.501l-11.5 30.5
c-4 10.667 -8 20.667 -12 30s-6.66699 15.333 -8 18c26 14.667 47 28.167 63 40.5s28.5 25.166 37.5 38.499s15 28.5 18 45.5s4.5 37.833 4.5 62.5v435zM518.001 626.999c0 -21.333 -7.16699 -39.333 -21.5 -54s-35.166 -22 -62.499 -22s-47.833 7.33301 -61.5 22
s-20.5 32.667 -20.5 54c0 22 7 40.333 21 55s34.333 22 61 22c27.333 0 48.166 -7.33301 62.499 -22s21.5 -33 21.5 -55z" />
    <glyph glyph-name="Jcircumflex" unicode="&#x134;" horiz-adv-x="365" 
d="M127 690l147.001 -0.00195312l-1 -538c0 -95.333 -24.333 -170.5 -73 -225.5s-120.667 -94.167 -216 -117.5l-35 102c35.333 18.667 64.333 36.334 87 53.001s40.667 34.334 54 53.001s22.666 39.167 27.999 61.5s8 48.5 8 78.5zM365.001 733.998l-165 91l-163 -92
l-34 41l154 147h88l155 -146z" />
    <glyph glyph-name="jcircumflex" unicode="&#x135;" horiz-adv-x="362" 
d="M107 490l142.999 0.000976562v-451c0 -36 -4.16699 -68.167 -12.5 -96.5s-21.666 -53.333 -39.999 -75s-41.833 -40.167 -70.5 -55.5s-63 -28 -103 -38c-7.33301 15.333 -14 31.166 -20 47.499l-18 48.5c25.333 14.667 45.833 28 61.5 40s28 24.667 37 38
s15 28.5 18 45.5s4.5 37.5 4.5 61.5v435zM381.999 570.001c-6 -7.33301 -12.168 -14.1689 -18.501 -20.502s-12.166 -13.166 -17.499 -20.499l-165 95l-163 -95l-16 20c-5.33301 6.66699 -11 13.334 -17 20.001l76 77.5l77 76.5h88l77 -76.5z" />
    <glyph glyph-name="Kcommaaccent" unicode="&#x136;" horiz-adv-x="665" 
d="M225 419l42 48l203 220h171l-262 -269l277 -418h-174l-101.5 160l-101.5 160l-61 -62v-258h-146v687h146v-268h7zM258 -104c0 17.333 6.50098 32.168 19.501 44.501s30.167 18.5 51.5 18.5c24.667 0 43 -7.83301 55 -23.5s18 -33.5 18 -53.5
c-1.33301 -31.333 -12.5 -60.833 -33.5 -88.5s-46.5 -48.834 -76.5 -63.501l-31 39c12.667 10.667 22.667 21.5 30 32.5s11.666 23.167 12.999 36.5c-15.333 3.33301 -26.833 10 -34.5 20s-11.5 22.667 -11.5 38z" />
    <glyph glyph-name="kcommaaccent" unicode="&#x137;" horiz-adv-x="532" 
d="M189 323c1.33301 -0.666992 3.33203 -1 5.99902 -1l158 169h160l-185 -192l36 -42c4.66699 -8 11.334 -18.667 20.001 -32l28.5 -45l32.5 -51.5l32.5 -51.5l28.5 -45.5l20 -31.5h-158l-66 107.5l-65 108.5l-43 -44v-172h-145v714h145l-1 -249
c0 -21.333 -0.333008 -45 -1 -71s-1.66699 -49.667 -3 -71zM196.999 -104c0 17.333 6.50098 32.168 19.501 44.501s30.167 18.5 51.5 18.5c24.667 0 43 -7.83301 55 -23.5s18 -33.5 18 -53.5c-1.33301 -31.333 -12.5 -60.833 -33.5 -88.5s-46.5 -48.834 -76.5 -63.501
l-31 39c12.667 10.667 22.667 21.5 30 32.5s11.666 23.167 12.999 36.5c-15.333 3.33301 -26.833 10 -34.5 20s-11.5 22.667 -11.5 38z" />
    <glyph glyph-name="kgreenlandic" unicode="&#x138;" horiz-adv-x="531" 
d="M189 323c1.33301 -0.666992 3.33301 -1 6 -1l79.5 84l78.5 85h160l-185 -192l36 -42l162 -257h-158l-66 107.5l-65 108.5l-43 -44v-172h-145v490h145v-36c0 -12 -0.333008 -24 -1 -36l-4 -95v0z" />
    <glyph glyph-name="Lacute" unicode="&#x139;" horiz-adv-x="579" 
d="M72 0v688h148v-585h349v-103h-497zM154 733l-47 49l147 169l76 -79z" />
    <glyph glyph-name="lacute" unicode="&#x13a;" horiz-adv-x="272" 
d="M206 0h-142v716h143zM124 746l-47 49l147 169l76 -79z" />
    <glyph glyph-name="Lcommaaccent" unicode="&#x13b;" horiz-adv-x="579" 
d="M72 0v688h148v-585h349v-103h-497zM247 -104c0 17.333 6.50098 32.168 19.501 44.501s30.167 18.5 51.5 18.5c24.667 0 43 -7.83301 55 -23.5s18 -33.5 18 -53.5c-1.33301 -31.333 -12.5 -60.833 -33.5 -88.5s-46.5 -48.834 -76.5 -63.501l-31 39
c12.667 10.667 22.667 21.5 30 32.5s11.666 23.167 12.999 36.5c-15.333 3.33301 -26.833 10 -34.5 20s-11.5 22.667 -11.5 38z" />
    <glyph glyph-name="lcommaaccent" unicode="&#x13c;" horiz-adv-x="272" 
d="M206 0h-142v716h143zM68 -104c0 17.333 6.50098 32.168 19.501 44.501s30.167 18.5 51.5 18.5c24.667 0 43 -7.83301 55 -23.5s18 -33.5 18 -53.5c-1.33301 -31.333 -12.5 -60.833 -33.5 -88.5s-46.5 -48.834 -76.5 -63.501l-31 39c12.667 10.667 22.667 21.5 30 32.5
s11.666 23.167 12.999 36.5c-15.333 3.33301 -26.833 10 -34.5 20s-11.5 22.667 -11.5 38z" />
    <glyph glyph-name="Lcaron" unicode="&#x13d;" horiz-adv-x="579" 
d="M72 0v688h148v-585h349v-103h-497zM389 626c0 17.333 6.50098 32.168 19.501 44.501s30.167 18.5 51.5 18.5c24.667 0 43 -7.83301 55 -23.5s18 -33.5 18 -53.5c-1.33301 -31.333 -12.5 -60.833 -33.5 -88.5s-46.5 -48.834 -76.5 -63.501l-31 39
c12.667 10.667 22.667 21.5 30 32.5s11.666 23.167 12.999 36.5c-15.333 3.33301 -26.833 10 -34.5 20s-11.5 22.667 -11.5 38z" />
    <glyph glyph-name="lcaron" unicode="&#x13e;" horiz-adv-x="414" 
d="M273 661c0 17.333 6.50098 32.168 19.501 44.501s30.167 18.5 51.5 18.5c24.667 0 43 -7.83301 55 -23.5s18 -33.5 18 -53.5c-1.33301 -31.333 -12.5 -60.833 -33.5 -88.5s-46.5 -48.834 -76.5 -63.501l-31 39c12.667 10.667 22.667 21.5 30 32.5
s11.666 23.167 12.999 36.5c-15.333 3.33301 -26.833 10 -34.5 20s-11.5 22.667 -11.5 38zM206.001 0.00195312h-142v716h143z" />
    <glyph glyph-name="Ldot" unicode="&#x13f;" horiz-adv-x="579" 
d="M72 0v688h148v-585h349v-103h-497zM539 398c0 -21.333 -7.16699 -39.333 -21.5 -54s-35.166 -22 -62.499 -22c-26.667 0 -46.667 7.33301 -60 22s-20 32.667 -20 54c0 22.667 6.66699 41.167 20 55.5s33.333 21.5 60 21.5c27.333 0 48.166 -7.16699 62.499 -21.5
s21.5 -32.833 21.5 -55.5z" />
    <glyph glyph-name="ldot" unicode="&#x140;" horiz-adv-x="434" 
d="M430 374c0 -21.333 -7.16699 -39.333 -21.5 -54s-35.166 -22 -62.499 -22c-26.667 0 -46.667 7.33301 -60 22s-20 32.667 -20 54c0 22.667 6.66699 41.167 20 55.5s33.333 21.5 60 21.5c27.333 0 48.166 -7.16699 62.499 -21.5s21.5 -32.833 21.5 -55.5zM206 0h-142v716
h143z" />
    <glyph glyph-name="Lslash" unicode="&#x141;" horiz-adv-x="579" 
d="M72 0v223l-63 -37l-35 63l98 55v384h148v-298l112 64l33 -60l-145 -84v-207h349v-103h-497z" />
    <glyph glyph-name="lslash" unicode="&#x142;" horiz-adv-x="319" 
d="M227 715c0 -47.333 -0.167969 -94.667 -0.500977 -142s-0.5 -95 -0.5 -143l80 46l33 -56c-18 -11.333 -36.5 -22.333 -55.5 -33l-57.5 -33v-354h-142v272l-36.5 -21.5c-12.333 -7 -24.166 -14.167 -35.499 -21.5l-32 59l104 61v366h143v0z" />
    <glyph glyph-name="Nacute" unicode="&#x143;" horiz-adv-x="742" 
d="M526 214l-0.00195312 473h143v-687h-148l-233 370l-34.5 57l-34.5 57c-1.33301 0 -2.16602 -0.166992 -2.49902 -0.5s-1.16602 -0.5 -2.49902 -0.5v-483h-142v687h149l106.5 -166l105.5 -167l87 -140h6zM367.998 718l-47 49l147 169l76 -79z" />
    <glyph glyph-name="nacute" unicode="&#x144;" horiz-adv-x="569" 
d="M375 0v304c0 12.667 -0.666992 24.334 -2 35.001s-4.5 20 -9.5 28s-12.167 14.167 -21.5 18.5s-21.666 6.5 -36.999 6.5c-16.667 0 -35.334 -3.66699 -56.001 -11s-39.334 -16 -56.001 -26v-355h-144v491h136l2 -45l4 -2c28.667 19.333 58.834 34 90.501 44
s59.167 15 82.5 15c32.667 0 59 -4.5 79 -13.5s35.5 -21.167 46.5 -36.5s18.5 -33.333 22.5 -54s6 -42.334 6 -65.001v-334h-143zM249 532l-50 52l148 170l76 -82z" />
    <glyph glyph-name="Ncommaaccent" unicode="&#x145;" horiz-adv-x="742" 
d="M526 214l-0.00195312 473h143v-687h-148l-233 370l-34.5 57l-34.5 57c-1.33301 0 -2.16602 -0.166992 -2.49902 -0.5s-1.16602 -0.5 -2.49902 -0.5v-483h-142v687h149l106.5 -166l105.5 -167l87 -140h6zM294.998 -104c0 17.333 6.50098 32.168 19.501 44.501
s30.167 18.5 51.5 18.5c24.667 0 43 -7.83301 55 -23.5s18 -33.5 18 -53.5c-1.33301 -31.333 -12.5 -60.833 -33.5 -88.5s-46.5 -48.834 -76.5 -63.501l-31 39c12.667 10.667 22.667 21.5 30 32.5s11.666 23.167 12.999 36.5c-15.333 3.33301 -26.833 10 -34.5 20
s-11.5 22.667 -11.5 38z" />
    <glyph glyph-name="ncommaaccent" unicode="&#x146;" horiz-adv-x="569" 
d="M375 0v304c0 12.667 -0.666992 24.334 -2 35.001s-4.5 20 -9.5 28s-12.167 14.167 -21.5 18.5s-21.666 6.5 -36.999 6.5c-16.667 0 -35.334 -3.66699 -56.001 -11s-39.334 -16 -56.001 -26v-355h-144v491h136l2 -45l4 -2c28.667 19.333 58.834 34 90.501 44
s59.167 15 82.5 15c32.667 0 59 -4.5 79 -13.5s35.5 -21.167 46.5 -36.5s18.5 -33.333 22.5 -54s6 -42.334 6 -65.001v-334h-143zM221 -104c0 17.333 6.50098 32.168 19.501 44.501s30.167 18.5 51.5 18.5c24.667 0 43 -7.83301 55 -23.5s18 -33.5 18 -53.5
c-1.33301 -31.333 -12.5 -60.833 -33.5 -88.5s-46.5 -48.834 -76.5 -63.501l-31 39c12.667 10.667 22.667 21.5 30 32.5s11.666 23.167 12.999 36.5c-15.333 3.33301 -26.833 10 -34.5 20s-11.5 22.667 -11.5 38z" />
    <glyph glyph-name="Ncaron" unicode="&#x147;" horiz-adv-x="742" 
d="M526 214l-0.00195312 473h143v-687h-148l-233 370l-34.5 57l-34.5 57c-1.33301 0 -2.16602 -0.166992 -2.49902 -0.5s-1.16602 -0.5 -2.49902 -0.5v-483h-142v687h149l106.5 -166l105.5 -167l87 -140h6zM582.998 875l-156 -145h-87l-154 147l34 39l163 -92l165 93z" />
    <glyph glyph-name="ncaron" unicode="&#x148;" horiz-adv-x="569" 
d="M375 0v304c0 12.667 -0.666992 24.334 -2 35.001s-4.5 20 -9.5 28s-12.167 14.167 -21.5 18.5s-21.666 6.5 -36.999 6.5c-16.667 0 -35.334 -3.66699 -56.001 -11s-39.334 -16 -56.001 -26v-355h-144v491h136l2 -45l4 -2c28.667 19.333 58.834 34 90.501 44
s59.167 15 82.5 15c32.667 0 59 -4.5 79 -13.5s35.5 -21.167 46.5 -36.5s18.5 -33.333 22.5 -54s6 -42.334 6 -65.001v-334h-143zM479 697l-156 -154h-87l-155 155l33 40l165 -97l164 97z" />
    <glyph glyph-name="napostrophe" unicode="&#x149;" horiz-adv-x="675" 
d="M481 0v304c0 12.667 -0.666992 24.334 -2 35.001s-4.5 20 -9.5 28s-12.167 14.167 -21.5 18.5s-21.666 6.5 -36.999 6.5c-16.667 0 -35.334 -3.66699 -56.001 -11s-39.334 -16 -56.001 -26v-355h-144v491h136l2 -45l4 -2c28.667 19.333 58.834 34 90.501 44
s59.167 15 82.5 15c32.667 0 59 -4.5 79 -13.5s35.5 -21.167 46.5 -36.5s18.5 -33.333 22.5 -54s6 -42.334 6 -65.001v-334h-143zM19 648c0 17.333 6.50098 32.168 19.501 44.501s30.167 18.5 51.5 18.5c24.667 0 43 -7.83301 55 -23.5s18 -33.5 18 -53.5
c-1.33301 -31.333 -12.5 -60.833 -33.5 -88.5s-46.5 -48.834 -76.5 -63.501l-31 39c12.667 10.667 22.667 21.5 30 32.5s11.666 23.167 12.999 36.5c-15.333 3.33301 -26.833 10 -34.5 20s-11.5 22.667 -11.5 38z" />
    <glyph glyph-name="Eng" unicode="&#x14a;" horiz-adv-x="742" 
d="M526 214l-0.00195312 472.999h143v-707c-0.666992 -27.333 -3.66699 -52.666 -9 -75.999s-15.166 -43.666 -29.499 -60.999s-33.833 -31 -58.5 -41s-56.334 -15 -95.001 -15c-14.667 0 -32.167 1.16699 -52.5 3.5s-38.833 5.5 -55.5 9.5l12 100
c12 -1.33301 23.5 -2.5 34.5 -3.5s20.167 -1.5 27.5 -1.5c11.333 0 22.333 0.833008 33 2.5s20 5 28 10s14.333 11.667 19 20s7 19.166 7 32.499v32l-116.5 179l-116.5 183c-3.33301 4.66699 -8.66602 13.167 -15.999 25.5l-23 39.5l-23.5 39.5
c-7.66699 12.333 -12.834 20.833 -15.501 25.5c-1.33301 0 -2.16602 -0.166992 -2.49902 -0.5s-1.16602 -0.5 -2.49902 -0.5v-483h-142v687h149l106.5 -166l105.5 -167l87 -140h6z" />
    <glyph glyph-name="eng" unicode="&#x14b;" horiz-adv-x="569" 
d="M363 503c32 0 58.1719 -4.49902 78.5049 -13.499s36 -21.167 47 -36.5s18.5 -33.333 22.5 -54s6 -42.334 6 -65.001v-297v-27.5c0 -9 -0.333008 -17.833 -1 -26.5c-0.666992 -20 -3.83398 -39.833 -9.50098 -59.5s-15.667 -37.334 -30 -53.001s-33.833 -28.5 -58.5 -38.5
s-56 -15 -94 -15c-14 0 -31.333 1.16699 -52 3.5s-38.334 5.16602 -53.001 8.49902c1.33301 16 3.16602 31.833 5.49902 47.5s4.16602 31.5 5.49902 47.5c10 -1.33301 21.167 -2.33301 33.5 -3s22.5 -1 30.5 -1c26.667 0 46.667 5.5 60 16.5s20 30.5 20 58.5v309
c0 12 -0.833008 23.333 -2.5 34s-5 20 -10 28s-12.167 14.333 -21.5 19s-21.333 7 -36 7c-16.667 0 -35.167 -3.66699 -55.5 -11s-38.833 -16 -55.5 -26v-355h-144v491h136c0 -7.33301 0.166992 -14.666 0.5 -21.999s0.833008 -14.666 1.5 -21.999l4 -2
c28.667 19.333 58.667 33.833 90 43.5s58.666 14.5 81.999 14.5z" />
    <glyph glyph-name="Omacron" unicode="&#x14c;" horiz-adv-x="746" 
d="M694 344c0 -50.667 -6.66309 -97.5 -19.9961 -140.5s-33.333 -80.333 -60 -112s-59.834 -56.5 -99.501 -74.5s-85.834 -27 -138.501 -27c-56 0 -104.333 8.5 -145 25.5s-74.167 41 -100.5 72s-45.833 68 -58.5 111s-19 90.833 -19 143.5
c0 49.333 6.16699 95.666 18.5 138.999s31.5 81.333 57.5 114s59.333 58.334 100 77.001s89.667 28 147 28s106.166 -9.5 146.499 -28.5s73.166 -44.667 98.499 -77s43.833 -70 55.5 -113s17.5 -88.833 17.5 -137.5zM537.004 342c0 31.333 -2.16699 62.166 -6.5 92.499
s-12.333 57.333 -24 81s-28 42.834 -49 57.501s-48.167 22 -81.5 22c-34 0 -61.833 -7.16699 -83.5 -21.5s-38.834 -33.166 -51.501 -56.499s-21.334 -50.333 -26.001 -81s-7 -62.334 -7 -95.001c0 -78 12.5 -138.167 37.5 -180.5s68.5 -63.5 130.5 -63.5
c28.667 0 53.334 6.16699 74.001 18.5s37.334 29.5 50.001 51.5s22 47.833 28 77.5s9 62.167 9 97.5zM196.004 839h354v-91h-354v91z" />
    <glyph glyph-name="omacron" unicode="&#x14d;" horiz-adv-x="577" 
d="M537 246c0 -34 -4.33398 -66.498 -13.001 -97.498s-23 -58.333 -43 -82s-46 -42.334 -78 -56.001s-71.333 -20.5 -118 -20.5c-45.333 0 -83.666 6.66699 -114.999 20s-56.666 31.5 -75.999 54.5s-33.166 50 -41.499 81s-12.5 64.167 -12.5 99.5
c0 34.667 4.66699 67.5 14 98.5s24 58.167 44 81.5s45.833 42 77.5 56s70.167 21 115.5 21c46 0 84.667 -6.83301 116 -20.5s56.666 -32.334 75.999 -56.001s33.166 -51 41.499 -82s12.5 -63.5 12.5 -97.5zM388.999 245.002c0 19.333 -1.33301 38.335 -4 57.002
s-7.5 35.334 -14.5 50.001s-16.833 26.5 -29.5 35.5s-29.334 13.5 -50.001 13.5s-37.667 -4.5 -51 -13.5s-24 -20.833 -32 -35.5s-13.5 -31.334 -16.5 -50.001s-4.5 -37.667 -4.5 -57c0 -22 1.33301 -42.333 4 -61s7.83398 -34.834 15.501 -48.501s18.167 -24.5 31.5 -32.5
s31 -12 53 -12c20 0 36.5 4.16699 49.5 12.5s23 19.666 30 33.999s11.833 30.833 14.5 49.5s4 38 4 58zM106.999 674.004h363v-91h-363v91z" />
    <glyph glyph-name="Obreve" unicode="&#x14e;" horiz-adv-x="746" 
d="M694 344c0 -50.667 -6.66309 -97.5 -19.9961 -140.5s-33.333 -80.333 -60 -112s-59.834 -56.5 -99.501 -74.5s-85.834 -27 -138.501 -27c-56 0 -104.333 8.5 -145 25.5s-74.167 41 -100.5 72s-45.833 68 -58.5 111s-19 90.833 -19 143.5
c0 49.333 6.16699 95.666 18.5 138.999s31.5 81.333 57.5 114s59.333 58.334 100 77.001s89.667 28 147 28s106.166 -9.5 146.499 -28.5s73.166 -44.667 98.499 -77s43.833 -70 55.5 -113s17.5 -88.833 17.5 -137.5zM537.004 342c0 31.333 -2.16699 62.166 -6.5 92.499
s-12.333 57.333 -24 81s-28 42.834 -49 57.501s-48.167 22 -81.5 22c-34 0 -61.833 -7.16699 -83.5 -21.5s-38.834 -33.166 -51.501 -56.499s-21.334 -50.333 -26.001 -81s-7 -62.334 -7 -95.001c0 -78 12.5 -138.167 37.5 -180.5s68.5 -63.5 130.5 -63.5
c28.667 0 53.334 6.16699 74.001 18.5s37.334 29.5 50.001 51.5s22 47.833 28 77.5s9 62.167 9 97.5zM369.004 737c-20 0 -38.6709 3.50195 -56.0039 10.502s-33.5 16.333 -48.5 28s-29.167 25.334 -42.5 41.001s-25.666 32.167 -36.999 49.5l58 44
c20.667 -28 42.834 -49.167 66.501 -63.5s44.834 -21.5 63.501 -21.5c6 0 13.5 0.5 22.5 1.5s19.833 4.16699 32.5 9.5s26.834 13.166 42.501 23.499s33.5 25.166 53.5 44.499l38 -38c-31.333 -48.667 -63.833 -82.334 -97.5 -101.001s-65.5 -28 -95.5 -28z" />
    <glyph glyph-name="obreve" unicode="&#x14f;" horiz-adv-x="577" 
d="M537 246c0 -34 -4.33398 -66.498 -13.001 -97.498s-23 -58.333 -43 -82s-46 -42.334 -78 -56.001s-71.333 -20.5 -118 -20.5c-45.333 0 -83.666 6.66699 -114.999 20s-56.666 31.5 -75.999 54.5s-33.166 50 -41.499 81s-12.5 64.167 -12.5 99.5
c0 34.667 4.66699 67.5 14 98.5s24 58.167 44 81.5s45.833 42 77.5 56s70.167 21 115.5 21c46 0 84.667 -6.83301 116 -20.5s56.666 -32.334 75.999 -56.001s33.166 -51 41.499 -82s12.5 -63.5 12.5 -97.5zM388.999 245.002c0 19.333 -1.33301 38.335 -4 57.002
s-7.5 35.334 -14.5 50.001s-16.833 26.5 -29.5 35.5s-29.334 13.5 -50.001 13.5s-37.667 -4.5 -51 -13.5s-24 -20.833 -32 -35.5s-13.5 -31.334 -16.5 -50.001s-4.5 -37.667 -4.5 -57c0 -22 1.33301 -42.333 4 -61s7.83398 -34.834 15.501 -48.501s18.167 -24.5 31.5 -32.5
s31 -12 53 -12c20 0 36.5 4.16699 49.5 12.5s23 19.666 30 33.999s11.833 30.833 14.5 49.5s4 38 4 58zM285.999 547.004c-20 0 -38.833 3.66797 -56.5 11.001s-34.167 17.166 -49.5 29.499s-29.666 26.333 -42.999 42s-25.666 32.167 -36.999 49.5l60 45
c21.333 -28.667 43.666 -50 66.999 -64s44 -21 62 -21c6 0 13.5 0.333008 22.5 1s19.5 3.5 31.5 8.5s26 12.667 42 23s34.667 25.5 56 45.5l43 -39c-16 -24.667 -32.5 -45.334 -49.5 -62.001s-34 -30.167 -51 -40.5s-33.833 -17.666 -50.5 -21.999
s-32.334 -6.5 -47.001 -6.5z" />
    <glyph glyph-name="Ohungarumlaut" unicode="&#x150;" horiz-adv-x="746" 
d="M694 344c0 -50.667 -6.66309 -97.5 -19.9961 -140.5s-33.333 -80.333 -60 -112s-59.834 -56.5 -99.501 -74.5s-85.834 -27 -138.501 -27c-56 0 -104.333 8.5 -145 25.5s-74.167 41 -100.5 72s-45.833 68 -58.5 111s-19 90.833 -19 143.5
c0 49.333 6.16699 95.666 18.5 138.999s31.5 81.333 57.5 114s59.333 58.334 100 77.001s89.667 28 147 28s106.166 -9.5 146.499 -28.5s73.166 -44.667 98.499 -77s43.833 -70 55.5 -113s17.5 -88.833 17.5 -137.5zM537.004 342c0 31.333 -2.16699 62.166 -6.5 92.499
s-12.333 57.333 -24 81s-28 42.834 -49 57.501s-48.167 22 -81.5 22c-34 0 -61.833 -7.16699 -83.5 -21.5s-38.834 -33.166 -51.501 -56.499s-21.334 -50.333 -26.001 -81s-7 -62.334 -7 -95.001c0 -78 12.5 -138.167 37.5 -180.5s68.5 -63.5 130.5 -63.5
c28.667 0 53.334 6.16699 74.001 18.5s37.334 29.5 50.001 51.5s22 47.833 28 77.5s9 62.167 9 97.5zM303.004 735l-55 42l130 185l86 -68zM459.004 735l-54 42l129 185l86 -68z" />
    <glyph glyph-name="ohungarumlaut" unicode="&#x151;" horiz-adv-x="577" 
d="M537 246c0 -34 -4.33398 -66.498 -13.001 -97.498s-23 -58.333 -43 -82s-46 -42.334 -78 -56.001s-71.333 -20.5 -118 -20.5c-45.333 0 -83.666 6.66699 -114.999 20s-56.666 31.5 -75.999 54.5s-33.166 50 -41.499 81s-12.5 64.167 -12.5 99.5
c0 34.667 4.66699 67.5 14 98.5s24 58.167 44 81.5s45.833 42 77.5 56s70.167 21 115.5 21c46 0 84.667 -6.83301 116 -20.5s56.666 -32.334 75.999 -56.001s33.166 -51 41.499 -82s12.5 -63.5 12.5 -97.5zM388.999 245.002c0 19.333 -1.33301 38.335 -4 57.002
s-7.5 35.334 -14.5 50.001s-16.833 26.5 -29.5 35.5s-29.334 13.5 -50.001 13.5s-37.667 -4.5 -51 -13.5s-24 -20.833 -32 -35.5s-13.5 -31.334 -16.5 -50.001s-4.5 -37.667 -4.5 -57c0 -22 1.33301 -42.333 4 -61s7.83398 -34.834 15.501 -48.501s18.167 -24.5 31.5 -32.5
s31 -12 53 -12c20 0 36.5 4.16699 49.5 12.5s23 19.666 30 33.999s11.833 30.833 14.5 49.5s4 38 4 58zM189.999 530.004l-52 43l130 185l83 -67zM347.999 530.004l-51 43l129 185l84 -67z" />
    <glyph glyph-name="OE" unicode="&#x152;" horiz-adv-x="893" 
d="M455 0c-27.333 -6 -56.333 -9 -87 -9c-56 0 -104.333 8.5 -145 25.5s-74.167 40.833 -100.5 71.5s-45.833 67.5 -58.5 110.5s-19 90.833 -19 143.5c0 49.333 6.16699 95.666 18.5 138.999s31.5 81.333 57.5 114s59.333 58.334 100 77.001s89.667 28 147 28
c40.667 0 76 -4.33301 106 -13h372v-102h-310v-177h259v-99h-259v-206h323v-103h-404zM368 96l9.49902 -0.00195312c3 0 6.5 0.333008 10.5 1v496c-2.66699 0 -6.5 0.166992 -11.5 0.5s-8.83301 0.5 -11.5 0.5c-32 -1.33301 -58.667 -9.16602 -80 -23.499
s-38.333 -33.166 -51 -56.499s-21.5 -50 -26.5 -80s-7.5 -61 -7.5 -93c0 -78.667 12.833 -139.167 38.5 -181.5s68.834 -63.5 129.501 -63.5z" />
    <glyph glyph-name="oe" unicode="&#x153;" horiz-adv-x="877" 
d="M833 43c-32.667 -17.333 -66.333 -29.832 -101 -37.499s-68.667 -11.5 -102 -11.5c-43.333 0 -78.833 6.33301 -106.5 19s-50.167 30.334 -67.5 53.001c-18.667 -22 -42.334 -40.167 -71.001 -54.5s-64 -21.5 -106 -21.5c-44 0 -81.5 6.5 -112.5 19.5s-56.333 31 -76 54
s-34 49.833 -43 80.5s-13.5 63.667 -13.5 99c0 34.667 4.83301 67.667 14.5 99s24.834 58.833 45.501 82.5s46.667 42.5 78 56.5s69 21 113 21c40 0 74 -7 102 -21s50.667 -32.667 68 -56c17.333 23.333 39.833 42.666 67.5 57.999s63.167 23 106.5 23
c47.333 0 85.333 -8.33301 114 -25s50.5 -37.334 65.5 -62.001s24.833 -50.667 29.5 -78s7 -52 7 -74v-52h-318c0.666992 -38.667 10.5 -68 29.5 -88s50.833 -30 95.5 -30c26 0 51.5 2.66699 76.5 8s50.167 13 75.5 23zM384.001 245.001c0 18.667 -1.33301 37.335 -4 56.002
s-7.5 35.334 -14.5 50.001s-17 26.667 -30 36s-29.833 14 -50.5 14s-37.667 -4.66699 -51 -14s-23.833 -21.333 -31.5 -36s-13 -31.334 -16 -50.001s-4.5 -37.334 -4.5 -56.001c0 -20.667 1.33301 -40.334 4 -59.001s7.66699 -35 15 -49s17.666 -25.167 30.999 -33.5
s31 -12.5 53 -12.5c20.667 0 37.334 4.33301 50.001 13s22.667 20.167 30 34.5s12.333 30.833 15 49.5s4 37.667 4 57zM630.001 411.002c-16.667 0 -31.002 -3.16699 -43.002 -9.5s-22 -14.666 -30 -24.999s-14.167 -22.333 -18.5 -36s-7.16602 -27.834 -8.49902 -42.501
h185c-0.666992 34 -7.16699 61.333 -19.5 82s-34.166 31 -65.499 31z" />
    <glyph glyph-name="Racute" unicode="&#x154;" horiz-adv-x="645" 
d="M576 490c0 -18.667 -2.33008 -37.167 -6.99707 -55.5s-11.834 -35.333 -21.501 -51s-21.834 -29.667 -36.501 -42s-32 -21.833 -52 -28.5v-1c28.667 -9.33301 49.334 -25 62.001 -47s22.667 -46.333 30 -73l55 -192h-147l-26 89.5l-26 90.5
c-10.667 38 -25.5 63.667 -44.5 77s-42.5 20 -70.5 20h-74v-277h-146v687h279c39.333 0 73.166 -5.16699 101.499 -15.5s51.666 -24.5 69.999 -42.5s31.833 -39 40.5 -63s13 -49.333 13 -76zM323.003 378c12 0 24 1.66699 36 5s23 9 33 17s18.167 18.667 24.5 32
s9.5 30 9.5 50c0 34.667 -9.66699 60.167 -29 76.5s-44.333 24.5 -75 24.5h-104v-205h105zM287.003 729l-47 49l147 169l76 -79z" />
    <glyph glyph-name="racute" unicode="&#x155;" horiz-adv-x="416" 
d="M201 404c13.333 13.333 27.9971 26.001 43.9971 38.001s32.333 22.667 49 32s33 16.666 49 21.999s31 8 45 8c18.667 0 28 -11 28 -33c0 -9.33301 -1.33301 -20.5 -4 -33.5s-6.16699 -26.333 -10.5 -40s-9.16602 -26.5 -14.499 -38.5s-10.666 -21.667 -15.999 -29l-167 2
v-332h-143v491h141c0 -11.333 -0.666992 -25.333 -2 -42s-2.66602 -30.667 -3.99902 -42zM159.997 532.001l-50 52l148 170l76 -82z" />
    <glyph glyph-name="Rcommaaccent" unicode="&#x156;" horiz-adv-x="645" 
d="M576 490c0 -18.667 -2.33008 -37.167 -6.99707 -55.5s-11.834 -35.333 -21.501 -51s-21.834 -29.667 -36.501 -42s-32 -21.833 -52 -28.5v-1c28.667 -9.33301 49.334 -25 62.001 -47s22.667 -46.333 30 -73l55 -192h-147l-26 89.5l-26 90.5
c-10.667 38 -25.5 63.667 -44.5 77s-42.5 20 -70.5 20h-74v-277h-146v687h279c39.333 0 73.166 -5.16699 101.499 -15.5s51.666 -24.5 69.999 -42.5s31.833 -39 40.5 -63s13 -49.333 13 -76zM323.003 378c12 0 24 1.66699 36 5s23 9 33 17s18.167 18.667 24.5 32
s9.5 30 9.5 50c0 34.667 -9.66699 60.167 -29 76.5s-44.333 24.5 -75 24.5h-104v-205h105zM255.003 -104c0 17.333 6.50098 32.168 19.501 44.501s30.167 18.5 51.5 18.5c24.667 0 43 -7.83301 55 -23.5s18 -33.5 18 -53.5c-1.33301 -31.333 -12.5 -60.833 -33.5 -88.5
s-46.5 -48.834 -76.5 -63.501l-31 39c12.667 10.667 22.667 21.5 30 32.5s11.666 23.167 12.999 36.5c-15.333 3.33301 -26.833 10 -34.5 20s-11.5 22.667 -11.5 38z" />
    <glyph glyph-name="rcommaaccent" unicode="&#x157;" horiz-adv-x="416" 
d="M201 404c13.333 13.333 27.9971 26.001 43.9971 38.001s32.333 22.667 49 32s33 16.666 49 21.999s31 8 45 8c18.667 0 28 -11 28 -33c0 -9.33301 -1.33301 -20.5 -4 -33.5s-6.16699 -26.333 -10.5 -40s-9.16602 -26.5 -14.499 -38.5s-10.666 -21.667 -15.999 -29l-167 2
v-332h-143v491h141c0 -11.333 -0.666992 -25.333 -2 -42s-2.66602 -30.667 -3.99902 -42zM66.9971 -103.999c0 17.333 6.50098 32.168 19.501 44.501s30.167 18.5 51.5 18.5c24.667 0 43 -7.83301 55 -23.5s18 -33.5 18 -53.5c-1.33301 -31.333 -12.5 -60.833 -33.5 -88.5
s-46.5 -48.834 -76.5 -63.501l-31 39c12.667 10.667 22.667 21.5 30 32.5s11.666 23.167 12.999 36.5c-15.333 3.33301 -26.833 10 -34.5 20s-11.5 22.667 -11.5 38z" />
    <glyph glyph-name="Rcaron" unicode="&#x158;" horiz-adv-x="645" 
d="M576 490c0 -18.667 -2.33008 -37.167 -6.99707 -55.5s-11.834 -35.333 -21.501 -51s-21.834 -29.667 -36.501 -42s-32 -21.833 -52 -28.5v-1c28.667 -9.33301 49.334 -25 62.001 -47s22.667 -46.333 30 -73l55 -192h-147l-26 89.5l-26 90.5
c-10.667 38 -25.5 63.667 -44.5 77s-42.5 20 -70.5 20h-74v-277h-146v687h279c39.333 0 73.166 -5.16699 101.499 -15.5s51.666 -24.5 69.999 -42.5s31.833 -39 40.5 -63s13 -49.333 13 -76zM323.003 378c12 0 24 1.66699 36 5s23 9 33 17s18.167 18.667 24.5 32
s9.5 30 9.5 50c0 34.667 -9.66699 60.167 -29 76.5s-44.333 24.5 -75 24.5h-104v-205h105zM500.003 876l-156 -145h-87l-154 147l34 39l163 -92l165 93z" />
    <glyph glyph-name="rcaron" unicode="&#x159;" horiz-adv-x="416" 
d="M201 404c13.333 13.333 27.9971 26.001 43.9971 38.001s32.333 22.667 49 32s33 16.666 49 21.999s31 8 45 8c18.667 0 28 -11 28 -33c0 -9.33301 -1.33301 -20.5 -4 -33.5s-6.16699 -26.333 -10.5 -40s-9.16602 -26.5 -14.499 -38.5s-10.666 -21.667 -15.999 -29l-167 2
v-332h-143v491h141c0 -11.333 -0.666992 -25.333 -2 -42s-2.66602 -30.667 -3.99902 -42zM391.997 697.001l-156 -154h-87l-155 155l33 40l165 -97l164 97z" />
    <glyph glyph-name="Sacute" unicode="&#x15a;" horiz-adv-x="623" 
d="M320 701c34 0 70.3291 -3.50195 108.996 -10.502s75 -19.833 109 -38.5l-38 -100c-34 14 -67.167 23.167 -99.5 27.5s-60.833 6.5 -85.5 6.5c-31.333 0 -56 -7.33301 -74 -22s-27 -36.667 -27 -66c0 -13.333 3.83301 -24.5 11.5 -33.5s17.834 -16.833 30.501 -23.5
s27.167 -12.334 43.5 -17.001s33.5 -9 51.5 -13c23.333 -6 48.5 -13 75.5 -21s52 -19.667 75 -35s42 -35.666 57 -60.999s22.5 -58.333 22.5 -99c0 -65.333 -24 -115.833 -72 -151.5s-120.333 -53.5 -217 -53.5c-17.333 0 -36.5 1 -57.5 3s-42.5 5.16699 -64.5 9.5
s-44 10 -66 17s-43 15.5 -63 25.5l38 104c48.667 -19.333 92.334 -31.666 131.001 -36.999s69.667 -8 93 -8c40.667 0 71.334 6.83301 92.001 20.5s31 37.167 31 70.5c0 14.667 -2.66699 26.834 -8 36.501s-13 18 -23 25s-22 12.833 -36 17.5s-29.333 9.33398 -46 14.001
c-34 8.66699 -66.333 17.5 -97 26.5s-57.667 20.833 -81 35.5s-41.833 33.167 -55.5 55.5s-20.5 51.166 -20.5 86.499c0 62.667 21.833 113.167 65.5 151.5s108.834 57.5 195.501 57.5zM294.996 730.998l-47 49l147 169l76 -79z" />
    <glyph glyph-name="sacute" unicode="&#x15b;" horiz-adv-x="491" 
d="M258 503c26 0 54.835 -2.83008 86.502 -8.49707s60.5 -15.5 86.5 -29.5c-1.33301 -2.66699 -3.5 -8.16699 -6.5 -16.5s-6 -17.333 -9 -27s-6 -18.834 -9 -27.501s-5.16699 -14.334 -6.5 -17.001c-26.667 10 -51.334 16.833 -74.001 20.5s-43.667 5.5 -63 5.5
c-18 0 -34.5 -2.83301 -49.5 -8.5s-22.5 -17.834 -22.5 -36.501c0 -6.66699 2.83301 -12.5 8.5 -17.5s12.667 -9.5 21 -13.5s17.666 -7.33301 27.999 -10s20.166 -5.33398 29.499 -8.00098c20.667 -6 41.667 -12.833 63 -20.5s40.833 -17.834 58.5 -30.501
s32.167 -28.5 43.5 -47.5s17 -42.833 17 -71.5c0 -47.333 -19 -83.666 -57 -108.999s-95.333 -38 -172 -38c-14 0 -29.5 0.666992 -46.5 2s-34.5 3.66602 -52.5 6.99902s-35.667 7.5 -53 12.5s-33.333 11.167 -48 18.5l31 89c40.667 -14.667 75.667 -23.834 105 -27.501
s52.333 -5.5 69 -5.5c23.333 0 43 3.83301 59 11.5s24 21.834 24 42.501c0 10 -2.66699 18.167 -8 24.5s-12.5 11.833 -21.5 16.5s-19 8.66699 -30 12l-32.5 10c-22.667 6.66699 -44.667 13.834 -66 21.501s-40.166 16.834 -56.499 27.501s-29.5 24 -39.5 40s-15 36 -15 60
c0 47.333 17.667 84 53 110s87 39 155 39zM224.002 532.003l-50 52l148 170l76 -82z" />
    <glyph glyph-name="Scircumflex" unicode="&#x15c;" horiz-adv-x="623" 
d="M320 701c34 0 70.3291 -3.50195 108.996 -10.502s75 -19.833 109 -38.5l-38 -100c-34 14 -67.167 23.167 -99.5 27.5s-60.833 6.5 -85.5 6.5c-31.333 0 -56 -7.33301 -74 -22s-27 -36.667 -27 -66c0 -13.333 3.83301 -24.5 11.5 -33.5s17.834 -16.833 30.501 -23.5
s27.167 -12.334 43.5 -17.001s33.5 -9 51.5 -13c23.333 -6 48.5 -13 75.5 -21s52 -19.667 75 -35s42 -35.666 57 -60.999s22.5 -58.333 22.5 -99c0 -65.333 -24 -115.833 -72 -151.5s-120.333 -53.5 -217 -53.5c-17.333 0 -36.5 1 -57.5 3s-42.5 5.16699 -64.5 9.5
s-44 10 -66 17s-43 15.5 -63 25.5l38 104c48.667 -19.333 92.334 -31.666 131.001 -36.999s69.667 -8 93 -8c40.667 0 71.334 6.83301 92.001 20.5s31 37.167 31 70.5c0 14.667 -2.66699 26.834 -8 36.501s-13 18 -23 25s-22 12.833 -36 17.5s-29.333 9.33398 -46 14.001
c-34 8.66699 -66.333 17.5 -97 26.5s-57.667 20.833 -81 35.5s-41.833 33.167 -55.5 55.5s-20.5 51.166 -20.5 86.499c0 62.667 21.833 113.167 65.5 151.5s108.834 57.5 195.501 57.5zM488.996 731.998l-165 91l-163 -92l-34 41l154 147h88l155 -146z" />
    <glyph glyph-name="scircumflex" unicode="&#x15d;" horiz-adv-x="491" 
d="M258 503c26 0 54.835 -2.83008 86.502 -8.49707s60.5 -15.5 86.5 -29.5c-1.33301 -2.66699 -3.5 -8.16699 -6.5 -16.5s-6 -17.333 -9 -27s-6 -18.834 -9 -27.501s-5.16699 -14.334 -6.5 -17.001c-26.667 10 -51.334 16.833 -74.001 20.5s-43.667 5.5 -63 5.5
c-18 0 -34.5 -2.83301 -49.5 -8.5s-22.5 -17.834 -22.5 -36.501c0 -6.66699 2.83301 -12.5 8.5 -17.5s12.667 -9.5 21 -13.5s17.666 -7.33301 27.999 -10s20.166 -5.33398 29.499 -8.00098c20.667 -6 41.667 -12.833 63 -20.5s40.833 -17.834 58.5 -30.501
s32.167 -28.5 43.5 -47.5s17 -42.833 17 -71.5c0 -47.333 -19 -83.666 -57 -108.999s-95.333 -38 -172 -38c-14 0 -29.5 0.666992 -46.5 2s-34.5 3.66602 -52.5 6.99902s-35.667 7.5 -53 12.5s-33.333 11.167 -48 18.5l31 89c40.667 -14.667 75.667 -23.834 105 -27.501
s52.333 -5.5 69 -5.5c23.333 0 43 3.83301 59 11.5s24 21.834 24 42.501c0 10 -2.66699 18.167 -8 24.5s-12.5 11.833 -21.5 16.5s-19 8.66699 -30 12l-32.5 10c-22.667 6.66699 -44.667 13.834 -66 21.501s-40.166 16.834 -56.499 27.501s-29.5 24 -39.5 40s-15 36 -15 60
c0 47.333 17.667 84 53 110s87 39 155 39zM414.002 530.003l-165 95l-164 -96l-33 41l154 154h88l156 -152z" />
    <glyph glyph-name="Scedilla" unicode="&#x15e;" horiz-adv-x="623" 
d="M320 701c34 0 70.3311 -3.50293 108.998 -10.5029s75 -19.833 109 -38.5l-38 -100c-34 14 -67.167 23.167 -99.5 27.5s-60.833 6.5 -85.5 6.5c-31.333 0 -56 -7.33301 -74 -22s-27 -36.667 -27 -66c0 -13.333 3.83301 -24.5 11.5 -33.5s17.834 -16.833 30.501 -23.5
s27.167 -12.334 43.5 -17.001s33.5 -9 51.5 -13c23.333 -6 48.5 -13 75.5 -21s52 -19.667 75 -35s42 -35.666 57 -60.999s22.5 -58.333 22.5 -99c0 -60 -20.333 -107.5 -61 -142.5s-101.667 -55.167 -183 -60.5c-6 -8.66699 -12.333 -17.167 -19 -25.5
s-13 -17.166 -19 -26.499c32.667 -2.66699 58.5 -11 77.5 -25s28.5 -33.667 28.5 -59c0 -32 -15.667 -58.5 -47 -79.5s-80.333 -31.833 -147 -32.5v48c34 3.33301 60.667 9.66602 80 18.999s29 21.333 29 36c0 10 -3.16699 17.333 -9.5 22s-14.166 7.83398 -23.499 9.50098
s-19 2.5 -29 2.5h-27l-17 26l64 83c-17.333 0.666992 -35.833 2 -55.5 4s-39.834 5.16699 -60.501 9.5s-41.334 9.83301 -62.001 16.5s-40.334 15 -59.001 25l38 104c48.667 -19.333 92.334 -31.666 131.001 -36.999s69.667 -8 93 -8c40.667 0 71.334 6.83301 92.001 20.5
s31 37.167 31 70.5c0 14.667 -2.66699 26.834 -8 36.501s-13 18 -23 25s-22 12.833 -36 17.5s-29.333 9.33398 -46 14.001c-34 8.66699 -66.333 17.5 -97 26.5s-57.667 20.833 -81 35.5s-41.833 33.167 -55.5 55.5s-20.5 51.166 -20.5 86.499
c0 62.667 21.833 113.167 65.5 151.5s108.834 57.5 195.501 57.5z" />
    <glyph glyph-name="scedilla" unicode="&#x15f;" horiz-adv-x="491" 
d="M258 503c26 0 54.835 -2.83105 86.502 -8.49805s60.5 -15.5 86.5 -29.5c-1.33301 -2.66699 -3.5 -8.16699 -6.5 -16.5s-6 -17.333 -9 -27s-6 -18.834 -9 -27.501s-5.16699 -14.334 -6.5 -17.001c-26.667 10 -51.334 16.833 -74.001 20.5s-43.667 5.5 -63 5.5
c-18 0 -34.5 -2.83301 -49.5 -8.5s-22.5 -17.834 -22.5 -36.501c0 -6.66699 2.83301 -12.5 8.5 -17.5s12.667 -9.5 21 -13.5s17.666 -7.33301 27.999 -10s20.166 -5.33398 29.499 -8.00098c20.667 -6 41.667 -12.833 63 -20.5s40.833 -17.834 58.5 -30.501
s32.167 -28.5 43.5 -47.5s17 -42.833 17 -71.5c0 -42 -15.333 -75.5 -46 -100.5s-76.334 -39.833 -137.001 -44.5l-39 -52c32.667 -2.66699 58.5 -11 77.5 -25s28.5 -33.667 28.5 -59c0 -32 -15.667 -58.5 -47 -79.5s-80.333 -31.833 -147 -32.5v48
c34 3.33301 60.667 9.66602 80 18.999s29 21.333 29 36c0 10 -3.16699 17.333 -9.5 22s-14.166 7.83398 -23.499 9.50098s-19 2.5 -29 2.5h-27l-17 26l64 83c-14 0.666992 -29 1.83398 -45 3.50098s-32.167 4 -48.5 7s-32.5 7 -48.5 12s-30.667 10.833 -44 17.5l31 89
c40.667 -14.667 75.667 -23.834 105 -27.501s52.333 -5.5 69 -5.5c23.333 0 43 3.83301 59 11.5s24 21.834 24 42.501c0 10 -2.66699 18.167 -8 24.5s-12.5 11.833 -21.5 16.5s-19 8.66699 -30 12l-32.5 10c-22.667 6.66699 -44.667 13.834 -66 21.501
s-40.166 16.834 -56.499 27.501s-29.5 24 -39.5 40s-15 36 -15 60c0 47.333 17.667 84 53 110s87 39 155 39z" />
    <glyph glyph-name="Scaron" unicode="&#x160;" horiz-adv-x="623" 
d="M320 701c34 0 70.3291 -3.50195 108.996 -10.502s75 -19.833 109 -38.5l-38 -100c-34 14 -67.167 23.167 -99.5 27.5s-60.833 6.5 -85.5 6.5c-31.333 0 -56 -7.33301 -74 -22s-27 -36.667 -27 -66c0 -13.333 3.83301 -24.5 11.5 -33.5s17.834 -16.833 30.501 -23.5
s27.167 -12.334 43.5 -17.001s33.5 -9 51.5 -13c23.333 -6 48.5 -13 75.5 -21s52 -19.667 75 -35s42 -35.666 57 -60.999s22.5 -58.333 22.5 -99c0 -65.333 -24 -115.833 -72 -151.5s-120.333 -53.5 -217 -53.5c-17.333 0 -36.5 1 -57.5 3s-42.5 5.16699 -64.5 9.5
s-44 10 -66 17s-43 15.5 -63 25.5l38 104c48.667 -19.333 92.334 -31.666 131.001 -36.999s69.667 -8 93 -8c40.667 0 71.334 6.83301 92.001 20.5s31 37.167 31 70.5c0 14.667 -2.66699 26.834 -8 36.501s-13 18 -23 25s-22 12.833 -36 17.5s-29.333 9.33398 -46 14.001
c-34 8.66699 -66.333 17.5 -97 26.5s-57.667 20.833 -81 35.5s-41.833 33.167 -55.5 55.5s-20.5 51.166 -20.5 86.499c0 62.667 21.833 113.167 65.5 151.5s108.834 57.5 195.501 57.5zM509.996 880.998l-156 -145h-87l-154 147l34 39l163 -92l165 93z" />
    <glyph glyph-name="scaron" unicode="&#x161;" horiz-adv-x="491" 
d="M258 503c26 0 54.835 -2.83008 86.502 -8.49707s60.5 -15.5 86.5 -29.5c-1.33301 -2.66699 -3.5 -8.16699 -6.5 -16.5s-6 -17.333 -9 -27s-6 -18.834 -9 -27.501s-5.16699 -14.334 -6.5 -17.001c-26.667 10 -51.334 16.833 -74.001 20.5s-43.667 5.5 -63 5.5
c-18 0 -34.5 -2.83301 -49.5 -8.5s-22.5 -17.834 -22.5 -36.501c0 -6.66699 2.83301 -12.5 8.5 -17.5s12.667 -9.5 21 -13.5s17.666 -7.33301 27.999 -10s20.166 -5.33398 29.499 -8.00098c20.667 -6 41.667 -12.833 63 -20.5s40.833 -17.834 58.5 -30.501
s32.167 -28.5 43.5 -47.5s17 -42.833 17 -71.5c0 -47.333 -19 -83.666 -57 -108.999s-95.333 -38 -172 -38c-14 0 -29.5 0.666992 -46.5 2s-34.5 3.66602 -52.5 6.99902s-35.667 7.5 -53 12.5s-33.333 11.167 -48 18.5l31 89c40.667 -14.667 75.667 -23.834 105 -27.501
s52.333 -5.5 69 -5.5c23.333 0 43 3.83301 59 11.5s24 21.834 24 42.501c0 10 -2.66699 18.167 -8 24.5s-12.5 11.833 -21.5 16.5s-19 8.66699 -30 12l-32.5 10c-22.667 6.66699 -44.667 13.834 -66 21.501s-40.166 16.834 -56.499 27.501s-29.5 24 -39.5 40s-15 36 -15 60
c0 47.333 17.667 84 53 110s87 39 155 39zM444.002 699.003l-156 -154h-87l-155 155l33 40l165 -97l164 97z" />
    <glyph glyph-name="Tcommaaccent" unicode="&#x162;" horiz-adv-x="610" 
d="M232 0v581h-218v107h582v-107h-217l-1 -581h-146zM238 -104c0 17.333 6.50098 32.168 19.501 44.501s30.167 18.5 51.5 18.5c24.667 0 43 -7.83301 55 -23.5s18 -33.5 18 -53.5c-1.33301 -31.333 -12.5 -60.833 -33.5 -88.5s-46.5 -48.834 -76.5 -63.501l-31 39
c12.667 10.667 22.667 21.5 30 32.5s11.666 23.167 12.999 36.5c-15.333 3.33301 -26.833 10 -34.5 20s-11.5 22.667 -11.5 38z" />
    <glyph glyph-name="tcommaaccent" unicode="&#x163;" horiz-adv-x="405" 
d="M225 627l0.00195312 -135h143v-94h-143v-222c0 -26 4.66699 -45.167 14 -57.5s26.666 -18.5 51.999 -18.5c9.33301 0 21.333 1.16699 36 3.5s31 5.5 49 9.5l18 -93c-21.333 -9.33301 -44.666 -16.333 -69.999 -21s-48.666 -7 -69.999 -7c-34 0 -62 4 -84 12
s-39.333 18.667 -52 32s-21.5 28.833 -26.5 46.5s-7.5 36.167 -7.5 55.5v260h-69v78l78 23c2 4 4.66699 11.667 8 23s6.66602 23.333 9.99902 36s6.66602 24.667 9.99902 36s5.66602 19 6.99902 23zM142.002 -104c0 17.333 6.50098 32.168 19.501 44.501
s30.167 18.5 51.5 18.5c24.667 0 43 -7.83301 55 -23.5s18 -33.5 18 -53.5c-1.33301 -31.333 -12.5 -60.833 -33.5 -88.5s-46.5 -48.834 -76.5 -63.501l-31 39c12.667 10.667 22.667 21.5 30 32.5s11.666 23.167 12.999 36.5c-15.333 3.33301 -26.833 10 -34.5 20
s-11.5 22.667 -11.5 38z" />
    <glyph glyph-name="Tcaron" unicode="&#x164;" horiz-adv-x="610" 
d="M232 0v581h-218v107h582v-107h-217l-1 -581h-146zM503 877l-156 -145h-87l-154 147l34 39l163 -92l165 93z" />
    <glyph glyph-name="tcaron" unicode="&#x165;" horiz-adv-x="521" 
d="M365 670c0 17.333 6.50098 32.168 19.501 44.501s30.167 18.5 51.5 18.5c24.667 0 43 -7.83301 55 -23.5s18 -33.5 18 -53.5c-1.33301 -31.333 -12.5 -60.833 -33.5 -88.5s-46.5 -48.834 -76.5 -63.501l-31 39c12.667 10.667 22.667 21.5 30 32.5
s11.666 23.167 12.999 36.5c-15.333 3.33301 -26.833 10 -34.5 20s-11.5 22.667 -11.5 38zM225.001 627.002l0.00195312 -135h143v-94h-143v-222c0 -26 4.66699 -45.167 14 -57.5s26.666 -18.5 51.999 -18.5c9.33301 0 21.333 1.16699 36 3.5s31 5.5 49 9.5l18 -93
c-21.333 -9.33301 -44.666 -16.333 -69.999 -21s-48.666 -7 -69.999 -7c-34 0 -62 4 -84 12s-39.333 18.667 -52 32s-21.5 28.833 -26.5 46.5s-7.5 36.167 -7.5 55.5v260h-69v78l78 23c2 4 4.66699 11.667 8 23s6.66602 23.333 9.99902 36s6.66602 24.667 9.99902 36
s5.66602 19 6.99902 23z" />
    <glyph glyph-name="Tbar" unicode="&#x166;" horiz-adv-x="610" 
d="M232 0v315h-143v68h143v198h-218v107h582v-107h-217v-198h135v-68h-136v-315h-146z" />
    <glyph glyph-name="tbar" unicode="&#x167;" horiz-adv-x="422" 
d="M223 332l136.004 0.00195312v-65h-136v-100c0 -24 5 -41.833 15 -53.5s27.667 -17.5 53 -17.5c11.333 0 23.666 1 36.999 3s28.666 5 45.999 9l18 -89c-21.333 -9.33301 -44.5 -16 -69.5 -20s-47.833 -6 -68.5 -6c-33.333 0 -61 3.66699 -83 11s-39.5 17.833 -52.5 31.5
s-22 30.5 -27 50.5s-7.5 42.667 -7.5 68v113h-64v65h64v68h-70v74c13.333 3.33301 26.5 7.16602 39.5 11.499s26.167 8.16602 39.5 11.499c5.33301 20 11.166 39.833 17.499 59.5s12.166 39.5 17.499 59.5l95 9v-135h143v-90h-143v-68z" />
    <glyph glyph-name="Utilde" unicode="&#x168;" horiz-adv-x="709" 
d="M641 253c0 -40.667 -5.66992 -77.334 -17.0029 -110.001s-28.666 -60.334 -51.999 -83.001s-53 -40 -89 -52s-78.667 -18 -128 -18c-51.333 0 -95.333 6 -132 18s-66.5 29.333 -89.5 52s-39.833 50.334 -50.5 83.001s-16 69.334 -16 110.001v435h146v-440
c0 -52 12.333 -90.167 37 -114.5s60.334 -36.5 107.001 -36.5c42.667 0 76.834 11.833 102.501 35.5s38.5 62.167 38.5 115.5l-1 440h145zM439.997 755c-16.667 0 -33.168 2 -49.501 6s-32 8.5 -47 13.5l-42 13.5c-13 4 -24.5 6 -34.5 6l-56 -39l-41 32
c11.333 32 25.833 55.333 43.5 70s37.5 22 59.5 22c14 0 28.5 -2 43.5 -6s30 -8.33301 45 -13s29.667 -9 44 -13s27.5 -6 39.5 -6l56 41l41 -33c-10 -30 -23.667 -53.167 -41 -69.5s-37.666 -24.5 -60.999 -24.5z" />
    <glyph glyph-name="utilde" unicode="&#x169;" horiz-adv-x="558" 
d="M199 -11c-32.667 0 -58.832 4.33105 -78.499 12.998s-34.834 20.667 -45.501 36s-17.667 33 -21 53s-5 41.667 -5 65v335h143v-304c0 -12 0.666992 -23.333 2 -34s4.33301 -20 9 -28s11.334 -14.333 20.001 -19s20.667 -7 36 -7c14 0 30.5 3.66699 49.5 11
s37.5 19 55.5 35v346c24 0 47.833 0.166992 71.5 0.5s47.5 0.5 71.5 0.5v-492h-133c-1.33301 8.66699 -2 17.334 -2 26.001s-0.666992 17.667 -2 27l-4 2c-15.333 -13.333 -30.833 -24.166 -46.5 -32.499s-30.834 -15 -45.501 -20s-28.5 -8.5 -41.5 -10.5
s-24.167 -3 -33.5 -3zM364.002 565.998c-16.667 0 -33.168 2 -49.501 6s-32 8.5 -47 13.5l-42 13.5c-13 4 -24.5 6 -34.5 6l-56 -39l-41 32c11.333 32 25.833 55.333 43.5 70s37.5 22 59.5 22c14 0 28.5 -2 43.5 -6s30 -8.33301 45 -13s29.667 -9 44 -13s27.5 -6 39.5 -6
l56 41l41 -33c-10 -30 -23.667 -53.167 -41 -69.5s-37.666 -24.5 -60.999 -24.5z" />
    <glyph glyph-name="Umacron" unicode="&#x16a;" horiz-adv-x="709" 
d="M641 253c0 -40.667 -5.66992 -77.334 -17.0029 -110.001s-28.666 -60.334 -51.999 -83.001s-53 -40 -89 -52s-78.667 -18 -128 -18c-51.333 0 -95.333 6 -132 18s-66.5 29.333 -89.5 52s-39.833 50.334 -50.5 83.001s-16 69.334 -16 110.001v435h146v-440
c0 -52 12.333 -90.167 37 -114.5s60.334 -36.5 107.001 -36.5c42.667 0 76.834 11.833 102.501 35.5s38.5 62.167 38.5 115.5l-1 440h145zM177.997 839h354v-91h-354v91z" />
    <glyph glyph-name="umacron" unicode="&#x16b;" horiz-adv-x="558" 
d="M199 -11c-32.667 0 -58.832 4.33105 -78.499 12.998s-34.834 20.667 -45.501 36s-17.667 33 -21 53s-5 41.667 -5 65v335h143v-304c0 -12 0.666992 -23.333 2 -34s4.33301 -20 9 -28s11.334 -14.333 20.001 -19s20.667 -7 36 -7c14 0 30.5 3.66699 49.5 11
s37.5 19 55.5 35v346c24 0 47.833 0.166992 71.5 0.5s47.5 0.5 71.5 0.5v-492h-133c-1.33301 8.66699 -2 17.334 -2 26.001s-0.666992 17.667 -2 27l-4 2c-15.333 -13.333 -30.833 -24.166 -46.5 -32.499s-30.834 -15 -45.501 -20s-28.5 -8.5 -41.5 -10.5
s-24.167 -3 -33.5 -3zM96.002 673.998h363v-91h-363v91z" />
    </font>
</defs>
</svg>
