<svg id="Layer_1" xmlns="http://www.w3.org/2000/svg" viewBox="0 0 1200 216"><style>.Drop_x0020_Shadow,.Outer_x0020_Glow_x0020_5_x0020_pt{fill:none}.Blue_x0020_Neon{fill:none;stroke:#8aacda;stroke-width:7;stroke-linecap:round;stroke-linejoin:round}.Chrome_x0020_Highlight{fill:url(#SVGID_1_);stroke:#fff;stroke-width:.3629;stroke-miterlimit:1}.Jive_GS{fill:#fd0}.Alyssa_GS{fill:#a6d0e4}.st0{fill:#7ccef3}.st1{fill:#dff2fd}</style><linearGradient id="SVGID_1_" gradientUnits="userSpaceOnUse" x1="593" y1="101" x2="593" y2="100"><stop offset="0" stop-color="#656565"/><stop offset=".618" stop-color="#1b1b1b"/><stop offset=".629" stop-color="#545454"/><stop offset=".983" stop-color="#3e3e3e"/></linearGradient><path class="st0" d="M595 214.6l-5.4-.6 2 1.9zM355.2 216l-37.7-34.3-7.3-.9 38.6 35.2zM368 216l-35.8-32.6-7.3-.8 36.7 33.4zM380.8 216L347 185.2l-7.4-.9 34.8 31.7zM393.6 216l-32-29.1-7.3-.8 32.9 29.9zM406.4 216l-30.1-27.3-7.3-.9 30.9 28.2zM342.4 216l-39.6-36-7.3-.9L336 216zM291.3 216L244 173l-7.4-.9 48.3 43.9zM304.1 216l-45.4-41.3-7.4-.9 46.4 42.2zM316.9 216l-43.5-39.5-7.3-.9 44.4 40.4zM329.7 216l-41.6-37.8-7.4-.9 42.6 38.7zM457.5 216l-22.3-20.3-7.4-.9 23.3 21.2zM483.1 216l-18.5-16.8-7.4-.9 19.5 17.7zM495.9 216l-16.6-15.1-7.4-.9 17.6 16zM508.7 216L494 202.7l-7.3-.9 15.6 14.2zM419.2 216l-28.1-25.6-7.4-.8 29.1 26.4zM534.2 216l-10.8-9.9-7.4-.8 11.8 10.7zM521.4 216l-12.7-11.6-7.4-.9L515 216zM470.3 216l-20.4-18.6-7.4-.9 21.4 19.5zM432 216l-26.2-23.8-7.4-.9 27.1 24.7zM444.7 216l-24.3-22.1-7.3-.9 25.2 23zM278.5 216l-49.2-44.8-7.3-.8 50.1 45.6zM163.5 216L97 155.5l-7.4-.9 67.5 61.4zM86.7 216l-78-71-7.3-.8 79 71.8zM73.9 216L0 148.7v5.9L67.5 216zM61.1 216L0 160.4v5.8L54.7 216zM112.3 216l-74.1-67.5-7.4-.8 75.1 68.3zM99.5 216l-76.1-69.2-7.3-.9 77 70.1zM10 216l-10-9.1v5.8l3.6 3.3zM22.8 216L0 195.2v5.9L16.4 216zM48.4 216L0 172v5.8L42 216zM125.1 216l-72.2-65.7-7.4-.9 73.2 66.6zM35.6 216L0 183.6v5.8L29.2 216zM214.6 216l-58.8-53.5-7.4-.9 59.8 54.4zM240.2 216l-55-50-7.4-.9 56 50.9zM265.7 216l-51.1-46.5-7.4-.9 52.1 47.4zM227.4 216l-56.9-51.8-7.4-.8L221 216zM252.9 216l-53-48.3-7.4-.8 54 49.1zM201.8 216l-60.7-55.2-7.3-.9 61.7 56.1zM137.9 216l-70.4-64-7.3-.9 71.3 64.9zM176.2 216l-64.6-58.7-7.3-.9 65.5 59.6zM150.7 216l-68.4-62.2-7.4-.9 69.4 63.1zM189 216l-62.6-57-7.4-.9 63.6 57.9zM547 216l-8.9-8.1-7.3-.9 9.9 9zM559.8 216l-7-6.4-7.4-.8 8 7.2zM572.6 216l-5.1-4.6-7.4-.9 6.1 5.5zM585.4 216l-3.2-2.9-7.3-.8 4.1 3.7z"/><path class="st1" d="M1200 100.5l-70.4-64-4.7 1.6 75.1 68.2zM1200 77.2l-51.6-46.9-4.7 1.5 56.3 51.3zM1200 88.9l-61-55.5-4.7 1.5 65.7 59.8zM1200 135.4l-98.4-89.5-4.7 1.5 103.1 93.8zM1200 112.1l-79.7-72.5-4.7 1.6L1200 118zM1200 123.8l-89.1-81.1-4.7 1.6 93.8 85.3zM1200 19.1l-4.9-4.4-4.7 1.5 9.6 8.7zM1200 30.8l-14.3-13-4.6 1.5 18.9 17.3zM1200 13l-.2.1.2.2zM1200 42.3l-23.6-21.4-4.7 1.6 28.3 25.7zM1200 54l-33-30-4.6 1.6 37.6 34.2zM1200 65.6l-42.3-38.5-4.7 1.6 47 42.8zM1200 193.6L1054.8 61.5l-4.7 1.5L1200 199.4zM1200 147l-107.8-98-4.7 1.5L1200 152.8z"/><path class="st0" d="M596.4 214.3l-.9.3 1.4.2z"/><path class="st1" d="M1200 170.3L1073.5 55.2l-4.7 1.6L1200 176.1zM1200 158.7L1082.9 52.1l-4.7 1.6L1200 164.5zM1200 181.9L1064.2 58.3l-4.7 1.6L1200 187.7zM1200 205.2L1045.4 64.6l-4.7 1.5L1200 211z"/><g><path class="st1" d="M994.4 216l-108-98.2-4.7 1.5L988 216zM930.5 216l-90.9-82.6-4.7 1.5 89.2 81.1zM1007.2 216L895.7 114.6l-4.6 1.6 109.7 99.8zM1045.5 216L923.8 105.3l-4.7 1.5 120 109.2zM1032.7 216L914.5 108.4l-4.7 1.6 116.5 106zM1019.9 216L905.1 111.5l-4.7 1.6L1013.5 216zM943.2 216l-94.3-85.7-4.6 1.5 92.5 84.2zM956 216l-97.7-88.9-4.7 1.6 96 87.3zM981.6 216L877 120.9l-4.7 1.6L975.2 216zM968.8 216l-101.1-92-4.7 1.6 99.4 90.4zM1058.3 216L933.2 102.2l-4.7 1.5L1051.9 216zM1147.8 216L998.7 80.3l-4.7 1.6L1141.4 216zM1160.6 216L1008 77.2l-4.7 1.6L1154.2 216zM1173.4 216l-156-141.9-4.7 1.5L1166.9 216zM1186.2 216L1026.7 71l-4.6 1.5L1179.8 216zM1135 216L989.3 83.5l-4.7 1.5 144 131zM1109.5 216L970.6 89.7l-4.7 1.5L1103 216zM1083.9 216l-132-120.1-4.7 1.6L1077.5 216zM1122.2 216L980 86.6l-4.7 1.5L1115.8 216zM1096.6 216L961.2 92.8l-4.7 1.6L1090.2 216zM1071.1 216L942.5 99l-4.7 1.6L1064.7 216zM879.3 216l-77.1-70.1-4.7 1.5 75.4 68.6zM738.7 216l-39.4-35.8-4.7 1.5 37.7 34.3zM789.8 216l-53.1-48.3-4.7 1.6 51.4 46.7zM751.4 216l-42.8-38.9-4.7 1.5L745 216zM764.2 216L718 173.9l-4.7 1.6 44.5 40.5zM777 216l-49.7-45.2-4.6 1.6 47.9 43.6zM725.9 216l-36-32.7-4.7 1.5 34.3 31.2zM674.7 216l-22.2-20.2-4.7 1.5 20.5 18.7zM687.5 216l-25.7-23.3-4.6 1.5 23.9 21.8zM713.1 216l-32.5-29.6-4.7 1.6 30.8 28zM700.3 216l-29.1-26.5-4.7 1.6 27.4 24.9zM853.7 216l-70.2-63.9-4.7 1.5 68.6 62.4zM892.1 216l-80.6-73.3-4.6 1.6 78.8 71.7zM661.9 216l-18.8-17.1-4.6 1.6 17.1 15.5zM904.9 216l-84-76.4-4.7 1.6 82.3 74.8zM866.5 216l-73.7-67-4.7 1.5 72 65.5zM917.6 216l-87.4-79.5-4.6 1.5 85.7 78zM828.1 216l-63.3-57.7-4.7 1.6 61.7 56.1zM815.4 216l-60-54.6-4.7 1.6 58.3 53zM802.6 216l-56.5-51.4-4.7 1.5 54.8 49.9zM840.9 216l-66.8-60.8-4.7 1.6 65.1 59.2z"/></g><path class="st1" d="M1198.9 216L1036.1 67.8l-4.7 1.6L1192.6 216zM649.2 216l-15.4-14-4.7 1.6 13.7 12.4zM636.3 216l-11.9-10.9-4.7 1.6L630 216zM623.6 216l-8.5-7.7-4.7 1.5 6.8 6.2zM605.8 216h5l-5.1-4.6-4.7 1.5 3.2 2.9z"/></svg>