<svg id="Layer_1" xmlns="http://www.w3.org/2000/svg" viewBox="0 0 1200 216"><style>.st0{fill:#dff2fd}.st1{fill:#e50076}.st2{fill:#7ccef3}</style><path class="st0" d="M0 112.1v6l.4.3H7zM0 100.2v6l13.6 12.2h6.6zM0 88.1v6l26.8 24.3h6.6zM0 76v6.1l40 36.3h6.6zM0 64.1v6l53.2 48.5h6.7zM0 52v6.1l66.5 60.3h6.6zM0 40.1v6l79.6 72.3h6.7zM0 28v6l92.9 84.4h6.6zM0 16.1v6l106.1 96.4h6.6zM0 4v6l119.3 108.4h6.6zM596.9 0l4.6 4.2 4.8-1.7-2.8-2.5z"/><path class="st1" d="M46.6 118.4l-29.1 90.9 2.1-.7 28.8-90.2h-1.8zm-7.3 0L9.2 212.2l2.1-.7 29.8-93h-1.8v-.1zm-7.3 0L1 215.1l2.1-.7 30.8-96H32zm-7.3 0L0 195.4v5.7l26.5-82.7h-1.8zm-7.3 0L0 172.5v5.7l19.2-59.8h-1.8zm-7.4 0L0 149.7v5.7l11.9-37H10zm-7.3 0L0 126.9v5.7l4.6-14.2H2.7zM273.1 118.4l-.3.9 2.1-.7.1-.2h-1.9zm-7.2 0l-1.2 3.8 2.1-.7 1-3.1h-1.9zm-7.3 0l-2.1 6.7 2.1-.7 1.9-6h-1.9zm-7.3 0l-3.1 9.6 2.1-.7 2.8-8.9h-1.8zm-7.3 0l-4 12.5 2.1-.7 3.8-11.8H244zm-7.3 0l-4.9 15.4 2.1-.7 4.7-14.7h-1.9zm-7.4 0l-5.9 18.3 2.1-.7 5.6-17.6h-1.8zm-7.3 0l-6.8 21.2 2.1-.7 6.6-20.5H222zm-7.3 0l-7.7 24.1 2.1-.7 7.5-23.4h-1.9zm-7.3 0l-8.7 27 2.1-.7 8.4-26.3h-1.8zm-7.3 0l-9.6 29.9 2.1-.7 9.4-29.2h-1.9zm-7.3 0l-10.5 32.8 2.1-.7 10.3-32.1h-1.9zm-7.3 0L174 154.1l2.1-.7 11.2-35h-1.8zm-7.3 0L165.8 157l2-.7 12.1-37.9h-1.7zm-7.3 0l-13.3 41.5 2-.7 13.1-40.8h-1.8zm-7.3 0l-14.2 44.4 2.1-.7 14-43.7h-1.9zm-7.4 0l-15.1 47.3 2.1-.7 14.9-46.6h-1.9zm-7.3 0l-16.1 50.2 2.1-.7 15.9-49.5h-1.9zm-7.3 0l-17 53.1 2.1-.7 16.8-52.4h-1.9zm-7.3 0l-18 56 2.1-.7 17.7-55.3h-1.8zm-7.3 0l-18.9 58.9 2-.7 18.7-58.2H127zm-7.3 0l-19.8 61.8 2.1-.7 19.6-61.1h-1.9zm-7.3 0l-20.7 64.7 2-.7 20.5-64h-1.8zm-7.3 0L83.5 186l2-.7 21.5-66.9h-1.9zm-7.4 0L75.2 189l2.1-.7 22.4-69.8h-1.9v-.1zm-7.3 0L67 191.8l2.1-.7 23.3-72.7h-2zm-7.2 0l-24.5 76.3 2.1-.7 24.3-75.6h-1.9zm-7.3 0l-25.4 79.2 2.1-.7 25.2-78.5h-1.9zm-7.3 0l-26.3 82.1 2.1-.7 26-81.4h-1.8zm-7.3 0l-27.3 85 2.1-.7 27-84.3h-1.8zm-7.3 0l-28.2 88 2.1-.7 28-87.2H54v-.1z"/><path class="st0" d="M8.8 0H2.1l130.4 118.4h6.6zM22 0h-6.6l130.3 118.4h6.7zM35.2 0h-6.6L159 118.4h6.6zM48.5 0h-6.7l130.3 118.4h6.7zM61.7 0h-6.6l130.3 118.4h6.6zM74.9 0h-6.7l130.4 118.4h6.6zM88.2 0h-6.7l130.3 118.4h6.6zM101.4 0h-6.7l130.4 118.4h6.6zM114.5 0H108l130.2 118.4h6.7zM127.8 0h-6.6l130.3 118.4h6.6zM141 0h-6.6l130.3 118.4h6.7zM154.2 0h-6.6l129.9 118.1 4.8-1.7zM167.4 0h-6.6L287 114.7l4.9-1.7zM180.6 0H174l122.6 111.4 4.8-1.7zM193.9 0h-6.7l118.9 108.1 4.8-1.7zM207.1 0h-6.7l115.3 104.8 4.8-1.7zM220.3 0h-6.6l111.5 101.4 4.7-1.7zM233.4 0h-6.5l107.7 98.1 4.8-1.8zM246.7 0h-6.6l104.1 94.6 4.8-1.7zM259.9 0h-6.6l100.4 91.3 4.7-1.7zM286.3 0h-6.5l93 84.6 4.8-1.7zM273.1 0h-6.6l96.8 88 4.8-1.7zM299.6 0h-6.7l89.4 81.3 4.8-1.7zM312.8 0h-6.7l85.8 78 4.7-1.8zM325.9 0h-6.6l82 74.6 4.8-1.7zM352.5 0h-6.7l74.6 67.8 4.8-1.7zM339.2 0h-6.5L411 71.2l4.7-1.7zM365.6 0H359l71 64.5 4.7-1.7zM378.9 0h-6.6l67.3 61.2 4.7-1.7zM392.1 0h-6.6L449 57.8l4.9-1.8zM405.3 0h-6.7l59.9 54.4 4.8-1.7zM411.9 0l56.2 51.1 4.7-1.7L418.5 0zM425.1 0l52.6 47.8 4.7-1.7L431.7 0zM445 0h-6.6l48.8 44.3 4.7-1.7zM451.6 0l45.1 41.1 4.8-1.7L458.1 0zM464.8 0l41.5 37.7 4.7-1.8L471.4 0zM477.9 0l37.7 34.3 4.8-1.7L484.6 0zM497.8 0h-6.6l34.1 31 4.7-1.7zM504.4 0l30.4 27.6 4.7-1.6L511 0zM524.3 0h-6.7l26.7 24.3 4.8-1.7zM530.8 0l23.1 21 4.8-1.7L537.5 0zM550.6 0H544l19.4 17.7 4.7-1.7zM557.3 0l15.6 14.1 4.7-1.7L563.9 0zM570.5 0l11.9 10.8 4.7-1.7-10-9.1zM583.7 0l8.2 7.5 4.8-1.7-6.5-5.8z"/><path class="st2" d="M614.9 0h-6.8l2.3 2.1 7.7.9zM621.5 0l4.1 3.8 7.7.9-5.1-4.7zM635 0l6.1 5.5 7.7.9-7.1-6.4zM648.6 0l8 7.2 7.7.9-9-8.1zM668.8 0H662l9.8 8.8 7.7.9zM682.3 0h-6.7l11.8 10.6 7.6.8zM695.7 0H689l13.7 12.3 7.7.9zM1194.9 0h-6.6l11.7 10.5v-6zM1174.8 0l25.2 22.7v-6.1L1181.6 0zM1168.2 0h-6.8l38.6 34.8v-6.1zM1154.5 0h-6.7l52.2 47.1V41zM1141.1 0h-6.7l65.6 59.1V53zM1013 0l59.1 53.2 7.8.9L1019.8 0zM1040 0l62.9 56.6 7.7.9L1046.7 0zM985.9 0l55.3 49.8 7.7.9L992.6 0zM999.4 0l57.2 51.5 7.7.9L1006.1 0zM1026.4 0l61.1 55 7.7.8-62-55.8zM1094 0l70.4 63.4 7.7.8L1100.7 0zM1107.4 0l72.3 65.1 7.7.9-73.3-66zM1053.4 0l64.7 58.3 7.7.9L1060.1 0zM1127.6 0h-6.7l74.3 66.9 4.8.5v-2.2zM1066.9 0l66.6 60 7.7.9L1073.6 0zM1080.4 0l68.5 61.7 7.7.9L1087.1 0z"/><g><path class="st2" d="M796.9 0l28.9 26 7.8.9L803.7 0zM837.3 0l34.6 31.1 7.7.9-35.5-32zM810.5 0l30.7 27.7 7.7.9L817.2 0zM769.9 0L795 22.6l7.7.9L776.6 0zM783.6 0l26.8 24.2 7.7.8-27.8-25zM716 0l17.6 15.8 7.7.9L722.7 0zM702.5 0l15.6 14 7.7.8L709.3 0zM756.4 0l23.1 20.8 7.8.9L763.2 0zM729.6 0L749 17.4l7.6.9L736.3 0zM743 0l21.2 19.1 7.7.9-22.2-20zM824 0l32.6 29.4 7.7.9L830.6 0zM932 0l47.7 43 7.7.9L938.7 0zM945.4 0L995 44.7l7.7.9L952 0zM959 0l51.5 46.4 7.7.9L965.7 0zM918.4 0l45.9 41.3 7.7.9L925.1 0zM979.1 0h-6.7l53.4 48.1 7.7.9zM864.5 0l38.3 34.5 7.7.9L871.2 0zM877.9 0l40.3 36.2 7.7.9L884.7 0zM904.9 0l43.9 39.6 7.7.9L911.6 0zM851 0l36.5 32.8 7.7.8L857.8 0zM891.5 0l42.1 37.9 7.6.9-43-38.8z"/></g></svg>