<svg id="Layer_1" data-name="Layer 1" xmlns="http://www.w3.org/2000/svg" viewBox="0 0 193.67 91.18"><defs><style>.cls-1{fill:#1eace4}.cls-2{fill:#7ecef4}.cls-3{fill:#bee4f7}</style></defs><title>adapt-menu-hatching-footer</title><path class="cls-1" d="M183.31 91.18L177 88zM137.24 66.6l48.7 24.58h2.61l-50.31-25.4zm2-1.63l51.93 26.21h2.53l-53.46-27zm2-1.63l52.48 26.49v-1.32l-51.49-26zm2-1.63l50.43 25.49v-1.31l-49.52-25zm2-1.63l48.53 24.5v-1.32l-47.54-24zm2-1.63l46.55 23.5v-1.32l-45.56-23zm2-1.63l44.58 22.51V78l-43.74-22zm2-1.63l42.6 21.51v-1.33l-41.61-21zm2-1.63l40.63 20.51v-1.33l-39.87-20zm2-1.63l38.65 19.51v-1.32L156 51.11zm2-1.63l36.68 18.51v-1.32L158 49.47zm2-1.63l34.7 17.52v-1.33L160 47.84zm2-1.63l32.73 16.52v-1.32l-31.74-16zm2-1.63L194 60.93v-1.32l-29.76-15zm2-1.64l28.43 14.53V57l-27.79-14zm2-1.63l26.8 13.53v-1.31l-25.82-13zm2-1.63L193.67 53v-1.27l-23.84-12zm2-1.63l22.85 11.54V49.1l-21.86-11zm2-1.62l20.88 10.54v-1.32l-19.9-10zm2-1.63l18.9 9.54v-1.33l-17.91-9zm2-1.63l16.93 8.54v-1.32l-15.94-8zm2-1.63l15 7.55v-1.33l-14-7zm2-1.63l13 6.55V36l-12-6.05zm2-1.63l11 5.55v-1.33l-10-5.05zm2-1.63l9 4.56v-1.33l-8-4.06zm2-1.64l7 3.56v-1.32L187.61 25zm2-1.63l5.07 2.56v-1.31l-4.09-2.06zm2-1.62l3.11 1.57v-1.33l-2.11-1.07zm2-1.63l1.13.57V20.2l-.14-.07z"/><path class="cls-2" d="M0 89.91l2.51 1.27h1.17L0 89.32zm0-2.36l7.19 3.63h1.17L0 87zm0-2.36l11.87 6H13L0 84.61zm0-2.35l16.53 8.34h1.16L0 82.25zm0-2.36l21.2 10.7h1.16L0 79.89zm0-2.36l25.88 13.06H27L0 77.53zm0-2.36l30.55 15.42h1.17L0 75.18zm0-2.36l35.22 17.78h1.17L0 72.82zM0 71l39.9 20.18h1.17L0 70.46zm0-2.36l44.57 22.54h1.17L0 68.1zm0-2.36l49.24 24.9h1.16L0 65.75zm0-2.93V64l53.91 27.2h1.18L0 63.4zm2.41-.57l56.18 28.4h1.17L3.21 62.65zm3.18-.75l57.67 29.1h1.16l-58-29.29zm3.18-.76l59.17 29.91h1.17l-59.54-30zm3.18-.75L72.6 91.18h1.17l-61-30.79zm3.18-.75l62.15 31.41h1.18L15.92 59.63zm3.18-.75L82 91.18h1.17l-64-32.3zm3.18-.76l65.14 32.92h1.16L22.28 58.12zm3.18-.75L91.3 91.18h1.17l-67-33.81zm3.18-.75L96 91.18h1.17L28.64 56.62zM31 56l69.62 35.13h1.18l-70-35.32zm3.18-.75l71.12 35.88h1.18L35 55.11zm3.18-.75l71.3 36 .44-.37-70.92-35.78zm3.18-.75L110.44 89l.44-.37L41.35 53.6zm3.2-.75l68.46 34.54.44-.37-68.1-34.32zm3.18-.75L114 86.1l.44-.37-66.72-33.64zm3.2-.76l65.6 33.1.44-.37-65.24-32.89zm3.18-.75l64.17 32.38.44-.37L54.1 50.58zm3.18-.74l62.75 31.66.44-.37-62.39-31.46zm3.18-.75L121 80.2l.44-.37-61-30.76zm3.18-.75l59.9 30.22.44-.36-59.54-30zm3.16-.75l58.47 29.5.44-.37-58.09-29.32zm3.2-.75l57.05 28.78.44-.37L70 46.81zm3.18-.75L128 74.31l.44-.37-55.26-27.88zm3.18-.76l54.2 27.35.44-.36L76.35 45.3zm3.18-.75l52.78 26.63.48-.37-52.47-26.45zm3.18-.74l51.35 25.91.44-.37-51-25.73zm3.18-.75L135 68.42l.44-.37L85.89 43z"/><path class="cls-1" d="M0 61.66l2.36 1.18.79-.19L0 61.07zm0-2.35l5.55 2.78.79-.19L0 58.72zM0 57l8.72 4.37.8-.19L0 56.38zm0-2.35l11.9 6 .8-.19L0 54zm0-2.35l15.09 7.56.8-.19L0 51.68zm0-2.35l18.27 9.15.8-.19L0 49.33zm0-2.35l21.45 10.72.8-.19L0 47zm0-2.35l24.64 12.31.8-.19L0 44.63zm0-2.35l27.82 13.91.8-.19L0 42.29zm0-2.35l31 15.5.8-.19L0 39.94zm0-2.35l34.18 17.1.8-.19L0 37.59zm0-2.35l37.36 18.69.8-.19L0 35.24zm0-2.35l40.54 20.29.8-.19L0 32.89zm0-2.35L43.72 53l.8-.19L0 30.54zm0-2.37l46.93 23.49.79-.19L0 28.18zm0-2.35l50.11 25.1.8-.19L0 25.83zm0-2.35l53.29 26.7.8-.19L0 23.48zm0-2.34L56.47 50l.8-.19L0 21.13zm0-2.35l59.66 29.86.79-.19L0 18.78zM0 17l62.84 31.5.79-.19L0 16.44zm0-2.34l66 33.09.8-.19L0 14.09zm0-2.35L69.2 47l.8-.19L0 11.74zM0 10l72.39 36.24.79-.19L0 9.39zm0-2.37l75.56 37.85.8-.19L0 7zm0-2.35l78.74 39.45.81-.19L0 4.69zm0-2.35L81.93 44l.8-.19L0 2.34zM0 .58l85.11 42.64.79-.22L0 0z"/><path class="cls-3" d="M88.17 42.76l48.51 24.3.44-.37L89 42.56zm3.17-.76l47.11 23.6.44-.36L92.14 41.8zm3.16-.76l45.71 22.9.45-.37L95.31 41zm3.19-.77L142 62.66l.44-.36-44-22zm3.17-.76l42.9 21.49.44-.37-42.53-21.32zm3.17-.76l41.5 20.79.44-.36-41.14-20.63zm3.16-.76l40.1 20.09.44-.36L108 38zm3.17-.76l38.7 19.39.44-.37-38.34-19.23zm3.17-.76l37.3 18.68.44-.36-37-18.51zm3.17-.76l35.9 18 .44-.36-35.55-17.85zm3.17-.76l34.51 17.29.44-.37-34.16-17.13zm3.16-.76L156.14 51l.44-.37-32.75-16.45zm3.17-.76l31.71 15.89.44-.36L127 33.42zm3.17-.76L159.68 48l.44-.37-30-15zm3.16-.76l28.91 14.48.44-.37-28.55-14.33zm3.17-.76l27.52 13.75.44-.36-27.17-13.61zm3.17-.76L165 43.64l.44-.37-25.76-12.9zm3.16-.76l24.71 12.38.44-.37-24.35-12.24zm3.17-.76l23.31 11.68.44-.37-23-11.5zm3.17-.76l21.91 11 .44-.37-21.57-10.8zm3.17-.76l20.52 10.28.44-.36-20.17-10.1zm3.16-.76l19.12 9.58.44-.37-18.77-9.4zm3.17-.76l17.72 8.88.44-.37-17.37-8.7zm3.17-.76l16.32 8.17.44-.36-16-8zm3.16-.76l14.92 7.47.44-.37L165 24.27zm3.17-.76l13.52 6.77.44-.37-13.17-6.6zm3.17-.76L182.66 29l.44-.36-11.77-5.89zm3.16-.76l10.72 5.37.44-.37L174.5 22zm3.17-.76l9.32 4.67.44-.37-9-4.49zm3.17-.76l7.92 4 .44-.37-7.58-3.79zm3.16-.76l6.53 3.27.44-.37L184 19.7zm3.17-.76l5.13 2.57.44-.36-4.77-2.4zm3.16-.76l3.73 1.87.4-.33v-.06l-3.33-1.67zm3.16-.76l1 .48v-.65l-.17-.08z"/><path class="cls-1" d="M107.87 91.18h75.45l-46.96-23.84-28.49 23.84z"/></svg>