<svg id="Layer_1" data-name="Layer 1" xmlns="http://www.w3.org/2000/svg" viewBox="0 0 193.67 48.83"><defs><style>.cls-1{fill:#1eace4}.cls-2{fill:#7ecef4}</style></defs><title>adapt-menu-hatching-header</title><path class="cls-1" d="M0 47.78l2.34 1.05h2.59L0 46.61zm0-2.34l7.54 3.39h1.4l.46-.34L0 44.27zm0-2.34l10.38 4.67 1-.73L0 41.94zm0-2.33l12.36 5.55 1-.73-13.36-6zm0-2.35l14.34 6.44 1-.72L0 37.25zm0-2.33l16.31 7.33 1-.72L0 34.92zm0-2.34L18.28 42l1-.73L0 32.58zm0-2.35l20.27 9.11 1-.73L0 30.23zm0-2.33l22.23 10 1-.73L0 27.9zm0-2.34l24.21 10.88 1-.72L0 25.56zm0-2.34l26.19 11.77 1-.72L0 23.23zm0-2.33l28.16 12.65 1-.73L0 20.89zm0-2.34l30.14 13.54 1-.73L0 18.54zm0-2.34l32.11 14.43 1-.73L0 16.2zM0 15l34.09 15.36 1-.73L0 13.87zm0-2.3l36.06 16.2 1-.73L0 11.53zm0-2.34l38 17.09 1-.73L0 9.19zM0 8l40 18 1-.73L0 6.85zm0-2.31l42 18.86 1-.73L0 4.52zm0-2.35L44 23.1l1-.73L0 2.17zM0 0v1l45.94 20.65 1-.73L.35 0zm3 0l45 20.2 1-.72L5.57 0zm5.17 0l41.72 18.75 1-.73L10.78 0zm5.2 0l38.5 17.3 1-.73L16 0zm5.2 0l35.27 15.85 1-.73L21.19 0zm5.22 0l32 14.39 1-.73L26.39 0z"/><path class="cls-2" d="M58.57 12.37l49.58 22.26.79-.17L59 12zm1.76-1.31l51 22.9.79-.17-51.35-23.06zm1.76-1.31l52.42 23.54.79-.17-52.78-23.7zm1.76-1.31l53.85 24.18.79-.17L64.28 8.11zm1.75-1.31l55.27 24.82.8-.17L66 6.8zm1.76-1.31L124 31.28l.8-.17L67.79 5.49zm1.75-1.32l58.12 26.1.79-.17L69.54 4.18zm1.76-1.31l59.54 26.74.79-.17L71.3 2.87zm1.75-1.31l61 27.38.8-.17L73.05 1.56zm1.75-1.3l62.39 28 .8-.17L74.81.25zM77.76 0l62.18 27.92.8-.17L78.93 0zm4.67 0l60.69 27.25.8-.17L83.61 0zm4.72 0l59.18 26.57.79-.17L88.31 0zm4.67 0l57.68 25.9.8-.17L93 0zm4.68 0l56.19 25.23.79-.17L97.67 0zm4.67 0l54.7 24.56.8-.17L102.34 0zm4.68 0L159 23.89l.8-.17L107 0zm4.67 0l51.71 23.22.8-.17L111.69 0zm4.68 0l50.2 22.55.8-.17L116.35 0zm4.68 0l48.72 21.88.79-.17L121 0zm4.67 0l47.22 21.21.79-.17L125.7 0zm4.66 0l45.73 20.54.8-.17L130.37 0zm4.68 0l44.24 19.87.8-.17L135.06 0zm4.67 0l42.74 19.19.8-.17L139.73 0zm4.67 0l41.25 18.52.8-.17L144.4 0zm4.68 0l39.76 17.85.79-.17L149.07 0zm4.67 0l38.26 17.18.8-.17L153.74 0zm4.67 0l36.43 16.36v-.53L158.42 0zm4.68 0l31.74 14.25v-.53L163.1 0zm4.66 0l27.08 12.16v-.52L167.76 0zm4.67 0l22.41 10.06v-.52L172.44 0zm4.68 0l17.73 8v-.56L177.11 0zm4.67 0l13.06 5.86v-.52L181.78 0zm4.67 0l8.39 3.77v-.53L186.45 0zM190 0l3.7 1.66v-.52L191.13 0z"/><path class="cls-1" d="M108.18 34.63L140 48.83h1.17L109 34.46zm3.18-.67l33.35 14.87h1.18l-33.72-15zm3.18-.67l34.85 15.54h1.18l-35.23-15.71zm3.18-.67l36.36 16.21h1.17l-36.73-16.38zm3.19-.67l37.87 16.88h1.17L121.7 31.78zm3.18-.67l39.37 17.55h1.17L124.88 31.1zm3.19-.67l40.88 18.23h1.17l-41.27-18.41zm3.18-.67l42.39 18.9H174l-42.76-19.08zm3.19-.67l43.89 19.57h1.17l-44.29-19.75zm3.18-.67l45.4 20.24h1.18l-45.8-20.42zm3.18-.67l46.9 20.91h1.17l-47.29-21.09zm3.18-.67l48.41 21.58h1.17L144 27.07zm3.19-.67l47.31 21.1v-.52L147.15 26.4zm3.2-.67l44.11 19.67V45l-43.33-19.27zm3.18-.67l40.92 18.25v-.52l-40.14-17.93zm3.18-.67l37.75 16.83v-.52l-36.97-16.51zm3.18-.67l34.56 15.41v-.52l-33.77-15.09zm3.18-.67l31.38 14v-.52L163.09 23zm3.18-.67l28.2 12.57v-.52l-27.4-12.21zm3.18-.67l25 11.16v-.56l-24.21-10.8zm3.18-.67l21.83 9.73v-.56l-21-9.38zm3.18-.67l18.65 8.32v-.52l-17.86-8zm3.18-.67l15.47 6.9v-.52L179 19.68zm3.17-.67l12.29 5.48v-.53L182.18 19zm3.19-.67l9.1 4.06V22l-8.31-3.7zm3.18-.67l5.93 2.64V20l-5.13-2.29zm3.19-.67l2.74 1.22v-.52l-1.95-.91zM9.17 48.75l.18.08h1.18l-.91-.41zm1.77-1.3L14 48.83h1.17l-3.83-1.71zm1.77-1.3l6 2.68h1.17l-6.75-3zm1.77-1.3l8.94 4h1.17l-9.67-4.31zm1.77-1.3l11.85 5.28h1.17l-12.59-5.61zM18 42.24l14.78 6.59H34l-15.55-6.92zm1.77-1.3l17.7 7.89h1.17l-18.42-8.22zm1.77-1.3l20.17 9 .79-.17L22 39.31zm1.77-1.3l21.56 9.61.79-.17L23.75 38zM25.08 37L48 47.27l.79-.17-23.27-10.4zm1.77-1.3l24.36 10.89.8-.17-24.71-11zm1.77-1.3l25.75 11.51.8-.17L29.06 34.1zm1.77-1.3l27.16 12.13.79-.17L30.83 32.8zm1.77-1.3l28.55 12.76.8-.17L32.6 31.5zm1.77-1.3l30 13.36.79-.17L34.36 30.2zm1.77-1.31l31.36 14 .79-.17-31.72-14.13zm1.77-1.3l32.74 14.63.79-.17-33.1-14.76zm1.77-1.3l34.14 15.25.79-.17-34.5-15.38zM41 25.31l35.55 15.85.79-.17L41.43 25zM42.76 24l37 16.48.79-.17L43.2 23.69zm1.77-1.3l38.36 17.1.79-.17L45 22.38zm1.77-1.3l39.75 17.73.79-.17-40.1-17.88zm1.77-1.3l41.14 18.35.79-.17-41.5-18.5zm1.77-1.3l42.55 19 .79-.17-42.91-19.15zm1.77-1.3l43.94 19.6.79-.17L52 17.18zm1.78-1.31l45.35 20.22.8-.17-45.72-20.38zm1.77-1.3l46.76 20.85.79-.17-47.11-21zm1.77-1.3l48.16 21.47.79-.17-48.52-21.63zM28.9 0l28.78 13L75.14 0H28.9z"/></svg>