<svg xmlns="http://www.w3.org/2000/svg" viewBox="0 0 304.1 472.38"><defs><style>.cls-1{fill:#0d7dc2}.cls-2{fill:#e6007c}</style></defs><title>Ресурс 2</title><g id="Слой_2" data-name="Слой 2"><g id="Layer_1" data-name="Layer 1"><path class="cls-1" d="M97.9 31.76a35.85 35.85 0 0 1-1.13 8.95 29 29 0 0 1-3.47 8.22 28.31 28.31 0 0 1-5.87 6.78 25.52 25.52 0 0 1-8.36 4.59v.16Q86 62.72 89 68a50.26 50.26 0 0 1 4.84 11.77l8.85 31H79.07Q77 103.5 74.86 96.33t-4.18-14.58q-2.56-9.2-7.16-12.41a19.26 19.26 0 0 0-11.35-3.23H40.26v44.66H16.74V0h44.93A47.93 47.93 0 0 1 78 2.5a31.1 31.1 0 0 1 11.28 6.85 26.94 26.94 0 0 1 6.52 10.17 36 36 0 0 1 2.1 12.25M57.15 49.82A22 22 0 0 0 63 49a14.91 14.91 0 0 0 5.31-2.72 14.33 14.33 0 0 0 3.94-5.14 18.49 18.49 0 0 0 1.54-8q0-8.35-4.68-12.27C66 18.25 61.94 16.93 57 16.93H40.26v32.89zM116.57 110.77V0h69.23v16.9h-45.25v28.02h36.86v15.77h-36.86v33.16h47.48v16.92h-71.46zM84 231.31L76.29 206h-40.4L28 231.31H4.33L42 120.7h30l36.53 110.61zm-20.74-70.53l-6.45-24H56l-6.76 24.79L41 189.93h30.47zM124.6 231.31V120.55h23.82v94.17h45.56v16.59H124.6z"/><path class="cls-2" d="M77.42 271.51q-1.3 6.43-2.57 14c-.87 5-1.71 9.65-2.57 13.84l-11.44 52.49H31.06L4.34 241.08h25.27c.75 3.44 1.66 7.67 2.74 12.72s2.17 10.28 3.3 15.7 2.23 10.65 3.31 15.7 2 9.23 2.73 12.56c.42 2 .86 4.21 1.28 6.51s.83 4.68 1.21 7.1.78 4.8 1.21 7.16.86 4.55 1.29 6.6h1.12q1.3-5.94 2.43-13.12c.75-4.78 1.54-9.15 2.42-13.12q1.12-5.64 2.81-13.29t3.45-15.77q1.77-8.13 3.47-15.7c1.13-5 2.06-9.39 2.81-13h25.6c.32 1.07.85 3.11 1.61 6.12s1.6 6.41 2.6 10.33 2 8.07 3.05 12.48 2.08 8.51 3 12.32 1.75 7.14 2.5 10 1.23 4.69 1.46 5.55c.1.44.42 1.91 1 4.43s1.14 5.31 1.77 8.37 1.26 6 1.86 8.78 1 4.62 1.2 5.48H112q1.28-6.44 2.49-14.17t2.5-14c.76-3.32 1.64-7.49 2.66-12.48s2.06-10.12 3.15-15.37 2.2-10.43 3.2-15.41 2-9.15 2.74-12.48h24.79q-1.44 6.11-3.61 15.28c-1.46 6.13-3 12.71-4.68 19.73s-3.37 14.31-5.15 21.82-3.48 14.68-5.14 21.5-3.2 13.07-4.59 18.75-2.52 10.25-3.38 13.69H97.71q-1.44-5.31-3.14-12.16t-3.46-14q-1.78-7.15-3.45-14.09c-1.13-4.61-2.17-8.69-3.16-12.23-.32-1.29-.76-3.21-1.29-5.8s-1.1-5.25-1.68-8-1.16-5.48-1.7-8.06-1-4.5-1.29-5.8zM163.88 241.08h23.51v110.77h-23.51zM281.08 317.39v-76.15h23v110.6h-23.75l-37.43-59.56c-1.82-3.12-3.66-6.18-5.55-9.18s-3.7-6.07-5.53-9.19l-.4.08-.41.08v77.77H208v-110.6h24.14q8.67 13.51 17.1 26.72t16.93 26.89l14 22.54z"/><path class="cls-1" d="M35.09 472.38v-93.54H0v-17.22h93.7v17.22H58.76l-.15 93.54H35.09zM103.51 472.38V361.62h69.23v16.89H127.5v28.02h36.87v15.78H127.5v33.16H175v16.91h-71.49zM271.11 393.49a36 36 0 0 1-1.13 8.93 29.62 29.62 0 0 1-3.46 8.22 28 28 0 0 1-5.88 6.75 24.86 24.86 0 0 1-8.38 4.59v.16q6.94 2.26 10 7.57a49.24 49.24 0 0 1 4.82 11.75l8.87 30.91h-23.69c-1.39-4.83-2.79-9.63-4.17-14.41s-2.79-9.64-4.2-14.57q-2.57-9.17-7.16-12.4a19.31 19.31 0 0 0-11.36-3.22h-11.9v44.6H190v-110.6h44.9a48 48 0 0 1 16.34 2.5 31.19 31.19 0 0 1 11.26 6.84 27.06 27.06 0 0 1 6.5 10.14 36.14 36.14 0 0 1 2.08 12.24m-40.73 18a21.63 21.63 0 0 0 5.79-.8 14.57 14.57 0 0 0 5.31-2.72 14.28 14.28 0 0 0 4-5.12 18.61 18.61 0 0 0 1.52-8q0-8.32-4.66-12.25t-12.08-3.93h-16.76v32.84z"/></g></g></svg>