<svg xmlns="http://www.w3.org/2000/svg" viewBox="0 0 400 500"><path fill="#E50B76" d="M356.8 231.8V350c-2.3 81.8-70.5 147.7-154.5 150-84.1 2.3-156.8-63.6-159.1-145.5-2.3-72.7-2.3-147.7-2.3-220.5 0-18.2 11.4-27.3 27.3-27.3s25 11.4 25 29.5v204.5c0 59.1 45.5 106.8 104.5 109.1 59.1 0 106.8-45.5 106.8-106.8V122.5c0-38.6-27.3-68.2-63.6-68.2-38.6 0-65.9 27.3-68.2 68.2v186.3c0 20.5 9.1 31.8 27.3 31.8s25-11.4 25-36.4V161c0-22.7 20.5-36.4 36.4-25 6.8 4.5 13.6 15.9 13.6 25 2.3 54.5 2.3 106.8 0 161.4 0 40.9-38.6 75-79.5 75-43.2 0-79.5-34.1-79.5-77.3V115.6C116 54.2 170.5 4.2 234.2 2c61.3.3 115.8 48 118.1 109.4 6.8 38.6 4.5 79.5 4.5 120.4z"/></svg>