<svg id="Layer_1" data-name="Layer 1" xmlns="http://www.w3.org/2000/svg" viewBox="0 0 1200 467.05"><defs><style>.cls-1{fill:none}.cls-2{clip-path:url(#clip-path)}.cls-3{fill:#6ec4e9}.cls-4{fill:#00ade9}.cls-5{fill:#0e7dc2}</style><clipPath id="clip-path"><path class="cls-1" d="M642.8 99.7L0 0v144.81L642.8 99.7z"/></clipPath></defs><title>footerBackgroundFull</title><g class="cls-2"><path class="cls-3" d="M814.83-47.28L291 518.81l-2.34-2L812.49-49.25zm-9.48-7.95L281.57 510.86l2.34 2L807.69-53.27zm-7.14-6L274.42 504.88l2.35 2L800.56-59.25zm-7.14-6L267.29 498.9l2.34 2L793.42-65.23zm-7.14-6L260.15 492.92l2.34 2L786.28-71.21zm-7.14-6L253 486.94l2.35 2L779.14-77.19zm-7.14-6L245.87 481l2.34 2L772-83.17zm-7.14-6L238.73 475l2.35 2L764.87-89.15zm-7.13-6L231.6 469l2.34 2L757.73-95.13zm-7.14-6L224.46 463l2.34 2 523.79-566.11zm-7.13-6L217.32 457l2.34 2 523.79-566.09zM734-115L210.18 451.06l2.34 2 523.79-566.13zm-7.14-6L203 445.07l2.34 2 523.83-566.12zm-7.13-6L195.9 439.09l2.35 2L722-125zm-7.14-6L188.77 433.11l2.35 2L714.9-131zm-7.14-6L181.63 427.13l2.34 2L707.75-137zm-7.14-6L174.49 421.15l2.34 2L700.62-143zm-7.14-6L167.35 415.17l2.34 2L693.48-149zm-7.14-6L160.21 409.19l2.35 2 523.78-566.1zm-7.14-6L153.07 403.21l2.34 2L679.2-160.92zm-7.14-6L145.94 397.23l2.34 2L672.06-166.9zm-7.14-6L138.8 391.25l2.34 2 523.78-566.1zm-7.13-6L131.66 385.26l2.35 2 523.77-566.13zm-7.14-6L124.52 379.28l2.34 2 523.79-566.1zm-7.14-6L117.38 373.3l2.34 2 523.79-566.13zm-7.14-6L110.24 367.32l2.35 2 523.78-566.13zm-7.14-6L103.1 361.34l2.35 2 523.78-566.1zm-7.14-6L96 355.36l2.35 2 523.74-566.13zm-7.14-6L88.83 349.38l2.34 2L615-214.75zm-7.14-6L81.69 343.4l2.34 2 523.78-566.13zm-7.14-6L74.54 337.41l2.35 2 523.79-566.12zm-7.14-6L67.41 331.43l2.35 2 523.78-566.1zm-7.14-6L60.27 325.45l2.35 2L586.4-238.67zm-7.14-6L53.13 319.47l2.34 2 523.79-566.13zm-7.14-6L46 313.5l2.34 2 523.78-566.13zm-7.14-6L38.86 307.51l2.35 2L565-256.61zm-7.14-6L31.71 301.53l2.34 2 523.8-566.13zm-7.14-6L24.58 295.55l2.34 2 523.79-566.13zm-7.13-6L17.44 289.57l2.34 2 523.79-566.13zm-7.14-6L10.3 283.59l2.34 2 523.79-566.13zm-7.14-6L3.16 277.6l2.34 2 523.79-566.12zm-7.14-6L-4 271.63l2.34 2L522.15-292.5zm-7.13-6L-11.12 265.64l2.34 2L515-298.49zm-7.14-6L-18.25 259.66l2.34 2 523.79-566.13zm-7.14-6L-25.39 253.68l2.34 2 523.79-566.13zm-7.14-6L-32.53 247.7l2.35 2L493.6-316.43zm-7.13-6L-39.67 241.72l2.35 2 523.78-566.13zm-7.14-6L-46.81 235.74l2.34 2 523.79-566.13zm-7.15-6L-53.95 229.76l2.34 2 523.79-566.13zm-7.14-6l-523.8 566.78 2.34 2L465-340.35zm-7.14-6L-68.23 217.8l2.34 2L457.9-346.33zm-7.14-6L-75.37 211.82l2.35 2 523.79-566.13zm-7.14-6L-82.51 205.83l2.35 2L443.62-358.3zm-7.14-6l-523.8 566.86 2.34 2 523.79-566.13zm-7.14-6l-523.8 566.87 2.35 2 523.78-566.12zm-7.15-6l-523.8 566.88 2.34 2 523.78-566.13zm-7.14-6l-523.8 566.9 2.34 2 523.79-566.13zm-7.14-6L-118.2 175.1l2.34 2 523.78-565.31zm-7.14-6l-523.8 566.94 2.34 2 523.79-566.13zm-7.14-6l-523.8 567 2.35 2 523.78-566.17zm-7.14-6l-523.8 567 2.34 2L386.5-406.16zm-7.14-6l-523.8 567 2.35 2 523.78-566.1zm-7.14-6L-153.9 146l2.34 2 523.79-566.12zm-7.14-6L-161 140l2.35 2 523.74-566.09zm-7.14-6l-523.79 567.05 2.34 2 523.79-566.13zm-7.14-6l-523.79 567.07 2.34 2 523.79-566.13zm-7.14-6l-523.79 567.09 2.34 2L343.67-442zm-7.14-6l-523.78 566.1 2.34 2L336.54-448zm-7.14-6l-523.79 567.13 2.35 2L329.4-454zm-7.14-6l-523.78 567.15 2.34 2L322.25-460zm-7.14-6L-211 98.17l2.34 2L315.12-466zm-7.14-6L-218.15 92.18l2.34 2L308-471.94zm-7.14-6L-225.29 86.21l2.34 2 523.79-566.13zm-7.13-6L-232.43 80.22l2.34 2L293.7-483.91zm-7.14-6L-239.56 74.24l2.34 2 523.78-566.13zm-7.14-6L-246.7 68.26l2.34 2 523.79-566.13zm-7.14-6L-253.84 62.28l2.34 2 523.79-566.13zm-7.14-6L-261 56.3l2.34 2 523.81-566.13zm-7.14-6L-268.12 50.32l2.34 2L258-513.81zm-7.14-6L-275.26 44.34l2.35 2 523.78-566.13zm-7.14-6L-282.4 38.36l2.35 2 523.78-566.13zm-7.14-6L-289.54 32.38l2.34 2 523.79-566.13zm-7.13-6L-296.68 26.39l2.34 2 523.79-566.13zm-7.14-6L-303.81 20.42l2.34 2 523.78-566.14zm-7.14-6L-311 14.43l2.34 2L215.18-549.7zm-7.14-6L-318.09 8.45l2.34 2L208-555.68zm-7.14-6L-325.23 2.47l2.34 2L200.9-561.66zm-7.14-6L-332.37-3.51l2.34 2 523.79-566.13zm-7.14-6L-339.51-9.49l2.35 2 523.78-566.13zm-7.13-6L-346.64-15.47l2.34 2L179.49-579.6zm-7.14-6L-353.79-21.45l2.35 2 523.79-566.13zm-7.14-6L-360.92-27.43l2.34 2 523.79-566.13zm-7.14-6L-368.06-33.42l2.34 2 523.78-566.13zm-7.14-6L-375.2-39.4l2.34 2 523.78-566.13zm-7.14-6L-382.34-45.38l2.34 2 523.79-566.13zm-7.14-6L-389.47-51.36l2.34 2 523.79-566.13zm-7.14-6L-396.62-57.34l2.34 2 523.78-566.1zm-7.14-6L-403.75-63.32l2.34 2 523.79-566.13zm-7.14-6L-410.89-69.3l2.34 2 523.79-566.13zm-7.14-6L-418-75.28l2.34 2L108.1-639.41zm-7.13-6L-425.17-81.26l2.35 2L101-645.4zm-7.14-6L-432.31-87.24l2.35 2L93.82-651.37zm-7.14-6L-439.45-93.23l2.34 2L86.68-657.36zm-7.14-6L-446.58-99.2l2.34 2L79.54-663.34zm-7.14-6l-523.78 567.81 2.35 2L72.41-669.32zm-7.14-6l-523.78 567.83 2.35 2L65.26-675.3zm-7.14-6L-468-117.15l2.34 2L58.13-681.28zm-7.14-6l-523.77 567.87 2.34 2L51-687.26zm-7.14-6l-523.77 567.89 2.34 2L43.85-693.24z"/></g><path class="cls-4" d="M1200 467.05H0V144.81l1200-84.22v406.46z"/><path class="cls-5" d="M642.8 99.7l557.2 86.42V60.59L642.8 99.7z"/></svg>