<svg xmlns="http://www.w3.org/2000/svg" xmlns:xlink="http://www.w3.org/1999/xlink" viewBox="0 0 1200 425.2"><path fill="#00ADE9" d="M0 142.9l1200 52.4v229.6H0z"/><defs><path id="a" d="M563.6 167.5l636.4 27.8V1.2z"/></defs><clipPath id="b"><use xlink:href="#a" overflow="visible"/></clipPath><path clip-path="url(#b)" fill="#72CDF4" d="M384.4 263.1L908.2-303l2.3 2-523.7 566.1-2.4-2zm9.5 8L917.7-295l-2.3-2-523.8 566.1 2.3 2zm7.1 6L924.8-289l-2.3-2-523.8 566.1 2.3 2zm7.2 5.9L932-283.1l-2.3-2-523.9 566.2 2.4 1.9zm7.1 6l523.8-566.1-2.3-2L413 287.1l2.3 1.9zm7.2 6l523.8-566.1-2.3-2L420.1 293l2.4 2zm7.1 6l523.8-566.1-2.3-2L427.2 299l2.4 2zm7.1 6l523.8-566.1-2.3-2L434.4 305l2.3 2zm7.2 5.9l523.8-566.1-2.3-2L441.5 311l2.4 1.9zm7.1 6l523.8-566.1-2.3-2L448.7 317l2.3 1.9zm7.1 6l523.8-566.1-2.3-2-523.8 566.1 2.3 2zm7.2 6l523.8-566.1-2.3-2-523.9 566.1 2.4 2zm7.1 6l523.8-566.1-2.3-2-523.8 566.1 2.3 2zm7.2 5.9l523.8-566.1-2.3-2-523.9 566.2 2.4 1.9zm7.1 6l523.8-566.1-2.3-2-523.8 566.2 2.3 1.9zm7.1 6l523.8-566.1-2.3-2-523.8 566.1 2.3 2zm7.2 6l523.8-566.1-2.3-2-523.9 566.1 2.4 2zm7.1 6l523.8-566.1-2.3-2-523.8 566.1 2.3 2zm7.2 6L1039-193.3l-2.3-2-523.8 566.1 2.4 2zm7.1 5.9l523.8-566.1-2.3-2L520 376.8l2.4 1.9zm7.1 6l523.8-566.1-2.3-2-523.8 566.1 2.3 2zm7.2 6l523.8-566.1-2.3-2-523.9 566.1 2.4 2zm7.1 6l523.8-566.1-2.3-2-523.8 566.1 2.3 2zm7.1 6l523.8-566.1-2.3-2-523.8 566.1 2.3 2zm7.2 5.9l523.8-566.1-2.3-2-523.9 566.2 2.4 1.9zm7.1 6L1089-151.5l-2.3-2-523.8 566.2 2.3 1.9zm7.2 6l523.8-566.1-2.3-2L570 418.6l2.4 2zm7.1 6l523.8-566.1-2.3-2-523.8 566.1 2.3 2zm7.1 6l523.8-566.1-2.3-2-523.8 566.1 2.3 2zm7.2 5.9l523.8-566.1-2.3-2-523.9 566.2 2.4 1.9zm7.1 6l523.8-566.1-2.3-2-523.8 566.2 2.3 1.9zm7.2 6l523.8-566.1-2.3-2-523.9 566.1 2.4 2zm7.1 6L1139-109.6l-2.3-2-523.8 566.1 2.3 2zm7.1 6l523.8-566.1-2.3-2L620 460.5l2.3 2zm7.2 5.9l523.8-566.1-2.3-2-523.9 566.2 2.4 1.9zm7.1 6l523.8-566.1-2.3-2-523.8 566.2 2.3 1.9zm7.1 6l523.8-566.1-2.3-2-523.8 566.1 2.3 2zm7.2 6l523.8-566.1-2.3-2-523.9 566.1 2.4 2zm7.1 6l523.8-566.1-2.3-2-523.8 566.1 2.3 2zm7.2 5.9l523.8-566-2.3-2-523.9 566.1 2.4 1.9zm7.1 6l523.8-566.1-2.3-2L670 502.4l2.3 1.9zm7.1 6l523.8-566.1-2.3-2-523.8 566.2 2.3 1.9zm7.2 6l523.8-566.1-2.3-2-523.9 566.1 2.4 2zm7.1 6l523.8-566.1-2.3-2-523.8 566.1 2.3 2zm7.2 6l523.8-566.1-2.3-2-523.9 566.1 2.4 2zm7.1 5.9l523.8-566.1-2.3-2-523.8 566.2 2.3 1.9zm7.1 6l523.8-566.1-2.3-2-523.8 566.2 2.3 1.9zm7.2 6l523.8-566.1-2.3-2-523.9 566.1 2.4 2zm7.1 6l523.8-566.1-2.3-2-523.8 566.1 2.3 2zm7.2 6L1260.3-7.9l-2.3-2-523.8 566.1 2.4 2zm7.1 5.9L1267.5-2l-2.3-2-523.8 566.2 2.3 1.9zm7.1 6L1274.6 4l-2.3-2-523.8 566.2 2.3 1.9zm7.2 6L1281.8 10l-2.3-2-523.9 566.1 2.4 2zm7.1 6L1288.9 16l-2.3-2-523.8 566.1 2.3 2zm7.1 6L1296 22l-2.3-2-523.8 566.1 2.3 2zm7.2 6L1303.2 28l-2.3-2-523.8 566.1 2.3 2zm7.1 5.9l523.8-566.1-2.3-2-523.8 566.2 2.3 1.9zm7.2 6l523.8-566.1-2.3-2-523.9 566.2 2.4 1.9zm7.1 6l523.8-566.1-2.3-2L798.5 610l2.3 2zm7.2 6l523.8-566.1-2.3-2L805.6 616l2.4 2zm7.1 6l523.8-566.1-2.3-2L812.8 622l2.3 2zm7.1 5.9l523.8-566-2.3-2L819.9 628l2.3 1.9zm7.2 6l523.8-566.1-2.3-2L827 634l2.4 1.9zm7.1 6l523.8-566.1-2.3-2-523.8 566.1 2.3 2zm7.1 6l523.8-566.1-2.3-2-523.8 566.1 2.3 2zm7.2 6l523.8-566.1-2.3-2-523.9 566.1 2.4 2zm7.1 5.9l523.8-566.1-2.3-2-523.8 566.2 2.3 1.9zm7.2 6l523.8-566.1-2.3-2-523.9 566.2 2.4 1.9zm7.1 6L1396 105.7l-2.3-2-523.8 566.1 2.3 2zm7.1 6l523.8-566.1-2.3-2L877 675.8l2.3 2zm7.2 6l523.8-566.1-2.3-2-523.9 566.1 2.4 2zm7.1 6l523.8-566.1-2.3-2-523.8 566.1 2.3 2zm7.2 5.9l523.8-566.1-2.3-2-523.9 566.2 2.4 1.9zm7.1 6l523.8-566.1-2.3-2-523.9 566.2 2.4 1.9zm7.1 6l523.8-566.1-2.3-2-523.8 566.1 2.3 2zm7.2 6L1446 147.6l-2.3-2-523.9 566.1 2.4 2zm7.1 6l523.8-566.1-2.3-2L927 717.7l2.3 2zm7.1 5.9l523.8-566.1-2.3-2-523.8 566.2 2.3 1.9zm7.2 6l523.8-566.1-2.3-2-523.9 566.2 2.4 1.9zm7.1 6l523.8-566.1-2.3-2-523.8 566.1 2.3 2zm7.2 6l523.8-566.1-2.3-2-523.9 566.1 2.4 2zm7.1 6l523.8-566.1-2.3-2-523.8 566.1 2.3 2zm7.1 5.9l523.8-566.1-2.3-2-523.8 566.2 2.3 1.9zm7.2 6l523.8-566.1-2.3-2-523.9 566.2 2.4 1.9zm7.1 6l523.8-566.1-2.3-2-523.8 566.1 2.3 2zm7.2 6l523.8-566.1-2.3-2-523.9 566.1 2.4 2zm7.1 6l523.8-566.1-2.3-2-523.8 566.1 2.3 2zm7.1 5.9l523.8-566.1-2.3-2-523.8 566.1 2.3 2zm7.2 6l523.8-566.1-2.3-2-523.8 566.1 2.3 2zm7.1 6l523.8-566.1-2.3-2-523.8 566.1 2.3 2zm7.2 6L1553 237.3l-2.3-2-523.8 566.1 2.4 2zm7.1 6l523.8-566.1-2.3-2L1034 807.4l2.4 2zm7.1 6l523.8-566.1-2.3-2-523.8 566.1 2.3 2zm7.2 5.9l523.8-566.1-2.3-2-523.8 566.1 2.3 2zm7.1 6l523.8-566.1-2.3-2-523.8 566.1 2.3 2zm7.1 6l523.8-566.1-2.3-2-523.8 566.1 2.3 2zm7.2 6l523.8-566.1-2.3-2-523.8 566.1 2.3 2zm7.1 6L1603 279.2l-2.3-2-523.8 566.1 2.3 2zm7.2 5.9l523.8-566.1-2.3-2L1084 849.3l2.4 1.9zm7.1 6l523.8-566.1-2.3-2-523.8 566.1 2.3 2zm7.1 6l523.8-566.1-2.3-2-523.8 566.1 2.3 2zm7.2 6l523.8-566.1-2.3-2-523.8 566.1 2.3 2zm7.1 6l523.8-566.1-2.3-2-523.8 566.1 2.3 2zm7.2 5.9L1645.8 315l-2.3-2-523.8 566.1 2.4 2zm7.1 6L1653 321l-2.3-2-523.8 566.1 2.3 2zm7.1 6L1660.1 327l-2.3-2L1134 891.1l2.3 2zm7.2 6L1667.3 333l-2.3-2-523.8 566.1 2.3 2zm7.1 6L1674.4 339l-2.3-2-523.8 566.1 2.3 2zm7.2 5.9l523.7-566-2.3-2-523.8 566.1 2.4 1.9z"/><g><defs><path id="c" d="M0 314.3l563.6-146.8L0 142.9z"/></defs><clipPath id="d"><use xlink:href="#c" overflow="visible"/></clipPath><path clip-path="url(#d)" fill="#0075C9" d="M-297.2 360l523.1-568.3 2.3 2L-294.9 362l-2.3-2zm9.5 8l523.1-568.3-2.3-2L-290.1 366l2.4 2zm7.1 6l523.1-568.3-2.3-2L-282.9 372l2.3 2zm7.1 6l523.1-568.4-2.3-2L-275.8 378l2.3 2zm7.2 6l523.1-568.3-2.3-2L-268.7 384l2.4 2zm7.1 6l523.1-568.3-2.3-2L-261.6 390l2.4 2zm7.1 6L271-170.3l-2.3-2L-254.4 396l2.3 2zm7.1 6l523.1-568.3-2.3-2L-247.3 402l2.3 2zm7.2 6l523.1-568.3-2.3-2L-240.1 408l2.3 2zm7.1 6l523.1-568.4-2.3-2L-233 414.1l2.3 1.9zm7.1 6l523.1-568.3-2.3-2L-225.9 420l2.3 2zm7.2 6l523.1-568.4-2.3-2L-218.7 426l2.3 2zm7.1 6l523.1-568.3-2.3-2L-211.6 432l2.3 2zm7.1 6l523.1-568.3-2.3-2L-204.5 438l2.3 2zm7.1 6L328-122.3l-2.3-2L-197.4 444l2.3 2zm7.2 6.1l523.1-568.3-2.3-2-523.1 568.3 2.3 2zm7.1 6l523.1-568.4-2.3-2L-183.1 456l2.3 2.1zm7.1 6l523.1-568.4-2.3-2L-176 462.1l2.3 2zm7.2 6L356.6-98.3l-2.3-2-523.1 568.4 2.3 2zm7.1 6L363.7-92.3l-2.3-2L-161.7 474l2.3 2.1zm7.1 6L370.8-86.3l-2.3-2L-154.6 480l2.3 2.1zm7.2 6L378-80.3l-2.3-2-523.1 568.4 2.3 2zm7.1 6L385.1-74.3l-2.3-2-523.1 568.4 2.3 2zm7.1 6L392.2-68.3l-2.3-2-523.1 568.4 2.3 2zm7.1 6L399.4-62.2l-2.3-2L-126 504.1l2.2 2zm7.2 6L406.5-56.2l-2.3-2L-119 510.1l2.4 2zm7.1 6L413.6-50.2l-2.3-2-523.1 568.4 2.3 1.9zm7.1 6L420.7-44.2l-2.3-2-523.1 568.3 2.3 2zm7.2 6L427.9-38.2l-2.3-2-523.2 568.4 2.4 1.9zm7.1 6L435-32.2l-2.3-2-523.1 568.4 2.3 1.9zm7.1 6L442.1-26.2l-2.3-2-523.1 568.4 2.3 1.9zm7.2 6L449.3-20.2l-2.3-2-523.2 568.4 2.4 1.9zm7.1 6L456.4-14.2l-2.3-2-523.2 568.4 2.4 1.9zm7.1 6L463.5-8.2l-2.3-2-523.1 568.4 2.3 1.9zm7.1 6L470.6-2.2l-2.3-2-523.1 568.4 2.3 1.9zm7.2 6.1L477.8 3.8l-2.3-2-523.2 568.4 2.4 2zm7.1 6L484.9 9.8l-2.3-2-523.1 568.4 2.3 2zm7.1 6L492 15.8l-2.3-2-523.1 568.4 2.3 2zm7.2 6L499.2 21.8l-2.3-2-523.2 568.4 2.4 2zm7.1 6L506.3 27.8l-2.3-2-523.2 568.4 2.4 2zm7.1 6L513.4 33.8l-2.3-2L-12 600.2l2.3 2zm7.1 6L520.6 39.8l-2.3-2L-4.9 606.2l2.3 2zm7.2 6L527.7 45.8l-2.3-2L2.2 612.2l2.4 2zm7.1 6L534.8 51.8l-2.3-2L9.4 618.2l2.3 2zm7.1 6L541.9 57.8l-2.3-2L16.5 624.2l2.3 2zm7.2 6L549.1 63.9l-2.3-2L23.6 630.2l2.4 2zm7.1 6L556.2 69.9l-2.3-2L30.8 636.2l2.3 2zm7.1 6L563.3 75.9l-2.3-2L37.9 642.2l2.3 2zm7.2 6L570.5 81.9l-2.3-2L45 648.2l2.4 2zm7.1 6L577.6 87.9l-2.3-2L52.1 654.2l2.4 2zm7.1 6L584.7 93.9l-2.3-2L59.3 660.3l2.3 1.9zm7.1 6L591.9 99.9l-2.3-2L66.4 666.3l2.3 1.9zm7.2 6L599 105.9l-2.3-2L73.5 672.3l2.4 1.9zm7.1 6l523.1-568.3-2.3-2L80.7 678.3l2.3 1.9zm7.1 6l523.1-568.3-2.3-2L87.8 684.3l2.3 1.9zm7.2 6.1L620.4 124l-2.3-2L94.9 690.3l2.4 2zm7.1 6L627.5 130l-2.3-2-523.1 568.3 2.3 2zm7.1 6L634.6 136l-2.3-2-523.1 568.3 2.3 2zm7.2 6L641.8 142l-2.3-2-523.2 568.3 2.4 2zm7.1 6L648.9 148l-2.3-2-523.1 568.3 2.3 2zm7.1 6L656 153.9l-2.3-2-523.1 568.4 2.3 2zm7.1 6L663.1 160l-2.3-2-523.1 568.3 2.3 2zm7.2 6L670.3 166l-2.3-2-523.2 568.3 2.4 2zm7.1 6L677.4 172l-2.3-2L152 738.3l2.3 2zm7.1 6L684.6 178l-2.3-2-523.2 568.3 2.3 2zm7.2 6L691.7 184l-2.3-2-523.2 568.3 2.4 2zm7.1 6L698.8 190l-2.3-2-523.1 568.3 2.3 2zm7.1 6L705.9 196l-2.3-2-523.1 568.3 2.3 2zm7.2 6L713.1 202l-2.3-2-523.2 568.3 2.4 2zm7.1 6L720.2 208l-2.3-2-523.2 568.4 2.4 1.9zm7.1 6L727.3 214l-2.3-2-523.1 568.4 2.3 1.9zm7.1 6L734.5 220l-2.3-2L209 786.4l2.3 1.9zm7.2 6L741.6 226l-2.3-2-523.2 568.4 2.4 1.9zm7.1 6L748.7 232l-2.3-2-523.1 568.4 2.3 1.9zm7.1 6L755.8 238l-2.3-2-523.1 568.4 2.3 1.9zm7.2 6.1L763 244l-2.3-2-523.2 568.4 2.4 2zm7.1 6L770.1 250l-2.3-2-523.2 568.4 2.4 2zm7.1 6L777.2 256l-2.3-2-523.1 568.4 2.3 2zm7.1 6L784.4 262l-2.3-2-523.2 568.4 2.3 2zm7.2 6L791.5 268l-2.3-2L266 834.4l2.4 2zm7.1 6L798.6 274l-2.3-2-523.1 568.4 2.3 2zm7.1 6L805.8 280l-2.3-2-523.2 568.4 2.3 2zm7.2 6L812.9 286l-2.3-2-523.2 568.4 2.4 2zm7.1 6L820 292l-2.3-2-523.1 568.4 2.3 2zm7.1 6l523.1-568.3-2.3-2-523.1 568.3 2.3 2zm7.2 6l523.1-568.3-2.3-2-523.2 568.3 2.4 2zm7.1 6l523.1-568.3-2.3-2-523.2 568.3 2.4 2zm7.1 6l523.1-568.3-2.3-2-523.1 568.3 2.3 2zm7.1 6l523.1-568.3-2.3-2-523.1 568.3 2.3 2zm7.2 6l523.1-568.3-2.3-2-523.2 568.3 2.4 2zm7.1 6l523.1-568.3-2.3-2-523.1 568.4 2.3 1.9zm7.1 6L877 340.1l-2.3-2-523.1 568.4 2.3 1.9zm7.2 6l523.1-568.3-2.3-2-523.2 568.4 2.4 1.9zm7.1 6l523.1-568.3-2.3-2-523.1 568.4 2.3 1.9zm7.1 6l523.1-568.3-2.3-2L373 924.5l2.3 1.9zm7.1 6.1l523.1-568.3-2.3-2-523.1 568.3 2.3 2zm7.2 6l523.1-568.3-2.3-2-523.2 568.3 2.4 2zm7.1 6l523.1-568.3-2.3-2-523.1 568.3 2.3 2zm7.1 6L927 382.1l-2.3-2-523.2 568.4 2.3 2zm7.2 6l523.1-568.3-2.3-2-523.2 568.3 2.4 2zm7.1 6l523.1-568.3-2.3-2-523.1 568.3 2.3 2zm7.1 6l523.1-568.3-2.3-2-523.1 568.3 2.3 2zm7.2 6l523.1-568.3-2.3-2L430 972.5l2.4 2zm7.1 6l523.1-568.4-2.3-2-523.2 568.4 2.4 2zm7.1 6l523.1-568.3-2.3-2-523.1 568.3 2.3 2zm7.1 6l523.1-568.3-2.3-2-523.1 568.3 2.3 2zm7.2 6L984 430.2l-2.3-2-523.2 568.3 2.4 2zm7.1 6l523.1-568.3-2.3-2-523.1 568.3 2.3 2zm7.1 6l523.1-568.3-2.3-2-523.1 568.3 2.3 2z"/></g></svg>