<svg xmlns="http://www.w3.org/2000/svg" xmlns:xlink="http://www.w3.org/1999/xlink" viewBox="0 0 1920 726"><path fill="#00ADE9" d="M0 114l1920 84.5V725H0z"/><defs><path id="a" d="M1071 161l849 38V2z"/></defs><clipPath id="b"><use xlink:href="#a" overflow="visible"/></clipPath><g clip-path="url(#b)" fill="#72CDF4"><path d="M803 151.1L1326.8-415l2.3 2-523.8 566.1zM812.5 159l523.7-566.1-2.3-1.9-523.8 566.1zM819.6 165l523.8-566.1-2.4-1.9-523.8 566.1zM826.7 171l523.8-566.1-2.3-2L824.4 169zM833.9 177l523.8-566.1-2.4-2L831.5 175zM841 183l523.8-566.1-2.4-2L838.7 181zM848.1 188.9l523.8-566-2.3-2L845.8 187zM855.3 194.9l523.8-566.1-2.4-1.9L852.9 193zM862.4 200.9l523.8-566.1-2.3-2-523.8 566.1zM869.6 206.9l523.7-566.1-2.3-2-523.8 566.1zM876.7 212.9l523.8-566.1-2.4-2-523.7 566.1zM883.8 218.8l523.8-566-2.3-2-523.8 566.1zM891 224.8l523.8-566.1-2.4-1.9-523.8 566.1zM898.1 230.8l523.8-566.1-2.3-1.9-523.8 566zM905.3 236.8L1429-329.3l-2.3-2-523.8 566.1zM912.4 242.8l523.8-566.1-2.4-2-523.7 566.1zM919.5 248.8l523.8-566.1-2.3-2-523.8 566.1zM926.7 254.7l523.8-566.1-2.4-1.9-523.8 566.1zM933.8 260.7l523.8-566.1-2.4-1.9-523.7 566.1zM940.9 266.7l523.8-566.1-2.3-2-523.8 566.1zM948.1 272.7l523.8-566.1-2.4-2-523.8 566.1zM1057.2 168.7L1581-397.4l-2.3-2-523.8 566.1zM1064.4 174.6l523.7-566.1-2.3-1.9L1062 172.7zM1071.5 180.6l523.8-566.1-2.4-1.9-523.7 566.1zM1078.6 186.6l523.8-566.1-2.3-2-523.8 566.1zM1085.8 192.6l523.8-566.1-2.4-2-523.8 566.1zM1092.9 198.6l523.8-566.1-2.3-2-523.8 566.1zM1100.1 204.5l523.7-566-2.3-2-523.8 566.1zM1107.2 210.5L1631-355.6l-2.4-1.9-523.7 566.1zM1114.3 216.5l523.8-566.1-2.3-2L1112 214.5zM1121.5 222.5l523.8-566.1-2.4-2-523.8 566.1zM1128.6 228.5l523.8-566.1-2.4-2-523.7 566.1zM1135.7 234.4l523.8-566-2.3-2-523.8 566.1zM1142.9 240.4l523.8-566.1-2.4-1.9-523.8 566.1zM1150 246.4l523.8-566.1-2.3-1.9-523.8 566zM1157.2 252.4L1681-313.7l-2.4-2-523.8 566.1zM1164.3 258.4l523.8-566.1-2.4-2L1162 256.4zM1171.4 264.4l523.8-566.1-2.3-2-523.8 566.1zM1178.6 270.3l523.8-566.1-2.4-1.9-523.8 566.1zM1185.7 276.3l523.8-566.1-2.3-1.9-523.8 566.1zM1192.9 282.3l523.7-566.1-2.3-2-523.8 566.1zM1200 288.3l523.8-566.1-2.4-2-523.7 566.1zM1207.1 294.3l523.8-566.1-2.3-2-523.8 566.1zM1214.3 300.2l523.8-566.1-2.4-1.9-523.8 566.1zM1221.4 306.2l523.8-566.1-2.3-1.9-523.8 566.1zM1228.6 312.2l523.7-566.1-2.3-2-523.8 566.1zM1235.7 318.2l523.8-566.1-2.4-2-523.8 566.1zM1242.8 324.2l523.8-566.1-2.3-2-523.8 566.1zM1250 330.1L1773.8-236l-2.4-1.9-523.8 566.1zM1257.1 336.1L1780.9-230l-2.4-1.9-523.7 566.1zM1264.2 342.1L1788-224l-2.3-2-523.8 566.1zM1271.4 348.1L1795.2-218l-2.4-2L1269 346.1zM1278.5 354.1L1802.3-212l-2.3-2-523.8 566.1zM1285.7 360l523.7-566-2.3-2-523.8 566.1zM1292.8 366l523.8-566.1-2.4-1.9-523.7 566.1z"/></g><g clip-path="url(#b)" fill="#72CDF4"><path d="M1300 372l523.7-566.1-2.3-1.9-523.8 566.1zM1307.1 378l523.8-566.1-2.4-2L1304.8 376zM1314.2 384L1838-182.1l-2.3-2L1311.9 382zM1321.4 390l523.8-566.1-2.4-2L1319 388zM1328.5 395.9l523.8-566-2.4-2L1326.2 394zM1335.6 401.9l523.8-566.1-2.3-1.9L1333.3 400zM1342.8 407.9l523.8-566.1-2.4-2-523.8 566.1zM1349.9 413.9l523.8-566.1-2.3-2-523.8 566.1zM1357.1 419.9l523.8-566.1-2.4-2-523.8 566.1zM1364.2 425.8l523.8-566-2.4-2-523.7 566.1zM1371.3 431.8l523.8-566.1-2.3-1.9L1369 429.9zM1378.5 437.8l523.8-566.1-2.4-1.9-523.8 566zM1385.6 443.8l523.8-566.1-2.3-2-523.8 566.1zM1392.8 449.8l523.7-566.1-2.3-2-523.8 566.1zM1399.9 455.8l523.8-566.1-2.4-2-523.7 566.1zM1407 461.7l523.8-566.1-2.3-1.9-523.8 566.1zM1414.2 467.7L1938-98.4l-2.4-1.9-523.8 566.1zM1421.3 473.7l523.8-566.1-2.3-2L1419 471.7zM1428.4 479.7l523.8-566.1-2.3-2-523.8 566.1zM1435.6 485.7l523.8-566.1-2.4-2-523.8 566.1zM1442.7 491.6l523.8-566.1-2.3-1.9-523.8 566.1zM1449.9 497.6l523.7-566.1-2.3-1.9-523.8 566.1zM1457 503.6l523.8-566.1-2.4-2-523.7 566.1zM1464.1 509.6l523.8-566.1-2.3-2-523.8 566.1zM1471.3 515.6l523.8-566.1-2.4-2-523.8 566.1zM1478.4 521.5l523.8-566-2.3-2-523.8 566.1zM1485.6 527.5l523.7-566.1-2.3-1.9-523.8 566.1zM1492.7 533.5l523.8-566.1-2.4-2-523.7 566.1zM1499.8 539.5l523.8-566.1-2.3-2-523.8 566.1zM1507 545.5l523.8-566.1-2.4-2-523.8 566.1zM1514.1 551.5l523.8-566.1-2.3-2-523.8 566.1zM1521.2 557.4L2045-8.7l-2.3-1.9-523.8 566.1zM1528.4 563.4L2052.2-2.7l-2.4-1.9-523.8 566zM1535.5 569.4L2059.3 3.3l-2.3-2-523.8 566.1zM1542.7 575.4L2066.5 9.3l-2.4-2-523.8 566.1zM1549.8 581.4l523.8-566.1-2.4-2-523.7 566.1zM1556.9 587.3l523.8-566.1-2.3-1.9-523.8 566.1zM1564.1 593.3l523.8-566.1-2.4-1.9-523.8 566.1zM1571.2 599.3L2095 33.2l-2.3-2-523.8 566.1zM1578.4 605.3l523.7-566.1-2.3-2L1576 603.3zM1585.5 611.3l523.8-566.1-2.4-2-523.7 566.1zM1592.6 617.2l523.8-566.1-2.3-1.9-523.8 566.1zM1599.8 623.2l523.8-566.1-2.4-1.9-523.8 566.1zM1606.9 629.2l523.8-566.1-2.3-2-523.8 566.1zM1614.1 635.2l523.7-566.1-2.3-2-523.8 566.1zM1621.2 641.2L2145 75.1l-2.4-2-523.8 566.1zM1628.3 647.1l523.8-566-2.3-2L1626 645.2zM1635.5 653.1L2159.3 87l-2.4-1.9-523.8 566.1zM1642.6 659.1L2166.4 93l-2.4-2-523.7 566.1zM1649.7 665.1L2173.5 99l-2.3-2-523.8 566.1zM1656.9 671.1L2180.7 105l-2.4-2-523.8 566.1zM1664 677l523.8-566-2.3-2-523.8 566.1zM1671.2 683l523.7-566.1-2.3-1.9-523.8 566.1zM1678.3 689l523.8-566.1-2.4-1.9L1676 687z"/></g><g><defs><path id="c" d="M.3 366.2L1065 162-.1 115.1z"/></defs><clipPath id="d"><use xlink:href="#c" overflow="visible"/></clipPath><path clip-path="url(#d)" fill="#0E7DC2" d="M-135.4 263l590.2-597.6 2.5 1.9L-133 264.9l-2.4-1.9zm10 7.7l590.2-597.6-2.5-1.9-590.2 597.6 2.5 1.9zm7.5 5.9L472.4-321l-2.5-1.9-590.2 597.6 2.4 1.9zm7.6 5.8l590.2-597.6-2.5-1.9-590.3 597.6 2.6 1.9zm7.5 5.8l590.2-597.6-2.5-1.9-590.3 597.6 2.6 1.9zm7.5 5.9L495-303.5l-2.5-1.9-590.3 597.5 2.5 2zm7.5 5.8l590.3-597.6-2.5-1.9L-90.2 298l2.4 1.9zm7.6 5.8L510-291.9l-2.5-1.9-590.2 597.6 2.5 1.9zm7.5 5.9L517.5-286l-2.5-1.9-590.2 597.5 2.5 2zm7.5 5.8L525-280.2l-2.5-1.9-590.2 597.6 2.5 1.9zm7.5 5.8l590.2-597.6-2.5-1.9-590.1 597.6 2.4 1.9zm7.6 5.9l590.2-597.6-2.5-1.9-590.2 597.5 2.5 2zm7.5 5.8l590.2-597.6-2.5-1.9L-45.1 333l2.5 1.9zm7.5 5.8l590.3-597.6-2.5-1.9-590.3 597.6 2.5 1.9zm7.5 5.9L562.7-251l-2.5-1.9-590.3 597.5 2.5 2zm7.5 5.8l590.2-597.6-2.5-1.9-590.1 597.6 2.4 1.9zm7.6 5.8l590.2-597.6-2.5-1.9L-15 356.3l2.5 1.9zm7.5 5.9l590.2-597.6-2.5-1.9L-7.5 362.1l2.5 2zm7.5 5.8l590.2-597.6-2.5-1.9L0 368l2.5 1.9zm7.5 5.8l590.2-597.6-2.5-1.9L7.6 373.8l2.4 1.9zm7.6 5.9L607.8-216l-2.5-1.9L15.1 379.6l2.5 2zm7.5 5.8l590.2-597.6-2.5-1.9L22.6 385.5l2.5 1.9zm7.5 5.8l590.3-597.6-2.5-1.9L30.1 391.3l2.5 1.9zm7.5 5.9l590.2-597.6-2.5-1.9L37.7 397.1l2.4 2zm7.5 5.8l590.2-597.6-2.5-1.9L45.2 403l2.4 1.9zm7.6 5.8l590.2-597.6-2.5-1.9L52.7 408.8l2.5 1.9zm7.5 5.9L652.9-181l-2.5-1.9L60.2 414.6l2.5 2zm7.5 5.8l590.3-597.6-2.5-1.9L67.7 420.5l2.5 1.9zm7.5 5.8L668-169.4l-2.5-1.9L75.3 426.3l2.4 1.9zm7.6 5.9l590.2-597.6-2.5-1.9L82.8 432.1l2.5 2zm7.5 5.8L683-157.7l-2.5-1.9L90.3 438l2.5 1.9zm7.5 5.8l590.3-597.6-2.5-1.9L97.8 443.8l2.5 1.9zm7.5 5.9L698.1-146l-2.5-1.9-590.2 597.5 2.4 2zm7.5 5.8l590.2-597.6-2.5-1.9-590.1 597.6 2.4 1.9zm7.6 5.8l590.2-597.6-2.5-1.9-590.2 597.6 2.5 1.9zm7.5 5.9l590.2-597.6-2.5-1.9-590.2 597.5 2.5 2zm7.5 5.8l590.3-597.6-2.5-1.9L135.4 473l2.5 1.9zm7.5 5.8l590.2-597.6-2.5-1.9L143 478.8l2.4 1.9zm7.6 5.9L743.2-111l-2.5-1.9-590.2 597.6 2.5 1.9zm7.5 5.8l590.3-597.6-2.5-1.9L158 490.5l2.5 1.9zm7.5 5.8L758.3-99.4l-2.5-1.9-590.3 597.6 2.5 1.9zm7.5 5.9L765.8-93.5l-2.5-1.9-590.2 597.6 2.4 1.9zm7.5 5.8L773.3-87.7l-2.5-1.9L180.6 508l2.4 1.9zm7.6 5.8L780.8-81.9l-2.5-1.9-590.2 597.6 2.5 1.9zm7.5 5.9L788.3-76l-2.5-1.9-590.2 597.6 2.5 1.9zm7.5 5.8L795.9-70.2l-2.5-1.9-590.3 597.6 2.5 1.9zm7.5 5.8L803.4-64.4l-2.5-1.9-590.2 597.6 2.4 1.9zm7.6 5.9L810.9-58.5l-2.5-1.9-590.2 597.5 2.5 2zm7.5 5.8L818.4-52.7l-2.5-1.9L225.7 543l2.5 1.9zm7.5 5.8L826-46.9l-2.5-1.9-590.3 597.6 2.5 1.9zm7.5 5.9L833.5-41l-2.5-1.9-590.2 597.6 2.4 1.9zm7.6 5.8L841-35.2l-2.5-1.9-590.2 597.6 2.5 1.9zm7.5 5.8L848.5-29.4l-2.5-1.9-590.2 597.6 2.5 1.9zm7.5 5.9L856-23.5l-2.5-1.9-590.2 597.6 2.5 1.9zm7.5 5.8L863.6-17.7l-2.5-1.9L270.8 578l2.5 1.9zm7.6 5.8L871.1-11.9l-2.5-1.9-590.2 597.6 2.5 1.9zm7.5 5.9L878.6-6l-2.5-1.9-590.2 597.6 2.5 1.9zm7.5 5.8L886.2-.2l-2.5-1.9-590.3 597.6 2.5 1.9zm7.5 5.8L893.7 5.6l-2.5-1.9L301 601.3l2.4 1.9zm7.6 5.9L901.2 11.5l-2.5-1.9-590.2 597.6 2.5 1.9zm7.5 5.8L908.7 17.3l-2.5-1.9L316 613l2.5 1.9zm7.5 5.8L916.2 23.2l-2.5-1.9-590.2 597.5 2.5 1.9zm7.5 5.9L923.8 29l-2.5-1.9L331 624.7l2.5 1.9zm7.5 5.8L931.3 34.8l-2.5-1.9-590.2 597.6 2.4 1.9zm7.6 5.8L938.8 40.6l-2.5-1.9-590.2 597.6 2.5 1.9zm7.5 5.9L946.3 46.5l-2.5-1.9-590.2 597.6 2.5 1.9zm7.5 5.8L953.9 52.3l-2.5-1.9L361.1 648l2.5 1.9zm7.5 5.8L961.4 58.1l-2.5-1.9-590.2 597.6 2.4 1.9zm7.5 5.9L968.9 64l-2.5-1.9-590.2 597.6 2.4 1.9zm7.6 5.8L976.4 69.8l-2.5-1.9-590.2 597.6 2.5 1.9zm7.5 5.8L983.9 75.6l-2.5-1.9-590.2 597.6 2.5 1.9zm7.5 5.9L991.5 81.5l-2.5-1.9-590.2 597.6 2.4 1.9zm7.5 5.8L999 87.3l-2.5-1.9L406.3 683l2.4 1.9zm7.6 5.8l590.3-597.6-2.5-1.9-590.3 597.6 2.5 1.9zm7.5 5.9L1014 99l-2.5-1.9-590.2 597.6 2.5 1.9zm7.5 5.8l590.2-597.6-2.5-1.9-590.2 597.6 2.5 1.9zm7.5 5.8L1029 110.6l-2.5-1.9-590.1 597.6 2.4 1.9zm7.6 5.9l590.2-597.6-2.5-1.9-590.2 597.6 2.5 1.9zm7.5 5.8l590.2-597.6-2.5-1.9L451.4 718l2.5 1.9zm7.5 5.8l590.2-597.6-2.5-1.9-590.2 597.6 2.5 1.9zm7.5 5.9L1059.2 134l-2.5-1.9-590.2 597.6 2.4 1.9zm7.5 5.8l590.2-597.6-2.5-1.9L474 735.5l2.4 1.9zm7.6 5.9l590.3-597.6-2.5-1.9-590.3 597.5 2.5 2zm7.5 5.8l590.2-597.6-2.5-1.9L489 747.2l2.5 1.9zm7.5 5.8l590.2-597.6-2.5-1.9L496.5 753l2.5 1.9zm7.5 5.9l590.2-597.6-2.5-1.9-590.1 597.5 2.4 2zm7.6 5.8L1104.3 169l-2.5-1.9-590.2 597.6 2.5 1.9zm7.5 5.8l590.2-597.6-2.5-1.9-590.2 597.6 2.5 1.9zm7.5 5.9l590.2-597.6-2.5-1.9-590.2 597.5 2.5 2zm7.5 5.8l590.2-597.6-2.5-1.9-590.1 597.6 2.4 1.9zm7.5 5.8l590.2-597.6-2.5-1.9L541.7 788l2.4 1.9zm7.6 5.9l590.2-597.6-2.5-1.9-590.2 597.5 2.5 2zm7.5 5.8L1149.4 204l-2.5-1.9-590.2 597.6 2.5 1.9zm7.5 5.8L1157 209.8l-2.5-1.9-590.2 597.6 2.4 1.9zm7.5 5.9l590.2-597.6-2.5-1.9-590.1 597.5 2.4 2zm7.6 5.8L1172 221.5l-2.5-1.9-590.2 597.6 2.5 1.9zm7.5 5.8l590.2-597.6-2.5-1.9L586.8 823l2.5 1.9zm7.5 5.9L1187 233.2l-2.5-1.9-590.2 597.5 2.5 2zm7.5 5.8L1194.6 239l-2.5-1.9-590.2 597.6 2.4 1.9zm7.6 5.8l590.2-597.6-2.5-1.9-590.2 597.6 2.5 1.9zm7.5 5.9l590.2-597.6-2.5-1.9-590.2 597.5 2.5 2zm7.5 5.8l590.2-597.6-2.5-1.9-590.2 597.6 2.5 1.9zm7.5 5.8l590.2-597.6-2.5-1.9L632 858l2.4 1.9zm7.5 5.9l590.2-597.6-2.5-1.9-590.1 597.5 2.4 2zm7.6 5.8L1239.7 274l-2.5-1.9L647 869.7l2.5 1.9zm7.5 5.8l590.3-597.6-2.5-1.9-590.3 597.6 2.5 1.9zm7.5 5.9l590.2-597.6-2.5-1.9L662 881.3l2.5 2zm7.5 5.8l590.2-597.6-2.5-1.9-590.1 597.6 2.4 1.9zm7.6 5.8l590.2-597.6-2.5-1.9L677.1 893l2.5 1.9z"/></g></svg>