<svg xmlns="http://www.w3.org/2000/svg" viewBox="0 0 513.56 83.8"><defs><style>.cls-1{fill:#008fd3}.cls-2{fill:#fbbe00}.cls-3{fill:#00151d}.cls-4{fill:#00914c}.cls-5{fill:#e30521}.cls-6{fill:#0080c8}.cls-7{fill:#e5007e}.cls-8{fill:#0e7dc2}</style></defs><title>headerLogoBackground</title><g id="Слой_2" data-name="Слой 2"><g id="дизайн-макет_копия_" data-name="дизайн-макет (копия)"><path class="cls-1" d="M10.41 65.6l2 4.09s.09.15 0 .21-.3.06-.3.06l-2.11.23s-.22 0-.21.11.23.14.51.16l2.38.24a.39.39 0 0 1 .32.21 4.39 4.39 0 0 0 .24.42s.13.18 0 .23a4.41 4.41 0 0 1-.72.08l-3.85.45s-.15 0-.15.09.06.13.21.14l2.63.28a.7.7 0 0 1 .41.16 5.47 5.47 0 0 0 .41.42s.15.13 0 .16-.88.12-.88.12l-3.95.33s-.14 0-.14.1.1.13.22.14l5.79.42a.46.46 0 0 1 .24 0c.08 0 .08.08.08.08l.49.49s.12.1.1.14a.13.13 0 0 1-.11.07l-4.79.43s-.16 0-.18.11.16.13.16.13l6 .48a.44.44 0 0 1 .33.14c.13.15.45.46.45.46s.09.11 0 .14-.35.06-.35.06l-4.62.37s-.12 0-.12.09.07.14.18.14l4.92.46s.21 0 .15.18l-.12.5s0 .15-.28.18l-2.75.36s-.15 0-.15.09 0 .12.19.14l2.61.28s.21 0 .17.24-.56 3.13-.56 3.13 0 .14-.06.14a1.75 1.75 0 0 1-.33-.18l-4.84-3-5.59 3.38s-.23.15-.39 0-.05-.55-.05-.55l1-6-4.56-4.54s-.21-.31.09-.46 6.38-.94 6.38-.94l2.85-5.7s.09-.27.32-.25.32.35.32.35"/><path class="cls-2" d="M22.66 65.64l2 4.09s.08.15 0 .2-.3.06-.3.06l-2.16.23s-.21 0-.2.11.23.14.52.16l2.37.24a.39.39 0 0 1 .32.2 4.18 4.18 0 0 0 .24.43s.13.17 0 .22a3.6 3.6 0 0 1-.71.08l-3.85.46s-.15 0-.15.08.06.13.21.14l2.63.29a.69.69 0 0 1 .41.16c.12.13.42.42.42.42s.15.13 0 .16-.87.11-.87.11l-3.95.33s-.14 0-.14.11.09.13.22.14l5.78.41a.58.58 0 0 1 .24 0c.07.05.07.08.07.08l.49.49s.13.09.1.14-.12.06-.12.06l-4.79.43s-.16 0-.17.11.15.13.15.13l6 .49a.43.43 0 0 1 .33.14 6.35 6.35 0 0 0 .46.45s.08.11 0 .14-.35.05-.35.05l-4.63.37s-.12 0-.12.09a.15.15 0 0 0 .16.14c.11 0 4.94.46 4.94.46s.21 0 .14.18l-.12.5s0 .14-.28.18l-2.75.33s-.14 0-.15.08 0 .12.18.14l2.62.28s.2 0 .16.24-.57 3.14-.57 3.14 0 .12-.05.13a1.81 1.81 0 0 1-.32-.19l-4.85-3-5.62 3.36s-.23.16-.38 0-.05-.59-.05-.59l1-6-4.59-4.5s-.21-.3.08-.46 6.38-.94 6.38-.94L22 65.54s.09-.27.32-.24.32.35.32.35"/><path class="cls-3" d="M35 65.64l2 4.09s.08.15 0 .2-.3.06-.3.06l-2.15.23s-.21 0-.21.11.24.14.52.16l2.38.24a.37.37 0 0 1 .31.2c.09.2.24.43.24.43s.13.17 0 .22a3.45 3.45 0 0 1-.71.08l-3.85.46s-.14 0-.14.08.05.13.21.14l2.63.29a.67.67 0 0 1 .4.16c.12.13.42.42.42.42s.15.13 0 .16-.88.11-.88.11l-4 .33s-.13 0-.13.11.09.13.21.14l5.79.41a.54.54 0 0 1 .24 0c.08.05.08.08.08.08l.49.49s.12.09.09.14a.14.14 0 0 1-.11.06l-4.79.43s-.16 0-.18.11.16.13.16.13l6 .49a.43.43 0 0 1 .32.14c.12.15.45.45.45.45s.09.11 0 .14-.36.05-.36.05l-4.62.37s-.12 0-.12.09.06.14.17.14l4.93.46s.2 0 .15.18-.12.5-.12.5 0 .14-.29.18l-2.76.33s-.13 0-.14.08 0 .12.18.14l2.61.28s.2 0 .17.24l-.57 3.14v.13a1.59 1.59 0 0 1-.33-.19l-4.85-3L29 83.72s-.21.16-.39 0-.05-.59-.05-.59l1-6-4.56-4.5s-.21-.3.09-.46 6.37-.94 6.37-.94l2.86-5.69s.08-.27.32-.24.31.35.31.35"/><path class="cls-4" d="M47.23 65.6l2 4.09s.08.15 0 .21-.23.1-.23.1l-2.15.23s-.21 0-.2.11.23.14.52.16l2.37.24a.41.41 0 0 1 .33.21 4.42 4.42 0 0 0 .23.42s.13.18 0 .23a4.34 4.34 0 0 1-.71.08l-3.86.45s-.15 0-.15.09.07.13.21.14l2.63.28a.68.68 0 0 1 .41.16 5.41 5.41 0 0 0 .41.42s.15.13 0 .16-.87.12-.87.12l-4 .33s-.14 0-.14.1.09.13.22.14l5.79.42a.49.49 0 0 1 .25 0c.07 0 .07.08.07.08l.48.49s.13.1.1.14a.13.13 0 0 1-.12.07l-4.79.43s-.16 0-.17.11.15.13.15.13l6 .48a.44.44 0 0 1 .33.14 5.83 5.83 0 0 0 .46.46s.09.11 0 .14-.35.06-.35.06l-4.63.37s-.14 0-.14.09.09.14.19.14l4.93.46s.21 0 .15.18-.13.5-.13.5 0 .15-.28.18l-2.75.34s-.15 0-.16.09 0 .12.19.14l2.61.28s.21 0 .16.24-.56 3.14-.56 3.14 0 .13-.05.13a1.72 1.72 0 0 1-.32-.18l-4.85-3-5.62 3.36s-.23.15-.38 0-.06-.59-.06-.59l1-6-4.58-4.49s-.22-.31.08-.46 6.38-.94 6.38-.94l2.86-5.7s.08-.27.32-.25.32.35.32.35"/><path class="cls-5" d="M59.5 65.6l2 4.09s.08.15 0 .21-.29.06-.29.06l-2.16.23s-.21 0-.2.11.23.14.51.16l2.31.19a.51.51 0 0 1 .35.19l.22.31s.17.21 0 .27a7 7 0 0 1-.83.11l-3.75.4s-.15 0-.15.09.07.13.21.14 9.63.28 9.63.28h1.33a.24.24 0 0 1 .16.07l-.33.38a2.05 2.05 0 0 1-.4.33 6 6 0 0 1-.77.07l-11 .44s-.14 0-.14.1.09.13.23.14l10.07.47a.56.56 0 0 1 .24 0c.07.05 0 .13 0 .13l-.26.25-.13.14a1 1 0 0 1-.3.11l-7.81.54s-.16 0-.18.11.16.12.16.12l6.36.41s.27 0 .27.08a2 2 0 0 1-.33.44s-.24.24-.29.27-.35.09-.35.09l-3.83.36s-.13 0-.13.09.07.14.18.14l3 .24.75.06c.3 0 .35.08.36.16s.1.71.1.71 0 .15-.3.21-2 .26-2 .26-.17 0-.17.1 0 .12.18.14-.2 0 2.31.26a.24.24 0 0 1 .25.24c0 .26.52 3 .52 3a.51.51 0 0 1-.1.48c-.13.13-.56-.16-.56-.16l-5.43-3.28-5.62 3.41s-.22.15-.38 0 0-.59 0-.59l1-6-4.58-4.49s-.22-.31.08-.46 6.49-.82 6.49-.82l2.86-5.7s.09-.26.32-.24.32.35.32.35"/><path class="cls-6" d="M68.11 16.46l-7.45 3.75-.05.5 7.77-3.91-.27-.34zM65.96 13.79l-4.84 2.44-.06.5 5.17-2.6-.27-.34zM62.73 9.78l-.92.46-.06.5 1.25-.63-.27-.33zM64.88 12.46l-3.53 1.77-.05.5 3.85-1.94-.27-.33zM67.04 15.13l-6.14 3.09-.06.5 6.46-3.26-.26-.33zM69.18 17.8l-8.74 4.41-.06.49 9.07-4.56-.27-.34zM63.81 11.12l-2.22 1.12-.06.49 2.55-1.28-.27-.33zM60.37 42.9l-2.48 1.25-.06.5 2.33-1.17.21-.58zM61.24 40.59l-3.11 1.57-.06.5 2.95-1.49.22-.58zM62.09 38.28l-3.73 1.88-.06.5 3.58-1.8.21-.58zM59.51 45.22l-1.85.93-.06.5 1.69-.85.22-.58zM58.65 47.53l-1.23.62-.05.5 1.06-.54.22-.58zM62.95 35.96l-4.36 2.21-.06.49 4.21-2.12.21-.58zM65.54 29.03l-5.97 3-.01.48 5.77-2.9.21-.58zM67.27 24.4l-7.52 3.79-.05.5 7.35-3.71.22-.58zM68.13 22.09l-8.15 4.1-.06.5 7.99-4.03.22-.57zM63.82 33.65l-5 2.51-.05.51 4.83-2.44.22-.58zM66.41 26.72l-6.89 3.46-.03.32.01.16 6.69-3.36.22-.58zM64.68 31.34l-5.63 2.83-.06.5 5.48-2.75.21-.58zM68.99 19.78l-8.78 4.42-.06.5 8.63-4.35.21-.57zM27.06 22.86l11.69-2.65.08-.44-11.77 2.65v.44zM27.07 28.01l10.7-2.41.08-.45-10.78 2.43v.43zM27.07 26.3l11.03-2.5.08-.44-11.11 2.5v.44zM27.09 29.73l10.36-2.34.07-.45-10.43 2.36v.43zM27.07 24.57l11.35-2.56.08-.45-11.44 2.58.01.43zM27.04 15.98l10.47-2.36-.29-.37-10.18 2.3v.43zM27 5.67l3.93-.88-.28-.37-3.65.82v.43zM27.01 7.39l5.01-1.13-.28-.37L27 6.96l.01.43zM27.01 9.1l6.11-1.37-.28-.37-5.83 1.32v.42zM27.05 21.14l12.02-2.72.09-.44-12.11 2.73v.43zM26.99 2.23l1.74-.39-.28-.37-1.46.33v.43zM27.63.37L27.36 0l-.37.08v.43l.64-.14zM26.99 3.95l2.83-.64-.27-.37-2.56.58v.43zM27.05 19.41l12.36-2.78.06-.37-.04-.07-12.38 2.79v.43zM27.04 17.7l11.56-2.61-.27-.37-11.29 2.55v.43zM27.03 10.83l7.18-1.63-.27-.36-6.92 1.56.01.43zM27.03 12.55l8.28-1.87-.27-.37-8.01 1.8v.44zM27.03 14.26l9.38-2.11-.28-.37-9.1 2.05v.43zM6.9 20.24l-3.74 2.83-.11.61 3.87-2.93-.02-.51zM6.79 18.23l-3.21 2.42-.1.6 3.34-2.52-.03-.5zM6.33 10.16l-1.04.8-.11.6 1.19-.9-.04-.5zM6.67 16.21l-2.65 2.02-.11.6 2.79-2.11-.03-.51zM6.23 8.14l-.52.39-.1.6.64-.48-.02-.51zM6.56 14.19L4.44 15.8l-.11.61 2.26-1.71-.03-.51zM6.45 12.18l-1.59 1.19-.11.61 1.73-1.3-.03-.5zM8.15 36.64l-.08-.48L0 42.28l.39.23 7.76-5.87zM9.92 47.9l.21-.16-.08-.46-.53.39.4.23zM6.74 46.1l2.72-2.06-.07-.47-3.04 2.3.39.23zM8.34 47l1.45-1.11-.08-.47-1.78 1.35.41.23zM5.15 45.2l3.98-3.01-.08-.47-4.29 3.26.39.22zM3.57 44.3l5.24-3.96-.09-.47-5.54 4.21.39.22zM7.01 22.26L2.73 25.5l-.1.6 4.41-3.33-.03-.51zM1.98 43.4l6.5-4.92-.09-.46-6.81 5.16.4.22zM7.23 26.29l-5.34 4.06-.11.6 5.48-4.16-.03-.5zM7.12 24.27l-4.81 3.65-.11.61 4.95-3.75-.03-.51zM7.35 28.31l-5.89 4.46-.11.61 6.02-4.57-.02-.5zM7.73 34.32L.18 40.05l-.11.6 7.74-5.87-.08-.46zM7.57 32.34L.6 37.62l-.1.6 7.1-5.38-.03-.5zM7.45 30.32l-6.42 4.87-.11.61 6.56-4.97-.03-.51z"/><path class="cls-6" d="M43.42 55.88l16.18-23.4-2.17 16.14-14.01 7.26z"/><path class="cls-7" d="M43.94 33.74V.18l-5.19 27 5.19 6.56z"/><path class="cls-6" d="M59.6 32.48L55.36.18l6.61 8.66-2.37 23.64zM43.23 35.1l-5.29-6.54-10.83 2.46v.54l16.12 3.54zM9.27 33.45l2.19 13.25 11.03 2.82L9.27 33.45z"/><path class="cls-7" d="M42.96 56.08l-9.89 4.8-21.09-12.15 30.98 7.35zM8.93 32.63L16.69.19l-8.78 6.8 1.02 25.64z"/><path class="cls-8" d="M104.29 14.86c-.24 1.13-.47 2.27-.74 3.4s-.5 2.27-.74 3.4q-.09.49-1.13 5.06T98.7 40h-4.61L86.57 9.36h3.94q1 4.57 2.06 9.1t2.1 9.11c.27 1.28.55 2.58.82 3.9s.58 2.61.88 3.89h.22l1.61-7.29q.53-2.5 1.07-4.83c.36-1.55.71-3.08 1.05-4.61l1-4.56c.35-1.52.7-3.09 1.06-4.7h4l4.92 18.48c.06.18.18.6.35 1.25s.37 1.39.59 2.19.41 1.59.62 2.35.36 1.32.45 1.68h.27q.45-2 .89-4.07c.29-1.37.58-2.73.85-4.07q1-4.47 2-8.91c.66-3 1.33-5.92 2-8.9h3.76q-1.93 8.28-3.82 16T115.7 40h-4.47q-1.21-4.7-2.42-9.11t-2.46-9.24c-.29-1.13-.57-2.25-.85-3.36s-.56-2.22-.89-3.35zM127.6 40V9.32h3.77V40zM158.66 33.75V9.36h3.62V40h-3.71L146.8 21.49l-4-6.44a.09.09 0 0 0-.07 0 .17.17 0 0 1-.11 0V40H139V9.36h3.81q2.86 4.39 5.61 8.68l5.58 8.68 4.47 7zM176.64 40V12.31h-9.84v-3h23.4v3h-9.8v27.65zM194.68 40V9.36h18.66v2.91h-14.86v10.11H211v2.77h-12.52v11.91h15.58V40zM239.56 17.77a9.24 9.24 0 0 1-1.37 4.94 6.68 6.68 0 0 1-4.05 3 4.16 4.16 0 0 1 2.6 2 16.69 16.69 0 0 1 1.34 3.38l2.51 8.91h-3.81l-2.42-8.41a11.19 11.19 0 0 0-1-2.44 5.23 5.23 0 0 0-1.25-1.52 3.81 3.81 0 0 0-1.59-.76 9.31 9.31 0 0 0-2-.2h-4.83V40h-3.75V9.32h10.51q4.52 0 6.83 2.33a8.33 8.33 0 0 1 2.28 6.12zm-9.71 6a8.93 8.93 0 0 0 1.92-.23 5 5 0 0 0 1.9-.88 4.89 4.89 0 0 0 1.43-1.77 6.61 6.61 0 0 0 .56-2.92 7 7 0 0 0-.45-2.63 4.46 4.46 0 0 0-1.21-1.81 5.15 5.15 0 0 0-1.88-1 8.34 8.34 0 0 0-2.33-.31h-6.08v11.5z"/><path class="cls-7" d="M276.64 29a14.47 14.47 0 0 1-.72 4.65 9.26 9.26 0 0 1-5.82 5.91 15.14 15.14 0 0 1-5.2.8q-6.12 0-8.88-3T253.28 29V9.32H257V29q0 4.21 2.06 6.31a7.83 7.83 0 0 0 5.87 2.1 8 8 0 0 0 5.88-2.08q2.08-2.08 2.08-6.33V9.31h3.76zM303.07 33.75V9.36h3.63V40H303l-11.79-18.51-4-6.44a.11.11 0 0 0-.07 0h-.1V40h-3.63V9.36h3.81q2.86 4.39 5.62 8.68l5.57 8.68 4.47 7zM314.35 40V9.32h3.76V40zM334.71 36l1.79-6.26 6-20.45h3.93L336.77 40h-4.47l-9.72-30.68h4l6.13 20.49 1.78 6.19zM350.51 40V9.36h18.66v2.91h-14.86v10.11h12.53v2.77h-12.53v11.91h15.58V40zM395.39 17.77a9.27 9.27 0 0 1-1.39 4.95 6.7 6.7 0 0 1-4.05 3 4.18 4.18 0 0 1 2.6 2 16.69 16.69 0 0 1 1.34 3.38l2.53 8.9h-3.81l-2.42-8.41a11.66 11.66 0 0 0-1-2.44 5.41 5.41 0 0 0-1.25-1.52 3.82 3.82 0 0 0-1.59-.76 9.26 9.26 0 0 0-2-.2h-4.85V40h-3.76V9.32h10.52q4.52 0 6.82 2.33a8.32 8.32 0 0 1 2.31 6.12zm-9.71 6a8.9 8.9 0 0 0 1.92-.23 4.85 4.85 0 0 0 1.91-.88 4.94 4.94 0 0 0 1.43-1.77 6.6 6.6 0 0 0 .56-2.92 7 7 0 0 0-.5-2.67 4.32 4.32 0 0 0-1.26-1.77 5.09 5.09 0 0 0-1.87-1 8.37 8.37 0 0 0-2.33-.31h-6.04v11.5zM411.41 8.82a25.4 25.4 0 0 1 4.18.38 12.28 12.28 0 0 1 4.23 1.54l-1.22 2.69a16.07 16.07 0 0 0-4-1.28 21.81 21.81 0 0 0-3.36-.29 6.79 6.79 0 0 0-4.38 1.36 5.06 5.06 0 0 0-1.7 4.19 3.58 3.58 0 0 0 .59 2.1 4.55 4.55 0 0 0 1.57 1.41 11.23 11.23 0 0 0 2.19.94c.8.25 1.64.49 2.51.7q1.66.4 3.4.91a11.31 11.31 0 0 1 3.14 1.53 7.64 7.64 0 0 1 2.35 2.53 8 8 0 0 1 .92 4.07 8.74 8.74 0 0 1-.83 3.94 7.43 7.43 0 0 1-2.33 2.73 10.34 10.34 0 0 1-3.58 1.59 19 19 0 0 1-4.54.51 24.83 24.83 0 0 1-5-.53 16.63 16.63 0 0 1-4.88-1.84l1.33-2.82a20.63 20.63 0 0 0 4.84 1.7 20.28 20.28 0 0 0 3.8.4 10.17 10.17 0 0 0 5.36-1.23c1.3-.82 1.94-2.32 1.94-4.5a4.89 4.89 0 0 0-.49-2.3 4.23 4.23 0 0 0-1.39-1.52 9.19 9.19 0 0 0-2.11-1c-.8-.29-1.67-.54-2.59-.78q-2-.54-3.86-1.12a13.52 13.52 0 0 1-3.24-1.48 6.77 6.77 0 0 1-2.18-2.35 6.78 6.78 0 0 1-.83-3.53 8.52 8.52 0 0 1 .76-3.67 8 8 0 0 1 2.1-2.73 9.4 9.4 0 0 1 3.2-1.7 13.75 13.75 0 0 1 4.1-.55zM428.1 40V9.32h3.75V40zM457.32 40c-.42-1.34-.83-2.68-1.26-4l-1.25-4h-12.08l-1.26 4q-.62 2-1.25 4h-3.9q2.73-8.32 5.28-16t4.83-14.68h4.84L461.3 40zm-3.4-11l-2.06-6.83q-1-3.42-2.11-6.78l-.89-3h-.13l-.89 3q-.5 1.66-1 3.25c-.33 1.06-.66 2.13-1 3.22s-.67 2.21-1 3.38-.75 2.4-1.16 3.71zM465.37 40V9.32h10a13.57 13.57 0 0 1 6.15 1.23 10 10 0 0 1 3.87 3.33 13.32 13.32 0 0 1 2 4.86 29.69 29.69 0 0 1 .56 5.84 27.35 27.35 0 0 1-.63 5.93 13.27 13.27 0 0 1-2.13 4.9 10.43 10.43 0 0 1-4 3.33 14 14 0 0 1-6.25 1.26zm3.9-27.74v24.8h5.23c.44 0 1 0 1.65-.09a8.57 8.57 0 0 0 2-.45 7.61 7.61 0 0 0 2.08-1.12 7.42 7.42 0 0 0 1.87-2.11 12.08 12.08 0 0 0 1.34-3.38 20.68 20.68 0 0 0 .51-5 23.91 23.91 0 0 0-.47-5.11 13.77 13.77 0 0 0-1.23-3.52 7.27 7.27 0 0 0-1.74-2.22 7.36 7.36 0 0 0-2-1.21 7.85 7.85 0 0 0-2-.51 15 15 0 0 0-1.79-.12zM494.18 40V9.36h18.67v2.91H498v10.11h12.53v2.77H498v11.91h15.57V40z"/><path class="cls-6" d="M95.23 57.06l1.37-1.59 6.65-7.3h5.59l-8.57 8.92L109.32 71h-5.69q-1.67-2.68-3.32-5.31T97 60.34l-2 2.06V71h-4.77V48.17H95v8.89zM129 54.71a7.81 7.81 0 0 1-.23 1.84 6 6 0 0 1-.7 1.69 5.69 5.69 0 0 1-1.21 1.39 5 5 0 0 1-1.69.94 3.46 3.46 0 0 1 2 1.56 10.64 10.64 0 0 1 1 2.43L130 71h-4.8c-.28-1-.57-2-.85-3s-.57-2-.85-3a4.47 4.47 0 0 0-1.46-2.55 3.84 3.84 0 0 0-2.3-.66h-2.42V71h-4.77V48.17h9.11a9.53 9.53 0 0 1 3.32.52 6.17 6.17 0 0 1 2.29 1.41 5.6 5.6 0 0 1 1.33 2.09 7.45 7.45 0 0 1 .4 2.52zm-8.28 3.71a4.51 4.51 0 0 0 1.18-.16 3 3 0 0 0 1.1-.56 2.87 2.87 0 0 0 .8-1.06 3.75 3.75 0 0 0 .32-1.65 3.15 3.15 0 0 0-1-2.52 3.62 3.62 0 0 0-2.44-.81h-3.4v6.76zM148.34 71l-1.57-5.21h-8.2L137 71h-4.8l7.64-22.78h6.09L153.31 71zm-4.22-14.52l-1.3-4.95h-.17l-1.37 5.11-1.68 5.84h6.18zM163.84 47.71a19.69 19.69 0 0 1 3.56.35 11.5 11.5 0 0 1 3.6 1.28l-1.24 3.32a13 13 0 0 0-3.25-.92 21.22 21.22 0 0 0-2.8-.21 3.69 3.69 0 0 0-2.42.73 2.66 2.66 0 0 0-.88 2.19 1.7 1.7 0 0 0 .37 1.11 3.23 3.23 0 0 0 1 .78 7.13 7.13 0 0 0 1.42.57c.53.15 1.1.29 1.69.43.76.2 1.58.43 2.46.69a8.87 8.87 0 0 1 2.45 1.16 5.85 5.85 0 0 1 1.86 2 6.43 6.43 0 0 1 .74 3.28 5.9 5.9 0 0 1-2.36 5q-2.34 1.78-7.09 1.78c-.57 0-1.19 0-1.87-.1s-1.4-.17-2.11-.32a19.55 19.55 0 0 1-2.16-.56 14.56 14.56 0 0 1-2.06-.85L156 66a18.5 18.5 0 0 0 4.28 1.22 22.63 22.63 0 0 0 3 .27 5.44 5.44 0 0 0 3-.68 2.6 2.6 0 0 0 1-2.34 2.52 2.52 0 0 0-.26-1.21 2.43 2.43 0 0 0-.74-.83 4.72 4.72 0 0 0-1.18-.58c-.46-.15-1-.31-1.5-.46-1.11-.29-2.18-.58-3.17-.88a10.36 10.36 0 0 1-2.65-1.18 5.46 5.46 0 0 1-1.78-1.82 5.53 5.53 0 0 1-.67-2.87 6.43 6.43 0 0 1 2.13-5c1.41-1.29 3.54-1.93 6.38-1.93zM191 63.86V48.17h4.68V71h-4.83l-7.6-12.26c-.37-.64-.75-1.27-1.13-1.89s-.75-1.25-1.12-1.89h-.16V71h-4.69V48.17h4.92l3.46 5.51q1.71 2.72 3.44 5.54l2.83 4.64zM220.53 59.54a15.5 15.5 0 0 1-.66 4.66 10.55 10.55 0 0 1-2 3.72 9 9 0 0 1-3.25 2.47 10.7 10.7 0 0 1-4.53.9 12.06 12.06 0 0 1-4.74-.85 8.71 8.71 0 0 1-3.29-2.39 9.94 9.94 0 0 1-1.91-3.68 16.74 16.74 0 0 1-.62-4.76 17 17 0 0 1 .6-4.61 10.9 10.9 0 0 1 1.88-3.78 8.73 8.73 0 0 1 3.27-2.55 11.25 11.25 0 0 1 4.81-.93 11.05 11.05 0 0 1 4.79.94 8.71 8.71 0 0 1 3.22 2.56A10.32 10.32 0 0 1 220 55a17.74 17.74 0 0 1 .53 4.54zm-5.13.07a23.07 23.07 0 0 0-.2-3.07 9.08 9.08 0 0 0-.79-2.69A5 5 0 0 0 212.8 52a4.53 4.53 0 0 0-2.67-.73 4.79 4.79 0 0 0-2.73.72 5.13 5.13 0 0 0-1.68 1.87 8.14 8.14 0 0 0-.85 2.68 22.15 22.15 0 0 0-.23 3.16 11.91 11.91 0 0 0 1.22 6 4.53 4.53 0 0 0 4.27 2.11 4.38 4.38 0 0 0 4.05-2.32 8.43 8.43 0 0 0 .92-2.56 16.73 16.73 0 0 0 .3-3.31zM228.42 62.77l-7.33-14.59h5c.46 1 .92 2 1.4 2.93s.94 1.94 1.38 2.94l2 4.54h.2c.37-.73.72-1.52 1.06-2.37a25.2 25.2 0 0 1 1.06-2.38l2.8-5.67H241q-1.85 3.45-3.7 7t-3.69 7V71h-5.16zM256.17 71l-1.57-5.21h-8.2L244.8 71H240l7.65-22.78h6.07L261.15 71zM252 56.44l-1.32-4.95h-.16l-1.36 5.11-1.67 5.84h6.18zM280.64 54.71a7.71 7.71 0 0 1-.23 1.84 6 6 0 0 1-.7 1.69 6 6 0 0 1-1.19 1.39 5.3 5.3 0 0 1-1.71.94 3.52 3.52 0 0 1 2 1.56 11 11 0 0 1 1 2.43l1.81 6.44h-4.81l-.81-3c-.29-1-.57-2-.85-3a4.51 4.51 0 0 0-1.46-2.55 3.85 3.85 0 0 0-2.3-.66h-2.42V71h-4.78V48.17h9.13a9.5 9.5 0 0 1 3.31.52 6.16 6.16 0 0 1 2.29 1.41 5.52 5.52 0 0 1 1.32 2.09 7.36 7.36 0 0 1 .4 2.52zm-8.27 3.71a4.56 4.56 0 0 0 1.18-.16 3 3 0 0 0 1.08-.56 2.87 2.87 0 0 0 .8-1.06 3.75 3.75 0 0 0 .32-1.65 3.13 3.13 0 0 0-1-2.52 3.64 3.64 0 0 0-2.46-.81h-3.39v6.76zM293.14 47.71a19.72 19.72 0 0 1 3.56.35 11.55 11.55 0 0 1 3.56 1.28L299 52.65a13 13 0 0 0-3.25-.92 21.26 21.26 0 0 0-2.8-.21 3.72 3.72 0 0 0-2.42.73 2.69 2.69 0 0 0-.88 2.19 1.66 1.66 0 0 0 .38 1.11 3.16 3.16 0 0 0 1 .78 7 7 0 0 0 1.42.57c.53.15 1.09.29 1.68.43.77.2 1.59.43 2.48.69a9.12 9.12 0 0 1 2.45 1.16 6.11 6.11 0 0 1 1.86 2 6.53 6.53 0 0 1 .74 3.28 5.9 5.9 0 0 1-2.35 5q-2.36 1.78-7.1 1.78c-.56 0-1.19 0-1.87-.1s-1.39-.17-2.11-.32a20.07 20.07 0 0 1-2.16-.56 14.7 14.7 0 0 1-2.06-.85l1.25-3.41a18.83 18.83 0 0 0 4.28 1.22 22.66 22.66 0 0 0 3 .27 5.45 5.45 0 0 0 3-.68 2.6 2.6 0 0 0 1-2.34 2.27 2.27 0 0 0-1-2 4.72 4.72 0 0 0-1.18-.58c-.46-.15-1-.31-1.5-.46q-1.67-.43-3.18-.88a10.69 10.69 0 0 1-2.65-1.18 5.59 5.59 0 0 1-1.82-1.84 5.52 5.52 0 0 1-.67-2.87 6.42 6.42 0 0 1 2.14-5q2.2-1.95 6.46-1.95zM310.17 57.06l1.37-1.59 6.63-7.3h5.59l-8.56 8.92L324.27 71h-5.69c-1.11-1.79-2.22-3.56-3.32-5.31s-2.2-3.51-3.31-5.31l-2 2.06V71h-4.77V48.17h4.77v8.89zM337.78 67.64h9.32V71h-15.79v-3l2.06-1.82q1.11-1 2.24-2.06T337.8 62a18.51 18.51 0 0 0 1.86-2.24 13.8 13.8 0 0 0 1.34-2.23 5.25 5.25 0 0 0 .48-2.12 2.87 2.87 0 0 0-.89-2.31 3.89 3.89 0 0 0-2.6-.78 12.16 12.16 0 0 0-2.32.3 11.19 11.19 0 0 0-3.24 1.29L331 51.09a13.1 13.1 0 0 1 4.14-2 14.53 14.53 0 0 1 3.67-.55 8.06 8.06 0 0 1 5.39 1.67 6.09 6.09 0 0 1 2 4.9 8 8 0 0 1-.84 3.53 17.33 17.33 0 0 1-2.2 3.36 29.87 29.87 0 0 1-2.73 3c-1 .93-1.89 1.77-2.71 2.52zM366.61 59.95a20 20 0 0 1-.44 4.23 10.52 10.52 0 0 1-1.47 3.59 7.83 7.83 0 0 1-2.7 2.51 8.21 8.21 0 0 1-4.13.95 9.08 9.08 0 0 1-4.33-.91 7.35 7.35 0 0 1-2.72-2.45 9.94 9.94 0 0 1-1.41-3.58A22.53 22.53 0 0 1 349 60a21.41 21.41 0 0 1 .4-4.14 11.21 11.21 0 0 1 1.41-3.68 7.63 7.63 0 0 1 2.72-2.63 8.43 8.43 0 0 1 4.33-1 8.25 8.25 0 0 1 4.34 1 7.63 7.63 0 0 1 2.67 2.67 10.84 10.84 0 0 1 1.34 3.66 23.51 23.51 0 0 1 .4 4.07zm-4.67.09c0-.84 0-1.73-.12-2.66a10.58 10.58 0 0 0-.52-2.56 4.69 4.69 0 0 0-1.22-1.93 3.06 3.06 0 0 0-2.18-.76 3.17 3.17 0 0 0-2.19.75 4.67 4.67 0 0 0-1.27 1.91 9.9 9.9 0 0 0-.59 2.57 26.35 26.35 0 0 0 0 5.73 7.82 7.82 0 0 0 .64 2.42 4.07 4.07 0 0 0 1.28 1.63 3.49 3.49 0 0 0 2.12.6 3.08 3.08 0 0 0 2-.65 4.24 4.24 0 0 0 1.23-1.73 9.85 9.85 0 0 0 .62-2.48 21.26 21.26 0 0 0 .19-2.88zM372.78 53l-4.58.44v-3.11l5-1.49h4.17V71h-4.58zM393 61.6a9.66 9.66 0 0 1-4.82 1.4 8.08 8.08 0 0 1-2.62-.41 5.72 5.72 0 0 1-3.56-3.45 8.39 8.39 0 0 1-.53-3.1 8.16 8.16 0 0 1 .59-3.19 6.65 6.65 0 0 1 1.63-2.34 7.17 7.17 0 0 1 2.52-1.44 10 10 0 0 1 3.22-.5 8.86 8.86 0 0 1 4 .8 6.86 6.86 0 0 1 2.57 2.17 9.17 9.17 0 0 1 1.42 3.25 17.53 17.53 0 0 1 .45 4.07 21.7 21.7 0 0 1-.52 4.87 11.13 11.13 0 0 1-1.7 3.91 8.23 8.23 0 0 1-3 2.6 9.42 9.42 0 0 1-4.4.95 15.66 15.66 0 0 1-3.09-.27 11.54 11.54 0 0 1-2-.56l.81-3.29a10.19 10.19 0 0 0 2.21.52 17.69 17.69 0 0 0 1.82.12 4.31 4.31 0 0 0 2.4-.63 5.53 5.53 0 0 0 1.6-1.55 7.14 7.14 0 0 0 .9-2 13.33 13.33 0 0 0 .39-1.85zm-7.16-5.67a6.1 6.1 0 0 0 .17 1.46 3 3 0 0 0 .55 1.16 2.6 2.6 0 0 0 1 .78 4 4 0 0 0 1.63.28 6 6 0 0 0 1.52-.18A8.67 8.67 0 0 0 392 59a5.18 5.18 0 0 0 .81-.45 4 4 0 0 1 .44-.28v-.63a13.48 13.48 0 0 0-.13-1.77 5.5 5.5 0 0 0-.53-1.76 3.2 3.2 0 0 0-3.1-1.87 3.42 3.42 0 0 0-2.65 1 3.84 3.84 0 0 0-.95 2.69zM422.39 54.42a7 7 0 0 1-1 3.7 5 5 0 0 1-3 2.22 3.13 3.13 0 0 1 1.94 1.52 13.06 13.06 0 0 1 1 2.52l1.84 6.62h-2.84l-1.81-6.29a8.89 8.89 0 0 0-.75-1.82 4.09 4.09 0 0 0-.94-1.14 2.79 2.79 0 0 0-1.19-.57 6.79 6.79 0 0 0-1.5-.15h-3.61V71h-2.81V48.1h7.85a6.87 6.87 0 0 1 5.1 1.74 6.23 6.23 0 0 1 1.72 4.58zm-7.26 4.45a6.82 6.82 0 0 0 1.44-.17A3.66 3.66 0 0 0 418 58a3.59 3.59 0 0 0 1.07-1.32 4.88 4.88 0 0 0 .41-2.18 5.21 5.21 0 0 0-.33-2 3.26 3.26 0 0 0-.94-1.32 3.79 3.79 0 0 0-1.41-.74 6.15 6.15 0 0 0-1.74-.23h-4.54v8.59zM444.54 62.78a10.73 10.73 0 0 1-.54 3.48 7.11 7.11 0 0 1-1.62 2.69 7.25 7.25 0 0 1-2.73 1.72 11.32 11.32 0 0 1-3.88.6c-3.05 0-5.27-.75-6.64-2.26a8.91 8.91 0 0 1-2.06-6.24V48.1h2.81v14.71a6.49 6.49 0 0 0 1.54 4.72 5.83 5.83 0 0 0 4.38 1.57 6 6 0 0 0 4.4-1.56 6.44 6.44 0 0 0 1.55-4.73V48.1h2.81zM456.61 47.73a19.15 19.15 0 0 1 3.13.28 9.13 9.13 0 0 1 3.16 1.16l-.9 2a12.17 12.17 0 0 0-3-1 16.27 16.27 0 0 0-2.51-.22 5.08 5.08 0 0 0-3.28 1 3.76 3.76 0 0 0-1.27 3.13 2.76 2.76 0 0 0 .43 1.57 3.51 3.51 0 0 0 1.18 1.06 8.69 8.69 0 0 0 1.64.7c.6.19 1.22.36 1.87.52.83.2 1.68.43 2.54.69a8.54 8.54 0 0 1 2.37 1.1 5.71 5.71 0 0 1 1.76 1.89 6 6 0 0 1 .68 3 6.51 6.51 0 0 1-.62 2.95 5.51 5.51 0 0 1-1.74 2 7.71 7.71 0 0 1-2.68 1.19 14.14 14.14 0 0 1-3.4.38 18.68 18.68 0 0 1-3.75-.4 12.55 12.55 0 0 1-3.65-1.37l1-2.07a15.57 15.57 0 0 0 3.61 1.27A15.3 15.3 0 0 0 456 69a7.6 7.6 0 0 0 4.07-.92 3.66 3.66 0 0 0 1.46-3.37 3.61 3.61 0 0 0-.37-1.72 3.19 3.19 0 0 0-1-1.14 6.89 6.89 0 0 0-1.58-.77c-.6-.21-1.25-.41-1.94-.59-1-.27-2-.54-2.88-.83a10.6 10.6 0 0 1-2.43-1.11 5.15 5.15 0 0 1-1.67-1.71 5.08 5.08 0 0 1-.62-2.64 6.32 6.32 0 0 1 .57-2.74 6 6 0 0 1 1.57-2 6.92 6.92 0 0 1 2.39-1.27 10.18 10.18 0 0 1 3.04-.46zM475.78 47.73a19.17 19.17 0 0 1 3.13.28 9.17 9.17 0 0 1 3.16 1.16l-.9 2a12.13 12.13 0 0 0-3-1 16.26 16.26 0 0 0-2.51-.22 5.06 5.06 0 0 0-3.27 1 3.76 3.76 0 0 0-1.28 3.13 2.66 2.66 0 0 0 .45 1.57 3.36 3.36 0 0 0 1.17 1.06 8.3 8.3 0 0 0 1.64.7c.6.19 1.22.36 1.87.52.83.2 1.67.43 2.54.69a8.53 8.53 0 0 1 2.37 1.1 5.73 5.73 0 0 1 1.76 1.89 6 6 0 0 1 .68 3 6.55 6.55 0 0 1-.61 2.95 5.6 5.6 0 0 1-1.74 2 7.71 7.71 0 0 1-2.68 1.19 14.1 14.1 0 0 1-3.39.38 18.66 18.66 0 0 1-3.75-.4 12.58 12.58 0 0 1-3.64-1.37l1-2.07a15.49 15.49 0 0 0 3.62 1.27 15.13 15.13 0 0 0 2.84.3 7.57 7.57 0 0 0 4.06-.92 3.66 3.66 0 0 0 1.45-3.37 3.56 3.56 0 0 0-.37-1.72 3.24 3.24 0 0 0-1-1.14 6.94 6.94 0 0 0-1.58-.77c-.6-.21-1.25-.41-1.94-.59-1-.27-2-.54-2.88-.83a10.43 10.43 0 0 1-2.42-1.11 4.7 4.7 0 0 1-2.29-4.35 6.27 6.27 0 0 1 .56-2.74 6.12 6.12 0 0 1 1.57-2 7 7 0 0 1 2.39-1.27 10.21 10.21 0 0 1 2.99-.32zM488.25 71V48.1h2.8V71zM510.09 71l-.93-3c-.31-1-.63-2-.93-3h-9l-.94 3-.93 3h-2.91q2-6.22 3.94-11.94t3.61-11h3.61L513.07 71zm-2.54-8.16c-.52-1.7-1-3.4-1.54-5.1s-1-3.39-1.58-5.07l-.66-2.24h-.1l-.67 2.28c-.25.83-.49 1.64-.74 2.43s-.5 1.59-.74 2.41-.49 1.65-.77 2.52-.56 1.79-.87 2.78z"/></g></g></svg>