<svg xmlns="http://www.w3.org/2000/svg" xmlns:xlink="http://www.w3.org/1999/xlink" viewBox="0 0 99.4 147.86"><defs><style>.cls-1{isolation:isolate}.cls-2{fill:#b1b1b1}.cls-14,.cls-3,.cls-6,.cls-8{fill:#fff}.cls-4,.cls-41,.cls-9{fill:#ededed}.cls-31,.cls-32,.cls-33,.cls-34,.cls-35,.cls-36,.cls-37,.cls-4,.cls-40,.cls-43,.cls-44{mix-blend-mode:multiply}.cls-11,.cls-5,.cls-7{fill:none}.cls-5,.cls-8,.cls-9{stroke:#b1b1b1}.cls-5,.cls-6,.cls-7,.cls-8,.cls-9{stroke-miterlimit:10;stroke-width:.58px}.cls-6,.cls-7{stroke:#9d9c9a}.cls-10{fill:#1d1e1c}.cls-12{fill:url(#linear-gradient)}.cls-13{fill:url(#linear-gradient-2)}.cls-14{opacity:.99}.cls-15,.cls-17{opacity:.53}.cls-15{fill:url(#Новый_образец_градиента_3)}.cls-16{fill:url(#radial-gradient)}.cls-17{fill:url(#radial-gradient-2)}.cls-18{fill:url(#radial-gradient-3)}.cls-19{fill:url(#Новый_образец_градиента_4)}.cls-20{fill:url(#radial-gradient-4)}.cls-21{fill:url(#linear-gradient-3)}.cls-22{fill:#c2006b}.cls-23{fill:#868686}.cls-24{fill:url(#linear-gradient-4)}.cls-25{fill:url(#linear-gradient-5)}.cls-26{fill:#3d3d3c}.cls-27{fill:url(#linear-gradient-6)}.cls-28{fill:url(#linear-gradient-7)}.cls-29{fill:#c20a6c}.cls-30{fill:url(#radial-gradient-5)}.cls-31{fill:url(#linear-gradient-8)}.cls-32{fill:url(#linear-gradient-9)}.cls-33{fill:url(#linear-gradient-10)}.cls-34{fill:url(#linear-gradient-11)}.cls-35{fill:url(#linear-gradient-12)}.cls-36{fill:url(#linear-gradient-13)}.cls-37{fill:url(#linear-gradient-14)}.cls-38{fill:url(#radial-gradient-6)}.cls-39{fill:url(#linear-gradient-15)}.cls-42{fill:url(#linear-gradient-16)}.cls-43{fill:url(#linear-gradient-17)}.cls-44{fill:url(#linear-gradient-18)}.cls-45{fill:#c6c6c5}.cls-46{fill:#0080c8}.cls-47{fill:#1d1d1b}.cls-48{fill:#008fd3}.cls-49{fill:#fbbe00}.cls-50{fill:#00151d}.cls-51{fill:#00914c}.cls-52{fill:#e30521}.cls-53{fill:#e5007e}.cls-54{fill:#0080c9}.cls-55{fill:#e6007e}.cls-56{fill:#e40521}.cls-57{fill:#0090d3}.cls-58{fill:#fcbf00}</style><linearGradient id="linear-gradient" x1="35.49" y1="27.08" x2="50.37" y2="32.4" gradientUnits="userSpaceOnUse"><stop offset="0" stop-color="#d9d9d9"/><stop offset=".52" stop-color="#efefef"/><stop offset="1" stop-color="#fff"/></linearGradient><linearGradient id="linear-gradient-2" x1="54.21" y1="29.75" x2="77.68" y2="26.31" gradientUnits="userSpaceOnUse"><stop offset="0" stop-color="#fff"/><stop offset=".48" stop-color="#efefef"/><stop offset="1" stop-color="#d9d9d9"/></linearGradient><radialGradient id="Новый_образец_градиента_3" cx="60.8" cy="29.57" r="6.4" gradientUnits="userSpaceOnUse"><stop offset="0" stop-color="#81cff4"/><stop offset=".17" stop-color="#71c9f2"/><stop offset=".5" stop-color="#48b9ec"/><stop offset=".96" stop-color="#06a0e3"/><stop offset="1" stop-color="#009ee2"/></radialGradient><radialGradient id="radial-gradient" cx="58.72" cy="29.58" r="1.47" gradientUnits="userSpaceOnUse"><stop offset="0" stop-color="#585757"/><stop offset=".39" stop-color="#444443"/><stop offset="1" stop-color="#1d1e1c"/></radialGradient><radialGradient id="radial-gradient-2" cx="40.14" cy="29.86" r="2.42" xlink:href="#Новый_образец_градиента_3"/><radialGradient id="radial-gradient-3" cx="41.83" cy="29.46" r="1.54" xlink:href="#radial-gradient"/><linearGradient id="Новый_образец_градиента_4" x1="45.51" y1="57.29" x2="55.18" y2="57.29" gradientUnits="userSpaceOnUse"><stop offset="0" stop-color="#c20a6c"/><stop offset=".47" stop-color="#e3097e"/></linearGradient><radialGradient id="radial-gradient-4" cx="76.5" cy="28.48" r="0" gradientUnits="userSpaceOnUse"><stop offset=".17" stop-color="#0075be"/><stop offset=".63" stop-color="#008ed4"/><stop offset="1" stop-color="#009ee2"/></radialGradient><linearGradient id="linear-gradient-3" x1="79.75" y1="41.75" x2="79.75" y2="41.75" gradientUnits="userSpaceOnUse"><stop offset="0" stop-color="#3d3d3c"/><stop offset=".63" stop-color="#4d4c4c"/><stop offset="1" stop-color="#585757"/></linearGradient><linearGradient id="linear-gradient-4" x1="63.88" y1="16.8" x2="69.17" y2="16.8" xlink:href="#linear-gradient-2"/><linearGradient id="linear-gradient-5" x1="34.01" y1="14.83" x2="40.2" y2="14.83" xlink:href="#linear-gradient-2"/><linearGradient id="linear-gradient-6" x1="31.32" y1="26.01" x2="31.32" y2="26.01" gradientUnits="userSpaceOnUse"><stop offset="0" stop-color="#d9d9d9"/><stop offset=".17" stop-color="#c9c9c9"/><stop offset=".5" stop-color="#a0a0a0"/><stop offset=".96" stop-color="#5f5e5e"/><stop offset="1" stop-color="#585757"/></linearGradient><linearGradient id="linear-gradient-7" x1="31.31" y1="22.63" x2="69.03" y2="22.63" xlink:href="#linear-gradient-6"/><radialGradient id="radial-gradient-5" cx="52.16" cy="75.98" r="21.3" xlink:href="#radial-gradient-4"/><linearGradient id="linear-gradient-8" x1="36.23" y1="51.68" x2="49.56" y2="51.68" xlink:href="#linear-gradient-2"/><linearGradient id="linear-gradient-9" x1="3.93" y1="50.36" x2="8.44" y2="50.36" xlink:href="#linear-gradient-2"/><linearGradient id="linear-gradient-10" x1="16.63" y1="38.6" x2="22.61" y2="38.6" xlink:href="#linear-gradient-2"/><linearGradient id="linear-gradient-11" x1="53.84" y1="80.12" x2="75.18" y2="80.12" xlink:href="#radial-gradient-4"/><linearGradient id="linear-gradient-12" x1="33.25" y1="59.14" x2="69.95" y2="59.14" xlink:href="#radial-gradient-4"/><linearGradient id="linear-gradient-13" x1="67.65" y1="65.69" x2="72.25" y2="65.69" xlink:href="#radial-gradient-4"/><linearGradient id="linear-gradient-14" x1="72.11" y1="69.35" x2="96.24" y2="69.35" xlink:href="#linear-gradient"/><radialGradient id="radial-gradient-6" cx="51.31" cy="39.25" r="9.58" xlink:href="#radial-gradient"/><linearGradient id="linear-gradient-15" x1="56.13" y1="31.9" x2="52.58" y2="39.63" gradientUnits="userSpaceOnUse"><stop offset="0" stop-color="#585757"/><stop offset="1" stop-color="#585757"/></linearGradient><linearGradient id="linear-gradient-16" x1="26.38" y1="79.34" x2="55.99" y2="80.61" xlink:href="#radial-gradient-4"/><linearGradient id="linear-gradient-17" x1="33.47" y1="78.25" x2="53.84" y2="78.25" xlink:href="#radial-gradient-4"/><linearGradient id="linear-gradient-18" x1="30.48" y1="87.38" x2="50.6" y2="87.38" xlink:href="#radial-gradient-4"/></defs><title>headerDog</title><g class="cls-1"><g id="Слой_2" data-name="Слой 2"><g id="дизайн-макет_копия_" data-name="дизайн-макет (копия)"><path class="cls-2" d="M39.86 143.58c-2.52 1.19-7 3.25-8.6 3.56a11 11 0 0 1-7.32-.76 12.48 12.48 0 0 0-4.44-.38s-3.45-.32-3.63-2.41a6.58 6.58 0 0 1 .42-2.93 9.3 9.3 0 0 0 1.62-.52l1.09-1.67 3.42-.21a18.24 18.24 0 0 1 7.84-4.1s-5-15.66-3.76-22.66 8.26-17.25 8.26-17.25-4.11-12.45-4-21.58A51 51 0 0 1 12.54 56.4s-3.3-.08-5-1.73a3.26 3.26 0 0 1-3.8-1.29c-1.74-2.19-2.92-4.9.09-7.23 0 0-.36-3.12 3.25-3.59 0 0 0-3.92 2.35-4.39s7 1.88 7 1.88A7.79 7.79 0 0 1 18 35.74c1.57-2 3.61-2.2 4.94-1s.08 5.64.08 5.64.63 4.08-.39 6a40.19 40.19 0 0 0 10.12 9.49l.94-.39 14 8.47c14.59-.16 20.08-7.58 20.08-7.58l4.18 1.25c19.66 7.63 22.9 21.54 25.51 22.8s3.76 2.25 3.92 4.44a2.7 2.7 0 0 1-1.67 2.82 4.42 4.42 0 0 1-.07 3.32 4 4 0 0 1-3.25 1.86 2.77 2.77 0 0 1-2.19 2.53C92 96 90 93 90 93s-1.46 4-4.39 2.4-1-7.69-1-7.69c-2.86-6.85-11.55-15.46-11.55-15.46a63.29 63.29 0 0 1-1.13 9.29l1.57 11.91-3.92 1.25s9.81 8.07 8.43 18.23a156.87 156.87 0 0 1-3.58 18.25l7.25 3.82s2.85-.68 3.53 0a2.41 2.41 0 0 1 .68 1.57s1.59.12 2 .78.78 3.08 0 3.87a7.84 7.84 0 0 1-3.35 1.83s-4.55-.58-7.58.47A35.73 35.73 0 0 1 66.18 141l-5.7-11.81s1.52-10.51.68-13.64-5.54-8.78-7.84-9.93a18.28 18.28 0 0 1-1.88.47s-7.74 4.44-12 18.45" transform="translate(-1.98)"/><path class="cls-3" d="M97.18 81.37C96.09 81 95 78.86 95 78.86c-7-14.5-22.89-20.59-22.89-20.59l-5.33 8.31L71 81.48A47.88 47.88 0 0 0 72.36 70c.52.51 2.52 2.8 6.16 6.71a43.49 43.49 0 0 1 6.9 11 28.57 28.57 0 0 0-.71 3.45c-.31 2.12.92 4.21 2.82 3.61s2.2-4.16 2.2-4.16l.47.94s1.57 2.51 2.74 2.9 2.27-.08 2.59-2.12-1.17-4.55-.24-3.45a6.81 6.81 0 0 1 1.26 2.74 1.85 1.85 0 0 0 2.35-1c.94-1.65-.78-4.39-1.1-5.18s.08-1 .47-.31.71 1.41.71 1.41 1.57 1.25 1.72-1.25-2.42-3.52-3.52-3.92z" transform="translate(-1.98)"/><path class="cls-4" d="M98.44 85.53a3.6 3.6 0 0 0 2.27.71s-.24 1.41-1.72.63z" transform="translate(-1.98)"/><path class="cls-3" d="M40.66 142.32a25 25 0 0 0-8 3.88 10.51 10.51 0 0 1-7.66 0c-3.88-1.65-1.76-5.29-1.76-5.29l4.23-.64c0-.37-4.89.22-4.89.22a4.6 4.6 0 0 0 .27 5.09 5.1 5.1 0 0 1-3.29-1.33 4.16 4.16 0 0 1-.16-5.1l3.09-.38s4.38-4 9-4.24a3.12 3.12 0 0 0-.37-.68c-1.15-1.76-4.06-13-4-19.45.1-7.11 8.57-20.08 8.57-20.08a53.48 53.48 0 0 1-3.88-21.51 2.36 2.36 0 0 0 .84-.47c.23-.27-.67-.13-2.23-1a50.72 50.72 0 0 1-17.77-15.76c-3.22.08-4.44-1.07-4.44-1.07 1.52-1.2.32-3.23.32-3.23a4.76 4.76 0 0 0 3-.34c1.35-.72.45-3.59.45-3.59.55.16 4 .7 4.23-2.35a4 4 0 0 0-1.94-3.71 6.2 6.2 0 0 1 1.16 1.91 2.54 2.54 0 0 1-1.34 3.54c-3 .64-5.4-2.36-5.95-3.15S7 40 9.28 38.87s6.75 2 6.75 2l.69 1.72a10.54 10.54 0 0 1 1.9-6.82 2.37 2.37 0 0 1 4 .24c.86 1.41-.47 4.39-.47 4.39 1.1 4.71-.47 6.33-.45 6.37 2.56 4 10.72 9.79 10.72 9.79L36.49 66l30.9 28.86a23.82 23.82 0 0 1-9.92 9 19.24 19.24 0 0 0 11-9.29c2.53 2.27 9.32 10.43 8.9 17.75s-3.87 19-3.87 19a16.79 16.79 0 0 1 8.16 4.58l2.77-.47s1.07.52.84 3.58-4.15 3.21-4.15 3.21c2.19-2 .41-5 .41-5a10.57 10.57 0 0 0-3.65 0 9.82 9.82 0 0 1 3.33.42s.84 2.35 0 3.53-2.67 1.88-6.12 1.73-8.7-3.14-8.7-3.14l-5.09-10.93s1.64-8.13.54-13.14c-1-4.53-6.48-9.79-7.57-10.74-1.53.4-2.67.6-2.67.6s-4 1.51-8.92 11c-4.2 8.11 1.12 15.7 1.25 16 0 0 1.26 4.61 1 6.18s-2.52 2.9-4.29 3.54" transform="translate(-1.98)"/><path class="cls-2" d="M27.55 108.11s-8.94-2-11.22-10.12 1.49-12.7 5.88-13.49S32 85 32.88 92c0 0 .39 4.94-2.9 6s-4.47-1.41-4-3.45-.86-2.59-2-2.27-2.43 1.8-.63 4.16 6.35 3.14 8.63 2.43l-.51 1.13zM72.35 28.37C73.19 24 71.93 14 71.1 10.59S66.39-1.33 63.36.24s-4.91 13.17-4.91 13.17C50 10.17 45 13.52 45 13.52 45 12.06 44.33-.7 40.67 0S34.4 6.41 34.4 6.41c-4.39 7.63-5 21.12-5 21.12S25.1 33.91 25.72 40s5.47 12.54 8.57 15.16 7.53 7.21 15.52 7.74c8.3.54 16.89-4.18 20.13-8.05a27.57 27.57 0 0 0 6.48-13.49c.74-5.05-4.07-12.99-4.07-12.99zm2.72 14.53C71.7 57 60.21 62.27 50.71 62.45S29.07 51 26.87 42.79c0 0-2.3-6.58 4.18-15.88S44.62 13 51 12.68c4.5-.21 6.59.94 6.59.94 8 3.66 13.59 15.06 13.59 15.06 5.27 8.23 3.89 14.22 3.89 14.22z" transform="translate(-1.98)"/><path class="cls-3" d="M48.69 25.13l.33 9.22"/><path class="cls-11" d="M50.92 34.43c-9.93 0-14.69 9.8-14.69 9.8s4.54 16.34 13.33 16.34c11.39 0 15.56-16 15.56-16s-4.27-10.14-14.2-10.14z" transform="translate(-1.98)"/><path class="cls-2" d="M49.8 34.63c-9.88.66-14 9.39-14 9.49v.14c0 .17 4.33 16.71 14.81 16.71s14.93-16.23 15-16.39v-.14a17.23 17.23 0 0 0-14.65-9.82zm-.23 25.62c-8.78 0-13.33-16-13.33-16s4.76-9.19 14.68-9.19 14.2 9.48 14.2 9.48S61 60.25 49.56 60.25z" transform="translate(-1.98)"/><path class="cls-12" d="M36.62 27.49s2.6-4.46 6.32-3.16 5.39 7.62 3.34 9.85-12.08-.56-9.66-6.69z" transform="translate(-1.98)"/><path class="cls-13" d="M65.16 26.9s-2.8-4.8-6.8-3.4-5.8 8.2-3.6 10.6 13-.6 10.4-7.2z" transform="translate(-1.98)"/><path class="cls-2" d="M59.79 32.91a10.67 10.67 0 0 0 2.09-1.13c1.32-.92 1.35-2.44.41-3.92s-3.53-2.31-5-1a5.78 5.78 0 0 0-1.63 4.68c.46 2.2 2.41 2.06 4.13 1.37z" transform="translate(-1.98)"/><path class="cls-14" d="M56.16 31.63v-.11a5.12 5.12 0 0 1 .09-2.26 3.07 3.07 0 0 1 1.7-2.19 3.45 3.45 0 0 1 3.82 1c1.27 1.26.65 2.54-.43 3.57s-4.61 2.27-5.18-.01z" transform="translate(-1.98)"/><path class="cls-2" d="M41.44 32.91a10.72 10.72 0 0 1-2.09-1.13 2.45 2.45 0 0 1-.41-3.92c1.29-1.09 3.53-2.31 5-1a5.78 5.78 0 0 1 1.63 4.68c-.46 2.2-2.4 2.06-4.13 1.37z" transform="translate(-1.98)"/><path class="cls-14" d="M45.07 31.63v-.11a5.08 5.08 0 0 0-.07-2.26 3.07 3.07 0 0 0-1.7-2.19 3.45 3.45 0 0 0-3.82 1c-1.26 1.26-.65 2.54.43 3.57s4.6 2.27 5.16-.01z" transform="translate(-1.98)"/><ellipse class="cls-15" cx="57.08" cy="29.86" rx="2.36" ry="2.47"/><path class="cls-16" d="M58.69 31a1.43 1.43 0 0 0 1.41-.85 1.53 1.53 0 0 0-1.51-2.07c-1.22.03-2.35 2.77.1 2.92z" transform="translate(-1.98)"/><path class="cls-3" d="M59.51 29.75s0-.46-.38-.46-.34.35-.23.58.5.3.61-.12z" transform="translate(-1.98)"/><ellipse class="cls-17" cx="40.14" cy="29.86" rx="2.36" ry="2.47"/><path class="cls-18" d="M41.87 31a1.49 1.49 0 0 1-1.48-.89A1.6 1.6 0 0 1 42 27.93c1.25 0 2.43 2.85-.13 3.07z" transform="translate(-1.98)"/><path class="cls-3" d="M42 29.69s0-.48.4-.48.37.36.24.61-.51.31-.64-.13z" transform="translate(-1.98)"/><path class="cls-19" d="M45.51 55.75a5.65 5.65 0 0 1 3.21-.53 3.88 3.88 0 0 1 1.48.49 7.75 7.75 0 0 1 5-.82s-.49.82-1 1.86-1.4 3.32-4.77 3.07-3.92-4.07-3.92-4.07z" transform="translate(-1.98)"/><path class="cls-3" d="M50.35 49s.07 2.27 0 2.93M7.11 43.11a2.7 2.7 0 0 0-2.82 3s1.25 4.23 4.29 4.7 3.14-1.65 2.72-3.66a10.71 10.71 0 0 1-4.19-4.04z" transform="translate(-1.98)"/><path class="cls-3" d="M3.95 46.56a4 4 0 0 0-1.25 3.33c.26 2 2.26 4.85 4.47 4.27S8 51.41 8 51.41a7.82 7.82 0 0 1-4.05-4.85z" transform="translate(-1.98)"/><path class="cls-23" d="M8.89 53.54s4.16 1.25 6.67-3.37a6.26 6.26 0 0 0 .31-4.08s-.94 1.8-3.92 1.25c0 0 1 2.94-.59 3.61a4.33 4.33 0 0 1-2.83.32 3.76 3.76 0 0 1 .36 2.27z" transform="translate(-1.98)"/><path class="cls-3" d="M64.37 4.53c-1.78 1.67-1.05 12.33-1.05 12.33.43.39.85.81 1.26 1.26 0-1.58.14-7.7 1.78-8.52 1.85-.92 3.24 9.71 2.7 14.44.54.85.86 1.4.86 1.4 1.25-12.75-3.77-22.58-5.55-20.91z" transform="translate(-1.98)"/><path class="cls-24" d="M66.36 9.6c-1.64.82-2.47 6.1-2.47 7.68A59.75 59.75 0 0 1 69.05 24c.55-4.68-.84-15.32-2.69-14.4z" transform="translate(-1.98)"/><path class="cls-3" d="M40.53 4c1.5 1.85.77 11 .77 11-.47.32-1.72 1.1-2.17 1.47.2-1.53.89-7.46-.59-8.47-1.66-1.08-4.43 9-4.54 13.68-.64.75-1 1.23-1 1.23.48-12.5 6-20.73 7.53-18.91z" transform="translate(-1.98)"/><path class="cls-25" d="M38.54 8.07c1.48 1 1.81 6.33 1.61 7.86A62.75 62.75 0 0 0 34 21.68c.11-4.68 2.88-14.76 4.54-13.61z" transform="translate(-1.98)"/><path class="cls-26" d="M42.76 50.74s.79 3.78 2.75 5c0 0 2.55-1.24 4.69 0a7.62 7.62 0 0 1 5-.82 8.69 8.69 0 0 0 2.24-3.39 10.39 10.39 0 0 1-7.07.67s-2.98 1.86-7.61-1.46z" transform="translate(-1.98)"/><path class="cls-28" d="M52.72 12.08a16.37 16.37 0 0 0-8.18 1.54C35.68 17 31.08 26.35 31.32 26.12s7-7.76 12.94-6.82 6.12 8.78 6.12 8.78l.14 5.13h.13l.27-3.52s-.11-7.36 4.63-9.33c5.1-2.12 9.7-.63 13.49 4.16 0 0-3.58-6.87-8.78-9.72-4.95-2.8-7.54-2.72-7.54-2.72z" transform="translate(-1.98)"/><path class="cls-3" d="M18 140.62a4 4 0 0 0 2.78 5l-1.49-.12a2.76 2.76 0 0 1-2.94-2.94l.28-1.53zM87.46 137.64c.93 1.21 0 3.29 0 3.29-2.43 2.35-4.67 1.37-4.67 1.37a4 4 0 0 0 2.39-1.45 5.54 5.54 0 0 0 .86-3.68s1.03-.04 1.42.47z" transform="translate(-1.98)"/><path class="cls-29" d="M64.41 59.78l3.29 8.57s.47-7.78-3.29-8.57zM51.47 66l-.11 16.94s-3.03-10.35.11-16.94z" transform="translate(-1.98)"/><path class="cls-3" d="M27.63 107.41s1.72-5.1 3.76-7.76c0 0-5.88 1.1-8.86-3.37a2.9 2.9 0 0 1-.39-3.45 2.41 2.41 0 0 1 3.69-.94 3.32 3.32 0 0 1 .79 2.43c-.08 1.1-.24 3 1.33 3.21s3.19-.31 3.77-3.92c.63-3.92-1.57-7.06-3.29-7.84a10 10 0 0 0-8.23-.08c-3.84 1.65-4.16 7.53-3.84 9.57s1.7 9.56 11.27 12.15z" transform="translate(-1.98)"/><path class="cls-2" d="M72.88 73.22S81 79.6 84.62 87.7c0 0-1.6-7.26-12.27-17.3zM53.32 105.63s7.32 4.84 8.18 11.5c0 0-.44 10.53-.77 11.77 0 0 2.18-6.6 1-12.24a21.48 21.48 0 0 0-7.37-11.53zM78.13 137.21a9.32 9.32 0 0 1 3.53 0s1.8 2.08-.55 5.06a5.73 5.73 0 0 0 .09-4.55zM82.91 142.11a5.77 5.77 0 0 0 4.7-1.1l-.08.51a14 14 0 0 1-3 1.29 19.69 19.69 0 0 1-2.67-.12z" transform="translate(-1.98)"/><path class="cls-30" d="M72.25 62.24c.78-6.59-2.3-7.42-2.3-7.42s-9.51 8.57-19.45 8.05-17.6-9.22-17.6-9.22l-1 1.69a14.74 14.74 0 0 1 1.18 1.29 4.66 4.66 0 0 1 .42 1c.08.45.16.91.24 1.38a8.16 8.16 0 0 1 0 .85 9.64 9.64 0 0 0 .83 4.48 17.46 17.46 0 0 0 9 8.57l7.74 9.83 1 15.58 19.45-6.38s1.46-13-4-22.5a11.26 11.26 0 0 0 4.49-7.2z" transform="translate(-1.98)"/><path class="cls-2" d="M19.35 139.17l3.73-.39a19.76 19.76 0 0 1 8.65-4.23s-4.65-9.88-5.07-19c0 0 .42 10.09 3.55 18.58a15.93 15.93 0 0 0-7.84 4.1zM19.08 138.88s-2.82 5.8 3.55 6.53l.42.63s-4.23-.42-4.7-3a6.75 6.75 0 0 1 .63-4.39z" transform="translate(-1.98)"/><path class="cls-2" d="M18.09 140.92l-1.25.47s-1.36 3.92 3.35 3.82l1.15.52a12.44 12.44 0 0 1-2.25.05c-.84-.1-2.57-.52-2.93-2.09a5.91 5.91 0 0 1 .13-3l2-.68zM27.43 140.29l-3.64.92s-1.8 3.45 1.65 5.1 7.06-.23 8.94-1.33a32.16 32.16 0 0 1 6.72-2.74l.6.42-6.7 2.54-3.21 1.65-2.28.39-2.59-.16-2.43-.86-1.41-1-.86-2 .16-1.88.32-.65a15.65 15.65 0 0 1 4.73-.4zM36.65 95.18s8.78-.78 10.66 7.53a14.85 14.85 0 0 0-10.66-7.53zM21.85 93.82s-1.25 5.54 9.41 6.59l.63-.73s-5.12-.31-7-1.67-3.24-3.45-2.3-5.54zM74.43 131.19s5.71 2.26 7.26 3.83l-.37.53c-2-2.08-8.75-4.51-8.75-4.51s5.17-12.81 4.86-21.12S68.5 94.6 68.5 94.6s9.6 7.79 9.7 15.64c.13 10-3.78 21-3.78 21" transform="translate(-1.98)"/><path class="cls-2" d="M73.5 130.67s6.17 1.83 8.73 4.39l-.89.16a29.38 29.38 0 0 0-8.34-4.29zM84.56 87.53s-1.41 3.84-.63 6.51a2.61 2.61 0 0 0 4.43 1.18 2.76 2.76 0 0 1-3.76-1.33c-1.18-2.55 1.29-7 1.29-7z" transform="translate(-1.98)"/><path class="cls-31" d="M37 42.79s2.93 6.27 5.75 7.95c0 0 1 4.07 2.75 5 0 0 .6 3.77 3.32 4l.73.84a13.53 13.53 0 0 1-9-6.38 29.34 29.34 0 0 1-4.33-10z" transform="translate(-1.98)"/><path class="cls-32" d="M3.95 46.56a6.12 6.12 0 0 0 2.2 5.26s1.64 1.57 1 2.35a1.37 1.37 0 0 0 1.26-1.73l-.73-1.49s-3.18-2.12-3.73-4.39z" transform="translate(-1.98)"/><path class="cls-33" d="M16.71 42.63s2.68-7.68 5.9-6.58a2 2 0 0 0-2.33-1.41c-1.77.42-4.11 4.07-3.57 7.99z" transform="translate(-1.98)"/><path class="cls-23" d="M18.14 37.83A2.21 2.21 0 0 1 19.29 36c1.09-.48 1.94.67 2 1.27a2 2 0 0 1-1.7 2c-1.33.38-1.45-1.44-1.45-1.44z" transform="translate(-1.98)"/><path class="cls-34" d="M65.19 61l8.31 24.56s1.26 4 .94 5.54.11 2.51-3.44 3.9-17.15 4.29-17.15 4.29l18.4-4a3.2 3.2 0 0 0 2.93-2.93c.21-2.72-4.08-16.94-6.9-24 0-.06-2.28-6.64-3.09-7.36z" transform="translate(-1.98)"/><path class="cls-35" d="M69.95 54.82S66.39 62 52.7 63.7a19.35 19.35 0 0 1-19.45-9.3s8.36 8.68 17.25 8.47 14.43-3.56 19.45-8.05z" transform="translate(-1.98)"/><path class="cls-36" d="M67.65 67.05s2.72-.73 4.6-4.81c0 0-.1 3.66-4.08 6.9z" transform="translate(-1.98)"/><path class="cls-29" d="M40.67 71.23l-8.89 9.62S40.67 72.07 41 72a3.36 3.36 0 0 0 .73-.42z" transform="translate(-1.98)"/><path class="cls-37" d="M72.4 59.42s13.8 4.7 23.84 21c0 0-7.65-18.13-24.14-22.16z" transform="translate(-1.98)"/><path class="cls-38" d="M41.51 40.1a12.79 12.79 0 0 1 9.14-4.56c5.84-.21 9.27 4.67 9.27 4.67s.07 5.73-9.56 8.25c-.01 0-8.11-1.78-8.85-8.36z" transform="translate(-1.98)"/><path class="cls-39" d="M49.05 37.62a9.49 9.49 0 0 1 6.91.62c2.67 1.53 1.57 3.57-.33 4.35a7 7 0 0 1-6.52-.9c-1.56-1-2.73-2.64-.58-3.84a3.35 3.35 0 0 1 .52-.23z" transform="translate(-1.98)"/><ellipse class="cls-3" cx="54.09" cy="39.42" rx=".79" ry="2.16" transform="rotate(-80.44 53.108 40.591)"/><path class="cls-2" d="M39.86 143.58l4.58-4.18c.83-5.23-5-14.85-5-14.85a38.1 38.1 0 0 1 11.29-18.19s-7.79 9.36-9.83 18.14c0 0 4.86 9.72 4.39 14.27a6 6 0 0 1-1.88 2.83 10.23 10.23 0 0 1-3.55 1.98zM51.44 106.1s12.95 4.36 9.3 22.8c0 0 6.38-15.9-6.37-23.77z" transform="translate(-1.98)"/><path class="cls-2" d="M54.37 105.13a15.44 15.44 0 0 1-2.39.64 7.89 7.89 0 0 1-2.94.07 50.06 50.06 0 0 0-9.62 18.71l1.46-.05s3.19-11.19 9.83-18.14a5.78 5.78 0 0 0 3.2-.73z" transform="translate(-1.98)"/><path class="cls-2" d="M49 105.84s12.08-2 17.1-9.1c0 0-3 6-13.65 9.72zM34.37 145s7.92-2.74 10.27-6.82c0 0-1.51-9.15-5.23-13.59l1.46-.05s4.39 8.78 4.39 14.27c0 0 .47 3.14-9.72 6.9 0 0-7.89 4.65-12.49.37l1.75.18a10.77 10.77 0 0 0 6 .31 13.73 13.73 0 0 0 3.57-1.57zM22.06 94.55s-.94-2 1.67-3.56c0 0 2-.63 2.82.1a2.63 2.63 0 0 1 1 2c0 1.25-.63 3.66.84 4.5 0 0-2 .42-2.2-2.2s-.1-3.66-2-3.66-2.13 2.82-2.13 2.82zM78.13 137.21a16.18 16.18 0 0 1 3.06.71s1.25 4.08-3.14 4.7-11.84-3.29-11.84-3.29l-4.93-10.46 4.9 12.13s7.55 2.22 10.54 2.14 5.49-.63 5.33-4.39c0 0 .08-1.33-.39-1.61s-3.53.07-3.53.07zM86 137.68a1.48 1.48 0 0 1 1.88 1.57c0 2-1.34 2.27-4.31 2.51l-1.33.47 1.88.55 2.12-.71 1.7-1.18a3.56 3.56 0 0 0-.05-3.52 4.8 4.8 0 0 0-2-.78z" transform="translate(-1.98)"/><path class="cls-2" d="M79.05 141.91l2.91-.39-1.65.7-1.65.32.47-.32"/><path class="cls-2" d="M50.92 51.31l-.21-3.24-.36.07-.35 3.28c-4.41 1.67-8.36-1.87-10.49-4.39l-.11.28a18.43 18.43 0 0 0 3.33 3.42c4.19 3.31 7.59 1.43 7.59 1.43 5.34 1.48 9.24-1.71 11.34-4.18l-.15-.24c-5.64 5.79-10.59 3.57-10.59 3.57z" transform="translate(-1.98)"/><g class="cls-40"><path class="cls-4" d="M45.76 93.13s2.8 5.26 8.06 5.43c4.43.14 8.55-2 11.68-9.87L51.42 91l-.24-6.77zM86.52 92.67c-2.19-1.41.63-7.37.63-7.37-.95-10.67-15.29-20.94-15.29-20.94A9.11 9.11 0 0 1 71 66.1c-.12-.16-.24.32-.24.32a6.46 6.46 0 0 1-2.61 2.72s2.61 6.69 3.45 9.1l.96-6.24c5.57 3.14 12.86 15.68 12.86 15.68s-2.35 5.8.47 7.29 3.45-2.35 3.45-2.35-.63 1.46-2.82.05zM91 92.82s2.59 1.57 4.7-1.8c0 0 .55 3.14-1.33 3.84S91 92.82 91 92.82zM95.3 88.9l1.72 2s1.72.55 2.2-1.73c0 0-.08 3.14-2.67 3.22zM42.64 135.44c-10 11.29-19.94 5.27-19.94 5.27-3.15-.84-6.42 1.31-6.42 1.31l-.2 2.1c.51 1.08 3.42 1.92 3.42 1.92l4.27-.21v-.09a14.18 14.18 0 0 0 5.23 1.61 20.54 20.54 0 0 0 6.12-2.43l6.54-2.28.14-1a3.84 3.84 0 0 0 1.72-2.28 7.88 7.88 0 0 0-.88-3.92zM59.91 40.52s3.62 1.9 5.21 4c0 0-4 13.83-13.57 15.71l-.32-.47a4.86 4.86 0 0 0 2.14-1.62c.63-1 1.53-2.89 1.81-3.27a8.73 8.73 0 0 0 2.24-3.39s-5.09.89-6.51-.18l-.21-3.24s8.3-1.24 9.21-7.54z" transform="translate(-1.98)"/><path class="cls-4" d="M57.82 57.69a10.2 10.2 0 0 1-8.26 3.19l-.77-.07c-4.56-.62-8.22-5.63-8.22-5.63C29.12 49.85 26 37.77 26 37.77c2.25 20.49 23.68 24.67 23.68 24.67s13.8 1.2 21-9.46l3.14-5.33s-7.22 9.57-16 10.04zM21.85 93.82S19.4 99.73 28.34 106a32 32 0 0 1 2.93-5.59s-4.65-.29-7.16-2.33-2.26-4.26-2.26-4.26zM31.16 89s1 6-3.69 8.47a3.12 3.12 0 0 0 3.69-.86c1.41-1.9.78-6.69 0-7.61zM7.11 43.11s.44 3.45 3 5.17c0 0 1.1 1.8-.08 2.75 0 0 1.72.08 1.88-1.18a10.18 10.18 0 0 0-.32-3.06 14 14 0 0 1-4.48-3.68zM11.5 39.87a4.43 4.43 0 0 0 2.3 3.66s1.52 1.31.89 2.8a2 2 0 0 0 1.18-2.67c-.71-2-1.63-2.38-1.63-2.38l2.26.81-.55-1.73s-4.34-2.64-4.45-.49zM21.75 47.66s2.51 11 10.35 17.72c0 0 5.33 7.06 6.9 7.68l1.68-1.83s-7.11-4.08-6.9-11.4c0 0-.89-4-1.83-4.5S21.7 46.8 21.7 46.8zM61.44 119.53c-.31 3.26-.7 9.38-.7 9.38l5.62 11.83 6.41 2.07 4.85.76a3.28 3.28 0 0 0 .53-.26 31.34 31.34 0 0 1 6.41-.49 7.34 7.34 0 0 0 3.44-1.93 10.15 10.15 0 0 0-8.3-.36 9 9 0 0 0-.37-3.21l-4.71-1.72c-3.29-5-9.41-7.68-9.41-7.68C75.87 109.4 65 98.27 65 98.27c-3.92 5.33-11.14 7.37-11.14 7.37s8.37 5.46 7.58 13.89z" transform="translate(-1.98)"/><path class="cls-4" d="M40.67 96.33s-13 9.83-13.38 21.33c0 0-3.14-5.44 7.42-23.42 0-.01 4.29-.24 5.96 2.09z" transform="translate(-1.98)"/><path class="cls-4" d="M26.66 115.56s2.09 12.76 7.73 18.4l-3.39-.1a63 63 0 0 1-4.34-18.3z" transform="translate(-1.98)"/><path class="cls-41" d="M7.69 50.95A4 4 0 0 1 8.1 53c-.21.78-1.57 1.62-3.5.52l-.79-.47a4.67 4.67 0 0 0 2.57 1.45c1.36.1 2.19-.47 2.3-1.62a2.22 2.22 0 0 0-.58-1.78z" transform="translate(-1.98)"/><path class="cls-4" d="M32.61 72.35s-14.15-8.23-18.08-17.48c0 0-4.55.31-5.65-1.33l-.68 1a5.87 5.87 0 0 0 4.44 1.07s8.47 12.78 16.62 15.76z" transform="translate(-1.98)"/></g><path class="cls-42" d="M75 90.05c-1.25-9.62-10-27.81-10-27.81l-13.39 4.6s-.16 5.62-.36 11.94l-.27-7.13-10.25-.42-7.3 7.77s-4 3-2.45 5.4a29.71 29.71 0 0 0 2.74 3.23c.93 1.2 5.71 7.28 7.79 7.84a2 2 0 0 0 .5.14c2 .52 3.57.19 9-12.16h-.06l.09-.17c-.13 4.43-.26 8.63-.34 11-.18 5.49 3.13 5 3.13 5s17-3.38 19.87-4.6c2.08-.92 1.3-4.63 1.3-4.63z" transform="translate(-1.98)"/><path class="cls-43" d="M51.54 92.82l-.06-23.09v-6.3c-1.41 4.21-1.37 5.77-1 6.27-2.27.23-13.05.59-17-12.48l1.08 6.83C40.24 74.86 49 74 50.66 73.79c-.25 8.31 0 20.5.1 22.49a3.07 3.07 0 0 0 3.08 3c-2.71-.97-2.3-6.46-2.3-6.46z" transform="translate(-1.98)"/><path class="cls-44" d="M50.6 84.2l-4.46 5.15a11.82 11.82 0 0 1-5.23 2.59h-.55c-3.24-.11-8.47-8.26-8.47-8.26s-1.2-.94 1.54-4.65l-2.06 2s-1.47 1.7-.63 2.97 7.32 8.68 7.32 8.68c.76 1.08 2.28 2.86 4.19 3 2.74.23 3.84-2.51 3.84-2.51l.91-1.72z" transform="translate(-1.98)"/><circle class="cls-3" cx="63" cy="86.23" r="6.74" transform="rotate(-8.97 62.029 98.826)"/><path class="cls-45" d="M61.79 78.54a7.78 7.78 0 1 0 8.9 6.46 7.78 7.78 0 0 0-8.9-6.46zm2.26 14.34a6.74 6.74 0 1 1 5.61-7.71 6.74 6.74 0 0 1-5.61 7.71z" transform="translate(-1.98)"/><path class="cls-46" d="M57.91 88.73v-.07l.2-.3h.2l-.26.37.41.45h-.21l-.11-.18-.14-.16-.06.09v.31h-.17l-.13-.82h.17l.05.32zM59.11 88.46v.07a.22.22 0 0 1 0 .06v.06h-.05a.12.12 0 0 1 .08 0 .31.31 0 0 1 0 .08l.1.22h-.18v-.2a.17.17 0 0 0-.07-.08.14.14 0 0 0-.09 0h-.09l.05.33h-.17l-.13-.82.33-.05h.21l.06.07a.28.28 0 0 1-.05.26zm-.28.18a.13.13 0 0 0 0-.06.11.11 0 0 0 0-.09.13.13 0 0 0-.09 0h-.12v.25zM59.9 88.93l-.09-.18h-.3v.2h-.17l.14-.87h.22l.4.78zm-.24-.5l-.08-.17V88.67h.22zM60.33 88h.26v.13h-.22a.15.15 0 0 0-.09 0 .09.09 0 0 0 0 .08h.31l.08.06a.23.23 0 0 1 0 .12.22.22 0 0 1-.05.19.43.43 0 0 1-.25.1h-.31v-.13h.27a.2.2 0 0 0 .1 0 .09.09 0 0 0 0-.09h-.32l-.08-.06a.21.21 0 0 1 0-.1.23.23 0 0 1 .05-.19.34.34 0 0 1 .25-.11zM61.41 88.43l-.09-.57h.17l.13.82h-.17l-.34-.4-.11-.05v-.06l.09.58h-.17l-.13-.82h.18l.16.18.16.18.13.15zM62.45 88.11a.51.51 0 0 1 0 .17.35.35 0 0 1 0 .14.33.33 0 0 1-.1.11.39.39 0 0 1-.16.06.41.41 0 0 1-.18 0 .33.33 0 0 1-.13-.07.42.42 0 0 1-.09-.12.69.69 0 0 1 0-.17.5.5 0 0 1 0-.17.4.4 0 0 1 0-.15.32.32 0 0 1 .11-.11.41.41 0 0 1 .17-.06.4.4 0 0 1 .18 0 .31.31 0 0 1 .13.07.39.39 0 0 1 .09.13.73.73 0 0 1-.02.17zm-.18 0a1 1 0 0 0 0-.11.3.3 0 0 0 0-.09.18.18 0 0 0-.07-.06.17.17 0 0 0-.1 0 .17.17 0 0 0-.09 0 .19.19 0 0 0 0 .08.33.33 0 0 0 0 .1.8.8 0 0 0 0 .12.43.43 0 0 0 .08.21.16.16 0 0 0 .17.05h.08a.15.15 0 0 0 0-.07.3.3 0 0 0 0-.1.73.73 0 0 0-.08-.1zM62.75 88.18l-.35-.48h.18l.07.1.07.1.1.15v-.09a.6.6 0 0 1 0-.09l.07-.22h.18l-.09.27-.09.28v.32h-.19zM63.8 88.32l-.08-.18h-.3v.2h-.17l.15-.87h.22l.4.78zm-.23-.5l-.08-.17V88.06h.22zM64.59 87.59a.23.23 0 0 1 0 .07v.12h-.06a.13.13 0 0 1 .08 0v.08l.1.22h-.17v-.2a.17.17 0 0 0-.07-.08.14.14 0 0 0-.09 0h-.09l.05.33h-.17l-.17-.68.33-.05h.21l.06.07a.28.28 0 0 1-.01.12zm-.28.18a.22.22 0 0 0 0-.06.12.12 0 0 0-.05-.09.13.13 0 0 0-.09 0h-.12v.24z" transform="translate(-1.98)"/><path class="cls-46" d="M65 87.27h.27v.13H65a.14.14 0 0 0-.08 0 .1.1 0 0 0 0 .08h.3a.22.22 0 0 1 .08.06.23.23 0 0 1 0 .11.22.22 0 0 1-.06.2.44.44 0 0 1-.25.1h-.31v-.13L65 88h.11a.19.19 0 0 0 .11 0 .09.09 0 0 0 0-.09h-.32l-.08-.05a.23.23 0 0 1 0-.1.23.23 0 0 1 0-.19.34.34 0 0 1 .18-.3zM65.67 87.51v-.07l.2-.3h.2l-.26.37.41.45h-.2l-.15-.17-.15-.17-.06.09v.31h-.17l-.13-.82h.17v.32zM66.77 87.72l.34-.05v.12l-.57.09v-.1l.06-.08.07-.09.07-.09.05-.09v-.09a.19.19 0 0 0 0-.08.11.11 0 0 0 0-.08.14.14 0 0 0-.1 0h-.08l-.11.07-.07-.09a.46.46 0 0 1 .14-.1h.13a.3.3 0 0 1 .21 0 .23.23 0 0 1 .1.17.32.32 0 0 1 0 .13.61.61 0 0 1-.06.13.72.72 0 0 1-.08.12l-.08.11zM67.77 87.28a.64.64 0 0 1 0 .16.36.36 0 0 1 0 .14.27.27 0 0 1-.08.11.32.32 0 0 1-.15.06.34.34 0 0 1-.16 0 .28.28 0 0 1-.11-.07.42.42 0 0 1-.07-.12 1 1 0 0 1 0-.15.87.87 0 0 1 0-.15.43.43 0 0 1 0-.14.29.29 0 0 1 .08-.11.31.31 0 0 1 .15-.06.29.29 0 0 1 .16 0 .28.28 0 0 1 .11.08.4.4 0 0 1 .07.13.9.9 0 0 1 0 .12zm-.17 0v-.1a.33.33 0 0 0 0-.09l-.06-.06a.11.11 0 0 0-.08 0 .12.12 0 0 0-.08 0 .18.18 0 0 0 0 .08.35.35 0 0 0 0 .1v.1a.93.93 0 0 0 0 .11.28.28 0 0 0 0 .08l.06.05h.08a.1.1 0 0 0 .07 0 .16.16 0 0 0 0-.07.35.35 0 0 0 0-.09 1 1 0 0 0 .01-.08zM68 87h-.17v-.11l.17-.08h.15l.13.8h-.17zM68.74 87.19a.36.36 0 0 1-.17.08h-.18a.22.22 0 0 1-.06-.07.29.29 0 0 1 0-.11.37.37 0 0 1 0-.12.29.29 0 0 1 0-.09l.08-.07h.11a.31.31 0 0 1 .15 0 .24.24 0 0 1 .11.06.37.37 0 0 1 .07.11.61.61 0 0 1 0 .14.81.81 0 0 1 0 .18.41.41 0 0 1 0 .15.29.29 0 0 1-.09.11.34.34 0 0 1-.16.06h-.19v-.12h.15a.15.15 0 0 0 .08 0 .17.17 0 0 0 0-.06.2.2 0 0 0 0-.08.34.34 0 0 0 0-.07zm-.3-.19v.05h.12a.25.25 0 0 0 0-.06.18.18 0 0 0 0-.06h-.08a.12.12 0 0 0-.09.05.14.14 0 0 0 .05.02z" transform="translate(-1.98)"/><path class="cls-47" d="M58.8 90.1l-.38.06v-.06a.41.41 0 0 1 .06-.12l.1-.11v-.05a.14.14 0 0 0 0-.05.1.1 0 0 0 0-.08.13.13 0 0 0-.09 0h-.11a.36.36 0 0 1 0-.07v-.06h.13a.19.19 0 0 1 .13 0 .13.13 0 0 1 0 .06.23.23 0 0 1 0 .07v.11l-.06.06-.09.1a.23.23 0 0 0 0 .09h.32zM59 90h.06a.16.16 0 0 0 .12-.08.31.31 0 0 0 0-.19l-.06.06h-.18v-.05a.2.2 0 0 1 0-.08.19.19 0 0 1 0-.15H59.23a.2.2 0 0 1 .06.08.43.43 0 0 1 0 .12.48.48 0 0 1 0 .13.3.3 0 0 1 0 .11.25.25 0 0 1-.07.08h-.27zm0-.24a.12.12 0 0 0 .09 0 .16.16 0 0 0 .09 0 .17.17 0 0 0 0-.09.2.2 0 0 0-.06-.12.13.13 0 0 0-.11 0 .12.12 0 0 0-.09.05.13.13 0 0 0 0 .1.13.13 0 0 0 .08.06zM59.42 89.47v.31-.31h-.1.24zM59.82 89.37l.06.34v-.16h-.16v.16l-.05-.34v.15h.16v-.15zM60.14 89.29h.06l.18.45v-.48h.06l.19.45v-.48h.06v.61h-.06l-.19-.46v.49h-.06zM61 89.16l.09.58H61l-.09-.59zM61.25 89.71l-.09-.59h.09l.33.41-.07-.45h.06l.09.59h-.06l-.38-.48.08.52zM61.92 89.06l.08.53h-.07l-.08-.53h-.17V89l.42-.07V89zM62.54 88.91V89h-.29v.2h.2v.05h-.21v.22h.3v.05l-.37.06.02-.58zM62.77 89.47l-.09-.59h.19a.24.24 0 0 1 .15 0 .14.14 0 0 1 .07.11.16.16 0 0 1 0 .1.18.18 0 0 1-.08.07l.17.26h-.07l-.16-.25h-.14v.27zm0-.33h.12a.17.17 0 0 0 .1 0A.1.1 0 0 0 63 89a.09.09 0 0 0 0-.07.18.18 0 0 0-.11 0h-.12zM63.54 88.75l.07.42a.13.13 0 0 0 .05.08.17.17 0 0 0 .21 0 .12.12 0 0 0 0-.1l-.07-.41h.07l.06.41a.16.16 0 0 1 0 .14.22.22 0 0 1-.14.07.22.22 0 0 1-.16 0 .17.17 0 0 1-.08-.13l-.06-.41zM64.15 89.26l-.09-.59h.09l.33.41-.07-.45h.06l.09.59h-.05l-.38-.48.08.52zM64.73 88.56l.09.59h-.06l-.09-.59zM64.84 88.55h.07l.22.46.07-.5h.07l-.09.61h-.06z" transform="translate(-1.98)"/><path class="cls-47" d="M65.72 88.41v.06h-.29v.2h.2v.06h-.21v.22h.3V89l-.37.06-.09-.59zM66 89l-.09-.59h.19a.23.23 0 0 1 .15 0 .14.14 0 0 1 .07.11.15.15 0 0 1 0 .1.18.18 0 0 1-.08.07l.17.26h-.07l-.16-.25h-.14L66 89zm0-.33h.12a.16.16 0 0 0 .1 0 .1.1 0 0 0 0-.09.09.09 0 0 0 0-.07H65.88zM66.71 88.4a.15.15 0 0 0-.06-.07.14.14 0 0 0-.09 0 .12.12 0 0 0-.08 0 .09.09 0 0 0 0 .07h.3a.13.13 0 0 1 0 .06.19.19 0 0 1 0 .07.13.13 0 0 1 0 .06h-.28v-.05h.05a.24.24 0 0 0 .07.08.14.14 0 0 0 .1 0 .15.15 0 0 0 .09 0 .1.1 0 0 0 0-.08h-.35a.11.11 0 0 1 0-.06.16.16 0 0 1 0-.06v-.05H66.58a.19.19 0 0 1 .13 0 .21.21 0 0 1 .09.09zM67 88.21l.09.59H67l-.09-.59zM67.2 88.77l.09-.61h.1l.27.56h-.07l-.09-.17h-.21v.19zm.1-.26h.18l-.13-.29zM67.66 88.1h.16a.26.26 0 0 1 .21 0 .37.37 0 0 1 .07.43.25.25 0 0 1-.19.11h-.15zm.15.52h.09c.14 0 .19-.11.17-.27a.26.26 0 0 0-.08-.17.2.2 0 0 0-.16 0h-.09zM68.56 88h-.29v.2h.2v.06h-.2v.22h.3v.06l-.37.06.01-.6z" transform="translate(-1.98)"/><path class="cls-48" d="M61.49 90.36l.24.33h-.19.21-.06l-.34.09h.29-.08l-.35.08H61.78l-.42.1h.54l-.41.1h.45l-.24.07h.24v.29l-.47-.2-.45.38V91l-.47-.34.55-.17.17-.55" transform="translate(-1.98)"/><path class="cls-49" d="M62.58 90.19l.24.34-.19.05h.25-.06l-.34.09h.29-.08l-.35.08h.52l-.42.11h.54l-.41.1h.45l-.24.07h.24v.29l-.47-.2-.45.38V90.9l-.31.1.55-.17.17-.55" transform="translate(-1.98)"/><path class="cls-50" d="M63.67 90l.24.33h-.19.28-.06l-.34.09h.29-.08l-.35.08H64.03l-.42.11h.54l-.41.1h.45l-.24.07h.24v.29l-.47-.2-.45.38V90.65l-.47-.34.55-.17.17-.55" transform="translate(-1.98)"/><path class="cls-51" d="M64.76 89.84l.24.34h-.19.19-.06l-.34.09h.4-.08l-.35.08h.52l-.42.1h.54l-.41.1h.45l-.24.07h.24v.29l-.47-.2-.45.38V90.49l-.33.11.55-.17.17-.55" transform="translate(-1.98)"/><path class="cls-52" d="M65.85 89.67l.24.34h-.19.21-.07l-.33.09.86-.11h.12-.07l-1 .19.9-.1-.69.16.57-.05-.33.09h.37v.06l-.17.05h.21l.09.26h-.05L66 91l-.45.38V90.78l-.47-.33.55-.17.17-.55" transform="translate(-1.98)"/><path class="cls-46" d="M63.86 81.88l-.7.5v.06l.73-.53-.03-.03zM63.6 81.64l-.46.33.01.05.48-.35-.03-.03zM63.2 81.28l-.08.07v.05l.12-.09-.04-.03zM63.47 81.52l-.34.24v.05l.37-.26-.03-.03zM63.73 81.76l-.58.41v.06l.61-.44-.03-.03zM63.99 82l-.82.59v.05l.86-.61-.04-.03zM63.34 81.4l-.21.15v.06l.24-.18-.03-.03zM63.5 84.7l-.24.17.01.05.21-.15.02-.07zM63.55 84.45l-.29.22v.05l.27-.2.02-.07zM63.6 84.2l-.36.26.01.05.34-.24.01-.07zM63.45 84.96l-.18.12v.05l.16-.11.02-.06zM63.4 85.21l-.12.08v.05l.1-.07.02-.06zM63.65 83.95l-.41.3v.05l.39-.28.02-.07zM63.8 83.2l-.56.41v.05l.55-.39.01-.07zM63.9 82.7l-.71.51.01.05.69-.49.01-.07zM63.95 82.45l-.76.55v.06l.75-.54.01-.07zM63.7 83.7l-.47.34v.05l.46-.32.01-.07zM63.85 82.95l-.65.47v.03l.01.02.63-.45.01-.07zM63.75 83.45l-.53.39v.05l.52-.37.01-.07zM64 82.2l-.82.6v.05l.81-.58.01-.07zM59.77 83.19l1.15-.45v-.05l-1.16.46.01.04zM59.85 83.72l1.06-.42v-.05l-1.06.43v.04zM59.83 83.55l1.08-.44v-.04l-1.09.43.01.05zM59.88 83.9l1.02-.41.01-.05-1.03.41v.05zM59.8 83.37l1.12-.45v-.04l-1.13.45.01.04zM59.66 82.49l1.03-.41-.04-.03-1 .4.01.04zM59.49 81.44l.38-.15-.03-.04-.36.15.01.04zM59.52 81.62l.49-.2-.03-.03-.47.18.01.05zM59.55 81.79l.59-.24-.03-.03-.57.23.01.04zM59.74 83.02l1.19-.47v-.05l-1.2.48.01.04zM59.43 81.09l.17-.07-.03-.03-.15.06.01.04zM59.47 80.89l-.04-.03-.03.01v.04l.07-.02zM59.46 81.27l.28-.12-.04-.03-.25.1.01.05zM59.71 82.84l1.22-.48v-.05l-1.22.49v.04zM59.69 82.67l1.13-.45-.03-.04-1.11.44.01.05zM59.57 81.97l.71-.29-.03-.03-.68.27v.05zM59.6 82.14l.82-.32-.04-.04-.79.32.01.04zM59.63 82.32l.92-.37-.03-.03-.9.35.01.05zM57.67 83.25l-.34.35v.07l.35-.37-.01-.05zM57.63 83.05l-.29.3v.06l.3-.31-.01-.05zM57.45 82.23l-.1.1v.06l.11-.11-.01-.05zM57.58 82.84l-.24.25v.07l.25-.27-.01-.05zM57.41 82.03l-.05.05v.06l.05-.06v-.05zM57.54 82.64l-.19.2-.01.06.21-.21-.01-.05zM57.49 82.44l-.14.14v.07l.15-.16-.01-.05zM58.06 84.91l-.01-.05-.73.76.04.01.7-.72zM58.42 86.03l.02-.02-.01-.05-.05.05.04.02zM58.07 85.9l.25-.26-.02-.04-.27.28.04.02zM58.25 85.96l.13-.13-.02-.05-.16.17.05.01zM57.89 85.83l.36-.37-.01-.05-.39.4.04.02zM57.72 85.77l.47-.5-.02-.04-.5.52.05.02zM57.71 83.46l-.38.4v.06l.39-.41-.01-.05zM57.54 85.7l.58-.61-.01-.04-.61.63.04.02zM57.8 83.87l-.48.5v.06l.49-.51-.01-.05zM57.76 83.66l-.44.45v.06l.45-.46-.01-.05zM57.84 84.07l-.52.55v.06l.54-.56-.02-.05zM57.98 84.68l-.68.7v.07l.7-.73-.02-.04zM57.93 84.48l-.62.65v.06l.63-.66-.01-.05zM57.89 84.27l-.58.61v.06l.59-.61-.01-.06z"/><path class="cls-46" d="M61.97 86.3l1.28-2.65.04 1.69-1.32.96z"/><path class="cls-53" d="M61.67 84.03l-.54-3.42-.1 2.84.64.58z"/><path class="cls-46" d="M63.25 83.65l-.95-3.23.81.78.14 2.45zM61.62 84.19l-.65-.59-1.06.43v.05l1.71.11zM58.12 84.56l.44 1.32 1.17.11-1.61-1.43z"/><path class="cls-53" d="M61.93 86.33l-.93.65-2.35-.9 3.28.25zM58.08 84.49l.26-3.44-.78.83.52 2.61z"/><circle class="cls-3" cx="62.44" cy="86.45" r="8.57" transform="rotate(-.89 61.433 213.575)"/><path class="cls-54" d="M61.28 83.83l1.66-.4v.14l-1.64.4zm-.07-3.44l.43-.1-.08-.11-.35.08zm.1-.53l-.08-.11v.13zm0 3.08l1.82-.44v-.13l-1.84.44zm0-1.53l1.08-.26-.16-.15-1 .24zm0 1L63 82l-.08-.11-1.65.4zm0-1.53l.75-.18-.09-.11-.67.16zm.05 2.55L63 83v-.13l-1.76.42zm0-1.53l1.41-.34-.09-.11-1.32.32zM58.17 82.44l-.49.38v-.18l.45-.35zm-.09-1.35l-.1.08v.18l.14-.11zm0 .6l-.27.21v.18l.32-.25zm.13 1.79l-.8.63v.19l.84-.66zm-.51 3.08l.79-.62v-.14l-.88.69zm.69-1.17v-.14l-1.24 1 .12.07zm-.23 1.44l.43-.33v-.14l-.52.4zm.09-2.75l-1 .76v.18l1-.8zm-.09-1.2l-.62.49v.19l.67-.53zm.46 4.22l.07-.05v-.14l-.16.12zm-.33-2.43l-1.15.9v.19l1.19-.93zM66.91 84.56l-.8.42v-.15l.85-.44zm-.27-3.37l-.17.09v.15l.27-.14zm.65.78l-.93.49v.15l1-.54zm-.29-.39l-.55.29v.15l.65-.34zm-.73 4.88l-.29.15v.15l.25-.13zm1.43-4l-.05-.06-1.36.6v.15l1.36-.71zm-.46 1.28l-1 .54v.15l1-.52zm-.49 1.38l-.66.35v.15l.61-.32zm-.24.69L66 86v.15l.43-.23zm1-2.76l-1.22.63v.15l1.18-.61z" transform="translate(-1.98)"/><path class="cls-55" d="M61.86 84.81l-.08-5.06-.72 4.09.8.97zM61.68 88.31l-1.49.74-3.22-1.78 4.71 1.04z"/><path class="cls-54" d="M61.83 88.14l2.39-3.55-.3 2.48-2.09 1.07zM64.22 84.43l-.69-4.63.99 1.22-.3 3.41zM61.76 85.02l-.84-1.07-1.64.39.01.2 2.47.48z"/><path class="cls-55" d="M56.51 84.75l1.11-4.92-1.32 1.05.21 3.87z"/><path class="cls-54" d="M56.59 84.94l.36 1.99 1.67.4-2.03-2.39z"/><path class="cls-56" d="M66.34 89.79l.31.61h-.32v.06h.46-.12l-.56.07.06.09h1.63v.06l-.05.05-1.85.27s0 .08.07.08h1.51l-1.16.1v.08h1v.07H67l-.57.06v.08H67v.12h-.32v.08h.35l.07.4a.08.08 0 0 1 0 .07h-.08l-.7-.14-.83.52h-.05v-.09l.14-.9-.7-.66v-.07c.05 0 .95-.15.95-.15l.41-.86h.05" transform="translate(-1.98)"/><path class="cls-57" d="M58.73 89.9l.31.6h-.36v.06h.39v.08l-.68.09v.07h.38l.07.09-.67.05s0 .07.06.08.73 0 .81 0l.07.08-.64.08a.31.31 0 0 0 0 .07h.85l.07.08-.65.07v.08l.71.05v.1h-.4v.09h.38v.44l-.73-.44-.83.51h-.06v-.09l.14-.9-.7-.66v-.07l.95-.15.42-.86" transform="translate(-1.98)"/><path class="cls-58" d="M60.63 89.88l.31.6h-.37v.07h.39l.06.08-.68.09a.11.11 0 0 0 0 .07h.39l.07.09-.66.05s0 .08.06.08h.81c.08 0 .07.08.07.08l-.64.08a.3.3 0 0 0 0 .07h.85l.07.08-.66.07v.08l.71.06v.1h-.4v.08h.38l-.05.44-.73-.44-.84.52h-.05c-.05 0 0-.09 0-.09l.14-.9-.69-.66v-.07l1-.15.41-.86v.06" transform="translate(-1.98)"/><path class="cls-50" d="M62.55 89.85l.31.6h-.37v.07h.39l.06.08-.68.09v.06h.38l.07.1-.66.05s0 .08.06.08h.81l.07.08-.64.08v.07h.85l.07.08-.66.07v.08l.71.06v.1h-.4l.08.4h.39v.45l-.85-.45-.84.51h-.06c-.06 0 0-.09 0-.09l.14-.91-.69-.66v-.07l.95-.15.41-.86v.06" transform="translate(-1.98)"/><path class="cls-51" d="M64.45 89.82l.31.6h-.37v.06h.39l.05.08-.68.09a.11.11 0 0 0 0 .07h.38l.07.1-.6.18s0 .07.06.08.73 0 .81 0 .07.08.07.08l-.63.08v.07h.85l.07.08-.66.07v.08l.71.06v.1h-.4v.08h.38l-.05.44h-.05l-.73-.22-.83.51h-.06c-.06 0 0-.09 0-.09l.14-.9-.7-.66v-.07l1-.16.41-.85v.05" transform="translate(-1.98)"/></g></g></g></svg>