<svg xmlns="http://www.w3.org/2000/svg" viewBox="0 0 139.52 113.39"><defs><style>.cls-1{fill:#fff}</style></defs><title>ico-tw</title><g id="Слой_2" data-name="Слой 2"><g id="Var2"><path id="twitter" class="cls-1" d="M139.52 13.42a57.23 57.23 0 0 1-16.44 4.51 28.71 28.71 0 0 0 12.59-15.84A57.27 57.27 0 0 1 117.49 9a28.65 28.65 0 0 0-48.78 26.15 81.26 81.26 0 0 1-59-29.91 28.65 28.65 0 0 0 8.86 38.22 28.48 28.48 0 0 1-13-3.58v.36a28.64 28.64 0 0 0 23 28.07 28.71 28.71 0 0 1-12.93.49 28.65 28.65 0 0 0 26.74 19.87 57.42 57.42 0 0 1-35.55 12.26 58 58 0 0 1-6.83-.4 81 81 0 0 0 43.88 12.86c52.65 0 81.44-43.62 81.44-81.44q0-1.86-.08-3.7a58.17 58.17 0 0 0 14.28-14.83z"/></g></g></svg>