<svg xmlns="http://www.w3.org/2000/svg" viewBox="0 0 139.85 97.47"><defs><style>.cls-1{fill:#fff}</style></defs><title>ico-yt</title><g id="Слой_2" data-name="Слой 2"><g id="Var2"><path id="youtube_alt" class="cls-1" d="M137.43 15.68a17.67 17.67 0 0 0-15.12-13.74C105 0 87.42 0 69.95 0s-35 0-52.37 1.94A17.66 17.66 0 0 0 2.46 15.68C0 26.27 0 37.83 0 48.74S0 71.2 2.43 81.8a17.66 17.66 0 0 0 15.12 13.74c17.34 1.94 34.89 1.95 52.37 1.94s35 0 52.37-1.94A17.66 17.66 0 0 0 137.4 81.8c2.43-10.59 2.45-22.15 2.45-33.06s.01-22.47-2.42-33.06zM55.26 67.8V29l37 19.39z"/></g></g></svg>