<svg id="Var2" xmlns="http://www.w3.org/2000/svg" viewBox="0 0 80.06 138.21"><defs><style>.cls-1{fill:#fff}</style></defs><title>social_icons_v2_(graphicsland.ru) (1)</title><g id="Иконки"><g id="ok"><path class="cls-1" d="M840.91 2729.84a35.67 35.67 0 1 0-35.67-35.66 35.7 35.7 0 0 0 35.67 35.66zm0-50.43a14.77 14.77 0 1 1-14.77 14.77 14.78 14.78 0 0 1 14.77-14.77zM855.35 2758.94a66.82 66.82 0 0 0 20.71-8.58 10.45 10.45 0 0 0-11.13-17.7 45.29 45.29 0 0 1-48 0 10.45 10.45 0 0 0-11.13 17.7 66.92 66.92 0 0 0 20.71 8.58l-19.94 19.94a10.45 10.45 0 0 0 14.79 14.78l19.59-19.6 19.6 19.6a10.45 10.45 0 0 0 14.77-14.78z" transform="translate(-800.88 -2658.51)"/></g></g></svg>