<svg xmlns="http://www.w3.org/2000/svg" xmlns:xlink="http://www.w3.org/1999/xlink" viewBox="0 0 118 181"><defs><path id="a" d="M45.4 2.4c-3 3-5.4 7.5-7.8 14-2.9 8-3 16-3 16.9-2.7 6-3.6 12.6-3.6 12.7v.2c0 .1 1 4.8 3.8 10-.9.3-3 1.3-3.4 3.2-.3 1.1 0 2.3.9 3.6-1.7-1.1-3.8-2.5-4.9-3.4-2.1-1.9-4.5-5.8-4.9-6.6.2-.9 1.1-5.4.6-7.9-.3-1.3-.5-2.1-.7-2.7-.2-.6-.3-1.1-.5-1.9-.4-2 .1-5.4.4-7.3.1-.3.1-.8.2-1.3.3-1.4.6-3.1.6-3.9-.1-2.2-2.3-3.1-4.2-3.1-2 0-3.5.6-4.6 1.7-1.1 1.2-1.5 2.6-1.6 3.3-.1 0-.1-.1-.2-.1-2-.9-7.4.9-9.6 2.2-3.2 1.7-3.2 18.2-1.7 22.4 2.1 6 7.3 12.1 16.7 19.6 4.5 3.6 15.9 7.3 17.8 7.9.4 2.3.9 4.7 1.3 7.1-.5.9-.9 1.7-1.4 2.5-2.2-.7-5.4-1-8.9.8-5 2.6-7 8.4-7.6 11.1l-1.4-3.7c-.1-.1-.2-.3-.4-.3s-.3.1-.4.2c-.2.4-5 10.6-4.3 15.1.4 2.3 2.2 10.2 11 13.8 2.8 1.2 5.9 1.5 8.5 1.5 2.7 0 4.9-.4 5.8-.6-.9 5.5-1.7 11.5-1.8 14.4-.1 6.6.8 17.5 1 19.7-1.4-.4-2.9-.8-4.1-1.1l-1-.2c-3.5-.7-6.1-1.2-8.7 0-2.6 1.2-3.7 4-4 4.8 0 .1-2.7 7.9-1.3 9.7 1.8 2.2 10.2 3.4 10.5 3.4 1.3.2 2.4.2 3.6.2 3.4 0 6.5-.7 10.1-1.4l.6-.1c2.5-.5 5.9-1.7 7.9-3.5.5-.4 1-1.2 1.2-1.9.6-2 1.1-7.2 1.6-12.8.4-3.7.7-7.5 1.1-10 .4-2.9 5.9-15.5 7.4-18.9 1.2 2.5 4.8 10.5 5.3 14.2.2 1.6-1.1 10.7-1.9 16.7-.6 4.1-.9 6.4-.9 6.9 0 1.1.6 1.9 1.8 2.6 3.5 1.9 13.8 3.3 18.5 3.6.7 0 1.4.1 2.2.2 2.5.2 5.6.4 8.4.4 4 0 7.7-.5 9.1-2.2 1.3-1.6-.1-7.6-.6-9.1-.7-2-1.6-3.2-3.3-4.5-2.8-2.1-7.4-1.4-10.4-.9-.4.1-.9.1-1.2.2-1.7.2-4.4.7-7 1.2.6-3.1 3.1-17.9 2.6-24.2-.5-6.8-4.5-16.2-6.9-21.5 2.3-.7 4-1.4 4.7-2 2.5-2.1 2.1-5.4 1.5-8.3-.9-4.1-1.9-8.2-2.8-12.2.1-1 .3-1.9.4-2.9 1.3 1.6 4.6 5.5 5.8 7.7 2 3.4 3.8 7 3.8 7.8 0 .6-.4 1.4-.8 2-.2.3-.3.6-.4.8-.3.6-.8 2.3-1 2.7-.7.4-3.5 2.3-3.9 3.7-.3 1.1-.1 2.7 1 3.8 1.4 1.4 3 2.1 4.5 2.1.2 0 .5 0 .7-.1 1.3-.2 3.8-2 4.8-2.7.4 1 .9 2.1 1 2.6.3.8.4 1.6.6 2.4.2 1 .4 2 .8 2.9.8 1.6 3.4 2.1 4.7 2.2h.2c1.3 0 3.8-.5 5-1.9.4-.5.6-1.3.5-2.1.4.1.9.1 1.5.1 1 0 2.2-.1 3.3-.7 1.5-.8 2.5-2 2.5-3.1 0-.7-.2-1.6-.5-2.4.5-.3 1.6-1.3 1.5-3.4-.1-1.5-.8-3-2.4-4.9-1.3-1.6-5.4-4.5-6-5-.4-.8-4.1-7.4-10.1-16-3.3-4.7-12.4-14-15.4-17.1.2-.5.4-1 .5-1.6 1-4-1.7-7-2.7-7.9 6.1-6.9 7.8-15.7 7.9-15.8v-.1-.1c0-.1-.9-6.7-3.6-12.7 0-.9-.1-8.9-3-16.9-2.4-6.6-4.9-11-7.8-14-2.2-2.2-5-2.7-6.3-1.8-1.2.8-3 2.4-3.4 7.6-.2 3.1-.7 5.6-1 6.1-.4.7-1.7 1.1-3.8 1.1-2.2 0-3.4-.4-3.8-1.1-.3-.5-.7-3-1-6.1-.5-5-2.2-6.6-3.5-7.4-.4-.3-1-.4-1.6-.4-1.4 0-3.2.7-4.7 2.2"/></defs><clipPath id="b"><use xlink:href="#a" overflow="visible"/></clipPath><radialGradient id="c" cx="-361.166" cy="387.827" r=".568" gradientTransform="matrix(237.8096 .5585 .5585 -237.8096 85732.242 92494.5)" gradientUnits="userSpaceOnUse"><stop offset="0" stop-color="#fff"/><stop offset=".356" stop-color="#fff"/><stop offset=".508" stop-color="#f4f5f5"/><stop offset=".758" stop-color="#dfe0e2"/><stop offset="1" stop-color="#c7c8ca"/></radialGradient><path clip-path="url(#b)" fill="url(#c)" d="M-.4-.5l117.9.3-.4 181.1-117.9-.3z"/><defs><path id="d" d="M45.4 2.4c-3 3-5.4 7.5-7.8 14-2.9 8-3 16-3 16.9-2.7 6-3.6 12.6-3.6 12.7v.4l.1.1h.4l.1-.1v-.1c0-.1.6-2 6.5-10.9 2.5-3.8 4.6-6.5 4.6-6.5 3.4-4.7 8-5.2 10.2-4.5 2.5.8 3 2 3.7 3.3.1.2.1.3.2.5.9 1.9 2.4 8.1 2.5 11.8v.4c0 .2.2.4.4.4s.4-.2.4-.4V40c.1-3.7 1.6-9.9 2.5-11.8.1-.2.2-.3.2-.5.6-1.3 1.2-2.5 3.6-3.3 2.2-.7 6.8-.2 10.2 4.5 0 0 2.1 2.7 4.6 6.5 5.8 8.9 6.5 10.9 6.5 10.9v.1l.1.1h.4l.1-.1.1-.1v-.1-.1-.1-.1c0-.1-.9-6.7-3.6-12.7 0-.9-.1-8.9-3-16.9-2.4-6.6-4.9-11-7.8-14C71.8.1 69-.4 67.7.5c-1.2.8-3 2.4-3.4 7.6-.2 3.1-.7 5.6-1 6.1-.4.7-1.7 1.1-3.8 1.1-2.2 0-3.4-.4-3.8-1.1-.3-.5-.7-3-1-6.1 0-5.1-1.7-6.7-3-7.5-.4-.3-1-.4-1.6-.4-1.4 0-3.2.7-4.7 2.2"/></defs><clipPath id="e"><use xlink:href="#d" overflow="visible"/></clipPath><linearGradient id="f" gradientUnits="userSpaceOnUse" x1="-359.908" y1="387.107" x2="-359.34" y2="387.107" gradientTransform="matrix(101.7974 0 0 -101.7974 36668.668 39429.648)"><stop offset="0" stop-color="#d1d3d2"/><stop offset=".2" stop-color="#b8b9b9"/><stop offset=".591" stop-color="#838484"/><stop offset="1" stop-color="#4f5252"/></linearGradient><path clip-path="url(#e)" fill="url(#f)" d="M31-.2h57.8v46.8H31z"/><path fill="#FFF" d="M78.8 15.5c-.6-2.8-2.3-6.4-3.6-8.5-1.3-2.2-3.4-4.3-5.2-3.7-1.6.6-2 3.4-1.9 4.9.2 2.6.5 8.5.5 8.6v.2s0 .1.1.1h.1c.1 0 5.5 2.9 10.7 9.1.1.1.2.1.3.1.1 0 .2 0 .3-.1.1-.1.2-.3.1-.4-.1-.1.1-4-1.4-10.3M49.9 3.3C48.1 2.7 46 4.8 44.6 7c-1.3 2.2-3 5.8-3.6 8.5-1.5 6.2-1.3 10.1-1.3 10.4 0 .2 0 .3.1.4.1.1.2.1.3.1.1 0 .2-.1.3-.1 5.2-6.2 10.6-9.1 10.7-9.1h.1l.1-.1V17v-.1c0-.1.3-5.9.5-8.6.1-1.6-.3-4.3-1.9-5"/><g opacity=".6"><defs><path id="g" d="M67.2 35.6h5v5h-5z"/></defs><clipPath id="h"><use xlink:href="#g" overflow="visible"/></clipPath><g clip-path="url(#h)"><defs><path id="i" d="M72.2 38.1c0 1.4-1.1 2.5-2.5 2.5s-2.5-1.1-2.5-2.5 1.1-2.5 2.5-2.5 2.5 1.1 2.5 2.5"/></defs><clipPath id="j"><use xlink:href="#i" overflow="visible"/></clipPath><radialGradient id="k" cx="-321.421" cy="366.681" r=".568" gradientTransform="matrix(4.3909 0 0 -4.3909 1481.05 1648.121)" gradientUnits="userSpaceOnUse"><stop offset="0" stop-color="#6dcff6"/><stop offset=".172" stop-color="#56caf5"/><stop offset=".508" stop-color="#00bff3"/><stop offset=".971" stop-color="#00aeef"/><stop offset="1" stop-color="#00aeef"/></radialGradient><path clip-path="url(#j)" fill="url(#k)" d="M67.2 35.6h5v5h-5z"/></g></g><path fill="#A6A9AA" d="M74.3 35.4c-1-1.6-2.1-2.1-3.8-1.8-1 .2-2.3.6-3.6 2.1-1.2 1.4-1.7 3.4-1.2 4.9.3 1.2 4.6 2.9 7.9.2 1.5-1.3 1.6-3.8.7-5.4m-5.2 6.3c-1.1 0-3.1-.6-3.1-1.9 0-4.2 3.1-5.1 4.3-5.2 1.9-.1 3 .6 3.4 2.2.4 1.4.1 2.8-.8 3.6-1.1 1.1-2.3 1.4-3.8 1.3"/><defs><path id="l" d="M69.7 39.8s1.2.1 1.6-1c.4-1.1-.3-2.4-1.8-2.4-1.3 0-2.7 3.2.2 3.4"/></defs><clipPath id="m"><use xlink:href="#l" overflow="visible"/></clipPath><radialGradient id="n" cx="-302.956" cy="356.917" r=".568" gradientTransform="matrix(3.0165 0 0 -3.0165 983.59 1114.759)" gradientUnits="userSpaceOnUse"><stop offset="0" stop-color="#4f5252"/><stop offset=".247" stop-color="#434647"/><stop offset=".751" stop-color="#25292a"/><stop offset="1" stop-color="#131718"/></radialGradient><path clip-path="url(#m)" fill="url(#n)" d="M66.8 36.4h4.9v3.5h-4.9z"/><path fill="#FFF" d="M70.6 37.9s0-.5-.4-.5-.4.4-.3.7c.1.2.6.3.7-.2"/><g opacity=".6"><defs><path id="o" d="M47.6 35.6h5v5h-5z"/></defs><clipPath id="p"><use xlink:href="#o" overflow="visible"/></clipPath><g clip-path="url(#p)"><defs><path id="q" d="M47.6 38.1c0 1.4 1.1 2.5 2.5 2.5s2.5-1.1 2.5-2.5-1.1-2.5-2.5-2.5-2.5 1.1-2.5 2.5"/></defs><clipPath id="r"><use xlink:href="#q" overflow="visible"/></clipPath><radialGradient id="s" cx="-405.867" cy="366.681" r=".568" gradientTransform="rotate(180 -866.03 824.084) scale(4.391)" gradientUnits="userSpaceOnUse"><stop offset="0" stop-color="#6dcff6"/><stop offset=".172" stop-color="#56caf5"/><stop offset=".508" stop-color="#00bff3"/><stop offset=".971" stop-color="#00aeef"/><stop offset="1" stop-color="#00aeef"/></radialGradient><path clip-path="url(#r)" fill="url(#s)" d="M47.6 35.6h5v5h-5z"/></g></g><path fill="#A6A9AA" d="M46.3 40.8c3.3 2.7 7.6 1 7.9-.2.4-1.5-.1-3.5-1.2-4.9-1.2-1.5-2.6-1.9-3.6-2.1-1.7-.3-2.9.2-3.8 1.8-1 1.6-.9 4.1.7 5.4m.6-.3c-1-.9-1.2-2.2-.8-3.6.5-1.6 1.5-2.4 3.4-2.2 1.1.1 4.2 1 4.3 5.2 0 1.2-2 1.8-3.1 1.9-1.5 0-2.7-.3-3.8-1.3"/><defs><path id="t" d="M48.5 38.8c.4 1.1 1.6 1 1.6 1 2.8-.2 1.5-3.4.1-3.4s-2.1 1.3-1.7 2.4"/></defs><clipPath id="u"><use xlink:href="#t" overflow="visible"/></clipPath><radialGradient id="v" cx="-425.877" cy="356.918" r=".568" gradientTransform="rotate(180 -617.296 557.4) scale(3.0166)" gradientUnits="userSpaceOnUse"><stop offset="0" stop-color="#4f5252"/><stop offset=".247" stop-color="#434647"/><stop offset=".751" stop-color="#25292a"/><stop offset="1" stop-color="#131718"/></radialGradient><path clip-path="url(#u)" fill="url(#v)" d="M48.1 36.4H53v3.5h-4.9z"/><path fill="#FFF" d="M51 37.9s0-.5-.4-.5-.4.4-.3.7c.2.2.6.3.7-.2"/><defs><path id="w" d="M59.5 63.8c-.1.1-.2.2-.3.2-.1 0-.2 0-.3-.1-.2-.1-.2-.4-.1-.6l.2-.2c-.6-.2-1.7-.5-2.8-.2-.5.1-1 .3-1.3.4l.1.1c2.1 1.9 4.8 1.9 4.8 1.9s2.7 0 4.8-1.9l.1-.1c-.4-.2-1-.5-1.5-.5h-.7c-2.1-.1-2.9.9-3 1"/></defs><clipPath id="x"><use xlink:href="#w" overflow="visible"/></clipPath><linearGradient id="y" gradientUnits="userSpaceOnUse" x1="-351.05" y1="383.849" x2="-350.482" y2="383.849" gradientTransform="matrix(17.3604 0 0 -17.3604 6149.36 6727.69)"><stop offset="0" stop-color="#bf1673"/><stop offset=".472" stop-color="#e81e89"/><stop offset="1" stop-color="#e81e89"/></linearGradient><path clip-path="url(#x)" fill="url(#y)" d="M55 62.6h9.9v2.7H55z"/><g><defs><path id="z" d="M35.2 93.9c-.1.3-.3.5-.4.8-.9 1.8-1.7 3.4-1.2 5.1.5 1.5 2 2.3 3.8 3.3.3.2.7.4 1 .6 3.8 2.1 7.2 3.9 8.9 4.5 1.1.4 4.9 1.6 6.6-1.8 1.6-3 1.9-3.9 2-4.1-.2-1.6-.4-3.2-.6-4.7-.9-6.8-1.6-12.6-2.5-16.7-1.1-.1-4.7-.6-8.6-3.2-1.1 2-6.5 11.2-9 16.2m43.5-29.5c-1.8 1.6-3.7 3-5.5 4.3.4.4 1.2 1.2 1.8 2.8.6 1.5 1.2 3.4 1.8 5.5 1.3-.7 5.1-3 6.2-7.3.9-3.5-1.6-6.3-2.5-7.1-.6.7-1.2 1.2-1.8 1.8m-46.6-4.8c-.3 1.4.5 3 2.5 4.9 2.4 2.3 3.5 4.3 4.4 6.1.8 1.6 1.6 3.2 3.4 4.7 4.3 3.7 8.8 4.6 10.3 4.8-.3-1.1-.6-2.1-.9-3-.8-2-1.5-3.5-1.5-3.5-.1-.2 0-.4.2-.5.2-.1.4 0 .5.2 0 0 .7 1.5 1.5 3.6.4 1 .7 2.2 1 3.6v.1c.9 4.1 1.7 10 2.6 17 .5 4.3 1.2 9.1 1.9 14.1.4 2.5 1.3 4.4 2.7 5.2 1.8 1 5 .5 6.2.3 6.9-1.1 13.2-2.9 14.7-4.2 1.7-1.4 2.1-3.7 1.2-7.5-1.8-8.5-5.8-26-8.6-33.7-.7-1.9-1.6-2.6-1.7-2.6-4.1 2.7-8.3 4.5-12.4 5.4H60h-.1c-6.2-1.3-12.5-4.7-18.7-10.1-2.3-2-4.3-4.5-6-7.4-.7.1-2.7.9-3.1 2.5"/></defs><clipPath id="A"><use xlink:href="#z" overflow="visible"/></clipPath><linearGradient id="B" gradientUnits="userSpaceOnUse" x1="-359.656" y1="387.508" x2="-359.088" y2="387.508" gradientTransform="matrix(90.2603 0 0 -90.2603 32494.754 35063.941)"><stop offset="0" stop-color="#007dc5"/><stop offset=".166" stop-color="#007dc5"/><stop offset=".491" stop-color="#0092d7"/><stop offset=".827" stop-color="#00a5e8"/><stop offset="1" stop-color="#00aeef"/></linearGradient><path clip-path="url(#A)" fill="url(#B)" d="M31.8 56.9h52v60.9h-52z"/></g><g><path fill="#FFF" d="M78 98.3c.7 4.6-2.4 8.8-6.9 9.5-4.6.7-8.8-2.4-9.5-6.9-.7-4.6 2.4-8.8 6.9-9.5 4.5-.7 8.8 2.4 9.5 6.9"/><path fill="#BCBEC0" d="M68.2 90.1c-5.3.8-8.8 5.8-8 11 .8 5.3 5.8 8.8 11 8 5.3-.8 8.8-5.8 8-11-.8-5.2-5.7-8.8-11-8m2.8 17.8c-4.6.7-8.8-2.4-9.5-6.9-.7-4.6 2.4-8.8 6.9-9.5 4.6-.7 8.8 2.4 9.5 6.9.8 4.5-2.3 8.8-6.9 9.5"/><path fill="#0089CF" d="M68.2 97.4l1.4-.7v.1l-1.3.7-.1-.1zm-.8-3l.3-.2-.1-.1-.3.1.1.2zm0-.5l-.1-.1.1.1zm.6 2.7l1.5-.7v-.1l-1.5.7v.1zm-.3-1.3l.9-.4-.1-.1-.8.4v.1zm.2.9l1.4-.7-.1-.1-1.3.7v.1zm-.4-1.3l.6-.3-.1-.1-.5.3v.1zm.6 2.1l1.4-.7v-.1l-1.4.7v.1zm-.3-1.3l1.1-.6-.1-.1-1.1.5.1.2zM65.2 96.8l-.3.4V97l.3-.4v.2zm-.3-1.1l-.1.3.1-.1v-.2zm.1.5l-.2.2v.2l.2-.3v-.1zm.5 1.5l-.6.7v.2l.6-.7v-.2zm.2 2.8l.6-.7v-.1l-.6.8zm.4-1.2l-.1-.1-.9 1.1h.1l.9-1zm.1 1.3l.3-.4v-.1l-.4.5h.1zm-.5-2.4l-.7.9v.2l.7-.9v-.2zm-.3-1l-.4.5v.2l.5-.6-.1-.1zm1.2 3.5v-.2l-.1.1.1.1zm-.8-2l-.8 1v.2l.8-1v-.2zM73.2 96.9l-.6.5v-.1l.6-.6v.2zm-.9-2.9l-.1.1v.1l.1-.2zm.7.5l-.7.6v.1l.7-.7zm-.4-.2l-.4.4v.1l.4-.5zm.4 4.3l-.2.2v.1l.2-.2v-.1zm.4-3.7l-1.1.8v.1l1.1-.9zm-.1 1.1l-.8.7v.1l.7-.6.1-.2zm-.1 1.3l-.5.4v.1l.5-.4v-.1zm-.1.7l-.4.3v.1l.3-.3.1-.1zm.3-2.6l-.9.8v.1l.9-.8v-.1z"/><path fill="#EC008C" d="M70.6 97.7l-1.1-4.4.2 3.7zM71.2 100.8l-1.2.9-3.1-.9z"/><path fill="#0089CF" d="M71.3 100.6l1.3-3.6.2 2.2zM72.6 96.9L71 93l1.1.9zM70.6 97.9l-1-.7-1.3.6v.2z"/><path fill="#EC008C" d="M66 98.7l-.1-4.4-.9 1.1z"/><path fill="#0089CF" d="M66.1 98.9l.7 1.6h1.5z"/><path fill="#ED1B2F" d="M73.9 101.7l.4.5-.3.1h.1l.3-.1h0l-.5.2.1.1 1.4-.4v.2l-1.5.4.1.1 1.3-.3-1 .3.1.1.8-.2v.1l-.5.2v.1l.4-.1h.1v.1l-.3.1s0 .1.1.1h.3l.1.3v.1h-.1l-.8-.2-.6.6v-.1l-.1-.8-.7-.4v-.1l.8-.3v-.7c-.1 0-.1 0 0 0-.1 0 0 0 0 0"/><path fill="#0099D9" d="M67.3 103.4l.4.5-.3.1s0 .1 0 0l.3-.1.1.1-.6.2h.1c.1 0 .3-.1.3-.1l.1.1-.6.2s0 .1.1.1.6-.1.7-.1l.1.1-.5.2v.1l.7-.1.1.1-.6.2v.1l.6-.1v.1l-.3.1v.1h.3v.4l-.7-.2-.6.6V105l-.7-.4v-.1l.8-.3.2-.8c-.1 0-.1-.1 0 0 0-.1 0 0 0 0"/><path fill="#FEBE10" d="M68.9 103l.4.5-.3.1s0 .1 0 0l.3-.1.1.1-.6.2h.1c.1 0 .3-.1.3-.1l.1.1-.6.2s0 .1.1.1.6-.1.7-.1l.1.1-.5.2v.1l.7-.1.1.1-.6.2v.1l.6-.1v.1l-.3.1v.1h.3v.4l-.7-.2-.6.6v-.1l-.1-.8-.7-.4v-.1l.8-.3.3-1c-.1 0-.1-.1 0 0 0-.1 0 0 0 0"/><path d="M70.6 102.5l.4.5-.3.1s0 .1 0 0l.3-.1.1.1-.6.2h.1c.1 0 .3-.1.3-.1l.1.1-.6.2s0 .1.1.1.6-.1.7-.1l.1.1-.5.2v.1l.7-.1.1.1-.6.2v.1l.6-.1v.1l-.3.1v.1h.3v.4l-.7-.2-.6.6v-.1l-.1-.8-.7-.4v-.1l.8-.3.3-1c-.1 0-.1 0 0 0"/><path fill="#009E59" d="M72.2 102.1l.4.5-.3.1s0 .1 0 0l.3-.1.1.1-.6.2h.1c.1 0 .3-.1.3-.1l.1.1-.6.2s0 .1.1.1.6-.1.7-.1l.1.1-.5.2v.1l.7-.1.1.1-.6.2v.1l.6-.1v.1l-.3.1v.1h.3v.4l-.7-.2-.6.6v-.1l-.1-.8-.7-.4v-.1l.8-.3.3-1c-.1 0-.1 0 0 0"/></g><g><defs><path id="C" d="M27.2 101.4c-2.1.7-3.6 2.3-4.5 5-.6 1.7-.6 4.6-.5 6l-3.3-2.4c-.1-.1-.3-.1-.4 0-.1.1-.2.2-.2.3 0 .2-.6 4.6 2 8.1 2.5 3.3 6.1 5.6 9.9 6.2.6.1 1.1.1 1.7.1 3.3 0 6.8-1.2 7.6-1.5.2 0 .3-.2.3-.3.2-1.1.4-2 .5-2.7l.1-.7c0-.2-.1-.4-.3-.5H40s-3.1.1-5.5-.8c-3-1.1-4.3-2.6-4.8-3.7-1.3-2.5.2-5.7 1.3-6.6.7-.6 1.4-.9 2-.6 1.3.5 2.7 3.1 3.1 4 .1.2.2.3.4.2.2 0 .3-.2.4-.3 0-.2.8-5.2-3.4-8.4-1.8-1.4-3.4-1.7-4.5-1.7-1 0-1.5.2-1.8.3"/></defs><clipPath id="D"><use xlink:href="#C" overflow="visible"/></clipPath><linearGradient id="E" gradientUnits="userSpaceOnUse" x1="-356.414" y1="387.188" x2="-355.846" y2="387.188" gradientTransform="matrix(39.2627 0 0 -39.2627 14011.882 15314.94)"><stop offset="0" stop-color="#d1d3d2"/><stop offset=".2" stop-color="#b8b9b9"/><stop offset=".591" stop-color="#838484"/><stop offset="1" stop-color="#4f5252"/></linearGradient><path clip-path="url(#D)" fill="url(#E)" d="M17.6 101.1h22.9v23.6H17.6z"/></g><g><defs><path id="F" d="M14.9 27.7c-1.8.6-2.2 2.4-2.2 2.5v.2c-.1.2 0 .4.1.5 1.3.9 2.9 2.9 4.1 5.3.1.1.2.2.4.2h.2c.1-.1.2-.2.2-.3V36c.2-.4 2-4.4 1.6-6-.2-.8-.7-1.5-1.6-2-.6-.3-1.2-.5-1.9-.5-.3.1-.6.1-.9.2"/></defs><clipPath id="G"><use xlink:href="#F" overflow="visible"/></clipPath><linearGradient id="H" gradientUnits="userSpaceOnUse" x1="-343.29" y1="379.81" x2="-342.722" y2="379.81" gradientTransform="matrix(11.8655 0 0 -11.8655 4085.914 4538.617)"><stop offset="0" stop-color="#d1d3d2"/><stop offset=".2" stop-color="#b8b9b9"/><stop offset=".591" stop-color="#838484"/><stop offset="1" stop-color="#4f5252"/></linearGradient><path clip-path="url(#G)" fill="url(#H)" d="M12.6 27.6h7.1v8.8h-7.1z"/></g><g><defs><path id="I" d="M18.7 41.4h-.1-.1c-.1.1-.2.3-.2.4-.1 2.2-.7 5.3-1.2 6.8-1.1 3.4-3 6.7-5.1 8.5-.8.8-1.7.6-2.4.4-.1 0-.1 0-.2-.1h-.1-.1-.1H9l-.1.1v.6l.1.1.1.1s1.3.7 3 .7c1.3 0 2.8-.4 4.3-1.7 2.5-2.3 4.9-7.5 4.3-11.1-.4-2.2-1.4-4-1.7-4.5 0-.1-.2-.2-.3-.3.1 0 .1 0 0 0 .1 0 .1-.1 0 0 .1-.1.1-.1 0 0 .1-.1.1 0 0 0"/></defs><clipPath id="J"><use xlink:href="#I" overflow="visible"/></clipPath><linearGradient id="K" gradientUnits="userSpaceOnUse" x1="-351.197" y1="384.061" x2="-350.629" y2="384.061" gradientTransform="matrix(20.8477 0 0 -20.8477 7330.694 8056.923)"><stop offset="0" stop-color="#d1d3d2"/><stop offset=".2" stop-color="#b8b9b9"/><stop offset=".591" stop-color="#838484"/><stop offset="1" stop-color="#4f5252"/></linearGradient><path clip-path="url(#J)" fill="url(#K)" d="M9 41.3h12.3v17.6H9z"/></g><g><defs><path id="L" d="M61.6 116.7h43v59.5h-43z"/></defs><clipPath id="M"><use xlink:href="#L" overflow="visible"/></clipPath><path clip-path="url(#M)" fill="#E7E7E6" d="M72.4 116.7s5 16.7 5.6 20.3c1.3 7-6.1 22.9-6.1 22.9l9.5 1.9-6.1 1.2 2.4 1.2c4.9 2.4 8.3 3.6 12 3.8.7 0 4.3-.1 4.3-.1l-1.3-2.9s2.8 2.8 3.2 2.9c2.7.8 3.8.2 5.1-.4.1 0-.4-1.5-.8-2.2-.3-.7-.6-1.3-.6-1.3s2.2 3.4 3.2 3.2c.6-.1 1-.9 1-.9s.9 2.5.9 6.2c0 1.4-.2 2.2-2.7 3-4.4 1.4-10.2.8-15.4.4-5.5-.4-11.3-1.3-15.5-2.3-3.3-.8-5.6-1.5-6-2.9-.4-1.4 1-8.5 1.3-11.1.3-2.4 1.8-12.1 1.3-14-1.1-4.5-3.4-8.4-6-14.5l2.3-3.3s1.7-2 3.1-3.4c1.1-1.5 5.3-7.7 5.3-7.7"/><defs><path id="N" d="M18 166.3h33v14H18z"/></defs><clipPath id="O"><use xlink:href="#N" overflow="visible"/></clipPath><path clip-path="url(#O)" fill="#E7E7E6" d="M33.4 177.5c-4.2.1-2.8-5.3-2.8-5.3l1.3-4.8s-1.5 2.4-2.3 3.8c-.6.9-1.7 1.4-2.7 1.5-1.6 0-3.6-.9-4.8-2-.1-.1.7-1.9 1-2.6.3-.7.7-1.9.7-1.9s-2.7 3.2-3.7 3c-.6-.1-1-.3-1-.3s-.9 2.7-1.2 6.3c-.1 1.4.8 2.2 3 2.9 4.1 1.2 6.4 1.9 10.2 2.1 4.7.2 9.7-1.2 13.9-2.2 3.3-.8 5.9-3.2 5.9-3.2s-6.3 2.5-17.5 2.7"/><defs><path id="P" d="M50.9 74h33v44h-33z"/></defs><clipPath id="Q"><use xlink:href="#P" overflow="visible"/></clipPath><path clip-path="url(#Q)" fill="#E7E7E6" d="M82.8 103.5l-8.6 6.9c-4.2 1.3-7.5-.5-8.8-4.7l-7.1-24.2c-2.3-2.8-5-6.1-7.4-7.4.7 1.3 2.3 6.8 3.1 9.3 1.3 4.6 2.1 19.6 4 29 .5 2.5 1.4 4.3 2.7 5 1.4.8 3.9.6 5.4.4.3 0 .5-.1.7-.1 5.5-.5 3.4-.9 11.5-3 3.5-.9 4.5-1.8 4.8-2.2 1.4-2.3.6-5.5.4-6.6-.3-.8-.5-1.6-.7-2.4"/><defs><path id="R" d="M32.9 82.4h13.9V108H32.9z"/></defs><clipPath id="S"><use xlink:href="#R" overflow="visible"/></clipPath><path clip-path="url(#S)" fill="#E7E7E6" d="M40.7 88.6c0-1.1.5-5.7.6-6.2-2 3.2-4.2 7.2-5.8 9.5-.1.1-.6 1.1-1.1 1.8-.6 1-1.7 2.7-1.5 4.5.2 1.9.7 2.7 3 4.1 2.2 1.3 8.1 5.2 10.8 5.7-3.4-4-6.5-8.3-6-19.4"/><defs><path id="T" d="M31.5 42.6h48.3V74H31.5z"/></defs><clipPath id="U"><use xlink:href="#T" overflow="visible"/></clipPath><g clip-path="url(#U)"><defs><path id="V" d="M33.7 42.6S40.5 53.8 44 58.3c4.6 5.8 8.9 6.2 8.9 6.2s1.3 4.3 6.6 4.6c4.5.3 6.7-3.3 6.7-3.3s2.1 1.3 4.4 1.2c4.1-.1 9.3-4.3 9.3-4.3s-4.8 4.3-6.6 5.4C64.3 73.8 60 74 60 74s-3.2-.5-7.3-2.4c-4-1.9-7.4-4.4-9.8-6.3-3-2.4-6.1-6.4-7.3-8.5-2.5-4.2-4.1-10.3-4.1-10.3s.6-1.2.9-1.7c.3-.4 1.3-2.2 1.3-2.2"/></defs><clipPath id="W"><use xlink:href="#V" overflow="visible"/></clipPath><linearGradient id="X" gradientUnits="userSpaceOnUse" x1="-360.295" y1="382.495" x2="-359.727" y2="382.495" gradientTransform="scale(36.1288 -36.1288) rotate(55.25 187.904 535.548)"><stop offset="0" stop-color="#fff"/><stop offset=".356" stop-color="#fff"/><stop offset=".578" stop-color="#f4f5f5"/><stop offset=".943" stop-color="#dfe0e2"/><stop offset="1" stop-color="#dcddde"/></linearGradient><path clip-path="url(#W)" fill="url(#X)" d="M16.8 63.8L47.2 20l47.3 32.8-30.4 43.8z"/></g><defs><path id="Y" d="M55.3 37.6h4.4V42h-4.4z"/></defs><clipPath id="Z"><use xlink:href="#Y" overflow="visible"/></clipPath><path clip-path="url(#Z)" fill="#E7E7E6" d="M59.7 40.6s-1.3.2-2.1.5c-.9.3-2.3 1-2.3 1l4.1-4.4.3 2.9z"/><defs><path id="aa" d="M73 8h6.8v17.9H73z"/></defs><clipPath id="ab"><use xlink:href="#aa" overflow="visible"/></clipPath><path clip-path="url(#ab)" fill="#E7E7E6" d="M79.7 25.9s-2.5-2.7-3.4-3.5c-.8-.8-3.4-2.9-3.4-2.9s.1-3.3.8-8.2C74.3 8 75.4 8 75.4 8s1.8 3.6 2.7 6.2c1.6 5 1.6 11.7 1.6 11.7"/><g><defs><path id="ac" d="M40.2 6h7.7v19.9h-7.7z"/></defs><clipPath id="ad"><use xlink:href="#ac" overflow="visible"/></clipPath><path clip-path="url(#ad)" fill="#E7E7E6" d="M47.6 19.1s.6-5.8.1-9.1c-.5-3.6-1.9-4-1.9-4s-2.5 3.3-4 8.2c-1.9 6.5-1.6 11.6-1.6 11.6s1.9-2.1 4-4.1c1.7-1.5 3.4-2.6 3.4-2.6"/></g><g><defs><path id="ae" d="M.7 29.9h16.6v42.8H.7z"/></defs><clipPath id="af"><use xlink:href="#ae" overflow="visible"/></clipPath><path clip-path="url(#af)" fill="#E7E7E6" d="M11.7 30s-.1.1-1.6 2.2c-4 5.6-1.7 6.8-1.7 6.8s-2.2.9-2.9 3.7c-.7 2.8 1.6 4.5 1.6 4.5s-2.5 5.1-2.3 6.7c.4 3.5 5.9 4.6 7 4.1.8-.3 1.5-1.5 1.5-1.5s1.7 3.3 1.9 5.8c.1 2.1-2 3.3-1.8 4 .9 3.1 3.9 6.5 3.9 6.5S5.6 64 2.4 56C1.2 52.9.8 53.5.7 46.7c-.1-5.9.7-11.9 1.4-13.3.6-1.1.4-1.2 4.2-2.6 3.3-1.3 5.4-.8 5.4-.8"/></g><g><defs><path id="ag" d="M12.9 91.1h27.3v38.6H12.9z"/></defs><clipPath id="ah"><use xlink:href="#ag" overflow="visible"/></clipPath><path clip-path="url(#ah)" fill="#E7E7E6" d="M39.8 110.8s-2.8 2.9-4.7 3.2c-8.7 1.6-3.3-7.1-3.3-7.1s-1.9-.3-3.5 1.8c-.7.9-.8 2.9-.7 4 .2 2.1 1.4 3.2 2.4 4 .7.6 1.7 1.4 3.3 1.7 1.1.2 4.3.8 4.3.8s-6.3.8-9.4.1c-4-.9-7-3.7-8.9-5.5-.8-.8-1.7-2.4-2.1-3.5-.7-1.9-.9-4.2-.9-4.2l3.1 2.7s-.4-5.9 5.3-12.5c2.7-3.1 7.6-1.2 9.6-2.1 1-.4 1-2.4 1-2.4s-1.6-1.5-5.1-.7c-1.5.3-3.6.4-5.9 3-1.3 1.5-2.3 2.7-3.6 5.8-.5 1.1-1.6 4.6-1.6 4.6l-1.9-4.8s-2.1 4-3.4 8.7c-.4 1.5-1.3 4.6-1 6.2.5 2.2 2 6.2 3.5 8.1 2.7 3.2 5.4 5 9.1 6.1 5.2 1.6 12.8.1 12.8.1s1.6-8.8 1.8-10.5c.2-1.3 0-2.4 0-2.4l-.2-5.2z"/></g><g><defs><path id="ai" d="M80.9 73.3h15.7v47.4H80.9z"/></defs><clipPath id="aj"><use xlink:href="#ai" overflow="visible"/></clipPath><path clip-path="url(#aj)" fill="#E7E7E6" d="M80.9 73.3s10.6 13.1 12 16.4c1.7 4 3.8 14.9 3.8 14.9s-1.4 3.1-1.8 4l-1.4 3.5s-2.4 1.8-3 2.6c-.4.5-1.1 1.8-1 2.5.4 2.7 5.3 1.2 5.3 1.2s-3.4 2.1-4.2 2.3c-.9.2-3.3-1.2-4.2-1.6-.7-.3-2.6-1.6-1.5-4.2.3-.7 3-2.8 3.5-3.2.4-.3 1.3-2.6 1.5-3.5.1-.6 1.1-2.7 1.1-2.7s-2.4-4.8-4.1-7.6c-.6-.9-5.5-7.9-5.9-9.4-.2-1 .3-2.4.3-2.4s.1-3.5.1-4.8c.1-.9-.5-8-.5-8"/></g><g><defs><path id="ak" d="M95.3 113.1h10.5v14.5H95.3z"/></defs><clipPath id="al"><use xlink:href="#ak" overflow="visible"/></clipPath><path clip-path="url(#al)" fill="#E7E7E6" d="M95.3 115.6s.4-1.5 1.8-2.4c.6-.4 3.5 3.8 3.8 5.6.3 1.3.9 5.2 1.5 6.4.8 1.4 3.4 2 3.4 2s-3.6 1.7-6.8-.9c-.7-.5-1.4-5-1.6-5.7-.4-1.2-2.1-5-2.1-5"/></g><g><defs><path id="am" d="M104.4 111.5h7.9v12.2h-7.9z"/></defs><clipPath id="an"><use xlink:href="#am" overflow="visible"/></clipPath><path clip-path="url(#an)" fill="#E7E7E6" d="M104.5 114.2s-.5-1.7.5-2.6c.5-.5 4 3.6 5.3 9.9.4 1.9 1.9 1.9 1.9 1.9s-.8.3-2.3.4c-.4 0-1.6-.2-1.6-.2s-.3-2.5-1.2-4.6c-.9-2-2.6-4.8-2.6-4.8"/></g><g><defs><path id="ao" d="M109.5 109.1h7.1v8.5h-7.1z"/></defs><clipPath id="ap"><use xlink:href="#ao" overflow="visible"/></clipPath><path clip-path="url(#ap)" fill="#E7E7E6" d="M109.6 109.9s-.4-.8.6-.8c.7 0 2.4.9 4.1 4 1.6 2.9 2.3 1.4 2.3 1.4s.1.8-.3 1.9c-.3.7-1.2 1.2-1.2 1.2s-.9-2.4-2.3-4.1c-1.4-1.7-3.2-3.6-3.2-3.6"/></g><g><defs><path id="aq" d="M13.1 26.3h6.5v11.4h-6.5z"/></defs><clipPath id="ar"><use xlink:href="#aq" overflow="visible"/></clipPath><path clip-path="url(#ar)" fill="#E7E7E6" d="M15.1 26.4c.1.1 2.8-1 4.1 1.7 1.5 3-1.1 9.5-1.1 9.5s-1.4-3.4-2.8-5c-.6-.7-2.2-2.2-2.2-2.2s.5-1.9.8-2.5c.2-.4 1.2-1.5 1.2-1.5"/></g><g><defs><path id="as" d="M31.4 21.1h6.8v25h-6.8z"/></defs><clipPath id="at"><use xlink:href="#as" overflow="visible"/></clipPath><path clip-path="url(#at)" fill="#E7E7E6" d="M36.6 21.1s.1 3.6.5 5.7c.2.7 1.1 2.9 1.1 2.9s-2.2 5-2.8 6.7c-.5 1.4-1.9 5.9-1.9 5.9l-2.1 3.9s1.1-6 1.8-7.9c.5-1.3 1.8-4.7 1.8-4.7s.3-4.6.5-6.1c.2-2.3 1.1-6.4 1.1-6.4"/></g><g><defs><path id="au" d="M60.4 7.8h6.3v8.3h-6.3z"/></defs><clipPath id="av"><use xlink:href="#au" overflow="visible"/></clipPath><path clip-path="url(#av)" fill="#E7E7E6" d="M65.3 7.8s.1 4 .4 5.4c.2.8 1 2.9 1 2.9s-1.6-.3-2.1-.3h-4.2s2-.2 2.9-.6c.2-.1.6-.2.8-.6.7-1.4 1.2-6.8 1.2-6.8"/></g><g><defs><path id="aw" d="M47.2 45.7h18.7v15.1H47.2z"/></defs><clipPath id="ax"><use xlink:href="#aw" overflow="visible"/></clipPath><g clip-path="url(#ax)"><defs><path id="ay" d="M53.5 45.7s-2.6 1.1-4.6 3.3c-1.5 1.6-1.7 4.8-1.7 4.8s.2.7.5.8c.3 0 1 .1 1 .1s0 .3 1.2 2.8c.5 1.1 1.4 2.4 3.2 2.8 1.4.4 2.6.6 3.7.5 1.8-.1 3.1-.6 3.1-.6s2.6.5 3.5.6c.6.1 2.5-.4 2.5-.4s-2.2-.5-2.7-2.2c-.4-1.2.5-2.4.5-2.4s-2.4.8-3.7 1c-1 .1-3.9-.8-5.1-2-1.9-1.8-3.1-2.9-3.4-4.5-.7-3.2 2-4.6 2-4.6"/></defs><clipPath id="az"><use xlink:href="#ay" overflow="visible"/></clipPath><linearGradient id="aA" gradientUnits="userSpaceOnUse" x1="-358.704" y1="380.237" x2="-358.136" y2="380.237" gradientTransform="scale(24.1407 -24.1407) rotate(46.757 264.425 605.997)"><stop offset="0" stop-color="#fff"/><stop offset=".356" stop-color="#fff"/><stop offset=".578" stop-color="#f4f5f5"/><stop offset=".943" stop-color="#dfe0e2"/><stop offset="1" stop-color="#dcddde"/></linearGradient><path clip-path="url(#az)" fill="url(#aA)" d="M39.7 53.7L56 36.3l17.4 16.5-16.3 17.3z"/></g></g><g><defs><path id="aB" d="M8.9 38.3h9.7v5.9H8.9z"/></defs><clipPath id="aC"><use xlink:href="#aB" overflow="visible"/></clipPath><path clip-path="url(#aC)" fill="#E7E7E6" d="M18.5 44.2s-3.2-3.8-5.1-4.7c-1.2-.5-4.5-.5-4.5-.5s3.8-1.4 5.6-.5c3.1 1.6 4.1 4.8 4.1 4.8l-.1.9z"/></g><g><defs><path id="aD" d="M7.3 46.9h8.8v5.8H7.3z"/></defs><clipPath id="aE"><use xlink:href="#aD" overflow="visible"/></clipPath><path clip-path="url(#aE)" fill="#E7E7E6" d="M16 52.7s-3.2-4-5.1-4.8c-1.2-.5-3.6-.8-3.6-.8s3.2-.7 5 .3c3.1 1.6 3.8 4.7 3.8 4.7l-.1.6z"/></g><g><defs><path id="aF" d="M31.7 56.5H53v24H31.7z"/></defs><clipPath id="aG"><use xlink:href="#aF" overflow="visible"/></clipPath><path clip-path="url(#aG)" fill="#E7E7E6" d="M52.4 77.7s-3.9-3.1-5.6-5.5c-2.2-1.3-3.8-2.9-6-4.9-.3-.3-1.1-1.5-.9-2 0-.1.4-.3.4-.3 4.4 4.2 9 6.6 9 6.6l-.7-2.1s-4.4-3-6.6-4.9c-2.6-2.3-6.7-8.1-6.7-8.1s-1.9.3-2.5 1.3c-.5.8-1.2 1.8-1.1 3.3.1 1 1.7 3.4 2.7 4.4.6.6 1.3 1.1 2 2 2 2.5 3.8 7 6.6 9 2.6 1.8 8 3.1 10 4-.2-1.1-.6-2.8-.6-2.8"/></g></g><g><defs><path id="aH" d="M72.1 116.3c-4.3 7.3-8.5 10.9-8.6 10.9-.2.1-.2.4-.1.6.1.1.2.1.3.1.1 0 .2 0 .3-.1.2-.1 4.4-3.7 8.8-11.1.1-.2 0-.4-.1-.6-.1 0-.1-.1-.2-.1-.2.1-.3.2-.4.3"/></defs><clipPath id="aI"><use xlink:href="#aH" overflow="visible"/></clipPath><linearGradient id="aJ" gradientUnits="userSpaceOnUse" x1="-361.696" y1="387.681" x2="-361.128" y2="387.681" gradientTransform="scale(386.1871 -386.1871) rotate(67.476 109.808 464.455)"><stop offset="0" stop-color="#4f5252"/><stop offset=".012" stop-color="#4f5252"/><stop offset=".253" stop-color="#535556"/><stop offset=".52" stop-color="#5c5e5f"/><stop offset=".799" stop-color="#6c6f70"/><stop offset="1" stop-color="#7b7f80"/></linearGradient><path clip-path="url(#aI)" fill="url(#aJ)" d="M59.1 126.2l5.6-13.5 12.4 5.2-5.6 13.4z"/></g><g><defs><path id="aK" d="M14.3 26.6c-1.1 1.2-1.5 2.6-1.6 3.3-.1 0-.1-.1-.2-.1-2-.9-7.4.9-9.6 2.2-3.2 1.7-3.2 18.2-1.7 22.4 2.1 6 7.3 12.1 16.7 19.6 4.5 3.6 15.9 7.3 17.8 7.9.5 2.3.9 4.8 1.3 7.3 0 .2.2.3.4.3h.1c.2 0 .4-.2.3-.5-.4-2.6-.9-5.1-1.3-7.5v-.1-.1l-.1-.1h-.1c-.1 0-13-4.1-17.7-7.8C9.1 65.9 4 60 1.9 54 .5 49.9.7 34 3.3 32.6c2.4-1.3 7.4-2.8 8.9-2.1 2.5 1.2 5.6 6.5 6.1 9.3.2.8.1 2.2-.1 3.6-1-1.3-3.2-3.7-5.5-4.4-2.2-.7-7.4 0-7.6 0-.2 0-.4.2-.3.5 0 .2.2.4.5.3.1 0 5.2-.7 7.3 0 2.5.8 5.1 4.2 5.6 4.8-.2 1.6-.6 3.2-.9 4.1-.4 1.1-.8 2.3-1.4 3.4-.7-1-2.7-3.5-5.3-4.5-1.5-.6-4.7-.9-4.9-.9-.2 0-.4.1-.4.4 0 .2.1.4.4.4 0 0 3.3.3 4.7.9 2.7 1.1 4.8 4.1 5.2 4.6-1 1.8-2.1 3.3-3.3 4.4-.8.8-1.7.6-2.4.4-.1 0-.1 0-.2-.1-.8-.2-3.8-1.6-4.8-2.1-.2-.1-.4 0-.5.2-.1.2 0 .4.2.5.2.1 3.9 1.9 5 2.2h.2c.7.2 1.9.5 3.1-.6 2.1-2 4.1-5.4 5.3-8.9.7-2 1.6-7 1.1-9.2-.5-2.6-3.1-7.3-5.6-9.2 0-.1.2-1.8 1.5-3.2 1.1-1.2 2.8-1.5 4-1.5 1.1 0 3.3.5 3.4 2.4 0 .8-.3 2.5-.6 3.7-.1.5-.2 1-.3 1.3-.3 2.1-.9 5.5-.4 7.6.2.8.3 1.3.5 1.9.2.6.4 1.4.7 2.7.6 2.5-.6 7.6-.6 7.7v.3c.1.2 2.7 4.8 5.2 7 1.9 1.6 7.1 4.8 7.3 4.9.1 0 .1.1.2.1s.3-.1.3-.2c.1-.2.1-.4-.1-.6-.1 0-5.4-3.3-7.2-4.8-2.1-1.9-4.5-5.8-4.9-6.6.2-.9 1.1-5.4.6-7.9-.3-1.3-.5-2.1-.7-2.7-.2-.6-.3-1.1-.5-1.9-.4-2 .1-5.4.4-7.3.1-.3.1-.8.2-1.3.3-1.4.6-3.1.6-3.9-.1-2.2-2.3-3.1-4.2-3.1-2.2-.4-3.7.2-4.8 1.4"/></defs><clipPath id="aL"><use xlink:href="#aK" overflow="visible"/></clipPath><linearGradient id="aM" gradientUnits="userSpaceOnUse" x1="-361.696" y1="387.554" x2="-361.128" y2="387.554" gradientTransform="scale(386.1672 -386.1672) rotate(67.476 109.576 464.3)"><stop offset="0" stop-color="#4f5252"/><stop offset=".012" stop-color="#4f5252"/><stop offset=".253" stop-color="#535556"/><stop offset=".52" stop-color="#5c5e5f"/><stop offset=".799" stop-color="#6c6f70"/><stop offset="1" stop-color="#7b7f80"/></linearGradient><path clip-path="url(#aL)" fill="url(#aM)" d="M-23.2 80L5.2 11.3l55.4 23-28.4 68.6z"/></g><g><defs><path id="aN" d="M26.7 92.3c-5 2.6-7 8.4-7.6 11.1l-1.4-3.7c-.1-.1-.2-.3-.4-.3s-.3.1-.4.2c-.2.4-5 10.6-4.3 15.1.4 2.3 2.2 10.2 11 13.8 2.8 1.2 5.9 1.5 8.5 1.5 2.7 0 4.9-.4 5.8-.6-.9 5.5-1.7 11.5-1.8 14.4-.1 6.6.8 17.5 1 19.7-1.4-.4-2.9-.8-4.1-1.1l-1-.2c-3.5-.7-6.1-1.2-8.7 0-2.6 1.2-3.7 4-4 4.8 0 .1-2.7 7.9-1.3 9.7 1.8 2.2 10.2 3.4 10.5 3.4 1.3.2 2.4.2 3.6.2 3.4 0 6.5-.7 10.1-1.4l.6-.1c2.5-.5 5.9-1.7 7.9-3.5.5-.4 1-1.2 1.2-1.9.6-2 1.1-7.2 1.6-12.8.4-3.7.7-7.5 1.1-10 .4-2.9 5.9-15.5 7.4-18.9 1.2 2.5 4.8 10.5 5.3 14.2.2 1.6-1.1 10.7-1.9 16.7-.6 4.1-.9 6.4-.9 6.9 0 1.1.6 1.9 1.8 2.6 3.5 1.9 13.8 3.3 18.5 3.6.7 0 1.4.1 2.2.2 2.5.2 5.6.4 8.4.4 4 0 7.7-.5 9.1-2.2 1.3-1.6-.1-7.6-.6-9.1-.7-2-1.6-3.2-3.3-4.5-2.8-2.1-7.4-1.4-10.4-.9-.4.1-.9.1-1.2.2-1.7.2-4.4.7-7 1.2.6-3.1 3.1-17.9 2.6-24.2-.5-6.9-4.7-16.7-7.2-21.9-.1-.2-.3-.3-.5-.2-.2.1-.3.3-.2.5 2.4 5.2 6.6 14.8 7.1 21.7.4 6.4-2.3 22.1-2.7 24.3-3.1.6-5.8 1.2-5.9 1.2-.2 0-.4.3-.3.5 0 .2.3.4.5.3.1 0 9.8-2 13.7-2.6.4-.1.8-.1 1.3-.2 2.9-.5 7.3-1.2 9.8.7 1.5 1.2 2.4 2.3 3 4.1.8 2.2 1.7 7.2.8 8.3-.3.4-.9.7-1.5 1 0-1.1-.1-4.2-.6-6.4-.7-3-2.1-5.2-2.2-5.3-.1-.2-.4-.2-.6-.1-.2.1-.2.4-.1.6 0 0 1.4 2.1 2.1 5 .6 2.4.6 5.9.6 6.5-1.7.5-4.1.6-6.5.6.1-1 .2-3.7-.1-5.7-.6-3.5-2.3-5.9-2.4-6-.1-.2-.4-.2-.6-.1-.2.1-.2.4-.1.6 0 0 1.7 2.3 2.2 5.6.3 1.9.2 4.7.1 5.6-2.5-.1-5.1-.3-7.2-.4-.8-.1-1.6-.1-2.2-.2-4.5-.3-14.8-1.7-18.1-3.5-.9-.5-1.4-1.1-1.4-1.9 0-.5.4-3.4.9-6.8 1-6.8 2.1-15.2 1.9-16.9-.6-4.5-5.5-14.8-5.7-15.2v-.1l-.1-.1h-.1-.1-.1-.1l-.1.1v.1c-.3.7-7.3 16.5-7.8 19.9-.4 2.5-.7 6.4-1.1 10.1-.5 5.3-1 10.7-1.6 12.6-.1.5-.6 1.1-1 1.5-1.8 1.6-5.2 2.8-7.5 3.3l-.6.1c-4 .9-7.4 1.6-11.2 1.4-.1-.9-.4-4.1 0-6.8.5-2.6 1.4-5.3 1.4-5.3.1-.2 0-.4-.2-.5-.2-.1-.4 0-.5.2 0 .1-1 2.8-1.4 5.5-.5 2.6-.2 5.7-.1 6.8-.5 0-.9-.1-1.4-.1-1.9-.3-4.7-.8-6.9-1.5 0-.4 0-4 .5-6.4.5-2.5 1.9-5.1 1.9-5.1.1-.2 0-.4-.2-.5-.2-.1-.4 0-.5.2-.1.1-1.5 2.7-2 5.3-.5 2.2-.5 5.3-.6 6.3-1.1-.4-1.9-.9-2.3-1.3-.8-.9.3-5.9 1.4-8.9.3-.7 1.3-3.3 3.6-4.4 2.4-1.1 4.7-.7 8.2 0l1 .2c4 .8 10.8 3.5 10.9 3.5.2.1.4 0 .5-.2.1-.2 0-.4-.2-.5-.2-.1-3-1.2-6.1-2.2-.1-1-1.2-12.9-1.1-20 .1-5.7 3.7-25.4 3.7-25.6v-.1c0-.1-.2-5.7-1-13.8 0-.2-.2-.4-.4-.4s-.4.2-.4.4c.7 7.7.9 13.2.9 13.7-.1.6-.9 5.2-1.8 10.5-1.1.2-8.2 1.6-14.1-.8-8.4-3.5-10.2-11-10.5-13.2-.6-3.6 2.7-11.2 3.8-13.8l1.6 4c.1.2.2.3.4.3s.3-.2.4-.3c0-.1 1.5-8.6 7.5-11.8 3.3-1.8 6.5-1.3 8.5-.6.2.1.4 0 .5-.3.1-.2 0-.4-.3-.5-1-.3-2.4-.6-3.8-.6-1.6.2-3.4.5-5.3 1.5"/></defs><clipPath id="aO"><use xlink:href="#aN" overflow="visible"/></clipPath><linearGradient id="aP" gradientUnits="userSpaceOnUse" x1="-361.696" y1="387.685" x2="-361.128" y2="387.685" gradientTransform="scale(386.171 -386.171) rotate(67.476 109.804 464.452)"><stop offset="0" stop-color="#4f5252"/><stop offset=".012" stop-color="#4f5252"/><stop offset=".253" stop-color="#535556"/><stop offset=".52" stop-color="#5c5e5f"/><stop offset=".799" stop-color="#6c6f70"/><stop offset="1" stop-color="#7b7f80"/></linearGradient><path clip-path="url(#aO)" fill="url(#aP)" d="M-19.9 167.4L25.6 57.7l111.9 46.4L92 213.8z"/></g><g><defs><path id="aQ" d="M82.4 71.3c-.2.2-.2.4 0 .6 2.8 2.8 12.2 12.4 15.5 17.1 6.3 9.1 10.1 15.9 10.1 16l.1.1s4.6 3.3 5.9 4.9c1.5 1.8 2.1 3.2 2.2 4.5.1 1.5-.6 2.2-1 2.5-.4-1-1-2.1-1.6-2.9-1-1.5-3.8-4.3-3.9-4.5-.2-.2-.4-.2-.6 0-.2.2-.2.4 0 .6 0 0 2.9 2.9 3.8 4.3 1.4 2.2 2.3 4.4 2.2 5.7 0 .8-.9 1.8-2.1 2.4-1.6.9-3.8.6-4.5.5-.2-1.5-.7-3.1-.8-3.4-.9-2.5-3-5.7-3.1-5.8-.1-.2-.4-.2-.6-.1-.2.1-.2.4-.1.6 0 0 2.2 3.2 3 5.6.6 1.7 1.3 4.6.5 5.5-1.1 1.2-3.5 1.7-4.6 1.6-1.2-.1-3.4-.6-4-1.8-.4-.7-.6-1.7-.8-2.6-.2-.8-.3-1.6-.6-2.5-.4-1.2-2-5-2.1-5.2-.1-.2-.3-.3-.5-.2-.2.1-.3.3-.2.5 0 0 .3.8.7 1.7-1.1.8-3.6 2.6-4.6 2.7-2 .3-3.7-1-4.5-1.9-.9-.9-1.1-2.2-.8-3 .2-.9 2.4-2.5 3.6-3.3.1 0 .1-.1.2-.2 0 0 .8-2.1 1-2.8.1-.2.2-.4.4-.7.4-.7.9-1.6.9-2.4 0-1.2-2.4-5.7-3.9-8.2-1.6-2.6-5.7-7.5-6.4-8.4.3-3.1.4-6.2.3-9.4 0-.2-.2-.4-.4-.4s-.4.2-.4.4c.1 4.6-.2 9.1-.8 13.4 0 .2.1.4.3.5h.1c.2 0 .4-.1.4-.3.1-1 .3-2 .4-3 1.3 1.6 4.6 5.5 5.8 7.7 2 3.4 3.8 7 3.8 7.8 0 .6-.4 1.4-.8 2-.2.3-.3.6-.4.8-.3.6-.8 2.3-1 2.7-.7.4-3.5 2.3-3.9 3.7-.3 1.1-.1 2.7 1 3.8 1.4 1.4 3 2.1 4.5 2.1.2 0 .5 0 .7-.1 1.3-.2 3.8-2 4.8-2.7.4 1 .9 2.1 1 2.6.3.8.4 1.6.6 2.4.2 1 .4 2 .8 2.9.8 1.6 3.4 2.1 4.7 2.2h.2c1.3 0 3.8-.5 5-1.9.4-.5.6-1.3.5-2.1.4.1.9.1 1.5.1 1 0 2.2-.1 3.3-.7 1.5-.8 2.5-2 2.5-3.1 0-.7-.2-1.6-.5-2.4.5-.3 1.6-1.3 1.5-3.4-.1-1.5-.8-3-2.4-4.9-1.3-1.6-5.4-4.5-6-5-.4-.8-4.1-7.4-10.1-16-3.3-4.8-12.8-14.4-15.6-17.3-.1-.1-.2-.1-.3-.1.3.1.2.1.1.2"/></defs><clipPath id="aR"><use xlink:href="#aQ" overflow="visible"/></clipPath><linearGradient id="aS" gradientUnits="userSpaceOnUse" x1="-361.696" y1="387.716" x2="-361.128" y2="387.716" gradientTransform="scale(386.1744 -386.1744) rotate(67.476 109.872 464.498)"><stop offset="0" stop-color="#4f5252"/><stop offset=".012" stop-color="#4f5252"/><stop offset=".253" stop-color="#535556"/><stop offset=".52" stop-color="#5c5e5f"/><stop offset=".799" stop-color="#6c6f70"/><stop offset="1" stop-color="#7b7f80"/></linearGradient><path clip-path="url(#aR)" fill="url(#aS)" d="M59.9 119.7l25.6-61.6 51.7 21.5-25.5 61.6z"/></g><g><defs><path id="aT" d="M66.9 64.4s-1.3 2.2-3.3 3.4c-1.7 1-3.6.9-3.6.9s-1.3.1-2.7-.5c-.3-.1-.6-.3-1-.5-2-1.2-3.4-3.6-3.6-3.6h-.4c-.2.1-.3.4-.1.6.1.1 1.4 2.4 3.6 3.7.4.2.7.4 1.1.5 1.2.5 2.2.5 2.7.5h.4c.5 0 2.3-.1 3.9-1 2.2-1.3 3.6-3.6 3.6-3.7.1-.2.1-.4-.1-.6-.1 0-.1-.1-.2-.1-.1.2-.2.3-.3.4"/></defs><clipPath id="aU"><use xlink:href="#aT" overflow="visible"/></clipPath><linearGradient id="aV" gradientUnits="userSpaceOnUse" x1="-361.696" y1="387.621" x2="-361.128" y2="387.621" gradientTransform="scale(386.176 -386.176) rotate(67.476 109.707 464.388)"><stop offset="0" stop-color="#4f5252"/><stop offset=".012" stop-color="#4f5252"/><stop offset=".253" stop-color="#535556"/><stop offset=".52" stop-color="#5c5e5f"/><stop offset=".799" stop-color="#6c6f70"/><stop offset="1" stop-color="#7b7f80"/></linearGradient><path clip-path="url(#aU)" fill="url(#aV)" d="M50.2 68.8l4.2-10.2L69.6 65l-4.2 10.1z"/></g><g><defs><path id="aW" d="M59.5 63.8c0-.1 1.1-1.3 3.8-1 .5 0 1.1.3 1.5.5l-.1.1c-2.1 1.9-4.8 1.9-4.8 1.9s-2.7 0-4.8-1.9l-.1-.1c.3-.1.8-.3 1.3-.4 1.1-.3 2.1 0 2.8.2l-.2.2c-.1.2-.1.4.1.6.1.1.2.1.3.1 0-.1.2-.1.2-.2m.4-19.7c-.2 0-3.7 0-5.8.9-2.7 1.2-3.1 3.2-3.1 3.9-.2 2.2 1.2 4.3 3.8 6 2 1.3 3.9 1.7 4.7 1.8V60c-1.2.2-6 1-8.3-1.4-1.3-1.4-2.5-4.1-2.5-4.1-.1-.2-.3-.3-.5-.2 0 0-.3.1-.5 0-.1 0-.2-.2-.2-.2-.1-.1-.3-.2-.5-.1s-.3.3-.2.5c0 .1.2.5.8.6.2 0 .4.1.6 0 .3.7 1.4 2.8 2.5 4 .1.2.3.3.5.4.2.4 1.5 2.4 2.9 3.8l.5.5c2.3 2 4.9 2.1 5.3 2.1.4 0 3.1-.1 5.3-2.1 1.5-1.4 3.2-3.9 3.5-4.3.2-.1.3-.3.5-.4 1.2-1.2 2.2-3.3 2.5-4h.6c.5-.1.8-.6.8-.6.1-.2 0-.4-.2-.5-.2-.1-.4 0-.5.2l-.2.2c-.3.1-.5 0-.5 0-.2 0-.4.1-.5.2 0 0-1.2 2.7-2.5 4.1-2.3 2.4-7 1.6-8.3 1.4v-3.3c.8-.1 2.7-.6 4.7-1.8 2.7-1.7 4-3.8 3.8-6-.1-.8-.5-2.8-3.1-3.9-1.8-.8-4.9-.9-5.6-.9-.2-.1-.3-.1-.3-.1"/></defs><clipPath id="aX"><use xlink:href="#aW" overflow="visible"/></clipPath><linearGradient id="aY" gradientUnits="userSpaceOnUse" x1="-361.696" y1="387.615" x2="-361.128" y2="387.615" gradientTransform="scale(386.1707 -386.1707) rotate(67.476 109.694 464.379)"><stop offset="0" stop-color="#4f5252"/><stop offset=".012" stop-color="#4f5252"/><stop offset=".253" stop-color="#535556"/><stop offset=".52" stop-color="#5c5e5f"/><stop offset=".799" stop-color="#6c6f70"/><stop offset="1" stop-color="#7b7f80"/></linearGradient><path clip-path="url(#aX)" fill="url(#aY)" d="M38.9 62.8l11.7-28.1 30.3 12.6-11.6 28.1z"/></g><g><defs><path id="aZ" d="M64.5 14.7c.5-.9.9-3.9 1.1-6.4.4-5.4 2.3-6.6 3-7 1.1-.7 3.5-.1 5.3 1.7 2.9 2.9 5.3 7.3 7.7 13.8 3 8.3 2.9 16.7 2.9 16.7v.2c2.5 5.6 3.4 11.8 3.5 12.5-.2.9-2.5 11.1-9.9 17.6-6.1 5.3-12.2 8.7-18.2 9.9-6-1.3-12.2-4.6-18.2-9.9-7.4-6.6-9.7-16.8-9.9-17.6.1-.7 1-6.9 3.5-12.5v-.1-.1c0-.1-.1-8.4 2.9-16.7C40.7 10.3 43.1 5.9 46 3c1.8-1.8 4.2-2.4 5.3-1.7.7.4 2.6 1.6 3 7 .2 2.5.6 5.6 1.1 6.4.7 1.3 2.9 1.5 4.5 1.5s3.8-.1 4.6-1.5M45.4 2.4c-3 3-5.4 7.5-7.8 14-2.9 8-3 16-3 16.9-2.7 6-3.6 12.6-3.6 12.7v.2c0 .1 2.2 11.1 10.2 18.1 6.2 5.4 12.5 8.9 18.7 10.1h.2c6.2-1.3 12.5-4.7 18.7-10.1 7.9-7 10.1-18 10.2-18.1v-.1-.1c0-.1-.9-6.7-3.6-12.7 0-.9-.1-8.9-3-16.9-2.4-6.6-4.9-11-7.8-14-2.2-2.2-5-2.7-6.3-1.8-1.2.8-3 2.4-3.4 7.6-.2 3.1-.7 5.6-1 6.1-.4.7-1.7 1.1-3.8 1.1-2.2 0-3.4-.4-3.8-1.1-.3-.5-.7-3-1-6.1C54.7 3 53 1.4 51.7.6c-.4-.3-1-.4-1.6-.4-1.4 0-3.2.7-4.7 2.2"/></defs><clipPath id="ba"><use xlink:href="#aZ" overflow="visible"/></clipPath><linearGradient id="bb" gradientUnits="userSpaceOnUse" x1="-361.696" y1="387.607" x2="-361.128" y2="387.607" gradientTransform="scale(386.1754 -386.1754) rotate(67.476 109.675 464.366)"><stop offset="0" stop-color="#4f5252"/><stop offset=".012" stop-color="#4f5252"/><stop offset=".253" stop-color="#535556"/><stop offset=".52" stop-color="#5c5e5f"/><stop offset=".799" stop-color="#6c6f70"/><stop offset="1" stop-color="#7b7f80"/></linearGradient><path clip-path="url(#ba)" fill="url(#bb)" d="M4.5 63.6l35-84.3 75.8 31.4-35 84.3z"/></g><g><defs><path id="bc" d="M54.4 46.2c-.1 0-.1.1-.2.1-.4.2-.9.6-.9 1.2s.6 1.4 1.4 1.7c1.5.7 9 .7 10.5 0 .8-.4 1.4-1.1 1.4-1.7 0-.6-.4-1-.9-1.2-.1 0-.1-.1-.2-.1-.9-.4-3.2-.6-5.5-.6-2.4 0-4.7.2-5.6.6"/></defs><clipPath id="bd"><use xlink:href="#bc" overflow="visible"/></clipPath><linearGradient id="be" gradientUnits="userSpaceOnUse" x1="-353.751" y1="384.395" x2="-353.183" y2="384.395" gradientTransform="matrix(23.2383 0 0 -23.2383 8273.878 8980.401)"><stop offset="0" stop-color="#717172"/><stop offset="1" stop-color="#a9aaab"/></linearGradient><path clip-path="url(#bd)" fill="url(#be)" d="M53.3 45.6h13.2v4.3H53.3z"/></g><g><path fill="#FFF" d="M65.4 46.4c.3.2.5.4.5.7 0 .5-.3.7-.6.9-.6.3-4.2.1-4.9-.3-.4-.2-.7-.5-.6-.9 0-.4.5-.6.5-.7.8-.4 4.3-.2 5.1.3"/></g><g><defs><path id="bf" d="M47.4 108.1c-1.7-.6-5.2-2.4-8.9-4.5-.3-.2-.7-.4-1-.6-1.8-.9-3.3-1.8-3.8-3.3-.6-1.7.2-3.3 1.2-5.1.1-.3.3-.5.4-.8 2.5-5 7.9-14.2 9.1-16.1 3.9 2.6 7.5 3.1 8.6 3.2.9 4.1 1.6 9.9 2.5 16.7.2 1.5.4 3.1.6 4.7-.1.2-.4 1-2 4.1-1 1.8-2.5 2.3-3.9 2.3-1.3 0-2.3-.4-2.8-.6m-16-48.7c-.4 1.7.5 3.6 2.7 5.7 2.3 2.2 3.3 4.1 4.2 5.9.9 1.7 1.7 3.3 3.6 5 .6.5 1.2 1 1.8 1.4-1.1 1.8-6.6 11.2-9.1 16.2-.1.3-.3.5-.4.8-1 1.9-1.9 3.7-1.2 5.7.6 1.8 2.3 2.8 4.1 3.7.3.2.7.4 1 .5 3.8 2.1 7.3 3.9 9 4.6.9.4 2 .6 3 .6 1.8 0 3.6-.7 4.7-2.7.5-1 1.1-2 1.5-2.9.3 2.6.7 5.2 1.1 7.9.4 2.8 1.5 4.8 3.1 5.8 1 .6 2.2.7 3.5.7 1.3 0 2.6-.2 3.2-.3 7.1-1.2 13.5-3 15.1-4.4 2.5-2.1 2.1-5.4 1.5-8.3-2.3-10.1-4.7-20.1-6.7-27.4 1.2-.6 5.5-3 6.7-7.9 1-4-1.7-7-2.7-7.9l-.3.3-.3.3c.9.8 3.4 3.6 2.5 7.1-1.1 4.3-4.9 6.6-6.2 7.3-.6-2.1-1.2-4-1.8-5.5-.6-1.6-1.4-2.5-1.8-2.8 0 0-.2.1-.3.2-.2.1-.4.3-.4.3.1.1 1 .8 1.7 2.6C77 79.5 81 97 82.9 105.4c.9 3.8.5 6.1-1.2 7.5-1.5 1.3-7.8 3.1-14.7 4.2-1.2.2-4.4.7-6.2-.3-1.4-.8-2.4-2.7-2.7-5.2-.7-5-1.4-9.9-1.9-14.1-.9-7-1.6-12.9-2.6-17v-.1c-.3-1.4-.6-2.6-1-3.6-.8-2-1.5-3.6-1.5-3.6-.1-.2-.3-.3-.5-.2-.2.1-.3.3-.2.5 0 0 .7 1.5 1.5 3.5.3.8.6 1.8.9 3-1.5-.2-6-1.1-10.3-4.8-1.8-1.5-2.6-3.1-3.4-4.7-.9-1.8-1.9-3.8-4.4-6.1-2-1.9-2.8-3.5-2.5-4.9.4-1.6 2.3-2.4 3.1-2.7l-.2-.4c-.1-.2-.2-.3-.2-.3-1 .5-3.1 1.4-3.5 3.3"/></defs><clipPath id="bg"><use xlink:href="#bf" overflow="visible"/></clipPath><linearGradient id="bh" gradientUnits="userSpaceOnUse" x1="-359.72" y1="387.53" x2="-359.152" y2="387.53" gradientTransform="matrix(93.126 0 0 -93.126 33530.563 36176.316)"><stop offset="0" stop-color="#0068a6"/><stop offset=".012" stop-color="#0068a6"/><stop offset=".479" stop-color="#006aa7"/><stop offset=".703" stop-color="#006eac"/><stop offset=".873" stop-color="#0074b5"/><stop offset="1" stop-color="#007dc1"/></linearGradient><path clip-path="url(#bg)" fill="url(#bh)" d="M30.9 56.2h53.8v62.1H30.9z"/></g><g><defs><path id="bi" d="M22.1 53h21.5v36.1H22.1z"/></defs><clipPath id="bj"><use xlink:href="#bi" overflow="visible"/></clipPath><path clip-path="url(#bj)" fill="#E7E7E6" d="M39.4 73.3c2.2 4.2-1.7 7.5-3.1 8.1-.1 0-.3.1-.3.1s.5 2.9 1.3 7.6c0 0 2.4-4.9 3.1-6 2.8-4.4 3.2-5.7 3.2-5.7s0-1.1-2.3-2.8c-1.6-1.2-2.1-3.8-3.9-6.3-.5-.7-1.8-2.3-2.6-3.1-.4-.4-.7-.6-.7-.6s-5.6-3.3-7.5-5.1c-2.8-2.6-4.5-6.3-4.5-6.3l1.8 6s1.2 3.8 4.1 7.9c5.1 7.1 10.9 5.1 11.4 6.2"/><g><defs><path id="bk" d="M36.5 103h29.9v63.5H36.5z"/></defs><clipPath id="bl"><use xlink:href="#bk" overflow="visible"/></clipPath><path clip-path="url(#bl)" fill="#E7E7E6" d="M50.6 118.4s-.2-4.1-.1-5.7c.4-4.6 4.8.9 4.8.9s.6 3.3 3.8 4.6c3.4 1.4 7.3-.1 7.3-.1s-3.5.6-5.6-1.3c-2-1.8-3.1-5-3.1-5l-1.5-8.9s-2.7 5.1-3.3 5.4c-1.4.8-2.5 1.5-4.7.8-1-.3-9.1-5.5-8.9-3.7.4 3.8 1 11.3.9 12.9-.3 3.2-3.9 20.9-3.7 26.2.1 3.1.1 6.2.4 10.7.4 5 .7 9 .7 9l6.3 2.3s-4.9-10.8-3.6-22.4c.4-3.7 1-6 1.4-7.8 1.8-6.9 3.4-12.8 3.4-12.8s3.2-1.2 5.4-.5c4.5 1.4 8 4.3 8 4.3s-1-2.2-2.5-4.4c-2.2-3.1-5.4-4.5-5.4-4.5"/></g></g></svg>