<svg xmlns="http://www.w3.org/2000/svg" viewBox="0 0 300 200"><g fill-rule="evenodd" clip-rule="evenodd"><path fill="#034EA2" d="M300 0v200H0V0h300z"/><path fill="#FFF" d="M300 0v22.4l-66.1 44.3H300v66.6h-66l66 44.2V200h-33.4L175 138.6V200h-50v-61.3L33.4 200H0v-22.4l66.1-44.3H0V66.7h67.1L0 21.8V.1h33.4L125 61.5V0h50v61.4L266.6 0H300z"/><path fill="#ED1C24" d="M200.5 133.3L300 200v-14.9l-77.3-51.8h-22.2zM300 0l-99.5 66.7h-22.3L277.7 0H300zM99.4 66.7L0 .1V15l77.2 51.7h22.2zM0 200l99.5-66.7h22.3L22.3 200H0z"/><path fill="#ED1C24" d="M165 200h-30v-80H0V80h135V0h30v80h135v40H165v80z"/></g></svg>