<svg xmlns="http://www.w3.org/2000/svg" viewBox="0 0 167 161"><path fill="#FFF" d="M3.7 105.3l.7-.9 3.6-3.9h3l-4.6 4.8 4.9 7.4H8.2c-.6-1-1.2-1.9-1.8-2.8-.6-.9-1.2-1.9-1.8-2.8l-1.1 1.1v4.6H1v-12.2h2.6v4.8h.1zM21.8 104.1c0 .3 0 .7-.1 1-.1.3-.2.6-.4.9-.2.3-.4.5-.6.7-.3.2-.6.4-.9.5.5.2.9.4 1.1.8.2.4.4.8.5 1.3l1 3.4h-2.6c-.2-.5-.3-1.1-.5-1.6-.1-.5-.3-1.1-.5-1.6-.2-.7-.4-1.1-.8-1.4-.3-.2-.7-.4-1.2-.4h-1.3v4.9H13v-12.2h4.9c.7 0 1.3.1 1.8.3.5.2.9.4 1.2.8.3.3.6.7.7 1.1.1.6.2 1 .2 1.5m-4.4 2c.2 0 .4 0 .6-.1l.6-.3c.2-.1.3-.3.4-.6.1-.2.2-.5.2-.9 0-.6-.2-1.1-.5-1.3-.3-.3-.8-.4-1.3-.4h-1.8v3.6h1.8zM32.1 112.8l-.8-2.8h-4.4l-.9 2.8h-2.6l4.1-12.2h3.3l4 12.2h-2.7zm-2.2-7.8l-.7-2.6h-.1l-.7 2.7-.9 3.1h3.3l-.9-3.2zM40.4 100.3c.6 0 1.2.1 1.9.2s1.3.3 1.9.7l-.7 1.8c-.6-.3-1.2-.4-1.7-.5-.6-.1-1.1-.1-1.5-.1-.5 0-1 .1-1.3.4-.3.3-.5.7-.5 1.2 0 .2.1.4.2.6.1.2.3.3.5.4.2.1.5.2.8.3.3.1.6.2.9.2.4.1.8.2 1.3.4.5.1.9.4 1.3.6.4.3.7.6 1 1.1.3.5.4 1 .4 1.8 0 1.2-.4 2.1-1.3 2.7-.8.6-2.1 1-3.8 1-.3 0-.6 0-1-.1-.4 0-.7-.1-1.1-.2l-1.2-.3c-.4-.1-.8-.3-1.1-.5l.7-1.8c.8.3 1.6.6 2.3.7.7.1 1.2.1 1.6.1.7 0 1.3-.1 1.6-.4.4-.2.6-.7.6-1.3 0-.3-.1-.5-.1-.6-.1-.2-.2-.3-.4-.4l-.6-.3c-.2-.1-.5-.2-.8-.3-.6-.2-1.2-.3-1.7-.5s-1-.4-1.4-.6c-.4-.3-.7-.6-1-1-.2-.4-.4-.9-.4-1.5 0-1.1.4-2 1.1-2.7.9-.7 2-1.1 3.5-1.1M55 109v-8.4h2.5v12.2h-2.6l-4.1-6.6c-.2-.3-.4-.7-.6-1-.2-.3-.4-.7-.6-1v8.6H47v-12.2h2.6c.6 1 1.3 2 1.9 3l1.8 3 1.5 2.5h.2zM70.8 106.7c0 .9-.1 1.7-.3 2.5-.2.8-.6 1.4-1.1 2-.5.6-1 1-1.7 1.3-.7.3-1.5.5-2.4.5-1 0-1.8-.1-2.5-.5-.7-.3-1.3-.7-1.8-1.3-.5-.6-.8-1.2-1-2-.2-.8-.3-1.6-.3-2.5 0-.9.1-1.7.3-2.5.2-.8.6-1.4 1-2 .5-.6 1-1 1.8-1.4.7-.3 1.6-.5 2.6-.5s1.9.2 2.6.5c.7.3 1.3.8 1.7 1.4.4.6.8 1.2 1 2 0 .8.1 1.6.1 2.5m-2.7 0c0-.6 0-1.1-.1-1.6s-.2-1-.4-1.4c-.2-.4-.5-.8-.9-1-.4-.3-.8-.4-1.4-.4-.6 0-1.1.1-1.5.4-.4.3-.7.6-.9 1-.2.4-.4.9-.5 1.4-.1.5-.1 1.1-.1 1.7 0 1.4.2 2.5.7 3.2.4.7 1.2 1.1 2.3 1.1.5 0 .9-.1 1.3-.3.4-.2.7-.5.9-.9.2-.4.4-.9.5-1.4 0-.6.1-1.2.1-1.8M75 108.4l-3.9-7.8h2.7c.2.5.5 1.1.8 1.6.3.5.5 1 .7 1.6l1.1 2.4h.1c.2-.4.4-.8.6-1.3.2-.5.4-.9.6-1.3l1.5-3h2.6c-.7 1.2-1.3 2.5-2 3.8-.7 1.3-1.3 2.5-2 3.8v4.7H75v-4.5zM89.9 112.8l-.8-2.8h-4.4l-.9 2.8h-2.6l4.1-12.2h3.3l4 12.2h-2.7zm-2.3-7.8l-.7-2.6h-.1l-.7 2.7-.9 3.1h3.3l-.9-3.2zM103 104.1c0 .3 0 .7-.1 1-.1.3-.2.6-.4.9-.2.3-.4.5-.6.7-.3.2-.6.4-.9.5.5.2.9.4 1.1.8.2.4.4.8.5 1.3l1 3.4H101c-.2-.5-.3-1.1-.5-1.6s-.3-1.1-.5-1.6c-.2-.7-.5-1.1-.8-1.4-.3-.2-.7-.4-1.2-.4h-1.3v4.9h-2.6v-12.2H99c.7 0 1.3.1 1.8.3.5.2.9.4 1.2.8.3.3.6.7.7 1.1.2.6.3 1 .3 1.5m-4.4 2c.2 0 .4 0 .6-.1l.6-.3c.2-.1.3-.3.4-.6.1-.2.2-.5.2-.9 0-.6-.2-1.1-.5-1.3-.3-.3-.8-.4-1.3-.4h-1.8v3.6h1.8zM109.7 100.3c.6 0 1.2.1 1.9.2s1.3.3 1.9.7l-.7 1.8c-.6-.3-1.2-.4-1.7-.5-.6-.1-1.1-.1-1.5-.1-.5 0-1 .1-1.3.4-.3.3-.5.7-.5 1.2 0 .2.1.4.2.6.1.2.3.3.5.4.2.1.5.2.8.3.3.1.6.2.9.2.4.1.8.2 1.3.4.5.1.9.4 1.3.6.4.3.7.6 1 1.1.3.5.4 1 .4 1.8 0 1.2-.4 2.1-1.3 2.7-.8.6-2.1 1-3.8 1-.3 0-.6 0-1-.1-.4 0-.7-.1-1.1-.2l-1.2-.3c-.4-.1-.8-.3-1.1-.5l.7-1.8c.9.3 1.6.6 2.3.7.7.1 1.2.1 1.6.1.7 0 1.3-.1 1.6-.4.4-.2.5-.7.5-1.3 0-.3 0-.5-.1-.6-.1-.2-.2-.3-.4-.4l-.6-.3c-.2-.1-.5-.2-.8-.3-.6-.2-1.2-.3-1.7-.5s-1-.4-1.4-.6c-.4-.3-.7-.6-1-1-.2-.4-.4-.9-.4-1.5 0-1.1.4-2 1.2-2.7.8-.7 2-1.1 3.5-1.1M118.8 105.3l.7-.9 3.6-3.9h3l-4.6 4.8 4.9 7.4h-3.1c-.6-1-1.2-1.9-1.8-2.8-.6-.9-1.2-1.9-1.8-2.8l-1.1 1.1v4.6H116v-12.2h2.6v4.8h.2zM134.2 111h5v1.8h-8.5v-1.6c.3-.3.7-.6 1.1-1 .4-.4.8-.7 1.2-1.1l1.2-1.2c.4-.4.7-.8 1-1.2.3-.4.5-.8.7-1.2.2-.4.3-.8.3-1.1 0-.5-.2-1-.5-1.2-.3-.3-.8-.4-1.4-.4-.3 0-.7.1-1.2.2s-1.1.3-1.7.7l-.8-1.5c.7-.5 1.5-.9 2.2-1.1.7-.2 1.4-.3 2-.3 1.2 0 2.2.3 2.9.9.7.6 1.1 1.5 1.1 2.6 0 .6-.2 1.3-.5 1.9-.3.6-.7 1.2-1.1 1.8-.5.6-.9 1.1-1.5 1.6-.5.5-1 .9-1.5 1.3v.1zM149.6 106.9c0 .8-.1 1.5-.2 2.3-.2.7-.4 1.4-.8 1.9-.4.6-.9 1-1.4 1.3-.6.3-1.3.5-2.2.5-.9 0-1.7-.2-2.3-.5-.6-.3-1.1-.8-1.5-1.3-.4-.5-.6-1.2-.8-1.9-.1-.7-.2-1.5-.2-2.3 0-.7.1-1.5.2-2.2.1-.7.4-1.4.8-2 .4-.6.8-1.1 1.5-1.4.6-.4 1.4-.5 2.3-.5.9 0 1.7.2 2.3.6.6.4 1.1.8 1.4 1.4.3.6.6 1.2.7 2 .2.6.2 1.4.2 2.1m-2.5 0c0-.5 0-.9-.1-1.4 0-.5-.1-1-.3-1.4-.1-.4-.4-.8-.7-1-.3-.3-.7-.4-1.2-.4s-.9.1-1.2.4c-.3.3-.5.6-.7 1-.2.4-.3.9-.3 1.4 0 .5-.1 1-.1 1.4 0 .6 0 1.1.1 1.6s.2.9.3 1.3c.2.4.4.7.7.9.3.2.7.3 1.1.3.4 0 .8-.1 1.1-.3.3-.2.5-.5.7-.9.2-.4.3-.8.3-1.3.3-.5.3-1 .3-1.6M153 103.2l-2.5.2v-1.7l2.7-.8h2.2v11.9H153zM163.8 107.8c-.9.5-1.7.7-2.6.7-.5 0-1-.1-1.4-.2-.4-.1-.8-.4-1.1-.7-.3-.3-.6-.7-.8-1.2-.2-.5-.3-1-.3-1.7 0-.6.1-1.2.3-1.7.2-.5.5-.9.9-1.3.4-.3.8-.6 1.4-.8.5-.2 1.1-.3 1.7-.3.8 0 1.5.1 2.1.4.6.3 1 .7 1.4 1.2.3.5.6 1.1.8 1.7.2.7.2 1.4.2 2.2 0 .9-.1 1.8-.3 2.6-.2.8-.5 1.5-.9 2.1-.4.6-.9 1.1-1.6 1.4-.6.3-1.4.5-2.4.5-.6 0-1.2 0-1.7-.1s-.8-.2-1.1-.3l.4-1.8 1.2.3c.4 0 .7.1 1 .1.5 0 .9-.1 1.3-.3.3-.2.6-.5.8-.8.2-.3.4-.7.5-1.1.1-.4.2-.7.2-1v.1zm-3.8-3.1c0 .3 0 .5.1.8l.3.6c.1.2.3.3.5.4.2.1.5.2.9.2.3 0 .6 0 .8-.1.2-.1.4-.1.6-.2.2-.1.3-.2.4-.2.1-.1.2-.1.2-.2v-.3c0-.3 0-.6-.1-1 0-.3-.1-.6-.3-.9-.1-.3-.3-.5-.6-.7-.3-.2-.6-.3-1.1-.3-.6 0-1.1.2-1.4.5-.2.4-.3.8-.3 1.4M13.4 127.2H7.8v-.9c.3-.6.7-1.2 1.1-1.6.4-.4 1-.9 1.7-1.4.3-.2.6-.5.8-.6.2-.2.4-.3.6-.5.2-.2.3-.4.4-.7.1-.2.1-.5.1-.8 0-.5-.2-.9-.5-1.2-.3-.3-.7-.4-1.3-.4-.3 0-.6.1-.8.2-.2.1-.4.3-.6.4-.2.2-.3.4-.4.6-.1.2-.2.4-.2.7l-.9-.2.3-.9c.1-.3.3-.5.5-.8.2-.2.5-.4.9-.5.3-.1.7-.2 1.2-.2.7 0 1.4.2 1.9.6.3.2.5.5.6.7.1.3.2.6.2 1s-.1.7-.2 1c-.1.3-.3.6-.5.8-.2.3-.4.5-.7.7-.3.2-.6.5-1 .8-.6.5-1.2.9-1.5 1.3-.4.4-.7.8-.8 1.2h4.7v.7zM15.9 126c.2.2.4.3.7.4.2.1.5.1.8.1.7 0 1.3-.3 1.8-1 .5-.6.8-1.5.8-2.7-.3.3-.6.6-1 .8-.4.2-.8.3-1.4.3-.3 0-.7-.1-1-.2-.3-.1-.6-.3-.8-.5-.3-.2-.4-.5-.6-.9-.1-.4-.2-.7-.2-1.2s.1-.8.2-1.2c.2-.4.4-.6.6-.9.3-.2.6-.4.9-.5.3-.1.7-.2 1.1-.2.5 0 .9.1 1.3.2s.7.4 1 .7c.3.3.5.7.6 1.3.2.5.2 1.1.2 1.9 0 .7-.1 1.3-.2 1.9-.2.6-.4 1.1-.7 1.6-.3.4-.7.8-1.1 1-.4.2-.9.4-1.5.4-.4 0-.8 0-1.2-.1-.3-.1-.6-.2-.7-.4l.4-.8zm.6-3.4c.4.4.8.6 1.3.6s1-.1 1.4-.4c.4-.3.7-.7.9-1.2 0-.8-.2-1.4-.6-1.8-.4-.4-.9-.7-1.5-.7s-1.1.2-1.4.6c-.4.4-.5.9-.5 1.5-.1.6.1 1.1.4 1.4M23.9 119.4v4.6h-.5v-4.6h-1.5v-.4h3.5v.4zM29.9 119v5h-.6v-2.4h-2.4v2.4h-.6v-5h.6v2.1h2.4V119zM34.8 118.5h.9l1.6 6.9 1.7-6.9h.8l1.8 6.9 1.6-6.9h.9l-2.1 8.7h-.8l-1.8-7.1-1.7 7.1h-.9zM46 118.5h1v8.7h-1zM49.7 127.2v-8.7h1.4l3.8 6.7h.1v-6.7h.8v8.7H55l-4.4-7.8v7.8zM61 119.3v7.9h-1v-7.9h-2.6v-.8h6.2v.8zM70.3 118.5v.8h-4.2v2.9h3v.8h-3v3.3h4.5v.9h-5.5v-8.7zM72.4 127.2v-8.7h2.8c.9 0 1.6.2 2.1.6.5.4.8 1 .8 1.7 0 .6-.2 1.1-.5 1.4-.3.4-.7.6-1.3.8l1.8 4.1h-1l-1.8-3.9h-2v3.9h-.9zm.9-4.8H75c.7 0 1.2-.1 1.5-.4.3-.3.5-.7.5-1.2 0-.6-.2-.9-.5-1.2-.3-.2-.8-.3-1.5-.3h-1.7v3.1zM85.1 118.5v6.1c0 .5.2 1 .5 1.3.4.3.9.5 1.5.5.7 0 1.2-.2 1.5-.5.4-.4.5-.8.5-1.3v-6.1h1v6.1c0 .9-.3 1.5-.8 2-.6.5-1.3.7-2.2.7-.9 0-1.7-.2-2.2-.7-.6-.5-.8-1.2-.8-2v-6.1h1zM92.9 127.2v-8.7h1.3l3.8 6.7h.1v-6.7h.8v8.7h-.7l-4.5-7.8v7.8zM101.8 118.5h1v8.7h-1zM104.5 118.5h.9l2.2 7.1 2.1-7.1h1l-2.7 8.7h-.9zM117.4 118.5v.8h-4.2v2.9h3v.8h-3v3.3h4.5v.9h-5.5v-8.7zM119.5 127.2v-8.7h2.8c.9 0 1.6.2 2.1.6.5.4.8 1 .8 1.7 0 .6-.2 1.1-.5 1.4-.3.4-.7.6-1.3.8l1.8 4.1h-1l-1.8-3.9h-2v3.9h-.9zm1-4.8h1.7c.7 0 1.2-.1 1.5-.4.3-.3.5-.7.5-1.2 0-.6-.2-.9-.5-1.2-.3-.2-.9-.3-1.5-.3h-1.7v3.1zM131.7 120.7c-.1-.4-.3-.8-.7-1.1-.3-.3-.8-.4-1.3-.4s-.9.1-1.2.4c-.3.2-.4.6-.4 1 0 .2.1.4.2.6.1.2.3.3.5.4l.6.3c.2.1.5.2.9.3.4.2.8.3 1.1.4.3.1.6.3.8.5.3.2.5.4.6.7.2.3.2.6.2 1 0 .3 0 .7-.2 1-.1.3-.3.6-.5.8-.2.2-.5.4-.9.6-.4.1-.8.2-1.4.2-.4 0-.8-.1-1.2-.2-.3-.1-.6-.3-.9-.5-.2-.2-.4-.5-.6-.7-.2-.2-.3-.5-.4-.8l.9-.3c.2.5.5.9.8 1.3.4.3.8.5 1.4.5.6 0 1.1-.1 1.4-.4.3-.3.5-.7.5-1.1 0-.2-.1-.5-.2-.7-.1-.2-.3-.4-.5-.5-.2-.1-.4-.3-.7-.4-.2-.1-.5-.2-.9-.4s-.8-.3-1.1-.4c-.3-.1-.5-.3-.8-.5l-.6-.6c-.1-.3-.2-.6-.2-.9 0-.3.1-.6.2-.9.1-.3.3-.5.5-.7.2-.2.5-.4.8-.5.3-.1.7-.2 1.1-.2.7 0 1.3.2 1.8.5.5.4.9.9 1.1 1.6l-.7.1zM135.2 118.5h1v8.7h-1zM138 127.2l2.7-8.7h1.4l2.7 8.7h-1l-.8-2.7h-3.1l-.8 2.7H138zm2-3.6h2.6l-1.3-4.5h-.1l-1.2 4.5zM146.2 118.5h2.3c1.2 0 2.2.4 2.9 1.1.7.7 1.1 1.8 1.1 3.2 0 1.3-.3 2.4-1 3.2-.7.8-1.7 1.2-2.9 1.2h-2.3v-8.7zm1 7.8h1.3c2 0 3-1.2 3-3.5 0-1.2-.3-2.1-.8-2.7-.5-.6-1.3-.8-2.2-.8h-1.3v7zM159.6 118.5v.8h-4.3v2.9h3v.8h-3v3.3h4.5v.9h-5.5v-8.7zM51.8 137l2.6 5.4s.1.2.1.3c-.1.1-.4.1-.4.1l-2.8.3s-.3 0-.3.2.3.2.7.2c.4 0 3.1.3 3.1.3s.3 0 .4.3c.1.3.3.6.3.6s.2.2 0 .3c-.2.1-.9.1-.9.1l-5.1.6s-.2 0-.2.1.1.2.3.2c.2 0 3.5.4 3.5.4s.4 0 .5.2c.2.2.5.6.5.6s.2.2.1.2c-.1.1-1.2.1-1.2.1l-5.2.4s-.2 0-.2.1.1.2.3.2c.2 0 7.6.5 7.6.5h.3l.1.1.6.7s.2.1.1.2c0 .1-.2.1-.2.1l-6.3.6s-.2 0-.2.1.2.2.2.2l7.9.6s.3 0 .4.2l.6.6s.1.1.1.2c-.1.1-.5.1-.5.1l-6.1.5s-.2 0-.2.1.1.2.2.2 6.5.6 6.5.6.3 0 .2.2c-.1.3-.2.7-.2.7s0 .2-.4.2c-.4.1-3.6.4-3.6.4s-.2 0-.2.1 0 .2.2.2 3.4.4 3.4.4.3 0 .2.3c0 .3-.7 4.1-.7 4.1s0 .2-.1.2-.4-.2-.4-.2l-6.4-3.9-7.4 4.4s-.3.2-.5 0-.1-.8-.1-.8l1.4-8-6-5.9s-.3-.4.1-.6c.5-.2 8.4-1.2 8.4-1.2l3.8-7.5s.1-.4.4-.3c.6 0 .7.4.7.4"/><path fill="#FFF" d="M67.9 137.1l2.6 5.4s.1.2.1.3c-.1.1-.4.1-.4.1l-2.8.3s-.3 0-.3.2.3.2.7.2c.4 0 3.1.3 3.1.3s.3 0 .4.3c.1.3.3.6.3.6s.2.2 0 .3c-.2.1-.9.1-.9.1l-5.1.6s-.2 0-.2.1.1.2.3.2c.2 0 3.5.4 3.5.4s.4 0 .5.2c.2.2.5.6.5.6s.2.2.1.2c-.1.1-1.2.1-1.2.1l-5.2.4s-.2 0-.2.1.1.2.3.2c.2 0 7.6.5 7.6.5h.3l.1.1.6.6s.2.1.1.2c0 .1-.2.1-.2.1l-6.3.6s-.2 0-.2.1.2.2.2.2l7.9.6s.3 0 .4.2l.6.6s.1.1 0 .2c0 .1-.5.1-.5.1l-6.1.5s-.2 0-.2.1.1.2.2.2 6.5.6 6.5.6.3 0 .2.2c-.1.3-.2.7-.2.7s0 .2-.4.2c-.4.1-3.6.5-3.6.5s-.2 0-.2.1 0 .2.2.2 3.4.4 3.4.4.3 0 .2.3c0 .3-.8 4.1-.8 4.1s0 .2-.1.2-.4-.2-.4-.2l-6.4-3.9-7.4 4.4s-.3.2-.5 0-.1-.8-.1-.8l1.4-8-6.1-5.9s-.3-.4.1-.6c.5-.2 8.4-1.2 8.4-1.2l3.8-7.5s.1-.4.4-.3c.9-.1 1 .4 1 .4"/><path fill="#FFF" d="M84.2 137.1l2.7 5.4s.1.2 0 .3c0 .1-.4.1-.4.1l-2.8.3s-.3 0-.3.2.3.2.7.2c.4 0 3.1.3 3.1.3s.3 0 .4.3c.1.3.3.6.3.6s.2.2 0 .3c-.2.1-.9.1-.9.1l-5.1.6s-.2 0-.2.1.1.2.3.2c.2 0 3.5.4 3.5.4s.4 0 .5.2c.2.2.5.6.5.6s.2.2 0 .2c-.1.1-1.2.1-1.2.1l-5.2.4s-.2 0-.2.1.1.2.3.2c.2 0 7.6.5 7.6.5h.3l.1.1.6.6s.2.1.1.2c0 .1-.2.1-.2.1l-6.3.6s-.2 0-.2.1.2.2.2.2l7.9.6s.3 0 .4.2l.6.6s.1.1.1.2c-.1.1-.5.1-.5.1l-6.1.5s-.2 0-.2.1.1.2.2.2 6.5.6 6.5.6.3 0 .2.2c-.1.3-.2.7-.2.7s0 .2-.4.2c-.4.1-3.6.5-3.6.5s-.2 0-.2.1 0 .2.2.2 3.4.4 3.4.4.3 0 .2.3c-.1.3-.8 4.1-.8 4.1s0 .2-.1.2-.4-.2-.4-.2l-6.4-3.9-7.4 4.4s-.3.2-.5 0-.1-.8-.1-.8l1.4-8-6-5.9s-.3-.4.1-.6c.5-.2 8.4-1.2 8.4-1.2l3.8-7.5s.1-.4.4-.3c.8-.1.9.4.9.4"/><path fill="#FFF" d="M100.3 137l2.6 5.4s.1.2.1.3c-.1.1-.4.1-.4.1l-2.8.3s-.3 0-.3.2.3.2.7.2c.4 0 3.1.3 3.1.3s.3 0 .4.3c.1.3.3.6.3.6s.2.2 0 .3c-.2.1-.9.1-.9.1l-5.1.6s-.2 0-.2.1.1.2.3.2c.2 0 3.5.4 3.5.4s.4 0 .5.2c.2.2.5.6.5.6s.2.2.1.2c-.1.1-1.2.1-1.2.1l-5.2.4s-.2 0-.2.1.1.2.3.2c.2 0 7.6.5 7.6.5h.3l.1.1.6.7s.2.1.1.2c0 .1-.2.1-.2.1l-6.3.6s-.2 0-.2.1.2.2.2.2l7.9.6s.3 0 .4.2l.6.6s.1.1.1.2c-.1.1-.5.1-.5.1l-6.1.5s-.2 0-.2.1.1.2.2.2 6.5.6 6.5.6.3 0 .2.2c-.1.3-.2.7-.2.7s0 .2-.4.2c-.4.1-3.6.4-3.6.4s-.2 0-.2.1 0 .2.2.2 3.5.4 3.5.4.3 0 .2.3c0 .3-.7 4.1-.7 4.1s0 .2-.1.2-.4-.2-.4-.2l-6.4-3.9-7.4 4.4s-.3.2-.5 0-.1-.8-.1-.8l1.4-8-6-5.9s-.3-.4.1-.6c.5-.2 8.4-1.2 8.4-1.2l3.8-7.5s.1-.4.4-.3c.5 0 .6.4.6.4"/><path fill="#FFF" d="M116.5 137l2.6 5.4s.1.2 0 .3c0 .1-.4.1-.4.1l-2.8.3s-.3 0-.3.2.3.2.7.2c.4 0 3 .3 3 .3s.3 0 .5.2c.1.2.3.4.3.4s.2.3 0 .4c-.2.1-1.1.1-1.1.1l-5 .5s-.2 0-.2.1.1.2.3.2c.2 0 12.7.4 12.7.4s1.4.1 1.7 0c.1 0 .2.1.2.1.1.1-.4.5-.4.5s-.4.4-.5.4c-.1.1-1 .1-1 .1l-14.4.6s-.2 0-.2.1.1.2.3.2c.2 0 13.3.6 13.3.6h.3c.1.1 0 .2 0 .2l-.3.3-.2.2c-.1.1-.4.1-.4.1l-10.3.7s-.2 0-.2.1.2.2.2.2l8.4.5s.4 0 .3.1c0 .1-.4.6-.4.6l-.4.4c-.1.1-.5.1-.5.1l-5 .5s-.2 0-.2.1.1.2.2.2 4 .3 4 .3.6.1 1 .1.5.1.5.2c0 .3.1.9.1.9s.1.2-.4.3c-.4.1-2.6.3-2.6.3s-.2 0-.2.1 0 .2.3.2c.1 0-.3 0 3 .3 0 0 .3 0 .3.3s.7 4 .7 4 .1.4-.1.6c-.2.2-.7-.2-.7-.2l-7.2-4.3-7.4 4.5s-.3.2-.5 0-.1-.8-.1-.8l1.4-8-6-5.9s-.3-.4.1-.6c.5-.2 8.4-1.2 8.4-1.2l3.8-7.5s.1-.3.4-.3c.3.3.4.7.4.7M134 24.3L122.8 30l-.1.8 11.7-5.9zM130.8 20.3l-7.4 3.7v.7l7.8-3.9zM125.9 14.2l-1.4.7-.1.8 1.9-1zM129.1 18.3l-5.3 2.7-.1.7 5.8-2.9zM132.4 22.3l-9.3 4.7-.1.8 9.8-5zM135.6 26.4L122.4 33l-.1.8 13.8-6.9zM127.5 16.3l-3.4 1.7v.7l3.8-1.9zM122.3 64.4l-3.7 1.9-.1.7 3.5-1.7zM123.6 60.9l-4.7 2.3-.1.8 4.5-2.2zM124.9 57.4l-5.6 2.8-.1.8 5.4-2.8zM121 67.9l-2.8 1.4-.1.7 2.6-1.2zM119.7 71.4l-1.9.9v.8l1.6-.8zM126.2 53.9l-6.6 3.3-.1.8 6.4-3.3zM130.1 43.4l-9 4.5v.7l8.7-4.4zM132.8 36.4l-11.4 5.7-.1.8 11.1-5.7zM134.1 32.9l-12.4 6.2-.1.7 12.1-6.1zM127.5 50.4l-7.5 3.8-.1.7 7.3-3.7zM131.4 39.9L121 45.1v.7l10.1-5.1zM128.8 46.9l-8.5 4.3-.1.7 8.3-4.2zM135.4 29.4l-13.3 6.7-.1.7 13-6.6zM71.9 34l17.7-4 .1-.7-17.8 4.1zM71.9 41.8l16.2-3.6.1-.7-16.3 3.7zM71.9 39.2l16.7-3.7.1-.7-16.8 3.8zM71.9 44.4l15.7-3.5.1-.7-15.8 3.6zM71.9 36.6l17.2-3.9.1-.6L71.9 36zM71.8 23.6L87.7 20l-.4-.5L71.8 23zM71.8 8l5.9-1.3-.4-.6-5.5 1.3zM71.8 10.6l7.6-1.7-.4-.6-7.2 1.7zM71.8 13.2l9.2-2.1-.4-.5-8.8 2zM71.9 31.4l18.2-4.1.1-.7-18.3 4.2zM71.8 2.8l2.6-.6-.4-.6-2.2.5zM72.7 0l-.4-.6-.5.1v.7zM71.8 5.4l4.3-1-.4-.5-3.9.9zM71.9 28.8l18.7-4.2.1-.6-.1-.1-18.7 4.3zM71.9 26.2l17.4-3.9-.4-.6-17.1 3.9zM71.8 15.8l10.9-2.4-.4-.6-10.5 2.4zM71.8 18.4l12.6-2.8-.4-.6-12.2 2.8zM71.8 21L86 17.8l-.4-.5-13.8 3.1zM41.4 30.1l-5.7 4.3-.2.9 5.9-4.5zM41.2 27l-4.9 3.7-.1.9 5-3.8zM40.5 14.8L38.9 16l-.1.9 1.7-1.3zM41 24l-4 3-.2.9 4.3-3.2zM40.3 11.7l-.7.6-.2 1 1-.8zM40.8 20.9l-3.2 2.4-.1 1 3.4-2.6zM40.7 17.9l-2.4 1.8-.2.9 2.6-2zM43.2 54.9l-.1-.7-12.2 9.2.6.4zM45.9 71.9l.3-.2-.1-.7-.8.6zM41.1 69.2l4.1-3.1-.1-.7-4.6 3.5zM43.5 70.6l2.2-1.7-.1-.7-2.7 2zM38.7 67.9l6-4.6-.1-.7-6.5 4.9zM36.3 66.5l7.9-6-.1-.7-8.4 6.4zM41.5 33.1L35 38l-.1.9 6.7-5zM33.9 65.1l9.8-7.4-.1-.7-10.3 7.8zM41.9 39.2l-8.1 6.2-.2.9 8.3-6.3zM41.7 36.2l-7.3 5.5-.2.9 7.5-5.7zM42 42.3L33.1 49l-.1.9 9.1-6.9zM42.6 51.4L31.2 60l-.2 1 11.7-8.9zM42.4 48.4l-10.6 8-.1.9 10.7-8.2zM42.2 45.3l-9.7 7.4-.2.9 9.9-7.5z"/><path fill="#FFF" d="M96.7 84l24.4-35.4-3.2 24.4zM97.4 50.5V-.3l-7.8 40.9zM121.1 48.6L114.7-.3l10 13.1zM96.4 52.6l-8.1-9.9L72 46.4v.8zM44.9 50.1l3.4 20L65 74.4zM96 84.3l-15 7.3-31.9-18.4zM44.4 48.8L56.2-.3 42.9 10z"/></svg>