<svg xmlns="http://www.w3.org/2000/svg" viewBox="0 0 44.04 59.47"><defs><style>.cls-1{fill:#fff}</style></defs><title>logo-footer</title><g id="Слой_2" data-name="Слой 2"><g id="Слой_1-2" data-name="Слой 1"><path class="cls-1" d="M36.15 49.49l1.1 2.25v.12c0 .04-.16 0-.16 0l-1.16.14s-.12 0-.11.07 0 .21.17.22l1.45.12.26.13s.09.12 0 .15-.45.06-.45.06l-2.07.25h-.08a1.88 1.88 0 0 0 .21.32h6l-.19.21a1.06 1.06 0 0 1-.21.18c-.06 0-6.44.28-6.44.28s-.07 0-.07.06.16.28.23.29 5.51 0 5.55.07 0 .07 0 .07l-.14.14-.07.08a.51.51 0 0 1-.17.06l-4.29.24s-.09 0-.1.06a1.06 1.06 0 0 0 .14.29H39.14l-.18.24-.15.15h-.19l-2.1.2s-.07 0-.07.06.08.27.14.27l1.68.16h.42l.08.46-1.15.07s-.09 0-.09.05.06.27.15.28-.11 0 1.27.15a.13.13 0 0 1 .13.13c0 .14.24 1.47.24 1.47a.27.27 0 0 1-.05.26c-.08.07-.31-.09-.31-.09l-3-1.8-3.09 1.87s-.12.09-.21 0 0-.33 0-.33l.57-3.31-2.52-2.47s-.12-.17 0-.26 3.5-.51 3.5-.51l1.57-3.13s0-.15.17-.13.18.19.18.19M8.16 49.47l1.1 2.25v.12c0 .03-1.33.16-1.33.16s-.12 0-.11.07 0 .23.14.24l1.44.12h.11l.19.28-2.5.29h-.08s.1.23.18.25 1.4.13 1.4.13l.24.36L6.5 54s-.07 0-.07.06.13.28.2.29c.25 0 2.67.07 3 .14a1.78 1.78 0 0 1 .26.3L7.52 55s-.08 0-.09.07.13.26.13.26l3.12.2.26.29-2.42.18h-.07s.06.29.12.29l2.6.24-.1.36-1.46.1h-.08s0 .29.13.3l1.4.16-.21 1.62v.08a1 1 0 0 1-.18-.1L8 57.56 4.88 59.4s-.12.09-.21 0 0-.32 0-.32l.57-3.31-2.56-2.46s-.12-.17 0-.25 3.51-.51 3.51-.51l1.57-3.13s0-.15.17-.13.17.19.17.19"/><path class="cls-1" d="M15.13 49.47l1.1 2.25v.12c0 .03-1.33.16-1.33.16s-.11 0-.11.07 0 .23.14.24l1.44.12h.11l.19.28-2.5.29h-.08s.09.23.17.25 1.4.13 1.4.13l.24.36-2.43.26s-.08 0-.08.06.13.28.2.29c.26 0 2.67.07 3 .14a1.84 1.84 0 0 1 .26.3l-2.36.21s-.08 0-.1.07a1 1 0 0 0 .14.26l3.11.2.26.29-2.41.18h-.07s.06.29.12.29l2.6.24L18 57l-1.47.1h-.08s0 .29.13.3l1.4.16-.21 1.62v.08a.93.93 0 0 1-.18-.1l-2.66-1.64-3.08 1.88s-.12.09-.21 0 0-.32 0-.32l.57-3.31-2.55-2.46s-.12-.17 0-.25 3.51-.51 3.51-.51l1.57-3.13s0-.15.17-.13.18.19.18.19"/><path class="cls-1" d="M22.21 49.47l1.1 2.25v.12c0 .03-1.31.16-1.31.16s-.12 0-.11.07 0 .23.14.24l1.44.12h.11l.19.28-2.51.29h-.08s.1.23.18.25 1.4.13 1.4.13l.24.36-2.44.26s-.07 0-.07.06.13.28.21.29c.25 0 2.67.07 3 .14a1.79 1.79 0 0 1 .27.3l-2.39.21s-.08 0-.1.07a.94.94 0 0 0 .14.26l3.12.2.26.29-2.42.18h-.07s.06.29.11.29l2.6.24-.1.36-1.47.1h-.08s0 .29.13.3l1.41.16-.21 1.62v.08a1.05 1.05 0 0 1-.18-.1L22 57.56l-3.06 1.84s-.12.09-.21 0 0-.32 0-.32l.57-3.31-2.52-2.47s-.11-.17 0-.25 3.51-.51 3.51-.51l1.57-3.13s0-.15.18-.13.17.19.17.19"/><path class="cls-1" d="M29.2 49.47l1.1 2.25v.12c0 .03-1.3.16-1.3.16s-.12 0-.11.07 0 .23.14.24l1.44.12h.11l.19.28-2.53.29h-.08s.1.23.17.25 1.41.13 1.41.13l.24.36-2.43.26s-.08 0-.08.06.13.28.2.29c.26 0 2.67.07 3 .14a1.94 1.94 0 0 1 .26.3l-2.36.21s-.08 0-.09.07.14.26.14.26l3.12.2.26.29-2.43.18h-.07s.06.29.12.29l2.6.24-.1.36-1.47.1h-.08s0 .29.13.3l1.4.16-.21 1.62v.08a1 1 0 0 1-.18-.1L29 57.56l-3.08 1.84s-.12.09-.21 0 0-.32 0-.32l.57-3.31-2.52-2.47s-.12-.17 0-.25 3.51-.51 3.51-.51l1.57-3.13s0-.15.18-.13.17.19.17.19M.87 38.59l.26-.46 1.25-1.54h1.06l-1.62 2 1.71 3H2.46a2 2 0 0 0-.63-1.24c-.21-.32-.33-.78-.54-1.12L1 39.5v2.09H0v-5h1v2zM7.25 38a1.29 1.29 0 0 1 0 .34 1 1 0 0 1-.13.32c-.06.1.1.18 0 .26a.18.18 0 0 0-.08.17H7a.85.85 0 0 0 .14.29c.07.14 0 .54.07.7l.22 1.44h-.9c-.05-1-.11-.61-.16-.79s-.11-.5-.16-.69a.67.67 0 0 0-.27-.43.68.68 0 0 0-.43-.08H5v2H4v-5h1.86a1.73 1.73 0 0 1 .62.21 1.34 1.34 0 0 1 .43.32 1.22 1.22 0 0 1 .25.42 1.63 1.63 0 0 1 .08.51m-1.56.7a.8.8 0 0 0 .22 0 .63.63 0 0 0 .2-.11.56.56 0 0 0 .15-.2.79.79 0 0 0 .06-.31.59.59 0 0 0-.17-.47.7.7 0 0 0-.47-.16H5v1.27zM10.88 41.59l-.3-1H9l-.3 1h-.9l1.44-5h1.14l1.4 5zm-.79-3.1l-.25-.9-.26.93-.31 1.07h1.13zM13.8 36.73a3.54 3.54 0 0 1 .68.07 2.1 2.1 0 0 1 .67.24l-.23.63a2.22 2.22 0 0 0-.62-.17 3.69 3.69 0 0 0-.52 0 .7.7 0 0 0-.46.14.52.52 0 0 0-.17.41.33.33 0 0 0 .07.21.71.71 0 0 0 .19.15 1.35 1.35 0 0 0 .27.1l.32.08.47.14a1.62 1.62 0 0 1 .46.21 1.22 1.22 0 0 1 .35.39 1.2 1.2 0 0 1 .14.62 1.1 1.1 0 0 1-.45.94 2.19 2.19 0 0 1-1.33.33h-.35l-.4-.06-.42-.16a2.93 2.93 0 0 1-.39-.16l.23-.65a3.47 3.47 0 0 0 .81.23 3.63 3.63 0 0 0 .57 0 1 1 0 0 0 .57-.13.48.48 0 0 0 .19-.44.57.57 0 0 0 0-.23.46.46 0 0 0-.14-.16.8.8 0 0 0-.31-.06l-.28-.09-.6-.16a2 2 0 0 1-.5-.23 1.06 1.06 0 0 1-.34-.34 1.09 1.09 0 0 1-.12-.54 1.2 1.2 0 0 1 .4-.95 1.74 1.74 0 0 1 1.2-.36M19 39.59v-3h1v5h-1.1L17.46 39c-.07-.12-.14-.11-.21-.22s-.14-.23-.21-.23v-.5 3.5H16v-5h1.05c.22 1 .44.81.66 1.15s.43.65.65 1l.53.84zM24.49 39a2.92 2.92 0 0 1-.12.88 2 2 0 0 1-.37.7 1.63 1.63 0 0 1-.61.46 2 2 0 0 1-.85.17 2.27 2.27 0 0 1-.9-.16 1.65 1.65 0 0 1-.62-.45 1.8 1.8 0 0 1-.36-.7 3.06 3.06 0 0 1-.12-.9 3.24 3.24 0 0 1 .11-.87 2.13 2.13 0 0 1 .35-.71 1.81 1.81 0 0 1 .62-.48 2.2 2.2 0 0 1 .91-.17 2.12 2.12 0 0 1 .9.18 1.65 1.65 0 0 1 .61.48 1.88 1.88 0 0 1 .34.71 3.11 3.11 0 0 1 .11.86m-1 0a3.93 3.93 0 0 0 0-.58 1.55 1.55 0 0 0-.15-.51.93.93 0 0 0-.3-.36.86.86 0 0 0-.5-.14.92.92 0 0 0-.52.14 1 1 0 0 0-.31.35 1.56 1.56 0 0 0-.16.51 3.38 3.38 0 0 0 0 .6 2.29 2.29 0 0 0 .23 1.13.86.86 0 0 0 .8.39.83.83 0 0 0 .45-.11.84.84 0 0 0 .31-.32 1.49 1.49 0 0 0 .17-.49 3.06 3.06 0 0 0 .06-.61M26 39.57l-1.41-3h1c.09 0 .18.49.27.67s.17.32.26.51l.38.82c.07 0 .13-.19.2-.36s.13-.37.2-.51l.53-1.14h.93a3.56 3.56 0 0 1-.68 1.44c-.23.45-.67 1-.67 1.44v2.13H26zM31.21 41.59l-.29-1h-1.56l-.3 1h-.9l1.44-5h1.14l1.4 5zm-.79-3.1l-.25-.9-.26.93-.31 1.07h1.16zM35.82 38a1.65 1.65 0 0 1 0 .34 1.46 1.46 0 0 1-.13.32 1.65 1.65 0 0 1-.28.26c-.09.07-.37.13-.37.17 0 .06.35.16.43.29a4.84 4.84 0 0 1 .21.7l.32 1.51h-.9c-.05-1-.11-.61-.17-.79s-.1-.5-.16-.69a.67.67 0 0 0-.27-.43.69.69 0 0 0-.43-.08H34v2h-1v-5h1.43a1.81 1.81 0 0 1 .63.21 1.44 1.44 0 0 1 .43.32 1.25 1.25 0 0 1 .25.42 1.49 1.49 0 0 1 .08.51m-1.56.7a.81.81 0 0 0 .22 0 .55.55 0 0 0 .2-.11.47.47 0 0 0 .15-.2.72.72 0 0 0 .07-.31.59.59 0 0 0-.18-.47.67.67 0 0 0-.46-.16h-.64v1.27zM38.17 36.73a3.6 3.6 0 0 1 .67.07 2.09 2.09 0 0 1 .67.24l-.23.63a2.29 2.29 0 0 0-.61-.17 3.85 3.85 0 0 0-.53 0 .68.68 0 0 0-.46.14.5.5 0 0 0-.17.41.32.32 0 0 0 .07.21.69.69 0 0 0 .19.15 1.35 1.35 0 0 0 .27.1l.31.08.47.14a1.55 1.55 0 0 1 .46.21 1.11 1.11 0 0 1 .5 1 1.11 1.11 0 0 1-.45.94 2.18 2.18 0 0 1-1.33.33h-.36l-.4-.06-.4-.15a2.86 2.86 0 0 1-.39-.16l.23-.65a3.4 3.4 0 0 0 .8.23 3.65 3.65 0 0 0 .57 0 1.05 1.05 0 0 0 .57-.13.49.49 0 0 0 .19-.44.52.52 0 0 0 0-.23.59.59 0 0 0-.14-.16 1 1 0 0 0-.22-.11l-.28-.09-.6-.16a2.2 2.2 0 0 1-.5-.23 1 1 0 0 1-.34-.34 1.08 1.08 0 0 1-.13-.54 1.19 1.19 0 0 1 .4-.95 1.75 1.75 0 0 1 1.2-.36M41.38 38.59l.26-.46 1.25-1.54h1.05l-1.61 2 1.71 3H43a2 2 0 0 0-.62-1.24c-.21-.32-.59-.78-.8-1.12l-.58.27v2.09h-1v-5h1v2zM16.12 46.59H18v1h-3v-1c0-.12.14-.25.3-.4s.24-.3.41-.46.29-.32.44-.48a5.9 5.9 0 0 0 .39-.49 3.31 3.31 0 0 0 .28-.49 1.14 1.14 0 0 0 .1-.46.63.63 0 0 0-.21-.51.8.8 0 0 0-.57-.17 2.73 2.73 0 0 0-.51.07 2.5 2.5 0 0 0-.71.28l-.32-.62a2.89 2.89 0 0 1 .92-.44 3.18 3.18 0 0 1 .8-.12 1.77 1.77 0 0 1 1.19.37 1.32 1.32 0 0 1 .49 1.09 1.76 1.76 0 0 1-.19.78 3.52 3.52 0 0 1-.46.73 6.54 6.54 0 0 1-.6.65l-.6.59zM22.47 44.83a4 4 0 0 1-.1.93 2.16 2.16 0 0 1-.32.79 1.61 1.61 0 0 1-.59.56 1.82 1.82 0 0 1-.91.21 2.07 2.07 0 0 1-1-.2 1.66 1.66 0 0 1-.6-.54 2.18 2.18 0 0 1-.31-.79 4.75 4.75 0 0 1 0-1.85 2.54 2.54 0 0 1 .31-.81 1.75 1.75 0 0 1 .6-.58 1.88 1.88 0 0 1 1-.22 1.8 1.8 0 0 1 1 .22 1.7 1.7 0 0 1 .59.59 2.49 2.49 0 0 1 .3.81 5.4 5.4 0 0 1 .08.89m-1 0v-.59a2.38 2.38 0 0 0-.11-.56 1 1 0 0 0-.27-.42.66.66 0 0 0-.48-.17.7.7 0 0 0-.48.16 1.06 1.06 0 0 0-.28.42 2.13 2.13 0 0 0-.12.56 4.67 4.67 0 0 0 0 .6 5.11 5.11 0 0 0 0 .67 1.75 1.75 0 0 0 .14.54.92.92 0 0 0 .28.36.76.76 0 0 0 .47.13.68.68 0 0 0 .33-.14.9.9 0 0 0 .27-.38 1.9 1.9 0 0 0 .14-.54 4.39 4.39 0 0 0 0-.63M24 43.31l-1 .1v-.7l.92-.12H25v5h-1v-4.28zM28.3 45.19a2.11 2.11 0 0 1-1.07.3 2 2 0 0 1-.58-.08 1.26 1.26 0 0 1-.46-.28 1.31 1.31 0 0 1-.32-.47 2 2 0 0 1-.11-.68 1.78 1.78 0 0 1 .13-.7 1.38 1.38 0 0 1 .37-.51 1.45 1.45 0 0 1 .55-.32 2.07 2.07 0 0 1 .7-.11 2 2 0 0 1 .88.17A1.47 1.47 0 0 1 29 43a2.06 2.06 0 0 1 .32.72 4 4 0 0 1 .09.89 4.81 4.81 0 0 1-.11 1.08 2.43 2.43 0 0 1-.37.86 1.79 1.79 0 0 1-.66.58 2 2 0 0 1-1 .21 3 3 0 0 1-.68-.06 2.35 2.35 0 0 1-.45-.12l.18-.72a2.42 2.42 0 0 0 .49.11h.4a1 1 0 0 0 .53-.14 1.18 1.18 0 0 0 .34-.34 1.53 1.53 0 0 0 .2-.43 2.17 2.17 0 0 0 .09-.41zm-1.58-1.25a1.45 1.45 0 0 0 0 .33.71.71 0 0 0 .13.26.53.53 0 0 0 .22.17.91.91 0 0 0 .36.06 1.25 1.25 0 0 0 .33 0l.26-.09.18-.1.1-.06v-.14a2.81 2.81 0 0 0 0-.39 1.2 1.2 0 0 0-.12-.39.81.81 0 0 0-1.27-.19.83.83 0 0 0-.2.58M17.88 14.92L24 13.54l-.08.49-6 1.36zm-.06-12.58L19.4 2l-.3-.4-1.29.29zM18.2.4l-.3-.4h-.09v.48zm-.33 11.27l6.66-1.5.08-.49-6.75 1.52zM18 6.08l3.89-.9-.26-.4-3.63.83zm-.15 3.72l6.35-1.43-.3-.4-6.05 1.37zM18 4.21l2.69-.63-.26-.4-2.43.57zm-.13 9.32l6.34-1.43.08-.48-6.42 1.45zM18 7.94l5.09-1.17-.26-.4L18 7.47zM6.58 9.69l-1.81 1.37.13-.67 1.66-1.25zm-.27-4.93L6 5l-.14.67.52-.4zM6.43 7l-1 .76-.13.66 1.16-.92zm.37 6.57l-3 2.24-.13.67 3.12-2.36zm-2 11.24l2.93-2.22-.12-.59-3.26 2.51zm2.6-4.25L7.28 20l-4.61 3.5.42.25zm-.93 5.27L8 24.59l-.08-.51L6 25.53zm.48-10.07l-3.6 2.73-.13.67 3.76-2.85zm-.24-4.38l-2.34 1.7-.14.67 2.47-1.87zM8.1 26.8l.24-.18-.08-.51-.58.43zM7 17.9l-4.21 3.23-.13.67 4.41-3.35zM38.42 17.91l-3 1.49.06-.54 3.13-1.58zm-.77-12.34l-.65.31v.55l1-.5zM40 8.47l-3.46 1.74-.06.53 3.81-1.92zM38.81 7l-2 1-.06.54 2.35-1.16zm-3 17.79l-1.08.54-.06.54.91-.46zm5.47-14.68l-.17-.22-4.87 2.45-.06.54 5-2.53zm-1.73 4.64l-3.78 1.95-.06.54 3.65-1.84zm-1.88 5L35.27 21l-.06.54 2.27-1.15zm-.93 2.51l-1.74.93-.06.54 1.59-.8zm3.74-10L36 14.53l-.06.54 4.33-2.18zM27 18.68V.15l-2.87 14.91L27 18.68zM26.31 31.45l-5.47 2.65-11.66-6.72 17.13 4.07z"/><path class="cls-1" d="M26.88 30.87l8.94-12.89-1.25 9.06-7.69 3.83zM35.81 17.41L33.56.43l3.57 4.5-1.32 12.48zM26.78 19.43l-3-3.96-6.01 1.33.04.73 8.97 1.9zM7.62 18.16L11.92.21 7.06 3.97l.56 14.19zM7.88 18.83l1.22 7.32 6.09 1.55-7.31-8.87z"/></g></g></svg>