<svg xmlns="http://www.w3.org/2000/svg" viewBox="0 0 47.24 58.37"><defs><style>.cls-1{fill:#fff}</style></defs><title>logo-menu-on-top</title><g id="Слой_2" data-name="Слой 2"><g id="Слой_1-2" data-name="Слой 1"><path class="cls-1" d="M18.6 18.23l7.46-1.68-.1.6-7.36 1.66zm-.07-15.37l1.93-.43-.37-.43-1.57.35zM19 .49L18.63 0h-.11v.59zm-.41 13.77l8.14-1.83.09-.6-8.23 1.86zm0-6.83l4.85-1.09-.44-.49-4.48 1zm0 4.55l7.76-1.75-.35-.49-7.4 1.67zm0-6.83l3.39-.76-.37-.49-3 .68zm.06 11.38l7.75-1.75.1-.59L18.59 16zm0-6.83l6.31-1.43-.37-.49-6.03 1.35zM4.8 11.84l-2.22 1.68.17-.82 2-1.53zm-.33-6L4 6.15 3.87 7l.63-.48zm.14 2.66l-1.23.93-.16.81 1.43-1.08zm.44 8l-3.6 2.76-.16.82L5.1 17.2zM2.57 30.26l3.58-2.71-.15-.62-4 3zm3.18-5.19l-.1-.63L0 28.71l.53.29zM4.62 31.5L6.55 30l-.1-.62-2.35 1.81zm.59-12.3l-4.4 3.34-.16.81 4.6-3.49zm-.3-5.35L2.09 16l-.16.82 3-2.29zm1.75 18.89l.34-.22-.1-.62-.7.53zm-1.3-10.87l-5.2 3.94-.16.83 5.39-4.09zM43.7 21.88l-3.62 1.82.08-.66L44 21.12zM42.75 6.8l-.75.39-.07.67 1.2-.61zm2.86 3.55l-4.23 2.13-.08.65 4.7-2.34zm-1.43-1.78l-2.5 1.26-.08.66L44.53 9zm-3.62 21.74l-1.32.69-.08.66 1.11-.56zm6.68-17.93l-.24-.27-6 3-.08.67 6.13-3.09zm-2.11 5.67l-4.67 2.35-.08.66 4.46-2.25zm-2.29 6.14l-3 1.5-.07.66L42.55 25zm-1.14 3.06l-2.16 1.09-.07.65 1.94-1zM46.27 15l-5.5 2.77-.08.66L46 15.76zM29.96 22.83V.18l-3.51 18.23 3.51 4.42zM28.9 38.42l-6.68 3.24-14.26-8.21 20.94 4.97z"/><path class="cls-1" d="M29.59 37.72l10.93-15.74-1.53 11.05-9.4 4.69zM40.51 21.27L37.75.53l4.37 5.49-1.61 15.25zM29.48 23.74l-3.67-4.83-7.35 1.61.05.9 10.97 2.32zM6.07 22.19L11.32.26 5.38 4.85l.69 17.34zM6.39 23.01l1.48 8.93 7.44 1.9-8.92-10.83zM40.79 46.25L42.13 49s.05.1 0 .14a.57.57 0 0 1-.2 0l-1.44.15s-.14 0-.14.08 0 .26.2.27l1.76.14.31.15s.11.14 0 .18a5 5 0 0 1-.55.07l-2.51.27s-.1 0-.1.05a2.17 2.17 0 0 0 .26.39h7.31c.01 0-.22.25-.22.25a1.33 1.33 0 0 1-.26.22c-.08 0-7.83.33-7.83.33s-.09 0-.09.07.19.34.29.35 6.69 0 6.74.08 0 .09 0 .09l-.17.17-.08.09a.58.58 0 0 1-.2.08L40 53s-.11 0-.11.08.17.35.17.35h4.35l-.22.29s-.16.16-.19.18-.23.06-.23.06l-2.55.24s-.08 0-.08.07.1.32.17.32l2 .2h.51l.09.56-1.4.08s-.1 0-.11.07.07.33.19.34a15.32 15.32 0 0 0 1.54.18.16.16 0 0 1 .16.16c0 .17.29 1.79.29 1.79a.32.32 0 0 1-.07.31c-.09.09-.37-.11-.37-.11L40.56 56l-3.75 2.28s-.15.1-.26 0 0-.4 0-.4l.69-4-3.06-3s-.14-.2.06-.31 4.22-.57 4.22-.57l1.9-3.8s.06-.18.21-.16.22.23.22.23M6.79 46.22L8.12 49s.06.1 0 .14-1.64.19-1.64.19-.14 0-.13.08 0 .28.17.29l1.75.14.13.06.24.34-3 .35s-.1 0-.1.06.12.29.21.3c.27.05 1.71.16 1.71.16l.29.43-3 .19s-.09 0-.09.07.16.34.25.35c.31 0 3.25.09 3.62.17a2.3 2.3 0 0 1 .32.36L6 52.95s-.1 0-.11.08.17.32.17.32l3.78.24.31.35-2.94.27s-.09 0-.09.06.08.35.14.35l3.16.29-.12.43-1.78.12s-.1 0-.1.06 0 .35.16.37l1.71.2-.25 2v.09a1.08 1.08 0 0 1-.25-.18l-3.23-2-3.76 2.29s-.15.1-.26 0 0-.39 0-.39l.69-4-3.07-3s-.15-.2.05-.31S4.45 50 4.45 50l1.91-3.8s.06-.18.21-.16.21.23.21.23"/><path class="cls-1" d="M15.26 46.22L16.6 49s.06.1 0 .14-1.64.19-1.64.19-.14 0-.13.08 0 .28.17.29l1.75.14.13.06.23.34-3 .35s-.1 0-.1.06.12.29.21.3c.27.05 1.71.16 1.71.16l.3.43-3 .19s-.09 0-.09.07.16.34.25.35c.31 0 3.25.09 3.62.17a2.42 2.42 0 0 1 .32.36l-2.85.31s-.1 0-.12.08.17.32.17.32l3.78.24.31.35-2.93.27s-.09 0-.09.06.08.35.15.35l3.16.29-.12.43-1.79.09s-.09 0-.1.06 0 .35.16.37l1.7.2-.25 2v.09a1.12 1.12 0 0 1-.22-.12L15 56l-3.75 2.24s-.14.1-.25 0 0-.39 0-.39l.69-4-3.06-3s-.14-.2.05-.31 4.25-.54 4.25-.54l1.91-3.8s.05-.2.16-.2.21.23.21.23"/><path class="cls-1" d="M23.86 46.22L25.2 49s.05.1 0 .14-1.63.19-1.63.19-.14 0-.13.08 0 .28.17.29l1.75.14.13.06.23.34-3 .35s-.1 0-.1.06.11.29.21.3c.27.05 1.71.16 1.71.16l.29.43-3 .19s-.09 0-.09.07.16.34.25.35c.31 0 3.25.09 3.62.17a2.22 2.22 0 0 1 .32.36l-2.85.31s-.1 0-.12.08.17.32.17.32l3.79.24.31.35-2.94.27s-.09 0-.09.06.07.35.14.35l3.16.29-.11.43-1.78.12s-.1 0-.1.06 0 .35.16.37l1.7.2-.25 2v.09a1.07 1.07 0 0 1-.22-.12l-3.23-2-3.75 2.24s-.14.1-.25 0 0-.39 0-.39l.69-4-3.07-3s-.14-.2.06-.31 4.18-.64 4.18-.64l1.91-3.8s.05-.18.21-.16.21.23.21.23"/><path class="cls-1" d="M32.35 46.22L33.7 49s.05.1 0 .14-1.64.19-1.64.19-.14 0-.13.08 0 .28.17.29l1.75.14.13.06.23.34-3.05.35s-.1 0-.1.06.12.29.21.3c.26.05 1.71.16 1.71.16l.29.43-3 .19s-.09 0-.09.07.16.34.25.35c.31 0 3.25.09 3.62.17a2.53 2.53 0 0 1 .32.36l-2.86.31s-.1 0-.12.08.17.32.17.32l3.79.24.31.35-2.93.27s-.09 0-.09.06.07.35.14.35l3.16.29-.12.43-1.78.12s-.1 0-.1.06 0 .35.16.37l1.71.2-.25 2v.09a1 1 0 0 1-.22-.12l-3.23-2-3.75 2.24s-.14.1-.25 0 0-.39 0-.39l.69-4-3.06-3s-.14-.2.05-.31S30 50 30 50l1.91-3.8s.09-.2.23-.2.21.23.21.23"/></g></g></svg>