<svg id="Layer_1" xmlns="http://www.w3.org/2000/svg" viewBox="0 0 28 28"><style>.Drop_x0020_Shadow,.Outer_x0020_Glow_x0020_5_x0020_pt{fill:none}.Blue_x0020_Neon{fill:none;stroke:#8aacda;stroke-width:7;stroke-linecap:round;stroke-linejoin:round}.Chrome_x0020_Highlight{fill:url(#SVGID_1_);stroke:#fff;stroke-width:.3629;stroke-miterlimit:1}.Jive_GS{fill:#fd0}.Alyssa_GS{fill:#a6d0e4}.st0{fill:#e6007c}</style><linearGradient id="SVGID_1_" gradientUnits="userSpaceOnUse" x2="0" y2="-1"><stop offset="0" stop-color="#656565"/><stop offset=".618" stop-color="#1b1b1b"/><stop offset=".629" stop-color="#545454"/><stop offset=".983" stop-color="#3e3e3e"/></linearGradient><path class="st0" d="M14 28c-4.8 0-9.6-2.5-12.1-7C-2 14.3.3 5.7 7 1.9 13.7-2 22.3.3 26.1 7c1.9 3.2 2.4 7 1.4 10.6-1 3.6-3.3 6.6-6.5 8.5-2.2 1.3-4.6 1.9-7 1.9zM8.7 4.8c-5.1 2.9-6.8 9.5-3.9 14.6s9.5 6.8 14.6 3.9c2.5-1.4 4.2-3.7 5-6.5.7-2.8.4-5.6-1.1-8.1-3-5.1-9.5-6.9-14.6-3.9z"/><path class="st0" d="M19.3 15.7H8.7c-1 0-1.7-.8-1.7-1.7s.7-1.7 1.7-1.7h10.7c.9 0 1.7.7 1.7 1.7s-.8 1.7-1.8 1.7z"/></svg>