<svg xmlns="http://www.w3.org/2000/svg" viewBox="0 0 410 87"><path fill="#5A5D5D" d="M172.6 39.7h-7.9V29.1h-9.2v28.7h9.2V47.6h7.9v10.2h9.2V29.1h-9.2v10.6zm85.6 0h-7.9V29.1h-9.2v28.7h9.2V47.6h7.9v10.2h9.2V29.1h-9.2v10.6zM399 37.5h-4.4v-8.4h-9.2v28.7H399c6 0 10.8-3.3 10.8-9.1v-2c0-5.9-4.9-9.2-10.8-9.2m-1 13.2h-3.5v-6.3h3.1c2.6 0 3.2 1.9 3.2 3.2 0 2.6-2.1 3.1-2.8 3.1m-58.5-3.8h10.4v-6.8h-10.4v-3.5h11.3v-7.5h-20.6v28.7h21.4v-7.5h-12.2v-3.4zm-11.4-17.8h-10L313.3 40H311V29.1h-9.2v28.7h9.2V47.6h2.3l5 10.2h10.6L321 43.3l7.1-14.2zm-127.8-.4h-4.5c-6 0-10.8 4.3-10.8 10.8v8c0 6.6 4.9 10.9 10.8 10.9h4.5c6 0 10.8-4.3 10.8-10.9v-8c0-6.9-4.9-10.8-10.8-10.8m1.6 19.4c0 1.9-1.5 3.5-3.4 3.5h-.8c-1.9 0-3.5-1.6-3.5-3.5v-9.3c0-1.9 1.5-3.5 3.5-3.5h.8c1.9 0 3.4 1.6 3.4 3.5v9.3zm156.6-3.8c0 4.4-1.1 5-2.8 5.8-.7.3-2.7.3-2.7.3v7.5h3.6c7.8 0 10.6-4.5 10.7-14.6v-6.6h5.2v21.2h9.2V29.1h-23.3v15.2zM227.9 29.1h-13.6v28.7h9.2v-7h4.4c6 0 10.8-3.3 10.8-9.1v-3.4c0-5.9-4.8-9.2-10.8-9.2m1.9 11.6c0 1-.5 3.1-3.2 3.1h-3.1v-7.6h3.5c.9 0 2.8.8 2.8 3v1.5zm50.4 3V29.1h-8.7v28.7h8.1l9.5-14.4v14.4h8.7V29.1h-8.1l-9.5 14.6z"/><path fill="#0062A3" d="M43.7 57.5l43 29v-57l-43-29z"/><path fill="#0E82C6" d="M43.7.5C19.9.5.7 19.8.7 43.5s19.2 43 43 43V.5zM86.7 86.5c23.8 0 43-19.3 43-43s-19.2-43-43-43v86z"/></svg>