<svg id="Layer_1" xmlns="http://www.w3.org/2000/svg" viewBox="0 0 28 28"><style>.Drop_x0020_Shadow,.Outer_x0020_Glow_x0020_5_x0020_pt{fill:none}.Blue_x0020_Neon{fill:none;stroke:#8aacda;stroke-width:7;stroke-linecap:round;stroke-linejoin:round}.Chrome_x0020_Highlight{fill:url(#SVGID_1_);stroke:#fff;stroke-width:.3629;stroke-miterlimit:1}.Jive_GS{fill:#fd0}.Alyssa_GS{fill:#a6d0e4}.st0{fill:#e6007c}</style><linearGradient id="SVGID_1_" gradientUnits="userSpaceOnUse" x2="0" y2="-1"><stop offset="0" stop-color="#656565"/><stop offset=".618" stop-color="#1b1b1b"/><stop offset=".629" stop-color="#545454"/><stop offset=".983" stop-color="#3e3e3e"/></linearGradient><path class="st0" d="M26.1 7C22.3.3 13.7-2 7 1.9.3 5.7-2 14.3 1.9 21c2.6 4.5 7.3 7 12.1 7 2.4 0 4.8-.6 7-1.9 3.2-1.9 5.6-4.9 6.5-8.5 1-3.6.5-7.4-1.4-10.6zm-1.8 9.8c-.7 2.8-2.5 5.1-5 6.5-5.1 2.9-11.6 1.2-14.6-3.9-2.9-5.2-1.1-11.7 4-14.6 5.1-2.9 11.6-1.2 14.6 3.9 1.4 2.4 1.7 5.3 1 8.1z"/><path class="st0" d="M19.6 12.6h-3.7V8.9c0-.9-.7-1.7-1.7-1.7s-1.6.8-1.6 1.7v3.7H8.9c-.9 0-1.7.7-1.7 1.7S7.9 16 8.9 16h3.7v3.7c0 .9.7 1.7 1.7 1.7s1.7-.7 1.7-1.7V16h3.7c.9 0 1.7-.7 1.7-1.7s-.9-1.7-1.8-1.7z"/></svg>