<svg xmlns="http://www.w3.org/2000/svg" viewBox="0 0 27 27"><defs><style>.cls-1{fill:none}.cls-2{clip-path:url(#clip-path)}.cls-3{fill:#fff}</style><clipPath id="clip-path"><path class="cls-1" d="M0 0h27v27H0z"/></clipPath></defs><title>search</title><g id="Слой_2" data-name="Слой 2"><g class="cls-2" id="Layer_1" data-name="Layer 1"><path class="cls-3" d="M26.23 22.54l-8.05-8a9.61 9.61 0 0 0 1.3-4.82 9.73 9.73 0 1 0-5 8.49l8.08 8a2.62 2.62 0 1 0 3.71-3.69M1.56 9.7a8.18 8.18 0 1 1 8.18 8.14A8.17 8.17 0 0 1 1.56 9.7m23.57 15.44a1.07 1.07 0 0 1-1.5 0l-7.86-7.83a9.54 9.54 0 0 0 1.51-1.48l7.85 7.82a1.06 1.06 0 0 1 0 1.49"/></g></g></svg>