<svg id="Layer_1" xmlns="http://www.w3.org/2000/svg" viewBox="0 0 66 66"><style>.Drop_x0020_Shadow,.Outer_x0020_Glow_x0020_5_x0020_pt{fill:none}.Blue_x0020_Neon{fill:none;stroke:#8aacda;stroke-width:7;stroke-linecap:round;stroke-linejoin:round}.Chrome_x0020_Highlight{fill:url(#SVGID_1_);stroke:#fff;stroke-width:.3629;stroke-miterlimit:1}.Jive_GS{fill:#fd0}.Alyssa_GS{fill:#a6d0e4}.st0{fill:#fff}.st1{fill:#0090d3}.st2{fill:#b2ddf2}</style><linearGradient id="SVGID_1_" gradientUnits="userSpaceOnUse" x1="29" y1="26" x2="29" y2="25"><stop offset="0" stop-color="#656565"/><stop offset=".618" stop-color="#1b1b1b"/><stop offset=".629" stop-color="#545454"/><stop offset=".983" stop-color="#3e3e3e"/></linearGradient><path class="st0" d="M65.5 61.7c0 2.1-1.7 3.8-3.8 3.8H4.3c-2.1 0-3.8-1.7-3.8-3.8V4.3C.5 2.2 2.2.5 4.3.5h57.5c2.1 0 3.8 1.7 3.8 3.8v57.4z"/><path class="st1" d="M61.7 66H4.3C1.9 66 0 64.1 0 61.7V4.3C0 1.9 1.9 0 4.3 0h57.5C64.1 0 66 1.9 66 4.3v57.5c0 2.3-1.9 4.2-4.3 4.2M4.3 1C2.4 1 1 2.4 1 4.3v57.5C1 63.6 2.4 65 4.3 65h57.5c1.8 0 3.3-1.5 3.3-3.3V4.3C65 2.4 63.6 1 61.7 1H4.3z"/><path class="st1" d="M22.2 16.1c-1.9.3-3.7-.9-4-2.7-.3-1.8 1-3.5 2.9-3.8 1.9-.3 3.7.9 4 2.7.3 1.8-1 3.5-2.9 3.8M37.3 26.4l11.9 13.9.6-1v1.4l.2.8-.6-.2-.8.1.4-.8-11.6-13.2-.2-1.1M23.8 30.5l-5.4 14.3s-.4.6-.2.7c.2.1-.1.5-.1.5l-.5-.2-.4.4.1-.4-.5-.5s.6-.7.9-.7c.3 0 .7-.8.7-.8l4.9-13.2.5-.1zM12 52.9c0-.2.4-.2.6-.1.3.1 1.3.5 1.6.5.3 0 3.4-1.4 3.8-1.6.4-.2 7.3-3.1 8.6-3.4 1.9-.5 5.3-.5 5.3-.5l-.1.9s-3 0-4 .3-12.6 4.6-13.6 4.7c-.8.1-2.2.1-2.2-.8M35.8 47.8l2.8-.1-3 1zM35.7 51.1s2.9 4.2 3.2 4.3c.3.1.9.1.8.3-.1.2-.6.9-1 .9-.5-.1-1.5-.8-2.1-1.5l-3-3.5s1.5.4 2.1-.5M26.9 31.6L23 27.7s-2.3-2.3-2.4-4.9c-.2-2.6.3-4.3 3-5.9 2.7-1.6 6.3-.5 7.5-.1 1.2.5 3.7 1.6 4.2 3.9.6 2.4.1 5.3.1 5.3l-.8.6-1.1-.5-.4-2.8s0-2.2-2.7-2.7-3.5.9-3.7 1.3c-.1.6-.3 1.6 0 2.6s2.2 5.4 2.2 5.4l-2 1.7z"/><path class="st0" d="M26.5 29.9l-2.7-3.2s-1.5-1.9-1.4-4c.2-2.1 1.9-3.5 3.9-3.9 2-.3 3.3-.1 5 .5 0 0-3.4-.7-4.4 2.2-.6 1-.8 1.7-.4 3.3.6 1.5 1.7 3.9 1.7 3.9l-1.7 1.2z"/><path class="st1" d="M26.2 47.4l-1-.4s-2.2-5.3-2.4-6.3c-.2-1.1-.7-3.6 2.1-6.6 2.9-3 6.6-3.3 8-3.2 1.4.1 4.7 1.3 5.3 4.9.6 3.6-.6 6.6-.6 6.6l-3 8.2-2.7-1 .8-7.6s0-3.3-1-4.2c-.9-.6-2.1-1.2-3.8-.4-1.7.8-2.5 2-2.1 4 .3 2 1.3 5.1 1.3 5.1l-.9.9z"/><path class="st0" d="M32.3 47.9l.7-6.2s.4-2.3-.9-3.9c-1.1-1.7-3.7-2.9-5.9-1.4 0 0 2.9-2.8 6.7-2.4 3.9.5 4.5 4.5 3.9 6.8-.6 2.4-2.3 7.7-2.3 7.7l-2.2-.6z"/><path class="st1" d="M22.2 32.5l-.1.5s-1.4-.7-1.8-1.1c-.4-.5-1.1-1.6-3.1-2.2-2-.7-4-.5-4.6-.3-.6.2-4.7 4.7-6.5 5.7-1.8 1-2.7.5-2.7.2 0-.2 2.7-2.7 3.2-3 .5-.3 4.5-3 4.9-3.1.4-.1 1.4-.1 1.4-.1s2.3-.5 3.1-.2c.8.2 2.2.6 2.5.8.3.2 1.7 1.3 2 1.4 0 .2 1.7 1.4 1.7 1.4M36.4 32.1s.8.8 1.2 1.5c.6.3.9.5 1.5.8.6.3.4.6 1.4.7 1 .1 1.8 0 2 .1.2.1 1.8.5 1.8.5l-.8-1.1s-1.6-.3-2.2-.5c-.5-.1-4.9-2-4.9-2M44.6 34.7s1.1.2 1.4.5c.3.3 1.1.6 1.4.7.3.1 1.5 1.2 1.4 1.4-.1.2-1 .1-1.2 0-.3-.1-1.1-.5-1.1-.5l-1.9-2.1zM50.1 38.1s-.7.1-.7 0 1-.5.9-.6c-.1-.2-.9-.2-.8-.3 0-.2.6.1.8-.3.2-.3-.2-.3-.2-.5 0-.1.8-.2.8-.3 0-.1-.6-.4-.6-.5 0-.2.6-.4.6-.4s-.3-.1-.3-.2.5-1 .7-1c.2 0 .2.5.2.5s.7.6.6.7c-.1.1-.6.1-.6.1s.4.7.8.8c-.1.1-.5.2-.7.2.1.2.1.3.2.4.1.1.7.3.7.3H52c-.1 0-.2 0-.1.1s.4.5.6.6c.2.1.2.1.3.1.1 0 .2-.1.2-.1s0 .1-.3.3c-.2.2-.5.3-.6.3-.1 0-.8-.3-1-.3-.2 0-1 .1-1 .1"/><path class="st2" d="M50.8 38.9c-.2-.1.4-.5.4-.5s.5.4.4.4c-.1.1-.6.2-.8.1"/><path class="st1" d="M52.9 38s.3-.4.2-.4c-.1-.1-.3.1-.4.1-.1 0-.3-.2-.3-.2s1-.6 1-.8-1.5-.3-1.5-.3-.1-.2 0-.2.6-.2.6-.3c.1 0 1-.2 1.1-.8.1-.3-.7-.6-.7-.6s-.1 0-.1-.1 1.8-.4 1.9-.6c0-.2.1-.5-.1-.6-.2-.1-1.2-.5-1.2-.7 0-.1 1.5-.9 1.5-.9l-.8-.4s1.4-2 1.7-2c.3 0 .6 1 .8 1.2.1.2 1 .9 1.1 1 .1.2.2.2.2.3-.1.1-1.3.3-1.4.2.3.3.4.5.6.6.2.1.7.5.9.6.2.1.5.2.5.3 0 .1-1.7.4-1.8.4 0 .1.1.4.3.5.2.1 1.2.8 1.3.8h.5c0 .1-.4.2-.6.3-.2.1-.9.1-.9.1-.1.1.1.4.3.6.2.2.4.4.6.5.2.1.6.4.8.4.2 0 .3.1.4 0 .1-.1.3-.2.4-.2 0 0-.4.4-.6.5-.2.1-.8.6-1.2.6-.3 0-1-.2-1.5-.3-.4-.1-.7-.3-1.1-.2-.2.3-2.5.6-2.5.6M55.3 38.7c.1 0 .3.4.4.8.1.3.4.9.4.9h-.8c-.4 0-1-.1-1-.3 0-.1.4-.4.5-.6-.1-.2.2-.8.5-.8"/><path class="st1" d="M56.1 38.9c-.1-.1 1.2-.6 1.3-.6.2 0 .7.1.8.1.1 0 .4-.2.5-.2.1 0 .9-.6 1-.8.1-.1.3-.3.1-.4-.2-.1-.4.3-.8.2-.3-.2-1-.6-1-.6s0-.3-.1-.3c-.1-.1-.5-.2-.5-.3 0-.1.9-.2 1-.2.1 0 .5-.1.5-.3 0-.2.1-.3-.1-.4-.2-.1-1-.4-.9-.6 0-.2 1.3-.6 1.3-.6l-.6-.3s.6-.5.7-.7c.1-.2.5-.8.8-.8.2 0 .3.5.4.7.1.2.4.4.5.5.1.1.2.3.2.3l.3.4s-.6.3-1 .1c.2.3.4.5.6.7.2.2.7.6.7.6s.2 0 .2.1c0 0-.7.2-.8.3-.2.1-.6 0-.6 0s.2.4.3.5c.1.1.8.6 1 .6h.5c0 .1-.5.2-.7.3-.1.1-.5 0-.6 0-.1.1.4.6.6.7.2.1.7.5.9.5.2 0 .6-.2.6-.1s-.5.6-.7.7c-.3.1-.7.3-1 .2-.3-.1-1.4-.5-1.6-.5-.2 0-2.1.4-2.5.4-.6-.2-1.2-.1-1.3-.2M59.5 39.3l.9.8s-1.3.1-1.4-.1c-.1-.2.5-.7.5-.7"/></svg>