<svg xmlns="http://www.w3.org/2000/svg" viewBox="0 0 65.2 65.2"><path fill="#0090D3" d="M65.1 61.3c0 2.1-1.7 3.8-3.8 3.8H3.9c-2.1 0-3.8-1.7-3.8-3.8V3.9C.1 1.8 1.8.1 3.9.1h57.4c2.1 0 3.8 1.7 3.8 3.8v57.4z"/><path fill="#FFF" d="M61.3 65.2H3.9c-2.1 0-3.9-1.7-3.9-3.9V3.9C0 1.7 1.7 0 3.9 0h57.4c2.1 0 3.9 1.7 3.9 3.9v57.4c0 2.2-1.7 3.9-3.9 3.9M3.9.2C1.9.2.2 1.9.2 3.9v57.4c0 2 1.7 3.7 3.7 3.7h57.4c2 0 3.7-1.7 3.7-3.7V3.9c0-2-1.7-3.7-3.7-3.7H3.9z"/><path fill="#FFF" d="M27.7 14.6c-2.1.4-4.1-1-4.4-3-.3-2 1.1-3.9 3.2-4.3 2.1-.4 4.1 1 4.4 3 .4 2-1.1 3.9-3.2 4.3M50.3 13.7c1-.5 1 .4 1.1 2.3.1 1.9-.3 2.6-.6 4.6-.3 2-4.1 20.2-4.1 20.2l-3.2 13.7s-1.6 4.9-3.2 4.7c-1.6-.1 0-1.7.4-2.1.4-.4 1.6-2.8 2.2-4.2.5-1.4 2.6-11.6 2.6-11.6l3.7-17.9s1.4-6.5 1-7.5c-.3-1-.3-1.9.1-2.2M32.3 16l.8.6-1 1s-4.8.4-6.9 1.2c-2.1.8-5.4 3.7-1.8 5.3 0 0 2.6.2 5.6-.6 3-.8 8.1-2.2 8.1-2.2l2.1 1.6-7.1 3.7s-5.4 2.5-9.5 2.9c-4.2.5-8.2-.5-8.8-3-.5-2.4 1.8-6.4 5.8-8.5 4-2 9.2-2.1 12.7-2"/><path fill="#0090D3" d="M34.9 22.1l1.5 1.4-5.5 2.6s-4 1.8-7.4 1.9c-3.3.1-5.3-1.2-5.3-2.8-.1-1.6 1-3.4 2-4.7 0 0-2 3.1 3.2 3.9 0 0 1.3.5 3.8 0s7.7-2.3 7.7-2.3"/><path fill="#FFF" d="M44.8 32.2l-.5 3.6-8 .2s-2.4-.1-4.5 1.8c0 0-.9 1.9 0 4.2.9 2.4 3.4 4 5.7 2.8 2.3-1.2 4.7-2.3 4.7-2.3l1.2 1.1-.2 1.4s-4.6 3.3-5.5 3.7c-.8.4-3.9 1.9-7.7-.9-3.8-2.9-6.3-8.7-5.8-12.2s3.5-7.9 10.9-6.1c7.3 1.9 9.7 2.7 9.7 2.7"/><path fill="#0090D3" d="M42.8 32.7l-.2 2.7-6.7.2s-3 0-4 1.9c-.9 1.2-2.5 4-.2 7.7 0 0-3.6-3.2-4.1-8.1-.5-4.9 3.4-6.8 6.7-6.2 3.3.7 8.5 1.8 8.5 1.8"/></svg>