<svg xmlns="http://www.w3.org/2000/svg" viewBox="0 0 65.2 65.2"><path fill="#0090D3" d="M65.1 61.3c0 2.1-1.7 3.8-3.8 3.8H3.9c-2.1 0-3.8-1.7-3.8-3.8V3.9C.1 1.8 1.8.1 3.9.1h57.4c2.1 0 3.8 1.7 3.8 3.8v57.4z"/><path fill="#FFF" d="M61.3 65.2H3.9c-2.1 0-3.9-1.7-3.9-3.9V3.9C0 1.7 1.7 0 3.9 0h57.4c2.1 0 3.9 1.7 3.9 3.9v57.4c0 2.2-1.7 3.9-3.9 3.9M3.9.2C1.9.2.2 1.9.2 3.9v57.4c0 2 1.7 3.7 3.7 3.7h57.4c2 0 3.7-1.7 3.7-3.7V3.9c0-2-1.7-3.7-3.7-3.7H3.9z"/><path fill="#FFF" d="M24.5 15.8c-2.2.4-4.2-1-4.6-3.1-.4-2.1 1.1-4.1 3.3-4.4 2.2-.4 4.2 1 4.6 3.1.3 2-1.1 4-3.3 4.4M33.4 29.8l.9-.5 14.9 19s.7 1.1 2.5 1c1.8-.1 4.6-.9 5.5-.7.9.2 1.9 1.1 1.4 1.6-.4.6-1.4.9-2.7 1.1-1.3.2-4.2.3-4.9.1-.7-.2-2.1-1.4-2.1-1.9-.1-.5-2-3.4-2-3.4L33.4 29.8zM32 28.7l-6.6-1.8s-8.6-2.2-7.2-6.3c.5-1.1 2.2-1.8 4-1.1 1.7.7 5.8 3.4 8.9 7.5l1.3.3.1-.9s-1.8-2.9-3.9-5.3c-2.1-2.4-7.4-6.7-13.1-4.5-5.7 2.2-3 9.6 2.6 12.2 5.6 2.6 15 2.3 15 2.3L32 28.7z"/><path fill="#FFF" d="M31.1 28.9s-4.3-.8-5.7-1.3c-2.2-.7-4.7-1.8-6.4-4-4.1-4 1.5-5.7 1.5-5.7s-3.1-1.4-5.4.8c-2.3 2.8-.2 6.4 3.4 8.6 4.4 2.9 13.2 2.7 13.2 2.7l-.6-1.1zM9.5 49.8L6 44.2s-1.3-2.4-.6-4.7c.7-2.3 3.6-5.7 7-7.3 3.4-1.6 7-2.1 9.5-1.1s5 4 4.6 7.9c-.4 3.1-1.7 6.6-1.7 6.6l-2.2 6.6-3.7-.7s.2-7.7.2-8.5c0-.8-.2-3.4-1.7-4.7-1-.4-1.8-.8-3.8-.3-2 .5-3.9 2.1-4 3.4-.1 1.3.4 2.7.4 2.7l2 4.8-1 1.1-1.5-.2z"/><path fill="#0090D3" d="M19.3 49.6l.3-7.4s.1-2.5-1.8-3.8c-1.3-1.4-2.9-1.7-4.2-1.7-1.3 0-3.8 1.2-3.8 1.2s3.1-3.1 7.6-3.7c4.5-.6 8.3 2.1 7 7.1-1.2 5-2.2 8.7-2.2 8.7l-2.9-.4z"/><path fill="#FFF" d="M60.5 52.1c.1.3-.5.7-1.3.9-.8.2-1.5.1-1.6-.2-.1-.3.5-.7 1.3-.9.8-.2 1.5-.1 1.6.2"/><path fill="#FFF" d="M57.8 53l.2.6s.7.3 1.7-.1 1-.7 1-.7l-.2-.6s.2.4-1.1.8c-1.2.5-1.6 0-1.6 0"/><path fill="#FFF" d="M57.7 52.9s.1.5.1.6c0 0 0 .1.1.2l-.1-.7s-.1 0-.1-.1M11.8 51.3s-3.2.8-4.3.8c-1 0-1.7-.3-1.9-.7-.2-.4-.2-.1-.2-.1s0 .4.5.7c.5.3 1.5.6 2.1.6.7 0 4.5-1.1 4.5-1.1l-.7-.2zM18.7 53.5s.1 0 .3.1c1 .2 4 .7 5.1.7 1.3 0 2.2-.3 2.4-.7.2-.4.3-.1.3-.1s0 .4-.7.7c-.7.3-1.8.6-2.7.6-.8 0-5.7-1.1-5.7-1.1l1-.2zM19.4 52.3l-.3 1 .5.1v-1z"/><path fill="#FFF" d="M21.9 53v.7l.4.1-.1-.6zM11.1 50.6l.2.5-.3.2-.1-.6zM9.2 50.8l-.2.9h-.4l.2-.6z"/></svg>