<svg id="Layer_1" xmlns="http://www.w3.org/2000/svg" viewBox="0 0 66 66"><style>.Drop_x0020_Shadow,.Outer_x0020_Glow_x0020_5_x0020_pt{fill:none}.Blue_x0020_Neon{fill:none;stroke:#8aacda;stroke-width:7;stroke-linecap:round;stroke-linejoin:round}.Chrome_x0020_Highlight{fill:url(#SVGID_1_);stroke:#fff;stroke-width:.3629;stroke-miterlimit:1}.Jive_GS{fill:#fd0}.Alyssa_GS{fill:#a6d0e4}.st0{fill:#fff}.st1{fill:#0090d3}.st2{fill:none}</style><linearGradient id="SVGID_1_" gradientUnits="userSpaceOnUse" x1="29" y1="26" x2="29" y2="25"><stop offset="0" stop-color="#656565"/><stop offset=".618" stop-color="#1b1b1b"/><stop offset=".629" stop-color="#545454"/><stop offset=".983" stop-color="#3e3e3e"/></linearGradient><path class="st0" d="M65.5 61.7c0 2.1-1.7 3.8-3.8 3.8H4.3c-2.1 0-3.8-1.7-3.8-3.8V4.3C.5 2.2 2.2.5 4.3.5h57.5c2.1 0 3.8 1.7 3.8 3.8v57.4z"/><path class="st1" d="M61.7 66H4.3C1.9 66 0 64.1 0 61.7V4.3C0 1.9 1.9 0 4.3 0h57.5C64.1 0 66 1.9 66 4.3v57.5c0 2.3-1.9 4.2-4.3 4.2M4.3 1C2.4 1 1 2.4 1 4.3v57.5C1 63.6 2.4 65 4.3 65h57.5c1.8 0 3.3-1.5 3.3-3.3V4.3C65 2.4 63.6 1 61.7 1H4.3z"/><path class="st1" d="M16.9 34.6l.2-2.4 5.6 3.2s3.9 2.4 6.1 5.6c2.3 3.2 3.3 6.3 1.4 8.4-1.9 2.1-6.3.8-7.8.1-1.5-.8-4.2-3.5-5.5-5.7-1.3-2.2-1.6-2.8-1.6-2.8l.1-.9 1.1.2s3.2 4.5 5 5.3c1.9.7 3.7-.1 3.2-2.3-.7-1.1-1.4-2.4-2.6-3.6-1.3-1.3-5.2-5.1-5.2-5.1"/><path class="st1" d="M18.4 35.8l.3-1.8s3.4 2.2 4.5 3c1.1.7 6.3 4.8 4.9 9-.9 2.4-4.8 1.6-4.8 1.6s3.3-.1 1.4-4.4c-.3-.9-.7-2-2.5-3.7-1.7-1.8-3.8-3.7-3.8-3.7M15.8 51.8c.6-1.9 2.4-3.1 4.1-2.5 1.7.5 2.6 2.5 2 4.4-.6 1.9-2.4 3.1-4.1 2.5-1.7-.5-2.6-2.4-2-4.4M32.3 22.5l.5.2h2.1c.2-.5.3-.8.3-.8l-2.5-1.4-1.4 2.1h1v-.1zM41.8 26l-1-.5-1.2.7s.2 3.7.3 4.7c.1 1-.2 3.4-2.7 3.9-2.3.5-3.8-.3-4.3-.9-1.1-1.3 0-4.2.3-5.2.2-.7.8-2.3 1.2-3.7h-.2l-1.6 4.5s-1.1 2.8.1 4.2c.6 1.5 1.3 2 2.8 2.5 1.5.5 3-.1 3-.1s-4.5 2.7-8.7.7c-4.2-2-1.1-7.5-1.1-7.5l2.5-4.3h-1.3c-1.2 1.9-2.5 3.9-3 4.8-1 1.9-1.9 5.5-.2 8.1 1.8 2.6 4.9 2.7 6.8 2.6 1.9-.1 6.3-1.7 8.1-4 1.8-2.4 1.2-5 1.2-5l-1-5.5z"/><path class="st1" d="M35.4 31.1c1.4-.5 2.1-3.1 2.6-4.5s3.2-7.9 4-9.6c.8-1.8 3.4-6.5 4-7.8.6-1.3 0-1.6-.6-2.2-.7-.8-1.1-.7-1-.4-.2.5-2 4.7-3.1 7.1-1.2 2.4-3.6 7.4-4.8 9.6-1.1 2.2-2.6 4.1-3.1 5.4-.6 1.3.5 2.9 2 2.4"/><path class="st2" d="M33.2 6.3h13.1v24.9H33.2z"/><path class="st1" d="M56.6 23.6c-.4-.4-.7-1.1-2.1-1.4-1.4-.3-5.8.3-7.6.4-1.8.1-6.9.2-6.9.2s-.2.9-.7 1.8c1.2 0 15.3-.4 16.1-.4.7 0 1.3.4 1.7.4.4 0-.1-.6-.5-1"/><path class="st2" d="M39.3 22.1h17.9v2.4H39.3z"/><path class="st1" d="M26.4 22.6c-2.4-.1-6.8-.4-7.7.9-.9 1.3.6 2.3 2.3 1.7 1.9-.3 4.2-.4 7-.5h1.3c.5-.7.9-1.4 1.3-2-1.6 0-3.2-.1-4.2-.1"/><path class="st2" d="M18.4 22.5h12.1v3H18.4z"/><path class="st1" d="M35.6 24.6l.8-1.8h-1.3c-.2.5-.4 1.1-.6 1.8h1.1"/><path class="st2" d="M34.5 22.8h1.9v1.8h-1.9z"/></svg>