<svg id="Layer_1" xmlns="http://www.w3.org/2000/svg" viewBox="0 0 66 66"><style>.Drop_x0020_Shadow,.Outer_x0020_Glow_x0020_5_x0020_pt{fill:none}.Blue_x0020_Neon{fill:none;stroke:#8aacda;stroke-width:7;stroke-linecap:round;stroke-linejoin:round}.Chrome_x0020_Highlight{fill:url(#SVGID_1_);stroke:#fff;stroke-width:.3629;stroke-miterlimit:1}.Jive_GS{fill:#fd0}.Alyssa_GS{fill:#a6d0e4}.st0{fill:#fff}.st1{fill:#0090d3}</style><linearGradient id="SVGID_1_" gradientUnits="userSpaceOnUse" x1="29" y1="26" x2="29" y2="25"><stop offset="0" stop-color="#656565"/><stop offset=".618" stop-color="#1b1b1b"/><stop offset=".629" stop-color="#545454"/><stop offset=".983" stop-color="#3e3e3e"/></linearGradient><path class="st0" d="M65.5 61.7c0 2.1-1.7 3.8-3.8 3.8H4.3c-2.1 0-3.8-1.7-3.8-3.8V4.3C.5 2.2 2.2.5 4.3.5h57.5c2.1 0 3.8 1.7 3.8 3.8v57.4z"/><path class="st1" d="M61.7 66H4.3C1.9 66 0 64.1 0 61.7V4.3C0 1.9 1.9 0 4.3 0h57.5C64.1 0 66 1.9 66 4.3v57.5c0 2.3-1.9 4.2-4.3 4.2M4.3 1C2.4 1 1 2.4 1 4.3v57.5C1 63.6 2.4 65 4.3 65h57.5c1.8 0 3.3-1.5 3.3-3.3V4.3C65 2.4 63.6 1 61.7 1H4.3z"/><path class="st1" d="M27.4 38.5s.2.5.3.8c.1.2.1.6.1.6l-.7-.2s-.3-1-.4-1.1c0-.2.7-.1.7-.1M26.8 49.4l-.1 1.1h-.1l.1-1.1zM45.5 15.7c-2.4.4-4.6-.8-4.9-2.7-.3-1.9 1.3-3.8 3.7-4.2 2.4-.4 4.6.8 4.9 2.7.4 1.9-1.3 3.8-3.7 4.2M29.5 31.4L35 43.6l4.9 10.8 1.1.6 1.8-.2s1 .7.8 1c-.2.3.6.7.6.7l-6.7.6s-2.4 0-2.7-.6c.7-.1.9-.2.9-.2l-.2-.8 3.1-.6-.2-1.2L29.3 34l.2-2.6zM47.7 47.5s.1-.5.6-.3 1 .9.9 1.7c.5.3 1.7.2 2.7.8 1 .6 1.3 1.7 1.1 2.6-.2.9-2.1 2.3-3.2 2.3s-4 .1-4.7-.4c-.7-.5-1.7-1.4-1.7-2.3 0-.9.7-2.1 1.6-2.5.8-.4 3.3-.5 3.3-.5s.2-1-.2-1.1c-.4 0-.3.2-.4-.3"/><path class="st1" d="M25.4 31.4s-1.3-4.6-1.1-9.9c.2-5.3 4.2-8.7 5.7-9.7 1.4-1 4.8-2.5 7.3-.2 2.4 2.4 3.6 7 2.3 14.3 0 0-.5 2.3-1 3.6-.5 1.3-3.1 7.7-3.1 7.7L33 35.4s.9-7.6 1.1-8.7c.1-1.1.1-4.4-.5-5.8-.7-.8-1.1-1.6-2.6-1.5-1.5.1-4 2.3-3.9 5.8.1 3.5.3 5.6.3 5.6l-1 1.2-1-.6z"/><path class="st0" d="M28.1 18.2s2.4-3.1 5.9-3c3.5.1 5.2 5.5 4.2 10.2 0 0-.6 2.6-1.1 3.9-.4 1.3-1.6 5-1.6 5L33.6 33s.8-5.6.8-7.4c.1-1.8-.3-3.9-.7-4.6-.3-1-1.4-3-2.5-3.4-1.1-.5-2.3.1-3.1.6"/><path class="st1" d="M16.3 54.7h-3.4l.1-11s0-2.9 1.5-6.1c1.5-3.2 4.1-4.5 6.7-4.6 2.5-.1 6.2 1.6 8.4 5 2.3 3.4 3.1 6.1 1.4 9.8 0 0-1.1 1.8-2.5 3.3-1.4 1.5-3.4 3.7-3.4 3.7h-1.3l-.7-1.4 3.4-4.8s1.6-2.2.7-3.9c-.8-1.7-2.9-4.1-5.7-3.2-.9.7-2.3 2-2.8 4.1-.5 1.9-2.4 9.1-2.4 9.1"/><path class="st0" d="M13.9 52.5l.7-9.5s.4-4.3 3-5.5c2.5-1.2 4.6-1.3 7.9 1.2 2.3 2 3.1 3.7 3.1 3.7s-2.8-3.7-6.9-1.2c-2 1-2.7 2.4-3.2 4.4-.5 2-1.8 7.1-1.8 7.1l-2.8-.2z"/></svg>