<svg id="Layer_1" xmlns="http://www.w3.org/2000/svg" viewBox="0 0 66 66"><style>.Drop_x0020_Shadow,.Outer_x0020_Glow_x0020_5_x0020_pt{fill:none}.Blue_x0020_Neon{fill:none;stroke:#8aacda;stroke-width:7;stroke-linecap:round;stroke-linejoin:round}.Chrome_x0020_Highlight{fill:url(#SVGID_1_);stroke:#fff;stroke-width:.3629;stroke-miterlimit:1}.Jive_GS{fill:#fd0}.Alyssa_GS{fill:#a6d0e4}.st0{fill:#fff}.st1{fill:#0090d3}</style><linearGradient id="SVGID_1_" gradientUnits="userSpaceOnUse" x1="29" y1="26" x2="29" y2="25"><stop offset="0" stop-color="#656565"/><stop offset=".618" stop-color="#1b1b1b"/><stop offset=".629" stop-color="#545454"/><stop offset=".983" stop-color="#3e3e3e"/></linearGradient><path class="st0" d="M65.5 61.7c0 2.1-1.7 3.8-3.8 3.8H4.3c-2.1 0-3.8-1.7-3.8-3.8V4.3C.5 2.2 2.2.5 4.3.5h57.5c2.1 0 3.8 1.7 3.8 3.8v57.4z"/><path class="st1" d="M61.7 66H4.3C1.9 66 0 64.1 0 61.7V4.3C0 1.9 1.9 0 4.3 0h57.5C64.1 0 66 1.9 66 4.3v57.5c0 2.3-1.9 4.2-4.3 4.2M4.3 1C2.4 1 1 2.4 1 4.3v57.5C1 63.6 2.4 65 4.3 65h57.5c1.8 0 3.3-1.5 3.3-3.3V4.3C65 2.4 63.6 1 61.7 1H4.3z"/><path class="st1" d="M25.5 16.2c-2.2.4-4.2-1-4.6-3.1C20.5 11 22 9 24.2 8.6c2.2-.4 4.2 1 4.6 3.1.4 2.1-1.1 4.1-3.3 4.5M34.4 30.2l.9-.5 14.9 19s.7 1.1 2.5 1c1.8-.1 4.6-.9 5.5-.7.9.2 1.9 1.1 1.4 1.6-.4.6-1.4.9-2.7 1.1-1.3.2-4.2.3-4.9.1-.6-.2-2-1.4-2-1.8-.1-.5-2-3.4-2-3.4L34.4 30.2zM33 29.1l-6.6-1.9s-8.6-2.2-7.2-6.3c.5-1.1 2.2-1.8 4-1.1 1.7.7 5.8 3.4 8.9 7.5l1.3.3.1-.9s-1.8-2.9-3.9-5.3c-2.1-2.4-7.4-6.7-13.2-4.5-5.7 2.2-3 9.6 2.6 12.2 5.6 2.6 15 2.3 15 2.3l-1-2.3z"/><path class="st1" d="M32.1 29.3s-4.3-.8-5.7-1.3c-2.2-.7-4.7-1.8-6.4-4-4.1-4 1.5-5.7 1.5-5.7s-3.1-1.4-5.4.8c-2.3 2.8-.2 6.4 3.4 8.6 4.4 2.9 13.2 2.7 13.2 2.7l-.6-1.1zM10.6 50.2l-3.5-5.6s-1.3-2.4-.6-4.7c.7-2.3 3.6-5.7 7-7.3 3.4-1.6 7-2.1 9.5-1.1s5 4 4.6 7.9c-.4 3.1-1.7 6.6-1.7 6.6l-2.2 6.7-3.7-.8s.2-7.7.2-8.5c0-.8-.2-3.4-1.7-4.7-1-.4-1.8-.8-3.8-.3-2 .5-3.9 2.1-4 3.4-.1 1.3.4 2.7.4 2.7l2 4.8-1.1 1.1-1.4-.2z"/><path class="st0" d="M20.3 50l.3-7.4s.1-2.5-1.8-3.8c-1.3-1.4-2.9-1.7-4.2-1.7-1.3 0-3.8 1.2-3.8 1.2s3.1-3.1 7.6-3.7c4.5-.6 8.3 2.1 7 7.1-1.2 5-2.2 8.7-2.2 8.7l-2.9-.4z"/><path class="st1" d="M61.5 52.5c.1.3-.5.7-1.3.9-.8.2-1.5.1-1.6-.2-.1-.3.5-.7 1.3-.9.8-.2 1.5-.1 1.6.2"/><path class="st1" d="M58.8 53.4l.2.6s.7.3 1.7-.1 1-.7 1-.7l-.2-.6s.2.4-1.1.8c-1.2.5-1.6 0-1.6 0M58.7 53.3s.1.5.1.6c0 0 0 .1.1.2l-.2-.6c.1-.1 0-.1 0-.2M12.8 51.7s-3.2.8-4.3.8c-1 0-1.7-.3-1.9-.7-.2-.4-.2-.1-.2-.1s0 .4.5.7c.6.3 1.5.6 2.2.6.7 0 4.5-1.1 4.5-1.1l-.8-.2zM19.8 53.9s.1 0 .3.1c1 .2 4 .7 5.1.7 1.3 0 2.2-.3 2.4-.7.2-.4.3-.1.3-.1s0 .4-.7.7c-.7.3-1.8.6-2.7.6-.9 0-5.7-1.1-5.7-1.1l1-.2zM20.4 52.7l-.3 1 .6.1v-1z"/><path class="st1" d="M22.9 53.3v.8l.4.1-.1-.6zM12.2 51l.2.5-.4.2-.1-.6zM10.2 51.2l-.2.9h-.4l.2-.7z"/></svg>