<svg id="Layer_1" xmlns="http://www.w3.org/2000/svg" viewBox="0 0 66 66"><style>.Drop_x0020_Shadow,.Outer_x0020_Glow_x0020_5_x0020_pt{fill:none}.Blue_x0020_Neon{fill:none;stroke:#8aacda;stroke-width:7;stroke-linecap:round;stroke-linejoin:round}.Chrome_x0020_Highlight{fill:url(#SVGID_1_);stroke:#fff;stroke-width:.3629;stroke-miterlimit:1}.Jive_GS{fill:#fd0}.Alyssa_GS{fill:#a6d0e4}.st0{fill:#fff}.st1{fill:#0090d3}</style><linearGradient id="SVGID_1_" gradientUnits="userSpaceOnUse" x1="29" y1="26" x2="29" y2="25"><stop offset="0" stop-color="#656565"/><stop offset=".618" stop-color="#1b1b1b"/><stop offset=".629" stop-color="#545454"/><stop offset=".983" stop-color="#3e3e3e"/></linearGradient><path class="st0" d="M65.5 61.7c0 2.1-1.7 3.8-3.8 3.8H4.3c-2.1 0-3.8-1.7-3.8-3.8V4.3C.5 2.2 2.2.5 4.3.5h57.5c2.1 0 3.8 1.7 3.8 3.8v57.4z"/><path class="st1" d="M61.7 66H4.3C1.9 66 0 64.1 0 61.7V4.3C0 1.9 1.9 0 4.3 0h57.5C64.1 0 66 1.9 66 4.3v57.5c0 2.3-1.9 4.2-4.3 4.2M4.3 1C2.4 1 1 2.4 1 4.3v57.5C1 63.6 2.4 65 4.3 65h57.5c1.8 0 3.3-1.5 3.3-3.3V4.3C65 2.4 63.6 1 61.7 1H4.3z"/><path class="st1" d="M27 15.3l.5 1L26 18s-.9.9-.5 2.2c.4 1.3 2.4 3.3 4.1 3.1.8-.4 1.6-1 2.1-2.2.5-1.2 1.4-3.6 1.4-3.6l2.5.5s.3 4 .2 4.9c-.1.8-.1 3-1.9 4.6-1.7 1.5-4 1.7-6.6.1-2.6-1.6-5.2-5.3-5.2-7.8s2.5-3.8 2.9-4c.4-.2 1-.6 1-.6l1 .1z"/><path class="st0" d="M32.9 18.7l2 .6-.1 3.3s0 2.1-1.6 3.3c-1.5 1.3-3.8.4-5.1-.5-1.2-.9-2.9-2.7-3.5-3.9 0 0 2.1 2.9 4.9 1.9.9-.1 1.8-.7 2.1-1.4.3-.8 1.3-3.3 1.3-3.3"/><path class="st1" d="M35.9 21.4s.8-.8 1.1-1.7c.3-.9 1.4-3.3 1.4-3.3l2.4.5s.3 4.7.2 5.3c0 .6-.3 3.3-2.6 4.7-1.8 1.2-4 .3-4 .3s.6-.4 1.2-2c0 0 .8.2 1.5 0s2.1-.6 2.7-2.8c.4-1.9.3-4.3.3-4.3l-2-.6s-1 2.5-1.3 3.1c-.3.5-.9 1-.9 1v-.2z"/><path class="st1" d="M28.1 16.7s.9-1.1 2.8-1.5 4.1-.5 4.1-.5.2.6.6.5c.4-.1 2.1-.9 2.2-1.3.4-.2 1.9-.3 2.5-.3.5 0 15.9-.2 15.9-.2s1.1-.3 1.2-.4c.1 0 .7.4.7.4v.4l-7.1.1s.3.4-.2.5c-.5.1-13.1 1.6-13.1 1.6s-1-.1-1.4.6c-.4.7-.5 1-.5 1s-.9.2-1.1-.1c-.2-.2-.1-.7-.1-.7s-6.4 2.5-6.7 2.5c-.3 0-.2-.3-.1-.7 0-.3.3-1.6.3-1.9M27.1 11.9c-.1-1.8 1.3-4 4.4-4.2 3.1-.1 4.2 2.1 4.1 3 0 1.3-.6 3.4-4.1 3.9-3.4.5-4.3-1.9-4.4-2.7M27.5 47.7l-1.1 1-1.1-.4-2.2-5.3s-1.1-2.6-.6-5.1c.5-2.5 3.2-6.1 9-7.7 5.8-1.6 8.4 4.1 8.7 5.8.4 2 .1 4.6-1.3 8.5-1.4 3.8-2.9 7.8-2.9 7.8l-3-1.1.9-8.5s.3-3.2-1.1-4.9c-1.1-.8-2.4-1.3-4.5-.4-2.2 1-2.5 3.1-2.1 4.8.3 1.8 1.3 5.5 1.3 5.5"/><path class="st0" d="M26.3 36.3s2.9-2.8 6.9-2.8c3.9 0 6.4 3.4 4.9 8.8-1.4 5.3-2.3 7.7-2.3 7.7l-2.5-.7.8-6.8s.5-2.6-1.2-4.7c-1.6-2.2-4.3-2.8-6.6-1.5"/><path class="st1" d="M37.4 49.1l3.1-.1s-3.1 1-3.4 1l.3-.9M33.6 49.2h2.3l-.2.6zM33 49.2l-.1 1s-3.4.1-4.4.3c-1 .2-11.1 3.9-12.3 4.4-1.2.5-3 1.1-4 1.1-1-.1-2-.6-1.8-1 .1-.4.8-.3 1.3 0 .4.2.8.4 1.3.4s7.2-3.1 8-3.5c.8-.4 6.1-2.4 8.4-2.6 2.4-.2 3.6-.1 3.6-.1M34.7 53.4s.9.3 1.4.1c.5-.2 1-.6 1-.6s3.4 4.8 3.7 4.9c.3.2.8.2.8.4s-.2.8-.6.9c-.4 0-1.7-.2-2.1-.6-.3-.4-4.2-5.1-4.2-5.1"/></svg>