<svg xmlns="http://www.w3.org/2000/svg" viewBox="0 0 65.2 65.2"><path fill="#0090D3" d="M65.1 61.3c0 2.1-1.7 3.8-3.8 3.8H3.9c-2.1 0-3.8-1.7-3.8-3.8V3.9C.1 1.8 1.8.1 3.9.1h57.4c2.1 0 3.8 1.7 3.8 3.8v57.4z"/><path fill="#FFF" d="M61.3 65.2H3.9c-2.1 0-3.9-1.7-3.9-3.9V3.9C0 1.7 1.7 0 3.9 0h57.4c2.1 0 3.9 1.7 3.9 3.9v57.4c0 2.2-1.7 3.9-3.9 3.9M3.9.2C1.9.2.2 1.9.2 3.9v57.4c0 2 1.7 3.7 3.7 3.7h57.4c2 0 3.7-1.7 3.7-3.7V3.9c0-2-1.7-3.7-3.7-3.7H3.9z"/><path fill="#FFF" d="M3 37s8.5 3.6 10.9 4.4c2.4.8 9.4 3.4 10.5 3.7 1.2.3 2.6.1 3.1 1 .6.9.9 2-.6 2-1.4.1-5.5-1.6-6.9-2.2-1.4-.7-7.1-2.9-8.4-3.5-1.3-.7-7.6-4.1-7.6-4.1L3 37zM19.8 41s8 2.5 9 2.7l.1.6 1.4.7 1.1-.3s9.7 2.8 10.5 2.9c.8.1 2.8.1 3.2.7.4.5.4 1.8-.3 2-.7.2-3.1-.7-3.7-.9-.6-.2-9.8-3.5-9.8-3.5L23 42.6l-4-1.4.8-.2zM36.5 13.7s-4.8 1.4-6.5 1.6c-1.6.3-10.6 1.8-10.6 1.8s-.4-.5-.8-.4c-.4.1-.5.6-.5.6l-.3.1.4.3s.3.5.6.5c.3-.1.8-.7.8-.7s5.6-.7 6.6-.9c1-.1 5.8-1.4 5.8-1.4l4.3-1 .2-.5zM56.5 45.5s-2.9-.4-3.8-.7C51.8 44.5 47 43 47 43s.1-.6-.1-.6-.5.3-.5.3h-.2v.3s-.2.5 0 .6c.2.1.8-.3.8-.3s2.9 1.1 3.4 1.4c.5.2 3.4.7 3.4.7l2.5.5.2-.4z"/><path fill="#FFF" d="M19.4 40.1l5.8-7.6s2.7-3.5 6.6-5.1c3.9-1.6 8.2-.7 10.5 1.7 2.3 2.4 2.6 6.4 1.5 8.9s-4.6 4.1-5.5 4.4c-1 .3-7.5 2.1-7.5 2.1l-1.2-.5.2-1.4 5.8-2.2s3.5-1.2 3.1-4c-.4-2.7-3.5-3-3.5-3s-2 .2-3.5 1.1c-1.5.9-3.5 2.4-3.5 2.4l-5.6 4.4-3.2-1.2z"/><path fill="#0090D3" d="M21.5 38.9l5.3-6s3.2-3.4 6.1-3.7c2.9-.3 4.9.6 6.3 2.2 1.3 1.5 2 3.5 1.7 5.3-.5-1.5-1.3-3.5-5.8-3.3-1.2 0-2.8.2-4.7 1.4-1.4 1-2.9 2.3-2.9 2.3l-3.6 3-2.4-1.2z"/><path fill="#FFF" d="M40 12.1s4.9 5.1 7.6 8.7c2.7 3.6 4.9 7 6.1 9.5 1.2 2.5 2 8.6 2.6 9.9.7 1.3 4 4.7 4 4.7l-.5 1.3-1.2.1s-5.1-4.3-6.2-5.9c-1.1-1.6-3.8-7.7-4.3-8.4-.5-.8-4.3-6.3-4.3-6.3s-2-2.6-2.4-3.4-4.4-9-4.4-9l3-1.2z"/><path fill="#0090D3" d="M41 13.6l-2.3 1.1s3.4 5.9 4.1 6.9c.6 1 3.4 4.6 3.8 5.3.4.7 3.3 5.9 3.4 6.1.1.2 2.7 6.1 5.4 7.8-1.4-2.4-1.5-3.7-1.8-5.1-.2-1.5-.2-4-1.3-6.2s-4.3-7-5.5-8.7c-1.1-1.5-5.8-7.2-5.8-7.2"/><path fill="#FFF" d="M58.4 19.6c0 2.2-1.8 3.9-3.9 3.9-2.2 0-3.9-1.8-3.9-3.9 0-2.2 1.8-3.9 3.9-3.9 2.1 0 3.9 1.7 3.9 3.9"/></svg>