<svg id="Layer_1" xmlns="http://www.w3.org/2000/svg" viewBox="0 0 66 66"><style>.Drop_x0020_Shadow,.Outer_x0020_Glow_x0020_5_x0020_pt{fill:none}.Blue_x0020_Neon{fill:none;stroke:#8aacda;stroke-width:7;stroke-linecap:round;stroke-linejoin:round}.Chrome_x0020_Highlight{fill:url(#SVGID_1_);stroke:#fff;stroke-width:.3629;stroke-miterlimit:1}.Jive_GS{fill:#fd0}.Alyssa_GS{fill:#a6d0e4}.st0{fill:#fff}.st1{fill:#0090d3}</style><linearGradient id="SVGID_1_" gradientUnits="userSpaceOnUse" x1="29" y1="26" x2="29" y2="25"><stop offset="0" stop-color="#656565"/><stop offset=".618" stop-color="#1b1b1b"/><stop offset=".629" stop-color="#545454"/><stop offset=".983" stop-color="#3e3e3e"/></linearGradient><path class="st0" d="M65.5 61.7c0 2.1-1.7 3.8-3.8 3.8H4.3c-2.1 0-3.8-1.7-3.8-3.8V4.3C.5 2.2 2.2.5 4.3.5h57.5c2.1 0 3.8 1.7 3.8 3.8v57.4z"/><path class="st1" d="M61.7 66H4.3C1.9 66 0 64.1 0 61.7V4.3C0 1.9 1.9 0 4.3 0h57.5C64.1 0 66 1.9 66 4.3v57.5c0 2.3-1.9 4.2-4.3 4.2M4.3 1C2.4 1 1 2.4 1 4.3v57.5C1 63.6 2.4 65 4.3 65h57.5c1.8 0 3.3-1.5 3.3-3.3V4.3C65 2.4 63.6 1 61.7 1H4.3z"/><path class="st1" d="M46.4 23.3c-1.8.3-3.6-.8-3.9-2.6-.3-1.7.9-3.4 2.8-3.7 1.8-.3 3.6.8 3.9 2.6.3 1.7-1 3.4-2.8 3.7M21.2 43.2c0 6.5 15.5 11.8 34.6 11.8s-33.7 0-33.6-12c.2-12 52.7-11.6 33.6-11.6s-34.6 5.3-34.6 11.8"/><path class="st1" d="M50 35.9c-1.1-1.1-4.2-8-7.3-11.1-3-3.1-6-6.1-11.1-10.3-.9-.7-7.5-5.5-7.5-5.5l-2.4 1.5s7.1 8.4 8.2 9.3c1.1.9 7.5 6.8 8.7 7.9 1.2 1.1 6.2 7.2 7.9 8.8 1.7 1.5 7.8 5.2 7.8 5.2l1.1-.3V40c0 .2-4.2-3-5.4-4.1M12 30.4l-1.5 1.5-5.6 6.2s-.6.5-.2.6c.4 0 .9-.5.9-.5l6.4-6.9s.4-.4.5-.6c0-.3-.5-.3-.5-.3M7.6 43.3l3.2-1.8-.6-.4-1.5.9z"/><path class="st0" d="M24.6 9.6L22.8 11s5 5.2 6.2 6.4c1.2 1.2 7.2 6.4 8.6 7.9 1.4 1.6 6.8 7.8 8.2 8.8 1.3 1.1 2.7 1.7 2.7 1.7s-1.7-1.2-3-3.6c-1.3-2.4-1.6-4.5-3.9-7.2-2.2-2.7-6.3-6.7-9.8-9.5-3.5-2.9-4.4-3.7-4.4-3.7l-2.8-2.2z"/><path class="st1" d="M9 37.9l5.3-7.8s3.8-5 9.1-6.2c5.3-1.2 9.9.7 10.8 4.5.9 3.8-1.4 6.6-5.2 8.1-3.8 1.5-7.5 3-7.5 3l-1.3-.3v-1.1l5.8-2.9s2.7-1.4 2.7-3.2c0-1.8-2.1-2.8-4.3-2.6 0 0-2.5.8-4.2 2.1-1.7 1.3-7.7 6.7-7.7 6.7L9 37.9z"/><path class="st0" d="M11.1 36.5l5-6.3s3.2-3.6 6.4-4c3.3-.4 7.7.1 8.5 5.2 0 0-1.5-3.3-6.5-1.9-2.7.5-4 1.6-5.7 2.9-1.6 1.3-5 4.7-5 4.7l-2.7-.6z"/></svg>