<svg id="Layer_1" xmlns="http://www.w3.org/2000/svg" viewBox="0 0 66 66"><style>.Drop_x0020_Shadow,.Outer_x0020_Glow_x0020_5_x0020_pt{fill:none}.Blue_x0020_Neon{fill:none;stroke:#8aacda;stroke-width:7;stroke-linecap:round;stroke-linejoin:round}.Chrome_x0020_Highlight{fill:url(#SVGID_1_);stroke:#fff;stroke-width:.3629;stroke-miterlimit:1}.Jive_GS{fill:#fd0}.Alyssa_GS{fill:#a6d0e4}.st0{fill:#fff}.st1{fill:#0090d3}</style><linearGradient id="SVGID_1_" gradientUnits="userSpaceOnUse" x1="29" y1="26" x2="29" y2="25"><stop offset="0" stop-color="#656565"/><stop offset=".618" stop-color="#1b1b1b"/><stop offset=".629" stop-color="#545454"/><stop offset=".983" stop-color="#3e3e3e"/></linearGradient><path class="st0" d="M65.5 61.7c0 2.1-1.7 3.8-3.8 3.8H4.3c-2.1 0-3.8-1.7-3.8-3.8V4.3C.5 2.2 2.2.5 4.3.5h57.4c2.1 0 3.8 1.7 3.8 3.8v57.4z"/><path class="st1" d="M61.7 66H4.3C1.9 66 0 64.1 0 61.7V4.3C0 1.9 1.9 0 4.3 0h57.4C64.1 0 66 1.9 66 4.3v57.4c0 2.4-1.9 4.3-4.3 4.3M4.3 1C2.4 1 1 2.4 1 4.3v57.4C1 63.5 2.4 65 4.3 65h57.4c1.8 0 3.3-1.5 3.3-3.3V4.3C65 2.4 63.5 1 61.7 1H4.3z"/><path class="st1" d="M3.9 36.5s8.5 3.6 10.9 4.4c2.4.8 9.4 3.4 10.5 3.7 1.2.3 2.6.1 3.1 1 .6.9.8 2-.6 2-1.4.1-5.5-1.6-6.9-2.2-1.4-.7-7.1-2.9-8.4-3.5-1.2-.7-7.5-4.2-7.5-4.2l-1.1-1.2zM20.7 40.5s8 2.5 9 2.7l.1.6 1.4.7 1.1-.3s9.7 2.9 10.5 2.9c.8.1 2.8.1 3.2.7.4.5.4 1.8-.3 2-.7.2-3.1-.7-3.7-.8-.6-.2-9.8-3.5-9.8-3.5l-8.4-3.3-4-1.4.9-.3zM37.4 13.3s-4.8 1.4-6.5 1.6c-1.6.3-10.6 1.8-10.6 1.8s-.4-.5-.8-.4c-.4.1-.5.6-.5.6l-.2.1.4.3s.3.5.6.5c.3-.1.8-.7.8-.7s5.6-.7 6.6-.9c1-.1 5.8-1.4 5.8-1.4l4.3-1 .1-.5zM57.4 45.1s-2.9-.4-3.8-.7c-.9-.3-5.7-1.8-5.7-1.8s.1-.6-.2-.6c-.2 0-.5.3-.5.3H47v.3s-.2.5 0 .6c.2 0 .8-.3.8-.3s2.9 1.1 3.4 1.4c.5.2 3.4.7 3.4.7l2.5.5.3-.4z"/><path class="st1" d="M20.2 39.7l5.8-7.5s2.7-3.5 6.6-5.1c3.9-1.6 8.2-.7 10.5 1.6 2.3 2.4 2.6 6.4 1.5 8.9S40 41.7 39.1 42c-1 .3-7.5 2.1-7.5 2.1l-1.2-.5.2-1.4 5.8-2.2s3.5-1.2 3.1-4c-.4-2.7-3.5-3-3.5-3s-2 .2-3.5 1.1C31 35 29 36.5 29 36.5l-5.6 4.4-3.2-1.2z"/><path class="st0" d="M22.4 38.5l5.3-6s3.2-3.4 6.1-3.7c2.9-.3 4.9.6 6.3 2.2 1.3 1.5 2 3.5 1.7 5.3-.5-1.5-1.3-3.5-5.8-3.3-1.2 0-2.8.2-4.7 1.4-1.4 1-2.9 2.3-2.9 2.3l-3.6 3-2.4-1.2z"/><path class="st1" d="M40.9 11.6s4.9 5.1 7.6 8.7c2.7 3.6 4.9 7 6.1 9.5 1.2 2.5 2 8.6 2.6 9.9.7 1.3 4 4.7 4 4.7l-.5 1.3-1.2.1s-5.1-4.3-6.2-5.9c-1.1-1.6-3.8-7.7-4.3-8.4-.5-.8-4.3-6.3-4.3-6.3s-2-2.6-2.4-3.4c-.4-.7-4.4-9-4.4-9l3-1.2z"/><path class="st0" d="M41.9 13.2l-2.3 1.1s3.4 5.9 4.1 6.9c.6 1 3.4 4.6 3.8 5.3.4.7 3.3 5.9 3.4 6.1.1.2 2.7 6.1 5.4 7.9-1.4-2.4-1.5-3.7-1.8-5.1-.2-1.5-.2-4-1.3-6.2s-4.3-7-5.5-8.7c-1.2-1.7-5.8-7.3-5.8-7.3"/><path class="st1" d="M59.3 19.2c0 2.2-1.8 3.9-3.9 3.9-2.2 0-3.9-1.8-3.9-3.9 0-2.2 1.8-3.9 3.9-3.9 2.1-.1 3.9 1.7 3.9 3.9"/></svg>