<svg xmlns="http://www.w3.org/2000/svg" xmlns:xlink="http://www.w3.org/1999/xlink" viewBox="0 0 65.2 65.2"><path fill="none" stroke="#333" stroke-width=".02" stroke-miterlimit="10" d="M-543.6-247.2h841.9v595.3h-841.9z"/><path fill="#0090D3" d="M65.1 61.3c0 2.1-1.7 3.8-3.8 3.8H3.9c-2.1 0-3.8-1.7-3.8-3.8V3.9C.1 1.8 1.8.1 3.9.1h57.4c2.1 0 3.8 1.7 3.8 3.8v57.4z"/><path fill="#FFF" d="M61.3 65.2H3.9c-2.1 0-3.9-1.7-3.9-3.9V3.9C0 1.7 1.7 0 3.9 0h57.4c2.1 0 3.9 1.7 3.9 3.9v57.4c0 2.2-1.7 3.9-3.9 3.9M3.9.2C1.9.2.2 1.9.2 3.9v57.4c0 2 1.7 3.7 3.7 3.7h57.4c2 0 3.7-1.7 3.7-3.7V3.9c0-2-1.7-3.7-3.7-3.7H3.9z"/><path fill="#FFF" d="M15.6 34.2l.2-2.4 5.6 3.2s3.9 2.4 6.1 5.6c2.3 3.2 3.3 6.3 1.4 8.4-1.9 2.1-6.3.8-7.8.1-1.5-.8-4.2-3.5-5.5-5.7-1.3-2.2-1.6-2.8-1.6-2.8l.1-.9 1.1.2s3.2 4.5 5 5.3c1.9.7 3.7-.1 3.2-2.3-.7-1.1-1.4-2.4-2.6-3.6-1.3-1.3-5.2-5.1-5.2-5.1"/><path fill="#0090D3" d="M17.1 35.4l.3-1.8s3.4 2.2 4.5 3c1.1.7 6.3 4.8 4.9 9-.9 2.4-4.8 1.6-4.8 1.6s3.3-.1 1.4-4.4c-.3-.9-.7-2-2.5-3.7-1.7-1.8-3.8-3.7-3.8-3.7"/><path fill="#FFF" d="M14.5 51.4c.6-1.9 2.4-3.1 4.1-2.5 1.7.5 2.6 2.5 2 4.4-.6 1.9-2.4 3.1-4.1 2.5-1.7-.5-2.6-2.4-2-4.4M30.9 22.1l.5.2h2.1c.2-.5.3-.8.3-.8l-2.5-1.4-1.4 2.1h1v-.1zM40.4 25.6l-1-.5-1.2.7s.2 3.7.3 4.7c.1 1-.2 3.4-2.7 3.9-2.3.5-3.8-.3-4.3-.9-1.1-1.3 0-4.2.3-5.2.2-.7.8-2.3 1.2-3.7h-.2l-1.6 4.5s-1.1 2.8.1 4.2c.6 1.5 1.2 2 2.8 2.5 1.5.5 3-.1 3-.1s-4.5 2.7-8.7.7c-4.2-2-1.1-7.5-1.1-7.5l2.5-4.3h-1.3c-1.2 1.9-2.5 3.9-3 4.8-1 1.9-1.9 5.5-.2 8.1 1.8 2.6 4.9 2.7 6.8 2.6 1.9-.1 6.3-1.7 8.1-4 1.8-2.4 1.2-5 1.2-5l-1-5.5z"/><defs><path id="a" d="M31.8 6h13.1v24.9H31.8z"/></defs><clipPath id="b"><use xlink:href="#a" overflow="visible"/></clipPath><path clip-path="url(#b)" fill="#FFF" d="M34 30.7c1.4-.5 2.1-3.1 2.6-4.5s3.2-7.9 4-9.6c.8-1.8 3.4-6.5 4-7.8.6-1.3 0-1.6-.6-2.2-.7-.8-1.1-.7-1-.4-.2.5-2 4.7-3.1 7.1-1.2 2.4-3.6 7.4-4.8 9.6-1.1 2.2-2.6 4.1-3.1 5.4-.5 1.3.6 2.9 2 2.4"/><defs><path id="c" d="M38 21.7h17.9v2.4H38z"/></defs><clipPath id="d"><use xlink:href="#c" overflow="visible"/></clipPath><path clip-path="url(#d)" fill="#FFF" d="M55.2 23.2c-.4-.4-.6-1.1-2.1-1.4-1.4-.3-5.8.3-7.6.4-1.8.1-7 .2-7 .2s-.2.9-.6 1.8c1.2 0 15.3-.4 16.1-.4.7 0 1.3.4 1.7.4.4 0 0-.6-.5-1"/><g><defs><path id="e" d="M17.1 22.1h12.1v3H17.1z"/></defs><clipPath id="f"><use xlink:href="#e" overflow="visible"/></clipPath><path clip-path="url(#f)" fill="#FFF" d="M25.1 22.2c-2.4-.1-6.8-.4-7.7.9-.9 1.3.6 2.3 2.3 1.7 1.9-.3 4.2-.4 7-.5H28c.5-.7.9-1.4 1.3-2-1.7 0-3.3-.1-4.2-.1"/></g><g><defs><path id="g" d="M33.2 22.4h1.9v1.8h-1.9z"/></defs><clipPath id="h"><use xlink:href="#g" overflow="visible"/></clipPath><path clip-path="url(#h)" fill="#FFF" d="M34.3 24.2l.8-1.8h-1.3c-.2.5-.4 1.1-.6 1.8h1.1"/></g></svg>