<svg xmlns="http://www.w3.org/2000/svg" viewBox="0 0 65.2 65.2"><path fill="none" stroke="#333" stroke-width=".02" stroke-miterlimit="10" d="M-332.5-247.2h841.9v595.3h-841.9z"/><path fill="#0090D3" d="M65.1 61.3c0 2.1-1.7 3.8-3.8 3.8H3.9c-2.1 0-3.8-1.7-3.8-3.8V3.9C.1 1.8 1.8.1 3.9.1h57.4c2.1 0 3.8 1.7 3.8 3.8v57.4z"/><path fill="#FFF" d="M61.3 65.2H3.9c-2.1 0-3.9-1.7-3.9-3.9V3.9C0 1.7 1.7 0 3.9 0h57.4c2.1 0 3.9 1.7 3.9 3.9v57.4c0 2.2-1.7 3.9-3.9 3.9M3.9.2C1.9.2.2 1.9.2 3.9v57.4c0 2 1.7 3.7 3.7 3.7h57.4c2 0 3.7-1.7 3.7-3.7V3.9c0-2-1.7-3.7-3.7-3.7H3.9z"/><path fill="#FFF" d="M46.4 22.9c-1.8.3-3.6-.8-3.9-2.6-.3-1.7.9-3.4 2.8-3.7 1.8-.3 3.6.8 3.9 2.6.3 1.8-1 3.4-2.8 3.7M21.2 42.8c0 6.5 15.5 11.8 34.6 11.8s-33.7 0-33.6-12C22.4 30.7 74.9 31 55.8 31s-34.6 5.3-34.6 11.8"/><path fill="#FFF" d="M50.1 35.6c-1.1-1.1-4.2-8-7.3-11.1-3-3.1-6-6.1-11.1-10.3-.9-.8-7.5-5.6-7.5-5.6l-2.4 1.5s7.1 8.4 8.2 9.3c1.1.9 7.5 6.8 8.7 7.9 1.2 1.1 6.2 7.2 7.9 8.8 1.7 1.5 7.8 5.2 7.8 5.2l1.1-.3v-1.4c-.1.2-4.3-3-5.4-4M12 30l-1.5 1.5-5.6 6.2s-.6.5-.2.6c.4 0 .9-.5.9-.5l6.4-6.9s.4-.4.4-.6c.1-.3-.4-.3-.4-.3M7.6 42.9l3.2-1.8-.6-.4-1.5.9z"/><path fill="#0090D3" d="M24.6 9.2l-1.8 1.4s5 5.2 6.2 6.4c1.2 1.2 7.2 6.4 8.6 7.9 1.4 1.6 6.8 7.8 8.2 8.8 1.3 1.1 2.7 1.7 2.7 1.7s-1.7-1.2-3-3.6c-1.3-2.4-1.6-4.5-3.9-7.2-2.2-2.7-6.3-6.7-9.8-9.5-3.5-2.9-4.4-3.7-4.4-3.7l-2.8-2.2z"/><path fill="#FFF" d="M9 37.5l5.3-7.8s3.8-5 9.1-6.2c5.3-1.2 9.9.7 10.8 4.5.9 3.8-1.4 6.6-5.2 8.1-3.8 1.5-7.5 3-7.5 3l-1.3-.1v-1.1L26 35s2.7-1.4 2.7-3.2c0-1.8-2.1-2.8-4.3-2.6 0 0-2.5.8-4.2 2.1-1.7 1.3-7.7 6.7-7.7 6.7L9 37.5z"/><path fill="#0090D3" d="M11.1 36.1l5-6.3s3.2-3.6 6.4-4c3.3-.4 7.7.1 8.5 5.2 0 0-1.5-3.3-6.5-1.9-2.7.5-4 1.6-5.7 2.9-1.6 1.3-5 4.7-5 4.7l-2.7-.6z"/></svg>