<svg xmlns="http://www.w3.org/2000/svg" viewBox="0 0 65.2 65.2"><path fill="none" stroke="#333" stroke-width=".02" stroke-miterlimit="10" d="M-332.5-324.7h841.9v595.3h-841.9z"/><path fill="#0090D3" d="M65.1 61.4c0 2.1-1.7 3.8-3.8 3.8H3.9c-2.1 0-3.8-1.7-3.8-3.8V3.9C.1 1.8 1.8.1 3.9.1h57.4c2.1 0 3.8 1.7 3.8 3.8v57.5z"/><path fill="#FFF" d="M61.3 65.2H3.9c-2.1 0-3.9-1.7-3.9-3.9V3.9C0 1.8 1.8 0 3.9 0h57.4c2.1 0 3.9 1.7 3.9 3.9v57.4c0 2.2-1.7 3.9-3.9 3.9M3.9.2C1.9.2.2 1.9.2 3.9v57.4c0 2 1.7 3.7 3.7 3.7h57.4c2 0 3.7-1.7 3.7-3.7V3.9c0-2-1.7-3.7-3.7-3.7H3.9z"/><path fill="#FFF" d="M22.4 15.7c-1.9.3-3.7-.9-4-2.7-.3-1.8 1-3.5 2.9-3.8 1.9-.3 3.7.9 4 2.7.3 1.8-1 3.5-2.9 3.8M37.4 26l11.9 13.9.6-.9.1 1.3.1.8-.5-.2-.9.1.4-.7L37.6 27l-.3-1.1M23.9 30.1l-5.4 14.2s-.4.6-.2.7c.2.1-.1.5-.1.5l-.5-.2-.4.4.1-.4-.4-.4s.6-.7.9-.7c.3 0 .7-.8.7-.8l4.9-13.2.4-.1zM12.1 52.6c0-.2.4-.2.6-.1.3.1 1.3.5 1.6.5.3 0 3.4-1.4 3.8-1.6.4-.2 7.2-3.1 8.6-3.4 2-.5 5.3-.5 5.3-.5l-.1.9s-3 0-4 .3-12.6 4.6-13.6 4.7c-.8.1-2.2 0-2.2-.8M36 47.4l2.7-.1-3 1zM35.8 50.7s2.9 4.2 3.2 4.3c.3.1.9.1.8.3-.1.2-.6.9-1 .9-.5-.1-1.5-.8-2.1-1.5l-3-3.5s1.6.4 2.1-.5M27.1 31.2l-3.9-3.9s-2.3-2.3-2.4-4.9c-.2-2.6.3-4.3 3-5.9 2.7-1.6 6.3-.5 7.4-.1 1.2.5 3.7 1.6 4.2 3.9.6 2.4.1 5.3.1 5.3l-.8.6-1.1-.5-.4-2.7s0-2.2-2.7-2.7-3.5.9-3.7 1.3c-.1.6-.3 1.6 0 2.6s2.2 5.4 2.2 5.4l-1.9 1.6z"/><path fill="#0090D3" d="M26.6 29.5l-2.7-3.2s-1.5-1.9-1.4-4c.2-2.1 1.9-3.5 3.9-3.9 2-.3 3.3-.1 5 .5 0 0-3.4-.7-4.4 2.2-.6 1-.8 1.7-.4 3.3.6 1.5 1.7 3.9 1.7 3.9l-1.7 1.2z"/><path fill="#FFF" d="M26.3 47l-1-.4s-2.2-5.3-2.4-6.3c-.2-1.1-.7-3.6 2.1-6.6 2.9-3 6.6-3.3 8-3.2 1.4.1 4.7 1.3 5.3 4.9.6 3.6-.6 6.6-.6 6.6l-3 8.2-2.7-1 .8-7.6s0-3.3-1-4.2c-.9-.6-2.1-1.2-3.8-.4-1.7.8-2.5 2-2.1 4 .3 2 1.3 5.1 1.3 5.1l-.9.9z"/><path fill="#0090D3" d="M32.5 47.6l.7-6.2s.4-2.3-.9-3.9c-1.1-1.7-3.7-2.9-5.9-1.4 0 0 2.9-2.8 6.7-2.4 3.9.5 4.5 4.5 3.9 6.8-.6 2.4-2.3 7.7-2.3 7.7l-2.2-.6z"/><path fill="#FFF" d="M22.4 32.1l-.2.6s-1.4-.7-1.8-1.1c-.4-.5-1.1-1.6-3.1-2.2-2-.7-4-.5-4.6-.3-.6.2-4.7 4.7-6.5 5.7-1.8 1-2.7.5-2.7.2 0-.2 2.7-2.7 3.2-3 .4-.3 4.5-3 4.9-3.1.4-.1 1.4-.1 1.4-.1s2.3-.5 3.1-.2c.8.2 2.2.6 2.5.8.3.2 1.7 1.3 2 1.4.1.1 1.8 1.3 1.8 1.3M36.5 31.8s.8.8 1.2 1.5c.6.3.9.5 1.5.8.6.3.4.6 1.4.7 1 .1 1.8 0 2 .1.2.1 1.8.5 1.8.5l-.8-1.1s-1.6-.3-2.2-.5c-.5-.2-4.9-2-4.9-2M44.7 34.3s1.1.2 1.4.5c.3.3 1.1.6 1.4.7.3.1 1.5 1.2 1.4 1.4-.1.2-.9.1-1.2 0-.3-.1-1.1-.5-1.1-.5l-1.9-2.1zM50.2 37.7s-.7.1-.7 0 1-.5.9-.6c-.1-.2-.9-.1-.8-.3 0-.2.6.1.8-.3.2-.3-.2-.3-.2-.5 0-.1.8-.2.8-.3 0-.1-.6-.4-.6-.5 0-.2.6-.4.6-.4s-.3-.1-.3-.2.5-1 .7-1c.2 0 .2.5.2.5s.7.6.6.7c-.1.1-.6.1-.6.1s.4.7.8.8c-.1.1-.5.2-.7.2.1.2.1.3.2.4.1.1.7.3.7.3s-.4.1-.5.2c-.1 0-.2 0-.1.1s.4.5.6.6c.2.1.2.1.3.1.1 0 .1-.1.1-.1s0 .1-.3.3c-.2.2-.5.3-.6.3-.1 0-.8-.3-1-.3 0-.2-.9-.1-.9-.1M50.9 38.6c-.2-.1.4-.5.4-.5s.5.4.4.4c0 .1-.6.2-.8.1"/><path fill="#FFF" d="M53 37.6s.3-.4.2-.4c-.1-.1-.3.1-.4.1-.1 0-.3-.2-.3-.2s1-.6 1-.8c0-.2-1.5-.3-1.5-.3s-.1-.2 0-.2.6-.2.6-.3c.1 0 1-.2 1.1-.8.1-.3-.7-.6-.7-.6s-.1 0-.1-.1 1.8-.4 1.9-.6c0-.2.1-.5-.1-.6-.2-.1-1.2-.5-1.2-.7 0-.1 1.5-.9 1.5-.9l-.8-.4s1.4-2 1.7-2c.3 0 .6 1 .7 1.2.1.2 1 .9 1.1 1 .1.2.2.2.2.3-.1.1-1.3.3-1.4.2.3.3.4.5.6.6.2.1.7.5.9.6.2.1.5.2.5.3 0 .1-1.7.4-1.8.4 0 .1.1.4.3.5.2.1 1.2.8 1.3.8h.5c0 .1-.4.2-.6.3-.2.1-.9.1-.9.1-.1.1.1.4.3.6.2.2.4.4.6.5.2.1.6.4.8.4.2 0 .3.1.4 0 .1-.1.3-.2.4-.2 0 0-.4.4-.6.5-.2.1-.8.6-1.2.6-.3 0-1-.2-1.4-.3-.4-.1-.7-.3-1.1-.2-.2.3-2.5.6-2.5.6M55.4 38.3c.1 0 .3.4.4.8.1.3.4.9.4.9h-.8c-.4 0-1-.1-1-.2s.4-.4.5-.6c0-.3.3-.9.5-.9"/><path fill="#FFF" d="M56.3 38.5c-.1-.1 1.2-.6 1.3-.6.2 0 .7.1.8.1.1 0 .4-.2.4-.2.1 0 .9-.6 1-.8.1-.1.3-.3.1-.4-.2-.1-.4.3-.8.2-.4-.1-1.1-.5-1.1-.5s0-.3-.1-.3c-.1-.1-.5-.2-.5-.3 0-.1.9-.2 1-.2.1 0 .5-.1.5-.2 0-.2.1-.3-.1-.4-.2-.1-1-.4-.9-.6 0-.2 1.3-.6 1.3-.6l-.6-.3s.6-.5.7-.7c.1-.2.5-.8.8-.8.2 0 .3.5.4.7.1.2.4.4.5.5.1.1.2.3.3.3l.3.4s-.6.3-1 .1c.2.3.4.5.6.7.2.2.7.6.7.6s.2 0 .2.1c0 0-.7.2-.8.3-.2.1-.6 0-.6 0s.2.4.3.5c.1.1.8.6 1 .6h.5c0 .1-.5.2-.7.2-.1.1-.5 0-.6 0-.1.1.4.6.6.7.2.1.7.5.9.5.2 0 .6-.2.6-.1s-.4.6-.7.7c-.3.1-.7.3-1 .2-.3-.1-1.4-.5-1.6-.5-.2 0-2.1.4-2.5.4-.6-.3-1.1-.2-1.2-.3M59.6 38.9l.9.8s-1.3.1-1.4-.1c0-.2.5-.7.5-.7"/></svg>