<svg xmlns="http://www.w3.org/2000/svg" viewBox="0 0 65.2 65.2"><path fill="#0090D3" d="M65.1 61.3c0 2.1-1.7 3.8-3.8 3.8H3.9c-2.1 0-3.8-1.7-3.8-3.8V3.9C.1 1.8 1.8.1 3.9.1h57.4c2.1 0 3.8 1.7 3.8 3.8v57.4z"/><path fill="#FFF" d="M61.3 65.2H3.9c-2.1 0-3.9-1.7-3.9-3.9V3.9C0 1.7 1.7 0 3.9 0h57.4c2.1 0 3.9 1.7 3.9 3.9v57.4c0 2.2-1.7 3.9-3.9 3.9M3.9.2C1.9.2.2 1.9.2 3.9v57.4c0 2 1.7 3.7 3.7 3.7h57.4c2 0 3.7-1.7 3.7-3.7V3.9c0-2-1.7-3.7-3.7-3.7H3.9z"/><path fill="#00598E" d="M30.7 18.3l1.9.6-.1 3.3s0 2.1-1.6 3.3c-1.5 1.3-3.8.4-5.1-.5-1.2-.9-2.9-2.7-3.5-3.9 0 0 2.1 2.9 4.9 1.9.9-.1 1.8-.7 2.1-1.4.3-.8 1.4-3.3 1.4-3.3"/><path fill="#FFF" d="M24.8 14.9l.5 1-1.5 1.7s-.9.9-.5 2.2c.4 1.3 2.4 3.3 4.1 3.1.8-.4 1.6-1 2.1-2.2.5-1.2 1.4-3.6 1.4-3.6l2.5.5s.3 4 .2 4.9c-.1.8-.1 3-1.9 4.6-1.7 1.5-4 1.7-6.6.1-2.6-1.6-5.2-5.3-5.2-7.8s2.5-3.8 2.9-4c.4-.2 1-.6 1-.6l1 .1z"/><path fill="#FFF" d="M33.7 21s.8-.8 1.1-1.7c.3-.9 1.4-3.3 1.4-3.3l2.4.5s.3 4.7.2 5.3c0 .6-.3 3.3-2.6 4.7-1.8 1.2-4 .3-4 .3s.6-.4 1.2-2c0 0 .8.2 1.5 0s2.1-.6 2.7-2.8c.4-1.9.3-4.3.3-4.3l-1.9-.6s-1 2.5-1.3 3.1c-.3.5-.9 1-.9 1V21z"/><path fill="#FFF" d="M25.8 16.3s1-1.1 2.8-1.5c1.8-.5 4.1-.5 4.1-.5s.2.6.6.5c.4-.1 2.1-.9 2.2-1.3.4-.2 1.9-.3 2.5-.3.5 0 15.9-.2 15.9-.2s1.1-.3 1.2-.4c.1 0 .7.4.7.4v.4l-7.1.1s.3.4-.2.5c-.5.1-13.1 1.6-13.1 1.6s-1-.1-1.4.6c-.4.7-.5 1-.5 1s-.9.2-1.1-.1c-.2-.2-.1-.7-.1-.7S25.9 19 25.6 19c-.3 0-.2-.3-.1-.7 0-.4.4-1.7.3-2M25.2 47.3l-1.1 1-1.1-.4-2.2-5.3s-1.1-2.6-.6-5.1c.5-2.5 3.2-6.1 9-7.7 5.8-1.6 8.4 4.1 8.7 5.8.4 2 .1 4.6-1.3 8.5-1.4 3.8-2.9 7.8-2.9 7.8l-3-1.1.9-8.5s.3-3.2-1.1-4.9c-1.1-.8-2.4-1.3-4.5-.4-2.2 1-2.5 3.1-2.2 4.8.4 1.8 1.4 5.5 1.4 5.5"/><path fill="#0090D3" d="M24.1 36s2.9-2.8 6.9-2.8c3.9 0 6.4 3.4 4.9 8.8-1.4 5.3-2.3 7.7-2.3 7.7l-2.5-.7.8-6.8s.5-2.6-1.2-4.7c-1.7-2.3-4.3-2.9-6.6-1.5"/><path fill="#FFF" d="M24.9 11.5c-.1-1.8 1.3-4 4.4-4.1 3.1-.1 4.2 2.1 4.1 3 0 1.3-.6 3.4-4.1 3.9-3.5.5-4.4-2-4.4-2.8M35.1 48.7l3.1-.1s-3.1 1-3.4 1l.3-.9M31.3 48.8h2.3l-.2.6zM30.7 48.8l-.1 1s-3.4.1-4.4.3c-1 .2-11.1 3.9-12.3 4.4-1.2.5-3 1.1-4 1.1-1.1-.1-2-.6-1.8-1 .1-.4.8-.3 1.3 0 .4.2.8.4 1.3.4s7.2-3.1 8-3.5c.8-.4 6.1-2.4 8.4-2.6 2.4-.2 3.6-.1 3.6-.1M32.5 53s.9.3 1.4.1c.5-.2 1-.6 1-.6s3.4 4.8 3.7 4.9c.3.2.8.2.8.4s-.2.8-.6.9c-.4 0-1.7-.2-2.1-.6-.4-.4-4.2-5.1-4.2-5.1"/></svg>