<svg xmlns="http://www.w3.org/2000/svg" viewBox="0 0 65.2 65.2"><path fill="#0090D3" d="M65.1 61.3c0 2.1-1.7 3.8-3.8 3.8H3.9c-2.1 0-3.8-1.7-3.8-3.8V3.9C.1 1.8 1.8.1 3.9.1h57.4c2.1 0 3.8 1.7 3.8 3.8v57.4z"/><path fill="#FFF" d="M61.3 65.2H3.9c-2.1 0-3.9-1.7-3.9-3.9V3.9C0 1.7 1.7 0 3.9 0h57.4c2.1 0 3.9 1.7 3.9 3.9v57.4c0 2.2-1.7 3.9-3.9 3.9M3.9.2C1.9.2.2 1.9.2 3.9v57.4c0 2 1.7 3.7 3.7 3.7h57.4c2 0 3.7-1.7 3.7-3.7V3.9c0-2-1.7-3.7-3.7-3.7H3.9z"/><path fill="#FFF" d="M54.4 16.3c-2.1.1-3.9-1.4-4-3.4-.1-2 1.5-3.7 3.6-3.9 2.1-.1 3.9 1.4 4 3.4.1 2-1.5 3.8-3.6 3.9M35.2 54.9c-1.6 0-6.1-.4-6.1-.4l1.2-.4s2.6.2 4.5.2c.7 0 1.3 0 1.7-.1 1.5-.2 2.4-.7 2.5-1.2.1-.2.1-.2.2-.2s.1.1.1.1.1.4-.6.9-2 .9-2.9 1.1h-.6M6.5 18.7h-.1s-.4-.3-.4-1 .3-1.7.8-2.4c.4-.7 3.9-3.6 3.9-3.6l-.3.9S7.7 15.2 7 16.2c-.6 1-.8 1.8-.5 2.2.1.2.1.3 0 .3"/><path fill="#FFF" d="M24.7 20.7c-5.1-2.2-14.3-5.6-14.3-5.6l-1.2.6.3 1.3 7.7 4.8s11 5.8 12.3 7.5c1.4 1.6 1.2 6.5 1.2 6.5s.1 4.2.2 5.3c.1 1 .8 11.7.8 11.7l1.8.9s.9-16.4 1.3-22.2c.2-2.5-1.2-6.1-2.5-7m-8-.5c0-.3-12.4-7.2-12.4-7.2l7.8 3.5s11.5 4.3 12.7 6.4c1.1 2.1 1.3 8.1 1.2 10.7-.1 2.7-.6 13.3-.6 13.3l-1-.5-.3-10.2-.2-5.1c-.4-3.8-.2-4.4-.7-6.2M29.8 20.3l7.4-1.2s9.6-1.6 9 1.4c-.2.9-2 1.9-4 2.1-2 .2-6.9-.1-11-1.6l-1.4.3.1.6s2.5 1.2 5.3 2 9.3 1.6 14.9-1.8c5.6-3.4 1.1-7.1-5.3-6.8-6.5.3-16.4 3.9-16.4 3.9l1.4 1.1m14.7-4c4.3.1 7.2 1.7 5.4 4.3-2 2.3-5.6 2.4-5.6 2.4s5.5-3.1.4-4.2c-2.3-.8-5.2-.6-7.7-.2-1.6.2-6.3 1.2-6.3 1.2l-.7-.5s9.3-3.3 14.5-3"/></svg>