<svg xmlns="http://www.w3.org/2000/svg" viewBox="0 0 65.2 65.2"><path fill="none" stroke="#333" stroke-width=".02" stroke-miterlimit="10" d="M-332.8-168.6h841.9v595.3h-841.9z"/><path fill="#0090D3" d="M65.1 61.3c0 2.1-1.7 3.8-3.8 3.8H3.9c-2.1 0-3.8-1.7-3.8-3.8V3.9C.1 1.8 1.8.1 3.9.1h57.4c2.1 0 3.8 1.7 3.8 3.8v57.4z"/><path fill="#FFF" d="M61.3 65.2H3.9c-2.1 0-3.9-1.7-3.9-3.9V3.9C0 1.7 1.7 0 3.9 0h57.4c2.1 0 3.9 1.7 3.9 3.9v57.4c0 2.2-1.7 3.9-3.9 3.9M3.9.2C1.9.2.2 1.9.2 3.9v57.4c0 2 1.7 3.7 3.7 3.7h57.4c2 0 3.7-1.7 3.7-3.7V3.9c0-2-1.7-3.7-3.7-3.7H3.9z"/><path fill="#FFF" d="M26.6 38.1s.2.5.3.8c.1.2.1.6.1.6l-.7-.2s-.3-1-.4-1.1c0-.2.7-.1.7-.1M26 49l-.1 1.1-.1.1.1-1.2zM44.7 15.3c-2.4.4-4.6-.8-4.9-2.7-.3-1.9 1.3-3.8 3.7-4.2 2.4-.4 4.6.8 4.9 2.7.4 1.9-1.3 3.8-3.7 4.2M28.7 31l5.5 12.2L39.1 54l1.1.6 1.8-.2s1 .7.8 1c-.2.3.6.7.6.7l-6.7.6s-2.4 0-2.7-.6c.7-.1.9-.2.9-.2l-.2-.8 3.1-.6-.2-1.2-9.2-19.9.3-2.4zM46.9 47.1s.1-.5.6-.3 1 .9.9 1.7c.5.3 1.7.2 2.7.8 1 .6 1.3 1.7 1.1 2.6-.2.9-2.1 2.3-3.2 2.3s-4 .1-4.7-.4c-.7-.5-1.7-1.4-1.7-2.3 0-.9.7-2.1 1.6-2.5.8-.4 3.3-.5 3.3-.5s.2-1-.2-1.1c-.4 0-.3.2-.4-.3"/><path fill="#FFF" d="M24.6 31s-1.3-4.6-1.1-9.9c.2-5.3 4.2-8.7 5.7-9.7 1.4-1 4.8-2.5 7.3-.2 2.4 2.4 3.6 7 2.3 14.3 0 0-.5 2.3-1 3.6-.5 1.3-3.1 7.7-3.1 7.7L32.2 35s.9-7.6 1.1-8.7c.1-1.1.1-4.4-.5-5.8-.7-.8-1.1-1.6-2.6-1.5-1.5.1-4 2.3-3.9 5.8.1 3.5.3 5.6.3 5.6l-1 1.2-1-.6z"/><path fill="#0090D3" d="M27.3 17.8s2.4-3.1 5.9-3c3.5.1 5.2 5.5 4.2 10.2 0 0-.6 2.6-1 3.9-.4 1.3-1.6 5-1.6 5l-2.1-1.3s.8-5.6.8-7.4c.1-1.8-.3-3.9-.7-4.6-.3-.9-1.4-3-2.5-3.4-1-.4-2.2.1-3 .6"/><path fill="#FFF" d="M15.5 54.3h-3.4l.1-10.9s0-2.9 1.5-6.1c1.5-3.2 4.1-4.5 6.7-4.6 2.5-.1 6.2 1.6 8.4 5 2.3 3.4 3.1 6.1 1.4 9.8 0 0-1.1 1.8-2.5 3.3-1.4 1.5-3.4 3.7-3.4 3.7H23l-.7-1.4 3.4-4.8s1.6-2.2.7-3.9c-.8-1.7-2.9-4.1-5.7-3.2-.9.7-2.3 2-2.8 4.1-.5 1.8-2.4 9-2.4 9"/><path fill="#0090D3" d="M13.1 52.1l.7-9.5s.4-4.3 3-5.5c2.5-1.2 4.6-1.3 7.9 1.2 2.3 2 3.1 3.7 3.1 3.7s-2.8-3.7-6.9-1.2c-2 1-2.7 2.4-3.2 4.4-.5 2-1.8 7.1-1.8 7.1l-2.8-.2z"/></svg>