<svg xmlns="http://www.w3.org/2000/svg" xmlns:xlink="http://www.w3.org/1999/xlink" viewBox="0 229 400 42"><defs><path id="a" d="M0 229.3h391.4v41.5H0z"/></defs><clipPath id="b"><use xlink:href="#a" overflow="visible"/></clipPath><path clip-path="url(#b)" fill="#008FD3" d="M5.2 261.8l1 2v.1H6l-1 .1s-.1 0-.1.1.1.1.3.1c.1 0 1.2.1 1.2.1s.1 0 .2.1c0 .1.1.2.1.2s.1.1 0 .1h-.4l-1.9.3h-.1s0 .1.1.1 1.3.1 1.3.1.1 0 .2.1l.2.2s.1.1 0 .1-.4.1-.4.1l-2 .2h-.1s0 .1.1.1 2.9.2 2.9.2h.1l.2.2s.1 0 0 .1h-.1l-2.4.2s-.1 0-.1.1.1.1.1.1l3 .2s.1 0 .2.1l.2.2v.1h-.2l-2.3.2h-.1s0 .1.1.1l2.4.2s.1 0 .1.1-.1.2-.1.2 0 .1-.1.1-1.4.2-1.4.2h-.1s0 .1.1.1 1.3.1 1.3.1.1 0 .1.1-.3 1.5-.3 1.5v.1l-.2-.1-2.4-1.5-2.8 1.7s-.1.1-.2 0 0-.3 0-.3l.5-3-2.2-2.2s-.1-.2 0-.2c.2-.1 3.2-.5 3.2-.5l1.4-2.8s0-.1.2-.1c.3.1.4.3.4.3"/><defs><path id="c" d="M0 229.3h391.4v41.5H0z"/></defs><clipPath id="d"><use xlink:href="#c" overflow="visible"/></clipPath><path clip-path="url(#d)" fill="#FBBE00" d="M11.2 261.8l1 2v.1h-.1l-1.1.1s-.1 0-.1.1.1.1.3.1c.1 0 1.2.1 1.2.1s.1 0 .2.1c0 .1.1.2.1.2s.1.1 0 .1h-.4l-1.9.2h-.1s0 .1.1.1 1.3.1 1.3.1.1 0 .2.1l.2.2s.1.1 0 .1-.4.1-.4.1l-2 .2s-.1 0-.1.1c0 0 0 .1.1.1s2.8.2 2.8.2h.1l.2.2s.1 0 .1.1-.1 0-.1 0l-2.4.2s-.1 0-.1.1.1.1.1.1l3 .2s.1 0 .2.1l.2.2v.1h-.2l-2.3.2h-.1s0 .1.1.1 2.5.2 2.5.2.1 0 .1.1-.1.3-.1.3 0 .1-.1.1-1.4.2-1.4.2h-.1s0 .1.1.1 1.3.1 1.3.1.1 0 .1.1-.3 1.6-.3 1.6v.1l-.2-.1-2.4-1.5-2.8 1.7s-.1.1-.2 0 0-.3 0-.3l.5-3-2.3-2.2s-.1-.2 0-.2c.2-.1 3.2-.5 3.2-.5l1.4-2.8s0-.1.2-.1c.4-.1.4.1.4.1"/><defs><path id="e" d="M0 229.3h391.4v41.5H0z"/></defs><clipPath id="f"><use xlink:href="#e" overflow="visible"/></clipPath><path clip-path="url(#f)" fill="#00151D" d="M17.3 261.8l1 2v.1h-.2l-1.1.1s-.1 0-.1.1.1.1.3.1c.1 0 1.2.1 1.2.1s.1 0 .2.1c0 .1.1.2.1.2s.1.1 0 .1h-.4l-1.9.2h-.1s0 .1.1.1 1.3.1 1.3.1.1 0 .2.1l.2.2s.1.1 0 .1-.4.1-.4.1l-2 .2s-.1 0-.1.1c0 0 0 .1.1.1s2.9.2 2.9.2h.1l.2.2s.1 0 0 .1h-.1l-2.4.2s-.1 0-.1.1.1.1.1.1l3 .2s.1 0 .2.1l.2.2v.1h-.2l-2.3.2h-.1s0 .1.1.1l2.5.2s.1 0 .1.1-.1.3-.1.3 0 .1-.1.1-1.4.2-1.4.2h-.1s0 .1.1.1 1.3.1 1.3.1.1 0 .1.1-.3 1.6-.3 1.6v.1l-.2-.1-2.4-1.5-2.8 1.7s-.1.1-.2 0 0-.3 0-.3l.5-3-2.3-2.2s-.1-.2 0-.2c.2-.1 3.1-.5 3.1-.5l1.4-2.8s0-.1.2-.1c.6-.1.6.1.6.1"/><defs><path id="g" d="M0 229.3h391.4v41.5H0z"/></defs><clipPath id="h"><use xlink:href="#g" overflow="visible"/></clipPath><path clip-path="url(#h)" fill="#00914C" d="M23.4 261.8l1 2v.1h-.1l-1.1.1s-.1 0-.1.1.1.1.3.1c.1 0 1.2.1 1.2.1s.1 0 .2.1c0 .1.1.2.1.2s.1.1 0 .1h-.4l-1.9.2h-.1s0 .1.1.1 1.3.1 1.3.1.1 0 .2.1l.2.2s.1.1 0 .1-.4.1-.4.1l-2 .2h-.1s0 .1.1.1 2.9.2 2.9.2h.2l.2.2s.1 0 .1.1h-.1l-2.4.2s-.1 0-.1.1.1.1.1.1l3 .2s.1 0 .2.1l.2.2v.1H26l-2.3.2h-.1s0 .1.1.1 2.5.2 2.5.2.1 0 .1.1-.1.2-.1.2 0 .1-.1.1-1.4.2-1.4.2h-.1s0 .1.1.1 1.3.1 1.3.1.1 0 .1.1-.3 1.5-.3 1.5v.1l-.2-.1-2.4-1.5-2.8 1.7s-.1.1-.2 0 0-.3 0-.3l.5-3-2.3-2.2s-.1-.2 0-.2c.2-.1 3.2-.5 3.2-.5l1.4-2.8s0-.1.2-.1c.2.2.2.4.2.4"/><defs><path id="i" d="M0 229.3h391.4v41.5H0z"/></defs><clipPath id="j"><use xlink:href="#i" overflow="visible"/></clipPath><path clip-path="url(#j)" fill="#E30521" d="M29.5 261.8l1 2v.1h-.1l-1.1.1s-.1 0-.1.1.1.1.3.1c.1 0 1.1.1 1.1.1s.1 0 .2.1c0 .1.1.2.1.2s.1.1 0 .1-.4.1-.4.1l-1.9.2h-.1s0 .1.1.1 4.8.1 4.8.1H34.2l-.2.2-.2.2h-.3l-5.4.2s-.1 0-.1.1c0 0 0 .1.1.1s5 .2 5 .2h.1v.1l-.1.1-.1.1-.2.1-3.9.3s-.1 0-.1.1.1.1.1.1l3.1-.1h.1c0 .1-.2.2-.2.2l-.1.1h-.2l-1.9.2h-.1s0 .1.1.1 1.5.1 1.5.1h.4c.2 0 .2 0 .2.1s.1.4.1.4 0 .1-.1.1-1 .1-1 .1-.1 0-.1.1c0 0 0 .1.1.1s-.1 0 1.1.1c0 0 .1 0 .1.1s.3 1.5.3 1.5v.2c-.1.1-.3-.1-.3-.1l-2.7-1.6-2.8 1.7s-.1.1-.2 0 0-.3 0-.3l.5-3-2.3-2.2s-.1-.2 0-.2c.2-.1 3.1-.5 3.1-.5l1.4-2.8s0-.1.2-.1c.2.2.3.4.3.4"/><defs><path id="k" d="M0 229.3h391.4v41.5H0z"/></defs><clipPath id="l"><use xlink:href="#k" overflow="visible"/></clipPath><path clip-path="url(#l)" fill="#0080C8" d="M33.8 237.4l-3.7 1.9-.1.2 3.9-1.9z"/><defs><path id="m" d="M0 229.3h391.4v41.5H0z"/></defs><clipPath id="n"><use xlink:href="#m" overflow="visible"/></clipPath><path clip-path="url(#n)" fill="#0080C8" d="M32.7 236.1l-2.4 1.2-.1.2 2.6-1.2z"/><defs><path id="o" d="M0 229.3h391.4v41.5H0z"/></defs><clipPath id="p"><use xlink:href="#o" overflow="visible"/></clipPath><path clip-path="url(#p)" fill="#0080C8" d="M31.1 234.1l-.5.2v.3l.6-.3z"/><defs><path id="q" d="M0 229.3h391.4v41.5H0z"/></defs><clipPath id="r"><use xlink:href="#q" overflow="visible"/></clipPath><path clip-path="url(#r)" fill="#0080C8" d="M32.1 235.4l-1.7.9v.3l1.9-1z"/><defs><path id="s" d="M0 229.3h391.4v41.5H0z"/></defs><clipPath id="t"><use xlink:href="#s" overflow="visible"/></clipPath><path clip-path="url(#t)" fill="#0080C8" d="M33.2 236.8l-3 1.5-.1.2 3.2-1.6z"/><defs><path id="u" d="M0 229.3h391.4v41.5H0z"/></defs><clipPath id="v"><use xlink:href="#u" overflow="visible"/></clipPath><path clip-path="url(#v)" fill="#0080C8" d="M34.3 238.1l-4.4 2.2v.2l4.5-2.2z"/><defs><path id="w" d="M0 229.3h391.4v41.5H0z"/></defs><clipPath id="x"><use xlink:href="#w" overflow="visible"/></clipPath><path clip-path="url(#x)" fill="#0080C8" d="M31.6 234.8l-1.1.5v.3l1.3-.7z"/><defs><path id="y" d="M0 229.3h391.4v41.5H0z"/></defs><clipPath id="z"><use xlink:href="#y" overflow="visible"/></clipPath><path clip-path="url(#z)" fill="#0080C8" d="M29.9 250.5l-1.2.6-.1.3 1.2-.6z"/><defs><path id="A" d="M0 229.3h391.4v41.5H0z"/></defs><clipPath id="B"><use xlink:href="#A" overflow="visible"/></clipPath><path clip-path="url(#B)" fill="#0080C8" d="M30.3 249.4l-1.5.7v.3l1.4-.7z"/><defs><path id="C" d="M0 229.3h391.4v41.5H0z"/></defs><clipPath id="D"><use xlink:href="#C" overflow="visible"/></clipPath><path clip-path="url(#D)" fill="#0080C8" d="M30.8 248.2l-1.9 1v.2l1.8-.9z"/><defs><path id="E" d="M0 229.3h391.4v41.5H0z"/></defs><clipPath id="F"><use xlink:href="#E" overflow="visible"/></clipPath><path clip-path="url(#F)" fill="#0080C8" d="M29.5 251.6l-.9.5-.1.3.9-.5z"/><defs><path id="G" d="M0 229.3h391.4v41.5H0z"/></defs><clipPath id="H"><use xlink:href="#G" overflow="visible"/></clipPath><path clip-path="url(#H)" fill="#0080C8" d="M29.1 252.8l-.7.3v.2l.5-.2z"/><defs><path id="I" d="M0 229.3h391.4v41.5H0z"/></defs><clipPath id="J"><use xlink:href="#I" overflow="visible"/></clipPath><path clip-path="url(#J)" fill="#0080C8" d="M31.2 247.1l-2.2 1.1v.2l2.1-1z"/><defs><path id="K" d="M0 229.3h391.4v41.5H0z"/></defs><clipPath id="L"><use xlink:href="#K" overflow="visible"/></clipPath><path clip-path="url(#L)" fill="#0080C8" d="M32.5 243.6l-3 1.5v.3l2.9-1.5z"/><defs><path id="M" d="M0 229.3h391.4v41.5H0z"/></defs><clipPath id="N"><use xlink:href="#M" overflow="visible"/></clipPath><path clip-path="url(#N)" fill="#0080C8" d="M33.3 241.3l-3.7 1.9v.3l3.6-1.9z"/><defs><path id="O" d="M0 229.3h391.4v41.5H0z"/></defs><clipPath id="P"><use xlink:href="#O" overflow="visible"/></clipPath><path clip-path="url(#P)" fill="#0080C8" d="M33.8 240.2l-4.1 2v.3l3.9-2z"/><defs><path id="Q" d="M0 229.3h391.4v41.5H0z"/></defs><clipPath id="R"><use xlink:href="#Q" overflow="visible"/></clipPath><path clip-path="url(#R)" fill="#0080C8" d="M31.6 245.9l-2.5 1.3v.2l2.4-1.2z"/><defs><path id="S" d="M0 229.3h391.4v41.5H0z"/></defs><clipPath id="T"><use xlink:href="#S" overflow="visible"/></clipPath><path clip-path="url(#T)" fill="#0080C8" d="M32.9 242.5l-3.4 1.7v.2l3.3-1.6z"/><defs><path id="U" d="M0 229.3h391.4v41.5H0z"/></defs><clipPath id="V"><use xlink:href="#U" overflow="visible"/></clipPath><path clip-path="url(#V)" fill="#0080C8" d="M32 244.8l-2.7 1.4-.1.2 2.8-1.3z"/><defs><path id="W" d="M0 229.3h391.4v41.5H0z"/></defs><clipPath id="X"><use xlink:href="#W" overflow="visible"/></clipPath><path clip-path="url(#X)" fill="#0080C8" d="M34.2 239l-4.4 2.2v.3l4.3-2.2z"/><defs><path id="Y" d="M0 229.3h391.4v41.5H0z"/></defs><clipPath id="Z"><use xlink:href="#Y" overflow="visible"/></clipPath><path clip-path="url(#Z)" fill="#0080C8" d="M13.4 240.6l5.8-1.3v-.3l-5.8 1.4z"/><defs><path id="aa" d="M0 229.3h391.4v41.5H0z"/></defs><clipPath id="ab"><use xlink:href="#aa" overflow="visible"/></clipPath><path clip-path="url(#ab)" fill="#0080C8" d="M13.4 243.1l5.3-1.2.1-.2-5.4 1.2z"/><defs><path id="ac" d="M0 229.3h391.4v41.5H0z"/></defs><clipPath id="ad"><use xlink:href="#ac" overflow="visible"/></clipPath><path clip-path="url(#ad)" fill="#0080C8" d="M13.4 242.3l5.5-1.3v-.2l-5.5 1.3z"/><defs><path id="ae" d="M0 229.3h391.4v41.5H0z"/></defs><clipPath id="af"><use xlink:href="#ae" overflow="visible"/></clipPath><path clip-path="url(#af)" fill="#0080C8" d="M13.4 244l5.2-1.2v-.2l-5.2 1.2z"/><defs><path id="ag" d="M0 229.3h391.4v41.5H0z"/></defs><clipPath id="ah"><use xlink:href="#ag" overflow="visible"/></clipPath><path clip-path="url(#ah)" fill="#0080C8" d="M13.4 241.4l5.7-1.2v-.3l-5.7 1.3z"/><defs><path id="ai" d="M0 229.3h391.4v41.5H0z"/></defs><clipPath id="aj"><use xlink:href="#ai" overflow="visible"/></clipPath><path clip-path="url(#aj)" fill="#0080C8" d="M13.4 237.2l5.2-1.2-.1-.2-5.1 1.2z"/><defs><path id="ak" d="M0 229.3h391.4v41.5H0z"/></defs><clipPath id="al"><use xlink:href="#ak" overflow="visible"/></clipPath><path clip-path="url(#al)" fill="#0080C8" d="M13.4 232.1l1.9-.5-.1-.1-1.8.3z"/><defs><path id="am" d="M0 229.3h391.4v41.5H0z"/></defs><clipPath id="an"><use xlink:href="#am" overflow="visible"/></clipPath><path clip-path="url(#an)" fill="#0080C8" d="M13.4 232.9l2.5-.5-.2-.2-2.3.5z"/><defs><path id="ao" d="M0 229.3h391.4v41.5H0z"/></defs><clipPath id="ap"><use xlink:href="#ao" overflow="visible"/></clipPath><path clip-path="url(#ap)" fill="#0080C8" d="M13.4 233.8l3-.7-.1-.2-2.9.6z"/><defs><path id="aq" d="M0 229.3h391.4v41.5H0z"/></defs><clipPath id="ar"><use xlink:href="#aq" overflow="visible"/></clipPath><path clip-path="url(#ar)" fill="#0080C8" d="M13.4 239.7l6-1.3v-.2l-6 1.3z"/><defs><path id="as" d="M0 229.3h391.4v41.5H0z"/></defs><clipPath id="at"><use xlink:href="#as" overflow="visible"/></clipPath><path clip-path="url(#at)" fill="#0080C8" d="M13.4 230.4l.8-.2-.1-.2-.7.1z"/><defs><path id="au" d="M0 229.3h391.4v41.5H0z"/></defs><clipPath id="av"><use xlink:href="#au" overflow="visible"/></clipPath><path clip-path="url(#av)" fill="#0080C8" d="M13.7 229.5l-.1-.2h-.2v.2z"/><defs><path id="aw" d="M0 229.3h391.4v41.5H0z"/></defs><clipPath id="ax"><use xlink:href="#aw" overflow="visible"/></clipPath><path clip-path="url(#ax)" fill="#0080C8" d="M13.4 231.2l1.4-.3-.2-.2-1.2.3z"/><defs><path id="ay" d="M0 229.3h391.4v41.5H0z"/></defs><clipPath id="az"><use xlink:href="#ay" overflow="visible"/></clipPath><path clip-path="url(#az)" fill="#0080C8" d="M13.4 238.9l6.1-1.4.1-.2h-.1l-6.1 1.4z"/><g><defs><path id="aA" d="M0 229.3h391.4v41.5H0z"/></defs><clipPath id="aB"><use xlink:href="#aA" overflow="visible"/></clipPath><path clip-path="url(#aB)" fill="#0080C8" d="M13.4 238l5.7-1.3-.1-.1-5.6 1.2z"/></g><g><defs><path id="aC" d="M0 229.3h391.4v41.5H0z"/></defs><clipPath id="aD"><use xlink:href="#aC" overflow="visible"/></clipPath><path clip-path="url(#aD)" fill="#0080C8" d="M13.4 234.6l3.6-.8-.2-.2-3.4.8z"/></g><g><defs><path id="aE" d="M0 229.3h391.4v41.5H0z"/></defs><clipPath id="aF"><use xlink:href="#aE" overflow="visible"/></clipPath><path clip-path="url(#aF)" fill="#0080C8" d="M13.4 235.5l4.1-.9-.2-.2-3.9.8z"/></g><g><defs><path id="aG" d="M0 229.3h391.4v41.5H0z"/></defs><clipPath id="aH"><use xlink:href="#aG" overflow="visible"/></clipPath><path clip-path="url(#aH)" fill="#0080C8" d="M13.4 236.3l4.6-1-.1-.2-4.5 1z"/></g><g><defs><path id="aI" d="M0 229.3h391.4v41.5H0z"/></defs><clipPath id="aJ"><use xlink:href="#aI" overflow="visible"/></clipPath><path clip-path="url(#aJ)" fill="#0080C8" d="M3.4 239.3l-1.8 1.4-.1.3 1.9-1.5z"/></g><g><defs><path id="aK" d="M0 229.3h391.4v41.5H0z"/></defs><clipPath id="aL"><use xlink:href="#aK" overflow="visible"/></clipPath><path clip-path="url(#aL)" fill="#0080C8" d="M3.4 238.3l-1.6 1.2-.1.3 1.7-1.3z"/></g><g><defs><path id="aM" d="M0 229.3h391.4v41.5H0z"/></defs><clipPath id="aN"><use xlink:href="#aM" overflow="visible"/></clipPath><path clip-path="url(#aN)" fill="#0080C8" d="M3.1 234.3l-.5.4v.3l.6-.4z"/></g><g><defs><path id="aO" d="M0 229.3h391.4v41.5H0z"/></defs><clipPath id="aP"><use xlink:href="#aO" overflow="visible"/></clipPath><path clip-path="url(#aP)" fill="#0080C8" d="M3.3 237.3l-1.3 1v.3l1.3-1.1z"/></g><g><defs><path id="aQ" d="M0 229.3h391.4v41.5H0z"/></defs><clipPath id="aR"><use xlink:href="#aQ" overflow="visible"/></clipPath><path clip-path="url(#aR)" fill="#0080C8" d="M3.1 233.3l-.2.2-.1.3.3-.3z"/></g><g><defs><path id="aS" d="M0 229.3h391.4v41.5H0z"/></defs><clipPath id="aT"><use xlink:href="#aS" overflow="visible"/></clipPath><path clip-path="url(#aT)" fill="#0080C8" d="M3.3 236.3l-1.1.8v.3l1.1-.8z"/></g><g><defs><path id="aU" d="M0 229.3h391.4v41.5H0z"/></defs><clipPath id="aV"><use xlink:href="#aU" overflow="visible"/></clipPath><path clip-path="url(#aV)" fill="#0080C8" d="M3.2 235.3l-.8.6v.3l.8-.7z"/></g><g><defs><path id="aW" d="M0 229.3h391.4v41.5H0z"/></defs><clipPath id="aX"><use xlink:href="#aW" overflow="visible"/></clipPath><path clip-path="url(#aX)" fill="#0080C8" d="M4.1 247.4l-.1-.2-4 3 .2.1z"/></g><g><defs><path id="aY" d="M0 229.3h391.4v41.5H0z"/></defs><clipPath id="aZ"><use xlink:href="#aY" overflow="visible"/></clipPath><path clip-path="url(#aZ)" fill="#0080C8" d="M4.9 253l.1-.1v-.2l-.3.2z"/></g><g><defs><path id="ba" d="M0 229.3h391.4v41.5H0z"/></defs><clipPath id="bb"><use xlink:href="#ba" overflow="visible"/></clipPath><path clip-path="url(#bb)" fill="#0080C8" d="M3.3 252.1l1.4-1v-.3L3.1 252z"/></g><g><defs><path id="bc" d="M0 229.3h391.4v41.5H0z"/></defs><clipPath id="bd"><use xlink:href="#bc" overflow="visible"/></clipPath><path clip-path="url(#bd)" fill="#0080C8" d="M4.2 252.5l.7-.5-.1-.3-.9.7z"/></g><g><defs><path id="be" d="M0 229.3h391.4v41.5H0z"/></defs><clipPath id="bf"><use xlink:href="#be" overflow="visible"/></clipPath><path clip-path="url(#bf)" fill="#0080C8" d="M2.6 251.6l1.9-1.5v-.2l-2.1 1.6z"/></g><g><defs><path id="bg" d="M0 229.3h391.4v41.5H0z"/></defs><clipPath id="bh"><use xlink:href="#bg" overflow="visible"/></clipPath><path clip-path="url(#bh)" fill="#0080C8" d="M1.8 251.2l2.6-2-.1-.2-2.7 2.1z"/></g><g><defs><path id="bi" d="M0 229.3h391.4v41.5H0z"/></defs><clipPath id="bj"><use xlink:href="#bi" overflow="visible"/></clipPath><path clip-path="url(#bj)" fill="#0080C8" d="M3.5 240.3l-2.1 1.6-.1.3 2.2-1.7z"/></g><g><defs><path id="bk" d="M0 229.3h391.4v41.5H0z"/></defs><clipPath id="bl"><use xlink:href="#bk" overflow="visible"/></clipPath><path clip-path="url(#bl)" fill="#0080C8" d="M1 250.8l3.2-2.5v-.2l-3.4 2.5z"/></g><g><defs><path id="bm" d="M0 229.3h391.4v41.5H0z"/></defs><clipPath id="bn"><use xlink:href="#bm" overflow="visible"/></clipPath><path clip-path="url(#bn)" fill="#0080C8" d="M3.6 242.3l-2.6 2-.1.3 2.7-2.1z"/></g><g><defs><path id="bo" d="M0 229.3h391.4v41.5H0z"/></defs><clipPath id="bp"><use xlink:href="#bo" overflow="visible"/></clipPath><path clip-path="url(#bp)" fill="#0080C8" d="M3.5 241.3l-2.4 1.8v.3l2.5-1.9z"/></g><g><defs><path id="bq" d="M0 229.3h391.4v41.5H0z"/></defs><clipPath id="br"><use xlink:href="#bq" overflow="visible"/></clipPath><path clip-path="url(#br)" fill="#0080C8" d="M3.7 243.3l-3 2.2v.3l3-2.3z"/></g><g><defs><path id="bs" d="M0 229.3h391.4v41.5H0z"/></defs><clipPath id="bt"><use xlink:href="#bs" overflow="visible"/></clipPath><path clip-path="url(#bt)" fill="#0080C8" d="M3.8 246.2l-3.7 2.9v.3l3.8-2.9z"/></g><g><defs><path id="bu" d="M0 229.3h391.4v41.5H0z"/></defs><clipPath id="bv"><use xlink:href="#bu" overflow="visible"/></clipPath><path clip-path="url(#bv)" fill="#0080C8" d="M3.8 245.3l-3.5 2.6v.3l3.5-2.7z"/></g><g><defs><path id="bw" d="M0 229.3h391.4v41.5H0z"/></defs><clipPath id="bx"><use xlink:href="#bw" overflow="visible"/></clipPath><path clip-path="url(#bx)" fill="#0080C8" d="M3.7 244.3l-3.2 2.4v.3l3.2-2.5z"/></g><g><defs><path id="by" d="M0 229.3h391.4v41.5H0z"/></defs><clipPath id="bz"><use xlink:href="#by" overflow="visible"/></clipPath><path clip-path="url(#bz)" fill="#0080C8" d="M21.5 256.9l8-11.6-1.1 8z"/></g><g><defs><path id="bA" d="M0 229.3h391.4v41.5H0z"/></defs><clipPath id="bB"><use xlink:href="#bA" overflow="visible"/></clipPath><path clip-path="url(#bB)" fill="#E5007E" d="M21.8 246v-16.6l-2.6 13.3z"/></g><g><defs><path id="bC" d="M0 229.3h391.4v41.5H0z"/></defs><clipPath id="bD"><use xlink:href="#bC" overflow="visible"/></clipPath><path clip-path="url(#bD)" fill="#0080C8" d="M29.5 245.3l-2.1-15.9 3.3 4.2z"/></g><g><defs><path id="bE" d="M0 229.3h391.4v41.5H0z"/></defs><clipPath id="bF"><use xlink:href="#bE" overflow="visible"/></clipPath><path clip-path="url(#bF)" fill="#0080C8" d="M21.4 246.6l-2.6-3.2-5.3 1.2v.3z"/></g><g><defs><path id="bG" d="M0 229.3h391.4v41.5H0z"/></defs><clipPath id="bH"><use xlink:href="#bG" overflow="visible"/></clipPath><path clip-path="url(#bH)" fill="#0080C8" d="M4.6 245.8l1.1 6.6 5.5 1.4z"/></g><g><defs><path id="bI" d="M0 229.3h391.4v41.5H0z"/></defs><clipPath id="bJ"><use xlink:href="#bI" overflow="visible"/></clipPath><path clip-path="url(#bJ)" fill="#E5007E" d="M21.3 257l-4.9 2.4-10.4-6z"/></g><g><defs><path id="bK" d="M0 229.3h391.4v41.5H0z"/></defs><clipPath id="bL"><use xlink:href="#bK" overflow="visible"/></clipPath><path clip-path="url(#bL)" fill="#E5007E" d="M4.4 245.4l3.9-16-4.4 3.3z"/></g><g><defs><path id="bM" d="M0 229.3h391.4v41.5H0z"/></defs><clipPath id="bN"><use xlink:href="#bM" overflow="visible"/></clipPath><path clip-path="url(#bN)" fill="#0E7DC2" d="M51.7 236.6c-.1.6-.2 1.1-.4 1.7-.1.6-.2 1.1-.4 1.7 0 .2-.2 1-.6 2.5-.4 1.5-.8 3.7-1.5 6.5h-2.3l-3.7-15.1h2c.3 1.5.7 3 1 4.5.3 1.5.7 3 1 4.5.1.6.3 1.3.4 1.9.1.7.3 1.3.4 1.9h.1l.8-3.6c.2-.8.4-1.6.5-2.4.2-.8.4-1.5.5-2.3s.3-1.5.5-2.3c.2-.8.4-1.5.5-2.3h2l2.4 9.2c0 .1.1.3.2.6s.2.7.3 1.1l.3 1.2c.1.4.2.7.2.8h.1c.2-.7.3-1.3.4-2 .1-.7.3-1.3.4-2 .3-1.5.7-2.9 1-4.4.3-1.5.7-2.9 1-4.4h1.9c-.6 2.7-1.3 5.4-1.9 7.9-.6 2.5-1.2 4.9-1.8 7.3h-2l-1.2-4.5c-.4-1.4-.8-3-1.2-4.6-.1-.6-.3-1.1-.4-1.7-.2-.6-.4-1.1-.5-1.7"/></g><g><defs><path id="bO" d="M0 229.3h391.4v41.5H0z"/></defs><clipPath id="bP"><use xlink:href="#bO" overflow="visible"/></clipPath><path clip-path="url(#bP)" fill="#0E7DC2" d="M63.2 233.9h1.9v15.2h-1.9z"/></g><g><defs><path id="bQ" d="M0 229.3h391.4v41.5H0z"/></defs><clipPath id="bR"><use xlink:href="#bQ" overflow="visible"/></clipPath><path clip-path="url(#bR)" fill="#0E7DC2" d="M78.6 246v-12.1h1.8v15.2h-1.8l-5.8-9.2-2-3.2h-.1V249h-1.8v-15.1h1.9c1 1.4 1.9 2.9 2.8 4.3.9 1.4 1.8 2.8 2.7 4.3l2.2 3.5h.1z"/></g><g><defs><path id="bS" d="M0 229.3h391.4v41.5H0z"/></defs><clipPath id="bT"><use xlink:href="#bS" overflow="visible"/></clipPath><path clip-path="url(#bT)" fill="#0E7DC2" d="M87.5 249.1v-13.8h-4.9v-1.4h11.6v1.4h-4.9V249h-1.8z"/></g><g><defs><path id="bU" d="M0 229.3h391.4v41.5H0z"/></defs><clipPath id="bV"><use xlink:href="#bU" overflow="visible"/></clipPath><path clip-path="url(#bV)" fill="#0E7DC2" d="M96.4 249.1v-15.2h9.2v1.4h-7.3v5.1h6.2v1.3h-6.2v5.9h7.7v1.5z"/></g><g><defs><path id="bW" d="M0 229.3h391.4v41.5H0z"/></defs><clipPath id="bX"><use xlink:href="#bW" overflow="visible"/></clipPath><path clip-path="url(#bX)" fill="#0E7DC2" d="M118.6 238.1c0 .9-.2 1.7-.7 2.5-.5.7-1.1 1.2-2 1.5.6.2 1 .5 1.3 1 .3.5.5 1 .7 1.7l1.2 4.4h-1.9L116 245c-.1-.5-.3-.9-.5-1.2-.2-.3-.4-.6-.6-.8s-.5-.3-.8-.4c-.3-.1-.6-.1-1-.1h-2.4v6.6h-1.9v-15.2h5.2c1.5 0 2.6.4 3.4 1.1.9.8 1.2 1.8 1.2 3.1m-4.8 2.9c.3 0 .6 0 1-.1s.7-.2 1-.4c.3-.2.5-.5.7-.9.2-.4.3-.8.3-1.4 0-.5-.1-1-.2-1.3-.2-.4-.4-.7-.6-.9-.3-.2-.6-.4-.9-.5-.4-.1-.8-.2-1.1-.2h-3v5.7h2.8z"/></g><g><defs><path id="bY" d="M0 229.3h391.4v41.5H0z"/></defs><clipPath id="bZ"><use xlink:href="#bY" overflow="visible"/></clipPath><path clip-path="url(#bZ)" fill="#E5007E" d="M137 243.6c0 .8-.1 1.6-.4 2.3-.2.7-.6 1.3-1.1 1.8-.5.5-1.1.9-1.8 1.1-.7.3-1.6.4-2.6.4-2 0-3.5-.5-4.4-1.5-.9-1-1.4-2.4-1.4-4.1v-9.7h1.9v9.8c0 1.4.3 2.4 1 3.1.7.7 1.6 1 2.9 1 1.2 0 2.2-.3 2.9-1 .7-.7 1-1.7 1-3.1v-9.8h1.9l.1 9.7z"/></g><g><defs><path id="ca" d="M0 229.3h391.4v41.5H0z"/></defs><clipPath id="cb"><use xlink:href="#ca" overflow="visible"/></clipPath><path clip-path="url(#cb)" fill="#E5007E" d="M150.1 246v-12.1h1.8v15.2h-1.8l-5.8-9.2-2-3.2h-.1V249h-1.8v-15.1h1.9c1 1.4 1.9 2.9 2.8 4.3.9 1.4 1.8 2.8 2.7 4.3l2.3 3.5z"/></g><g><defs><path id="cc" d="M0 229.3h391.4v41.5H0z"/></defs><clipPath id="cd"><use xlink:href="#cc" overflow="visible"/></clipPath><path clip-path="url(#cd)" fill="#E5007E" d="M155.7 233.9h1.9v15.2h-1.9z"/></g><g><defs><path id="ce" d="M0 229.3h391.4v41.5H0z"/></defs><clipPath id="cf"><use xlink:href="#ce" overflow="visible"/></clipPath><path clip-path="url(#cf)" fill="#E5007E" d="M165.7 247.1l.9-3.1 3-10.1h1.9l-4.8 15.2h-2.2l-4.8-15.2h2l3.1 10.1.8 3.1z"/></g><g><defs><path id="cg" d="M0 229.3h391.4v41.5H0z"/></defs><clipPath id="ch"><use xlink:href="#cg" overflow="visible"/></clipPath><path clip-path="url(#ch)" fill="#E5007E" d="M173.6 249.1v-15.2h9.2v1.4h-7.3v5.1h6.2v1.3h-6.2v5.9h7.7v1.5z"/></g><g><defs><path id="ci" d="M0 229.3h391.4v41.5H0z"/></defs><clipPath id="cj"><use xlink:href="#ci" overflow="visible"/></clipPath><path clip-path="url(#cj)" fill="#E5007E" d="M195.8 238.1c0 .9-.2 1.7-.7 2.5-.5.7-1.1 1.2-2 1.5.6.2 1 .5 1.3 1 .3.5.5 1 .7 1.7l1.2 4.4h-1.9l-1.2-4.2c-.2-.5-.3-.9-.5-1.2-.2-.3-.4-.6-.6-.8s-.5-.3-.8-.4c-.3-.1-.6-.1-1-.1h-2.4v6.6H186v-15.2h5.2c1.5 0 2.6.4 3.4 1.1.8.8 1.2 1.8 1.2 3.1M191 241c.3 0 .6 0 1-.1s.7-.2 1-.4c.3-.2.5-.5.7-.9.2-.4.3-.8.3-1.4 0-.5-.1-1-.2-1.3-.1-.4-.4-.7-.6-.9-.3-.2-.6-.4-.9-.5-.4-.1-.8-.2-1.1-.2h-3v5.7h2.8z"/></g><g><defs><path id="ck" d="M0 229.3h391.4v41.5H0z"/></defs><clipPath id="cl"><use xlink:href="#ck" overflow="visible"/></clipPath><path clip-path="url(#cl)" fill="#E5007E" d="M203.7 233.6c.6 0 1.3.1 2.1.2s1.4.4 2.1.8l-.6 1.3c-.7-.3-1.4-.5-2-.6-.6-.1-1.1-.1-1.7-.1-.9 0-1.6.2-2.2.7-.6.5-.8 1.1-.8 2.1 0 .4.1.8.3 1 .2.3.5.5.8.7.3.2.7.3 1.1.5.4.1.8.2 1.2.4.6.1 1.1.3 1.7.5.6.2 1.1.4 1.6.7.5.3.8.7 1.2 1.2.3.5.5 1.2.5 2s-.1 1.4-.4 2c-.3.6-.7 1-1.1 1.3-.5.4-1.1.6-1.8.8-.7.2-1.4.3-2.3.3-.8 0-1.6-.1-2.5-.3-.8-.2-1.7-.5-2.4-.9l.7-1.4c.9.4 1.7.7 2.4.8.7.1 1.3.2 1.9.2 1.1 0 2.1-.2 2.7-.6.7-.4 1-1.1 1-2.2 0-.5-.1-.8-.2-1.1-.2-.3-.4-.6-.7-.8-.3-.2-.7-.4-1-.5-.4-.1-.8-.3-1.3-.4-.7-.2-1.3-.4-1.9-.6s-1.1-.4-1.6-.7c-.5-.3-.8-.7-1.1-1.1-.3-.5-.4-1-.4-1.7s.1-1.3.4-1.8c.3-.5.6-1 1-1.3.5-.4 1-.7 1.6-.8.3-.5 1-.6 1.7-.6"/></g><g><defs><path id="cm" d="M0 229.3h391.4v41.5H0z"/></defs><clipPath id="cn"><use xlink:href="#cm" overflow="visible"/></clipPath><path clip-path="url(#cn)" fill="#E5007E" d="M212 233.9h1.9v15.2H212z"/></g><g><defs><path id="co" d="M0 229.3h391.4v41.5H0z"/></defs><clipPath id="cp"><use xlink:href="#co" overflow="visible"/></clipPath><path clip-path="url(#cp)" fill="#E5007E" d="M226.5 249.1c-.2-.7-.4-1.3-.6-2-.2-.7-.4-1.3-.6-2h-6c-.2.7-.4 1.3-.6 2-.2.7-.4 1.3-.6 2h-1.9c.9-2.7 1.8-5.4 2.6-7.9s1.6-4.9 2.4-7.3h2.4l5 15.2h-2.1zm-1.7-5.4c-.3-1.1-.7-2.3-1-3.4-.3-1.1-.7-2.3-1-3.4l-.5-1.5h-.1l-.5 1.5c-.2.6-.3 1.1-.5 1.6s-.3 1-.5 1.6c-.2.5-.3 1.1-.5 1.7l-.6 1.8 5.2.1z"/></g><g><defs><path id="cq" d="M0 229.3h391.4v41.5H0z"/></defs><clipPath id="cr"><use xlink:href="#cq" overflow="visible"/></clipPath><path clip-path="url(#cr)" fill="#E5007E" d="M230.5 249.1v-15.2h4.9c1.2 0 2.2.2 3 .6.8.4 1.4 1 1.9 1.6.5.7.8 1.5 1 2.4.2.9.3 1.9.3 2.9s-.1 2-.3 2.9c-.2.9-.6 1.7-1 2.4-.5.7-1.1 1.2-2 1.6-.8.4-1.9.6-3.1.6l-4.7.2zm1.9-13.8v12.3H235.8c.3 0 .7-.1 1-.2.4-.1.7-.3 1-.6.3-.3.7-.6.9-1 .3-.5.5-1 .7-1.7.2-.7.3-1.5.3-2.5s-.1-1.8-.2-2.5c-.2-.7-.4-1.3-.6-1.7-.3-.5-.5-.8-.8-1.1-.3-.3-.7-.5-1-.6-.3-.1-.7-.2-1-.3-.3 0-.6-.1-.9-.1h-2.8z"/></g><g><defs><path id="cs" d="M0 229.3h391.4v41.5H0z"/></defs><clipPath id="ct"><use xlink:href="#cs" overflow="visible"/></clipPath><path clip-path="url(#ct)" fill="#E5007E" d="M244.7 249.1v-15.2h9.3v1.4h-7.4v5.1h6.2v1.3h-6.2v5.9h7.7v1.5z"/></g><g><defs><path id="cu" d="M0 229.3h391.4v41.5H0z"/></defs><clipPath id="cv"><use xlink:href="#cu" overflow="visible"/></clipPath><path clip-path="url(#cv)" fill="#0080C8" d="M47.2 257.5l.7-.8 3.3-3.6H54l-4.3 4.4 4.5 6.9h-2.8c-.6-.9-1.1-1.8-1.6-2.6-.6-.8-1.1-1.7-1.6-2.6l-1 1v4.2h-2.4v-11.3h2.4v4.4z"/></g><g><defs><path id="cw" d="M0 229.3h391.4v41.5H0z"/></defs><clipPath id="cx"><use xlink:href="#cw" overflow="visible"/></clipPath><path clip-path="url(#cx)" fill="#0080C8" d="M63.9 256.4c0 .3 0 .6-.1.9s-.2.6-.4.8c-.2.3-.4.5-.6.7-.2.2-.5.4-.8.5.5.2.8.4 1 .8.2.4.4.8.5 1.2l.9 3.1H62c-.1-.5-.3-1-.4-1.5-.1-.5-.3-1-.4-1.5-.2-.6-.4-1-.7-1.3s-.7-.3-1.1-.3h-1.2v4.5h-2.4V253h4.5c.7 0 1.2.1 1.6.3.5.2.8.4 1.1.7.3.3.5.7.7 1 .1.5.2.9.2 1.4m-4.1 1.8c.2 0 .4 0 .6-.1.2-.1.4-.2.5-.3.2-.1.3-.3.4-.5s.2-.5.2-.8c0-.6-.2-1-.5-1.2s-.7-.4-1.2-.4h-1.7v3.3h1.7z"/></g><g><defs><path id="cy" d="M0 229.3h391.4v41.5H0z"/></defs><clipPath id="cz"><use xlink:href="#cy" overflow="visible"/></clipPath><path clip-path="url(#cz)" fill="#0080C8" d="M73.5 264.4l-.8-2.6h-4.1l-.8 2.6h-2.4l3.8-11.3h3l3.7 11.3h-2.4zm-2.1-7.2l-.7-2.5h-.1l-.7 2.5-.8 2.9h3.1l-.8-2.9z"/></g><g><defs><path id="cA" d="M0 229.3h391.4v41.5H0z"/></defs><clipPath id="cB"><use xlink:href="#cA" overflow="visible"/></clipPath><path clip-path="url(#cB)" fill="#0080C8" d="M81.1 252.9c.6 0 1.1.1 1.8.2.6.1 1.2.3 1.8.6l-.6 1.6c-.6-.2-1.1-.4-1.6-.5-.5-.1-1-.1-1.4-.1-.5 0-.9.1-1.2.4-.3.2-.4.6-.4 1.1 0 .2.1.4.2.6.1.2.3.3.5.4.2.1.4.2.7.3.3.1.6.1.8.2.4.1.8.2 1.2.4.4.1.8.3 1.2.6.4.3.7.6.9 1 .2.4.4 1 .4 1.6 0 1.1-.4 1.9-1.2 2.5-.8.6-1.9.9-3.5.9h-.9c-.3 0-.7-.1-1-.2-.4-.1-.7-.2-1.1-.3-.4-.1-.7-.3-1-.4l.6-1.7c.8.3 1.5.5 2.1.6.6.1 1.1.1 1.5.1.7 0 1.1-.1 1.5-.3.3-.2.5-.6.5-1.1 0-.2 0-.4-.1-.6-.1-.2-.2-.3-.4-.4l-.6-.3c-.2-.1-.5-.2-.8-.2-.6-.1-1.1-.3-1.6-.4-.5-.2-1-.3-1.3-.6-.4-.2-.7-.6-.9-.9-.2-.4-.3-.8-.3-1.4 0-1 .4-1.9 1-2.5.8-.9 1.8-1.2 3.2-1.2"/></g><g><defs><path id="cC" d="M0 229.3h391.4v41.5H0z"/></defs><clipPath id="cD"><use xlink:href="#cC" overflow="visible"/></clipPath><path clip-path="url(#cD)" fill="#0080C8" d="M94.6 260.9v-7.8h2.3v11.3h-2.4l-3.8-6.1c-.2-.3-.4-.6-.6-1-.2-.3-.4-.6-.6-1v7.9h-2.3V253h2.4c.6.9 1.1 1.8 1.7 2.7.6.9 1.1 1.8 1.7 2.7l1.6 2.5c-.1 0 0 0 0 0z"/></g><g><defs><path id="cE" d="M0 229.3h391.4v41.5H0z"/></defs><clipPath id="cF"><use xlink:href="#cE" overflow="visible"/></clipPath><path clip-path="url(#cF)" fill="#0080C8" d="M109.2 258.8c0 .8-.1 1.6-.3 2.3-.2.7-.5 1.3-1 1.8-.4.5-1 .9-1.6 1.2-.6.3-1.4.5-2.2.5-.9 0-1.7-.1-2.4-.4-.7-.3-1.2-.7-1.6-1.2s-.8-1.1-1-1.8c-.2-.7-.3-1.5-.3-2.4 0-.8.1-1.6.3-2.3.2-.7.5-1.3 1-1.9.4-.5 1-1 1.6-1.3.7-.3 1.4-.5 2.4-.5.9 0 1.7.2 2.4.5s1.2.7 1.6 1.3c.4.5.7 1.1.9 1.9.1.7.2 1.5.2 2.3m-2.5 0c0-.5 0-1-.1-1.5s-.2-1-.4-1.3c-.2-.4-.5-.7-.8-1-.3-.2-.8-.4-1.3-.4-.6 0-1 .1-1.3.4-.4.2-.6.6-.8.9-.2.4-.4.8-.4 1.3-.1.5-.1 1-.1 1.6 0 1.3.2 2.3.6 2.9.4.7 1.1 1 2.1 1 .5 0 .8-.1 1.2-.3.3-.2.6-.5.8-.8.2-.4.4-.8.5-1.3-.1-.4 0-.9 0-1.5"/></g><g><defs><path id="cG" d="M0 229.3h391.4v41.5H0z"/></defs><clipPath id="cH"><use xlink:href="#cG" overflow="visible"/></clipPath><path clip-path="url(#cH)" fill="#0080C8" d="M113.1 260.4l-3.6-7.2h2.5c.2.5.5 1 .7 1.4.2.5.5 1 .7 1.4l1 2.3h.1c.2-.4.4-.8.5-1.2.2-.4.3-.8.5-1.2l1.4-2.8h2.5c-.6 1.1-1.2 2.3-1.8 3.5-.6 1.2-1.2 2.3-1.8 3.5v4.3h-2.6l-.1-4z"/></g><g><defs><path id="cI" d="M0 229.3h391.4v41.5H0z"/></defs><clipPath id="cJ"><use xlink:href="#cI" overflow="visible"/></clipPath><path clip-path="url(#cJ)" fill="#0080C8" d="M126.8 264.4l-.8-2.6h-4l-.8 2.6h-2.4l3.8-11.3h3l3.7 11.3h-2.5zm-2-7.2l-.7-2.5h-.1l-.7 2.5-.8 2.9h3l-.7-2.9z"/></g><g><defs><path id="cK" d="M0 229.3h391.4v41.5H0z"/></defs><clipPath id="cL"><use xlink:href="#cK" overflow="visible"/></clipPath><path clip-path="url(#cL)" fill="#0080C8" d="M139 256.4c0 .3 0 .6-.1.9s-.2.6-.4.8c-.2.3-.4.5-.6.7-.2.2-.5.4-.8.5.5.2.8.4 1 .8.2.4.4.8.5 1.2l.9 3.1h-2.4c-.1-.5-.3-1-.4-1.5-.1-.5-.3-1-.4-1.5-.2-.6-.4-1-.7-1.3s-.7-.3-1.1-.3h-1.2v4.5h-2.4V253h4.5c.6 0 1.2.1 1.6.3.5.2.8.4 1.1.7.3.3.5.7.7 1 .1.5.2.9.2 1.4m-4.1 1.8c.2 0 .4 0 .6-.1.2-.1.4-.2.5-.3.2-.1.3-.3.4-.5.1-.2.2-.5.2-.8 0-.6-.2-1-.5-1.2-.3-.3-.7-.4-1.2-.4h-1.7v3.3h1.7z"/></g><g><defs><path id="cM" d="M0 229.3h391.4v41.5H0z"/></defs><clipPath id="cN"><use xlink:href="#cM" overflow="visible"/></clipPath><path clip-path="url(#cN)" fill="#0080C8" d="M145.2 252.9c.6 0 1.1.1 1.8.2.6.1 1.2.3 1.8.6l-.6 1.6c-.6-.2-1.1-.4-1.6-.5-.5-.1-1-.1-1.4-.1-.5 0-.9.1-1.2.4-.3.2-.4.6-.4 1.1 0 .2.1.4.2.6.1.2.3.3.5.4.2.1.4.2.7.3.3.1.5.1.8.2.4.1.8.2 1.2.4.4.1.8.3 1.2.6.4.3.7.6.9 1 .2.4.4 1 .4 1.6 0 1.1-.4 1.9-1.2 2.5s-2 .9-3.5.9h-.9c-.3 0-.7-.1-1-.2-.4-.1-.7-.2-1.1-.3-.4-.1-.7-.3-1-.4l.6-1.7c.8.3 1.5.5 2.1.6.6.1 1.1.1 1.5.1.7 0 1.1-.1 1.5-.3.3-.2.5-.6.5-1.1 0-.2 0-.4-.1-.6-.1-.2-.2-.3-.4-.4l-.6-.3c-.2-.1-.5-.2-.8-.2-.6-.1-1.1-.3-1.6-.4-.5-.2-.9-.3-1.3-.6-.4-.2-.7-.6-.9-.9-.2-.4-.3-.8-.3-1.4 0-1 .4-1.9 1-2.5.7-.9 1.8-1.2 3.2-1.2"/></g><g><defs><path id="cO" d="M0 229.3h391.4v41.5H0z"/></defs><clipPath id="cP"><use xlink:href="#cO" overflow="visible"/></clipPath><path clip-path="url(#cP)" fill="#0080C8" d="M153.6 257.5l.7-.8 3.3-3.6h2.8l-4.2 4.4 4.5 6.9h-2.8c-.6-.9-1.1-1.8-1.6-2.6-.6-.8-1.1-1.7-1.6-2.6l-1 1v4.2h-2.4v-11.3h2.4l-.1 4.4z"/></g><g><defs><path id="cQ" d="M0 229.3h391.4v41.5H0z"/></defs><clipPath id="cR"><use xlink:href="#cQ" overflow="visible"/></clipPath><path clip-path="url(#cR)" fill="#0080C8" d="M167.3 262.7h4.6v1.6h-7.8v-1.4c.3-.3.7-.6 1-.9.4-.3.7-.7 1.1-1l1.1-1.1c.4-.4.7-.7.9-1.1.3-.4.5-.7.7-1.1.2-.4.2-.7.2-1 0-.5-.1-.9-.4-1.1-.3-.3-.7-.4-1.3-.4-.3 0-.7 0-1.1.2-.5.1-1 .3-1.6.7l-.7-1.4c.7-.5 1.4-.8 2.1-1 .7-.2 1.3-.3 1.8-.3 1.1 0 2 .3 2.7.8.7.6 1 1.4 1 2.4 0 .6-.1 1.2-.4 1.7-.3.6-.6 1.1-1 1.6s-.9 1-1.3 1.5c-.5.5-1 .9-1.3 1.2l-.3.1z"/></g><g><defs><path id="cS" d="M0 229.3h391.4v41.5H0z"/></defs><clipPath id="cT"><use xlink:href="#cS" overflow="visible"/></clipPath><path clip-path="url(#cT)" fill="#0080C8" d="M181.5 258.9c0 .7-.1 1.4-.2 2.1-.1.7-.4 1.3-.7 1.8-.4.5-.8 1-1.3 1.2-.6.3-1.2.5-2 .5s-1.6-.2-2.1-.5c-.6-.3-1-.7-1.3-1.2-.3-.5-.6-1.1-.7-1.8-.1-.7-.2-1.4-.2-2.1 0-.7.1-1.4.2-2.1.1-.7.4-1.3.7-1.8.3-.5.8-1 1.3-1.3s1.3-.5 2.2-.5c.9 0 1.6.2 2.2.5.6.3 1 .8 1.3 1.3.3.6.6 1.1.7 1.8-.1.8-.1 1.5-.1 2.1m-2.3.1c0-.4 0-.8-.1-1.3 0-.5-.1-.9-.3-1.3-.1-.4-.3-.7-.6-1-.3-.3-.6-.4-1.1-.4-.5 0-.8.1-1.1.4-.3.3-.5.6-.6 1-.2.4-.2.8-.3 1.3-.1.5-.1.9-.1 1.3 0 .5 0 1 .1 1.5s.2.8.3 1.2c.2.4.4.6.6.8.3.2.6.3 1 .3s.7-.1 1-.3c.3-.2.5-.5.6-.8.1-.4.3-.8.3-1.2.3-.6.3-1 .3-1.5"/></g><g><defs><path id="cU" d="M0 229.3h391.4v41.5H0z"/></defs><clipPath id="cV"><use xlink:href="#cU" overflow="visible"/></clipPath><path clip-path="url(#cV)" fill="#0080C8" d="M184.6 255.5l-2.3.2v-1.5l2.5-.8h2.1v11h-2.3v-8.9z"/></g><g><defs><path id="cW" d="M0 229.3h391.4v41.5H0z"/></defs><clipPath id="cX"><use xlink:href="#cW" overflow="visible"/></clipPath><path clip-path="url(#cX)" fill="#0080C8" d="M194.6 259.8c-.8.5-1.6.7-2.4.7-.5 0-.9-.1-1.3-.2s-.8-.4-1-.6c-.3-.3-.5-.6-.7-1.1-.2-.4-.3-1-.3-1.5s.1-1.1.3-1.6c.2-.5.5-.8.8-1.1.4-.3.8-.6 1.2-.7s1-.3 1.6-.3c.8 0 1.4.1 2 .4.5.3 1 .6 1.3 1.1.3.5.6 1 .7 1.6.2.6.2 1.3.2 2 0 .8-.1 1.7-.3 2.4s-.5 1.4-.8 1.9-.9 1-1.5 1.3c-.6.3-1.3.5-2.2.5-.6 0-1.1 0-1.5-.1-.5-.1-.8-.2-1-.3l.4-1.6c.4.1.8.2 1.1.3.4 0 .7.1.9.1.5 0 .8-.1 1.2-.3.3-.2.6-.5.8-.8s.4-.6.5-1 .1-.9 0-1.1zm-3.5-2.8c0 .3 0 .5.1.7.1.2.1.4.3.6.1.2.3.3.5.4.2.1.5.1.8.1.3 0 .5 0 .8-.1.2-.1.4-.1.6-.2.2-.1.3-.2.4-.2.1-.1.2-.1.2-.1v-.3c0-.3 0-.6-.1-.9 0-.3-.1-.6-.3-.9-.1-.3-.3-.5-.6-.7-.3-.2-.6-.3-1-.3-.6 0-1 .2-1.3.5-.3.4-.4.8-.4 1.4"/></g><g><defs><path id="cY" d="M0 229.3h391.4v41.5H0z"/></defs><clipPath id="cZ"><use xlink:href="#cY" overflow="visible"/></clipPath><path clip-path="url(#cZ)" fill="#0080C8" d="M209.2 256.2c0 .7-.2 1.3-.5 1.8-.3.6-.8.9-1.5 1.1.4.1.8.4 1 .8s.4.8.5 1.2l.9 3.3h-1.4l-.9-3.1c-.1-.4-.2-.7-.4-.9-.1-.2-.3-.4-.5-.6l-.6-.3c-.2-.1-.5-.1-.8-.1h-1.8v4.9h-1.4V253h3.9c1.1 0 2 .3 2.5.8.7.7 1 1.5 1 2.4m-3.6 2.2c.2 0 .5 0 .7-.1.3-.1.5-.2.7-.3.2-.2.4-.4.5-.7.1-.3.2-.6.2-1.1 0-.4-.1-.7-.2-1-.1-.3-.3-.5-.5-.7-.2-.2-.4-.3-.7-.4-.3-.1-.6-.1-.8-.1h-2.3v4.3l2.4.1z"/></g><g><defs><path id="da" d="M0 229.3h391.4v41.5H0z"/></defs><clipPath id="db"><use xlink:href="#da" overflow="visible"/></clipPath><path clip-path="url(#db)" fill="#0080C8" d="M220.1 260.4c0 .6-.1 1.2-.3 1.7s-.5 1-.8 1.3c-.4.4-.8.7-1.3.8-.6.2-1.2.3-1.9.3-1.5 0-2.6-.4-3.3-1.1-.7-.8-1-1.8-1-3.1V253h1.4v7.3c0 1 .3 1.8.8 2.3.5.5 1.2.8 2.2.8 1 0 1.7-.3 2.2-.8.5-.5.8-1.3.8-2.4v-7.3h1.4l-.2 7.5z"/></g><g><defs><path id="dc" d="M0 229.3h391.4v41.5H0z"/></defs><clipPath id="dd"><use xlink:href="#dc" overflow="visible"/></clipPath><path clip-path="url(#dd)" fill="#0080C8" d="M226.1 252.9c.5 0 1 0 1.5.1.6.1 1.1.3 1.6.6l-.5 1c-.6-.2-1-.4-1.5-.5-.5-.1-.9-.1-1.2-.1-.7 0-1.2.2-1.6.5-.4.3-.6.8-.6 1.5 0 .3.1.6.2.8.1.2.3.4.6.5.2.1.5.3.8.4l.9.3 1.2.3c.4.1.8.3 1.2.6.4.2.7.6.9 1s.3.9.3 1.5-.1 1-.3 1.5c-.2.4-.5.8-.8 1s-.8.5-1.3.6c-.5.1-1.1.2-1.7.2-.6 0-1.2-.1-1.9-.2s-1.2-.4-1.8-.7l.5-1c.7.3 1.3.5 1.8.6.5.1 1 .2 1.4.2.8 0 1.5-.2 2-.5s.7-.8.7-1.7c0-.3-.1-.6-.2-.8-.1-.2-.3-.4-.5-.6-.2-.2-.5-.3-.8-.4-.3-.1-.6-.2-1-.3-.5-.1-1-.3-1.4-.4-.5-.1-.8-.3-1.2-.6-.3-.2-.6-.5-.8-.8-.2-.3-.3-.8-.3-1.3s.1-1 .3-1.3c.2-.4.5-.7.8-1 .3-.3.7-.5 1.2-.6.5-.3 1-.4 1.5-.4"/></g><g><defs><path id="de" d="M0 229.3h391.4v41.5H0z"/></defs><clipPath id="df"><use xlink:href="#de" overflow="visible"/></clipPath><path clip-path="url(#df)" fill="#0080C8" d="M235.6 252.9c.5 0 1 0 1.5.1.6.1 1.1.3 1.6.6l-.5 1c-.6-.2-1-.4-1.5-.5-.5-.1-.9-.1-1.2-.1-.7 0-1.2.2-1.6.5-.4.3-.6.8-.6 1.5 0 .3.1.6.2.8.1.2.3.4.6.5.2.1.5.3.8.4l.9.3 1.2.3c.4.1.8.3 1.2.6.4.2.7.6.9 1s.3.9.3 1.5-.1 1-.3 1.5c-.2.4-.5.8-.8 1s-.8.5-1.3.6c-.5.1-1.1.2-1.7.2-.6 0-1.2-.1-1.9-.2s-1.2-.4-1.8-.7l.5-1c.7.3 1.3.5 1.8.6.5.1 1 .2 1.4.2.8 0 1.5-.2 2-.5s.7-.8.7-1.7c0-.3-.1-.6-.2-.8-.1-.2-.3-.4-.5-.6-.2-.2-.5-.3-.8-.4-.3-.1-.6-.2-1-.3-.5-.1-1-.3-1.4-.4-.5-.1-.8-.3-1.2-.6-.4-.2-.6-.5-.8-.8-.2-.3-.3-.8-.3-1.3s.1-1 .3-1.3c.2-.4.5-.7.8-1 .3-.3.7-.5 1.2-.6.4-.3.9-.4 1.5-.4"/></g><g><defs><path id="dg" d="M0 229.3h391.4v41.5H0z"/></defs><clipPath id="dh"><use xlink:href="#dg" overflow="visible"/></clipPath><path clip-path="url(#dh)" fill="#0080C8" d="M241.8 264.4v-11.3h1.4v11.3h-1.4z"/></g><g><defs><path id="di" d="M0 229.3h391.4v41.5H0z"/></defs><clipPath id="dj"><use xlink:href="#di" overflow="visible"/></clipPath><path clip-path="url(#dj)" fill="#0080C8" d="M252.6 264.4c-.2-.5-.3-1-.5-1.5s-.3-1-.5-1.5h-4.5c-.2.5-.3 1-.5 1.5s-.3 1-.5 1.5h-1.4c.7-2.1 1.3-4 2-5.9.6-1.9 1.2-3.7 1.8-5.4h1.8l3.7 11.4c.1-.1-1.4-.1-1.4-.1zm-1.3-4c-.3-.8-.5-1.7-.8-2.5-.3-.8-.5-1.7-.8-2.5l-.3-1.1h-.1l-.3 1.1c-.1.4-.2.8-.4 1.2-.1.4-.2.8-.4 1.2-.1.4-.2.8-.4 1.2-.1.4-.3.9-.4 1.4h3.9z"/></g><g><defs><path id="dk" d="M0 229.3h391.4v41.5H0z"/></defs><clipPath id="dl"><use xlink:href="#dk" overflow="visible"/></clipPath></g><g><defs><path id="dm" d="M0 229.3h391.4v41.5H0z"/></defs><clipPath id="dn"><use xlink:href="#dm" overflow="visible"/></clipPath><path clip-path="url(#dn)" fill="#007AC2" d="M298.3 263.4h5.7v1h-7.6v-1c.3-.3.7-.6 1.1-1l1.2-1.2 1.3-1.3c.4-.4.8-.9 1.1-1.3.3-.4.6-.9.8-1.3.2-.4.3-.9.3-1.3 0-.7-.2-1.3-.7-1.6-.4-.3-1-.5-1.7-.5-.3 0-.7 0-1.2.1s-1.1.3-1.8.8l-.5-.8c.3-.3.7-.5 1-.6.3-.2.7-.3 1-.4.3-.1.6-.2.9-.2.3 0 .5-.1.7-.1.5 0 1 .1 1.4.2s.8.3 1.1.6c.3.3.6.6.7 1s.3.9.3 1.4c0 .7-.2 1.4-.6 2.1-.4.7-.8 1.4-1.4 2s-1.1 1.2-1.7 1.8c-.5.6-1 1.1-1.4 1.6z"/></g><g><defs><path id="do" d="M0 229.3h391.4v41.5H0z"/></defs><clipPath id="dp"><use xlink:href="#do" overflow="visible"/></clipPath><path clip-path="url(#dp)" fill="#007AC2" d="M314.3 258.8c0 .7-.1 1.4-.2 2.1-.1.7-.4 1.3-.7 1.9-.3.6-.7 1-1.3 1.4s-1.2.5-2 .5c-.9 0-1.6-.2-2.2-.5s-1-.8-1.3-1.3c-.3-.5-.5-1.2-.6-1.9-.1-.7-.2-1.4-.2-2.1 0-.6.1-1.3.2-2s.3-1.4.6-1.9c.3-.6.7-1.1 1.3-1.5s1.3-.6 2.2-.6c.6 0 1.1.1 1.6.3.4.2.8.4 1.1.7.3.3.6.7.8 1.1.2.4.3.8.4 1.3.1.4.2.9.2 1.3.1.3.1.8.1 1.2m-1.4 0c0-.4 0-1-.1-1.5 0-.6-.2-1.1-.3-1.6-.2-.5-.5-.9-.8-1.2-.4-.3-.9-.5-1.5-.5-.7 0-1.2.2-1.6.5-.4.3-.7.7-.9 1.2-.2.5-.3 1-.4 1.6-.1.6-.1 1.1-.1 1.6 0 .6 0 1.2.1 1.8.1.6.2 1.1.4 1.5.2.4.5.7.9 1 .4.2.9.4 1.5.4s1-.1 1.4-.4c.4-.3.6-.6.8-1.1.2-.4.3-.9.4-1.5.2-.7.2-1.3.2-1.8"/></g><g><defs><path id="dq" d="M0 229.3h391.4v41.5H0z"/></defs><clipPath id="dr"><use xlink:href="#dq" overflow="visible"/></clipPath><path clip-path="url(#dr)" fill="#007AC2" d="M319.2 254.3l-2.6.2v-1l2.7-.5h1.3v11.4h-1.4z"/></g><g><defs><path id="ds" d="M0 229.3h391.4v41.5H0z"/></defs><clipPath id="dt"><use xlink:href="#ds" overflow="visible"/></clipPath><path clip-path="url(#dt)" fill="#007AC2" d="M331.8 259.2c-.4.3-.9.5-1.3.6-.5.2-1 .2-1.6.2-.5 0-.9-.1-1.3-.2s-.8-.3-1.1-.6c-.3-.3-.6-.7-.8-1.1-.2-.4-.3-1-.3-1.6 0-.6.1-1.1.3-1.6.2-.5.5-.9.8-1.2s.7-.6 1.2-.7c.5-.2 1-.3 1.6-.3.8 0 1.4.1 1.9.4.5.3.9.7 1.2 1.2.3.5.5 1.1.6 1.7.1.7.2 1.4.2 2.1 0 .9-.1 1.8-.3 2.6-.2.8-.5 1.5-.8 2-.4.6-.8 1-1.4 1.3-.6.3-1.2.5-2 .5-.6 0-1.2-.1-1.6-.2-.5-.1-.8-.2-1-.3.1-.2.1-.3.2-.5 0-.2.1-.3.2-.5.4.2.8.3 1.3.3.4.1.8.1 1 .1.6 0 1.2-.2 1.6-.5.4-.3.7-.7 1-1.1.2-.4.4-.9.5-1.4-.2-.4-.1-.8-.1-1.2zm-2.7-.2c.4 0 .8 0 1.1-.1.3-.1.6-.2.8-.3.2-.1.4-.2.5-.3.1-.1.2-.1.2-.2v-.4c0-.4 0-.8-.1-1.2-.1-.4-.2-.8-.4-1.2-.2-.4-.4-.7-.8-1-.3-.3-.8-.4-1.4-.4-.8 0-1.5.2-1.9.7-.4.5-.6 1.1-.6 1.8 0 .4 0 .7.1 1 .1.3.2.6.4.8.2.2.4.4.7.5.6.2.9.3 1.4.3"/></g><g><defs><path id="du" d="M0 229.3h391.4v41.5H0z"/></defs><clipPath id="dv"><use xlink:href="#du" overflow="visible"/></clipPath><path clip-path="url(#dv)" fill="#007AC2" d="M283.3 233.9h1.9v30.5h-1.9z"/></g><g><g fill="#E6007C"><path d="M301.3 245.4l.8-2.7 2.6-8.8h1.7l-4.2 13.2h-1.9l-4.2-13.2h1.7l2.6 8.9.9 2.6zM318.9 240.5c0 1-.1 1.8-.3 2.7-.2.8-.6 1.5-1 2.1-.5.6-1 1.1-1.7 1.4s-1.5.5-2.4.5c-1 0-1.9-.2-2.6-.5-.7-.3-1.3-.8-1.8-1.3s-.8-1.3-1-2.1c-.2-.8-.3-1.7-.3-2.8 0-.9.1-1.8.3-2.6.2-.8.5-1.6 1-2.2s1-1.1 1.8-1.5c.7-.4 1.6-.6 2.7-.6s1.9.2 2.6.6 1.3.9 1.7 1.5c.4.6.7 1.4.9 2.2s.1 1.7.1 2.6zm-1.7.1c0-.7 0-1.3-.1-2s-.3-1.3-.6-1.8-.7-1-1.1-1.3c-.5-.3-1.1-.5-1.9-.5s-1.5.2-2 .5-.9.7-1.2 1.3c-.3.5-.5 1.1-.6 1.8s-.2 1.4-.2 2.1c0 1.8.3 3.1.9 4 .6.9 1.6 1.4 3.1 1.4.6 0 1.2-.1 1.7-.4.5-.3.9-.7 1.2-1.2s.5-1.1.7-1.7c0-.7.1-1.4.1-2.2zM321.6 247.1v-13.2h1.6v12h7v1.2h-8.6zM342 242.4c0 .7-.1 1.4-.3 2-.2.6-.5 1.1-.9 1.6s-.9.8-1.6 1-1.4.3-2.2.3c-1.8 0-3-.4-3.8-1.3s-1.2-2.1-1.2-3.6v-8.5h1.6v8.5c0 1.2.3 2.1.9 2.7.6.6 1.4.9 2.5.9s1.9-.3 2.5-.9c.6-.6.9-1.5.9-2.7v-8.5h1.6v8.5zM353.4 244.4v-10.5h1.6v13.2h-1.6l-5.1-8-1.7-2.8V247H345v-13.2h1.6c.8 1.3 1.6 2.5 2.4 3.7.8 1.2 1.6 2.5 2.4 3.7l2 3.2zM361.1 247.1v-11.9h-4.3v-1.3H367v1.3h-4.2v11.9h-1.7zM368.9 247.1v-13.2h8.1v1.3h-6.4v4.4h5.4v1.2h-5.4v5.1h6.7v1.3h-8.4zM379.8 247.1v-13.2h8.1v1.3h-6.4v4.4h5.4v1.2h-5.4v5.1h6.7v1.3h-8.4zM399.2 237.5c0 .8-.2 1.5-.6 2.1-.4.6-1 1.1-1.7 1.3.5.2.9.4 1.1.9.2.4.4.9.6 1.5l1.1 3.8H398l-1-3.6c-.1-.4-.3-.8-.4-1.1-.2-.3-.3-.5-.5-.7s-.4-.3-.7-.3c-.3-.1-.5-.1-.9-.1h-2.1v5.8h-1.6v-13.2h4.5c1.3 0 2.3.3 2.9 1 .7.7 1 1.5 1 2.6zm-4.2 2.6c.3 0 .5 0 .8-.1.3-.1.6-.2.8-.4s.5-.4.6-.8.2-.7.2-1.3c0-.4-.1-.8-.2-1.1-.1-.3-.3-.6-.5-.8-.2-.2-.5-.3-.8-.4-.3-.1-.6-.1-1-.1h-2.6v5h2.7z"/></g></g></svg>