<svg xmlns="http://www.w3.org/2000/svg" viewBox="0 200 5000 1600"><path fill="#008FD3" d="M114.1 860.3l19.2 39.7s.6 1.3.6 1.9c-.6.6-3.2.6-3.2.6l-20.5 1.9s-1.9 0-1.9 1.3 1.9 1.3 5.1 1.3c2.6 0 23.1 2.6 23.1 2.6s1.9 0 3.2 1.9c.6 1.9 2.6 3.8 2.6 3.8s1.3 1.9 0 2.6c-1.3.6-7.1.6-7.1.6L98 923s-1.3 0-1.3.6.6 1.3 1.9 1.3 25.6 2.6 25.6 2.6 2.6 0 3.8 1.3l3.8 3.8s1.3 1.3.6 1.3c-1.3.6-8.3 1.3-8.3 1.3l-38.5 3.2s-1.3 0-1.3.6.6 1.3 1.9 1.3 56.4 3.8 56.4 3.8h2.6l.6.6 4.5 4.5s1.3.6.6 1.3c0 .6-1.3.6-1.3.6l-46.2 4.5s-1.3 0-1.9 1.3c0 1.3 1.3 1.3 1.3 1.3l58.3 4.5s1.9 0 3.2 1.3l4.5 4.5.6 1.3c-.6.6-3.2.6-3.2.6l-44.9 3.8s-1.3 0-1.3.6.6 1.3 1.9 1.3c.6 0 47.4 4.5 47.4 4.5s1.9 0 1.3 1.9c-.6 1.9-1.3 4.5-1.3 4.5s0 1.3-2.6 1.9c-2.6.6-26.9 3.2-26.9 3.2s-1.3 0-1.3.6 0 1.3 1.9 1.3 25 2.6 25 2.6 1.9 0 1.9 2.6c-.6 2.6-5.1 30.1-5.1 30.1s0 1.3-.6 1.3-3.2-1.9-3.2-1.9l-46.8-28.8-54.5 32.7s-1.9 1.3-3.8 0-.6-5.8-.6-5.8L63 968.5 19.2 925s-1.9-3.2.6-4.5c3.2-1.3 62.2-9 62.2-9l27.6-55.1s.6-2.6 3.2-2.6c.7 3.3 1.3 6.5 1.3 6.5"/><path fill="#FBBE00" d="M232.7 860.9l19.2 39.7s.6 1.3.6 1.9c-.6.6-3.2.6-3.2.6l-21.2 1.9s-1.9 0-1.9 1.3 1.9 1.3 5.1 1.3c2.6 0 23.1 2.6 23.1 2.6s1.9 0 3.2 1.9c.6 1.9 2.6 4.5 2.6 4.5s1.3 1.9 0 1.9c-1.3.6-7.1.6-7.1.6l-37.2 4.5s-1.3 0-1.3.6.6 1.3 1.9 1.3 25.6 2.6 25.6 2.6 2.6 0 3.8 1.3l3.8 3.8s1.3 1.3.6 1.3c-1.3.6-8.3 1.3-8.3 1.3l-38.5 3.2s-1.3 0-1.3 1.3c0 .6.6 1.3 1.9 1.3 1.3 0 55.8 3.8 55.8 3.8h2.6l.6.6 4.5 4.5s1.3.6 1.3 1.3c0 .6-1.3.6-1.3.6l-46.2 4.5s-1.3 0-1.9 1.3c0 1.3 1.3 1.3 1.3 1.3l58.3 4.5s1.9 0 3.2 1.3l4.5 4.5.6 1.3c-.6.6-3.2.6-3.2.6l-44.9 3.8s-1.3 0-1.3.6.6 1.3 1.3 1.3c1.3 0 48.1 4.5 48.1 4.5s1.9 0 1.3 1.9-1.3 5.1-1.3 5.1 0 1.3-2.6 1.9-26.9 3.2-26.9 3.2-1.3 0-1.3.6 0 1.3 1.9 1.3 25.6 2.6 25.6 2.6 1.9 0 1.3 2.6-5.8 30.8-5.8 30.8 0 1.3-.6 1.3-3.2-1.9-3.2-1.9l-46.8-28.8-54.5 32.7s-1.9 1.3-3.8.6c-1.3-1.3-.6-5.8-.6-5.8l10.3-58.3-44.2-43.6s-1.9-3.2.6-4.5c3.8-1.3 62.2-9 62.2-9l27.6-55.1s.6-2.6 3.2-2.6c2.3.8 2.9 4 2.9 4"/><path fill="#00151D" d="M352.6 860.9l19.2 39.7s.6 1.3.6 1.9c-.6.6-3.2.6-3.2.6L348 905s-1.9 0-1.9 1.3 2.6 1.3 5.1 1.3c2.6 0 23.1 2.6 23.1 2.6s1.9 0 3.2 1.9c.6 1.9 2.6 4.5 2.6 4.5s1.3 1.9 0 1.9c-1.3.6-7.1.6-7.1.6l-37.2 4.5s-1.3 0-1.3.6.6 1.3 1.9 1.3 25.6 2.6 25.6 2.6 2.6 0 3.8 1.3l3.8 3.8s1.3 1.3.6 1.3c-1.3.6-8.3 1.3-8.3 1.3l-38.5 3.2s-1.3 0-1.3 1.3c0 .6.6 1.3 1.9 1.3s56.4 3.8 56.4 3.8h2.6l.6.6 4.5 4.5s1.3.6.6 1.3c-.6.6-1.3.6-1.3.6l-46.2 4.5s-1.3 0-1.9 1.3c0 1.3 1.3 1.3 1.3 1.3l58.3 4.5s1.9 0 3.2 1.3l4.5 4.5.6 1.3c-.6.6-3.2.6-3.2.6l-44.9 3.8s-1.3 0-1.3.6.6 1.3 1.9 1.3c.6 0 48.1 4.5 48.1 4.5s1.9 0 1.3 1.9-1.3 5.1-1.3 5.1 0 1.3-2.6 1.9c-2.6.6-26.9 3.2-26.9 3.2s-1.3 0-1.3.6 0 1.3 1.9 1.3 25.6 2.6 25.6 2.6 1.9 0 1.9 2.6c-.6 2.6-5.8 30.8-5.8 30.8s0 1.3-.6 1.3-3.2-1.9-3.2-1.9l-46.8-28.8-54.5 32.7s-1.9 1.3-3.8.6c-1.3-1.3-.6-5.8-.6-5.8l10.3-58.3-44.9-43.6s-1.9-3.2.6-4.5c3.2-1.3 61.5-9 61.5-9l27.6-55.1s.6-2.6 3.2-2.6c1.9.8 3.2 4 3.2 4"/><path fill="#00914C" d="M471.2 860.3l19.2 39.7s.6 1.3.6 1.9c-.6.6-2.6.6-2.6.6l-21.2 1.9s-1.9 0-1.9 1.3 1.9 1.3 5.1 1.3c2.6 0 23.1 2.6 23.1 2.6s1.9 0 3.2 1.9c.6 1.9 2.6 3.8 2.6 3.8s1.3 1.9 0 2.6c-1.3.6-7.1.6-7.1.6L455 923s-1.3 0-1.3.6.6 1.3 1.9 1.3 25.6 2.6 25.6 2.6 2.6 0 3.8 1.3l3.8 3.8s1.3 1.3.6 1.3c-1.3.6-8.3 1.3-8.3 1.3l-38.5 3.2s-1.3 0-1.3.6.6 1.3 1.9 1.3 56.4 3.8 56.4 3.8h2.6l.6.6 4.5 4.5s1.3.6 1.3 1.3-1.3.6-1.3.6l-46.2 4.5s-1.3 0-1.9 1.3c0 1.3 1.3 1.3 1.3 1.3l58.3 4.5s1.9 0 3.2 1.3l4.5 4.5.6 1.3c-.6.6-3.2.6-3.2.6l-44.9 3.8s-1.3 0-1.3.6.6 1.3 1.9 1.3 48.1 4.5 48.1 4.5 1.9 0 1.3 1.9c-.6 1.9-1.3 4.5-1.3 4.5s0 1.3-2.6 1.9c-2.6.6-26.9 3.2-26.9 3.2s-1.3 0-1.3.6 0 1.3 1.9 1.3 25 2.6 25 2.6 1.9 0 1.3 2.6c-.6 2.6-5.8 30.1-5.8 30.1s0 1.3-.6 1.3-3.2-1.9-3.2-1.9l-46.8-28.8-54.5 32.7s-1.9 1.3-3.8 0-.6-5.8-.6-5.8l10.3-58.3-43.8-43.5s-1.9-3.2.6-4.5c3.8-1.3 62.2-9 62.2-9l27.6-55.1s.6-2.6 3.2-2.6c.6 3.3 1.3 6.5 1.3 6.5"/><path fill="#E30521" d="M589.7 860.3L609 900s.6 1.3.6 1.9c-.6.6-2.6.6-2.6.6l-21.2 1.9s-1.9 0-1.9 1.3 1.9 1.3 5.1 1.3c2.6 0 22.4 1.9 22.4 1.9s1.9 0 3.2 1.9c.6 1.3 1.9 3.2 1.9 3.2s1.9 1.9 0 2.6c-1.3.6-8.3 1.3-8.3 1.3l-36.5 3.8s-1.3 0-1.3.6.6 1.3 1.9 1.3c1.3 0 93.6 2.6 93.6 2.6s10.3.6 12.8.6c1.3 0 1.3.6 1.3.6.6.6-3.2 3.8-3.2 3.8s-2.6 2.6-3.8 3.2c-1.3.6-7.7.6-7.7.6L559 939.7s-1.3 0-1.3 1.3c0 .6.6 1.3 1.9 1.3 1.3 0 97.4 4.5 97.4 4.5h2.6c.6.6 0 1.3 0 1.3l-2.6 2.6-1.3 1.3c-.6.6-3.2 1.3-3.2 1.3l-75.6 5.1s-1.3 0-1.9 1.3c0 1.3 1.3 1.3 1.3 1.3l61.5 3.8s2.6 0 2.6.6c0 1.3-3.2 4.5-3.2 4.5l-2.6 2.6c-.6.6-3.2.6-3.2.6l-37.2 3.2s-1.3 0-1.3.6.6 1.3 1.9 1.3c1.3 0 29.5 2.6 29.5 2.6s4.5.6 7.1.6c3.2 0 3.2.6 3.2 1.3.6 1.9 1.3 7.1 1.3 7.1s.6 1.3-2.6 1.9c-2.6.6-19.2 2.6-19.2 2.6s-1.9 0-1.9 1.3c0 .6 0 1.3 1.9 1.3 1.3 0-1.9 0 22.4 2.6 0 0 1.9 0 2.6 2.6 0 2.6 5.1 29.5 5.1 29.5s.6 2.6-.6 4.5c-1.3 1.3-5.1-1.3-5.1-1.3l-52.6-32.1-54.5 33.3s-1.9 1.3-3.8.6c-1.3-1.3-.6-5.8-.6-5.8l10.3-58.3-44.2-43.6s-1.9-3.2.6-4.5c3.2-1.3 61.5-9 61.5-9l27.6-55.1s.6-2.6 3.2-2.6c3.1-.6 3.7 2.6 3.7 2.6"/><g><g fill="#0080C8"><path d="M673.7 384l-72.4 36.5-.7 4.5 75.7-37.8zM652.6 358.3l-46.8 23.1-.7 5.1 50-25zM621.2 319.2l-9 4.5v5.1l11.5-6.4zM642.3 344.9l-34 17.3-.6 5.1 37.2-19.2zM663.5 371.2l-59.7 30.1-.6 4.5 62.2-31.4zM684 396.8l-84.6 42.9-.7 4.5 87.8-44.2zM632.1 332.1l-21.8 10.8-.7 5.2 25-12.8zM598.7 640.4l-24.3 12.2-.7 4.5 22.5-10.9zM607.1 617.9l-30.2 15.4-.6 4.5 28.2-14.1zM615.4 595.5l-36.6 18.6-.6 4.5 35.3-17.3zM590.4 662.8l-18 9-.6 5.1 16-8.3zM582.1 685.3l-12.2 5.7-.7 5.2 10.3-5.2zM623.7 573.1l-42.3 21.1-.6 5.2 41-20.6zM648.7 505.8L591 535.3l-.6 4.4 56.4-28.2zM665.4 460.9l-73.1 36.5-.6 5.2 71.8-35.9zM673.7 438.5l-78.8 39.7-.7 5.1 77.6-39.1zM632.1 550.6L583.3 575l-.6 5.1 47.4-23.7zM657.1 483.3l-66.7 34-.7 2.6v1.9l65.4-32.7zM640.4 528.2l-54.5 27.6-.6 4.5 53.2-26.3zM682.1 416l-85.3 43-.6 5.1 83.9-42.3z"/></g><g fill="#0080C8"><path d="M275.6 446.2l113.5-25.7.6-4.5-114.1 25.7zM275.6 496.2l103.9-23.8.6-4.5-104.5 23.8zM275.6 479.5l107.1-24.4.6-4.5L275.6 475zM275.6 512.8l100.7-23.1.6-4.4-101.3 23zM275.6 462.8l110.3-25 .6-4.5-110.9 25zM275 379.5l101.9-23.1-2.5-3.8L275 375zM275 279.5l37.8-9-2.5-3.2L275 275zM275 296.2l48.7-10.9-2.5-3.9-46.2 10.3zM275 312.8l59-13.4-2.6-3.9-56.4 12.8zM275.6 429.5l116.7-26.3.6-4.5L275.6 425zM275 246.2l16.7-3.9-2.6-3.8-14.1 3.2zM280.8 228.2l-2.6-3.8-3.2.6v4.5zM275 262.8l27.6-6.4-3.2-3.2-24.4 5.1zM275.6 412.8l119.9-27.5.7-3.2-.7-.7-119.9 26.9zM275 396.2l112.2-25.7-2.6-3.2L275 391.7zM275 329.5l69.9-16-2.6-3.2L275 325zM275 346.2l80.8-18.6-3.2-3.2-77.6 17.3zM275 362.8l91-20.5-2.5-3.8-88.5 19.8z"/></g><g fill="#0080C8"><path d="M80.1 420.5l-36.5 27.6-.7 5.7 37.2-28.2zM78.8 401.3l-30.7 23.1-1.3 5.7 32.7-24.3zM74.4 323.1l-10.3 7.7-.6 5.7 11.5-8.9zM77.6 381.4l-25.7 19.9-.6 5.8 26.9-20.6zM73.7 303.2l-5.1 3.9-1.3 5.7 6.4-4.5zM76.9 362.2l-20.5 15.4-1.3 5.7 21.8-16.6zM75.6 342.3l-15.3 11.5-1.3 5.8 17.3-12.2zM92.3 579.5L91 575l-78.2 59.6 3.9 1.9zM109 689.1l2.5-1.9-1.2-4.5-5.2 3.8zM78.2 671.2l26.9-19.9-1.3-4.5-29.4 22.4zM94.2 680.1l14.1-10.9-1.2-4.5-17.4 13.5zM62.8 662.8l39.1-29.5-1.3-4.5L59 660.3zM47.4 653.8l51.3-38.4-1.3-4.5-53.2 41zM80.8 440.4l-41.1 31.4-1.2 5.8 42.9-32.7zM32.1 645.5l63.4-48.1-1.3-4.5-66 50zM83.3 479.5l-51.9 39.1-1.3 5.8L83.3 484zM82.1 459.6l-46.8 35.3-.7 6.4 48.1-36.6zM84.6 498.7l-57.7 43.6-.6 5.8 58.3-44.3zM87.8 557.1l-73.1 55.7-.6 5.8 75-57.1zM86.5 537.8l-67.3 51.3-1.3 5.8 68.6-52zM85.3 518.6l-62.2 46.8-1.3 5.8 64.1-48.1z"/></g><path fill="#0080C8" d="M434 766l157-226.9-21.1 156.4z"/><path fill="#E5007E" d="M439.1 551.3v-325l-50 261.5z"/><path fill="#0080C8" d="M591 539.1l-41-312.8 64.1 84zM432.1 564.7l-51.3-63.4L276.3 525v5.1zM103.2 548.7l21.2 128.2 107 27.6z"/><path fill="#E5007E" d="M429.5 767.9L334 814.7 129.5 696.8zM99.4 541L175 226.3l-85.3 66z"/></g><g><g fill="#0E7DC2"><path d="M1024.4 368.6c-2.6 10.9-4.5 21.8-7.1 32.7-2.6 10.9-4.5 21.8-7.1 32.7-.6 3.2-4.5 19.2-10.9 48.7-7.1 29.5-16.7 72.4-28.8 128.2h-44.9l-73.1-295.5H891c6.4 29.5 13.5 59 19.9 88.5s13.5 59 20.5 88.5c2.6 12.2 5.1 25 7.7 37.8 2.6 12.8 5.8 25 8.3 37.8h1.9l15.4-70.5c3.2-16 7.1-32.1 10.3-46.8 3.2-14.7 7.1-30.1 10.3-44.9s6.4-29.5 9.6-44.2c3.2-14.7 7.1-30.1 10.3-45.5h39.1l47.4 179.5c.6 1.9 1.9 5.8 3.2 12.2 1.9 6.4 3.8 13.5 5.8 21.2 1.9 7.7 3.8 15.4 5.8 23.1 1.9 7.7 3.2 12.8 4.5 16h2.6c3.2-12.8 5.8-26.3 8.3-39.7 2.6-13.5 5.8-26.3 8.3-39.7 6.4-28.8 12.8-57.7 19.2-86.5s12.8-57.7 19.2-86.5h36.5c-12.2 53.2-25 105.1-37.2 154.5s-23.7 96.8-35.3 142.3H1089c-7.7-30.1-15.4-59.6-23.7-88.5-7.7-28.2-15.4-58.3-23.7-89.7-2.6-10.9-5.8-21.8-8.3-32.7-2.5-11.2-5.7-22.1-8.9-33zM1250.6 612.2V314.7h36.5v297.4h-36.5v.1zM1551.3 551.3V315.4h35.3v296.8h-35.9l-114.1-179.5-39.1-62.2h-.6-1.3v241h-35.3V315.4h37.2c18.6 28.2 36.5 56.4 54.5 84s35.9 55.8 53.8 84l43.6 67.9h1.9zM1725.6 612.2V343.6h-95.5v-28.8H1857v28.8h-94.9l-.6 267.9h-35.9v.7zM1900.6 612.2V315.4h180.8v28.2h-144.2v98.1H2059v26.9h-121.8V584h151.3v28.2h-187.9zM2335.9 396.8c0 17.9-4.5 33.3-13.5 48.1-9 14.1-21.8 23.7-39.1 28.8 11.5 3.2 19.9 10.3 25 19.9s9.6 20.5 12.8 32.7l24.4 85.9h-37.2l-23.7-81.4c-2.6-9.6-6.4-17.3-9.6-23.7-3.8-6.4-7.7-10.9-12.2-14.7-4.5-3.8-9.6-6.4-15.4-7.7-5.8-1.3-12.2-1.9-19.9-1.9h-46.8v129.5h-36.5V314.7h101.9c29.5 0 51.3 7.7 66 22.4 16.7 15.5 23.8 34.7 23.8 59.7zm-94.2 57.7c5.8 0 12.2-.6 18.6-1.9 6.4-1.3 12.8-4.5 18.6-8.3 5.8-4.5 10.3-10.3 14.1-17.3 3.8-7.1 5.1-16.7 5.1-28.2 0-9.6-1.3-18.6-4.5-25.6-3.2-7.1-7.1-12.8-12.2-17.3s-11.5-7.7-17.9-9.6c-7.1-1.9-14.7-3.2-22.4-3.2h-59v111.5h59.6v-.1z"/></g><g fill="#E5007E"><path d="M2695.5 505.1c0 16.7-2.6 31.4-7.1 44.9s-11.5 25-21.2 35.3c-9.6 9.6-21.2 17.3-35.3 22.4-14.1 5.1-30.8 7.7-50.6 7.7-39.7 0-68.6-9.6-85.9-29.5-17.9-19.2-26.9-46.8-26.9-80.8V314.7h36.5v191c0 26.9 6.4 47.4 19.9 60.9s32.1 20.5 57.1 20.5c24.4 0 43.6-6.4 57.1-19.9s19.9-34 19.9-61.5l-.6-191h36.5v190.4h.6zM2951.9 551.3V315.4h35.3v296.8h-35.9l-114.1-179.5-39.1-62.2h-.6-1.3v241h-35.3V315.4h37.2c18.6 28.2 36.5 56.4 54.5 84 17.9 27.6 35.9 55.8 53.8 84l43.6 67.9h1.9zM3061.5 612.2V314.7h36.5v297.4h-36.5v.1zM3258.3 573.7l17.3-60.9 58.3-198.1h37.8l-94.2 297.4H3234l-93-297.4h39.1l59.6 198.7 16.7 60.3h1.9zM3411.5 612.2V315.4h180.8v28.2h-143.6v98.1h121.8v26.9h-121.8V584H3600v28.2h-188.5zM3846.8 396.8c0 17.9-4.5 33.3-13.5 48.1-9 14.1-21.8 23.7-39.1 28.8 11.5 3.2 19.9 10.3 25 19.9s9.6 20.5 12.8 32.7l24.4 85.9h-37.2l-23.7-81.4c-3.2-9.6-6.4-17.3-9.6-23.7-3.8-6.4-7.7-10.9-12.2-14.7-4.5-3.8-9.6-6.4-15.4-7.7s-12.2-1.9-19.2-1.9h-46.8v129.5h-36.5V314.7h101.9c29.5 0 51.3 7.7 66 22.4 16 15.5 23.1 34.7 23.1 59.7zm-94.2 57.7c5.8 0 12.2-.6 18.6-1.9 6.4-1.3 12.8-4.5 18.6-8.3 5.8-4.5 10.3-10.3 14.1-17.3 3.8-7.1 5.1-16.7 5.1-28.2 0-9.6-1.3-18.6-4.5-25.6-2.6-7.1-7.1-12.8-12.2-17.3s-11.5-7.7-17.9-9.6c-7.1-1.9-14.7-3.2-22.4-3.2h-59v111.5h59.6v-.1zM4002.6 309.6c12.2 0 25.6 1.3 40.4 3.8 14.7 2.6 28.2 7.7 41 14.7l-11.5 26.3c-14.1-6.4-26.9-10.3-39.1-12.2-12.2-1.9-22.4-2.6-32.7-2.6-17.3 0-31.4 4.5-42.3 13.5-10.9 9-16.7 22.4-16.7 40.4 0 8.3 1.9 14.7 5.8 20.5 3.8 5.8 9 10.3 15.4 13.5 6.4 3.8 13.5 6.4 21.2 9s16 4.5 24.4 7.1c10.9 2.6 21.8 5.8 32.7 9 11.5 3.2 21.8 8.3 30.8 14.1 9.6 6.4 16.7 14.1 23.1 24.4 5.8 10.3 9 23.1 9 39.7 0 14.7-2.6 27.6-8.3 38.5-5.1 10.9-12.8 19.9-22.4 26.3-9.6 7.1-21.2 12.2-34.6 15.4-13.5 3.2-28.2 5.1-44.2 5.1-15.4 0-32.1-1.9-48.7-5.1s-32.7-9.6-47.4-17.9l12.8-26.9c17.9 8.3 33.3 14.1 46.8 16.7 13.5 2.6 25.6 3.8 37.2 3.8 22.4 0 40.4-3.8 52.6-12.2 12.8-7.7 18.6-22.4 18.6-43.6 0-9-1.3-16.7-4.5-22.4s-7.7-10.9-13.5-14.7c-5.8-3.8-12.8-7.1-20.5-10.3-7.7-2.6-16-5.1-25-7.7-12.8-3.2-25.6-7.1-37.2-10.9-11.5-3.8-22.4-8.3-31.4-14.1-9-5.8-16.7-13.5-21.8-22.4-5.1-9-8.3-20.5-8.3-34s2.6-25 7.1-35.3c5.1-10.3 11.5-19.2 20.5-26.3 9-7.1 19.2-12.8 30.8-16.7 11.7-4.6 25.1-6.5 39.9-6.5zM4164.1 612.2V314.7h36.5v297.4h-36.5v.1zM4447.4 612.2c-3.8-12.8-8.3-25.6-12.2-39.1-3.8-12.8-8.3-25.6-12.2-39.1h-117.3c-3.8 12.8-8.3 25.6-12.2 39.1-3.8 12.8-8.3 25.6-12.2 39.1h-37.8c17.3-53.8 34.6-105.1 51.3-155.1 16.7-49.4 32.1-96.8 46.8-142.3h46.8l97.4 297.4h-38.4zm-32.7-106.4c-6.4-21.8-13.5-44.2-19.9-66s-13.5-44.2-20.5-66L4366 345h-1.3l-9 29.5c-3.2 10.9-6.4 21.2-9.6 31.4s-6.4 20.5-9.6 31.4c-3.2 10.3-6.4 21.8-10.3 32.7-3.2 11.5-7.1 23.1-11.5 35.9h100v-.1zM4525.6 612.2V314.7h96.8c24.4 0 43.6 3.8 59.6 12.2 16 7.7 28.2 18.6 37.8 32.1 9 13.5 15.4 29.5 19.2 46.8 3.8 17.9 5.1 36.5 5.1 56.4 0 20.5-1.9 39.7-6.4 57.7-3.8 17.9-10.9 34-20.5 47.4-9.6 13.5-22.4 24.4-38.5 32.1-16 7.7-36.5 12.2-60.3 12.2h-92.9l.1.6zm37.9-269.3v241h50.6c4.5 0 9.6-.6 16-.6 6.4-.6 12.8-1.9 19.9-4.5s13.5-5.8 20.5-10.9c6.4-5.1 12.8-11.5 17.9-20.5s9.6-19.9 12.8-32.7c3.2-13.5 5.1-29.5 5.1-48.7s-1.3-35.9-4.5-49.4-7.1-25-12.2-34-10.3-16-16.7-21.8c-6.4-5.1-12.8-9-19.9-11.5-6.4-2.6-12.8-4.5-19.2-5.1s-12.2-1.3-17.3-1.3h-53zM4805.1 612.2V315.4h180.8v28.2h-144.2v98.1h121.2v26.9h-121.2V584H4993v28.2h-187.9z"/></g><g fill="#0080C8"><path d="M936.5 777.6l13.5-15.4 64.7-70.5h54.5l-83.3 86.5 87.8 134.6h-55.1c-10.9-17.3-21.8-34.6-32.1-51.3-10.9-16.7-21.2-34-32.1-51.3l-19.2 19.9v82.7H889V691.7h46.2v85.9h1.3zM1264.1 755.1c0 5.8-.6 12.2-1.9 17.9s-3.8 11.5-7.1 16.7c-3.2 5.1-7.1 9.6-11.5 13.5-4.5 3.8-10.3 7.1-16.7 9 9 3.2 15.4 8.3 19.9 15.4 3.8 7.1 7.1 14.7 9.6 23.7l17.3 61.5h-46.8c-2.6-9.6-5.8-19.2-8.3-28.8-2.6-9.6-5.8-19.2-8.3-28.8-3.2-12.2-8.3-20.5-14.1-25s-13.5-6.4-22.4-6.4H1150v89.1h-46.2V691.7h88.5c12.8 0 23.1 1.9 32.1 5.1s16.7 7.7 22.4 13.5c5.8 5.8 10.3 12.8 12.8 20.5 3.2 7.7 4.5 15.4 4.5 24.3zM1184 791c3.8 0 7.7-.6 11.5-1.3 3.8-1.3 7.1-3.2 10.3-5.8 3.2-2.6 5.8-5.8 7.7-10.3 1.9-4.5 3.2-9.6 3.2-16 0-10.9-3.2-19.2-9-24.4-5.8-5.1-14.1-7.7-23.7-7.7h-32.7V791h32.7zM1451.3 912.2l-15.4-50.6h-79.5l-15.4 50.6h-46.2l74.4-221.2h59l71.8 221.2h-48.7zm-41-140.4l-12.8-48.1h-1.9l-13.5 49.4-16 56.4h60.3l-16.1-57.7zM1601.9 687.2c10.9 0 22.4 1.3 34.6 3.2s23.7 6.4 34.6 12.2l-12.2 32.1c-10.9-4.5-21.2-7.7-31.4-9-10.3-1.3-19.2-1.9-26.9-1.9-9.6 0-17.9 2.6-23.7 7.1-5.8 4.5-8.3 11.5-8.3 21.2 0 4.5 1.3 7.7 3.8 10.9 2.6 3.2 5.8 5.1 9.6 7.7 3.8 1.9 8.3 3.8 14.1 5.8 5.1 1.3 10.9 2.6 16.7 3.8 7.1 1.9 15.4 4.5 23.7 7.1 8.3 2.6 16.7 6.4 23.7 11.5 7.7 5.1 13.5 11.5 17.9 19.9 4.5 8.3 7.1 18.6 7.1 32.1 0 21.2-7.7 37.2-23.1 48.7s-37.8 17.3-68.6 17.3c-5.8 0-11.5-.6-17.9-.6-6.4-.6-13.5-1.9-20.5-3.2-7.1-1.3-14.1-3.2-21.2-5.8s-13.5-5.1-19.9-8.3l12.2-33.3c15.4 6.4 29.5 10.3 41.7 12.2s21.8 2.6 29.5 2.6c12.8 0 22.4-1.9 29.5-6.4 6.4-4.5 9.6-12.2 9.6-22.4 0-4.5-.6-8.3-2.6-11.5-1.9-3.2-3.8-5.8-7.1-8.3-3.2-1.9-7.1-3.8-11.5-5.8-4.5-1.3-9-3.2-14.7-4.5-10.9-2.6-21.2-5.8-30.8-8.3-9.6-3.2-18.6-6.4-25.6-11.5-7.7-4.5-13.5-10.9-17.3-17.9-4.5-7.1-6.4-16.7-6.4-27.6 0-19.9 7.1-36.5 20.5-48.7 12.8-14.7 33.4-20.4 60.9-20.4zM1865.4 843.6V691.7h45.5v221.2h-46.8l-73.7-119.2c-3.8-6.4-7.1-12.2-10.9-18.6-3.8-5.8-7.1-12.2-10.9-18.6h-1.2v155.1h-45.5V691.7h47.4c11.5 17.9 22.4 35.9 33.3 53.2s22.4 35.3 33.3 53.8l27.6 44.9h1.9zM2151.3 801.9c0 16-1.9 31.4-6.4 45.5s-10.3 25.6-19.2 35.9c-8.3 10.3-18.6 17.9-31.4 23.7-12.2 5.8-26.9 9-43.6 9-17.9 0-33.3-2.6-46.2-8.3-12.8-5.8-23.7-13.5-32.1-23.1-8.3-9.6-14.7-21.8-18.6-35.9s-5.8-29.5-5.8-46.2c0-16 1.9-30.8 5.8-44.9s10.3-26.3 18.6-36.5 18.6-18.6 31.4-25c12.8-5.8 28.2-9 46.8-9 17.9 0 34 3.2 46.2 9 12.8 6.4 23.1 14.1 31.4 25 8.3 10.3 14.1 22.4 17.3 36.5 3.9 13.6 5.8 28.3 5.8 44.3zm-49.4.7c0-10.3-.6-19.9-1.9-29.5-1.3-9.6-3.8-18.6-7.7-26.3-3.8-7.7-9-14.1-15.4-18.6s-15.4-7.1-25.6-7.1c-10.9 0-19.9 2.6-26.3 7.1-7.1 4.5-12.2 10.9-16 17.9-3.8 7.7-7.1 16-8.3 26.3-1.3 9.6-1.9 19.9-1.9 30.8 0 25 3.8 44.2 11.5 57.7 8.3 13.5 21.8 20.5 41.7 20.5 9 0 16.7-1.9 23.7-5.8 6.4-3.8 11.5-9.6 16-16.7 3.8-7.1 7.1-15.4 9-25-.1-9.5 1.2-19.8 1.2-31.3zM2228.2 832.7L2157.1 691h48.7c4.5 9.6 9 19.2 13.5 28.2 4.5 9.6 9 18.6 13.5 28.2l19.2 44.2h1.9c3.8-7.1 7.1-14.7 10.3-23.1 3.2-8.3 6.4-16 10.3-23.1l26.9-55.1h48.1c-12.2 22.4-23.7 44.9-35.9 67.9-11.5 23.1-23.7 45.5-35.9 67.9v84.6h-50v-78.2h.5v.2zM2496.8 912.2l-15.4-50.6h-79.5l-15.4 50.6h-46.8l74.4-221.2h59l71.8 221.2h-48.1zm-40.4-140.4l-12.8-48.1h-1.3l-13.5 49.4-16 56.4h59.6l-16-57.7zM2734.6 755.1c0 5.8-.6 12.2-1.9 17.9s-3.8 11.5-7.1 16.7-7.1 9.6-11.5 13.5c-4.5 3.8-10.3 7.1-16.7 9 9 3.2 15.4 8.3 19.9 15.4 3.8 7.1 7.1 14.7 9.6 23.7l17.3 61.5h-46.8c-2.6-9.6-5.1-19.2-8.3-28.8-2.6-9.6-5.8-19.2-8.3-28.8-3.2-12.2-8.3-20.5-14.1-25s-13.5-6.4-22.4-6.4h-23.7v89.1h-46.2V691.7h88.5c12.2 0 23.1 1.9 32.1 5.1 9 3.2 16.7 7.7 22.4 13.5 5.8 5.8 10.3 12.8 12.8 20.5 2.5 7.7 4.4 15.4 4.4 24.3zm-80.8 35.9c3.8 0 7.7-.6 11.5-1.3 3.8-1.3 7.1-3.2 10.3-5.8s5.8-5.8 7.7-10.3 3.2-9.6 3.2-16c0-10.9-3.2-19.2-9-24.4-6.4-5.1-14.1-7.7-23.7-7.7h-32.7V791h32.7zM2855.8 687.2c10.9 0 22.4 1.3 34.6 3.2s23.7 6.4 34.6 12.2l-12.2 32.1c-10.9-4.5-21.2-7.7-31.4-9-10.3-1.3-19.2-1.9-26.9-1.9-10.3 0-17.9 2.6-23.7 7.1s-8.3 11.5-8.3 21.2c0 4.5 1.3 7.7 3.8 10.9 2.6 3.2 5.8 5.1 9.6 7.7 3.8 1.9 8.3 3.8 14.1 5.8 5.1 1.3 10.3 2.6 16 3.8 7.7 1.9 15.4 4.5 23.7 7.1s16.7 6.4 23.7 11.5 13.5 11.5 17.9 19.9c4.5 8.3 7.1 18.6 7.1 32.1 0 21.2-7.7 37.2-23.1 48.7-15.4 11.5-38.5 17.3-68.6 17.3-5.1 0-11.5-.6-17.9-.6-6.4-.6-13.5-1.9-20.5-3.2-7.1-1.3-14.1-3.2-21.2-5.8-7.1-2.6-13.5-5.1-19.9-8.3l12.2-33.3c15.4 6.4 29.5 10.3 41.7 12.2s21.8 2.6 29.5 2.6c12.8 0 22.4-1.9 29.5-6.4 6.4-4.5 9.6-12.2 9.6-22.4 0-4.5-.6-8.3-2.6-11.5-1.9-3.2-3.8-5.8-7.1-8.3-3.2-1.9-7.1-3.8-11.5-5.8-4.5-1.3-9.6-3.2-14.7-4.5-10.9-2.6-21.2-5.8-30.8-8.3-9.6-3.2-17.9-6.4-25.6-11.5-7.1-4.5-13.5-10.9-17.3-17.9-4.5-7.1-6.4-16.7-6.4-27.6 0-19.9 7.1-36.5 20.5-48.7 12.9-14.7 34-20.4 61.6-20.4zM3020.5 777.6l13.5-15.4 64.1-70.5h54.5l-82.7 86.5 87.8 134.6h-55.1c-10.9-17.3-21.8-34.6-32.1-51.3-10.9-16.7-21.2-34-32.1-51.3l-19.2 19.9v82.7H2973V691.7h46.2v85.9h1.3zM3288.5 880.1h90.4v32.1h-153.2V884c5.8-5.1 12.8-10.9 19.9-17.9 7.1-6.4 14.1-12.8 21.8-19.9l21.2-21.2c7.1-7.1 12.8-14.1 17.9-21.8 5.1-7.1 9.6-14.1 12.8-21.8 3.2-7.1 4.5-14.1 4.5-20.5 0-9.6-2.6-17.3-8.3-22.4-5.8-5.1-14.1-7.7-25-7.7-5.8 0-12.8.6-22.4 3.2-9.6 1.9-19.9 5.8-31.4 12.8l-14.1-27.6c13.5-9.6 26.9-16 40.4-19.2s25-5.1 35.3-5.1c21.8 0 39.7 5.1 52.6 16s19.2 26.9 19.2 47.4c0 11.5-2.6 23.1-8.3 34-5.1 11.5-12.2 21.8-20.5 32.1s-17.3 19.9-26.3 28.8c-9.6 9-18.6 17.3-26.3 24.4l-.2 2.5zM3567.9 805.8c0 14.1-1.3 27.6-4.5 41-2.6 13.5-7.7 25-14.1 34.6-7.1 10.3-15.4 18.6-26.3 24.4-10.9 6.4-24.4 9-39.7 9-16.7 0-30.8-3.2-41.7-9s-19.9-14.1-26.3-23.7c-6.4-10.3-10.9-21.8-13.5-34.6-2.6-13.5-3.8-26.9-3.8-41 0-13.5 1.3-26.9 3.8-40.4 2.6-13.5 7.1-25 13.5-35.9 6.4-10.3 15.4-19.2 26.3-25.6 10.9-6.4 25-9.6 42.3-9.6s31.4 3.2 42.3 10.3c10.9 6.4 19.2 15.4 25.6 25.6 6.4 10.9 10.9 22.4 12.8 35.3 2.1 13.3 3.3 26.1 3.3 39.6zm-45.5.6c0-8.3-.6-16.7-1.3-25.6-.6-9-2.6-17.3-5.1-25-2.6-7.7-6.4-13.5-11.5-18.6s-12.2-7.7-21.2-7.7-16 2.6-21.2 7.1c-5.1 5.1-9.6 10.9-12.2 18.6-3.2 7.7-4.5 16-5.8 25s-1.3 17.9-1.3 26.3c0 10.3.6 20.5 1.3 29.5 1.3 9 3.2 16.7 6.4 23.7 3.2 7.1 7.1 12.2 12.2 16 5.1 3.8 12.2 5.8 20.5 5.8 7.7 0 14.1-1.9 19.2-6.4s9-9.6 12.2-16.7c2.6-7.1 5.1-14.7 5.8-23.7 1.4-9.7 2-18.7 2-28.3zM3627.6 738.5l-44.2 4.5v-30.8l48.7-14.7h40.4v214.7h-44.2V738.5h-.7zM3824.4 821.8c-15.4 9-31.4 13.5-47.4 13.5-9 0-17.9-1.3-25.6-3.8-7.7-2.6-14.7-7.1-20.5-12.2-5.8-5.8-10.3-12.2-14.1-21.2-3.2-8.3-5.1-18.6-5.1-30.1s1.9-21.8 5.8-30.8c3.8-9 9-16.7 16-22.4 7.1-5.8 14.7-10.9 24.4-14.1 9.6-3.2 19.9-5.1 31.4-5.1 15.4 0 28.2 2.6 38.5 7.7s18.6 12.2 25 21.2 10.9 19.2 14.1 31.4c3.2 12.2 4.5 25 4.5 39.1 0 16.7-1.9 32.7-5.1 47.4-3.2 14.7-9 26.9-16.7 37.8-7.7 10.9-17.3 19.2-28.8 25-11.5 6.4-26.3 9-42.9 9-11.5 0-21.2-.6-30.1-2.6-9-1.9-15.4-3.8-19.9-5.1l7.7-32.1c7.7 2.6 14.7 4.5 21.2 5.1 7.1.6 12.8 1.3 17.9 1.3 9 0 16.7-1.9 23.1-6.4 6.4-3.8 11.5-9 15.4-14.7 3.8-5.8 7.1-12.2 9-19.2 1.9-7.1 3.2-12.8 3.8-17.9l-1.6-.8zm-69.3-55.1c0 5.1.6 9.6 1.9 14.1 1.3 4.5 2.6 8.3 5.1 11.5 2.6 3.2 5.8 5.8 10.3 7.7 3.8 1.9 9.6 2.6 16 2.6 5.1 0 10.3-.6 14.7-1.9 4.5-1.3 8.3-2.6 11.5-3.8 3.2-1.3 5.8-3.2 7.7-4.5s3.2-2.6 4.5-2.6v-6.4c0-5.1-.6-10.9-1.3-17.3-.6-6.4-2.6-11.5-5.1-17.3-2.6-5.1-6.4-9.6-10.9-12.8-5.1-3.2-10.9-5.1-19.2-5.1-11.5 0-19.9 3.2-25.6 9.6-7 6.3-9.6 15.3-9.6 26.2z"/><g><path d="M4109 751.9c0 13.5-3.2 25-9.6 35.9s-16.7 17.9-29.5 21.8c8.3 2.6 14.7 7.7 18.6 14.7 3.8 7.1 7.1 15.4 9.6 24.4l17.9 64.1h-27.6l-17.3-60.9c-1.9-7.1-4.5-12.8-7.1-17.9-2.6-4.5-5.8-8.3-9-10.9s-7.1-4.5-11.5-5.8c-4.5-1.3-9-1.3-14.7-1.3h-35.3v96.8h-26.9V691h76.3c21.8 0 38.5 5.8 49.4 16.7 10.9 10.9 16.7 26.3 16.7 44.2zm-70.5 43c4.5 0 9-.6 14.1-1.9s9.6-3.2 13.5-6.4c4.5-3.2 7.7-7.7 10.3-12.8s3.8-12.2 3.8-21.2c0-7.1-1.3-13.5-3.2-19.2-1.9-5.1-5.1-9.6-9-12.8-3.8-3.2-8.3-5.8-13.5-7.1-5.1-1.3-10.9-2.6-16.7-2.6h-44.2v83.3h44.9v.7zM4323.7 833.3c0 12.2-1.9 23.7-5.1 34s-9 18.6-15.4 26.3c-7.1 7.1-16 12.8-26.3 16.7-10.9 3.8-23.1 5.8-37.8 5.8-29.5 0-51.3-7.1-64.1-21.8-13.5-14.7-19.9-34.6-19.9-60.3V691h26.9v142.3c0 20.5 5.1 35.3 14.7 45.5 9.6 10.3 24.4 15.4 42.3 15.4 18.6 0 32.7-5.1 42.9-15.4 10.3-10.3 14.7-25.6 14.7-46.2l-.6-142.9h26.9v143.6h.8zM4440.4 687.2c9.6 0 19.2.6 30.1 2.6 10.9 1.9 21.2 5.8 30.8 10.9l-9 19.2c-10.9-4.5-20.5-7.7-28.8-9-9-1.3-17.3-1.9-24.4-1.9-12.8 0-23.7 3.2-32.1 9.6-8.3 6.4-12.2 16.7-12.2 30.1 0 5.8 1.3 10.9 3.8 15.4 2.6 3.8 6.4 7.7 11.5 10.3 4.5 2.6 10.3 5.1 16 7.1 5.8 1.9 11.5 3.8 17.9 5.1 8.3 1.9 16 4.5 24.4 6.4 8.3 2.6 16 5.8 23.1 10.9 7.1 4.5 12.8 10.9 17.3 18.6 4.5 7.7 6.4 17.3 6.4 29.5 0 10.9-1.9 20.5-5.8 28.8-3.8 8.3-9.6 14.7-16.7 19.9-7.1 5.1-16 9-26.3 11.5-10.3 2.6-21.2 3.8-32.7 3.8s-23.7-1.3-36.5-3.8c-12.8-2.6-24.4-7.1-35.3-13.5l9.6-19.9c13.5 6.4 25 10.3 35.3 12.2s19.2 3.2 27.6 3.2c16.7 0 30.1-3.2 39.1-9 9.6-5.8 14.1-16.7 14.1-32.7 0-6.4-1.3-12.2-3.8-16.7-2.6-4.5-5.8-8.3-10.3-10.9-4.5-3.2-9.6-5.1-15.4-7.7-5.8-1.9-12.2-3.8-18.6-5.8-9.6-2.6-19.2-5.1-28.2-8.3-9-2.6-16.7-6.4-23.7-10.9-6.4-4.5-12.2-9.6-16-16.7-3.8-6.4-5.8-15.4-5.8-25.6s1.9-18.6 5.8-26.3c3.8-7.7 9-14.1 15.4-19.9 6.4-5.1 14.1-9.6 23.1-12.2 9.8-3 20-4.3 30.3-4.3zM4626.3 687.2c9.6 0 19.2.6 30.1 2.6 10.9 1.9 21.2 5.8 30.8 10.9l-9 19.2c-10.9-4.5-20.5-7.7-29.5-9s-17.3-1.9-24.4-1.9c-12.8 0-23.7 3.2-32.1 9.6-8.3 6.4-12.2 16.7-12.2 30.1 0 5.8 1.3 10.9 4.5 15.4 2.6 3.8 6.4 7.7 11.5 10.3 4.5 2.6 10.3 5.1 16 7.1 5.8 1.9 12.2 3.8 17.9 5.1 8.3 1.9 16 4.5 24.4 6.4 8.3 2.6 16 5.8 23.1 10.9 7.1 4.5 12.8 10.9 17.3 18.6 4.5 7.7 6.4 17.3 6.4 29.5 0 10.9-1.9 20.5-5.8 28.8-3.8 7.7-9.6 14.7-16.7 19.9-7.1 5.1-16 9-25.6 11.5-10.3 2.6-21.2 3.8-32.7 3.8s-23.7-1.3-36.5-3.8c-12.8-2.6-24.4-7.1-35.3-13.5l9.6-19.9c13.5 6.4 25 10.3 35.3 12.2s19.2 3.2 27.6 3.2c16.7 0 30.1-3.2 39.1-9 9.6-5.8 14.1-16.7 14.1-32.7 0-6.4-1.3-12.2-3.8-16.7-2.6-4.5-5.8-8.3-10.3-10.9-4.5-3.2-9.6-5.1-15.4-7.7-5.8-1.9-12.2-3.8-18.6-5.8-9.6-2.6-19.2-5.1-28.2-8.3-9-2.6-16.7-6.4-23.7-10.9-7.1-4.5-12.2-9.6-16-16.7-3.8-6.4-5.8-15.4-5.8-25.6s1.9-18.6 5.8-26.3c3.8-7.7 9-14.1 15.4-19.9 6.4-5.1 14.1-9.6 23.1-12.2 9.1-3 18.7-4.3 29.6-4.3zM4747.4 912.8V691h26.9v222.4h-26.9v-.6zM4959 912.8c-3.2-9.6-5.8-19.2-9-28.8s-5.8-19.2-9-28.8h-87.8c-3.2 9.6-5.8 19.2-9 28.8s-5.8 19.2-9 28.8H4807c12.8-40.4 25.6-78.8 38.5-116 12.2-37.2 23.7-72.4 35.3-106.4h35.3l72.4 222.4H4959zm-24.4-78.8c-5.1-16.7-10.3-32.7-14.7-49.4-5.1-16.7-10.3-32.7-15.4-49.4l-6.4-21.8h-1.3l-6.4 21.8c-2.6 7.7-4.5 16-7.1 23.7s-4.5 15.4-7.1 23.1c-2.6 7.7-4.5 16-7.7 24.4-2.6 8.3-5.1 17.3-8.3 26.9h74.4v.7z"/></g></g></g><g fill="#E6007C"><path d="M886 1511.7h93.2c12.6 0 23.7 1.6 33.3 4.9 9.6 3.3 17.6 7.9 23.9 13.8 6.3 5.9 11 12.9 14.2 21 3.2 8.1 4.7 16.9 4.7 26.5 0 10.6-2.6 21.1-7.8 31.4-5.2 10.3-14.5 18.9-27.9 25.7 8.6 2.8 15.6 6.8 21 12s9.8 10.9 13.1 17.1c3.3 6.2 5.6 12.5 6.8 19 1.3 6.5 1.9 12.2 1.9 17.3 0 10.6-2 20.3-5.9 29-3.9 8.7-9.2 16.2-15.9 22.4-6.7 6.2-14.5 10.9-23.3 14.2-8.8 3.3-18.2 4.9-28 4.9H886v-259.2zm137.2 68.8c0-12.8-4-23.4-11.9-31.7-8-8.3-21-12.5-39.2-12.5h-54.2v87.5h54.2c16.7 0 29.4-3.9 38.1-11.7s13-18.3 13-31.6zm7.6 116.9c0-6.3-1.1-12.4-3.2-18.4-2.1-5.9-5.4-11.2-9.7-15.7-4.3-4.5-9.7-8.1-16.3-10.8-6.6-2.7-14.2-4-22.7-4h-61v97.8h61c9.3 0 17.3-1.3 23.9-4 6.6-2.7 11.9-6.2 16.1-10.6 4.2-4.4 7.2-9.6 9.1-15.5 1.8-6 2.8-12.3 2.8-18.8zM1328.3 1642c0 18.7-2.3 36.1-6.8 52.3-4.5 16.2-11.3 30.1-20.3 41.9-9 11.7-20.2 21-33.7 27.7-13.5 6.7-29.1 10-46.8 10-20.2 0-37.3-3.1-51.3-9.3-14-6.2-25.5-15-34.5-26.3-9-11.4-15.5-25.1-19.5-41.1s-6.1-34-6.1-54c0-17.9 2-35.1 5.9-51.5 3.9-16.4 10.2-30.9 18.9-43.4s20.2-22.4 34.5-29.7c14.3-7.3 31.6-11 52.1-11 20.7 0 38 3.7 51.9 11.2 13.9 7.5 24.9 17.4 33.2 29.7 8.2 12.4 14 26.7 17.4 42.8 3.4 16.1 5.1 33.1 5.1 50.7zm-33.8 1.4c0-12.9-.9-25.8-2.8-39-1.9-13.1-5.5-25-10.8-35.7-5.3-10.7-12.8-19.5-22.4-26.3-9.6-6.8-22.2-10.2-37.9-10.2s-28.6 3.2-38.7 9.5c-10.1 6.3-18.1 14.7-23.9 25.2-5.8 10.5-9.9 22.4-12.1 35.7-2.3 13.4-3.4 27.1-3.4 41.2 0 34.6 6.1 60.8 18.2 78.7s32.1 26.9 59.9 26.9c12.6 0 23.6-2.8 33-8.3 9.3-5.5 17.1-13.1 23.1-22.7 6.1-9.6 10.5-20.8 13.5-33.7 2.9-13 4.3-26.7 4.3-41.3zM1532.5 1770.9l-.4-234.9H1448l-1.1 26.5c-1.3 23.7-2.5 45.2-3.6 64.4-1.1 19.2-2.7 36.4-4.5 51.7-1.9 15.3-4.5 28.7-7.8 40.4-3.3 11.6-7.9 21.5-13.8 29.7s-13.5 14.8-22.5 19.9-20.3 8.8-33.7 11.4l-6.1-23.1c14.4-4.8 25.4-10.9 33.2-18.4 7.7-7.4 13.5-17.9 17.4-31.5 3.9-13.5 6.6-30.9 8.1-52.3 1.5-21.3 3-48.3 4.5-80.9l3-62.5h144v259.6h-32.6zM1837.2 1642c0 18.7-2.3 36.1-6.8 52.3-4.5 16.2-11.3 30.1-20.3 41.9-9 11.7-20.2 21-33.7 27.7-13.5 6.7-29.1 10-46.8 10-20.2 0-37.3-3.1-51.3-9.3-14-6.2-25.5-15-34.5-26.3-9-11.4-15.5-25.1-19.5-41.1s-6.1-34-6.1-54c0-17.9 2-35.1 5.9-51.5 3.9-16.4 10.2-30.9 18.9-43.4s20.2-22.4 34.5-29.7c14.3-7.3 31.6-11 52.1-11 20.7 0 38 3.7 51.9 11.2 13.9 7.5 24.9 17.4 33.2 29.7 8.2 12.4 14 26.7 17.4 42.8 3.4 16.1 5.1 33.1 5.1 50.7zm-33.8 1.4c0-12.9-.9-25.8-2.8-39-1.9-13.1-5.5-25-10.8-35.7-5.3-10.7-12.8-19.5-22.4-26.3-9.6-6.8-22.2-10.2-37.9-10.2s-28.6 3.2-38.7 9.5c-10.1 6.3-18.1 14.7-23.9 25.2-5.8 10.5-9.9 22.4-12.1 35.7-2.3 13.4-3.4 27.1-3.4 41.2 0 34.6 6.1 60.8 18.2 78.7s32.1 26.9 59.9 26.9c12.6 0 23.6-2.8 33-8.3 9.3-5.5 17.1-13.1 23.1-22.7 6.1-9.6 10.5-20.8 13.5-33.7 2.9-13 4.3-26.7 4.3-41.3zM2044.1 1770.9V1647h-121.3c0 20.7.1 41.4.2 62s.2 41.2.2 62h-33v-259.2h33c0 18.4-.1 36.6-.2 54.6-.1 17.9-.2 36.1-.2 54.6h121.3v-109.1h33v259.2h-33zM2198.3 1770.9v-234.2h-83.4v-25.4h198.2v25.4h-83l-.4 234.2h-31.4zM2351 1770.9v-259.2h158v24.6h-125.8v85.6h106.1v23.5h-106.1v100.8h131.9v24.6H2351zM2730.3 1586.7c0 7.8-1.2 16.3-3.6 25.4-2.4 9.1-6.6 17.5-12.5 25.2-5.9 7.7-13.9 14.2-23.9 19.3-10 5.2-22.4 7.8-37.3 7.8h-56.1l.4 106.5h-32.6v-259.6h84.9c11.9 0 22.7 1.6 32.6 4.7 9.9 3.2 18.4 7.9 25.6 14.2 7.2 6.3 12.8 14.2 16.7 23.7 3.9 9.5 5.8 20.4 5.8 32.8zm-133.4-50.8v103.8h51.5c6.1 0 12-.8 17.8-2.5 5.8-1.6 11-4.5 15.7-8.5 4.7-4 8.4-9.4 11.2-16 2.8-6.7 4.2-15 4.2-25.1 0-8.8-1.3-16.5-3.8-23s-6.1-12-10.6-16.2c-4.5-4.3-9.9-7.4-16.1-9.4-6.2-2-12.8-3-19.9-3h-50z"/></g><g fill="#007AC2"><path d="M2906.4 1748.2h124.3v22.7h-167.1V1750c6.8-6.6 14.6-13.9 23.5-22 8.8-8.1 17.9-16.7 27.3-25.8 9.3-9.1 18.5-18.5 27.5-28.2s17-19.5 24.1-29.4c7.1-9.9 12.8-19.6 17.1-29.2 4.3-9.6 6.4-18.8 6.4-27.7 0-16.2-4.8-28-14.4-35.4-9.6-7.4-22.1-11.2-37.5-11.2-6.3 0-15 1.1-26 3.2s-23.8 7.6-38.5 16.5l-10.6-18.2c7.6-5.6 15.2-10.1 22.7-13.6 7.6-3.5 14.8-6.3 21.8-8.3 6.9-2 13.5-3.4 19.5-4.2 6.1-.8 11.5-1.1 16.3-1.1 11.4 0 21.8 1.4 31.5 4.2 9.6 2.8 17.8 7.1 24.6 12.9 6.8 5.8 12.2 13.1 16.1 21.8 3.9 8.7 5.9 18.9 5.9 30.6 0 15.2-4.2 30.4-12.5 45.5-8.3 15.2-18.4 29.8-30.3 43.8-11.9 14-24.4 27.2-37.7 39.5s-24.8 23.1-34.7 32.4l.7 2.1zM3257.3 1646.2c0 15.2-1.5 30.3-4.5 45.5s-8 28.8-14.9 40.9c-6.9 12.1-16.3 22-28 29.6s-26.3 11.4-43.7 11.4c-19.7 0-35.6-3.7-47.8-11-12.2-7.3-21.7-16.9-28.6-28.8-6.8-11.9-11.4-25.4-13.8-40.5-2.4-15.2-3.6-30.6-3.6-46.2 0-14.1 1.3-29 3.8-44.5s7.2-29.7 14-42.6c6.8-12.9 16.3-23.5 28.6-31.8 12.2-8.3 28.2-12.5 47.8-12.5 13.4 0 24.8 2 34.4 6.1 9.6 4 17.8 9.4 24.6 16.1 6.8 6.7 12.3 14.5 16.4 23.3 4.2 8.8 7.4 18.1 9.6 27.9 2.3 9.7 3.8 19.5 4.5 29.4s1.2 18.9 1.2 27.7zm-30.7.6c0-9.8-.4-20.9-1.3-33.3-.9-12.4-3.4-24-7.4-34.8-4.1-10.8-10.1-20-18.1-27.4s-19.1-11.2-33.3-11.2c-14.2 0-25.5 3.5-34 10.6s-14.9 16-19.2 26.7-7.1 22.4-8.4 35c-1.3 12.6-1.9 24.3-1.9 35.2 0 14.1.8 27.4 2.5 39.7 1.6 12.4 4.8 23.1 9.3 32.2 4.6 9.1 11 16.3 19.2 21.6 8.2 5.3 19.1 7.9 32.5 7.9 12.2 0 22.2-3 30-9.1 7.9-6.1 14-13.9 18.4-23.6 4.4-9.7 7.5-20.7 9.1-32.9 1.8-12.3 2.6-24.5 2.6-36.6zM3364.5 1549.2l-56.5 3.8v-21.2l58.8-12.5h28.4v251.6h-30.7v-221.7zM3638.9 1656.8c-9.3 5.6-19.1 10.1-29.4 13.6-10.2 3.5-21.8 5.3-34.7 5.3-10.1 0-19.8-1.5-29-4.4-9.2-2.9-17.3-7.5-24.3-13.8-7-6.3-12.5-14.4-16.7-24.3-4.2-9.9-6.3-21.7-6.3-35.6 0-12.9 2.1-24.4 6.3-34.5 4.2-10.1 10-18.7 17.4-25.8 7.4-7.1 16.4-12.5 26.9-16.3 10.5-3.8 22-5.7 34.7-5.7 16.9 0 31 3.1 42.3 9.3 11.2 6.2 20.2 14.7 26.9 25.4 6.7 10.7 11.4 23.2 14 37.5 2.7 14.3 4 29.5 4 45.7 0 20.5-2 39.2-6.1 56.3-4 17.1-10.2 31.8-18.4 44.1-8.2 12.4-18.6 22-31.3 29-12.6 7-27.4 10.4-44.3 10.4-13.6 0-25.7-1.3-36.2-4-10.5-2.7-17.9-5.1-22.2-7.4 1.3-3.5 2.4-7.1 3.4-10.8 1-3.7 2.1-7.3 3.4-10.8 9.3 3.5 18.6 5.9 27.9 7.2 9.2 1.3 16.9 1.9 22.9 1.9 13.9 0 25.3-3.4 34.3-10.2 9-6.8 16-15.1 21.2-24.8 5.2-9.7 8.8-19.8 11-30.1 2.1-10.4 3.5-19.1 4-26.1l-1.7-1.1zm-58.4-4.9c9.3 0 17.7-.9 25-2.8 7.3-1.9 13.5-4 18.6-6.4 5-2.4 8.9-4.6 11.6-6.6 2.7-2 4.2-3.2 4.7-3.4v-8.3c0-7.8-.6-16.5-1.7-26.1-1.1-9.6-3.7-18.6-7.8-27.1-4-8.5-9.8-15.6-17.2-21.4-7.5-5.8-17.6-8.7-30.5-8.7-18.2 0-31.8 5.1-40.9 15.3s-13.6 23.6-13.6 40c0 8.1.9 15.5 2.7 22.4 1.8 6.8 4.7 12.7 8.7 17.6 4 4.9 9.3 8.8 15.9 11.6 6.5 2.5 14.7 3.9 24.5 3.9z"/></g></svg>