<svg xmlns="http://www.w3.org/2000/svg" viewBox="0 700 5000 600"><path fill="#008FD3" d="M70 1162.3l12.5 25.8s.4.8.4 1.2c-.4.4-2.1.4-2.1.4l-13.3 1.2s-1.2 0-1.2.8 1.2.8 3.3.8c1.7 0 15 1.7 15 1.7s1.2 0 2.1 1.2c.4 1.3 1.7 2.5 1.7 2.5s.8 1.2 0 1.7c-.8.4-4.6.4-4.6.4l-24.2 2.9s-.8 0-.8.4.4.8 1.2.8 16.7 1.7 16.7 1.7 1.7 0 2.5.8l2.5 2.5s.8.8.4.8c-.8.4-5.4.8-5.4.8l-25 2.1s-.8 0-.8.4.4.8 1.2.8 36.7 2.5 36.7 2.5h1.7l.4.4 2.9 2.9s.8.4.4.8c0 .4-.8.4-.8.4l-30 2.9s-.8 0-1.2.8c0 .8.8.8.8.8l37.9 2.9s1.2 0 2.1.8l2.9 2.9.4.8c-.4.4-2.1.4-2.1.4l-29.2 2.5s-.8 0-.8.4.4.8 1.2.8c.4 0 30.8 2.9 30.8 2.9s1.2 0 .8 1.2c-.4 1.2-.8 2.9-.8 2.9s0 .8-1.7 1.3c-1.7.4-17.5 2.1-17.5 2.1s-.8 0-.8.4 0 .8 1.2.8 16.2 1.7 16.2 1.7 1.2 0 1.2 1.7c-.4 1.7-3.3 19.6-3.3 19.6s0 .8-.4.8-2.1-1.2-2.1-1.2l-30.4-18.8-35.4 21.2s-1.2.8-2.5 0c-1.2-.8-.4-3.8-.4-3.8l6.7-37.9-28.8-28.3s-1.2-2.1.4-2.9c2.1-.8 40.4-5.8 40.4-5.8l17.9-35.8s.4-1.7 2.1-1.7c.6 2.8 1 4.9 1 4.9"/><path fill="#FBBE00" d="M147.1 1162.3l12.5 25.8s.4.8.4 1.2c0 .4-1.7.4-1.7.4l-13.8 1.2s-1.2 0-1.2.8 1.2.8 3.3.8c1.7 0 15 1.7 15 1.7s1.2 0 2.1 1.2c.4 1.3 1.7 2.9 1.7 2.9s.8 1.2 0 1.2c-.8.4-4.6.4-4.6.4l-24.2 2.9s-.8 0-.8.4.4.8 1.2.8 16.7 1.7 16.7 1.7 1.7 0 2.5.8l2.5 2.5s.8.8.4.8c-.8.4-5.4.8-5.4.8l-25 2.1s-.8 0-.8.8c0 .4.4.8 1.2.8s36.2 2.5 36.2 2.5h1.7l.4.4 2.9 2.9s.8.4.8.8-.8.4-.8.4l-30 2.9s-.8 0-1.2.8c0 .8.8.8.8.8l37.9 2.9s1.2 0 2.1.8l2.9 2.9.4.8c-.4.4-2.1.4-2.1.4l-29.2 2.5s-.8 0-.8.4.4.8.8.8c.8 0 31.2 2.9 31.2 2.9s1.2 0 .8 1.3c-.4 1.2-.8 3.3-.8 3.3s0 .8-1.7 1.2c-1.7.4-17.5 2.1-17.5 2.1s-.8 0-.8.4 0 .8 1.2.8 16.7 1.7 16.7 1.7 1.2 0 .8 1.7-3.8 20-3.8 20 0 .8-.4.8-2.1-1.2-2.1-1.2l-30.4-18.8-35.4 21.2s-1.2.8-2.5.4c-.8-.8-.4-3.8-.4-3.8l6.7-37.9L85 1206s-1.2-2.1.4-2.9c2.5-.8 40.4-5.8 40.4-5.8l17.9-35.8s.4-1.7 2.1-1.7c.9.4 1.3 2.5 1.3 2.5"/><path fill="#00151D" d="M225 1162.3l12.5 25.8s.4.8.4 1.2c-.4.4-2.1.4-2.1.4l-13.7 1.2s-1.2 0-1.2.8 1.7.8 3.3.8c1.7 0 15 1.7 15 1.7s1.2 0 2.1 1.2c.4 1.3 1.7 2.9 1.7 2.9s.8 1.2 0 1.2c-.8.4-4.6.4-4.6.4l-24.2 2.9s-.8 0-.8.4.4.8 1.2.8 16.7 1.7 16.7 1.7 1.7 0 2.5.8l2.5 2.5s.8.8.4.8c-.8.4-5.4.8-5.4.8l-25 2.1s-.8 0-.8.8c0 .4.4.8 1.2.8s36.7 2.5 36.7 2.5h1.7l.4.4 2.9 2.9s.8.4.4.8-.8.4-.8.4l-30 2.9s-.8 0-1.2.8c0 .8.8.8.8.8l37.9 2.9s1.2 0 2.1.8l2.9 2.9.4.8c-.4.4-2.1.4-2.1.4l-29.2 2.5s-.8 0-.8.4.4.8 1.2.8c.4 0 31.2 2.9 31.2 2.9s1.2 0 .8 1.3c-.4 1.2-.8 3.3-.8 3.3s0 .8-1.7 1.2c-1.7.4-17.5 2.1-17.5 2.1s-.8 0-.8.4 0 .8 1.2.8 16.7 1.7 16.7 1.7 1.2 0 1.2 1.7c-.4 1.7-3.8 20-3.8 20s0 .8-.4.8-2.1-1.2-2.1-1.2l-30.4-18.8-35.4 21.2s-1.2.8-2.5.4c-.8-.8-.4-3.8-.4-3.8l6.7-37.9-29.2-28.3s-1.2-2.1.4-2.9c2.1-.8 40-5.8 40-5.8l17.9-35.8s.4-1.7 2.1-1.7c1 1.3 1.8 3.4 1.8 3.4"/><path fill="#00914C" d="M302.1 1162.3l12.5 25.8s.4.8.4 1.2c-.4.4-1.7.4-1.7.4l-13.8 1.2s-1.2 0-1.2.8 1.2.8 3.3.8c1.7 0 15 1.7 15 1.7s1.2 0 2.1 1.2c.4 1.3 1.7 2.5 1.7 2.5s.8 1.2 0 1.7c-.8.4-4.6.4-4.6.4l-24.2 2.9s-.8 0-.8.4.4.8 1.2.8c.8 0 16.7 1.7 16.7 1.7s1.7 0 2.5.8l2.5 2.5s.8.8.4.8c-.8.4-5.4.8-5.4.8l-25 2.1s-.8 0-.8.4.4.8 1.3.8c.8 0 36.7 2.5 36.7 2.5h1.7l.4.4 2.9 2.9s.8.4.8.8-.8.4-.8.4l-30 2.9s-.8 0-1.2.8c0 .8.8.8.8.8l37.9 2.9s1.3 0 2.1.8l2.9 2.9.4.8c-.4.4-2.1.4-2.1.4l-29.2 2.5s-.8 0-.8.4.4.8 1.2.8c.8 0 31.2 2.9 31.2 2.9s1.2 0 .8 1.2c-.4 1.2-.8 2.9-.8 2.9s0 .8-1.7 1.3c-1.7.4-17.5 2.1-17.5 2.1s-.8 0-.8.4 0 .8 1.2.8c1.3 0 16.2 1.7 16.2 1.7s1.3 0 .8 1.7c-.4 1.7-3.8 19.6-3.8 19.6s0 .8-.4.8-2.1-1.2-2.1-1.2l-30.4-18.8-35.4 21.2s-1.2.8-2.5 0c-1.2-.8-.4-3.8-.4-3.8l6.7-37.9-28.8-28.3s-1.2-2.1.4-2.9c2.5-.8 40.4-5.8 40.4-5.8l17.9-35.8s.4-1.7 2.1-1.7c.7 2.8 1.1 4.9 1.1 4.9"/><path fill="#E30521" d="M379.2 1162.3l12.5 25.8s.4.8.4 1.2c-.4.4-1.7.4-1.7.4l-13.8 1.2s-1.2 0-1.2.8 1.2.8 3.3.8c1.7 0 14.6 1.2 14.6 1.2s1.3 0 2.1 1.2c.4.8 1.2 2.1 1.2 2.1s1.3 1.2 0 1.7c-.8.4-5.4.8-5.4.8l-23.8 2.5s-.8 0-.8.4.4.8 1.2.8 60.8 1.7 60.8 1.7 6.7.4 8.3.4c.8 0 .8.4.8.4.4.4-2.1 2.5-2.1 2.5s-1.7 1.7-2.5 2.1h-4.2l-69.2 2.9s-.8 0-.8.8c0 .4.4.8 1.2.8.8 0 63.3 2.9 63.3 2.9h1.7c.4.4 0 .8 0 .8l-1.7 1.7-.8.8c-.4.4-2.1.8-2.1.8l-49.2 3.3s-.8 0-1.2.8c0 .8.8.8.8.8l40 2.5s1.7 0 1.7.4c0 .8-2.1 2.9-2.1 2.9l-1.7 1.7c-.4.4-2.1.4-2.1.4l-24.2 2.1s-.8 0-.8.4.4.8 1.2.8c.8 0 19.2 1.7 19.2 1.7s2.9.4 4.6.4c2.1 0 2.1.4 2.1.8.4 1.2.8 4.6.8 4.6s.4.8-1.7 1.2c-1.7.4-12.5 1.7-12.5 1.7s-1.2 0-1.2.8c0 .4 0 .8 1.2.8.8 0-1.2 0 14.6 1.7 0 0 1.2 0 1.7 1.7 0 1.7 3.3 19.2 3.3 19.2s.4 1.7-.4 2.9c-.8.8-3.3-.8-3.3-.8l-34.2-20.8-35.4 21.7s-1.2.8-2.5.4c-.8-.8-.4-3.8-.4-3.8l6.7-37.9-28.8-28.3s-1.2-2.1.4-2.9c2.1-.8 40-5.8 40-5.8l17.9-35.8s.4-1.7 2.1-1.7c1.7.5 2.1 2.6 2.1 2.6"/><g><g fill="#0080C8"><path d="M433.7 852.3l-47 23.7-.5 3.4 49.2-25zM420 835.6L389.6 851l-.4 2.9 32.5-16.2zM399.6 810.2l-5.8 2.9v3.4l7.4-4.2zM413.3 827.3l-22.1 10.8-.4 3.4 24.2-12.1zM427.1 843.9l-38.8 19.6-.4 3 40.4-20.5zM440.4 860.6l-55 27.9-.4 3.4 57.1-28.8zM406.7 818.5l-14.2 7.1-.4 3.3 16.2-8.3zM385 1018.9l-15.8 8-.4 3.3 14.5-7.5zM390.4 1004.4l-19.6 10-.4 2.9 18.4-9.2zM395.8 989.8l-23.7 12.1-.4 2.9 22.9-11.3zM379.6 1033.5l-11.7 5.9-.4 3.3 10.4-5.4zM374.2 1048.1l-8 3.8-.4 3.3 6.7-3.3zM401.2 975.2l-27.5 14.2-.4 2.9 26.7-13.4zM417.5 931.5L380 950.6l-.4 2.9 36.6-18.3zM428.3 902.3l-47.5 24.2-.4 2.9 46.7-23.4zM433.7 887.7l-51.2 25.8-.4 3.4 50.4-25.4zM406.7 960.6L375 976.5l-.4 3.3 30.8-15.4zM422.9 916.9l-43.3 22-.4 2.1v.9l42.5-21.3zM412.1 946l-35.4 17.9-.5 3.4 34.6-17.5zM439.2 873.1L383.7 901l-.4 3.4 54.6-27.5z"/></g><g fill="#0080C8"><path d="M175 892.7l73.8-16.7.4-2.9-74.2 16.7zM175 925.2l67.5-15.4.4-2.5-67.9 15zM175 914.4l69.6-15.9.4-2.9-70 15.9zM175 936l65.4-14.5.4-3-65.8 14.6zM175 903.5l71.7-16.2.4-2.9-72.1 16.2zM174.6 849.4l66.2-15-1.6-2.1-64.6 14.2zM174.6 784.4l24.6-5.5-1.7-2.4-22.9 5zM174.6 795.2l31.6-7.1-1.6-2.5-30 6.7zM174.6 806l38.3-8.7-1.7-2.1-36.6 7.9zM175 881.9l75.8-17.1.4-2.9-76.2 17zM174.6 762.7l10.8-2.5-1.7-2.5-9.1 2.1zM178.3 751l-1.6-2.5-2.1.4v3zM174.6 773.5l17.9-4.1-2.1-2.1-15.8 3.7zM175 871l77.9-17.5.4-2.5-.4-.4-77.9 17.5zM174.6 860.2l72.9-16.7-1.7-2-71.2 15.8zM174.6 816.9l45.4-10.4-1.7-2.1-43.7 9.5zM174.6 827.7l52.5-11.7-2.1-2.5-50.4 11.3zM174.6 838.5l59.1-13.3-1.6-2.5-57.5 12.9z"/></g><g fill="#0080C8"><path d="M47.9 876l-23.7 17.9-.5 3.8 24.2-18.3zM47.1 863.5l-20 15.4-.9 3.8 21.3-16.2zM44.2 812.7l-6.7 5-.4 3.8 7.5-5.5zM46.2 850.6l-16.6 12.9-.4 3.8 17.5-13.4zM43.8 799.8l-3.4 2.5-.8 3.7 4.2-2.9zM45.8 838.1l-13.3 10-.8 3.8 14.1-10.4zM45 825.2l-10 7.9-.8 3.8 11.2-8.4zM55.8 979.4l-.8-2.9-50.8 38.7 2.5 1.3zM66.7 1050.6l1.6-1.2-.8-2.9-3.3 2.4zM46.7 1038.9l17.5-12.9-.9-2.9-19.1 14.6zM57.1 1044.8l9.1-7.1-.8-2.9-11.2 8.7zM36.7 1033.5l25.4-19.1-.9-2.9-27 20.8zM26.7 1027.7l33.3-25-.8-2.9-34.6 26.7zM48.3 888.9l-26.6 20.5-.9 3.7 27.9-20.8zM16.7 1022.3L57.9 991l-.8-2.9-42.9 32.5zM50 914.4l-33.8 25.4-.8 3.7L50 917.3zM49.2 901.5l-30.4 23.3-.5 3.7 31.3-23.7zM50.8 926.9l-37.5 28.3-.4 3.7 37.9-28.7zM52.9 964.8L5.4 1001l-.4 3.8 48.7-37.1zM52.1 952.3L8.3 985.6l-.8 3.8 44.6-33.8zM51.2 939.8l-40.4 30.8-.8 3.8 41.7-31.3z"/></g><path fill="#0080C8" d="M277.9 1100.6L380 953.1l-13.8 102.1z"/><path fill="#E5007E" d="M281.2 961.5V749.8l-32.4 170z"/><path fill="#0080C8" d="M380 953.1l-26.7-203.3 41.7 54.6zM276.7 969.8l-33.4-41.3-67.9 15.4v3.8zM62.9 959.4l13.8 83.7 69.5 17.5z"/><path fill="#E5007E" d="M275 1101.9l-62.1 30.4L80 1055.6zM60.4 954.4l49.2-204.6-55.4 42.9z"/></g><g><g fill="#0E7DC2"><path d="M661.7 842.3c-1.7 7.1-2.9 14.2-4.6 21.2-1.7 7.1-2.9 14.2-4.6 21.2-.4 2.1-2.9 12.5-7.1 31.7-4.6 19.2-10.8 47.1-18.8 83.3h-29.2l-47.4-192h25c4.2 19.2 8.8 38.3 12.9 57.5 4.2 19.2 8.8 38.3 13.3 57.5 1.7 7.9 3.3 16.2 5 24.6 1.7 8.3 3.7 16.2 5.4 24.6h1.3l10-45.8c2.1-10.4 4.6-20.8 6.7-30.4 2.1-9.6 4.6-19.6 6.7-29.2 2.1-9.6 4.2-19.2 6.2-28.8 2.1-9.6 4.6-19.6 6.7-29.6h25.4l30.8 116.7c.4 1.2 1.3 3.8 2.1 7.9 1.2 4.2 2.5 8.8 3.7 13.8 1.3 5 2.5 10 3.8 15 1.2 5 2.1 8.3 2.9 10.4h1.7c2.1-8.3 3.7-17.1 5.4-25.8 1.7-8.8 3.7-17.1 5.4-25.8 4.2-18.8 8.3-37.5 12.5-56.2 4.2-18.8 8.3-37.5 12.5-56.2h23.8c-7.9 34.6-16.2 68.3-24.2 100.4-7.9 32.1-15.4 62.9-22.9 92.5h-28.3c-5-19.6-10-38.8-15.4-57.5-5-18.3-10-37.9-15.4-58.3-1.7-7.1-3.7-14.2-5.4-21.2-1.8-7.3-3.8-14.4-5.9-21.5zM808.8 1000.6V807.3h23.8v193.3h-23.8zM1004.2 961.5V807.7h22.9v192.9h-23.3l-74.2-116.7-25.4-40.4h-.4-.8v156.7h-23V807.7h24.2c12.1 18.3 23.8 36.7 35.4 54.6 11.7 17.9 23.3 36.2 35 54.6l28.3 44.2h1.3v.4zM1117.5 1000.6V826h-62.1v-18.8h147.5V826h-61.7l-.4 174.2h-23.3v.4zM1231.2 1000.6V807.7h117.5V826H1255v63.8h79.2v17.5H1255v75h98.3v18.3h-122.1zM1514.2 860.6c0 11.7-2.9 21.7-8.8 31.2-5.8 9.2-14.2 15.4-25.4 18.8 7.5 2.1 12.9 6.7 16.2 12.9 3.3 6.2 6.2 13.3 8.3 21.2l15.8 55.8h-24.2l-15.4-52.9c-1.7-6.2-4.2-11.2-6.2-15.4-2.5-4.2-5-7.1-7.9-9.6s-6.2-4.2-10-5-7.9-1.2-12.9-1.2h-30.4v84.2h-23.8V807.3h66.2c19.2 0 33.3 5 42.9 14.6 11 10 15.6 22.9 15.6 38.7zm-61.3 37.5c3.8 0 7.9-.4 12.1-1.2s8.3-2.9 12.1-5.4c3.8-2.9 6.7-6.7 9.2-11.2 2.5-4.6 3.3-10.8 3.3-18.3 0-6.2-.8-12.1-2.9-16.7-2.1-4.6-4.6-8.3-7.9-11.2s-7.5-5-11.7-6.2c-4.6-1.2-9.6-2.1-14.6-2.1h-38.3v72.5h38.7v-.2z"/></g><g fill="#E5007E"><path d="M1747.9 931c0 10.8-1.7 20.4-4.6 29.2s-7.5 16.2-13.8 22.9c-6.2 6.2-13.7 11.2-22.9 14.6-9.2 3.3-20 5-32.9 5-25.8 0-44.6-6.2-55.8-19.2-11.7-12.5-17.5-30.4-17.5-52.5V807.3h23.8v124.2c0 17.5 4.2 30.8 12.9 39.6 8.8 8.7 20.8 13.3 37.1 13.3 15.8 0 28.3-4.2 37.1-12.9s12.9-22.1 12.9-40l-.4-124.2h23.8v123.8l.3-.1zM1914.6 961.5V807.7h22.9v192.9h-23.3L1840 883.9l-25.4-40.4h-.4-.8v156.7h-22.9V807.7h24.2c12.1 18.3 23.8 36.7 35.4 54.6 11.7 17.9 23.3 36.2 35 54.6l28.3 44.2h1.3l-.1.4zM1985.8 1000.6V807.3h23.8v193.3h-23.8zM2113.7 975.6L2125 936l37.9-128.7h24.6l-61.3 193.3h-28.3l-60.4-193.3h25.4l38.8 129.2 10.8 39.2h1.2v-.1zM2213.3 1000.6V807.7h117.5V826h-93.3v63.8h79.2v17.5h-79.2v75h98.3v18.3h-122.5zM2496.2 860.6c0 11.7-2.9 21.7-8.7 31.2-5.8 9.2-14.2 15.4-25.4 18.8 7.5 2.1 12.9 6.7 16.3 12.9 3.3 6.2 6.2 13.3 8.3 21.2l15.8 55.8h-24.2l-15.4-52.9c-2.1-6.2-4.2-11.2-6.2-15.4-2.5-4.2-5-7.1-7.9-9.6s-6.2-4.2-10-5-7.9-1.2-12.5-1.2h-30.4v84.2h-23.8V807.3h66.2c19.2 0 33.3 5 42.9 14.6 10.5 10 15 22.9 15 38.7zm-61.2 37.5c3.8 0 7.9-.4 12.1-1.2 4.2-.8 8.3-2.9 12.1-5.4 3.8-2.9 6.7-6.7 9.2-11.2 2.5-4.6 3.3-10.8 3.3-18.3 0-6.2-.8-12.1-2.9-16.7-1.7-4.6-4.6-8.3-7.9-11.2-3.3-2.9-7.5-5-11.7-6.2-4.6-1.2-9.6-2.1-14.6-2.1h-38.3v72.5h38.7v-.2zM2597.5 804.4c7.9 0 16.7.8 26.2 2.5s18.3 5 26.7 9.6l-7.5 17.1c-9.2-4.2-17.5-6.7-25.4-7.9s-14.6-1.7-21.2-1.7c-11.2 0-20.4 2.9-27.5 8.8-7.1 5.8-10.8 14.6-10.8 26.2 0 5.4 1.2 9.6 3.8 13.3s5.8 6.7 10 8.8c4.2 2.5 8.7 4.2 13.7 5.8 5 1.7 10.4 2.9 15.8 4.6 7.1 1.7 14.2 3.8 21.2 5.8 7.5 2.1 14.2 5.4 20 9.2 6.2 4.2 10.8 9.2 15 15.8 3.8 6.7 5.8 15 5.8 25.8 0 9.6-1.7 17.9-5.4 25-3.3 7.1-8.3 12.9-14.6 17.1-6.2 4.6-13.7 7.9-22.5 10s-18.3 3.3-28.8 3.3c-10 0-20.8-1.2-31.7-3.3-10.8-2.1-21.2-6.2-30.8-11.7l8.3-17.5c11.7 5.4 21.7 9.2 30.4 10.8 8.8 1.7 16.7 2.5 24.2 2.5 14.6 0 26.2-2.5 34.2-7.9 8.3-5 12.1-14.6 12.1-28.3 0-5.8-.8-10.8-2.9-14.6-2.1-3.8-5-7.1-8.8-9.6s-8.3-4.6-13.3-6.7c-5-1.7-10.4-3.3-16.2-5-8.3-2.1-16.7-4.6-24.2-7.1s-14.6-5.4-20.4-9.2c-5.8-3.8-10.8-8.8-14.2-14.6-3.3-5.8-5.4-13.3-5.4-22.1s1.7-16.2 4.6-22.9c3.3-6.7 7.5-12.5 13.3-17.1s12.5-8.3 20-10.8c8-2.8 16.7-4 26.3-4zM2702.5 1000.6V807.3h23.8v193.3h-23.8zM2886.7 1000.6c-2.5-8.3-5.4-16.7-7.9-25.4-2.5-8.3-5.4-16.7-7.9-25.4h-76.2c-2.5 8.3-5.4 16.7-7.9 25.4-2.5 8.3-5.4 16.7-7.9 25.4h-24.6c11.2-35 22.5-68.3 33.3-100.8 10.8-32.1 20.8-62.9 30.4-92.5h30.4l63.3 193.3h-25zm-21.3-68.7c-4.2-14.2-8.7-28.8-12.9-42.9-4.2-14.2-8.7-28.8-13.3-42.9l-5.8-18.8h-.8l-5.8 19.2c-2.1 7.1-4.2 13.8-6.2 20.4-2.1 6.7-4.2 13.3-6.2 20.4-2.1 6.7-4.2 14.2-6.7 21.2-2.1 7.5-4.6 15-7.5 23.3l65.2.1zM2937.5 1000.6V807.3h62.9c15.8 0 28.3 2.5 38.8 7.9 10.4 5 18.3 12.1 24.6 20.8 5.8 8.8 10 19.2 12.5 30.4 2.5 11.7 3.3 23.8 3.3 36.7 0 13.3-1.2 25.8-4.2 37.5-2.5 11.7-7.1 22.1-13.3 30.8s-14.6 15.8-25 20.8-23.8 7.9-39.2 7.9h-60.4v.5zm24.6-175v156.7h32.9c2.9 0 6.2-.4 10.4-.4 4.2-.4 8.3-1.2 12.9-2.9s8.8-3.8 13.3-7.1c4.2-3.3 8.3-7.5 11.7-13.3 3.3-5.8 6.2-12.9 8.3-21.2 2.1-8.7 3.3-19.2 3.3-31.7s-.8-23.3-2.9-32.1c-2.1-8.8-4.6-16.2-7.9-22.1-3.3-5.8-6.7-10.4-10.8-14.2-4.2-3.3-8.3-5.8-12.9-7.5-4.2-1.7-8.3-2.9-12.5-3.3-4.2-.4-7.9-.8-11.3-.8h-34.5v-.1zM3119.2 1000.6V807.7h117.5V826h-93.8v63.8h78.8v17.5h-78.8v75h98.3v18.3h-122z"/></g><g fill="#0080C8"><path d="M604.6 1108.1l8.8-10 42.1-45.8h35.4l-54.2 56.2 57.1 87.5H658c-7.1-11.2-14.2-22.5-20.8-33.3-7.1-10.8-13.8-22.1-20.8-33.3l-12.5 12.9v53.8h-30v-143.8h30v55.8h.7zM817.5 1093.5c0 3.8-.4 7.9-1.2 11.7s-2.5 7.5-4.6 10.8-4.6 6.2-7.5 8.8c-2.9 2.5-6.7 4.6-10.8 5.8 5.8 2.1 10 5.4 12.9 10 2.5 4.6 4.6 9.6 6.2 15.4l11.2 40h-30.4c-1.7-6.2-3.7-12.5-5.4-18.8s-3.8-12.5-5.4-18.8c-2.1-7.9-5.4-13.3-9.2-16.2-3.7-2.9-8.8-4.2-14.6-4.2h-15.4v57.9h-30v-143.8h57.5c8.3 0 15 1.2 20.8 3.3 5.8 2.1 10.8 5 14.6 8.7 3.8 3.8 6.7 8.3 8.3 13.3 2.2 5.3 3 10.3 3 16.1zm-52.1 23.4c2.5 0 5-.4 7.5-.8 2.5-.8 4.6-2.1 6.7-3.8 2.1-1.7 3.8-3.8 5-6.7 1.2-2.9 2.1-6.2 2.1-10.4 0-7.1-2.1-12.5-5.8-15.8s-9.2-5-15.4-5h-21.2v42.5h21.1zM939.2 1196l-10-32.9h-51.7l-10 32.9h-30l47.9-143.8h38.3l46.7 143.8h-31.2zm-26.7-91.6l-8.3-31.2H903l-8.8 32.1-10.4 36.7H923l-10.5-37.6zM1037.1 1049.4c7.1 0 14.6.8 22.5 2.1s15.4 4.2 22.5 7.9l-7.9 20.8c-7.1-2.9-13.8-5-20.4-5.8-6.7-.8-12.5-1.3-17.5-1.3-6.2 0-11.7 1.7-15.4 4.6-3.8 2.9-5.4 7.5-5.4 13.8 0 2.9.8 5 2.5 7.1s3.8 3.3 6.2 5c2.5 1.2 5.4 2.5 9.2 3.8 3.3.8 7.1 1.7 10.8 2.5 4.6 1.2 10 2.9 15.4 4.6s10.8 4.2 15.4 7.5c5 3.3 8.8 7.5 11.7 12.9 2.9 5.4 4.6 12.1 4.6 20.8 0 13.8-5 24.2-15 31.7s-24.6 11.2-44.6 11.2c-3.8 0-7.5-.4-11.7-.4-4.2-.4-8.8-1.2-13.3-2.1-4.6-.8-9.2-2.1-13.8-3.8-4.6-1.7-8.8-3.3-12.9-5.4l7.9-21.7c10 4.2 19.2 6.7 27.1 7.9 7.9 1.2 14.2 1.7 19.2 1.7 8.3 0 14.6-1.2 19.2-4.2 4.2-2.9 6.2-7.9 6.2-14.6 0-2.9-.4-5.4-1.7-7.5-1.2-2.1-2.5-3.8-4.6-5.4-2.1-1.2-4.6-2.5-7.5-3.8-2.9-.8-5.8-2.1-9.6-2.9-7.1-1.7-13.8-3.8-20-5.4-6.2-2.1-12.1-4.2-16.7-7.5-5-2.9-8.8-7.1-11.2-11.7-2.9-4.6-4.2-10.8-4.2-17.9 0-12.9 4.6-23.8 13.3-31.7 8.4-8.7 21.8-12.8 39.7-12.8zM1208.3 1151v-98.8h29.6V1196h-30.4l-47.9-77.5c-2.5-4.2-4.6-7.9-7.1-12.1-2.5-3.8-4.6-7.9-7.1-12.1h-.8v100.8H1115v-142.9h30.8c7.5 11.7 14.6 23.3 21.7 34.6s14.6 22.9 21.7 35l17.9 29.2h1.2zM1394.2 1123.9c0 10.4-1.2 20.4-4.2 29.6-2.9 9.2-6.7 16.7-12.5 23.3-5.4 6.7-12.1 11.7-20.4 15.4-7.9 3.8-17.5 5.8-28.3 5.8-11.7 0-21.7-1.7-30-5.4s-15.4-8.8-20.8-15-9.6-14.2-12.1-23.3-3.8-19.2-3.8-30c0-10.4 1.2-20 3.8-29.2s6.7-17.1 12.1-23.8 12.1-12.1 20.4-16.2c8.3-3.8 18.3-5.8 30.4-5.8 11.7 0 22.1 2.1 30 5.8 8.3 4.2 15 9.2 20.4 16.2 5.4 6.7 9.2 14.6 11.2 23.8 2.5 9.3 3.8 18.8 3.8 28.8zm-32.1.5c0-6.7-.4-12.9-1.2-19.2-.8-6.2-2.5-12.1-5-17.1s-5.8-9.2-10-12.1-10-4.6-16.7-4.6c-7.1 0-12.9 1.7-17.1 4.6-4.6 2.9-7.9 7.1-10.4 11.7-2.5 5-4.6 10.4-5.4 17.1-.8 6.2-1.2 12.9-1.2 20 0 16.2 2.5 28.8 7.5 37.5 5.4 8.8 14.2 13.3 27.1 13.3 5.8 0 10.8-1.3 15.4-3.8 4.2-2.5 7.5-6.2 10.4-10.8 2.5-4.6 4.6-10 5.8-16.2-.1-6.3.8-12.9.8-20.4zM1444.2 1144.4l-46.2-92.1h31.7c2.9 6.2 5.8 12.5 8.8 18.3 2.9 6.2 5.8 12.1 8.8 18.3l12.5 28.8h1.2c2.5-4.6 4.6-9.6 6.7-15s4.2-10.4 6.7-15l17.5-35.8h31.2c-7.9 14.6-15.4 29.2-23.3 44.2-7.5 15-15.4 29.6-23.3 44.2v55H1444v-50.8l.2-.1zM1618.7 1196l-10-32.9H1557l-10 32.9h-30.4l48.3-143.8h38.3l46.7 143.8h-31.2zm-26.2-91.6l-8.3-31.2h-.8l-8.8 32.1-10.4 36.7h38.7l-10.4-37.6zM1773.3 1093.5c0 3.8-.4 7.9-1.2 11.7-.8 3.8-2.5 7.5-4.6 10.8s-4.6 6.2-7.5 8.8-6.7 4.6-10.8 5.8c5.8 2.1 10 5.4 12.9 10 2.5 4.6 4.6 9.6 6.2 15.4l11.2 40h-30.4c-1.7-6.2-3.3-12.5-5.4-18.8-1.7-6.2-3.8-12.5-5.4-18.8-2.1-7.9-5.4-13.3-9.2-16.2-3.8-2.9-8.8-4.2-14.6-4.2h-15.4v57.9h-30v-143.8h57.5c7.9 0 15 1.2 20.8 3.3 5.8 2.1 10.8 5 14.6 8.7 3.8 3.8 6.7 8.3 8.3 13.3 1.8 5.3 3 10.3 3 16.1zm-52.5 23.4c2.5 0 5-.4 7.5-.8 2.5-.8 4.6-2.1 6.7-3.8 2.1-1.7 3.8-3.8 5-6.7 1.2-2.9 2.1-6.2 2.1-10.4 0-7.1-2.1-12.5-5.8-15.8-4.2-3.3-9.2-5-15.4-5h-21.2v42.5h21.1zM1852.1 1049.4c7.1 0 14.6.8 22.5 2.1s15.4 4.2 22.5 7.9l-7.9 20.8c-7.1-2.9-13.8-5-20.4-5.8-6.7-.8-12.5-1.3-17.5-1.3-6.7 0-11.7 1.7-15.4 4.6-3.8 2.9-5.4 7.5-5.4 13.8 0 2.9.8 5 2.5 7.1s3.7 3.3 6.2 5c2.5 1.2 5.4 2.5 9.2 3.8 3.3.8 6.7 1.7 10.4 2.5 5 1.2 10 2.9 15.4 4.6s10.8 4.2 15.4 7.5 8.8 7.5 11.7 12.9c2.9 5.4 4.6 12.1 4.6 20.8 0 13.8-5 24.2-15 31.7s-25 11.2-44.6 11.2c-3.3 0-7.5-.4-11.7-.4-4.2-.4-8.8-1.2-13.3-2.1-4.6-.8-9.2-2.1-13.8-3.8-4.6-1.7-8.8-3.3-12.9-5.4l7.9-21.7c10 4.2 19.2 6.7 27.1 7.9s14.2 1.7 19.2 1.7c8.3 0 14.6-1.2 19.2-4.2 4.2-2.9 6.2-7.9 6.2-14.6 0-2.9-.4-5.4-1.7-7.5-1.2-2.1-2.5-3.8-4.6-5.4-2.1-1.2-4.6-2.5-7.5-3.8-2.9-.8-6.2-2.1-9.6-2.9-7.1-1.7-13.8-3.8-20-5.4-6.2-2.1-11.7-4.2-16.7-7.5-4.6-2.9-8.8-7.1-11.3-11.7-2.9-4.6-4.2-10.8-4.2-17.9 0-12.9 4.6-23.8 13.3-31.7 8.5-8.7 22.3-12.8 40.2-12.8zM1959.2 1108.1l8.8-10 41.7-45.8h35.4l-53.8 56.2 57.1 87.5h-35.8c-7.1-11.2-14.2-22.5-20.8-33.3-7.1-10.8-13.8-22.1-20.8-33.3l-12.5 12.9v53.8h-30v-143.8h30v55.8h.7zM2133.3 1174.8h58.8v20.8h-99.6v-18.3c3.8-3.3 8.3-7.1 12.9-11.7 4.6-4.2 9.2-8.3 14.2-12.9 4.6-4.6 9.2-9.2 13.7-13.8 4.6-4.6 8.3-9.2 11.7-14.2 3.3-4.6 6.2-9.2 8.3-14.2 2.1-4.6 2.9-9.2 2.9-13.3 0-6.2-1.7-11.2-5.4-14.6s-9.2-5-16.2-5c-3.8 0-8.3.4-14.6 2.1-6.2 1.2-12.9 3.8-20.4 8.3l-9.2-17.9c8.8-6.2 17.5-10.4 26.2-12.5s16.2-3.3 22.9-3.3c14.2 0 25.8 3.3 34.2 10.4 8.3 7.1 12.5 17.5 12.5 30.8 0 7.5-1.7 15-5.4 22.1-3.3 7.5-7.9 14.2-13.3 20.8-5.4 6.7-11.2 12.9-17.1 18.8-6.2 5.8-12.1 11.2-17.1 15.8v1.8zM2315 1126.5c0 9.2-.8 17.9-2.9 26.7-1.7 8.7-5 16.2-9.2 22.5-4.6 6.7-10 12.1-17.1 15.8-7.1 4.2-15.8 5.8-25.8 5.8-10.8 0-20-2.1-27.1-5.8-7.1-3.8-12.9-9.2-17.1-15.4-4.2-6.7-7.1-14.2-8.8-22.5-1.7-8.8-2.5-17.5-2.5-26.7 0-8.8.8-17.5 2.5-26.2 1.7-8.8 4.6-16.2 8.8-23.3 4.2-6.7 10-12.5 17.1-16.7s16.2-6.2 27.5-6.2c11.2 0 20.4 2.1 27.5 6.7 7.1 4.2 12.5 10 16.7 16.7 4.2 7.1 7.1 14.6 8.3 22.9 1.3 8.6 2.1 17.3 2.1 25.7zm-29.6.4c0-5.4-.4-10.8-.8-16.7-.4-5.8-1.7-11.2-3.3-16.2-1.7-5-4.2-8.8-7.5-12.1-3.3-3.3-7.9-5-13.8-5-5.8 0-10.4 1.7-13.8 4.6-3.3 3.3-6.2 7.1-7.9 12.1-2.1 5-2.9 10.4-3.8 16.2-.8 5.8-.8 11.7-.8 17.1 0 6.7.4 13.3.8 19.2.8 5.8 2.1 10.8 4.2 15.4s4.6 7.9 7.9 10.4c3.3 2.5 7.9 3.8 13.3 3.8 5 0 9.2-1.2 12.5-4.2s5.8-6.2 7.9-10.8c1.7-4.6 3.3-9.6 3.8-15.4.9-6.4 1.3-12.2 1.3-18.4zM2353.8 1083.1l-28.8 2.5v-20l31.7-9.6h26.2v139.6h-28.8v-112.5h-.3zM2481.7 1136.9c-10 5.8-20.4 8.8-30.8 8.8-5.8 0-11.7-.8-16.7-2.5s-9.6-4.6-13.3-7.9c-3.8-3.8-6.7-7.9-9.2-13.8-2.1-5.4-3.3-12.1-3.3-19.6s1.2-14.2 3.8-20c2.5-5.8 5.8-10.8 10.4-14.6s9.6-7.1 15.8-9.2 12.9-3.3 20.4-3.3c10 0 18.3 1.7 25 5s12.1 7.9 16.3 13.8c4.2 5.8 7.1 12.5 9.2 20.4 2.1 7.9 2.9 16.2 2.9 25.4 0 10.8-1.2 21.2-3.3 30.8-2.1 9.6-5.8 17.5-10.8 24.6s-11.2 12.5-18.8 16.2c-7.5 4.2-17.1 5.8-27.9 5.8-7.5 0-13.7-.4-19.6-1.7s-10-2.5-12.9-3.3l5-20.8c5 1.7 9.6 2.9 13.8 3.3 4.6.4 8.3.8 11.7.8 5.8 0 10.8-1.2 15-4.2 4.2-2.5 7.5-5.8 10-9.6s4.6-7.9 5.8-12.5 2.1-8.3 2.5-11.7l-1-.2zm-45-35.9c0 3.3.4 6.2 1.2 9.2.8 2.9 1.7 5.4 3.3 7.5 1.7 2.1 3.8 3.8 6.7 5 2.5 1.2 6.2 1.7 10.4 1.7 3.3 0 6.7-.4 9.6-1.2 2.9-.8 5.4-1.7 7.5-2.5s3.8-2.1 5-2.9 2.1-1.7 2.9-1.7v-4.2c0-3.3-.4-7.1-.8-11.2-.4-4.2-1.7-7.5-3.3-11.2-1.7-3.3-4.2-6.2-7.1-8.3-3.3-2.1-7.1-3.3-12.5-3.3-7.5 0-12.9 2.1-16.7 6.2-4.6 4.4-6.2 9.8-6.2 16.9z"/><g><path d="M2666.7 1091.5c0 8.8-2.1 16.2-6.2 23.3-4.2 7.1-10.8 11.7-19.2 14.2 5.4 1.7 9.6 5 12.1 9.6s4.6 10 6.2 15.8l11.7 41.7h-17.9l-11.2-39.6c-1.2-4.6-2.9-8.3-4.6-11.7-1.7-2.9-3.8-5.4-5.8-7.1s-4.6-2.9-7.5-3.8c-2.9-.8-5.8-.8-9.6-.8h-22.9v62.9h-17.5v-144.2h49.6c14.2 0 25 3.8 32.1 10.8 6.9 7.6 10.7 17.2 10.7 28.9zm-45.9 28.3c2.9 0 5.8-.4 9.2-1.2 3.3-.8 6.2-2.1 8.7-4.2 2.9-2.1 5-5 6.7-8.3s2.5-7.9 2.5-13.8c0-4.6-.8-8.8-2.1-12.5-1.2-3.3-3.3-6.2-5.8-8.3-2.5-2.1-5.4-3.8-8.7-4.6-3.3-.8-7.1-1.7-10.8-1.7h-28.8v54.2h29.2l-.1.4zM2806.2 1144.4c0 7.9-1.2 15.4-3.3 22.1s-5.8 12.1-10 17.1c-4.6 4.6-10.4 8.3-17.1 10.8-7.1 2.5-15 3.8-24.6 3.8-19.2 0-33.3-4.6-41.7-14.2-8.8-9.6-12.9-22.5-12.9-39.2v-92.9h17.5v92.9c0 13.3 3.3 22.9 9.6 29.6s15.8 10 27.5 10c12.1 0 21.2-3.3 27.9-10s9.6-16.7 9.6-30l-.4-92.9h17.5v92.9h.4zM2882.1 1049.4c6.2 0 12.5.4 19.6 1.7 7.1 1.2 13.7 3.8 20 7.1l-5.8 12.5c-7.1-2.9-13.3-5-18.8-5.8-5.8-.8-11.3-1.2-15.8-1.2-8.3 0-15.4 2.1-20.8 6.2-5.4 4.2-7.9 10.8-7.9 19.6 0 3.8.8 7.1 2.5 10 1.7 2.5 4.2 5 7.5 6.7 2.9 1.7 6.7 3.3 10.4 4.6 3.8 1.2 7.5 2.5 11.7 3.3 5.4 1.2 10.4 2.9 15.8 4.2 5.4 1.7 10.4 3.8 15 7.1 4.6 2.9 8.3 7.1 11.3 12.1 2.9 5 4.2 11.2 4.2 19.2 0 7.1-1.2 13.3-3.8 18.8-2.5 5.4-6.2 9.6-10.8 12.9s-10.4 5.8-17.1 7.5c-6.7 1.7-13.8 2.5-21.2 2.5-7.5 0-15.4-.8-23.8-2.5-8.3-1.7-15.8-4.6-22.9-8.8l6.2-12.9c8.7 4.2 16.2 6.7 22.9 7.9s12.5 2.1 17.9 2.1c10.8 0 19.6-2.1 25.4-5.8 6.2-3.8 9.2-10.8 9.2-21.2 0-4.2-.8-7.9-2.5-10.8s-3.8-5.4-6.7-7.1c-2.9-2.1-6.2-3.3-10-5-3.8-1.2-7.9-2.5-12.1-3.8-6.2-1.7-12.5-3.3-18.3-5.4-5.8-1.7-10.8-4.2-15.4-7.1-4.2-2.9-7.9-6.2-10.4-10.8-2.5-4.2-3.8-10-3.8-16.7s1.2-12.1 3.8-17.1 5.8-9.2 10-12.9c4.2-3.3 9.2-6.2 15-7.9 6.2-2.4 12.8-3.2 19.5-3.2zM3002.9 1049.4c6.2 0 12.5.4 19.6 1.7 7.1 1.2 13.8 3.8 20 7.1l-5.8 12.5c-7.1-2.9-13.3-5-19.2-5.8-5.8-.8-11.2-1.2-15.8-1.2-8.3 0-15.4 2.1-20.8 6.2-5.4 4.2-7.9 10.8-7.9 19.6 0 3.8.8 7.1 2.9 10 1.7 2.5 4.2 5 7.5 6.7 2.9 1.7 6.7 3.3 10.4 4.6 3.8 1.2 7.9 2.5 11.7 3.3 5.4 1.2 10.4 2.9 15.8 4.2 5.4 1.7 10.4 3.8 15 7.1 4.6 2.9 8.3 7.1 11.2 12.1s4.2 11.2 4.2 19.2c0 7.1-1.2 13.3-3.8 18.8-2.5 5-6.2 9.6-10.8 12.9s-10.4 5.8-16.7 7.5c-6.7 1.7-13.8 2.5-21.2 2.5s-15.4-.8-23.8-2.5c-8.3-1.7-15.8-4.6-22.9-8.8l6.2-12.9c8.8 4.2 16.3 6.7 22.9 7.9s12.5 2.1 17.9 2.1c10.8 0 19.6-2.1 25.4-5.8 6.2-3.8 9.2-10.8 9.2-21.2 0-4.2-.8-7.9-2.5-10.8s-3.8-5.4-6.7-7.1c-2.9-2.1-6.2-3.3-10-5-3.8-1.2-7.9-2.5-12.1-3.8-6.2-1.7-12.5-3.3-18.3-5.4-5.8-1.7-10.8-4.2-15.4-7.1-4.6-2.9-7.9-6.2-10.4-10.8-2.5-4.2-3.8-10-3.8-16.7s1.2-12.1 3.8-17.1c2.5-5 5.8-9.2 10-12.9 4.2-3.3 9.2-6.2 15-7.9 5.9-2.4 12.1-3.2 19.2-3.2zM3081.7 1196v-144.2h17.5v144.6h-17.5v-.4zM3219.2 1196c-2.1-6.2-3.8-12.5-5.8-18.8s-3.8-12.5-5.8-18.8h-57.1c-2.1 6.2-3.8 12.5-5.8 18.8s-3.8 12.5-5.8 18.8h-18.3c8.3-26.2 16.7-51.2 25-75.4 7.9-24.2 15.4-47.1 22.9-69.2h22.9l47.1 144.6h-19.3zm-15.9-51.2c-3.3-10.8-6.7-21.2-9.6-32.1-3.3-10.8-6.7-21.2-10-32.1l-4.2-14.2h-.8l-4.2 14.2c-1.7 5-2.9 10.4-4.6 15.4-1.7 5-2.9 10-4.6 15-1.7 5-2.9 10.4-5 15.8-1.7 5.4-3.3 11.2-5.4 17.5h48.3v.5h.1z"/></g></g></g><g fill="#E6007C"><path d="M3786.8 807.6h60.6c8.2 0 15.4 1.1 21.7 3.2 6.2 2.1 11.4 5.1 15.5 9s7.2 8.4 9.2 13.6c2.1 5.2 3.1 11 3.1 17.2 0 6.9-1.7 13.7-5 20.4-3.4 6.7-9.4 12.3-18.1 16.7 5.6 1.8 10.1 4.4 13.7 7.8 3.5 3.4 6.4 7.1 8.5 11.1s3.6 8.1 4.4 12.3c.8 4.2 1.2 7.9 1.2 11.2 0 6.9-1.3 13.2-3.8 18.9s-6 10.5-10.3 14.6c-4.4 4-9.4 7.1-15.1 9.3-5.8 2.1-11.8 3.2-18.2 3.2H3787V807.6h-.2zm89.1 44.7c0-8.3-2.6-15.2-7.8-20.6-5.2-5.4-13.7-8.1-25.5-8.1h-35.2v56.9h35.2c10.8 0 19.1-2.5 24.8-7.6 5.7-5.1 8.5-12 8.5-20.6zm5 76c0-4.1-.7-8.1-2.1-11.9-1.4-3.9-3.5-7.3-6.3-10.2-2.8-3-6.3-5.3-10.6-7s-9.2-2.6-14.8-2.6h-39.7v63.5h39.7c6.1 0 11.2-.9 15.5-2.6 4.3-1.7 7.8-4 10.5-6.9s4.7-6.2 5.9-10.1c1.2-3.9 1.9-8 1.9-12.2zM4074.2 892.3c0 12.2-1.5 23.5-4.4 34-3 10.5-7.4 19.6-13.2 27.2-5.8 7.6-13.1 13.6-21.9 18-8.8 4.4-18.9 6.5-30.4 6.5-13.1 0-24.3-2-33.4-6-9.1-4-16.6-9.7-22.4-17.1-5.8-7.4-10.1-16.3-12.7-26.7-2.6-10.4-3.9-22.1-3.9-35.1 0-11.7 1.3-22.8 3.8-33.5s6.7-20.1 12.3-28.2 13.1-14.6 22.4-19.3c9.3-4.8 20.6-7.1 33.9-7.1 13.5 0 24.7 2.4 33.7 7.3 9 4.8 16.2 11.3 21.6 19.3 5.3 8 9.1 17.3 11.3 27.8 2.2 10.4 3.3 21.4 3.3 32.9zm-21.9.9c0-8.4-.6-16.8-1.8-25.3s-3.6-16.3-7-23.2c-3.4-7-8.3-12.7-14.5-17.1-6.2-4.4-14.5-6.6-24.6-6.6-10.2 0-18.6 2.1-25.1 6.1-6.6 4.1-11.7 9.5-15.5 16.4-3.8 6.8-6.4 14.5-7.9 23.2s-2.2 17.6-2.2 26.8c0 22.5 3.9 39.5 11.8 51.1s20.9 17.5 38.9 17.5c8.2 0 15.4-1.8 21.4-5.4 6.1-3.6 11.1-8.5 15-14.8 3.9-6.2 6.9-13.5 8.7-21.9 1.8-8.4 2.8-17.3 2.8-26.8zM4207 976l-.2-152.7H4152l-.7 17.2c-.8 15.4-1.6 29.4-2.3 41.9-.7 12.5-1.7 23.7-3 33.6-1.2 9.9-2.9 18.7-5 26.2-2.1 7.6-5.1 14-9 19.3s-8.7 9.6-14.7 12.9c-5.9 3.3-13.2 5.7-21.9 7.4l-3.9-15c9.4-3.1 16.5-7.1 21.6-11.9 5-4.8 8.8-11.7 11.3-20.4 2.5-8.8 4.3-20.1 5.3-34s2-31.4 3-52.6l2-40.6h93.6V976H4207zM4405 892.3c0 12.2-1.5 23.5-4.4 34-3 10.5-7.4 19.6-13.2 27.2-5.8 7.6-13.1 13.6-21.9 18s-18.9 6.5-30.4 6.5c-13.1 0-24.3-2-33.4-6s-16.6-9.7-22.4-17.1c-5.8-7.4-10.1-16.3-12.7-26.7s-3.9-22.1-3.9-35.1c0-11.7 1.3-22.8 3.8-33.5s6.7-20.1 12.3-28.2 13.1-14.6 22.4-19.3c9.3-4.8 20.6-7.1 33.9-7.1 13.5 0 24.7 2.4 33.7 7.3 9 4.8 16.2 11.3 21.6 19.3 5.3 8 9.1 17.3 11.3 27.8 2.2 10.4 3.3 21.4 3.3 32.9zm-21.9.9c0-8.4-.6-16.8-1.8-25.3-1.2-8.5-3.6-16.3-7-23.2-3.4-7-8.3-12.7-14.5-17.1-6.2-4.4-14.5-6.6-24.6-6.6-10.2 0-18.6 2.1-25.1 6.1-6.6 4.1-11.7 9.5-15.5 16.4-3.8 6.8-6.4 14.5-7.9 23.2s-2.2 17.6-2.2 26.8c0 22.5 3.9 39.5 11.8 51.1s20.9 17.5 38.9 17.5c8.2 0 15.4-1.8 21.4-5.4 6.1-3.6 11.1-8.5 15-14.8 3.9-6.2 6.9-13.5 8.7-21.9 1.8-8.4 2.8-17.3 2.8-26.8zM4539.5 976v-80.5h-78.8c0 13.5 0 26.9.1 40.3.1 13.4.1 26.8.1 40.3h-21.4V807.6h21.4c0 12 0 23.8-.1 35.5s-.1 23.5-.1 35.5h78.8v-70.9h21.4v168.5h-21.4v-.2zM4639.7 976V823.8h-54.2v-16.5h128.8v16.5h-53.9l-.2 152.2h-20.5zM4739 976V807.6h102.7v16h-81.8v55.7h69v15.3h-69v65.5h85.7v16H4739v-.1zM4985.6 856.3c0 5.1-.8 10.6-2.3 16.5-1.6 5.9-4.3 11.4-8.1 16.4-3.9 5-9 9.2-15.5 12.6-6.5 3.4-14.6 5-24.3 5h-36.5l.2 69.2h-21.2V807.3h55.2c7.7 0 14.8 1 21.2 3.1 6.4 2.1 11.9 5.1 16.6 9.2 4.7 4.1 8.3 9.2 10.8 15.4 2.6 6.2 3.9 13.3 3.9 21.3zm-86.7-33v67.5h33.5c3.9 0 7.8-.5 11.6-1.6s7.2-2.9 10.2-5.5 5.5-6.1 7.3-10.4c1.8-4.3 2.7-9.8 2.7-16.3 0-5.7-.8-10.7-2.5-15-1.6-4.3-3.9-7.8-6.9-10.6s-6.4-4.8-10.5-6.1c-4-1.3-8.3-2-12.9-2h-32.5z"/></g><g fill="#007AC2"><path d="M3801 1183.2h72.3v13.2h-97.2v-12.1c4-3.8 8.5-8.1 13.7-12.8 5.1-4.7 10.4-9.7 15.9-15 5.4-5.3 10.8-10.8 16-16.4 5.2-5.7 9.9-11.3 14-17.1 4.1-5.7 7.4-11.4 9.9-17s3.7-10.9 3.7-16.1c0-9.4-2.8-16.3-8.4-20.6-5.6-4.3-12.9-6.5-21.8-6.5-3.7 0-8.7.6-15.1 1.9-6.4 1.2-13.8 4.4-22.4 9.6l-6.2-10.6c4.4-3.2 8.8-5.9 13.2-7.9 4.4-2.1 8.6-3.7 12.7-4.8 4-1.2 7.8-2 11.3-2.4s6.7-.7 9.5-.7c6.6 0 12.7.8 18.3 2.4s10.4 4.1 14.3 7.5 7.1 7.6 9.4 12.7c2.3 5.1 3.4 11 3.4 17.8 0 8.8-2.4 17.7-7.3 26.5s-10.7 17.3-17.6 25.5c-6.9 8.2-14.2 15.8-21.9 23-7.7 7.1-14.4 13.4-20.2 18.9l.5 1zM4005.1 1123.9c0 8.8-.9 17.6-2.6 26.4s-4.7 16.7-8.7 23.8c-4 7.1-9.5 12.8-16.3 17.2-6.8 4.4-15.3 6.6-25.4 6.6-11.4 0-20.7-2.1-27.8-6.4s-12.6-9.8-16.6-16.7c-4-6.9-6.6-14.8-8-23.6-1.4-8.8-2.1-17.8-2.1-26.9 0-8.2.7-16.9 2.2-25.9s4.2-17.3 8.1-24.8 9.5-13.7 16.6-18.5 16.4-7.3 27.8-7.3c7.8 0 14.4 1.2 20 3.5 5.6 2.4 10.3 5.5 14.3 9.4s7.1 8.4 9.6 13.6c2.4 5.1 4.3 10.5 5.6 16.2s2.2 11.3 2.6 17.1c.5 5.8.7 11.2.7 16.3zm-17.9.4c0-5.7-.3-12.2-.8-19.4-.5-7.2-2-13.9-4.3-20.2-2.4-6.3-5.9-11.6-10.5-15.9s-11.1-6.5-19.3-6.5c-8.3 0-14.8 2.1-19.8 6.2-4.9 4.1-8.7 9.3-11.2 15.5s-4.1 13-4.9 20.3c-.7 7.3-1.1 14.2-1.1 20.5 0 8.2.5 15.9 1.4 23.1 1 7.2 2.8 13.4 5.4 18.7 2.7 5.3 6.4 9.5 11.2 12.5 4.8 3.1 11.1 4.6 18.9 4.6 7.1 0 12.9-1.8 17.5-5.3s8.1-8.1 10.7-13.8c2.6-5.6 4.3-12 5.3-19.1 1-7.1 1.5-14.2 1.5-21.2zM4067.4 1067.5l-32.8 2.2v-12.3l34.2-7.3h16.5v146.3h-17.9v-128.9zM4227 1130.1c-5.4 3.2-11.1 5.9-17.1 7.9-6 2.1-12.7 3.1-20.2 3.1-5.9 0-11.5-.8-16.9-2.5s-10.1-4.4-14.1-8c-4-3.7-7.3-8.4-9.7-14.1-2.4-5.7-3.6-12.6-3.6-20.7 0-7.5 1.2-14.2 3.6-20.1s5.8-10.9 10.1-15 9.5-7.3 15.6-9.5 12.8-3.3 20.2-3.3c9.8 0 18 1.8 24.6 5.4 6.5 3.6 11.8 8.5 15.6 14.8 3.9 6.2 6.6 13.5 8.2 21.8 1.5 8.3 2.3 17.2 2.3 26.6 0 11.9-1.2 22.8-3.5 32.7-2.4 9.9-5.9 18.5-10.7 25.7-4.8 7.2-10.8 12.8-18.2 16.9-7.3 4-15.9 6.1-25.8 6.1-7.9 0-15-.8-21-2.3-6.1-1.5-10.4-3-12.9-4.3.7-2.1 1.4-4.1 2-6.3.6-2.1 1.2-4.2 2-6.3 5.4 2.1 10.8 3.5 16.2 4.2 5.4.7 9.8 1.1 13.3 1.1 8.1 0 14.7-2 19.9-6 5.2-4 9.3-8.8 12.3-14.4 3-5.7 5.1-11.5 6.4-17.5 1.2-6 2-11.1 2.3-15.2l-.9-.8zm-33.9-2.8c5.4 0 10.3-.6 14.5-1.7 4.3-1.1 7.9-2.3 10.8-3.7 2.9-1.4 5.2-2.7 6.7-3.9 1.5-1.2 2.5-1.8 2.8-2v-4.8c0-4.6-.3-9.6-1-15.2s-2.2-10.8-4.5-15.8c-2.4-4.9-5.7-9.1-10-12.5s-10.2-5.1-17.7-5.1c-10.6 0-18.5 3-23.8 8.9-5.3 6-7.9 13.7-7.9 23.3 0 4.7.5 9 1.5 13s2.7 7.4 5.1 10.2c2.3 2.9 5.4 5.1 9.3 6.7 3.7 1.7 8.4 2.6 14.2 2.6z"/></g><path fill="#007AC2" d="M3610 807.7h23.8V1196H3610z"/></svg>