<svg xmlns="http://www.w3.org/2000/svg" viewBox="0 0 26.34 25.24"><defs><style>.cls-1{fill:#009ee2}</style></defs><title>weatherWinter</title><g id="Слой_2" data-name="Слой 2"><g id="дизайн-макет_копия_" data-name="дизайн-макет (копия)"><path class="cls-1" d="M12.76 10.66l1.17-.83-2.8-5.35 1.97-3.06-1.4-1.1-1.68 2.87L8.32 0 6.33.93l2.22 3.35-3.54-.4-.56 1.77 4.43.41 3.88 4.6zM12.68 12.88l-.11-1.37-6.71-.18-1.99-4.61-2.09.33 2.15 4.46-3.9-.17L0 13.95l4.44-.37-2.12 3.63 2.08.62 2.16-4.01 6.12-.94zM13.19 13.13l-3.44 5.03-4.79.22.05 1.94 3.48.21-1.9 3.26 1.63 1.45 1.79-3.86 1.35 3.83 1.97-.75-1.31-4.98 1.99-5.87-.82-.48zM16.04 13.36l-1.04.46 1.92 5.93-2.23 3.03 1.48 1.54 1.85-3.19 1.45 2.97 1.82-.95-1.38-2.83 3.11.22.01-1.64-3.69-.71-3.3-4.83zM26.34 13.47l-.11-2.14-3.15.03 1.83-2.69-1.43-.75-2.24 3.04-4.97.4-.06 1.25 5.28.89 1.54 2.98 1.65-.29-1.26-3.05 2.92.33zM16.19 10.48l3.5-4.73 3.3.96.38-1.8-3.05-.73 1.61-2.34L20.35.7 18.5 2.81 16.56.17l-1.51.6 2.07 3.91-2.28 5.06 1.35.74z"/></g></g></svg>