<svg xmlns="http://www.w3.org/2000/svg" viewBox="0 0 25.79 24.04"><defs><style>.cls-1{fill:#fcbf00}</style></defs><title>weatherSun</title><g id="Слой_2" data-name="Слой 2"><g id="Isolation_Mode" data-name="Isolation Mode"><path class="cls-1" d="M19.91 2.45l-2.75 6.33 5.88-3.74-3.13-2.59z"/><path class="cls-1" d="M18.6 12.3a4.83 4.83 0 0 0 0-.61l7.23 1.14-.57-4.46-6.72 3a4.47 4.47 0 0 0-3.89-3.67L17 .79 12.06 0l2.49 7.7h-.33a4.19 4.19 0 0 0-2.11.57L7.78.85 3.13 3.07l8.27 5.69a4.66 4.66 0 0 0-1.4 2.15L.85 6.81 0 12.31l9.91-.84a4.87 4.87 0 0 0-.07.82 4.79 4.79 0 0 0 .51 2.16l-9 3.06 4.55 3.93 4.87-6.34a4.37 4.37 0 0 0 2.31 1.64l-3.5 6.78 3.89.52-.09-7.21A4.15 4.15 0 0 0 16 16.5l.85 7.23 3.51-1.45-4-6a4.55 4.55 0 0 0 1.82-2.1l4.93 5.89 1.89-3.4L18.29 14a4.85 4.85 0 0 0 .31-1.7z"/></g></g></svg>