<?xml version="1.0" encoding="utf-8"?>
<!-- Generator: Adobe Illustrator 19.1.0, SVG Export Plug-In . SVG Version: 6.00 Build 0)  -->
<svg version="1.1" id="Layer_1" xmlns="http://www.w3.org/2000/svg" xmlns:xlink="http://www.w3.org/1999/xlink" x="0px" y="0px"
	 viewBox="-674 368 17 34" style="enable-background:new -674 368 17 34;" xml:space="preserve">
<style type="text/css">
	.st0{fill:#F7A520;}
</style>
<g>
	<path class="st0" d="M-667.2,368c0,0.3-0.2,0.5-0.1,0.8c0.1,1.1,0.4,2.3,1.3,3.1c0.3,0.2,0.6,0.5,1,0.6c0.4,0.2,0.9,0.3,1.4,0
		c0.5-0.3,0.8-0.8,0.8-1.2c0.1-0.4,0.1-0.8,0.1-1c0-0.2-0.1-0.4-0.1-0.6c0.6,0.5,1,0.7,1.3,1.1c1,1.1,0.9,2.3,0.5,3.7
		c-0.2,0.7-0.4,1.4-0.6,2.1c-0.2,0.7-0.3,1.4-0.1,2.1c0,0,0,0,0,0c0.4,1,1.3,1.5,2.2,1.5c0.7,0,1.3-0.3,1.7-0.8
		c0.1-0.2,0.1-0.3,0.2-0.5c0.5,1,0.8,2,0.5,3c-0.2,0.8-1.1,1.5-2.1,2.4h-11.9c-0.1-0.1-0.4-0.4-0.9-0.9c-0.6-0.6-1.3-1.5-1.5-2
		c-0.4-1-0.6-2.1-0.5-3.2c0.1-0.7,0.5-1.4,1-2.3c0.4-0.8,0.9-1.7,1-2.7c0.2,0.4,0.5,0.8,0.6,1.1c0.1,0.2,0.1,0.6,0.1,1.2
		c0,0.5,0,1.2,0.4,1.9c0.2,0.3,0.4,0.5,0.7,0.6c0.3,0.2,0.7,0.3,1.1,0.2c0.7-0.2,1.2-0.6,1.5-1.1c0.3-0.5,0.6-1.1,0.6-1.6
		c0.1-1-0.4-1.7-0.8-2.3c-0.4-0.6-0.7-1.1-0.8-1.5c-0.1-0.9,0.1-1.8,0.5-2.7C-667.9,368.8-667.5,368.4-667.2,368L-667.2,368z"/>
	<path class="st0" d="M-672.1,386h0.6h0.1h12.3c0.1,0,0.1,0,0.1,0l-1.6,4h-9.8L-672.1,386L-672.1,386z"/>
	<path class="st0" d="M-669.2,391.5h7.5l-2.8,6.5h-1.9L-669.2,391.5z"/>
	<path class="st0" d="M-666.5,399.6h1.9v1.6c0,0.3-0.2,0.5-0.5,0.7c-0.3,0.1-0.7,0.1-1,0c-0.3-0.1-0.5-0.4-0.5-0.7L-666.5,399.6
		L-666.5,399.6z"/>
</g>
</svg>
