<?xml version="1.0" encoding="utf-8"?>
<!-- Generator: Adobe Illustrator 19.1.0, SVG Export Plug-In . SVG Version: 6.00 Build 0)  -->
<svg version="1.1" id="Layer_1" xmlns="http://www.w3.org/2000/svg" xmlns:xlink="http://www.w3.org/1999/xlink" x="0px" y="0px"
	 viewBox="-670 370 25 29" style="enable-background:new -670 370 25 29;" xml:space="preserve">
<style type="text/css">
	.st0{fill:#F7A520;}
</style>
<g>
	<path class="st0" d="M-661.3,397.6c-0.7-2.2-2-6.1-0.8-8.6c1.2-2.3,4.9-2.2,6.8-3.9c0.7-0.6,0.5-2,0-2.8c-1.6-2.3-2.7-3.6-4.7-5.6
		c-0.9,0.2-1.9,0.1-2.8,0c3.5-1.2,6.4-1.1,10.5,0c1.7,0.5,3.8-0.8,4.1-2.2c-0.7,0.9-1.8,1.5-3.2,1.2c-2.2-0.5-3.8-1.6-6-2
		c-1.4-0.2-9.1-0.3-8.6,2.5c0,3.4,6.1,4.7,6.8,6.6c-0.5,1.4-5.3,2.2-5.7,5.1C-665.3,391.1-663.4,395.2-661.3,397.6
		c-3.2,0.2-6.1,0.5-8.7,0.9c10.4-0.2,17.7-0.1,24.8,0.5c0.1-0.4,0.1-0.8,0.2-1.2C-650.7,397.5-656.3,397.4-661.3,397.6z"/>
	<ellipse class="st0" cx="-666.1" cy="371.9" rx="1.9" ry="1.9"/>
	<path class="st0" d="M-658.3,397.4c-0.8-2.4-1.8-5.6-2.6-8C-662.1,391.6-661.2,395.4-658.3,397.4z"/>
</g>
</svg>
