<?xml version="1.0" encoding="utf-8"?>
<!-- Generator: Adobe Illustrator 19.1.0, SVG Export Plug-In . SVG Version: 6.00 Build 0)  -->
<svg version="1.1" id="Layer_1" xmlns="http://www.w3.org/2000/svg" xmlns:xlink="http://www.w3.org/1999/xlink" x="0px" y="0px"
	 viewBox="-673 379 18 11" style="enable-background:new -673 379 18 11;" xml:space="preserve">
<style type="text/css">
	.st0{fill:#989A9C;}
</style>
<g>
	<path class="st0" d="M-671.6,379c-0.8,0-1.4,0.6-1.4,1.4v8.1c0,0.8,0.6,1.4,1.4,1.4h15.2c0.8,0,1.4-0.6,1.4-1.4v-8.1
		c0-0.8-0.6-1.4-1.4-1.4H-671.6z M-671.6,379.4h15.2c0.1,0,0.3,0,0.4,0.1l-7.3,6.9c-0.4,0.4-1,0.4-1.5,0l-7.3-6.9
		C-671.9,379.4-671.7,379.4-671.6,379.4z M-672.3,379.7l4.9,4.7l-4.9,4.9c-0.2-0.2-0.3-0.4-0.3-0.7v-8.1
		C-672.6,380.2-672.5,379.9-672.3,379.7L-672.3,379.7z M-655.7,379.7c0.2,0.2,0.3,0.4,0.3,0.7v8.1c0,0.3-0.1,0.5-0.3,0.7l-4.9-4.9
		L-655.7,379.7z M-667.2,384.7l2.2,2.1c0.6,0.5,1.4,0.5,2,0l2.2-2.1l4.8,4.8c-0.1,0.1-0.3,0.1-0.4,0.1h-15.2c-0.1,0-0.3,0-0.4-0.1
		L-667.2,384.7z"/>
</g>
</svg>
