<?xml version="1.0" encoding="utf-8"?>
<!-- Generator: Adobe Illustrator 19.1.0, SVG Export Plug-In . SVG Version: 6.00 Build 0)  -->
<svg version="1.1" id="Layer_1" xmlns="http://www.w3.org/2000/svg" xmlns:xlink="http://www.w3.org/1999/xlink" x="0px" y="0px"
	 viewBox="-678 380 9 9" style="enable-background:new -678 380 9 9;" xml:space="preserve">
<style type="text/css">
	.st0{fill:#FFFFFF;}
</style>
<path class="st0" d="M-669.8,386v1.2c0,1-0.8,1.8-1.8,1.8h-4.6c-1,0-1.8-0.8-1.8-1.8v-4.6c0-1,0.8-1.8,1.8-1.8h1.2
	c0.2,0,0.3,0.1,0.3,0.3c0,0.2-0.1,0.3-0.3,0.3h-1.2c-0.6,0-1.2,0.5-1.2,1.2v4.6c0,0.6,0.5,1.2,1.2,1.2h4.6c0.6,0,1.2-0.5,1.2-1.2
	V386l0,0c0-0.2,0.1-0.3,0.3-0.3C-670,385.7-669.8,385.8-669.8,386z M-669,380.3l-0.1-0.2l-0.2-0.1h-2.5c-0.2,0-0.3,0.1-0.3,0.3
	s0.1,0.3,0.3,0.3h1.8l-3.1,3.1c-0.1,0.1-0.1,0.3,0,0.4c0.1,0.1,0.3,0.1,0.4,0l3.1-3.1v1.8c0,0.2,0.1,0.3,0.3,0.3
	c0.2,0,0.3-0.1,0.3-0.3V380.3z"/>
</svg>
