<?xml version="1.0" encoding="utf-8"?>
<!-- Generator: Adobe Illustrator 16.0.0, SVG Export Plug-In . SVG Version: 6.00 Build 0)  -->
<!DOCTYPE svg PUBLIC "-//W3C//DTD SVG 1.1//EN" "http://www.w3.org/Graphics/SVG/1.1/DTD/svg11.dtd">
<svg version="1.1" id="Layer_1" xmlns="http://www.w3.org/2000/svg" xmlns:xlink="http://www.w3.org/1999/xlink" x="0px" y="0px"
	 width="6.891px" height="14.014px" viewBox="0 0 6.891 14.014" enable-background="new 0 0 6.891 14.014" xml:space="preserve">
<path d="M6.885,7.429H4.361V14H1.787V7.429H0V5.064h1.787c0,0,0-0.968,0-2.02C1.787,1.457,2.843,0,5.275,0
	C6.26,0,6.989,0.092,6.989,0.092L6.93,2.298c0,0-0.742-0.006-1.552-0.006c-0.878,0-1.018,0.396-1.018,1.044c0,0.082,0,0.11,0,0.112
	c0,0.184,0,0.625,0,1.616H7L6.885,7.429z"/>
</svg>
