<?xml version="1.0" encoding="utf-8"?>
<!-- Generator: Adobe Illustrator 19.1.0, SVG Export Plug-In . SVG Version: 6.00 Build 0)  -->
<svg version="1.1" baseProfile="tiny" id="Layer_1" xmlns="http://www.w3.org/2000/svg" xmlns:xlink="http://www.w3.org/1999/xlink"
	 x="0px" y="0px" viewBox="-666 371 33 28" xml:space="preserve">
<g>
	<path fill="#F7A520" d="M-644.2,392.5c-5.6-4.3-12.5,1.5-13.7,6.5c0.6-7.2,4.1-10.5,11.1-12.2c-0.6-1.7-1.7-3.8-3.5-4.7
		c-3.5,2.4-6.5,1.5-10.4,2.1c3.2-1.5,5.8-2,7.1-3c3.2-2.8,4.2-3.7,8.6-3.3c3.4,0.3,6.5,1.3,5.2-3.4c4.7,5.4,1.4,7.2-3.6,7
		c1.2,2.5,1.9,4.9,2.3,7.3c1,5.2,3.7,8.9,8.1,9.6l0,0.1C-639.5,398.2-640.5,395.4-644.2,392.5"/>
	<path fill="#F7A520" d="M-659.4,382.7L-666,371l0,0.2l5.4,11.3L-659.4,382.7z"/>
	<path fill="#F7A520" d="M-658.1,381.8C-658.1,381.8-658.1,381.9-658.1,381.8l-3.4,1.8c0,0,0,0,0-0.1c-0.3-0.7,0.2-1.6,1.1-2.1
		C-659.5,381-658.4,381.2-658.1,381.8"/>
	<path fill="#F7A520" d="M-649.4,377.1c-1.2,0-2.1-0.9-2.1-2.1c0-1.2,0.9-2.1,2.1-2.1c1.2,0,2.1,0.9,2.1,2.1
		C-647.3,376.1-648.3,377.1-649.4,377.1"/>
</g>
</svg>
