<?xml version="1.0" encoding="utf-8"?>
<!-- Generator: Adobe Illustrator 19.1.0, SVG Export Plug-In . SVG Version: 6.00 Build 0)  -->
<svg version="1.1" baseProfile="tiny" id="Layer_1" xmlns="http://www.w3.org/2000/svg" xmlns:xlink="http://www.w3.org/1999/xlink"
	 x="0px" y="0px" viewBox="-670 370 25 29" xml:space="preserve">
<g>
	<path fill="#F7A520" d="M-649.6,375.5c1.1-0.2,1.8-1.3,1.6-2.4c-0.2-1.1-1.3-1.8-2.4-1.6c-1.1,0.2-1.8,1.3-1.6,2.4
		C-651.9,375-650.8,375.7-649.6,375.5z"/>
	<path fill="#F7A520" d="M-649.4,392.7c-1.3,0.2-2.1,1.4-1.8,2.6c0.3,1.2,1.5,2,2.7,1.8c1.3-0.2,2.1-1.4,1.8-2.6
		C-646.9,393.2-648.1,392.4-649.4,392.7z"/>
	<path fill="#F7A520" d="M-662.6,385.7c-0.7,2.3-1,4.8-2.2,7c-1.3,2.3-3.5,4.2-5.2,6.3c2.4-1.7,5.3-2.9,7.3-5
		c1.5-1.7,2.4-3.9,3.3-5.9C-660.7,387.3-662.2,386.5-662.6,385.7z"/>
	<path fill="#F7A520" d="M-656.8,382.9c-0.9-1.2,1.4-2.4,2.9-3.4c0.7-0.5,1.4-1.1,1.9-1.6c-0.5,0.7-1,1.5-1.6,2.2
		c0.3,1.4,0.5,2.7,1.7,3.1c2,0.8,4.7-1.1,6.8-1.8c-1.8,0-4,1-5.3-0.1c-1.5-1.2-0.4-3.8-1.3-5.5c-1-1.7-2.6-3.4-4.3-4.3
		c-2.5-1.3-6.7-1.7-9.6-1.6c4.6,1,6.8,2.3,8.6,4.3c-1.9,2.3-6.9,7.6-5,10.5c1.5,2.2,6.6,1.8,7,4.4c0.4,2.7-3.6,3.9-5.4,6
		c3.1-2.1,8.7-2.7,9.2-6.3C-650.9,386.7-655.6,384.6-656.8,382.9z"/>
</g>
</svg>
