<?xml version="1.0" encoding="utf-8"?>
<!-- Generator: Adobe Illustrator 16.0.0, SVG Export Plug-In . SVG Version: 6.00 Build 0)  -->
<!DOCTYPE svg PUBLIC "-//W3C//DTD SVG 1.1//EN" "http://www.w3.org/Graphics/SVG/1.1/DTD/svg11.dtd">
<svg version="1.1" id="Layer_1" xmlns="http://www.w3.org/2000/svg" xmlns:xlink="http://www.w3.org/1999/xlink" x="0px" y="0px"
	 width="16.998px" height="16.002px" viewBox="0 0 16.998 16.002" enable-background="new 0 0 16.998 16.002" xml:space="preserve">
<g>
	<path d="M8.514,5.172C6.863,5.172,5.51,6.446,5.51,8c0,1.556,1.353,2.83,3.004,2.83S11.518,9.556,11.518,8
		C11.518,6.446,10.165,5.172,8.514,5.172z"/>
	<path d="M12.273,0H4.754C2.128,0,0,2.005,0,4.459v7.083c0,2.455,2.128,4.46,4.734,4.46h7.539c2.606,0,4.734-2.005,4.734-4.46V4.459
		C17.008,2.005,14.88,0,12.273,0z M8.514,12.142c-2.427,0-4.396-1.855-4.396-4.142c0-2.267,1.969-4.141,4.396-4.141
		S12.91,5.734,12.91,8C12.91,10.287,10.941,12.142,8.514,12.142z M13.029,4.853c-0.626,0-1.134-0.478-1.134-1.068
		c0-0.59,0.508-1.067,1.134-1.067c0.626,0,1.134,0.478,1.134,1.067C14.163,4.375,13.656,4.853,13.029,4.853z"/>
</g>
</svg>
