<?xml version="1.0" encoding="utf-8"?>
<!-- Generator: Adobe Illustrator 16.0.0, SVG Export Plug-In . SVG Version: 6.00 Build 0)  -->
<!DOCTYPE svg PUBLIC "-//W3C//DTD SVG 1.1//EN" "http://www.w3.org/Graphics/SVG/1.1/DTD/svg11.dtd">
<svg version="1.1" id="Layer_1" xmlns="http://www.w3.org/2000/svg" xmlns:xlink="http://www.w3.org/1999/xlink" x="0px" y="0px"
	 width="13.999px" height="21.001px" viewBox="0 0 13.999 21.001" enable-background="new 0 0 13.999 21.001" xml:space="preserve">
<g>
	<path fill="#969799" d="M13.999,7c0-3.863-3.137-7-7-7S0,3.137,0,7c0,1.393,0.409,2.691,1.109,3.781l3.843,5.493
		c-0.394,0.109-0.76,0.246-1.078,0.414C3.059,17.12,2.5,17.752,2.5,18.5c0,0.749,0.56,1.381,1.375,1.813
		C4.69,20.745,5.79,21.001,7,21.001s2.309-0.256,3.125-0.688c0.815-0.432,1.375-1.063,1.375-1.813c0-0.749-0.559-1.381-1.375-1.812
		c-0.317-0.168-0.684-0.305-1.078-0.414l3.844-5.493C13.59,9.691,13.999,8.393,13.999,7z M9.89,17.126
		c0.723,0.382,1.109,0.881,1.109,1.375c0,0.494-0.387,0.985-1.109,1.368C9.167,20.25,8.137,20.501,7,20.501s-2.168-0.25-2.89-0.633
		C3.386,19.485,3,18.995,3,18.5c0-0.494,0.387-0.992,1.109-1.375c0.32-0.17,0.702-0.308,1.125-0.414l1.554,2.422
		c0.09,0.141,0.332,0.141,0.422,0l1.554-2.422C9.188,16.817,9.57,16.956,9.89,17.126z M7,18.532l-5.469-8.024
		C0.881,9.495,0.5,8.295,0.5,7c0-3.593,2.907-6.5,6.5-6.5s6.5,2.907,6.5,6.5c0,1.294-0.381,2.494-1.031,3.508L7,18.532z"/>
	<path fill="#969799" d="M7,3.75C5.208,3.75,3.75,5.208,3.75,7S5.208,10.25,7,10.25c1.792,0,3.25-1.458,3.25-3.25S8.791,3.75,7,3.75
		z M7,9.75C5.478,9.75,4.25,8.522,4.25,7S5.478,4.25,7,4.25c1.521,0,2.75,1.228,2.75,2.75S8.521,9.75,7,9.75z"/>
</g>
</svg>
