<?xml version="1.0" encoding="utf-8"?>
<!-- Generator: Adobe Illustrator 19.1.0, SVG Export Plug-In . SVG Version: 6.00 Build 0)  -->
<svg version="1.1" baseProfile="tiny" id="Layer_1" xmlns="http://www.w3.org/2000/svg" xmlns:xlink="http://www.w3.org/1999/xlink"
	 x="0px" y="0px" viewBox="0 0 16 25" xml:space="preserve">
<g>
	<polygon fill="#077EAD" points="9.7,0 5.5,8.3 10.4,8.3 14.6,0 	"/>
	<g>
		<path fill="none" d="M1.3,16.8c0,3.8,3,6.9,6.7,6.9s6.7-3.1,6.7-6.9s-3-6.9-6.7-6.9S1.3,13,1.3,16.8z M8.1,12.7l1.1,2.2
			c0,0,0.1,0.1,0.1,0.1l2.4,0.4c0.1,0,0.1,0.1,0.1,0.2L10,17.3c0,0,0,0.1,0,0.1l0.4,2.5c0,0.1-0.1,0.2-0.2,0.1l-2.2-1.2
			c0,0-0.1,0-0.1,0L5.8,20c-0.1,0-0.2,0-0.2-0.1L6,17.4c0,0,0-0.1,0-0.1l-1.7-1.7c-0.1-0.1,0-0.2,0.1-0.2L6.7,15c0,0,0.1,0,0.1-0.1
			l1.1-2.2C8,12.6,8.1,12.6,8.1,12.7z"/>
		<path fill="none" d="M5.4,8.3C5.3,8.5,5.2,8.8,5.2,9v0.5C6,9.1,7,8.9,8,8.9s2,0.2,2.8,0.6V9c0-0.2-0.1-0.5-0.2-0.6
			c-0.1-0.1-0.1-0.1-0.2-0.2l0,0H5.5l0,0C5.5,8.3,5.5,8.3,5.4,8.3L5.4,8.3z"/>
		<path fill="#FEBE10" d="M5.2,9c0-0.3,0.1-0.5,0.3-0.7h0c0,0,0.1-0.1,0.1-0.1L5.2,7.6C4.9,7.8,4.6,8.1,4.5,8.5
			C4.5,8.6,4.4,8.8,4.4,9v0.8h0.1c0.2-0.1,0.4-0.2,0.7-0.3V9z"/>
		<path fill="#FEBE10" d="M10.6,8.4c0.2,0.2,0.2,0.4,0.2,0.6v0.5c0.2,0.1,0.5,0.2,0.7,0.3V9c0-0.4-0.1-0.7-0.3-1
			C11,7.6,10.5,7.3,9.9,7.3l0.5,0.9C10.5,8.3,10.5,8.3,10.6,8.4z"/>
		<polygon fill="#1187C4" points="5.5,8.3 5.5,8.3 10.4,8.3 10.4,8.2 9.9,7.3 6.2,0 1.3,0 5.2,7.6 		"/>
		<path fill="#FDBD15" d="M8,8.9c-1,0-2,0.2-2.8,0.6C4.9,9.6,4.7,9.7,4.5,9.8c-2.5,1.3-4.2,4-4.2,7c0,4.3,3.5,7.9,7.7,7.9
			s7.7-3.5,7.7-7.9c0-3-1.7-5.7-4.1-7c-0.2-0.1-0.5-0.2-0.7-0.3C10,9.1,9,8.9,8,8.9z M14.7,16.8c0,3.8-3,6.9-6.7,6.9
			s-6.7-3.1-6.7-6.9s3-6.9,6.7-6.9S14.7,13,14.7,16.8z"/>
		<path fill="#FFD880" d="M6.8,14.9C6.8,14.9,6.8,15,6.8,14.9l-2.5,0.4c-0.1,0-0.1,0.1-0.1,0.2L6,17.3c0,0,0,0.1,0,0.1l-0.4,2.5
			C5.6,20,5.7,20,5.8,20L8,18.8c0,0,0.1,0,0.1,0l2.2,1.2c0.1,0,0.2,0,0.2-0.1L10,17.4c0,0,0-0.1,0-0.1l1.7-1.7
			c0.1-0.1,0-0.2-0.1-0.2L9.3,15c0,0-0.1,0-0.1-0.1l-1.1-2.2c0-0.1-0.2-0.1-0.2,0L6.8,14.9z"/>
	</g>
</g>
</svg>
