<?xml version="1.0" encoding="utf-8"?>
<!-- Generator: Adobe Illustrator 16.0.0, SVG Export Plug-In . SVG Version: 6.00 Build 0)  -->
<!DOCTYPE svg PUBLIC "-//W3C//DTD SVG 1.1 Tiny//EN" "http://www.w3.org/Graphics/SVG/1.1/DTD/svg11-tiny.dtd">
<svg version="1.1" baseProfile="tiny" id="Layer_1" xmlns="http://www.w3.org/2000/svg" xmlns:xlink="http://www.w3.org/1999/xlink"
	 x="0px" y="0px" width="20px" height="30px" viewBox="0 0 20 30" xml:space="preserve">
<g>
	<polygon fill="#077EAD" points="12.137,0 6.881,9.912 12.966,9.912 18.223,0 	"/>
</g>
<g>
	<path fill="none" d="M13.247,10.042c-0.072-0.078-0.167-0.129-0.257-0.186l0.029,0.055H6.933L6.931,9.908
		c-0.045,0.034-0.1,0.054-0.14,0.094h0c-0.211,0.21-0.342,0.499-0.342,0.817v0.151c1.105-0.414,2.299-0.65,3.552-0.65
		s2.447,0.237,3.552,0.65v-0.151C13.552,10.52,13.436,10.248,13.247,10.042z"/>
	<path fill="#CFCED8" d="M13.247,10.042c0.189,0.206,0.305,0.478,0.305,0.776v0.151c0.311,0.116,0.613,0.247,0.907,0.392v-0.543
		c0-0.439-0.142-0.846-0.381-1.18c-0.37-0.517-0.977-0.855-1.664-0.869l0.576,1.086C13.08,9.913,13.175,9.964,13.247,10.042z"/>
	<path fill="#CFCED8" d="M6.448,10.818c0-0.318,0.131-0.607,0.342-0.817h0c0.04-0.04,0.095-0.06,0.14-0.094L6.506,9.106
		c-0.396,0.253-0.709,0.621-0.86,1.07c-0.068,0.202-0.105,0.417-0.105,0.642v0.543c0.294-0.145,0.597-0.275,0.907-0.392V10.818z"/>
	<polygon fill="#1187C4" points="6.933,9.912 13.019,9.912 12.99,9.856 12.414,8.77 7.763,0 1.677,0 6.506,9.106 6.931,9.908 	"/>
	<path fill="#CFCED8" d="M14.459,11.361c-0.294-0.145-0.597-0.275-0.907-0.392c-1.105-0.414-2.299-0.65-3.552-0.65
		s-2.447,0.237-3.552,0.65c-0.311,0.116-0.613,0.247-0.907,0.392C2.259,12.975,0,16.304,0,20.16C0,25.594,4.477,30,10,30
		s10-4.406,10-9.84C20,16.304,17.741,12.975,14.459,11.361z M10,27.768c-4.263,0-7.731-3.413-7.731-7.608
		c0-4.195,3.468-7.608,7.731-7.608s7.731,3.413,7.731,7.608C17.731,24.355,14.263,27.768,10,27.768z"/>
	<path fill="#B1B0BF" d="M10,12.552c-4.263,0-7.731,3.413-7.731,7.608c0,4.195,3.468,7.608,7.731,7.608s7.731-3.413,7.731-7.608
		C17.731,15.965,14.263,12.552,10,12.552z M15.441,18.508l-2.51,2.408c-0.042,0.04-0.06,0.097-0.051,0.153l0.593,3.399
		c0.025,0.142-0.126,0.249-0.255,0.183l-3.103-1.605c-0.051-0.026-0.112-0.026-0.164,0l-3.103,1.605
		c-0.129,0.066-0.28-0.041-0.255-0.183l0.592-3.399c0.01-0.056-0.009-0.114-0.05-0.153l-2.51-2.408
		c-0.104-0.1-0.047-0.275,0.098-0.295l3.469-0.496c0.057-0.008,0.107-0.043,0.132-0.095l1.551-3.093
		c0.065-0.128,0.251-0.128,0.315,0l1.552,3.093c0.025,0.051,0.075,0.086,0.132,0.095l3.469,0.496
		C15.488,18.233,15.545,18.408,15.441,18.508z"/>
	<path fill="#E3E3E5" d="M15.343,18.213l-3.469-0.496c-0.058-0.008-0.107-0.043-0.132-0.095l-1.552-3.093
		c-0.064-0.128-0.25-0.128-0.315,0l-1.551,3.093c-0.025,0.051-0.075,0.086-0.132,0.095l-3.469,0.496
		c-0.145,0.021-0.202,0.195-0.098,0.295l2.51,2.408c0.042,0.04,0.06,0.097,0.05,0.153l-0.592,3.399
		c-0.025,0.142,0.126,0.249,0.255,0.183l3.103-1.605c0.051-0.026,0.112-0.026,0.164,0l3.103,1.605
		c0.129,0.066,0.28-0.041,0.255-0.183l-0.593-3.399c-0.009-0.056,0.009-0.114,0.051-0.153l2.51-2.408
		C15.545,18.408,15.488,18.233,15.343,18.213z"/>
</g>
</svg>
