<?xml version="1.0" encoding="utf-8"?>
<!-- Generator: Adobe Illustrator 19.1.0, SVG Export Plug-In . SVG Version: 6.00 Build 0)  -->
<svg version="1.1" baseProfile="tiny" id="Layer_1" xmlns="http://www.w3.org/2000/svg" xmlns:xlink="http://www.w3.org/1999/xlink"
	 x="0px" y="0px" viewBox="-668 371 29 28" xml:space="preserve">
<g>
	<path fill="#F7A520" d="M-665.8,379.2c1-0.2,1.6-1.2,1.4-2.2c-0.2-1-1.2-1.6-2.2-1.4c-1,0.2-1.6,1.2-1.4,2.2
		C-667.8,378.7-666.8,379.4-665.8,379.2z"/>
	<path fill="#F7A520" d="M-664.6,396.5c-0.6,0.5-0.6,1.4-0.7,2.4c0.3,0.1,0.8-0.1,1.1,0c-0.1-0.5-0.1-1.3,0.2-1.7
		c0.7-0.7,2-0.6,2.7,0.3C-661.5,396.2-663.3,395.5-664.6,396.5z"/>
	<path fill="#F7A520" d="M-655.4,396.5c-0.6,0.5-0.6,1.4-0.7,2.4c0.3,0.1,0.8-0.1,1.1,0c-0.1-0.5-0.1-1.3,0.2-1.7
		c0.7-0.7,2-0.6,2.7,0.3C-652.3,396.2-654.1,395.5-655.4,396.5z"/>
	<path fill="#F7A520" d="M-664.1,383.7c5.8,4.4,13.2,9.3,25.1,11.8c-5.4-2.5-11.9-5.9-12.1-9.6c-0.1-1.1,0.2-2.2,0.6-3.2
		c1.2,0.3,2.4,0.5,3.6,0.5c-0.9-0.3-2-0.8-3.2-1.4c2.1-4.4,6.4-8.2,7.9-10.8c-3.3,2.6-7.4,6-10.5,9.5c-2.5-1.2-6.5-3.6-9.2-2.6
		c-2.5,1-6.2,3.2-4.9,6.5c1.8,4.4,3.8,6.6,4,11.5C-661,390.7-664.5,388.4-664.1,383.7z M-653.6,381.6c-0.5,0.6-0.9,1.2-1.3,1.8
		c-0.3,0.4-1,0.1-1.3-0.1c-1.4-1.2-2.3-2.2-3.4-3.3C-657.9,379.9-655.8,380.8-653.6,381.6z"/>
</g>
</svg>
