<?xml version="1.0" encoding="utf-8"?>
<!-- Generator: Adobe Illustrator 19.1.0, SVG Export Plug-In . SVG Version: 6.00 Build 0)  -->
<svg version="1.1" baseProfile="tiny" id="Layer_1" xmlns="http://www.w3.org/2000/svg" xmlns:xlink="http://www.w3.org/1999/xlink"
	 x="0px" y="0px" viewBox="-666 379 33 12" xml:space="preserve">
<g>
	<path fill="#F7A520" d="M-654.5,381.5c1.4-0.6,2.4,2.3,4.2,4.2c0.3,0.3,0.7,0.5,1.1,0.5c-0.1,0-0.1,0.1-0.2,0.1
		c-2.1-0.2-2.7-1.3-3.3-2.2c-1.1,0.5-2.8,2.9-5.5,4.5c3,0,14.9,0,11.4-5.3c0,0,0,0-0.1,0c-0.1-0.2-0.2-0.3-0.3-0.5
		c-2.4-2.4-4.4-4-7.1-3.8c-3.8,0.2-3.9,7-8,7.9C-657.7,387.2-657.6,382.9-654.5,381.5z"/>
	<path fill="#F7A520" d="M-639.8,386.9c-9.9,1.9-16.4,4.1-26.2,0.9c0,0.5,0,0.9,0,1.4c2.9,1,6.2,1.7,9.1,1.7c6,0,10.6-1.8,16.4-3.2
		c2.2-0.5,4.1-0.7,7.5-0.1v0l0-0.3v0v0v0v0l0,0v0v0v0v0v0v0v0v0v0v0v0v0v0v0v0v0v0v0v0v0v0v0v0v0v0v0v0
		C-635.4,386.4-637.5,386.5-639.8,386.9z"/>
	<ellipse fill="#F7A520" cx="-643.1" cy="383.9" rx="2.2" ry="2.2"/>
	<path fill="#F7A520" d="M-635.8,385.9c-1.4-0.6-2.9-0.9-4.3-0.8c0.1,0.3-0.1,0.7-0.6,1C-638.9,385.6-637.3,385.7-635.8,385.9z"/>
</g>
</svg>
