<?xml version="1.0" encoding="utf-8"?>
<!-- Generator: Adobe Illustrator 19.1.0, SVG Export Plug-In . SVG Version: 6.00 Build 0)  -->
<svg version="1.1" baseProfile="tiny" id="Layer_1" xmlns="http://www.w3.org/2000/svg" xmlns:xlink="http://www.w3.org/1999/xlink"
	 x="0px" y="0px" viewBox="-665 371 34 28" xml:space="preserve">
<g>
	<path fill="#F7A520" d="M-641,387.3c-3.4,2.1-5.7,7.9,4.4,10.9C-640.4,395.3-642.1,391.2-641,387.3z"/>
	<ellipse fill="#F7A520" cx="-646.1" cy="373" rx="1.9" ry="2"/>
	<path fill="#F7A520" d="M-641.1,377.7c5.1,1,6.7,0,10.1,0c-4.9-0.4-9-2.4-13.9-2.2c-4.4,0.1-8.5,2-13.4,2.3l-0.4-1.1
		c0.6-0.4,0.8-1.4,0.4-2.4c-0.4-1.2-1.3-1.9-2.1-1.6c-0.8,0.3-1.1,1.4-0.7,2.6c0.3,1,1.1,1.7,1.8,1.7l0.3,1c0,0-0.1,0-0.1,0
		c0,0,0.1,0,0.1,0l0.3,0.9l0.6-0.2l-0.2-0.6c3.7,0.7,6.4,0.6,10.3,0.2c1.6,2.6,2.8,4.3,2.6,5.7c0.6-0.3,1.2-0.4,1.9-0.5
		c-0.6,0.3-1.2,0.7-1.8,1.1c-6.2-0.1-12.9-0.2-19.8-0.1c0,0.3,0,0.7,0,1c5.9-0.3,12.1-0.4,19-0.4c-1.5,1.2-3,2.7-3.8,3.9
		c-1.4,1.9-0.7,6.7-2,10c2.1-2.5,3.4-4.4,4.6-8.4c0.8-2.7,6.2-3.1,6.9-5.3c0-0.1,0-0.1,0-0.2c2.8,0,5.8,0,8.9,0
		c-2.8-0.2-5.7-0.3-8.9-0.5C-639.9,382.6-641.1,380.8-641.1,377.7z"/>
</g>
</svg>
