<?xml version="1.0" encoding="utf-8"?>
<!-- Generator: Adobe Illustrator 19.1.0, SVG Export Plug-In . SVG Version: 6.00 Build 0)  -->
<svg version="1.1" baseProfile="tiny" id="Layer_1" xmlns="http://www.w3.org/2000/svg" xmlns:xlink="http://www.w3.org/1999/xlink"
	 x="0px" y="0px" viewBox="-668 372 29 25" xml:space="preserve">
<g>
	<path fill="#F7A520" d="M-656.7,375.5c1,0.2,1.9-0.4,2.1-1.4c0.2-0.9-0.4-1.9-1.4-2.1c-1-0.2-1.9,0.4-2.1,1.4
		C-658.3,374.3-657.7,375.3-656.7,375.5z"/>
	<path fill="#F7A520" d="M-639.5,372.8c-0.7-0.6-2,0-2.9,1.3c-0.4,0.6-0.7,1.3-0.7,2c-0.4,2.1-0.9,2.9-1.8,4.1
		c-1.6-0.1-2.6-0.2-4.1-0.8c-2-0.8-3.5-2.9-5.7-3c-2.6-0.1-4.7-0.3-6.7,1.5c-2.8,2.5-3,7.4-5.9,9.6c4-1,4.2-4.8,7.2-7.2
		c-1.2,8.5,1.3,11.4-1.8,12.6c-3.8,1.5-5.1,1.3-6.1,4c2.3-2.4,4.1-1.2,8.3-2.3c2.2-0.5,2.9-3.8,3.2-5.4c-0.9-0.3-1.7-0.7-2.3-1.3
		c1.4,0.7,3.8,0.3,6.9,2.4c2.7,1.8,3.1,3.9,4.2,6.7c-0.5-5-1.4-9.6-7.8-11.9c-1.7-1.4-0.2-5,1.6-6.1c1.5,0.7,2.9,1.7,4.5,2
		c1.5,0.4,2.9,0.3,3.9,0c0,0.1-0.1,0.1-0.1,0.2c0.2,0.1,0.3,0.2,0.5,0.2c0.2-0.2,0.3-0.4,0.5-0.6c0.4-0.2,0.8-0.3,1.1-0.5
		c-0.3,0-0.5,0-0.8,0c0.7-1,1.3-1.7,2.7-2.5c0.6-0.2,1.3-0.7,1.9-1.5C-638.9,374.9-638.8,373.4-639.5,372.8z M-640,376
		c-0.7,1-1.6,1.5-2.2,1c-0.6-0.4-0.5-1.6,0.2-2.6c0.7-1,1.6-1.5,2.2-1C-639.3,373.8-639.4,375-640,376z"/>
</g>
</svg>
