<?xml version="1.0" encoding="utf-8"?>
<!-- Generator: Adobe Illustrator 19.1.0, SVG Export Plug-In . SVG Version: 6.00 Build 0)  -->
<svg version="1.1" baseProfile="tiny" id="Layer_1" xmlns="http://www.w3.org/2000/svg" xmlns:xlink="http://www.w3.org/1999/xlink"
	 x="0px" y="0px" viewBox="-673 378 18 14" xml:space="preserve">
<path fill="#FFFFFF" d="M-671.6,392h10.7c1,0,1.4-0.4,1.4-1.5v-1.5l4.5,2.9v-8.2l-4.5,2.9c0-0.6,0-1.2,0-1.7c0-0.7-0.5-1.1-1.1-1.2
	c-0.2,0-0.3,0-0.5,0c-0.6,0-1.2,0-1.9,0c1.5-0.4,2.4-1.7,2.3-3.1c-0.2-1.5-1.3-2.6-2.7-2.7c-1.3-0.1-2.6,1-2.8,2.3
	c-0.2,0.8,0,1.5,0.4,2.2c0.4,0.7,1.1,1.1,1.8,1.3h-5.8c1.6-0.5,2.5-1.7,2.3-3.2c-0.2-1.5-1.2-2.5-2.7-2.6c-1.3-0.1-2.5,0.9-2.8,2.2
	c-0.1,0.4-0.1,0.8,0,1.2c0.1,0.4,0.2,0.7,0.4,1.1c0.2,0.3,0.5,0.6,0.8,0.8c0.3,0.2,0.7,0.3,1,0.5c-0.3,0-0.7,0-1,0
	c-0.9,0-1.3,0.5-1.3,1.4c0,1.8,0,3.6,0,5.4C-673,391.6-672.6,392-671.6,392z"/>
</svg>
