<?xml version="1.0" encoding="utf-8"?>
<!-- Generator: Adobe Illustrator 16.0.0, SVG Export Plug-In . SVG Version: 6.00 Build 0)  -->
<!DOCTYPE svg PUBLIC "-//W3C//DTD SVG 1.1//EN" "http://www.w3.org/Graphics/SVG/1.1/DTD/svg11.dtd">
<svg version="1.1" id="Layer_1" xmlns="http://www.w3.org/2000/svg" xmlns:xlink="http://www.w3.org/1999/xlink" x="0px" y="0px"
	 width="17px" height="10px" viewBox="0 0 17 10" enable-background="new 0 0 17 10" xml:space="preserve">
<path d="M8.317,9.958h1.016c0,0,0.308-0.035,0.464-0.209c0.145-0.16,0.141-0.46,0.141-0.46S9.917,7.883,10.55,7.676
	c0.624-0.203,1.424,1.358,2.273,1.959c0.642,0.455,1.13,0.355,1.13,0.355l2.271-0.033c0,0,1.188-0.076,0.625-1.038
	c-0.047-0.079-0.328-0.712-1.688-2.014c-1.423-1.362-1.233-1.142,0.481-3.499c1.045-1.435,1.463-2.312,1.332-2.688
	c-0.125-0.357-0.893-0.263-0.893-0.263l-2.557,0.016c0,0-0.188-0.026-0.33,0.06c-0.137,0.085-0.225,0.283-0.225,0.283
	s-0.406,1.11-0.945,2.055c-1.136,1.993-1.593,2.098-1.778,1.974C9.813,4.559,9.921,3.688,9.921,3.069
	c0-1.931,0.284-2.736-0.553-2.945C9.09,0.056,8.885,0.01,8.175,0.002c-0.912-0.01-1.684,0.002-2.121,0.224
	C5.763,0.374,5.54,0.701,5.675,0.719C5.844,0.743,6.227,0.826,6.43,1.11c0.262,0.368,0.252,1.192,0.252,1.192
	s0.151,2.273-0.351,2.556C5.986,5.051,5.515,4.657,4.5,2.849c-0.52-0.926-0.913-1.95-0.913-1.95s-0.075-0.19-0.211-0.293
	C3.212,0.481,2.983,0.441,2.983,0.441L0.555,0.458c0,0-0.365,0.01-0.499,0.174c-0.12,0.146-0.01,0.446-0.01,0.446
	s1.901,4.586,4.055,6.898C6.076,10.098,8.317,9.958,8.317,9.958L8.317,9.958z"/>
</svg>
