<?xml version="1.0" encoding="utf-8"?>
<!-- Generator: Adobe Illustrator 19.1.0, SVG Export Plug-In . SVG Version: 6.00 Build 0)  -->
<svg version="1.1" baseProfile="tiny" id="Layer_1" xmlns="http://www.w3.org/2000/svg" xmlns:xlink="http://www.w3.org/1999/xlink"
	 x="0px" y="0px" viewBox="-674 380 17 10" xml:space="preserve">
<path fill="#ED6F26" d="M-665.7,390h1c0,0,0.3,0,0.5-0.2c0.1-0.2,0.1-0.5,0.1-0.5s0-1.4,0.6-1.6c0.6-0.2,1.4,1.4,2.3,2
	c0.6,0.5,1.1,0.4,1.1,0.4l2.3,0c0,0,1.2-0.1,0.6-1c0-0.1-0.3-0.7-1.7-2c-1.4-1.4-1.2-1.1,0.5-3.5c1-1.4,1.5-2.3,1.3-2.7
	c-0.1-0.4-0.9-0.3-0.9-0.3l-2.6,0c0,0-0.2,0-0.3,0.1c-0.1,0.1-0.2,0.3-0.2,0.3s-0.4,1.1-0.9,2.1c-1.1,2-1.6,2.1-1.8,2
	c-0.4-0.3-0.3-1.2-0.3-1.8c0-1.9,0.3-2.7-0.6-2.9c-0.3-0.1-0.5-0.1-1.2-0.1c-0.9,0-1.7,0-2.1,0.2c-0.3,0.1-0.5,0.5-0.4,0.5
	c0.2,0,0.6,0.1,0.8,0.4c0.3,0.4,0.3,1.2,0.3,1.2s0.2,2.3-0.4,2.6c-0.3,0.2-0.8-0.2-1.8-2c-0.5-0.9-0.9-2-0.9-2s-0.1-0.2-0.2-0.3
	c-0.2-0.1-0.4-0.2-0.4-0.2l-2.4,0c0,0-0.4,0-0.5,0.2c-0.1,0.1,0,0.4,0,0.4s1.9,4.6,4.1,6.9C-667.9,390.1-665.7,390-665.7,390
	L-665.7,390z"/>
</svg>
