<?xml version="1.0" encoding="utf-8"?>
<!-- Generator: Adobe Illustrator 19.1.0, SVG Export Plug-In . SVG Version: 6.00 Build 0)  -->
<svg version="1.1" baseProfile="tiny" id="Layer_1" xmlns="http://www.w3.org/2000/svg" xmlns:xlink="http://www.w3.org/1999/xlink"
	 x="0px" y="0px" viewBox="-667 369 31 31" xml:space="preserve">
<g>
	<ellipse fill="#F7A520" cx="-641.4" cy="371.2" rx="1.7" ry="1.6"/>
	<path fill="#F7A520" d="M-636,377.9c0-0.4-0.1-0.8-0.1-1.2c-4.4,1-8.7,2.1-12.8,3.3c-0.2-0.6-0.3-1.3-0.6-1.9
		c3.8,0.8,5-2.5,8.7-4.5c-4.8,0.1-4.2,3.2-11.7,1.5c-2.5-0.8-6.1-0.7-8-1.9c-1.5-1-0.4-2.5,1.3-4.1c-2.2,1.2-4.5,2.9-4,4.7
		c0.5,1.9,3.5,1.9,6.5,3.6c2.1,1.2,2.7,2.5,3.3,4c0,0,0,0.1,0,0.1c-5.1,1.6-9.7,3.4-13.6,5.4c3.6-1.5,8.5-3.1,13.6-4.6
		c-0.3,0.9-1.2,1.8-1.4,2.6c-0.5,2.1-1.4,3.9-2.6,5.4c-3.8,0.5-7.5,3.9-8.9,6.6c3.3-2.2,6.3-3.6,8.6-4.1l0,0c1.6-0.4,3.6-1.3,5-2.3
		c-0.9,1-2.1,2.1-3.5,3c-1,1.7-1.7,4.4-3.5,6.7c7.8-6.6,12.1-12.8,11-19.2C-644.1,379.6-639.6,378.5-636,377.9z"/>
	<path fill="#F7A520" d="M-653.8,374.2c1,0,1.9-0.8,1.9-1.9c0-1-0.8-1.9-1.9-1.9c-1,0-1.9,0.8-1.9,1.9
		C-655.7,373.3-654.8,374.2-653.8,374.2z"/>
</g>
</svg>
