<?xml version="1.0" encoding="utf-8"?>
<!-- Generator: Adobe Illustrator 19.1.0, SVG Export Plug-In . SVG Version: 6.00 Build 0)  -->
<svg version="1.1" baseProfile="tiny" id="Layer_1" xmlns="http://www.w3.org/2000/svg" xmlns:xlink="http://www.w3.org/1999/xlink"
	 x="0px" y="0px" viewBox="-668 376 28 17" xml:space="preserve">
<g>
	<path fill="#F7A520" d="M-660.5,379.6c-1,0-1.8-0.8-1.8-1.8c0-1,0.8-1.8,1.8-1.8c1,0,1.8,0.8,1.8,1.8
		C-658.8,378.8-659.6,379.6-660.5,379.6"/>
	<path fill="#F7A520" d="M-653.8,382.3c-1.1,0-1.9-0.9-1.9-2c0-1.1,0.9-2,1.9-2c1.1,0,1.9,0.9,1.9,2
		C-651.9,381.4-652.7,382.3-653.8,382.3"/>
	<path fill="#F7A520" d="M-662.1,377.1c-1.8,11,10.5,3.8,15.6,5.7c1.5,0.5,2.8,1.3,4.4,4.1c-2.5-2.6-5.5-2.7-8.4-2.2
		c0.4,1.6,0.3,4.6-0.3,5.7c-1.6-0.1-2.9-0.1-4.6-0.1c-0.3-2.4-0.9-3.5-1.8-4.3c-1.6,0.1-3,0-4.2-1
		C-663.6,383.3-663.6,379.4-662.1,377.1"/>
	<path fill="#F7A520" d="M-667.8,393c8.5-1.6,15.7-1.4,27.8-0.8l0,0c-7.5-1.1-17.7-1.3-28-0.8C-667.9,391.9-667.9,392.4-667.8,393"
		/>
</g>
</svg>
