<?xml version="1.0" encoding="utf-8"?>
<!-- Generator: Adobe Illustrator 16.0.0, SVG Export Plug-In . SVG Version: 6.00 Build 0)  -->
<!DOCTYPE svg PUBLIC "-//W3C//DTD SVG 1.1//EN" "http://www.w3.org/Graphics/SVG/1.1/DTD/svg11.dtd">
<svg version="1.1" id="YouTube_Icon" xmlns="http://www.w3.org/2000/svg" xmlns:xlink="http://www.w3.org/1999/xlink" x="0px"
	 y="0px" width="18px" height="12.925px" viewBox="0 0 18 12.925" enable-background="new 0 0 18 12.925" xml:space="preserve">
<g id="Lozenge">
	<g>
		<path d="M17.82,2.804c0,0-0.176-1.273-0.715-1.834c-0.685-0.736-1.452-0.74-1.804-0.783C12.782,0,9.004,0,9.004,0H8.996
			c0,0-3.778,0-6.297,0.187C2.347,0.23,1.58,0.233,0.895,0.97C0.355,1.531,0.18,2.804,0.18,2.804S0,4.3,0,5.796v1.402
			c0,1.496,0.18,2.991,0.18,2.991s0.176,1.274,0.715,1.835c0.685,0.736,1.584,0.713,1.985,0.79C4.32,12.956,9,13,9,13
			s3.782-0.006,6.301-0.193c0.352-0.043,1.119-0.047,1.804-0.783c0.54-0.561,0.715-1.835,0.715-1.835S18,8.694,18,7.198V5.796
			C18,4.3,17.82,2.804,17.82,2.804z M7.142,8.897L7.141,3.704l4.864,2.605L7.142,8.897z"/>
	</g>
</g>
</svg>
