<?xml version="1.0" encoding="utf-8"?>
<!-- Generator: Adobe Illustrator 19.1.0, SVG Export Plug-In . SVG Version: 6.00 Build 0)  -->
<svg version="1.1" baseProfile="tiny" id="YouTube_Icon"
	 xmlns="http://www.w3.org/2000/svg" xmlns:xlink="http://www.w3.org/1999/xlink" x="0px" y="0px" viewBox="-673 378.1 18 12.9"
	 xml:space="preserve">
<g id="Lozenge">
	<g>
		<path fill="#ED6F26" d="M-655.2,380.9c0,0-0.2-1.3-0.7-1.8c-0.7-0.7-1.5-0.7-1.8-0.8c-2.5-0.2-6.3-0.2-6.3-0.2h0
			c0,0-3.8,0-6.3,0.2c-0.4,0-1.1,0-1.8,0.8c-0.5,0.6-0.7,1.8-0.7,1.8s-0.2,1.5-0.2,3v1.4c0,1.5,0.2,3,0.2,3s0.2,1.3,0.7,1.8
			c0.7,0.7,1.6,0.7,2,0.8c1.4,0.1,6.1,0.2,6.1,0.2s3.8,0,6.3-0.2c0.4,0,1.1,0,1.8-0.8c0.5-0.6,0.7-1.8,0.7-1.8s0.2-1.5,0.2-3v-1.4
			C-655,382.4-655.2,380.9-655.2,380.9z M-665.9,387l0-5.2l4.9,2.6L-665.9,387z"/>
	</g>
</g>
</svg>
