<?xml version="1.0" encoding="utf-8"?>
<!-- Generator: Adobe Illustrator 20.0.0, SVG Export Plug-In . SVG Version: 6.00 Build 0)  -->
<svg version="1.1" id="Слой_1" xmlns="http://www.w3.org/2000/svg" xmlns:xlink="http://www.w3.org/1999/xlink" x="0px" y="0px"
	 viewBox="0 0 14.5 16" style="enable-background:new 0 0 14.5 16;" xml:space="preserve">
<style type="text/css">
	.st0{fill:rgba(54, 54, 54, 0.75);}
</style>
<g>
	<path class="st0" d="M6.7,7.1c0.2-0.2,0.2-0.6,0-0.8c-0.2-0.2-0.6-0.2-0.8,0l-3,3c-0.5,0.5-0.8,1.2-0.8,1.9c0,0.7,0.3,1.4,0.8,1.9
		c1,1,2.7,1,3.8,0l6.7-6.7c0.7-0.7,1.1-1.6,1.1-2.6c0-1-0.4-1.9-1.1-2.6c-1.5-1.5-3.8-1.5-5.3,0L1.4,7.8C0.5,8.7,0,9.9,0,11.2
		c0,1.3,0.5,2.5,1.4,3.4C2.3,15.5,3.5,16,4.8,16c1.3,0,2.5-0.5,3.4-1.4l3-3c0.2-0.2,0.2-0.6,0-0.8c-0.2-0.2-0.6-0.2-0.8,0l-3,3
		c-0.7,0.7-1.6,1.1-2.6,1.1s-1.9-0.4-2.6-1.1c-0.7-0.7-1.1-1.6-1.1-2.6s0.4-1.9,1.1-2.6l6.7-6.7c0.5-0.5,1.1-0.8,1.8-0.8
		c0.7,0,1.3,0.3,1.8,0.8c0.5,0.5,0.8,1.1,0.8,1.8s-0.3,1.3-0.8,1.8l-6.7,6.7c-0.6,0.6-1.6,0.6-2.2,0c-0.3-0.3-0.5-0.7-0.5-1.1
		c0-0.4,0.2-0.8,0.5-1.1L6.7,7.1z M6.7,7.1"/>
</g>
</svg>
