<?xml version="1.0" encoding="utf-8"?>
<!-- Generator: Adobe Illustrator 20.0.0, SVG Export Plug-In . SVG Version: 6.00 Build 0)  -->
<svg version="1.1" id="Слой_1" xmlns="http://www.w3.org/2000/svg" xmlns:xlink="http://www.w3.org/1999/xlink" x="0px" y="0px"
	 viewBox="0 0 11.1 16" style="enable-background:new 0 0 11.1 16;" xml:space="preserve">
<style type="text/css">
	.st0{fill:#cdaf3a;}
</style>
<g>
	<path class="st0" d="M0,7.3h1.6V0h4.2C6.6,0,7.3,0.1,8,0.3c0.6,0.2,1.2,0.4,1.7,0.8c0.5,0.4,0.8,0.8,1.1,1.4c0.3,0.6,0.4,1.2,0.4,2
		s-0.1,1.4-0.4,2C10.4,7,10,7.4,9.5,7.8c-0.5,0.4-1,0.7-1.7,0.8C7.2,8.8,6.5,8.9,5.8,8.9H3.5v2.3h3.7v1.5H3.5V16H1.6v-3.2H0v-1.5
		h1.6V8.9H0V7.3z M5.8,7.3c1.1,0,1.9-0.2,2.5-0.7s0.9-1.2,0.9-2.2S8.9,2.7,8.3,2.3S6.9,1.6,5.8,1.6H3.5v5.7H5.8z"/>
</g>
</svg>
