<?xml version="1.0" encoding="utf-8"?>
<!-- Generator: Adobe Illustrator 20.0.0, SVG Export Plug-In . SVG Version: 6.00 Build 0)  -->
<svg version="1.1" id="Слой_1" xmlns="http://www.w3.org/2000/svg" xmlns:xlink="http://www.w3.org/1999/xlink" x="0px" y="0px"
	 viewBox="0 0 16.7 19" style="enable-background:new 0 0 16.7 19;" xml:space="preserve">
<style type="text/css">
	.st0{fill:#FFFFFF;}
</style>
<g>
	<path class="st0" d="M11.2,6.9c0-0.3-0.3-0.6-0.6-0.6H2.9c-0.3,0-0.6,0.3-0.6,0.6c0,0.3,0.3,0.6,0.6,0.6h7.7
		C11,7.5,11.2,7.2,11.2,6.9z"/>
	<path class="st0" d="M8.3,9.1H2.9c-0.3,0-0.6,0.3-0.6,0.6c0,0.3,0.3,0.6,0.6,0.6h5.4c0.3,0,0.6-0.3,0.6-0.6
		C8.9,9.4,8.7,9.1,8.3,9.1z"/>
	<path class="st0" d="M16.5,15.6c-0.2-0.2-0.6-0.2-0.8,0L14.3,17v-5.2c0-0.3-0.3-0.6-0.6-0.6c-0.3,0-0.6,0.3-0.6,0.6V17l-1.4-1.4
		c-0.2-0.2-0.6-0.2-0.8,0c-0.2,0.2-0.2,0.6,0,0.8l2.4,2.4c0.1,0.1,0.2,0.2,0.3,0.2c0,0,0.1,0,0.1,0c0,0,0.1,0,0.1,0
		c0.1,0,0.2-0.1,0.3-0.2l2.4-2.4C16.7,16.2,16.7,15.8,16.5,15.6z"/>
	<path class="st0" d="M8.3,12.3H2.9c-0.3,0-0.6,0.3-0.6,0.6c0,0.3,0.3,0.6,0.6,0.6h5.4c0.3,0,0.6-0.3,0.6-0.6
		C8.9,12.5,8.7,12.3,8.3,12.3z"/>
	<path class="st0" d="M8.3,15.4H8c0,0,0,0,0,0H1.2V5h2.7c0.3,0,0.6-0.3,0.6-0.6V1.2h8.7v0.3v2.9v2.6c0,0.3,0.3,0.6,0.6,0.6
		c0.3,0,0.6-0.3,0.6-0.6V4.4v-3V0.6C14.3,0.3,14,0,13.7,0H3.9c0,0-0.1,0-0.1,0c0,0,0,0,0,0c0,0-0.1,0-0.1,0c0,0,0,0,0,0
		c0,0-0.1,0.1-0.1,0.1L0.1,4.1c0,0-0.1,0.1-0.1,0.2c0,0,0,0,0,0.1c0,0,0,0.1,0,0.1V16c0,0.3,0.3,0.6,0.6,0.6h1.1c0,0,0,0,0,0h6.6
		c0.3,0,0.6-0.3,0.6-0.6C8.9,15.7,8.7,15.4,8.3,15.4z M3.3,2.2v1.7H1.8L3.3,2.2z"/>
</g>
</svg>
