<?xml version="1.0" encoding="utf-8"?>
<!-- Generator: Adobe Illustrator 20.0.0, SVG Export Plug-In . SVG Version: 6.00 Build 0)  -->
<svg version="1.1" id="Слой_1" xmlns="http://www.w3.org/2000/svg" xmlns:xlink="http://www.w3.org/1999/xlink" x="0px" y="0px"
	 viewBox="0 0 34.1 25" style="enable-background:new 0 0 34.1 25;" xml:space="preserve">
<style type="text/css">
	.st0{fill:#FFFFFF;}
</style>
<path class="st0" d="M27.3,11.4h-3.4H10.2H6.8H5.5l2.1-3.3h19l2.1,3.3H27.3L27.3,11.4z M26.6,23.7h-2V12.7h2V23.7L26.6,23.7z
	 M23.2,23.7h-1.6v-6.5c0-0.4-0.3-0.7-0.7-0.7h-7.8c-0.4,0-0.7,0.3-0.7,0.7v6.5h-1.6V12.7h1.6v0.7c0,0.4,0.3,0.7,0.7,0.7
	c0.4,0,0.7-0.3,0.7-0.7v-0.7h2.6v0.7c0,0.4,0.3,0.7,0.7,0.7c0.4,0,0.7-0.3,0.7-0.7v-0.7h2.6v0.7c0,0.4,0.3,0.7,0.7,0.7
	c0.4,0,0.7-0.3,0.7-0.7v-0.7h1.6V23.7L23.2,23.7z M20.3,23.7h-2.6v-2.9c0-0.4-0.3-0.7-0.7-0.7c-0.4,0-0.7,0.3-0.7,0.7v2.9h-2.6v-5.8
	h6.5V23.7L20.3,23.7z M9.5,23.7h-2V12.7h2V23.7L9.5,23.7z M10.4,3.5h13.2l2.1,3.3H8.4L10.4,3.5L10.4,3.5z M29.8,12.7H30
	c1.5,0,2.9-0.6,3.9-1.6c0.3-0.3,0.3-0.7,0-0.9c-0.3-0.3-0.7-0.3-0.9,0c-0.7,0.7-1.7,1.2-2.8,1.2l-5.5-8.7v-2C24.7,0.3,24.4,0,24,0
	c-0.4,0-0.7,0.3-0.7,0.7v1.5H10.7V0.7c0-0.4-0.3-0.7-0.7-0.7C9.7,0,9.4,0.3,9.4,0.7v2l-5.5,8.7c-1,0-2-0.5-2.8-1.2
	c-0.3-0.3-0.7-0.3-0.9,0c-0.3,0.3-0.3,0.7,0,0.9c1,1,2.4,1.6,3.9,1.6h0.2h1.9v10.9H2.2c-0.4,0-0.7,0.3-0.7,0.7
	c0,0.4,0.3,0.7,0.7,0.7h29.6c0.4,0,0.7-0.3,0.7-0.7c0-0.4-0.3-0.7-0.7-0.7h-3.9V12.7H29.8L29.8,12.7z"/>
</svg>
