<?xml version="1.0" encoding="utf-8"?>
<!-- Generator: Adobe Illustrator 20.0.0, SVG Export Plug-In . SVG Version: 6.00 Build 0)  -->
<svg version="1.1" id="Layer_1" xmlns="http://www.w3.org/2000/svg" xmlns:xlink="http://www.w3.org/1999/xlink" x="0px" y="0px"
	 viewBox="64.8 -2149.5 204 190" style="enable-background:new 64.8 -2149.5 204 190;" xml:space="preserve">
<style type="text/css">
	.st0{fill:#CCCCCC;}
	.st1{fill:#CBAD47;}
	.st2{fill:url(#SVGID_1_);}
</style>
<g>
	<g>
		<path class="st0" d="M194.1-1962.1c0,0-1.1-3.3,2.9-3.4c4-0.1,6-0.4,6.6-1.1c0.6-0.7,0.4-1,2.2-1.4c1.7-0.4,1.6-4,2.7-3.4
			c1.1,0.6,1,2.9,2.2,2.2c1.1-0.7,1.6-2.6,2.4-2.2c0.9,0.3,2.6,0.1,3.4,0c0.9-0.2,1.7-0.3,2.7-0.9c1-0.6,2.3-2.9,2.9-3.2
			c0.6-0.3,1.4,0,2.3-1.7c0.9-1.7,1.4-2.4,1.4-2.4s-1.1-2,0-2c1.1,0,2,1,2.4,0c0.4-1,0.4-1.4,1.1-2.4c0.7-1,1-1.6,1.6-1.6
			c0.6,0,3.2-0.6,2.2-1.4c-1-0.9-1-2.7,0.2-3.6c1.2-0.9,0.9-1.4,1.2-2.6c0.3-1.1,1.3-1.6,1.3-1.6s0.3-2.6,1.6-3.3
			c1.3-0.7,1.4-1.9,1.4-1.9s-0.1-0.9,0-1.3c0.1-0.4-0.4-1.7,0-2.2c0.4-0.4,1.3-1,1.3-1v-1.6l1-0.6c0,0,0.3-2,0-2.4
			c-0.3-0.4-1.6-1.6-2.2,1c0,0-2.4-1-3.7-0.3c0,0-0.8-0.1-0.2-0.9c0.6-0.8,1.1-1.3,1.7-1.6c0.6-0.3,1.2,0,1.2-0.8
			c0-0.8,0.3-1.6-0.2-1.8c-0.5-0.2-1.8-1.2-2.3-1.7c-0.4-0.5,0.2-1.2,1-0.9c0.8,0.3,1.5,0.6,1.5,0.6s1,0.1,0.1-0.7
			c-0.9-0.9-1.5-1.2-1.7-1.5c-0.2-0.3-0.1-1.8-0.9-1.8c-0.8,0-1.5,0-1.5,0s0.1-1.2,0-1.5c-0.1-0.3-1.4-1.1-1.4-1.1s-0.5-0.9-0.5-1.6
			c0-0.8-1.5-2.5-2.9-3.7c-1.4-1.2-2.6-1.6-2.6-1.6s-0.9-1.2,0.2-1.6c1.1-0.4,1.6-1.9,2-2.3s1.3-1.7,1.9-1.9c0.6-0.2,0.1-0.3,1-1.2
			c0.9-0.9,1.2-1.8,1.9-1.8c0.8,0,1.3-1.1,1.8-1.1c0.5,0,1.2,0.8,1.7-0.5c0.5-1.3,0.6-2.3,0.6-2.3h-1.8c0,0-1-0.1-1.4,0
			c-0.4,0.1-2.3,0-2.3,0s-1.2-1.7-2-1.4c-0.9,0.3-1.7,1.2-2,1.8c-0.3,0.6-0.4,1.9-1.9,1.7c-1.5-0.2-2.3-0.4-2-1.1
			c0.2-0.6,0.5-0.9,0.5-1.2c0-0.3-0.5-0.2-0.5-0.6c0-0.4,1-0.4-0.2-0.7c-1.2-0.3-1.4-0.6-1.9,0c-0.5,0.6-1.5,0.6-1.6,0.1
			c-0.1-0.4-0.4-0.8-0.6-1.4c-0.2-0.6,0.4,0.4-0.2-0.6c-0.6-1.1-1.5-4.4,0.6-3.3c2.2,1.1,1.8-0.3,3.8-0.2s1.2-1,1.2-1.3
			c0-0.3,0.1-1.4,0.4-1.6c0.3-0.2,1.8-1.6,2.2-1.8c0.3-0.2,1.1-0.9,1.4-1.5c0.3-0.6,0.3-2.7,1.1-2.7c0.8,0,2.4-1,2.8,0
			c0.4,1,1.6,1.5,1,2.5s-1.8,2.9-2.3,3.7c-0.4,0.8,0.5,1.1,0.6,1.5c0.1,0.4-0.9,0-1,1.1c-0.1,1.1,0.5,1.9,1.1,1.4
			c0.5-0.5,4.4-5.3,5.8-5.6c1.4-0.3,2.9-0.3,4.6-2.7c1.7-2.4,4.4-4,4.6-4.5c0.2-0.5,1-4,1.9-3.2c1,0.8,3,0.9,3.6,0.8
			c0.5-0.1,1.9-0.6,1.1-1.8c-0.9-1.2-0.3-1.5,0.3-1.7c0.6-0.2,1.8-0.9,2.4-1.2c0.6-0.3,1.2-0.2,1.2-1.1c0-0.9,0.4-3.2,1.1-2
			c0.6,1.2,1.9,2.2,1.9,0.9s0-1.7,0-1.7h1v-4.8c0,0-2.5-3.8-1.3-4.4c1.2-0.6,1-2,2.9-1.9c1.9,0.1,2.6-0.1,2.7-2.5
			c0.1-2.4,1.1-3.4,1.1-3.4v-5.4c0,0,1.9-1.5,1.1-2.2c-0.9-0.6-0.6-4-2.3-2.5c-1.6,1.5-4.2,3-4.2,3l-0.3,1.3c0,0-2.5,0.5-3.3,0.8
			c-0.9,0.2-1.7,0-1.7,0l-0.6-1.1c0,0,0.3-1.8,0-1.9c-0.3-0.1-0.8-1.2-1.5-1.2c-0.8,0-1.5,0-2-0.5c-0.5-0.5-1-1.2-1.9-1.2
			c-1,0-1.4,0.5-2.5,0c-1.1-0.5-2.4,0-2.4,0l-1.5-3c0,0-3.7-12-9.5-12.6c-5.8-0.6-5-0.4-7.9,0c-2.9,0.4-4.4,1.8-5.4,2.8
			c-1,1-0.2,1.2,0.4,1.7c0.6,0.5,1.8,2.2,1.3,2.8c-0.5,0.6-1.4,1.4-1.6,2.2c-0.2,0.8-0.6,1.7-0.8,2s-1.2,1.5-1.2,1.8
			c0,0.3-0.3,2.2-0.3,2.2s1.1,0.6,0.3,1c-0.8,0.3-1.9,0.5-2.3,1.1c-0.3,0.5-2.7,2.2-2.7,2.2s-0.4-0.4-1.7-0.6
			c-1.3-0.2-0.8,0.2-1.4,1.2c-0.6,1-1.4,3.1-1.5,3.7c-0.1,0.5-1.4,1.7-1.2,2.4c0.2,0.6,1.6,2.2,2.2,2c0.5-0.1,1.3-0.2,2.2-0.3
			c0.9-0.1,1.7,1.1,2,0.3c0.3-0.8,0-0.8,1.7-0.8c1.7,0,3-0.3,4,1.3c1,1.6,3.1,2.6,2,3.1c-1.1,0.5-0.6,1-1.8,0.5
			c-1.2-0.4-2.3-0.6-2.3-0.6l-1.8,0.6c0,0-1.5,0.1-1.6,0.4c-0.1,0.3-1.2,1-1.2,1l-1.2,0.4c0,0-1.5,2.2-1.5,2.5
			c0,0.3-0.3,1.3-0.3,1.3l-1.2,0.2l-1.6,1.1l-1.9,0.3l-2.7,2.3h-3.4c0,0-1.7-1-2.4-0.5s-1.5,2.3-1.5,2.7c0,0.4,0.9,1.4,1.1,1.7
			s0.4,1.7,0.4,1.7s-0.6,1.1-1,1.1c-0.3,0-1.6,0.5-1.6,0.5s-1.3,0.8-1.6,1.4c-0.3,0.6-0.5,1.3-1.6,1.6c-1.1,0.3-0.2-0.4-1.1,0.3
			s-3.1,0.8-4.5,0.9c-1.4,0.1-5.7,0.5-7.1,1c-1.4,0.4-2.7,2.3-4.6,2c-1.9-0.2-0.5-0.8-2-0.9c-1.5-0.1-1.8,0.4-2.9-0.1
			c-1.1-0.5-1.3-0.9-1.9-1.4s-0.6-1.1-2.2-1.1c-1.5,0-2.5-1.3-2.5-1.3s-0.8-1.4-3.9-1.4c-3.1,0-3.6,0.2-5-0.3
			c-1.4-0.5-2.9-1.1-4.2-1.2s-5-0.1-5-0.1s-0.4-1.5-1-2.5c-0.5-1,1.8-2.8-1-4.2c-2.8-1.4-3.9-3.7-3.9-3.7s-4.5-1.9-5-2.2
			c-0.4-0.2-4.7-1.4-4.7-2s-0.9-1.3,0-2.2c0.9-0.9,1.5-1.9,1.5-2.6s0.2-2.3-0.2-3.4c-0.4-1.2-1-2.8-1-2.8l-1.7-2l-1.8-0.9
			c0,0-2.5-2.2-2.5-3.9c0-1.7,0.8-1.9-0.8-1.9c-1.5,0-2.2-1.3-2.7-0.8c-0.5,0.5-0.1,1.4-0.9,1.9c-0.8,0.5-0.2,1.1-2.3,1.2
			c-2,0.1-2.2,0.9-2.2,1.2c0,0.3,0,3.2,0,3.2s0.4,1.3-0.6,1.3c-1.1,0-3.3-0.1-3.3-0.1l-1.7-0.9l-1.8-1.9l-2.7,2.3l-2.4,3.7
			c0,0-0.3,0.8,0,1.1c0.3,0.3,0.3,1.1,0.3,1.1l-1.1-0.3l-1-0.8c0,0-3.7-0.3-4.7-0.3c-1.1,0-1.1,0-1.1,0l-1.2,0.3
			c0,0,1.6,1.2,1.2,2.4c-0.4,1.2-0.2,2.4-0.2,2.9s0.2,3.2,0.2,3.2l-1.2,0.4l-1.2,1.1l-0.8,2.2c0,0,0.1,0.4-1.8,0.8
			c-1.9,0.3-3.8,0.4-3.8,0.4L85-2075l-1.7,0.3l-1.9,1c0,0-1.2-1.4-1.6-1.3c-0.4,0.1-2.2,1.6-2.2,1.6s-1.7,0.4-2.4-0.2
			c-0.6-0.6-1.8-1.6-1.8-1.6h-1.1l-1.3,1h-2.5c0,0-1.2,1.8-1.5,1.8s-1.3,1.1-1.3,1.1v1.1v1.2v1l1.7,0.5c0,0,1,1.4,0.5,2.9
			c-0.4,1.5-0.8,3.3-0.8,3.3l-1.5-0.1h-0.9l0.9,0.9l1.9,1.3l1.1,1.4c0,0,0.3,0.4,0.1,1.7c-0.2,1.3-0.2,2.5-0.2,2.5l1.3,0.5l1.2,1.2
			l2.4,1.7l0.5,0.8l0.5,1.6l-0.1,2.6l1.1,0.9l-0.5,1.8c0,0-0.6,1-0.6,1.4c0,0.4,0.3,1.8,0.3,1.8l0.3,0.6c0,0-0.3,2-0.3,2.4
			c0,0.3-1.3,1.1-1.3,1.1l-0.5-1.1l-1-0.2l-0.8,1.9l0.3,1c0,0-0.4,0.5-0.1,2.4c0.3,1.8,1.2,3,1.5,3c0.3,0,1.9,0.9,1.9,0.9
			s0.5,2.2,0.9,2.4s1.4,1.4,1.4,1.4l1.7,1.4l2.2-0.4c0,0,1.4,1.9,1.7,2.4c0.3,0.4,1.5,1.9,2.2,2.4c0.6,0.4,2.4,2.4,2.4,2.4l1.2,0.4
			c0,0,0.6,1.8,1.2,2.5c0.5,0.6,2.2,1.3,2.5,1.4c0.3,0.1,1.5,2.5,2,2.9c0.5,0.4,1.4,1.1,1.8,1.1c0.4,0,0.9-0.4,1.8,0
			c1,0.4,4,1.7,4,1.7s2,0.1,2.4,0.1c0.3,0,1.5,0,1.5,0l-0.1,2l0.6,2.2l1.4-0.3l0.2-1.9l2.7-1.4l2.3,0.9l2.3,1.6h1.3l1.1,2l0.3,1.3
			l0.9,1.9l3,0.8c0,0,3.4,0.3,3.8,0.2c0.3-0.1,1.5-2.7,3.9-2.7c2.4,0,3.4-1.1,3.9-1.3c0.4-0.2,2.3-1.1,4.4,0.4
			c2.2,1.5,2,1.9,2.8,1.5c0.8-0.4,1-1.6,1.3-2.2c0.3-0.5,1-0.9,1-0.9l0.4,1.3l1,0.3c0,0-0.3,1.3,0.5,2.5c0.9,1.2,1.3,1.5,1.3,1.8
			c0,0.3,0.5,4.5-0.6,6.1c-1.2,1.6-3.9,3.4-3.9,3.4l-1.1,2.3l-0.1,0.9v1.1l-1,1.1l2.4,0.3l2.5-0.6l-0.3,1l0.3,1.7l0.8,1.8l1.6,0.4
			l0.8,0.4l-1.3,1.2c0,0,0,0.6,0,1.3c0,0.6-0.8,1.7-0.8,1.7l3.2,0.6c0,0-1,1.4,0.8,2.2c1.7,0.8,3.1,0.1,4,0.2
			c0.9,0.1,0.9,2.3,0.9,2.3h2.4l0.2-2.3l-0.5-2.2c0,0,0-1.2,0.9-1.2c0.9,0,2.6-0.5,2.6-0.5s0.8-0.2,1.2,0.2c0.4,0.4,1.9,0.8,2.4,0.4
			c0.4-0.3,0.8-0.5,1.6-0.5c0.9,0,2.2,0,2.4-0.1c0.2-0.1,1.1-0.1,1.4-0.3s0-1.3,2.3-1.7c2.3-0.4,1.6,0.3,3,1
			c1.4,0.6,3.4,0.3,3.7,0.6c0.2,0.3-0.3,1.9-0.3,2.5s1.1,1.8,1.1,1.8s0.3,2.3,2.6,1.8c2.3-0.4,1.9,0.6,2.9,0.6s2.5-0.1,2.5-0.1
			l0.5-0.5c0,0,1,0,1.3,0.8c0.3,0.8,1.1,0.3,2,0.3c1,0,1.9-0.5,1.3,1.1c-0.6,1.6-0.1,5.3,2.5,4.7c2.6-0.5,0.5-0.9,0.5-0.9V-1962.1z"
			/>
		<polygon class="st1" points="114.1,-2075.5 115.4,-2073 118.1,-2072.6 116.1,-2070.7 116.6,-2068.1 114.1,-2069.3 111.7,-2068.1 
			112.2,-2070.7 110.2,-2072.6 112.9,-2073 		"/>
		<polygon class="st1" points="123.7,-2063.5 124.9,-2061 127.6,-2060.6 125.7,-2058.7 126.1,-2056.1 123.7,-2057.3 121.3,-2056.1 
			121.7,-2058.7 119.8,-2060.6 122.5,-2061 		"/>
		<polygon class="st1" points="123.7,-2049.9 124.9,-2047.5 127.6,-2047.1 125.7,-2045.2 126.1,-2042.5 123.7,-2043.7 
			121.3,-2042.5 121.7,-2045.2 119.8,-2047.1 122.5,-2047.5 		"/>
		<polygon class="st1" points="112.1,-2042.6 113.3,-2040.1 116,-2039.7 114,-2037.8 114.5,-2035.1 112.1,-2036.4 109.7,-2035.1 
			110.1,-2037.8 108.2,-2039.7 110.9,-2040.1 		"/>
		<polygon class="st1" points="100.1,-2066.7 103.2,-2060.4 110.1,-2059.4 105.1,-2054.5 106.3,-2047.6 100.1,-2050.9 93.9,-2047.6 
			95.1,-2054.5 90,-2059.4 97,-2060.4 		"/>
	</g>
	<linearGradient id="SVGID_1_" gradientUnits="userSpaceOnUse" x1="-54.8173" y1="-2333.4773" x2="222.3599" y2="-2046.3119">
		<stop  offset="0" style="stop-color:#EFC756"/>
		<stop  offset="1" style="stop-color:#AF913F"/>
	</linearGradient>
	<path class="st2" d="M195.1-2082.1c-0.4-0.7-0.8-1.5-1.3-2.3c-0.7-1.1-1.4-2.3-2.2-3.6c-0.8-1.3-1.7-2.6-2.6-4c-1-1.4-2-2.8-3-4.4
		c-2.2-3-4.7-6.1-7.5-9.3c-2.8-3.2-5.9-6.3-9.2-9.5c-0.8-0.8-1.7-1.5-2.5-2.3c-0.9-0.8-1.8-1.5-2.7-2.3c-0.4-0.4-0.9-0.8-1.3-1.1
		c-0.5-0.4-0.9-0.7-1.4-1.1c-0.5-0.4-0.9-0.7-1.4-1.1c-0.5-0.4-0.9-0.7-1.4-1.1c-1-0.7-1.9-1.4-2.9-2.1c-1-0.7-2-1.3-3-2
		c-0.5-0.3-1-0.7-1.5-1l-1.5-1c-1-0.6-2-1.3-3.1-1.9l-3.1-1.8c-1.1-0.6-2.1-1.1-3.2-1.7c-1-0.6-2.1-1.1-3.2-1.6
		c-1.1-0.5-2.1-1-3.2-1.5c-1.1-0.5-2.1-0.9-3.2-1.4c-1.1-0.4-2.2-0.8-3.2-1.3c-0.5-0.2-1.1-0.4-1.6-0.6c-0.5-0.2-1.1-0.4-1.6-0.6
		c-1.1-0.4-2.1-0.8-3.2-1.1c-1.1-0.3-2.1-0.6-3.2-1l-0.8-0.2l-0.8-0.2c-0.5-0.1-1-0.3-1.6-0.4c-2-0.6-4.1-1-6.1-1.5
		c-1-0.2-2-0.4-2.9-0.6c-1-0.2-1.9-0.4-2.8-0.5c-0.9-0.1-1.9-0.3-2.8-0.4c-0.9-0.1-1.8-0.3-2.7-0.4c-3.5-0.4-6.7-0.6-9.5-0.8
		c-1.4,0-2.7-0.1-4-0.1c-1.2,0-2.4,0-3.4,0c-0.5,0-1,0-1.4,0c-0.4,0-0.9,0-1.3,0.1c-0.8,0-1.5,0.1-2,0.1c-1.1,0.1-1.7,0.1-1.7,0.1
		s0.6,0,1.7,0.1c0.5,0,1.2,0.1,2,0.2c0.4,0,0.8,0.1,1.3,0.1c0.4,0.1,0.9,0.1,1.4,0.2c1,0.1,2.1,0.3,3.3,0.4c1.2,0.2,2.5,0.4,3.9,0.6
		c2.8,0.5,5.8,1.1,9.2,2c0.8,0.2,1.7,0.4,2.5,0.7c0.9,0.2,1.7,0.5,2.6,0.7c0.9,0.3,1.8,0.6,2.7,0.9c0.9,0.3,1.8,0.6,2.7,0.9
		c1.8,0.7,3.7,1.3,5.6,2.2c0.5,0.2,0.9,0.4,1.4,0.6l0.7,0.3l0.7,0.3c0.9,0.4,1.9,0.9,2.9,1.3c1,0.4,1.9,0.9,2.9,1.4
		c0.5,0.2,1,0.5,1.4,0.7c0.5,0.2,0.9,0.5,1.4,0.8c0.9,0.5,1.9,1.1,2.9,1.6c0.9,0.6,1.9,1.1,2.8,1.7c1,0.6,1.9,1.2,2.8,1.8
		c0.9,0.6,1.9,1.2,2.8,1.9c0.9,0.6,1.8,1.3,2.7,1.9l2.6,2c0.9,0.7,1.7,1.4,2.6,2.1l1.3,1.1c0.4,0.3,0.8,0.7,1.2,1.1
		c0.8,0.7,1.7,1.5,2.5,2.2c0.8,0.8,1.6,1.5,2.4,2.3c0.4,0.4,0.8,0.8,1.1,1.1c0.4,0.4,0.8,0.8,1.1,1.2c0.4,0.4,0.7,0.8,1.1,1.1
		c0.4,0.4,0.7,0.8,1.1,1.2c0.7,0.8,1.4,1.6,2.1,2.3c0.7,0.8,1.3,1.6,2,2.4c2.6,3.2,5,6.3,7,9.5c2.1,3.1,3.8,6.1,5.4,9
		c0.7,1.4,1.5,2.8,2.1,4.1c0.6,1.3,1.2,2.6,1.8,3.8c0.1,0.2,0.2,0.4,0.3,0.6l-27.9-3.9c18.1,13.6,37.5,37.6,50.2,57.6
		c3.5-23.4,11.5-53.2,22.5-73L195.1-2082.1z"/>
</g>
</svg>
