<?xml version="1.0" encoding="utf-8"?>
<!-- Generator: Adobe Illustrator 20.0.0, SVG Export Plug-In . SVG Version: 6.00 Build 0)  -->
<svg version="1.1" id="Layer_1" xmlns="http://www.w3.org/2000/svg" xmlns:xlink="http://www.w3.org/1999/xlink" x="0px" y="0px"
	 viewBox="-377 -1578.5 50 50" style="enable-background:new -377 -1578.5 50 50;" xml:space="preserve">
<style type="text/css">
	.st0{fill:#FFFFFF;}
</style>
<path class="st0" d="M-337-1578.5h-30c-5.5,0-10,4.5-10,10v30c0,5.5,4.5,10,10,10h30c5.5,0,10-4.5,10-10v-30
	C-327-1574-331.5-1578.5-337-1578.5z M-345.2-1563.8c0,0.3-0.2,0.5-0.5,0.5h-1.6c-1.7,0-3,1.4-3,3v3.5h4.1c0.3,0,0.5,0.2,0.5,0.5
	v4.1c0,0.3-0.2,0.5-0.5,0.5h-4.1v12.7c0,0.3-0.2,0.5-0.5,0.5h-4.1c-0.3,0-0.5-0.2-0.5-0.5v-12.7h-2.8c-0.3,0-0.5-0.2-0.5-0.5v-4.1
	c0-0.3,0.2-0.5,0.5-0.5h2.8v-3.5c0-4.5,3.7-8.2,8.2-8.2h1.6c0.3,0,0.5,0.2,0.5,0.5V-1563.8z"/>
</svg>
