<?xml version="1.0" encoding="utf-8"?>
<!-- Generator: Adobe Illustrator 20.0.0, SVG Export Plug-In . SVG Version: 6.00 Build 0)  -->
<svg version="1.1" id="Layer_1" xmlns="http://www.w3.org/2000/svg" xmlns:xlink="http://www.w3.org/1999/xlink" x="0px" y="0px"
	 viewBox="0 0 50 50" style="enable-background:new 0 0 50 50;" xml:space="preserve">
<style type="text/css">
	.st0{fill:#FFFFFF;}
</style>
<g>
	<path class="st0" d="M36,19c0-2.8-2.2-5-5-5H19c-2.8,0-5,2.2-5,5V31c0,2.8,2.2,5,5,5H31c2.8,0,5-2.2,5-5h0V19z M25,31.9
		c-3.8,0-6.9-3.1-6.9-6.9c0-3.8,3.1-6.9,6.9-6.9s6.9,3.1,6.9,6.9C31.9,28.8,28.8,31.9,25,31.9z M33.4,19.1c-0.3,0.3-0.8,0.5-1.2,0.5
		c-0.5,0-0.9-0.2-1.2-0.5c-0.3-0.3-0.5-0.8-0.5-1.2c0-0.5,0.2-0.9,0.5-1.2c0.3-0.3,0.8-0.5,1.2-0.5c0.5,0,0.9,0.2,1.2,0.5
		c0.3,0.3,0.5,0.8,0.5,1.2C33.9,18.3,33.7,18.8,33.4,19.1z"/>
	<circle class="st0" cx="25" cy="25" r="4.5"/>
	<path class="st0" d="M40,0H10C4.5,0,0,4.5,0,10v30c0,5.5,4.5,10,10,10h30c5.5,0,10-4.5,10-10V10C50,4.5,45.5,0,40,0z M38.3,31
		c0,4.1-3.3,7.4-7.4,7.4H19c-4.1,0-7.4-3.3-7.4-7.4V19c0-4.1,3.3-7.4,7.4-7.4H31c4.1,0,7.4,3.3,7.4,7.4V31z"/>
</g>
</svg>
