<?xml version="1.0" encoding="utf-8"?>
<!-- Generator: Adobe Illustrator 20.0.0, SVG Export Plug-In . SVG Version: 6.00 Build 0)  -->
<svg version="1.1" id="Слой_1" xmlns="http://www.w3.org/2000/svg" xmlns:xlink="http://www.w3.org/1999/xlink" x="0px" y="0px"
	 viewBox="0 0 13.8 16" style="enable-background:new 0 0 13.8 16;" xml:space="preserve">
<style type="text/css">
	.st0{fill:#363636;}
</style>
<g>
	<path class="st0" d="M0.6,16h12.6c0.3,0,0.6-0.2,0.6-0.6V0.6c0-0.3-0.2-0.6-0.6-0.6H3.7c0,0-0.1,0-0.1,0c0,0,0,0,0,0
		c0,0-0.1,0-0.1,0c0,0,0,0,0,0c0,0-0.1,0.1-0.1,0.1L0.1,3.9C0.1,4,0.1,4,0,4.1c0,0,0,0,0,0.1c0,0,0,0.1,0,0.1v11.2
		C0,15.8,0.3,16,0.6,16L0.6,16z M3.2,2.1v1.6H1.8L3.2,2.1z M1.1,4.9h2.6c0.3,0,0.6-0.2,0.6-0.6V1.1h8.3v13.7H1.1V4.9z M1.1,4.9"/>
	<path class="st0" d="M10.9,6.1H2.8c-0.3,0-0.6,0.2-0.6,0.6c0,0.3,0.2,0.6,0.6,0.6h8.1c0.3,0,0.6-0.2,0.6-0.6
		C11.5,6.3,11.3,6.1,10.9,6.1L10.9,6.1z M10.9,6.1"/>
	<path class="st0" d="M10.9,8.8H2.8c-0.3,0-0.6,0.2-0.6,0.6c0,0.3,0.2,0.6,0.6,0.6h8.1c0.3,0,0.6-0.2,0.6-0.6
		C11.5,9.1,11.3,8.8,10.9,8.8L10.9,8.8z M10.9,8.8"/>
	<path class="st0" d="M10.9,11.8H2.8c-0.3,0-0.6,0.2-0.6,0.6c0,0.3,0.2,0.6,0.6,0.6h8.1c0.3,0,0.6-0.2,0.6-0.6
		C11.5,12.1,11.3,11.8,10.9,11.8L10.9,11.8z M10.9,11.8"/>
</g>
</svg>
