<?xml version="1.0" encoding="utf-8"?>
<!-- Generator: Adobe Illustrator 20.0.0, SVG Export Plug-In . SVG Version: 6.00 Build 0)  -->
<svg version="1.1" id="Layer_1" xmlns="http://www.w3.org/2000/svg" xmlns:xlink="http://www.w3.org/1999/xlink" x="0px" y="0px"
	 viewBox="-1873.5 326.1 35.5 27" style="enable-background:new -1873.5 326.1 35.5 27;" xml:space="preserve">
<style type="text/css">
	.st0{fill:#E50202;}
</style>
<g>
	<path class="st0" d="M-1842.3,326.1h-26.8c-2.4,0-4.3,1.9-4.3,4.3v18.3c0,2.4,1.9,4.3,4.3,4.3h26.8c2.4,0,4.3-1.9,4.3-4.3v-18.3
		C-1838,328-1839.9,326.1-1842.3,326.1L-1842.3,326.1z M-1840,348.7c0,1.3-1.1,2.4-2.4,2.4h-26.8c-1.3,0-2.4-1.1-2.4-2.4v-18.3
		c0-1.3,1.1-2.4,2.4-2.4h26.8c1.3,0,2.4,1.1,2.4,2.4L-1840,348.7L-1840,348.7z M-1840,348.7"/>
	<path class="st0" d="M-1851.1,339.4l8.7-7.8c0.4-0.4,0.4-1,0.1-1.4c-0.4-0.4-1-0.4-1.4-0.1l-12,10.7l-2.3-2.1c0,0,0,0,0,0
		c-0.1-0.1-0.1-0.1-0.2-0.1l-9.5-8.5c-0.4-0.4-1-0.3-1.4,0.1c-0.4,0.4-0.3,1,0.1,1.4l8.8,7.8l-8.7,8.2c-0.4,0.4-0.4,1,0,1.4
		c0.2,0.2,0.5,0.3,0.7,0.3c0.2,0,0.5-0.1,0.7-0.3l8.9-8.3l2.4,2.2c0.2,0.2,0.4,0.2,0.7,0.2c0.2,0,0.5-0.1,0.7-0.3l2.5-2.2l8.8,8.4
		c0.2,0.2,0.4,0.3,0.7,0.3c0.3,0,0.5-0.1,0.7-0.3c0.4-0.4,0.4-1,0-1.4L-1851.1,339.4z M-1851.1,339.4"/>
</g>
</svg>
