<?xml version="1.0" encoding="utf-8"?>
<!-- Generator: Adobe Illustrator 20.0.0, SVG Export Plug-In . SVG Version: 6.00 Build 0)  -->
<svg version="1.1" id="Layer_1" xmlns="http://www.w3.org/2000/svg" xmlns:xlink="http://www.w3.org/1999/xlink" x="0px" y="0px"
	 viewBox="-1831.3 326.3 27 27" style="enable-background:new -1831.3 326.3 27 27;" xml:space="preserve">
<style type="text/css">
	.st0{fill:#E50202;}
</style>
<g>
	<path class="st0" d="M-1810,342.7c-1.2-1.2-2.9-1.2-4.2,0l-1.6,1.6l-0.3-0.1c-0.2-0.1-0.4-0.2-0.5-0.3c-1.6-1-3.1-2.4-4.5-4.1
		c-0.6-0.8-1.1-1.5-1.4-2.2c0.4-0.3,0.7-0.7,1.1-1l0.6-0.6c1.3-1.3,1.3-3,0-4.2l-1.6-1.6c-0.2-0.2-0.3-0.3-0.5-0.5
		c-0.3-0.3-0.7-0.7-1.1-1c-1.2-1.2-2.9-1.2-4.1,0l-1.9,1.9c-0.8,0.8-1.2,1.7-1.3,2.8c-0.1,1.7,0.4,3.2,0.7,4.3
		c0.9,2.5,2.3,4.8,4.3,7.2c2.5,3,5.5,5.3,8.9,6.9c1.3,0.6,3.1,1.4,5,1.5c0.1,0,0.2,0,0.4,0c1.4,0,2.5-0.5,3.4-1.5
		c0.3-0.3,0.6-0.6,0.9-0.9l0.1-0.1c0.2-0.2,0.5-0.5,0.7-0.7c0.6-0.6,0.9-1.4,0.9-2.1c0-0.8-0.3-1.5-0.9-2.1L-1810,342.7z
		 M-1822.5,334.7c-0.1,0.1-0.2,0.2-0.3,0.3c-0.5,0.5-0.9,0.9-1.4,1.4l-0.1,0.1c-0.5,0.6-0.4,1.1-0.3,1.5l0,0.1c0.4,1,1,1.9,1.8,3
		c1.6,1.9,3.2,3.4,5,4.6c0.2,0.2,0.5,0.3,0.7,0.4c0.2,0.1,0.4,0.2,0.6,0.3l0.1,0c0.2,0.1,0.4,0.2,0.7,0.2c0.6,0,0.9-0.3,1-0.5
		l1.9-1.9c0.2-0.2,0.4-0.3,0.7-0.3c0.3,0,0.5,0.2,0.6,0.3l3.1,3.1c0.5,0.5,0.5,0.9,0.1,1.3l-0.1,0l0,0.1c-0.2,0.2-0.3,0.3-0.5,0.5
		l-0.1,0.1c-0.4,0.3-0.7,0.7-1.1,1.1c-0.5,0.6-1.1,0.8-1.9,0.8c-0.1,0-0.2,0-0.2,0c-1.6-0.1-3.1-0.7-4.3-1.3
		c-3.1-1.5-5.9-3.7-8.2-6.4c-1.9-2.3-3.2-4.4-4-6.6c-0.5-1.4-0.7-2.4-0.6-3.4c0.1-0.6,0.3-1.1,0.7-1.5l1.9-1.9
		c0.2-0.2,0.5-0.3,0.7-0.3c0.3,0,0.5,0.2,0.7,0.3c0.3,0.3,0.7,0.6,1,1l2.1,2.1c0.5,0.5,0.5,0.9,0,1.4L-1822.5,334.7z"/>
	<path class="st0" d="M-1813.1,335c1,1,1.7,2.3,1.9,3.7c0.1,0.5,0.5,0.8,1,0.8c0.1,0,0.1,0,0.2,0c0.5-0.1,0.9-0.6,0.8-1.2
		c-0.3-1.8-1.2-3.5-2.5-4.8c-1.3-1.3-3-2.2-4.8-2.5c-0.6-0.1-1.1,0.3-1.2,0.8c0,0.3,0,0.5,0.2,0.8c0.2,0.2,0.4,0.4,0.6,0.4
		C-1815.4,333.3-1814.1,334-1813.1,335z"/>
	<path class="st0" d="M-1808.4,330.3c-2.1-2.1-4.9-3.6-7.8-4.1c-0.5-0.1-1.1,0.3-1.2,0.8c-0.1,0.6,0.3,1.1,0.8,1.2
		c2.6,0.4,4.9,1.6,6.7,3.5c1.9,1.9,3.1,4.2,3.5,6.7c0.1,0.5,0.5,0.8,1,0.8c0.1,0,0.1,0,0.2,0c0.3,0,0.5-0.2,0.7-0.4
		c0.2-0.2,0.2-0.5,0.2-0.7C-1804.9,335.2-1806.3,332.5-1808.4,330.3z"/>
</g>
</svg>
