<?xml version="1.0" encoding="utf-8"?>
<!-- Generator: Adobe Illustrator 20.0.0, SVG Export Plug-In . SVG Version: 6.00 Build 0)  -->
<svg version="1.1" id="Capa_1" xmlns="http://www.w3.org/2000/svg" xmlns:xlink="http://www.w3.org/1999/xlink" x="0px" y="0px"
	 viewBox="0 0 25.9 20.9" style="enable-background:new 0 0 25.9 20.9;" xml:space="preserve">
<style type="text/css">
	.st0{fill:#cdaf3a;}
</style>
<path class="st0" d="M25.8,3.2c-0.1-0.1-0.2-0.1-0.3,0c-0.5,0.3-1.1,0.5-1.6,0.6c0.6-0.5,1.4-1.3,1.4-2.4c0-0.1-0.1-0.2-0.2-0.3
	c-0.1,0-0.2,0-0.3,0c-1,0.7-2.3,1.1-2.8,1.2C21.5,1.7,20.3,0,18.1,0c-0.1,0-0.2,0-0.4,0c-2.6,0.2-3.9,1.8-4.5,3
	c-0.4,0.8-0.6,1.6-0.6,2.1c-0.4-0.4-1.1-0.9-2.2-1.5C8.7,2.8,5.9,1.8,1.7,1.8c-0.4,0-0.8,0-1.2,0c-0.1,0-0.2,0.1-0.2,0.1
	c0,0.1-0.1,0.2,0,0.3c0.9,1.8,2.8,2.9,4,3.5C3.6,5.9,2.9,6.2,2.6,6.8C2.5,7,2.5,7.5,3,8c0.8,0.7,1.6,1.2,2.4,1.5
	c-0.6,0.1-1.1,0.3-1.3,0.6c-0.1,0.1-0.1,0.4,0.1,0.7c1,1.4,3.5,2,4.7,2.1c-0.1,0.3-0.4,0.9-1,1.4C6.7,15.4,4.8,16,2.4,16h0
	c-0.7,0-1.4,0-2.1-0.1c-0.1,0-0.2,0-0.3,0.2c-0.1,0.1,0,0.2,0.1,0.3c3.2,3,6.8,4.6,10.4,4.6h0c4,0,7.9-2,10.5-5.3
	c2.3-2.9,3.2-6.4,2.4-9.7c0.5-0.2,1.6-0.8,2.4-2.5C25.9,3.4,25.9,3.3,25.8,3.2L25.8,3.2z M25.8,3.2"/>
</svg>
