<?xml version="1.0" encoding="utf-8"?>
<!-- Generator: Adobe Illustrator 20.0.0, SVG Export Plug-In . SVG Version: 6.00 Build 0)  -->
<svg version="1.1" id="Layer_1" xmlns="http://www.w3.org/2000/svg" xmlns:xlink="http://www.w3.org/1999/xlink" x="0px" y="0px"
	 viewBox="0 0 30.4 30" style="enable-background:new 0 0 30.4 30;" xml:space="preserve">
<style type="text/css">
	.st0{fill:#ffffff;}
</style>
<g>
	<g>
		<path class="st0" d="M30.4,14.2L16.2,0v9.3c-4.2,0.2-8.2,2-11.2,5c-3.2,3.2-5,7.6-5,12.1V30l1.7-3.1c2.7-4.9,7.8-8,13.5-8
			c0.4,0,0.7,0,1.1,0v9.4L30.4,14.2z M15.2,17.1c-5,0-9.7,2.2-12.9,5.9c1.6-6.8,7.7-11.8,14.9-11.8h0.9V4.4l9.7,9.7l-9.7,9.7v-6.6
			l-0.8-0.1C16.6,17.1,15.9,17.1,15.2,17.1z"/>
	</g>
</g>
</svg>
