<?xml version="1.0" encoding="utf-8"?>
<!-- Generator: Adobe Illustrator 20.0.0, SVG Export Plug-In . SVG Version: 6.00 Build 0)  -->
<svg version="1.1" id="Capa_1" xmlns="http://www.w3.org/2000/svg" xmlns:xlink="http://www.w3.org/1999/xlink" x="0px" y="0px"
	 viewBox="0 0 13.6 30" style="enable-background:new 0 0 13.6 30;" xml:space="preserve">
<style type="text/css">
	.st0{fill:#454545;}
</style>
<g>
	<path class="st0" d="M13.1,0h-1.6C7,0,3.3,3.7,3.3,8.2v3.5H0.5c-0.3,0-0.5,0.2-0.5,0.5v4.1c0,0.3,0.2,0.5,0.5,0.5h2.8v12.7
		c0,0.3,0.2,0.5,0.5,0.5h4.1c0.3,0,0.5-0.2,0.5-0.5V16.8h4.1c0.3,0,0.5-0.2,0.5-0.5v-4.1c0-0.3-0.2-0.5-0.5-0.5H8.5V8.2
		c0-1.7,1.4-3,3-3h1.6c0.3,0,0.5-0.2,0.5-0.5V0.5C13.6,0.2,13.4,0,13.1,0L13.1,0z M13.1,0"/>
</g>
</svg>
