<?xml version="1.0" encoding="utf-8"?>
<!-- Generator: Adobe Illustrator 20.0.0, SVG Export Plug-In . SVG Version: 6.00 Build 0)  -->
<svg version="1.1" id="Capa_1" xmlns="http://www.w3.org/2000/svg" xmlns:xlink="http://www.w3.org/1999/xlink" x="0px" y="0px"
	 viewBox="0 0 31 17.9" style="enable-background:new 0 0 31 17.9;" xml:space="preserve">
<style type="text/css">
	.st0{fill:#cdaf3a;}
</style>
<path class="st0" d="M29.6,14c-0.7-0.8-1.4-1.5-2.2-2.2c-0.3-0.2-0.5-0.5-0.8-0.8c-0.8-0.7-0.8-1-0.2-1.9c0.4-0.6,0.9-1.2,1.3-1.7
	c0.4-0.5,0.8-1,1.2-1.6L29,5.7c0.7-1,1.5-2,1.9-3.3c0.1-0.3,0.2-0.8,0-1.2c-0.2-0.4-0.7-0.5-1.1-0.6c-0.2,0-0.3,0-0.5,0l-4.8,0l0,0
	c-0.7,0-1.2,0.3-1.5,1c-0.3,0.7-0.6,1.4-0.9,2.1c-0.7,1.3-1.5,2.9-2.7,4.2l-0.1,0.1c-0.1,0.2-0.3,0.3-0.4,0.3c0,0,0,0-0.1,0
	c-0.3-0.1-0.4-0.7-0.4-1c0,0,0,0,0,0l0-5.5c0,0,0,0,0-0.1C18.3,0.8,18,0.2,17,0c0,0-0.1,0-0.1,0h-5c-0.8,0-1.3,0.3-1.7,0.8
	C10.2,1,9.9,1.2,10,1.6C10.2,1.9,10.5,2,10.7,2c0.6,0.1,1,0.5,1.1,1.2c0.2,1.1,0.2,2.4,0.1,3.9c0,0.4-0.1,0.7-0.2,1
	c0,0.1-0.1,0.3-0.2,0.3c0,0-0.1,0-0.3-0.1c-0.4-0.3-0.7-0.6-1-1.1C9,5.5,8,3.7,7.2,1.7C6.9,1,6.4,0.6,5.6,0.6c-0.8,0-1.5,0-2.2,0
	c-0.7,0-1.4,0-2.1,0c-0.6,0-1,0.2-1.2,0.5c-0.2,0.3-0.2,0.8,0,1.3c1.9,4.2,3.6,7.3,5.6,10c1.4,1.9,2.8,3.2,4.4,4.1
	c1.7,1,3.6,1.4,5.7,1.4c0.2,0,0.5,0,0.8,0c1.3-0.1,1.7-0.5,1.8-1.8c0-0.6,0.1-1.3,0.4-1.9c0.2-0.4,0.4-0.4,0.4-0.4
	c0.1,0,0.3,0.1,0.4,0.2c0.3,0.2,0.5,0.4,0.7,0.6c0.2,0.2,0.4,0.4,0.5,0.6c0.4,0.4,0.8,0.9,1.2,1.3c0.9,0.9,1.9,1.4,3.1,1.3h4.4
	c0,0,0,0,0,0c0.4,0,0.8-0.3,1-0.7c0.3-0.5,0.3-1.1,0-1.7C30.4,14.9,30,14.4,29.6,14L29.6,14z M29.6,14"/>
</svg>
