<?xml version="1.0" encoding="utf-8"?>
<!-- Generator: Adobe Illustrator 20.0.0, SVG Export Plug-In . SVG Version: 6.00 Build 0)  -->
<svg version="1.1" id="Layer_1" xmlns="http://www.w3.org/2000/svg" xmlns:xlink="http://www.w3.org/1999/xlink" x="0px" y="0px"
	 viewBox="-2985.3 -1260.8 336.1 368.5" style="enable-background:new -2985.3 -1260.8 336.1 368.5;" xml:space="preserve">
<style type="text/css">
	.st0{fill:#CBAD47;}
	.st1{fill:url(#SVGID_1_);}
	.st2{fill:url(#SVGID_2_);}
	.st3{fill:#CCCCCC;}
</style>
<path class="st0" d="M-2875.2-1138.3v-18.1c0-9.6-7.8-17.4-17.4-17.4c-9.6,0-17.4,7.8-17.4,17.4v40.6c0,1.5,0.2,2.9,0.6,4.3
	L-2875.2-1138.3L-2875.2-1138.3z"/>
<path class="st0" d="M-2933.1-1093v-17.1c0-9.6-7.8-17.4-17.4-17.4s-17.4,7.8-17.4,17.4v40.6c0,1.2,0.1,2.4,0.4,3.5L-2933.1-1093
	L-2933.1-1093z"/>
<linearGradient id="SVGID_1_" gradientUnits="userSpaceOnUse" x1="-2752.5078" y1="-1128.089" x2="-2697.0205" y2="-1183.5764">
	<stop  offset="0" style="stop-color:#CBAD47"/>
	<stop  offset="1" style="stop-color:#AF913F"/>
</linearGradient>
<path class="st1" d="M-2759.3-1139.1v-18.1c0-9.6,7.8-17.4,17.4-17.4c9.6,0,17.4,7.8,17.4,17.4v40.6c0,1.5-0.2,2.9-0.6,4.3
	L-2759.3-1139.1L-2759.3-1139.1z"/>
<linearGradient id="SVGID_2_" gradientUnits="userSpaceOnUse" x1="-2697.3264" y1="-1071.4718" x2="-2640.667" y2="-1128.1312">
	<stop  offset="0" style="stop-color:#CBAD47"/>
	<stop  offset="1" style="stop-color:#AF913F"/>
</linearGradient>
<path class="st2" d="M-2698.2-1089.5v-17.5c0-9.8,8-17.8,17.8-17.8c9.8,0,17.8,8,17.8,17.8v41.4c0,1.2-0.1,2.4-0.4,3.6
	L-2698.2-1089.5L-2698.2-1089.5z"/>
<path class="st0" d="M-2832.9-1218.4c-2.3,2.3-2.3,5.9,0,8.2c2.3,2.3,5.9,2.3,8.2,0c2.8-2.8,5.3-4.3,7.5-4.3v-11.6
	C-2822.6-1226-2827.8-1223.5-2832.9-1218.4z"/>
<path class="st3" d="M-2649.6-1052.5l-132.9-104v-23.2c0-44.8-15.6-81.1-34.8-81.1c0,0,0,0,0,0c-19.2,0-34.8,36.3-34.8,81.1v23.2
	l-132.9,104c-0.2,0.2-0.4,0.5-0.4,0.8v27.2c0,0.7,0.6,1.1,1.3,1l133-32.6c0.5-0.1,0.9,0.3,0.8,0.7c-2.4,7.1,9.4,105.3,9.4,105.3
	s0.2,0.6,0,0.8l-39.8,39.8c-0.2,0.2-0.3,0.5-0.3,0.8v15.2c0,0.8,0.8,1.4,1.6,1.1l61.8-22.5c0.1,0,0.3-0.1,0.4-0.1
	c0.1,0,0.3,0,0.4,0.1l61.8,22.5c0.8,0.3,1.6-0.3,1.6-1.1v-15.2c0-0.3-0.1-0.6-0.3-0.8l-39.8-39.8c0-0.3,0-0.8,0-0.8
	s11.8-98.2,9.4-105.3c-0.2-0.5,0.3-0.9,0.8-0.7l133,32.6c0.6,0.2,1.3-0.3,1.3-1v-27.2C-2649.2-1052-2649.3-1052.3-2649.6-1052.5z
	 M-2801.6-1210.1c-2.3,2.2-6,2.2-8.2-0.1c-2.7-2.8-5.2-4.2-7.4-4.2c0,0,0,0-0.1,0c-2.1,0-4.7,1.5-7.5,4.3c-2.3,2.3-5.9,2.3-8.2,0
	c-2.3-2.3-2.3-5.9,0-8.2c5.1-5.2,10.3-7.7,15.7-7.7c0,0,0.1,0,0.1,0c5.4,0,10.6,2.6,15.6,7.7c1.1,1.1,1.7,2.6,1.7,4.1
	C-2799.9-1212.8-2800.4-1211.3-2801.6-1210.1z"/>
<path class="st0" d="M-2809.8-1210.2c2.2,2.3,5.9,2.3,8.2,0.1c1.2-1.1,1.7-2.6,1.7-4.1c0-1.5-0.6-2.9-1.7-4.1
	c-5-5.1-10.2-7.7-15.6-7.7c0,0-0.1,0-0.1,0v11.6c0,0,0,0,0.1,0C-2815-1214.4-2812.5-1213-2809.8-1210.2z"/>
</svg>
