<?xml version="1.0" encoding="utf-8"?>
<!-- Generator: Adobe Illustrator 20.0.0, SVG Export Plug-In . SVG Version: 6.00 Build 0)  -->
<svg version="1.1" id="Layer_1" xmlns="http://www.w3.org/2000/svg" xmlns:xlink="http://www.w3.org/1999/xlink" x="0px" y="0px"
	 viewBox="-1595.5 -1186.8 414.6 328.8" style="enable-background:new -1595.5 -1186.8 414.6 328.8;" xml:space="preserve">
<style type="text/css">
	.st0{fill:none;}
	.st1{fill:#CBAD47;}
	.st2{fill:#E50202;}
	.st3{fill:#C1C1C1;}
	.st4{fill:#363636;}
	.st5{fill:#CCCCCC;}
</style>
<g>
	<path class="st0" d="M-1283.8-936.2c0.1-0.1,0.2-0.2,0.3-0.2C-1283.6-936.3-1283.7-936.3-1283.8-936.2z"/>
	<path class="st0" d="M-1241.9-940c-5.4-2.4-11.3-3.8-17.6-3.8c-8.9,0-17.1,2.7-24,7.3c6.8-4.6,15.1-7.3,24-7.3
		C-1253.2-943.7-1247.3-942.4-1241.9-940z"/>
	<path class="st1" d="M-1338.1-986.6v-157.3h0v-22.3c0-11.3-9.2-20.5-20.5-20.5h-29.8v200.2H-1338.1z"/>
	<rect x="-1338.1" y="-1143.9" class="st2" width="0" height="157.3"/>
	<polygon class="st3" points="-1226.4,-1115.3 -1226.4,-1115.3 -1207.1,-1094.1 	"/>
	<path class="st1" d="M-1302.4-1110.2v75.5c0,2.8,2.3,5.1,5.1,5.1h116.4v-29.3c0-4.2-1.6-8.2-4.4-11.3l-21.8-24l-19.3-21.2h-70.9
		C-1300.1-1115.3-1302.4-1113-1302.4-1110.2z"/>
	<path class="st4" d="M-1283.8-936.2c-6.7,4.6-12,11.1-15.2,18.6C-1295.8-925.1-1290.5-931.6-1283.8-936.2z"/>
	<path class="st4" d="M-1241.9-940c14.9,6.7,25.3,21.7,25.3,39.1h0C-1216.6-918.3-1227-933.2-1241.9-940z"/>
	<path class="st4" d="M-1283.5-936.4C-1283.5-936.4-1283.5-936.4-1283.5-936.4C-1283.5-936.4-1283.5-936.4-1283.5-936.4z"/>
	<path class="st5" d="M-1223.8-986.6h42.9v-43c0,0,0,0,0,0v0.2h-116.4c-2.8,0-5.1-2.3-5.1-5.1v-75.5c0-2.8,2.3-5.1,5.1-5.1h70.9
		l-21-23.1c-3.2-3.5-7.7-5.5-12.4-5.5h-78.4l0,157.3h-50.4v85.8h50.4v0h8.1h27.6c0-5.9,1.2-11.6,3.4-16.7c3.2-7.6,8.5-14,15.2-18.6
		c0.1-0.1,0.2-0.2,0.3-0.2c0,0,0,0,0,0c6.8-4.6,15.1-7.3,24-7.3c6.3,0,12.2,1.4,17.6,3.8c14.9,6.7,25.3,21.7,25.3,39.1h35.7v-71.5
		h-42.9c-4,0-7.1-3.2-7.1-7.1C-1230.9-983.4-1227.7-986.6-1223.8-986.6z"/>
	<rect x="-1180.9" y="-986.6" class="st1" width="0" height="14.3"/>
	<path class="st1" d="M-1223.8-986.6c-4,0-7.1,3.2-7.1,7.1c0,4,3.2,7.1,7.1,7.1h42.9v-14.3H-1223.8z"/>
	<path class="st1" d="M-1574.9-1186.8c-11.3,0-20.5,9.2-20.5,20.5v72.4h78.6c3.9,0,7.1,3.2,7.1,7.1s-3.2,7.1-7.1,7.1h-78.6v21.4
		h107.2c3.9,0,7.1,3.2,7.1,7.1c0,4-3.2,7.1-7.1,7.1h-107.2v57.2h126.1h80.9v-200.2h-80.9H-1574.9z"/>
	<path class="st5" d="M-1469.4-986.6h-126.1v67.9c0,9.9,8,17.9,17.9,17.9h17.9c0-23.7,19.2-42.9,42.9-42.9
		c23.7,0,42.9,19.2,42.9,42.9h85.4v-85.8H-1469.4z"/>
	<path class="st5" d="M-1481.1-1051c0-4-3.2-7.1-7.1-7.1h-107.2v14.3h107.2C-1484.3-1043.8-1481.1-1047-1481.1-1051z"/>
	<path class="st5" d="M-1509.7-1086.7c0-4-3.2-7.1-7.1-7.1h-78.6v14.3h78.6C-1512.9-1079.6-1509.7-1082.8-1509.7-1086.7z"/>
	<g>
		<path class="st1" d="M-1273.8-900.9c0-7.9,6.4-14.3,14.3-14.3v-28.6c-8.9,0-17.1,2.7-24,7.3c0,0,0,0,0,0c-0.1,0.1-0.2,0.2-0.3,0.2
			c-6.7,4.6-12,11.1-15.2,18.6c-2.2,5.1-3.4,10.8-3.4,16.7c0,23.7,19.2,42.9,42.9,42.9v-28.6C-1267.4-886.6-1273.8-893-1273.8-900.9
			z"/>
		<path class="st1" d="M-1216.6-900.9C-1216.6-900.9-1216.6-900.9-1216.6-900.9L-1216.6-900.9c0-17.4-10.4-32.4-25.3-39.1
			c-5.4-2.4-11.3-3.8-17.6-3.8h0v28.6h0c7.9,0,14.3,6.4,14.3,14.3c0,7.9-6.4,14.3-14.3,14.3h0v28.6h0
			C-1235.8-858-1216.6-877.2-1216.6-900.9z"/>
		<path class="st5" d="M-1259.5-915.1L-1259.5-915.1c-7.9,0-14.3,6.4-14.3,14.3c0,7.9,6.4,14.3,14.3,14.3h0
			c7.9,0,14.3-6.4,14.3-14.3S-1251.6-915.1-1259.5-915.1z"/>
	</g>
	<g>
		<path class="st1" d="M-1516.8-886.6c-7.9,0-14.3-6.4-14.3-14.3c0-7.9,6.4-14.3,14.3-14.3c0.3,0,0.6,0,0.9,0v-28.6
			c-0.3,0-0.6,0-0.9,0c-23.7,0-42.9,19.2-42.9,42.9c0,23.7,19.2,42.9,42.9,42.9c0.3,0,0.6,0,0.9,0v-28.6
			C-1516.3-886.6-1516.6-886.6-1516.8-886.6z"/>
		<path class="st1" d="M-1474-900.9c0-23.4-18.7-42.4-42-42.9v28.6c7.5,0.5,13.4,6.6,13.4,14.3c0,7.6-5.9,13.8-13.4,14.3v28.6
			C-1492.7-858.5-1474-877.5-1474-900.9z"/>
		<path class="st5" d="M-1516-915.1c-0.3,0-0.6,0-0.9,0c-7.9,0-14.3,6.4-14.3,14.3s6.4,14.3,14.3,14.3c0.3,0,0.6,0,0.9,0
			c7.5-0.5,13.4-6.6,13.4-14.3C-1502.6-908.5-1508.5-914.6-1516-915.1z"/>
	</g>
</g>
</svg>
