<?xml version="1.0" encoding="utf-8"?>
<!-- Generator: Adobe Illustrator 20.0.0, SVG Export Plug-In . SVG Version: 6.00 Build 0)  -->
<svg version="1.1" id="Layer_1" xmlns="http://www.w3.org/2000/svg" xmlns:xlink="http://www.w3.org/1999/xlink" x="0px" y="0px"
	 viewBox="-1278.8 -1162.2 272.4 368.5" style="enable-background:new -1278.8 -1162.2 272.4 368.5;" xml:space="preserve">
<style type="text/css">
	.st0{fill:#E50202;}
	.st1{fill:#C1C1C1;}
	.st2{fill:#CBAD47;}
	.st3{fill:#363636;}
	.st4{fill:url(#SVGID_1_);}
	.st5{fill:url(#SVGID_2_);}
	.st6{fill:#565656;}
	.st7{fill:url(#SVGID_3_);}
	.st8{fill:url(#SVGID_4_);}
	.st9{fill:url(#SVGID_5_);}
	.st10{fill:#262626;}
</style>
<g>
	<path class="st0" d="M-1144.9-833.6v-85.7h-117.9v64.3c0,11.8,9.6,21.4,21.4,21.4h28.6h14.3H-1144.9z M-1219.9-862.2
		c-7.9,0-14.3-6.4-14.3-14.3c0-7.9,6.4-14.3,14.3-14.3c7.9,0,14.3,6.4,14.3,14.3C-1205.6-868.6-1212-862.2-1219.9-862.2z"/>
	<path class="st0" d="M-1144.9-1062.2h-53.6v-28.6h53.6v-28.6h-53.6h-42.9c-11.8,0-21.4,9.6-21.4,21.4v64.3h117.9V-1062.2z"/>
	<rect x="-1262.7" y="-1033.7" class="st1" width="117.9" height="114.3"/>
	<polygon class="st2" points="-1144.9,-1162.2 -1184.1,-1162.2 -1198.4,-1119.4 -1144.9,-1119.4 	"/>
	<circle class="st2" cx="-1219.9" cy="-876.5" r="14.3"/>
	<rect x="-1198.4" y="-1090.8" class="st2" width="53.6" height="28.6"/>
	<polygon class="st3" points="-1260.9,-820.4 -1278.8,-806.1 -1144.9,-806.1 -1144.9,-820.4 	"/>
	<polygon class="st3" points="-1221,-833.6 -1245.7,-793.7 -1231.4,-793.7 -1206.7,-833.6 	"/>
	<linearGradient id="SVGID_1_" gradientUnits="userSpaceOnUse" x1="-1076.4844" y1="-892.1832" x2="-1147.4296" y2="-821.2379">
		<stop  offset="0" style="stop-color:#E50202"/>
		<stop  offset="1" style="stop-color:#BF0404"/>
	</linearGradient>
	<path class="st4" d="M-1144.9-833.6h53.6h14.3h28.6c11.8,0,21.4-9.6,21.4-21.4v-64.3h-117.9V-833.6z M-1069.8-890.8
		c7.9,0,14.3,6.4,14.3,14.3c0,7.9-6.4,14.3-14.3,14.3s-14.3-6.4-14.3-14.3C-1084.1-884.4-1077.7-890.8-1069.8-890.8z"/>
	<linearGradient id="SVGID_2_" gradientUnits="userSpaceOnUse" x1="-1075.5107" y1="-1059.8378" x2="-1145.6888" y2="-1130.0159">
		<stop  offset="0" style="stop-color:#E50202"/>
		<stop  offset="1" style="stop-color:#BF0404"/>
	</linearGradient>
	<path class="st5" d="M-1144.9-1090.8h53.6v28.6h-53.6v28.6h117.9v-64.3c0-11.8-9.6-21.4-21.4-21.4h-42.9h-53.6V-1090.8z"/>
	<rect x="-1144.9" y="-1033.7" class="st6" width="117.9" height="114.3"/>
	<linearGradient id="SVGID_3_" gradientUnits="userSpaceOnUse" x1="-1084.7983" y1="-1140.8163" x2="-1145.4449" y2="-1140.8163">
		<stop  offset="0" style="stop-color:#CBAD47"/>
		<stop  offset="1" style="stop-color:#AF913F"/>
	</linearGradient>
	<polygon class="st7" points="-1091.3,-1119.4 -1105.6,-1162.2 -1144.9,-1162.2 -1144.9,-1119.4 	"/>
	<linearGradient id="SVGID_4_" gradientUnits="userSpaceOnUse" x1="-1084.7983" y1="-876.4766" x2="-1145.4449" y2="-876.4766">
		<stop  offset="0" style="stop-color:#CBAD47"/>
		<stop  offset="1" style="stop-color:#AF913F"/>
	</linearGradient>
	<circle class="st8" cx="-1069.8" cy="-876.5" r="14.3"/>
	<linearGradient id="SVGID_5_" gradientUnits="userSpaceOnUse" x1="-1084.7983" y1="-1076.5172" x2="-1145.4449" y2="-1076.5172">
		<stop  offset="0" style="stop-color:#CBAD47"/>
		<stop  offset="1" style="stop-color:#AF913F"/>
	</linearGradient>
	<rect x="-1144.9" y="-1090.8" class="st9" width="53.6" height="28.6"/>
	<polygon class="st10" points="-1026.1,-820.4 -1144.9,-820.4 -1144.9,-806.1 -1006.4,-806.1 	"/>
	<polygon class="st10" points="-1068.8,-833.6 -1083,-833.6 -1058.3,-793.7 -1044.1,-793.7 	"/>
</g>
</svg>
