<?xml version="1.0" encoding="utf-8"?>
<!-- Generator: Adobe Illustrator 20.0.0, SVG Export Plug-In . SVG Version: 6.00 Build 0)  -->
<svg version="1.1" id="Layer_1" xmlns="http://www.w3.org/2000/svg" xmlns:xlink="http://www.w3.org/1999/xlink" x="0px" y="0px"
	 viewBox="-2240.9 -1184.7 514.1 297.6" style="enable-background:new -2240.9 -1184.7 514.1 297.6;" xml:space="preserve">
<style type="text/css">
	.st0{fill:#E50202;}
	.st1{fill:#CBAD47;}
	.st2{fill:#363636;}
	.st3{fill:#C1C1C1;}
	.st4{fill:url(#SVGID_1_);}
	.st5{fill:url(#SVGID_2_);}
	.st6{fill:#262626;}
	.st7{fill:#565656;}
	.st8{fill:url(#SVGID_3_);}
	.st9{fill:url(#SVGID_4_);}
</style>
<g>
	<path class="st0" d="M-2200.5-923.2c-4.8-5.7-9.1-11.8-12.9-18h233.9v-27.1h-247.2c-2.5-6.3-4.6-12.3-6.3-18h253.5v-36.1h-144.2
		h-117.3c0,0,14.7,135.3,117.3,135.3h144.2v-36.1H-2200.5z"/>
	<path class="st1" d="M-1979.5-1049.1C-1979.5-1049.1-1979.5-1049.1-1979.5-1049.1c-5.1,0-9.2-4.1-9.2-9.2s4.1-9.2,9.2-9.2
		c0,0,0,0,0,0v-27.1h-26.9h-54.1h-32.7c-16.8,0-30.4,10.2-30.4,27.1v45.1h144.2V-1049.1z M-2024.6-1049.1c-5.1,0-9.2-4.1-9.2-9.2
		s4.1-9.2,9.2-9.2c5.1,0,9.2,4.1,9.2,9.2S-2019.5-1049.1-2024.6-1049.1z"/>
	<path class="st2" d="M-2006.4-1172.3c0-6.8-5.6-12.4-12.4-12.4h-29.3c-6.8,0-12.4,5.6-12.4,12.4v77.8h54.1V-1172.3z"/>
	<path class="st3" d="M-2024.6-1067.5c-5.1,0-9.2,4.1-9.2,9.2s4.1,9.2,9.2,9.2c5.1,0,9.2-4.1,9.2-9.2S-2019.5-1067.5-2024.6-1067.5z
		"/>
	<path class="st3" d="M-1979.5-1067.5c-5.1,0-9.2,4.1-9.2,9.2s4.1,9.2,9.2,9.2c0,0,0,0,0,0L-1979.5-1067.5
		C-1979.5-1067.5-1979.5-1067.5-1979.5-1067.5z"/>
	<path class="st1" d="M-2226.7-968.3h247.2v-18H-2233C-2231.3-980.6-2229.2-974.5-2226.7-968.3z"/>
	<path class="st1" d="M-2200.5-923.2h221v-18h-233.9C-2209.6-934.9-2205.3-928.9-2200.5-923.2z"/>
	<linearGradient id="SVGID_1_" gradientUnits="userSpaceOnUse" x1="-1864.5481" y1="-974.2747" x2="-1913.6831" y2="-860.7963">
		<stop  offset="0" style="stop-color:#E50202"/>
		<stop  offset="1" style="stop-color:#BF0404"/>
	</linearGradient>
	<path class="st4" d="M-1762.9-950.2c19.8,0,36.1-16.2,36.1-36.1c0-19.8-16.2-36.1-36.1-36.1h-72.2h-144.4v36.1h54.3c5,0,9,4,9,9
		c0,5-4,9-9,9h-54.3v27.1h90.3c5,0,9,4,9,9c0,5-4,9-9,9h-90.3v36.1h153.7C-1825.8-887.1-1833.3-950.2-1762.9-950.2z"/>
	<linearGradient id="SVGID_2_" gradientUnits="userSpaceOnUse" x1="-1907.1556" y1="-1046.9592" x2="-1928.6973" y2="-1110.6475">
		<stop  offset="0" style="stop-color:#CBAD47"/>
		<stop  offset="1" style="stop-color:#AF913F"/>
	</linearGradient>
	<path class="st5" d="M-1970.3-1058.3c0,5.1-4.1,9.2-9.2,9.2v26.8h144.4v-45.1c0-16.8-13.6-27.1-30.4-27.1h-32.7h-54.1h-27.2v27.1
		C-1974.4-1067.5-1970.3-1063.4-1970.3-1058.3z M-1934.4-1067.5c5.1,0,9.2,4.1,9.2,9.2s-4.1,9.2-9.2,9.2c-5.1,0-9.2-4.1-9.2-9.2
		S-1939.4-1067.5-1934.4-1067.5z"/>
	<path class="st6" d="M-1898.2-1172.3c0-6.8-5.6-12.4-12.4-12.4h-29.3c-6.8,0-12.4,5.6-12.4,12.4v77.8h54.1V-1172.3z"/>
	<path class="st7" d="M-1970.3-1058.3c0-5.1-4.1-9.2-9.2-9.2v18.3C-1974.4-1049.1-1970.3-1053.2-1970.3-1058.3z"/>
	<path class="st7" d="M-1934.4-1049.1c5.1,0,9.2-4.1,9.2-9.2s-4.1-9.2-9.2-9.2c-5.1,0-9.2,4.1-9.2,9.2S-1939.4-1049.1-1934.4-1049.1
		z"/>
	<linearGradient id="SVGID_3_" gradientUnits="userSpaceOnUse" x1="-1884.5424" y1="-977.2734" x2="-1980.0942" y2="-977.2734">
		<stop  offset="0" style="stop-color:#CBAD47"/>
		<stop  offset="1" style="stop-color:#AF913F"/>
	</linearGradient>
	<path class="st8" d="M-1925.2-968.3c5,0,9-4,9-9c0-5-4-9-9-9h-54.3v18H-1925.2z"/>
	<linearGradient id="SVGID_4_" gradientUnits="userSpaceOnUse" x1="-1884.5424" y1="-932.177" x2="-1980.0942" y2="-932.177">
		<stop  offset="0" style="stop-color:#CBAD47"/>
		<stop  offset="1" style="stop-color:#AF913F"/>
	</linearGradient>
	<path class="st9" d="M-1889.2-923.2c5,0,9-4,9-9c0-5-4-9-9-9h-90.3v18H-1889.2z"/>
</g>
</svg>
