<?xml version="1.0" encoding="utf-8"?>
<!-- Generator: Adobe Illustrator 20.0.0, SVG Export Plug-In . SVG Version: 6.00 Build 0)  -->
<svg version="1.1" id="Layer_1" xmlns="http://www.w3.org/2000/svg" xmlns:xlink="http://www.w3.org/1999/xlink" x="0px" y="0px"
	 viewBox="-1278.8 -1162.2 272.4 368.5" style="enable-background:new -1278.8 -1162.2 272.4 368.5;" xml:space="preserve">
<style type="text/css">
	.st0{fill:#CBAD47;}
	.st1{fill:#CCCCCC;}
	.st2{fill:#F2F2F2;}
</style>
<g>
	<circle class="st0" cx="-1219.9" cy="-876.5" r="14.3"/>
	<polygon class="st0" points="-1221,-833.6 -1245.7,-793.7 -1231.4,-793.7 -1206.7,-833.6 	"/>
	<path class="st1" d="M-1144.9-919.3h-117.9v64.3c0,11.8,9.6,21.4,21.4,21.4h28.6h14.3h53.6h53.6h14.3h28.6
		c11.8,0,21.4-9.6,21.4-21.4v-64.3H-1144.9z M-1219.9-862.2c-7.9,0-14.3-6.4-14.3-14.3c0-7.9,6.4-14.3,14.3-14.3
		c7.9,0,14.3,6.4,14.3,14.3C-1205.6-868.6-1212-862.2-1219.9-862.2z M-1069.8-862.2c-7.9,0-14.3-6.4-14.3-14.3
		c0-7.9,6.4-14.3,14.3-14.3c7.9,0,14.3,6.4,14.3,14.3C-1055.5-868.6-1061.9-862.2-1069.8-862.2z"/>
	<path class="st1" d="M-1048.4-1119.4h-42.9h-53.6h-53.6h-42.9c-11.8,0-21.4,9.6-21.4,21.4v64.3h117.9h117.9v-64.3
		C-1027-1109.8-1036.6-1119.4-1048.4-1119.4z M-1091.3-1062.2h-53.6h-53.6v-28.6h53.6h53.6V-1062.2z"/>
	<polygon class="st2" points="-1144.9,-1033.7 -1262.7,-1033.7 -1262.7,-919.3 -1144.9,-919.3 -1027,-919.3 -1027,-1033.7 	"/>
	<polygon class="st0" points="-1105.6,-1162.2 -1144.9,-1162.2 -1184.1,-1162.2 -1198.4,-1119.4 -1144.9,-1119.4 -1091.3,-1119.4 	
		"/>
	<circle class="st0" cx="-1069.8" cy="-876.5" r="14.3"/>
	<polygon class="st0" points="-1144.9,-1090.8 -1198.4,-1090.8 -1198.4,-1062.2 -1144.9,-1062.2 -1091.3,-1062.2 -1091.3,-1090.8 	
		"/>
	<polygon class="st0" points="-1006.4,-806.1 -1026.1,-820.4 -1060.6,-820.4 -1068.8,-833.6 -1083,-833.6 -1074.9,-820.4 
		-1144.9,-820.4 -1260.9,-820.4 -1278.8,-806.1 -1144.9,-806.1 -1066,-806.1 -1058.3,-793.7 -1044.1,-793.7 -1051.7,-806.1 	"/>
</g>
</svg>
