<?xml version="1.0" encoding="utf-8"?>
<!-- Generator: Adobe Illustrator 20.0.0, SVG Export Plug-In . SVG Version: 6.00 Build 0)  -->
<svg version="1.1" id="Layer_1" xmlns="http://www.w3.org/2000/svg" xmlns:xlink="http://www.w3.org/1999/xlink" x="0px" y="0px"
	 viewBox="-377 -1578.5 50 50" style="enable-background:new -377 -1578.5 50 50;" xml:space="preserve">
<style type="text/css">
	.st0{fill:#FFFFFF;}
</style>
<path class="st0" d="M-337-1578.5h-30c-5.5,0-10,4.5-10,10v30c0,5.5,4.5,10,10,10h30c5.5,0,10-4.5,10-10v-30
	C-327-1574-331.5-1578.5-337-1578.5z M-339.1-1560.4c-0.9,1.6-2,2.2-2.4,2.5c0.7,3.2-0.1,6.7-2.4,9.7c-2.6,3.3-6.5,5.3-10.5,5.3h0
	c-3.6,0-7.2-1.6-10.4-4.6c-0.1-0.1-0.1-0.2-0.1-0.3c0.1-0.1,0.2-0.2,0.3-0.2c0.7,0.1,1.4,0.1,2.1,0.1h0c2.4,0,4.3-0.6,5.5-1.8
	c0.6-0.5,0.9-1.1,1-1.4c-1.1-0.1-3.6-0.7-4.7-2.1c-0.2-0.3-0.1-0.5-0.1-0.7c0.2-0.3,0.7-0.5,1.3-0.6c-0.8-0.3-1.7-0.7-2.4-1.5
	c-0.5-0.5-0.5-1-0.4-1.2c0.2-0.6,1-0.9,1.6-1.1c-1.2-0.5-3.2-1.6-4-3.5c0-0.1,0-0.2,0-0.3c0-0.1,0.1-0.1,0.2-0.1c0.4,0,0.8,0,1.2,0
	c4.2,0,7,1,8.7,1.9c1.1,0.6,1.8,1.1,2.2,1.5c0.1-0.5,0.2-1.3,0.6-2.1c0.6-1.3,1.9-2.8,4.5-3c0.1,0,0.2,0,0.4,0
	c2.1,0,3.4,1.7,3.7,2.3c0.5-0.1,1.9-0.5,2.8-1.2c0.1-0.1,0.2-0.1,0.3,0c0.1,0,0.2,0.1,0.2,0.2c0,1-0.7,1.9-1.4,2.4
	c0.5-0.1,1.2-0.2,1.6-0.6c0.1-0.1,0.2-0.1,0.3,0C-339.1-1560.7-339-1560.5-339.1-1560.4z"/>
</svg>
