<?xml version="1.0" encoding="utf-8"?>
<!-- Generator: Adobe Illustrator 20.0.0, SVG Export Plug-In . SVG Version: 6.00 Build 0)  -->
<svg version="1.1" id="Layer_1" xmlns="http://www.w3.org/2000/svg" xmlns:xlink="http://www.w3.org/1999/xlink" x="0px" y="0px"
	 viewBox="-377 -1578.5 50 50" style="enable-background:new -377 -1578.5 50 50;" xml:space="preserve">
<style type="text/css">
	.st0{fill:#FFFFFF;}
</style>
<path class="st0" d="M-337-1578.5h-30c-5.5,0-10,4.5-10,10v30c0,5.5,4.5,10,10,10h30c5.5,0,10-4.5,10-10v-30
	C-327-1574-331.5-1578.5-337-1578.5z M-341.8-1551.4c0.3,0.3,0.5,0.5,0.8,0.8c0.7,0.7,1.5,1.4,2.2,2.2c0.4,0.4,0.8,1,1.1,1.6
	c0.3,0.6,0.3,1.2,0,1.7c-0.2,0.4-0.6,0.6-1,0.7c0,0,0,0,0,0h-4.4c-1.2,0.1-2.2-0.3-3.1-1.3c-0.4-0.4-0.8-0.9-1.2-1.3
	c-0.2-0.2-0.4-0.4-0.5-0.6c-0.2-0.2-0.4-0.5-0.7-0.6c-0.2-0.1-0.3-0.2-0.4-0.2c-0.1,0-0.2,0-0.4,0.4c-0.3,0.6-0.4,1.2-0.4,1.9
	c-0.1,1.2-0.5,1.7-1.8,1.8c-0.3,0-0.5,0-0.8,0c-2.2,0-4.1-0.5-5.7-1.4c-1.6-0.9-3-2.2-4.4-4.1c-2-2.7-3.7-5.8-5.6-10
	c-0.2-0.5-0.3-1,0-1.3c0.2-0.3,0.6-0.5,1.2-0.5c0.7,0,1.4,0,2.1,0c0.7,0,1.4,0,2.2,0c0.7,0,1.3,0.4,1.6,1.2c0.8,2,1.7,3.7,2.9,5.3
	c0.3,0.5,0.6,0.8,1,1.1c0.2,0.1,0.3,0.1,0.3,0.1c0.1,0,0.2-0.2,0.2-0.3c0.1-0.3,0.2-0.6,0.2-1c0.1-1.5,0.1-2.7-0.1-3.9
	c-0.1-0.7-0.4-1-1.1-1.2c-0.1,0-0.5-0.1-0.6-0.4c-0.1-0.3,0.1-0.6,0.2-0.7c0.4-0.5,0.9-0.8,1.7-0.8h5c0,0,0.1,0,0.1,0
	c1,0.2,1.3,0.8,1.4,1.7c0,0,0,0,0,0.1l0,5.5c0,0,0,0,0,0c0,0.3,0.2,0.9,0.4,1c0,0,0,0,0.1,0c0.1,0,0.3-0.2,0.4-0.3l0.1-0.1
	c1.2-1.3,2.1-2.8,2.7-4.2c0.3-0.7,0.6-1.4,0.9-2.1c0.3-0.7,0.8-1,1.5-1l0,0l4.8,0c0.2,0,0.3,0,0.5,0c0.3,0.1,0.8,0.2,1.1,0.6
	c0.2,0.4,0.1,0.9,0,1.2c-0.4,1.3-1.2,2.3-1.9,3.3l-0.1,0.1c-0.4,0.5-0.8,1.1-1.2,1.6c-0.4,0.6-0.9,1.1-1.3,1.7
	C-342.6-1552.4-342.6-1552.2-341.8-1551.4z"/>
</svg>
