<?xml version="1.0" encoding="utf-8"?>
<!-- Generator: Adobe Illustrator 20.0.0, SVG Export Plug-In . SVG Version: 6.00 Build 0)  -->
<svg version="1.1" id="Слой_1" xmlns="http://www.w3.org/2000/svg" xmlns:xlink="http://www.w3.org/1999/xlink" x="0px" y="0px"
	 viewBox="0 0 54.9 61" style="enable-background:new 0 0 54.9 61;" xml:space="preserve">
<style type="text/css">
	.st0{fill:#CDAF39;}
</style>
<path class="st0" d="M45.7,22.4C45.7,22.4,45.7,22.4,45.7,22.4h-4.5L31.1,5.3l20.2,17.1H45.7L45.7,22.4z M39.5,34.6
	c0.1-0.4,0.1-0.7,0.1-1.1v-9.1h1.1c0,0,0,0,0,0c0,0,0,0,0,0h3.9C44,28.3,42.2,31.8,39.5,34.6L39.5,34.6z M34.6,43.9l-7.2,4.8
	l-7.2-4.8v-3.3l1.5,1.1c0.9,0.6,1.9,0.9,2.9,0.9h1.8v3.1c0,0.5,0.4,1,1,1c0.5,0,1-0.4,1-1v-3.1h1.8c1.1,0,2.1-0.3,2.9-0.9l1.5-1.1
	V43.9L34.6,43.9z M32.4,52.5C32.4,52.5,32.4,52.5,32.4,52.5C32.3,52.5,32.3,52.5,32.4,52.5l-3.3-2.6l7.4-4.9c0,0,0.1,0,0.1,0
	l0.9,0.9L32.4,52.5L32.4,52.5z M48.1,49.2l-5.2,5.2c-0.8,0.8-1.2,1.8-1.2,2.8v1.9H13.1v-1.9c0-1.1-0.4-2.1-1.2-2.8l-5.2-5.2
	C6.9,49.1,7.1,49,7.3,49l8.5-2.1l5.1,6.8c0.3,0.4,0.8,0.7,1.3,0.8c0.1,0,0.2,0,0.3,0c0.4,0,0.9-0.1,1.2-0.4l2.7-2.2V56
	c0,0.5,0.4,1,1,1c0.5,0,1-0.4,1-1v-4.1l2.7,2.2c0.4,0.3,0.8,0.4,1.2,0.4c0.1,0,0.2,0,0.3,0c0.5-0.1,1-0.3,1.3-0.8l5.1-6.8l8.5,2.1
	C47.8,49,48,49.1,48.1,49.2L48.1,49.2z M49.9,58c0,0.6-0.5,1.1-1.1,1.1h-5.2v-1.9c0-0.6,0.2-1.1,0.6-1.5l5.2-5.2
	c0.2,0.4,0.4,1,0.4,1.5V58L49.9,58z M5,58v-6c0-0.5,0.1-1.1,0.4-1.5l5.2,5.2c0.4,0.4,0.6,0.9,0.6,1.5v1.9H6C5.5,59.1,5,58.6,5,58
	L5,58z M18.4,45C18.4,45,18.4,45,18.4,45l7.5,4.9l-3.3,2.6c0,0,0,0,0,0c0,0,0,0,0,0l-5-6.6L18.4,45L18.4,45z M10.3,24.3h5v9.1
	c0,0.4,0,0.7,0.1,1.1C12.7,31.8,10.9,28.3,10.3,24.3L10.3,24.3z M23.7,5.3L13.7,22.4H9.2c0,0,0,0,0,0H3.6L23.7,5.3L23.7,5.3z
	 M15.9,22.4l10.6-18v18H15.9L15.9,22.4z M37.7,33.5c0,1.7-0.8,3.2-2.2,4.2L32,40.2c-0.5,0.4-1.2,0.6-1.8,0.6h-5.5
	c-0.7,0-1.3-0.2-1.8-0.6l-3.5-2.5c-1.4-1-2.2-2.5-2.2-4.2v-9.1h20.5V33.5L37.7,33.5L37.7,33.5z M28.4,22.4v-18l10.6,18H28.4
	L28.4,22.4z M54.5,22.6L28.1,0.2c-0.4-0.3-0.9-0.3-1.2,0L0.3,22.6c-0.3,0.3-0.4,0.7-0.3,1.1c0.1,0.4,0.5,0.6,0.9,0.6h7.4
	C9.2,30.5,12.7,35.9,18,39c0,0,0,0,0,0c0.1,0.1,0.2,0.1,0.2,0.2l0.1,0.1v3.8c-0.5,0-1,0.2-1.3,0.6l-1.3,1.3l-8.9,2.2
	c-2.2,0.6-3.8,2.6-3.8,4.9v6c0,1.7,1.3,3,3,3h42.8c1.7,0,3-1.3,3-3v-6c0-2.3-1.6-4.3-3.8-4.9l-8.9-2.2l-1.3-1.3
	c-0.4-0.4-0.8-0.6-1.3-0.6v-3.8l0.1-0.1c0.1-0.1,0.1-0.1,0.2-0.2c0,0,0,0,0,0c5.3-3.1,8.8-8.6,9.7-14.7h7.4c0.4,0,0.8-0.3,0.9-0.6
	C55,23.3,54.9,22.9,54.5,22.6L54.5,22.6z"/>
</svg>
