<?xml version="1.0" encoding="utf-8"?>
<!-- Generator: Adobe Illustrator 20.0.0, SVG Export Plug-In . SVG Version: 6.00 Build 0)  -->
<svg version="1.1" id="Слой_1" xmlns="http://www.w3.org/2000/svg" xmlns:xlink="http://www.w3.org/1999/xlink" x="0px" y="0px"
	 viewBox="0 0 55.2 56" style="enable-background:new 0 0 55.2 56;" xml:space="preserve">
<style type="text/css">
	.st0{fill:#CDAF39;}
</style>
<path class="st0" d="M38.6,50.7c-0.9-0.9-2.2-1.4-3.5-1.4c-1.3,0-2.6,0.5-3.5,1.4c-0.9-0.9-2.2-1.4-3.5-1.4s-2.6,0.5-3.5,1.4
	c-0.9-0.9-2.2-1.4-3.5-1.4c-1.3,0-2.6,0.5-3.5,1.4c-0.9-0.9-2.2-1.4-3.5-1.4s-2.6,0.5-3.5,1.4c-0.7-0.7-1.6-1.2-2.6-1.4
	c0,0-0.1-0.1-0.1-0.1c-1-0.9-1.9-1.9-2.6-3h7.1c0.5,0,0.8-0.4,0.8-0.8s-0.4-0.8-0.8-0.8H4.2c-0.1-0.2-0.2-0.4-0.2-0.7l-2.3-6.7
	c0-0.1,0-0.2,0-0.2l2.6-3.4c0-0.1,0.1-0.1,0.2-0.1h2.1c0.1,0,0.1,0,0.2,0.1l2.4,2.9c1.8,2.1,4.4,3.4,7.2,3.4h13
	c2.3,0,4.6-0.9,6.3-2.5l2.5-2.3l4.7-0.2c0.6,0,1.1-0.3,1.5-0.8c0.3-0.5,0.5-1.1,0.3-1.6L44,29.8c0,0,0-0.1,0-0.1l2.7-2.5
	c0,0,0.1-0.1,0.2-0.1H51l0,1.4c0,0.9-0.5,1.7-1.4,2.1c-0.4,0.2-0.7,0.6-0.9,1l-5.1,12.8c0,0,0,0.1,0,0.1H15.2
	c-0.5,0-0.8,0.4-0.8,0.8s0.4,0.8,0.8,0.8h27.7c-0.5,1.1-1.3,2.3-2.2,3.2c0,0,0,0,0,0.1C39.9,49.7,39.2,50.1,38.6,50.7L38.6,50.7z
	 M23.9,35.6l1.5-0.1v2.7h-1.5V35.6L23.9,35.6z M35.6,35.2l-1.1,1c-1.4,1.3-3.3,2-5.2,2h-2.2v-2.7L35.6,35.2L35.6,35.2z M14.4,34.3
	c-0.1,0-0.2-0.1-0.2-0.1c0,0-0.1-0.1,0-0.2l0.1-0.4c0.1-0.4,0.1-0.8,0-1.1l-0.3-1l29.2-4.9l-0.7,2.7c-0.1,0.3-0.1,0.6,0,1l0.7,2.7
	c0,0.1,0,0.2,0,0.2c0,0-0.1,0.1-0.2,0.1L14.4,34.3L14.4,34.3z M14,17.1L35.2,1.7c0.1,0,0.1-0.1,0.2-0.1c0,0,0.1,0,0.1,0
	c0,0,0.1,0,0.2,0.2l1.2,2.7c0.1,0.2,0.2,0.4,0.4,0.5l3.2,3.3l-5.5,2.4c-0.4,0.2-0.6,0.7-0.4,1.1c0.1,0.3,0.4,0.5,0.8,0.5
	c0.1,0,0.2,0,0.3-0.1l5.5-2.4l0.2,3.2c0,0.3,0.1,0.6,0.3,0.9l1.5,2.7l-28.9,8l0.2-0.5c0.1-0.4,0.1-0.8,0-1.1l-0.4-1.2l18.7-8.2
	c0.4-0.2,0.6-0.7,0.4-1.1c-0.2-0.4-0.7-0.6-1.1-0.4l-17.8,7.8l0.1-0.4c0.1-0.4,0.1-0.8,0-1.2l-0.3-0.9C13.9,17.3,13.9,17.2,14,17.1
	L14,17.1z M23.9,1.9c0-0.1,0.1-0.2,0.2-0.2h1.1c0.1,0,0.2,0.1,0.2,0.2v4.9l-1.5,1.1V1.9L23.9,1.9L23.9,1.9z M14.3,27.5l-0.3-1.1
	l29.1-8.1l-0.6,2.2c-0.1,0.3-0.1,0.7,0,1l0.8,3.5L14,29.8l0.3-1.3C14.4,28.1,14.4,27.8,14.3,27.5L14.3,27.5z M50.3,32.3
	c0-0.1,0.1-0.1,0.1-0.1c1.4-0.7,2.2-2,2.3-3.6l0-2l2.3-2.4c0.3-0.3,0.3-0.8,0-1.2c-0.3-0.3-0.8-0.3-1.2,0l-2.3,2.4h-4.6
	c-0.5,0-0.9,0.2-1.3,0.5l-0.8,0.7L45,26c0.1-0.3,0.1-0.6,0-0.9l-1-4c0,0,0-0.1,0-0.1l0.9-3.1c0.1-0.5,0.1-1-0.2-1.5l-1.8-3.2
	c0,0,0-0.1,0-0.1l-0.2-3.9c0-0.5-0.2-0.9-0.5-1.2L38.4,4c0,0,0,0-0.1-0.1l-1.2-2.7c-0.2-0.5-0.7-0.9-1.3-1.1c-0.6-0.1-1.2,0-1.6,0.3
	l-7.1,5.2V1.9c0-1-0.8-1.9-1.9-1.9h-1.1c-1,0-1.9,0.8-1.9,1.9v7.2l-9.2,6.7c-0.7,0.5-1,1.4-0.7,2.2l0.3,0.9c0,0.1,0,0.1,0,0.2
	l-0.5,1.7c-0.1,0.4-0.1,0.7,0,1.1l0.5,1.6c0,0.1,0,0.1,0,0.2l-0.5,1.6c-0.1,0.4-0.1,0.8,0,1.1l0.5,1.6c0,0,0,0.1,0,0.1l-0.5,2.3
	c-0.1,0.3-0.1,0.7,0,1l0.5,1.6c0,0.1,0,0.1,0,0.2l-0.1,0.4c-0.2,0.6-0.1,1.2,0.3,1.7c0.4,0.5,0.9,0.8,1.5,0.8c0,0,0,0,0.1,0l7.8-0.3
	v2.5h-5.9c-2.3,0-4.4-1-5.9-2.8L8,32.5c-0.4-0.4-0.9-0.7-1.4-0.7H4.5c-0.6,0-1.1,0.3-1.5,0.7L0.4,36c-0.4,0.5-0.5,1.2-0.3,1.8
	l2.3,6.7c0.6,1.9,1.7,3.6,3,5C3.3,50,1.7,52,1.7,54.3c0,0.3,0,0.7,0.1,1C1.9,55.7,2.2,56,2.6,56h37.3c0.5,0,0.8-0.4,0.8-0.8
	c0-0.5-0.4-0.8-0.8-0.8H3.3c0,0,0,0,0,0c0-1.9,1.5-3.4,3.4-3.4c1.1,0,2.2,0.6,2.9,1.5c0.2,0.2,0.4,0.4,0.7,0.4
	c0.3,0,0.5-0.1,0.7-0.4c0.6-1,1.7-1.5,2.9-1.5c1.1,0,2.2,0.6,2.9,1.5c0.2,0.2,0.4,0.4,0.7,0.4c0.3,0,0.5-0.1,0.7-0.4
	c0.6-1,1.7-1.5,2.9-1.5c1.1,0,2.2,0.6,2.9,1.5c0.2,0.2,0.4,0.4,0.7,0.4c0.3,0,0.5-0.1,0.7-0.4c0.6-1,1.7-1.5,2.9-1.5
	c1.1,0,2.2,0.6,2.9,1.5c0.2,0.2,0.4,0.4,0.7,0.4c0.3,0,0.5-0.1,0.7-0.4c0.6-1,1.7-1.5,2.9-1.5c1.1,0,2.2,0.6,2.9,1.5
	c0.2,0.2,0.4,0.4,0.7,0.4c0.3,0,0.5-0.1,0.7-0.4c0.6-1,1.7-1.5,2.9-1.5c1.1,0,2.2,0.6,2.9,1.5c0.2,0.2,0.4,0.4,0.7,0.4
	c0.3,0,0.5-0.1,0.7-0.4c0.6-1,1.7-1.5,2.9-1.5c1.9,0,3.4,1.5,3.4,3.4c0,0,0,0,0,0h-9.6c-0.5,0-0.8,0.4-0.8,0.8
	c0,0.5,0.4,0.8,0.8,0.8h10.3c0.4,0,0.7-0.3,0.8-0.7c0.1-0.3,0.1-0.7,0.1-1c0-2.8-2.3-5.1-5.1-5.1c-1.3,0-2.6,0.5-3.5,1.4
	c-0.7-0.7-1.7-1.2-2.7-1.4c1.1-1.5,1.9-3.2,2.3-4.2L50.3,32.3L50.3,32.3z"/>
</svg>
