<?xml version="1.0" encoding="utf-8"?>
<!-- Generator: Adobe Illustrator 20.0.0, SVG Export Plug-In . SVG Version: 6.00 Build 0)  -->
<svg version="1.1" id="Слой_1" xmlns="http://www.w3.org/2000/svg" xmlns:xlink="http://www.w3.org/1999/xlink" x="0px" y="0px"
	 viewBox="0 0 54.8 58" style="enable-background:new 0 0 54.8 58;" xml:space="preserve">
<style type="text/css">
	.st0{fill:#CDAF39;}
</style>
<g>
	<path class="st0" d="M9.5,55.7v-6.8h2h31.7h2v6.8H9.5L9.5,55.7z M3.2,53.4c-0.5,0-0.9-0.4-0.9-0.9v-0.4c0-0.5,0.4-0.9,0.9-0.9h4
		v2.2L3.2,53.4L3.2,53.4L3.2,53.4z M42.1,11.4v35.3H12.7V11.4H42.1L42.1,11.4z M9.5,9.1V7.9V3.4V2.3h35.7v1.1v4.5v1.1h-2H11.5H9.5
		L9.5,9.1z M3.2,6.8c-0.5,0-0.9-0.4-0.9-0.9V5.5c0-0.5,0.4-0.9,0.9-0.9h4v2.2H3.2L3.2,6.8z M51.6,4.6c0.5,0,0.9,0.4,0.9,0.9v0.4
		c0,0.5-0.4,0.9-0.9,0.9h-4V4.6H51.6L51.6,4.6z M51.6,51.2c0.5,0,0.9,0.4,0.9,0.9v0.4c0,0.5-0.4,0.9-0.9,0.9h-4v-2.2H51.6L51.6,51.2
		z M47.5,56.9v-1.1h4c1.8,0,3.2-1.4,3.2-3.2v-0.4c0-1.8-1.4-3.2-3.2-3.2h-4v-1.1c0-0.6-0.5-1.1-1.1-1.1h-2V11.4h2
		c0.6,0,1.1-0.5,1.1-1.1V9.1h4c1.8,0,3.2-1.4,3.2-3.2V5.5c0-1.8-1.4-3.2-3.2-3.2h-4V1.1C47.5,0.5,47,0,46.4,0h-38
		C7.8,0,7.2,0.5,7.2,1.1v1.1h-4C1.4,2.3,0,3.7,0,5.5v0.4c0,1.8,1.4,3.2,3.2,3.2h4v1.1c0,0.6,0.5,1.1,1.1,1.1h2v35.3h-2
		c-0.6,0-1.1,0.5-1.1,1.1v1.1h-4c-1.8,0-3.2,1.4-3.2,3.2v0.4c0,1.8,1.4,3.2,3.2,3.2h4v1.1c0,0.6,0.5,1.1,1.1,1.1h38
		C47,58,47.5,57.5,47.5,56.9L47.5,56.9z"/>
	<path class="st0" d="M23.3,33.8V29h3.4v4.8L23.3,33.8L23.3,33.8L23.3,33.8z M36.2,33.8H29V29h4.5c0.6,0,1.1-0.5,1.1-1.1
		c0-0.6-0.5-1.1-1.1-1.1H29V23h4.5c0.6,0,1.1-0.5,1.1-1.1c0-0.6-0.5-1.1-1.1-1.1H23.2c0.1-0.5,0.2-1,0.2-1.5c0-0.6-0.5-1.1-1.1-1.1
		c-0.6,0-1.1,0.5-1.1,1.1c0,0.7-0.2,1.5-0.5,2.1c0,0,0,0,0,0c0,0,0,0,0,0c-0.3,0.5-0.6,1-1.1,1.3l-0.7,0.5c-0.5,0.4-0.6,1.1-0.2,1.6
		c0.2,0.3,0.6,0.4,0.9,0.4c0.3,0,0.5-0.1,0.7-0.3l0.7-0.5c0.5-0.4,0.9-0.9,1.3-1.4h4.6v3.7h-4.5c-0.6,0-1.1,0.5-1.1,1.1v5.9h-1.6
		c-0.6,0-1.1,0.5-1.1,1.1c0,0.6,0.5,1.1,1.1,1.1h7.2v2.8c0,0.6,0.5,1.1,1.1,1.1c0.6,0,1.1-0.5,1.1-1.1v-2.8h7.2
		c0.6,0,1.1-0.5,1.1-1.1C37.4,34.3,36.9,33.8,36.2,33.8L36.2,33.8z"/>
	<path class="st0" d="M21.5,52.3c0,1.5,2.3,1.5,2.3,0C23.8,50.9,21.5,50.9,21.5,52.3L21.5,52.3z"/>
	<path class="st0" d="M20.1,52.3c0-0.6-0.5-1.1-1.1-1.1h-6.3c-0.6,0-1.1,0.5-1.1,1.1c0,0.6,0.5,1.1,1.1,1.1H19
		C19.6,53.4,20.1,52.9,20.1,52.3L20.1,52.3z"/>
</g>
</svg>
