<?xml version="1.0" encoding="utf-8"?>
<!-- Generator: Adobe Illustrator 20.0.0, SVG Export Plug-In . SVG Version: 6.00 Build 0)  -->
<svg version="1.1" id="Слой_1" xmlns="http://www.w3.org/2000/svg" xmlns:xlink="http://www.w3.org/1999/xlink" x="0px" y="0px"
	 viewBox="0 0 55 55" style="enable-background:new 0 0 55 55;" xml:space="preserve">
<style type="text/css">
	.st0{fill:#CDAF39;}
</style>
<g>
	<path class="st0" d="M27.5,53.2c-14.1,0-25.7-11.5-25.7-25.7S13.4,1.8,27.5,1.8s25.7,11.5,25.7,25.7S41.6,53.2,27.5,53.2L27.5,53.2
		z M46.9,8.1C41.8,2.9,34.8,0,27.5,0S13.2,2.9,8.1,8.1C2.9,13.2,0,20.2,0,27.5s2.9,14.3,8.1,19.4c5.2,5.2,12.1,8.1,19.4,8.1
		s14.3-2.9,19.4-8.1c5.2-5.2,8.1-12.1,8.1-19.4S52.1,13.2,46.9,8.1L46.9,8.1z"/>
	<path class="st0" d="M29.7,25.9c-0.2,0.3-0.3,0.7-0.1,1c0.2,0.3,0.5,0.5,0.8,0.5h4v2.1h-5c-0.5,0-0.9,0.4-0.9,0.9v3.9
		c0,0.5,0.4,0.9,0.9,0.9h5v2.1h-5c-0.5,0-0.9,0.4-0.9,0.9v6h-2.1v-6c0-0.5-0.4-0.9-0.9-0.9h-5v-2.1h5c0.5,0,0.9-0.4,0.9-0.9v-3.9
		c0-0.5-0.4-0.9-0.9-0.9h-5v-2.1h4c0.4,0,0.7-0.2,0.8-0.5c0.2-0.3,0.1-0.7-0.1-1l-9.5-11.3h2.5l8.6,10.1c0.2,0.2,0.4,0.3,0.7,0.3
		c0.3,0,0.5-0.1,0.7-0.3l8.6-10.1h2.5L29.7,25.9L29.7,25.9z M41.3,12.8h-4.9c-0.3,0-0.5,0.1-0.7,0.3l-8.2,9.6l-8.2-9.6
		c-0.2-0.2-0.4-0.3-0.7-0.3h-4.9c-0.4,0-0.7,0.2-0.8,0.5c-0.2,0.3-0.1,0.7,0.1,1l9.5,11.3h-2.9c-0.5,0-0.9,0.4-0.9,0.9v3.9
		c0,0.5,0.4,0.9,0.9,0.9h5v2.1h-5c-0.5,0-0.9,0.4-0.9,0.9v3.9c0,0.5,0.4,0.9,0.9,0.9h5v6c0,0.5,0.4,0.9,0.9,0.9h3.9
		c0.5,0,0.9-0.4,0.9-0.9v-6h5c0.5,0,0.9-0.4,0.9-0.9v-3.9c0-0.5-0.4-0.9-0.9-0.9h-5v-2.1h5c0.5,0,0.9-0.4,0.9-0.9v-3.9
		c0-0.5-0.4-0.9-0.9-0.9h-2.9L42,14.3c0.2-0.3,0.3-0.7,0.1-1C42,13,41.6,12.8,41.3,12.8L41.3,12.8z"/>
</g>
</svg>
