<?xml version="1.0" encoding="utf-8"?>
<!-- Generator: Adobe Illustrator 20.0.0, SVG Export Plug-In . SVG Version: 6.00 Build 0)  -->
<svg version="1.1" id="Слой_1" xmlns="http://www.w3.org/2000/svg" xmlns:xlink="http://www.w3.org/1999/xlink" x="0px" y="0px"
	 viewBox="0 0 55 53" style="enable-background:new 0 0 55 53;" xml:space="preserve">
<style type="text/css">
	.st0{fill:#CDAF39;}
</style>
<path class="st0" d="M28.6,50.3v-29l24.2-8.9v29L28.6,50.3L28.6,50.3z M2.2,12.4l4.9,1.8v13.3c0,0.5,0.3,0.9,0.7,1l11.8,4.4
	c0.1,0,0.3,0.1,0.4,0.1c0.2,0,0.4-0.1,0.6-0.2c0.3-0.2,0.5-0.5,0.5-0.9V19.4l5.3,1.9v29L2.2,41.4V12.4L2.2,12.4z M27.5,2.3l23.2,8.6
	l-23.2,8.6l-4.3-1.6l9.1-3.3c0.4-0.2,0.7-0.6,0.7-1c0-0.5-0.3-0.9-0.7-1L20.4,8.1c-0.2-0.1-0.5-0.1-0.8,0L8.2,12.3l-3.9-1.5
	L27.5,2.3L27.5,2.3z M20,16.6l-8.7-3.2l8.7-3.2l8.7,3.2L20,16.6L20,16.6z M9.3,15l9.6,3.6v11.7l-9.6-3.6V15L9.3,15z M54.3,9.8
	L27.9,0.1c-0.2-0.1-0.5-0.1-0.8,0L0.7,9.8l0,0c-0.1,0-0.2,0.1-0.2,0.1C0.2,10.1,0,10.5,0,10.8v31.3c0,0.5,0.3,0.9,0.7,1l26.4,9.7
	c0.1,0,0.3,0.1,0.4,0.1c0.1,0,0.3,0,0.4-0.1l0,0l26.4-9.7c0.4-0.2,0.7-0.6,0.7-1V10.8C55,10.4,54.7,10,54.3,9.8L54.3,9.8z"/>
</svg>
