<?xml version="1.0" encoding="utf-8"?>
<!-- Generator: Adobe Illustrator 20.0.0, SVG Export Plug-In . SVG Version: 6.00 Build 0)  -->
<svg version="1.1" id="Layer_1" xmlns="http://www.w3.org/2000/svg" xmlns:xlink="http://www.w3.org/1999/xlink" x="0px" y="0px"
	 viewBox="0 0 50 50" style="enable-background:new 0 0 50 50;" xml:space="preserve">
<style type="text/css">
	.st0{fill:#FFFFFF;}
</style>
<g>
	<path class="st0" d="M30,24.8l-9-4.6c-0.2-0.1-0.5,0.1-0.5,0.3v8.9c0,0.3,0.3,0.4,0.5,0.3l9-4.3C30.3,25.3,30.3,25,30,24.8z"/>
	<path class="st0" d="M40,0H10C4.5,0,0,4.5,0,10v30c0,5.5,4.5,10,10,10h30c5.5,0,10-4.5,10-10V10C50,4.5,45.5,0,40,0z M41.5,29.8
		c0,3.8-3.1,6.8-6.8,6.8H15.4c-3.8,0-6.8-3.1-6.8-6.8v-9.6c0-3.8,3.1-6.8,6.8-6.8h19.3c3.8,0,6.8,3.1,6.8,6.8V29.8z"/>
</g>
</svg>
