<svg xmlns="http://www.w3.org/2000/svg" viewBox="0 0 216.07 120.04"><defs><style>.cls-1{fill:#e6007e}.cls-2{fill:#fff}</style></defs><title>100%-winter</title><g id="Слой_2" data-name="Слой 2"><g id="Слой_1-2" data-name="Слой 1"><path class="cls-1" d="M0 50.68l18.25 69.36L216.07 74.6V0L0 50.68z"/><path class="cls-2" d="M48.18 105.38c-1 .23-1.64.15-2.1-.86H46c0 1.11-.51 1.45-1.51 1.68l-2.21.49a1.64 1.64 0 0 1-2.06-.64l-1.41-1.58a2 2 0 0 1-.77-1.41L34.18 86a1.31 1.31 0 0 1 1.13-1.81 1.31 1.31 0 0 1 1.81 1.14L41 102.41l1.1 1.23 1.29-.29.47-1.59-2.13-9.29c-.2-.93 0-1.84 1.09-2.08s1.65.49 1.87 1.41l2.12 9.29 1.12 1.24 1.26-.29.48-1.6-3.87-17.13a1.51 1.51 0 0 1 2.95-.67l3.89 17.12a2.13 2.13 0 0 1-.06 1.61l-.63 2c-.3 1-.53 1.23-1.55 1.48zM68.39 97.66l4.34-1a1.52 1.52 0 1 1 .67 3l-11.62 2.64a1.51 1.51 0 0 1-.67-2.95l4.33-1-3.87-17.07-4.34 1a1.51 1.51 0 1 1-.66-2.95l11.62-2.64a1.51 1.51 0 1 1 .69 2.95l-4.34 1zM88.33 73.68a1.51 1.51 0 1 1 2.95-.68l4.88 21.49-3.89.88-11.73-16h-.06l3.7 16.22A1.32 1.32 0 0 1 83 97.44a1.31 1.31 0 0 1-1.81-1.13l-4.85-21.48 3.9-.89L92 90.1h.06zM101.2 72.26l.25 1.06a1.34 1.34 0 0 1-1.14 1.83 1.32 1.32 0 0 1-1.8-1.15l-.92-4 14.57-3.32.93 4a1.52 1.52 0 0 1-3 .65l-.24-1-2.86.64 4.22 18.54a1.33 1.33 0 0 1-1.16 1.81 1.31 1.31 0 0 1-1.8-1.13l-4.18-18.59zM136.49 82.19a1.51 1.51 0 1 1 .66 2.94l-13.1 3-5.22-23 13.1-3a1.51 1.51 0 1 1 .67 2.95l-10.13 2.3 1.59 7.07 4.34-1a1.51 1.51 0 1 1 .66 2.95l-4.33 1 1.59 7zM147.91 81.14a1.31 1.31 0 0 1-1.13 1.81 1.33 1.33 0 0 1-1.78-1.14l-4.9-21.48 9.9-2.26a4.59 4.59 0 0 1 5.64 3.21l.45 2c.63 2.78-1.34 4.71-3.71 5.25l-2.71.63 8.8 8a3.1 3.1 0 0 1 1.09 1.4 1.46 1.46 0 0 1-1.18 1.73 1.57 1.57 0 0 1-1.49-.53L146.11 70l-.69.15zm-3.15-13.92l6.55-1.5c.82-.18 2.1-.54 1.82-1.73l-.45-2c-.26-1.17-1.51-1-2.39-.85l-6.58 1.5zM68 65.29l-1.51-6.7a1.7 1.7 0 0 1 3.32-.75l1.89 8.36a1.56 1.56 0 0 1-1.28 2l-13.07 3a1.7 1.7 0 0 1-.75-3.31l4.88-1.1-4.39-19.19-4.88 1.11a1.59 1.59 0 0 1-2-1.29 1.57 1.57 0 0 1 1.29-2l8.19-1.87L64.79 66zM86.78 37.35a3.41 3.41 0 0 1 4.06 2.56l4.37 19.18a3.36 3.36 0 0 1-2.57 4.08l-9.75 2.23a3.35 3.35 0 0 1-4.08-2.57l-4.35-19.17A3.42 3.42 0 0 1 77 39.57zm5.11 22.5l-4.35-19.18-9.77 2.22 4.36 19.18zM110.66 31.93a3.42 3.42 0 0 1 4.08 2.56l4.37 19.18a3.36 3.36 0 0 1-2.57 4.08L106.78 60a3.36 3.36 0 0 1-4.08-2.55l-4.36-19.2a3.4 3.4 0 0 1 2.56-4.07zm5.11 22.5l-4.35-19.19-9.76 2.23L106 56.65zM124.95 35.1a1.81 1.81 0 0 1-1.87-.24 2.17 2.17 0 0 1-.7-1.42l-.38-1.85a2 2 0 0 1 0-1.59c.3-.74.84-.86 1.57-1l2.4-.53a1.82 1.82 0 0 1 1.88.24 2.27 2.27 0 0 1 .7 1.41L129 32a2.09 2.09 0 0 1 0 1.57c-.34.74-.85.86-1.58 1zm4.49 16.46a1.81 1.81 0 0 1-2.37.54 2 2 0 0 1-.52-2.36l9.27-20.18a1.77 1.77 0 0 1 2.35-.54 1.93 1.93 0 0 1 .52 2.36zm9.82 1c-.73.17-1.26.3-1.87-.23a2.2 2.2 0 0 1-.7-1.41l-.43-1.87a2.23 2.23 0 0 1 0-1.58c.31-.74.85-.86 1.59-1l2.38-.54a1.86 1.86 0 0 1 1.88.24 2.26 2.26 0 0 1 .7 1.41l.43 1.86a2.22 2.22 0 0 1 0 1.57c-.32.75-.86.87-1.58 1z"/></g></g></svg>