<svg id="дизайн-макет_копия_" data-name="дизайн-макет (копия)" xmlns="http://www.w3.org/2000/svg" viewBox="0 0 540.17 158.84"><defs><style>.cls-1{fill:none}.cls-2{clip-path:url(#clip-path)}.cls-3{fill:#c4e7fb}</style><clipPath id="clip-path"><path class="cls-1" d="M539.88 158.84V0H0l539.88 158.84z"/></clipPath></defs><title>actionBoxBackground</title><g class="cls-2"><path class="cls-3" d="M-309.77 193.82l523.11-568.35 2.34 2-523.11 568.32zm9.47 8l523.11-568.37-2.34-2-523.11 568.38zm7.13 6l523.12-568.36-2.35-2-523.11 568.37zm7.13 6l523.11-568.36-2.34-2-523.11 568.38zm7.13 6L244.2-348.54l-2.34-2-523.11 568.38zm7.13 6l523.11-568.35-2.34-2-523.12 568.38zm7.13 6l523.11-568.34-2.34-2L-267 229.85zm7.13 6l523.11-568.34-2.34-2-523.12 568.38zm7.12 6l523.12-568.34-2.34-2-523.12 568.38zm7.13 6l523.12-568.33-2.33-2-523.13 568.38zm7.13 6L287-312.51l-2.34-2-523.14 568.38zm7.13 6L294.11-306.5l-2.34-2-523.12 568.38zm7.13 6L301.24-300.5l-2.34-2-523.12 568.38zm7.13 6l523.12-568.31-2.35-2-523.11 568.37zm7.13 6L315.5-288.49l-2.34-2L-210 277.89zm7.13 6l523.11-568.3-2.34-2-523.11 568.38zm7.13 6l523.11-568.3-2.34-2L-195.7 289.9zm7.13 6l523.11-568.3-2.34-2-523.11 568.38zm7.13 6L344-264.47l-2.34-2-523.1 568.38zm7.13 6l523.11-568.28-2.34-2-523.12 568.37zm7.13 6l523.11-568.28-2.33-2-523.12 568.38zm7.13 6L365.4-246.45l-2.34-2L-160 319.93zm7.13 6l523.11-568.27-2.34-2-523.11 568.38zm7.13 6l523.11-568.26-2.34-2-523.11 568.38zm7.13 6l523.11-568.26-2.34-2-523.11 568.38zm7.13 6l523.11-568.25-2.34-2-523.11 568.37zm7.13 6l523.11-568.25-2.34-2-523.11 568.38zm7.13 6l523.11-568.24-2.34-2-523.12 568.37zm7.13 6l523.11-568.24-2.34-2L-110.15 362zm7.13 6l523.11-568.24-2.34-2L-103 368zm7.13 6l523.11-568.23-2.35-2L-95.89 374zm7.13 6L436.7-186.4l-2.35-2L-88.76 380zm7.13 6L443.83-180.4l-2.34-2L-81.63 386zm7.13 6L451-174.4l-2.34-2L-74.5 392zm7.13 6l523.1-568.21-2.33-2L-67.37 398zm7.13 6l523.1-568.21-2.34-2L-60.24 404zm7.13 6l523.11-568.2-2.34-2L-53.11 410zm7.14 6l523.09-568.2-2.34-2L-46 416zm7.13 6L486.6-144.37l-2.34-2L-38.85 422zm7.13 6l523.1-568.19-2.34-2L-31.72 428zm7.13 6l523.09-568.18-2.34-2L-24.59 434zm7.13 6L508-126.36l-2.34-2L-17.46 440zM-8 448l523.12-568.35-2.34-2L-10.33 446zm7.13 6l523.12-568.35-2.34-2L-3.21 452zm7.13 6l523.12-568.35-2.34-2L3.92 458zm7.13 6l523.12-568.33-2.34-2L11.05 464zm7.12 6L543.64-96.33l-2.34-2L18.18 470zm7.13 6L550.77-90.33l-2.34-2L25.31 476zm7.14 6L557.89-84.33l-2.34-2L32.44 482.05zm7.13 6L565-78.32l-2.34-2L39.57 488.06zm7.09 6L572.16-72.31l-2.34-2L46.71 494.06zm7.13 6L579.29-66.31l-2.34-2L53.83 500.07zm7.13 6L586.42-60.3l-2.34-2L61 506.07zm7.13 6L593.54-54.3l-2.33-2L68.09 512.07zm7.13 6L600.68-48.29l-2.34-2L75.22 518.08zm7.14 6L607.82-42.28l-2.34-2L82.37 524.1zm7.13 6L614.95-36.27l-2.34-2L89.5 530.1zm7.13 6L622.08-30.27l-2.34-2L96.62 536.11zm7.13 6L629.21-24.26l-2.34-2-523.12 568.37zm7.13 6L636.34-18.26l-2.34-2-523.12 568.38zm7.13 6L643.47-12.25l-2.34-2L118 554.12zm7.13 6L650.6-6.25l-2.34-2-523.12 568.38zm7.14 6L657.73-.24l-2.34-2-523.12 568.37zm7.13 6L664.86 5.76l-2.34-2L139.4 572.13zm7.13 6L672 11.76l-2.34-2-523.13 568.38zm7.13 6L679.11 17.77l-2.34-2-523.11 568.37zm7.13 6L686.24 23.77l-2.34-2-523.11 568.38zm7.13 6L693.37 29.77l-2.34-2-523.12 568.38zm7.13 6L700.5 35.78l-2.34-2L175 602.16zm7.13 6L707.63 41.79l-2.34-2-523.11 568.38zm7.13 6L714.76 47.79l-2.34-2-523.11 568.38zm7.13 6L721.89 53.8l-2.34-2-523.11 568.37zm7.13 6L729 59.8l-2.34-2-523.1 568.38zm7.12 6L736.15 65.81l-2.34-2-523.12 568.37zm7.13 6L743.28 71.81l-2.34-2-523.11 568.38zm7.13 6L750.41 77.82l-2.34-2L225 644.19zm7.13 6L757.53 83.82l-2.34-2L232.08 650.2zm7.13 6L764.67 89.83l-2.34-2L239.21 656.2zm7.13 6L771.79 95.83l-2.34-2-523.11 568.38zm7.13 6l523.15-568.16-2.34-2-523.12 568.37zm7.13 6l523.15-568.16-2.34-2L260.6 674.22zm7.13 6l523.15-568.15-2.34-2-523.12 568.37zm7.13 6l523.15-568.15-2.34-2-523.12 568.38zm7.13 6l523.14-568.15-2.34-2L282 692.23zm7.13 6l523.14-568.14-2.34-2-523.12 568.37zm7.13 6L821.7 137.86l-2.34-2-523.11 568.38zm7.13 6l523.14-568.13-2.34-2-523.11 568.38zm7.13 6L836 149.87l-2.34-2L310.5 716.25zm7.13 6l523.14-568.12-2.34-2-523.12 568.37zm7.13 6l523.14-568.12-2.34-2-523.12 568.38zm7.13 6l523.14-568.11-2.34-2-523.12 568.38zm7.13 6l523.14-568.11-2.34-2L339 740.27zm7.13 6l523.14-568.1-2.34-2-523.11 568.38zm7.13 6l523.14-568.1-2.34-2-523.11 568.38zm7.13 6l523.14-568.09-2.34-2-523.12 568.37zm7.13 6L893 197.91l-2.34-2-523.12 568.38zm7.13 6l523.14-568.08-2.34-2L374.67 770.3zm7.13 6l523.13-568.08-2.34-2L381.8 776.3zm7.13 6l523.13-568.08L912 214 388.93 782.3zm7.13 6l523.13-568.07-2.34-2-523.11 568.38zm7.12 6l523.15-568.06-2.34-2-523.12 568.38zm7.13 6l523.15-568.06-2.34-2-523.12 568.38zm7.13 6l523.15-568.05-2.34-2-523.12 568.38zm7.13 6L950 245.95l-2.34-2-523.08 568.38zm7.13 6l523.14-568-2.34-2L431.7 818.33zm7.13 6l523.14-568-2.29-2-523.16 568.34zm7.13 6l523.14-568-2.34-2L446 830.34zm7.13 6l523.14-568-2.34-2L453.1 836.35zm7.13 6l523.14-568-2.34-2-523.11 568.35z"/></g></svg>