<svg id="дизайн-макет_копия_" data-name="дизайн-макет (копия)" xmlns="http://www.w3.org/2000/svg" viewBox="0 0 900.17 264.84"><defs><style>.cls-1{fill:none}.cls-2{clip-path:url(#clip-path)}.cls-3{fill:#c4e7fb}</style><clipPath id="clip-path"><path class="cls-1" d="M900.17 264.84V0H0l900.17 264.84z"/></clipPath></defs><title>actionBoxBackground-new</title><g class="cls-2"><path class="cls-3" d="M-209.77 46.82l523.11-568.35 2.34 2-523.11 568.32zm9.47 8l523.11-568.37-2.34-2-523.11 568.38zm7.13 6l523.12-568.36-2.35-2-523.11 568.37zm7.13 6l523.11-568.36-2.34-2-523.11 568.38zm7.13 6L344.2-495.54l-2.34-2-523.11 568.38zm7.13 6l523.11-568.35-2.34-2-523.12 568.38zm7.13 6l523.11-568.35-2.34-2L-167 82.85zm7.13 6l523.11-568.34-2.34-2-523.12 568.38zm7.12 6l523.12-568.34-2.34-2-523.12 568.38zm7.13 6l523.12-568.33-2.33-2-523.13 568.38zm7.13 6L387-459.51l-2.34-2-523.14 568.38zm7.13 6L394.11-453.5l-2.34-2-523.12 568.38zm7.13 6L401.24-447.5l-2.34-2-523.12 568.38zm7.13 6l523.12-568.31-2.35-2-523.11 568.37zm7.13 6L415.5-435.49l-2.34-2L-110 130.89zm7.13 6l523.11-568.3-2.34-2-523.11 568.37zm7.13 6l523.11-568.3-2.34-2L-95.7 142.9zm7.13 6l523.11-568.3-2.34-2L-88.57 148.9zm7.13 6L444-411.47l-2.34-2-523.1 568.38zm7.13 6l523.11-568.28-2.34-2-523.12 568.37zm7.13 6l523.11-568.28-2.33-2-523.12 568.38zm7.13 6L465.4-393.46l-2.34-2L-60 172.92zm7.13 6l523.11-568.27-2.34-2-523.11 568.38zm7.13 6l523.11-568.26-2.34-2-523.11 568.38zm7.13 6l523.11-568.26-2.34-2-523.11 568.38zm7.13 6l523.11-568.26-2.34-2-523.11 568.38zm7.13 6l523.11-568.25-2.34-2L-24.4 202.95zm7.13 6l523.11-568.24-2.34-2-523.12 568.37zm7.13 6l523.11-568.24-2.34-2L-10.15 215zm7.13 6l523.11-568.24-2.34-2L-3 221zm7.13 6l523.11-568.23-2.35-2L4.11 227zm7.13 6L536.7-333.41l-2.35-2L11.24 233zm7.13 6L543.83-327.4l-2.34-2L18.37 239zm7.13 6L551-321.4l-2.34-2L25.5 245zM35 253l523.08-568.4-2.33-2L32.63 251zm7.13 6l523.08-568.39-2.34-2L39.76 257zm7.13 6l523.09-568.38-2.34-2L46.89 263zm7.14 6l523.07-568.38-2.34-2L54 269zm7.13 6L586.6-291.37l-2.34-2L61.15 275zm7.13 6l523.08-568.37-2.34-2L68.28 281zm7.13 6l523.07-568.36-2.34-2L75.41 287zm7.13 6L608-273.36l-2.34-2L82.54 293zm7.08 6l523.12-568.35-2.34-2L89.67 299zm7.13 6l523.12-568.35-2.34-2L96.79 305zm7.13 6l523.12-568.35-2.34-2L103.92 311zm7.13 6l523.12-568.34-2.34-2L111.05 317zm7.13 6l523.12-568.33-2.34-2L118.18 323zm7.13 6l523.12-568.33-2.34-2L125.31 329zm7.14 6l523.1-568.33-2.34-2-523.11 568.38zm7.13 6L665-225.32l-2.34-2-523.09 568.38zm7.13 6l523.11-568.31-2.34-2-523.11 568.37zm7.13 6l523.11-568.31-2.34-2-523.12 568.38zm7.13 6l523.11-568.3-2.34-2L161 359.07zm7.13 6l523.1-568.3-2.33-2-523.12 568.37zm7.13 6l523.11-568.29-2.34-2-523.12 568.37zm7.14 6l523.11-568.28-2.34-2L182.37 377.1zm7.13 6l523.11-568.27-2.34-2L189.5 383.1zm7.13 6l523.11-568.27-2.34-2-523.12 568.38zm7.13 6l523.11-568.27-2.34-2-523.12 568.38zm7.13 6l523.11-568.26-2.34-2-523.12 568.38zm7.13 6l523.11-568.25-2.34-2L218 407.12zm7.13 6L750.6-153.25l-2.34-2-523.12 568.38zm7.14 6l523.1-568.24-2.34-2-523.12 568.37zm7.13 6l523.1-568.24-2.34-2L239.4 425.13zm7.13 6L772-135.24l-2.34-2-523.13 568.38zm7.13 6l523.09-568.23-2.34-2-523.11 568.37zm7.13 6l523.09-568.23-2.34-2-523.11 568.38zm7.13 6l523.09-568.23-2.34-2-523.12 568.38zm7.13 6L800.5-111.22l-2.34-2L275 455.16zm7.13 6l523.09-568.21-2.34-2-523.11 568.38zm7.13 6L814.76-99.21l-2.34-2-523.11 568.38zm7.13 6L821.89-93.2l-2.34-2-523.11 568.37zm7.13 6L829-87.2l-2.34-2-523.1 568.38zm7.12 6l523.1-568.19-2.34-2-523.12 568.37zm7.13 6l523.1-568.19-2.34-2-523.11 568.38zm7.13 6l523.1-568.18-2.34-2L325 497.19zm7.13 6L857.53-63.18l-2.34-2L332.08 503.2zm7.13 6l523.1-568.17-2.34-2L339.21 509.2zm7.13 6L871.79-51.17l-2.34-2-523.11 568.38zm7.13 6l523.1-568.16-2.34-2-523.12 568.37zm7.13 6l523.1-568.16-2.34-2L360.6 527.22zm7.13 6l523.1-568.15-2.34-2-523.12 568.37zm7.13 6l523.1-568.15-2.34-2-523.12 568.38zm7.13 6L907.44-21.15l-2.34-2L382 545.23zm7.13 6L914.57-15.14l-2.34-2-523.12 568.37zm7.13 6L921.7-9.14l-2.34-2-523.11 568.38zm7.13 6L928.83-3.13l-2.34-2-523.11 568.38zm7.13 6L936 2.87l-2.34-2L410.5 569.25zm7.13 6L943.09 8.88l-2.34-2-523.12 568.37zm7.13 6L950.22 14.88l-2.34-2-523.12 568.38zm7.13 6L957.35 20.89l-2.34-2-523.12 568.38zm7.13 6L964.48 26.89l-2.34-2L439 593.27zm7.13 6L971.61 32.9l-2.34-2-523.11 568.38zm7.13 6L978.74 38.9l-2.34-2-523.11 568.38zm7.13 6L985.87 44.91l-2.34-2-523.12 568.37zm7.13 6L993 50.91l-2.34-2-523.12 568.38zm7.13 6l523.09-568.08-2.34-2L474.67 623.3zm7.13 6l523.08-568.08-2.34-2L481.8 629.3zm7.13 6l523.08-568.08L1012 67 488.93 635.3zm7.13 6l523.08-568.07-2.34-2-523.11 568.38zm7.12 6l523.1-568.06-2.34-2-523.12 568.38zm7.13 6l523.1-568.06-2.34-2-523.12 568.38zm7.13 6l523.1-568.05-2.34-2-523.12 568.38zm7.13 6L1050 98.95l-2.34-2-523.08 568.38zm7.13 6l523.09-568-2.34-2L531.7 671.33zm7.13 6l523.09-568-2.34-2-523.11 568.34zm7.13 6l523.09-568-2.34-2L546 683.34zm7.13 6l523.09-568-2.34-2L553.1 689.35zm7.13 6l523.09-568-2.34-2-523.11 568.35z"/></g></svg>