<svg id="Слой_1" data-name="Слой 1" xmlns="http://www.w3.org/2000/svg" viewBox="0 0 1920 244.38"><defs><style>.cls-1{fill:none}.cls-2{fill:#fff}.cls-3{clip-path:url(#clip-path)}.cls-4{fill:#6ec4e9}.cls-5{clip-path:url(#clip-path-2)}.cls-6{fill:#e6007c}.cls-7{clip-path:url(#clip-path-3)}.cls-8{fill:#c3e6fa}</style><clipPath id="clip-path"><path class="cls-1" d="M1920 47.09L1110.85 47l21.32 94.36L1920 244.38V47.09z"/></clipPath><clipPath id="clip-path-2"><path class="cls-1" d="M1110.85 47H359.6v.59l772.57 93.77L1110.85 47z"/></clipPath><clipPath id="clip-path-3"><path class="cls-1" d="M0 46.35h359.17v-.58L0 0v46.35z"/></clipPath></defs><title>123-new</title><path id="_Многоугольник_" data-name="&lt;Многоугольник&gt;" class="cls-2" d="M0 0v47.35h375.31L0 0z"/><g id="Слой_2" data-name="Слой 2"><g class="cls-3"><path class="cls-4" d="M2131 198.25l-523.78 516.56-2.34-1.79 523.79-516.56zm-9.48-7.25l-523.78 516.56 2.34 1.79 523.78-516.56zm-7.14-5.46L1590.59 702.1l2.35 1.79 523.78-516.56zm-7.14-5.46l-523.78 516.56 2.34 1.79 523.79-516.56zm-7.14-5.46l-523.78 516.56 2.34 1.79 523.79-516.56zm-7.14-5.46l-523.78 516.57 2.35 1.79L2095.31 171zm-7.14-5.46L1562 680.27l2.34 1.79 523.84-516.56zm-7.14-5.46L1554.9 674.81l2.35 1.79L2081 160zm-7.13-5.46l-523.78 516.57 2.34 1.79 523.79-516.55zm-7.14-5.46L1540.63 663.9l2.34 1.79 523.79-516.56zm-7.13-5.45l-523.79 516.57 2.34 1.79 523.78-516.56zm-7.14-5.46L1526.35 653l2.34 1.79 523.78-516.56zM2043 131l-523.79 516.52 2.34 1.79 523.79-516.56zm-7.13-5.46l-523.8 516.53 2.35 1.79L2038.2 127.3zm-7.14-5.46l-523.8 516.53 2.35 1.79 523.79-516.56zm-7.14-5.46L1497.8 631.15l2.34 1.79 523.78-516.56zm-7.14-5.46L1490.66 625.7l2.34 1.79 523.78-516.56zm-7.14-5.46l-523.79 516.54 2.34 1.79 523.79-516.56zm-7.14-5.46l-523.79 516.54 2.35 1.79L2002.51 100zm-7.17-5.48l-523.76 516.56 2.34 1.79 523.79-516.55zm-7.14-5.46l-523.75 516.56 2.34 1.79 523.78-516.56zm-7.14-5.46L1455 598.41l2.34 1.79 523.75-516.56zm-7.13-5.46L1447.83 593l2.35 1.79L1974 78.18zm-7.14-5.46l-523.76 516.57 2.34 1.79 523.79-516.56zm-7.14-5.46L1433.55 582l2.34 1.79 523.79-516.52zM1950.2 60l-523.79 516.58 2.35 1.79 523.78-516.56zm-7.14-5.46l-523.79 516.58 2.35 1.79L1945.4 56.35zm-7.14-5.46l-523.79 516.58 2.35 1.79 523.78-516.56zm-7.14-5.46L1405 560.2l2.34 1.79 523.78-516.56zm-7.14-5.46l-523.78 516.59 2.34 1.79L1924 40zm-7.14-5.46l-523.79 516.58 2.35 1.79 523.79-516.55zm-7.14-5.46l-523.78 516.59 2.35 1.79 523.78-516.56zm-7.14-5.46l-523.78 516.59 2.35 1.79 523.78-516.55zm-7.14-5.46L1369.3 532.91l2.34 1.79 523.79-516.55zm-7.14-5.46l-523.77 516.6 2.34 1.79 523.78-516.56zm-7.14-5.46L1355 522l2.35 1.79 523.8-516.56zm-7.13-5.4l-523.79 516.54 2.34 1.79L1874 1.77zm-7.14-5.46l-523.78 516.54 2.34 1.79L1866.88-3.68zm-7.13-5.46l-523.79 516.55 2.34 1.79L1859.74-9.14zm-7.14-5.46l-523.79 516.55 2.34 1.79L1852.6-14.6zm-7.14-5.46l-523.79 516.55 2.34 1.79 523.79-516.56zm-7.12-5.47l-523.81 516.56 2.34 1.79 523.79-516.56zm-7.13-5.45l-523.82 516.55 2.34 1.79L1831.18-31zm-7.14-5.46l-523.81 516.56 2.34 1.79L1824-36.43zm-7.14-5.46l-523.81 516.56 2.34 1.79 523.79-516.56zm-7.14-5.46l-523.81 516.56 2.35 1.8 523.78-516.57zm-7.13-5.46L1276.5 462l2.35 1.79L1802.63-52.8zm-7.17-5.4l-523.79 516.51 2.34 1.79 523.79-516.56zm-7.15-5.51L1262.22 451l2.34 1.79 523.79-516.51zm-7.13-5.49l-523.79 516.59 2.34 1.79 523.79-516.56zm-7.14-5.46l-523.79 516.59 2.34 1.79 523.79-516.55zm-7.14-5.46l-523.79 516.6 2.35 1.79 523.78-516.56zm-7.14-5.46l-523.79 516.6L1236 431l523.79-516.55zm-7.14-5.46l-523.78 516.6 2.34 1.79L1752.66-91zm-7.14-5.46l-523.78 516.6 2.35 1.79 523.78-516.55zm-7.15-5.47l-523.78 516.61 2.34 1.79 523.79-516.56zm-7.14-5.46L1205.1 407.38l2.34 1.79 523.79-516.56zm-7.14-5.46L1198 401.92l2.34 1.79 523.79-516.56zm-7.14-5.46l-523.78 516.61 2.34 1.79 523.79-516.56zm-7.14-5.46L1183.68 391l2.35 1.79 523.78-516.56zm-7.14-5.45l-523.78 516.61 2.34 1.79 523.79-516.56zm-7.14-5.46L1169.4 380.09l2.35 1.8 523.78-516.56zM1686-142l-523.74 516.63 2.34 1.79 523.8-516.56zm-7.14-5.46l-523.74 516.63 2.35 1.79 523.79-516.55zm-7.14-5.46L1148 363.72l2.34 1.79L1674.12-151zm-7.14-5.46l-523.73 516.64 2.34 1.79L1667-156.51zm-7.14-5.46L1133.71 352.8l2.34 1.79L1659.84-162zm-7.14-5.46l-523.72 516.65 2.34 1.79 523.79-516.56zm-7.14-5.46l-523.73 516.65 2.35 1.79 523.79-516.56zm-7.14-5.46l-523.73 516.65 2.34 1.79 523.79-516.56zm-7.14-5.46L1105.16 331l2.34 1.79 523.79-516.55zm-7.14-5.45L1098 325.51l2.34 1.79 523.78-516.56zm-7.14-5.46l-523.72 516.65 2.34 1.79L1617-194.71zm-7.13-5.45L1083.74 314.6l2.34 1.79 523.79-516.56zm-7.14-5.46L1076.6 309.14l2.34 1.79 523.78-516.56zm-7.14-5.46l-523.72 516.64 2.34 1.79 523.79-516.56zm-7.14-5.46l-523.72 516.65 2.34 1.79 523.79-516.56zm-7.14-5.46l-523.72 516.65 2.34 1.79L1581.32-222zm-7.14-5.46L1048 287.31l2.34 1.79 523.79-516.56zm-7.14-5.46l-523.72 516.65 2.35 1.79L1567-232.92zm-7.14-5.46l-523.72 516.65 2.35 1.79 523.78-516.55zm-7.14-5.46l-523.72 516.66 2.34 1.79 523.79-516.56zm-7.13-5.46l-523.73 516.66 2.34 1.79 523.79-516.56zm-7.14-5.46L1012.36 260l2.34 1.79 523.79-516.56zM1529-262l-523.78 516.56 2.34 1.79 523.79-516.55zm-7.14-5.46L998.08 249.11l2.34 1.79 523.78-516.56zm-7.14-5.46L990.94 243.65l2.34 1.79 523.79-516.56zm-7.14-5.46L983.8 238.19l2.34 1.79 523.79-516.56zm-7.14-5.46L976.66 232.74l2.35 1.79L1502.79-282zm-7.13-5.46L969.52 227.28l2.34 1.79 523.79-516.56zm-7.14-5.46L962.38 221.82l2.35 1.79L1488.52-293zm-7.17-5.44L955.25 216.36l2.34 1.79 523.79-516.56zm-7.14-5.46L948.11 210.9l2.34 1.79 523.78-516.56zm-7.14-5.46L941 205.45l2.34 1.79 523.78-516.56zm-7.14-5.46L933.83 200l2.34 1.79L1460-314.78zm-7.14-5.46L926.69 194.53l2.34 1.79 523.79-516.56zm-7.14-5.46L919.55 189.07l2.34 1.79 523.79-516.56zm-7.14-5.46L912.42 183.61l2.34 1.79 523.79-516.56zm-7.14-5.46L905.28 178.16l2.34 1.79 523.79-516.56zm-7.14-5.46L898.14 172.7l2.34 1.79 523.79-516.56zm-7.13-5.46L891 167.24l2.35 1.79 523.78-516.56zm-7.14-5.46L883.86 161.78l2.35 1.79L1410-353zm-7.14-5.46L876.72 156.33l2.34 1.79 523.79-516.56zm-7.14-5.46L869.58 150.87l2.34 1.79 523.79-516.56zm-7.14-5.46L862.44 145.41l2.35 1.79 523.79-516.56zm-7.14-5.46L855.3 140l2.35 1.79 523.78-516.56zm-7.14-5.46L848.17 134.5l2.34 1.79 523.79-516.56zm-7.14-5.46L841 129l2.34 1.79 523.79-516.56zm-7.14-5.46l-523.74 516.6 2.34 1.79L1360-391.19z"/></g><g class="cls-5"><path class="cls-6" d="M1464.43 180.86L940.65 697.42l-2.34-1.79 523.79-516.56zm-9.48-7.25L931.17 690.17l2.34 1.79 523.78-516.56zm-7.14-5.46L924 684.71l2.35 1.79 523.78-516.56zm-7.14-5.46L916.89 679.26l2.34 1.79L1443 164.49zm-7.14-5.46L909.75 673.8l2.34 1.79L1435.88 159zm-7.14-5.46L902.61 668.34l2.35 1.79 523.79-516.56zm-7.14-5.46L895.47 662.88l2.34 1.79 523.79-516.56zm-7.14-5.46L888.33 657.42l2.35 1.79 523.79-516.56zm-7.13-5.46L881.2 652l2.34 1.79 523.79-516.59zm-7.14-5.46L874.06 646.51l2.34 1.79 523.79-516.56zm-7.13-5.45L866.92 641l2.34 1.79L1393 126.29zm-7.14-5.46L859.78 635.6l2.34 1.79 523.78-516.56zm-7.14-5.45L852.64 630.14l2.34 1.79 523.79-516.56zm-7.13-5.46L845.5 624.68l2.35 1.79 523.78-516.56zm-7.14-5.46L838.37 619.22l2.35 1.79 523.78-516.55zm-7.16-5.44L831.23 613.77l2.34 1.79L1357.36 99zm-7.14-5.46L824.09 608.31l2.34 1.79 523.79-516.56zm-7.14-5.46L817 602.85l2.34 1.79 523.74-516.56zm-7.14-5.46L809.81 597.39l2.35 1.79 523.78-516.56zm-7.14-5.46L802.67 591.93l2.34 1.79L1328.8 77.17zm-7.14-5.46L795.54 586.48l2.34 1.79 523.78-516.56zm-7.14-5.46L788.4 581l2.34 1.79 523.78-516.54zM1305 59L781.26 575.56l2.35 1.79 523.77-516.56zm-7.14-5.46L774.12 570.1l2.34 1.79 523.79-516.56zm-7.14-5.46L767 564.65l2.34 1.79 523.77-516.56zm-7.14-5.46L759.84 559.19l2.35 1.79L1286 44.42zm-7.14-5.46L752.7 553.73l2.35 1.79L1278.83 39zm-7.14-5.46L745.56 548.27l2.35 1.79 523.78-516.55zm-7.14-5.46L738.43 542.82l2.34 1.79L1264.55 28zm-7.16-5.46L731.29 537.36l2.34 1.79 523.79-516.56zm-7.14-5.46L724.14 531.9l2.35 1.79 523.79-516.56zm-7.14-5.46L717 526.44l2.35 1.79 523.79-516.55zm-7.12-5.46L709.87 521l2.35 1.79L1236 6.22zm-7.08-5.4L702.73 515.53l2.34 1.79L1228.86.76zm-7.14-5.46L695.6 510.07l2.34 1.79L1221.72-4.7zm-7.14-5.46L688.46 504.61l2.35 1.79 523.77-516.55zm-7.14-5.46L681.31 499.16l2.34 1.79 523.8-516.56zm-7.1-5.48L674.18 493.7l2.34 1.79 523.79-516.56zm-7.13-5.46L667 488.24l2.34 1.79 523.83-516.56zm-7.14-5.46L659.9 482.78l2.34 1.79L1186-32zm-7.14-5.46L652.76 477.32l2.34 1.79 523.79-516.55zm-7.14-5.46L645.62 471.87l2.34 1.79L1171.75-42.9zm-7.13-5.46L638.48 466.41l2.34 1.79 523.79-516.56zm-7.14-5.46L631.35 461l2.34 1.79 523.79-516.61zm-7.18-5.45L624.21 455.5l2.34 1.79 523.79-516.56zm-7.14-5.46L617.07 450l2.35 1.8L1143.2-64.73zm-7.14-5.47L609.93 444.58l2.35 1.79 523.78-516.56zm-7.14-5.46L602.79 439.12l2.34 1.79 523.79-516.56zm-7.15-5.46L595.66 433.66l2.34 1.79L1121.78-81.1zm-7.14-5.45L588.52 428.2l2.34 1.79 523.78-516.55zm-7.14-5.46L581.37 422.75l2.34 1.79L1107.5-92zm-7.15-5.44L574.23 417.29l2.35 1.79 523.79-516.56zm-7.14-5.46L567.09 411.83l2.35 1.79 523.78-516.56zm-7.14-5.46L560 406.38l2.34 1.79 523.79-516.56zm-7.14-5.46L552.82 400.92l2.35 1.79L1079-113.85zm-7.15-5.47L545.67 395.45l2.34 1.79 523.79-516.56zm-7.14-5.46L538.53 390l2.34 1.79 523.79-516.56zm-7.14-5.46L531.39 384.53l2.34 1.79 523.79-516.56zm-7.15-5.46L524.25 379.08l2.34 1.79 523.79-516.56zm-7.14-5.46L517.11 373.62l2.35 1.79 523.78-516.56zm-7.14-5.45L510 368.16l2.34 1.79 523.76-516.56zm-7.14-5.46L502.83 362.7l2.35 1.8L1029-152.07zm-7.14-5.46L495.7 357.24 498 359l523.79-516.56zm-7.14-5.46L488.55 351.79l2.35 1.79L1014.69-163zm-7.14-5.46L481.42 346.33l2.34 1.79 523.78-516.56zm-7.16-5.46L474.28 340.88l2.34 1.79 523.79-516.56zm-7.14-5.46L467.14 335.42l2.34 1.79 523.79-516.56zm-7.14-5.46L460 330l2.34 1.79 523.8-516.6zm-7.14-5.46L452.87 324.5l2.35 1.79L979-190.27zm-7.14-5.46L445.73 319l2.34 1.79 523.78-516.52zm-7.1-5.45L438.59 313.59l2.34 1.79 523.79-516.56zm-7.14-5.46L431.45 308.13l2.34 1.79 523.79-516.56zm-7.14-5.46L424.31 302.67l2.34 1.79L950.44-212.1zm-7.06-5.42L417.17 297.21l2.34 1.79L943.3-217.55zm-7.14-5.46L410 291.76l2.34 1.79L936.16-223zm-7.14-5.46L402.9 286.3l2.34 1.79L929-228.47zm-7.14-5.46L395.76 280.84l2.34 1.79 523.79-516.56zm-7.14-5.46L388.62 275.38l2.34 1.79 523.79-516.56zm-7.14-5.46L381.48 269.93l2.34 1.79 523.79-516.56zm-7.14-5.46L374.34 264.47l2.35 1.79L900.47-250.3zm-7.16-5.45L367.2 259l2.35 1.79 523.78-516.55zm-7.15-5.45L360.06 253.55l2.34 1.79 523.79-516.56zm-7.13-5.46l-523.8 516.55 2.34 1.79L879-266.67zm-7.14-5.46L345.79 242.64l2.34 1.79 523.78-516.56zm-7.14-5.46L338.65 237.18 341 239l523.78-516.59zm-7.14-5.46L331.51 231.72l2.34 1.79L857.64-283zm-7.14-5.46L324.37 226.26l2.34 1.79L850.5-288.51zm-7.16-5.46L317.23 220.8l2.34 1.79L843.36-294zm-7.14-5.46L310.09 215.35l2.35 1.79 523.78-516.56zm-7.13-5.46L303 209.89l2.34 1.79 523.75-516.55zm-7.14-5.46L295.81 204.43l2.35 1.79L822-310.34zm-7.14-5.46L288.68 199l2.34 1.79 523.79-516.58zm-7.12-5.4L281.54 193.52l2.34 1.79 523.79-516.56zm-7.14-5.46L274.4 188.06l2.34 1.79 523.78-516.56zM791-334L267.26 182.6l2.34 1.79 523.79-516.56zm-7.14-5.46l-523.73 516.6 2.34 1.79 523.79-516.55zm-7.14-5.46L253 171.69l2.34 1.79 523.77-516.56zm-7.14-5.46L245.85 166.23l2.34 1.79L772-348.54zm-7.14-5.46L238.71 160.77l2.34 1.79L764.84-354zm-7.14-5.46L231.57 155.31l2.34 1.79L757.7-359.45zm-7.13-5.46L224.43 149.86l2.35 1.79 523.78-516.56zm-7.17-5.46L217.29 144.4l2.35 1.79 523.78-516.56zm-7.14-5.46L210.15 138.94l2.34 1.79 523.79-516.56zm-7.14-5.46L203 133.49l2.34 1.79 523.8-516.57zm-7.14-5.46L195.87 128l2.35 1.79L722-386.74zm-7.09-5.4L188.73 122.57l2.35 1.79L714.86-392.2zm-7.14-5.46L181.6 117.11l2.34 1.79 523.79-516.56zm-7.14-5.46L174.46 111.65l2.34 1.79 523.79-516.56zm-7.14-5.46L167.32 106.19l2.34 1.79 523.79-516.55z"/></g></g><g class="cls-7" id="Слой_3" data-name="Слой 3"><path class="cls-8" d="M691.43 85.86L167.65 602.42l-2.34-1.79L689.09 84.07zM682 78.61L158.17 595.17l2.34 1.79L684.29 80.4zm-7.14-5.46L151 589.71l2.35 1.79L677.16 74.94zm-7.14-5.46L143.89 584.26l2.34 1.79L670 69.49zm-7.14-5.46L136.75 578.8l2.34 1.79L662.88 64zm-7.14-5.46L129.61 573.34l2.35 1.79L655.75 58.57zm-7.14-5.46L122.47 567.88l2.34 1.79 523.8-516.55zm-7.14-5.46L115.33 562.42l2.35 1.79L641.47 47.66zM632 40.41L108.2 557l2.34 1.79L634.33 42.2zM624.86 35l-523.8 516.51 2.34 1.79L627.19 36.74zm-7.13-5.45L93.92 546l2.34 1.79L620 31.29zM610.57 24L86.78 540.6l2.34 1.79L612.91 25.83zm-7.14-5.46L79.64 535.14l2.36 1.79L605.77 20.37zm-7.13-5.46L72.5 529.68l2.35 1.79L598.63 14.92zm-7.14-5.46L65.37 524.22l2.34 1.78L591.5 9.46zM582 2.21L58.23 518.77l2.34 1.79L584.36 4zm-7.14-5.46L51.09 513.31l2.34 1.79L577.22-1.46zm-7.14-5.46L44 507.85l2.34 1.79L570.08-6.92zm-7.14-5.46L36.81 502.39l2.35 1.79L562.94-12.38zm-7.14-5.46L29.67 496.93l2.33 1.8L555.8-17.83zm-7.14-5.46L22.54 491.48l2.34 1.79L548.66-23.29zm-7.14-5.46L15.4 486l2.34 1.79L541.52-28.75zM532-36L8.26 480.56l2.35 1.79L534.38-34.21zm-7.14-5.46L1.12 475.1l2.34 1.79L527.25-39.67zm-7.14-5.46L-6 469.65l2.34 1.79L520.11-45.12zm-7.14-5.46L-13.16 464.19l2.35 1.79L513-50.58zm-7.14-5.46L-20.3 458.73l2.35 1.79L505.83-56zm-7.14-5.46L-27.44 453.27l2.35 1.79L498.69-61.49zm-7.14-5.46L-34.57 447.82l2.34 1.79L491.55-67zM482-74.22L-41.71 442.36l2.34 1.79L484.42-72.41zm-7.14-5.46L-48.86 436.9l2.35 1.79L477.28-77.87zm-7.14-5.46L-56 431.44l2.35 1.79L470.14-83.32zm-7.12-5.46L-63.13 426l2.35 1.79L463-88.78zm-7.08-5.4L-70.27 420.53l2.34 1.79L455.86-94.24zm-7.14-5.46L-77.4 415.07l2.34 1.79L448.72-99.7zm-7.14-5.46L-84.54 409.61l2.35 1.79 523.77-516.55zm-7.14-5.46L-91.69 404.16l2.34 1.79 523.8-516.56zm-7.1-5.48L-98.82 398.7l2.34 1.79 523.79-516.56zm-7.13-5.46L-106 393.24l2.34 1.79 523.83-516.56zm-7.14-5.46L-113.1 387.78l2.34 1.79L413-127zm-7.14-5.46l-523.83 516.56 2.34 1.79 523.79-516.55zm-7.14-5.46l-523.83 516.57 2.34 1.79L398.75-137.9zm-7.13-5.46l-523.84 516.57 2.34 1.79 523.79-516.56zm-7.14-5.46L-141.65 366l2.34 1.79 523.79-516.61zm-7.18-5.45L-148.79 360.5l2.34 1.79 523.79-516.56zm-7.14-5.46L-155.93 355l2.35 1.8L370.2-159.73zm-7.14-5.47l-523.79 516.58 2.35 1.79 523.78-516.56zm-7.14-5.46l-523.79 516.58 2.34 1.79 523.79-516.56zm-7.15-5.46l-523.77 516.58 2.34 1.79L348.78-176.1zm-7.14-5.46L-184.48 333.2l2.34 1.79 523.78-516.55zm-7.14-5.46l-523.78 516.59 2.34 1.79L334.5-187zm-7.15-5.43l-523.77 516.56 2.35 1.79 523.79-516.56zm-7.14-5.46l-523.77 516.56 2.35 1.79 523.78-516.56zm-7.14-5.46L-213 311.38l2.34 1.79 523.75-516.56zm-7.14-5.46l-523.76 516.57 2.35 1.79L306-208.85zm-7.15-5.47l-523.76 516.57 2.34 1.79 523.78-516.56zm-7.14-5.46L-234.47 295l2.34 1.79 523.79-516.57zm-7.11-5.42l-523.79 516.53 2.34 1.79 523.79-516.56zm-7.18-5.48l-523.75 516.56 2.34 1.79 523.79-516.56zm-7.14-5.46l-523.75 516.56 2.35 1.79 523.78-516.56zm-7.14-5.45L-263 273.16l2.34 1.79L263.1-241.61zm-7.14-5.46L-270.17 267.7l2.35 1.8L256-247.07zm-7.14-5.46L-277.3 262.24l2.3 1.76 523.83-516.52zm-7.14-5.46l-523.75 516.56 2.35 1.79L241.69-258zm-7.14-5.46l-523.74 516.56 2.34 1.79 523.79-516.56zm-7.16-5.46l-523.72 516.57 2.34 1.79 523.79-516.56zm-7.14-5.46l-523.72 516.57 2.34 1.79 523.79-516.56zm-7.14-5.46L-313 235l2.34 1.79 523.8-516.6zm-7.14-5.46L-320.13 229.5l2.35 1.79L206-285.27zm-7.14-5.46L-327.27 224l2.34 1.79 523.78-516.52zm-7.07-5.47l-523.78 516.59 2.34 1.79 523.79-516.56zm-7.14-5.46l-523.78 516.59 2.34 1.79 523.79-516.56zm-7.14-5.46l-523.78 516.59 2.34 1.79L177.44-307.1zm-7.09-5.42l-523.83 516.55 2.34 1.79L170.3-312.55zm-7.14-5.46L-363 196.76l2.34 1.79L163.16-318zm-7.14-5.46L-370.1 191.3l2.34 1.79L156-323.47zm-7.14-5.46l-523.82 516.56 2.34 1.79 523.79-516.56zm-7.14-5.46l-523.82 516.56 2.34 1.79 523.79-516.56zm-7.14-5.46l-523.82 516.57 2.34 1.79 523.79-516.56zm-7.14-5.46l-523.82 516.57 2.35 1.79L127.47-345.3zm-7.16-5.45L-405.8 164l2.35 1.79 523.78-516.55zm-7.15-5.45l-523.79 516.55 2.34 1.79 523.79-516.56zm-7.13-5.46l-523.8 516.55 2.34 1.79 523.79-516.55zm-7.14-5.46l-523.79 516.56 2.34 1.79L98.91-367.13zm-7.14-5.46l-523.79 516.56L-432 144 91.78-372.59zm-7.14-5.46l-523.79 516.56 2.34 1.79L84.64-378zm-7.14-5.46l-523.79 516.56 2.34 1.79L77.5-383.51zM68-390.76L-455.77 125.8l2.34 1.79L70.36-389zm-7.14-5.46l-523.77 516.57 2.35 1.79L63.22-394.42zm-7.13-5.46L-470 114.89l2.34 1.79L56.09-399.87zm-7.14-5.46l-523.78 516.57 2.35 1.79L49-405.34zm-7.14-5.46L-484.32 104l2.34 1.79L41.81-410.79zm-7.12-5.4L-491.46 98.52l2.34 1.79L34.67-416.25zm-7.14-5.46L-498.6 93.06l2.34 1.79L27.52-421.71zM18-429L-505.74 87.6l2.34 1.79L20.39-427.17zm-7.14-5.46l-523.73 516.6 2.34 1.79L13.26-432.62zm-7.14-5.46L-520 76.69l2.34 1.79L6.11-438.08zm-7.14-5.46L-527.15 71.23l2.34 1.79L-1-443.54zm-7.14-5.46L-534.29 65.77l2.34 1.79L-8.16-449zm-7.14-5.46L-541.43 60.31l2.34 1.79L-15.3-454.45zm-7.13-5.46L-548.57 54.86l2.35 1.79 523.78-516.56zm-7.17-5.46L-555.71 49.4l2.35 1.79 523.78-516.56zm-7.14-5.46L-562.85 43.94l2.34 1.79 523.79-516.56zm-7.14-5.46L-570 38.49l2.34 1.79 523.8-516.57zm-7.14-5.46L-577.13 33l2.35 1.79L-51-481.74zm-7.09-5.4L-584.27 27.57l2.35 1.79L-58.14-487.2zm-7.14-5.46L-591.4 22.11l2.34 1.79 523.79-516.56zm-7.14-5.46L-598.54 16.65l2.34 1.79 523.79-516.56zm-7.14-5.46L-605.68 11.19l2.34 1.79 523.79-516.55z"/></g></svg>