<svg id="Layer_1" data-name="Layer 1" xmlns="http://www.w3.org/2000/svg" viewBox="0 0 1200 500.35"><defs><style>.cls-1{fill:none}.cls-2{clip-path:url(#clip-path)}.cls-3{fill:#6ec4e9}.cls-4{clip-path:url(#clip-path-2)}.cls-5{fill:#e6007c}</style><clipPath id="clip-path"><path class="cls-1" d="M1200 354.07l-448.75-.09 21.32 94.35L1200 500.35V354.07z"/></clipPath><clipPath id="clip-path-2"><path class="cls-1" d="M751.25 353.98H0v.58l772.57 93.77-21.32-94.35z"/></clipPath></defs><title>Artboard 1</title><g class="cls-2"><path class="cls-3" d="M1632.4 505.22l-523.78 516.56-2.34-1.79 523.79-516.56zm-9.48-7.25l-523.78 516.56 2.34 1.79 523.78-516.56zm-7.14-5.46L1092 1009.07l2.35 1.79 523.77-516.56zm-7.14-5.46l-523.79 516.56 2.34 1.79L1611 488.85zm-7.14-5.46l-523.78 516.57 2.34 1.79 523.79-516.56zm-7.14-5.46L1070.58 992.7l2.35 1.79 523.79-516.56zm-7.14-5.46l-523.78 516.57 2.34 1.79 523.79-516.56zm-7.14-5.46L1056.3 981.78l2.35 1.79L1582.43 467zm-7.13-5.46l-523.78 516.58 2.34 1.79 523.79-516.56zm-7.14-5.46L1042 970.87l2.34 1.79 523.82-516.56zm-7.13-5.45l-523.79 516.57 2.34 1.79L1561 450.65zm-7.14-5.46L1027.75 960l2.34 1.79 523.78-516.56zm-7.14-5.46L1020.61 954.5l2.34 1.79 523.79-516.56zm-7.13-5.46L1013.47 949l2.35 1.79 523.78-516.51zm-7.14-5.46l-523.8 516.58 2.35 1.79 523.79-516.56zm-7.14-5.46L999.2 938.13l2.34 1.79 523.78-516.56zm-7.14-5.46L992.06 932.67l2.34 1.79 523.79-516.56zm-7.14-5.46L984.92 927.21l2.34 1.79L1511 412.44zm-7.14-5.46L977.78 921.75l2.35 1.79L1503.91 407zm-7.14-5.46L970.64 916.29l2.34 1.79 523.79-516.56zm-7.14-5.46l-523.78 516.6 2.34 1.79 523.79-516.56zm-7.14-5.46l-523.79 516.6 2.34 1.79 523.78-516.56zm-7.13-5.46l-523.8 516.6 2.35 1.79 523.78-516.56zm-7.14-5.46l-523.79 516.6 2.34 1.79 523.79-516.56zm-7.14-5.46L934.95 889l2.34 1.79 523.79-516.56zm-7.14-5.4L927.81 883.55l2.35 1.79 523.78-516.56zm-7.14-5.46L920.67 878.09l2.35 1.79 523.78-516.56zm-7.14-5.46L913.53 872.63l2.35 1.79 523.79-516.56zm-7.14-5.46L906.39 867.18l2.34 1.79 523.78-516.56zm-7.14-5.46L899.25 861.72l2.34 1.79L1425.38 347zm-7.14-5.46L892.11 856.26l2.35 1.79 523.79-516.56zm-7.14-5.46L885 850.8l2.35 1.8L1411.11 336zm-7.14-5.46L877.84 845.35l2.35 1.79L1404 330.58zm-7.14-5.46L870.7 839.89l2.34 1.79 523.79-516.56zm-7.14-5.46L863.57 834.43l2.34 1.79 523.79-516.56zm-7.14-5.46L856.42 829l2.35 1.79 523.78-516.56zm-7.14-5.46L849.28 823.52l2.34 1.79 523.79-516.56zm-7.14-5.46L842.14 818.06l2.34 1.79 523.79-516.56zm-7.13-5.46L835 812.6l2.34 1.79 523.79-516.56zm-7.14-5.46L827.87 807.14l2.34 1.79L1354 292.37zm-7.14-5.46L820.73 801.68l2.34 1.79 523.79-516.56zm-7.14-5.46L813.59 796.23l2.34 1.79 523.78-516.56zm-7.13-5.45L806.45 790.77l2.34 1.79L1332.58 276zm-7.14-5.46L799.31 785.31l2.34 1.79 523.79-516.56zm-7.14-5.46L792.18 779.86l2.34 1.79 523.79-516.56zm-7.14-5.46L785 774.39l2.35 1.8 523.79-516.56zm-7.13-5.46L777.9 768.94l2.35 1.79L1304 254.17zm-7.14-5.46L770.76 763.48l2.34 1.79 523.79-516.56zm-7.15-5.46L763.62 758l2.34 1.79 523.78-516.56zm-7.14-5.46L756.48 752.56l2.34 1.79 523.79-516.55zm-7.14-5.46l-523.78 516.6 2.34 1.79 523.78-516.56zm-7.14-5.46L742.2 741.65l2.35 1.79 523.79-516.56zm-7.14-5.46l-523.78 516.6 2.35 1.79 523.78-516.56zm-7.14-5.46L727.93 730.74l2.34 1.79L1254.05 216zm-7.14-5.46L720.79 725.28l2.35 1.79 523.79-516.56zm-7.15-5.47L713.63 719.81l2.37 1.79L1239.76 205zm-7.14-5.46L706.5 714.35l2.34 1.79 523.79-516.56zm-7.14-5.46L699.36 708.89l2.34 1.79 523.79-516.56zm-7.14-5.46L692.22 703.44l2.34 1.79 523.79-516.56zm-7.14-5.46L685.08 698l2.35 1.79 523.78-516.56zm-7.14-5.45L677.94 692.52l2.34 1.79 523.79-516.56zm-7.14-5.46L670.8 687.06l2.35 1.8 523.78-516.56zm-7.14-5.46L663.66 681.6l2.34 1.8 523.79-516.56zm-7.14-5.46L656.52 676.15l2.35 1.79 523.79-516.55zm-7.14-5.46L649.39 670.69l2.34 1.79 523.78-516.56zm-7.14-5.46L642.25 665.24l2.34 1.79 523.79-516.56zm-7.14-5.46L635.11 659.78l2.34 1.79L1161.24 145zm-7.14-5.46L628 654.32l2.34 1.79 523.79-516.56zm-7.14-5.46L620.83 648.86l2.35 1.79L1147 134.09zm-7.14-5.46L613.69 643.4l2.34 1.79 523.79-516.56zm-7.14-5.46L606.56 637.95l2.34 1.79 523.79-516.55zm-7.14-5.45L599.42 632.49l2.34 1.79 523.78-516.56zm-7.14-5.46L592.28 627l2.34 1.79 523.79-516.56zm-7.13-5.45L585.14 621.57l2.34 1.79 523.79-516.56zm-7.14-5.46L578 616.12l2.34 1.79 523.78-516.56zm-7.14-5.46L570.87 610.66l2.34 1.79L1097 95.89zm-7.14-5.46L563.73 605.2l2.34 1.79 523.79-516.56zm-7.14-5.46L556.59 599.74l2.34 1.79L1082.72 85zm-7.14-5.46L549.45 594.29l2.34 1.79 523.79-516.56zm-7.14-5.46L542.31 588.83l2.35 1.79 523.78-516.56zm-7.06-5.38L535.17 583.37l2.35 1.79L1061.3 68.6zm-7.14-5.46L528 577.91l2.34 1.79 523.82-516.56zm-7.13-5.46L520.89 572.45l2.34 1.79L1047 57.69zm-7.14-5.46L513.75 567l2.34 1.79 523.79-516.56zM1030.4 45L506.62 561.54l2.34 1.79 523.79-516.56zm-7.14-5.46L499.48 556.08l2.34 1.79 523.79-516.56zm-7.14-5.46L492.34 550.62l2.34 1.79 523.79-516.56zM1009 28.6L485.2 545.17l2.34 1.79L1011.33 30.4zm-7.14-5.46l-523.8 516.57 2.35 1.79 523.78-516.56zm-7.13-5.46L470.92 534.25l2.34 1.79L997.05 19.49zm-7.14-5.46L463.78 528.79l2.35 1.79L989.91 14zm-7.14-5.46l-523.8 516.58 2.34 1.79L982.78 8.57zm-7.14-5.46l-523.8 516.58 2.34 1.79L975.63 3.11zm-7.14-5.46l-523.8 516.58 2.34 1.79L968.49-2.35zM959-9.6L435.23 507l2.34 1.79L961.36-7.81zm-7.14-5.46L428.09 501.5l2.34 1.79L954.22-13.26zm-7.14-5.46L421 496l2.34 1.79L947.08-18.72zM937.6-26L413.82 490.59l2.34 1.79L939.94-24.18zm-7.14-5.46L406.68 485.13l2.34 1.79L932.81-29.64zm-7.14-5.46L399.54 479.67l2.34 1.79L925.67-35.09zm-7.13-5.46L392.4 474.22l2.35 1.79L918.53-40.55zM909-47.8L385.26 468.76l2.35 1.79L911.39-46zm-7.14-5.46L378.12 463.3l2.34 1.79L904.25-51.47zm-7.14-5.46L371 457.85l2.34 1.79L897.11-56.93zm-7.14-5.46L363.84 452.39l2.35 1.79L890-62.38zm-7.14-5.46L356.7 446.93l2.35 1.79L882.83-67.84zm-7.14-5.46L349.56 441.47l2.34 1.79L875.69-73.3zm-7.14-5.46L342.42 436l2.34 1.79L868.55-78.76zM859.07-86L335.29 430.55l2.34 1.79L861.42-84.21z"/></g><g class="cls-4"><path class="cls-5" d="M1104.83 487.84L581 1004.4l-2.34-1.79L1102.49 486zm-9.48-7.25L571.57 997.14l2.34 1.79 523.78-516.56zm-7.14-5.46L564.42 991.69l2.35 1.79 523.78-516.56zm-7.14-5.46L557.29 986.23l2.34 1.79 523.79-516.56zm-7.14-5.46L550.15 980.77l2.34 1.79L1076.28 466zm-7.14-5.46L543 975.31l2.35 1.79 523.79-516.56zm-7.14-5.46L535.87 969.86l2.34 1.79L1062 455.09zm-7.14-5.46L528.73 964.4l2.35 1.79 523.79-516.56zm-7.13-5.46L521.6 958.94l2.34 1.79 523.79-516.56zm-7.14-5.46L514.46 953.49l2.34 1.79 523.79-516.56zm-7.13-5.45L507.32 948l2.34 1.79 523.78-516.56zM1024 426L500.18 942.57l2.34 1.79 523.79-516.56zm-7.14-5.45L493 937.11l2.34 1.79 523.79-516.56zm-7.13-5.46L485.9 931.66l2.35 1.79L1012 416.89zm-7.14-5.46L478.77 926.2l2.35 1.79 523.78-516.56zm-7.14-5.46L471.63 920.74l2.34 1.79L997.75 406zm-7.14-5.46L464.49 915.28l2.34 1.79 523.79-516.55zm-7.14-5.46L457.35 909.83l2.34 1.79 523.79-516.56zm-7.17-5.44L450.21 904.37l2.35 1.79L976.34 389.6zm-7.14-5.46L443.07 898.91l2.34 1.79L969.2 384.14zm-7.14-5.46L435.94 893.45l2.34 1.79 523.78-516.56zm-7.14-5.46L428.8 888l2.34 1.79 523.78-516.57zm-7.13-5.43L421.66 882.54l2.35 1.79 523.77-516.56zm-7.14-5.46L414.52 877.08l2.34 1.79 523.79-516.56zm-7.14-5.46L407.38 871.62l2.34 1.79 523.79-516.55zm-7.17-5.47L400.24 866.16l2.35 1.79L926.37 351.4zm-7.14-5.46L393.1 860.71l2.35 1.79 523.78-516.56zm-7.14-5.46L386 855.25l2.35 1.79 523.74-516.56zm-7.14-5.46L378.83 849.79l2.34 1.79L905 335zm-7.14-5.46L371.69 844.34l2.34 1.79 523.78-516.56zm-7.14-5.46L364.54 838.87l2.35 1.79 523.79-516.55zm-7.14-5.46L357.41 833.42l2.35 1.79 523.78-516.56zm-7.14-5.46L350.27 828l2.35 1.79 523.78-516.6zm-7.14-5.46L343.13 822.5l2.34 1.79 523.79-516.55zm-7.14-5.46L336 817l2.34 1.79 523.78-516.51zm-7.1-5.47L328.86 811.59l2.35 1.79L855 296.82zm-7.14-5.46L321.71 806.13l2.34 1.79 523.8-516.56zm-7.14-5.46L314.58 800.67l2.34 1.79L840.71 285.9zm-7.13-5.46L307.44 795.21l2.34 1.79 523.79-516.55zm-7.14-5.46L300.3 789.76l2.34 1.79L826.43 275zm-7.14-5.46L293.16 784.3l2.34 1.79 523.79-516.56zm-7.14-5.46L286 778.84l2.34 1.79 523.81-516.56zm-7.13-5.46l-523.8 516.6 2.34 1.79L805 258.62zm-7.14-5.46L271.75 767.93l2.34 1.79 523.79-516.56zm-7.14-5.46L264.61 762.47l2.34 1.79L790.74 247.7zm-7.14-5.46L257.47 757l2.35 1.8L783.6 242.24zm-7.14-5.4L250.33 751.55l2.35 1.79 523.78-516.55zm-7.12-5.46L243.19 746.1l2.34 1.79 523.79-516.56zm-7.15-5.46l-523.8 516.56 2.34 1.79 523.79-516.56zm-7.14-5.46L228.92 735.18l2.34 1.79L755 220.41zm-7.14-5.46l-523.8 516.56 2.34 1.79L747.9 215zm-7.14-5.46l-523.8 516.56 2.35 1.79L740.77 209.5zm-7.14-5.46L207.49 718.8l2.35 1.79L733.62 204zm-7.14-5.46L200.36 713.35l2.34 1.79 523.79-516.56zm-7.15-5.45L193.22 707.89l2.35 1.79 523.78-516.55zm-7.15-5.47L186.07 702.42l2.34 1.79 523.78-516.56zm-7.14-5.46L178.93 697l2.34 1.79L705.06 182.2zm-7.14-5.46L171.79 691.51l2.34 1.79 523.79-516.56zm-7.14-5.46L164.65 686.05l2.34 1.79 523.79-516.56zM681.3 164L157.51 680.59l2.35 1.79 523.78-516.55zm-7.14-5.45L150.37 675.13l2.34 1.79L676.5 160.37zm-7.16-5.43L143.23 669.67l2.35 1.8 523.78-516.56zm-7.14-5.46L136.1 664.22l2.34 1.79 523.79-516.56zm-7.14-5.46L129 658.76l2.35 1.79L655.09 144zm-7.14-5.46L121.82 653.31l2.34 1.79 523.79-516.56zm-7.14-5.46L114.68 647.85l2.34 1.79 523.79-516.56zm-7.14-5.46L107.54 642.39l2.34 1.79 523.79-516.56zm-7.14-5.46L100.41 636.94l2.34 1.79 523.79-516.56zm-7.14-5.46L93.26 631.47l2.35 1.79L619.4 116.71zm-7.14-5.46L86.13 626l2.34 1.79 523.78-516.54zm-7.11-5.44L79 620.56l2.34 1.79 523.78-516.56zm-7.14-5.46L71.85 615.1l2.34 1.79L598 100.33zm-7.14-5.46L64.71 609.65l2.34 1.79L590.84 94.88zm-7.13-5.45L57.57 604.19l2.35 1.81L583.7 89.42zm-7.14-5.46L50.44 598.73l2.34 1.79L576.56 84zm-7.14-5.46L43.3 593.27l2.34 1.79L569.43 78.5zm-7.14-5.46L36.16 587.82l2.34 1.79L562.29 73zm-7.14-5.45L29 582.36l2.34 1.79L555.15 67.59zm-7.14-5.46L21.88 576.9l2.34 1.79L548 62.13zm-7.14-5.46L14.74 571.44l2.35 1.79L540.87 56.67zm-7.14-5.46L7.6 566l2.35 1.79L533.73 51.22zM524.25 44L.46 560.53l2.34 1.79L526.59 45.76zm-7.13-5.46L-6.68 555.07l2.34 1.79L519.45 40.3zM510 33.05L-13.81 549.61l2.34 1.79L512.31 34.84zm-7.14-5.46L-21 544.15l2.34 1.79L505.18 29.38zm-7.14-5.46L-28.09 538.7l2.34 1.79L498 23.93zm-7.14-5.46L-35.23 533.24l2.34 1.79L490.9 18.47zm-7.14-5.46L-42.37 527.78l2.34 1.79L483.76 13zm-7.14-5.46L-49.51 522.32l2.35 1.79L476.62 7.56zM467.14.3L-56.64 516.87l2.34 1.79L469.49 2.1zM460-5.15L-63.79 511.41l2.35 1.79L462.35-3.36zm-7.14-5.46L-70.92 505.95l2.34 1.79L455.21-8.82zm-7.14-5.46L-78.06 500.49l2.34 1.79L448.06-14.28zm-7.14-5.46L-85.2 495l2.34 1.79L440.92-19.74zM431.45-27L-92.34 489.58l2.34 1.79L433.79-25.19zm-7.14-5.46L-99.47 484.12l2.34 1.79L426.66-30.65zm-7.14-5.46l-523.79 516.58 2.34 1.79L419.51-36.11zM410-43.36L-113.75 473.2l2.34 1.79L412.38-41.56zm-7.14-5.46l-523.75 516.57 2.34 1.79L405.24-47zm-7.14-5.46L-128 462.29l2.34 1.79L398.1-52.48zm-7.13-5.46l-523.76 516.57 2.35 1.79L391-57.94zm-7.14-5.46l-523.76 516.57 2.35 1.79L383.82-63.4zm-7.14-5.46l-523.76 516.57 2.34 1.79L376.68-68.85zm-7.11-5.44l-523.78 516.56 2.34 1.79L369.54-74.31zm-7.14-5.46L-163.73 435l2.35 1.79L362.41-79.77zM352.92-87l-523.79 516.54 2.35 1.79L355.26-85.23zm-7.14-5.46L-178 424.08l2.34 1.79L348.13-90.69zm-7.14-5.46l-523.78 516.55 2.34 1.79L341-96.14zm-7.14-5.46l-523.78 516.55 2.34 1.79L333.85-101.6z"/></g><path class="cls-5" d="M751.25 353.98H0V-25.47l671.41 26 79.84 353.45z"/></svg>