<svg xmlns="http://www.w3.org/2000/svg" viewBox="0 0 3582.53 1220.17"><defs><style>.cls-1{fill:none}.cls-2{clip-path:url(#clip-path)}.cls-3{fill:#6ec4e9}.cls-4{clip-path:url(#clip-path-2)}.cls-5{fill:#e6007c}.cls-6{clip-path:url(#clip-path-3)}.cls-7{fill:#c3e6fa}</style><clipPath id="clip-path"><path class="cls-1" d="M3306.32 552.46l-1059.24-.09 27.9 94.35 1031.34 103.02V552.46z"/></clipPath><clipPath id="clip-path-2"><path class="cls-1" d="M2247.08 552.37h-983.45v.58l1011.35 93.77-27.9-94.35z"/></clipPath><clipPath id="clip-path-3"><path class="cls-1" d="M792.88 551.72h470.18v-.59l-470.18-45.76v46.35z"/></clipPath></defs><title>ambassadors-bg</title><g id="Слой_2" data-name="Слой 2"><g id="Слой_2-2" data-name="Слой 2"><g class="cls-2"><path class="cls-3" d="M3582.53 703.61l-685.68 516.56-3.07-1.79 685.68-516.56zm-12.41-7.25l-685.68 516.56 3.07 1.79 685.68-516.56zm-9.34-5.46l-685.68 516.56 3.08 1.79 685.67-516.56zm-9.34-5.46L2865.76 1202l3.06 1.79 685.68-516.56zm-9.35-5.46l-685.68 516.56 3.06 1.79 685.68-516.56zm-9.34-5.46l-685.68 516.56 3.07 1.79 685.68-516.56zm-9.35-5.46l-685.68 516.56 3.07 1.79 685.69-516.56zm-9.35-5.46l-685.68 516.56 3.07 1.79 685.68-516.56zm-9.34-5.46L2819 1174.72l3.06 1.79L3507.78 660zm-9.35-5.46l-685.67 516.56 3.06 1.79 685.68-516.56zm-9.34-5.45l-685.68 516.57 3.07 1.79L3489.09 649zm-9.35-5.46L2791 1158.35l3.07 1.79 685.68-516.56zm-9.35-5.46l-685.68 516.56 3.06 1.79 685.7-516.54zm-9.34-5.46l-685.68 516.58 3.08 1.79 685.68-516.56zm-9.35-5.46L2763 1142l3.07 1.79 685.68-516.56zm-9.35-5.46l-685.67 516.56 3.07 1.79 685.68-516.56zm-9.28-5.43l-685.68 516.56 3.07 1.79L3433 616.29zm-9.34-5.46l-685.73 516.56 3.06 1.79 685.68-516.56zm-9.34-5.46l-685.68 516.56 3.07 1.79 685.67-516.56zm-9.35-5.46l-685.68 516.56 3.07 1.79L3405 599.92zm-9.35-5.46l-685.72 516.57 3.1 1.77 685.68-516.56zm-9.35-5.46l-685.68 516.56 3.07 1.79L3386.29 589zm-9.34-5.46l-685.73 516.57 3.07 1.79 685.67-516.56zm-9.35-5.46l-685.68 516.56 3.07 1.79 685.68-516.56zm-9.34-5.46l-685.73 516.58 3.07 1.79 685.68-516.56zm-9.35-5.46l-685.68 516.56 3.07 1.79 685.67-516.56zm-9.35-5.46l-685.68 516.56 3.07 1.79 685.68-516.56zm-9.35-5.46L2641.47 1071l3.07 1.79 685.68-516.56zm-9.35-5.46l-685.68 516.56 3.07 1.79 685.65-516.53zm-9.34-5.46l-685.68 516.56 3.07 1.79 685.68-516.56zm-9.35-5.46l-685.68 516.56 3.08 1.79 685.68-516.56zm-9.34-5.46l-685.68 516.56 3.08 1.8 685.68-516.56zm-9.34-5.46l-685.68 516.56 3.07 1.79L3283.5 529zm-9.35-5.46l-685.68 516.56 3.07 1.79 685.68-516.56zm-9.35-5.46l-685.67 516.56 3.06 1.79 685.68-516.56zm-9.34-5.46l-685.68 516.56 3.07 1.79 685.64-516.51zm-9.34-5.46l-685.68 516.56 3.07 1.79 685.68-516.56zm-9.35-5.46L2548 1016.45l3.07 1.79 685.68-516.56zm-9.34-5.46L2538.68 1011l3.06 1.79 685.68-516.56zM3215 489l-685.69 516.56 3.07 1.79 685.68-516.56zm-9.35-5.46L2520 1000.07l3.07 1.79 685.68-516.56zm-9.34-5.46l-685.67 516.54 3.07 1.79 685.68-516.56zm-9.31-5.48l-685.7 516.56 3.06 1.79L3190 474.39zm-9.35-5.46L2492 983.7l3.07 1.79 685.63-516.56zm-9.35-5.46l-685.68 516.57 3.06 1.79 685.68-516.56zm-9.34-5.46l-685.69 516.56 3.07 1.8L3162 458zm-9.34-5.46l-685.7 516.57 3.07 1.79 685.68-516.56zm-9.34-5.46l-685.7 516.57 3.07 1.79 685.68-516.56zm-9.35-5.46l-685.69 516.57 3.06 1.79L3134 441.65zm-9.34-5.46L2435.89 951l3.06 1.79 685.68-516.56zm-9.35-5.46l-685.7 516.58 3.07 1.79 685.67-516.56zm-9.34-5.46L2417.19 940l3.07 1.79 685.68-516.56zm-9.34-5.46l-685.71 516.58 3.07 1.79 685.68-516.56zm-9.35-5.46l-685.7 516.59 3.06 1.79 685.68-516.56zm-9.35-5.46l-685.7 516.59 3.07 1.79 685.68-516.56zm-9.36-5.47L2379.8 918.2l3.06 1.79 685.68-516.56zm-9.35-5.46l-685.7 516.59 3.07 1.79L3059.2 398zm-9.35-5.46l-685.7 516.6 3.07 1.79 685.68-516.56zm-9.35-5.46l-685.69 516.6 3.07 1.79 685.68-516.56zm-9.35-5.46l-685.69 516.6 3.07 1.79 685.68-516.56zm-9.34-5.45l-685.69 516.59 3.07 1.79 685.68-516.56zm-9.34-5.46l-685.69 516.59 3.07 1.8 685.67-516.56zm-9.35-5.46L2314.38 880l3.07 1.79 685.68-516.56zm-9.34-5.46L2305 874.54l3.07 1.79 685.68-516.55zm-9.34-5.46l-685.7 516.6 3.07 1.79 685.68-516.56zm-9.35-5.46l-685.69 516.61 3.07 1.79 685.68-516.56zm-9.35-5.46L2277 858.17l3.07 1.79 685.68-516.56zm-9.34-5.46l-685.69 516.61 3.06 1.79 685.68-516.56zm-9.34-5.45l-685.7 516.6 3.07 1.79 685.68-516.56zm-9.35-5.46L2249 841.79l3.07 1.79L2937.71 327zm-9.35-5.46l-685.69 516.61 3.06 1.79 685.68-516.55zm-9.34-5.45l-685.69 516.6 3.07 1.79L2919 316.11zm-9.35-5.46l-685.68 516.6 3.06 1.79 685.69-516.56zm-9.34-5.45L2211.59 820l3.07 1.79 685.68-516.59zm-9.35-5.46l-685.69 516.6 3.07 1.79L2891 299.74zm-9.35-5.46L2192.9 809l3.07 1.79 685.68-516.56zm-9.35-5.46l-685.67 516.6 3.07 1.79 685.67-516.56zm-9.35-5.46l-685.67 516.6 3.07 1.79L2863 283.37zm-9.35-5.46l-685.67 516.61 3.07 1.79 685.68-516.56zm-9.35-5.46l-685.66 516.61 3.07 1.79 685.68-516.56zm-9.34-5.46l-685.67 516.61 3.07 1.79L2834.92 267zm-9.35-5.46L2136.82 776.3l3.07 1.79 685.68-516.56zm-9.34-5.46l-685.67 516.61 3.07 1.79 685.68-516.56zm-9.34-5.46l-685.67 516.62 3.07 1.79 685.68-516.56zm-9.35-5.46l-685.67 516.62 3.07 1.79 685.68-516.56zm-9.34-5.46l-685.67 516.62 3.07 1.79 685.67-516.56zm-9.35-5.46L2090.1 749l3.06 1.79 685.68-516.56zm-9.35-5.46l-685.66 516.63 3.07 1.79 685.67-516.56zm-9.34-5.46L2071.41 738.1l3.07 1.79 685.68-516.56zm-9.34-5.46l-685.67 516.63 3.07 1.79 685.68-516.56zm-9.35-5.46l-685.67 516.63 3.07 1.79 685.68-516.56zm-9.35-5.46l-685.66 516.64 3.06 1.79L2732.12 207zm-9.34-5.46L2034 716.27l3.07 1.79 685.7-516.56zm-9.34-5.46l-685.68 516.64 3.07 1.79L2713.42 196zm-9.35-5.46l-685.67 516.64 3.07 1.79 685.68-516.56zm-9.34-5.46L2006 699.9l3.06 1.79 685.69-516.56zm-9.35-5.46l-685.67 516.65 3.07 1.79 685.67-516.56zm-9.35-5.46L1987.31 689l3.06 1.79 685.68-516.56zm-9.34-5.46L1978 683.52l3.06 1.79 685.69-516.56zm-9.35-5.46l-685.66 516.65 3.06 1.79 685.68-516.55zM2645 156l-685.73 516.61 3.07 1.79L2648 157.84zm-9.35-5.46l-685.73 516.61 3.07 1.79 685.68-516.56zm-9.34-5.46l-685.73 516.61 3.07 1.79 685.68-516.56zm-9.35-5.46l-685.72 516.62 3.06 1.79L2620 141.46zm-9.34-5.46l-685.73 516.62 3.07 1.79L2610.64 136zm-9.35-5.46l-685.73 516.62 3.07 1.79 685.68-516.56zm-9.35-5.46L1903.2 639.86l3.07 1.79 685.68-516.56zm-9.35-5.46L1893.85 634.4l3.07 1.79 685.68-516.56zm-9.35-5.46l-685.71 516.63 3.07 1.79 685.68-516.56z"/></g><g class="cls-4"><path class="cls-5" d="M2709.94 686.23l-685.68 516.56-3.07-1.79 685.68-516.56zm-12.41-7.23l-685.68 516.56 3.07 1.79 685.68-516.58zm-9.34-5.46l-685.69 516.54 3.08 1.79 685.67-516.56zm-9.34-5.46l-685.68 516.56 3.06 1.79 685.68-516.56zm-9.35-5.46l-685.68 516.56 3.06 1.79 685.69-516.57zm-9.34-5.46l-685.68 516.56 3.07 1.79 685.68-516.56zm-9.35-5.46l-685.68 516.56 3.07 1.79 685.69-516.56zm-9.35-5.46l-685.68 516.56 3.07 1.79L2644.53 648zm-9.34-5.46l-685.68 516.56 3.06 1.79 685.68-516.56zm-9.35-5.46l-685.67 516.56 3.06 1.79 685.68-516.56zm-9.34-5.45l-685.68 516.56 3.07 1.79 685.68-516.56zm-9.35-5.46L1918.41 1141l3.07 1.79 685.68-516.56zm-9.35-5.46l-685.67 516.55 3.06 1.79 685.68-516.55zm-9.34-5.46L1899.71 1130l3.08 1.79 685.68-516.56zm-9.35-5.46l-685.68 516.56 3.07 1.79 685.68-516.56zm-9.35-5.46L1881 1119.13l3.07 1.79 685.68-516.56zm-9.34-5.46l-685.68 516.56 3.07 1.79 685.68-516.56zm-9.34-5.46l-685.68 516.56 3.06 1.79 685.68-516.56zm-9.34-5.46L1853 1102.76l3.07 1.79L2541.73 588zm-9.35-5.46l-685.67 516.57 3.07 1.79 685.68-516.55zm-9.35-5.46l-685.68 516.56 3.06 1.79L2523 577.07zm-9.35-5.46L1825 1086.38l3.07 1.79 685.63-516.55zm-9.34-5.46l-685.69 516.56 3.07 1.79 685.67-516.56zm-9.35-5.46l-685.68 516.56 3.07 1.79L2495 560.7zm-9.34-5.46L1796.92 1070l3.07 1.79 685.68-516.56zm-9.35-5.46l-685.68 516.56 3.07 1.79 685.67-516.56zm-9.35-5.46l-685.66 516.59 3.07 1.79L2467 544.33zm-9.35-5.46l-685.68 516.56 3.07 1.79 685.68-516.56zm-9.35-5.46l-685.68 516.56 3.07 1.79 685.68-516.56zm-9.34-5.46l-685.65 516.6 3.07 1.79L2438.94 528zm-9.35-5.46l-685.68 516.56 3.08 1.79 685.7-516.52zm-9.34-5.46l-685.66 516.6 3.08 1.79L2420.25 517zm-9.34-5.46l-685.68 516.56 3.07 1.79 685.69-516.52zm-9.35-5.46l-685.68 516.56 3.07 1.79 685.68-516.56zm-9.35-5.46l-685.67 516.56 3.06 1.79 685.68-516.56zm-9.34-5.46L1694.13 1010l3.07 1.79 685.67-516.56zm-9.34-5.46l-685.68 516.56 3.07 1.79 685.68-516.56zm-9.35-5.46l-685.66 516.61 3.07 1.79 685.68-516.56zm-9.34-5.46l-685.66 516.62 3.06 1.79 685.68-516.56zm-9.34-5.46l-685.67 516.62 3.07 1.79 685.68-516.56zm-9.35-5.46L1647.4 982.69l3.07 1.79 685.68-516.56zm-9.34-5.46l-685.67 516.62 3.07 1.79 685.68-516.56zm-9.34-5.46l-685.67 516.62 3.06 1.79L2317.46 457zm-9.35-5.46l-685.66 516.63 3.07 1.79 685.68-516.56zm-9.35-5.46L1610 960.86l3.06 1.79 685.68-516.56zm-9.34-5.46L1600.67 955.4l3.07 1.8 685.68-516.56zm-9.34-5.46l-685.67 516.63 3.07 1.79 685.68-516.56zm-9.34-5.46L1582 944.49l3.07 1.79 685.68-516.56zm-9.35-5.46L1572.64 939l3.06 1.79 685.68-516.56zM2249 417l-685.7 516.57 3.06 1.79L2252 418.8zm-9.35-5.46l-685.7 516.57 3.07 1.79 685.67-516.56zm-9.34-5.46L1544.6 922.66l3.07 1.79 685.68-516.56zm-9.34-5.46l-685.72 516.57 3.07 1.79L2224 402.43zm-9.35-5.46l-685.7 516.58 3.06 1.79L2214.66 397zm-9.35-5.46l-685.7 516.58 3.07 1.79 685.68-516.56zm-9.36-5.47L1507.2 900.81l3.06 1.79L2195.95 386zm-9.35-5.46l-685.7 516.59 3.07 1.79 685.67-516.56zm-9.35-5.46l-685.7 516.59 3.07 1.79 685.68-516.56zm-9.35-5.46l-685.69 516.59 3.07 1.79 685.68-516.56zm-9.35-5.46L1469.82 879l3.07 1.79 685.68-516.56zm-9.34-5.45l-685.69 516.58 3.07 1.79 685.68-516.56zm-9.34-5.46l-685.7 516.59 3.07 1.8 685.68-516.57zm-9.35-5.46l-685.69 516.59 3.07 1.79 685.68-516.56zm-9.34-5.46l-685.7 516.59 3.07 1.79 685.68-516.55zm-9.34-5.46l-685.7 516.6 3.07 1.79 685.68-516.56zm-9.35-5.46l-685.7 516.6 3.07 1.79 685.68-516.56zm-9.35-5.46l-685.69 516.6 3.07 1.79L2093.15 326zm-9.34-5.46l-685.69 516.61 3.06 1.79 685.68-516.56zm-9.34-5.46l-685.7 516.6 3.07 1.79 685.68-516.55zm-9.35-5.46l-685.7 516.61 3.07 1.79 685.68-516.56zm-9.35-5.46L1367 819l3.06 1.79 685.68-516.55zm-9.34-5.46l-685.69 516.61 3.07 1.79 685.67-516.56zm-9.35-5.46L1348.34 808l3.06 1.79 685.69-516.56zm-9.34-5.45L1339 802.58l3.07 1.79 685.68-516.56zm-9.35-5.46l-685.69 516.61 3.07 1.79 685.67-516.56zm-9.34-5.41l-685.69 516.56 3.07 1.79 685.67-516.55zm-9.35-5.46L1311 786.21l3 1.79 685.68-516.56zm-9.35-5.46l-685.69 516.57 3.07 1.79L1990.36 266zm-9.35-5.46l-685.68 516.57 3.07 1.79L1981 260.52zm-9.35-5.46l-685.68 516.57 3.07 1.79 685.68-516.56zm-9.34-5.46l-685.68 516.57 3.07 1.79 685.68-516.56zm-9.35-5.46l-685.68 516.58 3.07 1.79L1953 244.15zm-9.34-5.46l-685.68 516.58 3.07 1.79 685.68-516.56zm-9.34-5.46L1245.54 748l3.07 1.79 685.68-516.56zm-9.35-5.46L1236.2 742.54l3.07 1.79 685.68-516.56zm-9.34-5.46l-685.68 516.59 3.07 1.79 685.67-516.56zm-9.35-5.46l-685.68 516.59 3.06 1.79 685.68-516.56zm-9.35-5.46l-685.68 516.59 3.07 1.79 685.68-516.56zm-9.34-5.46l-685.68 516.59 3.07 1.79 685.68-516.56zm-9.34-5.46l-685.68 516.6 3.07 1.79 685.68-516.56zm-9.35-5.46l-685.69 516.6 3.07 1.79L1868.88 195zm-9.35-5.46l-685.68 516.6 3.06 1.79 685.68-516.56zm-9.34-5.46l-685.68 516.6 3.07 1.79 685.68-516.56zm-9.34-5.46l-685.69 516.6 3.07 1.79 685.67-516.56zm-9.35-5.46L1142.75 688l3.07 1.79L1831.5 173.2zm-9.34-5.46l-685.68 516.61 3.06 1.79 685.69-516.56zm-9.35-5.46l-685.68 516.61 3.07 1.79 685.67-516.56zm-9.35-5.46l-685.67 516.61 3.06 1.79 685.68-516.56zm-9.34-5.46l-685.68 516.62 3.06 1.79 685.69-516.56zm-9.35-5.46L1096 660.68l3.06 1.79 685.68-516.56zm-9.34-5.46l-685.68 516.62 3.07 1.79 685.67-516.56zm-9.35-5.46l-685.68 516.62 3.07 1.79L1766.08 135zm-9.34-5.46L1068 644.3l3.07 1.79 685.68-516.56zm-9.35-5.46l-685.67 516.63 3.06 1.79 685.68-516.56zm-9.34-5.46L1049.3 633.39l3.07 1.79L1738 118.62zm-9.35-5.46l-685.68 516.63 3.07 1.79 685.68-516.56zm-9.35-5.46l-685.67 516.63 3.07 1.79 685.68-516.56zm-9.35-5.46L1021.26 617l3.07 1.79L1710 102.25zm-9.34-5.38l-685.67 516.56 3.07 1.79 685.67-516.56z"/></g><path class="cls-5" d="M2247.08 552.37h-983.45l-710.31-69.98 57.6-330 1531.64 46.53 104.52 353.45z"/></g><g class="cls-6" id="Слой_3" data-name="Слой 3"><path class="cls-7" d="M1698 591.23l-685.68 516.56-3.07-1.79L1695 589.44zm-12.39-7.23l-685.67 516.54 3.07 1.79 685.68-516.56zm-9.34-5.46l-685.69 516.54 3.08 1.79 685.67-516.56zm-9.34-5.46l-685.68 516.54 3.06 1.79L1670 574.86zm-9.35-5.46L971.9 1084.16l3.1 1.84 685.65-516.6zm-9.34-5.46l-685.69 516.55 3.07 1.79 685.68-516.56zm-9.35-5.46l-685.68 516.55 3.07 1.79L1642 558.48zm-9.35-5.46l-685.68 516.55 3.07 1.79L1632.61 553zm-9.34-5.46l-685.68 516.55 3.06 1.79 685.68-516.56zm-9.35-5.46l-685.67 516.56 3.06 1.79 685.68-516.56zm-9.34-5.45l-685.68 516.55 3.07 1.79 685.68-516.56zm-9.35-5.46L906.49 1046l3.07 1.79 685.68-516.56zm-9.35-5.46L897.14 1040.5l3.06 1.79 685.68-516.56zm-9.34-5.46L887.79 1035l3.08 1.79 685.68-516.56zm-9.35-5.46l-685.67 516.56 3.07 1.79 685.68-516.56zm-9.35-5.46l-685.66 516.56 3.07 1.79 685.68-516.56zm-9.34-5.46l-685.67 516.56 3.07 1.79 685.68-516.56zm-9.34-5.46l-685.67 516.57 3.06 1.79 685.68-516.56zm-9.34-5.46l-685.68 516.57 3.07 1.79L1529.81 493zm-9.35-5.46L831.72 1002.3l3.07 1.79 685.68-516.56zm-9.35-5.46L822.38 996.84l3.06 1.79 685.68-516.56zm-9.35-5.46L813 991.38l3.07 1.79 685.67-516.56zm-9.34-5.45L803.69 985.93l3.07 1.79 685.67-516.56zm-9.35-5.46L794.34 980.47l3.07 1.79 685.68-516.56zm-9.34-5.46L785 975l3.07 1.79 685.68-516.56zm-9.35-5.46L775.66 969.55l3.07 1.79 685.67-516.55zm-9.35-5.46L766.31 964.1l3.07 1.79 685.68-516.56zm-9.35-5.46L757 958.64l3.07 1.79 685.68-516.56zm-9.35-5.46L747.62 953.18l3.07 1.79 685.68-516.56zm-9.34-5.46L738.27 947.73l3.07 1.79L1427 433zm-9.35-5.46L728.92 942.26l3.08 1.79 685.68-516.55zm-9.34-5.46L719.58 936.81l3.08 1.79L1408.33 422zm-9.34-5.46L710.24 931.35l3.07 1.79L1399 416.58zm-9.35-5.46L700.89 925.89l3.07 1.79 685.68-516.56zm-9.35-5.46l-685.64 516.6 3.06 1.79 685.68-516.56zm-9.34-5.46L682.21 915l3.07 1.79 685.67-516.56zm-9.34-5.46l-685.66 516.6 3.07 1.79 685.68-516.56zm-9.35-5.46l-685.66 516.6 3.07 1.79 685.68-516.56zm-9.34-5.46L654.17 898.61l3.06 1.79 685.68-516.56zm-9.34-5.46L644.82 893.15l3.07 1.79 685.68-516.56zm-9.35-5.46L635.48 887.69l3.07 1.79 685.68-516.56zm-9.34-5.46L626.13 882.23l3.07 1.77 685.68-516.56zm-9.34-5.46L616.79 876.77l3.06 1.79L1305.53 362zm-9.35-5.46L607.44 871.32l3.07 1.79 685.68-516.56zm-9.35-5.46L598.1 865.86l3.06 1.79 685.68-516.56zm-9.34-5.46L588.75 860.4l3.07 1.8 685.68-516.57zm-9.34-5.46L579.41 854.94l3.07 1.79 685.68-516.56zm-9.34-5.46L570.06 849.49l3.07 1.79 685.68-516.56zm-9.35-5.46L560.72 844l3.06 1.79 685.68-516.56zm-9.34-5.45L551.38 838.57l3.06 1.79 685.68-516.56zm-9.35-5.46L542 833.11l3.07 1.79 685.67-516.56zm-9.34-5.46L532.68 827.66l3.07 1.79 685.68-516.56zm-9.34-5.46L523.33 822.19l3.07 1.81 685.68-516.56zm-9.35-5.46L514 816.74l3.06 1.79L1202.74 302zm-9.35-5.46L504.65 811.28l3.07 1.79 685.68-516.55zm-9.36-5.47L495.28 805.81l3.06 1.79L1184 291zm-9.35-5.46L485.94 800.36l3.07 1.79 685.68-516.56zm-9.35-5.46L476.59 794.9l3.07 1.79 685.68-516.56zm-9.35-5.46L467.25 789.44l3.07 1.79L1156 274.67zm-9.35-5.46L457.9 784l3.07 1.79 685.68-516.56zm-9.34-5.45L448.56 778.52l3.07 1.79 685.67-516.55zm-9.34-5.46L439.21 773.07l3.07 1.8L1128 258.3zm-9.35-5.46L429.87 767.61l3.07 1.79 685.68-516.56zm-9.34-5.46L420.52 762.15l3.07 1.79 685.68-516.55zm-9.34-5.46L411.18 756.7l3.07 1.79 685.68-516.56zm-9.35-5.46L401.83 751.24l3.07 1.76 685.68-516.56zm-9.35-5.46L392.49 745.78l3.07 1.79L1081.23 231zm-9.34-5.46L383.15 740.33l3.06 1.79 685.69-516.56zm-9.34-5.46L373.8 734.86l3.07 1.79 685.68-516.55zm-9.35-5.46L364.45 729.41l3.07 1.79 685.68-516.56zm-9.35-5.46L355.11 724l3.06 1.79 685.68-516.55zm-9.34-5.46L345.77 718.49l3.07 1.79 685.67-516.56zm-9.35-5.46L336.42 713l3.06 1.79 685.69-516.56zm-9.34-5.45L327.07 707.58l3.07 1.79 685.68-516.56zm-9.35-5.46L317.73 702.12l3.07 1.79 685.67-516.56zm-9.35-5.46L308.39 696.66l3.07 1.79L997.13 181.9zm-9.35-5.46L299 691.21l3.07 1.79 685.72-516.56zm-9.35-5.46L289.69 685.75l3.07 1.79L978.44 171zm-9.34-5.35L280.35 680.29l3.07 1.79L969.1 165.52zm-9.35-5.46L271 674.83l3.07 1.79 685.68-516.56zm-9.34-5.46L261.66 669.37l3.07 1.79 685.68-516.55zm-9.31-5.45L252.31 663.92l3.07 1.79 685.68-516.56zm-9.34-5.46L243 658.46l3.07 1.79 685.64-516.56zm-9.34-5.46L233.62 653l3.07 1.79 685.68-516.56zM910 131L224.28 647.54l3.07 1.79L913 132.78zm-9.34-5.46L214.93 642.09l3.07 1.79 685.68-516.56zm-9.35-5.46L205.59 636.63l3.06 1.79 685.68-516.56zm-9.35-5.46L196.24 631.17l3.07 1.79L885 116.4zm-9.34-5.46L186.9 625.71l3.07 1.79 685.68-516.55zm-9.34-5.46L177.55 620.26l3.07 1.79L866.3 105.49zm-9.35-5.46L168.2 614.8l3.07 1.79L857 100zm-9.35-5.46L158.86 609.34l3.06 1.79L847.61 94.57zm-9.34-5.46L149.52 603.88l3.07 1.79L838.26 89.11zm-9.34-5.46L140.17 598.42l3.07 1.79L828.91 83.65zm-9.35-5.46L130.83 593l3.07 1.79L819.57 78.2zm-9.34-5.46L121.49 587.51l3.06 1.79L810.23 72.74zm-9.35-5.46L112.14 582.05l3.07 1.79L800.88 67.28zM788.47 60L102.79 576.59l3.06 1.79L791.54 61.83zm-9.34-5.46L93.45 571.14l3.06 1.79L782.2 56.37zm-9.35-5.46L84.11 565.68l3.06 1.79L772.85 50.91zm-9.34-5.46L74.76 560.22l3.07 1.78L763.5 45.45zm-9.35-5.46L65.41 554.76l3.07 1.79L754.16 40zm-9.34-5.46L56.06 549.3l3.07 1.79L744.81 34.54zm-9.35-5.46L46.73 543.85l3.06 1.79L735.47 29.08zm-9.34-5.46L37.38 538.39l3.07 1.79L726.13 23.62zm-9.35-5.46L28 532.93l3.07 1.79L716.78 18.16zm-9.35-5.46L18.69 527.47l3.07 1.79L707.43 12.71zM695 5.46L9.34 522l3.07 1.79L698.08 7.25zM685.67 0L0 516.56l3.07 1.79L688.74 1.79z"/></g></g></svg>