<svg xmlns="http://www.w3.org/2000/svg" viewBox="0 0 2692 230"><path fill="#1683C6" d="M-.5-.9H2692v230H-.5z"/><path fill="#FFF" d="M854.7 152.9l3.4 6.9.1.3c-.1.1-.5.1-.5.1l-3.6.4s-.4 0-.3.2c0 .2.4.2.9.3.5 0 4 .4 4 .4s.4 0 .5.3c.2.3.4.7.4.7s.2.3 0 .4c-.3.1-1.2.1-1.2.1l-6.5.8s-.3 0-.3.2c0 .1.1.2.4.2.2 0 4.4.5 4.4.5s.5 0 .7.3l.7.7s.3.2.1.3c-.2.1-1.5.2-1.5.2l-6.7.6s-.2 0-.2.2.2.2.4.2 9.8.7 9.8.7h.4l.1.1.8.8.2.2c0 .1-.2.1-.2.1l-8.1.7s-.3 0-.3.2.3.2.3.2l10.1.8s.4 0 .6.2c.2.3.8.8.8.8l.1.2c-.1.1-.6.1-.6.1l-7.8.6s-.2 0-.2.2c0 .1.1.2.3.2.2 0 8.3.8 8.3.8s.3 0 .2.3c-.1.3-.2.8-.2.8s0 .2-.5.3c-.5.1-4.6.6-4.6.6s-.2 0-.3.2c0 .1 0 .2.3.2s4.4.5 4.4.5.3 0 .3.4c-.1.4-.9 5.3-.9 5.3s0 .2-.1.2-.6-.3-.6-.3l-8.2-5-9.5 5.7s-.4.3-.7.1c-.3-.2-.1-1-.1-1l1.7-10.2-7.7-7.6s-.3-.5.1-.8c.6-.2 10.8-1.6 10.8-1.6l4.8-9.6s.1-.4.5-.4c.4.1.5.7.5.7"/><path fill="#FFF" d="M875.4 152.9l3.4 6.9.1.3c-.1.1-.5.1-.5.1l-3.6.4s-.3 0-.3.2.4.2.9.3c.5 0 4 .4 4 .4s.4 0 .5.3c.2.3.4.7.4.7s.2.3 0 .4c-.3.1-1.2.1-1.2.1l-6.5.8s-.3 0-.3.1.1.2.4.2c.3 0 4.4.5 4.4.5s.5 0 .7.3l.7.7s.3.2.1.3c-.2.1-1.5.2-1.5.2l-6.7.6s-.2 0-.2.2c0 .1.1.2.4.2.2 0 9.7.7 9.7.7s.3 0 .4.1l.1.1.8.8.2.2c0 .1-.2.1-.2.1l-8.1.7s-.3 0-.3.2.3.2.3.2l10.1.8s.4 0 .6.2c.2.3.8.8.8.8l.1.2c-.1.1-.6.1-.6.1l-7.8.6s-.2 0-.2.2c0 .1.1.2.3.2.2 0 8.3.8 8.3.8s.3 0 .3.3c-.1.3-.2.8-.2.8s0 .3-.5.3c-.5.1-4.6.6-4.6.6s-.2 0-.3.1c0 .1 0 .2.3.2s4.4.5 4.4.5.3 0 .3.4c-.1.4-1 5.3-1 5.3s0 .2-.1.2-.5-.3-.5-.3l-8.2-5-9.5 5.7s-.4.3-.6.1c-.3-.2-.1-1-.1-1l1.7-10.2-7.7-7.6s-.4-.5.1-.8c.6-.2 10.8-1.6 10.8-1.6l4.8-9.6s.1-.5.5-.4c.3.3.4.8.4.8"/><path fill="#FFF" d="M896.2 152.9l3.4 6.9.1.3c-.1.1-.5.1-.5.1l-3.6.4s-.4 0-.3.2c0 .2.4.2.9.3.5 0 4 .4 4 .4s.4 0 .5.3c.2.3.4.7.4.7s.2.3 0 .4c-.2.1-1.2.1-1.2.1l-6.5.8s-.2 0-.2.1.1.2.4.2c.3 0 4.4.5 4.4.5s.5 0 .7.3l.7.7s.3.2.1.3c-.2.1-1.5.2-1.5.2l-6.7.6s-.2 0-.2.2c0 .1.1.2.4.2.2 0 9.8.7 9.8.7s.3 0 .4.1l.1.1.8.8.2.2c0 .1-.2.1-.2.1l-8.1.7s-.3 0-.3.2.3.2.3.2l10.1.8s.3 0 .5.2c.2.3.8.8.8.8l.1.2c-.1.1-.6.1-.6.1l-7.8.6s-.2 0-.2.2c0 .1.1.2.3.2.2 0 8.3.8 8.3.8s.3 0 .2.3c-.1.3-.2.8-.2.8s0 .3-.5.3c-.5.1-4.6.6-4.6.6s-.2 0-.2.1 0 .2.3.2 4.4.5 4.4.5.3 0 .3.4c-.1.4-1 5.3-1 5.3s0 .2-.1.2-.6-.3-.6-.3l-8.2-5-9.5 5.7s-.4.3-.6.1c-.3-.2-.1-1-.1-1l1.7-10.2-7.7-7.6s-.3-.5.2-.8c.6-.2 10.8-1.6 10.8-1.6l4.8-9.6s.1-.5.5-.4c.1.3.3.8.3.8"/><path fill="#FFF" d="M916.8 152.9l3.4 6.9.1.3c-.1.1-.5.1-.5.1l-3.6.4s-.4 0-.3.2c0 .2.4.2.9.3.5 0 4 .4 4 .4s.4 0 .5.3c.2.3.4.7.4.7s.2.3 0 .4c-.2.1-1.2.1-1.2.1l-6.5.8s-.3 0-.3.2c0 .1.1.2.4.2.3 0 4.4.5 4.4.5s.5 0 .7.3l.7.7s.3.2.1.3c-.2.1-1.5.2-1.5.2l-6.7.6s-.2 0-.2.2.2.2.4.2 9.8.7 9.8.7h.4l.1.1.8.8.2.2c-.1.1-.2.1-.2.1l-8.1.7s-.3 0-.3.2.3.2.3.2l10.1.8s.4 0 .6.2c.2.3.8.8.8.8s.2.2.1.2c-.1.1-.6.1-.6.1l-7.8.6s-.2 0-.2.2c0 .1.1.2.3.2.2 0 8.3.8 8.3.8s.3 0 .2.3c-.1.3-.2.8-.2.8s0 .2-.5.3c-.5.1-4.6.6-4.6.6s-.2 0-.3.2c0 .1 0 .2.3.2s4.4.5 4.4.5.3 0 .3.4c-.1.4-1 5.3-1 5.3s0 .2-.1.2-.5-.3-.5-.3l-8.2-5-9.5 5.7s-.4.3-.6.1c-.3-.2-.1-1-.1-1l1.7-10.2-7.7-7.6s-.4-.5.1-.8c.6-.2 10.8-1.6 10.8-1.6l4.8-9.6s.2-.4.5-.4c.3.1.4.7.4.7"/><path fill="#FFF" d="M937.5 152.9l3.4 6.9.1.3c-.1.1-.5.1-.5.1l-3.6.4s-.3 0-.3.2.4.2.9.3c.5 0 3.9.3 3.9.3s.4 0 .6.3c.1.2.4.5.4.5s.3.4 0 .5c-.2.1-1.4.2-1.4.2l-6.3.7s-.3 0-.3.1.1.2.4.2c.3 0 16.3.5 16.3.5s1.8.1 2.2.1c.2 0 .3.1.3.1.1.1-.6.6-.6.6s-.5.5-.7.6c-.2.1-1.3.1-1.3.1l-18.5.7s-.2 0-.2.2.2.2.4.2 17 .8 17 .8h.4c.1.1 0 .2 0 .2l-.4.4-.2.2c-.1.1-.5.2-.5.2l-13.2.9s-.3 0-.3.2.3.2.3.2l10.7.7s.5 0 .4.1c0 .2-.5.7-.5.7l-.5.5c-.1.1-.6.1-.6.1l-6.5.6s-.2 0-.2.2c0 .1.1.2.3.2.2 0 5.1.4 5.1.4s.7.1 1.3.1c.5 0 .6.1.6.3.1.3.2 1.2.2 1.2s.1.3-.5.4c-.5.1-3.4.4-3.4.4s-.3 0-.3.2c0 .1 0 .2.3.2.2 0-.3 0 3.9.4 0 0 .4 0 .4.4.1.4.9 5.1.9 5.1s.2.5-.2.8c-.2.2-.9-.3-.9-.3l-9.2-5.5-9.5 5.8s-.4.3-.6.1c-.3-.2-.1-1-.1-1l1.7-10.2-7.7-7.6s-.4-.5.2-.8c.6-.2 10.8-1.6 10.8-1.6l4.8-9.6s.1-.4.5-.4c.2.3.3.9.3.9M952 70l-12.5 6.3-.1.9 13.1-6.6zM948.4 65.5l-8.1 4.1-.1.8 8.7-4.3zM942.9 58.7l-1.5.8-.1.9 2.1-1.1zM946.6 63.2l-6 3-.1.9 6.5-3.3zM950.2 67.8L939.9 73l-.1.8 10.9-5.5zM953.8 72.3l-14.7 7.4-.1.8 15.3-7.7zM944.8 61l-3.8 1.9-.1.8 4.3-2.2zM939 114.6l-4.2 2.1-.1.8 3.9-1.9zM940.4 110.7l-5.2 2.6-.1.9 5-2.5zM941.9 106.8l-6.3 3.2-.1.8 6-3zM937.5 118.5l-3.1 1.6-.1.8 2.9-1.4zM936.1 122.4l-2.1 1-.1.9 1.8-.9zM943.3 102.9l-7.3 3.7-.1.8 7.1-3.5zM947.7 91.2l-10.1 5.1v.8l9.7-4.9zM950.6 83.4l-12.7 6.4-.1.8 12.5-6.2zM952.1 79.5l-13.8 6.9-.1.9 13.5-6.8zM944.8 99l-8.4 4.2-.1.9 8.1-4.1zM949.2 87.3l-11.7 5.8v.8l11.3-5.6zM946.3 95.1l-9.5 4.8-.1.8 9.2-4.6zM953.5 75.6L938.7 83l-.1.9 14.6-7.3zM882.8 80.8l19.7-4.5.2-.7-19.9 4.5zM882.8 89.5l18.1-4.1.1-.8-18.2 4.1zM882.8 86.6l18.6-4.2.1-.8-18.7 4.3zM882.8 92.4l17.5-4 .2-.7-17.7 4zM882.8 83.7l19.2-4.3.1-.8-19.3 4.4zM882.8 69.2l17.6-4-.5-.6-17.1 3.9zM882.7 51.8l6.6-1.5-.4-.6-6.2 1.4zM882.7 54.7l8.5-1.9-.5-.6-8 1.8zM882.7 57.6l10.3-2.3-.4-.6-9.9 2.2zM882.8 77.9l20.3-4.6.1-.8-20.4 4.7zM882.7 46l2.9-.7-.5-.6-2.4.6zM883.8 42.9l-.5-.7-.6.2v.7zM882.7 48.9l4.8-1.1-.5-.6-4.3 1zM882.8 75l20.8-4.7.1-.6v-.1l-20.9 4.7zM882.8 72.1l19.5-4.4-.5-.6-19 4.3zM882.7 60.5l12.2-2.7-.5-.7-11.7 2.7zM882.8 63.4l13.9-3.2-.4-.6-13.6 3.1zM882.8 66.3l15.8-3.6-.5-.6-15.3 3.5zM848.8 76.4l-6.3 4.7-.2 1.1 6.5-5zM848.6 73l-5.4 4.1-.2 1 5.7-4.3zM847.9 59.4l-1.8 1.3-.2 1 2-1.5zM848.4 69.6l-4.5 3.4-.1 1 4.7-3.6zM847.7 56l-.9.6-.2 1 1.1-.8zM848.2 66.2l-3.5 2.7-.2 1 3.8-2.9zM848 62.8l-2.6 2-.2 1 2.9-2.2zM850.9 104l-.1-.8-13.6 10.3.6.4zM853.9 123l.4-.3-.2-.7-.9.6zM848.5 120l4.6-3.5-.1-.8-5.1 3.9zM851.2 121.5l2.5-1.9-.1-.8-3 2.3zM845.9 118.5l6.7-5.1-.2-.8-7.2 5.5zM843.2 117l8.8-6.7-.1-.8-9.4 7.1zM849 79.8l-7.2 5.4-.2 1.1 7.4-5.7zM840.5 115.4l11-8.3-.2-.7-11.5 8.7zM849.4 86.6l-9 6.8-.2 1 9.2-7zM849.2 83.2l-8.1 6.1-.2 1 8.3-6.3zM849.6 90l-10 7.5-.1 1 10.1-7.7zM850.2 100.1l-12.7 9.7-.2 1 13-9.9zM849.9 96.8l-11.7 8.9-.2 1 12-9.1zM849.7 93.4l-10.8 8.2-.2 1 11.1-8.4z"/><path fill="#FFF" d="M910.4 136.5L937.7 97l-3.7 27.2zM911.3 99.1V42.5l-8.8 45.6zM937.7 97l-7.2-54.5 11.2 14.6zM910.1 101.4l-8.9-11-18.3 4.1v1zM852.8 98.7l3.7 22.3 18.6 4.7zM909.6 136.8l-16.6 8.1-35.6-20.5zM852.2 97.3l13.1-54.7L850.5 54zM992.4 126.4l1.8-2.1 8.8-9.7h7.4L999 126.4l12 18.4h-7.6c-1.5-2.4-2.9-4.7-4.4-7-1.5-2.3-2.9-4.7-4.4-7.1l-2.7 2.7v11.4h-6.3v-30.3h6.3v11.8h.5zM1037.3 123.3c0 .8-.1 1.6-.3 2.4-.2.8-.5 1.6-.9 2.2-.4.7-1 1.3-1.6 1.8-.6.6-1.4 1-2.3 1.3 1.2.4 2.1 1.1 2.7 2.1.5 1 1 2 1.3 3.2l2.4 8.5h-6.4c-.4-1.3-.8-2.6-1.1-3.9-.4-1.3-.8-2.6-1.1-4-.5-1.7-1.1-2.8-1.9-3.4-.8-.6-1.8-.9-3.1-.9h-3.2v12.2h-6.3v-30.3h12.1c1.7 0 3.2.2 4.4.7 1.2.5 2.2 1.1 3 1.9.8.8 1.4 1.7 1.8 2.8.4 1.1.5 2.2.5 3.4m-10.9 4.9c.5 0 1-.1 1.6-.2.5-.1 1-.4 1.4-.8.4-.3.8-.8 1.1-1.4.3-.6.4-1.3.4-2.2 0-1.5-.4-2.6-1.2-3.4-.8-.7-1.9-1.1-3.3-1.1h-4.5v9h4.5zM1063 144.9l-2.1-6.9H1050l-2.1 6.9h-6.4l10.2-30.3h8.1l9.8 30.3h-6.6zm-5.6-19.3l-1.7-6.6h-.2l-1.8 6.8-2.2 7.8h8.2l-2.3-8zM1083.6 114c1.5 0 3.1.2 4.7.5 1.7.3 3.2.9 4.7 1.7l-1.7 4.4c-1.5-.6-2.9-1-4.3-1.2-1.4-.2-2.6-.3-3.7-.3-1.4 0-2.4.3-3.2 1-.8.6-1.2 1.6-1.2 2.9 0 .6.2 1.1.5 1.5.3.4.8.7 1.3 1 .6.3 1.2.5 1.9.8.7.2 1.5.4 2.2.6 1 .3 2.1.6 3.3.9 1.2.4 2.3.9 3.3 1.5 1 .7 1.8 1.6 2.5 2.7.6 1.1 1 2.6 1 4.4 0 2.9-1 5.1-3.1 6.7-2.1 1.6-5.2 2.4-9.4 2.4-.7 0-1.6 0-2.5-.1-.9-.1-1.8-.2-2.8-.4-1-.2-1.9-.4-2.9-.7-1-.3-1.9-.7-2.7-1.1l1.7-4.6c2.1.8 4 1.4 5.7 1.6 1.7.2 3 .3 4 .3 1.8 0 3.1-.3 4-.9.9-.6 1.3-1.6 1.3-3.1 0-.6-.1-1.2-.3-1.6-.2-.4-.6-.8-1-1.1-.4-.3-.9-.6-1.6-.8-.6-.2-1.3-.4-2-.6-1.5-.4-2.9-.8-4.2-1.2-1.3-.4-2.5-.9-3.5-1.6-1-.6-1.8-1.5-2.4-2.4-.6-1-.9-2.3-.9-3.8 0-2.8.9-5 2.8-6.7 1.9-1.9 4.7-2.7 8.5-2.7M1119.7 135.4v-20.8h6.2v30.3h-6.4l-10.1-16.3c-.5-.9-1-1.7-1.5-2.5s-1-1.7-1.5-2.5h-.1-.1v21.3h-6.2v-30.3h6.5c1.6 2.5 3.1 4.9 4.6 7.3 1.5 2.4 3 4.9 4.6 7.3l3.8 6.2h.2zM1158.9 129.7c0 2.2-.3 4.3-.9 6.2-.6 1.9-1.4 3.5-2.6 4.9-1.1 1.4-2.6 2.5-4.3 3.3-1.7.8-3.7 1.2-6 1.2-2.4 0-4.5-.4-6.3-1.1-1.8-.8-3.2-1.8-4.4-3.2-1.1-1.4-2-3-2.5-4.9-.5-1.9-.8-4-.8-6.3 0-2.2.3-4.2.8-6.1.5-1.9 1.4-3.6 2.5-5s2.6-2.6 4.3-3.4c1.8-.8 3.9-1.2 6.4-1.2 2.5 0 4.6.4 6.4 1.2 1.8.8 3.2 2 4.3 3.4 1.1 1.4 1.9 3.1 2.4 5 .4 1.9.7 3.9.7 6m-6.8.1c0-1.4-.1-2.8-.3-4.1-.2-1.3-.6-2.5-1.1-3.6-.5-1-1.2-1.9-2.1-2.5-.9-.6-2.1-1-3.5-1-1.5 0-2.7.3-3.6.9-1 .6-1.7 1.5-2.3 2.5-.6 1-.9 2.2-1.1 3.6-.2 1.4-.3 2.7-.3 4.2 0 3.4.5 6.1 1.6 7.9 1.1 1.9 3 2.8 5.7 2.8 1.2 0 2.3-.3 3.2-.8.9-.6 1.6-1.3 2.2-2.3.5-1 1-2.1 1.2-3.4.2-1.2.4-2.6.4-4.2M1169.3 134l-9.7-19.4h6.7c.6 1.3 1.2 2.6 1.9 3.9l1.8 3.9 2.6 6h.3c.5-1 1-2 1.4-3.1.4-1.1.9-2.2 1.4-3.2l3.7-7.5h6.6c-1.7 3-3.3 6.1-4.9 9.3-1.6 3.2-3.3 6.3-4.9 9.3v11.6h-6.9V134zM1206.2 144.9l-2.1-6.9h-10.9l-2.1 6.9h-6.4l10.2-30.3h8.1l9.9 30.3h-6.7zm-5.6-19.3l-1.7-6.6h-.2l-1.8 6.8-2.2 7.8h8.2l-2.3-8zM1238.7 123.3c0 .8-.1 1.6-.3 2.4-.2.8-.5 1.6-.9 2.2-.4.7-1 1.3-1.6 1.8-.6.6-1.4 1-2.3 1.3 1.2.4 2.1 1.1 2.7 2.1.5 1 1 2 1.3 3.2l2.4 8.5h-6.4c-.4-1.3-.8-2.6-1.1-3.9-.4-1.3-.8-2.6-1.1-4-.5-1.7-1.1-2.8-1.9-3.4-.8-.6-1.9-.9-3.1-.9h-3.2v12.2h-6.3v-30.3h12.1c1.7 0 3.2.2 4.4.7 1.2.5 2.2 1.1 3 1.9.8.8 1.4 1.7 1.8 2.8.3 1.1.5 2.2.5 3.4m-11 4.9c.5 0 1-.1 1.6-.2.5-.1 1-.4 1.4-.8.4-.3.8-.8 1.1-1.4.3-.6.4-1.3.4-2.2 0-1.5-.4-2.6-1.3-3.4-.8-.7-1.9-1.1-3.3-1.1h-4.5v9h4.6zM1255.3 114c1.5 0 3.1.2 4.7.5 1.7.3 3.3.9 4.7 1.7l-1.6 4.4c-1.5-.6-2.9-1-4.3-1.2-1.4-.2-2.7-.3-3.7-.3-1.4 0-2.4.3-3.2 1-.8.6-1.2 1.6-1.2 2.9 0 .6.2 1.1.5 1.5.3.4.8.7 1.3 1 .6.3 1.2.5 1.9.8.7.2 1.5.4 2.2.6 1 .3 2.1.6 3.3.9 1.2.4 2.3.9 3.3 1.5 1 .7 1.8 1.6 2.5 2.7.6 1.1 1 2.6 1 4.4 0 2.9-1 5.1-3.1 6.7-2.1 1.6-5.2 2.4-9.4 2.4-.8 0-1.6 0-2.5-.1-.9-.1-1.8-.2-2.8-.4-1-.2-1.9-.4-2.9-.7-1-.3-1.9-.7-2.7-1.1l1.6-4.6c2.1.8 4 1.4 5.7 1.6 1.7.2 3 .3 4 .3 1.8 0 3.1-.3 4-.9.9-.6 1.3-1.6 1.3-3.1 0-.6-.1-1.2-.4-1.6-.2-.4-.6-.8-1-1.1-.5-.3-1-.6-1.6-.8-.6-.2-1.3-.4-2-.6-1.5-.4-2.9-.8-4.2-1.2-1.3-.4-2.5-.9-3.5-1.6-1-.6-1.8-1.5-2.4-2.4-.6-1-.9-2.3-.9-3.8 0-2.8 1-5 2.9-6.7 1.9-1.9 4.7-2.7 8.5-2.7M1277.9 126.4l1.8-2.1 8.8-9.7h7.4l-11.4 11.8 12 18.4h-7.6c-1.5-2.4-3-4.7-4.4-7-1.5-2.3-2.9-4.7-4.4-7.1l-2.7 2.7v11.4h-6.3v-30.3h6.3v11.8h.5zM1316.1 140.5h12.4v4.4h-21V141c.8-.7 1.8-1.5 2.7-2.4l3-2.7c1-.9 2-1.9 2.9-2.9.9-1 1.8-2 2.5-3s1.3-2 1.7-3c.4-1 .7-1.9.7-2.8 0-1.4-.4-2.4-1.2-3.1-.8-.7-1.9-1-3.5-1-.8 0-1.8.1-3.1.4-1.3.3-2.7.8-4.3 1.7l-1.9-3.7c1.8-1.3 3.7-2.2 5.5-2.7 1.8-.5 3.4-.7 4.9-.7 3 0 5.4.7 7.2 2.2 1.7 1.5 2.6 3.7 2.6 6.5 0 1.6-.4 3.2-1.1 4.7-.8 1.5-1.7 3-2.8 4.4-1.1 1.4-2.3 2.7-3.6 3.9-1.3 1.2-2.5 2.4-3.6 3.3v.4zM1354.3 130.2c0 1.9-.2 3.8-.6 5.6-.4 1.8-1 3.4-1.9 4.8-.9 1.4-2.1 2.5-3.6 3.3-1.5.8-3.3 1.3-5.5 1.3-2.3 0-4.2-.4-5.7-1.2-1.5-.8-2.7-1.9-3.6-3.3-.9-1.4-1.5-3-1.9-4.8-.3-1.8-.5-3.7-.5-5.7 0-1.9.2-3.7.5-5.5.4-1.8 1-3.4 1.9-4.9.9-1.4 2.1-2.6 3.6-3.5 1.5-.9 3.4-1.3 5.8-1.3 2.3 0 4.3.5 5.8 1.4 1.5.9 2.7 2.1 3.5 3.5.9 1.4 1.5 3.1 1.8 4.9.3 1.9.4 3.7.4 5.4m-6.2.2c0-1.1 0-2.3-.1-3.5-.1-1.2-.3-2.4-.7-3.4-.4-1-.9-1.9-1.6-2.6-.7-.7-1.7-1-2.9-1s-2.2.3-2.9 1c-.7.7-1.3 1.5-1.7 2.5-.4 1-.6 2.2-.8 3.4-.1 1.3-.2 2.5-.2 3.6 0 1.4.1 2.8.2 4 .1 1.2.4 2.3.9 3.2.4.9 1 1.6 1.7 2.2.7.5 1.7.8 2.8.8 1.1 0 1.9-.3 2.7-.9.7-.6 1.2-1.3 1.6-2.3.4-1 .7-2.1.8-3.3.2-1.2.2-2.4.2-3.7M1362.5 121.1l-6.1.6v-4.2l6.7-2h5.5v29.4h-6.1zM1389.5 132.4c-2.1 1.2-4.3 1.8-6.5 1.8-1.2 0-2.4-.2-3.5-.5-1.1-.4-2-.9-2.8-1.7-.8-.8-1.4-1.7-1.9-2.9s-.7-2.5-.7-4.1c0-1.6.3-3 .8-4.2.5-1.2 1.2-2.3 2.2-3.1.9-.8 2-1.5 3.3-1.9 1.3-.4 2.7-.7 4.3-.7 2.1 0 3.8.3 5.3 1.1 1.4.7 2.6 1.7 3.4 2.9.9 1.2 1.5 2.7 1.9 4.3.4 1.7.6 3.5.6 5.4 0 2.3-.2 4.5-.7 6.5-.5 2-1.2 3.7-2.3 5.2-1 1.5-2.3 2.6-4 3.5-1.6.8-3.6 1.2-5.8 1.2-1.6 0-2.9-.1-4.1-.4-1.2-.2-2.1-.5-2.7-.8l1.1-4.4c1 .4 2 .6 2.9.7.9.1 1.7.2 2.4.2 1.3 0 2.4-.3 3.2-.8.9-.6 1.5-1.2 2.1-2 .5-.8.9-1.7 1.2-2.6.3-.9.4-1.8.5-2.5l-.2-.2zm-9.5-7.5c0 .7.1 1.4.2 1.9.1.6.4 1.1.7 1.5.3.4.8.8 1.4 1 .6.3 1.3.4 2.2.4.8 0 1.4-.1 2-.2.6-.2 1.1-.4 1.6-.6.4-.2.8-.4 1.1-.6.3-.2.5-.3.6-.4v-.8c0-.7-.1-1.5-.2-2.4-.1-.8-.3-1.6-.7-2.3-.3-.7-.8-1.3-1.5-1.8s-1.5-.7-2.6-.7c-1.5 0-2.7.4-3.5 1.3-.9 1-1.3 2.2-1.3 3.7M1061.4 78.1c-.2.9-.4 1.9-.6 2.8-.2.9-.4 1.9-.6 2.8-.1.3-.4 1.7-.9 4.1-.6 2.5-1.4 6.1-2.4 10.9h-3.8l-6.2-25.1h3.2c.6 2.5 1.1 5 1.7 7.5.6 2.5 1.1 5 1.7 7.5.2 1.1.4 2.1.7 3.2.2 1.1.5 2.1.7 3.2h.2l1.3-6c.3-1.4.6-2.7.9-4 .3-1.3.6-2.5.9-3.8.3-1.3.6-2.5.8-3.7.3-1.2.6-2.5.9-3.9h3.3l4 15.2c.1.1.2.5.3 1 .1.5.3 1.1.5 1.8s.3 1.3.5 1.9c.2.6.3 1.1.4 1.4h.2c.3-1.1.5-2.2.7-3.3.2-1.1.5-2.2.7-3.3.5-2.5 1.1-4.9 1.6-7.3.5-2.4 1.1-4.9 1.7-7.3h3.1c-1.1 4.5-2.1 8.9-3.1 13.1-1 4.2-2 8.2-3 12h-3.7c-.7-2.6-1.3-5.1-2-7.5-.7-2.4-1.3-4.9-2-7.6-.3-.9-.5-1.8-.7-2.8-.2-.9-.5-1.8-.7-2.7l-.3-.1zM1080.5 73.5h3.1v25.1h-3.1zM1106 93.6v-20h3v25.1h-3l-9.7-15.2-3.3-5.3h-.1-.1v20.4h-3v-25h3.1c1.6 2.4 3.1 4.8 4.6 7.1 1.5 2.3 3 4.7 4.6 7.1l3.7 5.8h.2zM1120.8 98.7V76h-8.1v-2.5h19.2V76h-8l-.1 22.7zM1135.6 98.7V73.6h15.3v2.3h-12.2v8.4h10.3v2.2h-10.3v9.8h12.8v2.4zM1172.4 80.5c0 1.5-.4 2.8-1.1 4.1-.7 1.2-1.9 2-3.3 2.4 1 .3 1.7.8 2.1 1.7.4.8.8 1.7 1.1 2.8l2.1 7.3h-3.1l-2-6.9c-.2-.8-.5-1.5-.8-2-.3-.5-.7-.9-1-1.2-.4-.3-.8-.5-1.3-.6-.5-.1-1-.2-1.7-.2h-4v10.9h-3.1V73.5h8.6c2.5 0 4.3.6 5.6 1.9 1.3 1.3 1.9 3 1.9 5.1m-7.9 4.9c.5 0 1-.1 1.6-.2.6-.1 1.1-.4 1.6-.7.5-.4.9-.8 1.2-1.5.3-.6.5-1.4.5-2.4 0-.8-.1-1.6-.4-2.2-.2-.6-.6-1.1-1-1.5-.4-.4-1-.6-1.5-.8-.6-.2-1.2-.3-1.9-.3h-5v9.4h4.9zM988.3 96.5h12v2.2h-16.2v-2c.7-.6 1.4-1.3 2.3-2.1.9-.8 1.7-1.6 2.6-2.5l2.7-2.7c.9-.9 1.6-1.9 2.3-2.8.7-1 1.2-1.9 1.6-2.8.4-.9.6-1.8.6-2.7 0-1.6-.5-2.7-1.4-3.4-.9-.7-2.1-1.1-3.6-1.1-.6 0-1.4.1-2.5.3-1.1.2-2.3.7-3.7 1.6l-1-1.8c.7-.5 1.5-1 2.2-1.3.7-.4 1.4-.6 2.1-.8.7-.2 1.3-.3 1.9-.4.6-.1 1.1-.1 1.6-.1 1.1 0 2.1.1 3 .4.9.3 1.7.7 2.4 1.2.7.6 1.2 1.3 1.6 2.1.4.8.6 1.8.6 3 0 1.5-.4 2.9-1.2 4.4-.8 1.5-1.8 2.9-2.9 4.3-1.1 1.4-2.4 2.6-3.7 3.8-1.3 1.2-2.4 2.2-3.4 3.2h.1zM1018.3 87.6c-.9.5-1.9 1-2.8 1.3-1 .3-2.1.5-3.4.5-1 0-1.9-.1-2.8-.4-.9-.3-1.7-.7-2.4-1.3-.7-.6-1.2-1.4-1.6-2.3-.4-1-.6-2.1-.6-3.4 0-1.2.2-2.4.6-3.4.4-1 1-1.8 1.7-2.5s1.6-1.2 2.6-1.6c1-.4 2.1-.6 3.4-.6 1.6 0 3 .3 4.1.9 1.1.6 2 1.4 2.6 2.5.7 1 1.1 2.3 1.4 3.6.3 1.4.4 2.9.4 4.4 0 2-.2 3.8-.6 5.5-.4 1.6-1 3.1-1.8 4.3-.8 1.2-1.8 2.1-3 2.8-1.2.7-2.6 1-4.3 1-1.3 0-2.5-.1-3.5-.4-1-.3-1.7-.5-2.1-.7.1-.4.2-.7.3-1 .1-.4.2-.7.3-1 .9.3 1.8.6 2.7.7.9.1 1.6.2 2.2.2 1.3 0 2.5-.3 3.3-1 .9-.7 1.5-1.5 2.1-2.4.5-.9.9-1.9 1.1-2.9.2-1 .3-1.9.4-2.5l-.3-.3zm-5.6-.4c.9 0 1.7-.1 2.4-.3.7-.2 1.3-.4 1.8-.6.5-.2.9-.4 1.1-.6.3-.2.4-.3.5-.3v-.8c0-.8-.1-1.6-.2-2.5-.1-.9-.4-1.8-.8-2.6s-.9-1.5-1.7-2.1c-.7-.6-1.7-.8-3-.8-1.8 0-3.1.5-4 1.5-.9 1-1.3 2.3-1.3 3.9 0 .8.1 1.5.3 2.2.2.7.4 1.2.8 1.7s.9.8 1.5 1.1c.8 0 1.6.2 2.6.2M1026.4 84.9v-9.2h-3.3v-1.3h8.4v1.3h-3.4v9.2zM1039.1 84.9V80h-4.5v4.8h-1.8V74.4h1.8V78.7h4.5v-4.3h1.8v10.5h-1.8zM1201.1 89.6c0 1.4-.2 2.7-.6 3.8-.4 1.2-1 2.1-1.8 3-.8.8-1.8 1.4-3 1.9-1.2.4-2.6.7-4.3.7-3.4 0-5.8-.8-7.3-2.5s-2.3-3.9-2.3-6.9V73.5h3.1v16.2c0 2.3.6 4 1.7 5.2 1.1 1.1 2.7 1.7 4.8 1.7 2.1 0 3.7-.6 4.8-1.7 1.1-1.1 1.7-2.9 1.7-5.2l-.1-16.2h3.1v16.1zM1222.9 93.6v-20h3v25.1h-3l-9.7-15.2-3.3-5.3h-.1-.1v20.4h-3v-25h3.1c1.6 2.4 3.1 4.8 4.6 7.1 1.5 2.3 3 4.7 4.6 7.1l3.7 5.8h.2zM1232.1 73.5h3.1v25.1h-3.1zM1248.8 95.4l1.5-5.1 4.9-16.8h3.3l-8 25.2h-3.7l-7.9-25.2h3.3l5 16.9 1.4 5zM1261.8 98.7V73.6h15.3v2.3h-12.2v8.4h10.3v2.2h-10.3v9.8h12.8v2.4zM1298.6 80.5c0 1.5-.4 2.8-1.1 4.1-.7 1.2-1.9 2-3.3 2.4 1 .3 1.7.8 2.1 1.7.4.8.8 1.7 1.1 2.8l2.1 7.3h-3.1l-2-6.9c-.2-.8-.5-1.5-.8-2-.3-.5-.7-.9-1-1.2-.4-.3-.8-.5-1.3-.6-.5-.1-1-.2-1.7-.2h-4v10.9h-3.1V73.5h8.6c2.5 0 4.3.6 5.6 1.9 1.3 1.3 1.9 3 1.9 5.1m-8 4.9c.5 0 1-.1 1.6-.2.6-.1 1.1-.4 1.6-.7.5-.4.9-.8 1.2-1.5.3-.6.5-1.4.5-2.4 0-.8-.1-1.6-.4-2.2-.2-.6-.6-1.1-1-1.5-.4-.4-1-.6-1.5-.8-.6-.2-1.2-.3-1.9-.3h-5v9.4h4.9zM1311.8 73.1c1 0 2.2.1 3.4.3 1.2.2 2.4.6 3.5 1.3l-1 2.2c-1.2-.5-2.3-.9-3.3-1-1-.2-1.9-.3-2.8-.3-1.5 0-2.7.4-3.6 1.1-.9.7-1.4 1.9-1.4 3.4 0 .7.2 1.3.5 1.7.3.5.7.8 1.3 1.2.5.3 1.1.6 1.8.8.7.2 1.3.4 2.1.6.9.2 1.8.5 2.8.8 1 .3 1.8.7 2.6 1.2s1.4 1.2 1.9 2.1c.5.9.8 2 .8 3.3 0 1.2-.2 2.3-.7 3.2-.5.9-1.1 1.7-1.9 2.2-.8.6-1.8 1-2.9 1.3-1.1.3-2.4.4-3.7.4-1.3 0-2.7-.1-4.1-.4-1.4-.3-2.8-.8-4-1.5l1.1-2.3c1.5.7 2.8 1.2 4 1.4 1.2.2 2.2.3 3.1.3 1.9 0 3.4-.3 4.5-1s1.6-1.9 1.6-3.7c0-.8-.1-1.4-.4-1.9-.3-.5-.6-.9-1.1-1.2-.5-.3-1.1-.6-1.7-.9-.6-.2-1.4-.4-2.1-.6-1.1-.3-2.2-.6-3.2-.9-1-.3-1.9-.7-2.7-1.2-.8-.5-1.4-1.1-1.8-1.9-.4-.8-.7-1.7-.7-2.9 0-1.1.2-2.1.6-3 .4-.9 1-1.6 1.7-2.2.7-.6 1.6-1.1 2.6-1.4.8-.3 1.9-.5 3.2-.5M1325.5 73.5h3.1v25.1h-3.1zM1349.4 98.7c-.3-1.1-.7-2.2-1-3.3-.3-1.1-.7-2.2-1-3.3h-9.9c-.3 1.1-.7 2.2-1 3.3-.3 1.1-.7 2.2-1 3.3h-3.2c1.5-4.5 2.9-8.9 4.3-13.1 1.4-4.2 2.7-8.2 4-12h4l8.2 25.2h-3.4zm-2.8-9c-.6-1.9-1.1-3.7-1.7-5.6-.6-1.9-1.1-3.7-1.7-5.6l-.7-2.5h-.1l-.7 2.5c-.3.9-.5 1.8-.8 2.7-.3.9-.5 1.7-.8 2.6-.3.9-.6 1.8-.9 2.8l-.9 3h8.3zM1356 98.7V73.5h8.2c2 0 3.7.3 5 1 1.3.7 2.4 1.6 3.2 2.7.8 1.2 1.3 2.5 1.6 4 .3 1.5.5 3.1.5 4.8 0 1.7-.2 3.3-.5 4.9-.3 1.5-.9 2.9-1.7 4-.8 1.1-1.9 2.1-3.3 2.7-1.3.7-3.1 1-5.1 1h-7.9zm3.2-22.8v20.4h4.3c.4 0 .8 0 1.4-.1.5 0 1.1-.2 1.7-.4.6-.2 1.1-.5 1.7-.9.6-.4 1.1-1 1.5-1.7.5-.7.8-1.7 1.1-2.8.3-1.1.4-2.5.4-4.1 0-1.6-.1-3-.4-4.2-.3-1.2-.6-2.1-1-2.9-.4-.8-.9-1.4-1.4-1.8-.5-.4-1.1-.8-1.7-1-.6-.2-1.1-.4-1.6-.4-.5-.1-1-.1-1.5-.1h-4.5zM1379.7 98.7V73.6h15.3v2.3h-12.2v8.4h10.3v2.2h-10.3v9.8h12.8v2.4zM1446.7 49.3h1v136h-1zM1668.4 97.9h-7.8V87.3h-9.1v28.4h9.1v-10.1h7.8v10.1h9.1V87.3h-9.1v10.6zm84.7 0h-7.8V87.3h-9.1v28.4h9.1v-10.1h7.8v10.1h9.1V87.3h-9.1v10.6zm139.5-2.3h-4.4v-8.3h-9.1v28.4h13.5c5.9 0 10.7-3.3 10.7-9v-2c0-5.8-4.8-9.1-10.7-9.1m-1 13.1h-3.4v-6.2h3.1c2.6 0 3.2 1.9 3.2 3.1-.1 2.6-2.2 3.1-2.9 3.1m-57.9-3.7h10.3v-6.7h-10.3v-3.5h11.2v-7.4h-20.4v28.4h21.2v-7.4h-12.1V105zm-11.3-17.7h-9.9l-4.8 10.7h-2.3V87.3h-9.1v28.4h9.1v-10.1h2.3l4.9 10.1h10.5l-7.8-14.3 7.1-14.1zm-126.6-.4h-4.5c-5.9 0-10.7 4.2-10.7 10.7v7.9c0 6.6 4.8 10.7 10.7 10.7h4.5c5.9 0 10.7-4.2 10.7-10.7v-7.9c.1-6.9-4.8-10.7-10.7-10.7m1.6 19.3c0 1.9-1.5 3.4-3.4 3.4h-.8c-1.9 0-3.4-1.5-3.4-3.4V97c0-1.9 1.5-3.4 3.4-3.4h.8c1.9 0 3.4 1.5 3.4 3.4v9.2zm155.1-3.8c0 4.3-1.1 5-2.8 5.7-.7.3-2.6.3-2.6.3v7.4h3.6c7.7 0 10.5-4.5 10.6-14.5v-6.5h5.1v21h9.1V87.3h-23.1v15.1zm-129.3-15.1h-13.5v28.4h9.1v-7h4.4c5.9 0 10.7-3.3 10.7-9.1v-3.3c0-5.7-4.8-9-10.7-9m1.8 11.5c0 1-.5 3-3.2 3h-3.1v-7.5h3.4c.9 0 2.8.8 2.8 3v1.5zm49.9 2.9V87.3h-8.7v28.4h8l9.4-14.3v14.3h8.7V87.3h-8l-9.4 14.4zM1581.9 58.4v28.7l-42.8-28.7c-23.6 0-42.8 19.1-42.8 42.6s19.1 42.6 42.8 42.6v-28.7l42.8 28.7c23.6 0 42.8-19.1 42.8-42.6s-19.2-42.6-42.8-42.6m-51.9 74.8c-5.5-1.5-10.5-4.4-14.6-8.5-6.4-6.3-9.8-14.7-9.8-23.7 0-8.9 3.5-17.3 9.8-23.7 4.1-4.1 9.1-7 14.6-8.6v64.5zm9.2-29.4V69.4l42.8 28.7v34.4l-42.8-28.7zm66.5 20.8c-4.1 4.1-9.1 7-14.6 8.5V68.8c5.5 1.5 10.5 4.4 14.6 8.6 6.3 6.3 9.8 14.7 9.8 23.7 0 8.8-3.5 17.2-9.8 23.5"/><g fill="#FFF"><path d="M1777 59.2v1.4h-2.9V67h-1.8v-7.8h4.7zM1782.5 63.7h-2.9v1.8h3.2V67h-4.9v-7.8h4.8v1.4h-3v1.6h2.9v1.5zM1785.8 59.2v3h2.9v-3h1.8V67h-1.8v-3.2h-2.9V67h-1.8v-7.8h1.8zM1796.6 63.7h-2.9v1.8h3.2V67h-4.9v-7.8h4.8v1.4h-3v1.6h2.9v1.5zM1798.2 59.3c.5-.1 1.3-.2 2.4-.2 1.1 0 1.9.2 2.4.6.5.4.8 1 .8 1.8s-.3 1.4-.7 1.8c-.6.6-1.5.8-2.5.8h-.6V67h-1.7v-7.7zm1.7 3.6h.6c.9 0 1.5-.5 1.5-1.3 0-.7-.5-1.1-1.4-1.1-.4 0-.6 0-.7.1v2.3zM1806 65l-.6 2h-1.8l2.4-7.8h2.3l2.4 7.8h-1.9l-.6-2h-2.2zm1.9-1.3l-.5-1.6c-.1-.5-.3-1-.4-1.5-.1.5-.2 1-.4 1.5l-.5 1.6h1.8zM1817.8 59.2V67h-1.7v-6.3h-1.8v1.8c0 2-.3 3.5-1.4 4.2-.4.2-.9.4-1.5.4l-.2-1.4c.4 0 .7-.2.9-.4.5-.5.6-1.5.6-2.7v-3.4h5.1zM1821.1 59.2v2.7c.2 0 .6-.1.9-.1 1.7 0 3.1.8 3.1 2.5 0 .7-.2 1.3-.6 1.7-.7.8-2 1-3.3 1-.9 0-1.5-.1-1.9-.1v-7.7h1.8zm-.1 6.5h.7c.9 0 1.5-.4 1.5-1.3s-.7-1.3-1.5-1.3h-.7v2.6zM1828 59.2v3h2.9v-3h1.7V67h-1.7v-3.2h-2.9V67h-1.8v-7.8h1.8zM1835.9 59.2V62c.2 0 .6-.1.9-.1 1.6 0 3.1.8 3.1 2.5 0 .7-.2 1.3-.6 1.7-.7.8-2 1-3.2 1-.8 0-1.5-.1-1.9-.1v-7.7h1.7zm0 6.5h.6c.8 0 1.5-.4 1.5-1.3s-.8-1.2-1.5-1.2h-.6v2.5zm6.4-6.5V67h-1.7v-7.8h1.7zM1845.6 59.2v2.3c0 1.2 0 2.5-.1 3.5.4-.9.9-1.9 1.4-2.8l1.7-3h1.8V67h-1.6v-2.3c0-1.2 0-2.3.1-3.3-.4.9-.9 1.9-1.3 2.8L1846 67h-2v-7.8h1.6zm1.1-1.7c0 .4.1.7.5.7s.5-.3.5-.7h1.2c-.1 1-.7 1.4-1.7 1.4s-1.6-.5-1.7-1.4h1.2zM1860.5 59.2V67h-1.8v-6.3h-2.8V67h-1.8v-7.8h6.4zM1863.9 65l-.6 2h-1.8l2.4-7.8h2.3l2.4 7.8h-1.9l-.6-2h-2.2zm1.9-1.3l-.5-1.6c-.1-.5-.3-1-.4-1.5-.1.5-.2 1-.4 1.5l-.5 1.6h1.8zM1869.6 59.3c.5-.1 1.3-.2 2.4-.2 1.1 0 1.9.2 2.4.6.5.4.8 1 .8 1.8s-.3 1.4-.7 1.8c-.6.6-1.5.8-2.5.8h-.6V67h-1.7v-7.7zm1.8 3.6h.6c.9 0 1.5-.5 1.5-1.3 0-.7-.5-1.1-1.4-1.1-.4 0-.6 0-.7.1v2.3zM1877.9 60.7h-2.1v-1.5h6v1.5h-2.1V67h-1.8v-6.3zM1884.5 59.2v3h2.9v-3h1.7V67h-1.7v-3.2h-2.9V67h-1.8v-7.8h1.8zM1895.3 63.7h-2.9v1.8h3.2V67h-4.9v-7.8h4.8v1.4h-3v1.6h2.9v1.5zM1896.8 59.3c.5-.1 1.3-.2 2.4-.2 1.1 0 1.9.2 2.4.6.5.4.8 1 .8 1.8s-.3 1.4-.7 1.8c-.6.6-1.5.8-2.5.8h-.6V67h-1.7v-7.7zm1.8 3.6h.6c.9 0 1.5-.5 1.5-1.3 0-.7-.5-1.1-1.4-1.1-.4 0-.6 0-.7.1v2.3z"/></g></svg>