<svg xmlns="http://www.w3.org/2000/svg" viewBox="0 0 631.58 53.32"><defs><style>.cls-1{fill:#1781c4}.cls-2{fill:#fff}</style></defs><title>banner-partner-general</title><g id="Слой_2" data-name="Слой 2"><g id="Слой_1-2" data-name="Слой 1"><path class="cls-1" d="M0 0h631.58v53.32H0z"/><path class="cls-2" d="M200.62 35.23l.79 1.62v.08c0 .02-.12 0-.12 0l-.85.09h-.08c.01 0 .09.05.2.06l.94.09a.15.15 0 0 1 .13.08 1.68 1.68 0 0 0 .1.17v.09a1.72 1.72 0 0 1-.28 0l-1.52.18h-.06l.09.05 1 .11a.28.28 0 0 1 .16.07 2.21 2.21 0 0 0 .16.17s.06 0 0 .06-.35 0-.35 0l-1.56.13h-.06s0 .05.09.05l2.29.17a.19.19 0 0 1 .09 0l.19.2v.05c0 .05 0 0 0 0l-1.89.17H200.07l2.37.19a.19.19 0 0 1 .13.06 2.12 2.12 0 0 0 .18.18v.05c0 .05-.14 0-.14 0l-1.83.14s0 .06.07.06l1.95.18s.08 0 .06.07v.2s0 .06-.11.07l-1.09.13h-.06l.08.06 1 .11s.08 0 .07.1l-.22 1.24v.06a.75.75 0 0 1-.13-.07l-1.92-1.18-2.22 1.33s-.09.06-.15 0 0-.23 0-.23l.41-2.39-1.85-1.28s-.08-.12 0-.18 2.53-.37 2.53-.37l1.13-2.25s0-.11.13-.1.13.14.13.14"/><path class="cls-2" d="M205.46 35.25l.79 1.62v.08c0 .02-.12 0-.12 0l-.85.09h-.08s.09.06.21.06l.94.09a.16.16 0 0 1 .13.08c0 .08.09.17.09.17s.05.07 0 .09a1.48 1.48 0 0 1-.28 0l-1.53.18h-.06s0 .05.08.06l1 .12a.28.28 0 0 1 .16.06l.16.17s.06 0 0 .07h-.35l-1.56.13h-.05l.09.05 2.29.16a.24.24 0 0 1 .1 0l.19.19v.06c0 .06 0 0 0 0l-1.89.17h-.07l.06.05 2.37.19a.17.17 0 0 1 .13.06 2.1 2.1 0 0 0 .18.18v.06c0 .06-.14 0-.14 0l-1.83.14a.06.06 0 0 0 .07.06l2 .18s.08 0 .06.07l-.05.2s0 .06-.11.07l-1.09.13h-.06c-.01 0 0 0 .08.06l1 .11s.08 0 .06.09-.23 1.25-.23 1.25v.05a.8.8 0 0 1-.13-.07l-1.92-1.18-2.22 1.33s-.09.06-.15 0 0-.23 0-.23l.41-2.39-1.82-1.36s-.08-.12 0-.18 2.52-.37 2.52-.37l1.13-2.25s0-.11.13-.1.12.14.12.14"/><path class="cls-2" d="M210.34 35.25l.8 1.62v.08c0 .02-.12 0-.12 0l-.85.09h-.08c.01 0 .09.06.2.06l.94.09a.15.15 0 0 1 .12.08 1.79 1.79 0 0 0 .1.17s.05.07 0 .09a1.46 1.46 0 0 1-.28 0l-1.52.18h-.06s0 .05.08.06l1 .12a.28.28 0 0 1 .16.06l.16.17s.06 0 0 .07h-.35l-1.56.13h-.06l.09.05 2.29.16a.22.22 0 0 1 .1 0l.19.19v.06c0 .06 0 0 0 0l-1.9.17h-.07c-.01 0 .06.05.06.05l2.37.19a.18.18 0 0 1 .13.06 2.39 2.39 0 0 0 .18.18v.06c0 .06-.14 0-.14 0l-1.72.51s0 .06.07.06l2 .18a.05.05 0 0 1 .06.07v.2s0 .06-.11.07l-1.09.13h-.06c-.01 0 0 0 .07.06l1 .11s.08 0 .06.09-.22 1.25-.22 1.25v.05a.68.68 0 0 1-.13-.07l-1.91-1.18-2.34 1.37s-.09.06-.15 0 0-.23 0-.23l.41-2.39L206.4 38s-.08-.12 0-.18 2.52-.37 2.52-.37l1.13-2.25s0-.11.13-.1.13.14.13.14"/><path class="cls-2" d="M215.18 35.23l.79 1.62v.08c0 .02-.12 0-.12 0L215 37h-.08c.01 0 .09.05.2.06l.94.09a.16.16 0 0 1 .13.08 1.82 1.82 0 0 0 .09.17s.05.07 0 .09a1.68 1.68 0 0 1-.28 0l-1.53.18h-.06l.08.05 1 .11a.28.28 0 0 1 .16.07 2 2 0 0 0 .16.17s.06 0 0 .06-.34 0-.34 0l-1.56.13h-.06s0 .05.09.05l2.29.17a.21.21 0 0 1 .1 0l.19.2s.05 0 0 .05l-1.89.17H214.62l2.37.19a.18.18 0 0 1 .13.06 1.86 1.86 0 0 0 .18.18v.05c0 .05-.14 0-.14 0l-1.83.14h-.05s0 .06.07.06l1.95.18s.08 0 .06.07v.2s0 .06-.11.07l-1.09.13h-.06l.08.06 1 .11s.08 0 .06.1-.22 1.24-.22 1.24v.05a.69.69 0 0 1-.13-.07l-1.89-.67-2.22 1.33s-.09.06-.15 0 0-.23 0-.23l.41-2.39-1.8-1.76s-.08-.12 0-.18 2.53-.37 2.53-.37l1.13-2.25s0-.11.13-.1.13.14.13.14"/><path class="cls-2" d="M220 35.23l.79 1.62v.08c0 .02-.12 0-.12 0l-.85.09h-.08s.09.05.2.06l.91.08a.2.2 0 0 1 .14.08l.08.12s.07.08 0 .11a2.89 2.89 0 0 1-.33 0l-1.48.16h-.06l.08.06 3.81.11h.53a.08.08 0 0 1 .07 0l-.13.15a.71.71 0 0 1-.16.13 2.11 2.11 0 0 1-.3 0l-4.33.17h-.06s0 .05.09.06l4 .19a.23.23 0 0 1 .09 0v.05l-.1.1-.05.06a.41.41 0 0 1-.12 0l-3.09.21H219.52l2.51.16h.1c-.01 0-.13.17-.13.17l-.12.11h-.14l-1.44.64h-.05s0 .06.07.06l1.2.1h.3c.12 0 .14 0 .14.06v.28s0 .06-.12.09l-.79.1h-.07l.07.06.91.1a.09.09 0 0 1 .1.1c0 .1.21 1.21.21 1.21a.19.19 0 0 1 0 .19c0 .05-.22-.06-.22-.06L219.9 41l-2.22 1.35a.14.14 0 0 1-.15 0c-.06 0 0-.23 0-.23l.41-2.39L216.1 38s-.08-.12 0-.19 2.52-.37 2.52-.37l1.13-2.25s0-.1.13-.1.13.14.13.14M223.44 15.79l-2.94 1.48-.03.2 3.08-1.55-.11-.13zM222.59 14.73l-1.91.97-.02.19 2.04-1.02-.11-.14zM221.31 13.15l-.36.18-.02.2.49-.25-.11-.13zM222.16 14.21l-1.39.7-.02.2 1.52-.77-.11-.13zM223.02 15.26l-2.43 1.22-.03.2 2.56-1.29-.1-.13zM223.87 16.32l-3.46 1.74-.03.2 3.59-1.81-.1-.13zM221.74 13.68l-.88.44-.02.19 1.01-.5-.11-.13zM220.38 26.25l-.98.49-.02.2.92-.46.08-.23zM220.72 25.33l-1.23.62-.02.2 1.17-.59.08-.23zM221.06 24.42l-1.48.74-.02.2 1.42-.71.08-.23zM220.04 27.16l-.73.38-.03.19.68-.34.08-.23zM219.7 28.08l-.48.24-.03.2.42-.21.09-.23zM221.41 23.5l-1.73.88-.03.19 1.67-.84.09-.23zM222.43 20.76l-2.37 1.19v.19l2.28-1.15.09-.23zM223.11 18.93l-2.98 1.5-.02.2 2.92-1.47.08-.23zM223.45 18.01l-3.22 1.63-.03.2 3.16-1.6.09-.23zM221.75 22.59l-1.98 1-.02.2 1.91-.97.09-.23zM222.77 19.85l-2.73 1.37-.01.13.01.06 2.64-1.33.09-.23zM222.09 21.68l-2.23 1.12-.02.19 2.16-1.08.09-.23zM223.79 17.1l-3.47 1.75-.03.2 3.42-1.72.08-.23zM207.2 18.32l4.63-1.05.03-.17-4.66 1.05v.17zM207.21 20.36l4.23-.96.03-.17-4.26.96v.17zM207.21 19.68l4.36-.98.03-.18-4.39.99v.17zM207.21 21.04l4.1-.93.03-.18-4.13.94v.17zM207.21 19l4.49-1.02.03-.17-4.53 1.02.01.17zM207.2 15.6l4.14-.94-.12-.14-4.03.91.01.17zM207.18 11.52l1.55-.35-.11-.14-1.44.32v.17zM207.18 12.2l1.99-.45-.11-.14-1.88.42v.17zM207.19 12.88l2.41-.54-.11-.15-2.3.52v.17zM207.2 17.64l4.76-1.07.03-.18-4.79 1.08v.17zM207.18 10.16l.68-.15-.11-.15-.57.13v.17zM207.43 9.43l-.11-.15-.14.03v.17l.25-.05zM207.18 10.84l1.12-.25-.11-.15-1.01.23v.17zM207.2 16.96l4.89-1.1.02-.15-.02-.02-4.89 1.1v.17zM207.2 16.28l4.57-1.03-.11-.15-4.46 1.01v.17zM207.19 13.56l2.85-.64-.12-.15-2.73.62v.17zM207.19 14.24l3.28-.74-.11-.14-3.17.71v.17zM207.19 14.92l3.71-.84-.11-.14-3.6.81v.17zM199.23 17.28l-1.48 1.12-.04.24 1.53-1.16-.01-.2zM199.18 16.49l-1.26.96-.04.23 1.32-1-.02-.19zM199.01 13.29l-.42.32-.04.24.47-.35-.01-.21zM199.14 15.69l-1.05.8-.05.24 1.11-.84-.01-.2zM198.96 12.5l-.2.15-.04.24.25-.19-.01-.2zM199.09 14.89l-.83.64-.05.24.9-.68-.02-.2zM199.05 14.1l-.63.47-.04.24.68-.52-.01-.19zM199.72 23.77l-.03-.18L196.5 26l.16.09 3.06-2.32zM200.42 28.23l.09-.07-.04-.18-.2.16.15.09zM199.17 27.51l1.07-.81-.03-.18-1.2.9.16.09zM199.8 27.87l.58-.44-.04-.18-.7.53.16.09zM198.54 27.16l1.57-1.19-.03-.19-1.7 1.29.16.09zM197.91 26.8l2.07-1.57-.03-.18-2.19 1.67.15.08zM199.27 18.08l-1.69 1.28-.04.24 1.74-1.32-.01-.2zM197.28 26.45l2.57-1.95-.03-.18-2.69 2.04.15.09zM199.36 19.68l-2.11 1.6-.05.24 2.17-1.64-.01-.2zM199.32 18.88l-1.91 1.44-.04.24 1.96-1.48-.01-.2zM199.41 20.48l-2.33 1.76-.05.24 2.39-1.81-.01-.19zM199.56 22.85l-2.99 2.27-.04.24 3.06-2.32-.03-.19zM199.49 22.07l-2.75 2.09-.04.24 2.8-2.13-.01-.2zM199.45 21.27l-2.54 1.93-.05.24 2.6-1.97-.01-.2z"/><path class="cls-2" d="M213.68 31.38l6.39-9.25-.85 6.38-5.54 2.87zM213.88 22.63V9.35l-2.05 10.68 2.05 2.6zM220.07 22.13L218.4 9.35l2.61 3.42-.94 9.36zM213.6 23.16l-2.09-2.59-4.29.98v.22l6.38 1.39zM200.16 22.51l.87 5.24 4.37 1.11-5.24-6.35zM213.49 31.46l-3.91 1.9-8.34-4.8 12.25 2.9zM200.03 22.18l3.07-12.83-3.47 2.69.4 10.14zM232.92 29l.43-.49 2.07-2.27h1.74L234.49 29l2.82 4.32h-1.77l-1-1.65-1-1.65-.62.64v2.67h-1.49v-7.1h1.49V29zM243.45 28.29a2.35 2.35 0 0 1-.07.57 1.79 1.79 0 0 1-.59 1 1.53 1.53 0 0 1-.53.3 1.08 1.08 0 0 1 .63.48 3.37 3.37 0 0 1 .31.76l.56 2h-1.5l-.27-.93c-.09-.31-.18-.62-.26-.93a1.4 1.4 0 0 0-.46-.79 1.19 1.19 0 0 0-.72-.21h-.75v2.86h-1.49v-7.1h2.84a3 3 0 0 1 1 .16 2 2 0 0 1 .71.44 1.7 1.7 0 0 1 .41.65 2.26 2.26 0 0 1 .13.78m-2.58 1.16a1.48 1.48 0 0 0 .37-.05 1 1 0 0 0 .34-.18.89.89 0 0 0 .25-.33 1.18 1.18 0 0 0 .1-.51 1 1 0 0 0-.29-.79 1.14 1.14 0 0 0-.77-.25h-1.06v2.11zM249.47 33.35l-.47-1.62h-2.56l-.5 1.62h-1.5l2.38-7.1h1.9l2.31 7.1zm-1.31-4.53l-.41-1.54h-.05l-.43 1.59-.52 1.82h1.92zM254.3 26.11a6.3 6.3 0 0 1 1.11.11 3.59 3.59 0 0 1 1.11.4l-.39 1a4 4 0 0 0-1-.29 6.33 6.33 0 0 0-.87-.07 1.15 1.15 0 0 0-.75.23.84.84 0 0 0-.27.68.54.54 0 0 0 .12.35 1 1 0 0 0 .31.24 2.42 2.42 0 0 0 .44.18l.52.13.77.22a2.89 2.89 0 0 1 .77.36 1.93 1.93 0 0 1 .58.63 2 2 0 0 1 .23 1 1.84 1.84 0 0 1-.73 1.57 3.65 3.65 0 0 1-2.21.55h-.58q-.32 0-.66-.1a6.77 6.77 0 0 1-.67-.17 4.43 4.43 0 0 1-.64-.27l.39-1.07a5.83 5.83 0 0 0 1.33.38 7 7 0 0 0 .95.08 1.69 1.69 0 0 0 .94-.21.8.8 0 0 0 .32-.73.71.71 0 0 0-.32-.63 1.48 1.48 0 0 0-.37-.18l-.47-.14-1-.27a3.33 3.33 0 0 1-.83-.37 1.7 1.7 0 0 1-.56-.57 1.72 1.72 0 0 1-.21-.89 2 2 0 0 1 .67-1.56 2.91 2.91 0 0 1 2-.6M262.76 31.14v-4.88h1.46v7.1h-1.51l-2.37-3.82-.35-.59-.35-.59h-.05v5h-1.46v-7.1h1.53l1.09 1.74 1.07 1.72.88 1.44zM272 29.8a5 5 0 0 1-.21 1.45 3.29 3.29 0 0 1-.61 1.16 2.83 2.83 0 0 1-1 .77 3.35 3.35 0 0 1-1.41.28 3.78 3.78 0 0 1-1.48-.26 2.73 2.73 0 0 1-1-.74 3.13 3.13 0 0 1-.59-1.15 5.34 5.34 0 0 1-.2-1.48 5.28 5.28 0 0 1 .19-1.44 3.37 3.37 0 0 1 .59-1.18 2.74 2.74 0 0 1 1-.8 3.54 3.54 0 0 1 1.5-.29 3.44 3.44 0 0 1 1.49.29 2.7 2.7 0 0 1 1 .8 3.23 3.23 0 0 1 .57 1.17 5.45 5.45 0 0 1 .16 1.42m-1.6 0a7.36 7.36 0 0 0-.06-1 2.87 2.87 0 0 0-.34-.8 1.51 1.51 0 0 0-.5-.59 1.39 1.39 0 0 0-.83-.23 1.49 1.49 0 0 0-.85.22 1.61 1.61 0 0 0-.53.58 2.47 2.47 0 0 0-.26.84 6.56 6.56 0 0 0-.07 1 3.71 3.71 0 0 0 .38 1.86 1.4 1.4 0 0 0 1.33.66 1.36 1.36 0 0 0 1.26-.72 2.65 2.65 0 0 0 .28-.8 5.22 5.22 0 0 0 .09-1M274.41 30.8l-2.28-4.54h1.57c.14.31.29.61.44.91s.29.6.43.91l.62 1.41h.06c.11-.23.23-.47.33-.74s.22-.51.33-.74l.87-1.76h1.54c-.39.71-.77 1.44-1.15 2.18s-.77 1.47-1.15 2.19v2.73h-1.61zM283.06 33.35l-.49-1.62H280l-.5 1.62H278l2.39-7.1h1.89l2.31 7.1zm-1.31-4.53l-.41-1.54-.43 1.59-.52 1.82h1.92zM290.68 28.29a2.41 2.41 0 0 1-.07.57 1.85 1.85 0 0 1-.22.53 1.83 1.83 0 0 1-.37.43 1.51 1.51 0 0 1-.53.3 1.08 1.08 0 0 1 .63.48 3.28 3.28 0 0 1 .3.76l.56 2h-1.5l-.27-.93-.26-.93a1.41 1.41 0 0 0-.45-.79 1.19 1.19 0 0 0-.72-.21H287v2.86h-1.49v-7.1h2.84a3 3 0 0 1 1 .16 1.94 1.94 0 0 1 .71.44 1.67 1.67 0 0 1 .41.65 2.24 2.24 0 0 1 .13.78m-2.58 1.16a1.5 1.5 0 0 0 .37-.05 1 1 0 0 0 .34-.18.86.86 0 0 0 .25-.33 1.15 1.15 0 0 0 .1-.51 1 1 0 0 0-.3-.79 1.14 1.14 0 0 0-.76-.25H287v2.11zM294.57 26.11a6.28 6.28 0 0 1 1.11.11 3.55 3.55 0 0 1 1.11.4l-.39 1a4 4 0 0 0-1-.29 6.43 6.43 0 0 0-.87-.07 1.15 1.15 0 0 0-.75.23.83.83 0 0 0-.27.68.53.53 0 0 0 .11.35 1 1 0 0 0 .31.24 2.38 2.38 0 0 0 .44.18l.52.13.77.22a2.85 2.85 0 0 1 .76.36 2 2 0 0 1 .58.63 2 2 0 0 1 .23 1 1.85 1.85 0 0 1-.73 1.57 3.66 3.66 0 0 1-2.21.55h-.59c-.21 0-.43-.06-.66-.1a6.63 6.63 0 0 1-.67-.17 4.47 4.47 0 0 1-.64-.27l.39-1.07a5.85 5.85 0 0 0 1.33.38 7 7 0 0 0 .95.08 1.71 1.71 0 0 0 .94-.21.82.82 0 0 0 .32-.73.78.78 0 0 0-.08-.38.77.77 0 0 0-.23-.26 1.66 1.66 0 0 0-.37-.18l-.46-.14-1-.27a3.38 3.38 0 0 1-.82-.37 1.59 1.59 0 0 1-.77-1.47 2 2 0 0 1 .67-1.56 2.9 2.9 0 0 1 2-.6M299.89 29l.43-.49 2.07-2.27h1.74L301.45 29l2.82 4.32h-1.77l-1-1.65-1-1.65-.62.64v2.67h-1.49v-7.1h1.49V29zM308.83 32.32h2.9v1h-4.92v-.91l.64-.57.7-.64c.23-.22.46-.44.68-.68a6 6 0 0 0 .58-.7 4 4 0 0 0 .4-.69 1.59 1.59 0 0 0 .15-.66.89.89 0 0 0-.28-.72 1.21 1.21 0 0 0-.81-.24 3.77 3.77 0 0 0-.72.09 3.44 3.44 0 0 0-1 .4l-.45-.88a4.11 4.11 0 0 1 1.29-.63 4.57 4.57 0 0 1 1.14-.17 2.52 2.52 0 0 1 1.68.52 1.89 1.89 0 0 1 .61 1.53 2.52 2.52 0 0 1-.26 1.1 5.53 5.53 0 0 1-.66 1 9.21 9.21 0 0 1-.85.92l-.84.79zM317.81 29.92a6.21 6.21 0 0 1-.14 1.32 3.26 3.26 0 0 1-.46 1.12 2.44 2.44 0 0 1-.84.78 2.57 2.57 0 0 1-1.29.3 2.84 2.84 0 0 1-1.35-.28 2.31 2.31 0 0 1-.85-.77 3.07 3.07 0 0 1-.44-1.12 7 7 0 0 1-.12-1.33 6.6 6.6 0 0 1 .13-1.29 3.37 3.37 0 0 1 .44-1.14 2.37 2.37 0 0 1 .85-.82 2.63 2.63 0 0 1 1.35-.31 2.55 2.55 0 0 1 1.35.32 2.39 2.39 0 0 1 .83.83 3.32 3.32 0 0 1 .42 1.14 7.17 7.17 0 0 1 .11 1.26m-1.46 0v-.83a3.31 3.31 0 0 0-.16-.8 1.5 1.5 0 0 0-.38-.6 1 1 0 0 0-.68-.24 1 1 0 0 0-.68.23 1.46 1.46 0 0 0-.4.6 3.2 3.2 0 0 0-.18.8v.85a8.3 8.3 0 0 0 0 .94 2.38 2.38 0 0 0 .2.75 1.2 1.2 0 0 0 .4.51 1.09 1.09 0 0 0 .66.19 1 1 0 0 0 .62-.2 1.38 1.38 0 0 0 .39-.54 3.18 3.18 0 0 0 .19-.77 7 7 0 0 0 .06-.89M319.73 27.77l-1.43.14v-.98l1.57-.47h1.29v6.89h-1.43v-5.58zM326 30.44a3 3 0 0 1-1.52.42 2.47 2.47 0 0 1-.81-.13 1.81 1.81 0 0 1-.66-.39 1.83 1.83 0 0 1-.44-.67 2.58 2.58 0 0 1-.16-1 2.52 2.52 0 0 1 .18-1 2 2 0 0 1 .51-.73 2.27 2.27 0 0 1 .78-.45 3.17 3.17 0 0 1 1-.15 2.74 2.74 0 0 1 1.24.25 2.14 2.14 0 0 1 .8.68 2.81 2.81 0 0 1 .45 1 5.58 5.58 0 0 1 .14 1.27 6.72 6.72 0 0 1-.16 1.52 3.46 3.46 0 0 1-.53 1.22 2.61 2.61 0 0 1-.93.82 3 3 0 0 1-1.37.29 5 5 0 0 1-1-.08 3.52 3.52 0 0 1-.64-.18l.26-1a3.15 3.15 0 0 0 .68.16 5.11 5.11 0 0 0 .56 0 1.33 1.33 0 0 0 .75-.2 1.66 1.66 0 0 0 .49-.48 2.17 2.17 0 0 0 .28-.61 3.84 3.84 0 0 0 .12-.58zm-2.23-1.77a2 2 0 0 0 0 .46 1 1 0 0 0 .17.36.85.85 0 0 0 .32.24 1.24 1.24 0 0 0 .51.09 2 2 0 0 0 .47-.06l.36-.13.26-.14.14-.09v-.19a4.2 4.2 0 0 0 0-.55 1.8 1.8 0 0 0-.16-.55 1.08 1.08 0 0 0-.35-.42 1 1 0 0 0-.61-.17 1.07 1.07 0 0 0-.82.31 1.19 1.19 0 0 0-.28.84M249.1 17.69l-.14.65-.14.66c0 .06-.08.39-.22 1s-.33 1.43-.57 2.55h-.89l-1.45-5.89h.76l.4 1.75q.2.87.41 1.75c0 .25.1.5.16.75s.11.5.17.75l.31-1.4.21-.93.2-.89.2-.88.2-.9h.78l.95 3.56s0 .11.07.24l.11.42.12.45.08.32h.05l.17-.78c.06-.26.11-.53.16-.78l.38-1.72.39-1.71h.72q-.37 1.59-.74 3.07c-.24 1-.48 1.93-.69 2.82h-.86c-.16-.6-.31-1.18-.47-1.75s-.31-1.16-.47-1.78c-.06-.22-.11-.43-.16-.65s-.11-.43-.17-.64zM253.59 16.62h.72v5.9h-.72zM259.56 21.32v-4.69h.7v5.89h-.71L257.28 19l-.78-1.24v4.79h-.7v-5.92h.73l1.08 1.67 1.05 1.7.86 1.35zM263.03 22.52v-5.33h-1.9v-.57h4.51v.57h-1.89l-.01 5.33h-.71zM266.5 22.52v-5.89h3.59v.55h-2.86v1.95h2.41v.53h-2.41v2.3h3v.56h-3.73zM275.14 18.25a1.8 1.8 0 0 1-.26 1 1.3 1.3 0 0 1-.78.57.78.78 0 0 1 .5.39 3.26 3.26 0 0 1 .26.65l.48 1.7h-.73l-.47-1.62a2.13 2.13 0 0 0-.19-.47 1.1 1.1 0 0 0-.24-.29.75.75 0 0 0-.31-.15 1.76 1.76 0 0 0-.39 0h-.93v2.57h-.72v-5.9h2a1.77 1.77 0 0 1 1.32.45 1.61 1.61 0 0 1 .45 1.18m-1.87 1.14a1.59 1.59 0 0 0 .37 0 1 1 0 0 0 .37-.17 1 1 0 0 0 .28-.34 1.27 1.27 0 0 0 .11-.56 1.32 1.32 0 0 0-.09-.51.84.84 0 0 0-.24-.34 1 1 0 0 0-.36-.19 1.49 1.49 0 0 0-.45-.06h-1.17v2.21zM232 22h2.83v.52H231V22l.53-.5.62-.59q.32-.31.63-.64a7.13 7.13 0 0 0 .55-.67 3.7 3.7 0 0 0 .39-.67 1.52 1.52 0 0 0 .15-.63 1 1 0 0 0-.33-.81 1.35 1.35 0 0 0-.85-.25 3.25 3.25 0 0 0-.59.07 2.82 2.82 0 0 0-.87.38l-.24-.41a3.31 3.31 0 0 1 1-.5 3.45 3.45 0 0 1 .44-.1h.37a2.58 2.58 0 0 1 .72.1 1.52 1.52 0 0 1 .56.29 1.42 1.42 0 0 1 .37.5 1.66 1.66 0 0 1 .13.7 2.14 2.14 0 0 1-.29 1 6 6 0 0 1-.69 1 10.09 10.09 0 0 1-.86.9l-.79.74zM239 19.92a3.59 3.59 0 0 1-.67.31 2.48 2.48 0 0 1-.79.12 2.12 2.12 0 0 1-.66-.1 1.44 1.44 0 0 1-.55-.31 1.55 1.55 0 0 1-.38-.55 2.34 2.34 0 0 1 0-1.6 1.73 1.73 0 0 1 .4-.58 1.75 1.75 0 0 1 .61-.37 2.36 2.36 0 0 1 .79-.13 2 2 0 0 1 1 .21 1.62 1.62 0 0 1 .61.57 2.4 2.4 0 0 1 .32.85 5.68 5.68 0 0 1 .09 1 5.54 5.54 0 0 1-.14 1.28 3.1 3.1 0 0 1-.42 1 2 2 0 0 1-.71.66 2.06 2.06 0 0 1-1 .24 3.42 3.42 0 0 1-.82-.09 2.7 2.7 0 0 1-.5-.17l.08-.25c0-.09 0-.17.08-.25a2.88 2.88 0 0 0 .63.16 3.89 3.89 0 0 0 .52 0 1.27 1.27 0 0 0 .78-.23 1.69 1.69 0 0 0 .48-.57 2.53 2.53 0 0 0 .25-.68 4.27 4.27 0 0 0 0-.44zm-1.33-.11a2.34 2.34 0 0 0 .57-.06 2.56 2.56 0 0 0 .42-.15 1.71 1.71 0 0 0 .26-.15l.11-.08v-.19a4.76 4.76 0 0 0 0-.6 1.9 1.9 0 0 0-.18-.61 1.36 1.36 0 0 0-.39-.49 1.1 1.1 0 0 0-.7-.2 1.18 1.18 0 0 0-.93.35 1.33 1.33 0 0 0-.31.91 2 2 0 0 0 .06.51 1 1 0 0 0 .2.4.93.93 0 0 0 .36.26 1.43 1.43 0 0 0 .56.09M240.89 19.27v-2.15h-.79v-.3h1.97v.3h-.78v2.15h-.4zM243.87 19.27v-1.13h-1.06v1.14h-.41v-2.46h.41v1.01h1.06v-1h.41v2.45zM281.87 20.4a2.77 2.77 0 0 1-.14.9 1.8 1.8 0 0 1-.42.69 1.86 1.86 0 0 1-.7.44 2.91 2.91 0 0 1-1 .15 2.22 2.22 0 0 1-1.71-.58 2.31 2.31 0 0 1-.53-1.61v-3.77h.72v3.79a1.67 1.67 0 0 0 .4 1.21 1.51 1.51 0 0 0 1.13.4 1.54 1.54 0 0 0 1.13-.4 1.66 1.66 0 0 0 .4-1.22v-3.78h.72zM287 21.32v-4.69h.7v5.89h-.71L284.68 19l-.77-1.24v4.79h-.7v-5.92h.73L285 18.3l1.06 1.7.86 1.35zM289.14 16.62h.73v5.9h-.73zM293.06 21.76l.34-1.21 1.16-3.93h.76l-1.87 5.9h-.86l-1.87-5.9h.78l1.18 3.94.33 1.2h.05zM296.1 22.52v-5.89h3.59v.55h-2.86v1.95h2.41v.53h-2.41v2.3h3v.56h-3.73zM304.74 18.25a1.77 1.77 0 0 1-.27 1 1.29 1.29 0 0 1-.78.57.78.78 0 0 1 .5.39 3.2 3.2 0 0 1 .26.65l.48 1.7h-.73l-.47-1.62a2.29 2.29 0 0 0-.19-.47 1.07 1.07 0 0 0-.24-.29.73.73 0 0 0-.3-.18 1.76 1.76 0 0 0-.39 0h-.93v2.57H301v-5.9h2a1.77 1.77 0 0 1 1.32.45 1.6 1.6 0 0 1 .45 1.18m-1.87 1.14a1.63 1.63 0 0 0 .37 0 .91.91 0 0 0 .64-.51 1.27 1.27 0 0 0 .11-.56 1.34 1.34 0 0 0-.09-.51.86.86 0 0 0-.24-.34 1 1 0 0 0-.36-.19 1.5 1.5 0 0 0-.45-.06h-1.17v2.21zM307.82 16.52a4.86 4.86 0 0 1 .8.07 2.39 2.39 0 0 1 .81.3l-.23.52a3.05 3.05 0 0 0-.78-.24 3.91 3.91 0 0 0-.65-.06 1.3 1.3 0 0 0-.85.26 1 1 0 0 0-.33.8.71.71 0 0 0 .11.41.88.88 0 0 0 .3.27 2.18 2.18 0 0 0 .42.18l.48.13.65.18a2.18 2.18 0 0 1 .61.28 1.47 1.47 0 0 1 .45.49 1.54 1.54 0 0 1 .18.78 1.66 1.66 0 0 1-.16.76 1.4 1.4 0 0 1-.45.53 2 2 0 0 1-.69.31 3.81 3.81 0 0 1-.87.1 4.76 4.76 0 0 1-1-.1 3.23 3.23 0 0 1-.94-.35l.25-.54a3.66 3.66 0 0 0 1.66.41 2 2 0 0 0 1-.24.94.94 0 0 0 .37-.87.92.92 0 0 0-.09-.44.8.8 0 0 0-.27-.29 1.77 1.77 0 0 0-.41-.2l-.5-.15-.74-.21a2.68 2.68 0 0 1-.62-.28 1.21 1.21 0 0 1-.59-1.12 1.66 1.66 0 0 1 .15-.71 1.52 1.52 0 0 1 .4-.53 1.81 1.81 0 0 1 .62-.33 2.6 2.6 0 0 1 .79-.11M311.04 16.62h.72v5.9h-.72zM316.66 22.52l-.24-.77-.24-.77h-2.33l-.24.77-.24.77h-.75l1-3.08q.49-1.47.93-2.82h.93l1.93 5.9zm-.66-2.1l-.4-1.31c-.13-.44-.27-.87-.41-1.31l-.17-.58-.17.59-.19.62-.19.62-.2.65-.22.71zM318.21 22.52v-5.9h1.92a2.6 2.6 0 0 1 1.18.24 2 2 0 0 1 .75.64 2.55 2.55 0 0 1 .38.93 5.4 5.4 0 0 1 .11 1.12 5.1 5.1 0 0 1-.12 1.14 2.52 2.52 0 0 1-.41.94 2.06 2.06 0 0 1-.77.64 2.67 2.67 0 0 1-1.2.24zm.75-5.34V22h1.32a1.51 1.51 0 0 0 .39-.09 1.41 1.41 0 0 0 .4-.22 1.43 1.43 0 0 0 .36-.4 2.36 2.36 0 0 0 .26-.65 4 4 0 0 0 .1-1 4.54 4.54 0 0 0-.09-1 2.62 2.62 0 0 0-.24-.68 1.45 1.45 0 0 0-.34-.43 1.5 1.5 0 0 0-.39-.23 1.6 1.6 0 0 0-.39-.1h-.35zM323.76 22.52v-5.89h3.59v.55h-2.86v1.95h2.41v.53h-2.41v2.3h3v.56h-3.73zM339.46 10.94h.24v31.89h-.24zM391.47 22.32h-1.83v-2.46h-2.14v6.66h2.14v-2.37h1.83v2.37h2.14v-6.66h-2.14zm19.89 0h-1.83v-2.46h-2.14v6.66h2.14v-2.37h1.83v2.37h2.14v-6.66h-2.14zm32.7-.52h-1v-1.94h-2.14v6.66h3.17a2.23 2.23 0 0 0 2.52-2.12v-.47a2.23 2.23 0 0 0-2.52-2.12m-.22 3.07H443v-1.46h.72a.68.68 0 0 1 .74.73.67.67 0 0 1-.65.72M430.25 24h2.41v-1.59h-2.41v-.81h2.63v-1.74h-4.78v6.66h5v-1.74h-2.83zm-2.66-4.13h-2.32l-1.13 2.52h-.53v-2.53h-2.14v6.66h2.14v-2.37h.53l1.16 2.37h2.46l-1.82-3.36zm-29.69-.11h-1a2.44 2.44 0 0 0-2.52 2.52v1.86a2.43 2.43 0 0 0 2.52 2.52h1a2.44 2.44 0 0 0 2.52-2.52v-1.87a2.39 2.39 0 0 0-2.52-2.52m.37 4.53a.81.81 0 0 1-.8.8h-.18a.81.81 0 0 1-.8-.8v-2.16a.81.81 0 0 1 .8-.8h.18a.81.81 0 0 1 .8.8zm36.39-.9c0 1-.27 1.16-.65 1.34a2 2 0 0 1-.62.06v1.74h.84c1.8 0 2.47-1 2.5-3.4V21.6h1.2v4.92h2.14v-6.66h-5.41zm-30.34-3.52h-3.17v6.66h2.14v-1.64h1a2.23 2.23 0 0 0 2.52-2.12V22a2.23 2.23 0 0 0-2.52-2.12m.44 2.69a.68.68 0 0 1-.74.71h-.72V21.5h.81a.68.68 0 0 1 .65.7zm11.7.69v-3.4h-2v6.66h1.88l2.2-3.35v3.35h2v-6.66h-1.88zM402.24 37.22v-2.7h1.64v.27h-1.3v2.43h-.34zM404.4 37.22v-2.7h1.65v.26h-1.31v.89h1.11v.24h-1.11v1.05h1.37v.26h-1.71zM408.24 37.22v-1.29H407v1.3h-.34v-2.7h.34v1.14h1.27v-1.15h.34v2.7zM409.21 37.22v-2.7h1.65v.26h-1.31v.89h1.1v.24h-1.1v1.05h1.37v.26h-1.71zM413.17 35.3a1.05 1.05 0 0 1 0 .26.78.78 0 0 1-.13.26.8.8 0 0 1-.25.2.86.86 0 0 1-.39.08h-.59v1.11h-.34v-2.69h.89a1.14 1.14 0 0 1 .34 0 .75.75 0 0 1 .27.15.66.66 0 0 1 .17.25.88.88 0 0 1 .06.34m-1.39-.53v1.08h.73a.49.49 0 0 0 .16-.09.49.49 0 0 0 .12-.17.66.66 0 0 0 0-.26.71.71 0 0 0 0-.24.47.47 0 0 0-.11-.17.43.43 0 0 0-.17-.1.7.7 0 0 0-.21 0zM415 37.22l-.11-.35-.11-.36h-1.07l-.11.36-.11.35h-.34l.47-1.41.43-1.29h.43l.88 2.71zm-.3-1l-.18-.6-.19-.6-.08-.26-.08.27-.09.29-.09.29-.09.3-.1.33zM417.3 37.22v-2.45h-.88v1.44a2.69 2.69 0 0 1-.08.42 1 1 0 0 1-.14.31.7.7 0 0 1-.24.21 1.18 1.18 0 0 1-.35.12l-.06-.24a.88.88 0 0 0 .35-.19.72.72 0 0 0 .18-.33 2.67 2.67 0 0 0 .09-.54v-1.5h1.5v2.71zM418.61 35.64h.64a1 1 0 0 1 .39.07.74.74 0 0 1 .28.17.7.7 0 0 1 .16.25.83.83 0 0 1 .06.31.87.87 0 0 1-.07.35.7.7 0 0 1-.17.25.75.75 0 0 1-.26.15 1.13 1.13 0 0 1-.33 0h-1v-2.67h.34zm0 .23V37h.64a.65.65 0 0 0 .21 0 .48.48 0 0 0 .28-.28.67.67 0 0 0 0-.24.59.59 0 0 0-.05-.25.47.47 0 0 0-.13-.17.58.58 0 0 0-.19-.1.67.67 0 0 0-.21 0zM422.21 37.22v-1.29h-1.26v1.3h-.34v-2.7h.34v1.14h1.26v-1.15h.34v2.7zM423.52 35.64h.64a1.07 1.07 0 0 1 .39.07.81.81 0 0 1 .28.17.74.74 0 0 1 .16.26.84.84 0 0 1 .06.31.85.85 0 0 1-.07.35.69.69 0 0 1-.17.25.71.71 0 0 1-.26.15 1.14 1.14 0 0 1-.33 0h-1v-2.68h.33zm0 .24V37h.64a.66.66 0 0 0 .21 0 .49.49 0 0 0 .28-.28.64.64 0 0 0 0-.24.61.61 0 0 0 0-.25.57.57 0 0 0-.13-.18.6.6 0 0 0-.19-.1.72.72 0 0 0-.21 0zm1.85-1.36h.33v2.71h-.33zM428.33 34.52v2.7H428V35l-1.34 2.19h-.33v-2.7h.33v2.21l1.34-2.18zm-1-.25a.51.51 0 0 1-.2 0 .73.73 0 0 1-.17-.1l-.15-.14-.13-.16.18-.14a1.09 1.09 0 0 0 .23.24.41.41 0 0 0 .24.09h.09a.28.28 0 0 0 .12 0 .63.63 0 0 0 .16-.09l.2-.17.1.1a1.13 1.13 0 0 1-.35.35.68.68 0 0 1-.33.1M431.65 37.22V34.8h-1.27v2.42h-.34v-2.7h1.95v2.7h-.34zM434.2 37.22l-.11-.35-.11-.36h-1.07l-.11.36-.11.35h-.34l.47-1.41.43-1.29h.43l.88 2.71zm-.3-1l-.18-.6-.18-.6-.08-.26-.08.27-.09.29-.09.29-.09.3-.1.33zM436.64 35.3a1 1 0 0 1 0 .26.76.76 0 0 1-.13.26.78.78 0 0 1-.25.2.84.84 0 0 1-.39.08h-.59v1.11h-.34v-2.69h.89a1.13 1.13 0 0 1 .34 0 .77.77 0 0 1 .27.15.68.68 0 0 1 .17.25.9.9 0 0 1 .06.34m-1.39-.53v1.08h.73a.49.49 0 0 0 .16-.09.48.48 0 0 0 .12-.17.68.68 0 0 0 0-.26.72.72 0 0 0 0-.24.47.47 0 0 0-.11-.17.42.42 0 0 0-.17-.1.71.71 0 0 0-.21 0zM437.74 37.22v-2.44h-.87v-.26h2.06v.26h-.86l-.01 2.44h-.32zM440.93 37.22v-1.29h-1.27v1.3h-.34v-2.7h.34v1.14h1.27v-1.15h.34v2.7zM441.91 37.22v-2.7h1.65v.26h-1.31v.89h1.1v.24h-1.1v1.05h1.37v.26h-1.71zM445.87 35.3a1.11 1.11 0 0 1 0 .26.72.72 0 0 1-.38.46.87.87 0 0 1-.39.08h-.59v1.11h-.34v-2.69h.83a1.15 1.15 0 0 1 .34 0 .78.78 0 0 1 .27.15.65.65 0 0 1 .17.25.84.84 0 0 1 .06.34m-1.39-.53v1.08h.74a.52.52 0 0 0 .17-.09.5.5 0 0 0 .11-.17.7.7 0 0 0 0-.26.74.74 0 0 0 0-.24.48.48 0 0 0-.11-.17.43.43 0 0 0-.17-.1.69.69 0 0 0-.21 0zM371.19 13.07v6.74l-10-6.74a10 10 0 1 0 0 20v-6.76l10 6.74a10 10 0 1 0 0-20M359 30.61a7.85 7.85 0 0 1 0-15.11zm2.15-6.89v-8.07l10 6.74v8.08zm15.6 4.88a7.85 7.85 0 0 1-3.42 2V15.5a7.84 7.84 0 0 1 3.42 13.1"/></g></g></svg>