<svg id="Слой_1" data-name="Слой 1" xmlns="http://www.w3.org/2000/svg" viewBox="0 0 293.77 33.72"><defs><style>.cls-1{fill:#dff2fd}.cls-2{fill:#7ecef3}</style></defs><title>header-left_1</title><path class="cls-1" d="M142.58 17.51l1.91-.22.29-.27-1.2-.44zm-3.81.44l1.91-.22 1.7-1.58-1.21-.44zm-3.82.44l1.91-.22 3.11-2.9-1.2-.44zm-3.82.44l1.87-.23 4.52-4.22-1.21-.44zm-3.8.44l1.91-.22 5.93-5.53-1.2-.44zm-3.82.44l1.9-.22 7.35-6.86-1.2-.44zm-3.82.44l1.91-.22 8.76-8.17-1.2-.44zm-3.8.44l1.91-.22 10.2-9.5-1.2-.44zm-3.82.44l1.91-.22L125.56 10l-1.2-.44zm-3.82.44l1.91-.22 13-12.12-1.16-.46zm-3.81.44l1.91-.22 14.4-13.46-1.2-.44zm-3.82.44l1.92-.22 15.81-14.78-1.21-.44zm-3.81.44l1.91-.22 17.22-16.1-1.2-.47zM93 23.2l1.9-.2 18.64-17.41-1.2-.44zm-3.82.44l1.92-.22 20.04-18.71-1.21-.44zm-3.81.44l1.91-.22 21.47-20-1.2-.44zm-3.8.44l1.9-.22L106.34 3l-1.2-.44zm-3.84.48l1.91-.22 24.29-22.7-1.21-.44zm-3.82.44l1.9-.22 25.71-24-1.19-.46zM1.46 0v.92l1-.92zm2.66 0L1.46 2.48V4l4.33-4zm3.35 0l-6 5.6v1.56L9.14 0zm3.34 0L1.46 8.72v1.56L12.48 0zm3.35 0L1.46 11.84v1.56L15.83 0zm3.34 0l-16 15v1.56L19.18 0zm3.34 0L1.46 18.08v1.56L22.51 0zm3.35 0L1.46 21.2v1.56L25.86 0zm3.35 0L1.46 24.32v1.56L29.21 0zm3.34 0L1.46 27.43V29L32.55 0zm3.35 0L1.46 30.56v1.56L35.9 0zm3.35 0L1.46 33.68l1.87-.22L39.25 0zm3.34 0L5.23 33.28l1.9-.22L42.59 0zm3.35 0L9.05 32.84l1.95-.22L45.94 0zm3.35 0L12.87 32.4l1.91-.22L49.28 0zM51 0L16.68 32l1.91-.22L52.63 0zm3.34 0L20.49 31.53l1.91-.22L56 0zm3.35 0L24.31 31.09l1.9-.22L59.32 0zM61 0L28.12 30.65l1.88-.22L62.66 0zm3.35 0L31.94 30.21l1.91-.21L66 0zm3.34 0L35.76 29.78l1.91-.22L69.36 0zM71 0L39.56 29.34l1.92-.22L72.7 0zm3.35 0l-31 28.9 1.91-.22L76 0zm3.34 0L47.2 28.46l1.92-.22L79.39 0zm3.35 0L51 28l1.91-.22L82.73 0zm3.35 0L54.83 27.59l1.91-.22L86.08 0zm3.34 0L58.65 27.15l1.91-.22L89.43 0zm3.37 0L62.46 26.71l1.91-.22L92.77 0zm3.34 0L66.28 26.27l1.91-.22L96.12 0zm3.35 0L70.1 25.83l1.9-.22L99.12.32 98.26 0z"/><path class="cls-2" d="M98.35 0l.44.16L99 0zm2.24 0l-.59.59 1.17.43 1.08-1zm3.27 0l-1.54 1.45 1.17.43 2-1.88zm3.25 0l-2.46 2.31 1.17.43L108.74 0zm3.26 0L107 3.17l1.18.43L112 0zm3.26 0l-4.28 4 1.18.43L115.27 0zm3.25 0l-5.18 4.89 1.18.43L118.53 0zm3.27 0l-6.11 5.76 1.17.43L121.79 0zm3.26 0l-7 6.62 1.17.43L125 0zm3.25 0l-7.94 7.47 1.18.43 8.41-7.9zm3.27 0l-8.85 8.34 1.18.43L131.58 0zm3.26 0l-9.77 9.2 1.17.43L134.84 0zm3.25 0l-10.66 10.06 1.17.43L138.09 0zm3.26 0l-11.57 10.92 1.18.43L141.35 0zm3.3 0l-12.52 11.78 1.18.43L144.62 0zm3.26 0l-13.43 12.64 1.17.43L147.87 0zm3.27 0l-14.35 13.5 1.17.43L151.14 0zm3.26 0l-15.26 14.36 1.17.43L154.4 0zM156 0l-16.14 15.22 1.18.43L157.66 0zm3.27 0l-17.05 16.08 1.17.43L160.92 0zm3.26 0l-18 16.94.7.26.75-.09L164.19 0zm3.26 0l-17.92 16.9 1.86-.21L167.44 0zm3.26 0l-17.46 16.47 1.87-.22L170.7 0zm3.27 0l-17 16 1.85-.21L174 0zm3.25 0L159 15.61l1.86-.21L177.22 0zm3.27 0l-16.09 15.17 1.85-.17 15.88-15zm3.26 0l-15.64 14.74 1.86-.22L183.75 0zm3.26 0l-15.2 14.31 1.84-.21L187 0zm3.26 0l-14.73 13.88 1.86-.22L190.26 0zm3.27 0l-14.27 13.45 1.86-.22L193.53 0zm3.25 0l-13.82 13 1.86-.21L196.78 0zm3.26 0L185 12.59l1.86-.21L200 0zm3.27 0l-12.9 12.16 1.86-.21L203.31 0zm3.25 0l-12.44 11.73 1.86-.22L206.57 0zm3.26 0l-12 11.3 1.86-.22L209.83 0zm3.26 0l-11.53 10.87 1.87-.22L213.09 0zm3.26 0l-11.07 10.44 1.87-.22L216.35 0zm3.3 0l-10.64 10 1.86-.21L219.61 0zm3.26 0l-10.19 9.58 1.86-.22L222.87 0zm3.26 0l-9.71 9.15 1.86-.22L226.13 0zm3.26 0l-9.26 8.72 1.87-.22 9-8.5zM231 0l-8.8 8.29 1.87-.22L232.66 0zm3.26 0l-8.34 7.86 1.86-.22L235.91 0zm3.26 0l-7.88 7.43 1.86-.22L239.17 0zm3.27 0l-7.42 7 1.85-.21L242.44 0zm3.25 0l-7 6.56 1.96-.21L245.69 0zm3.26 0l-6.51 6.13 1.86-.22L249 0zm3.26 0l-6.05 5.7 1.86-.21L252.22 0zm3.26 0l-5.6 5.27 1.86-.22 5.4-5.05zm3.26 0L252 4.84l1.87-.22L258.75 0zm3.27 0l-4.68 4.41 1.86-.21L262 0zm3.25 0l-4.2 4 1.87-.22 4-3.77zm3.26 0l-3.77 3.55 1.91-.22L268.52 0zm3.27 0l-3.31 3.12 1.86-.21 3.1-2.91zm3.26 0l-2.85 2.69 1.86-.21L275 0zm3.26 0l-2.4 2.26 1.88-.26 2.17-2zm3.26 0L278 1.83l1.86-.21 1.7-1.62zm3.26 0l-1.47 1.4 1.86-.21L284.82 0zm3.26 0l-1 1 1.86-.22.8-.75zm3.27 0l-.57.54L291 .32l.34-.32zm3.3 0l-.11.11.92-.11z"/></svg>