<svg id="Layer_1" data-name="Layer 1" xmlns="http://www.w3.org/2000/svg" viewBox="0 0 1920 440.36"><defs><style>.cls-1{fill:none}.cls-2{clip-path:url(#clip-path)}.cls-3{fill:#6ec4e9}.cls-4{clip-path:url(#clip-path-2)}.cls-5{fill:#0e7dc2}</style><clipPath id="clip-path"><path class="cls-1" d="M923.66 230.66L1920 276.14V0L923.66 230.66z"/></clipPath><clipPath id="clip-path-2"><path class="cls-1" d="M.32 440.36l923.63-210.55L-.14 189.27l.46 251.09z"/></clipPath></defs><title>kinds-of-sports-hatching-new</title><g class="cls-2"><path class="cls-3" d="M802.98 225.25l523.78-566.09 2.34 1.96-523.79 566.1-2.33-1.97zM812.45 233.2l523.79-566.09-2.34-1.97-523.79 566.09 2.34 1.97zM819.59 239.18l523.79-566.09-2.35-1.97-523.78 566.1 2.34 1.96zM826.73 245.16l523.79-566.1-2.35-1.96-523.78 566.09 2.34 1.97zM833.87 251.14l523.78-566.09-2.34-1.96-523.79 566.09 2.35 1.96zM841.01 257.12l523.78-566.09-2.34-1.97-523.79 566.1 2.35 1.96zM848.14 263.1l523.79-566.09-2.34-1.96L845.8 261.14l2.34 1.96zM855.29 269.08l523.78-566.09-2.34-1.96-523.79 566.09 2.35 1.96zM862.42 275.06l523.79-566.09-2.34-1.96L860.08 273.1l2.34 1.96zM869.57 281.05l523.78-566.1-2.34-1.96-523.79 566.09 2.35 1.97zM876.7 287.02l523.78-566.09-2.34-1.96-523.78 566.09 2.34 1.96zM883.84 293l523.78-566.09-2.34-1.96L881.5 291.04l2.34 1.96zM890.98 298.98l523.78-566.09-2.34-1.96-523.78 566.09 2.34 1.96zM898.11 304.96l523.79-566.09-2.34-1.96L895.77 303l2.34 1.96zM905.25 310.94l523.79-566.08-2.35-1.97-523.78 566.09 2.34 1.96zM912.39 316.93l523.79-566.09-2.34-1.97-523.79 566.1 2.34 1.96zM919.53 322.91l523.79-566.09-2.35-1.97-523.78 566.09 2.34 1.97zM926.67 328.89l523.78-566.09-2.34-1.96-523.78 566.09 2.34 1.96zM933.81 334.87l523.79-566.09-2.35-1.97-523.78 566.1 2.34 1.96zM940.95 340.85l523.78-566.09-2.34-1.96L938.6 338.89l2.35 1.96zM948.09 346.83l523.78-566.09-2.34-1.96-523.79 566.09 2.35 1.96zM1057.22 242.81l523.79-566.09-2.35-1.96-523.78 566.09 2.34 1.96zM1064.36 248.79l523.79-566.09-2.35-1.96-523.78 566.09 2.34 1.96zM1071.5 254.78l523.79-566.09-2.35-1.97-523.78 566.09 2.34 1.97zM1078.64 260.76l523.79-566.1-2.35-1.96-523.78 566.09 2.34 1.97zM1085.78 266.74l523.79-566.09-2.35-1.97-523.78 566.09 2.34 1.97zM1092.92 272.72l523.79-566.09-2.35-1.97-523.78 566.1 2.34 1.96zM1100.06 278.7l523.79-566.09-2.35-1.97-523.79 566.1 2.35 1.96zM1107.2 284.68l523.78-566.09-2.34-1.96-523.79 566.09 2.35 1.96zM1114.33 290.66l523.79-566.09-2.34-1.96-523.79 566.09 2.34 1.96zM1121.47 296.64l523.79-566.09-2.35-1.96-523.78 566.09 2.34 1.96zM1128.61 302.63l523.79-566.1-2.35-1.97-523.78 566.1 2.34 1.97zM1135.75 308.6l523.79-566.09-2.35-1.96-523.78 566.09 2.34 1.96zM1142.89 314.59l523.78-566.1-2.34-1.96-523.79 566.09 2.35 1.97zM1150.03 320.57l523.78-566.1-2.34-1.96-523.79 566.09 2.35 1.97zM1157.16 326.55l523.79-566.1-2.35-1.96-523.78 566.09 2.34 1.97zM1164.3 332.53l523.79-566.09-2.34-1.97-523.79 566.09 2.34 1.97zM1171.45 338.51l523.78-566.09-2.34-1.97-523.79 566.1 2.35 1.96zM1178.58 344.49l523.79-566.09-2.34-1.96-523.79 566.09 2.34 1.96zM1185.72 350.47l523.79-566.09-2.35-1.96-523.78 566.09 2.34 1.96zM1192.86 356.45l523.79-566.09-2.35-1.96-523.78 566.09 2.34 1.96zM1200 362.43l523.79-566.09-2.35-1.96-523.78 566.09 2.34 1.96zM1207.13 368.41l523.79-566.09-2.34-1.96-523.79 566.09 2.34 1.96zM1214.27 374.39l523.79-566.09-2.34-1.96-523.79 566.09 2.34 1.96zM1221.41 380.38l523.79-566.1-2.34-1.96-523.79 566.09 2.34 1.97zM1228.55 386.36l523.79-566.09-2.35-1.97-523.78 566.09 2.34 1.97zM1235.69 392.34l523.79-566.09-2.35-1.97-523.78 566.1 2.34 1.96zM1242.82 398.32l523.79-566.09-2.34-1.97-523.79 566.1 2.34 1.96zM1249.97 404.3l523.78-566.09-2.34-1.96-523.78 566.09 2.34 1.96zM1257.11 410.28l523.78-566.09-2.34-1.96-523.79 566.09 2.35 1.96zM1264.25 416.26l523.78-566.09-2.34-1.96L1261.9 414.3l2.35 1.96zM1271.38 422.24l523.79-566.09-2.34-1.96-523.79 566.09 2.34 1.96zM1278.52 428.23l523.79-566.1-2.34-1.96-523.79 566.09 2.34 1.97zM1285.66 434.21l523.78-566.1-2.34-1.96-523.78 566.09 2.34 1.97zM1292.8 440.19l523.79-566.09-2.35-1.97-523.79 566.09 2.35 1.97zM1299.95 446.18l523.79-566.09-2.34-1.96-523.79 566.09 2.34 1.96zM1307.09 452.16l523.79-566.09-2.34-1.96-523.79 566.09 2.34 1.96zM1314.23 458.14l523.79-566.09-2.35-1.96-523.78 566.09 2.34 1.96zM1321.37 464.12l523.78-566.09-2.34-1.96-523.78 566.09 2.34 1.96zM1328.51 470.11l523.79-566.1-2.35-1.96-523.78 566.09 2.34 1.97zM1335.64 476.08l523.79-566.09-2.34-1.96-523.79 566.09 2.34 1.96zM1342.78 482.06l523.79-566.08-2.34-1.97-523.79 566.09 2.34 1.96zM1349.92 488.05l523.79-566.1-2.34-1.96-523.79 566.09 2.34 1.97zM1357.06 494.03l523.79-566.09-2.34-1.97-523.79 566.09 2.34 1.97zM1364.2 500.01l523.78-566.09-2.34-1.97-523.78 566.1 2.34 1.96zM1371.34 505.99L1895.13-60.1l-2.35-1.97L1369 504.02l2.34 1.97zM1378.48 511.97l523.79-566.09-2.35-1.97-523.78 566.1 2.34 1.96zM1385.61 517.95l523.79-566.1-2.34-1.96-523.79 566.1 2.34 1.96zM1392.75 523.93l523.79-566.09-2.35-1.97-523.78 566.1 2.34 1.96zM1399.89 529.91l523.79-566.09-2.34-1.96-523.79 566.09 2.34 1.96zM1407.03 535.89L1930.82-30.2l-2.34-1.96-523.79 566.09 2.34 1.96zM1414.17 541.87l523.78-566.09-2.34-1.96-523.78 566.09 2.34 1.96zM1421.31 547.86l523.78-566.1-2.34-1.96-523.79 566.09 2.35 1.97zM1428.44 553.83l523.79-566.09-2.34-1.96-523.79 566.09 2.34 1.96zM1435.58 559.82l523.79-566.1-2.34-1.96-523.79 566.1 2.34 1.96zM1442.72 565.8L1966.51-.29l-2.34-1.97-523.79 566.09 2.34 1.97zM1449.86 571.78l523.79-566.1-2.35-1.96-523.78 566.1 2.34 1.96zM1457 577.76l523.79-566.09-2.34-1.96-523.79 566.08 2.34 1.97zM1464.14 583.74l523.78-566.09-2.34-1.96-523.78 566.09 2.34 1.96zM1471.28 589.72l523.79-566.09-2.35-1.96-523.79 566.09 2.35 1.96zM1478.42 595.7L2002.2 29.61l-2.34-1.96-523.79 566.09 2.35 1.96zM1485.56 601.68l523.79-566.09-2.35-1.96-523.78 566.09 2.34 1.96zM1492.69 607.67l523.79-566.1-2.34-1.96-523.79 566.09 2.34 1.97zM1499.83 613.64l523.79-566.09-2.34-1.96-523.79 566.09 2.34 1.96zM1506.97 619.63l523.79-566.1-2.35-1.96-523.78 566.09 2.34 1.97zM1514.11 625.61L2037.9 59.52l-2.35-1.97-523.78 566.09 2.34 1.97zM1521.25 631.59L2045.04 65.5l-2.35-1.97-523.78 566.1 2.34 1.96zM1528.39 637.57l523.79-566.09-2.35-1.97-523.79 566.1 2.35 1.96zM1535.53 643.55l523.78-566.09-2.34-1.97-523.79 566.1 2.35 1.96zM1542.66 649.53l523.79-566.09-2.34-1.97-523.79 566.1 2.34 1.96zM1549.81 655.51l523.78-566.09-2.34-1.96-523.79 566.09 2.35 1.96zM1556.94 661.49L2080.73 95.4l-2.34-1.96-523.79 566.09 2.34 1.96zM1564.08 667.48l523.79-566.1-2.35-1.96-523.78 566.09 2.34 1.97zM1571.22 673.46l523.79-566.1-2.35-1.96-523.78 566.09 2.34 1.97zM1578.36 679.44l523.79-566.1-2.35-1.96-523.78 566.1 2.34 1.96zM1585.5 685.42l523.78-566.09-2.34-1.97-523.79 566.1 2.35 1.96zM1592.63 691.4l523.79-566.1-2.34-1.96-523.78 566.1 2.33 1.96zM1599.78 697.38l523.78-566.09-2.34-1.97-523.79 566.1 2.35 1.96zM1606.91 703.36l523.79-566.1-2.34-1.95-523.79 566.09 2.34 1.96zM1614.06 709.34l523.78-566.09-2.34-1.96-523.79 566.09 2.35 1.96zM1621.19 715.32l523.79-566.09-2.35-1.97-523.78 566.1 2.34 1.96zM1628.33 721.3l523.79-566.09-2.35-1.96-523.78 566.09 2.34 1.96zM1635.47 727.28l523.79-566.09-2.35-1.96-523.78 566.09 2.34 1.96zM1642.61 733.27l523.78-566.1-2.34-1.96-523.79 566.09 2.35 1.97zM1649.74 739.25l523.79-566.1-2.35-1.96-523.78 566.09 2.34 1.97zM1656.88 745.23l523.79-566.09-2.34-1.97-523.79 566.1 2.34 1.96zM1664.02 751.21l523.79-566.09-2.34-1.97-523.79 566.1 2.34 1.96zM1671.16 757.19l523.79-566.09-2.34-1.97-523.79 566.1 2.34 1.96zM1678.3 763.17l523.78-566.09-2.34-1.97-523.78 566.1 2.34 1.96z"/></g><g class="cls-4"><path class="cls-5" d="M-135.36 337.14l523.11-568.35 2.34 2L-133 339.11zm9.47 8l523.11-568.38-2.34-2-523.11 568.38zm7.13 6l523.11-568.37-2.35-2-523.11 568.38zm7.13 6l523.11-568.37-2.34-2L-114 355.15zm7.13 6l523.11-568.36-2.34-2-523.12 568.38zm7.13 6l523.11-568.36-2.34-2-523.12 568.38zm7.13 6l523.11-568.35-2.34-2-523.12 568.37zm7.13 6L440-187.21l-2.34-2-523.12 568.38zm7.12 6L447.12-181.2l-2.34-2-523.11 568.37zm7.13 6L454.25-175.2l-2.33-2L-71.2 391.18zm7.13 6L461.38-169.2l-2.34-2-523.11 568.38zm7.13 6l523.11-568.33-2.34-2-523.11 568.38zm7.13 6l523.11-568.33-2.34-2-523.11 568.38zm7.13 6l523.11-568.32-2.35-2L-42.69 415.2zm7.13 6L489.9-145.17l-2.34-2L-35.56 421.2zm7.13 6L497-139.17l-2.34-2-523.08 568.38zm7.13 6l523.11-568.31-2.34-2L-21.3 433.21zm7.13 6l523.11-568.3-2.33-2-523.13 568.38zm7.13 6l523.11-568.3-2.34-2L-7 445.22zm7.13 6l523.11-568.29-2.34-2L.09 451.22zm7.13 6l523.1-568.29-2.33-2L7.22 457.23zm7.13 6l523.11-568.28-2.34-2L14.36 463.24zm7.13 6L546.94-97.14l-2.34-2L21.48 469.24zm7.13 6L554.07-91.13l-2.34-2L28.61 475.25zm7.13 6l523.1-568.27-2.34-2L35.74 481.25zm7.13 6l523.1-568.26-2.34-2L42.87 487.25zm7.13 6L575.46-73.12l-2.34-2L50 493.26zm7.13 6L582.59-67.11l-2.34-2L57.13 499.26zm7.13 6l523.1-568.25-2.34-2L64.26 505.27zm7.13 6l523.1-568.25-2.34-2L71.39 511.27zm7.13 6L604-49.1l-2.35-2L78.51 517.28zm7.13 6L611.1-43.09l-2.35-2L85.64 523.28zm7.13 6l523.1-568.23-2.34-2L92.78 529.29zm7.13 6l523.1-568.22-2.34-2L99.9 535.29zm7.13 6L632.48-25.08l-2.33-2L107 541.3zm7.13 6l523.1-568.22-2.34-2L114.17 547.3zm7.13 6l523.1-568.21-2.34-2-523.12 568.38zm7.14 6L653.88-7.06l-2.34-2-523.12 568.37zm7.13 6L661-1.06l-2.34-2-523.11 568.38zm7.13 6L668.14 4.94 665.8 3 142.68 571.32zm7.13 6L675.27 11l-2.34-2-523.12 568.33zm7.13 6L682.4 17l-2.34-2-523.12 568.33zm7.12 6L689.53 23l-2.34-2-523.12 568.34zm7.13 6L696.65 29l-2.34-2L171.2 595.34zm7.13 6L703.78 35l-2.34-2-523.11 568.35zm7.13 6L710.92 41l-2.34-2-523.12 568.35zm7.13 6L718 47l-2.34-2-523.07 568.36zm7.13 6L725.17 53l-2.34-2-523.11 568.36zm7.14 6L732.3 59l-2.3-2-523.15 568.36zm7.13 6L739.43 65l-2.34-2L214 631.37zm7.13 6L746.56 71l-2.34-2-523.11 568.37zm7.13 6L753.69 77l-2.34-2-523.11 568.38zm7.13 6L760.83 83l-2.34-2-523.12 568.38zm7.13 6L767.95 89l-2.33-2L242.5 655.39zm7.13 6L775.08 95l-2.34-2-523.12 568.39zm7.14 6L782.22 101l-2.34-2-523.11 568.41zm7.13 6L789.35 107l-2.34-2L263.9 673.42zm7.13 6L796.49 113l-2.34-2L271 679.42zm7.13 6L803.61 119l-2.34-2-523.11 568.42zm7.13 6l523.08-568.09-2.34-2-523.11 568.38zm7.13 6l523.08-568.08-2.34-2-523.11 568.37zm7.13 6L825 137.07l-2.34-2-523.11 568.37zm7.14 6l523.07-568.07-2.34-2-523.12 568.37zm7.13 6l523.07-568.07-2.34-2L313.8 715.45zm7.13 6l523.07-568.06-2.34-2-523.12 568.37zm7.13 6l523.07-568.06-2.34-2-523.12 568.38zm7.13 6l523.07-568.05-2.34-2-523.12 568.37zm7.13 6l523.06-568.05-2.34-2-523.11 568.38zm7.13 6L874.91 179.1l-2.34-2-523.12 568.37zm7.13 6L882 185.1l-2.34-2-523.08 568.38zm7.13 6L889.16 191.1l-2.34-2-523.11 568.38zm7.13 6l523.06-568.03-2.34-2-523.11 568.38zm7.13 6l523.06-568.03-2.34-2L378 769.49zm7.12 6l523.07-568.02-2.34-2L385.1 775.49zm7.13 6l523.07-568.02-2.34-2L392.23 781.5zm7.13 6l523.07-568.01-2.34-2L399.36 787.5zm7.13 6l523.07-568.01-2.34-2-523.12 568.38zm7.13 6l523.07-568-2.34-2-523.11 568.37zm7.13 6l523.07-568-2.34-2-523.11 568.38zm7.13 6l523.07-567.99-2.34-2-523.12 568.37zm7.13 6l523.07-567.99-2.34-2L435 817.53zm7.13 6l523.07-567.98-2.34-2-523.11 568.38zm7.12 6l523.08-567.98-2.34-2-523.12 568.38zm7.13 6l523.08-567.97-2.34-2L456.4 835.54zm7.13 6L989 275.17l-2.34-2-523.14 568.38zm7.13 6l523.08-567.96-2.34-2-523.12 568.37zm7.13 6l523.11-568.35-2.34-2-523.15 568.77zm7.13 6l523.11-568.35-2.34-2-523.15 568.77zm7.13 6l523.08-567.95-2.34-2L492 865.57zm7.13 6l523.07-567.94-2.34-2-523.11 568.37zm7.13 6l523.08-567.94-2.34-2L506.3 877.58zm7.13 6l523.11-568.35-2.34-2-523.15 568.79zm7.13 6L1046 323.21l-2.34-2-523.1 568.38zm7.13 6l523.12-568.35-2.34-2-523.16 568.8zm7.13 6l523.12-568.35-2.34-2L534.82 901.6zm7.13 6l523.07-567.91-2.34-2L541.94 907.6zm7.13 6l523.12-568.35-2.34-2-523.16 568.82zm7.13 6l523.11-568.35-2.34-2-523.15 568.82zm7.13 6l523.11-568.35-2.34-2-523.16 568.83zm7.13 6l523.11-568.35-2.34-2-523.16 568.83zm7.12 6l523.12-568.35-2.34-2L577.6 937.63zm7.13 6l523.11-568.34-2.34-2-523.15 568.83zm7.13 6l523.12-568.35-2.34-2-523.15 568.85zm7.13 6l523.11-568.35-2.34-2L599 955.64zm7.13 6l523.12-568.35-2.34-2-523.16 568.86zm7.13 6l523.08-567.86-2.34-2-523.12 568.37zm7.13 6l523.12-568.34-2.34-2-523.16 568.86zm7.13 6L1153 413.29l-2.34-2L627.5 979.66zm7.13 6l523.11-568.35-2.34-2-523.15 568.87z"/></g></svg>