<svg xmlns="http://www.w3.org/2000/svg" viewBox="0 0 65.22 65.22"><defs><style>.cls-1{fill:#0090d3}.cls-2{fill:#fff}.cls-3{fill:#00598e}</style></defs><title>kind-of-sports-4</title><g id="Слой_2" data-name="Слой 2"><g id="Режим_изоляции" data-name="Режим изоляции"><rect class="cls-1" x=".1" y=".1" width="65.03" height="65.03" rx="3.79" ry="3.79"/><path class="cls-2" d="M61.33 65.22H3.89A3.89 3.89 0 0 1 0 61.33V3.89A3.89 3.89 0 0 1 3.89 0h57.44a3.89 3.89 0 0 1 3.89 3.89v57.44a3.89 3.89 0 0 1-3.89 3.89M3.89.19a3.7 3.7 0 0 0-3.7 3.7v57.44A3.7 3.7 0 0 0 3.89 65h57.44a3.71 3.71 0 0 0 3.7-3.7V3.89a3.71 3.71 0 0 0-3.7-3.7z"/><path class="cls-3" d="M30.66 18.3l1.95.57-.13 3.31a4.77 4.77 0 0 1-1.56 3.33c-1.54 1.27-3.82.37-5.06-.5a12.52 12.52 0 0 1-3.5-3.94S24.41 24 27.24 23a2.75 2.75 0 0 0 2.11-1.4c.29-.75 1.31-3.27 1.31-3.27"/><path class="cls-2" d="M24.76 14.91l.47 1-1.45 1.66a2.35 2.35 0 0 0-.54 2.22c.36 1.33 2.35 3.28 4.08 3.1a4.38 4.38 0 0 0 2.13-2.17c.54-1.2 1.43-3.56 1.43-3.56l2.5.51s.29 4 .22 4.86a6.28 6.28 0 0 1-1.86 4.55c-1.75 1.52-4 1.7-6.61.09s-5.22-5.32-5.13-7.84 2.47-3.76 2.9-4 1-.62 1-.62z"/><path class="cls-2" d="M33.67 21a5.27 5.27 0 0 0 1.09-1.7c.29-.88 1.35-3.28 1.35-3.28l2.44.54s.26 4.72.21 5.33a6 6 0 0 1-2.62 4.71 4.86 4.86 0 0 1-4 .29s.63-.36 1.18-2a2.89 2.89 0 0 0 1.52 0 3.47 3.47 0 0 0 2.67-2.83 20.52 20.52 0 0 0 .3-4.35l-1.95-.57s-1 2.54-1.25 3.08a3.79 3.79 0 0 1-.93 1z"/><path class="cls-2" d="M25.82 16.28a5.81 5.81 0 0 1 2.79-1.52 23.29 23.29 0 0 1 4.12-.52s.24.6.61.54 2.09-.87 2.2-1.3a10.8 10.8 0 0 1 2.46-.26c.52 0 15.87-.15 15.87-.15l1.2-.39c.11 0 .66.36.66.36v.39l-7.09.12s.25.41-.2.52-13.07 1.62-13.07 1.62a1.74 1.74 0 0 0-1.44.59 2.21 2.21 0 0 0-.45 1s-.88.15-1.13-.1a.79.79 0 0 1-.12-.68S25.89 19 25.59 19s-.21-.32-.14-.73a15 15 0 0 0 .36-2M25.25 47.31l-1.08 1L23 47.9l-2.16-5.3a9.59 9.59 0 0 1-.62-5.09c.52-2.46 3.18-6.1 9-7.7s8.39 4.11 8.68 5.76c.36 2 .12 4.64-1.27 8.48s-2.87 7.82-2.87 7.82l-3-1.08.85-8.48s.26-3.2-1.05-4.9A4 4 0 0 0 26 37c-2.18 1-2.51 3.08-2.15 4.83s1.39 5.45 1.39 5.45"/><path class="cls-1" d="M24.07 36a11 11 0 0 1 6.85-2.77c3.94 0 6.36 3.41 4.95 8.75s-2.3 7.74-2.3 7.74L31.11 49l.78-6.83a6.15 6.15 0 0 0-1.22-4.73 4.83 4.83 0 0 0-6.6-1.44"/><path class="cls-2" d="M24.89 11.5c-.07-1.81 1.31-4 4.36-4.15s4.18 2.08 4.14 3c0 1.31-.59 3.39-4.09 3.92s-4.38-1.95-4.41-2.73M35.13 48.74l3.09-.07s-3.11 1-3.44 1c.16-.41.35-.95.35-.95M31.31 48.83h2.33l-.19.6-2.14-.6zM30.74 48.83l-.13 1a39.24 39.24 0 0 0-4.36.29c-1 .22-11.06 3.92-12.3 4.4a12.27 12.27 0 0 1-4 1.08c-1.05-.07-2-.6-1.82-1s.83-.26 1.28 0a3 3 0 0 0 1.29.4c.48 0 7.23-3.06 8-3.47a38.49 38.49 0 0 1 8.44-2.64 20.36 20.36 0 0 1 3.6-.1M32.48 53a2.46 2.46 0 0 0 1.44.12 3.37 3.37 0 0 0 1-.64s3.41 4.78 3.73 4.94.77.16.77.38-.16.83-.57.86a3.89 3.89 0 0 1-2.07-.61c-.38-.38-4.25-5.06-4.25-5.06"/></g></g></svg>