<svg xmlns="http://www.w3.org/2000/svg" viewBox="0 0 65.22 65.22"><defs><style>.cls-1{fill:#0090d3}.cls-2{fill:#fff}</style></defs><title>kind-of-sports-2</title><g id="Слой_2" data-name="Слой 2"><g id="Режим_изоляции" data-name="Режим изоляции"><rect class="cls-1" x=".09" y=".1" width="65.03" height="65.03" rx="3.79" ry="3.79"/><path class="cls-2" d="M61.33 65.22H3.89A3.89 3.89 0 0 1 0 61.33V3.89A3.89 3.89 0 0 1 3.89 0h57.44a3.89 3.89 0 0 1 3.89 3.89v57.44a3.89 3.89 0 0 1-3.89 3.89M3.89.19a3.7 3.7 0 0 0-3.7 3.7v57.44A3.7 3.7 0 0 0 3.89 65h57.44a3.7 3.7 0 0 0 3.7-3.7V3.89a3.7 3.7 0 0 0-3.7-3.7z"/><path class="cls-2" d="M54.37 16.31a3.72 3.72 0 0 1-4-3.36 3.81 3.81 0 0 1 7.59-.49 3.71 3.71 0 0 1-3.56 3.86M35.17 54.94c-1.62 0-6.11-.42-6.11-.42l1.16-.38s2.56.15 4.48.15a14 14 0 0 0 1.66-.07c1.46-.19 2.38-.68 2.53-1.15.06-.19.13-.24.17-.24s.12.13.12.13.06.44-.62.91a8.12 8.12 0 0 1-2.94 1.06 3.26 3.26 0 0 1-.45 0M6.51 18.68a.34.34 0 0 1-.12 0A1.1 1.1 0 0 1 6 17.7a5.27 5.27 0 0 1 .77-2.38 47.65 47.65 0 0 1 3.87-3.62l-.33.92A38.05 38.05 0 0 0 7 16.18c-.64 1-.75 1.84-.49 2.23.16.22.12.27.05.27M24.71 20.7c-5.09-2.21-14.31-5.56-14.31-5.56l-1.19.61.27 1.25 7.73 4.84s11 5.82 12.35 7.45 1.17 6.48 1.17 6.48.12 4.25.17 5.29.84 11.65.84 11.65l1.76.87s.93-16.36 1.33-22.18c.17-2.52-1.21-6.09-2.51-7m-8-.47c0-.28-12.41-7.17-12.41-7.17l7.85 3.55s11.55 4.31 12.67 6.41 1.33 8.07 1.21 10.7L33 50.66l-1-.54L31.75 40l-.17-5.15c-.45-3.76-.19-4.38-.73-6.19M29.82 20.27l7.42-1.18s9.58-1.63 9 1.44c-.25.88-2 1.93-4 2.09a30.83 30.83 0 0 1-11-1.57l-1.44.29.14.61a38.67 38.67 0 0 0 5.27 2c2.78.79 9.27 1.61 14.87-1.83s1.12-7.11-5.34-6.79-16.36 3.85-16.36 3.85l1.46 1.13m14.73-3.93c4.29.1 7.21 1.7 5.39 4.25-2 2.25-5.55 2.45-5.55 2.45s5.52-3.07.36-4.16c-2.3-.8-5.15-.57-7.67-.24-1.57.21-6.33 1.22-6.33 1.22l-.77-.62s9.32-3.28 14.55-2.94"/></g></g></svg>