<svg id="Layer_1" data-name="Layer 1" xmlns="http://www.w3.org/2000/svg" viewBox="0 0 1200 313.28"><defs><style>.cls-1{fill:#78ccf4}.cls-2{fill:#fff}.cls-3{fill:none}.cls-4{clip-path:url(#clip-path)}.cls-5{clip-path:url(#clip-path-2)}.cls-6{clip-path:url(#clip-path-3)}.cls-7{fill:#6ec4e9}.cls-8{clip-path:url(#clip-path-4)}.cls-9{fill:#0e7dc2}</style><clipPath id="clip-path"><path class="cls-1" d="M.28 313.28l563.67-146.8L0 141.74l.28 171.54z"/></clipPath><clipPath id="clip-path-2"><path class="cls-2" d="M563.66 166.48L1200 195.53V0L563.66 166.48z"/></clipPath><clipPath id="clip-path-3"><path class="cls-3" d="M563.66 166.48L1200 195.53V0L563.66 166.48z"/></clipPath><clipPath id="clip-path-4"><path class="cls-3" d="M.28 313.28l563.67-146.8L0 141.74l.28 171.54z"/></clipPath></defs><title>huy1</title><path class="cls-1" d="M.28 313.28l563.67-146.8L0 141.74l.28 171.54z"/><g class="cls-4"><path class="cls-1" d="M-296.36 358.83l523.11-568.35 2.34 2L-294 360.8zm9.47 8l523.11-568.37-2.34-2-523.11 568.37zm7.13 6l523.11-568.37-2.35-2-523.11 568.38zm7.13 6l523.11-568.37-2.34-2L-275 376.84zm7.13 6l523.11-568.36-2.34-2-523.12 568.38zm7.13 6l523.11-568.36-2.34-2-523.12 568.38zm7.13 6l523.11-568.35-2.34-2-523.12 568.38zm7.13 6L279-165.52l-2.34-2-523.12 568.38zm7.12 6l523.11-568.34-2.34-2-523.11 568.38zm7.13 6l523.11-568.34-2.33-2-523.12 568.38zm7.13 6L300.38-147.5l-2.34-2-523.11 568.38zm7.13 6L307.51-141.5l-2.34-2-523.11 568.38zm7.13 6l523.11-568.32-2.34-2-523.11 568.37zm7.13 6l523.11-568.32-2.35-2-523.11 568.38zm7.13 6L328.9-123.48l-2.34-2-523.12 568.37zm7.13 6L336-117.48l-2.34-2-523.08 568.38zm7.13 6l523.11-568.31-2.34-2L-182.3 454.9zm7.13 6l523.11-568.3-2.33-2-523.13 568.38zm7.13 6L357.42-99.46l-2.34-2L-168 466.91zm7.13 6L364.55-93.46l-2.34-2-523.12 568.38zm7.13 6l523.1-568.29-2.33-2-523.12 568.38zm7.13 6L378.81-81.45l-2.34-2-523.11 568.38zm7.13 6L385.94-75.45l-2.34-2-523.12 568.38zm7.13 6L393.07-69.44l-2.34-2-523.12 568.38zm7.13 6l523.1-568.27-2.34-2-523.11 568.38zm7.13 6l523.1-568.26-2.34-2L-118.13 509zm7.13 6L414.46-51.43l-2.34-2L-111 515zm7.13 6L421.59-45.42l-2.34-2L-103.87 521zm7.13 6l523.1-568.25-2.34-2L-96.74 527zm7.13 6l523.1-568.24-2.34-2L-89.61 533zm7.13 6L443-27.4l-2.35-2L-82.49 539zm7.13 6L450.1-21.4l-2.35-2L-75.36 545zm7.13 6L457.23-15.4l-2.34-2L-68.22 551zm7.13 6L464.36-9.39l-2.34-2L-61.1 557zm7.13 6L471.48-3.39l-2.33-2L-54 563zm7.13 6L478.62 2.61l-2.34-2L-46.83 569zm7.13 6L485.75 8.62l-2.34-2L-39.71 575zm7.14 6l523.09-568.2-2.34-2L-32.58 581zm7.13 6L500 20.63l-2.34-2L-25.45 587zm7.13 6L507.14 26.64l-2.34-2L-18.32 593zm7.13 6L514.27 32.64l-2.34-2L-11.19 599zm7.13 6L521.4 38.65l-2.34-2L-4.06 605zm7.12 6l523.1-568.18-2.34-2L3.07 611zm7.13 6L535.65 50.66l-2.34-2L10.2 617zm7.13 6L542.78 56.66l-2.34-2L17.33 623zm7.13 6l523.1-568.16-2.34-2L24.46 629zm7.13 6L557 68.67l-2.34-2L31.59 635zm7.13 6L564.17 74.67l-2.34-2L38.72 641zm7.14 6L571.3 80.68l-2.34-2L45.85 647.06zm7.13 6L578.43 86.69l-2.34-2L53 653.06zm7.13 6L585.56 92.69l-2.34-2L60.11 659.07zm7.13 6L592.69 98.69l-2.34-2L67.24 665.07zm7.13 6L599.83 104.7l-2.34-2L74.37 671.08zm7.13 6L607 110.7l-2.33-2L81.5 677.08zm7.13 6l523.08-568.12-2.34-2L88.62 683.08zm7.14 6l523.08-568.1-2.34-2L95.77 689.1zm7.13 6l523.08-568.1-2.34-2L102.9 695.11zm7.13 6l523.09-568.1-2.34-2L110 701.11zm7.13 6l523.08-568.09-2.34-2-523.11 568.37zm7.13 6l523.08-568.08-2.34-2-523.11 568.37zm7.13 6l523.08-568.08-2.34-2-523.11 568.38zm7.13 6L664 158.76l-2.34-2-523.11 568.37zm7.14 6l523.07-568.07-2.34-2-523.12 568.38zm7.13 6l523.07-568.06-2.34-2L152.8 737.14zm7.13 6l523.07-568.06-2.34-2-523.12 568.38zm7.13 6l523.07-568.06-2.34-2-523.12 568.38zm7.13 6l523.07-568-2.34-2-523.12 568.32zm7.13 6l523.06-568-2.34-2-523.11 568.33zm7.13 6l523.07-568-2.34-2-523.12 568.33zm7.13 6l523-568-2.34-2-523.05 568.34zm7.13 6l523.06-568-2.34-2-523.11 568.34zm7.13 6l523.06-568-2.34-2-523.11 568.35zm7.13 6l523.06-568-2.34-2L217 791.18zm7.12 6l523.07-568-2.34-2L224.1 797.19zm7.13 6l523.07-568-2.34-2-523.11 568.36zm7.13 6l523.07-568-2.34-2L238.36 809.2zm7.13 6l523.07-568-2.34-2L245.48 815.2zm7.13 6l523.07-568-2.34-2L252.62 821.2zm7.13 6l523.07-568-2.34-2-523.11 568.38zm7.13 6l523.07-568-2.34-2-523.12 568.39zm7.13 6l523.07-568-2.34-2L274 839.22zm7.13 6l523.07-568-2.34-2-523.11 568.4zm7.12 6l523.08-568-2.34-2-523.12 568.4zm7.13 6l523.08-568-2.34-2L295.4 857.24zm7.13 6l523.1-568-2.34-2-523.14 568.41zm7.13 6l523.08-568-2.34-2-523.12 568.42zm7.13 6l523.08-568-2.34-2-523.12 568.42zm7.13 6l523.08-567.95-2.34-2-523.12 568.37zm7.13 6L856.5 320.88l-2.34-2L331 887.26zm7.13 6l523.07-567.94-2.34-2-523.11 568.37zm7.13 6l523.08-567.94-2.34-2L345.3 899.27zm7.13 6L877.88 338.9l-2.34-2-523.11 568.37zm7.13 6L885 344.9l-2.34-2-523.1 568.38zm7.13 6l523.07-567.92-2.34-2-523.11 568.38zm7.13 6l523.07-567.92-2.34-2-523.11 568.38zm7.13 6L906.4 362.92l-2.34-2-523.12 568.37zm7.13 6l523.07-567.91-2.34-2L388.08 935.3zm7.13 6l523.07-567.9-2.34-2L395.21 941.3zm7.13 6l523.07-567.9-2.34-2-523.12 568.38zm7.13 6l523.07-567.89-2.34-2-523.12 568.37zm7.12 6L942 392.94l-2.34-2L416.6 959.32zm7.13 6L949.18 399l-2.34-2-523.12 568.32zm7.13 6L956.31 405l-2.31-2-523.14 568.33zm7.13 6L963.44 411l-2.34-2L438 977.33zm7.13 6L970.57 417l-2.34-2-523.12 568.34zm7.13 6L977.7 423l-2.34-2-523.12 568.34zm7.13 6L984.83 429l-2.34-2-523.12 568.35zm7.13 6L992 435l-2.34-2-523.16 568.35zm7.13 6L999.08 441l-2.34-2-523.11 568.35z"/></g><path class="cls-2" d="M563.66 166.48L1200 195.53V0L563.66 166.48z"/><g class="cls-5"><path class="cls-2" d="M385 261.94l523.76-566.09 2.34 2-523.79 566.06zm9.48 7.94L918.24-296.2l-2.34-2-523.79 566.13zm7.14 6l523.76-566.1-2.35-2-523.78 566.13zm7.14 6l523.75-566.12-2.34-2-523.78 566.12zm7.14 6l523.76-566.14-2.34-2-523.79 566.13zm7.14 6l523.75-566.16-2.35-2-523.78 566.13zm7.14 6L953.93-266.3l-2.34-2L427.8 297.83zm7.14 6l523.75-566.2-2.35-2-523.78 566.13zm7.13 6l523.76-566.22-2.34-2-523.79 566.13zm7.14 6l523.78-566.1-2.34-2-523.81 566zm7.13 6l523.77-566.26-2.34-2-523.79 566.13zm7.14 6L989.62-236.4l-2.34-2L463.5 327.73zm7.14 6l523.76-566.29-2.34-2-523.78 566.12zm7.13 6l523.79-566.09-2.35-2-523.8 565.9zm7.14 6L1011-218.45l-2.35-2-523.74 566.12zm7.14 6l523.78-566.09-2.34-2L492 351.66zm7.14 6l523.78-566.09-2.34-2-523.8 565.85zm7.14 6l523.78-566.09-2.34-2-523.8 565.83zm7.14 6l523.77-566.41-2.35-2L513.47 369.6zm7.14 6l523.79-566.09-2.34-2L520.6 375.58zm7.14 6l523.78-566.09-2.34-2-523.81 565.77zm7.14 6L1061-176.59l-2.34-2-523.78 566.13zm7.13 6l523.79-566.09-2.35-2L542 393.52zm7.14 6l523.79-566.09-2.34-2-523.81 565.72zm7.14 6l523.79-566.09-2.34-2L556.3 405.48zm7.14 6l523.79-566.09-2.35-2-523.8 565.68zm7.14 6l523.79-566.09-2.35-2-523.8 565.66zm7.14 6l523.76-566.58-2.35-2-523.78 566.13zm7.14 6L1111-134.72l-2.34-2-523.81 566.13zm7.14 6l523.79-566.09-2.34-2L592 435.39zm7.14 6l523.79-566.09-2.35-2-523.81 565.58zm7.14 6l523.76-566.66-2.35-2-523.78 566.13zm7.14 6l523.79-566.09-2.35-2-523.81 565.54zm7.14 6l523.79-566.09-2.34-2-523.83 565.53zm7.14 6l523.75-566.72-2.34-2-523.79 566.13zm7.14 6L1161-92.85l-2.35-2-523.83 566.12zm7.14 6l523.75-566.75-2.34-2L642 477.26zm7.14 6l523.75-566.77-2.34-2L649.1 483.24zm7.13 6l523.76-566.79-2.34-2-523.79 566.13zm7.14 6l523.76-566.81-2.34-2L663.38 495.2zm7.14 6L1196.65-63l-2.34-2-523.79 566.18zm7.14 6L1203.79-57l-2.34-2-523.79 566.16zm7.13 6L1210.92-51l-2.34-2-523.79 566.14zm7.14 6L1218.06-45l-2.34-2-523.79 566.12zm7.14 6L1225.2-39l-2.34-2-523.79 566.1zm7.14 6L1232.34-33l-2.34-2-523.79 566.09zm7.13 6l523.77-566.94-2.35-2-523.78 566.13zm7.14 6l523.76-567-2.34-2L720.48 543zm7.15 6l523.75-567-2.34-2L727.63 549zm7.14 6l523.75-567-2.34-2L734.76 555zm7.14 6L1268-3.14l-2.34-2L741.91 561zm7.14 6l523.75-567-2.35-2L749 567zm7.14 6L1282.31 8.83l-2.35-2L756.18 573zm7.14 6L1289.44 14.8l-2.34-2-523.78 566.13zm7.14 6l523.75-567.09-2.35-2-523.78 566.12zm7.15 6l523.75-567.1-2.34-2-523.79 566.13zm7.14 6l523.75-567.12-2.34-2-523.79 566.13zm7.14 6L1318 38.74l-2.34-2-523.77 566.13zm7.14 6l523.75-567.16-2.34-2L799 608.85zm7.14 6L1332.3 50.7l-2.35-2-523.78 566.13zm7.14 6l523.74-567.19-2.34-2L813.3 620.81zm7.14 6l523.74-567.21-2.35-2-523.78 566.12zm7.14 6l523.74-567.23-2.34-2-523.79 566.12zm7.14 6l523.74-567.25-2.35-2-523.78 566.12zm7.14 6L1368 80.61l-2.34-2-523.8 566.13zm7.14 6l523.74-567.29-2.34-2L849 650.72zm7.14 6l523.73-567.31-2.34-2L856.14 656.7zm7.14 6L1389.4 98.55l-2.34-2-523.79 566.13zm7.14 6l523.79-566.09-2.35-2-523.84 564.87zm7.14 6l523.79-566.09-2.34-2-523.85 564.85zm7.14 6l523.78-566.09-2.34-2-523.84 564.83zm7.14 6L1418 122.47l-2.34-2L891.83 686.6zm7.14 6l523.78-566.09-2.34-2L899 692.58zm7.13 6l523.79-566.09-2.34-2L906.1 698.56zm7.14 6l523.79-566.09-2.34-2-523.84 564.76zm7.14 6l523.73-567.48-2.34-2-523.79 566.13zm7.14 6l523.78-566.09-2.34-2-523.84 564.72zm7.14 6l523.79-566.09-2.34-2-523.85 564.7zm7.14 6L1468 165.79l-2.34-2L941.8 728.47zm7.14 6l523.79-566.09-2.35-2-523.85 564.66zm7.14 6l523.73-567.58-2.35-2-523.79 566.13zm7.14 6l523.78-566.09-2.34-2-523.84 564.62zm7.13 6l523.79-566.09-2.34-2L970.35 752.4zm7.14 6l523.79-566.09-2.34-2-523.85 564.59zm7.14 6l523.79-566.09-2.34-2-523.85 564.56zm7.14 6l523.73-567.67-2.34-2-523.79 566.13zm7.14 6L1525 212.19l-2.34-2-523.75 566.13zm7.14 6l523.79-566.09-2.34-2L1006 782.3zm7.14 6l523.79-566.09-2.35-2-523.85 564.49zm7.13 6l523.79-566.09-2.34-2-523.85 564.47zm7.14 6l523.79-566.09-2.35-2-523.84 564.45zm7.14 6l523.78-566.09-2.34-2-523.84 564.43zm7.14 6l523.79-566.09-2.34-2-523.85 564.41zm7.14 6L1575 254.06l-2.34-2-523.78 566.13zm7.14 6L1582.15 260l-2.34-2L1056 824.17zm7.14 6L1589.28 266l-2.34-2-523.79 566.15zm7.14 6L1596.42 272l-2.34-2-523.78 566.1zm7.14 6L1603.56 278l-2.34-2-523.79 566.11zm7.14 6L1610.7 284l-2.34-2-523.79 566.09zm7.14 6l523.78-566.09-2.34-2-523.85 564.28zm7.13 6l523.75-568-2.35-2L1098.87 860zm7.14 6l523.73-568-2.35-2L1106 866zm7.14 6l523.79-566.09-2.34-2L1113.13 872zm7.14 6l523.78-566.1-2.34-2L1120.26 878zm7.14 6l523.79-566.09-2.35-2L1127.4 884zm7.14 6l523.79-566.09-2.35-2L1134.54 890zm7.14 6l523.79-566.09-2.34-2-523.86 564.15zm7.14 6L1675 339.79l-2.34-2-523.84 564.13zm7.14 6l523.78-566.09-2.34-2L1156 907.9z"/></g><g class="cls-6"><path class="cls-7" d="M385 261.94l523.76-566.09 2.34 2-523.79 566.06zm9.48 7.94L918.24-296.2l-2.34-2-523.79 566.13zm7.14 6l523.76-566.1-2.35-2-523.78 566.13zm7.14 6l523.75-566.12-2.34-2-523.78 566.12zm7.14 6l523.76-566.14-2.34-2-523.79 566.13zm7.14 6l523.75-566.16-2.35-2-523.78 566.13zm7.14 6L953.93-266.3l-2.34-2L427.8 297.83zm7.14 6l523.75-566.2-2.35-2-523.78 566.13zm7.13 6l523.76-566.22-2.34-2-523.79 566.13zm7.14 6l523.78-566.1-2.34-2-523.81 566zm7.13 6l523.77-566.26-2.34-2-523.79 566.13zm7.14 6L989.62-236.4l-2.34-2L463.5 327.73zm7.14 6l523.76-566.29-2.34-2-523.78 566.12zm7.13 6l523.79-566.09-2.35-2-523.8 565.9zm7.14 6L1011-218.45l-2.35-2-523.74 566.12zm7.14 6l523.78-566.09-2.34-2L492 351.66zm7.14 6l523.78-566.09-2.34-2-523.8 565.85zm7.14 6l523.78-566.09-2.34-2-523.8 565.83zm7.14 6l523.77-566.41-2.35-2L513.47 369.6zm7.14 6l523.79-566.09-2.34-2L520.6 375.58zm7.14 6l523.78-566.09-2.34-2-523.81 565.77zm7.14 6L1061-176.59l-2.34-2-523.78 566.13zm7.13 6l523.79-566.09-2.35-2L542 393.52zm7.14 6l523.79-566.09-2.34-2-523.81 565.72zm7.14 6l523.79-566.09-2.34-2L556.3 405.48zm7.14 6l523.79-566.09-2.35-2-523.8 565.68zm7.14 6l523.79-566.09-2.35-2-523.8 565.66zm7.14 6l523.76-566.58-2.35-2-523.78 566.13zm7.14 6L1111-134.72l-2.34-2-523.81 566.13zm7.14 6l523.79-566.09-2.34-2L592 435.39zm7.14 6l523.79-566.09-2.35-2-523.81 565.58zm7.14 6l523.76-566.66-2.35-2-523.78 566.13zm7.14 6l523.79-566.09-2.35-2-523.81 565.54zm7.14 6l523.79-566.09-2.34-2-523.83 565.53zm7.14 6l523.75-566.72-2.34-2-523.79 566.13zm7.14 6L1161-92.85l-2.35-2-523.83 566.12zm7.14 6l523.75-566.75-2.34-2L642 477.26zm7.14 6l523.75-566.77-2.34-2L649.1 483.24zm7.13 6l523.76-566.79-2.34-2-523.79 566.13zm7.14 6l523.76-566.81-2.34-2L663.38 495.2zm7.14 6L1196.65-63l-2.34-2-523.79 566.18zm7.14 6L1203.79-57l-2.34-2-523.79 566.16zm7.13 6L1210.92-51l-2.34-2-523.79 566.14zm7.14 6L1218.06-45l-2.34-2-523.79 566.12zm7.14 6L1225.2-39l-2.34-2-523.79 566.1zm7.14 6L1232.34-33l-2.34-2-523.79 566.09zm7.13 6l523.77-566.94-2.35-2-523.78 566.13zm7.14 6l523.76-567-2.34-2L720.48 543zm7.15 6l523.75-567-2.34-2L727.63 549zm7.14 6l523.75-567-2.34-2L734.76 555zm7.14 6L1268-3.14l-2.34-2L741.91 561zm7.14 6l523.75-567-2.35-2L749 567zm7.14 6L1282.31 8.83l-2.35-2L756.18 573zm7.14 6L1289.44 14.8l-2.34-2-523.78 566.13zm7.14 6l523.75-567.09-2.35-2-523.78 566.12zm7.15 6l523.75-567.1-2.34-2-523.79 566.13zm7.14 6l523.75-567.12-2.34-2-523.79 566.13zm7.14 6L1318 38.74l-2.34-2-523.77 566.13zm7.14 6l523.75-567.16-2.34-2L799 608.85zm7.14 6L1332.3 50.7l-2.35-2-523.78 566.13zm7.14 6l523.74-567.19-2.34-2L813.3 620.81zm7.14 6l523.74-567.21-2.35-2-523.78 566.12zm7.14 6l523.74-567.23-2.34-2-523.79 566.12zm7.14 6l523.74-567.25-2.35-2-523.78 566.12zm7.14 6L1368 80.61l-2.34-2-523.8 566.13zm7.14 6l523.74-567.29-2.34-2L849 650.72zm7.14 6l523.73-567.31-2.34-2L856.14 656.7zm7.14 6L1389.4 98.55l-2.34-2-523.79 566.13zm7.14 6l523.79-566.09-2.35-2-523.84 564.87zm7.14 6l523.79-566.09-2.34-2-523.85 564.85zm7.14 6l523.78-566.09-2.34-2-523.84 564.83zm7.14 6L1418 122.47l-2.34-2L891.83 686.6zm7.14 6l523.78-566.09-2.34-2L899 692.58zm7.13 6l523.79-566.09-2.34-2L906.1 698.56zm7.14 6l523.79-566.09-2.34-2-523.84 564.76zm7.14 6l523.73-567.48-2.34-2-523.79 566.13zm7.14 6l523.78-566.09-2.34-2-523.84 564.72zm7.14 6l523.79-566.09-2.34-2-523.85 564.7zm7.14 6L1468 165.79l-2.34-2L941.8 728.47zm7.14 6l523.79-566.09-2.35-2-523.85 564.66zm7.14 6l523.73-567.58-2.35-2-523.79 566.13zm7.14 6l523.78-566.09-2.34-2-523.84 564.62zm7.13 6l523.79-566.09-2.34-2L970.35 752.4zm7.14 6l523.79-566.09-2.34-2-523.85 564.59zm7.14 6l523.79-566.09-2.34-2-523.85 564.56zm7.14 6l523.73-567.67-2.34-2-523.79 566.13zm7.14 6L1525 212.19l-2.34-2-523.75 566.13zm7.14 6l523.79-566.09-2.34-2L1006 782.3zm7.14 6l523.79-566.09-2.35-2-523.85 564.49zm7.13 6l523.79-566.09-2.34-2-523.85 564.47zm7.14 6l523.79-566.09-2.35-2-523.84 564.45zm7.14 6l523.78-566.09-2.34-2-523.84 564.43zm7.14 6l523.79-566.09-2.34-2-523.85 564.41zm7.14 6L1575 254.06l-2.34-2-523.78 566.13zm7.14 6L1582.15 260l-2.34-2L1056 824.17zm7.14 6L1589.28 266l-2.34-2-523.79 566.15zm7.14 6L1596.42 272l-2.34-2-523.78 566.1zm7.14 6L1603.56 278l-2.34-2-523.79 566.11zm7.14 6L1610.7 284l-2.34-2-523.79 566.09zm7.14 6l523.78-566.09-2.34-2-523.85 564.28zm7.13 6l523.75-568-2.35-2L1098.87 860zm7.14 6l523.73-568-2.35-2L1106 866zm7.14 6l523.79-566.09-2.34-2L1113.13 872zm7.14 6l523.78-566.1-2.34-2L1120.26 878zm7.14 6l523.79-566.09-2.35-2L1127.4 884zm7.14 6l523.79-566.09-2.35-2L1134.54 890zm7.14 6l523.79-566.09-2.34-2-523.86 564.15zm7.14 6L1675 339.79l-2.34-2-523.84 564.13zm7.14 6l523.78-566.09-2.34-2L1156 907.9z"/></g><g class="cls-8"><path class="cls-9" d="M-296.36 358.83l523.11-568.35 2.34 2L-294 360.8zm9.47 8l523.11-568.37-2.34-2-523.11 568.37zm7.13 6l523.11-568.37-2.35-2-523.11 568.38zm7.13 6l523.11-568.37-2.34-2L-275 376.84zm7.13 6l523.11-568.36-2.34-2-523.12 568.38zm7.13 6l523.11-568.36-2.34-2-523.12 568.38zm7.13 6l523.11-568.35-2.34-2-523.12 568.38zm7.13 6L279-165.52l-2.34-2-523.12 568.38zm7.12 6l523.11-568.34-2.34-2-523.11 568.38zm7.13 6l523.11-568.34-2.33-2-523.12 568.38zm7.13 6L300.38-147.5l-2.34-2-523.11 568.38zm7.13 6L307.51-141.5l-2.34-2-523.11 568.38zm7.13 6l523.11-568.32-2.34-2-523.11 568.37zm7.13 6l523.11-568.32-2.35-2-523.11 568.38zm7.13 6L328.9-123.48l-2.34-2-523.12 568.37zm7.13 6L336-117.48l-2.34-2-523.08 568.38zm7.13 6l523.11-568.31-2.34-2L-182.3 454.9zm7.13 6l523.11-568.3-2.33-2-523.13 568.38zm7.13 6L357.42-99.46l-2.34-2L-168 466.91zm7.13 6L364.55-93.46l-2.34-2-523.12 568.38zm7.13 6l523.1-568.29-2.33-2-523.12 568.38zm7.13 6L378.81-81.45l-2.34-2-523.11 568.38zm7.13 6L385.94-75.45l-2.34-2-523.12 568.38zm7.13 6L393.07-69.44l-2.34-2-523.12 568.38zm7.13 6l523.1-568.27-2.34-2-523.11 568.38zm7.13 6l523.1-568.26-2.34-2L-118.13 509zm7.13 6L414.46-51.43l-2.34-2L-111 515zm7.13 6L421.59-45.42l-2.34-2L-103.87 521zm7.13 6l523.1-568.25-2.34-2L-96.74 527zm7.13 6l523.1-568.24-2.34-2L-89.61 533zm7.13 6L443-27.4l-2.35-2L-82.49 539zm7.13 6L450.1-21.4l-2.35-2L-75.36 545zm7.13 6L457.23-15.4l-2.34-2L-68.22 551zm7.13 6L464.36-9.39l-2.34-2L-61.1 557zm7.13 6L471.48-3.39l-2.33-2L-54 563zm7.13 6L478.62 2.61l-2.34-2L-46.83 569zm7.13 6L485.75 8.62l-2.34-2L-39.71 575zm7.14 6l523.09-568.2-2.34-2L-32.58 581zm7.13 6L500 20.63l-2.34-2L-25.45 587zm7.13 6L507.14 26.64l-2.34-2L-18.32 593zm7.13 6L514.27 32.64l-2.34-2L-11.19 599zm7.13 6L521.4 38.65l-2.34-2L-4.06 605zm7.12 6l523.1-568.18-2.34-2L3.07 611zm7.13 6L535.65 50.66l-2.34-2L10.2 617zm7.13 6L542.78 56.66l-2.34-2L17.33 623zm7.13 6l523.1-568.16-2.34-2L24.46 629zm7.13 6L557 68.67l-2.34-2L31.59 635zm7.13 6L564.17 74.67l-2.34-2L38.72 641zm7.14 6L571.3 80.68l-2.34-2L45.85 647.06zm7.13 6L578.43 86.69l-2.34-2L53 653.06zm7.13 6L585.56 92.69l-2.34-2L60.11 659.07zm7.13 6L592.69 98.69l-2.34-2L67.24 665.07zm7.13 6L599.83 104.7l-2.34-2L74.37 671.08zm7.13 6L607 110.7l-2.33-2L81.5 677.08zm7.13 6l523.08-568.12-2.34-2L88.62 683.08zm7.14 6l523.08-568.1-2.34-2L95.77 689.1zm7.13 6l523.08-568.1-2.34-2L102.9 695.11zm7.13 6l523.09-568.1-2.34-2L110 701.11zm7.13 6l523.08-568.09-2.34-2-523.11 568.37zm7.13 6l523.08-568.08-2.34-2-523.11 568.37zm7.13 6l523.08-568.08-2.34-2-523.11 568.38zm7.13 6L664 158.76l-2.34-2-523.11 568.37zm7.14 6l523.07-568.07-2.34-2-523.12 568.38zm7.13 6l523.07-568.06-2.34-2L152.8 737.14zm7.13 6l523.07-568.06-2.34-2-523.12 568.38zm7.13 6l523.07-568.06-2.34-2-523.12 568.38zm7.13 6l523.07-568-2.34-2-523.12 568.32zm7.13 6l523.06-568-2.34-2-523.11 568.33zm7.13 6l523.07-568-2.34-2-523.12 568.33zm7.13 6l523-568-2.34-2-523.05 568.34zm7.13 6l523.06-568-2.34-2-523.11 568.34zm7.13 6l523.06-568-2.34-2-523.11 568.35zm7.13 6l523.06-568-2.34-2L217 791.18zm7.12 6l523.07-568-2.34-2L224.1 797.19zm7.13 6l523.07-568-2.34-2-523.11 568.36zm7.13 6l523.07-568-2.34-2L238.36 809.2zm7.13 6l523.07-568-2.34-2L245.48 815.2zm7.13 6l523.07-568-2.34-2L252.62 821.2zm7.13 6l523.07-568-2.34-2-523.11 568.38zm7.13 6l523.07-568-2.34-2-523.12 568.39zm7.13 6l523.07-568-2.34-2L274 839.22zm7.13 6l523.07-568-2.34-2-523.11 568.4zm7.12 6l523.08-568-2.34-2-523.12 568.4zm7.13 6l523.08-568-2.34-2L295.4 857.24zm7.13 6l523.1-568-2.34-2-523.14 568.41zm7.13 6l523.08-568-2.34-2-523.12 568.42zm7.13 6l523.08-568-2.34-2-523.12 568.42zm7.13 6l523.08-567.95-2.34-2-523.12 568.37zm7.13 6L856.5 320.88l-2.34-2L331 887.26zm7.13 6l523.07-567.94-2.34-2-523.11 568.37zm7.13 6l523.08-567.94-2.34-2L345.3 899.27zm7.13 6L877.88 338.9l-2.34-2-523.11 568.37zm7.13 6L885 344.9l-2.34-2-523.1 568.38zm7.13 6l523.07-567.92-2.34-2-523.11 568.38zm7.13 6l523.07-567.92-2.34-2-523.11 568.38zm7.13 6L906.4 362.92l-2.34-2-523.12 568.37zm7.13 6l523.07-567.91-2.34-2L388.08 935.3zm7.13 6l523.07-567.9-2.34-2L395.21 941.3zm7.13 6l523.07-567.9-2.34-2-523.12 568.38zm7.13 6l523.07-567.89-2.34-2-523.12 568.37zm7.12 6L942 392.94l-2.34-2L416.6 959.32zm7.13 6L949.18 399l-2.34-2-523.12 568.32zm7.13 6L956.31 405l-2.31-2-523.14 568.33zm7.13 6L963.44 411l-2.34-2L438 977.33zm7.13 6L970.57 417l-2.34-2-523.12 568.34zm7.13 6L977.7 423l-2.34-2-523.12 568.34zm7.13 6L984.83 429l-2.34-2-523.12 568.35zm7.13 6L992 435l-2.34-2-523.16 568.35zm7.13 6L999.08 441l-2.34-2-523.11 568.35z"/></g></svg>