<svg xmlns="http://www.w3.org/2000/svg" viewBox="0 0 65.22 65.22"><defs><style>.cls-1{fill:#0090d3}.cls-2{fill:#fff}</style></defs><title>kind-of-sports-1</title><g id="Слой_2" data-name="Слой 2"><g id="Режим_изоляции" data-name="Режим изоляции"><rect class="cls-1" x=".1" y=".09" width="65.03" height="65.03" rx="3.79" ry="3.79"/><path class="cls-2" d="M61.33 65.22H3.89A3.89 3.89 0 0 1 0 61.33V3.89A3.89 3.89 0 0 1 3.89 0h57.44a3.89 3.89 0 0 1 3.89 3.89v57.44a3.89 3.89 0 0 1-3.89 3.89M3.89.19a3.7 3.7 0 0 0-3.7 3.7v57.44A3.7 3.7 0 0 0 3.89 65h57.44a3.7 3.7 0 0 0 3.7-3.7V3.89a3.7 3.7 0 0 0-3.7-3.7z"/><path class="cls-2" d="M26.57 38.11a7.11 7.11 0 0 1 .29.77l.13.6-.66-.24a8.27 8.27 0 0 0-.36-1.1c-.1-.12.6 0 .6 0M26.02 48.98l-.11 1.15-.12.02.11-1.13.12-.04zM44.75 15.31c-2.39.41-4.58-.81-4.91-2.71s1.34-3.79 3.73-4.19 4.58.81 4.91 2.71-1.35 3.79-3.73 4.2M28.68 31l5.55 12.21L39.13 54l1.11.65 1.85-.19s1 .74.83 1 .56.74.56.74l-6.66.65s-2.4 0-2.68-.65a3.62 3.62 0 0 0 .93-.19l-.19-.83 3.05-.56-.18-1.2-9.26-19.81zM46.89 47.15a.38.38 0 0 1 .56-.28 1.74 1.74 0 0 1 .92 1.66c.46.28 1.67.18 2.68.83A2.41 2.41 0 0 1 52.16 52c-.18.92-2.13 2.31-3.24 2.31s-4 .09-4.71-.37a3.28 3.28 0 0 1-1.66-2.31 3.09 3.09 0 0 1 1.57-2.49 14.4 14.4 0 0 1 3.33-.46s.18-1-.19-1.11-.28.09-.37-.37"/><path class="cls-2" d="M24.59 31a35 35 0 0 1-1.08-9.94c.24-5.33 4.24-8.68 5.66-9.67s4.81-2.54 7.26-.17 3.63 7 2.31 14.32a26.21 26.21 0 0 1-1 3.6c-.54 1.32-3.05 7.73-3.05 7.73L32.2 35s.95-7.57 1.05-8.69a17.43 17.43 0 0 0-.48-5.8c-.68-.85-1.12-1.6-2.58-1.49s-4 2.34-3.9 5.83.26 5.64.26 5.64l-1 1.24z"/><path class="cls-1" d="M27.31 17.78s2.44-3.05 5.94-3 5.19 5.46 4.2 10.18c0 0-.61 2.61-1 3.9s-1.57 5-1.57 5l-2.1-1.26s.78-5.56.84-7.39a10.82 10.82 0 0 0-.71-4.58c-.31-.95-1.36-3-2.48-3.43a3.55 3.55 0 0 0-3.12.58"/><path class="cls-2" d="M15.51 54.27h-3.42l.06-10.95a15.25 15.25 0 0 1 1.49-6.11 7.65 7.65 0 0 1 6.65-4.64c2.54-.14 6.17 1.6 8.45 5s3.12 6.07 1.42 9.77a23 23 0 0 1-2.48 3.29 477.14 477.14 0 0 0-3.38 3.68H23l-.69-1.42L25.72 48s1.56-2.2.75-3.9-2.89-4.1-5.67-3.15A8.05 8.05 0 0 0 18 45c-.58 2.1-2.44 9.25-2.44 9.25"/><path class="cls-1" d="M13.1 52.09l.71-9.48s.44-4.34 3-5.53 4.58-1.29 7.9 1.15A11.81 11.81 0 0 1 27.75 42a5.13 5.13 0 0 0-6.92-1.15 6 6 0 0 0-3.22 4.41c-.51 2-1.78 7.1-1.78 7.1z"/></g></g></svg>