<svg xmlns="http://www.w3.org/2000/svg" viewBox="0 0 65.22 65.22"><defs><style>.cls-1{fill:#0090d3}.cls-2{fill:#fff}</style></defs><title>kind-of-sports-6</title><g id="Слой_2" data-name="Слой 2"><g id="Режим_изоляции" data-name="Режим изоляции"><rect class="cls-1" x=".09" y=".09" width="65.03" height="65.03" rx="3.79" ry="3.79"/><path class="cls-2" d="M61.33 65.22H3.89A3.89 3.89 0 0 1 0 61.33V3.89A3.89 3.89 0 0 1 3.89 0h57.44a3.89 3.89 0 0 1 3.89 3.89v57.44a3.89 3.89 0 0 1-3.89 3.89M3.89.19a3.7 3.7 0 0 0-3.7 3.7v57.44A3.7 3.7 0 0 0 3.89 65h57.44a3.71 3.71 0 0 0 3.7-3.7V3.89a3.7 3.7 0 0 0-3.7-3.7z"/><path class="cls-2" d="M3 37s8.45 3.6 10.87 4.39 9.37 3.4 10.55 3.73 2.56.07 3.14 1 .85 2-.59 2-5.5-1.57-6.88-2.23S13 43 11.72 42.33s-7.6-4.13-7.6-4.13zM19.84 41s8 2.46 9 2.72l.07.62 1.44.66 1.08-.3s9.76 2.81 10.57 2.87 2.78.13 3.18.65.39 1.83-.26 2-3.11-.66-3.74-.85-9.79-3.54-9.79-3.54L23 42.6l-4-1.44zM36.54 13.71s-4.85 1.38-6.49 1.64-10.61 1.83-10.61 1.83-.39-.52-.79-.39a.78.78 0 0 0-.46.59l-.26.13.39.27s.26.52.59.45.79-.72.79-.72l6.61-.85c1-.13 5.83-1.37 5.83-1.37l4.32-1zM56.47 45.51a35.56 35.56 0 0 1-3.79-.69C51.81 44.53 47 43 47 43s.13-.55-.11-.57-.54.34-.54.34h-.19v.34s-.19.51 0 .55.76-.34.76-.34l3.39 1.37c.54.22 3.36.7 3.36.7l2.5.49z"/><path class="cls-2" d="M19.35 40.15l5.83-7.55a17.81 17.81 0 0 1 6.63-5.09c3.95-1.58 8.24-.72 10.51 1.65A8.75 8.75 0 0 1 43.87 38c-1.1 2.52-4.57 4.13-5.53 4.41l-7.49 2.09-1.22-.47.2-1.39 5.77-2.2s3.54-1.24 3.09-4-3.54-3-3.54-3a10.09 10.09 0 0 0-3.54 1.08c-1.5.88-3.45 2.37-3.45 2.37l-5.58 4.4z"/><path class="cls-1" d="M21.53 38.91l5.31-6s3.22-3.38 6.11-3.66a7 7 0 0 1 6.28 2.19A6.67 6.67 0 0 1 41 36.77c-.49-1.54-1.29-3.48-5.77-3.32a8.42 8.42 0 0 0-4.69 1.39c-1.45 1-2.89 2.27-2.89 2.27l-3.64 3z"/><path class="cls-2" d="M40 12.07s4.86 5.06 7.57 8.67a62.16 62.16 0 0 1 6.11 9.48c1.21 2.51 2 8.59 2.61 9.86a39.12 39.12 0 0 0 4 4.73l-.5 1.31-1.16.14s-5.14-4.33-6.24-5.91-3.81-7.66-4.29-8.41-4.29-6.29-4.29-6.29-2-2.65-2.4-3.37-4.4-9-4.4-9z"/><path class="cls-1" d="M41 13.62l-2.33 1.15s3.43 5.9 4.05 6.9 3.43 4.57 3.84 5.25S49.88 32.83 50 33s2.75 6.08 5.43 7.85a11.88 11.88 0 0 1-1.75-5.14c-.21-1.48-.21-4-1.27-6.18a79.76 79.76 0 0 0-5.5-8.66C45.66 19.3 41 13.62 41 13.62"/><path class="cls-2" d="M58.4 19.61a3.92 3.92 0 1 1-3.91-3.92 3.91 3.91 0 0 1 3.91 3.92"/></g></g></svg>