<svg xmlns="http://www.w3.org/2000/svg" viewBox="0 0 65.23 65.22"><defs><style>.cls-1{fill:#0090d3}.cls-2{fill:#fff}</style></defs><title>kind-of-sports-3</title><g id="Слой_2" data-name="Слой 2"><g id="Режим_изоляции" data-name="Режим изоляции"><path class="cls-1" d="M3.89.09h57.45a3.79 3.79 0 0 1 3.79 3.79v57.45a3.8 3.8 0 0 1-3.8 3.8H3.89a3.79 3.79 0 0 1-3.8-3.8V3.89a3.79 3.79 0 0 1 3.8-3.8z"/><path class="cls-2" d="M61.34 65.22H3.89A3.9 3.9 0 0 1 0 61.33V3.89A3.9 3.9 0 0 1 3.89 0h57.45a3.89 3.89 0 0 1 3.89 3.89v57.44a3.9 3.9 0 0 1-3.89 3.89M3.89.19a3.7 3.7 0 0 0-3.7 3.7v57.44A3.7 3.7 0 0 0 3.89 65h57.45a3.7 3.7 0 0 0 3.7-3.7V3.89a3.7 3.7 0 0 0-3.7-3.7z"/><path class="cls-2" d="M24.47 15.79a3.92 3.92 0 0 1-4.6-3.09 4 4 0 0 1 7.91-1.36 3.92 3.92 0 0 1-3.31 4.45M33.42 29.82l.94-.48 14.91 19a2.68 2.68 0 0 0 2.51 1c1.84-.12 4.6-.87 5.47-.67s1.85 1.06 1.43 1.64A4.16 4.16 0 0 1 56 51.35a18.66 18.66 0 0 1-4.89.07A4.44 4.44 0 0 1 49 49.56a27.49 27.49 0 0 0-2-3.4zM32 28.73l-6.64-1.85s-8.6-2.24-7.19-6.32c.46-1.12 2.24-1.79 4-1.09A25.91 25.91 0 0 1 31 27l1.32.27.05-.94A47.37 47.37 0 0 0 28.45 21c-2.13-2.44-7.45-6.7-13.15-4.47s-3 9.57 2.6 12.18 15 2.31 15 2.31z"/><path class="cls-2" d="M31.07 28.88s-4.33-.83-5.72-1.28a12.63 12.63 0 0 1-6.44-4c-4.07-4 1.49-5.75 1.49-5.75a5.11 5.11 0 0 0-5.4.85c-2.27 2.76-.25 6.43 3.37 8.61 4.36 2.92 13.21 2.75 13.21 2.75zM9.54 49.81l-3.48-5.63a7.08 7.08 0 0 1-.64-4.71c.67-2.3 3.57-5.73 7-7.33s7-2.07 9.5-1.05a7.82 7.82 0 0 1 4.6 7.91 36.76 36.76 0 0 1-1.69 6.56l-2.21 6.65-3.66-.66s.24-7.74.24-8.54-.16-3.41-1.69-4.65A4.89 4.89 0 0 0 13.7 38c-2 .54-3.85 2.14-4 3.44a7.24 7.24 0 0 0 .35 2.68l2 4.78L11 50z"/><path class="cls-1" d="M19.28 49.6l.25-7.36a4.72 4.72 0 0 0-1.82-3.82 5.72 5.72 0 0 0-4.18-1.73 12.22 12.22 0 0 0-3.79 1.19 15 15 0 0 1 7.65-3.73c4.52-.64 8.25 2.1 7 7.14S22.21 50 22.21 50z"/><path class="cls-2" d="M60.49 52.09c.08.32-.49.74-1.27.93s-1.47.09-1.55-.24.49-.74 1.26-.93 1.48-.09 1.56.23"/><path class="cls-2" d="M57.79 53l.18.59a2.56 2.56 0 0 0 1.72-.09c1-.38 1-.74 1-.74l-.17-.58s.16.43-1.1.83-1.63 0-1.63 0M57.67 52.88s.11.54.14.59a.42.42 0 0 0 .12.16l-.17-.63s-.05 0-.09-.16M11.82 51.29a32.49 32.49 0 0 1-4.28.78c-1 0-1.72-.32-1.88-.72s-.21-.07-.21-.07A.94.94 0 0 0 6 52a4.65 4.65 0 0 0 2.14.59 44.59 44.59 0 0 0 4.54-1.11zM18.73 53.51l.31.06a44.06 44.06 0 0 0 5.05.72c1.31 0 2.16-.32 2.36-.72s.26-.06.26-.06 0 .39-.66.72a7 7 0 0 1-2.68.59c-.85 0-5.69-1.11-5.69-1.11zM19.42 52.26l-.3 1.04.52.13v-1.04l-.22-.13z"/><path class="cls-2" d="M21.92 52.95l-.04.78.39.08-.04-.64-.31-.22zM11.14 50.58l.21.51-.39.22-.08-.56.26-.17zM9.2 50.84l-.18.86-.43.04.17-.69.44-.21z"/></g></g></svg>