<svg id="Layer_1" data-name="Layer 1" xmlns="http://www.w3.org/2000/svg" viewBox="0 0 1399.1 1104.01"><defs><style>.cls-1{fill:#fff}.cls-2{fill:none}.cls-3{clip-path:url(#clip-path)}.cls-4{fill:#78ccf4}.cls-5{clip-path:url(#clip-path-2)}.cls-6{clip-path:url(#clip-path-3)}.cls-7{fill:#6ec4e9}.cls-8{fill:#0e7dc2}</style><clipPath id="clip-path"><path class="cls-1" d="M514.55 540.59l996.34 45.48V309.93L514.55 540.59z"/></clipPath><clipPath id="clip-path-2"><path class="cls-2" d="M-408.79 750.29l923.63-210.55-924.09-40.54.46 251.09z"/></clipPath><clipPath id="clip-path-3"><path class="cls-2" d="M514.55 540.59l996.34 45.48V309.93L514.55 540.59z"/></clipPath></defs><title>huy</title><path class="cls-1" d="M514.55 540.59l996.34 45.48V309.93L514.55 540.59z"/><g class="cls-3"><path class="cls-1" d="M393.87 535.18L917.65-30.91l2.34 1.96-523.79 566.1-2.33-1.97zM403.34 543.13L927.13-22.96l-2.34-1.97L401 541.16l2.34 1.97zM410.48 549.11L934.27-16.98l-2.35-1.97-523.78 566.1 2.34 1.96zM417.62 555.09l523.79-566.1-2.35-1.96-523.78 566.09 2.34 1.97zM424.76 561.07L948.54-5.02l-2.34-1.96-523.79 566.09 2.35 1.96zM431.9 567.05L955.68.96l-2.34-1.97-523.79 566.1 2.35 1.96zM439.03 573.03L962.82 6.94l-2.34-1.96-523.79 566.09 2.34 1.96zM446.18 579.01L969.96 12.92l-2.34-1.96-523.79 566.09 2.35 1.96zM453.31 584.99L977.1 18.9l-2.34-1.96-523.79 566.09 2.34 1.96zM460.46 590.98l523.78-566.1-2.34-1.96-523.79 566.09 2.35 1.97zM467.59 596.95L991.37 30.86l-2.34-1.96-523.78 566.09 2.34 1.96zM474.73 602.93L998.51 36.84l-2.34-1.96-523.78 566.09 2.34 1.96zM481.87 608.91l523.78-566.09-2.34-1.96-523.78 566.09 2.34 1.96zM489 614.89L1012.79 48.8l-2.34-1.96-523.79 566.09 2.34 1.96zM496.14 620.87l523.79-566.08-2.35-1.97L493.8 618.91l2.34 1.96zM503.28 626.86l523.79-566.09-2.34-1.97-523.79 566.1 2.34 1.96zM510.42 632.84l523.79-566.09-2.35-1.97-523.78 566.09 2.34 1.97zM517.56 638.82l523.78-566.09-2.34-1.96-523.78 566.09 2.34 1.96zM524.7 644.8l523.79-566.09-2.35-1.97-523.78 566.1 2.34 1.96zM531.84 650.78l523.78-566.09-2.34-1.96-523.79 566.09 2.35 1.96zM538.98 656.76l523.78-566.09-2.34-1.96L536.63 654.8l2.35 1.96zM648.11 552.74L1171.9-13.35l-2.35-1.96-523.78 566.09 2.34 1.96zM655.25 558.72L1179.04-7.37l-2.35-1.96-523.78 566.09 2.34 1.96zM662.39 564.71L1186.18-1.38l-2.35-1.97-523.78 566.09 2.34 1.97zM669.53 570.69l523.79-566.1-2.35-1.96-523.78 566.09 2.34 1.97zM676.67 576.67l523.79-566.09-2.35-1.97L674.33 574.7l2.34 1.97zM683.81 582.65L1207.6 16.56l-2.35-1.97-523.78 566.1 2.34 1.96zM690.95 588.63l523.79-566.09-2.35-1.97-523.79 566.1 2.35 1.96zM698.09 594.61l523.78-566.09-2.34-1.96-523.79 566.09 2.35 1.96zM705.22 600.59L1229.01 34.5l-2.34-1.96-523.79 566.09 2.34 1.96zM712.36 606.57l523.79-566.09-2.35-1.96-523.78 566.09 2.34 1.96zM719.5 612.56l523.79-566.1-2.35-1.97-523.78 566.1 2.34 1.97zM726.64 618.53l523.79-566.09-2.35-1.96L724.3 616.57l2.34 1.96zM733.78 624.52l523.78-566.1-2.34-1.96-523.79 566.09 2.35 1.97zM740.92 630.5L1264.7 64.4l-2.34-1.96-523.79 566.09 2.35 1.97zM748.05 636.48l523.79-566.1-2.35-1.96-523.78 566.09 2.34 1.97zM755.19 642.46l523.79-566.09-2.34-1.97-523.79 566.09 2.34 1.97zM762.34 648.44l523.78-566.09-2.34-1.97-523.79 566.1 2.35 1.96zM769.47 654.42l523.79-566.09-2.34-1.96-523.79 566.09 2.34 1.96zM776.61 660.4L1300.4 94.31l-2.35-1.96-523.78 566.09 2.34 1.96zM783.75 666.38l523.79-566.09-2.35-1.96-523.78 566.09 2.34 1.96zM790.89 672.36l523.79-566.09-2.35-1.96L788.55 670.4l2.34 1.96zM798.02 678.34l523.79-566.09-2.34-1.96-523.79 566.09 2.34 1.96zM805.16 684.32l523.79-566.09-2.34-1.96-523.79 566.09 2.34 1.96zM812.3 690.31l523.79-566.1-2.34-1.96-523.79 566.09 2.34 1.97zM819.44 696.29l523.79-566.09-2.35-1.97L817.1 694.32l2.34 1.97zM826.58 702.27l523.79-566.09-2.35-1.97-523.78 566.1 2.34 1.96zM833.71 708.25l523.79-566.09-2.34-1.97-523.79 566.1 2.34 1.96zM840.86 714.23l523.78-566.09-2.34-1.96-523.78 566.09 2.34 1.96zM848 720.21l523.78-566.09-2.34-1.96-523.79 566.09 2.35 1.96zM855.14 726.19l523.78-566.09-2.34-1.96-523.79 566.09 2.35 1.96zM862.27 732.17l523.79-566.09-2.34-1.96-523.79 566.09 2.34 1.96zM869.41 738.16l523.79-566.1-2.34-1.96-523.79 566.09 2.34 1.97zM876.55 744.14l523.78-566.1-2.34-1.96-523.78 566.09 2.34 1.97zM883.69 750.12l523.79-566.09-2.35-1.97-523.79 566.09 2.35 1.97zM890.84 756.11l523.79-566.09-2.34-1.96L888.5 754.15l2.34 1.96zM897.98 762.09L1421.77 196l-2.34-1.96-523.79 566.09 2.34 1.96zM905.12 768.07l523.79-566.09-2.35-1.96-523.78 566.09 2.34 1.96zM912.26 774.05l523.78-566.09-2.34-1.96-523.78 566.09 2.34 1.96zM919.4 780.04l523.79-566.1-2.35-1.96-523.78 566.09 2.34 1.97zM926.53 786.01l523.79-566.09-2.34-1.96-523.79 566.09 2.34 1.96zM933.67 791.99l523.79-566.08-2.34-1.97-523.79 566.09 2.34 1.96zM940.81 797.98l523.79-566.1-2.34-1.96-523.79 566.09 2.34 1.97zM947.95 803.96l523.79-566.09-2.34-1.97-523.79 566.09 2.34 1.97zM955.09 809.94l523.78-566.09-2.34-1.97-523.78 566.1 2.34 1.96zM962.23 815.92l523.79-566.09-2.35-1.97-523.78 566.09 2.34 1.97zM969.37 821.9l523.79-566.09-2.35-1.97-523.78 566.1 2.34 1.96zM976.5 827.88l523.79-566.1-2.34-1.96-523.79 566.1 2.34 1.96zM983.64 833.86l523.79-566.09-2.35-1.97L981.3 831.9l2.34 1.96zM990.78 839.84l523.79-566.09-2.34-1.96-523.79 566.09 2.34 1.96zM997.92 845.82l523.79-566.09-2.34-1.96-523.79 566.09 2.34 1.96zM1005.06 851.8l523.78-566.09-2.34-1.96-523.78 566.09 2.34 1.96zM1012.2 857.79l523.78-566.1-2.34-1.96-523.79 566.09 2.35 1.97zM1019.33 863.76l523.79-566.09-2.34-1.96-523.79 566.09 2.34 1.96zM1026.47 869.75l523.79-566.1-2.34-1.96-523.79 566.1 2.34 1.96zM1033.61 875.73l523.79-566.09-2.34-1.97-523.79 566.09 2.34 1.97zM1040.75 881.71l523.79-566.1-2.35-1.96-523.78 566.1 2.34 1.96zM1047.89 887.69l523.79-566.09-2.34-1.96-523.79 566.08 2.34 1.97zM1055.03 893.67l523.78-566.09-2.34-1.96-523.78 566.09 2.34 1.96zM1062.17 899.65l523.79-566.09-2.35-1.96-523.79 566.09 2.35 1.96zM1069.31 905.63l523.78-566.09-2.34-1.96-523.79 566.09 2.35 1.96zM1076.45 911.61l523.79-566.09-2.35-1.96-523.78 566.09 2.34 1.96zM1083.58 917.6l523.79-566.1-2.34-1.96-523.79 566.09 2.34 1.97zM1090.72 923.57l523.79-566.09-2.34-1.96-523.79 566.09 2.34 1.96zM1097.86 929.56l523.79-566.1-2.35-1.96-523.78 566.09 2.34 1.97zM1105 935.54l523.79-566.09-2.35-1.97-523.78 566.09 2.34 1.97zM1112.14 941.52l523.79-566.09-2.35-1.97-523.78 566.1 2.34 1.96zM1119.28 947.5l523.79-566.09-2.35-1.97-523.79 566.1 2.35 1.96zM1126.42 953.48l523.78-566.09-2.34-1.97-523.79 566.1 2.35 1.96zM1133.55 959.46l523.79-566.09-2.34-1.97-523.79 566.1 2.34 1.96zM1140.7 965.44l523.78-566.09-2.34-1.96-523.79 566.09 2.35 1.96zM1147.83 971.42l523.79-566.09-2.34-1.96-523.79 566.09 2.34 1.96zM1154.97 977.41l523.79-566.1-2.35-1.96-523.78 566.09 2.34 1.97zM1162.11 983.39l523.79-566.1-2.35-1.96-523.78 566.09 2.34 1.97zM1169.25 989.37l523.79-566.1-2.35-1.96-523.78 566.1 2.34 1.96zM1176.39 995.35l523.78-566.09-2.34-1.97-523.79 566.1 2.35 1.96zM1183.52 1001.33l523.79-566.1-2.34-1.96-523.78 566.1 2.33 1.96zM1190.67 1007.31l523.78-566.09-2.34-1.97-523.79 566.1 2.35 1.96zM1197.8 1013.29l523.79-566.1-2.34-1.95-523.79 566.09 2.34 1.96zM1204.95 1019.27l523.78-566.09-2.34-1.96-523.79 566.09 2.35 1.96zM1212.08 1025.25l523.79-566.09-2.35-1.97-523.78 566.1 2.34 1.96zM1219.22 1031.23l523.79-566.09-2.35-1.96-523.78 566.09 2.34 1.96zM1226.36 1037.21l523.79-566.09-2.35-1.96-523.78 566.09 2.34 1.96zM1233.5 1043.2l523.78-566.1-2.34-1.96-523.79 566.09 2.35 1.97zM1240.63 1049.18l523.79-566.1-2.35-1.96-523.78 566.09 2.34 1.97zM1247.77 1055.16l523.79-566.09-2.34-1.97-523.79 566.1 2.34 1.96zM1254.91 1061.14l523.79-566.09-2.34-1.97-523.79 566.1 2.34 1.96zM1262.05 1067.12l523.79-566.09-2.34-1.97-523.79 566.1 2.34 1.96zM1269.19 1073.1l523.78-566.09-2.34-1.97-523.78 566.1 2.34 1.96z"/></g><path class="cls-4" d="M-408.79 750.29l923.63-210.55-924.09-40.54.46 251.09z"/><g class="cls-5"><path class="cls-4" d="M-544.47 647.07L-21.36 78.72l2.34 2L-542.11 649zm9.47 8L-11.89 86.69l-2.34-2-523.11 568.38zm7.13 6L-4.76 92.7l-2.35-2-523.11 568.38zm7.13 6L2.37 98.7 0 96.7l-523.11 568.38zm7.13 6L9.5 104.71l-2.34-2L-516 671.09zm7.13 6L16.63 110.71l-2.34-2-523.12 568.38zm7.13 6L23.76 116.72l-2.34-2-523.12 568.37zm7.13 6L30.89 122.72l-2.34-2-523.12 568.38zm7.12 6L38 128.73l-2.34-2-523.1 568.37zm7.13 6L45.14 134.73l-2.33-2-523.12 568.38zm7.13 6L52.27 140.73l-2.34-2-523.11 568.38zm7.13 6L59.4 146.74l-2.34-2-523.11 568.38zm7.13 6L66.53 152.74l-2.34-2-523.11 568.38zm7.13 6L73.66 158.75l-2.35-2-523.11 568.38zm7.13 6L80.79 164.76l-2.34-2-523.12 568.37zm7.13 6L87.89 170.76l-2.34-2-523.08 568.38zm7.13 6L95 176.76l-2.34-2-523.07 568.38zm7.13 6l523.11-568.3-2.33-2-523.13 568.38zm7.13 6l523.11-568.3-2.34-2-523.08 568.38zm7.13 6l523.11-568.29-2.34-2L-409 761.15zm7.13 6l523.1-568.29-2.33-2-523.12 568.38zm7.13 6L130.7 206.79l-2.34-2-523.11 568.38zm7.13 6l523.11-568.28-2.34-2-523.12 568.38zm7.13 6L145 218.8l-2.34-2-523.16 568.38zm7.13 6l523.1-568.27-2.34-2-523.11 568.38zm7.13 6l523.1-568.26-2.34-2-523.11 568.37zm7.13 6l523.11-568.26-2.34-2-523.12 568.38zm7.13 6l523.11-568.25-2.34-2L-352 809.19zm7.13 6l523.1-568.25-2.34-2-523.11 568.38zm7.13 6l523.1-568.25-2.34-2-523.11 568.38zm7.13 6l523.13-568.24-2.35-2-523.14 568.38zm7.13 6L202 266.84l-2.35-2-523.12 568.37zm7.13 6l523.1-568.23-2.34-2-523.11 568.38zm7.13 6l523.1-568.22-2.34-2-523.12 568.37zm7.13 6l523.09-568.22-2.33-2-523.15 568.38zm7.13 6l523.1-568.22-2.34-2-523.11 568.38zm7.13 6l523.1-568.21-2.34-2-523.12 568.38zm7.14 6l523.09-568.2-2.34-2-523.12 568.37zm7.13 6l523.08-568.2-2.34-2-523.11 568.38zm7.13 6L259 314.87l-2.34-1.94-523.09 568.32zm7.13 6l523.09-568.14-2.34-2-523.12 568.33zm7.13 6l523.09-568.14-2.34-2-523.12 568.33zm7.12 6l523.1-568.14-2.34-2L-245 899.27zm7.13 6l523.09-568.14-2.34-2-523.11 568.34zm7.13 6l523.09-568.14-2.34-2-523.11 568.35zm7.13 6l523.1-568.14-2.34-2-523.12 568.35zm7.13 6l523-568.14-2.34-2-523.02 568.36zm7.13 6l523.09-568.14-2.34-2-523.11 568.36zm7.14 6l523.08-568.14-2.3-2-523.15 568.36zm7.13 6l523.08-568.14-2.34-2-523.09 568.37zm7.13 6l523.08-568.14-2.34-2L-188 947.3zm7.13 6l523.08-568.14-2.34-2-523.11 568.38zm7.13 6l523.09-568.14-2.34-2-523.12 568.38zm7.13 6l523.13-568.14-2.33-2-523.17 568.39zm7.13 6L366 404.93l-2.34-2-523.15 568.39zm7.14 6l523.08-568.14-2.34-2-523.11 568.41zm7.13 6l523.08-568.14-2.35-2-523.1 568.42zm7.13 6l523.09-568.14-2.34-2-523.15 568.42zm7.13 6L394.5 428.93l-2.34-2L-131 995.35zm7.13 6L401.63 435l-2.34-2-523.11 568.38zm7.13 6L408.76 441l-2.34-2-523.11 568.37zm7.13 6L415.89 447l-2.34-2-523.11 568.37zm7.14 6L423 453l-2.34-2-523.12 568.37zm7.13 6L430.15 459l-2.34-2-523.12 568.38zm7.13 6L437.28 465l-2.34-2-523.12 568.38zm7.13 6L444.41 471l-2.34-2-523.12 568.39zm7.13 6L451.54 477l-2.34-2-523.12 568.39zm7.13 6L458.66 483l-2.34-2-523.11 568.4zm7.13 6l523.07-568-2.34-2-523.12 568.33zm7.13 6l523-568-2.34-2-523.05 568.34zm7.13 6l523.01-568-2.34-2-523.06 568.34zm7.13 6l523.06-568-2.34-2-523.11 568.35zm7.13 6l523.06-568-2.34-2-523.08 568.35zm7.12 6l523.07-568-2.34-2L-24 1085.42zm7.13 6l523.07-568-2.34-2-523.11 568.36zm7.13 6l523.07-568-2.34-2-523.11 568.36zm7.13 6l523.07-568-2.34-2-523.12 568.37zm7.13 6l523.11-568-2.34-2L4.51 1109.44zm7.13 6l523.07-568-2.34-2-523.11 568.38zm7.13 6l523.07-568-2.34-2-523.12 568.38zm7.13 6l523.07-568-2.34-2-523.12 568.39zm7.13 6l523.07-568-2.34-2L33 1133.47zm7.12 6l523.08-568-2.34-2-523.12 568.4zm7.13 6l523.08-568-2.34-2-523.11 568.4zm7.13 6l523.1-568-2.34-2-523.14 568.41zm7.13 6l523.08-568-2.34-2-523.12 568.41zm7.13 6l523.11-568.35-2.34-2-523.15 568.77zm7.13 6l523.11-568.35-2.34-2L75.8 1169.49zm7.13 6l523.08-568-2.34-2L82.89 1175.5zm7.13 6l523.07-567.94-2.34-2L90.06 1181.5zm7.13 6l523.08-567.94-2.34-2-523.12 568.38zm7.13 6l523.11-568.35-2.34-2-523.15 568.79zm7.13 6l523.06-567.93-2.34-2-523.1 568.38zm7.13 6l523.12-568.35-2.34-2-523.16 568.8zm7.13 6l523.12-568.35-2.34-2-523.16 568.81zm7.13 6l523.07-567.91-2.34-2-523.12 568.37zm7.13 6l523.12-568.35-2.34-2L140 1223.54zm7.13 6l523.11-568.35-2.34-2-523.15 568.82zm7.13 6l523.11-568.35-2.34-2-523.16 568.83zm7.13 6l523.15-568.35-2.34-2-523.2 568.83zm7.12 6L694 680.72l-2.34-2-523.17 568.84zm7.13 6L701.1 686.73l-2.34-2-523.15 568.83zm7.13 6l523.12-568.35-2.34-2-523.15 568.85zm7.13 6l523.11-568.35-2.34-2-523.13 568.85zm7.13 6L722.5 704.72l-2.34-2L197 1271.58zm7.13 6l523.08-567.86-2.34-2-523.12 568.37zm7.13 6l523.12-568.34-2.34-2-523.16 568.86zm7.13 6l523.12-567.85-2.34-2-523.16 568.37zm7.13 6L751 728.72l-2.34-2-523.14 568.87z"/></g><g class="cls-6"><path class="cls-7" d="M393.87 535.18L917.65-30.91l2.34 1.96-523.79 566.1-2.33-1.97zM403.34 543.13L927.13-22.96l-2.34-1.97L401 541.16l2.34 1.97zM410.48 549.11L934.27-16.98l-2.35-1.97-523.78 566.1 2.34 1.96zM417.62 555.09l523.79-566.1-2.35-1.96-523.78 566.09 2.34 1.97zM424.76 561.07L948.54-5.02l-2.34-1.96-523.79 566.09 2.35 1.96zM431.9 567.05L955.68.96l-2.34-1.97-523.79 566.1 2.35 1.96zM439.03 573.03L962.82 6.94l-2.34-1.96-523.79 566.09 2.34 1.96zM446.18 579.01L969.96 12.92l-2.34-1.96-523.79 566.09 2.35 1.96zM453.31 584.99L977.1 18.9l-2.34-1.96-523.79 566.09 2.34 1.96zM460.46 590.98l523.78-566.1-2.34-1.96-523.79 566.09 2.35 1.97zM467.59 596.95L991.37 30.86l-2.34-1.96-523.78 566.09 2.34 1.96zM474.73 602.93L998.51 36.84l-2.34-1.96-523.78 566.09 2.34 1.96zM481.87 608.91l523.78-566.09-2.34-1.96-523.78 566.09 2.34 1.96zM489 614.89L1012.79 48.8l-2.34-1.96-523.79 566.09 2.34 1.96zM496.14 620.87l523.79-566.08-2.35-1.97L493.8 618.91l2.34 1.96zM503.28 626.86l523.79-566.09-2.34-1.97-523.79 566.1 2.34 1.96zM510.42 632.84l523.79-566.09-2.35-1.97-523.78 566.09 2.34 1.97zM517.56 638.82l523.78-566.09-2.34-1.96-523.78 566.09 2.34 1.96zM524.7 644.8l523.79-566.09-2.35-1.97-523.78 566.1 2.34 1.96zM531.84 650.78l523.78-566.09-2.34-1.96-523.79 566.09 2.35 1.96zM538.98 656.76l523.78-566.09-2.34-1.96L536.63 654.8l2.35 1.96zM648.11 552.74L1171.9-13.35l-2.35-1.96-523.78 566.09 2.34 1.96zM655.25 558.72L1179.04-7.37l-2.35-1.96-523.78 566.09 2.34 1.96zM662.39 564.71L1186.18-1.38l-2.35-1.97-523.78 566.09 2.34 1.97zM669.53 570.69l523.79-566.1-2.35-1.96-523.78 566.09 2.34 1.97zM676.67 576.67l523.79-566.09-2.35-1.97L674.33 574.7l2.34 1.97zM683.81 582.65L1207.6 16.56l-2.35-1.97-523.78 566.1 2.34 1.96zM690.95 588.63l523.79-566.09-2.35-1.97-523.79 566.1 2.35 1.96zM698.09 594.61l523.78-566.09-2.34-1.96-523.79 566.09 2.35 1.96zM705.22 600.59L1229.01 34.5l-2.34-1.96-523.79 566.09 2.34 1.96zM712.36 606.57l523.79-566.09-2.35-1.96-523.78 566.09 2.34 1.96zM719.5 612.56l523.79-566.1-2.35-1.97-523.78 566.1 2.34 1.97zM726.64 618.53l523.79-566.09-2.35-1.96L724.3 616.57l2.34 1.96zM733.78 624.52l523.78-566.1-2.34-1.96-523.79 566.09 2.35 1.97zM740.92 630.5L1264.7 64.4l-2.34-1.96-523.79 566.09 2.35 1.97zM748.05 636.48l523.79-566.1-2.35-1.96-523.78 566.09 2.34 1.97zM755.19 642.46l523.79-566.09-2.34-1.97-523.79 566.09 2.34 1.97zM762.34 648.44l523.78-566.09-2.34-1.97-523.79 566.1 2.35 1.96zM769.47 654.42l523.79-566.09-2.34-1.96-523.79 566.09 2.34 1.96zM776.61 660.4L1300.4 94.31l-2.35-1.96-523.78 566.09 2.34 1.96zM783.75 666.38l523.79-566.09-2.35-1.96-523.78 566.09 2.34 1.96zM790.89 672.36l523.79-566.09-2.35-1.96L788.55 670.4l2.34 1.96zM798.02 678.34l523.79-566.09-2.34-1.96-523.79 566.09 2.34 1.96zM805.16 684.32l523.79-566.09-2.34-1.96-523.79 566.09 2.34 1.96zM812.3 690.31l523.79-566.1-2.34-1.96-523.79 566.09 2.34 1.97zM819.44 696.29l523.79-566.09-2.35-1.97L817.1 694.32l2.34 1.97zM826.58 702.27l523.79-566.09-2.35-1.97-523.78 566.1 2.34 1.96zM833.71 708.25l523.79-566.09-2.34-1.97-523.79 566.1 2.34 1.96zM840.86 714.23l523.78-566.09-2.34-1.96-523.78 566.09 2.34 1.96zM848 720.21l523.78-566.09-2.34-1.96-523.79 566.09 2.35 1.96zM855.14 726.19l523.78-566.09-2.34-1.96-523.79 566.09 2.35 1.96zM862.27 732.17l523.79-566.09-2.34-1.96-523.79 566.09 2.34 1.96zM869.41 738.16l523.79-566.1-2.34-1.96-523.79 566.09 2.34 1.97zM876.55 744.14l523.78-566.1-2.34-1.96-523.78 566.09 2.34 1.97zM883.69 750.12l523.79-566.09-2.35-1.97-523.79 566.09 2.35 1.97zM890.84 756.11l523.79-566.09-2.34-1.96L888.5 754.15l2.34 1.96zM897.98 762.09L1421.77 196l-2.34-1.96-523.79 566.09 2.34 1.96zM905.12 768.07l523.79-566.09-2.35-1.96-523.78 566.09 2.34 1.96zM912.26 774.05l523.78-566.09-2.34-1.96-523.78 566.09 2.34 1.96zM919.4 780.04l523.79-566.1-2.35-1.96-523.78 566.09 2.34 1.97zM926.53 786.01l523.79-566.09-2.34-1.96-523.79 566.09 2.34 1.96zM933.67 791.99l523.79-566.08-2.34-1.97-523.79 566.09 2.34 1.96zM940.81 797.98l523.79-566.1-2.34-1.96-523.79 566.09 2.34 1.97zM947.95 803.96l523.79-566.09-2.34-1.97-523.79 566.09 2.34 1.97zM955.09 809.94l523.78-566.09-2.34-1.97-523.78 566.1 2.34 1.96zM962.23 815.92l523.79-566.09-2.35-1.97-523.78 566.09 2.34 1.97zM969.37 821.9l523.79-566.09-2.35-1.97-523.78 566.1 2.34 1.96zM976.5 827.88l523.79-566.1-2.34-1.96-523.79 566.1 2.34 1.96zM983.64 833.86l523.79-566.09-2.35-1.97L981.3 831.9l2.34 1.96zM990.78 839.84l523.79-566.09-2.34-1.96-523.79 566.09 2.34 1.96zM997.92 845.82l523.79-566.09-2.34-1.96-523.79 566.09 2.34 1.96zM1005.06 851.8l523.78-566.09-2.34-1.96-523.78 566.09 2.34 1.96zM1012.2 857.79l523.78-566.1-2.34-1.96-523.79 566.09 2.35 1.97zM1019.33 863.76l523.79-566.09-2.34-1.96-523.79 566.09 2.34 1.96zM1026.47 869.75l523.79-566.1-2.34-1.96-523.79 566.1 2.34 1.96zM1033.61 875.73l523.79-566.09-2.34-1.97-523.79 566.09 2.34 1.97zM1040.75 881.71l523.79-566.1-2.35-1.96-523.78 566.1 2.34 1.96zM1047.89 887.69l523.79-566.09-2.34-1.96-523.79 566.08 2.34 1.97zM1055.03 893.67l523.78-566.09-2.34-1.96-523.78 566.09 2.34 1.96zM1062.17 899.65l523.79-566.09-2.35-1.96-523.79 566.09 2.35 1.96zM1069.31 905.63l523.78-566.09-2.34-1.96-523.79 566.09 2.35 1.96zM1076.45 911.61l523.79-566.09-2.35-1.96-523.78 566.09 2.34 1.96zM1083.58 917.6l523.79-566.1-2.34-1.96-523.79 566.09 2.34 1.97zM1090.72 923.57l523.79-566.09-2.34-1.96-523.79 566.09 2.34 1.96zM1097.86 929.56l523.79-566.1-2.35-1.96-523.78 566.09 2.34 1.97zM1105 935.54l523.79-566.09-2.35-1.97-523.78 566.09 2.34 1.97zM1112.14 941.52l523.79-566.09-2.35-1.97-523.78 566.1 2.34 1.96zM1119.28 947.5l523.79-566.09-2.35-1.97-523.79 566.1 2.35 1.96zM1126.42 953.48l523.78-566.09-2.34-1.97-523.79 566.1 2.35 1.96zM1133.55 959.46l523.79-566.09-2.34-1.97-523.79 566.1 2.34 1.96zM1140.7 965.44l523.78-566.09-2.34-1.96-523.79 566.09 2.35 1.96zM1147.83 971.42l523.79-566.09-2.34-1.96-523.79 566.09 2.34 1.96zM1154.97 977.41l523.79-566.1-2.35-1.96-523.78 566.09 2.34 1.97zM1162.11 983.39l523.79-566.1-2.35-1.96-523.78 566.09 2.34 1.97zM1169.25 989.37l523.79-566.1-2.35-1.96-523.78 566.1 2.34 1.96zM1176.39 995.35l523.78-566.09-2.34-1.97-523.79 566.1 2.35 1.96zM1183.52 1001.33l523.79-566.1-2.34-1.96-523.78 566.1 2.33 1.96zM1190.67 1007.31l523.78-566.09-2.34-1.97-523.79 566.1 2.35 1.96zM1197.8 1013.29l523.79-566.1-2.34-1.95-523.79 566.09 2.34 1.96zM1204.95 1019.27l523.78-566.09-2.34-1.96-523.79 566.09 2.35 1.96zM1212.08 1025.25l523.79-566.09-2.35-1.97-523.78 566.1 2.34 1.96zM1219.22 1031.23l523.79-566.09-2.35-1.96-523.78 566.09 2.34 1.96zM1226.36 1037.21l523.79-566.09-2.35-1.96-523.78 566.09 2.34 1.96zM1233.5 1043.2l523.78-566.1-2.34-1.96-523.79 566.09 2.35 1.97zM1240.63 1049.18l523.79-566.1-2.35-1.96-523.78 566.09 2.34 1.97zM1247.77 1055.16l523.79-566.09-2.34-1.97-523.79 566.1 2.34 1.96zM1254.91 1061.14l523.79-566.09-2.34-1.97-523.79 566.1 2.34 1.96zM1262.05 1067.12l523.79-566.09-2.34-1.97-523.79 566.1 2.34 1.96zM1269.19 1073.1l523.78-566.09-2.34-1.97-523.78 566.1 2.34 1.96z"/></g><g class="cls-5"><path class="cls-8" d="M-544.47 647.07L-21.36 78.72l2.34 2L-542.11 649zm9.47 8L-11.89 86.69l-2.34-2-523.11 568.38zm7.13 6L-4.76 92.7l-2.35-2-523.11 568.38zm7.13 6L2.37 98.7 0 96.7l-523.11 568.38zm7.13 6L9.5 104.71l-2.34-2L-516 671.09zm7.13 6L16.63 110.71l-2.34-2-523.12 568.38zm7.13 6L23.76 116.72l-2.34-2-523.12 568.37zm7.13 6L30.89 122.72l-2.34-2-523.12 568.38zm7.12 6L38 128.73l-2.34-2-523.1 568.37zm7.13 6L45.14 134.73l-2.33-2-523.12 568.38zm7.13 6L52.27 140.73l-2.34-2-523.11 568.38zm7.13 6L59.4 146.74l-2.34-2-523.11 568.38zm7.13 6L66.53 152.74l-2.34-2-523.11 568.38zm7.13 6L73.66 158.75l-2.35-2-523.11 568.38zm7.13 6L80.79 164.76l-2.34-2-523.12 568.37zm7.13 6L87.89 170.76l-2.34-2-523.08 568.38zm7.13 6L95 176.76l-2.34-2-523.07 568.38zm7.13 6l523.11-568.3-2.33-2-523.13 568.38zm7.13 6l523.11-568.3-2.34-2-523.08 568.38zm7.13 6l523.11-568.29-2.34-2L-409 761.15zm7.13 6l523.1-568.29-2.33-2-523.12 568.38zm7.13 6L130.7 206.79l-2.34-2-523.11 568.38zm7.13 6l523.11-568.28-2.34-2-523.12 568.38zm7.13 6L145 218.8l-2.34-2-523.16 568.38zm7.13 6l523.1-568.27-2.34-2-523.11 568.38zm7.13 6l523.1-568.26-2.34-2-523.11 568.37zm7.13 6l523.11-568.26-2.34-2-523.12 568.38zm7.13 6l523.11-568.25-2.34-2L-352 809.19zm7.13 6l523.1-568.25-2.34-2-523.11 568.38zm7.13 6l523.1-568.25-2.34-2-523.11 568.38zm7.13 6l523.13-568.24-2.35-2-523.14 568.38zm7.13 6L202 266.84l-2.35-2-523.12 568.37zm7.13 6l523.1-568.23-2.34-2-523.11 568.38zm7.13 6l523.1-568.22-2.34-2-523.12 568.37zm7.13 6l523.09-568.22-2.33-2-523.15 568.38zm7.13 6l523.1-568.22-2.34-2-523.11 568.38zm7.13 6l523.1-568.21-2.34-2-523.12 568.38zm7.14 6l523.09-568.2-2.34-2-523.12 568.37zm7.13 6l523.08-568.2-2.34-2-523.11 568.38zm7.13 6L259 314.87l-2.34-1.94-523.09 568.32zm7.13 6l523.09-568.14-2.34-2-523.12 568.33zm7.13 6l523.09-568.14-2.34-2-523.12 568.33zm7.12 6l523.1-568.14-2.34-2L-245 899.27zm7.13 6l523.09-568.14-2.34-2-523.11 568.34zm7.13 6l523.09-568.14-2.34-2-523.11 568.35zm7.13 6l523.1-568.14-2.34-2-523.12 568.35zm7.13 6l523-568.14-2.34-2-523.02 568.36zm7.13 6l523.09-568.14-2.34-2-523.11 568.36zm7.14 6l523.08-568.14-2.3-2-523.15 568.36zm7.13 6l523.08-568.14-2.34-2-523.09 568.37zm7.13 6l523.08-568.14-2.34-2L-188 947.3zm7.13 6l523.08-568.14-2.34-2-523.11 568.38zm7.13 6l523.09-568.14-2.34-2-523.12 568.38zm7.13 6l523.13-568.14-2.33-2-523.17 568.39zm7.13 6L366 404.93l-2.34-2-523.15 568.39zm7.14 6l523.08-568.14-2.34-2-523.11 568.41zm7.13 6l523.08-568.14-2.35-2-523.1 568.42zm7.13 6l523.09-568.14-2.34-2-523.15 568.42zm7.13 6L394.5 428.93l-2.34-2L-131 995.35zm7.13 6L401.63 435l-2.34-2-523.11 568.38zm7.13 6L408.76 441l-2.34-2-523.11 568.37zm7.13 6L415.89 447l-2.34-2-523.11 568.37zm7.14 6L423 453l-2.34-2-523.12 568.37zm7.13 6L430.15 459l-2.34-2-523.12 568.38zm7.13 6L437.28 465l-2.34-2-523.12 568.38zm7.13 6L444.41 471l-2.34-2-523.12 568.39zm7.13 6L451.54 477l-2.34-2-523.12 568.39zm7.13 6L458.66 483l-2.34-2-523.11 568.4zm7.13 6l523.07-568-2.34-2-523.12 568.33zm7.13 6l523-568-2.34-2-523.05 568.34zm7.13 6l523.01-568-2.34-2-523.06 568.34zm7.13 6l523.06-568-2.34-2-523.11 568.35zm7.13 6l523.06-568-2.34-2-523.08 568.35zm7.12 6l523.07-568-2.34-2L-24 1085.42zm7.13 6l523.07-568-2.34-2-523.11 568.36zm7.13 6l523.07-568-2.34-2-523.11 568.36zm7.13 6l523.07-568-2.34-2-523.12 568.37zm7.13 6l523.11-568-2.34-2L4.51 1109.44zm7.13 6l523.07-568-2.34-2-523.11 568.38zm7.13 6l523.07-568-2.34-2-523.12 568.38zm7.13 6l523.07-568-2.34-2-523.12 568.39zm7.13 6l523.07-568-2.34-2L33 1133.47zm7.12 6l523.08-568-2.34-2-523.12 568.4zm7.13 6l523.08-568-2.34-2-523.11 568.4zm7.13 6l523.1-568-2.34-2-523.14 568.41zm7.13 6l523.08-568-2.34-2-523.12 568.41zm7.13 6l523.11-568.35-2.34-2-523.15 568.77zm7.13 6l523.11-568.35-2.34-2L75.8 1169.49zm7.13 6l523.08-568-2.34-2L82.89 1175.5zm7.13 6l523.07-567.94-2.34-2L90.06 1181.5zm7.13 6l523.08-567.94-2.34-2-523.12 568.38zm7.13 6l523.11-568.35-2.34-2-523.15 568.79zm7.13 6l523.06-567.93-2.34-2-523.1 568.38zm7.13 6l523.12-568.35-2.34-2-523.16 568.8zm7.13 6l523.12-568.35-2.34-2-523.16 568.81zm7.13 6l523.07-567.91-2.34-2-523.12 568.37zm7.13 6l523.12-568.35-2.34-2L140 1223.54zm7.13 6l523.11-568.35-2.34-2-523.15 568.82zm7.13 6l523.11-568.35-2.34-2-523.16 568.83zm7.13 6l523.15-568.35-2.34-2-523.2 568.83zm7.12 6L694 680.72l-2.34-2-523.17 568.84zm7.13 6L701.1 686.73l-2.34-2-523.15 568.83zm7.13 6l523.12-568.35-2.34-2-523.15 568.85zm7.13 6l523.11-568.35-2.34-2-523.13 568.85zm7.13 6L722.5 704.72l-2.34-2L197 1271.58zm7.13 6l523.08-567.86-2.34-2-523.12 568.37zm7.13 6l523.12-568.34-2.34-2-523.16 568.86zm7.13 6l523.12-567.85-2.34-2-523.16 568.37zm7.13 6L751 728.72l-2.34-2-523.14 568.87z"/></g></svg>