<svg xmlns="http://www.w3.org/2000/svg" xmlns:xlink="http://www.w3.org/1999/xlink" viewBox="0 0 1920 1500"><defs><path id="a" d="M0 349h1920v338.7H0z"/></defs><clipPath id="b"><use xlink:href="#a" overflow="visible"/></clipPath><g clip-path="url(#b)"><path fill="#78CDF4" d="M0 429.9l2589 115.9-9 141.9H0z"/><defs><path id="c" d="M1069 478l1511 70.8-90-285z"/></defs><clipPath id="d"><use xlink:href="#c" overflow="visible"/></clipPath><g clip-path="url(#d)" fill="#6EC4E9"><path d="M783 467.1L1306.8-99l2.3 2-523.8 566.1zM792.5 475l523.7-566.1-2.3-1.9-523.8 566.1zM799.6 481l523.8-566.1-2.4-1.9-523.8 566.1zM806.7 487l523.8-566.1-2.3-2L804.4 485zM813.9 493l523.8-566.1-2.4-2L811.5 491zM821 499l523.8-566.1-2.4-2L818.7 497zM828.1 504.9l523.8-566-2.3-2L825.8 503zM835.3 510.9l523.8-566.1-2.4-1.9L832.9 509zM842.4 516.9l523.8-566.1-2.3-2-523.8 566.1zM849.6 522.9l523.7-566.1-2.3-2-523.8 566.1zM856.7 528.9l523.8-566.1-2.4-2-523.7 566.1zM863.8 534.8l523.8-566-2.3-2-523.8 566.1zM871 540.8l523.8-566.1-2.4-1.9-523.8 566.1zM878.1 546.8l523.8-566.1-2.3-1.9-523.8 566zM885.3 552.8L1409-13.3l-2.3-2-523.8 566.1zM892.4 558.8L1416.2-7.3l-2.4-2-523.7 566.1zM899.5 564.8L1423.3-1.3l-2.3-2-523.8 566.1zM906.7 570.7L1430.5 4.6l-2.4-1.9-523.8 566.1zM913.8 576.7l523.8-566.1-2.4-1.9-523.7 566.1zM920.9 582.7l523.8-566.1-2.3-2-523.8 566.1zM928.1 588.7l523.8-566.1-2.4-2-523.8 566.1zM1037.2 484.7L1561-81.4l-2.3-2-523.8 566.1zM1044.4 490.6l523.7-566.1-2.3-1.9L1042 488.7zM1051.5 496.6l523.8-566.1-2.4-1.9-523.7 566.1zM1058.6 502.6l523.8-566.1-2.3-2-523.8 566.1zM1065.8 508.6l523.8-566.1-2.4-2-523.8 566.1zM1072.9 514.6l523.8-566.1-2.3-2-523.8 566.1zM1080.1 520.5l523.7-566-2.3-2-523.8 566.1zM1087.2 526.5L1611-39.6l-2.4-1.9-523.7 566.1zM1094.3 532.5l523.8-566.1-2.3-2L1092 530.5zM1101.5 538.5l523.8-566.1-2.4-2-523.8 566.1zM1108.6 544.5l523.8-566.1-2.4-2-523.7 566.1zM1115.7 550.4l523.8-566-2.3-2-523.8 566.1zM1122.9 556.4L1646.7-9.7l-2.4-1.9-523.8 566.1zM1130 562.4L1653.8-3.7l-2.3-1.9-523.8 566zM1137.2 568.4L1661 2.3l-2.4-2-523.8 566.1zM1144.3 574.4L1668.1 8.3l-2.4-2L1142 572.4zM1151.4 580.4l523.8-566.1-2.3-2-523.8 566.1zM1158.6 586.3l523.8-566.1-2.4-1.9-523.8 566.1zM1165.7 592.3l523.8-566.1-2.3-1.9-523.8 566.1zM1172.9 598.3l523.7-566.1-2.3-2-523.8 566.1zM1180 604.3l523.8-566.1-2.4-2-523.7 566.1zM1187.1 610.3l523.8-566.1-2.3-2-523.8 566.1zM1194.3 616.2l523.8-566.1-2.4-1.9-523.8 566.1zM1201.4 622.2l523.8-566.1-2.3-1.9-523.8 566.1zM1208.6 628.2l523.7-566.1-2.3-2-523.8 566.1zM1215.7 634.2l523.8-566.1-2.4-2-523.8 566.1zM1222.8 640.2l523.8-566.1-2.3-2-523.8 566.1zM1230 646.1L1753.8 80l-2.4-1.9-523.8 566.1zM1237.1 652.1L1760.9 86l-2.4-1.9-523.7 566.1zM1244.2 658.1L1768 92l-2.3-2-523.8 566.1zM1251.4 664.1L1775.2 98l-2.4-2L1249 662.1zM1258.5 670.1L1782.3 104l-2.3-2-523.8 566.1zM1265.7 676l523.7-566-2.3-2-523.8 566.1zM1272.8 682l523.8-566.1-2.4-1.9-523.7 566.1z"/></g><g clip-path="url(#d)" fill="#6EC4E9"><path d="M1280 688l523.7-566.1-2.3-1.9-523.8 566.1zM1287.1 694l523.8-566.1-2.4-2L1284.8 692zM1294.2 700L1818 133.9l-2.3-2L1291.9 698zM1301.4 706l523.8-566.1-2.4-2L1299 704zM1308.5 711.9l523.8-566-2.4-2L1306.2 710zM1315.6 717.9l523.8-566.1-2.3-1.9L1313.3 716zM1322.8 723.9l523.8-566.1-2.4-2-523.8 566.1zM1329.9 729.9l523.8-566.1-2.3-2-523.8 566.1zM1337.1 735.9l523.8-566.1-2.4-2-523.8 566.1zM1344.2 741.8l523.8-566-2.4-2-523.7 566.1zM1351.3 747.8l523.8-566.1-2.3-1.9L1349 745.9zM1358.5 753.8l523.8-566.1-2.4-1.9-523.8 566zM1365.6 759.8l523.8-566.1-2.3-2-523.8 566.1zM1372.8 765.8l523.7-566.1-2.3-2-523.8 566.1zM1379.9 771.8l523.8-566.1-2.4-2-523.7 566.1zM1387 777.7l523.8-566.1-2.3-1.9-523.8 566.1zM1394.2 783.7L1918 217.6l-2.4-1.9-523.8 566.1zM1401.3 789.7l523.8-566.1-2.3-2L1399 787.7zM1408.4 795.7l523.8-566.1-2.3-2-523.8 566.1zM1415.6 801.7l523.8-566.1-2.4-2-523.8 566.1zM1422.7 807.6l523.8-566.1-2.3-1.9-523.8 566.1zM1429.9 813.6l523.7-566.1-2.3-1.9-523.8 566.1zM1437 819.6l523.8-566.1-2.4-2-523.7 566.1zM1444.1 825.6l523.8-566.1-2.3-2-523.8 566.1zM1451.3 831.6l523.8-566.1-2.4-2-523.8 566.1zM1458.4 837.5l523.8-566-2.3-2-523.8 566.1zM1465.6 843.5l523.7-566.1-2.3-1.9-523.8 566.1zM1472.7 849.5l523.8-566.1-2.4-2-523.7 566.1zM1479.8 855.5l523.8-566.1-2.3-2-523.8 566.1zM1487 861.5l523.8-566.1-2.4-2-523.8 566.1zM1494.1 867.5l523.8-566.1-2.3-2-523.8 566.1zM1501.2 873.4L2025 307.3l-2.3-1.9-523.8 566.1zM1508.4 879.4l523.8-566.1-2.4-1.9-523.8 566zM1515.5 885.4l523.8-566.1-2.3-2-523.8 566.1zM1522.7 891.4l523.8-566.1-2.4-2-523.8 566.1zM1529.8 897.4l523.8-566.1-2.4-2-523.7 566.1zM1536.9 903.3l523.8-566.1-2.3-1.9-523.8 566.1zM1544.1 909.3l523.8-566.1-2.4-1.9-523.8 566.1zM1551.2 915.3L2075 349.2l-2.3-2-523.8 566.1zM1558.4 921.3l523.7-566.1-2.3-2L1556 919.3zM1565.5 927.3l523.8-566.1-2.4-2-523.7 566.1zM1572.6 933.2l523.8-566.1-2.3-1.9-523.8 566.1zM1579.8 939.2l523.8-566.1-2.4-1.9-523.8 566.1zM1586.9 945.2l523.8-566.1-2.3-2-523.8 566.1zM1594.1 951.2l523.7-566.1-2.3-2-523.8 566.1zM1601.2 957.2L2125 391.1l-2.4-2-523.8 566.1zM1608.3 963.1l523.8-566-2.3-2L1606 961.2zM1615.5 969.1L2139.3 403l-2.4-1.9-523.8 566.1zM1622.6 975.1L2146.4 409l-2.4-2-523.7 566.1zM1629.7 981.1L2153.5 415l-2.3-2-523.8 566.1zM1636.9 987.1L2160.7 421l-2.4-2-523.8 566.1zM1644 993l523.8-566-2.3-2-523.8 566.1zM1651.2 999l523.7-566.1-2.3-1.9-523.8 566.1zM1658.3 1005l523.8-566.1-2.4-1.9-523.7 566z"/></g><g clip-path="url(#d)" fill="#6EC4E9"><path d="M1648 688l523.7-566.1-2.3-1.9-523.8 566.1zM1655.1 694l523.8-566.1-2.4-2L1652.8 692zM1662.2 700L2186 133.9l-2.3-2L1659.9 698zM1669.4 706l523.8-566.1-2.4-2L1667 704zM1676.5 711.9l523.8-566-2.4-2L1674.2 710zM1683.6 717.9l523.8-566.1-2.3-1.9L1681.3 716zM1690.8 723.9l523.8-566.1-2.4-2-523.8 566.1zM1697.9 729.9l523.8-566.1-2.3-2-523.8 566.1zM1705.1 735.9l523.8-566.1-2.4-2-523.8 566.1zM1712.2 741.8l523.8-566-2.4-2-523.7 566.1zM1719.3 747.8l523.8-566.1-2.3-1.9L1717 745.9zM1726.5 753.8l523.8-566.1-2.4-1.9-523.8 566zM1733.6 759.8l523.8-566.1-2.3-2-523.8 566.1zM1740.8 765.8l523.7-566.1-2.3-2-523.8 566.1zM1747.9 771.8l523.8-566.1-2.4-2-523.7 566.1zM1755 777.7l523.8-566.1-2.3-1.9-523.8 566.1zM1762.2 783.7L2286 217.6l-2.4-1.9-523.8 566.1zM1769.3 789.7l523.8-566.1-2.3-2L1767 787.7zM1776.4 795.7l523.8-566.1-2.3-2-523.8 566.1zM1783.6 801.7l523.8-566.1-2.4-2-523.8 566.1zM1790.7 807.6l523.8-566.1-2.3-1.9-523.8 566.1zM1797.9 813.6l523.7-566.1-2.3-1.9-523.8 566.1zM1805 819.6l523.8-566.1-2.4-2-523.7 566.1zM1812.1 825.6l523.8-566.1-2.3-2-523.8 566.1zM1819.3 831.6l523.8-566.1-2.4-2-523.8 566.1zM1826.4 837.5l523.8-566-2.3-2-523.8 566.1zM1833.6 843.5l523.7-566.1-2.3-1.9-523.8 566.1zM1840.7 849.5l523.8-566.1-2.4-2-523.7 566.1zM1847.8 855.5l523.8-566.1-2.3-2-523.8 566.1zM1855 861.5l523.8-566.1-2.4-2-523.8 566.1zM1862.1 867.5l523.8-566.1-2.3-2-523.8 566.1zM1869.2 873.4L2393 307.3l-2.3-1.9-523.8 566.1zM1876.4 879.4l523.8-566.1-2.4-1.9-523.8 566zM1883.5 885.4l523.8-566.1-2.3-2-523.8 566.1zM1890.7 891.4l523.8-566.1-2.4-2-523.8 566.1zM1897.8 897.4l523.8-566.1-2.4-2-523.7 566.1zM1904.9 903.3l523.8-566.1-2.3-1.9-523.8 566.1zM1912.1 909.3l523.8-566.1-2.4-1.9-523.8 566.1zM1919.2 915.3L2443 349.2l-2.3-2-523.8 566.1zM1926.4 921.3l523.7-566.1-2.3-2L1924 919.3zM1933.5 927.3l523.8-566.1-2.4-2-523.7 566.1zM1940.6 933.2l523.8-566.1-2.3-1.9-523.8 566.1zM1947.8 939.2l523.8-566.1-2.4-1.9-523.8 566.1zM1954.9 945.2l523.8-566.1-2.3-2-523.8 566.1zM1962.1 951.2l523.7-566.1-2.3-2-523.8 566.1zM1969.2 957.2L2493 391.1l-2.4-2-523.8 566.1zM1976.3 963.1l523.8-566-2.3-2L1974 961.2zM1983.5 969.1L2507.3 403l-2.4-1.9-523.8 566.1zM1990.6 975.1L2514.4 409l-2.4-2-523.7 566.1zM1997.7 981.1L2521.5 415l-2.3-2-523.8 566.1zM2004.9 987.1L2528.7 421l-2.4-2-523.8 566.1zM2012 993l523.8-566-2.3-2-523.8 566.1zM2019.2 999l523.7-566.1-2.3-1.9-523.8 566.1zM2026.3 1005l523.8-566.1-2.4-1.9-523.7 566z"/></g><g><defs><path id="e" d="M-249.3 683.8L1065 477-.1 430.1z"/></defs><clipPath id="f"><use xlink:href="#e" overflow="visible"/></clipPath><path clip-path="url(#f)" fill="#0E7DC2" d="M-135.4 578L454.9-19.6l2.5 1.9-590.3 597.6-2.5-1.9zm10 7.7L464.9-11.9l-2.5-1.9-590.2 597.6 2.4 1.9zm7.5 5.9L472.4-6l-2.5-2-590.2 597.6 2.4 2zm7.6 5.8L479.9-.2l-2.5-1.9-590.3 597.6 2.6 1.9zm7.5 5.8L487.4 5.6 485 3.7l-590.3 597.6 2.5 1.9zm7.5 5.9L495 11.5l-2.5-1.9-590.3 597.5 2.5 2zm7.5 5.8L502.5 17.3l-2.5-1.9L-90.2 613l2.4 1.9zm7.6 5.8L510 23.1l-2.5-1.9-590.2 597.6 2.5 1.9zm7.5 5.9L517.5 29l-2.5-1.9-590.2 597.5 2.5 2zm7.5 5.8L525.1 34.8l-2.5-1.9-590.3 597.6 2.5 1.9zm7.5 5.8L532.6 40.6l-2.5-1.9-590.2 597.6 2.4 1.9zm7.6 5.9L540.1 46.5l-2.5-1.9-590.2 597.5 2.5 2zm7.5 5.8L547.6 52.3l-2.5-1.9L-45.1 648l2.5 1.9zm7.5 5.8L555.1 58.1l-2.5-1.9-590.2 597.6 2.5 1.9zm7.5 5.9L562.7 64l-2.5-1.9-590.3 597.5 2.5 2zm7.5 5.8L570.2 69.8l-2.5-1.9-590.2 597.6 2.4 1.9zm7.6 5.8L577.7 75.6l-2.5-1.9L-15 671.3l2.5 1.9zm7.5 5.9L585.2 81.5l-2.5-1.9L-7.5 677.1l2.5 2zm7.5 5.8L592.8 87.3l-2.5-1.9L0 683l2.5 1.9zm7.5 5.8L600.3 93.1l-2.5-1.9L7.6 688.8l2.4 1.9zm7.6 5.9L607.8 99l-2.5-1.9L15.1 694.6l2.5 2zm7.5 5.8l590.2-597.6-2.5-1.9L22.6 700.5l2.5 1.9zm7.5 5.8l590.3-597.6-2.5-1.9L30.1 706.3l2.5 1.9zm7.5 5.9l590.2-597.6-2.5-1.9L37.7 712.1l2.4 2zm7.5 5.8l590.2-597.6-2.5-1.9L45.2 718l2.4 1.9zm7.6 5.8l590.2-597.6-2.5-1.9L52.7 723.8l2.5 1.9zm7.5 5.9L652.9 134l-2.5-1.9L60.2 729.6l2.5 2zm7.5 5.8l590.3-597.6-2.5-1.9L67.7 735.5l2.5 1.9zm7.5 5.8L668 145.6l-2.5-1.9L75.3 741.3l2.4 1.9zm7.6 5.9l590.2-597.6-2.5-1.9L82.8 747.1l2.5 2zm7.5 5.8L683 157.3l-2.5-1.9L90.3 753l2.5 1.9zm7.5 5.8l590.3-597.6-2.5-1.9L97.8 758.8l2.5 1.9zm7.5 5.9L698.1 169l-2.5-1.9-590.2 597.5 2.4 2zm7.5 5.8l590.2-597.6-2.5-1.9-590.1 597.6 2.4 1.9zm7.6 5.8l590.2-597.6-2.5-1.9-590.2 597.6 2.5 1.9zm7.5 5.9l590.2-597.6-2.5-1.9-590.2 597.5 2.5 2zm7.5 5.8l590.3-597.6-2.5-1.9L135.4 788l2.5 1.9zm7.5 5.8l590.2-597.6-2.5-1.9L143 793.8l2.4 1.9zm7.6 5.9L743.2 204l-2.5-1.9-590.2 597.6 2.5 1.9zm7.5 5.8l590.3-597.6-2.5-1.9L158 805.5l2.5 1.9zm7.5 5.8l590.2-597.6-2.5-1.9-590.2 597.6 2.5 1.9zm7.5 5.9l590.2-597.6-2.5-1.9-590.1 597.6 2.4 1.9zm7.5 5.8l590.3-597.6-2.5-1.9L180.6 823l2.4 1.9zm7.6 5.8l590.2-597.6-2.5-1.9-590.2 597.6 2.5 1.9zm7.5 5.9L788.3 239l-2.5-1.9-590.2 597.6 2.5 1.9zm7.5 5.8l590.2-597.6-2.5-1.9-590.2 597.6 2.5 1.9zm7.5 5.8l590.3-597.6-2.5-1.9-590.2 597.6 2.4 1.9zm7.6 5.9L811 256.5l-2.5-1.9-590.3 597.5 2.5 2zm7.5 5.8l590.2-597.6-2.5-1.9L225.7 858l2.5 1.9zm7.5 5.8L826 268.1l-2.5-1.9-590.3 597.6 2.5 1.9zm7.5 5.9L833.5 274l-2.5-1.9-590.2 597.6 2.4 1.9zm7.6 5.8L841 279.8l-2.5-1.9-590.2 597.6 2.5 1.9zm7.5 5.8l590.3-597.6-2.5-1.9-590.3 597.6 2.5 1.9zm7.5 5.9L856 291.5l-2.5-1.9-590.2 597.6 2.5 1.9zm7.5 5.8l590.2-597.6-2.5-1.9L270.8 893l2.5 1.9zm7.6 5.8l590.2-597.6-2.5-1.9-590.2 597.6 2.5 1.9zm7.5 5.9L878.6 309l-2.5-1.9-590.2 597.6 2.5 1.9zm7.5 5.8l590.3-597.6-2.5-1.9-590.3 597.6 2.5 1.9zm7.5 5.8l590.2-597.6-2.5-1.9L301 916.3l2.4 1.9zm7.6 5.9l590.2-597.6-2.5-1.9-590.2 597.6 2.5 1.9zm7.5 5.8l590.3-597.6-2.5-1.9L316 928l2.5 1.9zm7.5 5.8l590.3-597.6-2.5-1.9-590.3 597.6 2.5 1.9zm7.5 5.9L923.8 344l-2.5-1.9L331 939.7l2.5 1.9zm7.5 5.8l590.3-597.6-2.5-1.9-590.2 597.6 2.4 1.9zm7.6 5.8l590.2-597.6-2.5-1.9-590.2 597.6 2.5 1.9zm7.5 5.9l590.2-597.6-2.5-1.9-590.2 597.6 2.5 1.9zm7.5 5.8l590.2-597.6-2.5-1.9L361.1 963l2.5 1.9zm7.5 5.8l590.2-597.6-2.5-1.9-590.1 597.6 2.4 1.9zm7.5 5.9L968.9 379l-2.5-1.9-590.2 597.6 2.4 1.9zm7.6 5.8l590.3-597.6-2.5-1.9-590.3 597.6 2.5 1.9zm7.5 5.8l590.2-597.6-2.5-1.9-590.2 597.6 2.5 1.9zm7.5 5.9l590.2-597.6-2.5-1.9-590.1 597.6 2.4 1.9zm7.5 5.8L999 402.3l-2.5-1.9L406.3 998l2.4 1.9zm7.6 5.8l590.3-597.6-2.5-1.9-590.2 597.6 2.4 1.9zm7.5 5.9L1014 414l-2.5-1.9-590.2 597.6 2.5 1.9zm7.5 5.8l590.2-597.6-2.5-1.9-590.2 597.6 2.5 1.9zm7.5 5.8L1029 425.6l-2.5-1.9-590.2 597.6 2.5 1.9zm7.6 5.9l590.2-597.6-2.5-1.9-590.3 597.6 2.6 1.9zm7.5 5.8l590.2-597.6-2.5-1.9L451.4 1033l2.5 1.9zm7.5 5.8l590.2-597.6-2.5-1.9-590.2 597.6 2.5 1.9zm7.5 5.9L1059.2 449l-2.5-1.9-590.2 597.6 2.4 1.9zm7.5 5.8l590.2-597.6-2.5-1.9L474 1050.5l2.4 1.9zm7.6 5.8l590.3-597.6-2.5-1.9-590.2 597.6 2.4 1.9zm7.5 5.9l590.2-597.6-2.5-1.9L489 1062.2l2.5 1.9zm7.5 5.8l590.2-597.6-2.5-1.9L496.5 1068l2.5 1.9zm7.5 5.9l590.2-597.6-2.5-1.9L504 1073.9l2.5 1.9zm7.6 5.8L1104.3 484l-2.5-1.9-590.2 597.6 2.5 1.9zm7.5 5.8l590.2-597.6-2.5-1.9-590.2 597.6 2.5 1.9zm7.5 5.9l590.2-597.6-2.5-1.9-590.2 597.6 2.5 1.9zm7.5 5.8l590.2-597.6-2.5-1.9-590.2 597.6 2.5 1.9zm7.5 5.8l590.2-597.6-2.5-1.9L541.7 1103l2.4 1.9zm7.6 5.9l590.2-597.6-2.5-1.9-590.3 597.6 2.6 1.9zm7.5 5.8L1149.4 519l-2.5-1.9-590.2 597.6 2.5 1.9zm7.5 5.8L1157 524.8l-2.5-1.9-590.2 597.6 2.4 1.9zm7.5 5.9l590.2-597.6-2.5-1.9-590.2 597.6 2.5 1.9zm7.6 5.8L1172 536.5l-2.5-1.9-590.3 597.6 2.6 1.9zm7.5 5.8l590.2-597.6-2.5-1.9L586.8 1138l2.5 1.9zm7.5 5.9L1187 548.2l-2.5-1.9-590.3 597.6 2.6 1.9zm7.5 5.8L1194.6 554l-2.5-1.9-590.3 597.6 2.5 1.9zm7.6 5.8l590.2-597.6-2.5-1.9-590.2 597.6 2.5 1.9zm7.5 5.9l590.2-597.6-2.5-1.9-590.2 597.6 2.5 1.9zm7.5 5.8l590.2-597.6-2.5-1.9-590.2 597.6 2.5 1.9zm7.5 5.8l590.2-597.6-2.5-1.9L632 1173l2.4 1.9zm7.5 5.9l590.2-597.6-2.5-1.9-590.2 597.6 2.5 1.9zm7.6 5.8L1239.7 589l-2.5-1.9L647 1184.7l2.5 1.9zm7.5 5.8l590.3-597.6-2.5-1.9-590.2 597.6 2.4 1.9zm7.5 5.9l590.2-597.6-2.5-1.9L662 1196.3l2.5 2zm7.5 5.8l590.2-597.6-2.5-1.9-590.2 597.6 2.5 1.9zm7.6 5.8l590.2-597.6-2.5-1.9L677.1 1208l2.5 1.9z"/></g></g></svg>