<svg xmlns="http://www.w3.org/2000/svg" viewBox="0 0 26.5 19.64"><defs><style>.cls-1{fill:#c9e6f9}</style></defs><title>news-photo</title><g id="Слой_2" data-name="Слой 2"><g id="Слой_1-2" data-name="Слой 1"><path class="cls-1" d="M13.25 7.36A3.65 3.65 0 1 0 16.9 11a3.65 3.65 0 0 0-3.65-3.64z"/><path class="cls-1" d="M24.58 2.81h-6.82l-.48-2a.82.82 0 0 0-.77-.81h-6.14a.82.82 0 0 0-.77.83l-.48 2h-7.2A1.73 1.73 0 0 0 0 4.48v13.06a2.09 2.09 0 0 0 1.92 2.1h22.66a2.08 2.08 0 0 0 1.92-2.1V4.48a1.73 1.73 0 0 0-1.92-1.67zM13.25 17a6 6 0 1 1 6-6 6 6 0 0 1-6 6z"/></g></g></svg>