<svg id="Layer_1" data-name="Layer 1" xmlns="http://www.w3.org/2000/svg" viewBox="0 0 1200 569.75"><defs><style>.cls-1{fill:none}.cls-2{clip-path:url(#clip-path)}.cls-3{fill:#6ec4e9}.cls-4{clip-path:url(#clip-path-2)}.cls-5{fill:#fff}.cls-6{clip-path:url(#clip-path-3)}</style><clipPath id="clip-path"><path class="cls-1" d="M565.57 80.75H1200V0L565.57 80.75z"/></clipPath><clipPath id="clip-path-2"><path class="cls-1" d="M671.41 549.28L1200 569.75v-489H565.57l105.84 468.53z"/></clipPath><clipPath id="clip-path-3"><path class="cls-1" d="M-.87 152.64l566.44-71.91L0 80.75l-.87 71.89z"/></clipPath></defs><title>objects-Background-hatching</title><g class="cls-2"><path class="cls-3" d="M389.72 174.93l523.79-566.09 2.34 2-523.79 566.05zm9.48 7.94L923-383.22l-2.34-2-523.8 566.13zm7.14 6l523.79-566.11-2.35-2L404 186.89zm7.14 6l523.78-566.13-2.34-2-523.79 566.13zm7.14 6L944.4-365.28l-2.34-2-523.79 566.13zm7.14 6l523.78-566.16-2.35-2-523.78 566.12zm7.14 6l523.78-566.18-2.34-2-523.79 566.12zm7.14 6l523.78-566.2-2.35-2L439.69 216.8zm7.13 6L973-341.35l-2.34-2-523.83 566.13zm7.14 6L980.1-335.37l-2.34-2L454 228.76zm7.13 6l523.79-566.26-2.34-2-523.78 566.13zm7.14 6l523.79-566.28-2.34-2-523.78 566.13zm7.14 6l523.79-566.09-2.34-2L475.38 246.7zm7.13 6l523.79-566.09-2.35-2-523.77 565.9zm7.14 6l523.79-566.09-2.35-2-523.77 565.88zm7.14 6l523.78-566.09-2.34-2L496.8 264.64zm7.14 6l523.78-566.09-2.34-2-523.77 565.84zm7.14 6l523.79-566.4-2.34-2L511.08 276.6zm7.14 6l523.79-566.09-2.35-2-523.77 565.81zm7.14 6l523.79-566.09-2.34-2-523.79 565.78zm7.14 6l523.78-566.09-2.34-2-523.78 565.77zm7.14 6l523.79-566.47-2.34-2-523.79 566.13zm7.13 6l523.8-566.49-2.35-2-523.78 566.13zm7.14 6L1080-251.64l-2.34-2-523.75 566.13zm7.14 6l523.79-566.09-2.34-2L561 318.47zm7.14 6l523.79-566.09-2.35-2-523.77 565.67zm7.14 6l523.8-566.57-2.35-2-523.78 566.13zm7.14 6l523.79-566.09-2.35-2-523.78 565.63zm7.14 6l523.78-566.09-2.34-2L589.6 342.4zm7.14 6l523.79-566.09-2.34-2-523.79 565.59zm7.14 6L1130-209.77l-2.35-2-523.77 566.13zm7.14 6l523.79-566.09-2.35-2L611 360.34zm7.14 6l523.79-566.09-2.35-2-523.78 565.54zm7.14 6l523.79-566.09-2.34-2-523.8 565.52zm7.14 6l523.78-566.09-2.34-2-523.79 565.5zm7.14 6l523.78-566.74-2.35-2-523.78 566.13zm7.14 6l523.79-566.09-2.34-2-523.8 565.46zm7.14 6L1180-167.9l-2.34-2-523.81 566.12zm7.13 6l523.79-566.09-2.34-2L661 402.21zm7.14 6l523.79-566.09-2.34-2-523.79 565.41zm7.14 6L1201.39-150l-2.34-2-523.78 566.17zm7.14 6L1208.53-144l-2.34-2-523.78 566.15zm7.13 6L1215.67-138l-2.34-2-523.79 566.13zm7.14 6L1222.81-132l-2.34-2-523.79 566.11zm7.14 6L1229.95-126l-2.34-2-523.79 566.09zm7.14 6l523.79-566.09-2.35-2L711 444.07zm7.13 6l523.79-566.09-2.35-2L718.09 450zm7.14 6l523.79-567-2.34-2L725.23 456zm7.15 6l523.78-567-2.34-2L732.38 462zm7.14 6l523.78-567-2.34-2L739.51 468zm7.14 6l523.78-567-2.34-2L746.65 474zm7.14 6l523.78-567-2.35-2L753.79 480zm7.14 6l523.78-567.06-2.35-2-523.78 566.13zm7.14 6l523.78-566.1-2.34-2-523.79 565.15zm7.14 6l523.78-567.1-2.35-2L775.2 497.9zm7.15 6l523.78-567.11-2.34-2-523.79 566.13zm7.14 6l523.78-567.12-2.34-2L789.5 509.88zm7.14 6l523.78-567.14-2.34-2-523.79 566.13zm7.14 6L1329.9-42.29l-2.34-2-523.78 566.13zm7.14 6L1337-36.31l-2.35-2-523.73 566.13zm7.14 6l523.77-567.2-2.34-2L818 533.8zm7.14 6l523.77-567.22-2.35-2-523.78 566.13zm7.14 6l523.77-567.24-2.34-2-523.79 566.13zm7.14 6L1365.6-12.39l-2.35-2-523.78 566.13zm7.14 6L1372.73-6.41l-2.34-2-523.78 566.13zm7.14 6L1379.87-.43l-2.34-2L853.75 563.7zm7.14 6L1387 5.55l-2.34-2-523.78 566.13zm7.14 6l523.78-566.1-2.34-2L868 575.66zm7.14 6l523.76-567.35-2.35-2-523.78 566.12zm7.14 6L1408.43 23.5l-2.34-2L882.3 587.63zm7.14 6l523.76-567.39-2.34-2L889.44 593.6zm7.14 6L1422.7 35.46l-2.34-2-523.78 566.13zm7.14 6l523.75-567.43-2.34-2-523.79 566.13zm7.13 6L1437 47.42l-2.34-2-523.81 566.13zm7.14 6L1444.12 53.4l-2.34-2L918 617.53zm7.14 6l523.76-567.49-2.34-2-523.79 566.13zm7.14 6l523.75-567.51-2.34-2-523.78 566.13zm7.14 6l523.76-567.53-2.34-2-523.79 566.13zm7.14 6l523.75-567.55-2.34-2-523.79 566.13zm7.14 6l523.76-567.56-2.35-2-523.79 566.12zm7.14 6L1487 89.29l-2.35-2-523.83 566.13zm7.14 6l523.75-567.6-2.34-2L968 659.4zm7.13 6l523.79-566.09-2.34-2-523.82 564.6zm7.14 6l523.79-566.09-2.34-2-523.82 564.58zm7.14 6l523.79-566.09-2.34-2-523.82 564.56zm7.14 6l523.79-566.09-2.34-2-523.82 564.54zm7.14 6l523.79-566.09-2.34-2-523.82 564.52zm7.14 6L1537 132.78l-2.34-2-523.83 564.5zm7.14 6l523.79-566.09-2.35-2-523.82 564.48zm7.13 6l523.76-567.75-2.34-2-523.79 566.12zm7.14 6l523.76-567.77-2.35-2-523.78 566.13zm7.14 6l523.78-566.09-2.34-2-523.81 564.43zm7.14 6l523.79-566.09-2.34-2-523.82 564.41zm7.14 6L1579.76 167l-2.34-2-523.79 566.17zm7.14 6L1586.89 173l-2.34-2-523.79 566.15zm7.14 6L1594 179l-2.34-2-523.76 566.13zm7.14 6L1601.17 185l-2.34-2L1075 749.12zm7.14 6L1608.31 191l-2.34-2-523.79 566.09zm7.14 6l523.79-566.09-2.34-2-523.83 564.29zm7.14 6l523.78-566.09-2.34-2L1096.46 767zm7.13 6l523.79-566.09-2.35-2L1103.6 773zm7.14 6l523.79-566.09-2.35-2L1110.74 779zm7.14 6l523.75-568-2.34-2L1117.88 785zm7.14 6l523.78-566.1-2.34-2L1125 791zm7.14 6l523.79-566.09-2.35-2L1132.15 797zm7.14 6l523.79-566.09-2.35-2-523.78 566.1zm7.14 6l523.79-566.09-2.34-2-523.83 564.14zm7.14 6l523.75-568.09-2.34-2-523.79 566.12zm7.14 6l523.78-566.09-2.34-2-523.82 564.1z"/></g><g class="cls-4"><path class="cls-5" d="M239.68 232.69L763.46-333.4l2.34 2L242 234.66zm9.48 7.95l523.78-566.09-2.34-2-523.78 566.13zm7.14 6l523.78-566.11-2.35-2L254 244.66zm7.14 6l523.78-566.13-2.34-2-523.79 566.12zm7.14 6l523.78-566.15-2.34-2-523.79 566.13zm7.14 6L801.5-301.53l-2.35-2L275.36 262.6zm7.14 6l523.78-566.19-2.34-2-523.8 566.13zm7.14 6l523.77-566.21-2.35-2-523.78 566.13zm7.13 6l523.78-566.23-2.34-2-523.79 566.13zm7.14 6L830-277.61l-2.34-2-523.74 566.13zm7.13 6l523.79-566.27-2.34-2L311.06 292.5zm7.14 6l523.79-566.29-2.34-2L318.2 298.48zm7.14 6l523.78-566.31-2.34-2-523.78 566.13zm7.13 6l523.8-566.32-2.35-2-523.79 566.12zm7.14 6L865.74-247.7l-2.35-2-523.78 566.12zm7.14 6l523.79-566.36-2.34-2-523.79 566.13zm7.14 6L880-235.74l-2.34-2-523.77 566.13zm7.14 6l523.78-566.4-2.34-2L361 334.37zm7.14 6L894.3-223.78l-2.35-2-523.78 566.13zm7.14 6L901.44-217.8l-2.34-2-523.8 566.13zm7.14 6l523.78-566.46-2.34-2-523.79 566.13zm7.14 6l523.78-566.48-2.34-2-523.78 566.13zm7.13 6l523.79-566.5-2.35-2-523.78 566.14zm7.14 6L930-193.87l-2.34-2-523.8 566.13zm7.14 6l523.79-566.53-2.34-2L411 376.23zm7.14 6l523.79-566.55-2.35-2-523.78 566.13zm7.14 6l523.79-566.57-2.35-2L425.28 388.2zm7.14 6l523.79-566.59-2.35-2-523.78 566.13zm7.14 6L965.68-164l-2.34-2-523.78 566.16zm7.14 6L972.82-158l-2.34-2-523.79 566.14zm7.14 6L980-152l-2.35-2-523.82 566.12zm7.14 6L987.1-146l-2.35-2L461 418.1zm7.14 6L994.24-140l-2.35-2-523.78 566.08zm7.14 6l523.79-566.09L999-136 475.25 430.06zm7.14 6l523.78-566.09-2.34-2L482.38 436zm7.14 6l523.77-566.74-2.35-2L489.53 442zm7.14 6l523.79-566.09-2.34-2L496.66 448zm7.14 6l523.78-566.09-2.34-2L503.8 454zm7.13 6l523.79-566.09-2.34-2L510.94 460zm7.14 6l523.78-566.82-2.34-2L518.08 466zm7.14 6L1051.35-92.2l-2.34-2-523.79 566.13zm7.14 6l523.78-566.86-2.34-2-523.79 566.13zm7.13 6l523.78-566.87-2.34-2L539.5 483.89zm7.14 6l523.78-566.89-2.34-2-523.79 566.13zm7.14 6L1079.9-68.28l-2.34-2-523.79 566.13zm7.14 6L1087-62.29l-2.35-2-523.74 566.13zm7.13 6l523.79-567-2.35-2L568 507.82zm7.14 6l523.79-567-2.34-2L575.19 513.8zm7.15 6l523.77-567-2.34-2-523.78 566.14zm7.14 6l523.77-567-2.34-2-523.79 566.12zm7.14 6l523.77-567-2.34-2-523.78 566.1zm7.14 6l523.78-567.05-2.35-2-523.79 566.13zm7.14 6L1137-20.42l-2.35-2L610.88 543.7zm7.14 6l523.78-566.1-2.34-2L618 549.68zm7.14 6l523.77-567.1-2.35-2-523.78 566.12zm7.15 6L1158.44-2.47l-2.34-2-523.79 566.13zm7.14 6L1165.58 3.51l-2.34-2-523.79 566.13zm7.14 6L1172.72 9.49l-2.34-2-523.79 566.13zm7.14 6l523.77-567.17-2.34-2L653.73 579.6zm7.14 6L1187 21.45l-2.35-2-523.78 566.13zm7.14 6l523.77-567.2-2.34-2L668 591.56zm7.14 6l523.76-567.22-2.35-2-523.77 566.12zm7.14 6L1208.41 39.4l-2.34-2-523.79 566.13zm7.14 6l523.76-567.26-2.35-2L689.42 609.5zm7.14 6l523.76-567.28-2.34-2-523.79 566.13zm7.14 6l523.76-567.3-2.34-2L703.7 621.47zm7.14 6L1237 63.32l-2.34-2-523.82 566.13zm7.14 6L1244.1 69.3l-2.34-2L718 633.43zm7.14 6l523.75-567.36-2.35-2-523.78 566.13zm7.14 6l523.75-567.38-2.34-2-523.79 566.13zm7.14 6l523.75-567.4-2.34-2-523.79 566.13zm7.14 6l523.75-567.42-2.34-2-523.79 566.13zm7.14 6L1279.79 99.2l-2.34-2-523.79 566.13zm7.13 6L1287 106.55l-2.34-2L760.8 669.31zm7.14 6l523.79-566.09-2.34-2L768 675.3zm7.14 6l523.79-566.09-2.34-2-523.83 564.73zm7.14 6l523.78-566.09-2.34-2-523.82 564.71zm7.14 6l523.79-566.09-2.34-2-523.83 564.69zm7.14 6l523.79-566.09-2.34-2L796.5 699.22zm7.14 6l523.79-566.09-2.35-2L803.64 705.2zm7.14 6L1337 148.55l-2.35-2-523.87 564.63zm7.14 6L1344 153l-2.34-2-523.74 566.16zm7.13 6L1351.19 159l-2.34-2L825 723.14zm7.14 6L1358.32 165l-2.34-2-523.79 566.13zm7.14 6L1365.46 171l-2.34-2-523.79 566.1zm7.14 6L1372.6 177l-2.34-2-523.79 566.09zm7.14 6l523.79-566.09-2.34-2-523.83 564.52zm7.14 6l523.79-566.09-2.34-2L860.75 753zm7.14 6L1394 194.9l-2.35-2L867.88 759zm7.13 6l523.79-566.09-2.34-2L875 765zm7.14 6l523.79-566.09-2.35-2L882.16 771zm7.14 6l523.78-566.09-2.34-2L889.3 777zm7.14 6l523.79-566.09-2.34-2L896.44 783zm7.14 6l523.75-567.84-2.34-2-523.78 566.14zm7.14 6l523.79-566.09-2.34-2-523.83 564.37zm7.14 6L1444 236.77l-2.34-2L917.85 800.9zm7.14 6l523.79-566.09-2.34-2L925 806.88zm7.14 6l523.78-566.09-2.34-2-523.83 564.31zm7.14 6l523.74-567.93-2.34-2-523.79 566.13zm7.14 6l523.78-566.09-2.34-2-523.83 564.27zm7.13 6l523.79-566.09-2.35-2L953.55 830.8zm7.14 6l523.79-566.09-2.35-2-523.82 564.23zm7.14 6l523.79-568-2.34-2-523.83 566.13zm7.14 6l523.78-566.1-2.34-2L975 848.75zm7.14 6l523.74-568-2.35-2L982.1 854.73zm7.14 6l523.79-566.09-2.35-2-523.83 564.16zm7.14 6l523.79-566.09-2.34-2-523.84 564.14zm7.14 6l523.79-566.09-2.34-2-523.84 564.12zm7.14 6l523.78-566.09-2.34-2-523.83 564.1z"/></g><g class="cls-6"><path class="cls-5" d="M-295.18 300.86l523.11-568.35 2.34 2-523.11 568.32zm9.47 8L237.4-259.52l-2.34-2L-288 306.86zm7.13 6l523.11-568.37-2.35-2-523.1 568.38zm7.13 6l523.11-568.37-2.34-2-523.12 568.38zm7.13 6L258.79-241.5l-2.34-2-523.12 568.38zm7.13 6L265.92-235.5l-2.34-2-523.12 568.38zm7.13 6L273-229.49l-2.34-2-523.07 568.37zm7.13 6l523.11-568.35-2.34-2-523.12 568.38zm7.12 6l523.12-568.34-2.34-2-523.12 568.38zm7.13 6l523.12-568.34-2.33-2L-231 354.9zm7.13 6l523.11-568.33-2.34-2-523.11 568.37zm7.13 6l523.11-568.33-2.34-2-523.11 568.38zm7.13 6l523.11-568.32-2.34-2-523.11 568.37zm7.13 6L323-187.46l-2.35-2-523.15 568.38zm7.13 6l523.11-568.31-2.34-2-523.12 568.37zm7.13 6l523.11-568.31-2.34-2-523.11 568.38zm7.13 6l523.11-568.31-2.34-2-523.11 568.38zm7.13 6l523.11-568.3-2.33-2L-174 402.94zm7.13 6l523.11-568.3-2.34-2-523.11 568.38zm7.13 6l523.11-568.29-2.34-2L-159.73 415zm7.13 6l523.11-568.29-2.33-2L-152.6 421zm7.13 6L380-139.42l-2.34-2L-145.46 427zm7.13 6l523.11-568.28-2.34-2L-138.33 433zm7.13 6l523.11-568.27-2.34-2L-131.21 439zm7.13 6l523.11-568.27-2.34-2L-124.08 445zm7.13 6L408.51-115.4l-2.34-2L-116.95 451zm7.13 6L415.64-109.4l-2.34-2L-109.82 457zm7.13 6l523.11-568.25-2.34-2L-102.69 463zm7.13 6L429.9-97.39l-2.34-2L-95.56 469zm7.13 6L437-91.38l-2.34-2L-88.43 475zm7.13 6L444.16-85.37l-2.35-2L-81.3 481zm7.13 6L451.29-79.37l-2.35-2L-74.17 487zm7.13 6l523.1-568.23-2.34-2L-67 493zm7.13 6l523.1-568.22-2.34-2L-59.91 499zm7.13 6l523.1-568.22-2.33-2L-52.78 505zm7.13 6L479.8-55.36l-2.34-2L-45.65 511zm7.13 6l523.1-568.21-2.34-2L-38.53 517zm7.14 6l523.09-568.2-2.34-2L-31.4 523zm7.13 6l523.09-568.2-2.34-2L-24.27 529zm7.13 6L508.32-31.33l-2.34-2L-17.13 535zm7.13 6L515.45-25.33l-2.34-2L-10 541zm7.13 6L522.58-19.33l-2.34-2L-2.87 547zm7.12 6l523.1-568.18-2.34-2L4.25 553.06zm7.13 6L536.84-7.31l-2.34-2L11.38 559.06zm7.13 6L544-1.31l-2.34-2L18.51 565.07zM28 573L551.1 4.7l-2.34-2L25.64 571.07zm7.13 6l523.1-568.3-2.34-2L32.77 577.08zm7.13 6l523.1-568.3-2.34-2L39.9 583.08zm7.14 6L572.48 22.71l-2.34-2L47 589.08zm7.13 6L579.61 28.71l-2.34-2L54.16 595.09zm7.13 6L586.75 34.72l-2.34-2L61.29 601.1zm7.13 6L593.88 40.72l-2.34-2L68.42 607.1zm7.13 6L601 46.73l-2.34-2L75.55 613.11zm7.08 6L608.13 52.73l-2.33-2L82.68 619.11zm7.13 6L615.26 58.74l-2.34-2L89.81 625.11zm7.14 6L622.41 64.75l-2.34-2L97 631.13zm7.13 6L629.54 70.76l-2.34-2-523.12 568.38zm7.13 6L636.67 76.76l-2.34-2-523.12 568.38zm7.13 6L643.8 82.77l-2.34-2-523.12 568.37zm7.13 6L650.93 88.78l-2.34-2-523.12 568.37zm7.13 6L658.06 94.78l-2.34-2L132.6 661.16zm7.13 6l523.13-568.21-2.34-2-523.11 568.37zm7.14 6l523.12-568.21-2.34-2-523.11 568.37zm7.13 6l523.13-568.21-2.34-2L154 679.17zm7.13 6l523.12-568.2-2.34-2-523.11 568.37zm7.13 6L693.7 124.8l-2.34-2-523.11 568.38zm7.13 6l523.12-568.19-2.34-2-523.11 568.37zm7.13 6L708 136.81l-2.34-2L182.5 703.19zm7.13 6l523.12-568.18-2.34-2-523.12 568.37zm7.13 6l523.12-568.18-2.34-2L196.77 715.2zm7.13 6l523.12-568.17-2.34-2L203.89 721.2zm7.13 6l523.12-568.17-2.34-2L211 727.21zm7.13 6L743.6 166.83l-2.34-2-523.11 568.38zm7.12 6l523.13-568.16-2.34-2-523.12 568.37zm7.13 6l523.12-568.16-2.34-2-523.11 568.38zm7.13 6L765 184.85l-2.34-2-523.12 568.37zm7.13 6l523.12-568.15-2.34-2-523.11 568.38zm7.13 6l523.12-568.14-2.34-2L253.8 763.23zm7.13 6l523.12-568.14-2.34-2-523.11 568.38zm7.13 6l523.12-568.13-2.34-2-523.11 568.37zm7.13 6l523.12-568.12-2.34-2-523.11 568.37zm7.13 6l523.12-568.12-2.34-2-523.11 568.38zm7.12 6L814.9 226.88l-2.34-2-523.11 568.38zm7.13 6L822 232.89l-2.34-2-523.08 568.38zm7.13 6l523.13-568.11-2.34-2L303.7 805.27zm7.13 6l523.13-568.1-2.34-2-523.11 568.38zm7.13 6l523.13-568.1-2.34-2L318 817.28zm7.13 6l523.13-568.09-2.34-2-523.12 568.37zm7.13 6l523.13-568.09-2.34-2-523.12 568.38zm7.13 6l523.13-568.08-2.34-2-523.12 568.37zm7.13 6l523.13-568.08-2.34-2L346.48 841.3zm7.13 6l523.13-568.07-2.34-2L353.61 847.3zm7.13 6L886.2 286.93l-2.34-2-523.11 568.38zm7.13 6l523.13-568.06L891 291 367.88 859.31zm7.13 6l523.13-568.06-2.34-2L375 865.32zm7.13 6l523.12-568-2.34-2-523.11 568.32zm7.13 6l523.12-568-2.34-2-523.11 568.33zm7.13 6l523.12-568-2.34-2-523.11 568.33zm7.13 6L929 323l-2.34-2-523.14 568.34zm7.13 6L936.1 329l-2.34-2-523.11 568.34zm7.12 6l523.13-568-2.34-2-523.11 568.35zm7.13 6l523.13-568-2.36-2-523.09 568.35zm7.13 6l523.13-568-2.34-2L432 913.36zm7.13 6l523.13-568-2.34-2-523.11 568.36zm7.13 6l523.13-568-2.34-2-523.12 568.37zm7.13 6l523.13-568-2.34-2-523.11 568.37zm7.13 6L986 371l-2.34-2-523.1 568.38zm7.13 6l523.13-568-2.34-2-523.11 568.38zm7.13 6l523.08-568-2.34-2-523.06 568.38z"/></g></svg>