<svg xmlns="http://www.w3.org/2000/svg" viewBox="0 0 67.79 71.36"><defs><style>.cls-1{fill:#cf0172}</style></defs><title>objects-find-map</title><g id="Слой_2" data-name="Слой 2"><path class="cls-1" d="M47.53 19.41a6.13 6.13 0 1 1 6.13-6.13 6.13 6.13 0 0 1-6.13 6.13m0 16.25s12.74-15.88 12.74-22.92a12.74 12.74 0 1 0-25.48 0c0 7 12.74 22.93 12.74 22.93M17.89 66.34L4.65 60.88V22.95l13.24 5.45zm49.9-.79v-48L63 15a26.51 26.51 0 0 1-1.66 4.34l1.81 1.32v37.95L49.9 53.16V36c-.47.62-.83 1.06-1 1.28l-1.37 1.7-1.37-1.7-.91-1.16v19l-22.72 9.3V26.49l12-4.12a36.43 36.43 0 0 1-1.91-4.24l-14.73 5.25L0 16v48l17.89 7.37 32-13.18z" id="Слой_1-2" data-name="Слой 1"/></g></svg>