<svg id="Layer_1" data-name="Layer 1" xmlns="http://www.w3.org/2000/svg" viewBox="0 0 1920 630.66"><defs><style>.cls-1{fill:none}.cls-2{clip-path:url(#clip-path)}.cls-3{fill:#6ec4e9}.cls-4{clip-path:url(#clip-path-2)}.cls-5{fill:#fff}.cls-6{clip-path:url(#clip-path-3)}</style><clipPath id="clip-path"><path class="cls-1" d="M925.57 126.57H1920V0L925.57 126.57z"/></clipPath><clipPath id="clip-path-2"><path class="cls-1" d="M1031.41 595.19L1920 630.66v-504H925.57l105.84 468.53z"/></clipPath><clipPath id="clip-path-3"><path class="cls-1" d="M-.42 244.37l925.99-117.56-924.56.04-1.43 117.52z"/></clipPath></defs><title>objects-Background-hatching-new</title><g class="cls-2"><path class="cls-3" d="M889.72 130.84l523.78-566.09 2.34 2L892.06 132.8zm9.48 7.94L1423-427.31l-2.34-2-523.8 566.13zm7.14 6l523.79-566.09-2.35-2L904 142.8zm7.14 6l523.79-566.09-2.34-2-523.8 566.09zm7.14 6l523.78-566.15-2.34-2-523.79 566.13zm7.14 6l523.79-566.09-2.35-2-523.79 566.05zm7.14 6l523.79-566.09-2.34-2-523.8 566.03zm7.14 6l523.78-566.09-2.35-2-523.78 566.02zm7.13 6L1473-385.44l-2.34-2-523.83 566.13zm7.14 6l523.78-566.1-2.34-2L954 184.67zm7.13 6l523.79-566.09-2.34-2-523.78 565.96zm7.14 6l523.79-566.28-2.34-2-523.78 566.13zm7.14 6l523.79-566.09-2.34-2-523.79 565.92zm7.13 6l523.79-566.09-2.35-2-523.77 565.9zm7.14 6l523.79-566.09-2.35-2-523.77 565.88zm7.14 6l523.78-566.09-2.34-2L996.8 220.55zm7.14 6l523.79-566.38-2.34-2-523.78 566.13zm7.14 6l523.79-566.4-2.34-2-523.78 566.13zm7.14 6l523.79-566.09-2.35-2-523.77 565.81zm7.14 6l523.79-566.09-2.34-2-523.79 565.78zm7.14 6l523.78-566.09-2.34-2-523.78 565.77zm7.14 6l523.79-566.09-2.34-2-523.79 565.75zm7.13 6l523.8-566.49-2.35-2-523.78 566.13zm7.14 6L1580-295.73l-2.34-2-523.75 566.13zm7.14 6l523.79-566.09-2.34-2L1061 274.38zm7.14 6l523.79-566.09-2.35-2-523.77 565.67zm7.14 6l523.79-566.09-2.35-2-523.77 565.65zm7.14 6l523.79-566.09-2.35-2-523.78 565.63zm7.14 6l523.78-566.09-2.34-2-523.78 565.62zm7.14 6l523.79-566.09-2.34-2-523.79 565.59zm7.14 6L1630-253.86l-2.35-2-523.77 566.13zm7.14 6l523.79-566.09-2.35-2L1111 316.25zm7.14 6l523.79-566.68-2.35-2-523.78 566.13zm7.14 6l523.79-566.09-2.34-2-523.8 565.52zm7.14 6l523.78-566.09-2.34-2-523.79 565.5zm7.14 6L1665.7-224l-2.35-2-523.78 566.17zm7.14 6L1672.84-218l-2.34-2-523.79 566.15zm7.14 6L1680-212l-2.34-2-523.81 566.13zm7.13 6L1687.12-206l-2.34-2L1161 358.11zm7.14 6L1694.26-200l-2.34-2-523.79 566.1zm7.14 6l523.78-566.09-2.34-2-523.78 565.39zm7.14 6l523.79-566.09-2.34-2-523.79 565.37zm7.13 6l523.79-566.09-2.34-2L1189.54 382zm7.14 6l523.79-566.09-2.34-2L1196.68 388zm7.14 6l523.78-566.1-2.34-2L1203.82 394zm7.14 6l523.79-566.09-2.35-2L1211 400zm7.13 6l523.79-566.09-2.35-2L1218.09 406zm7.14 6l523.79-566.09-2.34-2-523.79 565.25zm7.15 6l523.78-566.99-2.34-2-523.78 566.13zm7.14 6l523.78-566.09-2.34-2-523.79 565.21zm7.14 6l523.79-566.09-2.34-2-523.8 565.2zm7.14 6l523.79-566.09-2.35-2-523.79 565.18zm7.14 6l523.79-566.09-2.35-2-523.79 565.16zm7.14 6l523.78-566.1-2.34-2-523.79 565.15zm7.14 6l523.79-566.09-2.35-2-523.8 565.12zm7.15 6l523.79-566.09-2.34-2-523.8 565.11zm7.14 6l523.78-567.12-2.34-2-523.79 566.12zm7.14 6l523.78-567.15-2.34-2-523.79 566.14zm7.14 6L1829.9-86.38l-2.34-2-523.78 566.13zm7.14 6L1837-80.4l-2.35-2-523.73 566.13zm7.14 6l523.77-567.2-2.34-2-523.79 566.13zm7.14 6l523.77-567.22-2.35-2-523.78 566.1zm7.14 6l523.77-567.24-2.34-2-523.79 566.13zm7.14 6L1865.6-56.48l-2.35-2-523.78 566.13zm7.14 6L1872.73-50.5l-2.34-2-523.78 566.13zm7.14 6l523.76-567.3-2.34-2-523.78 566.13zm7.14 6L1887-38.54l-2.34-2-523.78 566.13zm7.14 6l523.78-566.1-2.34-2L1368 531.57zm7.14 6l523.76-567.35-2.35-2-523.78 566.12zm7.14 6l523.76-567.37-2.34-2-523.79 566.13zm7.14 6l523.76-567.39-2.34-2-523.79 566.12zm7.14 6L1922.7-8.63l-2.34-2-523.78 566.13zm7.14 6L1929.84-2.65l-2.34-2-523.79 566.13zm7.13 6L1937 3.33l-2.34-2-523.81 566.13zm7.14 6L1944.12 9.31l-2.34-2L1418 573.44zm7.14 6l523.76-567.49-2.34-2-523.79 566.13zm7.14 6l523.75-567.51-2.34-2-523.78 566.13zm7.14 6l523.76-567.53-2.34-2-523.79 566.13zm7.14 6l523.75-567.55-2.34-2-523.79 566.13zm7.14 6l523.76-567.56-2.35-2-523.79 566.12zm7.14 6L1987 45.2l-2.35-2-523.83 566.13zm7.14 6l523.75-567.6-2.34-2L1468 615.31zm7.13 6l523.76-567.62-2.34-2-523.79 566.13zm7.14 6l523.76-567.64-2.34-2-523.79 566.13zm7.14 6l523.76-567.66-2.34-2-523.79 566.13zm7.14 6L2022.64 75.1l-2.34-2-523.78 566.13zm7.14 6l523.75-567.7-2.34-2-523.78 566.13zm7.14 6l523.75-567.72-2.34-2-523.79 566.13zm7.14 6L2044.06 93l-2.35-2-523.78 566.17zm7.13 6L2051.2 99l-2.34-2-523.79 566.15zm7.14 6L2058.34 105l-2.35-2-523.78 566.14zm7.14 6L2065.48 111l-2.34-2-523.79 566.12zm7.14 6L2072.62 117l-2.34-2-523.79 566.1zm7.14 6l523.79-566.09-2.34-2-523.82 564.39zm7.14 6l523.79-566.09-2.34-2-523.83 564.37zm7.14 6L2094 134.91l-2.34-2L1567.9 699zm7.14 6l523.79-566.09-2.34-2L1575 705zm7.14 6l523.78-566.09-2.34-2L1582.18 711zm7.14 6l523.79-566.09-2.34-2L1589.32 717zm7.14 6l523.78-566.09-2.34-2L1596.46 723zm7.13 6l523.79-566.09-2.35-2-523.81 564.26zm7.14 6l523.76-567.98-2.35-2-523.78 566.13zm7.14 6l523.75-568-2.34-2-523.78 566.13zm7.14 6l523.78-566.1-2.34-2L1625 746.89zm7.14 6l523.79-566.09-2.35-2-523.79 566.1zm7.14 6l523.79-566.09-2.35-2-523.78 566.1zm7.14 6l523.75-568.08-2.34-2-523.79 566.13zm7.14 6l523.75-568.09-2.34-2-523.79 566.12zm7.14 6l523.78-566.09-2.34-2-523.82 564.1z"/></g><g class="cls-4"><path class="cls-5" d="M722.68 338.6l523.78-566.09 2.35 1.97-523.79 566.09-2.34-1.97zM732.16 346.55l523.78-566.09-2.34-1.97-523.78 566.09 2.34 1.97zM739.29 352.53l523.79-566.09-2.35-1.97-523.78 566.1 2.34 1.96zM746.43 358.51l523.79-566.1-2.34-1.96-523.79 566.09 2.34 1.97zM753.57 364.49l523.79-566.09-2.34-1.96-523.79 566.09 2.34 1.96zM760.71 370.47l523.79-566.09-2.35-1.96-523.79 566.09 2.35 1.96zM767.85 376.45l523.79-566.09-2.35-1.96L765.5 374.49l2.35 1.96zM774.99 382.43l523.78-566.09-2.34-1.96-523.79 566.09 2.35 1.96zM782.12 388.41l523.79-566.09-2.34-1.96-523.79 566.09 2.34 1.96zM789.27 394.4l523.78-566.1-2.34-1.96-523.79 566.09 2.35 1.97zM796.4 400.37l523.79-566.09-2.35-1.96-523.78 566.09 2.34 1.96zM803.54 406.36l523.79-566.1-2.35-1.96L801.2 404.39l2.34 1.97zM810.68 412.33l523.78-566.09-2.33-1.96-523.79 566.09 2.34 1.96zM817.81 418.31l523.8-566.08-2.35-1.97-523.79 566.09 2.34 1.96zM824.96 424.3l523.78-566.09-2.34-1.97-523.79 566.09 2.35 1.97zM832.1 430.28l523.78-566.09-2.34-1.97-523.79 566.1 2.35 1.96zM839.23 436.26l523.79-566.09-2.35-1.97-523.78 566.1 2.34 1.96zM846.37 442.24l523.78-566.09-2.33-1.96-523.79 566.09 2.34 1.96zM853.51 448.22l523.79-566.09-2.35-1.96-523.78 566.09 2.34 1.96zM860.65 454.2l523.78-566.09-2.34-1.96L858.3 452.24l2.35 1.96zM867.79 460.18l523.78-566.09-2.34-1.96-523.79 566.09 2.35 1.96zM874.93 466.17l523.78-566.1-2.34-1.96L872.59 464.2l2.34 1.97zM882.06 472.14l523.79-566.09-2.34-1.96-523.78 566.1 2.33 1.95zM889.2 478.13l523.79-566.09-2.34-1.97-523.79 566.1 2.34 1.96zM896.34 484.11l523.79-566.09-2.34-1.97L894 482.14l2.34 1.97zM903.48 490.09L1427.27-76l-2.35-1.97-523.78 566.1 2.34 1.96zM910.62 496.07l523.79-566.09-2.35-1.97-523.78 566.1 2.34 1.96zM917.76 502.05l523.79-566.09-2.35-1.96-523.78 566.08 2.34 1.97zM924.9 508.03l523.78-566.09-2.34-1.96-523.78 566.09 2.34 1.96zM932.03 514.01l523.79-566.09-2.34-1.96-523.79 566.09 2.34 1.96zM939.18 520l523.78-566.09-2.34-1.97-523.79 566.09 2.35 1.97zM946.31 525.98l523.79-566.1-2.35-1.96-523.78 566.09 2.34 1.97zM953.45 531.96l523.79-566.1-2.35-1.96-523.78 566.09 2.34 1.97zM960.59 537.94l523.79-566.1-2.35-1.96-523.78 566.09 2.34 1.97zM967.73 543.92l523.78-566.1-2.34-1.96-523.79 566.09 2.35 1.97zM974.87 549.9l523.78-566.1-2.34-1.96-523.79 566.09 2.35 1.97zM982 555.88l523.79-566.09-2.34-1.97-523.79 566.09 2.34 1.97zM989.15 561.86L1512.93-4.23l-2.34-1.97L986.8 559.9l2.35 1.96zM996.28 567.84L1520.07 1.75l-2.34-1.96-523.79 566.09 2.34 1.96zM1003.42 573.82L1527.21 7.73l-2.34-1.96-523.79 566.09 2.34 1.96zM1010.56 579.81l523.79-566.1-2.34-1.96-523.79 566.09 2.34 1.97zM1017.7 585.78l523.79-566.09-2.35-1.96-523.78 566.09 2.34 1.96zM1024.83 591.76l523.79-566.08-2.34-1.97L1022.5 589.8l2.33 1.96zM1031.97 597.75l523.79-566.09-2.34-1.97-523.79 566.09 2.34 1.97zM1039.12 603.73l523.78-566.1-2.34-1.96-523.79 566.09 2.35 1.97zM1046.26 609.71l523.78-566.09-2.35-1.97-523.78 566.1 2.35 1.96zM1053.39 615.69L1577.18 49.6l-2.35-1.97-523.78 566.1 2.34 1.96zM1060.53 621.67l523.79-566.09-2.35-1.96-523.79 566.09 2.35 1.96zM1067.67 627.65l523.78-566.09-2.34-1.96-523.78 566.09 2.34 1.96zM1074.81 633.63l523.78-566.09-2.34-1.96-523.79 566.09 2.35 1.96zM1081.95 639.61l523.78-566.09-2.34-1.96-523.78 566.09 2.34 1.96zM1089.09 645.6l523.79-566.1-2.35-1.96-523.79 566.09 2.35 1.97zM1096.22 651.58l523.8-566.09-2.35-1.97-523.79 566.09 2.34 1.97zM1103.37 657.56l523.77-566.1-2.33-1.96-523.79 566.09 2.35 1.97zM1110.5 663.54l523.79-566.09-2.35-1.97-523.78 566.09 2.34 1.97zM1173.65 609.53l523.79-566.09-2.34-1.96-523.79 566.09 2.34 1.96zM1180.79 615.51l523.79-566.09-2.34-1.96-523.79 566.09 2.34 1.96zM1187.93 621.5l523.79-566.1-2.34-1.96-523.79 566.09 2.34 1.97zM1195.07 627.47l523.79-566.09-2.34-1.96-523.79 566.09 2.34 1.96zM1202.21 633.46L1726 67.36l-2.35-1.96-523.78 566.09 2.34 1.97zM1209.35 639.43l523.79-566.09-2.35-1.96-523.78 566.09 2.34 1.96zM1216.48 645.41l523.79-566.08-2.34-1.97-523.79 566.09 2.34 1.96zM1223.63 651.4l523.78-566.09-2.34-1.97-523.79 566.09 2.35 1.97zM1230.76 657.38l523.8-566.09-2.35-1.97-523.79 566.09 2.34 1.97zM1237.9 663.36l523.79-566.09-2.35-1.97-523.78 566.1 2.34 1.96zM1245.04 669.34l523.79-566.09-2.35-1.97-523.78 566.1 2.34 1.96zM1252.18 675.32l523.79-566.09-2.35-1.96-523.78 566.09 2.34 1.96zM1259.32 681.3l523.78-566.1-2.34-1.95-523.79 566.09 2.35 1.96zM1340.45 607.28l523.79-566.09-12.34 8.04-523.79 566.09 12.34-8.04zM1347.59 613.26l523.79-566.09-2.34-1.96-523.79 566.09 2.34 1.96zM1354.73 619.25l523.79-566.1-2.34-1.96-523.79 566.09 2.34 1.97zM1361.87 625.22l523.79-566.09-2.35-1.96-523.78 566.09 2.34 1.96zM1369.01 631.21l523.78-566.1-2.33-1.96-523.8 566.09 2.35 1.97zM1376.14 637.18l523.79-566.09-2.34-1.96-523.79 566.09 2.34 1.96zM1383.29 643.17l523.78-566.09-2.34-1.97-523.78 566.1 2.34 1.96zM1390.42 649.15l523.79-566.09-2.34-1.97-523.79 566.09 2.34 1.97zM1397.56 655.13l523.79-566.09-2.34-1.96-523.79 566.08 2.34 1.97zM1404.7 661.11l523.79-566.09-2.34-1.96-523.79 566.09 2.34 1.96zM1411.84 667.09L1935.63 101l-2.35-1.96-523.78 566.09 2.34 1.96zM1418.98 673.07l523.79-566.09-2.35-1.96-523.78 566.09 2.34 1.96zM1426.12 679.05l523.79-566.09-2.35-1.96-523.78 566.09 2.34 1.96zM1433.26 685.03l523.79-566.09-2.35-1.96-523.78 566.09 2.34 1.96zM1440.4 691.02l523.78-566.1-2.34-1.96-523.78 566.09 2.34 1.97zM1447.53 697l523.79-566.1-2.34-1.96-523.79 566.09 2.34 1.97zM1454.67 702.98l523.79-566.1-2.34-1.96-523.79 566.09 2.34 1.97zM1461.81 708.96l523.79-566.09-2.35-1.97L1459.47 707l2.34 1.96zM1468.95 714.94l523.79-566.09-2.34-1.97-523.79 566.1 2.34 1.96zM1476.09 720.92l523.79-566.09-2.35-1.97-523.78 566.1 2.34 1.96zM1483.23 726.9l523.78-566.09-2.34-1.97-523.79 566.1 2.35 1.96zM1416.36 812.88l523.79-566.09-2.34-1.97-523.79 566.1 2.34 1.96zM1423.51 818.86l523.79-566.09-2.35-1.96-523.79 566.09 2.35 1.96zM1430.64 824.85l523.79-566.1-2.34-1.96-523.79 566.09 2.34 1.97zM1437.78 830.83l523.79-566.1-2.34-1.96-523.79 566.09 2.34 1.97zM1444.92 836.81l523.79-566.1-2.34-1.96-523.78 566.1 2.33 1.96zM1452.06 842.79l523.79-566.09-2.34-1.96-523.79 566.09 2.34 1.96zM1459.2 848.77l523.78-566.09-2.34-1.97-523.79 566.1 2.35 1.96zM1466.34 854.75l523.78-566.1-2.34-1.96L1464 852.79l2.34 1.96zM1473.48 860.73l523.78-566.09-2.34-1.96-523.79 566.09 2.35 1.96zM1480.62 866.71l523.78-566.09-2.34-1.97-523.79 566.1 2.35 1.96zM1487.76 872.69l523.78-566.09-2.34-1.96-523.79 566.09 2.35 1.96zM1494.89 878.67l523.79-566.09-2.35-1.96-523.78 566.09 2.34 1.96zM1502.03 884.65l523.79-566.09-2.35-1.96-523.78 566.09 2.34 1.96zM1509.17 890.64l523.79-566.1-2.34-1.96-523.79 566.09 2.34 1.97zM1516.31 896.62l523.78-566.1-2.34-1.96-523.79 566.09 2.35 1.97zM1523.44 902.6l523.79-566.1-2.34-1.96-523.79 566.1 2.34 1.96zM1530.58 908.58l523.79-566.09-2.34-1.97-523.79 566.1 2.34 1.96zM1537.72 914.56l523.79-566.09-2.34-1.97-523.79 566.1 2.34 1.96zM1544.86 920.54l523.79-566.09-2.34-1.96-523.79 566.09 2.34 1.96zM1552.01 926.52l523.77-566.09-2.34-1.97-523.78 566.1 2.35 1.96zM1565.01 926.52l523.77-566.09-2.34-1.97-523.78 566.1 2.35 1.96zM1578.01 926.52l523.77-566.09-2.34-1.97-523.78 566.1 2.35 1.96zM1591.01 926.52l523.77-566.09-2.34-1.97-523.78 566.1 2.35 1.96zM1604.01 926.52l523.77-566.09-2.34-1.97-523.78 566.1 2.35 1.96zM1617.01 926.52l523.77-566.09-2.34-1.97-523.78 566.1 2.35 1.96zM1630.01 926.52l523.77-566.09-2.34-1.97-523.78 566.1 2.35 1.96zM1643.01 926.52l523.77-566.09-2.34-1.97-523.78 566.1 2.35 1.96z"/></g><g class="cls-6"><path class="cls-5" d="M-95.18 236.77l523.11-568.35 2.34 2-523.11 568.32zm9.47 8L437.4-323.61l-2.34-2-523.11 568.38zm7.13 6L444.53-317.6l-2.35-2-523.1 568.38zm7.13 6L451.66-311.6l-2.34-2L-73.8 254.78zm7.13 6l523.11-568.36-2.34-2-523.12 568.38zm7.13 6l523.11-568.36-2.34-2-523.12 568.38zm7.13 6l523.11-568.35-2.34-2-523.12 568.37zm7.13 6l523.11-568.35-2.34-2L-45.28 278.8zm7.12 6l523.12-568.34-2.34-2L-38.15 284.8zm7.13 6l523.12-568.34-2.33-2L-31 290.81zm7.13 6l523.11-568.34-2.34-2-523.11 568.38zm7.13 6l523.11-568.33-2.34-2-523.11 568.38zm7.13 6l523.11-568.33-2.34-2L-9.63 308.82zm7.13 6L523-251.55l-2.35-2L-2.5 314.83zm7.13 6l523.11-568.31-2.34-2L4.62 320.83zm7.13 6l523.11-568.31-2.34-2L11.76 326.84zm7.13 6l523.11-568.31-2.34-2L18.89 332.84zm7.13 6l523.11-568.3-2.33-2L26 338.85zm7.13 6l523.11-568.3-2.34-2L33.15 344.85zm7.13 6l523.11-568.29-2.34-2L40.27 350.85zm7.13 6l523.11-568.29-2.33-2L47.4 356.86zm7.13 6L580-203.51l-2.34-2L54.54 362.87zm7.13 6l523.11-568.28-2.34-2L61.67 368.87zm7.13 6L594.25-191.5l-2.34-2L68.79 374.88zm7.13 6L601.38-185.5l-2.34-2L75.92 380.88zm7.13 6l523.11-568.26-2.34-2L83.05 386.88zm7.13 6l523.11-568.26-2.34-2L90.18 392.89zm7.13 6l523.11-568.25-2.34-2L97.31 398.89zm7.13 6L629.9-161.48l-2.34-2L104.44 404.9zm7.13 6L637-155.48l-2.34-2L111.57 410.9zm7.13 6l523.11-568.24-2.35-2L118.7 416.91zm7.13 6l523.11-568.23-2.35-2-523.11 568.37zm7.13 6l523.1-568.23-2.34-2L133 428.92zm7.13 6l523.1-568.22-2.34-2-523.11 568.38zm7.13 6l523.1-568.22-2.33-2-523.12 568.38zm7.13 6l523.1-568.22-2.34-2-523.11 568.38zm7.13 6l523.1-568.21-2.34-2-523.12 568.38zm7.14 6l523.09-568.2-2.34-2L168.6 458.94zm7.13 6l523.09-568.2-2.34-2-523.12 568.38zm7.13 6L708.32-95.42l-2.34-2L182.87 471zm7.13 6L715.45-89.42l-2.34-2L190 477zm7.13 6L722.58-83.42l-2.34-2L197.13 483zm7.12 6l523.1-568.18-2.34-2L204.25 489zm7.13 6l523.1-568.18-2.34-2L211.38 495zm7.13 6L744-65.4l-2.34-2L218.51 501zm7.13 6L751.1-59.39l-2.34-2L225.64 507zm7.13 6l523.1-568.16-2.34-2L232.77 513zm7.13 6l523.1-568.16-2.34-2L239.9 519zm7.14 6L772.48-41.38l-2.34-2L247 525zm7.13 6L779.61-35.38l-2.34-2L254.16 531zm7.13 6L786.75-29.37l-2.34-2L261.29 537zm7.13 6L793.88-23.37l-2.34-2L268.42 543zm7.13 6L801-17.36l-2.34-2L275.55 549zm7.13 6L808.13-11.36l-2.33-2L282.68 555zm7.13 6L815.26-5.35l-2.34-2L289.81 561zm7.14 6L822.41.66l-2.34-2L297 567zm7.13 6L829.54 6.67l-2.34-2L304.08 573zm7.13 6l523.09-568.1-2.34-2-523.12 568.38zm7.13 6L843.8 18.68l-2.34-2-523.12 568.37zm7.13 6L850.93 24.68l-2.34-2-523.12 568.38zm7.13 6L858.06 30.69l-2.34-2L332.6 597.07zm7.13 6L865.18 36.7l-2.34-2-523.11 568.37zm7.14 6L872.31 42.7l-2.34-2-523.11 568.37zm7.13 6L879.45 48.7l-2.34-2L354 615.08zm7.13 6L886.57 54.71l-2.34-2-523.11 568.37zm7.13 6L893.7 60.71l-2.34-2-523.11 568.38zm7.13 6L900.83 66.72l-2.34-2-523.11 568.37zm7.13 6L908 72.72l-2.34-2L382.5 639.09zm7.13 6L915.09 78.73l-2.34-2L389.63 645.1zm7.13 6L922.22 84.73l-2.34-2-523.11 568.38zm7.13 6L929.35 90.74l-2.34-2-523.12 568.37zm7.13 6L936.48 96.74l-2.34-2L411 663.12zm7.13 6L943.6 102.74l-2.34-2-523.11 568.38zm7.12 6l523.08-568.02-2.34-2-523.12 568.37zm7.13 6l523.07-568.02-2.34-2-523.11 568.38zm7.13 6L965 120.76l-2.34-2-523.12 568.37zm7.13 6l523.07-568.01-2.34-2-523.11 568.38zm7.13 6l523.07-568-2.34-2L453.8 699.14zm7.13 6l523.07-568-2.34-2-523.11 568.38zm7.13 6l523.07-567.99-2.34-2-523.11 568.37zm7.13 6l523.12-568.35-2.34-2-523.16 568.74zm7.13 6l523.11-568.35-2.34-2-523.15 568.75zm7.12 6l523.08-567.98-2.34-2-523.11 568.38zm7.13 6L1022 168.8l-2.34-2-523.08 568.38zm7.13 6l523.08-567.97-2.34-2L503.7 741.18zm7.13 6l523.12-568.35-2.34-2-523.15 568.76zm7.13 6l523.11-568.35-2.34-2L518 753.19zm7.13 6l523.11-568.35-2.34-2-523.15 568.77zm7.13 6l523.11-568.35-2.34-2L532.22 765.2zm7.13 6l523.12-568.35-2.34-2L539.35 771.2zm7.13 6l523.12-568.35-2.34-2-523.16 568.79zm7.13 6l523.11-568.35-2.34-2-523.15 568.79zm7.13 6l523.08-567.93-2.34-2-523.11 568.38zm7.13 6l523.12-568.35-2.34-2-523.15 568.8zm7.13 6l523.12-568.35-2.34-2L575 801.23zm7.13 6l523.11-568.35-2.34-2-523.15 568.81zm7.13 6l523.12-568.35-2.34-2-523.16 568.82zm7.13 6l523.11-568.35-2.34-2-523.15 568.82zm7.13 6l523.1-567.9-2.34-2-523.14 568.38zm7.13 6l523.07-567.89-2.34-2-523.11 568.37zm7.12 6l523.12-568.35-2.34-2-523.15 568.84zm7.13 6l523.11-568.35-2.34-2-523.14 568.84zm7.13 6l523.12-568.35-2.34-2L632 849.27zm7.13 6l523.11-568.35-2.34-2-523.14 568.85zm7.13 6l523.08-567.87-2.34-2-523.12 568.38zm7.13 6l523.12-568.34-2.34-2-523.15 568.85zm7.13 6L1186 306.91l-2.34-2-523.1 568.38zm7.13 6l523.12-568.34-2.34-2-523.15 568.86zm7.13 6l523.11-568.35-2.34-2-523.14 568.87z"/></g></svg>