<svg xmlns="http://www.w3.org/2000/svg" viewBox="0 0 168 97"><path fill="#5B5F62" d="M11.3 84.7H6.1v-7H0v18.9h6.1v-6.7h5.2v6.7h6.1V77.7h-6.1v7zm56.5 0h-5.2v-7h-6.1v18.9h6.1v-6.7h5.2v6.7h6.1V77.7h-6.1v7zm93-1.5h-2.9v-5.5h-6.1v18.9h9c3.9 0 7.2-2.2 7.2-6v-1.3c-.1-3.9-3.3-6.1-7.2-6.1m-.6 8.8h-2.3v-4.1h2c1.7 0 2.1 1.3 2.1 2.1 0 1.6-1.4 2-1.8 2m-38.7-2.6h6.9v-4.5h-6.9v-2.3h7.5v-4.9h-13.6v18.9h14.1v-4.9h-8v-2.3zM114 77.7h-6.6l-3.2 7.2h-1.5v-7.2h-6.1v18.9h6.1v-6.7h1.5l3.3 6.7h7l-5.2-9.5 4.7-9.4zm-84.4-.3h-3c-3.9 0-7.2 2.8-7.2 7.2v5.3c0 4.4 3.2 7.2 7.2 7.2h3c3.9 0 7.2-2.8 7.2-7.2v-5.3c0-4.6-3.3-7.2-7.2-7.2m1 12.9c0 1.3-1 2.3-2.3 2.3h-.5c-1.3 0-2.3-1-2.3-2.3v-6.1c0-1.3 1-2.3 2.3-2.3h.5c1.3 0 2.3 1 2.3 2.3v6.1zm103.5-2.6c0 2.9-.8 3.3-1.8 3.8-.5.2-1.8.2-1.8.2v4.9h2.4c5.1 0 7-3 7.1-9.7v-4.3h3.4v14h6.1V77.7h-15.4v10zm-86.3-10h-9v18.9h6.1V92h2.9c3.9 0 7.2-2.2 7.2-6v-2.2c0-3.9-3.2-6.1-7.2-6.1m1.3 7.7c0 .7-.3 2-2.1 2h-2v-5h2.3c.6 0 1.9.5 1.9 2v1zm33.2 1.9v-9.6h-5.8v18.9h5.4l6.3-9.5v9.5H94V77.7h-5.4l-6.3 9.6z"/><path fill="#0068A7" d="M68.1 37.7l28.4 19.2V19.2L68.1.1z"/><path fill="#1389CB" d="M68.1.1C52.4.1 39.7 12.8 39.7 28.5s12.7 28.4 28.4 28.4V.1zM96.5 56.9c15.7 0 28.4-12.7 28.4-28.4S112.2.1 96.5.1v56.8z"/></svg>