<svg id="Слой_1" xmlns="http://www.w3.org/2000/svg" viewBox="0 0 167 126"><style>.st0{fill:#646363}.st1{fill:#005a9c}.st2{fill:#0080c9}</style><path class="st0" d="M74.9 105.7L68.3 95h-5.9v20.8h6.3v-10.5l6.6 10.5h5.9V95h-6.3v10.7zm-42.2-11h-3.3c-4.3 0-7.9 3.1-7.9 7.9v5.8c0 4.8 3.5 7.9 7.9 7.9h3.3c4.3 0 7.9-3.1 7.9-7.9v-5.8c-.1-5.1-3.6-7.9-7.9-7.9m1.1 14.1c0 1.4-1.1 2.5-2.5 2.5h-.6c-1.4 0-2.5-1.1-2.5-2.5v-6.7c0-1.4 1.1-2.5 2.5-2.5h.6c1.4 0 2.5 1.1 2.5 2.5v6.7zm50.3 7h6.7V95h-6.7v20.8zm74.8-5.6V95h-6.7v20.8h14.6v-5.6h-7.9zm-55-15.5h-3c-4.3 0-7.9 3.1-7.9 7.9v5.8c0 4.8 3.5 7.9 7.9 7.9h3c4.3 0 7.9-3.1 7.9-7.9v-.3h-6.7v.7c0 1.4-1.1 2.5-2.5 2.5h-.3c-1.4 0-2.5-1.1-2.5-2.5v-6.7c0-1.4 1.1-2.5 2.5-2.5h.3c1.4 0 2.5 1.1 2.5 2.5v1h6.7v-.5c0-5.1-3.5-7.9-7.9-7.9m-43.4 8v-1c0-4.2-3.5-6.6-7.9-6.6h-9.8v20.8h6.6v-6.2h2l2.8 6.2h6.9l-3.9-7.6c2-1.2 3.3-3.1 3.3-5.6m-6.5-.3c0 .8-.4 2.4-2.3 2.4h-2.2v-5.2H52c.7 0 2 .8 2 2.4v.4zm-41.1 3.1L6 95H.2v20.8h6.3v-10.5l6.9 10.5h5.9V95H13v10.5zm128.3 2.4h7.5V103h-7.5v-2.5h8.2V95h-14.9v20.8H150v-5.4h-8.8v-2.5zM132.9 95h-7.2l-3.5 7.9h-1.7V95h-6.7v20.8h6.7v-7.4h1.6l3.6 7.4h7.7l-5.7-10.5 5.2-10.3z"/><path class="st1" d="M66.7 51.1l31.2 21.1V30.8l-31.2-21z"/><path class="st2" d="M66.7 9.8c-17.2 0-31.2 14-31.2 31.2s14 31.2 31.2 31.2V9.8zM97.9 72.2c17.2 0 31.2-14 31.2-31.2s-14-31.2-31.2-31.2v62.4z"/></svg>