<svg id="Слой_1" xmlns="http://www.w3.org/2000/svg" viewBox="0 0 97 97"><style>.st0{fill:#2d2667}.st1{fill:#fff}</style><path class="st0" d="M7.4.5h82.1v82.1H7.4zM7.2 90.9h1.3c.5 0 1.2 0 1.6.3.3.2.5.5.5 1.1 0 .4-.1.7-.4.9-.2.2-.4.3-.8.4.1 0 .2.1.3.2.1.1.2.3.2.4l1 2.2H10l-.8-1.9c0-.3-.1-.4-.2-.5-.1-.1-.3-.1-.6-.1H8v2.4h-.8v-5.4zm.8 2.3h.7c.2 0 .6 0 .9-.3.1-.1.3-.3.3-.6 0-.4-.2-.6-.4-.7-.2-.1-.5-.1-.7-.1H8v1.7zM15.9 94.1c0 .9-.3 1.4-.6 1.8-.2.2-.6.6-1.5.6s-1.4-.4-1.5-.6c-.3-.3-.6-.9-.6-1.8v-3.2h.8V94c0 .4 0 .9.3 1.3s.7.5 1 .5c.3 0 .8-.1 1-.5.3-.4.3-.9.3-1.3v-3.1h.8v3.2zM19.5 91.7c-.4-.2-.8-.2-1-.2-.1 0-.4 0-.6.1-.2.1-.3.3-.3.6 0 .2.1.3.2.4.2.3.6.4.8.5l.2.1c.4.2.7.4.9.7.1.2.2.5.2.9 0 .5-.2.9-.5 1.2-.4.3-.8.4-1.4.4-.3 0-.7 0-1.2-.2l.1-.7c.3.1.8.3 1.1.3.3 0 .6 0 .8-.3.2-.2.3-.4.3-.6 0-.3-.1-.5-.3-.6-.2-.1-.4-.2-.7-.4l-.3-.2c-.2-.1-.6-.3-.8-.6-.1-.2-.2-.4-.2-.8 0-.7.4-1 .6-1.2.3-.2.8-.3 1.2-.3.6 0 1 .1 1.2.2l-.3.7zM23 91.7c-.4-.2-.8-.2-1-.2-.1 0-.4 0-.6.1-.2.1-.3.3-.3.6 0 .2.1.3.2.4.2.3.6.4.8.5l.2.1c.4.2.7.4.9.7.1.2.2.5.2.9 0 .5-.2.9-.5 1.2-.4.3-.8.4-1.4.4-.3 0-.7 0-1.2-.2l.1-.7c.3.1.8.3 1.1.3.3 0 .6 0 .8-.3.2-.2.3-.4.3-.6 0-.3-.1-.5-.3-.6-.2-.1-.4-.2-.7-.4l-.3-.2c-.2-.1-.6-.3-.8-.6-.1-.2-.2-.4-.2-.8 0-.7.4-1 .6-1.2.3-.2.8-.3 1.2-.3.6 0 1 .1 1.2.2l-.3.7zM24.2 90.9h.8v5.5h-.8v-5.5zM27.9 90.9h.8l2.3 5.5h-.9l-.5-1.4h-2.7l-.6 1.4h-.8l2.4-5.5zm.4.7l-1.1 2.7h2.2l-1.1-2.7zM31.6 90.9h1.1l2.4 4.4v-4.4h.8v5.5h-1l-2.5-4.5v4.5h-.8v-5.5zM38.5 90.9h1.1l2.4 4.4v-4.4h.8v5.5h-1l-2.5-4.5v4.5h-.8v-5.5zM44 90.9h3v.7h-2.3v1.6h2.1v.7h-2.1v1.8H47v.7h-3v-5.5zM47.4 90.9h.9l1.3 4.7 1.2-4.7h1.1l1.2 4.7 1.3-4.7h.8l-1.7 5.5h-1l-1.2-4.8-1.2 4.8h-1l-1.7-5.5zM58.3 91.7c-.4-.2-.8-.2-1-.2-.1 0-.4 0-.6.1-.2.1-.3.3-.3.6 0 .2.1.3.2.4.2.3.6.4.8.5l.2.1c.4.2.7.4.9.7.1.2.2.5.2.9 0 .5-.2.9-.5 1.2-.4.3-.8.4-1.4.4-.3 0-.7 0-1.2-.2l.1-.7c.3.1.8.3 1.1.3.3 0 .6 0 .8-.3.2-.2.3-.4.3-.6 0-.3-.1-.5-.3-.6-.2-.1-.4-.2-.7-.4l-.3-.2c-.2-.1-.6-.3-.8-.6-.1-.2-.2-.4-.2-.8 0-.7.4-1 .6-1.2.3-.2.8-.3 1.2-.3.6 0 1 .1 1.2.2l-.3.7zM62.7 90.9h.8l2.3 5.5H65l-.5-1.4h-2.7l-.6 1.4h-.8l2.3-5.5zm.4.7L62 94.3h2.2l-1.1-2.7zM70.3 91.9l-.6-.3c-.4-.1-.7-.1-.8-.1-.6 0-1.1.2-1.4.5-.4.3-.7.9-.7 1.7 0 .6.2 1.1.6 1.5.4.4.9.6 1.6.6.1 0 .6 0 .7-.1h.1V94h-1.2v-.6h1.9v2.8c-.6.2-1.2.2-1.6.2-.7 0-1.5-.1-2.1-.7-.7-.6-.9-1.4-.9-2.1 0-1 .4-1.7.9-2.1.5-.4 1.2-.7 2-.7.5 0 .9.1 1 .1.2 0 .4.1.6.2l-.1.8zM71.5 90.9h3.1v.7h-2.3v1.6h2.1v.7h-2.1v1.8h2.3v.7h-3.1v-5.5zM75.5 90.9h1.1l2.4 4.4v-4.4h.8v5.5h-1l-2.5-4.5v4.5h-.8v-5.5zM84.6 91.8c-.3-.2-.7-.3-1.1-.3-.5 0-1 .1-1.3.4-.4.3-.8.9-.8 1.7 0 .7.2 1.1.5 1.5.4.4.9.7 1.7.7.3 0 .6-.1 1.1-.3v.8c-.5.2-.8.2-1.1.2-.7 0-1.6-.1-2.2-.8-.4-.4-.8-1.1-.8-2 0-.6.1-1.5 1-2.2.6-.4 1.3-.6 1.9-.6.6 0 .9.1 1.2.2l-.1.7zM86.9 94.1l-2.1-3.2h.9l1.6 2.5 1.6-2.5h.9l-2.1 3.2v2.3h-.8v-2.3z"/><path class="st1" d="M10.9 52.1h18.7L27 56.5h-4.9V71h-4.6V56.5h-6.6zM55.1 63.7c-3.4 0-5.8-2.4-5.8-5.8s2.5-5.8 5.8-5.8H66l-2.5 4.4h-8.2c-.8 0-1.4.6-1.4 1.4 0 .8.6 1.4 1.4 1.4h5c3.4 0 5.8 2.5 5.8 5.8 0 3.4-2.5 5.8-5.8 5.8h-9.9v-4.4h9.8c.8 0 1.4-.6 1.4-1.4 0-.8-.6-1.4-1.4-1.4h-5.1zM72.6 63.7c-3.4 0-5.8-2.4-5.8-5.8s2.5-5.8 5.8-5.8h10.9L81 56.5h-8.2c-.8 0-1.4.6-1.4 1.4 0 .8.6 1.4 1.4 1.4h5c3.4 0 5.8 2.5 5.8 5.8 0 3.4-2.5 5.8-5.8 5.8h-9.9v-4.4h9.8c.8 0 1.4-.6 1.4-1.4 0-.8-.6-1.4-1.4-1.4h-5.1zM41.4 52.1h-8.7l-2.5 4.4h11.3c.6 0 .9.3.9.9v2h-7.3c-3.4 0-5.8 2.5-5.8 5.8 0 3.4 2.5 5.8 5.8 5.8h12V57.4c-.2-3.2-2.4-5.3-5.7-5.3m.8 14.6h-6.7c-1 0-1.7-.7-1.7-1.7s.7-1.7 1.7-1.7h6.7v3.4z"/></svg>