<svg id="Слой_1" xmlns="http://www.w3.org/2000/svg" viewBox="0 0 97 97"><style>.st0,.st1,.st2,.st3,.st4,.st5,.st6{fill-rule:evenodd;clip-rule:evenodd;fill:url(#SVGID_1_)}.st1,.st2,.st3,.st4,.st5,.st6{fill:url(#SVGID_2_)}.st2,.st3,.st4,.st5,.st6{fill:url(#SVGID_3_)}.st3,.st4,.st5,.st6{fill:url(#SVGID_4_)}.st4,.st5,.st6{fill:url(#SVGID_5_)}.st5,.st6{fill:url(#SVGID_6_)}.st6{fill:url(#SVGID_7_)}.st10,.st11,.st12,.st13,.st7,.st8,.st9{fill-rule:evenodd;clip-rule:evenodd;fill:url(#SVGID_8_)}.st10,.st11,.st12,.st13,.st8,.st9{fill:url(#SVGID_9_)}.st10,.st11,.st12,.st13,.st9{fill:url(#SVGID_10_)}.st10,.st11,.st12,.st13{fill:url(#SVGID_11_)}.st11,.st12,.st13{fill:url(#SVGID_12_)}.st12,.st13{fill:url(#SVGID_13_)}.st13{fill:url(#SVGID_14_)}.st14{fill:url(#SVGID_15_)}.st15{fill:url(#SVGID_16_)}.st16{fill:url(#SVGID_17_)}.st17{fill:url(#SVGID_18_)}.st18{fill:url(#SVGID_19_)}.st19{fill:url(#SVGID_20_)}</style><radialGradient id="SVGID_1_" cx="35.892" cy="28.655" r="83.713" gradientUnits="userSpaceOnUse"><stop offset="0" stop-color="#95c11f"/><stop offset="1" stop-color="#4f842c"/></radialGradient><path class="st0" d="M22.1 70.2c-1.1-.5-1.6-1-1.6-1.6 0-.4.3-1.2 1.6-1.2.3 0 .8.1 1.6.6.1.1.2.1.3.1.2 0 .3-.1.5-.3l.2-.3c.1-.2.1-.4.1-.5 0-.2-.2-.3-.2-.3s-1-.7-2.4-.7c-2.2 0-3 1.5-3 2.6 0 1.7 1.1 2.3 2.5 2.9 1.6.7 2.1 1.1 2.1 1.8s-.7 1.2-1.5 1.2c-.9 0-1.6-.6-2.1-.9-.1-.1-.2-.1-.3-.1-.2 0-.4.2-.5.3l-.4.3c-.3.4 0 .7.1.8.2.2 1.3 1.1 2.9 1.1 1.7 0 3.1-1.1 3.1-2.6 0-1.8-1.4-2.5-3-3.2z"/><radialGradient id="SVGID_2_" cx="35.892" cy="28.654" r="83.715" gradientUnits="userSpaceOnUse"><stop offset="0" stop-color="#95c11f"/><stop offset="1" stop-color="#4f842c"/></radialGradient><path class="st1" d="M27.9 66.2h-.5c-.3 0-.5.2-.5.5v8.7c0 .3.2.5.5.5h.5c.3 0 .5-.2.5-.5v-8.7c0-.3-.2-.5-.5-.5z"/><radialGradient id="SVGID_3_" cx="35.892" cy="28.654" r="83.714" gradientUnits="userSpaceOnUse"><stop offset="0" stop-color="#95c11f"/><stop offset="1" stop-color="#4f842c"/></radialGradient><path class="st2" d="M36.2 70.9c.6-.4 1-1.2 1-2.1 0-1.5-1.2-2.7-2.9-2.7h-2.9c-.3 0-.5.2-.5.5v8.7c0 .3.2.5.5.5h3c1.8 0 3.1-1.2 3.1-2.8 0-1.1-.7-1.8-1.3-2.1zm-1.7 3.6h-2.1v-2.8h1.9c.9 0 1.6.6 1.6 1.4 0 .8-.6 1.4-1.4 1.4zm-.2-4.2h-1.9v-2.7h1.9c.8 0 1.3.5 1.3 1.3 0 .9-.5 1.4-1.3 1.4z"/><radialGradient id="SVGID_4_" cx="35.893" cy="28.654" r="83.714" gradientUnits="userSpaceOnUse"><stop offset="0" stop-color="#95c11f"/><stop offset="1" stop-color="#4f842c"/></radialGradient><path class="st3" d="M45.3 67.6c.3 0 .5-.2.5-.5v-.4c0-.3-.2-.5-.5-.5h-5.2c-.3 0-.5.2-.5.5v8.7c0 .3.2.5.5.5h5.2c.3 0 .5-.2.5-.5V75c0-.3-.2-.5-.5-.5h-4.2v-2.9h3.5c.3 0 .5-.2.5-.5v-.4c0-.3-.2-.5-.5-.5h-3.5v-2.7h4.2z"/><radialGradient id="SVGID_5_" cx="35.892" cy="28.654" r="83.715" gradientUnits="userSpaceOnUse"><stop offset="0" stop-color="#95c11f"/><stop offset="1" stop-color="#4f842c"/></radialGradient><path class="st4" d="M52.7 72c1.1-.6 1.8-1.6 1.8-2.8 0-1.7-1.4-3-3.1-3H48c-.3 0-.5.2-.5.5v8.7c0 .3.2.5.5.5h.5c.3 0 .5-.2.5-.5v-3.1h2.1l1.7 3.3c.1.1.2.3.4.3h.7c.2 0 .3-.1.4-.2.1-.2.1-.3 0-.5L52.7 72zm-3.6-4.4h2.3c.9 0 1.6.7 1.6 1.6 0 .9-.7 1.7-1.6 1.7h-2.3v-3.3z"/><radialGradient id="SVGID_6_" cx="35.891" cy="28.654" r="83.715" gradientUnits="userSpaceOnUse"><stop offset="0" stop-color="#95c11f"/><stop offset="1" stop-color="#4f842c"/></radialGradient><path class="st5" d="M57.6 66.2h-.5c-.3 0-.5.2-.5.5v8.7c0 .3.2.5.5.5h.5c.3 0 .5-.2.5-.5v-8.7c0-.3-.2-.5-.5-.5z"/><radialGradient id="SVGID_7_" cx="35.892" cy="28.655" r="83.714" gradientUnits="userSpaceOnUse"><stop offset="0" stop-color="#95c11f"/><stop offset="1" stop-color="#4f842c"/></radialGradient><path class="st6" d="M68.8 75.2l-4-8.8c-.1-.2-.3-.3-.4-.3h-.1c-.2 0-.4.1-.4.3l-4 8.8c-.1.2-.1.3 0 .5.1.1.2.2.4.2h.5c.2 0 .4-.2.4-.3l.9-2h4.3l.9 2c.1.1.2.3.5.3h.5c.2 0 .3-.1.4-.2.2-.2.2-.4.1-.5zm-6.1-3l1.6-3.6c.3.6 1.3 3 1.6 3.6h-3.2z"/><radialGradient id="SVGID_8_" cx="35.893" cy="28.655" r="83.713" gradientUnits="userSpaceOnUse"><stop offset="0" stop-color="#95c11f"/><stop offset="1" stop-color="#4f842c"/></radialGradient><path class="st7" d="M77.6 66.2h-.5c-.3 0-.5.2-.5.5V73l-5.5-6.9c0-.1-.1-.1-.2-.1h-.3c-.3 0-.5.2-.5.5v8.8c0 .3.2.5.5.5h.5c.3 0 .5-.2.5-.5v-6.4l5.6 7c0 .1.1.1.2.1h.2c.3 0 .5-.2.5-.5v-8.8c0-.3-.2-.5-.5-.5z"/><g><radialGradient id="SVGID_9_" cx="35.892" cy="28.654" r="83.714" gradientUnits="userSpaceOnUse"><stop offset="0" stop-color="#95c11f"/><stop offset="1" stop-color="#4f842c"/></radialGradient><path class="st8" d="M21.3 96.5c-.3 0-.6-.3-.6-.6v-6h-7.9v6c0 .3-.3.6-.6.6h-.8c-.3 0-.6-.3-.6-.6V82.4c0-.3.3-.6.6-.6h.8c.3 0 .6.3.6.6v5.8h7.9v-5.8c0-.3.3-.6.6-.6h.8c.3 0 .6.3.6.6v13.5c0 .3-.3.6-.6.6h-.8z"/><radialGradient id="SVGID_10_" cx="35.892" cy="28.654" r="83.714" gradientUnits="userSpaceOnUse"><stop offset="0" stop-color="#95c11f"/><stop offset="1" stop-color="#4f842c"/></radialGradient><path class="st9" d="M26.6 96.5c-.3 0-.6-.3-.6-.6V82.4c0-.3.3-.6.6-.6h8.1c.3 0 .6.3.6.6v.6c0 .3-.3.6-.6.6H28v4.6h5.7c.3 0 .6.3.6.6v.6c0 .3-.3.6-.6.6H28v4.8h6.7c.3 0 .6.3.6.6v.6c0 .3-.3.6-.6.6h-8.1z"/><radialGradient id="SVGID_11_" cx="35.892" cy="28.655" r="83.714" gradientUnits="userSpaceOnUse"><stop offset="0" stop-color="#95c11f"/><stop offset="1" stop-color="#4f842c"/></radialGradient><path class="st10" d="M49.9 96.5c-.3 0-.5-.2-.5-.4l-1.5-3.2h-7l-1.4 3.3c-.1.2-.3.4-.5.4h-.8c-.2 0-.4-.1-.5-.3-.1-.2-.1-.4 0-.6l6.2-13.8c.1-.2.3-.4.5-.4h.2c.2 0 .4.1.5.3l6.2 13.8c.1.2.1.4 0 .6-.1.2-.3.3-.5.3h-.9zm-2.7-5.3c-.4-1-.9-2-1.3-3-.5-1.1-.9-2.1-1.4-3.2l-2.7 6.2h5.4z"/><radialGradient id="SVGID_12_" cx="35.892" cy="28.654" r="83.714" gradientUnits="userSpaceOnUse"><stop offset="0" stop-color="#95c11f"/><stop offset="1" stop-color="#4f842c"/></radialGradient><path class="st11" d="M54.8 96.5c-.3 0-.6-.3-.6-.6V82.4c0-.3.3-.6.6-.6h.8c.3 0 .6.3.6.6v12.4h5.7c.3 0 .6.3.6.6v.6c0 .3-.3.6-.6.6h-7.1z"/><radialGradient id="SVGID_13_" cx="35.892" cy="28.654" r="83.714" gradientUnits="userSpaceOnUse"><stop offset="0" stop-color="#95c11f"/><stop offset="1" stop-color="#4f842c"/></radialGradient><path class="st12" d="M66.6 96.5c-.3 0-.6-.3-.6-.6V83.6h-3.3c-.3 0-.6-.3-.6-.6v-.6c0-.3.3-.6.6-.6h8.7c.3 0 .6.3.6.6v.6c0 .3-.3.6-.6.6H68V96c0 .3-.3.6-.6.6h-.8z"/><radialGradient id="SVGID_14_" cx="35.892" cy="28.654" r="83.714" gradientUnits="userSpaceOnUse"><stop offset="0" stop-color="#95c11f"/><stop offset="1" stop-color="#4f842c"/></radialGradient><path class="st13" d="M84.8 96.5c-.3 0-.6-.3-.6-.6v-6h-7.9v6c0 .3-.3.6-.6.6h-.8c-.3 0-.6-.3-.6-.6V82.4c0-.3.3-.6.6-.6h.8c.3 0 .6.3.6.6v5.8h7.9v-5.8c0-.3.3-.6.6-.6h.8c.3 0 .6.3.6.6v13.5c0 .3-.3.6-.6.6h-.8z"/></g><g><radialGradient id="SVGID_15_" cx="35.892" cy="28.654" r="83.711" gradientUnits="userSpaceOnUse"><stop offset="0" stop-color="#95c11f"/><stop offset="1" stop-color="#4f842c"/></radialGradient><path class="st14" d="M34.9 27.4c2.1.2 3.4-1.6 3.7-3.4.3-1.7-.2-3.4-1.9-3.4-.4 0-.8.1-1.3.3-1.2-.4-2.4-.4-3.3.4-1.3 1.1-.5 5.9 2.8 6.1z"/><radialGradient id="SVGID_16_" cx="35.892" cy="28.655" r="83.713" gradientUnits="userSpaceOnUse"><stop offset="0" stop-color="#95c11f"/><stop offset="1" stop-color="#4f842c"/></radialGradient><path class="st15" d="M57.2 19.8c.4-2.1-.5-4.2-3.3-3.2-.8-.2-1.5-.3-2.2-.2 1.1-2 .8-4.9-1.4-4.9-.4 0-.8.1-1.3.3-1.2-.4-2.4-.4-3.3.4-1.3 1.2-.5 5.9 2.8 6.2.6 0 1.1-.1 1.6-.3-.4 1.8.6 4.9 3.3 5.1 2.1.2 3.4-1.6 3.8-3.4z"/><radialGradient id="SVGID_17_" cx="35.892" cy="28.655" r="83.714" gradientUnits="userSpaceOnUse"><stop offset="0" stop-color="#95c11f"/><stop offset="1" stop-color="#4f842c"/></radialGradient><path class="st16" d="M40.7 20.6c-.4 0-1 0-1.5.1.4.7.6 1.5.6 2.3.4-.4.7-1.2.9-2.4z"/><radialGradient id="SVGID_18_" cx="35.892" cy="28.655" r="83.713" gradientUnits="userSpaceOnUse"><stop offset="0" stop-color="#95c11f"/><stop offset="1" stop-color="#4f842c"/></radialGradient><path class="st17" d="M75.5 15.4l-.1-.3c-1.1-6-5.5-10.9-11.3-12.9C59.5.7 52.4.4 48.6.4c-3.4 0-6.8.2-10.2.7-1.6.2-2.7.4-3.8.7-8.1 1.8-12.6 8-13.7 18.5-.2 2.4-.3 4.8-.3 7.3 0 6.2.7 14.3 2.5 18.2 2.4 5.1 7.3 8.7 13 9.6 4.5.7 8.6 1 12.5 1 3.2 0 6.4-.2 9.6-.6h.4c1.5-.2 3.1-.4 4.5-.8 5.7-1.5 10.3-6 12-11.6.7-2.5 1-5.6 1.2-8.4.2-2.5.3-5 .3-7.5-.1-4-.5-8.1-1.1-12.1zm-7.1-6.9c.5 0 1.1-.2 1.7-.7.8.9 1.5 1.8 2.1 2.8-.2.5-.5 1-.8 1.5 0 .9-.2 1.8-.6 2.5-.8 1.8-2.4 3-4.4 2.9-1.2-.1-2.3-.7-3.1-1.7-.1-.1-.2-.3-.3-.4-.3 1.8-1.2 3.1-2.9 2.9.9-.9 1.8-2.3 2.3-4.2-.2-.6-.3-1.3-.4-2 0-.9.2-2 .9-2.6.9-.8 2-1 3-.9.7-.5 1.3-.5 1.4-.6.3.4.7.5 1.1.5zM64.7 4c.8.3 1.5.7 2.2 1.1-1.6 1.4-3.1 2.4-3.8 4-.6-.5.1-3 1.6-5.1zm-5.2-1.3c-1.8 1.5-4.5 3.4-6.2 5 .4-1.2 2.7-3.5 4.3-5.2.6 0 1.2.1 1.9.2zm-15.8-.6c1-.1 1.9-.1 2.9-.1-.7 2-3.4 4.2-4.6 5.9-1.1.4-1.8.5-3.7.9-.9-1 3.2-4.9 5.4-6.7zm-18.6 8.5c-.2 1.8.9 4.7 3.5 4.9 2.1.2 3.5-1.7 3.8-3.5.4-2.2-.6-4.3-3.3-3.2-1-.3-2-.4-2.8 0 0-.1.1-.1 0-.1.3-.3.5-.7.8-1 .5-.1 1.1 0 1.6.1l.3-.6c1.6.4 3.3.4 4.3-2.6-.4-.1-1.3-.1-2.1 0 1.3-.6 2.8-1.1 4.4-1.4 1.5-.3 3.1-.5 4.6-.7-.8 1.4-2.1 3.7-3.1 4.6.7-1.8-.3-2.3-.5-3.5-1.7.6-3.3 3.9-1.5 4.8 0 .7-.7 1.2-1.5 1.9.1 1 0 2.1-.4 3 .6-.5 1.3-1.1 2.1-1.6-.5 1.9-.5 4.7-1.1 6.5 0-.2-.6-2.2-1.9-2.5-.7 1.3-1.1 3.5 1.3 3.9.6 0 1.3.1 1.9.2.3-.1.7-.2 1-.2-.6-3.9.3-8.8 4.8-9.9-.2.9-.4 3.1-.2 4.6-.3-.8-1.2-1.8-1.9-1.8-1.2 1.4-.6 3 1.3 4.2-.6-.3-1.9-.2-2.7.7 1.3 3.4 2.3 2.3 3.2 2.1.5.2.9 8.5.4 10.1-.7-.5-1.8-1.9-2.6-3.2-.5.7-1.1 1.3-1.8 1.7.2.6.5 1.1.8 1.7.1.1 1.9 3.5 2.9 4.6 0 0-5.3-3.6-6.2-4.6.6-.2 1.2-.6 1.6-1.3-.4.1-.7.1-1.1.1-1.2-.1-2.3-.7-3.1-1.7-.1-.2-.3-.4-.4-.6-.5-.9-.9-2-.9-3.1 0-.8.1-1.7.6-2.3-.5-2-.4-3.6.2-4.9-.7.5-1.6.8-2.6.7-1-.1-1.9-.5-2.6-1.1.3.5.7 1.1 1.2 1.6 2.2 2.3 2.7 7.8 3 9.2-1.1-.3-2.1-1.6-3.1-3.2 1.1-.5.9-3.1-.3-5.2-.3 1.1-1.5.9-1.3 2.7-.6-.7-1.8-3.3-2.4-4.9.3-2.1.9-3.7 1.8-5.2zm-2.5 7.7c.9 1.4 2.4 3.5 2.5 3.8-.5-.3-1.9-1.4-2.8-2 .2-.6.2-1.2.3-1.8zm21.3 36.3c-2.6-.2-5.1-.5-7.7-.8-5.2-.8-9.7-4-11.9-8.7-2-4.2-2.4-12.9-2.4-17.6 0-1.6.1-3.3.2-4.9 1.6 1.1 4.8 3.4 4.9 3.5-.9-.6-1.7.1-2.4 1.3 3.1 1.7 2.7 1.7 3.9.4.5.4.7.9 1.6 1.5-1.7-.8-1.5 1.4-2 1.9 2.3.8 3.7.8 4-.2.5.4 1.6 1 2.1 1.2.3.7-2.5 0-2.7 2.9.5 0 1.1.1 1.6.3 1 .3 2.1.7 3.4-.3 1 .4 2.6 3.3 3.5 3.9 1.2 1.5 1.8 4.9 1.9 5 .1.7.5 2.7.7 3.4 1.6 1.4 1.4 5 1.3 7.2zm6.3-31.9c-.1-.2-.3-.4-.4-.6-.5-.8-.7-1.7-.8-2.6h-.2c-1.1 2.2-2.1 4.5-2.6 8.6-1-2.5-.9-6 .2-9.3-.4-.3-.7-.6-1.1-1-.1-.2-.3-.4-.4-.6 0-.1-.1-.1-.1-.2-.3 1-.7 2.3-1.5 3.8-.5-3.1-2.2-10.6 2.2-14.8-.8 2.6-.8 4.1-.6 5.5.5-.4 1-.7 1.6-.8-.1-.9 0-1.9.7-2.9.7.4 3.7-.1 3.7-4.7-1.9.7-2.9 1.1-3.8 2.5-.5-.4 1.3-2.3 2.4-3.7 1.6 0 3.3.1 4.9.2-.9 1.2-2.5 3-2.6 3.5-.4 1.3-1.5 3.5-2.7 5.2 1.1-.3 2.2-.3 3.1.4 0 0 .1 0 .1.1 1.1 1 1.2 2.7.8 4.2.2 0 .4.1.6.1.6-1.3 1.2-2.5 1.5-3.6 1.2 1.3 3.2-1.6 3.4-2.8-.9-.2-2.7-.7-3.3.6 1.1-2.6 4.3-4.4 6.9-6.1-2.9 3.6.7 4.5-3.2 11.4-1-1.2-.8-1-2.1-2-.1 0-.6 1.1-.7 2.3.4.1.7.3 1 .6 1.4 1.3 1.2 3.7.4 5.3-.3.6-.6 1.1-1 1.5.9-.7 1.8-1.4 2.7-2.2.3-.4 6.4-1.8 7.1-2.2.2.9-2.5 3.1-3.3 4.1-.2.1-2.6 2.7-2.8 2.6.7-1.6 1-1.7.7-3.6-1 .3-4 3.4-2.4 4.5 0 1.8-4 .3-6.3 3 .6-2.5 1.9-4.2 3.5-5.6-.7.5-1.6.7-2.5.7-1.2.1-2.3-.5-3.1-1.4zm24.5 12.2c-.1 1.5-.2 3-.4 4.5-.2 1.2-.4 2.4-.7 3.6-1.5 5-5.7 9-10.9 10.4-.4.1-.8.2-1.1.3-.7-1.1-1.4-2.4-1.5-2.6-2.1-1.9-1.7-4.9-4.4-7.4-.7-1.2-1.5-4.1-1.6-6.8.4-.8 1.2-1.4 2.3-1.1 1.8.4 2.9-.1 3.7-.3 1.8 1.5 3.3 1.1 5.4.7-.6-2.1-2-2-2.3-2.4.4-.2 1.5-.9 1.7-.5.4 1.3 2.3 2.1 4.5 1.4.6-2.7-2.2-2.9-.7-3.4 2 1.5 3.1-.2 4.6-1.2-1.1-1.3-2.3-.7-3-.5-.8.8-1.9 1.2-3.1 1.1-.8-.1-1.6-.3-2.2-.8-1.3.9-2.6 1.8-3.5 2.3-.4.2.8-1.7.3-2.5-2 .2-3.6 1.4-2.9 3.3-1.2.5-2.4-.4-3.4-.5 2.9-3.7 5.5-5 7.7-5.4-.2-.6-.3-1.2-.3-1.8 0-.9.2-2 .9-2.6 1-1 2.3-1.1 3.6-.8.4-.5.8-.9.9-1.3 1.2-1.8 2.9-5.1 4.4-6.4h.3c.3 0 .6-.1.9-.2.1.5.3 1 .3 1.5l.2 1c.1.7.2 1.5.3 2.2-.3.3-.6.5-.9.6.9-1.8 0-2.5-.7-3.5-2.2 2.3-2.4 3-1.5 5.3-.6.4-1 .6-1.6.9.3.1.6.3.9.5.3.3.5.6.7 1 1.1-1.2 2.2-2.4 3-3.2.1 1.1.2 2.2.3 3.4-.8.7-1.8 1.5-2.9 2.1-.1.7-.3 1.5-.5 2.1-.2.4-.4.8-.6 1.1.8-.7 2-1.5 2.3-1.4.1-.1 1.1-.8 2-1.2v1.2c-.2 2.3-.3 4.8-.5 7.3z"/><radialGradient id="SVGID_19_" cx="35.894" cy="28.654" r="83.711" gradientUnits="userSpaceOnUse"><stop offset="0" stop-color="#95c11f"/><stop offset="1" stop-color="#4f842c"/></radialGradient><path class="st18" d="M63.7 10.3c-1.3 1.2-.5 5.9 2.8 6.1 2.1.2 3.4-1.6 3.7-3.4.3-1.7-.2-3.4-1.9-3.4-.4 0-.8.1-1.3.3-1.2-.4-2.4-.5-3.3.4z"/><radialGradient id="SVGID_20_" cx="35.892" cy="28.655" r="83.714" gradientUnits="userSpaceOnUse"><stop offset="0" stop-color="#95c11f"/><stop offset="1" stop-color="#4f842c"/></radialGradient><path class="st19" d="M68.9 22.8c-.4 0-.8.1-1.3.3-1.2-.4-2.4-.4-3.3.4-1.3 1.2-.5 5.9 2.8 6.2 2.1.2 3.4-1.6 3.8-3.4.3-1.8-.3-3.5-2-3.5z"/></g></svg>