<svg xmlns="http://www.w3.org/2000/svg" xmlns:xlink="http://www.w3.org/1999/xlink" viewBox="0 0 96 97"><defs><path id="a" d="M25 88.4c0-2.8 2.2-5 5-5 2.7 0 5 2.2 5 5 0 2.7-2.2 5-5 5-2.7 0-5-2.2-5-5m-1.7 0c0 3.8 3 6.7 6.7 6.7 3.8 0 6.8-3 6.8-6.7s-3-6.8-6.8-6.8c-3.7 0-6.7 3.1-6.7 6.8"/></defs><clipPath id="b"><use xlink:href="#a" overflow="visible"/></clipPath><radialGradient id="c" cx=".33" cy="96.633" r="1" gradientTransform="matrix(82.3338 0 0 -82.3338 7.665 7984.127)" gradientUnits="userSpaceOnUse"><stop offset="0" stop-color="#94c11f"/><stop offset="1" stop-color="#50842c"/></radialGradient><path clip-path="url(#b)" fill="url(#c)" d="M23.3 81.6h13.5v13.5H23.3z"/><defs><path id="d" d="M40.7 83.7h2.6c1.4 0 2.5 1 2.5 2.3 0 1.4-1.1 2.5-2.5 2.5h-2.6v-4.8zm-1.3-1.9c-.3 0-.6.3-.6.6v12c0 .3.3.6.6.6h.7c.3 0 .6-.3.6-.6v-4h2.7c2.4 0 4.3-1.9 4.3-4.3 0-2.3-1.9-4.2-4.3-4.2h-4z"/></defs><clipPath id="e"><use xlink:href="#d" overflow="visible"/></clipPath><radialGradient id="f" cx=".33" cy="96.633" r="1" gradientTransform="matrix(82.3336 0 0 -82.3336 7.664 7984.108)" gradientUnits="userSpaceOnUse"><stop offset="0" stop-color="#94c11f"/><stop offset="1" stop-color="#50842c"/></radialGradient><path clip-path="url(#e)" fill="url(#f)" d="M38.8 81.8h8.9V95h-8.9z"/><defs><path id="g" d="M51 88.4c0-2.8 2.2-5 5-5 2.7 0 5 2.2 5 5 0 2.7-2.2 5-5 5s-5-2.2-5-5m-1.8 0c0 3.8 3 6.7 6.7 6.7 3.8 0 6.8-3 6.8-6.7s-3-6.8-6.8-6.8c-3.7.1-6.7 3.1-6.7 6.8"/></defs><clipPath id="h"><use xlink:href="#g" overflow="visible"/></clipPath><radialGradient id="i" cx=".33" cy="96.633" r="1" gradientTransform="matrix(82.334 0 0 -82.334 7.665 7984.148)" gradientUnits="userSpaceOnUse"><stop offset="0" stop-color="#94c11f"/><stop offset="1" stop-color="#50842c"/></radialGradient><path clip-path="url(#h)" fill="url(#i)" d="M49.2 81.7h13.5v13.5H49.2z"/><defs><path id="j" d="M66.9 89.3h2.7c1.3 0 2.3.9 2.3 2 0 1.2-.9 2-2 2h-3v-4zm.1-5.7h2.7c1.2 0 1.9.7 1.9 1.9s-.8 2-1.9 2H67v-3.9zm-1.3-1.8c-.3 0-.6.3-.6.6v12c0 .3.3.6.6.6h4.1c2.4 0 4.2-1.6 4.2-3.7 0-1.7-1.1-2.6-1.9-3 .8-.6 1.5-1.6 1.5-2.9 0-2.1-1.7-3.6-4-3.6h-3.9z"/></defs><clipPath id="k"><use xlink:href="#j" overflow="visible"/></clipPath><radialGradient id="l" cx=".33" cy="96.633" r="1" gradientTransform="matrix(82.3334 0 0 -82.3334 7.665 7984.093)" gradientUnits="userSpaceOnUse"><stop offset="0" stop-color="#94c11f"/><stop offset="1" stop-color="#50842c"/></radialGradient><path clip-path="url(#k)" fill="url(#l)" d="M65.1 81.8H74V95h-8.9z"/><defs><path id="m" d="M78.6 89.2h2.6c1.5 0 2.3.8 2.3 2.1 0 1.5-1.3 1.8-2.3 1.8h-2.6v-3.9zm-1.2-7.4c-.3 0-.6.3-.6.6v12c0 .3.3.6.6.6h4c2.5 0 4.1-1.5 4.1-3.7 0-2.3-1.7-3.9-4.1-3.9h-2.7v-4.9c0-.3-.3-.6-.6-.6h-.7z"/></defs><clipPath id="n"><use xlink:href="#m" overflow="visible"/></clipPath><radialGradient id="o" cx=".33" cy="96.633" r="1" gradientTransform="matrix(82.3333 0 0 -82.3333 7.664 7984.08)" gradientUnits="userSpaceOnUse"><stop offset="0" stop-color="#94c11f"/><stop offset="1" stop-color="#50842c"/></radialGradient><path clip-path="url(#n)" fill="url(#o)" d="M76.8 81.8h8.7V95h-8.7z"/><defs><path id="p" d="M88 81.8c-.3 0-.6.3-.6.6v12c0 .3.3.6.6.6h7.1c.3 0 .6-.3.6-.6v-.5c0-.3-.3-.6-.6-.6h-5.8v-4.1h4.9c.3 0 .6-.3.6-.6v-.5c0-.3-.3-.6-.6-.6h-4.9v-3.9h5.8c.3 0 .6-.3.6-.6v-.5c0-.3-.3-.6-.6-.6H88z"/></defs><clipPath id="q"><use xlink:href="#p" overflow="visible"/></clipPath><radialGradient id="r" cx=".33" cy="96.633" r="1" gradientTransform="matrix(82.3336 0 0 -82.3336 7.665 7984.108)" gradientUnits="userSpaceOnUse"><stop offset="0" stop-color="#94c11f"/><stop offset="1" stop-color="#50842c"/></radialGradient><path clip-path="url(#q)" fill="url(#r)" d="M87.4 81.8h8.3V95h-8.3z"/><g><defs><path id="s" d="M4.5 81.6c-1.4 0-2.5.8-3 1.3 0 0-.2.2-.3.2-.1.1-.1.2-.1.4s.1.3.2.4l.4.4c.1.1.2.2.4.2s.3-.1.5-.2c.6-.6 1.2-.8 2-.9h.1c1.2.1 1.9.8 1.9 2 0 1.1-.9 2-2 2.1H3.5c-.4 0-.6.2-.6.7v.3c0 .5.3.7.6.7h1.1c1.3 0 2.4 1 2.4 2.2 0 1.2-.9 2.2-2.1 2.2h-.5c-1.5 0-2.4-1.1-2.5-1.1-.1-.3-.2-.5-.5-.5-.1 0-.2 0-.4.1l-.5.4c-.1.1-.2.2-.2.4 0 .1.1.3.2.4.3.4 1.1 1.3 2.7 1.6.3.1.6.1 1.1.1h.5c2.5 0 4.3-1.6 4.3-3.8 0-1.7-1.2-2.6-2.1-3.1.6-.4 1.5-1.4 1.5-2.9 0-2.1-1.5-3.6-3.8-3.7h-.2z"/></defs><clipPath id="t"><use xlink:href="#s" overflow="visible"/></clipPath><radialGradient id="u" cx=".33" cy="96.633" r="1" gradientTransform="matrix(82.3335 0 0 -82.3335 7.664 7984.1)" gradientUnits="userSpaceOnUse"><stop offset="0" stop-color="#94c11f"/><stop offset="1" stop-color="#50842c"/></radialGradient><path clip-path="url(#t)" fill="url(#u)" d="M.3 81.6H9v13.5H.3z"/></g><g><defs><path id="v" d="M16.4 83.7H19v9.4h-5.6l3-9.4zm-.9-1.9c-.2 0-.5.2-.5.4l-3.5 10.9h-1.1c-.1 0-.1 0-.2.1s-.4.3-.4.6v2.3c0 .3.3.6.6.6h.6c.3 0 .6-.3.6-.6V95H21v1.1c0 .3.3.6.6.6h.6c.3 0 .6-.3.6-.6v-1.5-.1-.7c0-.3-.3-.5-.4-.6 0 0-.1-.1-.2-.1h-1.3V82.4c0-.3-.3-.6-.6-.6h-4.8z"/></defs><clipPath id="w"><use xlink:href="#v" overflow="visible"/></clipPath><radialGradient id="x" cx=".33" cy="96.633" r="1" gradientTransform="matrix(82.3337 0 0 -82.3337 7.665 7984.116)" gradientUnits="userSpaceOnUse"><stop offset="0" stop-color="#94c11f"/><stop offset="1" stop-color="#50842c"/></radialGradient><path clip-path="url(#w)" fill="url(#x)" d="M9.9 81.8h12.8v14.8H9.9z"/></g><g><defs><path id="y" d="M48.1 67.7H50c1 0 1.7.7 1.7 1.6 0 1-.8 1.7-1.7 1.7h-1.8v-3.3zm-1-1.5c-.3 0-.5.2-.5.5v8.7c0 .3.2.5.5.5h.5c.3 0 .5-.2.5-.5v-2.8H50c1.8 0 3.2-1.4 3.2-3.2 0-1.7-1.4-3.2-3.2-3.2h-2.9z"/></defs><clipPath id="z"><use xlink:href="#y" overflow="visible"/></clipPath><radialGradient id="A" cx=".33" cy="96.633" r="1" gradientTransform="matrix(82.3336 0 0 -82.3336 7.664 7984.11)" gradientUnits="userSpaceOnUse"><stop offset="0" stop-color="#94c11f"/><stop offset="1" stop-color="#50842c"/></radialGradient><path clip-path="url(#z)" fill="url(#A)" d="M46.6 66.2h6.6v9.7h-6.6z"/></g><g><defs><path id="B" d="M54.3 71.1c0 2.7 2.2 5 5 5 1.3 0 2.5-.5 3.4-1.3.1-.1.2-.3.2-.4 0-.1-.1-.2-.2-.3l-.4-.4c-.1-.1-.2-.1-.3-.1-.1 0-.2 0-.3.1-.7.5-1.3.9-2.4.9-1.9 0-3.4-1.6-3.4-3.5s1.5-3.5 3.4-3.5c.8 0 1.7.3 2.3.9.1.1.2.2.4.2.1 0 .2 0 .3-.2l.4-.4c.2-.2.2-.5 0-.7-1-.9-2.1-1.3-3.3-1.3-2.9 0-5.1 2.2-5.1 5"/></defs><clipPath id="C"><use xlink:href="#B" overflow="visible"/></clipPath><radialGradient id="D" cx=".33" cy="96.633" r="1" gradientTransform="matrix(82.3343 0 0 -82.3343 7.663 7984.18)" gradientUnits="userSpaceOnUse"><stop offset="0" stop-color="#94c11f"/><stop offset="1" stop-color="#50842c"/></radialGradient><path clip-path="url(#C)" fill="url(#D)" d="M54.3 66.1h8.6V76h-8.6z"/></g><g><defs><path id="E" d="M7.5 71.1c0 2.7 2.2 5 5 5 1.3 0 2.5-.5 3.4-1.3.1-.1.2-.3.2-.4 0-.1-.1-.2-.2-.3l-.4-.4c-.1-.1-.2-.1-.3-.1-.1 0-.2 0-.3.1-.7.5-1.3.9-2.3.9-1.9 0-3.4-1.6-3.4-3.5s1.5-3.5 3.4-3.5c.8 0 1.7.3 2.3.9.1.1.2.2.4.2.1 0 .2 0 .3-.2l.4-.4c.2-.2.2-.5 0-.7-1-.9-2.1-1.3-3.3-1.3-3 0-5.2 2.2-5.2 5"/></defs><clipPath id="F"><use xlink:href="#E" overflow="visible"/></clipPath><radialGradient id="G" cx=".33" cy="96.633" r="1" gradientTransform="matrix(82.3333 0 0 -82.3333 7.662 7984.076)" gradientUnits="userSpaceOnUse"><stop offset="0" stop-color="#94c11f"/><stop offset="1" stop-color="#50842c"/></radialGradient><path clip-path="url(#F)" fill="url(#G)" d="M7.5 66.1h8.6V76H7.5z"/></g><g><defs><path id="H" d="M69.9 66.2c-.2 0-.4.1-.4.2l-3.7 3.5v-3.1c0-.3-.3-.6-.6-.6h-.4c-.3 0-.6.3-.6.6v8.5c0 .3.2.6.6.6h.4c.3 0 .6-.3.6-.6v-3.5l3.7 3.9c.1.1.3.2.4.2h.7c.2 0 .4-.1.5-.3.1-.2 0-.4-.1-.5l-4.2-4.3 3.9-3.7c.2-.2.2-.4.2-.6-.1-.2-.3-.3-.5-.3h-.5z"/></defs><clipPath id="I"><use xlink:href="#H" overflow="visible"/></clipPath><radialGradient id="J" cx=".33" cy="96.633" r="1" gradientTransform="matrix(82.3334 0 0 -82.3334 7.664 7984.093)" gradientUnits="userSpaceOnUse"><stop offset="0" stop-color="#94c11f"/><stop offset="1" stop-color="#50842c"/></radialGradient><path clip-path="url(#I)" fill="url(#J)" d="M64.3 66.2h6.9v9.7h-6.9z"/></g><g><defs><path id="K" d="M72.5 71.1c0-2 1.6-3.6 3.5-3.6 2 0 3.5 1.6 3.5 3.6 0 1.9-1.6 3.5-3.5 3.5s-3.5-1.6-3.5-3.5m-1.4 0c0 2.8 2.2 5 5 5s5-2.2 5-5c0-2.7-2.2-5-5-5s-5 2.2-5 5"/></defs><clipPath id="L"><use xlink:href="#K" overflow="visible"/></clipPath><radialGradient id="M" cx=".33" cy="96.633" r="1" gradientTransform="matrix(82.334 0 0 -82.334 7.663 7984.15)" gradientUnits="userSpaceOnUse"><stop offset="0" stop-color="#94c11f"/><stop offset="1" stop-color="#50842c"/></radialGradient><path clip-path="url(#L)" fill="url(#M)" d="M71.1 66.1H81V76h-9.9z"/></g><g><defs><path id="N" d="M82.8 66.2c-.3 0-.5.2-.5.5v8.7c0 .3.2.5.5.5H88c.3 0 .5-.2.5-.5V75c0-.3-.2-.5-.5-.5h-4.1v-2.8h3.5c.3 0 .5-.2.5-.5v-.4c0-.3-.2-.5-.5-.5h-3.5v-2.7H88c.3 0 .5-.2.5-.5v-.4c0-.3-.2-.5-.5-.5h-5.2z"/></defs><clipPath id="O"><use xlink:href="#N" overflow="visible"/></clipPath><radialGradient id="P" cx=".33" cy="96.633" r="1" gradientTransform="matrix(82.3328 0 0 -82.3328 7.665 7984.03)" gradientUnits="userSpaceOnUse"><stop offset="0" stop-color="#94c11f"/><stop offset="1" stop-color="#50842c"/></radialGradient><path clip-path="url(#O)" fill="url(#P)" d="M82.3 66.2h6.2v9.7h-6.2z"/></g><g><defs><path id="Q" d="M24.3 66.4l-5 6.5v-6.2c0-.3-.2-.5-.5-.5h-.5c-.3 0-.5.2-.5.5v8.6c0 .2.1.4.3.4l.2.1h.2c.1 0 .3-.1.4-.2l5.1-6.5v6.2c0 .3.2.5.5.5h.5c.3 0 .5-.2.5-.5v-8.7c0-.2-.2-.3-.3-.4l-.2-.1h-.2c-.2.2-.4.2-.5.3"/></defs><clipPath id="R"><use xlink:href="#Q" overflow="visible"/></clipPath><radialGradient id="S" cx=".33" cy="96.633" r="1" gradientTransform="matrix(82.3346 0 0 -82.3346 7.664 7984.202)" gradientUnits="userSpaceOnUse"><stop offset="0" stop-color="#94c11f"/><stop offset="1" stop-color="#50842c"/></radialGradient><path clip-path="url(#R)" fill="url(#S)" d="M17.8 66.3h7.7V76h-7.7z"/></g><g><defs><path id="T" d="M42.9 66.4l-5 6.5v-6.2c0-.3-.2-.5-.5-.5h-.5c-.3 0-.5.2-.5.5v8.6c0 .2.1.4.3.4l.2.1h.2c.1 0 .3-.1.4-.2l5-6.5v6.2c0 .3.2.5.5.5h.5c.3 0 .5-.2.5-.5v-8.7c0-.2-.2-.3-.3-.4l-.2-.1h-.2c-.2.2-.3.2-.4.3"/></defs><clipPath id="U"><use xlink:href="#T" overflow="visible"/></clipPath><radialGradient id="V" cx=".33" cy="96.633" r="1" gradientTransform="matrix(82.3342 0 0 -82.3342 7.664 7984.168)" gradientUnits="userSpaceOnUse"><stop offset="0" stop-color="#94c11f"/><stop offset="1" stop-color="#50842c"/></radialGradient><path clip-path="url(#U)" fill="url(#V)" d="M36.4 66.3h7.7V76h-7.7z"/></g><g><defs><path id="W" d="M29.1 71.6h2.2c.8 0 1.3.5 1.3 1.2v.3c0 .8-.6 1.4-1.4 1.4h-2.1v-2.9zM28 66.2c-.2 0-.4.3-.4.5v8.7c0 .2.2.4.5.5h3c1.8 0 3.1-1.2 3.1-2.8v-.3c0-1-.6-1.9-1.5-2.4-.4-.2-.9-.3-1.5-.3h-2.1v-2.5h3.5c.3 0 .5-.2.5-.5v-.4c0-.3-.2-.5-.5-.5H28z"/></defs><clipPath id="X"><use xlink:href="#W" overflow="visible"/></clipPath><radialGradient id="Y" cx=".33" cy="96.633" r="1" gradientTransform="matrix(82.3336 0 0 -82.3336 7.664 7984.11)" gradientUnits="userSpaceOnUse"><stop offset="0" stop-color="#94c11f"/><stop offset="1" stop-color="#50842c"/></radialGradient><path clip-path="url(#X)" fill="url(#Y)" d="M27.6 66.2h6.6v9.7h-6.6z"/></g><g><defs><path id="Z" d="M34.9 20.8c-1.2-.4-2.4-.4-3.3.4-1.3 1.2-.5 5.9 2.8 6.2 2.1.2 3.4-1.6 3.8-3.4.3-1.7-.2-3.4-1.9-3.4-.5-.1-.9 0-1.4.2"/></defs><clipPath id="aa"><use xlink:href="#Z" overflow="visible"/></clipPath><radialGradient id="ab" cx=".33" cy="96.633" r="1" gradientTransform="matrix(82.3342 0 0 -82.3342 7.662 7984.162)" gradientUnits="userSpaceOnUse"><stop offset="0" stop-color="#94c11f"/><stop offset="1" stop-color="#50842c"/></radialGradient><path clip-path="url(#aa)" fill="url(#ab)" d="M30.3 20.4h8.2v7.2h-8.2z"/></g><g><defs><path id="ac" d="M48.4 11.8c-1.2-.4-2.4-.4-3.3.4-1.3 1.2-.5 5.9 2.8 6.2.6 0 1.1-.1 1.6-.3-.4 1.8.6 4.9 3.3 5.2 2.1.2 3.4-1.6 3.8-3.4.4-2.1-.5-4.2-3.3-3.2-.8-.2-1.5-.3-2.2-.2 1.1-2 .8-5-1.4-5-.3 0-.8.1-1.3.3"/></defs><clipPath id="ad"><use xlink:href="#ac" overflow="visible"/></clipPath><radialGradient id="ae" cx=".33" cy="96.633" r="1" gradientTransform="matrix(82.3336 0 0 -82.3336 7.662 7984.11)" gradientUnits="userSpaceOnUse"><stop offset="0" stop-color="#94c11f"/><stop offset="1" stop-color="#50842c"/></radialGradient><path clip-path="url(#ad)" fill="url(#ae)" d="M43.8 11.3H57v12.1H43.8z"/></g><g><defs><path id="af" d="M38.7 20.7c.4.7.6 1.5.6 2.3.4-.5.8-1.3.9-2.5-.4.1-1 .1-1.5.2"/></defs><clipPath id="ag"><use xlink:href="#af" overflow="visible"/></clipPath><radialGradient id="ah" cx=".33" cy="96.633" r="1" gradientTransform="matrix(82.3351 0 0 -82.3351 7.662 7984.257)" gradientUnits="userSpaceOnUse"><stop offset="0" stop-color="#94c11f"/><stop offset="1" stop-color="#50842c"/></radialGradient><path clip-path="url(#ag)" fill="url(#ah)" d="M38.7 20.6h1.5v2.5h-1.5z"/></g><g><defs><path id="ai" d="M35.8 53.8c-5.2-.8-9.7-4-11.9-8.7-2-4.2-2.4-12.9-2.4-17.6 0-1.6.1-3.3.2-4.9 1.6 1.1 4.8 3.4 4.9 3.5-.9-.6-1.7.1-2.4 1.3 3.1 1.7 2.7 1.7 3.9.4.5.4.7.9 1.6 1.5-1.7-.8-1.5 1.4-2 1.9 2.3.8 3.7.8 4-.2.5.4 1.6 1 2.1 1.2.3.7-2.5 0-2.7 2.9.5 0 1.1.1 1.6.3 1 .3 2.1.7 3.4-.3 1 .4 2.6 3.3 3.5 3.9 1.2 1.5 1.8 4.9 1.9 5 .1.7.5 2.7.7 3.4 1.6 1.3 1.4 4.9 1.3 7.1-2.6 0-5.2-.3-7.7-.7M21.9 20.1c.1-.6.1-1.2.2-1.8.9 1.4 2.4 3.5 2.5 3.8-.5-.4-1.9-1.4-2.7-2M73.2 14c.1.5.3 1 .3 1.5l.2 1c.1.7.2 1.5.3 2.2-.3.3-.6.5-.9.6.9-1.8 0-2.5-.7-3.5-2.2 2.3-2.4 3.1-1.5 5.3-.3.3-.8.5-1.3.8.3.1.6.3.9.5.3.3.5.6.7 1 1.1-1.2 2.2-2.4 3-3.2.1 1.1.2 2.2.3 3.4-.8.7-1.8 1.5-3 2.1-.1.8-.3 1.5-.6 2.1-.2.4-.4.8-.6 1.1.8-.7 2-1.5 2.3-1.4.1-.1 1.1-.8 2-1.2v1.2c0 2.5-.1 4.9-.3 7.4-.1 1.5-.2 3-.4 4.5-.2 1.2-.4 2.4-.7 3.6-1.6 5-5.8 9-11 10.4-.4.1-.8.2-1.1.3-.7-1.1-1.4-2.4-1.5-2.6-2.1-1.9-1.8-5-4.4-7.4-.7-1.3-1.5-4.1-1.6-6.8.4-.8 1.2-1.4 2.3-1.1 1.8.4 2.9-.1 3.7-.3 1.8 1.5 3.3 1.1 5.4.7-.6-2.1-2-2-2.3-2.4.4-.2 1.5-.9 1.7-.5.4 1.3 2.3 2.1 4.5 1.4.6-2.7-2.2-2.9-.7-3.4 2 1.5 3.1-.2 4.6-1.2-1.1-1.3-2.3-.7-3-.5-.8.8-1.9 1.2-3.1 1.1-.8-.1-1.6-.3-2.2-.8-1.3.9-2.6 1.8-3.5 2.3-.4.2.8-1.7.3-2.5-2 .2-3.6 1.4-2.9 3.4-1.2.5-2.4-.4-3.4-.5 2.9-3.7 5.5-5 7.7-5.4-.2-.6-.3-1.2-.3-1.8 0-.9.2-2 .9-2.6 1-1 2.3-1.1 3.6-.8.4-.5.8-.9.9-1.3 1.2-1.8 2.9-5.2 4.4-6.4h.3c.1-.1.4-.2.7-.3m-3.6-6.3c.8.9 1.5 1.8 2.1 2.8-.2.5-.5 1-.8 1.5 0 .9-.2 1.8-.6 2.5-.8 1.8-2.4 3-4.4 2.9-1.2-.1-2.3-.7-3.1-1.7-.1-.1-.2-.3-.3-.4-.3 1.8-1.2 3.1-2.9 2.9.9-.9 1.8-2.3 2.3-4.2-.2-.6-.3-1.3-.4-2 0-.9.2-2 .9-2.6.9-.8 2-1 3.1-.9.7-.5 1.3-.5 1.4-.6.3.3.6.5 1.1.5.5 0 1.1-.2 1.6-.7m-5.4-3.8c.8.3 1.5.7 2.2 1.1-1.6 1.4-3.1 2.4-3.8 4-.6-.5.2-3 1.6-5.1m-7.1-1.5c.6.1 1.3.2 1.9.2-1.8 1.5-4.6 3.4-6.2 5 .4-1.2 2.7-3.5 4.3-5.2m-22 .6c1.5-.3 3.1-.5 4.6-.7-.8 1.4-2.1 3.7-3.2 4.7.7-1.8-.3-2.3-.5-3.5-1.7.6-3.3 4-1.5 4.8 0 .7-.7 1.2-1.5 1.9.1 1 0 2.1-.4 3 .6-.5 1.3-1.1 2.1-1.6-.5 1.9-.5 4.7-1.1 6.5 0-.2-.6-2.2-1.9-2.5-.7 1.3-1.1 3.5 1.3 3.9.6 0 1.3.1 1.9.2.3-.1.7-.2 1-.2-.6-3.9.3-8.8 4.8-9.9-.2.9-.4 3.1-.2 4.6-.3-.8-1.2-1.8-1.9-1.8-1.2 1.4-.6 3 1.3 4.2-.6-.3-1.9-.2-2.7.7 1.3 3.4 2.3 2.3 3.2 2.1.5.2.9 8.5.4 10.1-.7-.5-1.8-1.9-2.6-3.2-.5.7-1.1 1.3-1.8 1.7.2.6.5 1.1.8 1.7.1.1 1.9 3.5 2.9 4.6 0 0-5.4-3.6-6.2-4.6.6-.2 1.3-.6 1.6-1.3-.4.1-.7.1-1.1.1-1.2-.1-2.3-.7-3.1-1.7-.1-.2-.3-.4-.4-.6-.5-.9-.9-2-.9-3.1 0-.8.1-1.7.6-2.3-.5-2-.4-3.6.2-4.9-.7.5-1.6.8-2.6.7-1-.1-1.9-.5-2.6-1.1.3.5.7 1.1 1.2 1.6 2.2 2.3 2.7 7.8 3 9.2-1.1-.3-2.2-1.6-3.1-3.2 1.1-.5.9-3.1-.3-5.3-.3 1.1-1.5.9-1.3 2.7-.6-.7-1.8-3.3-2.4-4.9.4-1.8 1.1-3.4 1.9-4.9-.2 1.9.8 4.7 3.5 4.9 2.1.2 3.5-1.7 3.9-3.5.4-2.2-.6-4.3-3.4-3.2-1-.3-2-.4-2.8 0 0-.1.1-.1 0-.1.3-.3.5-.7.8-1 .5-.1 1.1 0 1.7.1l.3-.6c1.6.4 3.3.4 4.3-2.6-.4-.1-1.3-.1-2.1 0 1.1-.9 2.6-1.4 4.3-1.7m8-1c1-.1 1.9-.1 2.9-.1-.6 2-3.3 4.2-4.5 5.9-1.1.4-1.8.5-3.7.9-.9-1 3.2-4.9 5.3-6.7m5.9-.1c1.6 0 3.3.1 4.9.2-.9 1.2-2.5 3-2.6 3.5-.4 1.3-1.5 3.5-2.7 5.2 1.1-.3 2.2-.3 3.1.4 0 0 .1 0 .1.1 1.1 1 1.2 2.7.8 4.2.2 0 .4.1.6.1.6-1.3 1.2-2.5 1.5-3.6 1.2 1.3 3.2-1.6 3.4-2.8-.9-.2-2.7-.7-3.3.6 1.1-2.6 4.3-4.4 7-6.1-2.9 3.6.7 4.5-3.2 11.4-1-1.2-.8-1-2.1-2-.1 0-.6 1.2-.7 2.4.4.1.7.3 1 .6 1.4 1.3 1.2 3.8.4 5.3-.3.6-.6 1.1-1 1.5.9-.7 1.8-1.4 2.7-2.2.3-.4 6.4-1.8 7.1-2.2.2.9-2.5 3.1-3.3 4.1-.2.1-2.6 2.7-2.8 2.6.7-1.6 1-1.7.7-3.6-1 .3-4 3.4-2.4 4.5 0 1.8-4 .3-6.3 3 .6-2.5 2-4.2 3.5-5.6-.7.5-1.6.7-2.6.7-1.2-.1-2.3-.7-3.1-1.7-.1-.2-.3-.4-.4-.6-.5-.8-.7-1.7-.8-2.6h-.2c-1.1 2.2-2.1 4.6-2.6 8.6-1-2.5-.9-6 .2-9.3-.4-.3-.7-.6-1.1-1-.1-.2-.3-.4-.4-.6 0-.1-.1-.1-.1-.2-.3 1-.7 2.3-1.5 3.8-.5-2.8-2.3-10.3 2.2-14.6-.8 2.6-.8 4.1-.6 5.5.5-.4 1-.7 1.6-.8-.1-.9 0-1.9.7-2.9.7.4 3.7-.1 3.7-4.7-2 .7-2.9 1.1-3.8 2.5-.6-.3 1.2-2.3 2.4-3.7M48.1.4c-3.4 0-6.8.2-10.2.7-1.6.2-2.8.4-3.9.7-8.1 1.8-12.7 8.1-13.7 18.5-.2 2.4-.3 4.9-.3 7.3 0 6.2.7 14.3 2.5 18.3 2.4 5.2 7.3 8.8 13.1 9.6 4.5.7 8.6 1 12.5 1 3.2 0 6.4-.2 9.6-.6h.4c1.5-.2 3.1-.4 4.5-.8 5.7-1.5 10.3-6 12-11.6.7-2.5 1-5.7 1.2-8.4.2-2.5.3-5 .3-7.5 0-4-.3-8.1-1-12.2L75 15C73.8 9 69.5 4.1 63.6 2.1 59 .6 51.9.4 48.1.4z"/></defs><clipPath id="aj"><use xlink:href="#ai" overflow="visible"/></clipPath><radialGradient id="ak" cx=".33" cy="96.633" r="1" gradientTransform="matrix(82.3338 0 0 -82.3338 7.662 7984.124)" gradientUnits="userSpaceOnUse"><stop offset="0" stop-color="#94c11f"/><stop offset="1" stop-color="#50842c"/></radialGradient><path clip-path="url(#aj)" fill="url(#ak)" d="M20 .4h56.1v56.1H20z"/></g><g><defs><path id="al" d="M66.6 9.8c-1.2-.4-2.4-.4-3.3.4-1.3 1.2-.5 5.9 2.8 6.2 2.1.2 3.4-1.6 3.8-3.4.3-1.7-.2-3.4-1.9-3.4-.5-.1-.9 0-1.4.2"/></defs><clipPath id="am"><use xlink:href="#al" overflow="visible"/></clipPath><radialGradient id="an" cx=".33" cy="96.633" r="1" gradientTransform="matrix(82.3317 0 0 -82.3317 7.664 7983.923)" gradientUnits="userSpaceOnUse"><stop offset="0" stop-color="#94c11f"/><stop offset="1" stop-color="#50842c"/></radialGradient><path clip-path="url(#am)" fill="url(#an)" d="M62 9.4h8.2v7.2H62z"/></g><g><defs><path id="ao" d="M67.1 23c-1.2-.4-2.4-.4-3.3.4-1.3 1.2-.5 5.9 2.8 6.2 2.1.2 3.4-1.6 3.8-3.5.3-1.7-.2-3.5-1.9-3.5-.5.2-.9.2-1.4.4"/></defs><clipPath id="ap"><use xlink:href="#ao" overflow="visible"/></clipPath><radialGradient id="aq" cx=".33" cy="96.633" r="1" gradientTransform="matrix(82.3342 0 0 -82.3342 7.662 7984.167)" gradientUnits="userSpaceOnUse"><stop offset="0" stop-color="#94c11f"/><stop offset="1" stop-color="#50842c"/></radialGradient><path clip-path="url(#ap)" fill="url(#aq)" d="M62.5 22.6h8.2v7.2h-8.2z"/></g></svg>