<svg xmlns="http://www.w3.org/2000/svg" xmlns:xlink="http://www.w3.org/1999/xlink" viewBox="0 0 292.3 33.7"><defs><path id="a" d="M0 33.7V0h292.3"/></defs><clipPath id="b"><use xlink:href="#a" overflow="visible"/></clipPath><path clip-path="url(#b)" fill="#FFF" d="M102.4 0L59.6 40.2l1.2.4L104 0h-1.6zm3.3 0L62 41l1.2.4L107.3 0h-1.6zm3.2 0L64.3 41.9l1.2.4 45-42.3h-1.6zm3.3 0L66.7 42.7l1.2.4 46-43.2h-1.7zm3.2 0L69 43.6l1.2.4 46.9-44h-1.7zm3.3 0L71.4 44.5l1.2.4L120.3 0h-1.6zm3.3 0L73.7 45.3l1.2.4L123.6 0H122zm3.2 0L76.1 46.2l1.2.4L126.8 0h-1.6zm3.3 0L78.4 47l1.2.4L130.1 0h-1.6zM76.3 0L33.5 40.2l1.2.4L77.9 0m1.7 0L35.9 41l1.2.4L81.2 0m1.6 0L38.2 41.9l1.2.4L84.5 0m1.6 0L40.6 42.7l1.2.4L87.7 0m1.6 0L42.9 43.6l1.2.4L91 0m1.6 0L45.3 44.5l1.2.4L94.2 0m1.7 0L47.6 45.3l1.2.4L97.5 0m1.6 0L50 46.2l1.2.4L100.8 0M50.2 0L7.5 40.2l1.2.4L51.9 0h-1.7zm3.3 0L9.8 41l1.2.4L55.1 0h-1.6zm3.2 0L12.1 41.9l1.2.4L58.4 0h-1.7zM60 0L14.5 42.7l1.2.4L61.6 0H60zm3.3 0L16.8 43.6l1.2.4L64.9 0h-1.6zm3.2 0L19.2 44.5l1.2.4L68.2 0h-1.7zm3.3 0L21.5 45.3l1.2.4L71.4 0h-1.6zM73 0L23.9 46.2l1.2.4L74.7 0H73zM24.1 0l-42.8 40.2 1.2.4L25.8 0m1.6 0l-43.7 41 1.2.4L29 0m1.7 0l-44.6 41.9 1.2.4L32.3 0m1.6 0l-45.5 42.7 1.2.4L35.6 0m1.6 0L-9.2 43.6l1.2.4L38.8 0m1.6 0L-6.9 44.5l1.2.4L42.1 0m1.6 0L-4.5 45.3l1.2.4L45.3 0M47 0L-2.2 46.2l1.2.4L48.6 0M1.4 0l-42.8 40.2 1.2.4L3 0m1.6 0L-39 41l1.2.4L6.3 0m1.6 0l-44.6 41.9 1.2.4L9.5 0m1.7 0l-45.5 42.7 1.2.4L12.8 0m1.6 0L-32 43.6l1.2.4L16.1 0m1.6 0l-47.3 44.5 1.2.4L19.3 0m1.6 0l-48.2 45.3 1.2.4L22.6 0m109.1 0l-23.3 21.9 1.2.4L133.4 0h-1.7zm3.3 0l-24.2 22.8 1.2.4L136.6 0H135zm3.3 0l-25.1 23.6 1.2.4L140 0h-1.7zm3.2 0l-26 24.5 1.2.4L143.2 0h-1.7zm3.3 0l-26.9 25.3 1.2.4L146.4 0h-1.6zm3.2 0l-27.8 26.2 1.2.4L149.7 0H148zm3.3 0l-28.8 27.1 1.2.4L152.9 0h-1.6zm3.3 0l-29.7 27.9 1.2.4L156.2 0h-1.6zm3.2 0l-30.6 28.8 1.2.4 31-29.2h-1.6zm3.3 0l-31.5 29.6.7.3.8-.1L162.7 0h-1.6zm3.2 0l-17.9 16.9 1.9-.2L166 0h-1.7zm3.3 0l-17.5 16.5 1.9-.2L169.2 0h-1.6zm3.3 0l-17 16 1.9-.2L172.5 0h-1.6zm3.2 0l-16.6 15.6 1.9-.2L175.8 0h-1.7zm3.3 0l-16.1 15.2 1.9-.2L179 0h-1.6zm3.2 0L165 14.7l1.9-.2L182.3 0h-1.7zm3.3 0l-15.2 14.3 1.9-.2 15-14.1h-1.7zm3.3 0l-14.7 13.9 1.9-.2L188.8 0h-1.6zm3.2 0l-14.3 13.5 1.9-.2L192.1 0h-1.7zm3.3 0l-13.8 13 1.9-.2L195.3 0h-1.6zm3.3 0l-13.4 12.6 1.9-.2L198.6 0H197zm3.2 0l-12.9 12.2 1.9-.2 12.6-12h-1.6zm3.3 0L191 11.7l1.9-.2L205.1 0h-1.6zm3.2 0l-12 11.3 1.9-.2L208.4 0h-1.7zm3.3 0l-11.5 10.9 1.9-.2L211.6 0H210zm3.3 0l-11.1 10.4 1.9-.2L214.9 0h-1.6zm3.2 0l-10.6 10 1.9-.2L218.2 0h-1.7zm3.3 0l-10.2 9.6 1.9-.2 9.9-9.4h-1.6zm3.2 0l-9.7 9.1 1.9-.2 9.5-8.9H223zm3.3 0L217 8.7l1.9-.2 9-8.5h-1.6zm3.3 0l-8.8 8.3 1.9-.2 8.6-8.1h-1.7zm3.2 0l-8.3 7.9 1.9-.2 8.1-7.6h-1.7zm3.3 0l-7.9 7.4 1.9-.2 7.7-7.2h-1.7zm3.3 0L232 7l1.9-.2L241 0h-1.6zm3.2 0l-7 6.6 1.9-.2 6.7-6.3h-1.6zm3.3 0l-6.5 6.1 1.9-.2 6.3-5.9h-1.7zm3.2 0L243 5.7l1.9-.2 5.8-5.5h-1.6zm3.3 0l-5.6 5.3 1.9-.2L254 0h-1.6zm3.2 0l-5.1 4.8 1.9-.2 4.9-4.6h-1.7zm3.3 0l-4.7 4.4 1.9-.2 4.5-4.2h-1.7zm3.3 0L258 4l1.9-.2 4-3.8h-1.7zm3.2 0l-3.8 3.6 1.9-.2L267 .1h-1.6zm3.3 0l-3.3 3.1 1.9-.2 3.1-2.9h-1.7zm3.2 0L269 2.7l1.9-.2 2.6-2.5h-1.6zm3.3 0l-2.4 2.3 1.9-.2 2.2-2h-1.7zm3.3 0l-1.9 1.8 1.9-.2 1.7-1.6h-1.7zm3.2 0l-1.5 1.4 1.9-.2 1.3-1.2h-1.7zm3.3 0l-1 1 1.9-.2.8-.8H285zm3.3 0l-.6.5 1.9-.2.3-.3h-1.6zm3.2 0l-.1.1.9-.1h-.8z"/></svg>