<svg id="Слой_1" data-name="Слой 1" xmlns="http://www.w3.org/2000/svg" viewBox="0 0 456.7 65"><defs><style>.cls-1{fill:none}.cls-2{clip-path:url(#clip-path)}.cls-3{fill:#dff1fd}</style><clipPath id="clip-path" transform="translate(56.7 -226.7)"><path class="cls-1" d="M0 273.1v-46.2h400"/></clipPath></defs><title>photo-of-the-day-bottom1</title><g class="cls-2"><path class="cls-3" d="M140.1 226.9l-58.6 55 1.6.5 59.1-55.6h-2.1v.1zm4.5 0L84.8 283l1.6.5 60.3-56.7h-2.1v.1zm4.4 0l-61 57.3 1.6.5 61.6-57.9a16.2 16.2 0 0 1-2.2.1zm4.5 0l-62.3 58.4 1.6.5 62.9-59.1h-2.3v.2h.1zm4.4 0l-63.5 59.7 1.6.5 64.2-60.2h-2.3zm4.5 0l-64.7 60.9 1.6.5 65.3-61.4h-2.2zm4.6 0l-66.1 62 1.6.5 66.6-62.5H167zm4.3 0l-67.2 63.2 1.6.5 67.7-63.8h-2.1v.1zm4.5 0l-68.6 64.3 1.6.5 69.1-64.9h-2.1v.1zm-71.4 0l-58.6 55 1.6.5 59.1-55.6m2.4.1L49.1 283l1.6.5 60.3-56.7m2.3.1l-61 57.3 1.6.5 61.7-57.9m2.2.1l-62.3 58.4 1.6.5 62.8-59m2.3.1l-63.5 59.7 1.6.5 64.2-60.2m2.2 0L62 287.8l1.6.5 65.3-61.4m2.3 0l-66.1 62 1.6.5 66.6-62.5m2.3 0l-67.2 63.2 1.6.5 67.9-63.8m-69.2.1l-58.4 55 1.6.5L71 226.9h-2.3zm4.5 0L13.4 283l1.6.5 60.3-56.7h-2.1v.1zm4.4 0l-61 57.3 1.6.5 61.7-57.9h-2.3v.1zm4.5 0l-62.3 58.4 1.6.5 62.8-59h-2.1v.1zm4.5 0L23 286.6l1.6.5 64.2-60.2h-2.2zm4.4 0l-64.7 60.9 1.6.5 65.4-61.4H91zm4.5 0l-66.1 62 1.6.5 66.6-62.5h-2.1zm4.4 0l-67.2 63.2 1.6.5 67.9-63.8h-2.3v.1zm-66.9 0l-58.6 55 1.6.5 59.3-55.6m2.2.1L-22.3 283l1.6.5 60.3-56.7m2.4.1l-61 57.3 1.6.5 61.6-57.9m2.2.1l-62.3 58.4 1.6.5 62.9-59m2.3.1l-63.5 59.7 1.6.5 64-60.2m2.3 0l-64.7 60.9 1.6.5 65.4-61.4m2.2 0l-66 62 1.6.5L62 226.9m2.3 0L-3 290.2l1.6.5 67.9-63.8m-64.6 0l-58.6 55 1.6.5L4 226.8m2.3.1L-53.4 283l1.6.5 60.3-56.7m2.3.1l-61 57.3 1.6.5L13 226.9m2.3 0L-47 285.3l1.6.5 62.8-59m2.3.1l-63.5 59.7 1.6.5L22 226.9m2.2 0l-64.7 60.9 1.6.5 65.3-61.4m2.2 0l-66 62 1.6.5 66.6-62.5m149.4 0l-31.9 30 1.6.5 32.6-30.5h-2.3zm4.5 0l-33.1 31.2 1.6.5 33.7-31.7h-2.2zm4.6 0L155 259.2l1.6.5 35-32.8h-2.3zm4.3 0L158 260.4l1.6.5 36.3-34.1h-2.3v.1zm4.6 0l-36.8 34.6 1.6.5 37.4-35.2h-2.2v.1zm4.3 0l-38 35.9 1.6.5 38.7-36.4h-2.3zm4.5 0L167.6 264l1.6.5 40-37.6H207zm4.6 0L171 265.1l1.6.5 41.2-38.7h-2.2zm4.3 0L174 266.3l1.6.5 42.4-40a14.08 14.08 0 0 1-2.1.1zm4.6 0l-43.1 40.5 1 .4 1.1-.1 43.2-40.8h-2.2zm4.3 0L200.3 250l2.6-.3 24.2-22.9h-2.3v.1zm4.6 0l-23.9 22.6 2.6-.3 23.5-22.3h-2.2zm4.5 0l-23.3 21.9 2.6-.3 22.9-21.6h-2.2zm4.3 0l-22.7 21.3 2.6-.3 22.4-21.1h-2.3v.1zm4.6 0l-22 20.8 2.6-.3 21.6-20.5h-2.2zm4.3 0L225.8 247l2.6-.3 21.1-19.8h-2.4zm4.6 0l-20.8 19.6 2.6-.3 20.5-19.3h-2.3zm4.5 0l-20.1 19 2.6-.3 19.7-18.7h-2.2zm4.4 0L241 245.4l2.6-.3 19.3-18.2h-2.3zm4.5 0l-18.9 17.8 2.6-.3 18.5-17.5h-2.2zm4.5 0l-18.3 17.2 2.6-.3 17.9-17h-2.2v.1zm4.4 0l-17.7 16.7 2.6-.3 17.2-16.4H274zm4.5 0l-17.1 16 2.6-.3 16.7-15.7h-2.2zm4.4 0l-16.4 15.5 2.6-.3 16.1-15.2h-2.3zm4.5 0l-15.7 14.9 2.6-.3 15.3-14.6h-2.2zm4.5 0l-15.2 14.2 2.6-.3 14.8-14h-2.2v.1zm4.4 0l-14.5 13.7 2.6-.3 14.2-13.4h-2.3zm4.5 0l-14 13.1 2.6-.3 13.5-12.9a14.08 14.08 0 0 1-2.1.1zm4.4 0l-13.3 12.5 2.6-.3 13-12.2h-2.3zm4.5 0L297 238.8l2.6-.3 12.3-11.6h-2.2zm4.5 0l-12 11.4 2.6-.3 11.8-11.1h-2.4zm4.4 0l-11.4 10.8 2.6-.3 11.1-10.4h-2.3v-.1zm4.5 0L312.3 237l2.6-.3 10.5-9.9a17.7 17.7 0 0 1-2.3.1zm4.5 0l-10.1 9.6 2.6-.3 9.7-9.3h-2.2zm4.4 0l-9.6 9 2.6-.3 9.2-8.6H332v-.1zm4.5 0l-8.9 8.3 2.6-.3 8.6-8.1h-2.3v.1zm4.4 0l-8.3 7.8 2.6-.3 7.9-7.5h-2.2zm4.5 0l-7.7 7.3 2.6-.3 7.3-7h-2.2zm4.4 0l-7 6.6 2.6-.3 6.7-6.3h-2.3zm4.5 0l-6.4 6 2.6-.3 6.2-5.7h-2.4zm4.5 0l-5.7 5.5 2.6-.3 5.5-5.2h-2.4zm4.4 0l-5.2 4.9 2.6-.3 4.8-4.5h-2.2v-.1zm4.5 0l-4.5 4.2 2.6-.3 4.2-4a17.7 17.7 0 0 1-2.3.1zm4.4 0l-4 3.7 2.6-.3 3.6-3.4h-2.2zm4.5 0l-3.3 3.1 2.6-.3 3-2.7h-2.3v-.1zm4.5 0l-2.6 2.5 2.6-.3 2.3-2.2h-2.3zm4.4 0l-2.1 1.9 2.6-.3 1.8-1.6h-2.3zm4.5 0l-1.4 1.4 2.6-.3 1.1-1.1H390zm4.5 0l-.8.7 2.6-.3.4-.4h-2.2zm4.4 0l-.1.1 1.2-.1h-1.1z" transform="translate(56.7 -226.7)"/></g></svg>