<svg id="Слой_3" data-name="Слой 3" xmlns="http://www.w3.org/2000/svg" viewBox="0 0 1030.21 177.86"><defs><style>.cls-1{fill:#fff}.cls-2{fill:none}.cls-3{clip-path:url(#clip-path)}.cls-4{clip-path:url(#clip-path-2)}.cls-5{fill:#00ace9}</style><clipPath id="clip-path"><path class="cls-1" d="M0 177.86V0l1034 77.44L0 177.86z"/></clipPath><clipPath id="clip-path-2"><path class="cls-2" d="M0 177.86V0l1034 77.44L0 177.86z"/></clipPath></defs><title>photoOfTheDayHatchingLeft-new</title><path class="cls-1" d="M0 177.86V0l1034 77.44L0 177.86z"/><g class="cls-3"><path class="cls-1" d="M-165.93 63.82l523.11-568.35 2.34 2L-163.6 65.79zm9.47 8l523.11-568.37-2.34-2L-158.8 69.83zm7.13 6l523.11-568.36-2.35-2-523.11 568.37zm7.13 6l523.1-568.36-2.34-2-523.11 568.38zm7.13 6L388-478.54l-2.34-2-523.08 568.38zm7.13 6l523.11-568.35-2.34-2-523.12 568.38zm7.13 6L402.3-466.53l-2.34-2-523.13 568.38zm7.13 6l523.1-568.34-2.34-2L-116 105.86zm7.12 6l523.11-568.34-2.34-2-523.11 568.38zm7.13 6l523.11-568.33-2.33-2-523.12 568.38zm7.13 6l523.11-568.33-2.34-2-523.11 568.38zm7.13 6L437.94-436.5l-2.34-2-523.11 568.38zm7.13 6L445.07-430.5l-2.34-2-523.11 568.38zm7.13 6L452.2-424.49l-2.35-2-523.11 568.37zm7.13 6l523.11-568.31-2.34-2-523.12 568.38zm7.13 6l523.11-568.3-2.34-2L-59 153.89zm7.13 6l523.11-568.3-2.34-2L-51.87 159.9zm7.13 6l523.1-568.3-2.34-2L-44.74 165.9zm7.13 6l523.11-568.29-2.34-2-523.12 568.38zm7.13 6L495-388.46l-2.34-2-523.14 568.37zm7.13 6l523.1-568.28-2.33-2-523.12 568.38zm7.13 6l523.1-568.28-2.34-2-523.11 568.38zm7.12 6l523.12-568.27-2.34-2L-9.09 195.93zm7.13 6L523.5-364.44l-2.34-2L-2 201.94zm7.13 6l523.11-568.26-2.34-2L5.17 207.94zm7.13 6l523.11-568.26-2.34-2L12.3 213.94zm7.13 6l523.11-568.25-2.34-2L19.43 219.95zm7.13 6L552-340.42l-2.34-2-523.1 568.37zm7.13 6l523.11-568.24-2.34-2L33.69 232zm7.13 6l523.11-568.24-2.34-2L40.82 238zm7.13 6l523.12-568.23-2.35-2L47.94 244zm7.13 6l523.11-568.23-2.35-2L55.07 250zm7.13 6L587.66-310.4l-2.34-2L62.21 256zm7.13 6L594.79-304.4l-2.34-2L69.33 262zm7.13 6l523.1-568.22-2.33-2L76.46 268zm7.13 6L609-292.39l-2.34-2L83.59 274zm7.13 6l523.11-568.2-2.34-2L90.72 280zm7.14 6l523.1-568.2-2.34-2L97.85 286zm7.13 6l523.1-568.19-2.34-2L105 292zm7.13 6l523.1-568.19-2.34-2L112.11 298zm7.13 6l523.1-568.18-2.34-2L119.24 304zm7.13 6l523.1-568.18-2.34-2L126.37 310zm7.12 6L659-250.35l-2.34-2L133.5 316zm7.13 6l523.1-568.17-2.34-2L140.63 322zm7.13 6l523.1-568.17-2.34-2L147.76 328zm7.13 6l523.1-568.16-2.34-2L154.89 334zm7.13 6l523.1-568.15-2.34-2L162 340zm7.13 6l523.1-568.15-2.34-2L169.14 346zm7.14 6l523.09-568.15-2.34-2L176.28 352zm7.13 6l523.09-568.14-2.34-2-523.11 568.38zm7.13 6L716-202.31l-2.34-2-523.12 568.37zm7.13 6l523.09-568.13-2.34-2-523.11 568.38zm7.13 6L730.25-190.3l-2.34-2L204.8 376.07zm7.13 6L737.37-184.3l-2.33-2-523.11 568.37zm7.13 6l523.09-568.11-2.34-2-523.12 568.37zm7.14 6l523.09-568.1-2.34-2L226.2 394.1zm7.13 6l523.09-568.09-2.34-2L233.33 400.1zm7.13 6l523.09-568.09-2.34-2-523.11 568.38zm7.13 6L773-154.27l-2.34-2-523.07 568.38zm7.13 6l523.09-568.08-2.34-2-523.11 568.38zm7.13 6L787.3-142.25l-2.34-2-523.11 568.37zm7.13 6l523.09-568.07-2.34-2L269 430.13zm7.14 6l523.08-568.06-2.34-2L276.1 436.13zm7.13 6l523.08-568.06-2.34-2-523.12 568.37zm7.13 6l523.08-568.06-2.34-2-523.12 568.38zm7.13 6L823-112.23l-2.34-2-523.17 568.37zm7.13 6l523.08-568.05-2.34-2-523.12 568.38zm7.13 6L837.2-100.23l-2.34-2-523.11 568.38zm7.13 6l523.08-568-2.34-2-523.12 568.34zm7.13 6l523.08-568-2.34-2L326 478.17zm7.13 6l523.07-568-2.34-2-523.11 568.35zm7.13 6l523.07-568-2.34-2-523.11 568.35zm7.13 6l523.07-568-2.34-2-523.12 568.36zm7.12 6L880-64.19l-2.34-2-523.14 568.37zm7.13 6l523.08-568-2.34-2-523.11 568.37zm7.13 6l523.08-568-2.34-2-523.11 568.37zm7.13 6l523.08-568-2.34-2L375.91 520.2zm7.13 6l523.08-568-2.34-2L383 526.2zm7.13 6l523.08-568-2.34-2-523.12 568.39zm7.13 6l523.08-568-2.34-2L397.3 538.21zm7.13 6l523.08-568-2.34-2-523.12 568.4zm7.13 6L937-16.15l-2.34-2-523.09 568.37zm7.13 6l523.08-568-2.34-2-523.12 568.41zm7.13 6l523.08-568-2.34-2-523.12 568.41zm7.13 6l523.08-568-2.34-2L433 568.23zm7.13 6l523.08-568-2.34-2-523.12 568.42zm7.13 6l523.08-568-2.34-2-523.12 568.43zm7.13 6l523.08-568-2.34-2-523.12 568.43zm7.13 6L986.92 25.88l-2.34-2-523.11 568.37zm7.13 6L994 31.88l-2.34-2L468.6 598.26zm7.13 6l523.08-567.93-2.34-2-523.12 568.38zm7.13 6l523.07-567.93-2.34-2-523.11 568.38zm7.13 6L1015.44 49.9l-2.34-2L490 616.28zm7.13 6L1022.57 55.9l-2.34-2-523.11 568.38zm7.13 6L1029.7 61.91l-2.34-2-523.11 568.37zm7.13 6l523.07-567.91-2.34-2-523.12 568.38zm7.13 6L1044 73.92l-2.34-2L518.51 640.3zm7.13 6l523.07-567.9-2.34-2L525.63 646.3zm7.13 6l523.07-567.9-2.34-2L532.76 652.3zm7.13 6l523.07-567.89L1063 90 539.89 658.31zm7.12 6l523.08-567.88-2.34-2L547 664.32zm7.13 6l523.11-568.34-2.34-2-523.15 568.84zm7.13 6l523.12-568.35-2.34-2-523.15 568.86zm7.13 6l523.11-568.35-2.34-2-523.15 568.86zm7.13 6L1101 122l-2.34-2-523.12 568.33zm7.13 6L1108.13 128l-2.34-2-523.12 568.34zm7.13 6L1115.26 134l-2.34-2L589.8 700.34zm7.13 6L1122.39 140l-2.34-2-523.12 568.35zm7.13 6L1129.51 146l-2.34-2-523.11 568.35z"/></g><g class="cls-4"><path class="cls-5" d="M-165.93 63.82l523.11-568.35 2.34 2L-163.6 65.79zm9.47 8l523.11-568.37-2.34-2L-158.8 69.83zm7.13 6l523.11-568.36-2.35-2-523.11 568.37zm7.13 6l523.1-568.36-2.34-2-523.11 568.38zm7.13 6L388-478.54l-2.34-2-523.08 568.38zm7.13 6l523.11-568.35-2.34-2-523.12 568.38zm7.13 6L402.3-466.53l-2.34-2-523.13 568.38zm7.13 6l523.1-568.34-2.34-2L-116 105.86zm7.12 6l523.11-568.34-2.34-2-523.11 568.38zm7.13 6l523.11-568.33-2.33-2-523.12 568.38zm7.13 6l523.11-568.33-2.34-2-523.11 568.38zm7.13 6L437.94-436.5l-2.34-2-523.11 568.38zm7.13 6L445.07-430.5l-2.34-2-523.11 568.38zm7.13 6L452.2-424.49l-2.35-2-523.11 568.37zm7.13 6l523.11-568.31-2.34-2-523.12 568.38zm7.13 6l523.11-568.3-2.34-2L-59 153.89zm7.13 6l523.11-568.3-2.34-2L-51.87 159.9zm7.13 6l523.1-568.3-2.34-2L-44.74 165.9zm7.13 6l523.11-568.29-2.34-2-523.12 568.38zm7.13 6L495-388.46l-2.34-2-523.14 568.37zm7.13 6l523.1-568.28-2.33-2-523.12 568.38zm7.13 6l523.1-568.28-2.34-2-523.11 568.38zm7.12 6l523.12-568.27-2.34-2L-9.09 195.93zm7.13 6L523.5-364.44l-2.34-2L-2 201.94zm7.13 6l523.11-568.26-2.34-2L5.17 207.94zm7.13 6l523.11-568.26-2.34-2L12.3 213.94zm7.13 6l523.11-568.25-2.34-2L19.43 219.95zm7.13 6L552-340.42l-2.34-2-523.1 568.37zm7.13 6l523.11-568.24-2.34-2L33.69 232zm7.13 6l523.11-568.24-2.34-2L40.82 238zm7.13 6l523.12-568.23-2.35-2L47.94 244zm7.13 6l523.11-568.23-2.35-2L55.07 250zm7.13 6L587.66-310.4l-2.34-2L62.21 256zm7.13 6L594.79-304.4l-2.34-2L69.33 262zm7.13 6l523.1-568.22-2.33-2L76.46 268zm7.13 6L609-292.39l-2.34-2L83.59 274zm7.13 6l523.11-568.2-2.34-2L90.72 280zm7.14 6l523.1-568.2-2.34-2L97.85 286zm7.13 6l523.1-568.19-2.34-2L105 292zm7.13 6l523.1-568.19-2.34-2L112.11 298zm7.13 6l523.1-568.18-2.34-2L119.24 304zm7.13 6l523.1-568.18-2.34-2L126.37 310zm7.12 6L659-250.35l-2.34-2L133.5 316zm7.13 6l523.1-568.17-2.34-2L140.63 322zm7.13 6l523.1-568.17-2.34-2L147.76 328zm7.13 6l523.1-568.16-2.34-2L154.89 334zm7.13 6l523.1-568.15-2.34-2L162 340zm7.13 6l523.1-568.15-2.34-2L169.14 346zm7.14 6l523.09-568.15-2.34-2L176.28 352zm7.13 6l523.09-568.14-2.34-2-523.11 568.38zm7.13 6L716-202.31l-2.34-2-523.12 568.37zm7.13 6l523.09-568.13-2.34-2-523.11 568.38zm7.13 6L730.25-190.3l-2.34-2L204.8 376.07zm7.13 6L737.37-184.3l-2.33-2-523.11 568.37zm7.13 6l523.09-568.11-2.34-2-523.12 568.37zm7.14 6l523.09-568.1-2.34-2L226.2 394.1zm7.13 6l523.09-568.09-2.34-2L233.33 400.1zm7.13 6l523.09-568.09-2.34-2-523.11 568.38zm7.13 6L773-154.27l-2.34-2-523.07 568.38zm7.13 6l523.09-568.08-2.34-2-523.11 568.38zm7.13 6L787.3-142.25l-2.34-2-523.11 568.37zm7.13 6l523.09-568.07-2.34-2L269 430.13zm7.14 6l523.08-568.06-2.34-2L276.1 436.13zm7.13 6l523.08-568.06-2.34-2-523.12 568.37zm7.13 6l523.08-568.06-2.34-2-523.12 568.38zm7.13 6L823-112.23l-2.34-2-523.17 568.37zm7.13 6l523.08-568.05-2.34-2-523.12 568.38zm7.13 6L837.2-100.23l-2.34-2-523.11 568.38zm7.13 6l523.08-568-2.34-2-523.12 568.34zm7.13 6l523.08-568-2.34-2L326 478.17zm7.13 6l523.07-568-2.34-2-523.11 568.35zm7.13 6l523.07-568-2.34-2-523.11 568.35zm7.13 6l523.07-568-2.34-2-523.12 568.36zm7.12 6L880-64.19l-2.34-2-523.14 568.37zm7.13 6l523.08-568-2.34-2-523.11 568.37zm7.13 6l523.08-568-2.34-2-523.11 568.37zm7.13 6l523.08-568-2.34-2L375.91 520.2zm7.13 6l523.08-568-2.34-2L383 526.2zm7.13 6l523.08-568-2.34-2-523.12 568.39zm7.13 6l523.08-568-2.34-2L397.3 538.21zm7.13 6l523.08-568-2.34-2-523.12 568.4zm7.13 6L937-16.15l-2.34-2-523.09 568.37zm7.13 6l523.08-568-2.34-2-523.12 568.41zm7.13 6l523.08-568-2.34-2-523.12 568.41zm7.13 6l523.08-568-2.34-2L433 568.23zm7.13 6l523.08-568-2.34-2-523.12 568.42zm7.13 6l523.08-568-2.34-2-523.12 568.43zm7.13 6l523.08-568-2.34-2-523.12 568.43zm7.13 6L986.92 25.88l-2.34-2-523.11 568.37zm7.13 6L994 31.88l-2.34-2L468.6 598.26zm7.13 6l523.08-567.93-2.34-2-523.12 568.38zm7.13 6l523.07-567.93-2.34-2-523.11 568.38zm7.13 6L1015.44 49.9l-2.34-2L490 616.28zm7.13 6L1022.57 55.9l-2.34-2-523.11 568.38zm7.13 6L1029.7 61.91l-2.34-2-523.11 568.37zm7.13 6l523.07-567.91-2.34-2-523.12 568.38zm7.13 6L1044 73.92l-2.34-2L518.51 640.3zm7.13 6l523.07-567.9-2.34-2L525.63 646.3zm7.13 6l523.07-567.9-2.34-2L532.76 652.3zm7.13 6l523.07-567.89L1063 90 539.89 658.31zm7.12 6l523.08-567.88-2.34-2L547 664.32zm7.13 6l523.11-568.34-2.34-2-523.15 568.84zm7.13 6l523.12-568.35-2.34-2-523.15 568.86zm7.13 6l523.11-568.35-2.34-2-523.15 568.86zm7.13 6L1101 122l-2.34-2-523.12 568.33zm7.13 6L1108.13 128l-2.34-2-523.12 568.34zm7.13 6L1115.26 134l-2.34-2L589.8 700.34zm7.13 6L1122.39 140l-2.34-2-523.12 568.35zm7.13 6L1129.51 146l-2.34-2-523.11 568.35z"/></g></svg>