<svg id="Слой_2" data-name="Слой 2" xmlns="http://www.w3.org/2000/svg" viewBox="0 0 890.17 154.84"><defs><style>.cls-1{fill:#fff}.cls-2{fill:none}.cls-3{clip-path:url(#clip-path)}.cls-4{clip-path:url(#clip-path-2)}.cls-5{fill:#c4e7fb}</style><clipPath id="clip-path"><path class="cls-1" d="M890.17 154.84V0L0 77l890.17 77.84z"/></clipPath><clipPath id="clip-path-2"><path class="cls-2" d="M890.17 154.84V0L0 77l890.17 77.84z"/></clipPath></defs><title>photoOfTheDayHatchingRight-new1</title><path class="cls-1" d="M890.17 154.84V0L0 77l890.17 77.84z"/><g class="cls-3"><path class="cls-1" d="M-129.77 73.82l523.11-568.35 2.34 2-523.11 568.32zm9.47 8l523.11-568.37-2.34-2-523.11 568.38zm7.13 6L410-480.54l-2.35-2-523.16 568.37zm7.13 6l523.11-568.36-2.34-2-523.11 568.38zm7.13 6L424.2-468.54l-2.34-2-523.11 568.38zm7.13 6l523.11-568.35-2.34-2-523.12 568.38zm7.13 6l523.11-568.35-2.34-2L-87 109.85zm7.13 6l523.11-568.34-2.34-2-523.12 568.38zm7.12 6l523.12-568.34-2.34-2-523.12 568.38zm7.13 6l523.12-568.33-2.33-2-523.13 568.38zm7.13 6L467-432.51l-2.34-2-523.14 568.38zm7.13 6L474.11-426.5l-2.34-2-523.12 568.38zm7.13 6L481.24-420.5l-2.34-2-523.12 568.38zm7.13 6l523.12-568.31-2.35-2-523.11 568.37zm7.13 6L495.5-408.49l-2.34-2L-30 157.89zm7.13 6l523.11-568.3-2.34-2-523.11 568.37zm7.13 6l523.11-568.3-2.34-2L-15.7 169.9zm7.13 6l523.11-568.3-2.34-2L-8.57 175.9zm7.13 6L524-384.47l-2.34-2-523.1 568.38zm7.13 6l523.11-568.28-2.34-2L5.68 187.91zm7.13 6l523.11-568.28-2.34-2L12.82 193.92zm7.13 6L545.4-366.46l-2.34-2L20 199.92zm7.13 6l523.11-568.27-2.34-2L27.08 205.93zm7.13 6l523.11-568.26-2.34-2L34.21 211.94zm7.13 6l523.11-568.26-2.34-2L41.34 217.94zm7.13 6l523.11-568.26-2.34-2L48.47 223.94zm7.13 6L581-336.43l-2.34-2L55.6 229.95zm7.13 6l523.11-568.24-2.34-2L62.72 235.95zm7.13 6l523.11-568.24-2.34-2L69.85 242zm7.13 6l523.11-568.24-2.34-2L77 248zm7.13 6l523.11-568.23-2.35-2L84.11 254zm7.13 6L616.7-306.41l-2.35-2L91.24 260zm7.13 6L623.83-300.4l-2.34-2L98.37 266zm7.13 6L631-294.4l-2.34-2L105.5 272zm7.13 6l523.1-568.22-2.33-2L112.63 278zm7.13 6l523.1-568.21-2.34-2L119.76 284zm7.13 6l523.11-568.2-2.34-2L126.89 290zm7.14 6l523.09-568.2-2.34-2L134 296zm7.13 6L666.6-264.37l-2.34-2L141.15 302zm7.13 6l523.1-568.19-2.34-2L148.28 308zm7.13 6l523.09-568.18-2.34-2L155.41 314zm7.13 6L688-246.36l-2.34-2L162.54 320zm7.12 6l523.1-568.17-2.34-2L169.67 326zm7.13 6l523.1-568.17-2.34-2L176.79 332zm7.13 6l523.1-568.17-2.34-2L183.92 338zm7.13 6l523.1-568.16-2.34-2L191.05 344zm7.13 6l523.1-568.15-2.34-2L198.18 350zm7.13 6l523.1-568.15-2.34-2L205.31 356zm7.14 6l523.08-568.15-2.34-2L212.44 362zm7.13 6L745-198.32l-2.34-2-523.09 568.38zm7.13 6l523.09-568.13-2.34-2-523.11 568.37zm7.13 6l523.09-568.13-2.34-2-523.12 568.38zm7.13 6L766.42-180.3l-2.34-2L241 386.07zm7.13 6L773.54-174.3l-2.33-2-523.12 568.37zm7.13 6l523.09-568.11-2.34-2-523.12 568.37zm7.14 6l523.09-568.1-2.34-2L262.37 404.1zm7.13 6L795-156.27l-2.34-2L269.5 410.1zm7.13 6l523.09-568.09-2.34-2-523.12 568.38zm7.13 6l523.09-568.09-2.34-2-523.12 568.38zm7.13 6l523.09-568.08-2.34-2-523.12 568.38zm7.13 6l523.09-568.07-2.34-2L298 434.12zm7.13 6L830.6-126.25l-2.34-2-523.12 568.38zm7.14 6l523.08-568.06-2.34-2-523.12 568.37zm7.13 6l523.08-568.06-2.34-2L319.4 452.13zm7.13 6L852-108.24l-2.34-2-523.13 568.38zm7.13 6l523.07-568.05-2.34-2-523.11 568.37zm7.13 6L866.24-96.23l-2.34-2-523.11 568.38zm7.13 6L873.37-90.23l-2.34-2-523.12 568.38zm7.13 6l523.07-568-2.34-2L355 482.16zm7.13 6l523.07-568-2.34-2-523.11 568.35zm7.13 6l523.07-568-2.34-2-523.11 568.35zm7.13 6l523.07-568-2.34-2-523.11 568.35zm7.13 6l523-568-2.34-2-523.05 568.36zm7.12 6l523.08-568-2.34-2-523.12 568.36zm7.13 6l523.08-568-2.34-2-523.11 568.37zm7.13 6l523.08-568-2.34-2L405 524.19zm7.13 6l523.07-568-2.34-2L412.08 530.2zm7.13 6l523.08-568-2.34-2L419.21 536.2zm7.13 6l523.07-568-2.34-2-523.11 568.39zm7.13 6l523.08-568-2.34-2-523.12 568.39zm7.13 6l523.08-568-2.34-2-523.12 568.4zm7.13 6l523.08-568-2.34-2-523.12 568.4zm7.13 6L980.32-.15l-2.34-2-523.12 568.38zm7.13 6l523.07-568-2.34-2L462 572.23zm7.13 6l523.07-568-2.34-2-523.12 568.41zm7.13 6l523.07-568-2.34-2-523.11 568.42zm7.13 6l523.07-568-2.34-2-523.11 568.43zm7.13 6L1016 29.87l-2.34-2L490.5 596.25zm7.13 6l523.07-567.94-2.34-2-523.12 568.37zm7.13 6l523.07-567.94-2.34-2-523.12 568.38zm7.13 6l523.07-567.93-2.34-2-523.12 568.38zm7.13 6l523.07-567.93-2.34-2L519 620.27zm7.13 6L1051.61 59.9l-2.34-2-523.11 568.38zm7.13 6L1058.74 65.9l-2.34-2-523.11 568.38zm7.13 6l523.07-567.91-2.34-2-523.12 568.37zm7.13 6L1073 77.91l-2.34-2-523.12 568.38zm7.13 6l523.07-567.9-2.34-2L554.67 650.3zm7.13 6l523.06-567.9-2.34-2L561.8 656.3zm7.13 6l523.06-567.9L1092 94 568.93 662.3zm7.13 6l523.11-568.35-2.34-2-523.16 568.84zm7.12 6l523.12-568.35-2.34-2-523.16 568.85zm7.13 6l523.11-568.34-2.34-2-523.15 568.84zm7.13 6L1123 119.47l-2.34-2-523.21 568.86zm7.13 6l523-567.87-2.34-2-523.04 568.38zm7.13 6L1137.16 132l-2.34-2L611.7 698.33zm7.13 6L1144.29 138l-2.34-2-523.11 568.34zm7.13 6L1151.42 144l-2.34-2L626 710.34zm7.13 6L1158.55 150l-2.34-2L633.1 716.35zm7.13 6L1165.68 156l-2.34-2-523.11 568.35z"/></g><g class="cls-4"><path class="cls-5" d="M-129.77 73.82l523.11-568.35 2.34 2-523.11 568.32zm9.47 8l523.11-568.37-2.34-2-523.11 568.38zm7.13 6L410-480.54l-2.35-2-523.16 568.37zm7.13 6l523.11-568.36-2.34-2-523.11 568.38zm7.13 6L424.2-468.54l-2.34-2-523.11 568.38zm7.13 6l523.11-568.35-2.34-2-523.12 568.38zm7.13 6l523.11-568.35-2.34-2L-87 109.85zm7.13 6l523.11-568.34-2.34-2-523.12 568.38zm7.12 6l523.12-568.34-2.34-2-523.12 568.38zm7.13 6l523.12-568.33-2.33-2-523.13 568.38zm7.13 6L467-432.51l-2.34-2-523.14 568.38zm7.13 6L474.11-426.5l-2.34-2-523.12 568.38zm7.13 6L481.24-420.5l-2.34-2-523.12 568.38zm7.13 6l523.12-568.31-2.35-2-523.11 568.37zm7.13 6L495.5-408.49l-2.34-2L-30 157.89zm7.13 6l523.11-568.3-2.34-2-523.11 568.37zm7.13 6l523.11-568.3-2.34-2L-15.7 169.9zm7.13 6l523.11-568.3-2.34-2L-8.57 175.9zm7.13 6L524-384.47l-2.34-2-523.1 568.38zm7.13 6l523.11-568.28-2.34-2L5.68 187.91zm7.13 6l523.11-568.28-2.34-2L12.82 193.92zm7.13 6L545.4-366.46l-2.34-2L20 199.92zm7.13 6l523.11-568.27-2.34-2L27.08 205.93zm7.13 6l523.11-568.26-2.34-2L34.21 211.94zm7.13 6l523.11-568.26-2.34-2L41.34 217.94zm7.13 6l523.11-568.26-2.34-2L48.47 223.94zm7.13 6L581-336.43l-2.34-2L55.6 229.95zm7.13 6l523.11-568.24-2.34-2L62.72 235.95zm7.13 6l523.11-568.24-2.34-2L69.85 242zm7.13 6l523.11-568.24-2.34-2L77 248zm7.13 6l523.11-568.23-2.35-2L84.11 254zm7.13 6L616.7-306.41l-2.35-2L91.24 260zm7.13 6L623.83-300.4l-2.34-2L98.37 266zm7.13 6L631-294.4l-2.34-2L105.5 272zm7.13 6l523.1-568.22-2.33-2L112.63 278zm7.13 6l523.1-568.21-2.34-2L119.76 284zm7.13 6l523.11-568.2-2.34-2L126.89 290zm7.14 6l523.09-568.2-2.34-2L134 296zm7.13 6L666.6-264.37l-2.34-2L141.15 302zm7.13 6l523.1-568.19-2.34-2L148.28 308zm7.13 6l523.09-568.18-2.34-2L155.41 314zm7.13 6L688-246.36l-2.34-2L162.54 320zm7.12 6l523.1-568.17-2.34-2L169.67 326zm7.13 6l523.1-568.17-2.34-2L176.79 332zm7.13 6l523.1-568.17-2.34-2L183.92 338zm7.13 6l523.1-568.16-2.34-2L191.05 344zm7.13 6l523.1-568.15-2.34-2L198.18 350zm7.13 6l523.1-568.15-2.34-2L205.31 356zm7.14 6l523.08-568.15-2.34-2L212.44 362zm7.13 6L745-198.32l-2.34-2-523.09 568.38zm7.13 6l523.09-568.13-2.34-2-523.11 568.37zm7.13 6l523.09-568.13-2.34-2-523.12 568.38zm7.13 6L766.42-180.3l-2.34-2L241 386.07zm7.13 6L773.54-174.3l-2.33-2-523.12 568.37zm7.13 6l523.09-568.11-2.34-2-523.12 568.37zm7.14 6l523.09-568.1-2.34-2L262.37 404.1zm7.13 6L795-156.27l-2.34-2L269.5 410.1zm7.13 6l523.09-568.09-2.34-2-523.12 568.38zm7.13 6l523.09-568.09-2.34-2-523.12 568.38zm7.13 6l523.09-568.08-2.34-2-523.12 568.38zm7.13 6l523.09-568.07-2.34-2L298 434.12zm7.13 6L830.6-126.25l-2.34-2-523.12 568.38zm7.14 6l523.08-568.06-2.34-2-523.12 568.37zm7.13 6l523.08-568.06-2.34-2L319.4 452.13zm7.13 6L852-108.24l-2.34-2-523.13 568.38zm7.13 6l523.07-568.05-2.34-2-523.11 568.37zm7.13 6L866.24-96.23l-2.34-2-523.11 568.38zm7.13 6L873.37-90.23l-2.34-2-523.12 568.38zm7.13 6l523.07-568-2.34-2L355 482.16zm7.13 6l523.07-568-2.34-2-523.11 568.35zm7.13 6l523.07-568-2.34-2-523.11 568.35zm7.13 6l523.07-568-2.34-2-523.11 568.35zm7.13 6l523-568-2.34-2-523.05 568.36zm7.12 6l523.08-568-2.34-2-523.12 568.36zm7.13 6l523.08-568-2.34-2-523.11 568.37zm7.13 6l523.08-568-2.34-2L405 524.19zm7.13 6l523.07-568-2.34-2L412.08 530.2zm7.13 6l523.08-568-2.34-2L419.21 536.2zm7.13 6l523.07-568-2.34-2-523.11 568.39zm7.13 6l523.08-568-2.34-2-523.12 568.39zm7.13 6l523.08-568-2.34-2-523.12 568.4zm7.13 6l523.08-568-2.34-2-523.12 568.4zm7.13 6L980.32-.15l-2.34-2-523.12 568.38zm7.13 6l523.07-568-2.34-2L462 572.23zm7.13 6l523.07-568-2.34-2-523.12 568.41zm7.13 6l523.07-568-2.34-2-523.11 568.42zm7.13 6l523.07-568-2.34-2-523.11 568.43zm7.13 6L1016 29.87l-2.34-2L490.5 596.25zm7.13 6l523.07-567.94-2.34-2-523.12 568.37zm7.13 6l523.07-567.94-2.34-2-523.12 568.38zm7.13 6l523.07-567.93-2.34-2-523.12 568.38zm7.13 6l523.07-567.93-2.34-2L519 620.27zm7.13 6L1051.61 59.9l-2.34-2-523.11 568.38zm7.13 6L1058.74 65.9l-2.34-2-523.11 568.38zm7.13 6l523.07-567.91-2.34-2-523.12 568.37zm7.13 6L1073 77.91l-2.34-2-523.12 568.38zm7.13 6l523.07-567.9-2.34-2L554.67 650.3zm7.13 6l523.06-567.9-2.34-2L561.8 656.3zm7.13 6l523.06-567.9L1092 94 568.93 662.3zm7.13 6l523.11-568.35-2.34-2-523.16 568.84zm7.12 6l523.12-568.35-2.34-2-523.16 568.85zm7.13 6l523.11-568.34-2.34-2-523.15 568.84zm7.13 6L1123 119.47l-2.34-2-523.21 568.86zm7.13 6l523-567.87-2.34-2-523.04 568.38zm7.13 6L1137.16 132l-2.34-2L611.7 698.33zm7.13 6L1144.29 138l-2.34-2-523.11 568.34zm7.13 6L1151.42 144l-2.34-2L626 710.34zm7.13 6L1158.55 150l-2.34-2L633.1 716.35zm7.13 6L1165.68 156l-2.34-2-523.11 568.35z"/></g></svg>