<svg xmlns="http://www.w3.org/2000/svg" viewBox="0 0 292.31 33.72"><defs><style>.cls-1{fill:#dff2fd}.cls-2{fill:#7ecef3}</style></defs><title>photo-of-the-day-bg</title><g id="Слой_2" data-name="Слой 2"><g id="Слой_1-2" data-name="Слой 1"><path class="cls-1" d="M150.2 16.58L149 17l.29.27 1.91.22zm2.4-.88l-1.21.44 1.7 1.58 1.91.22zm2.4-.88l-1.2.44 3.11 2.9 1.91.22zm2.41-.88l-1.21.44 4.52 4.22 1.92.22zm2.39-.87l-1.2.44 5.94 5.49 1.91.22zm2.4-.88l-1.2.44 7.35 6.86 1.9.22zm2.41-.88l-1.2.44 8.76 8.17 1.91.22zm2.39-.88l-1.2.44 10.2 9.48 1.91.22zm2.41-.88l-1.2.44 11.59 10.8 1.91.22zm2.4-.88l-1.2.44 13 12.12 1.91.22zm2.4-.88l-1.2.44 14.41 13.44 1.91.22zm2.41-.88l-1.21.44 15.82 14.76 1.92.22zM179 6l-1.2.44 17.24 16.08 1.91.22zm2.4-.88l-1.2.44L198.88 23l1.9.22zm2.41-.88l-1.21.44 20.06 18.71 1.92.22zm2.4-.88l-1.2.44 21.47 20 1.91.22zm2.4-.88l-1.2.44 22.91 21.38 1.9.22zm2.39-.84l-1.21.44 24.29 22.66L216 25zm2.4-.88l-1.19.44 25.71 24 1.9.22zM291.33 0l1 .92V0zM288 0l4.33 4V2.48L289.65 0zm-3.35 0l7.68 7.16V5.6l-6-5.6zm-3.35 0l11 10.27V8.72L283 0zm-3.35 0l14.37 13.4v-1.56L279.62 0zm-3.35 0l17.72 16.52V15l-16-15zm-3.33 0l21 19.63v-1.55L272.93 0zm-3.35 0l24.4 22.76V21.2L269.58 0zm-3.35 0l27.75 25.88v-1.56L266.23 0zm-3.34 0l31.09 29v-1.57L262.9 0zm-3.35 0l34.44 32.12v-1.56L259.55 0zm-3.35 0l35.92 33.5 1.87.22L256.2 0zm-3.34 0l35.45 33.06 1.9.22L252.86 0zm-3.35 0l35 32.62 1.91.22L249.51 0zm-3.34 0L279 32.19l1.91.22L246.16 0zm-3.34 0l34 31.75 1.91.22L242.82 0zm-3.36 0l33.57 31.31 1.91.22L239.48 0zm-3.34 0l33.1 30.87 1.9.22L236.12 0zm-3.34 0l32.62 30.43 1.92.22L232.79 0zm-3.35 0l32.16 30 1.91.22L229.44 0zm-3.35 0l31.68 29.56 1.91.22L226.09 0zm-3.34 0l31.22 29.12 1.92.22L222.75 0zm-3.35 0l30.75 28.68 1.91.22L219.4 0zm-3.35 0l30.28 28.24 1.92.22L216.06 0zM211 0l29.81 27.8 1.91.22-30-28zm-3.35 0L237 27.37l1.91.22L209.36 0zm-3.35 0l28.87 26.93 1.91.22L206 0zM201 0l28.4 26.49 1.91.22L202.67 0zm-3.35 0l27.93 26.05 1.91.22L199.33 0zm-2.15 0l-.86.32 27.12 25.3 1.91.22L196 0z"/><path class="cls-2" d="M194.81 0l.17.16.44-.16zm-3.26 0l1.08 1 1.17-.43-.62-.57zm-3.27 0l2 1.88 1.17-.43L189.91 0zM185 0l2.91 2.74 1.17-.43L186.66 0zm-3.27 0l3.83 3.6 1.18-.43L183.4 0zm-3.23 0l4.74 4.47 1.18-.47-4.28-4zm-3.26 0l5.65 5.32 1.18-.43L176.88 0zM172 0l6.57 6.19 1.17-.43L173.61 0zm-3.26 0l7.48 7 1.17-.43-7-6.62zm-3.26 0l8.39 7.91 1.13-.44L167.1 0zm-3.28 0l9.31 8.77 1.18-.43L163.83 0zm-3.26 0l10.22 9.63 1.17-.43-9.77-9.2zm-3.25 0l11.13 10.49 1.17-.43L157.31 0zm-3.27 0l12 11.35 1.18-.43L154.05 0zm-3.27 0l13 12.21 1.18-.43L150.78 0zm-3.25 0l13.87 13.07 1.17-.43L147.53 0zm-3.27 0l14.79 13.93 1.17-.43L144.26 0zm-3.26 0l15.7 14.79 1.17-.43L141 0zm-3.25 0l16.61 15.65 1.18-.43L137.75 0zm-3.26 0l17.53 16.51 1.17-.43L134.48 0zm-3.27 0l18.17 17.11.75.09.7-.26L131.22 0zm-3.25 0L144 16.68l1.86.21L128 0zm-3.27 0l17.25 16.25 1.87.22L124.7 0zm-3.26 0l16.8 15.82 1.85.21-17-16zm-3.25 0l16.34 15.39 1.86.21L118.19 0zm-3.27 0l15.88 15 1.85.21L114.92 0zM110 0l15.43 14.53 1.86.22L111.66 0zm-3.26 0l15 14.1 1.86.22L108.4 0zm-3.26 0L118 13.67l1.86.22L105.14 0zm-3.26 0l14.08 13.24 1.86.22L101.88 0zM97 0l13.6 12.81 1.86.21L98.62 0zm-3.27 0l13.14 12.38 1.86.21L95.36 0zm-3.27 0l12.68 11.95 1.86.21L92.09 0zm-3.25 0l12.22 11.52 1.86.22L88.84 0zm-3.26 0l11.76 11.08 1.86.22L85.58 0zm-3.27 0L92 10.65l1.87.22L82.32 0zm-3.26 0l10.85 10.22 1.87.22L79.06 0zm-3.26 0l10.4 9.79 1.86.21L75.79 0zM70.9 0l9.94 9.36 1.86.22L72.53 0zm-3.26 0l9.48 8.93 1.88.22L69.28 0zm-3.27 0l9 8.5 1.87.22L66 0zm-3.26 0l8.57 8.07 1.87.22L62.75 0zm-3.25 0L66 7.64l1.86.22L59.49 0zM54.6 0l7.65 7.21 1.86.22L56.23 0zm-3.27 0l7.2 6.78 1.85.22L53 0zm-3.25 0l6.74 6.35 1.86.21L49.71 0zm-3.27 0l6.29 5.92 1.9.21L46.45 0zm-3.26 0l5.83 5.49 1.86.21L43.18 0zm-3.26 0l5.37 5.06 1.86.22L39.93 0zM35 0l4.91 4.63 1.87.22L36.67 0zm-3.23 0l4.45 4.2 1.86.21L33.4 0zm-3.26 0l4 3.77 1.87.23-4.23-4zm-3.26 0l3.54 3.33 1.87.22L26.89 0zM22 0l3.08 2.9 1.86.21L23.62 0zm-3.26 0l2.63 2.47 1.86.21L20.36 0zm-3.27 0l2.17 2 1.86.21L17.1 0zm-3.26 0l1.71 1.61 1.86.21L13.84 0zM9 0l1.26 1.18 1.86.21L10.58 0zM5.69 0l.8.75L8.35 1l-1-1zM2.43 0l.34.32 1.85.22L4.05 0zM0 0l.92.11L.8 0z"/></g></g></svg>