<svg id="Layer_1" data-name="Layer 1" xmlns="http://www.w3.org/2000/svg" viewBox="0 0 1200 142.97"><defs><style>.cls-1{fill:none}.cls-2{clip-path:url(#clip-path)}.cls-3{fill:#00ade9}.cls-4{fill:#0e7dc2}.cls-5{clip-path:url(#clip-path-2)}.cls-6{fill:#6ec4e9}.cls-7{clip-path:url(#clip-path-3)}.cls-8{fill:#e6007c}</style><clipPath id="clip-path"><path class="cls-1" d="M243.33-412.85l955.97-113.56v113.56H243.33z"/></clipPath><clipPath id="clip-path-2"><path class="cls-1" d="M542.68 64.37L1200 142.34V19.83L542.68 64.37z"/></clipPath><clipPath id="clip-path-3"><path class="cls-1" d="M1200 142.34L0 0v142.34h1200z"/></clipPath></defs><title>today-box-background-hatching-bottom</title><g class="cls-2"><path class="cls-3" d="M-144.06 4.71l454.48-466.8-2.03-1.62-454.48 466.8 2.03 1.62zM-137.87 9.64l454.49-466.8-2.04-1.62L-139.9 8.03l2.03 1.61zM-131.67 14.58l454.48-466.81-2.03-1.62L-133.7 12.96l2.03 1.62zM-125.47 19.51L329-447.3l-2.03-1.62-454.48 466.81 2.04 1.62z"/></g><path class="cls-4" d="M1200 19.84L0 101.14v-514h1200v432.7z"/><g class="cls-5"><path class="cls-6" d="M128.49 165.12L711.25-435.7l2.49 2.19L131 167.3zm10.09 8.88l582.75-600.84-2.49-2.16-582.75 600.79zm7.59 6.67l582.76-600.84-2.5-2.19-582.75 600.82zm7.59 6.67L736.52-413.5l-2.52-2.19-582.73 600.82zm7.59 6.67l582.76-600.84-2.49-2.17-582.76 600.8zm7.59 6.67L751.7-400.15l-2.49-2.19-582.76 600.81zm7.59 6.67L759.3-393.48l-2.5-2.19L174 205.14zm7.6 6.67l582.76-600.83-2.5-2.19-582.75 600.82zm7.59 6.67l582.76-600.83-2.48-2.19-582.77 600.82zm7.6 6.68l582.75-600.84-2.49-2.19-582.76 600.82zm7.58 6.63l582.76-600.8-2.49-2.2-582.75 600.83zm7.59 6.67l582.77-600.8-2.49-2.19L212 238.5zm7.59 6.67l582.77-600.79-2.49-2.19L219.6 245.17zm7.59 6.67l582.77-600.79-2.5-2.19-582.75 600.81zm7.59 6.67L820-340.11l-2.5-2.19-582.72 600.81zm7.6 6.67l582.77-600.79-2.49-2.19-582.76 600.82zm7.59 6.67l582.77-600.79-2.5-2.23L250 271.86zm7.59 6.67L842.81-320.1l-2.49-2.19-582.76 600.82zm7.59 6.67L850.4-313.42l-2.5-2.19L265.15 285.2zm7.59 6.67L858-306.75l-2.49-2.19-582.77 600.81zm7.59 6.67l582.78-600.78-2.49-2.19-582.76 600.82zm7.59 6.67l582.78-600.78-2.49-2.19-582.76 600.82zm7.59 6.67l582.78-600.78-2.49-2.19-582.76 600.82zm7.6 6.67l582.78-600.77-2.49-2.19-582.77 600.81zm7.59 6.67L896-273.4l-2.49-2.19-582.8 600.82zm7.59 6.67l582.78-600.77-2.5-2.19L318.3 331.9zm7.59 6.67l582.79-600.77-2.49-2.19-582.77 600.82zm7.59 6.67l582.79-600.77-2.5-2.19-582.76 600.81zm7.6 6.67l582.78-600.77-2.49-2.19-582.76 600.82zm7.59 6.67L933.92-240l-2.49-2.19-582.76 600.78zm7.59 6.67l582.79-600.76-2.5-2.19-582.76 600.81zm7.59 6.67l582.79-600.76-2.5-2.2-582.76 600.82zm7.59 6.67L956.7-220l-2.49-2.19L371.45 378.6zm7.59 6.67l582.79-600.76-2.49-2.19L379 385.28zm7.59 6.67l582.79-600.76-2.48-2.19-582.77 600.82zm7.59 6.67L979.47-200l-2.47-2.2-582.77 600.82zm7.59 6.67l582.8-600.75-2.49-2.19-582.77 600.81zm7.6 6.68l582.79-600.76-2.49-2.19L409.41 412zm7.59 6.67L1002.25-180l-2.49-2.19L417 418.63zm7.59 6.67l582.76-600.81-2.49-2.19-582.73 600.87zm7.6 6.67l582.76-600.82-2.49-2.19L432.19 432zm7.59 6.67L1025-160l-2.49-2.19-582.73 600.84zm7.58 6.67l582.8-600.75-2.49-2.19-582.76 600.81zm7.59 6.67l582.76-600.81-2.49-2.19L455 452zm7.6 6.67L1047.8-140l-2.49-2.19-582.76 600.85zm7.59 6.67l582.8-600.75-2.5-2.2-582.75 600.83zm7.59 6.67L1063-126.62l-2.49-2.19L477.74 472zm7.59 6.67l582.76-600.81-2.49-2.19-582.72 600.88zm7.6 6.68l582.75-600.82-2.49-2.19-582.71 600.88zm7.59 6.67l582.8-600.75-2.49-2.19L500.52 492zm7.59 6.67l582.8-600.75-2.49-2.19-582.75 600.81zm7.59 6.67L1101-93.26l-2.5-2.19-582.8 600.81zm7.59 6.67l582.81-600.75-2.49-2.19L523.3 512zm7.6 6.67l582.79-600.75-.47-2.81L532.9 518.09zm7.59 6.67l582.8-600.74-2.5-2.19-582.75 600.81zm7.6 6.68l582.81-600.74-2.49-2.19-582.76 600.82zm7.59 6.67l582.81-600.74-2.49-2.19-582.76 600.82zm7.59 6.67l582.82-600.74-2.53-2.19-582.73 600.82zm7.59 6.67l582.82-600.74-2.49-2.19-582.76 600.82zm7.59 6.67l582.82-600.73-2.5-2.19-582.75 600.81zm7.59 6.67L1169.3-33.2l-2.49-2.19-582.76 600.81zm7.59 6.67L1176.9-26.53l-2.5-2.19-582.75 600.81zm7.6 6.67l582.82-600.73L1182-22 599.24 578.77zm7.59 6.67l582.82-600.73-2.5-2.19-582.75 600.81zm7.59 6.67L1199.67-6.52l-2.49-2.19-582.76 600.82zm7.65 6.79L1207.26.15 1204.77-2 622 598.78zm7.59 6.67L1214.86 6.83l-2.49-2.19-582.76 600.81zm7.59 6.67l582.76-600.85-2.44-2.18-582.81 600.81zm7.59 6.67L1230 20.17l-2.5-2.19-582.71 600.81zm7.59 6.67l582.77-600.84-2.49-2.19-582.76 600.82zm7.6 6.67l582.76-600.84-2.49-2.19L660 632.13zm7.59 6.67l582.77-600.84-2.5-2.18-582.75 600.81zm7.59 6.67l582.77-600.84-2.49-2.19-582.76 600.82zm7.59 6.67L1268 53.53l-2.49-2.19-582.76 600.81zm7.6 6.67L1275.59 60.2l-2.49-2.2-582.75 600.82zm7.59 6.67l582.77-600.83-2.49-2.19-582.76 600.81zm7.59 6.67l582.77-600.83-2.49-2.19-582.77 600.82zm7.59 6.67l582.77-600.83-2.49-2.21-582.76 600.84zm7.59 6.67L1306 86.88l-2.49-2.19-582.8 600.82zm7.59 6.67l582.78-600.82-2.5-2.19L728.3 692.18zm7.59 6.67l582.76-600.82-2.5-2.19L735.9 698.85zm7.6 6.67l582.78-600.82-2.49-2.19-582.77 600.82zm7.59 6.67l582.76-600.82-2.49-2.19L751.09 712.2zm7.59 6.67l582.76-600.81-2.49-2.19-582.74 600.81zm7.59 6.67l582.76-600.82-2.49-2.19-582.75 600.82zm7.59 6.67l582.76-600.82-2.49-2.19-582.74 600.82zm7.59 6.67l582.78-600.81-2.49-2.19-582.76 600.81zm7.6 6.68l582.78-600.82-2.49-2.19L789 745.55zm7.59 6.67l582.78-600.82-2.5-2.19-582.75 600.81zm7.59 6.67l582.76-600.82-2.49-2.19L804.23 758.9zm7.6 6.67l582.76-600.82-2.5-2.19-582.74 600.82zm7.59 6.67l582.76-600.82-2.49-2.19-582.74 600.82zm7.59 6.67l582.76-600.82-2.49-2.19L827 778.91zm7.59 6.67L1419.85 187l-2.49-2.19-582.75 600.78zm7.59 6.67l582.76-600.82-2.49-2.19-582.74 600.83zm7.59 6.67L1435 200.3l-2.49-2.19-582.73 600.82zm7.59 6.67L1442.63 207l-2.49-2.19L857.38 805.6zm7.6 6.67l582.75-600.82-2.49-2.19L865 812.27zm7.59 6.67l582.76-600.82-2.49-2.19-582.74 600.83zm7.6 6.67L1465.4 227l-2.49-2.19-582.75 600.8zm7.59 6.67L1473 233.66l-2.5-2.19-582.75 600.82zm7.6 6.67l582.76-600.81-2.5-2.19L895.34 839zm7.59 6.68L1488.19 247l-2.49-2.19-582.76 600.82zm7.59 6.67l582.75-600.82-2.49-2.19L910.52 852.3zm7.59 6.67l582.76-600.82-2.5-2.19L918.11 859zm7.59 6.67L1511 267l-2.5-2.19-582.79 600.84zm7.59 6.67l582.76-600.81-2.49-2.19-582.73 600.83zm7.59 6.67l582.76-600.81-2.49-2.19L940.9 879zm7.6 6.67L1533.74 287l-2.49-2.19-582.76 600.85z"/></g><g class="cls-7"><path class="cls-8" d="M-182.26 65.79l568.45-583.86 2.54 2-568.45 583.89zM-172 74l568.48-583.88-2.54-2L-174.51 72zm7.75 6.17l568.49-583.88-2.55-2-568.45 583.84zm7.75 6.17L412-497.54l-2.54-2L-159 84.3zm7.75 6.17l568.48-583.88-2.54-2-568.46 583.84zm7.75 6.17L427.47-485.2l-2.55-2-568.45 583.84zm7.75 6.17L435.22-479l-2.54-2-568.46 583.81zm7.75 6.17L443-472.87l-2.55-2L-128 109zm7.74 6.17L450.71-466.7l-2.54-2-568.45 583.85zm7.75 6.17l568.47-583.89-2.54-2-568.45 583.84zm7.74 6.17l568.48-583.89-2.54-2-568.46 583.84zm7.75 6.17L474-448.19l-2.54-2L-97 133.65zm7.75 6.17L481.7-442l-2.54-2-568.45 583.82zM-79 148l568.46-583.85-2.55-2L-81.55 146zm7.75 6.17L497.2-429.69l-2.55-2L-73.8 152.15zm7.75 6.17l568.45-583.86-2.54-2L-66 158.33zm7.75 6.17l568.44-583.86-2.54-2L-58.3 164.49zm7.75 6.17l568.44-583.86-2.54-2-568.46 583.84zm7.75 6.17L528.19-405l-2.55-2-568.45 583.83zm7.75 6.17l568.44-583.86-2.54-2L-35.06 183zm7.75 6.17l568.43-583.86-2.54-2-568.45 583.84zm7.75 6.17l568.43-583.87-2.54-2-568.45 583.85zm7.74 6.17l568.44-583.87-2.54-2-568.46 583.85zm7.75 6.17l568.44-583.87-2.54-2L-4.07 207.68zm7.75 6.17L574.67-368l-2.54-2L3.68 213.84zM14 222l568.42-583.83-2.55-2L11.43 220zm7.75 6.17l568.42-583.83-2.54-2L19.17 226.18zm7.75 6.17l568.42-583.83-2.55-2L26.92 232.35zm7.75 6.17l568.41-583.83-2.54-2L34.67 238.52zm7.75 6.2l568.41-583.87-2.54-2L42.41 244.69zm7.75 6.17L621.16-331l-2.55-2L50.16 250.86zm7.75 6.17l568.41-583.87-2.55-2L57.91 257zm7.74 6.17l568.41-583.87-2.55-2L65.66 263.19zm7.75 6.17L644.4-312.48l-2.54-2L73.4 269.36zm7.75 6.17l568.4-583.87-2.54-2L81.15 275.53zm7.75 6.17l568.4-583.87-2.55-2L88.9 281.7zm7.75 6.17L667.64-294l-2.54-2L96.64 287.87zm7.75 6.17l568.4-583.87-2.54-2L104.39 294zm7.74 6.17l568.41-583.88-2.54-2-568.46 583.85zm7.74 6.17l568.42-583.88-2.54-2-568.46 583.85zm7.75 6.17L698.63-269.3l-2.54-2-568.45 583.85zm7.75 6.17l568.41-583.88-2.54-2-568.46 583.85zm7.74 6.17L714.13-257l-2.54-2-568.46 583.88zm7.75 6.17l568.41-583.88-2.54-2-568.45 583.84zm7.75 6.17l568.41-583.89-2.54-2-568.46 583.85zm7.75 6.17l568.41-583.88-2.55-2-568.45 583.84zm7.74 6.17l568.42-583.88-2.55-2-568.45 583.84zm7.74 6.17l568.42-583.89-2.54-2-568.46 583.85zm7.75 6.17l568.42-583.89-2.54-2L189.62 361.9zm7.75 6.17l568.42-583.89-2.54-2-568.46 583.84zm7.75 6.17l568.42-583.89-2.54-2-568.46 583.84zm7.75 6.17l568.42-583.89-2.55-2L212.86 380.4zm7.75 6.17L791.6-195.27l-2.55-2-568.44 583.84zm7.75 6.17l568.4-583.9-2.54-2-568.45 583.85zm7.75 6.17L807.1-182.93l-2.55-2L236.1 398.91zm7.76 6.18l568.41-583.89-2.54-2-568.45 583.84zm7.75 6.17l568.41-583.89-2.54-2-568.46 583.84zm7.75 6.17l568.41-583.9-2.54-2-568.46 583.85zm7.75 6.17l568.4-583.9-2.54-2L267.1 423.6zm7.75 6.17l568.4-583.9-2.55-2-568.45 583.84zm7.74 6.17l568.41-583.9-2.54-2L282.6 435.93zm7.74 6.17l568.41-583.9-2.55-2L290.35 442.1zm7.75 6.17l568.41-583.9-2.54-2-568.46 583.84zm7.75 6.17l568.41-583.9-2.55-2-568.45 583.84zm7.75 6.17l568.4-583.91-2.54-2-568.45 583.85zm7.75 6.17l568.4-583.91-2.54-2-568.45 583.84zm7.75 6.17l568.4-583.91-2.54-2-568.46 583.85zm7.75 6.17l568.39-583.91-2.54-2-568.45 583.84zm7.75 6.17L915.57-96.56l-2.55-2-568.45 583.84zm7.75 6.17L923.32-90.39l-2.54-2-568.45 583.84zm7.75 6.17L931.07-84.22l-2.54-2-568.46 583.84zm7.75 6.17L938.81-78.06l-2.54-2-568.45 583.85zm7.75 6.17L946.56-71.89l-2.54-2L375.56 510zm7.74 6.17L954.31-65.72l-2.54-2-568.46 583.84zm7.75 6.17L962.06-59.55l-2.54-2L391.06 522.3zm7.75 6.17L969.8-53.38l-2.54-2-568.45 583.84zm7.75 6.17L977.55-47.21l-2.54-2-568.46 583.84zm7.75 6.17L985.3-41l-2.54-2L414.3 540.8zm7.75 6.17L993-34.87l-2.54-2L422 547zm7.75 6.17L1000.8-28.7l-2.55-2L429.8 553.14zm7.75 6.17l568.37-583.93-2.55-2-568.44 583.85zm7.75 6.17l568.37-583.93-2.54-2L445.3 565.48zm7.74 6.17L1024-10.2l-2.54-2L453 571.65zm7.75 6.17L1031.78-4l-2.54-2-568.45 583.81zm7.75 6.17L1039.53 2.14l-2.54-2L468.53 584zm7.75 6.17L1047.28 8.31l-2.54-2-568.46 583.84zm7.75 6.17L1055 14.48l-2.54-2L484 596.32zm7.75 6.17l568.36-583.93-2.54-2-568.45 583.84zm7.75 6.17l568.36-583.94-2.55-2-568.45 583.85zm7.74 6.17L1078.27 33l-2.54-2-568.46 583.82zm7.75 6.17L1086 39.15l-2.55-2L515 621zm7.75 6.17l568.36-583.94-2.54-2-568.45 583.84zm7.74 6.17l568.37-583.94-2.54-2-568.45 583.84zm7.75 6.17l568.37-583.94-2.54-2L538.27 639.5zm7.75 6.17L1117 63.83l-2.54-2L546 645.67zm7.75 6.17L1124.75 70l-2.54-2-568.46 583.84zM564 660l568.5-583.84-2.54-2L561.51 658zm7.75 6.17l568.5-583.84-2.54-2-568.46 583.85zm7.75 6.17L1148 88.5l-2.54-2L577 670.35zm7.75 6.17l568.49-583.84-2.54-2-568.45 583.84zm7.74 6.17l568.46-583.87-2.55-2-568.4 583.88zm7.75 6.17L1171.24 107l-2.55-2-568.45 583.85zm7.75 6.17L1179 113.18l-2.54-2L608 695zm7.75 6.17l568.45-583.87-2.54-2-568.41 583.87zm7.74 6.17l568.46-583.87-2.55-2-568.41 583.87zm7.75 6.17l568.46-583.87-2.55-2-568.41 583.87zm7.75 6.17L1210 137.85l-2.54-2L639 719.7zm7.75 6.17L1217.72 144l-2.54-2-568.45 583.87zm7.75 6.17l568.45-583.87-2.54-2L654.47 732z"/></g><path class="cls-8" d="M0 0l542.68 64.37L0 101.13V0z"/></svg>