<svg id="Layer_1" data-name="Layer 1" xmlns="http://www.w3.org/2000/svg" viewBox="0 0 1200 669.38"><defs><style>.cls-1{fill:none}.cls-2{clip-path:url(#clip-path)}.cls-3{fill:#00ade9}.cls-4{fill:#0e7dc2}.cls-5{clip-path:url(#clip-path-2)}.cls-6{fill:#6ec4e9}.cls-7{clip-path:url(#clip-path-3)}.cls-8{fill:#e6007c}</style><clipPath id="clip-path"><path class="cls-1" d="M955.96 113.56L0 0v113.56h955.96z"/></clipPath><clipPath id="clip-path-2"><path class="cls-1" d="M542.68 590.78L1200 668.75V546.24l-657.32 44.54z"/></clipPath><clipPath id="clip-path-3"><path class="cls-1" d="M1200 668.75L0 526.41v142.34h1200z"/></clipPath></defs><title>today-box_background</title><g class="cls-2"><path class="cls-3" d="M-146.81 52.64l454.48-466.8 2 1.62-454.45 466.8zm8.23 6.55l454.48-466.8-2-1.62-454.52 466.8zm6.19 4.93l454.48-466.8-2-1.62-454.51 466.81zm6.19 4.93l454.48-466.8-2-1.62-454.51 466.81zM-120 74l454.48-466.8-2-1.62L-122 72.37zm6.19 4.93l454.48-466.8-2-1.62L-115.85 77.3zm6.19 4.93L346.87-383l-2-1.62-454.53 466.85zm6.2 4.93L353.06-378l-2-1.62-454.52 466.79zm6.19 4.93l454.48-466.8-2-1.62L-97.26 92.1zm6.2 4.94l454.47-466.82-2-1.62L-91.07 97zm6.19 4.93l454.48-466.8-2-1.62L-84.87 102zm6.19 4.93L377.83-358.3l-2-1.62-454.51 466.81zm6.2 4.93L384-353.36l-2-1.64-454.49 466.82zm6.19 4.93l454.49-466.8-2-1.62-454.52 466.79zm6.2 4.93L396.41-343.5l-2-1.62-454.51 466.8zm6.2 4.94l454.47-466.82-2-1.62L-53.9 126.62zm6.19 4.93L408.8-333.64l-2-1.62-454.51 466.81zm6.19 4.93L415-328.7l-2-1.62-454.52 466.8zm6.19 4.93l454.48-466.8-2-1.62-454.51 466.8zm6.19 4.96l454.48-466.8-2-1.62-454.51 466.76zm6.19 4.93l454.48-466.8-2-1.62-454.5 466.77zm6.2 4.93L439.77-309l-2-1.62-454.51 466.83zm6.19 4.93L446-304l-2-1.62-454.54 466.76zm6.2 4.93l454.48-466.8-2-1.62L-4.35 166.08zm6.19 4.93l454.48-466.8-2-1.62L1.84 171zm6.19 4.93l454.48-466.8-2-1.62L8 175.94zm6.19 4.93l454.48-466.8-2-1.62-454.5 466.78zm6.19 4.93l454.48-466.8-2-1.62L20.42 185.8zm6.2 4.93l454.48-466.8-2-1.62-454.5 466.79zm6.19 4.93l454.49-466.82-2-1.62-454.51 466.8zm6.2 4.93l454.48-466.8-2-1.62L39 200.6zm6.19 4.93l454.48-466.8-2-1.62L45.2 205.53zm6.19 4.93l454.48-466.8-2-1.62L51.4 210.46zm6.2 4.93L514.1-249.79l-2-1.62-454.51 466.8zm6.19 4.93l454.49-466.81-2-1.62-454.51 466.8zm6.2 4.93l454.49-466.81-2-1.62L70 225.26zm6.19 4.93L532.69-235l-2-1.62L76.17 230.19zm6.2 4.93l454.48-466.8-2-1.62-454.51 466.8zm6.19 4.93l454.48-466.8-2-1.62-454.5 466.8zm6.19 4.93l454.5-466.8-2-1.62L94.75 245zm6.2 4.93l454.48-466.8-2-1.62-454.5 466.81zm6.19 4.93l454.48-466.8-2-1.62-454.5 466.81zm6.19 4.93l454.5-466.79-2-1.62-454.51 466.8zm6.2 4.93L576-200.47l-2-1.62-454.47 466.8zm6.2 4.93l454.48-466.79-2-1.62-454.51 466.81zm6.25 4.95l454.43-466.8-2-1.62-454.51 466.8zm6.19 4.93l454.48-466.8-2-1.62-454.56 466.8zm6.19 4.93l454.48-466.8-2-1.62-454.56 466.8zm6.2 4.94L607-175.81l-2-1.62-454.5 466.8zm6.19 4.93l454.48-466.8-2-1.62L156.69 294.3zm6.2 4.93L619.4-165.95l-2-1.62-454.51 466.81zm6.19 4.93L625.6-161l-2-1.62-454.52 466.79zm6.19 4.93l454.48-466.8-2-1.62-454.55 466.8zm6.2 4.93L638-151.15l-2-1.62L181.47 314zm6.19 4.93l454.48-466.8-2-1.62L187.66 319zm6.2 4.94l454.48-466.8-2-1.62-454.55 466.81zm6.19 4.93l454.48-466.8-2-1.62-454.54 466.81zm6.19 4.93l454.45-466.79-2-1.62-454.51 466.8zm6.2 4.93L669-126.48l-2-1.62-454.55 466.8zm6.19 4.93l454.48-466.8-2-1.62-454.54 466.82zm6.19 4.93l454.48-466.8-2-1.62-454.54 466.82zm6.19 4.93l454.49-466.8-2-1.62L231 353.5zm6.2 4.93l454.48-466.8-2-1.62-454.54 466.82zm6.19 4.93l454.48-466.8-2-1.62-454.54 466.82zm6.19 4.93L706.13-96.89l-2-1.62-454.51 466.8zm6.19 4.93L712.32-92l-2-1.62-454.51 466.84zm6.2 4.93L718.52-87l-2-1.62L262 378.16zm6.19 4.93L724.71-82.1l-2-1.62L268.2 383.09zm6.19 4.93L730.91-77.16l-2-1.62L274.39 388zm6.19 4.93L737.1-72.23l-2-1.62L280.59 393zm6.2 4.93L743.29-67.3l-2-1.62-454.51 466.8zm6.19 4.93L749.49-62.37l-2-1.62L293 402.82zm6.2 4.93L755.68-57.44l-2-1.62-454.51 466.81zm6.19 4.93L761.88-52.5l-2-1.62-454.52 466.8zm6.2 4.93L768.07-47.57l-2-1.62-454.51 466.8zm6.19 4.93L774.26-42.64l-2-1.62-454.51 466.8zm6.2 4.93L780.46-37.71l-2-1.62-454.52 466.81zm6.19 4.93L786.65-32.78l-2-1.62-454.51 466.81zm6.19 4.93L792.84-27.85l-2-1.62-454.51 466.81zm6.2 4.93L799-22.91l-2-1.62-454.47 466.8zm6.19 4.93L805.24-18l-2-1.62-454.52 466.83zm6.2 4.93L811.43-13l-2-1.62-454.51 466.76zm6.19 4.93L817.63-8.12l-2-1.62-454.52 466.81zm6.19 4.93L823.82-3.18l-2-1.62L367.3 462zm6.2 4.93L830 1.75l-2-1.62-454.51 466.8zm6.19 4.93L836.2 6.68l-2-1.62-454.51 466.8zm6.19 4.93L842.4 11.61l-2-1.62L385.89 476.8zm6.2 4.94L848.59 16.54l-2-1.62-454.51 466.81zm6.19 4.93L854.79 21.47l-2-1.62-454.52 466.81zm6.19 4.93L861 26.41l-2-1.62-454.53 466.8zm6.2 4.93L867.18 31.34l-2-1.62-454.52 466.81zm6.19 4.93L873.37 36.27l-2-1.62-454.51 466.8zm6.19 4.93L879.56 41.2l-2-1.62-454.51 466.81zm6.19 4.93L885.76 46.14l-2-1.62-454.51 466.8zm6.2 4.93L892 51.07l-2-1.62-454.56 466.8zm6.19 4.93L898.14 56l-2-1.62-454.51 466.8zm6.19 4.93L904.34 60.93l-2-1.62-454.51 466.81zm6.2 4.93L910.53 65.86l-2-1.62L454 531zm6.19 4.93L916.73 70.79l-2-1.62L460.21 536zm6.2 4.93L922.92 75.73l-2-1.62-454.51 466.8zm6.19 4.93L929.12 80.66l-2-1.62L472.6 545.85zm6.2 4.93L935.31 85.59l-2-1.62L478.8 550.78zm6.19 4.94L941.5 90.52l-2-1.62L485 555.71zm6.19 4.93L947.7 95.45l-2-1.62-454.52 466.81zm6.19 4.93l454.48-466.8-2-1.62-454.51 466.88zm6.2 4.93l454.48-466.8-2-1.62-454.51 466.89zm6.2 4.93l454.48-466.8-2-1.62-454.52 466.89zM518 582l454.48-466.8-2-1.62L516 580.37zm6.2 4.93l454.47-466.8-2-1.62L522.16 585.3z"/></g><path class="cls-4" d="M1200 546.25L0 627.55v-514h1200v432.7z"/><g class="cls-5"><path class="cls-6" d="M128.49 691.53L711.25 90.71l2.49 2.19L131 693.72zm10.08 8.86L721.33 99.57l-2.49-2.19L136.09 698.2zm7.59 6.67l582.77-600.81-2.5-2.19-582.75 600.81zm7.59 6.67l582.77-600.82-2.52-2.18-582.73 600.81zm7.59 6.67l582.77-600.81-2.49-2.19-582.76 600.81zm7.59 6.67L751.7 126.26l-2.49-2.19-582.76 600.81zm7.59 6.67L759.3 132.93l-2.5-2.19L174 731.55zm7.6 6.67L766.89 139.6l-2.5-2.19-582.75 600.82zm7.59 6.67l582.77-600.81-2.48-2.19L189.23 744.9zm7.6 6.68l582.76-600.82-2.49-2.19-582.76 600.82zm7.59 6.67l582.76-600.81-2.49-2.19-582.75 600.81zm7.59 6.67l582.77-600.81-2.49-2.19L212 764.91zm7.59 6.67L804.85 173l-2.49-2.19L219.6 771.58zm7.59 6.67l582.77-600.81-2.5-2.19-582.75 600.81zm7.59 6.67L820 186.3l-2.5-2.19-582.72 600.81zm7.6 6.67L827.63 193l-2.49-2.19L242.38 791.6zm7.59 6.67l582.77-600.81-2.49-2.19L250 798.27zm7.59 6.67l582.77-600.81-2.49-2.19-582.76 600.82zm7.59 6.67L850.4 213l-2.5-2.19-582.75 600.8zm7.59 6.67L858 219.66l-2.49-2.19-582.77 600.81zm7.59 6.67l582.78-600.8-2.49-2.19L280.34 825zm7.59 6.67L873.18 233l-2.49-2.19-582.76 600.82zm7.59 6.67l582.78-600.8-2.49-2.19L295.52 838.3zm7.6 6.67l582.78-600.79-2.49-2.19L303.11 845zm7.59 6.67L896 253l-2.49-2.19-582.8 600.83zm7.59 6.67l582.78-600.79-2.5-2.19L318.3 858.31zm7.59 6.67l582.79-600.79-2.49-2.19L325.89 865zm7.59 6.67L918.74 273l-2.5-2.19-582.76 600.85zm7.6 6.67L926.33 279.7l-2.49-2.19-582.76 600.82zm7.59 6.67l582.78-600.79-2.49-2.19L348.67 885zm7.59 6.67l582.79-600.78-2.5-2.19-582.76 600.81zm7.59 6.67l582.79-600.78-2.5-2.2-582.76 600.82zm7.59 6.67L956.7 306.39l-2.49-2.19L371.45 905zm7.59 6.67l582.79-600.78-2.49-2.19L379 911.69zm7.59 6.67l582.79-600.78-2.48-2.19-582.77 600.82zm7.59 6.67L979.47 326.4l-2.5-2.19L394.23 925zm7.59 6.67l582.8-600.77-2.49-2.19L401.81 931.7zm7.6 6.68l582.79-600.78-2.49-2.19-582.76 600.81zm7.59 6.67l582.76-600.82-2.49-2.19L417 945zm7.59 6.67l582.76-600.81-2.49-2.19-582.73 600.85zm7.6 6.67l582.76-600.82-2.49-2.19-582.73 600.86zm7.59 6.67L1025 366.43l-2.49-2.19-582.73 600.82zm7.58 6.67l582.76-600.81-2.49-2.19-582.72 600.85zm7.59 6.67l582.76-600.81-2.49-2.19L455 978.4zm7.6 6.67l582.79-600.77-2.49-2.19-582.76 600.81zm7.59 6.67l582.8-600.76-2.5-2.2-582.75 600.82zm7.59 6.67L1063 399.79l-2.49-2.19-582.77 600.82zm7.59 6.67l582.76-600.81-2.49-2.19-582.72 600.86zm7.6 6.68l582.75-600.82-2.49-2.19-582.71 600.86zm7.59 6.67l582.76-600.81-2.49-2.19-582.72 600.85zm7.59 6.67l582.76-600.81-2.49-2.19-582.71 600.86zm7.59 6.67L1101 433.15l-2.5-2.19-582.8 600.82zm7.59 6.67l582.76-600.81-2.49-2.19-582.71 600.86zm7.6 6.67l582.75-600.82-.47-2.81L532.9 1044.5zM541 1054l582.76-600.82-2.5-2.19-582.78 600.8zm7.6 6.68l582.76-600.81-2.49-2.19-582.78 600.8zm7.59 6.67l582.76-600.81-2.49-2.19-582.78 600.8zm7.59 6.67l582.76-600.82-2.54-2.2-582.73 600.82zm7.59 6.67l582.76-600.82-2.49-2.19-582.77 600.81zm7.59 6.67l582.76-600.82-2.5-2.19-582.76 600.81zm7.59 6.67l582.75-600.82-2.49-2.19-582.76 600.82zm7.59 6.67l582.76-600.82-2.5-2.19-582.75 600.82zm7.6 6.67l582.76-600.81-2.49-2.19-582.77 600.81zm7.59 6.67l582.76-600.81-2.5-2.19-582.76 600.81zm7.59 6.67l582.76-600.82-2.49-2.19-582.77 600.82zm7.59 6.67l582.76-600.82-2.49-2.19L622 1125.19zm7.59 6.67l582.76-600.81-2.49-2.19-582.76 600.81zm7.59 6.67l582.75-600.82-2.49-2.19-582.76 600.82zm7.59 6.67L1230 546.58l-2.5-2.19-582.71 600.81zm7.59 6.67l582.76-600.81-2.49-2.19-582.76 600.82zm7.6 6.67l582.76-600.82-2.49-2.19L660 1158.55zm7.59 6.67l582.76-600.8-2.49-2.19-582.76 600.81zm7.59 6.67l582.75-600.82-2.49-2.19-582.75 600.83zm7.59 6.67L1268 579.94l-2.49-2.19-582.76 600.81zm7.6 6.67l582.76-600.82-2.49-2.19-582.76 600.84zm7.59 6.67l582.76-600.81-2.49-2.19-582.76 600.83zm7.59 6.67L1290.78 600l-2.49-2.19-582.77 600.77zm7.59 6.67l582.76-600.82-2.49-2.19-582.76 600.84zm7.59 6.67l582.8-600.8-2.49-2.19-582.8 600.82zm7.59 6.67L1313.56 620l-2.5-2.19-582.76 600.78zm7.59 6.67l582.76-600.82-2.5-2.19-582.74 600.85zm7.6 6.67l582.76-600.82-2.49-2.19-582.76 600.85zm7.59 6.67L1336.34 640l-2.49-2.19-582.76 600.8zm7.59 6.67l582.76-600.81-2.49-2.19-582.75 600.84zm7.59 6.67l582.76-600.82-2.49-2.19L766.26 1252zm7.59 6.67L1359.11 660l-2.49-2.19-582.76 600.81zm7.59 6.67l582.77-600.78-2.49-2.19-582.76 600.81zm7.6 6.68l582.77-600.79-2.49-2.19L789 1272zm7.59 6.67L1381.89 680l-2.5-2.19-582.75 600.83zm7.59 6.67l582.76-600.82-2.49-2.19-582.75 600.85zm7.6 6.67l582.76-600.82-2.5-2.19L811.82 1292zm7.59 6.67L1404.67 700l-2.49-2.19-582.76 600.84zm7.59 6.67l582.77-600.78-2.49-2.19L827 1305.32zm7.59 6.67l582.76-600.81-2.49-2.19L834.61 1312zm7.59 6.67L1427.44 720l-2.49-2.19-582.76 600.86zm7.59 6.67L1435 726.71l-2.49-2.19-582.73 600.82zm7.59 6.67l582.76-600.82-2.49-2.19L857.38 1332zm7.6 6.67l582.75-600.82-2.49-2.19L865 1338.68zm7.59 6.67l582.76-600.82-2.49-2.19-582.75 600.86zm7.6 6.67L1465.4 753.4l-2.49-2.19L880.16 1352zm7.59 6.67L1473 760.07l-2.5-2.19-582.75 600.82zm7.6 6.67l582.76-600.81-2.5-2.19-582.75 600.86zm7.59 6.68l582.76-600.82-2.49-2.19L902.94 1372zm7.59 6.67l582.75-600.82-2.49-2.19-582.75 600.86zm7.59 6.67l582.76-600.82-2.5-2.19-582.75 600.86zm7.59 6.67L1511 793.43l-2.5-2.19-582.79 600.82zm7.59 6.67l582.77-600.77-2.49-2.19-582.75 600.82zm7.59 6.67l582.76-600.81-2.49-2.19L940.9 1405.4zm7.6 6.67l582.75-600.82-2.49-2.19-582.74 600.87z"/></g><g class="cls-7"><path class="cls-8" d="M-182.26 592.21L386.19 8.34l2.54 2-568.45 583.89zm10.26 8.19L396.48 16.53l-2.54-2-568.45 583.85zm7.75 6.17L404.24 22.7l-2.55-2-568.45 583.85zm7.75 6.17L412 28.87l-2.54-2L-159 610.71zm7.75 6.17L419.73 35l-2.54-2-568.46 583.88zm7.75 6.17L427.47 41.21l-2.55-2L-143.53 623zm7.75 6.17L435.22 47.38l-2.54-2-568.46 583.84zm7.75 6.17L443 53.55l-2.55-2L-128 635.39zm7.74 6.17L450.71 59.71l-2.54-2-568.45 583.85zm7.75 6.17L458.46 65.88l-2.54-2-568.45 583.85zm7.74 6.17L466.21 72l-2.54-2-568.46 583.89zm7.75 6.17L474 78.22l-2.54-2L-97 660.06zm7.75 6.17L481.7 84.39l-2.54-2-568.45 583.84zm7.74 6.17L489.46 90.56l-2.55-2L-81.55 672.4zm7.75 6.17L497.2 96.73l-2.55-2L-73.8 678.57zm7.75 6.17l568.48-583.89-2.54-2L-66 684.74zm7.75 6.17l568.47-583.89-2.54-2L-58.3 690.9zm7.78 6.15l568.44-583.87-2.54-2-568.46 583.84zm7.75 6.17L528.19 121.4l-2.55-2-568.45 583.84zm7.75 6.17l568.44-583.87-2.54-2-568.46 583.84zm7.75 6.17l568.43-583.87-2.54-2-568.45 583.84zm7.75 6.17l568.43-583.87-2.54-2-568.45 583.84zm7.74 6.17l568.44-583.87-2.54-2-568.46 583.84zm7.75 6.17l568.44-583.87-2.54-2L-4.07 734.09zm7.75 6.17l568.43-583.88-2.54-2L3.68 740.25zm7.76 6.16l568.42-583.87-2.55-2L11.43 746.42zm7.75 6.17l568.42-583.87-2.54-2L19.17 752.59zm7.75 6.17l568.42-583.87-2.55-2L26.92 758.76zm7.71 6.21l568.45-583.91-2.54-2L34.67 764.93zm7.79 6.12l568.41-583.87-2.54-2L42.41 771.1zm7.75 6.17l568.41-583.86-2.55-2L50.16 777.27zm7.75 6.17L628.91 201.6l-2.55-2L57.91 783.44zm7.74 6.17l568.41-583.87-2.55-2L65.66 789.6zm7.75 6.17L644.4 213.93l-2.54-2L73.4 795.78zm7.7 6.2l568.45-583.9-2.54-2L81.15 801.94zm7.75 6.17l568.45-583.9-2.55-2L88.9 808.11zm7.75 6.17l568.45-583.9-2.54-2L96.64 814.28zm7.75 6.17l568.45-583.9-2.54-2-568.46 583.84zm7.74 6.17l568.46-583.9-2.54-2-568.46 583.84zm7.74 6.17l568.47-583.91-2.54-2-568.46 583.85zm7.75 6.17l568.46-583.9-2.54-2L127.64 839zm7.75 6.17l568.46-583.91-2.54-2-568.46 583.85zm7.74 6.17l568.47-583.91-2.54-2-568.46 583.84zm7.75 6.17l568.46-583.91-2.54-2-568.45 583.84zm7.75 6.17l568.46-583.91-2.54-2-568.46 583.84zm7.75 6.17L737.37 288l-2.55-2-568.45 583.8zm7.74 6.17l568.47-583.91-2.55-2L174.12 876zm7.74 6.17l568.47-583.92-2.54-2-568.46 583.85zm7.75 6.17l568.47-583.92-2.54-2-568.45 583.85zm7.75 6.17l568.47-583.92-2.54-2-568.46 583.84zm7.75 6.17L776.11 318.8l-2.54-2-568.46 583.84zm7.75 6.17L783.86 325l-2.55-2-568.45 583.81zm7.75 6.17L791.6 331.14l-2.55-2L220.61 913zm7.75 6.17l568.45-583.92-2.54-2-568.45 583.84zm7.75 6.17L807.1 343.48l-2.55-2L236.1 925.32zm7.76 6.18l568.46-583.92-2.54-2L243.87 931.5zm7.75 6.17l568.46-583.92-2.54-2-568.46 583.84zm7.75 6.17L830.36 362l-2.54-2-568.46 583.84zm7.75 6.17L838.1 368.16l-2.54-2L267.1 950zm7.75 6.17l568.45-583.93-2.55-2-568.45 583.85zm7.74 6.17L853.6 380.5l-2.54-2L282.6 962.35zm7.74 6.17l568.46-583.93-2.55-2-568.44 583.84zm7.75 6.17l568.46-583.93-2.54-2-568.46 583.84zm7.75 6.17L876.84 399l-2.55-2-568.45 583.85zm7.75 6.17l568.45-583.94-2.54-2L313.59 987zm7.75 6.17l568.45-583.94-2.54-2-568.45 583.85zm7.75 6.17l568.45-583.94-2.54-2-568.46 583.85zm7.75 6.17l568.44-583.94-2.54-2-568.45 583.84zm7.75 6.17l568.44-583.94-2.55-2-568.45 583.84zm7.75 6.17L923.32 436l-2.54-2-568.45 583.86zm7.75 6.17l568.44-583.94-2.54-2L360.07 1024zm7.75 6.17l568.43-583.94-2.54-2-568.45 583.84zm7.75 6.17l568.43-583.95-2.54-2-568.46 583.85zm7.74 6.16l568.44-583.94-2.54-2-568.46 583.85zm7.75 6.17l568.44-583.94-2.54-2-568.46 583.85zm7.75 6.17L969.8 473l-2.54-2-568.45 583.87zm7.75 6.17L977.55 479.2l-2.54-2L406.55 1061zm7.75 6.17L985.3 485.37l-2.54-2-568.46 583.84zm7.75 6.17L993 491.54l-2.54-2L422 1073.38zm7.75 6.17l568.43-583.94-2.55-2-568.45 583.84zm7.75 6.17l568.46-583.87-2.55-2-568.48 583.77zm7.75 6.17L1016.29 510l-2.54-2-568.45 583.89zm7.74 6.17L1024 516.21l-2.54-2L453 1098.06zm7.75 6.17l568.46-583.87-2.54-2-568.49 583.77zm7.75 6.17l568.45-583.87-2.54-2-568.49 583.76zm7.75 6.17l568.45-583.87-2.54-2-568.49 583.76zm7.75 6.17L1055 540.89l-2.54-2L484 1122.73zm7.75 6.17l568.45-583.87-2.54-2-568.49 583.76zm7.75 6.17l568.45-583.87-2.55-2-568.49 583.76zm7.74 6.17l568.42-583.95-2.54-2-568.46 583.84zm7.75 6.17L1086 565.56l-2.55-2L515 1147.41zm7.75 6.17l568.45-583.87-2.54-2-568.49 583.75zm7.74 6.17l568.42-583.96-2.54-2-568.45 583.85zm7.75 6.17l568.46-583.87-2.54-2-568.49 583.76zm7.75 6.17L1117 590.24l-2.54-2L546 1172.08zm7.75 6.17l568.45-583.87-2.54-2-568.5 583.75zm7.75 6.17l568.41-583.97-2.54-2-568.45 583.85zm7.75 6.17l568.45-583.87-2.54-2-568.5 583.75zm7.75 6.17L1148 614.91l-2.54-2L577 1196.76zm7.75 6.17l568.45-583.87-2.54-2-568.5 583.75zm7.74 6.17l568.46-583.87-2.55-2L592.5 1209.1zm7.75 6.17l568.45-583.87-2.55-2-568.49 583.75zm7.75 6.17L1179 639.59l-2.54-2L608 1221.43zm7.75 6.17l568.45-583.87-2.54-2-568.5 583.74zm7.74 6.17l568.46-583.87-2.55-2-568.5 583.74zm7.75 6.17l568.41-583.97-2.55-2-568.45 583.84zm7.75 6.17L1210 664.26l-2.54-2L639 1246.11zm7.75 6.17l568.46-583.87-2.54-2-568.51 583.74zm7.75 6.17l568.4-583.98-2.54-2-568.46 583.84z"/></g><path class="cls-8" d="M0 526.41l542.68 64.37L0 627.54V526.41z"/></svg>