<svg id="Layer_1" data-name="Layer 1" xmlns="http://www.w3.org/2000/svg" viewBox="0 0 1200 115.22"><defs><style>.cls-1{fill:none}.cls-2{clip-path:url(#clip-path)}.cls-3{fill:#00ade9}.cls-4{clip-path:url(#clip-path-2)}.cls-5{fill:#6ec4e9}.cls-6{clip-path:url(#clip-path-3)}.cls-7{fill:#e6007c}.cls-8{clip-path:url(#clip-path-4)}.cls-9{fill:#e5007c}</style><clipPath id="clip-path"><path class="cls-1" d="M243.33 115.23L1199.3 1.67v113.56H243.33z"/></clipPath><clipPath id="clip-path-2"><path class="cls-1" d="M542.68 592.46L1200 670.42V547.91l-657.32 44.55z"/></clipPath><clipPath id="clip-path-3"><path class="cls-1" d="M1200 670.42L0 528.08v142.34h1200z"/></clipPath><clipPath id="clip-path-4"><path class="cls-1" d="M246.77 115.42l149.83-18.4L0 0v115.42h246.77z"/></clipPath></defs><title>today-box-background-hatching-top</title><g class="cls-2"><path class="cls-3" d="M134.52-16.69L589-483.49l2 1.62-454.45 466.8zm8.23 6.55l454.48-466.8-2-1.62-454.51 466.8zm6.19 4.93L603.42-472l-2-1.62L146.91-6.82zm6.19 4.93l454.48-466.8-2-1.62L153.1-1.89zm6.2 4.93l454.48-466.8-2-1.62L159.29 3zm6.19 4.93L622-457.21l-2-1.62L165.49 8zm6.19 4.93L628.2-452.28l-2-1.62L171.68 12.9zm6.2 4.93l454.48-466.8-2-1.62L177.88 17.84zm6.19 4.93l454.48-466.8-2-1.62L184.07 22.77zm6.2 4.94l454.48-466.8-2-1.62L190.27 27.7zm6.19 4.93L653-432.55l-2-1.62-454.54 466.8zm6.19 4.93l454.49-466.79-2-1.62-454.52 466.8zm6.2 4.93l454.48-466.8-2-1.62L208.85 42.49zm6.19 4.9l454.49-466.8-2-1.62L215 47.42zm6.2 4.93l454.48-466.8-2-1.62L221.23 52.36zm6.2 4.93L683.94-407.9l-2-1.62L227.43 57.29zm6.19 4.93L690.13-403l-2-1.62L233.62 62.22zm6.19 4.93L696.33-398l-2-1.62L239.82 67.15zm6.15 4.99L702.53-393.1l-2-1.62L246 72.09zm6.19 4.93l454.48-466.8-2-1.62L252.2 77zm6.19 4.93l454.48-466.8-2-1.62L258.4 82zm6.2 4.93l454.53-466.8-2-1.62L264.6 86.88zm6.19 4.93l454.53-466.8-2-1.62-454.51 466.8zm6.2 4.93l454.48-466.8-2-1.62L277 96.75zm6.19 4.93l454.48-466.8-2-1.62-454.46 466.81zm6.19 4.93l454.48-466.8-2-1.62-454.46 466.81zm6.19 4.93l454.48-466.8-2-1.62-454.46 466.81zm6.19 4.93l454.48-466.8-2-1.62-454.45 466.81zM310 123l454.48-466.8-2-1.62L308 121.41zm6.19 4.93l454.47-466.78-2-1.62-454.51 466.81zm6.2 4.93l454.48-466.8-2-1.62-454.53 466.83zm6.19 4.93L783-329l-2-1.62L326.53 136.2zm6.19 4.93l454.48-466.8-2-1.62-454.52 466.83zm6.2 4.93l454.48-466.8-2-1.62-454.53 466.84zm6.19 4.93l454.46-466.77-2-1.62L345.11 151zm6.19 4.93l454.47-466.77-2-1.62-454.51 466.81zm6.19 4.93L814-304.32l-2-1.62-454.5 466.8zm6.2 4.93l454.48-466.8-2-1.62L363.7 165.79zm6.19 4.93L826.4-294.46l-2-1.62-454.51 466.81zm6.19 4.93L832.6-289.53l-2-1.62-454.51 466.81zm6.2 4.93l454.48-466.8-2-1.62-454.52 466.85zm6.19 4.93L845-279.66l-2-1.62-454.52 466.8zm6.19 4.93l454.48-466.8-2-1.62-454.51 466.85zm6.2 4.93L857.37-269.8l-2-1.62-454.51 466.81zm6.2 4.93l454.47-466.75-2-1.62-454.52 466.81zm6.19 4.93l454.48-466.8-2-1.62-454.52 466.86zm6.19 4.93L876-255l-2-1.62-454.56 466.8zm6.19 4.93l454.48-466.8-2-1.62-454.51 466.86zm6.2 4.94l454.47-466.75-2-1.62L431.83 220zm6.19 4.93l454.48-466.8-2-1.62L438 225zm6.2 4.93l454.48-466.8-2-1.62-454.52 466.86zm6.19 4.93l454.48-466.8-2-1.62-454.51 466.86zm6.19 4.93l454.48-466.8-2-1.62-454.51 466.86zm6.2 4.93l454.47-466.74-2-1.62L462.8 244.7zm6.19 4.93l454.48-466.8-2-1.62L469 249.64zm6.2 4.94l454.48-466.8-2-1.62-454.5 466.87zm6.19 4.93l454.48-466.8-2-1.62-454.5 466.87zm6.19 4.93l454.5-466.73-2-1.62-454.52 466.8zm6.2 4.93L950.3-195.81l-2-1.62-454.51 466.8zm6.19 4.93l454.5-466.73-2-1.62L500 274.31zm6.19 4.93l454.48-466.8-2-1.62-454.49 466.88zm6.19 4.93L968.88-181l-2-1.62-454.51 466.79zm6.2 4.93l454.48-466.8-2-1.62-454.5 466.88zm6.19 4.93l454.48-466.8-2-1.62L524.76 294zm6.19 4.93l454.48-466.8-2-1.62L531 299zm6.19 4.93l454.48-466.8-2-1.62L537.14 303.9zm6.2 4.93l454.48-466.8-2-1.62-454.49 466.89zm6.19 4.93L1006-151.43l-2-1.62-454.47 466.81zm6.19 4.93l454.48-466.8-2-1.62-454.49 466.89zm6.19 4.93l454.48-466.8-2-1.62-454.48 466.9zm6.2 4.93l454.48-466.8-2-1.62-454.49 466.9zm6.19 4.93l454.48-466.8-2-1.62-454.48 466.9zm6.2 4.93L1037-126.77l-2-1.62-454.5 466.81zm6.19 4.93l454.48-466.8-2-1.62-454.48 466.9zm6.2 4.93l454.5-466.7-2-1.62-454.51 466.81zm6.19 4.93L1055.6-112l-2-1.62-454.52 466.84zm6.2 4.93L1061.79-107l-2-1.62-454.51 466.77zm6.19 4.93L1068-102.11l-2-1.62-454.53 466.81zm6.19 4.93l454.48-466.8-2-1.62L617.67 368zm6.2 4.93l454.48-466.8-2-1.62-454.49 466.91zm6.19 4.93l454.48-466.8-2-1.62-454.49 466.92zm6.2 4.93l454.48-466.8-2-1.62-454.49 466.92zm6.19 4.93L1099-77.44l-2-1.62-454.56 466.8zm6.19 4.93l454.48-466.8-2-1.62-454.48 466.92zm6.2 4.93l454.48-466.8-2-1.62L654.83 397.6zm6.19 4.93l454.48-466.8-2-1.62L661 402.54zm6.19 4.93l454.48-466.8-2-1.62-454.48 466.93zm6.2 4.94l454.51-466.68-2-1.62-454.52 466.8zm6.19 4.93l454.51-466.68-2-1.62-454.51 466.8zm6.19 4.93l454.48-466.8-2-1.62L685.8 422.26zm6.2 4.93L1148.51-38l-2-1.62L692 427.2zm6.19 4.93L1154.7-33.06l-2-1.62-454.51 466.81zm6.19 4.93L1160.9-28.12l-2-1.62-454.51 466.8zm6.19 4.93l454.48-466.8-2-1.62L710.58 442zm6.2 4.93l454.48-466.8-2-1.62-454.48 466.94zm6.19 4.93l454.48-466.8-2-1.62L723 451.86zm6.19 4.93L1185.67-8.4l-2-1.62-454.51 466.81zm6.2 4.93L1191.87-3.46l-2-1.62-454.52 466.8zm6.19 4.93L1198.06 1.46l-2-1.62-454.51 466.81zm6.2 4.93L1204.25 6.4l-2-1.62-454.51 466.8zm6.19 4.93l454.48-466.8-2-1.62-454.47 466.95zm6.2 4.93l454.48-466.8-2-1.62-454.48 466.95zm6.19 4.94L1222.84 21.2l-2-1.62-454.51 466.8zm6.19 4.93L1229 26.12l-2-1.62-454.48 466.81zm6.19 4.93l454.48-466.8-2-1.62-454.47 466.94zm6.2 4.93L1241.42 36l-2-1.62-454.51 466.8zm6.2 4.93l454.48-466.8-2-1.62L791.1 506.11zm6.19 4.93l454.48-466.8-2-1.62L797.3 511zm6.2 4.93L1260 50.79l-2-1.62L803.49 516zM-453.76 286.2L.72-180.61l-2.03-1.61-454.48 466.8 2.03 1.62zM-447.57 291.13L6.91-175.67l-2.03-1.62-454.48 466.8 2.03 1.62zM-441.38 296.06l454.49-466.8-2.04-1.62-454.48 466.8 2.03 1.62zM-435.18 300.99L19.3-165.81l-2.03-1.62-454.48 466.8 2.03 1.62zM-428.99 305.93L25.5-160.88l-2.04-1.62-454.48 466.81 2.03 1.62zM-422.79 310.86l454.48-466.8-2.03-1.62-454.48 466.8 2.03 1.62zM-416.6 315.79l454.48-466.8-2.03-1.63-454.48 466.81 2.03 1.62zM-410.4 320.72l454.48-466.8-2.04-1.62-454.48 466.8 2.04 1.62zM-404.21 325.65l454.48-466.8-2.03-1.62-454.48 466.8 2.03 1.62zM-398.02 330.58l454.48-466.8-2.03-1.62-454.48 466.81 2.03 1.61zM-391.82 335.52L62.66-131.29l-2.03-1.62-454.49 466.81 2.04 1.62zM-385.63 340.45L68.85-126.36l-2.03-1.61-454.48 466.8 2.03 1.62zM-379.44 345.38L75.04-121.43l-2.03-1.61-454.48 466.8 2.03 1.62zM-373.24 350.31l454.48-466.8-2.04-1.62-454.48 466.8 2.04 1.62zM-367.05 355.25L87.44-111.56l-2.04-1.62-454.48 466.81 2.03 1.62zM-360.85 360.18L93.63-106.63l-2.03-1.62-454.49 466.81 2.04 1.62zM-354.66 365.11L99.82-101.7l-2.04-1.61-454.47 466.8 2.03 1.62zM-348.46 370.04L106.01-96.77l-2.03-1.61-454.48 466.8 2.04 1.62zM-342.27 374.97l454.48-466.8-2.03-1.62-454.49 466.8 2.04 1.62zM-336.08 379.9L118.4-86.9l-2.03-1.62-454.48 466.81 2.03 1.61zM-329.88 384.83L124.6-81.97l-2.04-1.62-454.48 466.81 2.04 1.61zM-323.69 389.77L130.79-77.04l-2.03-1.62-454.49 466.81 2.04 1.62zM-317.49 394.7L136.99-72.11l-2.04-1.61-454.48 466.8 2.04 1.62zM-311.3 399.63l454.48-466.8-2.03-1.62-454.48 466.8 2.03 1.62zM-305.11 404.56l454.49-466.8-2.04-1.62-454.48 466.8 2.03 1.62zM-298.91 409.5L155.57-57.31l-2.04-1.62-454.47 466.81 2.03 1.62zM-292.71 414.43L161.76-52.38l-2.03-1.61-454.48 466.8 2.04 1.62z"/><path class="cls-3" d="M-286.52 419.36l454.48-466.8-2.04-1.62-454.48 466.8 2.04 1.62zM-280.33 424.29l454.48-466.8-2.03-1.62-454.48 466.8 2.03 1.62zM-274.14 429.22l454.48-466.8-2.03-1.62-454.48 466.8 2.03 1.62zM-267.94 434.16L186.54-32.65l-2.04-1.62-454.47 466.81 2.03 1.62zM-261.75 439.08l454.48-466.8-2.03-1.62-454.48 466.81 2.03 1.61zM-255.55 444.02L198.93-22.79l-2.04-1.61-454.48 466.8 2.04 1.62zM-249.36 448.95l454.48-466.8-2.04-1.62-454.47 466.8 2.03 1.62zM-243.17 453.88l454.48-466.8-2.03-1.62-454.48 466.8 2.03 1.62zM-236.97 458.82L217.51-7.99l-2.04-1.62L-239 457.2l2.03 1.62zM-230.78 463.75L223.7-3.06l-2.03-1.62-454.48 466.81 2.03 1.62zM-224.58 468.68L229.9 1.88 227.86.26l-454.47 466.8 2.03 1.62zM-218.39 473.61L236.09 6.81l-2.03-1.62-454.48 466.8 2.03 1.62zM-212.19 478.54l454.48-466.8-2.04-1.62-454.48 466.81 2.04 1.61zM-206 483.48L248.48 16.67l-2.03-1.62-454.49 466.81 2.04 1.62zM-199.81 488.41L254.67 21.6l-2.03-1.62-454.48 466.81 2.03 1.62zM-193.61 493.34l454.48-466.8-2.03-1.62-454.49 466.8 2.04 1.62zM-187.42 498.27L267.06 31.46l-2.03-1.61-454.48 466.8 2.03 1.62zM-181.22 503.2L273.25 36.4l-2.03-1.62-454.48 466.8 2.04 1.62zM-175.03 508.14L279.45 41.33l-2.03-1.62-454.48 466.81 2.03 1.62zM-168.84 513.07L285.64 46.26l-2.03-1.62-454.48 466.81 2.03 1.62zM-162.64 518L291.84 51.2l-2.03-1.62-454.48 466.8 2.03 1.62zM-156.45 522.93L298.03 56.12 296 54.51l-454.48 466.8 2.03 1.62zM-150.26 527.86l454.49-466.8-2.04-1.62-454.48 466.81 2.03 1.61zM-144.06 532.79l454.48-466.8-2.03-1.62-454.48 466.81 2.03 1.61zM-137.87 537.73L316.62 70.92l-2.04-1.61-454.48 466.8 2.03 1.62zM-131.67 542.66l454.48-466.8-2.03-1.62-454.48 466.8 2.03 1.62zM-125.47 547.59L329 80.79l-2.03-1.62-454.48 466.8 2.04 1.62z"/></g><g class="cls-4"><path class="cls-5" d="M128.49 693.2L711.25 92.38l2.49 2.19L131 695.39zm10.08 8.86l582.76-600.82-2.49-2.19-582.75 600.82zm7.59 6.67l582.77-600.81-2.5-2.19-582.75 600.81zm7.59 6.67l582.77-600.81-2.52-2.19-582.73 600.81zm7.59 6.67l582.77-600.81-2.49-2.19-582.76 600.81zm7.59 6.67L751.7 127.93l-2.49-2.19-582.76 600.81zm7.59 6.67L759.3 134.6l-2.5-2.19L174 733.23zm7.6 6.67l582.77-600.81-2.5-2.19L181.64 739.9zm7.59 6.67l582.77-600.8-2.48-2.19-582.77 600.81zm7.6 6.68l582.76-600.81-2.49-2.19-582.76 600.81zm7.59 6.67l582.76-600.81-2.49-2.19-582.75 600.81zm7.59 6.67L797.26 168l-2.49-2.19L212 766.58zm7.59 6.67l582.77-600.81-2.49-2.19L219.6 773.26zm7.59 6.67L812.44 181.3l-2.5-2.19-582.75 600.82zm7.59 6.67L820 188l-2.5-2.19L234.78 786.6zm7.6 6.67l582.77-600.81-2.49-2.19-582.76 600.82zm7.59 6.67l582.77-600.8-2.49-2.19L250 799.94zm7.59 6.67L842.81 208l-2.49-2.19-582.76 600.8zm7.59 6.67l582.77-600.8-2.5-2.19-582.75 600.82zm7.59 6.67L858 221.33l-2.49-2.19L272.74 820zm7.59 6.67L865.59 228l-2.49-2.19-582.76 600.82zm7.59 6.67l582.78-600.8-2.49-2.19L287.93 833.3zm7.59 6.67l582.78-600.79-2.49-2.19L295.52 840zm7.6 6.67L888.37 248l-2.49-2.19-582.77 600.84zm7.59 6.67L896 254.69l-2.49-2.19-582.8 600.81zm7.59 6.67l582.78-600.79-2.5-2.19L318.3 860zm7.59 6.67L911.15 268l-2.49-2.19-582.77 600.85zm7.59 6.67l582.79-600.78-2.5-2.19-582.76 600.81zm7.6 6.67l582.78-600.78-2.49-2.19L341.08 880zm7.59 6.67L933.92 288l-2.49-2.19-582.76 600.86zm7.59 6.67l582.79-600.78-2.5-2.19-582.76 600.82zm7.59 6.67l582.79-600.78-2.5-2.2L363.85 900zm7.59 6.67L956.7 308.06l-2.49-2.19-582.76 600.82zm7.59 6.67l582.79-600.78-2.49-2.19L379 913.36zm7.59 6.67L971.88 321.4l-2.48-2.19L386.63 920zm7.59 6.67l582.79-600.77-2.5-2.19L394.23 926.7zm7.59 6.67l582.8-600.77-2.49-2.19-582.77 600.81zm7.6 6.68l582.79-600.78-2.49-2.19L409.41 940zm7.59 6.67l582.76-600.82-2.49-2.19L417 946.72zm7.59 6.67l582.76-600.81-2.49-2.19-582.73 600.85zm7.6 6.67l582.76-600.82-2.49-2.19-582.73 600.86zm7.59 6.67L1025 368.11l-2.49-2.19-582.73 600.81zm7.58 6.67l582.76-600.81-2.49-2.19L447.37 973.4zm7.59 6.67l582.76-600.81-2.49-2.19L455 980.08zm7.6 6.67l582.79-600.77-2.49-2.19-582.76 600.82zm7.59 6.67l582.8-600.76-2.5-2.2-582.75 600.82zm7.59 6.67L1063 401.47l-2.49-2.19-582.77 600.81zm7.59 6.67l582.76-600.81-2.49-2.19-582.72 600.86zm7.6 6.68l582.75-600.82-2.49-2.19-582.71 600.86zm7.59 6.67l582.76-600.81-2.49-2.19-582.72 600.85zm7.59 6.67l582.76-600.81-2.49-2.19-582.71 600.86zm7.59 6.67L1101 434.82l-2.5-2.19-582.8 600.82zm7.59 6.67l582.81-600.76-2.49-2.19-582.76 600.81zm7.6 6.67l582.75-600.82-.47-2.81-582.72 600.87zm7.59 6.67l582.76-600.82-2.5-2.19-582.71 600.87zm7.6 6.68l582.76-600.81-2.49-2.19-582.71 600.87zm7.59 6.67l582.76-600.81-2.49-2.19-582.71 600.87zm7.59 6.67l582.76-600.82-2.49-2.19-582.71 600.88zm7.59 6.67l582.76-600.82-2.49-2.19-582.7 600.88zm7.7 6.71l582.76-600.82-2.5-2.19-582.8 600.84zm7.59 6.67l582.71-600.79-2.49-2.19-582.76 600.82zm7.59 6.67l582.72-600.79-2.5-2.19-582.75 600.82zm7.6 6.67l582.76-600.81-2.54-2.2-582.76 600.85zm7.59 6.67l582.71-600.78-2.5-2.19-582.75 600.81zm7.59 6.67l582.76-600.82-2.49-2.19-582.81 600.85zm7.59 6.67l582.76-600.82-2.49-2.19L622 1126.86zm7.59 6.67l582.76-600.81-2.49-2.19-582.8 600.85zm7.59 6.67l582.75-600.82-2.49-2.19-582.8 600.85zm7.59 6.67L1230 548.25l-2.5-2.19-582.71 600.82zm7.59 6.67l582.76-600.81-2.49-2.19-582.8 600.85zm7.6 6.67l582.71-600.77-2.49-2.19L660 1160.22zm7.59 6.67l582.76-600.81-2.49-2.19-582.8 600.85zm7.59 6.67l582.75-600.82-2.49-2.19-582.79 600.86zm7.59 6.67L1268 581.61l-2.49-2.19-582.76 600.81zm7.6 6.67l582.76-600.82-2.49-2.19-582.8 600.87zm7.59 6.67L1283.19 595l-2.49-2.19-582.76 600.77zm7.59 6.67l582.76-600.82-2.49-2.19-582.81 600.87zm7.59 6.67l582.72-600.76-2.49-2.19-582.76 600.81zm7.59 6.67L1306 615l-2.49-2.19-582.8 600.78zm7.59 6.67l582.76-600.81-2.5-2.19-582.79 600.86zm7.59 6.67l582.76-600.82-2.5-2.19-582.78 600.88zm7.6 6.67L1328.75 635l-2.49-2.19-582.77 600.8zm7.59 6.67l582.76-600.82-2.49-2.19-582.79 600.88zm7.59 6.67l582.76-600.81-2.49-2.19L758.68 1247zm7.59 6.67L1351.52 655l-2.49-2.19-582.77 600.81zm7.59 6.67l582.76-600.82-2.49-2.19-582.79 600.88zm7.59 6.67l582.73-600.75-2.49-2.19L781.45 1267zm7.6 6.68L1374.3 675l-2.49-2.19L789 1273.64zm7.59 6.67l582.76-600.82-2.5-2.19-582.78 600.88zm7.59 6.67l582.76-600.82-2.49-2.19L804.23 1287zm7.6 6.67L1397.08 695l-2.5-2.19-582.76 600.84zm7.59 6.67l582.73-600.75-2.49-2.19-582.76 600.81zm7.59 6.67l582.76-600.82-2.49-2.19L827 1307zm7.59 6.67L1419.85 715l-2.49-2.19-582.75 600.86zm7.59 6.67l582.76-600.82-2.49-2.19-582.79 600.89zm7.59 6.67L1435 728.38l-2.49-2.19L849.78 1327zm7.59 6.67l582.76-600.82-2.49-2.19-582.78 600.9zm7.6 6.67l582.75-600.82-2.49-2.19L865 1340.35zm7.59 6.67l582.73-600.74-2.49-2.19L872.56 1347zm7.6 6.67l582.72-600.74-2.49-2.19-582.75 600.82zm7.59 6.67L1473 761.74l-2.5-2.19-582.75 600.82zm7.6 6.67l582.76-600.81-2.5-2.19L895.34 1367zm7.59 6.68l582.76-600.82-2.49-2.19-582.79 600.89zm7.59 6.67l582.75-600.82-2.49-2.19-582.79 600.89zm7.59 6.67l582.76-600.82-2.5-2.19-582.79 600.9zm7.59 6.67L1511 795.1l-2.5-2.19-582.79 600.82zm7.59 6.67l582.76-600.81-2.49-2.19-582.78 600.89zm7.59 6.67l582.76-600.81-2.49-2.19-582.78 600.89zm7.6 6.67l582.75-600.82-2.49-2.19-582.78 600.9z"/></g><g class="cls-6"><path class="cls-7" d="M-182.26 593.88L386.19 10l2.54 2-568.45 583.9zm10.29 8.19L396.48 18.21l-2.54-2L-174.51 600zm7.75 6.17L404.24 24.37l-2.55-2-568.45 583.85zm7.75 6.17L412 30.54l-2.54-2L-159 612.38zm7.75 6.17L419.73 36.71l-2.54-2-568.46 583.84zm7.75 6.17L427.47 42.88l-2.55-2-568.45 583.84zm7.75 6.17L435.22 49l-2.54-2-568.46 583.89zm7.75 6.17L443 55.22l-2.55-2L-128 637.06zm7.74 6.17L450.71 61.39l-2.54-2-568.45 583.84zm7.75 6.17L458.46 67.55l-2.54-2-568.45 583.85zm7.74 6.17L466.21 73.72l-2.54-2-568.46 583.85zm7.75 6.17L474 79.89l-2.54-2L-97 661.73zm7.75 6.17L481.7 86.06l-2.54-2L-89.29 667.9zm7.74 6.17L489.46 92.23l-2.55-2-568.46 583.84zm7.75 6.17L497.2 98.4l-2.55-2L-73.8 680.24zm7.75 6.17l568.45-583.88-2.54-2L-66 686.41zm7.75 6.17l568.44-583.89-2.54-2L-58.3 692.58zm7.75 6.17L520.44 116.9l-2.54-2-568.46 583.85zm7.75 6.17l568.44-583.89-2.55-2-568.45 583.85zm7.75 6.17l568.44-583.89-2.54-2-568.46 583.84zm7.75 6.17l568.43-583.89-2.54-2-568.45 583.84zm7.75 6.17l568.43-583.89-2.54-2-568.45 583.84zm7.74 6.17l568.44-583.89-2.54-2-568.46 583.84zm7.75 6.17l568.44-583.89-2.54-2L-4.07 735.76zM6.22 744l568.45-583.92-2.54-2L3.68 741.93zm7.78 6.12l568.42-583.87-2.55-2L11.43 748.1zm7.75 6.17l568.42-583.87-2.54-2L19.17 754.27zm7.75 6.17l568.42-583.87-2.55-2L26.92 760.43zm7.75 6.17l568.41-583.87-2.54-2L34.67 766.6zM45 774.8l568.41-583.87-2.54-2L42.41 772.77zm7.71 6.2l568.45-583.9-2.55-2L50.16 778.94zm7.75 6.17l568.45-583.9-2.55-2L57.91 785.11zm7.74 6.17l568.45-583.91-2.55-2L65.66 791.28zm7.75 6.17L644.4 215.6l-2.54-2L73.4 797.45zm7.75 6.17l568.44-583.91-2.54-2L81.15 803.61zm7.75 6.17l568.44-583.91-2.55-2L88.9 809.78zm7.74 6.15l568.45-583.89-2.54-2L96.64 816zm7.75 6.17l568.45-583.89-2.54-2-568.46 583.84zm7.74 6.17l568.46-583.89-2.54-2-568.46 583.84zm7.74 6.17l568.47-583.89-2.54-2-568.46 583.84zm7.75 6.17l568.46-583.89-2.54-2-568.45 583.84zm7.75 6.17L706.38 265l-2.54-2-568.46 583.8zm7.74 6.17l568.47-583.9-2.54-2L143.13 853zm7.75 6.17l568.46-583.9-2.54-2-568.45 583.84zm7.75 6.17l568.46-583.9-2.54-2L158.62 865.3zm7.75 6.17l568.46-583.9-2.55-2-568.45 583.84zm7.74 6.17l568.47-583.9-2.55-2-568.45 583.84zm7.74 6.17L752.86 302l-2.54-2-568.46 583.81zm7.75 6.17l568.47-583.91-2.54-2L189.62 890zm7.75 6.17L768.36 314.3l-2.54-2-568.46 583.85zm7.75 6.17l568.47-583.91-2.54-2-568.46 583.85zm7.75 6.17l568.47-583.91-2.55-2-568.45 583.84zm7.75 6.17L791.6 332.81l-2.55-2-568.44 583.84zm7.75 6.17L799.34 339l-2.54-2-568.45 583.82zm7.75 6.17L807.1 345.15l-2.55-2L236.1 927zm7.76 6.18l568.46-583.91-2.54-2-568.45 583.84zm7.75 6.17L822.61 357.5l-2.54-2-568.46 583.84zm7.75 6.17l568.46-583.91-2.54-2-568.46 583.84zm7.75 6.17L838.1 369.83l-2.54-2L267.1 951.68zm7.75 6.17L845.85 376l-2.55-2-568.45 583.85zm7.74 6.17L853.6 382.17l-2.54-2L282.6 964zm7.74 6.17l568.46-583.92-2.55-2-568.44 583.85zm7.75 6.17l568.46-583.92-2.54-2-568.46 583.84zm7.75 6.17l568.46-583.92-2.55-2-568.45 583.84zm7.75 6.17l568.45-583.92-2.54-2-568.45 583.84zm7.75 6.17L892.33 413l-2.54-2-568.45 583.86zm7.75 6.17l568.45-583.92-2.54-2L329.08 1001zm7.75 6.17l568.44-583.93-2.54-2-568.45 583.85zm7.75 6.17l568.44-583.93-2.55-2-568.45 583.84zm7.75 6.17l568.44-583.93-2.54-2-568.45 583.85zm7.75 6.17l568.44-583.93-2.54-2-568.46 583.84zm7.75 6.17L938.81 450l-2.54-2-568.45 583.87zm7.75 6.17L946.56 456.2l-2.54-2L375.56 1038zm7.74 6.16l568.44-583.92-2.54-2-568.46 583.84zm7.75 6.17l568.44-583.93-2.54-2-568.46 583.85zm7.75 6.17L969.8 474.7l-2.54-2-568.45 583.85zm7.75 6.17l568.43-583.93-2.54-2-568.46 583.84zm7.75 6.17L985.3 487l-2.54-2-568.46 583.88zm7.75 6.17L993 493.21l-2.54-2L422 1075.05zm7.75 6.17l568.43-583.93-2.55-2-568.45 583.84zm7.75 6.17l568.46-583.87-2.55-2-568.48 583.78zm7.75 6.17l568.45-583.87-2.54-2-568.48 583.78zm7.74 6.17L1024 517.89l-2.54-2L453 1099.73zm7.75 6.17l568.46-583.87-2.54-2-568.49 583.78zm7.75 6.17l568.45-583.87-2.54-2-568.49 583.77zm7.75 6.17l568.45-583.87-2.54-2-568.49 583.77zm7.75 6.17L1055 542.56l-2.54-2L484 1124.4zm7.75 6.17l568.45-583.87-2.54-2-568.49 583.77zm7.75 6.17l568.41-583.94-2.55-2-568.45 583.84zm7.74 6.17l568.46-583.87-2.54-2-568.5 583.77zm7.75 6.17L1086 567.24l-2.55-2L515 1149.08zm7.75 6.17l568.41-583.95-2.54-2-568.45 583.85zm7.74 6.17l568.46-583.87-2.54-2-568.49 583.77zm7.75 6.17l568.46-583.87-2.54-2-568.49 583.77zm7.75 6.17L1117 591.91l-2.54-2L546 1173.76zm7.75 6.17l568.45-583.87-2.54-2-568.5 583.76zm7.75 6.17l568.41-583.95-2.54-2-568.45 583.84zm7.75 6.17l568.45-583.87-2.54-2-568.5 583.76zm7.75 6.17L1148 616.58l-2.54-2L577 1198.43zm7.75 6.17l568.45-583.87-2.54-2-568.5 583.76zm7.74 6.17l568.46-583.87-2.55-2-568.49 583.76zm7.75 6.17l568.45-583.87-2.55-2-568.49 583.76zm7.75 6.17L1179 641.26l-2.54-2L608 1223.11zm7.75 6.17l568.45-583.87-2.54-2-568.5 583.75zm7.74 6.17l568.41-583.96-2.55-2-568.45 583.84zm7.75 6.17l568.46-583.87-2.55-2-568.5 583.75zm7.75 6.17L1210 665.94l-2.54-2L639 1247.78zm7.75 6.17l568.46-583.87-2.54-2-568.51 583.75zm7.75 6.17l568.45-583.87-2.54-2-568.51 583.74z"/></g><g class="cls-8"><path class="cls-9" d="M-165.48-13.69L289-480.49l2 1.62-454.45 466.8zm8.23 6.55l454.48-466.8-2-1.62-454.51 466.8zm6.19 4.93L303.42-469l-2-1.62-454.51 466.8zm6.19 4.93l454.48-466.8-2-1.62L-146.9 1.11zm6.2 4.93l454.48-466.8-2-1.62L-140.71 6zm6.19 4.93L322-454.21l-2-1.62L-134.51 11zm6.19 4.93L328.2-449.28l-2-1.62-454.52 466.8zm6.2 4.93l454.48-466.8-2-1.62-454.51 466.82zm6.19 4.93l454.48-466.8-2-1.62-454.51 466.82zm6.2 4.94l454.48-466.8-2-1.62L-109.73 30.7zm6.19 4.93L353-429.55l-2-1.62-454.54 466.8zm6.19 4.93l454.49-466.79-2-1.62-454.52 466.8zm6.2 4.93l454.48-466.8-2-1.62L-91.15 45.49zm6.19 4.9l454.49-466.8-2-1.62L-85 50.42zm6.2 4.93l454.48-466.8-2-1.62L-78.77 55.36zm6.2 4.93L383.94-404.9l-2-1.62L-72.57 60.29zm6.19 4.93L390.13-400l-2-1.62L-66.38 65.22zm6.19 4.93L396.33-395l-2-1.62L-60.18 70.15zm6.15 4.99L402.53-390.1l-2-1.62L-54 75.09zm6.19 4.93l454.48-466.8-2-1.62L-47.8 80zm6.19 4.93l454.48-466.8-2-1.62L-41.6 85zm6.2 4.93l454.53-466.8-2-1.62L-35.4 89.88zm6.19 4.93l454.53-466.8-2-1.62-454.51 466.8zm6.2 4.93l454.48-466.8-2-1.62L-23 99.75zm6.19 4.93l454.48-466.8-2-1.62-454.46 466.81zm6.19 4.93l454.48-466.8-2-1.62-454.46 466.81zm6.19 4.93l454.48-466.8-2-1.62L-4.44 114.54zm6.19 4.93l454.48-466.8-2-1.62L1.76 119.47zM10 126l454.48-466.8-2-1.62L8 124.41zm6.18 5l454.48-466.85-2-1.62L14.15 129.34zm6.2 4.93l454.48-466.8-2-1.62L20.34 134.27zm6.19 4.93L483-326l-2-1.62L26.53 139.2zm6.19 4.93l454.48-466.8-2-1.62L32.73 144.13zm6.2 4.93l454.48-466.8-2-1.62L38.92 149.07zm6.19 4.93l454.47-466.84-2-1.62L45.11 154zm6.19 4.93l454.48-466.84-2-1.62L51.31 158.93zm6.19 4.93L514-301.32l-2-1.62-454.5 466.8zm6.2 4.93l454.48-466.8-2-1.62L63.7 168.79zm6.19 4.93L526.4-291.46l-2-1.62L69.89 173.73zm6.19 4.93L532.6-286.53l-2-1.62L76.09 178.66zm6.2 4.93l454.48-466.8-2-1.62L82.28 183.59zm6.19 4.93L545-276.66l-2-1.62-454.52 466.8zm6.19 4.93l454.48-466.8-2-1.62-454.5 466.78zm6.2 4.93L557.37-266.8l-2-1.62-454.51 466.81zm6.2 4.93l454.48-466.82-2-1.62-454.52 466.81zm6.19 4.93l454.48-466.8-2-1.62-454.51 466.79zm6.19 4.93L576-252l-2-1.62-454.56 466.8zm6.19 4.93l454.48-466.8-2-1.62-454.5 466.79zm6.2 4.94l454.48-466.82-2-1.62L131.83 223zm6.19 4.93l454.48-466.8-2-1.62L138 228zm6.2 4.93l454.48-466.8-2-1.62-454.51 466.79zm6.19 4.93l454.48-466.8-2-1.62-454.5 466.79zm6.19 4.93l454.48-466.8-2-1.62-454.5 466.79zm6.2 4.93l454.48-466.81-2-1.62L162.8 247.7zm6.19 4.93l454.48-466.8-2-1.62L169 252.64zm6.2 4.94L631.7-207.6l-2-1.62-454.49 466.8zm6.19 4.93l454.48-466.8-2-1.62-454.49 466.8zm6.19 4.93l454.51-466.8-2-1.62-454.52 466.8zm6.2 4.93l454.5-466.8-2-1.62-454.51 466.8zm6.19 4.93l454.51-466.8-2-1.62L200 277.31zm6.19 4.93l454.48-466.8-2-1.62-454.48 466.81zm6.19 4.93L668.88-178l-2-1.62-454.51 466.79zm6.2 4.93l454.48-466.8-2-1.62L218.56 292.1zm6.19 4.93l454.48-466.8-2-1.62L224.76 297zm6.19 4.93l454.48-466.8-2-1.62L231 302zm6.19 4.93l454.48-466.8-2-1.62L237.14 306.9zm6.2 4.93l454.48-466.8-2-1.62-454.48 466.82zm6.19 4.93L706-148.43l-2-1.57-454.47 466.76zm6.19 4.93l454.48-466.8-2-1.62-454.48 466.82zm6.19 4.93l454.48-466.8-2-1.62-454.47 466.83zm6.2 4.93l454.48-466.8-2-1.62-454.48 466.83zm6.19 4.93L730.82-128.7l-2-1.62-454.51 466.81zm6.2 4.93L737-123.77l-2-1.62-454.5 466.81zm6.19 4.93l454.48-466.8-2-1.62L286.7 346.35zm6.2 4.93L749.4-113.9l-2-1.62-454.51 466.81zm6.19 4.93L755.6-109l-2-1.62-454.52 466.84zm6.2 4.93L761.79-104l-2-1.62-454.51 466.77zm6.19 4.93L768-99.11l-2-1.62-454.53 466.81zm6.19 4.93L774.18-94.17l-2-1.62L317.67 371zm6.2 4.93L780.37-89.24l-2-1.62-454.51 466.8zm6.19 4.93L786.57-84.31l-2-1.62-454.52 466.81zm6.2 4.93L792.76-79.38l-2-1.62-454.51 466.81zm6.19 4.93L799-74.44l-2-1.62-454.56 466.8zm6.19 4.93L805.15-69.51l-2-1.62-454.51 466.8zm6.2 4.93L811.34-64.58l-2-1.62-454.51 466.8zm6.19 4.93L817.54-59.65l-2-1.62L361 405.54zm6.19 4.93L823.73-54.72l-2-1.62-454.51 466.81zm6.2 4.94L829.93-49.78l-2-1.62-454.52 466.8zm6.19 4.93L836.12-44.85l-2-1.62-454.51 466.8zm6.19 4.93L842.31-39.92l-2-1.62-454.51 466.8zm6.2 4.93L848.51-35l-2-1.62L392 430.2zm6.19 4.93L854.7-30.06l-2-1.62-454.51 466.81zm6.19 4.93L860.9-25.12l-2-1.62-454.51 466.8zm6.19 4.93L867.09-20.19l-2-1.62L410.58 445zm6.2 4.93L873.29-15.26l-2-1.62-454.52 466.81zm6.19 4.93L879.48-10.33l-2-1.62L423 454.86zm6.19 4.93L885.67-5.4l-2-1.62-454.51 466.81zm6.2 4.93L891.87-.46l-2-1.62-454.52 466.8zm6.19 4.93L898.06 4.46l-2-1.62-454.51 466.81zm6.2 4.93L904.25 9.4l-2-1.62-454.51 466.8zm6.19 4.93L910.45 14.33l-2-1.62-454.51 466.81zm6.2 4.93L916.64 19.26l-2-1.62-454.51 466.81zm6.19 4.94L922.84 24.2l-2-1.62-454.51 466.8zm6.19 4.93L929 29.12l-2-1.62-454.48 466.81zm6.19 4.93L935.23 34.06l-2-1.62-454.52 466.8zm6.2 4.93L941.42 39l-2-1.62-454.51 466.8zm6.2 4.93L947.62 43.92l-2-1.62L491.1 509.11zm6.19 4.93L953.81 48.86l-2-1.62L497.3 514zm6.2 4.93L960 53.79l-2-1.62L503.49 519z"/></g></svg>