<svg id="Layer_1" data-name="Layer 1" xmlns="http://www.w3.org/2000/svg" viewBox="0 0 1920 203.17"><defs><style>.cls-1{fill:none}.cls-2{clip-path:url(#clip-path)}.cls-3{fill:#00ade9}.cls-4{clip-path:url(#clip-path-2)}.cls-5{fill:#6ec4e9}.cls-6{fill:#e6007c}.cls-7{clip-path:url(#clip-path-3)}.cls-8{clip-path:url(#clip-path-4)}.cls-9{clip-path:url(#clip-path-5)}.cls-10{fill:#e5007c}</style><clipPath id="clip-path"><path class="cls-1" d="M603.33 203.61L1920 47.2v156.41H603.33z"/></clipPath><clipPath id="clip-path-2"><path class="cls-1" d="M902.68 680.25l653.99 78.22 363.33.45v-147.6L902.68 680.25z"/></clipPath><clipPath id="clip-path-3"><path class="cls-1" d="M1560 759.17l360 43.05v-44.45l-360 1.4z"/></clipPath><clipPath id="clip-path-4"><path class="cls-1" d="M1560 758.73L0 573.68v185.05h1560z"/></clipPath><clipPath id="clip-path-5"><path class="cls-1" d="M605.88 203.61l147.9-17.55L-.88 0v203.61h606.76z"/></clipPath></defs><title>tooday-background-top-new</title><g class="cls-2"><path class="cls-3" d="M614.52 211.26L1069-255.54l2.03 1.62-454.48 466.8-2.03-1.62zM622.75 217.81l454.48-466.8-2.04-1.62L620.72 216.2l2.03 1.61zM628.94 222.75l454.48-466.81-2.04-1.62-454.47 466.81 2.03 1.62zM635.13 227.68l454.48-466.81-2.03-1.61-454.48 466.8 2.03 1.62zM641.33 232.61l454.48-466.8-2.03-1.62-454.49 466.8 2.04 1.62zM647.52 237.54L1102-229.26l-2.03-1.62-454.48 466.8 2.03 1.62zM653.72 242.47l454.48-466.8-2.04-1.62-454.48 466.8 2.04 1.62zM659.91 247.41l454.48-466.81-2.03-1.62-454.48 466.81 2.03 1.62zM666.1 252.34l454.48-466.81-2.03-1.61-454.48 466.8 2.03 1.62zM672.3 257.27l454.48-466.8-2.03-1.62-454.48 466.8 2.03 1.62zM678.49 262.2l454.48-466.8-2.03-1.62-454.48 466.8 2.03 1.62zM684.69 267.13l454.48-466.8-2.04-1.62-454.48 466.8 2.04 1.62zM690.88 272.06l454.48-466.8-2.03-1.62-454.48 466.81 2.03 1.61zM697.07 277l454.49-466.81-2.04-1.62-454.48 466.81 2.03 1.62zM703.27 281.93l454.48-466.8-2.04-1.62-454.48 466.8 2.04 1.62zM709.47 286.86l454.47-466.8-2.03-1.62-454.48 466.8 2.04 1.62zM715.66 291.79l454.47-466.8-2.03-1.62-454.48 466.8 2.04 1.62zM721.85 296.73l454.48-466.81-2.03-1.62-454.48 466.81 2.03 1.62zM728.04 301.66l454.49-466.81-2.04-1.62-454.48 466.81 2.03 1.62zM734.24 306.59l454.48-466.81-2.03-1.61-454.49 466.8 2.04 1.62zM740.43 311.52l454.48-466.8-2.03-1.62L738.4 309.9l2.03 1.62zM746.63 316.45l454.48-466.8-2.04-1.62-454.47 466.8 2.03 1.62zM752.82 321.38l454.48-466.8-2.03-1.62-454.48 466.81 2.03 1.61zM759.01 326.32l454.48-466.81-2.03-1.62L756.98 324.7l2.03 1.62zM765.21 331.25l454.48-466.81-2.03-1.62-454.48 466.81 2.03 1.62zM771.4 336.18l454.48-466.8-2.03-1.62-454.48 466.8 2.03 1.62zM777.6 341.11l454.48-466.8-2.04-1.62-454.48 466.8 2.04 1.62zM783.79 346.05l454.48-466.81-2.03-1.62-454.48 466.8 2.03 1.63zM789.99 350.98l454.47-466.81-2.03-1.61-454.48 466.8 2.04 1.62zM796.18 355.91l454.48-466.81-2.03-1.62-454.48 466.81 2.03 1.62zM802.38 360.84l454.48-466.8-2.04-1.62-454.48 466.8 2.04 1.62zM808.57 365.77l454.48-466.8-2.04-1.62-454.48 466.8 2.04 1.62zM814.76 370.7l454.48-466.8-2.03-1.62-454.48 466.8 2.03 1.62zM820.95 375.64l454.49-466.81-2.04-1.62-454.48 466.81 2.03 1.62zM827.15 380.57l454.48-466.81-2.03-1.62-454.49 466.81 2.04 1.62zM833.34 385.5l454.48-466.81-2.03-1.62-454.48 466.81 2.03 1.62zM839.53 390.43l454.49-466.8-2.04-1.62-454.48 466.8 2.03 1.62zM845.73 395.37l454.48-466.81-2.03-1.62L843.7 393.75l2.03 1.62zM851.93 400.3L1306.4-66.51l-2.03-1.62-454.48 466.81 2.04 1.62zM858.12 405.23L1312.6-61.58l-2.03-1.61-454.48 466.8 2.03 1.62zM864.32 410.16l454.48-466.8-2.04-1.62-454.48 466.8 2.04 1.62zM870.51 415.09l454.48-466.8-2.04-1.62-454.47 466.81 2.03 1.61zM876.7 420.02l454.48-466.8-2.03-1.62-454.48 466.81 2.03 1.61zM882.89 424.95l454.49-466.8-2.04-1.62-454.48 466.81 2.03 1.61zM889.09 429.89l454.48-466.81-2.03-1.62-454.49 466.81 2.04 1.62zM895.28 434.82l454.49-466.8-2.04-1.62-454.48 466.8 2.03 1.62zM901.48 439.75l454.48-466.8-2.04-1.62-454.48 466.8 2.04 1.62zM907.67 444.68l454.48-466.8-2.03-1.62-454.48 466.8 2.03 1.62zM913.87 449.62l454.47-466.81-2.03-1.62L911.83 448l2.04 1.62zM920.06 454.55l454.48-466.81-2.03-1.62-454.48 466.81 2.03 1.62zM926.25 459.48l454.48-466.8-2.03-1.63-454.47 466.81 2.02 1.62zM932.45 464.41l454.48-466.8-2.04-1.62-454.48 466.8 2.04 1.62zM938.64 469.35L1393.13 2.54l-2.04-1.62-454.48 466.81 2.03 1.62zM944.84 474.28L1399.31 7.47l-2.03-1.62L942.8 472.66l2.04 1.62zM951.03 479.21L1405.51 12.4l-2.03-1.62L949 477.59l2.03 1.62zM1199.52 231.26L1654-235.54l2.03 1.62-454.48 466.8-2.03-1.62zM1207.75 237.81l454.48-466.8-2.04-1.62-454.47 466.81 2.03 1.61zM1213.94 242.75l454.48-466.81-2.04-1.62-454.47 466.81 2.03 1.62zM1220.13 247.68l454.48-466.81-2.03-1.61-454.48 466.8 2.03 1.62zM1226.33 252.61l454.48-466.8-2.03-1.62-454.48 466.8 2.03 1.62zM1232.52 257.54L1687-209.26l-2.03-1.62-454.48 466.8 2.03 1.62zM1238.72 262.48l454.48-466.81-2.04-1.62-454.48 466.81 2.04 1.62zM1244.91 267.41l454.48-466.81-2.03-1.62-454.48 466.81 2.03 1.62zM1251.1 272.34l454.48-466.81-2.03-1.61-454.48 466.8 2.03 1.62zM1257.3 277.27l454.48-466.8-2.03-1.62-454.48 466.8 2.03 1.62zM1263.49 282.2l454.48-466.8-2.03-1.62-454.48 466.8 2.03 1.62zM1269.69 287.13l454.48-466.8-2.04-1.62-454.48 466.8 2.04 1.62zM1275.88 292.06l454.48-466.8-2.03-1.62-454.48 466.81 2.03 1.61zM1282.07 297l454.49-466.81-2.04-1.62-454.48 466.81 2.03 1.62zM1288.27 301.93l454.48-466.8-2.04-1.62-454.48 466.8 2.04 1.62zM1294.46 306.86l454.48-466.8-2.03-1.62-454.48 466.8 2.03 1.62zM1300.66 311.79l454.47-466.8-2.03-1.62-454.48 466.8 2.04 1.62zM1306.85 316.73l454.48-466.81-2.03-1.62-454.48 466.81 2.03 1.62zM1313.04 321.66l454.49-466.81-2.04-1.62-454.48 466.81 2.03 1.62zM1319.24 326.59l454.48-466.81-2.03-1.61-454.49 466.8 2.04 1.62zM1325.43 331.52l454.48-466.8-2.03-1.62-454.48 466.8 2.03 1.62zM1331.63 336.45l454.48-466.8-2.04-1.62-454.47 466.8 2.03 1.62zM1337.82 341.38l454.48-466.8-2.03-1.62-454.48 466.81 2.03 1.61zM1344.01 346.32l454.48-466.81-2.03-1.62-454.48 466.81 2.03 1.62zM1350.21 351.25l454.48-466.81-2.03-1.61-454.48 466.8 2.03 1.62zM1356.4 356.18l454.48-466.8-2.03-1.62-454.48 466.8 2.03 1.62zM1362.6 361.11l454.48-466.8-2.04-1.62-454.48 466.8 2.04 1.62zM1368.79 366.05l454.48-466.81-2.03-1.62-454.48 466.8 2.03 1.63zM1374.99 370.98l454.47-466.81-2.03-1.61-454.48 466.8 2.04 1.62zM1381.18 375.91L1835.66-90.9l-2.03-1.62-454.48 466.81 2.03 1.62zM1387.38 380.84l454.48-466.8-2.04-1.62-454.48 466.8 2.04 1.62zM1393.57 385.77l454.48-466.8-2.04-1.62-454.48 466.8 2.04 1.62zM1399.76 390.7l454.48-466.8-2.03-1.62-454.48 466.8 2.03 1.62zM1405.95 395.64l454.49-466.81-2.04-1.62-454.48 466.81 2.03 1.62zM1412.15 400.57l454.48-466.81-2.03-1.62-454.49 466.81 2.04 1.62zM1418.34 405.5l454.48-466.8-2.03-1.63-454.48 466.81 2.03 1.62zM1424.54 410.43l454.48-466.8-2.04-1.62-454.48 466.8 2.04 1.62zM1430.73 415.37l454.48-466.81-2.03-1.62-454.49 466.81 2.04 1.62zM1436.93 420.3L1891.4-46.51l-2.03-1.62-454.48 466.81 2.04 1.62zM1443.12 425.23L1897.6-41.58l-2.03-1.61-454.48 466.8 2.03 1.62zM1449.32 430.16l454.48-466.8-2.04-1.62-454.48 466.8 2.04 1.62zM1455.51 435.09l454.48-466.8-2.04-1.62-454.47 466.81 2.03 1.61zM1461.7 440.02l454.48-466.8-2.03-1.62-454.48 466.81 2.03 1.61zM1467.89 444.95l454.49-466.8-2.04-1.62-454.48 466.81 2.03 1.61zM1474.09 449.89l454.48-466.81-2.03-1.62-454.48 466.81 2.03 1.62zM1480.29 454.82l454.48-466.8-2.04-1.62-454.48 466.8 2.04 1.62zM1486.47 459.75l454.49-466.8-2.04-1.62-454.48 466.8 2.03 1.62zM1492.67 464.68l454.48-466.8-2.03-1.62-454.48 466.8 2.03 1.62zM1498.87 469.62L1953.34 2.81l-2.03-1.62L1496.83 468l2.04 1.62zM1505.06 474.55L1959.54 7.74l-2.03-1.62-454.48 466.81 2.03 1.62zM1511.26 479.48l454.47-466.8-2.03-1.63-454.48 466.81 2.04 1.62zM1517.45 484.41l454.48-466.8-2.04-1.62-454.48 466.8 2.04 1.62zM1523.64 489.35l454.49-466.81-2.04-1.62-454.48 466.81 2.03 1.62zM1529.84 494.28l454.47-466.81-2.03-1.62-454.47 466.81 2.03 1.62zM1536.03 499.21l454.48-466.8-2.03-1.63L1534 497.59l2.03 1.62zM1547.03 499.21l454.48-466.8-2.03-1.63L1545 497.59l2.03 1.62zM1591.03 499.21l454.48-466.8-2.03-1.63L1589 497.59l2.03 1.62zM1602.03 499.21l454.48-466.8-2.03-1.63L1600 497.59l2.03 1.62zM1613.03 499.21l454.48-466.8-2.03-1.63L1611 497.59l2.03 1.62zM1624.03 499.21l454.48-466.8-2.03-1.63L1622 497.59l2.03 1.62zM1558.03 499.21l454.48-466.8-2.03-1.63L1556 497.59l2.03 1.62zM1569.03 499.21l454.48-466.8-2.03-1.63L1567 497.59l2.03 1.62zM1580.03 499.21l454.48-466.8-2.03-1.63L1578 497.59l2.03 1.62z"/></g><g class="cls-4"><path class="cls-5" d="M810.49 681.15l582.76-600.82 2.49 2.2-582.76 600.81-2.49-2.19zM820.58 690.01L1403.33 89.2l-2.49-2.19-582.75 600.81 2.49 2.19zM828.17 696.68l582.76-600.81-2.5-2.19L825.68 694.5l2.49 2.18zM835.76 703.35l582.76-600.81-2.49-2.19-582.76 600.81 2.49 2.19zM843.35 710.03l582.76-600.82-2.49-2.19-582.76 600.82 2.49 2.19zM850.94 716.7l582.76-600.82-2.49-2.19-582.76 600.82 2.49 2.19zM858.53 723.37l582.77-600.82-2.5-2.19-582.76 600.82 2.49 2.19zM866.13 730.04l582.76-600.81-2.5-2.2-582.75 600.82 2.49 2.19zM873.72 736.71l582.76-600.81-2.49-2.19-582.76 600.81 2.49 2.19zM881.32 743.39l582.75-600.82-2.49-2.19L878.82 741.2l2.5 2.19zM888.9 750.05l582.76-600.81-2.49-2.19-582.76 600.82 2.49 2.18zM896.5 756.73l582.76-600.82-2.5-2.19-582.75 600.82 2.49 2.19zM904.09 763.4l582.76-600.82-2.49-2.18L901.6 761.21l2.49 2.19zM911.68 770.07l582.76-600.82-2.5-2.19-582.75 600.82 2.49 2.19zM919.27 776.74l582.76-600.81-2.49-2.19-582.76 600.81 2.49 2.19zM926.87 783.41l582.76-600.81-2.5-2.19-582.75 600.81 2.49 2.19zM934.46 790.09l582.76-600.82-2.5-2.19-582.75 600.81 2.49 2.2zM942.05 796.76l582.76-600.82-2.49-2.19-582.76 600.82 2.49 2.19zM949.64 803.43l582.76-600.82-2.49-2.19-582.76 600.82 2.49 2.19z"/><path class="cls-6" d="M31.45 769.05l580.96-596.72 2.6 2.07L34.05 771.12l-2.6-2.07zM41.97 777.42l580.95-596.71-2.59-2.07L39.37 775.35l2.6 2.07zM49.88 783.73l580.97-596.72-2.61-2.07L47.29 781.66l2.59 2.07zM57.8 790.03l580.96-596.72-2.6-2.06L55.2 787.96l2.6 2.07zM65.72 796.33l580.96-596.71-2.6-2.07L63.12 794.26l2.6 2.07zM51.45 769.05l580.96-596.72 2.6 2.07L54.05 771.12l-2.6-2.07zM61.97 777.42l580.95-596.71-2.59-2.07L59.37 775.35l2.6 2.07zM69.88 783.73l580.97-596.72-2.61-2.07L67.29 781.66l2.59 2.07zM77.8 790.03l580.96-596.72-2.6-2.06L75.2 787.96l2.6 2.07zM85.72 796.33l580.96-596.71-2.6-2.07L83.12 794.26l2.6 2.07z"/></g><g class="cls-7"><path class="cls-5" d="M810.49 681.15l582.76-600.82 2.49 2.2-582.76 600.81-2.49-2.19zM820.58 690.01L1403.33 89.2l-2.49-2.19-582.75 600.81 2.49 2.19zM828.17 696.68l582.76-600.81-2.5-2.19L825.68 694.5l2.49 2.18zM835.76 703.35l582.76-600.81-2.49-2.19-582.76 600.81 2.49 2.19zM843.35 710.03l582.76-600.82-2.49-2.19-582.76 600.82 2.49 2.19zM850.94 716.7l582.76-600.82-2.49-2.19-582.76 600.82 2.49 2.19zM858.53 723.37l582.77-600.82-2.5-2.19-582.76 600.82 2.49 2.19zM866.13 730.04l582.76-600.81-2.5-2.2-582.75 600.82 2.49 2.19zM873.72 736.71l582.76-600.81-2.49-2.19-582.76 600.81 2.49 2.19zM881.32 743.39l582.75-600.82-2.49-2.19L878.82 741.2l2.5 2.19zM888.9 750.05l582.76-600.81-2.49-2.19-582.76 600.82 2.49 2.18zM896.5 756.73l582.76-600.82-2.5-2.19-582.75 600.82 2.49 2.19zM904.09 763.4l582.76-600.82-2.49-2.18L901.6 761.21l2.49 2.19zM911.68 770.07l582.76-600.82-2.5-2.19-582.75 600.82 2.49 2.19zM919.27 776.74l582.76-600.81-2.49-2.19-582.76 600.81 2.49 2.19zM926.87 783.41l582.76-600.81-2.5-2.19-582.75 600.81 2.49 2.19zM934.46 790.09l582.76-600.82-2.5-2.19-582.75 600.81 2.49 2.2zM942.05 796.76l582.76-600.82-2.49-2.19-582.76 600.82 2.49 2.19zM949.64 803.43l582.76-600.82-2.49-2.19-582.76 600.82 2.49 2.19z"/><path class="cls-6" d="M31.45 769.05l580.96-596.72 2.6 2.07L34.05 771.12l-2.6-2.07zM41.97 777.42l580.95-596.71-2.59-2.07L39.37 775.35l2.6 2.07zM49.88 783.73l580.97-596.72-2.61-2.07L47.29 781.66l2.59 2.07zM57.8 790.03l580.96-596.72-2.6-2.06L55.2 787.96l2.6 2.07zM65.72 796.33l580.96-596.71-2.6-2.07L63.12 794.26l2.6 2.07zM51.45 769.05l580.96-596.72 2.6 2.07L54.05 771.12l-2.6-2.07zM61.97 777.42l580.95-596.71-2.59-2.07L59.37 775.35l2.6 2.07zM69.88 783.73l580.97-596.72-2.61-2.07L67.29 781.66l2.59 2.07zM77.8 790.03l580.96-596.72-2.6-2.06L75.2 787.96l2.6 2.07zM85.72 796.33l580.96-596.71-2.6-2.07L83.12 794.26l2.6 2.07z"/></g><g class="cls-8"><path class="cls-6" d="M51.45 769.05l580.96-596.72 2.6 2.07L54.05 771.12l-2.6-2.07zM61.97 777.42l580.95-596.71-2.59-2.07L59.37 775.35l2.6 2.07zM69.88 783.73l580.97-596.72-2.61-2.07L67.29 781.66l2.59 2.07zM77.8 790.03l580.96-596.72-2.6-2.06L75.2 787.96l2.6 2.07zM85.72 796.33l580.96-596.71-2.6-2.07L83.12 794.26l2.6 2.07zM-103 769.05l580.96-596.72 2.6 2.07-580.97 596.72-2.59-2.07zM-92.49 777.42l580.96-596.71-2.6-2.07-580.95 596.71 2.59 2.07zM-84.57 783.73l580.96-596.72-2.6-2.07-580.96 596.72 2.6 2.07zM-76.65 790.03l580.96-596.72-2.6-2.06-580.96 596.71 2.6 2.07zM-68.73 796.33l580.96-596.71-2.6-2.07-580.96 596.71 2.6 2.07zM220.14 760.46L801.1 163.75l-2.6-2.07-580.96 596.71 2.6 2.07zM228.06 766.77l580.96-596.71-2.6-2.07L225.46 764.7l2.6 2.07zM245.97 763.07l580.97-596.71-2.6-2.07L243.38 761l2.59 2.07zM253.9 769.38l580.96-596.72-2.61-2.07L251.29 767.3l2.61 2.08zM261.82 775.68l580.95-596.71-2.6-2.07-580.95 596.71 2.6 2.07zM269.73 781.99l580.96-596.72-2.6-2.07-580.96 596.71 2.6 2.08zM277.65 788.29l580.96-596.72-2.6-2.06-580.96 596.71 2.6 2.07zM285.57 794.6l580.96-596.72-2.6-2.07-580.96 596.72 2.6 2.07zM293.48 800.9l580.97-596.71-2.6-2.07-580.97 596.71 2.6 2.07z"/></g><g class="cls-9"><path class="cls-10" d="M-216.35 70.7l454.47-466.81 2 1.62-454.44 466.81zm8.23 6.55l454.48-466.8-2-1.62-454.52 466.8zm6.19 4.93l454.48-466.8-2-1.62L-204 80.56zm6.19 4.93l454.48-466.8-2-1.62-454.51 466.8zm6.2 4.93l454.48-466.8-2-1.62-454.52 466.81zm6.19 4.93l454.48-466.8-2-1.62-454.52 466.81zm6.19 4.93l454.48-466.8-2-1.62-454.52 466.81zm6.2 4.93L283.52-360l-2-1.62L-173 105.22zm6.19 4.93L289.71-355l-2-1.62-454.51 466.77zm6.2 4.94L295.9-350.1l-2-1.62-454.48 466.8zm6.19 4.93l454.48-466.8-2-1.62L-154.42 120zm6.19 4.93l454.48-466.8-2-1.62-454.48 466.8zm6.2 4.93L314.48-335.3l-2-1.62L-142 129.88zm6.19 4.93l454.49-466.8-2-1.62-454.48 466.8zm6.2 4.93l454.48-466.8-2-1.62-454.48 466.8zm6.2 4.94l454.47-466.8-2-1.62-454.48 466.8zm6.19 4.93l454.47-466.8-2-1.62-454.48 466.8zm6.19 4.93l454.47-466.8-2-1.62-454.48 466.8zm6.19 4.93l454.48-466.8-2-1.62-454.51 466.81zm6.19 4.93l454.48-466.8-2-1.62L-98.67 164.4zm6.19 4.93L364-295.85l-2-1.62-454.48 466.81zm6.2 4.93l454.48-466.79-2-1.62-454.51 466.81zm6.19 4.93L376.42-286l-2-1.62L-80.09 179.2zm6.2 4.93l454.48-466.8-2-1.62-454.51 466.82zm6.19 4.93l454.48-466.8-2-1.62L-67.7 189.06zm6.19 4.93L395-271.19l-2-1.62L-61.5 194zm6.19 4.93L401.2-266.26l-2-1.62-454.51 466.81zm6.19 4.93l454.5-466.77-2-1.62-454.52 466.8zm6.2 4.93l454.48-466.8-2-1.62-454.5 466.83zm6.19 4.93l454.49-466.77-2-1.62-454.51 466.8zm6.2 4.93L426-246.53l-2-1.62-454.54 466.81zm6.19 4.93L432.17-241.6l-2-1.62-454.51 466.81zm6.19 4.93l454.48-466.8-2-1.62-454.5 466.84zm6.2 4.93l454.48-466.8-2-1.62L-12 233.45zm6.2 4.97l454.48-466.8-2-1.62-454.51 466.8zm6.19 4.93l454.49-466.8-2-1.62L.44 243.31zm6.19 4.93l454.48-466.8-2-1.62L6.63 248.25zm6.2 4.93L469.34-212l-2-1.62-454.52 466.8zm6.19 4.93l454.48-466.8-2-1.62L19 258.11zm6.19 4.93l454.48-466.8-2-1.62L25.21 263zm6.2 4.93l454.48-466.8-2-1.62L31.41 268zm6.19 4.93l454.48-466.8-2-1.62L37.6 272.91zm6.19 4.93l454.48-466.8-2-1.62-454.5 466.82zm6.2 4.93L506.5-182.41l-2-1.62L50 282.77zm6.2 4.93l454.48-466.78-2-1.62L56.18 287.7zm6.19 4.93l454.48-466.8-2-1.62L62.37 292.64zm6.19 4.93l454.48-466.8-2-1.62-454.5 466.83zm6.19 4.93l454.48-466.8-2-1.62L74.76 302.5zm6.2 4.94l454.49-466.78-2-1.62L81 307.43zm6.2 4.97l454.48-466.8-2-1.62L87.15 312.36zm6.2 4.93l454.48-466.8-2-1.62L93.35 317.3zm6.19 4.93L556.06-143l-2-1.62L99.54 322.23zm6.19 4.93L562.25-138l-2-1.62-454.51 466.78zm6.2 4.93L568.44-133.1l-2-1.62-454.51 466.81zm6.19 4.93l454.48-466.8-2-1.62L118.12 337zm6.2 4.94l454.48-466.8-2-1.62L124.33 342zm6.19 4.93L587-118.29l-2-1.62L130.52 346.9zm6.19 4.93l454.5-466.81-2-1.62-454.51 466.81zm6.2 4.93l454.48-466.8-2-1.62-454.5 466.8zm6.19 4.93l454.48-466.8-2-1.62-454.49 466.8zm6.19 4.93l454.5-466.8-2-1.62L155.3 366.63zm6.19 4.93L618-93.63l-2-1.62-454.5 466.81zm6.2 4.93L624.2-88.7l-2-1.62-454.51 466.81zm6.19 4.93L630.4-83.76l-2-1.62-454.52 466.8zm6.19 4.93L636.59-78.83l-2-1.62-454.51 466.8zm6.19 4.93L642.78-73.9l-2-1.62-454.51 466.8zm6.2 4.93L649-69l-2-1.62-454.54 466.84zm6.19 4.93L655.17-64l-2-1.62-454.52 466.77zm6.19 4.93L661.37-59.11l-2-1.62-454.52 466.81zm6.19 4.93L667.56-54.17l-2-1.62L211 411zm6.2 4.93L673.75-49.24l-2-1.62-454.51 466.8zm6.19 4.93L679.95-44.31l-2-1.62-454.52 466.81zm6.2 4.93L686.14-39.38l-2-1.62-454.52 466.81zm6.19 4.93L692.33-34.45l-2-1.62-454.51 466.81zm6.2 4.93L698.53-29.51l-2-1.62L242 435.67zm6.19 4.93L704.72-24.58l-2-1.62-454.51 466.8zm6.2 4.93l454.5-466.77-2-1.62-454.51 466.8zm6.19 4.93L717.11-14.72l-2-1.62L260.6 450.47zm6.19 4.93L723.3-9.79l-2-1.62L266.79 455.4zm6.2 4.93L729.5-4.85l-2-1.62L273 460.33zm6.19 4.93L735.7.08l-2-1.62-454.52 466.8zm6.2 4.93L741.89 5l-2-1.62L285.38 470.2zm6.19 4.93L748.08 9.94l-2-1.62-454.51 466.81zm6.19 4.93L754.28 14.87l-2-1.62-454.52 466.81zm6.2 4.93L760.47 19.81l-2-1.62L304 485zm6.19 4.93L766.66 24.74l-2-1.62-454.51 466.8zm6.19 4.93L772.86 29.67l-2-1.62-454.52 466.8zm6.2 4.94L779.05 34.6 777 33 322.54 499.79zm6.19 4.93L785.24 39.53l-2-1.62-454.51 466.81zm6.19 4.93L791.44 44.47l-2-1.62-454.51 466.8zm6.2 4.93L797.64 49.4l-2-1.62-454.52 466.8zm6.19 4.93L803.83 54.33l-2-1.62-454.52 466.8zm6.19 4.93L810 59.26l-2-1.62-454.49 466.81zm6.19 4.93L816.22 64.19l-2-1.62-454.51 466.81zm6.2 4.93L822.41 69.13l-2-1.62-454.51 466.8zm6.19 4.93L828.6 74.06l-2-1.62-454.51 466.8zm6.19 4.93L834.8 79l-2-1.62-454.51 466.8zm6.2 4.93L841 83.92l-2-1.62-454.52 466.81zm6.19 4.93L847.19 88.85l-2-1.62L390.67 554zm6.2 4.93L853.38 93.79l-2-1.62L396.87 559zm6.19 4.93L859.58 98.72l-2-1.62-454.52 466.8zm6.2 4.93l454.48-466.8-2-1.62-454.47 466.88zm6.19 4.94L872 108.58l-2-1.62-454.55 466.81zm6.19 4.93l454.53-466.74-2-1.62L421.64 578.7zm6.19 4.93l454.48-466.8-2-1.62-454.47 466.87zm6.2 4.93l454.48-466.8-2-1.62L434 588.56zm6.2 4.93l454.48-466.8-2-1.62L440.23 593.5zm6.19 4.93l454.48-466.8-2-1.62-454.47 466.88zm6.2 4.93l454.47-466.8-2-1.62-454.46 466.88z"/></g></svg>