<svg id="Layer_1" data-name="Layer 1" xmlns="http://www.w3.org/2000/svg" viewBox="0 0 1920 185.04"><defs><style>.cls-1{fill:none}.cls-2{fill:#0e7dc2}.cls-3{clip-path:url(#clip-path)}.cls-4{fill:#6ec4e9}.cls-5{fill:#e6007c}.cls-6{clip-path:url(#clip-path-2)}.cls-7{fill:#c4e7fb}.cls-8{clip-path:url(#clip-path-3)}.cls-9{clip-path:url(#clip-path-4)}.cls-10{fill:#e5007c}</style><clipPath id="clip-path"><path class="cls-1" d="M902.68 106.57l653.99 78.21 363.33.46V37.64L902.68 106.57z"/></clipPath><clipPath id="clip-path-2"><path class="cls-1" d="M1560 185.48l360 43.06v-44.45l-360 1.39z"/></clipPath><clipPath id="clip-path-3"><path class="cls-1" d="M1560 185.04L0 0v185.04h1560z"/></clipPath><clipPath id="clip-path-4"><path class="cls-1" d="M605.88-370.08l147.9-17.54L-.88-573.68v203.6h606.76z"/></clipPath></defs><title>tooday-background-bottom-new</title><path class="cls-2" d="M1920 37.19L0 167.49v-538h1920v407.7z"/><g class="cls-3"><path class="cls-4" d="M810.49 107.47l582.76-600.82 2.49 2.19-582.76 600.82-2.49-2.19zM820.58 116.33l582.75-600.82-2.49-2.19-582.75 600.82 2.49 2.19zM828.17 123l582.76-600.81-2.5-2.2-582.75 600.82 2.49 2.19zM835.76 129.67l582.76-600.82-2.49-2.18-582.76 600.81 2.49 2.19zM843.35 136.34l582.76-600.82-2.49-2.18-582.76 600.81 2.49 2.19zM850.94 143.01L1433.7-457.8l-2.49-2.19-582.76 600.81 2.49 2.19zM858.53 149.69l582.77-600.82-2.5-2.19-582.76 600.81 2.49 2.2zM866.13 156.36l582.76-600.82-2.5-2.19-582.75 600.82 2.49 2.19zM873.72 163.03l582.76-600.82-2.49-2.19-582.76 600.82 2.49 2.19zM881.32 169.7l582.75-600.82-2.49-2.18-582.76 600.81 2.5 2.19zM888.9 176.37l582.76-600.81-2.49-2.19-582.76 600.81 2.49 2.19zM896.5 183.04l582.76-600.81-2.5-2.19-582.75 600.81 2.49 2.19zM904.09 189.71l582.76-600.81-2.49-2.19L901.6 187.52l2.49 2.19zM911.68 196.38l582.76-600.81-2.5-2.19-582.75 600.81 2.49 2.19zM919.27 203.05l582.76-600.81-2.49-2.19-582.76 600.81 2.49 2.19zM926.87 209.73l582.76-600.82-2.5-2.19-582.75 600.82 2.49 2.19zM934.46 216.4l582.76-600.82-2.5-2.19-582.75 600.82 2.49 2.19zM942.05 223.07l582.76-600.82-2.49-2.18-582.76 600.81 2.49 2.19zM949.64 229.74l582.76-600.81-2.49-2.19-582.76 600.81 2.49 2.19zM957.24 236.41l582.75-600.81-2.49-2.19-582.76 600.81 2.5 2.19zM964.83 243.09l582.76-600.82-2.49-2.19L962.34 240.9l2.49 2.19zM972.42 249.76l582.76-600.82-2.5-2.19-582.75 600.82 2.49 2.19zM980.01 256.43l582.76-600.82-2.49-2.19-582.76 600.82 2.49 2.19zM987.61 263.1l582.76-600.81-2.5-2.2-582.76 600.82 2.5 2.19zM995.2 269.77l582.76-600.81-2.49-2.19-582.76 600.81 2.49 2.19zM1002.79 276.44l582.76-600.81-2.5-2.19-582.75 600.81 2.49 2.19zM1010.38 283.12l582.76-600.82-2.49-2.19-582.76 600.82 2.49 2.19zM1017.98 289.79l582.76-600.82-2.5-2.19-582.76 600.82 2.5 2.19zM1025.57 296.46l582.76-600.82-2.49-2.19-582.76 600.82 2.49 2.19zM1033.16 303.13l582.76-600.82-2.49-2.19-582.76 600.82 2.49 2.19zM1040.76 309.8l582.76-600.81-2.5-2.19-582.76 600.81 2.5 2.19zM1048.35 316.48l582.76-600.82-2.5-2.2-582.76 600.82 2.5 2.2zM1055.93 323.14l582.77-600.81-2.5-2.19-582.75 600.81 2.48 2.19zM1063.53 329.82L1646.29-271l-2.49-2.19-582.76 600.82 2.49 2.19zM1071.12 336.49l582.76-600.82-2.49-2.19-582.76 600.82 2.49 2.19zM1078.71 343.16l582.76-600.82-2.49-2.19-582.75 600.82 2.48 2.19zM1086.31 349.83l582.76-600.81-2.5-2.19-582.76 600.81 2.5 2.19zM1093.9 356.51l582.76-600.82-2.49-2.19-582.76 600.81 2.49 2.2zM1101.49 363.18l582.76-600.82-2.49-2.19L1099 360.99l2.49 2.19zM1109.08 369.85l582.77-600.82-2.5-2.19-582.75 600.82 2.48 2.19zM1116.68 376.52l582.76-600.81-2.49-2.2-582.76 600.82 2.49 2.19zM1124.27 383.19l582.76-600.82-2.49-2.19L1121.78 381l2.49 2.19zM1131.86 389.86l582.76-600.81-2.49-2.19-582.76 600.81 2.49 2.19zM1139.45 396.53l582.76-600.81-2.49-2.19-582.76 600.81 2.49 2.19zM1147.05 403.21l582.75-600.82-2.49-2.19-582.75 600.81 2.49 2.2zM1154.64 409.88l582.76-600.82-2.5-2.19-582.75 600.82 2.49 2.19zM1162.23 416.55l582.76-600.82-2.49-2.19-582.76 600.82 2.49 2.19zM1169.82 423.22l582.76-600.82-2.49-2.19-582.76 600.82 2.49 2.19zM1177.42 429.89l582.75-600.82-2.49-2.18-582.75 600.81 2.49 2.19zM1185.01 436.56l582.76-600.81-2.49-2.19-582.76 600.81 2.49 2.19zM1192.6 443.23l582.76-600.81-2.49-2.19-582.75 600.82 2.48 2.18zM1200.19 449.9l582.77-600.81-2.5-2.19-582.76 600.81 2.49 2.19zM1207.79 456.58l582.76-600.81-2.49-2.2-582.76 600.82 2.49 2.19zM1222.98 469.92l582.75-600.81-2.49-2.2-582.76 600.82 2.5 2.19zM1208.98 469.92l582.75-600.81-2.49-2.2-582.76 600.82 2.5 2.19z"/><path class="cls-5" d="M31.45 195.36l580.96-596.71 2.6 2.07L34.05 197.43l-2.6-2.07zM41.97 203.74l580.95-596.72-2.59-2.07L39.37 201.67l2.6 2.07zM49.88 210.04l580.97-596.71-2.61-2.07L47.29 207.97l2.59 2.07zM57.8 216.34l580.96-596.71-2.6-2.07L55.2 214.27l2.6 2.07zM65.72 222.65l580.96-596.71-2.6-2.07L63.12 220.58l2.6 2.07zM73.64 228.95L654.6-367.76l-2.6-2.07L71.03 226.88l2.61 2.07zM81.55 235.26l580.97-596.71-2.6-2.07L78.95 233.19l2.6 2.07zM89.48 241.56l580.95-596.71-2.6-2.07L86.87 239.5l2.61 2.06zM97.39 247.87l580.96-596.72-2.6-2.07L94.79 245.8l2.6 2.07zM105.31 254.17l580.96-596.71-2.6-2.07L102.71 252.1l2.6 2.07zM113.22 260.48l580.96-596.72-2.59-2.07-580.96 596.72 2.59 2.07zM51.45 195.36l580.96-596.71 2.6 2.07L54.05 197.43l-2.6-2.07zM61.97 203.74l580.95-596.72-2.59-2.07L59.37 201.67l2.6 2.07zM69.88 210.04l580.97-596.71-2.61-2.07L67.29 207.97l2.59 2.07zM77.8 216.34l580.96-596.71-2.6-2.07L75.2 214.27l2.6 2.07zM85.72 222.65l580.96-596.71-2.6-2.07L83.12 220.58l2.6 2.07zM93.64 228.95L674.6-367.76l-2.6-2.07L91.03 226.88l2.61 2.07zM101.55 235.26l580.97-596.71-2.6-2.07L98.95 233.19l2.6 2.07zM109.48 241.56l580.95-596.71-2.6-2.07L106.87 239.5l2.61 2.06zM117.39 247.87l580.96-596.72-2.6-2.07L114.79 245.8l2.6 2.07zM125.31 254.17l580.96-596.71-2.6-2.07L122.71 252.1l2.6 2.07zM133.22 260.48l580.96-596.72-2.59-2.07-580.96 596.72 2.59 2.07z"/><path class="cls-4" d="M1230.58 476.61l582.76-600.82-2.49-2.19-582.76 600.82 2.49 2.19zM1238.17 483.28l582.76-600.82-2.49-2.19-582.76 600.82 2.49 2.19zM1245.77 489.95l582.76-600.82-2.5-2.19-582.76 600.82 2.5 2.19zM1253.36 496.62l582.76-600.82-2.49-2.18-582.76 600.81 2.49 2.19zM1260.95 503.29l582.76-600.81-2.49-2.19-582.76 600.81 2.49 2.19zM1268.54 509.96L1851.3-90.85l-2.49-2.19-582.76 600.81 2.49 2.19zM1276.13 516.63L1858.9-84.18l-2.5-2.19-582.76 600.82 2.49 2.18zM1283.73 523.31l582.76-600.82-2.49-2.19-582.77 600.82 2.5 2.19zM1291.32 529.98l582.76-600.82-2.49-2.19-582.76 600.82 2.49 2.19zM1298.91 536.65l582.76-600.82-2.49-2.19-582.76 600.82 2.49 2.19zM1306.51 543.32L1889.26-57.5l-2.49-2.18-582.76 600.81 2.5 2.19zM1314.1 549.99l582.76-600.81-2.5-2.19-582.75 600.81 2.49 2.19zM1321.69 556.66l582.75-600.82-2.49-2.18-582.76 600.81 2.5 2.19zM1329.28 563.33l582.76-600.81-2.49-2.19-582.76 600.81 2.49 2.19zM1336.87 570.01l582.76-600.82-2.49-2.19-582.76 600.82 2.49 2.19zM1344.47 576.68l582.75-600.82-2.49-2.19-582.76 600.82 2.5 2.19zM1352.06 583.35l582.76-600.81-2.5-2.2-582.75 600.82 2.49 2.19zM1359.65 590.02l582.76-600.81-2.49-2.19-582.77 600.81 2.5 2.19zM1367.24 596.69L1950-4.12l-2.49-2.19-582.76 600.81 2.49 2.19zM1374.84 603.36L1957.59 2.55 1955.1.36l-582.75 600.82 2.49 2.18zM1382.43 610.03L1965.18 9.22l-2.49-2.19-582.76 600.82 2.5 2.18zM1390.02 616.71l582.76-600.82-2.5-2.19-582.76 600.82 2.5 2.19zM1397.61 623.38l582.76-600.82-2.49-2.18-582.76 600.81 2.49 2.19zM1405.2 630.05l582.76-600.82-2.49-2.18-582.76 600.81 2.49 2.19zM1412.8 636.72l582.76-600.81-2.5-2.19-582.76 600.81 2.5 2.19zM1420.39 643.39l582.76-600.81-2.49-2.19-582.76 600.82 2.49 2.18zM1427.99 650.07l582.75-600.82-2.49-2.19-582.76 600.82 2.5 2.19zM1435.58 656.74l582.76-600.82-2.5-2.19-582.75 600.82 2.49 2.19zM1443.17 663.41l582.76-600.82-2.5-2.19-582.75 600.82 2.49 2.19zM1450.76 670.08l582.76-600.81-2.49-2.19-582.76 600.81 2.49 2.19zM1458.35 676.75l582.76-600.81-2.49-2.2-582.76 600.82 2.49 2.19zM1465.94 683.42L2048.7 82.61l-2.49-2.19-582.76 600.81 2.49 2.19zM1473.54 690.1L2056.3 89.28l-2.5-2.19-582.75 600.81 2.49 2.2zM1481.13 696.77l582.76-600.82-2.5-2.19-582.75 600.82 2.49 2.19zM1488.72 703.44l582.76-600.82-2.49-2.19-582.76 600.82 2.49 2.19zM1496.32 710.11l582.76-600.81-2.5-2.19-582.76 600.81 2.5 2.19zM1503.91 716.78l582.75-600.81-2.48-2.19-582.77 600.81 2.5 2.19zM1511.5 723.45l582.76-600.81-2.49-2.19-582.76 600.81 2.49 2.19zM1519.09 730.13l582.76-600.82-2.49-2.19-582.75 600.82 2.48 2.19zM1526.68 736.8l582.76-600.82-2.49-2.19-582.76 600.82 2.49 2.19zM1534.28 743.47l582.75-600.82-2.48-2.19-582.77 600.82 2.5 2.19zM1541.87 750.14l582.76-600.82-2.49-2.19-582.76 600.82 2.49 2.19zM1549.46 756.81L2132.22 156l-2.49-2.19-582.76 600.81 2.49 2.19zM1557.06 763.48l582.75-600.82-2.49-2.18-582.76 600.81 2.5 2.19zM1564.65 770.15l582.75-600.81-2.48-2.19-582.77 600.82 2.5 2.18zM1572.24 776.83L2155 176.01l-2.5-2.19-582.75 600.82 2.49 2.19zM1579.84 783.5l582.75-600.82-2.49-2.19-582.76 600.82 2.5 2.19z"/></g><g class="cls-6"><path class="cls-4" d="M810.49 107.47l582.76-600.82 2.49 2.19-582.76 600.82-2.49-2.19zM820.58 116.33l582.75-600.82-2.49-2.19-582.75 600.82 2.49 2.19zM828.17 123l582.76-600.81-2.5-2.2-582.75 600.82 2.49 2.19zM835.76 129.67l582.76-600.82-2.49-2.18-582.76 600.81 2.49 2.19zM843.35 136.34l582.76-600.82-2.49-2.18-582.76 600.81 2.49 2.19zM850.94 143.01L1433.7-457.8l-2.49-2.19-582.76 600.81 2.49 2.19zM858.53 149.69l582.77-600.82-2.5-2.19-582.76 600.81 2.49 2.2zM866.13 156.36l582.76-600.82-2.5-2.19-582.75 600.82 2.49 2.19zM873.72 163.03l582.76-600.82-2.49-2.19-582.76 600.82 2.49 2.19zM881.32 169.7l582.75-600.82-2.49-2.18-582.76 600.81 2.5 2.19zM888.9 176.37l582.76-600.81-2.49-2.19-582.76 600.81 2.49 2.19zM896.5 183.04l582.76-600.81-2.5-2.19-582.75 600.81 2.49 2.19zM904.09 189.71l582.76-600.81-2.49-2.19L901.6 187.52l2.49 2.19zM911.68 196.38l582.76-600.81-2.5-2.19-582.75 600.81 2.49 2.19zM919.27 203.05l582.76-600.81-2.49-2.19-582.76 600.81 2.49 2.19zM926.87 209.73l582.76-600.82-2.5-2.19-582.75 600.82 2.49 2.19zM934.46 216.4l582.76-600.82-2.5-2.19-582.75 600.82 2.49 2.19zM942.05 223.07l582.76-600.82-2.49-2.18-582.76 600.81 2.49 2.19zM949.64 229.74l582.76-600.81-2.49-2.19-582.76 600.81 2.49 2.19zM957.24 236.41l582.75-600.81-2.49-2.19-582.76 600.81 2.5 2.19zM964.83 243.09l582.76-600.82-2.49-2.19L962.34 240.9l2.49 2.19zM972.42 249.76l582.76-600.82-2.5-2.19-582.75 600.82 2.49 2.19zM980.01 256.43l582.76-600.82-2.49-2.19-582.76 600.82 2.49 2.19zM987.61 263.1l582.76-600.81-2.5-2.2-582.76 600.82 2.5 2.19zM995.2 269.77l582.76-600.81-2.49-2.19-582.76 600.81 2.49 2.19zM1002.79 276.44l582.76-600.81-2.5-2.19-582.75 600.81 2.49 2.19zM1010.38 283.12l582.76-600.82-2.49-2.19-582.76 600.82 2.49 2.19zM1017.98 289.79l582.76-600.82-2.5-2.19-582.76 600.82 2.5 2.19zM1025.57 296.46l582.76-600.82-2.49-2.19-582.76 600.82 2.49 2.19zM1033.16 303.13l582.76-600.82-2.49-2.19-582.76 600.82 2.49 2.19zM1040.76 309.8l582.76-600.81-2.5-2.19-582.76 600.81 2.5 2.19zM1048.35 316.48l582.76-600.82-2.5-2.2-582.76 600.82 2.5 2.2zM1055.93 323.14l582.77-600.81-2.5-2.19-582.75 600.81 2.48 2.19zM1063.53 329.82L1646.29-271l-2.49-2.19-582.76 600.82 2.49 2.19zM1071.12 336.49l582.76-600.82-2.49-2.19-582.76 600.82 2.49 2.19zM1078.71 343.16l582.76-600.82-2.49-2.19-582.75 600.82 2.48 2.19zM1086.31 349.83l582.76-600.81-2.5-2.19-582.76 600.81 2.5 2.19zM1093.9 356.51l582.76-600.82-2.49-2.19-582.76 600.81 2.49 2.2zM1101.49 363.18l582.76-600.82-2.49-2.19L1099 360.99l2.49 2.19zM1109.08 369.85l582.77-600.82-2.5-2.19-582.75 600.82 2.48 2.19zM1116.68 376.52l582.76-600.81-2.49-2.2-582.76 600.82 2.49 2.19zM1124.27 383.19l582.76-600.82-2.49-2.19L1121.78 381l2.49 2.19zM1131.86 389.86l582.76-600.81-2.49-2.19-582.76 600.81 2.49 2.19zM1139.45 396.53l582.76-600.81-2.49-2.19-582.76 600.81 2.49 2.19zM1147.05 403.21l582.75-600.82-2.49-2.19-582.75 600.81 2.49 2.2zM1154.64 409.88l582.76-600.82-2.5-2.19-582.75 600.82 2.49 2.19zM1162.23 416.55l582.76-600.82-2.49-2.19-582.76 600.82 2.49 2.19zM1169.82 423.22l582.76-600.82-2.49-2.19-582.76 600.82 2.49 2.19zM1177.42 429.89l582.75-600.82-2.49-2.18-582.75 600.81 2.49 2.19zM1185.01 436.56l582.76-600.81-2.49-2.19-582.76 600.81 2.49 2.19zM1192.6 443.23l582.76-600.81-2.49-2.19-582.75 600.82 2.48 2.18zM1200.19 449.9l582.77-600.81-2.5-2.19-582.76 600.81 2.49 2.19zM1207.79 456.58l582.76-600.81-2.49-2.2-582.76 600.82 2.49 2.19zM1222.98 469.92l582.75-600.81-2.49-2.2-582.76 600.82 2.5 2.19zM1208.98 469.92l582.75-600.81-2.49-2.2-582.76 600.82 2.5 2.19z"/><path class="cls-5" d="M31.45 195.36l580.96-596.71 2.6 2.07L34.05 197.43l-2.6-2.07zM41.97 203.74l580.95-596.72-2.59-2.07L39.37 201.67l2.6 2.07zM49.88 210.04l580.97-596.71-2.61-2.07L47.29 207.97l2.59 2.07zM57.8 216.34l580.96-596.71-2.6-2.07L55.2 214.27l2.6 2.07zM65.72 222.65l580.96-596.71-2.6-2.07L63.12 220.58l2.6 2.07zM73.64 228.95L654.6-367.76l-2.6-2.07L71.03 226.88l2.61 2.07zM81.55 235.26l580.97-596.71-2.6-2.07L78.95 233.19l2.6 2.07zM89.48 241.56l580.95-596.71-2.6-2.07L86.87 239.5l2.61 2.06zM97.39 247.87l580.96-596.72-2.6-2.07L94.79 245.8l2.6 2.07zM105.31 254.17l580.96-596.71-2.6-2.07L102.71 252.1l2.6 2.07zM113.22 260.48l580.96-596.72-2.59-2.07-580.96 596.72 2.59 2.07zM51.45 195.36l580.96-596.71 2.6 2.07L54.05 197.43l-2.6-2.07zM61.97 203.74l580.95-596.72-2.59-2.07L59.37 201.67l2.6 2.07zM69.88 210.04l580.97-596.71-2.61-2.07L67.29 207.97l2.59 2.07zM77.8 216.34l580.96-596.71-2.6-2.07L75.2 214.27l2.6 2.07zM85.72 222.65l580.96-596.71-2.6-2.07L83.12 220.58l2.6 2.07zM93.64 228.95L674.6-367.76l-2.6-2.07L91.03 226.88l2.61 2.07zM101.55 235.26l580.97-596.71-2.6-2.07L98.95 233.19l2.6 2.07zM109.48 241.56l580.95-596.71-2.6-2.07L106.87 239.5l2.61 2.06zM117.39 247.87l580.96-596.72-2.6-2.07L114.79 245.8l2.6 2.07zM125.31 254.17l580.96-596.71-2.6-2.07L122.71 252.1l2.6 2.07zM133.22 260.48l580.96-596.72-2.59-2.07-580.96 596.72 2.59 2.07z"/><path class="cls-7" d="M1230.58 476.61l582.76-600.82-2.49-2.19-582.76 600.82 2.49 2.19zM1238.17 483.28l582.76-600.82-2.49-2.19-582.76 600.82 2.49 2.19zM1245.77 489.95l582.76-600.82-2.5-2.19-582.76 600.82 2.5 2.19zM1253.36 496.62l582.76-600.82-2.49-2.18-582.76 600.81 2.49 2.19zM1260.95 503.29l582.76-600.81-2.49-2.19-582.76 600.81 2.49 2.19zM1268.54 509.96L1851.3-90.85l-2.49-2.19-582.76 600.81 2.49 2.19zM1276.13 516.63L1858.9-84.18l-2.5-2.19-582.76 600.82 2.49 2.18zM1283.73 523.31l582.76-600.82-2.49-2.19-582.77 600.82 2.5 2.19zM1291.32 529.98l582.76-600.82-2.49-2.19-582.76 600.82 2.49 2.19zM1298.91 536.65l582.76-600.82-2.49-2.19-582.76 600.82 2.49 2.19zM1306.51 543.32L1889.26-57.5l-2.49-2.18-582.76 600.81 2.5 2.19zM1314.1 549.99l582.76-600.81-2.5-2.19-582.75 600.81 2.49 2.19zM1321.69 556.66l582.75-600.82-2.49-2.18-582.76 600.81 2.5 2.19zM1329.28 563.33l582.76-600.81-2.49-2.19-582.76 600.81 2.49 2.19zM1336.87 570.01l582.76-600.82-2.49-2.19-582.76 600.82 2.49 2.19zM1344.47 576.68l582.75-600.82-2.49-2.19-582.76 600.82 2.5 2.19zM1352.06 583.35l582.76-600.81-2.5-2.2-582.75 600.82 2.49 2.19zM1359.65 590.02l582.76-600.81-2.49-2.19-582.77 600.81 2.5 2.19zM1367.24 596.69L1950-4.12l-2.49-2.19-582.76 600.81 2.49 2.19zM1374.84 603.36L1957.59 2.55 1955.1.36l-582.75 600.82 2.49 2.18zM1382.43 610.03L1965.18 9.22l-2.49-2.19-582.76 600.82 2.5 2.18zM1390.02 616.71l582.76-600.82-2.5-2.19-582.76 600.82 2.5 2.19zM1397.61 623.38l582.76-600.82-2.49-2.18-582.76 600.81 2.49 2.19zM1405.2 630.05l582.76-600.82-2.49-2.18-582.76 600.81 2.49 2.19zM1412.8 636.72l582.76-600.81-2.5-2.19-582.76 600.81 2.5 2.19zM1420.39 643.39l582.76-600.81-2.49-2.19-582.76 600.82 2.49 2.18zM1427.99 650.07l582.75-600.82-2.49-2.19-582.76 600.82 2.5 2.19zM1435.58 656.74l582.76-600.82-2.5-2.19-582.75 600.82 2.49 2.19zM1443.17 663.41l582.76-600.82-2.5-2.19-582.75 600.82 2.49 2.19zM1450.76 670.08l582.76-600.81-2.49-2.19-582.76 600.81 2.49 2.19zM1458.35 676.75l582.76-600.81-2.49-2.2-582.76 600.82 2.49 2.19zM1465.94 683.42L2048.7 82.61l-2.49-2.19-582.76 600.81 2.49 2.19zM1473.54 690.1L2056.3 89.28l-2.5-2.19-582.75 600.81 2.49 2.2zM1481.13 696.77l582.76-600.82-2.5-2.19-582.75 600.82 2.49 2.19zM1488.72 703.44l582.76-600.82-2.49-2.19-582.76 600.82 2.49 2.19zM1496.32 710.11l582.76-600.81-2.5-2.19-582.76 600.81 2.5 2.19zM1503.91 716.78l582.75-600.81-2.48-2.19-582.77 600.81 2.5 2.19zM1511.5 723.45l582.76-600.81-2.49-2.19-582.76 600.81 2.49 2.19zM1519.09 730.13l582.76-600.82-2.49-2.19-582.75 600.82 2.48 2.19zM1526.68 736.8l582.76-600.82-2.49-2.19-582.76 600.82 2.49 2.19zM1534.28 743.47l582.75-600.82-2.48-2.19-582.77 600.82 2.5 2.19zM1541.87 750.14l582.76-600.82-2.49-2.19-582.76 600.82 2.49 2.19zM1549.46 756.81L2132.22 156l-2.49-2.19-582.76 600.81 2.49 2.19zM1557.06 763.48l582.75-600.82-2.49-2.18-582.76 600.81 2.5 2.19zM1564.65 770.15l582.75-600.81-2.48-2.19-582.77 600.82 2.5 2.18zM1572.24 776.83L2155 176.01l-2.5-2.19-582.75 600.82 2.49 2.19zM1579.84 783.5l582.75-600.82-2.49-2.19-582.76 600.82 2.5 2.19z"/></g><g class="cls-8"><path class="cls-5" d="M51.45 195.36l580.96-596.71 2.6 2.07L54.05 197.43l-2.6-2.07zM61.97 203.74l580.95-596.72-2.59-2.07L59.37 201.67l2.6 2.07zM69.88 210.04l580.97-596.71-2.61-2.07L67.29 207.97l2.59 2.07zM77.8 216.34l580.96-596.71-2.6-2.07L75.2 214.27l2.6 2.07zM85.72 222.65l580.96-596.71-2.6-2.07L83.12 220.58l2.6 2.07zM93.64 228.95L674.6-367.76l-2.6-2.07L91.03 226.88l2.61 2.07zM101.55 235.26l580.97-596.71-2.6-2.07L98.95 233.19l2.6 2.07zM109.48 241.56l580.95-596.71-2.6-2.07L106.87 239.5l2.61 2.06zM117.39 247.87l580.96-596.72-2.6-2.07L114.79 245.8l2.6 2.07zM125.31 254.17l580.96-596.71-2.6-2.07L122.71 252.1l2.6 2.07zM133.22 260.48l580.96-596.72-2.59-2.07-580.96 596.72 2.59 2.07zM-103 195.36l580.96-596.71 2.6 2.07-580.97 596.71-2.59-2.07zM-92.49 203.74l580.96-596.72-2.6-2.07-580.95 596.72 2.59 2.07zM-84.57 210.04l580.96-596.71-2.6-2.07-580.96 596.71 2.6 2.07zM-76.65 216.34l580.96-596.71-2.6-2.07-580.96 596.71 2.6 2.07zM-68.73 222.65l580.96-596.71-2.6-2.07-580.96 596.71 2.6 2.07zM-60.82 228.95l580.96-596.71-2.6-2.07-580.96 596.71 2.6 2.07zM-52.9 235.26l580.96-596.71-2.6-2.07L-55.5 233.19l2.6 2.07zM-44.98 241.56l580.96-596.71-2.6-2.07L-47.58 239.5l2.6 2.06zM-37.06 247.87L543.9-348.85l-2.6-2.07L-39.66 245.8l2.6 2.07zM-29.14 254.17l580.95-596.71-2.59-2.07L-31.74 252.1l2.6 2.07zM-21.23 260.48l580.96-596.72-2.6-2.07-580.95 596.72 2.59 2.07zM220.14 186.78L801.1-409.94l-2.6-2.06-580.96 596.71 2.6 2.07zM228.06 193.08l580.96-596.71-2.6-2.07-580.96 596.71 2.6 2.07zM245.97 189.38l580.97-596.7-2.6-2.08-580.96 596.72 2.59 2.06zM253.9 195.69l580.96-596.71-2.61-2.07-580.96 596.71 2.61 2.07zM261.82 202l580.95-596.72-2.6-2.07-580.95 596.72 2.6 2.07zM269.73 208.3l580.96-596.71-2.6-2.07-580.96 596.71 2.6 2.07zM277.65 214.61l580.96-596.72-2.6-2.07-580.96 596.72 2.6 2.07zM285.57 220.91L866.53-375.8l-2.6-2.07-580.96 596.71 2.6 2.07zM293.48 227.22L874.45-369.5l-2.6-2.07-580.97 596.71 2.6 2.08zM301.4 233.52l580.96-596.71-2.59-2.07L298.8 231.45l2.6 2.07zM309.32 239.82l580.96-596.71-2.6-2.07-580.95 596.72 2.59 2.06zM317.23 246.13L898.2-350.58l-2.6-2.07-580.96 596.71 2.59 2.07zM325.16 252.43l580.96-596.71-2.6-2.07-580.96 596.72 2.6 2.06zM333.07 258.74l580.96-596.72-2.59-2.07-580.96 596.72 2.59 2.07zM340.99 265.04l580.96-596.71-2.6-2.07-580.96 596.71 2.6 2.07zM348.91 271.35l580.96-596.72-2.6-2.07-580.96 596.72 2.6 2.07zM356.83 277.65l580.96-596.71-2.6-2.07-580.96 596.71 2.6 2.07zM364.75 283.96l580.96-596.72-2.6-2.07-580.96 596.72 2.6 2.07zM372.66 290.26l580.96-596.72-2.6-2.06-580.96 596.71 2.6 2.07zM380.58 296.56l580.97-596.7-2.61-2.08L377.98 294.5l2.6 2.06zM388.5 302.87l580.96-596.71-2.6-2.08L385.9 300.8l2.6 2.07zM396.41 309.17l580.97-596.71-2.6-2.07L393.82 307.1l2.59 2.07zM404.33 313.48l580.96-596.72-2.59-2.06-580.96 596.71 2.59 2.07zM412.25 319.78l580.96-596.71-2.59-2.07-580.97 596.71 2.6 2.07zM420.17 326.09l580.96-596.72-2.6-2.07-580.96 596.71 2.6 2.08zM428.09 332.39l580.96-596.71-2.6-2.07-580.96 596.71 2.6 2.07zM436.01 338.7l580.96-596.72-2.6-2.07L433.4 336.63l2.61 2.07zM443.93 345l580.95-596.71-2.59-2.07-580.97 596.71 2.61 2.07zM451.84 351.3l580.97-596.71-2.6-2.06-580.96 596.71 2.59 2.06zM459.76 357.61l580.96-596.71-2.6-2.07-580.96 596.71 2.6 2.07zM467.68 363.91l580.96-596.71-2.6-2.07-580.96 596.72 2.6 2.06zM475.59 370.22l580.97-596.71-2.6-2.07L473 368.15l2.59 2.07zM483.51 376.52l580.96-596.71-2.59-2.07-580.96 596.71 2.59 2.07zM491.43 382.83l580.96-596.72-2.6-2.07-580.96 596.72 2.6 2.07zM499.35 389.13l580.96-596.71-2.6-2.07-580.96 596.71 2.6 2.07zM507.26 395.44l580.97-596.72-2.6-2.07-580.96 596.72 2.59 2.07zM515.18 401.74l580.96-596.71-2.59-2.07-580.97 596.71 2.6 2.07zM523.1 408.05l580.96-596.72-2.6-2.07L520.5 405.98l2.6 2.07zM531.02 414.35l580.96-596.71-2.6-2.07-580.96 596.71 2.6 2.07zM538.94 420.65l580.96-596.71-2.6-2.07-580.96 596.72 2.6 2.06zM546.86 426.96l580.96-596.71-2.6-2.08-580.96 596.72 2.6 2.07zM554.77 433.26l580.97-596.71-2.6-2.07-580.96 596.71 2.59 2.07zM562.7 439.57l580.95-596.72-2.6-2.06L560.1 437.5l2.6 2.07zM570.61 445.88l580.96-596.72-2.6-2.07L568.01 443.8l2.6 2.08zM578.54 452.19l580.97-596.71-2.6-2.07-580.96 596.71 2.59 2.07zM586.46 458.49l580.96-596.71-2.6-2.07-580.95 596.72 2.59 2.06zM594.38 464.8l580.96-596.71-2.6-2.07-580.96 596.71 2.6 2.07zM602.3 471.1l580.96-596.71-2.6-2.07L599.7 469.03l2.6 2.07zM610.22 477.41l580.96-596.71-2.6-2.07-580.96 596.71 2.6 2.07zM618.13 483.71L1199.09-113l-2.6-2.07-580.95 596.71 2.59 2.07zM626.05 490.01l580.96-596.7-2.6-2.08-580.95 596.72 2.59 2.06zM633.97 496.32l580.96-596.71-2.6-2.07-580.96 596.71 2.6 2.07zM641.89 502.63l580.96-596.72-2.6-2.07-580.96 596.71 2.6 2.08zM649.8 508.93l580.96-596.71-2.6-2.07-580.95 596.71 2.59 2.07zM657.72 515.23l580.96-596.71-2.6-2.07-580.96 596.71 2.6 2.07zM665.64 521.54L1246.6-75.17l-2.6-2.07-580.96 596.71 2.6 2.07zM673.56 527.84l580.95-596.72-2.59-2.06-580.96 596.71 2.6 2.07zM681.47 534.15l580.96-596.72-2.6-2.07-580.96 596.72 2.6 2.07zM689.39 540.45l580.96-596.71-2.59-2.07L686.8 538.38l2.59 2.07zM697.31 546.76l580.96-596.72-2.6-2.06-580.96 596.7 2.6 2.08zM705.23 553.06l580.96-596.71-2.6-2.07-580.96 596.71 2.6 2.07zM713.15 559.37L1294.1-37.35l-2.59-2.06-580.97 596.7 2.61 2.08zM721.06 565.67l580.96-596.71-2.6-2.08L718.46 563.6l2.6 2.07zM728.98 571.97l580.96-596.71-2.6-2.07-580.95 596.72 2.59 2.06zM736.9 578.28l580.96-596.71-2.6-2.07L734.3 576.21l2.6 2.07zM744.82 584.58l580.95-596.71-2.59-2.07-580.96 596.71 2.6 2.07zM752.74 590.89L1333.69-5.83l-2.59-2.06-580.96 596.71 2.6 2.07zM760.65 597.19L1341.61.48l-2.6-2.07-580.96 596.71 2.6 2.07zM768.57 603.49l580.96-596.7-2.6-2.08-580.96 596.72 2.6 2.06zM776.49 609.8l580.96-596.71-2.6-2.07-580.96 596.71 2.6 2.07zM784.41 616.11l580.96-596.72-2.6-2.07-580.96 596.72 2.6 2.07zM792.32 622.41L1373.29 25.7l-2.6-2.07-580.96 596.71 2.59 2.07zM800.24 628.71L1381.2 32l-2.6-2.07-580.95 596.71 2.59 2.07zM808.16 635.02L1389.12 38.3l-2.6-2.06-580.96 596.71 2.6 2.07zM816.08 641.32l580.96-596.71-2.6-2.07-580.96 596.71 2.6 2.07zM824 647.63l580.96-596.72-2.6-2.06L821.4 645.56l2.6 2.07zM831.92 653.93l580.95-596.71-2.59-2.07-580.96 596.71 2.6 2.07zM839.83 660.24l580.96-596.72-2.6-2.07-580.96 596.72 2.6 2.07zM847.75 666.54l580.96-596.71-2.6-2.07-580.96 596.71 2.6 2.07zM855.67 672.85l580.96-596.72-2.6-2.07-580.96 596.72 2.6 2.07zM863.59 679.15l580.95-596.71-2.59-2.07-580.96 596.71 2.6 2.07zM871.5 685.46l580.96-596.72-2.59-2.07-580.96 596.72 2.59 2.07zM879.42 691.76l580.96-596.71-2.6-2.07-580.95 596.71 2.59 2.07zM887.34 698.07l580.96-596.72-2.6-2.07L884.74 696l2.6 2.07zM895.26 704.37l580.95-596.71-2.59-2.07L892.65 702.3l2.61 2.07zM903.17 710.67l580.96-596.71-2.6-2.07-580.95 596.72 2.59 2.06zM911.1 716.98l580.95-596.71-2.59-2.07-580.97 596.71 2.61 2.07zM919.01 723.28l580.96-596.72-2.6-2.06-580.96 596.71 2.6 2.07zM926.93 729.59l580.95-596.72-2.59-2.06-580.96 596.71 2.6 2.07zM934.84 735.89l580.97-596.71-2.61-2.07-580.95 596.71 2.59 2.07zM942.77 742.19l580.95-596.71-2.6-2.07-580.95 596.72 2.6 2.06zM950.68 748.5l580.96-596.71-2.59-2.07-580.96 596.71 2.59 2.07zM958.6 754.81l580.96-596.72-2.6-2.07L956 752.74l2.6 2.07zM966.51 761.11l580.97-596.71-2.6-2.08-580.97 596.72 2.6 2.07zM974.43 767.41L1555.4 170.7l-2.6-2.07-580.96 596.72 2.59 2.06zM982.35 773.72L1563.32 177l-2.6-2.06-580.96 596.71 2.59 2.07zM990.27 780.02l580.96-596.71-2.6-2.07-580.96 596.71 2.6 2.07z"/></g><g class="cls-9"><path class="cls-10" d="M-216.35-503l454.47-466.79 2 1.62-454.48 466.8zm8.23 6.55l454.48-466.8-2-1.62-454.52 466.82zm6.19 4.93l454.48-466.8-2-1.62L-204-493.12zm6.19 4.93l454.48-466.8-2-1.62-454.48 466.8zm6.2 4.93l454.48-466.8-2-1.62-454.48 466.8zm6.19 4.93l454.48-466.8-2-1.62-454.48 466.8zm6.19 4.93l454.48-466.8-2-1.62L-179.2-473.4zm6.2 4.93l454.48-466.8-2-1.62L-173-468.46zm6.19 4.93l454.48-466.8-2-1.62-454.51 466.83zm6.2 4.94L295.9-923.78l-2-1.62-454.51 466.8zm6.19 4.93L302.1-918.85l-2-1.62-454.48 466.8zm6.19 4.93l454.48-466.78-2-1.62-454.48 466.8zm6.2 4.93L314.48-909l-2-1.62L-142-443.8zm6.19 4.93l454.49-466.8-2-1.62-454.48 466.8zm6.2 4.93l454.48-466.8-2-1.62-454.48 466.8zm6.2 4.94l454.47-466.78-2-1.62L-123.45-429zm6.19 4.93l454.47-466.78-2-1.62-454.48 466.8zm6.19 4.93l454.47-466.78-2-1.62-454.48 466.8zm6.19 4.93L351.65-879.4l-2-1.62-454.51 466.81zm6.19 4.93l454.48-466.8-2-1.62-454.51 466.83zm6.19 4.93L364-869.53l-2-1.62-454.48 466.8zm6.2 4.93L370.23-864.6l-2-1.62-454.51 466.81zm6.19 4.93l454.48-466.8-2-1.62-454.51 466.84zm6.2 4.93l454.48-466.8-2-1.62-454.51 466.84zm6.19 4.93l454.48-466.8-2-1.62L-67.7-384.62zm6.19 4.93L395-844.87l-2-1.62-454.5 466.8zm6.19 4.93L401.2-839.94l-2-1.62-454.51 466.8zm6.19 4.93L407.4-835l-2-1.62-454.52 466.79zm6.2 4.93l454.48-466.8-2-1.62-454.5 466.85zm6.19 4.93l454.49-466.76-2-1.62L-36.73-360zm6.2 4.93L426-820.21l-2-1.62L-30.54-355zm6.19 4.93l454.48-466.8-2-1.62-454.5 466.85zm6.19 4.93l454.48-466.8-2-1.62-454.5 466.85zm6.2 4.93l454.48-466.8-2-1.62L-12-340.23zm6.19 4.93l454.49-466.75-2-1.62L-5.76-335.3zm6.19 4.93l454.5-466.75-2-1.62L.44-330.37zm6.19 4.93l454.48-466.8-2-1.62L6.63-325.44zm6.2 4.93l454.48-466.8-2-1.62-454.5 466.86zm6.21 4.95l454.48-466.8-2-1.62L19-315.57zm6.19 5l454.48-466.8-2-1.62L25.21-310.64zm6.2 4.93l454.48-466.8-2-1.62L31.41-305.71zm6.19 4.93L494.11-766l-2-1.62L37.6-300.78zm6.19 4.93L500.31-761l-2-1.62L43.79-295.84zM52-289.3l454.5-466.8-2-1.62L50-290.91zm6.2 4.93l454.49-466.8-2-1.62L56.18-286zm6.19 4.93l454.48-466.8-2-1.62L62.37-281zm6.19 4.93l454.5-466.79-2-1.62-454.51 466.8zm6.19 4.93l454.48-466.8-2-1.62L74.76-271.19zm6.2 4.94l454.5-466.8-2-1.62L81-266.25zm6.19 4.93l454.48-466.8-2-1.62L87.15-261.32zm6.2 4.93l454.48-466.8-2-1.62L93.35-256.39zm6.19 4.93l454.48-466.8-2-1.62L99.54-251.46zm6.19 4.93l454.48-466.8-2-1.62-454.48 466.82zM114-240l454.44-466.78-2-1.62-454.51 466.81zm6.19 4.93l454.48-466.8-2-1.62-454.55 466.83zm6.2 4.94L580.84-696.9l-2-1.62-454.51 466.8zm6.19 4.93L587-692l-2-1.62-454.48 466.83zm6.19 4.93L593.23-687l-2-1.62-454.51 466.77zm6.2 4.93l454.48-466.8-2-1.62-454.54 466.84zm6.19 4.93l454.48-466.8-2-1.62L149.11-212zm6.19 4.93l454.48-466.8-2-1.62L155.3-207.06zm6.19 4.93L618-667.31l-2-1.62-454.5 466.8zm6.2 4.93L624.2-662.38l-2-1.62-454.51 466.8zm6.19 4.93L630.4-657.45l-2-1.62-454.52 466.81zm6.19 4.93l454.48-466.8-2-1.62-454.52 466.85zm6.19 4.93l454.48-466.8-2-1.62L186.27-182.4zm6.2 4.93L649-642.65l-2-1.62-454.54 466.8zm6.19 4.93l454.47-466.76-2-1.62-454.52 466.81zm6.19 4.93l454.48-466.8-2-1.62-454.52 466.85zm6.19 4.93l454.48-466.8-2-1.62L211-162.67zm6.2 4.93l454.48-466.8-2-1.62-454.52 466.86zm6.19 4.93L679.95-618l-2-1.62-454.52 466.81zm6.2 4.93l454.47-466.74-2-1.62-454.52 466.8zm6.19 4.93l454.48-466.8-2-1.62-454.52 466.86zm6.2 4.93L698.53-603.2l-2-1.62L242-138zm6.19 4.93l454.48-466.8-2-1.62-454.52 466.87zm6.2 4.93l454.46-466.74-2-1.62L254.4-128.15zm6.19 4.93L717.11-588.4l-2-1.62-454.51 466.8zm6.19 4.93L723.3-583.47l-2-1.62-454.51 466.8zm6.2 4.93L729.5-578.54l-2-1.62L273-113.35zm6.19 4.93L735.7-573.61l-2-1.62-454.52 466.81zm6.2 4.93l454.48-466.8-2-1.62-454.52 466.88zm6.19 4.93l454.48-466.8-2-1.62L291.57-98.56zm6.18 5.02l454.48-466.8-2-1.62L297.76-93.63zm6.2 4.93l454.48-466.8-2-1.62L304-88.69zm6.19 4.93l454.48-466.8-2-1.62-454.51 466.8zm6.19 4.93L772.86-544l-2-1.62L316.34-78.83zm6.2 4.94l454.48-466.81-2-1.62L322.54-73.9zm6.19 4.93l454.48-466.81-2-1.62L328.73-69zm6.24 4.93l454.48-466.8-2-1.62L334.93-64zm6.2 4.93l454.44-466.81-2-1.62L341.12-59.1zm6.19 4.93l454.48-466.8-2-1.62-454.56 466.8zm6.19 4.93L810-514.42l-2-1.58L353.51-49.24zm6.19 4.93l454.48-466.8-2-1.62L359.71-44.3zm6.2 4.93l454.48-466.8-2-1.62L365.9-39.37zm6.19 4.93l454.44-466.8-2-1.62L372.09-34.44zm6.19 4.93L834.8-494.7l-2-1.62L378.29-29.51zm6.2 4.93L841-489.76l-2-1.62-454.52 466.8zm6.16 4.97l454.48-466.83-2-1.62-454.52 466.8zm6.2 4.93L853.38-479.9l-2-1.62L396.87-14.71zm6.19 4.93L859.58-475l-2-1.62L403.06-9.78zm6.2 4.93L865.77-470l-2-1.62L409.26-4.85zm6.19 4.94L872-465.1l-2-1.62L415.45.08zm6.19 4.93l454.48-466.83-2-1.62L421.64 5zm6.19 4.93l454.48-466.8-2-1.62L427.83 9.95zm6.2 4.93l454.48-466.8-2-1.62L434 14.88zm6.2 4.93l454.48-466.8-2-1.62L440.23 19.81zm6.19 4.93l454.48-466.8-2-1.62L446.42 24.74zm6.2 4.93l454.47-466.8-2-1.62L452.62 29.67z"/></g><path class="cls-5" d="M0-.19l902.68 107.07L0 168.02V-.19z"/></svg>