<svg xmlns="http://www.w3.org/2000/svg" xmlns:xlink="http://www.w3.org/1999/xlink" viewBox="0 0 74 96"><path fill="#281E6A" d="M.1 0h73.8v73.8H.1z"/><defs><path id="a" d="M0 0h74v96H0z"/></defs><clipPath id="b"><use xlink:href="#a" overflow="visible"/></clipPath><path clip-path="url(#b)" fill="#281E6A" d="M.1 81.2h.7v4c.2-.3.3-.5.4-.8l2-3.2H4v4.9h-.7v-4c-.2.4-.3.5-.4.8l-2 3.2H.1v-4.9zM5.5 81.2h.7v2.1h2.3v-2.1h.7v4.9h-.7v-2.2H6.2v2.2h-.7zM13.3 81.6h.2c.6 0 1.1.2 1.3.4.4.3.7.8.7 1.5 0 .6-.3 1.2-.7 1.5-.2.1-.6.4-1.4.4h-.2v.6h-.7v-.6h-.2c-.8 0-1.2-.3-1.4-.4-.4-.3-.7-.9-.7-1.5 0-.7.3-1.2.7-1.5.3-.2.7-.4 1.3-.4h.2V81h.7v.6zm-.9.6c-.2 0-.6 0-.9.3-.2.2-.4.5-.4 1.1 0 .5.2.8.4 1 .3.3.7.4 1 .4h.2v-2.8h-.3zm.9 2.8h.2c.3 0 .7 0 1-.4.2-.2.4-.5.4-1 0-.6-.2-.9-.4-1.1-.3-.3-.7-.3-.9-.3h-.2V85zM20.7 81.9c.4.4.6 1 .6 1.8s-.3 1.4-.6 1.8c-.3.4-.9.7-1.8.7s-1.4-.4-1.8-.7c-.4-.4-.6-1-.6-1.8s.2-1.4.6-1.8c.4-.5 1-.7 1.8-.7s1.4.2 1.8.7m-2.9.4c-.3.3-.4.8-.4 1.4 0 .4.1 1 .4 1.3.2.3.6.6 1.2.6s1-.3 1.2-.6c.3-.4.4-.9.4-1.3 0-.5-.2-1-.4-1.4-.2-.3-.6-.6-1.2-.6s-1 .3-1.2.6M22.5 81.2h1.3c.4 0 .9 0 1.4.4.2.2.5.5.5 1.1 0 .4-.2.8-.3 1-.4.5-1.1.5-1.4.5h-.7v2h-.7v-5zm.7 2.3h.7c.3 0 .6-.1.7-.2.1-.1.2-.3.2-.6s-.1-.5-.3-.7c-.3-.2-.5-.2-.8-.2h-.6v1.7zM26.6 81.2h1.2l1.5 4.1 1.6-4.1H32v4.9h-.7v-4.2l-1.6 4.2H29l-1.6-4.2h-.1v4.2h-.7zM35.1 81.2h.7l2.1 4.9h-.8l-.5-1.2h-2.4l-.5 1.2H33l2.1-4.9zm.3.7l-1 2.4h2l-1-2.4zM39.6 81.2v4.3h2.2v-4.3h.7v4.3h.5v1.7h-.6v-1.1h-3.5v-4.9zM44.1 81.2h.7v4c.2-.3.3-.5.4-.8l2-3.2h.8v4.9h-.7v-4c-.2.4-.3.5-.4.8l-2 3.2h-.8v-4.9zM53.3 81.9c.4.4.6 1 .6 1.8s-.3 1.4-.6 1.8c-.3.4-.9.7-1.8.7s-1.4-.4-1.8-.7c-.4-.4-.6-1-.6-1.8s.2-1.4.6-1.8c.4-.5 1-.7 1.8-.7.8-.1 1.4.2 1.8.7m-3 .4c-.3.3-.4.8-.4 1.4 0 .4.1 1 .4 1.3.2.3.6.6 1.2.6s1-.3 1.2-.6c.3-.4.4-.9.4-1.3 0-.5-.2-1-.4-1.4-.2-.3-.6-.6-1.2-.6s-1 .3-1.2.6M55.1 81.2h.7v2.1h2.3v-2.1h.7v4.9h-.7v-2.2h-2.3v2.2h-.7zM60.3 81.2h.7v2.1h2.3v-2.1h.7v4.9h-.7v-2.2H61v2.2h-.7zM69.3 81.9c.4.4.6 1 .6 1.8s-.3 1.4-.6 1.8c-.3.4-.9.7-1.8.7s-1.4-.4-1.8-.7c-.4-.4-.6-1-.6-1.8s.2-1.4.6-1.8c.4-.5 1-.7 1.8-.7.9-.1 1.4.2 1.8.7m-2.9.4c-.3.3-.4.8-.4 1.4 0 .4.1 1 .4 1.3.2.3.6.6 1.2.6s1-.3 1.2-.6c.3-.4.4-.9.4-1.3 0-.5-.2-1-.4-1.4-.2-.3-.6-.6-1.2-.6-.6.1-1 .3-1.2.6M71.1 81.2h2.8v.6h-2.1v1.5h1.9v.6h-1.9v1.6h2.1v.6h-2.8zM2.1 91.1h.7L4.9 96h-.8l-.5-1.2H1.2L.7 96H0l2.1-4.9zm.3.6l-1 2.4h2l-1-2.4zM6 91.1h2.6v.6H6.7V96H6zM9.7 91.1h2.8v.6h-2.1v1.4h1.9v.6h-1.9v1.7h2.1v.6H9.7zM13.8 91.1h.8v2h2.3v-2h.7V96h-.7v-2.3h-2.3V96h-.8zM20.3 91.7h-1.6v-.6h3.8v.6H21V96h-.7zM26.8 91.9c-.3-.2-.7-.3-1-.3-.4 0-.9.1-1.2.4-.4.3-.7.8-.7 1.5 0 .6.2 1 .5 1.3.3.4.8.6 1.5.6.2 0 .6 0 1-.2v.7c-.4.2-.7.2-1 .2-.7 0-1.4-.1-2-.7-.4-.4-.7-1-.7-1.8 0-.5.1-1.4.9-2 .5-.4 1.1-.5 1.7-.5.5 0 .8.1 1.1.2l-.1.6zM29.3 91.7h-1.5v-.6h3.8v.6H30V96h-.7zM32.7 91.1H34c.4 0 .9 0 1.3.3.3.2.4.5.4.9 0 .2 0 .5-.2.8-.2.2-.5.4-.8.4.3 0 .6.2.8.3.2.2.3.5.3.8 0 .5-.2.8-.4.9-.3.4-1 .5-1.4.5h-1.3v-4.9zm.7 2.1h.4c.3 0 .8 0 1.1-.2.2-.2.2-.4.2-.5 0-.2-.1-.4-.3-.6-.2-.1-.4-.2-.7-.2h-.7v1.5zm0 2.2h.5c.3 0 .8 0 1-.3.1-.1.2-.3.2-.5 0-.3-.1-.6-.4-.7-.3-.1-.6-.1-.9-.1h-.5v1.6zM41.1 91.7c.4.4.6 1 .6 1.8s-.3 1.4-.6 1.8c-.3.4-.9.7-1.8.7s-1.4-.4-1.8-.7c-.4-.4-.6-1-.6-1.8s.2-1.4.6-1.8c.4-.5 1-.7 1.8-.7s1.4.3 1.8.7m-3 .5c-.3.3-.4.8-.4 1.4 0 .4.1 1 .4 1.3.2.3.6.6 1.2.6s1-.3 1.2-.6c.3-.4.4-.9.4-1.3 0-.5-.2-1-.4-1.4-.2-.3-.6-.6-1.2-.6s-1 .3-1.2.6M45.1 91.1h1.3c.4 0 .9 0 1.3.4.2.2.5.5.5 1.1 0 .4-.2.8-.3 1-.5.4-1.1.4-1.4.4h-.7v2h-.7v-4.9zm.7 2.3h.7c.3 0 .6-.1.7-.2.1-.1.2-.3.2-.6s-.1-.5-.3-.7c-.3-.2-.5-.2-.8-.2h-.6v1.7zM53.3 91.7c.4.4.6 1 .6 1.8s-.3 1.4-.6 1.8c-.3.4-.8.7-1.7.7-.9 0-1.4-.4-1.8-.7-.4-.4-.6-1-.6-1.8s.2-1.4.6-1.8c.4-.5 1-.7 1.8-.7.7 0 1.3.3 1.7.7m-2.9.5c-.3.3-.4.8-.4 1.4 0 .4.1 1 .4 1.3.2.3.6.6 1.2.6s1-.3 1.2-.6c.3-.4.4-.9.4-1.3 0-.5-.2-1-.4-1.4-.2-.3-.6-.6-1.2-.6s-1 .3-1.2.6M58.7 91.9c-.3-.2-.7-.3-1-.3-.4 0-.9.1-1.2.4-.4.3-.7.8-.7 1.5 0 .6.2 1 .5 1.3.3.4.8.6 1.5.6.2 0 .6 0 1-.2v.7c-.4.1-.8.1-1.1.1-.7 0-1.4-.1-2-.7-.4-.4-.7-1-.7-1.8 0-.5.1-1.4.9-2 .5-.4 1.1-.5 1.7-.5.5 0 .8.1 1.1.2v.7zM63.3 91.9c-.3-.2-.7-.3-1-.3-.4 0-.9.1-1.2.4-.4.3-.7.8-.7 1.5 0 .6.2 1 .5 1.3.3.4.8.6 1.5.6.2 0 .6 0 1-.2v.7c-.4.2-.7.2-1 .2-.7 0-1.4-.1-2-.7-.4-.4-.7-1-.7-1.8 0-.5.1-1.4.9-2 .5-.4 1.1-.5 1.7-.5.5 0 .8.1 1.1.2l-.1.6zM64.6 91.1h.7v4c.2-.3.3-.5.4-.8l2-3.2h.8V96h-.7v-4c-.2.4-.3.5-.4.8l-2 3.2h-.8v-4.9zM70.1 91.1h.7v4c.2-.3.3-.5.4-.8l2-3.2h.8V96h-.7v-4c-.2.4-.3.5-.4.8l-2 3.2h-.8v-4.9z"/><path clip-path="url(#b)" fill="#FFF" d="M4.8 46.3h16.7l-2.2 4h-4.4v13.1h-4.2V50.3H4.8zM44.7 50.3c-.5 0-.8.3-.8.8v7.5c0 .5.3.8.8.8h8.7v4h-8.7c-3 0-5-1.8-5-4.7v-7.5c0-2.9 2-4.8 5-4.8h9.7l-2.3 4h-7.4zM32.2 46.3h-7.8l-2.3 4h10.1c.5 0 .8.3.8.8v1.8h-6.6c-3 0-5.2 2.2-5.2 5.2s2.2 5.2 5.2 5.2h10.8V51.1c0-2.9-2-4.8-5-4.8m.8 13.2h-6.1c-.9 0-1.5-.6-1.5-1.5s.6-1.5 1.5-1.5H33v3zM60.3 50.3c-.5 0-.8.3-.8.8v7.5c0 .5.3.8.8.8H69v4h-8.7c-3 0-5-1.8-5-4.7v-7.5c0-2.9 2-4.8 5-4.8H70l-2.3 4h-7.4z"/></svg>