<svg xmlns="http://www.w3.org/2000/svg" xmlns:xlink="http://www.w3.org/1999/xlink" viewBox="0 0 75 75"><defs><path id="a" d="M.1.1h74.7v74.7H.1z"/></defs><clipPath id="b"><use xlink:href="#a" overflow="visible"/></clipPath><path clip-path="url(#b)" fill-rule="evenodd" clip-rule="evenodd" fill="#4E76A3" d="M11.6.1h51.7c6.4 0 11.5 5.2 11.5 11.5v51.7c0 6.4-5.2 11.5-11.5 11.5H11.6C5.2 74.8.1 69.6.1 63.3V11.6C.1 5.3 5.3.1 11.6.1"/><path clip-path="url(#b)" fill="#FFF" d="M54.4 38.1S60.9 29 61.5 26c.2-1.1-.3-1.7-1.4-1.7h-5.6c-1.3 0-1.8.6-2.1 1.4 0 0-3 6.5-6.7 10.5-1.2 1.3-1.8 1.7-2.4 1.7-.5 0-.8-.4-.8-1.6V25.9c0-1.5-.2-1.9-1.4-1.9h-9c-.7 0-1.1.4-1.1.9 0 1.4 2.1 1.7 2.1 5.4V38c0 1.5-.1 2.1-.8 2.1-1.9 0-6.5-6.6-9.1-14.2-.5-1.5-1.1-2-2.5-2h-5.6c-.8 0-1.4.6-1.4 1.4 0 1.5 1.8 8.4 8.6 17.7 4.6 6.2 10.7 9.6 16.2 9.6 3.3 0 4.1-.6 4.1-2V46c0-1.2.5-1.7 1.2-1.7.8 0 2.1.2 5.3 3.4 3.8 3.6 4 5.1 6.1 5.1h6.3c.6 0 1.2-.3 1.2-1.4 0-1.4-1.8-3.9-4.7-6.9-1.2-1.5-3-3.2-3.6-4-.8-.9-.6-1.4 0-2.4"/></svg>