<svg id="Слой_1" xmlns="http://www.w3.org/2000/svg" viewBox="0 0 16.8 20.9"><style>.st0{fill:#cf0172}</style><title>objects-baloon</title><path class="st0" d="M16.5 18.1l-.2-.2-2.2-3.2c-.6-1-1.4-.4-1.4-.4L11 15.5c-.1.1-.2.1-.2.2-.5.3-1 .3-1.6-.1-.3-.2-.5-.4-.8-.7-.5-.6-1.4-1.6-2.2-2.8-.9-1.1-1.5-2.3-1.9-3-.2-.3-.3-.6-.4-1-.1-.7 0-1.2.5-1.5.1 0 .2-.1.3-.2l1.9-1.2s.8-.5.1-1.4L4.5.8c0-.1-.1-.1-.1-.2-.2-.3-.7-1-1.5-.4 0 .1-.1.2-.2.2l-1.1.7C.9 1.6.3 2.4.1 3.2c-.1.6-.2 1.3 0 2.1.4 2.2.7 3.1.8 3.4 0 .1.1.1.1.2 0 .2.2.6.4 1.1.1.2.2.5.3.7.4.8 1 1.9 1.8 3.1.8 1.2 1.6 2.1 2.3 2.8.2.2.4.4.5.6.4.4.7.7.9.8l.2.2c.2.2 1 .8 2.9 2 .7.4 1.4.7 2 .7.9.1 1.8-.1 2.6-.6l1.1-.7c.1 0 .2-.1.2-.1.9-.5.5-1.2.3-1.4z"/></svg>