<svg xmlns:x="http://ns.adobe.com/Extensibility/1.0/" xmlns:i="http://ns.adobe.com/AdobeIllustrator/10.0/" xmlns:graph="http://ns.adobe.com/Graphs/1.0/" xmlns="http://www.w3.org/2000/svg" xmlns:xlink="http://www.w3.org/1999/xlink" xmlns:a="http://ns.adobe.com/AdobeSVGViewerExtensions/3.0/" version="1.1" x="0px" y="0px" viewBox="0 0 100 100" style="enable-background:new 0 0 100 100;" xml:space="preserve"><g><path d="M97.5,42.890137c0-0.359375-0.193359-0.692383-0.505859-0.869141L50.491699,15.718262   c-0.298828-0.169922-0.68457-0.169434-0.983398,0L25.232422,29.449219c-0.720215,0.42334-1.525879,0.637695-2.39502,0.638184   c-3.94873,0-8.116699-4.279785-8.157715-4.322266c-0.28125-0.293945-0.739746-0.387695-1.11377-0.228027   c-0.380371,0.162598-0.623535,0.549316-0.605469,0.962402c0.001953,0.050293,0.230469,4.972168,1.506348,10.814453   L3.006836,43.796387C2.694336,43.973145,2.5,44.306152,2.5,44.665527s0.194336,0.692383,0.506836,0.869141l0.03418,0.019531   l-0.03418,0.019531C2.694336,45.750488,2.5,46.083496,2.5,46.442871s0.194336,0.691895,0.506836,0.869629l0.03418,0.019531   l-0.03418,0.019531C2.694336,47.527344,2.5,47.861328,2.5,48.220703s0.194336,0.692383,0.506836,0.869141l0.03418,0.019531   l-0.03418,0.019531C2.694336,49.305664,2.5,49.638672,2.5,49.998047s0.194336,0.692383,0.506836,0.869141l0.03418,0.019531   l-0.03418,0.019531C2.694336,51.083008,2.5,51.416016,2.5,51.775391s0.194336,0.692383,0.506836,0.869141l0.03418,0.019531   l-0.03418,0.019531C2.694336,52.860352,2.5,53.193359,2.5,53.552734s0.194336,0.692383,0.506836,0.869141l0.03418,0.019531   l-0.03418,0.019531C2.694336,54.638672,2.5,54.970703,2.5,55.330078s0.194336,0.692383,0.506836,0.869141l0.03418,0.019531   l-0.03418,0.019531C2.694336,56.416016,2.5,56.748047,2.5,57.107422s0.194336,0.692383,0.506836,0.869141l46.501465,26.302734   c0.149414,0.084961,0.319336,0.129883,0.491211,0.129883s0.342773-0.044922,0.492188-0.129883l46.502441-26.302734   C97.306641,57.799805,97.5,57.466797,97.5,57.107422c0-0.021484,0-0.042969-0.001953-0.063477   C97.5,57.018555,97.5,56.994141,97.5,56.96875V43.001465c0-0.019531,0-0.038574-0.001953-0.057617   C97.5,42.925781,97.5,42.908203,97.5,42.890137z M49.780762,71.354492c0.068359,0.038086,0.144531,0.057617,0.21875,0.057617   v0.823242L4.0625,46.251953l0.669434-0.378906L49.780762,71.354492z M49.780762,74.910156   c0.068359,0.037109,0.144531,0.056641,0.21875,0.056641v0.824219L4.0625,49.806641l0.669434-0.378906L49.780762,74.910156z    M49.780762,76.6875c0.068359,0.037109,0.144531,0.056641,0.21875,0.056641v0.824219L4.0625,51.583984l0.669434-0.378906   L49.780762,76.6875z M49.780762,78.464844c0.068359,0.038086,0.144531,0.056641,0.21875,0.056641v0.824219L4.0625,53.361328   l0.669434-0.378906L49.780762,78.464844z M4.0625,55.138672l0.669434-0.378906l45.048828,25.482422   c0.068359,0.038086,0.144531,0.056641,0.21875,0.056641v0.824219L4.0625,55.138672z M49.999512,74.013672L4.0625,48.029297   l0.669434-0.378906l45.048828,25.481445c0.068359,0.038086,0.144531,0.057617,0.21875,0.057617V74.013672z M4.731934,56.537109   l45.048828,25.482422c0.068359,0.038086,0.144531,0.056641,0.21875,0.056641v0.824219L4.0625,56.916016L4.731934,56.537109z    M14.479004,27.563477c1.524902,1.361328,4.895996,3.966797,8.358398,3.966309c1.129395,0,2.181152-0.28125,3.119629-0.833008   l24.04248-13.599121l45.600098,25.79248l-45.600098,25.79248l-24.04248-13.599609   C16.875488,49.946289,14.856445,32.222168,14.479004,27.563477z M15.227539,38.15918   c0.04834,0.20752,0.098633,0.415527,0.149902,0.624512c2.151855,8.73877,5.563965,14.481934,10.142578,17.071777   l24.260742,13.723633c0.068359,0.038086,0.144531,0.057617,0.21875,0.057617v0.821289L4.0625,44.474121L15.227539,38.15918z"></path></g></svg>