<?xml version="1.0" standalone="no"?>
<!DOCTYPE svg PUBLIC "-//W3C//DTD SVG 1.1//EN" "http://www.w3.org/Graphics/SVG/1.1/DTD/svg11.dtd" >
<svg xmlns="http://www.w3.org/2000/svg" xmlns:xlink="http://www.w3.org/1999/xlink" version="1.1">
<metadata>
Created by FontForge 20170910 at Wed Dec 11 00:50:11 2013
 By Jimmy Wärting
Copyright (c) 2012 by Vyacheslav Kirilenko, Gayane Bagdasaryan. All rights reserved.
</metadata>
<defs>
<font id="Geometria-Italic" horiz-adv-x="637" >
  <font-face 
    font-family="Geometria"
    font-weight="400"
    font-style="italic"
    font-stretch="normal"
    units-per-em="1000"
    panose-1="2 11 5 3 2 2 4 9 2 4"
    ascent="776"
    descent="-224"
    x-height="483"
    cap-height="700"
    bbox="-294 -231 1487 926"
    underline-thickness="50"
    underline-position="-100"
    slope="-9"
    unicode-range="U+0020-FB04"
  />
<missing-glyph horiz-adv-x="659" 
d="M529 0h-440l111 700h440zM250 649l-95 -598h324l95 598h-324z" />
    <glyph glyph-name="ij" unicode="ij" horiz-adv-x="504" 
d="M235 -204c-35 0 -63 6 -82 18l10 66c21 -13 43 -19 67 -19c57 0 90 32 100 97l83 525h72l-85 -536c-17 -104 -82 -151 -165 -151zM472 700c28 0 50 -22 50 -51s-22 -51 -50 -51c-29 0 -51 22 -51 51s22 51 51 51zM232 700c28 0 50 -22 50 -51s-22 -51 -50 -51
c-29 0 -51 22 -51 51s22 51 51 51zM168 0h-72l77 483h72z" />
    <glyph glyph-name="f_f" unicode="ff" horiz-adv-x="702" 
d="M262 420l-67 -420h-72l67 420h-96l10 63h97l12 80c13 89 70 145 161 145c40 0 73 -6 99 -19l-11 -66c-28 13 -55 20 -81 20c-57 0 -90 -31 -99 -92l-10 -68h237l12 80c13 89 70 145 161 145c40 0 73 -6 99 -19l-11 -66c-28 13 -55 20 -81 20c-57 0 -90 -31 -99 -92
l-10 -68h168l-10 -63h-168l-67 -420h-72l67 420h-236z" />
    <glyph glyph-name="fi" unicode="fi" horiz-adv-x="599" 
d="M282 551l-10 -68h308l-77 -483h-72l67 420h-236l-67 -420h-72l67 420h-96l10 63h97l12 80c13 89 70 145 161 145c40 0 73 -6 99 -19l-11 -66c-28 13 -55 20 -81 20c-57 0 -90 -31 -99 -92zM530 613c-19 20 -19 52 0 72c20 20 52 20 72 0s20 -52 0 -72
c-20 -19 -52 -19 -72 0z" />
    <glyph glyph-name="fl" unicode="fl" horiz-adv-x="638" 
d="M542 700h72l-89 -563c-3 -21 -5 -35 -5 -42c0 -28 16 -42 49 -42c23 0 42 4 55 13l-11 -64c-19 -9 -43 -14 -72 -14c-63 0 -94 29 -94 87c0 15 2 35 6 60l45 285h-236l-67 -420h-72l67 420h-96l10 63h97l12 80c13 89 70 145 161 145c40 0 73 -6 99 -19l-11 -66
c-28 13 -55 20 -81 20c-57 0 -90 -31 -99 -92l-10 -68h236z" />
    <glyph glyph-name="f_f_i" unicode="ffi" horiz-adv-x="906" 
d="M262 420l-67 -420h-72l67 420h-96l10 63h97l12 80c13 89 70 145 161 145c40 0 73 -6 99 -19l-11 -66c-28 13 -55 20 -81 20c-57 0 -90 -31 -99 -92l-10 -68h237l12 80c13 89 70 145 161 145c40 0 73 -6 99 -19l-11 -66c-28 13 -55 20 -81 20c-57 0 -90 -31 -99 -92
l-10 -68h307l-77 -483h-72l67 420h-235l-67 -420h-72l67 420h-236zM874 700c28 0 50 -22 50 -51s-22 -51 -50 -51c-29 0 -51 22 -51 51s22 51 51 51z" />
    <glyph glyph-name="f_f_l" unicode="ffl" horiz-adv-x="945" 
d="M262 420l-67 -420h-72l67 420h-96l10 63h97l12 80c13 89 70 145 161 145c40 0 73 -6 99 -19l-11 -66c-28 13 -55 20 -81 20c-57 0 -90 -31 -99 -92l-10 -68h237l12 80c13 89 70 145 161 145c40 0 73 -6 99 -19l-11 -66c-28 13 -55 20 -81 20c-57 0 -90 -31 -99 -92
l-10 -68h235l34 217h72l-89 -563c-3 -21 -5 -35 -5 -42c0 -28 16 -42 49 -42c23 0 42 4 55 13l-11 -64c-19 -9 -43 -14 -72 -14c-63 0 -94 29 -94 88c0 15 2 35 6 60l45 284h-235l-67 -420h-72l67 420h-236z" />
    <glyph glyph-name=".notdef" horiz-adv-x="659" 
d="M529 0h-440l111 700h440zM250 649l-95 -598h324l95 598h-324z" />
    <glyph glyph-name="NULL" horiz-adv-x="0" 
 />
    <glyph glyph-name="CR" horiz-adv-x="333" 
 />
    <glyph glyph-name="space" unicode=" " horiz-adv-x="264" 
 />
    <glyph glyph-name="exclam" unicode="!" horiz-adv-x="285" 
d="M210 215h-67l63 485h94zM114 9c-20 20 -20 54 0 74s54 20 74 0s20 -54 0 -74s-54 -20 -74 0z" />
    <glyph glyph-name="quotedbl" unicode="&#x22;" horiz-adv-x="356" 
d="M374 447h-64l40 253h64zM189 447h-64l40 253h64z" />
    <glyph glyph-name="numbersign" unicode="#" horiz-adv-x="716" 
d="M253 0h-61l30 189h-145l10 61h144l32 199h-145l10 61h144l31 190h61l-30 -190h195l30 190h61l-30 -190h145l-10 -61h-144l-32 -199h145l-10 -61h-145l-30 -189h-61l30 189h-195zM324 449l-31 -199h195l31 199h-195z" />
    <glyph glyph-name="dollar" unicode="$" horiz-adv-x="626" 
d="M339 -11l-16 -102l-74 1l16 103c-85 9 -168 39 -208 72l12 79c23 -23 59 -43 107 -60s98 -25 149 -25c80 0 202 37 202 143c0 32 -16 58 -35 74c-9 8 -23 16 -42 24c-19 9 -34 15 -47 19s-32 10 -58 17c-56 16 -82 25 -123 45c-58 29 -83 65 -88 131c0 62 23 110 70 145
s106 53 175 56l17 102h74l-17 -104c68 -9 124 -28 169 -57l-11 -74c-64 43 -137 65 -220 65c-49 0 -91 -11 -128 -32c-36 -21 -54 -52 -54 -93c0 -34 19 -53 44 -71c15 -9 48 -20 65 -27l39 -12l39 -11c31 -10 57 -19 76 -28c20 -8 41 -19 64 -34c45 -28 67 -70 67 -125
c0 -66 -26 -119 -78 -158c-51 -39 -113 -60 -186 -63z" />
    <glyph glyph-name="percent" unicode="%" horiz-adv-x="822" 
d="M172 0l519 700h69l-519 -700h-69zM303 712c48 0 87 -15 116 -46c30 -31 45 -68 45 -112c0 -49 -17 -91 -51 -126c-33 -35 -75 -53 -125 -53c-48 0 -87 15 -117 46s-45 69 -45 114c0 48 17 89 51 124s76 53 126 53zM288 430c33 0 60 12 83 36c23 25 34 54 34 88
c0 59 -41 103 -102 103c-33 0 -60 -12 -83 -36s-34 -53 -34 -86c0 -60 42 -105 102 -105zM645 325c48 0 87 -15 117 -46s45 -68 45 -113c0 -49 -17 -91 -51 -126s-76 -52 -126 -52c-48 0 -87 15 -117 46s-45 69 -45 114c0 48 17 89 51 124s76 53 126 53zM630 43
c33 0 60 12 83 36c23 25 34 54 34 87c0 60 -41 104 -102 104c-33 0 -60 -12 -83 -36s-34 -53 -34 -86c0 -60 42 -105 102 -105z" />
    <glyph glyph-name="ampersand" unicode="&#x26;" horiz-adv-x="715" 
d="M593 646l-11 -74c-53 50 -110 75 -171 75c-77 0 -132 -43 -132 -114c0 -44 14 -68 55 -119l208 -253c49 58 82 129 98 214h72c-21 -108 -64 -197 -127 -267l89 -108h-88l-51 62c-63 -49 -135 -74 -216 -74c-70 0 -128 21 -174 62s-69 94 -69 159c0 58 17 105 51 142
s71 62 110 73c-21 35 -32 71 -32 108c0 54 19 97 57 130c39 33 88 50 147 50c72 0 143 -29 184 -66zM326 53c61 0 116 20 167 60l-215 260c-33 -7 -62 -24 -89 -53c-26 -29 -39 -66 -39 -111c0 -91 69 -156 176 -156z" />
    <glyph glyph-name="quotesingle" unicode="'" horiz-adv-x="171" 
d="M189 447h-64l40 253h64z" />
    <glyph glyph-name="parenleft" unicode="(" horiz-adv-x="329" 
d="M320 706h77c-139 -151 -209 -334 -209 -549c0 -137 34 -258 102 -363h-76c-56 85 -93 216 -93 361c0 222 66 406 199 551z" />
    <glyph glyph-name="parenright" unicode=")" horiz-adv-x="330" 
d="M86 -206h-77c139 151 209 334 209 549c0 137 -34 258 -102 363h76c56 -85 93 -216 93 -361c0 -222 -66 -406 -199 -551z" />
    <glyph glyph-name="asterisk" unicode="*" horiz-adv-x="427" 
d="M135 589l34 44l106 -68l20 135h53l-22 -135l127 69l19 -46l-129 -67l108 -68l-34 -45l-105 70l-21 -137h-53l23 136l-128 -69l-19 45l129 69z" />
    <glyph glyph-name="plus" unicode="+" horiz-adv-x="605" 
d="M348 87h-65l32 205h-207l11 67h207l32 206h65l-32 -206h207l-11 -67h-207z" />
    <glyph glyph-name="comma" unicode="," horiz-adv-x="251" 
d="M5 -152l120 255h86l-145 -255h-61z" />
    <glyph glyph-name="hyphen" unicode="-" horiz-adv-x="473" 
d="M414 239h-280l10 66h281z" />
    <glyph glyph-name="period" unicode="." horiz-adv-x="236" 
d="M88 9c-20 20 -20 54 0 74s54 20 74 0s20 -54 0 -74s-54 -20 -74 0z" />
    <glyph glyph-name="slash" unicode="/" horiz-adv-x="511" 
d="M629 792l-568 -932h-80l568 932h80z" />
    <glyph glyph-name="zero" unicode="0" horiz-adv-x="707" 
d="M442 712c79 0 142 -28 187 -85c46 -56 69 -130 69 -222c0 -68 -13 -133 -38 -196s-62 -115 -113 -158c-50 -42 -107 -63 -170 -63c-79 0 -142 28 -188 85s-69 131 -69 223c0 68 12 133 37 196s63 115 113 157c51 42 108 63 172 63zM379 57c49 0 92 18 131 55
c79 73 115 185 115 292c0 67 -16 123 -47 169c-31 47 -78 70 -139 70c-49 0 -93 -18 -132 -55c-77 -72 -114 -183 -114 -290c0 -67 16 -124 47 -171s78 -70 139 -70z" />
    <glyph glyph-name="one" unicode="1" horiz-adv-x="367" 
d="M266 0h-72l98 620l-172 -90l11 71l181 99h65z" />
    <glyph glyph-name="two" unicode="2" horiz-adv-x="575" 
d="M129 558l12 82c59 48 127 72 206 72c64 0 116 -19 156 -56c41 -37 61 -84 61 -142c0 -96 -57 -172 -184 -273l-215 -174h369l-11 -67h-477l8 55l265 218c59 49 103 91 130 124s41 69 41 106c0 87 -67 140 -155 140c-73 0 -141 -28 -206 -85z" />
    <glyph glyph-name="three" unicode="3" horiz-adv-x="571" 
d="M591 700l-9 -54l-243 -211c57 -5 106 -26 147 -61s61 -81 61 -139c0 -75 -28 -135 -84 -180c-55 -45 -123 -67 -204 -67c-87 0 -158 20 -213 59l11 73c53 -42 120 -63 201 -63c58 0 108 15 151 46s64 74 64 130c0 95 -77 148 -184 148c-18 0 -39 -3 -63 -9l8 50l244 211
h-321l10 67h424z" />
    <glyph glyph-name="four" unicode="4" horiz-adv-x="633" 
d="M483 0h-71l31 193h-377l9 59l449 448h70l-70 -440h117l-11 -67h-116zM508 598l-341 -338h286z" />
    <glyph glyph-name="five" unicode="5" horiz-adv-x="594" 
d="M330 444c72 0 130 -21 174 -62s66 -91 66 -150c0 -76 -29 -136 -87 -179c-57 -43 -128 -65 -212 -65s-152 18 -203 54l12 73c53 -39 117 -58 192 -58c58 0 110 14 155 43c46 29 69 72 69 128c0 43 -17 80 -51 109c-33 29 -80 44 -141 44c-49 0 -102 -8 -157 -24l97 343
h351l-10 -67h-294l-57 -199c27 7 59 10 96 10z" />
    <glyph glyph-name="six" unicode="6" horiz-adv-x="641" 
d="M404 448c63 0 113 -20 152 -59s59 -88 59 -146c0 -71 -24 -132 -72 -181c-47 -49 -108 -74 -182 -74c-75 0 -134 25 -178 74s-66 114 -66 194c-5 245 149 460 348 456c70 0 124 -17 163 -50l-11 -69c-41 33 -91 50 -152 50c-69 0 -129 -28 -180 -85
c-50 -57 -79 -127 -86 -210c44 60 120 100 205 100zM363 57c50 0 92 17 127 52s53 79 53 130c0 85 -60 144 -152 144c-39 0 -78 -13 -117 -39c-38 -25 -66 -56 -83 -93c0 -112 60 -194 172 -194z" />
    <glyph glyph-name="seven" unicode="7" horiz-adv-x="553" 
d="M180 0h-79l421 633h-376l10 67h462l-10 -55z" />
    <glyph glyph-name="eight" unicode="8" horiz-adv-x="661" 
d="M499 363c80 -28 131 -88 131 -164c0 -64 -26 -115 -79 -154c-52 -38 -114 -57 -186 -57c-74 0 -138 18 -191 53c-53 36 -80 85 -80 147c0 47 16 87 49 122s77 59 132 70c-65 31 -98 79 -98 142c0 56 23 102 69 137s101 53 166 53c38 0 74 -6 108 -18
c68 -24 123 -82 123 -158c0 -42 -14 -79 -42 -110s-62 -52 -102 -63zM247 518c0 -37 16 -66 48 -87s69 -32 112 -32c42 0 80 11 113 34c34 23 51 54 51 95c0 37 -16 67 -49 88c-32 22 -69 33 -112 33c-41 0 -79 -12 -113 -36c-33 -23 -50 -55 -50 -95zM557 200
c0 40 -19 73 -56 98s-83 38 -137 38c-53 0 -99 -13 -138 -39s-58 -62 -58 -107c0 -41 19 -74 56 -100c38 -26 83 -39 136 -39s99 13 138 40s59 63 59 109z" />
    <glyph glyph-name="nine" unicode="9" horiz-adv-x="641" 
d="M341 252c-63 0 -114 20 -153 59s-58 88 -58 146c0 71 24 132 71 181c48 49 109 74 183 74c75 0 134 -25 178 -74s66 -114 66 -194c5 -245 -150 -460 -348 -456c-70 0 -124 17 -163 50l11 69c41 -33 91 -50 152 -50c69 0 129 28 179 85c51 57 80 127 87 210
c-44 -60 -120 -100 -205 -100zM382 643c-50 0 -93 -18 -128 -53s-52 -78 -52 -129c0 -85 60 -144 152 -144c39 0 78 13 116 38c39 26 67 57 84 94c0 112 -60 194 -172 194z" />
    <glyph glyph-name="colon" unicode=":" horiz-adv-x="236" 
d="M147 381c-20 20 -20 54 0 74s54 20 74 0s20 -54 0 -74s-54 -20 -74 0zM88 9c-20 20 -20 54 0 74s54 20 74 0s20 -54 0 -74s-54 -20 -74 0z" />
    <glyph glyph-name="semicolon" unicode=";" horiz-adv-x="251" 
d="M5 -152l120 255h86l-145 -255h-61zM162 381c-20 20 -20 54 0 74s54 20 74 0s20 -54 0 -74s-54 -20 -74 0z" />
    <glyph glyph-name="less" unicode="&#x3c;" horiz-adv-x="605" 
d="M119 357l512 205l-12 -72l-428 -167l376 -167l-12 -71l-447 204z" />
    <glyph glyph-name="equal" unicode="=" horiz-adv-x="605" 
d="M605 406h-478l10 66h479zM569 178h-478l10 66h479z" />
    <glyph glyph-name="greater" unicode="&#x3e;" horiz-adv-x="605" 
d="M514 324l-375 167l12 71l447 -205l-12 -68l-511 -204l12 72z" />
    <glyph glyph-name="question" unicode="?" horiz-adv-x="476" 
d="M278 215h-69l23 146c52 9 99 28 142 58s65 67 65 111c0 68 -54 113 -143 113c-54 0 -112 -19 -173 -56l11 71c51 33 110 50 178 50c58 0 106 -16 144 -48c39 -31 58 -73 58 -124c0 -55 -21 -100 -63 -136c-41 -36 -93 -62 -155 -78zM218 -6c-29 0 -52 22 -52 53
c0 29 23 52 52 52c28 0 52 -23 52 -52s-24 -53 -52 -53z" />
    <glyph glyph-name="at" unicode="@" horiz-adv-x="967" 
d="M559 713c116 0 211 -37 286 -110s113 -163 113 -270c0 -43 -7 -84 -22 -124s-38 -74 -70 -103c-32 -28 -69 -42 -111 -42c-61 0 -101 33 -112 74c-47 -51 -101 -76 -162 -76c-57 0 -102 18 -135 55s-49 82 -49 136c0 63 20 118 61 164s94 69 158 69c68 0 126 -35 154 -76
l10 61h69l-43 -274c-1 -11 -2 -20 -2 -27c0 -48 28 -74 71 -74c45 0 82 25 111 74s44 103 44 162c0 99 -34 182 -102 251c-67 69 -157 103 -270 103c-119 0 -223 -44 -310 -131s-131 -192 -131 -315c0 -107 35 -196 104 -268s157 -108 264 -108c71 0 140 17 209 50l-5 -31
c-62 -31 -130 -46 -205 -46c-113 0 -207 38 -282 115s-113 172 -113 287c0 83 20 161 61 233c41 73 97 131 169 175c73 44 153 66 240 66zM637 199l24 147c-23 41 -77 77 -134 77c-43 0 -80 -16 -111 -47s-46 -70 -46 -117c0 -79 56 -135 135 -135c49 0 103 34 132 75z" />
    <glyph glyph-name="A" unicode="A" horiz-adv-x="753" 
d="M724 0h-76l-55 193h-368l-115 -193h-80l423 704h69zM575 258l-99 353l-212 -353h311z" />
    <glyph glyph-name="B" unicode="B" horiz-adv-x="726" 
d="M570 379c79 -17 128 -74 128 -158c0 -69 -24 -123 -73 -162c-48 -39 -110 -59 -186 -59h-340l111 700h295c112 0 181 -57 181 -148c0 -81 -40 -146 -116 -173zM494 633h-221l-36 -229h221c43 0 80 11 110 33c31 22 46 54 46 96c0 61 -45 100 -120 100zM227 339l-43 -272
h254c51 0 94 13 129 40s52 65 52 115c0 72 -51 117 -140 117h-252z" />
    <glyph glyph-name="C" unicode="C" horiz-adv-x="690" 
d="M198 322c0 -76 24 -139 73 -190c49 -50 113 -75 192 -75c77 0 146 22 207 65l-11 -78c-59 -37 -126 -56 -202 -56c-99 0 -180 31 -242 93c-61 63 -92 142 -92 237c0 110 36 203 107 279c72 77 164 115 276 115c82 0 152 -19 211 -58l-12 -71c-58 40 -125 60 -200 60
c-87 0 -160 -31 -219 -92s-88 -138 -88 -229z" />
    <glyph glyph-name="D" unicode="D" horiz-adv-x="780" 
d="M210 700h208c105 0 188 -29 251 -87c63 -57 95 -133 95 -227c0 -120 -42 -214 -125 -283s-191 -103 -324 -103h-216zM184 67h167c99 0 180 29 243 87s94 135 94 231c0 74 -25 134 -74 179c-49 46 -117 69 -203 69h-138z" />
    <glyph glyph-name="E" unicode="E" horiz-adv-x="645" 
d="M594 0h-495l111 700h480l-11 -67h-406l-35 -224h333l-11 -67h-333l-43 -275h421z" />
    <glyph glyph-name="F" unicode="F" horiz-adv-x="622" 
d="M173 0h-74l111 700h477l-11 -67h-403l-37 -233h327l-10 -67h-327z" />
    <glyph glyph-name="G" unicode="G" horiz-adv-x="779" 
d="M644 125l46 277h73l-50 -312c-73 -68 -160 -102 -261 -102c-97 0 -177 31 -238 93s-91 141 -91 237c0 110 36 203 107 279c72 77 164 115 276 115c94 0 171 -24 231 -73l-12 -72c-59 51 -133 76 -220 76s-160 -31 -219 -93c-59 -61 -88 -138 -88 -229
c0 -77 24 -141 73 -190s112 -74 189 -74c70 0 131 23 184 68z" />
    <glyph glyph-name="H" unicode="H" horiz-adv-x="761" 
d="M173 0h-74l111 700h74l-46 -291h416l46 291h74l-111 -700h-74l54 342h-416z" />
    <glyph glyph-name="I" unicode="I" horiz-adv-x="281" 
d="M178 0h-74l111 700h74z" />
    <glyph glyph-name="J" unicode="J" horiz-adv-x="507" 
d="M452 700h74l-78 -497c-23 -143 -106 -215 -250 -215c-66 0 -118 16 -157 49l11 75c35 -37 83 -55 143 -55c107 0 164 48 183 165z" />
    <glyph glyph-name="K" unicode="K" horiz-adv-x="663" 
d="M210 700h74l-49 -304l374 304h98l-399 -328l341 -372h-92l-329 356l-55 -356h-74z" />
    <glyph glyph-name="L" unicode="L" horiz-adv-x="597" 
d="M564 0h-465l111 700h74l-100 -633h391z" />
    <glyph glyph-name="M" unicode="M" horiz-adv-x="847" 
d="M860 700l-110 -700h-73l93 587l-277 -305h-45l-183 306l-93 -588h-73l111 700h69l200 -339l305 339h76z" />
    <glyph glyph-name="N" unicode="N" horiz-adv-x="775" 
d="M677 0h-63l-353 580l-90 -580h-72l111 700h62l352 -578l92 578h72z" />
    <glyph glyph-name="O" unicode="O" horiz-adv-x="845" 
d="M498 712c99 0 179 -31 240 -94c61 -62 91 -141 91 -238c0 -108 -36 -200 -108 -277c-71 -77 -160 -115 -267 -115c-99 0 -179 31 -240 94s-91 142 -91 239c0 108 36 200 107 276c72 77 161 115 268 115zM456 57c83 0 154 31 211 93c58 62 87 138 87 229
c0 75 -24 138 -71 188c-47 51 -110 76 -187 76c-83 0 -154 -31 -212 -93c-57 -61 -86 -137 -86 -228c0 -76 24 -139 71 -190c47 -50 110 -75 187 -75z" />
    <glyph glyph-name="P" unicode="P" horiz-adv-x="665" 
d="M99 0l111 700h283c129 0 205 -68 205 -172c0 -65 -23 -117 -70 -158s-105 -61 -176 -61h-230l-49 -309h-74zM233 376h223c45 0 84 12 117 37s50 61 50 106c0 72 -49 114 -138 114h-212z" />
    <glyph glyph-name="Q" unicode="Q" horiz-adv-x="845" 
d="M498 712c99 0 179 -31 240 -94c61 -62 91 -141 91 -238c0 -91 -26 -171 -78 -242s-120 -117 -203 -138c30 -39 68 -58 113 -58c33 0 62 7 87 22l-11 -72c-27 -13 -58 -19 -92 -19c-66 0 -127 38 -182 115h-9c-99 0 -179 31 -240 94s-91 142 -91 239c0 108 36 200 107 276
c72 77 161 115 268 115zM456 57c83 0 154 31 211 93c58 62 87 138 87 229c0 75 -24 138 -71 188c-47 51 -110 76 -187 76c-83 0 -154 -31 -212 -93c-57 -61 -86 -137 -86 -228c0 -76 24 -139 71 -190c47 -50 110 -75 187 -75z" />
    <glyph glyph-name="R" unicode="R" horiz-adv-x="736" 
d="M526 322l172 -322h-84l-168 315h-223l-50 -315h-74l111 700h299c127 0 202 -69 202 -170c0 -107 -74 -185 -185 -208zM498 633h-225l-39 -251h239c45 0 84 12 116 36c32 25 48 59 48 102c0 71 -51 113 -139 113z" />
    <glyph glyph-name="S" unicode="S" horiz-adv-x="626" 
d="M622 652l-11 -74c-64 43 -137 65 -220 65c-49 0 -91 -11 -128 -32c-36 -21 -54 -52 -54 -93c0 -34 19 -53 44 -71c15 -9 48 -20 65 -27l39 -12l39 -11c31 -10 57 -19 76 -28c20 -8 41 -19 64 -34c45 -28 67 -70 67 -125c0 -69 -28 -123 -83 -163
c-55 -39 -121 -59 -198 -59c-52 0 -103 7 -153 22c-49 15 -87 32 -112 53l12 79c23 -23 59 -43 107 -60s98 -25 149 -25c80 0 202 37 202 143c0 32 -16 58 -35 74c-9 8 -23 16 -42 24c-19 9 -34 15 -47 19s-32 10 -58 17c-56 16 -82 25 -123 45c-58 29 -83 65 -88 131
c0 65 25 114 76 149s113 53 186 53c92 0 167 -20 226 -60z" />
    <glyph glyph-name="T" unicode="T" horiz-adv-x="630" 
d="M351 0h-74l100 633h-241l11 67h559l-11 -67h-244z" />
    <glyph glyph-name="U" unicode="U" horiz-adv-x="746" 
d="M632 306l62 394h74l-66 -415c-31 -193 -152 -297 -316 -297c-156 0 -257 91 -257 248c0 19 2 43 7 73l62 391h73l-62 -394c-4 -23 -6 -44 -6 -62c0 -119 69 -187 189 -187c129 0 215 86 240 249z" />
    <glyph glyph-name="V" unicode="V" horiz-adv-x="754" 
d="M385 99l356 601h85l-420 -704h-69l-197 704h79z" />
    <glyph glyph-name="W" unicode="W" horiz-adv-x="1053" 
d="M325 117l275 584h60l90 -582l287 581h81l-352 -704h-65l-89 577l-272 -577h-65l-131 704h79z" />
    <glyph glyph-name="X" unicode="X" horiz-adv-x="708" 
d="M656 700h88l-287 -321l223 -379h-85l-188 321l-288 -321h-90l342 381l-186 319h83l153 -261z" />
    <glyph glyph-name="Y" unicode="Y" horiz-adv-x="664" 
d="M388 390l270 310h89l-330 -378l-51 -322h-74l50 321l-213 379h82z" />
    <glyph glyph-name="Z" unicode="Z" horiz-adv-x="642" 
d="M593 0h-543l8 53l509 580h-404l10 67h504l-8 -52l-507 -581h441z" />
    <glyph glyph-name="bracketleft" unicode="[" horiz-adv-x="388" 
d="M315 -206h-253l144 912h253l-9 -61h-183l-125 -790h183z" />
    <glyph glyph-name="backslash" unicode="\" horiz-adv-x="510" 
d="M209 792l273 -932h-73l-273 932h73z" />
    <glyph glyph-name="bracketright" unicode="]" horiz-adv-x="388" 
d="M151 706h253l-144 -912h-252l9 61h183l125 790h-183z" />
    <glyph glyph-name="asciicircum" unicode="^" horiz-adv-x="517" 
d="M180 346h-72l230 371h68l111 -371h-67l-87 303z" />
    <glyph glyph-name="underscore" unicode="_" horiz-adv-x="620" 
d="M592 -129h-603l7 56h605z" />
    <glyph glyph-name="grave" unicode="`" horiz-adv-x="524" 
d="M274 710h90l90 -134h-69z" />
    <glyph glyph-name="a" unicode="a" horiz-adv-x="596" 
d="M549 57c10 0 19 2 27 6l-9 -58c-15 -7 -30 -10 -46 -10c-47 0 -84 23 -85 72c-53 -53 -117 -79 -193 -79c-52 0 -95 14 -128 42s-49 64 -49 109c0 55 20 96 60 125c41 29 90 44 147 44c67 0 129 -17 186 -51c6 39 9 64 9 73c0 67 -46 100 -139 100
c-64 0 -121 -13 -170 -39l12 68c45 24 103 36 173 36c55 0 102 -13 140 -38s57 -63 57 -116c0 -17 -3 -42 -9 -77l-20 -125c-3 -19 -4 -32 -4 -40c0 -28 14 -42 41 -42zM267 53c68 0 136 38 172 81l10 65c-47 33 -102 50 -165 50c-83 0 -147 -36 -147 -103
c0 -61 51 -93 130 -93z" />
    <glyph glyph-name="b" unicode="b" horiz-adv-x="642" 
d="M405 495c66 0 119 -22 159 -66s60 -98 60 -162c0 -77 -25 -143 -74 -198c-49 -54 -113 -81 -190 -81c-87 0 -155 43 -192 96l-13 -84h-72l111 700h72l-47 -286c48 54 110 81 186 81zM351 53c55 0 102 20 141 59c39 40 58 89 58 148c0 100 -67 170 -167 170
c-34 0 -68 -10 -102 -29c-33 -19 -58 -42 -75 -71l-27 -174c12 -27 34 -51 66 -72s67 -31 106 -31z" />
    <glyph glyph-name="c" unicode="c" horiz-adv-x="520" 
d="M334 -12c-74 0 -133 22 -178 66c-45 45 -67 100 -67 166c0 79 27 144 81 196c54 53 120 79 199 79c62 0 115 -14 159 -42l-11 -66c-41 29 -88 43 -141 43c-61 0 -111 -20 -152 -59s-61 -88 -61 -147c0 -51 17 -92 52 -124c35 -31 79 -47 134 -47c47 0 92 12 135 36
l-11 -69c-41 -21 -87 -32 -139 -32z" />
    <glyph glyph-name="d" unicode="d" 
d="M307 -12c-67 0 -120 22 -159 65c-39 44 -59 98 -59 163c0 77 25 143 74 197c49 55 113 82 190 82c88 0 155 -43 191 -96l49 301h72l-110 -700h-73l11 69c-47 -54 -109 -81 -186 -81zM362 430c-55 0 -102 -20 -141 -60c-39 -39 -58 -88 -58 -147c0 -49 15 -90 45 -122
c31 -32 71 -48 121 -48c34 0 68 10 102 29c34 20 59 44 75 72l27 174c-11 27 -33 50 -65 71c-31 21 -67 31 -106 31z" />
    <glyph glyph-name="e" unicode="e" horiz-adv-x="579" 
d="M351 53c52 0 102 14 151 43l-9 -68c-40 -27 -92 -40 -156 -40c-72 0 -131 21 -178 63c-47 43 -70 98 -70 167c0 75 25 140 75 195s113 82 190 82c67 0 119 -21 156 -63c37 -41 55 -90 55 -146c0 -23 -2 -43 -5 -62h-399c0 -111 78 -171 190 -171zM350 430
c-45 0 -85 -14 -119 -41c-33 -27 -55 -63 -64 -106h327c1 5 1 10 1 15c0 35 -13 66 -38 92c-25 27 -61 40 -107 40z" />
    <glyph glyph-name="f" unicode="f" horiz-adv-x="394" 
d="M262 420l-67 -420h-72l67 420h-96l10 63h97l12 80c13 89 70 145 161 145c40 0 73 -6 99 -19l-11 -66c-28 13 -55 20 -81 20c-57 0 -90 -31 -99 -92l-10 -68h168l-10 -63h-168z" />
    <glyph glyph-name="g" unicode="g" horiz-adv-x="636" 
d="M544 400l14 83h72l-74 -464c-24 -149 -121 -223 -290 -223c-71 0 -147 21 -190 46l11 69c52 -33 113 -50 183 -50c125 0 197 55 215 166l8 48c-47 -53 -108 -79 -185 -79c-67 0 -120 22 -160 65c-40 44 -60 98 -60 161c0 74 25 138 74 192c50 54 113 81 190 81
c88 0 157 -43 192 -95zM507 160l26 169c-12 27 -34 50 -66 70c-31 21 -67 31 -106 31c-55 0 -102 -19 -141 -58s-58 -87 -58 -144c0 -49 16 -89 48 -120s74 -47 125 -47c65 0 136 43 172 99z" />
    <glyph glyph-name="h" unicode="h" horiz-adv-x="610" 
d="M573 255l-41 -255h-72l41 254c5 28 7 49 7 63c0 72 -47 110 -120 110c-35 0 -70 -10 -103 -30c-33 -19 -59 -41 -78 -66l-52 -331h-72l112 700h72l-47 -287c56 55 121 82 195 82c100 0 167 -63 167 -160c0 -19 -3 -45 -9 -80z" />
    <glyph glyph-name="i" unicode="i" horiz-adv-x="264" 
d="M232 700c28 0 50 -22 50 -51s-22 -51 -50 -51c-29 0 -51 22 -51 51s22 51 51 51zM168 0h-72l77 483h72z" />
    <glyph glyph-name="j" unicode="j" horiz-adv-x="264" 
d="M-5 -204c-35 0 -63 6 -82 18l10 66c21 -13 43 -19 67 -19c57 0 90 32 100 97l83 525h72l-85 -536c-17 -104 -82 -151 -165 -151zM232 700c28 0 50 -22 50 -51s-22 -51 -50 -51c-29 0 -51 22 -51 51s22 51 51 51z" />
    <glyph glyph-name="k" unicode="k" horiz-adv-x="541" 
d="M194 700h72l-66 -416l257 199h99l-288 -225l248 -258h-92l-231 240l-38 -240h-72z" />
    <glyph glyph-name="l" unicode="l" horiz-adv-x="286" 
d="M190 700h72l-89 -563c-3 -20 -5 -34 -5 -42c0 -28 16 -42 49 -42c23 0 42 4 55 13l-11 -64c-19 -9 -43 -14 -72 -14c-63 0 -94 29 -94 87c0 15 2 35 6 60z" />
    <glyph glyph-name="m" unicode="m" horiz-adv-x="920" 
d="M83 0l76 483h73l-12 -69c44 54 103 81 177 81c79 0 135 -37 146 -96c41 55 112 96 195 96c95 0 154 -55 154 -152c0 -15 -2 -36 -7 -64l-44 -279h-72l44 280c3 25 5 40 5 44c0 75 -46 103 -102 103c-71 0 -133 -42 -168 -99c-1 -12 -3 -31 -7 -56l-43 -272h-72l45 284
c3 20 4 34 4 42c0 72 -46 101 -99 101c-68 0 -124 -31 -169 -94l-52 -333h-72z" />
    <glyph glyph-name="n" unicode="n" horiz-adv-x="610" 
d="M573 255l-41 -255h-72l41 254c5 28 7 49 7 63c0 72 -47 110 -120 110c-35 0 -70 -10 -103 -30c-33 -19 -59 -41 -78 -66l-52 -331h-72l77 483h72l-12 -70c56 55 121 82 195 82c100 0 167 -63 167 -160c0 -19 -3 -45 -9 -80z" />
    <glyph glyph-name="o" unicode="o" horiz-adv-x="621" 
d="M358 495c73 0 132 -23 177 -69c45 -45 68 -102 68 -169c0 -74 -26 -137 -77 -190s-115 -79 -192 -79c-73 0 -133 23 -178 68c-45 46 -67 103 -67 170c0 74 26 137 77 190s115 79 192 79zM334 53c55 0 102 20 141 59c39 40 59 89 59 147c0 50 -16 91 -49 123
s-75 48 -127 48c-55 0 -103 -20 -142 -60c-39 -39 -58 -88 -58 -146c0 -50 16 -91 49 -123s75 -48 127 -48z" />
    <glyph glyph-name="p" unicode="p" horiz-adv-x="642" 
d="M406 495c66 0 119 -22 158 -66c40 -44 60 -98 60 -162c0 -77 -25 -143 -74 -198c-49 -54 -113 -81 -190 -81c-87 0 -155 44 -192 97l-46 -285h-72l108 683h73l-12 -68c47 53 110 80 187 80zM351 53c55 0 102 20 141 59c39 40 58 89 58 148c0 100 -67 170 -167 170
c-34 0 -68 -10 -102 -29c-33 -19 -58 -42 -75 -70l-27 -174c12 -27 34 -51 66 -72s67 -32 106 -32z" />
    <glyph glyph-name="q" unicode="q" horiz-adv-x="636" 
d="M307 -12c-67 0 -120 22 -159 65c-39 44 -59 98 -59 163c0 77 25 143 74 197c49 55 113 82 190 82c88 0 155 -43 191 -96l14 84h72l-107 -683h-73l43 269c-47 -54 -109 -81 -186 -81zM362 430c-55 0 -102 -20 -141 -60c-39 -39 -58 -88 -58 -147c0 -49 15 -90 45 -122
c31 -32 71 -48 121 -48c34 0 68 10 102 29c34 20 59 44 75 72l27 174c-11 27 -33 50 -65 71c-31 21 -67 31 -106 31z" />
    <glyph glyph-name="r" unicode="r" horiz-adv-x="366" 
d="M155 0h-72l77 483h72l-15 -92c47 63 130 104 209 104l-12 -73c-81 0 -162 -44 -210 -117z" />
    <glyph glyph-name="s" unicode="s" horiz-adv-x="496" 
d="M491 441l-10 -69c-52 39 -113 58 -182 58c-67 0 -121 -22 -121 -75c0 -40 33 -54 128 -82c112 -33 162 -67 162 -135c0 -49 -20 -87 -61 -112s-89 -38 -145 -38c-88 0 -170 30 -213 62l10 70c57 -45 124 -67 203 -67c36 0 68 6 95 18s41 32 41 61c0 39 -38 56 -134 84
c-99 28 -158 63 -158 134c0 47 19 83 56 108c38 25 84 37 138 37c77 0 140 -18 191 -54z" />
    <glyph glyph-name="t" unicode="t" horiz-adv-x="430" 
d="M207 420h-114l10 63h114l24 149h72l-23 -149h168l-10 -63h-169l-40 -251c-4 -23 -6 -41 -6 -55c0 -39 25 -58 74 -58c27 0 53 7 80 20l-9 -66c-22 -15 -55 -22 -100 -22c-80 0 -120 34 -120 103c0 16 2 33 5 51z" />
    <glyph glyph-name="u" unicode="u" horiz-adv-x="610" 
d="M114 228l41 255h72l-41 -254c-5 -28 -7 -49 -7 -63c0 -72 47 -110 120 -110c35 0 70 10 103 29c33 20 59 42 78 67l52 331h72l-77 -483h-72l12 70c-56 -55 -121 -82 -195 -82c-100 0 -167 63 -167 160c0 19 3 45 9 80z" />
    <glyph glyph-name="v" unicode="v" horiz-adv-x="567" 
d="M294 93l239 390h79l-299 -486h-66l-145 486h76z" />
    <glyph glyph-name="w" unicode="w" horiz-adv-x="819" 
d="M586 105l197 378h73l-251 -486h-61l-76 380l-196 -380h-62l-96 486h70l76 -377l193 379h59z" />
    <glyph glyph-name="x" unicode="x" horiz-adv-x="560" 
d="M493 483h87l-220 -228l169 -255h-80l-136 205l-196 -205h-88l249 258l-148 225h79l116 -174z" />
    <glyph glyph-name="y" unicode="y" horiz-adv-x="555" 
d="M515 483h80l-314 -543c-56 -97 -116 -144 -197 -144c-27 0 -52 6 -73 17l11 65c19 -11 40 -17 62 -17c63 0 105 47 169 158l-153 464h75l123 -383z" />
    <glyph glyph-name="z" unicode="z" horiz-adv-x="504" 
d="M465 0h-427l7 48l360 372h-287l10 63h390l-8 -50l-357 -370h322z" />
    <glyph glyph-name="braceleft" unicode="{" horiz-adv-x="363" 
d="M382 706h56l-9 -61h-41c-56 0 -88 -29 -97 -86l-26 -165c-12 -77 -36 -124 -92 -144c34 -14 51 -44 51 -89c0 -15 -2 -33 -5 -55l-23 -148c-3 -20 -5 -33 -5 -40c0 -42 24 -63 72 -63h41l-9 -61h-57c-75 0 -119 39 -119 107c0 8 1 21 4 40c1 13 9 63 23 150
c4 25 6 44 6 56c0 45 -21 70 -62 74l9 58c36 4 61 19 74 47c15 29 18 49 25 89l24 152c13 88 73 139 160 139z" />
    <glyph glyph-name="bar" unicode="|" horiz-adv-x="309" 
d="M166 -111h-62l138 871h62z" />
    <glyph glyph-name="braceright" unicode="}" horiz-adv-x="363" 
d="M60 -206h-56l9 61h41c56 0 88 29 97 86l26 165c12 77 36 124 92 144c-34 14 -51 44 -51 89c0 15 2 33 5 55l23 148c3 20 5 33 5 40c0 42 -24 63 -72 63h-41l9 61h57c75 0 119 -39 119 -107c0 -8 -1 -21 -4 -40c-1 -13 -9 -63 -23 -150c-4 -25 -6 -44 -6 -56
c0 -45 21 -70 62 -74l-9 -58c-36 -4 -60 -19 -75 -48c-13 -28 -17 -48 -24 -88l-24 -152c-13 -88 -73 -139 -160 -139z" />
    <glyph glyph-name="asciitilde" unicode="~" horiz-adv-x="571" 
d="M434 200c-28 0 -66 8 -113 25s-85 25 -113 25c-44 0 -82 -15 -113 -44l11 70c24 25 61 38 112 38c28 0 66 -8 113 -25s85 -25 113 -25c44 0 81 14 112 43l-11 -69c-22 -25 -59 -38 -111 -38z" />
    <glyph glyph-name="nbspace" unicode="&#xa0;" horiz-adv-x="264" 
 />
    <glyph glyph-name="exclamdown" unicode="&#xa1;" horiz-adv-x="285" 
d="M150 269h67l-60 -469h-95zM261 438c0 -29 -23 -53 -52 -53s-52 24 -52 53c0 28 23 51 52 51s52 -23 52 -51z" />
    <glyph glyph-name="cent" unicode="&#xa2;" horiz-adv-x="520" 
d="M329 -12l-15 -105h-63l17 112c-55 12 -99 39 -131 80s-48 90 -48 145c0 75 24 138 73 189s111 80 185 85l17 107h62l-17 -108c45 -5 85 -18 119 -40l-11 -66c-41 29 -88 43 -141 43c-61 0 -111 -20 -152 -59s-61 -88 -61 -147c0 -51 17 -92 52 -124
c35 -31 79 -47 134 -47c47 0 92 12 135 36l-11 -69c-41 -21 -87 -32 -139 -32h-5z" />
    <glyph glyph-name="sterling" unicode="&#xa3;" horiz-adv-x="589" 
d="M473 643c-107 0 -175 -59 -192 -168l-19 -113h275l-11 -67h-274l-28 -168c-5 -29 -16 -49 -32 -60h348l-11 -67h-469l10 67h20c15 0 27 5 37 16c20 21 23 41 30 80l21 132h-72l10 67h72l22 130c23 141 119 220 262 220c65 0 117 -15 157 -44l-11 -71
c-38 31 -86 46 -145 46z" />
    <glyph glyph-name="currency" unicode="&#xa4;" horiz-adv-x="562" 
d="M542 351c0 -47 -13 -88 -40 -124l65 -65l-41 -39l-66 64c-35 -28 -76 -42 -123 -42c-45 0 -86 14 -123 42l-65 -64l-40 39l64 65c-27 36 -40 77 -40 124s13 88 40 123l-64 65l40 40l65 -64c37 28 78 42 123 42c47 0 88 -14 123 -42l66 64l41 -40l-66 -65
c27 -35 41 -76 41 -123zM235 248c28 -28 62 -42 102 -42s74 14 102 42c28 29 42 63 42 103s-14 74 -42 102c-28 29 -62 43 -102 43s-74 -14 -102 -43c-27 -28 -41 -62 -41 -102s14 -74 41 -103z" />
    <glyph glyph-name="yen" unicode="&#xa5;" horiz-adv-x="629" 
d="M346 0h-74l23 141h-209l10 63h209l14 93h-209l10 63h184l-175 340h83l158 -312l256 312h86l-283 -340h184l-10 -63h-210l-14 -93h210l-10 -63h-210z" />
    <glyph glyph-name="brokenbar" unicode="&#xa6;" horiz-adv-x="306" 
d="M166 -111h-62l56 353h62zM248 407h-62l56 353h62z" />
    <glyph glyph-name="section" unicode="&#xa7;" horiz-adv-x="645" 
d="M412 643c-23 0 -46 -2 -68 -7c-21 -4 -42 -13 -61 -27s-28 -32 -28 -55c0 -27 13 -47 52 -67c20 -10 37 -18 50 -23l68 -24c129 -45 197 -92 197 -172c0 -77 -56 -132 -136 -157c41 -29 62 -64 62 -104c0 -37 -12 -69 -37 -94c-49 -52 -120 -69 -201 -69
c-87 0 -161 20 -222 61l10 73c67 -43 140 -65 219 -65c23 0 46 2 67 7c44 8 90 37 90 82c0 27 -13 47 -53 67c-19 10 -36 17 -49 22s-36 14 -68 25c-129 45 -197 92 -197 172c0 77 56 132 136 157c-41 29 -62 64 -62 104c0 37 12 69 37 94c49 52 120 69 201 69
c87 0 161 -20 222 -61l-10 -73c-67 43 -140 65 -219 65zM380 383l-79 28c-29 -3 -57 -15 -84 -36s-40 -46 -40 -76c0 -31 18 -56 59 -79c21 -11 38 -19 52 -25c14 -5 34 -13 61 -22l79 -28c29 3 57 15 84 36s40 46 40 76c0 31 -18 57 -59 78c-21 11 -38 20 -52 25
c-14 6 -34 14 -61 23z" />
    <glyph glyph-name="dieresis" unicode="&#xa8;" horiz-adv-x="524" 
d="M228 612c-17 19 -17 50 0 67c19 19 50 19 67 0c19 -17 19 -48 0 -67c-17 -17 -48 -17 -67 0zM428 612c-17 19 -17 50 0 67c19 19 50 19 67 0c19 -17 19 -48 0 -67c-17 -17 -48 -17 -67 0z" />
    <glyph glyph-name="copyright" unicode="&#xa9;" horiz-adv-x="867" 
d="M488 15c93 0 172 33 237 98s97 144 97 237s-32 172 -97 237c-64 65 -143 98 -236 98s-171 -33 -236 -99c-65 -65 -97 -144 -97 -237s32 -172 96 -237c65 -65 143 -97 236 -97zM127 351c0 99 35 184 106 255s156 106 256 106c101 0 186 -35 256 -106
c71 -71 106 -156 106 -257c0 -99 -35 -184 -106 -255s-156 -106 -257 -106s-186 35 -256 106s-105 156 -105 257zM512 155c-55 0 -102 19 -140 56c-38 38 -57 84 -57 139s19 101 56 138c38 37 85 56 141 56c39 0 72 -8 101 -25v-57c-30 19 -64 29 -101 29
c-39 0 -71 -13 -98 -40c-26 -27 -39 -60 -39 -101s13 -74 39 -101c27 -27 60 -40 100 -40c41 0 78 12 109 36v-58c-31 -21 -68 -32 -111 -32z" />
    <glyph glyph-name="ordfeminine" unicode="&#xaa;" horiz-adv-x="522" 
d="M418 430l8 49c-35 25 -78 37 -127 37c-63 0 -111 -26 -111 -78c0 -45 39 -70 98 -70c52 0 104 30 132 62zM503 371c8 0 15 1 20 4l-7 -45c-9 -5 -21 -7 -35 -7c-36 0 -64 16 -65 55c-42 -41 -91 -61 -148 -61c-80 0 -136 47 -136 115c0 42 16 74 47 97s69 34 112 34
c50 0 97 -13 142 -40c5 35 8 54 8 56c0 50 -36 75 -108 75c-49 0 -92 -10 -129 -29l9 52c37 19 81 28 132 28c85 0 151 -37 151 -118c0 -7 -2 -23 -6 -49l-16 -105l-3 -30c0 -21 11 -32 32 -32z" />
    <glyph glyph-name="guillemotleft" unicode="&#xab;" horiz-adv-x="569" 
d="M266 40h-73l-122 183l6 37l178 183h78l-197 -206zM498 40h-73l-122 183l6 37l178 183h78l-197 -206z" />
    <glyph glyph-name="logicalnot" unicode="&#xac;" horiz-adv-x="554" 
d="M515 152h-66l27 171h-362l10 66h428z" />
    <glyph glyph-name="uni00AD" unicode="&#xad;" horiz-adv-x="473" 
d="M414 239h-280l10 66h281z" />
    <glyph glyph-name="registered" unicode="&#xae;" horiz-adv-x="863" 
d="M404 168h-57v375h171c77 0 124 -42 124 -106c0 -52 -31 -90 -83 -102l119 -167h-65l-115 162h-94v-162zM404 494v-117h112c43 0 68 21 68 58c0 39 -23 59 -68 59h-112zM484 15c93 0 172 33 237 98s97 144 97 237s-32 172 -97 237c-64 65 -143 98 -236 98
s-171 -33 -236 -99c-65 -65 -97 -144 -97 -237s32 -172 96 -237c65 -65 143 -97 236 -97zM123 351c0 99 35 184 106 255s156 106 256 106c101 0 186 -35 256 -106c71 -71 106 -156 106 -257c0 -99 -35 -184 -106 -255s-156 -106 -257 -106s-186 35 -256 106
s-105 156 -105 257z" />
    <glyph glyph-name="overscore" unicode="&#xaf;" horiz-adv-x="518" 
d="M496 618h-262l8 55h262z" />
    <glyph glyph-name="degree" unicode="&#xb0;" horiz-adv-x="424" 
d="M201 560c0 -55 44 -100 99 -100s99 45 99 100c0 56 -44 101 -99 101s-99 -45 -99 -101zM192 667c31 30 67 45 108 45s77 -15 107 -45c31 -30 46 -66 46 -107s-15 -77 -46 -107c-30 -29 -66 -44 -107 -44s-77 15 -108 44c-30 30 -45 66 -45 107s15 77 45 107z" />
    <glyph glyph-name="plusminus" unicode="&#xb1;" horiz-adv-x="605" 
d="M365 194h-65l27 169h-207l11 66h207l27 172h65l-27 -172h207l-11 -66h-207zM550 54h-479l10 65h479z" />
    <glyph glyph-name="twosuperior" unicode="&#xb2;" horiz-adv-x="351" 
d="M140 606l10 64c32 23 69 35 111 35c73 0 125 -43 125 -110c0 -51 -33 -92 -101 -147l-91 -73h179l-9 -53h-270l8 45l135 109c60 47 85 76 85 111c0 37 -29 62 -72 62c-35 0 -72 -14 -110 -43z" />
    <glyph glyph-name="threesuperior" unicode="&#xb3;" horiz-adv-x="327" 
d="M387 700l-7 -46l-114 -97c53 -8 97 -44 97 -103c0 -42 -15 -75 -46 -100s-69 -37 -114 -37c-53 0 -94 11 -123 32l10 59c27 -24 64 -36 110 -36c53 0 101 31 101 80c0 39 -35 63 -84 63c-17 0 -32 -2 -45 -6l6 41l117 96h-156l8 54h240z" />
    <glyph glyph-name="acute" unicode="&#xb4;" horiz-adv-x="496" 
d="M277 576l103 134h90l-123 -134h-70z" />
    <glyph glyph-name="mu" unicode="&#xb5;" horiz-adv-x="614" 
d="M50 -200l32 200l77 483h72l-41 -254c-5 -28 -7 -49 -7 -63c0 -72 47 -110 120 -110c35 0 70 10 103 29c33 20 59 42 78 67l52 331h72l-77 -483h-72l12 70c-56 -55 -121 -82 -195 -82c-49 0 -88 13 -118 40l-36 -228h-72z" />
    <glyph glyph-name="paragraph" unicode="&#xb6;" horiz-adv-x="525" 
d="M379 700h158l-110 -700h-74l50 316h-84c-124 0 -195 67 -195 164c0 67 24 121 73 160c49 40 109 60 182 60z" />
    <glyph glyph-name="middot" unicode="&#xb7;" horiz-adv-x="236" 
d="M141 344c-20 20 -20 54 0 74s54 20 74 0s20 -54 0 -74s-54 -20 -74 0z" />
    <glyph glyph-name="cedilla" unicode="&#xb8;" horiz-adv-x="482" 
d="M236 6h59l-84 -138h-85z" />
    <glyph glyph-name="onesuperior" unicode="&#xb9;" horiz-adv-x="252" 
d="M241 322h-63l50 312l-112 -59l9 64l115 61h60z" />
    <glyph glyph-name="ordmasculine" unicode="&#xba;" horiz-adv-x="458" 
d="M317 705c56 0 102 -18 137 -53c36 -35 54 -78 54 -130c0 -56 -20 -104 -60 -145c-39 -40 -89 -60 -148 -60c-56 0 -102 18 -137 53s-53 79 -53 131c0 55 20 103 59 143c40 41 89 61 148 61zM300 370c41 0 75 15 103 45c29 30 43 66 43 109c0 73 -53 126 -129 126
c-40 0 -74 -15 -103 -45c-29 -29 -43 -65 -43 -107c0 -73 54 -128 129 -128z" />
    <glyph glyph-name="guillemotright" unicode="&#xbb;" horiz-adv-x="569" 
d="M372 443h73l122 -183l-6 -37l-178 -183h-78l197 206zM140 443h73l123 -183l-6 -37l-179 -183h-78l198 206z" />
    <glyph glyph-name="onequarter" unicode="&#xbc;" horiz-adv-x="748" 
d="M116 0l522 700h71l-522 -700h-71zM242 322h-63l50 312l-112 -59l9 64l115 61h60zM668 0h-61l16 98h-198l8 45l234 235h61l-36 -229h59l-9 -51h-58zM655 302l-154 -153h130z" />
    <glyph glyph-name="onehalf" unicode="&#xbd;" horiz-adv-x="808" 
d="M116 0l522 700h71l-522 -700h-71zM242 322h-63l50 312l-112 -59l9 64l115 61h60zM547 284l10 64c32 23 69 35 111 35c73 0 125 -43 125 -110c0 -51 -33 -92 -101 -147l-91 -73h179l-9 -53h-270l8 45l135 109c60 47 85 76 85 111c0 37 -29 62 -72 62
c-35 0 -72 -14 -110 -43z" />
    <glyph glyph-name="threequarters" unicode="&#xbe;" horiz-adv-x="792" 
d="M712 0h-61l16 98h-198l8 45l234 235h61l-36 -229h59l-9 -51h-58zM699 302l-154 -153h130zM387 700l-7 -46l-114 -97c53 -8 97 -44 97 -103c0 -42 -15 -75 -46 -100s-69 -37 -114 -37c-53 0 -94 11 -123 32l10 59c27 -24 64 -36 110 -36c53 0 101 31 101 80
c0 39 -35 63 -84 63c-17 0 -32 -2 -45 -6l6 41l117 96h-156l8 54h240zM160 0l522 700h71l-522 -700h-71z" />
    <glyph glyph-name="questiondown" unicode="&#xbf;" horiz-adv-x="476" 
d="M273 269h69l-21 -133c-32 -5 -63 -14 -92 -27c-29 -12 -56 -30 -79 -55c-23 -24 -34 -51 -34 -81c0 -67 55 -112 143 -112c55 0 113 19 173 56l-11 -71c-51 -33 -110 -50 -178 -50c-57 0 -105 16 -144 47s-58 72 -58 123c0 55 20 99 61 133c41 35 93 60 156 77zM296 400
c-20 20 -20 54 0 74s54 20 74 0s20 -54 0 -74s-54 -20 -74 0z" />
    <glyph glyph-name="Agrave" unicode="&#xc0;" horiz-adv-x="753" 
d="M724 0h-76l-55 193h-368l-115 -193h-80l423 704h69zM575 258l-99 353l-212 -353h311zM348 896h90l89 -133h-68z" />
    <glyph glyph-name="Aacute" unicode="&#xc1;" horiz-adv-x="753" 
d="M724 0h-76l-55 193h-368l-115 -193h-80l423 704h69zM575 258l-99 353l-212 -353h311zM464 763l102 133h91l-124 -133h-69z" />
    <glyph glyph-name="Acircumflex" unicode="&#xc2;" horiz-adv-x="753" 
d="M724 0h-76l-55 193h-368l-115 -193h-80l423 704h69zM575 258l-99 353l-212 -353h311zM482 896h72l89 -133h-68l-61 91l-91 -91h-74z" />
    <glyph glyph-name="Atilde" unicode="&#xc3;" horiz-adv-x="753" 
d="M724 0h-76l-55 193h-368l-115 -193h-80l423 704h69zM575 258l-99 353l-212 -353h311zM568 772c-19 0 -43 10 -71 29c-27 19 -47 29 -59 29c-24 0 -40 -18 -48 -53h-49c11 64 51 109 103 109c19 0 43 -10 70 -29s47 -28 59 -28c28 0 40 19 49 52h49
c-11 -63 -51 -109 -103 -109z" />
    <glyph glyph-name="Adieresis" unicode="&#xc4;" horiz-adv-x="753" 
d="M724 0h-76l-55 193h-368l-115 -193h-80l423 704h69zM575 258l-99 353l-212 -353h311zM372 794c-19 19 -19 50 0 67c19 19 47 19 66 0c19 -17 19 -48 0 -67c-19 -17 -47 -17 -66 0zM572 794c-19 19 -19 50 0 67c19 19 47 19 66 0c19 -17 19 -48 0 -67
c-19 -17 -47 -17 -66 0z" />
    <glyph glyph-name="Aring" unicode="&#xc5;" horiz-adv-x="753" 
d="M724 0h-76l-55 193h-368l-115 -193h-80l423 704h69zM575 258l-99 353l-212 -353h311zM502 926c52 0 95 -43 95 -96s-43 -96 -95 -96c-53 0 -97 43 -97 96s44 96 97 96zM502 774c31 0 55 25 55 56c0 32 -24 56 -55 56c-32 0 -57 -24 -57 -56c0 -31 25 -56 57 -56z" />
    <glyph glyph-name="AE" unicode="&#xc6;" horiz-adv-x="1032" 
d="M991 67l-11 -67h-490l30 193h-284l-149 -193h-83l539 700h534l-11 -67h-404l-36 -224h332l-11 -67h-331l-44 -275h419zM590 633h-15l-289 -375h245z" />
    <glyph glyph-name="Ccedilla" unicode="&#xc7;" horiz-adv-x="690" 
d="M198 322c0 -76 24 -139 73 -190c49 -50 113 -75 192 -75c77 0 146 22 207 65l-11 -78c-56 -36 -122 -55 -199 -56l-73 -120h-85l98 124c-84 12 -151 48 -202 107c-50 60 -75 133 -75 219c0 110 36 203 107 279c72 77 164 115 276 115c82 0 152 -19 211 -58l-12 -71
c-58 40 -125 60 -200 60c-87 0 -160 -31 -219 -92s-88 -138 -88 -229z" />
    <glyph glyph-name="Egrave" unicode="&#xc8;" horiz-adv-x="645" 
d="M594 0h-495l111 700h480l-11 -67h-406l-35 -224h333l-11 -67h-333l-43 -275h421zM333 896h90l89 -133h-68z" />
    <glyph glyph-name="Eacute" unicode="&#xc9;" horiz-adv-x="645" 
d="M594 0h-495l111 700h480l-11 -67h-406l-35 -224h333l-11 -67h-333l-43 -275h421zM411 763l102 133h91l-124 -133h-69z" />
    <glyph glyph-name="Ecircumflex" unicode="&#xca;" horiz-adv-x="645" 
d="M594 0h-495l111 700h480l-11 -67h-406l-35 -224h333l-11 -67h-333l-43 -275h421zM445 896h72l89 -133h-68l-61 91l-91 -91h-74z" />
    <glyph glyph-name="Edieresis" unicode="&#xcb;" horiz-adv-x="645" 
d="M594 0h-495l111 700h480l-11 -67h-406l-35 -224h333l-11 -67h-333l-43 -275h421zM328 794c-19 19 -19 50 0 67c19 19 47 19 66 0c19 -17 19 -48 0 -67c-19 -17 -47 -17 -66 0zM528 794c-19 19 -19 50 0 67c19 19 47 19 66 0c19 -17 19 -48 0 -67c-19 -17 -47 -17 -66 0z
" />
    <glyph glyph-name="Igrave" unicode="&#xcc;" horiz-adv-x="281" 
d="M178 0h-74l111 700h74zM117 896h90l89 -133h-68z" />
    <glyph glyph-name="Iacute" unicode="&#xcd;" horiz-adv-x="281" 
d="M178 0h-74l111 700h74zM229 763l102 133h91l-124 -133h-69z" />
    <glyph glyph-name="Icircumflex" unicode="&#xce;" horiz-adv-x="281" 
d="M246 896h72l89 -133h-68l-61 91l-91 -91h-74zM178 0h-74l111 700h74z" />
    <glyph glyph-name="Idieresis" unicode="&#xcf;" horiz-adv-x="281" 
d="M178 0h-74l111 700h74zM136 794c-19 19 -19 50 0 67c19 19 47 19 66 0c19 -17 19 -48 0 -67c-19 -17 -47 -17 -66 0zM336 794c-19 19 -19 50 0 67c19 19 47 19 66 0c19 -17 19 -48 0 -67c-19 -17 -47 -17 -66 0z" />
    <glyph glyph-name="Eth" unicode="&#xd0;" horiz-adv-x="810" 
d="M240 700h208c105 0 188 -29 251 -87c63 -57 95 -133 95 -227c0 -120 -42 -214 -125 -283s-191 -103 -324 -103h-216l51 325h-109l10 65h110zM214 67h167c99 0 180 29 243 87s94 135 94 231c0 74 -25 134 -74 179c-49 46 -117 69 -203 69h-138l-39 -243h164l-10 -65h-164z
" />
    <glyph glyph-name="Ntilde" unicode="&#xd1;" horiz-adv-x="775" 
d="M677 0h-63l-353 580l-90 -580h-72l111 700h62l352 -578l92 578h72zM584 772c-19 0 -43 10 -71 29c-27 19 -47 29 -59 29c-24 0 -40 -18 -48 -53h-49c11 64 51 109 103 109c19 0 43 -10 70 -29s47 -28 59 -28c28 0 40 19 49 52h49c-11 -63 -51 -109 -103 -109z" />
    <glyph glyph-name="Ograve" unicode="&#xd2;" horiz-adv-x="845" 
d="M498 712c99 0 179 -31 240 -94c61 -62 91 -141 91 -238c0 -108 -36 -200 -108 -277c-71 -77 -160 -115 -267 -115c-99 0 -179 31 -240 94s-91 142 -91 239c0 108 36 200 107 276c72 77 161 115 268 115zM456 57c83 0 154 31 211 93c58 62 87 138 87 229
c0 75 -24 138 -71 188c-47 51 -110 76 -187 76c-83 0 -154 -31 -212 -93c-57 -61 -86 -137 -86 -228c0 -76 24 -139 71 -190c47 -50 110 -75 187 -75zM404 896h90l89 -133h-68z" />
    <glyph glyph-name="Oacute" unicode="&#xd3;" horiz-adv-x="845" 
d="M498 712c99 0 179 -31 240 -94c61 -62 91 -141 91 -238c0 -108 -36 -200 -108 -277c-71 -77 -160 -115 -267 -115c-99 0 -179 31 -240 94s-91 142 -91 239c0 108 36 200 107 276c72 77 161 115 268 115zM456 57c83 0 154 31 211 93c58 62 87 138 87 229
c0 75 -24 138 -71 188c-47 51 -110 76 -187 76c-83 0 -154 -31 -212 -93c-57 -61 -86 -137 -86 -228c0 -76 24 -139 71 -190c47 -50 110 -75 187 -75zM497 763l102 133h91l-124 -133h-69z" />
    <glyph glyph-name="Ocircumflex" unicode="&#xd4;" horiz-adv-x="845" 
d="M521 896h72l89 -133h-68l-61 91l-91 -91h-74zM498 712c99 0 179 -31 240 -94c61 -62 91 -141 91 -238c0 -108 -36 -200 -108 -277c-71 -77 -160 -115 -267 -115c-99 0 -179 31 -240 94s-91 142 -91 239c0 108 36 200 107 276c72 77 161 115 268 115zM456 57
c83 0 154 31 211 93c58 62 87 138 87 229c0 75 -24 138 -71 188c-47 51 -110 76 -187 76c-83 0 -154 -31 -212 -93c-57 -61 -86 -137 -86 -228c0 -76 24 -139 71 -190c47 -50 110 -75 187 -75z" />
    <glyph glyph-name="Otilde" unicode="&#xd5;" horiz-adv-x="845" 
d="M498 712c99 0 179 -31 240 -94c61 -62 91 -141 91 -238c0 -108 -36 -200 -108 -277c-71 -77 -160 -115 -267 -115c-99 0 -179 31 -240 94s-91 142 -91 239c0 108 36 200 107 276c72 77 161 115 268 115zM456 57c83 0 154 31 211 93c58 62 87 138 87 229
c0 75 -24 138 -71 188c-47 51 -110 76 -187 76c-83 0 -154 -31 -212 -93c-57 -61 -86 -137 -86 -228c0 -76 24 -139 71 -190c47 -50 110 -75 187 -75zM607 772c-19 0 -43 10 -71 29c-27 19 -47 29 -59 29c-24 0 -40 -18 -48 -53h-49c11 64 51 109 103 109
c19 0 43 -10 70 -29s47 -28 59 -28c28 0 40 19 49 52h49c-11 -63 -51 -109 -103 -109z" />
    <glyph glyph-name="Odieresis" unicode="&#xd6;" horiz-adv-x="845" 
d="M498 712c99 0 179 -31 240 -94c61 -62 91 -141 91 -238c0 -108 -36 -200 -108 -277c-71 -77 -160 -115 -267 -115c-99 0 -179 31 -240 94s-91 142 -91 239c0 108 36 200 107 276c72 77 161 115 268 115zM456 57c83 0 154 31 211 93c58 62 87 138 87 229
c0 75 -24 138 -71 188c-47 51 -110 76 -187 76c-83 0 -154 -31 -212 -93c-57 -61 -86 -137 -86 -228c0 -76 24 -139 71 -190c47 -50 110 -75 187 -75zM406 794c-19 19 -19 50 0 67c19 19 47 19 66 0c19 -17 19 -48 0 -67c-19 -17 -47 -17 -66 0zM606 794c-19 19 -19 50 0 67
c19 19 47 19 66 0c19 -17 19 -48 0 -67c-19 -17 -47 -17 -66 0z" />
    <glyph glyph-name="multiply" unicode="&#xd7;" horiz-adv-x="536" 
d="M325 371l181 156l41 -48l-181 -157l131 -155l-50 -45l-131 156l-182 -156l-41 49l181 155l-132 157l51 44z" />
    <glyph glyph-name="Oslash" unicode="&#xd8;" horiz-adv-x="845" 
d="M498 712c89 0 163 -26 222 -77l64 65h77l-103 -105c47 -60 71 -132 71 -215c0 -108 -36 -200 -108 -277c-71 -77 -160 -115 -267 -115c-88 0 -162 25 -221 76l-63 -64h-78l103 104c-48 61 -72 133 -72 217c0 108 36 200 107 276c72 77 161 115 268 115zM198 322
c0 -63 17 -117 50 -164l419 424c-46 41 -103 61 -171 61c-83 0 -154 -31 -212 -93c-57 -61 -86 -137 -86 -228zM456 57c83 0 154 31 211 93c58 62 87 138 87 229c0 62 -17 116 -50 162l-419 -424c46 -40 103 -60 171 -60z" />
    <glyph glyph-name="Ugrave" unicode="&#xd9;" horiz-adv-x="746" 
d="M632 306l62 394h74l-66 -415c-31 -193 -152 -297 -316 -297c-156 0 -257 91 -257 248c0 19 2 43 7 73l62 391h73l-62 -394c-4 -23 -6 -44 -6 -62c0 -119 69 -187 189 -187c129 0 215 86 240 249zM366 896h90l89 -133h-68z" />
    <glyph glyph-name="Uacute" unicode="&#xda;" horiz-adv-x="746" 
d="M632 306l62 394h74l-66 -415c-31 -193 -152 -297 -316 -297c-156 0 -257 91 -257 248c0 19 2 43 7 73l62 391h73l-62 -394c-4 -23 -6 -44 -6 -62c0 -119 69 -187 189 -187c129 0 215 86 240 249zM446 763l102 133h91l-124 -133h-69z" />
    <glyph glyph-name="Ucircumflex" unicode="&#xdb;" horiz-adv-x="746" 
d="M632 306l62 394h74l-66 -415c-31 -193 -152 -297 -316 -297c-156 0 -257 91 -257 248c0 19 2 43 7 73l62 391h73l-62 -394c-4 -23 -6 -44 -6 -62c0 -119 69 -187 189 -187c129 0 215 86 240 249zM478 896h72l89 -133h-68l-61 91l-91 -91h-74z" />
    <glyph glyph-name="Udieresis" unicode="&#xdc;" horiz-adv-x="746" 
d="M632 306l62 394h74l-66 -415c-31 -193 -152 -297 -316 -297c-156 0 -257 91 -257 248c0 19 2 43 7 73l62 391h73l-62 -394c-4 -23 -6 -44 -6 -62c0 -119 69 -187 189 -187c129 0 215 86 240 249zM368 794c-17 19 -17 50 0 67c19 19 50 19 67 0c19 -17 19 -48 0 -67
c-17 -17 -48 -17 -67 0zM568 794c-17 19 -17 50 0 67c19 19 50 19 67 0c19 -17 19 -48 0 -67c-17 -17 -48 -17 -67 0z" />
    <glyph glyph-name="Yacute" unicode="&#xdd;" horiz-adv-x="664" 
d="M388 390l270 310h89l-330 -378l-51 -322h-74l50 321l-213 379h82zM408 763l102 133h91l-124 -133h-69z" />
    <glyph glyph-name="Thorn" unicode="&#xde;" horiz-adv-x="665" 
d="M99 0l111 700h73l-25 -156h210c129 0 205 -68 205 -172c0 -65 -23 -117 -70 -158s-105 -61 -176 -61h-230l-24 -153h-74zM208 220h223c45 0 84 12 117 37s50 61 50 106c0 72 -49 114 -138 114h-212z" />
    <glyph glyph-name="germandbls" unicode="&#xdf;" horiz-adv-x="614" 
d="M364 -12c-44 0 -80 6 -107 19l11 67c25 -14 56 -21 93 -21c45 0 85 15 118 45s50 69 50 116c0 81 -63 139 -166 144l-22 1l8 54h33c79 1 141 46 141 122c0 61 -49 108 -129 108c-81 0 -145 -53 -160 -145l-79 -498h-72l78 501c20 131 115 207 239 207
c57 0 104 -15 141 -46s55 -69 55 -116c0 -76 -47 -138 -127 -163c75 -20 132 -83 132 -171c0 -65 -23 -119 -68 -161s-101 -63 -169 -63z" />
    <glyph glyph-name="agrave" unicode="&#xe0;" horiz-adv-x="596" 
d="M549 57c10 0 19 2 27 6l-9 -58c-15 -7 -30 -10 -46 -10c-47 0 -84 23 -85 72c-53 -53 -117 -79 -193 -79c-52 0 -95 14 -128 42s-49 64 -49 109c0 55 20 96 60 125c41 29 90 44 147 44c67 0 129 -17 186 -51c6 39 9 64 9 73c0 67 -46 100 -139 100
c-64 0 -121 -13 -170 -39l12 68c45 24 103 36 173 36c55 0 102 -13 140 -38s57 -63 57 -116c0 -17 -3 -42 -9 -77l-20 -125c-3 -19 -4 -32 -4 -40c0 -28 14 -42 41 -42zM267 53c68 0 136 38 172 81l10 65c-47 33 -102 50 -165 50c-83 0 -147 -36 -147 -103
c0 -61 51 -93 130 -93zM280 710h90l90 -134h-69z" />
    <glyph glyph-name="aacute" unicode="&#xe1;" horiz-adv-x="596" 
d="M549 57c10 0 19 2 27 6l-9 -58c-15 -7 -30 -10 -46 -10c-47 0 -84 23 -85 72c-53 -53 -117 -79 -193 -79c-52 0 -95 14 -128 42s-49 64 -49 109c0 55 20 96 60 125c41 29 90 44 147 44c67 0 129 -17 186 -51c6 39 9 64 9 73c0 67 -46 100 -139 100
c-64 0 -121 -13 -170 -39l12 68c45 24 103 36 173 36c55 0 102 -13 140 -38s57 -63 57 -116c0 -17 -3 -42 -9 -77l-20 -125c-3 -19 -4 -32 -4 -40c0 -28 14 -42 41 -42zM267 53c68 0 136 38 172 81l10 65c-47 33 -102 50 -165 50c-83 0 -147 -36 -147 -103
c0 -61 51 -93 130 -93zM333 576l103 134h90l-123 -134h-70z" />
    <glyph glyph-name="acircumflex" unicode="&#xe2;" horiz-adv-x="596" 
d="M549 57c10 0 19 2 27 6l-9 -58c-15 -7 -30 -10 -46 -10c-47 0 -84 23 -85 72c-53 -53 -117 -79 -193 -79c-52 0 -95 14 -128 42s-49 64 -49 109c0 55 20 96 60 125c41 29 90 44 147 44c67 0 129 -17 186 -51c6 39 9 64 9 73c0 67 -46 100 -139 100
c-64 0 -121 -13 -170 -39l12 68c45 24 103 36 173 36c55 0 102 -13 140 -38s57 -63 57 -116c0 -17 -3 -42 -9 -77l-20 -125c-3 -19 -4 -32 -4 -40c0 -28 14 -42 41 -42zM267 53c68 0 136 38 172 81l10 65c-47 33 -102 50 -165 50c-83 0 -147 -36 -147 -103
c0 -61 51 -93 130 -93zM360 710h73l89 -134h-68l-62 91l-91 -91h-73z" />
    <glyph glyph-name="atilde" unicode="&#xe3;" horiz-adv-x="596" 
d="M549 57c10 0 19 2 27 6l-9 -58c-15 -7 -30 -10 -46 -10c-47 0 -84 23 -85 72c-53 -53 -117 -79 -193 -79c-52 0 -95 14 -128 42s-49 64 -49 109c0 55 20 96 60 125c41 29 90 44 147 44c67 0 129 -17 186 -51c6 39 9 64 9 73c0 67 -46 100 -139 100
c-64 0 -121 -13 -170 -39l12 68c45 24 103 36 173 36c55 0 102 -13 140 -38s57 -63 57 -116c0 -17 -3 -42 -9 -77l-20 -125c-3 -19 -4 -32 -4 -40c0 -28 14 -42 41 -42zM267 53c68 0 136 38 172 81l10 65c-47 33 -102 50 -165 50c-83 0 -147 -36 -147 -103
c0 -61 51 -93 130 -93zM453 589c-19 0 -43 10 -71 29c-27 19 -47 29 -59 29c-23 0 -39 -18 -48 -53h-49c11 64 51 109 103 109c19 0 43 -10 70 -29c28 -19 48 -28 60 -28c27 0 38 19 49 52h49c-11 -63 -52 -109 -104 -109z" />
    <glyph glyph-name="adieresis" unicode="&#xe4;" horiz-adv-x="596" 
d="M549 57c10 0 19 2 27 6l-9 -58c-15 -7 -30 -10 -46 -10c-47 0 -84 23 -85 72c-53 -53 -117 -79 -193 -79c-52 0 -95 14 -128 42s-49 64 -49 109c0 55 20 96 60 125c41 29 90 44 147 44c67 0 129 -17 186 -51c6 39 9 64 9 73c0 67 -46 100 -139 100
c-64 0 -121 -13 -170 -39l12 68c45 24 103 36 173 36c55 0 102 -13 140 -38s57 -63 57 -116c0 -17 -3 -42 -9 -77l-20 -125c-3 -19 -4 -32 -4 -40c0 -28 14 -42 41 -42zM267 53c68 0 136 38 172 81l10 65c-47 33 -102 50 -165 50c-83 0 -147 -36 -147 -103
c0 -61 51 -93 130 -93zM252 612c-17 19 -17 50 0 67c19 19 50 19 67 0c19 -17 19 -48 0 -67c-17 -17 -48 -17 -67 0zM452 612c-17 19 -17 50 0 67c19 19 50 19 67 0c19 -17 19 -48 0 -67c-17 -17 -48 -17 -67 0z" />
    <glyph glyph-name="aring" unicode="&#xe5;" horiz-adv-x="596" 
d="M549 57c10 0 19 2 27 6l-9 -58c-15 -7 -30 -10 -46 -10c-47 0 -84 23 -85 72c-53 -53 -117 -79 -193 -79c-52 0 -95 14 -128 42s-49 64 -49 109c0 55 20 96 60 125c41 29 90 44 147 44c67 0 129 -17 186 -51c6 39 9 64 9 73c0 67 -46 100 -139 100
c-64 0 -121 -13 -170 -39l12 68c45 24 103 36 173 36c55 0 102 -13 140 -38s57 -63 57 -116c0 -17 -3 -42 -9 -77l-20 -125c-3 -19 -4 -32 -4 -40c0 -28 14 -42 41 -42zM267 53c68 0 136 38 172 81l10 65c-47 33 -102 50 -165 50c-83 0 -147 -36 -147 -103
c0 -61 51 -93 130 -93zM328 698c37 37 99 37 136 0s37 -99 0 -136s-99 -37 -136 0s-37 99 0 136zM452 630c0 32 -25 56 -56 56s-56 -24 -56 -56c0 -31 25 -56 56 -56s56 25 56 56z" />
    <glyph glyph-name="ae" unicode="&#xe6;" horiz-adv-x="941" 
d="M922 224h-399c0 -112 77 -171 190 -171c53 0 104 14 151 43l-9 -68c-40 -27 -92 -40 -155 -40c-92 0 -170 39 -213 106c-56 -60 -144 -106 -243 -106c-105 0 -178 60 -178 149c0 55 20 97 60 126c41 29 90 44 147 44c66 0 128 -17 185 -51c7 35 10 60 10 74
c0 72 -49 100 -145 100c-61 0 -116 -13 -164 -39l12 68c43 24 101 36 174 36c79 0 148 -29 179 -89c51 59 116 89 193 89c67 0 119 -21 155 -63c37 -41 55 -90 55 -146c0 -27 -2 -48 -5 -62zM267 53c41 0 80 9 115 28s62 41 81 64c-5 15 -8 32 -10 52
c-47 34 -103 51 -169 51c-83 0 -147 -36 -147 -104c0 -60 53 -91 130 -91zM529 283h327c0 4 1 10 1 13c0 73 -52 134 -144 134c-46 0 -86 -14 -120 -41c-33 -27 -55 -63 -64 -106z" />
    <glyph glyph-name="ccedilla" unicode="&#xe7;" horiz-adv-x="520" 
d="M345 -12l-73 -120h-85l98 124c-60 9 -108 35 -143 77s-53 92 -53 151c0 79 27 144 81 196c54 53 120 79 199 79c62 0 115 -14 159 -42l-11 -66c-41 29 -88 43 -141 43c-61 0 -111 -20 -152 -59s-61 -88 -61 -147c0 -51 17 -92 52 -124c35 -31 79 -47 134 -47
c47 0 92 12 135 36l-11 -69c-37 -19 -80 -30 -128 -32z" />
    <glyph glyph-name="egrave" unicode="&#xe8;" horiz-adv-x="579" 
d="M351 53c52 0 102 14 151 43l-9 -68c-40 -27 -92 -40 -156 -40c-72 0 -131 21 -178 63c-47 43 -70 98 -70 167c0 75 25 140 75 195s113 82 190 82c67 0 119 -21 156 -63c37 -41 55 -90 55 -146c0 -23 -2 -43 -5 -62h-399c0 -111 78 -171 190 -171zM350 430
c-45 0 -85 -14 -119 -41c-33 -27 -55 -63 -64 -106h327c1 5 1 10 1 15c0 35 -13 66 -38 92c-25 27 -61 40 -107 40zM269 710h90l90 -134h-69z" />
    <glyph glyph-name="eacute" unicode="&#xe9;" horiz-adv-x="579" 
d="M351 53c52 0 102 14 151 43l-9 -68c-40 -27 -92 -40 -156 -40c-72 0 -131 21 -178 63c-47 43 -70 98 -70 167c0 75 25 140 75 195s113 82 190 82c67 0 119 -21 156 -63c37 -41 55 -90 55 -146c0 -23 -2 -43 -5 -62h-399c0 -111 78 -171 190 -171zM350 430
c-45 0 -85 -14 -119 -41c-33 -27 -55 -63 -64 -106h327c1 5 1 10 1 15c0 35 -13 66 -38 92c-25 27 -61 40 -107 40zM333 576l103 134h90l-123 -134h-70z" />
    <glyph glyph-name="ecircumflex" unicode="&#xea;" horiz-adv-x="579" 
d="M351 53c52 0 102 14 151 43l-9 -68c-40 -27 -92 -40 -156 -40c-72 0 -131 21 -178 63c-47 43 -70 98 -70 167c0 75 25 140 75 195s113 82 190 82c67 0 119 -21 156 -63c37 -41 55 -90 55 -146c0 -23 -2 -43 -5 -62h-399c0 -111 78 -171 190 -171zM350 430
c-45 0 -85 -14 -119 -41c-33 -27 -55 -63 -64 -106h327c1 5 1 10 1 15c0 35 -13 66 -38 92c-25 27 -61 40 -107 40zM368 710h73l89 -134h-68l-62 91l-91 -91h-73z" />
    <glyph glyph-name="edieresis" unicode="&#xeb;" horiz-adv-x="579" 
d="M351 53c52 0 102 14 151 43l-9 -68c-40 -27 -92 -40 -156 -40c-72 0 -131 21 -178 63c-47 43 -70 98 -70 167c0 75 25 140 75 195s113 82 190 82c67 0 119 -21 156 -63c37 -41 55 -90 55 -146c0 -23 -2 -43 -5 -62h-399c0 -111 78 -171 190 -171zM350 430
c-45 0 -85 -14 -119 -41c-33 -27 -55 -63 -64 -106h327c1 5 1 10 1 15c0 35 -13 66 -38 92c-25 27 -61 40 -107 40zM258 612c-17 19 -17 50 0 67c19 19 50 19 67 0c19 -17 19 -48 0 -67c-17 -17 -48 -17 -67 0zM458 612c-17 19 -17 50 0 67c19 19 50 19 67 0
c19 -17 19 -48 0 -67c-17 -17 -48 -17 -67 0z" />
    <glyph glyph-name="igrave" unicode="&#xec;" horiz-adv-x="260" 
d="M169 0h-73l77 483h73zM79 710h90l90 -134h-69z" />
    <glyph glyph-name="iacute" unicode="&#xed;" horiz-adv-x="260" 
d="M191 577l103 133h90l-123 -133h-70zM169 0h-73l77 483h73z" />
    <glyph glyph-name="icircumflex" unicode="&#xee;" horiz-adv-x="264" 
d="M205 710h73l89 -134h-68l-62 91l-91 -91h-73zM169 0h-73l77 483h73z" />
    <glyph glyph-name="idieresis" unicode="&#xef;" horiz-adv-x="264" 
d="M100 612c-19 19 -19 50 0 67c19 19 47 19 66 0c19 -17 19 -48 0 -67c-19 -17 -47 -17 -66 0zM300 612c-19 19 -19 50 0 67c19 19 47 19 66 0c19 -17 19 -48 0 -67c-19 -17 -47 -17 -66 0zM169 0h-73l77 483h73z" />
    <glyph glyph-name="eth" unicode="&#xf0;" horiz-adv-x="601" 
d="M326 53c52 0 96 18 131 54c36 36 54 81 54 134c0 47 -15 85 -45 116s-69 47 -118 47c-51 0 -95 -19 -132 -56c-36 -37 -54 -82 -54 -135c0 -95 64 -160 164 -160zM527 649l-120 -46l116 -190c41 -69 60 -113 60 -168c0 -71 -25 -131 -74 -182c-49 -50 -110 -75 -185 -75
c-69 0 -126 21 -170 63c-43 43 -65 96 -65 159c0 69 24 127 72 176s107 74 178 74c35 0 69 -9 102 -27l-94 150l-142 -55l-27 44l141 53l-47 75h75l33 -53l121 46z" />
    <glyph glyph-name="ntilde" unicode="&#xf1;" horiz-adv-x="614" 
d="M573 255l-41 -255h-72l41 254c5 28 7 49 7 63c0 72 -47 110 -120 110c-35 0 -70 -10 -103 -30c-33 -19 -59 -41 -78 -66l-52 -331h-72l77 483h72l-12 -70c56 55 121 82 195 82c100 0 167 -63 167 -160c0 -19 -3 -45 -9 -80zM482 589c-19 0 -43 10 -71 29
c-27 19 -47 29 -59 29c-23 0 -39 -18 -48 -53h-49c11 64 51 109 103 109c19 0 43 -10 70 -29c28 -19 48 -28 60 -28c27 0 38 19 49 52h49c-11 -63 -52 -109 -104 -109z" />
    <glyph glyph-name="ograve" unicode="&#xf2;" horiz-adv-x="621" 
d="M358 495c73 0 132 -23 177 -69c45 -45 68 -102 68 -169c0 -74 -26 -137 -77 -190s-115 -79 -192 -79c-73 0 -133 23 -178 68c-45 46 -67 103 -67 170c0 74 26 137 77 190s115 79 192 79zM334 53c55 0 102 20 141 59c39 40 59 89 59 147c0 50 -16 91 -49 123
s-75 48 -127 48c-55 0 -103 -20 -142 -60c-39 -39 -58 -88 -58 -146c0 -50 16 -91 49 -123s75 -48 127 -48zM283 710h90l90 -134h-69z" />
    <glyph glyph-name="oacute" unicode="&#xf3;" horiz-adv-x="621" 
d="M358 495c73 0 132 -23 177 -69c45 -45 68 -102 68 -169c0 -74 -26 -137 -77 -190s-115 -79 -192 -79c-73 0 -133 23 -178 68c-45 46 -67 103 -67 170c0 74 26 137 77 190s115 79 192 79zM334 53c55 0 102 20 141 59c39 40 59 89 59 147c0 50 -16 91 -49 123
s-75 48 -127 48c-55 0 -103 -20 -142 -60c-39 -39 -58 -88 -58 -146c0 -50 16 -91 49 -123s75 -48 127 -48zM339 576l103 134h90l-123 -134h-70z" />
    <glyph glyph-name="ocircumflex" unicode="&#xf4;" horiz-adv-x="621" 
d="M378 710h73l89 -134h-68l-62 91l-91 -91h-73zM358 495c73 0 132 -23 177 -69c45 -45 68 -102 68 -169c0 -74 -26 -137 -77 -190s-115 -79 -192 -79c-73 0 -133 23 -178 68c-45 46 -67 103 -67 170c0 74 26 137 77 190s115 79 192 79zM334 53c55 0 102 20 141 59
c39 40 59 89 59 147c0 50 -16 91 -49 123s-75 48 -127 48c-55 0 -103 -20 -142 -60c-39 -39 -58 -88 -58 -146c0 -50 16 -91 49 -123s75 -48 127 -48z" />
    <glyph glyph-name="otilde" unicode="&#xf5;" horiz-adv-x="621" 
d="M358 495c73 0 132 -23 177 -69c45 -45 68 -102 68 -169c0 -74 -26 -137 -77 -190s-115 -79 -192 -79c-73 0 -133 23 -178 68c-45 46 -67 103 -67 170c0 74 26 137 77 190s115 79 192 79zM334 53c55 0 102 20 141 59c39 40 59 89 59 147c0 50 -16 91 -49 123
s-75 48 -127 48c-55 0 -103 -20 -142 -60c-39 -39 -58 -88 -58 -146c0 -50 16 -91 49 -123s75 -48 127 -48zM473 589c-19 0 -43 10 -71 29c-27 19 -47 29 -59 29c-23 0 -39 -18 -48 -53h-49c11 64 51 109 103 109c19 0 43 -10 70 -29c28 -19 48 -28 60 -28c27 0 38 19 49 52
h49c-11 -63 -52 -109 -104 -109z" />
    <glyph glyph-name="odieresis" unicode="&#xf6;" horiz-adv-x="621" 
d="M358 495c73 0 132 -23 177 -69c45 -45 68 -102 68 -169c0 -74 -26 -137 -77 -190s-115 -79 -192 -79c-73 0 -133 23 -178 68c-45 46 -67 103 -67 170c0 74 26 137 77 190s115 79 192 79zM334 53c55 0 102 20 141 59c39 40 59 89 59 147c0 50 -16 91 -49 123
s-75 48 -127 48c-55 0 -103 -20 -142 -60c-39 -39 -58 -88 -58 -146c0 -50 16 -91 49 -123s75 -48 127 -48zM272 612c-19 19 -19 50 0 67c19 19 47 19 66 0c19 -17 19 -48 0 -67c-19 -17 -47 -17 -66 0zM472 612c-19 19 -19 50 0 67c19 19 47 19 66 0c19 -17 19 -48 0 -67
c-19 -17 -47 -17 -66 0z" />
    <glyph glyph-name="divide" unicode="&#xf7;" horiz-adv-x="582" 
d="M245 122c0 31 24 54 53 54s53 -23 53 -54c0 -29 -24 -53 -53 -53s-53 24 -53 53zM372 583c29 0 54 -23 54 -54s-25 -54 -54 -54c-31 0 -53 23 -53 54s22 54 53 54zM561 292h-455l10 67h455z" />
    <glyph glyph-name="oslash" unicode="&#xf8;" horiz-adv-x="621" 
d="M358 495c62 0 115 -17 158 -51l39 39h70l-74 -74c35 -44 52 -95 52 -152c0 -74 -26 -137 -77 -190s-115 -79 -192 -79c-61 0 -113 16 -155 49l-37 -37h-71l71 71c-35 43 -53 95 -53 155c0 74 26 137 77 190s115 79 192 79zM158 224c0 -41 11 -76 32 -105l278 277
c-33 23 -69 34 -110 34c-55 0 -103 -20 -142 -60c-39 -39 -58 -88 -58 -146zM334 53c55 0 102 20 141 59c39 40 59 89 59 147c0 39 -10 73 -31 102l-277 -277c30 -21 66 -31 108 -31z" />
    <glyph glyph-name="ugrave" unicode="&#xf9;" horiz-adv-x="610" 
d="M114 228l41 255h72l-41 -254c-5 -28 -7 -49 -7 -63c0 -72 47 -110 120 -110c35 0 70 10 103 29c33 20 59 42 78 67l52 331h72l-77 -483h-72l12 70c-56 -55 -121 -82 -195 -82c-100 0 -167 63 -167 160c0 19 3 45 9 80zM280 710h90l90 -134h-69z" />
    <glyph glyph-name="uacute" unicode="&#xfa;" horiz-adv-x="610" 
d="M114 228l41 255h72l-41 -254c-5 -28 -7 -49 -7 -63c0 -72 47 -110 120 -110c35 0 70 10 103 29c33 20 59 42 78 67l52 331h72l-77 -483h-72l12 70c-56 -55 -121 -82 -195 -82c-100 0 -167 63 -167 160c0 19 3 45 9 80zM340 576l103 134h90l-123 -134h-70z" />
    <glyph glyph-name="ucircumflex" unicode="&#xfb;" horiz-adv-x="610" 
d="M114 228l41 255h72l-41 -254c-5 -28 -7 -49 -7 -63c0 -72 47 -110 120 -110c35 0 70 10 103 29c33 20 59 42 78 67l52 331h72l-77 -483h-72l12 70c-56 -55 -121 -82 -195 -82c-100 0 -167 63 -167 160c0 19 3 45 9 80zM376 710h73l89 -134h-68l-62 91l-91 -91h-73z" />
    <glyph glyph-name="udieresis" unicode="&#xfc;" horiz-adv-x="610" 
d="M114 228l41 255h72l-41 -254c-5 -28 -7 -49 -7 -63c0 -72 47 -110 120 -110c35 0 70 10 103 29c33 20 59 42 78 67l52 331h72l-77 -483h-72l12 70c-56 -55 -121 -82 -195 -82c-100 0 -167 63 -167 160c0 19 3 45 9 80zM266 612c-19 19 -19 50 0 67c19 19 47 19 66 0
c19 -17 19 -48 0 -67c-19 -17 -47 -17 -66 0zM466 612c-19 19 -19 50 0 67c19 19 47 19 66 0c19 -17 19 -48 0 -67c-19 -17 -47 -17 -66 0z" />
    <glyph glyph-name="yacute" unicode="&#xfd;" horiz-adv-x="555" 
d="M515 483h80l-314 -543c-56 -97 -116 -144 -197 -144c-27 0 -52 6 -73 17l11 65c19 -11 40 -17 62 -17c63 0 105 47 169 158l-153 464h75l123 -383zM322 576l103 134h90l-123 -134h-70z" />
    <glyph glyph-name="thorn" unicode="&#xfe;" horiz-adv-x="642" 
d="M406 495c66 0 119 -22 158 -66c40 -44 60 -98 60 -162c0 -77 -25 -143 -74 -198c-49 -54 -113 -81 -190 -81c-87 0 -155 44 -192 97l-46 -285h-72l143 900h73l-47 -285c47 53 110 80 187 80zM351 53c55 0 102 20 141 59c39 40 58 89 58 148c0 100 -67 170 -167 170
c-34 0 -68 -10 -102 -29c-33 -19 -58 -42 -75 -70l-27 -174c12 -27 34 -51 66 -72s67 -32 106 -32z" />
    <glyph glyph-name="ydieresis" unicode="&#xff;" horiz-adv-x="555" 
d="M515 483h80l-314 -543c-56 -97 -116 -144 -197 -144c-27 0 -52 6 -73 17l11 65c19 -11 40 -17 62 -17c63 0 105 47 169 158l-153 464h75l123 -383zM228 612c-17 19 -17 50 0 67c19 19 50 19 67 0c19 -17 19 -48 0 -67c-17 -17 -48 -17 -67 0zM428 612c-17 19 -17 50 0 67
c19 19 50 19 67 0c19 -17 19 -48 0 -67c-17 -17 -48 -17 -67 0z" />
    <glyph glyph-name="Amacron" unicode="&#x100;" horiz-adv-x="753" 
d="M724 0h-76l-55 193h-368l-115 -193h-80l423 704h69zM575 258l-99 353l-212 -353h311zM636 802h-262l8 55h262z" />
    <glyph glyph-name="amacron" unicode="&#x101;" horiz-adv-x="596" 
d="M549 57c10 0 19 2 27 6l-9 -58c-15 -7 -30 -10 -46 -10c-47 0 -84 23 -85 72c-53 -53 -117 -79 -193 -79c-52 0 -95 14 -128 42s-49 64 -49 109c0 55 20 96 60 125c41 29 90 44 147 44c67 0 129 -17 186 -51c6 39 9 64 9 73c0 67 -46 100 -139 100
c-64 0 -121 -13 -170 -39l12 68c45 24 103 36 173 36c55 0 102 -13 140 -38s57 -63 57 -116c0 -17 -3 -42 -9 -77l-20 -125c-3 -19 -4 -32 -4 -40c0 -28 14 -42 41 -42zM267 53c68 0 136 38 172 81l10 65c-47 33 -102 50 -165 50c-83 0 -147 -36 -147 -103
c0 -61 51 -93 130 -93zM525 618h-262l8 55h262z" />
    <glyph glyph-name="Abreve" unicode="&#x102;" horiz-adv-x="753" 
d="M724 0h-76l-55 193h-368l-115 -193h-80l423 704h69zM575 258l-99 353l-212 -353h311zM602 896h51c-13 -80 -73 -135 -150 -135c-72 0 -124 47 -124 115c0 9 0 15 1 20h51c-1 -3 -1 -7 -1 -12c0 -45 28 -76 76 -76c49 0 87 37 96 88z" />
    <glyph glyph-name="abreve" unicode="&#x103;" horiz-adv-x="596" 
d="M549 57c10 0 19 2 27 6l-9 -58c-15 -7 -30 -10 -46 -10c-47 0 -84 23 -85 72c-53 -53 -117 -79 -193 -79c-52 0 -95 14 -128 42s-49 64 -49 109c0 55 20 96 60 125c41 29 90 44 147 44c67 0 129 -17 186 -51c6 39 9 64 9 73c0 67 -46 100 -139 100
c-64 0 -121 -13 -170 -39l12 68c45 24 103 36 173 36c55 0 102 -13 140 -38s57 -63 57 -116c0 -17 -3 -42 -9 -77l-20 -125c-3 -19 -4 -32 -4 -40c0 -28 14 -42 41 -42zM267 53c68 0 136 38 172 81l10 65c-47 33 -102 50 -165 50c-83 0 -147 -36 -147 -103
c0 -61 51 -93 130 -93zM485 710h55c-13 -81 -74 -138 -153 -138c-75 0 -128 48 -128 119c0 8 0 14 1 19h54c-1 -5 -1 -11 -1 -16c0 -43 28 -71 76 -71c51 0 87 36 96 87z" />
    <glyph glyph-name="Aogonek" unicode="&#x104;" horiz-adv-x="753" 
d="M453 704h69l202 -704c-34 -33 -51 -64 -51 -94c0 -33 22 -54 61 -54c13 0 27 2 40 6l-7 -46c-17 -5 -35 -7 -52 -7c-61 0 -98 36 -98 85c0 39 19 76 56 110h-25l-55 193h-368l-115 -193h-80zM575 258l-99 353l-212 -353h311z" />
    <glyph glyph-name="aogonek" unicode="&#x105;" horiz-adv-x="596" 
d="M549 57c10 0 19 2 27 6l-9 -58c-34 -33 -51 -64 -51 -94c0 -33 22 -54 61 -54c14 0 27 2 40 6l-7 -46c-17 -5 -35 -7 -52 -7c-61 0 -98 36 -98 85c0 37 15 70 46 101c-40 4 -69 27 -70 71c-53 -53 -117 -79 -193 -79c-52 0 -95 14 -128 42s-49 64 -49 109
c0 55 20 96 60 125c41 29 90 44 147 44c67 0 129 -17 186 -51c6 39 9 64 9 73c0 67 -46 100 -139 100c-64 0 -121 -13 -170 -39l12 68c45 24 103 36 173 36c55 0 102 -13 140 -38s57 -63 57 -116c0 -17 -3 -42 -9 -77l-20 -125c-3 -19 -4 -32 -4 -40c0 -28 14 -42 41 -42z
M267 53c68 0 136 38 172 81l10 65c-47 33 -102 50 -165 50c-83 0 -147 -36 -147 -103c0 -61 51 -93 130 -93z" />
    <glyph glyph-name="Cacute" unicode="&#x106;" horiz-adv-x="690" 
d="M198 322c0 -76 24 -139 73 -190c49 -50 113 -75 192 -75c77 0 146 22 207 65l-11 -78c-59 -37 -126 -56 -202 -56c-99 0 -180 31 -242 93c-61 63 -92 142 -92 237c0 110 36 203 107 279c72 77 164 115 276 115c82 0 152 -19 211 -58l-12 -71c-58 40 -125 60 -200 60
c-87 0 -160 -31 -219 -92s-88 -138 -88 -229zM488 763l102 133h91l-124 -133h-69z" />
    <glyph glyph-name="cacute" unicode="&#x107;" horiz-adv-x="523" 
d="M334 -12c-74 0 -133 22 -178 66c-45 45 -67 100 -67 166c0 79 27 144 81 196c54 53 120 79 199 79c62 0 115 -14 159 -42l-11 -66c-41 29 -88 43 -141 43c-61 0 -111 -20 -152 -59s-61 -88 -61 -147c0 -51 17 -92 52 -124c35 -31 79 -47 134 -47c47 0 92 12 135 36
l-11 -69c-41 -21 -87 -32 -139 -32zM341 576l103 134h90l-123 -134h-70z" />
    <glyph glyph-name="Ccircumflex" unicode="&#x108;" horiz-adv-x="690" 
d="M509 896h72l89 -133h-68l-61 91l-91 -91h-74zM198 322c0 -76 24 -139 73 -190c49 -50 113 -75 192 -75c77 0 146 22 207 65l-11 -78c-59 -37 -126 -56 -202 -56c-99 0 -180 31 -242 93c-61 63 -92 142 -92 237c0 110 36 203 107 279c72 77 164 115 276 115
c82 0 152 -19 211 -58l-12 -71c-58 40 -125 60 -200 60c-87 0 -160 -31 -219 -92s-88 -138 -88 -229z" />
    <glyph glyph-name="ccircumflex" unicode="&#x109;" horiz-adv-x="523" 
d="M360 710h73l89 -134h-68l-62 91l-91 -91h-73zM334 -12c-74 0 -133 22 -178 66c-45 45 -67 100 -67 166c0 79 27 144 81 196c54 53 120 79 199 79c62 0 115 -14 159 -42l-11 -66c-41 29 -88 43 -141 43c-61 0 -111 -20 -152 -59s-61 -88 -61 -147c0 -51 17 -92 52 -124
c35 -31 79 -47 134 -47c47 0 92 12 135 36l-11 -69c-41 -21 -87 -32 -139 -32z" />
    <glyph glyph-name="Cdotaccent" unicode="&#x10a;" horiz-adv-x="690" 
d="M198 322c0 -76 24 -139 73 -190c49 -50 113 -75 192 -75c77 0 146 22 207 65l-11 -78c-59 -37 -126 -56 -202 -56c-99 0 -180 31 -242 93c-61 63 -92 142 -92 237c0 110 36 203 107 279c72 77 164 115 276 115c82 0 152 -19 211 -58l-12 -71c-58 40 -125 60 -200 60
c-87 0 -160 -31 -219 -92s-88 -138 -88 -229zM508 794c-19 19 -19 50 0 67c19 19 47 19 66 0c19 -17 19 -48 0 -67c-19 -17 -47 -17 -66 0z" />
    <glyph glyph-name="cdotaccent" unicode="&#x10b;" horiz-adv-x="520" 
d="M334 -12c-74 0 -133 22 -178 66c-45 45 -67 100 -67 166c0 79 27 144 81 196c54 53 120 79 199 79c62 0 115 -14 159 -42l-11 -66c-41 29 -88 43 -141 43c-61 0 -111 -20 -152 -59s-61 -88 -61 -147c0 -51 17 -92 52 -124c35 -31 79 -47 134 -47c47 0 92 12 135 36
l-11 -69c-41 -21 -87 -32 -139 -32zM370 612c-17 19 -17 50 0 67c19 19 50 19 67 0c19 -17 19 -48 0 -67c-17 -17 -48 -17 -67 0z" />
    <glyph glyph-name="Ccaron" unicode="&#x10c;" horiz-adv-x="690" 
d="M567 763h-72l-89 133h68l61 -90l92 90h73zM198 322c0 -76 24 -139 73 -190c49 -50 113 -75 192 -75c77 0 146 22 207 65l-11 -78c-59 -37 -126 -56 -202 -56c-99 0 -180 31 -242 93c-61 63 -92 142 -92 237c0 110 36 203 107 279c72 77 164 115 276 115
c82 0 152 -19 211 -58l-12 -71c-58 40 -125 60 -200 60c-87 0 -160 -31 -219 -92s-88 -138 -88 -229z" />
    <glyph glyph-name="ccaron" unicode="&#x10d;" horiz-adv-x="523" 
d="M421 576h-73l-89 134h68l62 -91l91 91h73zM334 -12c-74 0 -133 22 -178 66c-45 45 -67 100 -67 166c0 79 27 144 81 196c54 53 120 79 199 79c62 0 115 -14 159 -42l-11 -66c-41 29 -88 43 -141 43c-61 0 -111 -20 -152 -59s-61 -88 -61 -147c0 -51 17 -92 52 -124
c35 -31 79 -47 134 -47c47 0 92 12 135 36l-11 -69c-41 -21 -87 -32 -139 -32z" />
    <glyph glyph-name="Dcaron" unicode="&#x10e;" horiz-adv-x="780" 
d="M210 700h208c105 0 188 -29 251 -87c63 -57 95 -133 95 -227c0 -120 -42 -214 -125 -283s-191 -103 -324 -103h-216zM184 67h167c99 0 180 29 243 87s94 135 94 231c0 74 -25 134 -74 179c-49 46 -117 69 -203 69h-138zM497 763h-72l-89 133h68l61 -90l92 90h73z" />
    <glyph glyph-name="dcaron" unicode="&#x10f;" horiz-adv-x="759" 
d="M307 -12c-67 0 -120 22 -159 65c-39 44 -59 98 -59 163c0 77 25 143 74 197c49 55 113 82 190 82c88 0 155 -43 191 -96l49 301h72l-110 -700h-73l11 69c-47 -54 -109 -81 -186 -81zM362 430c-55 0 -102 -20 -141 -60c-39 -39 -58 -88 -58 -147c0 -49 15 -90 45 -122
c31 -32 71 -48 121 -48c34 0 68 10 102 29c34 20 59 44 75 72l27 174c-11 27 -33 50 -65 71c-31 21 -67 31 -106 31zM857 700l-80 -177h-57l72 177h65z" />
    <glyph glyph-name="Dcroat" unicode="&#x110;" horiz-adv-x="810" 
d="M240 700h208c105 0 188 -29 251 -87c63 -57 95 -133 95 -227c0 -120 -42 -214 -125 -283s-191 -103 -324 -103h-216l51 325h-109l10 65h110zM214 67h167c99 0 180 29 243 87s94 135 94 231c0 74 -25 134 -74 179c-49 46 -117 69 -203 69h-138l-39 -243h164l-10 -65h-164z
" />
    <glyph glyph-name="dslash" unicode="&#x111;" 
d="M569 557h-142l10 63h143l13 80h72l-13 -80h108l-10 -63h-108l-87 -557h-73l11 69c-47 -54 -109 -81 -186 -81c-67 0 -120 22 -159 65c-39 44 -59 98 -59 163c0 77 25 143 74 197c49 55 113 82 190 82c88 0 155 -43 191 -96zM362 430c-55 0 -102 -20 -141 -60
c-39 -39 -58 -88 -58 -147c0 -49 15 -90 45 -122c31 -32 71 -48 121 -48c34 0 68 10 102 29c34 20 59 44 75 72l27 174c-11 27 -33 50 -65 71c-31 21 -67 31 -106 31z" />
    <glyph glyph-name="Emacron" unicode="&#x112;" horiz-adv-x="645" 
d="M594 0h-495l111 700h480l-11 -67h-406l-35 -224h333l-11 -67h-333l-43 -275h421zM598 802h-262l8 55h262z" />
    <glyph glyph-name="emacron" unicode="&#x113;" horiz-adv-x="579" 
d="M351 53c52 0 102 14 151 43l-9 -68c-40 -27 -92 -40 -156 -40c-72 0 -131 21 -178 63c-47 43 -70 98 -70 167c0 75 25 140 75 195s113 82 190 82c67 0 119 -21 156 -63c37 -41 55 -90 55 -146c0 -23 -2 -43 -5 -62h-399c0 -111 78 -171 190 -171zM350 430
c-45 0 -85 -14 -119 -41c-33 -27 -55 -63 -64 -106h327c1 5 1 10 1 15c0 35 -13 66 -38 92c-25 27 -61 40 -107 40zM526 618h-262l8 55h262z" />
    <glyph glyph-name="Ebreve" unicode="&#x114;" horiz-adv-x="645" 
d="M594 0h-495l111 700h480l-11 -67h-406l-35 -224h333l-11 -67h-333l-43 -275h421zM557 896h51c-13 -80 -73 -135 -150 -135c-72 0 -124 47 -124 115c0 9 0 15 1 20h51c-1 -3 -1 -7 -1 -12c0 -45 28 -76 76 -76c49 0 87 37 96 88z" />
    <glyph glyph-name="ebreve" unicode="&#x115;" horiz-adv-x="579" 
d="M351 53c52 0 102 14 151 43l-9 -68c-40 -27 -92 -40 -156 -40c-72 0 -131 21 -178 63c-47 43 -70 98 -70 167c0 75 25 140 75 195s113 82 190 82c67 0 119 -21 156 -63c37 -41 55 -90 55 -146c0 -23 -2 -43 -5 -62h-399c0 -111 78 -171 190 -171zM350 430
c-45 0 -85 -14 -119 -41c-33 -27 -55 -63 -64 -106h327c1 5 1 10 1 15c0 35 -13 66 -38 92c-25 27 -61 40 -107 40zM482 710h55c-13 -81 -74 -138 -153 -138c-75 0 -128 48 -128 119c0 8 0 14 1 19h54c-1 -5 -1 -11 -1 -16c0 -43 28 -71 76 -71c51 0 87 36 96 87z" />
    <glyph glyph-name="Edotaccent" unicode="&#x116;" horiz-adv-x="645" 
d="M594 0h-495l111 700h480l-11 -67h-406l-35 -224h333l-11 -67h-333l-43 -275h421zM434 794c-19 19 -19 50 0 67c19 19 47 19 66 0c19 -17 19 -48 0 -67c-19 -17 -47 -17 -66 0z" />
    <glyph glyph-name="edotaccent" unicode="&#x117;" horiz-adv-x="579" 
d="M351 53c52 0 102 14 151 43l-9 -68c-40 -27 -92 -40 -156 -40c-72 0 -131 21 -178 63c-47 43 -70 98 -70 167c0 75 25 140 75 195s113 82 190 82c67 0 119 -21 156 -63c37 -41 55 -90 55 -146c0 -23 -2 -43 -5 -62h-399c0 -111 78 -171 190 -171zM350 430
c-45 0 -85 -14 -119 -41c-33 -27 -55 -63 -64 -106h327c1 5 1 10 1 15c0 35 -13 66 -38 92c-25 27 -61 40 -107 40zM364 612c-19 19 -19 50 0 67c19 19 47 19 66 0c19 -17 19 -48 0 -67c-19 -17 -47 -17 -66 0z" />
    <glyph glyph-name="Eogonek" unicode="&#x118;" horiz-adv-x="645" 
d="M543 0h-444l111 700h480l-11 -67h-406l-35 -224h333l-11 -67h-333l-43 -275h421l-11 -67c-34 -33 -51 -64 -51 -94c0 -33 22 -54 61 -54c13 0 27 2 40 6l-7 -46c-17 -5 -35 -7 -52 -7c-61 0 -98 36 -98 85c0 39 19 76 56 110z" />
    <glyph glyph-name="eogonek" unicode="&#x119;" horiz-adv-x="579" 
d="M351 53c52 0 102 14 151 43l-9 -68c-34 -33 -51 -64 -51 -94c0 -33 22 -54 61 -54c14 0 27 2 40 6l-7 -46c-17 -5 -35 -7 -52 -7c-61 0 -98 36 -98 85c0 27 9 53 27 78c-25 -5 -50 -8 -76 -8c-72 0 -131 21 -178 63c-47 43 -70 98 -70 167c0 75 25 140 75 195
s113 82 190 82c67 0 119 -21 156 -63c37 -41 55 -90 55 -146c0 -23 -2 -43 -5 -62h-399c0 -111 78 -171 190 -171zM350 430c-45 0 -85 -14 -119 -41c-33 -27 -55 -63 -64 -106h327c1 5 1 10 1 15c0 35 -13 66 -38 92c-25 27 -61 40 -107 40z" />
    <glyph glyph-name="Ecaron" unicode="&#x11a;" horiz-adv-x="645" 
d="M594 0h-495l111 700h480l-11 -67h-406l-35 -224h333l-11 -67h-333l-43 -275h421zM493 763h-72l-89 133h68l61 -90l92 90h73z" />
    <glyph glyph-name="ecaron" unicode="&#x11b;" horiz-adv-x="579" 
d="M351 53c52 0 102 14 151 43l-9 -68c-40 -27 -92 -40 -156 -40c-72 0 -131 21 -178 63c-47 43 -70 98 -70 167c0 75 25 140 75 195s113 82 190 82c67 0 119 -21 156 -63c37 -41 55 -90 55 -146c0 -23 -2 -43 -5 -62h-399c0 -111 78 -171 190 -171zM350 430
c-45 0 -85 -14 -119 -41c-33 -27 -55 -63 -64 -106h327c1 5 1 10 1 15c0 35 -13 66 -38 92c-25 27 -61 40 -107 40zM418 576h-73l-89 134h68l62 -91l91 91h73z" />
    <glyph glyph-name="Gcircumflex" unicode="&#x11c;" horiz-adv-x="779" 
d="M644 125l46 277h73l-50 -312c-73 -68 -160 -102 -261 -102c-97 0 -177 31 -238 93s-91 141 -91 237c0 110 36 203 107 279c72 77 164 115 276 115c94 0 171 -24 231 -73l-12 -72c-59 51 -133 76 -220 76s-160 -31 -219 -93c-59 -61 -88 -138 -88 -229
c0 -77 24 -141 73 -190s112 -74 189 -74c70 0 131 23 184 68zM511 896h72l89 -133h-68l-61 91l-91 -91h-74z" />
    <glyph glyph-name="gcircumflex" unicode="&#x11d;" horiz-adv-x="636" 
d="M544 400l14 83h72l-74 -464c-24 -149 -121 -223 -290 -223c-71 0 -147 21 -190 46l11 69c52 -33 113 -50 183 -50c125 0 197 55 215 166l8 48c-47 -53 -108 -79 -185 -79c-67 0 -120 22 -160 65c-40 44 -60 98 -60 161c0 74 25 138 74 192c50 54 113 81 190 81
c88 0 157 -43 192 -95zM507 160l26 169c-12 27 -34 50 -66 70c-31 21 -67 31 -106 31c-55 0 -102 -19 -141 -58s-58 -87 -58 -144c0 -49 16 -89 48 -120s74 -47 125 -47c65 0 136 43 172 99zM383 710h73l89 -134h-68l-62 91l-91 -91h-73z" />
    <glyph glyph-name="Gbreve" unicode="&#x11e;" horiz-adv-x="779" 
d="M644 125l46 277h73l-50 -312c-73 -68 -160 -102 -261 -102c-97 0 -177 31 -238 93s-91 141 -91 237c0 110 36 203 107 279c72 77 164 115 276 115c94 0 171 -24 231 -73l-12 -72c-59 51 -133 76 -220 76s-160 -31 -219 -93c-59 -61 -88 -138 -88 -229
c0 -77 24 -141 73 -190s112 -74 189 -74c70 0 131 23 184 68zM645 901h51c-13 -80 -73 -135 -150 -135c-72 0 -124 47 -124 115c0 9 0 15 1 20h51c-1 -3 -1 -7 -1 -12c0 -45 28 -76 76 -76c49 0 87 37 96 88z" />
    <glyph glyph-name="gbreve" unicode="&#x11f;" horiz-adv-x="636" 
d="M544 400l14 83h72l-74 -464c-24 -149 -121 -223 -290 -223c-71 0 -147 21 -190 46l11 69c52 -33 113 -50 183 -50c125 0 197 55 215 166l8 48c-47 -53 -108 -79 -185 -79c-67 0 -120 22 -160 65c-40 44 -60 98 -60 161c0 74 25 138 74 192c50 54 113 81 190 81
c88 0 157 -43 192 -95zM507 160l26 169c-12 27 -34 50 -66 70c-31 21 -67 31 -106 31c-55 0 -102 -19 -141 -58s-58 -87 -58 -144c0 -49 16 -89 48 -120s74 -47 125 -47c65 0 136 43 172 99zM497 710h55c-13 -81 -74 -138 -153 -138c-75 0 -128 48 -128 119c0 8 0 14 1 19
h54c-1 -5 -1 -11 -1 -16c0 -43 28 -71 76 -71c51 0 87 36 96 87z" />
    <glyph glyph-name="Gdotaccent" unicode="&#x120;" horiz-adv-x="779" 
d="M644 125l46 277h73l-50 -312c-73 -68 -160 -102 -261 -102c-97 0 -177 31 -238 93s-91 141 -91 237c0 110 36 203 107 279c72 77 164 115 276 115c94 0 171 -24 231 -73l-12 -72c-59 51 -133 76 -220 76s-160 -31 -219 -93c-59 -61 -88 -138 -88 -229
c0 -77 24 -141 73 -190s112 -74 189 -74c70 0 131 23 184 68zM510 794c-19 19 -19 50 0 67c19 19 47 19 66 0c19 -17 19 -48 0 -67c-19 -17 -47 -17 -66 0z" />
    <glyph glyph-name="gdotaccent" unicode="&#x121;" horiz-adv-x="636" 
d="M544 400l14 83h72l-74 -464c-24 -149 -121 -223 -290 -223c-71 0 -147 21 -190 46l11 69c52 -33 113 -50 183 -50c125 0 197 55 215 166l8 48c-47 -53 -108 -79 -185 -79c-67 0 -120 22 -160 65c-40 44 -60 98 -60 161c0 74 25 138 74 192c50 54 113 81 190 81
c88 0 157 -43 192 -95zM507 160l26 169c-12 27 -34 50 -66 70c-31 21 -67 31 -106 31c-55 0 -102 -19 -141 -58s-58 -87 -58 -144c0 -49 16 -89 48 -120s74 -47 125 -47c65 0 136 43 172 99zM390 612c-17 19 -17 50 0 67c19 19 50 19 67 0c19 -17 19 -48 0 -67
c-17 -17 -48 -17 -67 0z" />
    <glyph glyph-name="uni0122" unicode="&#x122;" horiz-adv-x="779" 
d="M644 125l46 277h73l-50 -312c-73 -68 -160 -102 -261 -102c-97 0 -177 31 -238 93s-91 141 -91 237c0 110 36 203 107 279c72 77 164 115 276 115c94 0 171 -24 231 -73l-12 -72c-59 51 -133 76 -220 76s-160 -31 -219 -93c-59 -61 -88 -138 -88 -229
c0 -77 24 -141 73 -190s112 -74 189 -74c70 0 131 23 184 68zM477 -54l-80 -177h-57l72 177h65z" />
    <glyph glyph-name="uni0123" unicode="&#x123;" horiz-adv-x="633" 
d="M544 400l14 83h72l-74 -464c-24 -149 -121 -223 -290 -223c-71 0 -147 21 -190 46l11 69c52 -33 113 -50 183 -50c125 0 197 55 215 166l8 48c-47 -53 -108 -79 -185 -79c-67 0 -120 22 -160 65c-40 44 -60 98 -60 161c0 74 25 138 74 192c50 54 113 81 190 81
c88 0 157 -43 192 -95zM507 160l26 169c-12 27 -34 50 -66 70c-31 21 -67 31 -106 31c-55 0 -102 -19 -141 -58s-58 -87 -58 -144c0 -49 16 -89 48 -120s74 -47 125 -47c65 0 136 43 172 99zM346 558l80 177h57l-72 -177h-65z" />
    <glyph glyph-name="Hcircumflex" unicode="&#x124;" horiz-adv-x="761" 
d="M173 0h-74l111 700h74l-46 -291h416l46 291h74l-111 -700h-74l54 342h-416zM483 896h72l89 -133h-68l-61 91l-91 -91h-74z" />
    <glyph glyph-name="hcircumflex" unicode="&#x125;" horiz-adv-x="610" 
d="M573 255l-41 -255h-72l41 254c5 28 7 49 7 63c0 72 -47 110 -120 110c-35 0 -70 -10 -103 -30c-33 -19 -59 -41 -78 -66l-52 -331h-72l112 700h72l-47 -287c56 55 121 82 195 82c100 0 167 -63 167 -160c0 -19 -3 -45 -9 -80zM225 896h72l89 -133h-68l-61 91l-91 -91h-74
z" />
    <glyph glyph-name="Hbar" unicode="&#x126;" horiz-adv-x="830" 
d="M205 0h-74l85 537h-88l9 53h88l17 110h74l-17 -110h417l17 110h74l-17 -110h88l-9 -53h-88l-85 -537h-74l54 342h-417zM290 537l-20 -128h417l20 128h-417z" />
    <glyph glyph-name="hbar" unicode="&#x127;" horiz-adv-x="629" 
d="M201 557h-103l10 63h103l13 80h72l-13 -80h142l-10 -63h-143l-33 -205c56 55 121 82 195 82c100 0 167 -63 167 -160c0 -19 -3 -45 -9 -80l-31 -194h-72l31 193c5 28 7 49 7 63c0 72 -47 110 -120 110c-35 0 -70 -10 -103 -30c-33 -19 -59 -41 -78 -66l-42 -270h-72z" />
    <glyph glyph-name="Itilde" unicode="&#x128;" horiz-adv-x="281" 
d="M332 772c-19 0 -43 10 -71 29c-27 19 -47 29 -59 29c-24 0 -40 -18 -48 -53h-49c11 64 51 109 103 109c19 0 43 -10 70 -29s47 -28 59 -28c28 0 40 19 49 52h49c-11 -63 -51 -109 -103 -109zM178 0h-74l111 700h74z" />
    <glyph glyph-name="itilde" unicode="&#x129;" horiz-adv-x="253" 
d="M289 589c-19 0 -43 10 -71 29c-27 19 -47 29 -59 29c-23 0 -39 -18 -48 -53h-49c11 64 51 109 103 109c19 0 43 -10 70 -29c28 -19 48 -28 60 -28c27 0 38 19 49 52h49c-11 -63 -52 -109 -104 -109zM169 0h-73l77 483h73z" />
    <glyph glyph-name="Imacron" unicode="&#x12a;" horiz-adv-x="281" 
d="M178 0h-74l111 700h74zM399 802h-262l8 55h262z" />
    <glyph glyph-name="imacron" unicode="&#x12b;" horiz-adv-x="253" 
d="M169 0h-73l77 483h73zM365 618h-262l8 55h262z" />
    <glyph glyph-name="Ibreve" unicode="&#x12c;" horiz-adv-x="281" 
d="M366 896h51c-13 -80 -73 -135 -150 -135c-72 0 -124 47 -124 115c0 9 0 15 1 20h51c-1 -3 -1 -7 -1 -12c0 -45 28 -76 76 -76c49 0 87 37 96 88zM178 0h-74l111 700h74z" />
    <glyph glyph-name="ibreve" unicode="&#x12d;" horiz-adv-x="264" 
d="M322 710h55c-13 -81 -74 -138 -153 -138c-75 0 -128 48 -128 119c0 8 0 14 1 19h54c-1 -5 -1 -11 -1 -16c0 -43 28 -71 76 -71c51 0 87 36 96 87zM169 0h-73l77 483h73z" />
    <glyph glyph-name="Iogonek" unicode="&#x12e;" horiz-adv-x="281" 
d="M127 0h-23l111 700h74l-111 -700c-34 -33 -51 -64 -51 -94c0 -33 22 -54 61 -54c13 0 27 2 40 6l-7 -46c-17 -5 -35 -7 -52 -7c-61 0 -98 36 -98 85c0 39 19 76 56 110z" />
    <glyph glyph-name="iogonek" unicode="&#x12f;" horiz-adv-x="264" 
d="M117 0h-21l77 483h72l-77 -483c-34 -33 -51 -64 -51 -94c0 -33 22 -54 61 -54c13 0 27 2 40 6l-7 -46c-17 -5 -35 -7 -52 -7c-61 0 -98 36 -98 85c0 39 19 76 56 110zM232 700c28 0 50 -22 50 -51s-22 -51 -50 -51c-29 0 -51 22 -51 51s22 51 51 51z" />
    <glyph glyph-name="Idot" unicode="&#x130;" horiz-adv-x="281" 
d="M178 0h-74l111 700h74zM236 794c-19 19 -19 50 0 67c19 19 47 19 66 0c19 -17 19 -48 0 -67c-19 -17 -47 -17 -66 0z" />
    <glyph glyph-name="dotlessi" unicode="&#x131;" horiz-adv-x="264" 
d="M169 0h-73l77 483h73z" />
    <glyph glyph-name="IJ" unicode="&#x132;" horiz-adv-x="597" 
d="M210 254h-74l70 446h74zM265 -12c-67 0 -121 15 -164 46l12 76c43 -35 94 -53 155 -53c114 0 180 59 199 177l74 466h74l-75 -472c-27 -161 -127 -240 -275 -240z" />
    <glyph glyph-name="Jcircumflex" unicode="&#x134;" horiz-adv-x="502" 
d="M480 896h72l89 -133h-68l-61 91l-91 -91h-74zM447 700h74l-78 -497c-23 -143 -106 -215 -250 -215c-66 0 -118 16 -157 49l11 75c35 -37 83 -55 143 -55c107 0 164 48 183 165z" />
    <glyph glyph-name="jcircumflex" unicode="&#x135;" horiz-adv-x="269" 
d="M-5 -204c-35 0 -63 6 -82 18l10 66c21 -13 43 -19 67 -19c57 0 90 32 100 97l83 525h72l-85 -536c-17 -104 -82 -151 -165 -151zM204 710h73l89 -134h-68l-62 91l-91 -91h-73z" />
    <glyph glyph-name="uni0136" unicode="&#x136;" horiz-adv-x="663" 
d="M210 700h74l-49 -304l374 304h98l-399 -328l341 -372h-92l-329 356l-55 -356h-74zM386 -54l-80 -177h-57l72 177h65z" />
    <glyph glyph-name="uni0137" unicode="&#x137;" horiz-adv-x="541" 
d="M194 700h72l-66 -416l257 199h99l-288 -225l248 -258h-92l-231 240l-38 -240h-72zM325 -54l-80 -177h-57l72 177h65z" />
    <glyph glyph-name="kgreenlandic" unicode="&#x138;" horiz-adv-x="541" 
d="M83 0l77 483h72l-32 -199l257 199h99l-288 -225l248 -258h-92l-231 240l-38 -240h-72z" />
    <glyph glyph-name="Lacute" unicode="&#x139;" horiz-adv-x="597" 
d="M564 0h-465l111 700h74l-100 -633h391zM226 763l102 133h91l-124 -133h-69z" />
    <glyph glyph-name="lacute" unicode="&#x13a;" horiz-adv-x="286" 
d="M190 700h72l-89 -563c-3 -20 -5 -34 -5 -42c0 -28 16 -42 49 -42c23 0 42 4 55 13l-11 -64c-19 -9 -43 -14 -72 -14c-63 0 -94 29 -94 87c0 15 2 35 6 60zM207 763l102 133h91l-124 -133h-69z" />
    <glyph glyph-name="uni013B" unicode="&#x13b;" horiz-adv-x="597" 
d="M564 0h-465l111 700h74l-100 -633h391zM374 -54l-80 -177h-57l72 177h65z" />
    <glyph glyph-name="lcommaaccent" unicode="&#x13c;" horiz-adv-x="286" 
d="M190 700h72l-89 -563c-3 -20 -5 -34 -5 -42c0 -28 16 -42 49 -42c23 0 42 4 55 13l-11 -64c-19 -9 -43 -14 -72 -14c-63 0 -94 29 -94 87c0 15 2 35 6 60zM205 -54l-80 -177h-57l72 177h65z" />
    <glyph glyph-name="Lcaron" unicode="&#x13d;" horiz-adv-x="619" 
d="M564 0h-465l111 700h74l-100 -633h391zM677 700l-80 -177h-57l72 177h65z" />
    <glyph glyph-name="lcaron" unicode="&#x13e;" horiz-adv-x="381" 
d="M193 700h72l-89 -563c-3 -20 -5 -34 -5 -42c0 -28 16 -42 49 -42c23 0 42 4 55 13l-11 -64c-19 -9 -43 -14 -72 -14c-63 0 -94 29 -94 87c0 15 2 35 6 60zM479 700l-80 -177h-57l72 177h65z" />
    <glyph glyph-name="Ldot" unicode="&#x13f;" horiz-adv-x="597" 
d="M564 0h-465l111 700h74l-100 -633h391zM535 343c-20 20 -20 54 0 74s54 20 74 0s20 -54 0 -74s-54 -20 -74 0z" />
    <glyph glyph-name="ldot" unicode="&#x140;" horiz-adv-x="399" 
d="M197 700h72l-89 -563c-3 -20 -5 -34 -5 -42c0 -28 16 -42 49 -42c23 0 42 4 55 13l-11 -64c-19 -9 -43 -14 -72 -14c-63 0 -94 29 -94 87c0 15 2 35 6 60zM334 343c-20 20 -20 54 0 74s54 20 74 0s20 -54 0 -74s-54 -20 -74 0z" />
    <glyph glyph-name="Lslash" unicode="&#x141;" horiz-adv-x="610" 
d="M60 266l10 71l105 58l48 305h74l-41 -259l172 96l-11 -71l-172 -96l-48 -303h391l-11 -67h-465l52 325z" />
    <glyph glyph-name="lslash" unicode="&#x142;" horiz-adv-x="372" 
d="M242 700h72l-41 -259l111 63l-11 -71l-111 -62l-36 -234c-3 -22 -5 -36 -5 -42c0 -28 17 -42 51 -42c20 0 37 4 50 13l-9 -64c-21 -9 -45 -14 -72 -14c-62 0 -93 29 -93 88c0 17 2 34 5 53l30 197l-112 -63l11 71l112 62z" />
    <glyph glyph-name="Nacute" unicode="&#x143;" horiz-adv-x="775" 
d="M677 0h-63l-353 580l-90 -580h-72l111 700h62l352 -578l92 578h72zM479 763l102 133h91l-124 -133h-69z" />
    <glyph glyph-name="nacute" unicode="&#x144;" horiz-adv-x="610" 
d="M573 255l-41 -255h-72l41 254c5 28 7 49 7 63c0 72 -47 110 -120 110c-35 0 -70 -10 -103 -30c-33 -19 -59 -41 -78 -66l-52 -331h-72l77 483h72l-12 -70c56 55 121 82 195 82c100 0 167 -63 167 -160c0 -19 -3 -45 -9 -80zM356 576l103 134h90l-123 -134h-70z" />
    <glyph glyph-name="uni0145" unicode="&#x145;" horiz-adv-x="775" 
d="M677 0h-63l-353 580l-90 -580h-72l111 700h62l352 -578l92 578h72zM433 -54l-80 -177h-57l72 177h65z" />
    <glyph glyph-name="uni0146" unicode="&#x146;" horiz-adv-x="610" 
d="M573 255l-41 -255h-72l41 254c5 28 7 49 7 63c0 72 -47 110 -120 110c-35 0 -70 -10 -103 -30c-33 -19 -59 -41 -78 -66l-52 -331h-72l77 483h72l-12 -70c56 55 121 82 195 82c100 0 167 -63 167 -160c0 -19 -3 -45 -9 -80zM341 -54l-80 -177h-57l72 177h65z" />
    <glyph glyph-name="Ncaron" unicode="&#x147;" horiz-adv-x="775" 
d="M677 0h-63l-353 580l-90 -580h-72l111 700h62l352 -578l92 578h72zM536 763h-72l-89 133h68l61 -90l92 90h73z" />
    <glyph glyph-name="ncaron" unicode="&#x148;" horiz-adv-x="617" 
d="M573 255l-41 -255h-72l41 254c5 28 7 49 7 63c0 72 -47 110 -120 110c-35 0 -70 -10 -103 -30c-33 -19 -59 -41 -78 -66l-52 -331h-72l77 483h72l-12 -70c56 55 121 82 195 82c100 0 167 -63 167 -160c0 -19 -3 -45 -9 -80zM457 576h-73l-89 134h68l62 -91l91 91h73z" />
    <glyph glyph-name="napostrophe" unicode="&#x149;" horiz-adv-x="682" 
d="M645 255l-41 -255h-72l41 254c5 28 7 49 7 63c0 72 -47 110 -120 110c-35 0 -70 -10 -103 -30c-33 -19 -59 -41 -78 -66l-52 -331h-72l77 483h72l-12 -70c56 55 121 82 195 82c100 0 167 -63 167 -160c0 -19 -3 -45 -9 -80zM238 700l-80 -177h-57l72 177h65z" />
    <glyph glyph-name="Eng" unicode="&#x14a;" horiz-adv-x="775" 
d="M716 700h72l-112 -705c-21 -135 -103 -199 -211 -199c-45 0 -80 8 -107 24l12 70c24 -17 54 -25 89 -25c81 0 129 45 146 135l2 12l-346 568l-90 -580h-72l111 700h62l352 -578z" />
    <glyph glyph-name="eng" unicode="&#x14b;" horiz-adv-x="610" 
d="M573 255l-46 -287c-18 -115 -74 -172 -168 -172c-37 0 -64 6 -82 18l10 67c21 -13 43 -20 66 -20c63 0 90 35 103 116l45 277c5 28 7 49 7 63c0 72 -47 110 -120 110c-35 0 -70 -10 -103 -30c-33 -19 -59 -41 -78 -66l-52 -331h-72l77 483h72l-12 -70
c56 55 121 82 195 82c100 0 167 -63 167 -160c0 -19 -3 -45 -9 -80z" />
    <glyph glyph-name="Omacron" unicode="&#x14c;" horiz-adv-x="845" 
d="M498 712c99 0 179 -31 240 -94c61 -62 91 -141 91 -238c0 -108 -36 -200 -108 -277c-71 -77 -160 -115 -267 -115c-99 0 -179 31 -240 94s-91 142 -91 239c0 108 36 200 107 276c72 77 161 115 268 115zM456 57c83 0 154 31 211 93c58 62 87 138 87 229
c0 75 -24 138 -71 188c-47 51 -110 76 -187 76c-83 0 -154 -31 -212 -93c-57 -61 -86 -137 -86 -228c0 -76 24 -139 71 -190c47 -50 110 -75 187 -75zM674 802h-262l8 55h262z" />
    <glyph glyph-name="omacron" unicode="&#x14d;" horiz-adv-x="621" 
d="M358 495c73 0 132 -23 177 -69c45 -45 68 -102 68 -169c0 -74 -26 -137 -77 -190s-115 -79 -192 -79c-73 0 -133 23 -178 68c-45 46 -67 103 -67 170c0 74 26 137 77 190s115 79 192 79zM334 53c55 0 102 20 141 59c39 40 59 89 59 147c0 50 -16 91 -49 123
s-75 48 -127 48c-55 0 -103 -20 -142 -60c-39 -39 -58 -88 -58 -146c0 -50 16 -91 49 -123s75 -48 127 -48zM540 618h-262l8 55h262z" />
    <glyph glyph-name="Obreve" unicode="&#x14e;" horiz-adv-x="845" 
d="M498 712c99 0 179 -31 240 -94c61 -62 91 -141 91 -238c0 -108 -36 -200 -108 -277c-71 -77 -160 -115 -267 -115c-99 0 -179 31 -240 94s-91 142 -91 239c0 108 36 200 107 276c72 77 161 115 268 115zM456 57c83 0 154 31 211 93c58 62 87 138 87 229
c0 75 -24 138 -71 188c-47 51 -110 76 -187 76c-83 0 -154 -31 -212 -93c-57 -61 -86 -137 -86 -228c0 -76 24 -139 71 -190c47 -50 110 -75 187 -75zM643 901h51c-13 -80 -73 -135 -150 -135c-72 0 -124 47 -124 115c0 9 0 15 1 20h51c-1 -3 -1 -7 -1 -12
c0 -45 28 -76 76 -76c49 0 87 37 96 88z" />
    <glyph glyph-name="obreve" unicode="&#x14f;" horiz-adv-x="621" 
d="M358 495c73 0 132 -23 177 -69c45 -45 68 -102 68 -169c0 -74 -26 -137 -77 -190s-115 -79 -192 -79c-73 0 -133 23 -178 68c-45 46 -67 103 -67 170c0 74 26 137 77 190s115 79 192 79zM334 53c55 0 102 20 141 59c39 40 59 89 59 147c0 50 -16 91 -49 123
s-75 48 -127 48c-55 0 -103 -20 -142 -60c-39 -39 -58 -88 -58 -146c0 -50 16 -91 49 -123s75 -48 127 -48zM503 713h55c-13 -81 -74 -138 -153 -138c-75 0 -128 48 -128 119c0 8 0 14 1 19h54c-1 -5 -1 -11 -1 -16c0 -43 28 -71 76 -71c51 0 87 36 96 87z" />
    <glyph glyph-name="Ohungarumlaut" unicode="&#x150;" horiz-adv-x="845" 
d="M498 712c99 0 179 -31 240 -94c61 -62 91 -141 91 -238c0 -108 -36 -200 -108 -277c-71 -77 -160 -115 -267 -115c-99 0 -179 31 -240 94s-91 142 -91 239c0 108 36 200 107 276c72 77 161 115 268 115zM456 57c83 0 154 31 211 93c58 62 87 138 87 229
c0 75 -24 138 -71 188c-47 51 -110 76 -187 76c-83 0 -154 -31 -212 -93c-57 -61 -86 -137 -86 -228c0 -76 24 -139 71 -190c47 -50 110 -75 187 -75zM631 763h-70l112 133h91zM459 763h-71l112 133h92z" />
    <glyph glyph-name="ohungarumlaut" unicode="&#x151;" horiz-adv-x="621" 
d="M358 495c73 0 132 -23 177 -69c45 -45 68 -102 68 -169c0 -74 -26 -137 -77 -190s-115 -79 -192 -79c-73 0 -133 23 -178 68c-45 46 -67 103 -67 170c0 74 26 137 77 190s115 79 192 79zM334 53c55 0 102 20 141 59c39 40 59 89 59 147c0 50 -16 91 -49 123
s-75 48 -127 48c-55 0 -103 -20 -142 -60c-39 -39 -58 -88 -58 -146c0 -50 16 -91 49 -123s75 -48 127 -48zM503 576h-70l112 134h91zM331 576h-70l112 134h92z" />
    <glyph glyph-name="OE" unicode="&#x152;" horiz-adv-x="1146" 
d="M535 700h656l-11 -67h-402l-35 -224h329l-10 -67h-330l-44 -275h417l-10 -67h-627c-105 0 -188 29 -251 86c-63 58 -94 134 -94 228c0 113 39 205 116 277c78 73 177 109 296 109zM198 314c0 -74 25 -134 74 -179s117 -68 204 -68h138l90 566h-168
c-99 0 -181 -29 -244 -88c-63 -58 -94 -135 -94 -231z" />
    <glyph glyph-name="oe" unicode="&#x153;" horiz-adv-x="1015" 
d="M996 224h-399c0 -112 77 -171 190 -171c53 0 104 14 151 43l-9 -68c-40 -27 -92 -40 -156 -40c-97 0 -177 44 -218 117c-48 -72 -128 -117 -221 -117c-73 0 -133 23 -178 68c-45 46 -67 103 -67 170c0 74 26 137 77 190s115 79 192 79c97 0 174 -48 214 -121
c48 73 126 121 219 121c67 0 119 -21 155 -63c37 -41 55 -90 55 -146c0 -27 -2 -48 -5 -62zM334 53c55 0 102 20 141 59c39 40 59 89 59 147c0 50 -16 91 -49 123s-75 48 -127 48c-55 0 -103 -20 -142 -60c-39 -39 -58 -88 -58 -146c0 -50 16 -91 49 -123s75 -48 127 -48z
M602 283h328c0 4 1 10 1 13c0 73 -52 134 -144 134c-46 0 -86 -14 -120 -41s-56 -63 -65 -106z" />
    <glyph glyph-name="Racute" unicode="&#x154;" horiz-adv-x="736" 
d="M526 322l172 -322h-84l-168 315h-223l-50 -315h-74l111 700h299c127 0 202 -69 202 -170c0 -107 -74 -185 -185 -208zM498 633h-225l-39 -251h239c45 0 84 12 116 36c32 25 48 59 48 102c0 71 -51 113 -139 113zM406 763l102 133h91l-124 -133h-69z" />
    <glyph glyph-name="racute" unicode="&#x155;" horiz-adv-x="366" 
d="M155 0h-72l77 483h72l-15 -92c47 63 130 104 209 104l-12 -73c-81 0 -162 -44 -210 -117zM243 576l103 134h90l-123 -134h-70z" />
    <glyph glyph-name="uni0156" unicode="&#x156;" horiz-adv-x="736" 
d="M526 322l172 -322h-84l-168 315h-223l-50 -315h-74l111 700h299c127 0 202 -69 202 -170c0 -107 -74 -185 -185 -208zM498 633h-225l-39 -251h239c45 0 84 12 116 36c32 25 48 59 48 102c0 71 -51 113 -139 113zM409 -54l-80 -177h-57l72 177h65z" />
    <glyph glyph-name="uni0157" unicode="&#x157;" horiz-adv-x="366" 
d="M155 0h-72l77 483h72l-15 -92c47 63 130 104 209 104l-12 -73c-81 0 -162 -44 -210 -117zM144 -54l-80 -177h-57l72 177h65z" />
    <glyph glyph-name="Rcaron" unicode="&#x158;" horiz-adv-x="736" 
d="M526 322l172 -322h-84l-168 315h-223l-50 -315h-74l111 700h299c127 0 202 -69 202 -170c0 -107 -74 -185 -185 -208zM498 633h-225l-39 -251h239c45 0 84 12 116 36c32 25 48 59 48 102c0 71 -51 113 -139 113zM492 763h-72l-89 133h68l61 -90l92 90h73z" />
    <glyph glyph-name="rcaron" unicode="&#x159;" horiz-adv-x="366" 
d="M155 0h-72l77 483h72l-15 -92c47 63 130 104 209 104l-12 -73c-81 0 -162 -44 -210 -117zM332 576h-73l-89 134h68l62 -91l91 91h73z" />
    <glyph glyph-name="Sacute" unicode="&#x15a;" horiz-adv-x="626" 
d="M622 652l-11 -74c-64 43 -137 65 -220 65c-49 0 -91 -11 -128 -32c-36 -21 -54 -52 -54 -93c0 -34 19 -53 44 -71c15 -9 48 -20 65 -27l39 -12l39 -11c31 -10 57 -19 76 -28c20 -8 41 -19 64 -34c45 -28 67 -70 67 -125c0 -69 -28 -123 -83 -163
c-55 -39 -121 -59 -198 -59c-52 0 -103 7 -153 22c-49 15 -87 32 -112 53l12 79c23 -23 59 -43 107 -60s98 -25 149 -25c80 0 202 37 202 143c0 32 -16 58 -35 74c-9 8 -23 16 -42 24c-19 9 -34 15 -47 19s-32 10 -58 17c-56 16 -82 25 -123 45c-58 29 -83 65 -88 131
c0 65 25 114 76 149s113 53 186 53c92 0 167 -20 226 -60zM376 763l102 133h91l-124 -133h-69z" />
    <glyph glyph-name="sacute" unicode="&#x15b;" horiz-adv-x="496" 
d="M491 441l-10 -69c-52 39 -113 58 -182 58c-67 0 -121 -22 -121 -75c0 -40 33 -54 128 -82c112 -33 162 -67 162 -135c0 -49 -20 -87 -61 -112s-89 -38 -145 -38c-88 0 -170 30 -213 62l10 70c57 -45 124 -67 203 -67c36 0 68 6 95 18s41 32 41 61c0 39 -38 56 -134 84
c-99 28 -158 63 -158 134c0 47 19 83 56 108c38 25 84 37 138 37c77 0 140 -18 191 -54zM280 576l103 134h90l-123 -134h-70z" />
    <glyph glyph-name="Scircumflex" unicode="&#x15c;" horiz-adv-x="626" 
d="M622 652l-11 -74c-64 43 -137 65 -220 65c-49 0 -91 -11 -128 -32c-36 -21 -54 -52 -54 -93c0 -34 19 -53 44 -71c15 -9 48 -20 65 -27l39 -12l39 -11c31 -10 57 -19 76 -28c20 -8 41 -19 64 -34c45 -28 67 -70 67 -125c0 -69 -28 -123 -83 -163
c-55 -39 -121 -59 -198 -59c-52 0 -103 7 -153 22c-49 15 -87 32 -112 53l12 79c23 -23 59 -43 107 -60s98 -25 149 -25c80 0 202 37 202 143c0 32 -16 58 -35 74c-9 8 -23 16 -42 24c-19 9 -34 15 -47 19s-32 10 -58 17c-56 16 -82 25 -123 45c-58 29 -83 65 -88 131
c0 65 25 114 76 149s113 53 186 53c92 0 167 -20 226 -60zM404 896h72l89 -133h-68l-61 91l-91 -91h-74z" />
    <glyph glyph-name="scircumflex" unicode="&#x15d;" horiz-adv-x="496" 
d="M491 441l-10 -69c-52 39 -113 58 -182 58c-67 0 -121 -22 -121 -75c0 -40 33 -54 128 -82c112 -33 162 -67 162 -135c0 -49 -20 -87 -61 -112s-89 -38 -145 -38c-88 0 -170 30 -213 62l10 70c57 -45 124 -67 203 -67c36 0 68 6 95 18s41 32 41 61c0 39 -38 56 -134 84
c-99 28 -158 63 -158 134c0 47 19 83 56 108c38 25 84 37 138 37c77 0 140 -18 191 -54zM318 710h73l89 -134h-68l-62 91l-91 -91h-73z" />
    <glyph glyph-name="Scedilla" unicode="&#x15e;" horiz-adv-x="626" 
d="M622 652l-11 -74c-64 43 -137 65 -220 65c-49 0 -91 -11 -128 -32c-36 -21 -54 -52 -54 -93c0 -34 19 -53 44 -71c15 -9 48 -20 65 -27l39 -12l39 -11c31 -10 57 -19 76 -28c20 -8 41 -19 64 -34c45 -28 67 -70 67 -125c0 -64 -24 -115 -73 -154
c-48 -39 -107 -61 -177 -66l-74 -122h-85l96 121c-93 5 -188 38 -233 74l12 79c23 -23 59 -43 107 -60s98 -25 149 -25c80 0 202 37 202 143c0 32 -16 58 -35 74c-9 8 -23 16 -42 24c-19 9 -34 15 -47 19s-32 10 -58 17c-56 16 -82 25 -123 45c-58 29 -83 65 -88 131
c0 65 25 114 76 149s113 53 186 53c92 0 167 -20 226 -60z" />
    <glyph glyph-name="scedilla" unicode="&#x15f;" horiz-adv-x="496" 
d="M491 441l-10 -69c-52 39 -113 58 -182 58c-67 0 -121 -22 -121 -75c0 -40 33 -54 128 -82c112 -33 162 -67 162 -135c0 -45 -17 -80 -52 -105c-34 -25 -76 -39 -127 -43l-74 -122h-85l97 122c-76 7 -135 27 -178 60l10 70c57 -45 124 -67 203 -67c36 0 68 6 95 18
s41 32 41 61c0 39 -38 56 -134 84c-99 28 -158 63 -158 134c0 47 19 83 56 108c38 25 84 37 138 37c77 0 140 -18 191 -54z" />
    <glyph glyph-name="Scaron" unicode="&#x160;" horiz-adv-x="626" 
d="M622 652l-11 -74c-64 43 -137 65 -220 65c-49 0 -91 -11 -128 -32c-36 -21 -54 -52 -54 -93c0 -34 19 -53 44 -71c15 -9 48 -20 65 -27l39 -12l39 -11c31 -10 57 -19 76 -28c20 -8 41 -19 64 -34c45 -28 67 -70 67 -125c0 -69 -28 -123 -83 -163
c-55 -39 -121 -59 -198 -59c-52 0 -103 7 -153 22c-49 15 -87 32 -112 53l12 79c23 -23 59 -43 107 -60s98 -25 149 -25c80 0 202 37 202 143c0 32 -16 58 -35 74c-9 8 -23 16 -42 24c-19 9 -34 15 -47 19s-32 10 -58 17c-56 16 -82 25 -123 45c-58 29 -83 65 -88 131
c0 65 25 114 76 149s113 53 186 53c92 0 167 -20 226 -60zM454 763h-72l-89 133h68l61 -90l92 90h73z" />
    <glyph glyph-name="scaron" unicode="&#x161;" horiz-adv-x="495" 
d="M491 441l-10 -69c-52 39 -113 58 -182 58c-67 0 -121 -22 -121 -75c0 -40 33 -54 128 -82c112 -33 162 -67 162 -135c0 -49 -20 -87 -61 -112s-89 -38 -145 -38c-88 0 -170 30 -213 62l10 70c57 -45 124 -67 203 -67c36 0 68 6 95 18s41 32 41 61c0 39 -38 56 -134 84
c-99 28 -158 63 -158 134c0 47 19 83 56 108c38 25 84 37 138 37c77 0 140 -18 191 -54zM369 576h-73l-89 134h68l62 -91l91 91h73z" />
    <glyph glyph-name="uni0162" unicode="&#x162;" horiz-adv-x="630" 
d="M179 -132l98 132l100 633h-241l11 67h559l-11 -67h-244l-100 -633l-87 -132h-85z" />
    <glyph glyph-name="uni0163" unicode="&#x163;" horiz-adv-x="430" 
d="M292 -12l-73 -120h-85l99 125c-50 12 -75 45 -75 98c0 16 2 33 5 51l44 278h-114l10 63h114l24 149h72l-23 -149h168l-10 -63h-169l-40 -251c-4 -23 -6 -41 -6 -55c0 -39 25 -58 74 -58c27 0 53 7 80 20l-9 -66c-19 -12 -48 -19 -86 -22z" />
    <glyph glyph-name="Tcaron" unicode="&#x164;" horiz-adv-x="630" 
d="M469 763h-72l-89 133h68l61 -90l92 90h73zM351 0h-74l100 633h-241l11 67h559l-11 -67h-244z" />
    <glyph glyph-name="tcaron" unicode="&#x165;" horiz-adv-x="550" 
d="M105 483h114l24 149h72l-23 -149h168l-10 -63h-169l-40 -251c-4 -23 -6 -41 -6 -55c0 -39 25 -58 74 -58c27 0 53 7 80 20l-9 -66c-22 -15 -55 -22 -100 -22c-80 0 -120 34 -120 103c0 16 2 33 5 51l44 278h-114zM648 700l-80 -177h-57l72 177h65z" />
    <glyph glyph-name="Tbar" unicode="&#x166;" horiz-adv-x="630" 
d="M351 0h-74l53 338h-133l10 67h134l36 228h-241l11 67h559l-11 -67h-244l-36 -228h135l-10 -67h-136z" />
    <glyph glyph-name="tbar" unicode="&#x167;" horiz-adv-x="430" 
d="M207 420h-114l10 63h114l24 149h72l-23 -149h168l-10 -63h-169l-20 -126h169l-10 -63h-169l-10 -62c-4 -23 -6 -41 -6 -55c0 -39 25 -58 74 -58c27 0 53 7 80 20l-9 -66c-22 -15 -55 -22 -100 -22c-80 0 -120 34 -120 103c0 16 2 33 5 51l14 89h-114l10 63h114z" />
    <glyph glyph-name="Utilde" unicode="&#x168;" horiz-adv-x="746" 
d="M632 306l62 394h74l-66 -415c-31 -193 -152 -297 -316 -297c-156 0 -257 91 -257 248c0 19 2 43 7 73l62 391h73l-62 -394c-4 -23 -6 -44 -6 -62c0 -119 69 -187 189 -187c129 0 215 86 240 249zM568 772c-19 0 -43 10 -71 29c-27 19 -47 29 -59 29
c-24 0 -40 -18 -48 -53h-49c11 64 51 109 103 109c19 0 43 -10 70 -29s47 -28 59 -28c28 0 40 19 49 52h49c-11 -63 -51 -109 -103 -109z" />
    <glyph glyph-name="utilde" unicode="&#x169;" horiz-adv-x="610" 
d="M114 228l41 255h72l-41 -254c-5 -28 -7 -49 -7 -63c0 -72 47 -110 120 -110c35 0 70 10 103 29c33 20 59 42 78 67l52 331h72l-77 -483h-72l12 70c-56 -55 -121 -82 -195 -82c-100 0 -167 63 -167 160c0 19 3 45 9 80zM465 589c-19 0 -43 10 -71 29c-27 19 -47 29 -59 29
c-23 0 -39 -18 -48 -53h-49c11 64 51 109 103 109c19 0 43 -10 70 -29c28 -19 48 -28 60 -28c27 0 38 19 49 52h49c-11 -63 -52 -109 -104 -109z" />
    <glyph glyph-name="Umacron" unicode="&#x16a;" horiz-adv-x="746" 
d="M632 306l62 394h74l-66 -415c-31 -193 -152 -297 -316 -297c-156 0 -257 91 -257 248c0 19 2 43 7 73l62 391h73l-62 -394c-4 -23 -6 -44 -6 -62c0 -119 69 -187 189 -187c129 0 215 86 240 249zM632 802h-262l8 55h262z" />
    <glyph glyph-name="umacron" unicode="&#x16b;" horiz-adv-x="610" 
d="M114 228l41 255h72l-41 -254c-5 -28 -7 -49 -7 -63c0 -72 47 -110 120 -110c35 0 70 10 103 29c33 20 59 42 78 67l52 331h72l-77 -483h-72l12 70c-56 -55 -121 -82 -195 -82c-100 0 -167 63 -167 160c0 19 3 45 9 80zM530 618h-262l8 55h262z" />
    <glyph glyph-name="Ubreve" unicode="&#x16c;" horiz-adv-x="746" 
d="M632 306l62 394h74l-66 -415c-31 -193 -152 -297 -316 -297c-156 0 -257 91 -257 248c0 19 2 43 7 73l62 391h73l-62 -394c-4 -23 -6 -44 -6 -62c0 -119 69 -187 189 -187c129 0 215 86 240 249zM589 896h51c-13 -80 -73 -135 -150 -135c-72 0 -124 47 -124 115
c0 9 0 15 1 20h51c-1 -3 -1 -7 -1 -12c0 -45 28 -76 76 -76c49 0 87 37 96 88z" />
    <glyph glyph-name="ubreve" unicode="&#x16d;" horiz-adv-x="610" 
d="M114 228l41 255h72l-41 -254c-5 -28 -7 -49 -7 -63c0 -72 47 -110 120 -110c35 0 70 10 103 29c33 20 59 42 78 67l52 331h72l-77 -483h-72l12 70c-56 -55 -121 -82 -195 -82c-100 0 -167 63 -167 160c0 19 3 45 9 80zM490 710h55c-13 -81 -74 -138 -153 -138
c-75 0 -128 48 -128 119c0 8 0 14 1 19h54c-1 -5 -1 -11 -1 -16c0 -43 28 -71 76 -71c51 0 87 36 96 87z" />
    <glyph glyph-name="Uring" unicode="&#x16e;" horiz-adv-x="746" 
d="M632 306l62 394h74l-66 -415c-31 -193 -152 -297 -316 -297c-156 0 -257 91 -257 248c0 19 2 43 7 73l62 391h73l-62 -394c-4 -23 -6 -44 -6 -62c0 -119 69 -187 189 -187c129 0 215 86 240 249zM492 926c52 0 95 -43 95 -96s-43 -96 -95 -96c-53 0 -97 43 -97 96
s44 96 97 96zM492 774c31 0 55 25 55 56c0 32 -24 56 -55 56c-32 0 -57 -24 -57 -56c0 -31 25 -56 57 -56z" />
    <glyph glyph-name="uring" unicode="&#x16f;" horiz-adv-x="610" 
d="M114 228l41 255h72l-41 -254c-5 -28 -7 -49 -7 -63c0 -72 47 -110 120 -110c35 0 70 10 103 29c33 20 59 42 78 67l52 331h72l-77 -483h-72l12 70c-56 -55 -121 -82 -195 -82c-100 0 -167 63 -167 160c0 19 3 45 9 80zM329 714c37 37 99 37 136 0s37 -99 0 -136
s-99 -37 -136 0s-37 99 0 136zM453 646c0 32 -25 56 -56 56s-56 -24 -56 -56c0 -31 25 -56 56 -56s56 25 56 56z" />
    <glyph glyph-name="Uhungarumlaut" unicode="&#x170;" horiz-adv-x="746" 
d="M632 306l62 394h74l-66 -415c-31 -193 -152 -297 -316 -297c-156 0 -257 91 -257 248c0 19 2 43 7 73l62 391h73l-62 -394c-4 -23 -6 -44 -6 -62c0 -119 69 -187 189 -187c129 0 215 86 240 249zM584 763h-70l112 133h91zM412 763h-71l112 133h92z" />
    <glyph glyph-name="uhungarumlaut" unicode="&#x171;" horiz-adv-x="610" 
d="M114 228l41 255h72l-41 -254c-5 -28 -7 -49 -7 -63c0 -72 47 -110 120 -110c35 0 70 10 103 29c33 20 59 42 78 67l52 331h72l-77 -483h-72l12 70c-56 -55 -121 -82 -195 -82c-100 0 -167 63 -167 160c0 19 3 45 9 80zM502 576h-70l112 134h91zM330 576h-70l112 134h92z
" />
    <glyph glyph-name="Uogonek" unicode="&#x172;" horiz-adv-x="746" 
d="M632 306l62 394h74l-66 -415c-21 -133 -86 -225 -194 -275c-65 -29 -99 -57 -99 -101c0 -32 24 -52 61 -52c13 0 27 2 40 6l-7 -46c-17 -5 -35 -7 -52 -7c-61 0 -98 36 -98 85c0 33 15 64 44 93h-11c-156 0 -257 91 -257 248c0 19 2 43 7 73l62 391h73l-62 -394
c-4 -23 -6 -44 -6 -62c0 -119 69 -187 189 -187c129 0 215 86 240 249z" />
    <glyph glyph-name="uogonek" unicode="&#x173;" horiz-adv-x="608" 
d="M114 228l41 255h72l-41 -254c-5 -28 -7 -49 -7 -63c0 -72 47 -110 120 -110c35 0 70 10 103 29c33 20 59 42 78 67l52 331h72l-77 -483c-34 -33 -51 -64 -51 -94c0 -33 22 -54 61 -54c14 0 27 2 40 6l-7 -46c-17 -5 -35 -7 -52 -7c-61 0 -98 36 -98 85c0 39 19 76 56 110
h-21l12 70c-56 -55 -121 -82 -195 -82c-100 0 -167 63 -167 160c0 19 3 45 9 80z" />
    <glyph glyph-name="Wcircumflex" unicode="&#x174;" horiz-adv-x="1053" 
d="M325 117l275 584h60l90 -582l287 581h81l-352 -704h-65l-89 577l-272 -577h-65l-131 704h79zM624 896h72l89 -133h-68l-61 91l-91 -91h-74z" />
    <glyph glyph-name="wcircumflex" unicode="&#x175;" horiz-adv-x="819" 
d="M586 105l197 378h73l-251 -486h-61l-76 380l-196 -380h-62l-96 486h70l76 -377l193 379h59zM474 710h73l89 -134h-68l-62 91l-91 -91h-73z" />
    <glyph glyph-name="Ycircumflex" unicode="&#x176;" horiz-adv-x="664" 
d="M388 390l270 310h89l-330 -378l-51 -322h-74l50 321l-213 379h82zM426 896h72l89 -133h-68l-61 91l-91 -91h-74z" />
    <glyph glyph-name="ycircumflex" unicode="&#x177;" horiz-adv-x="555" 
d="M515 483h80l-314 -543c-56 -97 -116 -144 -197 -144c-27 0 -52 6 -73 17l11 65c19 -11 40 -17 62 -17c63 0 105 47 169 158l-153 464h75l123 -383zM338 710h73l89 -134h-68l-62 91l-91 -91h-73z" />
    <glyph glyph-name="Ydieresis" unicode="&#x178;" horiz-adv-x="664" 
d="M388 390l270 310h89l-330 -378l-51 -322h-74l50 321l-213 379h82zM312 794c-17 19 -17 50 0 67c19 19 50 19 67 0c19 -17 19 -48 0 -67c-17 -17 -48 -17 -67 0zM512 794c-17 19 -17 50 0 67c19 19 50 19 67 0c19 -17 19 -48 0 -67c-17 -17 -48 -17 -67 0z" />
    <glyph glyph-name="Zacute" unicode="&#x179;" horiz-adv-x="642" 
d="M593 0h-543l8 53l509 580h-404l10 67h504l-8 -52l-507 -581h441zM388 763l102 133h91l-124 -133h-69z" />
    <glyph glyph-name="zacute" unicode="&#x17a;" horiz-adv-x="504" 
d="M465 0h-427l7 48l360 372h-287l10 63h390l-8 -50l-357 -370h322zM273 576l103 134h90l-123 -134h-70z" />
    <glyph glyph-name="Zdotaccent" unicode="&#x17b;" horiz-adv-x="642" 
d="M593 0h-543l8 53l509 580h-404l10 67h504l-8 -52l-507 -581h441zM402 794c-19 19 -19 50 0 67c19 19 47 19 66 0c19 -17 19 -48 0 -67c-19 -17 -47 -17 -66 0z" />
    <glyph glyph-name="zdotaccent" unicode="&#x17c;" horiz-adv-x="504" 
d="M465 0h-427l7 48l360 372h-287l10 63h390l-8 -50l-357 -370h322zM296 612c-19 19 -19 50 0 67c19 19 47 19 66 0c19 -17 19 -48 0 -67c-19 -17 -47 -17 -66 0z" />
    <glyph glyph-name="Zcaron" unicode="&#x17d;" horiz-adv-x="642" 
d="M466 763h-72l-89 133h68l61 -90l92 90h73zM593 0h-543l8 53l509 580h-404l10 67h504l-8 -52l-507 -581h441z" />
    <glyph glyph-name="zcaron" unicode="&#x17e;" horiz-adv-x="504" 
d="M368 576h-73l-89 134h68l62 -91l91 91h73zM465 0h-427l7 48l360 372h-287l10 63h390l-8 -50l-357 -370h322z" />
    <glyph glyph-name="longs" unicode="&#x17f;" horiz-adv-x="355" 
d="M282 550l-87 -550h-72l67 420h-96l10 63h97l12 80c13 89 70 145 161 145c40 0 73 -6 99 -19l-11 -66c-28 13 -55 20 -81 20c-55 0 -88 -31 -99 -93z" />
    <glyph glyph-name="florin" unicode="&#x192;" horiz-adv-x="484" 
d="M67 -204c-34 0 -63 6 -86 17v65c26 -11 50 -17 73 -17c72 0 119 51 134 146l51 332h-129v63h139l18 115c21 127 85 191 192 191c34 0 63 -5 86 -16v-66c-26 11 -51 17 -74 17c-75 0 -117 -40 -133 -141l-15 -100h159v-63h-170l-54 -350c-19 -115 -82 -193 -191 -193z" />
    <glyph glyph-name="uni0218" unicode="&#x218;" horiz-adv-x="626" 
d="M622 652l-11 -74c-64 43 -137 65 -220 65c-49 0 -91 -11 -128 -32c-36 -21 -54 -52 -54 -93c0 -34 19 -53 44 -71c15 -9 48 -20 65 -27l39 -12l39 -11c31 -10 57 -19 76 -28c20 -8 41 -19 64 -34c45 -28 67 -70 67 -125c0 -69 -28 -123 -83 -163
c-55 -39 -121 -59 -198 -59c-52 0 -103 7 -153 22c-49 15 -87 32 -112 53l12 79c23 -23 59 -43 107 -60s98 -25 149 -25c80 0 202 37 202 143c0 32 -16 58 -35 74c-9 8 -23 16 -42 24c-19 9 -34 15 -47 19s-32 10 -58 17c-56 16 -82 25 -123 45c-58 29 -83 65 -88 131
c0 65 25 114 76 149s113 53 186 53c92 0 167 -20 226 -60zM354 -54l-80 -177h-57l72 177h65z" />
    <glyph glyph-name="uni0219" unicode="&#x219;" horiz-adv-x="496" 
d="M491 441l-10 -69c-52 39 -113 58 -182 58c-67 0 -121 -22 -121 -75c0 -40 33 -54 128 -82c112 -33 162 -67 162 -135c0 -49 -20 -87 -61 -112s-89 -38 -145 -38c-88 0 -170 30 -213 62l10 70c57 -45 124 -67 203 -67c36 0 68 6 95 18s41 32 41 61c0 39 -38 56 -134 84
c-99 28 -158 63 -158 134c0 47 19 83 56 108c38 25 84 37 138 37c77 0 140 -18 191 -54zM287 -54l-80 -177h-57l72 177h65z" />
    <glyph glyph-name="uni021A" unicode="&#x21a;" horiz-adv-x="630" 
d="M351 0h-74l100 633h-241l11 67h559l-11 -67h-244zM339 -54l-80 -177h-57l72 177h65z" />
    <glyph glyph-name="uni021B" unicode="&#x21b;" horiz-adv-x="430" 
d="M207 420h-114l10 63h114l24 149h72l-23 -149h168l-10 -63h-169l-40 -251c-4 -23 -6 -41 -6 -55c0 -39 25 -58 74 -58c27 0 53 7 80 20l-9 -66c-22 -15 -55 -22 -100 -22c-80 0 -120 34 -120 103c0 16 2 33 5 51zM294 -54l-80 -177h-57l72 177h65z" />
    <glyph glyph-name="circumflex" unicode="&#x2c6;" horiz-adv-x="532" 
d="M340 710h73l89 -134h-68l-62 91l-91 -91h-73z" />
    <glyph glyph-name="caron" unicode="&#x2c7;" horiz-adv-x="521" 
d="M373 576h-73l-89 134h68l62 -91l91 91h73z" />
    <glyph glyph-name="uni02C9" unicode="&#x2c9;" horiz-adv-x="499" 
d="M518 618h-341l8 53h341z" />
    <glyph glyph-name="breve" unicode="&#x2d8;" horiz-adv-x="513" 
d="M450 710h55c-13 -81 -74 -138 -153 -138c-75 0 -128 48 -128 119c0 8 0 14 1 19h54c-1 -5 -1 -11 -1 -16c0 -43 28 -71 76 -71c51 0 87 36 96 87z" />
    <glyph glyph-name="dotaccent" unicode="&#x2d9;" horiz-adv-x="512" 
d="M306 612c-19 19 -19 50 0 67c19 19 47 19 66 0c19 -17 19 -48 0 -67c-19 -17 -47 -17 -66 0z" />
    <glyph glyph-name="ring" unicode="&#x2da;" horiz-adv-x="432" 
d="M229 714c37 37 99 37 136 0s37 -99 0 -136s-99 -37 -136 0s-37 99 0 136zM353 646c0 32 -25 56 -56 56s-56 -24 -56 -56c0 -31 25 -56 56 -56s56 25 56 56z" />
    <glyph glyph-name="ogonek" unicode="&#x2db;" horiz-adv-x="513" 
d="M236 6h51c-34 -33 -51 -64 -51 -94c0 -33 22 -54 61 -54c14 0 27 2 40 6l-7 -46c-17 -5 -35 -7 -52 -7c-61 0 -98 36 -98 85c0 39 19 76 56 110z" />
    <glyph glyph-name="tilde" unicode="&#x2dc;" horiz-adv-x="519" 
d="M420 589c-19 0 -43 10 -71 29c-27 19 -47 29 -59 29c-23 0 -39 -18 -48 -53h-49c11 64 51 109 103 109c19 0 43 -10 70 -29c28 -19 48 -28 60 -28c27 0 38 19 49 52h49c-11 -63 -52 -109 -104 -109z" />
    <glyph glyph-name="hungarumlaut" unicode="&#x2dd;" horiz-adv-x="502" 
d="M390 576h-70l112 134h91zM218 576h-70l112 134h92z" />
    <glyph glyph-name="acutecomb" unicode="&#x301;" horiz-adv-x="20" 
d="M-222 576l103 134h90l-123 -134h-70z" />
    <glyph glyph-name="uni037E" unicode="&#x37e;" horiz-adv-x="251" 
d="M5 -152l120 255h86l-145 -255h-61zM162 381c-20 20 -20 54 0 74s54 20 74 0s20 -54 0 -74s-54 -20 -74 0z" />
    <glyph glyph-name="uni0394" unicode="&#x394;" horiz-adv-x="752" 
d="M723 0h-693l422 700h69zM473 607l-327 -540h484z" />
    <glyph glyph-name="uni03A9" unicode="&#x3a9;" horiz-adv-x="804" 
d="M766 417c0 -136 -62 -262 -170 -350h118l-10 -67h-211l9 58c57 39 102 90 136 152s51 128 51 197c0 65 -18 121 -54 167c-35 46 -86 69 -152 69c-76 0 -138 -33 -186 -99c-48 -65 -72 -139 -72 -221c0 -52 9 -102 28 -151s42 -87 69 -114l-9 -58h-209l10 67h125
c-53 64 -88 161 -88 261c0 64 13 125 39 182c27 58 66 106 118 144c52 39 111 58 178 58c83 0 150 -27 202 -82c52 -54 78 -125 78 -213z" />
    <glyph glyph-name="uni03BC" unicode="&#x3bc;" horiz-adv-x="614" 
d="M50 -200l32 200l77 483h72l-41 -254c-5 -28 -7 -49 -7 -63c0 -72 47 -110 120 -110c35 0 70 10 103 29c33 20 59 42 78 67l52 331h72l-77 -483h-72l12 70c-56 -55 -121 -82 -195 -82c-49 0 -88 13 -118 40l-36 -228h-72z" />
    <glyph glyph-name="pi" unicode="&#x3c0;" horiz-adv-x="685" 
d="M700 483l-9 -63h-98l-43 -270c-3 -16 -4 -29 -4 -40c0 -34 16 -51 47 -51c16 0 30 4 42 11l-10 -61c-17 -10 -38 -15 -62 -15c-62 0 -93 31 -93 94c0 11 1 25 4 44l47 288h-248l-67 -420h-72l67 420h-93l10 63h582z" />
    <glyph glyph-name="uni0401" unicode="&#x401;" horiz-adv-x="645" 
d="M594 0h-495l111 700h480l-11 -67h-406l-35 -224h333l-11 -67h-333l-43 -275h421zM332 794c-17 19 -17 50 0 67c19 19 50 19 67 0c19 -17 19 -48 0 -67c-17 -17 -48 -17 -67 0zM532 794c-17 19 -17 50 0 67c19 19 50 19 67 0c19 -17 19 -48 0 -67c-17 -17 -48 -17 -67 0z
" />
    <glyph glyph-name="uni0402" unicode="&#x402;" horiz-adv-x="754" 
d="M516 416c67 0 122 -20 163 -59s62 -87 62 -145c0 -65 -23 -119 -70 -160c-46 -41 -105 -62 -176 -62c-41 0 -78 6 -111 19l10 68c29 -13 62 -20 98 -20c49 0 90 13 124 40c35 27 52 64 52 111c0 79 -61 139 -165 139c-69 0 -134 -15 -196 -44l-47 -303h-74l100 633h-150
l10 67h487l-10 -67h-263l-41 -259c67 28 132 42 197 42z" />
    <glyph glyph-name="uni0403" unicode="&#x403;" horiz-adv-x="602" 
d="M173 0h-74l111 700h469l-11 -67h-395zM407 763l102 133h91l-124 -133h-69z" />
    <glyph glyph-name="uni0404" unicode="&#x404;" horiz-adv-x="690" 
d="M536 391l-11 -67h-328c0 -81 24 -146 73 -195c49 -48 113 -72 193 -72c77 0 146 22 207 65l-11 -78c-59 -37 -126 -56 -202 -56c-99 0 -180 31 -242 93c-61 63 -92 142 -92 237c0 110 36 203 107 279c72 77 164 115 276 115c82 0 152 -19 211 -58l-12 -71
c-58 40 -125 60 -200 60c-76 0 -142 -23 -198 -70s-90 -107 -103 -182h332z" />
    <glyph glyph-name="uni0405" unicode="&#x405;" horiz-adv-x="626" 
d="M622 652l-11 -74c-64 43 -137 65 -220 65c-49 0 -91 -11 -128 -32c-36 -21 -54 -52 -54 -93c0 -34 19 -53 44 -71c15 -9 48 -20 65 -27l39 -12l39 -11c31 -10 57 -19 76 -28c20 -8 41 -19 64 -34c45 -28 67 -70 67 -125c0 -69 -28 -123 -83 -163
c-55 -39 -121 -59 -198 -59c-52 0 -103 7 -153 22c-49 15 -87 32 -112 53l12 79c23 -23 59 -43 107 -60s98 -25 149 -25c80 0 202 37 202 143c0 32 -16 58 -35 74c-9 8 -23 16 -42 24c-19 9 -34 15 -47 19s-32 10 -58 17c-56 16 -82 25 -123 45c-58 29 -83 65 -88 131
c0 65 25 114 76 149s113 53 186 53c92 0 167 -20 226 -60z" />
    <glyph glyph-name="uni0406" unicode="&#x406;" horiz-adv-x="281" 
d="M178 0h-74l111 700h74z" />
    <glyph glyph-name="uni0407" unicode="&#x407;" horiz-adv-x="281" 
d="M178 0h-74l111 700h74zM136 794c-19 19 -19 50 0 67c19 19 47 19 66 0c19 -17 19 -48 0 -67c-19 -17 -47 -17 -66 0zM336 794c-19 19 -19 50 0 67c19 19 47 19 66 0c19 -17 19 -48 0 -67c-19 -17 -47 -17 -66 0z" />
    <glyph glyph-name="uni0408" unicode="&#x408;" horiz-adv-x="502" 
d="M447 700h74l-78 -497c-23 -143 -106 -215 -250 -215c-66 0 -118 16 -157 49l11 75c35 -37 83 -55 143 -55c107 0 164 48 183 165z" />
    <glyph glyph-name="uni0409" unicode="&#x409;" horiz-adv-x="1136" 
d="M13 2l11 71c8 -2 18 -3 31 -3c62 -5 106 55 136 128c11 23 21 54 31 93s18 75 25 107s15 73 24 124l33 178h436l-42 -261h202c141 0 223 -78 223 -193c0 -75 -26 -134 -79 -179c-52 -45 -118 -67 -199 -67h-290l100 633h-290l-29 -153c-12 -64 -23 -118 -34 -162
s-24 -88 -41 -131c-46 -125 -109 -182 -218 -188c-13 0 -23 1 -30 3zM688 372l-48 -305h211c56 0 103 15 141 45c39 30 58 73 58 128c0 84 -59 132 -163 132h-199z" />
    <glyph glyph-name="uni040A" unicode="&#x40a;" horiz-adv-x="1150" 
d="M680 700h74l-41 -261h200c141 0 224 -78 224 -193c0 -75 -26 -134 -79 -179s-119 -67 -200 -67h-289l59 372h-396l-59 -372h-74l111 700h74l-41 -261h396zM702 372l-48 -305h211c57 0 104 15 142 44c38 30 57 73 57 129c0 84 -59 132 -162 132h-200z" />
    <glyph glyph-name="uni040B" unicode="&#x40b;" horiz-adv-x="779" 
d="M308 307l-48 -307h-74l100 633h-150l10 67h487l-10 -67h-263l-40 -254c73 25 142 37 209 37c144 0 216 -54 216 -163c0 -15 -2 -34 -5 -57l-31 -196h-74l29 184c4 23 6 40 6 51c0 81 -50 112 -159 112c-73 0 -140 -13 -203 -40z" />
    <glyph glyph-name="uni040C" unicode="&#x40c;" horiz-adv-x="663" 
d="M210 700h74l-49 -304l374 304h98l-399 -328l341 -372h-92l-329 356l-55 -356h-74zM407 763l102 133h91l-124 -133h-69z" />
    <glyph glyph-name="uni040E" unicode="&#x40e;" horiz-adv-x="646" 
d="M635 700h81l-330 -552c-72 -120 -129 -160 -205 -160c-33 0 -61 6 -86 17l9 68c22 -11 46 -16 73 -16c29 0 54 8 76 23c22 16 46 47 73 93l13 22l-213 505h79l180 -427zM422 750c-89 0 -149 49 -149 125c0 11 0 19 1 25h60c-1 -4 -1 -9 -1 -16c0 -47 36 -78 93 -78
c61 0 107 38 116 94h61c-16 -91 -89 -150 -181 -150z" />
    <glyph glyph-name="uni040F" unicode="&#x40f;" horiz-adv-x="741" 
d="M381 -156h-70l24 156h-236l111 700h74l-100 -633h396l100 633h74l-111 -700h-238z" />
    <glyph glyph-name="uni0410" unicode="&#x410;" horiz-adv-x="753" 
d="M724 0h-76l-55 193h-368l-115 -193h-80l423 704h69zM575 258l-99 353l-212 -353h311z" />
    <glyph glyph-name="uni0411" unicode="&#x411;" horiz-adv-x="697" 
d="M242 435h201c141 0 225 -79 225 -192c0 -74 -26 -133 -79 -177c-52 -44 -118 -66 -198 -66h-292l111 700h477l-10 -67h-404zM231 368l-47 -301h215c55 0 102 15 139 44s56 72 56 127c0 83 -59 130 -162 130h-201z" />
    <glyph glyph-name="uni0412" unicode="&#x412;" horiz-adv-x="726" 
d="M570 379c79 -17 128 -74 128 -158c0 -69 -24 -123 -73 -162c-48 -39 -110 -59 -186 -59h-340l111 700h295c112 0 181 -57 181 -148c0 -81 -40 -146 -116 -173zM494 633h-221l-36 -229h221c43 0 80 11 110 33c31 22 46 54 46 96c0 61 -45 100 -120 100zM227 339l-43 -272
h254c51 0 94 13 129 40s52 65 52 115c0 72 -51 117 -140 117h-252z" />
    <glyph glyph-name="uni0413" unicode="&#x413;" horiz-adv-x="602" 
d="M173 0h-74l111 700h469l-11 -67h-395z" />
    <glyph glyph-name="uni0414" unicode="&#x414;" horiz-adv-x="788" 
d="M74 -156h-68l35 223h65c53 61 95 132 127 213s59 193 82 336l13 84h432l-100 -633h106l-35 -223h-69l24 156h-588zM190 67h396l90 566h-285l-8 -47c-38 -240 -102 -413 -193 -519z" />
    <glyph glyph-name="uni0415" unicode="&#x415;" horiz-adv-x="645" 
d="M594 0h-495l111 700h480l-11 -67h-406l-35 -224h333l-11 -67h-333l-43 -275h421z" />
    <glyph glyph-name="uni0416" unicode="&#x416;" horiz-adv-x="975" 
d="M176 700h88l244 -310l49 310h74l-50 -315l343 315h96l-368 -339l288 -361h-91l-275 342l-54 -342h-74l55 344l-382 -344h-99l414 377z" />
    <glyph glyph-name="uni0417" unicode="&#x417;" horiz-adv-x="626" 
d="M473 380c73 -21 129 -80 129 -164c0 -49 -15 -91 -45 -127c-60 -71 -153 -101 -256 -101c-91 0 -169 19 -234 57l11 76c67 -43 142 -64 224 -64c37 0 71 5 104 15c65 20 121 72 121 144c0 79 -67 129 -178 129h-90l10 67h93c47 0 87 10 120 31s50 52 50 93
c0 68 -62 107 -163 107c-74 0 -144 -16 -209 -49l10 73c68 30 138 45 209 45c69 0 124 -15 165 -45c42 -30 63 -71 63 -122c0 -81 -55 -144 -134 -165z" />
    <glyph glyph-name="uni0418" unicode="&#x418;" horiz-adv-x="769" 
d="M599 0l90 575l-528 -575h-62l110 700h73l-90 -573l525 573h65l-110 -700h-73z" />
    <glyph glyph-name="uni0419" unicode="&#x419;" horiz-adv-x="769" 
d="M599 0l90 575l-528 -575h-62l110 700h73l-90 -573l525 573h65l-110 -700h-73zM509 750c-89 0 -149 49 -149 125c0 11 0 19 1 25h60c-1 -4 -1 -9 -1 -16c0 -47 36 -78 93 -78c61 0 107 38 116 94h61c-16 -91 -89 -150 -181 -150z" />
    <glyph glyph-name="uni041A" unicode="&#x41a;" horiz-adv-x="663" 
d="M210 700h74l-49 -304l374 304h98l-399 -328l341 -372h-92l-329 356l-55 -356h-74z" />
    <glyph glyph-name="uni041B" unicode="&#x41b;" horiz-adv-x="728" 
d="M13 2l11 71c8 -2 18 -3 31 -3c62 -5 106 55 136 128c11 23 21 54 31 93s18 75 25 107s15 73 24 124l33 178h437l-111 -700h-73l100 633h-292l-29 -153c-12 -64 -23 -118 -34 -162s-24 -88 -41 -131c-46 -125 -109 -182 -218 -188c-13 0 -23 1 -30 3z" />
    <glyph glyph-name="uni041C" unicode="&#x41c;" horiz-adv-x="847" 
d="M860 700l-110 -700h-73l93 587l-277 -305h-45l-183 306l-93 -588h-73l111 700h69l200 -339l305 339h76z" />
    <glyph glyph-name="uni041D" unicode="&#x41d;" horiz-adv-x="761" 
d="M173 0h-74l111 700h74l-46 -291h416l46 291h74l-111 -700h-74l54 342h-416z" />
    <glyph glyph-name="uni041E" unicode="&#x41e;" horiz-adv-x="845" 
d="M498 712c99 0 179 -31 240 -94c61 -62 91 -141 91 -238c0 -108 -36 -200 -108 -277c-71 -77 -160 -115 -267 -115c-99 0 -179 31 -240 94s-91 142 -91 239c0 108 36 200 107 276c72 77 161 115 268 115zM456 57c83 0 154 31 211 93c58 62 87 138 87 229
c0 75 -24 138 -71 188c-47 51 -110 76 -187 76c-83 0 -154 -31 -212 -93c-57 -61 -86 -137 -86 -228c0 -76 24 -139 71 -190c47 -50 110 -75 187 -75z" />
    <glyph glyph-name="uni041F" unicode="&#x41f;" horiz-adv-x="746" 
d="M173 0h-74l111 700h549l-111 -700h-74l100 633h-401z" />
    <glyph glyph-name="uni0420" unicode="&#x420;" horiz-adv-x="665" 
d="M99 0l111 700h283c129 0 205 -68 205 -172c0 -65 -23 -117 -70 -158s-105 -61 -176 -61h-230l-49 -309h-74zM233 376h223c45 0 84 12 117 37s50 61 50 106c0 72 -49 114 -138 114h-212z" />
    <glyph glyph-name="uni0421" unicode="&#x421;" horiz-adv-x="690" 
d="M198 322c0 -76 24 -139 73 -190c49 -50 113 -75 192 -75c77 0 146 22 207 65l-11 -78c-59 -37 -126 -56 -202 -56c-99 0 -180 31 -242 93c-61 63 -92 142 -92 237c0 110 36 203 107 279c72 77 164 115 276 115c82 0 152 -19 211 -58l-12 -71c-58 40 -125 60 -200 60
c-87 0 -160 -31 -219 -92s-88 -138 -88 -229z" />
    <glyph glyph-name="uni0422" unicode="&#x422;" horiz-adv-x="630" 
d="M351 0h-74l100 633h-241l11 67h559l-11 -67h-244z" />
    <glyph glyph-name="uni0423" unicode="&#x423;" horiz-adv-x="646" 
d="M635 700h81l-330 -552c-72 -120 -129 -160 -205 -160c-33 0 -61 6 -86 17l9 68c22 -11 46 -16 73 -16c29 0 54 8 76 23c22 16 46 47 73 93l13 22l-213 505h79l180 -427z" />
    <glyph glyph-name="uni0424" unicode="&#x424;" horiz-adv-x="917" 
d="M199 328c0 -123 94 -198 239 -209l75 468c-91 0 -166 -23 -225 -68s-89 -109 -89 -191zM825 377c0 123 -94 198 -239 209l-75 -468c91 0 166 23 225 68s89 109 89 191zM501 50l-12 -74h-73l12 76c-93 7 -168 35 -223 84s-82 112 -82 189c0 105 37 186 112 243
s171 86 288 86l11 64h73l-11 -66c93 -7 167 -36 222 -85s83 -111 83 -188c0 -105 -37 -186 -112 -243s-171 -86 -288 -86z" />
    <glyph glyph-name="uni0425" unicode="&#x425;" horiz-adv-x="708" 
d="M656 700h88l-287 -321l223 -379h-85l-188 321l-288 -321h-90l342 381l-186 319h83l153 -261z" />
    <glyph glyph-name="uni0426" unicode="&#x426;" horiz-adv-x="781" 
d="M724 -156h-68l24 156h-581l111 700h74l-100 -633h396l100 633h74l-100 -633h105z" />
    <glyph glyph-name="uni0427" unicode="&#x427;" horiz-adv-x="690" 
d="M580 388l50 312h73l-110 -700h-73l49 315c-69 -25 -139 -37 -209 -37c-144 0 -216 55 -216 165c0 17 2 37 5 59l31 198h74l-29 -182c-3 -21 -5 -40 -5 -57c0 -83 49 -114 158 -114c69 0 137 14 202 41z" />
    <glyph glyph-name="uni0428" unicode="&#x428;" horiz-adv-x="1021" 
d="M960 700h74l-111 -700h-824l111 700h74l-100 -633h301l100 633h74l-100 -633h301z" />
    <glyph glyph-name="uni0429" unicode="&#x429;" horiz-adv-x="1062" 
d="M1005 -156h-70l24 156h-860l111 700h74l-100 -633h301l100 633h74l-100 -633h301l100 633h74l-100 -633h106z" />
    <glyph glyph-name="uni042A" unicode="&#x42a;" horiz-adv-x="790" 
d="M128 700h266l-42 -261h202c141 0 223 -78 223 -193c0 -75 -26 -134 -79 -179c-52 -45 -118 -67 -199 -67h-290l100 633h-192zM342 372l-48 -305h211c56 0 103 15 141 45c39 30 58 73 58 128c0 84 -59 132 -163 132h-199z" />
    <glyph glyph-name="uni042B" unicode="&#x42b;" horiz-adv-x="886" 
d="M899 700l-110 -700h-74l110 700h74zM210 700h74l-42 -261h181c141 0 223 -78 223 -193c0 -75 -26 -134 -79 -179c-52 -45 -118 -67 -199 -67h-269zM232 372l-48 -305h190c56 0 103 15 141 45c39 30 58 73 58 128c0 84 -59 132 -163 132h-178z" />
    <glyph glyph-name="uni042C" unicode="&#x42c;" horiz-adv-x="680" 
d="M210 700h74l-42 -261h202c141 0 223 -78 223 -193c0 -75 -26 -134 -79 -179c-52 -45 -118 -67 -199 -67h-290zM232 372l-48 -305h211c56 0 103 15 141 45c39 30 58 73 58 128c0 84 -59 132 -163 132h-199z" />
    <glyph glyph-name="uni042D" unicode="&#x42d;" horiz-adv-x="680" 
d="M330 712c99 0 180 -31 241 -94c62 -62 93 -141 93 -236c0 -110 -36 -203 -108 -280c-72 -76 -164 -114 -275 -114c-82 0 -152 19 -211 58l12 72c59 -41 125 -61 199 -61c78 0 145 25 202 75s91 114 102 192h-332l10 67h325c-1 71 -27 131 -76 179c-49 49 -111 73 -188 73
c-66 0 -129 -18 -188 -53l12 76c57 31 118 46 182 46z" />
    <glyph glyph-name="uni042E" unicode="&#x42e;" horiz-adv-x="1045" 
d="M1029 387c0 -66 -14 -129 -43 -189s-71 -110 -128 -150c-56 -40 -119 -60 -189 -60c-92 0 -165 32 -219 96c-53 64 -80 144 -80 240h-146l-51 -324h-74l111 700h74l-49 -309h143c17 89 57 164 120 227s141 94 232 94c89 0 161 -31 216 -93s83 -139 83 -232zM676 57
c81 0 148 33 200 99c53 67 79 143 79 229c0 77 -22 139 -65 186c-43 48 -99 72 -167 72c-81 0 -148 -33 -201 -100c-52 -66 -78 -142 -78 -228c0 -77 22 -139 65 -187c43 -47 99 -71 167 -71z" />
    <glyph glyph-name="uni042F" unicode="&#x42f;" horiz-adv-x="736" 
d="M401 315l-269 -315h-86l275 325c-89 13 -141 79 -141 160c0 65 24 117 73 156s110 59 181 59h315l-111 -700h-74l50 315h-213zM386 382h239l39 251h-239c-47 0 -87 -13 -120 -38s-50 -60 -50 -107c0 -65 48 -106 131 -106z" />
    <glyph glyph-name="uni0430" unicode="&#x430;" horiz-adv-x="596" 
d="M549 57c10 0 19 2 27 6l-9 -58c-15 -7 -30 -10 -46 -10c-47 0 -84 23 -85 72c-53 -53 -117 -79 -193 -79c-52 0 -95 14 -128 42s-49 64 -49 109c0 55 20 96 60 125c41 29 90 44 147 44c67 0 129 -17 186 -51c6 39 9 64 9 73c0 67 -46 100 -139 100
c-64 0 -121 -13 -170 -39l12 68c45 24 103 36 173 36c55 0 102 -13 140 -38s57 -63 57 -116c0 -17 -3 -42 -9 -77l-20 -125c-3 -19 -4 -32 -4 -40c0 -28 14 -42 41 -42zM267 53c68 0 136 38 172 81l10 65c-47 33 -102 50 -165 50c-83 0 -147 -36 -147 -103
c0 -61 51 -93 130 -93z" />
    <glyph glyph-name="uni0431" unicode="&#x431;" horiz-adv-x="615" 
d="M436 606c-161 -28 -235 -105 -258 -250c47 61 122 105 213 105c63 0 114 -20 153 -61c40 -41 60 -91 60 -152c0 -71 -25 -133 -75 -184c-49 -51 -111 -76 -186 -76s-133 24 -176 73c-42 49 -63 114 -63 194c0 221 95 371 307 411c69 14 139 26 211 37l-10 -72
c-61 -7 -119 -16 -176 -25zM372 396c-45 0 -86 -14 -124 -42s-62 -58 -71 -91v-14c0 -115 58 -196 171 -196c51 0 95 19 130 56s53 83 53 137c0 89 -64 150 -159 150z" />
    <glyph glyph-name="uni0432" unicode="&#x432;" horiz-adv-x="574" 
d="M83 0l77 483h252c81 0 128 -48 128 -109c0 -59 -28 -101 -83 -124c49 -15 79 -53 79 -104c0 -95 -74 -146 -183 -146h-270zM393 420h-172l-22 -142h169c53 0 98 31 98 82c0 37 -28 60 -73 60zM166 63h190c63 1 108 32 108 89c0 40 -30 66 -82 66h-192z" />
    <glyph glyph-name="uni0433" unicode="&#x433;" horiz-adv-x="484" 
d="M155 0h-72l77 483h363l-10 -63h-291z" />
    <glyph glyph-name="uni0434" unicode="&#x434;" horiz-adv-x="648" 
d="M68 -143h-68l33 206h60c64 71 110 188 137 352l12 68h359l-66 -420h90l-33 -206h-70l23 143h-454zM174 63h289l56 357h-220l-4 -29c-24 -147 -64 -256 -121 -328z" />
    <glyph glyph-name="uni0435" unicode="&#x435;" horiz-adv-x="579" 
d="M351 53c52 0 102 14 151 43l-9 -68c-40 -27 -92 -40 -156 -40c-72 0 -131 21 -178 63c-47 43 -70 98 -70 167c0 75 25 140 75 195s113 82 190 82c67 0 119 -21 156 -63c37 -41 55 -90 55 -146c0 -23 -2 -43 -5 -62h-399c0 -111 78 -171 190 -171zM350 430
c-45 0 -85 -14 -119 -41c-33 -27 -55 -63 -64 -106h327c1 5 1 10 1 15c0 35 -13 66 -38 92c-25 27 -61 40 -107 40z" />
    <glyph glyph-name="uni0436" unicode="&#x436;" horiz-adv-x="811" 
d="M155 483h85l167 -206l33 206h72l-33 -205l238 205h91l-263 -229l210 -254h-89l-193 235l-38 -235h-72l38 234l-261 -234h-95l292 264z" />
    <glyph glyph-name="uni0437" unicode="&#x437;" horiz-adv-x="522" 
d="M391 259c53 -13 94 -51 94 -110c0 -51 -23 -91 -69 -119s-103 -42 -171 -42c-73 0 -133 11 -180 34l11 68c49 -25 104 -37 165 -37c47 0 87 8 120 23s50 40 50 74c0 48 -42 72 -125 72h-82l8 63h81c79 0 123 35 123 79s-42 66 -127 66c-55 0 -108 -11 -160 -32l10 66
c52 21 108 31 168 31c108 0 183 -48 183 -120c0 -59 -44 -104 -99 -116z" />
    <glyph glyph-name="uni0438" unicode="&#x438;" horiz-adv-x="611" 
d="M171 109l367 374h67l-77 -483h-72l59 374l-366 -374h-66l75 483h72z" />
    <glyph glyph-name="uni0439" unicode="&#x439;" horiz-adv-x="611" 
d="M171 109l367 374h67l-77 -483h-72l59 374l-366 -374h-66l75 483h72zM395 566c-88 0 -149 49 -149 125c0 5 1 14 2 26h60c-1 -4 -1 -10 -1 -17c0 -47 35 -78 92 -78c61 0 107 39 116 95h61c-16 -92 -89 -151 -181 -151z" />
    <glyph glyph-name="uni043A" unicode="&#x43a;" horiz-adv-x="541" 
d="M83 0l77 483h72l-32 -199l257 199h99l-288 -225l248 -258h-92l-231 240l-38 -240h-72z" />
    <glyph glyph-name="uni043B" unicode="&#x43b;" horiz-adv-x="600" 
d="M22 1l11 67c6 -1 14 -1 23 -1c67 0 116 87 148 262l28 154h362l-77 -483h-72l66 420h-220l-17 -93c-13 -73 -26 -122 -51 -183c-33 -88 -87 -142 -174 -145c-9 0 -18 1 -27 2z" />
    <glyph glyph-name="uni043C" unicode="&#x43c;" horiz-adv-x="690" 
d="M384 258l228 225h72l-76 -483h-69l60 383l-213 -208h-28l-146 209l-61 -384h-68l75 483h69z" />
    <glyph glyph-name="uni043D" unicode="&#x43d;" horiz-adv-x="607" 
d="M155 0h-72l77 483h72l-32 -203h297l32 203h72l-77 -483h-72l34 215h-297z" />
    <glyph glyph-name="uni043E" unicode="&#x43e;" horiz-adv-x="621" 
d="M358 495c73 0 132 -23 177 -69c45 -45 68 -102 68 -169c0 -74 -26 -137 -77 -190s-115 -79 -192 -79c-73 0 -133 23 -178 68c-45 46 -67 103 -67 170c0 74 26 137 77 190s115 79 192 79zM334 53c55 0 102 20 141 59c39 40 59 89 59 147c0 50 -16 91 -49 123
s-75 48 -127 48c-55 0 -103 -20 -142 -60c-39 -39 -58 -88 -58 -146c0 -50 16 -91 49 -123s75 -48 127 -48z" />
    <glyph glyph-name="uni043F" unicode="&#x43f;" horiz-adv-x="600" 
d="M155 0h-72l77 483h434l-77 -483h-72l66 420h-290z" />
    <glyph glyph-name="uni0440" unicode="&#x440;" horiz-adv-x="642" 
d="M406 495c66 0 119 -22 158 -66c40 -44 60 -98 60 -162c0 -77 -25 -143 -74 -198c-49 -54 -113 -81 -190 -81c-87 0 -155 44 -192 97l-46 -285h-72l108 683h73l-12 -68c47 53 110 80 187 80zM351 53c55 0 102 20 141 59c39 40 58 89 58 148c0 100 -67 170 -167 170
c-34 0 -68 -10 -102 -29c-33 -19 -58 -42 -75 -70l-27 -174c12 -27 34 -51 66 -72s67 -32 106 -32z" />
    <glyph glyph-name="uni0441" unicode="&#x441;" horiz-adv-x="520" 
d="M334 -12c-74 0 -133 22 -178 66c-45 45 -67 100 -67 166c0 79 27 144 81 196c54 53 120 79 199 79c62 0 115 -14 159 -42l-11 -66c-41 29 -88 43 -141 43c-61 0 -111 -20 -152 -59s-61 -88 -61 -147c0 -51 17 -92 52 -124c35 -31 79 -47 134 -47c47 0 92 12 135 36
l-11 -69c-41 -21 -87 -32 -139 -32z" />
    <glyph glyph-name="uni0442" unicode="&#x442;" horiz-adv-x="474" 
d="M273 0h-72l66 420h-175l11 63h422l-11 -63h-175z" />
    <glyph glyph-name="uni0443" unicode="&#x443;" horiz-adv-x="555" 
d="M515 483h80l-314 -543c-56 -97 -116 -144 -197 -144c-27 0 -52 6 -73 17l11 65c19 -11 40 -17 62 -17c63 0 105 47 169 158l-153 464h75l123 -383z" />
    <glyph glyph-name="uni0444" unicode="&#x444;" horiz-adv-x="739" 
d="M441 700h72l-33 -209c152 -17 241 -104 241 -227c0 -83 -29 -148 -88 -197c-58 -49 -135 -74 -232 -75l-29 -185h-72l29 185c-151 17 -240 106 -240 227c0 83 29 148 87 197s135 74 232 75zM338 55l60 376c-71 0 -128 -18 -173 -55s-67 -88 -67 -154
c0 -92 72 -156 180 -167zM471 428l-59 -376c70 0 127 18 172 55s67 89 67 154c0 92 -72 156 -180 167z" />
    <glyph glyph-name="uni0445" unicode="&#x445;" horiz-adv-x="560" 
d="M493 483h87l-220 -228l169 -255h-80l-136 205l-196 -205h-88l249 258l-148 225h79l116 -174z" />
    <glyph glyph-name="uni0446" unicode="&#x446;" horiz-adv-x="636" 
d="M580 -143h-69l23 143h-451l76 483h72l-66 -420h287l66 420h72l-66 -420h89z" />
    <glyph glyph-name="uni0447" unicode="&#x447;" horiz-adv-x="561" 
d="M483 483h72l-77 -483h-72l31 193c-50 -20 -102 -30 -155 -30c-107 0 -172 44 -172 140c0 13 3 34 8 63l19 117h72l-18 -119c-3 -23 -5 -40 -5 -49c0 -64 43 -87 120 -87c49 0 96 11 141 32z" />
    <glyph glyph-name="uni0448" unicode="&#x448;" horiz-adv-x="823" 
d="M740 0h-657l77 483h72l-66 -420h220l66 420h72l-66 -420h221l66 420h72z" />
    <glyph glyph-name="uni0449" unicode="&#x449;" horiz-adv-x="862" 
d="M806 -143h-65l23 143h-681l76 483h72l-66 -420h220l66 420h72l-66 -420h221l66 420h72l-66 -420h89z" />
    <glyph glyph-name="uni044A" unicode="&#x44a;" horiz-adv-x="636" 
d="M287 321h156c107 0 169 -56 169 -143c0 -53 -19 -96 -56 -129s-85 -49 -143 -49h-249l67 420h-149l11 63h220zM246 63h166c71 0 128 42 128 107c0 59 -43 88 -128 88h-135z" />
    <glyph glyph-name="uni044B" unicode="&#x44b;" horiz-adv-x="715" 
d="M561 0l76 483h72l-76 -483h-72zM206 321h131c107 0 169 -56 169 -143c0 -53 -19 -96 -56 -129s-85 -49 -143 -49h-224l77 483h72zM165 63h141c71 0 128 42 128 107c0 59 -43 88 -128 88h-110z" />
    <glyph glyph-name="uni044C" unicode="&#x44c;" horiz-adv-x="555" 
d="M206 321h156c107 0 169 -56 169 -143c0 -53 -19 -96 -56 -129s-85 -49 -143 -49h-249l77 483h72zM165 63h166c71 0 128 42 128 107c0 59 -43 88 -128 88h-135z" />
    <glyph glyph-name="uni044D" unicode="&#x44d;" horiz-adv-x="528" 
d="M72 32l10 67c43 -31 91 -46 145 -46c105 0 186 67 206 160h-236l9 60h230c-8 95 -82 157 -186 157c-45 0 -87 -11 -126 -32l11 70c36 18 80 27 131 27c73 0 132 -22 177 -67s67 -101 67 -168c0 -77 -27 -142 -81 -194c-53 -52 -119 -78 -197 -78c-61 0 -114 15 -160 44z
" />
    <glyph glyph-name="uni044E" unicode="&#x44e;" horiz-adv-x="807" 
d="M565 495c67 0 121 -22 162 -67s62 -101 62 -168c0 -72 -25 -135 -74 -190s-110 -82 -183 -82c-65 0 -118 21 -159 62c-41 42 -62 96 -65 162h-119l-34 -212h-72l77 483h72l-33 -207h114c11 62 40 114 86 156s101 63 166 63zM533 53c51 0 95 20 132 61s55 91 55 148
c0 49 -14 90 -43 121c-28 31 -65 47 -112 47c-52 0 -96 -20 -133 -60s-55 -89 -55 -148c0 -103 61 -169 156 -169z" />
    <glyph glyph-name="uni044F" unicode="&#x44f;" horiz-adv-x="574" 
d="M314 483h254l-77 -483h-72l29 182h-149l-166 -182h-82l176 194c-69 11 -107 57 -107 121c0 104 77 165 194 168zM291 241h166l29 182h-171c-68 0 -122 -37 -122 -106c0 -48 37 -76 98 -76z" />
    <glyph glyph-name="uni0451" unicode="&#x451;" horiz-adv-x="579" 
d="M351 53c52 0 102 14 151 43l-9 -68c-40 -27 -92 -40 -156 -40c-72 0 -131 21 -178 63c-47 43 -70 98 -70 167c0 75 25 140 75 195s113 82 190 82c67 0 119 -21 156 -63c37 -41 55 -90 55 -146c0 -23 -2 -43 -5 -62h-399c0 -111 78 -171 190 -171zM350 430
c-45 0 -85 -14 -119 -41c-33 -27 -55 -63 -64 -106h327c1 5 1 10 1 15c0 35 -13 66 -38 92c-25 27 -61 40 -107 40zM250 594c-19 19 -19 47 0 66s47 19 66 0s19 -47 0 -66s-47 -19 -66 0zM450 594c-19 19 -19 47 0 66s47 19 66 0s19 -47 0 -66s-47 -19 -66 0z" />
    <glyph glyph-name="uni0452" unicode="&#x452;" horiz-adv-x="629" 
d="M201 557h-103l10 63h103l13 80h72l-13 -80h142l-10 -63h-142l-34 -205c56 55 121 82 195 82c101 0 167 -64 167 -161c0 -19 -3 -45 -9 -80l-36 -225c-18 -115 -74 -172 -168 -172c-37 0 -64 6 -82 18l10 67c21 -13 43 -20 66 -20c63 0 90 35 103 116l36 215
c4 25 6 46 6 63c0 72 -48 111 -121 111c-35 0 -69 -10 -102 -29s-59 -42 -78 -67l-42 -270h-72z" />
    <glyph glyph-name="uni0453" unicode="&#x453;" horiz-adv-x="484" 
d="M155 0h-72l77 483h363l-10 -63h-291zM299 576l103 134h90l-123 -134h-70z" />
    <glyph glyph-name="uni0454" unicode="&#x454;" horiz-adv-x="520" 
d="M333 -12c-74 0 -133 22 -178 66c-44 45 -66 100 -66 166c0 79 27 144 80 196c54 53 120 79 199 79c63 0 116 -14 160 -42l-11 -66c-43 29 -90 43 -143 43c-107 0 -186 -59 -207 -155h232l-9 -63h-228c3 -100 77 -159 186 -159c48 0 93 12 136 36l-11 -69
c-41 -21 -87 -32 -140 -32z" />
    <glyph glyph-name="uni0455" unicode="&#x455;" horiz-adv-x="490" 
d="M485 441l-10 -69c-52 39 -113 58 -182 58c-67 0 -121 -22 -121 -75c0 -40 33 -54 128 -82c112 -33 162 -67 162 -135c0 -49 -20 -87 -61 -112s-89 -38 -145 -38c-88 0 -170 30 -213 62l10 70c57 -45 124 -67 203 -67c36 0 68 6 95 18s41 32 41 61c0 39 -38 56 -134 84
c-99 28 -158 63 -158 134c0 47 19 83 56 108c38 25 84 37 138 37c77 0 140 -18 191 -54z" />
    <glyph glyph-name="uni0456" unicode="&#x456;" horiz-adv-x="264" 
d="M232 700c28 0 50 -22 50 -51s-22 -51 -50 -51c-29 0 -51 22 -51 51s22 51 51 51zM168 0h-72l77 483h72z" />
    <glyph glyph-name="uni0457" unicode="&#x457;" horiz-adv-x="264" 
d="M100 612c-19 19 -19 50 0 67c19 19 47 19 66 0c19 -17 19 -48 0 -67c-19 -17 -47 -17 -66 0zM300 612c-19 19 -19 50 0 67c19 19 47 19 66 0c19 -17 19 -48 0 -67c-19 -17 -47 -17 -66 0zM169 0h-73l77 483h73z" />
    <glyph glyph-name="uni0458" unicode="&#x458;" horiz-adv-x="264" 
d="M-5 -204c-35 0 -63 6 -82 18l10 66c21 -13 43 -19 67 -19c57 0 90 32 100 97l83 525h72l-85 -536c-17 -104 -82 -151 -165 -151zM232 700c28 0 50 -22 50 -51s-22 -51 -50 -51c-29 0 -51 22 -51 51s22 51 51 51z" />
    <glyph glyph-name="uni0459" unicode="&#x459;" horiz-adv-x="916" 
d="M568 321h155c107 0 169 -56 169 -143c0 -53 -19 -96 -56 -129s-85 -49 -143 -49h-248l67 420h-221l-17 -93c-13 -73 -26 -122 -51 -183c-33 -88 -87 -142 -174 -145c-9 0 -18 1 -27 2l11 67c6 -1 14 -1 23 -1c67 0 116 87 148 262l28 154h362zM527 61h165
c71 0 128 41 128 108c0 59 -43 89 -128 89h-134z" />
    <glyph glyph-name="uni045A" unicode="&#x45a;" horiz-adv-x="890" 
d="M558 304h148c100 0 160 -54 160 -135c0 -50 -18 -91 -53 -122s-80 -47 -135 -47h-240l38 239h-283l-38 -239h-72l77 483h72l-28 -179h282l29 179h72zM520 63h158c64 0 116 37 116 97c0 53 -39 79 -116 79h-130z" />
    <glyph glyph-name="uni045B" unicode="&#x45b;" horiz-adv-x="629" 
d="M201 557h-103l10 63h103l13 80h72l-13 -80h142l-10 -63h-143l-33 -205c56 55 121 82 195 82c100 0 167 -63 167 -160c0 -19 -3 -45 -9 -80l-31 -194h-72l31 193c5 28 7 49 7 63c0 72 -47 110 -120 110c-35 0 -70 -10 -103 -30c-33 -19 -59 -41 -78 -66l-42 -270h-72z" />
    <glyph glyph-name="uni045C" unicode="&#x45c;" horiz-adv-x="541" 
d="M83 0l77 483h72l-32 -199l257 199h99l-288 -225l248 -258h-92l-231 240l-38 -240h-72zM305 576l103 134h90l-123 -134h-70z" />
    <glyph glyph-name="uni045E" unicode="&#x45e;" horiz-adv-x="555" 
d="M515 483h80l-314 -543c-56 -97 -116 -144 -197 -144c-27 0 -52 6 -73 17l11 65c19 -11 40 -17 62 -17c63 0 105 47 169 158l-153 464h75l123 -383zM356 566c-88 0 -149 49 -149 125c0 5 1 14 2 26h60c-1 -4 -1 -10 -1 -17c0 -47 35 -78 92 -78c61 0 107 39 116 95h61
c-16 -92 -89 -151 -181 -151z" />
    <glyph glyph-name="uni045F" unicode="&#x45f;" horiz-adv-x="596" 
d="M310 -143h-70l23 143h-180l76 483h72l-66 -420h287l66 420h72l-76 -483h-181z" />
    <glyph glyph-name="uni0490" unicode="&#x490;" horiz-adv-x="599" 
d="M173 0h-74l110 700h396l23 145h67l-33 -212h-389z" />
    <glyph glyph-name="uni0491" unicode="&#x491;" horiz-adv-x="484" 
d="M155 0h-72l76 483h296l21 131h67l-31 -194h-291z" />
    <glyph glyph-name="uni1E02" unicode="&#x1e02;" horiz-adv-x="726" 
d="M570 379c79 -17 128 -74 128 -158c0 -69 -24 -123 -73 -162c-48 -39 -110 -59 -186 -59h-340l111 700h295c112 0 181 -57 181 -148c0 -81 -40 -146 -116 -173zM494 633h-221l-36 -229h221c43 0 80 11 110 33c31 22 46 54 46 96c0 61 -45 100 -120 100zM227 339l-43 -272
h254c51 0 94 13 129 40s52 65 52 115c0 72 -51 117 -140 117h-252zM428 794c-17 19 -17 50 0 67c19 19 50 19 67 0c19 -17 19 -48 0 -67c-17 -17 -48 -17 -67 0z" />
    <glyph glyph-name="uni1E03" unicode="&#x1e03;" horiz-adv-x="642" 
d="M405 495c66 0 119 -22 159 -66s60 -98 60 -162c0 -77 -25 -143 -74 -198c-49 -54 -113 -81 -190 -81c-87 0 -155 43 -192 96l-13 -84h-72l111 700h72l-47 -286c48 54 110 81 186 81zM351 53c55 0 102 20 141 59c39 40 58 89 58 148c0 100 -67 170 -167 170
c-34 0 -68 -10 -102 -29c-33 -19 -58 -42 -75 -71l-27 -174c12 -27 34 -51 66 -72s67 -31 106 -31zM410 794c-17 19 -17 50 0 67c19 19 50 19 67 0c19 -17 19 -48 0 -67c-17 -17 -48 -17 -67 0z" />
    <glyph glyph-name="uni1E0A" unicode="&#x1e0a;" horiz-adv-x="780" 
d="M210 700h208c105 0 188 -29 251 -87c63 -57 95 -133 95 -227c0 -120 -42 -214 -125 -283s-191 -103 -324 -103h-216zM184 67h167c99 0 180 29 243 87s94 135 94 231c0 74 -25 134 -74 179c-49 46 -117 69 -203 69h-138zM436 794c-17 19 -17 50 0 67c19 19 50 19 67 0
c19 -17 19 -48 0 -67c-17 -17 -48 -17 -67 0z" />
    <glyph glyph-name="uni1E0B" unicode="&#x1e0b;" 
d="M307 -12c-67 0 -120 22 -159 65c-39 44 -59 98 -59 163c0 77 25 143 74 197c49 55 113 82 190 82c88 0 155 -43 191 -96l49 301h72l-110 -700h-73l11 69c-47 -54 -109 -81 -186 -81zM362 430c-55 0 -102 -20 -141 -60c-39 -39 -58 -88 -58 -147c0 -49 15 -90 45 -122
c31 -32 71 -48 121 -48c34 0 68 10 102 29c34 20 59 44 75 72l27 174c-11 27 -33 50 -65 71c-31 21 -67 31 -106 31zM424 794c-17 19 -17 50 0 67c19 19 50 19 67 0c19 -17 19 -48 0 -67c-17 -17 -48 -17 -67 0z" />
    <glyph glyph-name="uni1E1E" unicode="&#x1e1e;" horiz-adv-x="622" 
d="M173 0h-74l111 700h477l-11 -67h-403l-37 -233h327l-10 -67h-327zM428 794c-19 19 -19 50 0 67c19 19 47 19 66 0c19 -17 19 -48 0 -67c-19 -17 -47 -17 -66 0z" />
    <glyph glyph-name="uni1E1F" unicode="&#x1e1f;" horiz-adv-x="394" 
d="M123 0l67 420h-96l10 63h97l12 80c13 89 70 145 161 145c40 0 73 -6 99 -19l-11 -66c-28 13 -55 20 -81 20c-57 0 -90 -31 -99 -92l-10 -68h168l-10 -63h-168l-67 -420h-72zM344 794c-17 19 -17 50 0 67c19 19 50 19 67 0c19 -17 19 -48 0 -67c-17 -17 -48 -17 -67 0z
" />
    <glyph glyph-name="uni1E40" unicode="&#x1e40;" horiz-adv-x="847" 
d="M860 700l-110 -700h-73l93 587l-277 -305h-45l-183 306l-93 -588h-73l111 700h69l200 -339l305 339h76zM510 794c-19 19 -19 50 0 67c19 19 47 19 66 0c19 -17 19 -48 0 -67c-19 -17 -47 -17 -66 0z" />
    <glyph glyph-name="uni1E41" unicode="&#x1e41;" horiz-adv-x="920" 
d="M83 0l76 483h73l-12 -69c44 54 103 81 177 81c79 0 135 -37 146 -96c41 55 112 96 195 96c95 0 154 -55 154 -152c0 -15 -2 -36 -7 -64l-44 -279h-72l44 280c3 25 5 40 5 44c0 75 -46 103 -102 103c-71 0 -133 -42 -168 -99c-1 -12 -3 -31 -7 -56l-43 -272h-72l45 284
c3 20 4 34 4 42c0 72 -46 101 -99 101c-68 0 -124 -31 -169 -94l-52 -333h-72zM528 612c-19 19 -19 50 0 67c19 19 47 19 66 0c19 -17 19 -48 0 -67c-19 -17 -47 -17 -66 0z" />
    <glyph glyph-name="uni1E56" unicode="&#x1e56;" horiz-adv-x="665" 
d="M99 0l111 700h283c129 0 205 -68 205 -172c0 -65 -23 -117 -70 -158s-105 -61 -176 -61h-230l-49 -309h-74zM233 376h223c45 0 84 12 117 37s50 61 50 106c0 72 -49 114 -138 114h-212zM428 794c-17 19 -17 50 0 67c19 19 50 19 67 0c19 -17 19 -48 0 -67
c-17 -17 -48 -17 -67 0z" />
    <glyph glyph-name="uni1E57" unicode="&#x1e57;" horiz-adv-x="642" 
d="M406 495c66 0 119 -22 158 -66c40 -44 60 -98 60 -162c0 -77 -25 -143 -74 -198c-49 -54 -113 -81 -190 -81c-87 0 -155 44 -192 97l-46 -285h-72l108 683h73l-12 -68c47 53 110 80 187 80zM351 53c55 0 102 20 141 59c39 40 58 89 58 148c0 100 -67 170 -167 170
c-34 0 -68 -10 -102 -29c-33 -19 -58 -42 -75 -70l-27 -174c12 -27 34 -51 66 -72s67 -32 106 -32zM384 612c-19 19 -19 50 0 67c19 19 47 19 66 0c19 -17 19 -48 0 -67c-19 -17 -47 -17 -66 0z" />
    <glyph glyph-name="uni1E60" unicode="&#x1e60;" horiz-adv-x="626" 
d="M622 652l-11 -74c-64 43 -137 65 -220 65c-49 0 -91 -11 -128 -32c-36 -21 -54 -52 -54 -93c0 -34 19 -53 44 -71c15 -9 48 -20 65 -27l39 -12l39 -11c31 -10 57 -19 76 -28c20 -8 41 -19 64 -34c45 -28 67 -70 67 -125c0 -69 -28 -123 -83 -163
c-55 -39 -121 -59 -198 -59c-52 0 -103 7 -153 22c-49 15 -87 32 -112 53l12 79c23 -23 59 -43 107 -60s98 -25 149 -25c80 0 202 37 202 143c0 32 -16 58 -35 74c-9 8 -23 16 -42 24c-19 9 -34 15 -47 19s-32 10 -58 17c-56 16 -82 25 -123 45c-58 29 -83 65 -88 131
c0 65 25 114 76 149s113 53 186 53c92 0 167 -20 226 -60zM394 794c-19 19 -19 50 0 67c19 19 47 19 66 0c19 -17 19 -48 0 -67c-19 -17 -47 -17 -66 0z" />
    <glyph glyph-name="uni1E61" unicode="&#x1e61;" horiz-adv-x="496" 
d="M491 441l-10 -69c-52 39 -113 58 -182 58c-67 0 -121 -22 -121 -75c0 -40 33 -54 128 -82c112 -33 162 -67 162 -135c0 -49 -20 -87 -61 -112s-89 -38 -145 -38c-88 0 -170 30 -213 62l10 70c57 -45 124 -67 203 -67c36 0 68 6 95 18s41 32 41 61c0 39 -38 56 -134 84
c-99 28 -158 63 -158 134c0 47 19 83 56 108c38 25 84 37 138 37c77 0 140 -18 191 -54zM304 612c-19 19 -19 50 0 67c19 19 47 19 66 0c19 -17 19 -48 0 -67c-19 -17 -47 -17 -66 0z" />
    <glyph glyph-name="uni1E6A" unicode="&#x1e6a;" horiz-adv-x="630" 
d="M351 0h-74l100 633h-241l11 67h559l-11 -67h-244zM408 794c-19 19 -19 50 0 67c19 19 47 19 66 0c19 -17 19 -48 0 -67c-19 -17 -47 -17 -66 0z" />
    <glyph glyph-name="uni1E6B" unicode="&#x1e6b;" horiz-adv-x="430" 
d="M103 483h114l24 149h72l-23 -149h168l-10 -63h-169l-40 -251c-4 -23 -6 -41 -6 -55c0 -39 25 -58 74 -58c27 0 53 7 80 20l-9 -66c-22 -15 -55 -22 -100 -22c-80 0 -120 34 -120 103c0 16 2 33 5 51l44 278h-114zM258 704c-17 19 -17 50 0 67c19 19 50 19 67 0
c19 -17 19 -48 0 -67c-17 -17 -48 -17 -67 0z" />
    <glyph glyph-name="Wgrave" unicode="&#x1e80;" horiz-adv-x="1053" 
d="M325 117l275 584h60l90 -582l287 581h81l-352 -704h-65l-89 577l-272 -577h-65l-131 704h79zM503 896h90l89 -133h-68z" />
    <glyph glyph-name="wgrave" unicode="&#x1e81;" horiz-adv-x="819" 
d="M586 105l197 378h73l-251 -486h-61l-76 380l-196 -380h-62l-96 486h70l76 -377l193 379h59zM355 710h90l90 -134h-69z" />
    <glyph glyph-name="Wacute" unicode="&#x1e82;" horiz-adv-x="1053" 
d="M325 117l275 584h60l90 -582l287 581h81l-352 -704h-65l-89 577l-272 -577h-65l-131 704h79zM621 763l102 133h91l-124 -133h-69z" />
    <glyph glyph-name="wacute" unicode="&#x1e83;" horiz-adv-x="819" 
d="M586 105l197 378h73l-251 -486h-61l-76 380l-196 -380h-62l-96 486h70l76 -377l193 379h59zM472 576l103 134h90l-123 -134h-70z" />
    <glyph glyph-name="Wdieresis" unicode="&#x1e84;" horiz-adv-x="1053" 
d="M325 117l275 584h60l90 -582l287 581h81l-352 -704h-65l-89 577l-272 -577h-65l-131 704h79zM518 794c-17 19 -17 50 0 67c19 19 50 19 67 0c19 -17 19 -48 0 -67c-17 -17 -48 -17 -67 0zM718 794c-17 19 -17 50 0 67c19 19 50 19 67 0c19 -17 19 -48 0 -67
c-17 -17 -48 -17 -67 0z" />
    <glyph glyph-name="wdieresis" unicode="&#x1e85;" horiz-adv-x="819" 
d="M586 105l197 378h73l-251 -486h-61l-76 380l-196 -380h-62l-96 486h70l76 -377l193 379h59zM368 612c-17 19 -17 50 0 67c19 19 50 19 67 0c19 -17 19 -48 0 -67c-17 -17 -48 -17 -67 0zM568 612c-17 19 -17 50 0 67c19 19 50 19 67 0c19 -17 19 -48 0 -67
c-17 -17 -48 -17 -67 0z" />
    <glyph glyph-name="Ygrave" unicode="&#x1ef2;" horiz-adv-x="664" 
d="M388 390l270 310h89l-330 -378l-51 -322h-74l50 321l-213 379h82zM315 896h90l89 -133h-68z" />
    <glyph glyph-name="ygrave" unicode="&#x1ef3;" horiz-adv-x="555" 
d="M515 483h80l-314 -543c-56 -97 -116 -144 -197 -144c-27 0 -52 6 -73 17l11 65c19 -11 40 -17 62 -17c63 0 105 47 169 158l-153 464h75l123 -383zM227 710h90l90 -134h-69z" />
    <glyph glyph-name="endash" unicode="&#x2013;" horiz-adv-x="722" 
d="M663 239h-529l10 66h530z" />
    <glyph glyph-name="emdash" unicode="&#x2014;" horiz-adv-x="898" 
d="M839 239h-705l10 66h706z" />
    <glyph glyph-name="uni2015" unicode="&#x2015;" horiz-adv-x="722" 
d="M663 239h-529l10 66h530z" />
    <glyph glyph-name="quoteleft" unicode="&#x2018;" horiz-adv-x="216" 
d="M298 700l-120 -255h-86l145 255h61z" />
    <glyph glyph-name="quoteright" unicode="&#x2019;" horiz-adv-x="216" 
d="M97 445l120 255h86l-145 -255h-61z" />
    <glyph glyph-name="quotesinglbase" unicode="&#x201a;" horiz-adv-x="251" 
d="M5 -152l120 255h86l-145 -255h-61z" />
    <glyph glyph-name="quotedblleft" unicode="&#x201c;" horiz-adv-x="369" 
d="M451 700l-120 -255h-86l145 255h61zM298 700l-120 -255h-86l145 255h61z" />
    <glyph glyph-name="quotedblright" unicode="&#x201d;" horiz-adv-x="368" 
d="M249 445l120 255h86l-145 -255h-61zM97 445l120 255h86l-145 -255h-61z" />
    <glyph glyph-name="quotedblbase" unicode="&#x201e;" horiz-adv-x="403" 
d="M157 -152l120 255h86l-145 -255h-61zM5 -152l120 255h86l-145 -255h-61z" />
    <glyph glyph-name="dagger" unicode="&#x2020;" horiz-adv-x="540" 
d="M299 0h-69l67 420h-177l10 63h177l34 217h69l-34 -217h178l-10 -63h-178z" />
    <glyph glyph-name="daggerdbl" unicode="&#x2021;" horiz-adv-x="540" 
d="M554 483l-10 -63h-178l-25 -156h178l-10 -64h-178l-32 -200h-69l32 200h-177l10 64h177l25 156h-177l10 63h177l34 217h69l-34 -217h178z" />
    <glyph glyph-name="bullet" unicode="&#x2022;" horiz-adv-x="410" 
d="M257 494c31 0 58 -11 79 -33c22 -22 33 -48 33 -79c0 -61 -51 -111 -112 -111s-111 50 -111 111s50 112 111 112z" />
    <glyph glyph-name="ellipsis" unicode="&#x2026;" horiz-adv-x="671" 
d="M88 9c-20 20 -20 54 0 74s54 20 74 0s20 -54 0 -74s-54 -20 -74 0zM303 9c-20 20 -20 54 0 74s54 20 74 0s20 -54 0 -74s-54 -20 -74 0zM518 9c-20 20 -20 54 0 74s54 20 74 0s20 -54 0 -74s-54 -20 -74 0z" />
    <glyph glyph-name="perthousand" unicode="&#x2030;" horiz-adv-x="1205" 
d="M173 0l519 700h67l-518 -700h-68zM303 712c48 0 87 -15 116 -46c30 -31 45 -68 45 -112c0 -49 -17 -91 -51 -126c-33 -35 -75 -53 -125 -53c-48 0 -87 15 -117 46s-45 69 -45 114c0 48 17 89 51 124s76 53 126 53zM288 430c33 0 60 12 83 36c23 25 34 54 34 88
c0 59 -41 103 -102 103c-33 0 -60 -12 -83 -36s-34 -53 -34 -86c0 -60 42 -105 102 -105zM645 325c48 0 87 -15 117 -46s45 -68 45 -113c0 -49 -17 -91 -51 -126s-76 -52 -126 -52c-48 0 -87 15 -117 46s-45 69 -45 114c0 48 17 89 51 124s76 53 126 53zM630 43
c33 0 60 12 83 36c23 25 34 54 34 87c0 60 -41 104 -102 104c-33 0 -60 -12 -83 -36s-34 -53 -34 -86c0 -60 42 -105 102 -105zM1021 325c48 0 87 -15 116 -46c30 -31 45 -68 45 -113c0 -49 -17 -91 -51 -126c-33 -35 -75 -52 -125 -52c-48 0 -87 15 -117 46s-45 69 -45 114
c0 48 17 89 51 124s76 53 126 53zM1006 43c33 0 60 12 83 36c23 25 34 54 34 87c0 60 -41 104 -102 104c-33 0 -60 -12 -83 -36s-34 -53 -34 -86c0 -60 42 -105 102 -105z" />
    <glyph glyph-name="guilsinglleft" unicode="&#x2039;" horiz-adv-x="337" 
d="M266 40h-73l-122 183l6 37l178 183h78l-197 -206z" />
    <glyph glyph-name="guilsinglright" unicode="&#x203a;" horiz-adv-x="338" 
d="M140 443h73l123 -183l-6 -37l-179 -183h-78l198 206z" />
    <glyph glyph-name="fraction" unicode="&#x2044;" horiz-adv-x="193" 
d="M-150 0l522 700h71l-522 -700h-71z" />
    <glyph glyph-name="zerosuperior" unicode="&#x2070;" horiz-adv-x="400" 
d="M294 705c91 0 148 -68 148 -167c0 -56 -17 -107 -50 -153c-33 -45 -77 -68 -131 -68c-91 0 -148 68 -148 167c0 56 17 107 50 152c33 46 77 69 131 69zM262 373c35 0 62 17 83 52s32 72 32 113c0 61 -29 111 -85 111c-35 0 -62 -17 -83 -52c-20 -35 -30 -72 -30 -113
c0 -63 27 -111 83 -111z" />
    <glyph glyph-name="foursuperior" unicode="&#x2074;" horiz-adv-x="360" 
d="M330 322h-61l16 98h-198l8 45l234 235h61l-36 -229h59l-9 -51h-58zM317 624l-154 -153h130z" />
    <glyph glyph-name="fivesuperior" unicode="&#x2075;" horiz-adv-x="343" 
d="M238 566c81 0 134 -49 134 -113c0 -87 -73 -136 -169 -136c-47 0 -85 10 -115 29l10 60c31 -23 67 -34 106 -34c53 0 103 27 103 78c0 39 -32 67 -91 67c-26 0 -56 -4 -89 -13l56 196h201l-7 -54h-154l-25 -83c12 2 25 3 40 3z" />
    <glyph glyph-name="sixsuperior" unicode="&#x2076;" horiz-adv-x="356" 
d="M306 651c-67 0 -118 -46 -130 -125c24 29 58 43 103 43c65 0 113 -49 113 -112c0 -39 -14 -73 -41 -100s-62 -40 -105 -40c-84 0 -136 59 -136 152c0 61 17 115 51 163c34 49 82 73 143 73c39 0 70 -9 94 -26l-9 -56c-24 19 -52 28 -83 28zM259 519
c-38 0 -67 -17 -88 -52c-1 -6 0 -16 1 -31c7 -41 35 -68 75 -68c47 0 83 37 83 85c0 39 -28 66 -71 66z" />
    <glyph glyph-name="sevensuperior" unicode="&#x2077;" horiz-adv-x="322" 
d="M174 322h-70l217 324h-190l9 54h263l-8 -49z" />
    <glyph glyph-name="eightsuperior" unicode="&#x2078;" horiz-adv-x="359" 
d="M335 518c39 -15 64 -47 64 -87c0 -35 -15 -62 -45 -83c-29 -21 -64 -31 -104 -31c-41 0 -77 9 -108 28s-46 46 -46 80c0 49 36 91 91 102c-31 15 -47 40 -47 74c0 61 61 104 134 104c34 0 64 -9 91 -26s41 -40 41 -71c0 -44 -31 -78 -71 -90zM198 595
c0 -33 33 -54 72 -54c40 0 76 22 76 58c0 33 -33 55 -74 55c-37 0 -74 -23 -74 -59zM336 436c0 36 -38 63 -86 63s-90 -26 -90 -67c0 -37 40 -63 87 -63s89 26 89 67z" />
    <glyph glyph-name="ninesuperior" unicode="&#x2079;" horiz-adv-x="357" 
d="M206 371c65 0 117 46 129 125c-24 -29 -58 -43 -102 -43c-67 0 -114 49 -114 112c0 39 14 72 41 99s62 41 105 41c84 0 136 -59 136 -152c0 -61 -17 -115 -51 -164c-34 -48 -82 -72 -143 -72c-39 0 -70 9 -93 26l8 56c24 -19 52 -28 84 -28zM253 503c37 0 66 17 87 52
c1 11 1 21 -1 31c-7 41 -35 68 -75 68c-47 0 -82 -36 -82 -85c0 -39 28 -66 71 -66z" />
    <glyph glyph-name="zeroinferior" unicode="&#x2080;" horiz-adv-x="400" 
d="M244 383c91 0 148 -68 148 -167c0 -56 -17 -107 -50 -153c-33 -45 -77 -68 -131 -68c-91 0 -148 68 -148 167c0 56 17 107 50 152c33 46 77 69 131 69zM212 51c35 0 62 17 83 52s32 72 32 113c0 61 -29 111 -85 111c-35 0 -62 -17 -83 -52c-20 -35 -30 -72 -30 -113
c0 -63 27 -111 83 -111z" />
    <glyph glyph-name="oneinferior" unicode="&#x2081;" horiz-adv-x="252" 
d="M191 0h-63l50 312l-112 -59l9 64l115 61h60z" />
    <glyph glyph-name="twoinferior" unicode="&#x2082;" horiz-adv-x="351" 
d="M90 284l10 64c32 23 69 35 111 35c73 0 125 -43 125 -110c0 -51 -33 -92 -101 -147l-91 -73h179l-9 -53h-270l8 45l135 109c60 47 85 76 85 111c0 37 -29 62 -72 62c-35 0 -72 -14 -110 -43z" />
    <glyph glyph-name="threeinferior" unicode="&#x2083;" horiz-adv-x="327" 
d="M337 378l-7 -46l-114 -97c53 -8 97 -44 97 -103c0 -42 -15 -75 -46 -100s-69 -37 -114 -37c-53 0 -94 11 -123 32l10 59c27 -24 64 -36 110 -36c53 0 101 31 101 80c0 39 -35 63 -84 63c-17 0 -32 -2 -45 -6l6 41l117 96h-156l8 54h240z" />
    <glyph glyph-name="fourinferior" unicode="&#x2084;" horiz-adv-x="360" 
d="M280 0h-61l16 98h-198l8 45l234 235h61l-36 -229h59l-9 -51h-58zM267 302l-154 -153h130z" />
    <glyph glyph-name="fiveinferior" unicode="&#x2085;" horiz-adv-x="343" 
d="M188 244c81 0 134 -49 134 -113c0 -87 -73 -136 -169 -136c-47 0 -85 10 -115 29l10 60c31 -23 67 -34 106 -34c53 0 103 27 103 78c0 39 -32 67 -91 67c-26 0 -56 -4 -89 -13l56 196h201l-7 -54h-154l-25 -83c12 2 25 3 40 3z" />
    <glyph glyph-name="sixinferior" unicode="&#x2086;" horiz-adv-x="356" 
d="M256 329c-67 0 -118 -46 -130 -125c24 29 58 43 103 43c65 0 113 -49 113 -112c0 -39 -14 -73 -41 -100s-62 -40 -105 -40c-84 0 -136 59 -136 152c0 61 17 115 51 163c34 49 82 73 143 73c39 0 70 -9 94 -26l-9 -56c-24 19 -52 28 -83 28zM209 197
c-38 0 -67 -17 -88 -52c-1 -6 0 -16 1 -31c7 -41 35 -68 75 -68c47 0 83 37 83 85c0 39 -28 66 -71 66z" />
    <glyph glyph-name="seveninferior" unicode="&#x2087;" horiz-adv-x="322" 
d="M124 0h-70l217 324h-190l9 54h263l-8 -49z" />
    <glyph glyph-name="eightinferior" unicode="&#x2088;" horiz-adv-x="359" 
d="M285 196c39 -15 64 -47 64 -87c0 -35 -15 -62 -45 -83c-29 -21 -64 -31 -104 -31c-41 0 -77 9 -108 28s-46 46 -46 80c0 49 36 91 91 102c-31 15 -47 40 -47 74c0 61 61 104 134 104c34 0 64 -9 91 -26s41 -40 41 -71c0 -44 -31 -78 -71 -90zM148 273
c0 -33 33 -54 72 -54c40 0 76 22 76 58c0 33 -33 55 -74 55c-37 0 -74 -23 -74 -59zM286 114c0 36 -38 63 -86 63s-90 -26 -90 -67c0 -37 40 -63 87 -63s89 26 89 67z" />
    <glyph glyph-name="nineinferior" unicode="&#x2089;" horiz-adv-x="357" 
d="M160 49c65 0 117 46 129 125c-24 -29 -58 -43 -102 -43c-67 0 -114 49 -114 112c0 39 14 72 41 99s62 41 105 41c84 0 136 -59 136 -152c0 -61 -17 -115 -51 -164c-34 -48 -82 -72 -143 -72c-39 0 -70 9 -93 26l8 56c24 -19 52 -28 84 -28zM207 181c37 0 66 17 87 52
c1 11 1 21 -1 31c-7 41 -35 68 -75 68c-47 0 -82 -36 -82 -85c0 -39 28 -66 71 -66z" />
    <glyph glyph-name="franc" unicode="&#x20a3;" horiz-adv-x="638" 
d="M189 0h-74l24 148h-114l11 63h113l77 489h477l-10 -67h-404l-37 -233h329l-11 -67h-329l-18 -122h173l-10 -63h-174z" />
    <glyph glyph-name="lira" unicode="&#x20a4;" horiz-adv-x="589" 
d="M531 439l-10 -63h-256l-16 -93h258l-12 -63h-256l-15 -93c-5 -29 -16 -49 -32 -60h348l-11 -67h-469l10 67h20c15 0 27 5 37 16c20 21 23 41 30 80l9 57h-71l11 63h70l15 93h-70l10 63h70l9 53c23 141 119 221 262 221c65 0 117 -15 157 -44l-11 -71
c-38 31 -86 46 -145 46c-105 0 -173 -60 -192 -169l-6 -36h256z" />
    <glyph glyph-name="peseta" unicode="&#x20a7;" horiz-adv-x="720" 
d="M188 535l26 165h283c127 0 201 -65 205 -165h69l-11 -63h-65c-13 -49 -41 -89 -85 -119c-43 -29 -95 -44 -154 -44h-230l-49 -309h-74l75 472h-75l11 63h74zM237 376h223c45 0 84 12 117 37s50 61 50 106c0 72 -49 114 -138 114h-212z" />
    <glyph glyph-name="Euro" unicode="&#x20ac;" horiz-adv-x="689" 
d="M82 253l9 63h82c0 29 4 60 11 93h-77l10 63h83c52 145 172 240 333 240c73 0 134 -18 183 -55l-12 -71c-51 38 -108 57 -171 57c-119 0 -210 -66 -255 -171h263l-9 -63h-274c-7 -31 -11 -62 -11 -93h270l-10 -63h-256c11 -65 38 -114 81 -147c44 -33 96 -49 155 -49
c70 0 131 21 182 62l-11 -79c-49 -35 -110 -52 -182 -52c-77 0 -144 22 -200 67s-89 111 -100 198h-94z" />
    <glyph glyph-name="uni20B4" unicode="&#x20b4;" horiz-adv-x="607" 
d="M338 -12c-63 0 -115 12 -156 36s-61 59 -61 105c0 56 26 101 78 134h-97l11 63h483l-10 -63h-287c-66 -35 -99 -76 -99 -121c0 -57 50 -85 151 -85c62 0 120 12 174 37l-10 -71c-54 -23 -113 -35 -177 -35zM389 712c61 0 111 -12 150 -36s59 -58 59 -102
c0 -45 -21 -84 -64 -116h83l-10 -63h-483l10 63h308c51 30 77 65 77 106c0 53 -48 79 -145 79c-60 0 -115 -11 -164 -32l10 70c48 21 104 31 169 31z" />
    <glyph glyph-name="uni20B6" unicode="&#x20b6;" horiz-adv-x="681" 
d="M467 313h-218l-14 -93h293l-12 -63h-292l-24 -157h-73l24 157h-98l11 63h97l15 93h-99l11 63h98l51 324h270c129 0 206 -72 206 -176c0 -63 -23 -114 -70 -153c-46 -39 -105 -58 -176 -58zM496 633h-195l-42 -257h206c45 0 85 13 118 39c34 26 51 62 51 107
c0 72 -51 111 -138 111z" />
    <glyph glyph-name="uni20B6" unicode="&#x20cf;" horiz-adv-x="681" 
d="M467 313h-218l-14 -93h293l-12 -63h-292l-24 -157h-73l24 157h-98l11 63h97l15 93h-99l11 63h98l51 324h270c129 0 206 -72 206 -176c0 -63 -23 -114 -70 -153c-46 -39 -105 -58 -176 -58zM496 633h-195l-42 -257h206c45 0 85 13 118 39c34 26 51 62 51 107
c0 72 -51 111 -138 111z" />
    <glyph glyph-name="uni20B6" unicode="&#x20ce;" horiz-adv-x="681" 
d="M467 313h-218l-14 -93h293l-12 -63h-292l-24 -157h-73l24 157h-98l11 63h97l15 93h-99l11 63h98l51 324h270c129 0 206 -72 206 -176c0 -63 -23 -114 -70 -153c-46 -39 -105 -58 -176 -58zM496 633h-195l-42 -257h206c45 0 85 13 118 39c34 26 51 62 51 107
c0 72 -51 111 -138 111z" />
    <glyph glyph-name="uni20B6" unicode="&#x20cd;" horiz-adv-x="681" 
d="M467 313h-218l-14 -93h293l-12 -63h-292l-24 -157h-73l24 157h-98l11 63h97l15 93h-99l11 63h98l51 324h270c129 0 206 -72 206 -176c0 -63 -23 -114 -70 -153c-46 -39 -105 -58 -176 -58zM496 633h-195l-42 -257h206c45 0 85 13 118 39c34 26 51 62 51 107
c0 72 -51 111 -138 111z" />
    <glyph glyph-name="uni20B6" unicode="&#x20cc;" horiz-adv-x="681" 
d="M467 313h-218l-14 -93h293l-12 -63h-292l-24 -157h-73l24 157h-98l11 63h97l15 93h-99l11 63h98l51 324h270c129 0 206 -72 206 -176c0 -63 -23 -114 -70 -153c-46 -39 -105 -58 -176 -58zM496 633h-195l-42 -257h206c45 0 85 13 118 39c34 26 51 62 51 107
c0 72 -51 111 -138 111z" />
    <glyph glyph-name="uni20B6" unicode="&#x20cb;" horiz-adv-x="681" 
d="M467 313h-218l-14 -93h293l-12 -63h-292l-24 -157h-73l24 157h-98l11 63h97l15 93h-99l11 63h98l51 324h270c129 0 206 -72 206 -176c0 -63 -23 -114 -70 -153c-46 -39 -105 -58 -176 -58zM496 633h-195l-42 -257h206c45 0 85 13 118 39c34 26 51 62 51 107
c0 72 -51 111 -138 111z" />
    <glyph glyph-name="uni20B6" unicode="&#x20ca;" horiz-adv-x="681" 
d="M467 313h-218l-14 -93h293l-12 -63h-292l-24 -157h-73l24 157h-98l11 63h97l15 93h-99l11 63h98l51 324h270c129 0 206 -72 206 -176c0 -63 -23 -114 -70 -153c-46 -39 -105 -58 -176 -58zM496 633h-195l-42 -257h206c45 0 85 13 118 39c34 26 51 62 51 107
c0 72 -51 111 -138 111z" />
    <glyph glyph-name="uni20B6" unicode="&#x20c9;" horiz-adv-x="681" 
d="M467 313h-218l-14 -93h293l-12 -63h-292l-24 -157h-73l24 157h-98l11 63h97l15 93h-99l11 63h98l51 324h270c129 0 206 -72 206 -176c0 -63 -23 -114 -70 -153c-46 -39 -105 -58 -176 -58zM496 633h-195l-42 -257h206c45 0 85 13 118 39c34 26 51 62 51 107
c0 72 -51 111 -138 111z" />
    <glyph glyph-name="uni20B6" unicode="&#x20c8;" horiz-adv-x="681" 
d="M467 313h-218l-14 -93h293l-12 -63h-292l-24 -157h-73l24 157h-98l11 63h97l15 93h-99l11 63h98l51 324h270c129 0 206 -72 206 -176c0 -63 -23 -114 -70 -153c-46 -39 -105 -58 -176 -58zM496 633h-195l-42 -257h206c45 0 85 13 118 39c34 26 51 62 51 107
c0 72 -51 111 -138 111z" />
    <glyph glyph-name="uni20B6" unicode="&#x20c7;" horiz-adv-x="681" 
d="M467 313h-218l-14 -93h293l-12 -63h-292l-24 -157h-73l24 157h-98l11 63h97l15 93h-99l11 63h98l51 324h270c129 0 206 -72 206 -176c0 -63 -23 -114 -70 -153c-46 -39 -105 -58 -176 -58zM496 633h-195l-42 -257h206c45 0 85 13 118 39c34 26 51 62 51 107
c0 72 -51 111 -138 111z" />
    <glyph glyph-name="uni20B6" unicode="&#x20c6;" horiz-adv-x="681" 
d="M467 313h-218l-14 -93h293l-12 -63h-292l-24 -157h-73l24 157h-98l11 63h97l15 93h-99l11 63h98l51 324h270c129 0 206 -72 206 -176c0 -63 -23 -114 -70 -153c-46 -39 -105 -58 -176 -58zM496 633h-195l-42 -257h206c45 0 85 13 118 39c34 26 51 62 51 107
c0 72 -51 111 -138 111z" />
    <glyph glyph-name="uni20B6" unicode="&#x20c5;" horiz-adv-x="681" 
d="M467 313h-218l-14 -93h293l-12 -63h-292l-24 -157h-73l24 157h-98l11 63h97l15 93h-99l11 63h98l51 324h270c129 0 206 -72 206 -176c0 -63 -23 -114 -70 -153c-46 -39 -105 -58 -176 -58zM496 633h-195l-42 -257h206c45 0 85 13 118 39c34 26 51 62 51 107
c0 72 -51 111 -138 111z" />
    <glyph glyph-name="uni20B6" unicode="&#x20c4;" horiz-adv-x="681" 
d="M467 313h-218l-14 -93h293l-12 -63h-292l-24 -157h-73l24 157h-98l11 63h97l15 93h-99l11 63h98l51 324h270c129 0 206 -72 206 -176c0 -63 -23 -114 -70 -153c-46 -39 -105 -58 -176 -58zM496 633h-195l-42 -257h206c45 0 85 13 118 39c34 26 51 62 51 107
c0 72 -51 111 -138 111z" />
    <glyph glyph-name="uni20B6" unicode="&#x20c3;" horiz-adv-x="681" 
d="M467 313h-218l-14 -93h293l-12 -63h-292l-24 -157h-73l24 157h-98l11 63h97l15 93h-99l11 63h98l51 324h270c129 0 206 -72 206 -176c0 -63 -23 -114 -70 -153c-46 -39 -105 -58 -176 -58zM496 633h-195l-42 -257h206c45 0 85 13 118 39c34 26 51 62 51 107
c0 72 -51 111 -138 111z" />
    <glyph glyph-name="uni20B6" unicode="&#x20c2;" horiz-adv-x="681" 
d="M467 313h-218l-14 -93h293l-12 -63h-292l-24 -157h-73l24 157h-98l11 63h97l15 93h-99l11 63h98l51 324h270c129 0 206 -72 206 -176c0 -63 -23 -114 -70 -153c-46 -39 -105 -58 -176 -58zM496 633h-195l-42 -257h206c45 0 85 13 118 39c34 26 51 62 51 107
c0 72 -51 111 -138 111z" />
    <glyph glyph-name="uni20B6" unicode="&#x20c1;" horiz-adv-x="681" 
d="M467 313h-218l-14 -93h293l-12 -63h-292l-24 -157h-73l24 157h-98l11 63h97l15 93h-99l11 63h98l51 324h270c129 0 206 -72 206 -176c0 -63 -23 -114 -70 -153c-46 -39 -105 -58 -176 -58zM496 633h-195l-42 -257h206c45 0 85 13 118 39c34 26 51 62 51 107
c0 72 -51 111 -138 111z" />
    <glyph glyph-name="uni20B6" unicode="&#x20c0;" horiz-adv-x="681" 
d="M467 313h-218l-14 -93h293l-12 -63h-292l-24 -157h-73l24 157h-98l11 63h97l15 93h-99l11 63h98l51 324h270c129 0 206 -72 206 -176c0 -63 -23 -114 -70 -153c-46 -39 -105 -58 -176 -58zM496 633h-195l-42 -257h206c45 0 85 13 118 39c34 26 51 62 51 107
c0 72 -51 111 -138 111z" />
    <glyph glyph-name="uni20B6" unicode="&#x20bf;" horiz-adv-x="681" 
d="M467 313h-218l-14 -93h293l-12 -63h-292l-24 -157h-73l24 157h-98l11 63h97l15 93h-99l11 63h98l51 324h270c129 0 206 -72 206 -176c0 -63 -23 -114 -70 -153c-46 -39 -105 -58 -176 -58zM496 633h-195l-42 -257h206c45 0 85 13 118 39c34 26 51 62 51 107
c0 72 -51 111 -138 111z" />
    <glyph glyph-name="uni20B6" unicode="&#x20be;" horiz-adv-x="681" 
d="M467 313h-218l-14 -93h293l-12 -63h-292l-24 -157h-73l24 157h-98l11 63h97l15 93h-99l11 63h98l51 324h270c129 0 206 -72 206 -176c0 -63 -23 -114 -70 -153c-46 -39 -105 -58 -176 -58zM496 633h-195l-42 -257h206c45 0 85 13 118 39c34 26 51 62 51 107
c0 72 -51 111 -138 111z" />
    <glyph glyph-name="uni20B6" unicode="&#x20bd;" horiz-adv-x="681" 
d="M467 313h-218l-14 -93h293l-12 -63h-292l-24 -157h-73l24 157h-98l11 63h97l15 93h-99l11 63h98l51 324h270c129 0 206 -72 206 -176c0 -63 -23 -114 -70 -153c-46 -39 -105 -58 -176 -58zM496 633h-195l-42 -257h206c45 0 85 13 118 39c34 26 51 62 51 107
c0 72 -51 111 -138 111z" />
    <glyph glyph-name="uni20B6" unicode="&#x20bc;" horiz-adv-x="681" 
d="M467 313h-218l-14 -93h293l-12 -63h-292l-24 -157h-73l24 157h-98l11 63h97l15 93h-99l11 63h98l51 324h270c129 0 206 -72 206 -176c0 -63 -23 -114 -70 -153c-46 -39 -105 -58 -176 -58zM496 633h-195l-42 -257h206c45 0 85 13 118 39c34 26 51 62 51 107
c0 72 -51 111 -138 111z" />
    <glyph glyph-name="uni20B6" unicode="&#x20bb;" horiz-adv-x="681" 
d="M467 313h-218l-14 -93h293l-12 -63h-292l-24 -157h-73l24 157h-98l11 63h97l15 93h-99l11 63h98l51 324h270c129 0 206 -72 206 -176c0 -63 -23 -114 -70 -153c-46 -39 -105 -58 -176 -58zM496 633h-195l-42 -257h206c45 0 85 13 118 39c34 26 51 62 51 107
c0 72 -51 111 -138 111z" />
    <glyph glyph-name="uni20B6" unicode="&#x20ba;" horiz-adv-x="681" 
d="M467 313h-218l-14 -93h293l-12 -63h-292l-24 -157h-73l24 157h-98l11 63h97l15 93h-99l11 63h98l51 324h270c129 0 206 -72 206 -176c0 -63 -23 -114 -70 -153c-46 -39 -105 -58 -176 -58zM496 633h-195l-42 -257h206c45 0 85 13 118 39c34 26 51 62 51 107
c0 72 -51 111 -138 111z" />
    <glyph glyph-name="uni20B6" unicode="&#x20b9;" horiz-adv-x="681" 
d="M467 313h-218l-14 -93h293l-12 -63h-292l-24 -157h-73l24 157h-98l11 63h97l15 93h-99l11 63h98l51 324h270c129 0 206 -72 206 -176c0 -63 -23 -114 -70 -153c-46 -39 -105 -58 -176 -58zM496 633h-195l-42 -257h206c45 0 85 13 118 39c34 26 51 62 51 107
c0 72 -51 111 -138 111z" />
    <glyph glyph-name="uni20B6" unicode="&#x20b7;" horiz-adv-x="681" 
d="M467 313h-218l-14 -93h293l-12 -63h-292l-24 -157h-73l24 157h-98l11 63h97l15 93h-99l11 63h98l51 324h270c129 0 206 -72 206 -176c0 -63 -23 -114 -70 -153c-46 -39 -105 -58 -176 -58zM496 633h-195l-42 -257h206c45 0 85 13 118 39c34 26 51 62 51 107
c0 72 -51 111 -138 111z" />
    <glyph glyph-name="uni2113" unicode="&#x2113;" horiz-adv-x="434" 
d="M179 181l-4 -19c-3 -19 -4 -32 -4 -41c0 -45 29 -68 86 -68c35 0 67 10 98 31l-10 -67c-29 -19 -65 -29 -110 -29c-87 0 -130 39 -130 117c0 15 2 33 6 56l51 329c20 131 85 218 186 218c72 0 116 -48 116 -120c0 -121 -95 -257 -285 -407zM228 494l-35 -227
c139 121 209 224 209 311c0 41 -23 65 -60 65c-51 0 -98 -46 -114 -149z" />
    <glyph glyph-name="uni2116" unicode="&#x2116;" horiz-adv-x="1144" 
d="M677 0h-63l-353 580l-90 -580h-72l111 700h62l352 -578l92 578h72zM1112 243h-299l9 63h299zM1015 712c48 0 87 -15 116 -46c30 -31 45 -68 45 -112c0 -49 -17 -91 -51 -126c-33 -35 -75 -53 -125 -53c-48 0 -87 15 -117 46s-45 69 -45 114c0 48 17 89 51 124
s76 53 126 53zM1000 430c33 0 60 12 83 36c23 25 34 54 34 88c0 59 -41 103 -102 103c-33 0 -60 -12 -83 -36s-34 -53 -34 -86c0 -60 42 -105 102 -105z" />
    <glyph glyph-name="trademark" unicode="&#x2122;" horiz-adv-x="686" 
d="M434 391h-49l38 309h44l87 -135l119 135h48l-37 -309h-50l30 233l-101 -111h-26l-74 111zM226 391h-49l32 266h-100l5 43h253l-6 -43h-103z" />
    <glyph glyph-name="Omega" unicode="&#x2126;" horiz-adv-x="804" 
d="M766 417c0 -136 -62 -262 -170 -350h118l-10 -67h-211l9 58c57 39 102 90 136 152s51 128 51 197c0 65 -18 121 -54 167c-35 46 -86 69 -152 69c-76 0 -138 -33 -186 -99c-48 -65 -72 -139 -72 -221c0 -52 9 -102 28 -151s42 -87 69 -114l-9 -58h-209l10 67h125
c-53 64 -88 161 -88 261c0 64 13 125 39 182c27 58 66 106 118 144c52 39 111 58 178 58c83 0 150 -27 202 -82c52 -54 78 -125 78 -213z" />
    <glyph glyph-name="estimated" unicode="&#x212e;" horiz-adv-x="807" 
d="M431 12c125 0 237 69 294 177h28c-29 -59 -73 -108 -130 -145s-122 -56 -193 -56c-89 0 -163 28 -221 84c-57 57 -86 129 -86 216c0 99 34 183 103 254s155 107 258 107c89 0 163 -29 220 -86c58 -57 87 -127 87 -212c0 -13 -1 -23 -2 -31h-571l-20 -193
c49 -73 133 -115 233 -115zM239 518l-19 -174h478l18 167c-55 76 -133 114 -233 114c-97 0 -178 -36 -244 -107z" />
    <glyph glyph-name="onethird" unicode="&#x2153;" horiz-adv-x="791" 
d="M116 0l522 700h71l-522 -700h-71zM242 322h-63l50 312l-112 -59l9 64l115 61h60zM801 378l-7 -46l-114 -97c53 -8 97 -44 97 -103c0 -42 -15 -75 -46 -100s-69 -37 -114 -37c-53 0 -94 11 -123 32l10 59c27 -24 64 -36 110 -36c53 0 101 31 101 80c0 39 -35 63 -84 63
c-17 0 -32 -2 -45 -6l6 41l117 96h-156l8 54h240z" />
    <glyph glyph-name="twothirds" unicode="&#x2154;" horiz-adv-x="897" 
d="M140 606l10 64c32 23 69 35 111 35c73 0 125 -43 125 -110c0 -51 -33 -92 -101 -147l-91 -73h179l-9 -53h-270l8 45l135 109c60 47 85 76 85 111c0 37 -29 62 -72 62c-35 0 -72 -14 -110 -43zM907 378l-7 -46l-114 -97c53 -8 97 -44 97 -103c0 -42 -15 -75 -46 -100
s-69 -37 -114 -37c-53 0 -94 11 -123 32l10 59c27 -24 64 -36 110 -36c53 0 101 31 101 80c0 39 -35 63 -84 63c-17 0 -32 -2 -45 -6l6 41l117 96h-156l8 54h240zM221 0l522 700h71l-522 -700h-71z" />
    <glyph glyph-name="uni2155" unicode="&#x2155;" horiz-adv-x="775" 
d="M116 0l522 700h71l-522 -700h-71zM242 322h-63l50 312l-112 -59l9 64l115 61h60zM620 244c81 0 134 -49 134 -113c0 -87 -73 -136 -169 -136c-47 0 -85 10 -115 29l10 60c31 -23 67 -34 106 -34c53 0 103 27 103 78c0 39 -32 67 -91 67c-26 0 -56 -4 -89 -13l56 196h201
l-7 -54h-154l-25 -83c12 2 25 3 40 3z" />
    <glyph glyph-name="uni2156" unicode="&#x2156;" horiz-adv-x="880" 
d="M725 244c81 0 134 -49 134 -113c0 -87 -73 -136 -169 -136c-47 0 -85 10 -115 29l10 60c31 -23 67 -34 106 -34c53 0 103 27 103 78c0 39 -32 67 -91 67c-26 0 -56 -4 -89 -13l56 196h201l-7 -54h-154l-25 -83c12 2 25 3 40 3zM140 606l10 64c32 23 69 35 111 35
c73 0 125 -43 125 -110c0 -51 -33 -92 -101 -147l-91 -73h179l-9 -53h-270l8 45l135 109c60 47 85 76 85 111c0 37 -29 62 -72 62c-35 0 -72 -14 -110 -43zM221 0l522 700h71l-522 -700h-71z" />
    <glyph glyph-name="uni2157" unicode="&#x2157;" horiz-adv-x="819" 
d="M664 244c81 0 134 -49 134 -113c0 -87 -73 -136 -169 -136c-47 0 -85 10 -115 29l10 60c31 -23 67 -34 106 -34c53 0 103 27 103 78c0 39 -32 67 -91 67c-26 0 -56 -4 -89 -13l56 196h201l-7 -54h-154l-25 -83c12 2 25 3 40 3zM387 700l-7 -46l-114 -97
c53 -8 97 -44 97 -103c0 -42 -15 -75 -46 -100s-69 -37 -114 -37c-53 0 -94 11 -123 32l10 59c27 -24 64 -36 110 -36c53 0 101 31 101 80c0 39 -35 63 -84 63c-17 0 -32 -2 -45 -6l6 41l117 96h-156l8 54h240zM160 0l522 700h71l-522 -700h-71z" />
    <glyph glyph-name="uni2158" unicode="&#x2158;" horiz-adv-x="863" 
d="M330 322h-61l16 98h-198l8 45l234 235h61l-36 -229h59l-9 -51h-58zM317 624l-154 -153h130zM708 244c81 0 134 -49 134 -113c0 -87 -73 -136 -169 -136c-47 0 -85 10 -115 29l10 60c31 -23 67 -34 106 -34c53 0 103 27 103 78c0 39 -32 67 -91 67c-26 0 -56 -4 -89 -13
l56 196h201l-7 -54h-154l-25 -83c12 2 25 3 40 3zM204 0l522 700h71l-522 -700h-71z" />
    <glyph glyph-name="uni2159" unicode="&#x2159;" horiz-adv-x="777" 
d="M116 0l522 700h71l-522 -700h-71zM242 322h-63l50 312l-112 -59l9 64l115 61h60zM677 329c-67 0 -118 -46 -130 -125c24 29 58 43 103 43c65 0 113 -49 113 -112c0 -39 -14 -73 -41 -100s-62 -40 -105 -40c-84 0 -136 59 -136 152c0 61 17 115 51 163c34 49 82 73 143 73
c39 0 70 -9 94 -26l-9 -56c-24 19 -52 28 -83 28zM630 197c-38 0 -67 -17 -88 -52c-1 -6 0 -16 1 -31c7 -41 35 -68 75 -68c47 0 83 37 83 85c0 39 -28 66 -71 66z" />
    <glyph glyph-name="uni215A" unicode="&#x215a;" horiz-adv-x="832" 
d="M732 329c-67 0 -118 -46 -130 -125c24 29 58 43 103 43c65 0 113 -49 113 -112c0 -39 -14 -73 -41 -100s-62 -40 -105 -40c-84 0 -136 59 -136 152c0 61 17 115 51 163c34 49 82 73 143 73c39 0 70 -9 94 -26l-9 -56c-24 19 -52 28 -83 28zM685 197
c-38 0 -67 -17 -88 -52c-1 -6 0 -16 1 -31c7 -41 35 -68 75 -68c47 0 83 37 83 85c0 39 -28 66 -71 66zM238 566c81 0 134 -49 134 -113c0 -87 -73 -136 -169 -136c-47 0 -85 10 -115 29l10 60c31 -23 67 -34 106 -34c53 0 103 27 103 78c0 39 -32 67 -91 67
c-26 0 -56 -4 -89 -13l56 196h201l-7 -54h-154l-25 -83c12 2 25 3 40 3zM169 0l522 700h71l-522 -700h-71z" />
    <glyph glyph-name="oneeighth" unicode="&#x215b;" horiz-adv-x="787" 
d="M116 0l522 700h71l-522 -700h-71zM242 322h-63l50 312l-112 -59l9 64l115 61h60zM713 196c39 -15 64 -47 64 -87c0 -35 -15 -62 -45 -83c-29 -21 -64 -31 -104 -31c-41 0 -77 9 -108 28s-46 46 -46 80c0 49 36 91 91 102c-31 15 -47 40 -47 74c0 61 61 104 134 104
c34 0 64 -9 91 -26s41 -40 41 -71c0 -44 -31 -78 -71 -90zM576 273c0 -33 33 -54 72 -54c40 0 76 22 76 58c0 33 -33 55 -74 55c-37 0 -74 -23 -74 -59zM714 114c0 36 -38 63 -86 63s-90 -26 -90 -67c0 -37 40 -63 87 -63s89 26 89 67z" />
    <glyph glyph-name="threeeighths" unicode="&#x215c;" horiz-adv-x="831" 
d="M757 196c39 -15 64 -47 64 -87c0 -35 -15 -62 -45 -83c-29 -21 -64 -31 -104 -31c-41 0 -77 9 -108 28s-46 46 -46 80c0 49 36 91 91 102c-31 15 -47 40 -47 74c0 61 61 104 134 104c34 0 64 -9 91 -26s41 -40 41 -71c0 -44 -31 -78 -71 -90zM620 273
c0 -33 33 -54 72 -54c40 0 76 22 76 58c0 33 -33 55 -74 55c-37 0 -74 -23 -74 -59zM758 114c0 36 -38 63 -86 63s-90 -26 -90 -67c0 -37 40 -63 87 -63s89 26 89 67zM387 700l-7 -46l-114 -97c53 -8 97 -44 97 -103c0 -42 -15 -75 -46 -100s-69 -37 -114 -37
c-53 0 -94 11 -123 32l10 59c27 -24 64 -36 110 -36c53 0 101 31 101 80c0 39 -35 63 -84 63c-17 0 -32 -2 -45 -6l6 41l117 96h-156l8 54h240zM160 0l522 700h71l-522 -700h-71z" />
    <glyph glyph-name="fiveeighths" unicode="&#x215d;" horiz-adv-x="840" 
d="M766 196c39 -15 64 -47 64 -87c0 -35 -15 -62 -45 -83c-29 -21 -64 -31 -104 -31c-41 0 -77 9 -108 28s-46 46 -46 80c0 49 36 91 91 102c-31 15 -47 40 -47 74c0 61 61 104 134 104c34 0 64 -9 91 -26s41 -40 41 -71c0 -44 -31 -78 -71 -90zM629 273
c0 -33 33 -54 72 -54c40 0 76 22 76 58c0 33 -33 55 -74 55c-37 0 -74 -23 -74 -59zM767 114c0 36 -38 63 -86 63s-90 -26 -90 -67c0 -37 40 -63 87 -63s89 26 89 67zM238 566c81 0 134 -49 134 -113c0 -87 -73 -136 -169 -136c-47 0 -85 10 -115 29l10 60
c31 -23 67 -34 106 -34c53 0 103 27 103 78c0 39 -32 67 -91 67c-26 0 -56 -4 -89 -13l56 196h201l-7 -54h-154l-25 -83c12 2 25 3 40 3zM168 0l522 700h71l-522 -700h-71z" />
    <glyph glyph-name="seveneighths" unicode="&#x215e;" horiz-adv-x="776" 
d="M105 0l522 700h71l-522 -700h-71zM702 196c39 -15 64 -47 64 -87c0 -35 -15 -62 -45 -83c-29 -21 -64 -31 -104 -31c-41 0 -77 9 -108 28s-46 46 -46 80c0 49 36 91 91 102c-31 15 -47 40 -47 74c0 61 61 104 134 104c34 0 64 -9 91 -26s41 -40 41 -71
c0 -44 -31 -78 -71 -90zM565 273c0 -33 33 -54 72 -54c40 0 76 22 76 58c0 33 -33 55 -74 55c-37 0 -74 -23 -74 -59zM703 114c0 36 -38 63 -86 63s-90 -26 -90 -67c0 -37 40 -63 87 -63s89 26 89 67zM174 322h-70l217 324h-190l9 54h263l-8 -49z" />
    <glyph glyph-name="uni215F" unicode="&#x215f;" horiz-adv-x="459" 
d="M242 322h-63l50 312l-112 -59l9 64l115 61h60zM116 0l522 700h71l-522 -700h-71z" />
    <glyph glyph-name="arrowleft" unicode="&#x2190;" horiz-adv-x="724" 
d="M322 474h82l-187 -178h475l-10 -58h-483l131 -178h-74l-152 207z" />
    <glyph glyph-name="arrowup" unicode="&#x2191;" horiz-adv-x="571" 
d="M555 397l-12 -75l-152 160l-76 -482h-58l76 475l-204 -159l12 81l236 186z" />
    <glyph glyph-name="arrowright" unicode="&#x2192;" horiz-adv-x="724" 
d="M126 296h482l-131 178h74l153 -207l-219 -207h-82l187 178h-474z" />
    <glyph glyph-name="arrowdown" unicode="&#x2193;" horiz-adv-x="571" 
d="M107 175l12 75l152 -159l75 481h58l-75 -475l204 159l-13 -81l-236 -185z" />
    <glyph glyph-name="partialdiff" unicode="&#x2202;" horiz-adv-x="632" 
d="M312 -12c-65 0 -118 20 -160 60s-63 93 -63 158c0 69 23 128 68 175c45 48 102 72 169 72c95 0 167 -47 199 -106c1 5 1 14 1 26c0 121 -69 270 -212 270c-51 0 -98 -14 -143 -41v64c43 28 92 42 149 42c83 0 150 -32 200 -97c51 -64 76 -149 76 -254
c0 -92 -20 -176 -63 -249s-121 -120 -221 -120zM316 53c107 0 181 77 200 200c-24 80 -95 137 -178 137c-49 0 -90 -17 -125 -50s-52 -75 -52 -126c0 -47 15 -86 44 -116s66 -45 111 -45z" />
    <glyph glyph-name="increment" unicode="&#x2206;" horiz-adv-x="752" 
d="M723 0h-693l422 700h69zM473 607l-327 -540h484z" />
    <glyph glyph-name="product" unicode="&#x220f;" horiz-adv-x="760" 
d="M230 -129h-74l121 762h-113l10 67h634l-10 -67h-114l-121 -762h-74l121 762h-259z" />
    <glyph glyph-name="summation" unicode="&#x2211;" horiz-adv-x="620" 
d="M174 700h491l-11 -67h-393l188 -267l-5 -33l-269 -266h393l-11 -67h-497l8 53l304 302l-207 292z" />
    <glyph glyph-name="minus" unicode="&#x2212;" horiz-adv-x="606" 
d="M589 292h-480l11 67h479z" />
    <glyph glyph-name="uni2215" unicode="&#x2215;" horiz-adv-x="516" 
d="M14 0l523 700h66l-521 -700h-68z" />
    <glyph glyph-name="uni2219" unicode="&#x2219;" horiz-adv-x="230" 
d="M114 198c-20 20 -20 54 0 74s54 20 74 0s20 -54 0 -74s-54 -20 -74 0z" />
    <glyph glyph-name="radical" unicode="&#x221a;" horiz-adv-x="678" 
d="M385 0h-63l-121 420h-138l9 63h183l109 -393l329 610h73z" />
    <glyph glyph-name="infinity" unicode="&#x221e;" horiz-adv-x="800" 
d="M646 479c89 0 146 -61 146 -148c0 -51 -17 -95 -52 -131c-34 -35 -77 -53 -130 -53c-61 0 -117 40 -166 119c-68 -79 -133 -119 -194 -119c-91 0 -146 61 -146 148c0 51 17 94 51 130c35 36 78 54 131 54c61 0 116 -40 167 -119c65 79 130 119 193 119zM259 201
c47 0 100 38 159 113c-40 71 -78 111 -135 111c-34 0 -63 -13 -86 -38s-35 -54 -35 -87c0 -56 33 -99 97 -99zM614 201c33 0 61 12 84 37s35 55 35 89c0 55 -33 98 -96 98c-56 0 -102 -41 -159 -112c41 -71 79 -112 136 -112z" />
    <glyph glyph-name="integral" unicode="&#x222b;" horiz-adv-x="420" 
d="M37 -204c-34 0 -62 6 -85 17v65c26 -11 50 -17 72 -17c73 0 120 51 135 146l79 510c19 127 83 191 191 191c34 0 63 -5 87 -16v-66c-26 11 -51 17 -74 17c-75 0 -117 -40 -133 -141l-80 -513c-19 -115 -81 -193 -192 -193z" />
    <glyph glyph-name="approxequal" unicode="&#x2248;" horiz-adv-x="651" 
d="M534 436c53 0 97 16 133 48l-12 -68c-24 -25 -78 -43 -131 -43c-33 0 -78 9 -133 28s-99 28 -133 28c-52 0 -96 -16 -131 -47l10 67c24 25 79 44 131 44c34 0 78 -10 133 -29s100 -28 133 -28zM498 206c52 0 96 16 132 48l-11 -68c-24 -25 -78 -43 -131 -43
c-33 0 -78 9 -133 28s-100 29 -133 29c-51 0 -95 -16 -131 -48l10 68c24 25 79 44 131 44c34 0 78 -10 133 -29s100 -29 133 -29z" />
    <glyph glyph-name="notequal" unicode="&#x2260;" horiz-adv-x="605" 
d="M373 406h-246l10 66h281l80 116h70l-80 -116h128l-10 -66h-163l-111 -162h248l-11 -66h-283l-80 -119h-70l80 119h-126l11 66h161z" />
    <glyph glyph-name="lessequal" unicode="&#x2264;" horiz-adv-x="605" 
d="M549 54h-478l11 65h478zM130 421l509 189l-12 -74l-423 -147l377 -146l-12 -73l-449 188z" />
    <glyph glyph-name="greaterequal" unicode="&#x2265;" horiz-adv-x="605" 
d="M599 358l-509 -188l12 74l423 147l-377 146l12 72l449 -188zM550 54h-479l12 65h479z" />
    <glyph glyph-name="dotmath" unicode="&#x22c5;" horiz-adv-x="236" 
d="M141 344c-20 20 -20 54 0 74s54 20 74 0s20 -54 0 -74s-54 -20 -74 0z" />
    <glyph glyph-name="lozenge" unicode="&#x25ca;" horiz-adv-x="562" 
d="M427 700l145 -350l-256 -350h-66l-145 350l256 350h66zM176 346l114 -284l212 292l-115 284z" />
    <glyph glyph-name="uniF401" unicode="&#xf401;" horiz-adv-x="20" 
d="M-294 763l102 133h91l-124 -133h-69z" />
    <glyph glyph-name="uniF639" unicode="&#xf639;" 
d="M400 713c75 0 134 -29 177 -86s65 -132 65 -225c0 -97 -29 -199 -80 -280c-51 -80 -134 -135 -227 -135c-75 0 -135 28 -178 85s-64 133 -64 226c0 97 29 199 80 279c51 81 134 136 227 136zM337 54c47 0 89 19 125 56c73 75 107 185 107 293c0 72 -15 130 -45 175
s-72 68 -127 68c-47 0 -88 -19 -125 -56c-73 -75 -106 -185 -106 -293c0 -72 15 -131 44 -176c30 -45 72 -67 127 -67z" />
    <glyph glyph-name="uniF63A" unicode="&#xf63a;" 
d="M160 558l12 82c59 48 127 72 206 72c64 0 116 -19 156 -56c41 -37 61 -84 61 -142c0 -96 -57 -172 -184 -273l-215 -174h369l-11 -67h-477l8 55l265 218c59 49 103 91 130 124s41 69 41 106c0 87 -67 140 -155 140c-73 0 -141 -28 -206 -85z" />
    <glyph glyph-name="uniF63B" unicode="&#xf63b;" 
d="M633 700l-9 -54l-243 -211c57 -5 106 -26 147 -61s61 -81 61 -139c0 -75 -28 -135 -84 -180c-55 -45 -123 -67 -204 -67c-87 0 -158 20 -213 59l11 73c53 -42 120 -63 201 -63c58 0 108 15 151 46s64 74 64 130c0 95 -77 148 -184 148c-18 0 -39 -3 -63 -9l8 50l244 211
h-321l10 67h424z" />
    <glyph glyph-name="uniF63C" unicode="&#xf63c;" 
d="M483 0h-71l31 193h-377l9 59l449 448h70l-70 -440h117l-11 -67h-116zM508 598l-341 -338h286z" />
    <glyph glyph-name="uniF63D" unicode="&#xf63d;" 
d="M352 444c72 0 130 -21 174 -62s66 -91 66 -150c0 -76 -29 -136 -87 -179c-57 -43 -128 -65 -212 -65s-152 18 -203 54l12 73c53 -39 117 -58 192 -58c58 0 110 14 155 43c46 29 69 72 69 128c0 43 -17 80 -51 109c-33 29 -80 44 -141 44c-49 0 -102 -8 -157 -24l97 343
h351l-10 -67h-294l-57 -199c27 7 59 10 96 10z" />
    <glyph glyph-name="uniF63E" unicode="&#xf63e;" 
d="M401 448c63 0 113 -20 152 -59s59 -88 59 -146c0 -71 -24 -132 -72 -181c-47 -49 -108 -74 -182 -74c-75 0 -134 25 -178 74s-66 114 -66 194c-5 245 149 460 348 456c70 0 124 -17 163 -50l-11 -69c-41 33 -91 50 -152 50c-69 0 -129 -28 -180 -85
c-50 -57 -79 -127 -86 -210c44 60 120 100 205 100zM360 57c50 0 92 17 127 52s53 79 53 130c0 85 -60 144 -152 144c-39 0 -78 -13 -117 -39c-38 -25 -66 -56 -83 -93c0 -112 60 -194 172 -194z" />
    <glyph glyph-name="uniF63F" unicode="&#xf63f;" 
d="M225 0h-79l421 633h-376l10 67h462l-10 -55z" />
    <glyph glyph-name="uniF640" unicode="&#xf640;" 
d="M481 363c80 -28 131 -88 131 -164c0 -64 -26 -115 -79 -154c-52 -38 -114 -57 -186 -57c-74 0 -138 18 -191 53c-53 36 -80 85 -80 147c0 47 16 87 49 122s77 59 132 70c-65 31 -98 79 -98 142c0 56 23 102 69 137s101 53 166 53c38 0 74 -6 108 -18
c68 -24 123 -82 123 -158c0 -42 -14 -79 -42 -110s-62 -52 -102 -63zM229 518c0 -37 16 -66 48 -87s69 -32 112 -32c42 0 80 11 113 34c34 23 51 54 51 95c0 37 -16 67 -49 88c-32 22 -69 33 -112 33c-41 0 -79 -12 -113 -36c-33 -23 -50 -55 -50 -95zM539 200
c0 40 -19 73 -56 98s-83 38 -137 38c-53 0 -99 -13 -138 -39s-58 -62 -58 -107c0 -41 19 -74 56 -100c38 -26 83 -39 136 -39s99 13 138 40s59 63 59 109z" />
    <glyph glyph-name="uniF641" unicode="&#xf641;" 
d="M328 252c-63 0 -114 20 -153 59s-58 88 -58 146c0 71 24 132 71 181c48 49 109 74 183 74c75 0 134 -25 178 -74s66 -114 66 -194c5 -245 -150 -460 -348 -456c-70 0 -124 17 -163 50l11 69c41 -33 91 -50 152 -50c69 0 129 28 179 85c51 57 80 127 87 210
c-44 -60 -120 -100 -205 -100zM369 643c-50 0 -93 -18 -128 -53s-52 -78 -52 -129c0 -85 60 -144 152 -144c39 0 78 13 116 38c39 26 67 57 84 94c0 112 -60 194 -172 194z" />
    <glyph glyph-name="uniF643" unicode="&#xf643;" 
d="M364 495c73 0 132 -23 177 -69c45 -45 68 -102 68 -169c0 -74 -26 -137 -77 -190s-115 -79 -192 -79c-73 0 -133 23 -178 68c-45 46 -67 103 -67 170c0 74 26 137 77 190s115 79 192 79zM340 53c55 0 102 20 141 59c39 40 59 89 59 147c0 50 -16 91 -49 123
s-75 48 -127 48c-55 0 -103 -20 -142 -60c-39 -39 -58 -88 -58 -146c0 -50 16 -91 49 -123s75 -48 127 -48z" />
    <glyph glyph-name="uniF644" unicode="&#xf644;" 
d="M555 0h-453l11 67h194l53 336l-171 -90l11 71l181 99h65l-66 -416h186z" />
    <glyph glyph-name="uniF645" unicode="&#xf645;" 
d="M567 349c0 -48 -23 -94 -66 -130c-41 -36 -80 -59 -133 -87c-61 -32 -107 -54 -136 -65h319l-9 -67h-452l9 55c68 34 153 79 256 135c36 20 55 33 87 58c32 27 49 59 49 94c0 53 -46 85 -126 85c-71 0 -141 -28 -210 -83l12 81c64 47 135 70 213 70
c112 0 187 -62 187 -146z" />
    <glyph glyph-name="uniF646" unicode="&#xf646;" 
d="M565 428l-243 -197c58 -4 107 -23 147 -56c41 -33 61 -79 61 -136c0 -75 -28 -134 -84 -177c-56 -44 -124 -66 -204 -66c-85 0 -157 19 -214 58l12 75c54 -43 121 -64 200 -64c57 0 108 15 151 45c43 29 65 71 65 126c0 91 -77 140 -184 140c-21 0 -42 -3 -63 -8l9 53
l242 195h-321l10 67h425z" />
    <glyph glyph-name="uniF647" unicode="&#xf647;" 
d="M452 -200h-71l31 200h-376l9 58l444 425h71l-66 -420h116l-10 -63h-116zM474 387l-338 -324h286z" />
    <glyph glyph-name="uniF648" unicode="&#xf648;" 
d="M305 241c73 0 131 -20 175 -60s66 -89 66 -147c0 -75 -29 -133 -87 -175s-129 -63 -213 -63c-83 0 -151 18 -202 54l10 70c54 -39 119 -59 194 -59c36 0 70 6 103 17c65 21 121 76 121 152c0 42 -17 78 -51 107c-33 30 -80 45 -141 45c-55 0 -107 -9 -156 -26l95 327h352
l-9 -63h-294l-55 -189c27 7 57 10 92 10z" />
    <glyph glyph-name="uniF649" unicode="&#xf649;" 
d="M401 448c63 0 113 -20 152 -59s59 -88 59 -146c0 -71 -24 -132 -72 -181c-47 -49 -108 -74 -182 -74c-75 0 -134 25 -178 74s-66 114 -66 194c-5 245 149 460 348 456c70 0 124 -17 163 -50l-11 -69c-41 33 -91 50 -152 50c-69 0 -129 -28 -180 -85
c-50 -57 -79 -127 -86 -210c44 60 120 100 205 100zM360 57c50 0 92 17 127 52s53 79 53 130c0 85 -60 144 -152 144c-39 0 -78 -13 -117 -39c-38 -25 -66 -56 -83 -93c0 -112 60 -194 172 -194z" />
    <glyph glyph-name="uniF64A" unicode="&#xf64a;" 
d="M181 -200h-79l411 620h-377l9 63h460l-8 -56z" />
    <glyph glyph-name="uniF64B" unicode="&#xf64b;" 
d="M486 363c80 -28 131 -88 131 -164c0 -64 -26 -115 -79 -154c-52 -38 -114 -57 -186 -57c-74 0 -138 18 -191 53c-53 36 -80 85 -80 147c0 47 16 87 49 122s77 59 132 70c-65 31 -98 79 -98 142c0 56 23 102 69 137s101 53 166 53c38 0 74 -6 108 -18
c68 -24 123 -82 123 -158c0 -42 -14 -79 -42 -110s-62 -52 -102 -63zM234 518c0 -37 16 -66 48 -87s69 -32 112 -32c42 0 80 11 113 34c34 23 51 54 51 95c0 37 -16 67 -49 88c-32 22 -69 33 -112 33c-41 0 -79 -12 -113 -36c-33 -23 -50 -55 -50 -95zM544 200
c0 40 -19 73 -56 98s-83 38 -137 38c-53 0 -99 -13 -138 -39s-58 -62 -58 -107c0 -41 19 -74 56 -100c38 -26 83 -39 136 -39s99 13 138 40s59 63 59 109z" />
    <glyph glyph-name="uniF64C" unicode="&#xf64c;" 
d="M303 35c-63 0 -114 20 -153 59s-58 88 -58 146c0 71 24 132 71 181c48 49 109 74 183 74c75 0 134 -25 178 -74s66 -114 66 -194c0 -125 -33 -228 -98 -309s-149 -122 -250 -122c-70 0 -124 17 -163 50l11 69c41 -33 91 -50 152 -50c71 0 132 25 181 74s78 115 85 196
c-44 -60 -120 -100 -205 -100zM344 426c-50 0 -93 -18 -128 -53s-52 -78 -52 -129c0 -85 60 -144 152 -144c39 0 78 13 116 38c39 26 67 57 84 94c0 112 -60 194 -172 194z" />
    <glyph glyph-name="uniF64E" unicode="&#xf64e;" horiz-adv-x="575" 
d="M447 322l-8 -51h-229c-3 -13 -4 -29 -4 -47c0 -7 0 -13 1 -17h221l-8 -51h-202c25 -67 89 -103 174 -103c47 0 92 12 135 36l-11 -69c-41 -21 -87 -32 -139 -32c-124 0 -212 65 -237 168h-85l9 51h68v13c0 19 1 36 4 51h-62l8 51h68c19 53 52 95 99 126s102 47 163 47
c62 0 115 -14 159 -42l-11 -66c-41 29 -88 43 -141 43c-87 0 -159 -40 -191 -108h219z" />
    <glyph glyph-name="uniF653" unicode="&#xf653;" horiz-adv-x="496" 
d="M272 -12l-16 -105h-66l17 109c-67 9 -120 28 -158 58l10 70c57 -45 124 -67 203 -67c36 0 68 6 95 18s41 32 41 61c0 39 -38 56 -134 84c-99 28 -158 63 -158 134c0 45 17 80 52 105s78 38 129 40l16 105h66l-18 -109c56 -7 103 -23 140 -50l-10 -69
c-52 39 -113 58 -182 58c-67 0 -121 -22 -121 -75c0 -40 33 -54 128 -82c112 -33 162 -67 162 -135c0 -48 -19 -85 -58 -110c-38 -25 -84 -38 -138 -40z" />
    <glyph glyph-name="commaaccent" unicode="&#xf6c3;" horiz-adv-x="231" 
d="M195 -54l-80 -177h-57l72 177h65z" />
    <glyph glyph-name="cyrbreve" unicode="&#xf6d4;" horiz-adv-x="491" 
d="M348 566c-88 0 -149 49 -149 125c0 5 1 14 2 26h60c-1 -4 -1 -10 -1 -17c0 -47 35 -78 92 -78c61 0 107 39 116 95h61c-16 -92 -89 -151 -181 -151z" />
    <glyph glyph-name="uniF6DC" unicode="&#xf6dc;" 
d="M376 64h189l-10 -64h-461l10 64h200l88 557l-173 -91l12 71l181 99h65z" />
    <glyph glyph-name="uniF721" unicode="&#xf721;" horiz-adv-x="540" 
d="M81 170l8 51h406l-9 -51h-250c-36 -16 -54 -36 -54 -61c0 -37 45 -56 134 -56c49 0 96 7 140 21l-10 -65c-40 -14 -87 -21 -142 -21c-39 0 -77 5 -122 18c-45 15 -77 46 -77 90c0 30 13 55 40 74h-64zM490 388c0 -27 -11 -49 -32 -66h53l-8 -51h-405l7 51h265
c29 15 43 33 43 54c0 36 -43 54 -129 54c-43 0 -89 -8 -136 -23l10 65c41 15 88 23 142 23c40 0 78 -5 119 -20c43 -13 71 -44 71 -87z" />
    <glyph glyph-name="uniF722" unicode="&#xf722;" horiz-adv-x="577" 
d="M376 178h-167l-10 -60h200l-8 -51h-200l-10 -67h-72l11 67h-78l8 51h78l9 60h-77l8 51h77l41 254h229c103 0 164 -54 164 -137c0 -104 -83 -168 -203 -168zM410 420h-163l-30 -191h153c72 0 132 40 132 111c0 49 -36 80 -92 80z" />
    <glyph glyph-name="uniF725" unicode="&#xf725;" horiz-adv-x="576" 
d="M171 184h-69l10 59h69l11 70c20 121 105 182 234 182c58 0 106 -12 144 -36l-11 -67c-36 25 -80 38 -131 38c-91 0 -156 -42 -168 -122l-10 -65h234l-10 -59h-234l-10 -68c-3 -24 -13 -42 -30 -53h313l-11 -63h-429l11 63h27c28 0 45 20 51 60z" />
    <glyph glyph-name="uniF727" unicode="&#xf727;" horiz-adv-x="572" 
d="M320 0h-72l14 84h-157l8 51h156l11 62h-156l7 51h139l-146 235h82l122 -199l186 199h85l-223 -235h139l-8 -51h-155l-11 -62h156l-8 -51h-155z" />
    <glyph glyph-name="uniF730" unicode="&#xf730;" horiz-adv-x="621" 
d="M358 495c73 0 132 -23 177 -69c45 -45 68 -102 68 -169c0 -74 -26 -137 -77 -190s-115 -79 -192 -79c-73 0 -133 23 -178 68c-45 46 -67 103 -67 170c0 74 26 137 77 190s115 79 192 79zM334 53c55 0 102 20 141 59c39 40 59 89 59 147c0 50 -16 91 -49 123
s-75 48 -127 48c-55 0 -103 -20 -142 -60c-39 -39 -58 -88 -58 -146c0 -50 16 -91 49 -123s75 -48 127 -48z" />
    <glyph glyph-name="uniF731" unicode="&#xf731;" horiz-adv-x="353" 
d="M263 0h-73l64 403l-171 -90l11 71l181 99h65z" />
    <glyph glyph-name="uniF732" unicode="&#xf732;" horiz-adv-x="566" 
d="M533 349c0 -48 -23 -94 -66 -130c-41 -36 -80 -59 -133 -87c-61 -32 -107 -54 -136 -65h319l-9 -67h-452l9 55c68 34 153 79 256 135c36 20 55 33 87 58c32 27 49 59 49 94c0 53 -46 85 -126 85c-71 0 -141 -28 -210 -83l12 81c64 47 135 70 213 70
c112 0 187 -62 187 -146z" />
    <glyph glyph-name="uniF733" unicode="&#xf733;" horiz-adv-x="548" 
d="M550 428l-243 -197c58 -4 107 -23 147 -56c41 -33 61 -79 61 -136c0 -75 -28 -134 -84 -177c-56 -44 -124 -66 -204 -66c-85 0 -157 19 -214 58l12 75c54 -43 121 -64 200 -64c57 0 108 15 151 45c43 29 65 71 65 126c0 91 -77 140 -184 140c-21 0 -42 -3 -63 -8l9 53
l242 195h-321l10 67h425z" />
    <glyph glyph-name="uniF734" unicode="&#xf734;" horiz-adv-x="638" 
d="M452 -200h-71l31 200h-376l9 58l444 425h71l-66 -420h116l-10 -63h-116zM474 387l-338 -324h286z" />
    <glyph glyph-name="uniF735" unicode="&#xf735;" horiz-adv-x="584" 
d="M299 241c73 0 131 -20 175 -60s66 -89 66 -147c0 -75 -29 -133 -87 -175s-129 -63 -213 -63c-83 0 -151 18 -202 54l10 70c54 -39 119 -59 194 -59c36 0 70 6 103 17c65 21 121 76 121 152c0 42 -17 78 -51 107c-33 30 -80 45 -141 45c-55 0 -107 -9 -156 -26l95 327h352
l-9 -63h-294l-55 -189c27 7 57 10 92 10z" />
    <glyph glyph-name="uniF736" unicode="&#xf736;" horiz-adv-x="641" 
d="M404 448c63 0 113 -20 152 -59s59 -88 59 -146c0 -71 -24 -132 -72 -181c-47 -49 -108 -74 -182 -74c-75 0 -134 25 -178 74s-66 114 -66 194c-5 245 149 460 348 456c70 0 124 -17 163 -50l-11 -69c-41 33 -91 50 -152 50c-69 0 -129 -28 -180 -85
c-50 -57 -79 -127 -86 -210c44 60 120 100 205 100zM363 57c50 0 92 17 127 52s53 79 53 130c0 85 -60 144 -152 144c-39 0 -78 -13 -117 -39c-38 -25 -66 -56 -83 -93c0 -112 60 -194 172 -194z" />
    <glyph glyph-name="uniF737" unicode="&#xf737;" horiz-adv-x="555" 
d="M161 -200h-79l411 620h-377l9 63h460l-8 -56z" />
    <glyph glyph-name="uniF738" unicode="&#xf738;" horiz-adv-x="635" 
d="M483 363c80 -28 131 -88 131 -164c0 -64 -26 -115 -79 -154c-52 -38 -114 -57 -186 -57c-74 0 -138 18 -191 53c-53 36 -80 85 -80 147c0 47 16 87 49 122s77 59 132 70c-65 31 -98 79 -98 142c0 56 23 102 69 137s101 53 166 53c38 0 74 -6 108 -18
c68 -24 123 -82 123 -158c0 -42 -14 -79 -42 -110s-62 -52 -102 -63zM231 518c0 -37 16 -66 48 -87s69 -32 112 -32c42 0 80 11 113 34c34 23 51 54 51 95c0 37 -16 67 -49 88c-32 22 -69 33 -112 33c-41 0 -79 -12 -113 -36c-33 -23 -50 -55 -50 -95zM541 200
c0 40 -19 73 -56 98s-83 38 -137 38c-53 0 -99 -13 -138 -39s-58 -62 -58 -107c0 -41 19 -74 56 -100c38 -26 83 -39 136 -39s99 13 138 40s59 63 59 109z" />
    <glyph glyph-name="uniF739" unicode="&#xf739;" 
d="M315 35c-63 0 -114 20 -153 59s-58 88 -58 146c0 71 24 132 71 181c48 49 109 74 183 74c75 0 134 -25 178 -74s66 -114 66 -194c0 -125 -33 -228 -98 -309s-149 -122 -250 -122c-70 0 -124 17 -163 50l11 69c41 -33 91 -50 152 -50c71 0 132 25 181 74s78 115 85 196
c-44 -60 -120 -100 -205 -100zM356 426c-50 0 -93 -18 -128 -53s-52 -78 -52 -129c0 -85 60 -144 152 -144c39 0 78 13 116 38c39 26 67 57 84 94c0 112 -60 194 -172 194z" />
    <glyph glyph-name="f_f_t" horiz-adv-x="1028" 
d="M262 420l-67 -420h-72l67 420h-96l10 63h97l12 80c13 89 70 145 161 145c40 0 73 -6 99 -19l-11 -66c-28 13 -55 20 -81 20c-57 0 -90 -31 -99 -92l-10 -68h237l12 80c13 89 70 145 161 145c40 0 73 -6 99 -19l-11 -66c-28 13 -55 20 -81 20c-57 0 -90 -31 -99 -92
l-10 -68h235l24 149h72l-23 -149h168l-10 -63h-169l-40 -250c-4 -23 -6 -41 -6 -56c0 -39 25 -58 74 -58c25 0 52 7 80 21l-9 -67c-22 -15 -55 -22 -100 -22c-80 0 -120 34 -120 103c0 16 2 33 5 51l44 278h-235l-67 -420h-72l67 420h-236z" />
    <glyph glyph-name="uni043F_uni0438" horiz-adv-x="976" 
d="M155 0h-72l77 483h434l-60 -376l369 376h67l-77 -483h-72l60 375l-369 -375h-67l66 420h-290z" />
    <glyph glyph-name="uni20B4.mono" 
d="M345 -12c-63 0 -115 12 -156 36s-61 59 -61 105c0 56 26 101 78 134h-97l11 63h483l-10 -63h-287c-66 -35 -99 -76 -99 -121c0 -57 50 -85 151 -85c62 0 120 12 174 37l-10 -71c-54 -23 -113 -35 -177 -35zM396 712c61 0 111 -12 150 -36s59 -58 59 -102
c0 -45 -21 -84 -64 -116h83l-10 -63h-483l10 63h308c51 30 77 65 77 106c0 53 -48 79 -145 79c-60 0 -115 -11 -164 -32l10 70c48 21 104 31 169 31z" />
    <glyph glyph-name="adieresis.alt" horiz-adv-x="636" 
d="M307 -12c-67 0 -120 22 -159 65c-39 44 -59 98 -59 163c0 77 25 143 74 197c49 55 113 82 190 82c88 0 156 -43 192 -96l14 84h72l-77 -483h-72l11 69c-47 -54 -109 -81 -186 -81zM362 430c-55 0 -102 -20 -141 -60c-39 -39 -58 -88 -58 -147c0 -49 15 -90 45 -122
c31 -32 71 -48 121 -48c34 0 68 10 102 29c35 20 60 44 76 72l27 174c-11 27 -33 50 -65 71s-68 31 -107 31zM278 612c-17 19 -17 50 0 67c19 19 50 19 67 0c19 -17 19 -48 0 -67c-17 -17 -48 -17 -67 0zM478 612c-17 19 -17 50 0 67c19 19 50 19 67 0c19 -17 19 -48 0 -67
c-17 -17 -48 -17 -67 0z" />
    <glyph glyph-name="f_j" horiz-adv-x="599" 
d="M330 -204c-36 0 -63 6 -82 18l10 66c21 -13 43 -19 67 -19c57 0 90 32 100 97l73 462h-236l-67 -420h-72l67 420h-96l10 63h97l12 80c13 89 70 145 161 145c40 0 73 -6 99 -19l-11 -66c-28 13 -55 20 -81 20c-57 0 -90 -31 -99 -92l-10 -68h308l-85 -536
c-17 -104 -82 -151 -165 -151zM567 700c28 0 50 -22 50 -51s-22 -51 -50 -51c-29 0 -51 22 -51 51s22 51 51 51z" />
    <glyph glyph-name="aacute.alt" horiz-adv-x="636" 
d="M307 -12c-67 0 -120 22 -159 65c-39 44 -59 98 -59 163c0 77 25 143 74 197c49 55 113 82 190 82c88 0 156 -43 192 -96l14 84h72l-77 -483h-72l11 69c-47 -54 -109 -81 -186 -81zM362 430c-55 0 -102 -20 -141 -60c-39 -39 -58 -88 -58 -147c0 -49 15 -90 45 -122
c31 -32 71 -48 121 -48c34 0 68 10 102 29c35 20 60 44 76 72l27 174c-11 27 -33 50 -65 71s-68 31 -107 31zM348 576l103 134h90l-123 -134h-70z" />
    <glyph glyph-name="atilde.alt" horiz-adv-x="636" 
d="M307 -12c-67 0 -120 22 -159 65c-39 44 -59 98 -59 163c0 77 25 143 74 197c49 55 113 82 190 82c88 0 156 -43 192 -96l14 84h72l-77 -483h-72l11 69c-47 -54 -109 -81 -186 -81zM362 430c-55 0 -102 -20 -141 -60c-39 -39 -58 -88 -58 -147c0 -49 15 -90 45 -122
c31 -32 71 -48 121 -48c34 0 68 10 102 29c35 20 60 44 76 72l27 174c-11 27 -33 50 -65 71s-68 31 -107 31zM480 589c-19 0 -43 10 -71 29c-27 19 -47 29 -59 29c-23 0 -39 -18 -48 -53h-49c11 64 51 109 103 109c19 0 43 -10 70 -29c28 -19 48 -28 60 -28
c27 0 38 19 49 52h49c-11 -63 -52 -109 -104 -109z" />
    <glyph glyph-name="idieresis_idieresis" horiz-adv-x="502" 
d="M406 0h-72l76 483h72zM168 0h-72l76 483h72zM318 612c-17 19 -17 50 0 67c19 19 50 19 67 0c19 -17 19 -48 0 -67c-17 -17 -48 -17 -67 0zM100 612c-19 19 -19 50 0 67c19 19 47 19 66 0c19 -17 19 -48 0 -67c-19 -17 -47 -17 -66 0zM538 612c-19 19 -19 50 0 67
c19 19 47 19 66 0c19 -17 19 -48 0 -67c-19 -17 -47 -17 -66 0z" />
    <glyph glyph-name="T_h" horiz-adv-x="1091" 
d="M351 0h-74l100 633h-241l11 67h601l-47 -287c56 55 121 82 195 82c100 0 167 -63 167 -160c0 -19 -3 -45 -9 -80l-41 -255h-72l41 254c5 28 7 49 7 63c0 72 -47 110 -120 110c-35 0 -70 -10 -103 -30c-33 -19 -59 -41 -78 -66l-52 -331h-72l101 633h-214z" />
    <glyph glyph-name="aring.alt" horiz-adv-x="636" 
d="M307 -12c-67 0 -120 22 -159 65c-39 44 -59 98 -59 163c0 77 25 143 74 197c49 55 113 82 190 82c88 0 156 -43 192 -96l14 84h72l-77 -483h-72l11 69c-47 -54 -109 -81 -186 -81zM362 430c-55 0 -102 -20 -141 -60c-39 -39 -58 -88 -58 -147c0 -49 15 -90 45 -122
c31 -32 71 -48 121 -48c34 0 68 10 102 29c35 20 60 44 76 72l27 174c-11 27 -33 50 -65 71s-68 31 -107 31zM343 714c37 37 99 37 136 0s37 -99 0 -136s-99 -37 -136 0s-37 99 0 136zM467 646c0 32 -25 56 -56 56s-56 -24 -56 -56c0 -31 25 -56 56 -56s56 25 56 56z" />
    <glyph glyph-name="cyrbreve.cap" horiz-adv-x="571" 
d="M391 750c-89 0 -149 49 -149 125c0 11 0 19 1 25h60c-1 -4 -1 -9 -1 -16c0 -47 36 -78 93 -78c61 0 107 38 116 94h61c-16 -91 -89 -150 -181 -150z" />
    <glyph glyph-name="uniF721.mono" 
d="M124 170l8 51h406l-9 -51h-250c-36 -16 -54 -36 -54 -61c0 -37 45 -56 134 -56c49 0 96 7 140 21l-10 -65c-40 -14 -87 -21 -142 -21c-39 0 -77 5 -122 18c-45 15 -77 46 -77 90c0 30 13 55 40 74h-64zM533 388c0 -27 -11 -49 -32 -66h53l-8 -51h-405l7 51h265
c29 15 43 33 43 54c0 36 -43 54 -129 54c-43 0 -89 -8 -136 -23l10 65c41 15 88 23 142 23c40 0 78 -5 119 -20c43 -13 71 -44 71 -87z" />
    <glyph glyph-name="aogonek.alt" horiz-adv-x="636" 
d="M307 -12c-67 0 -120 22 -159 65c-39 44 -59 98 -59 163c0 77 25 143 74 197c49 55 113 82 190 82c88 0 156 -43 192 -96l14 84h72l-77 -483c-34 -33 -51 -64 -51 -94c0 -33 22 -54 61 -54c13 0 27 2 40 6l-7 -46c-17 -5 -35 -7 -52 -7c-61 0 -98 36 -98 85
c0 39 19 76 56 110h-21l11 69c-47 -54 -109 -81 -186 -81zM362 430c-55 0 -102 -20 -141 -60c-39 -39 -58 -88 -58 -147c0 -49 15 -90 45 -122c31 -32 71 -48 121 -48c34 0 68 10 102 29c35 20 60 44 76 72l27 174c-11 27 -33 50 -65 71s-68 31 -107 31z" />
    <glyph glyph-name="abreve.alt" horiz-adv-x="636" 
d="M307 -12c-67 0 -120 22 -159 65c-39 44 -59 98 -59 163c0 77 25 143 74 197c49 55 113 82 190 82c88 0 156 -43 192 -96l14 84h72l-77 -483h-72l11 69c-47 -54 -109 -81 -186 -81zM362 430c-55 0 -102 -20 -141 -60c-39 -39 -58 -88 -58 -147c0 -49 15 -90 45 -122
c31 -32 71 -48 121 -48c34 0 68 10 102 29c35 20 60 44 76 72l27 174c-11 27 -33 50 -65 71s-68 31 -107 31zM506 710h55c-13 -81 -74 -138 -153 -138c-75 0 -128 48 -128 119c0 8 0 14 1 19h54c-1 -5 -1 -11 -1 -16c0 -43 28 -71 76 -71c51 0 87 36 96 87z" />
    <glyph glyph-name="amacron.alt" horiz-adv-x="636" 
d="M307 -12c-67 0 -120 22 -159 65c-39 44 -59 98 -59 163c0 77 25 143 74 197c49 55 113 82 190 82c88 0 156 -43 192 -96l14 84h72l-77 -483h-72l11 69c-47 -54 -109 -81 -186 -81zM362 430c-55 0 -102 -20 -141 -60c-39 -39 -58 -88 -58 -147c0 -49 15 -90 45 -122
c31 -32 71 -48 121 -48c34 0 68 10 102 29c35 20 60 44 76 72l27 174c-11 27 -33 50 -65 71s-68 31 -107 31zM558 618h-262l8 55h262z" />
    <glyph glyph-name="gcircumflex.alt" horiz-adv-x="613" 
d="M495 436l153 60l-7 -62l-114 -48c12 -24 18 -51 18 -80c0 -44 -13 -85 -40 -122c35 -41 53 -88 53 -143c0 -69 -25 -127 -75 -174s-113 -71 -189 -71c-71 0 -129 21 -174 64c-45 42 -68 95 -69 158h70c7 -92 77 -157 178 -157c53 0 97 17 134 50s56 76 56 129
c0 39 -11 71 -34 98c-37 -29 -83 -44 -136 -44c-58 0 -107 18 -146 53s-58 81 -58 136c0 60 21 110 64 151s97 61 162 61c63 0 115 -20 154 -59zM321 159c45 0 82 14 111 43c30 29 45 63 45 104c0 71 -57 124 -137 124c-45 0 -83 -14 -112 -43s-44 -63 -44 -104
c0 -71 57 -124 137 -124zM373 710h73l89 -134h-68l-62 91l-91 -91h-73z" />
    <glyph glyph-name="gbreve.alt" horiz-adv-x="613" 
d="M495 436l153 60l-7 -62l-114 -48c12 -24 18 -51 18 -80c0 -44 -13 -85 -40 -122c35 -41 53 -88 53 -143c0 -69 -25 -127 -75 -174s-113 -71 -189 -71c-71 0 -129 21 -174 64c-45 42 -68 95 -69 158h70c7 -92 77 -157 178 -157c53 0 97 17 134 50s56 76 56 129
c0 39 -11 71 -34 98c-37 -29 -83 -44 -136 -44c-58 0 -107 18 -146 53s-58 81 -58 136c0 60 21 110 64 151s97 61 162 61c63 0 115 -20 154 -59zM321 159c45 0 82 14 111 43c30 29 45 63 45 104c0 71 -57 124 -137 124c-45 0 -83 -14 -112 -43s-44 -63 -44 -104
c0 -71 57 -124 137 -124zM485 710h55c-13 -81 -74 -138 -153 -138c-75 0 -128 48 -128 119c0 8 0 14 1 19h54c-1 -5 -1 -11 -1 -16c0 -43 28 -71 76 -71c51 0 87 36 96 87z" />
    <glyph glyph-name="gdotaccent.alt" horiz-adv-x="613" 
d="M495 436l153 60l-7 -62l-114 -48c12 -24 18 -51 18 -80c0 -44 -13 -85 -40 -122c35 -41 53 -88 53 -143c0 -69 -25 -127 -75 -174s-113 -71 -189 -71c-71 0 -129 21 -174 64c-45 42 -68 95 -69 158h70c7 -92 77 -157 178 -157c53 0 97 17 134 50s56 76 56 129
c0 39 -11 71 -34 98c-37 -29 -83 -44 -136 -44c-58 0 -107 18 -146 53s-58 81 -58 136c0 60 21 110 64 151s97 61 162 61c63 0 115 -20 154 -59zM321 159c45 0 82 14 111 43c30 29 45 63 45 104c0 71 -57 124 -137 124c-45 0 -83 -14 -112 -43s-44 -63 -44 -104
c0 -71 57 -124 137 -124zM326 612c-19 19 -19 50 0 67c19 19 47 19 66 0c19 -17 19 -48 0 -67c-19 -17 -47 -17 -66 0z" />
    <glyph glyph-name="gcommaaccent.alt" horiz-adv-x="613" 
d="M495 436l153 60l-7 -62l-114 -48c12 -24 18 -51 18 -80c0 -44 -13 -85 -40 -122c35 -41 53 -88 53 -143c0 -69 -25 -127 -75 -174s-113 -71 -189 -71c-71 0 -129 21 -174 64c-45 42 -68 95 -69 158h70c7 -92 77 -157 178 -157c53 0 97 17 134 50s56 76 56 129
c0 39 -11 71 -34 98c-37 -29 -83 -44 -136 -44c-58 0 -107 18 -146 53s-58 81 -58 136c0 60 21 110 64 151s97 61 162 61c63 0 115 -20 154 -59zM321 159c45 0 82 14 111 43c30 29 45 63 45 104c0 71 -57 124 -137 124c-45 0 -83 -14 -112 -43s-44 -63 -44 -104
c0 -71 57 -124 137 -124zM322 558l80 177h57l-72 -177h-65z" />
    <glyph glyph-name="sterling.mono" 
d="M493 643c-107 0 -175 -59 -192 -168l-19 -113h275l-11 -67h-274l-28 -168c-5 -29 -16 -49 -32 -60h348l-11 -67h-469l10 67h20c15 0 27 5 37 16c20 21 23 41 30 80l21 132h-72l10 67h72l22 130c23 141 119 220 262 220c65 0 117 -15 157 -44l-11 -71
c-38 31 -86 46 -145 46z" />
    <glyph glyph-name="Q.alt01" horiz-adv-x="845" 
d="M498 712c99 0 179 -31 240 -94c61 -62 91 -141 91 -238c0 -114 -39 -209 -117 -286l67 -94h-82l-37 51c-61 -42 -129 -63 -206 -63c-99 0 -179 31 -240 94s-91 142 -91 239c0 108 36 200 107 276c72 77 161 115 268 115zM620 108l-152 215h83l119 -170
c56 63 84 138 84 226c0 75 -24 138 -71 188c-47 51 -110 76 -187 76c-83 0 -154 -31 -212 -93c-57 -61 -86 -137 -86 -228c0 -76 24 -139 71 -190c47 -50 110 -75 187 -75c61 0 115 17 164 51z" />
    <glyph glyph-name="f.alt01" horiz-adv-x="354" 
d="M222 420l-67 -420h-72l90 563c15 91 70 145 161 145c40 0 73 -6 99 -19l-11 -66c-28 13 -55 20 -81 20c-57 0 -90 -31 -99 -92l-10 -68h168l-10 -63h-168z" />
    <glyph glyph-name="acircumflex.alt" horiz-adv-x="636" 
d="M307 -12c-67 0 -120 22 -159 65c-39 44 -59 98 -59 163c0 77 25 143 74 197c49 55 113 82 190 82c88 0 156 -43 192 -96l14 84h72l-77 -483h-72l11 69c-47 -54 -109 -81 -186 -81zM362 430c-55 0 -102 -20 -141 -60c-39 -39 -58 -88 -58 -147c0 -49 15 -90 45 -122
c31 -32 71 -48 121 -48c34 0 68 10 102 29c35 20 60 44 76 72l27 174c-11 27 -33 50 -65 71s-68 31 -107 31zM386 710h73l89 -134h-68l-62 91l-91 -91h-73z" />
    <glyph glyph-name="Q.alt02" horiz-adv-x="850" 
d="M498 712c99 0 179 -31 240 -94c61 -62 91 -141 91 -238c0 -105 -34 -195 -102 -271c-67 -75 -152 -115 -254 -120c15 -5 39 -16 70 -32c63 -32 122 -56 175 -56c27 0 52 7 73 20l-11 -68c-21 -11 -46 -17 -76 -17c-105 -4 -234 104 -316 100c-63 0 -116 -19 -161 -58
l11 77c21 17 68 39 113 46c-70 20 -126 59 -167 116c-41 58 -61 126 -61 204c0 108 36 200 107 276c72 77 161 115 268 115zM456 57c83 0 154 31 211 93c58 62 87 138 87 229c0 75 -24 138 -71 188c-47 51 -110 76 -187 76c-83 0 -154 -31 -212 -93
c-57 -61 -86 -137 -86 -228c0 -76 24 -139 71 -190c47 -50 110 -75 187 -75z" />
    <glyph glyph-name="t.alt" horiz-adv-x="377" 
d="M110 142l78 490h72l-23 -149h168l-10 -63h-169l-40 -250c-4 -23 -6 -41 -6 -56c0 -39 25 -58 74 -58c25 0 52 7 80 21l-9 -67c-22 -15 -55 -22 -100 -22c-80 0 -120 34 -120 103c0 16 2 33 5 51z" />
    <glyph glyph-name="uni0418_uni041D" horiz-adv-x="1261" 
d="M161 0h-62l110 700h73l-90 -573l525 573h65l-46 -291h419l46 291h73l-111 -700h-73l54 342h-418l-54 -342h-73l90 575z" />
    <glyph glyph-name="uni0438_uni043D" horiz-adv-x="980" 
d="M171 109l367 374h67l-32 -203h297l32 203h72l-77 -483h-72l34 215h-297l-34 -215h-72l59 374l-366 -374h-66l75 483h72z" />
    <glyph glyph-name="uni0438_uni0439" horiz-adv-x="985" 
d="M545 109l367 374h67l-77 -483h-72l59 374l-366 -374h-67l59 374l-366 -374h-66l75 483h72l-59 -374l367 374h67zM773 566c-88 0 -149 49 -149 125c0 5 1 14 2 26h59c0 -4 -1 -14 -1 -17c0 -47 36 -78 93 -78c61 0 105 39 116 95h60c-15 -92 -88 -151 -180 -151z" />
    <glyph glyph-name="uni0418_uni0419" horiz-adv-x="1269" 
d="M161 0h-62l110 700h73l-90 -573l525 573h65l-90 -573l525 573h65l-110 -700h-73l90 575l-528 -575h-62l90 575zM1011 750c-89 0 -149 49 -149 125c0 11 0 19 1 25h60c-1 -4 -1 -9 -1 -16c0 -47 36 -78 93 -78c61 0 107 38 116 94h61c-16 -91 -89 -150 -181 -150z" />
    <glyph glyph-name="Euro.mono" 
d="M55 253l9 63h82c0 29 4 60 11 93h-77l10 63h83c52 145 172 240 333 240c73 0 134 -18 183 -55l-12 -71c-51 38 -108 57 -171 57c-119 0 -210 -66 -255 -171h263l-9 -63h-274c-7 -31 -11 -62 -11 -93h270l-10 -63h-256c11 -65 38 -114 81 -147c44 -33 96 -49 155 -49
c69 0 130 21 182 62l-11 -79c-49 -35 -110 -52 -182 -52c-77 0 -144 22 -200 67s-89 111 -100 198h-94z" />
    <glyph glyph-name="tilde.cap" horiz-adv-x="519" 
d="M455 772c-19 0 -43 10 -71 29c-27 19 -47 29 -59 29c-24 0 -40 -18 -48 -53h-49c11 64 51 109 103 109c19 0 43 -10 70 -29s47 -28 59 -28c28 0 40 19 49 52h49c-11 -63 -51 -109 -103 -109z" />
    <glyph glyph-name="breve.cap" horiz-adv-x="520" 
d="M484 896h51c-13 -80 -73 -135 -150 -135c-72 0 -124 47 -124 115c0 9 0 15 1 20h51c-1 -3 -1 -7 -1 -12c0 -45 28 -76 76 -76c49 0 87 37 96 88z" />
    <glyph glyph-name="dotaccent.cap" horiz-adv-x="478" 
d="M330 794c-17 19 -17 50 0 67c19 19 50 19 67 0c19 -17 19 -48 0 -67c-17 -17 -48 -17 -67 0z" />
    <glyph glyph-name="caron.cap" horiz-adv-x="532" 
d="M420 763h-72l-89 133h68l61 -90l92 90h73z" />
    <glyph glyph-name="ring.cap" horiz-adv-x="403" 
d="M297 926c52 0 95 -43 95 -96s-43 -96 -95 -96c-53 0 -97 43 -97 96s44 96 97 96zM297 774c31 0 55 25 55 56c0 32 -24 56 -55 56c-32 0 -57 -24 -57 -56c0 -31 25 -56 57 -56z" />
    <glyph glyph-name="grave.cap" horiz-adv-x="517" 
d="M282 896h90l89 -133h-68z" />
    <glyph glyph-name="acute.cap" horiz-adv-x="492" 
d="M283 763l102 133h91l-124 -133h-69z" />
    <glyph glyph-name="hungarumlaut.cap" horiz-adv-x="456" 
d="M391 763h-70l112 133h91zM219 763h-71l112 133h92z" />
    <glyph glyph-name="macron.cap" horiz-adv-x="533" 
d="M531 802h-262l8 55h262z" />
    <glyph glyph-name="dieresis.cap" horiz-adv-x="514" 
d="M252 794c-19 19 -19 50 0 67c19 19 47 19 66 0c19 -17 19 -48 0 -67c-19 -17 -47 -17 -66 0zM452 794c-19 19 -19 50 0 67c19 19 47 19 66 0c19 -17 19 -48 0 -67c-19 -17 -47 -17 -66 0z" />
    </font>
</defs>
</svg>
