<?xml version="1.0" standalone="no"?>
<!DOCTYPE svg PUBLIC "-//W3C//DTD SVG 1.1//EN" "http://www.w3.org/Graphics/SVG/1.1/DTD/svg11.dtd" >
<svg xmlns="http://www.w3.org/2000/svg" xmlns:xlink="http://www.w3.org/1999/xlink" version="1.1">
<metadata>
Created by FontForge 20170910 at Wed Dec 11 00:49:51 2013
 By Jimmy Wärting
Copyright (c) 2012 by Vyacheslav Kirilenko, Gayane Bagdasaryan. All rights reserved.
</metadata>
<defs>
<font id="Geometria-ExtraBoldItalic" horiz-adv-x="660" >
  <font-face 
    font-family="Geometria"
    font-weight="800"
    font-style="italic"
    font-stretch="normal"
    units-per-em="1000"
    panose-1="2 11 8 3 2 2 4 9 2 4"
    ascent="786"
    descent="-214"
    x-height="508"
    cap-height="700"
    bbox="-378 -290 1476 943"
    underline-thickness="50"
    underline-position="-100"
    slope="-9"
    unicode-range="U+0020-FB04"
  />
<missing-glyph horiz-adv-x="621" 
d="M288 574l-71 -448h210l71 448h-210zM550 0h-495l111 700h495z" />
    <glyph glyph-name="ij" unicode="ij" horiz-adv-x="601" 
d="M437 508h177l-83 -524c-20 -125 -102 -190 -231 -190c-53 0 -93 7 -119 22l23 147c24 -13 48 -19 73 -19c51 0 74 19 85 87zM547 758c57 0 102 -45 102 -102s-45 -102 -102 -102c-56 0 -101 45 -101 102s45 102 101 102zM66 0l80 508h177l-80 -508h-177zM256 758
c57 0 102 -45 102 -102s-45 -102 -102 -102c-56 0 -101 45 -101 102s45 102 101 102z" />
    <glyph glyph-name="f_f" unicode="ff" horiz-adv-x="842" 
d="M745 508h148l-23 -142h-147l-58 -366h-177l58 366h-211l-58 -366h-177l58 366h-85l23 142h85l2 14c16 119 89 192 216 192c51 0 96 -8 135 -24l-22 -137c-30 12 -57 18 -82 18c-44 0 -66 -18 -73 -63h212l2 14c16 119 89 192 216 192c51 0 96 -8 135 -24l-22 -137
c-30 12 -57 18 -82 18c-44 0 -66 -18 -73 -63z" />
    <glyph glyph-name="fi" unicode="fi" horiz-adv-x="733" 
d="M359 517l-1 -9h387l-80 -508h-177l57 366h-210l-57 -366h-177l57 366h-85l23 142h85l4 27c17 105 91 179 215 179c51 0 96 -8 135 -24l-22 -137c-28 12 -56 18 -84 18c-41 0 -64 -18 -70 -54zM678 758c57 0 102 -45 102 -102s-45 -102 -102 -102c-56 0 -101 45 -101 102
s45 102 101 102z" />
    <glyph glyph-name="fl" unicode="fl" horiz-adv-x="761" 
d="M753 145l-22 -139c-29 -13 -60 -19 -95 -19c-77 0 -127 41 -127 125c0 16 2 37 7 64l29 190h-210l-57 -366h-177l57 366h-85l23 142h85l4 27c17 105 91 179 215 179c51 0 96 -8 135 -24l-22 -137c-28 12 -56 18 -84 18c-41 0 -64 -18 -70 -54l-1 -9h210l30 192h177
l-80 -510c-2 -12 -3 -21 -3 -26c0 -17 10 -26 30 -26c11 0 22 2 31 7z" />
    <glyph glyph-name="f_f_i" unicode="ffi" horiz-adv-x="1110" 
d="M1132 508l-80 -508h-177l57 366h-209l-58 -366h-177l58 366h-211l-58 -366h-177l58 366h-85l23 142h85l2 14c16 119 89 192 216 192c51 0 96 -8 135 -24l-22 -137c-30 12 -57 18 -82 18c-44 0 -66 -18 -73 -63h212l2 14c16 119 89 192 216 192c51 0 96 -8 135 -24
l-22 -137c-30 12 -57 18 -82 18c-44 0 -66 -18 -73 -63h387zM1065 758c57 0 102 -45 102 -102s-45 -102 -102 -102c-56 0 -101 45 -101 102s45 102 101 102z" />
    <glyph glyph-name="f_f_l" unicode="ffl" horiz-adv-x="1148" 
d="M1140 145l-22 -139c-29 -13 -60 -19 -95 -19c-77 0 -127 41 -127 125c0 16 2 37 7 64l29 190h-209l-58 -366h-177l58 366h-211l-58 -366h-177l58 366h-85l23 142h85l2 14c16 119 89 192 216 192c51 0 96 -8 135 -24l-22 -137c-30 12 -57 18 -82 18c-44 0 -66 -18 -73 -63
h212l2 14c16 119 89 192 216 192c51 0 96 -8 135 -24l-22 -137c-30 12 -57 18 -82 18c-44 0 -66 -18 -73 -63h210l30 192h177l-80 -510c-2 -12 -3 -21 -3 -26c0 -17 10 -26 30 -26c11 0 22 2 31 7z" />
    <glyph glyph-name=".notdef" horiz-adv-x="621" 
d="M288 574l-71 -448h210l71 448h-210zM550 0h-495l111 700h495z" />
    <glyph glyph-name="NULL" horiz-adv-x="0" 
 />
    <glyph glyph-name="CR" horiz-adv-x="333" 
 />
    <glyph glyph-name="space" unicode=" " horiz-adv-x="252" 
 />
    <glyph glyph-name="exclam" unicode="!" horiz-adv-x="361" 
d="M412 700l-113 -458h-161l31 458h243zM120 167c21 21 46 31 75 31s54 -10 74 -31c41 -41 41 -109 0 -150c-41 -40 -107 -40 -148 0c-41 41 -41 109 -1 150z" />
    <glyph glyph-name="quotedbl" unicode="&#x22;" horiz-adv-x="412" 
d="M237 380h-152l50 320h152zM447 380h-152l50 320h152z" />
    <glyph glyph-name="numbersign" unicode="#" horiz-adv-x="772" 
d="M669 545h135l-22 -135h-135l-19 -120h136l-22 -135h-135l-25 -155h-137l25 155h-125l-25 -155h-137l25 155h-136l22 135h135l19 120h-135l21 135h136l24 155h137l-24 -155h125l24 155h137zM366 290h125l19 120h-125z" />
    <glyph glyph-name="dollar" unicode="$" horiz-adv-x="632" 
d="M653 657l-28 -173c-27 19 -62 34 -105 47s-85 20 -126 20c-65 0 -97 -16 -97 -48c0 -13 9 -22 30 -31c11 -4 21 -8 32 -11c23 -5 64 -18 92 -27c116 -40 186 -95 186 -200c0 -67 -23 -122 -70 -165c-46 -43 -105 -69 -178 -79l-15 -97h-154l15 100
c-77 10 -138 33 -183 68l29 184c25 -26 63 -49 113 -68c51 -19 99 -28 144 -28c15 0 30 1 44 3c29 4 67 25 67 58c0 17 -11 28 -27 37c-8 7 -30 13 -43 17l-58 18l-63 21c-15 6 -33 15 -55 26c-21 12 -38 24 -49 36c-23 25 -43 67 -43 116c0 135 94 212 238 229l15 97h154
l-16 -101c59 -10 110 -26 151 -49z" />
    <glyph glyph-name="percent" unicode="%" horiz-adv-x="819" 
d="M791 700l-533 -700h-119l533 700h119zM270 707c51 0 94 -16 127 -47s50 -71 50 -120s-18 -92 -53 -128c-35 -35 -78 -53 -131 -53c-51 0 -94 15 -127 46s-50 72 -50 121s17 92 52 127c35 36 79 54 132 54zM262 465c39 0 69 32 69 76c0 37 -25 60 -60 60
c-39 0 -69 -32 -69 -76c0 -37 25 -60 60 -60zM666 341c51 0 94 -16 127 -47s50 -71 50 -120s-18 -92 -53 -128c-35 -35 -78 -53 -131 -53c-51 0 -94 15 -127 46s-50 72 -50 121s17 92 52 127c35 36 79 54 132 54zM658 99c39 0 69 32 69 76c0 37 -25 60 -60 60
c-39 0 -69 -32 -69 -76c0 -37 25 -60 60 -60z" />
    <glyph glyph-name="ampersand" unicode="&#x26;" horiz-adv-x="740" 
d="M626 140l113 -140h-200l-32 39c-57 -35 -118 -53 -185 -53c-79 0 -143 21 -193 62c-50 42 -75 99 -75 172c0 53 16 99 47 137s65 63 101 75c-14 26 -21 57 -21 94c0 112 86 188 227 188c73 0 155 -27 204 -66l-26 -161c-51 51 -105 76 -162 76c-45 0 -68 -17 -68 -52
c0 -32 18 -59 61 -111l108 -134c19 29 33 70 44 121h167c-16 -95 -53 -177 -110 -247zM332 137c28 0 54 7 78 20l-126 159c-28 -11 -54 -43 -54 -87c0 -51 41 -92 102 -92z" />
    <glyph glyph-name="quotesingle" unicode="'" horiz-adv-x="202" 
d="M237 380h-152l50 320h152z" />
    <glyph glyph-name="parenleft" unicode="(" horiz-adv-x="394" 
d="M305 700h179c-124 -140 -199 -317 -199 -496c0 -131 37 -249 110 -356h-179c-63 92 -94 209 -94 351c0 195 61 362 183 501z" />
    <glyph glyph-name="parenright" unicode=")" horiz-adv-x="394" 
d="M185 -152h-179c124 140 199 317 199 496c0 131 -37 249 -110 356h179c63 -92 94 -209 94 -351c0 -195 -61 -362 -183 -501z" />
    <glyph glyph-name="asterisk" unicode="*" horiz-adv-x="419" 
d="M450 649l36 -85l-110 -55l91 -50l-61 -82l-82 60l-14 -111h-99l23 110l-102 -59l-36 85l110 55l-91 50l59 82l84 -62l12 113h99l-21 -111z" />
    <glyph glyph-name="plus" unicode="+" horiz-adv-x="614" 
d="M396 67h-156l29 184h-184l25 156h184l29 185h156l-29 -185h184l-25 -156h-184z" />
    <glyph glyph-name="comma" unicode="," horiz-adv-x="327" 
d="M-12 -152l140 328h183l-180 -328h-143z" />
    <glyph glyph-name="hyphen" unicode="-" horiz-adv-x="493" 
d="M439 202h-323l25 158h323z" />
    <glyph glyph-name="period" unicode="." horiz-adv-x="280" 
d="M261 93c0 -59 -46 -106 -105 -106s-105 47 -105 106c0 29 10 53 30 74c21 21 46 31 75 31s54 -10 74 -31c21 -21 31 -45 31 -74z" />
    <glyph glyph-name="slash" unicode="/" horiz-adv-x="546" 
d="M690 792l-569 -932h-176l568 932h177z" />
    <glyph glyph-name="zero" unicode="0" horiz-adv-x="710" 
d="M439 714c87 0 156 -29 207 -88c51 -58 77 -134 77 -229c0 -96 -32 -195 -88 -276c-56 -80 -150 -135 -255 -135c-87 0 -157 29 -208 87c-51 59 -76 135 -76 230c0 96 32 195 88 275c56 81 150 136 255 136zM388 151c47 0 84 26 112 78c28 53 42 108 42 165
c0 88 -35 155 -111 155c-32 0 -60 -14 -85 -41c-49 -55 -70 -131 -70 -202c0 -87 36 -155 112 -155z" />
    <glyph glyph-name="one" unicode="1" horiz-adv-x="413" 
d="M117 617l177 83h156l-110 -700h-177l80 510l-153 -66z" />
    <glyph glyph-name="two" unicode="2" horiz-adv-x="582" 
d="M405 226l-93 -73h257l-24 -153h-510l21 129l209 172c50 41 85 74 104 97s29 47 29 71c0 51 -35 81 -96 81c-65 0 -128 -23 -190 -68l29 179c56 35 122 53 198 53c67 0 124 -19 171 -58s71 -92 71 -159c0 -97 -53 -175 -176 -271z" />
    <glyph glyph-name="three" unicode="3" horiz-adv-x="583" 
d="M625 700l-22 -133l-160 -128c34 -12 65 -34 94 -65s43 -73 43 -124c0 -79 -28 -143 -85 -192c-56 -48 -128 -72 -217 -72c-96 0 -175 22 -236 66l27 166c66 -49 134 -74 204 -74c69 0 129 36 129 103c0 47 -39 81 -111 81c-35 0 -69 -7 -101 -20l18 115l170 126h-238
l25 151h460z" />
    <glyph glyph-name="four" unicode="4" horiz-adv-x="647" 
d="M640 700l-62 -394h97l-22 -140h-97l-26 -166h-175l26 166h-337l20 126l398 408h178zM403 306l28 176l-175 -176h147z" />
    <glyph glyph-name="five" unicode="5" horiz-adv-x="585" 
d="M344 469c73 0 131 -21 175 -62c45 -41 67 -92 67 -154c0 -85 -30 -151 -89 -198s-136 -70 -230 -70c-91 0 -163 19 -218 57l25 166c60 -44 124 -66 192 -66c37 0 70 8 97 25s41 44 41 79c0 51 -45 83 -133 83c-47 0 -100 -8 -159 -25l103 396h394l-24 -153h-261l-20 -80
c13 1 27 2 40 2z" />
    <glyph glyph-name="six" unicode="6" horiz-adv-x="639" 
d="M437 468c61 -2 109 -23 145 -62c37 -39 55 -89 55 -148c0 -79 -26 -144 -79 -195c-52 -51 -120 -77 -205 -77c-83 0 -147 26 -192 78s-67 119 -67 200c0 115 35 225 96 309c61 85 161 141 277 141c75 0 134 -17 177 -52l-25 -158c-41 34 -91 51 -148 51
c-89 0 -157 -57 -176 -140c39 35 86 53 142 53zM352 135c57 0 107 48 107 109c0 51 -31 87 -86 87c-41 0 -76 -20 -105 -59c-3 -11 -4 -23 -4 -36c0 -64 37 -101 88 -101z" />
    <glyph glyph-name="seven" unicode="7" horiz-adv-x="577" 
d="M117 543l24 157h511l-22 -140l-369 -560h-191l356 543h-309z" />
    <glyph glyph-name="eight" unicode="8" horiz-adv-x="649" 
d="M540 361c59 -25 103 -88 103 -155c0 -66 -28 -119 -84 -160c-55 -40 -121 -60 -198 -60c-49 0 -95 7 -138 20c-43 14 -79 37 -110 70c-30 33 -45 72 -45 119c0 43 14 81 41 116c28 35 65 59 110 72c-47 24 -76 75 -76 128c0 60 25 109 76 146c51 38 112 57 183 57
c41 0 80 -7 117 -20s69 -34 96 -65c27 -30 41 -66 41 -108c0 -71 -47 -132 -116 -160zM355 139c56 0 107 32 107 84c0 44 -42 79 -102 79c-56 0 -106 -33 -106 -85c0 -44 44 -78 101 -78zM482 497c0 40 -36 67 -84 67c-47 0 -87 -28 -87 -72c0 -37 36 -67 83 -67
s88 28 88 72z" />
    <glyph glyph-name="nine" unicode="9" horiz-adv-x="639" 
d="M312 232c-61 2 -109 23 -146 62c-36 39 -54 89 -54 148c0 79 26 144 78 195c53 51 121 77 206 77c83 0 147 -26 192 -78s67 -119 67 -200c0 -115 -35 -225 -96 -310c-61 -84 -161 -140 -277 -140c-75 0 -134 17 -177 52l25 158c41 -34 91 -51 148 -51
c89 0 157 57 176 140c-39 -35 -86 -53 -142 -53zM397 565c-57 0 -107 -48 -107 -109c0 -51 31 -87 86 -87c41 0 76 20 105 59c3 11 4 23 4 36c0 64 -37 101 -88 101z" />
    <glyph glyph-name="colon" unicode=":" horiz-adv-x="280" 
d="M309 401c0 -59 -46 -106 -105 -106s-105 47 -105 106c0 29 10 53 30 74c21 21 46 31 75 31s54 -10 74 -31c21 -21 31 -45 31 -74zM261 93c0 -59 -46 -106 -105 -106s-105 47 -105 106c0 29 10 53 30 74c21 21 46 31 75 31s54 -10 74 -31c21 -21 31 -45 31 -74z" />
    <glyph glyph-name="semicolon" unicode=";" horiz-adv-x="324" 
d="M-12 -152l140 328h183l-180 -328h-143zM353 401c0 -59 -46 -106 -105 -106s-105 47 -105 106c0 29 10 53 30 74c21 21 46 31 75 31s54 -10 74 -31c21 -21 31 -45 31 -74z" />
    <glyph glyph-name="less" unicode="&#x3c;" horiz-adv-x="614" 
d="M274 326l326 -120l-25 -164l-491 208l27 167l556 208l-29 -179z" />
    <glyph glyph-name="equal" unicode="=" horiz-adv-x="614" 
d="M591 142h-524l25 158h524zM627 369h-524l25 158h524z" />
    <glyph glyph-name="greater" unicode="&#x3e;" horiz-adv-x="614" 
d="M608 250l-557 -208l29 180l364 120l-326 120l25 163l492 -208z" />
    <glyph glyph-name="question" unicode="?" horiz-adv-x="503" 
d="M162 167c21 21 46 31 75 31s54 -10 74 -31c41 -41 41 -109 0 -150c-41 -40 -107 -40 -148 0c-41 41 -41 109 -1 150zM342 242h-168l24 157c33 4 66 12 110 28s74 44 74 77c0 36 -35 54 -106 54c-49 0 -107 -14 -174 -43l25 152c59 31 126 47 199 47c67 0 123 -16 170 -47
s71 -77 71 -139c0 -57 -20 -104 -61 -141s-92 -63 -153 -78z" />
    <glyph glyph-name="at" unicode="@" horiz-adv-x="925" 
d="M534 714c117 0 214 -37 291 -111c77 -73 116 -164 116 -272c0 -78 -21 -144 -63 -199c-41 -55 -96 -82 -164 -82c-66 0 -109 23 -129 68c-45 -49 -97 -73 -158 -73c-55 0 -99 19 -132 57c-33 39 -49 87 -49 145c0 67 20 127 61 178c41 52 96 78 166 78
c61 0 109 -28 133 -59l8 48h143l-45 -289c-2 -12 -3 -23 -3 -33c0 -44 17 -66 52 -66c36 0 68 22 96 66c28 45 42 98 42 160c0 97 -33 178 -100 245c-66 67 -155 101 -267 101c-115 0 -214 -42 -298 -127s-126 -187 -126 -306c0 -107 34 -194 101 -263s156 -104 265 -104
c77 0 152 21 225 62l-7 -45c-67 -37 -140 -55 -220 -55c-117 0 -214 38 -291 113s-116 172 -116 290c0 83 20 161 60 233c41 72 97 130 169 174c73 44 153 66 240 66zM488 174c34 0 62 15 83 46l17 108c-19 32 -46 48 -83 48c-60 0 -104 -50 -104 -114c0 -55 38 -88 87 -88z
" />
    <glyph glyph-name="A" unicode="A" horiz-adv-x="781" 
d="M771 0h-189l-36 148h-260l-82 -148h-194l405 704h173zM468 479l-102 -187h146z" />
    <glyph glyph-name="B" unicode="B" horiz-adv-x="712" 
d="M270 150h155c55 0 97 31 97 83c0 40 -32 66 -81 66h-147zM457 554h-123l-19 -122h129c47 0 79 25 79 69c0 33 -26 53 -66 53zM67 0l110 700h322c120 0 202 -54 202 -155c0 -67 -35 -127 -98 -158c29 -7 56 -25 79 -53s35 -64 35 -107c0 -69 -26 -124 -77 -165
s-116 -62 -195 -62h-378z" />
    <glyph glyph-name="C" unicode="C" horiz-adv-x="673" 
d="M665 208l-28 -179c-61 -29 -122 -43 -183 -43c-107 0 -193 31 -259 92c-66 62 -99 142 -99 239c0 118 38 214 114 287c77 73 176 110 297 110c79 0 150 -14 212 -43l-30 -169c-51 31 -112 46 -183 46c-68 0 -123 -20 -164 -61c-41 -40 -61 -93 -61 -159
c0 -51 17 -94 51 -127c35 -33 81 -49 140 -49c75 0 140 19 193 56z" />
    <glyph glyph-name="D" unicode="D" horiz-adv-x="782" 
d="M332 542l-60 -384h116c67 0 120 20 158 60c38 41 57 93 57 157c0 47 -16 87 -48 119c-31 32 -73 48 -126 48h-97zM379 0h-312l110 700h257c107 0 192 -30 257 -91c65 -60 97 -138 97 -234c0 -107 -38 -197 -115 -268s-175 -107 -294 -107z" />
    <glyph glyph-name="E" unicode="E" horiz-adv-x="654" 
d="M293 295l-21 -137h360l-25 -158h-540l110 700h532l-25 -158h-352l-15 -95h280l-24 -152h-280z" />
    <glyph glyph-name="F" unicode="F" horiz-adv-x="634" 
d="M709 700l-25 -158h-352l-16 -102h263l-24 -152h-263l-45 -288h-180l110 700h532z" />
    <glyph glyph-name="G" unicode="G" horiz-adv-x="761" 
d="M562 175l36 233h181l-51 -323c-72 -66 -168 -99 -289 -99c-100 0 -182 31 -247 93c-64 62 -96 142 -96 240c0 116 38 211 114 284c77 74 176 111 297 111c81 0 152 -14 214 -43l-30 -169c-51 31 -113 46 -185 46c-69 0 -123 -20 -164 -61c-41 -40 -61 -94 -61 -162
c0 -109 74 -179 175 -179c42 0 77 10 106 29z" />
    <glyph glyph-name="H" unicode="H" horiz-adv-x="758" 
d="M247 0h-180l111 700h180l-40 -249h264l40 249h180l-111 -700h-180l46 291h-264z" />
    <glyph glyph-name="I" unicode="I" horiz-adv-x="322" 
d="M181 700h180l-110 -700h-180z" />
    <glyph glyph-name="J" unicode="J" horiz-adv-x="514" 
d="M320 285l66 415h180l-75 -468c-33 -197 -149 -246 -282 -246c-32 0 -65 4 -100 12s-61 19 -80 33l28 174c31 -31 89 -53 136 -53c72 0 111 36 127 133z" />
    <glyph glyph-name="K" unicode="K" horiz-adv-x="735" 
d="M477 365l259 -365h-215l-225 311l-49 -311h-180l110 700h180l-42 -267l255 267h224z" />
    <glyph glyph-name="L" unicode="L" horiz-adv-x="609" 
d="M357 700l-85 -542h336l-25 -158h-516l110 700h180z" />
    <glyph glyph-name="M" unicode="M" horiz-adv-x="845" 
d="M486 431l219 269h184l-110 -700h-179l67 427l-153 -188h-99l-101 188l-67 -427h-180l110 700h173z" />
    <glyph glyph-name="N" unicode="N" horiz-adv-x="769" 
d="M574 298l63 402h176l-110 -700h-148l-248 404l-63 -404h-177l110 700h153z" />
    <glyph glyph-name="O" unicode="O" horiz-adv-x="828" 
d="M483 714c107 0 192 -31 255 -94c64 -63 96 -144 96 -245c0 -109 -37 -202 -112 -277s-166 -112 -275 -112c-105 0 -190 31 -255 94c-64 63 -96 145 -96 245c0 110 37 202 112 277s166 112 275 112zM649 375c0 49 -16 90 -47 123s-72 50 -124 50c-57 0 -105 -21 -142 -64
s-55 -96 -55 -159c0 -49 15 -90 46 -123s73 -50 125 -50c58 0 105 21 142 63c37 43 55 96 55 160z" />
    <glyph glyph-name="P" unicode="P" horiz-adv-x="657" 
d="M67 0l110 700h300c72 0 129 -18 170 -54c42 -35 63 -82 63 -139c0 -72 -26 -131 -79 -177c-52 -46 -119 -69 -200 -69h-143l-41 -261h-180zM452 548h-119l-22 -139h118c53 0 98 26 98 79c0 40 -25 60 -75 60z" />
    <glyph glyph-name="Q" unicode="Q" horiz-adv-x="828" 
d="M483 714c107 0 192 -31 255 -94c64 -63 96 -144 96 -245c0 -83 -23 -158 -68 -224c-45 -65 -105 -112 -179 -140c17 -23 46 -35 86 -35c31 0 60 7 87 21l-23 -149c-37 -15 -75 -23 -116 -23c-87 0 -163 55 -228 164c-91 11 -163 47 -217 108c-53 61 -80 137 -80 228
c0 110 37 202 112 277s166 112 275 112zM649 375c0 49 -16 90 -47 123s-72 50 -124 50c-57 0 -105 -21 -142 -64s-55 -96 -55 -159c0 -49 15 -90 46 -123s73 -50 125 -50c58 0 105 21 142 63c37 43 55 96 55 160z" />
    <glyph glyph-name="R" unicode="R" horiz-adv-x="729" 
d="M560 287l176 -287h-203l-164 267h-80l-42 -267h-180l110 700h310c71 0 128 -19 169 -56s62 -84 62 -141c0 -96 -61 -173 -158 -216zM312 414h135c52 0 88 24 88 71c0 39 -27 63 -74 63h-128z" />
    <glyph glyph-name="S" unicode="S" horiz-adv-x="632" 
d="M653 657l-28 -173c-27 19 -62 34 -105 47s-85 20 -126 20c-65 0 -97 -16 -97 -48c0 -13 9 -22 30 -31c11 -4 21 -8 32 -11c23 -5 64 -18 92 -27c116 -40 186 -95 186 -200c0 -77 -30 -137 -89 -182c-59 -44 -132 -66 -220 -66c-119 0 -211 25 -276 75l29 184
c25 -26 63 -49 113 -68c51 -19 99 -28 144 -28c15 0 30 1 44 3c29 4 67 25 67 58c0 17 -11 28 -27 37c-8 7 -30 13 -43 17l-58 18l-63 21c-15 6 -33 15 -55 26c-21 12 -38 24 -49 36c-23 25 -43 67 -43 116c0 77 28 135 83 174c56 39 128 59 215 59c95 0 177 -19 244 -57z
" />
    <glyph glyph-name="T" unicode="T" horiz-adv-x="657" 
d="M138 700h601l-25 -158h-211l-85 -542h-180l85 542h-210z" />
    <glyph glyph-name="U" unicode="U" horiz-adv-x="730" 
d="M537 276l67 424h181l-67 -425c-15 -93 -53 -164 -115 -214s-135 -75 -219 -75c-79 0 -146 23 -202 68c-55 45 -83 109 -83 191c0 17 2 38 5 63l62 392h182l-63 -396c-3 -18 -5 -33 -5 -46c0 -69 47 -106 120 -106c69 0 124 40 137 124z" />
    <glyph glyph-name="V" unicode="V" horiz-adv-x="766" 
d="M417 244l247 456h201l-398 -704h-171l-175 704h194z" />
    <glyph glyph-name="W" unicode="W" horiz-adv-x="1088" 
d="M685 -4l-75 410l-207 -410h-160l-121 704h197l52 -417l213 419h140l79 -419l184 417h201l-345 -704h-158z" />
    <glyph glyph-name="X" unicode="X" horiz-adv-x="736" 
d="M811 700l-279 -323l209 -377h-204l-128 233l-199 -233h-215l327 376l-177 324h205l96 -180l153 180h212z" />
    <glyph glyph-name="Y" unicode="Y" horiz-adv-x="728" 
d="M436 469l193 231h204l-330 -386l-49 -314h-180l49 310l-208 390h201z" />
    <glyph glyph-name="Z" unicode="Z" horiz-adv-x="642" 
d="M691 573l-398 -415h349l-25 -158h-592l20 128l399 414h-321l25 158h563z" />
    <glyph glyph-name="bracketleft" unicode="[" horiz-adv-x="452" 
d="M384 -206h-346l144 912h346l-21 -136h-186l-102 -640h186z" />
    <glyph glyph-name="backslash" unicode="\" horiz-adv-x="546" 
d="M278 792l273 -932h-167l-273 932h167z" />
    <glyph glyph-name="bracketright" unicode="]" horiz-adv-x="452" 
d="M146 706h346l-144 -912h-345l20 136h186l102 640h-186z" />
    <glyph glyph-name="asciicircum" unicode="^" horiz-adv-x="569" 
d="M382 599l-134 -264h-170l241 415h167l111 -415h-163z" />
    <glyph glyph-name="underscore" unicode="_" 
d="M-22 -160l19 116h653l-19 -116h-653z" />
    <glyph glyph-name="grave" unicode="`" horiz-adv-x="522" 
d="M514 576h-147l-133 152h209z" />
    <glyph glyph-name="a" unicode="a" horiz-adv-x="605" 
d="M137 352l22 139c52 20 110 30 175 30c69 0 126 -15 171 -45c46 -30 69 -77 69 -142c0 -10 -3 -32 -8 -66l-13 -76c-3 -15 -4 -27 -4 -35c0 -18 10 -27 30 -27c9 0 17 2 26 5l-20 -123c-24 -15 -54 -23 -89 -23c-67 0 -107 19 -120 58c-40 -40 -91 -60 -152 -60
c-112 0 -179 65 -179 156c0 54 20 97 60 128c40 32 89 48 147 48c57 0 104 -10 143 -31c1 9 2 18 2 28c0 45 -39 67 -116 67c-49 0 -97 -10 -144 -31zM372 144l9 54c-19 17 -44 25 -77 25c-45 0 -84 -24 -84 -65c0 -33 28 -54 68 -54c35 0 63 13 84 40z" />
    <glyph glyph-name="b" unicode="b" horiz-adv-x="654" 
d="M247 56l-9 -56h-177l110 700h177l-39 -247c42 45 93 68 154 68s110 -23 147 -68c38 -45 57 -100 57 -167c0 -50 -10 -97 -29 -142c-39 -89 -126 -157 -235 -157c-66 0 -118 23 -156 69zM288 317l-20 -126c17 -31 59 -56 103 -56c32 0 59 13 81 38c23 26 34 58 34 95
c0 64 -39 103 -96 103c-43 0 -77 -18 -102 -54z" />
    <glyph glyph-name="c" unicode="c" horiz-adv-x="512" 
d="M65 237c0 81 29 148 88 202c59 55 133 82 220 82c61 0 116 -13 164 -39l-24 -147c-43 21 -85 32 -126 32c-85 0 -146 -49 -146 -122c0 -37 14 -64 42 -82c29 -18 61 -27 97 -27c39 0 77 8 114 24l-24 -147c-41 -17 -86 -26 -133 -26c-77 0 -141 22 -194 67
c-52 45 -78 106 -78 183z" />
    <glyph glyph-name="d" unicode="d" horiz-adv-x="655" 
d="M485 452l39 248h177l-109 -700h-177l8 55c-42 -45 -93 -68 -154 -68s-110 22 -148 67c-37 45 -56 101 -56 168c0 50 10 97 29 142c39 89 126 157 235 157c66 0 118 -23 156 -69zM444 191l20 126c-17 31 -59 56 -103 56c-32 0 -59 -13 -82 -39c-22 -25 -33 -57 -33 -94
c0 -64 39 -103 96 -103c43 0 77 18 102 54z" />
    <glyph glyph-name="e" unicode="e" horiz-adv-x="570" 
d="M585 304c0 -25 -4 -56 -11 -93h-340c7 -53 65 -79 142 -79c55 0 109 14 162 41l-21 -138c-44 -32 -108 -48 -191 -48c-75 0 -137 22 -187 67c-49 45 -74 104 -74 177c0 83 27 152 82 207s123 83 205 83c69 0 125 -20 168 -60s65 -92 65 -157zM247 305h169
c3 52 -24 86 -72 86c-45 0 -84 -33 -97 -86z" />
    <glyph glyph-name="f" unicode="f" horiz-adv-x="454" 
d="M357 508h148l-23 -142h-147l-58 -366h-177l58 366h-85l23 142h85l2 14c16 119 89 192 216 192c51 0 96 -8 135 -24l-22 -137c-30 12 -57 18 -82 18c-44 0 -66 -18 -73 -63z" />
    <glyph glyph-name="g" unicode="g" horiz-adv-x="638" 
d="M478 455l8 53h177l-71 -455c-9 -61 -32 -112 -69 -152c-73 -80 -166 -107 -274 -107c-86 0 -151 14 -195 43l24 154c49 -33 107 -49 174 -49c24 0 46 3 66 8c41 11 89 48 98 109l4 29c-43 -43 -95 -65 -155 -65c-61 0 -109 21 -146 63c-36 42 -54 94 -54 156
c0 73 23 138 69 194c47 56 110 84 191 84c63 0 114 -22 153 -65zM339 168c39 0 73 16 101 48l17 107c-23 33 -56 49 -100 49c-64 0 -111 -50 -111 -115c0 -55 37 -89 93 -89z" />
    <glyph glyph-name="h" unicode="h" horiz-adv-x="620" 
d="M573 0h-177l40 255c3 17 4 31 4 42c0 45 -27 66 -63 66c-32 0 -61 -14 -88 -43l-51 -320h-177l111 700h177l-40 -250c50 47 103 71 160 71c96 0 154 -68 154 -169c0 -23 -2 -47 -6 -71z" />
    <glyph glyph-name="i" unicode="i" horiz-adv-x="310" 
d="M66 0l80 508h177l-80 -508h-177zM256 758c57 0 102 -45 102 -102s-45 -102 -102 -102c-56 0 -101 45 -101 102s45 102 101 102z" />
    <glyph glyph-name="j" unicode="j" horiz-adv-x="310" 
d="M146 508h177l-83 -524c-20 -125 -102 -190 -231 -190c-53 0 -93 7 -119 22l23 147c24 -13 48 -19 73 -19c51 0 74 19 85 87zM256 758c57 0 102 -45 102 -102s-45 -102 -102 -102c-56 0 -101 45 -101 102s45 102 101 102z" />
    <glyph glyph-name="k" unicode="k" horiz-adv-x="632" 
d="M442 268l191 -268h-204l-158 215l-33 -215h-177l110 700h177l-58 -362l168 170h223z" />
    <glyph glyph-name="l" unicode="l" horiz-adv-x="334" 
d="M326 145l-22 -139c-29 -13 -60 -19 -95 -19c-77 0 -127 41 -127 125c0 16 2 37 7 64l82 524h177l-80 -510c-2 -12 -3 -21 -3 -26c0 -17 10 -26 30 -26c11 0 22 2 31 7z" />
    <glyph glyph-name="m" unicode="m" horiz-adv-x="932" 
d="M61 0l80 508h177l-9 -58c46 47 98 71 156 71c69 0 122 -41 138 -82c44 48 111 82 179 82c91 0 153 -56 153 -157c0 -17 -3 -44 -10 -83l-44 -281h-177l42 268c3 19 4 32 4 39c0 40 -24 57 -56 57c-33 0 -61 -15 -84 -44l-50 -320h-177l41 263c3 18 5 33 5 44
c0 40 -25 57 -54 57c-34 0 -63 -15 -87 -44l-50 -320h-177z" />
    <glyph glyph-name="n" unicode="n" horiz-adv-x="620" 
d="M573 0h-177l40 255c3 17 4 31 4 42c0 45 -27 66 -63 66c-32 0 -61 -14 -88 -43l-51 -320h-177l80 508h177l-9 -57c49 47 103 70 160 70c96 0 154 -68 154 -169c0 -23 -2 -47 -6 -71z" />
    <glyph glyph-name="o" unicode="o" horiz-adv-x="606" 
d="M348 521c78 0 143 -24 194 -72c51 -47 77 -109 77 -184s-27 -140 -81 -195s-122 -83 -203 -83c-78 0 -143 24 -194 71c-51 48 -76 110 -76 186c0 75 27 139 81 194s121 83 202 83zM334 136c32 0 59 13 82 38c23 26 34 58 34 95c0 63 -44 103 -101 103
c-32 0 -59 -13 -82 -39c-22 -25 -33 -56 -33 -93c0 -63 43 -104 100 -104z" />
    <glyph glyph-name="p" unicode="p" horiz-adv-x="654" 
d="M246 56l-40 -256h-177l112 708h177l-9 -55c42 45 93 68 154 68s110 -23 147 -68c38 -45 57 -100 57 -167c0 -50 -10 -97 -30 -142c-39 -89 -126 -157 -235 -157c-66 0 -118 23 -156 69zM288 317l-20 -126c17 -31 59 -56 103 -56c32 0 59 13 81 38c23 26 34 58 34 95
c0 64 -39 103 -96 103c-43 0 -77 -18 -102 -54z" />
    <glyph glyph-name="q" unicode="q" horiz-adv-x="654" 
d="M485 452l9 56h177l-111 -708h-177l40 255c-42 -45 -93 -68 -154 -68s-110 22 -148 67c-37 45 -56 101 -56 168c0 50 10 97 29 142c39 89 126 157 235 157c66 0 118 -23 156 -69zM444 191l20 126c-17 31 -59 56 -103 56c-32 0 -59 -13 -82 -39c-22 -25 -33 -57 -33 -94
c0 -64 39 -103 96 -103c43 0 77 18 102 54z" />
    <glyph glyph-name="r" unicode="r" horiz-adv-x="455" 
d="M509 519l-27 -171c-21 5 -41 8 -59 8c-60 0 -114 -25 -139 -61l-46 -295h-177l80 508h177l-13 -83c15 23 40 45 75 65c35 21 71 31 107 31c9 0 17 -1 22 -2z" />
    <glyph glyph-name="s" unicode="s" horiz-adv-x="518" 
d="M514 165c0 -58 -24 -102 -71 -133c-47 -30 -102 -45 -166 -45c-84 0 -177 22 -232 58l22 143c43 -32 123 -62 207 -62c39 0 59 9 59 26c0 9 -5 15 -21 22c-8 4 -15 7 -22 9c-12 5 -49 17 -65 22c-96 33 -136 69 -136 134c0 59 23 104 68 135s102 47 169 47
c85 0 154 -19 209 -58l-23 -140c-57 41 -116 61 -179 61c-39 0 -59 -8 -59 -25c0 -16 14 -22 70 -39l36 -11c92 -29 134 -71 134 -144z" />
    <glyph glyph-name="t" unicode="t" horiz-adv-x="449" 
d="M490 508l-23 -142h-129l-22 -141c-3 -23 -5 -38 -5 -45c0 -27 16 -40 49 -40c25 0 50 7 75 21l-22 -141c-36 -22 -80 -33 -131 -33c-88 0 -154 54 -154 147c0 14 1 29 4 45l29 187h-89l23 142h89l21 130h177l-21 -130h129z" />
    <glyph glyph-name="u" unicode="u" horiz-adv-x="622" 
d="M127 508h177l-40 -255c-3 -17 -4 -31 -4 -42c0 -45 27 -66 63 -66c32 0 61 14 88 43l51 320h177l-80 -508h-177l9 58c-50 -47 -103 -71 -160 -71c-96 0 -154 68 -154 169c0 23 2 47 6 71z" />
    <glyph glyph-name="v" unicode="v" horiz-adv-x="594" 
d="M212 -4l-134 512h184l64 -292l156 292h186l-296 -512h-160z" />
    <glyph glyph-name="w" unicode="w" horiz-adv-x="833" 
d="M326 -4h-151l-85 512h171l40 -259l122 261h140l42 -261l120 259h178l-250 -512h-152l-48 261z" />
    <glyph glyph-name="x" unicode="x" horiz-adv-x="613" 
d="M249 262l-145 246h188l69 -121l103 121h204l-222 -245l156 -263h-188l-78 136l-121 -136h-205z" />
    <glyph glyph-name="y" unicode="y" horiz-adv-x="609" 
d="M345 202l147 306h187l-307 -559c-57 -103 -138 -155 -242 -155c-43 0 -80 8 -109 23l24 152c23 -16 49 -24 78 -24c48 0 85 24 112 72l-145 491h184z" />
    <glyph glyph-name="z" unicode="z" horiz-adv-x="540" 
d="M100 365l23 143h449l-19 -121l-269 -244h246l-22 -143h-478l18 117l265 248h-213z" />
    <glyph glyph-name="braceleft" unicode="{" horiz-adv-x="414" 
d="M298 145l-14 -85c-2 -14 -3 -22 -3 -25c0 -31 20 -51 52 -51h53l-22 -136h-91c-99 0 -156 55 -156 144c0 13 1 25 3 38c10 63 15 100 15 110c0 40 -17 61 -64 66l21 136c63 7 83 38 95 111l10 65c19 111 99 182 211 182h91l-22 -136h-53c-36 0 -62 -25 -69 -62l-17 -103
c-10 -67 -45 -108 -105 -125c46 -13 69 -43 69 -92c0 -9 -1 -21 -4 -37z" />
    <glyph glyph-name="bar" unicode="|" horiz-adv-x="361" 
d="M239 -111h-152l137 871h152z" />
    <glyph glyph-name="braceright" unicode="}" horiz-adv-x="414" 
d="M202 403l14 85c2 14 3 22 3 25c0 31 -20 51 -52 51h-53l22 136h91c99 0 156 -55 156 -144c0 -12 -1 -25 -3 -38c-10 -63 -15 -100 -15 -110c0 -40 17 -61 64 -66l-21 -136c-63 -7 -83 -38 -95 -111l-10 -65c-19 -111 -99 -182 -211 -182h-91l22 136h53c36 0 62 25 69 62
l17 103c10 67 45 108 105 125c-46 13 -69 43 -69 92c0 9 1 21 4 37z" />
    <glyph glyph-name="asciitilde" unicode="~" horiz-adv-x="614" 
d="M492 306c53 0 97 16 133 48l-25 -158c-25 -25 -79 -43 -132 -43c-35 0 -79 9 -133 27c-54 19 -99 28 -134 28c-52 0 -96 -16 -131 -47l25 157c24 25 79 44 131 44c35 0 79 -9 133 -28s98 -28 133 -28z" />
    <glyph glyph-name="nbspace" unicode="&#xa0;" horiz-adv-x="252" 
 />
    <glyph glyph-name="exclamdown" unicode="&#xa1;" horiz-adv-x="361" 
d="M35 -200l113 466h161l-31 -466h-243zM326 490c21 -20 31 -45 31 -74s-10 -54 -31 -75c-20 -21 -45 -31 -74 -31s-54 10 -75 31c-20 21 -30 46 -30 75s10 54 30 74c21 21 46 31 75 31s54 -10 74 -31z" />
    <glyph glyph-name="cent" unicode="&#xa2;" horiz-adv-x="512" 
d="M65 237c0 70 23 131 68 182c46 51 105 83 177 96l17 109h148l-18 -113c25 -5 52 -15 80 -29l-24 -147c-43 21 -85 32 -126 32c-85 0 -146 -49 -146 -122c0 -37 14 -64 42 -82c29 -18 61 -27 97 -27c39 0 77 8 114 24l-24 -147c-31 -13 -62 -21 -95 -24l-17 -106h-148
l19 122c-99 35 -164 117 -164 232z" />
    <glyph glyph-name="sterling" unicode="&#xa3;" horiz-adv-x="586" 
d="M73 276l21 131h87l14 75c28 151 133 232 296 232c63 0 116 -10 158 -31l-28 -173c-43 20 -84 30 -121 30c-79 0 -123 -35 -134 -104l-5 -29h200l-21 -131h-200l-8 -55c-5 -28 -21 -51 -32 -58l-9 -5h295l-25 -158h-531l25 158h30c38 0 60 21 67 64l8 54h-87z" />
    <glyph glyph-name="currency" unicode="&#xa4;" horiz-adv-x="585" 
d="M348 260c51 0 91 40 91 91s-40 91 -91 91c-49 0 -90 -40 -90 -91s41 -91 90 -91zM540 234l66 -66l-74 -75l-67 66c-35 -22 -74 -33 -117 -33c-41 0 -80 11 -117 33l-66 -66l-74 75l66 66c-44 71 -44 163 0 234l-66 66l74 75l66 -66c37 22 76 33 117 33
c43 0 82 -11 117 -33l67 66l74 -75l-66 -66c44 -71 44 -163 0 -234z" />
    <glyph glyph-name="yen" unicode="&#xa5;" horiz-adv-x="698" 
d="M614 700h189l-259 -297h147l-17 -110h-189l-10 -60h189l-17 -110h-189l-19 -123h-180l19 123h-189l17 110h189l10 60h-189l17 110h145l-163 297h186l119 -236z" />
    <glyph glyph-name="brokenbar" unicode="&#xa6;" horiz-adv-x="361" 
d="M239 -111h-152l55 353h152zM321 407h-152l55 353h152z" />
    <glyph glyph-name="section" unicode="&#xa7;" horiz-adv-x="657" 
d="M482 454c117 -44 188 -94 188 -182c0 -68 -45 -121 -114 -149c22 -25 33 -55 33 -89c-1 -139 -131 -207 -272 -204c-98 0 -181 22 -250 65l25 155c76 -49 152 -73 228 -73c55 0 83 13 83 38c0 13 -7 23 -28 32c-10 5 -19 10 -28 13l-42 15l-46 16
c-119 44 -188 93 -188 182c0 68 45 121 114 149c-22 25 -33 55 -33 89c0 45 13 84 39 115c53 64 134 88 233 88c97 0 181 -21 250 -64l-25 -155c-78 49 -154 73 -229 73c-55 0 -82 -13 -82 -39c0 -12 7 -21 27 -32c11 -5 20 -9 29 -12l41 -15c19 -7 35 -12 47 -16zM377 223
l71 -29c31 4 53 22 53 50c0 13 -8 24 -28 35c-10 5 -20 10 -29 13l-80 30l-71 28c-31 -4 -53 -21 -53 -49c0 -13 8 -24 28 -35c10 -5 20 -10 29 -13z" />
    <glyph glyph-name="dieresis" unicode="&#xa8;" horiz-adv-x="522" 
d="M532 714c35 -33 35 -88 0 -123c-33 -33 -88 -33 -123 0c-33 35 -33 90 0 123c35 33 90 33 123 0zM244 566c-47 0 -87 39 -87 87s39 86 87 86c49 0 87 -38 87 -86s-38 -87 -87 -87z" />
    <glyph glyph-name="copyright" unicode="&#xa9;" horiz-adv-x="824" 
d="M830 350c0 -99 -35 -185 -106 -257c-71 -71 -156 -107 -257 -107s-186 36 -256 107s-105 157 -105 257c0 99 35 185 106 256c71 72 156 108 257 108s186 -36 256 -107s105 -157 105 -257zM467 23c92 0 169 32 231 96s93 142 93 233c0 90 -31 167 -93 230
c-61 63 -138 95 -229 95s-168 -32 -231 -96c-62 -64 -93 -142 -93 -233c0 -90 31 -167 93 -230s138 -95 229 -95zM597 529v-99c-31 19 -64 29 -100 29c-64 0 -113 -46 -113 -109c0 -64 50 -109 118 -109c40 0 74 10 102 31v-99c-31 -17 -67 -25 -107 -25
c-61 0 -112 20 -154 59c-41 40 -62 88 -62 143c0 56 21 103 62 142s93 59 154 59c38 0 71 -7 100 -22z" />
    <glyph glyph-name="ordfeminine" unicode="&#xaa;" horiz-adv-x="440" 
d="M336 432l7 40c-21 15 -49 22 -82 22c-44 0 -76 -18 -76 -55c0 -29 22 -44 65 -44c35 0 64 12 86 37zM467 404c5 0 12 1 20 4l-13 -77c-16 -9 -35 -14 -56 -14c-47 0 -74 15 -81 46c-35 -33 -77 -49 -124 -49c-83 0 -135 48 -135 116c0 41 15 74 45 97c31 24 67 36 110 36
c45 0 85 -10 120 -29c0 3 3 17 3 28c0 40 -32 60 -95 60c-39 0 -77 -9 -113 -26l13 89c37 15 81 23 132 23c97 0 169 -40 169 -132c0 -11 -2 -27 -5 -47l-12 -72c-3 -19 -4 -28 -4 -29c0 -16 9 -24 26 -24z" />
    <glyph glyph-name="guillemotleft" unicode="&#xab;" horiz-adv-x="626" 
d="M344 32h-176l-101 178l13 87l159 179h176l-195 -230zM602 32h-176l-101 178l13 87l159 179h176l-195 -230z" />
    <glyph glyph-name="logicalnot" unicode="&#xac;" horiz-adv-x="572" 
d="M90 286l25 158h482l-50 -313h-158l25 155h-324z" />
    <glyph glyph-name="uni00AD" unicode="&#xad;" horiz-adv-x="493" 
d="M439 202h-323l25 158h323z" />
    <glyph glyph-name="registered" unicode="&#xae;" horiz-adv-x="814" 
d="M96 350c0 99 35 185 106 256c71 72 156 108 257 108s186 -36 256 -107s105 -157 105 -257c0 -99 -35 -185 -106 -257c-71 -71 -156 -107 -257 -107s-186 36 -256 107s-105 157 -105 257zM457 23c92 0 169 32 231 96s93 142 93 233c0 90 -31 167 -93 230
c-61 63 -138 95 -229 95c-92 0 -169 -32 -231 -96s-93 -142 -93 -233c0 -90 31 -167 92 -230c62 -63 139 -95 230 -95zM300 168v387h182c85 0 139 -48 139 -119c0 -51 -28 -92 -75 -109l116 -159h-110l-108 148h-45v-148h-99zM477 472h-78v-76h78c29 0 43 12 43 37
c0 24 -16 39 -43 39z" />
    <glyph glyph-name="overscore" unicode="&#xaf;" horiz-adv-x="504" 
d="M549 592h-414l19 116h414z" />
    <glyph glyph-name="degree" unicode="&#xb0;" horiz-adv-x="373" 
d="M321 602c-25 27 -68 27 -95 0c-25 -27 -25 -71 0 -98c27 -25 70 -25 95 0c25 27 25 71 0 98zM437 553c0 -43 -16 -81 -49 -113c-32 -31 -70 -47 -114 -47s-82 16 -115 47c-33 32 -49 70 -49 113c0 44 16 82 49 113c33 32 71 48 115 48s82 -16 114 -48
c33 -31 49 -69 49 -113z" />
    <glyph glyph-name="plusminus" unicode="&#xb1;" horiz-adv-x="614" 
d="M470 535h183l-25 -158h-183l-25 -159h-158l25 159h-183l25 158h183l26 165h158zM45 0l25 158h524l-25 -158h-524z" />
    <glyph glyph-name="twosuperior" unicode="&#xb2;" horiz-adv-x="346" 
d="M132 575l17 106c31 18 68 27 110 27c76 0 136 -45 136 -120c0 -53 -29 -94 -97 -143l-47 -34h137l-14 -89h-287l12 76l117 90c53 40 70 60 70 85s-17 38 -50 38c-35 0 -69 -12 -104 -36z" />
    <glyph glyph-name="threesuperior" unicode="&#xb3;" horiz-adv-x="331" 
d="M402 700l-13 -78l-82 -62c37 -16 70 -49 70 -101c0 -87 -69 -145 -168 -145c-57 0 -101 12 -134 35l17 97c28 -25 65 -38 110 -38c39 0 71 16 71 47c0 21 -21 39 -57 39c-26 0 -46 -4 -61 -11l10 65l88 62h-125l16 90h258z" />
    <glyph glyph-name="acute" unicode="&#xb4;" horiz-adv-x="440" 
d="M332 728h209l-181 -152h-147z" />
    <glyph glyph-name="mu" unicode="&#xb5;" horiz-adv-x="636" 
d="M29 -200l112 708h177l-40 -255c-3 -17 -4 -31 -4 -42c0 -45 27 -66 63 -66c32 0 61 14 88 43l51 320h177l-80 -508h-177l9 58c-50 -47 -103 -71 -160 -71h-10l-29 -187h-177z" />
    <glyph glyph-name="paragraph" unicode="&#xb6;" horiz-adv-x="598" 
d="M385 700h256l-110 -700h-180l43 274h-76c-136 0 -218 76 -218 184c0 72 28 130 84 175s123 67 201 67z" />
    <glyph glyph-name="middot" unicode="&#xb7;" horiz-adv-x="280" 
d="M276 317c-20 -21 -45 -31 -74 -31s-54 10 -75 31c-20 21 -30 46 -30 75s10 54 30 74c21 21 46 31 75 31s54 -10 74 -31c21 -20 31 -45 31 -74s-10 -54 -31 -75z" />
    <glyph glyph-name="cedilla" unicode="&#xb8;" horiz-adv-x="516" 
d="M297 -152h-204l128 165h140z" />
    <glyph glyph-name="onesuperior" unicode="&#xb9;" horiz-adv-x="267" 
d="M273 322h-107l43 270l-109 -49l17 103l112 54h103z" />
    <glyph glyph-name="ordmasculine" unicode="&#xba;" horiz-adv-x="464" 
d="M316 708c59 0 107 -18 146 -53s59 -80 59 -136c0 -55 -21 -103 -62 -144s-91 -61 -152 -61c-58 0 -107 18 -146 53c-39 36 -58 82 -58 138c0 55 20 102 61 142c41 41 91 61 152 61zM306 413c57 0 101 47 101 108c0 52 -37 87 -89 87c-57 0 -101 -45 -101 -106
c0 -52 38 -89 89 -89z" />
    <glyph glyph-name="guillemotright" unicode="&#xbb;" horiz-adv-x="629" 
d="M360 476h176l101 -178l-13 -87l-159 -179h-176l195 230zM102 476h176l101 -178l-13 -87l-159 -179h-176l195 230z" />
    <glyph glyph-name="onequarter" unicode="&#xbc;" horiz-adv-x="776" 
d="M100 0l536 700h120l-536 -700h-120zM273 322h-107l43 270l-109 -49l17 103l112 54h103zM711 0h-103l14 87h-188l13 75l217 216h108l-34 -209h52l-14 -82h-51zM651 262l-97 -93h81z" />
    <glyph glyph-name="onehalf" unicode="&#xbd;" horiz-adv-x="821" 
d="M100 0l536 700h120l-536 -700h-120zM273 322h-107l43 270l-109 -49l17 103l112 54h103zM557 253l17 106c31 18 68 27 110 27c76 0 136 -45 136 -120c0 -53 -29 -94 -97 -143l-47 -34h137l-14 -89h-287l12 76l117 90c53 40 70 60 70 85s-17 38 -50 38
c-35 0 -69 -12 -104 -36z" />
    <glyph glyph-name="threequarters" unicode="&#xbe;" horiz-adv-x="814" 
d="M749 0h-103l14 87h-188l13 75l217 216h108l-34 -209h52l-14 -82h-51zM689 262l-97 -93h81zM402 700l-13 -78l-82 -62c37 -16 70 -49 70 -101c0 -87 -69 -145 -168 -145c-57 0 -101 12 -134 35l17 97c28 -25 65 -38 110 -38c39 0 71 16 71 47c0 21 -21 39 -57 39
c-26 0 -46 -4 -61 -11l10 65l88 62h-125l16 90h258zM139 0l536 700h120l-536 -700h-120z" />
    <glyph glyph-name="questiondown" unicode="&#xbf;" horiz-adv-x="501" 
d="M434 490c21 -20 31 -45 31 -74s-10 -54 -31 -75c-20 -21 -45 -31 -74 -31s-54 10 -75 31c-20 21 -30 46 -30 75s10 54 30 74c21 21 46 31 75 31s54 -10 74 -31zM255 266h168l-24 -156c-33 -4 -66 -12 -110 -28s-74 -44 -74 -77c0 -36 35 -54 106 -54c49 0 107 14 174 43
l-25 -153c-59 -31 -126 -47 -199 -47c-67 0 -124 16 -171 47s-70 78 -70 140c0 57 20 104 61 141s92 63 153 78z" />
    <glyph glyph-name="Agrave" unicode="&#xc0;" horiz-adv-x="781" 
d="M771 0h-189l-36 148h-260l-82 -148h-194l405 704h173zM468 479l-102 -187h146zM589 760h-147l-133 152h209z" />
    <glyph glyph-name="Aacute" unicode="&#xc1;" horiz-adv-x="781" 
d="M771 0h-189l-36 148h-260l-82 -148h-194l405 704h173zM468 479l-102 -187h146zM559 912h209l-181 -152h-147z" />
    <glyph glyph-name="Acircumflex" unicode="&#xc2;" horiz-adv-x="781" 
d="M771 0h-189l-36 148h-260l-82 -148h-194l405 704h173zM468 479l-102 -187h146zM618 912l100 -152h-143l-50 70l-71 -70h-154l151 152h167z" />
    <glyph glyph-name="Atilde" unicode="&#xc3;" horiz-adv-x="781" 
d="M771 0h-189l-36 148h-260l-82 -148h-194l405 704h173zM468 479l-102 -187h146zM404 761h-89c7 43 24 79 52 109c29 31 62 46 99 46c21 0 44 -7 67 -20s42 -19 56 -19c23 0 40 12 50 35h89c-7 -39 -24 -75 -53 -107s-61 -48 -97 -48c-23 0 -46 7 -69 20s-42 20 -55 20
c-24 0 -41 -12 -50 -36z" />
    <glyph glyph-name="Adieresis" unicode="&#xc4;" horiz-adv-x="781" 
d="M771 0h-189l-36 148h-260l-82 -148h-194l405 704h173zM468 479l-102 -187h146zM695 898c35 -33 35 -88 0 -123c-33 -33 -88 -33 -123 0c-33 35 -33 90 0 123c35 33 90 33 123 0zM407 750c-47 0 -87 39 -87 87s39 86 87 86c49 0 87 -38 87 -86s-38 -87 -87 -87z" />
    <glyph glyph-name="Aring" unicode="&#xc5;" horiz-adv-x="781" 
d="M771 0h-189l-36 148h-260l-82 -148h-194l405 704h173zM468 479l-102 -187h146zM506 943c29 0 53 -10 74 -31s31 -46 31 -75s-10 -53 -31 -74c-41 -41 -106 -41 -149 0c-21 21 -31 45 -31 74s10 53 31 74s46 32 75 32zM550 837c3 58 -91 58 -89 0c0 -24 21 -44 45 -44
s44 20 44 44z" />
    <glyph glyph-name="AE" unicode="&#xc6;" horiz-adv-x="1082" 
d="M199 0h-196l486 700h648l-25 -158h-342l-15 -95h270l-24 -152h-270l-22 -137h351l-25 -158h-530l22 141h-231zM574 546l-174 -254h151l40 254h-17z" />
    <glyph glyph-name="Ccedilla" unicode="&#xc7;" horiz-adv-x="673" 
d="M451 -152h-204l114 148c-81 17 -146 54 -194 111c-47 58 -71 128 -71 210c0 118 38 214 114 287c77 73 176 110 297 110c79 0 150 -14 212 -43l-30 -169c-51 31 -112 46 -183 46c-68 0 -123 -20 -164 -61c-41 -40 -61 -93 -61 -159c0 -51 17 -94 51 -127
c35 -33 81 -49 140 -49c75 0 140 19 193 56l-28 -179c-42 -20 -86 -33 -131 -39z" />
    <glyph glyph-name="Egrave" unicode="&#xc8;" horiz-adv-x="654" 
d="M293 295l-21 -137h360l-25 -158h-540l110 700h532l-25 -158h-352l-15 -95h280l-24 -152h-280zM553 760h-147l-133 152h209z" />
    <glyph glyph-name="Eacute" unicode="&#xc9;" horiz-adv-x="654" 
d="M293 295l-21 -137h360l-25 -158h-540l110 700h532l-25 -158h-352l-15 -95h280l-24 -152h-280zM467 912h209l-181 -152h-147z" />
    <glyph glyph-name="Ecircumflex" unicode="&#xca;" horiz-adv-x="654" 
d="M293 295l-21 -137h360l-25 -158h-540l110 700h532l-25 -158h-352l-15 -95h280l-24 -152h-280zM566 912l100 -152h-143l-50 70l-71 -70h-154l151 152h167z" />
    <glyph glyph-name="Edieresis" unicode="&#xcb;" horiz-adv-x="654" 
d="M640 898c35 -33 35 -88 0 -123c-33 -33 -88 -33 -123 0c-33 35 -33 90 0 123c35 33 90 33 123 0zM352 750c-47 0 -87 39 -87 87s39 86 87 86c49 0 87 -38 87 -86s-38 -87 -87 -87zM293 295l-21 -137h360l-25 -158h-540l110 700h532l-25 -158h-352l-15 -95h280l-24 -152
h-280z" />
    <glyph glyph-name="Igrave" unicode="&#xcc;" horiz-adv-x="322" 
d="M181 700h180l-110 -700h-180zM358 760h-147l-133 152h209z" />
    <glyph glyph-name="Iacute" unicode="&#xcd;" horiz-adv-x="322" 
d="M181 700h180l-110 -700h-180zM328 912h209l-181 -152h-147z" />
    <glyph glyph-name="Icircumflex" unicode="&#xce;" horiz-adv-x="322" 
d="M181 700h180l-110 -700h-180zM390 912l100 -152h-143l-50 70l-71 -70h-154l151 152h167z" />
    <glyph glyph-name="Idieresis" unicode="&#xcf;" horiz-adv-x="322" 
d="M467 898c35 -33 35 -88 0 -123c-33 -33 -88 -33 -123 0c-33 35 -33 90 0 123c35 33 90 33 123 0zM179 750c-47 0 -87 39 -87 87s39 86 87 86c49 0 87 -38 87 -86s-38 -87 -87 -87zM181 700h180l-110 -700h-180z" />
    <glyph glyph-name="Eth" unicode="&#xd0;" horiz-adv-x="840" 
d="M171 296h-89l24 149h89l40 255h257c107 0 192 -30 257 -91c65 -60 97 -138 97 -234c0 -107 -38 -197 -115 -268s-175 -107 -294 -107h-312zM351 296l-21 -138h116c67 0 120 20 158 60c38 41 57 93 57 157c0 47 -16 87 -48 119c-31 32 -73 48 -126 48h-97l-15 -97h126
l-24 -149h-126z" />
    <glyph glyph-name="Ntilde" unicode="&#xd1;" horiz-adv-x="769" 
d="M574 298l63 402h176l-110 -700h-148l-248 404l-63 -404h-177l110 700h153zM400 761h-89c7 43 24 79 52 109c29 31 62 46 99 46c21 0 44 -7 67 -20s42 -19 56 -19c23 0 40 12 50 35h89c-7 -39 -24 -75 -53 -107s-61 -48 -97 -48c-23 0 -46 7 -69 20s-42 20 -55 20
c-24 0 -41 -12 -50 -36z" />
    <glyph glyph-name="Ograve" unicode="&#xd2;" horiz-adv-x="828" 
d="M483 714c107 0 192 -31 255 -94c64 -63 96 -144 96 -245c0 -109 -37 -202 -112 -277s-166 -112 -275 -112c-105 0 -190 31 -255 94c-64 63 -96 145 -96 245c0 110 37 202 112 277s166 112 275 112zM649 375c0 49 -16 90 -47 123s-72 50 -124 50c-57 0 -105 -21 -142 -64
s-55 -96 -55 -159c0 -49 15 -90 46 -123s73 -50 125 -50c58 0 105 21 142 63c37 43 55 96 55 160zM610 760h-147l-133 152h209z" />
    <glyph glyph-name="Oacute" unicode="&#xd3;" horiz-adv-x="828" 
d="M483 714c107 0 192 -31 255 -94c64 -63 96 -144 96 -245c0 -109 -37 -202 -112 -277s-166 -112 -275 -112c-105 0 -190 31 -255 94c-64 63 -96 145 -96 245c0 110 37 202 112 277s166 112 275 112zM649 375c0 49 -16 90 -47 123s-72 50 -124 50c-57 0 -105 -21 -142 -64
s-55 -96 -55 -159c0 -49 15 -90 46 -123s73 -50 125 -50c58 0 105 21 142 63c37 43 55 96 55 160zM571 912h209l-181 -152h-147z" />
    <glyph glyph-name="Ocircumflex" unicode="&#xd4;" horiz-adv-x="828" 
d="M483 714c107 0 192 -31 255 -94c64 -63 96 -144 96 -245c0 -109 -37 -202 -112 -277s-166 -112 -275 -112c-105 0 -190 31 -255 94c-64 63 -96 145 -96 245c0 110 37 202 112 277s166 112 275 112zM649 375c0 49 -16 90 -47 123s-72 50 -124 50c-57 0 -105 -21 -142 -64
s-55 -96 -55 -159c0 -49 15 -90 46 -123s73 -50 125 -50c58 0 105 21 142 63c37 43 55 96 55 160zM643 912l100 -152h-143l-50 70l-71 -70h-154l151 152h167z" />
    <glyph glyph-name="Otilde" unicode="&#xd5;" horiz-adv-x="828" 
d="M483 714c107 0 192 -31 255 -94c64 -63 96 -144 96 -245c0 -109 -37 -202 -112 -277s-166 -112 -275 -112c-105 0 -190 31 -255 94c-64 63 -96 145 -96 245c0 110 37 202 112 277s166 112 275 112zM649 375c0 49 -16 90 -47 123s-72 50 -124 50c-57 0 -105 -21 -142 -64
s-55 -96 -55 -159c0 -49 15 -90 46 -123s73 -50 125 -50c58 0 105 21 142 63c37 43 55 96 55 160zM429 761h-89c7 43 24 79 52 109c29 31 62 46 99 46c21 0 44 -7 67 -20s42 -19 56 -19c23 0 40 12 50 35h89c-7 -39 -24 -75 -53 -107s-61 -48 -97 -48c-23 0 -46 7 -69 20
s-42 20 -55 20c-24 0 -41 -12 -50 -36z" />
    <glyph glyph-name="Odieresis" unicode="&#xd6;" horiz-adv-x="828" 
d="M483 714c107 0 192 -31 255 -94c64 -63 96 -144 96 -245c0 -109 -37 -202 -112 -277s-166 -112 -275 -112c-105 0 -190 31 -255 94c-64 63 -96 145 -96 245c0 110 37 202 112 277s166 112 275 112zM649 375c0 49 -16 90 -47 123s-72 50 -124 50c-57 0 -105 -21 -142 -64
s-55 -96 -55 -159c0 -49 15 -90 46 -123s73 -50 125 -50c58 0 105 21 142 63c37 43 55 96 55 160zM711 898c35 -33 35 -88 0 -123c-33 -33 -88 -33 -123 0c-33 35 -33 90 0 123c35 33 90 33 123 0zM423 750c-47 0 -87 39 -87 87s39 86 87 86c49 0 87 -38 87 -86
s-38 -87 -87 -87z" />
    <glyph glyph-name="multiply" unicode="&#xd7;" horiz-adv-x="614" 
d="M346 223l-161 -140l-98 115l162 139l-117 140l126 109l117 -140l162 140l97 -115l-162 -140l117 -139l-125 -109z" />
    <glyph glyph-name="Oslash" unicode="&#xd8;" horiz-adv-x="828" 
d="M483 714c84 0 156 -20 215 -61l46 47h135l-112 -114c45 -58 67 -128 67 -211c0 -109 -37 -202 -112 -277s-166 -112 -275 -112c-82 0 -152 20 -211 59l-44 -45h-135l108 110c-46 59 -69 131 -69 215c0 110 37 202 112 277s166 112 275 112zM281 325c0 -29 6 -55 17 -80
l273 278c-27 17 -58 25 -93 25c-57 0 -105 -21 -142 -64s-55 -96 -55 -159zM649 375c0 27 -5 52 -15 75l-271 -276c25 -15 55 -22 89 -22c58 0 105 21 142 63c37 43 55 96 55 160z" />
    <glyph glyph-name="Ugrave" unicode="&#xd9;" horiz-adv-x="730" 
d="M537 276l67 424h181l-67 -425c-15 -93 -53 -164 -115 -214s-135 -75 -219 -75c-79 0 -146 23 -202 68c-55 45 -83 109 -83 191c0 17 2 38 5 63l62 392h182l-63 -396c-3 -18 -5 -33 -5 -46c0 -69 47 -106 120 -106c69 0 124 40 137 124zM563 760h-147l-133 152h209z" />
    <glyph glyph-name="Uacute" unicode="&#xda;" horiz-adv-x="730" 
d="M537 276l67 424h181l-67 -425c-15 -93 -53 -164 -115 -214s-135 -75 -219 -75c-79 0 -146 23 -202 68c-55 45 -83 109 -83 191c0 17 2 38 5 63l62 392h182l-63 -396c-3 -18 -5 -33 -5 -46c0 -69 47 -106 120 -106c69 0 124 40 137 124zM525 912h209l-181 -152h-147z" />
    <glyph glyph-name="Ucircumflex" unicode="&#xdb;" horiz-adv-x="730" 
d="M537 276l67 424h181l-67 -425c-15 -93 -53 -164 -115 -214s-135 -75 -219 -75c-79 0 -146 23 -202 68c-55 45 -83 109 -83 191c0 17 2 38 5 63l62 392h182l-63 -396c-3 -18 -5 -33 -5 -46c0 -69 47 -106 120 -106c69 0 124 40 137 124zM594 912l100 -152h-143l-50 70
l-71 -70h-154l151 152h167z" />
    <glyph glyph-name="Udieresis" unicode="&#xdc;" horiz-adv-x="730" 
d="M537 276l67 424h181l-67 -425c-15 -93 -53 -164 -115 -214s-135 -75 -219 -75c-79 0 -146 23 -202 68c-55 45 -83 109 -83 191c0 17 2 38 5 63l62 392h182l-63 -396c-3 -18 -5 -33 -5 -46c0 -69 47 -106 120 -106c69 0 124 40 137 124zM672 898c35 -33 35 -88 0 -123
c-33 -33 -88 -33 -123 0c-33 35 -33 90 0 123c35 33 90 33 123 0zM384 750c-47 0 -87 39 -87 87s39 86 87 86c49 0 87 -38 87 -86s-38 -87 -87 -87z" />
    <glyph glyph-name="Yacute" unicode="&#xdd;" horiz-adv-x="728" 
d="M436 469l193 231h204l-330 -386l-49 -314h-180l49 310l-208 390h201zM522 912h209l-181 -152h-147z" />
    <glyph glyph-name="Thorn" unicode="&#xde;" horiz-adv-x="674" 
d="M337 569h139c72 0 129 -18 170 -54c42 -35 63 -82 63 -139c0 -72 -26 -131 -79 -177c-52 -46 -119 -69 -200 -69h-162l-21 -130h-180l110 700h180zM291 278h137c53 0 98 26 98 79c0 40 -25 60 -75 60h-138z" />
    <glyph glyph-name="germandbls" unicode="&#xdf;" horiz-adv-x="634" 
d="M405 -8c-49 0 -84 5 -105 16l21 136c20 -8 40 -12 60 -12c51 0 89 39 89 94c0 47 -37 82 -96 86l-20 1l19 115h21c45 0 78 30 78 75c0 33 -24 57 -67 57c-45 0 -81 -32 -92 -95l-74 -465h-178l76 478c12 75 43 133 93 174c51 41 112 62 183 62c37 0 73 -6 106 -18
c34 -11 64 -31 89 -60s38 -63 38 -104c0 -71 -38 -134 -106 -161c52 -20 101 -75 101 -154c0 -67 -22 -122 -66 -163s-101 -62 -170 -62z" />
    <glyph glyph-name="agrave" unicode="&#xe0;" horiz-adv-x="605" 
d="M137 352l22 139c52 20 110 30 175 30c69 0 126 -15 171 -45c46 -30 69 -77 69 -142c0 -10 -3 -32 -8 -66l-13 -76c-3 -15 -4 -27 -4 -35c0 -18 10 -27 30 -27c9 0 17 2 26 5l-20 -123c-24 -15 -54 -23 -89 -23c-67 0 -107 19 -120 58c-40 -40 -91 -60 -152 -60
c-112 0 -179 65 -179 156c0 54 20 97 60 128c40 32 89 48 147 48c57 0 104 -10 143 -31c1 9 2 18 2 28c0 45 -39 67 -116 67c-49 0 -97 -10 -144 -31zM372 144l9 54c-19 17 -44 25 -77 25c-45 0 -84 -24 -84 -65c0 -33 28 -54 68 -54c35 0 63 13 84 40zM491 576h-147
l-133 152h209z" />
    <glyph glyph-name="aacute" unicode="&#xe1;" horiz-adv-x="615" 
d="M137 352l22 139c52 20 110 30 175 30c69 0 126 -15 171 -45c46 -30 69 -77 69 -142c0 -10 -3 -32 -8 -66l-13 -76c-3 -15 -4 -27 -4 -35c0 -18 10 -27 30 -27c9 0 17 2 26 5l-20 -123c-24 -15 -54 -23 -89 -23c-67 0 -107 19 -120 58c-40 -40 -91 -60 -152 -60
c-112 0 -179 65 -179 156c0 54 20 97 60 128c40 32 89 48 147 48c57 0 104 -10 143 -31c1 9 2 18 2 28c0 45 -39 67 -116 67c-49 0 -97 -10 -144 -31zM372 144l9 54c-19 17 -44 25 -77 25c-45 0 -84 -24 -84 -65c0 -33 28 -54 68 -54c35 0 63 13 84 40zM406 728h209
l-181 -152h-147z" />
    <glyph glyph-name="acircumflex" unicode="&#xe2;" horiz-adv-x="605" 
d="M137 352l22 139c52 20 110 30 175 30c69 0 126 -15 171 -45c46 -30 69 -77 69 -142c0 -10 -3 -32 -8 -66l-13 -76c-3 -15 -4 -27 -4 -35c0 -18 10 -27 30 -27c9 0 17 2 26 5l-20 -123c-24 -15 -54 -23 -89 -23c-67 0 -107 19 -120 58c-40 -40 -91 -60 -152 -60
c-112 0 -179 65 -179 156c0 54 20 97 60 128c40 32 89 48 147 48c57 0 104 -10 143 -31c1 9 2 18 2 28c0 45 -39 67 -116 67c-49 0 -97 -10 -144 -31zM372 144l9 54c-19 17 -44 25 -77 25c-45 0 -84 -24 -84 -65c0 -33 28 -54 68 -54c35 0 63 13 84 40zM487 728l100 -152
h-143l-50 70l-71 -70h-154l151 152h167z" />
    <glyph glyph-name="atilde" unicode="&#xe3;" horiz-adv-x="611" 
d="M137 352l22 139c52 20 110 30 175 30c69 0 126 -15 171 -45c46 -30 69 -77 69 -142c0 -10 -3 -32 -8 -66l-13 -76c-3 -15 -4 -27 -4 -35c0 -18 10 -27 30 -27c9 0 17 2 26 5l-20 -123c-24 -15 -54 -23 -89 -23c-67 0 -107 19 -120 58c-40 -40 -91 -60 -152 -60
c-112 0 -179 65 -179 156c0 54 20 97 60 128c40 32 89 48 147 48c57 0 104 -10 143 -31c1 9 2 18 2 28c0 45 -39 67 -116 67c-49 0 -97 -10 -144 -31zM372 144l9 54c-19 17 -44 25 -77 25c-45 0 -84 -24 -84 -65c0 -33 28 -54 68 -54c35 0 63 13 84 40zM287 576h-89
c7 43 24 80 52 110c28 31 61 46 98 46c21 0 44 -7 67 -20c24 -13 43 -19 57 -19c23 0 40 12 50 35h89c-7 -39 -24 -75 -53 -108c-29 -32 -61 -48 -97 -48c-23 0 -46 7 -69 20s-42 20 -55 20c-24 0 -41 -12 -50 -36z" />
    <glyph glyph-name="adieresis" unicode="&#xe4;" horiz-adv-x="605" 
d="M137 352l22 139c52 20 110 30 175 30c69 0 126 -15 171 -45c46 -30 69 -77 69 -142c0 -10 -3 -32 -8 -66l-13 -76c-3 -15 -4 -27 -4 -35c0 -18 10 -27 30 -27c9 0 17 2 26 5l-20 -123c-24 -15 -54 -23 -89 -23c-67 0 -107 19 -120 58c-40 -40 -91 -60 -152 -60
c-112 0 -179 65 -179 156c0 54 20 97 60 128c40 32 89 48 147 48c57 0 104 -10 143 -31c1 9 2 18 2 28c0 45 -39 67 -116 67c-49 0 -97 -10 -144 -31zM372 144l9 54c-19 17 -44 25 -77 25c-45 0 -84 -24 -84 -65c0 -33 28 -54 68 -54c35 0 63 13 84 40zM557 714
c35 -33 35 -88 0 -123c-33 -33 -88 -33 -123 0c-33 35 -33 90 0 123c35 33 90 33 123 0zM269 566c-47 0 -87 39 -87 87s39 86 87 86c49 0 87 -38 87 -86s-38 -87 -87 -87z" />
    <glyph glyph-name="aring" unicode="&#xe5;" horiz-adv-x="605" 
d="M137 352l22 139c52 20 110 30 175 30c69 0 126 -15 171 -45c46 -30 69 -77 69 -142c0 -10 -3 -32 -8 -66l-13 -76c-3 -15 -4 -27 -4 -35c0 -18 10 -27 30 -27c9 0 17 2 26 5l-20 -123c-24 -15 -54 -23 -89 -23c-67 0 -107 19 -120 58c-40 -40 -91 -60 -152 -60
c-112 0 -179 65 -179 156c0 54 20 97 60 128c40 32 89 48 147 48c57 0 104 -10 143 -31c1 9 2 18 2 28c0 45 -39 67 -116 67c-49 0 -97 -10 -144 -31zM372 144l9 54c-19 17 -44 25 -77 25c-45 0 -84 -24 -84 -65c0 -33 28 -54 68 -54c35 0 63 13 84 40zM394 758
c29 0 53 -10 74 -31s31 -46 31 -75c0 -57 -48 -105 -105 -105s-106 48 -106 105c0 59 47 106 106 106zM438 652c3 58 -91 58 -89 0c0 -24 21 -44 45 -44s44 20 44 44z" />
    <glyph glyph-name="ae" unicode="&#xe6;" horiz-adv-x="878" 
d="M893 304c0 -25 -4 -56 -11 -93h-340c7 -53 65 -79 142 -79c55 0 109 14 162 41l-21 -138c-44 -32 -108 -48 -191 -48c-86 0 -154 28 -203 83c-54 -55 -122 -83 -205 -83c-115 0 -181 63 -181 154c0 55 20 98 60 130c41 32 90 48 147 48s104 -10 143 -31c1 9 2 18 2 28
c0 45 -39 67 -116 67c-49 0 -97 -10 -144 -31l22 139c52 20 110 30 175 30c66 0 121 -19 165 -58c49 39 102 58 161 58c69 0 125 -20 168 -60s65 -92 65 -157zM386 150c-6 16 -10 33 -12 51c-20 15 -44 22 -71 22c-45 0 -83 -24 -83 -65c0 -33 28 -54 68 -54
c44 0 82 19 98 46zM555 305h169c3 52 -24 86 -72 86c-45 0 -84 -33 -97 -86z" />
    <glyph glyph-name="ccedilla" unicode="&#xe7;" horiz-adv-x="512" 
d="M65 237c0 81 29 148 88 202c59 55 133 82 220 82c61 0 116 -13 164 -39l-24 -147c-43 21 -85 32 -126 32c-85 0 -146 -49 -146 -122c0 -37 14 -64 42 -82c29 -18 61 -27 97 -27c39 0 77 8 114 24l-24 -147c-33 -13 -64 -21 -93 -24l-54 -141h-204l119 154
c-104 32 -173 116 -173 235z" />
    <glyph glyph-name="egrave" unicode="&#xe8;" horiz-adv-x="570" 
d="M585 304c0 -25 -4 -56 -11 -93h-340c7 -53 65 -79 142 -79c55 0 109 14 162 41l-21 -138c-44 -32 -108 -48 -191 -48c-75 0 -137 22 -187 67c-49 45 -74 104 -74 177c0 83 27 152 82 207s123 83 205 83c69 0 125 -20 168 -60s65 -92 65 -157zM247 305h169
c3 52 -24 86 -72 86c-45 0 -84 -33 -97 -86zM499 576h-147l-133 152h209z" />
    <glyph glyph-name="eacute" unicode="&#xe9;" horiz-adv-x="570" 
d="M585 304c0 -25 -4 -56 -11 -93h-340c7 -53 65 -79 142 -79c55 0 109 14 162 41l-21 -138c-44 -32 -108 -48 -191 -48c-75 0 -137 22 -187 67c-49 45 -74 104 -74 177c0 83 27 152 82 207s123 83 205 83c69 0 125 -20 168 -60s65 -92 65 -157zM247 305h169
c3 52 -24 86 -72 86c-45 0 -84 -33 -97 -86zM395 728h209l-181 -152h-147z" />
    <glyph glyph-name="ecircumflex" unicode="&#xea;" horiz-adv-x="570" 
d="M585 304c0 -25 -4 -56 -11 -93h-340c7 -53 65 -79 142 -79c55 0 109 14 162 41l-21 -138c-44 -32 -108 -48 -191 -48c-75 0 -137 22 -187 67c-49 45 -74 104 -74 177c0 83 27 152 82 207s123 83 205 83c69 0 125 -20 168 -60s65 -92 65 -157zM247 305h169
c3 52 -24 86 -72 86c-45 0 -84 -33 -97 -86zM490 728l100 -152h-143l-50 70l-71 -70h-154l151 152h167z" />
    <glyph glyph-name="edieresis" unicode="&#xeb;" horiz-adv-x="570" 
d="M585 304c0 -25 -4 -56 -11 -93h-340c7 -53 65 -79 142 -79c55 0 109 14 162 41l-21 -138c-44 -32 -108 -48 -191 -48c-75 0 -137 22 -187 67c-49 45 -74 104 -74 177c0 83 27 152 82 207s123 83 205 83c69 0 125 -20 168 -60s65 -92 65 -157zM247 305h169
c3 52 -24 86 -72 86c-45 0 -84 -33 -97 -86zM557 714c35 -33 35 -88 0 -123c-33 -33 -88 -33 -123 0c-33 35 -33 90 0 123c35 33 90 33 123 0zM269 566c-47 0 -87 39 -87 87s39 86 87 86c49 0 87 -38 87 -86s-38 -87 -87 -87z" />
    <glyph glyph-name="igrave" unicode="&#xec;" horiz-adv-x="277" 
d="M50 0l80 508h177l-80 -508h-177zM305 576h-147l-133 152h209z" />
    <glyph glyph-name="iacute" unicode="&#xed;" horiz-adv-x="277" 
d="M272 728h207l-179 -151h-146zM50 0l80 508h177l-80 -508h-177z" />
    <glyph glyph-name="icircumflex" unicode="&#xee;" horiz-adv-x="277" 
d="M50 0l80 508h177l-80 -508h-177zM337 728l100 -152h-143l-50 70l-71 -70h-154l151 152h167z" />
    <glyph glyph-name="idieresis" unicode="&#xef;" horiz-adv-x="277" 
d="M414 714c35 -33 35 -88 0 -123c-33 -33 -88 -33 -123 0c-33 35 -33 90 0 123c35 33 90 33 123 0zM126 566c-47 0 -87 39 -87 87s39 86 87 86c49 0 87 -38 87 -86s-38 -87 -87 -87zM50 0l80 508h177l-80 -508h-177z" />
    <glyph glyph-name="eth" unicode="&#xf0;" horiz-adv-x="605" 
d="M474 575l50 -72c34 -49 58 -90 72 -125c15 -35 22 -71 22 -109c0 -79 -27 -145 -80 -200s-124 -82 -212 -82c-73 0 -134 21 -185 62s-76 99 -76 173c0 67 22 123 66 168s101 68 171 68c32 0 62 -6 89 -18l-63 88l-118 -38l-56 83l115 37l-65 90h184l30 -42l98 31l56 -83z
M335 137c59 0 105 42 105 105c0 53 -38 93 -95 93c-59 0 -105 -43 -105 -106c0 -52 38 -92 95 -92z" />
    <glyph glyph-name="ntilde" unicode="&#xf1;" horiz-adv-x="624" 
d="M573 0h-177l40 255c3 17 4 31 4 42c0 45 -27 66 -63 66c-32 0 -61 -14 -88 -43l-51 -320h-177l80 508h177l-9 -57c49 47 103 70 160 70c96 0 154 -68 154 -169c0 -23 -2 -47 -6 -71zM303 576h-89c7 43 24 80 52 110c28 31 61 46 98 46c21 0 44 -7 67 -20
c24 -13 43 -19 57 -19c23 0 40 12 50 35h89c-7 -39 -24 -75 -53 -108c-29 -32 -61 -48 -97 -48c-23 0 -46 7 -69 20s-42 20 -55 20c-24 0 -41 -12 -50 -36z" />
    <glyph glyph-name="ograve" unicode="&#xf2;" horiz-adv-x="606" 
d="M348 521c78 0 143 -24 194 -72c51 -47 77 -109 77 -184s-27 -140 -81 -195s-122 -83 -203 -83c-78 0 -143 24 -194 71c-51 48 -76 110 -76 186c0 75 27 139 81 194s121 83 202 83zM334 136c32 0 59 13 82 38c23 26 34 58 34 95c0 63 -44 103 -101 103
c-32 0 -59 -13 -82 -39c-22 -25 -33 -56 -33 -93c0 -63 43 -104 100 -104zM474 576h-147l-133 152h209z" />
    <glyph glyph-name="oacute" unicode="&#xf3;" horiz-adv-x="625" 
d="M348 521c78 0 143 -24 194 -72c51 -47 77 -109 77 -184s-27 -140 -81 -195s-122 -83 -203 -83c-78 0 -143 24 -194 71c-51 48 -76 110 -76 186c0 75 27 139 81 194s121 83 202 83zM334 136c32 0 59 13 82 38c23 26 34 58 34 95c0 63 -44 103 -101 103
c-32 0 -59 -13 -82 -39c-22 -25 -33 -56 -33 -93c0 -63 43 -104 100 -104zM429 728h209l-181 -152h-147z" />
    <glyph glyph-name="ocircumflex" unicode="&#xf4;" horiz-adv-x="606" 
d="M348 521c78 0 143 -24 194 -72c51 -47 77 -109 77 -184s-27 -140 -81 -195s-122 -83 -203 -83c-78 0 -143 24 -194 71c-51 48 -76 110 -76 186c0 75 27 139 81 194s121 83 202 83zM334 136c32 0 59 13 82 38c23 26 34 58 34 95c0 63 -44 103 -101 103
c-32 0 -59 -13 -82 -39c-22 -25 -33 -56 -33 -93c0 -63 43 -104 100 -104zM501 728l100 -152h-143l-50 70l-71 -70h-154l151 152h167z" />
    <glyph glyph-name="otilde" unicode="&#xf5;" horiz-adv-x="606" 
d="M348 521c78 0 143 -24 194 -72c51 -47 77 -109 77 -184s-27 -140 -81 -195s-122 -83 -203 -83c-78 0 -143 24 -194 71c-51 48 -76 110 -76 186c0 75 27 139 81 194s121 83 202 83zM334 136c32 0 59 13 82 38c23 26 34 58 34 95c0 63 -44 103 -101 103
c-32 0 -59 -13 -82 -39c-22 -25 -33 -56 -33 -93c0 -63 43 -104 100 -104zM288 576h-89c7 43 24 80 52 110c28 31 61 46 98 46c21 0 44 -7 67 -20c24 -13 43 -19 57 -19c23 0 40 12 50 35h89c-7 -39 -24 -75 -53 -108c-29 -32 -61 -48 -97 -48c-23 0 -46 7 -69 20
s-42 20 -55 20c-24 0 -41 -12 -50 -36z" />
    <glyph glyph-name="odieresis" unicode="&#xf6;" horiz-adv-x="606" 
d="M348 521c78 0 143 -24 194 -72c51 -47 77 -109 77 -184s-27 -140 -81 -195s-122 -83 -203 -83c-78 0 -143 24 -194 71c-51 48 -76 110 -76 186c0 75 27 139 81 194s121 83 202 83zM334 136c32 0 59 13 82 38c23 26 34 58 34 95c0 63 -44 103 -101 103
c-32 0 -59 -13 -82 -39c-22 -25 -33 -56 -33 -93c0 -63 43 -104 100 -104zM576 714c35 -33 35 -88 0 -123c-33 -33 -88 -33 -123 0c-33 35 -33 90 0 123c35 33 90 33 123 0zM288 566c-47 0 -87 39 -87 87s39 86 87 86c49 0 87 -38 87 -86s-38 -87 -87 -87z" />
    <glyph glyph-name="divide" unicode="&#xf7;" horiz-adv-x="614" 
d="M288 564c0 59 47 106 106 106s105 -47 105 -106s-46 -105 -105 -105c-29 0 -54 10 -75 31s-31 45 -31 74zM424 93c0 -57 -48 -105 -105 -105c-29 0 -54 10 -75 31s-31 45 -31 74c0 59 47 106 106 106s105 -47 105 -106zM609 251h-524l25 156h524z" />
    <glyph glyph-name="oslash" unicode="&#xf8;" horiz-adv-x="640" 
d="M361 521c60 0 114 -15 161 -46l33 33h121l-93 -90c33 -44 49 -95 49 -153c0 -75 -27 -140 -81 -195s-122 -83 -203 -83c-61 0 -115 15 -160 45l-33 -32h-121l92 90c-32 43 -48 95 -48 154c0 75 27 139 81 194s121 83 202 83zM247 240c0 -11 1 -20 3 -29l156 152
c-13 6 -28 9 -44 9c-32 0 -59 -13 -82 -39c-22 -25 -33 -56 -33 -93zM347 136c32 0 59 13 82 38c23 26 34 58 34 95c0 10 -1 19 -3 28l-157 -152c13 -6 28 -9 44 -9z" />
    <glyph glyph-name="ugrave" unicode="&#xf9;" horiz-adv-x="622" 
d="M127 508h177l-40 -255c-3 -17 -4 -31 -4 -42c0 -45 27 -66 63 -66c32 0 61 14 88 43l51 320h177l-80 -508h-177l9 58c-50 -47 -103 -71 -160 -71c-96 0 -154 68 -154 169c0 23 2 47 6 71zM494 576h-147l-133 152h209z" />
    <glyph glyph-name="uacute" unicode="&#xfa;" horiz-adv-x="622" 
d="M127 508h177l-40 -255c-3 -17 -4 -31 -4 -42c0 -45 27 -66 63 -66c32 0 61 14 88 43l51 320h177l-80 -508h-177l9 58c-50 -47 -103 -71 -160 -71c-96 0 -154 68 -154 169c0 23 2 47 6 71zM416 728h209l-181 -152h-147z" />
    <glyph glyph-name="ucircumflex" unicode="&#xfb;" horiz-adv-x="622" 
d="M127 508h177l-40 -255c-3 -17 -4 -31 -4 -42c0 -45 27 -66 63 -66c32 0 61 14 88 43l51 320h177l-80 -508h-177l9 58c-50 -47 -103 -71 -160 -71c-96 0 -154 68 -154 169c0 23 2 47 6 71zM502 728l100 -152h-143l-50 70l-71 -70h-154l151 152h167z" />
    <glyph glyph-name="udieresis" unicode="&#xfc;" horiz-adv-x="622" 
d="M127 508h177l-40 -255c-3 -17 -4 -31 -4 -42c0 -45 27 -66 63 -66c32 0 61 14 88 43l51 320h177l-80 -508h-177l9 58c-50 -47 -103 -71 -160 -71c-96 0 -154 68 -154 169c0 23 2 47 6 71zM568 714c35 -33 35 -88 0 -123c-33 -33 -88 -33 -123 0c-33 35 -33 90 0 123
c35 33 90 33 123 0zM280 566c-47 0 -87 39 -87 87s39 86 87 86c49 0 87 -38 87 -86s-38 -87 -87 -87z" />
    <glyph glyph-name="yacute" unicode="&#xfd;" horiz-adv-x="609" 
d="M345 202l147 306h187l-307 -559c-57 -103 -138 -155 -242 -155c-43 0 -80 8 -109 23l24 152c23 -16 49 -24 78 -24c48 0 85 24 112 72l-145 491h184zM420 728h209l-181 -152h-147z" />
    <glyph glyph-name="thorn" unicode="&#xfe;" horiz-adv-x="654" 
d="M246 56l-40 -256h-177l143 900h177l-40 -247c42 45 93 68 154 68s110 -23 147 -68c38 -45 57 -100 57 -167c0 -50 -10 -97 -30 -142c-39 -89 -126 -157 -235 -157c-66 0 -118 23 -156 69zM288 317l-20 -126c17 -31 59 -56 103 -56c32 0 59 13 81 38c23 26 34 58 34 95
c0 64 -39 103 -96 103c-43 0 -77 -18 -102 -54z" />
    <glyph glyph-name="ydieresis" unicode="&#xff;" horiz-adv-x="609" 
d="M570 714c35 -33 35 -88 0 -123c-33 -33 -88 -33 -123 0c-33 35 -33 90 0 123c35 33 90 33 123 0zM282 566c-47 0 -87 39 -87 87s39 86 87 86c49 0 87 -38 87 -86s-38 -87 -87 -87zM345 202l147 306h187l-307 -559c-57 -103 -138 -155 -242 -155c-43 0 -80 8 -109 23
l24 152c23 -16 49 -24 78 -24c48 0 85 24 112 72l-145 491h184z" />
    <glyph glyph-name="Amacron" unicode="&#x100;" horiz-adv-x="781" 
d="M771 0h-189l-36 148h-260l-82 -148h-194l405 704h173zM468 479l-102 -187h146zM718 776h-414l19 116h414z" />
    <glyph glyph-name="amacron" unicode="&#x101;" horiz-adv-x="620" 
d="M137 352l22 139c52 20 110 30 175 30c69 0 126 -15 171 -45c46 -30 69 -77 69 -142c0 -10 -3 -32 -8 -66l-13 -76c-3 -15 -4 -27 -4 -35c0 -18 10 -27 30 -27c9 0 17 2 26 5l-20 -123c-24 -15 -54 -23 -89 -23c-67 0 -107 19 -120 58c-40 -40 -91 -60 -152 -60
c-112 0 -179 65 -179 156c0 54 20 97 60 128c40 32 89 48 147 48c57 0 104 -10 143 -31c1 9 2 18 2 28c0 45 -39 67 -116 67c-49 0 -97 -10 -144 -31zM372 144l9 54c-19 17 -44 25 -77 25c-45 0 -84 -24 -84 -65c0 -33 28 -54 68 -54c35 0 63 13 84 40zM601 592h-414l19 116
h414z" />
    <glyph glyph-name="Abreve" unicode="&#x102;" horiz-adv-x="781" 
d="M771 0h-189l-36 148h-260l-82 -148h-194l405 704h173zM468 479l-102 -187h146zM600 916h112c-20 -108 -97 -171 -194 -171c-92 0 -163 54 -163 145c0 5 1 14 2 26h112v-6c0 -37 20 -61 56 -61c37 0 66 27 75 67z" />
    <glyph glyph-name="abreve" unicode="&#x103;" horiz-adv-x="605" 
d="M137 352l22 139c52 20 110 30 175 30c69 0 126 -15 171 -45c46 -30 69 -77 69 -142c0 -10 -3 -32 -8 -66l-13 -76c-3 -15 -4 -27 -4 -35c0 -18 10 -27 30 -27c9 0 17 2 26 5l-20 -123c-24 -15 -54 -23 -89 -23c-67 0 -107 19 -120 58c-40 -40 -91 -60 -152 -60
c-112 0 -179 65 -179 156c0 54 20 97 60 128c40 32 89 48 147 48c57 0 104 -10 143 -31c1 9 2 18 2 28c0 45 -39 67 -116 67c-49 0 -97 -10 -144 -31zM372 144l9 54c-19 17 -44 25 -77 25c-45 0 -84 -24 -84 -65c0 -33 28 -54 68 -54c35 0 63 13 84 40zM475 732h112
c-20 -108 -97 -171 -194 -171c-92 0 -163 54 -163 145c0 5 1 14 2 26h112v-6c0 -37 20 -61 56 -61c37 0 66 27 75 67z" />
    <glyph glyph-name="Aogonek" unicode="&#x104;" horiz-adv-x="781" 
d="M664 0h-82l-36 148h-260l-82 -148h-194l405 704h173l183 -704c-29 -25 -44 -48 -44 -70c0 -21 13 -31 40 -31c13 0 25 2 36 7l-17 -103c-16 -6 -38 -9 -66 -9c-77 0 -121 36 -121 89c0 42 22 81 65 117zM468 479l-102 -187h146z" />
    <glyph glyph-name="aogonek" unicode="&#x105;" horiz-adv-x="613" 
d="M137 352l22 139c52 20 110 30 175 30c69 0 126 -15 171 -45c46 -30 69 -77 69 -142c0 -10 -3 -32 -8 -66l-13 -76c-3 -15 -4 -27 -4 -35c0 -18 10 -27 30 -27c9 0 17 2 26 5l-20 -123c-29 -25 -44 -48 -44 -70c0 -21 13 -31 40 -31c13 0 25 2 36 7l-17 -103
c-16 -6 -38 -9 -66 -9c-77 0 -121 36 -121 89c0 35 14 67 43 97c-43 7 -70 26 -80 55c-40 -40 -91 -60 -152 -60c-112 0 -179 65 -179 156c0 54 20 97 60 128c40 32 89 48 147 48c57 0 104 -10 143 -31c1 9 2 18 2 28c0 45 -39 67 -116 67c-49 0 -97 -10 -144 -31zM372 144
l9 54c-19 17 -44 25 -77 25c-45 0 -84 -24 -84 -65c0 -33 28 -54 68 -54c35 0 63 13 84 40z" />
    <glyph glyph-name="Cacute" unicode="&#x106;" horiz-adv-x="673" 
d="M665 208l-28 -179c-61 -29 -122 -43 -183 -43c-107 0 -193 31 -259 92c-66 62 -99 142 -99 239c0 118 38 214 114 287c77 73 176 110 297 110c79 0 150 -14 212 -43l-30 -169c-51 31 -112 46 -183 46c-68 0 -123 -20 -164 -61c-41 -40 -61 -93 -61 -159
c0 -51 17 -94 51 -127c35 -33 81 -49 140 -49c75 0 140 19 193 56zM538 912h209l-181 -152h-147z" />
    <glyph glyph-name="cacute" unicode="&#x107;" horiz-adv-x="512" 
d="M65 237c0 81 29 148 88 202c59 55 133 82 220 82c61 0 116 -13 164 -39l-24 -147c-43 21 -85 32 -126 32c-85 0 -146 -49 -146 -122c0 -37 14 -64 42 -82c29 -18 61 -27 97 -27c39 0 77 8 114 24l-24 -147c-41 -17 -86 -26 -133 -26c-77 0 -141 22 -194 67
c-52 45 -78 106 -78 183zM405 728h209l-181 -152h-147z" />
    <glyph glyph-name="Ccircumflex" unicode="&#x108;" horiz-adv-x="673" 
d="M665 208l-28 -179c-61 -29 -122 -43 -183 -43c-107 0 -193 31 -259 92c-66 62 -99 142 -99 239c0 118 38 214 114 287c77 73 176 110 297 110c79 0 150 -14 212 -43l-30 -169c-51 31 -112 46 -183 46c-68 0 -123 -20 -164 -61c-41 -40 -61 -93 -61 -159
c0 -51 17 -94 51 -127c35 -33 81 -49 140 -49c75 0 140 19 193 56zM620 912l100 -152h-143l-50 70l-71 -70h-154l151 152h167z" />
    <glyph glyph-name="ccircumflex" unicode="&#x109;" horiz-adv-x="512" 
d="M65 237c0 81 29 148 88 202c59 55 133 82 220 82c61 0 116 -13 164 -39l-24 -147c-43 21 -85 32 -126 32c-85 0 -146 -49 -146 -122c0 -37 14 -64 42 -82c29 -18 61 -27 97 -27c39 0 77 8 114 24l-24 -147c-41 -17 -86 -26 -133 -26c-77 0 -141 22 -194 67
c-52 45 -78 106 -78 183zM478 728l100 -152h-143l-50 70l-71 -70h-154l151 152h167z" />
    <glyph glyph-name="Cdotaccent" unicode="&#x10a;" horiz-adv-x="673" 
d="M665 208l-28 -179c-61 -29 -122 -43 -183 -43c-107 0 -193 31 -259 92c-66 62 -99 142 -99 239c0 118 38 214 114 287c77 73 176 110 297 110c79 0 150 -14 212 -43l-30 -169c-51 31 -112 46 -183 46c-68 0 -123 -20 -164 -61c-41 -40 -61 -93 -61 -159
c0 -51 17 -94 51 -127c35 -33 81 -49 140 -49c75 0 140 19 193 56zM529 750c-47 0 -87 39 -87 87s39 86 87 86c49 0 87 -38 87 -86s-38 -87 -87 -87z" />
    <glyph glyph-name="cdotaccent" unicode="&#x10b;" horiz-adv-x="512" 
d="M65 237c0 81 29 148 88 202c59 55 133 82 220 82c61 0 116 -13 164 -39l-24 -147c-43 21 -85 32 -126 32c-85 0 -146 -49 -146 -122c0 -37 14 -64 42 -82c29 -18 61 -27 97 -27c39 0 77 8 114 24l-24 -147c-41 -17 -86 -26 -133 -26c-77 0 -141 22 -194 67
c-52 45 -78 106 -78 183zM413 566c-47 0 -87 39 -87 87s39 86 87 86c49 0 87 -38 87 -86s-38 -87 -87 -87z" />
    <glyph glyph-name="Ccaron" unicode="&#x10c;" horiz-adv-x="673" 
d="M665 208l-28 -179c-61 -29 -122 -43 -183 -43c-107 0 -193 31 -259 92c-66 62 -99 142 -99 239c0 118 38 214 114 287c77 73 176 110 297 110c79 0 150 -14 212 -43l-30 -169c-51 31 -112 46 -183 46c-68 0 -123 -20 -164 -61c-41 -40 -61 -93 -61 -159
c0 -51 17 -94 51 -127c35 -33 81 -49 140 -49c75 0 140 19 193 56zM430 760l-100 152h143l50 -70l71 70h154l-151 -152h-167z" />
    <glyph glyph-name="ccaron" unicode="&#x10d;" horiz-adv-x="512" 
d="M65 237c0 81 29 148 88 202c59 55 133 82 220 82c61 0 116 -13 164 -39l-24 -147c-43 21 -85 32 -126 32c-85 0 -146 -49 -146 -122c0 -37 14 -64 42 -82c29 -18 61 -27 97 -27c39 0 77 8 114 24l-24 -147c-41 -17 -86 -26 -133 -26c-77 0 -141 22 -194 67
c-52 45 -78 106 -78 183zM286 576l-100 152h143l50 -70l71 70h154l-151 -152h-167z" />
    <glyph glyph-name="Dcaron" unicode="&#x10e;" horiz-adv-x="782" 
d="M332 542l-60 -384h116c67 0 120 20 158 60c38 41 57 93 57 157c0 47 -16 87 -48 119c-31 32 -73 48 -126 48h-97zM379 0h-312l110 700h257c107 0 192 -30 257 -91c65 -60 97 -138 97 -234c0 -107 -38 -197 -115 -268s-175 -107 -294 -107zM387 760l-100 152h143l50 -70
l71 70h154l-151 -152h-167z" />
    <glyph glyph-name="dcaron" unicode="&#x10f;" horiz-adv-x="864" 
d="M485 452l39 248h177l-109 -700h-177l8 55c-42 -45 -93 -68 -154 -68s-110 22 -148 67c-37 45 -56 101 -56 168c0 50 10 97 29 142c39 89 126 157 235 157c66 0 118 -23 156 -69zM444 191l20 126c-17 31 -59 56 -103 56c-32 0 -59 -13 -82 -39c-22 -25 -33 -57 -33 -94
c0 -64 39 -103 96 -103c43 0 77 18 102 54zM743 482l60 218h154l-84 -218h-130z" />
    <glyph glyph-name="Dcroat" unicode="&#x110;" horiz-adv-x="840" 
d="M171 296h-89l24 149h89l40 255h257c107 0 192 -30 257 -91c65 -60 97 -138 97 -234c0 -107 -38 -197 -115 -268s-175 -107 -294 -107h-312zM351 296l-21 -138h116c67 0 120 20 158 60c38 41 57 93 57 157c0 47 -16 87 -48 119c-31 32 -73 48 -126 48h-97l-15 -97h126
l-24 -149h-126z" />
    <glyph glyph-name="dslash" unicode="&#x111;" horiz-adv-x="644" 
d="M515 646l9 54h177l-9 -54h93l-12 -75h-92l-89 -571h-177l8 55c-42 -45 -93 -68 -154 -68s-110 22 -148 67c-37 45 -56 101 -56 168c0 50 10 97 29 142c39 89 126 157 235 157c66 0 118 -23 156 -69l18 119h-118l12 75h118zM444 191l20 126c-17 31 -59 56 -103 56
c-32 0 -59 -13 -82 -39c-22 -25 -33 -57 -33 -94c0 -64 39 -103 96 -103c43 0 77 18 102 54z" />
    <glyph glyph-name="Emacron" unicode="&#x112;" horiz-adv-x="654" 
d="M293 295l-21 -137h360l-25 -158h-540l110 700h532l-25 -158h-352l-15 -95h280l-24 -152h-280zM666 776h-414l19 116h414z" />
    <glyph glyph-name="emacron" unicode="&#x113;" horiz-adv-x="595" 
d="M585 304c0 -25 -4 -56 -11 -93h-340c7 -53 65 -79 142 -79c55 0 109 14 162 41l-21 -138c-44 -32 -108 -48 -191 -48c-75 0 -137 22 -187 67c-49 45 -74 104 -74 177c0 83 27 152 82 207s123 83 205 83c69 0 125 -20 168 -60s65 -92 65 -157zM247 305h169
c3 52 -24 86 -72 86c-45 0 -84 -33 -97 -86zM591 592h-414l19 116h414z" />
    <glyph glyph-name="Ebreve" unicode="&#x114;" horiz-adv-x="654" 
d="M537 916h112c-20 -108 -97 -171 -194 -171c-92 0 -163 54 -163 145c0 5 1 14 2 26h112v-6c0 -37 20 -61 56 -61c37 0 66 27 75 67zM293 295l-21 -137h360l-25 -158h-540l110 700h532l-25 -158h-352l-15 -95h280l-24 -152h-280z" />
    <glyph glyph-name="ebreve" unicode="&#x115;" horiz-adv-x="570" 
d="M585 304c0 -25 -4 -56 -11 -93h-340c7 -53 65 -79 142 -79c55 0 109 14 162 41l-21 -138c-44 -32 -108 -48 -191 -48c-75 0 -137 22 -187 67c-49 45 -74 104 -74 177c0 83 27 152 82 207s123 83 205 83c69 0 125 -20 168 -60s65 -92 65 -157zM247 305h169
c3 52 -24 86 -72 86c-45 0 -84 -33 -97 -86zM462 732h112c-20 -108 -97 -171 -194 -171c-92 0 -163 54 -163 145c0 5 1 14 2 26h112v-6c0 -37 20 -61 56 -61c37 0 66 27 75 67z" />
    <glyph glyph-name="Edotaccent" unicode="&#x116;" horiz-adv-x="654" 
d="M293 295l-21 -137h360l-25 -158h-540l110 700h532l-25 -158h-352l-15 -95h280l-24 -152h-280zM458 750c-47 0 -87 39 -87 87s39 86 87 86c49 0 87 -38 87 -86s-38 -87 -87 -87z" />
    <glyph glyph-name="edotaccent" unicode="&#x117;" horiz-adv-x="570" 
d="M585 304c0 -25 -4 -56 -11 -93h-340c7 -53 65 -79 142 -79c55 0 109 14 162 41l-21 -138c-44 -32 -108 -48 -191 -48c-75 0 -137 22 -187 67c-49 45 -74 104 -74 177c0 83 27 152 82 207s123 83 205 83c69 0 125 -20 168 -60s65 -92 65 -157zM247 305h169
c3 52 -24 86 -72 86c-45 0 -84 -33 -97 -86zM389 566c-47 0 -87 39 -87 87s39 86 87 86c49 0 87 -38 87 -86s-38 -87 -87 -87z" />
    <glyph glyph-name="Eogonek" unicode="&#x118;" horiz-adv-x="651" 
d="M500 0h-433l110 700h532l-25 -158h-352l-15 -95h280l-24 -152h-280l-21 -137h360l-25 -158c-29 -25 -44 -48 -44 -70c0 -21 13 -31 40 -31c13 0 25 2 36 7l-17 -103c-16 -6 -38 -9 -66 -9c-77 0 -121 36 -121 89c0 42 22 81 65 117z" />
    <glyph glyph-name="eogonek" unicode="&#x119;" horiz-adv-x="570" 
d="M585 304c0 -25 -4 -56 -11 -93h-340c7 -53 65 -79 142 -79c55 0 109 14 162 41l-21 -138l-33 -20c-17 -9 -30 -17 -39 -23c-17 -12 -39 -38 -39 -63c0 -20 13 -30 40 -30c13 0 25 2 36 7l-17 -103c-16 -6 -38 -9 -66 -9c-77 0 -122 36 -122 89c0 38 20 73 59 104h-10
c-75 0 -137 22 -187 67c-49 45 -74 104 -74 177c0 83 27 152 82 207s123 83 205 83c69 0 125 -20 168 -60s65 -92 65 -157zM247 305h169c3 52 -24 86 -72 86c-45 0 -84 -33 -97 -86z" />
    <glyph glyph-name="Ecaron" unicode="&#x11a;" horiz-adv-x="654" 
d="M293 295l-21 -137h360l-25 -158h-540l110 700h532l-25 -158h-352l-15 -95h280l-24 -152h-280zM372 760l-100 152h143l50 -70l71 70h154l-151 -152h-167z" />
    <glyph glyph-name="ecaron" unicode="&#x11b;" horiz-adv-x="570" 
d="M585 304c0 -25 -4 -56 -11 -93h-340c7 -53 65 -79 142 -79c55 0 109 14 162 41l-21 -138c-44 -32 -108 -48 -191 -48c-75 0 -137 22 -187 67c-49 45 -74 104 -74 177c0 83 27 152 82 207s123 83 205 83c69 0 125 -20 168 -60s65 -92 65 -157zM247 305h169
c3 52 -24 86 -72 86c-45 0 -84 -33 -97 -86zM296 576l-100 152h143l50 -70l71 70h154l-151 -152h-167z" />
    <glyph glyph-name="Gcircumflex" unicode="&#x11c;" horiz-adv-x="761" 
d="M562 175l36 233h181l-51 -323c-72 -66 -168 -99 -289 -99c-100 0 -182 31 -247 93c-64 62 -96 142 -96 240c0 116 38 211 114 284c77 74 176 111 297 111c81 0 152 -14 214 -43l-30 -169c-51 31 -113 46 -185 46c-69 0 -123 -20 -164 -61c-41 -40 -61 -94 -61 -162
c0 -109 74 -179 175 -179c42 0 77 10 106 29zM626 912l100 -152h-143l-50 70l-71 -70h-154l151 152h167z" />
    <glyph glyph-name="gcircumflex" unicode="&#x11d;" horiz-adv-x="638" 
d="M478 455l8 53h177l-71 -455c-9 -61 -32 -112 -69 -152c-73 -80 -166 -107 -274 -107c-86 0 -151 14 -195 43l24 154c49 -33 107 -49 174 -49c24 0 46 3 66 8c41 11 89 48 98 109l4 29c-43 -43 -95 -65 -155 -65c-61 0 -109 21 -146 63c-36 42 -54 94 -54 156
c0 73 23 138 69 194c47 56 110 84 191 84c63 0 114 -22 153 -65zM339 168c39 0 73 16 101 48l17 107c-23 33 -56 49 -100 49c-64 0 -111 -50 -111 -115c0 -55 37 -89 93 -89zM509 728l100 -152h-143l-50 70l-71 -70h-154l151 152h167z" />
    <glyph glyph-name="Gbreve" unicode="&#x11e;" horiz-adv-x="761" 
d="M562 175l36 233h181l-51 -323c-72 -66 -168 -99 -289 -99c-100 0 -182 31 -247 93c-64 62 -96 142 -96 240c0 116 38 211 114 284c77 74 176 111 297 111c81 0 152 -14 214 -43l-30 -169c-51 31 -113 46 -185 46c-69 0 -123 -20 -164 -61c-41 -40 -61 -94 -61 -162
c0 -109 74 -179 175 -179c42 0 77 10 106 29zM619 932h112c-20 -108 -97 -171 -194 -171c-92 0 -163 54 -163 145c0 5 1 14 2 26h112v-6c0 -37 20 -61 56 -61c37 0 66 27 75 67z" />
    <glyph glyph-name="gbreve" unicode="&#x11f;" horiz-adv-x="638" 
d="M478 455l8 53h177l-71 -455c-9 -61 -32 -112 -69 -152c-73 -80 -166 -107 -274 -107c-86 0 -151 14 -195 43l24 154c49 -33 107 -49 174 -49c24 0 46 3 66 8c41 11 89 48 98 109l4 29c-43 -43 -95 -65 -155 -65c-61 0 -109 21 -146 63c-36 42 -54 94 -54 156
c0 73 23 138 69 194c47 56 110 84 191 84c63 0 114 -22 153 -65zM339 168c39 0 73 16 101 48l17 107c-23 33 -56 49 -100 49c-64 0 -111 -50 -111 -115c0 -55 37 -89 93 -89zM485 732h112c-20 -108 -97 -171 -194 -171c-92 0 -163 54 -163 145c0 5 1 14 2 26h112v-6
c0 -37 20 -61 56 -61c37 0 66 27 75 67z" />
    <glyph glyph-name="Gdotaccent" unicode="&#x120;" horiz-adv-x="761" 
d="M562 175l36 233h181l-51 -323c-72 -66 -168 -99 -289 -99c-100 0 -182 31 -247 93c-64 62 -96 142 -96 240c0 116 38 211 114 284c77 74 176 111 297 111c81 0 152 -14 214 -43l-30 -169c-51 31 -113 46 -185 46c-69 0 -123 -20 -164 -61c-41 -40 -61 -94 -61 -162
c0 -109 74 -179 175 -179c42 0 77 10 106 29zM531 750c-47 0 -87 39 -87 87s39 86 87 86c49 0 87 -38 87 -86s-38 -87 -87 -87z" />
    <glyph glyph-name="gdotaccent" unicode="&#x121;" horiz-adv-x="638" 
d="M478 455l8 53h177l-71 -455c-9 -61 -32 -112 -69 -152c-73 -80 -166 -107 -274 -107c-86 0 -151 14 -195 43l24 154c49 -33 107 -49 174 -49c24 0 46 3 66 8c41 11 89 48 98 109l4 29c-43 -43 -95 -65 -155 -65c-61 0 -109 21 -146 63c-36 42 -54 94 -54 156
c0 73 23 138 69 194c47 56 110 84 191 84c63 0 114 -22 153 -65zM339 168c39 0 73 16 101 48l17 107c-23 33 -56 49 -100 49c-64 0 -111 -50 -111 -115c0 -55 37 -89 93 -89zM428 566c-47 0 -87 39 -87 87s39 86 87 86c49 0 87 -38 87 -86s-38 -87 -87 -87z" />
    <glyph glyph-name="uni0122" unicode="&#x122;" horiz-adv-x="761" 
d="M562 175l36 233h181l-51 -323c-72 -66 -168 -99 -289 -99c-100 0 -182 31 -247 93c-64 62 -96 142 -96 240c0 116 38 211 114 284c77 74 176 111 297 111c81 0 152 -14 214 -43l-30 -169c-51 31 -113 46 -185 46c-69 0 -123 -20 -164 -61c-41 -40 -61 -94 -61 -162
c0 -109 74 -179 175 -179c42 0 77 10 106 29zM295 -290l60 218h154l-84 -218h-130z" />
    <glyph glyph-name="uni0123" unicode="&#x123;" horiz-adv-x="638" 
d="M478 455l8 53h177l-71 -455c-9 -61 -32 -112 -69 -152c-73 -80 -166 -107 -274 -107c-86 0 -151 14 -195 43l24 154c49 -33 107 -49 174 -49c24 0 46 3 66 8c41 11 89 48 98 109l4 29c-43 -43 -95 -65 -155 -65c-61 0 -109 21 -146 63c-36 42 -54 94 -54 156
c0 73 23 138 69 194c47 56 110 84 191 84c63 0 114 -22 153 -65zM339 168c39 0 73 16 101 48l17 107c-23 33 -56 49 -100 49c-64 0 -111 -50 -111 -115c0 -55 37 -89 93 -89zM509 800l-60 -218h-154l84 218h130z" />
    <glyph glyph-name="Hcircumflex" unicode="&#x124;" horiz-adv-x="758" 
d="M247 0h-180l111 700h180l-40 -249h264l40 249h180l-111 -700h-180l46 291h-264zM608 912l100 -152h-143l-50 70l-71 -70h-154l151 152h167z" />
    <glyph glyph-name="hcircumflex" unicode="&#x125;" horiz-adv-x="610" 
d="M563 0h-177l40 255c3 17 4 31 4 42c0 45 -27 66 -63 66c-32 0 -61 -14 -88 -43l-51 -320h-177l111 700h177l-40 -250c50 47 103 71 160 71c96 0 154 -68 154 -169c0 -23 -2 -47 -6 -71zM371 912l100 -152h-143l-50 70l-71 -70h-154l151 152h167z" />
    <glyph glyph-name="Hbar" unicode="&#x126;" horiz-adv-x="882" 
d="M309 0h-180l81 509h-62l18 116h62l12 75h180l-12 -75h264l12 75h180l-12 -75h62l-18 -116h-62l-81 -509h-180l46 291h-264zM390 509l-10 -58h264l10 58h-264z" />
    <glyph glyph-name="hbar" unicode="&#x127;" horiz-adv-x="663" 
d="M616 0h-177l25 163c3 17 4 31 4 42c0 45 -27 66 -63 66c-32 0 -61 -14 -88 -43l-36 -228h-177l80 509h-101l19 116h101l12 75h177l-12 -75h169l-19 -116h-169l-24 -151c50 47 103 71 160 71c96 0 154 -68 154 -169c0 -23 -2 -47 -6 -71z" />
    <glyph glyph-name="Itilde" unicode="&#x128;" horiz-adv-x="322" 
d="M175 761h-89c7 43 24 79 52 109c29 31 62 46 99 46c21 0 44 -7 67 -20s42 -19 56 -19c23 0 40 12 50 35h89c-7 -39 -24 -75 -53 -107s-61 -48 -97 -48c-23 0 -46 7 -69 20s-42 20 -55 20c-24 0 -41 -12 -50 -36zM181 700h180l-110 -700h-180z" />
    <glyph glyph-name="itilde" unicode="&#x129;" horiz-adv-x="277" 
d="M124 576h-89c7 43 24 80 52 110c28 31 61 46 98 46c21 0 44 -7 67 -20c24 -13 43 -19 57 -19c23 0 40 12 50 35h89c-7 -39 -24 -75 -53 -108c-29 -32 -61 -48 -97 -48c-23 0 -46 7 -69 20s-42 20 -55 20c-24 0 -41 -12 -50 -36zM50 0l80 508h177l-80 -508h-177z" />
    <glyph glyph-name="Imacron" unicode="&#x12a;" horiz-adv-x="322" 
d="M181 700h180l-110 -700h-180zM491 776h-414l19 116h414z" />
    <glyph glyph-name="imacron" unicode="&#x12b;" horiz-adv-x="277" 
d="M50 0l80 508h177l-80 -508h-177zM438 592h-414l19 116h414z" />
    <glyph glyph-name="Ibreve" unicode="&#x12c;" horiz-adv-x="322" 
d="M181 700h180l-110 -700h-180zM371 916h112c-20 -108 -97 -171 -194 -171c-92 0 -163 54 -163 145c0 5 1 14 2 26h112v-6c0 -37 20 -61 56 -61c37 0 66 27 75 67z" />
    <glyph glyph-name="ibreve" unicode="&#x12d;" horiz-adv-x="277" 
d="M50 0l80 508h177l-80 -508h-177zM318 732h112c-20 -108 -97 -171 -194 -171c-92 0 -163 54 -163 145c0 5 1 14 2 26h112v-6c0 -37 20 -61 56 -61c37 0 66 27 75 67z" />
    <glyph glyph-name="Iogonek" unicode="&#x12e;" horiz-adv-x="322" 
d="M144 0h-73l110 700h180l-110 -700c-29 -25 -44 -48 -44 -70c0 -21 13 -31 40 -31c13 0 25 2 36 7l-17 -103c-16 -6 -38 -9 -66 -9c-77 0 -121 36 -121 89c0 42 22 81 65 117z" />
    <glyph glyph-name="iogonek" unicode="&#x12f;" horiz-adv-x="310" 
d="M136 0h-70l80 508h177l-80 -508c-29 -25 -44 -48 -44 -70c0 -21 13 -31 40 -31c13 0 25 2 36 7l-17 -103c-16 -6 -38 -9 -66 -9c-77 0 -121 36 -121 89c0 42 22 81 65 117zM256 758c57 0 102 -45 102 -102s-45 -102 -102 -102c-56 0 -101 45 -101 102s45 102 101 102z
" />
    <glyph glyph-name="Idot" unicode="&#x130;" horiz-adv-x="322" 
d="M181 700h180l-110 -700h-180zM283 750c-47 0 -87 39 -87 87s39 86 87 86c49 0 87 -38 87 -86s-38 -87 -87 -87z" />
    <glyph glyph-name="dotlessi" unicode="&#x131;" horiz-adv-x="277" 
d="M50 0l80 508h177l-80 -508h-177z" />
    <glyph glyph-name="IJ" unicode="&#x132;" horiz-adv-x="643" 
d="M294 278h-180l67 422h180zM273 -14c-35 0 -72 4 -110 12c-37 8 -67 20 -88 35l27 169c49 -33 106 -50 170 -50c104 0 161 35 176 127l67 421h180l-70 -437c-16 -104 -63 -180 -130 -220s-138 -57 -222 -57z" />
    <glyph glyph-name="Jcircumflex" unicode="&#x134;" horiz-adv-x="514" 
d="M320 285l66 415h180l-75 -468c-33 -197 -149 -246 -282 -246c-32 0 -65 4 -100 12s-61 19 -80 33l28 174c31 -31 89 -53 136 -53c72 0 111 36 127 133zM593 912l100 -152h-143l-50 70l-71 -70h-154l151 152h167z" />
    <glyph glyph-name="jcircumflex" unicode="&#x135;" horiz-adv-x="310" 
d="M147 508h177l-80 -507c-20 -128 -107 -207 -234 -207c-55 0 -95 7 -120 22l24 147c24 -13 48 -19 73 -19c47 0 75 23 82 70zM357 728l100 -152h-143l-50 70l-71 -70h-154l151 152h167z" />
    <glyph glyph-name="uni0136" unicode="&#x136;" horiz-adv-x="735" 
d="M477 365l259 -365h-215l-225 311l-49 -311h-180l110 700h180l-42 -267l255 267h224zM236 -290l60 218h154l-84 -218h-130z" />
    <glyph glyph-name="uni0137" unicode="&#x137;" horiz-adv-x="632" 
d="M442 268l191 -268h-204l-158 215l-33 -215h-177l110 700h177l-58 -362l168 170h223zM197 -290l60 218h154l-84 -218h-130z" />
    <glyph glyph-name="kgreenlandic" unicode="&#x138;" horiz-adv-x="632" 
d="M442 268l191 -268h-204l-158 215l-33 -215h-177l80 508h177l-28 -170l168 170h223z" />
    <glyph glyph-name="Lacute" unicode="&#x139;" horiz-adv-x="609" 
d="M357 700l-85 -542h336l-25 -158h-516l110 700h180zM323 912h209l-181 -152h-147z" />
    <glyph glyph-name="lacute" unicode="&#x13a;" horiz-adv-x="334" 
d="M326 145l-22 -139c-29 -13 -60 -19 -95 -19c-77 0 -127 41 -127 125c0 16 2 37 7 64l82 524h177l-80 -510c-2 -12 -3 -21 -3 -26c0 -17 10 -26 30 -26c11 0 22 2 31 7zM316 912h209l-181 -152h-147z" />
    <glyph glyph-name="uni013B" unicode="&#x13b;" horiz-adv-x="609" 
d="M357 700l-85 -542h336l-25 -158h-516l110 700h180zM208 -290l60 218h154l-84 -218h-130z" />
    <glyph glyph-name="lcommaaccent" unicode="&#x13c;" horiz-adv-x="334" 
d="M326 145l-22 -139c-29 -13 -60 -19 -95 -19c-77 0 -127 41 -127 125c0 16 2 37 7 64l82 524h177l-80 -510c-2 -12 -3 -21 -3 -26c0 -17 10 -26 30 -26c11 0 22 2 31 7zM42 -290l60 218h154l-84 -218h-130z" />
    <glyph glyph-name="Lcaron" unicode="&#x13d;" horiz-adv-x="609" 
d="M357 700l-85 -542h336l-25 -158h-516l110 700h180zM497 482l60 218h154l-84 -218h-130z" />
    <glyph glyph-name="lcaron" unicode="&#x13e;" horiz-adv-x="490" 
d="M304 145l-22 -139c-29 -13 -60 -19 -95 -19c-77 0 -127 41 -127 125c0 16 2 37 7 64l82 524h177l-80 -510c-2 -12 -3 -21 -3 -26c0 -17 10 -26 30 -26c11 0 22 2 31 7zM369 482l60 218h154l-84 -218h-130z" />
    <glyph glyph-name="Ldot" unicode="&#x13f;" horiz-adv-x="609" 
d="M357 700l-85 -542h336l-25 -158h-516l110 700h180zM645 389c0 -59 -46 -106 -105 -106s-105 47 -105 106c0 29 10 53 30 74c21 21 46 31 75 31s54 -10 74 -31c21 -21 31 -45 31 -74z" />
    <glyph glyph-name="ldot" unicode="&#x140;" horiz-adv-x="518" 
d="M578 389c0 -59 -46 -106 -105 -106s-105 47 -105 106c0 57 48 105 105 105s105 -48 105 -105zM316 145l-22 -139c-29 -13 -60 -19 -95 -19c-77 0 -127 41 -127 125c0 16 2 37 7 64l82 524h177l-80 -510c-2 -12 -3 -21 -3 -26c0 -17 10 -26 30 -26c11 0 22 2 31 7z" />
    <glyph glyph-name="Lslash" unicode="&#x141;" horiz-adv-x="649" 
d="M147 255l-108 -64l24 151l107 64l47 294h180l-28 -176l157 94l-24 -151l-156 -93l-34 -216h336l-25 -158h-516z" />
    <glyph glyph-name="lslash" unicode="&#x142;" horiz-adv-x="413" 
d="M155 234l-114 -68l24 151l113 67l50 316h177l-32 -199l115 68l-24 -151l-114 -68l-25 -160c-2 -12 -3 -21 -3 -26c0 -17 10 -26 30 -26c11 0 22 2 31 7l-22 -139c-29 -13 -60 -19 -95 -19c-77 0 -127 41 -127 125c0 16 2 37 7 64z" />
    <glyph glyph-name="Nacute" unicode="&#x143;" horiz-adv-x="769" 
d="M574 298l63 402h176l-110 -700h-148l-248 404l-63 -404h-177l110 700h153zM543 912h209l-181 -152h-147z" />
    <glyph glyph-name="nacute" unicode="&#x144;" horiz-adv-x="629" 
d="M573 0h-177l40 255c3 17 4 31 4 42c0 45 -27 66 -63 66c-32 0 -61 -14 -88 -43l-51 -320h-177l80 508h177l-9 -57c49 47 103 70 160 70c96 0 154 -68 154 -169c0 -23 -2 -47 -6 -71zM423 728h209l-181 -152h-147z" />
    <glyph glyph-name="uni0145" unicode="&#x145;" horiz-adv-x="769" 
d="M574 298l63 402h176l-110 -700h-148l-248 404l-63 -404h-177l110 700h153zM274 -290l60 218h154l-84 -218h-130z" />
    <glyph glyph-name="uni0146" unicode="&#x146;" horiz-adv-x="620" 
d="M573 0h-177l40 255c3 17 4 31 4 42c0 45 -27 66 -63 66c-32 0 -61 -14 -88 -43l-51 -320h-177l80 508h177l-9 -57c49 47 103 70 160 70c96 0 154 -68 154 -169c0 -23 -2 -47 -6 -71zM168 -290l60 218h154l-84 -218h-130z" />
    <glyph glyph-name="Ncaron" unicode="&#x147;" horiz-adv-x="769" 
d="M574 298l63 402h176l-110 -700h-148l-248 404l-63 -404h-177l110 700h153zM420 760l-100 152h143l50 -70l71 70h154l-151 -152h-167z" />
    <glyph glyph-name="ncaron" unicode="&#x148;" horiz-adv-x="638" 
d="M573 0h-177l40 255c3 17 4 31 4 42c0 45 -27 66 -63 66c-32 0 -61 -14 -88 -43l-51 -320h-177l80 508h177l-9 -57c49 47 103 70 160 70c96 0 154 -68 154 -169c0 -23 -2 -47 -6 -71zM323 576l-100 152h143l50 -70l71 70h154l-151 -152h-167z" />
    <glyph glyph-name="napostrophe" unicode="&#x149;" horiz-adv-x="811" 
d="M764 0h-177l40 255c3 17 4 31 4 42c0 45 -27 66 -63 66c-32 0 -61 -14 -88 -43l-51 -320h-177l80 508h177l-9 -57c49 47 103 70 160 70c96 0 154 -68 154 -169c0 -23 -2 -47 -6 -71zM105 482l60 218h154l-84 -218h-130z" />
    <glyph glyph-name="Eng" unicode="&#x14a;" horiz-adv-x="769" 
d="M572 309l62 391h179l-114 -723c-20 -128 -107 -207 -234 -207c-56 0 -96 7 -120 22l23 147c24 -13 49 -19 74 -19c46 0 73 23 80 70l8 50l-221 353l-62 -393h-180l110 700h153z" />
    <glyph glyph-name="eng" unicode="&#x14b;" horiz-adv-x="620" 
d="M469 521c96 0 154 -68 154 -169c0 -23 -2 -47 -6 -71l-44 -281c-20 -128 -107 -207 -234 -207c-55 0 -96 7 -121 22l24 147c24 -13 49 -19 74 -19c47 0 75 23 82 70l38 242c3 17 4 31 4 42c0 45 -27 66 -63 66c-32 0 -61 -14 -88 -43l-51 -320h-177l80 508h177l-9 -58
c50 47 103 71 160 71z" />
    <glyph glyph-name="Omacron" unicode="&#x14c;" horiz-adv-x="828" 
d="M483 714c107 0 192 -31 255 -94c64 -63 96 -144 96 -245c0 -109 -37 -202 -112 -277s-166 -112 -275 -112c-105 0 -190 31 -255 94c-64 63 -96 145 -96 245c0 110 37 202 112 277s166 112 275 112zM649 375c0 49 -16 90 -47 123s-72 50 -124 50c-57 0 -105 -21 -142 -64
s-55 -96 -55 -159c0 -49 15 -90 46 -123s73 -50 125 -50c58 0 105 21 142 63c37 43 55 96 55 160zM744 776h-414l19 116h414z" />
    <glyph glyph-name="omacron" unicode="&#x14d;" horiz-adv-x="608" 
d="M348 521c78 0 143 -24 194 -72c51 -47 77 -109 77 -184s-27 -140 -81 -195s-122 -83 -203 -83c-78 0 -143 24 -194 71c-51 48 -76 110 -76 186c0 75 27 139 81 194s121 83 202 83zM334 136c32 0 59 13 82 38c23 26 34 58 34 95c0 63 -44 103 -101 103
c-32 0 -59 -13 -82 -39c-22 -25 -33 -56 -33 -93c0 -63 43 -104 100 -104zM602 592h-414l19 116h414z" />
    <glyph glyph-name="Obreve" unicode="&#x14e;" horiz-adv-x="828" 
d="M483 714c107 0 192 -31 255 -94c64 -63 96 -144 96 -245c0 -109 -37 -202 -112 -277s-166 -112 -275 -112c-105 0 -190 31 -255 94c-64 63 -96 145 -96 245c0 110 37 202 112 277s166 112 275 112zM649 375c0 49 -16 90 -47 123s-72 50 -124 50c-57 0 -105 -21 -142 -64
s-55 -96 -55 -159c0 -49 15 -90 46 -123s73 -50 125 -50c58 0 105 21 142 63c37 43 55 96 55 160zM625 931h112c-20 -108 -97 -171 -194 -171c-92 0 -163 54 -163 145c0 5 1 14 2 26h112v-6c0 -37 20 -61 56 -61c37 0 66 27 75 67z" />
    <glyph glyph-name="obreve" unicode="&#x14f;" horiz-adv-x="606" 
d="M348 521c78 0 143 -24 194 -72c51 -47 77 -109 77 -184s-27 -140 -81 -195s-122 -83 -203 -83c-78 0 -143 24 -194 71c-51 48 -76 110 -76 186c0 75 27 139 81 194s121 83 202 83zM334 136c32 0 59 13 82 38c23 26 34 58 34 95c0 63 -44 103 -101 103
c-32 0 -59 -13 -82 -39c-22 -25 -33 -56 -33 -93c0 -63 43 -104 100 -104zM484 741h112c-20 -108 -97 -171 -194 -171c-92 0 -163 54 -163 145c0 5 1 14 2 26h112v-6c0 -37 20 -61 56 -61c37 0 66 27 75 67z" />
    <glyph glyph-name="Ohungarumlaut" unicode="&#x150;" horiz-adv-x="828" 
d="M483 714c107 0 192 -31 255 -94c64 -63 96 -144 96 -245c0 -109 -37 -202 -112 -277s-166 -112 -275 -112c-105 0 -190 31 -255 94c-64 63 -96 145 -96 245c0 110 37 202 112 277s166 112 275 112zM649 375c0 49 -16 90 -47 123s-72 50 -124 50c-57 0 -105 -21 -142 -64
s-55 -96 -55 -159c0 -49 15 -90 46 -123s73 -50 125 -50c58 0 105 21 142 63c37 43 55 96 55 160zM717 912h212l-181 -152h-150zM445 912h212l-181 -152h-150z" />
    <glyph glyph-name="ohungarumlaut" unicode="&#x151;" horiz-adv-x="606" 
d="M348 521c78 0 143 -24 194 -72c51 -47 77 -109 77 -184s-27 -140 -81 -195s-122 -83 -203 -83c-78 0 -143 24 -194 71c-51 48 -76 110 -76 186c0 75 27 139 81 194s121 83 202 83zM334 136c32 0 59 13 82 38c23 26 34 58 34 95c0 63 -44 103 -101 103
c-32 0 -59 -13 -82 -39c-22 -25 -33 -56 -33 -93c0 -63 43 -104 100 -104zM563 728h212l-181 -152h-150zM291 728h212l-181 -152h-150z" />
    <glyph glyph-name="OE" unicode="&#x152;" horiz-adv-x="1104" 
d="M753 295l-21 -137h350l-25 -158h-607c-107 0 -192 30 -257 90c-65 61 -97 139 -97 235c0 107 38 197 115 268s175 107 294 107h654l-25 -158h-342l-15 -95h270l-24 -152h-270zM552 158l60 384h-116c-67 0 -120 -20 -158 -61c-38 -40 -57 -92 -57 -156
c0 -47 16 -87 47 -119c32 -32 74 -48 127 -48h97z" />
    <glyph glyph-name="oe" unicode="&#x153;" horiz-adv-x="932" 
d="M947 304c0 -25 -4 -56 -11 -93h-340c7 -53 65 -79 142 -79c55 0 110 14 163 41l-21 -138c-45 -32 -107 -48 -185 -48c-75 0 -147 29 -186 70c-51 -47 -111 -70 -181 -70c-73 0 -135 24 -186 72c-51 49 -77 110 -77 185s27 139 81 194s122 83 204 83c75 0 137 -23 185 -70
c45 43 118 70 191 70c65 0 118 -20 159 -60s62 -92 62 -157zM334 136c32 0 59 13 82 38c23 26 34 58 34 95c0 63 -44 103 -101 103c-32 0 -59 -13 -82 -39c-22 -25 -33 -56 -33 -93c0 -63 43 -104 100 -104zM609 305h169c3 52 -24 86 -72 86c-45 0 -84 -33 -97 -86z" />
    <glyph glyph-name="Racute" unicode="&#x154;" horiz-adv-x="729" 
d="M560 287l176 -287h-203l-164 267h-80l-42 -267h-180l110 700h310c71 0 128 -19 169 -56s62 -84 62 -141c0 -96 -61 -173 -158 -216zM312 414h135c52 0 88 24 88 71c0 39 -27 63 -74 63h-128zM448 912h209l-181 -152h-147z" />
    <glyph glyph-name="racute" unicode="&#x155;" horiz-adv-x="455" 
d="M509 519l-27 -171c-21 5 -41 8 -59 8c-60 0 -114 -25 -139 -61l-46 -295h-177l80 508h177l-13 -83c15 23 40 45 75 65c35 21 71 31 107 31c9 0 17 -1 22 -2zM342 728h209l-181 -152h-147z" />
    <glyph glyph-name="uni0156" unicode="&#x156;" horiz-adv-x="729" 
d="M560 287l176 -287h-203l-164 267h-80l-42 -267h-180l110 700h310c71 0 128 -19 169 -56s62 -84 62 -141c0 -96 -61 -173 -158 -216zM312 414h135c52 0 88 24 88 71c0 39 -27 63 -74 63h-128zM246 -290l60 218h154l-84 -218h-130z" />
    <glyph glyph-name="uni0157" unicode="&#x157;" horiz-adv-x="455" 
d="M509 519l-27 -171c-21 5 -41 8 -59 8c-60 0 -114 -25 -139 -61l-46 -295h-177l80 508h177l-13 -83c15 23 40 45 75 65c35 21 71 31 107 31c9 0 17 -1 22 -2zM3 -290l60 218h154l-84 -218h-130z" />
    <glyph glyph-name="Rcaron" unicode="&#x158;" horiz-adv-x="729" 
d="M560 287l176 -287h-203l-164 267h-80l-42 -267h-180l110 700h310c71 0 128 -19 169 -56s62 -84 62 -141c0 -96 -61 -173 -158 -216zM312 414h135c52 0 88 24 88 71c0 39 -27 63 -74 63h-128zM370 760l-100 152h143l50 -70l71 70h154l-151 -152h-167z" />
    <glyph glyph-name="rcaron" unicode="&#x159;" horiz-adv-x="455" 
d="M509 519l-27 -171c-21 5 -41 8 -59 8c-60 0 -114 -25 -139 -61l-46 -295h-177l80 508h177l-13 -83c15 23 40 45 75 65c35 21 71 31 107 31c9 0 17 -1 22 -2zM240 576l-100 152h143l50 -70l71 70h154l-151 -152h-167z" />
    <glyph glyph-name="Sacute" unicode="&#x15a;" horiz-adv-x="632" 
d="M653 657l-28 -173c-27 19 -62 34 -105 47s-85 20 -126 20c-65 0 -97 -16 -97 -48c0 -13 9 -22 30 -31c11 -4 21 -8 32 -11c23 -5 64 -18 92 -27c116 -40 186 -95 186 -200c0 -77 -30 -137 -89 -182c-59 -44 -132 -66 -220 -66c-119 0 -211 25 -276 75l29 184
c25 -26 63 -49 113 -68c51 -19 99 -28 144 -28c15 0 30 1 44 3c29 4 67 25 67 58c0 17 -11 28 -27 37c-8 7 -30 13 -43 17l-58 18l-63 21c-15 6 -33 15 -55 26c-21 12 -38 24 -49 36c-23 25 -43 67 -43 116c0 77 28 135 83 174c56 39 128 59 215 59c95 0 177 -19 244 -57z
M433 912h209l-181 -152h-147z" />
    <glyph glyph-name="sacute" unicode="&#x15b;" horiz-adv-x="518" 
d="M514 165c0 -58 -24 -102 -71 -133c-47 -30 -102 -45 -166 -45c-84 0 -177 22 -232 58l22 143c43 -32 123 -62 207 -62c39 0 59 9 59 26c0 9 -5 15 -21 22c-8 4 -15 7 -22 9c-12 5 -49 17 -65 22c-96 33 -136 69 -136 134c0 59 23 104 68 135s102 47 169 47
c85 0 154 -19 209 -58l-23 -140c-57 41 -116 61 -179 61c-39 0 -59 -8 -59 -25c0 -16 14 -22 70 -39l36 -11c92 -29 134 -71 134 -144zM358 728h209l-181 -152h-147z" />
    <glyph glyph-name="Scircumflex" unicode="&#x15c;" horiz-adv-x="632" 
d="M653 657l-28 -173c-27 19 -62 34 -105 47s-85 20 -126 20c-65 0 -97 -16 -97 -48c0 -13 9 -22 30 -31c11 -4 21 -8 32 -11c23 -5 64 -18 92 -27c116 -40 186 -95 186 -200c0 -77 -30 -137 -89 -182c-59 -44 -132 -66 -220 -66c-119 0 -211 25 -276 75l29 184
c25 -26 63 -49 113 -68c51 -19 99 -28 144 -28c15 0 30 1 44 3c29 4 67 25 67 58c0 17 -11 28 -27 37c-8 7 -30 13 -43 17l-58 18l-63 21c-15 6 -33 15 -55 26c-21 12 -38 24 -49 36c-23 25 -43 67 -43 116c0 77 28 135 83 174c56 39 128 59 215 59c95 0 177 -19 244 -57z
M539 912l100 -152h-143l-50 70l-71 -70h-154l151 152h167z" />
    <glyph glyph-name="scircumflex" unicode="&#x15d;" horiz-adv-x="518" 
d="M514 165c0 -58 -24 -102 -71 -133c-47 -30 -102 -45 -166 -45c-84 0 -177 22 -232 58l22 143c43 -32 123 -62 207 -62c39 0 59 9 59 26c0 9 -5 15 -21 22c-8 4 -15 7 -22 9c-12 5 -49 17 -65 22c-96 33 -136 69 -136 134c0 59 23 104 68 135s102 47 169 47
c85 0 154 -19 209 -58l-23 -140c-57 41 -116 61 -179 61c-39 0 -59 -8 -59 -25c0 -16 14 -22 70 -39l36 -11c92 -29 134 -71 134 -144zM462 728l100 -152h-143l-50 70l-71 -70h-154l151 152h167z" />
    <glyph glyph-name="Scedilla" unicode="&#x15e;" horiz-adv-x="632" 
d="M348 -152h-204l110 142c-87 10 -154 34 -202 71l29 184c25 -26 63 -49 113 -68c51 -19 99 -28 144 -28c15 0 30 1 44 3c29 4 67 25 67 58c0 17 -11 28 -27 37c-8 7 -30 13 -43 17l-58 18l-63 21c-15 6 -33 15 -55 26c-21 12 -38 24 -49 36c-23 25 -43 67 -43 116
c0 77 28 135 83 174c56 39 128 59 215 59c95 0 177 -19 244 -57l-28 -173c-27 19 -62 34 -105 47s-85 20 -126 20c-65 0 -97 -16 -97 -48c0 -13 9 -22 30 -31c11 -4 21 -8 32 -11c23 -5 64 -18 92 -27c116 -40 186 -95 186 -200c0 -65 -22 -119 -65 -161s-99 -69 -168 -80z
" />
    <glyph glyph-name="scedilla" unicode="&#x15f;" horiz-adv-x="516" 
d="M299 -152h-204l111 144c-67 9 -120 26 -161 53l22 143c43 -32 123 -62 207 -62c39 0 59 9 59 26c0 9 -5 15 -21 22c-8 4 -15 7 -22 9c-12 5 -49 17 -65 22c-96 33 -136 69 -136 134c0 59 23 104 68 135s102 47 169 47c85 0 154 -19 209 -58l-23 -140
c-57 41 -116 61 -179 61c-39 0 -59 -8 -59 -25c0 -16 14 -22 70 -39l36 -11c92 -29 134 -71 134 -144c0 -91 -65 -149 -158 -169z" />
    <glyph glyph-name="Scaron" unicode="&#x160;" horiz-adv-x="632" 
d="M653 657l-28 -173c-27 19 -62 34 -105 47s-85 20 -126 20c-65 0 -97 -16 -97 -48c0 -13 9 -22 30 -31c11 -4 21 -8 32 -11c23 -5 64 -18 92 -27c116 -40 186 -95 186 -200c0 -77 -30 -137 -89 -182c-59 -44 -132 -66 -220 -66c-119 0 -211 25 -276 75l29 184
c25 -26 63 -49 113 -68c51 -19 99 -28 144 -28c15 0 30 1 44 3c29 4 67 25 67 58c0 17 -11 28 -27 37c-8 7 -30 13 -43 17l-58 18l-63 21c-15 6 -33 15 -55 26c-21 12 -38 24 -49 36c-23 25 -43 67 -43 116c0 77 28 135 83 174c56 39 128 59 215 59c95 0 177 -19 244 -57z
M343 760l-100 152h143l50 -70l71 70h154l-151 -152h-167z" />
    <glyph glyph-name="scaron" unicode="&#x161;" horiz-adv-x="518" 
d="M514 165c0 -58 -24 -102 -71 -133c-47 -30 -102 -45 -166 -45c-84 0 -177 22 -232 58l22 143c43 -32 123 -62 207 -62c39 0 59 9 59 26c0 9 -5 15 -21 22c-8 4 -15 7 -22 9c-12 5 -49 17 -65 22c-96 33 -136 69 -136 134c0 59 23 104 68 135s102 47 169 47
c85 0 154 -19 209 -58l-23 -140c-57 41 -116 61 -179 61c-39 0 -59 -8 -59 -25c0 -16 14 -22 70 -39l36 -11c92 -29 134 -71 134 -144zM269 576l-100 152h143l50 -70l71 70h154l-151 -152h-167z" />
    <glyph glyph-name="uni0162" unicode="&#x162;" horiz-adv-x="657" 
d="M343 -152h-204l118 152h-19l85 542h-210l25 158h601l-25 -158h-211l-85 -542h-16z" />
    <glyph glyph-name="uni0163" unicode="&#x163;" horiz-adv-x="449" 
d="M490 508l-23 -142h-129l-22 -141c-3 -23 -5 -38 -5 -45c0 -27 16 -40 49 -40c25 0 50 7 75 21l-22 -141c-17 -11 -37 -19 -60 -24l-57 -148h-204l118 152c-55 23 -82 68 -82 134c0 14 1 29 4 45l29 187h-89l23 142h89l21 130h177l-21 -130h129z" />
    <glyph glyph-name="Tcaron" unicode="&#x164;" horiz-adv-x="657" 
d="M138 700h601l-25 -158h-211l-85 -542h-180l85 542h-210zM363 760l-100 152h143l50 -70l71 70h154l-151 -152h-167z" />
    <glyph glyph-name="tcaron" unicode="&#x165;" 
d="M495 508l-23 -142h-129l-22 -141c-3 -23 -5 -38 -5 -45c0 -27 16 -40 49 -40c25 0 50 7 75 21l-22 -141c-36 -22 -80 -33 -131 -33c-89 0 -154 54 -154 147c0 14 1 29 4 45l29 187h-89l23 142h89l21 130h177l-21 -130h129zM539 482l60 218h154l-84 -218h-130z" />
    <glyph glyph-name="Tbar" unicode="&#x166;" horiz-adv-x="657" 
d="M285 302h-118l19 116h117l20 124h-210l25 158h601l-25 -158h-211l-20 -124h117l-19 -116h-116l-47 -302h-180z" />
    <glyph glyph-name="tbar" unicode="&#x167;" horiz-adv-x="485" 
d="M510 508l-23 -142h-129l-7 -42h130l-19 -116h-129c-1 -13 -2 -23 -2 -28c0 -27 16 -40 49 -40c25 0 50 7 75 21l-22 -141c-36 -22 -80 -33 -131 -33c-88 0 -154 54 -154 147c0 14 1 29 4 45l4 29h-89l19 116h88l7 42h-89l23 142h89l21 130h177l-21 -130h129z" />
    <glyph glyph-name="Utilde" unicode="&#x168;" horiz-adv-x="730" 
d="M537 276l67 424h181l-67 -425c-15 -93 -53 -164 -115 -214s-135 -75 -219 -75c-79 0 -146 23 -202 68c-55 45 -83 109 -83 191c0 17 2 38 5 63l62 392h182l-63 -396c-3 -18 -5 -33 -5 -46c0 -69 47 -106 120 -106c69 0 124 40 137 124zM379 761h-89c7 43 24 79 52 109
c29 31 62 46 99 46c21 0 44 -7 67 -20s42 -19 56 -19c23 0 40 12 50 35h89c-7 -39 -24 -75 -53 -107s-61 -48 -97 -48c-23 0 -46 7 -69 20s-42 20 -55 20c-24 0 -41 -12 -50 -36z" />
    <glyph glyph-name="utilde" unicode="&#x169;" horiz-adv-x="622" 
d="M127 508h177l-40 -255c-3 -17 -4 -31 -4 -42c0 -45 27 -66 63 -66c32 0 61 14 88 43l51 320h177l-80 -508h-177l9 58c-50 -47 -103 -71 -160 -71c-96 0 -154 68 -154 169c0 23 2 47 6 71zM289 576h-89c7 43 24 80 52 110c28 31 61 46 98 46c21 0 44 -7 67 -20
c24 -13 43 -19 57 -19c23 0 40 12 50 35h89c-7 -39 -24 -75 -53 -108c-29 -32 -61 -48 -97 -48c-23 0 -46 7 -69 20s-42 20 -55 20c-24 0 -41 -12 -50 -36z" />
    <glyph glyph-name="Umacron" unicode="&#x16a;" horiz-adv-x="730" 
d="M537 276l67 424h181l-67 -425c-15 -93 -53 -164 -115 -214s-135 -75 -219 -75c-79 0 -146 23 -202 68c-55 45 -83 109 -83 191c0 17 2 38 5 63l62 392h182l-63 -396c-3 -18 -5 -33 -5 -46c0 -69 47 -106 120 -106c69 0 124 40 137 124zM695 776h-414l19 116h414z" />
    <glyph glyph-name="umacron" unicode="&#x16b;" horiz-adv-x="622" 
d="M127 508h177l-40 -255c-3 -17 -4 -31 -4 -42c0 -45 27 -66 63 -66c32 0 61 14 88 43l51 320h177l-80 -508h-177l9 58c-50 -47 -103 -71 -160 -71c-96 0 -154 68 -154 169c0 23 2 47 6 71zM603 592h-414l19 116h414z" />
    <glyph glyph-name="Ubreve" unicode="&#x16c;" horiz-adv-x="730" 
d="M537 276l67 424h181l-67 -425c-15 -93 -53 -164 -115 -214s-135 -75 -219 -75c-79 0 -146 23 -202 68c-55 45 -83 109 -83 191c0 17 2 38 5 63l62 392h182l-63 -396c-3 -18 -5 -33 -5 -46c0 -69 47 -106 120 -106c69 0 124 40 137 124zM567 916h112
c-20 -108 -97 -171 -194 -171c-92 0 -163 54 -163 145c0 5 1 14 2 26h112v-6c0 -37 20 -61 56 -61c37 0 66 27 75 67z" />
    <glyph glyph-name="ubreve" unicode="&#x16d;" horiz-adv-x="622" 
d="M127 508h177l-40 -255c-3 -17 -4 -31 -4 -42c0 -45 27 -66 63 -66c32 0 61 14 88 43l51 320h177l-80 -508h-177l9 58c-50 -47 -103 -71 -160 -71c-96 0 -154 68 -154 169c0 23 2 47 6 71zM484 732h112c-20 -108 -97 -171 -194 -171c-92 0 -163 54 -163 145c0 5 1 14 2 26
h112v-6c0 -37 20 -61 56 -61c37 0 66 27 75 67z" />
    <glyph glyph-name="Uring" unicode="&#x16e;" horiz-adv-x="730" 
d="M537 276l67 424h181l-67 -425c-15 -93 -53 -164 -115 -214s-135 -75 -219 -75c-79 0 -146 23 -202 68c-55 45 -83 109 -83 191c0 17 2 38 5 63l62 392h182l-63 -396c-3 -18 -5 -33 -5 -46c0 -69 47 -106 120 -106c69 0 124 40 137 124zM482 943c29 0 53 -10 74 -31
s31 -46 31 -75s-10 -53 -31 -74c-41 -41 -106 -41 -149 0c-21 21 -31 45 -31 74s10 53 31 74s46 32 75 32zM526 837c3 58 -91 58 -89 0c0 -24 21 -44 45 -44s44 20 44 44z" />
    <glyph glyph-name="uring" unicode="&#x16f;" horiz-adv-x="622" 
d="M127 508h177l-40 -255c-3 -17 -4 -31 -4 -42c0 -45 27 -66 63 -66c32 0 61 14 88 43l51 320h177l-80 -508h-177l9 58c-50 -47 -103 -71 -160 -71c-96 0 -154 68 -154 169c0 23 2 47 6 71zM510 652c0 -57 -48 -105 -105 -105s-106 48 -106 105c0 29 10 54 31 75
s46 31 75 31s53 -10 74 -31s31 -46 31 -75zM449 652c3 58 -91 58 -89 0c0 -24 21 -44 45 -44s44 20 44 44z" />
    <glyph glyph-name="Uhungarumlaut" unicode="&#x170;" horiz-adv-x="798" 
d="M537 276l67 424h181l-67 -425c-15 -93 -53 -164 -115 -214s-135 -75 -219 -75c-79 0 -146 23 -202 68c-55 45 -83 109 -83 191c0 17 2 38 5 63l62 392h182l-63 -396c-3 -18 -5 -33 -5 -46c0 -69 47 -106 120 -106c69 0 124 40 137 124zM641 912h212l-181 -152h-150z
M369 912h212l-181 -152h-150z" />
    <glyph glyph-name="uhungarumlaut" unicode="&#x171;" horiz-adv-x="622" 
d="M127 508h177l-40 -255c-3 -17 -4 -31 -4 -42c0 -45 27 -66 63 -66c32 0 61 14 88 43l51 320h177l-80 -508h-177l9 58c-50 -47 -103 -71 -160 -71c-96 0 -154 68 -154 169c0 23 2 47 6 71zM555 719h212l-181 -152h-150zM283 719h212l-181 -152h-150z" />
    <glyph glyph-name="Uogonek" unicode="&#x172;" horiz-adv-x="730" 
d="M537 276l67 424h181l-67 -425c-21 -137 -97 -217 -220 -270c-45 -20 -69 -38 -69 -74c0 -21 13 -32 40 -32c13 0 25 2 36 7l-17 -103c-16 -6 -38 -9 -66 -9c-77 0 -121 36 -121 89c0 38 17 73 51 104c-72 7 -132 32 -181 77c-48 45 -72 105 -72 181c0 17 2 38 5 63
l62 392h182l-63 -396c-3 -18 -5 -33 -5 -46c0 -69 47 -106 120 -106c69 0 124 40 137 124z" />
    <glyph glyph-name="uogonek" unicode="&#x173;" horiz-adv-x="622" 
d="M127 508h177l-40 -255c-3 -17 -4 -31 -4 -42c0 -45 27 -66 63 -66c32 0 61 14 88 43l51 320h177l-80 -508c-29 -25 -44 -48 -44 -70c0 -21 13 -31 40 -31c13 0 25 2 36 7l-17 -103c-16 -6 -38 -9 -66 -9c-77 0 -121 36 -121 89c0 42 22 81 65 117h-70l9 58
c-50 -47 -103 -71 -160 -71c-96 0 -154 68 -154 169c0 23 2 47 6 71z" />
    <glyph glyph-name="Wcircumflex" unicode="&#x174;" horiz-adv-x="1088" 
d="M685 -4l-75 410l-207 -410h-160l-121 704h197l52 -417l213 419h140l79 -419l184 417h201l-345 -704h-158zM765 912l100 -152h-143l-50 70l-71 -70h-154l151 152h167z" />
    <glyph glyph-name="wcircumflex" unicode="&#x175;" horiz-adv-x="833" 
d="M326 -4h-151l-85 512h171l40 -259l122 261h140l42 -261l120 259h178l-250 -512h-152l-48 261zM605 728l100 -152h-143l-50 70l-71 -70h-154l151 152h167z" />
    <glyph glyph-name="Ycircumflex" unicode="&#x176;" horiz-adv-x="728" 
d="M436 469l193 231h204l-330 -386l-49 -314h-180l49 310l-208 390h201zM578 912l100 -152h-143l-50 70l-71 -70h-154l151 152h167z" />
    <glyph glyph-name="ycircumflex" unicode="&#x177;" horiz-adv-x="609" 
d="M345 202l147 306h187l-307 -559c-57 -103 -138 -155 -242 -155c-43 0 -80 8 -109 23l24 152c23 -16 49 -24 78 -24c48 0 85 24 112 72l-145 491h184zM496 728l100 -152h-143l-50 70l-71 -70h-154l151 152h167z" />
    <glyph glyph-name="Ydieresis" unicode="&#x178;" horiz-adv-x="728" 
d="M436 469l193 231h204l-330 -386l-49 -314h-180l49 310l-208 390h201zM661 898c35 -33 35 -88 0 -123c-33 -33 -88 -33 -123 0c-33 35 -33 90 0 123c35 33 90 33 123 0zM373 750c-47 0 -87 39 -87 87s39 86 87 86c49 0 87 -38 87 -86s-38 -87 -87 -87z" />
    <glyph glyph-name="Zacute" unicode="&#x179;" horiz-adv-x="642" 
d="M691 573l-398 -415h349l-25 -158h-592l20 128l399 414h-321l25 158h563zM452 912h209l-181 -152h-147z" />
    <glyph glyph-name="zacute" unicode="&#x17a;" horiz-adv-x="540" 
d="M100 365l23 143h449l-19 -121l-269 -244h246l-22 -143h-478l18 117l265 248h-213zM361 728h209l-181 -152h-147z" />
    <glyph glyph-name="Zdotaccent" unicode="&#x17b;" horiz-adv-x="642" 
d="M691 573l-398 -415h349l-25 -158h-592l20 128l399 414h-321l25 158h563zM443 750c-47 0 -87 39 -87 87s39 86 87 86c49 0 87 -38 87 -86s-38 -87 -87 -87z" />
    <glyph glyph-name="zdotaccent" unicode="&#x17c;" horiz-adv-x="540" 
d="M100 365l23 143h449l-19 -121l-269 -244h246l-22 -143h-478l18 117l265 248h-213zM356 566c-47 0 -87 39 -87 87s39 86 87 86c49 0 87 -38 87 -86s-38 -87 -87 -87z" />
    <glyph glyph-name="Zcaron" unicode="&#x17d;" horiz-adv-x="642" 
d="M691 573l-398 -415h349l-25 -158h-592l20 128l399 414h-321l25 158h563zM356 760l-100 152h143l50 -70l71 70h154l-151 -152h-167z" />
    <glyph glyph-name="zcaron" unicode="&#x17e;" horiz-adv-x="561" 
d="M100 365l23 143h449l-19 -121l-269 -244h246l-22 -143h-478l18 117l265 248h-213zM275 576l-100 152h143l50 -70l71 70h154l-151 -152h-167z" />
    <glyph glyph-name="longs" unicode="&#x17f;" horiz-adv-x="445" 
d="M362 517l-81 -517h-177l57 366h-85l23 142h85l4 27c17 105 91 179 215 179c51 0 96 -8 135 -24l-22 -137c-28 12 -56 18 -84 18c-41 0 -64 -18 -70 -54z" />
    <glyph glyph-name="florin" unicode="&#x192;" horiz-adv-x="521" 
d="M84 -206c-41 0 -75 7 -102 20v138c22 -8 44 -12 65 -12c56 0 93 39 104 107l41 251h-92v142h115l10 59c9 60 34 111 75 152c41 42 97 63 168 63c39 0 73 -7 103 -20v-138c-22 8 -44 12 -65 12c-57 0 -92 -36 -106 -107l-4 -21h121v-142h-143l-47 -289
c-9 -60 -34 -111 -75 -152c-41 -42 -97 -63 -168 -63z" />
    <glyph glyph-name="uni0218" unicode="&#x218;" horiz-adv-x="632" 
d="M653 657l-28 -173c-27 19 -62 34 -105 47s-85 20 -126 20c-65 0 -97 -16 -97 -48c0 -13 9 -22 30 -31c11 -4 21 -8 32 -11c23 -5 64 -18 92 -27c116 -40 186 -95 186 -200c0 -77 -30 -137 -89 -182c-59 -44 -132 -66 -220 -66c-119 0 -211 25 -276 75l29 184
c25 -26 63 -49 113 -68c51 -19 99 -28 144 -28c15 0 30 1 44 3c29 4 67 25 67 58c0 17 -11 28 -27 37c-8 7 -30 13 -43 17l-58 18l-63 21c-15 6 -33 15 -55 26c-21 12 -38 24 -49 36c-23 25 -43 67 -43 116c0 77 28 135 83 174c56 39 128 59 215 59c95 0 177 -19 244 -57z
M188 -290l60 218h154l-84 -218h-130z" />
    <glyph glyph-name="uni0219" unicode="&#x219;" horiz-adv-x="518" 
d="M514 165c0 -58 -24 -102 -71 -133c-47 -30 -102 -45 -166 -45c-84 0 -177 22 -232 58l22 143c43 -32 123 -62 207 -62c39 0 59 9 59 26c0 9 -5 15 -21 22c-8 4 -15 7 -22 9c-12 5 -49 17 -65 22c-96 33 -136 69 -136 134c0 59 23 104 68 135s102 47 169 47
c85 0 154 -19 209 -58l-23 -140c-57 41 -116 61 -179 61c-39 0 -59 -8 -59 -25c0 -16 14 -22 70 -39l36 -11c92 -29 134 -71 134 -144zM146 -290l60 218h154l-84 -218h-130z" />
    <glyph glyph-name="uni021A" unicode="&#x21a;" horiz-adv-x="657" 
d="M138 700h601l-25 -158h-211l-85 -542h-180l85 542h-210zM180 -290l60 218h154l-84 -218h-130z" />
    <glyph glyph-name="uni021B" unicode="&#x21b;" horiz-adv-x="449" 
d="M490 508l-23 -142h-129l-22 -141c-3 -23 -5 -38 -5 -45c0 -27 16 -40 49 -40c25 0 50 7 75 21l-22 -141c-36 -22 -80 -33 -131 -33c-88 0 -154 54 -154 147c0 14 1 29 4 45l29 187h-89l23 142h89l21 130h177l-21 -130h129zM134 -290l60 218h154l-84 -218h-130z" />
    <glyph glyph-name="circumflex" unicode="&#x2c6;" horiz-adv-x="546" 
d="M474 728l100 -152h-143l-50 70l-71 -70h-154l151 152h167z" />
    <glyph glyph-name="caron" unicode="&#x2c7;" horiz-adv-x="512" 
d="M230 576l-100 152h143l50 -70l71 70h154l-151 -152h-167z" />
    <glyph glyph-name="uni02C9" unicode="&#x2c9;" horiz-adv-x="498" 
d="M549 592h-414l19 116h414z" />
    <glyph glyph-name="breve" unicode="&#x2d8;" horiz-adv-x="468" 
d="M414 732h112c-20 -108 -97 -171 -194 -171c-92 0 -163 54 -163 145c0 5 1 14 2 26h112v-6c0 -37 20 -61 56 -61c37 0 66 27 75 67z" />
    <glyph glyph-name="dotaccent" unicode="&#x2d9;" horiz-adv-x="584" 
d="M292 566c-47 0 -87 39 -87 87s39 86 87 86c49 0 87 -38 87 -86s-38 -87 -87 -87z" />
    <glyph glyph-name="ring" unicode="&#x2da;" horiz-adv-x="565" 
d="M470 652c0 -57 -48 -105 -105 -105s-106 48 -106 105c0 29 10 54 31 75s46 31 75 31s53 -10 74 -31s31 -46 31 -75zM409 652c3 58 -91 58 -89 0c0 -24 21 -44 45 -44s44 20 44 44z" />
    <glyph glyph-name="ogonek" unicode="&#x2db;" horiz-adv-x="489" 
d="M211 0h107c-29 -25 -44 -48 -44 -70c0 -21 13 -31 40 -31c13 0 25 2 36 7l-17 -103c-16 -6 -38 -9 -66 -9c-77 0 -121 36 -121 89c0 42 22 81 65 117z" />
    <glyph glyph-name="tilde" unicode="&#x2dc;" horiz-adv-x="506" 
d="M236 576h-89c7 43 24 80 52 110c28 31 61 46 98 46c21 0 44 -7 67 -20c24 -13 43 -19 57 -19c23 0 40 12 50 35h89c-7 -39 -24 -75 -53 -108c-29 -32 -61 -48 -97 -48c-23 0 -46 7 -69 20s-42 20 -55 20c-24 0 -41 -12 -50 -36z" />
    <glyph glyph-name="hungarumlaut" unicode="&#x2dd;" horiz-adv-x="669" 
d="M527 728h212l-181 -152h-150zM255 728h212l-181 -152h-150z" />
    <glyph glyph-name="acutecomb" unicode="&#x301;" horiz-adv-x="10" 
d="M-167 728h209l-181 -152h-147z" />
    <glyph glyph-name="uni037E" unicode="&#x37e;" horiz-adv-x="324" 
d="M-12 -152l140 328h183l-180 -328h-143zM353 401c0 -59 -46 -106 -105 -106s-105 47 -105 106c0 29 10 53 30 74c21 21 46 31 75 31s54 -10 74 -31c21 -21 31 -45 31 -74z" />
    <glyph glyph-name="uni0394" unicode="&#x394;" horiz-adv-x="781" 
d="M414 700h173l184 -700h-761zM468 475l-176 -317h252z" />
    <glyph glyph-name="uni03A9" unicode="&#x3a9;" horiz-adv-x="788" 
d="M788 418c0 -99 -46 -193 -126 -260h94l-25 -158h-298l20 135c44 26 80 63 107 110s41 97 41 149c0 44 -12 82 -37 113c-24 31 -58 47 -103 47c-52 0 -94 -23 -126 -69c-31 -45 -47 -96 -47 -153c0 -83 36 -162 84 -197l-21 -135h-295l25 158h101c-48 50 -72 118 -72 205
c0 94 33 176 100 246s150 105 250 105c57 0 110 -11 159 -33s89 -56 121 -102s48 -100 48 -161z" />
    <glyph glyph-name="uni03BC" unicode="&#x3bc;" horiz-adv-x="614" 
d="M19 -200l112 708h177l-40 -255c-3 -17 -4 -31 -4 -42c0 -45 27 -66 63 -66c32 0 61 14 88 43l51 320h177l-80 -508h-177l9 58c-50 -47 -103 -71 -160 -71h-10l-29 -187h-177z" />
    <glyph glyph-name="pi" unicode="&#x3c0;" horiz-adv-x="722" 
d="M740 366h-99l-26 -165c-1 -12 -2 -20 -2 -25c0 -25 10 -36 37 -36c19 0 38 7 58 21l-22 -141c-33 -22 -74 -33 -121 -33c-77 0 -135 50 -135 139c0 12 1 25 3 39l31 201h-112l-57 -366h-177l57 366h-99l23 142h664z" />
    <glyph glyph-name="uni0401" unicode="&#x401;" horiz-adv-x="654" 
d="M643 898c35 -33 35 -88 0 -123c-33 -33 -88 -33 -123 0c-33 35 -33 90 0 123c35 33 90 33 123 0zM355 750c-47 0 -87 39 -87 87s39 86 87 86c49 0 87 -38 87 -86s-38 -87 -87 -87zM293 295l-21 -137h360l-25 -158h-540l110 700h532l-25 -158h-352l-15 -95h280l-24 -152
h-280z" />
    <glyph glyph-name="uni0402" unicode="&#x402;" horiz-adv-x="785" 
d="M113 546l25 154h540l-25 -154h-200l-19 -121c37 11 79 17 126 17c74 0 133 -20 177 -60s66 -93 66 -158c0 -71 -25 -128 -74 -169s-113 -62 -192 -62c-29 0 -56 3 -81 8l22 137c14 -4 30 -6 48 -6c53 0 96 28 96 75s-38 72 -99 72c-42 0 -81 -8 -116 -24l-39 -255h-180
l85 546h-160z" />
    <glyph glyph-name="uni0403" unicode="&#x403;" horiz-adv-x="619" 
d="M247 0h-180l111 700h517l-25 -158h-337zM461 912h209l-181 -152h-147z" />
    <glyph glyph-name="uni0404" unicode="&#x404;" horiz-adv-x="681" 
d="M300 434h247l-22 -145h-241c9 -88 77 -137 188 -137c69 0 133 17 190 51l-28 -174c-61 -29 -121 -43 -180 -43c-107 0 -193 31 -259 92c-66 62 -99 142 -99 239c0 118 38 214 114 287c77 73 176 110 298 110c80 0 170 -19 219 -44l-28 -169c-51 31 -115 47 -192 47
c-105 0 -180 -39 -207 -114z" />
    <glyph glyph-name="uni0405" unicode="&#x405;" horiz-adv-x="632" 
d="M653 657l-28 -173c-27 19 -62 34 -105 47s-85 20 -126 20c-65 0 -97 -16 -97 -48c0 -13 9 -22 30 -31c11 -4 21 -8 32 -11c23 -5 64 -18 92 -27c116 -40 186 -95 186 -200c0 -77 -30 -137 -89 -182c-59 -44 -132 -66 -220 -66c-119 0 -211 25 -276 75l29 184
c25 -26 63 -49 113 -68c51 -19 99 -28 144 -28c15 0 30 1 44 3c29 4 67 25 67 58c0 17 -11 28 -27 37c-8 7 -30 13 -43 17l-58 18l-63 21c-15 6 -33 15 -55 26c-21 12 -38 24 -49 36c-23 25 -43 67 -43 116c0 77 28 135 83 174c56 39 128 59 215 59c95 0 177 -19 244 -57z
" />
    <glyph glyph-name="uni0406" unicode="&#x406;" horiz-adv-x="322" 
d="M181 700h180l-110 -700h-180z" />
    <glyph glyph-name="uni0407" unicode="&#x407;" horiz-adv-x="322" 
d="M467 898c35 -33 35 -88 0 -123c-33 -33 -88 -33 -123 0c-33 35 -33 90 0 123c35 33 90 33 123 0zM179 750c-47 0 -87 39 -87 87s39 86 87 86c49 0 87 -38 87 -86s-38 -87 -87 -87zM181 700h180l-110 -700h-180z" />
    <glyph glyph-name="uni0408" unicode="&#x408;" horiz-adv-x="514" 
d="M320 285l66 415h180l-75 -468c-33 -197 -149 -246 -282 -246c-32 0 -65 4 -100 12s-61 19 -80 33l28 174c31 -31 89 -53 136 -53c72 0 111 36 127 133z" />
    <glyph glyph-name="uni0409" unicode="&#x409;" horiz-adv-x="1098" 
d="M573 542h-170l-12 -77c-29 -184 -66 -307 -109 -368c-49 -69 -117 -103 -202 -103c-33 0 -58 5 -73 14l26 165c17 -9 34 -13 50 -13c35 0 62 22 79 65c17 44 37 134 59 271l33 204h524l-34 -216h126c76 0 136 -20 180 -61s66 -92 66 -153c0 -80 -32 -145 -95 -195
s-138 -75 -227 -75h-306zM836 338h-115l-29 -184h113c33 0 63 9 88 26c26 18 39 43 39 76c0 49 -37 82 -96 82z" />
    <glyph glyph-name="uni040A" unicode="&#x40a;" horiz-adv-x="1111" 
d="M571 451l40 249h180l-34 -216h126c76 0 136 -20 180 -61s66 -92 66 -153c0 -80 -32 -145 -95 -195s-138 -75 -227 -75h-306l45 291h-253l-46 -291h-180l110 700h180l-39 -249h253zM849 338h-115l-29 -184h113c33 0 63 9 88 26c26 18 39 43 39 76c0 49 -37 82 -96 82z" />
    <glyph glyph-name="uni040B" unicode="&#x40b;" horiz-adv-x="813" 
d="M571 442c149 0 232 -67 232 -187c0 -11 -1 -27 -4 -47l-33 -208h-180l29 182c1 11 2 18 2 22c0 50 -31 75 -93 75c-45 0 -84 -8 -117 -24l-40 -255h-180l86 546h-160l24 154h540l-24 -154h-200l-19 -123c42 13 88 19 137 19z" />
    <glyph glyph-name="uni040C" unicode="&#x40c;" horiz-adv-x="735" 
d="M477 365l259 -365h-215l-225 311l-49 -311h-180l110 700h180l-42 -267l255 267h224zM501 912h209l-181 -152h-147z" />
    <glyph glyph-name="uni040E" unicode="&#x40e;" horiz-adv-x="687" 
d="M308 219l-193 481h194l112 -304l167 304h196l-329 -546c-67 -112 -153 -168 -257 -168c-51 0 -91 9 -120 27l24 154c25 -15 54 -22 88 -22c51 0 79 18 118 74zM543 916h112c-20 -108 -97 -171 -194 -171c-92 0 -163 54 -163 145c0 5 1 14 2 26h112v-6
c0 -37 20 -61 56 -61c37 0 66 27 75 67z" />
    <glyph glyph-name="uni040F" unicode="&#x40f;" horiz-adv-x="733" 
d="M67 0l110 700h180l-86 -542h240l86 542h180l-110 -700h-215l-22 -136h-170l22 136h-215z" />
    <glyph glyph-name="uni0410" unicode="&#x410;" horiz-adv-x="781" 
d="M771 0h-189l-36 148h-260l-82 -148h-194l405 704h173zM468 479l-102 -187h146z" />
    <glyph glyph-name="uni0411" unicode="&#x411;" horiz-adv-x="684" 
d="M67 0l110 700h523l-24 -154h-342l-12 -76h130c74 0 132 -20 175 -60c43 -39 64 -89 64 -149c0 -78 -31 -141 -92 -189s-135 -72 -221 -72h-311zM416 329h-116l-28 -175h116c31 0 59 8 83 24c25 17 37 41 37 72c0 47 -35 79 -92 79z" />
    <glyph glyph-name="uni0412" unicode="&#x412;" horiz-adv-x="712" 
d="M270 150h155c55 0 97 31 97 83c0 40 -32 66 -81 66h-147zM457 554h-123l-19 -122h129c47 0 79 25 79 69c0 33 -26 53 -66 53zM67 0l110 700h322c120 0 202 -54 202 -155c0 -67 -35 -127 -98 -158c29 -7 56 -25 79 -53s35 -64 35 -107c0 -69 -26 -124 -77 -165
s-116 -62 -195 -62h-378z" />
    <glyph glyph-name="uni0413" unicode="&#x413;" horiz-adv-x="619" 
d="M247 0h-180l111 700h517l-25 -158h-337z" />
    <glyph glyph-name="uni0414" unicode="&#x414;" horiz-adv-x="792" 
d="M784 700l-86 -542h92l-46 -294h-170l22 136h-422l-22 -136h-168l45 294h70c65 87 113 226 142 417l19 125h524zM518 158l61 384h-164c-27 -160 -67 -288 -120 -384h223z" />
    <glyph glyph-name="uni0415" unicode="&#x415;" horiz-adv-x="654" 
d="M293 295l-21 -137h360l-25 -158h-540l110 700h532l-25 -158h-352l-15 -95h280l-24 -152h-280z" />
    <glyph glyph-name="uni0416" unicode="&#x416;" horiz-adv-x="1084" 
d="M351 365l-178 335h202l142 -287l45 287h180l-46 -287l232 287h219l-298 -354l216 -346h-216l-172 291l-45 -291h-180l46 291l-254 -291h-229z" />
    <glyph glyph-name="uni0417" unicode="&#x417;" horiz-adv-x="633" 
d="M125 487l26 168c74 39 154 59 241 59c81 0 144 -18 189 -54c45 -35 68 -81 68 -137c0 -65 -38 -122 -101 -151c60 -30 90 -77 90 -142c0 -160 -174 -244 -329 -244c-106 0 -191 23 -255 69l27 173c70 -53 147 -79 232 -79c83 0 141 29 141 84c0 40 -35 60 -104 60h-104
l22 143h104c64 0 96 19 96 58c0 38 -35 57 -105 57c-84 0 -163 -21 -238 -64z" />
    <glyph glyph-name="uni0418" unicode="&#x418;" horiz-adv-x="758" 
d="M218 0h-151l110 700h180l-61 -385l350 385h156l-110 -700h-180l62 389z" />
    <glyph glyph-name="uni0419" unicode="&#x419;" horiz-adv-x="758" 
d="M218 0h-151l110 700h180l-61 -385l350 385h156l-110 -700h-180l62 389zM589 912h123c-20 -111 -102 -176 -207 -176c-49 0 -90 13 -123 39c-33 27 -50 62 -50 107c0 7 1 17 2 30h121c0 -3 -1 -8 -1 -11c0 -32 21 -52 58 -52c41 0 70 24 77 63z" />
    <glyph glyph-name="uni041A" unicode="&#x41a;" horiz-adv-x="735" 
d="M477 365l259 -365h-215l-225 311l-49 -311h-180l110 700h180l-42 -267l255 267h224z" />
    <glyph glyph-name="uni041B" unicode="&#x41b;" horiz-adv-x="734" 
d="M221 496l33 204h524l-110 -700h-180l85 542h-170l-12 -77c-29 -184 -66 -307 -109 -368c-49 -69 -117 -103 -202 -103c-33 0 -58 5 -73 14l26 165c17 -9 34 -13 50 -13c35 0 62 22 79 65c17 44 37 134 59 271z" />
    <glyph glyph-name="uni041C" unicode="&#x41c;" horiz-adv-x="845" 
d="M486 431l219 269h184l-110 -700h-179l67 427l-153 -188h-99l-101 188l-67 -427h-180l110 700h173z" />
    <glyph glyph-name="uni041D" unicode="&#x41d;" horiz-adv-x="758" 
d="M247 0h-180l111 700h180l-40 -249h264l40 249h180l-111 -700h-180l46 291h-264z" />
    <glyph glyph-name="uni041E" unicode="&#x41e;" horiz-adv-x="828" 
d="M483 714c107 0 192 -31 255 -94c64 -63 96 -144 96 -245c0 -109 -37 -202 -112 -277s-166 -112 -275 -112c-105 0 -190 31 -255 94c-64 63 -96 145 -96 245c0 110 37 202 112 277s166 112 275 112zM649 375c0 49 -16 90 -47 123s-72 50 -124 50c-57 0 -105 -21 -142 -64
s-55 -96 -55 -159c0 -49 15 -90 46 -123s73 -50 125 -50c58 0 105 21 142 63c37 43 55 96 55 160z" />
    <glyph glyph-name="uni041F" unicode="&#x41f;" horiz-adv-x="739" 
d="M67 0l110 700h606l-110 -700h-180l85 542h-246l-85 -542h-180z" />
    <glyph glyph-name="uni0420" unicode="&#x420;" horiz-adv-x="657" 
d="M67 0l110 700h300c72 0 129 -18 170 -54c42 -35 63 -82 63 -139c0 -72 -26 -131 -79 -177c-52 -46 -119 -69 -200 -69h-143l-41 -261h-180zM452 548h-119l-22 -139h118c53 0 98 26 98 79c0 40 -25 60 -75 60z" />
    <glyph glyph-name="uni0421" unicode="&#x421;" horiz-adv-x="673" 
d="M665 208l-28 -179c-61 -29 -122 -43 -183 -43c-107 0 -193 31 -259 92c-66 62 -99 142 -99 239c0 118 38 214 114 287c77 73 176 110 297 110c79 0 150 -14 212 -43l-30 -169c-51 31 -112 46 -183 46c-68 0 -123 -20 -164 -61c-41 -40 -61 -93 -61 -159
c0 -51 17 -94 51 -127c35 -33 81 -49 140 -49c75 0 140 19 193 56z" />
    <glyph glyph-name="uni0422" unicode="&#x422;" horiz-adv-x="657" 
d="M138 700h601l-25 -158h-211l-85 -542h-180l85 542h-210z" />
    <glyph glyph-name="uni0423" unicode="&#x423;" horiz-adv-x="687" 
d="M308 219l-193 481h194l112 -304l167 304h196l-329 -546c-67 -112 -153 -168 -257 -168c-51 0 -91 9 -120 27l24 154c25 -15 54 -22 88 -22c51 0 79 18 118 74z" />
    <glyph glyph-name="uni0424" unicode="&#x424;" horiz-adv-x="945" 
d="M483 668h-1l10 62h181l-10 -67c187 -23 288 -132 288 -285c0 -100 -37 -181 -111 -243c-73 -61 -165 -92 -276 -92l-11 -73h-181l12 78c-185 23 -288 133 -288 285c0 100 37 181 110 242c74 62 166 93 277 93zM409 205l49 306c-51 0 -93 -16 -126 -49s-49 -73 -49 -122
c0 -81 53 -131 126 -135zM638 506l-49 -306c51 0 92 16 125 49s50 73 50 122c0 81 -53 131 -126 135z" />
    <glyph glyph-name="uni0425" unicode="&#x425;" horiz-adv-x="736" 
d="M811 700l-279 -323l209 -377h-204l-128 233l-199 -233h-215l327 376l-177 324h205l96 -180l153 180h212z" />
    <glyph glyph-name="uni0426" unicode="&#x426;" horiz-adv-x="785" 
d="M67 0l110 700h180l-86 -542h240l86 542h180l-86 -542h92l-46 -294h-170l22 136h-522z" />
    <glyph glyph-name="uni0427" unicode="&#x427;" horiz-adv-x="692" 
d="M121 468l36 232h180l-32 -206c-1 -12 -2 -20 -2 -24c0 -49 31 -73 92 -73c45 0 84 8 117 24l44 279h180l-110 -700h-180l40 253c-42 -13 -88 -19 -137 -19c-149 0 -232 66 -232 186c0 17 1 33 4 48z" />
    <glyph glyph-name="uni0428" unicode="&#x428;" horiz-adv-x="1039" 
d="M67 0l110 700h180l-86 -542h183l86 542h180l-86 -542h183l86 542h180l-110 -700h-906z" />
    <glyph glyph-name="uni0429" unicode="&#x429;" horiz-adv-x="1092" 
d="M67 0l110 700h180l-86 -542h183l86 542h180l-86 -542h183l86 542h180l-85 -542h92l-47 -294h-170l22 136h-828z" />
    <glyph glyph-name="uni042A" unicode="&#x42a;" horiz-adv-x="805" 
d="M108 542l25 158h352l-34 -216h126c76 0 136 -20 180 -61s66 -92 66 -153c0 -80 -32 -145 -95 -195s-138 -75 -227 -75h-306l85 542h-172zM543 338h-115l-29 -184h113c33 0 63 9 88 26c26 18 39 43 39 76c0 49 -37 82 -96 82z" />
    <glyph glyph-name="uni042B" unicode="&#x42b;" horiz-adv-x="949" 
d="M813 700h180l-110 -700h-180zM67 0l110 700h180l-34 -216h104c76 0 136 -20 180 -61s66 -92 66 -153c0 -80 -32 -145 -95 -195s-138 -75 -227 -75h-284zM393 338h-93l-29 -184h91c33 0 63 9 88 26c26 18 39 43 39 76c0 49 -37 82 -96 82z" />
    <glyph glyph-name="uni042C" unicode="&#x42c;" horiz-adv-x="677" 
d="M67 0l110 700h180l-34 -216h126c76 0 136 -20 180 -61s66 -92 66 -153c0 -80 -32 -145 -95 -195s-138 -75 -227 -75h-306zM415 338h-115l-29 -184h113c33 0 63 9 88 26c26 18 39 43 39 76c0 49 -37 82 -96 82z" />
    <glyph glyph-name="uni042D" unicode="&#x42d;" horiz-adv-x="679" 
d="M488 289h-254l22 145h235c-22 76 -83 114 -182 114c-69 0 -133 -17 -190 -51l28 174c61 29 121 43 180 43c107 0 193 -31 259 -93c66 -61 99 -141 99 -238c0 -118 -38 -214 -115 -287c-76 -73 -175 -110 -297 -110c-80 0 -170 19 -219 44l28 169c51 -31 115 -47 192 -47
c112 0 187 49 214 137z" />
    <glyph glyph-name="uni042E" unicode="&#x42e;" horiz-adv-x="1061" 
d="M760 714c91 0 164 -32 221 -95s86 -140 86 -232c0 -67 -16 -131 -48 -192s-78 -111 -138 -150c-59 -39 -125 -59 -198 -59c-83 0 -153 27 -208 80c-55 54 -88 122 -97 204h-86l-42 -270h-183l110 700h183l-42 -270h76c25 81 70 148 136 202c67 55 143 82 230 82zM700 150
c56 0 101 24 134 71s50 101 50 161c0 103 -54 168 -141 168c-56 0 -101 -24 -134 -71s-50 -101 -50 -161c0 -103 54 -168 141 -168z" />
    <glyph glyph-name="uni042F" unicode="&#x42f;" horiz-adv-x="731" 
d="M222 0h-208l251 287c-68 28 -108 96 -108 172c0 73 28 131 84 175c57 44 125 66 205 66h329l-110 -700h-180l42 267h-71zM411 414h139l21 134h-139c-49 0 -91 -27 -91 -76c0 -35 27 -58 70 -58z" />
    <glyph glyph-name="uni0430" unicode="&#x430;" horiz-adv-x="605" 
d="M137 352l22 139c52 20 110 30 175 30c69 0 126 -15 171 -45c46 -30 69 -77 69 -142c0 -10 -3 -32 -8 -66l-13 -76c-3 -15 -4 -27 -4 -35c0 -18 10 -27 30 -27c9 0 17 2 26 5l-20 -123c-24 -15 -54 -23 -89 -23c-67 0 -107 19 -120 58c-40 -40 -91 -60 -152 -60
c-112 0 -179 65 -179 156c0 54 20 97 60 128c40 32 89 48 147 48c57 0 104 -10 143 -31c1 9 2 18 2 28c0 45 -39 67 -116 67c-49 0 -97 -10 -144 -31zM372 144l9 54c-19 17 -44 25 -77 25c-45 0 -84 -24 -84 -65c0 -33 28 -54 68 -54c35 0 63 13 84 40z" />
    <glyph glyph-name="uni0431" unicode="&#x431;" horiz-adv-x="609" 
d="M415 467c58 0 106 -20 144 -60c38 -39 57 -89 57 -148c0 -79 -27 -144 -82 -195c-54 -51 -124 -77 -209 -77c-79 0 -142 25 -187 76s-68 116 -68 194c0 222 110 359 330 412c77 19 152 32 227 40l-25 -155l-128 -18c-65 -9 -101 -16 -148 -36c-45 -20 -73 -54 -85 -103
c55 47 113 70 174 70zM337 132c59 0 103 48 103 112c0 49 -32 82 -84 82c-40 0 -78 -15 -113 -45c-3 -16 -4 -30 -4 -43c0 -63 43 -106 98 -106z" />
    <glyph glyph-name="uni0432" unicode="&#x432;" horiz-adv-x="592" 
d="M509 261c50 -22 75 -57 75 -106c0 -104 -85 -155 -217 -155h-306l80 508h298c97 0 148 -54 148 -121c0 -61 -37 -107 -78 -126zM363 395h-63l-14 -87h63c36 0 60 20 60 51c0 24 -15 36 -46 36zM256 116h86c39 0 65 20 65 56c0 24 -19 39 -50 39h-86z" />
    <glyph glyph-name="uni0433" unicode="&#x433;" horiz-adv-x="486" 
d="M141 508h415l-23 -142h-238l-57 -366h-177z" />
    <glyph glyph-name="uni0434" unicode="&#x434;" horiz-adv-x="693" 
d="M669 508l-58 -366h78l-41 -261h-167l19 119h-311l-19 -119h-168l40 261h64c39 51 69 135 90 252l21 114h452zM434 142l36 226h-113c-19 -95 -42 -171 -69 -226h146z" />
    <glyph glyph-name="uni0435" unicode="&#x435;" horiz-adv-x="570" 
d="M585 304c0 -25 -4 -56 -11 -93h-340c7 -53 65 -79 142 -79c55 0 109 14 162 41l-21 -138c-44 -32 -108 -48 -191 -48c-75 0 -137 22 -187 67c-49 45 -74 104 -74 177c0 83 27 152 82 207s123 83 205 83c69 0 125 -20 168 -60s65 -92 65 -157zM247 305h169
c3 52 -24 86 -72 86c-45 0 -84 -33 -97 -86z" />
    <glyph glyph-name="uni0436" unicode="&#x436;" horiz-adv-x="897" 
d="M255 283l-131 225h188l99 -182l29 182h177l-29 -182l147 182h209l-217 -251l164 -257h-196l-126 203l-32 -203h-177l32 206l-168 -206h-219z" />
    <glyph glyph-name="uni0437" unicode="&#x437;" horiz-adv-x="538" 
d="M112 351l20 128c59 28 122 42 189 42c65 0 118 -13 159 -38s62 -58 62 -98c0 -60 -46 -105 -91 -113c43 -11 81 -52 81 -105c0 -51 -26 -94 -78 -129c-52 -34 -118 -51 -199 -51c-89 0 -159 13 -208 40l22 137c47 -27 105 -40 172 -40c65 0 109 18 109 47
c0 21 -23 31 -69 31h-100l18 118h100c39 0 58 11 58 34c0 21 -27 31 -81 31c-57 0 -112 -11 -164 -34z" />
    <glyph glyph-name="uni0438" unicode="&#x438;" horiz-adv-x="647" 
d="M61 0l80 508h177l-37 -239l217 239h166l-80 -508h-177l37 238l-217 -238h-166z" />
    <glyph glyph-name="uni0439" unicode="&#x439;" horiz-adv-x="647" 
d="M61 0l80 508h177l-37 -239l217 239h166l-80 -508h-177l37 238l-217 -238h-166zM503 727h123c-20 -111 -102 -176 -207 -176c-49 0 -90 13 -123 39c-33 27 -50 62 -50 107c0 7 1 17 2 30h121c0 -3 -1 -8 -1 -11c0 -32 21 -52 58 -52c41 0 70 24 77 63z" />
    <glyph glyph-name="uni043A" unicode="&#x43a;" horiz-adv-x="632" 
d="M442 268l191 -268h-204l-158 215l-33 -215h-177l80 508h177l-28 -170l168 170h223z" />
    <glyph glyph-name="uni043B" unicode="&#x43b;" horiz-adv-x="653" 
d="M184 380l22 128h464l-80 -508h-177l57 366h-120c-9 -52 -18 -100 -28 -145c-15 -66 -42 -120 -81 -163s-88 -64 -148 -64c-34 0 -58 4 -73 13l24 145c17 -8 52 -11 73 10c11 11 21 28 29 52c9 24 15 47 20 70s11 55 18 96z" />
    <glyph glyph-name="uni043C" unicode="&#x43c;" horiz-adv-x="716" 
d="M408 341l147 167h178l-80 -508h-167l43 272l-115 -130h-70l-73 130l-43 -272h-167l80 508h172z" />
    <glyph glyph-name="uni043D" unicode="&#x43d;" horiz-adv-x="636" 
d="M448 331l28 177h177l-80 -508h-177l29 189h-158l-29 -189h-177l80 508h177l-28 -177h158z" />
    <glyph glyph-name="uni043E" unicode="&#x43e;" horiz-adv-x="606" 
d="M348 521c78 0 143 -24 194 -72c51 -47 77 -109 77 -184s-27 -140 -81 -195s-122 -83 -203 -83c-78 0 -143 24 -194 71c-51 48 -76 110 -76 186c0 75 27 139 81 194s121 83 202 83zM334 136c32 0 59 13 82 38c23 26 34 58 34 95c0 63 -44 103 -101 103
c-32 0 -59 -13 -82 -39c-22 -25 -33 -56 -33 -93c0 -63 43 -104 100 -104z" />
    <glyph glyph-name="uni043F" unicode="&#x43f;" horiz-adv-x="631" 
d="M61 0l80 508h507l-80 -508h-177l57 366h-153l-57 -366h-177z" />
    <glyph glyph-name="uni0440" unicode="&#x440;" horiz-adv-x="654" 
d="M246 56l-40 -256h-177l112 708h177l-9 -55c42 45 93 68 154 68s110 -23 147 -68c38 -45 57 -100 57 -167c0 -50 -10 -97 -30 -142c-39 -89 -126 -157 -235 -157c-66 0 -118 23 -156 69zM288 317l-20 -126c17 -31 59 -56 103 -56c32 0 59 13 81 38c23 26 34 58 34 95
c0 64 -39 103 -96 103c-43 0 -77 -18 -102 -54z" />
    <glyph glyph-name="uni0441" unicode="&#x441;" horiz-adv-x="512" 
d="M65 237c0 81 29 148 88 202c59 55 133 82 220 82c61 0 116 -13 164 -39l-24 -147c-43 21 -85 32 -126 32c-85 0 -146 -49 -146 -122c0 -37 14 -64 42 -82c29 -18 61 -27 97 -27c39 0 77 8 114 24l-24 -147c-41 -17 -86 -26 -133 -26c-77 0 -141 22 -194 67
c-52 45 -78 106 -78 183z" />
    <glyph glyph-name="uni0442" unicode="&#x442;" horiz-adv-x="479" 
d="M54 366l23 142h472l-23 -142h-148l-57 -366h-177l57 366h-147z" />
    <glyph glyph-name="uni0443" unicode="&#x443;" horiz-adv-x="609" 
d="M345 202l147 306h187l-307 -559c-57 -103 -138 -155 -242 -155c-43 0 -80 8 -109 23l24 152c23 -16 49 -24 78 -24c48 0 85 24 112 72l-145 491h184z" />
    <glyph glyph-name="uni0444" unicode="&#x444;" horiz-adv-x="780" 
d="M320 140l36 228c-68 -5 -119 -55 -119 -131c0 -52 28 -89 83 -97zM538 368l-36 -228c68 4 119 55 119 131c0 52 -28 89 -83 97zM477 -3l-28 -176h-177l28 176c-157 21 -235 109 -235 234c0 84 29 150 88 199s135 76 228 81l30 189h177l-30 -189
c157 -21 235 -109 235 -234c0 -84 -30 -151 -89 -200s-134 -75 -227 -80z" />
    <glyph glyph-name="uni0445" unicode="&#x445;" horiz-adv-x="613" 
d="M249 262l-145 246h188l69 -121l103 121h204l-222 -245l156 -263h-188l-78 136l-121 -136h-205z" />
    <glyph glyph-name="uni0446" unicode="&#x446;" horiz-adv-x="676" 
d="M475 508h177l-58 -366h78l-41 -261h-171l19 119h-418l80 508h177l-58 -366h157z" />
    <glyph glyph-name="uni0447" unicode="&#x447;" horiz-adv-x="588" 
d="M394 296l34 212h177l-80 -508h-177l23 151c-27 -8 -57 -12 -89 -12c-55 0 -102 13 -140 40c-37 27 -56 67 -56 122c0 15 1 30 4 44l28 163h177l-24 -149c-1 -9 -2 -17 -2 -22c0 -36 20 -54 61 -54c25 0 47 4 64 13z" />
    <glyph glyph-name="uni0448" unicode="&#x448;" horiz-adv-x="890" 
d="M553 142h119l58 366h177l-80 -508h-766l80 508h177l-58 -366h116l58 366h177z" />
    <glyph glyph-name="uni0449" unicode="&#x449;" horiz-adv-x="931" 
d="M61 0l80 508h177l-58 -366h116l58 366h177l-58 -366h119l58 366h177l-58 -366h78l-41 -261h-159l19 119h-685z" />
    <glyph glyph-name="uni044A" unicode="&#x44a;" 
d="M70 366l23 142h314l-22 -139h79c121 0 199 -62 199 -161c0 -60 -21 -110 -63 -149s-97 -59 -166 -59h-284l58 366h-138zM427 245h-62l-18 -115h68c44 0 75 24 75 64c0 31 -24 51 -63 51z" />
    <glyph glyph-name="uni044B" unicode="&#x44b;" horiz-adv-x="823" 
d="M583 0l80 508h177l-80 -508h-177zM61 0l81 508h177l-21 -139h66c121 0 199 -62 199 -161c0 -60 -21 -110 -63 -149s-97 -59 -166 -59h-273zM327 245h-49l-18 -115h55c44 0 75 24 75 64c0 31 -24 51 -63 51z" />
    <glyph glyph-name="uni044C" unicode="&#x44c;" horiz-adv-x="573" 
d="M61 0l81 508h177l-22 -139h80c121 0 199 -62 199 -161c0 -60 -21 -110 -63 -149s-97 -59 -166 -59h-286zM340 245h-62l-18 -115h68c44 0 75 24 75 64c0 31 -24 51 -63 51z" />
    <glyph glyph-name="uni044D" unicode="&#x44d;" horiz-adv-x="509" 
d="M339 199h-165l18 112h156c-14 45 -55 68 -124 68c-38 0 -76 -9 -115 -26l22 139c39 19 86 29 140 29c69 0 128 -21 177 -64c49 -42 74 -100 74 -173c0 -84 -29 -155 -86 -212s-131 -85 -221 -85c-70 0 -125 11 -166 32l23 138c37 -17 79 -26 125 -26c73 0 120 23 142 68z
" />
    <glyph glyph-name="uni044E" unicode="&#x44e;" horiz-adv-x="853" 
d="M614 521c74 0 134 -24 181 -71s71 -107 71 -181c0 -77 -27 -143 -81 -199c-54 -55 -120 -83 -197 -83c-66 0 -122 19 -167 56c-45 38 -72 88 -82 149h-71l-30 -192h-177l80 508h177l-28 -176h61c19 55 53 101 101 136s102 53 162 53zM591 136c28 0 53 13 74 39
s32 58 32 96c0 61 -37 101 -86 101c-28 0 -53 -13 -74 -39s-32 -58 -32 -96c0 -61 37 -101 86 -101z" />
    <glyph glyph-name="uni044F" unicode="&#x44f;" horiz-adv-x="601" 
d="M339 508h279l-80 -508h-177l25 158h-48l-127 -158h-197l155 190c-45 24 -67 66 -67 125c0 62 22 110 67 143s101 50 170 50zM333 278h72l15 95h-72c-35 0 -66 -17 -66 -53c0 -25 20 -42 51 -42z" />
    <glyph glyph-name="uni0451" unicode="&#x451;" horiz-adv-x="570" 
d="M585 304c0 -25 -4 -56 -11 -93h-340c7 -53 65 -79 142 -79c55 0 109 14 162 41l-21 -138c-44 -32 -108 -48 -191 -48c-75 0 -137 22 -187 67c-49 45 -74 104 -74 177c0 83 27 152 82 207s123 83 205 83c69 0 125 -20 168 -60s65 -92 65 -157zM247 305h169
c3 52 -24 86 -72 86c-45 0 -84 -33 -97 -86zM555 714c35 -33 35 -88 0 -123c-33 -33 -88 -33 -123 0c-33 35 -33 90 0 123c35 33 90 33 123 0zM267 566c-47 0 -87 39 -87 87s39 86 87 86c49 0 87 -38 87 -86s-38 -87 -87 -87z" />
    <glyph glyph-name="uni0452" unicode="&#x452;" horiz-adv-x="663" 
d="M651 260c0 -23 -2 -47 -6 -71l-32 -206c-20 -125 -102 -189 -231 -189c-53 0 -93 7 -119 22l23 147c24 -13 48 -19 73 -19c47 0 74 16 82 71l23 148c3 17 4 31 4 42c0 45 -27 66 -63 66c-32 0 -61 -14 -88 -43l-36 -228h-177l80 509h-101l19 116h101l12 75h177l-12 -75
h169l-19 -116h-169l-24 -151c50 47 103 71 160 71c96 0 154 -68 154 -169z" />
    <glyph glyph-name="uni0453" unicode="&#x453;" horiz-adv-x="486" 
d="M141 508h415l-23 -142h-238l-57 -366h-177zM368 728h209l-181 -152h-147z" />
    <glyph glyph-name="uni0454" unicode="&#x454;" horiz-adv-x="511" 
d="M316 -13c-69 0 -128 21 -177 63c-49 43 -74 101 -74 174c0 84 29 154 86 211s131 86 221 86c69 0 123 -11 164 -32l-23 -138c-37 17 -78 26 -123 26c-70 0 -117 -22 -142 -66h165l-18 -112h-158c13 -47 55 -70 126 -70c39 0 78 9 117 26l-22 -139
c-39 -19 -87 -29 -142 -29z" />
    <glyph glyph-name="uni0455" unicode="&#x455;" horiz-adv-x="518" 
d="M514 165c0 -58 -24 -102 -71 -133c-47 -30 -102 -45 -166 -45c-84 0 -177 22 -232 58l22 143c43 -32 123 -62 207 -62c39 0 59 9 59 26c0 9 -5 15 -21 22c-8 4 -15 7 -22 9c-12 5 -49 17 -65 22c-96 33 -136 69 -136 134c0 59 23 104 68 135s102 47 169 47
c85 0 154 -19 209 -58l-23 -140c-57 41 -116 61 -179 61c-39 0 -59 -8 -59 -25c0 -16 14 -22 70 -39l36 -11c92 -29 134 -71 134 -144z" />
    <glyph glyph-name="uni0456" unicode="&#x456;" horiz-adv-x="310" 
d="M66 0l80 508h177l-80 -508h-177zM256 758c57 0 102 -45 102 -102s-45 -102 -102 -102c-56 0 -101 45 -101 102s45 102 101 102z" />
    <glyph glyph-name="uni0457" unicode="&#x457;" horiz-adv-x="277" 
d="M404 714c35 -33 35 -88 0 -123c-33 -33 -88 -33 -123 0c-33 35 -33 90 0 123c35 33 90 33 123 0zM116 566c-47 0 -87 39 -87 87s39 86 87 86c49 0 87 -38 87 -86s-38 -87 -87 -87zM50 0l80 508h177l-80 -508h-177z" />
    <glyph glyph-name="uni0458" unicode="&#x458;" horiz-adv-x="310" 
d="M146 508h177l-83 -524c-20 -125 -102 -190 -231 -190c-53 0 -93 7 -119 22l23 147c24 -13 48 -19 73 -19c51 0 74 19 85 87zM256 758c57 0 102 -45 102 -102s-45 -102 -102 -102c-56 0 -101 45 -101 102s45 102 101 102z" />
    <glyph glyph-name="uni0459" unicode="&#x459;" horiz-adv-x="923" 
d="M184 380l22 128h463l-22 -139h80c121 0 199 -62 199 -161c0 -60 -21 -110 -63 -149s-97 -59 -166 -59h-286l58 366h-119c-9 -52 -18 -100 -28 -145c-15 -66 -42 -120 -81 -163s-88 -64 -148 -64c-34 0 -58 4 -73 13l24 145c17 -8 52 -11 73 10c11 11 21 28 29 52
c9 24 15 47 20 70s11 55 18 96zM690 245h-62l-18 -115h68c44 0 75 24 75 64c0 31 -24 51 -63 51z" />
    <glyph glyph-name="uni045A" unicode="&#x45a;" horiz-adv-x="906" 
d="M447 331l29 177h177l-22 -139h79c121 0 199 -62 199 -161c0 -60 -21 -110 -63 -149s-97 -59 -166 -59h-286l30 189h-157l-29 -189h-177l80 508h177l-28 -177h157zM673 245h-62l-18 -115h68c44 0 75 24 75 64c0 31 -24 51 -63 51z" />
    <glyph glyph-name="uni045B" unicode="&#x45b;" horiz-adv-x="663" 
d="M616 0h-177l25 163c3 17 4 31 4 42c0 45 -27 66 -63 66c-32 0 -61 -14 -88 -43l-36 -228h-177l80 509h-101l19 116h101l12 75h177l-12 -75h169l-19 -116h-169l-24 -151c50 47 103 71 160 71c96 0 154 -68 154 -169c0 -23 -2 -47 -6 -71z" />
    <glyph glyph-name="uni045C" unicode="&#x45c;" horiz-adv-x="632" 
d="M442 268l191 -268h-204l-158 215l-33 -215h-177l80 508h177l-28 -170l168 170h223zM442 728h209l-181 -152h-147z" />
    <glyph glyph-name="uni045E" unicode="&#x45e;" horiz-adv-x="609" 
d="M345 202l147 306h187l-307 -559c-57 -103 -138 -155 -242 -155c-43 0 -80 8 -109 23l24 152c23 -16 49 -24 78 -24c48 0 85 24 112 72l-145 491h184zM480 732h112c-20 -108 -97 -171 -194 -171c-92 0 -163 54 -163 145c0 5 1 14 2 26h112v-6c0 -37 20 -61 56 -61
c37 0 66 27 75 67z" />
    <glyph glyph-name="uni045F" unicode="&#x45f;" horiz-adv-x="635" 
d="M475 508h177l-80 -508h-170l-19 -119h-171l19 119h-170l80 508h177l-58 -366h157z" />
    <glyph glyph-name="uni0490" unicode="&#x490;" horiz-adv-x="619" 
d="M67 0l110 700h355l22 136h162l-47 -294h-337l-85 -542h-180z" />
    <glyph glyph-name="uni0491" unicode="&#x491;" horiz-adv-x="496" 
d="M533 366h-238l-57 -366h-177l80 508h253l19 119h162z" />
    <glyph glyph-name="uni1E02" unicode="&#x1e02;" horiz-adv-x="712" 
d="M270 150h155c55 0 97 31 97 83c0 40 -32 66 -81 66h-147zM457 554h-123l-19 -122h129c47 0 79 25 79 69c0 33 -26 53 -66 53zM67 0l110 700h322c120 0 202 -54 202 -155c0 -67 -35 -127 -98 -158c29 -7 56 -25 79 -53s35 -64 35 -107c0 -69 -26 -124 -77 -165
s-116 -62 -195 -62h-378zM454 750c-47 0 -87 39 -87 87s39 86 87 86c49 0 87 -38 87 -86s-38 -87 -87 -87z" />
    <glyph glyph-name="uni1E03" unicode="&#x1e03;" horiz-adv-x="654" 
d="M247 56l-9 -56h-177l110 700h177l-39 -247c42 45 93 68 154 68s110 -23 147 -68c38 -45 57 -100 57 -167c0 -50 -10 -97 -29 -142c-39 -89 -126 -157 -235 -157c-66 0 -118 23 -156 69zM288 317l-20 -126c17 -31 59 -56 103 -56c32 0 59 13 81 38c23 26 34 58 34 95
c0 64 -39 103 -96 103c-43 0 -77 -18 -102 -54zM454 750c-47 0 -87 39 -87 87s39 86 87 86c49 0 87 -38 87 -86s-38 -87 -87 -87z" />
    <glyph glyph-name="uni1E0A" unicode="&#x1e0a;" horiz-adv-x="782" 
d="M332 542l-60 -384h116c67 0 120 20 158 60c38 41 57 93 57 157c0 47 -16 87 -48 119c-31 32 -73 48 -126 48h-97zM379 0h-312l110 700h257c107 0 192 -30 257 -91c65 -60 97 -138 97 -234c0 -107 -38 -197 -115 -268s-175 -107 -294 -107zM484 750c-47 0 -87 39 -87 87
s39 86 87 86c49 0 87 -38 87 -86s-38 -87 -87 -87z" />
    <glyph glyph-name="uni1E0B" unicode="&#x1e0b;" horiz-adv-x="655" 
d="M485 452l39 248h177l-109 -700h-177l8 55c-42 -45 -93 -68 -154 -68s-110 22 -148 67c-37 45 -56 101 -56 168c0 50 10 97 29 142c39 89 126 157 235 157c66 0 118 -23 156 -69zM444 191l20 126c-17 31 -59 56 -103 56c-32 0 -59 -13 -82 -39c-22 -25 -33 -57 -33 -94
c0 -64 39 -103 96 -103c43 0 77 18 102 54zM472 750c-47 0 -87 39 -87 87s39 86 87 86c49 0 87 -38 87 -86s-38 -87 -87 -87z" />
    <glyph glyph-name="uni1E1E" unicode="&#x1e1e;" horiz-adv-x="634" 
d="M709 700l-25 -158h-352l-16 -102h263l-24 -152h-263l-45 -288h-180l110 700h532zM454 750c-47 0 -87 39 -87 87s39 86 87 86c49 0 87 -38 87 -86s-38 -87 -87 -87z" />
    <glyph glyph-name="uni1E1F" unicode="&#x1e1f;" horiz-adv-x="454" 
d="M357 508h148l-23 -142h-147l-58 -366h-177l58 366h-85l23 142h85l2 14c16 119 89 192 216 192c51 0 96 -8 135 -24l-22 -137c-30 12 -57 18 -82 18c-44 0 -66 -18 -73 -63zM396 750c-47 0 -87 39 -87 87s39 86 87 86c49 0 87 -38 87 -86s-38 -87 -87 -87z" />
    <glyph glyph-name="uni1E40" unicode="&#x1e40;" horiz-adv-x="845" 
d="M486 431l219 269h184l-110 -700h-179l67 427l-153 -188h-99l-101 188l-67 -427h-180l110 700h173zM535 750c-47 0 -87 39 -87 87s39 86 87 86c49 0 87 -38 87 -86s-38 -87 -87 -87z" />
    <glyph glyph-name="uni1E41" unicode="&#x1e41;" horiz-adv-x="932" 
d="M61 0l80 508h177l-9 -58c46 47 98 71 156 71c69 0 122 -41 138 -82c44 48 111 82 179 82c91 0 153 -56 153 -157c0 -17 -3 -44 -10 -83l-44 -281h-177l42 268c3 19 4 32 4 39c0 40 -24 57 -56 57c-33 0 -61 -15 -84 -44l-50 -320h-177l41 263c3 18 5 33 5 44
c0 40 -25 57 -54 57c-34 0 -63 -15 -87 -44l-50 -320h-177zM568 566c-47 0 -87 39 -87 87s39 86 87 86c49 0 87 -38 87 -86s-38 -87 -87 -87z" />
    <glyph glyph-name="uni1E56" unicode="&#x1e56;" horiz-adv-x="657" 
d="M67 0l110 700h300c72 0 129 -18 170 -54c42 -35 63 -82 63 -139c0 -72 -26 -131 -79 -177c-52 -46 -119 -69 -200 -69h-143l-41 -261h-180zM452 548h-119l-22 -139h118c53 0 98 26 98 79c0 40 -25 60 -75 60zM452 750c-47 0 -87 39 -87 87s39 86 87 86
c49 0 87 -38 87 -86s-38 -87 -87 -87z" />
    <glyph glyph-name="uni1E57" unicode="&#x1e57;" horiz-adv-x="654" 
d="M246 56l-40 -256h-177l112 708h177l-9 -55c42 45 93 68 154 68s110 -23 147 -68c38 -45 57 -100 57 -167c0 -50 -10 -97 -30 -142c-39 -89 -126 -157 -235 -157c-66 0 -118 23 -156 69zM288 317l-20 -126c17 -31 59 -56 103 -56c32 0 59 13 81 38c23 26 34 58 34 95
c0 64 -39 103 -96 103c-43 0 -77 -18 -102 -54zM418 566c-47 0 -87 39 -87 87s39 86 87 86c49 0 87 -38 87 -86s-38 -87 -87 -87z" />
    <glyph glyph-name="uni1E60" unicode="&#x1e60;" horiz-adv-x="632" 
d="M653 657l-28 -173c-27 19 -62 34 -105 47s-85 20 -126 20c-65 0 -97 -16 -97 -48c0 -13 9 -22 30 -31c11 -4 21 -8 32 -11c23 -5 64 -18 92 -27c116 -40 186 -95 186 -200c0 -77 -30 -137 -89 -182c-59 -44 -132 -66 -220 -66c-119 0 -211 25 -276 75l29 184
c25 -26 63 -49 113 -68c51 -19 99 -28 144 -28c15 0 30 1 44 3c29 4 67 25 67 58c0 17 -11 28 -27 37c-8 7 -30 13 -43 17l-58 18l-63 21c-15 6 -33 15 -55 26c-21 12 -38 24 -49 36c-23 25 -43 67 -43 116c0 77 28 135 83 174c56 39 128 59 215 59c95 0 177 -19 244 -57z
M433 750c-47 0 -87 39 -87 87s39 86 87 86c49 0 87 -38 87 -86s-38 -87 -87 -87z" />
    <glyph glyph-name="uni1E61" unicode="&#x1e61;" horiz-adv-x="518" 
d="M514 165c0 -58 -24 -102 -71 -133c-47 -30 -102 -45 -166 -45c-84 0 -177 22 -232 58l22 143c43 -32 123 -62 207 -62c39 0 59 9 59 26c0 9 -5 15 -21 22c-8 4 -15 7 -22 9c-12 5 -49 17 -65 22c-96 33 -136 69 -136 134c0 59 23 104 68 135s102 47 169 47
c85 0 154 -19 209 -58l-23 -140c-57 41 -116 61 -179 61c-39 0 -59 -8 -59 -25c0 -16 14 -22 70 -39l36 -11c92 -29 134 -71 134 -144zM362 566c-47 0 -87 39 -87 87s39 86 87 86c49 0 87 -38 87 -86s-38 -87 -87 -87z" />
    <glyph glyph-name="uni1E6A" unicode="&#x1e6a;" horiz-adv-x="657" 
d="M138 700h601l-25 -158h-211l-85 -542h-180l85 542h-210zM446 750c-47 0 -87 39 -87 87s39 86 87 86c49 0 87 -38 87 -86s-38 -87 -87 -87z" />
    <glyph glyph-name="uni1E6B" unicode="&#x1e6b;" horiz-adv-x="449" 
d="M490 508l-23 -142h-129l-22 -141c-3 -23 -5 -38 -5 -45c0 -27 16 -40 49 -40c25 0 50 7 75 21l-22 -141c-36 -22 -80 -33 -131 -33c-88 0 -154 54 -154 147c0 14 1 29 4 45l29 187h-89l23 142h89l21 130h177l-21 -130h129zM309 693c-47 0 -87 39 -87 87s39 86 87 86
c49 0 87 -38 87 -86s-38 -87 -87 -87z" />
    <glyph glyph-name="Wgrave" unicode="&#x1e80;" horiz-adv-x="1088" 
d="M685 -4l-75 410l-207 -410h-160l-121 704h197l52 -417l213 419h140l79 -419l184 417h201l-345 -704h-158zM732 760h-147l-133 152h209z" />
    <glyph glyph-name="wgrave" unicode="&#x1e81;" horiz-adv-x="833" 
d="M326 -4h-151l-85 512h171l40 -259l122 261h140l42 -261l120 259h178l-250 -512h-152l-48 261zM567 576h-147l-133 152h209z" />
    <glyph glyph-name="Wacute" unicode="&#x1e82;" horiz-adv-x="1088" 
d="M685 -4l-75 410l-207 -410h-160l-121 704h197l52 -417l213 419h140l79 -419l184 417h201l-345 -704h-158zM709 912h209l-181 -152h-147z" />
    <glyph glyph-name="wacute" unicode="&#x1e83;" horiz-adv-x="833" 
d="M326 -4h-151l-85 512h171l40 -259l122 261h140l42 -261l120 259h178l-250 -512h-152l-48 261zM540 728h209l-181 -152h-147z" />
    <glyph glyph-name="Wdieresis" unicode="&#x1e84;" horiz-adv-x="1088" 
d="M685 -4l-75 410l-207 -410h-160l-121 704h197l52 -417l213 419h140l79 -419l184 417h201l-345 -704h-158zM852 898c35 -33 35 -88 0 -123c-33 -33 -88 -33 -123 0c-33 35 -33 90 0 123c35 33 90 33 123 0zM564 750c-47 0 -87 39 -87 87s39 86 87 86c49 0 87 -38 87 -86
s-38 -87 -87 -87z" />
    <glyph glyph-name="wdieresis" unicode="&#x1e85;" horiz-adv-x="833" 
d="M326 -4h-151l-85 512h171l40 -259l122 261h140l42 -261l120 259h178l-250 -512h-152l-48 261zM673 714c35 -33 35 -88 0 -123c-33 -33 -88 -33 -123 0c-33 35 -33 90 0 123c35 33 90 33 123 0zM385 566c-47 0 -87 39 -87 87s39 86 87 86c49 0 87 -38 87 -86
s-38 -87 -87 -87z" />
    <glyph glyph-name="Ygrave" unicode="&#x1ef2;" horiz-adv-x="728" 
d="M436 469l193 231h204l-330 -386l-49 -314h-180l49 310l-208 390h201zM571 760h-147l-133 152h209z" />
    <glyph glyph-name="ygrave" unicode="&#x1ef3;" horiz-adv-x="609" 
d="M345 202l147 306h187l-307 -559c-57 -103 -138 -155 -242 -155c-43 0 -80 8 -109 23l24 152c23 -16 49 -24 78 -24c48 0 85 24 112 72l-145 491h184zM478 576h-147l-133 152h209z" />
    <glyph glyph-name="endash" unicode="&#x2013;" horiz-adv-x="776" 
d="M721 202h-605l26 158h605z" />
    <glyph glyph-name="emdash" unicode="&#x2014;" horiz-adv-x="906" 
d="M851 202h-735l26 158h735z" />
    <glyph glyph-name="uni2015" unicode="&#x2015;" horiz-adv-x="776" 
d="M721 202h-605l26 158h605z" />
    <glyph glyph-name="quoteleft" unicode="&#x2018;" horiz-adv-x="317" 
d="M403 700l-140 -328h-183l180 328h143z" />
    <glyph glyph-name="quoteright" unicode="&#x2019;" horiz-adv-x="317" 
d="M80 372l140 328h183l-180 -328h-143z" />
    <glyph glyph-name="quotesinglbase" unicode="&#x201a;" horiz-adv-x="327" 
d="M-12 -152l140 328h183l-180 -328h-143z" />
    <glyph glyph-name="quotedblleft" unicode="&#x201c;" horiz-adv-x="568" 
d="M654 700l-140 -328h-183l180 328h143zM403 700l-140 -328h-183l180 328h143z" />
    <glyph glyph-name="quotedblright" unicode="&#x201d;" horiz-adv-x="568" 
d="M331 372l140 328h183l-180 -328h-143zM80 372l140 328h183l-180 -328h-143z" />
    <glyph glyph-name="quotedblbase" unicode="&#x201e;" horiz-adv-x="578" 
d="M239 -152l140 328h183l-180 -328h-143zM-12 -152l140 328h183l-180 -328h-143z" />
    <glyph glyph-name="dagger" unicode="&#x2020;" horiz-adv-x="490" 
d="M307 0h-128l61 386h-164l20 122h164l30 192h128l-30 -192h164l-20 -122h-164z" />
    <glyph glyph-name="daggerdbl" unicode="&#x2021;" horiz-adv-x="490" 
d="M307 0h-128l28 175h-164l19 122h164l14 89h-164l20 122h164l30 192h128l-30 -192h164l-20 -122h-164l-14 -89h164l-19 -122h-164z" />
    <glyph glyph-name="bullet" unicode="&#x2022;" horiz-adv-x="419" 
d="M381 276c-32 -32 -71 -48 -116 -48s-84 16 -117 48c-32 32 -48 71 -48 116s16 84 48 116c33 33 72 49 117 49s84 -16 116 -49c32 -32 48 -71 48 -116s-16 -84 -48 -116z" />
    <glyph glyph-name="ellipsis" unicode="&#x2026;" horiz-adv-x="802" 
d="M783 93c0 -59 -46 -106 -105 -106s-105 47 -105 106c0 29 10 53 30 74c21 21 46 31 75 31s54 -10 74 -31c21 -21 31 -45 31 -74zM261 93c0 -59 -46 -106 -105 -106s-105 47 -105 106c0 29 10 53 30 74c21 21 46 31 75 31s54 -10 74 -31c21 -21 31 -45 31 -74zM522 93
c0 -59 -46 -106 -105 -106s-105 47 -105 106c0 57 48 105 105 105s105 -48 105 -105z" />
    <glyph glyph-name="perthousand" unicode="&#x2030;" horiz-adv-x="1217" 
d="M791 700l-533 -700h-119l533 700h119zM270 707c51 0 94 -16 127 -47s50 -71 50 -120s-18 -92 -53 -128c-35 -35 -78 -53 -131 -53c-51 0 -94 15 -127 46s-50 72 -50 121s17 92 52 127c35 36 79 54 132 54zM262 465c39 0 69 32 69 76c0 37 -25 60 -60 60
c-39 0 -69 -32 -69 -76c0 -37 25 -60 60 -60zM666 341c51 0 94 -16 127 -47s50 -71 50 -120s-18 -92 -53 -128c-35 -35 -78 -53 -131 -53c-51 0 -94 15 -127 46s-50 72 -50 121s17 92 52 127c35 36 79 54 132 54zM658 99c39 0 69 32 69 76c0 37 -25 60 -60 60
c-39 0 -69 -32 -69 -76c0 -37 25 -60 60 -60zM1062 341c51 0 94 -16 127 -47s50 -71 50 -120s-18 -92 -53 -128c-35 -35 -78 -53 -131 -53c-51 0 -94 15 -127 46s-50 72 -50 121s17 92 52 127c35 36 79 54 132 54zM1054 99c39 0 69 32 69 76c0 37 -25 60 -60 60
c-39 0 -69 -32 -69 -76c0 -37 25 -60 60 -60z" />
    <glyph glyph-name="guilsinglleft" unicode="&#x2039;" horiz-adv-x="368" 
d="M344 32h-176l-101 178l13 87l159 179h176l-195 -230z" />
    <glyph glyph-name="guilsinglright" unicode="&#x203a;" horiz-adv-x="371" 
d="M102 476h176l101 -178l-13 -87l-159 -179h-176l195 230z" />
    <glyph glyph-name="fraction" unicode="&#x2044;" horiz-adv-x="241" 
d="M-157 0l536 700h120l-536 -700h-120z" />
    <glyph glyph-name="zerosuperior" unicode="&#x2070;" horiz-adv-x="395" 
d="M293 708c49 0 89 -16 118 -49c30 -32 45 -73 45 -123c0 -55 -18 -106 -53 -153c-35 -46 -81 -69 -140 -69c-100 0 -163 72 -163 172c0 55 17 106 52 152c35 47 82 70 141 70zM266 411c25 0 45 13 58 40c14 27 21 55 21 84c0 43 -18 76 -55 76c-25 0 -45 -13 -59 -40
c-13 -27 -20 -55 -20 -84c0 -43 16 -76 55 -76z" />
    <glyph glyph-name="foursuperior" unicode="&#x2074;" horiz-adv-x="367" 
d="M352 322h-103l14 87h-188l13 75l217 216h108l-34 -209h52l-14 -82h-51zM292 584l-97 -93h81z" />
    <glyph glyph-name="fivesuperior" unicode="&#x2075;" horiz-adv-x="331" 
d="M243 576c81 0 136 -48 136 -116c0 -92 -75 -146 -180 -146c-50 0 -91 10 -123 31l16 98c32 -23 68 -35 109 -35c46 0 69 16 69 49c0 24 -25 40 -70 40c-27 0 -57 -5 -90 -14l58 217h223l-15 -90h-142l-9 -35c3 1 9 1 18 1z" />
    <glyph glyph-name="sixsuperior" unicode="&#x2076;" horiz-adv-x="350" 
d="M308 615c-47 0 -83 -25 -95 -68c18 19 44 29 79 29c65 0 110 -49 110 -113c0 -87 -65 -149 -161 -149c-93 0 -145 64 -145 152c0 64 18 120 55 169s89 73 154 73c43 0 76 -9 100 -28l-15 -93c-23 19 -50 28 -82 28zM252 498c-23 0 -41 -9 -54 -28c-2 -5 -3 -13 -3 -22
c1 -31 23 -48 48 -48c31 0 54 22 54 54c0 29 -15 44 -45 44z" />
    <glyph glyph-name="sevensuperior" unicode="&#x2077;" horiz-adv-x="333" 
d="M208 322h-118l194 288h-165l15 90h288l-14 -83z" />
    <glyph glyph-name="eightsuperior" unicode="&#x2078;" horiz-adv-x="355" 
d="M354 516c31 -13 53 -46 53 -82s-16 -65 -47 -87s-68 -33 -111 -33s-82 10 -115 29s-50 48 -50 85c0 45 32 86 80 101c-25 14 -38 37 -38 68c0 33 14 59 43 80s63 31 102 31c37 0 70 -9 99 -28c30 -18 45 -44 45 -78c0 -36 -25 -70 -61 -86zM223 585c-5 -42 93 -47 90 2
c5 45 -93 48 -90 -2zM246 401c29 0 56 16 56 43c0 23 -22 42 -53 42c-29 0 -57 -18 -57 -45c0 -21 23 -40 54 -40z" />
    <glyph glyph-name="ninesuperior" unicode="&#x2079;" horiz-adv-x="358" 
d="M195 407c47 0 83 25 95 68c-18 -19 -44 -29 -79 -29c-65 0 -110 49 -110 113c0 87 65 149 161 149c93 0 145 -64 145 -152c0 -64 -19 -120 -56 -169s-88 -73 -153 -73c-43 0 -76 9 -100 28l15 93c23 -19 50 -28 82 -28zM251 524c23 0 41 9 54 28c2 5 3 13 3 22
c-1 31 -23 48 -48 48c-31 0 -54 -22 -54 -54c0 -29 15 -44 45 -44z" />
    <glyph glyph-name="zeroinferior" unicode="&#x2080;" horiz-adv-x="395" 
d="M243 386c49 0 89 -16 118 -49c30 -32 45 -73 45 -123c0 -55 -18 -106 -53 -153c-35 -46 -81 -69 -140 -69c-100 0 -163 72 -163 172c0 55 17 106 52 152c35 47 82 70 141 70zM216 89c25 0 45 13 58 40c14 27 21 55 21 84c0 43 -18 76 -55 76c-25 0 -45 -13 -59 -40
c-13 -27 -20 -55 -20 -84c0 -43 18 -76 55 -76z" />
    <glyph glyph-name="oneinferior" unicode="&#x2081;" horiz-adv-x="256" 
d="M224 0h-107l43 270l-109 -49l17 103l112 54h103z" />
    <glyph glyph-name="twoinferior" unicode="&#x2082;" horiz-adv-x="346" 
d="M82 253l17 106c31 18 68 27 110 27c76 0 136 -45 136 -120c0 -53 -29 -94 -97 -143l-47 -34h137l-14 -89h-287l12 76l117 90c53 40 70 60 70 85s-17 38 -50 38c-35 0 -69 -12 -104 -36z" />
    <glyph glyph-name="threeinferior" unicode="&#x2083;" horiz-adv-x="331" 
d="M352 378l-13 -78l-82 -62c37 -16 70 -49 70 -101c0 -87 -69 -145 -168 -145c-57 0 -101 12 -134 35l17 97c28 -25 65 -38 110 -38c39 0 71 16 71 47c0 21 -21 39 -57 39c-26 0 -46 -4 -61 -11l10 65l88 62h-125l16 90h258z" />
    <glyph glyph-name="fourinferior" unicode="&#x2084;" horiz-adv-x="367" 
d="M302 0h-103l14 87h-188l13 75l217 216h108l-34 -209h52l-14 -82h-51zM242 262l-97 -93h81z" />
    <glyph glyph-name="fiveinferior" unicode="&#x2085;" horiz-adv-x="331" 
d="M193 254c81 0 136 -48 136 -116c0 -92 -75 -146 -180 -146c-50 0 -91 10 -123 31l16 98c32 -23 68 -35 109 -35c46 0 69 16 69 49c0 24 -25 40 -70 40c-27 0 -57 -5 -90 -14l58 217h223l-15 -90h-142l-9 -35c3 1 9 1 18 1z" />
    <glyph glyph-name="sixinferior" unicode="&#x2086;" horiz-adv-x="350" 
d="M258 293c-47 0 -83 -25 -95 -68c18 19 44 29 79 29c65 0 110 -49 110 -113c0 -87 -65 -149 -161 -149c-93 0 -145 64 -145 152c0 64 18 120 55 169s89 73 154 73c43 0 76 -9 100 -28l-15 -93c-23 19 -50 28 -82 28zM202 176c-23 0 -41 -9 -54 -28c-2 -5 -3 -13 -3 -22
c1 -31 23 -48 48 -48c31 0 54 22 54 54c0 29 -15 44 -45 44z" />
    <glyph glyph-name="seveninferior" unicode="&#x2087;" horiz-adv-x="333" 
d="M158 0h-118l194 288h-165l15 90h288l-14 -83z" />
    <glyph glyph-name="eightinferior" unicode="&#x2088;" horiz-adv-x="355" 
d="M304 194c31 -13 53 -46 53 -82s-16 -65 -47 -87s-68 -33 -111 -33s-82 10 -115 29s-50 48 -50 85c0 45 32 86 80 101c-25 14 -38 37 -38 68c0 33 14 59 43 80s63 31 102 31c37 0 70 -9 99 -28c30 -18 45 -44 45 -78c0 -36 -25 -70 -61 -86zM173 263c-5 -42 93 -47 90 2
c5 45 -93 48 -90 -2zM196 79c29 0 56 16 56 43c0 23 -22 42 -53 42c-29 0 -57 -18 -57 -45c0 -21 23 -40 54 -40z" />
    <glyph glyph-name="nineinferior" unicode="&#x2089;" horiz-adv-x="351" 
d="M154 85c47 0 83 25 95 68c-18 -19 -44 -29 -79 -29c-65 0 -110 49 -110 113c0 87 65 149 161 149c93 0 145 -64 145 -152c0 -64 -19 -120 -56 -169s-88 -73 -153 -73c-43 0 -76 9 -100 28l15 93c23 -19 50 -28 82 -28zM210 202c23 0 41 9 54 28c2 5 3 13 3 22
c-1 31 -23 48 -48 48c-31 0 -54 -22 -54 -54c0 -29 15 -44 45 -44z" />
    <glyph glyph-name="franc" unicode="&#x20a3;" horiz-adv-x="684" 
d="M296 0h-180l14 85h-96l19 124h96l78 491h532l-25 -158h-352l-16 -102h263l-24 -152h-263l-13 -79h137l-19 -124h-137z" />
    <glyph glyph-name="lira" unicode="&#x20a4;" horiz-adv-x="612" 
d="M181 348h-87l13 82h87l6 39c12 76 45 136 100 179c55 44 123 66 204 66c61 0 112 -10 154 -31l-28 -173c-43 20 -85 30 -124 30c-77 0 -120 -35 -131 -104l-1 -6h200l-13 -82h-200l-6 -39h199l-13 -82h-199l-1 -6c-5 -28 -21 -51 -33 -58l-8 -5h295l-25 -158h-531l25 158
h30c38 0 60 21 67 64l1 5h-88l13 82h88z" />
    <glyph glyph-name="peseta" unicode="&#x20a7;" horiz-adv-x="744" 
d="M188 544l25 156h300c128 0 212 -61 229 -156h84l-20 -131h-79c-39 -93 -137 -152 -260 -152h-143l-41 -261h-180l65 413h-89l20 131h89zM488 548h-119l-22 -139h118c53 0 98 26 98 79c0 40 -25 60 -75 60z" />
    <glyph glyph-name="Euro" unicode="&#x20ac;" horiz-adv-x="648" 
d="M143 382h-58l16 97h67c56 145 188 235 367 235c59 0 112 -11 159 -34l-31 -165c-40 23 -85 34 -135 34c-72 0 -126 -23 -161 -70h169l-16 -97h-193c-3 -13 -5 -30 -5 -50h190l-15 -97h-158c27 -57 81 -85 162 -85c63 0 114 15 153 45l-28 -179c-42 -20 -95 -30 -158 -30
c-81 0 -150 23 -209 68c-58 45 -95 106 -112 181h-85l15 97h62c1 23 3 39 4 50z" />
    <glyph glyph-name="uni20B4" unicode="&#x20b4;" horiz-adv-x="600" 
d="M400 144c27 0 58 3 92 9c34 7 62 15 83 25l-26 -162c-56 -20 -116 -30 -179 -30c-59 0 -114 9 -174 32c-59 23 -99 72 -99 139c0 41 13 75 40 102h-54l13 85h522l-13 -85h-254c-37 -15 -56 -36 -56 -64c0 -34 35 -51 105 -51zM357 714c59 0 117 -11 170 -35
c55 -24 91 -71 91 -134c0 -28 -7 -52 -21 -73h41l-13 -85h-522l13 85h282c15 9 23 23 23 42c0 30 -33 45 -100 45c-59 0 -112 -9 -157 -26l25 158c41 15 97 23 168 23z" />
    <glyph glyph-name="uni20B6" unicode="&#x20b6;" horiz-adv-x="742" 
d="M351 209h234l-20 -124h-234l-13 -85h-180l13 85h-116l20 124h116l8 52h-116l19 124h116l50 315h300c144 0 233 -79 233 -195c0 -72 -26 -131 -79 -176c-52 -45 -119 -68 -200 -68h-143zM378 385h105c63 0 115 30 115 91c0 45 -31 72 -88 72h-106z" />
    <glyph glyph-name="uni20B6" unicode="&#x20cf;" horiz-adv-x="742" 
d="M351 209h234l-20 -124h-234l-13 -85h-180l13 85h-116l20 124h116l8 52h-116l19 124h116l50 315h300c144 0 233 -79 233 -195c0 -72 -26 -131 -79 -176c-52 -45 -119 -68 -200 -68h-143zM378 385h105c63 0 115 30 115 91c0 45 -31 72 -88 72h-106z" />
    <glyph glyph-name="uni20B6" unicode="&#x20ce;" horiz-adv-x="742" 
d="M351 209h234l-20 -124h-234l-13 -85h-180l13 85h-116l20 124h116l8 52h-116l19 124h116l50 315h300c144 0 233 -79 233 -195c0 -72 -26 -131 -79 -176c-52 -45 -119 -68 -200 -68h-143zM378 385h105c63 0 115 30 115 91c0 45 -31 72 -88 72h-106z" />
    <glyph glyph-name="uni20B6" unicode="&#x20cd;" horiz-adv-x="742" 
d="M351 209h234l-20 -124h-234l-13 -85h-180l13 85h-116l20 124h116l8 52h-116l19 124h116l50 315h300c144 0 233 -79 233 -195c0 -72 -26 -131 -79 -176c-52 -45 -119 -68 -200 -68h-143zM378 385h105c63 0 115 30 115 91c0 45 -31 72 -88 72h-106z" />
    <glyph glyph-name="uni20B6" unicode="&#x20cc;" horiz-adv-x="742" 
d="M351 209h234l-20 -124h-234l-13 -85h-180l13 85h-116l20 124h116l8 52h-116l19 124h116l50 315h300c144 0 233 -79 233 -195c0 -72 -26 -131 -79 -176c-52 -45 -119 -68 -200 -68h-143zM378 385h105c63 0 115 30 115 91c0 45 -31 72 -88 72h-106z" />
    <glyph glyph-name="uni20B6" unicode="&#x20cb;" horiz-adv-x="742" 
d="M351 209h234l-20 -124h-234l-13 -85h-180l13 85h-116l20 124h116l8 52h-116l19 124h116l50 315h300c144 0 233 -79 233 -195c0 -72 -26 -131 -79 -176c-52 -45 -119 -68 -200 -68h-143zM378 385h105c63 0 115 30 115 91c0 45 -31 72 -88 72h-106z" />
    <glyph glyph-name="uni20B6" unicode="&#x20ca;" horiz-adv-x="742" 
d="M351 209h234l-20 -124h-234l-13 -85h-180l13 85h-116l20 124h116l8 52h-116l19 124h116l50 315h300c144 0 233 -79 233 -195c0 -72 -26 -131 -79 -176c-52 -45 -119 -68 -200 -68h-143zM378 385h105c63 0 115 30 115 91c0 45 -31 72 -88 72h-106z" />
    <glyph glyph-name="uni20B6" unicode="&#x20c9;" horiz-adv-x="742" 
d="M351 209h234l-20 -124h-234l-13 -85h-180l13 85h-116l20 124h116l8 52h-116l19 124h116l50 315h300c144 0 233 -79 233 -195c0 -72 -26 -131 -79 -176c-52 -45 -119 -68 -200 -68h-143zM378 385h105c63 0 115 30 115 91c0 45 -31 72 -88 72h-106z" />
    <glyph glyph-name="uni20B6" unicode="&#x20c8;" horiz-adv-x="742" 
d="M351 209h234l-20 -124h-234l-13 -85h-180l13 85h-116l20 124h116l8 52h-116l19 124h116l50 315h300c144 0 233 -79 233 -195c0 -72 -26 -131 -79 -176c-52 -45 -119 -68 -200 -68h-143zM378 385h105c63 0 115 30 115 91c0 45 -31 72 -88 72h-106z" />
    <glyph glyph-name="uni20B6" unicode="&#x20c7;" horiz-adv-x="742" 
d="M351 209h234l-20 -124h-234l-13 -85h-180l13 85h-116l20 124h116l8 52h-116l19 124h116l50 315h300c144 0 233 -79 233 -195c0 -72 -26 -131 -79 -176c-52 -45 -119 -68 -200 -68h-143zM378 385h105c63 0 115 30 115 91c0 45 -31 72 -88 72h-106z" />
    <glyph glyph-name="uni20B6" unicode="&#x20c6;" horiz-adv-x="742" 
d="M351 209h234l-20 -124h-234l-13 -85h-180l13 85h-116l20 124h116l8 52h-116l19 124h116l50 315h300c144 0 233 -79 233 -195c0 -72 -26 -131 -79 -176c-52 -45 -119 -68 -200 -68h-143zM378 385h105c63 0 115 30 115 91c0 45 -31 72 -88 72h-106z" />
    <glyph glyph-name="uni20B6" unicode="&#x20c5;" horiz-adv-x="742" 
d="M351 209h234l-20 -124h-234l-13 -85h-180l13 85h-116l20 124h116l8 52h-116l19 124h116l50 315h300c144 0 233 -79 233 -195c0 -72 -26 -131 -79 -176c-52 -45 -119 -68 -200 -68h-143zM378 385h105c63 0 115 30 115 91c0 45 -31 72 -88 72h-106z" />
    <glyph glyph-name="uni20B6" unicode="&#x20c4;" horiz-adv-x="742" 
d="M351 209h234l-20 -124h-234l-13 -85h-180l13 85h-116l20 124h116l8 52h-116l19 124h116l50 315h300c144 0 233 -79 233 -195c0 -72 -26 -131 -79 -176c-52 -45 -119 -68 -200 -68h-143zM378 385h105c63 0 115 30 115 91c0 45 -31 72 -88 72h-106z" />
    <glyph glyph-name="uni20B6" unicode="&#x20c3;" horiz-adv-x="742" 
d="M351 209h234l-20 -124h-234l-13 -85h-180l13 85h-116l20 124h116l8 52h-116l19 124h116l50 315h300c144 0 233 -79 233 -195c0 -72 -26 -131 -79 -176c-52 -45 -119 -68 -200 -68h-143zM378 385h105c63 0 115 30 115 91c0 45 -31 72 -88 72h-106z" />
    <glyph glyph-name="uni20B6" unicode="&#x20c2;" horiz-adv-x="742" 
d="M351 209h234l-20 -124h-234l-13 -85h-180l13 85h-116l20 124h116l8 52h-116l19 124h116l50 315h300c144 0 233 -79 233 -195c0 -72 -26 -131 -79 -176c-52 -45 -119 -68 -200 -68h-143zM378 385h105c63 0 115 30 115 91c0 45 -31 72 -88 72h-106z" />
    <glyph glyph-name="uni20B6" unicode="&#x20c1;" horiz-adv-x="742" 
d="M351 209h234l-20 -124h-234l-13 -85h-180l13 85h-116l20 124h116l8 52h-116l19 124h116l50 315h300c144 0 233 -79 233 -195c0 -72 -26 -131 -79 -176c-52 -45 -119 -68 -200 -68h-143zM378 385h105c63 0 115 30 115 91c0 45 -31 72 -88 72h-106z" />
    <glyph glyph-name="uni20B6" unicode="&#x20c0;" horiz-adv-x="742" 
d="M351 209h234l-20 -124h-234l-13 -85h-180l13 85h-116l20 124h116l8 52h-116l19 124h116l50 315h300c144 0 233 -79 233 -195c0 -72 -26 -131 -79 -176c-52 -45 -119 -68 -200 -68h-143zM378 385h105c63 0 115 30 115 91c0 45 -31 72 -88 72h-106z" />
    <glyph glyph-name="uni20B6" unicode="&#x20bf;" horiz-adv-x="742" 
d="M351 209h234l-20 -124h-234l-13 -85h-180l13 85h-116l20 124h116l8 52h-116l19 124h116l50 315h300c144 0 233 -79 233 -195c0 -72 -26 -131 -79 -176c-52 -45 -119 -68 -200 -68h-143zM378 385h105c63 0 115 30 115 91c0 45 -31 72 -88 72h-106z" />
    <glyph glyph-name="uni20B6" unicode="&#x20be;" horiz-adv-x="742" 
d="M351 209h234l-20 -124h-234l-13 -85h-180l13 85h-116l20 124h116l8 52h-116l19 124h116l50 315h300c144 0 233 -79 233 -195c0 -72 -26 -131 -79 -176c-52 -45 -119 -68 -200 -68h-143zM378 385h105c63 0 115 30 115 91c0 45 -31 72 -88 72h-106z" />
    <glyph glyph-name="uni20B6" unicode="&#x20bd;" horiz-adv-x="742" 
d="M351 209h234l-20 -124h-234l-13 -85h-180l13 85h-116l20 124h116l8 52h-116l19 124h116l50 315h300c144 0 233 -79 233 -195c0 -72 -26 -131 -79 -176c-52 -45 -119 -68 -200 -68h-143zM378 385h105c63 0 115 30 115 91c0 45 -31 72 -88 72h-106z" />
    <glyph glyph-name="uni20B6" unicode="&#x20bc;" horiz-adv-x="742" 
d="M351 209h234l-20 -124h-234l-13 -85h-180l13 85h-116l20 124h116l8 52h-116l19 124h116l50 315h300c144 0 233 -79 233 -195c0 -72 -26 -131 -79 -176c-52 -45 -119 -68 -200 -68h-143zM378 385h105c63 0 115 30 115 91c0 45 -31 72 -88 72h-106z" />
    <glyph glyph-name="uni20B6" unicode="&#x20bb;" horiz-adv-x="742" 
d="M351 209h234l-20 -124h-234l-13 -85h-180l13 85h-116l20 124h116l8 52h-116l19 124h116l50 315h300c144 0 233 -79 233 -195c0 -72 -26 -131 -79 -176c-52 -45 -119 -68 -200 -68h-143zM378 385h105c63 0 115 30 115 91c0 45 -31 72 -88 72h-106z" />
    <glyph glyph-name="uni20B6" unicode="&#x20ba;" horiz-adv-x="742" 
d="M351 209h234l-20 -124h-234l-13 -85h-180l13 85h-116l20 124h116l8 52h-116l19 124h116l50 315h300c144 0 233 -79 233 -195c0 -72 -26 -131 -79 -176c-52 -45 -119 -68 -200 -68h-143zM378 385h105c63 0 115 30 115 91c0 45 -31 72 -88 72h-106z" />
    <glyph glyph-name="uni20B6" unicode="&#x20b9;" horiz-adv-x="742" 
d="M351 209h234l-20 -124h-234l-13 -85h-180l13 85h-116l20 124h116l8 52h-116l19 124h116l50 315h300c144 0 233 -79 233 -195c0 -72 -26 -131 -79 -176c-52 -45 -119 -68 -200 -68h-143zM378 385h105c63 0 115 30 115 91c0 45 -31 72 -88 72h-106z" />
    <glyph glyph-name="uni20B6" unicode="&#x20b7;" horiz-adv-x="742" 
d="M351 209h234l-20 -124h-234l-13 -85h-180l13 85h-116l20 124h116l8 52h-116l19 124h116l50 315h300c144 0 233 -79 233 -195c0 -72 -26 -131 -79 -176c-52 -45 -119 -68 -200 -68h-143zM378 385h105c63 0 115 30 115 91c0 45 -31 72 -88 72h-106z" />
    <glyph glyph-name="uni2113" unicode="&#x2113;" horiz-adv-x="424" 
d="M208 185c-1 -9 -2 -16 -2 -19c0 -42 27 -63 80 -63c39 0 77 13 112 39l-17 -110c-39 -30 -86 -45 -142 -45c-107 0 -162 63 -162 160c0 10 1 25 4 45l41 263c25 167 105 259 213 259c89 0 143 -61 143 -144c0 -76 -31 -149 -91 -217c-29 -34 -57 -63 -83 -87
c-25 -23 -57 -50 -96 -81zM254 478l-23 -137c91 82 137 151 137 207c0 31 -13 47 -38 47c-37 0 -63 -39 -76 -117z" />
    <glyph glyph-name="uni2116" unicode="&#x2116;" horiz-adv-x="1152" 
d="M571 299l63 401h179l-110 -700h-148l-245 403l-63 -403h-180l110 700h153zM1149 208h-342l17 105h342zM1032 707c51 0 94 -16 127 -47s50 -71 50 -120s-18 -92 -53 -128c-35 -35 -78 -53 -131 -53c-51 0 -94 15 -127 46s-50 72 -50 121s17 92 52 127c35 36 79 54 132 54z
M1024 465c39 0 69 32 69 76c0 37 -25 60 -60 60c-39 0 -69 -32 -69 -76c0 -37 25 -60 60 -60z" />
    <glyph glyph-name="trademark" unicode="&#x2122;" horiz-adv-x="681" 
d="M125 700h268l-11 -70h-94l-38 -242h-81l38 242h-93zM576 585l95 115h80l-49 -312h-80l30 189l-66 -78h-42l-42 78l-30 -189h-80l49 312h75z" />
    <glyph glyph-name="Omega" unicode="&#x2126;" horiz-adv-x="788" 
d="M788 418c0 -99 -46 -193 -126 -260h94l-25 -158h-298l20 135c44 26 80 63 107 110s41 97 41 149c0 44 -12 82 -37 113c-24 31 -58 47 -103 47c-52 0 -94 -23 -126 -69c-31 -45 -47 -96 -47 -153c0 -83 36 -162 84 -197l-21 -135h-295l25 158h101c-48 50 -72 118 -72 205
c0 94 33 176 100 246s150 105 250 105c57 0 110 -11 159 -33s89 -56 121 -102s48 -100 48 -161z" />
    <glyph glyph-name="estimated" unicode="&#x212e;" horiz-adv-x="783" 
d="M457 670c96 0 175 -31 238 -92s94 -136 94 -225c0 -13 -1 -24 -2 -33h-566l-20 -193c57 -69 134 -103 229 -103c113 0 212 56 272 152h45c-28 -53 -70 -98 -126 -135c-55 -37 -120 -55 -193 -55c-93 0 -172 30 -236 89s-96 136 -96 231c0 102 34 188 102 258
c69 71 155 106 259 106zM246 553l-21 -195h439l18 175c-60 67 -135 100 -225 100c-79 0 -149 -27 -211 -80z" />
    <glyph glyph-name="onethird" unicode="&#x2153;" horiz-adv-x="802" 
d="M100 0l536 700h120l-536 -700h-120zM273 322h-107l43 270l-109 -49l17 103l112 54h103zM823 378l-13 -78l-82 -62c37 -16 70 -49 70 -101c0 -87 -69 -145 -168 -145c-57 0 -101 12 -134 35l17 97c28 -25 65 -38 110 -38c39 0 71 16 71 47c0 21 -21 39 -57 39
c-26 0 -46 -4 -61 -11l10 65l88 62h-125l16 90h258z" />
    <glyph glyph-name="twothirds" unicode="&#x2154;" horiz-adv-x="892" 
d="M132 575l17 106c31 18 68 27 110 27c76 0 136 -45 136 -120c0 -53 -29 -94 -97 -143l-47 -34h137l-14 -89h-287l12 76l117 90c53 40 70 60 70 85s-17 38 -50 38c-35 0 -69 -12 -104 -36zM913 378l-13 -78l-82 -62c37 -16 70 -49 70 -101c0 -87 -69 -145 -168 -145
c-57 0 -101 12 -134 35l17 97c28 -25 65 -38 110 -38c39 0 71 16 71 47c0 21 -21 39 -57 39c-26 0 -46 -4 -61 -11l10 65l88 62h-125l16 90h258zM189 0l536 700h120l-536 -700h-120z" />
    <glyph glyph-name="uni2155" unicode="&#x2155;" horiz-adv-x="785" 
d="M100 0l536 700h120l-536 -700h-120zM273 322h-107l43 270l-109 -49l17 103l112 54h103zM647 254c81 0 136 -48 136 -116c0 -92 -75 -146 -180 -146c-50 0 -91 10 -123 31l16 98c32 -23 68 -35 109 -35c46 0 69 16 69 49c0 24 -25 40 -70 40c-27 0 -57 -5 -90 -14l58 217
h223l-15 -90h-142l-9 -35c3 1 9 1 18 1z" />
    <glyph glyph-name="uni2156" unicode="&#x2156;" horiz-adv-x="874" 
d="M132 575l17 106c31 18 68 27 110 27c76 0 136 -45 136 -120c0 -53 -29 -94 -97 -143l-47 -34h137l-14 -89h-287l12 76l117 90c53 40 70 60 70 85s-17 38 -50 38c-35 0 -69 -12 -104 -36zM736 254c81 0 136 -48 136 -116c0 -92 -75 -146 -180 -146c-50 0 -91 10 -123 31
l16 98c32 -23 68 -35 109 -35c46 0 69 16 69 49c0 24 -25 40 -70 40c-27 0 -57 -5 -90 -14l58 217h223l-15 -90h-142l-9 -35c3 1 9 1 18 1zM189 0l536 700h120l-536 -700h-120z" />
    <glyph glyph-name="uni2157" unicode="&#x2157;" horiz-adv-x="823" 
d="M402 700l-13 -78l-82 -62c37 -16 70 -49 70 -101c0 -87 -69 -145 -168 -145c-57 0 -101 12 -134 35l17 97c28 -25 65 -38 110 -38c39 0 71 16 71 47c0 21 -21 39 -57 39c-26 0 -46 -4 -61 -11l10 65l88 62h-125l16 90h258zM685 254c81 0 136 -48 136 -116
c0 -92 -75 -146 -180 -146c-50 0 -91 10 -123 31l16 98c32 -23 68 -35 109 -35c46 0 69 16 69 49c0 24 -25 40 -70 40c-27 0 -57 -5 -90 -14l58 217h223l-15 -90h-142l-9 -35c3 1 9 1 18 1zM139 0l536 700h120l-536 -700h-120z" />
    <glyph glyph-name="uni2158" unicode="&#x2158;" horiz-adv-x="864" 
d="M352 322h-103l14 87h-188l13 75l217 216h108l-34 -209h52l-14 -82h-51zM292 584l-97 -93h81zM726 254c81 0 136 -48 136 -116c0 -92 -75 -146 -180 -146c-50 0 -91 10 -123 31l16 98c32 -23 68 -35 109 -35c46 0 69 16 69 49c0 24 -25 40 -70 40c-27 0 -57 -5 -90 -14
l58 217h223l-15 -90h-142l-9 -35c3 1 9 1 18 1zM179 0l536 700h120l-536 -700h-120z" />
    <glyph glyph-name="uni2159" unicode="&#x2159;" horiz-adv-x="789" 
d="M100 0l536 700h120l-536 -700h-120zM273 322h-107l43 270l-109 -49l17 103l112 54h103zM697 293c-47 0 -83 -25 -95 -68c18 19 44 29 79 29c65 0 110 -49 110 -113c0 -87 -65 -149 -161 -149c-93 0 -145 64 -145 152c0 64 18 120 55 169s89 73 154 73c43 0 76 -9 100 -28
l-15 -93c-23 19 -50 28 -82 28zM641 176c-23 0 -41 -9 -54 -28c-2 -5 -3 -12 -3 -22c1 -31 23 -48 48 -48c31 0 54 22 54 54c0 29 -15 44 -45 44z" />
    <glyph glyph-name="uni215A" unicode="&#x215a;" horiz-adv-x="823" 
d="M134 0l536 700h120l-536 -700h-120zM731 293c-47 0 -83 -25 -95 -68c18 19 44 29 79 29c65 0 110 -49 110 -113c0 -87 -65 -149 -161 -149c-93 0 -145 64 -145 152c0 64 18 120 55 169s89 73 154 73c43 0 76 -9 100 -28l-15 -93c-23 19 -50 28 -82 28zM675 176
c-23 0 -41 -9 -54 -28c-2 -5 -3 -12 -3 -22c1 -31 23 -48 48 -48c31 0 54 22 54 54c0 29 -15 44 -45 44zM243 576c81 0 136 -48 136 -116c0 -92 -75 -146 -180 -146c-50 0 -91 10 -123 31l16 98c32 -23 68 -35 109 -35c46 0 69 16 69 49c0 24 -25 40 -70 40
c-27 0 -57 -5 -90 -14l58 217h223l-15 -90h-142l-9 -35c3 1 9 1 18 1z" />
    <glyph glyph-name="oneeighth" unicode="&#x215b;" horiz-adv-x="808" 
d="M100 0l536 700h120l-536 -700h-120zM273 322h-107l43 270l-109 -49l17 103l112 54h103zM757 194c31 -13 53 -46 53 -82s-16 -65 -47 -87s-68 -33 -111 -33s-82 10 -115 29s-50 48 -50 85c0 45 32 86 80 101c-25 14 -38 37 -38 68c0 33 14 59 43 80s63 31 102 31
c37 0 70 -9 99 -28c30 -18 45 -44 45 -78c0 -36 -25 -70 -61 -86zM626 263c-5 -42 93 -47 90 2c5 45 -93 48 -90 -2zM649 79c29 0 56 16 56 43c0 23 -22 42 -53 42c-29 0 -57 -18 -57 -45c0 -21 23 -40 54 -40z" />
    <glyph glyph-name="threeeighths" unicode="&#x215c;" horiz-adv-x="846" 
d="M795 194c31 -13 53 -46 53 -82s-16 -65 -47 -87s-68 -33 -111 -33s-82 10 -115 29s-50 48 -50 85c0 45 32 86 80 101c-25 14 -38 37 -38 68c0 33 14 59 43 80s63 31 102 31c37 0 70 -9 99 -28c30 -18 45 -44 45 -78c0 -36 -25 -70 -61 -86zM664 263c-5 -42 93 -47 90 2
c5 45 -93 48 -90 -2zM687 79c29 0 56 16 56 43c0 23 -22 42 -53 42c-29 0 -57 -18 -57 -45c0 -21 23 -40 54 -40zM402 700l-13 -78l-82 -62c37 -16 70 -49 70 -101c0 -87 -69 -145 -168 -145c-57 0 -101 12 -134 35l17 97c28 -25 65 -38 110 -38c39 0 71 16 71 47
c0 21 -21 39 -57 39c-26 0 -46 -4 -61 -11l10 65l88 62h-125l16 90h258zM139 0l536 700h120l-536 -700h-120z" />
    <glyph glyph-name="fiveeighths" unicode="&#x215d;" horiz-adv-x="840" 
d="M789 194c31 -13 53 -46 53 -82s-16 -65 -47 -87s-68 -33 -111 -33s-82 10 -115 29s-50 48 -50 85c0 45 32 86 80 101c-25 14 -38 37 -38 68c0 33 14 59 43 80s63 31 102 31c37 0 70 -9 99 -28c30 -18 45 -44 45 -78c0 -36 -25 -70 -61 -86zM658 263c-5 -42 93 -47 90 2
c5 45 -93 48 -90 -2zM681 79c29 0 56 16 56 43c0 23 -22 42 -53 42c-29 0 -57 -18 -57 -45c0 -21 23 -40 54 -40zM243 576c81 0 136 -48 136 -116c0 -92 -75 -146 -180 -146c-50 0 -91 10 -123 31l16 98c32 -23 68 -35 109 -35c46 0 69 16 69 49c0 24 -25 40 -70 40
c-27 0 -57 -5 -90 -14l58 217h223l-15 -90h-142l-9 -35c3 1 9 1 18 1zM132 0l536 700h120l-536 -700h-120z" />
    <glyph glyph-name="seveneighths" unicode="&#x215e;" horiz-adv-x="798" 
d="M90 0l536 700h120l-536 -700h-120zM747 194c31 -13 53 -46 53 -82s-16 -65 -47 -87s-68 -33 -111 -33s-82 10 -115 29s-50 48 -50 85c0 45 32 86 80 101c-25 14 -38 37 -38 68c0 33 14 59 43 80s63 31 102 31c37 0 70 -9 99 -28c30 -18 45 -44 45 -78
c0 -36 -25 -70 -61 -86zM616 263c-5 -42 93 -47 90 2c5 45 -93 48 -90 -2zM639 79c29 0 56 16 56 43c0 23 -22 42 -53 42c-29 0 -57 -18 -57 -45c0 -21 23 -40 54 -40zM208 322h-118l194 288h-165l15 90h288l-14 -83z" />
    <glyph glyph-name="uni215F" unicode="&#x215f;" horiz-adv-x="493" 
d="M273 322h-107l43 270l-109 -49l17 103l112 54h103zM100 0l536 700h120l-536 -700h-120z" />
    <glyph glyph-name="arrowleft" unicode="&#x2190;" horiz-adv-x="700" 
d="M304 496h172l-165 -160h387l-22 -138h-397l114 -161h-162l-156 230z" />
    <glyph glyph-name="arrowup" unicode="&#x2191;" horiz-adv-x="569" 
d="M215 0l62 387l-183 -140l27 172l259 193l200 -193l-27 -162l-138 140l-62 -397h-138z" />
    <glyph glyph-name="arrowright" unicode="&#x2192;" horiz-adv-x="700" 
d="M108 336h397l-115 160h162l157 -229l-230 -230h-172l166 161h-387z" />
    <glyph glyph-name="arrowdown" unicode="&#x2193;" horiz-adv-x="569" 
d="M448 594l-62 -387l183 140l-27 -172l-259 -193l-200 193l27 162l138 -140l62 397h138z" />
    <glyph glyph-name="partialdiff" unicode="&#x2202;" horiz-adv-x="609" 
d="M304 -13c-70 0 -127 21 -172 63c-45 43 -67 98 -67 166c0 69 22 126 66 173c45 47 102 71 172 71c67 0 119 -26 156 -79c0 57 -15 106 -44 147s-72 61 -128 61c-49 0 -94 -13 -137 -39v121c44 29 97 43 159 43c89 0 160 -32 213 -96c53 -63 80 -149 80 -257
c1 -186 -83 -375 -298 -374zM317 106c73 0 128 59 136 155c-20 52 -65 85 -118 85c-34 0 -64 -12 -90 -35c-25 -23 -38 -54 -38 -92c0 -67 43 -113 110 -113z" />
    <glyph glyph-name="increment" unicode="&#x2206;" horiz-adv-x="781" 
d="M414 700h173l184 -700h-761zM468 475l-176 -317h252z" />
    <glyph glyph-name="product" unicode="&#x220f;" horiz-adv-x="785" 
d="M135 700h735l-19 -124h-125l-113 -713h-143l113 713h-199l-113 -713h-143l113 713h-125z" />
    <glyph glyph-name="summation" unicode="&#x2211;" horiz-adv-x="645" 
d="M155 700h545l-25 -158h-293l113 -157l-10 -69l-173 -158h312l-25 -158h-564l20 128l247 222l-167 223z" />
    <glyph glyph-name="minus" unicode="&#x2212;" horiz-adv-x="723" 
d="M717 251h-633l25 156h633z" />
    <glyph glyph-name="uni2215" unicode="&#x2215;" horiz-adv-x="552" 
d="M3 0l537 700h119l-536 -700h-120z" />
    <glyph glyph-name="uni2219" unicode="&#x2219;" horiz-adv-x="260" 
d="M249 356c21 -20 31 -45 31 -74s-10 -54 -31 -75c-20 -21 -45 -31 -74 -31s-54 10 -75 31c-20 21 -30 46 -30 75s10 54 31 74c41 41 107 41 148 0z" />
    <glyph glyph-name="radical" unicode="&#x221a;" horiz-adv-x="760" 
d="M415 174l299 526h144l-401 -700h-131l-112 384h-139l20 124h227z" />
    <glyph glyph-name="infinity" unicode="&#x221e;" horiz-adv-x="807" 
d="M461 399c43 52 110 97 190 97c52 0 95 -17 128 -50s50 -77 50 -132c0 -62 -21 -114 -63 -157c-41 -42 -94 -63 -157 -63c-68 0 -132 33 -171 97c-43 -52 -111 -97 -191 -97c-52 0 -95 17 -128 50s-49 77 -49 132c0 62 21 114 62 156c42 43 95 64 158 64
c68 0 132 -33 171 -97zM276 220c37 0 72 25 107 74c-19 51 -50 77 -92 77c-49 0 -81 -41 -81 -85c0 -43 27 -66 66 -66zM623 370c-37 0 -72 -25 -107 -74c19 -51 50 -77 92 -77c49 0 81 41 81 85c0 43 -27 66 -66 66z" />
    <glyph glyph-name="integral" unicode="&#x222b;" horiz-adv-x="521" 
d="M84 -206c-41 0 -75 7 -102 20v138c22 -8 44 -12 65 -12c56 0 93 39 104 107l74 452c9 60 34 111 75 152c41 42 97 63 168 63c39 0 73 -7 103 -20v-138c-22 8 -44 12 -65 12c-59 0 -94 -36 -106 -107l-73 -452c-9 -60 -34 -111 -75 -152c-41 -42 -97 -63 -168 -63z" />
    <glyph glyph-name="approxequal" unicode="&#x2248;" horiz-adv-x="614" 
d="M486 249c53 0 97 16 133 48l-25 -158c-25 -25 -79 -43 -132 -43c-35 0 -79 9 -133 27c-54 19 -99 28 -134 28c-52 0 -96 -16 -131 -47l25 157c24 25 79 44 131 44c35 0 79 -9 133 -28s98 -28 133 -28zM522 479c53 0 97 16 133 48l-25 -158c-25 -25 -79 -43 -132 -43
c-35 0 -79 9 -133 27c-54 19 -99 28 -134 28c-52 0 -96 -16 -131 -47l25 157c24 25 79 44 131 44c35 0 79 -9 132 -28c54 -19 99 -28 134 -28z" />
    <glyph glyph-name="notequal" unicode="&#x2260;" horiz-adv-x="614" 
d="M416 527l61 88h155l-61 -88h81l-25 -158h-164l-47 -69h200l-25 -158h-283l-68 -100h-155l68 100h-86l25 158h169l47 69h-205l25 158h288z" />
    <glyph glyph-name="lessequal" unicode="&#x2264;" horiz-adv-x="614" 
d="M291 432l334 -84l-28 -169l-495 185l24 151l553 185l-28 -184zM569 0h-524l25 158h524z" />
    <glyph glyph-name="greaterequal" unicode="&#x2265;" horiz-adv-x="614" 
d="M70 158h524l-25 -158h-524zM626 364l-553 -185l28 185l360 84l-334 84l28 168l495 -185z" />
    <glyph glyph-name="dotmath" unicode="&#x22c5;" horiz-adv-x="280" 
d="M276 317c-20 -21 -45 -31 -74 -31s-54 10 -75 31c-20 21 -30 46 -30 75s10 54 30 74c21 21 46 31 75 31s54 -10 74 -31c21 -20 31 -45 31 -74s-10 -54 -31 -75z" />
    <glyph glyph-name="lozenge" unicode="&#x25ca;" horiz-adv-x="568" 
d="M320 700h148l130 -350l-240 -350h-148l-130 350zM226 350l76 -229l153 229l-75 229z" />
    <glyph glyph-name="uniF401" unicode="&#xf401;" horiz-adv-x="10" 
d="M-259 912h209l-181 -152h-147z" />
    <glyph glyph-name="uniF639" unicode="&#xf639;" 
d="M402 714c88 0 157 -29 207 -88s75 -136 75 -231s-32 -194 -85 -274s-143 -135 -244 -135c-88 0 -157 29 -207 88s-75 136 -75 231s32 194 85 274s143 135 244 135zM360 149c32 0 59 14 82 42c45 56 61 131 61 203c0 88 -34 157 -106 157c-32 0 -59 -14 -82 -42
c-45 -56 -61 -131 -61 -203c0 -88 34 -157 106 -157z" />
    <glyph glyph-name="uniF63A" unicode="&#xf63a;" 
d="M435 226l-93 -73h257l-24 -153h-510l21 129l209 172c50 41 85 74 104 97s29 47 29 71c0 51 -35 81 -96 81c-65 0 -128 -23 -190 -68l29 179c56 35 122 53 198 53c67 0 124 -19 171 -58s71 -92 71 -159c0 -97 -53 -175 -176 -271z" />
    <glyph glyph-name="uniF63B" unicode="&#xf63b;" 
d="M671 700l-22 -133l-160 -128c34 -12 65 -34 94 -65s43 -73 43 -124c0 -79 -28 -143 -85 -192c-56 -48 -128 -72 -217 -72c-96 0 -175 22 -236 66l27 166c66 -49 134 -74 204 -74c69 0 129 36 129 103c0 47 -39 81 -111 81c-35 0 -69 -7 -101 -20l18 115l170 126h-238
l25 151h460z" />
    <glyph glyph-name="uniF63C" unicode="&#xf63c;" 
d="M640 700l-62 -394h97l-22 -140h-97l-26 -166h-175l26 166h-337l20 126l398 408h178zM403 306l28 176l-175 -176h147z" />
    <glyph glyph-name="uniF63D" unicode="&#xf63d;" 
d="M385 469c73 0 131 -21 175 -62c45 -41 67 -92 67 -154c0 -85 -30 -151 -89 -198s-136 -70 -230 -70c-91 0 -163 19 -218 57l25 166c60 -44 124 -66 192 -66c37 0 70 8 97 25s41 44 41 79c0 51 -45 83 -133 83c-47 0 -100 -8 -159 -25l103 396h394l-24 -153h-261l-20 -80
c13 1 27 2 40 2z" />
    <glyph glyph-name="uniF63E" unicode="&#xf63e;" 
d="M434 468c61 -2 109 -23 145 -62c37 -39 55 -89 55 -148c0 -79 -26 -144 -79 -195c-52 -51 -120 -77 -205 -77c-83 0 -147 26 -192 78s-67 119 -67 200c0 115 35 225 96 309c61 85 161 141 277 141c75 0 134 -17 177 -52l-25 -158c-41 34 -91 51 -148 51
c-89 0 -157 -57 -176 -140c39 35 86 53 142 53zM349 135c57 0 107 48 107 109c0 51 -31 87 -86 87c-41 0 -76 -20 -105 -59c-3 -11 -4 -23 -4 -36c0 -64 37 -101 88 -101z" />
    <glyph glyph-name="uniF63F" unicode="&#xf63f;" 
d="M166 543l24 157h511l-22 -140l-369 -560h-191l356 543h-309z" />
    <glyph glyph-name="uniF640" unicode="&#xf640;" 
d="M535 361c59 -25 103 -88 103 -155c0 -66 -28 -119 -84 -160c-55 -40 -121 -60 -198 -60c-49 0 -95 7 -138 20c-43 14 -79 37 -110 70c-30 33 -45 72 -45 119c0 43 14 81 41 116c28 35 65 59 110 72c-47 24 -76 75 -76 128c0 60 25 109 76 146c51 38 112 57 183 57
c41 0 80 -7 117 -20s69 -34 96 -65c27 -30 41 -66 41 -108c0 -71 -47 -132 -116 -160zM350 139c56 0 107 32 107 84c0 44 -42 79 -102 79c-56 0 -106 -33 -106 -85c0 -44 44 -78 101 -78zM477 497c0 40 -36 67 -84 67c-47 0 -87 -28 -87 -72c0 -37 36 -67 83 -67
s88 28 88 72z" />
    <glyph glyph-name="uniF641" unicode="&#xf641;" 
d="M314 232c-61 2 -109 23 -146 62c-36 39 -54 89 -54 148c0 79 26 144 78 195c53 51 121 77 206 77c83 0 147 -26 192 -78s67 -119 67 -200c0 -115 -35 -225 -96 -310c-61 -84 -161 -140 -277 -140c-75 0 -134 17 -177 52l25 158c41 -34 91 -51 148 -51
c89 0 157 57 176 140c-39 -35 -86 -53 -142 -53zM399 565c-57 0 -107 -48 -107 -109c0 -51 31 -87 86 -87c41 0 76 20 105 59c3 11 4 23 4 36c0 64 -37 101 -88 101z" />
    <glyph glyph-name="uniF643" unicode="&#xf643;" 
d="M371 521c78 0 143 -24 194 -72c51 -47 77 -109 77 -184s-27 -140 -81 -195s-122 -83 -203 -83c-78 0 -143 24 -194 71c-51 48 -76 110 -76 186c0 75 27 139 81 194s121 83 202 83zM357 136c32 0 59 13 82 38c23 26 34 58 34 95c0 63 -44 103 -101 103
c-32 0 -59 -13 -82 -39c-22 -25 -33 -56 -33 -93c0 -63 43 -104 100 -104z" />
    <glyph glyph-name="uniF644" unicode="&#xf644;" 
d="M181 425l177 83h156l-56 -356h156l-25 -152h-503l25 152h170l26 166l-154 -66z" />
    <glyph glyph-name="uniF645" unicode="&#xf645;" 
d="M385 152h211l-24 -152h-504l20 131l235 114c56 28 88 50 88 83c0 22 -20 33 -61 33c-61 0 -133 -22 -214 -67l26 164c72 41 133 63 226 63c60 0 110 -15 149 -45c39 -29 59 -69 59 -118c0 -96 -70 -165 -211 -206z" />
    <glyph glyph-name="uniF646" unicode="&#xf646;" 
d="M639 508l-22 -133l-160 -128c34 -12 65 -34 94 -65s43 -73 43 -124c0 -79 -28 -143 -85 -191c-56 -49 -128 -73 -217 -73c-96 0 -175 22 -236 66l27 166c66 -49 134 -74 204 -74c69 0 129 36 129 103c0 47 -39 81 -111 81c-35 0 -69 -7 -101 -20l18 115l170 126h-238
l25 151h460z" />
    <glyph glyph-name="uniF647" unicode="&#xf647;" 
d="M611 508l-59 -368h97l-22 -140h-97l-32 -200h-180l32 200h-332l20 126l395 382h178zM372 140l26 161l-169 -161h143z" />
    <glyph glyph-name="uniF648" unicode="&#xf648;" 
d="M355 277c73 0 131 -21 175 -62c45 -41 67 -92 67 -154c0 -85 -30 -150 -89 -197s-136 -71 -230 -71c-91 0 -163 19 -218 57l25 166c60 -44 124 -66 192 -66c37 0 70 9 97 26s41 43 41 78c0 51 -45 83 -133 83c-48 0 -101 -8 -159 -25l103 396h394l-24 -153h-261l-20 -80
c13 1 27 2 40 2z" />
    <glyph glyph-name="uniF649" unicode="&#xf649;" 
d="M434 468c61 -2 109 -23 145 -62c37 -39 55 -89 55 -148c0 -79 -26 -144 -79 -195c-52 -51 -120 -77 -205 -77c-83 0 -147 26 -192 78s-67 119 -67 200c0 115 35 225 96 309c61 85 161 141 277 141c75 0 134 -17 177 -52l-25 -158c-41 34 -91 51 -148 51
c-89 0 -157 -57 -176 -140c39 35 86 53 142 53zM349 135c57 0 107 48 107 109c0 51 -31 87 -86 87c-41 0 -76 -20 -105 -59c-3 -11 -4 -23 -4 -36c0 -64 37 -101 88 -101z" />
    <glyph glyph-name="uniF64A" unicode="&#xf64a;" 
d="M125 351l25 157h511l-22 -140l-371 -568h-191l357 551h-309z" />
    <glyph glyph-name="uniF64B" unicode="&#xf64b;" 
d="M535 361c59 -25 103 -88 103 -155c0 -66 -28 -119 -84 -160c-55 -40 -121 -60 -198 -60c-49 0 -95 7 -138 20c-43 14 -79 37 -110 70c-30 33 -45 72 -45 119c0 43 14 81 41 116c28 35 65 59 110 72c-47 24 -76 75 -76 128c0 60 25 109 76 146c51 38 112 57 183 57
c41 0 80 -7 117 -20s69 -34 96 -65c27 -30 41 -66 41 -108c0 -71 -47 -132 -116 -160zM350 139c56 0 107 32 107 84c0 44 -42 79 -102 79c-56 0 -106 -33 -106 -85c0 -44 44 -78 101 -78zM477 497c0 40 -36 67 -84 67c-47 0 -87 -28 -87 -72c0 -37 36 -67 83 -67
s88 28 88 72z" />
    <glyph glyph-name="uniF64C" unicode="&#xf64c;" 
d="M293 39c-61 2 -109 23 -146 62c-36 39 -54 89 -54 148c0 79 26 144 78 195c53 51 121 77 206 77c83 0 147 -26 192 -78s67 -119 67 -200c0 -115 -35 -225 -96 -309c-61 -85 -161 -141 -277 -141c-75 0 -134 17 -177 52l25 158c41 -34 91 -51 148 -51c89 0 157 57 176 140
c-39 -35 -86 -53 -142 -53zM378 372c-57 0 -107 -48 -107 -109c0 -51 31 -87 86 -87c41 0 76 20 105 59c3 11 4 23 4 36c0 64 -37 101 -88 101z" />
    <glyph glyph-name="uniF64E" unicode="&#xf64e;" horiz-adv-x="576" 
d="M37 177l10 62h67c0 15 1 27 2 34h-63l10 62h68c21 56 58 101 110 135c53 34 113 51 181 51c61 0 116 -13 164 -39l-21 -131c-45 21 -88 31 -130 31c-55 0 -97 -16 -127 -47h149l-10 -62h-171c-1 -12 -2 -21 -2 -26v-8h167l-10 -62h-133c28 -33 71 -50 129 -50
c45 0 83 7 114 21l-22 -135c-41 -17 -86 -26 -133 -26c-66 0 -124 17 -173 50s-80 80 -93 140h-83z" />
    <glyph glyph-name="uniF653" unicode="&#xf653;" horiz-adv-x="514" 
d="M303 -117h-120l17 110c-66 9 -118 26 -157 52l22 143c43 -32 123 -62 207 -62c39 0 59 9 59 26c0 9 -5 15 -21 22c-8 4 -15 7 -22 9c-12 5 -49 17 -65 22c-96 33 -136 69 -136 134c0 105 81 167 196 180l17 105h120l-18 -110c51 -9 95 -26 131 -51l-23 -140
c-57 41 -116 61 -179 61c-39 0 -59 -8 -59 -25c0 -16 14 -22 70 -39l36 -11c92 -29 134 -71 134 -144c0 -51 -18 -92 -55 -121s-82 -47 -137 -54z" />
    <glyph glyph-name="commaaccent" unicode="&#xf6c3;" horiz-adv-x="243" 
d="M19 -290l60 218h154l-84 -218h-130z" />
    <glyph glyph-name="cyrbreve" unicode="&#xf6d4;" horiz-adv-x="418" 
d="M415 727h123c-20 -111 -102 -176 -207 -176c-49 0 -90 13 -123 39c-33 27 -50 62 -50 107c0 7 1 17 2 30h121c0 -3 -1 -8 -1 -11c0 -32 21 -52 58 -52c41 0 70 24 77 63z" />
    <glyph glyph-name="uniF6DC" unicode="&#xf6dc;" 
d="M213 617l177 83h156l-87 -547h161l-24 -153h-508l24 153h170l57 357l-154 -66z" />
    <glyph glyph-name="uniF721" unicode="&#xf721;" horiz-adv-x="575" 
d="M263 144c0 -19 27 -34 87 -34c51 0 102 8 153 23l-19 -123c-46 -15 -98 -23 -157 -23c-44 0 -88 6 -140 22c-51 16 -87 53 -87 104c0 26 7 47 20 64h-38l9 62h454l-9 -62h-245c-19 -7 -28 -18 -28 -33zM321 521c48 0 92 -6 140 -23c48 -16 81 -54 81 -103
c0 -26 -7 -46 -20 -60h39l-10 -62h-454l10 62h245c18 6 27 17 27 32c0 19 -29 29 -88 29c-50 0 -97 -7 -141 -21l19 123c46 15 97 23 152 23z" />
    <glyph glyph-name="uniF722" unicode="&#xf722;" horiz-adv-x="629" 
d="M192 508h255c119 0 193 -67 193 -163c0 -59 -22 -107 -65 -144s-99 -55 -166 -55h-105l-6 -38h148l-8 -50h-148l-9 -58h-169l9 58h-91l8 50h91l6 38h-91l17 106h90zM321 252h67c52 0 94 24 94 73c0 36 -25 59 -72 59h-68z" />
    <glyph glyph-name="uniF725" unicode="&#xf725;" horiz-adv-x="574" 
d="M161 170l5 34h-75l14 90h75l8 46c19 117 105 181 254 181c54 0 101 -8 142 -24l-22 -139c-35 16 -70 24 -104 24c-68 0 -93 -23 -105 -84l-1 -4h161l-14 -90h-163l-6 -34c-7 -33 -30 -46 -34 -47h246l-19 -123h-464l19 123h26c33 0 52 16 57 47z" />
    <glyph glyph-name="uniF727" unicode="&#xf727;" horiz-adv-x="667" 
d="M118 116l10 62h149l5 34h-149l10 62h112l-134 234h175l85 -172l141 172h185l-212 -234h102l-10 -62h-136l-5 -34h136l-10 -62h-136l-18 -116h-169l18 116h-149z" />
    <glyph glyph-name="uniF730" unicode="&#xf730;" horiz-adv-x="630" 
d="M361 521c78 0 143 -24 194 -72c51 -47 77 -109 77 -184s-27 -140 -81 -195s-122 -83 -203 -83c-78 0 -143 24 -194 71c-51 48 -76 110 -76 186c0 75 27 139 81 194s121 83 202 83zM347 136c32 0 59 13 82 38c23 26 34 58 34 95c0 63 -44 103 -101 103
c-32 0 -59 -13 -82 -39c-22 -25 -33 -56 -33 -93c0 -63 43 -104 100 -104z" />
    <glyph glyph-name="uniF731" unicode="&#xf731;" horiz-adv-x="370" 
d="M81 425l177 83h156l-80 -508h-177l50 318l-154 -66z" />
    <glyph glyph-name="uniF732" unicode="&#xf732;" horiz-adv-x="580" 
d="M351 152h211l-24 -152h-504l20 131l235 114c56 28 88 50 88 83c0 22 -20 33 -61 33c-61 0 -133 -22 -214 -67l26 164c72 41 133 63 226 63c60 0 110 -15 149 -45c39 -29 59 -69 59 -118c0 -96 -70 -165 -211 -206z" />
    <glyph glyph-name="uniF733" unicode="&#xf733;" horiz-adv-x="576" 
d="M584 508l-22 -133l-160 -128c34 -12 65 -34 94 -65s43 -73 43 -124c0 -79 -28 -143 -85 -191c-56 -49 -128 -73 -217 -73c-96 0 -175 22 -236 66l27 166c66 -49 134 -74 204 -74c69 0 129 36 129 103c0 47 -39 81 -111 81c-35 0 -69 -7 -101 -20l18 115l170 126h-238
l25 151h460z" />
    <glyph glyph-name="uniF734" unicode="&#xf734;" 
d="M611 508l-59 -368h97l-22 -140h-97l-32 -200h-180l32 200h-332l20 126l395 382h178zM372 140l26 161l-169 -161h143z" />
    <glyph glyph-name="uniF735" unicode="&#xf735;" horiz-adv-x="563" 
d="M307 277c73 0 131 -21 175 -62c45 -41 67 -92 67 -154c0 -85 -30 -150 -89 -197s-136 -71 -230 -71c-91 0 -163 19 -218 57l25 166c60 -44 124 -66 192 -66c37 0 70 9 97 26s41 43 41 78c0 51 -45 83 -133 83c-47 0 -100 -8 -159 -25l103 396h394l-24 -153h-261l-20 -80
c13 1 27 2 40 2z" />
    <glyph glyph-name="uniF736" unicode="&#xf736;" horiz-adv-x="635" 
d="M438 468c61 -2 109 -23 145 -62c37 -39 55 -89 55 -148c0 -79 -26 -144 -79 -195c-52 -51 -120 -77 -205 -77c-83 0 -147 26 -192 78s-67 119 -67 200c0 115 35 225 96 309c61 85 161 141 277 141c75 0 134 -17 177 -52l-25 -158c-41 34 -91 51 -148 51
c-89 0 -157 -57 -176 -140c39 35 86 53 142 53zM353 135c57 0 107 48 107 109c0 51 -31 87 -86 87c-41 0 -76 -20 -105 -59c-3 -11 -4 -23 -4 -36c0 -64 37 -101 88 -101z" />
    <glyph glyph-name="uniF737" unicode="&#xf737;" horiz-adv-x="579" 
d="M86 351l25 157h511l-22 -140l-371 -568h-191l357 551h-309z" />
    <glyph glyph-name="uniF738" unicode="&#xf738;" horiz-adv-x="636" 
d="M529 361c59 -25 103 -88 103 -155c0 -66 -28 -119 -84 -160c-55 -40 -121 -60 -198 -60c-49 0 -95 7 -138 20c-43 14 -79 37 -110 70c-30 33 -45 72 -45 119c0 43 14 81 41 116c28 35 65 59 110 72c-47 24 -76 75 -76 128c0 60 25 109 76 146c51 38 112 57 183 57
c41 0 80 -7 117 -20s69 -34 96 -65c27 -30 41 -66 41 -108c0 -71 -47 -132 -116 -160zM344 139c56 0 107 32 107 84c0 44 -42 79 -102 79c-56 0 -106 -33 -106 -85c0 -44 44 -78 101 -78zM471 497c0 40 -36 67 -84 67c-47 0 -87 -28 -87 -72c0 -37 36 -67 83 -67
s88 28 88 72z" />
    <glyph glyph-name="uniF739" unicode="&#xf739;" horiz-adv-x="635" 
d="M283 39c-61 2 -109 23 -146 62c-36 39 -54 89 -54 148c0 79 26 144 78 195c53 51 121 77 206 77c83 0 147 -26 192 -78s67 -119 67 -200c0 -115 -35 -225 -96 -309c-61 -85 -161 -141 -277 -141c-75 0 -134 17 -177 52l25 158c41 -34 91 -51 148 -51c89 0 157 57 176 140
c-39 -35 -86 -53 -142 -53zM368 372c-57 0 -107 -48 -107 -109c0 -51 31 -87 86 -87c41 0 76 20 105 59c3 11 4 23 4 36c0 64 -37 101 -88 101z" />
    <glyph glyph-name="adieresis.alt" horiz-adv-x="654" 
d="M485 452l9 56h177l-80 -508h-177l9 55c-42 -45 -93 -68 -154 -68s-110 22 -148 67c-37 45 -56 101 -56 168c0 50 10 97 29 142c39 89 126 157 235 157c66 0 118 -23 156 -69zM444 191l20 126c-17 31 -59 56 -103 56c-32 0 -59 -13 -82 -39c-22 -25 -33 -57 -33 -94
c0 -64 39 -103 96 -103c43 0 77 18 102 54zM593 714c35 -33 35 -88 0 -123c-33 -33 -88 -33 -123 0c-33 35 -33 90 0 123c35 33 90 33 123 0zM305 566c-47 0 -87 39 -87 87s39 86 87 86c49 0 87 -38 87 -86s-38 -87 -87 -87z" />
    <glyph glyph-name="cyrbreve.cap" horiz-adv-x="630" 
d="M462 912h123c-20 -111 -102 -176 -207 -176c-49 0 -90 13 -123 39c-33 27 -50 62 -50 107c0 7 1 17 2 30h121c0 -3 -1 -8 -1 -11c0 -32 21 -52 58 -52c41 0 70 24 77 63z" />
    <glyph glyph-name="idieresis_idieresis" horiz-adv-x="552" 
d="M490 0h-177l80 508h177zM215 0h-177l80 508h177zM116 566c-47 0 -87 39 -87 87s39 86 87 86c49 0 87 -38 87 -86s-38 -87 -87 -87zM679 591c-33 -33 -88 -33 -123 0c-33 35 -33 90 0 123c35 33 90 33 123 0c35 -33 35 -88 0 -123zM428 591c-33 -33 -88 -33 -123 0
c-33 35 -33 90 0 123c35 33 90 33 123 0c35 -33 35 -88 0 -123z" />
    <glyph glyph-name="peseta.mono" 
d="M141 544l25 156h300c128 0 212 -61 229 -156h84l-20 -131h-79c-39 -93 -137 -152 -260 -152h-143l-41 -261h-180l65 413h-89l20 131h89zM441 548h-119l-22 -139h118c53 0 98 26 98 79c0 40 -25 60 -75 60z" />
    <glyph glyph-name="pesolow" horiz-adv-x="665" 
d="M710 365l-14 -90h-85c-33 -84 -127 -136 -235 -136h-89l-22 -139h-177l43 275h-79l14 90h79l23 143h275c109 0 173 -60 181 -143h86zM307 263h65c43 0 80 24 80 68c0 29 -23 47 -62 47h-65z" />
    <glyph glyph-name="acircumflex.alt" horiz-adv-x="654" 
d="M485 452l9 56h177l-80 -508h-177l9 55c-42 -45 -93 -68 -154 -68s-110 22 -148 67c-37 45 -56 101 -56 168c0 50 10 97 29 142c39 89 126 157 235 157c66 0 118 -23 156 -69zM444 191l20 126c-17 31 -59 56 -103 56c-32 0 -59 -13 -82 -39c-22 -25 -33 -57 -33 -94
c0 -64 39 -103 96 -103c43 0 77 18 102 54zM512 728l100 -152h-143l-50 70l-71 -70h-154l151 152h167z" />
    <glyph glyph-name="liralow" horiz-adv-x="574" 
d="M86 172l10 62h75l6 34h-76l10 62h75l2 10c19 117 105 181 254 181c54 0 101 -8 142 -24l-22 -139c-35 16 -70 24 -104 24c-51 0 -84 -17 -97 -52h143l-10 -62h-147l-6 -34h148l-10 -62h-149c-7 -33 -30 -48 -34 -49h246l-19 -123h-464l19 123h26c33 0 52 16 57 49h-75z
" />
    <glyph glyph-name="atilde.alt" horiz-adv-x="654" 
d="M485 452l9 56h177l-80 -508h-177l9 55c-42 -45 -93 -68 -154 -68s-110 22 -148 67c-37 45 -56 101 -56 168c0 50 10 97 29 142c39 89 126 157 235 157c66 0 118 -23 156 -69zM444 191l20 126c-17 31 -59 56 -103 56c-32 0 -59 -13 -82 -39c-22 -25 -33 -57 -33 -94
c0 -64 39 -103 96 -103c43 0 77 18 102 54zM314 576h-89c7 43 24 80 52 110c28 31 61 46 98 46c21 0 44 -7 67 -20c24 -13 43 -19 57 -19c23 0 40 12 50 35h89c-7 -39 -24 -75 -53 -108c-29 -32 -61 -48 -97 -48c-23 0 -46 7 -69 20s-42 20 -55 20c-24 0 -41 -12 -50 -36z
" />
    <glyph glyph-name="uniF725.mono" 
d="M186 170l5 34h-75l14 90h75l8 46c19 117 105 181 254 181c54 0 101 -8 142 -24l-22 -139c-35 16 -70 24 -104 24c-68 0 -93 -23 -105 -84l-1 -4h161l-14 -90h-163l-6 -34c-7 -33 -30 -46 -34 -47h246l-19 -123h-464l19 123h26c33 0 52 16 57 47z" />
    <glyph glyph-name="uni20B6.mono" 
d="M320 209h234l-20 -124h-234l-13 -85h-180l13 85h-116l20 124h116l8 52h-116l19 124h116l50 315h300c144 0 233 -79 233 -195c0 -72 -26 -131 -79 -176c-52 -45 -119 -68 -200 -68h-143zM347 385h105c63 0 115 30 115 91c0 45 -31 72 -88 72h-106z" />
    <glyph glyph-name="liralow.mono" 
d="M111 172l10 62h75l6 34h-76l10 62h75l2 10c19 117 105 181 254 181c54 0 101 -8 142 -24l-22 -139c-35 16 -70 24 -104 24c-51 0 -84 -17 -97 -52h143l-10 -62h-147l-6 -34h148l-10 -62h-149c-7 -33 -30 -48 -34 -49h246l-19 -123h-464l19 123h26c33 0 52 16 57 49h-75z
" />
    <glyph glyph-name="franclow.mono" 
d="M634 508l-22 -138h-267l-12 -79h195l-21 -129h-195l-8 -54h104l-8 -50h-104l-9 -58h-169l9 58h-64l8 50h64l63 400h436z" />
    <glyph glyph-name="franclow" horiz-adv-x="538" 
d="M591 508l-22 -138h-267l-12 -79h195l-21 -129h-195l-8 -54h104l-8 -50h-104l-9 -58h-169l9 58h-64l8 50h64l63 400h436z" />
    <glyph glyph-name="lira.mono" 
d="M202 348h-87l13 82h87l6 39c12 76 45 136 100 179c55 44 123 66 204 66c61 0 112 -10 154 -31l-28 -173c-43 20 -85 30 -124 30c-77 0 -120 -35 -131 -104l-1 -6h200l-13 -82h-200l-6 -39h199l-13 -82h-199l-1 -6c-5 -28 -21 -51 -32 -58l-9 -5h295l-25 -158h-531l25 158
h30c38 0 60 21 67 64l1 5h-88l13 82h88z" />
    <glyph glyph-name="Idieresis_Idieresis" horiz-adv-x="624" 
d="M482 700h180l-111 -700h-180zM251 0h-180l111 700h180zM181 750c-47 0 -87 39 -87 87s39 86 87 86c49 0 87 -38 87 -86s-38 -87 -87 -87zM769 775c-33 -33 -88 -33 -123 0c-33 35 -33 90 0 123c35 33 90 33 123 0c35 -33 35 -88 0 -123zM505 775c-33 -33 -88 -33 -123 0
c-33 35 -33 90 0 123c35 33 90 33 123 0c35 -33 35 -88 0 -123z" />
    <glyph glyph-name="franc.mono" 
d="M286 0h-180l14 85h-96l19 124h96l78 491h532l-25 -158h-352l-16 -102h263l-24 -152h-263l-13 -79h137l-19 -124h-137z" />
    <glyph glyph-name="pesolow.mono" 
d="M710 365l-14 -90h-85c-33 -84 -127 -136 -235 -136h-89l-22 -139h-177l43 275h-79l14 90h79l23 143h275c109 0 173 -60 181 -143h86zM307 263h65c43 0 80 24 80 68c0 29 -23 47 -62 47h-65z" />
    <glyph glyph-name="circumflex.cap" horiz-adv-x="512" 
d="M481 912l100 -152h-143l-50 70l-71 -70h-154l151 152h167z" />
    <glyph glyph-name="dieresis.cap" horiz-adv-x="491" 
d="M551 898c35 -33 35 -88 0 -123c-33 -33 -88 -33 -123 0c-33 35 -33 90 0 123c35 33 90 33 123 0zM263 750c-47 0 -87 39 -87 87s39 86 87 86c49 0 87 -38 87 -86s-38 -87 -87 -87z" />
    <glyph glyph-name="macron.cap" horiz-adv-x="548" 
d="M596 776h-414l19 116h414z" />
    <glyph glyph-name="acute.cap" horiz-adv-x="428" 
d="M318 912h209l-181 -152h-147z" />
    <glyph glyph-name="grave.cap" horiz-adv-x="500" 
d="M500 760h-147l-133 152h209z" />
    <glyph glyph-name="aring.alt" horiz-adv-x="654" 
d="M485 452l9 56h177l-80 -508h-177l9 55c-42 -45 -93 -68 -154 -68s-110 22 -148 67c-37 45 -56 101 -56 168c0 50 10 97 29 142c39 89 126 157 235 157c66 0 118 -23 156 -69zM444 191l20 126c-17 31 -59 56 -103 56c-32 0 -59 -13 -82 -39c-22 -25 -33 -57 -33 -94
c0 -64 39 -103 96 -103c43 0 77 18 102 54zM414 758c29 0 53 -10 74 -31s31 -46 31 -75c0 -57 -48 -105 -105 -105s-106 48 -106 105c0 59 47 106 106 106zM458 652c3 58 -91 58 -89 0c0 -24 21 -44 45 -44s44 20 44 44z" />
    <glyph glyph-name="agrave.alt" horiz-adv-x="654" 
d="M485 452l9 56h177l-80 -508h-177l9 55c-42 -45 -93 -68 -154 -68s-110 22 -148 67c-37 45 -56 101 -56 168c0 50 10 97 29 142c39 89 126 157 235 157c66 0 118 -23 156 -69zM444 191l20 126c-17 31 -59 56 -103 56c-32 0 -59 -13 -82 -39c-22 -25 -33 -57 -33 -94
c0 -64 39 -103 96 -103c43 0 77 18 102 54zM522 576h-147l-133 152h209z" />
    <glyph glyph-name="caron.cap" horiz-adv-x="544" 
d="M307 760l-100 152h143l50 -70l71 70h154l-151 -152h-167z" />
    <glyph glyph-name="dotaccent.cap" horiz-adv-x="385" 
d="M306 750c-47 0 -87 39 -87 87s39 86 87 86c49 0 87 -38 87 -86s-38 -87 -87 -87z" />
    <glyph glyph-name="breve.cap" horiz-adv-x="510" 
d="M461 916h112c-20 -108 -97 -171 -194 -171c-92 0 -163 54 -163 145c0 5 1 14 2 26h112v-6c0 -37 20 -61 56 -61c37 0 66 27 75 67z" />
    <glyph glyph-name="hungarumlaut.cap" horiz-adv-x="669" 
d="M556 912h212l-181 -152h-150zM284 912h212l-181 -152h-150z" />
    <glyph glyph-name="uniF722.mono" 
d="M202 508h255c119 0 193 -67 193 -163c0 -59 -22 -107 -65 -144s-99 -55 -166 -55h-105l-6 -38h148l-8 -50h-148l-9 -58h-169l9 58h-91l8 50h91l6 38h-91l17 106h90zM331 252h67c52 0 94 24 94 73c0 36 -25 59 -72 59h-68z" />
    <glyph glyph-name="uniF727.mono" 
d="M108 116l10 62h149l5 34h-149l10 62h112l-134 234h175l85 -172l141 172h185l-212 -234h102l-10 -62h-136l-5 -34h136l-10 -62h-136l-18 -116h-169l18 116h-149z" />
    <glyph glyph-name="uniF653.mono" 
d="M365 -117h-120l17 110c-66 9 -118 26 -157 52l22 143c43 -32 123 -62 207 -62c39 0 59 9 59 26c0 9 -5 15 -21 22c-8 4 -15 7 -22 9c-12 5 -49 17 -65 22c-96 33 -136 69 -136 134c0 105 81 167 196 180l17 105h120l-18 -110c51 -9 95 -26 131 -51l-23 -140
c-57 41 -116 61 -179 61c-39 0 -59 -8 -59 -25c0 -16 14 -22 70 -39l36 -11c92 -29 134 -71 134 -144c0 -51 -18 -92 -55 -121s-82 -47 -137 -54z" />
    <glyph glyph-name="uniF721.mono" 
d="M306 144c0 -19 27 -34 87 -34c51 0 102 8 153 23l-19 -123c-46 -15 -98 -23 -157 -23c-44 0 -88 6 -140 22c-51 16 -87 53 -87 104c0 26 7 47 20 64h-38l9 62h454l-9 -62h-245c-19 -7 -28 -18 -28 -33zM364 521c48 0 92 -6 140 -23c48 -16 81 -54 81 -103
c0 -26 -7 -46 -20 -60h39l-10 -62h-454l10 62h245c18 6 27 17 27 32c0 19 -29 29 -88 29c-50 0 -97 -7 -141 -21l19 123c46 15 97 23 152 23z" />
    <glyph glyph-name="uni20B4.mono" 
d="M420 144c27 0 58 3 92 9c34 7 62 15 83 25l-26 -162c-56 -20 -116 -30 -179 -30c-59 0 -114 9 -174 32c-59 23 -99 72 -99 139c0 41 13 75 40 102h-54l13 85h522l-13 -85h-254c-37 -15 -56 -36 -56 -64c0 -34 35 -51 105 -51zM377 714c59 0 117 -11 170 -35
c55 -24 91 -71 91 -134c0 -28 -7 -52 -21 -73h41l-13 -85h-522l13 85h282c15 9 23 23 23 42c0 30 -33 45 -100 45c-59 0 -112 -9 -157 -26l25 158c41 15 97 23 168 23z" />
    <glyph glyph-name="amacron.alt" horiz-adv-x="654" 
d="M485 452l9 56h177l-80 -508h-177l9 55c-42 -45 -93 -68 -154 -68s-110 22 -148 67c-37 45 -56 101 -56 168c0 50 10 97 29 142c39 89 126 157 235 157c66 0 118 -23 156 -69zM444 191l20 126c-17 31 -59 56 -103 56c-32 0 -59 -13 -82 -39c-22 -25 -33 -57 -33 -94
c0 -64 39 -103 96 -103c43 0 77 18 102 54zM622 592h-414l19 116h414z" />
    <glyph glyph-name="g.alt" horiz-adv-x="592" 
d="M322 521c61 0 113 -16 155 -49l150 49l-14 -139l-65 -23c3 -17 4 -31 4 -41c0 -43 -13 -84 -40 -123c36 -43 54 -92 54 -147c0 -70 -27 -130 -80 -179c-53 -50 -120 -75 -200 -75c-79 0 -144 24 -195 71s-78 110 -79 189h170c-1 -1 -1 -4 -1 -7c0 -64 45 -104 108 -104
s108 40 108 103c0 23 -8 43 -23 58c-19 -5 -40 -7 -63 -7c-67 0 -122 18 -165 55s-64 86 -64 149c0 62 23 114 68 156c45 43 103 64 172 64zM312 232c44 0 81 39 81 87c0 41 -31 67 -71 67c-45 0 -80 -38 -80 -86c0 -41 30 -68 70 -68z" />
    <glyph glyph-name="ring.cap" horiz-adv-x="517" 
d="M470 837c0 -57 -48 -105 -105 -105s-106 48 -106 105c0 29 10 53 31 74s46 32 75 32s53 -10 74 -31s31 -46 31 -75zM409 837c3 58 -91 58 -89 0c0 -24 21 -44 45 -44s44 20 44 44z" />
    <glyph glyph-name="Q.alt01" horiz-adv-x="838" 
d="M483 714c107 0 192 -31 255 -94c64 -63 96 -144 96 -245c0 -97 -30 -181 -91 -254l74 -121h-177l-17 27c-53 -27 -111 -41 -176 -41c-105 0 -190 31 -255 94c-64 63 -96 145 -96 245c0 110 37 202 112 277s166 112 275 112zM649 375c0 49 -16 90 -47 123s-72 50 -124 50
c-57 0 -105 -21 -142 -64s-55 -96 -55 -159c0 -49 15 -90 46 -123s73 -50 125 -50c31 0 59 6 84 19l-108 179h177l33 -54c7 25 11 52 11 79z" />
    <glyph glyph-name="Q.alt02" horiz-adv-x="838" 
d="M483 714c107 0 192 -31 255 -94c64 -63 96 -144 96 -245c0 -107 -36 -197 -107 -271s-159 -113 -264 -117c22 -4 65 -17 129 -40c65 -23 114 -35 149 -35c19 0 36 3 49 10l-23 -147c-13 -5 -32 -8 -59 -8c-43 0 -100 13 -173 40s-128 40 -166 40c-63 0 -114 -13 -153 -38
l24 158c30 15 66 25 107 31c-77 19 -139 57 -184 115c-45 59 -67 129 -67 212c0 110 37 202 112 277s166 112 275 112zM452 152c58 0 105 21 142 63c37 43 55 96 55 160c0 49 -16 90 -47 123s-72 50 -124 50c-57 0 -105 -21 -142 -64s-55 -96 -55 -159c0 -49 15 -90 46 -123
s73 -50 125 -50z" />
    <glyph glyph-name="aogonek.alt" horiz-adv-x="654" 
d="M484 0h-70l9 55c-42 -45 -93 -68 -154 -68s-110 22 -148 67c-37 45 -56 101 -56 168c0 50 10 97 29 142c39 89 126 157 235 157c66 0 118 -23 156 -69l9 56h177l-80 -508c-29 -25 -44 -48 -44 -70c0 -21 13 -31 40 -31c13 0 25 2 36 7l-17 -103c-16 -6 -38 -9 -66 -9
c-77 0 -121 36 -121 89c0 42 22 81 65 117zM444 191l20 126c-17 31 -59 56 -103 56c-32 0 -59 -13 -82 -39c-22 -25 -33 -57 -33 -94c0 -64 39 -103 96 -103c43 0 77 18 102 54z" />
    <glyph glyph-name="abreve.alt" horiz-adv-x="654" 
d="M485 452l9 56h177l-80 -508h-177l9 55c-42 -45 -93 -68 -154 -68s-110 22 -148 67c-37 45 -56 101 -56 168c0 50 10 97 29 142c39 89 126 157 235 157c66 0 118 -23 156 -69zM444 191l20 126c-17 31 -59 56 -103 56c-32 0 -59 -13 -82 -39c-22 -25 -33 -57 -33 -94
c0 -64 39 -103 96 -103c43 0 77 18 102 54zM499 732h112c-20 -108 -97 -171 -194 -171c-92 0 -163 54 -163 145c0 5 1 14 2 26h112v-6c0 -37 20 -61 56 -61c37 0 66 27 75 67z" />
    <glyph glyph-name="gcircumflex.alt" horiz-adv-x="592" 
d="M322 521c61 0 113 -16 155 -49l150 49l-14 -139l-65 -23c3 -17 4 -31 4 -41c0 -43 -13 -84 -40 -123c36 -43 54 -92 54 -147c0 -70 -27 -130 -80 -179c-53 -50 -120 -75 -200 -75c-79 0 -144 24 -195 71s-78 110 -79 189h170c-1 -1 -1 -4 -1 -7c0 -64 45 -104 108 -104
s108 40 108 103c0 23 -8 43 -23 58c-19 -5 -40 -7 -63 -7c-67 0 -122 18 -165 55s-64 86 -64 149c0 62 23 114 68 156c45 43 103 64 172 64zM312 232c44 0 81 39 81 87c0 41 -31 67 -71 67c-45 0 -80 -38 -80 -86c0 -41 30 -68 70 -68zM489 728l100 -152h-143l-50 70
l-71 -70h-154l151 152h167z" />
    <glyph glyph-name="gcommaaccent.alt" horiz-adv-x="592" 
d="M322 521c61 0 113 -16 155 -49l150 49l-14 -139l-65 -23c3 -17 4 -31 4 -41c0 -43 -13 -84 -40 -123c36 -43 54 -92 54 -147c0 -70 -27 -130 -80 -179c-53 -50 -120 -75 -200 -75c-79 0 -144 24 -195 71s-78 110 -79 189h170c-1 -1 -1 -4 -1 -7c0 -64 45 -104 108 -104
s108 40 108 103c0 23 -8 43 -23 58c-19 -5 -40 -7 -63 -7c-67 0 -122 18 -165 55s-64 86 -64 149c0 62 23 114 68 156c45 43 103 64 172 64zM312 232c44 0 81 39 81 87c0 41 -31 67 -71 67c-45 0 -80 -38 -80 -86c0 -41 30 -68 70 -68zM480 800l-60 -218h-154l84 218h130z
" />
    <glyph glyph-name="gdotaccent.alt" horiz-adv-x="592" 
d="M322 521c61 0 113 -16 155 -49l150 49l-14 -139l-65 -23c3 -17 4 -31 4 -41c0 -43 -13 -84 -40 -123c36 -43 54 -92 54 -147c0 -70 -27 -130 -80 -179c-53 -50 -120 -75 -200 -75c-79 0 -144 24 -195 71s-78 110 -79 189h170c-1 -1 -1 -4 -1 -7c0 -64 45 -104 108 -104
s108 40 108 103c0 23 -8 43 -23 58c-19 -5 -40 -7 -63 -7c-67 0 -122 18 -165 55s-64 86 -64 149c0 62 23 114 68 156c45 43 103 64 172 64zM312 232c44 0 81 39 81 87c0 41 -31 67 -71 67c-45 0 -80 -38 -80 -86c0 -41 30 -68 70 -68zM373 566c-47 0 -87 39 -87 87
s39 86 87 86c49 0 87 -38 87 -86s-38 -87 -87 -87z" />
    <glyph glyph-name="aacute.alt" horiz-adv-x="654" 
d="M485 452l9 56h177l-80 -508h-177l9 55c-42 -45 -93 -68 -154 -68s-110 22 -148 67c-37 45 -56 101 -56 168c0 50 10 97 29 142c39 89 126 157 235 157c66 0 118 -23 156 -69zM444 191l20 126c-17 31 -59 56 -103 56c-32 0 -59 -13 -82 -39c-22 -25 -33 -57 -33 -94
c0 -64 39 -103 96 -103c43 0 77 18 102 54zM413 728h209l-181 -152h-147z" />
    <glyph glyph-name="t_t" horiz-adv-x="836" 
d="M877 508l-23 -142h-129l-22 -141c-3 -23 -5 -38 -5 -45c0 -27 16 -40 49 -40c25 0 50 7 75 21l-22 -141c-36 -22 -80 -33 -131 -33c-89 0 -154 54 -154 147c0 14 1 29 4 45l29 187h-210l-22 -141c-3 -23 -5 -38 -5 -45c0 -27 16 -40 49 -40c25 0 50 7 75 21l-22 -141
c-36 -22 -80 -33 -131 -33c-88 0 -154 54 -154 147c0 14 1 29 4 45l29 187h-89l23 142h89l21 130h177l-21 -130h210l21 130h177l-21 -130h129z" />
    <glyph glyph-name="tilde.cap" horiz-adv-x="507" 
d="M280 761h-89c7 43 24 79 52 109c29 31 62 46 99 46c21 0 44 -7 67 -20s42 -19 56 -19c23 0 40 12 50 35h89c-7 -39 -24 -75 -53 -107s-61 -48 -97 -48c-23 0 -46 7 -69 20s-42 20 -55 20c-24 0 -41 -12 -50 -36z" />
    <glyph glyph-name="Euro.mono" 
d="M143 382h-58l16 97h67c56 145 188 235 367 235c59 0 112 -11 159 -34l-31 -165c-40 23 -85 34 -135 34c-72 0 -126 -23 -161 -70h169l-16 -97h-193c-3 -13 -5 -30 -5 -50h190l-15 -97h-158c27 -57 81 -85 162 -85c63 0 114 15 153 45l-28 -179c-42 -20 -95 -30 -158 -30
c-81 0 -150 23 -209 68c-58 45 -95 106 -112 181h-85l15 97h62c1 23 3 39 4 50z" />
    <glyph glyph-name="sterling.mono" 
d="M103 276l21 131h87l14 75c28 151 133 232 296 232c63 0 116 -10 158 -31l-28 -173c-43 20 -84 30 -121 30c-79 0 -123 -35 -134 -104l-5 -29h200l-21 -131h-200l-8 -55c-5 -28 -21 -51 -32 -58l-9 -5h295l-25 -158h-531l25 158h30c38 0 60 21 67 64l8 54h-87z" />
    <glyph glyph-name="f_f_t" horiz-adv-x="1220" 
d="M1261 508l-23 -142h-129l-22 -141c-3 -23 -5 -38 -5 -45c0 -27 16 -40 49 -40c25 0 50 7 75 21l-22 -141c-36 -22 -80 -33 -131 -33c-89 0 -154 54 -154 147c0 14 1 29 4 45l29 187h-209l-58 -366h-177l58 366h-211l-58 -366h-177l58 366h-85l23 142h85l2 14
c16 119 89 192 216 192c51 0 96 -8 135 -24l-22 -137c-30 12 -57 18 -82 18c-44 0 -66 -18 -73 -63h212l2 14c16 119 89 192 216 192c51 0 96 -8 135 -24l-22 -137c-30 12 -57 18 -82 18c-44 0 -66 -18 -73 -63h210l21 130h177l-21 -130h129z" />
    <glyph glyph-name="t.alt" horiz-adv-x="398" 
d="M439 508l-23 -142h-129l-22 -141c-3 -23 -5 -38 -5 -45c0 -27 16 -40 49 -40c25 0 50 7 75 21l-22 -141c-36 -22 -80 -33 -131 -33c-89 0 -154 54 -154 147c0 14 1 29 4 45l73 459h177l-21 -130h129z" />
    <glyph glyph-name="f.alt01" horiz-adv-x="405" 
d="M308 508h148l-23 -142h-148l-57 -366h-177l84 535c17 105 91 179 215 179c51 0 96 -8 135 -24l-22 -137c-28 12 -56 18 -84 18c-41 0 -64 -18 -70 -54z" />
    <glyph glyph-name="f_j" horiz-adv-x="736" 
d="M361 508h388l-83 -524c-20 -125 -102 -190 -231 -190c-53 0 -93 7 -119 22l23 147c24 -13 48 -19 73 -19c51 0 74 19 85 87l52 335h-210l-58 -366h-177l58 366h-85l23 142h85l2 14c16 119 89 192 216 192c51 0 96 -8 135 -24l-22 -137c-30 12 -57 18 -82 18
c-44 0 -66 -18 -73 -63zM682 758c57 0 102 -45 102 -102s-45 -102 -102 -102c-56 0 -101 45 -101 102s45 102 101 102z" />
    <glyph glyph-name="T_h" horiz-adv-x="1135" 
d="M1088 0h-177l40 255c3 17 4 31 4 42c0 45 -27 66 -63 66c-32 0 -61 -14 -88 -43l-51 -320h-177l86 542h-159l-85 -542h-180l85 542h-210l25 158h726l-40 -250c50 47 103 71 160 71c96 0 154 -68 154 -169c0 -23 -2 -47 -6 -71z" />
    <glyph glyph-name="uni043F_uni0438" horiz-adv-x="977" 
d="M61 0l80 508h507l-37 -239l217 239h166l-80 -508h-177l37 238l-217 -238h-166l57 366h-153l-57 -366h-177z" />
    <glyph glyph-name="onequarter.mono" horiz-adv-x="855" 
d="M135 0l536 700h120l-536 -700h-120zM308 322h-107l43 270l-109 -49l17 103l112 54h103zM746 0h-103l14 87h-188l13 75l217 216h108l-34 -209h52l-14 -82h-51zM686 262l-97 -93h81z" />
    </font>
</defs>
</svg>
