<?xml version="1.0" standalone="no"?>
<!DOCTYPE svg PUBLIC "-//W3C//DTD SVG 1.1//EN" "http://www.w3.org/Graphics/SVG/1.1/DTD/svg11.dtd" >
<svg xmlns="http://www.w3.org/2000/svg" xmlns:xlink="http://www.w3.org/1999/xlink" version="1.1">
<metadata>
Created by FontForge 20170910 at Wed Dec 11 00:50:19 2013
 By Jimmy Wärting
Copyright (c) 2012 by Vyacheslav Kirilenko, Gayane Bagdasaryan. All rights reserved.
</metadata>
<defs>
<font id="Geometria-LightItalic" horiz-adv-x="628" >
  <font-face 
    font-family="Geometria"
    font-weight="300"
    font-style="italic"
    font-stretch="normal"
    units-per-em="1000"
    panose-1="2 11 4 3 2 2 4 9 2 4"
    ascent="776"
    descent="-224"
    x-height="477"
    cap-height="700"
    bbox="-285 -254 1492 921"
    underline-thickness="50"
    underline-position="-100"
    slope="-9"
    unicode-range="U+0020-FB04"
  />
<missing-glyph horiz-adv-x="631" 
d="M519 0h-415l111 700h415zM247 665l-99 -630h339l99 630h-339z" />
    <glyph glyph-name="ij" unicode="ij" horiz-adv-x="478" 
d="M219 -204c-31 0 -56 6 -74 18l7 43c19 -13 41 -19 66 -19c59 0 93 34 104 103l85 536h45l-86 -544c-16 -97 -75 -137 -147 -137zM426 619c-36 33 21 90 54 54c36 -33 -21 -90 -54 -54zM148 0h-45l76 477h45zM225 608c-50 -3 -49 79 0 76c49 3 49 -79 0 -76z" />
    <glyph glyph-name="f_f" unicode="ff" horiz-adv-x="666" 
d="M242 436l-69 -436h-45l69 436h-100l7 41h99l15 95c13 84 67 135 147 135c35 0 65 -7 90 -20l-7 -43c-25 14 -52 21 -80 21c-57 0 -95 -38 -106 -103l-14 -85h244l15 95c13 84 67 135 147 135c35 0 65 -7 90 -20l-7 -43c-25 14 -52 21 -80 21c-57 0 -95 -38 -106 -103
l-14 -85h174l-7 -41h-173l-69 -436h-45l69 436h-244z" />
    <glyph glyph-name="fi" unicode="fi" horiz-adv-x="567" 
d="M242 436l-69 -436h-45l69 436h-100l7 41h99l15 95c13 84 67 135 147 135c35 0 65 -7 90 -20l-7 -43c-25 14 -52 21 -80 21c-57 0 -95 -38 -106 -103l-14 -85h290l-76 -477h-45l69 436h-244zM569 619c-33 -36 -90 21 -54 54c33 36 90 -21 54 -54z" />
    <glyph glyph-name="fl" unicode="fl" horiz-adv-x="607" 
d="M242 436l-69 -436h-45l69 436h-100l7 41h99l15 95c13 84 67 135 147 135c35 0 65 -7 90 -20l-7 -43c-25 14 -52 21 -80 21c-57 0 -95 -38 -106 -103l-14 -85h245l35 223h45l-91 -578c-3 -23 -5 -39 -5 -46c0 -31 18 -46 53 -46c23 0 43 5 60 14l-6 -43
c-19 -9 -42 -13 -69 -13c-56 0 -84 27 -84 80c0 18 2 34 5 49l50 319h-244z" />
    <glyph glyph-name="f_f_i" unicode="ffi" horiz-adv-x="856" 
d="M531 436l-69 -436h-45l69 436h-244l-69 -436h-45l69 436h-100l7 41h99l15 95c13 84 67 135 147 135c35 0 65 -7 90 -20l-7 -43c-25 14 -52 21 -80 21c-57 0 -95 -38 -106 -103l-14 -85h244l15 95c13 84 67 135 147 135c35 0 65 -7 90 -20l-7 -43c-25 14 -52 21 -80 21
c-57 0 -95 -38 -106 -103l-14 -85h290l-76 -477h-45l69 436h-244zM831 608c-50 -3 -49 79 0 76c49 3 49 -79 0 -76z" />
    <glyph glyph-name="f_f_l" unicode="ffl" horiz-adv-x="896" 
d="M531 436l-69 -436h-45l69 436h-244l-69 -436h-45l69 436h-100l7 41h99l15 95c13 84 67 135 147 135c35 0 65 -7 90 -20l-7 -43c-25 14 -52 21 -80 21c-57 0 -95 -38 -106 -103l-14 -85h244l15 95c13 84 67 135 147 135c35 0 65 -7 90 -20l-7 -43c-25 14 -52 21 -80 21
c-57 0 -95 -38 -106 -103l-14 -85h245l35 223h45l-91 -578c-3 -23 -5 -39 -5 -46c0 -31 18 -46 53 -46c23 0 43 5 60 14l-6 -43c-19 -9 -42 -13 -69 -13c-56 0 -84 27 -84 80c0 18 2 34 5 49l50 319h-244z" />
    <glyph glyph-name=".notdef" horiz-adv-x="631" 
d="M519 0h-415l111 700h415zM247 665l-99 -630h339l99 630h-339z" />
    <glyph glyph-name="NULL" horiz-adv-x="0" 
 />
    <glyph glyph-name="CR" horiz-adv-x="333" 
 />
    <glyph glyph-name="space" unicode=" " horiz-adv-x="268" 
 />
    <glyph glyph-name="exclam" unicode="!" horiz-adv-x="264" 
d="M186 208h-42l72 492h54zM111 8c-36 33 21 90 54 54c36 -33 -21 -90 -54 -54z" />
    <glyph glyph-name="quotedbl" unicode="&#x22;" horiz-adv-x="339" 
d="M175 463h-44l38 237h43zM354 463h-43l37 237h43z" />
    <glyph glyph-name="numbersign" unicode="#" horiz-adv-x="699" 
d="M231 0h-44l31 198h-147l7 42h146l35 219h-147l8 42h145l33 199h44l-32 -199h213l31 199h45l-32 -199h148l-7 -42h-147l-35 -219h148l-7 -42h-148l-31 -198h-45l32 198h-212zM305 459l-36 -219h213l34 219h-211z" />
    <glyph glyph-name="dollar" unicode="$" horiz-adv-x="623" 
d="M613 651l-7 -46c-63 42 -135 63 -218 63c-52 0 -99 -12 -141 -37c-41 -24 -62 -60 -62 -107c0 -21 8 -41 17 -54s32 -28 45 -36s48 -20 63 -25l36 -11l35 -10l62 -21c15 -5 33 -13 55 -24c61 -29 90 -69 95 -139c0 -67 -27 -120 -81 -158s-118 -57 -191 -58l-16 -102h-47
l16 104c-91 8 -178 40 -217 73l9 51c22 -21 57 -40 104 -57s97 -25 150 -25c34 0 67 5 100 15c33 11 61 29 86 55c25 27 38 58 38 95c0 36 -17 67 -37 84c-10 9 -25 18 -45 27c-39 19 -60 25 -112 40c-36 10 -64 19 -85 27c-20 8 -41 18 -64 31c-44 27 -63 62 -63 113
c0 61 24 109 73 142s109 50 178 51l16 102h47l-17 -104c74 -8 133 -28 178 -59z" />
    <glyph glyph-name="percent" unicode="%" horiz-adv-x="819" 
d="M182 0l514 700h49l-514 -700h-49zM310 712c47 0 85 -15 114 -46c29 -30 43 -67 43 -110c0 -49 -17 -91 -50 -126s-75 -52 -125 -52c-47 0 -85 15 -114 46s-43 68 -43 111c0 49 17 90 50 125s75 52 125 52zM292 416c37 0 69 14 95 41c27 28 40 61 40 99
c0 68 -47 118 -118 118c-37 0 -68 -14 -94 -41s-39 -60 -39 -98c0 -68 47 -119 116 -119zM637 322c47 0 85 -15 114 -46c29 -30 43 -67 43 -110c0 -49 -17 -91 -50 -126s-75 -52 -125 -52c-47 0 -85 15 -114 46s-43 68 -43 111c0 49 17 90 50 125s75 52 125 52zM619 26
c37 0 69 14 95 41c27 28 40 61 40 99c0 68 -47 118 -118 118c-37 0 -68 -14 -94 -41s-39 -60 -39 -98c0 -68 47 -119 116 -119z" />
    <glyph glyph-name="ampersand" unicode="&#x26;" horiz-adv-x="708" 
d="M587 639l-7 -47c-39 43 -104 78 -175 78c-92 0 -148 -50 -148 -127c0 -41 21 -88 63 -139l229 -275c61 65 97 145 110 242h46c-18 -112 -61 -204 -128 -275l80 -96h-57l-55 66c-63 -52 -134 -78 -214 -78c-71 0 -130 20 -179 60c-48 41 -72 95 -72 164
c0 63 26 119 62 152c37 33 74 54 107 62c-25 37 -38 77 -38 118c0 104 79 168 191 168c76 0 145 -34 185 -73zM330 30c68 0 130 23 187 69l-242 291c-41 -9 -76 -29 -105 -60s-44 -70 -44 -115c0 -55 19 -99 58 -134c39 -34 88 -51 146 -51z" />
    <glyph glyph-name="quotesingle" unicode="'" horiz-adv-x="160" 
d="M174 463h-43l38 237h43z" />
    <glyph glyph-name="parenleft" unicode="(" horiz-adv-x="318" 
d="M329 706h51c-138 -151 -207 -335 -207 -552c0 -137 32 -257 97 -360h-49c-61 94 -91 213 -91 358c0 224 66 409 199 554z" />
    <glyph glyph-name="parenright" unicode=")" horiz-adv-x="319" 
d="M69 -206h-51c138 151 207 335 207 552c0 137 -32 257 -97 360h49c61 -94 91 -213 91 -358c0 -224 -66 -409 -199 -554z" />
    <glyph glyph-name="asterisk" unicode="*" horiz-adv-x="427" 
d="M144 598l22 29l114 -73l23 146h36l-24 -145l138 74l12 -32l-139 -73l116 -73l-22 -29l-114 73l-23 -146h-36l24 145l-138 -74l-12 32l138 73z" />
    <glyph glyph-name="plus" unicode="+" horiz-adv-x="600" 
d="M335 90h-42l33 212h-213l7 42h213l33 213h42l-33 -213h212l-7 -42h-212z" />
    <glyph glyph-name="comma" unicode="," horiz-adv-x="230" 
d="M48 -152h-39l114 239h56z" />
    <glyph glyph-name="hyphen" unicode="-" horiz-adv-x="474" 
d="M411 249h-269l7 41h270z" />
    <glyph glyph-name="period" unicode="." horiz-adv-x="214" 
d="M84 8c-36 33 21 90 54 54c36 -33 -21 -90 -54 -54z" />
    <glyph glyph-name="slash" unicode="/" horiz-adv-x="500" 
d="M612 792l-568 -932h-54l568 932h54z" />
    <glyph glyph-name="zero" unicode="0" horiz-adv-x="707" 
d="M442 712c77 0 138 -28 183 -85c45 -56 68 -129 68 -220c0 -69 -13 -135 -38 -198s-63 -115 -113 -158c-49 -42 -105 -63 -167 -63c-77 0 -139 28 -184 84c-45 57 -67 131 -67 222c0 101 32 204 85 284s138 134 233 134zM376 32c53 0 101 20 144 59c85 79 127 198 127 315
c0 73 -18 134 -53 185s-86 77 -153 77c-53 0 -101 -20 -144 -59c-85 -77 -127 -198 -127 -314c0 -73 17 -136 52 -187s87 -76 154 -76z" />
    <glyph glyph-name="one" unicode="1" horiz-adv-x="351" 
d="M246 0h-46l103 646l-177 -98l8 50l181 102h42z" />
    <glyph glyph-name="two" unicode="2" horiz-adv-x="571" 
d="M132 578l8 59c60 50 130 75 209 75c63 0 113 -19 152 -56s58 -83 58 -138c0 -93 -60 -170 -188 -274l-246 -201h398l-7 -43h-469l5 36l278 230c62 51 108 95 137 131c30 36 45 74 45 115c0 47 -16 85 -49 113c-32 29 -71 43 -118 43c-79 0 -150 -30 -213 -90z" />
    <glyph glyph-name="three" unicode="3" horiz-adv-x="566" 
d="M576 666l-266 -234c62 -1 115 -19 159 -56c45 -36 67 -84 67 -144c0 -75 -28 -134 -83 -178s-121 -66 -198 -66c-83 0 -153 19 -209 58l8 47c52 -41 118 -61 199 -61c63 0 119 17 166 52s71 84 71 146c0 53 -20 94 -59 122c-39 29 -86 43 -143 43c-21 0 -39 -2 -54 -5
l5 33l266 234h-345l6 43h415z" />
    <glyph glyph-name="four" unicode="4" horiz-adv-x="627" 
d="M472 0h-45l32 203h-387l6 38l462 459h43l-72 -454h120l-7 -43h-120zM527 632l-389 -386h328z" />
    <glyph glyph-name="five" unicode="5" horiz-adv-x="594" 
d="M325 436c72 0 130 -20 174 -61c44 -40 66 -89 66 -147c0 -74 -29 -133 -87 -176c-57 -43 -126 -64 -207 -64c-82 0 -149 18 -200 54l8 47c53 -38 117 -57 192 -57c39 0 77 6 113 19c73 25 134 88 134 172c0 47 -18 87 -55 120c-36 33 -87 49 -152 49
c-51 0 -103 -8 -156 -24l95 332h340l-6 -43h-302l-67 -233c29 8 66 12 110 12z" />
    <glyph glyph-name="six" unicode="6" horiz-adv-x="638" 
d="M395 441c63 0 114 -19 153 -58c40 -39 60 -87 60 -144c0 -70 -23 -129 -70 -178c-46 -49 -105 -73 -177 -73s-130 24 -174 72c-43 49 -65 113 -65 192c0 129 33 237 99 326s147 134 243 134c68 0 121 -17 159 -50l-7 -45c-41 34 -93 51 -154 51c-75 0 -141 -34 -196 -102
c-55 -67 -86 -150 -93 -247c45 69 129 122 222 122zM363 32c55 0 102 20 141 59c39 40 58 89 58 146c0 96 -70 161 -171 161c-45 0 -88 -14 -130 -43s-73 -64 -93 -105c0 -63 17 -115 51 -156s82 -62 144 -62z" />
    <glyph glyph-name="seven" unicode="7" horiz-adv-x="544" 
d="M162 0h-52l435 657h-392l6 43h448l-5 -34z" />
    <glyph glyph-name="eight" unicode="8" horiz-adv-x="663" 
d="M485 365c87 -28 141 -91 141 -170c0 -63 -26 -114 -78 -151c-51 -37 -112 -56 -183 -56c-73 0 -136 17 -188 52s-78 83 -78 144c0 48 18 90 53 126s82 59 139 69c-64 27 -106 80 -106 147c0 55 22 100 67 134c45 35 98 52 161 52c106 0 225 -56 225 -170
c0 -45 -15 -83 -46 -115c-30 -32 -66 -53 -107 -62zM231 524c0 -42 18 -75 54 -98s78 -35 125 -35s89 12 126 37c38 25 57 61 57 106c0 43 -18 76 -54 99s-78 35 -127 35c-46 0 -88 -13 -125 -38s-56 -61 -56 -106zM361 32c59 0 110 15 153 44c44 29 66 70 66 121
c0 45 -21 81 -63 108c-41 28 -92 42 -153 42c-59 0 -111 -14 -154 -43c-43 -28 -65 -67 -65 -117c0 -47 22 -84 65 -113c43 -28 94 -42 151 -42z" />
    <glyph glyph-name="nine" unicode="9" horiz-adv-x="638" 
d="M350 259c-63 0 -114 19 -154 58c-39 39 -59 87 -59 144c0 70 23 129 69 178c47 49 106 73 178 73s130 -24 173 -73c44 -48 66 -112 66 -191c0 -129 -33 -238 -99 -327s-147 -133 -243 -133c-68 0 -121 17 -159 50l7 45c41 -34 93 -51 154 -51c75 0 140 34 195 101
c55 68 87 151 94 248c-45 -69 -129 -122 -222 -122zM382 668c-55 0 -102 -20 -141 -60c-39 -39 -58 -88 -58 -145c0 -96 70 -161 171 -161c45 0 88 14 130 43s73 64 93 105c0 63 -17 115 -51 156s-82 62 -144 62z" />
    <glyph glyph-name="colon" unicode=":" horiz-adv-x="214" 
d="M146 397c-36 33 21 90 54 54c36 -33 -21 -90 -54 -54zM84 8c-36 33 21 90 54 54c36 -33 -21 -90 -54 -54z" />
    <glyph glyph-name="semicolon" unicode=";" horiz-adv-x="230" 
d="M48 -152h-39l114 239h56zM154 397c-36 33 21 90 54 54c36 -33 -21 -90 -54 -54z" />
    <glyph glyph-name="less" unicode="&#x3c;" horiz-adv-x="600" 
d="M120 342l500 203l-8 -46l-443 -179l387 -179l-7 -45l-436 203z" />
    <glyph glyph-name="equal" unicode="=" horiz-adv-x="600" 
d="M563 188h-467l7 41h466zM600 416h-467l6 41h467z" />
    <glyph glyph-name="greater" unicode="&#x3e;" horiz-adv-x="600" 
d="M531 321l-387 179l8 45l435 -203l-7 -43l-500 -203l8 47z" />
    <glyph glyph-name="question" unicode="?" horiz-adv-x="467" 
d="M261 208h-44l23 145c53 9 102 30 146 63c45 33 67 74 67 121c0 75 -60 128 -156 128c-58 0 -115 -18 -170 -55l7 48c51 33 108 49 172 49c57 0 104 -16 139 -47c36 -31 54 -71 54 -120c0 -54 -21 -99 -63 -136s-94 -63 -157 -79zM175 35c0 23 15 38 38 38
c33 0 51 -41 27 -65s-65 -6 -65 27z" />
    <glyph glyph-name="at" unicode="@" horiz-adv-x="970" 
d="M561 712c115 0 210 -37 284 -110c75 -73 112 -162 112 -269c0 -40 -7 -80 -21 -119c-13 -39 -35 -74 -66 -103s-67 -43 -108 -43c-60 0 -97 34 -106 77c-45 -52 -100 -78 -164 -78c-57 0 -102 18 -135 54c-33 37 -50 81 -50 134c0 63 20 116 61 160s93 66 156 66
c71 0 130 -37 162 -82l10 67h45l-44 -272c-1 -11 -2 -19 -2 -25c0 -49 32 -76 79 -76c48 0 86 25 115 76s44 105 44 164c0 99 -34 182 -102 251c-67 69 -157 104 -270 104c-235 6 -452 -204 -447 -449c0 -107 35 -196 104 -268c70 -73 158 -109 264 -109c67 0 135 15 203 45
l-4 -26c-62 -29 -129 -43 -200 -43c-111 0 -204 39 -279 116s-112 172 -112 285c0 83 20 161 61 233c41 73 97 131 170 174c73 44 153 66 240 66zM653 192l25 161c-23 45 -84 86 -149 86c-49 0 -90 -17 -125 -52c-34 -34 -51 -77 -51 -128c0 -43 14 -78 42 -107
c29 -29 65 -43 110 -43c55 0 115 38 148 83z" />
    <glyph glyph-name="A" unicode="A" horiz-adv-x="744" 
d="M711 0h-49l-60 206h-393l-124 -206h-52l429 704h43zM591 246l-115 398l-242 -398h357z" />
    <glyph glyph-name="B" unicode="B" horiz-adv-x="732" 
d="M562 378c84 -16 135 -75 135 -158c0 -69 -24 -123 -72 -162s-109 -58 -184 -58h-331l111 700h289c111 0 176 -59 176 -147c0 -83 -44 -147 -124 -175zM503 657h-243l-42 -264h244c49 0 91 13 126 39s52 63 52 112c0 69 -50 113 -137 113zM212 353l-50 -310h279
c59 0 108 15 147 45c39 31 59 75 59 132c0 81 -58 133 -159 133h-276z" />
    <glyph glyph-name="C" unicode="C" horiz-adv-x="692" 
d="M175 321c0 -83 26 -152 79 -207s121 -82 206 -82c79 0 149 22 210 67l-8 -52c-59 -39 -127 -59 -205 -59c-98 0 -177 31 -238 93c-61 63 -91 142 -91 237c0 108 35 201 106 278s162 116 271 116c81 0 151 -20 210 -61l-7 -46c-58 42 -126 63 -204 63
c-92 0 -170 -34 -234 -101c-63 -67 -95 -149 -95 -246z" />
    <glyph glyph-name="D" unicode="D" horiz-adv-x="781" 
d="M221 700h197c104 0 187 -29 249 -86c63 -57 94 -132 94 -225c0 -118 -40 -212 -121 -283s-184 -106 -311 -106h-219zM162 43h182c107 0 196 31 265 94s104 146 104 251c0 81 -27 146 -81 195s-128 74 -222 74h-150z" />
    <glyph glyph-name="E" unicode="E" horiz-adv-x="645" 
d="M594 0h-484l111 700h468l-7 -43h-422l-41 -259h349l-7 -43h-349l-49 -312h438z" />
    <glyph glyph-name="F" unicode="F" horiz-adv-x="622" 
d="M156 0h-46l111 700h463l-7 -43h-417l-42 -268h346l-7 -43h-346z" />
    <glyph glyph-name="G" unicode="G" horiz-adv-x="782" 
d="M663 109l48 292h47l-51 -314c-73 -66 -157 -99 -252 -99c-97 0 -175 31 -236 93c-61 63 -91 142 -91 237c0 108 35 201 106 278s162 116 271 116c96 0 174 -27 235 -81l-7 -46c-62 55 -138 83 -229 83c-92 0 -170 -34 -234 -101c-63 -67 -95 -150 -95 -247
c0 -83 26 -152 79 -207c53 -54 121 -81 206 -81c79 0 146 26 203 77z" />
    <glyph glyph-name="H" unicode="H" horiz-adv-x="764" 
d="M156 0h-46l111 700h46l-48 -302h457l48 302h46l-111 -700h-46l56 355h-457z" />
    <glyph glyph-name="I" unicode="I" horiz-adv-x="269" 
d="M158 0h-46l111 700h46z" />
    <glyph glyph-name="J" unicode="J" horiz-adv-x="503" 
d="M471 700h46l-80 -504c-23 -139 -103 -208 -242 -208c-64 0 -115 17 -153 50l7 49c35 -37 83 -55 146 -55c115 0 177 52 197 175z" />
    <glyph glyph-name="K" unicode="K" horiz-adv-x="650" 
d="M156 0h-46l111 700h46l-49 -309l404 309h66l-423 -326l367 -374h-62l-357 364z" />
    <glyph glyph-name="L" unicode="L" horiz-adv-x="597" 
d="M563 0h-453l111 700h46l-104 -657h407z" />
    <glyph glyph-name="M" unicode="M" horiz-adv-x="851" 
d="M857 700l-111 -700h-46l100 627l-309 -334h-31l-204 335l-100 -628h-46l111 700h43l216 -357l327 357h50z" />
    <glyph glyph-name="N" unicode="N" horiz-adv-x="778" 
d="M674 0h-41l-379 624l-98 -624h-46l110 700h41l379 -624l98 624h46z" />
    <glyph glyph-name="O" unicode="O" horiz-adv-x="846" 
d="M501 712c97 0 176 -31 235 -94c60 -63 90 -142 90 -237c5 -207 -160 -396 -372 -393c-97 0 -176 31 -236 94s-90 143 -90 238c0 107 35 199 106 276s160 116 267 116zM456 32c89 0 165 34 228 101c63 68 95 150 95 247c0 83 -26 151 -78 206c-51 55 -119 82 -202 82
c-90 0 -167 -34 -230 -101s-94 -149 -94 -246c0 -83 26 -152 78 -207s120 -82 203 -82z" />
    <glyph glyph-name="P" unicode="P" horiz-adv-x="670" 
d="M110 0l111 700h279c127 0 198 -66 198 -166c0 -63 -23 -114 -68 -153s-101 -58 -170 -58h-252l-52 -323h-46zM214 366h249c51 0 95 14 132 42c37 29 56 69 56 120c0 81 -56 129 -156 129h-235z" />
    <glyph glyph-name="Q" unicode="Q" horiz-adv-x="846" 
d="M501 712c97 0 176 -31 235 -94c60 -63 90 -142 90 -237c0 -93 -27 -175 -82 -248c-54 -72 -124 -117 -211 -136c39 -46 80 -69 125 -69c33 0 62 8 87 24l-8 -47c-28 -13 -57 -20 -88 -20c-67 0 -117 37 -173 104c-7 -1 -14 -1 -22 -1c-97 0 -176 31 -236 94
s-90 143 -90 238c0 107 35 199 106 276s160 116 267 116zM456 32c89 0 165 34 228 101c63 68 95 150 95 247c0 83 -26 151 -78 206c-51 55 -119 82 -202 82c-90 0 -167 -34 -230 -101s-94 -149 -94 -246c0 -83 26 -152 78 -207s120 -82 203 -82z" />
    <glyph glyph-name="R" unicode="R" horiz-adv-x="741" 
d="M519 332l172 -332h-53l-170 329h-259l-53 -329h-46l111 700h297c123 0 195 -65 195 -164c0 -109 -78 -185 -194 -204zM512 657h-252l-45 -285h268c51 0 94 14 129 43c36 29 54 67 54 116c0 80 -55 126 -154 126z" />
    <glyph glyph-name="S" unicode="S" horiz-adv-x="623" 
d="M613 651l-7 -46c-63 42 -135 63 -218 63c-52 0 -99 -12 -141 -37c-41 -24 -62 -60 -62 -107c0 -21 8 -41 17 -54s32 -28 45 -36s48 -20 63 -25l36 -11l35 -10l62 -21c15 -5 33 -13 55 -24c61 -29 90 -69 95 -139c0 -67 -27 -120 -82 -159c-54 -38 -118 -57 -192 -57
c-52 0 -103 8 -153 23c-49 15 -86 33 -109 52l9 51c22 -21 57 -40 104 -57s97 -25 150 -25c34 0 67 5 100 15c33 11 61 29 86 55c25 27 38 58 38 95c0 36 -17 67 -37 84c-10 9 -25 18 -45 27c-39 19 -60 25 -112 40c-36 10 -64 19 -85 27c-20 8 -41 18 -64 31
c-44 27 -63 62 -63 113c0 131 126 193 253 193c81 0 169 -24 222 -61z" />
    <glyph glyph-name="T" unicode="T" horiz-adv-x="621" 
d="M334 0h-46l104 657h-251l7 43h548l-7 -43h-251z" />
    <glyph glyph-name="U" unicode="U" horiz-adv-x="747" 
d="M654 302l63 398h46l-66 -415c-31 -192 -149 -297 -309 -297c-155 0 -253 90 -253 247c0 18 3 50 10 97l59 368h46l-59 -376c-6 -39 -9 -67 -9 -83c0 -131 76 -209 208 -209c141 0 237 98 264 270z" />
    <glyph glyph-name="V" unicode="V" horiz-adv-x="748" 
d="M381 62l384 638h54l-425 -704h-42l-203 704h49z" />
    <glyph glyph-name="W" unicode="W" horiz-adv-x="1042" 
d="M319 74l290 627h40l93 -625l311 624h53l-355 -704h-42l-92 620l-289 -620h-40l-133 704h49z" />
    <glyph glyph-name="X" unicode="X" horiz-adv-x="699" 
d="M609 0l-203 344l-310 -344h-59l345 382l-188 318h53l166 -281l254 281h60l-290 -319l226 -381h-54z" />
    <glyph glyph-name="Y" unicode="Y" horiz-adv-x="646" 
d="M378 369l295 331h56l-332 -375l-51 -325h-47l51 324l-214 376h53z" />
    <glyph glyph-name="Z" unicode="Z" horiz-adv-x="639" 
d="M667 700l-5 -33l-535 -624h465l-7 -43h-530l5 34l537 623h-425l6 43h489z" />
    <glyph glyph-name="bracketleft" unicode="[" horiz-adv-x="370" 
d="M297 -206h-230l144 912h230l-6 -40h-187l-132 -832h187z" />
    <glyph glyph-name="backslash" unicode="\" horiz-adv-x="499" 
d="M189 792l273 -932h-47l-273 932h47z" />
    <glyph glyph-name="bracketright" unicode="]" horiz-adv-x="370" 
d="M151 706h230l-144 -912h-229l5 40h187l132 832h-187z" />
    <glyph glyph-name="asciicircum" unicode="^" horiz-adv-x="502" 
d="M341 708h43l112 -359h-44l-94 313l-196 -313h-47z" />
    <glyph glyph-name="underscore" unicode="_" horiz-adv-x="608" 
d="M581 -118h-591l4 34h592z" />
    <glyph glyph-name="grave" unicode="`" horiz-adv-x="522" 
d="M429 577h-46l-88 130h59z" />
    <glyph glyph-name="a" unicode="a" horiz-adv-x="590" 
d="M164 406l8 45c47 25 104 38 173 38c53 0 98 -12 133 -37c35 -24 53 -61 53 -112c0 -15 -3 -41 -9 -80l-22 -138c-3 -17 -4 -31 -4 -40c0 -31 15 -47 46 -47c9 0 18 1 25 4l-6 -37c-8 -4 -20 -6 -35 -6c-43 0 -75 29 -75 76c-57 -56 -126 -84 -205 -84
c-51 0 -94 13 -127 40s-50 63 -50 107c0 53 21 94 62 122c41 29 90 43 145 43c75 0 141 -19 198 -58l7 44c3 21 5 38 5 49c0 75 -50 112 -149 112c-66 0 -124 -14 -173 -41zM455 123l12 77c-52 40 -113 60 -184 60c-47 0 -86 -10 -119 -31s-49 -51 -49 -90
c0 -71 60 -109 147 -109c76 0 149 44 193 93z" />
    <glyph glyph-name="b" unicode="b" horiz-adv-x="636" 
d="M147 90l-13 -90h-45l111 700h45l-49 -298c47 52 118 87 194 87c68 0 122 -22 163 -66s61 -98 61 -161c0 -76 -25 -141 -75 -194c-49 -53 -112 -80 -188 -80c-92 0 -165 46 -204 102zM380 447c-37 0 -75 -10 -112 -31s-64 -47 -82 -78l-29 -196c15 -29 39 -55 73 -78
c35 -23 74 -34 117 -34c61 0 112 22 155 66s65 98 65 162c0 55 -17 100 -51 135c-34 36 -79 54 -136 54z" />
    <glyph glyph-name="c" unicode="c" horiz-adv-x="516" 
d="M519 445l-6 -43c-42 30 -91 45 -146 45c-65 0 -120 -22 -165 -66c-44 -44 -66 -98 -66 -162c0 -55 18 -100 55 -136c37 -35 85 -53 145 -53c48 0 94 13 139 39l-6 -48c-42 -22 -89 -33 -142 -33c-73 0 -131 22 -174 66c-42 44 -63 98 -63 163c0 77 26 142 78 194
c53 52 117 78 194 78c62 0 114 -15 157 -44z" />
    <glyph glyph-name="d" unicode="d" horiz-adv-x="624" 
d="M557 386l49 314h45l-111 -700h-45l13 74c-51 -57 -116 -86 -195 -86c-68 0 -122 22 -163 65c-40 44 -60 98 -60 162c0 76 25 141 74 194c50 53 113 80 189 80c92 0 165 -46 204 -103zM325 30c37 0 74 10 111 31s64 47 82 78l29 195c-14 30 -38 56 -73 79
c-34 23 -73 34 -116 34c-61 0 -114 -22 -157 -66s-64 -98 -64 -162c0 -55 17 -100 51 -136c35 -35 80 -53 137 -53z" />
    <glyph glyph-name="e" unicode="e" horiz-adv-x="569" 
d="M339 30c51 0 101 15 148 44l-6 -46c-39 -27 -89 -40 -148 -40c-70 0 -128 21 -174 63s-69 97 -69 164c0 73 24 137 73 192s111 82 187 82c66 0 116 -21 151 -63s52 -90 52 -145c0 -19 -1 -35 -3 -49h-415v-16c0 -57 19 -103 58 -136s88 -50 146 -50zM346 447
c-52 0 -97 -17 -135 -50s-62 -75 -71 -126h368c1 5 1 10 1 17c0 42 -14 79 -42 111c-27 32 -68 48 -121 48z" />
    <glyph glyph-name="f" unicode="f" horiz-adv-x="377" 
d="M242 436l-69 -436h-45l69 436h-100l7 41h99l15 95c13 84 67 135 147 135c35 0 65 -7 90 -20l-7 -43c-25 14 -52 21 -80 21c-57 0 -95 -38 -106 -103l-14 -85h174l-7 -41h-173z" />
    <glyph glyph-name="g" unicode="g" horiz-adv-x="629" 
d="M557 386l13 91h45l-72 -466c-23 -148 -127 -215 -280 -215c-68 0 -143 22 -186 47l8 45c52 -33 112 -50 181 -50c133 0 211 60 232 179l10 59c-50 -56 -115 -84 -194 -84c-69 0 -123 22 -164 65c-40 44 -60 98 -60 161c0 74 25 138 74 191c50 53 113 80 189 80
c92 0 167 -47 204 -103zM518 141l30 194c-15 30 -39 56 -74 78c-35 23 -73 34 -116 34c-61 0 -114 -22 -157 -66c-43 -43 -64 -97 -64 -160c0 -54 18 -99 53 -134s81 -53 138 -53c37 0 73 10 108 30c36 21 63 46 82 77z" />
    <glyph glyph-name="h" unicode="h" horiz-adv-x="601" 
d="M561 251l-39 -251h-45l40 254c5 31 7 55 7 72c0 80 -51 121 -134 121c-39 0 -77 -11 -114 -33c-37 -21 -66 -46 -88 -74l-54 -340h-45l111 700h45l-48 -302c61 61 130 91 207 91c100 0 166 -62 166 -158c0 -7 -3 -34 -9 -80z" />
    <glyph glyph-name="i" unicode="i" horiz-adv-x="250" 
d="M148 0h-45l76 477h45zM225 608c-50 -3 -49 79 0 76c49 3 49 -79 0 -76z" />
    <glyph glyph-name="j" unicode="j" horiz-adv-x="250" 
d="M-9 -204c-31 0 -56 6 -74 18l7 43c19 -13 41 -19 66 -19c59 0 93 34 104 103l85 536h45l-86 -544c-16 -97 -75 -137 -147 -137zM198 619c-36 33 21 90 54 54c36 -33 -21 -90 -54 -54z" />
    <glyph glyph-name="k" unicode="k" horiz-adv-x="511" 
d="M134 0h-45l111 700h45l-67 -427l279 204h67l-301 -221l263 -256h-62l-251 245z" />
    <glyph glyph-name="l" unicode="l" horiz-adv-x="275" 
d="M196 700h45l-91 -578c-3 -23 -5 -39 -5 -46c0 -31 18 -46 53 -46c23 0 43 5 60 14l-6 -43c-19 -9 -42 -13 -69 -13c-56 0 -84 27 -84 80c0 18 2 34 5 49z" />
    <glyph glyph-name="m" unicode="m" horiz-adv-x="911" 
d="M89 0l75 477h45l-12 -76c49 59 111 88 187 88c79 0 135 -38 146 -102c43 57 116 102 200 102c93 0 150 -57 150 -150c0 -15 -2 -36 -7 -64l-43 -275h-45l44 282c3 25 5 41 5 48c0 78 -40 117 -119 117c-69 0 -142 -47 -182 -110c-1 -21 -3 -40 -6 -56l-44 -281h-45
l44 279c4 21 6 40 6 55c0 47 -17 81 -45 94c-27 15 -49 19 -74 19c-68 0 -140 -44 -181 -105l-54 -342h-45z" />
    <glyph glyph-name="n" unicode="n" horiz-adv-x="601" 
d="M89 0l76 477h45l-13 -79c61 61 130 91 207 91c100 0 166 -62 166 -158c0 -7 -3 -34 -9 -80l-39 -251h-45l40 254c5 31 7 55 7 72c0 80 -51 121 -134 121c-39 0 -77 -11 -114 -33c-37 -21 -66 -46 -88 -74l-54 -340h-45z" />
    <glyph glyph-name="o" unicode="o" horiz-adv-x="616" 
d="M356 489c72 0 130 -23 173 -68s65 -101 65 -166c0 -73 -25 -136 -76 -189c-51 -52 -114 -78 -189 -78c-72 0 -130 23 -174 68c-43 45 -65 101 -65 166c0 73 25 136 76 188c51 53 114 79 190 79zM329 32c61 0 112 22 155 65c43 44 64 97 64 159c0 55 -18 100 -54 135
c-35 36 -82 54 -139 54c-60 0 -112 -22 -155 -66c-43 -43 -64 -96 -64 -158c0 -55 18 -100 53 -136c36 -35 83 -53 140 -53z" />
    <glyph glyph-name="p" unicode="p" horiz-adv-x="636" 
d="M147 90l-45 -290h-45l107 677h45l-13 -75c51 58 116 87 194 87c69 0 123 -22 163 -66c41 -43 61 -97 61 -161c0 -76 -25 -141 -75 -194c-49 -53 -112 -80 -188 -80c-92 0 -165 46 -204 102zM380 447c-37 0 -75 -10 -112 -31s-64 -46 -82 -77l-29 -196
c15 -30 39 -56 73 -79c35 -23 74 -34 117 -34c61 0 112 22 155 66s65 98 65 162c0 55 -17 100 -51 135c-34 36 -79 54 -136 54z" />
    <glyph glyph-name="q" unicode="q" 
d="M557 386l13 91h45l-107 -677h-45l45 274c-51 -57 -116 -86 -195 -86c-68 0 -122 22 -163 65c-40 44 -60 98 -60 162c0 76 25 141 74 194c50 53 113 80 189 80c92 0 165 -46 204 -103zM325 30c37 0 74 10 111 31s64 47 82 78l29 195c-14 30 -38 56 -73 79
c-34 23 -73 34 -116 34c-61 0 -114 -22 -157 -66s-64 -98 -64 -162c0 -55 17 -100 51 -136c35 -35 80 -53 137 -53z" />
    <glyph glyph-name="r" unicode="r" horiz-adv-x="343" 
d="M134 0h-45l75 477h45l-15 -100c44 61 126 111 210 112l-7 -46c-45 0 -87 -13 -125 -38s-67 -55 -88 -89z" />
    <glyph glyph-name="s" unicode="s" horiz-adv-x="490" 
d="M480 435l-6 -46c-51 39 -112 58 -181 58c-61 2 -136 -22 -138 -91c0 -21 13 -39 26 -51c7 -5 18 -11 32 -17c29 -12 42 -16 82 -28c55 -17 78 -26 113 -47c35 -20 50 -46 50 -82c0 -47 -20 -83 -60 -107c-39 -24 -86 -36 -139 -36c-88 0 -169 31 -209 63l7 48
c57 -46 124 -69 203 -69c39 0 74 8 106 23s48 40 48 74c0 45 -43 66 -138 94c-52 16 -74 24 -111 44c-37 21 -55 51 -55 88c0 45 18 78 54 101s80 35 131 35c73 0 135 -18 185 -54z" />
    <glyph glyph-name="t" unicode="t" horiz-adv-x="422" 
d="M173 146l45 290h-122l7 41h122l24 154h45l-24 -154h178l-6 -41h-179l-43 -282c-5 -40 -8 -61 -8 -62c0 -41 26 -62 77 -62c25 0 54 8 85 25l-6 -45c-25 -15 -56 -22 -94 -22c-73 0 -109 31 -109 93c0 19 3 40 8 65z" />
    <glyph glyph-name="u" unicode="u" horiz-adv-x="601" 
d="M588 477l-76 -477h-45l13 79c-61 -61 -130 -91 -207 -91c-100 0 -166 62 -166 158c0 7 3 34 9 80l39 251h45l-40 -254c-5 -31 -7 -55 -7 -72c0 -80 51 -121 134 -121c39 0 77 11 114 32c37 22 66 47 88 75l54 340h45z" />
    <glyph glyph-name="v" unicode="v" horiz-adv-x="556" 
d="M283 58l260 419h52l-299 -481h-43l-148 481h49z" />
    <glyph glyph-name="w" unicode="w" horiz-adv-x="813" 
d="M581 67l214 410h49l-251 -481h-40l-82 413l-214 -413h-39l-99 481h45l85 -409l212 411h38z" />
    <glyph glyph-name="x" unicode="x" horiz-adv-x="543" 
d="M502 477h57l-218 -224l172 -253h-52l-151 222l-215 -222h-59l251 256l-148 221h52l127 -189z" />
    <glyph glyph-name="y" unicode="y" horiz-adv-x="538" 
d="M521 477h51l-312 -534c-57 -97 -114 -147 -187 -147c-25 0 -46 6 -65 17l6 42c18 -11 38 -17 59 -17c33 0 62 14 88 43c27 28 58 74 95 138l-155 458h48l137 -405z" />
    <glyph glyph-name="z" unicode="z" horiz-adv-x="493" 
d="M43 31l387 405h-309l7 41h375l-5 -33l-385 -403h346l-6 -41h-415z" />
    <glyph glyph-name="braceleft" unicode="{" horiz-adv-x="348" 
d="M150 250c31 -13 47 -42 47 -85c0 -19 -2 -41 -6 -64l-24 -155c-4 -28 -6 -44 -6 -48c0 -43 26 -64 79 -64h41l-7 -40h-48c-68 0 -108 36 -108 97c0 12 2 30 6 54l22 146c5 34 7 56 7 65c0 46 -21 71 -62 75l7 38c29 3 53 17 65 33c7 8 12 19 17 32c9 28 12 42 17 75
l26 169c13 81 69 128 148 128h48l-7 -40h-41c-61 0 -96 -30 -105 -89l-28 -178c-13 -83 -32 -128 -88 -149z" />
    <glyph glyph-name="bar" unicode="|" horiz-adv-x="295" 
d="M151 -111h-43l138 871h43z" />
    <glyph glyph-name="braceright" unicode="}" horiz-adv-x="349" 
d="M277 250c-31 13 -47 42 -47 85c0 19 2 41 6 64l24 155c4 28 6 44 6 48c0 43 -26 64 -79 64h-41l7 40h48c68 0 108 -36 108 -97c0 -12 -2 -30 -6 -54l-22 -146c-5 -34 -7 -56 -7 -65c0 -46 21 -71 62 -75l-7 -38c-29 -3 -53 -17 -66 -33c-6 -8 -11 -19 -16 -33
c-9 -27 -12 -41 -17 -74l-26 -169c-13 -81 -69 -128 -148 -128h-48l7 40h41c61 0 96 30 105 89l28 178c13 83 32 128 88 149z" />
    <glyph glyph-name="asciitilde" unicode="~" horiz-adv-x="558" 
d="M430 253c42 0 78 14 108 43l-8 -47c-21 -25 -57 -37 -107 -37c-26 0 -62 8 -107 24c-45 17 -81 25 -108 25c-42 0 -78 -14 -108 -43l8 47c23 25 59 38 107 38c26 0 62 -8 107 -25s81 -25 108 -25z" />
    <glyph glyph-name="nbspace" unicode="&#xa0;" horiz-adv-x="268" 
 />
    <glyph glyph-name="exclamdown" unicode="&#xa1;" horiz-adv-x="264" 
d="M174 415c-36 33 21 90 54 54c36 -33 -21 -90 -54 -54zM194 268l-68 -468h-56l82 468h42z" />
    <glyph glyph-name="cent" unicode="&#xa2;" horiz-adv-x="516" 
d="M327 -12h-3l-17 -105h-41l17 108c-60 9 -107 34 -142 76c-34 43 -51 93 -51 150c0 77 26 142 78 194c53 52 117 78 194 78l17 105h41l-18 -108c45 -5 84 -19 117 -41l-6 -43c-42 30 -91 45 -146 45c-65 0 -120 -22 -165 -66c-44 -44 -66 -98 -66 -162
c0 -55 18 -100 55 -136c37 -35 85 -53 145 -53c48 0 94 13 139 39l-6 -48c-42 -22 -89 -33 -142 -33z" />
    <glyph glyph-name="sterling" unicode="&#xa3;" horiz-adv-x="580" 
d="M529 347l-7 -43h-295l-33 -209c-4 -24 -14 -41 -30 -52h363l-7 -43h-455l6 43h24c30 0 49 26 57 77l29 184h-68l7 43h68l23 144c23 143 116 221 255 221c63 0 115 -15 156 -46l-8 -48c-37 33 -88 50 -151 50c-115 0 -188 -64 -207 -183l-22 -138h295z" />
    <glyph glyph-name="currency" unicode="&#xa4;" horiz-adv-x="553" 
d="M208 197l-64 -64l-29 27l64 65c-29 37 -43 79 -43 126s14 89 43 125l-64 65l29 28l64 -64c35 30 77 45 126 45s91 -15 125 -45l65 64l29 -28l-66 -65c30 -35 45 -77 45 -125c0 -47 -15 -89 -44 -126l65 -65l-29 -27l-65 63c-35 -29 -76 -44 -125 -44s-91 15 -126 45z
M334 192c44 0 81 15 111 46s45 68 45 113s-15 82 -45 113s-67 46 -111 46c-45 0 -82 -15 -112 -46s-45 -68 -45 -113s15 -82 45 -113s67 -46 112 -46z" />
    <glyph glyph-name="yen" unicode="&#xa5;" horiz-adv-x="609" 
d="M326 0h-46l24 149h-215l6 43h215l19 114h-215l6 43h197l-181 351h51l171 -333l278 333h56l-294 -351h199l-6 -43h-216l-19 -114h216l-6 -43h-216z" />
    <glyph glyph-name="brokenbar" unicode="&#xa6;" horiz-adv-x="295" 
d="M151 -111h-43l56 353h43zM233 407h-43l56 353h43z" />
    <glyph glyph-name="section" unicode="&#xa7;" horiz-adv-x="642" 
d="M406 668c-26 0 -51 -3 -75 -8c-23 -5 -45 -17 -65 -34s-30 -38 -30 -63c0 -24 16 -46 32 -62c9 -7 22 -15 40 -24s33 -15 45 -20l56 -21c135 -48 201 -97 201 -172c0 -79 -61 -133 -145 -157c47 -29 70 -64 70 -105c0 -35 -11 -65 -34 -89c-45 -48 -110 -65 -186 -65
c-85 0 -160 22 -225 67l7 47c65 -47 139 -70 222 -70c26 0 51 3 74 8c48 11 96 46 96 98c0 24 -16 46 -33 61c-8 8 -21 16 -39 25s-33 15 -46 20c-12 5 -30 12 -55 21c-135 48 -201 97 -201 172c0 79 61 133 145 157c-47 29 -70 64 -70 105c0 51 22 90 65 115s95 38 155 38
c85 0 160 -22 225 -67l-7 -46c-66 46 -140 69 -222 69zM385 401c-7 3 -21 7 -41 14l-41 16c-34 -5 -66 -20 -97 -44c-31 -23 -46 -52 -46 -85c0 -21 10 -42 30 -61c40 -39 83 -57 150 -81l40 -15l42 -15c34 5 66 20 97 43c31 24 46 53 46 86c0 21 -10 42 -30 61
c-40 39 -83 57 -150 81z" />
    <glyph glyph-name="dieresis" unicode="&#xa8;" horiz-adv-x="522" 
d="M431 619c-34 32 21 86 51 51c35 -30 -19 -85 -51 -51zM241 619c-34 32 21 86 51 51c35 -30 -19 -85 -51 -51z" />
    <glyph glyph-name="copyright" unicode="&#xa9;" horiz-adv-x="874" 
d="M514 158c-54 0 -99 18 -136 55c-36 37 -54 82 -54 137s18 100 54 137c37 37 82 55 136 55c38 0 72 -9 101 -26v-42c-30 19 -64 29 -101 29c-42 0 -77 -15 -105 -44s-42 -65 -42 -109s14 -81 42 -110c29 -29 64 -43 106 -43c43 0 79 12 110 37v-42
c-29 -23 -66 -34 -111 -34zM491 -12c-101 0 -186 35 -256 105c-70 71 -105 156 -105 257c0 99 35 184 106 255s156 107 256 107c101 0 186 -35 256 -106c71 -71 106 -156 106 -257c0 -99 -36 -184 -107 -255s-156 -106 -256 -106zM491 12c95 0 175 33 240 98
c66 66 99 146 99 239c0 94 -33 174 -99 240c-65 66 -145 99 -239 99s-174 -33 -240 -99c-65 -66 -98 -146 -98 -240c0 -93 33 -173 98 -239c65 -65 145 -98 239 -98z" />
    <glyph glyph-name="ordfeminine" unicode="&#xaa;" horiz-adv-x="541" 
d="M439 424l9 55c-39 29 -85 44 -138 44c-71 0 -125 -30 -125 -89c0 -52 45 -81 109 -81c57 0 112 34 145 71zM510 358c8 0 15 1 21 4l-6 -34c-8 -4 -18 -6 -29 -6c-35 0 -60 21 -60 58c-44 -43 -96 -64 -155 -64c-80 0 -138 46 -138 115c0 41 16 73 48 94
c32 22 70 33 113 33c54 0 104 -15 150 -45l5 31c3 15 4 28 4 40c0 56 -37 84 -112 84c-51 0 -95 -11 -134 -32l7 40c36 19 80 29 133 29c84 0 146 -37 146 -116c0 -10 -1 -24 -4 -41l-18 -114c-3 -19 -5 -33 -5 -42c0 -23 11 -34 34 -34z" />
    <glyph glyph-name="guillemotleft" unicode="&#xab;" horiz-adv-x="552" 
d="M250 42h-50l-127 184l5 27l184 182h54l-199 -199zM474 42h-50l-127 184l5 27l184 182h54l-199 -199z" />
    <glyph glyph-name="logicalnot" unicode="&#xac;" horiz-adv-x="547" 
d="M506 157h-42l27 176h-372l7 41h414z" />
    <glyph glyph-name="uni00AD" unicode="&#xad;" horiz-adv-x="474" 
d="M411 249h-269l7 41h270z" />
    <glyph glyph-name="registered" unicode="&#xae;" horiz-adv-x="856" 
d="M385 168h-42v371h169c73 0 118 -42 118 -102c0 -52 -32 -90 -87 -99l121 -170h-48l-118 166h-113v-166zM385 503v-133h126c48 0 76 25 76 66c0 43 -28 67 -76 67h-126zM473 -12c-101 0 -186 35 -256 105c-70 71 -105 156 -105 257c0 99 35 184 106 255s156 107 256 107
c101 0 186 -35 256 -106c71 -71 106 -156 106 -257c0 -99 -36 -184 -107 -255s-156 -106 -256 -106zM473 12c95 0 175 33 240 98c66 66 99 146 99 239c0 94 -33 174 -99 240c-65 66 -145 99 -239 99s-174 -33 -240 -99c-65 -66 -98 -146 -98 -240c0 -93 33 -173 98 -239
c65 -65 145 -98 239 -98z" />
    <glyph glyph-name="overscore" unicode="&#xaf;" horiz-adv-x="519" 
d="M480 625h-230l5 38h231z" />
    <glyph glyph-name="degree" unicode="&#xb0;" horiz-adv-x="437" 
d="M307 673c-60 0 -108 -49 -108 -110c0 -60 48 -109 108 -109c61 0 109 49 109 109c0 61 -48 110 -109 110zM307 712c41 0 77 -15 106 -44s44 -64 44 -105s-15 -76 -44 -105s-65 -43 -106 -43s-76 14 -105 43s-44 64 -44 105s15 76 44 105s64 44 105 44z" />
    <glyph glyph-name="plusminus" unicode="&#xb1;" horiz-adv-x="600" 
d="M350 188h-41l28 172h-214l7 42h213l27 173h42l-27 -173h212l-7 -42h-212zM544 68h-467l7 41h466z" />
    <glyph glyph-name="twosuperior" unicode="&#xb2;" horiz-adv-x="349" 
d="M141 620l7 46c33 26 71 39 113 39c71 0 119 -45 119 -106c0 -51 -34 -93 -102 -149l-113 -91h198l-5 -37h-262l4 31l145 118c63 51 91 82 91 122c0 44 -35 73 -82 73c-37 0 -75 -15 -113 -46z" />
    <glyph glyph-name="threesuperior" unicode="&#xb3;" horiz-adv-x="320" 
d="M378 700l-5 -31l-129 -112c61 -5 110 -44 110 -105c0 -42 -15 -75 -45 -99s-67 -36 -110 -36c-49 0 -88 11 -119 32l6 41c28 -23 65 -35 110 -35c61 0 116 35 116 95c0 47 -42 75 -98 75c-13 0 -25 -1 -36 -3l4 28l130 113h-171l6 37h231z" />
    <glyph glyph-name="acute" unicode="&#xb4;" horiz-adv-x="507" 
d="M333 577h-50l117 130h62z" />
    <glyph glyph-name="mu" unicode="&#xb5;" horiz-adv-x="619" 
d="M606 477l-76 -477h-45l13 79c-61 -61 -130 -91 -207 -91c-64 0 -111 22 -140 65l-49 -307h-45l116 731h45l-40 -254c-5 -31 -7 -55 -7 -72c0 -80 51 -121 134 -121c39 0 77 11 114 32c37 22 66 47 88 75l54 340h45z" />
    <glyph glyph-name="paragraph" unicode="&#xb6;" horiz-adv-x="504" 
d="M376 700h133l-110 -700h-46l51 327h-86c-120 0 -189 64 -189 159c0 66 23 118 70 156c47 39 106 58 177 58z" />
    <glyph glyph-name="middot" unicode="&#xb7;" horiz-adv-x="222" 
d="M137 353c-36 33 21 90 54 54c36 -33 -21 -90 -54 -54z" />
    <glyph glyph-name="cedilla" unicode="&#xb8;" horiz-adv-x="454" 
d="M188 -127h-57l109 132h42z" />
    <glyph glyph-name="onesuperior" unicode="&#xb9;" horiz-adv-x="239" 
d="M225 322h-43l52 332l-114 -63l7 44l117 65h40z" />
    <glyph glyph-name="ordmasculine" unicode="&#xba;" horiz-adv-x="453" 
d="M313 705c56 0 101 -18 136 -53s52 -77 52 -128c0 -57 -20 -105 -60 -146c-39 -41 -89 -61 -148 -61c-55 0 -100 18 -135 53c-34 35 -51 78 -51 129c0 57 20 105 59 145c39 41 88 61 147 61zM294 356c45 0 84 16 115 49s47 73 47 120c0 80 -58 140 -142 140
c-45 0 -84 -16 -116 -49c-31 -32 -47 -71 -47 -118c0 -81 58 -142 143 -142z" />
    <glyph glyph-name="guillemotright" unicode="&#xbb;" horiz-adv-x="552" 
d="M374 435h50l127 -184l-5 -27l-184 -182h-54l199 199zM150 435h50l127 -184l-5 -27l-184 -182h-54l199 199z" />
    <glyph glyph-name="onequarter" unicode="&#xbc;" horiz-adv-x="732" 
d="M121 0l518 700h49l-518 -700h-49zM225 322h-43l52 332l-114 -63l7 44l117 65h40zM647 0h-42l16 103h-201l4 32l242 243h40l-37 -239h62l-6 -36h-62zM656 317l-178 -178h149z" />
    <glyph glyph-name="onehalf" unicode="&#xbd;" horiz-adv-x="799" 
d="M121 0l518 700h49l-518 -700h-49zM225 322h-43l52 332l-114 -63l7 44l117 65h40zM541 298l7 46c33 26 71 39 113 39c71 0 119 -45 119 -106c0 -51 -34 -93 -102 -149l-113 -91h198l-5 -37h-262l4 31l145 118c63 51 91 82 91 122c0 44 -35 73 -82 73
c-37 0 -75 -15 -113 -46z" />
    <glyph glyph-name="threequarters" unicode="&#xbe;" horiz-adv-x="780" 
d="M695 0h-42l16 103h-201l4 32l242 243h40l-37 -239h62l-6 -36h-62zM704 317l-178 -178h149zM378 700l-5 -31l-129 -112c61 -5 110 -44 110 -105c0 -42 -15 -75 -45 -99s-67 -36 -110 -36c-49 0 -88 11 -119 32l6 41c28 -23 65 -35 110 -35c61 0 116 35 116 95
c0 47 -42 75 -98 75c-13 0 -25 -1 -36 -3l4 28l130 113h-171l6 37h231zM167 0l518 700h49l-518 -700h-49z" />
    <glyph glyph-name="questiondown" unicode="&#xbf;" horiz-adv-x="467" 
d="M287 268h43l-20 -124c-33 -6 -65 -16 -96 -30c-61 -28 -115 -85 -115 -149c0 -75 59 -127 155 -127c59 0 116 18 171 55l-8 -48c-49 -33 -106 -49 -171 -49c-57 0 -104 16 -140 47s-54 71 -54 119c0 54 21 98 62 133c42 35 94 61 157 77zM306 415c-36 33 21 90 54 54
c36 -33 -21 -90 -54 -54z" />
    <glyph glyph-name="Agrave" unicode="&#xc0;" horiz-adv-x="744" 
d="M711 0h-49l-60 206h-393l-124 -206h-52l429 704h43zM591 246l-115 398l-242 -398h357zM512 763h-46l-88 130h59z" />
    <glyph glyph-name="Aacute" unicode="&#xc1;" horiz-adv-x="744" 
d="M711 0h-49l-60 206h-393l-124 -206h-52l429 704h43zM591 246l-115 398l-242 -398h357zM522 763h-49l117 130h61z" />
    <glyph glyph-name="Acircumflex" unicode="&#xc2;" horiz-adv-x="744" 
d="M711 0h-49l-60 206h-393l-124 -206h-52l429 704h43zM591 246l-115 398l-242 -398h357zM487 893h48l86 -130h-47l-66 97l-98 -97h-52z" />
    <glyph glyph-name="Atilde" unicode="&#xc3;" horiz-adv-x="744" 
d="M711 0h-49l-60 206h-393l-124 -206h-52l429 704h43zM591 246l-115 398l-242 -398h357zM619 873h37c-11 -59 -45 -96 -90 -96c-19 0 -42 10 -71 31c-28 21 -49 31 -62 31c-25 0 -41 -19 -49 -56h-37c11 57 45 94 90 94c19 0 42 -10 71 -31s49 -31 61 -31c28 0 41 21 50 58
z" />
    <glyph glyph-name="Adieresis" unicode="&#xc4;" horiz-adv-x="744" 
d="M711 0h-49l-60 206h-393l-124 -206h-52l429 704h43zM591 246l-115 398l-242 -398h357zM572 799c-34 32 21 86 51 51c35 -30 -19 -85 -51 -51zM382 799c-34 32 21 86 51 51c35 -30 -19 -85 -51 -51z" />
    <glyph glyph-name="Aring" unicode="&#xc5;" horiz-adv-x="744" 
d="M711 0h-49l-60 206h-393l-124 -206h-52l429 704h43zM591 246l-115 398l-242 -398h357zM498 735c-53 0 -95 42 -95 93s42 93 95 93c49 0 91 -42 91 -93s-42 -93 -91 -93zM498 768c33 0 60 27 60 60c0 35 -27 61 -60 61c-35 0 -62 -26 -62 -61c0 -33 27 -60 62 -60z" />
    <glyph glyph-name="AE" unicode="&#xc6;" horiz-adv-x="1015" 
d="M964 0h-481l33 206h-298l-163 -206h-56l554 700h506l-7 -43h-418l-41 -259h345l-7 -43h-345l-49 -312h434zM588 657h-11l-327 -411h272z" />
    <glyph glyph-name="Ccedilla" unicode="&#xc7;" horiz-adv-x="692" 
d="M369 -127h-57l97 118c-85 11 -154 46 -205 106c-51 61 -76 134 -76 221c0 108 35 201 106 278s162 116 271 116c81 0 151 -20 210 -61l-7 -46c-58 42 -126 63 -204 63c-92 0 -170 -34 -234 -101c-63 -67 -95 -149 -95 -246c0 -83 26 -152 79 -207s121 -82 206 -82
c79 0 149 22 210 67l-8 -52c-59 -39 -127 -59 -205 -59h-6z" />
    <glyph glyph-name="Egrave" unicode="&#xc8;" horiz-adv-x="645" 
d="M594 0h-484l111 700h468l-7 -43h-422l-41 -259h349l-7 -43h-349l-49 -312h438zM497 763h-46l-88 130h59z" />
    <glyph glyph-name="Eacute" unicode="&#xc9;" horiz-adv-x="645" 
d="M594 0h-484l111 700h468l-7 -43h-422l-41 -259h349l-7 -43h-349l-49 -312h438zM469 763h-49l117 130h61z" />
    <glyph glyph-name="Ecircumflex" unicode="&#xca;" horiz-adv-x="645" 
d="M594 0h-484l111 700h468l-7 -43h-422l-41 -259h349l-7 -43h-349l-49 -312h438zM461 893h48l86 -130h-47l-66 97l-98 -97h-52z" />
    <glyph glyph-name="Edieresis" unicode="&#xcb;" horiz-adv-x="645" 
d="M594 0h-484l111 700h468l-7 -43h-422l-41 -259h349l-7 -43h-349l-49 -312h438zM536 799c-34 32 21 86 51 51c35 -30 -19 -85 -51 -51zM346 799c-34 32 21 86 51 51c35 -30 -19 -85 -51 -51z" />
    <glyph glyph-name="Igrave" unicode="&#xcc;" horiz-adv-x="269" 
d="M158 0h-46l111 700h46zM276 763h-46l-88 130h59z" />
    <glyph glyph-name="Iacute" unicode="&#xcd;" horiz-adv-x="269" 
d="M158 0h-46l111 700h46zM282 763h-49l117 130h61z" />
    <glyph glyph-name="Icircumflex" unicode="&#xce;" horiz-adv-x="269" 
d="M257 893h48l86 -130h-47l-66 97l-98 -97h-52zM158 0h-46l111 700h46z" />
    <glyph glyph-name="Idieresis" unicode="&#xcf;" horiz-adv-x="269" 
d="M158 0h-46l111 700h46zM334 799c-34 32 21 86 51 51c35 -30 -19 -85 -51 -51zM144 799c-34 32 21 86 51 51c35 -30 -19 -85 -51 -51z" />
    <glyph glyph-name="Eth" unicode="&#xd0;" horiz-adv-x="816" 
d="M81 332l6 43h117l52 325h197c104 0 187 -29 249 -86c63 -57 94 -132 94 -225c0 -118 -40 -212 -121 -283s-184 -106 -311 -106h-219l52 332h-116zM197 43h182c107 0 196 31 265 94s104 146 104 251c0 81 -27 146 -81 195s-128 74 -222 74h-150l-45 -282h171l-6 -43h-172z
" />
    <glyph glyph-name="Ntilde" unicode="&#xd1;" horiz-adv-x="778" 
d="M674 0h-41l-379 624l-98 -624h-46l110 700h41l379 -624l98 624h46zM637 873h37c-11 -59 -45 -96 -90 -96c-19 0 -42 10 -71 31c-28 21 -49 31 -62 31c-25 0 -41 -19 -49 -56h-37c11 57 45 94 90 94c19 0 42 -10 71 -31s49 -31 61 -31c28 0 41 21 50 58z" />
    <glyph glyph-name="Ograve" unicode="&#xd2;" horiz-adv-x="846" 
d="M501 712c97 0 176 -31 235 -94c60 -63 90 -142 90 -237c5 -207 -160 -396 -372 -393c-97 0 -176 31 -236 94s-90 143 -90 238c0 107 35 199 106 276s160 116 267 116zM456 32c89 0 165 34 228 101c63 68 95 150 95 247c0 83 -26 151 -78 206c-51 55 -119 82 -202 82
c-90 0 -167 -34 -230 -101s-94 -149 -94 -246c0 -83 26 -152 78 -207s120 -82 203 -82zM566 763h-46l-88 130h59z" />
    <glyph glyph-name="Oacute" unicode="&#xd3;" horiz-adv-x="846" 
d="M501 712c97 0 176 -31 235 -94c60 -63 90 -142 90 -237c5 -207 -160 -396 -372 -393c-97 0 -176 31 -236 94s-90 143 -90 238c0 107 35 199 106 276s160 116 267 116zM456 32c89 0 165 34 228 101c63 68 95 150 95 247c0 83 -26 151 -78 206c-51 55 -119 82 -202 82
c-90 0 -167 -34 -230 -101s-94 -149 -94 -246c0 -83 26 -152 78 -207s120 -82 203 -82zM550 763h-49l117 130h61z" />
    <glyph glyph-name="Ocircumflex" unicode="&#xd4;" horiz-adv-x="846" 
d="M539 893h48l86 -130h-47l-66 97l-98 -97h-52zM501 712c97 0 176 -31 235 -94c60 -63 90 -142 90 -237c5 -207 -160 -396 -372 -393c-97 0 -176 31 -236 94s-90 143 -90 238c0 107 35 199 106 276s160 116 267 116zM456 32c89 0 165 34 228 101c63 68 95 150 95 247
c0 83 -26 151 -78 206c-51 55 -119 82 -202 82c-90 0 -167 -34 -230 -101s-94 -149 -94 -246c0 -83 26 -152 78 -207s120 -82 203 -82z" />
    <glyph glyph-name="Otilde" unicode="&#xd5;" horiz-adv-x="846" 
d="M501 712c97 0 176 -31 235 -94c60 -63 90 -142 90 -237c5 -207 -160 -396 -372 -393c-97 0 -176 31 -236 94s-90 143 -90 238c0 107 35 199 106 276s160 116 267 116zM456 32c89 0 165 34 228 101c63 68 95 150 95 247c0 83 -26 151 -78 206c-51 55 -119 82 -202 82
c-90 0 -167 -34 -230 -101s-94 -149 -94 -246c0 -83 26 -152 78 -207s120 -82 203 -82zM667 873h37c-11 -59 -45 -96 -90 -96c-19 0 -42 10 -71 31c-28 21 -49 31 -62 31c-25 0 -41 -19 -49 -56h-37c11 57 45 94 90 94c19 0 42 -10 71 -31s49 -31 61 -31c28 0 41 21 50 58z
" />
    <glyph glyph-name="Odieresis" unicode="&#xd6;" horiz-adv-x="846" 
d="M501 712c97 0 176 -31 235 -94c60 -63 90 -142 90 -237c5 -207 -160 -396 -372 -393c-97 0 -176 31 -236 94s-90 143 -90 238c0 107 35 199 106 276s160 116 267 116zM456 32c89 0 165 34 228 101c63 68 95 150 95 247c0 83 -26 151 -78 206c-51 55 -119 82 -202 82
c-90 0 -167 -34 -230 -101s-94 -149 -94 -246c0 -83 26 -152 78 -207s120 -82 203 -82zM615 799c-34 32 21 86 51 51c35 -30 -19 -85 -51 -51zM425 799c-34 32 21 86 51 51c35 -30 -19 -85 -51 -51z" />
    <glyph glyph-name="multiply" unicode="&#xd7;" horiz-adv-x="515" 
d="M311 353l186 160l27 -30l-186 -161l135 -159l-32 -29l-134 159l-187 -159l-27 30l186 160l-135 161l32 28z" />
    <glyph glyph-name="Oslash" unicode="&#xd8;" horiz-adv-x="846" 
d="M501 712c90 0 165 -28 225 -84l71 72h55l-100 -101c49 -60 74 -133 74 -218c5 -207 -160 -396 -372 -393c-90 0 -165 28 -224 83l-70 -71h-56l99 100c-50 61 -75 134 -75 220c0 107 35 199 106 276s160 116 267 116zM175 321c0 -73 20 -136 61 -188l456 461
c-51 49 -116 74 -193 74c-90 0 -167 -34 -230 -101s-94 -149 -94 -246zM456 32c89 0 165 34 228 101c63 68 95 150 95 247c0 72 -20 134 -60 185l-456 -461c51 -48 116 -72 193 -72z" />
    <glyph glyph-name="Ugrave" unicode="&#xd9;" horiz-adv-x="747" 
d="M654 302l63 398h46l-66 -415c-31 -192 -149 -297 -309 -297c-155 0 -253 90 -253 247c0 18 3 50 10 97l59 368h46l-59 -376c-6 -39 -9 -67 -9 -83c0 -131 76 -209 208 -209c141 0 237 98 264 270zM528 763h-46l-88 130h59z" />
    <glyph glyph-name="Uacute" unicode="&#xda;" horiz-adv-x="747" 
d="M654 302l63 398h46l-66 -415c-31 -192 -149 -297 -309 -297c-155 0 -253 90 -253 247c0 18 3 50 10 97l59 368h46l-59 -376c-6 -39 -9 -67 -9 -83c0 -131 76 -209 208 -209c141 0 237 98 264 270zM506 763h-49l117 130h61z" />
    <glyph glyph-name="Ucircumflex" unicode="&#xdb;" horiz-adv-x="747" 
d="M654 302l63 398h46l-66 -415c-31 -192 -149 -297 -309 -297c-155 0 -253 90 -253 247c0 18 3 50 10 97l59 368h46l-59 -376c-6 -39 -9 -67 -9 -83c0 -131 76 -209 208 -209c141 0 237 98 264 270zM482 893h48l86 -130h-47l-66 97l-98 -97h-52z" />
    <glyph glyph-name="Udieresis" unicode="&#xdc;" horiz-adv-x="747" 
d="M654 302l63 398h46l-66 -415c-31 -192 -149 -297 -309 -297c-155 0 -253 90 -253 247c0 18 3 50 10 97l59 368h46l-59 -376c-6 -39 -9 -67 -9 -83c0 -131 76 -209 208 -209c141 0 237 98 264 270zM572 799c-34 32 21 86 51 51c35 -30 -19 -85 -51 -51zM382 799
c-34 32 21 86 51 51c35 -30 -19 -85 -51 -51z" />
    <glyph glyph-name="Yacute" unicode="&#xdd;" horiz-adv-x="646" 
d="M378 369l295 331h56l-332 -375l-51 -325h-47l51 324l-214 376h53zM455 763h-49l117 130h61z" />
    <glyph glyph-name="Thorn" unicode="&#xde;" horiz-adv-x="672" 
d="M241 538h234c125 0 198 -66 198 -166c0 -63 -23 -114 -68 -153s-102 -58 -171 -58h-252l-26 -161h-46l111 700h46zM235 495l-47 -291h250c51 0 95 14 132 43s56 69 56 120c0 81 -56 128 -157 128h-234z" />
    <glyph glyph-name="germandbls" unicode="&#xdf;" horiz-adv-x="610" 
d="M354 -12c-43 0 -79 7 -107 20l7 45c26 -15 60 -23 102 -23c51 0 95 16 132 49c38 33 57 77 57 130c0 92 -70 156 -185 161l-22 1l7 40h36c43 1 80 12 111 35s46 55 46 98c0 68 -56 121 -145 121c-91 0 -162 -59 -178 -158l-81 -507h-45l80 507c20 125 109 200 228 200
c57 0 103 -15 136 -46c34 -31 51 -68 51 -112c0 -76 -50 -138 -131 -163c80 -21 139 -85 139 -174c0 -65 -23 -119 -68 -161s-102 -63 -170 -63z" />
    <glyph glyph-name="agrave" unicode="&#xe0;" horiz-adv-x="590" 
d="M164 406l8 45c47 25 104 38 173 38c53 0 98 -12 133 -37c35 -24 53 -61 53 -112c0 -15 -3 -41 -9 -80l-22 -138c-3 -17 -4 -31 -4 -40c0 -31 15 -47 46 -47c9 0 18 1 25 4l-6 -37c-8 -4 -20 -6 -35 -6c-43 0 -75 29 -75 76c-57 -56 -126 -84 -205 -84
c-51 0 -94 13 -127 40s-50 63 -50 107c0 53 21 94 62 122c41 29 90 43 145 43c75 0 141 -19 198 -58l7 44c3 21 5 38 5 49c0 75 -50 112 -149 112c-66 0 -124 -14 -173 -41zM455 123l12 77c-52 40 -113 60 -184 60c-47 0 -86 -10 -119 -31s-49 -51 -49 -90
c0 -71 60 -109 147 -109c76 0 149 44 193 93zM443 577h-46l-88 130h59z" />
    <glyph glyph-name="aacute" unicode="&#xe1;" horiz-adv-x="590" 
d="M164 406l8 45c47 25 104 38 173 38c53 0 98 -12 133 -37c35 -24 53 -61 53 -112c0 -15 -3 -41 -9 -80l-22 -138c-3 -17 -4 -31 -4 -40c0 -31 15 -47 46 -47c9 0 18 1 25 4l-6 -37c-8 -4 -20 -6 -35 -6c-43 0 -75 29 -75 76c-57 -56 -126 -84 -205 -84
c-51 0 -94 13 -127 40s-50 63 -50 107c0 53 21 94 62 122c41 29 90 43 145 43c75 0 141 -19 198 -58l7 44c3 21 5 38 5 49c0 75 -50 112 -149 112c-66 0 -124 -14 -173 -41zM455 123l12 77c-52 40 -113 60 -184 60c-47 0 -86 -10 -119 -31s-49 -51 -49 -90
c0 -71 60 -109 147 -109c76 0 149 44 193 93zM384 577h-50l117 130h62z" />
    <glyph glyph-name="acircumflex" unicode="&#xe2;" horiz-adv-x="590" 
d="M164 406l8 45c47 25 104 38 173 38c53 0 98 -12 133 -37c35 -24 53 -61 53 -112c0 -15 -3 -41 -9 -80l-22 -138c-3 -17 -4 -31 -4 -40c0 -31 15 -47 46 -47c9 0 18 1 25 4l-6 -37c-8 -4 -20 -6 -35 -6c-43 0 -75 29 -75 76c-57 -56 -126 -84 -205 -84
c-51 0 -94 13 -127 40s-50 63 -50 107c0 53 21 94 62 122c41 29 90 43 145 43c75 0 141 -19 198 -58l7 44c3 21 5 38 5 49c0 75 -50 112 -149 112c-66 0 -124 -14 -173 -41zM455 123l12 77c-52 40 -113 60 -184 60c-47 0 -86 -10 -119 -31s-49 -51 -49 -90
c0 -71 60 -109 147 -109c76 0 149 44 193 93zM370 706h48l86 -130h-47l-66 97l-98 -97h-52z" />
    <glyph glyph-name="atilde" unicode="&#xe3;" horiz-adv-x="590" 
d="M164 406l8 45c47 25 104 38 173 38c53 0 98 -12 133 -37c35 -24 53 -61 53 -112c0 -15 -3 -41 -9 -80l-22 -138c-3 -17 -4 -31 -4 -40c0 -31 15 -47 46 -47c9 0 18 1 25 4l-6 -37c-8 -4 -20 -6 -35 -6c-43 0 -75 29 -75 76c-57 -56 -126 -84 -205 -84
c-51 0 -94 13 -127 40s-50 63 -50 107c0 53 21 94 62 122c41 29 90 43 145 43c75 0 141 -19 198 -58l7 44c3 21 5 38 5 49c0 75 -50 112 -149 112c-66 0 -124 -14 -173 -41zM455 123l12 77c-52 40 -113 60 -184 60c-47 0 -86 -10 -119 -31s-49 -51 -49 -90
c0 -71 60 -109 147 -109c76 0 149 44 193 93zM452 593c-19 0 -43 10 -72 31s-49 32 -61 32c-24 0 -41 -19 -50 -57h-38c11 59 46 97 91 97c19 0 42 -10 71 -31s50 -31 62 -31c22 0 38 19 48 57h38c-11 -59 -44 -98 -89 -98z" />
    <glyph glyph-name="adieresis" unicode="&#xe4;" horiz-adv-x="590" 
d="M164 406l8 45c47 25 104 38 173 38c53 0 98 -12 133 -37c35 -24 53 -61 53 -112c0 -15 -3 -41 -9 -80l-22 -138c-3 -17 -4 -31 -4 -40c0 -31 15 -47 46 -47c9 0 18 1 25 4l-6 -37c-8 -4 -20 -6 -35 -6c-43 0 -75 29 -75 76c-57 -56 -126 -84 -205 -84
c-51 0 -94 13 -127 40s-50 63 -50 107c0 53 21 94 62 122c41 29 90 43 145 43c75 0 141 -19 198 -58l7 44c3 21 5 38 5 49c0 75 -50 112 -149 112c-66 0 -124 -14 -173 -41zM455 123l12 77c-52 40 -113 60 -184 60c-47 0 -86 -10 -119 -31s-49 -51 -49 -90
c0 -71 60 -109 147 -109c76 0 149 44 193 93zM455 619c-34 32 21 86 51 51c35 -30 -19 -85 -51 -51zM265 619c-34 32 21 86 51 51c35 -30 -19 -85 -51 -51z" />
    <glyph glyph-name="aring" unicode="&#xe5;" horiz-adv-x="590" 
d="M164 406l8 45c47 25 104 38 173 38c53 0 98 -12 133 -37c35 -24 53 -61 53 -112c0 -15 -3 -41 -9 -80l-22 -138c-3 -17 -4 -31 -4 -40c0 -31 15 -47 46 -47c9 0 18 1 25 4l-6 -37c-8 -4 -20 -6 -35 -6c-43 0 -75 29 -75 76c-57 -56 -126 -84 -205 -84
c-51 0 -94 13 -127 40s-50 63 -50 107c0 53 21 94 62 122c41 29 90 43 145 43c75 0 141 -19 198 -58l7 44c3 21 5 38 5 49c0 75 -50 112 -149 112c-66 0 -124 -14 -173 -41zM455 123l12 77c-52 40 -113 60 -184 60c-47 0 -86 -10 -119 -31s-49 -51 -49 -90
c0 -71 60 -109 147 -109c76 0 149 44 193 93zM399 533c-53 0 -95 42 -95 93s42 93 95 93c49 0 91 -42 91 -93s-42 -93 -91 -93zM399 566c33 0 60 27 60 60c0 35 -27 61 -60 61c-35 0 -62 -26 -62 -61c0 -33 27 -60 62 -60z" />
    <glyph glyph-name="ae" unicode="&#xe6;" horiz-adv-x="951" 
d="M932 232h-415v-16c0 -57 19 -103 58 -136s88 -50 146 -50c51 0 101 15 148 44l-6 -46c-39 -27 -89 -40 -148 -40c-93 0 -173 41 -213 112c-75 -75 -160 -112 -256 -112c-51 0 -94 13 -127 40s-50 63 -50 107c0 53 21 94 62 122s90 42 145 42c75 0 141 -19 198 -58l7 45
c3 21 5 38 5 49c0 75 -50 112 -149 112c-66 0 -124 -14 -173 -41l8 45c47 25 104 38 173 38c89 0 160 -34 180 -106c51 71 120 106 207 106c66 0 116 -21 151 -63s52 -90 52 -145c0 -19 -1 -35 -3 -49zM485 135c-7 18 -11 39 -13 62c-55 43 -118 64 -189 64
c-47 0 -86 -11 -119 -32s-49 -51 -49 -90c0 -71 60 -109 147 -109c85 0 159 35 223 105zM728 447c-52 0 -97 -17 -135 -50s-62 -75 -71 -126h368c1 5 1 10 1 17c0 42 -14 79 -42 111c-27 32 -68 48 -121 48z" />
    <glyph glyph-name="ccedilla" unicode="&#xe7;" horiz-adv-x="516" 
d="M90 217c0 77 26 142 78 194c53 52 117 78 194 78c62 0 114 -15 157 -44l-6 -43c-42 30 -91 45 -146 45c-65 0 -120 -22 -165 -66c-44 -44 -66 -98 -66 -162c0 -55 18 -100 55 -136c37 -35 85 -53 145 -53c48 0 94 13 139 39l-6 -48c-40 -21 -85 -32 -134 -33l-82 -115
h-57l96 117c-63 7 -113 32 -149 74c-35 43 -53 94 -53 153z" />
    <glyph glyph-name="egrave" unicode="&#xe8;" horiz-adv-x="569" 
d="M339 30c51 0 101 15 148 44l-6 -46c-39 -27 -89 -40 -148 -40c-70 0 -128 21 -174 63s-69 97 -69 164c0 73 24 137 73 192s111 82 187 82c66 0 116 -21 151 -63s52 -90 52 -145c0 -19 -1 -35 -3 -49h-415v-16c0 -57 19 -103 58 -136s88 -50 146 -50zM346 447
c-52 0 -97 -17 -135 -50s-62 -75 -71 -126h368c1 5 1 10 1 17c0 42 -14 79 -42 111c-27 32 -68 48 -121 48zM422 577h-46l-88 130h59z" />
    <glyph glyph-name="eacute" unicode="&#xe9;" horiz-adv-x="569" 
d="M339 30c51 0 101 15 148 44l-6 -46c-39 -27 -89 -40 -148 -40c-70 0 -128 21 -174 63s-69 97 -69 164c0 73 24 137 73 192s111 82 187 82c66 0 116 -21 151 -63s52 -90 52 -145c0 -19 -1 -35 -3 -49h-415v-16c0 -57 19 -103 58 -136s88 -50 146 -50zM346 447
c-52 0 -97 -17 -135 -50s-62 -75 -71 -126h368c1 5 1 10 1 17c0 42 -14 79 -42 111c-27 32 -68 48 -121 48zM383 577h-50l117 130h62z" />
    <glyph glyph-name="ecircumflex" unicode="&#xea;" horiz-adv-x="569" 
d="M339 30c51 0 101 15 148 44l-6 -46c-39 -27 -89 -40 -148 -40c-70 0 -128 21 -174 63s-69 97 -69 164c0 73 24 137 73 192s111 82 187 82c66 0 116 -21 151 -63s52 -90 52 -145c0 -19 -1 -35 -3 -49h-415v-16c0 -57 19 -103 58 -136s88 -50 146 -50zM346 447
c-52 0 -97 -17 -135 -50s-62 -75 -71 -126h368c1 5 1 10 1 17c0 42 -14 79 -42 111c-27 32 -68 48 -121 48zM376 706h48l86 -130h-47l-66 97l-98 -97h-52z" />
    <glyph glyph-name="edieresis" unicode="&#xeb;" horiz-adv-x="569" 
d="M339 30c51 0 101 15 148 44l-6 -46c-39 -27 -89 -40 -148 -40c-70 0 -128 21 -174 63s-69 97 -69 164c0 73 24 137 73 192s111 82 187 82c66 0 116 -21 151 -63s52 -90 52 -145c0 -19 -1 -35 -3 -49h-415v-16c0 -57 19 -103 58 -136s88 -50 146 -50zM346 447
c-52 0 -97 -17 -135 -50s-62 -75 -71 -126h368c1 5 1 10 1 17c0 42 -14 79 -42 111c-27 32 -68 48 -121 48zM457 619c-34 32 21 86 51 51c35 -30 -19 -85 -51 -51zM267 619c-34 32 21 86 51 51c35 -30 -19 -85 -51 -51z" />
    <glyph glyph-name="igrave" unicode="&#xec;" horiz-adv-x="250" 
d="M148 0h-45l76 477h45zM238 577h-46l-88 130h59z" />
    <glyph glyph-name="iacute" unicode="&#xed;" horiz-adv-x="250" 
d="M245 577h-50l117 130h61zM148 0h-45l76 477h45z" />
    <glyph glyph-name="icircumflex" unicode="&#xee;" horiz-adv-x="250" 
d="M210 706h48l86 -130h-47l-66 97l-98 -97h-52zM148 0h-45l76 477h45z" />
    <glyph glyph-name="idieresis" unicode="&#xef;" horiz-adv-x="250" 
d="M296 619c-34 32 21 86 51 51c35 -30 -19 -85 -51 -51zM106 619c-34 32 21 86 51 51c35 -30 -19 -85 -51 -51zM148 0h-45l76 477h45z" />
    <glyph glyph-name="eth" unicode="&#xf0;" horiz-adv-x="590" 
d="M382 613l136 -223c33 -54 50 -104 50 -150c0 -69 -24 -129 -72 -178s-108 -74 -179 -74c-69 0 -124 21 -165 63c-41 43 -62 95 -62 156c0 69 24 129 72 179c49 50 108 75 179 75c40 0 75 -9 106 -28l-103 166l-150 -58l-17 30l148 58l-42 71h47l33 -56l127 49l18 -30z
M317 30c57 0 106 20 145 61c40 41 60 91 60 150c0 51 -17 94 -50 128c-33 35 -77 52 -130 52c-57 0 -105 -21 -146 -63c-40 -41 -60 -91 -60 -149c0 -52 17 -95 50 -129c33 -33 77 -50 131 -50z" />
    <glyph glyph-name="ntilde" unicode="&#xf1;" horiz-adv-x="602" 
d="M89 0l76 477h45l-13 -79c61 61 130 91 207 91c100 0 166 -62 166 -158c0 -7 -3 -34 -9 -80l-39 -251h-45l40 254c5 31 7 55 7 72c0 80 -51 121 -134 121c-39 0 -77 -11 -114 -33c-37 -21 -66 -46 -88 -74l-54 -340h-45zM482 593c-19 0 -43 10 -72 31s-49 32 -61 32
c-24 0 -41 -19 -50 -57h-38c11 59 46 97 91 97c19 0 42 -10 71 -31s50 -31 62 -31c22 0 38 19 48 57h38c-11 -59 -44 -98 -89 -98z" />
    <glyph glyph-name="ograve" unicode="&#xf2;" horiz-adv-x="616" 
d="M356 489c72 0 130 -23 173 -68s65 -101 65 -166c0 -73 -25 -136 -76 -189c-51 -52 -114 -78 -189 -78c-72 0 -130 23 -174 68c-43 45 -65 101 -65 166c0 73 25 136 76 188c51 53 114 79 190 79zM329 32c61 0 112 22 155 65c43 44 64 97 64 159c0 55 -18 100 -54 135
c-35 36 -82 54 -139 54c-60 0 -112 -22 -155 -66c-43 -43 -64 -96 -64 -158c0 -55 18 -100 53 -136c36 -35 83 -53 140 -53zM447 577h-46l-88 130h59z" />
    <glyph glyph-name="oacute" unicode="&#xf3;" horiz-adv-x="616" 
d="M356 489c72 0 130 -23 173 -68s65 -101 65 -166c0 -73 -25 -136 -76 -189c-51 -52 -114 -78 -189 -78c-72 0 -130 23 -174 68c-43 45 -65 101 -65 166c0 73 25 136 76 188c51 53 114 79 190 79zM329 32c61 0 112 22 155 65c43 44 64 97 64 159c0 55 -18 100 -54 135
c-35 36 -82 54 -139 54c-60 0 -112 -22 -155 -66c-43 -43 -64 -96 -64 -158c0 -55 18 -100 53 -136c36 -35 83 -53 140 -53zM402 577h-50l117 130h62z" />
    <glyph glyph-name="ocircumflex" unicode="&#xf4;" horiz-adv-x="616" 
d="M390 706h48l86 -130h-47l-66 97l-98 -97h-52zM356 489c72 0 130 -23 173 -68s65 -101 65 -166c0 -73 -25 -136 -76 -189c-51 -52 -114 -78 -189 -78c-72 0 -130 23 -174 68c-43 45 -65 101 -65 166c0 73 25 136 76 188c51 53 114 79 190 79zM329 32c61 0 112 22 155 65
c43 44 64 97 64 159c0 55 -18 100 -54 135c-35 36 -82 54 -139 54c-60 0 -112 -22 -155 -66c-43 -43 -64 -96 -64 -158c0 -55 18 -100 53 -136c36 -35 83 -53 140 -53z" />
    <glyph glyph-name="otilde" unicode="&#xf5;" horiz-adv-x="616" 
d="M356 489c72 0 130 -23 173 -68s65 -101 65 -166c0 -73 -25 -136 -76 -189c-51 -52 -114 -78 -189 -78c-72 0 -130 23 -174 68c-43 45 -65 101 -65 166c0 73 25 136 76 188c51 53 114 79 190 79zM329 32c61 0 112 22 155 65c43 44 64 97 64 159c0 55 -18 100 -54 135
c-35 36 -82 54 -139 54c-60 0 -112 -22 -155 -66c-43 -43 -64 -96 -64 -158c0 -55 18 -100 53 -136c36 -35 83 -53 140 -53zM474 593c-19 0 -43 10 -72 31s-49 32 -61 32c-24 0 -41 -19 -50 -57h-38c11 59 46 97 91 97c19 0 42 -10 71 -31s50 -31 62 -31c22 0 38 19 48 57
h38c-11 -59 -44 -98 -89 -98z" />
    <glyph glyph-name="odieresis" unicode="&#xf6;" horiz-adv-x="616" 
d="M356 489c72 0 130 -23 173 -68s65 -101 65 -166c0 -73 -25 -136 -76 -189c-51 -52 -114 -78 -189 -78c-72 0 -130 23 -174 68c-43 45 -65 101 -65 166c0 73 25 136 76 188c51 53 114 79 190 79zM329 32c61 0 112 22 155 65c43 44 64 97 64 159c0 55 -18 100 -54 135
c-35 36 -82 54 -139 54c-60 0 -112 -22 -155 -66c-43 -43 -64 -96 -64 -158c0 -55 18 -100 53 -136c36 -35 83 -53 140 -53zM475 619c-34 32 21 86 51 51c35 -30 -19 -85 -51 -51zM285 619c-34 32 21 86 51 51c35 -30 -19 -85 -51 -51z" />
    <glyph glyph-name="divide" unicode="&#xf7;" horiz-adv-x="571" 
d="M112 302l6 42h438l-6 -42h-438zM298 170c23 0 41 -18 41 -42s-18 -42 -41 -42c-24 0 -42 18 -42 42s18 42 42 42zM334 488c-16 16 -16 44 0 59c16 16 44 16 60 0c16 -15 16 -43 0 -59s-44 -16 -60 0z" />
    <glyph glyph-name="oslash" unicode="&#xf8;" horiz-adv-x="616" 
d="M356 489c62 0 115 -18 158 -55l43 43h52l-69 -69c36 -43 54 -94 54 -153c0 -73 -25 -136 -76 -189c-51 -52 -114 -78 -189 -78c-61 0 -112 17 -155 51l-38 -39h-53l64 64c-38 43 -57 96 -57 158c0 73 25 136 76 188c51 53 114 79 190 79zM136 221c0 -48 14 -90 43 -125
l304 306c-35 29 -78 43 -128 43c-60 0 -112 -22 -155 -66c-43 -43 -64 -96 -64 -158zM329 32c61 0 112 22 155 65c43 44 64 97 64 159c0 47 -13 86 -40 119l-302 -304c33 -26 74 -39 123 -39z" />
    <glyph glyph-name="ugrave" unicode="&#xf9;" horiz-adv-x="601" 
d="M588 477l-76 -477h-45l13 79c-61 -61 -130 -91 -207 -91c-100 0 -166 62 -166 158c0 7 3 34 9 80l39 251h45l-40 -254c-5 -31 -7 -55 -7 -72c0 -80 51 -121 134 -121c39 0 77 11 114 32c37 22 66 47 88 75l54 340h45zM431 577h-46l-88 130h59z" />
    <glyph glyph-name="uacute" unicode="&#xfa;" horiz-adv-x="601" 
d="M588 477l-76 -477h-45l13 79c-61 -61 -130 -91 -207 -91c-100 0 -166 62 -166 158c0 7 3 34 9 80l39 251h45l-40 -254c-5 -31 -7 -55 -7 -72c0 -80 51 -121 134 -121c39 0 77 11 114 32c37 22 66 47 88 75l54 340h45zM386 577h-50l117 130h62z" />
    <glyph glyph-name="ucircumflex" unicode="&#xfb;" horiz-adv-x="601" 
d="M588 477l-76 -477h-45l13 79c-61 -61 -130 -91 -207 -91c-100 0 -166 62 -166 158c0 7 3 34 9 80l39 251h45l-40 -254c-5 -31 -7 -55 -7 -72c0 -80 51 -121 134 -121c39 0 77 11 114 32c37 22 66 47 88 75l54 340h45zM382 706h48l86 -130h-47l-66 97l-98 -97h-52z" />
    <glyph glyph-name="udieresis" unicode="&#xfc;" horiz-adv-x="601" 
d="M588 477l-76 -477h-45l13 79c-61 -61 -130 -91 -207 -91c-100 0 -166 62 -166 158c0 7 3 34 9 80l39 251h45l-40 -254c-5 -31 -7 -55 -7 -72c0 -80 51 -121 134 -121c39 0 77 11 114 32c37 22 66 47 88 75l54 340h45zM464 619c-34 32 21 86 51 51c35 -30 -19 -85 -51 -51
zM274 619c-34 32 21 86 51 51c35 -30 -19 -85 -51 -51z" />
    <glyph glyph-name="yacute" unicode="&#xfd;" horiz-adv-x="538" 
d="M521 477h51l-312 -534c-57 -97 -114 -147 -187 -147c-25 0 -46 6 -65 17l6 42c18 -11 38 -17 59 -17c33 0 62 14 88 43c27 28 58 74 95 138l-155 458h48l137 -405zM351 577h-50l117 130h62z" />
    <glyph glyph-name="thorn" unicode="&#xfe;" horiz-adv-x="636" 
d="M147 90l-45 -290h-45l143 900h45l-49 -298c51 58 116 87 194 87c69 0 123 -22 163 -66c41 -43 61 -97 61 -161c0 -76 -25 -141 -75 -194c-49 -53 -112 -80 -188 -80c-92 0 -165 46 -204 102zM380 447c-37 0 -75 -10 -112 -31s-64 -46 -82 -77l-29 -196
c15 -30 39 -56 73 -79c35 -23 74 -34 117 -34c61 0 112 22 155 66s65 98 65 162c0 55 -17 100 -51 135c-34 36 -79 54 -136 54z" />
    <glyph glyph-name="ydieresis" unicode="&#xff;" horiz-adv-x="538" 
d="M521 477h51l-312 -534c-57 -97 -114 -147 -187 -147c-25 0 -46 6 -65 17l6 42c18 -11 38 -17 59 -17c33 0 62 14 88 43c27 28 58 74 95 138l-155 458h48l137 -405zM421 619c-34 32 21 86 51 51c35 -30 -19 -85 -51 -51zM231 619c-34 32 21 86 51 51
c35 -30 -19 -85 -51 -51z" />
    <glyph glyph-name="Amacron" unicode="&#x100;" horiz-adv-x="744" 
d="M711 0h-49l-60 206h-393l-124 -206h-52l429 704h43zM591 246l-115 398l-242 -398h357zM617 810h-230l5 38h231z" />
    <glyph glyph-name="amacron" unicode="&#x101;" horiz-adv-x="590" 
d="M164 406l8 45c47 25 104 38 173 38c53 0 98 -12 133 -37c35 -24 53 -61 53 -112c0 -15 -3 -41 -9 -80l-22 -138c-3 -17 -4 -31 -4 -40c0 -31 15 -47 46 -47c9 0 18 1 25 4l-6 -37c-8 -4 -20 -6 -35 -6c-43 0 -75 29 -75 76c-57 -56 -126 -84 -205 -84
c-51 0 -94 13 -127 40s-50 63 -50 107c0 53 21 94 62 122c41 29 90 43 145 43c75 0 141 -19 198 -58l7 44c3 21 5 38 5 49c0 75 -50 112 -149 112c-66 0 -124 -14 -173 -41zM455 123l12 77c-52 40 -113 60 -184 60c-47 0 -86 -10 -119 -31s-49 -51 -49 -90
c0 -71 60 -109 147 -109c76 0 149 44 193 93zM507 625h-230l5 38h231z" />
    <glyph glyph-name="Abreve" unicode="&#x102;" horiz-adv-x="744" 
d="M711 0h-49l-60 206h-393l-124 -206h-52l429 704h43zM591 246l-115 398l-242 -398h357zM496 763c-65 0 -116 46 -116 109c0 9 0 16 1 21h39c-1 -5 -1 -10 -1 -17c0 -44 31 -75 78 -75c52 0 90 39 101 92h40c-5 -37 -21 -68 -48 -93s-58 -37 -94 -37z" />
    <glyph glyph-name="abreve" unicode="&#x103;" horiz-adv-x="590" 
d="M164 406l8 45c47 25 104 38 173 38c53 0 98 -12 133 -37c35 -24 53 -61 53 -112c0 -15 -3 -41 -9 -80l-22 -138c-3 -17 -4 -31 -4 -40c0 -31 15 -47 46 -47c9 0 18 1 25 4l-6 -37c-8 -4 -20 -6 -35 -6c-43 0 -75 29 -75 76c-57 -56 -126 -84 -205 -84
c-51 0 -94 13 -127 40s-50 63 -50 107c0 53 21 94 62 122c41 29 90 43 145 43c75 0 141 -19 198 -58l7 44c3 21 5 38 5 49c0 75 -50 112 -149 112c-66 0 -124 -14 -173 -41zM455 123l12 77c-52 40 -113 60 -184 60c-47 0 -86 -10 -119 -31s-49 -51 -49 -90
c0 -71 60 -109 147 -109c76 0 149 44 193 93zM385 578c-65 0 -116 45 -116 108c0 9 0 16 1 21h39c-1 -5 -1 -10 -1 -17c0 -44 31 -74 78 -74c52 0 90 38 101 91h40c-5 -37 -21 -68 -48 -93c-27 -24 -58 -36 -94 -36z" />
    <glyph glyph-name="Aogonek" unicode="&#x104;" horiz-adv-x="744" 
d="M671 0h-9l-60 206h-393l-124 -206h-52l429 704h43l206 -704c-37 -34 -55 -68 -55 -101c0 -36 26 -58 67 -58c13 0 26 2 41 6l-6 -33c-15 -5 -32 -7 -49 -7c-57 0 -91 34 -91 82c0 42 18 79 53 111zM591 246l-115 398l-242 -398h357z" />
    <glyph glyph-name="aogonek" unicode="&#x105;" horiz-adv-x="584" 
d="M559 -191c-57 0 -91 34 -91 82c0 39 16 75 47 106c-39 4 -64 32 -64 75c-57 -56 -126 -84 -205 -84c-51 0 -94 13 -127 40s-50 63 -50 107c0 53 21 94 62 122c41 29 90 43 145 43c75 0 141 -19 198 -58l7 44c3 21 5 38 5 49c0 75 -50 112 -149 112
c-66 0 -124 -14 -173 -41l8 45c47 25 104 38 173 38c53 0 98 -12 133 -37c35 -24 53 -61 53 -112c0 -15 -3 -41 -9 -80l-22 -138c-3 -17 -4 -31 -4 -40c0 -31 15 -47 46 -47c9 0 18 1 25 4l-6 -37c-37 -34 -55 -68 -55 -101c0 -36 26 -58 67 -58c13 0 26 2 41 6l-6 -33
c-15 -5 -32 -7 -49 -7zM455 123l12 77c-52 40 -113 60 -184 60c-47 0 -86 -10 -119 -31s-49 -51 -49 -90c0 -71 60 -109 147 -109c76 0 149 44 193 93z" />
    <glyph glyph-name="Cacute" unicode="&#x106;" horiz-adv-x="692" 
d="M175 321c0 -83 26 -152 79 -207s121 -82 206 -82c79 0 149 22 210 67l-8 -52c-59 -39 -127 -59 -205 -59c-98 0 -177 31 -238 93c-61 63 -91 142 -91 237c0 108 35 201 106 278s162 116 271 116c81 0 151 -20 210 -61l-7 -46c-58 42 -126 63 -204 63
c-92 0 -170 -34 -234 -101c-63 -67 -95 -149 -95 -246zM543 763h-49l117 130h61z" />
    <glyph glyph-name="cacute" unicode="&#x107;" horiz-adv-x="519" 
d="M519 445l-6 -43c-42 30 -91 45 -146 45c-65 0 -120 -22 -165 -66c-44 -44 -66 -98 -66 -162c0 -55 18 -100 55 -136c37 -35 85 -53 145 -53c48 0 94 13 139 39l-6 -48c-42 -22 -89 -33 -142 -33c-73 0 -131 22 -174 66c-42 44 -63 98 -63 163c0 77 26 142 78 194
c53 52 117 78 194 78c62 0 114 -15 157 -44zM390 577h-50l117 130h62z" />
    <glyph glyph-name="Ccircumflex" unicode="&#x108;" horiz-adv-x="692" 
d="M530 893h48l86 -130h-47l-66 97l-98 -97h-52zM175 321c0 -83 26 -152 79 -207s121 -82 206 -82c79 0 149 22 210 67l-8 -52c-59 -39 -127 -59 -205 -59c-98 0 -177 31 -238 93c-61 63 -91 142 -91 237c0 108 35 201 106 278s162 116 271 116c81 0 151 -20 210 -61l-7 -46
c-58 42 -126 63 -204 63c-92 0 -170 -34 -234 -101c-63 -67 -95 -149 -95 -246z" />
    <glyph glyph-name="ccircumflex" unicode="&#x109;" horiz-adv-x="519" 
d="M368 706h48l86 -130h-47l-66 97l-98 -97h-52zM519 445l-6 -43c-42 30 -91 45 -146 45c-65 0 -120 -22 -165 -66c-44 -44 -66 -98 -66 -162c0 -55 18 -100 55 -136c37 -35 85 -53 145 -53c48 0 94 13 139 39l-6 -48c-42 -22 -89 -33 -142 -33c-73 0 -131 22 -174 66
c-42 44 -63 98 -63 163c0 77 26 142 78 194c53 52 117 78 194 78c62 0 114 -15 157 -44z" />
    <glyph glyph-name="Cdotaccent" unicode="&#x10a;" horiz-adv-x="692" 
d="M175 321c0 -83 26 -152 79 -207s121 -82 206 -82c79 0 149 22 210 67l-8 -52c-59 -39 -127 -59 -205 -59c-98 0 -177 31 -238 93c-61 63 -91 142 -91 237c0 108 35 201 106 278s162 116 271 116c81 0 151 -20 210 -61l-7 -46c-58 42 -126 63 -204 63
c-92 0 -170 -34 -234 -101c-63 -67 -95 -149 -95 -246zM516 798c-36 33 21 90 54 54c36 -33 -21 -90 -54 -54z" />
    <glyph glyph-name="cdotaccent" unicode="&#x10b;" horiz-adv-x="516" 
d="M519 445l-6 -43c-42 30 -91 45 -146 45c-65 0 -120 -22 -165 -66c-44 -44 -66 -98 -66 -162c0 -55 18 -100 55 -136c37 -35 85 -53 145 -53c48 0 94 13 139 39l-6 -48c-42 -22 -89 -33 -142 -33c-73 0 -131 22 -174 66c-42 44 -63 98 -63 163c0 77 26 142 78 194
c53 52 117 78 194 78c62 0 114 -15 157 -44zM370 619c-36 33 21 90 54 54c36 -33 -21 -90 -54 -54z" />
    <glyph glyph-name="Ccaron" unicode="&#x10c;" horiz-adv-x="692" 
d="M559 763h-48l-86 130h47l66 -97l98 97h52zM175 321c0 -83 26 -152 79 -207s121 -82 206 -82c79 0 149 22 210 67l-8 -52c-59 -39 -127 -59 -205 -59c-98 0 -177 31 -238 93c-61 63 -91 142 -91 237c0 108 35 201 106 278s162 116 271 116c81 0 151 -20 210 -61l-7 -46
c-58 42 -126 63 -204 63c-92 0 -170 -34 -234 -101c-63 -67 -95 -149 -95 -246z" />
    <glyph glyph-name="ccaron" unicode="&#x10d;" horiz-adv-x="519" 
d="M407 577h-48l-86 130h47l66 -99l97 99h52zM519 445l-6 -43c-42 30 -91 45 -146 45c-65 0 -120 -22 -165 -66c-44 -44 -66 -98 -66 -162c0 -55 18 -100 55 -136c37 -35 85 -53 145 -53c48 0 94 13 139 39l-6 -48c-42 -22 -89 -33 -142 -33c-73 0 -131 22 -174 66
c-42 44 -63 98 -63 163c0 77 26 142 78 194c53 52 117 78 194 78c62 0 114 -15 157 -44z" />
    <glyph glyph-name="Dcaron" unicode="&#x10e;" horiz-adv-x="781" 
d="M487 763h-48l-86 130h47l66 -97l98 97h52zM221 700h197c104 0 187 -29 249 -86c63 -57 94 -132 94 -225c0 -118 -40 -212 -121 -283s-184 -106 -311 -106h-219zM162 43h182c107 0 196 31 265 94s104 146 104 251c0 81 -27 146 -81 195s-128 74 -222 74h-150z" />
    <glyph glyph-name="dcaron" unicode="&#x10f;" horiz-adv-x="726" 
d="M557 386l49 314h45l-111 -700h-45l13 74c-51 -57 -116 -86 -195 -86c-68 0 -122 22 -163 65c-40 44 -60 98 -60 162c0 76 25 141 74 194c50 53 113 80 189 80c92 0 165 -46 204 -103zM325 30c37 0 74 10 111 31s64 47 82 78l29 195c-14 30 -38 56 -73 79
c-34 23 -73 34 -116 34c-61 0 -114 -22 -157 -66s-64 -98 -64 -162c0 -55 17 -100 51 -136c35 -35 80 -53 137 -53zM746 531h-40l79 168h49z" />
    <glyph glyph-name="Dcroat" unicode="&#x110;" horiz-adv-x="816" 
d="M81 332l6 43h117l52 325h197c104 0 187 -29 249 -86c63 -57 94 -132 94 -225c0 -118 -40 -212 -121 -283s-184 -106 -311 -106h-219l52 332h-116zM197 43h182c107 0 196 31 265 94s104 146 104 251c0 81 -27 146 -81 195s-128 74 -222 74h-150l-45 -282h171l-6 -43h-172z
" />
    <glyph glyph-name="dslash" unicode="&#x111;" horiz-adv-x="629" 
d="M590 596l16 104h45l-17 -104h100l-6 -41h-100l-88 -555h-45l13 74c-51 -57 -116 -86 -195 -86c-68 0 -122 22 -163 65c-40 44 -60 98 -60 162c0 76 25 141 74 194c50 53 113 80 189 80c92 0 165 -46 204 -103l26 169h-127l6 41h128zM325 30c37 0 74 10 111 31
s64 47 82 78l29 195c-14 30 -38 56 -73 79c-34 23 -73 34 -116 34c-61 0 -114 -22 -157 -66s-64 -98 -64 -162c0 -55 17 -100 51 -136c35 -35 80 -53 137 -53z" />
    <glyph glyph-name="Emacron" unicode="&#x112;" horiz-adv-x="645" 
d="M594 0h-484l111 700h468l-7 -43h-422l-41 -259h349l-7 -43h-349l-49 -312h438zM588 810h-230l5 38h231z" />
    <glyph glyph-name="emacron" unicode="&#x113;" horiz-adv-x="569" 
d="M339 30c51 0 101 15 148 44l-6 -46c-39 -27 -89 -40 -148 -40c-70 0 -128 21 -174 63s-69 97 -69 164c0 73 24 137 73 192s111 82 187 82c66 0 116 -21 151 -63s52 -90 52 -145c0 -19 -1 -35 -3 -49h-415v-16c0 -57 19 -103 58 -136s88 -50 146 -50zM346 447
c-52 0 -97 -17 -135 -50s-62 -75 -71 -126h368c1 5 1 10 1 17c0 42 -14 79 -42 111c-27 32 -68 48 -121 48zM506 625h-230l5 38h231z" />
    <glyph glyph-name="Ebreve" unicode="&#x114;" horiz-adv-x="645" 
d="M594 0h-484l111 700h468l-7 -43h-422l-41 -259h349l-7 -43h-349l-49 -312h438zM460 763c-65 0 -116 46 -116 109c0 9 0 16 1 21h39c-1 -5 -1 -10 -1 -17c0 -44 31 -75 78 -75c52 0 90 39 101 92h40c-5 -37 -21 -68 -48 -93s-58 -37 -94 -37z" />
    <glyph glyph-name="ebreve" unicode="&#x115;" horiz-adv-x="569" 
d="M339 30c51 0 101 15 148 44l-6 -46c-39 -27 -89 -40 -148 -40c-70 0 -128 21 -174 63s-69 97 -69 164c0 73 24 137 73 192s111 82 187 82c66 0 116 -21 151 -63s52 -90 52 -145c0 -19 -1 -35 -3 -49h-415v-16c0 -57 19 -103 58 -136s88 -50 146 -50zM346 447
c-52 0 -97 -17 -135 -50s-62 -75 -71 -126h368c1 5 1 10 1 17c0 42 -14 79 -42 111c-27 32 -68 48 -121 48zM380 578c-65 0 -116 45 -116 108c0 9 0 16 1 21h39c-1 -5 -1 -10 -1 -17c0 -44 31 -74 78 -74c52 0 90 38 101 91h40c-5 -37 -21 -68 -48 -93
c-27 -24 -58 -36 -94 -36z" />
    <glyph glyph-name="Edotaccent" unicode="&#x116;" horiz-adv-x="645" 
d="M594 0h-484l111 700h468l-7 -43h-422l-41 -259h349l-7 -43h-349l-49 -312h438zM446 798c-36 33 21 90 54 54c36 -33 -21 -90 -54 -54z" />
    <glyph glyph-name="edotaccent" unicode="&#x117;" horiz-adv-x="569" 
d="M339 30c51 0 101 15 148 44l-6 -46c-39 -27 -89 -40 -148 -40c-70 0 -128 21 -174 63s-69 97 -69 164c0 73 24 137 73 192s111 82 187 82c66 0 116 -21 151 -63s52 -90 52 -145c0 -19 -1 -35 -3 -49h-415v-16c0 -57 19 -103 58 -136s88 -50 146 -50zM346 447
c-52 0 -97 -17 -135 -50s-62 -75 -71 -126h368c1 5 1 10 1 17c0 42 -14 79 -42 111c-27 32 -68 48 -121 48zM366 619c-36 33 21 90 54 54c36 -33 -21 -90 -54 -54z" />
    <glyph glyph-name="Eogonek" unicode="&#x118;" horiz-adv-x="645" 
d="M554 0h-444l111 700h468l-7 -43h-422l-41 -259h349l-7 -43h-349l-49 -312h438l-7 -43c-37 -34 -55 -68 -55 -101c0 -36 26 -58 67 -58c12 0 26 2 41 6l-6 -33c-15 -5 -32 -7 -49 -7c-57 0 -91 34 -91 82c0 42 18 79 53 111z" />
    <glyph glyph-name="eogonek" unicode="&#x119;" horiz-adv-x="569" 
d="M479 -165c-57 0 -91 34 -91 82c0 28 9 55 27 82c-25 -7 -53 -11 -82 -11c-70 0 -128 21 -174 63s-69 97 -69 164c0 73 24 137 73 192s111 82 187 82c66 0 116 -21 151 -63s52 -90 52 -145c0 -19 -1 -35 -3 -49h-415v-16c0 -57 19 -103 58 -136s88 -50 146 -50
c51 0 101 15 148 44l-6 -46c-37 -34 -55 -68 -55 -101c0 -36 26 -58 67 -58c13 0 26 2 41 6l-6 -33c-15 -5 -32 -7 -49 -7zM346 447c-52 0 -97 -17 -135 -50s-62 -75 -71 -126h368c1 5 1 10 1 17c0 42 -14 79 -42 111c-27 32 -68 48 -121 48z" />
    <glyph glyph-name="Ecaron" unicode="&#x11a;" horiz-adv-x="645" 
d="M594 0h-484l111 700h468l-7 -43h-422l-41 -259h349l-7 -43h-349l-49 -312h438zM486 763h-48l-86 130h47l66 -97l98 97h52z" />
    <glyph glyph-name="ecaron" unicode="&#x11b;" horiz-adv-x="569" 
d="M339 30c51 0 101 15 148 44l-6 -46c-39 -27 -89 -40 -148 -40c-70 0 -128 21 -174 63s-69 97 -69 164c0 73 24 137 73 192s111 82 187 82c66 0 116 -21 151 -63s52 -90 52 -145c0 -19 -1 -35 -3 -49h-415v-16c0 -57 19 -103 58 -136s88 -50 146 -50zM346 447
c-52 0 -97 -17 -135 -50s-62 -75 -71 -126h368c1 5 1 10 1 17c0 42 -14 79 -42 111c-27 32 -68 48 -121 48zM400 577h-48l-86 130h47l66 -99l97 99h52z" />
    <glyph glyph-name="Gcircumflex" unicode="&#x11c;" horiz-adv-x="782" 
d="M663 109l48 292h47l-51 -314c-73 -66 -157 -99 -252 -99c-97 0 -175 31 -236 93c-61 63 -91 142 -91 237c0 108 35 201 106 278s162 116 271 116c96 0 174 -27 235 -81l-7 -46c-62 55 -138 83 -229 83c-92 0 -170 -34 -234 -101c-63 -67 -95 -150 -95 -247
c0 -83 26 -152 79 -207c53 -54 121 -81 206 -81c79 0 146 26 203 77zM530 893h48l86 -130h-47l-66 97l-98 -97h-52z" />
    <glyph glyph-name="gcircumflex" unicode="&#x11d;" horiz-adv-x="629" 
d="M557 386l13 91h45l-72 -466c-23 -148 -127 -215 -280 -215c-68 0 -143 22 -186 47l8 45c52 -33 112 -50 181 -50c133 0 211 60 232 179l10 59c-50 -56 -115 -84 -194 -84c-69 0 -123 22 -164 65c-40 44 -60 98 -60 161c0 74 25 138 74 191c50 53 113 80 189 80
c92 0 167 -47 204 -103zM518 141l30 194c-15 30 -39 56 -74 78c-35 23 -73 34 -116 34c-61 0 -114 -22 -157 -66c-43 -43 -64 -97 -64 -160c0 -54 18 -99 53 -134s81 -53 138 -53c37 0 73 10 108 30c36 21 63 46 82 77zM391 706h48l86 -130h-47l-66 97l-98 -97h-52z" />
    <glyph glyph-name="Gbreve" unicode="&#x11e;" horiz-adv-x="782" 
d="M663 109l48 292h47l-51 -314c-73 -66 -157 -99 -252 -99c-97 0 -175 31 -236 93c-61 63 -91 142 -91 237c0 108 35 201 106 278s162 116 271 116c96 0 174 -27 235 -81l-7 -46c-62 55 -138 83 -229 83c-92 0 -170 -34 -234 -101c-63 -67 -95 -150 -95 -247
c0 -83 26 -152 79 -207c53 -54 121 -81 206 -81c79 0 146 26 203 77zM544 765c-65 0 -116 46 -116 109c0 9 0 16 1 21h39c-1 -5 -1 -10 -1 -17c0 -44 31 -75 78 -75c52 0 90 39 101 92h40c-5 -37 -21 -68 -48 -93s-58 -37 -94 -37z" />
    <glyph glyph-name="gbreve" unicode="&#x11f;" horiz-adv-x="629" 
d="M557 386l13 91h45l-72 -466c-23 -148 -127 -215 -280 -215c-68 0 -143 22 -186 47l8 45c52 -33 112 -50 181 -50c133 0 211 60 232 179l10 59c-50 -56 -115 -84 -194 -84c-69 0 -123 22 -164 65c-40 44 -60 98 -60 161c0 74 25 138 74 191c50 53 113 80 189 80
c92 0 167 -47 204 -103zM518 141l30 194c-15 30 -39 56 -74 78c-35 23 -73 34 -116 34c-61 0 -114 -22 -157 -66c-43 -43 -64 -97 -64 -160c0 -54 18 -99 53 -134s81 -53 138 -53c37 0 73 10 108 30c36 21 63 46 82 77zM394 578c-65 0 -116 45 -116 108c0 9 0 16 1 21h39
c-1 -5 -1 -10 -1 -17c0 -44 31 -74 78 -74c52 0 90 38 101 91h40c-5 -37 -21 -68 -48 -93c-27 -24 -58 -36 -94 -36z" />
    <glyph glyph-name="Gdotaccent" unicode="&#x120;" horiz-adv-x="782" 
d="M663 109l48 292h47l-51 -314c-73 -66 -157 -99 -252 -99c-97 0 -175 31 -236 93c-61 63 -91 142 -91 237c0 108 35 201 106 278s162 116 271 116c96 0 174 -27 235 -81l-7 -46c-62 55 -138 83 -229 83c-92 0 -170 -34 -234 -101c-63 -67 -95 -150 -95 -247
c0 -83 26 -152 79 -207c53 -54 121 -81 206 -81c79 0 146 26 203 77zM518 798c-36 33 21 90 54 54c36 -33 -21 -90 -54 -54z" />
    <glyph glyph-name="gdotaccent" unicode="&#x121;" horiz-adv-x="629" 
d="M557 386l13 91h45l-72 -466c-23 -148 -127 -215 -280 -215c-68 0 -143 22 -186 47l8 45c52 -33 112 -50 181 -50c133 0 211 60 232 179l10 59c-50 -56 -115 -84 -194 -84c-69 0 -123 22 -164 65c-40 44 -60 98 -60 161c0 74 25 138 74 191c50 53 113 80 189 80
c92 0 167 -47 204 -103zM518 141l30 194c-15 30 -39 56 -74 78c-35 23 -73 34 -116 34c-61 0 -114 -22 -157 -66c-43 -43 -64 -97 -64 -160c0 -54 18 -99 53 -134s81 -53 138 -53c37 0 73 10 108 30c36 21 63 46 82 77zM391 619c-36 33 21 90 54 54c36 -33 -21 -90 -54 -54z
" />
    <glyph glyph-name="uni0122" unicode="&#x122;" horiz-adv-x="782" 
d="M663 109l48 292h47l-51 -314c-73 -66 -157 -99 -252 -99c-97 0 -175 31 -236 93c-61 63 -91 142 -91 237c0 108 35 201 106 278s162 116 271 116c96 0 174 -27 235 -81l-7 -46c-62 55 -138 83 -229 83c-92 0 -170 -34 -234 -101c-63 -67 -95 -150 -95 -247
c0 -83 26 -152 79 -207c53 -54 121 -81 206 -81c79 0 146 26 203 77zM386 -218h-40l79 168h49z" />
    <glyph glyph-name="uni0123" unicode="&#x123;" horiz-adv-x="627" 
d="M557 386l13 91h45l-72 -466c-23 -148 -127 -215 -280 -215c-68 0 -143 22 -186 47l8 45c52 -33 112 -50 181 -50c133 0 211 60 232 179l10 59c-50 -56 -115 -84 -194 -84c-69 0 -123 22 -164 65c-40 44 -60 98 -60 161c0 74 25 138 74 191c50 53 113 80 189 80
c92 0 167 -47 204 -103zM518 141l30 194c-15 30 -39 56 -74 78c-35 23 -73 34 -116 34c-61 0 -114 -22 -157 -66c-43 -43 -64 -97 -64 -160c0 -54 18 -99 53 -134s81 -53 138 -53c37 0 73 10 108 30c36 21 63 46 82 77zM438 721h40l-79 -168h-49z" />
    <glyph glyph-name="Hcircumflex" unicode="&#x124;" horiz-adv-x="764" 
d="M156 0h-46l111 700h46l-48 -302h457l48 302h46l-111 -700h-46l56 355h-457zM500 893h48l86 -130h-47l-66 97l-98 -97h-52z" />
    <glyph glyph-name="hcircumflex" unicode="&#x125;" horiz-adv-x="601" 
d="M561 251l-39 -251h-45l40 254c5 31 7 55 7 72c0 80 -51 121 -134 121c-39 0 -77 -11 -114 -33c-37 -21 -66 -46 -88 -74l-54 -340h-45l111 700h45l-48 -302c61 61 130 91 207 91c100 0 166 -62 166 -158c0 -7 -3 -34 -9 -80zM228 893h48l86 -130h-47l-66 97l-98 -97h-52z
" />
    <glyph glyph-name="Hbar" unicode="&#x126;" horiz-adv-x="814" 
d="M179 0h-46l87 548h-95l6 37h95l18 115h46l-18 -115h457l18 115h46l-18 -115h95l-6 -37h-95l-87 -548h-46l56 355h-457zM266 548l-24 -150h457l24 150h-457z" />
    <glyph glyph-name="hbar" unicode="&#x127;" horiz-adv-x="618" 
d="M389 586l-7 -41h-136l-32 -204c61 61 130 91 207 91c100 0 166 -62 166 -158c0 -7 -3 -34 -9 -80l-30 -194h-45l31 197c5 31 7 55 7 72c0 80 -51 121 -134 121c-39 0 -77 -11 -114 -33c-37 -21 -66 -46 -88 -74l-45 -283h-45l86 545h-102l7 41h102l18 114h45l-18 -114
h136z" />
    <glyph glyph-name="Itilde" unicode="&#x128;" horiz-adv-x="269" 
d="M382 873h37c-11 -59 -45 -96 -90 -96c-19 0 -42 10 -71 31c-28 21 -49 31 -62 31c-25 0 -41 -19 -49 -56h-37c11 57 45 94 90 94c19 0 42 -10 71 -31s49 -31 61 -31c28 0 41 21 50 58zM158 0h-46l111 700h46z" />
    <glyph glyph-name="itilde" unicode="&#x129;" horiz-adv-x="244" 
d="M288 593c-19 0 -43 10 -72 31s-49 32 -61 32c-24 0 -41 -19 -50 -57h-38c11 59 46 97 91 97c19 0 42 -10 71 -31s50 -31 62 -31c22 0 38 19 48 57h38c-11 -59 -44 -98 -89 -98zM148 0h-45l76 477h45z" />
    <glyph glyph-name="Imacron" unicode="&#x12a;" horiz-adv-x="269" 
d="M158 0h-46l111 700h46zM379 810h-230l5 38h231z" />
    <glyph glyph-name="imacron" unicode="&#x12b;" horiz-adv-x="244" 
d="M148 0h-45l76 477h45zM340 625h-230l5 38h231z" />
    <glyph glyph-name="Ibreve" unicode="&#x12c;" horiz-adv-x="269" 
d="M258 763c-65 0 -116 46 -116 109c0 9 0 16 1 21h39c-1 -5 -1 -10 -1 -17c0 -44 31 -75 78 -75c52 0 90 39 101 92h40c-5 -37 -21 -68 -48 -93s-58 -37 -94 -37zM158 0h-46l111 700h46z" />
    <glyph glyph-name="ibreve" unicode="&#x12d;" horiz-adv-x="250" 
d="M216 578c-65 0 -116 45 -116 108c0 9 0 16 1 21h39c-1 -5 -1 -10 -1 -17c0 -44 31 -74 78 -74c52 0 90 38 101 91h40c-5 -37 -21 -68 -48 -93c-27 -24 -58 -36 -94 -36zM148 0h-45l76 477h45z" />
    <glyph glyph-name="Iogonek" unicode="&#x12e;" horiz-adv-x="269" 
d="M112 0l111 700h46l-111 -700c-37 -34 -55 -68 -55 -101c0 -36 26 -58 67 -58c12 0 26 2 41 6l-6 -33c-15 -5 -32 -7 -49 -7c-57 0 -91 34 -91 82c0 41 16 78 47 111z" />
    <glyph glyph-name="iogonek" unicode="&#x12f;" horiz-adv-x="250" 
d="M146 -193c-57 0 -91 34 -91 82c0 39 16 76 48 111l76 477h45l-76 -477c-37 -34 -55 -68 -55 -101c0 -36 26 -58 67 -58c12 0 26 2 41 6l-6 -33c-15 -5 -32 -7 -49 -7zM225 608c-50 -3 -49 79 0 76c49 3 49 -79 0 -76z" />
    <glyph glyph-name="Idot" unicode="&#x130;" horiz-adv-x="269" 
d="M158 0h-46l111 700h46zM238 798c-36 33 21 90 54 54c36 -33 -21 -90 -54 -54z" />
    <glyph glyph-name="dotlessi" unicode="&#x131;" horiz-adv-x="250" 
d="M148 0h-45l76 477h45z" />
    <glyph glyph-name="IJ" unicode="&#x132;" horiz-adv-x="602" 
d="M198 246h-46l72 454h46zM569 700h46l-79 -498c-22 -143 -105 -214 -248 -214c-61 0 -129 21 -169 54l8 49c35 -35 100 -59 160 -59c117 0 185 60 204 181z" />
    <glyph glyph-name="Jcircumflex" unicode="&#x134;" horiz-adv-x="500" 
d="M467 700h46l-80 -505c-23 -139 -103 -208 -242 -208c-64 0 -115 17 -153 50l7 49c35 -37 83 -55 146 -55c115 0 177 52 197 175zM494 893h49l85 -130h-47l-65 97l-98 -97h-52z" />
    <glyph glyph-name="jcircumflex" unicode="&#x135;" horiz-adv-x="245" 
d="M-9 -204c-31 0 -56 6 -74 18l7 43c19 -13 41 -19 66 -19c59 0 93 34 104 103l85 536h45l-86 -544c-16 -97 -75 -137 -147 -137zM206 706h48l86 -130h-47l-66 97l-98 -97h-52z" />
    <glyph glyph-name="uni0136" unicode="&#x136;" horiz-adv-x="650" 
d="M156 0h-46l111 700h46l-49 -309l404 309h66l-423 -326l367 -374h-62l-357 364zM288 -218h-40l79 168h49z" />
    <glyph glyph-name="uni0137" unicode="&#x137;" horiz-adv-x="511" 
d="M134 0h-45l111 700h45l-67 -427l279 204h67l-301 -221l263 -256h-62l-251 245zM207 -218h-40l79 168h49z" />
    <glyph glyph-name="kgreenlandic" unicode="&#x138;" horiz-adv-x="511" 
d="M135 0h-46l76 477h46l-33 -204l281 204h64l-301 -221l262 -256h-60l-250 245z" />
    <glyph glyph-name="Lacute" unicode="&#x139;" horiz-adv-x="597" 
d="M563 0h-453l111 700h46l-104 -657h407zM281 763h-49l117 130h61z" />
    <glyph glyph-name="lacute" unicode="&#x13a;" horiz-adv-x="275" 
d="M196 700h45l-91 -578c-3 -23 -5 -39 -5 -46c0 -31 18 -46 53 -46c23 0 43 5 60 14l-6 -43c-19 -9 -42 -13 -69 -13c-56 0 -84 27 -84 80c0 18 2 34 5 49zM256 763h-49l117 130h61z" />
    <glyph glyph-name="uni013B" unicode="&#x13b;" horiz-adv-x="597" 
d="M563 0h-453l111 700h46l-104 -657h407zM284 -218h-40l79 168h49z" />
    <glyph glyph-name="lcommaaccent" unicode="&#x13c;" horiz-adv-x="275" 
d="M196 700h45l-91 -578c-3 -23 -5 -39 -5 -46c0 -31 18 -46 53 -46c23 0 43 5 60 14l-6 -43c-19 -9 -42 -13 -69 -13c-56 0 -84 27 -84 80c0 18 2 34 5 49zM112 -218h-40l79 168h49z" />
    <glyph glyph-name="Lcaron" unicode="&#x13d;" horiz-adv-x="619" 
d="M558 0h-453l111 700h46l-104 -657h407zM586 531h-40l79 168h49z" />
    <glyph glyph-name="lcaron" unicode="&#x13e;" horiz-adv-x="350" 
d="M202 700h45l-91 -578c-3 -23 -5 -39 -5 -46c0 -31 18 -46 53 -46c23 0 43 5 60 14l-6 -43c-19 -9 -42 -13 -69 -13c-56 0 -84 27 -84 80c0 18 2 34 5 49zM370 531h-40l79 168h49z" />
    <glyph glyph-name="Ldot" unicode="&#x13f;" horiz-adv-x="597" 
d="M563 0h-453l111 700h46l-104 -657h407zM552 352c-36 33 21 90 54 54c36 -33 -21 -90 -54 -54z" />
    <glyph glyph-name="ldot" unicode="&#x140;" horiz-adv-x="367" 
d="M204 700h45l-91 -578c-3 -23 -5 -39 -5 -46c0 -31 18 -46 53 -46c23 0 43 5 60 14l-6 -43c-19 -9 -42 -13 -69 -13c-56 0 -84 27 -84 80c0 18 2 34 5 49zM313 351c-36 33 21 90 54 54c36 -33 -21 -90 -54 -54z" />
    <glyph glyph-name="Lslash" unicode="&#x141;" horiz-adv-x="599" 
d="M565 0h-453l55 344l-103 -56l6 47l104 57l49 308h46l-45 -281l176 96l-8 -48l-175 -96l-52 -328h407z" />
    <glyph glyph-name="lslash" unicode="&#x142;" horiz-adv-x="358" 
d="M244 700h45l-44 -276l111 61l-8 -47l-110 -61l-40 -255c-3 -23 -5 -39 -5 -46c0 -31 18 -46 53 -46c23 0 43 5 60 14l-6 -43c-19 -9 -42 -13 -69 -13c-56 0 -84 27 -84 80c0 18 2 34 5 49l37 233l-111 -61l7 47l111 61z" />
    <glyph glyph-name="Nacute" unicode="&#x143;" horiz-adv-x="778" 
d="M674 0h-41l-379 624l-98 -624h-46l110 700h41l379 -624l98 624h46zM534 763h-49l117 130h61z" />
    <glyph glyph-name="nacute" unicode="&#x144;" horiz-adv-x="601" 
d="M89 0l76 477h45l-13 -79c61 61 130 91 207 91c100 0 166 -62 166 -158c0 -7 -3 -34 -9 -80l-39 -251h-45l40 254c5 31 7 55 7 72c0 80 -51 121 -134 121c-39 0 -77 -11 -114 -33c-37 -21 -66 -46 -88 -74l-54 -340h-45zM406 577h-50l117 130h62z" />
    <glyph glyph-name="uni0145" unicode="&#x145;" horiz-adv-x="778" 
d="M674 0h-41l-379 624l-98 -624h-46l110 700h41l379 -624l98 624h46zM341 -218h-40l79 168h49z" />
    <glyph glyph-name="uni0146" unicode="&#x146;" horiz-adv-x="601" 
d="M89 0l76 477h45l-13 -79c61 61 130 91 207 91c100 0 166 -62 166 -158c0 -7 -3 -34 -9 -80l-39 -251h-45l40 254c5 31 7 55 7 72c0 80 -51 121 -134 121c-39 0 -77 -11 -114 -33c-37 -21 -66 -46 -88 -74l-54 -340h-45zM251 -218h-40l79 168h49z" />
    <glyph glyph-name="Ncaron" unicode="&#x147;" horiz-adv-x="778" 
d="M674 0h-41l-379 624l-98 -624h-46l110 700h41l379 -624l98 624h46zM527 763h-48l-86 130h47l66 -97l98 97h52z" />
    <glyph glyph-name="ncaron" unicode="&#x148;" horiz-adv-x="601" 
d="M89 0l76 477h45l-13 -79c61 61 130 91 207 91c100 0 166 -62 166 -158c0 -7 -3 -34 -9 -80l-39 -251h-45l40 254c5 31 7 55 7 72c0 80 -51 121 -134 121c-39 0 -77 -11 -114 -33c-37 -21 -66 -46 -88 -74l-54 -340h-45zM427 577h-48l-86 130h47l66 -99l97 99h52z" />
    <glyph glyph-name="napostrophe" unicode="&#x149;" horiz-adv-x="647" 
d="M135 0l76 477h45l-13 -79c61 61 130 91 207 91c100 0 166 -62 166 -158c0 -7 -3 -34 -9 -80l-39 -251h-45l40 254c5 31 7 55 7 72c0 80 -51 121 -134 121c-39 0 -77 -11 -114 -33c-37 -21 -66 -46 -88 -74l-54 -340h-45zM135 531h-40l79 168h49z" />
    <glyph glyph-name="Eng" unicode="&#x14a;" horiz-adv-x="778" 
d="M469 -160c90 0 143 52 160 157l1 8l-376 619l-98 -624h-46l110 700h41l379 -624l98 624h46l-112 -712c-21 -128 -88 -192 -202 -192c-43 0 -78 8 -106 24l8 50c27 -20 60 -30 97 -30z" />
    <glyph glyph-name="eng" unicode="&#x14b;" horiz-adv-x="601" 
d="M89 0l76 477h45l-13 -79c61 61 130 91 207 91c100 0 166 -62 166 -158c0 -7 -3 -34 -9 -80l-39 -251h-45l40 254c5 31 7 55 7 72c0 80 -51 121 -134 121c-39 0 -77 -11 -114 -33c-37 -21 -66 -46 -88 -74l-54 -340h-45zM522 0l-11 -67c-16 -97 -75 -137 -148 -137
c-31 0 -56 6 -74 18l7 43c19 -13 41 -19 66 -19c59 0 94 34 105 103l10 59h45z" />
    <glyph glyph-name="Omacron" unicode="&#x14c;" horiz-adv-x="846" 
d="M501 712c97 0 176 -31 235 -94c60 -63 90 -142 90 -237c5 -207 -160 -396 -372 -393c-97 0 -176 31 -236 94s-90 143 -90 238c0 107 35 199 106 276s160 116 267 116zM456 32c89 0 165 34 228 101c63 68 95 150 95 247c0 83 -26 151 -78 206c-51 55 -119 82 -202 82
c-90 0 -167 -34 -230 -101s-94 -149 -94 -246c0 -83 26 -152 78 -207s120 -82 203 -82zM661 810h-230l5 38h231z" />
    <glyph glyph-name="omacron" unicode="&#x14d;" horiz-adv-x="616" 
d="M356 489c72 0 130 -23 173 -68s65 -101 65 -166c0 -73 -25 -136 -76 -189c-51 -52 -114 -78 -189 -78c-72 0 -130 23 -174 68c-43 45 -65 101 -65 166c0 73 25 136 76 188c51 53 114 79 190 79zM329 32c61 0 112 22 155 65c43 44 64 97 64 159c0 55 -18 100 -54 135
c-35 36 -82 54 -139 54c-60 0 -112 -22 -155 -66c-43 -43 -64 -96 -64 -158c0 -55 18 -100 53 -136c36 -35 83 -53 140 -53zM522 625h-230l5 38h231z" />
    <glyph glyph-name="Obreve" unicode="&#x14e;" horiz-adv-x="846" 
d="M501 712c97 0 176 -31 235 -94c60 -63 90 -142 90 -237c5 -207 -160 -396 -372 -393c-97 0 -176 31 -236 94s-90 143 -90 238c0 107 35 199 106 276s160 116 267 116zM456 32c89 0 165 34 228 101c63 68 95 150 95 247c0 83 -26 151 -78 206c-51 55 -119 82 -202 82
c-90 0 -167 -34 -230 -101s-94 -149 -94 -246c0 -83 26 -152 78 -207s120 -82 203 -82zM542 765c-65 0 -116 46 -116 109c0 9 0 16 1 21h39c-1 -5 -1 -10 -1 -17c0 -44 31 -75 78 -75c52 0 90 39 101 92h40c-5 -37 -21 -68 -48 -93s-58 -37 -94 -37z" />
    <glyph glyph-name="obreve" unicode="&#x14f;" horiz-adv-x="616" 
d="M356 489c72 0 130 -23 173 -68s65 -101 65 -166c0 -73 -25 -136 -76 -189c-51 -52 -114 -78 -189 -78c-72 0 -130 23 -174 68c-43 45 -65 101 -65 166c0 73 25 136 76 188c51 53 114 79 190 79zM329 32c61 0 112 22 155 65c43 44 64 97 64 159c0 55 -18 100 -54 135
c-35 36 -82 54 -139 54c-60 0 -112 -22 -155 -66c-43 -43 -64 -96 -64 -158c0 -55 18 -100 53 -136c36 -35 83 -53 140 -53zM402 580c-65 0 -116 45 -116 108c0 9 0 16 1 21h39c-1 -5 -1 -10 -1 -17c0 -44 31 -74 78 -74c52 0 90 38 101 91h40c-5 -37 -21 -68 -48 -93
c-27 -24 -58 -36 -94 -36z" />
    <glyph glyph-name="Ohungarumlaut" unicode="&#x150;" horiz-adv-x="846" 
d="M501 712c97 0 176 -31 235 -94c60 -63 90 -142 90 -237c5 -207 -160 -396 -372 -393c-97 0 -176 31 -236 94s-90 143 -90 238c0 107 35 199 106 276s160 116 267 116zM456 32c89 0 165 34 228 101c63 68 95 150 95 247c0 83 -26 151 -78 206c-51 55 -119 82 -202 82
c-90 0 -167 -34 -230 -101s-94 -149 -94 -246c0 -83 26 -152 78 -207s120 -82 203 -82zM615 763h-49l118 130h60zM471 763h-49l117 130h62z" />
    <glyph glyph-name="ohungarumlaut" unicode="&#x151;" horiz-adv-x="616" 
d="M356 489c72 0 130 -23 173 -68s65 -101 65 -166c0 -73 -25 -136 -76 -189c-51 -52 -114 -78 -189 -78c-72 0 -130 23 -174 68c-43 45 -65 101 -65 166c0 73 25 136 76 188c51 53 114 79 190 79zM329 32c61 0 112 22 155 65c43 44 64 97 64 159c0 55 -18 100 -54 135
c-35 36 -82 54 -139 54c-60 0 -112 -22 -155 -66c-43 -43 -64 -96 -64 -158c0 -55 18 -100 53 -136c36 -35 83 -53 140 -53zM470 577h-49l118 130h60zM326 577h-49l117 130h62z" />
    <glyph glyph-name="OE" unicode="&#x152;" horiz-adv-x="1153" 
d="M541 700h656l-6 -43h-418l-41 -259h344l-6 -43h-345l-50 -312h434l-7 -43h-631c-104 0 -187 28 -250 85c-62 57 -93 133 -93 226c0 113 39 206 116 279c78 73 177 110 297 110zM175 311c0 -81 27 -146 81 -195s128 -73 223 -73h150l98 614h-182c-107 0 -196 -32 -266 -95
c-69 -63 -104 -146 -104 -251z" />
    <glyph glyph-name="oe" unicode="&#x153;" horiz-adv-x="1024" 
d="M794 30c51 0 101 15 148 44l-6 -46c-39 -27 -89 -40 -148 -40c-105 0 -192 53 -227 138c-45 -84 -131 -138 -232 -138c-72 0 -130 23 -174 68c-43 45 -65 101 -65 166c0 73 25 136 76 188c51 53 114 79 190 79c107 0 186 -56 221 -141c44 85 125 141 228 141
c66 0 116 -21 151 -63s52 -90 52 -145c0 -19 -1 -35 -3 -49h-415v-16c0 -57 19 -103 58 -136s88 -50 146 -50zM329 32c61 0 112 22 155 65c43 44 64 97 64 159c0 55 -18 100 -54 135c-35 36 -82 54 -139 54c-60 0 -112 -22 -155 -66c-43 -43 -64 -96 -64 -158
c0 -55 18 -100 53 -136c36 -35 83 -53 140 -53zM801 447c-52 0 -97 -17 -135 -50s-62 -75 -71 -126h368c1 5 1 10 1 17c0 42 -14 79 -42 111c-27 32 -68 48 -121 48z" />
    <glyph glyph-name="Racute" unicode="&#x154;" horiz-adv-x="741" 
d="M519 332l172 -332h-53l-170 329h-259l-53 -329h-46l111 700h297c123 0 195 -65 195 -164c0 -109 -78 -185 -194 -204zM512 657h-252l-45 -285h268c51 0 94 14 129 43c36 29 54 67 54 116c0 80 -55 126 -154 126zM468 763h-49l117 130h61z" />
    <glyph glyph-name="racute" unicode="&#x155;" horiz-adv-x="343" 
d="M134 0h-45l75 477h45l-15 -100c44 61 126 111 210 112l-7 -46c-45 0 -87 -13 -125 -38s-67 -55 -88 -89zM289 577h-50l117 130h62z" />
    <glyph glyph-name="uni0156" unicode="&#x156;" horiz-adv-x="741" 
d="M519 332l172 -332h-53l-170 329h-259l-53 -329h-46l111 700h297c123 0 195 -65 195 -164c0 -109 -78 -185 -194 -204zM512 657h-252l-45 -285h268c51 0 94 14 129 43c36 29 54 67 54 116c0 80 -55 126 -154 126zM318 -218h-40l79 168h49z" />
    <glyph glyph-name="uni0157" unicode="&#x157;" horiz-adv-x="343" 
d="M134 0h-45l75 477h45l-15 -100c44 61 126 111 210 112l-7 -46c-45 0 -87 -13 -125 -38s-67 -55 -88 -89zM40 -218h-40l79 168h49z" />
    <glyph glyph-name="Rcaron" unicode="&#x158;" horiz-adv-x="741" 
d="M519 332l172 -332h-53l-170 329h-259l-53 -329h-46l111 700h297c123 0 195 -65 195 -164c0 -109 -78 -185 -194 -204zM512 657h-252l-45 -285h268c51 0 94 14 129 43c36 29 54 67 54 116c0 80 -55 126 -154 126zM485 763h-48l-86 130h47l66 -97l98 97h52z" />
    <glyph glyph-name="rcaron" unicode="&#x159;" horiz-adv-x="344" 
d="M135 0h-45l75 477h45l-15 -100c44 61 126 111 210 112l-7 -46c-45 0 -87 -13 -125 -38s-67 -55 -88 -89zM313 577h-48l-86 130h47l66 -99l97 99h52z" />
    <glyph glyph-name="Sacute" unicode="&#x15a;" horiz-adv-x="623" 
d="M613 651l-7 -46c-63 42 -135 63 -218 63c-52 0 -99 -12 -141 -37c-41 -24 -62 -60 -62 -107c0 -21 8 -41 17 -54s32 -28 45 -36s48 -20 63 -25l36 -11l35 -10l62 -21c15 -5 33 -13 55 -24c61 -29 90 -69 95 -139c0 -67 -27 -120 -82 -159c-54 -38 -118 -57 -192 -57
c-52 0 -103 8 -153 23c-49 15 -86 33 -109 52l9 51c22 -21 57 -40 104 -57s97 -25 150 -25c34 0 67 5 100 15c33 11 61 29 86 55c25 27 38 58 38 95c0 36 -17 67 -37 84c-10 9 -25 18 -45 27c-39 19 -60 25 -112 40c-36 10 -64 19 -85 27c-20 8 -41 18 -64 31
c-44 27 -63 62 -63 113c0 131 126 193 253 193c81 0 169 -24 222 -61zM428 763h-49l117 130h61z" />
    <glyph glyph-name="sacute" unicode="&#x15b;" horiz-adv-x="490" 
d="M480 435l-6 -46c-51 39 -112 58 -181 58c-61 2 -136 -22 -138 -91c0 -21 13 -39 26 -51c7 -5 18 -11 32 -17c29 -12 42 -16 82 -28c55 -17 78 -26 113 -47c35 -20 50 -46 50 -82c0 -47 -20 -83 -60 -107c-39 -24 -86 -36 -139 -36c-88 0 -169 31 -209 63l7 48
c57 -46 124 -69 203 -69c39 0 74 8 106 23s48 40 48 74c0 45 -43 66 -138 94c-52 16 -74 24 -111 44c-37 21 -55 51 -55 88c0 45 18 78 54 101s80 35 131 35c73 0 135 -18 185 -54zM333 577h-50l117 130h62z" />
    <glyph glyph-name="Scircumflex" unicode="&#x15c;" horiz-adv-x="623" 
d="M613 652l-7 -46c-63 42 -135 63 -218 63c-90 3 -202 -44 -203 -145c0 -21 8 -41 17 -54s32 -28 45 -36s48 -20 63 -25l36 -11l35 -10l62 -21c15 -5 33 -13 55 -24c61 -29 90 -69 95 -139c0 -67 -27 -120 -82 -159c-54 -39 -118 -58 -192 -58c-52 0 -103 8 -153 23
c-49 15 -86 33 -109 52l9 51c22 -21 57 -40 104 -57s97 -25 150 -25c34 0 67 5 100 16s61 29 86 55c25 27 38 58 38 95c0 36 -17 67 -37 84c-10 9 -25 18 -45 27c-39 19 -60 25 -112 40c-36 10 -64 19 -85 27c-20 8 -41 18 -64 31c-44 27 -63 62 -63 113
c0 128 126 197 253 194c81 0 169 -24 222 -61zM414 893h49l85 -130h-47l-65 97l-98 -97h-52z" />
    <glyph glyph-name="scircumflex" unicode="&#x15d;" horiz-adv-x="490" 
d="M480 435l-6 -46c-51 39 -112 58 -181 58c-61 2 -136 -22 -138 -91c0 -21 13 -39 26 -51c7 -5 18 -11 32 -17c29 -12 42 -16 82 -28c55 -17 78 -26 113 -47c35 -20 50 -46 50 -82c0 -47 -20 -83 -60 -107c-39 -24 -86 -36 -139 -36c-88 0 -169 31 -209 63l7 48
c57 -46 124 -69 203 -69c39 0 74 8 106 23s48 40 48 74c0 45 -43 66 -138 94c-52 16 -74 24 -111 44c-37 21 -55 51 -55 88c0 45 18 78 54 101s80 35 131 35c73 0 135 -18 185 -54zM324 706h48l86 -130h-47l-66 97l-98 -97h-52z" />
    <glyph glyph-name="Scedilla" unicode="&#x15e;" horiz-adv-x="623" 
d="M260 -127h-57l95 116c-49 2 -96 10 -141 25s-79 31 -100 49l9 51c22 -21 57 -40 104 -57s97 -25 150 -25c34 0 67 5 100 15c33 11 61 29 86 55c25 27 38 58 38 95c0 36 -17 67 -37 84c-10 9 -25 18 -45 27c-39 19 -60 25 -112 40c-36 10 -64 19 -85 27
c-20 8 -41 18 -64 31c-44 27 -63 62 -63 113c0 131 126 193 253 193c81 0 169 -24 222 -61l-7 -46c-63 42 -135 63 -218 63c-52 0 -99 -12 -141 -37c-41 -24 -62 -60 -62 -107c0 -21 8 -41 17 -54s32 -28 45 -36s48 -20 63 -25l36 -11l35 -10l62 -21c15 -5 33 -13 55 -24
c61 -29 90 -69 95 -139c0 -63 -25 -114 -74 -152s-108 -59 -177 -63z" />
    <glyph glyph-name="scedilla" unicode="&#x15f;" horiz-adv-x="490" 
d="M195 -127h-57l95 116c-79 5 -147 34 -183 62l7 48c57 -46 124 -69 203 -69c39 0 74 8 106 23s48 40 48 74c0 45 -43 66 -138 94c-52 16 -74 24 -111 44c-37 21 -55 51 -55 88c0 45 18 78 54 101s80 35 131 35c73 0 135 -18 185 -54l-6 -46c-51 39 -112 58 -181 58
c-61 2 -136 -22 -138 -91c0 -21 13 -39 26 -51c7 -5 18 -11 32 -17c29 -12 42 -16 82 -28c55 -17 78 -26 113 -47c35 -20 50 -46 50 -82c0 -45 -18 -79 -53 -103c-35 -23 -78 -36 -128 -39z" />
    <glyph glyph-name="Scaron" unicode="&#x160;" horiz-adv-x="623" 
d="M613 651l-7 -46c-63 42 -135 63 -218 63c-52 0 -99 -12 -141 -37c-41 -24 -62 -60 -62 -107c0 -21 8 -41 17 -54s32 -28 45 -36s48 -20 63 -25l36 -11l35 -10l62 -21c15 -5 33 -13 55 -24c61 -29 90 -69 95 -139c0 -67 -27 -120 -82 -159c-54 -38 -118 -57 -192 -57
c-52 0 -103 8 -153 23c-49 15 -86 33 -109 52l9 51c22 -21 57 -40 104 -57s97 -25 150 -25c34 0 67 5 100 15c33 11 61 29 86 55c25 27 38 58 38 95c0 36 -17 67 -37 84c-10 9 -25 18 -45 27c-39 19 -60 25 -112 40c-36 10 -64 19 -85 27c-20 8 -41 18 -64 31
c-44 27 -63 62 -63 113c0 131 126 193 253 193c81 0 169 -24 222 -61zM440 763h-48l-86 130h47l66 -97l98 97h52z" />
    <glyph glyph-name="scaron" unicode="&#x161;" horiz-adv-x="490" 
d="M480 435l-6 -46c-51 39 -112 58 -181 58c-61 2 -136 -22 -138 -91c0 -21 13 -39 26 -51c7 -5 18 -11 32 -17c29 -12 42 -16 82 -28c55 -17 78 -26 113 -47c35 -20 50 -46 50 -82c0 -47 -20 -83 -60 -107c-39 -24 -86 -36 -139 -36c-88 0 -169 31 -209 63l7 48
c57 -46 124 -69 203 -69c39 0 74 8 106 23s48 40 48 74c0 45 -43 66 -138 94c-52 16 -74 24 -111 44c-37 21 -55 51 -55 88c0 45 18 78 54 101s80 35 131 35c73 0 135 -18 185 -54zM352 577h-48l-86 130h47l66 -99l97 99h52z" />
    <glyph glyph-name="uni0162" unicode="&#x162;" horiz-adv-x="621" 
d="M243 -127h-57l102 127l104 657h-251l7 43h548l-7 -43h-251l-104 -657z" />
    <glyph glyph-name="uni0163" unicode="&#x163;" horiz-adv-x="422" 
d="M173 146l45 290h-122l7 41h122l24 154h45l-24 -154h178l-6 -41h-179l-43 -282c-5 -40 -8 -61 -8 -62c0 -41 26 -62 77 -62c25 0 54 8 85 25l-6 -45c-21 -13 -48 -20 -83 -22l-82 -115h-57l97 117c-52 9 -78 39 -78 91c0 19 3 40 8 65z" />
    <glyph glyph-name="Tcaron" unicode="&#x164;" horiz-adv-x="621" 
d="M453 763h-48l-86 130h47l66 -97l98 97h52zM334 0h-46l104 657h-251l7 43h548l-7 -43h-251z" />
    <glyph glyph-name="tcaron" unicode="&#x165;" horiz-adv-x="519" 
d="M219 436h-122l7 41h122l24 154h45l-24 -154h178l-6 -41h-179l-43 -282c-5 -40 -8 -61 -8 -62c0 -41 26 -62 77 -62c25 0 54 8 85 25l-6 -45c-25 -15 -56 -22 -94 -22c-73 0 -109 31 -109 93c0 19 3 40 8 65zM539 531h-40l79 168h49z" />
    <glyph glyph-name="Tbar" unicode="&#x166;" horiz-adv-x="621" 
d="M334 0h-46l56 353h-150l7 43h150l41 261h-251l7 43h548l-7 -43h-251l-41 -261h150l-7 -43h-150z" />
    <glyph glyph-name="tbar" unicode="&#x167;" horiz-adv-x="422" 
d="M74 280h120l24 156h-122l7 41h122l24 154h45l-24 -154h178l-6 -41h-179l-24 -156h178l-7 -41h-177l-13 -85c-5 -40 -8 -61 -8 -62c0 -41 26 -62 77 -62c25 0 54 8 85 25l-6 -45c-25 -15 -56 -22 -94 -22c-73 0 -109 31 -109 93c0 19 3 40 8 65l14 93h-120z" />
    <glyph glyph-name="Utilde" unicode="&#x168;" horiz-adv-x="747" 
d="M654 302l63 398h46l-66 -415c-31 -192 -149 -297 -309 -297c-155 0 -253 90 -253 247c0 18 3 50 10 97l59 368h46l-59 -376c-6 -39 -9 -67 -9 -83c0 -131 76 -209 208 -209c141 0 237 98 264 270zM624 873h37c-11 -59 -45 -96 -90 -96c-19 0 -42 10 -71 31
c-28 21 -49 31 -62 31c-25 0 -41 -19 -49 -56h-37c11 57 45 94 90 94c19 0 42 -10 71 -31s49 -31 61 -31c28 0 41 21 50 58z" />
    <glyph glyph-name="utilde" unicode="&#x169;" horiz-adv-x="601" 
d="M588 477l-76 -477h-45l13 79c-61 -61 -130 -91 -207 -91c-100 0 -166 62 -166 158c0 7 3 34 9 80l39 251h45l-40 -254c-5 -31 -7 -55 -7 -72c0 -80 51 -121 134 -121c39 0 77 11 114 32c37 22 66 47 88 75l54 340h45zM462 593c-19 0 -43 10 -72 31s-49 32 -61 32
c-24 0 -41 -19 -50 -57h-38c11 59 46 97 91 97c19 0 42 -10 71 -31s50 -31 62 -31c22 0 38 19 48 57h38c-11 -59 -44 -98 -89 -98z" />
    <glyph glyph-name="Umacron" unicode="&#x16a;" horiz-adv-x="747" 
d="M654 302l63 398h46l-66 -415c-31 -192 -149 -297 -309 -297c-155 0 -253 90 -253 247c0 18 3 50 10 97l59 368h46l-59 -376c-6 -39 -9 -67 -9 -83c0 -131 76 -209 208 -209c141 0 237 98 264 270zM617 810h-230l5 38h231z" />
    <glyph glyph-name="umacron" unicode="&#x16b;" horiz-adv-x="601" 
d="M588 477l-76 -477h-45l13 79c-61 -61 -130 -91 -207 -91c-100 0 -166 62 -166 158c0 7 3 34 9 80l39 251h45l-40 -254c-5 -31 -7 -55 -7 -72c0 -80 51 -121 134 -121c39 0 77 11 114 32c37 22 66 47 88 75l54 340h45zM509 625h-230l5 38h231z" />
    <glyph glyph-name="Ubreve" unicode="&#x16c;" horiz-adv-x="747" 
d="M654 302l63 398h46l-66 -415c-31 -192 -149 -297 -309 -297c-155 0 -253 90 -253 247c0 18 3 50 10 97l59 368h46l-59 -376c-6 -39 -9 -67 -9 -83c0 -131 76 -209 208 -209c141 0 237 98 264 270zM487 763c-65 0 -116 46 -116 109c0 9 0 16 1 21h39c-1 -5 -1 -10 -1 -17
c0 -44 31 -75 78 -75c52 0 90 39 101 92h40c-5 -37 -21 -68 -48 -93s-58 -37 -94 -37z" />
    <glyph glyph-name="ubreve" unicode="&#x16d;" horiz-adv-x="601" 
d="M588 477l-76 -477h-45l13 79c-61 -61 -130 -91 -207 -91c-100 0 -166 62 -166 158c0 7 3 34 9 80l39 251h45l-40 -254c-5 -31 -7 -55 -7 -72c0 -80 51 -121 134 -121c39 0 77 11 114 32c37 22 66 47 88 75l54 340h45zM383 578c-65 0 -116 45 -116 108c0 9 0 16 1 21h39
c-1 -5 -1 -10 -1 -17c0 -44 31 -74 78 -74c52 0 90 38 101 91h40c-5 -37 -21 -68 -48 -93c-27 -24 -58 -36 -94 -36z" />
    <glyph glyph-name="Uring" unicode="&#x16e;" horiz-adv-x="747" 
d="M654 302l63 398h46l-66 -415c-31 -192 -149 -297 -309 -297c-155 0 -253 90 -253 247c0 18 3 50 10 97l59 368h46l-59 -376c-6 -39 -9 -67 -9 -83c0 -131 76 -209 208 -209c141 0 237 98 264 270zM493 735c-53 0 -95 42 -95 93s42 93 95 93c49 0 91 -42 91 -93
s-42 -93 -91 -93zM493 768c33 0 60 27 60 60c0 35 -27 61 -60 61c-35 0 -62 -26 -62 -61c0 -33 27 -60 62 -60z" />
    <glyph glyph-name="uring" unicode="&#x16f;" horiz-adv-x="601" 
d="M588 477l-76 -477h-45l13 79c-61 -61 -130 -91 -207 -91c-100 0 -166 62 -166 158c0 7 3 34 9 80l39 251h45l-40 -254c-5 -31 -7 -55 -7 -72c0 -80 51 -121 134 -121c39 0 77 11 114 32c37 22 66 47 88 75l54 340h45zM391 552c-53 0 -95 42 -95 93s42 93 95 93
c49 0 91 -42 91 -93s-42 -93 -91 -93zM391 585c33 0 60 27 60 60c0 35 -27 61 -60 61c-35 0 -62 -26 -62 -61c0 -33 27 -60 62 -60z" />
    <glyph glyph-name="Uhungarumlaut" unicode="&#x170;" horiz-adv-x="747" 
d="M654 302l63 398h46l-66 -415c-31 -192 -149 -297 -309 -297c-155 0 -253 90 -253 247c0 18 3 50 10 97l59 368h46l-59 -376c-6 -39 -9 -67 -9 -83c0 -131 76 -209 208 -209c141 0 237 98 264 270zM561 763h-49l118 130h60zM417 763h-49l117 130h62z" />
    <glyph glyph-name="uhungarumlaut" unicode="&#x171;" horiz-adv-x="603" 
d="M588 477l-76 -477h-45l13 79c-61 -61 -130 -91 -207 -91c-100 0 -166 62 -166 158c0 7 3 34 9 80l39 251h45l-40 -254c-5 -31 -7 -55 -7 -72c0 -80 51 -121 134 -121c39 0 77 11 114 32c37 22 66 47 88 75l54 340h45zM461 577h-49l118 130h60zM317 577h-49l117 130h62z
" />
    <glyph glyph-name="Uogonek" unicode="&#x172;" horiz-adv-x="747" 
d="M449 -186c-57 0 -91 34 -91 82c0 36 13 67 40 92h-10c-155 0 -253 90 -253 247c0 18 3 50 10 97l59 368h46l-59 -376c-6 -39 -9 -67 -9 -83c0 -131 76 -209 208 -209c141 0 237 98 264 270l63 398h46l-66 -415c-25 -155 -98 -250 -220 -285c-47 -13 -81 -49 -81 -96
c0 -35 26 -56 67 -56c13 0 26 2 41 6l-6 -33c-15 -5 -32 -7 -49 -7z" />
    <glyph glyph-name="uogonek" unicode="&#x173;" horiz-adv-x="601" 
d="M510 -193c-57 0 -91 34 -91 82c0 39 16 76 48 111l13 79c-61 -61 -130 -91 -207 -91c-100 0 -166 62 -166 158c0 7 3 34 9 80l39 251h45l-40 -254c-5 -31 -7 -55 -7 -72c0 -80 51 -121 134 -121c39 0 77 11 114 32c37 22 66 47 88 75l54 340h45l-76 -477
c-37 -34 -55 -68 -55 -101c0 -36 26 -58 67 -58c12 0 26 2 41 6l-6 -33c-15 -5 -32 -7 -49 -7z" />
    <glyph glyph-name="Wcircumflex" unicode="&#x174;" horiz-adv-x="1042" 
d="M319 74l290 627h40l93 -625l311 624h53l-355 -704h-42l-92 620l-289 -620h-40l-133 704h49zM635 893h48l86 -130h-47l-66 97l-98 -97h-52z" />
    <glyph glyph-name="wcircumflex" unicode="&#x175;" horiz-adv-x="813" 
d="M581 67l214 410h49l-251 -481h-40l-82 413l-214 -413h-39l-99 481h45l85 -409l212 411h38zM484 706h48l86 -130h-47l-66 97l-98 -97h-52z" />
    <glyph glyph-name="Ycircumflex" unicode="&#x176;" horiz-adv-x="646" 
d="M378 369l295 331h56l-332 -375l-51 -325h-47l51 324l-214 376h53zM428 893h48l86 -130h-47l-66 97l-98 -97h-52z" />
    <glyph glyph-name="ycircumflex" unicode="&#x177;" horiz-adv-x="538" 
d="M521 477h51l-312 -534c-57 -97 -114 -147 -187 -147c-25 0 -46 6 -65 17l6 42c18 -11 38 -17 59 -17c33 0 62 14 88 43c27 28 58 74 95 138l-155 458h48l137 -405zM341 706h48l86 -130h-47l-66 97l-98 -97h-52z" />
    <glyph glyph-name="Ydieresis" unicode="&#x178;" horiz-adv-x="646" 
d="M378 369l295 331h56l-332 -375l-51 -325h-47l51 324l-214 376h53zM507 799c-34 32 21 86 51 51c35 -30 -19 -85 -51 -51zM317 799c-34 32 21 86 51 51c35 -30 -19 -85 -51 -51z" />
    <glyph glyph-name="Zacute" unicode="&#x179;" horiz-adv-x="639" 
d="M667 700l-5 -33l-535 -624h465l-7 -43h-530l5 34l537 623h-425l6 43h489zM446 763h-49l117 130h61z" />
    <glyph glyph-name="zacute" unicode="&#x17a;" horiz-adv-x="493" 
d="M43 31l387 405h-309l7 41h375l-5 -33l-385 -403h346l-6 -41h-415zM328 577h-50l117 130h62z" />
    <glyph glyph-name="Zdotaccent" unicode="&#x17b;" horiz-adv-x="639" 
d="M667 700l-5 -33l-535 -624h465l-7 -43h-530l5 34l537 623h-425l6 43h489zM404 798c-36 33 21 90 54 54c36 -33 -21 -90 -54 -54z" />
    <glyph glyph-name="zdotaccent" unicode="&#x17c;" horiz-adv-x="493" 
d="M43 31l387 405h-309l7 41h375l-5 -33l-385 -403h346l-6 -41h-415zM295 619c-36 33 21 90 54 54c36 -33 -21 -90 -54 -54z" />
    <glyph glyph-name="Zcaron" unicode="&#x17d;" horiz-adv-x="639" 
d="M458 763h-48l-86 130h47l66 -97l98 97h52zM667 700l-5 -33l-535 -624h465l-7 -43h-530l5 34l537 623h-425l6 43h489z" />
    <glyph glyph-name="zcaron" unicode="&#x17e;" horiz-adv-x="493" 
d="M351 577h-48l-86 130h47l66 -99l97 99h52zM43 31l387 405h-309l7 41h375l-5 -33l-385 -403h346l-6 -41h-415z" />
    <glyph glyph-name="longs" unicode="&#x17f;" horiz-adv-x="330" 
d="M262 562l-89 -562h-45l69 436h-100l7 41h99l15 95c13 84 67 135 147 135c35 0 65 -7 90 -20l-7 -43c-25 14 -52 21 -80 21c-57 0 -95 -38 -106 -103z" />
    <glyph glyph-name="florin" unicode="&#x192;" horiz-adv-x="441" 
d="M43 -204c-29 0 -56 6 -80 17v42c25 -11 49 -17 74 -17c77 0 127 55 142 156l54 358h-139v41h145l20 128c19 124 78 186 178 186c33 0 61 -5 83 -16v-44c-24 12 -49 18 -76 18c-77 0 -124 -45 -141 -154l-18 -118h170v-41h-176l-57 -368c-19 -113 -78 -188 -179 -188z" />
    <glyph glyph-name="uni0218" unicode="&#x218;" horiz-adv-x="623" 
d="M613 651l-7 -46c-63 42 -135 63 -218 63c-52 0 -99 -12 -141 -37c-41 -24 -62 -60 -62 -107c0 -21 8 -41 17 -54s32 -28 45 -36s48 -20 63 -25l36 -11l35 -10l62 -21c15 -5 33 -13 55 -24c61 -29 90 -69 95 -139c0 -67 -27 -120 -82 -159c-54 -38 -118 -57 -192 -57
c-52 0 -103 8 -153 23c-49 15 -86 33 -109 52l9 51c22 -21 57 -40 104 -57s97 -25 150 -25c34 0 67 5 100 15c33 11 61 29 86 55c25 27 38 58 38 95c0 36 -17 67 -37 84c-10 9 -25 18 -45 27c-39 19 -60 25 -112 40c-36 10 -64 19 -85 27c-20 8 -41 18 -64 31
c-44 27 -63 62 -63 113c0 131 126 193 253 193c81 0 169 -24 222 -61zM259 -218h-40l79 168h49z" />
    <glyph glyph-name="uni0219" unicode="&#x219;" horiz-adv-x="490" 
d="M480 435l-6 -46c-51 39 -112 58 -181 58c-61 2 -136 -22 -138 -91c0 -21 13 -39 26 -51c7 -5 18 -11 32 -17c29 -12 42 -16 82 -28c55 -17 78 -26 113 -47c35 -20 50 -46 50 -82c0 -47 -20 -83 -60 -107c-39 -24 -86 -36 -139 -36c-88 0 -169 31 -209 63l7 48
c57 -46 124 -69 203 -69c39 0 74 8 106 23s48 40 48 74c0 45 -43 66 -138 94c-52 16 -74 24 -111 44c-37 21 -55 51 -55 88c0 45 18 78 54 101s80 35 131 35c73 0 135 -18 185 -54zM188 -218h-40l79 168h49z" />
    <glyph glyph-name="uni021A" unicode="&#x21a;" horiz-adv-x="621" 
d="M334 0h-46l104 657h-251l7 43h548l-7 -43h-251zM238 -218h-40l79 168h49z" />
    <glyph glyph-name="uni021B" unicode="&#x21b;" horiz-adv-x="422" 
d="M173 146l45 290h-122l7 41h122l24 154h45l-24 -154h178l-6 -41h-179l-43 -282c-5 -40 -8 -61 -8 -62c0 -41 26 -62 77 -62c25 0 54 8 85 25l-6 -45c-25 -15 -56 -22 -94 -22c-73 0 -109 31 -109 93c0 19 3 40 8 65zM199 -218h-40l79 168h49z" />
    <glyph glyph-name="circumflex" unicode="&#x2c6;" horiz-adv-x="526" 
d="M349 706h48l86 -130h-47l-66 97l-98 -97h-52z" />
    <glyph glyph-name="caron" unicode="&#x2c7;" horiz-adv-x="521" 
d="M365 577h-48l-86 130h47l66 -99l97 99h52z" />
    <glyph glyph-name="uni02C9" unicode="&#x2c9;" horiz-adv-x="504" 
d="M186 626l6 36h330l-5 -36h-331z" />
    <glyph glyph-name="breve" unicode="&#x2d8;" horiz-adv-x="519" 
d="M353 578c-65 0 -116 45 -116 108c0 9 0 16 1 21h39c-1 -5 -1 -10 -1 -17c0 -44 31 -74 78 -74c52 0 90 38 101 91h40c-5 -37 -21 -68 -48 -93c-27 -24 -58 -36 -94 -36z" />
    <glyph glyph-name="dotaccent" unicode="&#x2d9;" horiz-adv-x="506" 
d="M323 619c-36 33 21 90 54 54c36 -33 -21 -90 -54 -54z" />
    <glyph glyph-name="ring" unicode="&#x2da;" horiz-adv-x="361" 
d="M280 552c-53 0 -95 42 -95 93s42 93 95 93c49 0 91 -42 91 -93s-42 -93 -91 -93zM280 585c33 0 60 27 60 60c0 35 -27 61 -60 61c-35 0 -62 -26 -62 -61c0 -33 27 -60 62 -60z" />
    <glyph glyph-name="ogonek" unicode="&#x2db;" horiz-adv-x="516" 
d="M278 -186c-57 0 -91 34 -91 82c0 42 18 79 53 111h40c-37 -34 -55 -68 -55 -101c0 -36 26 -58 67 -58c12 0 26 2 41 6l-6 -33c-15 -5 -32 -7 -49 -7z" />
    <glyph glyph-name="tilde" unicode="&#x2dc;" horiz-adv-x="519" 
d="M424 593c-19 0 -43 10 -72 31s-49 32 -61 32c-24 0 -41 -19 -50 -57h-38c11 59 46 97 91 97c19 0 42 -10 71 -31s50 -31 62 -31c22 0 38 19 48 57h38c-11 -59 -44 -98 -89 -98z" />
    <glyph glyph-name="hungarumlaut" unicode="&#x2dd;" horiz-adv-x="422" 
d="M331 577h-49l118 130h60zM187 577h-49l117 130h62z" />
    <glyph glyph-name="acutecomb" unicode="&#x301;" horiz-adv-x="20" 
d="M-166 577h-50l117 130h62z" />
    <glyph glyph-name="uni037E" unicode="&#x37e;" horiz-adv-x="230" 
d="M48 -152h-39l114 239h56zM154 397c-36 33 21 90 54 54c36 -33 -21 -90 -54 -54z" />
    <glyph glyph-name="uni0394" unicode="&#x394;" horiz-adv-x="742" 
d="M709 0h-676l428 700h43zM477 643l-369 -600h545z" />
    <glyph glyph-name="uni03A9" unicode="&#x3a9;" horiz-adv-x="805" 
d="M759 416c0 -145 -66 -280 -182 -373h124l-7 -43h-187l6 38c60 43 108 98 144 163c37 66 55 136 55 209c0 70 -20 130 -59 181s-95 77 -166 77c-55 0 -105 -18 -149 -54c-88 -71 -132 -182 -132 -294c0 -53 10 -105 29 -158c19 -52 43 -93 71 -124l-5 -38h-186l6 43h132
c-27 33 -50 75 -68 126c-17 51 -26 103 -26 155c0 92 31 187 84 262c55 75 143 126 243 126c82 0 148 -28 198 -83s75 -126 75 -213z" />
    <glyph glyph-name="uni03BC" unicode="&#x3bc;" horiz-adv-x="619" 
d="M606 477l-76 -477h-45l13 79c-61 -61 -130 -91 -207 -91c-64 0 -111 22 -140 65l-49 -307h-45l116 731h45l-40 -254c-5 -31 -7 -55 -7 -72c0 -80 51 -121 134 -121c39 0 77 11 114 32c37 22 66 47 88 75l54 340h45z" />
    <glyph glyph-name="pi" unicode="&#x3c0;" horiz-adv-x="674" 
d="M683 477l-6 -41h-98l-48 -307c0 -7 -4 -28 -4 -38c0 -36 17 -54 50 -54c14 0 27 3 38 9l-7 -40c-13 -7 -29 -11 -48 -11c-54 0 -81 28 -81 85c0 7 2 22 5 45l49 311h-281l-70 -436h-45l69 436h-92l7 41h562z" />
    <glyph glyph-name="uni0401" unicode="&#x401;" horiz-adv-x="645" 
d="M594 0h-484l111 700h468l-7 -43h-422l-41 -259h349l-7 -43h-349l-49 -312h438zM541 799c-34 32 21 86 51 51c35 -30 -19 -85 -51 -51zM351 799c-34 32 21 86 51 51c35 -30 -19 -85 -51 -51z" />
    <glyph glyph-name="uni0402" unicode="&#x402;" horiz-adv-x="744" 
d="M502 407c67 0 120 -19 161 -56s61 -84 61 -140c0 -66 -23 -120 -68 -161s-102 -62 -172 -62c-44 0 -83 7 -118 21l6 46c32 -15 69 -23 110 -23c55 0 102 16 139 47c38 32 57 75 57 130c0 87 -66 154 -185 154c-71 0 -141 -17 -211 -50l-50 -313h-46l103 657h-148l6 43
h474l-6 -43h-280l-47 -296c74 31 145 46 214 46z" />
    <glyph glyph-name="uni0403" unicode="&#x403;" horiz-adv-x="600" 
d="M156 0h-46l111 700h454l-7 -43h-408zM465 763h-49l117 130h61z" />
    <glyph glyph-name="uni0404" unicode="&#x404;" horiz-adv-x="692" 
d="M175 336v-14c0 -84 26 -154 79 -209s121 -82 206 -82c80 0 150 22 210 66l-8 -50c-58 -40 -126 -60 -205 -60c-98 0 -177 31 -238 94s-91 142 -91 237c0 108 35 201 106 278c71 78 162 117 271 117c81 0 151 -20 210 -61l-7 -46c-58 42 -126 63 -204 63
c-82 0 -154 -28 -215 -83s-97 -124 -109 -207h351l-6 -43h-350z" />
    <glyph glyph-name="uni0405" unicode="&#x405;" horiz-adv-x="623" 
d="M613 651l-7 -46c-63 42 -135 63 -218 63c-52 0 -99 -12 -141 -37c-41 -24 -62 -60 -62 -107c0 -21 8 -41 17 -54s32 -28 45 -36s48 -20 63 -25l36 -11l35 -10l62 -21c15 -5 33 -13 55 -24c61 -29 90 -69 95 -139c0 -67 -27 -120 -82 -159c-54 -38 -118 -57 -192 -57
c-52 0 -103 8 -153 23c-49 15 -86 33 -109 52l9 51c22 -21 57 -40 104 -57s97 -25 150 -25c34 0 67 5 100 15c33 11 61 29 86 55c25 27 38 58 38 95c0 36 -17 67 -37 84c-10 9 -25 18 -45 27c-39 19 -60 25 -112 40c-36 10 -64 19 -85 27c-20 8 -41 18 -64 31
c-44 27 -63 62 -63 113c0 131 126 193 253 193c81 0 169 -24 222 -61z" />
    <glyph glyph-name="uni0406" unicode="&#x406;" horiz-adv-x="269" 
d="M158 0h-46l111 700h46z" />
    <glyph glyph-name="uni0407" unicode="&#x407;" horiz-adv-x="269" 
d="M158 0h-46l111 700h46zM334 799c-34 32 21 86 51 51c35 -30 -19 -85 -51 -51zM144 799c-34 32 21 86 51 51c35 -30 -19 -85 -51 -51z" />
    <glyph glyph-name="uni0408" unicode="&#x408;" horiz-adv-x="500" 
d="M469 700h46l-80 -504c-23 -139 -103 -208 -242 -208c-64 0 -115 17 -153 50l7 49c35 -37 83 -55 146 -55c115 0 177 52 197 175z" />
    <glyph glyph-name="uni0409" unicode="&#x409;" horiz-adv-x="1134" 
d="M887 382h-212l-53 -339h227c63 0 115 17 156 50c42 33 63 81 63 144c0 93 -65 145 -181 145zM282 526l32 174h412l-43 -275h213c139 0 218 -74 218 -185c0 -73 -25 -132 -75 -175c-49 -43 -113 -65 -192 -65h-278l103 657h-319l-30 -157c-9 -50 -18 -92 -26 -127
c-15 -69 -36 -153 -56 -202c-19 -49 -46 -101 -77 -128c-29 -27 -68 -44 -115 -44c-13 0 -22 1 -29 3l6 44c8 -2 18 -3 31 -3c60 -5 107 56 139 135c11 26 22 59 32 99c11 41 20 79 27 115c8 37 17 81 27 134z" />
    <glyph glyph-name="uni040A" unicode="&#x40a;" horiz-adv-x="1158" 
d="M707 425h213c139 0 218 -74 218 -185c0 -73 -25 -132 -75 -175c-49 -43 -113 -65 -192 -65h-278l60 382h-436l-60 -382h-47l111 700h46l-43 -275h436l43 275h47zM911 382h-211l-54 -339h227c63 0 115 17 156 50c42 33 63 81 63 144c0 93 -65 145 -181 145z" />
    <glyph glyph-name="uni040B" unicode="&#x40b;" horiz-adv-x="768" 
d="M283 319l-51 -319h-46l103 657h-148l6 43h474l-6 -43h-280l-45 -292c78 28 154 42 228 42c137 0 212 -44 212 -157c0 -15 -2 -34 -5 -57l-31 -193h-46l28 181c4 27 6 47 6 60c0 89 -52 122 -175 122c-78 0 -153 -15 -224 -44z" />
    <glyph glyph-name="uni040C" unicode="&#x40c;" horiz-adv-x="650" 
d="M156 0h-46l111 700h46l-49 -309l404 309h66l-423 -326l367 -374h-62l-357 364zM454 763h-49l117 130h61z" />
    <glyph glyph-name="uni040E" unicode="&#x40e;" horiz-adv-x="634" 
d="M646 700h52l-330 -553c-71 -119 -122 -160 -193 -160c-27 0 -52 5 -77 14l7 44c21 -10 43 -15 68 -15c29 0 56 10 79 30c24 21 52 59 85 116l8 16l-218 508h50l197 -460zM273 898h42c-1 -4 -1 -10 -1 -18c0 -52 38 -86 101 -86c68 0 118 43 129 104h41
c-13 -85 -84 -143 -172 -143c-85 0 -142 47 -142 118c0 5 1 13 2 25z" />
    <glyph glyph-name="uni040F" unicode="&#x40f;" horiz-adv-x="744" 
d="M703 700h47l-110 -700h-243l-26 -161h-45l26 161h-242l110 700h47l-105 -657h438z" />
    <glyph glyph-name="uni0410" unicode="&#x410;" horiz-adv-x="744" 
d="M711 0h-49l-60 206h-393l-124 -206h-52l429 704h43zM591 246l-115 398l-242 -398h357z" />
    <glyph glyph-name="uni0411" unicode="&#x411;" horiz-adv-x="703" 
d="M223 423h221c141 0 221 -73 221 -185c0 -73 -25 -131 -75 -174c-49 -43 -113 -64 -192 -64h-288l111 700h466l-6 -43h-421zM217 380l-55 -337h240c62 0 114 16 155 49s62 81 62 143c0 92 -66 145 -182 145h-220z" />
    <glyph glyph-name="uni0412" unicode="&#x412;" horiz-adv-x="732" 
d="M562 378c84 -16 135 -75 135 -158c0 -69 -24 -123 -72 -162s-109 -58 -184 -58h-331l111 700h289c111 0 176 -59 176 -147c0 -83 -44 -147 -124 -175zM503 657h-243l-42 -264h244c49 0 91 13 126 39s52 63 52 112c0 69 -50 113 -137 113zM212 353l-50 -310h279
c59 0 108 15 147 45c39 31 59 75 59 132c0 81 -58 133 -159 133h-276z" />
    <glyph glyph-name="uni0413" unicode="&#x413;" horiz-adv-x="600" 
d="M156 0h-46l111 700h454l-7 -43h-408z" />
    <glyph glyph-name="uni0414" unicode="&#x414;" horiz-adv-x="776" 
d="M44 -161h-44l33 204h64c58 65 104 140 138 224s63 204 88 360l12 73h409l-104 -657h110l-33 -204h-44l26 161h-630zM152 43h442l97 614h-317l-8 -47c-41 -267 -103 -443 -214 -567z" />
    <glyph glyph-name="uni0415" unicode="&#x415;" horiz-adv-x="645" 
d="M594 0h-484l111 700h468l-7 -43h-422l-41 -259h349l-7 -43h-349l-49 -312h438z" />
    <glyph glyph-name="uni0416" unicode="&#x416;" horiz-adv-x="959" 
d="M89 0h-65l441 376l-281 324h57l273 -316l50 316h46l-51 -320l374 320h64l-391 -335l315 -365h-60l-306 355l-56 -355h-46l56 356z" />
    <glyph glyph-name="uni0417" unicode="&#x417;" horiz-adv-x="622" 
d="M449 382c80 -20 142 -82 142 -169c0 -48 -15 -90 -44 -125c-57 -69 -148 -100 -249 -100c-87 0 -164 18 -229 54l7 49c69 -39 143 -59 223 -59c39 0 76 6 111 17c36 11 67 31 94 59c27 29 40 63 40 104c0 88 -76 149 -196 149h-86l6 42h91c50 0 94 12 131 37
s56 61 56 108c0 76 -70 120 -178 120c-71 0 -138 -15 -202 -45l7 47c65 28 132 42 200 42c132 0 220 -61 220 -160c0 -85 -60 -149 -144 -170z" />
    <glyph glyph-name="uni0418" unicode="&#x418;" horiz-adv-x="776" 
d="M150 0h-40l111 700h46l-99 -621l572 621h42l-111 -700h-46l99 623z" />
    <glyph glyph-name="uni0419" unicode="&#x419;" horiz-adv-x="776" 
d="M150 0h-40l111 700h46l-99 -621l572 621h42l-111 -700h-46l99 623zM374 898h42c-1 -4 -1 -10 -1 -18c0 -52 38 -86 101 -86c68 0 118 43 129 104h41c-13 -85 -84 -143 -172 -143c-85 0 -142 47 -142 118c0 5 1 13 2 25z" />
    <glyph glyph-name="uni041A" unicode="&#x41a;" horiz-adv-x="650" 
d="M156 0h-46l111 700h46l-49 -309l404 309h66l-423 -326l367 -374h-62l-357 364z" />
    <glyph glyph-name="uni041B" unicode="&#x41b;" horiz-adv-x="724" 
d="M677 657h-324l-43 -221c-23 -119 -42 -196 -71 -272c-43 -111 -98 -161 -190 -165c-13 0 -22 1 -29 3l6 44c8 -2 18 -3 31 -3c60 -5 107 56 139 135c11 26 22 59 32 99c11 41 20 79 27 115c8 37 17 81 27 134l32 174h416l-111 -700h-46z" />
    <glyph glyph-name="uni041C" unicode="&#x41c;" horiz-adv-x="851" 
d="M857 700l-111 -700h-46l100 627l-309 -334h-31l-204 335l-100 -628h-46l111 700h43l216 -357l327 357h50z" />
    <glyph glyph-name="uni041D" unicode="&#x41d;" horiz-adv-x="764" 
d="M156 0h-46l111 700h46l-48 -302h457l48 302h46l-111 -700h-46l56 355h-457z" />
    <glyph glyph-name="uni041E" unicode="&#x41e;" horiz-adv-x="846" 
d="M501 712c97 0 176 -31 235 -94c60 -63 90 -142 90 -237c5 -207 -160 -396 -372 -393c-97 0 -176 31 -236 94s-90 143 -90 238c0 107 35 199 106 276s160 116 267 116zM456 32c89 0 165 34 228 101c63 68 95 150 95 247c0 83 -26 151 -78 206c-51 55 -119 82 -202 82
c-90 0 -167 -34 -230 -101s-94 -149 -94 -246c0 -83 26 -152 78 -207s120 -82 203 -82z" />
    <glyph glyph-name="uni041F" unicode="&#x41f;" horiz-adv-x="750" 
d="M156 0h-46l111 700h535l-111 -700h-46l104 657h-443z" />
    <glyph glyph-name="uni0420" unicode="&#x420;" horiz-adv-x="670" 
d="M110 0l111 700h279c127 0 198 -66 198 -166c0 -63 -23 -114 -68 -153s-101 -58 -170 -58h-252l-52 -323h-46zM214 366h249c51 0 95 14 132 42c37 29 56 69 56 120c0 81 -56 129 -156 129h-235z" />
    <glyph glyph-name="uni0421" unicode="&#x421;" horiz-adv-x="692" 
d="M175 321c0 -83 26 -152 79 -207s121 -82 206 -82c79 0 149 22 210 67l-8 -52c-59 -39 -127 -59 -205 -59c-98 0 -177 31 -238 93c-61 63 -91 142 -91 237c0 108 35 201 106 278s162 116 271 116c81 0 151 -20 210 -61l-7 -46c-58 42 -126 63 -204 63
c-92 0 -170 -34 -234 -101c-63 -67 -95 -149 -95 -246z" />
    <glyph glyph-name="uni0422" unicode="&#x422;" horiz-adv-x="621" 
d="M334 0h-46l104 657h-251l7 43h548l-7 -43h-251z" />
    <glyph glyph-name="uni0423" unicode="&#x423;" horiz-adv-x="634" 
d="M646 700h52l-330 -553c-71 -119 -122 -160 -193 -160c-27 0 -52 5 -77 14l7 44c21 -10 43 -15 68 -15c29 0 56 10 79 30c24 21 52 59 85 116l8 16l-218 508h50l197 -460z" />
    <glyph glyph-name="uni0424" unicode="&#x424;" horiz-adv-x="908" 
d="M176 320c0 -67 24 -121 72 -163c49 -42 114 -65 195 -68l82 517h-18c-94 0 -173 -26 -236 -77s-95 -121 -95 -209zM839 375c0 67 -24 121 -73 163c-48 42 -113 65 -194 68l-82 -517h18c94 0 173 26 236 77s95 121 95 209zM503 47h-19l-12 -72h-46l11 72
c-92 3 -167 30 -224 80s-85 114 -85 191c0 101 36 181 108 241c73 60 165 90 277 90h19l11 66h47l-11 -66c92 -3 166 -30 223 -80s86 -114 86 -191c0 -101 -36 -181 -109 -241c-72 -60 -164 -90 -276 -90z" />
    <glyph glyph-name="uni0425" unicode="&#x425;" horiz-adv-x="699" 
d="M609 0l-203 344l-310 -344h-59l345 382l-188 318h53l166 -281l254 281h60l-290 -319l226 -381h-54z" />
    <glyph glyph-name="uni0426" unicode="&#x426;" horiz-adv-x="783" 
d="M724 -161h-44l26 161h-596l111 700h46l-104 -657h438l104 657h46l-104 -657h110z" />
    <glyph glyph-name="uni0427" unicode="&#x427;" horiz-adv-x="687" 
d="M597 379l50 321h46l-110 -700h-46l52 332c-76 -27 -152 -41 -228 -41c-137 0 -212 45 -212 158c0 15 2 34 5 56l31 195h46l-28 -180c-4 -28 -6 -49 -6 -62c0 -89 54 -123 175 -123c76 0 151 15 225 44z" />
    <glyph glyph-name="uni0428" unicode="&#x428;" horiz-adv-x="1015" 
d="M975 700h46l-111 -700h-800l111 700h46l-104 -657h331l104 657h46l-104 -657h331z" />
    <glyph glyph-name="uni0429" unicode="&#x429;" horiz-adv-x="1054" 
d="M995 -161h-44l26 161h-867l111 700h46l-104 -657h331l104 657h46l-104 -657h331l104 657h46l-104 -657h111z" />
    <glyph glyph-name="uni042A" unicode="&#x42a;" horiz-adv-x="785" 
d="M326 425h220c140 0 219 -73 219 -185c0 -73 -25 -132 -75 -175s-114 -65 -193 -65h-285l104 657h-197l6 43h244zM319 382l-55 -339h236c63 0 115 17 156 50c42 33 63 81 63 144c0 93 -65 145 -181 145h-219z" />
    <glyph glyph-name="uni042B" unicode="&#x42b;" horiz-adv-x="872" 
d="M878 700l-110 -700h-46l110 700h46zM224 425h199c140 0 219 -73 219 -185c0 -73 -25 -132 -75 -175s-114 -65 -193 -65h-264l111 700h46zM217 382l-55 -339h215c63 0 115 17 156 50c42 33 63 81 63 144c0 93 -65 145 -181 145h-198z" />
    <glyph glyph-name="uni042C" unicode="&#x42c;" horiz-adv-x="683" 
d="M224 425h220c140 0 219 -73 219 -185c0 -73 -25 -132 -75 -175s-114 -65 -193 -65h-285l111 700h46zM217 382l-55 -339h236c63 0 115 17 156 50c42 33 63 81 63 144c0 93 -65 145 -181 145h-219z" />
    <glyph glyph-name="uni042D" unicode="&#x42d;" horiz-adv-x="678" 
d="M330 712c98 0 177 -31 237 -94c61 -62 91 -141 91 -236c0 -108 -36 -201 -107 -278s-161 -116 -270 -116c-82 0 -152 20 -210 61l8 47c59 -43 127 -64 202 -64c85 0 159 29 220 87c62 58 98 130 107 217h-352l7 43h347c0 83 -26 152 -78 207s-120 82 -205 82
c-65 0 -127 -18 -186 -53l7 50c59 31 119 47 182 47z" />
    <glyph glyph-name="uni042E" unicode="&#x42e;" horiz-adv-x="1043" 
d="M726 712c89 0 160 -31 215 -93s82 -139 82 -232c0 -97 -35 -196 -95 -272c-59 -76 -154 -127 -259 -127c-89 0 -161 31 -216 93s-82 140 -82 233c0 11 0 19 1 24h-162l-53 -338h-47l111 700h47l-51 -319h161c13 92 51 170 114 234c63 65 141 97 234 97zM673 32
c87 0 160 36 217 107c57 72 86 154 86 247c0 83 -24 151 -71 203c-47 53 -108 79 -183 79c-87 0 -160 -36 -218 -108c-57 -71 -86 -153 -86 -245c0 -83 24 -151 71 -204c48 -53 109 -79 184 -79z" />
    <glyph glyph-name="uni042F" unicode="&#x42f;" horiz-adv-x="734" 
d="M387 329l-278 -329h-56l280 334c-93 9 -148 74 -148 157c0 64 23 115 70 152c47 38 106 57 175 57h310l-111 -700h-46l52 329h-248zM380 372h262l46 285h-263c-53 0 -99 -14 -137 -43c-37 -28 -56 -68 -56 -121c0 -75 55 -121 148 -121z" />
    <glyph glyph-name="uni0430" unicode="&#x430;" horiz-adv-x="590" 
d="M164 406l8 45c47 25 104 38 173 38c53 0 98 -12 133 -37c35 -24 53 -61 53 -112c0 -15 -3 -41 -9 -80l-22 -138c-3 -17 -4 -31 -4 -40c0 -31 15 -47 46 -47c9 0 18 1 25 4l-6 -37c-8 -4 -20 -6 -35 -6c-43 0 -75 29 -75 76c-57 -56 -126 -84 -205 -84
c-51 0 -94 13 -127 40s-50 63 -50 107c0 53 21 94 62 122c41 29 90 43 145 43c75 0 141 -19 198 -58l7 44c3 21 5 38 5 49c0 75 -50 112 -149 112c-66 0 -124 -14 -173 -41zM455 123l12 77c-52 40 -113 60 -184 60c-47 0 -86 -10 -119 -31s-49 -51 -49 -90
c0 -71 60 -109 147 -109c76 0 149 44 193 93z" />
    <glyph glyph-name="uni0431" unicode="&#x431;" horiz-adv-x="614" 
d="M619 701l-6 -47l-81 -12c-41 -5 -76 -11 -107 -16c-163 -31 -243 -118 -266 -289c49 71 129 120 226 120c63 0 115 -20 155 -61c40 -40 60 -90 60 -151c0 -69 -24 -130 -73 -181c-48 -51 -108 -76 -181 -76s-130 25 -172 75c-41 51 -62 116 -62 195
c0 235 100 371 300 408c65 12 134 24 207 35zM350 30c57 0 106 21 145 63s59 92 59 151c0 50 -17 91 -50 122c-33 32 -75 48 -125 48c-51 0 -98 -15 -139 -45c-41 -29 -68 -65 -81 -106c0 -143 67 -233 191 -233z" />
    <glyph glyph-name="uni0432" unicode="&#x432;" horiz-adv-x="569" 
d="M89 0l76 477h241c79 0 123 -45 123 -106c0 -59 -28 -101 -84 -124c51 -13 80 -52 80 -104c0 -92 -71 -143 -175 -143h-261zM393 436h-188l-28 -170h188c67 0 119 33 119 97c0 45 -34 73 -91 73zM141 41h211c73 1 127 37 127 106c0 48 -36 78 -96 78h-212z" />
    <glyph glyph-name="uni0433" unicode="&#x433;" horiz-adv-x="480" 
d="M134 0h-45l75 477h349l-6 -41h-304z" />
    <glyph glyph-name="uni0434" unicode="&#x434;" horiz-adv-x="634" 
d="M41 -149h-43l30 190h58c73 75 123 201 151 378l10 58h336l-69 -436h92l-30 -190h-44l24 149h-491zM139 41h330l63 395h-248l-6 -34c-25 -159 -71 -280 -139 -361z" />
    <glyph glyph-name="uni0435" unicode="&#x435;" horiz-adv-x="569" 
d="M339 30c51 0 101 15 148 44l-6 -46c-39 -27 -89 -40 -148 -40c-70 0 -128 21 -174 63s-69 97 -69 164c0 73 24 137 73 192s111 82 187 82c66 0 116 -21 151 -63s52 -90 52 -145c0 -19 -1 -35 -3 -49h-415v-16c0 -57 19 -103 58 -136s88 -50 146 -50zM346 447
c-52 0 -97 -17 -135 -50s-62 -75 -71 -126h368c1 5 1 10 1 17c0 42 -14 79 -42 111c-27 32 -68 48 -121 48z" />
    <glyph glyph-name="uni0436" unicode="&#x436;" horiz-adv-x="733" 
d="M86 0h-62l306 259l-202 218h56l192 -210l34 210h45l-33 -209l257 209h61l-275 -225l227 -252h-58l-216 241l-39 -241h-46l39 240z" />
    <glyph glyph-name="uni0437" unicode="&#x437;" horiz-adv-x="515" 
d="M370 256c57 -13 101 -52 101 -112c0 -51 -22 -89 -67 -116c-44 -27 -98 -40 -163 -40c-70 0 -128 11 -173 34l7 44c49 -24 104 -36 165 -36c49 0 92 9 129 28s56 47 56 86c0 56 -56 89 -139 89h-79l6 41h77c88 0 138 42 138 93c0 52 -53 80 -138 80
c-51 0 -104 -11 -159 -32l8 44c53 20 107 30 163 30c103 0 173 -46 173 -117c0 -59 -46 -104 -105 -116z" />
    <glyph glyph-name="uni0438" unicode="&#x438;" horiz-adv-x="605" 
d="M131 0h-42l75 477h45l-65 -408l407 408h41l-75 -477h-45l64 407z" />
    <glyph glyph-name="uni0439" unicode="&#x439;" horiz-adv-x="605" 
d="M131 0h-42l75 477h45l-65 -408l407 408h41l-75 -477h-45l64 407zM255 700h41c-1 -4 -1 -10 -1 -18c0 -51 39 -86 102 -86c68 0 118 43 129 104h41c-13 -85 -84 -142 -173 -142c-84 0 -141 46 -141 118c0 4 1 12 2 24z" />
    <glyph glyph-name="uni043A" unicode="&#x43a;" horiz-adv-x="511" 
d="M135 0h-46l76 477h46l-33 -204l281 204h64l-301 -221l262 -256h-60l-250 245z" />
    <glyph glyph-name="uni043B" unicode="&#x43b;" horiz-adv-x="586" 
d="M209 328l27 149h337l-76 -477h-46l70 436h-246l-29 -145c-12 -63 -22 -108 -45 -163c-30 -75 -78 -129 -153 -129c-9 0 -18 1 -27 2l7 43c7 -1 14 -2 23 -2c80 0 125 103 158 286z" />
    <glyph glyph-name="uni043C" unicode="&#x43c;" horiz-adv-x="686" 
d="M379 237l249 240h45l-76 -477h-43l64 411l-238 -227h-17l-165 228l-64 -412h-45l75 477h43z" />
    <glyph glyph-name="uni043D" unicode="&#x43d;" horiz-adv-x="600" 
d="M134 0h-45l75 477h45l-33 -211h333l33 211h45l-75 -477h-45l35 225h-333z" />
    <glyph glyph-name="uni043E" unicode="&#x43e;" horiz-adv-x="616" 
d="M356 489c72 0 130 -23 173 -68s65 -101 65 -166c0 -73 -25 -136 -76 -189c-51 -52 -114 -78 -189 -78c-72 0 -130 23 -174 68c-43 45 -65 101 -65 166c0 73 25 136 76 188c51 53 114 79 190 79zM329 32c61 0 112 22 155 65c43 44 64 97 64 159c0 55 -18 100 -54 135
c-35 36 -82 54 -139 54c-60 0 -112 -22 -155 -66c-43 -43 -64 -96 -64 -158c0 -55 18 -100 53 -136c36 -35 83 -53 140 -53z" />
    <glyph glyph-name="uni043F" unicode="&#x43f;" horiz-adv-x="592" 
d="M134 0h-45l75 477h415l-75 -477h-45l69 436h-325z" />
    <glyph glyph-name="uni0440" unicode="&#x440;" horiz-adv-x="636" 
d="M147 90l-45 -290h-45l107 677h45l-13 -75c51 58 116 87 194 87c69 0 123 -22 163 -66c41 -43 61 -97 61 -161c0 -76 -25 -141 -75 -194c-49 -53 -112 -80 -188 -80c-92 0 -165 46 -204 102zM380 447c-37 0 -75 -10 -112 -31s-64 -46 -82 -77l-29 -196
c15 -30 39 -56 73 -79c35 -23 74 -34 117 -34c61 0 112 22 155 66s65 98 65 162c0 55 -17 100 -51 135c-34 36 -79 54 -136 54z" />
    <glyph glyph-name="uni0441" unicode="&#x441;" horiz-adv-x="516" 
d="M519 445l-6 -43c-42 30 -91 45 -146 45c-65 0 -120 -22 -165 -66c-44 -44 -66 -98 -66 -162c0 -55 18 -100 55 -136c37 -35 85 -53 145 -53c48 0 94 13 139 39l-6 -48c-42 -22 -89 -33 -142 -33c-73 0 -131 22 -174 66c-42 44 -63 98 -63 163c0 77 26 142 78 194
c53 52 117 78 194 78c62 0 114 -15 157 -44z" />
    <glyph glyph-name="uni0442" unicode="&#x442;" horiz-adv-x="467" 
d="M256 0h-45l69 436h-182l6 41h409l-6 -41h-182z" />
    <glyph glyph-name="uni0443" unicode="&#x443;" horiz-adv-x="538" 
d="M521 477h51l-312 -534c-57 -97 -114 -147 -187 -147c-25 0 -46 6 -65 17l6 42c18 -11 38 -17 59 -17c33 0 62 14 88 43c27 28 58 74 95 138l-155 458h48l137 -405z" />
    <glyph glyph-name="uni0444" unicode="&#x444;" horiz-adv-x="720" 
d="M397 485h14l33 215h45l-33 -215c149 -13 242 -100 242 -221c0 -79 -28 -145 -85 -196c-56 -51 -130 -76 -222 -76h-14l-29 -191h-46l30 191c-149 12 -242 100 -242 221c0 79 28 144 84 195c57 51 131 77 223 77zM450 445l-65 -414h13c75 0 136 21 184 63s72 97 72 165
c0 52 -19 95 -57 128c-38 34 -87 53 -147 58zM338 32l66 414h-14c-75 0 -136 -21 -184 -63s-72 -97 -72 -165c0 -52 19 -95 57 -130c39 -34 88 -53 147 -56z" />
    <glyph glyph-name="uni0445" unicode="&#x445;" horiz-adv-x="543" 
d="M502 477h57l-218 -224l172 -253h-52l-151 222l-215 -222h-59l251 256l-148 221h52l127 -189z" />
    <glyph glyph-name="uni0446" unicode="&#x446;" horiz-adv-x="626" 
d="M568 -149h-44l24 149h-459l75 477h45l-69 -436h321l69 436h45l-69 -436h92z" />
    <glyph glyph-name="uni0447" unicode="&#x447;" horiz-adv-x="554" 
d="M495 477h46l-75 -477h-46l32 204c-53 -22 -110 -33 -171 -33c-111 0 -166 44 -166 132c0 13 2 31 5 52c0 1 1 5 1 6l19 116h46l-18 -116c-3 -18 -5 -34 -5 -49c0 -72 46 -99 135 -99c56 0 109 12 160 37z" />
    <glyph glyph-name="uni0448" unicode="&#x448;" horiz-adv-x="808" 
d="M720 0h-631l75 477h45l-69 -436h248l69 436h45l-69 -436h248l69 436h45z" />
    <glyph glyph-name="uni0449" unicode="&#x449;" horiz-adv-x="847" 
d="M789 -149h-42l24 149h-682l75 477h45l-69 -436h248l69 436h45l-69 -436h248l69 436h45l-69 -436h93z" />
    <glyph glyph-name="uni044A" unicode="&#x44a;" 
d="M261 304h176c101 0 160 -52 160 -135c0 -50 -18 -91 -54 -122c-35 -31 -80 -47 -135 -47h-241l68 436h-150l6 41h197zM219 41h188c80 0 144 45 144 126c0 69 -48 96 -144 96h-153z" />
    <glyph glyph-name="uni044B" unicode="&#x44b;" horiz-adv-x="691" 
d="M557 0l75 477h46l-76 -477h-45zM183 304h150c100 0 160 -52 160 -135c0 -50 -18 -91 -54 -122c-35 -31 -81 -47 -136 -47h-214l75 477h47zM141 41h161c80 0 145 45 145 126c0 69 -48 96 -144 96h-126z" />
    <glyph glyph-name="uni044C" unicode="&#x44c;" horiz-adv-x="551" 
d="M183 304h177c101 0 160 -52 160 -135c0 -50 -18 -91 -54 -122c-35 -31 -80 -47 -135 -47h-242l75 477h47zM141 41h189c80 0 145 45 145 126c0 69 -49 96 -144 96h-154z" />
    <glyph glyph-name="uni044D" unicode="&#x44d;" horiz-adv-x="529" 
d="M76 34l7 46c42 -33 92 -50 150 -50c60 0 110 18 151 54c41 37 65 82 73 137h-255l6 41h252c-2 54 -21 98 -58 133c-36 35 -83 52 -141 52c-47 0 -92 -11 -134 -34l8 46c39 20 83 30 134 30c73 0 130 -23 173 -68s65 -99 65 -164c0 -77 -26 -141 -79 -192
c-52 -51 -116 -77 -193 -77c-62 0 -115 15 -159 46z" />
    <glyph glyph-name="uni044E" unicode="&#x44e;" horiz-adv-x="794" 
d="M554 489c65 0 117 -22 157 -66c41 -44 61 -99 61 -165c0 -71 -24 -133 -72 -188s-108 -82 -180 -82c-66 0 -119 21 -158 64s-59 99 -60 167h-132l-35 -219h-46l75 477h46l-34 -217h128c9 64 37 118 83 162c46 45 102 67 167 67zM520 30c57 0 105 23 146 68s62 99 62 161
c0 54 -16 99 -48 134c-32 36 -74 54 -126 54c-58 0 -107 -22 -148 -66s-61 -98 -61 -162c0 -56 16 -102 48 -137s74 -52 127 -52z" />
    <glyph glyph-name="uni044F" unicode="&#x44f;" horiz-adv-x="565" 
d="M305 477h247l-76 -477h-46l31 189h-171l-177 -189h-57l182 196c-75 9 -116 54 -116 119c0 100 71 158 183 162zM280 230h187l33 206h-194c-76 0 -138 -43 -138 -120c0 -55 41 -86 112 -86z" />
    <glyph glyph-name="uni0451" unicode="&#x451;" horiz-adv-x="569" 
d="M339 30c51 0 101 15 148 44l-6 -46c-39 -27 -89 -40 -148 -40c-70 0 -128 21 -174 63s-69 97 -69 164c0 73 24 137 73 192s111 82 187 82c66 0 116 -21 151 -63s52 -90 52 -145c0 -19 -1 -35 -3 -49h-415v-16c0 -57 19 -103 58 -136s88 -50 146 -50zM346 447
c-52 0 -97 -17 -135 -50s-62 -75 -71 -126h368c1 5 1 10 1 17c0 42 -14 79 -42 111c-27 32 -68 48 -121 48zM448 595c-34 32 21 86 51 51c35 -30 -19 -85 -51 -51zM258 595c-34 32 21 86 51 51c35 -30 -19 -85 -51 -51z" />
    <glyph glyph-name="uni0452" unicode="&#x452;" horiz-adv-x="618" 
d="M578 194l-30 -194h-45l31 197c5 31 7 55 7 72c0 80 -51 121 -134 121c-39 0 -77 -11 -114 -33c-37 -21 -66 -46 -88 -74l-45 -283h-45l86 545h-102l7 41h102l18 114h45l-18 -114h136l-7 -41h-136l-32 -204c61 61 130 91 207 91c100 0 166 -62 166 -158
c0 -7 -3 -34 -9 -80zM548 0l-11 -67c-16 -97 -75 -137 -147 -137c-31 0 -56 6 -74 18l7 43c19 -13 41 -19 66 -19c60 0 95 34 105 103l9 59h45z" />
    <glyph glyph-name="uni0453" unicode="&#x453;" horiz-adv-x="480" 
d="M134 0h-45l75 477h349l-6 -41h-304zM353 577h-50l117 130h62z" />
    <glyph glyph-name="uni0454" unicode="&#x454;" horiz-adv-x="516" 
d="M327 -12c-73 0 -131 22 -174 66c-42 44 -63 98 -63 163c0 77 26 142 78 194c53 52 117 78 194 78c62 0 114 -15 157 -44l-7 -42c-41 29 -89 44 -146 44s-107 -18 -150 -53s-68 -79 -77 -132h251l-5 -41h-249c0 -113 76 -192 200 -192c50 0 96 13 139 39l-6 -46
c-41 -23 -89 -34 -142 -34z" />
    <glyph glyph-name="uni0455" unicode="&#x455;" horiz-adv-x="487" 
d="M477 435l-6 -46c-51 39 -112 58 -181 58c-61 2 -136 -22 -138 -91c0 -21 13 -39 26 -51c7 -5 18 -11 32 -17c29 -12 42 -16 82 -28c55 -17 78 -26 113 -47c35 -20 50 -46 50 -82c0 -47 -20 -83 -60 -107c-39 -24 -86 -36 -139 -36c-88 0 -169 31 -209 63l7 48
c57 -46 124 -69 203 -69c39 0 74 8 106 23s48 40 48 74c0 45 -43 66 -138 94c-52 16 -74 24 -111 44c-37 21 -55 51 -55 88c0 45 18 78 54 101s80 35 131 35c73 0 135 -18 185 -54z" />
    <glyph glyph-name="uni0456" unicode="&#x456;" horiz-adv-x="250" 
d="M148 0h-45l76 477h45zM225 608c-50 -3 -49 79 0 76c49 3 49 -79 0 -76z" />
    <glyph glyph-name="uni0457" unicode="&#x457;" horiz-adv-x="250" 
d="M296 619c-34 32 21 86 51 51c35 -30 -19 -85 -51 -51zM106 619c-34 32 21 86 51 51c35 -30 -19 -85 -51 -51zM148 0h-45l76 477h45z" />
    <glyph glyph-name="uni0458" unicode="&#x458;" horiz-adv-x="250" 
d="M-9 -204c-31 0 -56 6 -74 18l7 43c19 -13 41 -19 66 -19c59 0 93 34 104 103l85 536h45l-86 -544c-16 -97 -75 -137 -147 -137zM198 619c-36 33 21 90 54 54c36 -33 -21 -90 -54 -54z" />
    <glyph glyph-name="uni0459" unicode="&#x459;" horiz-adv-x="909" 
d="M503 41h185c80 0 145 45 145 126c0 69 -48 96 -144 96h-150zM209 328l27 149h337l-28 -173h173c103 0 160 -52 160 -135c0 -50 -18 -91 -54 -122c-35 -31 -80 -47 -135 -47h-238l70 436h-246l-29 -145c-12 -64 -22 -107 -45 -162c-30 -76 -77 -130 -153 -130
c-9 0 -18 1 -27 2l7 43c7 -1 14 -2 23 -2c80 0 126 105 158 286z" />
    <glyph glyph-name="uni045A" unicode="&#x45a;" horiz-adv-x="890" 
d="M545 284h156c99 0 158 -51 158 -127c0 -48 -18 -86 -54 -115c-35 -28 -80 -42 -134 -42h-216l39 243h-320l-39 -243h-46l76 477h46l-32 -193h320l32 193h46zM507 40h163c39 0 72 10 100 29c29 19 43 48 43 86c0 59 -42 88 -126 88h-148z" />
    <glyph glyph-name="uni045B" unicode="&#x45b;" horiz-adv-x="618" 
d="M389 586l-7 -41h-136l-32 -204c61 61 130 91 207 91c100 0 166 -62 166 -158c0 -7 -3 -34 -9 -80l-30 -194h-45l31 197c5 31 7 55 7 72c0 80 -51 121 -134 121c-39 0 -77 -11 -114 -33c-37 -21 -66 -46 -88 -74l-45 -283h-45l86 545h-102l7 41h102l18 114h45l-18 -114
h136z" />
    <glyph glyph-name="uni045C" unicode="&#x45c;" horiz-adv-x="511" 
d="M135 0h-46l76 477h46l-33 -204l281 204h64l-301 -221l262 -256h-60l-250 245zM351 577h-50l117 130h62z" />
    <glyph glyph-name="uni045E" unicode="&#x45e;" horiz-adv-x="538" 
d="M521 477h51l-312 -534c-57 -97 -114 -147 -187 -147c-25 0 -46 6 -65 17l6 42c18 -11 38 -17 59 -17c33 0 62 14 88 43c27 28 58 74 95 138l-155 458h48l137 -405zM206 700h41c-1 -4 -1 -10 -1 -18c0 -51 39 -86 102 -86c68 0 118 43 129 104h41
c-13 -85 -84 -142 -173 -142c-84 0 -141 46 -141 118c0 4 1 12 2 24z" />
    <glyph glyph-name="uni045F" unicode="&#x45f;" horiz-adv-x="588" 
d="M293 -149h-45l24 149h-183l75 477h45l-69 -436h321l69 436h45l-75 -477h-183z" />
    <glyph glyph-name="uni0490" unicode="&#x490;" horiz-adv-x="596" 
d="M156 0h-46l111 700h405l24 148h43l-31 -191h-402z" />
    <glyph glyph-name="uni0491" unicode="&#x491;" horiz-adv-x="481" 
d="M134 0h-45l76 477h306l21 134h43l-28 -175h-304z" />
    <glyph glyph-name="uni1E02" unicode="&#x1e02;" horiz-adv-x="732" 
d="M562 378c84 -16 135 -75 135 -158c0 -69 -24 -123 -72 -162s-109 -58 -184 -58h-331l111 700h289c111 0 176 -59 176 -147c0 -83 -44 -147 -124 -175zM503 657h-243l-42 -264h244c49 0 91 13 126 39s52 63 52 112c0 69 -50 113 -137 113zM212 353l-50 -310h279
c59 0 108 15 147 45c39 31 59 75 59 132c0 81 -58 133 -159 133h-276zM441 798c-36 33 21 90 54 54c36 -33 -21 -90 -54 -54z" />
    <glyph glyph-name="uni1E03" unicode="&#x1e03;" horiz-adv-x="636" 
d="M147 90l-13 -90h-45l111 700h45l-49 -298c47 52 118 87 194 87c68 0 122 -22 163 -66s61 -98 61 -161c0 -76 -25 -141 -75 -194c-49 -53 -112 -80 -188 -80c-92 0 -165 46 -204 102zM380 447c-37 0 -75 -10 -112 -31s-64 -47 -82 -78l-29 -196c15 -29 39 -55 73 -78
c35 -23 74 -34 117 -34c61 0 112 22 155 66s65 98 65 162c0 55 -17 100 -51 135c-34 36 -79 54 -136 54zM415 798c-36 33 21 90 54 54c36 -33 -21 -90 -54 -54z" />
    <glyph glyph-name="uni1E0A" unicode="&#x1e0a;" horiz-adv-x="781" 
d="M221 700h197c104 0 187 -29 249 -86c63 -57 94 -132 94 -225c0 -118 -40 -212 -121 -283s-184 -106 -311 -106h-219zM162 43h182c107 0 196 31 265 94s104 146 104 251c0 81 -27 146 -81 195s-128 74 -222 74h-150zM443 798c-36 33 21 90 54 54c36 -33 -21 -90 -54 -54z
" />
    <glyph glyph-name="uni1E0B" unicode="&#x1e0b;" horiz-adv-x="624" 
d="M557 386l49 314h45l-111 -700h-45l13 74c-51 -57 -116 -86 -195 -86c-68 0 -122 22 -163 65c-40 44 -60 98 -60 162c0 76 25 141 74 194c50 53 113 80 189 80c92 0 165 -46 204 -103zM325 30c37 0 74 10 111 31s64 47 82 78l29 195c-14 30 -38 56 -73 79
c-34 23 -73 34 -116 34c-61 0 -114 -22 -157 -66s-64 -98 -64 -162c0 -55 17 -100 51 -136c35 -35 80 -53 137 -53zM422 798c-36 33 21 90 54 54c36 -33 -21 -90 -54 -54z" />
    <glyph glyph-name="uni1E1E" unicode="&#x1e1e;" horiz-adv-x="622" 
d="M156 0h-46l111 700h463l-7 -43h-417l-42 -268h346l-7 -43h-346zM440 798c-36 33 21 90 54 54c36 -33 -21 -90 -54 -54z" />
    <glyph glyph-name="uni1E1F" unicode="&#x1e1f;" horiz-adv-x="377" 
d="M128 0l69 436h-100l7 41h99l15 95c13 84 67 135 147 135c35 0 65 -7 90 -20l-7 -43c-25 14 -52 21 -80 21c-57 0 -95 -38 -106 -103l-14 -85h174l-7 -41h-173l-69 -436h-45zM345 798c-36 33 21 90 54 54c36 -33 -21 -90 -54 -54z" />
    <glyph glyph-name="uni1E40" unicode="&#x1e40;" horiz-adv-x="851" 
d="M857 700l-111 -700h-46l100 627l-309 -334h-31l-204 335l-100 -628h-46l111 700h43l216 -357l327 357h50zM521 798c-36 33 21 90 54 54c36 -33 -21 -90 -54 -54z" />
    <glyph glyph-name="uni1E41" unicode="&#x1e41;" horiz-adv-x="911" 
d="M89 0l75 477h45l-12 -76c49 59 111 88 187 88c79 0 135 -38 146 -102c43 57 116 102 200 102c93 0 150 -57 150 -150c0 -15 -2 -36 -7 -64l-43 -275h-45l44 282c3 25 5 41 5 48c0 78 -40 117 -119 117c-69 0 -142 -47 -182 -110c-1 -21 -3 -40 -6 -56l-44 -281h-45
l44 279c4 21 6 40 6 55c0 47 -17 81 -45 94c-27 15 -49 19 -74 19c-68 0 -140 -44 -181 -105l-54 -342h-45zM534 619c-36 33 21 90 54 54c36 -33 -21 -90 -54 -54z" />
    <glyph glyph-name="uni1E56" unicode="&#x1e56;" horiz-adv-x="670" 
d="M110 0l111 700h279c127 0 198 -66 198 -166c0 -63 -23 -114 -68 -153s-101 -58 -170 -58h-252l-52 -323h-46zM214 366h249c51 0 95 14 132 42c37 29 56 69 56 120c0 81 -56 129 -156 129h-235zM441 798c-36 33 21 90 54 54c36 -33 -21 -90 -54 -54z" />
    <glyph glyph-name="uni1E57" unicode="&#x1e57;" horiz-adv-x="636" 
d="M147 90l-45 -290h-45l107 677h45l-13 -75c51 58 116 87 194 87c69 0 123 -22 163 -66c41 -43 61 -97 61 -161c0 -76 -25 -141 -75 -194c-49 -53 -112 -80 -188 -80c-92 0 -165 46 -204 102zM380 447c-37 0 -75 -10 -112 -31s-64 -46 -82 -77l-29 -196
c15 -30 39 -56 73 -79c35 -23 74 -34 117 -34c61 0 112 22 155 66s65 98 65 162c0 55 -17 100 -51 135c-34 36 -79 54 -136 54zM392 619c-36 33 21 90 54 54c36 -33 -21 -90 -54 -54z" />
    <glyph glyph-name="uni1E60" unicode="&#x1e60;" horiz-adv-x="623" 
d="M613 651l-7 -46c-63 42 -135 63 -218 63c-52 0 -99 -12 -141 -37c-41 -24 -62 -60 -62 -107c0 -21 8 -41 17 -54s32 -28 45 -36s48 -20 63 -25l36 -11l35 -10l62 -21c15 -5 33 -13 55 -24c61 -29 90 -69 95 -139c0 -67 -27 -120 -82 -159c-54 -38 -118 -57 -192 -57
c-52 0 -103 8 -153 23c-49 15 -86 33 -109 52l9 51c22 -21 57 -40 104 -57s97 -25 150 -25c34 0 67 5 100 15c33 11 61 29 86 55c25 27 38 58 38 95c0 36 -17 67 -37 84c-10 9 -25 18 -45 27c-39 19 -60 25 -112 40c-36 10 -64 19 -85 27c-20 8 -41 18 -64 31
c-44 27 -63 62 -63 113c0 131 126 193 253 193c81 0 169 -24 222 -61zM396 798c-36 33 21 90 54 54c36 -33 -21 -90 -54 -54z" />
    <glyph glyph-name="uni1E61" unicode="&#x1e61;" horiz-adv-x="490" 
d="M480 435l-6 -46c-51 39 -112 58 -181 58c-61 2 -136 -22 -138 -91c0 -21 13 -39 26 -51c7 -5 18 -11 32 -17c29 -12 42 -16 82 -28c55 -17 78 -26 113 -47c35 -20 50 -46 50 -82c0 -47 -20 -83 -60 -107c-39 -24 -86 -36 -139 -36c-88 0 -169 31 -209 63l7 48
c57 -46 124 -69 203 -69c39 0 74 8 106 23s48 40 48 74c0 45 -43 66 -138 94c-52 16 -74 24 -111 44c-37 21 -55 51 -55 88c0 45 18 78 54 101s80 35 131 35c73 0 135 -18 185 -54zM304 619c-36 33 21 90 54 54c36 -33 -21 -90 -54 -54z" />
    <glyph glyph-name="uni1E6A" unicode="&#x1e6a;" horiz-adv-x="621" 
d="M334 0h-46l104 657h-251l7 43h548l-7 -43h-251zM411 798c-36 33 21 90 54 54c36 -33 -21 -90 -54 -54z" />
    <glyph glyph-name="uni1E6B" unicode="&#x1e6b;" horiz-adv-x="422" 
d="M218 436h-122l7 41h122l24 154h45l-24 -154h178l-6 -41h-179l-43 -282c-5 -40 -8 -61 -8 -62c0 -41 26 -62 77 -62c25 0 54 8 85 25l-6 -45c-25 -15 -56 -22 -94 -22c-73 0 -109 31 -109 93c0 19 3 40 8 65zM259 702c-36 33 21 90 54 54c36 -33 -21 -90 -54 -54z" />
    <glyph glyph-name="Wgrave" unicode="&#x1e80;" horiz-adv-x="1042" 
d="M319 74l290 627h40l93 -625l311 624h53l-355 -704h-42l-92 620l-289 -620h-40l-133 704h49zM659 763h-46l-88 130h59z" />
    <glyph glyph-name="wgrave" unicode="&#x1e81;" horiz-adv-x="813" 
d="M581 67l214 410h49l-251 -481h-40l-82 413l-214 -413h-39l-99 481h45l85 -409l212 411h38zM518 577h-46l-88 130h59z" />
    <glyph glyph-name="Wacute" unicode="&#x1e82;" horiz-adv-x="1042" 
d="M319 74l290 627h40l93 -625l311 624h53l-355 -704h-42l-92 620l-289 -620h-40l-133 704h49zM666 763h-49l117 130h61z" />
    <glyph glyph-name="wacute" unicode="&#x1e83;" horiz-adv-x="813" 
d="M581 67l214 410h49l-251 -481h-40l-82 413l-214 -413h-39l-99 481h45l85 -409l212 411h38zM525 577h-50l117 130h62z" />
    <glyph glyph-name="Wdieresis" unicode="&#x1e84;" horiz-adv-x="1042" 
d="M319 74l290 627h40l93 -625l311 624h53l-355 -704h-42l-92 620l-289 -620h-40l-133 704h49zM716 799c-34 32 21 86 51 51c35 -30 -19 -85 -51 -51zM526 799c-34 32 21 86 51 51c35 -30 -19 -85 -51 -51z" />
    <glyph glyph-name="wdieresis" unicode="&#x1e85;" horiz-adv-x="813" 
d="M581 67l214 410h49l-251 -481h-40l-82 413l-214 -413h-39l-99 481h45l85 -409l212 411h38zM571 619c-34 32 21 86 51 51c35 -30 -19 -85 -51 -51zM381 619c-34 32 21 86 51 51c35 -30 -19 -85 -51 -51z" />
    <glyph glyph-name="Ygrave" unicode="&#x1ef2;" horiz-adv-x="646" 
d="M378 369l295 331h56l-332 -375l-51 -325h-47l51 324l-214 376h53zM474 763h-46l-88 130h59z" />
    <glyph glyph-name="ygrave" unicode="&#x1ef3;" horiz-adv-x="538" 
d="M521 477h51l-312 -534c-57 -97 -114 -147 -187 -147c-25 0 -46 6 -65 17l6 42c18 -11 38 -17 59 -17c33 0 62 14 88 43c27 28 58 74 95 138l-155 458h48l137 -405zM385 577h-46l-88 130h59z" />
    <glyph glyph-name="endash" unicode="&#x2013;" horiz-adv-x="715" 
d="M653 249h-511l7 41h511z" />
    <glyph glyph-name="emdash" unicode="&#x2014;" horiz-adv-x="902" 
d="M840 249h-698l7 41h698z" />
    <glyph glyph-name="uni2015" unicode="&#x2015;" horiz-adv-x="715" 
d="M653 249h-511l7 41h511z" />
    <glyph glyph-name="quoteleft" unicode="&#x2018;" horiz-adv-x="177" 
d="M223 700h39l-114 -239h-56z" />
    <glyph glyph-name="quoteright" unicode="&#x2019;" horiz-adv-x="177" 
d="M137 462h-39l114 239h56z" />
    <glyph glyph-name="quotesinglbase" unicode="&#x201a;" horiz-adv-x="230" 
d="M48 -152h-39l114 239h56z" />
    <glyph glyph-name="quotedblleft" unicode="&#x201c;" horiz-adv-x="304" 
d="M350 700h39l-114 -239h-56zM223 700h39l-114 -239h-56z" />
    <glyph glyph-name="quotedblright" unicode="&#x201d;" horiz-adv-x="304" 
d="M264 462h-39l114 239h56zM137 462h-39l114 239h56z" />
    <glyph glyph-name="quotedblbase" unicode="&#x201e;" horiz-adv-x="357" 
d="M175 -152h-39l114 239h56zM48 -152h-39l114 239h56z" />
    <glyph glyph-name="dagger" unicode="&#x2020;" horiz-adv-x="537" 
d="M291 0h-45l69 436h-183l7 41h183l35 223h45l-35 -223h184l-7 -41h-184z" />
    <glyph glyph-name="daggerdbl" unicode="&#x2021;" horiz-adv-x="558" 
d="M291 0h-45l35 223h-183l7 41h183l27 172h-183l7 41h183l35 223h45l-35 -223h184l-7 -41h-184l-27 -172h184l-7 -41h-184z" />
    <glyph glyph-name="bullet" unicode="&#x2022;" horiz-adv-x="405" 
d="M255 282c-53 0 -98 44 -98 97s45 98 98 98c55 0 99 -43 99 -98c0 -53 -44 -97 -99 -97z" />
    <glyph glyph-name="ellipsis" unicode="&#x2026;" horiz-adv-x="620" 
d="M84 8c-36 33 21 90 54 54c36 -33 -21 -90 -54 -54zM288 8c-36 33 21 90 54 54c36 -33 -21 -90 -54 -54zM493 8c-36 33 21 90 54 54c36 -33 -21 -90 -54 -54z" />
    <glyph glyph-name="perthousand" unicode="&#x2030;" horiz-adv-x="1192" 
d="M182 0l514 700h49l-514 -700h-49zM310 712c47 0 85 -15 114 -46c29 -30 43 -67 43 -110c0 -49 -17 -91 -50 -126s-75 -52 -125 -52c-47 0 -85 15 -114 46s-43 68 -43 111c0 49 17 90 50 125s75 52 125 52zM292 416c37 0 69 14 95 41c27 28 40 61 40 99
c0 68 -47 118 -118 118c-37 0 -68 -14 -94 -41s-39 -60 -39 -98c0 -68 47 -119 116 -119zM637 322c47 0 85 -15 114 -46c29 -30 43 -67 43 -110c0 -49 -17 -91 -50 -126s-75 -52 -125 -52c-47 0 -85 15 -114 46s-43 68 -43 111c0 49 17 90 50 125s75 52 125 52zM619 26
c37 0 69 14 95 41c27 28 40 61 40 99c0 68 -47 118 -118 118c-37 0 -68 -14 -94 -41s-39 -60 -39 -98c0 -68 47 -119 116 -119zM1009 322c47 0 85 -15 114 -46c29 -30 43 -67 43 -110c0 -49 -17 -91 -50 -126s-75 -52 -125 -52c-47 0 -85 15 -114 46s-43 68 -43 111
c0 49 17 90 50 125s75 52 125 52zM991 26c37 0 69 14 95 41c27 28 40 61 40 99c0 68 -47 118 -118 118c-37 0 -68 -14 -94 -41s-39 -60 -39 -98c0 -68 47 -119 116 -119z" />
    <glyph glyph-name="guilsinglleft" unicode="&#x2039;" horiz-adv-x="328" 
d="M250 42h-50l-127 184l5 27l184 182h54l-199 -199z" />
    <glyph glyph-name="guilsinglright" unicode="&#x203a;" horiz-adv-x="328" 
d="M150 435h50l127 -184l-5 -27l-184 -182h-54l199 199z" />
    <glyph glyph-name="fraction" unicode="&#x2044;" horiz-adv-x="170" 
d="M-147 0l518 700h49l-518 -700h-49z" />
    <glyph glyph-name="zerosuperior" unicode="&#x2070;" horiz-adv-x="390" 
d="M291 705c88 0 142 -68 142 -165c0 -57 -16 -108 -49 -154s-75 -69 -127 -69c-87 0 -140 68 -140 165c0 57 16 108 48 154c33 46 75 69 126 69zM258 356c39 0 70 19 94 58c25 39 37 80 37 125c0 71 -34 127 -98 127c-39 0 -70 -19 -94 -58s-36 -80 -36 -125
c0 -72 33 -127 97 -127z" />
    <glyph glyph-name="foursuperior" unicode="&#x2074;" horiz-adv-x="353" 
d="M318 322h-42l16 103h-201l4 32l242 243h40l-37 -239h62l-6 -36h-62zM327 639l-178 -178h149z" />
    <glyph glyph-name="fivesuperior" unicode="&#x2075;" horiz-adv-x="336" 
d="M234 562c81 0 132 -49 132 -113c0 -41 -16 -74 -48 -97c-31 -23 -70 -35 -115 -35s-82 10 -111 30l6 41c31 -22 67 -33 106 -33c30 0 57 8 81 23c25 16 37 39 37 68c0 45 -37 81 -102 81c-25 0 -54 -4 -87 -13l54 186h193l-6 -37h-159l-31 -105c13 3 30 4 50 4z" />
    <glyph glyph-name="sixsuperior" unicode="&#x2076;" horiz-adv-x="349" 
d="M302 667c-75 0 -131 -55 -144 -151c27 33 65 49 113 49c67 0 115 -49 115 -110c0 -39 -13 -71 -40 -98c-26 -27 -59 -40 -100 -40c-80 0 -132 59 -132 154c0 37 6 72 18 106c13 35 34 65 63 90c30 25 66 38 107 38c38 0 68 -9 91 -27l-6 -39c-25 19 -53 28 -85 28z
M263 528c-43 0 -84 -25 -107 -61v-11c1 -55 34 -103 91 -103c53 0 96 43 96 99c0 45 -35 76 -80 76z" />
    <glyph glyph-name="sevensuperior" unicode="&#x2077;" horiz-adv-x="312" 
d="M156 322h-48l228 341h-201l6 37h250l-5 -33z" />
    <glyph glyph-name="eightsuperior" unicode="&#x2078;" horiz-adv-x="356" 
d="M324 518c43 -15 69 -47 69 -88c0 -34 -15 -61 -44 -82s-63 -31 -102 -31c-40 0 -75 9 -104 28s-43 46 -43 79c0 51 36 91 95 103c-34 15 -51 41 -51 77c0 30 13 54 38 73s55 28 90 28c33 0 62 -9 88 -26c27 -17 40 -40 40 -69c0 -45 -32 -79 -76 -92zM184 599
c0 -39 41 -61 86 -61s89 25 89 66c0 40 -40 65 -87 65c-45 0 -88 -26 -88 -70zM245 354c56 0 105 30 105 78c0 44 -44 72 -103 72c-57 0 -105 -28 -105 -76c0 -45 48 -74 103 -74z" />
    <glyph glyph-name="ninesuperior" unicode="&#x2079;" horiz-adv-x="353" 
d="M209 355c75 0 131 55 144 151c-27 -33 -65 -49 -113 -49c-67 0 -115 49 -115 110c0 39 13 71 39 98c27 27 60 40 101 40c80 0 132 -59 132 -154c0 -37 -6 -72 -19 -107c-24 -68 -86 -127 -169 -127c-38 0 -68 9 -91 27l6 39c25 -19 53 -28 85 -28zM248 494
c43 0 84 25 107 61v11c-1 55 -34 103 -91 103c-53 0 -96 -43 -96 -99c0 -45 35 -76 80 -76z" />
    <glyph glyph-name="zeroinferior" unicode="&#x2080;" horiz-adv-x="390" 
d="M241 383c88 0 142 -68 142 -165c0 -57 -16 -108 -49 -154s-75 -69 -127 -69c-87 0 -140 68 -140 165c0 57 16 108 48 154c33 46 75 69 126 69zM208 34c39 0 70 19 94 58c25 39 37 80 37 125c0 71 -34 127 -98 127c-39 0 -70 -19 -94 -58s-36 -80 -36 -125
c0 -72 33 -127 97 -127z" />
    <glyph glyph-name="oneinferior" unicode="&#x2081;" horiz-adv-x="236" 
d="M175 0h-43l52 332l-114 -63l7 44l117 65h40z" />
    <glyph glyph-name="twoinferior" unicode="&#x2082;" horiz-adv-x="349" 
d="M91 298l7 46c33 26 71 39 113 39c71 0 119 -45 119 -106c0 -51 -34 -93 -102 -149l-113 -91h198l-5 -37h-262l4 31l145 118c63 51 91 82 91 122c0 44 -35 73 -82 73c-37 0 -75 -15 -113 -46z" />
    <glyph glyph-name="threeinferior" unicode="&#x2083;" horiz-adv-x="320" 
d="M328 378l-5 -31l-129 -112c61 -5 110 -44 110 -105c0 -42 -15 -75 -45 -99s-67 -36 -110 -36c-49 0 -88 11 -119 32l6 41c28 -23 65 -35 110 -35c61 0 116 35 116 95c0 47 -42 75 -98 75c-13 0 -25 -1 -36 -3l4 28l130 113h-171l6 37h231z" />
    <glyph glyph-name="fourinferior" unicode="&#x2084;" horiz-adv-x="353" 
d="M268 0h-42l16 103h-201l4 32l242 243h40l-37 -239h62l-6 -36h-62zM277 317l-178 -178h149z" />
    <glyph glyph-name="fiveinferior" unicode="&#x2085;" horiz-adv-x="336" 
d="M184 240c81 0 132 -49 132 -113c0 -41 -16 -74 -48 -97c-31 -23 -70 -35 -115 -35s-82 10 -111 30l6 41c31 -22 67 -33 106 -33c30 0 57 8 81 23c25 16 37 39 37 68c0 45 -37 81 -102 81c-25 0 -54 -4 -87 -13l54 186h193l-6 -37h-159l-31 -105c13 3 30 4 50 4z" />
    <glyph glyph-name="sixinferior" unicode="&#x2086;" horiz-adv-x="349" 
d="M252 345c-75 0 -131 -55 -144 -151c27 33 65 49 113 49c67 0 115 -49 115 -110c0 -39 -13 -71 -40 -98c-26 -27 -59 -40 -100 -40c-80 0 -132 59 -132 154c0 37 6 72 18 106c13 35 34 65 63 90c30 25 66 38 107 38c38 0 68 -9 91 -27l-6 -39c-25 19 -53 28 -85 28z
M213 206c-43 0 -84 -25 -107 -61v-11c1 -55 34 -103 91 -103c53 0 96 43 96 99c0 45 -35 76 -80 76z" />
    <glyph glyph-name="seveninferior" unicode="&#x2087;" horiz-adv-x="312" 
d="M106 0h-48l228 341h-201l6 37h250l-5 -33z" />
    <glyph glyph-name="eightinferior" unicode="&#x2088;" horiz-adv-x="356" 
d="M274 196c43 -15 69 -47 69 -88c0 -34 -15 -61 -44 -82s-63 -31 -102 -31c-40 0 -75 9 -104 28s-43 46 -43 79c0 51 36 91 95 103c-34 15 -51 41 -51 77c0 30 13 54 38 73s55 28 90 28c33 0 62 -9 88 -26c27 -17 40 -40 40 -69c0 -45 -32 -79 -76 -92zM134 277
c0 -39 41 -61 86 -61s89 25 89 66c0 40 -40 65 -87 65c-45 0 -88 -26 -88 -70zM195 32c56 0 105 30 105 78c0 44 -44 72 -103 72c-57 0 -105 -28 -105 -76c0 -45 48 -74 103 -74z" />
    <glyph glyph-name="nineinferior" unicode="&#x2089;" horiz-adv-x="350" 
d="M161 33c75 0 131 55 144 151c-27 -33 -65 -49 -113 -49c-67 0 -115 49 -115 110c0 39 13 71 39 98c27 27 60 40 101 40c80 0 132 -59 132 -154c0 -37 -6 -72 -19 -107c-24 -68 -86 -127 -169 -127c-38 0 -68 9 -91 27l6 39c25 -19 53 -28 85 -28zM200 172
c43 0 84 25 107 61v11c-1 55 -34 103 -91 103c-53 0 -96 -43 -96 -99c0 -45 35 -76 80 -76z" />
    <glyph glyph-name="franc" unicode="&#x20a3;" horiz-adv-x="626" 
d="M160 0h-46l26 165h-118l7 43h118l78 492h463l-7 -43h-417l-42 -268h346l-7 -43h-346l-22 -138h183l-7 -43h-183z" />
    <glyph glyph-name="lira" unicode="&#x20a4;" horiz-adv-x="580" 
d="M100 223l6 43h69l18 114h-69l7 43h69l11 69c23 143 115 220 255 220c63 0 115 -15 156 -46l-8 -48c-37 33 -88 50 -151 50c-115 0 -188 -63 -207 -182l-10 -63h284l-7 -43h-284l-18 -114h284l-6 -43h-285l-20 -128c-4 -24 -14 -41 -30 -52h363l-7 -43h-455l6 43h24
c30 0 49 26 57 77l16 103h-68z" />
    <glyph glyph-name="peseta" unicode="&#x20a7;" horiz-adv-x="711" 
d="M190 532l27 168h279c127 0 198 -66 198 -166v-2h81l-6 -43h-80c-21 -101 -113 -166 -233 -166h-252l-52 -323h-46l77 489h-85l6 43h86zM210 366h249c51 0 95 14 132 42c37 29 56 69 56 120c0 81 -56 129 -156 129h-235z" />
    <glyph glyph-name="Euro" unicode="&#x20ac;" horiz-adv-x="693" 
d="M111 418l8 45h86c25 74 65 134 121 180s124 69 204 69c75 0 137 -20 186 -60l-7 -46c-52 42 -112 63 -179 63c-131 0 -229 -83 -276 -206h286l-6 -43h-293c-9 -39 -14 -77 -14 -114h288l-6 -43h-280c9 -75 36 -132 83 -172c47 -39 104 -59 170 -59c71 0 134 22 189 65
l-7 -53c-49 -37 -112 -56 -187 -56c-79 0 -146 24 -201 72s-86 116 -94 203h-95l7 43h87c0 42 4 79 12 112h-82z" />
    <glyph glyph-name="uni20B4" unicode="&#x20b4;" horiz-adv-x="607" 
d="M329 -12c-124 0 -203 49 -203 133c0 61 36 115 91 148h-109l7 42h473l-7 -42h-295c-74 -40 -111 -87 -111 -141c0 -64 54 -96 163 -96c59 0 117 13 174 38l-7 -46c-53 -24 -112 -36 -176 -36zM399 712c120 0 196 -50 196 -130c0 -53 -26 -97 -77 -132h91l-6 -41h-473
l6 41h319c61 35 91 77 91 126c0 61 -52 92 -157 92c-59 0 -114 -11 -166 -34l7 44c49 23 105 34 169 34z" />
    <glyph glyph-name="uni20B6" unicode="&#x20b6;" horiz-adv-x="664" 
d="M177 366l53 334h261c127 0 199 -67 199 -168c0 -63 -23 -113 -68 -152c-45 -38 -101 -57 -170 -57h-236l-18 -115h307l-7 -43h-307l-26 -165h-46l26 165h-94l7 43h94l18 115h-94l7 43h94zM223 366h228c52 0 97 14 134 42c38 29 57 69 57 120c0 81 -57 129 -158 129h-215z
" />
    <glyph glyph-name="uni20B6" unicode="&#x20cf;" horiz-adv-x="664" 
d="M177 366l53 334h261c127 0 199 -67 199 -168c0 -63 -23 -113 -68 -152c-45 -38 -101 -57 -170 -57h-236l-18 -115h307l-7 -43h-307l-26 -165h-46l26 165h-94l7 43h94l18 115h-94l7 43h94zM223 366h228c52 0 97 14 134 42c38 29 57 69 57 120c0 81 -57 129 -158 129h-215z
" />
    <glyph glyph-name="uni20B6" unicode="&#x20ce;" horiz-adv-x="664" 
d="M177 366l53 334h261c127 0 199 -67 199 -168c0 -63 -23 -113 -68 -152c-45 -38 -101 -57 -170 -57h-236l-18 -115h307l-7 -43h-307l-26 -165h-46l26 165h-94l7 43h94l18 115h-94l7 43h94zM223 366h228c52 0 97 14 134 42c38 29 57 69 57 120c0 81 -57 129 -158 129h-215z
" />
    <glyph glyph-name="uni20B6" unicode="&#x20cd;" horiz-adv-x="664" 
d="M177 366l53 334h261c127 0 199 -67 199 -168c0 -63 -23 -113 -68 -152c-45 -38 -101 -57 -170 -57h-236l-18 -115h307l-7 -43h-307l-26 -165h-46l26 165h-94l7 43h94l18 115h-94l7 43h94zM223 366h228c52 0 97 14 134 42c38 29 57 69 57 120c0 81 -57 129 -158 129h-215z
" />
    <glyph glyph-name="uni20B6" unicode="&#x20cc;" horiz-adv-x="664" 
d="M177 366l53 334h261c127 0 199 -67 199 -168c0 -63 -23 -113 -68 -152c-45 -38 -101 -57 -170 -57h-236l-18 -115h307l-7 -43h-307l-26 -165h-46l26 165h-94l7 43h94l18 115h-94l7 43h94zM223 366h228c52 0 97 14 134 42c38 29 57 69 57 120c0 81 -57 129 -158 129h-215z
" />
    <glyph glyph-name="uni20B6" unicode="&#x20cb;" horiz-adv-x="664" 
d="M177 366l53 334h261c127 0 199 -67 199 -168c0 -63 -23 -113 -68 -152c-45 -38 -101 -57 -170 -57h-236l-18 -115h307l-7 -43h-307l-26 -165h-46l26 165h-94l7 43h94l18 115h-94l7 43h94zM223 366h228c52 0 97 14 134 42c38 29 57 69 57 120c0 81 -57 129 -158 129h-215z
" />
    <glyph glyph-name="uni20B6" unicode="&#x20ca;" horiz-adv-x="664" 
d="M177 366l53 334h261c127 0 199 -67 199 -168c0 -63 -23 -113 -68 -152c-45 -38 -101 -57 -170 -57h-236l-18 -115h307l-7 -43h-307l-26 -165h-46l26 165h-94l7 43h94l18 115h-94l7 43h94zM223 366h228c52 0 97 14 134 42c38 29 57 69 57 120c0 81 -57 129 -158 129h-215z
" />
    <glyph glyph-name="uni20B6" unicode="&#x20c9;" horiz-adv-x="664" 
d="M177 366l53 334h261c127 0 199 -67 199 -168c0 -63 -23 -113 -68 -152c-45 -38 -101 -57 -170 -57h-236l-18 -115h307l-7 -43h-307l-26 -165h-46l26 165h-94l7 43h94l18 115h-94l7 43h94zM223 366h228c52 0 97 14 134 42c38 29 57 69 57 120c0 81 -57 129 -158 129h-215z
" />
    <glyph glyph-name="uni20B6" unicode="&#x20c8;" horiz-adv-x="664" 
d="M177 366l53 334h261c127 0 199 -67 199 -168c0 -63 -23 -113 -68 -152c-45 -38 -101 -57 -170 -57h-236l-18 -115h307l-7 -43h-307l-26 -165h-46l26 165h-94l7 43h94l18 115h-94l7 43h94zM223 366h228c52 0 97 14 134 42c38 29 57 69 57 120c0 81 -57 129 -158 129h-215z
" />
    <glyph glyph-name="uni20B6" unicode="&#x20c7;" horiz-adv-x="664" 
d="M177 366l53 334h261c127 0 199 -67 199 -168c0 -63 -23 -113 -68 -152c-45 -38 -101 -57 -170 -57h-236l-18 -115h307l-7 -43h-307l-26 -165h-46l26 165h-94l7 43h94l18 115h-94l7 43h94zM223 366h228c52 0 97 14 134 42c38 29 57 69 57 120c0 81 -57 129 -158 129h-215z
" />
    <glyph glyph-name="uni20B6" unicode="&#x20c6;" horiz-adv-x="664" 
d="M177 366l53 334h261c127 0 199 -67 199 -168c0 -63 -23 -113 -68 -152c-45 -38 -101 -57 -170 -57h-236l-18 -115h307l-7 -43h-307l-26 -165h-46l26 165h-94l7 43h94l18 115h-94l7 43h94zM223 366h228c52 0 97 14 134 42c38 29 57 69 57 120c0 81 -57 129 -158 129h-215z
" />
    <glyph glyph-name="uni20B6" unicode="&#x20c5;" horiz-adv-x="664" 
d="M177 366l53 334h261c127 0 199 -67 199 -168c0 -63 -23 -113 -68 -152c-45 -38 -101 -57 -170 -57h-236l-18 -115h307l-7 -43h-307l-26 -165h-46l26 165h-94l7 43h94l18 115h-94l7 43h94zM223 366h228c52 0 97 14 134 42c38 29 57 69 57 120c0 81 -57 129 -158 129h-215z
" />
    <glyph glyph-name="uni20B6" unicode="&#x20c4;" horiz-adv-x="664" 
d="M177 366l53 334h261c127 0 199 -67 199 -168c0 -63 -23 -113 -68 -152c-45 -38 -101 -57 -170 -57h-236l-18 -115h307l-7 -43h-307l-26 -165h-46l26 165h-94l7 43h94l18 115h-94l7 43h94zM223 366h228c52 0 97 14 134 42c38 29 57 69 57 120c0 81 -57 129 -158 129h-215z
" />
    <glyph glyph-name="uni20B6" unicode="&#x20c3;" horiz-adv-x="664" 
d="M177 366l53 334h261c127 0 199 -67 199 -168c0 -63 -23 -113 -68 -152c-45 -38 -101 -57 -170 -57h-236l-18 -115h307l-7 -43h-307l-26 -165h-46l26 165h-94l7 43h94l18 115h-94l7 43h94zM223 366h228c52 0 97 14 134 42c38 29 57 69 57 120c0 81 -57 129 -158 129h-215z
" />
    <glyph glyph-name="uni20B6" unicode="&#x20c2;" horiz-adv-x="664" 
d="M177 366l53 334h261c127 0 199 -67 199 -168c0 -63 -23 -113 -68 -152c-45 -38 -101 -57 -170 -57h-236l-18 -115h307l-7 -43h-307l-26 -165h-46l26 165h-94l7 43h94l18 115h-94l7 43h94zM223 366h228c52 0 97 14 134 42c38 29 57 69 57 120c0 81 -57 129 -158 129h-215z
" />
    <glyph glyph-name="uni20B6" unicode="&#x20c1;" horiz-adv-x="664" 
d="M177 366l53 334h261c127 0 199 -67 199 -168c0 -63 -23 -113 -68 -152c-45 -38 -101 -57 -170 -57h-236l-18 -115h307l-7 -43h-307l-26 -165h-46l26 165h-94l7 43h94l18 115h-94l7 43h94zM223 366h228c52 0 97 14 134 42c38 29 57 69 57 120c0 81 -57 129 -158 129h-215z
" />
    <glyph glyph-name="uni20B6" unicode="&#x20c0;" horiz-adv-x="664" 
d="M177 366l53 334h261c127 0 199 -67 199 -168c0 -63 -23 -113 -68 -152c-45 -38 -101 -57 -170 -57h-236l-18 -115h307l-7 -43h-307l-26 -165h-46l26 165h-94l7 43h94l18 115h-94l7 43h94zM223 366h228c52 0 97 14 134 42c38 29 57 69 57 120c0 81 -57 129 -158 129h-215z
" />
    <glyph glyph-name="uni20B6" unicode="&#x20bf;" horiz-adv-x="664" 
d="M177 366l53 334h261c127 0 199 -67 199 -168c0 -63 -23 -113 -68 -152c-45 -38 -101 -57 -170 -57h-236l-18 -115h307l-7 -43h-307l-26 -165h-46l26 165h-94l7 43h94l18 115h-94l7 43h94zM223 366h228c52 0 97 14 134 42c38 29 57 69 57 120c0 81 -57 129 -158 129h-215z
" />
    <glyph glyph-name="uni20B6" unicode="&#x20be;" horiz-adv-x="664" 
d="M177 366l53 334h261c127 0 199 -67 199 -168c0 -63 -23 -113 -68 -152c-45 -38 -101 -57 -170 -57h-236l-18 -115h307l-7 -43h-307l-26 -165h-46l26 165h-94l7 43h94l18 115h-94l7 43h94zM223 366h228c52 0 97 14 134 42c38 29 57 69 57 120c0 81 -57 129 -158 129h-215z
" />
    <glyph glyph-name="uni20B6" unicode="&#x20bd;" horiz-adv-x="664" 
d="M177 366l53 334h261c127 0 199 -67 199 -168c0 -63 -23 -113 -68 -152c-45 -38 -101 -57 -170 -57h-236l-18 -115h307l-7 -43h-307l-26 -165h-46l26 165h-94l7 43h94l18 115h-94l7 43h94zM223 366h228c52 0 97 14 134 42c38 29 57 69 57 120c0 81 -57 129 -158 129h-215z
" />
    <glyph glyph-name="uni20B6" unicode="&#x20bc;" horiz-adv-x="664" 
d="M177 366l53 334h261c127 0 199 -67 199 -168c0 -63 -23 -113 -68 -152c-45 -38 -101 -57 -170 -57h-236l-18 -115h307l-7 -43h-307l-26 -165h-46l26 165h-94l7 43h94l18 115h-94l7 43h94zM223 366h228c52 0 97 14 134 42c38 29 57 69 57 120c0 81 -57 129 -158 129h-215z
" />
    <glyph glyph-name="uni20B6" unicode="&#x20bb;" horiz-adv-x="664" 
d="M177 366l53 334h261c127 0 199 -67 199 -168c0 -63 -23 -113 -68 -152c-45 -38 -101 -57 -170 -57h-236l-18 -115h307l-7 -43h-307l-26 -165h-46l26 165h-94l7 43h94l18 115h-94l7 43h94zM223 366h228c52 0 97 14 134 42c38 29 57 69 57 120c0 81 -57 129 -158 129h-215z
" />
    <glyph glyph-name="uni20B6" unicode="&#x20ba;" horiz-adv-x="664" 
d="M177 366l53 334h261c127 0 199 -67 199 -168c0 -63 -23 -113 -68 -152c-45 -38 -101 -57 -170 -57h-236l-18 -115h307l-7 -43h-307l-26 -165h-46l26 165h-94l7 43h94l18 115h-94l7 43h94zM223 366h228c52 0 97 14 134 42c38 29 57 69 57 120c0 81 -57 129 -158 129h-215z
" />
    <glyph glyph-name="uni20B6" unicode="&#x20b9;" horiz-adv-x="664" 
d="M177 366l53 334h261c127 0 199 -67 199 -168c0 -63 -23 -113 -68 -152c-45 -38 -101 -57 -170 -57h-236l-18 -115h307l-7 -43h-307l-26 -165h-46l26 165h-94l7 43h94l18 115h-94l7 43h94zM223 366h228c52 0 97 14 134 42c38 29 57 69 57 120c0 81 -57 129 -158 129h-215z
" />
    <glyph glyph-name="uni20B6" unicode="&#x20b7;" horiz-adv-x="664" 
d="M177 366l53 334h261c127 0 199 -67 199 -168c0 -63 -23 -113 -68 -152c-45 -38 -101 -57 -170 -57h-236l-18 -115h307l-7 -43h-307l-26 -165h-46l26 165h-94l7 43h94l18 115h-94l7 43h94zM223 366h228c52 0 97 14 134 42c38 29 57 69 57 120c0 81 -57 129 -158 129h-215z
" />
    <glyph glyph-name="uni2113" unicode="&#x2113;" horiz-adv-x="426" 
d="M453 593c0 -122 -97 -259 -290 -412l-5 -32c-3 -21 -5 -38 -5 -49c0 -47 28 -70 84 -70c32 0 63 10 94 30l-7 -46c-27 -17 -61 -26 -102 -26c-71 0 -115 37 -115 106c0 18 2 41 7 69l54 343c20 133 85 201 177 201c65 0 108 -45 108 -114zM213 506l-41 -265
c157 132 236 248 236 349c0 48 -26 75 -69 75c-57 0 -109 -51 -126 -159z" />
    <glyph glyph-name="uni2116" unicode="&#x2116;" horiz-adv-x="1125" 
d="M1098 270h-290l6 38h289zM674 0h-41l-379 624l-98 -624h-46l110 700h41l379 -624l98 624h46zM1003 712c47 0 85 -15 114 -46c29 -30 43 -67 43 -110c0 -49 -17 -91 -50 -126s-75 -52 -125 -52c-47 0 -85 15 -114 46s-43 68 -43 111c0 49 17 90 50 125s75 52 125 52z
M985 416c37 0 69 14 95 41c27 28 40 61 40 99c0 68 -47 118 -118 118c-37 0 -68 -14 -94 -41s-39 -60 -39 -98c0 -68 47 -119 116 -119z" />
    <glyph glyph-name="trademark" unicode="&#x2122;" horiz-adv-x="685" 
d="M418 392h-37l49 308h32l91 -143l135 143h36l-49 -308h-37l40 250l-120 -124h-19l-81 124zM215 392h-37l44 275h-102l5 33h246l-5 -33h-107z" />
    <glyph glyph-name="Omega" unicode="&#x2126;" horiz-adv-x="805" 
d="M759 416c0 -145 -66 -280 -182 -373h124l-7 -43h-187l6 38c60 43 108 98 144 163c37 66 55 136 55 209c0 70 -20 130 -59 181s-95 77 -166 77c-55 0 -105 -18 -149 -54c-88 -71 -132 -182 -132 -294c0 -53 10 -105 29 -158c19 -52 43 -93 71 -124l-5 -38h-186l6 43h132
c-27 33 -50 75 -68 126c-17 51 -26 103 -26 155c0 92 31 187 84 262c55 75 143 126 243 126c82 0 148 -28 198 -83s75 -126 75 -213z" />
    <glyph glyph-name="estimated" unicode="&#x212e;" horiz-adv-x="811" 
d="M430 9c129 0 243 71 300 183h23c-29 -61 -73 -110 -131 -148c-57 -37 -122 -56 -193 -56c-88 0 -160 28 -217 83c-56 56 -84 127 -84 212c0 98 35 183 104 254s155 107 258 107c88 0 160 -28 216 -84c57 -56 85 -126 85 -209c0 -5 -1 -15 -2 -31h-574l-20 -193
c49 -75 134 -118 235 -118zM236 509l-19 -168h489l18 164c-54 79 -133 118 -236 118c-99 0 -189 -43 -252 -114z" />
    <glyph glyph-name="onethird" unicode="&#x2153;" horiz-adv-x="780" 
d="M121 0l518 700h49l-518 -700h-49zM225 322h-43l52 332l-114 -63l7 44l117 65h40zM788 378l-5 -31l-129 -112c61 -5 110 -44 110 -105c0 -42 -15 -75 -45 -99s-67 -36 -110 -36c-49 0 -88 11 -119 32l6 41c28 -23 65 -35 110 -35c61 0 116 35 116 95c0 47 -42 75 -98 75
c-13 0 -25 -1 -36 -3l4 28l130 113h-171l6 37h231z" />
    <glyph glyph-name="twothirds" unicode="&#x2154;" horiz-adv-x="893" 
d="M901 378l-5 -31l-129 -112c61 -5 110 -44 110 -105c0 -42 -15 -75 -45 -99s-67 -36 -110 -36c-49 0 -88 11 -119 32l6 41c28 -23 65 -35 110 -35c61 0 116 35 116 95c0 47 -42 75 -98 75c-13 0 -25 -1 -36 -3l4 28l130 113h-171l6 37h231zM141 620l7 46
c33 26 71 39 113 39c71 0 119 -45 119 -106c0 -51 -34 -93 -102 -149l-113 -91h198l-5 -37h-262l4 31l145 118c63 51 91 82 91 122c0 44 -35 73 -82 73c-37 0 -75 -15 -113 -46zM232 0l518 700h49l-518 -700h-49z" />
    <glyph glyph-name="uni2155" unicode="&#x2155;" horiz-adv-x="759" 
d="M121 0l518 700h49l-518 -700h-49zM225 322h-43l52 332l-114 -63l7 44l117 65h40zM607 240c81 0 132 -49 132 -113c0 -41 -16 -74 -48 -97c-31 -23 -70 -35 -115 -35s-82 10 -111 30l6 41c31 -22 67 -33 106 -33c30 0 57 8 81 23c25 16 37 39 37 68c0 45 -37 81 -102 81
c-25 0 -54 -4 -87 -13l54 186h193l-6 -37h-159l-31 -105c13 3 30 4 50 4z" />
    <glyph glyph-name="uni2156" unicode="&#x2156;" horiz-adv-x="871" 
d="M719 240c81 0 132 -49 132 -113c0 -41 -16 -74 -48 -97c-31 -23 -70 -35 -115 -35s-82 10 -111 30l6 41c31 -22 67 -33 106 -33c30 0 57 8 81 23c25 16 37 39 37 68c0 45 -37 81 -102 81c-25 0 -54 -4 -87 -13l54 186h193l-6 -37h-159l-31 -105c13 3 30 4 50 4zM141 620
l7 46c33 26 71 39 113 39c71 0 119 -45 119 -106c0 -51 -34 -93 -102 -149l-113 -91h198l-5 -37h-262l4 31l145 118c63 51 91 82 91 122c0 44 -35 73 -82 73c-37 0 -75 -15 -113 -46zM232 0l518 700h49l-518 -700h-49z" />
    <glyph glyph-name="uni2157" unicode="&#x2157;" horiz-adv-x="807" 
d="M378 700l-5 -31l-129 -112c61 -5 110 -44 110 -105c0 -42 -15 -75 -45 -99s-67 -36 -110 -36c-49 0 -88 11 -119 32l6 41c28 -23 65 -35 110 -35c61 0 116 35 116 95c0 47 -42 75 -98 75c-13 0 -25 -1 -36 -3l4 28l130 113h-171l6 37h231zM655 240c81 0 132 -49 132 -113
c0 -41 -16 -74 -48 -97c-31 -23 -70 -35 -115 -35s-82 10 -111 30l6 41c31 -22 67 -33 106 -33c30 0 57 8 81 23c25 16 37 39 37 68c0 45 -37 81 -102 81c-25 0 -54 -4 -87 -13l54 186h193l-6 -37h-159l-31 -105c13 3 30 4 50 4zM167 0l518 700h49l-518 -700h-49z" />
    <glyph glyph-name="uni2158" unicode="&#x2158;" horiz-adv-x="852" 
d="M318 322h-42l16 103h-201l4 32l242 243h40l-37 -239h62l-6 -36h-62zM327 639l-178 -178h149zM700 240c81 0 132 -49 132 -113c0 -41 -16 -74 -48 -97c-31 -23 -70 -35 -115 -35s-82 10 -111 30l6 41c31 -22 67 -33 106 -33c30 0 57 8 81 23c25 16 37 39 37 68
c0 45 -37 81 -102 81c-25 0 -54 -4 -87 -13l54 186h193l-6 -37h-159l-31 -105c13 3 30 4 50 4zM213 0l518 700h49l-518 -700h-49z" />
    <glyph glyph-name="uni2159" unicode="&#x2159;" horiz-adv-x="763" 
d="M121 0l518 700h49l-518 -700h-49zM225 322h-43l52 332l-114 -63l7 44l117 65h40zM666 345c-75 0 -131 -55 -144 -151c27 33 65 49 113 49c67 0 115 -49 115 -110c0 -39 -13 -71 -40 -98c-26 -27 -59 -40 -100 -40c-80 0 -132 59 -132 154c0 37 6 72 18 106
c13 35 34 65 63 90c30 25 66 38 107 38c38 0 68 -9 91 -27l-6 -39c-25 19 -53 28 -85 28zM627 206c-43 0 -84 -25 -107 -61v-11c1 -55 34 -103 91 -103c53 0 96 43 96 99c0 45 -35 76 -80 76z" />
    <glyph glyph-name="uni215A" unicode="&#x215a;" horiz-adv-x="825" 
d="M728 345c-75 0 -131 -55 -144 -151c27 33 65 49 113 49c67 0 115 -49 115 -110c0 -39 -13 -71 -40 -98c-26 -27 -59 -40 -100 -40c-80 0 -132 59 -132 154c0 37 6 72 18 106c13 35 34 65 63 90c30 25 66 38 107 38c38 0 68 -9 91 -27l-6 -39c-25 19 -53 28 -85 28z
M689 206c-43 0 -84 -25 -107 -61v-11c1 -55 34 -103 91 -103c53 0 96 43 96 99c0 45 -35 76 -80 76zM234 562c81 0 132 -49 132 -113c0 -41 -16 -74 -48 -97c-31 -23 -70 -35 -115 -35s-82 10 -111 30l6 41c31 -22 67 -33 106 -33c30 0 57 8 81 23c25 16 37 39 37 68
c0 45 -37 81 -102 81c-25 0 -54 -4 -87 -13l54 186h193l-6 -37h-159l-31 -105c13 3 30 4 50 4zM183 0l518 700h49l-518 -700h-49z" />
    <glyph glyph-name="oneeighth" unicode="&#x215b;" horiz-adv-x="774" 
d="M121 0l518 700h49l-518 -700h-49zM225 322h-43l52 332l-114 -63l7 44l117 65h40zM692 196c43 -15 69 -47 69 -88c0 -34 -15 -61 -44 -82s-63 -31 -102 -31c-40 0 -75 9 -104 28s-43 46 -43 79c0 51 36 91 95 103c-34 15 -51 41 -51 77c0 30 13 54 38 73s55 28 90 28
c33 0 62 -9 88 -26c27 -17 40 -40 40 -69c0 -45 -32 -79 -76 -92zM552 277c0 -39 41 -61 86 -61s89 25 89 66c0 40 -40 65 -87 65c-45 0 -88 -26 -88 -70zM613 32c56 0 105 30 105 78c0 44 -44 72 -103 72c-57 0 -105 -28 -105 -76c0 -45 48 -74 103 -74z" />
    <glyph glyph-name="threeeighths" unicode="&#x215c;" horiz-adv-x="822" 
d="M740 196c43 -15 69 -47 69 -88c0 -34 -15 -61 -44 -82s-63 -31 -102 -31c-40 0 -75 9 -104 28s-43 46 -43 79c0 51 36 91 95 103c-34 15 -51 41 -51 77c0 30 13 54 38 73s55 28 90 28c33 0 62 -9 88 -26c27 -17 40 -40 40 -69c0 -45 -32 -79 -76 -92zM600 277
c0 -39 41 -61 86 -61s89 25 89 66c0 40 -40 65 -87 65c-45 0 -88 -26 -88 -70zM661 32c56 0 105 30 105 78c0 44 -44 72 -103 72c-57 0 -105 -28 -105 -76c0 -45 48 -74 103 -74zM378 700l-5 -31l-129 -112c61 -5 110 -44 110 -105c0 -42 -15 -75 -45 -99s-67 -36 -110 -36
c-49 0 -88 11 -119 32l6 41c28 -23 65 -35 110 -35c61 0 116 35 116 95c0 47 -42 75 -98 75c-13 0 -25 -1 -36 -3l4 28l130 113h-171l6 37h231zM167 0l518 700h49l-518 -700h-49z" />
    <glyph glyph-name="fiveeighths" unicode="&#x215d;" horiz-adv-x="836" 
d="M754 196c43 -15 69 -47 69 -88c0 -34 -15 -61 -44 -82s-63 -31 -102 -31c-40 0 -75 9 -104 28s-43 46 -43 79c0 51 36 91 95 103c-34 15 -51 41 -51 77c0 30 13 54 38 73s55 28 90 28c33 0 62 -9 88 -26c27 -17 40 -40 40 -69c0 -45 -32 -79 -76 -92zM614 277
c0 -39 41 -61 86 -61s89 25 89 66c0 40 -40 65 -87 65c-45 0 -88 -26 -88 -70zM675 32c56 0 105 30 105 78c0 44 -44 72 -103 72c-57 0 -105 -28 -105 -76c0 -45 48 -74 103 -74zM234 562c81 0 132 -49 132 -113c0 -41 -16 -74 -48 -97c-31 -23 -70 -35 -115 -35
s-82 10 -111 30l6 41c31 -22 67 -33 106 -33c30 0 57 8 81 23c25 16 37 39 37 68c0 45 -37 81 -102 81c-25 0 -54 -4 -87 -13l54 186h193l-6 -37h-159l-31 -105c13 3 30 4 50 4zM182 0l518 700h49l-518 -700h-49z" />
    <glyph glyph-name="seveneighths" unicode="&#x215e;" horiz-adv-x="764" 
d="M682 196c43 -15 69 -47 69 -88c0 -34 -15 -61 -44 -82s-63 -31 -102 -31c-40 0 -75 9 -104 28s-43 46 -43 79c0 51 36 91 95 103c-34 15 -51 41 -51 77c0 30 13 54 38 73s55 28 90 28c33 0 62 -9 88 -26c27 -17 40 -40 40 -69c0 -45 -32 -79 -76 -92zM542 277
c0 -39 41 -61 86 -61s89 25 89 66c0 40 -40 65 -87 65c-45 0 -88 -26 -88 -70zM603 32c56 0 105 30 105 78c0 44 -44 72 -103 72c-57 0 -105 -28 -105 -76c0 -45 48 -74 103 -74zM156 322h-48l228 341h-201l6 37h250l-5 -33zM111 0l518 700h49l-518 -700h-49z" />
    <glyph glyph-name="uni215F" unicode="&#x215f;" horiz-adv-x="438" 
d="M225 322h-43l52 332l-114 -63l7 44l117 65h40zM121 0l518 700h49l-518 -700h-49z" />
    <glyph glyph-name="arrowleft" unicode="&#x2190;" horiz-adv-x="726" 
d="M380 469l-193 -181h501l-7 -40h-506l136 -182h-50l-152 202l216 201h55z" />
    <glyph glyph-name="arrowup" unicode="&#x2191;" horiz-adv-x="571" 
d="M541 341l-156 165l-79 -506h-40l79 501l-207 -164l7 54l231 184l173 -184z" />
    <glyph glyph-name="arrowright" unicode="&#x2192;" horiz-adv-x="726" 
d="M123 248l6 40h506l-135 181h49l152 -201l-216 -202h-54l193 182h-501z" />
    <glyph glyph-name="arrowdown" unicode="&#x2193;" horiz-adv-x="571" 
d="M120 225l155 -164l80 506h40l-80 -502l208 165l-8 -54l-230 -184l-173 184z" />
    <glyph glyph-name="partialdiff" unicode="&#x2202;" horiz-adv-x="621" 
d="M308 -12c-63 0 -115 20 -156 60s-62 91 -62 154c0 67 23 124 69 171c47 47 104 70 172 70c103 0 180 -57 211 -126c2 13 3 28 3 45c0 83 -20 154 -61 213c-40 59 -97 89 -170 89c-51 0 -98 -14 -143 -42v42c41 27 89 41 146 41c83 0 149 -32 198 -95s74 -146 74 -251
c0 -91 -19 -174 -62 -249c-41 -73 -119 -122 -219 -122zM310 30c116 0 200 87 224 220c-27 89 -105 152 -198 152c-54 0 -101 -19 -141 -56c-39 -37 -59 -83 -59 -138c0 -52 16 -95 49 -128s75 -50 125 -50z" />
    <glyph glyph-name="increment" unicode="&#x2206;" horiz-adv-x="742" 
d="M709 0h-676l428 700h43zM477 643l-369 -600h545z" />
    <glyph glyph-name="product" unicode="&#x220f;" horiz-adv-x="751" 
d="M212 -126h-46l124 783h-114l7 43h608l-7 -43h-115l-124 -783h-46l124 783h-287z" />
    <glyph glyph-name="summation" unicode="&#x2211;" horiz-adv-x="610" 
d="M177 700h477l-6 -43h-416l204 -295l-3 -25l-295 -294h413l-5 -43h-481l5 34l318 320l-217 312z" />
    <glyph glyph-name="minus" unicode="&#x2212;" horiz-adv-x="574" 
d="M555 302h-440l7 42h440z" />
    <glyph glyph-name="uni2215" unicode="&#x2215;" horiz-adv-x="500" 
d="M17 0l517 700h49l-517 -700h-49z" />
    <glyph glyph-name="uni2219" unicode="&#x2219;" horiz-adv-x="219" 
d="M111 197c-36 33 21 90 54 54c36 -33 -21 -90 -54 -54z" />
    <glyph glyph-name="radical" unicode="&#x221a;" horiz-adv-x="654" 
d="M348 60l343 640h48l-377 -700h-41l-125 430h-139l6 41h168z" />
    <glyph glyph-name="infinity" unicode="&#x221e;" horiz-adv-x="797" 
d="M644 475c85 0 139 -58 139 -141c0 -48 -17 -89 -50 -124c-33 -34 -74 -51 -125 -51c-68 0 -112 42 -165 122c-64 -75 -121 -122 -193 -122c-87 0 -140 59 -140 140c0 49 16 90 49 124c33 35 74 52 124 52c71 0 118 -45 167 -122c60 75 118 122 194 122zM256 199
c57 0 108 46 167 118c-45 75 -83 119 -142 119c-35 0 -66 -13 -91 -39s-37 -57 -37 -94c0 -59 34 -104 103 -104zM612 199c35 0 64 13 89 39s38 57 38 94c0 57 -34 104 -102 104c-59 0 -108 -46 -168 -119c48 -76 84 -118 143 -118z" />
    <glyph glyph-name="integral" unicode="&#x222b;" horiz-adv-x="408" 
d="M36 -204c-29 0 -56 6 -80 17v42c25 -11 49 -17 74 -17c78 0 125 52 142 156l80 527c19 124 78 186 178 186c33 0 61 -5 83 -16v-44c-24 12 -49 18 -76 18c-77 0 -124 -45 -141 -154l-81 -527c-17 -113 -78 -188 -179 -188z" />
    <glyph glyph-name="approxequal" unicode="&#x2248;" horiz-adv-x="657" 
d="M536 425c52 0 96 16 132 48l-8 -46c-24 -25 -78 -43 -131 -43c-33 0 -77 10 -132 29s-100 29 -133 29c-52 0 -96 -16 -132 -48l7 45c24 25 79 44 131 44c33 0 78 -10 133 -29s100 -29 133 -29zM500 196c51 0 95 16 131 48l-7 -46c-24 -25 -78 -43 -131 -43
c-33 0 -77 10 -133 29s-100 29 -133 29c-51 0 -95 -16 -131 -48l7 45c24 25 79 44 131 44c33 0 78 -10 133 -29s100 -29 133 -29z" />
    <glyph glyph-name="notequal" unicode="&#x2260;" horiz-adv-x="600" 
d="M196 63h-45l85 125h-139l7 41h161l127 187h-259l7 41h281l86 124h45l-86 -124h141l-7 -41h-163l-127 -187h261l-7 -41h-283z" />
    <glyph glyph-name="lessequal" unicode="&#x2264;" horiz-adv-x="600" 
d="M129 397l498 189l-8 -47l-439 -163l388 -162l-8 -46l-437 189zM542 68h-466l7 41h466z" />
    <glyph glyph-name="greaterequal" unicode="&#x2265;" horiz-adv-x="600" 
d="M540 379l-389 161l9 46l437 -189l-7 -40l-497 -190l7 49zM542 68h-466l7 41h466z" />
    <glyph glyph-name="dotmath" unicode="&#x22c5;" horiz-adv-x="222" 
d="M137 353c-36 33 21 90 54 54c36 -33 -21 -90 -54 -54z" />
    <glyph glyph-name="lozenge" unicode="&#x25ca;" horiz-adv-x="559" 
d="M370 700h42l151 -350l-261 -350h-43l-149 350zM158 347l127 -305l230 311l-128 305z" />
    <glyph glyph-name="uniF401" unicode="&#xf401;" horiz-adv-x="20" 
d="M-236 763h-49l117 130h61z" />
    <glyph glyph-name="uniF639" unicode="&#xf639;" 
d="M398 713c71 0 128 -29 170 -86s63 -131 63 -224c0 -67 -12 -131 -35 -194c-23 -62 -59 -115 -106 -158s-101 -64 -161 -64c-73 0 -130 28 -171 85s-62 132 -62 225c0 67 12 131 35 193c23 63 59 115 106 158s101 65 161 65zM330 30c51 0 96 20 136 59
c80 80 118 200 118 317c0 79 -17 142 -50 191s-79 73 -138 73c-51 0 -96 -20 -136 -60c-80 -79 -118 -199 -118 -316c0 -79 17 -142 50 -191s79 -73 138 -73z" />
    <glyph glyph-name="uniF63A" unicode="&#xf63a;" 
d="M163 578l8 59c60 50 130 75 209 75c63 0 113 -19 152 -56s58 -83 58 -138c0 -93 -60 -170 -188 -274l-246 -201h398l-7 -43h-469l5 36l278 230c62 51 108 95 137 131c30 36 45 74 45 115c0 47 -16 85 -49 113c-32 29 -71 43 -118 43c-79 0 -150 -30 -213 -90z" />
    <glyph glyph-name="uniF63B" unicode="&#xf63b;" 
d="M619 666l-266 -234c62 -1 115 -19 159 -56c45 -36 67 -84 67 -144c0 -75 -28 -134 -83 -178s-121 -66 -198 -66c-83 0 -153 19 -209 58l8 47c52 -41 118 -61 199 -61c63 0 119 17 166 52s71 84 71 146c0 53 -20 94 -59 122c-39 29 -86 43 -143 43c-21 0 -39 -2 -54 -5
l5 33l266 234h-345l6 43h415z" />
    <glyph glyph-name="uniF63C" unicode="&#xf63c;" 
d="M472 0h-45l32 203h-387l6 38l462 459h43l-72 -454h120l-7 -43h-120zM527 632l-389 -386h328z" />
    <glyph glyph-name="uniF63D" unicode="&#xf63d;" 
d="M342 436c72 0 130 -20 174 -61c44 -40 66 -89 66 -147c0 -74 -29 -133 -87 -176c-57 -43 -126 -64 -207 -64c-82 0 -149 18 -200 54l8 47c53 -38 117 -57 192 -57c39 0 77 6 113 19c73 25 134 88 134 172c0 47 -18 87 -55 120c-36 33 -87 49 -152 49
c-51 0 -103 -8 -156 -24l95 332h340l-6 -43h-302l-67 -233c29 8 66 12 110 12z" />
    <glyph glyph-name="uniF63E" unicode="&#xf63e;" 
d="M392 441c63 0 114 -19 153 -58c40 -39 60 -87 60 -144c0 -70 -23 -129 -70 -178c-46 -49 -105 -73 -177 -73s-130 24 -174 72c-43 49 -65 113 -65 192c0 129 33 237 99 326s147 134 243 134c68 0 121 -17 159 -50l-7 -45c-41 34 -93 51 -154 51c-75 0 -141 -34 -196 -102
c-55 -67 -86 -150 -93 -247c45 69 129 122 222 122zM360 32c55 0 102 20 141 59c39 40 58 89 58 146c0 96 -70 161 -171 161c-45 0 -88 -14 -130 -43s-73 -64 -93 -105c0 -63 17 -115 51 -156s82 -62 144 -62z" />
    <glyph glyph-name="uniF63F" unicode="&#xf63f;" 
d="M208 0h-52l435 657h-392l6 43h448l-5 -34z" />
    <glyph glyph-name="uniF640" unicode="&#xf640;" 
d="M470 365c87 -28 141 -91 141 -170c0 -63 -26 -114 -78 -151c-51 -37 -112 -56 -183 -56c-73 0 -136 17 -188 52s-78 83 -78 144c0 48 18 90 53 126s82 59 139 69c-64 27 -106 80 -106 147c0 55 22 100 67 134c45 35 98 52 161 52c106 0 225 -56 225 -170
c0 -45 -15 -83 -46 -115c-30 -32 -66 -53 -107 -62zM216 524c0 -42 18 -75 54 -98s78 -35 125 -35s89 12 126 37c38 25 57 61 57 106c0 43 -18 76 -54 99s-78 35 -127 35c-46 0 -88 -13 -125 -38s-56 -61 -56 -106zM346 32c59 0 110 15 153 44c44 29 66 70 66 121
c0 45 -21 81 -63 108c-41 28 -92 42 -153 42c-59 0 -111 -14 -154 -43c-43 -28 -65 -67 -65 -117c0 -47 22 -84 65 -113c43 -28 94 -42 151 -42z" />
    <glyph glyph-name="uniF641" unicode="&#xf641;" 
d="M332 259c-63 0 -114 19 -154 58c-39 39 -59 87 -59 144c0 70 23 129 69 178c47 49 106 73 178 73s130 -24 173 -73c44 -48 66 -112 66 -191c0 -129 -33 -238 -99 -327s-147 -133 -243 -133c-68 0 -121 17 -159 50l7 45c41 -34 93 -51 154 -51c75 0 140 34 195 101
c55 68 87 151 94 248c-45 -69 -129 -122 -222 -122zM364 668c-55 0 -102 -20 -141 -60c-39 -39 -58 -88 -58 -145c0 -96 70 -161 171 -161c45 0 88 14 130 43s73 64 93 105c0 63 -17 115 -51 156s-82 62 -144 62z" />
    <glyph glyph-name="uniF643" unicode="&#xf643;" 
d="M361 489c72 0 130 -23 173 -68s65 -101 65 -166c0 -73 -25 -136 -76 -189c-51 -52 -114 -78 -189 -78c-72 0 -130 23 -174 68c-43 45 -65 101 -65 166c0 73 25 136 76 188c51 53 114 79 190 79zM334 32c61 0 112 22 155 65c43 44 64 97 64 159c0 55 -18 100 -54 135
c-35 36 -82 54 -139 54c-60 0 -112 -22 -155 -66c-43 -43 -64 -96 -64 -158c0 -55 18 -100 53 -136c36 -35 83 -53 140 -53z" />
    <glyph glyph-name="uniF644" unicode="&#xf644;" 
d="M544 0h-439l7 43h200l60 382l-176 -98l7 47l180 103h43l-68 -434h193z" />
    <glyph glyph-name="uniF645" unicode="&#xf645;" 
d="M548 344c0 -48 -22 -92 -66 -128c-43 -36 -71 -54 -127 -85c-95 -51 -153 -81 -173 -88h347l-6 -43h-439l6 36c34 15 120 61 259 138c33 19 45 26 77 50c17 12 29 23 38 33c19 21 36 52 36 83c0 65 -53 105 -141 105c-73 0 -143 -29 -211 -88l9 59c64 49 134 73 210 73
c112 0 181 -58 181 -145z" />
    <glyph glyph-name="uniF646" unicode="&#xf646;" 
d="M549 442l-264 -215c63 -2 116 -20 159 -55c43 -34 65 -80 65 -138c0 -73 -28 -131 -84 -174c-55 -43 -122 -64 -199 -64c-81 0 -151 19 -208 58l9 47c52 -41 118 -61 198 -61c62 0 117 17 165 51c49 34 73 81 73 140c0 51 -20 89 -59 116s-86 41 -142 41
c-17 0 -35 -2 -55 -6l7 37l264 215h-345l6 43h416z" />
    <glyph glyph-name="uniF647" unicode="&#xf647;" 
d="M439 -200h-45l32 200h-387l5 37l459 440h43l-69 -434h120l-6 -43h-120zM491 410l-385 -367h326z" />
    <glyph glyph-name="uniF648" unicode="&#xf648;" 
d="M293 237c72 0 130 -20 174 -61c45 -40 67 -89 67 -146c0 -73 -29 -131 -87 -172s-127 -62 -208 -62s-148 18 -199 54l8 47c54 -39 118 -59 192 -59c39 0 77 6 113 19c72 24 134 86 134 170c0 46 -19 85 -56 118s-87 49 -151 49c-51 0 -103 -8 -156 -25l94 308h341l-6 -43
h-302l-66 -209c29 8 65 12 108 12z" />
    <glyph glyph-name="uniF649" unicode="&#xf649;" 
d="M388 441c63 0 114 -19 153 -58c40 -39 60 -87 60 -144c0 -70 -23 -129 -70 -178c-46 -49 -105 -73 -177 -73s-130 24 -174 72c-43 49 -65 113 -65 192c0 129 33 237 99 326s147 134 243 134c68 0 121 -17 159 -50l-7 -45c-41 34 -93 51 -154 51c-75 0 -141 -34 -196 -102
c-55 -67 -86 -150 -93 -247c45 69 129 122 222 122zM356 32c55 0 102 20 141 59c39 40 58 89 58 146c0 96 -70 161 -171 161c-45 0 -88 -14 -130 -43s-73 -64 -93 -105c0 -63 17 -115 51 -156s82 -62 144 -62z" />
    <glyph glyph-name="uniF64A" unicode="&#xf64a;" 
d="M161 -200h-51l421 634h-393l7 43h448l-5 -35z" />
    <glyph glyph-name="uniF64B" unicode="&#xf64b;" 
d="M460 365c87 -28 141 -91 141 -170c0 -63 -26 -114 -78 -151c-51 -37 -112 -56 -183 -56c-73 0 -136 17 -188 52s-78 83 -78 144c0 48 18 90 53 126s82 59 139 69c-64 27 -106 80 -106 147c0 55 22 100 67 134c45 35 98 52 161 52c106 0 225 -56 225 -170
c0 -45 -15 -83 -46 -115c-30 -32 -66 -53 -107 -62zM206 524c0 -42 18 -75 54 -98s78 -35 125 -35s89 12 126 37c38 25 57 61 57 106c0 43 -18 76 -54 99s-78 35 -127 35c-46 0 -88 -13 -125 -38s-56 -61 -56 -106zM336 32c59 0 110 15 153 44c44 29 66 70 66 121
c0 45 -21 81 -63 108c-41 28 -92 42 -153 42c-59 0 -111 -14 -154 -43c-43 -28 -65 -67 -65 -117c0 -47 22 -84 65 -113c43 -28 94 -42 151 -42z" />
    <glyph glyph-name="uniF64C" unicode="&#xf64c;" 
d="M305 36c-63 0 -114 19 -154 58c-39 39 -59 87 -59 144c0 70 23 129 69 178c47 49 106 73 178 73s130 -24 173 -73c44 -48 66 -112 66 -191c0 -127 -33 -230 -98 -309c-65 -80 -146 -120 -244 -120c-68 0 -121 17 -159 50l7 45c41 -34 93 -51 154 -51c77 0 143 29 197 88
c55 59 85 135 92 230c-45 -69 -129 -122 -222 -122zM337 445c-55 0 -102 -20 -141 -60c-39 -39 -58 -88 -58 -145c0 -96 70 -161 171 -161c45 0 88 14 130 43s73 64 93 105c0 63 -17 115 -51 156s-82 62 -144 62z" />
    <glyph glyph-name="uniF64E" unicode="&#xf64e;" horiz-adv-x="563" 
d="M182 196h242l-7 -37h-228c21 -81 92 -129 192 -129c49 0 95 13 140 39l-7 -47c-41 -23 -88 -34 -141 -34c-127 0 -211 66 -232 171h-81l6 37h70c-1 5 -1 12 -1 21c0 17 2 37 5 58h-62l7 37h65c18 55 50 98 97 129c47 32 100 48 161 48s113 -15 157 -44l-7 -42
c-41 29 -89 44 -145 44c-100 0 -180 -51 -215 -135h244l-6 -37h-249c-4 -18 -6 -37 -6 -56c0 -7 1 -18 1 -23z" />
    <glyph glyph-name="uniF653" unicode="&#xf653;" horiz-adv-x="490" 
d="M480 435l-6 -46c-51 39 -112 58 -181 58c-61 2 -136 -22 -138 -91c0 -21 13 -39 26 -51c7 -5 18 -11 32 -17c29 -12 42 -16 82 -28c55 -17 78 -26 113 -47c35 -20 50 -46 50 -82c0 -47 -20 -83 -60 -107c-39 -24 -86 -36 -139 -36l-17 -105h-44l17 108
c-68 7 -123 27 -165 60l7 48c57 -46 124 -69 203 -69c39 0 74 8 106 23s48 40 48 74c0 45 -43 66 -138 94c-52 16 -74 24 -111 44c-37 21 -55 51 -55 88c0 44 18 77 53 100s79 35 130 36l17 105h44l-18 -108c56 -5 104 -22 144 -51z" />
    <glyph glyph-name="commaaccent" unicode="&#xf6c3;" horiz-adv-x="225" 
d="M103 -218h-40l79 168h49z" />
    <glyph glyph-name="cyrbreve" unicode="&#xf6d4;" horiz-adv-x="506" 
d="M212 700h41c-1 -4 -1 -10 -1 -18c0 -51 39 -86 102 -86c68 0 118 43 129 104h41c-13 -85 -84 -142 -173 -142c-84 0 -141 46 -141 118c0 4 1 12 2 24z" />
    <glyph glyph-name="uniF6DC" unicode="&#xf6dc;" 
d="M353 42h197l-6 -42h-450l7 42h206l97 607l-177 -98l7 47l181 102h43z" />
    <glyph glyph-name="uniF721" unicode="&#xf721;" horiz-adv-x="529" 
d="M88 168l5 37h390l-6 -37h-250c-37 -13 -69 -39 -69 -72c0 -44 50 -66 150 -66c49 0 94 7 136 21l-7 -43c-38 -14 -84 -21 -137 -21c-36 0 -73 5 -117 18c-43 13 -73 43 -73 83c0 33 17 59 52 80h-74zM486 389c0 -29 -14 -53 -42 -72h57l-5 -37h-390l5 37h272
c37 16 55 38 55 66c0 43 -48 64 -144 64c-45 0 -89 -8 -134 -24l6 43c40 15 87 23 140 23c37 0 72 -5 112 -18c41 -13 68 -42 68 -82z" />
    <glyph glyph-name="uniF722" unicode="&#xf722;" horiz-adv-x="573" 
d="M147 215l41 262h223c100 0 159 -53 159 -134c0 -51 -18 -92 -54 -123c-35 -31 -81 -46 -136 -46h-194l-12 -70h215l-6 -37h-214l-11 -67h-46l11 67h-73l5 37h74l12 70h-74l6 41h74zM192 215h186c80 0 146 45 146 126c0 68 -50 95 -143 95h-154z" />
    <glyph glyph-name="uniF725" unicode="&#xf725;" horiz-adv-x="573" 
d="M495 0h-419l6 41h27c12 0 22 5 29 14c16 20 18 33 23 65l9 59h-66l7 41h65l12 74c21 130 98 195 232 195c57 0 104 -13 143 -40l-7 -45c-40 29 -86 43 -137 43c-108 0 -170 -53 -187 -160l-11 -67h251l-7 -41h-250l-14 -87c-3 -22 -12 -39 -29 -51h329z" />
    <glyph glyph-name="uniF727" unicode="&#xf727;" horiz-adv-x="546" 
d="M294 0h-45l14 90h-161l6 37h161l12 78h-161l6 37h147l-150 235h51l136 -214l204 214h56l-227 -235h149l-6 -37h-160l-12 -78h160l-6 -37h-160z" />
    <glyph glyph-name="uniF730" unicode="&#xf730;" horiz-adv-x="616" 
d="M356 489c72 0 130 -23 173 -68s65 -101 65 -166c0 -73 -25 -136 -76 -189c-51 -52 -114 -78 -189 -78c-72 0 -130 23 -174 68c-43 45 -65 101 -65 166c0 73 25 136 76 188c51 53 114 79 190 79zM329 32c61 0 112 22 155 65c43 44 64 97 64 159c0 55 -18 100 -54 135
c-35 36 -82 54 -139 54c-60 0 -112 -22 -155 -66c-43 -43 -64 -96 -64 -158c0 -55 18 -100 53 -136c36 -35 83 -53 140 -53z" />
    <glyph glyph-name="uniF731" unicode="&#xf731;" horiz-adv-x="347" 
d="M246 0h-46l67 425l-176 -98l7 47l180 103h43z" />
    <glyph glyph-name="uniF732" unicode="&#xf732;" horiz-adv-x="560" 
d="M514 344c0 -48 -22 -92 -66 -128c-43 -36 -71 -54 -127 -85c-95 -51 -153 -81 -173 -88h347l-6 -43h-439l6 36c34 15 120 61 259 138c33 19 45 26 77 50c17 12 29 23 38 33c19 21 36 52 36 83c0 65 -53 105 -141 105c-73 0 -143 -29 -211 -88l9 59c64 49 134 73 210 73
c112 0 181 -58 181 -145z" />
    <glyph glyph-name="uniF733" unicode="&#xf733;" horiz-adv-x="539" 
d="M537 442l-264 -215c63 -2 116 -20 159 -55c43 -34 65 -80 65 -138c0 -73 -28 -131 -84 -174c-55 -43 -122 -64 -199 -64c-81 0 -151 19 -208 58l9 47c52 -41 118 -61 198 -61c62 0 117 17 165 51c49 34 73 81 73 140c0 51 -20 89 -59 116s-86 41 -142 41
c-17 0 -35 -2 -55 -6l7 37l264 215h-345l6 43h416z" />
    <glyph glyph-name="uniF734" unicode="&#xf734;" horiz-adv-x="629" 
d="M439 -200h-45l32 200h-387l5 37l459 440h43l-69 -434h120l-6 -43h-120zM491 410l-385 -367h326z" />
    <glyph glyph-name="uniF735" unicode="&#xf735;" horiz-adv-x="587" 
d="M295 237c72 0 130 -20 174 -61c45 -40 67 -89 67 -146c0 -73 -29 -131 -87 -172s-127 -62 -208 -62s-148 18 -199 54l8 47c54 -39 118 -59 192 -59c39 0 77 6 113 19c72 24 134 86 134 170c0 46 -19 85 -56 118s-87 49 -151 49c-51 0 -103 -8 -156 -25l94 308h341l-6 -43
h-302l-66 -209c29 8 65 12 108 12z" />
    <glyph glyph-name="uniF736" unicode="&#xf736;" horiz-adv-x="638" 
d="M392 441c63 0 114 -19 153 -58c40 -39 60 -87 60 -144c0 -70 -23 -129 -70 -178c-46 -49 -105 -73 -177 -73s-130 24 -174 72c-43 49 -65 113 -65 192c0 129 33 237 99 326s147 134 243 134c68 0 121 -17 159 -50l-7 -45c-41 34 -93 51 -154 51c-75 0 -141 -34 -196 -102
c-55 -67 -86 -150 -93 -247c45 69 129 122 222 122zM360 32c55 0 102 20 141 59c39 40 58 89 58 146c0 96 -70 161 -171 161c-45 0 -88 -14 -130 -43s-73 -64 -93 -105c0 -63 17 -115 51 -156s82 -62 144 -62z" />
    <glyph glyph-name="uniF737" unicode="&#xf737;" horiz-adv-x="546" 
d="M146 -200h-51l421 634h-393l7 43h448l-5 -35z" />
    <glyph glyph-name="uniF738" unicode="&#xf738;" horiz-adv-x="632" 
d="M470 365c87 -28 141 -91 141 -170c0 -63 -26 -114 -78 -151c-51 -37 -112 -56 -183 -56c-73 0 -136 17 -188 52s-78 83 -78 144c0 48 18 90 53 126s82 59 139 69c-64 27 -106 80 -106 147c0 55 22 100 67 134c45 35 98 52 161 52c106 0 225 -56 225 -170
c0 -45 -15 -83 -46 -115c-30 -32 -66 -53 -107 -62zM216 524c0 -42 18 -75 54 -98s78 -35 125 -35s89 12 126 37c38 25 57 61 57 106c0 43 -18 76 -54 99s-78 35 -127 35c-46 0 -88 -13 -125 -38s-56 -61 -56 -106zM346 32c59 0 110 15 153 44c44 29 66 70 66 121
c0 45 -21 81 -63 108c-41 28 -92 42 -153 42c-59 0 -111 -14 -154 -43c-43 -28 -65 -67 -65 -117c0 -47 22 -84 65 -113c43 -28 94 -42 151 -42z" />
    <glyph glyph-name="uniF739" unicode="&#xf739;" horiz-adv-x="635" 
d="M322 36c-63 0 -114 19 -154 58c-39 39 -59 87 -59 144c0 70 23 129 69 178c47 49 106 73 178 73s130 -24 173 -73c44 -48 66 -112 66 -191c0 -127 -33 -230 -98 -309c-65 -80 -146 -120 -244 -120c-68 0 -121 17 -159 50l7 45c41 -34 93 -51 154 -51c77 0 143 29 197 88
c55 59 85 135 92 230c-45 -69 -129 -122 -222 -122zM354 445c-55 0 -102 -20 -141 -60c-39 -39 -58 -88 -58 -145c0 -96 70 -161 171 -161c45 0 88 14 130 43s73 64 93 105c0 63 -17 115 -51 156s-82 62 -144 62z" />
    <glyph glyph-name="gcommaaccent.alt" horiz-adv-x="616" 
d="M496 425l155 64l-5 -41l-128 -56c16 -29 24 -58 24 -89c0 -45 -13 -85 -40 -121c35 -39 53 -87 53 -142c0 -69 -25 -126 -75 -173s-112 -71 -187 -71c-69 0 -125 21 -168 62s-64 91 -65 151h44c2 -49 21 -90 57 -122c37 -33 82 -49 137 -49c58 0 108 19 150 57
c42 37 63 85 63 144c0 45 -14 83 -41 112c-40 -39 -90 -58 -151 -58c-58 0 -106 18 -143 53s-55 79 -55 132c0 58 21 108 64 149s96 62 159 62s114 -21 152 -64zM321 134c49 0 90 17 124 50c35 33 52 73 52 120c0 41 -14 75 -43 102s-66 41 -111 41c-49 0 -91 -17 -126 -50
c-34 -33 -51 -73 -51 -120c0 -41 14 -75 43 -102s67 -41 112 -41zM418 721h40l-79 -168h-49z" />
    <glyph glyph-name="f_f_t" horiz-adv-x="978" 
d="M531 436l-69 -436h-45l69 436h-244l-69 -436h-45l69 436h-100l7 41h99l15 95c13 84 67 135 147 135c35 0 65 -7 90 -20l-7 -43c-25 14 -52 21 -80 21c-57 0 -95 -38 -106 -103l-14 -85h244l15 95c13 84 67 135 147 135c35 0 65 -7 90 -20l-7 -43c-25 14 -52 21 -80 21
c-57 0 -95 -38 -106 -103l-14 -85h244l24 154h45l-24 -154h178l-6 -41h-179l-43 -282c-5 -40 -8 -61 -8 -62c0 -41 26 -62 77 -62c25 0 54 8 85 25l-6 -45c-25 -15 -56 -22 -94 -22c-73 0 -109 31 -109 93c0 19 3 40 8 65l45 290h-243z" />
    <glyph glyph-name="atilde.alt" horiz-adv-x="629" 
d="M557 386l14 91h45l-76 -477h-45l13 74c-51 -57 -116 -86 -195 -86c-68 0 -122 22 -163 65c-40 44 -60 98 -60 162c0 76 25 141 74 194c50 53 113 80 189 80c92 0 165 -46 204 -103zM325 30c37 0 74 10 111 31s64 47 82 78l29 195c-14 30 -38 56 -73 79
c-34 23 -73 34 -116 34c-61 0 -114 -22 -157 -66s-64 -98 -64 -162c0 -55 17 -100 51 -136c35 -35 80 -53 137 -53zM475 593c-19 0 -43 10 -72 31s-49 32 -61 32c-24 0 -41 -19 -50 -57h-38c11 59 46 97 91 97c19 0 42 -10 71 -31s50 -31 62 -31c22 0 38 19 48 57h38
c-11 -59 -44 -98 -89 -98z" />
    <glyph glyph-name="adieresis.alt" horiz-adv-x="629" 
d="M557 386l14 91h45l-76 -477h-45l13 74c-51 -57 -116 -86 -195 -86c-68 0 -122 22 -163 65c-40 44 -60 98 -60 162c0 76 25 141 74 194c50 53 113 80 189 80c92 0 165 -46 204 -103zM325 30c37 0 74 10 111 31s64 47 82 78l29 195c-14 30 -38 56 -73 79
c-34 23 -73 34 -116 34c-61 0 -114 -22 -157 -66s-64 -98 -64 -162c0 -55 17 -100 51 -136c35 -35 80 -53 137 -53zM477 619c-34 32 21 86 51 51c35 -30 -19 -85 -51 -51zM287 619c-34 32 21 86 51 51c35 -30 -19 -85 -51 -51z" />
    <glyph glyph-name="t.alt" horiz-adv-x="364" 
d="M115 146l76 485h45l-24 -154h178l-6 -41h-179l-43 -282c-5 -40 -8 -61 -8 -62c0 -41 26 -62 77 -62c25 0 54 8 85 25l-6 -45c-25 -15 -56 -22 -94 -22c-73 0 -109 31 -109 93c0 19 3 40 8 65z" />
    <glyph glyph-name="f.alt01" horiz-adv-x="338" 
d="M203 436l-69 -436h-45l90 572c13 84 67 135 147 135c35 0 65 -7 90 -20l-7 -43c-25 14 -52 21 -80 21c-57 0 -95 -38 -106 -103l-14 -85h174l-7 -41h-173z" />
    <glyph glyph-name="Q.alt02" horiz-adv-x="850" 
d="M501 712c97 0 176 -31 235 -94c60 -63 90 -142 90 -237c4 -201 -152 -385 -354 -392c16 -6 39 -17 69 -34c60 -35 113 -57 168 -57c29 0 56 8 81 23l-8 -47c-25 -13 -52 -20 -81 -20c-107 -4 -227 110 -310 106c-59 0 -113 -22 -163 -67l9 54c31 27 70 45 118 54
c-70 19 -125 58 -166 115c-41 58 -61 126 -61 204c0 107 35 199 106 276s160 116 267 116zM456 32c89 0 165 34 228 101c63 68 95 150 95 247c0 83 -26 151 -78 206c-51 55 -119 82 -202 82c-90 0 -167 -34 -230 -101s-94 -149 -94 -246c0 -83 26 -152 78 -207
s120 -82 203 -82z" />
    <glyph glyph-name="Q.alt01" horiz-adv-x="846" 
d="M501 712c97 0 176 -31 235 -94c60 -63 90 -142 90 -237c0 -115 -46 -224 -126 -297l62 -84h-53l-42 57c-62 -46 -133 -69 -213 -69c-97 0 -176 31 -236 94s-90 143 -90 238c0 107 35 199 106 276s160 116 267 116zM456 32c67 0 129 21 184 62l-162 223h53l142 -195
c71 69 106 155 106 258c0 83 -26 151 -78 206c-51 55 -119 82 -202 82c-90 0 -167 -34 -230 -101s-94 -149 -94 -246c0 -83 26 -152 78 -207s120 -82 203 -82z" />
    <glyph glyph-name="f_j" horiz-adv-x="563" 
d="M242 436l-69 -436h-45l69 436h-100l7 41h99l15 95c13 84 67 135 147 135c35 0 65 -7 90 -20l-7 -43c-25 14 -52 21 -80 21c-57 0 -95 -38 -106 -103l-14 -85h290l-86 -544c-16 -97 -75 -137 -147 -137c-31 0 -56 6 -74 18l7 43c19 -13 41 -19 66 -19c59 0 93 34 104 103
l78 495h-244zM511 619c-36 33 21 90 54 54c36 -33 -21 -90 -54 -54z" />
    <glyph glyph-name="uni20B4.mono" 
d="M336 -12c-124 0 -203 49 -203 133c0 61 36 115 91 148h-109l7 42h473l-7 -42h-295c-74 -40 -111 -87 -111 -141c0 -64 54 -96 163 -96c59 0 117 13 174 38l-7 -46c-53 -24 -112 -36 -176 -36zM406 712c120 0 196 -50 196 -130c0 -53 -26 -97 -77 -132h91l-6 -41h-473
l6 41h319c61 35 91 77 91 126c0 61 -52 92 -157 92c-59 0 -114 -11 -166 -34l7 44c49 23 105 34 169 34z" />
    <glyph glyph-name="uniF721.mono" 
d="M131 168l5 37h390l-6 -37h-250c-37 -13 -69 -39 -69 -72c0 -44 50 -66 150 -66c49 0 94 7 136 21l-7 -43c-38 -14 -84 -21 -137 -21c-36 0 -73 5 -117 18c-43 13 -73 43 -73 83c0 33 17 59 52 80h-74zM529 389c0 -29 -14 -53 -42 -72h57l-5 -37h-390l5 37h272
c37 16 55 38 55 66c0 43 -48 64 -144 64c-45 0 -89 -8 -134 -24l6 43c40 15 87 23 140 23c37 0 72 -5 112 -18c41 -13 68 -42 68 -82z" />
    <glyph glyph-name="gdotaccent.alt" horiz-adv-x="616" 
d="M496 425l155 64l-5 -41l-128 -56c16 -29 24 -58 24 -89c0 -45 -13 -85 -40 -121c35 -39 53 -87 53 -142c0 -69 -25 -126 -75 -173s-112 -71 -187 -71c-69 0 -125 21 -168 62s-64 91 -65 151h44c2 -49 21 -90 57 -122c37 -33 82 -49 137 -49c58 0 108 19 150 57
c42 37 63 85 63 144c0 45 -14 83 -41 112c-40 -39 -90 -58 -151 -58c-58 0 -106 18 -143 53s-55 79 -55 132c0 58 21 108 64 149s96 62 159 62s114 -21 152 -64zM321 134c49 0 90 17 124 50c35 33 52 73 52 120c0 41 -14 75 -43 102s-66 41 -111 41c-49 0 -91 -17 -126 -50
c-34 -33 -51 -73 -51 -120c0 -41 14 -75 43 -102s67 -41 112 -41zM351 619c-36 33 21 90 54 54c36 -33 -21 -90 -54 -54z" />
    <glyph glyph-name="amacron.alt" horiz-adv-x="629" 
d="M557 386l14 91h45l-76 -477h-45l13 74c-51 -57 -116 -86 -195 -86c-68 0 -122 22 -163 65c-40 44 -60 98 -60 162c0 76 25 141 74 194c50 53 113 80 189 80c92 0 165 -46 204 -103zM325 30c37 0 74 10 111 31s64 47 82 78l29 195c-14 30 -38 56 -73 79
c-34 23 -73 34 -116 34c-61 0 -114 -22 -157 -66s-64 -98 -64 -162c0 -55 17 -100 51 -136c35 -35 80 -53 137 -53zM535 625h-230l5 38h231z" />
    <glyph glyph-name="T_h" horiz-adv-x="1082" 
d="M1042 251l-39 -251h-45l40 254c5 31 7 55 7 72c0 80 -51 121 -134 121c-39 0 -77 -11 -114 -33c-37 -21 -66 -46 -88 -74l-54 -340h-45l104 657h-236l-104 -657h-46l104 657h-251l7 43h578l-48 -302c61 61 130 91 207 91c100 0 166 -62 166 -158c0 -7 -3 -34 -9 -80z" />
    <glyph glyph-name="aring.alt" horiz-adv-x="629" 
d="M557 386l14 91h45l-76 -477h-45l13 74c-51 -57 -116 -86 -195 -86c-68 0 -122 22 -163 65c-40 44 -60 98 -60 162c0 76 25 141 74 194c50 53 113 80 189 80c92 0 165 -46 204 -103zM325 30c37 0 74 10 111 31s64 47 82 78l29 195c-14 30 -38 56 -73 79
c-34 23 -73 34 -116 34c-61 0 -114 -22 -157 -66s-64 -98 -64 -162c0 -55 17 -100 51 -136c35 -35 80 -53 137 -53zM407 552c-53 0 -95 42 -95 93s42 93 95 93c49 0 91 -42 91 -93s-42 -93 -91 -93zM407 585c33 0 60 27 60 60c0 35 -27 61 -60 61c-35 0 -62 -26 -62 -61
c0 -33 27 -60 62 -60z" />
    <glyph glyph-name="aacute.alt" horiz-adv-x="629" 
d="M557 386l14 91h45l-76 -477h-45l13 74c-51 -57 -116 -86 -195 -86c-68 0 -122 22 -163 65c-40 44 -60 98 -60 162c0 76 25 141 74 194c50 53 113 80 189 80c92 0 165 -46 204 -103zM325 30c37 0 74 10 111 31s64 47 82 78l29 195c-14 30 -38 56 -73 79
c-34 23 -73 34 -116 34c-61 0 -114 -22 -157 -66s-64 -98 -64 -162c0 -55 17 -100 51 -136c35 -35 80 -53 137 -53zM398 577h-50l117 130h62z" />
    <glyph glyph-name="cyrbreve.cap" horiz-adv-x="549" 
d="M250 898h42c-1 -4 -1 -10 -1 -18c0 -52 38 -86 101 -86c68 0 118 43 129 104h41c-13 -85 -84 -143 -172 -143c-85 0 -142 47 -142 118c0 5 1 13 2 25z" />
    <glyph glyph-name="idieresis_idieresis" horiz-adv-x="475" 
d="M149 0h-45l75 477h45zM372 0h-45l75 477h45zM521 619c-34 32 21 86 51 51c35 -30 -19 -85 -51 -51zM107 619c-34 32 21 86 51 51c35 -30 -19 -85 -51 -51zM314 619c-34 32 21 86 51 51c35 -30 -19 -85 -51 -51z" />
    <glyph glyph-name="uni043F_uni0438" horiz-adv-x="975" 
d="M134 0h-45l75 477h415l-65 -408l407 408h41l-75 -477h-45l64 407l-405 -407h-42l68 436h-324z" />
    <glyph glyph-name="sterling.mono" 
d="M552 347l-7 -43h-295l-33 -209c-4 -24 -14 -41 -30 -52h363l-7 -43h-455l6 43h24c30 0 49 26 57 77l29 184h-68l7 43h68l23 144c23 143 116 221 255 221c63 0 115 -15 156 -46l-8 -48c-37 33 -88 50 -151 50c-115 0 -188 -64 -207 -183l-22 -138h295z" />
    <glyph glyph-name="uni041F_uni0418" horiz-adv-x="1265" 
d="M156 0h-46l111 700h535l-99 -621l572 621h42l-111 -700h-46l99 623l-574 -623h-40l104 657h-443z" />
    <glyph glyph-name="gcircumflex.alt" horiz-adv-x="616" 
d="M496 425l155 64l-5 -41l-128 -56c16 -29 24 -58 24 -89c0 -45 -13 -85 -40 -121c35 -39 53 -87 53 -142c0 -69 -25 -126 -75 -173s-112 -71 -187 -71c-69 0 -125 21 -168 62s-64 91 -65 151h44c2 -49 21 -90 57 -122c37 -33 82 -49 137 -49c58 0 108 19 150 57
c42 37 63 85 63 144c0 45 -14 83 -41 112c-40 -39 -90 -58 -151 -58c-58 0 -106 18 -143 53s-55 79 -55 132c0 58 21 108 64 149s96 62 159 62s114 -21 152 -64zM321 134c49 0 90 17 124 50c35 33 52 73 52 120c0 41 -14 75 -43 102s-66 41 -111 41c-49 0 -91 -17 -126 -50
c-34 -33 -51 -73 -51 -120c0 -41 14 -75 43 -102s67 -41 112 -41zM386 706h48l86 -130h-47l-66 97l-98 -97h-52z" />
    <glyph glyph-name="gbreve.alt" horiz-adv-x="616" 
d="M496 425l155 64l-5 -41l-128 -56c16 -29 24 -58 24 -89c0 -45 -13 -85 -40 -121c35 -39 53 -87 53 -142c0 -69 -25 -126 -75 -173s-112 -71 -187 -71c-69 0 -125 21 -168 62s-64 91 -65 151h44c2 -49 21 -90 57 -122c37 -33 82 -49 137 -49c58 0 108 19 150 57
c42 37 63 85 63 144c0 45 -14 83 -41 112c-40 -39 -90 -58 -151 -58c-58 0 -106 18 -143 53s-55 79 -55 132c0 58 21 108 64 149s96 62 159 62s114 -21 152 -64zM321 134c49 0 90 17 124 50c35 33 52 73 52 120c0 41 -14 75 -43 102s-66 41 -111 41c-49 0 -91 -17 -126 -50
c-34 -33 -51 -73 -51 -120c0 -41 14 -75 43 -102s67 -41 112 -41zM387 578c-65 0 -116 45 -116 108c0 9 0 16 1 21h39c-1 -5 -1 -10 -1 -17c0 -44 31 -74 78 -74c52 0 90 38 101 91h40c-5 -37 -21 -68 -48 -93c-27 -24 -58 -36 -94 -36z" />
    <glyph glyph-name="acircumflex.alt" horiz-adv-x="629" 
d="M557 386l14 91h45l-76 -477h-45l13 74c-51 -57 -116 -86 -195 -86c-68 0 -122 22 -163 65c-40 44 -60 98 -60 162c0 76 25 141 74 194c50 53 113 80 189 80c92 0 165 -46 204 -103zM325 30c37 0 74 10 111 31s64 47 82 78l29 195c-14 30 -38 56 -73 79
c-34 23 -73 34 -116 34c-61 0 -114 -22 -157 -66s-64 -98 -64 -162c0 -55 17 -100 51 -136c35 -35 80 -53 137 -53zM393 706h48l86 -130h-47l-66 97l-98 -97h-52z" />
    <glyph glyph-name="abreve.alt" horiz-adv-x="629" 
d="M557 386l14 91h45l-76 -477h-45l13 74c-51 -57 -116 -86 -195 -86c-68 0 -122 22 -163 65c-40 44 -60 98 -60 162c0 76 25 141 74 194c50 53 113 80 189 80c92 0 165 -46 204 -103zM325 30c37 0 74 10 111 31s64 47 82 78l29 195c-14 30 -38 56 -73 79
c-34 23 -73 34 -116 34c-61 0 -114 -22 -157 -66s-64 -98 -64 -162c0 -55 17 -100 51 -136c35 -35 80 -53 137 -53zM402 578c-65 0 -116 45 -116 108c0 9 0 16 1 21h39c-1 -5 -1 -10 -1 -17c0 -44 31 -74 78 -74c52 0 90 38 101 91h40c-5 -37 -21 -68 -48 -93
c-27 -24 -58 -36 -94 -36z" />
    <glyph glyph-name="aogonek.alt" horiz-adv-x="629" 
d="M538 -193c-57 0 -91 34 -91 82c0 39 16 76 48 111l13 74c-51 -57 -116 -86 -195 -86c-68 0 -122 22 -163 65c-40 44 -60 98 -60 162c0 76 25 141 74 194c50 53 113 80 189 80c92 0 165 -46 204 -103l14 91h45l-76 -477c-37 -34 -55 -68 -55 -101c0 -36 26 -58 67 -58
c12 0 26 2 41 6l-6 -33c-15 -5 -32 -7 -49 -7zM325 30c37 0 74 10 111 31s64 47 82 78l29 195c-14 30 -38 56 -73 79c-34 23 -73 34 -116 34c-61 0 -114 -22 -157 -66s-64 -98 -64 -162c0 -55 17 -100 51 -136c35 -35 80 -53 137 -53z" />
    <glyph glyph-name="uni0438_uni043D" horiz-adv-x="983" 
d="M517 0h-45l64 407l-405 -407h-42l75 477h45l-65 -408l407 408h41l-33 -211h333l33 211h45l-75 -477h-45l35 225h-333z" />
    <glyph glyph-name="uni0438_uni0439" horiz-adv-x="988" 
d="M514 0h-42l65 407l-406 -407h-42l76 477h45l-65 -408l407 408h40l-65 -408l407 408h41l-75 -477h-45l64 407zM638 700h41c-1 -4 -1 -10 -1 -18c0 -51 39 -86 102 -86c68 0 118 43 129 104h41c-13 -85 -84 -142 -173 -142c-84 0 -141 46 -141 118c0 4 1 12 2 24z" />
    <glyph glyph-name="uni0418_uni0419" horiz-adv-x="1291" 
d="M665 0h-40l99 623l-574 -623h-40l111 700h46l-99 -621l572 621h42l-99 -621l572 621h42l-111 -700h-46l99 623zM890 898h42c-1 -4 -1 -10 -1 -18c0 -52 38 -86 101 -86c68 0 117 43 128 104h42c-13 -85 -83 -143 -172 -143c-85 0 -142 47 -142 118c0 5 1 13 2 25z" />
    <glyph glyph-name="Euro.mono" 
d="M83 418l8 45h86c25 74 65 134 121 180s124 69 204 69c75 0 137 -20 186 -60l-7 -46c-52 42 -112 63 -179 63c-131 0 -229 -83 -276 -206h286l-6 -43h-293c-9 -39 -14 -77 -14 -114h288l-6 -43h-280c9 -75 36 -132 83 -172c47 -39 104 -59 170 -59c71 0 134 22 189 65
l-7 -53c-49 -37 -112 -56 -187 -56c-79 0 -146 24 -201 72s-86 116 -94 203h-95l7 43h87c0 42 4 79 12 112h-82z" />
    <glyph glyph-name="tilde.cap" horiz-adv-x="519" 
d="M509 873h37c-11 -59 -45 -96 -90 -96c-19 0 -42 10 -71 31c-28 21 -49 31 -62 31c-25 0 -41 -19 -49 -56h-37c11 57 45 94 90 94c19 0 42 -10 71 -31s49 -31 61 -31c28 0 41 21 50 58z" />
    <glyph glyph-name="breve.cap" horiz-adv-x="520" 
d="M383 763c-65 0 -116 46 -116 109c0 9 0 16 1 21h39c-1 -5 -1 -10 -1 -17c0 -44 31 -75 78 -75c52 0 90 39 101 92h40c-5 -37 -21 -68 -48 -93s-58 -37 -94 -37z" />
    <glyph glyph-name="dotaccent.cap" horiz-adv-x="498" 
d="M350 798c-36 33 21 90 54 54c36 -33 -21 -90 -54 -54z" />
    <glyph glyph-name="caron.cap" horiz-adv-x="526" 
d="M406 763h-48l-86 130h47l66 -97l98 97h52z" />
    <glyph glyph-name="ring.cap" horiz-adv-x="340" 
d="M280 735c-53 0 -95 42 -95 93s42 93 95 93c49 0 91 -42 91 -93s-42 -93 -91 -93zM280 768c33 0 60 27 60 60c0 35 -27 61 -60 61c-35 0 -62 -26 -62 -61c0 -33 27 -60 62 -60z" />
    <glyph glyph-name="grave.cap" horiz-adv-x="518" 
d="M441 763h-46l-88 130h59z" />
    <glyph glyph-name="hungarumlaut.cap" horiz-adv-x="453" 
d="M379 763h-49l118 130h60zM235 763h-49l117 130h62z" />
    <glyph glyph-name="acute.cap" horiz-adv-x="506" 
d="M341 763h-49l117 130h61z" />
    <glyph glyph-name="macron.cap" horiz-adv-x="527" 
d="M513 810h-230l5 38h231z" />
    <glyph glyph-name="dieresis.cap" horiz-adv-x="517" 
d="M458 799c-34 32 21 86 51 51c35 -30 -19 -85 -51 -51zM268 799c-34 32 21 86 51 51c35 -30 -19 -85 -51 -51z" />
    <glyph glyph-name="circumflex.cap" horiz-adv-x="521" 
d="M376 893h48l86 -130h-47l-66 97l-98 -97h-52z" />
    <glyph glyph-name="dollar.mono" 
d="M615 651l-7 -46c-63 42 -136 63 -218 63c-52 0 -99 -12 -141 -37c-41 -24 -62 -60 -62 -107c0 -21 8 -41 17 -54s32 -28 45 -36s48 -20 63 -25l36 -11l35 -10l62 -21c15 -5 33 -13 55 -24c61 -29 90 -69 95 -139c0 -67 -27 -120 -81 -158s-118 -57 -191 -58l-16 -102h-47
l16 104c-91 8 -178 40 -217 73l9 51c22 -21 57 -40 104 -57s97 -25 150 -25c34 0 67 5 100 15c33 11 61 29 86 55c25 27 38 58 38 95c0 36 -17 67 -37 84c-10 9 -25 18 -45 27c-39 19 -60 25 -112 40c-36 10 -64 19 -85 27c-20 8 -41 18 -64 31c-44 27 -63 62 -63 113
c0 61 24 109 73 142s109 50 178 51l16 102h47l-17 -104c74 -8 133 -28 178 -59z" />
    <glyph glyph-name="franc.mono" 
d="M161 0h-46l26 165h-118l7 43h118l78 492h463l-7 -43h-417l-42 -268h346l-7 -43h-346l-22 -138h183l-7 -43h-183z" />
    </font>
</defs>
</svg>
