<?xml version="1.0" standalone="no"?>
<!DOCTYPE svg PUBLIC "-//W3C//DTD SVG 1.1//EN" "http://www.w3.org/Graphics/SVG/1.1/DTD/svg11.dtd" >
<svg xmlns="http://www.w3.org/2000/svg" xmlns:xlink="http://www.w3.org/1999/xlink" version="1.1">
<metadata>
Created by FontForge 20170910 at Wed Dec 11 00:49:59 2013
 By Jimmy Wärting
Copyright (c) 2012 by Vyacheslav Kirilenko, Gayane Bagdasaryan. All rights reserved.
</metadata>
<defs>
<font id="Geometria-ExtraLightItalic" horiz-adv-x="624" >
  <font-face 
    font-family="Geometria"
    font-weight="200"
    font-style="italic"
    font-stretch="normal"
    units-per-em="1000"
    panose-1="2 11 3 3 2 2 4 9 2 7"
    ascent="777"
    descent="-223"
    x-height="473"
    cap-height="700"
    bbox="-279 -209 1490 918"
    underline-thickness="50"
    underline-position="-100"
    slope="-9"
    unicode-range="U+0020-FB04"
  />
<missing-glyph horiz-adv-x="652" 
d="M503 0h-405l110 700h405zM233 673l-102 -646h346l103 646h-347z" />
    <glyph glyph-name="ij" unicode="ij" horiz-adv-x="464" 
d="M208 -203c-26 0 -49 5 -68 16l5 32c19 -13 41 -19 64 -19c61 0 96 35 107 105l86 542h31l-87 -549c-13 -85 -59 -127 -138 -127zM419 623c-11 12 -11 32 0 43c12 12 32 12 43 0c12 -11 12 -31 0 -43c-11 -11 -31 -11 -43 0zM137 0h-31l76 473h30zM198 623
c-11 12 -11 32 0 43c12 12 32 12 43 0c12 -11 12 -31 0 -43c-11 -11 -31 -11 -43 0z" />
    <glyph glyph-name="f_f" unicode="ff" horiz-adv-x="645" 
d="M514 473h175l-4 -29h-176l-70 -444h-30l69 444h-247l-70 -444h-30l69 444h-100l4 29h101l17 109c13 83 60 124 139 124c32 0 60 -7 84 -20l-4 -31c-27 15 -53 22 -80 22c-62 0 -99 -35 -110 -104l-15 -100h247l17 109c13 83 60 124 139 124c32 0 60 -7 84 -20l-4 -31
c-27 15 -53 22 -80 22c-62 0 -99 -35 -110 -104z" />
    <glyph glyph-name="fi" unicode="fi" horiz-adv-x="545" 
d="M251 573l-15 -100h278l-75 -473h-31l71 444h-248l-70 -444h-30l69 444h-100l4 29h101l17 109c13 83 60 124 139 124c32 0 60 -7 84 -20l-4 -31c-27 15 -53 22 -80 22c-62 0 -99 -35 -110 -104zM500 623c-11 12 -11 32 0 43c12 12 32 12 43 0c12 -11 12 -31 0 -43
c-11 -11 -31 -11 -43 0z" />
    <glyph glyph-name="fl" unicode="fl" horiz-adv-x="588" 
d="M519 700h31l-92 -585c-3 -25 -5 -42 -5 -49c0 -33 19 -49 56 -49c25 0 45 5 62 15l-4 -30c-20 -9 -43 -14 -68 -14c-52 0 -78 25 -78 74c0 12 2 28 5 48l52 334h-247l-70 -444h-30l69 444h-100l4 29h101l17 109c13 83 60 124 139 124c32 0 60 -7 84 -20l-4 -31
c-27 15 -53 22 -80 22c-62 0 -99 -35 -110 -104l-15 -100h247z" />
    <glyph glyph-name="f_f_i" unicode="ffi" horiz-adv-x="823" 
d="M529 573l-15 -100h278l-75 -473h-31l71 444h-248l-70 -444h-30l69 444h-247l-70 -444h-30l69 444h-100l4 29h101l17 109c13 83 60 124 139 124c32 0 60 -7 84 -20l-4 -31c-27 15 -53 22 -80 22c-62 0 -99 -35 -110 -104l-15 -100h247l17 109c13 83 60 124 139 124
c32 0 60 -7 84 -20l-4 -31c-27 15 -53 22 -80 22c-62 0 -99 -35 -110 -104zM778 623c-11 12 -11 32 0 43c12 12 32 12 43 0c12 -11 12 -31 0 -43c-11 -11 -31 -11 -43 0z" />
    <glyph glyph-name="f_f_l" unicode="ffl" horiz-adv-x="865" 
d="M796 700h31l-92 -585c-3 -25 -5 -41 -5 -49c0 -33 19 -49 57 -49c23 0 43 5 61 15l-4 -30c-19 -9 -41 -14 -67 -14c-51 0 -79 26 -79 74c0 12 2 28 5 48l52 334h-246l-70 -444h-30l69 444h-247l-70 -444h-30l69 444h-100l4 29h101l17 109c13 83 60 124 139 124
c32 0 60 -7 84 -20l-4 -31c-27 15 -53 22 -80 22c-62 0 -99 -35 -110 -104l-15 -100h247l17 109c13 83 60 124 139 124c32 0 60 -7 84 -20l-4 -31c-27 15 -53 22 -80 22c-62 0 -99 -35 -110 -104l-15 -100h246z" />
    <glyph glyph-name=".notdef" horiz-adv-x="652" 
d="M503 0h-405l110 700h405zM233 673l-102 -646h346l103 646h-347z" />
    <glyph glyph-name="NULL" horiz-adv-x="0" 
 />
    <glyph glyph-name="CR" horiz-adv-x="333" 
 />
    <glyph glyph-name="space" unicode=" " horiz-adv-x="272" 
 />
    <glyph glyph-name="exclam" unicode="!" horiz-adv-x="252" 
d="M174 204h-31l76 496h35zM109 6c-11 12 -11 32 0 43c12 12 32 12 43 0c12 -11 12 -31 0 -43c-11 -11 -31 -11 -43 0z" />
    <glyph glyph-name="quotedbl" unicode="&#x22;" horiz-adv-x="330" 
d="M168 474h-29l35 226h30zM343 474h-30l36 226h30z" />
    <glyph glyph-name="numbersign" unicode="#" horiz-adv-x="688" 
d="M222 0h-29l32 204h-148l4 29h149l36 233h-148l5 29h148l33 205h29l-33 -205h225l33 205h29l-33 -205h149l-5 -29h-148l-37 -233h149l-5 -29h-149l-32 -204h-29l32 204h-225zM296 466l-37 -233h225l36 233h-224z" />
    <glyph glyph-name="dollar" unicode="$" horiz-adv-x="620" 
d="M320 -12l-16 -103h-32l16 104c-48 3 -94 11 -137 26s-75 31 -94 48l6 34c22 -21 57 -39 104 -56c47 -16 97 -24 150 -24c36 0 71 6 106 17c35 12 66 32 93 60c27 29 40 63 40 102c0 37 -19 70 -40 90c-11 10 -26 20 -47 29c-20 9 -38 16 -53 21s-36 12 -63 20
c-59 16 -83 24 -126 43c-58 28 -81 61 -86 124c0 61 24 107 73 140s107 49 174 49h16l16 103h32l-17 -106c71 -7 129 -26 173 -58l-5 -30c-62 41 -134 62 -216 62c-33 0 -66 -5 -97 -15c-31 -9 -58 -26 -82 -51s-36 -55 -36 -90c0 -68 66 -110 147 -131
c117 -30 271 -63 269 -195c0 -66 -27 -118 -80 -156c-53 -37 -116 -56 -188 -57z" />
    <glyph glyph-name="percent" unicode="%" horiz-adv-x="816" 
d="M189 0l512 700h35l-512 -700h-35zM313 712c47 0 85 -15 113 -45s42 -66 42 -109c0 -49 -17 -91 -50 -126s-74 -52 -123 -52c-47 0 -85 15 -114 45c-28 31 -42 67 -42 110c0 49 17 90 50 125s75 52 124 52zM295 407c39 0 73 15 101 44c29 30 43 66 43 107
c0 72 -51 127 -127 127c-40 0 -74 -15 -102 -44c-27 -29 -41 -65 -41 -106c0 -72 51 -128 126 -128zM631 320c47 0 84 -15 112 -46c29 -30 43 -66 43 -109c0 -49 -17 -90 -50 -125s-75 -52 -124 -52c-47 0 -85 15 -113 45c-28 31 -42 67 -42 110c0 49 17 90 50 125
s75 52 124 52zM612 15c40 0 74 15 102 44c28 30 42 65 42 106c0 73 -50 128 -126 128c-40 0 -74 -15 -102 -44s-42 -65 -42 -106c0 -72 51 -128 126 -128z" />
    <glyph glyph-name="ampersand" unicode="&#x26;" horiz-adv-x="696" 
d="M661 369h31c-17 -117 -57 -209 -120 -278l77 -91h-41l-58 69c-61 -54 -133 -81 -218 -81c-71 0 -130 20 -177 59c-47 40 -71 94 -71 163c0 58 18 105 53 142s75 60 119 71c-26 40 -39 80 -39 119c0 53 18 95 53 125s80 45 135 45c69 0 129 -23 179 -68l-6 -37
c-39 40 -107 76 -172 76c-95 0 -156 -52 -156 -141c0 -52 17 -86 57 -135l245 -293c55 59 91 144 109 255zM329 17c78 0 145 25 201 76l-254 304c-41 -7 -78 -27 -111 -60s-49 -75 -49 -127c0 -59 21 -106 62 -141c42 -35 92 -52 151 -52z" />
    <glyph glyph-name="quotesingle" unicode="'" horiz-adv-x="156" 
d="M169 474h-30l35 226h31z" />
    <glyph glyph-name="parenleft" unicode="(" horiz-adv-x="317" 
d="M333 706h36c-138 -148 -207 -333 -207 -555c0 -134 32 -253 95 -357h-33c-52 81 -91 209 -91 354c0 226 67 412 200 558z" />
    <glyph glyph-name="parenright" unicode=")" horiz-adv-x="317" 
d="M85 -206h-36c138 148 207 333 207 555c0 134 -32 253 -95 357h33c52 -81 91 -209 91 -354c0 -226 -67 -412 -200 -558z" />
    <glyph glyph-name="asterisk" unicode="*" horiz-adv-x="426" 
d="M148 603l17 21l118 -76l24 152h27l-24 -150l142 76l10 -25l-144 -74l120 -77l-17 -21l-118 76l-24 -153h-27l24 151l-142 -76l-10 24l143 77z" />
    <glyph glyph-name="plus" unicode="+" horiz-adv-x="597" 
d="M328 93h-31l33 214h-215l5 31h216l34 216h31l-34 -216h214l-5 -31h-215z" />
    <glyph glyph-name="comma" unicode="," horiz-adv-x="218" 
d="M41 -152h-28l110 228h39z" />
    <glyph glyph-name="hyphen" unicode="-" horiz-adv-x="449" 
d="M397 254h-264l6 29h264z" />
    <glyph glyph-name="period" unicode="." horiz-adv-x="209" 
d="M86 6c-11 12 -11 32 0 43c12 12 32 12 43 0c12 -11 12 -31 0 -43c-11 -11 -31 -11 -43 0z" />
    <glyph glyph-name="slash" unicode="/" horiz-adv-x="493" 
d="M601 792l-568 -932h-37l568 932h37z" />
    <glyph glyph-name="zero" unicode="0" horiz-adv-x="705" 
d="M440 712c76 0 136 -29 181 -87s68 -132 68 -223c0 -65 -12 -128 -36 -191c-23 -62 -60 -115 -109 -158s-104 -65 -167 -65c-77 0 -138 29 -183 86c-45 58 -67 133 -67 224c0 65 12 129 35 190c23 62 60 115 109 158c49 44 106 66 169 66zM377 17c57 0 107 20 151 61
c89 83 130 205 130 324c0 80 -19 147 -58 200c-39 54 -92 81 -161 81c-57 0 -108 -21 -152 -62c-88 -81 -129 -204 -129 -324c0 -79 19 -146 57 -200c39 -53 93 -80 162 -80z" />
    <glyph glyph-name="one" unicode="1" horiz-adv-x="344" 
d="M235 0h-31l105 662l-179 -102l5 35l182 105h29z" />
    <glyph glyph-name="two" unicode="2" horiz-adv-x="568" 
d="M134 591l6 43c59 52 129 78 209 78c62 0 112 -18 150 -55s57 -82 57 -135c0 -47 -16 -91 -47 -133s-80 -90 -145 -143l-264 -217h417l-4 -29h-465l3 25l286 238c31 26 56 47 74 64c19 17 38 37 57 59c39 45 56 87 56 131c0 51 -17 91 -52 121c-34 30 -75 45 -124 45
c-79 0 -150 -31 -214 -92z" />
    <glyph glyph-name="three" unicode="3" horiz-adv-x="563" 
d="M573 677l-280 -249h3c67 0 123 -18 168 -54c45 -35 67 -84 67 -145c0 -74 -28 -133 -83 -176s-120 -65 -197 -65c-83 0 -152 19 -206 56l6 32c50 -39 116 -59 199 -59c121 -4 249 78 249 210c0 56 -21 99 -62 129s-91 45 -150 45c-21 0 -38 -1 -49 -4l4 25l280 249h-360
l3 29h411z" />
    <glyph glyph-name="four" unicode="4" 
d="M465 0h-32l33 209h-390l4 25l467 466h29l-74 -462h123l-4 -29h-123zM537 650l-414 -412h348z" />
    <glyph glyph-name="five" unicode="5" horiz-adv-x="593" 
d="M322 431c72 0 130 -20 174 -60s66 -89 66 -146c0 -73 -29 -130 -87 -173c-57 -43 -126 -64 -205 -64c-81 0 -146 17 -196 52l5 32c49 -37 113 -55 191 -55c41 0 81 7 119 21c39 14 72 37 99 69c28 32 42 70 42 113c0 50 -19 93 -58 128c-38 36 -91 54 -158 54
c-52 0 -104 -7 -155 -22l94 320h334l-4 -29h-307l-75 -253c34 9 74 13 121 13z" />
    <glyph glyph-name="six" unicode="6" horiz-adv-x="637" 
d="M392 438c62 0 113 -20 153 -59s60 -86 60 -143c0 -68 -23 -126 -69 -175s-104 -73 -174 -73c-71 0 -129 24 -172 71c-43 48 -65 112 -65 192c0 129 33 238 98 327s145 134 240 134c60 0 122 -20 157 -48l-5 -31c-42 33 -93 50 -154 50c-79 0 -148 -37 -205 -110
s-90 -163 -97 -269c47 76 133 134 233 134zM364 17c58 0 107 21 148 64s62 94 62 155c0 51 -18 92 -53 124c-35 33 -79 49 -133 49c-47 0 -92 -15 -135 -45c-43 -29 -75 -66 -97 -111c0 -67 18 -124 54 -169c37 -45 88 -67 154 -67z" />
    <glyph glyph-name="seven" unicode="7" horiz-adv-x="540" 
d="M160 700h441l-3 -22l-449 -678h-36l444 671h-401z" />
    <glyph glyph-name="eight" unicode="8" horiz-adv-x="658" 
d="M469 367c93 -28 154 -93 154 -174c0 -63 -26 -113 -77 -150s-113 -55 -184 -55c-76 0 -138 18 -187 54s-73 82 -73 138c0 51 19 94 56 129c37 36 85 59 144 68c-69 27 -115 81 -115 149c0 56 22 101 65 135c44 34 97 51 160 51c60 0 111 -15 153 -46s63 -71 63 -122
c0 -46 -16 -85 -47 -116s-68 -51 -112 -61zM218 526c0 -41 18 -75 55 -102s81 -40 130 -40s94 14 134 41c41 27 61 65 61 114c0 43 -18 77 -55 104c-36 27 -80 40 -132 40c-51 0 -96 -14 -135 -42s-58 -66 -58 -115zM359 17c61 0 115 16 162 47c47 32 71 75 71 130
c0 47 -22 85 -65 115c-43 31 -97 46 -162 46c-61 0 -115 -16 -162 -47s-70 -73 -70 -127c0 -47 22 -87 66 -118c45 -31 98 -46 160 -46z" />
    <glyph glyph-name="nine" unicode="9" horiz-adv-x="637" 
d="M353 262c-62 0 -113 19 -153 58s-60 87 -60 144c0 68 23 126 69 175s104 73 173 73c71 0 129 -24 172 -72c44 -47 66 -111 66 -191c0 -129 -33 -239 -99 -328c-65 -89 -145 -133 -240 -133c-60 0 -123 20 -156 48l4 31c41 -33 93 -50 154 -50c79 0 148 37 205 110
s90 163 97 269c-45 -76 -132 -134 -232 -134zM380 683c-57 0 -107 -21 -148 -64s-61 -94 -61 -155c0 -51 17 -92 52 -125c35 -32 79 -48 133 -48c47 0 92 15 135 44c43 30 75 67 97 112c0 67 -18 123 -55 168c-36 45 -87 68 -153 68z" />
    <glyph glyph-name="colon" unicode=":" horiz-adv-x="209" 
d="M149 403c-11 12 -11 32 0 43c12 12 32 12 43 0c12 -11 12 -31 0 -43c-11 -11 -31 -11 -43 0zM86 6c-11 12 -11 32 0 43c12 12 32 12 43 0c12 -11 12 -31 0 -43c-11 -11 -31 -11 -43 0z" />
    <glyph glyph-name="semicolon" unicode=";" horiz-adv-x="218" 
d="M41 -152h-28l110 228h39zM153 403c-11 12 -11 32 0 43c12 12 32 12 43 0c12 -11 12 -31 0 -43c-11 -11 -31 -11 -43 0z" />
    <glyph glyph-name="less" unicode="&#x3c;" horiz-adv-x="597" 
d="M121 334l493 203l-5 -34l-452 -185l393 -184l-4 -32l-430 202z" />
    <glyph glyph-name="equal" unicode="=" horiz-adv-x="597" 
d="M560 193h-460l5 29h460zM597 421h-461l5 29h460z" />
    <glyph glyph-name="greater" unicode="&#x3e;" horiz-adv-x="597" 
d="M540 320l-393 185l6 32l428 -203l-4 -30l-494 -202l6 34z" />
    <glyph glyph-name="question" unicode="?" horiz-adv-x="463" 
d="M252 204h-31l23 146c55 9 104 31 149 65s67 76 67 125c0 80 -63 137 -164 137c-59 0 -114 -18 -166 -53l5 36c47 31 102 46 167 46c56 0 102 -16 137 -47s53 -69 53 -116c0 -54 -21 -99 -64 -136s-95 -63 -157 -79zM187 6c-11 12 -11 32 0 43c12 12 32 12 43 0
c12 -11 12 -31 0 -43c-11 -11 -31 -11 -43 0z" />
    <glyph glyph-name="at" unicode="@" horiz-adv-x="973" 
d="M562 712c115 0 210 -37 283 -110c74 -73 111 -162 111 -268c0 -109 -59 -263 -191 -263c-60 0 -95 37 -102 80c-47 -53 -102 -80 -164 -80c-57 0 -102 18 -136 53c-33 36 -50 80 -50 132c0 61 20 113 61 156s93 65 154 65c73 0 134 -37 165 -84l11 68h31l-42 -267
c-1 -9 -2 -17 -2 -23c0 -52 34 -79 82 -79c34 0 64 13 89 40c52 53 74 130 74 202c0 99 -34 183 -103 253c-68 70 -158 105 -271 105c-122 0 -228 -45 -317 -134s-134 -196 -134 -321c0 -107 35 -197 105 -270c71 -74 159 -111 264 -111c68 0 135 15 201 44l-4 -23
c-61 -27 -127 -41 -198 -41c-111 0 -203 39 -277 116s-111 172 -111 285c0 83 20 161 61 234s97 131 170 175s153 66 240 66zM661 187l27 169c-25 49 -87 93 -158 93c-51 0 -94 -19 -131 -56c-36 -37 -54 -82 -54 -135c0 -45 15 -83 44 -114c30 -30 69 -45 116 -45
c57 0 121 40 156 88z" />
    <glyph glyph-name="A" unicode="A" horiz-adv-x="739" 
d="M704 0h-34l-63 213h-406l-130 -213h-35l430 705h29zM599 241l-124 421l-257 -421h381z" />
    <glyph glyph-name="B" unicode="B" horiz-adv-x="728" 
d="M549 379c88 -15 140 -76 140 -160c0 -69 -24 -122 -71 -161s-108 -58 -183 -58h-326l111 700h286c109 0 173 -59 173 -146c0 -84 -47 -150 -130 -175zM502 671h-255l-45 -283h255c53 0 98 14 135 41c37 28 56 68 56 121c0 75 -54 121 -146 121zM198 360l-53 -331h291
c63 0 115 16 157 49s63 80 63 141c0 85 -61 141 -169 141h-289z" />
    <glyph glyph-name="C" unicode="C" horiz-adv-x="693" 
d="M163 320c0 -85 27 -157 82 -216c55 -58 125 -87 212 -87c80 0 151 22 213 67l-5 -36c-57 -40 -126 -60 -209 -60c-97 0 -175 31 -235 94s-90 142 -90 237c0 107 35 199 105 276c71 78 160 117 268 117c82 0 152 -21 210 -63l-5 -31c-57 43 -126 65 -206 65
c-95 0 -175 -35 -241 -106c-66 -70 -99 -156 -99 -257z" />
    <glyph glyph-name="D" unicode="D" horiz-adv-x="775" 
d="M220 700h191c103 0 186 -29 248 -86c63 -57 94 -131 94 -224c0 -117 -40 -211 -119 -283c-79 -71 -181 -107 -305 -107h-220zM145 29h190c111 1 203 34 276 99c73 66 110 153 110 262c0 85 -28 153 -85 204c-56 51 -134 77 -233 77h-156z" />
    <glyph glyph-name="E" unicode="E" horiz-adv-x="638" 
d="M587 0h-478l111 700h460l-4 -29h-429l-44 -280h355l-4 -29h-356l-53 -333h446z" />
    <glyph glyph-name="F" unicode="F" horiz-adv-x="615" 
d="M140 0h-31l111 700h456l-5 -29h-424l-46 -289h354l-5 -29h-353z" />
    <glyph glyph-name="G" unicode="G" horiz-adv-x="783" 
d="M674 101l49 299h32l-51 -316c-72 -64 -155 -96 -248 -96c-97 0 -175 31 -235 93c-60 63 -90 141 -90 236c0 107 35 200 105 278c71 78 160 117 268 117c99 0 178 -28 238 -84l-6 -32c-62 58 -140 87 -233 87c-95 0 -175 -35 -241 -106s-99 -157 -99 -258
c0 -87 27 -159 82 -216s127 -86 214 -86c82 0 154 28 215 84z" />
    <glyph glyph-name="H" unicode="H" horiz-adv-x="759" 
d="M140 0h-31l111 700h31l-49 -309h479l49 309h31l-111 -700h-31l57 362h-479z" />
    <glyph glyph-name="I" unicode="I" horiz-adv-x="262" 
d="M147 0h-31l111 700h31z" />
    <glyph glyph-name="J" unicode="J" horiz-adv-x="500" 
d="M479 700h31l-80 -508c-22 -136 -101 -204 -238 -204c-61 0 -111 17 -149 50l5 34c35 -37 83 -55 146 -55c120 0 185 54 205 181z" />
    <glyph glyph-name="K" unicode="K" horiz-adv-x="674" 
d="M612 0l-378 365l4 25l426 310h45l-441 -325l386 -375h-42zM140 0h-31l111 700h31z" />
    <glyph glyph-name="L" unicode="L" horiz-adv-x="590" 
d="M555 0h-446l111 700h31l-106 -671h414z" />
    <glyph glyph-name="M" unicode="M" horiz-adv-x="846" 
d="M848 700l-110 -700h-32l103 649l-325 -349h-25l-215 350l-104 -650h-31l111 700h29l225 -368l340 368h34z" />
    <glyph glyph-name="N" unicode="N" horiz-adv-x="774" 
d="M666 0h-30l-393 648l-103 -648h-31l110 700h30l393 -648l102 648h32z" />
    <glyph glyph-name="O" unicode="O" horiz-adv-x="847" 
d="M502 712c96 0 174 -31 233 -94c60 -63 90 -141 90 -236c0 -107 -35 -200 -106 -278c-70 -77 -158 -116 -264 -116c-96 0 -174 31 -234 94s-90 142 -90 237c0 107 35 199 106 276c71 78 159 117 265 117zM455 17c93 0 173 35 239 106s99 157 99 258c0 86 -27 158 -81 215
c-54 58 -124 87 -210 87c-94 0 -174 -35 -240 -106s-99 -156 -99 -257c0 -86 27 -158 81 -216c55 -58 125 -87 211 -87z" />
    <glyph glyph-name="P" unicode="P" horiz-adv-x="665" 
d="M109 0l111 700h278c124 0 194 -64 194 -163c0 -61 -22 -111 -67 -149c-44 -38 -99 -57 -166 -57h-266l-53 -331h-31zM198 360h264c54 1 100 16 139 46c39 31 59 73 59 127c0 88 -59 138 -166 138h-247z" />
    <glyph glyph-name="Q" unicode="Q" horiz-adv-x="847" 
d="M502 712c96 0 174 -31 233 -94c60 -63 90 -141 90 -236c0 -94 -28 -178 -85 -252c-56 -73 -128 -118 -217 -135c39 -49 82 -74 130 -74c31 0 60 8 87 24l-5 -32c-27 -14 -56 -21 -87 -21c-55 0 -109 33 -161 98c-13 -1 -24 -2 -32 -2c-96 0 -174 31 -234 94
s-90 142 -90 237c0 107 35 199 106 276c71 78 159 117 265 117zM455 17c93 0 173 35 239 106c67 71 100 157 100 258c0 86 -27 158 -82 215c-54 58 -124 87 -210 87c-94 0 -174 -35 -240 -106s-99 -156 -99 -257c0 -86 27 -158 81 -216c55 -58 125 -87 211 -87z" />
    <glyph glyph-name="R" unicode="R" horiz-adv-x="736" 
d="M509 340l172 -340h-36l-172 338h-279l-54 -338h-31l111 700h297c121 0 190 -62 190 -161c0 -109 -81 -184 -198 -199zM512 671h-265l-48 -304h283c53 0 99 15 137 46s57 72 57 124c0 84 -59 134 -164 134z" />
    <glyph glyph-name="S" unicode="S" horiz-adv-x="620" 
d="M608 651l-5 -30c-62 41 -134 62 -216 62c-33 0 -66 -5 -97 -15c-31 -9 -58 -26 -82 -51s-36 -55 -36 -90c0 -20 3 -38 14 -53c12 -15 18 -25 39 -37c21 -11 26 -15 54 -26l30 -10l33 -10l31 -9l52 -17c12 -3 28 -9 48 -18c20 -8 35 -16 46 -24c36 -24 73 -66 69 -122
c0 -66 -27 -118 -81 -156s-117 -57 -190 -57c-52 0 -103 8 -153 23c-49 16 -85 33 -107 52l6 34c22 -21 57 -39 104 -56c47 -16 97 -24 150 -24c36 0 71 6 106 17c35 12 66 32 93 60c27 29 40 63 40 102c0 37 -19 70 -40 90c-11 10 -26 20 -47 29c-20 9 -38 16 -53 21
s-36 12 -63 20c-57 16 -85 24 -126 43c-56 29 -82 62 -86 124c0 61 24 107 73 140s107 49 174 49c92 0 165 -20 220 -61z" />
    <glyph glyph-name="T" unicode="T" horiz-adv-x="616" 
d="M323 0h-31l107 671h-255l4 29h542l-4 -29h-256z" />
    <glyph glyph-name="U" unicode="U" horiz-adv-x="748" 
d="M664 293l64 407h32l-66 -417c-15 -95 -50 -168 -105 -219c-54 -51 -120 -76 -199 -76c-155 0 -252 90 -252 247c0 19 4 51 11 95l58 370h31l-59 -376c-6 -43 -9 -72 -9 -85c0 -137 77 -222 220 -222c145 0 246 103 274 276z" />
    <glyph glyph-name="V" unicode="V" horiz-adv-x="745" 
d="M377 42l400 658h36l-427 -704h-29l-205 704h34z" />
    <glyph glyph-name="W" unicode="W" horiz-adv-x="1035" 
d="M313 50l299 650h28l95 -648l325 648h36l-356 -704h-28l-94 644l-298 -644h-28l-134 704h34z" />
    <glyph glyph-name="X" unicode="X" horiz-adv-x="694" 
d="M616 0l-211 356l-322 -356h-42l347 382l-190 318h37l174 -293l266 293h41l-290 -318l229 -382h-39z" />
    <glyph glyph-name="Y" unicode="Y" horiz-adv-x="635" 
d="M371 357l306 343h40l-332 -374l-51 -326h-32l51 326l-214 374h36z" />
    <glyph glyph-name="Z" unicode="Z" horiz-adv-x="638" 
d="M662 700l-3 -22l-552 -649h478l-4 -29h-523l3 23l552 648h-436l4 29h481z" />
    <glyph glyph-name="bracketleft" unicode="[" horiz-adv-x="360" 
d="M286 -206h-216l145 912h216l-5 -27h-186l-135 -858h186z" />
    <glyph glyph-name="backslash" unicode="\" horiz-adv-x="492" 
d="M178 792l273 -932h-33l-273 932h33z" />
    <glyph glyph-name="bracketright" unicode="]" horiz-adv-x="360" 
d="M152 706h216l-145 -912h-216l5 27h186l135 858h-186z" />
    <glyph glyph-name="asciicircum" unicode="^" horiz-adv-x="494" 
d="M151 350h-33l223 354h31l112 -354h-31l-100 320z" />
    <glyph glyph-name="underscore" unicode="_" horiz-adv-x="601" 
d="M-9 -116l4 29h584l-5 -29h-583z" />
    <glyph glyph-name="grave" unicode="`" horiz-adv-x="521" 
d="M301 700h41l75 -126h-33z" />
    <glyph glyph-name="a" unicode="a" horiz-adv-x="587" 
d="M167 414l6 33c43 25 101 38 173 38c105 0 180 -47 180 -144c0 -13 -1 -28 -4 -47l-29 -183c-3 -15 -4 -27 -4 -37c0 -33 17 -50 50 -50c9 0 17 1 23 4l-4 -26c-7 -3 -17 -5 -29 -5c-45 0 -71 31 -71 78c-59 -58 -129 -87 -209 -87c-51 0 -94 13 -127 39
c-33 27 -50 62 -50 106c0 53 21 93 62 120c41 28 90 42 145 42c75 0 142 -21 201 -62l9 53c4 26 6 43 6 52c0 77 -54 118 -155 118c-67 0 -124 -14 -173 -42zM461 115l15 89c-54 43 -119 64 -194 64c-48 0 -90 -12 -126 -35c-35 -23 -53 -55 -53 -97c0 -76 65 -119 156 -119
c81 0 155 45 202 98z" />
    <glyph glyph-name="b" unicode="b" horiz-adv-x="632" 
d="M138 95l-15 -95h-31l111 700h31l-49 -305c54 60 120 90 198 90c69 0 124 -22 165 -66c41 -43 61 -97 61 -161c0 -75 -25 -138 -75 -191s-113 -79 -188 -79c-93 0 -168 47 -208 107zM377 456c-39 0 -77 -11 -114 -32s-66 -47 -86 -79l-32 -213c15 -31 41 -58 77 -81
s77 -34 122 -34c64 0 119 23 165 70s69 103 69 170c0 57 -18 105 -55 142c-37 38 -85 57 -146 57z" />
    <glyph glyph-name="c" unicode="c" horiz-adv-x="513" 
d="M516 441l-6 -30c-42 30 -91 45 -147 45c-68 0 -125 -23 -172 -70c-46 -46 -69 -103 -69 -170c0 -57 19 -104 56 -142c38 -38 88 -57 151 -57c49 0 97 13 142 40l-5 -34c-43 -23 -90 -35 -142 -35c-73 0 -130 22 -171 66c-41 45 -62 98 -62 160c0 77 26 142 77 193
c52 52 116 78 191 78c62 0 114 -15 157 -44z" />
    <glyph glyph-name="d" unicode="d" horiz-adv-x="625" 
d="M562 378l51 322h31l-111 -700h-31l13 78c-54 -60 -120 -90 -198 -90c-69 0 -124 22 -165 65c-41 44 -61 98 -61 162c0 75 25 138 75 191s113 79 188 79c93 0 168 -48 208 -107zM323 17c39 0 77 10 114 31s66 48 86 80l31 212c-15 31 -40 58 -76 81s-77 35 -123 35
c-63 0 -118 -23 -164 -70s-69 -103 -69 -170c0 -57 18 -105 55 -143c37 -37 85 -56 146 -56z" />
    <glyph glyph-name="e" unicode="e" horiz-adv-x="565" 
d="M333 17c50 0 99 14 147 43l-6 -33c-39 -26 -87 -39 -144 -39c-68 0 -125 21 -171 63c-45 42 -68 96 -68 163c0 73 24 136 71 190c48 54 110 81 185 81c66 0 116 -21 150 -64c34 -42 51 -90 51 -143c0 -11 -1 -24 -2 -40h-423c-1 -5 -1 -14 -1 -25c0 -58 20 -105 60 -142
c41 -36 91 -54 151 -54zM344 456c-55 0 -103 -18 -143 -55s-65 -82 -75 -137h390c1 5 1 11 1 18c0 45 -15 86 -44 121s-72 53 -129 53z" />
    <glyph glyph-name="f" unicode="f" horiz-adv-x="367" 
d="M236 473h175l-4 -29h-176l-70 -444h-30l69 444h-100l4 29h101l17 109c13 83 60 124 139 124c32 0 60 -7 84 -20l-4 -31c-27 15 -53 22 -80 22c-62 0 -99 -35 -110 -104z" />
    <glyph glyph-name="g" unicode="g" horiz-adv-x="625" 
d="M561 378l15 95h31l-73 -466c-22 -140 -113 -210 -274 -210c-72 0 -133 15 -183 45l5 33c51 -33 111 -49 180 -49c139 0 220 61 241 184l12 68c-55 -60 -121 -90 -198 -90c-69 0 -124 22 -165 66c-41 45 -61 99 -61 162c0 75 25 138 75 190c50 53 113 79 188 79
c93 0 170 -48 207 -107zM522 129l33 210c-16 31 -42 59 -78 82c-35 23 -76 35 -122 35c-64 0 -119 -23 -165 -70c-45 -46 -68 -102 -68 -168c0 -57 19 -105 56 -144c37 -38 86 -57 147 -57c38 0 75 11 112 32s65 48 85 80z" />
    <glyph glyph-name="h" unicode="h" horiz-adv-x="598" 
d="M552 238l-37 -238h-31l38 239c7 39 10 68 10 87c0 85 -54 130 -142 130c-84 0 -165 -53 -213 -113l-54 -343h-31l111 700h31l-50 -312c63 65 135 97 214 97c101 0 165 -58 165 -155c0 -17 -4 -48 -11 -92z" />
    <glyph glyph-name="i" unicode="i" horiz-adv-x="243" 
d="M137 0h-31l76 473h30zM198 623c-11 12 -11 32 0 43c12 12 32 12 43 0c12 -11 12 -31 0 -43c-11 -11 -31 -11 -43 0z" />
    <glyph glyph-name="j" unicode="j" horiz-adv-x="243" 
d="M-13 -203c-26 0 -49 5 -68 16l5 32c19 -13 41 -19 64 -19c61 0 96 35 107 105l86 542h31l-87 -549c-13 -85 -59 -127 -138 -127zM198 623c-11 12 -11 32 0 43c12 12 32 12 43 0c12 -11 12 -31 0 -43c-11 -11 -31 -11 -43 0z" />
    <glyph glyph-name="k" unicode="k" horiz-adv-x="536" 
d="M123 0h-31l111 700h31zM457 0l-262 246l4 24l293 203h47l-311 -218l274 -255h-45z" />
    <glyph glyph-name="l" unicode="l" horiz-adv-x="268" 
d="M199 700h31l-92 -585c-3 -25 -5 -42 -5 -49c0 -33 19 -49 57 -49c23 0 43 5 61 15l-4 -30c-19 -9 -41 -14 -67 -14c-51 0 -79 26 -79 74c0 12 2 28 5 48z" />
    <glyph glyph-name="m" unicode="m" horiz-adv-x="910" 
d="M92 0l75 473h31l-13 -79c51 61 115 91 192 91s133 -39 146 -106c55 71 122 106 203 106c93 0 149 -56 149 -148c0 -15 -2 -36 -7 -64l-42 -273h-32l43 277c4 24 6 42 6 54c0 83 -42 125 -125 125c-75 0 -149 -49 -192 -116l-6 -54l-44 -286h-31l44 283c4 23 6 40 6 53
c0 49 -19 85 -48 100c-28 16 -51 20 -78 20c-71 0 -147 -46 -191 -111l-55 -345h-31z" />
    <glyph glyph-name="n" unicode="n" horiz-adv-x="598" 
d="M552 238l-37 -238h-31l38 239c7 39 10 68 10 87c0 85 -54 130 -142 130c-84 0 -165 -53 -213 -113l-54 -343h-31l75 473h31l-14 -85c63 65 135 97 214 97c101 0 165 -58 165 -155c0 -17 -4 -48 -11 -92z" />
    <glyph glyph-name="o" unicode="o" horiz-adv-x="613" 
d="M355 485c71 0 127 -23 170 -68s65 -99 65 -163c0 -73 -25 -136 -76 -188s-113 -78 -188 -78c-71 0 -128 23 -171 68s-64 100 -64 163c0 73 25 136 76 188s113 78 188 78zM326 17c64 0 119 23 164 70c46 47 69 103 69 168c0 57 -19 105 -57 143c-38 39 -87 58 -148 58
c-63 0 -118 -23 -164 -70c-45 -47 -68 -103 -68 -168c0 -57 19 -105 56 -144c38 -38 87 -57 148 -57z" />
    <glyph glyph-name="p" unicode="p" horiz-adv-x="632" 
d="M138 95l-47 -295h-31l107 673h31l-13 -78c54 60 120 90 198 90c69 0 124 -22 165 -66c41 -43 61 -97 61 -161c0 -75 -25 -138 -75 -191s-113 -79 -188 -79c-93 0 -168 47 -208 107zM377 456c-39 0 -77 -11 -114 -32s-66 -47 -86 -79l-32 -213c15 -31 41 -58 77 -81
s77 -34 122 -34c64 0 119 23 164 70c46 47 69 103 69 170c0 57 -18 105 -55 142c-37 38 -85 57 -145 57z" />
    <glyph glyph-name="q" unicode="q" horiz-adv-x="625" 
d="M562 378l15 95h31l-107 -673h-31l45 278c-54 -60 -120 -90 -198 -90c-69 0 -124 22 -165 65c-41 44 -61 98 -61 162c0 75 25 138 75 191s113 79 188 79c93 0 168 -48 208 -107zM323 17c39 0 77 10 114 31s66 48 86 80l31 212c-15 31 -40 58 -76 81s-77 35 -123 35
c-63 0 -118 -23 -164 -70c-45 -47 -68 -103 -68 -170c0 -57 18 -105 55 -143c37 -37 85 -56 145 -56z" />
    <glyph glyph-name="r" unicode="r" horiz-adv-x="331" 
d="M123 0h-31l75 473h31l-17 -103c21 29 50 56 88 79c38 24 79 36 123 36l-4 -31c-43 0 -84 -13 -123 -39c-38 -26 -68 -57 -90 -92z" />
    <glyph glyph-name="s" unicode="s" horiz-adv-x="487" 
d="M474 432l-4 -31c-49 37 -109 55 -180 55c-37 0 -71 -8 -102 -24c-30 -16 -45 -41 -45 -76c0 -27 15 -48 44 -64c31 -16 52 -24 95 -37l10 -3c22 -7 38 -13 49 -17c11 -3 25 -9 42 -17c47 -21 65 -46 70 -91c0 -46 -20 -81 -59 -104s-85 -35 -137 -35
c-89 0 -166 32 -206 64l5 33c54 -45 122 -68 203 -68c24 0 47 3 70 8c47 12 93 47 93 99c0 31 -23 56 -68 75c-13 5 -38 14 -76 26c-112 36 -165 65 -165 129c0 43 17 75 52 97c35 23 78 34 127 34c74 0 135 -18 182 -53z" />
    <glyph glyph-name="t" unicode="t" horiz-adv-x="419" 
d="M176 145l48 299h-125l5 29h124l25 157h31l-25 -157h185l-5 -29h-184l-47 -296c-5 -35 -8 -58 -8 -67c-4 -66 71 -85 167 -39l-5 -32c-24 -15 -54 -22 -91 -22c-69 0 -103 29 -103 87c0 7 1 20 4 39s4 30 4 31z" />
    <glyph glyph-name="u" unicode="u" horiz-adv-x="598" 
d="M121 235l37 238h31l-38 -239c-7 -39 -10 -68 -10 -87c0 -85 54 -130 142 -130c84 0 165 53 213 113l54 343h31l-75 -473h-31l14 85c-63 -65 -135 -97 -214 -97c-101 0 -165 58 -165 155c0 17 4 48 11 92z" />
    <glyph glyph-name="v" unicode="v" horiz-adv-x="549" 
d="M276 40l274 433h36l-301 -477h-29l-149 477h33z" />
    <glyph glyph-name="w" unicode="w" horiz-adv-x="810" 
d="M578 46l224 427h35l-251 -477h-28l-86 430l-222 -430h-28l-100 477h31l90 -426l222 428h27z" />
    <glyph glyph-name="x" unicode="x" horiz-adv-x="535" 
d="M506 473h41l-218 -222l173 -251h-37l-158 229l-227 -229h-41l251 254l-148 219h37l133 -197z" />
    <glyph glyph-name="y" unicode="y" horiz-adv-x="530" 
d="M524 473h36l-312 -529c-57 -97 -111 -147 -182 -147c-24 0 -44 5 -61 15l6 31c17 -11 36 -17 57 -17c33 0 63 15 89 44c27 29 61 79 102 149l-157 454h33l144 -417z" />
    <glyph glyph-name="z" unicode="z" horiz-adv-x="486" 
d="M42 22l402 422h-321l4 29h368l-4 -23l-400 -421h360l-5 -29h-407z" />
    <glyph glyph-name="braceleft" unicode="{" horiz-adv-x="337" 
d="M263 -206h-44c-64 0 -102 33 -102 93c0 12 2 30 7 55l24 151c5 34 7 56 7 65c0 47 -21 73 -62 77l5 29c39 4 60 28 76 57c5 9 9 21 12 34c8 28 10 41 14 69l25 160c13 79 63 122 138 122h45l-5 -28h-40c-61 0 -97 -33 -108 -98l-26 -160c-7 -43 -13 -68 -26 -103
c-13 -33 -35 -57 -63 -68c29 -14 44 -42 44 -84c0 -21 -2 -43 -6 -67l-24 -153c-4 -30 -6 -47 -6 -52c0 -47 27 -71 80 -71h40z" />
    <glyph glyph-name="bar" unicode="|" horiz-adv-x="279" 
d="M137 -111h-30l137 871h30z" />
    <glyph glyph-name="braceright" unicode="}" horiz-adv-x="337" 
d="M147 678l5 28h44c64 0 102 -33 102 -93c0 -12 -2 -30 -7 -55l-24 -151c-5 -34 -7 -56 -7 -65c0 -47 21 -73 62 -77l-5 -29c-39 -4 -61 -28 -76 -58c-5 -9 -9 -20 -13 -34c-7 -27 -9 -40 -13 -68l-25 -160c-13 -79 -63 -122 -138 -122h-45l5 28h40c61 0 97 33 108 98
l26 160c7 43 13 69 26 102c13 35 35 58 63 69c-29 14 -44 42 -44 84c0 21 2 43 6 67l24 153c4 30 6 47 6 52c0 47 -27 71 -80 71h-40z" />
    <glyph glyph-name="asciitilde" unicode="~" horiz-adv-x="551" 
d="M423 247c42 0 77 14 104 42l-4 -34c-22 -24 -57 -36 -105 -36c-26 0 -61 8 -105 24c-44 17 -79 25 -104 25c-41 0 -76 -14 -106 -43l6 34c23 25 57 37 103 37c26 0 61 -8 106 -25c45 -16 80 -24 105 -24z" />
    <glyph glyph-name="nbspace" unicode="&#xa0;" horiz-adv-x="272" 
 />
    <glyph glyph-name="exclamdown" unicode="&#xa1;" horiz-adv-x="252" 
d="M153 276h31l-73 -476h-35zM216 468c12 -11 12 -31 0 -43c-11 -11 -31 -11 -43 0c-11 12 -11 32 0 43c12 12 32 12 43 0z" />
    <glyph glyph-name="cent" unicode="&#xa2;" horiz-adv-x="513" 
d="M368 485l17 105h29l-17 -107c46 -5 86 -19 119 -42l-6 -30c-42 30 -91 45 -147 45c-68 0 -125 -23 -171 -70c-46 -46 -69 -103 -69 -170c0 -57 19 -105 56 -143c37 -37 87 -56 150 -56c49 0 97 13 142 40l-5 -34c-43 -23 -90 -35 -142 -35h-6l-16 -105h-28l16 107
c-63 7 -112 32 -147 74c-35 43 -52 93 -52 150c0 80 26 145 79 195c53 51 119 76 198 76z" />
    <glyph glyph-name="sterling" unicode="&#xa3;" horiz-adv-x="576" 
d="M461 683c-119 0 -197 -69 -216 -193l-24 -151h304l-4 -29h-305l-37 -227c-3 -27 -12 -45 -27 -54h369l-4 -29h-448l5 29h25c12 0 22 5 30 16c17 23 20 41 25 74l30 191h-66l5 29h66l25 157c21 139 113 216 249 216c66 0 118 -16 157 -49l-6 -32c-36 35 -87 52 -153 52z
" />
    <glyph glyph-name="currency" unicode="&#xa4;" horiz-adv-x="549" 
d="M204 203l-64 -64l-21 20l64 64c-30 36 -45 79 -45 128s15 91 45 127l-64 64l21 21l64 -64c35 31 78 46 127 46s92 -15 127 -46l64 64l21 -21l-66 -64c31 -35 47 -78 47 -127s-15 -92 -45 -128l64 -64l-21 -20l-64 64c-35 -31 -78 -46 -127 -46s-92 15 -127 46zM214 233
c31 -32 70 -48 117 -48s86 16 117 48s47 71 47 118s-16 86 -47 118s-70 48 -117 48s-86 -16 -117 -48s-47 -71 -47 -118s16 -86 47 -118z" />
    <glyph glyph-name="yen" unicode="&#xa5;" horiz-adv-x="598" 
d="M641 700h39l-298 -357h205l-4 -30h-219l-20 -126h219l-6 -28h-218l-25 -159h-31l24 159h-217l4 28h219l19 126h-217l4 30h206l-186 357h36l178 -345z" />
    <glyph glyph-name="brokenbar" unicode="&#xa6;" horiz-adv-x="279" 
d="M137 -111h-30l55 353h30zM219 407h-30l55 353h30z" />
    <glyph glyph-name="section" unicode="&#xa7;" horiz-adv-x="639" 
d="M403 683c-27 0 -53 -3 -78 -10c-51 -12 -100 -51 -100 -107c0 -59 57 -89 176 -133c137 -52 203 -100 203 -172c0 -79 -64 -134 -149 -157c51 -31 76 -66 76 -105c0 -49 -21 -87 -62 -112s-91 -38 -150 -38c-85 0 -161 23 -226 68l5 31c66 -47 141 -70 224 -70
c27 0 53 3 78 10c51 13 100 52 100 108c0 31 -15 55 -54 78c-19 11 -37 20 -53 27s-39 17 -69 28c-137 52 -203 99 -203 174c0 77 63 131 148 155c-51 31 -76 66 -76 105c0 49 21 86 62 111c42 25 92 38 150 38c86 0 162 -23 227 -68l-6 -31c-65 47 -139 70 -223 70z
M438 387l-51 21c-7 3 -20 8 -41 15l-46 18c-37 -8 -72 -24 -103 -48s-46 -53 -46 -88c0 -39 29 -75 77 -102c25 -13 47 -25 68 -34s46 -18 74 -28l54 -20c37 7 71 23 102 47s47 54 47 89c0 29 -19 57 -42 76c-11 10 -26 20 -45 30c-19 11 -35 19 -48 24z" />
    <glyph glyph-name="dieresis" unicode="&#xa8;" horiz-adv-x="521" 
d="M269 674c38 0 38 -58 0 -58c-37 0 -37 58 0 58zM454 674c38 0 38 -58 0 -58c-37 0 -37 58 0 58z" />
    <glyph glyph-name="copyright" unicode="&#xa9;" horiz-adv-x="878" 
d="M494 -12c-101 0 -186 35 -257 106c-70 71 -105 156 -105 257c0 99 35 184 106 255s156 106 256 106s185 -35 256 -106s106 -156 106 -257c0 -99 -35 -184 -106 -255s-156 -106 -256 -106zM835 349c0 95 -33 176 -100 243c-66 67 -146 100 -241 100s-175 -33 -242 -100
s-100 -148 -100 -243s33 -175 100 -242c67 -66 147 -99 242 -99s175 33 241 99c67 67 100 147 100 242zM513 160c-52 0 -96 18 -131 54s-52 81 -52 136s17 100 52 136s79 54 131 54c38 0 72 -9 101 -27v-31c-29 19 -62 29 -101 29c-44 0 -81 -15 -110 -45s-43 -69 -43 -116
s14 -86 43 -116s66 -45 111 -45c44 0 81 13 112 38v-31c-30 -24 -68 -36 -113 -36z" />
    <glyph glyph-name="ordfeminine" unicode="&#xaa;" horiz-adv-x="536" 
d="M443 420l10 63c-41 31 -89 47 -144 47c-73 0 -134 -34 -134 -97c0 -56 48 -87 116 -87c60 0 117 34 152 74zM217 644l6 30c36 20 81 30 134 30c83 0 142 -37 142 -114c0 -2 -1 -13 -3 -33l-22 -136c-2 -11 -3 -22 -3 -33c0 -25 12 -37 37 -37c7 0 13 1 19 4l-5 -26
c-5 -3 -14 -5 -25 -5c-33 0 -56 23 -56 59c-45 -43 -98 -65 -160 -65c-80 0 -137 44 -137 113c0 41 16 72 48 94s69 33 112 33c57 0 108 -16 154 -47l6 38c3 13 4 26 4 39c0 59 -39 88 -117 88c-51 0 -95 -11 -134 -32z" />
    <glyph glyph-name="guillemotleft" unicode="&#xab;" horiz-adv-x="543" 
d="M239 42h-36l-130 185l3 20l188 184h40l-198 -197zM458 42h-36l-130 185l4 20l187 184h40l-198 -197z" />
    <glyph glyph-name="logicalnot" unicode="&#xac;" horiz-adv-x="544" 
d="M500 160h-29l28 178h-377l5 29h406z" />
    <glyph glyph-name="uni00AD" unicode="&#xad;" horiz-adv-x="440" 
d="M388 253h-255l5 29h255z" />
    <glyph glyph-name="registered" unicode="&#xae;" horiz-adv-x="869" 
d="M388 168h-29v367h166c72 0 113 -39 113 -98c0 -52 -32 -88 -88 -96l121 -173h-34l-120 171h-129v-171zM388 509v-145h137c56 0 84 24 84 73c0 47 -31 72 -84 72h-137zM826 349c0 95 -33 176 -100 243c-66 67 -146 100 -241 100s-175 -33 -242 -100s-100 -148 -100 -243
s33 -175 100 -242c67 -66 147 -99 242 -99s175 33 241 99c67 67 100 147 100 242zM485 -12c-101 0 -186 35 -257 106c-70 71 -105 156 -105 257c0 99 35 184 106 255s156 106 256 106s185 -35 256 -106s106 -156 106 -257c0 -99 -35 -184 -106 -255s-156 -106 -256 -106z
" />
    <glyph glyph-name="overscore" unicode="&#xaf;" horiz-adv-x="520" 
d="M473 629h-219l4 27h219z" />
    <glyph glyph-name="degree" unicode="&#xb0;" horiz-adv-x="441" 
d="M393 650c-23 23 -51 35 -84 35s-61 -12 -84 -35s-34 -51 -34 -84s11 -62 34 -85s51 -34 84 -34s61 11 84 34s35 52 35 85s-12 61 -35 84zM206 669c29 29 63 43 103 43s74 -14 103 -43s44 -63 44 -103s-15 -74 -44 -103s-63 -43 -103 -43s-74 14 -103 43s-43 63 -43 103
s14 74 43 103z" />
    <glyph glyph-name="plusminus" unicode="&#xb1;" horiz-adv-x="597" 
d="M375 388h215l-4 -29h-215l-28 -174h-30l28 174h-216l4 29h217l27 174h29zM80 75l5 29h460l-4 -29h-461z" />
    <glyph glyph-name="twosuperior" unicode="&#xb2;" horiz-adv-x="347" 
d="M142 627l5 36c33 27 71 41 113 41c71 0 116 -44 116 -103c0 -51 -35 -93 -103 -150l-125 -102h209l-4 -27h-257l4 23l149 123c65 53 96 86 96 129c0 48 -39 80 -88 80c-37 0 -75 -17 -115 -50z" />
    <glyph glyph-name="threesuperior" unicode="&#xb3;" horiz-adv-x="316" 
d="M372 700l-3 -21l-138 -124c68 -3 117 -41 117 -105c0 -41 -15 -74 -45 -97c-29 -23 -65 -35 -108 -35c-47 0 -85 10 -115 31l4 30c28 -23 65 -34 110 -34c33 0 61 9 86 28s38 44 38 76c0 52 -45 82 -105 82c-11 0 -21 -1 -32 -3l4 23l138 122h-180l3 27h226z" />
    <glyph glyph-name="acute" unicode="&#xb4;" horiz-adv-x="514" 
d="M287 574l117 126h44l-122 -126h-39z" />
    <glyph glyph-name="mu" unicode="&#xb5;" horiz-adv-x="606" 
d="M91 -200h-31l106 673h31l-37 -239c-7 -54 -11 -83 -11 -87c0 -85 54 -130 142 -130c84 0 165 53 213 113l54 343h31l-75 -473h-31l14 85c-63 -65 -135 -97 -214 -97c-75 0 -125 27 -150 80z" />
    <glyph glyph-name="paragraph" unicode="&#xb6;" horiz-adv-x="492" 
d="M375 700h119l-110 -700h-32l53 333h-88c-117 0 -185 63 -185 156c0 65 23 117 68 154c46 38 104 57 175 57z" />
    <glyph glyph-name="middot" unicode="&#xb7;" horiz-adv-x="215" 
d="M136 353c-11 12 -11 32 0 43c12 12 32 12 43 0c12 -11 12 -31 0 -43c-11 -11 -31 -11 -43 0z" />
    <glyph glyph-name="cedilla" unicode="&#xb8;" horiz-adv-x="454" 
d="M176 -124h-41l106 128h31z" />
    <glyph glyph-name="onesuperior" unicode="&#xb9;" horiz-adv-x="248" 
d="M204 322h-30l54 343l-115 -65l5 33l118 67h27z" />
    <glyph glyph-name="ordmasculine" unicode="&#xba;" horiz-adv-x="464" 
d="M321 704c55 0 99 -17 132 -52c34 -35 51 -77 51 -127c0 -57 -20 -106 -59 -147c-39 -40 -88 -60 -147 -60c-54 0 -98 17 -132 52c-33 35 -50 78 -50 128c0 57 19 105 58 145c39 41 88 61 147 61zM299 345c48 0 89 18 122 53c34 35 51 78 51 127c0 43 -14 78 -42 107
s-65 44 -110 44c-47 0 -88 -18 -122 -53s-51 -77 -51 -126c0 -43 14 -80 42 -109s65 -43 110 -43z" />
    <glyph glyph-name="guillemotright" unicode="&#xbb;" horiz-adv-x="543" 
d="M379 431h36l129 -185l-3 -20l-187 -184h-40l197 197zM160 431h36l129 -185l-3 -20l-188 -184h-39l197 197z" />
    <glyph glyph-name="onequarter" unicode="&#xbc;" horiz-adv-x="721" 
d="M123 0l514 700h36l-514 -700h-36zM204 322h-30l54 343l-115 -65l5 33l118 67h27zM634 0h-30l16 106h-204l3 23l247 249h27l-38 -245h64l-5 -27h-63zM656 330l-197 -197h165z" />
    <glyph glyph-name="onehalf" unicode="&#xbd;" horiz-adv-x="792" 
d="M123 0l514 700h36l-514 -700h-36zM204 322h-30l54 343l-115 -65l5 33l118 67h27zM537 305l5 36c33 27 71 41 113 41c71 0 116 -44 116 -103c0 -51 -35 -93 -103 -150l-125 -102h209l-4 -27h-257l4 23l149 123c65 53 96 86 96 129c0 48 -39 80 -88 80
c-37 0 -75 -17 -115 -50z" />
    <glyph glyph-name="threequarters" unicode="&#xbe;" horiz-adv-x="771" 
d="M684 0h-30l16 106h-204l3 23l247 249h27l-38 -245h64l-5 -27h-63zM706 330l-197 -197h165zM372 700l-3 -21l-138 -124c68 -3 117 -41 117 -105c0 -41 -15 -74 -45 -97c-29 -23 -65 -35 -108 -35c-47 0 -85 10 -115 31l4 30c28 -23 65 -34 110 -34c33 0 61 9 86 28
s38 44 38 76c0 52 -45 82 -105 82c-11 0 -21 -1 -32 -3l4 23l138 122h-180l3 27h226zM172 0l514 700h36l-514 -700h-36z" />
    <glyph glyph-name="questiondown" unicode="&#xbf;" horiz-adv-x="463" 
d="M292 276h31l-21 -127c-34 -6 -67 -17 -98 -32c-63 -29 -117 -89 -117 -156c0 -79 63 -135 164 -135c61 0 116 17 167 52l-5 -34c-49 -31 -104 -47 -167 -47c-57 0 -103 15 -138 46c-35 30 -52 69 -52 116c0 54 21 99 63 134c43 36 95 62 157 78zM355 468
c12 -11 12 -31 0 -43c-11 -11 -31 -11 -43 0c-11 12 -11 32 0 43c12 12 32 12 43 0z" />
    <glyph glyph-name="Agrave" unicode="&#xc0;" horiz-adv-x="739" 
d="M704 0h-34l-63 213h-406l-130 -213h-35l430 705h29zM599 241l-124 421l-257 -421h381zM388 891h41l76 -126h-34z" />
    <glyph glyph-name="Aacute" unicode="&#xc1;" horiz-adv-x="739" 
d="M704 0h-34l-63 213h-406l-130 -213h-35l430 705h29zM599 241l-124 421l-257 -421h381zM474 765l116 126h44l-122 -126h-38z" />
    <glyph glyph-name="Acircumflex" unicode="&#xc2;" horiz-adv-x="739" 
d="M704 0h-34l-63 213h-406l-130 -213h-35l430 705h29zM599 241l-124 421l-257 -421h381zM527 891l84 -126h-33l-70 102l-103 -102h-37l125 126h34z" />
    <glyph glyph-name="Atilde" unicode="&#xc3;" horiz-adv-x="739" 
d="M704 0h-34l-63 213h-406l-130 -213h-35l430 705h29zM599 241l-124 421l-257 -421h381zM564 780c-19 0 -42 11 -70 33s-49 33 -64 33c-25 0 -43 -20 -52 -60h-27c11 55 42 87 82 87c19 0 42 -11 71 -33c29 -21 50 -32 63 -32c25 0 43 20 53 60h27c-11 -55 -42 -88 -83 -88
z" />
    <glyph glyph-name="Adieresis" unicode="&#xc4;" horiz-adv-x="739" 
d="M704 0h-34l-63 213h-406l-130 -213h-35l430 705h29zM599 241l-124 421l-257 -421h381zM378 824c0 37 58 37 58 0c0 -38 -58 -38 -58 0zM592 795c-16 0 -29 12 -29 29c0 16 13 29 29 29c17 0 29 -13 29 -29c0 -17 -12 -29 -29 -29z" />
    <glyph glyph-name="Aring" unicode="&#xc5;" horiz-adv-x="739" 
d="M704 0h-34l-63 213h-406l-130 -213h-35l430 705h29zM599 241l-124 421l-257 -421h381zM406 828c0 48 42 90 91 90s90 -42 90 -90c0 -49 -41 -91 -90 -91s-91 42 -91 91zM497 762c37 0 66 29 66 66s-29 67 -66 67s-66 -30 -66 -67s27 -66 66 -66z" />
    <glyph glyph-name="AE" unicode="&#xc6;" horiz-adv-x="1017" 
d="M45 0h-36l562 700h488l-5 -29h-426l-44 -280h353l-5 -29h-353l-52 -333h444l-5 -29h-475l34 213h-308zM587 676l-349 -435h291l69 435h-11z" />
    <glyph glyph-name="Ccedilla" unicode="&#xc7;" horiz-adv-x="693" 
d="M360 -124h-41l95 115c-85 9 -154 43 -206 104c-51 61 -77 136 -77 224c0 107 35 199 105 276c71 78 160 117 268 117c82 0 152 -21 210 -63l-5 -31c-57 43 -126 65 -206 65c-95 0 -175 -35 -241 -106c-66 -70 -99 -156 -99 -257c0 -85 27 -157 82 -216
c55 -58 125 -87 212 -87c80 0 151 22 213 67l-5 -36c-57 -40 -126 -60 -209 -60c-3 0 -9 1 -12 1z" />
    <glyph glyph-name="Egrave" unicode="&#xc8;" horiz-adv-x="638" 
d="M587 0h-478l111 700h460l-4 -29h-429l-44 -280h355l-4 -29h-356l-53 -333h446zM368 891h41l76 -126h-34z" />
    <glyph glyph-name="Eacute" unicode="&#xc9;" horiz-adv-x="638" 
d="M587 0h-478l111 700h460l-4 -29h-429l-44 -280h355l-4 -29h-356l-53 -333h446zM419 765l116 126h44l-122 -126h-38z" />
    <glyph glyph-name="Ecircumflex" unicode="&#xca;" horiz-adv-x="638" 
d="M587 0h-478l111 700h460l-4 -29h-429l-44 -280h355l-4 -29h-356l-53 -333h446zM508 891l84 -126h-33l-70 102l-103 -102h-37l125 126h34z" />
    <glyph glyph-name="Edieresis" unicode="&#xcb;" horiz-adv-x="638" 
d="M587 0h-478l111 700h460l-4 -29h-429l-44 -280h355l-4 -29h-356l-53 -333h446zM339 824c0 37 58 37 58 0c0 -38 -58 -38 -58 0zM553 795c-16 0 -29 12 -29 29c0 16 13 29 29 29c17 0 29 -13 29 -29c0 -17 -12 -29 -29 -29z" />
    <glyph glyph-name="Igrave" unicode="&#xcc;" horiz-adv-x="262" 
d="M147 0h-31l111 700h31zM149 891h41l76 -126h-34z" />
    <glyph glyph-name="Iacute" unicode="&#xcd;" horiz-adv-x="262" 
d="M147 0h-31l111 700h31zM232 765l116 126h44l-122 -126h-38z" />
    <glyph glyph-name="Icircumflex" unicode="&#xce;" horiz-adv-x="262" 
d="M292 891l84 -126h-33l-70 102l-103 -102h-37l125 126h34zM147 0h-31l111 700h31z" />
    <glyph glyph-name="Idieresis" unicode="&#xcf;" horiz-adv-x="262" 
d="M147 0h-31l111 700h31zM139 824c0 37 58 37 58 0c0 -38 -58 -38 -58 0zM353 795c-16 0 -29 12 -29 29c0 16 13 29 29 29c17 0 29 -13 29 -29c0 -17 -12 -29 -29 -29z" />
    <glyph glyph-name="Eth" unicode="&#xd0;" horiz-adv-x="817" 
d="M204 338h-118l4 29h119l53 333h191c103 0 186 -29 248 -86c63 -57 94 -131 94 -224c0 -117 -40 -211 -119 -283c-79 -71 -181 -107 -305 -107h-220zM187 29h190c111 1 203 34 276 99c73 66 110 153 110 262c0 85 -28 153 -85 204c-56 51 -134 77 -233 77h-156l-49 -304
h176l-4 -29h-176z" />
    <glyph glyph-name="Ntilde" unicode="&#xd1;" horiz-adv-x="774" 
d="M666 0h-30l-393 648l-103 -648h-31l110 700h30l393 -648l102 648h32zM584 780c-19 0 -42 11 -70 33s-49 33 -64 33c-25 0 -43 -20 -52 -60h-27c11 55 42 87 82 87c19 0 42 -11 71 -33c29 -21 50 -32 63 -32c25 0 43 20 53 60h27c-11 -55 -42 -88 -83 -88z" />
    <glyph glyph-name="Ograve" unicode="&#xd2;" horiz-adv-x="847" 
d="M502 712c96 0 174 -31 233 -94c60 -63 90 -141 90 -236c0 -107 -35 -200 -106 -278c-70 -77 -158 -116 -264 -116c-96 0 -174 31 -234 94s-90 142 -90 237c0 107 35 199 106 276c71 78 159 117 265 117zM455 17c93 0 173 35 239 106s99 157 99 258c0 86 -27 158 -81 215
c-54 58 -124 87 -210 87c-94 0 -174 -35 -240 -106s-99 -156 -99 -257c0 -86 27 -158 81 -216c55 -58 125 -87 211 -87zM444 891h41l76 -126h-34z" />
    <glyph glyph-name="Oacute" unicode="&#xd3;" horiz-adv-x="847" 
d="M502 712c96 0 174 -31 233 -94c60 -63 90 -141 90 -236c0 -107 -35 -200 -106 -278c-70 -77 -158 -116 -264 -116c-96 0 -174 31 -234 94s-90 142 -90 237c0 107 35 199 106 276c71 78 159 117 265 117zM455 17c93 0 173 35 239 106s99 157 99 258c0 86 -27 158 -81 215
c-54 58 -124 87 -210 87c-94 0 -174 -35 -240 -106s-99 -156 -99 -257c0 -86 27 -158 81 -216c55 -58 125 -87 211 -87zM504 765l116 126h44l-122 -126h-38z" />
    <glyph glyph-name="Ocircumflex" unicode="&#xd4;" horiz-adv-x="847" 
d="M582 891l84 -126h-33l-70 102l-103 -102h-37l125 126h34zM502 712c96 0 174 -31 233 -94c60 -63 90 -141 90 -236c0 -107 -35 -200 -106 -278c-70 -77 -158 -116 -264 -116c-96 0 -174 31 -234 94s-90 142 -90 237c0 107 35 199 106 276c71 78 159 117 265 117zM455 17
c93 0 173 35 239 106s99 157 99 258c0 86 -27 158 -81 215c-54 58 -124 87 -210 87c-94 0 -174 -35 -240 -106s-99 -156 -99 -257c0 -86 27 -158 81 -216c55 -58 125 -87 211 -87z" />
    <glyph glyph-name="Otilde" unicode="&#xd5;" horiz-adv-x="847" 
d="M502 712c96 0 174 -31 233 -94c60 -63 90 -141 90 -236c0 -107 -35 -200 -106 -278c-70 -77 -158 -116 -264 -116c-96 0 -174 31 -234 94s-90 142 -90 237c0 107 35 199 106 276c71 78 159 117 265 117zM455 17c93 0 173 35 239 106s99 157 99 258c0 86 -27 158 -81 215
c-54 58 -124 87 -210 87c-94 0 -174 -35 -240 -106s-99 -156 -99 -257c0 -86 27 -158 81 -216c55 -58 125 -87 211 -87zM617 780c-18 0 -41 11 -70 33s-50 33 -64 33c-25 0 -43 -20 -52 -60h-27c11 55 42 87 82 87c19 0 42 -11 71 -33c29 -21 50 -32 63 -32
c25 0 43 20 53 60h27c-11 -55 -42 -88 -83 -88z" />
    <glyph glyph-name="Odieresis" unicode="&#xd6;" horiz-adv-x="847" 
d="M502 712c96 0 174 -31 233 -94c60 -63 90 -141 90 -236c0 -107 -35 -200 -106 -278c-70 -77 -158 -116 -264 -116c-96 0 -174 31 -234 94s-90 142 -90 237c0 107 35 199 106 276c71 78 159 117 265 117zM455 17c93 0 173 35 239 106s99 157 99 258c0 86 -27 158 -81 215
c-54 58 -124 87 -210 87c-94 0 -174 -35 -240 -106s-99 -156 -99 -257c0 -86 27 -158 81 -216c55 -58 125 -87 211 -87zM426 824c0 37 58 37 58 0c0 -38 -58 -38 -58 0zM640 795c-16 0 -29 12 -29 29c0 16 13 29 29 29c17 0 29 -13 29 -29c0 -17 -12 -29 -29 -29z" />
    <glyph glyph-name="multiply" unicode="&#xd7;" horiz-adv-x="503" 
d="M304 342l189 164l19 -22l-189 -163l137 -161l-22 -20l-136 160l-189 -161l-19 21l188 162l-137 164l22 20z" />
    <glyph glyph-name="Oslash" unicode="&#xd8;" horiz-adv-x="847" 
d="M502 712c91 0 166 -29 226 -87l77 77h41l-98 -99c51 -61 77 -134 77 -221c0 -107 -35 -200 -106 -278c-70 -77 -158 -116 -264 -116c-91 0 -167 29 -227 87l-74 -75h-41l95 96c-51 62 -77 136 -77 223c0 107 35 199 106 276c71 78 159 117 265 117zM455 17
c93 0 173 35 239 106c67 71 100 157 100 258c0 77 -23 143 -68 199l-476 -482c53 -54 121 -81 205 -81zM163 320c0 -79 23 -146 68 -201l475 483c-55 54 -123 81 -204 81c-94 0 -174 -35 -240 -106s-99 -156 -99 -257z" />
    <glyph glyph-name="Ugrave" unicode="&#xd9;" horiz-adv-x="748" 
d="M664 293l64 407h32l-66 -417c-15 -95 -50 -168 -105 -219c-54 -51 -120 -76 -199 -76c-155 0 -252 90 -252 247c0 19 4 51 11 95l58 370h31l-59 -376c-6 -43 -9 -72 -9 -85c0 -137 77 -222 220 -222c145 0 246 103 274 276zM407 891h41l76 -126h-34z" />
    <glyph glyph-name="Uacute" unicode="&#xda;" horiz-adv-x="748" 
d="M664 293l64 407h32l-66 -417c-15 -95 -50 -168 -105 -219c-54 -51 -120 -76 -199 -76c-155 0 -252 90 -252 247c0 19 4 51 11 95l58 370h31l-59 -376c-6 -43 -9 -72 -9 -85c0 -137 77 -222 220 -222c145 0 246 103 274 276zM465 765l116 126h44l-122 -126h-38z" />
    <glyph glyph-name="Ucircumflex" unicode="&#xdb;" horiz-adv-x="748" 
d="M664 293l64 407h32l-66 -417c-15 -95 -50 -168 -105 -219c-54 -51 -120 -76 -199 -76c-155 0 -252 90 -252 247c0 19 4 51 11 95l58 370h31l-59 -376c-6 -43 -9 -72 -9 -85c0 -137 77 -222 220 -222c145 0 246 103 274 276zM532 891l84 -126h-33l-70 102l-103 -102h-37
l125 126h34z" />
    <glyph glyph-name="Udieresis" unicode="&#xdc;" horiz-adv-x="748" 
d="M664 293l64 407h32l-66 -417c-15 -95 -50 -168 -105 -219c-54 -51 -120 -76 -199 -76c-155 0 -252 90 -252 247c0 19 4 51 11 95l58 370h31l-59 -376c-6 -43 -9 -72 -9 -85c0 -137 77 -222 220 -222c145 0 246 103 274 276zM380 824c0 37 58 37 58 0c0 -38 -58 -38 -58 0
zM594 795c-16 0 -29 12 -29 29c0 16 13 29 29 29c17 0 29 -13 29 -29c0 -17 -12 -29 -29 -29z" />
    <glyph glyph-name="Yacute" unicode="&#xdd;" horiz-adv-x="635" 
d="M371 357l306 343h40l-332 -374l-51 -326h-32l51 326l-214 374h36zM406 765l116 126h44l-122 -126h-38z" />
    <glyph glyph-name="Thorn" unicode="&#xde;" horiz-adv-x="667" 
d="M225 534h247c123 0 194 -64 194 -163c0 -61 -22 -111 -67 -149c-44 -38 -99 -57 -166 -57h-266l-26 -165h-32l111 700h32zM172 194h263c55 1 101 16 140 46c39 31 59 73 59 128c0 87 -59 137 -166 137h-247z" />
    <glyph glyph-name="germandbls" unicode="&#xdf;" horiz-adv-x="607" 
d="M349 -12c-44 0 -80 7 -108 20l5 32c24 -15 59 -23 104 -23c55 0 102 18 142 53c41 35 61 81 61 138c0 96 -72 163 -195 170h-22l5 29h37c45 1 83 13 116 38s50 60 50 105c0 72 -57 127 -153 127c-95 0 -169 -64 -186 -167l-82 -510h-31l81 511c19 120 106 195 222 195
c55 0 99 -15 131 -45c33 -29 49 -65 49 -107c0 -81 -54 -145 -138 -164c43 -10 78 -31 106 -64c29 -32 43 -71 43 -116c0 -64 -23 -117 -68 -159s-102 -63 -169 -63z" />
    <glyph glyph-name="agrave" unicode="&#xe0;" horiz-adv-x="587" 
d="M167 414l6 33c43 25 101 38 173 38c105 0 180 -47 180 -144c0 -13 -1 -28 -4 -47l-29 -183c-3 -15 -4 -27 -4 -37c0 -33 17 -50 50 -50c9 0 17 1 23 4l-4 -26c-7 -3 -17 -5 -29 -5c-45 0 -71 31 -71 78c-59 -58 -129 -87 -209 -87c-51 0 -94 13 -127 39
c-33 27 -50 62 -50 106c0 53 21 93 62 120c41 28 90 42 145 42c75 0 142 -21 201 -62l9 53c4 26 6 43 6 52c0 77 -54 118 -155 118c-67 0 -124 -14 -173 -42zM461 115l15 89c-54 43 -119 64 -194 64c-48 0 -90 -12 -126 -35c-35 -23 -53 -55 -53 -97c0 -76 65 -119 156 -119
c81 0 155 45 202 98zM318 700h41l75 -126h-33z" />
    <glyph glyph-name="aacute" unicode="&#xe1;" horiz-adv-x="587" 
d="M167 414l6 33c43 25 101 38 173 38c105 0 180 -47 180 -144c0 -13 -1 -28 -4 -47l-29 -183c-3 -15 -4 -27 -4 -37c0 -33 17 -50 50 -50c9 0 17 1 23 4l-4 -26c-7 -3 -17 -5 -29 -5c-45 0 -71 31 -71 78c-59 -58 -129 -87 -209 -87c-51 0 -94 13 -127 39
c-33 27 -50 62 -50 106c0 53 21 93 62 120c41 28 90 42 145 42c75 0 142 -21 201 -62l9 53c4 26 6 43 6 52c0 77 -54 118 -155 118c-67 0 -124 -14 -173 -42zM461 115l15 89c-54 43 -119 64 -194 64c-48 0 -90 -12 -126 -35c-35 -23 -53 -55 -53 -97c0 -76 65 -119 156 -119
c81 0 155 45 202 98zM335 574l117 126h44l-122 -126h-39z" />
    <glyph glyph-name="acircumflex" unicode="&#xe2;" horiz-adv-x="587" 
d="M167 414l6 33c43 25 101 38 173 38c105 0 180 -47 180 -144c0 -13 -1 -28 -4 -47l-29 -183c-3 -15 -4 -27 -4 -37c0 -33 17 -50 50 -50c9 0 17 1 23 4l-4 -26c-7 -3 -17 -5 -29 -5c-45 0 -71 31 -71 78c-59 -58 -129 -87 -209 -87c-51 0 -94 13 -127 39
c-33 27 -50 62 -50 106c0 53 21 93 62 120c41 28 90 42 145 42c75 0 142 -21 201 -62l9 53c4 26 6 43 6 52c0 77 -54 118 -155 118c-67 0 -124 -14 -173 -42zM461 115l15 89c-54 43 -119 64 -194 64c-48 0 -90 -12 -126 -35c-35 -23 -53 -55 -53 -97c0 -76 65 -119 156 -119
c81 0 155 45 202 98zM409 700l84 -126h-33l-70 102l-102 -102h-38l126 126h33z" />
    <glyph glyph-name="atilde" unicode="&#xe3;" horiz-adv-x="587" 
d="M167 414l6 33c43 25 101 38 173 38c105 0 180 -47 180 -144c0 -13 -1 -28 -4 -47l-29 -183c-3 -15 -4 -27 -4 -37c0 -33 17 -50 50 -50c9 0 17 1 23 4l-4 -26c-7 -3 -17 -5 -29 -5c-45 0 -71 31 -71 78c-59 -58 -129 -87 -209 -87c-51 0 -94 13 -127 39
c-33 27 -50 62 -50 106c0 53 21 93 62 120c41 28 90 42 145 42c75 0 142 -21 201 -62l9 53c4 26 6 43 6 52c0 77 -54 118 -155 118c-67 0 -124 -14 -173 -42zM461 115l15 89c-54 43 -119 64 -194 64c-48 0 -90 -12 -126 -35c-35 -23 -53 -55 -53 -97c0 -76 65 -119 156 -119
c81 0 155 45 202 98zM452 598c-19 0 -42 11 -71 32c-28 22 -49 33 -63 33c-25 0 -43 -20 -53 -60h-27c11 56 42 88 83 88c19 0 42 -11 70 -33c29 -21 50 -32 63 -32c25 0 42 20 52 60h28c-11 -55 -42 -88 -82 -88z" />
    <glyph glyph-name="adieresis" unicode="&#xe4;" horiz-adv-x="587" 
d="M167 414l6 33c43 25 101 38 173 38c105 0 180 -47 180 -144c0 -13 -1 -28 -4 -47l-29 -183c-3 -15 -4 -27 -4 -37c0 -33 17 -50 50 -50c9 0 17 1 23 4l-4 -26c-7 -3 -17 -5 -29 -5c-45 0 -71 31 -71 78c-59 -58 -129 -87 -209 -87c-51 0 -94 13 -127 39
c-33 27 -50 62 -50 106c0 53 21 93 62 120c41 28 90 42 145 42c75 0 142 -21 201 -62l9 53c4 26 6 43 6 52c0 77 -54 118 -155 118c-67 0 -124 -14 -173 -42zM461 115l15 89c-54 43 -119 64 -194 64c-48 0 -90 -12 -126 -35c-35 -23 -53 -55 -53 -97c0 -76 65 -119 156 -119
c81 0 155 45 202 98zM292 674c38 0 38 -58 0 -58c-37 0 -37 58 0 58zM477 674c38 0 38 -58 0 -58c-37 0 -37 58 0 58z" />
    <glyph glyph-name="aring" unicode="&#xe5;" horiz-adv-x="587" 
d="M167 414l6 33c43 25 101 38 173 38c105 0 180 -47 180 -144c0 -13 -1 -28 -4 -47l-29 -183c-3 -15 -4 -27 -4 -37c0 -33 17 -50 50 -50c9 0 17 1 23 4l-4 -26c-7 -3 -17 -5 -29 -5c-45 0 -71 31 -71 78c-59 -58 -129 -87 -209 -87c-51 0 -94 13 -127 39
c-33 27 -50 62 -50 106c0 53 21 93 62 120c41 28 90 42 145 42c75 0 142 -21 201 -62l9 53c4 26 6 43 6 52c0 77 -54 118 -155 118c-67 0 -124 -14 -173 -42zM461 115l15 89c-54 43 -119 64 -194 64c-48 0 -90 -12 -126 -35c-35 -23 -53 -55 -53 -97c0 -76 65 -119 156 -119
c81 0 155 45 202 98zM323 684c36 36 92 36 127 0c36 -35 36 -91 0 -127c-35 -36 -91 -36 -127 0s-36 92 0 127zM387 556c37 0 66 28 66 65s-29 66 -66 66c-36 0 -65 -29 -65 -66s29 -65 65 -65z" />
    <glyph glyph-name="ae" unicode="&#xe6;" horiz-adv-x="955" 
d="M936 238h-423c-1 -5 -1 -13 -1 -24c0 -59 20 -106 60 -143c41 -36 91 -54 152 -54c50 0 99 14 146 43l-5 -34c-39 -25 -87 -38 -144 -38c-93 0 -173 43 -213 115c-23 -27 -57 -53 -104 -78c-46 -25 -97 -37 -153 -37c-105 0 -179 57 -179 145c0 53 21 93 62 120
c41 28 90 42 145 42c75 0 142 -21 201 -62l9 53c4 26 6 43 6 52c0 77 -54 118 -155 118c-67 0 -124 -14 -173 -42l6 33c43 25 101 38 173 38c95 0 166 -40 177 -120c45 72 122 120 214 120c66 0 116 -21 150 -64c34 -42 51 -90 51 -143c0 -11 -1 -24 -2 -40zM497 129
c-10 24 -15 48 -16 72c-59 45 -126 67 -199 67c-48 0 -90 -12 -126 -35c-35 -23 -53 -55 -53 -97c0 -76 66 -119 157 -119c97 0 182 49 237 112zM735 456c-56 0 -104 -18 -144 -55s-65 -82 -75 -137h390c1 4 1 10 1 18c0 45 -14 86 -43 121s-72 53 -129 53z" />
    <glyph glyph-name="ccedilla" unicode="&#xe7;" horiz-adv-x="513" 
d="M244 -124h-41l94 114c-65 5 -115 29 -152 72c-36 43 -54 94 -54 152c0 77 26 142 77 193c52 52 116 78 191 78c62 0 114 -15 157 -44l-6 -30c-42 30 -91 45 -147 45c-68 0 -125 -23 -171 -70c-46 -46 -69 -103 -69 -170c0 -57 19 -105 56 -143c37 -37 87 -56 150 -56
c49 0 97 13 142 40l-5 -34c-39 -22 -85 -34 -138 -35z" />
    <glyph glyph-name="egrave" unicode="&#xe8;" horiz-adv-x="565" 
d="M333 17c50 0 99 14 147 43l-6 -33c-39 -26 -87 -39 -144 -39c-68 0 -125 21 -171 63c-45 42 -68 96 -68 163c0 73 24 136 71 190c48 54 110 81 185 81c66 0 116 -21 150 -64c34 -42 51 -90 51 -143c0 -11 -1 -24 -2 -40h-423c-1 -5 -1 -14 -1 -25c0 -58 20 -105 60 -142
c41 -36 91 -54 151 -54zM344 456c-55 0 -103 -18 -143 -55s-65 -82 -75 -137h390c1 5 1 11 1 18c0 45 -15 86 -44 121s-72 53 -129 53zM293 700h41l75 -126h-33z" />
    <glyph glyph-name="eacute" unicode="&#xe9;" horiz-adv-x="565" 
d="M333 17c50 0 99 14 147 43l-6 -33c-39 -26 -87 -39 -144 -39c-68 0 -125 21 -171 63c-45 42 -68 96 -68 163c0 73 24 136 71 190c48 54 110 81 185 81c66 0 116 -21 150 -64c34 -42 51 -90 51 -143c0 -11 -1 -24 -2 -40h-423c-1 -5 -1 -14 -1 -25c0 -58 20 -105 60 -142
c41 -36 91 -54 151 -54zM344 456c-55 0 -103 -18 -143 -55s-65 -82 -75 -137h390c1 5 1 11 1 18c0 45 -15 86 -44 121s-72 53 -129 53zM334 574l117 126h44l-122 -126h-39z" />
    <glyph glyph-name="ecircumflex" unicode="&#xea;" horiz-adv-x="565" 
d="M333 17c50 0 99 14 147 43l-6 -33c-39 -26 -87 -39 -144 -39c-68 0 -125 21 -171 63c-45 42 -68 96 -68 163c0 73 24 136 71 190c48 54 110 81 185 81c66 0 116 -21 150 -64c34 -42 51 -90 51 -143c0 -11 -1 -24 -2 -40h-423c-1 -5 -1 -14 -1 -25c0 -58 20 -105 60 -142
c41 -36 91 -54 151 -54zM344 456c-55 0 -103 -18 -143 -55s-65 -82 -75 -137h390c1 5 1 11 1 18c0 45 -15 86 -44 121s-72 53 -129 53zM413 700l84 -126h-33l-70 102l-102 -102h-38l126 126h33z" />
    <glyph glyph-name="edieresis" unicode="&#xeb;" horiz-adv-x="565" 
d="M333 17c50 0 99 14 147 43l-6 -33c-39 -26 -87 -39 -144 -39c-68 0 -125 21 -171 63c-45 42 -68 96 -68 163c0 73 24 136 71 190c48 54 110 81 185 81c66 0 116 -21 150 -64c34 -42 51 -90 51 -143c0 -11 -1 -24 -2 -40h-423c-1 -5 -1 -14 -1 -25c0 -58 20 -105 60 -142
c41 -36 91 -54 151 -54zM344 456c-55 0 -103 -18 -143 -55s-65 -82 -75 -137h390c1 5 1 11 1 18c0 45 -15 86 -44 121s-72 53 -129 53zM294 674c38 0 38 -58 0 -58c-37 0 -37 58 0 58zM479 674c38 0 38 -58 0 -58c-37 0 -37 58 0 58z" />
    <glyph glyph-name="igrave" unicode="&#xec;" horiz-adv-x="243" 
d="M137 0h-31l75 473h31zM112 700h41l75 -126h-33z" />
    <glyph glyph-name="iacute" unicode="&#xed;" horiz-adv-x="243" 
d="M137 0h-31l75 473h31zM194 574l117 126h44l-122 -126h-39z" />
    <glyph glyph-name="icircumflex" unicode="&#xee;" horiz-adv-x="243" 
d="M245 700l84 -126h-33l-70 102l-102 -102h-38l126 126h33zM137 0h-31l75 473h31z" />
    <glyph glyph-name="idieresis" unicode="&#xef;" horiz-adv-x="243" 
d="M131 674c38 0 38 -58 0 -58c-37 0 -37 58 0 58zM316 674c38 0 38 -58 0 -58c-37 0 -37 58 0 58zM137 0h-31l75 473h31z" />
    <glyph glyph-name="eth" unicode="&#xf0;" horiz-adv-x="589" 
d="M507 678l-133 -53l147 -244c30 -49 45 -96 45 -140c0 -69 -24 -129 -73 -179c-48 -49 -108 -74 -179 -74c-68 0 -122 21 -163 64c-40 43 -60 95 -60 156c0 69 24 129 72 178c49 49 109 74 180 74c45 0 85 -11 118 -32l-113 187l-150 -59l-13 23l149 59l-38 62h34l30 -51
l134 52zM315 17c61 0 113 22 156 65c43 44 64 97 64 160c0 54 -18 99 -54 135c-35 36 -82 54 -139 54c-61 0 -113 -22 -156 -66c-43 -43 -64 -96 -64 -158c0 -55 18 -100 53 -136c36 -36 83 -54 140 -54z" />
    <glyph glyph-name="ntilde" unicode="&#xf1;" horiz-adv-x="598" 
d="M552 238l-37 -238h-31l38 239c7 39 10 68 10 87c0 85 -54 130 -142 130c-84 0 -165 -53 -213 -113l-54 -343h-31l75 473h31l-14 -85c63 65 135 97 214 97c101 0 165 -58 165 -155c0 -17 -4 -48 -11 -92zM478 598c-19 0 -42 11 -71 32c-28 22 -49 33 -63 33
c-25 0 -43 -20 -53 -60h-27c11 56 42 88 83 88c19 0 42 -11 70 -33c29 -21 50 -32 63 -32c25 0 42 20 52 60h28c-11 -55 -42 -88 -82 -88z" />
    <glyph glyph-name="ograve" unicode="&#xf2;" horiz-adv-x="613" 
d="M355 485c71 0 127 -23 170 -68s65 -99 65 -163c0 -73 -25 -136 -76 -188s-113 -78 -188 -78c-71 0 -128 23 -171 68s-64 100 -64 163c0 73 25 136 76 188s113 78 188 78zM326 17c64 0 119 23 164 70c46 47 69 103 69 168c0 57 -19 105 -57 143c-38 39 -87 58 -148 58
c-63 0 -118 -23 -164 -70c-45 -47 -68 -103 -68 -168c0 -57 19 -105 56 -144c38 -38 87 -57 148 -57zM308 700h41l75 -126h-33z" />
    <glyph glyph-name="oacute" unicode="&#xf3;" horiz-adv-x="613" 
d="M355 485c71 0 127 -23 170 -68s65 -99 65 -163c0 -73 -25 -136 -76 -188s-113 -78 -188 -78c-71 0 -128 23 -171 68s-64 100 -64 163c0 73 25 136 76 188s113 78 188 78zM326 17c64 0 119 23 164 70c46 47 69 103 69 168c0 57 -19 105 -57 143c-38 39 -87 58 -148 58
c-63 0 -118 -23 -164 -70c-45 -47 -68 -103 -68 -168c0 -57 19 -105 56 -144c38 -38 87 -57 148 -57zM359 574l117 126h44l-122 -126h-39z" />
    <glyph glyph-name="ocircumflex" unicode="&#xf4;" horiz-adv-x="613" 
d="M431 700l84 -126h-33l-70 102l-102 -102h-38l126 126h33zM355 485c71 0 127 -23 170 -68s65 -99 65 -163c0 -73 -25 -136 -76 -188s-113 -78 -188 -78c-71 0 -128 23 -171 68s-64 100 -64 163c0 73 25 136 76 188s113 78 188 78zM326 17c64 0 119 23 164 70
c46 47 69 103 69 168c0 57 -19 105 -57 143c-38 39 -87 58 -148 58c-63 0 -118 -23 -164 -70c-45 -47 -68 -103 -68 -168c0 -57 19 -105 56 -144c38 -38 87 -57 148 -57z" />
    <glyph glyph-name="otilde" unicode="&#xf5;" horiz-adv-x="613" 
d="M355 485c71 0 127 -23 170 -68s65 -99 65 -163c0 -73 -25 -136 -76 -188s-113 -78 -188 -78c-71 0 -128 23 -171 68s-64 100 -64 163c0 73 25 136 76 188s113 78 188 78zM326 17c64 0 119 23 164 70c46 47 69 103 69 168c0 57 -19 105 -57 143c-38 39 -87 58 -148 58
c-63 0 -118 -23 -164 -70c-45 -47 -68 -103 -68 -168c0 -57 19 -105 56 -144c38 -38 87 -57 148 -57zM475 598c-19 0 -42 11 -71 32c-28 22 -49 33 -63 33c-25 0 -43 -20 -53 -60h-27c11 56 42 88 83 88c19 0 42 -11 70 -33c29 -21 50 -32 63 -32c25 0 42 20 52 60h28
c-11 -55 -42 -88 -82 -88z" />
    <glyph glyph-name="odieresis" unicode="&#xf6;" horiz-adv-x="613" 
d="M355 485c71 0 127 -23 170 -68s65 -99 65 -163c0 -73 -25 -136 -76 -188s-113 -78 -188 -78c-71 0 -128 23 -171 68s-64 100 -64 163c0 73 25 136 76 188s113 78 188 78zM326 17c64 0 119 23 164 70c46 47 69 103 69 168c0 57 -19 105 -57 143c-38 39 -87 58 -148 58
c-63 0 -118 -23 -164 -70c-45 -47 -68 -103 -68 -168c0 -57 19 -105 56 -144c38 -38 87 -57 148 -57zM314 674c38 0 38 -58 0 -58c-37 0 -37 58 0 58zM499 674c38 0 38 -58 0 -58c-37 0 -37 58 0 58z" />
    <glyph glyph-name="divide" unicode="&#xf7;" horiz-adv-x="565" 
d="M115 306l4 29h429l-5 -29h-428zM263 131c0 20 14 35 34 35c21 0 35 -15 35 -35c0 -21 -14 -36 -35 -36c-20 0 -34 15 -34 36zM334 486c-12 13 -12 37 0 50c13 13 39 13 51 0c13 -13 13 -37 0 -50c-12 -13 -38 -13 -51 0z" />
    <glyph glyph-name="oslash" unicode="&#xf8;" horiz-adv-x="613" 
d="M355 485c63 0 116 -19 159 -57l45 46h38l-64 -65c38 -43 57 -95 57 -155c0 -73 -25 -136 -76 -188s-113 -78 -188 -78c-62 0 -114 18 -156 53l-40 -41h-39l59 60c-39 43 -59 96 -59 159c0 73 25 136 76 188s113 78 188 78zM122 218c0 -55 16 -100 49 -137l322 326
c-38 33 -84 49 -139 49c-63 0 -118 -23 -164 -70c-45 -47 -68 -103 -68 -168zM326 17c64 0 119 23 164 70c46 47 69 103 69 168c0 51 -16 95 -47 132l-321 -325c37 -30 82 -45 135 -45z" />
    <glyph glyph-name="ugrave" unicode="&#xf9;" horiz-adv-x="598" 
d="M121 235l37 238h31l-38 -239c-7 -39 -10 -68 -10 -87c0 -85 54 -130 142 -130c84 0 165 53 213 113l54 343h31l-75 -473h-31l14 85c-63 -65 -135 -97 -214 -97c-101 0 -165 58 -165 155c0 17 4 48 11 92zM312 700h41l75 -126h-33z" />
    <glyph glyph-name="uacute" unicode="&#xfa;" horiz-adv-x="598" 
d="M121 235l37 238h31l-38 -239c-7 -39 -10 -68 -10 -87c0 -85 54 -130 142 -130c84 0 165 53 213 113l54 343h31l-75 -473h-31l14 85c-63 -65 -135 -97 -214 -97c-101 0 -165 58 -165 155c0 17 4 48 11 92zM337 574l117 126h44l-122 -126h-39z" />
    <glyph glyph-name="ucircumflex" unicode="&#xfb;" horiz-adv-x="598" 
d="M121 235l37 238h31l-38 -239c-7 -39 -10 -68 -10 -87c0 -85 54 -130 142 -130c84 0 165 53 213 113l54 343h31l-75 -473h-31l14 85c-63 -65 -135 -97 -214 -97c-101 0 -165 58 -165 155c0 17 4 48 11 92zM421 700l84 -126h-33l-70 102l-102 -102h-38l126 126h33z" />
    <glyph glyph-name="udieresis" unicode="&#xfc;" horiz-adv-x="598" 
d="M121 235l37 238h31l-38 -239c-7 -39 -10 -68 -10 -87c0 -85 54 -130 142 -130c84 0 165 53 213 113l54 343h31l-75 -473h-31l14 85c-63 -65 -135 -97 -214 -97c-101 0 -165 58 -165 155c0 17 4 48 11 92zM297 674c38 0 38 -58 0 -58c-37 0 -37 58 0 58zM482 674
c38 0 38 -58 0 -58c-37 0 -37 58 0 58z" />
    <glyph glyph-name="yacute" unicode="&#xfd;" horiz-adv-x="530" 
d="M524 473h36l-312 -529c-57 -97 -111 -147 -182 -147c-24 0 -44 5 -61 15l6 31c17 -11 36 -17 57 -17c33 0 63 15 89 44c27 29 61 79 102 149l-157 454h33l144 -417zM305 574l117 126h44l-122 -126h-39z" />
    <glyph glyph-name="thorn" unicode="&#xfe;" horiz-adv-x="632" 
d="M138 95l-47 -295h-31l143 900h31l-48 -305c53 60 119 90 197 90c69 0 124 -22 165 -66c41 -43 61 -97 61 -161c0 -75 -25 -138 -75 -191s-113 -79 -188 -79c-93 0 -168 47 -208 107zM377 456c-77 0 -159 -47 -200 -111l-32 -213c15 -31 41 -58 77 -81s77 -34 122 -34
c64 0 119 23 164 70c46 47 69 103 69 170c0 57 -18 105 -55 142c-37 38 -85 57 -145 57z" />
    <glyph glyph-name="ydieresis" unicode="&#xff;" horiz-adv-x="530" 
d="M524 473h36l-312 -529c-57 -97 -111 -147 -182 -147c-24 0 -44 5 -61 15l6 31c17 -11 36 -17 57 -17c33 0 63 15 89 44c27 29 61 79 102 149l-157 454h33l144 -417zM254 674c38 0 38 -58 0 -58c-37 0 -37 58 0 58zM439 674c38 0 38 -58 0 -58c-37 0 -37 58 0 58z" />
    <glyph glyph-name="Amacron" unicode="&#x100;" horiz-adv-x="739" 
d="M704 0h-34l-63 213h-406l-130 -213h-35l430 705h29zM599 241l-124 421l-257 -421h381zM611 814h-219l3 27h219z" />
    <glyph glyph-name="amacron" unicode="&#x101;" horiz-adv-x="587" 
d="M167 414l6 33c43 25 101 38 173 38c105 0 180 -47 180 -144c0 -13 -1 -28 -4 -47l-29 -183c-3 -15 -4 -27 -4 -37c0 -33 17 -50 50 -50c9 0 17 1 23 4l-4 -26c-7 -3 -17 -5 -29 -5c-45 0 -71 31 -71 78c-59 -58 -129 -87 -209 -87c-51 0 -94 13 -127 39
c-33 27 -50 62 -50 106c0 53 21 93 62 120c41 28 90 42 145 42c75 0 142 -21 201 -62l9 53c4 26 6 43 6 52c0 77 -54 118 -155 118c-67 0 -124 -14 -173 -42zM461 115l15 89c-54 43 -119 64 -194 64c-48 0 -90 -12 -126 -35c-35 -23 -53 -55 -53 -97c0 -76 65 -119 156 -119
c81 0 155 45 202 98zM501 629h-219l4 27h219z" />
    <glyph glyph-name="Abreve" unicode="&#x102;" horiz-adv-x="739" 
d="M704 0h-34l-63 213h-406l-130 -213h-35l430 705h29zM599 241l-124 421l-257 -421h381zM600 888h29c-11 -69 -65 -121 -134 -121c-63 0 -110 43 -110 102c0 8 0 14 1 19h30c-1 -4 -1 -9 -1 -16c0 -45 32 -79 81 -79c52 0 93 40 104 95z" />
    <glyph glyph-name="abreve" unicode="&#x103;" horiz-adv-x="587" 
d="M167 414l6 33c43 25 101 38 173 38c105 0 180 -47 180 -144c0 -13 -1 -28 -4 -47l-29 -183c-3 -15 -4 -27 -4 -37c0 -33 17 -50 50 -50c9 0 17 1 23 4l-4 -26c-7 -3 -17 -5 -29 -5c-45 0 -71 31 -71 78c-59 -58 -129 -87 -209 -87c-51 0 -94 13 -127 39
c-33 27 -50 62 -50 106c0 53 21 93 62 120c41 28 90 42 145 42c75 0 142 -21 201 -62l9 53c4 26 6 43 6 52c0 77 -54 118 -155 118c-67 0 -124 -14 -173 -42zM461 115l15 89c-54 43 -119 64 -194 64c-48 0 -90 -12 -126 -35c-35 -23 -53 -55 -53 -97c0 -76 65 -119 156 -119
c81 0 155 45 202 98zM491 695h30c-11 -69 -66 -121 -135 -121c-63 0 -109 43 -109 103c0 8 0 14 1 18h29c-1 -3 -1 -8 -1 -15c0 -47 32 -79 81 -79c53 0 93 39 104 94z" />
    <glyph glyph-name="Aogonek" unicode="&#x104;" horiz-adv-x="739" 
d="M670 0l-63 213h-406l-130 -213h-35l430 705h29l209 -705c-37 -35 -55 -70 -55 -104c0 -37 27 -61 70 -61c13 0 26 2 41 6l-4 -25c-13 -5 -28 -7 -47 -7c-55 0 -88 34 -88 81c0 41 16 77 49 110zM599 241l-124 421l-257 -421h381z" />
    <glyph glyph-name="aogonek" unicode="&#x105;" horiz-adv-x="585" 
d="M167 414l6 33c43 25 101 38 173 38c105 0 180 -47 180 -144c0 -13 -1 -28 -4 -47l-29 -183c-3 -15 -4 -27 -4 -37c0 -33 17 -50 50 -50c9 0 17 1 23 4l-4 -26c-37 -35 -55 -70 -55 -104c0 -37 27 -61 70 -61c13 0 26 2 41 6l-4 -25c-13 -5 -28 -7 -47 -7
c-55 0 -88 34 -88 81c0 39 16 74 47 105c-40 3 -64 33 -64 78c-59 -58 -129 -87 -209 -87c-51 0 -94 13 -127 39c-33 27 -50 62 -50 106c0 53 21 93 62 120c41 28 90 42 145 42c75 0 142 -21 201 -62l9 53c4 26 6 43 6 52c0 77 -54 118 -155 118c-67 0 -124 -14 -173 -42z
M461 115l15 89c-54 43 -119 64 -194 64c-48 0 -90 -12 -126 -35c-35 -23 -53 -55 -53 -97c0 -76 65 -119 156 -119c81 0 155 45 202 98z" />
    <glyph glyph-name="Cacute" unicode="&#x106;" horiz-adv-x="693" 
d="M163 320c0 -85 27 -157 82 -216c55 -58 125 -87 212 -87c80 0 151 22 213 67l-5 -36c-57 -40 -126 -60 -209 -60c-97 0 -175 31 -235 94s-90 142 -90 237c0 107 35 199 105 276c71 78 160 117 268 117c82 0 152 -21 210 -63l-5 -31c-57 43 -126 65 -206 65
c-95 0 -175 -35 -241 -106c-66 -70 -99 -156 -99 -257zM497 765l116 126h44l-122 -126h-38z" />
    <glyph glyph-name="cacute" unicode="&#x107;" horiz-adv-x="516" 
d="M516 441l-6 -30c-42 30 -91 45 -147 45c-68 0 -125 -23 -172 -70c-46 -46 -69 -103 -69 -170c0 -57 19 -104 56 -142c38 -38 88 -57 151 -57c49 0 97 13 142 40l-5 -34c-43 -23 -90 -35 -142 -35c-73 0 -130 22 -171 66c-41 45 -62 98 -62 160c0 77 26 142 77 193
c52 52 116 78 191 78c62 0 114 -15 157 -44zM341 574l117 126h44l-122 -126h-39z" />
    <glyph glyph-name="Ccircumflex" unicode="&#x108;" horiz-adv-x="693" 
d="M571 891l84 -126h-33l-70 102l-103 -102h-37l125 126h34zM163 320c0 -85 27 -157 82 -216c55 -58 125 -87 212 -87c80 0 151 22 213 67l-5 -36c-57 -40 -126 -60 -209 -60c-97 0 -175 31 -235 94s-90 142 -90 237c0 107 35 199 105 276c71 78 160 117 268 117
c82 0 152 -21 210 -63l-5 -31c-57 43 -126 65 -206 65c-95 0 -175 -35 -241 -106c-66 -70 -99 -156 -99 -257z" />
    <glyph glyph-name="ccircumflex" unicode="&#x109;" horiz-adv-x="516" 
d="M407 700l84 -126h-33l-70 102l-102 -102h-38l126 126h33zM516 441l-6 -30c-42 30 -91 45 -147 45c-68 0 -125 -23 -172 -70c-46 -46 -69 -103 -69 -170c0 -57 19 -104 56 -142c38 -38 88 -57 151 -57c49 0 97 13 142 40l-5 -34c-43 -23 -90 -35 -142 -35
c-73 0 -130 22 -171 66c-41 45 -62 98 -62 160c0 77 26 142 77 193c52 52 116 78 191 78c62 0 114 -15 157 -44z" />
    <glyph glyph-name="Cdotaccent" unicode="&#x10a;" horiz-adv-x="693" 
d="M163 320c0 -85 27 -157 82 -216c55 -58 125 -87 212 -87c80 0 151 22 213 67l-5 -36c-57 -40 -126 -60 -209 -60c-97 0 -175 31 -235 94s-90 142 -90 237c0 107 35 199 105 276c71 78 160 117 268 117c82 0 152 -21 210 -63l-5 -31c-57 43 -126 65 -206 65
c-95 0 -175 -35 -241 -106c-66 -70 -99 -156 -99 -257zM564 801c-28 -28 -72 16 -44 44s72 -16 44 -44z" />
    <glyph glyph-name="cdotaccent" unicode="&#x10b;" horiz-adv-x="513" 
d="M516 441l-6 -30c-42 30 -91 45 -147 45c-68 0 -125 -23 -172 -70c-46 -46 -69 -103 -69 -170c0 -57 19 -104 56 -142c38 -38 88 -57 151 -57c49 0 97 13 142 40l-5 -34c-43 -23 -90 -35 -142 -35c-73 0 -130 22 -171 66c-41 45 -62 98 -62 160c0 77 26 142 77 193
c52 52 116 78 191 78c62 0 114 -15 157 -44zM415 623c-28 -28 -72 16 -44 44s72 -16 44 -44z" />
    <glyph glyph-name="Ccaron" unicode="&#x10c;" horiz-adv-x="693" 
d="M520 765l-84 126h33l70 -102l103 102h37l-125 -126h-34zM163 320c0 -85 27 -157 82 -216c55 -58 125 -87 212 -87c80 0 151 22 213 67l-5 -36c-57 -40 -126 -60 -209 -60c-97 0 -175 31 -235 94s-90 142 -90 237c0 107 35 199 105 276c71 78 160 117 268 117
c82 0 152 -21 210 -63l-5 -31c-57 43 -126 65 -206 65c-95 0 -175 -35 -241 -106c-66 -70 -99 -156 -99 -257z" />
    <glyph glyph-name="ccaron" unicode="&#x10d;" horiz-adv-x="516" 
d="M367 574l-85 126h33l70 -102l103 102h38l-126 -126h-33zM516 441l-6 -30c-42 30 -91 45 -147 45c-68 0 -125 -23 -172 -70c-46 -46 -69 -103 -69 -170c0 -57 19 -104 56 -142c38 -38 88 -57 151 -57c49 0 97 13 142 40l-5 -34c-43 -23 -90 -35 -142 -35
c-73 0 -130 22 -171 66c-41 45 -62 98 -62 160c0 77 26 142 77 193c52 52 116 78 191 78c62 0 114 -15 157 -44z" />
    <glyph glyph-name="Dcaron" unicode="&#x10e;" horiz-adv-x="775" 
d="M220 700h191c103 0 186 -29 248 -86c63 -57 94 -131 94 -224c0 -117 -40 -211 -119 -283c-79 -71 -181 -107 -305 -107h-220zM145 29h190c111 1 203 34 276 99c73 66 110 153 110 262c0 85 -28 153 -85 204c-56 51 -134 77 -233 77h-156zM440 765l-84 126h33l70 -102
l103 102h37l-125 -126h-34z" />
    <glyph glyph-name="dcaron" unicode="&#x10f;" horiz-adv-x="708" 
d="M562 378l51 322h31l-111 -700h-31l13 78c-54 -60 -120 -90 -198 -90c-69 0 -124 22 -165 65c-41 44 -61 98 -61 162c0 75 25 138 75 191s113 79 188 79c93 0 168 -48 208 -107zM323 17c39 0 77 10 114 31s66 48 86 80l31 212c-15 31 -40 58 -76 81s-77 35 -123 35
c-63 0 -118 -23 -164 -70s-69 -103 -69 -170c0 -57 18 -105 55 -143c37 -37 85 -56 146 -56zM815 699l-84 -162h-31l81 162h34z" />
    <glyph glyph-name="Dcroat" unicode="&#x110;" horiz-adv-x="817" 
d="M204 338h-118l4 29h119l53 333h191c103 0 186 -29 248 -86c63 -57 94 -131 94 -224c0 -117 -40 -211 -119 -283c-79 -71 -181 -107 -305 -107h-220zM187 29h190c111 1 203 34 276 99c73 66 110 153 110 262c0 85 -28 153 -85 204c-56 51 -134 77 -233 77h-156l-49 -304
h176l-4 -29h-176z" />
    <glyph glyph-name="dslash" unicode="&#x111;" horiz-adv-x="625" 
d="M595 588l18 112h31l-18 -112h103l-5 -29h-103l-88 -559h-31l13 78c-54 -60 -120 -90 -198 -90c-69 0 -124 22 -165 65c-41 44 -61 98 -61 162c0 75 25 138 75 191s113 79 188 79c93 0 168 -48 208 -107l28 181h-124l5 29h124zM323 17c39 0 77 10 114 31s66 48 86 80
l31 212c-15 31 -40 58 -76 81s-77 35 -123 35c-63 0 -118 -23 -164 -70c-45 -47 -68 -103 -68 -170c0 -57 18 -105 55 -143c37 -37 85 -56 145 -56z" />
    <glyph glyph-name="Emacron" unicode="&#x112;" horiz-adv-x="638" 
d="M587 0h-478l111 700h460l-4 -29h-429l-44 -280h355l-4 -29h-356l-53 -333h446zM578 814h-219l3 27h219z" />
    <glyph glyph-name="emacron" unicode="&#x113;" horiz-adv-x="565" 
d="M333 17c50 0 99 14 147 43l-6 -33c-39 -26 -87 -39 -144 -39c-68 0 -125 21 -171 63c-45 42 -68 96 -68 163c0 73 24 136 71 190c48 54 110 81 185 81c66 0 116 -21 150 -64c34 -42 51 -90 51 -143c0 -11 -1 -24 -2 -40h-423c-1 -5 -1 -14 -1 -25c0 -58 20 -105 60 -142
c41 -36 91 -54 151 -54zM344 456c-55 0 -103 -18 -143 -55s-65 -82 -75 -137h390c1 5 1 11 1 18c0 45 -15 86 -44 121s-72 53 -129 53zM500 629h-219l4 27h219z" />
    <glyph glyph-name="Ebreve" unicode="&#x114;" horiz-adv-x="638" 
d="M587 0h-478l111 700h460l-4 -29h-429l-44 -280h355l-4 -29h-356l-53 -333h446zM562 888h29c-11 -69 -65 -121 -134 -121c-63 0 -110 43 -110 102c0 8 0 14 1 19h30c-1 -4 -1 -9 -1 -16c0 -45 32 -79 81 -79c52 0 93 40 104 95z" />
    <glyph glyph-name="ebreve" unicode="&#x115;" horiz-adv-x="565" 
d="M333 17c50 0 99 14 147 43l-6 -33c-39 -26 -87 -39 -144 -39c-68 0 -125 21 -171 63c-45 42 -68 96 -68 163c0 73 24 136 71 190c48 54 110 81 185 81c66 0 116 -21 150 -64c34 -42 51 -90 51 -143c0 -11 -1 -24 -2 -40h-423c-1 -5 -1 -14 -1 -25c0 -58 20 -105 60 -142
c41 -36 91 -54 151 -54zM344 456c-55 0 -103 -18 -143 -55s-65 -82 -75 -137h390c1 5 1 11 1 18c0 45 -15 86 -44 121s-72 53 -129 53zM486 695h30c-11 -69 -66 -121 -135 -121c-63 0 -109 43 -109 103c0 8 0 14 1 18h29c-1 -3 -1 -8 -1 -15c0 -47 32 -79 81 -79
c53 0 93 39 104 94z" />
    <glyph glyph-name="Edotaccent" unicode="&#x116;" horiz-adv-x="638" 
d="M587 0h-478l111 700h460l-4 -29h-429l-44 -280h355l-4 -29h-356l-53 -333h446zM490 801c-28 -28 -72 16 -44 44s72 -16 44 -44z" />
    <glyph glyph-name="edotaccent" unicode="&#x117;" horiz-adv-x="565" 
d="M333 17c50 0 99 14 147 43l-6 -33c-39 -26 -87 -39 -144 -39c-68 0 -125 21 -171 63c-45 42 -68 96 -68 163c0 73 24 136 71 190c48 54 110 81 185 81c66 0 116 -21 150 -64c34 -42 51 -90 51 -143c0 -11 -1 -24 -2 -40h-423c-1 -5 -1 -14 -1 -25c0 -58 20 -105 60 -142
c41 -36 91 -54 151 -54zM344 456c-55 0 -103 -18 -143 -55s-65 -82 -75 -137h390c1 5 1 11 1 18c0 45 -15 86 -44 121s-72 53 -129 53zM414 623c-28 -28 -72 16 -44 44s72 -16 44 -44z" />
    <glyph glyph-name="Eogonek" unicode="&#x118;" horiz-adv-x="638" 
d="M556 0h-447l111 700h460l-4 -29h-429l-44 -280h355l-4 -29h-356l-53 -333h446l-4 -29c-37 -35 -55 -70 -55 -104c0 -37 27 -61 70 -61c12 0 26 2 41 6l-4 -25c-13 -5 -28 -7 -47 -7c-55 0 -88 34 -88 81c0 41 17 77 52 110z" />
    <glyph glyph-name="eogonek" unicode="&#x119;" horiz-adv-x="565" 
d="M333 17c50 0 99 14 147 43l-6 -33c-37 -35 -55 -70 -55 -104c0 -37 27 -61 70 -61c13 0 26 2 41 6l-4 -25c-13 -5 -28 -7 -47 -7c-55 0 -88 34 -88 81c0 29 10 57 29 84c-27 -9 -57 -13 -90 -13c-68 0 -125 21 -171 63c-45 42 -68 96 -68 163c0 73 24 136 71 190
c48 54 110 81 185 81c66 0 116 -21 150 -64c34 -42 51 -90 51 -143c0 -11 -1 -24 -2 -40h-423c-1 -5 -1 -14 -1 -25c0 -58 20 -105 60 -142c41 -36 91 -54 151 -54zM344 456c-55 0 -103 -18 -143 -55s-65 -82 -75 -137h390c1 5 1 11 1 18c0 45 -15 86 -44 121
s-72 53 -129 53z" />
    <glyph glyph-name="Ecaron" unicode="&#x11a;" horiz-adv-x="638" 
d="M587 0h-478l111 700h460l-4 -29h-429l-44 -280h355l-4 -29h-356l-53 -333h446zM442 765l-84 126h33l70 -102l103 102h37l-125 -126h-34z" />
    <glyph glyph-name="ecaron" unicode="&#x11b;" horiz-adv-x="565" 
d="M333 17c50 0 99 14 147 43l-6 -33c-39 -26 -87 -39 -144 -39c-68 0 -125 21 -171 63c-45 42 -68 96 -68 163c0 73 24 136 71 190c48 54 110 81 185 81c66 0 116 -21 150 -64c34 -42 51 -90 51 -143c0 -11 -1 -24 -2 -40h-423c-1 -5 -1 -14 -1 -25c0 -58 20 -105 60 -142
c41 -36 91 -54 151 -54zM344 456c-55 0 -103 -18 -143 -55s-65 -82 -75 -137h390c1 5 1 11 1 18c0 45 -15 86 -44 121s-72 53 -129 53zM359 574l-85 126h33l70 -102l103 102h38l-126 -126h-33z" />
    <glyph glyph-name="Gcircumflex" unicode="&#x11c;" horiz-adv-x="783" 
d="M674 101l49 299h32l-51 -316c-72 -64 -155 -96 -248 -96c-97 0 -175 31 -235 93c-60 63 -90 141 -90 236c0 107 35 200 105 278c71 78 160 117 268 117c99 0 178 -28 238 -84l-6 -32c-62 58 -140 87 -233 87c-95 0 -175 -35 -241 -106s-99 -157 -99 -258
c0 -87 27 -159 82 -216s127 -86 214 -86c82 0 154 28 215 84zM571 891l84 -126h-33l-70 102l-103 -102h-37l125 126h34z" />
    <glyph glyph-name="gcircumflex" unicode="&#x11d;" horiz-adv-x="625" 
d="M561 378l15 95h31l-73 -466c-22 -140 -113 -210 -274 -210c-72 0 -133 15 -183 45l5 33c51 -33 111 -49 180 -49c139 0 220 61 241 184l12 68c-55 -60 -121 -90 -198 -90c-69 0 -124 22 -165 66c-41 45 -61 99 -61 162c0 75 25 138 75 190c50 53 113 79 188 79
c93 0 170 -48 207 -107zM522 129l33 210c-16 31 -42 59 -78 82c-35 23 -76 35 -122 35c-64 0 -119 -23 -165 -70c-45 -46 -68 -102 -68 -168c0 -57 19 -105 56 -144c37 -38 86 -57 147 -57c38 0 75 11 112 32s65 48 85 80zM428 700l84 -126h-33l-70 102l-102 -102h-38
l126 126h33z" />
    <glyph glyph-name="Gbreve" unicode="&#x11e;" horiz-adv-x="783" 
d="M674 101l49 299h32l-51 -316c-72 -64 -155 -96 -248 -96c-97 0 -175 31 -235 93c-60 63 -90 141 -90 236c0 107 35 200 105 278c71 78 160 117 268 117c99 0 178 -28 238 -84l-6 -32c-62 58 -140 87 -233 87c-95 0 -175 -35 -241 -106s-99 -157 -99 -258
c0 -87 27 -159 82 -216s127 -86 214 -86c82 0 154 28 215 84zM652 889h29c-11 -69 -65 -121 -134 -121c-63 0 -110 43 -110 102c0 8 0 14 1 19h30c-1 -4 -1 -9 -1 -16c0 -45 32 -79 81 -79c52 0 93 40 104 95z" />
    <glyph glyph-name="gbreve" unicode="&#x11f;" horiz-adv-x="625" 
d="M561 378l15 95h31l-73 -466c-22 -140 -113 -210 -274 -210c-72 0 -133 15 -183 45l5 33c51 -33 111 -49 180 -49c139 0 220 61 241 184l12 68c-55 -60 -121 -90 -198 -90c-69 0 -124 22 -165 66c-41 45 -61 99 -61 162c0 75 25 138 75 190c50 53 113 79 188 79
c93 0 170 -48 207 -107zM522 129l33 210c-16 31 -42 59 -78 82c-35 23 -76 35 -122 35c-64 0 -119 -23 -165 -70c-45 -46 -68 -102 -68 -168c0 -57 19 -105 56 -144c37 -38 86 -57 147 -57c38 0 75 11 112 32s65 48 85 80zM498 695h30c-11 -69 -66 -121 -135 -121
c-63 0 -109 43 -109 103c0 8 0 14 1 18h29c-1 -3 -1 -8 -1 -15c0 -47 32 -79 81 -79c53 0 93 39 104 94z" />
    <glyph glyph-name="Gdotaccent" unicode="&#x120;" horiz-adv-x="783" 
d="M674 101l49 299h32l-51 -316c-72 -64 -155 -96 -248 -96c-97 0 -175 31 -235 93c-60 63 -90 141 -90 236c0 107 35 200 105 278c71 78 160 117 268 117c99 0 178 -28 238 -84l-6 -32c-62 58 -140 87 -233 87c-95 0 -175 -35 -241 -106s-99 -157 -99 -258
c0 -87 27 -159 82 -216s127 -86 214 -86c82 0 154 28 215 84zM566 801c-28 -28 -72 16 -44 44s72 -16 44 -44z" />
    <glyph glyph-name="gdotaccent" unicode="&#x121;" horiz-adv-x="625" 
d="M561 378l15 95h31l-73 -466c-22 -140 -113 -210 -274 -210c-72 0 -133 15 -183 45l5 33c51 -33 111 -49 180 -49c139 0 220 61 241 184l12 68c-55 -60 -121 -90 -198 -90c-69 0 -124 22 -165 66c-41 45 -61 99 -61 162c0 75 25 138 75 190c50 53 113 79 188 79
c93 0 170 -48 207 -107zM522 129l33 210c-16 31 -42 59 -78 82c-35 23 -76 35 -122 35c-64 0 -119 -23 -165 -70c-45 -46 -68 -102 -68 -168c0 -57 19 -105 56 -144c37 -38 86 -57 147 -57c38 0 75 11 112 32s65 48 85 80zM438 623c-28 -28 -72 16 -44 44s72 -16 44 -44z
" />
    <glyph glyph-name="uni0122" unicode="&#x122;" horiz-adv-x="783" 
d="M674 101l49 299h32l-51 -316c-72 -64 -155 -96 -248 -96c-97 0 -175 31 -235 93c-60 63 -90 141 -90 236c0 107 35 200 105 278c71 78 160 117 268 117c99 0 178 -28 238 -84l-6 -32c-62 58 -140 87 -233 87c-95 0 -175 -35 -241 -106s-99 -157 -99 -258
c0 -87 27 -159 82 -216s127 -86 214 -86c82 0 154 28 215 84zM467 -47l-84 -162h-31l81 162h34z" />
    <glyph glyph-name="uni0123" unicode="&#x123;" 
d="M561 378l15 95h31l-73 -466c-22 -140 -113 -210 -274 -210c-72 0 -133 15 -183 45l5 33c51 -33 111 -49 180 -49c139 0 220 61 241 184l12 68c-55 -60 -121 -90 -198 -90c-69 0 -124 22 -165 66c-41 45 -61 99 -61 162c0 75 25 138 75 190c50 53 113 79 188 79
c93 0 170 -48 207 -107zM522 129l33 210c-16 31 -42 59 -78 82c-35 23 -76 35 -122 35c-64 0 -119 -23 -165 -70c-45 -46 -68 -102 -68 -168c0 -57 19 -105 56 -144c37 -38 86 -57 147 -57c38 0 75 11 112 32s65 48 85 80zM359 549l84 162h31l-81 -162h-34z" />
    <glyph glyph-name="Hcircumflex" unicode="&#x124;" horiz-adv-x="759" 
d="M140 0h-31l111 700h31l-49 -309h479l49 309h31l-111 -700h-31l57 362h-479zM536 891l84 -126h-33l-70 102l-103 -102h-37l125 126h34z" />
    <glyph glyph-name="hcircumflex" unicode="&#x125;" horiz-adv-x="598" 
d="M552 238l-37 -238h-31l38 239c7 39 10 68 10 87c0 85 -54 130 -142 130c-84 0 -165 -53 -213 -113l-54 -343h-31l111 700h31l-50 -312c63 65 135 97 214 97c101 0 165 -58 165 -155c0 -17 -4 -48 -11 -92zM267 891l84 -126h-33l-70 102l-103 -102h-37l125 126h34z" />
    <glyph glyph-name="Hbar" unicode="&#x126;" horiz-adv-x="806" 
d="M164 0h-31l88 553h-99l4 28h99l19 119h31l-19 -119h479l19 119h31l-18 -119h98l-5 -28h-98l-87 -553h-32l58 362h-479zM252 553l-26 -162h479l26 162h-479z" />
    <glyph glyph-name="hbar" unicode="&#x127;" horiz-adv-x="595" 
d="M549 181l-28 -181h-31l29 182c7 39 10 68 10 87c0 85 -54 130 -142 130c-84 0 -165 -53 -213 -113l-45 -286h-31l87 553h-102l4 27h103l19 120h31l-19 -120h132l-5 -27h-132l-35 -222c63 65 135 97 214 97c101 0 165 -58 165 -155c0 -17 -4 -48 -11 -92z" />
    <glyph glyph-name="Itilde" unicode="&#x128;" horiz-adv-x="262" 
d="M147 0h-31l111 700h31zM326 780c-19 0 -42 11 -70 33s-49 33 -64 33c-25 0 -43 -20 -52 -60h-27c11 55 42 87 82 87c19 0 42 -11 71 -33c29 -21 50 -32 63 -32c25 0 43 20 53 60h27c-11 -55 -42 -88 -83 -88z" />
    <glyph glyph-name="itilde" unicode="&#x129;" horiz-adv-x="240" 
d="M288 598c-19 0 -42 11 -71 32c-28 22 -49 33 -63 33c-25 0 -43 -20 -53 -60h-27c11 56 42 88 83 88c19 0 42 -11 70 -33c29 -21 50 -32 63 -32c25 0 42 20 52 60h28c-11 -55 -42 -88 -82 -88zM137 0h-31l75 473h31z" />
    <glyph glyph-name="Imacron" unicode="&#x12a;" horiz-adv-x="262" 
d="M147 0h-31l111 700h31zM371 814h-219l3 27h219z" />
    <glyph glyph-name="imacron" unicode="&#x12b;" horiz-adv-x="240" 
d="M137 0h-31l75 473h31zM331 629h-219l4 27h219z" />
    <glyph glyph-name="Ibreve" unicode="&#x12c;" horiz-adv-x="262" 
d="M362 888h29c-11 -69 -65 -121 -134 -121c-63 0 -110 43 -110 102c0 8 0 14 1 19h30c-1 -4 -1 -9 -1 -16c0 -45 32 -79 81 -79c52 0 93 40 104 95zM147 0h-31l111 700h31z" />
    <glyph glyph-name="ibreve" unicode="&#x12d;" horiz-adv-x="243" 
d="M318 695h30c-11 -69 -66 -121 -135 -121c-63 0 -109 43 -109 103c0 8 0 14 1 18h29c-1 -3 -1 -8 -1 -15c0 -47 32 -79 81 -79c53 0 93 39 104 94zM137 0h-31l75 473h31z" />
    <glyph glyph-name="Iogonek" unicode="&#x12e;" horiz-adv-x="262" 
d="M258 700l-111 -700c-37 -35 -55 -70 -55 -104c0 -37 27 -61 70 -61c12 0 26 2 41 6l-4 -25c-13 -5 -28 -7 -47 -7c-55 0 -88 34 -88 81c0 41 17 77 52 110l111 700h31z" />
    <glyph glyph-name="iogonek" unicode="&#x12f;" horiz-adv-x="243" 
d="M212 473l-75 -473c-37 -35 -55 -70 -55 -104c0 -37 27 -61 70 -61c12 0 26 2 41 6l-4 -25c-13 -5 -28 -7 -47 -7c-55 0 -88 34 -88 81c0 41 17 77 52 110l76 473h30zM198 623c-11 12 -11 32 0 43c12 12 32 12 43 0c12 -11 12 -31 0 -43c-11 -11 -31 -11 -43 0z" />
    <glyph glyph-name="Idot" unicode="&#x130;" horiz-adv-x="262" 
d="M147 0h-31l111 700h31zM282 801c-28 -28 -72 16 -44 44s72 -16 44 -44z" />
    <glyph glyph-name="dotlessi" unicode="&#x131;" horiz-adv-x="243" 
d="M137 0h-31l75 473h31z" />
    <glyph glyph-name="IJ" unicode="&#x132;" horiz-adv-x="591" 
d="M185 238h-31l73 462h31zM570 700h31l-79 -504c-22 -139 -104 -208 -247 -208c-60 0 -111 17 -153 52l6 34c38 -38 88 -57 150 -57c124 0 195 62 214 185z" />
    <glyph glyph-name="Jcircumflex" unicode="&#x134;" horiz-adv-x="500" 
d="M477 700h31l-80 -508c-22 -136 -101 -204 -238 -204c-61 0 -111 17 -149 50l5 34c35 -37 83 -55 146 -55c120 0 185 54 205 181z" />
    <glyph glyph-name="jcircumflex" unicode="&#x135;" horiz-adv-x="244" 
d="M249 701l84 -126h-33l-70 102l-103 -102h-37l126 126h33zM-13 -203c-26 0 -49 5 -68 16l5 32c19 -13 41 -19 64 -19c61 0 96 35 107 105l86 542h31l-87 -549c-13 -85 -59 -127 -138 -127z" />
    <glyph glyph-name="uni0136" unicode="&#x136;" horiz-adv-x="674" 
d="M612 0l-378 365l4 25l426 310h45l-441 -325l386 -375h-42zM140 0h-31l111 700h31zM362 -47l-84 -162h-31l81 162h34z" />
    <glyph glyph-name="uni0137" unicode="&#x137;" horiz-adv-x="533" 
d="M120 0h-31l111 700h31zM454 0l-262 246l4 24l293 203h47l-311 -218l274 -255h-45zM287 -47l-84 -162h-31l81 162h34z" />
    <glyph glyph-name="kgreenlandic" unicode="&#x138;" horiz-adv-x="537" 
d="M123 0h-31l75 473h31zM457 0l-262 246l4 24l293 203h48l-312 -218l274 -255h-45z" />
    <glyph glyph-name="Lacute" unicode="&#x139;" horiz-adv-x="590" 
d="M555 0h-446l111 700h31l-106 -671h414zM226 765l116 126h44l-122 -126h-38z" />
    <glyph glyph-name="lacute" unicode="&#x13a;" horiz-adv-x="268" 
d="M199 700h31l-92 -585c-3 -25 -5 -42 -5 -49c0 -33 19 -49 57 -49c23 0 43 5 61 15l-4 -30c-19 -9 -41 -14 -67 -14c-51 0 -79 26 -79 74c0 12 2 28 5 48zM209 765l116 126h44l-122 -126h-38z" />
    <glyph glyph-name="uni013B" unicode="&#x13b;" horiz-adv-x="590" 
d="M555 0h-446l111 700h31l-106 -671h414zM358 -47l-84 -162h-31l81 162h34z" />
    <glyph glyph-name="lcommaaccent" unicode="&#x13c;" horiz-adv-x="268" 
d="M199 700h31l-92 -585c-3 -25 -5 -42 -5 -49c0 -33 19 -49 57 -49c23 0 43 5 61 15l-4 -30c-19 -9 -41 -14 -67 -14c-51 0 -79 26 -79 74c0 12 2 28 5 48zM191 -47l-84 -162h-31l81 162h34z" />
    <glyph glyph-name="Lcaron" unicode="&#x13d;" horiz-adv-x="619" 
d="M555 0h-446l111 700h31l-106 -671h414zM667 699l-84 -162h-31l81 162h34z" />
    <glyph glyph-name="lcaron" unicode="&#x13e;" horiz-adv-x="335" 
d="M208 700h31l-92 -585c-3 -25 -5 -41 -5 -49c0 -33 19 -49 57 -49c23 0 43 5 61 15l-4 -30c-19 -9 -41 -14 -67 -14c-51 0 -79 26 -79 74c0 12 2 28 5 48zM442 699l-84 -162h-31l81 162h34z" />
    <glyph glyph-name="Ldot" unicode="&#x13f;" horiz-adv-x="590" 
d="M555 0h-446l111 700h31l-106 -671h414zM558 355c-11 12 -11 32 0 43c12 12 32 12 43 0c12 -11 12 -31 0 -43c-11 -11 -31 -11 -43 0z" />
    <glyph glyph-name="ldot" unicode="&#x140;" horiz-adv-x="350" 
d="M208 700h31l-92 -585c-3 -25 -5 -41 -5 -49c0 -33 19 -49 57 -49c23 0 43 5 61 15l-4 -30c-19 -9 -41 -14 -67 -14c-51 0 -79 26 -79 74c0 12 2 28 5 48zM305 354c-11 12 -11 32 0 43c12 12 32 12 43 0c12 -11 12 -31 0 -43c-11 -11 -31 -11 -43 0z" />
    <glyph glyph-name="Lslash" unicode="&#x141;" horiz-adv-x="594" 
d="M558 0h-446l57 356l-103 -56l5 32l103 57l49 311h31l-46 -293l177 96l-5 -33l-178 -96l-54 -345h415z" />
    <glyph glyph-name="lslash" unicode="&#x142;" horiz-adv-x="363" 
d="M203 363l-110 -60l5 33l110 60l48 304h32l-45 -286l110 60l-6 -33l-110 -60l-41 -266c-3 -25 -5 -41 -5 -49c0 -33 19 -49 57 -49c24 0 44 5 60 15l-4 -30c-19 -9 -41 -14 -67 -14c-52 0 -78 25 -78 74c0 9 2 26 5 49z" />
    <glyph glyph-name="Nacute" unicode="&#x143;" horiz-adv-x="774" 
d="M666 0h-30l-393 648l-103 -648h-31l110 700h30l393 -648l102 648h32zM483 765l116 126h44l-122 -126h-38z" />
    <glyph glyph-name="nacute" unicode="&#x144;" horiz-adv-x="598" 
d="M552 238l-37 -238h-31l38 239c7 39 10 68 10 87c0 85 -54 130 -142 130c-84 0 -165 -53 -213 -113l-54 -343h-31l75 473h31l-14 -85c63 65 135 97 214 97c101 0 165 -58 165 -155c0 -17 -4 -48 -11 -92zM353 574l117 126h44l-122 -126h-39z" />
    <glyph glyph-name="uni0145" unicode="&#x145;" horiz-adv-x="774" 
d="M666 0h-30l-393 648l-103 -648h-31l110 700h30l393 -648l102 648h32zM415 -47l-84 -162h-31l81 162h34z" />
    <glyph glyph-name="uni0146" unicode="&#x146;" horiz-adv-x="598" 
d="M552 238l-37 -238h-31l38 239c7 39 10 68 10 87c0 85 -54 130 -142 130c-84 0 -165 -53 -213 -113l-54 -343h-31l75 473h31l-14 -85c63 65 135 97 214 97c101 0 165 -58 165 -155c0 -17 -4 -48 -11 -92zM333 -47l-84 -162h-31l81 162h34z" />
    <glyph glyph-name="Ncaron" unicode="&#x147;" horiz-adv-x="774" 
d="M666 0h-30l-393 648l-103 -648h-31l110 700h30l393 -648l102 648h32zM481 765l-84 126h33l70 -102l103 102h37l-125 -126h-34z" />
    <glyph glyph-name="ncaron" unicode="&#x148;" horiz-adv-x="598" 
d="M552 238l-37 -238h-31l38 239c7 39 10 68 10 87c0 85 -54 130 -142 130c-84 0 -165 -53 -213 -113l-54 -343h-31l75 473h31l-14 -85c63 65 135 97 214 97c101 0 165 -58 165 -155c0 -17 -4 -48 -11 -92zM387 574l-85 126h33l70 -102l103 102h38l-126 -126h-33z" />
    <glyph glyph-name="napostrophe" unicode="&#x149;" horiz-adv-x="633" 
d="M587 238l-37 -238h-31l38 239c7 39 10 68 10 87c0 85 -54 130 -142 130c-84 0 -165 -53 -213 -113l-54 -343h-31l75 473h31l-14 -85c63 65 135 97 214 97c101 0 165 -58 165 -155c0 -17 -4 -48 -11 -92zM208 699l-84 -162h-31l81 162h34z" />
    <glyph glyph-name="Eng" unicode="&#x14a;" horiz-adv-x="774" 
d="M744 700h32l-112 -712c-25 -153 -118 -191 -204 -191c-40 0 -74 8 -101 25l7 29c25 -17 56 -25 93 -25c97 0 155 56 174 167l1 10l-391 645l-103 -648h-31l111 700h29l393 -648z" />
    <glyph glyph-name="eng" unicode="&#x14b;" horiz-adv-x="598" 
d="M552 238l-49 -314c-13 -85 -59 -127 -138 -127c-27 0 -50 5 -69 16l5 31c19 -13 41 -19 65 -19c61 0 96 35 107 106l49 308c7 39 10 68 10 87c0 85 -54 130 -142 130c-84 0 -165 -53 -213 -113l-54 -343h-31l75 473h31l-14 -85c63 65 135 97 214 97
c101 0 165 -58 165 -155c0 -17 -4 -48 -11 -92z" />
    <glyph glyph-name="Omacron" unicode="&#x14c;" horiz-adv-x="847" 
d="M502 712c96 0 174 -31 233 -94c60 -63 90 -141 90 -236c0 -107 -35 -200 -106 -278c-70 -77 -158 -116 -264 -116c-96 0 -174 31 -234 94s-90 142 -90 237c0 107 35 199 106 276c71 78 159 117 265 117zM455 17c93 0 173 35 239 106s99 157 99 258c0 86 -27 158 -81 215
c-54 58 -124 87 -210 87c-94 0 -174 -35 -240 -106s-99 -156 -99 -257c0 -86 27 -158 81 -216c55 -58 125 -87 211 -87zM659 814h-219l3 27h219z" />
    <glyph glyph-name="omacron" unicode="&#x14d;" horiz-adv-x="613" 
d="M355 485c71 0 127 -23 170 -68s65 -99 65 -163c0 -73 -25 -136 -76 -188s-113 -78 -188 -78c-71 0 -128 23 -171 68s-64 100 -64 163c0 73 25 136 76 188s113 78 188 78zM326 17c64 0 119 23 164 70c46 47 69 103 69 168c0 57 -19 105 -57 143c-38 39 -87 58 -148 58
c-63 0 -118 -23 -164 -70c-45 -47 -68 -103 -68 -168c0 -57 19 -105 56 -144c38 -38 87 -57 148 -57zM518 629h-219l4 27h219z" />
    <glyph glyph-name="Obreve" unicode="&#x14e;" horiz-adv-x="847" 
d="M502 712c96 0 174 -31 233 -94c60 -63 90 -141 90 -236c0 -107 -35 -200 -106 -278c-70 -77 -158 -116 -264 -116c-96 0 -174 31 -234 94s-90 142 -90 237c0 107 35 199 106 276c71 78 159 117 265 117zM455 17c93 0 173 35 239 106s99 157 99 258c0 86 -27 158 -81 215
c-54 58 -124 87 -210 87c-94 0 -174 -35 -240 -106s-99 -156 -99 -257c0 -86 27 -158 81 -216c55 -58 125 -87 211 -87zM652 889h29c-11 -69 -65 -121 -134 -121c-63 0 -110 43 -110 102c0 8 0 14 1 19h30c-1 -4 -1 -9 -1 -16c0 -45 32 -79 81 -79c52 0 93 40 104 95z" />
    <glyph glyph-name="obreve" unicode="&#x14f;" horiz-adv-x="613" 
d="M355 485c71 0 127 -23 170 -68s65 -99 65 -163c0 -73 -25 -136 -76 -188s-113 -78 -188 -78c-71 0 -128 23 -171 68s-64 100 -64 163c0 73 25 136 76 188s113 78 188 78zM326 17c64 0 119 23 164 70c46 47 69 103 69 168c0 57 -19 105 -57 143c-38 39 -87 58 -148 58
c-63 0 -118 -23 -164 -70c-45 -47 -68 -103 -68 -168c0 -57 19 -105 56 -144c38 -38 87 -57 148 -57zM507 696h30c-11 -69 -66 -121 -135 -121c-63 0 -109 43 -109 103c0 8 0 14 1 18h29c-1 -3 -1 -8 -1 -15c0 -47 32 -79 81 -79c53 0 93 39 104 94z" />
    <glyph glyph-name="Ohungarumlaut" unicode="&#x150;" horiz-adv-x="847" 
d="M456 765h-35l116 126h41zM587 765h-35l115 126h41zM502 712c96 0 174 -31 233 -94c60 -63 90 -141 90 -236c0 -107 -35 -200 -106 -278c-70 -77 -158 -116 -264 -116c-96 0 -174 31 -234 94s-90 142 -90 237c0 107 35 199 106 276c71 78 159 117 265 117zM455 17
c93 0 173 35 239 106s99 157 99 258c0 86 -27 158 -81 215c-54 58 -124 87 -210 87c-94 0 -174 -35 -240 -106s-99 -156 -99 -257c0 -86 27 -158 81 -216c55 -58 125 -87 211 -87z" />
    <glyph glyph-name="ohungarumlaut" unicode="&#x151;" horiz-adv-x="613" 
d="M323 574h-35l116 126h41zM454 574h-35l115 126h41zM355 485c71 0 127 -23 170 -68s65 -99 65 -163c0 -73 -25 -136 -76 -188s-113 -78 -188 -78c-71 0 -128 23 -171 68s-64 100 -64 163c0 73 25 136 76 188s113 78 188 78zM326 17c64 0 119 23 164 70
c46 47 69 103 69 168c0 57 -19 105 -57 143c-38 39 -87 58 -148 58c-63 0 -118 -23 -164 -70c-45 -47 -68 -103 -68 -168c0 -57 19 -105 56 -144c38 -38 87 -57 148 -57z" />
    <glyph glyph-name="OE" unicode="&#x152;" horiz-adv-x="1159" 
d="M544 700h657l-4 -30h-427l-43 -279h352l-4 -29h-353l-54 -333h443l-3 -29h-634c-104 0 -187 28 -250 85c-62 57 -93 132 -93 225c0 115 39 208 116 281c78 73 177 109 297 109zM163 310c0 -85 28 -153 85 -204s135 -77 234 -77h155l102 642h-189
c-111 0 -204 -33 -277 -99s-110 -153 -110 -262z" />
    <glyph glyph-name="oe" unicode="&#x153;" horiz-adv-x="1032" 
d="M800 17c50 0 99 14 146 43l-5 -33c-39 -26 -87 -39 -144 -39c-112 0 -201 62 -230 159c-40 -95 -133 -159 -241 -159c-71 0 -128 23 -171 68s-64 100 -64 163c0 73 25 136 76 188s113 78 188 78c113 0 197 -67 225 -162c37 96 124 162 233 162c66 0 116 -21 150 -64
c35 -42 52 -90 52 -143c0 -11 -1 -24 -2 -40h-424c-1 -5 -1 -14 -1 -25c0 -58 20 -105 60 -142c41 -36 91 -54 152 -54zM326 17c64 0 119 23 164 70c46 47 69 103 69 168c0 57 -19 105 -57 143c-38 39 -87 58 -148 58c-63 0 -118 -23 -164 -70c-45 -47 -68 -103 -68 -168
c0 -57 19 -105 56 -144c38 -38 87 -57 148 -57zM811 456c-55 0 -103 -18 -144 -55c-40 -37 -65 -82 -74 -137h390c1 5 1 11 1 18c0 45 -15 86 -44 121s-72 53 -129 53z" />
    <glyph glyph-name="Racute" unicode="&#x154;" horiz-adv-x="736" 
d="M509 340l172 -340h-36l-172 338h-279l-54 -338h-31l111 700h297c121 0 190 -62 190 -161c0 -109 -81 -184 -198 -199zM512 671h-265l-48 -304h283c53 0 99 15 137 46s57 72 57 124c0 84 -59 134 -164 134zM419 765l116 126h44l-122 -126h-38z" />
    <glyph glyph-name="racute" unicode="&#x155;" horiz-adv-x="331" 
d="M123 0h-31l75 473h31l-17 -103c21 29 50 56 88 79c38 24 79 36 123 36l-4 -31c-43 0 -84 -13 -123 -39c-38 -26 -68 -57 -90 -92zM240 574l117 126h44l-122 -126h-39z" />
    <glyph glyph-name="uni0156" unicode="&#x156;" horiz-adv-x="736" 
d="M509 340l172 -340h-36l-172 338h-279l-54 -338h-31l111 700h297c121 0 190 -62 190 -161c0 -109 -81 -184 -198 -199zM512 671h-265l-48 -304h283c53 0 99 15 137 46s57 72 57 124c0 84 -59 134 -164 134zM392 -47l-84 -162h-31l81 162h34z" />
    <glyph glyph-name="uni0157" unicode="&#x157;" horiz-adv-x="331" 
d="M123 0h-31l75 473h31l-17 -103c21 29 50 56 88 79c38 24 79 36 123 36l-4 -31c-43 0 -84 -13 -123 -39c-38 -26 -68 -57 -90 -92zM118 -47l-84 -162h-31l81 162h34z" />
    <glyph glyph-name="Rcaron" unicode="&#x158;" horiz-adv-x="736" 
d="M509 340l172 -340h-36l-172 338h-279l-54 -338h-31l111 700h297c121 0 190 -62 190 -161c0 -109 -81 -184 -198 -199zM512 671h-265l-48 -304h283c53 0 99 15 137 46s57 72 57 124c0 84 -59 134 -164 134zM441 765l-84 126h33l70 -102l103 102h37l-125 -126h-34z" />
    <glyph glyph-name="rcaron" unicode="&#x159;" horiz-adv-x="332" 
d="M123 0h-31l75 473h31l-17 -103c21 29 50 56 88 79c38 24 79 36 123 36l-4 -31c-43 0 -84 -13 -123 -39c-38 -26 -68 -57 -90 -92zM270 574l-85 126h33l70 -102l103 102h38l-126 -126h-33z" />
    <glyph glyph-name="Sacute" unicode="&#x15a;" horiz-adv-x="620" 
d="M608 651l-5 -30c-62 41 -134 62 -216 62c-33 0 -66 -5 -97 -15c-31 -9 -58 -26 -82 -51s-36 -55 -36 -90c0 -20 3 -38 14 -53c12 -15 18 -25 39 -37c21 -11 26 -15 54 -26l30 -10l33 -10l31 -9l52 -17c12 -3 28 -9 48 -18c20 -8 35 -16 46 -24c36 -24 73 -66 69 -122
c0 -66 -27 -118 -81 -156s-117 -57 -190 -57c-52 0 -103 8 -153 23c-49 16 -85 33 -107 52l6 34c22 -21 57 -39 104 -56c47 -16 97 -24 150 -24c36 0 71 6 106 17c35 12 66 32 93 60c27 29 40 63 40 102c0 37 -19 70 -40 90c-11 10 -26 20 -47 29c-20 9 -38 16 -53 21
s-36 12 -63 20c-57 16 -85 24 -126 43c-56 29 -82 62 -86 124c0 61 24 107 73 140s107 49 174 49c92 0 165 -20 220 -61zM382 765l116 126h44l-122 -126h-38z" />
    <glyph glyph-name="sacute" unicode="&#x15b;" horiz-adv-x="487" 
d="M474 432l-4 -31c-49 37 -109 55 -180 55c-37 0 -71 -8 -102 -24c-30 -16 -45 -41 -45 -76c0 -27 15 -48 44 -64c31 -16 52 -24 95 -37l10 -3c22 -7 38 -13 49 -17c11 -3 25 -9 42 -17c47 -21 65 -46 70 -91c0 -46 -20 -81 -59 -104s-85 -35 -137 -35
c-89 0 -166 32 -206 64l5 33c54 -45 122 -68 203 -68c24 0 47 3 70 8c47 12 93 47 93 99c0 31 -23 56 -68 75c-13 5 -38 14 -76 26c-112 36 -165 65 -165 129c0 43 17 75 52 97c35 23 78 34 127 34c74 0 135 -18 182 -53zM284 574l117 126h44l-122 -126h-39z" />
    <glyph glyph-name="Scircumflex" unicode="&#x15c;" horiz-adv-x="620" 
d="M608 651l-5 -30c-62 41 -134 62 -216 62c-33 0 -66 -5 -97 -15c-31 -9 -58 -26 -82 -51s-36 -55 -36 -90c0 -20 3 -38 14 -53c12 -15 18 -25 39 -37c21 -11 26 -15 54 -26l30 -10l33 -10l31 -9l52 -17c12 -3 28 -9 48 -18c20 -8 35 -16 46 -24c36 -24 73 -66 69 -122
c0 -66 -27 -118 -81 -156s-117 -57 -190 -57c-52 0 -103 8 -153 23c-49 16 -85 33 -107 52l6 34c22 -21 57 -39 104 -56c47 -16 97 -24 150 -24c36 0 71 6 106 17c35 12 66 32 93 60c27 29 40 63 40 102c0 37 -19 70 -40 90c-11 10 -26 20 -47 29c-20 9 -38 16 -53 21
s-36 12 -63 20c-57 16 -85 24 -126 43c-56 29 -82 62 -86 124c0 61 24 107 73 140s107 49 174 49c92 0 165 -20 220 -61zM460 891l84 -126h-33l-70 102l-103 -102h-37l125 126h34z" />
    <glyph glyph-name="scircumflex" unicode="&#x15d;" horiz-adv-x="487" 
d="M474 432l-4 -31c-49 37 -109 55 -180 55c-37 0 -71 -8 -102 -24c-30 -16 -45 -41 -45 -76c0 -27 15 -48 44 -64c31 -16 52 -24 95 -37l10 -3c22 -7 38 -13 49 -17c11 -3 25 -9 42 -17c47 -21 65 -46 70 -91c0 -46 -20 -81 -59 -104s-85 -35 -137 -35
c-89 0 -166 32 -206 64l5 33c54 -45 122 -68 203 -68c24 0 47 3 70 8c47 12 93 47 93 99c0 31 -23 56 -68 75c-13 5 -38 14 -76 26c-112 36 -165 65 -165 129c0 43 17 75 52 97c35 23 78 34 127 34c74 0 135 -18 182 -53zM360 700l84 -126h-33l-70 102l-102 -102h-38
l126 126h33z" />
    <glyph glyph-name="Scedilla" unicode="&#x15e;" horiz-adv-x="620" 
d="M251 -124h-41l93 112c-50 1 -98 10 -145 25s-80 32 -101 50l6 34c22 -21 57 -39 104 -56c47 -16 97 -24 150 -24c36 0 71 6 106 17c35 12 66 32 93 60c27 29 40 63 40 102c0 37 -19 70 -40 90c-11 10 -26 20 -47 29c-20 9 -38 16 -53 21s-36 12 -63 20
c-57 16 -85 24 -126 43c-56 29 -82 62 -86 124c0 61 24 107 73 140s107 49 174 49c92 0 165 -20 220 -61l-5 -30c-62 41 -134 62 -216 62c-33 0 -66 -5 -97 -15c-31 -9 -58 -26 -82 -51s-36 -55 -36 -90c0 -20 3 -38 14 -53c12 -15 18 -25 39 -37c21 -11 26 -15 54 -26
l30 -10l33 -10l31 -9l52 -17c12 -3 28 -9 48 -18c20 -8 35 -16 46 -24c36 -24 73 -66 69 -122c0 -63 -25 -114 -75 -151c-49 -37 -109 -58 -178 -61z" />
    <glyph glyph-name="scedilla" unicode="&#x15f;" horiz-adv-x="487" 
d="M184 -124h-41l93 113c-80 4 -149 34 -185 63l5 33c54 -45 122 -68 203 -68c24 0 47 3 70 8c47 12 93 47 93 99c0 31 -23 56 -68 75c-13 5 -38 14 -76 26c-112 36 -165 65 -165 129c0 43 17 75 52 97c35 23 78 34 127 34c74 0 135 -18 182 -53l-4 -31
c-49 37 -109 55 -180 55c-37 0 -71 -8 -102 -24c-30 -16 -45 -41 -45 -76c0 -27 15 -48 44 -64c31 -16 52 -24 95 -37l10 -3c22 -7 38 -13 49 -17c11 -3 25 -9 42 -17c47 -21 65 -46 70 -91c0 -44 -18 -78 -55 -101s-80 -36 -130 -38z" />
    <glyph glyph-name="Scaron" unicode="&#x160;" horiz-adv-x="620" 
d="M608 651l-5 -30c-62 41 -134 62 -216 62c-33 0 -66 -5 -97 -15c-31 -9 -58 -26 -82 -51s-36 -55 -36 -90c0 -20 3 -38 14 -53c12 -15 18 -25 39 -37c21 -11 26 -15 54 -26l30 -10l33 -10l31 -9l52 -17c12 -3 28 -9 48 -18c20 -8 35 -16 46 -24c36 -24 73 -66 69 -122
c0 -66 -27 -118 -81 -156s-117 -57 -190 -57c-52 0 -103 8 -153 23c-49 16 -85 33 -107 52l6 34c22 -21 57 -39 104 -56c47 -16 97 -24 150 -24c36 0 71 6 106 17c35 12 66 32 93 60c27 29 40 63 40 102c0 37 -19 70 -40 90c-11 10 -26 20 -47 29c-20 9 -38 16 -53 21
s-36 12 -63 20c-57 16 -85 24 -126 43c-56 29 -82 62 -86 124c0 61 24 107 73 140s107 49 174 49c92 0 165 -20 220 -61zM397 765l-84 126h33l70 -102l103 102h37l-125 -126h-34z" />
    <glyph glyph-name="scaron" unicode="&#x161;" horiz-adv-x="487" 
d="M474 432l-4 -31c-49 37 -109 55 -180 55c-37 0 -71 -8 -102 -24c-30 -16 -45 -41 -45 -76c0 -27 15 -48 44 -64c31 -16 52 -24 95 -37l10 -3c22 -7 38 -13 49 -17c11 -3 25 -9 42 -17c47 -21 65 -46 70 -91c0 -46 -20 -81 -59 -104s-85 -35 -137 -35
c-89 0 -166 32 -206 64l5 33c54 -45 122 -68 203 -68c24 0 47 3 70 8c47 12 93 47 93 99c0 31 -23 56 -68 75c-13 5 -38 14 -76 26c-112 36 -165 65 -165 129c0 43 17 75 52 97c35 23 78 34 127 34c74 0 135 -18 182 -53zM310 574l-85 126h33l70 -102l103 102h38l-126 -126
h-33z" />
    <glyph glyph-name="uni0162" unicode="&#x162;" horiz-adv-x="616" 
d="M229 -124h-41l104 124l107 671h-255l4 29h542l-4 -29h-256l-107 -671z" />
    <glyph glyph-name="uni0163" unicode="&#x163;" horiz-adv-x="419" 
d="M176 145l48 299h-125l5 29h124l25 157h31l-25 -157h185l-5 -29h-184l-47 -296c-5 -35 -8 -58 -8 -67c-4 -66 71 -85 167 -39l-5 -32c-23 -14 -51 -21 -84 -22l-84 -112h-41l94 114c-53 7 -79 35 -79 85c0 7 1 20 4 39s4 30 4 31z" />
    <glyph glyph-name="Tcaron" unicode="&#x164;" horiz-adv-x="616" 
d="M410 765l-84 126h33l70 -102l103 102h37l-125 -126h-34zM323 0h-31l107 671h-255l4 29h542l-4 -29h-256z" />
    <glyph glyph-name="tcaron" unicode="&#x165;" horiz-adv-x="503" 
d="M224 444h-125l5 29h124l25 157h31l-25 -157h185l-5 -29h-184l-47 -296c-5 -35 -8 -58 -8 -67c-4 -66 71 -85 167 -39l-5 -32c-24 -15 -54 -22 -91 -22c-69 0 -103 29 -103 87c0 7 1 20 4 39s4 30 4 31zM610 699l-84 -162h-31l81 162h34z" />
    <glyph glyph-name="Tbar" unicode="&#x166;" horiz-adv-x="616" 
d="M323 0h-31l58 362h-159l5 29h158l45 280h-255l4 29h542l-4 -29h-256l-45 -280h158l-4 -29h-158z" />
    <glyph glyph-name="tbar" unicode="&#x167;" horiz-adv-x="429" 
d="M255 444l-28 -171h184l-4 -29h-185l-14 -96c-5 -35 -8 -58 -8 -67c-4 -66 71 -85 167 -39l-5 -32c-24 -15 -54 -22 -91 -22c-69 0 -103 29 -103 87c0 7 1 20 4 39s4 30 4 31l16 99h-125l5 29h124l28 171h-125l5 29h124l25 157h31l-25 -157h185l-5 -29h-184z" />
    <glyph glyph-name="Utilde" unicode="&#x168;" horiz-adv-x="748" 
d="M664 293l64 407h32l-66 -417c-15 -95 -50 -168 -105 -219c-54 -51 -120 -76 -199 -76c-155 0 -252 90 -252 247c0 19 4 51 11 95l58 370h31l-59 -376c-6 -43 -9 -72 -9 -85c0 -137 77 -222 220 -222c145 0 246 103 274 276zM573 780c-18 0 -41 11 -70 33s-50 33 -64 33
c-25 0 -43 -20 -52 -60h-27c11 55 42 87 82 87c19 0 42 -11 71 -33c29 -21 50 -32 63 -32c25 0 43 20 53 60h27c-11 -55 -42 -88 -83 -88z" />
    <glyph glyph-name="utilde" unicode="&#x169;" horiz-adv-x="598" 
d="M121 235l37 238h31l-38 -239c-7 -39 -10 -68 -10 -87c0 -85 54 -130 142 -130c84 0 165 53 213 113l54 343h31l-75 -473h-31l14 85c-63 -65 -135 -97 -214 -97c-101 0 -165 58 -165 155c0 17 4 48 11 92zM463 598c-19 0 -42 11 -71 32c-28 22 -49 33 -63 33
c-25 0 -43 -20 -53 -60h-27c11 56 42 88 83 88c19 0 42 -11 70 -33c29 -21 50 -32 63 -32c25 0 42 20 52 60h28c-11 -55 -42 -88 -82 -88z" />
    <glyph glyph-name="Umacron" unicode="&#x16a;" horiz-adv-x="748" 
d="M664 293l64 407h32l-66 -417c-15 -95 -50 -168 -105 -219c-54 -51 -120 -76 -199 -76c-155 0 -252 90 -252 247c0 19 4 51 11 95l58 370h31l-59 -376c-6 -43 -9 -72 -9 -85c0 -137 77 -222 220 -222c145 0 246 103 274 276zM615 814h-219l3 27h219z" />
    <glyph glyph-name="umacron" unicode="&#x16b;" horiz-adv-x="598" 
d="M121 235l37 238h31l-38 -239c-7 -39 -10 -68 -10 -87c0 -85 54 -130 142 -130c84 0 165 53 213 113l54 343h31l-75 -473h-31l14 85c-63 -65 -135 -97 -214 -97c-101 0 -165 58 -165 155c0 17 4 48 11 92zM505 629h-219l4 27h219z" />
    <glyph glyph-name="Ubreve" unicode="&#x16c;" horiz-adv-x="748" 
d="M664 293l64 407h32l-66 -417c-15 -95 -50 -168 -105 -219c-54 -51 -120 -76 -199 -76c-155 0 -252 90 -252 247c0 19 4 51 11 95l58 370h31l-59 -376c-6 -43 -9 -72 -9 -85c0 -137 77 -222 220 -222c145 0 246 103 274 276zM593 888h29c-11 -69 -65 -121 -134 -121
c-63 0 -110 43 -110 102c0 8 0 14 1 19h30c-1 -4 -1 -9 -1 -16c0 -45 32 -79 81 -79c52 0 93 40 104 95z" />
    <glyph glyph-name="ubreve" unicode="&#x16d;" horiz-adv-x="598" 
d="M121 235l37 238h31l-38 -239c-7 -39 -10 -68 -10 -87c0 -85 54 -130 142 -130c84 0 165 53 213 113l54 343h31l-75 -473h-31l14 85c-63 -65 -135 -97 -214 -97c-101 0 -165 58 -165 155c0 17 4 48 11 92zM487 695h30c-11 -69 -66 -121 -135 -121c-63 0 -109 43 -109 103
c0 8 0 14 1 18h29c-1 -3 -1 -8 -1 -15c0 -47 32 -79 81 -79c53 0 93 39 104 94z" />
    <glyph glyph-name="Uring" unicode="&#x16e;" horiz-adv-x="748" 
d="M664 293l64 407h32l-66 -417c-15 -95 -50 -168 -105 -219c-54 -51 -120 -76 -199 -76c-155 0 -252 90 -252 247c0 19 4 51 11 95l58 370h31l-59 -376c-6 -43 -9 -72 -9 -85c0 -137 77 -222 220 -222c145 0 246 103 274 276zM402 828c0 48 42 90 91 90s90 -42 90 -90
c0 -49 -41 -91 -90 -91s-91 42 -91 91zM493 762c37 0 66 29 66 66s-29 67 -66 67s-66 -30 -66 -67s27 -66 66 -66z" />
    <glyph glyph-name="uring" unicode="&#x16f;" horiz-adv-x="598" 
d="M121 235l37 238h31l-38 -239c-7 -39 -10 -68 -10 -87c0 -85 54 -130 142 -130c84 0 165 53 213 113l54 343h31l-75 -473h-31l14 85c-63 -65 -135 -97 -214 -97c-101 0 -165 58 -165 155c0 17 4 48 11 92zM323 706c36 36 92 36 127 0c36 -35 36 -91 0 -127
c-35 -36 -91 -36 -127 0s-36 92 0 127zM387 578c37 0 66 28 66 65s-29 66 -66 66c-36 0 -65 -29 -65 -66s29 -65 65 -65z" />
    <glyph glyph-name="Uhungarumlaut" unicode="&#x170;" horiz-adv-x="748" 
d="M664 293l64 407h32l-66 -417c-15 -95 -50 -168 -105 -219c-54 -51 -120 -76 -199 -76c-155 0 -252 90 -252 247c0 19 4 51 11 95l58 370h31l-59 -376c-6 -43 -9 -72 -9 -85c0 -137 77 -222 220 -222c145 0 246 103 274 276zM423 765h-35l116 126h41zM554 765h-35l115 126
h41z" />
    <glyph glyph-name="uhungarumlaut" unicode="&#x171;" horiz-adv-x="598" 
d="M121 235l37 238h31l-38 -239c-7 -39 -10 -68 -10 -87c0 -85 54 -130 142 -130c84 0 165 53 213 113l54 343h31l-75 -473h-31l14 85c-63 -65 -135 -97 -214 -97c-101 0 -165 58 -165 155c0 17 4 48 11 92zM312 574h-35l116 126h41zM443 574h-35l115 126h41z" />
    <glyph glyph-name="Uogonek" unicode="&#x172;" horiz-adv-x="748" 
d="M664 293l64 407h32l-66 -417c-24 -146 -92 -239 -204 -279c-64 -23 -100 -50 -100 -101c0 -37 27 -60 70 -60c12 0 26 2 41 6l-4 -25c-13 -5 -28 -7 -47 -7c-56 0 -88 34 -88 83c0 37 14 66 43 88h-15c-155 0 -252 90 -252 247c0 19 4 51 11 95l58 370h31l-59 -376
c-6 -43 -9 -72 -9 -85c0 -137 77 -222 220 -222c145 0 246 103 274 276z" />
    <glyph glyph-name="uogonek" unicode="&#x173;" horiz-adv-x="599" 
d="M476 0l14 85c-63 -65 -135 -97 -214 -97c-101 0 -166 58 -166 155c0 13 4 44 12 92l37 238h31l-37 -239c-7 -42 -11 -71 -11 -87c0 -85 54 -130 142 -130c84 0 165 53 213 113l54 343h31l-75 -473c-37 -35 -55 -70 -55 -104c0 -37 27 -61 70 -61c12 0 26 2 41 6l-4 -25
c-13 -5 -28 -7 -47 -7c-55 0 -88 34 -88 81c0 41 17 77 52 110z" />
    <glyph glyph-name="Wcircumflex" unicode="&#x174;" horiz-adv-x="1035" 
d="M313 50l299 650h28l95 -648l325 648h36l-356 -704h-28l-94 644l-298 -644h-28l-134 704h34zM675 891l84 -126h-33l-70 102l-103 -102h-37l125 126h34z" />
    <glyph glyph-name="wcircumflex" unicode="&#x175;" horiz-adv-x="810" 
d="M578 46l224 427h35l-251 -477h-28l-86 430l-222 -430h-28l-100 477h31l90 -426l222 428h27zM523 700l84 -126h-33l-70 102l-102 -102h-38l126 126h33z" />
    <glyph glyph-name="Ycircumflex" unicode="&#x176;" horiz-adv-x="635" 
d="M371 357l306 343h40l-332 -374l-51 -326h-32l51 326l-214 374h36zM466 891l84 -126h-33l-70 102l-103 -102h-37l125 126h34z" />
    <glyph glyph-name="ycircumflex" unicode="&#x177;" horiz-adv-x="530" 
d="M524 473h36l-312 -529c-57 -97 -111 -147 -182 -147c-24 0 -44 5 -61 15l6 31c17 -11 36 -17 57 -17c33 0 63 15 89 44c27 29 61 79 102 149l-157 454h33l144 -417zM376 700l84 -126h-33l-70 102l-102 -102h-38l126 126h33z" />
    <glyph glyph-name="Ydieresis" unicode="&#x178;" horiz-adv-x="635" 
d="M371 357l306 343h40l-332 -374l-51 -326h-32l51 326l-214 374h36zM309 824c0 37 58 37 58 0c0 -38 -58 -38 -58 0zM523 795c-16 0 -29 12 -29 29c0 16 13 29 29 29c17 0 29 -13 29 -29c0 -17 -12 -29 -29 -29z" />
    <glyph glyph-name="Zacute" unicode="&#x179;" horiz-adv-x="638" 
d="M662 700l-3 -22l-552 -649h478l-4 -29h-523l3 23l552 648h-436l4 29h481zM407 765l116 126h44l-122 -126h-38z" />
    <glyph glyph-name="zacute" unicode="&#x17a;" horiz-adv-x="486" 
d="M42 22l402 422h-321l4 29h368l-4 -23l-400 -421h360l-5 -29h-407zM286 574l117 126h44l-122 -126h-39z" />
    <glyph glyph-name="Zdotaccent" unicode="&#x17b;" horiz-adv-x="638" 
d="M662 700l-3 -22l-552 -649h478l-4 -29h-523l3 23l552 648h-436l4 29h481zM450 801c-28 -28 -72 16 -44 44s72 -16 44 -44z" />
    <glyph glyph-name="zdotaccent" unicode="&#x17c;" horiz-adv-x="486" 
d="M42 22l402 422h-321l4 29h368l-4 -23l-400 -421h360l-5 -29h-407zM339 623c-28 -28 -72 16 -44 44s72 -16 44 -44z" />
    <glyph glyph-name="Zcaron" unicode="&#x17d;" horiz-adv-x="638" 
d="M423 765l-84 126h33l70 -102l103 102h37l-125 -126h-34zM662 700l-3 -22l-552 -649h478l-4 -29h-523l3 23l552 648h-436l4 29h481z" />
    <glyph glyph-name="zcaron" unicode="&#x17e;" horiz-adv-x="486" 
d="M311 574l-85 126h33l70 -102l103 102h38l-126 -126h-33zM42 22l402 422h-321l4 29h368l-4 -23l-400 -421h360l-5 -29h-407z" />
    <glyph glyph-name="longs" unicode="&#x17f;" horiz-adv-x="316" 
d="M251 573l-90 -573h-30l69 444h-100l4 29h101l17 109c13 83 60 124 139 124c32 0 60 -7 84 -20l-4 -31c-27 15 -53 22 -80 22c-62 0 -99 -35 -110 -104z" />
    <glyph glyph-name="florin" unicode="&#x192;" horiz-adv-x="433" 
d="M39 -203c-28 0 -54 5 -77 16v31c24 -12 49 -18 74 -18c80 0 128 54 145 161l57 372h-143v29h148l20 134c20 124 72 184 172 184c29 0 55 -5 80 -16v-31c-24 12 -50 18 -77 18c-80 0 -127 -46 -144 -161l-19 -128h174v-29h-180l-57 -378c-17 -112 -76 -184 -173 -184z" />
    <glyph glyph-name="uni0218" unicode="&#x218;" horiz-adv-x="620" 
d="M608 651l-5 -30c-62 41 -134 62 -216 62c-33 0 -66 -5 -97 -15c-31 -9 -58 -26 -82 -51s-36 -55 -36 -90c0 -20 3 -38 14 -53c12 -15 18 -25 39 -37c21 -11 26 -15 54 -26l30 -10l33 -10l31 -9l52 -17c12 -3 28 -9 48 -18c20 -8 35 -16 46 -24c36 -24 73 -66 69 -122
c0 -66 -27 -118 -81 -156s-117 -57 -190 -57c-52 0 -103 8 -153 23c-49 16 -85 33 -107 52l6 34c22 -21 57 -39 104 -56c47 -16 97 -24 150 -24c36 0 71 6 106 17c35 12 66 32 93 60c27 29 40 63 40 102c0 37 -19 70 -40 90c-11 10 -26 20 -47 29c-20 9 -38 16 -53 21
s-36 12 -63 20c-57 16 -85 24 -126 43c-56 29 -82 62 -86 124c0 61 24 107 73 140s107 49 174 49c92 0 165 -20 220 -61zM338 -47l-84 -162h-31l81 162h34z" />
    <glyph glyph-name="uni0219" unicode="&#x219;" horiz-adv-x="487" 
d="M474 432l-4 -31c-49 37 -109 55 -180 55c-37 0 -71 -8 -102 -24c-30 -16 -45 -41 -45 -76c0 -27 15 -48 44 -64c31 -16 52 -24 95 -37l10 -3c22 -7 38 -13 49 -17c11 -3 25 -9 42 -17c47 -21 65 -46 70 -91c0 -46 -20 -81 -59 -104s-85 -35 -137 -35
c-89 0 -166 32 -206 64l5 33c54 -45 122 -68 203 -68c24 0 47 3 70 8c47 12 93 47 93 99c0 31 -23 56 -68 75c-13 5 -38 14 -76 26c-112 36 -165 65 -165 129c0 43 17 75 52 97c35 23 78 34 127 34c74 0 135 -18 182 -53zM265 -47l-84 -162h-31l81 162h34z" />
    <glyph glyph-name="uni021A" unicode="&#x21a;" horiz-adv-x="616" 
d="M323 0h-31l107 671h-255l4 29h542l-4 -29h-256zM318 -47l-84 -162h-31l81 162h34z" />
    <glyph glyph-name="uni021B" unicode="&#x21b;" horiz-adv-x="419" 
d="M176 145l48 299h-125l5 29h124l25 157h31l-25 -157h185l-5 -29h-184l-47 -296c-5 -35 -8 -58 -8 -67c-4 -66 71 -85 167 -39l-5 -32c-24 -15 -54 -22 -91 -22c-69 0 -103 29 -103 87c0 7 1 20 4 39s4 30 4 31zM276 -47l-84 -162h-31l81 162h34z" />
    <glyph glyph-name="circumflex" unicode="&#x2c6;" horiz-adv-x="523" 
d="M387 700l84 -126h-33l-70 102l-102 -102h-38l126 126h33z" />
    <glyph glyph-name="caron" unicode="&#x2c7;" horiz-adv-x="520" 
d="M328 574l-85 126h33l70 -102l103 102h38l-126 -126h-33z" />
    <glyph glyph-name="uni02C9" unicode="&#x2c9;" horiz-adv-x="512" 
d="M191 630l4 27h330l-4 -27h-330z" />
    <glyph glyph-name="breve" unicode="&#x2d8;" horiz-adv-x="520" 
d="M458 695h30c-11 -69 -66 -121 -135 -121c-63 0 -109 43 -109 103c0 8 0 14 1 18h29c-1 -3 -1 -8 -1 -15c0 -47 32 -79 81 -79c53 0 93 39 104 94z" />
    <glyph glyph-name="dotaccent" unicode="&#x2d9;" horiz-adv-x="513" 
d="M378 623c-28 -28 -72 16 -44 44s72 -16 44 -44z" />
    <glyph glyph-name="ring" unicode="&#x2da;" horiz-adv-x="362" 
d="M205 706c36 36 92 36 127 0c36 -35 36 -91 0 -127c-35 -36 -91 -36 -127 0s-36 92 0 127zM269 578c37 0 66 28 66 65s-29 66 -66 66c-36 0 -65 -29 -65 -66s29 -65 65 -65z" />
    <glyph glyph-name="ogonek" unicode="&#x2db;" horiz-adv-x="519" 
d="M243 8h31c-37 -35 -55 -70 -55 -104c0 -37 27 -61 70 -61c13 0 26 2 41 6l-4 -25c-13 -5 -28 -7 -47 -7c-55 0 -88 34 -88 81c0 41 17 77 52 110z" />
    <glyph glyph-name="tilde" unicode="&#x2dc;" horiz-adv-x="520" 
d="M427 598c-19 0 -42 11 -71 32c-28 22 -49 33 -63 33c-25 0 -43 -20 -53 -60h-27c11 56 42 88 83 88c19 0 42 -11 70 -33c29 -21 50 -32 63 -32c25 0 42 20 52 60h28c-11 -55 -42 -88 -82 -88z" />
    <glyph glyph-name="hungarumlaut" unicode="&#x2dd;" horiz-adv-x="409" 
d="M182 574h-35l116 126h41zM313 574h-35l115 126h41z" />
    <glyph glyph-name="acutecomb" unicode="&#x301;" horiz-adv-x="20" 
d="M-212 574l117 126h44l-122 -126h-39z" />
    <glyph glyph-name="uni037E" unicode="&#x37e;" horiz-adv-x="218" 
d="M41 -152h-28l110 228h39zM153 403c-11 12 -11 32 0 43c12 12 32 12 43 0c12 -11 12 -31 0 -43c-11 -11 -31 -11 -43 0z" />
    <glyph glyph-name="uni0394" unicode="&#x394;" horiz-adv-x="738" 
d="M703 0h-667l430 700h29zM475 660l-388 -631h576z" />
    <glyph glyph-name="uni03A9" unicode="&#x3a9;" horiz-adv-x="806" 
d="M757 413c0 -149 -71 -284 -192 -384h129l-4 -29h-175l4 26c62 46 112 103 150 170s57 139 57 214c0 77 -21 142 -63 194c-41 53 -98 79 -171 79c-59 0 -111 -19 -157 -58c-91 -76 -136 -194 -136 -313c0 -55 9 -108 28 -161s42 -94 71 -125l-4 -26h-173l3 29h136
c-27 33 -49 75 -66 127s-26 105 -26 158c0 181 111 398 323 398c81 0 145 -28 193 -84c49 -55 73 -127 73 -215z" />
    <glyph glyph-name="uni03BC" unicode="&#x3bc;" horiz-adv-x="606" 
d="M91 -200h-31l106 673h31l-37 -239c-7 -54 -11 -83 -11 -87c0 -85 54 -130 142 -130c84 0 165 53 213 113l54 343h31l-75 -473h-31l14 85c-63 -65 -135 -97 -214 -97c-75 0 -125 27 -150 80z" />
    <glyph glyph-name="pi" unicode="&#x3c0;" horiz-adv-x="667" 
d="M674 473l-4 -29h-98l-52 -319c-3 -19 -4 -34 -4 -45c0 -37 18 -55 53 -55c11 0 23 3 35 8l-4 -29c-11 -5 -25 -8 -41 -8c-44 0 -75 25 -75 80c0 11 1 26 4 45l52 323h-300l-70 -444h-31l70 444h-92l6 29h551z" />
    <glyph glyph-name="uni0401" unicode="&#x401;" horiz-adv-x="638" 
d="M587 0h-478l111 700h460l-4 -29h-429l-44 -280h355l-4 -29h-356l-53 -333h446zM344 824c0 37 58 37 58 0c0 -38 -58 -38 -58 0zM558 795c-16 0 -29 12 -29 29c0 16 13 29 29 29c17 0 29 -13 29 -29c0 -17 -12 -29 -29 -29z" />
    <glyph glyph-name="uni0402" unicode="&#x402;" horiz-adv-x="737" 
d="M495 401c66 0 119 -18 159 -55c41 -37 61 -83 61 -138c0 -65 -22 -118 -67 -159s-102 -61 -171 -61c-41 0 -82 8 -123 23l6 31c32 -17 71 -25 116 -25c57 0 106 17 147 52s61 81 61 138c0 46 -17 85 -51 117c-33 32 -81 48 -143 48c-73 0 -148 -18 -224 -54l-50 -318h-32
l107 671h-147l3 29h467l-5 -29h-287l-50 -319c74 33 148 49 223 49z" />
    <glyph glyph-name="uni0403" unicode="&#x403;" horiz-adv-x="592" 
d="M141 0h-32l111 700h446l-4 -29h-415zM415 765l116 126h44l-122 -126h-38z" />
    <glyph glyph-name="uni0404" unicode="&#x404;" horiz-adv-x="693" 
d="M163 320c0 -85 27 -157 82 -216c55 -58 125 -87 212 -87c80 0 151 22 213 67l-5 -36c-57 -40 -126 -60 -209 -60c-97 0 -175 31 -235 94s-90 142 -90 237c0 107 35 199 105 276c71 78 160 117 268 117c82 0 152 -21 210 -63l-5 -31c-57 43 -126 65 -206 65
c-86 0 -161 -30 -225 -89c-63 -59 -101 -133 -112 -222h369l-4 -29h-367c-1 -5 -1 -13 -1 -23z" />
    <glyph glyph-name="uni0405" unicode="&#x405;" horiz-adv-x="620" 
d="M608 651l-5 -30c-62 41 -134 62 -216 62c-33 0 -66 -5 -97 -15c-31 -9 -58 -26 -82 -51s-36 -55 -36 -90c0 -20 3 -38 14 -53c12 -15 18 -25 39 -37c21 -11 26 -15 54 -26l30 -10l33 -10l31 -9l52 -17c12 -3 28 -9 48 -18c20 -8 35 -16 46 -24c36 -24 73 -66 69 -122
c0 -66 -27 -118 -81 -156s-117 -57 -190 -57c-52 0 -103 8 -153 23c-49 16 -85 33 -107 52l6 34c22 -21 57 -39 104 -56c47 -16 97 -24 150 -24c36 0 71 6 106 17c35 12 66 32 93 60c27 29 40 63 40 102c0 37 -19 70 -40 90c-11 10 -26 20 -47 29c-20 9 -38 16 -53 21
s-36 12 -63 20c-57 16 -85 24 -126 43c-56 29 -82 62 -86 124c0 61 24 107 73 140s107 49 174 49c92 0 165 -20 220 -61z" />
    <glyph glyph-name="uni0406" unicode="&#x406;" horiz-adv-x="262" 
d="M147 0h-31l111 700h31z" />
    <glyph glyph-name="uni0407" unicode="&#x407;" horiz-adv-x="262" 
d="M147 0h-31l111 700h31zM139 824c0 37 58 37 58 0c0 -38 -58 -38 -58 0zM353 795c-16 0 -29 12 -29 29c0 16 13 29 29 29c17 0 29 -13 29 -29c0 -17 -12 -29 -29 -29z" />
    <glyph glyph-name="uni0408" unicode="&#x408;" horiz-adv-x="499" 
d="M478 700h31l-80 -508c-22 -136 -101 -204 -238 -204c-61 0 -111 17 -149 50l5 34c35 -37 83 -55 146 -55c120 0 185 54 205 181z" />
    <glyph glyph-name="uni0409" unicode="&#x409;" horiz-adv-x="1129" 
d="M680 671h-333l-36 -184c-13 -68 -25 -125 -37 -172c-11 -47 -25 -91 -41 -134c-47 -123 -107 -177 -205 -181h-11l5 31h11c74 -6 127 59 163 139c12 25 24 59 35 100c11 42 21 80 28 115l27 135l34 180h398l-45 -283h217c139 0 217 -71 217 -180c0 -73 -24 -131 -73 -174
c-48 -42 -111 -63 -190 -63h-269zM884 388h-216l-57 -359h235c65 0 120 18 163 53c44 36 66 87 66 152c0 99 -68 154 -191 154z" />
    <glyph glyph-name="uni040A" unicode="&#x40a;" horiz-adv-x="1158" 
d="M702 417h218c139 0 216 -71 216 -180c0 -73 -24 -131 -73 -174c-48 -42 -111 -63 -189 -63h-271l62 388h-463l-61 -388h-32l111 700h31l-44 -283h463l44 283h31zM914 388h-218l-57 -359h236c66 0 121 18 164 53c44 36 66 87 66 152c0 99 -68 154 -191 154z" />
    <glyph glyph-name="uni040B" unicode="&#x40b;" horiz-adv-x="762" 
d="M267 325l-51 -325h-32l107 671h-147l4 29h466l-5 -29h-287l-50 -314c82 29 162 44 240 44c135 0 208 -43 208 -155c0 -15 -2 -33 -5 -55l-30 -191h-32l28 178c5 33 7 54 7 63c0 95 -56 131 -184 131c-80 0 -159 -16 -237 -47z" />
    <glyph glyph-name="uni040C" unicode="&#x40c;" horiz-adv-x="674" 
d="M612 0l-378 365l4 25l426 310h45l-441 -325l386 -375h-42zM140 0h-31l111 700h31zM400 765l116 126h44l-122 -126h-38z" />
    <glyph glyph-name="uni040E" unicode="&#x40e;" horiz-adv-x="627" 
d="M652 700h35l-330 -554c-35 -59 -66 -100 -93 -123s-57 -35 -92 -35c-28 0 -52 4 -72 12l4 30c20 -9 42 -13 66 -13c31 0 58 11 83 34s55 65 89 127l6 11l-220 511h34l206 -478zM274 895h29c-1 -4 -1 -10 -1 -18c0 -55 40 -90 107 -90c72 0 125 45 136 108h31
c-13 -80 -81 -136 -168 -136c-83 0 -136 45 -136 113c0 3 1 11 2 23z" />
    <glyph glyph-name="uni040F" unicode="&#x40f;" horiz-adv-x="740" 
d="M359 -164h-31l26 164h-245l111 700h31l-106 -671h459l107 671h31l-111 -700h-246z" />
    <glyph glyph-name="uni0410" unicode="&#x410;" horiz-adv-x="739" 
d="M704 0h-34l-63 213h-406l-130 -213h-35l430 705h29zM599 241l-124 421l-257 -421h381z" />
    <glyph glyph-name="uni0411" unicode="&#x411;" horiz-adv-x="699" 
d="M207 416h231c140 0 219 -70 219 -181c0 -72 -24 -129 -73 -172c-48 -42 -111 -63 -188 -63h-287l111 700h460l-4 -29h-429zM202 387l-57 -358h251c67 0 122 18 165 53c43 36 65 87 65 152c0 97 -71 153 -194 153h-230z" />
    <glyph glyph-name="uni0412" unicode="&#x412;" horiz-adv-x="728" 
d="M549 379c88 -15 140 -76 140 -160c0 -69 -24 -122 -71 -161s-108 -58 -183 -58h-326l111 700h286c109 0 173 -59 173 -146c0 -84 -47 -150 -130 -175zM502 671h-255l-45 -283h255c53 0 98 14 135 41c37 28 56 68 56 121c0 75 -54 121 -146 121zM198 360l-53 -331h291
c63 0 115 16 157 49s63 80 63 141c0 85 -61 141 -169 141h-289z" />
    <glyph glyph-name="uni0413" unicode="&#x413;" horiz-adv-x="592" 
d="M141 0h-32l111 700h446l-4 -29h-415z" />
    <glyph glyph-name="uni0414" unicode="&#x414;" horiz-adv-x="769" 
d="M27 -164h-30l30 193h64c61 68 109 145 145 232s66 211 91 372l10 67h397l-107 -671h113l-30 -193h-31l26 164h-652zM130 29h466l102 642h-334l-8 -48c-23 -143 -52 -262 -87 -356c-34 -94 -80 -173 -139 -238z" />
    <glyph glyph-name="uni0415" unicode="&#x415;" horiz-adv-x="638" 
d="M587 0h-478l111 700h460l-4 -29h-429l-44 -280h355l-4 -29h-356l-53 -333h446z" />
    <glyph glyph-name="uni0416" unicode="&#x416;" horiz-adv-x="979" 
d="M500 384l-4 -26l-442 -358h-48l460 373l-299 327h41zM932 0l-331 358l4 26l390 316h45l-404 -330l338 -370h-42zM507 0h-31l111 700h31z" />
    <glyph glyph-name="uni0417" unicode="&#x417;" horiz-adv-x="619" 
d="M435 385c84 -20 150 -84 150 -175c0 -47 -14 -88 -43 -123c-57 -69 -146 -99 -247 -99c-83 0 -158 17 -225 52l5 34c64 -38 138 -57 221 -57c112 0 257 55 257 192c0 93 -81 161 -206 161h-84l4 29h89c53 0 99 13 138 39c40 27 60 65 60 116c0 81 -75 129 -187 129
c-71 0 -137 -14 -198 -43l5 34c64 25 129 38 196 38c129 0 216 -58 216 -157c0 -88 -63 -151 -151 -170z" />
    <glyph glyph-name="uni0418" unicode="&#x418;" horiz-adv-x="770" 
d="M631 0l102 647l-596 -647h-28l110 700h32l-102 -645l594 645h29l-110 -700h-31z" />
    <glyph glyph-name="uni0419" unicode="&#x419;" horiz-adv-x="770" 
d="M631 0l102 647l-596 -647h-28l110 700h32l-102 -645l594 645h29l-110 -700h-31zM376 895h29c-1 -4 -1 -10 -1 -18c0 -55 40 -90 107 -90c72 0 125 45 136 108h31c-13 -80 -81 -136 -168 -136c-83 0 -136 45 -136 113c0 3 1 11 2 23z" />
    <glyph glyph-name="uni041A" unicode="&#x41a;" horiz-adv-x="674" 
d="M612 0l-378 365l4 25l426 310h45l-441 -325l386 -375h-42zM140 0h-31l111 700h31z" />
    <glyph glyph-name="uni041B" unicode="&#x41b;" horiz-adv-x="722" 
d="M286 520l34 180h404l-111 -700h-31l107 671h-342l-36 -184c-13 -68 -25 -125 -37 -172c-11 -47 -25 -91 -41 -134c-47 -123 -107 -177 -205 -181h-11l5 31h11c74 -6 127 59 163 139c12 25 24 59 35 100c11 42 21 80 28 115z" />
    <glyph glyph-name="uni041C" unicode="&#x41c;" horiz-adv-x="846" 
d="M848 700l-110 -700h-32l103 649l-325 -349h-25l-215 350l-104 -650h-31l111 700h29l225 -368l340 368h34z" />
    <glyph glyph-name="uni041D" unicode="&#x41d;" horiz-adv-x="759" 
d="M140 0h-31l111 700h31l-49 -309h479l49 309h31l-111 -700h-31l57 362h-479z" />
    <glyph glyph-name="uni041E" unicode="&#x41e;" horiz-adv-x="847" 
d="M502 712c96 0 174 -31 233 -94c60 -63 90 -141 90 -236c0 -107 -35 -200 -106 -278c-70 -77 -158 -116 -264 -116c-96 0 -174 31 -234 94s-90 142 -90 237c0 107 35 199 106 276c71 78 159 117 265 117zM455 17c93 0 173 35 239 106s99 157 99 258c0 86 -27 158 -81 215
c-54 58 -124 87 -210 87c-94 0 -174 -35 -240 -106s-99 -156 -99 -257c0 -86 27 -158 81 -216c55 -58 125 -87 211 -87z" />
    <glyph glyph-name="uni041F" unicode="&#x41f;" horiz-adv-x="745" 
d="M141 0h-32l111 700h527l-111 -700h-31l106 671h-464z" />
    <glyph glyph-name="uni0420" unicode="&#x420;" horiz-adv-x="665" 
d="M109 0l111 700h278c124 0 194 -64 194 -163c0 -61 -22 -111 -67 -149c-44 -38 -99 -57 -166 -57h-266l-53 -331h-31zM198 360h264c54 1 100 16 139 46c39 31 59 73 59 127c0 88 -59 138 -166 138h-247z" />
    <glyph glyph-name="uni0421" unicode="&#x421;" horiz-adv-x="693" 
d="M163 320c0 -85 27 -157 82 -216c55 -58 125 -87 212 -87c80 0 151 22 213 67l-5 -36c-57 -40 -126 -60 -209 -60c-97 0 -175 31 -235 94s-90 142 -90 237c0 107 35 199 105 276c71 78 160 117 268 117c82 0 152 -21 210 -63l-5 -31c-57 43 -126 65 -206 65
c-95 0 -175 -35 -241 -106c-66 -70 -99 -156 -99 -257z" />
    <glyph glyph-name="uni0422" unicode="&#x422;" horiz-adv-x="616" 
d="M323 0h-31l107 671h-255l4 29h542l-4 -29h-256z" />
    <glyph glyph-name="uni0423" unicode="&#x423;" horiz-adv-x="627" 
d="M652 700h35l-330 -554c-35 -59 -66 -100 -93 -123s-57 -35 -92 -35c-28 0 -52 4 -72 12l4 30c20 -9 42 -13 66 -13c31 0 58 11 83 34s55 65 89 127l6 11l-220 511h34l206 -478z" />
    <glyph glyph-name="uni0424" unicode="&#x424;" horiz-adv-x="902" 
d="M463 -26h-32l11 70c-94 4 -169 31 -226 80s-85 113 -85 191c0 103 36 184 108 243s166 88 281 88h17l11 67h32l-11 -67c94 -4 169 -31 226 -81c57 -49 85 -113 85 -190c0 -103 -36 -184 -108 -243s-166 -88 -281 -88h-17zM846 371c0 71 -25 129 -76 173s-119 69 -205 74
l-87 -545h18c101 0 184 26 250 79c67 53 100 126 100 219zM164 319c0 -71 25 -129 76 -173c51 -43 119 -68 206 -73l86 545h-17c-101 0 -185 -26 -252 -79c-66 -53 -99 -126 -99 -220z" />
    <glyph glyph-name="uni0425" unicode="&#x425;" horiz-adv-x="694" 
d="M616 0l-211 356l-322 -356h-42l347 382l-190 318h37l174 -293l266 293h41l-290 -318l229 -382h-39z" />
    <glyph glyph-name="uni0426" unicode="&#x426;" horiz-adv-x="776" 
d="M717 -164h-30l26 164h-604l111 700h31l-106 -671h459l107 671h31l-106 -671h111z" />
    <glyph glyph-name="uni0427" unicode="&#x427;" horiz-adv-x="687" 
d="M606 374l52 326h31l-111 -700h-31l54 341c-80 -29 -160 -43 -239 -43c-137 0 -210 42 -210 154c0 15 2 34 5 56l31 192h31l-28 -179c-4 -28 -6 -49 -6 -64c0 -95 55 -129 184 -129c83 0 162 15 237 46z" />
    <glyph glyph-name="uni0428" unicode="&#x428;" horiz-adv-x="1008" 
d="M899 0h-790l111 700h31l-106 -671h348l106 671h31l-106 -671h348l107 671h31z" />
    <glyph glyph-name="uni0429" unicode="&#x429;" horiz-adv-x="1046" 
d="M987 -164h-31l26 164h-873l111 700h31l-106 -671h349l106 671h31l-106 -671h348l107 671h31l-107 -671h113z" />
    <glyph glyph-name="uni042A" unicode="&#x42a;" horiz-adv-x="780" 
d="M124 700h231l-45 -283h232c139 0 216 -71 216 -180c0 -73 -24 -131 -73 -174c-48 -42 -111 -63 -189 -63h-283l106 671h-199zM306 388l-58 -359h249c66 0 121 18 164 53c44 36 66 87 66 152c0 99 -69 154 -192 154h-229z" />
    <glyph glyph-name="uni042B" unicode="&#x42b;" horiz-adv-x="859" 
d="M861 700l-110 -700h-32l110 700h32zM220 700h31l-44 -283h210c140 0 217 -71 217 -180c0 -73 -24 -131 -73 -174c-49 -42 -112 -63 -189 -63h-263zM202 388l-57 -359h227c67 0 122 18 165 53c44 36 66 87 66 152c0 99 -69 154 -192 154h-209z" />
    <glyph glyph-name="uni042C" unicode="&#x42c;" horiz-adv-x="677" 
d="M220 700h31l-44 -283h231c140 0 217 -71 217 -180c0 -73 -24 -131 -73 -174c-49 -42 -112 -63 -189 -63h-284zM202 388l-57 -359h248c67 0 122 18 165 53c44 36 66 87 66 152c0 99 -69 154 -192 154h-230z" />
    <glyph glyph-name="uni042D" unicode="&#x42d;" horiz-adv-x="677" 
d="M329 712c97 0 176 -31 236 -94s90 -142 90 -237c0 -69 -16 -134 -47 -194c-31 -59 -75 -107 -133 -144c-57 -37 -122 -55 -193 -55c-83 0 -153 21 -210 63l4 32c59 -44 128 -66 206 -66c87 0 163 31 228 92c65 62 102 140 111 234h-362l3 29h360c0 11 0 20 -1 26
c-3 81 -32 149 -85 203c-53 55 -123 82 -208 82c-65 0 -126 -17 -184 -52l5 34c56 31 116 47 180 47z" />
    <glyph glyph-name="uni042E" unicode="&#x42e;" horiz-adv-x="1035" 
d="M717 712c89 0 160 -31 214 -93c55 -62 82 -140 82 -233c0 -97 -34 -195 -93 -271s-153 -127 -258 -127c-89 0 -160 31 -215 93c-54 63 -81 141 -81 234c0 14 0 24 1 31h-171l-55 -346h-32l111 700h32l-51 -324h170c12 92 49 171 111 237c63 66 141 99 235 99zM665 17
c183 -3 321 188 316 370c0 87 -25 158 -75 213s-114 83 -192 83c-61 0 -116 -18 -165 -54c-99 -72 -151 -191 -151 -315c0 -87 25 -158 75 -214c50 -55 114 -83 192 -83z" />
    <glyph glyph-name="uni042F" unicode="&#x42f;" horiz-adv-x="734" 
d="M378 338l-282 -338h-40l284 341c-96 8 -152 70 -152 153c0 63 23 113 68 150c46 37 103 56 171 56h309l-111 -700h-31l53 338h-269zM377 367h275l48 304h-275c-57 0 -105 -15 -145 -46c-40 -30 -60 -73 -60 -129c0 -80 58 -129 157 -129z" />
    <glyph glyph-name="uni0430" unicode="&#x430;" horiz-adv-x="587" 
d="M167 414l6 33c43 25 101 38 173 38c105 0 180 -47 180 -144c0 -13 -1 -28 -4 -47l-29 -183c-3 -15 -4 -27 -4 -37c0 -33 17 -50 50 -50c9 0 17 1 23 4l-4 -26c-7 -3 -17 -5 -29 -5c-45 0 -71 31 -71 78c-59 -58 -129 -87 -209 -87c-51 0 -94 13 -127 39
c-33 27 -50 62 -50 106c0 53 21 93 62 120c41 28 90 42 145 42c75 0 142 -21 201 -62l9 53c4 26 6 43 6 52c0 77 -54 118 -155 118c-67 0 -124 -14 -173 -42zM461 115l15 89c-54 43 -119 64 -194 64c-48 0 -90 -12 -126 -35c-35 -23 -53 -55 -53 -97c0 -76 65 -119 156 -119
c81 0 155 45 202 98z" />
    <glyph glyph-name="uni0431" unicode="&#x431;" horiz-adv-x="613" 
d="M519 684l99 15l-4 -32c-21 -4 -52 -9 -93 -14s-76 -11 -105 -16c-159 -29 -246 -125 -267 -312c51 76 135 133 234 133c63 0 114 -20 154 -60s60 -91 60 -153c0 -69 -24 -129 -71 -180s-107 -77 -178 -77c-73 0 -130 24 -171 73s-61 114 -61 195c0 237 99 374 298 411
c25 5 60 10 105 17zM350 17c61 0 112 23 153 68s62 99 62 162c0 53 -18 96 -53 130c-35 35 -79 52 -130 52s-98 -15 -139 -45c-41 -29 -73 -64 -94 -105c-1 -7 -1 -15 -1 -26c0 -141 73 -236 202 -236z" />
    <glyph glyph-name="uni0432" unicode="&#x432;" horiz-adv-x="566" 
d="M92 0l76 473h235c77 0 120 -44 120 -105c0 -56 -32 -100 -85 -123c51 -12 80 -52 80 -103c0 -91 -69 -142 -169 -142h-257zM396 444h-202l-29 -186h199c71 0 128 38 128 107c0 49 -35 79 -96 79zM129 29h222c77 1 136 40 136 115c0 53 -36 85 -103 85h-224z" />
    <glyph glyph-name="uni0433" unicode="&#x433;" horiz-adv-x="479" 
d="M92 0l75 473h342l-5 -29h-310l-70 -444h-32z" />
    <glyph glyph-name="uni0434" unicode="&#x434;" horiz-adv-x="627" 
d="M596 29l-28 -181h-31l24 152h-510l-24 -152h-30l29 181h57c75 75 127 205 158 390l9 54h323l-70 -444h93zM121 29h351l66 415h-262l-6 -34c-29 -179 -79 -306 -149 -381z" />
    <glyph glyph-name="uni0435" unicode="&#x435;" horiz-adv-x="565" 
d="M333 17c50 0 99 14 147 43l-6 -33c-39 -26 -87 -39 -144 -39c-68 0 -125 21 -171 63c-45 42 -68 96 -68 163c0 73 24 136 71 190c48 54 110 81 185 81c66 0 116 -21 150 -64c34 -42 51 -90 51 -143c0 -11 -1 -24 -2 -40h-423c-1 -5 -1 -14 -1 -25c0 -58 20 -105 60 -142
c41 -36 91 -54 151 -54zM344 456c-55 0 -103 -18 -143 -55s-65 -82 -75 -137h390c1 5 1 11 1 18c0 45 -15 86 -44 121s-72 53 -129 53z" />
    <glyph glyph-name="uni0436" unicode="&#x436;" horiz-adv-x="730" 
d="M382 0h-31l75 473h31zM674 0l-220 242l4 24l254 207h44l-270 -220l229 -253h-41zM174 473l185 -207l-4 -24l-295 -242h-44l312 256l-193 217h39z" />
    <glyph glyph-name="uni0437" unicode="&#x437;" horiz-adv-x="512" 
d="M359 254c59 -13 105 -52 105 -113c0 -51 -22 -89 -66 -115c-43 -25 -97 -38 -160 -38c-64 0 -120 11 -168 33l4 32c49 -24 104 -36 165 -36c90 -2 191 33 193 124c0 60 -60 97 -147 97h-75l4 29h74c93 0 147 46 147 101c0 57 -56 88 -144 88c-53 0 -106 -10 -157 -30
l6 30c51 19 104 29 159 29c99 0 169 -45 169 -114c0 -60 -49 -105 -109 -117z" />
    <glyph glyph-name="uni0438" unicode="&#x438;" horiz-adv-x="601" 
d="M131 51l425 422h28l-75 -473h-32l68 422l-425 -422h-28l75 473h31z" />
    <glyph glyph-name="uni0439" unicode="&#x439;" horiz-adv-x="601" 
d="M131 51l425 422h28l-75 -473h-32l68 422l-425 -422h-28l75 473h31zM259 712h29c-1 -4 -1 -10 -1 -19c0 -53 40 -89 107 -89c72 0 125 45 136 108h31c-13 -81 -80 -136 -167 -136c-84 0 -137 45 -137 113c0 3 1 11 2 23z" />
    <glyph glyph-name="uni043A" unicode="&#x43a;" horiz-adv-x="537" 
d="M123 0h-31l75 473h31zM457 0l-262 246l4 24l293 203h48l-312 -218l274 -255h-45z" />
    <glyph glyph-name="uni043B" unicode="&#x43b;" horiz-adv-x="578" 
d="M20 0l5 31c5 -1 11 -1 19 -1c28 0 53 10 73 35c20 27 36 48 51 96c8 24 15 45 20 64c6 19 12 44 19 76c7 33 12 60 16 82l16 90h322l-75 -473h-32l71 444h-260l-31 -158c-16 -80 -33 -138 -64 -197c-29 -57 -74 -90 -130 -90c-9 0 -15 0 -20 1z" />
    <glyph glyph-name="uni043C" unicode="&#x43c;" horiz-adv-x="683" 
d="M376 225l260 248h30l-74 -473h-31l68 426l-252 -238h-11l-175 239l-68 -427h-31l75 473h28z" />
    <glyph glyph-name="uni043D" unicode="&#x43d;" horiz-adv-x="598" 
d="M516 258l34 215h31l-75 -473h-31l36 229h-351l-37 -229h-31l76 473h31l-34 -215h351z" />
    <glyph glyph-name="uni043E" unicode="&#x43e;" horiz-adv-x="613" 
d="M355 485c71 0 127 -23 170 -68s65 -99 65 -163c0 -73 -25 -136 -76 -188s-113 -78 -188 -78c-71 0 -128 23 -171 68s-64 100 -64 163c0 73 25 136 76 188s113 78 188 78zM326 17c64 0 119 23 164 70c46 47 69 103 69 168c0 57 -19 105 -57 143c-38 39 -87 58 -148 58
c-63 0 -118 -23 -164 -70c-45 -47 -68 -103 -68 -168c0 -57 19 -105 56 -144c38 -38 87 -57 148 -57z" />
    <glyph glyph-name="uni043F" unicode="&#x43f;" horiz-adv-x="590" 
d="M92 0l76 473h405l-76 -473h-32l71 444h-342l-70 -444h-32z" />
    <glyph glyph-name="uni0440" unicode="&#x440;" horiz-adv-x="632" 
d="M138 95l-47 -295h-31l107 673h31l-13 -78c54 60 120 90 198 90c69 0 124 -22 165 -66c41 -43 61 -97 61 -161c0 -75 -25 -138 -75 -191s-113 -79 -188 -79c-93 0 -168 47 -208 107zM377 456c-39 0 -77 -11 -114 -32s-66 -47 -86 -79l-32 -213c15 -31 41 -58 77 -81
s77 -34 122 -34c64 0 119 23 164 70c46 47 69 103 69 170c0 57 -18 105 -55 142c-37 38 -85 57 -145 57z" />
    <glyph glyph-name="uni0441" unicode="&#x441;" horiz-adv-x="513" 
d="M516 441l-6 -30c-42 30 -91 45 -147 45c-68 0 -125 -23 -172 -70c-46 -46 -69 -103 -69 -170c0 -57 19 -104 56 -142c38 -38 88 -57 151 -57c49 0 97 13 142 40l-5 -34c-43 -23 -90 -35 -142 -35c-73 0 -130 22 -171 66c-41 45 -62 98 -62 160c0 77 26 142 77 193
c52 52 116 78 191 78c62 0 114 -15 157 -44z" />
    <glyph glyph-name="uni0442" unicode="&#x442;" horiz-adv-x="464" 
d="M101 444l5 29h402l-5 -29h-185l-70 -444h-32l70 444h-185z" />
    <glyph glyph-name="uni0443" unicode="&#x443;" horiz-adv-x="530" 
d="M524 473h36l-312 -529c-57 -97 -111 -147 -182 -147c-24 0 -44 5 -61 15l6 31c17 -11 36 -17 57 -17c33 0 63 15 89 44c27 29 61 79 102 149l-157 454h33l144 -417z" />
    <glyph glyph-name="uni0444" unicode="&#x444;" horiz-adv-x="709" 
d="M395 482h17l34 218h31l-33 -218c152 -13 242 -100 242 -225c0 -80 -28 -145 -83 -194s-129 -73 -222 -73h-16l-30 -190h-31l30 191c-152 13 -243 100 -243 225c0 80 27 144 82 193s129 73 222 73zM438 453l-68 -434h16c79 0 144 21 194 64c51 43 76 101 76 173
c0 57 -20 102 -60 137s-93 55 -158 60zM338 20l69 433h-16c-79 0 -144 -21 -194 -64s-75 -100 -75 -172c0 -56 20 -102 60 -137s92 -55 156 -60z" />
    <glyph glyph-name="uni0445" unicode="&#x445;" horiz-adv-x="535" 
d="M506 473h41l-218 -222l173 -251h-37l-158 229l-227 -229h-41l251 254l-148 219h37l133 -197z" />
    <glyph glyph-name="uni0446" unicode="&#x446;" horiz-adv-x="621" 
d="M567 473l-71 -444h94l-29 -181h-31l24 152h-462l75 473h31l-69 -444h336l71 444h31z" />
    <glyph glyph-name="uni0447" unicode="&#x447;" horiz-adv-x="551" 
d="M502 473h32l-75 -473h-32l33 211c-57 -24 -117 -36 -180 -36c-108 0 -162 43 -162 129c0 9 2 27 6 54l19 115h31l-18 -115c-3 -18 -5 -35 -5 -52c0 -76 45 -102 144 -102c23 0 50 3 83 10s62 17 87 28z" />
    <glyph glyph-name="uni0448" unicode="&#x448;" horiz-adv-x="801" 
d="M683 29l71 444h30l-74 -473h-618l76 473h31l-70 -444h261l71 444h30l-70 -444h262z" />
    <glyph glyph-name="uni0449" unicode="&#x449;" horiz-adv-x="838" 
d="M784 473l-70 -444h93l-28 -181h-29l23 152h-681l75 473h31l-69 -444h261l70 444h31l-70 -444h262l70 444h31z" />
    <glyph glyph-name="uni044A" unicode="&#x44a;" horiz-adv-x="623" 
d="M246 296h188c99 0 156 -51 156 -131c0 -49 -18 -89 -53 -120c-35 -30 -79 -45 -132 -45h-237l70 444h-152l4 29h184zM203 29h201c42 0 78 12 108 35c31 24 46 57 46 100c0 69 -47 103 -140 103h-176z" />
    <glyph glyph-name="uni044B" unicode="&#x44b;" horiz-adv-x="678" 
d="M554 0l75 473h32l-75 -473h-32zM171 296h159c99 0 156 -51 156 -131c0 -49 -18 -89 -53 -120c-35 -30 -79 -45 -133 -45h-208l75 473h32zM129 29h170c43 0 79 12 109 35c31 23 46 57 46 100c0 69 -47 103 -140 103h-148z" />
    <glyph glyph-name="uni044C" unicode="&#x44c;" horiz-adv-x="548" 
d="M171 296h188c99 0 156 -51 156 -131c0 -49 -17 -89 -52 -120c-35 -30 -79 -45 -133 -45h-238l75 473h32zM129 29h200c42 0 78 12 108 35c31 24 46 57 46 100c0 69 -47 103 -140 103h-177z" />
    <glyph glyph-name="uni044D" unicode="&#x44d;" horiz-adv-x="527" 
d="M79 35l5 32c42 -33 93 -50 152 -50c64 0 117 20 160 60s68 89 74 148h-265l5 29h262c-1 58 -21 106 -58 144c-37 39 -86 58 -148 58c-49 0 -95 -12 -136 -35l5 33c37 21 83 31 136 31c72 0 129 -23 170 -68c42 -45 63 -100 63 -163c0 -76 -26 -139 -77 -190
s-114 -76 -189 -76c-64 0 -117 16 -159 47z" />
    <glyph glyph-name="uni044E" unicode="&#x44e;" horiz-adv-x="785" 
d="M548 485c64 0 116 -22 155 -66c39 -43 59 -98 59 -163c0 -69 -24 -131 -71 -186s-106 -82 -178 -82c-133 0 -214 90 -214 234h-140l-35 -222h-32l75 473h31l-34 -222h137c8 67 34 123 79 167c45 45 101 67 168 67zM515 17c60 0 111 24 153 71s63 104 63 169
c0 57 -17 105 -51 142c-33 38 -78 57 -133 57c-63 0 -116 -23 -157 -70s-61 -105 -61 -175c0 -117 74 -194 186 -194z" />
    <glyph glyph-name="uni044F" unicode="&#x44f;" horiz-adv-x="561" 
d="M300 473h244l-75 -473h-32l31 195h-185l-183 -195h-40l185 199c-79 5 -122 50 -122 117c0 96 68 153 177 157zM276 224h196l35 220h-206c-81 0 -146 -45 -146 -128c0 -59 45 -92 121 -92z" />
    <glyph glyph-name="uni0451" unicode="&#x451;" horiz-adv-x="565" 
d="M333 17c50 0 99 14 147 43l-6 -33c-39 -26 -87 -39 -144 -39c-68 0 -125 21 -171 63c-45 42 -68 96 -68 163c0 73 24 136 71 190c48 54 110 81 185 81c66 0 116 -21 150 -64c34 -42 51 -90 51 -143c0 -11 -1 -24 -2 -40h-423c-1 -5 -1 -14 -1 -25c0 -58 20 -105 60 -142
c41 -36 91 -54 151 -54zM344 456c-55 0 -103 -18 -143 -55s-65 -82 -75 -137h390c1 5 1 11 1 18c0 45 -15 86 -44 121s-72 53 -129 53zM283 647c38 0 38 -58 0 -58c-37 0 -37 58 0 58zM468 647c38 0 38 -58 0 -58c-37 0 -37 58 0 58z" />
    <glyph glyph-name="uni0452" unicode="&#x452;" horiz-adv-x="595" 
d="M549 181l-40 -257c-13 -85 -60 -127 -139 -127c-26 0 -49 5 -68 16l5 31c19 -13 41 -19 64 -19c60 0 96 35 108 106l40 251c7 39 10 68 10 87c0 85 -54 130 -142 130c-84 0 -165 -53 -213 -113l-45 -286h-31l87 553h-102l4 27h103l19 120h31l-19 -120h132l-5 -27h-132
l-35 -222c63 65 135 97 214 97c101 0 165 -58 165 -155c0 -17 -4 -48 -11 -92z" />
    <glyph glyph-name="uni0453" unicode="&#x453;" horiz-adv-x="479" 
d="M92 0l75 473h342l-5 -29h-310l-70 -444h-32zM307 574l117 126h44l-122 -126h-39z" />
    <glyph glyph-name="uni0454" unicode="&#x454;" horiz-adv-x="513" 
d="M516 441l-6 -30c-42 30 -91 45 -147 45c-61 0 -114 -19 -158 -58c-44 -38 -70 -86 -79 -144h260l-4 -29h-259v-9c0 -57 19 -105 56 -143c37 -37 87 -56 150 -56c49 0 97 13 142 40l-5 -34c-43 -23 -90 -35 -142 -35c-73 0 -130 22 -171 66c-41 45 -62 98 -62 160
c0 77 26 142 77 193c52 52 116 78 191 78c62 0 114 -15 157 -44z" />
    <glyph glyph-name="uni0455" unicode="&#x455;" horiz-adv-x="485" 
d="M473 432l-4 -31c-49 37 -109 55 -180 55c-37 0 -71 -8 -102 -24c-30 -16 -45 -41 -45 -76c0 -27 15 -48 44 -64c31 -16 52 -24 95 -37l10 -3c22 -7 38 -13 49 -17c11 -3 25 -9 42 -17c47 -21 65 -46 70 -91c0 -46 -20 -81 -59 -104s-85 -35 -137 -35
c-89 0 -166 32 -206 64l5 33c54 -45 122 -68 203 -68c24 0 47 3 70 8c47 12 93 47 93 99c0 31 -23 56 -68 75c-13 5 -38 14 -76 26c-112 36 -165 65 -165 129c0 43 17 75 52 97c35 23 78 34 127 34c74 0 135 -18 182 -53z" />
    <glyph glyph-name="uni0456" unicode="&#x456;" horiz-adv-x="243" 
d="M137 0h-31l76 473h30zM198 623c-11 12 -11 32 0 43c12 12 32 12 43 0c12 -11 12 -31 0 -43c-11 -11 -31 -11 -43 0z" />
    <glyph glyph-name="uni0457" unicode="&#x457;" horiz-adv-x="243" 
d="M131 674c38 0 38 -58 0 -58c-37 0 -37 58 0 58zM316 674c38 0 38 -58 0 -58c-37 0 -37 58 0 58zM137 0h-31l75 473h31z" />
    <glyph glyph-name="uni0458" unicode="&#x458;" horiz-adv-x="243" 
d="M-13 -203c-26 0 -49 5 -68 16l5 32c19 -13 41 -19 64 -19c61 0 96 35 107 105l86 542h31l-87 -549c-13 -85 -59 -127 -138 -127zM198 623c-11 12 -11 32 0 43c12 12 32 12 43 0c12 -11 12 -31 0 -43c-11 -11 -31 -11 -43 0z" />
    <glyph glyph-name="uni0459" unicode="&#x459;" horiz-adv-x="903" 
d="M525 444h-260l-31 -158c-16 -80 -33 -138 -64 -197c-29 -57 -74 -90 -130 -90c-9 0 -15 0 -20 1l5 30c3 -1 10 -1 19 -1c77 0 131 102 162 269l33 175h322l-28 -177h181c99 0 156 -51 156 -131c0 -49 -17 -89 -52 -120c-35 -30 -79 -45 -133 -45h-231zM491 29h194
c42 0 78 12 108 35c31 24 46 57 46 100c0 69 -47 103 -141 103h-170z" />
    <glyph glyph-name="uni045A" unicode="&#x45a;" horiz-adv-x="889" 
d="M538 274h164c97 0 154 -49 154 -122c0 -47 -18 -85 -53 -112s-80 -40 -133 -40h-207l39 245h-339l-39 -245h-32l76 473h31l-32 -199h339l32 199h32zM500 28h171c41 0 77 10 108 30c31 21 46 52 46 93c0 60 -47 94 -131 94h-160z" />
    <glyph glyph-name="uni045B" unicode="&#x45b;" horiz-adv-x="595" 
d="M549 181l-28 -181h-31l29 182c7 39 10 68 10 87c0 85 -54 130 -142 130c-84 0 -165 -53 -213 -113l-45 -286h-31l87 553h-102l4 27h103l19 120h31l-19 -120h132l-5 -27h-132l-35 -222c63 65 135 97 214 97c101 0 165 -58 165 -155c0 -17 -4 -48 -11 -92z" />
    <glyph glyph-name="uni045C" unicode="&#x45c;" horiz-adv-x="537" 
d="M123 0h-31l75 473h31zM457 0l-262 246l4 24l293 203h48l-312 -218l274 -255h-45zM304 574l117 126h44l-122 -126h-39z" />
    <glyph glyph-name="uni045E" unicode="&#x45e;" horiz-adv-x="530" 
d="M524 473h36l-312 -529c-57 -97 -111 -147 -182 -147c-24 0 -44 5 -61 15l6 31c17 -11 36 -17 57 -17c33 0 63 15 89 44c27 29 61 79 102 149l-157 454h33l144 -417zM205 712h29c-1 -4 -1 -10 -1 -19c0 -53 40 -89 107 -89c72 0 125 45 136 108h31
c-13 -81 -80 -136 -167 -136c-84 0 -137 45 -137 113c0 3 1 11 2 23z" />
    <glyph glyph-name="uni045F" unicode="&#x45f;" horiz-adv-x="584" 
d="M283 -152h-31l24 152h-184l75 473h31l-70 -444h337l71 444h31l-75 -473h-185z" />
    <glyph glyph-name="uni0490" unicode="&#x490;" horiz-adv-x="587" 
d="M141 0h-32l111 700h411l24 149h29l-28 -178h-409z" />
    <glyph glyph-name="uni0491" unicode="&#x491;" horiz-adv-x="479" 
d="M123 0h-31l75 473h312l22 136h30l-27 -165h-310z" />
    <glyph glyph-name="uni1E02" unicode="&#x1e02;" horiz-adv-x="728" 
d="M549 379c88 -15 140 -76 140 -160c0 -69 -24 -122 -71 -161s-108 -58 -183 -58h-326l111 700h286c109 0 173 -59 173 -146c0 -84 -47 -150 -130 -175zM502 671h-255l-45 -283h255c53 0 98 14 135 41c37 28 56 68 56 121c0 75 -54 121 -146 121zM198 360l-53 -331h291
c63 0 115 16 157 49s63 80 63 141c0 85 -61 141 -169 141h-289zM485 801c-28 -28 -72 16 -44 44s72 -16 44 -44z" />
    <glyph glyph-name="uni1E03" unicode="&#x1e03;" horiz-adv-x="632" 
d="M138 95l-15 -95h-31l111 700h31l-49 -305c54 60 120 90 198 90c69 0 124 -22 165 -66c41 -43 61 -97 61 -161c0 -75 -25 -138 -75 -191s-113 -79 -188 -79c-93 0 -168 47 -208 107zM377 456c-39 0 -77 -11 -114 -32s-66 -47 -86 -79l-32 -213c15 -31 41 -58 77 -81
s77 -34 122 -34c64 0 119 23 165 70s69 103 69 170c0 57 -18 105 -55 142c-37 38 -85 57 -146 57zM463 801c-28 -28 -72 16 -44 44s72 -16 44 -44z" />
    <glyph glyph-name="uni1E0A" unicode="&#x1e0a;" horiz-adv-x="775" 
d="M220 700h191c103 0 186 -29 248 -86c63 -57 94 -131 94 -224c0 -117 -40 -211 -119 -283c-79 -71 -181 -107 -305 -107h-220zM145 29h190c111 1 203 34 276 99c73 66 110 153 110 262c0 85 -28 153 -85 204c-56 51 -134 77 -233 77h-156zM484 801c-28 -28 -72 16 -44 44
s72 -16 44 -44z" />
    <glyph glyph-name="uni1E0B" unicode="&#x1e0b;" horiz-adv-x="625" 
d="M562 378l51 322h31l-111 -700h-31l13 78c-54 -60 -120 -90 -198 -90c-69 0 -124 22 -165 65c-41 44 -61 98 -61 162c0 75 25 138 75 191s113 79 188 79c93 0 168 -48 208 -107zM323 17c39 0 77 10 114 31s66 48 86 80l31 212c-15 31 -40 58 -76 81s-77 35 -123 35
c-63 0 -118 -23 -164 -70s-69 -103 -69 -170c0 -57 18 -105 55 -143c37 -37 85 -56 146 -56zM465 801c-28 -28 -72 16 -44 44s72 -16 44 -44z" />
    <glyph glyph-name="uni1E1E" unicode="&#x1e1e;" horiz-adv-x="615" 
d="M140 0h-31l111 700h456l-5 -29h-424l-46 -289h354l-5 -29h-353zM484 801c-28 -28 -72 16 -44 44s72 -16 44 -44z" />
    <glyph glyph-name="uni1E1F" unicode="&#x1e1f;" horiz-adv-x="367" 
d="M407 444h-176l-70 -444h-30l69 444h-100l4 29h101l17 109c13 83 60 124 139 124c32 0 60 -7 84 -20l-4 -31c-27 15 -53 22 -80 22c-62 0 -99 -35 -110 -104l-15 -100h175zM389 801c-28 -28 -72 16 -44 44s72 -16 44 -44z" />
    <glyph glyph-name="uni1E40" unicode="&#x1e40;" horiz-adv-x="846" 
d="M848 700l-110 -700h-32l103 649l-325 -349h-25l-215 350l-104 -650h-31l111 700h29l225 -368l340 368h34zM565 801c-28 -28 -72 16 -44 44s72 -16 44 -44z" />
    <glyph glyph-name="uni1E41" unicode="&#x1e41;" horiz-adv-x="910" 
d="M92 0l75 473h31l-13 -79c51 61 115 91 192 91s133 -39 146 -106c55 71 122 106 203 106c93 0 149 -56 149 -148c0 -15 -2 -36 -7 -64l-42 -273h-32l43 277c4 24 6 42 6 54c0 83 -42 125 -125 125c-75 0 -149 -49 -192 -116l-6 -54l-44 -286h-31l44 283c4 23 6 40 6 53
c0 49 -19 85 -48 100c-28 16 -51 20 -78 20c-71 0 -147 -46 -191 -111l-55 -345h-31zM582 623c-28 -28 -72 16 -44 44s72 -16 44 -44z" />
    <glyph glyph-name="uni1E56" unicode="&#x1e56;" horiz-adv-x="665" 
d="M109 0l111 700h278c124 0 194 -64 194 -163c0 -61 -22 -111 -67 -149c-44 -38 -99 -57 -166 -57h-266l-53 -331h-31zM198 360h264c54 1 100 16 139 46c39 31 59 73 59 127c0 88 -59 138 -166 138h-247zM485 801c-28 -28 -72 16 -44 44s72 -16 44 -44z" />
    <glyph glyph-name="uni1E57" unicode="&#x1e57;" horiz-adv-x="632" 
d="M138 95l-47 -295h-31l107 673h31l-13 -78c54 60 120 90 198 90c69 0 124 -22 165 -66c41 -43 61 -97 61 -161c0 -75 -25 -138 -75 -191s-113 -79 -188 -79c-93 0 -168 47 -208 107zM377 456c-39 0 -77 -11 -114 -32s-66 -47 -86 -79l-32 -213c15 -31 41 -58 77 -81
s77 -34 122 -34c64 0 119 23 164 70c46 47 69 103 69 170c0 57 -18 105 -55 142c-37 38 -85 57 -145 57zM442 623c-28 -28 -72 16 -44 44s72 -16 44 -44z" />
    <glyph glyph-name="uni1E60" unicode="&#x1e60;" horiz-adv-x="620" 
d="M608 651l-5 -30c-62 41 -134 62 -216 62c-33 0 -66 -5 -97 -15c-31 -9 -58 -26 -82 -51s-36 -55 -36 -90c0 -20 3 -38 14 -53c12 -15 18 -25 39 -37c21 -11 26 -15 54 -26l30 -10l33 -10l31 -9l52 -17c12 -3 28 -9 48 -18c20 -8 35 -16 46 -24c36 -24 73 -66 69 -122
c0 -66 -27 -118 -81 -156s-117 -57 -190 -57c-52 0 -103 8 -153 23c-49 16 -85 33 -107 52l6 34c22 -21 57 -39 104 -56c47 -16 97 -24 150 -24c36 0 71 6 106 17c35 12 66 32 93 60c27 29 40 63 40 102c0 37 -19 70 -40 90c-11 10 -26 20 -47 29c-20 9 -38 16 -53 21
s-36 12 -63 20c-57 16 -85 24 -126 43c-56 29 -82 62 -86 124c0 61 24 107 73 140s107 49 174 49c92 0 165 -20 220 -61zM443 801c-28 -28 -72 16 -44 44s72 -16 44 -44z" />
    <glyph glyph-name="uni1E61" unicode="&#x1e61;" horiz-adv-x="487" 
d="M474 432l-4 -31c-49 37 -109 55 -180 55c-37 0 -71 -8 -102 -24c-30 -16 -45 -41 -45 -76c0 -27 15 -48 44 -64c31 -16 52 -24 95 -37l10 -3c22 -7 38 -13 49 -17c11 -3 25 -9 42 -17c47 -21 65 -46 70 -91c0 -46 -20 -81 -59 -104s-85 -35 -137 -35
c-89 0 -166 32 -206 64l5 33c54 -45 122 -68 203 -68c24 0 47 3 70 8c47 12 93 47 93 99c0 31 -23 56 -68 75c-13 5 -38 14 -76 26c-112 36 -165 65 -165 129c0 43 17 75 52 97c35 23 78 34 127 34c74 0 135 -18 182 -53zM351 623c-28 -28 -72 16 -44 44s72 -16 44 -44z" />
    <glyph glyph-name="uni1E6A" unicode="&#x1e6a;" horiz-adv-x="616" 
d="M323 0h-31l107 671h-255l4 29h542l-4 -29h-256zM458 801c-28 -28 -72 16 -44 44s72 -16 44 -44z" />
    <glyph glyph-name="uni1E6B" unicode="&#x1e6b;" horiz-adv-x="419" 
d="M224 444h-125l5 29h124l25 157h31l-25 -157h185l-5 -29h-184l-47 -296c-5 -35 -8 -58 -8 -67c-4 -66 71 -85 167 -39l-5 -32c-24 -15 -54 -22 -91 -22c-69 0 -103 29 -103 87c0 7 1 20 4 39s4 30 4 31zM306 702c-28 -28 -72 16 -44 44s72 -16 44 -44z" />
    <glyph glyph-name="Wgrave" unicode="&#x1e80;" horiz-adv-x="1035" 
d="M313 50l299 650h28l95 -648l325 648h36l-356 -704h-28l-94 644l-298 -644h-28l-134 704h34zM534 891h41l76 -126h-34z" />
    <glyph glyph-name="wgrave" unicode="&#x1e81;" horiz-adv-x="810" 
d="M578 46l224 427h35l-251 -477h-28l-86 430l-222 -430h-28l-100 477h31l90 -426l222 428h27zM393 700h41l75 -126h-33z" />
    <glyph glyph-name="Wacute" unicode="&#x1e82;" horiz-adv-x="1035" 
d="M313 50l299 650h28l95 -648l325 648h36l-356 -704h-28l-94 644l-298 -644h-28l-134 704h34zM616 765l116 126h44l-122 -126h-38z" />
    <glyph glyph-name="wacute" unicode="&#x1e83;" horiz-adv-x="810" 
d="M578 46l224 427h35l-251 -477h-28l-86 430l-222 -430h-28l-100 477h31l90 -426l222 428h27zM476 574l117 126h44l-122 -126h-39z" />
    <glyph glyph-name="Wdieresis" unicode="&#x1e84;" horiz-adv-x="1035" 
d="M313 50l299 650h28l95 -648l325 648h36l-356 -704h-28l-94 644l-298 -644h-28l-134 704h34zM521 824c0 37 58 37 58 0c0 -38 -58 -38 -58 0zM735 795c-16 0 -29 12 -29 29c0 16 13 29 29 29c17 0 29 -13 29 -29c0 -17 -12 -29 -29 -29z" />
    <glyph glyph-name="wdieresis" unicode="&#x1e85;" horiz-adv-x="810" 
d="M578 46l224 427h35l-251 -477h-28l-86 430l-222 -430h-28l-100 477h31l90 -426l222 428h27zM408 674c38 0 38 -58 0 -58c-37 0 -37 58 0 58zM593 674c38 0 38 -58 0 -58c-37 0 -37 58 0 58z" />
    <glyph glyph-name="Ygrave" unicode="&#x1ef2;" horiz-adv-x="635" 
d="M371 357l306 343h40l-332 -374l-51 -326h-32l51 326l-214 374h36zM350 891h41l76 -126h-34z" />
    <glyph glyph-name="ygrave" unicode="&#x1ef3;" horiz-adv-x="530" 
d="M524 473h36l-312 -529c-57 -97 -111 -147 -182 -147c-24 0 -44 5 -61 15l6 31c17 -11 36 -17 57 -17c33 0 63 15 89 44c27 29 61 79 102 149l-157 454h33l144 -417zM258 700h41l75 -126h-33z" />
    <glyph glyph-name="endash" unicode="&#x2013;" horiz-adv-x="686" 
d="M633 254h-500l6 29h500z" />
    <glyph glyph-name="emdash" unicode="&#x2014;" horiz-adv-x="879" 
d="M827 254h-694l6 29h693z" />
    <glyph glyph-name="uni2015" unicode="&#x2015;" horiz-adv-x="846" 
d="M795 152h-694l6 29h693z" />
    <glyph glyph-name="quoteleft" unicode="&#x2018;" horiz-adv-x="183" 
d="M222 700h28l-110 -228h-39z" />
    <glyph glyph-name="quoteright" unicode="&#x2019;" horiz-adv-x="183" 
d="M129 473h-28l110 228h39z" />
    <glyph glyph-name="quotesinglbase" unicode="&#x201a;" horiz-adv-x="218" 
d="M41 -152h-28l110 228h39z" />
    <glyph glyph-name="quotedblleft" unicode="&#x201c;" horiz-adv-x="297" 
d="M336 700h28l-110 -228h-39zM222 700h28l-110 -228h-39z" />
    <glyph glyph-name="quotedblright" unicode="&#x201d;" horiz-adv-x="298" 
d="M244 473h-28l110 228h39zM129 473h-28l110 228h39z" />
    <glyph glyph-name="quotedblbase" unicode="&#x201e;" horiz-adv-x="332" 
d="M155 -152h-28l110 228h39zM41 -152h-28l110 228h39z" />
    <glyph glyph-name="dagger" unicode="&#x2020;" horiz-adv-x="536" 
d="M284 0h-31l70 444h-186l5 30h186l36 226h31l-36 -226h185l-4 -30h-186z" />
    <glyph glyph-name="daggerdbl" unicode="&#x2021;" horiz-adv-x="546" 
d="M284 0h-31l35 225h-186l5 29h186l30 190h-186l5 30h186l36 226h31l-36 -226h185l-5 -30h-185l-30 -190h185l-5 -29h-185z" />
    <glyph glyph-name="bullet" unicode="&#x2022;" horiz-adv-x="402" 
d="M345 358c0 -51 -42 -91 -93 -91c-49 0 -90 40 -90 91c0 49 41 90 90 90c51 0 93 -41 93 -90z" />
    <glyph glyph-name="ellipsis" unicode="&#x2026;" horiz-adv-x="603" 
d="M86 6c-11 12 -11 32 0 43c12 12 32 12 43 0c12 -11 12 -31 0 -43c-11 -11 -31 -11 -43 0zM283 6c-11 12 -11 32 0 43c12 12 32 12 43 0c12 -11 12 -31 0 -43c-11 -11 -31 -11 -43 0zM480 6c-11 12 -11 32 0 43c12 12 32 12 43 0c12 -11 12 -31 0 -43
c-11 -11 -31 -11 -43 0z" />
    <glyph glyph-name="perthousand" unicode="&#x2030;" horiz-adv-x="1191" 
d="M189 0l512 700h35l-512 -700h-35zM313 712c47 0 85 -15 113 -45s42 -66 42 -109c0 -49 -17 -91 -50 -126s-74 -52 -123 -52c-47 0 -85 15 -114 45c-28 31 -42 67 -42 110c0 49 17 90 50 125s75 52 124 52zM295 407c39 0 73 15 101 44c29 30 43 66 43 107
c0 72 -51 127 -127 127c-40 0 -74 -15 -102 -44c-27 -29 -41 -65 -41 -106c0 -72 51 -128 126 -128zM631 320c47 0 84 -15 112 -46c29 -30 43 -66 43 -109c0 -49 -17 -90 -50 -125s-75 -52 -124 -52c-47 0 -85 15 -113 45c-28 31 -42 67 -42 110c0 49 17 90 50 125
s75 52 124 52zM612 15c40 0 74 15 102 44c28 30 42 65 42 106c0 73 -50 128 -126 128c-40 0 -74 -15 -102 -44s-42 -65 -42 -106c0 -72 51 -128 126 -128zM1002 320c47 0 84 -15 112 -46c28 -30 42 -66 42 -109c0 -49 -17 -90 -50 -125s-74 -52 -123 -52
c-47 0 -85 15 -114 45c-28 31 -42 67 -42 110c0 49 17 90 50 125s75 52 125 52zM983 15c40 0 74 15 102 44c28 30 42 65 42 106c0 72 -51 128 -126 128c-40 0 -74 -15 -102 -44s-42 -65 -42 -106c0 -72 51 -128 126 -128z" />
    <glyph glyph-name="guilsinglleft" unicode="&#x2039;" horiz-adv-x="324" 
d="M239 42h-36l-130 185l3 20l188 184h40l-198 -197z" />
    <glyph glyph-name="guilsinglright" unicode="&#x203a;" horiz-adv-x="324" 
d="M160 431h36l129 -185l-3 -20l-188 -184h-39l197 197z" />
    <glyph glyph-name="fraction" unicode="&#x2044;" horiz-adv-x="164" 
d="M-146 0l514 700h36l-514 -700h-36z" />
    <glyph glyph-name="zerosuperior" unicode="&#x2070;" horiz-adv-x="386" 
d="M290 704c84 0 137 -67 137 -164c0 -57 -16 -108 -48 -154c-32 -45 -73 -68 -124 -68c-84 0 -136 67 -136 164c0 57 16 108 47 153c32 46 73 69 124 69zM256 345c41 0 75 20 101 61s39 86 39 134c0 76 -37 137 -106 137c-41 0 -75 -21 -101 -62s-39 -85 -39 -133
c0 -76 37 -137 106 -137z" />
    <glyph glyph-name="foursuperior" unicode="&#x2074;" horiz-adv-x="348" 
d="M311 322h-30l16 106h-204l3 23l247 249h27l-38 -245h64l-5 -27h-63zM333 652l-197 -197h165z" />
    <glyph glyph-name="fivesuperior" unicode="&#x2075;" horiz-adv-x="335" 
d="M231 559c81 0 132 -49 132 -112c0 -41 -16 -72 -47 -95s-69 -34 -113 -34s-80 10 -109 29l4 30c31 -21 66 -32 105 -32c32 0 61 9 88 26s41 42 41 73c0 49 -40 89 -108 89c-26 0 -55 -4 -88 -13l54 180h186l-3 -27h-162l-36 -119c19 3 37 5 56 5z" />
    <glyph glyph-name="sixsuperior" unicode="&#x2076;" horiz-adv-x="348" 
d="M300 677c-79 0 -139 -66 -151 -173c31 39 70 58 117 58c67 0 115 -48 115 -109c0 -37 -13 -69 -39 -96c-25 -26 -57 -39 -96 -39c-77 0 -129 57 -129 153c0 36 6 71 18 105c24 68 84 128 165 128c36 0 66 -9 89 -26l-4 -29c-25 19 -53 28 -85 28zM260 535
c-44 0 -89 -29 -113 -70c0 -65 34 -120 99 -120c59 0 104 46 104 107c0 49 -38 83 -90 83z" />
    <glyph glyph-name="sevensuperior" unicode="&#x2077;" horiz-adv-x="306" 
d="M145 322h-34l234 351h-208l4 27h244l-4 -24z" />
    <glyph glyph-name="eightsuperior" unicode="&#x2078;" horiz-adv-x="354" 
d="M314 519c47 -15 75 -49 75 -90c0 -33 -14 -60 -43 -81c-28 -20 -61 -30 -100 -30c-80 0 -145 40 -145 105c0 52 41 94 102 103c-38 16 -57 42 -57 79c0 59 57 99 126 99c31 0 60 -8 85 -25c26 -16 39 -38 39 -67c0 -48 -37 -84 -82 -93zM176 602c0 -43 45 -69 93 -69
c49 0 97 29 97 74c0 44 -44 70 -95 70c-48 0 -95 -28 -95 -75zM244 345c60 0 114 33 114 85c0 47 -49 79 -112 79s-115 -31 -115 -84c0 -24 11 -43 34 -58s50 -22 79 -22z" />
    <glyph glyph-name="ninesuperior" unicode="&#x2079;" horiz-adv-x="349" 
d="M211 345c77 0 138 66 150 173c-31 -39 -70 -58 -117 -58c-67 0 -115 48 -115 109c0 37 13 69 38 95c26 27 58 40 97 40c77 0 129 -57 129 -153c0 -36 -6 -71 -18 -105c-24 -68 -84 -128 -165 -128c-36 0 -66 9 -89 26l4 29c25 -19 53 -28 86 -28zM250 487
c45 0 89 29 113 70c0 67 -32 120 -99 120c-59 0 -104 -46 -104 -107c0 -49 38 -83 90 -83z" />
    <glyph glyph-name="zeroinferior" unicode="&#x2080;" horiz-adv-x="386" 
d="M240 382c84 0 137 -67 137 -164c0 -57 -16 -108 -48 -154c-32 -45 -73 -68 -124 -68c-84 0 -136 67 -136 164c0 57 16 108 47 153c32 46 73 69 124 69zM206 23c41 0 75 20 101 61s39 86 39 134c0 76 -37 137 -106 137c-41 0 -75 -21 -101 -62s-39 -85 -39 -133
c0 -76 37 -137 106 -137z" />
    <glyph glyph-name="oneinferior" unicode="&#x2081;" horiz-adv-x="248" 
d="M154 0h-30l54 343l-115 -65l5 33l118 67h27z" />
    <glyph glyph-name="twoinferior" unicode="&#x2082;" horiz-adv-x="347" 
d="M92 305l5 36c33 27 71 41 113 41c71 0 116 -44 116 -103c0 -51 -35 -93 -103 -150l-125 -102h209l-4 -27h-257l4 23l149 123c65 53 96 86 96 129c0 48 -39 80 -88 80c-37 0 -75 -17 -115 -50z" />
    <glyph glyph-name="threeinferior" unicode="&#x2083;" horiz-adv-x="316" 
d="M322 378l-3 -21l-138 -124c68 -3 117 -41 117 -105c0 -41 -15 -74 -45 -97c-29 -23 -65 -35 -108 -35c-47 0 -85 10 -115 31l4 30c28 -23 65 -34 110 -34c33 0 61 9 86 28s38 44 38 76c0 52 -45 82 -105 82c-10 0 -21 -1 -32 -3l4 23l138 122h-180l3 27h226z" />
    <glyph glyph-name="fourinferior" unicode="&#x2084;" horiz-adv-x="348" 
d="M261 0h-30l16 106h-204l3 23l247 249h27l-38 -245h64l-5 -27h-63zM283 330l-197 -197h165z" />
    <glyph glyph-name="fiveinferior" unicode="&#x2085;" horiz-adv-x="335" 
d="M181 237c81 0 132 -49 132 -112c0 -41 -16 -72 -47 -95s-69 -34 -113 -34s-80 10 -109 29l4 30c31 -21 66 -32 105 -32c32 0 61 9 88 26s41 42 41 73c0 49 -40 89 -108 89c-26 0 -55 -4 -88 -13l54 180h186l-3 -27h-162l-36 -119c19 3 37 5 56 5z" />
    <glyph glyph-name="sixinferior" unicode="&#x2086;" horiz-adv-x="348" 
d="M250 355c-79 0 -139 -66 -151 -173c31 39 70 58 117 58c67 0 115 -48 115 -109c0 -37 -13 -69 -39 -96c-25 -26 -57 -39 -96 -39c-77 0 -129 57 -129 153c0 36 6 71 18 105c24 68 84 128 165 128c36 0 66 -9 89 -26l-4 -29c-25 19 -53 28 -85 28zM210 213
c-44 0 -89 -29 -113 -70c0 -65 34 -120 99 -120c59 0 104 46 104 107c0 49 -38 83 -90 83z" />
    <glyph glyph-name="seveninferior" unicode="&#x2087;" horiz-adv-x="306" 
d="M95 0h-34l234 351h-208l4 27h244l-4 -24z" />
    <glyph glyph-name="eightinferior" unicode="&#x2088;" horiz-adv-x="354" 
d="M264 197c47 -15 75 -49 75 -90c0 -33 -14 -60 -43 -81c-28 -20 -61 -30 -100 -30c-80 0 -145 40 -145 105c0 52 41 94 102 103c-38 16 -57 42 -57 79c0 59 57 99 126 99c31 0 60 -8 85 -25c26 -16 39 -38 39 -67c0 -48 -37 -84 -82 -93zM126 280c0 -43 45 -69 93 -69
c49 0 97 29 97 74c0 44 -44 70 -95 70c-48 0 -95 -28 -95 -75zM194 23c60 0 114 33 114 85c0 47 -49 79 -112 79s-115 -31 -115 -84c0 -24 11 -43 34 -58s50 -22 79 -22z" />
    <glyph glyph-name="nineinferior" unicode="&#x2089;" horiz-adv-x="348" 
d="M162 23c77 0 138 66 150 173c-31 -39 -70 -58 -117 -58c-67 0 -115 48 -115 109c0 37 13 69 38 95c26 27 58 40 97 40c77 0 129 -57 129 -153c0 -36 -6 -71 -18 -105c-24 -68 -84 -128 -165 -128c-36 0 -66 9 -89 26l4 29c25 -19 53 -28 86 -28zM201 165
c45 0 89 29 113 70c0 67 -32 120 -99 120c-59 0 -104 -46 -104 -107c0 -49 38 -83 90 -83z" />
    <glyph glyph-name="franc" unicode="&#x20a3;" horiz-adv-x="619" 
d="M144 0h-31l28 176h-120l4 29h120l79 495h456l-5 -29h-424l-46 -289h355l-6 -29h-354l-23 -148h188l-3 -29h-190z" />
    <glyph glyph-name="lira" unicode="&#x20a4;" horiz-adv-x="576" 
d="M245 490l-13 -77h301l-5 -29h-300l-21 -125h302l-5 -29h-301l-24 -146c-5 -28 -14 -46 -27 -55h369l-4 -29h-448l5 29h25c21 0 38 18 46 51c5 17 8 32 11 47s5 34 8 55c3 22 5 38 7 48h-64l4 29h64l21 125h-65l5 29h64l14 83c23 139 112 216 249 216
c66 0 118 -16 157 -49l-6 -32c-35 35 -86 52 -153 52c-119 0 -197 -69 -216 -193z" />
    <glyph glyph-name="peseta" unicode="&#x20a7;" horiz-adv-x="707" 
d="M188 501h-86l5 28h86l27 171h278c124 0 194 -64 194 -163v-8h77l-5 -28h-76c-9 -51 -34 -93 -77 -124c-42 -31 -93 -46 -152 -46h-266l-53 -331h-31zM198 360h264c54 1 100 16 139 46c39 31 59 73 59 127c0 88 -59 138 -166 138h-247z" />
    <glyph glyph-name="Euro" unicode="&#x20ac;" horiz-adv-x="696" 
d="M115 425l5 31h87c23 75 62 136 117 184c56 48 124 72 205 72c74 0 137 -21 188 -62l-5 -33c-54 44 -115 66 -184 66s-129 -21 -180 -64c-50 -42 -86 -96 -107 -163h298l-4 -29h-304c-10 -42 -15 -84 -15 -125h299l-5 -29h-293c7 -79 34 -142 83 -188
c49 -45 108 -68 179 -68c72 0 136 22 193 67l-5 -36c-49 -40 -112 -60 -189 -60c-81 0 -149 25 -203 76c-53 51 -83 120 -90 209h-94l5 29h88c0 44 5 85 14 123h-83z" />
    <glyph glyph-name="uni20B4" unicode="&#x20b4;" horiz-adv-x="606" 
d="M325 -12c-123 0 -196 50 -196 130c0 59 33 111 100 154h-118l6 28h467l-6 -28h-299c-77 -41 -116 -92 -116 -151c0 -69 56 -104 168 -104c62 0 120 13 174 38l-5 -31c-53 -24 -111 -36 -175 -36zM406 712c120 0 190 -50 190 -127c0 -55 -28 -102 -85 -139h95l-5 -29h-467
l5 29h326c65 39 97 85 97 137c0 64 -57 100 -162 100c-57 0 -113 -12 -168 -36l5 31c50 23 106 34 169 34z" />
    <glyph glyph-name="uni20B6" unicode="&#x20b6;" horiz-adv-x="654" 
d="M172 359l54 341h257c124 0 195 -65 195 -165c0 -61 -22 -110 -67 -148c-44 -38 -99 -57 -166 -57h-245l-20 -125h314l-4 -29h-315l-27 -176h-32l27 176h-91l4 29h92l20 125h-92l5 29h91zM205 359h239c55 1 103 16 142 46s59 72 59 127c0 88 -60 139 -167 139h-224z" />
    <glyph glyph-name="uni20B6" unicode="&#x20cf;" horiz-adv-x="654" 
d="M172 359l54 341h257c124 0 195 -65 195 -165c0 -61 -22 -110 -67 -148c-44 -38 -99 -57 -166 -57h-245l-20 -125h314l-4 -29h-315l-27 -176h-32l27 176h-91l4 29h92l20 125h-92l5 29h91zM205 359h239c55 1 103 16 142 46s59 72 59 127c0 88 -60 139 -167 139h-224z" />
    <glyph glyph-name="uni20B6" unicode="&#x20ce;" horiz-adv-x="654" 
d="M172 359l54 341h257c124 0 195 -65 195 -165c0 -61 -22 -110 -67 -148c-44 -38 -99 -57 -166 -57h-245l-20 -125h314l-4 -29h-315l-27 -176h-32l27 176h-91l4 29h92l20 125h-92l5 29h91zM205 359h239c55 1 103 16 142 46s59 72 59 127c0 88 -60 139 -167 139h-224z" />
    <glyph glyph-name="uni20B6" unicode="&#x20cd;" horiz-adv-x="654" 
d="M172 359l54 341h257c124 0 195 -65 195 -165c0 -61 -22 -110 -67 -148c-44 -38 -99 -57 -166 -57h-245l-20 -125h314l-4 -29h-315l-27 -176h-32l27 176h-91l4 29h92l20 125h-92l5 29h91zM205 359h239c55 1 103 16 142 46s59 72 59 127c0 88 -60 139 -167 139h-224z" />
    <glyph glyph-name="uni20B6" unicode="&#x20cc;" horiz-adv-x="654" 
d="M172 359l54 341h257c124 0 195 -65 195 -165c0 -61 -22 -110 -67 -148c-44 -38 -99 -57 -166 -57h-245l-20 -125h314l-4 -29h-315l-27 -176h-32l27 176h-91l4 29h92l20 125h-92l5 29h91zM205 359h239c55 1 103 16 142 46s59 72 59 127c0 88 -60 139 -167 139h-224z" />
    <glyph glyph-name="uni20B6" unicode="&#x20cb;" horiz-adv-x="654" 
d="M172 359l54 341h257c124 0 195 -65 195 -165c0 -61 -22 -110 -67 -148c-44 -38 -99 -57 -166 -57h-245l-20 -125h314l-4 -29h-315l-27 -176h-32l27 176h-91l4 29h92l20 125h-92l5 29h91zM205 359h239c55 1 103 16 142 46s59 72 59 127c0 88 -60 139 -167 139h-224z" />
    <glyph glyph-name="uni20B6" unicode="&#x20ca;" horiz-adv-x="654" 
d="M172 359l54 341h257c124 0 195 -65 195 -165c0 -61 -22 -110 -67 -148c-44 -38 -99 -57 -166 -57h-245l-20 -125h314l-4 -29h-315l-27 -176h-32l27 176h-91l4 29h92l20 125h-92l5 29h91zM205 359h239c55 1 103 16 142 46s59 72 59 127c0 88 -60 139 -167 139h-224z" />
    <glyph glyph-name="uni20B6" unicode="&#x20c9;" horiz-adv-x="654" 
d="M172 359l54 341h257c124 0 195 -65 195 -165c0 -61 -22 -110 -67 -148c-44 -38 -99 -57 -166 -57h-245l-20 -125h314l-4 -29h-315l-27 -176h-32l27 176h-91l4 29h92l20 125h-92l5 29h91zM205 359h239c55 1 103 16 142 46s59 72 59 127c0 88 -60 139 -167 139h-224z" />
    <glyph glyph-name="uni20B6" unicode="&#x20c8;" horiz-adv-x="654" 
d="M172 359l54 341h257c124 0 195 -65 195 -165c0 -61 -22 -110 -67 -148c-44 -38 -99 -57 -166 -57h-245l-20 -125h314l-4 -29h-315l-27 -176h-32l27 176h-91l4 29h92l20 125h-92l5 29h91zM205 359h239c55 1 103 16 142 46s59 72 59 127c0 88 -60 139 -167 139h-224z" />
    <glyph glyph-name="uni20B6" unicode="&#x20c7;" horiz-adv-x="654" 
d="M172 359l54 341h257c124 0 195 -65 195 -165c0 -61 -22 -110 -67 -148c-44 -38 -99 -57 -166 -57h-245l-20 -125h314l-4 -29h-315l-27 -176h-32l27 176h-91l4 29h92l20 125h-92l5 29h91zM205 359h239c55 1 103 16 142 46s59 72 59 127c0 88 -60 139 -167 139h-224z" />
    <glyph glyph-name="uni20B6" unicode="&#x20c6;" horiz-adv-x="654" 
d="M172 359l54 341h257c124 0 195 -65 195 -165c0 -61 -22 -110 -67 -148c-44 -38 -99 -57 -166 -57h-245l-20 -125h314l-4 -29h-315l-27 -176h-32l27 176h-91l4 29h92l20 125h-92l5 29h91zM205 359h239c55 1 103 16 142 46s59 72 59 127c0 88 -60 139 -167 139h-224z" />
    <glyph glyph-name="uni20B6" unicode="&#x20c5;" horiz-adv-x="654" 
d="M172 359l54 341h257c124 0 195 -65 195 -165c0 -61 -22 -110 -67 -148c-44 -38 -99 -57 -166 -57h-245l-20 -125h314l-4 -29h-315l-27 -176h-32l27 176h-91l4 29h92l20 125h-92l5 29h91zM205 359h239c55 1 103 16 142 46s59 72 59 127c0 88 -60 139 -167 139h-224z" />
    <glyph glyph-name="uni20B6" unicode="&#x20c4;" horiz-adv-x="654" 
d="M172 359l54 341h257c124 0 195 -65 195 -165c0 -61 -22 -110 -67 -148c-44 -38 -99 -57 -166 -57h-245l-20 -125h314l-4 -29h-315l-27 -176h-32l27 176h-91l4 29h92l20 125h-92l5 29h91zM205 359h239c55 1 103 16 142 46s59 72 59 127c0 88 -60 139 -167 139h-224z" />
    <glyph glyph-name="uni20B6" unicode="&#x20c3;" horiz-adv-x="654" 
d="M172 359l54 341h257c124 0 195 -65 195 -165c0 -61 -22 -110 -67 -148c-44 -38 -99 -57 -166 -57h-245l-20 -125h314l-4 -29h-315l-27 -176h-32l27 176h-91l4 29h92l20 125h-92l5 29h91zM205 359h239c55 1 103 16 142 46s59 72 59 127c0 88 -60 139 -167 139h-224z" />
    <glyph glyph-name="uni20B6" unicode="&#x20c2;" horiz-adv-x="654" 
d="M172 359l54 341h257c124 0 195 -65 195 -165c0 -61 -22 -110 -67 -148c-44 -38 -99 -57 -166 -57h-245l-20 -125h314l-4 -29h-315l-27 -176h-32l27 176h-91l4 29h92l20 125h-92l5 29h91zM205 359h239c55 1 103 16 142 46s59 72 59 127c0 88 -60 139 -167 139h-224z" />
    <glyph glyph-name="uni20B6" unicode="&#x20c1;" horiz-adv-x="654" 
d="M172 359l54 341h257c124 0 195 -65 195 -165c0 -61 -22 -110 -67 -148c-44 -38 -99 -57 -166 -57h-245l-20 -125h314l-4 -29h-315l-27 -176h-32l27 176h-91l4 29h92l20 125h-92l5 29h91zM205 359h239c55 1 103 16 142 46s59 72 59 127c0 88 -60 139 -167 139h-224z" />
    <glyph glyph-name="uni20B6" unicode="&#x20c0;" horiz-adv-x="654" 
d="M172 359l54 341h257c124 0 195 -65 195 -165c0 -61 -22 -110 -67 -148c-44 -38 -99 -57 -166 -57h-245l-20 -125h314l-4 -29h-315l-27 -176h-32l27 176h-91l4 29h92l20 125h-92l5 29h91zM205 359h239c55 1 103 16 142 46s59 72 59 127c0 88 -60 139 -167 139h-224z" />
    <glyph glyph-name="uni20B6" unicode="&#x20bf;" horiz-adv-x="654" 
d="M172 359l54 341h257c124 0 195 -65 195 -165c0 -61 -22 -110 -67 -148c-44 -38 -99 -57 -166 -57h-245l-20 -125h314l-4 -29h-315l-27 -176h-32l27 176h-91l4 29h92l20 125h-92l5 29h91zM205 359h239c55 1 103 16 142 46s59 72 59 127c0 88 -60 139 -167 139h-224z" />
    <glyph glyph-name="uni20B6" unicode="&#x20be;" horiz-adv-x="654" 
d="M172 359l54 341h257c124 0 195 -65 195 -165c0 -61 -22 -110 -67 -148c-44 -38 -99 -57 -166 -57h-245l-20 -125h314l-4 -29h-315l-27 -176h-32l27 176h-91l4 29h92l20 125h-92l5 29h91zM205 359h239c55 1 103 16 142 46s59 72 59 127c0 88 -60 139 -167 139h-224z" />
    <glyph glyph-name="uni20B6" unicode="&#x20bd;" horiz-adv-x="654" 
d="M172 359l54 341h257c124 0 195 -65 195 -165c0 -61 -22 -110 -67 -148c-44 -38 -99 -57 -166 -57h-245l-20 -125h314l-4 -29h-315l-27 -176h-32l27 176h-91l4 29h92l20 125h-92l5 29h91zM205 359h239c55 1 103 16 142 46s59 72 59 127c0 88 -60 139 -167 139h-224z" />
    <glyph glyph-name="uni20B6" unicode="&#x20bc;" horiz-adv-x="654" 
d="M172 359l54 341h257c124 0 195 -65 195 -165c0 -61 -22 -110 -67 -148c-44 -38 -99 -57 -166 -57h-245l-20 -125h314l-4 -29h-315l-27 -176h-32l27 176h-91l4 29h92l20 125h-92l5 29h91zM205 359h239c55 1 103 16 142 46s59 72 59 127c0 88 -60 139 -167 139h-224z" />
    <glyph glyph-name="uni20B6" unicode="&#x20bb;" horiz-adv-x="654" 
d="M172 359l54 341h257c124 0 195 -65 195 -165c0 -61 -22 -110 -67 -148c-44 -38 -99 -57 -166 -57h-245l-20 -125h314l-4 -29h-315l-27 -176h-32l27 176h-91l4 29h92l20 125h-92l5 29h91zM205 359h239c55 1 103 16 142 46s59 72 59 127c0 88 -60 139 -167 139h-224z" />
    <glyph glyph-name="uni20B6" unicode="&#x20ba;" horiz-adv-x="654" 
d="M172 359l54 341h257c124 0 195 -65 195 -165c0 -61 -22 -110 -67 -148c-44 -38 -99 -57 -166 -57h-245l-20 -125h314l-4 -29h-315l-27 -176h-32l27 176h-91l4 29h92l20 125h-92l5 29h91zM205 359h239c55 1 103 16 142 46s59 72 59 127c0 88 -60 139 -167 139h-224z" />
    <glyph glyph-name="uni20B6" unicode="&#x20b9;" horiz-adv-x="654" 
d="M172 359l54 341h257c124 0 195 -65 195 -165c0 -61 -22 -110 -67 -148c-44 -38 -99 -57 -166 -57h-245l-20 -125h314l-4 -29h-315l-27 -176h-32l27 176h-91l4 29h92l20 125h-92l5 29h91zM205 359h239c55 1 103 16 142 46s59 72 59 127c0 88 -60 139 -167 139h-224z" />
    <glyph glyph-name="uni20B6" unicode="&#x20b7;" horiz-adv-x="654" 
d="M172 359l54 341h257c124 0 195 -65 195 -165c0 -61 -22 -110 -67 -148c-44 -38 -99 -57 -166 -57h-245l-20 -125h314l-4 -29h-315l-27 -176h-32l27 176h-91l4 29h92l20 125h-92l5 29h91zM205 359h239c55 1 103 16 142 46s59 72 59 127c0 88 -60 139 -167 139h-224z" />
    <glyph glyph-name="uni2113" unicode="&#x2113;" horiz-adv-x="423" 
d="M448 595c0 -77 -36 -157 -100 -232c-32 -37 -63 -69 -92 -96s-63 -56 -102 -87l-7 -42c-4 -28 -6 -45 -6 -51c0 -47 28 -70 83 -70c32 0 63 9 92 28l-5 -33c-25 -16 -57 -24 -95 -24c-64 0 -106 32 -106 96c0 9 2 31 7 65l57 364c21 131 85 193 170 193
c64 0 104 -43 104 -111zM207 515l-47 -292c171 141 257 265 257 370c0 55 -29 83 -76 83c-61 0 -117 -49 -134 -161z" />
    <glyph glyph-name="uni2116" unicode="&#x2116;" horiz-adv-x="1113" 
d="M666 0h-30l-393 648l-103 -648h-31l110 700h30l393 -648l102 648h32zM1084 276h-284l5 28h284zM994 712c47 0 85 -15 113 -45s42 -66 42 -109c0 -49 -17 -91 -50 -126s-74 -52 -123 -52c-47 0 -85 15 -114 45c-28 31 -42 67 -42 110c0 49 17 90 50 125s75 52 124 52z
M976 407c39 0 73 15 101 44c29 30 43 66 43 107c0 72 -51 127 -127 127c-40 0 -74 -15 -102 -44c-27 -29 -41 -65 -41 -106c0 -72 51 -128 126 -128z" />
    <glyph glyph-name="trademark" unicode="&#x2122;" horiz-adv-x="684" 
d="M403 392h-27l49 308h23l98 -149l144 149h25l-49 -308h-27l41 262l-131 -133h-14l-90 133zM204 392h-27l45 283h-105l4 25h241l-4 -25h-109z" />
    <glyph glyph-name="Omega" unicode="&#x2126;" horiz-adv-x="806" 
d="M757 413c0 -149 -71 -284 -192 -384h129l-4 -29h-175l4 26c62 46 112 103 150 170s57 139 57 214c0 77 -21 142 -63 194c-41 53 -98 79 -171 79c-59 0 -111 -19 -157 -58c-91 -76 -136 -194 -136 -313c0 -55 9 -108 28 -161s42 -94 71 -125l-4 -26h-173l3 29h136
c-27 33 -49 75 -66 127s-26 105 -26 158c0 181 111 398 323 398c81 0 145 -28 193 -84c49 -55 73 -127 73 -215z" />
    <glyph glyph-name="estimated" unicode="&#x212e;" horiz-adv-x="812" 
d="M429 6c65 0 125 17 179 51s96 79 125 136h21c-30 -62 -74 -112 -132 -149s-123 -56 -194 -56c-87 0 -158 28 -214 83c-55 55 -83 125 -83 209c0 98 35 183 104 254s155 107 258 107c87 0 159 -28 214 -83s83 -125 83 -208c0 -5 -1 -15 -2 -30h-574l-20 -193
c48 -76 132 -121 235 -121zM234 504l-18 -166h493l18 164c-51 75 -135 120 -236 120c-100 0 -194 -45 -257 -118z" />
    <glyph glyph-name="onethird" unicode="&#x2153;" horiz-adv-x="774" 
d="M123 0l514 700h36l-514 -700h-36zM204 322h-30l54 343l-115 -65l5 33l118 67h27zM780 378l-3 -21l-138 -124c68 -3 117 -41 117 -105c0 -41 -15 -74 -45 -97c-29 -23 -65 -35 -108 -35c-47 0 -85 10 -115 31l4 30c28 -23 65 -34 110 -34c33 0 61 9 86 28s38 44 38 76
c0 52 -45 82 -105 82c-10 0 -21 -1 -32 -3l4 23l138 122h-180l3 27h226z" />
    <glyph glyph-name="twothirds" unicode="&#x2154;" horiz-adv-x="891" 
d="M897 378l-3 -21l-138 -124c68 -3 117 -41 117 -105c0 -41 -15 -74 -45 -97c-29 -23 -65 -35 -108 -35c-47 0 -85 10 -115 31l4 30c28 -23 65 -34 110 -34c33 0 61 9 86 28s38 44 38 76c0 52 -45 82 -105 82c-11 0 -21 -1 -32 -3l4 23l138 122h-180l3 27h226zM142 627
l5 36c33 27 71 41 113 41c71 0 116 -44 116 -103c0 -51 -35 -93 -103 -150l-125 -102h209l-4 -27h-257l4 23l149 123c65 53 96 86 96 129c0 48 -39 80 -88 80c-37 0 -75 -17 -115 -50zM239 0l514 700h36l-514 -700h-36z" />
    <glyph glyph-name="uni2155" unicode="&#x2155;" horiz-adv-x="752" 
d="M123 0l514 700h36l-514 -700h-36zM204 322h-30l54 343l-115 -65l5 33l118 67h27zM598 237c81 0 132 -49 132 -112c0 -41 -16 -72 -47 -95s-69 -34 -113 -34s-80 10 -109 29l4 30c31 -21 66 -32 105 -32c32 0 61 9 88 26s41 42 41 73c0 49 -40 89 -108 89
c-26 0 -55 -4 -88 -13l54 180h186l-3 -27h-162l-36 -119c19 3 37 5 56 5z" />
    <glyph glyph-name="uni2156" unicode="&#x2156;" horiz-adv-x="868" 
d="M142 627l5 36c33 27 71 41 113 41c71 0 116 -44 116 -103c0 -51 -35 -93 -103 -150l-125 -102h209l-4 -27h-257l4 23l149 123c65 53 96 86 96 129c0 48 -39 80 -88 80c-37 0 -75 -17 -115 -50zM714 237c81 0 132 -49 132 -112c0 -41 -16 -72 -47 -95s-69 -34 -113 -34
s-80 10 -109 29l4 30c31 -21 66 -32 105 -32c32 0 61 9 88 26s41 42 41 73c0 49 -40 89 -108 89c-26 0 -55 -4 -88 -13l54 180h186l-3 -27h-162l-36 -119c19 3 37 5 56 5zM239 0l514 700h36l-514 -700h-36z" />
    <glyph glyph-name="uni2157" unicode="&#x2157;" horiz-adv-x="801" 
d="M372 700l-3 -21l-138 -124c68 -3 117 -41 117 -105c0 -41 -15 -74 -45 -97c-29 -23 -65 -35 -108 -35c-47 0 -85 10 -115 31l4 30c28 -23 65 -34 110 -34c33 0 61 9 86 28s38 44 38 76c0 52 -45 82 -105 82c-11 0 -21 -1 -32 -3l4 23l138 122h-180l3 27h226zM647 237
c81 0 132 -49 132 -112c0 -41 -16 -72 -47 -95s-69 -34 -113 -34s-80 10 -109 29l4 30c31 -21 66 -32 105 -32c32 0 61 9 88 26s41 42 41 73c0 49 -40 89 -108 89c-26 0 -55 -4 -88 -13l54 180h186l-3 -27h-162l-36 -119c19 3 37 5 56 5zM172 0l514 700h36l-514 -700h-36z
" />
    <glyph glyph-name="uni2158" unicode="&#x2158;" horiz-adv-x="848" 
d="M311 322h-30l16 106h-204l3 23l247 249h27l-38 -245h64l-5 -27h-63zM333 652l-197 -197h165zM694 237c81 0 132 -49 132 -112c0 -41 -16 -72 -47 -95s-69 -34 -113 -34s-80 10 -109 29l4 30c31 -21 66 -32 105 -32c32 0 61 9 88 26s41 42 41 73c0 49 -40 89 -108 89
c-26 0 -55 -4 -88 -13l54 180h186l-3 -27h-162l-36 -119c19 3 37 5 56 5zM218 0l514 700h36l-514 -700h-36z" />
    <glyph glyph-name="uni2159" unicode="&#x2159;" horiz-adv-x="757" 
d="M123 0l514 700h36l-514 -700h-36zM204 322h-30l54 343l-115 -65l5 33l118 67h27zM659 355c-79 0 -139 -66 -151 -173c31 39 70 58 117 58c67 0 115 -48 115 -109c0 -37 -13 -69 -39 -96c-25 -26 -57 -39 -96 -39c-77 0 -129 57 -129 153c0 36 6 71 18 105
c24 68 84 128 165 128c36 0 66 -9 89 -26l-4 -29c-25 19 -53 28 -85 28zM619 213c-44 0 -89 -29 -113 -70c0 -65 34 -120 99 -120c59 0 104 46 104 107c0 49 -38 83 -90 83z" />
    <glyph glyph-name="uni215A" unicode="&#x215a;" horiz-adv-x="825" 
d="M727 355c-79 0 -139 -66 -151 -173c31 39 70 58 117 58c67 0 115 -48 115 -109c0 -37 -13 -69 -39 -96c-25 -26 -57 -39 -96 -39c-77 0 -129 57 -129 153c0 36 6 71 18 105c24 68 84 128 165 128c36 0 66 -9 89 -26l-4 -29c-25 19 -53 28 -85 28zM687 213
c-44 0 -89 -29 -113 -70c0 -65 34 -120 99 -120c59 0 104 46 104 107c0 49 -38 83 -90 83zM231 559c81 0 132 -49 132 -112c0 -41 -16 -72 -47 -95s-69 -34 -113 -34s-80 10 -109 29l4 30c31 -21 66 -32 105 -32c32 0 61 9 88 26s41 42 41 73c0 49 -40 89 -108 89
c-26 0 -55 -4 -88 -13l54 180h186l-3 -27h-162l-36 -119c19 3 37 5 56 5zM190 0l514 700h36l-514 -700h-36z" />
    <glyph glyph-name="oneeighth" unicode="&#x215b;" horiz-adv-x="765" 
d="M123 0l514 700h36l-514 -700h-36zM204 322h-30l54 343l-115 -65l5 33l118 67h27zM675 197c47 -15 75 -49 75 -90c0 -33 -14 -60 -43 -81c-28 -20 -61 -30 -100 -30c-80 0 -145 40 -145 105c0 52 41 94 102 103c-38 16 -57 42 -57 79c0 59 57 99 126 99c31 0 60 -8 85 -25
c26 -16 39 -38 39 -67c0 -48 -37 -84 -82 -93zM537 280c0 -43 45 -69 93 -69c49 0 97 29 97 74c0 44 -44 70 -95 70c-48 0 -95 -28 -95 -75zM605 23c60 0 114 33 114 85c0 47 -49 79 -112 79s-115 -31 -115 -84c0 -24 11 -43 34 -58s50 -22 79 -22z" />
    <glyph glyph-name="threeeighths" unicode="&#x215c;" horiz-adv-x="815" 
d="M725 197c47 -15 75 -49 75 -90c0 -33 -14 -60 -43 -81c-28 -20 -61 -30 -100 -30c-80 0 -145 40 -145 105c0 52 41 94 102 103c-38 16 -57 42 -57 79c0 59 57 99 126 99c31 0 60 -8 85 -25c26 -16 39 -38 39 -67c0 -48 -37 -84 -82 -93zM587 280c0 -43 45 -69 93 -69
c49 0 97 29 97 74c0 44 -44 70 -95 70c-48 0 -95 -28 -95 -75zM655 23c60 0 114 33 114 85c0 47 -49 79 -112 79s-115 -31 -115 -84c0 -24 11 -43 34 -58s50 -22 79 -22zM372 700l-3 -21l-138 -124c68 -3 117 -41 117 -105c0 -41 -15 -74 -45 -97c-29 -23 -65 -35 -108 -35
c-47 0 -85 10 -115 31l4 30c28 -23 65 -34 110 -34c33 0 61 9 86 28s38 44 38 76c0 52 -45 82 -105 82c-11 0 -21 -1 -32 -3l4 23l138 122h-180l3 27h226zM172 0l514 700h36l-514 -700h-36z" />
    <glyph glyph-name="fiveeighths" unicode="&#x215d;" horiz-adv-x="833" 
d="M743 197c47 -15 75 -49 75 -90c0 -33 -14 -60 -43 -81c-28 -20 -61 -30 -100 -30c-80 0 -145 40 -145 105c0 52 41 94 102 103c-38 16 -57 42 -57 79c0 59 57 99 126 99c31 0 60 -8 85 -25c26 -16 39 -38 39 -67c0 -48 -37 -84 -82 -93zM605 280c0 -43 45 -69 93 -69
c49 0 97 29 97 74c0 44 -44 70 -95 70c-48 0 -95 -28 -95 -75zM673 23c60 0 114 33 114 85c0 47 -49 79 -112 79s-115 -31 -115 -84c0 -24 11 -43 34 -58s50 -22 79 -22zM231 559c81 0 132 -49 132 -112c0 -41 -16 -72 -47 -95s-69 -34 -113 -34s-80 10 -109 29l4 30
c31 -21 66 -32 105 -32c32 0 61 9 88 26s41 42 41 73c0 49 -40 89 -108 89c-26 0 -55 -4 -88 -13l54 180h186l-3 -27h-162l-36 -119c19 3 37 5 56 5zM190 0l514 700h36l-514 -700h-36z" />
    <glyph glyph-name="seveneighths" unicode="&#x215e;" horiz-adv-x="756" 
d="M666 197c47 -15 75 -49 75 -90c0 -33 -14 -60 -43 -81c-28 -20 -61 -30 -100 -30c-80 0 -145 40 -145 105c0 52 41 94 102 103c-38 16 -57 42 -57 79c0 59 57 99 126 99c31 0 60 -8 85 -25c26 -16 39 -38 39 -67c0 -48 -37 -84 -82 -93zM528 280c0 -43 45 -69 93 -69
c49 0 97 29 97 74c0 44 -44 70 -95 70c-48 0 -95 -28 -95 -75zM596 23c60 0 114 33 114 85c0 47 -49 79 -112 79s-115 -31 -115 -84c0 -24 11 -43 34 -58s50 -22 79 -22zM145 322h-34l234 351h-208l4 27h244l-4 -24zM113 0l514 700h36l-514 -700h-36z" />
    <glyph glyph-name="uni215F" unicode="&#x215f;" horiz-adv-x="433" 
d="M204 322h-30l54 343l-115 -65l5 33l118 67h27zM123 0l514 700h36l-514 -700h-36z" />
    <glyph glyph-name="arrowleft" unicode="&#x2190;" horiz-adv-x="727" 
d="M371 467l-197 -184h512l-5 -30h-516l140 -184h-39l-150 199l213 199h42z" />
    <glyph glyph-name="arrowup" unicode="&#x2191;" horiz-adv-x="572" 
d="M540 352l-158 167l-81 -519h-30l81 514l-209 -167l6 41l227 183l170 -183z" />
    <glyph glyph-name="arrowright" unicode="&#x2192;" horiz-adv-x="727" 
d="M442 69l197 184h-512l5 30h516l-140 184h39l150 -199l-213 -199h-42z" />
    <glyph glyph-name="arrowdown" unicode="&#x2193;" horiz-adv-x="572" 
d="M121 214l158 -167l81 519h30l-81 -514l209 167l-6 -41l-227 -183l-170 183z" />
    <glyph glyph-name="partialdiff" unicode="&#x2202;" horiz-adv-x="616" 
d="M307 -12c-62 0 -114 20 -155 60s-61 91 -61 153c0 67 23 123 70 169s104 69 173 69c53 0 99 -14 137 -42c39 -28 65 -61 80 -100c3 15 4 36 4 62c0 91 -21 167 -64 227c-43 61 -101 91 -176 91c-49 0 -97 -14 -143 -42v29c42 28 90 42 145 42c81 0 146 -32 195 -96
c49 -63 73 -147 73 -252c0 -167 -70 -370 -278 -370zM308 17c128 0 212 91 236 232c-13 47 -39 85 -77 115c-37 31 -81 46 -131 46c-57 0 -107 -20 -150 -59c-42 -39 -63 -88 -63 -146c0 -55 18 -100 53 -135s79 -53 132 -53z" />
    <glyph glyph-name="increment" unicode="&#x2206;" horiz-adv-x="738" 
d="M703 0h-667l430 700h29zM475 660l-388 -631h576z" />
    <glyph glyph-name="product" unicode="&#x220f;" horiz-adv-x="747" 
d="M202 -125h-31l126 796h-115l5 29h594l-4 -29h-115l-127 -796h-31l126 796h-301z" />
    <glyph glyph-name="summation" unicode="&#x2211;" horiz-adv-x="606" 
d="M179 700h469l-3 -29h-429l213 -312l-3 -19l-309 -311h426l-4 -29h-471l3 23l325 330l-222 324z" />
    <glyph glyph-name="minus" unicode="&#x2212;" horiz-adv-x="557" 
d="M536 308h-419l5 28h419z" />
    <glyph glyph-name="uni2215" unicode="&#x2215;" horiz-adv-x="488" 
d="M19 0l513 700h36l-514 -700h-35z" />
    <glyph glyph-name="uni2219" unicode="&#x2219;" horiz-adv-x="213" 
d="M114 195c-11 12 -11 32 0 43c12 12 32 12 43 0c12 -11 12 -31 0 -43c-11 -11 -31 -11 -43 0z" />
    <glyph glyph-name="radical" unicode="&#x221a;" horiz-adv-x="642" 
d="M339 42l351 658h34l-375 -700h-29l-127 434h-140l4 30h159z" />
    <glyph glyph-name="infinity" unicode="&#x221e;" horiz-adv-x="794" 
d="M253 196c61 0 115 49 175 124c-15 25 -28 45 -40 60c-24 31 -67 64 -110 64c-38 0 -70 -14 -95 -41s-37 -59 -37 -98c0 -61 34 -109 107 -109zM638 444c-61 0 -115 -49 -175 -124c15 -25 29 -46 40 -61c24 -29 67 -63 111 -63c37 0 68 13 93 40s38 60 38 99
c0 61 -34 109 -107 109zM444 293c-24 -27 -43 -48 -57 -62c-14 -13 -34 -28 -61 -43c-26 -15 -52 -22 -77 -22c-84 0 -135 57 -135 136c0 47 15 87 46 120c31 34 70 51 119 51c72 0 117 -47 169 -127c21 25 40 46 56 61c32 32 87 66 139 66c84 0 135 -57 135 -136
c0 -47 -16 -87 -47 -121c-31 -33 -70 -50 -118 -50c-72 0 -116 46 -169 127z" />
    <glyph glyph-name="integral" unicode="&#x222b;" horiz-adv-x="420" 
d="M28 -203c-29 0 -55 5 -78 16v30c24 -12 49 -18 75 -18c79 0 129 58 145 163l83 539c19 123 71 184 171 184c29 0 55 -5 80 -16v-31c-24 12 -49 18 -76 18c-81 0 -128 -46 -145 -161l-83 -540c-17 -112 -75 -184 -172 -184z" />
    <glyph glyph-name="approxequal" unicode="&#x2248;" horiz-adv-x="660" 
d="M497 169c-33 0 -78 10 -134 29c-55 19 -99 29 -132 29c-52 0 -96 -16 -132 -48l6 32c24 25 79 44 131 44c33 0 77 -10 132 -29c56 -19 101 -29 134 -29c51 0 95 16 131 48l-5 -33c-24 -25 -78 -43 -131 -43zM533 398c-33 0 -78 10 -134 29c-55 19 -99 29 -132 29
c-52 0 -96 -16 -131 -48l5 32c24 25 79 44 131 44c33 0 77 -10 132 -29c56 -19 101 -29 134 -29c52 0 96 16 132 48l-6 -33c-24 -25 -78 -43 -131 -43z" />
    <glyph glyph-name="notequal" unicode="&#x2260;" horiz-adv-x="597" 
d="M98 193l5 29h161l136 199h-266l6 29h280l87 128h33l-87 -128h147l-5 -29h-162l-136 -199h266l-4 -29h-282l-86 -127h-34l87 127h-146z" />
    <glyph glyph-name="lessequal" unicode="&#x2264;" horiz-adv-x="597" 
d="M540 75h-461l6 29h459zM128 385l492 189l-5 -33l-449 -172l395 -171l-5 -32l-431 190z" />
    <glyph glyph-name="greaterequal" unicode="&#x2265;" horiz-adv-x="597" 
d="M85 104h460l-4 -29h-461zM548 372l-394 171l5 31l431 -189l-4 -29l-491 -190l4 34z" />
    <glyph glyph-name="dotmath" unicode="&#x22c5;" horiz-adv-x="215" 
d="M136 353c-11 12 -11 32 0 43c12 12 32 12 43 0c12 -11 12 -31 0 -43c-11 -11 -31 -11 -43 0z" />
    <glyph glyph-name="lozenge" unicode="&#x25ca;" horiz-adv-x="556" 
d="M374 700h30l152 -350l-262 -350h-30l-151 350zM147 348l135 -317l240 321l-136 317z" />
    <glyph glyph-name="uniF401" unicode="&#xf401;" horiz-adv-x="20" 
d="M-279 765l116 126h44l-122 -126h-38z" />
    <glyph glyph-name="uniF639" unicode="&#xf639;" 
d="M397 712c70 0 125 -28 166 -85c41 -56 61 -130 61 -223c0 -67 -12 -132 -35 -195c-23 -62 -57 -114 -104 -157s-100 -64 -159 -64c-71 0 -126 28 -167 84c-40 57 -60 131 -60 224c0 67 11 132 34 194c23 63 58 115 105 158s100 64 159 64zM327 17c53 0 100 20 141 61
c84 83 124 206 124 329c0 82 -18 148 -53 199s-83 77 -144 77c-53 0 -100 -21 -142 -62c-83 -81 -123 -207 -123 -328c0 -82 17 -149 52 -200s84 -76 145 -76z" />
    <glyph glyph-name="uniF63A" unicode="&#xf63a;" 
d="M166 591l6 43c59 52 129 78 209 78c62 0 112 -18 150 -55s57 -82 57 -135c0 -47 -16 -91 -47 -133s-80 -90 -145 -143l-264 -217h417l-4 -29h-465l3 25l286 238c31 26 56 47 74 64c19 17 38 37 57 59c39 45 56 87 56 131c0 51 -17 91 -52 121c-34 30 -75 45 -124 45
c-79 0 -150 -31 -214 -92z" />
    <glyph glyph-name="uniF63B" unicode="&#xf63b;" 
d="M618 677l-280 -249h3c67 0 123 -18 168 -54c45 -35 67 -84 67 -145c0 -74 -28 -133 -83 -176s-120 -65 -197 -65c-83 0 -152 19 -206 56l6 32c50 -39 116 -59 199 -59c121 -4 249 78 249 210c0 56 -21 99 -62 129s-91 45 -150 45c-21 0 -38 -1 -49 -4l4 25l280 249h-360
l3 29h411z" />
    <glyph glyph-name="uniF63C" unicode="&#xf63c;" 
d="M465 0h-32l33 209h-390l4 25l467 466h29l-74 -462h123l-4 -29h-123zM537 650l-414 -412h348z" />
    <glyph glyph-name="uniF63D" unicode="&#xf63d;" 
d="M336 431c72 0 130 -20 174 -60s66 -89 66 -146c0 -73 -29 -130 -87 -173c-57 -43 -126 -64 -205 -64c-81 0 -146 17 -196 52l5 32c49 -37 113 -55 191 -55c41 0 81 7 119 21c39 14 72 37 99 69c28 32 42 70 42 113c0 50 -19 93 -58 128c-38 36 -91 54 -158 54
c-52 0 -104 -7 -155 -22l94 320h334l-4 -29h-307l-75 -253c34 9 74 13 121 13z" />
    <glyph glyph-name="uniF63E" unicode="&#xf63e;" 
d="M389 438c62 0 113 -20 153 -59s60 -86 60 -143c0 -68 -23 -126 -69 -175s-104 -73 -174 -73c-71 0 -129 24 -172 71c-43 48 -65 112 -65 192c0 129 33 238 98 327s145 134 240 134c60 0 122 -20 157 -48l-5 -31c-42 33 -93 50 -154 50c-79 0 -148 -37 -205 -110
s-90 -163 -97 -269c47 76 133 134 233 134zM361 17c58 0 107 21 148 64s62 94 62 155c0 51 -18 92 -53 124c-35 33 -79 49 -133 49c-47 0 -92 -15 -135 -45c-43 -29 -75 -66 -97 -111c0 -67 18 -124 54 -169c37 -45 88 -67 154 -67z" />
    <glyph glyph-name="uniF63F" unicode="&#xf63f;" 
d="M208 700h441l-3 -22l-449 -678h-36l444 671h-401z" />
    <glyph glyph-name="uniF640" unicode="&#xf640;" 
d="M450 367c93 -28 154 -93 154 -174c0 -63 -26 -113 -77 -150s-113 -55 -184 -55c-76 0 -138 18 -187 54s-73 82 -73 138c0 51 19 94 56 129c37 36 85 59 144 68c-69 27 -115 81 -115 149c0 56 22 101 65 135c44 34 97 51 160 51c60 0 111 -15 153 -46s63 -71 63 -122
c0 -46 -16 -85 -47 -116s-68 -51 -112 -61zM199 526c0 -41 18 -75 55 -102s81 -40 130 -40s94 14 134 41c41 27 61 65 61 114c0 43 -18 77 -55 104c-36 27 -80 40 -132 40c-51 0 -96 -14 -135 -42s-58 -66 -58 -115zM340 17c61 0 115 16 162 47c47 32 71 75 71 130
c0 47 -22 85 -65 115c-43 31 -97 46 -162 46c-61 0 -115 -16 -162 -47s-70 -73 -70 -127c0 -47 22 -87 66 -118c45 -31 98 -46 160 -46z" />
    <glyph glyph-name="uniF641" unicode="&#xf641;" 
d="M332 262c-62 0 -113 19 -153 58s-60 87 -60 144c0 68 23 126 69 175s104 73 174 73c71 0 129 -24 172 -72c43 -47 65 -111 65 -191c0 -129 -33 -239 -98 -328s-145 -133 -240 -133c-60 0 -122 20 -157 48l5 31c41 -33 93 -50 154 -50c79 0 148 37 205 110s90 163 97 269
c-47 -76 -133 -134 -233 -134zM360 683c-58 0 -108 -21 -149 -64s-61 -94 -61 -155c0 -51 17 -92 52 -125c35 -32 80 -48 134 -48c47 0 92 15 135 44c43 30 75 67 97 112c0 67 -18 123 -55 168c-36 45 -87 68 -153 68z" />
    <glyph glyph-name="uniF643" unicode="&#xf643;" 
d="M359 485c71 0 127 -23 170 -68s65 -99 65 -163c0 -73 -25 -136 -76 -188s-113 -78 -188 -78c-71 0 -128 23 -171 68s-64 100 -64 163c0 73 25 136 76 188s113 78 188 78zM330 17c64 0 119 23 164 70c46 47 69 103 69 168c0 57 -19 105 -57 143c-38 39 -87 58 -148 58
c-63 0 -118 -23 -164 -70c-45 -47 -68 -103 -68 -168c0 -57 19 -105 56 -144c38 -38 87 -57 148 -57z" />
    <glyph glyph-name="uniF644" unicode="&#xf644;" 
d="M346 29h198l-5 -29h-432l4 29h204l65 406l-180 -102l6 35l182 105h29z" />
    <glyph glyph-name="uniF645" unicode="&#xf645;" 
d="M554 345c0 -48 -21 -91 -65 -128c-21 -18 -41 -33 -58 -44s-39 -24 -67 -40c-29 -17 -67 -38 -116 -63s-76 -39 -83 -41h367l-3 -29h-432l4 25c79 39 167 86 263 141c23 13 41 24 53 32c12 9 28 21 47 37c39 32 57 68 57 108c0 68 -58 113 -151 113
c-73 0 -143 -30 -210 -90l7 42c61 51 130 77 207 77c111 0 180 -57 180 -140z" />
    <glyph glyph-name="uniF646" unicode="&#xf646;" 
d="M559 449l-281 -230h8c65 -1 120 -18 164 -51c45 -33 67 -79 67 -137c0 -72 -28 -129 -84 -171c-55 -42 -121 -63 -196 -63c-83 0 -152 19 -206 56l7 33c49 -40 115 -60 198 -60c65 0 122 18 173 54s76 85 76 148c0 53 -21 94 -62 122s-91 42 -150 42c-15 0 -32 -2 -49 -6
l6 27l280 231h-362l4 29h410z" />
    <glyph glyph-name="uniF647" unicode="&#xf647;" 
d="M468 29h123l-4 -29h-123l-32 -200h-31l31 200h-390l3 25l464 448h30zM90 29h346l63 394z" />
    <glyph glyph-name="uniF648" unicode="&#xf648;" 
d="M294 227c73 0 131 -19 174 -58c44 -39 66 -86 66 -142c0 -72 -29 -128 -87 -169c-57 -41 -126 -61 -205 -61c-81 0 -146 17 -196 52l5 33c51 -37 115 -56 192 -56c41 0 81 7 118 20c38 13 71 35 99 66s42 69 42 112c0 49 -19 90 -57 124s-90 51 -157 51
c-51 0 -103 -8 -156 -25l94 299h334l-4 -29h-307l-75 -231c34 9 74 14 120 14z" />
    <glyph glyph-name="uniF649" unicode="&#xf649;" 
d="M386 438c62 0 113 -20 153 -59s60 -86 60 -143c0 -68 -23 -126 -69 -175s-104 -73 -174 -73c-71 0 -129 24 -172 71c-43 48 -65 112 -65 192c0 129 33 238 98 327s145 134 240 134c60 0 122 -20 157 -48l-5 -31c-42 33 -93 50 -154 50c-79 0 -148 -37 -205 -110
s-90 -163 -97 -269c47 76 133 134 233 134zM358 17c58 0 107 21 148 64s62 94 62 155c0 51 -18 92 -53 124c-35 33 -79 49 -133 49c-47 0 -92 -15 -135 -45c-43 -29 -75 -66 -97 -111c0 -67 18 -124 54 -169c37 -45 88 -67 154 -67z" />
    <glyph glyph-name="uniF64A" unicode="&#xf64a;" 
d="M148 473h441l-3 -23l-433 -650h-36l427 644h-401z" />
    <glyph glyph-name="uniF64B" unicode="&#xf64b;" 
d="M442 367c93 -28 154 -93 154 -174c0 -63 -26 -113 -77 -150s-113 -55 -184 -55c-76 0 -138 18 -187 54s-73 82 -73 138c0 51 19 94 56 129c37 36 85 59 144 68c-69 27 -115 81 -115 149c0 56 22 101 65 135c44 34 97 51 160 51c60 0 111 -15 153 -46s63 -71 63 -122
c0 -46 -16 -85 -47 -116s-68 -51 -112 -61zM191 526c0 -41 18 -75 55 -102s81 -40 130 -40s94 14 134 41c41 27 61 65 61 114c0 43 -18 77 -55 104c-36 27 -80 40 -132 40c-51 0 -96 -14 -135 -42s-58 -66 -58 -115zM332 17c61 0 115 16 162 47c47 32 71 75 71 130
c0 47 -22 85 -65 115c-43 31 -97 46 -162 46c-61 0 -115 -16 -162 -47s-70 -73 -70 -127c0 -47 22 -87 66 -118c45 -31 98 -46 160 -46z" />
    <glyph glyph-name="uniF64C" unicode="&#xf64c;" 
d="M302 36c-61 0 -111 18 -150 55s-59 84 -59 141c0 69 24 129 71 178c48 50 108 75 179 75c70 0 126 -23 167 -70c42 -47 63 -110 63 -190c0 -74 -13 -143 -38 -207c-25 -63 -64 -116 -117 -158s-116 -63 -188 -63c-59 0 -120 18 -152 46l4 31c40 -32 90 -48 151 -48
c88 0 159 34 213 101c55 67 85 149 92 246c-45 -77 -135 -137 -236 -137zM341 456c-59 0 -110 -22 -153 -66c-42 -43 -63 -96 -63 -157c0 -50 17 -91 50 -122c34 -31 77 -46 130 -46c48 0 94 15 137 45c44 30 77 68 99 113c0 69 -17 125 -52 168c-34 43 -83 65 -148 65z" />
    <glyph glyph-name="uniF64E" unicode="&#xf64e;" horiz-adv-x="564" 
d="M170 189h251l-5 -29h-241c21 -88 97 -143 202 -143c51 0 98 13 143 40l-4 -33c-44 -24 -93 -36 -146 -36c-124 0 -206 68 -227 172h-80l4 29h72c-1 6 -1 15 -1 28c0 19 2 39 5 60h-62l5 29h65c33 108 133 179 254 179c63 0 117 -16 161 -47l-5 -31c-43 33 -95 49 -154 49
c-103 0 -188 -58 -223 -150h255l-4 -29h-260c-4 -18 -6 -38 -6 -60c0 -7 1 -23 1 -28z" />
    <glyph glyph-name="uniF653" unicode="&#xf653;" horiz-adv-x="487" 
d="M474 432l-4 -31c-49 37 -109 55 -180 55c-37 0 -71 -8 -102 -24c-30 -16 -45 -41 -45 -76c0 -27 15 -48 44 -64c31 -16 52 -24 95 -37l10 -3c22 -7 38 -13 49 -17c11 -3 25 -9 42 -17c47 -21 65 -46 70 -91c0 -46 -20 -81 -59 -104s-85 -35 -137 -35h-7l-16 -104h-30
l17 106c-75 7 -137 35 -170 62l5 33c54 -45 122 -68 203 -68c24 0 47 3 70 8c47 12 93 47 93 99c0 31 -23 56 -68 75c-13 5 -38 14 -76 26c-112 36 -165 65 -165 129c0 43 17 75 52 97c35 23 78 34 127 34h8l17 106h29l-16 -108c58 -6 106 -23 144 -51z" />
    <glyph glyph-name="commaaccent" unicode="&#xf6c3;" horiz-adv-x="222" 
d="M183 -47l-84 -162h-31l81 162h34z" />
    <glyph glyph-name="cyrbreve" unicode="&#xf6d4;" horiz-adv-x="513" 
d="M219 712h29c-1 -4 -1 -10 -1 -19c0 -53 40 -89 107 -89c72 0 125 45 136 108h31c-13 -81 -80 -136 -167 -136c-84 0 -137 45 -137 113c0 3 1 11 2 23z" />
    <glyph glyph-name="uniF6DC" unicode="&#xf6dc;" 
d="M341 29h201l-5 -29h-442l4 29h211l100 633l-179 -102l5 35l182 105h29z" />
    <glyph glyph-name="uniF721" unicode="&#xf721;" horiz-adv-x="522" 
d="M93 169l3 29h384l-5 -29h-250c-53 -19 -79 -46 -79 -80c0 -29 25 -51 61 -60s66 -12 98 -12c48 0 92 7 132 21l-4 -30c-38 -13 -83 -20 -136 -20c-35 0 -70 4 -113 16c-41 13 -71 42 -71 81c0 35 20 63 61 84h-81zM486 388c0 -31 -16 -56 -48 -75h60l-5 -29h-383l4 29
h277c42 19 63 43 63 73c0 29 -24 50 -60 58c-35 9 -62 12 -93 12c-45 0 -90 -8 -133 -24l5 30c39 15 84 23 137 23c36 0 71 -5 110 -18c40 -12 66 -40 66 -79z" />
    <glyph glyph-name="uniF722" unicode="&#xf722;" horiz-adv-x="561" 
d="M71 177l5 29h71l42 267h220c96 0 152 -53 152 -130c0 -49 -18 -89 -53 -120s-80 -46 -133 -46h-202l-11 -79h223l-5 -29h-223l-11 -69h-31l11 69h-72l5 29h72l12 79h-72zM178 206h199c84 1 152 50 152 135c0 69 -46 103 -138 103h-176z" />
    <glyph glyph-name="uniF725" unicode="&#xf725;" horiz-adv-x="572" 
d="M414 456c-112 0 -177 -56 -196 -168l-13 -82h261l-5 -29h-260l-12 -75c-5 -39 -16 -63 -32 -73h338l-3 -29h-415l4 29h26c27 0 45 27 53 82l9 66h-64l4 29h65l13 82c21 131 97 197 229 197c57 0 105 -14 144 -43l-5 -30c-39 29 -86 44 -141 44z" />
    <glyph glyph-name="uniF727" unicode="&#xf727;" horiz-adv-x="532" 
d="M101 92l4 29h163l15 88h-163l4 29h152l-153 235h37l143 -220l212 220h40l-226 -235h152l-4 -29h-163l-15 -88h163l-4 -29h-163l-15 -92h-31l15 92h-163z" />
    <glyph glyph-name="uniF730" unicode="&#xf730;" horiz-adv-x="613" 
d="M354 485c71 0 127 -23 170 -68s65 -99 65 -163c0 -73 -25 -136 -76 -188s-113 -78 -188 -78c-71 0 -128 23 -171 68s-64 100 -64 163c0 73 25 136 76 188s113 78 188 78zM325 17c64 0 119 23 164 70c46 47 69 103 69 168c0 57 -19 105 -57 143c-38 39 -87 58 -148 58
c-63 0 -118 -23 -164 -70c-45 -47 -68 -103 -68 -168c0 -57 19 -105 56 -144c38 -38 87 -57 148 -57z" />
    <glyph glyph-name="uniF731" unicode="&#xf731;" horiz-adv-x="344" 
d="M309 473l-74 -473h-32l69 435l-180 -102l6 35l182 105h29z" />
    <glyph glyph-name="uniF732" unicode="&#xf732;" horiz-adv-x="557" 
d="M520 345c0 -48 -21 -91 -65 -128c-21 -18 -41 -33 -58 -44s-39 -24 -67 -40c-29 -17 -67 -38 -116 -63s-76 -39 -83 -41h367l-3 -29h-432l4 25c79 39 167 86 263 141c23 13 41 24 53 32c12 9 28 21 47 37c39 32 57 68 57 108c0 68 -58 113 -151 113
c-73 0 -143 -30 -210 -90l7 42c61 51 130 77 207 77c111 0 180 -57 180 -140z" />
    <glyph glyph-name="uniF733" unicode="&#xf733;" horiz-adv-x="534" 
d="M550 449l-281 -230h8c65 -1 120 -18 164 -51c45 -33 67 -79 67 -137c0 -72 -28 -129 -84 -171c-55 -42 -121 -63 -196 -63c-83 0 -152 19 -206 56l7 33c49 -40 115 -60 198 -60c65 0 122 18 173 54s76 85 76 148c0 53 -21 94 -62 122s-91 42 -150 42c-15 0 -32 -2 -49 -6
l6 27l280 231h-362l4 29h410z" />
    <glyph glyph-name="uniF734" unicode="&#xf734;" horiz-adv-x="625" 
d="M468 29h123l-4 -29h-123l-32 -200h-31l31 200h-390l3 25l464 448h30zM90 29h346l63 394z" />
    <glyph glyph-name="uniF735" unicode="&#xf735;" horiz-adv-x="589" 
d="M305 227c73 0 131 -19 174 -58c44 -39 66 -86 66 -142c0 -72 -29 -128 -87 -169c-57 -41 -126 -61 -205 -61c-81 0 -146 17 -196 52l5 33c51 -37 115 -56 192 -56c41 0 81 7 118 20c38 13 71 35 99 66s42 69 42 112c0 49 -19 90 -57 124s-90 51 -157 51
c-51 0 -103 -8 -156 -25l94 299h334l-4 -29h-307l-75 -231c34 9 74 14 120 14z" />
    <glyph glyph-name="uniF736" unicode="&#xf736;" horiz-adv-x="636" 
d="M391 438c62 0 113 -20 153 -59s60 -86 60 -143c0 -68 -23 -126 -69 -175s-104 -73 -174 -73c-71 0 -129 24 -172 71c-43 48 -65 112 -65 192c0 129 33 238 98 327s145 134 240 134c60 0 122 -20 157 -48l-5 -31c-41 33 -93 50 -154 50c-79 0 -148 -37 -205 -110
s-90 -163 -97 -269c47 76 133 134 233 134zM363 17c58 0 107 21 148 64s62 94 62 155c0 51 -18 92 -53 124c-35 33 -79 49 -133 49c-47 0 -92 -15 -135 -45c-43 -29 -75 -66 -97 -111c0 -67 18 -124 54 -169c37 -45 88 -67 154 -67z" />
    <glyph glyph-name="uniF737" unicode="&#xf737;" horiz-adv-x="542" 
d="M136 473h441l-3 -23l-433 -650h-36l427 644h-401z" />
    <glyph glyph-name="uniF738" unicode="&#xf738;" horiz-adv-x="630" 
d="M461 367c93 -28 154 -93 154 -174c0 -63 -26 -113 -77 -150s-113 -55 -184 -55c-76 0 -138 18 -187 54s-73 82 -73 138c0 51 19 94 56 129c37 36 85 59 144 68c-69 27 -115 81 -115 149c0 56 22 101 65 135c44 34 97 51 160 51c60 0 111 -15 153 -46s63 -71 63 -122
c0 -46 -16 -85 -47 -116s-68 -51 -112 -61zM210 526c0 -41 18 -75 55 -102s81 -40 130 -40s94 14 134 41c41 27 61 65 61 114c0 43 -18 77 -55 104c-36 27 -80 40 -132 40c-51 0 -96 -14 -135 -42s-58 -66 -58 -115zM351 17c61 0 115 16 162 47c47 32 71 75 71 130
c0 47 -22 85 -65 115c-43 31 -97 46 -162 46c-61 0 -115 -16 -162 -47s-70 -73 -70 -127c0 -47 22 -87 66 -118c45 -31 98 -46 160 -46z" />
    <glyph glyph-name="uniF739" unicode="&#xf739;" horiz-adv-x="634" 
d="M322 36c-61 0 -111 18 -150 55s-59 84 -59 141c0 69 24 129 71 178c48 50 108 75 179 75c70 0 126 -23 167 -70c42 -47 63 -110 63 -190c0 -74 -13 -143 -38 -207c-25 -63 -64 -116 -117 -158s-116 -63 -188 -63c-59 0 -120 18 -152 46l4 31c40 -32 90 -48 151 -48
c88 0 159 34 213 101c55 67 85 149 92 246c-45 -77 -135 -137 -236 -137zM361 456c-59 0 -110 -22 -153 -66c-42 -43 -63 -96 -63 -157c0 -50 17 -91 50 -122c34 -31 77 -46 130 -46c48 0 94 15 137 45c44 30 77 68 99 113c0 69 -17 125 -52 168c-34 43 -83 65 -148 65z" />
    <glyph glyph-name="adieresis.alt" horiz-adv-x="625" 
d="M561 378l15 95h32l-75 -473h-32l13 78c-53 -60 -119 -90 -197 -90c-69 0 -124 22 -165 65c-41 44 -61 98 -61 162c0 75 25 138 75 191s113 79 188 79c93 0 168 -48 207 -107zM324 17c39 0 76 10 113 31s65 48 85 80l32 212c-15 31 -40 58 -76 81s-77 35 -123 35
c-63 0 -118 -23 -164 -70c-45 -47 -68 -103 -68 -170c0 -57 18 -105 55 -143c37 -37 85 -56 146 -56zM312 674c38 0 38 -58 0 -58c-37 0 -37 58 0 58zM497 674c38 0 38 -58 0 -58c-37 0 -37 58 0 58z" />
    <glyph glyph-name="cyrbreve.cap" horiz-adv-x="534" 
d="M253 895h29c-1 -4 -1 -10 -1 -18c0 -55 40 -90 107 -90c72 0 125 45 136 108h31c-13 -80 -81 -136 -168 -136c-83 0 -136 45 -136 113c0 3 1 11 2 23z" />
    <glyph glyph-name="idieresis_idieresis" horiz-adv-x="448" 
d="M137 0h-31l76 473h30zM339 0h-31l76 473h30zM134 674c38 0 38 -58 0 -58c-37 0 -37 58 0 58zM319 674c38 0 38 -58 0 -58c-37 0 -37 58 0 58zM504 674c38 0 38 -58 0 -58c-37 0 -37 58 0 58z" />
    <glyph glyph-name="peseta.mono" 
d="M151 501h-86l5 28h86l27 171h278c124 0 194 -64 194 -163v-8h77l-5 -28h-76c-9 -51 -34 -93 -77 -124c-42 -31 -93 -46 -152 -46h-266l-53 -331h-31zM161 360h264c54 1 100 16 139 46c39 31 59 73 59 127c0 88 -59 138 -166 138h-247z" />
    <glyph glyph-name="pesolow" horiz-adv-x="602" 
d="M164 313h-86l5 29h86l21 131h220c97 0 148 -51 151 -131h80l-6 -29h-77c-13 -83 -88 -136 -183 -136h-201l-27 -177h-32zM178 206h199c84 1 152 50 152 135c0 69 -46 103 -138 103h-176z" />
    <glyph glyph-name="acircumflex.alt" horiz-adv-x="625" 
d="M561 378l15 95h32l-75 -473h-32l13 78c-53 -60 -119 -90 -197 -90c-69 0 -124 22 -165 65c-41 44 -61 98 -61 162c0 75 25 138 75 191s113 79 188 79c93 0 168 -48 207 -107zM324 17c39 0 76 10 113 31s65 48 85 80l32 212c-15 31 -40 58 -76 81s-77 35 -123 35
c-63 0 -118 -23 -164 -70c-45 -47 -68 -103 -68 -170c0 -57 18 -105 55 -143c37 -37 85 -56 146 -56zM430 700l84 -126h-33l-70 102l-102 -102h-38l126 126h33z" />
    <glyph glyph-name="liralow" horiz-adv-x="573" 
d="M120 263l3 30h65c21 128 97 192 228 192c57 0 105 -14 144 -43l-5 -30c-38 29 -85 44 -140 44c-111 0 -177 -54 -196 -163h260l-4 -30h-259l-15 -87h260l-5 -29h-259l-7 -42c-7 -41 -18 -67 -33 -76h339l-4 -29h-415l4 29h27c25 0 42 25 50 74l8 44h-65l4 29h65l14 87
h-64z" />
    <glyph glyph-name="atilde.alt" horiz-adv-x="625" 
d="M561 378l15 95h32l-75 -473h-32l13 78c-53 -60 -119 -90 -197 -90c-69 0 -124 22 -165 65c-41 44 -61 98 -61 162c0 75 25 138 75 191s113 79 188 79c93 0 168 -48 207 -107zM324 17c39 0 76 10 113 31s65 48 85 80l32 212c-15 31 -40 58 -76 81s-77 35 -123 35
c-63 0 -118 -23 -164 -70c-45 -47 -68 -103 -68 -170c0 -57 18 -105 55 -143c37 -37 85 -56 146 -56zM474 598c-19 0 -42 11 -71 32c-28 22 -49 33 -63 33c-25 0 -43 -20 -53 -60h-27c11 56 42 88 83 88c19 0 42 -11 70 -33c29 -21 50 -32 63 -32c25 0 42 20 52 60h28
c-11 -55 -42 -88 -82 -88z" />
    <glyph glyph-name="uniF725.mono" 
d="M438 456c-112 0 -177 -56 -196 -168l-13 -82h261l-5 -29h-260l-12 -75c-5 -39 -16 -63 -32 -73h338l-3 -29h-415l4 29h26c27 0 45 27 53 82l9 66h-64l4 29h65l13 82c21 131 97 197 229 197c57 0 105 -14 144 -43l-5 -30c-39 29 -86 44 -141 44z" />
    <glyph glyph-name="uni20B6.mono" 
d="M161 359l54 341h257c124 0 195 -65 195 -165c0 -61 -22 -110 -67 -148c-44 -38 -99 -57 -166 -57h-245l-20 -125h314l-4 -29h-315l-27 -176h-32l27 176h-91l4 29h92l20 125h-92l5 29h91zM194 359h239c55 1 103 16 142 46s59 72 59 127c0 88 -60 139 -167 139h-224z" />
    <glyph glyph-name="liralow.mono" 
d="M144 263l3 30h65c21 128 97 192 228 192c57 0 105 -14 144 -43l-5 -30c-38 29 -85 44 -140 44c-111 0 -177 -54 -196 -163h260l-4 -30h-259l-15 -87h260l-5 -29h-259l-7 -42c-7 -41 -18 -67 -33 -76h339l-4 -29h-415l4 29h27c25 0 42 25 50 74l8 44h-65l4 29h65l14 87
h-64z" />
    <glyph glyph-name="aring.alt" horiz-adv-x="625" 
d="M561 378l15 95h32l-75 -473h-32l13 78c-53 -60 -119 -90 -197 -90c-69 0 -124 22 -165 65c-41 44 -61 98 -61 162c0 75 25 138 75 191s113 79 188 79c93 0 168 -48 207 -107zM324 17c39 0 76 10 113 31s65 48 85 80l32 212c-15 31 -40 58 -76 81s-77 35 -123 35
c-63 0 -118 -23 -164 -70c-45 -47 -68 -103 -68 -170c0 -57 18 -105 55 -143c37 -37 85 -56 146 -56zM339 706c36 36 92 36 127 0c36 -35 36 -91 0 -127c-35 -36 -91 -36 -127 0s-36 92 0 127zM403 578c37 0 66 28 66 65s-29 66 -66 66c-36 0 -65 -29 -65 -66s29 -65 65 -65
z" />
    <glyph glyph-name="franclow" horiz-adv-x="526" 
d="M140 0h-31l15 90h-82l5 29h81l57 354h368l-5 -29h-337l-32 -199h275l-5 -29h-275l-15 -97h146l-5 -29h-145z" />
    <glyph glyph-name="lira.mono" 
d="M269 490l-13 -77h301l-5 -29h-300l-21 -125h302l-5 -29h-301l-24 -146c-5 -28 -14 -46 -27 -55h369l-4 -29h-448l5 29h25c21 0 38 18 46 51c5 17 8 32 11 47s5 34 8 55c3 22 5 38 7 48h-64l4 29h64l21 125h-65l5 29h64l14 83c23 139 112 216 249 216
c66 0 118 -16 157 -49l-6 -32c-35 35 -86 52 -153 52c-119 0 -197 -69 -216 -193z" />
    <glyph glyph-name="Idieresis_Idieresis" horiz-adv-x="496" 
d="M148 0h-34l111 700h34zM379 0h-34l111 700h33zM152 824c0 37 58 37 58 0c0 -38 -58 -38 -58 0zM376 795c-16 0 -29 12 -29 29c0 16 13 29 29 29c17 0 29 -13 29 -29c0 -17 -12 -29 -29 -29zM571 795c-16 0 -29 12 -29 29c0 16 13 29 29 29c17 0 29 -13 29 -29
c0 -17 -12 -29 -29 -29z" />
    <glyph glyph-name="O_C" horiz-adv-x="1353" 
d="M823 320c0 -85 27 -157 82 -216c55 -58 125 -87 212 -87c80 0 151 22 213 67l-5 -36c-57 -40 -126 -60 -209 -60s-152 23 -208 68c-56 46 -92 106 -109 181c-27 -73 -71 -133 -132 -180c-61 -46 -132 -69 -212 -69c-96 0 -174 31 -234 94s-90 142 -90 237
c0 107 35 199 106 276c71 78 159 117 265 117c81 0 149 -23 205 -69c57 -46 93 -106 109 -180c27 74 71 134 132 180c62 46 134 69 216 69s152 -21 210 -63l-5 -31c-57 43 -126 65 -206 65c-95 0 -175 -35 -241 -106c-66 -70 -99 -156 -99 -257zM455 17c93 0 173 35 239 106
s99 157 99 258c0 86 -27 158 -81 215c-54 58 -124 87 -210 87c-94 0 -174 -35 -240 -106s-99 -156 -99 -257c0 -86 27 -158 81 -216c55 -58 125 -87 211 -87z" />
    <glyph glyph-name="O_O" horiz-adv-x="1507" 
d="M1162 712c96 0 174 -31 233 -94c60 -63 90 -141 90 -236c0 -107 -35 -200 -106 -278c-70 -77 -158 -116 -264 -116c-81 0 -150 23 -207 69c-56 46 -92 106 -109 181c-27 -74 -71 -134 -132 -181c-61 -46 -132 -69 -212 -69c-96 0 -174 31 -234 94s-90 142 -90 237
c0 107 35 199 106 276c71 78 159 117 265 117c81 0 150 -23 206 -69s92 -106 108 -181c27 74 71 134 133 180c62 47 133 70 213 70zM1115 17c93 0 173 35 239 106s99 157 99 258c0 86 -27 158 -81 215c-54 58 -124 87 -210 87c-94 0 -174 -35 -240 -106s-99 -156 -99 -257
c0 -86 27 -158 81 -216c55 -58 125 -87 211 -87zM455 17c93 0 173 35 239 106s99 157 99 258c0 86 -27 158 -81 215c-54 58 -124 87 -210 87c-94 0 -174 -35 -240 -106s-99 -156 -99 -257c0 -86 27 -158 81 -216c55 -58 125 -87 211 -87z" />
    <glyph glyph-name="o_c" horiz-adv-x="1054" 
d="M822 485c71 0 127 -23 170 -68s65 -99 65 -163c0 -73 -25 -136 -76 -188s-113 -78 -188 -78c-115 0 -197 66 -225 159c-40 -95 -133 -159 -242 -159c-71 0 -128 23 -171 68s-64 100 -64 163c0 73 25 136 76 188s113 78 188 78c113 0 196 -65 224 -160
c41 96 132 160 243 160zM793 17c64 0 119 23 164 70c46 47 69 103 69 168c0 57 -19 105 -57 143c-38 39 -87 58 -148 58c-63 0 -118 -23 -164 -70c-45 -47 -68 -103 -68 -168c0 -57 19 -105 56 -144c38 -38 87 -57 148 -57zM326 17c64 0 119 23 164 70c46 47 69 103 69 168
c0 57 -19 105 -57 143c-38 39 -87 58 -148 58c-63 0 -118 -23 -164 -70c-45 -47 -68 -103 -68 -168c0 -57 19 -105 56 -144c38 -38 87 -57 148 -57z" />
    <glyph glyph-name="o_o" horiz-adv-x="1006" 
d="M355 485c113 0 197 -66 225 -161c20 49 52 88 96 117c45 29 95 44 150 44c62 0 114 -15 157 -44l-6 -30c-42 30 -91 45 -147 45c-68 0 -125 -23 -172 -70c-46 -46 -69 -103 -69 -170c0 -57 19 -104 56 -142c38 -38 88 -57 151 -57c49 0 97 13 142 40l-5 -34
c-43 -23 -90 -35 -142 -35c-117 0 -196 64 -224 157c-41 -95 -132 -157 -241 -157c-71 0 -128 23 -171 68s-64 100 -64 163c0 73 25 136 76 188s113 78 188 78zM326 17c64 0 119 23 164 70c46 47 69 103 69 168c0 57 -19 105 -57 143c-38 39 -87 58 -148 58
c-63 0 -118 -23 -164 -70c-45 -47 -68 -103 -68 -168c0 -57 19 -105 56 -144c38 -38 87 -57 148 -57z" />
    <glyph glyph-name="franc.mono" 
d="M147 0h-31l28 176h-120l4 29h120l79 495h456l-5 -29h-424l-46 -289h355l-6 -29h-354l-23 -148h188l-3 -29h-190z" />
    <glyph glyph-name="pesolow.mono" 
d="M174 313h-86l5 29h86l21 131h220c97 0 148 -51 151 -131h80l-6 -29h-77c-13 -83 -88 -136 -183 -136h-201l-27 -177h-32zM188 206h199c84 1 152 50 152 135c0 69 -46 103 -138 103h-176z" />
    <glyph glyph-name="circumflex.cap" horiz-adv-x="520" 
d="M418 891l84 -126h-33l-70 102l-103 -102h-37l125 126h34z" />
    <glyph glyph-name="uniF64E.mono" 
d="M195 189h251l-5 -29h-241c21 -88 97 -143 202 -143c51 0 98 13 143 40l-4 -33c-44 -24 -93 -36 -146 -36c-124 0 -206 68 -227 172h-80l4 29h72c-1 6 -1 15 -1 28c0 19 2 39 5 60h-62l5 29h65c33 108 133 179 254 179c63 0 117 -16 161 -47l-5 -31c-43 33 -95 49 -154 49
c-103 0 -188 -58 -223 -150h255l-4 -29h-260c-4 -18 -6 -38 -6 -60c0 -7 1 -23 1 -28z" />
    <glyph glyph-name="agrave.alt" horiz-adv-x="625" 
d="M561 378l15 95h32l-75 -473h-32l13 78c-53 -60 -119 -90 -197 -90c-69 0 -124 22 -165 65c-41 44 -61 98 -61 162c0 75 25 138 75 191s113 79 188 79c93 0 168 -48 207 -107zM324 17c39 0 76 10 113 31s65 48 85 80l32 212c-15 31 -40 58 -76 81s-77 35 -123 35
c-63 0 -118 -23 -164 -70c-45 -47 -68 -103 -68 -170c0 -57 18 -105 55 -143c37 -37 85 -56 146 -56zM331 700h41l75 -126h-33z" />
    <glyph glyph-name="acute.cap" horiz-adv-x="513" 
d="M298 765l116 126h44l-122 -126h-38z" />
    <glyph glyph-name="grave.cap" horiz-adv-x="519" 
d="M317 891h41l76 -126h-34z" />
    <glyph glyph-name="ring.cap" horiz-adv-x="309" 
d="M178 828c0 48 42 90 91 90s90 -42 90 -90c0 -49 -41 -91 -90 -91s-91 42 -91 91zM269 762c37 0 66 29 66 66s-29 67 -66 67s-66 -30 -66 -67s27 -66 66 -66z" />
    <glyph glyph-name="caron.cap" horiz-adv-x="523" 
d="M364 765l-84 126h33l70 -102l103 102h37l-125 -126h-34z" />
    <glyph glyph-name="uniF722.mono" 
d="M89 177l5 29h71l42 267h220c96 0 152 -53 152 -130c0 -49 -18 -89 -53 -120s-80 -46 -133 -46h-202l-11 -79h223l-5 -29h-223l-11 -69h-31l11 69h-72l5 29h72l12 79h-72zM196 206h199c84 1 152 50 152 135c0 69 -46 103 -138 103h-176z" />
    <glyph glyph-name="uniF727.mono" 
d="M138 92l4 29h163l15 88h-163l4 29h152l-153 235h37l143 -220l212 220h40l-226 -235h152l-4 -29h-163l-15 -88h163l-4 -29h-163l-15 -92h-31l15 92h-163z" />
    <glyph glyph-name="uniF653.mono" 
d="M542 432l-4 -31c-49 37 -109 55 -180 55c-37 0 -71 -8 -102 -24c-30 -16 -45 -41 -45 -76c0 -27 15 -48 44 -64c31 -16 52 -24 95 -37l10 -3c22 -7 38 -13 49 -17c11 -3 25 -9 42 -17c47 -21 65 -46 70 -91c0 -46 -20 -81 -59 -104s-85 -35 -137 -35h-7l-16 -104h-30
l17 106c-75 7 -137 35 -170 62l5 33c54 -45 122 -68 203 -68c24 0 47 3 70 8c47 12 93 47 93 99c0 31 -23 56 -68 75c-13 5 -38 14 -76 26c-112 36 -165 65 -165 129c0 43 17 75 52 97c35 23 78 34 127 34h8l17 106h29l-16 -108c58 -6 106 -23 144 -51z" />
    <glyph glyph-name="uniF721.mono" 
d="M135 169l3 29h384l-5 -29h-250c-53 -19 -79 -46 -79 -80c0 -29 25 -51 61 -60s66 -12 98 -12c48 0 92 7 132 21l-4 -30c-38 -13 -83 -20 -136 -20c-35 0 -70 4 -113 16c-41 13 -71 42 -71 81c0 35 20 63 61 84h-81zM528 388c0 -31 -16 -56 -48 -75h60l-5 -29h-383l4 29
h277c42 19 63 43 63 73c0 29 -24 50 -60 58c-35 9 -62 12 -93 12c-45 0 -90 -8 -133 -24l5 30c39 15 84 23 137 23c36 0 71 -5 110 -18c40 -12 66 -40 66 -79z" />
    </font>
</defs>
</svg>
