<?xml version="1.0" standalone="no"?>
<!DOCTYPE svg PUBLIC "-//W3C//DTD SVG 20010904//EN"
 "http://www.w3.org/TR/2001/REC-SVG-20010904/DTD/svg10.dtd">
<svg version="1.0" xmlns="http://www.w3.org/2000/svg"
 width="500.000000pt" height="500.000000pt" viewBox="0 0 500.000000 500.000000"
 preserveAspectRatio="xMidYMid meet">
<metadata>
Created by potrace 1.11, written by Peter Selinger 2001-2013
</metadata>
<g transform="translate(0.000000,500.000000) scale(0.100000,-0.100000)"
fill="#000000" stroke="none">
<path d="M0 2500 l0 -2500 2500 0 2500 0 0 2500 0 2500 -2500 0 -2500 0 0
-2500z m1750 1490 c36 -6 97 -26 138 -46 89 -44 142 -105 173 -202 21 -63 22
-88 24 -437 1 -203 6 -398 10 -432 l7 -63 -120 0 -120 0 -22 55 -22 55 -37
-28 c-95 -74 -177 -102 -298 -102 -183 0 -314 91 -365 252 -42 138 -8 282 91
370 85 78 208 116 391 124 69 3 140 7 159 10 l33 5 -4 58 c-7 99 -64 151 -184
166 -64 9 -196 -16 -277 -52 -31 -14 -59 -24 -61 -22 -2 2 -24 45 -49 95 l-46
92 67 29 c88 40 130 53 216 68 88 16 210 18 296 5z m2149 -410 c28 -38 53 -70
54 -70 2 0 42 13 90 29 98 33 97 37 22 -65 l-45 -62 54 -73 c30 -41 53 -75 51
-77 -1 -2 -38 8 -81 22 -43 14 -83 26 -89 26 -5 0 -32 -32 -60 -72 l-50 -71
-5 93 -5 93 -90 30 -90 31 93 30 92 30 0 88 c0 48 2 88 4 88 3 0 27 -31 55
-70z m222 -570 c28 -38 56 -70 62 -70 7 0 47 11 90 24 42 13 77 22 77 19 0 -3
-22 -36 -50 -74 -27 -38 -50 -71 -50 -74 0 -2 23 -35 50 -73 28 -38 50 -71 50
-75 0 -3 -39 7 -87 24 -47 16 -87 28 -88 26 -11 -18 -99 -136 -101 -134 -1 1
-4 36 -5 77 -2 41 -5 80 -7 87 -2 7 -42 25 -88 40 -46 15 -81 30 -76 33 4 4
42 17 85 30 l77 24 1 75 c1 42 1 84 0 94 -3 29 7 20 60 -53z m-971 -148 l55
-167 181 -5 182 -5 -144 -105 c-79 -57 -144 -108 -144 -114 0 -5 18 -66 41
-135 65 -199 68 -212 56 -204 -7 4 -70 49 -141 101 -71 51 -134 96 -141 98 -7
3 -77 -42 -156 -100 -78 -58 -144 -105 -145 -103 -2 1 22 81 53 176 32 102 51
176 46 180 -6 3 -72 51 -148 106 l-137 100 183 5 183 5 55 172 c30 95 57 170
60 167 3 -3 31 -81 61 -172z m971 -494 c28 -40 53 -74 53 -75 1 -1 37 9 79 22
43 14 82 25 88 25 6 0 -9 -27 -33 -60 -24 -34 -47 -67 -52 -74 -7 -10 6 -35
42 -85 29 -39 52 -73 52 -75 0 -3 -32 6 -72 20 -39 13 -79 24 -89 24 -11 0
-38 -28 -66 -67 l-48 -68 -5 89 -5 89 -84 28 c-46 16 -86 31 -89 33 -2 3 34
16 82 31 81 25 86 28 91 58 3 18 4 60 1 95 -2 34 -3 62 -1 62 2 0 27 -33 56
-72z m-2291 -149 c36 -5 89 -17 118 -25 l52 -15 0 -124 0 -123 -51 19 c-85 33
-175 50 -263 50 -130 0 -176 -27 -176 -104 0 -57 43 -88 205 -152 160 -62 238
-112 283 -181 58 -86 67 -236 21 -332 -86 -177 -367 -255 -655 -182 -72 19
-204 73 -204 83 0 5 81 201 84 205 2 1 32 -11 67 -27 86 -41 170 -61 249 -61
84 0 133 14 173 50 26 23 32 36 32 69 0 67 -42 100 -212 167 -164 65 -234 109
-280 177 -127 189 -14 436 230 502 62 16 236 19 327 4z m2066 -439 c27 -38 54
-70 60 -70 6 0 44 11 84 25 40 14 75 23 78 20 2 -2 -19 -36 -48 -74 l-52 -71
52 -71 c28 -39 50 -73 47 -75 -2 -2 -37 7 -77 21 -40 14 -78 25 -84 25 -6 0
-33 -32 -61 -72 l-50 -71 -5 93 -5 93 -77 26 c-42 14 -79 28 -82 32 -3 3 33
17 79 33 l85 27 0 90 c0 49 2 89 3 89 2 0 26 -31 53 -70z"/>
<path d="M1585 3340 c-74 -9 -122 -29 -155 -65 -22 -23 -25 -36 -25 -100 0
-64 3 -77 25 -100 44 -47 76 -58 159 -53 52 3 90 12 121 28 81 41 80 38 80
177 l0 123 -72 -1 c-40 -1 -100 -5 -133 -9z"/>
</g>
</svg>
